<svg xmlns="http://www.w3.org/2000/svg" xmlns:xlink="http://www.w3.org/1999/xlink" preserveAspectRatio="none" width="202" height="212" viewBox="0 0 202 212"><defs><g id="a"><path fill="#CDD8DE" d="M49.6 40.1l12.75.05q3.95.1 5.55-3.65 1.55-3.75-1.3-6.6L38.45 1.75Q36.7 0 34.2 0t-4.25 1.75L1.8 29.9Q-1 32.7.5 36.5q1.55 3.75 5.55 3.65l12.75-.05V70q0 2.45 1.75 4.2t4.25 1.75h18.8q2.5 0 4.25-1.75T49.6 70V40.1m12.75-5.95L43.6 34.1V70H24.8V34.1L6 34.15 34.2 6l28.15 28.15z"/><path fill="#F93" d="M43.6 34.1l18.75.05L34.2 6 6 34.15l18.8-.05V70h18.8V34.1z"/></g><path id="b" stroke="#B66D24" stroke-linejoin="round" stroke-linecap="round" fill="none" d="M43.6 34.1V70H24.8V34.1L6 34.15 34.2 6l28.15 28.15-18.75-.05z"/></defs><g transform="rotate(-45 58.424 24.2)"><use xlink:href="#a"/><use xlink:href="#b"/></g><g transform="rotate(45 76.45 184.567)"><use xlink:href="#a"/><use xlink:href="#b"/></g><g transform="rotate(135 66.86 123.41)"><use xlink:href="#a"/><use xlink:href="#b"/></g><g transform="rotate(-135 68.115 95.855)"><use xlink:href="#a"/><use xlink:href="#b"/></g></svg>