<svg xmlns="http://www.w3.org/2000/svg" xmlns:xlink="http://www.w3.org/1999/xlink" preserveAspectRatio="none" width="225" height="219" viewBox="0 0 225 219"><defs><linearGradient id="a" gradientUnits="userSpaceOnUse" x1="21.125" y1="19.575" x2="123.275" y2="121.725"><stop offset="0%" stop-color="#333" stop-opacity=".051"/><stop offset="100%" stop-color="#333" stop-opacity=".2"/></linearGradient><linearGradient id="b" gradientUnits="userSpaceOnUse" x1="70.4" y1="15.712" x2="70.4" y2="128.287"><stop offset="0%" stop-color="#FFF" stop-opacity=".502"/><stop offset="16.471%" stop-color="#8AC859" stop-opacity=".502"/><stop offset="85.49%" stop-color="#8AC859" stop-opacity=".498"/><stop offset="100%" stop-color="#FFF" stop-opacity=".502"/></linearGradient><linearGradient id="c" gradientUnits="userSpaceOnUse" x1="72.2" y1="6.987" x2="67.1" y2="47.013"><stop offset="0%" stop-color="#FFF" stop-opacity=".2"/><stop offset="100%" stop-color="#ACD630" stop-opacity=".2"/></linearGradient><path fill="url(#a)" d="M144.6 9.65q0-9.7-9.75-9.65H9.75Q0-.05 0 9.65V131.6q0 9.7 9.75 9.7h125.1q9.75 0 9.75-9.7V9.65z" id="d"/><path fill="#FEFFFD" d="M141.95 11.7q0-9.75-9.75-9.75H11.7q-9.75 0-9.75 9.75v117.25q0 9.75 9.75 9.75h120.5q9.75 0 9.75-9.75V11.7z" id="e"/><path fill="#8AC859" d="M133.8 21.3q0-11.65-11.65-11.65H18.95q-11.7 0-11.7 11.65v100.5q0 11.65 11.7 11.65h103.2q11.65 0 11.65-11.65V21.3z" id="g"/><path fill="url(#b)" d="M130.6 25.9q0-13.1-14.05-13.1h-92.1q-14.25 0-14.05 13.1v92.4q-.2 13.15 14.05 13.15h92.1q14.05 0 14.05-13.15V25.9z" id="h"/><path fill="url(#c)" d="M129.2 21.85q-.4-6.25-1.15-7.4-1.2-1.6-6.65-1.55H22.1q-6.85 0-8.75.95-2.95 1.45-2.95 6.8 0 6.85 7.4 10.2 5.7 2.6 20.45 4.6 28.15 3.9 30.9 4.35 20.9 3.5 38.75 9.35 18.05 5.9 21.5-8.85 1.1-4.7.6-11.4-.25-3.45-.8-7.05z" id="i"/><path id="f" stroke="#77BB4A" stroke-width="4" stroke-linejoin="round" stroke-linecap="round" fill="none" d="M133.825 21.3v100.5q-.006 11.67-11.675 11.675H18.925Q7.268 133.47 7.275 121.8V21.3Q7.268 9.643 18.925 9.65H122.15q11.67-.007 11.675 11.65z"/></defs><use xlink:href="#d" transform="matrix(1.5567 0 0 1.55634 .95 0)"/><use xlink:href="#e" transform="matrix(1.5567 0 0 1.55634 .95 0)"/><use xlink:href="#f" transform="matrix(1.5567 0 0 1.55634 .95 0)"/><use xlink:href="#g" transform="matrix(1.5567 0 0 1.55634 .95 0)"/><use xlink:href="#h" transform="matrix(1.5567 0 0 1.55634 .95 0)"/><use xlink:href="#i" transform="matrix(1.5567 0 0 1.55634 .95 0)"/></svg>