<svg xmlns="http://www.w3.org/2000/svg" xmlns:xlink="http://www.w3.org/1999/xlink" preserveAspectRatio="none" width="96" height="165" viewBox="0 0 96 165"><defs><g id="a"><path fill="#FFF" d="M562.35 260.1l-1.65-8.4q-30.9-11.75-22.1 35.8l6.6.3 21.85 1.1-3.3-12.6-6.85 1.25q-5.65-.2-8.95-2.45-7.95-7.45 1.25-11.75l13.8.4-.65-3.65m29.25-85.2l.4-1.15-.4.9-.05.2.05.05m-15.7-3.05q-.5.15-.5 1l.05.65.15.2.4.25.55.1q.55 0 .9-.45l.25-.75q0-1.05-1.15-1.1l-.65.1m-22.6 1l.05.1.05.5q.3.6 1.05.6l.85-.45.3-.75q0-1.05-1.15-1.1-.55-.05-.8.2-.35.3-.35.9z"/><path fill="#E6E6E6" d="M560.7 251.7l-.5-2.6q-45.95-11.9-24.75 38.35l3.15.05q-8.8-47.55 22.1-35.8z"/><path fill="#F8A529" d="M524 279.25l2.1-1.8 2.4-2.1q.65-.85.2-2.7l-3.6 2.25q-4.8 3.15-4.85 4.3l3.7.1.05-.05m15.45-41.5l7.15.15q.7-10.9 1.75-16.4-3.35 15.8-8.9 16.25m20.7-21.45v-4.8l-1.25.75 1.25 4.05m35.25 55.85q4.1-1.3 7.5-3.3l1.75-21q-3.4 28.75-34.75 24.25-7.1 4.7-21.95 3 3.3 2.25 8.95 2.45l6.85-1.25 7.35-1.35q14.3.4 24.3-2.8M592 241.9v-7q-.8 4.1-2.1 3.8.6 2.85 2.1 3.2m-11.1-27.7l1.25-3.35-1.25-.7v4.05m0-6.95v-2.85l-2.85 1.75q-4.25 2.15-9.95 2.4-4.35.2-7.95-1.15v2.85q3.6 1.3 7.95 1.15 5.7-.25 9.95-2.4l2.85-1.75m15.4-27.5l-.15-3.65q-1.1 9.65-4.3 10.6.25 1.85 1.2 1.9.8.05 2.05-2.4 1.2-2.5 1.2-6.45m-24.35-16.4l-1.45 2.6 14.4.55-.2-2.65-12.75-.5m-7.5 1.5l-1.05 3.3q4.25-2.5 7.7-5.9l4.3-7.7q-4.5 6.3-10.95 10.3m4 36.2l-.3-.75q-.3-.25-.7-.25-.45 0-.8.25l-.25.75.25.75.8.3.7-.3.3-.75m-6.6-14.25l-.1.9q0 1.6 1.05 2.65 1 1 2.55.6l2.2-.75q.6-.4 1.4-3l-1.4 1.1q-.65.4-2.2.8-1.55.35-2.55-.6-.75-.75-.95-1.7m-8.75-27.75l.45-3.4-6.6 10.4-.35 3.25 6.5-10.25m12.3.45l1.25-3.85q-6.35 6.3-14.5 9.35l-1.35 3.15q8.15-2.8 14.6-8.65z"/><path fill="#FCCE8B" d="M526.1 267q-.1-1.95-1.55-2.7l-3.45.2h-.05l-1.15.1q-6.4 1.1-1.3 10.05.3 1.85.85 3.2l.8 1.35q.05-1.15 4.85-4.3l3.6-2.25-.55-1.65q-.7-1.75-2.05-4m22.25-45.5l1-3.95-3.45 1.9q-5.4 3.7-7.25 13.95v4.25l.8.1q5.55-.45 8.9-16.25m32.55-11.35v-2.9l-2.85 1.75q-4.25 2.15-9.95 2.4-4.35.15-7.95-1.15v6.05l-1.25-4.05-1.25.7q9.25 35.65 25.8-1.4l-1.3-.7-1.25 3.35v-4.05m14 7.9l-3.8-2.15q-2.5 16.9-1.2 22.8 1.3.3 2.1-3.8v7l.05 3.5v.05l.1 14.6-15.25 4.65-6.85 2.15q-2.25-5-7.7-6.75l.65 3.65-13.8-.4q-9.2 4.3-1.25 11.75 14.85 1.7 21.95-3 31.35 4.5 34.75-24.25v-9.1q-1.15-15.7-9.75-20.7m-44.1-49.9l1.35-3.15-1.35.5q1.6-3 2.3-6.45l-6.5 10.25-1.9 14.25q.6 8.45 6.4 16.6 2.55 3.55 5.75 5.6l2.85 1.5.45.15q3.6 1.35 7.95 1.15 5.7-.25 9.95-2.4l2.85-1.75q1.95-1.45 3.55-3.4 5.65-7.1 7.4-14.3 3.2-.95 4.3-10.6l-.4-1.5-.85-1.4q-.6-.9-1.3-.9-.5 0-.95.5l-.65.95-.4 1.15-5.25 16.3-1.45-24.7-14.4-.55 1.45-2.6-1.45-.05.6-1.05q-3.45 3.4-7.7 5.9l1.05-3.3-1.05.65 2-6q-6.45 5.85-14.6 8.65m2.85 3.8l.1-.4q.7-1.5 1.65-1.5.9 0 1.6 1.5.65 1.4.7 3.25v.45q0 2.1-.7 3.65-.7 1.55-1.6 1.55-.95 0-1.65-1.55-.65-1.55-.65-3.65v-.45q.05-1 .25-1.85l-.05-.1q0-.6.35-.9m8.1 15.75l.1-.9q.2.95.95 1.7 1 .95 2.55.6 1.55-.4 2.2-.8l1.4-1.1q-.8 2.6-1.4 3l-2.2.75q-1.55.4-2.55-.6-1.05-1.05-1.05-2.65m4.8 8.7l.15-.1h.65l.2-.15.1 1.85-.1.05-.5.3h-.45l-.05-1.95m8.85-23.55q0-.85.5-1l.1-.3q.75-1.5 1.65-1.5.95 0 1.6 1.5.65 1.45.7 3.35v.35q0 2.1-.7 3.65-.65 1.55-1.6 1.55-.9 0-1.65-1.55-.65-1.55-.65-3.65v-.35l.1-1.4-.05-.65m-7.25 27.45l.3.75-.3.75-.7.3-.8-.3-.25-.75.25-.75q.35-.25.8-.25.4 0 .7.25z"/><path fill="#CCC" d="M546.6 237.9l-7.15-.15-.8-.1q-15.25-.9-29.8 1.25 6.75 12.8 12.2 25.6h.05l3.45-.2q1.45.75 1.55 2.7 1.35 2.25 2.05 4l.55 1.65q.45 1.85-.2 2.7l-2.4 2.1 2.9 10.35 6.45-.35q-21.2-50.25 24.75-38.35l-2.05-10.95-9.95-.2-1.6-.05z"/><path fill="#060" d="M549.35 217.55l-1 3.95q-1.05 5.5-1.75 16.4l1.6.05q.75-10.95 1.75-16.45l1.1-4.9-1.7.95m35.7-5.05l-1.6-.95q-16.55 37.05-25.8 1.4l-1.35.7q10.35 40.1 28.75-1.15m6.05 3.4l-2-1.1q-3.55 21.7-1.25 26.6 2.3 4.85 4.2 4l-.05-3.5q-1.5-.35-2.1-3.2-1.3-5.9 1.2-22.8z"/><path fill="#A3CA02" d="M576.9 264.7l15.25-4.65-.1-14.6q-1 14.55-15.15 19.25m-4.8 27.75l-4-11.4q23.7-.55 27.25-6.6l.05-2.3q-10 3.2-24.3 2.8l-7.35 1.35 3.3 12.6-21.85-1.1v2.3l26.9 2.35z"/><path fill="#CF0" d="M568.1 281.05l4 11.4-26.9-2.35-.05 4.4q22.05 7.1 49.45.45l.75-20.5q-3.55 6.05-27.25 6.6m23.95-35.65q-1.9.85-4.2-4-2.3-4.9 1.25-26.6l-4.05-2.3q-18.4 41.25-28.75 1.15l-5.25 2.95-1.1 4.9q-1 5.5-1.75 16.45l9.95.2 2.05 10.95.5 2.6 1.65 8.4q5.45 1.75 7.7 6.75l6.85-2.15q14.15-4.7 15.15-19.25v-.05z"/><path fill="#3C0000" d="M570.5 163.3l1.45.05 12.75.5q4.6-4.2 3.3-8.45-4.25 6.35-17.5 7.9m24.6-2.2l-2-6.5q-.9 17.4-8.2 11.9l1.45 24.7 5.25-16.3-.05-.05.05-.2.4-.9.65-.95q.45-.5.95-.5.7 0 1.3.9 3.3-6.9 5.15-13.15l-4.95 1.05m-31.7 4.4l1.05-.65q6.45-4 10.95-10.3 1.55-5.25.25-5.75-3.65 8.95-12.25 16.7m3.25-9.85l.2-6.9q-5.35 9.05-16.05 16.75l1.35-.5q8.15-3.05 14.5-9.35z"/><path fill="#9F6" d="M579.95 175.25v-.35q-2.3 4.9-4.6 0v.35q0 2.1.65 3.65.75 1.55 1.65 1.55.95 0 1.6-1.55.7-1.55.7-3.65m-22.25 0v-.45q-2.8 6.2-4.6 0v.45q0 2.1.65 3.65.7 1.55 1.65 1.55.9 0 1.6-1.55.7-1.55.7-3.65z"/><path fill="#7ACA02" d="M576 171.55l-.1.3.65-.1q1.15.05 1.15 1.1l-.25.75q-.35.45-.9.45l-.55-.1-.4-.25-.15-.2-.1 1.4q2.3 4.9 4.6 0-.05-1.9-.7-3.35-.65-1.5-1.6-1.5-.9 0-1.65 1.5m-22.25 0l-.1.4q.25-.25.8-.2 1.15.05 1.15 1.1l-.3.75-.85.45q-.75 0-1.05-.6l-.05-.5q-.2.85-.25 1.85 1.8 6.2 4.6 0-.05-1.85-.7-3.25-.7-1.5-1.6-1.5-.95 0-1.65 1.5z"/><path d="M566.7 196.3l-.15.1.05 1.95h.45l.5-.3.1-.05-.1-1.85-.2.15h-.65z"/><path fill="#600" d="M556.25 133.75l4.4 6.05-24.1-4.4 7.15 10.4-7.7-3.3 4.95 7.7h-6.55l11.95 10.8h-7.6l5.25 6.8.7 15.75 1.9-14.25.35-3.25 6.6-10.4-.45 3.4q-.7 3.45-2.3 6.45 10.7-7.7 16.05-16.75l-.2 6.9-1.25 3.85-2 6q8.6-7.75 12.25-16.7 1.3.5-.25 5.75l-4.3 7.7-.6 1.05q13.25-1.55 17.5-7.9 1.3 4.25-3.3 8.45l.2 2.65q7.3 5.5 8.2-11.9l-6.2-19.75-2.75 7.65-27.9-8.75z"/></g><path id="b" stroke="#000" stroke-linejoin="round" stroke-linecap="round" fill="none" d="M560.65 139.8l-4.4-6.05 27.9 8.75 2.75-7.65 6.2 19.75 2 6.5 4.95-1.05q-1.85 6.25-5.15 13.15m-50.2 10.35l-.7-15.75-5.25-6.8h7.6l-11.95-10.8h6.55l-4.95-7.7 7.7 3.3m27.4 16.45l-.6 1.05m14.4 3.2l-.2-2.65m-21.3 1.65l1.05-.65m-10.9-9.2l-6.6 10.4-.35 3.25-1.9 14.25m50.2-10.35q-.6-.9-1.3-.9-.5 0-.95.5l-.65.95-.4 1.15m-5.25 16.3l-1.45-24.7m-14.4-3.2l1.45.05"/></defs><g transform="translate(-508.85 -133.75)"><use xlink:href="#a"/><use xlink:href="#b"/></g></svg>