<svg xmlns="http://www.w3.org/2000/svg" xmlns:xlink="http://www.w3.org/1999/xlink" preserveAspectRatio="none" width="40" height="40" viewBox="0 0 40 40"><defs><path fill="#B5793B" d="M46.2 87.1l-2.5 1.75v.25l1.5 1.5 13.5 18.05 4 6.5 1.75 4.8.25 2-.25 6.75-1 5.5-2.75 8.05h22.5l-1.5-3.5-1.25-4.55-1-5.75-.25-6.5.25-2 1.75-4.55 4.75-7.25 8.7-11-6.45 2.25-14.25 17.05-.75.5-1 .25-.75-.25-.75-.5L46.2 87.1z" id="a"/><path fill="#8CC63F" d="M86.95 22.9l-1.25-2.5-1.75-2.25-4.25-3.5-5.25-2-3-.25-1-.25-2.75.25-5.25 1.75-2.25 1.25-3.75 3.5-3.25 5.25-.75.5-1 .25-.75-.25-2-1-4-1.25-5-.25-1.75.25-3.25 1-3 1.5-2.5 1.75-2.95 3.8-1.5 2.75-.5 1.5-.5 3.25v1l.5 3.5v1l-.5.75-.75.75-1 .25v-.25l-5.25.75-1.5.5-3 1.5-2.5 2.05-3 3.5-1.5 3-.5 1.5-.5 3.25v1L5 66.5l.75 2.05 2.5 4 1.5 1.5 4 2.75.75.75.25.5v.75l.5 3 1 3 1.5 2.8 2 2.5 2.5 2 4.25 2.25 1.7.5 3.25.5h3l1.5-.25 3.5-1 4.25-2.5 1.25-1.25 1.5-.5h.25l.75.25.75.5 5.25 5.25 3 2.25 7 3.75 7.5 2 4.25.5h4.75l5-.75 7.2-2.25 4.5-2.25 4-2.75 1.75-1.5 3.25-3.5 3-4 1-2.05.5-.5.75-.5.5-.25.75.25 5.75.25 3.5-.5 1.5-.5 3-1.5 2.5-2 2-2.25 1.75-2.75.75-1.5.5-1.5.5-3.25v-1l-.75-4.8-.5-1.5-1.5-2.75-2-2.5-4-3-1.5-.75-4.75-1.5h-3l-1-.25-.75-.75-.5-1 .75-3.05.25-4.75-.25-1.75-1-3-1.5-2.75-2-2.5-3.75-3.05-1.5-.75-5-1.5H97.9l-1-.25-6.25 1.25h-1l-.7-.25-.75-.5-.5-.75-.75-2.5z" id="b"/></defs><use xlink:href="#a" transform="translate(1.1 -.95) scale(.27417)"/><use xlink:href="#b" transform="translate(1.1 -.95) scale(.27417)"/></svg>