<svg xmlns="http://www.w3.org/2000/svg" xmlns:xlink="http://www.w3.org/1999/xlink" preserveAspectRatio="none" width="192" height="197" viewBox="0 0 192 197"><defs><path fill="#7A9801" d="M9.7-11.2q-1.75-.35-3.2.65-.65.4-1.1 1h-.1q-2.5-.5-4.55.9Q-1.4-7.2-1.9-4.75q-.1.65-.1 1.2-1.8-.35-3.35.7Q-6.9-1.8-7.3.05q-.35 1.85.7 3.4Q-5.55 5-3.75 5.4q1.7.3 3.2-.55-.25 2.1 1 4 0 .05.05.05-.6.1-1.15.45-1 .7-1.25 1.95-.25 1.2.45 2.2.65 1.05 1.9 1.3 1.2.25 2.2-.45.95-.6 1.25-1.55.15.75.6 1.45.95 1.45 2.7 1.8 1.7.35 3.15-.65 1.35-.9 1.75-2.5.85.9 2.15 1.15 1.8.35 3.35-.7.5-.35.9-.8.65.45 1.5.65 1.65.3 3-.6 1.35-.9 1.65-2.55.35-1.6-.55-2.95-.45-.6-.9-1 1.15-1.15 1.5-2.85.4-2.25-.85-4.1-.95-1.5-2.5-2.1.55-.75.75-1.8.4-1.8-.65-3.3-1-1.55-2.8-1.9-1.8-.35-3.3.65-1.2.8-1.7 2.05-.1.05-.15.1-.25.15-.35.3.05-1.35-.7-2.55-1-1.45-2.75-1.8m1.15 20l-.05-.05.05-.05h.05q0 .05-.05.1z" id="a"/><g id="b"><path fill="#BDEC02" d="M8.15 10.05q-.2-.05-.35-.1-.5.2-1.25.4-1.3.25-1.95.45-2.2.6-2.6 2.4l-.1.45q.2-.05.35-.1.9-.4 2.7-1.05 1.55-.6 2.3-1.3.55-.5.9-1.15m-5-6.3h-.1Q2.85 5.6 4.4 7.6q1.4 1.85 3.4 2.35.25-.1.45-.2.1-.15.1-.3-1.75-2.1-2.8-3.3-1.35-1.6-2.4-2.4m7.6 7.15q1.6.35 3.1.2 1.6-.1 2.95-.6-.4-.15-.85-.3-1.55-.7-2.6-.9-.95-.2-2.8.1-1.05.2-1.65.4-.05.05-.05.15.2.15.45.3.7.5 1.45.65z"/><path fill="#7A9801" d="M8.35 10.05h-.2q-.35.65-.9 1.15-.75.7-2.3 1.3-1.8.65-2.7 1.05-.15.05-.35.1l-.05.4 2.9.6q1.55-.25 2.65-1.9.9-1.35.95-2.7M6.7 5.55Q5.8 4.6 5.55 4.2l-2.4-.45q1.05.8 2.4 2.4 1.05 1.2 2.8 3.3.1-.2.15-.4L8.65 9l-.2-.5q-.05-.1-.75-1.75-.15-.3-1-1.2m6.5 2.7q-1.55-.35-2.7.2-.95.4-1.6 1.35.6-.2 1.65-.4 1.85-.3 2.8-.1 1.05.2 2.6.9.45.15.85.3l.2-.1q-.35-.65-1.45-1.3-1.1-.6-2.35-.85z"/></g><g id="c"><path fill="#7A9801" d="M8.65 10q0 .7-.2 1.45-.35 1-1.35 2.3-1.2 1.5-1.85 2.25-.05.15-.2.25l.15.4L8 15.7q1.2-1 1.35-3 .1-1.6-.5-2.75-.1 0-.2.05m-5.1-3.7l-2.35.8q1.35.15 3.25.8 1.55.55 4.1 1.45 0-.2-.1-.35l.15-.15q-.25-.15-.45-.35-.1-.05-1.5-1.1-.3-.2-1.5-.55-1.25-.35-1.6-.55m6.85 2q1.5-1.25 2.4-1.55 1-.35 2.7-.5.5-.15.85-.2.05-.1.15-.15-.65-.4-1.9-.4-1.3 0-2.5.4-1.5.55-2.25 1.55-.55.85-.65 1.95.35-.45 1.2-1.1z"/><path fill="#BDEC02" d="M8.65 10q-.15.05-.35.1-.35.45-.9 1-1 .85-1.45 1.3-1.65 1.65-1 3.45l.1.4q.15-.1.2-.25.65-.75 1.85-2.25 1-1.3 1.35-2.3.2-.75.2-1.45M1.2 7.1h-.1q.75 1.7 3.05 2.7 2.2.85 4.15.3.2-.2.3-.35V9.7q0-.2-.05-.35Q6 8.45 4.45 7.9q-1.9-.65-3.25-.8m11.6-.35q-.9.3-2.4 1.55-.85.65-1.2 1.1v.2q.25 0 .55.05.85.1 1.55-.15 1.55-.55 2.85-1.45 1.35-.85 2.2-2-.35.05-.85.2-1.7.15-2.7.5z"/></g><g id="d"><path fill="#7A9801" d="M4.25-4.55q-.55.25-.95.85.35-.15 1-.25 1.2-.2 1.8-.05.65.1 1.65.5.3.2.55.25.05-.05.1-.05-.25-.4-.95-.8-.7-.45-1.45-.6-1-.2-1.75.15M2.9-3.5q-.05 0-.1-.05-.2.4-.6.75-.45.4-1.4.8-1.15.45-1.75.7-.1 0-.15.05l-.05.25 1.8.35q1-.15 1.7-1.15.55-.9.55-1.7m-1-2.85q-.55-.6-.75-.9l-1.5-.3q.65.55 1.5 1.5.65.8 1.8 2.15.05-.15.05-.25l.1-.05q0-.15-.1-.35 0-.05-.5-1.05-.05-.2-.6-.75z"/><path fill="#BDEC02" d="M3.3-3.7q-.05.05-.05.1.15.1.25.2.5.3.95.4 1 .2 2 .15 1-.05 1.85-.4-.25-.05-.55-.25-1-.4-1.65-.5-.6-.15-1.8.05-.65.1-1 .25m-.5.15q-.15 0-.25-.05l-.75.25q-.85.2-1.25.25-1.4.4-1.6 1.6l-.05.25q.05-.05.15-.05.6-.25 1.75-.7.95-.4 1.4-.8.4-.35.6-.75m-.25-.05q.2-.05.3-.1h.05q.05-.1.05-.2-1.15-1.35-1.8-2.15Q.3-7-.35-7.55h-.1q-.1 1.2.9 2.5.9 1.15 2.1 1.45z"/></g><g id="e"><path fill="#7A9801" d="M17.05.35Q16.7.7 16 1.1q-1.3.75-2.05.8-.8.05-2.1-.2-.35-.05-.65-.1-.1.05-.15.1.4.55 1.3.9 1 .3 1.95.25 1.2-.05 1.95-.85.55-.6.8-1.65M20.7 4.8l1.85-.1q-.95-.55-2.2-1.7-1.1-.85-2.8-2.4v.35l-.1.1q.1.2.25.45.05.05.9 1.45.2.2 1.05.85.85.65 1.05 1M17.45-.05h.2q.1-.7.4-1.3.4-.85 1.35-1.75 1.2-1.1 1.8-1.6.1-.15.2-.25l-.05-.4-2.2.15q-1.1.65-1.6 2.4-.35 1.5-.1 2.75z"/><path fill="#BDEC02" d="M17.05.35l.1-.2q-.2 0-.4-.15-.65-.25-1.2-.25-1.25.1-2.35.55-1.15.5-2 1.3.3.05.65.1 1.3.25 2.1.2.75-.05 2.05-.8.7-.4 1.05-.75m5.5 4.35l.1-.1q-.2-1.75-1.8-3.3-1.4-1.4-2.95-1.4-.2.15-.3.35l-.05.05v.3q1.7 1.55 2.8 2.4 1.25 1.15 2.2 1.7m-4.9-4.75q.1-.05.25-.05.3-.25.8-.6.9-.55 1.35-.9 1.5-1.1 1.35-2.95v-.4q-.1.1-.2.25-.6.5-1.8 1.6-.95.9-1.35 1.75-.3.6-.4 1.3z"/></g><path fill="#96BA01" d="M6.9-32.4q.4-.6.55-1.3Q7.7-35 7-36.1q-.7-1.05-2-1.35-1.3-.25-2.4.5-.85.55-1.15 1.45-.1 0-.15.05-.15.1-.25.2.05-.9-.5-1.75-.7-1.1-1.95-1.35t-2.25.5q-.5.3-.85.7h-.05q-1.8-.35-3.25.65-1.5 1-1.85 2.8-.1.4-.1.8-1.3-.2-2.4.55-1.15.75-1.4 2.05-.25 1.3.5 2.45.75 1.1 2.05 1.4 1.2.2 2.3-.45-.15 1.55.7 2.9-.4.1-.8.35-.7.5-.9 1.35-.15.9.3 1.6.55.8 1.4.95.85.2 1.6-.35.6-.4.85-1.1.1.55.45 1.05.65 1 1.9 1.25 1.2.25 2.3-.4.95-.65 1.2-1.85.65.65 1.6.85 1.25.25 2.3-.5.35-.2.7-.6.45.35 1.05.5 1.15.2 2.1-.4 1-.7 1.25-1.85.25-1.15-.45-2.1-.3-.45-.65-.7.85-.85 1.1-2.05.3-1.6-.55-2.95Q8-32.05 6.9-32.4m-7.5 8.25h.05v.1l-.05-.05v-.05z" id="f"/><g id="g"><path fill="#7A9801" d="M-2.55-23.15q-.25.45-.6.8-.6.55-1.65.95-1.25.45-1.95.75-.1.05-.2.05l-.05.3 2.05.4q1.1-.1 1.9-1.3.6-1 .65-1.9-.05 0-.15-.05m-1-3.2q-.65-.65-.8-.95l-1.7-.35q.7.65 1.7 1.7l2 2.4q0-.15.05-.3l.1-.05q0-.15-.1-.4l-.55-1.2q-.1-.2-.7-.85m7.2 3.5q.1 0 .15-.05-.25-.5-1.05-.9-.8-.45-1.65-.65-1.15-.2-1.95.2-.7.3-1.15.9.4-.1 1.15-.2 1.35-.3 2.05-.15.75.15 1.85.65l.6.2z"/><path fill="#BDEC02" d="M-2.8-23.2q-.4.15-.9.25l-1.35.3q-1.6.45-1.85 1.75l-.05.3q.1 0 .2-.05.7-.3 1.95-.75 1.05-.4 1.65-.95.35-.35.6-.8-.1 0-.25-.05m-3.25-4.45h-.1q-.2 1.3.95 2.8 1 1.3 2.4 1.65.25-.05.35-.1v-.05q.1-.1.1-.2l-2-2.4q-1-1.05-1.7-1.7m7.6 5.3q1.15-.1 2.1-.5l-.6-.2q-1.1-.5-1.85-.65-.7-.15-2.05.15-.75.1-1.15.2 0 .1-.05.15.2.1.3.25.5.35 1.05.45 1.15.2 2.25.15z"/></g><g id="h"><path fill="#7A9801" d="M-2-23.2q-.05.05-.15.05.05.5-.15 1-.2.7-.9 1.65-.9 1.05-1.35 1.6-.1.15-.2.2l.1.3 2-.65q.95-.75 1.05-2.2.05-1.1-.4-1.95m-2.65-2.2q-.85-.25-1.15-.45l-1.65.6q.95.15 2.3.6 1.1.4 2.95 1.05-.05-.15-.1-.25l.1-.1q-.1-.15-.3-.3-.05 0-1.05-.8-.25-.15-1.1-.35m5.45-.05q.75-.25 1.9-.45.4 0 .65-.05.05-.1.1-.15-.45-.3-1.35-.25-.95-.05-1.75.25-1.1.4-1.6 1.1-.45.6-.5 1.4.3-.3.85-.8 1.05-.85 1.7-1.05z"/><path fill="#BDEC02" d="M-2.15-23.15q-.1.05-.25.1-.25.3-.6.65-.75.6-1.1.95-1.1 1.15-.7 2.45l.05.3q.1-.05.2-.2.45-.55 1.35-1.6.7-.95.9-1.65.2-.5.15-1m-5.3-2.1h-.1q.55 1.25 2.2 1.9 1.55.65 2.95.3.15-.15.2-.3v-.05q.05-.1 0-.2-1.85-.65-2.95-1.05-1.35-.45-2.3-.6M2.7-25.9q-1.15.2-1.9.45-.65.2-1.7 1.05-.55.5-.85.8v.15h.4q.6.05 1.1-.1 1.1-.35 2.05-.95.95-.65 1.55-1.45-.25.05-.65.05z"/></g><g id="i"><path fill="#7A9801" d="M-9.1-31.15l-.05.15 1.3.25q.75-.05 1.25-.85.4-.6.45-1.15-.1-.05-.15-.05-.15.3-.4.5-.3.3-1 .6-.85.3-1.25.45-.05.05-.15.1m2.65-3.15q-.05-.15-.45-.55-.45-.4-.5-.6l-1.1-.25q.45.45 1.05 1.1.5.6 1.3 1.5v-.2l.1.05q0-.1-.1-.3l-.3-.75m4.1 1.65q.05.05.1 0-.2-.3-.65-.55-.55-.3-1.1-.45-.7-.1-1.2.15-.45.15-.7.6.25-.15.7-.2.85-.15 1.3-.05.5.1 1.15.4.2.1.4.1z"/><path fill="#BDEC02" d="M-9.05-31.35l-.05.2q.1-.05.15-.1.4-.15 1.25-.45.7-.3 1-.6.25-.2.4-.5h-.1q-.25.05-.6.15-.55.05-.85.15-1 .3-1.2 1.15m.55-4.35l-.05.05q-.15.8.55 1.75.7.85 1.6 1.1.1-.1.2-.15 0-.1.05-.15-.8-.9-1.3-1.5-.6-.65-1.05-1.1m4.85 3.4q.65-.1 1.3-.35-.2 0-.4-.1-.65-.3-1.15-.4-.45-.1-1.3.05-.45.05-.7.2-.05 0-.05.05l.2.1q.3.3.65.35.7.15 1.45.1z"/></g><g id="j"><path fill="#7A9801" d="M3.9-30.05q-.25.25-.8.5-.9.55-1.4.55-.6.05-1.55-.1-.25-.1-.45-.05-.05 0-.1.05.3.4.95.65.65.2 1.35.15.85-.05 1.4-.6.4-.45.6-1.15m.35.45l-.1.05q.1.15.15.3.05.05.7 1 .1.2.7.65t.8.7l1.35-.1q-.7-.4-1.65-1.2-.75-.6-1.95-1.7v.3M7-33.8l-.05-.3-1.6.1q-.75.4-1.05 1.75-.3 1-.15 1.9h.15q.05-.45.3-.95.25-.55.95-1.25.85-.75 1.3-1.15.05-.05.15-.1z"/><path fill="#BDEC02" d="M3.9-30.05v-.15q-.1-.05-.25-.15-.45-.15-.85-.1-.85.05-1.7.35-.8.35-1.4.95.2-.05.45.05.95.15 1.55.1.5 0 1.4-.55.55-.25.8-.5m.35-.05q-.05.1 0 .2 1.2 1.1 1.95 1.7.95.8 1.65 1.2h.05q-.2-1.3-1.35-2.35-1-1-2.1-1.05-.1.15-.2.25v.05M7-33.55v-.25q-.1.05-.15.1-.45.4-1.3 1.15-.7.7-.95 1.25-.25.5-.3.95.05 0 .15-.05l.6-.4q.65-.4.95-.65 1.1-.75 1-2.1z"/></g><g id="k"><path fill="#B1B101" d="M2.6 2.15q.05-.3.15-.45l-.05-.05q-.35.1-.75 0l-.7 3.65q.35.9.75 2.3.25.9.4 1.1.3.25.9.4.5.05 2.15.4 1.95.4 2.9.2.9-.15 1.5-.85.3-.65.7-1.15-.7-.1-1.45-.2-3.8-.8-5.2-1.7-1.8-1.2-1.3-3.65M-2 18.35q-.4 2.25.75 4.95 1.1 2.5 3.3 4.9 4.9 5.35 10.95 6.6.15-.25.15-.7Q2.95 29.8 2.1 21.7q-.2-2.6-.45-4.5-.8-.2-1.9-1.05-1.09-.854-1.05-1.2l-.7 3.4M-1.05-.9q-2.3-.5-3.5-1.5-.3-.3-.6-.7-.2 1.75.2 2.55.5.9 2.2 1.25 1.9.4 3.05-3.1Q-.95-.9-1.05-.9z"/><path fill="#990" d="M12.9-18.85q-1 3.2-7.55 10.8Q3.2-5.45.9-3.1q-.3.4-.6.7Q-.85 1.1-2.75.7q-1.7-.35-2.2-1.25-.4-.8-.2-2.55-.6-.7-.85-1.6-.15-.45-.7-3.05-.45-2.2-1.2-3.75l-3.15-.95q1.6 2.45 2 8.7.35 4.65.7 6.15-.2-.05-.35 0-.15-.05-.3 0-1.45.05-2.9.55-1.85.85-3 .95-.1 0-.25.05-.1-.05-.25 0h-.1q-5.35-.3-5.55 3.25 1.2-.1 3.6-.25l9.05 1.8q.05.5-.1 1.1-.25 1.15-.3 8.75 0 7.65-6.85 18.85.45 3.6 11.7-5.7 15.3 6 16.95 3.05-6.05-1.25-10.95-6.6-2.2-2.4-3.3-4.9-1.15-2.7-.75-4.95l.7-3.4q-.04.346 1.05 1.2 1.1.85 1.9 1.05-.45-4.05-.4-5 0-1.35 1.05-1.4 1-.1 4 .4 3.05.35 5.8-.35 4.9-1.3 6.95-3.25 2.6-2.55 3.05-8.05l-1-1.5q-.2.25-1.4 2.7-1.05 2.15-2 3.5-2.8 3.65-7.15 3.45-.4.5-.7 1.15-.6.7-1.5.85-.95.2-2.9-.2-1.65-.35-2.15-.4-.6-.15-.9-.4-.15-.2-.4-1.1-.4-1.4-.75-2.3l.7-3.65q.4.1.75 0l.05.05Q3.4 0 6.05-3.2q3.3-3.75 4-4.65.9-1.3 2.8-5.65 1.85-4.3 2.8-5.5l-2.75.15z"/></g><path fill="#748F01" d="M18.4-6.85q-.1.45-.1.85-1.3-.25-2.45.5-1.1.75-1.35 2.05-.3 1.35.45 2.45.75 1.15 2.1 1.4 1.2.25 2.25-.35-.15 1.5.75 2.9-.42.064-.75.3-.8.5-.95 1.35-.2.9.35 1.65.45.75 1.3.95.9.15 1.65-.35.65-.4.9-1.1.1.55.4 1.05.75 1.05 1.95 1.3 1.25.25 2.25-.45t1.3-1.85q.6.65 1.55.85 1.25.25 2.4-.5.35-.25.6-.55.55.35 1.15.45 1.15.25 2.1-.45 1-.65 1.25-1.8.2-1.15-.45-2.15-.3-.4-.65-.7.85-.85 1.1-2.05.3-1.65-.65-2.95-.65-1.1-1.75-1.5.4-.55.55-1.25.25-1.35-.5-2.45-.7-1.05-2-1.35-1.3-.25-2.4.5-.85.55-1.2 1.45-.1.05-.15.1-.1.05-.2.2.05-1-.55-1.8-.7-1.1-1.95-1.35t-2.25.5q-.5.3-.85.7h-.1q-1.75-.35-3.25.7-1.5 1-1.85 2.75m9.15 9.6l.05.05-.05.05v-.1z" id="l"/><path fill="#96BA01" d="M20.1-10.85q-1.5 1-1.85 2.75-.1.45-.15.85-1.3-.25-2.35.5-1.15.8-1.4 2.1-.3 1.3.5 2.4.7 1.15 2.05 1.4 1.25.25 2.3-.35-.2 1.5.7 2.85v.05q-.4.05-.8.3-.75.55-.9 1.4-.2.9.35 1.6.45.75 1.35.9.85.2 1.65-.3.6-.4.8-1.1.1.55.45 1.05.7 1 1.95 1.25 1.2.25 2.25-.4 1-.7 1.3-1.85.65.65 1.55.85 1.3.25 2.35-.45.4-.3.65-.6.5.35 1.1.45 1.15.25 2.15-.45 1-.65 1.2-1.8.25-1.15-.45-2.15-.25-.4-.6-.7.8-.8 1.05-2 .35-1.65-.55-3-.7-1.05-1.85-1.5.45-.55.6-1.3.25-1.3-.5-2.35-.75-1.1-2.05-1.35-1.3-.25-2.35.45-.85.55-1.2 1.45-.1.05-.15.1-.15.1-.2.2.05-.95-.55-1.8-.7-1.1-1.95-1.35t-2.3.5q-.45.3-.8.7h-.05q-1.8-.35-3.3.7M27.35 1.6q.05-.05.05-.1 0 .05.05.05-.098.05-.1.1V1.6z" id="m"/><g id="n"><path fill="#BDEC02" d="M31.7 2.85q-.25-.1-.55-.25-1.15-.45-1.9-.6-.65-.15-2 .1-.8.1-1.15.25-.05.1-.15.15.2.05.4.2.5.35 1 .45 1.15.25 2.3.15 1.1-.05 2.05-.45m-7.35-.1Q23.4 2.9 23 3q-1.6.5-1.9 1.85l-.1.3q.15-.1.25-.15.65-.2 1.95-.75 1.1-.4 1.65-.9.4-.35.65-.8-.1-.05-.25-.05-.4.1-.9.25m-.7-3.05Q22.7-1.4 21.9-2h-.1q-.15 1.35 1 2.8 1.05 1.3 2.45 1.7.2-.1.35-.15V2.3q.05-.1.05-.2l-2-2.4z"/><path fill="#7A9801" d="M31.7 2.85q.1-.05.2-.05-.3-.5-1.1-.9-.8-.5-1.7-.65Q28 1 27.15 1.4q-.6.3-1.05.95.35-.15 1.15-.25 1.35-.25 2-.1.75.15 1.9.6.3.15.55.25m-6.05-.3h-.15q-.25.45-.65.8-.55.5-1.65.9-1.3.55-1.95.75-.1.05-.25.15l-.05.3 2.1.4q1.15-.2 1.95-1.4.6-.95.65-1.9m-2-4.25L21.9-2q.8.6 1.75 1.7l2 2.4.1-.3h.1q-.05-.2-.15-.4L25.15.2q-.1-.25-.7-.9-.65-.7-.8-1z"/></g><g id="o"><path fill="#BDEC02" d="M25.8 2.55h-.25q-.25.35-.65.7-.75.6-1 .95-1.15 1.15-.8 2.5l.1.3q.1-.1.15-.2.5-.6 1.35-1.6.7-.95.95-1.65.2-.5.15-1m-.25 0q.15-.15.25-.3l-.1-.2q-1.85-.7-2.9-1.05-1.4-.5-2.35-.6h-.1q.55 1.25 2.25 1.95 1.55.65 2.95.2m5.85-2.9q-.35.1-.7.1-1.2.2-1.95.45-.65.2-1.7 1.05-.6.5-.8.8-.05.05-.05.2.2 0 .4-.05.6.1 1.15-.1 1.1-.35 2-1Q30.7.5 31.4-.35z"/><path fill="#7A9801" d="M25.7 1.75l.05-.1-.3-.2q-.05-.05-1.1-.8-.2-.15-1.1-.45-.85-.25-1.15-.35L20.45.4q.95.1 2.35.6 1.05.35 2.9 1.05.05-.15 0-.3m.25.7q-.1.05-.15.1.05.5-.15 1-.25.7-.95 1.65-.85 1-1.35 1.6-.05.1-.15.2l.1.3 2-.7q.95-.75 1-2.15.05-1.15-.35-2m4.75-2.7q.35 0 .7-.1 0-.05.05-.15-.45-.25-1.4-.25-.85.05-1.7.3-1.1.4-1.65 1.15-.4.55-.45 1.35.2-.3.8-.8Q28.1.4 28.75.2q.75-.25 1.95-.45z"/></g><g id="p"><path fill="#BDEC02" d="M22.05-7.05q.35.2.7.25.7.15 1.4.1.7-.05 1.3-.3-.15-.05-.35-.15-.75-.3-1.2-.4-.45-.05-1.3.1-.5.05-.7.15 0 .05-.05.1.05.05.2.15m-3.35 1.3v.2q.1-.05.15-.1.4-.1 1.25-.4.65-.3 1.05-.65.25-.2.35-.45-.05-.05-.15-.05-.2.05-.55.15-.6.1-.85.2-1 .25-1.25 1.1m.55-4.3h-.05q-.1.85.6 1.75.65.85 1.55 1.1.1-.1.25-.1 0-.1.05-.15-.85-.95-1.3-1.5-.65-.7-1.1-1.1z"/><path fill="#7A9801" d="M25.45-7q.1 0 .15-.05-.2-.3-.7-.55-.5-.3-1.05-.4-.75-.15-1.25.1-.4.2-.7.6.2-.1.7-.15.85-.15 1.3-.1.45.1 1.2.4.2.1.35.15m-4.1-1.65q-.1-.2-.45-.6-.45-.4-.55-.6l-1.1-.2q.45.4 1.1 1.1.45.55 1.3 1.5.05-.1.05-.2h.05q0-.1-.1-.25l-.3-.75m-2.65 3.1l-.05.2L20-5.1q.7-.1 1.2-.85.4-.65.4-1.2h-.1q-.1.25-.35.45-.4.35-1.05.65-.85.3-1.25.4-.05.05-.15.1z"/></g><g id="q"><path fill="#BDEC02" d="M32.2-4.5q0 .1-.05.2 1.3 1.1 2 1.75 1 .8 1.6 1.2l.1-.05q-.2-1.3-1.3-2.35-1-1-2.15-1.05-.1.1-.2.25v.05M35-7.95l-.05-.3q-.1.1-.2.15-.4.4-1.25 1.15-.65.7-1 1.25-.2.45-.3.95.1-.05.2-.05.25-.2.6-.45.65-.35.95-.6Q35-6.6 35-7.95M28.1-3.5q.9.2 1.5.15.5-.05 1.4-.6.55-.3.85-.5 0-.05.05-.15-.15-.05-.35-.1-.45-.2-.85-.2-.85.1-1.65.4-.85.35-1.45.95.25 0 .5.05z"/><path fill="#7A9801" d="M32.15-4.3v.3l-.1.05q.15.15.25.35l.6 1q.2.2.75.6.6.5.8.75l1.3-.1q-.6-.4-1.6-1.2-.7-.65-2-1.75m2.8-3.95v-.25l-1.65.1q-.8.4-1.1 1.7-.3 1.05-.15 1.95h.15q.1-.5.3-.95.35-.55 1-1.25.85-.75 1.25-1.15.1-.05.2-.15m-5.35 4.9q-.6.05-1.5-.15-.25-.05-.5-.05l-.1.1q.25.3.95.55.7.3 1.35.25.9-.05 1.4-.65.45-.45.65-1.15-.3.2-.85.5-.9.55-1.4.6z"/></g><path fill="#96BA01" d="M22.25-25.35q.45-.55.6-1.3.25-1.3-.5-2.35-.75-1.1-2.05-1.35-1.3-.25-2.35.45-.85.55-1.2 1.45-.1.05-.15.1-.15.1-.2.2.05-.95-.55-1.8-.7-1.1-1.95-1.35t-2.3.5q-.45.3-.8.7h-.05q-1.8-.35-3.3.7-1.5 1-1.85 2.75-.1.45-.15.85-1.3-.25-2.35.5-1.15.8-1.4 2.1-.3 1.3.5 2.4.7 1.15 2.05 1.4 1.25.25 2.3-.35-.2 1.5.7 2.85v.05q-.4.05-.8.3-.75.55-.9 1.4-.2.9.35 1.6.45.75 1.35.9.85.2 1.65-.3.6-.4.8-1.1.1.55.45 1.05.7 1 1.95 1.25 1.2.25 2.25-.4 1-.7 1.3-1.85.65.65 1.55.85 1.3.25 2.35-.45.4-.3.65-.6.5.35 1.1.45 1.15.25 2.15-.45 1-.65 1.2-1.8.25-1.15-.45-2.15-.25-.4-.6-.7.8-.8 1.05-2 .35-1.65-.55-3-.7-1.05-1.85-1.5M14.8-17q-.098.05-.1.1v-.05q.05-.05.05-.1 0 .05.05.05z" id="r"/><g id="s"><path fill="#7A9801" d="M14.3-17.2q-.6.3-1.05.95.35-.15 1.15-.25 1.35-.25 2-.1.75.15 1.9.6.3.15.55.25.1-.05.2-.05-.3-.5-1.1-.9-.8-.5-1.7-.65-1.1-.25-1.95.15M12-15.25q-.55.5-1.65.9-1.3.55-1.95.75-.1.05-.25.15l-.05.3 2.1.4q1.15-.2 1.95-1.4.6-.95.65-1.9h-.15q-.25.45-.65.8m-.4-4.05q-.65-.7-.8-1l-1.75-.3q.8.6 1.75 1.7l2 2.4.1-.3h.1q-.05-.2-.15-.4l-.55-1.2q-.1-.25-.7-.9z"/><path fill="#BDEC02" d="M13.1-16.1q.2.05.4.2.5.35 1 .45 1.15.25 2.3.15 1.1-.05 2.05-.45-.25-.1-.55-.25-1.15-.45-1.9-.6-.65-.15-2 .1-.8.1-1.15.25-.05.1-.15.15m-.7 0q-.4.1-.9.25-.95.15-1.35.25-1.6.5-1.9 1.85l-.1.3q.15-.1.25-.15.65-.2 1.95-.75 1.1-.4 1.65-.9.4-.35.65-.8-.1-.05-.25-.05m.35-.2q.05-.1.05-.2l-2-2.4q-.95-1.1-1.75-1.7h-.1q-.15 1.35 1 2.8 1.05 1.3 2.45 1.7.2-.1.35-.15v-.05z"/></g><g id="t"><path fill="#7A9801" d="M13.15-16.15q-.1.05-.15.1.05.5-.15 1-.25.7-.95 1.65-.85 1-1.35 1.6-.05.1-.15.2l.1.3 2-.7q.95-.75 1-2.15.05-1.15-.35-2m-.25-.4q.05-.15 0-.3l.05-.1-.3-.2q-.05-.05-1.1-.8-.2-.15-1.1-.45-.85-.25-1.15-.35l-1.65.55q.95.1 2.35.6 1.05.35 2.9 1.05m5-2.3q.35 0 .7-.1 0-.05.05-.15-.45-.25-1.4-.25-.85.05-1.7.3-1.1.4-1.65 1.15-.4.55-.45 1.35.2-.3.8-.8 1.05-.85 1.7-1.05.75-.25 1.95-.45z"/><path fill="#BDEC02" d="M12.75-16.05q.15-.15.25-.3l-.1-.2q-1.85-.7-2.9-1.05-1.4-.5-2.35-.6h-.1q.55 1.25 2.25 1.95 1.55.65 2.95.2m.25 0h-.25q-.25.35-.65.7-.75.6-1 .95-1.15 1.15-.8 2.5l.1.3q.1-.1.15-.2.5-.6 1.35-1.6.7-.95.95-1.65.2-.5.15-1m5.6-2.9q-.35.1-.7.1-1.2.2-1.95.45-.65.2-1.7 1.05-.6.5-.8.8-.05.05-.05.2.2 0 .4-.05.6.1 1.15-.1 1.1-.35 2-1 .95-.6 1.65-1.45z"/></g><g id="u"><path fill="#7A9801" d="M9.35-26.05q.2-.1.7-.15.85-.15 1.3-.1.45.1 1.2.4.2.1.35.15.1 0 .15-.05-.2-.3-.7-.55-.5-.3-1.05-.4-.75-.15-1.25.1-.4.2-.7.6m-.3.15h-.1q-.1.25-.35.45-.4.35-1.05.65-.85.3-1.25.4-.05.05-.15.1l-.05.2 1.35.25q.7-.1 1.2-.85.4-.65.4-1.2m-.7-2.1q-.45-.4-.55-.6l-1.1-.2q.45.4 1.1 1.1.45.55 1.3 1.5.05-.1.05-.2h.05q0-.1-.1-.25l-.3-.75q-.1-.2-.45-.6z"/><path fill="#BDEC02" d="M9.35-26.05q0 .05-.05.1.05.05.2.15.35.2.7.25.7.15 1.4.1.7-.05 1.3-.3-.15-.05-.35-.15-.75-.3-1.2-.4-.45-.05-1.3.1-.5.05-.7.15m-.55.1q-.2.05-.55.15-.6.1-.85.2-1 .25-1.25 1.1v.2q.1-.05.15-.1.4-.1 1.25-.4.65-.3 1.05-.65.25-.2.35-.45-.05-.05-.15-.05M6.7-28.8h-.05q-.1.85.6 1.75.65.85 1.55 1.1.1-.1.25-.1 0-.1.05-.15-.85-.95-1.3-1.5-.65-.7-1.1-1.1z"/></g><g id="v"><path fill="#7A9801" d="M18.6-22.05q.45-.45.65-1.15-.3.2-.85.5-.9.55-1.4.6-.6.05-1.5-.15-.25-.05-.5-.05l-.1.1q.25.3.95.55.7.3 1.35.25.9-.05 1.4-.65m.95-1v.3l-.1.05q.15.15.25.35l.6 1q.2.2.75.6.6.5.8.75l1.3-.1q-.6-.4-1.6-1.2-.7-.65-2-1.75m2.6-3.8q.1-.05.2-.15v-.25l-1.65.1q-.8.4-1.1 1.7-.3 1.05-.15 1.95h.15q.1-.5.3-.95.35-.55 1-1.25.85-.75 1.25-1.15z"/><path fill="#BDEC02" d="M18.95-23.45q-.45-.2-.85-.2-.85.1-1.65.4-.85.35-1.45.95.25 0 .5.05.9.2 1.5.15.5-.05 1.4-.6.55-.3.85-.5 0-.05.05-.15-.15-.05-.35-.1m.85-.1q-.1.1-.2.25v.05q0 .1-.05.2 1.3 1.1 2 1.75 1 .8 1.6 1.2l.1-.05q-.2-1.3-1.3-2.35-1-1-2.15-1.05m2.6-3.15l-.05-.3q-.1.1-.2.15-.4.4-1.25 1.15-.65.7-1 1.25-.2.45-.3.95.1-.05.2-.05.25-.2.6-.45.65-.35.95-.6 1.05-.75 1.05-2.1z"/></g><path fill="#96BA01" d="M-12.2-27.2q.05-1.4-.7-2.55-1-1.5-2.7-1.85-1.75-.35-3.2.65-.7.45-1.15 1.05h-.1q-2.45-.5-4.55.9-2.1 1.45-2.6 3.9-.15.6-.15 1.2-1.8-.35-3.35.7-1.55 1.05-1.95 2.9-.35 1.85.7 3.4 1.05 1.55 2.9 1.9 1.7.35 3.15-.55-.2 2.15 1 4.05h.05q-.6.1-1.1.5-1.05.7-1.3 1.9-.25 1.25.45 2.25.7 1.05 1.9 1.3 1.25.2 2.25-.45.85-.6 1.2-1.55.15.75.6 1.45 1 1.5 2.7 1.8 1.7.35 3.15-.65 1.35-.9 1.75-2.5.9.85 2.2 1.1Q-9.3-6-7.8-7q.55-.35.95-.8.65.45 1.5.65 1.65.3 2.95-.65 1.4-.85 1.7-2.5.35-1.6-.6-3-.4-.6-.9-.95Q-1-15.4-.65-17.1q.4-2.25-.8-4.15-1-1.45-2.55-2.1.55-.75.75-1.75.35-1.8-.6-3.35-1.05-1.5-2.85-1.85-1.8-.4-3.3.6-1.2.8-1.7 2.05-.1.05-.15.15-.25.1-.35.3m-2.3 15.5h.05v.15l-.05-.05v-.1z" id="w"/><g id="x"><path fill="#7A9801" d="M-12.1-12.15q-1.55-.35-2.7.2-.95.4-1.6 1.35.6-.2 1.65-.4 1.85-.3 2.8-.1 1.05.2 2.6.9.45.15.85.3l.2-.1q-.35-.65-1.45-1.3-1.1-.6-2.35-.85m-6.5-2.7q-.9-.95-1.15-1.35l-2.4-.45q1.05.8 2.4 2.4 1.05 1.2 2.8 3.3.1-.2.15-.4l.15-.05-.2-.5q-.05-.1-.75-1.75-.15-.3-1-1.2m-4.8 8.1l-.05.4 2.9.6Q-19-6-17.9-7.65q.9-1.35.95-2.7h-.2q-.35.65-.9 1.15-.75.7-2.3 1.3-1.8.65-2.7 1.05-.15.05-.35.1z"/><path fill="#BDEC02" d="M-14.55-9.5q1.6.35 3.1.2 1.6-.1 2.95-.6-.4-.15-.85-.3-1.55-.7-2.6-.9-.95-.2-2.8.1-1.05.2-1.65.4-.05.05-.05.15.2.15.45.3.7.5 1.45.65m-8.75 2.3l-.1.45q.2-.05.35-.1.9-.4 2.7-1.05 1.55-.6 2.3-1.3.55-.5.9-1.15-.2-.05-.35-.1-.5.2-1.25.4-1.3.25-1.95.45-2.2.6-2.6 2.4m1.15-9.45h-.1q-.2 1.85 1.35 3.85 1.4 1.85 3.4 2.35.25-.1.45-.2.1-.15.1-.3-1.75-2.1-2.8-3.3-1.35-1.6-2.4-2.4z"/></g><g id="y"><path fill="#BDEC02" d="M-8.95-14.3q-.35.05-.85.2-1.7.15-2.7.5-.9.3-2.4 1.55-.85.65-1.2 1.1v.2q.25 0 .55.05.85.1 1.55-.15 1.55-.55 2.85-1.45 1.35-.85 2.2-2m-7.7 3.95q-.15.05-.35.1-.35.45-.9 1-1 .85-1.45 1.3-1.65 1.65-1 3.45l.1.4q.15-.1.2-.25.65-.75 1.85-2.25 1-1.3 1.35-2.3.2-.75.2-1.45m-7.45-2.9h-.1q.75 1.7 3.05 2.7 2.2.85 4.15.3.2-.2.3-.35v-.05q0-.2-.05-.35-2.55-.9-4.1-1.45-1.9-.65-3.25-.8z"/><path fill="#7A9801" d="M-8.95-14.3q.05-.1.15-.15-.65-.4-1.9-.4-1.3 0-2.5.4-1.5.55-2.25 1.55-.55.85-.65 1.95.35-.45 1.2-1.1 1.5-1.25 2.4-1.55 1-.35 2.7-.5.5-.15.85-.2m-7.5 3.9q-.1 0-.2.05 0 .7-.2 1.45-.35 1-1.35 2.3-1.2 1.5-1.85 2.25-.05.15-.2.25l.15.4 2.8-.95q1.2-1 1.35-3 .1-1.6-.5-2.75m-7.65-2.85q1.35.15 3.25.8 1.55.55 4.1 1.45 0-.2-.1-.35l.15-.15q-.25-.15-.45-.35-.1-.05-1.5-1.1-.3-.2-1.5-.55-1.25-.35-1.6-.55l-2.35.8z"/></g><g id="z"><path fill="#7A9801" d="M-22-24.05q.35-.15 1-.25 1.2-.2 1.8-.05.65.1 1.65.5.3.2.55.25.05-.05.1-.05-.25-.4-.95-.8-.7-.45-1.45-.6-1-.2-1.75.15-.55.25-.95.85m-.4.2q-.05 0-.1-.05-.2.4-.6.75-.45.4-1.4.8-1.15.45-1.75.7-.1 0-.15.05l-.05.25 1.8.35q1-.15 1.7-1.15.55-.9.55-1.7m-1-2.85q-.55-.6-.75-.9l-1.5-.3q.65.55 1.5 1.5.65.8 1.8 2.15.05-.15.05-.25l.1-.05q0-.15-.1-.35 0-.05-.5-1.05-.05-.2-.6-.75z"/><path fill="#BDEC02" d="M-22.05-23.95q.15.1.25.2.5.3.95.4 1 .2 2 .15 1-.05 1.85-.4-.25-.05-.55-.25-1-.4-1.65-.5-.6-.15-1.8.05-.65.1-1 .25-.05.05-.05.1m-.45.05q-.15 0-.25-.05l-.75.25q-.85.2-1.25.25-1.4.4-1.6 1.6l-.05.25q.05-.05.15-.05.6-.25 1.75-.7.95-.4 1.4-.8.4-.35.6-.75m-3.15-4h-.1q-.1 1.2.9 2.5.9 1.15 2.1 1.45.2-.05.3-.1h.05q.05-.1.05-.2-1.15-1.35-1.8-2.15-.85-.95-1.5-1.5z"/></g><g id="A"><path fill="#7A9801" d="M-8.25-20q-.35.35-1.05.75-1.3.75-2.05.8-.8.05-2.1-.2-.35-.05-.65-.1-.1.05-.15.1.4.55 1.3.9 1 .3 1.95.25 1.2-.05 1.95-.85.55-.6.8-1.65m.5.25v.35l-.1.1q.1.2.25.45.05.05.9 1.45.2.2 1.05.85.85.65 1.05 1l1.85-.1q-.95-.55-2.2-1.7-1.1-.85-2.8-2.4m3.65-5.3q.1-.15.2-.25l-.05-.4-2.2.15q-1.1.65-1.6 2.4-.35 1.5-.1 2.75h.2q.1-.7.4-1.3.4-.85 1.35-1.75 1.2-1.1 1.8-1.6z"/><path fill="#BDEC02" d="M-8.15-20.2q-.2 0-.4-.15-.65-.25-1.2-.25-1.25.1-2.35.55-1.15.5-2 1.3.3.05.65.1 1.3.25 2.1.2.75-.05 2.05-.8.7-.4 1.05-.75l.1-.2m.45.1l-.05.05v.3q1.7 1.55 2.8 2.4 1.25 1.15 2.2 1.7l.1-.1q-.2-1.75-1.8-3.3-1.4-1.4-2.95-1.4-.2.15-.3.35m3.8-4.8v-.4q-.1.1-.2.25-.6.5-1.8 1.6-.95.9-1.35 1.75-.3.6-.4 1.3.1-.05.25-.05.3-.25.8-.6.9-.55 1.35-.9 1.5-1.1 1.35-2.95z"/></g><path fill="#96BA01" d="M-23.75-1.65q-1.25-.25-2.3.5-.45.3-.8.7h-.05q-1.8-.35-3.3.7-1.5 1-1.85 2.75-.1.45-.15.85-1.3-.25-2.35.5-1.15.8-1.4 2.1-.3 1.3.5 2.4.7 1.15 2.05 1.4 1.25.25 2.3-.35-.2 1.5.7 2.85v.05q-.4.05-.8.3-.75.55-.9 1.4-.2.9.35 1.6.45.75 1.35.9.85.2 1.65-.3.6-.4.8-1.1.1.55.45 1.05.7 1 1.95 1.25 1.2.25 2.25-.4 1-.7 1.3-1.85.65.65 1.55.85 1.3.25 2.35-.45.4-.3.65-.6.5.35 1.1.45 1.15.25 2.15-.45 1-.65 1.2-1.8.25-1.15-.45-2.15-.25-.4-.6-.7.8-.8 1.05-2 .35-1.65-.55-3-.7-1.05-1.85-1.5.45-.55.6-1.3.25-1.3-.5-2.35-.75-1.1-2.05-1.35-1.3-.25-2.35.45-.85.55-1.2 1.45-.1.05-.15.1-.15.1-.2.2.05-.95-.55-1.8-.7-1.1-1.95-1.35m.8 14.35q.05-.05.05-.1 0 .05.05.05-.098.05-.1.1v-.05z" id="B"/><g id="C"><path fill="#BDEC02" d="M-24.9 13.45q-.1-.05-.25-.05-.4.1-.9.25-.95.15-1.35.25-1.6.5-1.9 1.85l-.1.3q.15-.1.25-.15.65-.2 1.95-.75 1.1-.4 1.65-.9.4-.35.65-.8m-3.7-4.55q-.15 1.35 1 2.8 1.05 1.3 2.45 1.7.2-.1.35-.15v-.05q.05-.1.05-.2l-2-2.4q-.95-1.1-1.75-1.7h-.1m9.9 4.85q-.25-.1-.55-.25-1.15-.45-1.9-.6-.65-.15-2 .1-.8.1-1.15.25-.05.1-.15.15.2.05.4.2.5.35 1 .45 1.15.25 2.3.15 1.1-.05 2.05-.45z"/><path fill="#7A9801" d="M-24.75 13.45h-.15q-.25.45-.65.8-.55.5-1.65.9-1.3.55-1.95.75-.1.05-.25.15l-.05.3 2.1.4q1.15-.2 1.95-1.4.6-.95.65-1.9m-2-4.25l-1.75-.3q.8.6 1.75 1.7l2 2.4.1-.3h.1q-.05-.2-.15-.4l-.55-1.2q-.1-.25-.7-.9-.65-.7-.8-1m7.5 4.3q.3.15.55.25.1-.05.2-.05-.3-.5-1.1-.9-.8-.5-1.7-.65-1.1-.25-1.95.15-.6.3-1.05.95.35-.15 1.15-.25 1.35-.25 2-.1.75.15 1.9.6z"/></g><g id="D"><path fill="#BDEC02" d="M-24.6 13.45h-.25q-.25.35-.65.7-.75.6-1 .95-1.15 1.15-.8 2.5l.1.3q.1-.1.15-.2.5-.6 1.35-1.6.7-.95.95-1.65.2-.5.15-1m-3-1.55q-1.4-.5-2.35-.6h-.1q.55 1.25 2.25 1.95 1.55.65 2.95.2.15-.15.25-.3l-.1-.2q-1.85-.7-2.9-1.05m8.6-1.35q-.35.1-.7.1-1.2.2-1.95.45-.65.2-1.7 1.05-.6.5-.8.8-.05.05-.05.2.2 0 .4-.05.6.1 1.15-.1 1.1-.35 2-1 .95-.6 1.65-1.45z"/><path fill="#7A9801" d="M-24.45 13.35q-.1.05-.15.1.05.5-.15 1-.25.7-.95 1.65-.85 1-1.35 1.6-.05.1-.15.2l.1.3 2-.7q.95-.75 1-2.15.05-1.15-.35-2m-1.6-1.8q-.2-.15-1.1-.45-.85-.25-1.15-.35l-1.65.55q.95.1 2.35.6 1.05.35 2.9 1.05.05-.15 0-.3l.05-.1-.3-.2q-.05-.05-1.1-.8m7.05-1q0-.05.05-.15-.45-.25-1.4-.25-.85.05-1.7.3-1.1.4-1.65 1.15-.4.55-.45 1.35.2-.3.8-.8 1.05-.85 1.7-1.05.75-.25 1.95-.45.35 0 .7-.1z"/></g><g id="E"><path fill="#BDEC02" d="M-28.7 3.65q-.05-.05-.15-.05-.2.05-.55.15-.6.1-.85.2-1 .25-1.25 1.1v.2q.1-.05.15-.1.4-.1 1.25-.4.65-.3 1.05-.65.25-.2.35-.45m-.15-.05q.1-.1.25-.1 0-.1.05-.15-.85-.95-1.3-1.5-.65-.7-1.1-1.1H-31q-.1.85.6 1.75.65.85 1.55 1.1m4.1.2q-.15-.05-.35-.15-.75-.3-1.2-.4-.45-.05-1.3.1-.5.05-.7.15 0 .05-.05.1.05.05.2.15.35.2.7.25.7.15 1.4.1.7-.05 1.3-.3z"/><path fill="#7A9801" d="M-28.6 3.65h-.1q-.1.25-.35.45-.4.35-1.05.65-.85.3-1.25.4-.05.05-.15.1l-.05.2 1.35.25q.7-.1 1.2-.85.4-.65.4-1.2m-.25-1.5q-.1-.2-.45-.6-.45-.4-.55-.6l-1.1-.2q.45.4 1.1 1.1.45.55 1.3 1.5.05-.1.05-.2h.05q0-.1-.1-.25l-.3-.75m4.1 1.65q.1 0 .15-.05-.2-.3-.7-.55-.5-.3-1.05-.4-.75-.15-1.25.1-.4.2-.7.6.2-.1.7-.15.85-.15 1.3-.1.45.1 1.2.4.2.1.35.15z"/></g><g id="F"><path fill="#7A9801" d="M-18.4 6.55q-.3.2-.85.5-.9.55-1.4.6-.6.05-1.5-.15-.25-.05-.5-.05l-.1.1q.25.3.95.55.7.3 1.35.25.9-.05 1.4-.65.45-.45.65-1.15m1.05 1.85q.2.2.75.6.6.5.8.75l1.3-.1q-.6-.4-1.6-1.2-.7-.65-2-1.75V7l-.1.05q.15.15.25.35l.6 1m2.05-5.65V2.5l-1.65.1q-.8.4-1.1 1.7-.3 1.05-.15 1.95h.15q.1-.5.3-.95.35-.55 1-1.25.85-.75 1.25-1.15.1-.05.2-.15z"/><path fill="#BDEC02" d="M-18.35 6.4q-.15-.05-.35-.1-.45-.2-.85-.2-.85.1-1.65.4-.85.35-1.45.95.25 0 .5.05.9.2 1.5.15.5-.05 1.4-.6.55-.3.85-.5 0-.05.05-.15m.3.1q0 .1-.05.2 1.3 1.1 2 1.75 1 .8 1.6 1.2l.1-.05q-.2-1.3-1.3-2.35-1-1-2.15-1.05-.1.1-.2.25v.05m2.8-3.45l-.05-.3q-.1.1-.2.15-.4.4-1.25 1.15-.65.7-1 1.25-.2.45-.3.95.1-.05.2-.05.25-.2.6-.45.65-.35.95-.6 1.05-.75 1.05-2.1z"/></g><path fill="#96BA01" d="M-24.85-19.8q-2.45-.5-4.55.95-2.1 1.4-2.6 3.85-.15.65-.15 1.25-1.8-.35-3.35.65-1.55 1.05-1.9 2.9-.4 1.85.65 3.4 1.05 1.55 2.9 1.95 1.7.35 3.15-.55-.2 2.15 1 4.05h.05q-.6.1-1.1.45-1.05.7-1.3 1.95-.25 1.2.45 2.2.7 1.05 1.9 1.3t2.25-.45q.9-.6 1.2-1.55.15.8.6 1.45 1 1.5 2.7 1.85 1.7.35 3.15-.65 1.4-.95 1.8-2.55.85.9 2.15 1.15 1.75.35 3.3-.7.5-.35.9-.8.65.45 1.5.65 1.65.35 3-.6 1.35-.9 1.7-2.5.3-1.65-.6-3-.4-.6-.9-.95Q-5.8-5.3-5.45-7q.45-2.25-.8-4.1-1-1.5-2.55-2.1.55-.75.8-1.8.35-1.8-.65-3.3-1.05-1.55-2.85-1.9-1.75-.35-3.3.65-1.2.8-1.65 2.05-.15.05-.2.1-.2.15-.35.3.05-1.35-.7-2.55-1-1.45-2.75-1.8-1.7-.35-3.15.65-.7.45-1.15 1.05-.05 0-.1-.05m5.65 18.25q-.05.05-.05.15-.05-.05-.05-.1t.05-.05h.05z" id="G"/><g id="H"><path fill="#7A9801" d="M-19.6-.85q1.85-.3 2.8-.1 1.05.2 2.6.9.45.15.85.3l.2-.1q-.35-.65-1.45-1.3-1.1-.6-2.35-.85-1.55-.35-2.7.2-.95.4-1.6 1.35.6-.2 1.65-.4m-2.2.65h-.2q-.35.65-.9 1.15-.75.7-2.3 1.3-1.8.65-2.7 1.05-.15.05-.35.1l-.05.4 2.9.6q1.55-.25 2.65-1.9.9-1.35.95-2.7m-1.65-4.5q-.9-.95-1.15-1.35L-27-6.5q1.05.8 2.4 2.4 1.05 1.2 2.8 3.3.1-.2.15-.4l.15-.05-.2-.5q-.05-.1-.75-1.75-.15-.3-1-1.2z"/><path fill="#BDEC02" d="M-21.25-.45q-.05.05-.05.15.2.15.45.3.7.5 1.45.65 1.6.35 3.1.2 1.6-.1 2.95-.6-.4-.15-.85-.3-1.55-.7-2.6-.9-.95-.2-2.8.1-1.05.2-1.65.4M-22-.2q-.2-.05-.35-.1-.5.2-1.25.4-1.3.25-1.95.45-2.2.6-2.6 2.4l-.1.45q.2-.05.35-.1.9-.4 2.7-1.05 1.55-.6 2.3-1.3.55-.5.9-1.15m-5-6.3h-.1q-.2 1.85 1.35 3.85 1.4 1.85 3.4 2.35.25-.1.45-.2.1-.15.1-.3-1.75-2.1-2.8-3.3-1.35-1.6-2.4-2.4z"/></g><g id="I"><path fill="#7A9801" d="M-20.3-2.75q-.55.85-.65 1.95.35-.45 1.2-1.1 1.5-1.25 2.4-1.55 1-.35 2.7-.5.5-.15.85-.2.05-.1.15-.15-.65-.4-1.9-.4-1.3 0-2.5.4-1.5.55-2.25 1.55m-1 2.5q-.1 0-.2.05 0 .7-.2 1.45-.35 1-1.35 2.3-1.2 1.5-1.85 2.25-.05.15-.2.25l.15.4 2.8-.95q1.2-1 1.35-3 .1-1.6-.5-2.75m-5.3-3.65l-2.35.8q1.35.15 3.25.8 1.55.55 4.1 1.45 0-.2-.1-.35l.15-.15q-.25-.15-.45-.35-.1-.05-1.5-1.1-.3-.2-1.5-.55-1.25-.35-1.6-.55z"/><path fill="#BDEC02" d="M-20.95-.6q.25 0 .55.05.85.1 1.55-.15 1.55-.55 2.85-1.45 1.35-.85 2.2-2-.35.05-.85.2-1.7.15-2.7.5-.9.3-2.4 1.55-.85.65-1.2 1.1v.2m-.55.4q-.15.05-.35.1-.35.45-.9 1-1 .85-1.45 1.3-1.65 1.65-1 3.45l.1.4q.15-.1.2-.25.65-.75 1.85-2.25 1-1.3 1.35-2.3.2-.75.2-1.45m-7.45-2.9h-.1Q-28.3-1.4-26-.4q2.2.85 4.15.3.2-.2.3-.35V-.5q0-.2-.05-.35-2.55-.9-4.1-1.45-1.9-.65-3.25-.8z"/></g><g id="J"><path fill="#7A9801" d="M-26.8-13.95q.35-.15 1-.25 1.2-.2 1.8-.05.65.1 1.65.5.3.2.55.25.05-.05.1-.05-.25-.4-.95-.8-.7-.45-1.45-.6-1-.2-1.75.15-.55.25-.95.85m-.4.2q-.05 0-.1-.05-.2.4-.6.75-.45.4-1.4.8-1.15.45-1.75.7-.1 0-.15.05l-.05.25 1.8.35q1-.15 1.7-1.15.55-.9.55-1.7m-1-2.85q-.55-.6-.75-.9l-1.5-.3q.65.55 1.5 1.5.65.8 1.8 2.15.05-.15.05-.25l.1-.05q0-.15-.1-.35 0-.05-.5-1.05-.05-.2-.6-.75z"/><path fill="#BDEC02" d="M-26.85-13.85q.15.1.25.2.5.3.95.4 1 .2 2 .15 1-.05 1.85-.4-.25-.05-.55-.25-1-.4-1.65-.5-.6-.15-1.8.05-.65.1-1 .25-.05.05-.05.1m-.4-.1h.05q.05-.1.05-.2-1.15-1.35-1.8-2.15-.85-.95-1.5-1.5h-.1q-.1 1.2.9 2.5.9 1.15 2.1 1.45.2-.05.3-.1m-1.05.35q-.85.2-1.25.25-1.4.4-1.6 1.6l-.05.25q.05-.05.15-.05.6-.25 1.75-.7.95-.4 1.4-.8.4-.35.6-.75-.15 0-.25-.05l-.75.25z"/></g><g id="K"><path fill="#7A9801" d="M-13.1-9.9q-.35.35-1.05.75-1.3.75-2.05.8-.8.05-2.1-.2-.35-.05-.65-.1-.1.05-.15.1.4.55 1.3.9 1 .3 1.95.25 1.2-.05 1.95-.85.55-.6.8-1.65m.5.25v.35l-.1.1q.1.2.25.45.05.05.9 1.45.2.2 1.05.85.85.65 1.05 1l1.85-.1q-.95-.55-2.2-1.7-1.1-.85-2.8-2.4m3.65-5.3q.1-.15.2-.25l-.05-.4-2.2.15q-1.1.65-1.6 2.4-.35 1.5-.1 2.75h.2q.1-.7.4-1.3.4-.85 1.35-1.75 1.2-1.1 1.8-1.6z"/><path fill="#BDEC02" d="M-13.4-10.25q-.65-.25-1.2-.25-1.25.1-2.35.55-1.15.5-2 1.3.3.05.65.1 1.3.25 2.1.2.75-.05 2.05-.8.7-.4 1.05-.75l.1-.2q-.2 0-.4-.15m.8.3v.3q1.7 1.55 2.8 2.4 1.25 1.15 2.2 1.7l.1-.1q-.2-1.75-1.8-3.3-1.4-1.4-2.95-1.4-.2.15-.3.35l-.05.05m3.85-5.25q-.1.1-.2.25-.6.5-1.8 1.6-.95.9-1.35 1.75-.3.6-.4 1.3.1-.05.25-.05.3-.25.8-.6.9-.55 1.35-.9 1.5-1.1 1.35-2.95v-.4z"/></g><path fill="#96BA01" d="M17.6-12.75q.3-1.6-.55-2.95-.75-1.1-1.85-1.45.4-.6.55-1.3.25-1.3-.45-2.4-.7-1.05-2-1.35-1.3-.25-2.4.5-.85.55-1.15 1.45-.1 0-.15.05-.15.1-.25.2.05-.9-.5-1.75-.7-1.1-1.95-1.35t-2.25.5q-.5.3-.85.7h-.05q-1.8-.35-3.25.65-1.5 1-1.85 2.8-.1.4-.1.8-1.3-.2-2.4.55-1.15.75-1.4 2.05-.25 1.3.5 2.45.75 1.1 2.05 1.4 1.2.2 2.3-.45-.15 1.55.7 2.9-.4.1-.8.35-.7.5-.9 1.35-.15.9.3 1.6.55.8 1.4.95.85.2 1.6-.35.6-.4.85-1.1.1.55.45 1.05.65 1 1.9 1.25 1.2.25 2.3-.4.95-.65 1.2-1.85.65.65 1.6.85 1.25.25 2.3-.5.35-.2.7-.6.45.35 1.05.5 1.15.2 2.1-.4 1-.7 1.25-1.85.25-1.15-.45-2.1-.3-.45-.65-.7.85-.85 1.1-2.05M7.75-8.8l-.05-.05v-.05h.05v.1z" id="L"/><g id="M"><path fill="#BDEC02" d="M7.5-8.35q-.75.1-1.15.2 0 .1-.05.15.2.1.3.25.5.35 1.05.45 1.15.2 2.25.15 1.15-.1 2.1-.5l-.6-.2q-1.1-.5-1.85-.65-.7-.15-2.05.15m-1.7.4q-.1 0-.25-.05-.4.15-.9.25l-1.35.3Q1.7-7 1.45-5.7l-.05.3q.1 0 .2-.05.7-.3 1.95-.75 1.05-.4 1.65-.95.35-.35.6-.8m-3.5-4.5h-.1q-.2 1.3.95 2.8 1 1.3 2.4 1.65.25-.05.35-.1v-.05q.1-.1.1-.2l-2-2.4q-1-1.05-1.7-1.7z"/><path fill="#7A9801" d="M7.5-9.05q-.7.3-1.15.9.4-.1 1.15-.2 1.35-.3 2.05-.15.75.15 1.85.65l.6.2q.1 0 .15-.05-.25-.5-1.05-.9-.8-.45-1.65-.65-1.15-.2-1.95.2M5.95-7.9q-.05 0-.15-.05-.25.45-.6.8-.6.55-1.65.95-1.25.45-1.95.75-.1.05-.2.05l-.05.3 2.05.4Q4.5-4.8 5.3-6q.6-1 .65-1.9m.2-.8q0-.15-.1-.4l-.55-1.2q-.1-.2-.7-.85-.65-.65-.8-.95l-1.7-.35q.7.65 1.7 1.7l2 2.4q0-.15.05-.3l.1-.05z"/></g><g id="N"><path fill="#7A9801" d="M6.2-7.9q.05.5-.15 1-.2.7-.9 1.65-.9 1.05-1.35 1.6-.1.15-.2.2l.1.3 2-.65q.95-.75 1.05-2.2.05-1.1-.4-1.95-.05.05-.15.05m-.05-.8q-.1-.15-.3-.3-.05 0-1.05-.8-.25-.15-1.1-.35-.85-.25-1.15-.45L.9-10q.95.15 2.3.6 1.1.4 2.95 1.05-.05-.15-.1-.25l.1-.1m.45.35q.3-.3.85-.8Q8.5-10 9.15-10.2q.75-.25 1.9-.45.4 0 .65-.05.05-.1.1-.15-.45-.3-1.35-.25-.95-.05-1.75.25-1.1.4-1.6 1.1-.45.6-.5 1.4z"/><path fill="#BDEC02" d="M5.95-7.8q.15-.15.2-.3v-.05q.05-.1 0-.2Q4.3-9 3.2-9.4 1.85-9.85.9-10H.8Q1.35-8.75 3-8.1q1.55.65 2.95.3m.25-.1q-.1.05-.25.1-.25.3-.6.65-.75.6-1.1.95-1.1 1.15-.7 2.45l.05.3q.1-.05.2-.2.45-.55 1.35-1.6.7-.95.9-1.65.2-.5.15-1m1.25-1.25q-.55.5-.85.8v.15H7q.6.05 1.1-.1 1.1-.35 2.05-.95.95-.65 1.55-1.45-.25.05-.65.05-1.15.2-1.9.45-.65.2-1.7 1.05z"/></g><g id="O"><path fill="#7A9801" d="M4.3-18.45q-.7-.1-1.2.15-.45.15-.7.6.25-.15.7-.2.85-.15 1.3-.05.5.1 1.15.4.2.1.4.1.05.05.1 0-.2-.3-.65-.55-.55-.3-1.1-.45m-2.15.9q-.1-.05-.15-.05-.15.3-.4.5-.3.3-1 .6-.85.3-1.25.45-.05.05-.15.1l-.05.15 1.3.25q.75-.05 1.25-.85.4-.6.45-1.15m-.75-2.1q-.45-.4-.5-.6l-1.1-.25q.45.45 1.05 1.1.5.6 1.3 1.5v-.2l.1.05q0-.1-.1-.3l-.3-.75q-.05-.15-.45-.55z"/><path fill="#BDEC02" d="M3.2-17.2q.7.15 1.45.1.65-.1 1.3-.35-.2 0-.4-.1-.65-.3-1.15-.4-.45-.1-1.3.05-.45.05-.7.2-.05 0-.05.05l.2.1q.3.3.65.35M2-17.6h-.1q-.25.05-.6.15-.55.05-.85.15-1 .3-1.2 1.15l-.05.2q.1-.05.15-.1.4-.15 1.25-.45.7-.3 1-.6.25-.2.4-.5m-.1 0q.1-.1.2-.15 0-.1.05-.15-.8-.9-1.3-1.5-.6-.65-1.05-1.1l-.05.05q-.15.8.55 1.75.7.85 1.6 1.1z"/></g><g id="P"><path fill="#7A9801" d="M12.2-14.8q-.25.25-.8.5-.9.55-1.4.55-.6.05-1.55-.1-.25-.1-.45-.05-.05 0-.1.05.3.4.95.65.65.2 1.35.15.85-.05 1.4-.6.4-.45.6-1.15m.25.5q.1.15.15.3.05.05.7 1 .1.2.7.65t.8.7l1.35-.1q-.7-.4-1.65-1.2-.75-.6-1.95-1.7v.3l-.1.05m1.4-3q.85-.75 1.3-1.15.05-.05.15-.1l-.05-.3-1.6.1q-.75.4-1.05 1.75-.3 1-.15 1.9h.15q.05-.45.3-.95.25-.55.95-1.25z"/><path fill="#BDEC02" d="M12.2-14.8v-.15q-.1-.05-.25-.15-.45-.15-.85-.1-.85.05-1.7.35-.8.35-1.4.95.2-.05.45.05.95.15 1.55.1.5 0 1.4-.55.55-.25.8-.5m.35-.1v.05q-.05.1 0 .2 1.2 1.1 1.95 1.7.95.8 1.65 1.2h.05q-.2-1.3-1.35-2.35-1-1-2.1-1.05-.1.15-.2.25m.8-.65q.65-.4.95-.65 1.1-.75 1-2.1v-.25q-.1.05-.15.1-.45.4-1.3 1.15-.7.7-.95 1.25-.25.5-.3.95.05 0 .15-.05l.6-.4z"/></g></defs><use xlink:href="#a" transform="translate(95.677 98.016) scale(2.55194)"/><use xlink:href="#b" transform="translate(95.677 98.016) scale(2.55194)"/><use xlink:href="#c" transform="translate(95.677 98.016) scale(2.55194)"/><use xlink:href="#d" transform="translate(95.677 98.016) scale(2.55194)"/><use xlink:href="#e" transform="translate(95.677 98.016) scale(2.55194)"/><use xlink:href="#f" transform="translate(95.677 98.016) scale(2.55194)"/><use xlink:href="#g" transform="translate(95.677 98.016) scale(2.55194)"/><use xlink:href="#h" transform="translate(95.677 98.016) scale(2.55194)"/><use xlink:href="#i" transform="translate(95.677 98.016) scale(2.55194)"/><use xlink:href="#j" transform="translate(95.677 98.016) scale(2.55194)"/><use xlink:href="#k" transform="translate(95.677 98.016) scale(2.55194)"/><use xlink:href="#l" transform="translate(95.677 98.016) scale(2.55194)"/><use xlink:href="#m" transform="translate(95.677 98.016) scale(2.55194)"/><use xlink:href="#n" transform="translate(95.677 98.016) scale(2.55194)"/><use xlink:href="#o" transform="translate(95.677 98.016) scale(2.55194)"/><use xlink:href="#p" transform="translate(95.677 98.016) scale(2.55194)"/><use xlink:href="#q" transform="translate(95.677 98.016) scale(2.55194)"/><use xlink:href="#r" transform="translate(95.677 98.016) scale(2.55194)"/><use xlink:href="#s" transform="translate(95.677 98.016) scale(2.55194)"/><use xlink:href="#t" transform="translate(95.677 98.016) scale(2.55194)"/><use xlink:href="#u" transform="translate(95.677 98.016) scale(2.55194)"/><use xlink:href="#v" transform="translate(95.677 98.016) scale(2.55194)"/><use xlink:href="#w" transform="translate(95.677 98.016) scale(2.55194)"/><use xlink:href="#x" transform="translate(95.677 98.016) scale(2.55194)"/><use xlink:href="#y" transform="translate(95.677 98.016) scale(2.55194)"/><use xlink:href="#z" transform="translate(95.677 98.016) scale(2.55194)"/><use xlink:href="#A" transform="translate(95.677 98.016) scale(2.55194)"/><use xlink:href="#B" transform="translate(95.677 98.016) scale(2.55194)"/><use xlink:href="#C" transform="translate(95.677 98.016) scale(2.55194)"/><use xlink:href="#D" transform="translate(95.677 98.016) scale(2.55194)"/><use xlink:href="#E" transform="translate(95.677 98.016) scale(2.55194)"/><use xlink:href="#F" transform="translate(95.677 98.016) scale(2.55194)"/><use xlink:href="#G" transform="translate(95.677 98.016) scale(2.55194)"/><use xlink:href="#H" transform="translate(95.677 98.016) scale(2.55194)"/><use xlink:href="#I" transform="translate(95.677 98.016) scale(2.55194)"/><use xlink:href="#J" transform="translate(95.677 98.016) scale(2.55194)"/><use xlink:href="#K" transform="translate(95.677 98.016) scale(2.55194)"/><use xlink:href="#L" transform="translate(95.677 98.016) scale(2.55194)"/><use xlink:href="#M" transform="translate(95.677 98.016) scale(2.55194)"/><use xlink:href="#N" transform="translate(95.677 98.016) scale(2.55194)"/><use xlink:href="#O" transform="translate(95.677 98.016) scale(2.55194)"/><use xlink:href="#P" transform="translate(95.677 98.016) scale(2.55194)"/></svg>