
<svg xmlns="http://www.w3.org/2000/svg" version="1.1" xmlns:xlink="http://www.w3.org/1999/xlink" preserveAspectRatio="none" x="0px" y="0px" width="192px" height="197px" viewBox="0 0 192 197">
<defs>
<g id="ARVO_0_Layer0_0_MEMBER_0_FILL">
<path fill="#7A9801" stroke="none" d="
M 9.7 -11.2
Q 7.95 -11.55 6.5 -10.55 5.85 -10.15 5.4 -9.55 5.35 -9.55 5.3 -9.55 2.8 -10.05 0.75 -8.65 -1.4 -7.2 -1.9 -4.75 -2 -4.1 -2 -3.55 -3.8 -3.9 -5.35 -2.85 -6.9 -1.8 -7.3 0.05 -7.65 1.9 -6.6 3.45 -5.55 5 -3.75 5.4 -2.05 5.7 -0.55 4.85 -0.8 6.95 0.45 8.85 0.45 8.9 0.5 8.9 -0.1 9 -0.65 9.35 -1.65 10.05 -1.9 11.3 -2.15 12.5 -1.45 13.5 -0.8 14.55 0.45 14.8 1.65 15.05 2.65 14.35 3.6 13.75 3.9 12.8 4.05 13.55 4.5 14.25 5.45 15.7 7.2 16.05 8.9 16.4 10.35 15.4 11.7 14.5 12.1 12.9 12.95 13.8 14.25 14.05 16.05 14.4 17.6 13.35 18.1 13 18.5 12.55 19.15 13 20 13.2 21.65 13.5 23 12.6 24.35 11.7 24.65 10.05 25 8.45 24.1 7.1 23.65 6.5 23.2 6.1 24.35 4.95 24.7 3.25 25.1 1 23.85 -0.85 22.9 -2.35 21.35 -2.95 21.9 -3.7 22.1 -4.75 22.5 -6.55 21.45 -8.05 20.45 -9.6 18.65 -9.95 16.85 -10.3 15.35 -9.3 14.15 -8.5 13.65 -7.25 13.55 -7.2 13.5 -7.15 13.25 -7 13.15 -6.85 13.2 -8.2 12.45 -9.4 11.45 -10.85 9.7 -11.2
M 10.85 8.8
L 10.8 8.75 10.85 8.7 10.9 8.7
Q 10.9 8.75 10.85 8.8 Z"/>
</g>

<g id="ARVO_0_Layer0_0_MEMBER_0_MEMBER_0_MEMBER_0_FILL">
<path fill="#BDEC02" stroke="none" d="
M 8.15 10.05
Q 7.95 10 7.8 9.95 7.3 10.15 6.55 10.35 5.25 10.6 4.6 10.8 2.4 11.4 2 13.2
L 1.9 13.65
Q 2.1 13.6 2.25 13.55 3.15 13.15 4.95 12.5 6.5 11.9 7.25 11.2 7.8 10.7 8.15 10.05
M 3.15 3.75
L 3.05 3.75
Q 2.85 5.6 4.4 7.6 5.8 9.45 7.8 9.95 8.05 9.85 8.25 9.75 8.35 9.6 8.35 9.45 6.6 7.35 5.55 6.15 4.2 4.55 3.15 3.75
M 10.75 10.9
Q 12.35 11.25 13.85 11.1 15.45 11 16.8 10.5 16.4 10.35 15.95 10.2 14.4 9.5 13.35 9.3 12.4 9.1 10.55 9.4 9.5 9.6 8.9 9.8 8.85 9.85 8.85 9.95 9.05 10.1 9.3 10.25 10 10.75 10.75 10.9 Z"/>

<path fill="#7A9801" stroke="none" d="
M 8.35 10.05
Q 8.25 10.05 8.15 10.05 7.8 10.7 7.25 11.2 6.5 11.9 4.95 12.5 3.15 13.15 2.25 13.55 2.1 13.6 1.9 13.65
L 1.85 14.05 4.75 14.65
Q 6.3 14.4 7.4 12.75 8.3 11.4 8.35 10.05
M 6.7 5.55
Q 5.8 4.6 5.55 4.2
L 3.15 3.75
Q 4.2 4.55 5.55 6.15 6.6 7.35 8.35 9.45 8.45 9.25 8.5 9.05
L 8.65 9
Q 8.55 8.75 8.45 8.5 8.4 8.4 7.7 6.75 7.55 6.45 6.7 5.55
M 13.2 8.25
Q 11.65 7.9 10.5 8.45 9.55 8.85 8.9 9.8 9.5 9.6 10.55 9.4 12.4 9.1 13.35 9.3 14.4 9.5 15.95 10.2 16.4 10.35 16.8 10.5 16.9 10.45 17 10.4 16.65 9.75 15.55 9.1 14.45 8.5 13.2 8.25 Z"/>
</g>

<g id="ARVO_0_Layer0_0_MEMBER_0_MEMBER_0_MEMBER_1_FILL">
<path fill="#7A9801" stroke="none" d="
M 8.65 10
Q 8.65 10.7 8.45 11.45 8.1 12.45 7.1 13.75 5.9 15.25 5.25 16 5.2 16.15 5.05 16.25
L 5.2 16.65 8 15.7
Q 9.2 14.7 9.35 12.7 9.45 11.1 8.85 9.95 8.75 9.95 8.65 10
M 3.55 6.3
L 1.2 7.1
Q 2.55 7.25 4.45 7.9 6 8.45 8.55 9.35 8.55 9.15 8.45 9
L 8.6 8.85
Q 8.35 8.7 8.15 8.5 8.05 8.45 6.65 7.4 6.35 7.2 5.15 6.85 3.9 6.5 3.55 6.3
M 10.4 8.3
Q 11.9 7.05 12.8 6.75 13.8 6.4 15.5 6.25 16 6.1 16.35 6.05 16.4 5.95 16.5 5.9 15.85 5.5 14.6 5.5 13.3 5.5 12.1 5.9 10.6 6.45 9.85 7.45 9.3 8.3 9.2 9.4 9.55 8.95 10.4 8.3 Z"/>

<path fill="#BDEC02" stroke="none" d="
M 8.65 10
Q 8.5 10.05 8.3 10.1 7.95 10.55 7.4 11.1 6.4 11.95 5.95 12.4 4.3 14.05 4.95 15.85
L 5.05 16.25
Q 5.2 16.15 5.25 16 5.9 15.25 7.1 13.75 8.1 12.45 8.45 11.45 8.65 10.7 8.65 10
M 1.2 7.1
L 1.1 7.1
Q 1.85 8.8 4.15 9.8 6.35 10.65 8.3 10.1 8.5 9.9 8.6 9.75
L 8.6 9.7
Q 8.6 9.5 8.55 9.35 6 8.45 4.45 7.9 2.55 7.25 1.2 7.1
M 12.8 6.75
Q 11.9 7.05 10.4 8.3 9.55 8.95 9.2 9.4 9.2 9.55 9.2 9.6 9.45 9.6 9.75 9.65 10.6 9.75 11.3 9.5 12.85 8.95 14.15 8.05 15.5 7.2 16.35 6.05 16 6.1 15.5 6.25 13.8 6.4 12.8 6.75 Z"/>
</g>

<g id="ARVO_0_Layer0_0_MEMBER_0_MEMBER_1_FILL">
<path fill="#7A9801" stroke="none" d="
M 4.25 -4.55
Q 3.7 -4.3 3.3 -3.7 3.65 -3.85 4.3 -3.95 5.5 -4.15 6.1 -4 6.75 -3.9 7.75 -3.5 8.05 -3.3 8.3 -3.25 8.35 -3.3 8.4 -3.3 8.15 -3.7 7.45 -4.1 6.75 -4.55 6 -4.7 5 -4.9 4.25 -4.55
M 2.9 -3.5
Q 2.85 -3.5 2.8 -3.55 2.6 -3.15 2.2 -2.8 1.75 -2.4 0.8 -2 -0.35 -1.55 -0.95 -1.3 -1.05 -1.3 -1.1 -1.25
L -1.15 -1 0.65 -0.65
Q 1.65 -0.8 2.35 -1.8 2.9 -2.7 2.9 -3.5
M 1.9 -6.35
Q 1.35 -6.95 1.15 -7.25
L -0.35 -7.55
Q 0.3 -7 1.15 -6.05 1.8 -5.25 2.95 -3.9 3 -4.05 3 -4.15
L 3.1 -4.2
Q 3.1 -4.35 3 -4.55 3 -4.6 2.5 -5.6 2.45 -5.8 1.9 -6.35 Z"/>

<path fill="#BDEC02" stroke="none" d="
M 3.3 -3.7
Q 3.25 -3.65 3.25 -3.6 3.4 -3.5 3.5 -3.4 4 -3.1 4.45 -3 5.45 -2.8 6.45 -2.85 7.45 -2.9 8.3 -3.25 8.05 -3.3 7.75 -3.5 6.75 -3.9 6.1 -4 5.5 -4.15 4.3 -3.95 3.65 -3.85 3.3 -3.7
M 2.8 -3.55
Q 2.65 -3.55 2.55 -3.6 2.25 -3.5 1.8 -3.35 0.95 -3.15 0.55 -3.1 -0.85 -2.7 -1.05 -1.5
L -1.1 -1.25
Q -1.05 -1.3 -0.95 -1.3 -0.35 -1.55 0.8 -2 1.75 -2.4 2.2 -2.8 2.6 -3.15 2.8 -3.55
M 2.55 -3.6
Q 2.75 -3.65 2.85 -3.7
L 2.9 -3.7
Q 2.95 -3.8 2.95 -3.9 1.8 -5.25 1.15 -6.05 0.3 -7 -0.35 -7.55
L -0.45 -7.55
Q -0.55 -6.35 0.45 -5.05 1.35 -3.9 2.55 -3.6 Z"/>
</g>

<g id="ARVO_0_Layer0_0_MEMBER_0_MEMBER_2_FILL">
<path fill="#7A9801" stroke="none" d="
M 17.05 0.35
Q 16.7 0.7 16 1.1 14.7 1.85 13.95 1.9 13.15 1.95 11.85 1.7 11.5 1.65 11.2 1.6 11.1 1.65 11.05 1.7 11.45 2.25 12.35 2.6 13.35 2.9 14.3 2.85 15.5 2.8 16.25 2 16.8 1.4 17.05 0.35
M 20.7 4.8
L 22.55 4.7
Q 21.6 4.15 20.35 3 19.25 2.15 17.55 0.6 17.55 0.75 17.55 0.95
L 17.45 1.05
Q 17.55 1.25 17.7 1.5 17.75 1.55 18.6 2.95 18.8 3.15 19.65 3.8 20.5 4.45 20.7 4.8
M 17.45 -0.05
Q 17.55 -0.05 17.65 -0.05 17.75 -0.75 18.05 -1.35 18.45 -2.2 19.4 -3.1 20.6 -4.2 21.2 -4.7 21.3 -4.85 21.4 -4.95
L 21.35 -5.35 19.15 -5.2
Q 18.05 -4.55 17.55 -2.8 17.2 -1.3 17.45 -0.05 Z"/>

<path fill="#BDEC02" stroke="none" d="
M 17.05 0.35
Q 17.1 0.25 17.15 0.15 16.95 0.15 16.75 0 16.1 -0.25 15.55 -0.25 14.3 -0.15 13.2 0.3 12.05 0.8 11.2 1.6 11.5 1.65 11.85 1.7 13.15 1.95 13.95 1.9 14.7 1.85 16 1.1 16.7 0.7 17.05 0.35
M 22.55 4.7
L 22.65 4.6
Q 22.45 2.85 20.85 1.3 19.45 -0.1 17.9 -0.1 17.7 0.05 17.6 0.25
L 17.55 0.3
Q 17.55 0.45 17.55 0.6 19.25 2.15 20.35 3 21.6 4.15 22.55 4.7
M 17.65 -0.05
Q 17.75 -0.1 17.9 -0.1 18.2 -0.35 18.7 -0.7 19.6 -1.25 20.05 -1.6 21.55 -2.7 21.4 -4.55
L 21.4 -4.95
Q 21.3 -4.85 21.2 -4.7 20.6 -4.2 19.4 -3.1 18.45 -2.2 18.05 -1.35 17.75 -0.75 17.65 -0.05 Z"/>
</g>

<g id="ARVO_0_Layer0_0_MEMBER_1_FILL">
<path fill="#96BA01" stroke="none" d="
M 6.9 -32.4
Q 7.3 -33 7.45 -33.7 7.7 -35 7 -36.1 6.3 -37.15 5 -37.45 3.7 -37.7 2.6 -36.95 1.75 -36.4 1.45 -35.5 1.35 -35.5 1.3 -35.45 1.15 -35.35 1.05 -35.25 1.1 -36.15 0.55 -37 -0.15 -38.1 -1.4 -38.35 -2.65 -38.6 -3.65 -37.85 -4.15 -37.55 -4.5 -37.15
L -4.55 -37.15
Q -6.35 -37.5 -7.8 -36.5 -9.3 -35.5 -9.65 -33.7 -9.75 -33.3 -9.75 -32.9 -11.05 -33.1 -12.15 -32.35 -13.3 -31.6 -13.55 -30.3 -13.8 -29 -13.05 -27.85 -12.3 -26.75 -11 -26.45 -9.8 -26.25 -8.7 -26.9 -8.85 -25.35 -8 -24 -8.4 -23.9 -8.8 -23.65 -9.5 -23.15 -9.7 -22.3 -9.85 -21.4 -9.4 -20.7 -8.85 -19.9 -8 -19.75 -7.15 -19.55 -6.4 -20.1 -5.8 -20.5 -5.55 -21.2 -5.45 -20.65 -5.1 -20.15 -4.45 -19.15 -3.2 -18.9 -2 -18.65 -0.9 -19.3 0.05 -19.95 0.3 -21.15 0.95 -20.5 1.9 -20.3 3.15 -20.05 4.2 -20.8 4.55 -21 4.9 -21.4 5.35 -21.05 5.95 -20.9 7.1 -20.7 8.05 -21.3 9.05 -22 9.3 -23.15 9.55 -24.3 8.85 -25.25 8.55 -25.7 8.2 -25.95 9.05 -26.8 9.3 -28 9.6 -29.6 8.75 -30.95 8 -32.05 6.9 -32.4
M -0.6 -24.15
L -0.55 -24.15
Q -0.55 -24.1 -0.55 -24.05
L -0.6 -24.1 -0.6 -24.15 Z"/>
</g>

<g id="ARVO_0_Layer0_0_MEMBER_1_MEMBER_0_MEMBER_0_FILL">
<path fill="#7A9801" stroke="none" d="
M -2.55 -23.15
Q -2.8 -22.7 -3.15 -22.35 -3.75 -21.8 -4.8 -21.4 -6.05 -20.95 -6.75 -20.65 -6.85 -20.6 -6.95 -20.6
L -7 -20.3 -4.95 -19.9
Q -3.85 -20 -3.05 -21.2 -2.45 -22.2 -2.4 -23.1 -2.45 -23.1 -2.55 -23.15
M -3.55 -26.35
Q -4.2 -27 -4.35 -27.3
L -6.05 -27.65
Q -5.35 -27 -4.35 -25.95 -3.6 -25.05 -2.35 -23.55 -2.35 -23.7 -2.3 -23.85
L -2.2 -23.9
Q -2.2 -24.05 -2.3 -24.3
L -2.85 -25.5
Q -2.95 -25.7 -3.55 -26.35
M 3.65 -22.85
Q 3.75 -22.85 3.8 -22.9 3.55 -23.4 2.75 -23.8 1.95 -24.25 1.1 -24.45 -0.05 -24.65 -0.85 -24.25 -1.55 -23.95 -2 -23.35 -1.6 -23.45 -0.85 -23.55 0.5 -23.85 1.2 -23.7 1.95 -23.55 3.05 -23.05 3.35 -22.95 3.65 -22.85 Z"/>

<path fill="#BDEC02" stroke="none" d="
M -2.8 -23.2
Q -3.2 -23.05 -3.7 -22.95 -4.6 -22.75 -5.05 -22.65 -6.65 -22.2 -6.9 -20.9
L -6.95 -20.6
Q -6.85 -20.6 -6.75 -20.65 -6.05 -20.95 -4.8 -21.4 -3.75 -21.8 -3.15 -22.35 -2.8 -22.7 -2.55 -23.15 -2.65 -23.15 -2.8 -23.2
M -6.05 -27.65
L -6.15 -27.65
Q -6.35 -26.35 -5.2 -24.85 -4.2 -23.55 -2.8 -23.2 -2.55 -23.25 -2.45 -23.3
L -2.45 -23.35
Q -2.35 -23.45 -2.35 -23.55 -3.6 -25.05 -4.35 -25.95 -5.35 -27 -6.05 -27.65
M 1.55 -22.35
Q 2.7 -22.45 3.65 -22.85 3.35 -22.95 3.05 -23.05 1.95 -23.55 1.2 -23.7 0.5 -23.85 -0.85 -23.55 -1.6 -23.45 -2 -23.35 -2 -23.25 -2.05 -23.2 -1.85 -23.1 -1.75 -22.95 -1.25 -22.6 -0.7 -22.5 0.45 -22.3 1.55 -22.35 Z"/>
</g>

<g id="ARVO_0_Layer0_0_MEMBER_1_MEMBER_0_MEMBER_1_FILL">
<path fill="#7A9801" stroke="none" d="
M -2 -23.2
Q -2.05 -23.15 -2.15 -23.15 -2.1 -22.65 -2.3 -22.15 -2.5 -21.45 -3.2 -20.5 -4.1 -19.45 -4.55 -18.9 -4.65 -18.75 -4.75 -18.7
L -4.65 -18.4 -2.65 -19.05
Q -1.7 -19.8 -1.6 -21.25 -1.55 -22.35 -2 -23.2
M -4.65 -25.4
Q -5.5 -25.65 -5.8 -25.85
L -7.45 -25.25
Q -6.5 -25.1 -5.15 -24.65 -4.05 -24.25 -2.2 -23.6 -2.25 -23.75 -2.3 -23.85
L -2.2 -23.95
Q -2.3 -24.1 -2.5 -24.25 -2.55 -24.25 -3.55 -25.05 -3.8 -25.2 -4.65 -25.4
M 0.8 -25.45
Q 1.55 -25.7 2.7 -25.9 3.1 -25.9 3.35 -25.95 3.4 -26.05 3.45 -26.1 3 -26.4 2.1 -26.35 1.15 -26.4 0.35 -26.1 -0.75 -25.7 -1.25 -25 -1.7 -24.4 -1.75 -23.6 -1.45 -23.9 -0.9 -24.4 0.15 -25.25 0.8 -25.45 Z"/>

<path fill="#BDEC02" stroke="none" d="
M -2.15 -23.15
Q -2.25 -23.1 -2.4 -23.05 -2.65 -22.75 -3 -22.4 -3.75 -21.8 -4.1 -21.45 -5.2 -20.3 -4.8 -19
L -4.75 -18.7
Q -4.65 -18.75 -4.55 -18.9 -4.1 -19.45 -3.2 -20.5 -2.5 -21.45 -2.3 -22.15 -2.1 -22.65 -2.15 -23.15
M -7.45 -25.25
L -7.55 -25.25
Q -7 -24 -5.35 -23.35 -3.8 -22.7 -2.4 -23.05 -2.25 -23.2 -2.2 -23.35
L -2.2 -23.4
Q -2.15 -23.5 -2.2 -23.6 -4.05 -24.25 -5.15 -24.65 -6.5 -25.1 -7.45 -25.25
M 2.7 -25.9
Q 1.55 -25.7 0.8 -25.45 0.15 -25.25 -0.9 -24.4 -1.45 -23.9 -1.75 -23.6 -1.75 -23.55 -1.75 -23.45 -1.6 -23.45 -1.35 -23.45 -0.75 -23.4 -0.25 -23.55 0.85 -23.9 1.8 -24.5 2.75 -25.15 3.35 -25.95 3.1 -25.9 2.7 -25.9 Z"/>
</g>

<g id="ARVO_0_Layer0_0_MEMBER_1_MEMBER_1_FILL">
<path fill="#7A9801" stroke="none" d="
M -9.1 -31.15
L -9.15 -31 -7.85 -30.75
Q -7.1 -30.8 -6.6 -31.6 -6.2 -32.2 -6.15 -32.75 -6.25 -32.8 -6.3 -32.8 -6.45 -32.5 -6.7 -32.3 -7 -32 -7.7 -31.7 -8.55 -31.4 -8.95 -31.25 -9 -31.2 -9.1 -31.15
M -6.45 -34.3
Q -6.5 -34.45 -6.9 -34.85 -7.35 -35.25 -7.4 -35.45
L -8.5 -35.7
Q -8.05 -35.25 -7.45 -34.6 -6.95 -34 -6.15 -33.1 -6.15 -33.2 -6.15 -33.3
L -6.05 -33.25
Q -6.05 -33.35 -6.15 -33.55
L -6.45 -34.3
M -2.35 -32.65
Q -2.3 -32.6 -2.25 -32.65 -2.45 -32.95 -2.9 -33.2 -3.45 -33.5 -4 -33.65 -4.7 -33.75 -5.2 -33.5 -5.65 -33.35 -5.9 -32.9 -5.65 -33.05 -5.2 -33.1 -4.35 -33.25 -3.9 -33.15 -3.4 -33.05 -2.75 -32.75 -2.55 -32.65 -2.35 -32.65 Z"/>

<path fill="#BDEC02" stroke="none" d="
M -9.05 -31.35
L -9.1 -31.15
Q -9 -31.2 -8.95 -31.25 -8.55 -31.4 -7.7 -31.7 -7 -32 -6.7 -32.3 -6.45 -32.5 -6.3 -32.8 -6.35 -32.8 -6.4 -32.8 -6.65 -32.75 -7 -32.65 -7.55 -32.6 -7.85 -32.5 -8.85 -32.2 -9.05 -31.35
M -8.5 -35.7
L -8.55 -35.65
Q -8.7 -34.85 -8 -33.9 -7.3 -33.05 -6.4 -32.8 -6.3 -32.9 -6.2 -32.95 -6.2 -33.05 -6.15 -33.1 -6.95 -34 -7.45 -34.6 -8.05 -35.25 -8.5 -35.7
M -3.65 -32.3
Q -3 -32.4 -2.35 -32.65 -2.55 -32.65 -2.75 -32.75 -3.4 -33.05 -3.9 -33.15 -4.35 -33.25 -5.2 -33.1 -5.65 -33.05 -5.9 -32.9 -5.95 -32.9 -5.95 -32.85 -5.85 -32.8 -5.75 -32.75 -5.45 -32.45 -5.1 -32.4 -4.4 -32.25 -3.65 -32.3 Z"/>
</g>

<g id="ARVO_0_Layer0_0_MEMBER_1_MEMBER_2_FILL">
<path fill="#7A9801" stroke="none" d="
M 3.9 -30.05
Q 3.65 -29.8 3.1 -29.55 2.2 -29 1.7 -29 1.1 -28.95 0.15 -29.1 -0.1 -29.2 -0.3 -29.15 -0.35 -29.15 -0.4 -29.1 -0.1 -28.7 0.55 -28.45 1.2 -28.25 1.9 -28.3 2.75 -28.35 3.3 -28.9 3.7 -29.35 3.9 -30.05
M 4.25 -29.6
L 4.15 -29.55
Q 4.25 -29.4 4.3 -29.25 4.35 -29.2 5 -28.25 5.1 -28.05 5.7 -27.6 6.3 -27.15 6.5 -26.9
L 7.85 -27
Q 7.15 -27.4 6.2 -28.2 5.45 -28.8 4.25 -29.9 4.25 -29.75 4.25 -29.6
M 7 -33.8
L 6.95 -34.1 5.35 -34
Q 4.6 -33.6 4.3 -32.25 4 -31.25 4.15 -30.35 4.2 -30.35 4.3 -30.35 4.35 -30.8 4.6 -31.3 4.85 -31.85 5.55 -32.55 6.4 -33.3 6.85 -33.7 6.9 -33.75 7 -33.8 Z"/>

<path fill="#BDEC02" stroke="none" d="
M 3.9 -30.05
Q 3.9 -30.15 3.9 -30.2 3.8 -30.25 3.65 -30.35 3.2 -30.5 2.8 -30.45 1.95 -30.4 1.1 -30.1 0.3 -29.75 -0.3 -29.15 -0.1 -29.2 0.15 -29.1 1.1 -28.95 1.7 -29 2.2 -29 3.1 -29.55 3.65 -29.8 3.9 -30.05
M 4.25 -30.1
Q 4.2 -30 4.25 -29.9 5.45 -28.8 6.2 -28.2 7.15 -27.4 7.85 -27
L 7.9 -27
Q 7.7 -28.3 6.55 -29.35 5.55 -30.35 4.45 -30.4 4.35 -30.25 4.25 -30.15
L 4.25 -30.1
M 7 -33.55
L 7 -33.8
Q 6.9 -33.75 6.85 -33.7 6.4 -33.3 5.55 -32.55 4.85 -31.85 4.6 -31.3 4.35 -30.8 4.3 -30.35 4.35 -30.35 4.45 -30.4 4.75 -30.6 5.05 -30.8 5.7 -31.2 6 -31.45 7.1 -32.2 7 -33.55 Z"/>
</g>

<g id="ARVO_0_Layer0_0_MEMBER_2_FILL">
<path fill="#B1B101" stroke="none" d="
M 2.6 2.15
Q 2.65 1.85 2.75 1.7
L 2.7 1.65
Q 2.35 1.75 1.95 1.65
L 1.25 5.3
Q 1.6 6.2 2 7.6 2.25 8.5 2.4 8.7 2.7 8.95 3.3 9.1 3.8 9.15 5.45 9.5 7.4 9.9 8.35 9.7 9.25 9.55 9.85 8.85 10.15 8.2 10.55 7.7 9.85 7.6 9.1 7.5 5.3 6.7 3.9 5.8 2.1 4.6 2.6 2.15
M -2 18.35
Q -2.4 20.6 -1.25 23.3 -0.15 25.8 2.05 28.2 6.95 33.55 13 34.8 13.15 34.55 13.15 34.1 2.95 29.8 2.1 21.7 1.9 19.1 1.65 17.2 0.85 17 -0.25 16.15 -1.340625 15.296484375 -1.3 14.95
L -2 18.35
M -1.05 -0.9
Q -3.35 -1.4 -4.55 -2.4 -4.85 -2.7 -5.15 -3.1 -5.35 -1.35 -4.95 -0.55 -4.45 0.35 -2.75 0.7 -0.85 1.1 0.3 -2.4 -0.95 -0.9 -1.05 -0.9 Z"/>

<path fill="#999900" stroke="none" d="
M 12.9 -18.85
Q 11.9 -15.65 5.35 -8.05 3.2 -5.45 0.9 -3.1 0.6 -2.7 0.3 -2.4 -0.85 1.1 -2.75 0.7 -4.45 0.35 -4.95 -0.55 -5.35 -1.35 -5.15 -3.1 -5.75 -3.8 -6 -4.7 -6.15 -5.15 -6.7 -7.75 -7.15 -9.95 -7.9 -11.5
L -11.05 -12.45
Q -9.45 -10 -9.05 -3.75 -8.7 0.9 -8.35 2.4 -8.55 2.35 -8.7 2.4 -8.85 2.35 -9 2.4 -10.45 2.45 -11.9 2.95 -13.75 3.8 -14.9 3.9 -15 3.9 -15.15 3.95 -15.25 3.9 -15.4 3.95
L -15.5 3.95
Q -20.85 3.65 -21.05 7.2 -19.85 7.1 -17.45 6.95
L -8.4 8.75
Q -8.35 9.25 -8.5 9.85 -8.75 11 -8.8 18.6 -8.8 26.25 -15.65 37.45 -15.2 41.05 -3.95 31.75 11.35 37.75 13 34.8 6.95 33.55 2.05 28.2 -0.15 25.8 -1.25 23.3 -2.4 20.6 -2 18.35
L -1.3 14.95
Q -1.340625 15.296484375 -0.25 16.15 0.85 17 1.65 17.2 1.2 13.15 1.25 12.2 1.25 10.85 2.3 10.8 3.3 10.7 6.3 11.2 9.35 11.55 12.1 10.85 17 9.55 19.05 7.6 21.65 5.05 22.1 -0.45
L 21.1 -1.95
Q 20.9 -1.7 19.7 0.75 18.65 2.9 17.7 4.25 14.9 7.9 10.55 7.7 10.15 8.2 9.85 8.85 9.25 9.55 8.35 9.7 7.4 9.9 5.45 9.5 3.8 9.15 3.3 9.1 2.7 8.95 2.4 8.7 2.25 8.5 2 7.6 1.6 6.2 1.25 5.3
L 1.95 1.65
Q 2.35 1.75 2.7 1.65
L 2.75 1.7
Q 3.4 0 6.05 -3.2 9.35 -6.95 10.05 -7.85 10.95 -9.15 12.85 -13.5 14.7 -17.8 15.65 -19
L 12.9 -18.85 Z"/>
</g>

<g id="ARVO_0_Layer0_0_MEMBER_3_MEMBER_0_FILL">
<path fill="#748F01" stroke="none" d="
M 18.4 -6.85
Q 18.3 -6.4 18.3 -6 17 -6.25 15.85 -5.5 14.75 -4.75 14.5 -3.45 14.2 -2.1 14.95 -1 15.7 0.15 17.05 0.4 18.25 0.65 19.3 0.05 19.15 1.55 20.05 2.95 19.6306640625 3.0138671875 19.3 3.25 18.5 3.75 18.35 4.6 18.15 5.5 18.7 6.25 19.15 7 20 7.2 20.9 7.35 21.65 6.85 22.3 6.45 22.55 5.75 22.65 6.3 22.95 6.8 23.7 7.85 24.9 8.1 26.15 8.35 27.15 7.65 28.15 6.95 28.45 5.8 29.05 6.45 30 6.65 31.25 6.9 32.4 6.15 32.75 5.9 33 5.6 33.55 5.95 34.15 6.05 35.3 6.3 36.25 5.6 37.25 4.95 37.5 3.8 37.7 2.65 37.05 1.65 36.75 1.25 36.4 0.95 37.25 0.1 37.5 -1.1 37.8 -2.75 36.85 -4.05 36.2 -5.15 35.1 -5.55 35.5 -6.1 35.65 -6.8 35.9 -8.15 35.15 -9.25 34.45 -10.3 33.15 -10.6 31.85 -10.85 30.75 -10.1 29.9 -9.55 29.55 -8.65 29.45 -8.6 29.4 -8.55 29.3 -8.5 29.2 -8.35 29.25 -9.35 28.65 -10.15 27.95 -11.25 26.7 -11.5 25.45 -11.75 24.45 -11 23.95 -10.7 23.6 -10.3 23.55 -10.3 23.5 -10.3 21.75 -10.65 20.25 -9.6 18.75 -8.6 18.4 -6.85
M 27.55 2.75
L 27.6 2.8 27.55 2.85
Q 27.55 2.8 27.55 2.75 Z"/>
</g>

<g id="ARVO_0_Layer0_0_MEMBER_3_MEMBER_1_FILL">
<path fill="#96BA01" stroke="none" d="
M 20.1 -10.85
Q 18.6 -9.85 18.25 -8.1 18.15 -7.65 18.1 -7.25 16.8 -7.5 15.75 -6.75 14.6 -5.95 14.35 -4.65 14.05 -3.35 14.85 -2.25 15.55 -1.1 16.9 -0.85 18.15 -0.6 19.2 -1.2 19 0.3 19.9 1.65
L 19.9 1.7
Q 19.5 1.75 19.1 2 18.35 2.55 18.2 3.4 18 4.3 18.55 5 19 5.75 19.9 5.9 20.75 6.1 21.55 5.6 22.15 5.2 22.35 4.5 22.45 5.05 22.8 5.55 23.5 6.55 24.75 6.8 25.95 7.05 27 6.4 28 5.7 28.3 4.55 28.95 5.2 29.85 5.4 31.15 5.65 32.2 4.95 32.6 4.65 32.85 4.35 33.35 4.7 33.95 4.8 35.1 5.05 36.1 4.35 37.1 3.7 37.3 2.55 37.55 1.4 36.85 0.4 36.6 0 36.25 -0.3 37.05 -1.1 37.3 -2.3 37.65 -3.95 36.75 -5.3 36.05 -6.35 34.9 -6.8 35.35 -7.35 35.5 -8.1 35.75 -9.4 35 -10.45 34.25 -11.55 32.95 -11.8 31.65 -12.05 30.6 -11.35 29.75 -10.8 29.4 -9.9 29.3 -9.85 29.25 -9.8 29.1 -9.7 29.05 -9.6 29.1 -10.55 28.5 -11.4 27.8 -12.5 26.55 -12.75 25.3 -13 24.25 -12.25 23.8 -11.95 23.45 -11.55
L 23.4 -11.55
Q 21.6 -11.9 20.1 -10.85
M 27.35 1.6
Q 27.39921875 1.55078125 27.4 1.5 27.40078125 1.55 27.45 1.55 27.3515625 1.59921875 27.35 1.65
L 27.35 1.6 Z"/>
</g>

<g id="ARVO_0_Layer0_0_MEMBER_3_MEMBER_1_MEMBER_0_MEMBER_0_FILL">
<path fill="#BDEC02" stroke="none" d="
M 31.7 2.85
Q 31.45 2.75 31.15 2.6 30 2.15 29.25 2 28.6 1.85 27.25 2.1 26.45 2.2 26.1 2.35 26.05 2.45 25.95 2.5 26.15 2.55 26.35 2.7 26.85 3.05 27.35 3.15 28.5 3.4 29.65 3.3 30.75 3.25 31.7 2.85
M 24.35 2.75
Q 23.4 2.9 23 3 21.4 3.5 21.1 4.85
L 21 5.15
Q 21.15 5.05 21.25 5 21.9 4.8 23.2 4.25 24.3 3.85 24.85 3.35 25.25 3 25.5 2.55 25.4 2.5 25.25 2.5 24.85 2.6 24.35 2.75
M 23.65 -0.3
Q 22.7 -1.4 21.9 -2
L 21.8 -2
Q 21.65 -0.65 22.8 0.8 23.85 2.1 25.25 2.5 25.45 2.4 25.6 2.35
L 25.6 2.3
Q 25.65 2.2 25.65 2.1 24.4 0.6 23.65 -0.3 Z"/>

<path fill="#7A9801" stroke="none" d="
M 31.7 2.85
Q 31.8 2.8 31.9 2.8 31.6 2.3 30.8 1.9 30 1.4 29.1 1.25 28 1 27.15 1.4 26.55 1.7 26.1 2.35 26.45 2.2 27.25 2.1 28.6 1.85 29.25 2 30 2.15 31.15 2.6 31.45 2.75 31.7 2.85
M 25.65 2.55
Q 25.6 2.55 25.5 2.55 25.25 3 24.85 3.35 24.3 3.85 23.2 4.25 21.9 4.8 21.25 5 21.15 5.05 21 5.15
L 20.95 5.45 23.05 5.85
Q 24.2 5.65 25 4.45 25.6 3.5 25.65 2.55
M 23.65 -1.7
L 21.9 -2
Q 22.7 -1.4 23.65 -0.3 24.4 0.6 25.65 2.1 25.7 1.95 25.75 1.8
L 25.85 1.8
Q 25.8 1.6 25.7 1.4
L 25.15 0.2
Q 25.05 -0.05 24.45 -0.7 23.8 -1.4 23.65 -1.7 Z"/>
</g>

<g id="ARVO_0_Layer0_0_MEMBER_3_MEMBER_1_MEMBER_0_MEMBER_1_FILL">
<path fill="#BDEC02" stroke="none" d="
M 25.8 2.55
Q 25.65 2.55 25.55 2.55 25.3 2.9 24.9 3.25 24.15 3.85 23.9 4.2 22.75 5.35 23.1 6.7
L 23.2 7
Q 23.3 6.9 23.35 6.8 23.85 6.2 24.7 5.2 25.4 4.25 25.65 3.55 25.85 3.05 25.8 2.55
M 25.55 2.55
Q 25.7 2.4 25.8 2.25 25.75 2.15 25.7 2.05 23.85 1.35 22.8 1 21.4 0.5 20.45 0.4
L 20.35 0.4
Q 20.9 1.65 22.6 2.35 24.15 3 25.55 2.55
M 31.4 -0.35
Q 31.05 -0.25 30.7 -0.25 29.5 -0.05 28.75 0.2 28.1 0.4 27.05 1.25 26.45 1.75 26.25 2.05 26.2 2.1 26.2 2.25 26.4 2.25 26.6 2.2 27.2 2.3 27.75 2.1 28.85 1.75 29.75 1.1 30.7 0.5 31.4 -0.35 Z"/>

<path fill="#7A9801" stroke="none" d="
M 25.7 1.75
L 25.75 1.65
Q 25.6 1.55 25.45 1.45 25.4 1.4 24.35 0.65 24.15 0.5 23.25 0.2 22.4 -0.05 22.1 -0.15
L 20.45 0.4
Q 21.4 0.5 22.8 1 23.85 1.35 25.7 2.05 25.75 1.9 25.7 1.75
M 25.95 2.45
Q 25.85 2.5 25.8 2.55 25.85 3.05 25.65 3.55 25.4 4.25 24.7 5.2 23.85 6.2 23.35 6.8 23.3 6.9 23.2 7
L 23.3 7.3 25.3 6.6
Q 26.25 5.85 26.3 4.45 26.35 3.3 25.95 2.45
M 30.7 -0.25
Q 31.05 -0.25 31.4 -0.35 31.4 -0.4 31.45 -0.5 31 -0.75 30.05 -0.75 29.2 -0.7 28.35 -0.45 27.25 -0.05 26.7 0.7 26.3 1.25 26.25 2.05 26.45 1.75 27.05 1.25 28.1 0.4 28.75 0.2 29.5 -0.05 30.7 -0.25 Z"/>
</g>

<g id="ARVO_0_Layer0_0_MEMBER_3_MEMBER_1_MEMBER_1_FILL">
<path fill="#BDEC02" stroke="none" d="
M 22.05 -7.05
Q 22.4 -6.85 22.75 -6.8 23.45 -6.65 24.15 -6.7 24.85 -6.75 25.45 -7 25.3 -7.05 25.1 -7.15 24.35 -7.45 23.9 -7.55 23.45 -7.6 22.6 -7.45 22.1 -7.4 21.9 -7.3 21.9 -7.25 21.85 -7.2 21.9 -7.15 22.05 -7.05
M 18.7 -5.75
L 18.7 -5.55
Q 18.8 -5.6 18.85 -5.65 19.25 -5.75 20.1 -6.05 20.75 -6.35 21.15 -6.7 21.4 -6.9 21.5 -7.15 21.45 -7.2 21.35 -7.2 21.15 -7.15 20.8 -7.05 20.2 -6.95 19.95 -6.85 18.95 -6.6 18.7 -5.75
M 19.25 -10.05
L 19.2 -10.05
Q 19.1 -9.2 19.8 -8.3 20.45 -7.45 21.35 -7.2 21.45 -7.3 21.6 -7.3 21.6 -7.4 21.65 -7.45 20.8 -8.4 20.35 -8.95 19.7 -9.65 19.25 -10.05 Z"/>

<path fill="#7A9801" stroke="none" d="
M 25.45 -7
Q 25.55 -7 25.6 -7.05 25.4 -7.35 24.9 -7.6 24.4 -7.9 23.85 -8 23.1 -8.15 22.6 -7.9 22.2 -7.7 21.9 -7.3 22.1 -7.4 22.6 -7.45 23.45 -7.6 23.9 -7.55 24.35 -7.45 25.1 -7.15 25.3 -7.05 25.45 -7
M 21.35 -8.65
Q 21.25 -8.85 20.9 -9.25 20.45 -9.65 20.35 -9.85
L 19.25 -10.05
Q 19.7 -9.65 20.35 -8.95 20.8 -8.4 21.65 -7.45 21.7 -7.55 21.7 -7.65
L 21.75 -7.65
Q 21.75 -7.75 21.65 -7.9
L 21.35 -8.65
M 18.7 -5.55
L 18.65 -5.35 20 -5.1
Q 20.7 -5.2 21.2 -5.95 21.6 -6.6 21.6 -7.15 21.55 -7.15 21.5 -7.15 21.4 -6.9 21.15 -6.7 20.75 -6.35 20.1 -6.05 19.25 -5.75 18.85 -5.65 18.8 -5.6 18.7 -5.55 Z"/>
</g>

<g id="ARVO_0_Layer0_0_MEMBER_3_MEMBER_1_MEMBER_2_FILL">
<path fill="#BDEC02" stroke="none" d="
M 32.2 -4.5
Q 32.2 -4.4 32.15 -4.3 33.45 -3.2 34.15 -2.55 35.15 -1.75 35.75 -1.35
L 35.85 -1.4
Q 35.65 -2.7 34.55 -3.75 33.55 -4.75 32.4 -4.8 32.3 -4.7 32.2 -4.55
L 32.2 -4.5
M 35 -7.95
L 34.95 -8.25
Q 34.85 -8.15 34.75 -8.1 34.35 -7.7 33.5 -6.95 32.85 -6.25 32.5 -5.7 32.3 -5.25 32.2 -4.75 32.3 -4.8 32.4 -4.8 32.65 -5 33 -5.25 33.65 -5.6 33.95 -5.85 35 -6.6 35 -7.95
M 28.1 -3.5
Q 29 -3.3 29.6 -3.35 30.1 -3.4 31 -3.95 31.55 -4.25 31.85 -4.45 31.85 -4.5 31.9 -4.6 31.75 -4.65 31.55 -4.7 31.1 -4.9 30.7 -4.9 29.85 -4.8 29.05 -4.5 28.2 -4.15 27.6 -3.55 27.85 -3.55 28.1 -3.5 Z"/>

<path fill="#7A9801" stroke="none" d="
M 32.15 -4.3
Q 32.15 -4.15 32.15 -4
L 32.05 -3.95
Q 32.2 -3.8 32.3 -3.6
L 32.9 -2.6
Q 33.1 -2.4 33.65 -2 34.25 -1.5 34.45 -1.25
L 35.75 -1.35
Q 35.15 -1.75 34.15 -2.55 33.45 -3.2 32.15 -4.3
M 34.95 -8.25
L 34.95 -8.5 33.3 -8.4
Q 32.5 -8 32.2 -6.7 31.9 -5.65 32.05 -4.75 32.15 -4.75 32.2 -4.75 32.3 -5.25 32.5 -5.7 32.85 -6.25 33.5 -6.95 34.35 -7.7 34.75 -8.1 34.85 -8.15 34.95 -8.25
M 29.6 -3.35
Q 29 -3.3 28.1 -3.5 27.85 -3.55 27.6 -3.55 27.55 -3.5 27.5 -3.45 27.75 -3.15 28.45 -2.9 29.15 -2.6 29.8 -2.65 30.7 -2.7 31.2 -3.3 31.65 -3.75 31.85 -4.45 31.55 -4.25 31 -3.95 30.1 -3.4 29.6 -3.35 Z"/>
</g>

<g id="ARVO_0_Layer0_0_MEMBER_4_FILL">
<path fill="#96BA01" stroke="none" d="
M 22.25 -25.35
Q 22.7 -25.9 22.85 -26.65 23.1 -27.95 22.35 -29 21.6 -30.1 20.3 -30.35 19 -30.6 17.95 -29.9 17.1 -29.35 16.75 -28.45 16.65 -28.4 16.6 -28.35 16.45 -28.25 16.4 -28.15 16.45 -29.1 15.85 -29.95 15.15 -31.05 13.9 -31.3 12.65 -31.55 11.6 -30.8 11.15 -30.5 10.8 -30.1
L 10.75 -30.1
Q 8.95 -30.45 7.45 -29.4 5.95 -28.4 5.6 -26.65 5.5 -26.2 5.45 -25.8 4.15 -26.05 3.1 -25.3 1.95 -24.5 1.7 -23.2 1.4 -21.9 2.2 -20.8 2.9 -19.65 4.25 -19.4 5.5 -19.15 6.55 -19.75 6.35 -18.25 7.25 -16.9
L 7.25 -16.85
Q 6.85 -16.8 6.45 -16.55 5.7 -16 5.55 -15.15 5.35 -14.25 5.9 -13.55 6.35 -12.8 7.25 -12.65 8.1 -12.45 8.9 -12.95 9.5 -13.35 9.7 -14.05 9.8 -13.5 10.15 -13 10.85 -12 12.1 -11.75 13.3 -11.5 14.35 -12.15 15.35 -12.85 15.65 -14 16.3 -13.35 17.2 -13.15 18.5 -12.9 19.55 -13.6 19.95 -13.9 20.2 -14.2 20.7 -13.85 21.3 -13.75 22.45 -13.5 23.45 -14.2 24.45 -14.85 24.65 -16 24.9 -17.15 24.2 -18.15 23.95 -18.55 23.6 -18.85 24.4 -19.65 24.65 -20.85 25 -22.5 24.1 -23.85 23.4 -24.9 22.25 -25.35
M 14.8 -17
Q 14.7015625 -16.95078125 14.7 -16.9
L 14.7 -16.95
Q 14.74921875 -16.99921875 14.75 -17.05 14.75078125 -17 14.8 -17 Z"/>
</g>

<g id="ARVO_0_Layer0_0_MEMBER_4_MEMBER_0_MEMBER_0_FILL">
<path fill="#7A9801" stroke="none" d="
M 14.3 -17.2
Q 13.7 -16.9 13.25 -16.25 13.6 -16.4 14.4 -16.5 15.75 -16.75 16.4 -16.6 17.15 -16.45 18.3 -16 18.6 -15.85 18.85 -15.75 18.95 -15.8 19.05 -15.8 18.75 -16.3 17.95 -16.7 17.15 -17.2 16.25 -17.35 15.15 -17.6 14.3 -17.2
M 12 -15.25
Q 11.45 -14.75 10.35 -14.35 9.05 -13.8 8.4 -13.6 8.3 -13.55 8.15 -13.45
L 8.1 -13.15 10.2 -12.75
Q 11.35 -12.95 12.15 -14.15 12.75 -15.1 12.8 -16.05 12.75 -16.05 12.65 -16.05 12.4 -15.6 12 -15.25
M 11.6 -19.3
Q 10.95 -20 10.8 -20.3
L 9.05 -20.6
Q 9.85 -20 10.8 -18.9 11.55 -18 12.8 -16.5 12.85 -16.65 12.9 -16.8
L 13 -16.8
Q 12.95 -17 12.85 -17.2
L 12.3 -18.4
Q 12.2 -18.65 11.6 -19.3 Z"/>

<path fill="#BDEC02" stroke="none" d="
M 13.1 -16.1
Q 13.3 -16.05 13.5 -15.9 14 -15.55 14.5 -15.45 15.65 -15.2 16.8 -15.3 17.9 -15.35 18.85 -15.75 18.6 -15.85 18.3 -16 17.15 -16.45 16.4 -16.6 15.75 -16.75 14.4 -16.5 13.6 -16.4 13.25 -16.25 13.2 -16.15 13.1 -16.1
M 12.4 -16.1
Q 12 -16 11.5 -15.85 10.55 -15.7 10.15 -15.6 8.55 -15.1 8.25 -13.75
L 8.15 -13.45
Q 8.3 -13.55 8.4 -13.6 9.05 -13.8 10.35 -14.35 11.45 -14.75 12 -15.25 12.4 -15.6 12.65 -16.05 12.55 -16.1 12.4 -16.1
M 12.75 -16.3
Q 12.8 -16.4 12.8 -16.5 11.55 -18 10.8 -18.9 9.85 -20 9.05 -20.6
L 8.95 -20.6
Q 8.8 -19.25 9.95 -17.8 11 -16.5 12.4 -16.1 12.6 -16.2 12.75 -16.25
L 12.75 -16.3 Z"/>
</g>

<g id="ARVO_0_Layer0_0_MEMBER_4_MEMBER_0_MEMBER_1_FILL">
<path fill="#7A9801" stroke="none" d="
M 13.15 -16.15
Q 13.05 -16.1 13 -16.05 13.05 -15.55 12.85 -15.05 12.6 -14.35 11.9 -13.4 11.05 -12.4 10.55 -11.8 10.5 -11.7 10.4 -11.6
L 10.5 -11.3 12.5 -12
Q 13.45 -12.75 13.5 -14.15 13.55 -15.3 13.15 -16.15
M 12.9 -16.55
Q 12.95 -16.7 12.9 -16.85
L 12.95 -16.95
Q 12.8 -17.05 12.65 -17.15 12.6 -17.2 11.55 -17.95 11.35 -18.1 10.45 -18.4 9.6 -18.65 9.3 -18.75
L 7.65 -18.2
Q 8.6 -18.1 10 -17.6 11.05 -17.25 12.9 -16.55
M 17.9 -18.85
Q 18.25 -18.85 18.6 -18.95 18.6 -19 18.65 -19.1 18.2 -19.35 17.25 -19.35 16.4 -19.3 15.55 -19.05 14.45 -18.65 13.9 -17.9 13.5 -17.35 13.45 -16.55 13.65 -16.85 14.25 -17.35 15.3 -18.2 15.95 -18.4 16.7 -18.65 17.9 -18.85 Z"/>

<path fill="#BDEC02" stroke="none" d="
M 12.75 -16.05
Q 12.9 -16.2 13 -16.35 12.95 -16.45 12.9 -16.55 11.05 -17.25 10 -17.6 8.6 -18.1 7.65 -18.2
L 7.55 -18.2
Q 8.1 -16.95 9.8 -16.25 11.35 -15.6 12.75 -16.05
M 13 -16.05
Q 12.85 -16.05 12.75 -16.05 12.5 -15.7 12.1 -15.35 11.35 -14.75 11.1 -14.4 9.95 -13.25 10.3 -11.9
L 10.4 -11.6
Q 10.5 -11.7 10.55 -11.8 11.05 -12.4 11.9 -13.4 12.6 -14.35 12.85 -15.05 13.05 -15.55 13 -16.05
M 18.6 -18.95
Q 18.25 -18.85 17.9 -18.85 16.7 -18.65 15.95 -18.4 15.3 -18.2 14.25 -17.35 13.65 -16.85 13.45 -16.55 13.4 -16.5 13.4 -16.35 13.6 -16.35 13.8 -16.4 14.4 -16.3 14.95 -16.5 16.05 -16.85 16.95 -17.5 17.9 -18.1 18.6 -18.95 Z"/>
</g>

<g id="ARVO_0_Layer0_0_MEMBER_4_MEMBER_1_FILL">
<path fill="#7A9801" stroke="none" d="
M 9.35 -26.05
Q 9.55 -26.15 10.05 -26.2 10.9 -26.35 11.35 -26.3 11.8 -26.2 12.55 -25.9 12.75 -25.8 12.9 -25.75 13 -25.75 13.05 -25.8 12.85 -26.1 12.35 -26.35 11.85 -26.65 11.3 -26.75 10.55 -26.9 10.05 -26.65 9.65 -26.45 9.35 -26.05
M 9.05 -25.9
Q 9 -25.9 8.95 -25.9 8.85 -25.65 8.6 -25.45 8.2 -25.1 7.55 -24.8 6.7 -24.5 6.3 -24.4 6.25 -24.35 6.15 -24.3
L 6.1 -24.1 7.45 -23.85
Q 8.15 -23.95 8.65 -24.7 9.05 -25.35 9.05 -25.9
M 8.35 -28
Q 7.9 -28.4 7.8 -28.6
L 6.7 -28.8
Q 7.15 -28.4 7.8 -27.7 8.25 -27.15 9.1 -26.2 9.15 -26.3 9.15 -26.4
L 9.2 -26.4
Q 9.2 -26.5 9.1 -26.65
L 8.8 -27.4
Q 8.7 -27.6 8.35 -28 Z"/>

<path fill="#BDEC02" stroke="none" d="
M 9.35 -26.05
Q 9.35 -26 9.3 -25.95 9.35 -25.9 9.5 -25.8 9.85 -25.6 10.2 -25.55 10.9 -25.4 11.6 -25.45 12.3 -25.5 12.9 -25.75 12.75 -25.8 12.55 -25.9 11.8 -26.2 11.35 -26.3 10.9 -26.35 10.05 -26.2 9.55 -26.15 9.35 -26.05
M 8.8 -25.95
Q 8.6 -25.9 8.25 -25.8 7.65 -25.7 7.4 -25.6 6.4 -25.35 6.15 -24.5
L 6.15 -24.3
Q 6.25 -24.35 6.3 -24.4 6.7 -24.5 7.55 -24.8 8.2 -25.1 8.6 -25.45 8.85 -25.65 8.95 -25.9 8.9 -25.95 8.8 -25.95
M 6.7 -28.8
L 6.65 -28.8
Q 6.55 -27.95 7.25 -27.05 7.9 -26.2 8.8 -25.95 8.9 -26.05 9.05 -26.05 9.05 -26.15 9.1 -26.2 8.25 -27.15 7.8 -27.7 7.15 -28.4 6.7 -28.8 Z"/>
</g>

<g id="ARVO_0_Layer0_0_MEMBER_4_MEMBER_2_FILL">
<path fill="#7A9801" stroke="none" d="
M 18.6 -22.05
Q 19.05 -22.5 19.25 -23.2 18.95 -23 18.4 -22.7 17.5 -22.15 17 -22.1 16.4 -22.05 15.5 -22.25 15.25 -22.3 15 -22.3 14.95 -22.25 14.9 -22.2 15.15 -21.9 15.85 -21.65 16.55 -21.35 17.2 -21.4 18.1 -21.45 18.6 -22.05
M 19.55 -23.05
Q 19.55 -22.9 19.55 -22.75
L 19.45 -22.7
Q 19.6 -22.55 19.7 -22.35
L 20.3 -21.35
Q 20.5 -21.15 21.05 -20.75 21.65 -20.25 21.85 -20
L 23.15 -20.1
Q 22.55 -20.5 21.55 -21.3 20.85 -21.95 19.55 -23.05
M 22.15 -26.85
Q 22.25 -26.9 22.35 -27
L 22.35 -27.25 20.7 -27.15
Q 19.9 -26.75 19.6 -25.45 19.3 -24.4 19.45 -23.5 19.55 -23.5 19.6 -23.5 19.7 -24 19.9 -24.45 20.25 -25 20.9 -25.7 21.75 -26.45 22.15 -26.85 Z"/>

<path fill="#BDEC02" stroke="none" d="
M 18.95 -23.45
Q 18.5 -23.65 18.1 -23.65 17.25 -23.55 16.45 -23.25 15.6 -22.9 15 -22.3 15.25 -22.3 15.5 -22.25 16.4 -22.05 17 -22.1 17.5 -22.15 18.4 -22.7 18.95 -23 19.25 -23.2 19.25 -23.25 19.3 -23.35 19.15 -23.4 18.95 -23.45
M 19.8 -23.55
Q 19.7 -23.45 19.6 -23.3
L 19.6 -23.25
Q 19.6 -23.15 19.55 -23.05 20.85 -21.95 21.55 -21.3 22.55 -20.5 23.15 -20.1
L 23.25 -20.15
Q 23.05 -21.45 21.95 -22.5 20.95 -23.5 19.8 -23.55
M 22.4 -26.7
L 22.35 -27
Q 22.25 -26.9 22.15 -26.85 21.75 -26.45 20.9 -25.7 20.25 -25 19.9 -24.45 19.7 -24 19.6 -23.5 19.7 -23.55 19.8 -23.55 20.05 -23.75 20.4 -24 21.05 -24.35 21.35 -24.6 22.4 -25.35 22.4 -26.7 Z"/>
</g>

<g id="ARVO_0_Layer0_0_MEMBER_5_FILL">
<path fill="#96BA01" stroke="none" d="
M -12.2 -27.2
Q -12.15 -28.6 -12.9 -29.75 -13.9 -31.25 -15.6 -31.6 -17.35 -31.95 -18.8 -30.95 -19.5 -30.5 -19.95 -29.9 -20 -29.9 -20.05 -29.9 -22.5 -30.4 -24.6 -29 -26.7 -27.55 -27.2 -25.1 -27.35 -24.5 -27.35 -23.9 -29.15 -24.25 -30.7 -23.2 -32.25 -22.15 -32.65 -20.3 -33 -18.45 -31.95 -16.9 -30.9 -15.35 -29.05 -15 -27.35 -14.65 -25.9 -15.55 -26.1 -13.4 -24.9 -11.5
L -24.85 -11.5
Q -25.45 -11.4 -25.95 -11 -27 -10.3 -27.25 -9.1 -27.5 -7.85 -26.8 -6.85 -26.1 -5.8 -24.9 -5.55 -23.65 -5.35 -22.65 -6 -21.8 -6.6 -21.45 -7.55 -21.3 -6.8 -20.85 -6.1 -19.85 -4.6 -18.15 -4.3 -16.45 -3.95 -15 -4.95 -13.65 -5.85 -13.25 -7.45 -12.35 -6.6 -11.05 -6.35 -9.3 -6 -7.8 -7 -7.25 -7.35 -6.85 -7.8 -6.2 -7.35 -5.35 -7.15 -3.7 -6.85 -2.4 -7.8 -1 -8.65 -0.7 -10.3 -0.35 -11.9 -1.3 -13.3 -1.7 -13.9 -2.2 -14.25 -1 -15.4 -0.65 -17.1 -0.25 -19.35 -1.45 -21.25 -2.45 -22.7 -4 -23.35 -3.45 -24.1 -3.25 -25.1 -2.9 -26.9 -3.85 -28.45 -4.9 -29.95 -6.7 -30.3 -8.5 -30.7 -10 -29.7 -11.2 -28.9 -11.7 -27.65 -11.8 -27.6 -11.85 -27.5 -12.1 -27.4 -12.2 -27.2
M -14.5 -11.7
L -14.45 -11.7
Q -14.45 -11.6 -14.45 -11.55
L -14.5 -11.6
Q -14.5 -11.65 -14.5 -11.7 Z"/>
</g>

<g id="ARVO_0_Layer0_0_MEMBER_5_MEMBER_0_MEMBER_0_FILL">
<path fill="#7A9801" stroke="none" d="
M -12.1 -12.15
Q -13.65 -12.5 -14.8 -11.95 -15.75 -11.55 -16.4 -10.6 -15.8 -10.8 -14.75 -11 -12.9 -11.3 -11.95 -11.1 -10.9 -10.9 -9.35 -10.2 -8.9 -10.05 -8.5 -9.9 -8.4 -9.95 -8.3 -10 -8.65 -10.65 -9.75 -11.3 -10.85 -11.9 -12.1 -12.15
M -18.6 -14.85
Q -19.5 -15.8 -19.75 -16.2
L -22.15 -16.65
Q -21.1 -15.85 -19.75 -14.25 -18.7 -13.05 -16.95 -10.95 -16.85 -11.15 -16.8 -11.35
L -16.65 -11.4
Q -16.75 -11.65 -16.85 -11.9 -16.9 -12 -17.6 -13.65 -17.75 -13.95 -18.6 -14.85
M -23.4 -6.75
L -23.45 -6.35 -20.55 -5.75
Q -19 -6 -17.9 -7.65 -17 -9 -16.95 -10.35 -17.05 -10.35 -17.15 -10.35 -17.5 -9.7 -18.05 -9.2 -18.8 -8.5 -20.35 -7.9 -22.15 -7.25 -23.05 -6.85 -23.2 -6.8 -23.4 -6.75 Z"/>

<path fill="#BDEC02" stroke="none" d="
M -14.55 -9.5
Q -12.95 -9.15 -11.45 -9.3 -9.85 -9.4 -8.5 -9.9 -8.9 -10.05 -9.35 -10.2 -10.9 -10.9 -11.95 -11.1 -12.9 -11.3 -14.75 -11 -15.8 -10.8 -16.4 -10.6 -16.45 -10.55 -16.45 -10.45 -16.25 -10.3 -16 -10.15 -15.3 -9.65 -14.55 -9.5
M -23.3 -7.2
L -23.4 -6.75
Q -23.2 -6.8 -23.05 -6.85 -22.15 -7.25 -20.35 -7.9 -18.8 -8.5 -18.05 -9.2 -17.5 -9.7 -17.15 -10.35 -17.35 -10.4 -17.5 -10.45 -18 -10.25 -18.75 -10.05 -20.05 -9.8 -20.7 -9.6 -22.9 -9 -23.3 -7.2
M -22.15 -16.65
L -22.25 -16.65
Q -22.45 -14.8 -20.9 -12.8 -19.5 -10.95 -17.5 -10.45 -17.25 -10.55 -17.05 -10.65 -16.95 -10.8 -16.95 -10.95 -18.7 -13.05 -19.75 -14.25 -21.1 -15.85 -22.15 -16.65 Z"/>
</g>

<g id="ARVO_0_Layer0_0_MEMBER_5_MEMBER_0_MEMBER_1_FILL">
<path fill="#BDEC02" stroke="none" d="
M -8.95 -14.3
Q -9.3 -14.25 -9.8 -14.1 -11.5 -13.95 -12.5 -13.6 -13.4 -13.3 -14.9 -12.05 -15.75 -11.4 -16.1 -10.95 -16.1 -10.8 -16.1 -10.75 -15.85 -10.75 -15.55 -10.7 -14.7 -10.6 -14 -10.85 -12.45 -11.4 -11.15 -12.3 -9.8 -13.15 -8.95 -14.3
M -16.65 -10.35
Q -16.8 -10.3 -17 -10.25 -17.35 -9.8 -17.9 -9.25 -18.9 -8.4 -19.35 -7.95 -21 -6.3 -20.35 -4.5
L -20.25 -4.1
Q -20.1 -4.2 -20.05 -4.35 -19.4 -5.1 -18.2 -6.6 -17.2 -7.9 -16.85 -8.9 -16.65 -9.65 -16.65 -10.35
M -24.1 -13.25
L -24.2 -13.25
Q -23.45 -11.55 -21.15 -10.55 -18.95 -9.7 -17 -10.25 -16.8 -10.45 -16.7 -10.6
L -16.7 -10.65
Q -16.7 -10.85 -16.75 -11 -19.3 -11.9 -20.85 -12.45 -22.75 -13.1 -24.1 -13.25 Z"/>

<path fill="#7A9801" stroke="none" d="
M -8.95 -14.3
Q -8.9 -14.4 -8.8 -14.45 -9.45 -14.85 -10.7 -14.85 -12 -14.85 -13.2 -14.45 -14.7 -13.9 -15.45 -12.9 -16 -12.05 -16.1 -10.95 -15.75 -11.4 -14.9 -12.05 -13.4 -13.3 -12.5 -13.6 -11.5 -13.95 -9.8 -14.1 -9.3 -14.25 -8.95 -14.3
M -16.45 -10.4
Q -16.55 -10.4 -16.65 -10.35 -16.65 -9.65 -16.85 -8.9 -17.2 -7.9 -18.2 -6.6 -19.4 -5.1 -20.05 -4.35 -20.1 -4.2 -20.25 -4.1
L -20.1 -3.7 -17.3 -4.65
Q -16.1 -5.65 -15.95 -7.65 -15.85 -9.25 -16.45 -10.4
M -24.1 -13.25
Q -22.75 -13.1 -20.85 -12.45 -19.3 -11.9 -16.75 -11 -16.75 -11.2 -16.85 -11.35
L -16.7 -11.5
Q -16.95 -11.65 -17.15 -11.85 -17.25 -11.9 -18.65 -12.95 -18.95 -13.15 -20.15 -13.5 -21.4 -13.85 -21.75 -14.05
L -24.1 -13.25 Z"/>
</g>

<g id="ARVO_0_Layer0_0_MEMBER_5_MEMBER_1_FILL">
<path fill="#7A9801" stroke="none" d="
M -22 -24.05
Q -21.65 -24.2 -21 -24.3 -19.8 -24.5 -19.2 -24.35 -18.55 -24.25 -17.55 -23.85 -17.25 -23.65 -17 -23.6 -16.95 -23.65 -16.9 -23.65 -17.15 -24.05 -17.85 -24.45 -18.55 -24.9 -19.3 -25.05 -20.3 -25.25 -21.05 -24.9 -21.6 -24.65 -22 -24.05
M -22.4 -23.85
Q -22.45 -23.85 -22.5 -23.9 -22.7 -23.5 -23.1 -23.15 -23.55 -22.75 -24.5 -22.35 -25.65 -21.9 -26.25 -21.65 -26.35 -21.65 -26.4 -21.6
L -26.45 -21.35 -24.65 -21
Q -23.65 -21.15 -22.95 -22.15 -22.4 -23.05 -22.4 -23.85
M -23.4 -26.7
Q -23.95 -27.3 -24.15 -27.6
L -25.65 -27.9
Q -25 -27.35 -24.15 -26.4 -23.5 -25.6 -22.35 -24.25 -22.3 -24.4 -22.3 -24.5
L -22.2 -24.55
Q -22.2 -24.7 -22.3 -24.9 -22.3 -24.95 -22.8 -25.95 -22.85 -26.15 -23.4 -26.7 Z"/>

<path fill="#BDEC02" stroke="none" d="
M -22.05 -23.95
Q -21.9 -23.85 -21.8 -23.75 -21.3 -23.45 -20.85 -23.35 -19.85 -23.15 -18.85 -23.2 -17.85 -23.25 -17 -23.6 -17.25 -23.65 -17.55 -23.85 -18.55 -24.25 -19.2 -24.35 -19.8 -24.5 -21 -24.3 -21.65 -24.2 -22 -24.05 -22.05 -24 -22.05 -23.95
M -22.5 -23.9
Q -22.65 -23.9 -22.75 -23.95 -23.05 -23.85 -23.5 -23.7 -24.35 -23.5 -24.75 -23.45 -26.15 -23.05 -26.35 -21.85
L -26.4 -21.6
Q -26.35 -21.65 -26.25 -21.65 -25.65 -21.9 -24.5 -22.35 -23.55 -22.75 -23.1 -23.15 -22.7 -23.5 -22.5 -23.9
M -25.65 -27.9
L -25.75 -27.9
Q -25.85 -26.7 -24.85 -25.4 -23.95 -24.25 -22.75 -23.95 -22.55 -24 -22.45 -24.05
L -22.4 -24.05
Q -22.35 -24.15 -22.35 -24.25 -23.5 -25.6 -24.15 -26.4 -25 -27.35 -25.65 -27.9 Z"/>
</g>

<g id="ARVO_0_Layer0_0_MEMBER_5_MEMBER_2_FILL">
<path fill="#7A9801" stroke="none" d="
M -8.25 -20
Q -8.6 -19.65 -9.3 -19.25 -10.6 -18.5 -11.35 -18.45 -12.15 -18.4 -13.45 -18.65 -13.8 -18.7 -14.1 -18.75 -14.2 -18.7 -14.25 -18.65 -13.85 -18.1 -12.95 -17.75 -11.95 -17.45 -11 -17.5 -9.8 -17.55 -9.05 -18.35 -8.5 -18.95 -8.25 -20
M -7.75 -19.75
Q -7.75 -19.6 -7.75 -19.4
L -7.85 -19.3
Q -7.75 -19.1 -7.6 -18.85 -7.55 -18.8 -6.7 -17.4 -6.5 -17.2 -5.65 -16.55 -4.8 -15.9 -4.6 -15.55
L -2.75 -15.65
Q -3.7 -16.2 -4.95 -17.35 -6.05 -18.2 -7.75 -19.75
M -4.1 -25.05
Q -4 -25.2 -3.9 -25.3
L -3.95 -25.7 -6.15 -25.55
Q -7.25 -24.9 -7.75 -23.15 -8.1 -21.65 -7.85 -20.4 -7.75 -20.4 -7.65 -20.4 -7.55 -21.1 -7.25 -21.7 -6.85 -22.55 -5.9 -23.45 -4.7 -24.55 -4.1 -25.05 Z"/>

<path fill="#BDEC02" stroke="none" d="
M -8.15 -20.2
Q -8.35 -20.2 -8.55 -20.35 -9.2 -20.6 -9.75 -20.6 -11 -20.5 -12.1 -20.05 -13.25 -19.55 -14.1 -18.75 -13.8 -18.7 -13.45 -18.65 -12.15 -18.4 -11.35 -18.45 -10.6 -18.5 -9.3 -19.25 -8.6 -19.65 -8.25 -20 -8.2 -20.1 -8.15 -20.2
M -7.7 -20.1
L -7.75 -20.05
Q -7.75 -19.9 -7.75 -19.75 -6.05 -18.2 -4.95 -17.35 -3.7 -16.2 -2.75 -15.65
L -2.65 -15.75
Q -2.85 -17.5 -4.45 -19.05 -5.85 -20.45 -7.4 -20.45 -7.6 -20.3 -7.7 -20.1
M -3.9 -24.9
L -3.9 -25.3
Q -4 -25.2 -4.1 -25.05 -4.7 -24.55 -5.9 -23.45 -6.85 -22.55 -7.25 -21.7 -7.55 -21.1 -7.65 -20.4 -7.55 -20.45 -7.4 -20.45 -7.1 -20.7 -6.6 -21.05 -5.7 -21.6 -5.25 -21.95 -3.75 -23.05 -3.9 -24.9 Z"/>
</g>

<g id="ARVO_0_Layer0_0_MEMBER_6_FILL">
<path fill="#96BA01" stroke="none" d="
M -23.75 -1.65
Q -25 -1.9 -26.05 -1.15 -26.5 -0.85 -26.85 -0.45
L -26.9 -0.45
Q -28.7 -0.8 -30.2 0.25 -31.7 1.25 -32.05 3 -32.15 3.45 -32.2 3.85 -33.5 3.6 -34.55 4.35 -35.7 5.15 -35.95 6.45 -36.25 7.75 -35.45 8.85 -34.75 10 -33.4 10.25 -32.15 10.5 -31.1 9.9 -31.3 11.4 -30.4 12.75
L -30.4 12.8
Q -30.8 12.85 -31.2 13.1 -31.95 13.65 -32.1 14.5 -32.3 15.4 -31.75 16.1 -31.3 16.85 -30.4 17 -29.55 17.2 -28.75 16.7 -28.15 16.3 -27.95 15.6 -27.85 16.15 -27.5 16.65 -26.8 17.65 -25.55 17.9 -24.35 18.15 -23.3 17.5 -22.3 16.8 -22 15.65 -21.35 16.3 -20.45 16.5 -19.15 16.75 -18.1 16.05 -17.7 15.75 -17.45 15.45 -16.95 15.8 -16.35 15.9 -15.2 16.15 -14.2 15.45 -13.2 14.8 -13 13.65 -12.75 12.5 -13.45 11.5 -13.7 11.1 -14.05 10.8 -13.25 10 -13 8.8 -12.65 7.15 -13.55 5.8 -14.25 4.75 -15.4 4.3 -14.95 3.75 -14.8 3 -14.55 1.7 -15.3 0.65 -16.05 -0.45 -17.35 -0.7 -18.65 -0.95 -19.7 -0.25 -20.55 0.3 -20.9 1.2 -21 1.25 -21.05 1.3 -21.2 1.4 -21.25 1.5 -21.2 0.55 -21.8 -0.3 -22.5 -1.4 -23.75 -1.65
M -22.95 12.7
Q -22.90078125 12.65078125 -22.9 12.6 -22.89921875 12.65 -22.85 12.65 -22.9484375 12.69921875 -22.95 12.75
L -22.95 12.7 Z"/>
</g>

<g id="ARVO_0_Layer0_0_MEMBER_6_MEMBER_0_MEMBER_0_FILL">
<path fill="#BDEC02" stroke="none" d="
M -24.9 13.45
Q -25 13.4 -25.15 13.4 -25.55 13.5 -26.05 13.65 -27 13.8 -27.4 13.9 -29 14.4 -29.3 15.75
L -29.4 16.05
Q -29.25 15.95 -29.15 15.9 -28.5 15.7 -27.2 15.15 -26.1 14.75 -25.55 14.25 -25.15 13.9 -24.9 13.45
M -28.6 8.9
Q -28.75 10.25 -27.6 11.7 -26.55 13 -25.15 13.4 -24.95 13.3 -24.8 13.25
L -24.8 13.2
Q -24.75 13.1 -24.75 13 -26 11.5 -26.75 10.6 -27.7 9.5 -28.5 8.9
L -28.6 8.9
M -18.7 13.75
Q -18.95 13.65 -19.25 13.5 -20.4 13.05 -21.15 12.9 -21.8 12.75 -23.15 13 -23.95 13.1 -24.3 13.25 -24.35 13.35 -24.45 13.4 -24.25 13.45 -24.05 13.6 -23.55 13.95 -23.05 14.05 -21.9 14.3 -20.75 14.2 -19.65 14.15 -18.7 13.75 Z"/>

<path fill="#7A9801" stroke="none" d="
M -24.75 13.45
Q -24.8 13.45 -24.9 13.45 -25.15 13.9 -25.55 14.25 -26.1 14.75 -27.2 15.15 -28.5 15.7 -29.15 15.9 -29.25 15.95 -29.4 16.05
L -29.45 16.35 -27.35 16.75
Q -26.2 16.55 -25.4 15.35 -24.8 14.4 -24.75 13.45
M -26.75 9.2
L -28.5 8.9
Q -27.7 9.5 -26.75 10.6 -26 11.5 -24.75 13 -24.7 12.85 -24.65 12.7
L -24.55 12.7
Q -24.6 12.5 -24.7 12.3
L -25.25 11.1
Q -25.35 10.85 -25.95 10.2 -26.6 9.5 -26.75 9.2
M -19.25 13.5
Q -18.95 13.65 -18.7 13.75 -18.6 13.7 -18.5 13.7 -18.8 13.2 -19.6 12.8 -20.4 12.3 -21.3 12.15 -22.4 11.9 -23.25 12.3 -23.85 12.6 -24.3 13.25 -23.95 13.1 -23.15 13 -21.8 12.75 -21.15 12.9 -20.4 13.05 -19.25 13.5 Z"/>
</g>

<g id="ARVO_0_Layer0_0_MEMBER_6_MEMBER_0_MEMBER_1_FILL">
<path fill="#BDEC02" stroke="none" d="
M -24.6 13.45
Q -24.75 13.45 -24.85 13.45 -25.1 13.8 -25.5 14.15 -26.25 14.75 -26.5 15.1 -27.65 16.25 -27.3 17.6
L -27.2 17.9
Q -27.1 17.8 -27.05 17.7 -26.55 17.1 -25.7 16.1 -25 15.15 -24.75 14.45 -24.55 13.95 -24.6 13.45
M -27.6 11.9
Q -29 11.4 -29.95 11.3
L -30.05 11.3
Q -29.5 12.55 -27.8 13.25 -26.25 13.9 -24.85 13.45 -24.7 13.3 -24.6 13.15 -24.65 13.05 -24.7 12.95 -26.55 12.25 -27.6 11.9
M -19 10.55
Q -19.35 10.65 -19.7 10.65 -20.9 10.85 -21.65 11.1 -22.3 11.3 -23.35 12.15 -23.95 12.65 -24.15 12.95 -24.2 13 -24.2 13.15 -24 13.15 -23.8 13.1 -23.2 13.2 -22.65 13 -21.55 12.65 -20.65 12 -19.7 11.4 -19 10.55 Z"/>

<path fill="#7A9801" stroke="none" d="
M -24.45 13.35
Q -24.55 13.4 -24.6 13.45 -24.55 13.95 -24.75 14.45 -25 15.15 -25.7 16.1 -26.55 17.1 -27.05 17.7 -27.1 17.8 -27.2 17.9
L -27.1 18.2 -25.1 17.5
Q -24.15 16.75 -24.1 15.35 -24.05 14.2 -24.45 13.35
M -26.05 11.55
Q -26.25 11.4 -27.15 11.1 -28 10.85 -28.3 10.75
L -29.95 11.3
Q -29 11.4 -27.6 11.9 -26.55 12.25 -24.7 12.95 -24.65 12.8 -24.7 12.65
L -24.65 12.55
Q -24.8 12.45 -24.95 12.35 -25 12.3 -26.05 11.55
M -19 10.55
Q -19 10.5 -18.95 10.4 -19.4 10.15 -20.35 10.15 -21.2 10.2 -22.05 10.45 -23.15 10.85 -23.7 11.6 -24.1 12.15 -24.15 12.95 -23.95 12.65 -23.35 12.15 -22.3 11.3 -21.65 11.1 -20.9 10.85 -19.7 10.65 -19.35 10.65 -19 10.55 Z"/>
</g>

<g id="ARVO_0_Layer0_0_MEMBER_6_MEMBER_1_FILL">
<path fill="#BDEC02" stroke="none" d="
M -28.7 3.65
Q -28.75 3.6 -28.85 3.6 -29.05 3.65 -29.4 3.75 -30 3.85 -30.25 3.95 -31.25 4.2 -31.5 5.05
L -31.5 5.25
Q -31.4 5.2 -31.35 5.15 -30.95 5.05 -30.1 4.75 -29.45 4.45 -29.05 4.1 -28.8 3.9 -28.7 3.65
M -28.85 3.6
Q -28.75 3.5 -28.6 3.5 -28.6 3.4 -28.55 3.35 -29.4 2.4 -29.85 1.85 -30.5 1.15 -30.95 0.75
L -31 0.75
Q -31.1 1.6 -30.4 2.5 -29.75 3.35 -28.85 3.6
M -24.75 3.8
Q -24.9 3.75 -25.1 3.65 -25.85 3.35 -26.3 3.25 -26.75 3.2 -27.6 3.35 -28.1 3.4 -28.3 3.5 -28.3 3.55 -28.35 3.6 -28.3 3.65 -28.15 3.75 -27.8 3.95 -27.45 4 -26.75 4.15 -26.05 4.1 -25.35 4.05 -24.75 3.8 Z"/>

<path fill="#7A9801" stroke="none" d="
M -28.6 3.65
Q -28.65 3.65 -28.7 3.65 -28.8 3.9 -29.05 4.1 -29.45 4.45 -30.1 4.75 -30.95 5.05 -31.35 5.15 -31.4 5.2 -31.5 5.25
L -31.55 5.45 -30.2 5.7
Q -29.5 5.6 -29 4.85 -28.6 4.2 -28.6 3.65
M -28.85 2.15
Q -28.95 1.95 -29.3 1.55 -29.75 1.15 -29.85 0.95
L -30.95 0.75
Q -30.5 1.15 -29.85 1.85 -29.4 2.4 -28.55 3.35 -28.5 3.25 -28.5 3.15
L -28.45 3.15
Q -28.45 3.05 -28.55 2.9
L -28.85 2.15
M -24.75 3.8
Q -24.65 3.8 -24.6 3.75 -24.8 3.45 -25.3 3.2 -25.8 2.9 -26.35 2.8 -27.1 2.65 -27.6 2.9 -28 3.1 -28.3 3.5 -28.1 3.4 -27.6 3.35 -26.75 3.2 -26.3 3.25 -25.85 3.35 -25.1 3.65 -24.9 3.75 -24.75 3.8 Z"/>
</g>

<g id="ARVO_0_Layer0_0_MEMBER_6_MEMBER_2_FILL">
<path fill="#7A9801" stroke="none" d="
M -18.4 6.55
Q -18.7 6.75 -19.25 7.05 -20.15 7.6 -20.65 7.65 -21.25 7.7 -22.15 7.5 -22.4 7.45 -22.65 7.45 -22.7 7.5 -22.75 7.55 -22.5 7.85 -21.8 8.1 -21.1 8.4 -20.45 8.35 -19.55 8.3 -19.05 7.7 -18.6 7.25 -18.4 6.55
M -17.35 8.4
Q -17.15 8.6 -16.6 9 -16 9.5 -15.8 9.75
L -14.5 9.65
Q -15.1 9.25 -16.1 8.45 -16.8 7.8 -18.1 6.7 -18.1 6.85 -18.1 7
L -18.2 7.05
Q -18.05 7.2 -17.95 7.4
L -17.35 8.4
M -15.3 2.75
L -15.3 2.5 -16.95 2.6
Q -17.75 3 -18.05 4.3 -18.35 5.35 -18.2 6.25 -18.1 6.25 -18.05 6.25 -17.95 5.75 -17.75 5.3 -17.4 4.75 -16.75 4.05 -15.9 3.3 -15.5 2.9 -15.4 2.85 -15.3 2.75 Z"/>

<path fill="#BDEC02" stroke="none" d="
M -18.35 6.4
Q -18.5 6.35 -18.7 6.3 -19.15 6.1 -19.55 6.1 -20.4 6.2 -21.2 6.5 -22.05 6.85 -22.65 7.45 -22.4 7.45 -22.15 7.5 -21.25 7.7 -20.65 7.65 -20.15 7.6 -19.25 7.05 -18.7 6.75 -18.4 6.55 -18.4 6.5 -18.35 6.4
M -18.05 6.5
Q -18.05 6.6 -18.1 6.7 -16.8 7.8 -16.1 8.45 -15.1 9.25 -14.5 9.65
L -14.4 9.6
Q -14.6 8.3 -15.7 7.25 -16.7 6.25 -17.85 6.2 -17.95 6.3 -18.05 6.45
L -18.05 6.5
M -15.25 3.05
L -15.3 2.75
Q -15.4 2.85 -15.5 2.9 -15.9 3.3 -16.75 4.05 -17.4 4.75 -17.75 5.3 -17.95 5.75 -18.05 6.25 -17.95 6.2 -17.85 6.2 -17.6 6 -17.25 5.75 -16.6 5.4 -16.3 5.15 -15.25 4.4 -15.25 3.05 Z"/>
</g>

<g id="ARVO_0_Layer0_0_MEMBER_7_FILL">
<path fill="#96BA01" stroke="none" d="
M -24.85 -19.8
Q -27.3 -20.3 -29.4 -18.85 -31.5 -17.45 -32 -15 -32.15 -14.35 -32.15 -13.75 -33.95 -14.1 -35.5 -13.1 -37.05 -12.05 -37.4 -10.2 -37.8 -8.35 -36.75 -6.8 -35.7 -5.25 -33.85 -4.85 -32.15 -4.5 -30.7 -5.4 -30.9 -3.25 -29.7 -1.35
L -29.65 -1.35
Q -30.25 -1.25 -30.75 -0.9 -31.8 -0.2 -32.05 1.05 -32.3 2.25 -31.6 3.25 -30.9 4.3 -29.7 4.55 -28.5 4.8 -27.45 4.1 -26.55 3.5 -26.25 2.55 -26.1 3.35 -25.65 4 -24.65 5.5 -22.95 5.85 -21.25 6.2 -19.8 5.2 -18.4 4.25 -18 2.65 -17.15 3.55 -15.85 3.8 -14.1 4.15 -12.55 3.1 -12.05 2.75 -11.65 2.3 -11 2.75 -10.15 2.95 -8.5 3.3 -7.15 2.35 -5.8 1.45 -5.45 -0.15 -5.15 -1.8 -6.05 -3.15 -6.45 -3.75 -6.95 -4.1 -5.8 -5.3 -5.45 -7 -5 -9.25 -6.25 -11.1 -7.25 -12.6 -8.8 -13.2 -8.25 -13.95 -8 -15 -7.65 -16.8 -8.65 -18.3 -9.7 -19.85 -11.5 -20.2 -13.25 -20.55 -14.8 -19.55 -16 -18.75 -16.45 -17.5 -16.6 -17.45 -16.65 -17.4 -16.85 -17.25 -17 -17.1 -16.95 -18.45 -17.7 -19.65 -18.7 -21.1 -20.45 -21.45 -22.15 -21.8 -23.6 -20.8 -24.3 -20.35 -24.75 -19.75 -24.8 -19.75 -24.85 -19.8
M -19.2 -1.55
Q -19.25 -1.5 -19.25 -1.4 -19.3 -1.45 -19.3 -1.5 -19.3 -1.55 -19.25 -1.55
L -19.2 -1.55 Z"/>
</g>

<g id="ARVO_0_Layer0_0_MEMBER_7_MEMBER_0_MEMBER_0_FILL">
<path fill="#7A9801" stroke="none" d="
M -19.6 -0.85
Q -17.75 -1.15 -16.8 -0.95 -15.75 -0.75 -14.2 -0.05 -13.75 0.1 -13.35 0.25 -13.25 0.2 -13.15 0.15 -13.5 -0.5 -14.6 -1.15 -15.7 -1.75 -16.95 -2 -18.5 -2.35 -19.65 -1.8 -20.6 -1.4 -21.25 -0.45 -20.65 -0.65 -19.6 -0.85
M -21.8 -0.2
Q -21.9 -0.2 -22 -0.2 -22.35 0.45 -22.9 0.95 -23.65 1.65 -25.2 2.25 -27 2.9 -27.9 3.3 -28.05 3.35 -28.25 3.4
L -28.3 3.8 -25.4 4.4
Q -23.85 4.15 -22.75 2.5 -21.85 1.15 -21.8 -0.2
M -23.45 -4.7
Q -24.35 -5.65 -24.6 -6.05
L -27 -6.5
Q -25.95 -5.7 -24.6 -4.1 -23.55 -2.9 -21.8 -0.8 -21.7 -1 -21.65 -1.2
L -21.5 -1.25
Q -21.6 -1.5 -21.7 -1.75 -21.75 -1.85 -22.45 -3.5 -22.6 -3.8 -23.45 -4.7 Z"/>

<path fill="#BDEC02" stroke="none" d="
M -21.25 -0.45
Q -21.3 -0.4 -21.3 -0.3 -21.1 -0.15 -20.85 0 -20.15 0.5 -19.4 0.65 -17.8 1 -16.3 0.85 -14.7 0.75 -13.35 0.25 -13.75 0.1 -14.2 -0.05 -15.75 -0.75 -16.8 -0.95 -17.75 -1.15 -19.6 -0.85 -20.65 -0.65 -21.25 -0.45
M -22 -0.2
Q -22.2 -0.25 -22.35 -0.3 -22.85 -0.1 -23.6 0.1 -24.9 0.35 -25.55 0.55 -27.75 1.15 -28.15 2.95
L -28.25 3.4
Q -28.05 3.35 -27.9 3.3 -27 2.9 -25.2 2.25 -23.65 1.65 -22.9 0.95 -22.35 0.45 -22 -0.2
M -27 -6.5
L -27.1 -6.5
Q -27.3 -4.65 -25.75 -2.65 -24.35 -0.8 -22.35 -0.3 -22.1 -0.4 -21.9 -0.5 -21.8 -0.65 -21.8 -0.8 -23.55 -2.9 -24.6 -4.1 -25.95 -5.7 -27 -6.5 Z"/>
</g>

<g id="ARVO_0_Layer0_0_MEMBER_7_MEMBER_0_MEMBER_1_FILL">
<path fill="#7A9801" stroke="none" d="
M -20.3 -2.75
Q -20.85 -1.9 -20.95 -0.8 -20.6 -1.25 -19.75 -1.9 -18.25 -3.15 -17.35 -3.45 -16.35 -3.8 -14.65 -3.95 -14.15 -4.1 -13.8 -4.15 -13.75 -4.25 -13.65 -4.3 -14.3 -4.7 -15.55 -4.7 -16.85 -4.7 -18.05 -4.3 -19.55 -3.75 -20.3 -2.75
M -21.3 -0.25
Q -21.4 -0.25 -21.5 -0.2 -21.5 0.5 -21.7 1.25 -22.05 2.25 -23.05 3.55 -24.25 5.05 -24.9 5.8 -24.95 5.95 -25.1 6.05
L -24.95 6.45 -22.15 5.5
Q -20.95 4.5 -20.8 2.5 -20.7 0.9 -21.3 -0.25
M -26.6 -3.9
L -28.95 -3.1
Q -27.6 -2.95 -25.7 -2.3 -24.15 -1.75 -21.6 -0.85 -21.6 -1.05 -21.7 -1.2
L -21.55 -1.35
Q -21.8 -1.5 -22 -1.7 -22.1 -1.75 -23.5 -2.8 -23.8 -3 -25 -3.35 -26.25 -3.7 -26.6 -3.9 Z"/>

<path fill="#BDEC02" stroke="none" d="
M -20.95 -0.6
Q -20.7 -0.6 -20.4 -0.55 -19.55 -0.45 -18.85 -0.7 -17.3 -1.25 -16 -2.15 -14.65 -3 -13.8 -4.15 -14.15 -4.1 -14.65 -3.95 -16.35 -3.8 -17.35 -3.45 -18.25 -3.15 -19.75 -1.9 -20.6 -1.25 -20.95 -0.8 -20.95 -0.65 -20.95 -0.6
M -21.5 -0.2
Q -21.65 -0.15 -21.85 -0.1 -22.2 0.35 -22.75 0.9 -23.75 1.75 -24.2 2.2 -25.85 3.85 -25.2 5.65
L -25.1 6.05
Q -24.95 5.95 -24.9 5.8 -24.25 5.05 -23.05 3.55 -22.05 2.25 -21.7 1.25 -21.5 0.5 -21.5 -0.2
M -28.95 -3.1
L -29.05 -3.1
Q -28.3 -1.4 -26 -0.4 -23.8 0.45 -21.85 -0.1 -21.65 -0.3 -21.55 -0.45
L -21.55 -0.5
Q -21.55 -0.7 -21.6 -0.85 -24.15 -1.75 -25.7 -2.3 -27.6 -2.95 -28.95 -3.1 Z"/>
</g>

<g id="ARVO_0_Layer0_0_MEMBER_7_MEMBER_1_FILL">
<path fill="#7A9801" stroke="none" d="
M -26.8 -13.95
Q -26.45 -14.1 -25.8 -14.2 -24.6 -14.4 -24 -14.25 -23.35 -14.15 -22.35 -13.75 -22.05 -13.55 -21.8 -13.5 -21.75 -13.55 -21.7 -13.55 -21.95 -13.95 -22.65 -14.35 -23.35 -14.8 -24.1 -14.95 -25.1 -15.15 -25.85 -14.8 -26.4 -14.55 -26.8 -13.95
M -27.2 -13.75
Q -27.25 -13.75 -27.3 -13.8 -27.5 -13.4 -27.9 -13.05 -28.35 -12.65 -29.3 -12.25 -30.45 -11.8 -31.05 -11.55 -31.15 -11.55 -31.2 -11.5
L -31.25 -11.25 -29.45 -10.9
Q -28.45 -11.05 -27.75 -12.05 -27.2 -12.95 -27.2 -13.75
M -28.2 -16.6
Q -28.75 -17.2 -28.95 -17.5
L -30.45 -17.8
Q -29.8 -17.25 -28.95 -16.3 -28.3 -15.5 -27.15 -14.15 -27.1 -14.3 -27.1 -14.4
L -27 -14.45
Q -27 -14.6 -27.1 -14.8 -27.1 -14.85 -27.6 -15.85 -27.65 -16.05 -28.2 -16.6 Z"/>

<path fill="#BDEC02" stroke="none" d="
M -26.85 -13.85
Q -26.7 -13.75 -26.6 -13.65 -26.1 -13.35 -25.65 -13.25 -24.65 -13.05 -23.65 -13.1 -22.65 -13.15 -21.8 -13.5 -22.05 -13.55 -22.35 -13.75 -23.35 -14.15 -24 -14.25 -24.6 -14.4 -25.8 -14.2 -26.45 -14.1 -26.8 -13.95 -26.85 -13.9 -26.85 -13.85
M -27.25 -13.95
L -27.2 -13.95
Q -27.15 -14.05 -27.15 -14.15 -28.3 -15.5 -28.95 -16.3 -29.8 -17.25 -30.45 -17.8
L -30.55 -17.8
Q -30.65 -16.6 -29.65 -15.3 -28.75 -14.15 -27.55 -13.85 -27.35 -13.9 -27.25 -13.95
M -28.3 -13.6
Q -29.15 -13.4 -29.55 -13.35 -30.95 -12.95 -31.15 -11.75
L -31.2 -11.5
Q -31.15 -11.55 -31.05 -11.55 -30.45 -11.8 -29.3 -12.25 -28.35 -12.65 -27.9 -13.05 -27.5 -13.4 -27.3 -13.8 -27.45 -13.8 -27.55 -13.85 -27.85 -13.75 -28.3 -13.6 Z"/>
</g>

<g id="ARVO_0_Layer0_0_MEMBER_7_MEMBER_2_FILL">
<path fill="#7A9801" stroke="none" d="
M -13.1 -9.9
Q -13.45 -9.55 -14.15 -9.15 -15.45 -8.4 -16.2 -8.35 -17 -8.3 -18.3 -8.55 -18.65 -8.6 -18.95 -8.65 -19.05 -8.6 -19.1 -8.55 -18.7 -8 -17.8 -7.65 -16.8 -7.35 -15.85 -7.4 -14.65 -7.45 -13.9 -8.25 -13.35 -8.85 -13.1 -9.9
M -12.6 -9.65
Q -12.6 -9.5 -12.6 -9.3
L -12.7 -9.2
Q -12.6 -9 -12.45 -8.75 -12.4 -8.7 -11.55 -7.3 -11.35 -7.1 -10.5 -6.45 -9.65 -5.8 -9.45 -5.45
L -7.6 -5.55
Q -8.55 -6.1 -9.8 -7.25 -10.9 -8.1 -12.6 -9.65
M -8.95 -14.95
Q -8.85 -15.1 -8.75 -15.2
L -8.8 -15.6 -11 -15.45
Q -12.1 -14.8 -12.6 -13.05 -12.95 -11.55 -12.7 -10.3 -12.6 -10.3 -12.5 -10.3 -12.4 -11 -12.1 -11.6 -11.7 -12.45 -10.75 -13.35 -9.55 -14.45 -8.95 -14.95 Z"/>

<path fill="#BDEC02" stroke="none" d="
M -13.4 -10.25
Q -14.05 -10.5 -14.6 -10.5 -15.85 -10.4 -16.95 -9.95 -18.1 -9.45 -18.95 -8.65 -18.65 -8.6 -18.3 -8.55 -17 -8.3 -16.2 -8.35 -15.45 -8.4 -14.15 -9.15 -13.45 -9.55 -13.1 -9.9 -13.05 -10 -13 -10.1 -13.2 -10.1 -13.4 -10.25
M -12.6 -9.95
Q -12.6 -9.8 -12.6 -9.65 -10.9 -8.1 -9.8 -7.25 -8.55 -6.1 -7.6 -5.55
L -7.5 -5.65
Q -7.7 -7.4 -9.3 -8.95 -10.7 -10.35 -12.25 -10.35 -12.45 -10.2 -12.55 -10
L -12.6 -9.95
M -8.75 -15.2
Q -8.85 -15.1 -8.95 -14.95 -9.55 -14.45 -10.75 -13.35 -11.7 -12.45 -12.1 -11.6 -12.4 -11 -12.5 -10.3 -12.4 -10.35 -12.25 -10.35 -11.95 -10.6 -11.45 -10.95 -10.55 -11.5 -10.1 -11.85 -8.6 -12.95 -8.75 -14.8
L -8.75 -15.2 Z"/>
</g>

<g id="ARVO_0_Layer0_0_MEMBER_8_FILL">
<path fill="#96BA01" stroke="none" d="
M 17.6 -12.75
Q 17.9 -14.35 17.05 -15.7 16.3 -16.8 15.2 -17.15 15.6 -17.75 15.75 -18.45 16 -19.75 15.3 -20.85 14.6 -21.9 13.3 -22.2 12 -22.45 10.9 -21.7 10.05 -21.15 9.75 -20.25 9.65 -20.25 9.6 -20.2 9.45 -20.1 9.35 -20 9.4 -20.9 8.85 -21.75 8.15 -22.85 6.9 -23.1 5.65 -23.35 4.65 -22.6 4.15 -22.3 3.8 -21.9
L 3.75 -21.9
Q 1.95 -22.25 0.5 -21.25 -1 -20.25 -1.35 -18.45 -1.45 -18.05 -1.45 -17.65 -2.75 -17.85 -3.85 -17.1 -5 -16.35 -5.25 -15.05 -5.5 -13.75 -4.75 -12.6 -4 -11.5 -2.7 -11.2 -1.5 -11 -0.4 -11.65 -0.55 -10.1 0.3 -8.75 -0.1 -8.65 -0.5 -8.4 -1.2 -7.9 -1.4 -7.05 -1.55 -6.15 -1.1 -5.45 -0.55 -4.65 0.3 -4.5 1.15 -4.3 1.9 -4.85 2.5 -5.25 2.75 -5.95 2.85 -5.4 3.2 -4.9 3.85 -3.9 5.1 -3.65 6.3 -3.4 7.4 -4.05 8.35 -4.7 8.6 -5.9 9.25 -5.25 10.2 -5.05 11.45 -4.8 12.5 -5.55 12.85 -5.75 13.2 -6.15 13.65 -5.8 14.25 -5.65 15.4 -5.45 16.35 -6.05 17.35 -6.75 17.6 -7.9 17.85 -9.05 17.15 -10 16.85 -10.45 16.5 -10.7 17.35 -11.55 17.6 -12.75
M 7.75 -8.8
L 7.7 -8.85 7.7 -8.9 7.75 -8.9
Q 7.75 -8.85 7.75 -8.8 Z"/>
</g>

<g id="ARVO_0_Layer0_0_MEMBER_8_MEMBER_0_MEMBER_0_FILL">
<path fill="#BDEC02" stroke="none" d="
M 7.5 -8.35
Q 6.75 -8.25 6.35 -8.15 6.35 -8.05 6.3 -8 6.5 -7.9 6.6 -7.75 7.1 -7.4 7.65 -7.3 8.8 -7.1 9.9 -7.15 11.05 -7.25 12 -7.65 11.7 -7.75 11.4 -7.85 10.3 -8.35 9.55 -8.5 8.85 -8.65 7.5 -8.35
M 5.8 -7.95
Q 5.7 -7.95 5.55 -8 5.15 -7.85 4.65 -7.75 3.75 -7.55 3.3 -7.45 1.7 -7 1.45 -5.7
L 1.4 -5.4
Q 1.5 -5.4 1.6 -5.45 2.3 -5.75 3.55 -6.2 4.6 -6.6 5.2 -7.15 5.55 -7.5 5.8 -7.95
M 2.3 -12.45
L 2.2 -12.45
Q 2 -11.15 3.15 -9.65 4.15 -8.35 5.55 -8 5.8 -8.05 5.9 -8.1
L 5.9 -8.15
Q 6 -8.25 6 -8.35 4.75 -9.85 4 -10.75 3 -11.8 2.3 -12.45 Z"/>

<path fill="#7A9801" stroke="none" d="
M 7.5 -9.05
Q 6.8 -8.75 6.35 -8.15 6.75 -8.25 7.5 -8.35 8.85 -8.65 9.55 -8.5 10.3 -8.35 11.4 -7.85 11.7 -7.75 12 -7.65 12.1 -7.65 12.15 -7.7 11.9 -8.2 11.1 -8.6 10.3 -9.05 9.45 -9.25 8.3 -9.45 7.5 -9.05
M 5.95 -7.9
Q 5.9 -7.9 5.8 -7.95 5.55 -7.5 5.2 -7.15 4.6 -6.6 3.55 -6.2 2.3 -5.75 1.6 -5.45 1.5 -5.4 1.4 -5.4
L 1.35 -5.1 3.4 -4.7
Q 4.5 -4.8 5.3 -6 5.9 -7 5.95 -7.9
M 6.15 -8.7
Q 6.15 -8.85 6.05 -9.1
L 5.5 -10.3
Q 5.4 -10.5 4.8 -11.15 4.15 -11.8 4 -12.1
L 2.3 -12.45
Q 3 -11.8 4 -10.75 4.75 -9.85 6 -8.35 6 -8.5 6.05 -8.65
L 6.15 -8.7 Z"/>
</g>

<g id="ARVO_0_Layer0_0_MEMBER_8_MEMBER_0_MEMBER_1_FILL">
<path fill="#7A9801" stroke="none" d="
M 6.2 -7.9
Q 6.25 -7.4 6.05 -6.9 5.85 -6.2 5.15 -5.25 4.25 -4.2 3.8 -3.65 3.7 -3.5 3.6 -3.45
L 3.7 -3.15 5.7 -3.8
Q 6.65 -4.55 6.75 -6 6.8 -7.1 6.35 -7.95 6.3 -7.9 6.2 -7.9
M 6.15 -8.7
Q 6.05 -8.85 5.85 -9 5.8 -9 4.8 -9.8 4.55 -9.95 3.7 -10.15 2.85 -10.4 2.55 -10.6
L 0.9 -10
Q 1.85 -9.85 3.2 -9.4 4.3 -9 6.15 -8.35 6.1 -8.5 6.05 -8.6
L 6.15 -8.7
M 6.6 -8.35
Q 6.9 -8.65 7.45 -9.15 8.5 -10 9.15 -10.2 9.9 -10.45 11.05 -10.65 11.45 -10.65 11.7 -10.7 11.75 -10.8 11.8 -10.85 11.35 -11.15 10.45 -11.1 9.5 -11.15 8.7 -10.85 7.6 -10.45 7.1 -9.75 6.65 -9.15 6.6 -8.35 Z"/>

<path fill="#BDEC02" stroke="none" d="
M 5.95 -7.8
Q 6.1 -7.95 6.15 -8.1
L 6.15 -8.15
Q 6.2 -8.25 6.15 -8.35 4.3 -9 3.2 -9.4 1.85 -9.85 0.9 -10
L 0.8 -10
Q 1.35 -8.75 3 -8.1 4.55 -7.45 5.95 -7.8
M 6.2 -7.9
Q 6.1 -7.85 5.95 -7.8 5.7 -7.5 5.35 -7.15 4.6 -6.55 4.25 -6.2 3.15 -5.05 3.55 -3.75
L 3.6 -3.45
Q 3.7 -3.5 3.8 -3.65 4.25 -4.2 5.15 -5.25 5.85 -6.2 6.05 -6.9 6.25 -7.4 6.2 -7.9
M 7.45 -9.15
Q 6.9 -8.65 6.6 -8.35 6.6 -8.3 6.6 -8.2 6.75 -8.2 7 -8.2 7.6 -8.15 8.1 -8.3 9.2 -8.65 10.15 -9.25 11.1 -9.9 11.7 -10.7 11.45 -10.65 11.05 -10.65 9.9 -10.45 9.15 -10.2 8.5 -10 7.45 -9.15 Z"/>
</g>

<g id="ARVO_0_Layer0_0_MEMBER_8_MEMBER_1_FILL">
<path fill="#7A9801" stroke="none" d="
M 4.3 -18.45
Q 3.6 -18.55 3.1 -18.3 2.65 -18.15 2.4 -17.7 2.65 -17.85 3.1 -17.9 3.95 -18.05 4.4 -17.95 4.9 -17.85 5.55 -17.55 5.75 -17.45 5.95 -17.45 6 -17.4 6.05 -17.45 5.85 -17.75 5.4 -18 4.85 -18.3 4.3 -18.45
M 2.15 -17.55
Q 2.05 -17.6 2 -17.6 1.85 -17.3 1.6 -17.1 1.3 -16.8 0.6 -16.5 -0.25 -16.2 -0.65 -16.05 -0.7 -16 -0.8 -15.95
L -0.85 -15.8 0.45 -15.55
Q 1.2 -15.6 1.7 -16.4 2.1 -17 2.15 -17.55
M 1.4 -19.65
Q 0.95 -20.05 0.9 -20.25
L -0.2 -20.5
Q 0.25 -20.05 0.85 -19.4 1.35 -18.8 2.15 -17.9 2.15 -18 2.15 -18.1
L 2.25 -18.05
Q 2.25 -18.15 2.15 -18.35
L 1.85 -19.1
Q 1.8 -19.25 1.4 -19.65 Z"/>

<path fill="#BDEC02" stroke="none" d="
M 3.2 -17.2
Q 3.9 -17.05 4.65 -17.1 5.3 -17.2 5.95 -17.45 5.75 -17.45 5.55 -17.55 4.9 -17.85 4.4 -17.95 3.95 -18.05 3.1 -17.9 2.65 -17.85 2.4 -17.7 2.35 -17.7 2.35 -17.65 2.45 -17.6 2.55 -17.55 2.85 -17.25 3.2 -17.2
M 2 -17.6
Q 1.95 -17.6 1.9 -17.6 1.65 -17.55 1.3 -17.45 0.75 -17.4 0.45 -17.3 -0.55 -17 -0.75 -16.15
L -0.8 -15.95
Q -0.7 -16 -0.65 -16.05 -0.25 -16.2 0.6 -16.5 1.3 -16.8 1.6 -17.1 1.85 -17.3 2 -17.6
M 1.9 -17.6
Q 2 -17.7 2.1 -17.75 2.1 -17.85 2.15 -17.9 1.35 -18.8 0.85 -19.4 0.25 -20.05 -0.2 -20.5
L -0.25 -20.45
Q -0.4 -19.65 0.3 -18.7 1 -17.85 1.9 -17.6 Z"/>
</g>

<g id="ARVO_0_Layer0_0_MEMBER_8_MEMBER_2_FILL">
<path fill="#7A9801" stroke="none" d="
M 12.2 -14.8
Q 11.95 -14.55 11.4 -14.3 10.5 -13.75 10 -13.75 9.4 -13.7 8.45 -13.85 8.2 -13.95 8 -13.9 7.95 -13.9 7.9 -13.85 8.2 -13.45 8.85 -13.2 9.5 -13 10.2 -13.05 11.05 -13.1 11.6 -13.65 12 -14.1 12.2 -14.8
M 12.45 -14.3
Q 12.55 -14.15 12.6 -14 12.65 -13.95 13.3 -13 13.4 -12.8 14 -12.35 14.6 -11.9 14.8 -11.65
L 16.15 -11.75
Q 15.45 -12.15 14.5 -12.95 13.75 -13.55 12.55 -14.65 12.55 -14.5 12.55 -14.35
L 12.45 -14.3
M 13.85 -17.3
Q 14.7 -18.05 15.15 -18.45 15.2 -18.5 15.3 -18.55
L 15.25 -18.85 13.65 -18.75
Q 12.9 -18.35 12.6 -17 12.3 -16 12.45 -15.1 12.5 -15.1 12.6 -15.1 12.65 -15.55 12.9 -16.05 13.15 -16.6 13.85 -17.3 Z"/>

<path fill="#BDEC02" stroke="none" d="
M 12.2 -14.8
Q 12.2 -14.9 12.2 -14.95 12.1 -15 11.95 -15.1 11.5 -15.25 11.1 -15.2 10.25 -15.15 9.4 -14.85 8.6 -14.5 8 -13.9 8.2 -13.95 8.45 -13.85 9.4 -13.7 10 -13.75 10.5 -13.75 11.4 -14.3 11.95 -14.55 12.2 -14.8
M 12.55 -14.9
L 12.55 -14.85
Q 12.5 -14.75 12.55 -14.65 13.75 -13.55 14.5 -12.95 15.45 -12.15 16.15 -11.75
L 16.2 -11.75
Q 16 -13.05 14.85 -14.1 13.85 -15.1 12.75 -15.15 12.65 -15 12.55 -14.9
M 13.35 -15.55
Q 14 -15.95 14.3 -16.2 15.4 -16.95 15.3 -18.3
L 15.3 -18.55
Q 15.2 -18.5 15.15 -18.45 14.7 -18.05 13.85 -17.3 13.15 -16.6 12.9 -16.05 12.65 -15.55 12.6 -15.1 12.65 -15.1 12.75 -15.15 13.05 -15.35 13.35 -15.55 Z"/>
</g>
</defs>

<g id="btn_01" transform="matrix( 1.153564453125, 0, 0, 1.153564453125, -12.7,20.15) ">
<g transform="matrix( 2.21221923828125, 0, 0, 2.21221923828125, 93.95,67.5) ">
<g transform="matrix( 1, 0, 0, 1, 0,0) ">
<use xlink:href="#ARVO_0_Layer0_0_MEMBER_0_FILL"/>
</g>

<g transform="matrix( 1, 0, 0, 1, 0,0) ">
<use xlink:href="#ARVO_0_Layer0_0_MEMBER_0_MEMBER_0_MEMBER_0_FILL"/>
</g>

<g transform="matrix( 1, 0, 0, 1, 0,0) ">
<use xlink:href="#ARVO_0_Layer0_0_MEMBER_0_MEMBER_0_MEMBER_1_FILL"/>
</g>

<g transform="matrix( 1, 0, 0, 1, 0,0) ">
<use xlink:href="#ARVO_0_Layer0_0_MEMBER_0_MEMBER_1_FILL"/>
</g>

<g transform="matrix( 1, 0, 0, 1, 0,0) ">
<use xlink:href="#ARVO_0_Layer0_0_MEMBER_0_MEMBER_2_FILL"/>
</g>

<g transform="matrix( 1, 0, 0, 1, 0,0) ">
<use xlink:href="#ARVO_0_Layer0_0_MEMBER_1_FILL"/>
</g>

<g transform="matrix( 1, 0, 0, 1, 0,0) ">
<use xlink:href="#ARVO_0_Layer0_0_MEMBER_1_MEMBER_0_MEMBER_0_FILL"/>
</g>

<g transform="matrix( 1, 0, 0, 1, 0,0) ">
<use xlink:href="#ARVO_0_Layer0_0_MEMBER_1_MEMBER_0_MEMBER_1_FILL"/>
</g>

<g transform="matrix( 1, 0, 0, 1, 0,0) ">
<use xlink:href="#ARVO_0_Layer0_0_MEMBER_1_MEMBER_1_FILL"/>
</g>

<g transform="matrix( 1, 0, 0, 1, 0,0) ">
<use xlink:href="#ARVO_0_Layer0_0_MEMBER_1_MEMBER_2_FILL"/>
</g>

<g transform="matrix( 1, 0, 0, 1, 0,0) ">
<use xlink:href="#ARVO_0_Layer0_0_MEMBER_2_FILL"/>
</g>

<g transform="matrix( 1, 0, 0, 1, 0,0) ">
<use xlink:href="#ARVO_0_Layer0_0_MEMBER_3_MEMBER_0_FILL"/>
</g>

<g transform="matrix( 1, 0, 0, 1, 0,0) ">
<use xlink:href="#ARVO_0_Layer0_0_MEMBER_3_MEMBER_1_FILL"/>
</g>

<g transform="matrix( 1, 0, 0, 1, 0,0) ">
<use xlink:href="#ARVO_0_Layer0_0_MEMBER_3_MEMBER_1_MEMBER_0_MEMBER_0_FILL"/>
</g>

<g transform="matrix( 1, 0, 0, 1, 0,0) ">
<use xlink:href="#ARVO_0_Layer0_0_MEMBER_3_MEMBER_1_MEMBER_0_MEMBER_1_FILL"/>
</g>

<g transform="matrix( 1, 0, 0, 1, 0,0) ">
<use xlink:href="#ARVO_0_Layer0_0_MEMBER_3_MEMBER_1_MEMBER_1_FILL"/>
</g>

<g transform="matrix( 1, 0, 0, 1, 0,0) ">
<use xlink:href="#ARVO_0_Layer0_0_MEMBER_3_MEMBER_1_MEMBER_2_FILL"/>
</g>

<g transform="matrix( 1, 0, 0, 1, 0,0) ">
<use xlink:href="#ARVO_0_Layer0_0_MEMBER_4_FILL"/>
</g>

<g transform="matrix( 1, 0, 0, 1, 0,0) ">
<use xlink:href="#ARVO_0_Layer0_0_MEMBER_4_MEMBER_0_MEMBER_0_FILL"/>
</g>

<g transform="matrix( 1, 0, 0, 1, 0,0) ">
<use xlink:href="#ARVO_0_Layer0_0_MEMBER_4_MEMBER_0_MEMBER_1_FILL"/>
</g>

<g transform="matrix( 1, 0, 0, 1, 0,0) ">
<use xlink:href="#ARVO_0_Layer0_0_MEMBER_4_MEMBER_1_FILL"/>
</g>

<g transform="matrix( 1, 0, 0, 1, 0,0) ">
<use xlink:href="#ARVO_0_Layer0_0_MEMBER_4_MEMBER_2_FILL"/>
</g>

<g transform="matrix( 1, 0, 0, 1, 0,0) ">
<use xlink:href="#ARVO_0_Layer0_0_MEMBER_5_FILL"/>
</g>

<g transform="matrix( 1, 0, 0, 1, 0,0) ">
<use xlink:href="#ARVO_0_Layer0_0_MEMBER_5_MEMBER_0_MEMBER_0_FILL"/>
</g>

<g transform="matrix( 1, 0, 0, 1, 0,0) ">
<use xlink:href="#ARVO_0_Layer0_0_MEMBER_5_MEMBER_0_MEMBER_1_FILL"/>
</g>

<g transform="matrix( 1, 0, 0, 1, 0,0) ">
<use xlink:href="#ARVO_0_Layer0_0_MEMBER_5_MEMBER_1_FILL"/>
</g>

<g transform="matrix( 1, 0, 0, 1, 0,0) ">
<use xlink:href="#ARVO_0_Layer0_0_MEMBER_5_MEMBER_2_FILL"/>
</g>

<g transform="matrix( 1, 0, 0, 1, 0,0) ">
<use xlink:href="#ARVO_0_Layer0_0_MEMBER_6_FILL"/>
</g>

<g transform="matrix( 1, 0, 0, 1, 0,0) ">
<use xlink:href="#ARVO_0_Layer0_0_MEMBER_6_MEMBER_0_MEMBER_0_FILL"/>
</g>

<g transform="matrix( 1, 0, 0, 1, 0,0) ">
<use xlink:href="#ARVO_0_Layer0_0_MEMBER_6_MEMBER_0_MEMBER_1_FILL"/>
</g>

<g transform="matrix( 1, 0, 0, 1, 0,0) ">
<use xlink:href="#ARVO_0_Layer0_0_MEMBER_6_MEMBER_1_FILL"/>
</g>

<g transform="matrix( 1, 0, 0, 1, 0,0) ">
<use xlink:href="#ARVO_0_Layer0_0_MEMBER_6_MEMBER_2_FILL"/>
</g>

<g transform="matrix( 1, 0, 0, 1, 0,0) ">
<use xlink:href="#ARVO_0_Layer0_0_MEMBER_7_FILL"/>
</g>

<g transform="matrix( 1, 0, 0, 1, 0,0) ">
<use xlink:href="#ARVO_0_Layer0_0_MEMBER_7_MEMBER_0_MEMBER_0_FILL"/>
</g>

<g transform="matrix( 1, 0, 0, 1, 0,0) ">
<use xlink:href="#ARVO_0_Layer0_0_MEMBER_7_MEMBER_0_MEMBER_1_FILL"/>
</g>

<g transform="matrix( 1, 0, 0, 1, 0,0) ">
<use xlink:href="#ARVO_0_Layer0_0_MEMBER_7_MEMBER_1_FILL"/>
</g>

<g transform="matrix( 1, 0, 0, 1, 0,0) ">
<use xlink:href="#ARVO_0_Layer0_0_MEMBER_7_MEMBER_2_FILL"/>
</g>

<g transform="matrix( 1, 0, 0, 1, 0,0) ">
<use xlink:href="#ARVO_0_Layer0_0_MEMBER_8_FILL"/>
</g>

<g transform="matrix( 1, 0, 0, 1, 0,0) ">
<use xlink:href="#ARVO_0_Layer0_0_MEMBER_8_MEMBER_0_MEMBER_0_FILL"/>
</g>

<g transform="matrix( 1, 0, 0, 1, 0,0) ">
<use xlink:href="#ARVO_0_Layer0_0_MEMBER_8_MEMBER_0_MEMBER_1_FILL"/>
</g>

<g transform="matrix( 1, 0, 0, 1, 0,0) ">
<use xlink:href="#ARVO_0_Layer0_0_MEMBER_8_MEMBER_1_FILL"/>
</g>

<g transform="matrix( 1, 0, 0, 1, 0,0) ">
<use xlink:href="#ARVO_0_Layer0_0_MEMBER_8_MEMBER_2_FILL"/>
</g>
</g>
</g>
</svg>
