
<svg xmlns="http://www.w3.org/2000/svg" version="1.1" xmlns:xlink="http://www.w3.org/1999/xlink" preserveAspectRatio="none" x="0px" y="0px" width="50px" height="50px" viewBox="0 0 50 50">
<defs>
<g id="Layer0_0_FILL">
<path fill="#E1A521" stroke="none" d="
M 34.4 1.8
L 25 25 42.7 7.3
Q 39.1 3.7 34.4 1.8
M 25 0
Q 19.9 0 15.25 2
L 25 25 25 0
M 34.75 48.05
L 25 25 25 50
Q 30.1 50 34.75 48.05
M 7.3 42.7
Q 10.95 46.3 15.65 48.2
L 25 25 7.3 42.7
M 0 25
Q 0 30.1 2 34.75
L 25 25 0 25
M 7.3 7.3
Q 3.7 10.95 1.8 15.65
L 25 25 7.3 7.3
M 42.7 42.7
Q 46.3 39.1 48.2 34.4
L 25 25 42.7 42.7
M 50 25
Q 50 19.9 48.05 15.25
L 25 25 50 25 Z"/>
</g>
</defs>

<g transform="matrix( 1, 0, 0, 1, 0,0) ">
<use xlink:href="#Layer0_0_FILL"/>
</g>
</svg>
