<svg xmlns="http://www.w3.org/2000/svg" xmlns:xlink="http://www.w3.org/1999/xlink" preserveAspectRatio="none" width="50" height="50" viewBox="0 0 50 50"><defs><path fill="#E1A521" d="M34.4 1.8L25 25 42.7 7.3q-3.6-3.6-8.3-5.5M25 0q-5.1 0-9.75 2L25 25V0m9.75 48.05L25 25v25q5.1 0 9.75-1.95M7.3 42.7q3.65 3.6 8.35 5.5L25 25 7.3 42.7M0 25q0 5.1 2 9.75L25 25H0M7.3 7.3q-3.6 3.65-5.5 8.35L25 25 7.3 7.3m35.4 35.4q3.6-3.6 5.5-8.3L25 25l17.7 17.7M50 25q0-5.1-1.95-9.75L25 25h25z" id="a"/></defs><use xlink:href="#a"/></svg>