
<svg xmlns="http://www.w3.org/2000/svg" version="1.1" xmlns:xlink="http://www.w3.org/1999/xlink" preserveAspectRatio="none" x="0px" y="0px" width="315px" height="110px" viewBox="0 0 315 110">
<defs>
<linearGradient id="Gradient_1" gradientUnits="userSpaceOnUse" x1="79.7375" y1="207.6625" x2="90.96249999999999" y2="165.8375" spreadMethod="pad">
<stop  offset="2.7450980392156863%" stop-color="#798291"/>

<stop  offset="100%" stop-color="#FFF2F9"/>
</linearGradient>

<linearGradient id="Gradient_2" gradientUnits="userSpaceOnUse" x1="67.575" y1="14.725000000000001" x2="29.224999999999998" y2="80.975" spreadMethod="pad">
<stop  offset="2.7450980392156863%" stop-color="#F0EFF5"/>

<stop  offset="100%" stop-color="#B4B8B7"/>
</linearGradient>

<linearGradient id="Gradient_3" gradientUnits="userSpaceOnUse" x1="100.66250000000001" y1="87.75" x2="151.13750000000002" y2="0.5499999999999972" spreadMethod="pad">
<stop  offset="2.7450980392156863%" stop-color="#172226"/>

<stop  offset="100%" stop-color="#19284F"/>
</linearGradient>

<linearGradient id="Gradient_4" gradientUnits="userSpaceOnUse" x1="276.9375" y1="157.64999999999998" x2="395.9625" y2="126.24999999999999" spreadMethod="pad">
<stop  offset="5.490196078431373%" stop-color="#34217B"/>

<stop  offset="96.07843137254902%" stop-color="#0858B9"/>
</linearGradient>

<linearGradient id="Gradient_5" gradientUnits="userSpaceOnUse" x1="202.98749999999998" y1="213.525" x2="213.7125" y2="173.57500000000002" spreadMethod="pad">
<stop  offset="2.7450980392156863%" stop-color="#798291"/>

<stop  offset="100%" stop-color="#FFF2F9"/>
</linearGradient>

<linearGradient id="Gradient_6" gradientUnits="userSpaceOnUse" x1="242.9375" y1="106" x2="261.2625" y2="95.4" spreadMethod="pad">
<stop  offset="2.7450980392156863%" stop-color="#8B3631"/>

<stop  offset="100%" stop-color="#BF431D"/>
</linearGradient>

<linearGradient id="Gradient_7" gradientUnits="userSpaceOnUse" x1="237.8875" y1="158.375" x2="265.8125" y2="142.22500000000002" spreadMethod="pad">
<stop  offset="2.7450980392156863%" stop-color="#8B3631"/>

<stop  offset="100%" stop-color="#BF431D"/>
</linearGradient>

<linearGradient id="Gradient_8" gradientUnits="userSpaceOnUse" x1="235.6625" y1="126.95" x2="260.0375" y2="112.85000000000001" spreadMethod="pad">
<stop  offset="2.7450980392156863%" stop-color="#8B3631"/>

<stop  offset="100%" stop-color="#BF431D"/>
</linearGradient>

<linearGradient id="Gradient_9" gradientUnits="userSpaceOnUse" x1="205.02499999999998" y1="9.05" x2="168.375" y2="72.35000000000001" spreadMethod="pad">
<stop  offset="2.7450980392156863%" stop-color="#F0EFF5"/>

<stop  offset="100%" stop-color="#B4B8B7"/>
</linearGradient>

<linearGradient id="Gradient_10" gradientUnits="userSpaceOnUse" x1="543.675" y1="231.1125" x2="557.625" y2="249.3875" spreadMethod="pad">
<stop  offset="5.490196078431373%" stop-color="#798291"/>

<stop  offset="100%" stop-color="#FFFFFF"/>
</linearGradient>

<linearGradient id="Gradient_11" gradientUnits="userSpaceOnUse" x1="473.0625" y1="171.0125" x2="500.0375" y2="197.9875" spreadMethod="pad">
<stop  offset="5.490196078431373%" stop-color="#798291"/>

<stop  offset="100%" stop-color="#383636"/>
</linearGradient>

<linearGradient id="Gradient_12" gradientUnits="userSpaceOnUse" x1="473.0125" y1="182.96249999999998" x2="446.4875" y2="156.4375" spreadMethod="pad">
<stop  offset="30.980392156862745%" stop-color="#798291"/>

<stop  offset="100%" stop-color="#FFF2F9"/>
</linearGradient>

<linearGradient id="Gradient_13" gradientUnits="userSpaceOnUse" x1="419.275" y1="195.025" x2="466.025" y2="241.775" spreadMethod="pad">
<stop  offset="5.490196078431373%" stop-color="#798291"/>

<stop  offset="58.431372549019606%" stop-color="#FFFFFF"/>
</linearGradient>

<linearGradient id="Gradient_14" gradientUnits="userSpaceOnUse" x1="453.9" y1="191.15" x2="453.9" y2="72.15" spreadMethod="pad">
<stop  offset="2.7450980392156863%" stop-color="#9D381A"/>

<stop  offset="100%" stop-color="#F53800"/>
</linearGradient>

<linearGradient id="Gradient_15" gradientUnits="userSpaceOnUse" x1="505.2125" y1="11.274999999999999" x2="443.1875" y2="46.825" spreadMethod="pad">
<stop  offset="2.7450980392156863%" stop-color="#F0EFF5"/>

<stop  offset="100%" stop-color="#B4B8B7"/>
</linearGradient>

<linearGradient id="Gradient_16" gradientUnits="userSpaceOnUse" x1="351.0375" y1="68.95" x2="373.1625" y2="-14.950000000000003" spreadMethod="pad">
<stop  offset="2.7450980392156863%" stop-color="#172226"/>

<stop  offset="100%" stop-color="#19284F"/>
</linearGradient>

<linearGradient id="Gradient_17" gradientUnits="userSpaceOnUse" x1="504.26250000000005" y1="189.0125" x2="561.6375" y2="246.3875" spreadMethod="pad">
<stop  offset="5.490196078431373%" stop-color="#798291"/>

<stop  offset="100%" stop-color="#FFFFFF"/>
</linearGradient>

<linearGradient id="Gradient_18" gradientUnits="userSpaceOnUse" x1="526.1625" y1="51.2875" x2="530.3375" y2="44.012499999999996" spreadMethod="pad">
<stop  offset="2.7450980392156863%" stop-color="#172226"/>

<stop  offset="100%" stop-color="#19284F"/>
</linearGradient>

<linearGradient id="Gradient_19" gradientUnits="userSpaceOnUse" x1="531.1624999999999" y1="84.8375" x2="579.9375" y2="-0.3375000000000057" spreadMethod="pad">
<stop  offset="2.7450980392156863%" stop-color="#172226"/>

<stop  offset="100%" stop-color="#19284F"/>
</linearGradient>

<linearGradient id="Gradient_20" gradientUnits="userSpaceOnUse" x1="647.225" y1="64.3875" x2="662.975" y2="36.912499999999994" spreadMethod="pad">
<stop  offset="2.7450980392156863%" stop-color="#172226"/>

<stop  offset="100%" stop-color="#19284F"/>
</linearGradient>

<linearGradient id="Gradient_21" gradientUnits="userSpaceOnUse" x1="680.5124999999999" y1="89.2875" x2="714.5875" y2="29.812499999999996" spreadMethod="pad">
<stop  offset="2.7450980392156863%" stop-color="#172226"/>

<stop  offset="100%" stop-color="#19284F"/>
</linearGradient>

<linearGradient id="Gradient_22" gradientUnits="userSpaceOnUse" x1="722.875" y1="345.225" x2="810.0250000000001" y2="497.275" spreadMethod="pad">
<stop  offset="5.490196078431373%" stop-color="#ECE3C6"/>

<stop  offset="37.64705882352941%" stop-color="#FFFFFF" stop-opacity="0"/>

<stop  offset="66.66666666666667%" stop-color="#FFFFFF" stop-opacity="0"/>

<stop  offset="96.07843137254902%" stop-color="#ECE3C6"/>
</linearGradient>

<radialGradient id="Gradient_23" gradientUnits="userSpaceOnUse" cx="0" cy="0" r="34.89999999999998" fx="0" fy="0" gradientTransform="matrix( 1.0000000000000007, 0, 0, 1.0000000000000007, 621.8,117.5) " spreadMethod="pad">
<stop  offset="0%" stop-color="#FFFFFF"/>

<stop  offset="43.92156862745098%" stop-color="#FA5712"/>

<stop  offset="78.43137254901961%" stop-color="#9C3926"/>
</radialGradient>

<g id="Layer0_0_MEMBER_0_FILL">
<path fill="#312D2A" stroke="none" d="
M 251.5 228.35
Q 251.25 227.95 251.05 227.6 248.85 223.95 245.75 223.95 242.65 223.95 240.45 227.6 238.25 231.25 238.25 236.45 238.25 241.65 240.45 245.3 242.65 248.95 245.75 248.95 248.85 248.95 251.05 245.3 253.25 241.65 253.25 236.45 253.25 233.85 252.7 231.65
L 286.85 208.05
Q 276.7 208 265.95 207.85
L 251.5 228.35
M 573.3 229.95
Q 570.45 229.95 567.9 230.8 562.55 232.45 558.4 237.55 556.95 239.35 555.85 241.35
L 561.7 250.45 571.7 254.45 571.7 260.45 552.7 256.45 552.25 255.8 552.25 255.85
Q 552.25 266.6 558.4 274.15 564.35 281.4 572.55 281.75 572.9 281.75 573.3 281.75 582 281.75 588.15 274.15 594.3 266.6 594.3 255.85 594.3 245.15 588.15 237.55 582 229.95 573.3 229.95 Z"/>

<path fill="#0A347E" stroke="none" d="
M 133.85 177.3
L 133.8 177.3
Q 112.3 195.7 98.7 200.5 136.3 202.9 169.8 204.6 192.95 192.85 204.95 181.1 169.75 179.65 133.85 177.3
M 432.3 191.15
Q 440.1 186.05 439.9 179.45 346.3 184.9 246.9 182.45
L 246.85 182.5
Q 238.25 194.55 215.95 206.55 242.5 207.5 265.95 207.85 276.7 208 286.85 208.05 380.15 208.3 416.6 197.75 426.6 194.85 432.3 191.15 Z"/>

<path fill="url(#Gradient_1)" stroke="none" d="
M 76.45 172.9
L 36.95 196.15
Q 69.1 198.55 98.7 200.5 112.3 195.7 133.8 177.3 105.3 175.4 76.45 172.9 Z"/>

<path fill="#FFFFFF" stroke="none" d="
M 30.45 191.4
L 36.85 196.15
Q 36.9 196.1 36.95 196.15
L 76.45 172.9
Q 105.3 175.4 133.8 177.3
L 133.85 177.3
Q 136.85 170.95 133.9 166.55 102.4 164.95 76.75 162.65
L 30.45 191.4
M 205.8 169.1
Q 208.3 175.1 204.95 181.1 226.05 181.95 246.9 182.45 249.7 176.1 246.85 169.75 244.3 169.75 241.8 169.7 240.85 169.7 239.95 169.7 225 169.5 210.85 169.2 208.3 169.15 205.8 169.1
M 231.8 23.95
Q 232.95 18.3 227.6 14.25
L 192 16.2
Q 196.25 20.1 194.7 25.7
L 231.4 24.3 231.8 23.95
M 544.25 182
Q 543.25 183.75 546.25 184.6
L 570.4 183.4
Q 574.05 181.8 575.45 180.05 576.15 179.05 576.25 178 574.6 171.8 568.25 171.25 565.25 171.65 562.55 172.25 550.3 174.95 544.25 182
M 508.95 17.8
Q 514.15 10.5 512.55 4.2
L 488.9 0
Q 488.35 7.9 485.05 14.5
L 487.4 14.5 508.95 17.8
M 553.7 167.5
Q 559.95 158.2 553.8 154.7 547.6 151.15 541.7 153.5 537.55 155.45 534.25 157.15 519.05 164.95 521.7 167.5 528.95 169.9 535.45 170.4 545.45 171.15 553.7 167.5
M 531.4 124.55
Q 530.55 124.65 529.7 124.75 508.45 135.95 508.7 142.5 513.15 146.7 533.1 143.9 534.35 143.7 535.7 143.5 546.15 139 545.7 131.5 543.4 123.45 531.4 124.55
M 543.25 113
Q 545.95 108.3 545 104.5 541.5 97.95 533.25 100 531.2 100.4 529.3 100.9 515 104.6 507.5 113.55 507.7 117.3 521.75 118.75 526.55 118.8 530.8 118 537.8 116.65 543.25 113
M 528.75 94.65
Q 541 95.15 546.25 92 552.3 87.6 550.5 82.25 545.55 74.75 530.25 80.25 528.85 80.8 527.55 81.3 507.75 89.25 516.5 93.5 523.3 94.45 528.75 94.65
M 567.85 63.85
Q 567.8 63.8 567.7 63.7 564.45 60.5 553.75 61 553.1 61.1 552.45 61.25 539.35 63.65 536.85 67.55 535.75 69.15 536.55 71.05
L 558.75 74.5
Q 569.3 66.7 567.85 63.85
M 698.65 48.1
L 698.7 46.9 698.95 37.25 675.75 33.15 673.8 43.1 698.65 46.9 698.65 48.1
M 762.2 48.5
L 746.05 45.65 746.35 53.85 762.2 56.25 762.2 48.5 Z"/>

<path fill="url(#Gradient_2)" stroke="none" d="
M 57.15 62.5
L 77.15 47.85 93.1 29.55 40.3 31.55
Q 19.6 48.35 3.65 66.2 31.65 64.2 57.15 62.5 Z"/>

<path fill="url(#Gradient_3)" stroke="none" d="
M 77.15 47.85
L 57.15 62.5
Q 101.65 59.5 141.95 57.05
L 194.7 25.7 93.1 29.55 77.15 47.85 Z"/>

<path fill="#FFFFE8" stroke="none" d="
M 93.1 29.55
Q 93.2 25.65 89.9 21.8
L 39.8 24.5
Q 15 35.7 0 60.2
L 3.65 66.2
Q 19.6 48.35 40.3 31.55
L 93.1 29.55 Z"/>

<path fill="url(#Gradient_4)" stroke="none" d="
M 293.25 168.55
L 293.15 170.05
Q 294.95 170.05 296.7 170.05 296.8 169.6 296.9 169.15 296.85 168.5 296.8 168.2 296.6 167.9 296.45 167.85 296.1 167.7 295.85 167.9 295.5 167.85 295.05 168.1
L 293.25 168.55
M 312.35 164.75
Q 312.05 163.7 311.65 163.35 311.1 162.85 310.7 162.85 310.1 162.7 309.7 162.85 309.1 163 308.6 163.45 308.05 163.85 307.6 164.6 307.05 165.25 306.8 166.35 306.4 167.4 306.4 168.9 306.35 169.5 306.35 170.05 309.15 170 312 170 312.05 169.85 312.1 169.75 312.45 168.6 312.55 167.15 312.6 165.6 312.35 164.75
M 259.4 99.5
Q 258.95 105.3 258.9 111 258.8 115.55 259 120.05 259.05 121.25 259.1 122.5 259.35 127.3 259.9 132.05 259.95 132.75 260.05 133.5 260.55 137.45 261.2 141.35 262.05 146.45 263.25 151.5 264.45 156.6 266 161.6 267.25 165.75 268.8 169.95 272.75 169.95 276.75 170
L 281.35 101.45
Q 281.1 100.95 280.85 100.5 270.7 91.6 260.5 94 259.6 97 259.4 99.5
M 330.05 166.45
Q 329.75 165.9 329.25 165.75 328.7 165.5 328 165.8
L 325 166.6 324.95 169.95
Q 327.7 169.95 330.5 169.95 330.45 169.55 330.45 169.1 330.35 168.1 330.35 167.5 330.25 166.85 330.05 166.45
M 329.75 160.6
Q 330.1 160.2 330.4 159.8 330.6 159.25 330.65 158.65 330.65 157.6 330.05 157.25 329.4 157 327.85 157.5
L 325.3 158.25 325.15 162.25 328.05 161.4
Q 328.5 161.2 329 161.1 329.35 160.85 329.75 160.6
M 363.75 133.45
L 347.05 123.25 324.85 139.5
Q 301.7 156.8 294.15 139 293.1 129.45 289.35 119
L 283.55 121.95 280.15 170
Q 284.65 170 289.25 170.05
L 289.55 165.55 296.3 163.25
Q 297.55 162.8 298.5 163.1 299.4 163.2 300.05 164.05 300.5 164.7 300.8 165.7 301 166.65 300.95 167.7 300.85 168.95 300.55 170.05 301.2 170.05 301.85 170.05 301.95 168 302.6 166.3 303.2 164.35 304.25 162.8 305.2 161.15 306.75 160.1 308.2 158.85 309.95 158.3 311.65 157.65 313.1 157.9 314.45 158.15 315.6 159.1 316.55 160.1 317.15 161.8 317.65 163.45 317.6 165.7 317.45 167.85 316.8 170 318.15 169.95 319.55 170
L 320.1 155.3 330.5 151.85
Q 333.1 150.95 334.9 151.95 336.6 152.9 336.6 155.8 336.55 157.5 335.8 159.2 334.95 160.85 333.55 161.85 334.7 162 335.5 163.15 336.2 164.3 336.35 166.3 336.3 166.55 336.35 167.1 336.35 168.35 336.45 169.35 336.5 169.65 336.55 169.9
L 343.35 169.85 343.35 153 337.65 154.85 337.75 149.5 356.3 143.3 356.3 145.6 363.75 133.45
M 365.45 130.5
L 371.65 121.85
Q 366 117.65 360.35 113.55
L 350.3 120.9 365.45 130.5
M 374.1 118.4
Q 371.2 116.85 370.4 114.9 368.4 110.1 370.85 105.2
L 361.9 112.4 372.7 120.4 374.1 118.4
M 288.25 116.1
Q 286.6 111.9 284.55 107.6
L 283.8 118.35 288.25 116.1 Z"/>

<path fill="#000000" stroke="none" d="
M 293.15 170.05
L 293.25 168.55 295.05 168.1
Q 295.5 167.85 295.85 167.9 296.1 167.7 296.45 167.85 296.6 167.9 296.8 168.2 296.85 168.5 296.9 169.15 296.8 169.6 296.7 170.05 296.7 170.15 296.65 170.25 296.6 170.4 296.5 170.5
L 300.4 170.5
Q 300.5 170.25 300.55 170.05 300.85 168.95 300.95 167.7 301 166.65 300.8 165.7 300.5 164.7 300.05 164.05 299.4 163.2 298.5 163.1 297.55 162.8 296.3 163.25
L 289.55 165.55 289.25 170.05 289.2 170.5 293.15 170.5 293.15 170.05
M 309.95 158.3
Q 308.2 158.85 306.75 160.1 305.2 161.15 304.25 162.8 303.2 164.35 302.6 166.3 301.95 168 301.85 170.05 301.85 170.15 301.85 170.25 301.85 170.4 301.85 170.5
L 306.4 170.5
Q 306.35 170.25 306.35 170.05 306.35 169.5 306.4 168.9 306.4 167.4 306.8 166.35 307.05 165.25 307.6 164.6 308.05 163.85 308.6 163.45 309.1 163 309.7 162.85 310.1 162.7 310.7 162.85 311.1 162.85 311.65 163.35 312.05 163.7 312.35 164.75 312.6 165.6 312.55 167.15 312.45 168.6 312.1 169.75 312.05 169.85 312 170 311.9 170.25 311.8 170.5
L 316.6 170.5
Q 316.7 170.25 316.8 170 317.45 167.85 317.6 165.7 317.65 163.45 317.15 161.8 316.55 160.1 315.6 159.1 314.45 158.15 313.1 157.9 311.65 157.65 309.95 158.3
M 335.8 159.2
Q 336.55 157.5 336.6 155.8 336.6 152.9 334.9 151.95 333.1 150.95 330.5 151.85
L 320.1 155.3 319.55 170 319.55 170.5 324.95 170.5 324.95 169.95 325 166.6 328 165.8
Q 328.7 165.5 329.25 165.75 329.75 165.9 330.05 166.45 330.25 166.85 330.35 167.5 330.35 168.1 330.45 169.1 330.45 169.55 330.5 169.95 330.5 170.2 330.55 170.5
L 336.7 170.5
Q 336.6 170.25 336.55 169.9 336.5 169.65 336.45 169.35 336.35 168.35 336.35 167.1 336.3 166.55 336.35 166.3 336.2 164.3 335.5 163.15 334.7 162 333.55 161.85 334.95 160.85 335.8 159.2
M 330.4 159.8
Q 330.1 160.2 329.75 160.6 329.35 160.85 329 161.1 328.5 161.2 328.05 161.4
L 325.15 162.25 325.3 158.25 327.85 157.5
Q 329.4 157 330.05 157.25 330.65 157.6 330.65 158.65 330.6 159.25 330.4 159.8
M 356.3 145.6
L 356.3 143.3 337.75 149.5 337.65 154.85 343.35 153 343.35 169.85 343.45 169.85 349.75 167.6 349.9 151 356.3 149.05 356.3 146.3 356.3 145.6 Z"/>

<path fill="url(#Gradient_5)" stroke="none" d="
M 246.85 182.5
L 246.9 182.45
Q 226.05 181.95 204.95 181.1 192.95 192.85 169.8 204.6 193.95 205.75 215.95 206.55 238.25 194.55 246.85 182.5 Z"/>

<path fill="url(#Gradient_6)" stroke="none" d="
M 243.1 106.25
L 259.4 99.5
Q 259.6 97 260.5 94 251.8 96.05 243.1 106.25 Z"/>

<path fill="url(#Gradient_7)" stroke="none" d="
M 239.05 156.05
Q 239.55 159.2 240.25 162.5
L 266 161.6
Q 264.45 156.6 263.25 151.5
L 239.05 156.05
M 237.05 139.4
Q 237.1 140.15 237.15 140.9 237.45 144.65 237.95 148.65
L 261.2 141.35
Q 260.55 137.45 260.05 133.5 259.95 132.75 259.9 132.05
L 237.05 139.4 Z"/>

<path fill="#FFFEF8" stroke="none" d="
M 237.95 148.65
Q 238.4 152.25 239.05 156.05
L 263.25 151.5
Q 262.05 146.45 261.2 141.35
L 237.95 148.65
M 240.25 162.5
Q 240.95 166 241.8 169.7 244.3 169.75 246.85 169.75 257.6 169.85 268.8 169.95 267.25 165.75 266 161.6
L 240.25 162.5
M 239.35 111
Q 238.25 114.85 237.65 119.2
L 258.9 111
Q 258.95 105.3 259.4 99.5
L 243.1 106.25
Q 241.25 108.45 239.35 111
M 236.8 131.5
Q 236.8 135.3 237.05 139.4
L 259.9 132.05
Q 259.35 127.3 259.1 122.5 259.05 121.25 259 120.05
L 236.85 129
Q 236.8 130.25 236.8 131.5 Z"/>

<path fill="#0557A3" stroke="none" d="
M 204.95 181.1
Q 208.3 175.1 205.8 169.1 166.7 168.25 133.9 166.55 136.85 170.95 133.85 177.3 169.75 179.65 204.95 181.1
M 324.95 169.95
L 324.95 170.5 319.55 170.5 319.55 170
Q 318.15 169.95 316.8 170 316.7 170.25 316.6 170.5
L 311.8 170.5
Q 311.9 170.25 312 170 309.15 170 306.35 170.05 306.35 170.25 306.4 170.5
L 301.85 170.5
Q 301.85 170.4 301.85 170.25 301.85 170.15 301.85 170.05 301.2 170.05 300.55 170.05 300.5 170.25 300.4 170.5
L 296.5 170.5
Q 296.6 170.4 296.65 170.25 296.7 170.15 296.7 170.05 294.95 170.05 293.15 170.05
L 293.15 170.5 289.2 170.5 289.25 170.05
Q 284.65 170 280.15 170 278.45 170 276.75 170 272.75 169.95 268.8 169.95 257.6 169.85 246.85 169.75 249.7 176.1 246.9 182.45 346.3 184.9 439.9 179.45
L 427.95 162 423.8 162 416.8 163 413 163.55
Q 391.85 167.85 366.05 168.4
L 343.45 169.85 343.35 169.85 336.55 169.9
Q 336.6 170.25 336.7 170.5
L 330.55 170.5
Q 330.5 170.2 330.5 169.95 327.7 169.95 324.95 169.95 Z"/>

<path fill="url(#Gradient_8)" stroke="none" d="
M 237.65 119.2
Q 237 123.85 236.85 129
L 259 120.05
Q 258.8 115.55 258.9 111
L 237.65 119.2 Z"/>

<path fill="url(#Gradient_9)" stroke="none" d="
M 198.6 53.7
L 198.2 52.85 231.4 24.3 194.7 25.7 141.95 57.05
Q 171.4 55.2 198.6 53.7 Z"/>

<path fill="#14558F" stroke="none" d="
M 194.7 25.7
Q 196.25 20.1 192 16.2
L 89.9 21.8
Q 93.2 25.65 93.1 29.55
L 194.7 25.7 Z"/>

<path fill="#0954A5" stroke="none" d="
M 485.05 14.5
Q 488.35 7.9 488.9 0
L 227.6 14.25
Q 232.95 18.3 231.8 23.95
L 231.4 24.3 243.35 23.85 485.05 14.5 Z"/>

<path fill="url(#Gradient_10)" stroke="none" d="
M 571.7 260.45
L 571.7 254.45 561.7 250.45 555.85 241.35
Q 552.25 247.65 552.25 255.8
L 552.7 256.45 571.7 260.45 Z"/>

<path fill="#232323" stroke="none" d="
M 406 286.3
Q 413.3 294.3 423.35 294.3 423.9 294.3 424.45 294.3 430.6 292.05 433.35 284.3 436.3 275.95 433.6 265.95 430.95 255.95 424.2 250.15 417.4 244.4 410.45 246.3 403.55 248.15 400.55 256.5 397.6 264.9 400.25 274.9 401.6 279.85 403.9 283.75 404.85 285.05 406 286.3
M 410.45 254.75
Q 413.9 253.8 417.4 257.4 421.05 261 422.65 267 424.25 273 422.9 277.9 421.65 282.8 418.2 283.75 414.7 284.65 411.1 281.05 407.5 277.45 405.9 271.45 404.3 265.45 405.6 260.55 406.95 255.65 410.45 254.75 Z"/>

<path fill="#8A8987" stroke="none" d="
M 417.4 257.4
Q 413.9 253.8 410.45 254.75 406.95 255.65 405.6 260.55 404.3 265.45 405.9 271.45 407.5 277.45 411.1 281.05 414.7 284.65 418.2 283.75 421.65 282.8 422.9 277.9 424.25 273 422.65 267 421.05 261 417.4 257.4 Z"/>

<path fill="#3F3B38" stroke="none" d="
M 422 239.75
Q 420.25 239.75 418.65 240 410.75 241.15 405.05 247.75 398.15 255.75 398.45 267.05 398.65 276.55 403.9 283.75 401.6 279.85 400.25 274.9 397.6 264.9 400.55 256.5 403.55 248.15 410.45 246.3 417.4 244.4 424.2 250.15 430.95 255.95 433.6 265.95 436.3 275.95 433.35 284.3 430.6 292.05 424.45 294.3 433.75 293.85 440.3 286.3 447.2 278.3 446.95 267.05 446.85 264.1 446.35 261.4 444.75 253.65 439.35 247.75 432.05 239.75 422 239.75 Z"/>

<path fill="url(#Gradient_11)" stroke="none" d="
M 484.95 170.55
Q 454.1 178.4 467.05 188.9
L 512 186.05
Q 499.3 182.05 484.95 170.55 Z"/>

<path fill="url(#Gradient_12)" stroke="none" d="
M 452.1 185.15
Q 455.4 187.45 459.15 189.4
L 467.05 188.9
Q 454.1 178.4 484.95 170.55 480.7 167.15 476.3 163.1 473.7 160.65 471 158 431.55 161.45 437 169.75 442.95 178.75 452.1 185.15 Z"/>

<path fill="url(#Gradient_13)" stroke="none" d="
M 432.3 191.15
Q 426.6 194.85 416.6 197.75
L 418.65 240
Q 420.25 239.75 422 239.75 432.05 239.75 439.35 247.75 444.75 253.65 446.35 261.4
L 455.7 250.4 456.6 237.65 456.2 237.35 456.65 236.85 459.45 196.5 459.15 189.4 432.3 191.15 Z"/>

<path fill="url(#Gradient_14)" stroke="none" d="
M 415.2 155.15
L 407.8 157.3 416.8 163 423.8 162
Q 419.5 158.55 415.2 155.15
M 404.45 158.3
L 366.05 168.4
Q 391.85 167.85 413 163.55
L 404.45 158.3
M 356.3 145.6
L 356.3 146.3 374.55 140.05 363.75 133.45 356.3 145.6
M 365.45 130.5
L 378.4 138.7 389.2 135
Q 380.5 128.4 371.65 121.85
L 365.45 130.5
M 522 72.45
L 505.8 73.75 501.3 74.1 489.2 75.05 481.6 75.65 460.3 77.35
Q 455.05 76.5 451.35 82.5 447.8 95.45 438.35 104.5 429 111.9 419.9 116.25 417.6 117.35 415.35 118.25 415.25 118.25 415.15 118.3 412.65 119.3 410.15 120.05 398.1 123.65 386.4 121.95 378.2 120.6 374.1 118.4
L 372.7 120.4 391.3 134.3 448.75 114.5
Q 469.15 107.45 473.25 118.5 476.6 130.35 468.75 139
L 418.15 154.3 427.95 162 439.9 179.45
Q 440.1 186.05 432.3 191.15
L 459.15 189.4
Q 455.4 187.45 452.1 185.15 442.95 178.75 437 169.75 431.55 161.45 471 158 473.7 160.65 476.3 163.1 480.7 167.15 484.95 170.55 499.3 182.05 512 186.05
L 535.1 184.55
Q 523.55 180.8 514.55 168.7 501.55 151.1 501.55 126.3 501.55 101.45 514.55 83.9 519.75 76.9 525.85 72.7
L 526 72.15 522 72.45 Z"/>

<path fill="#434F45" stroke="none" d="
M 408.55 110.5
Q 409.3 110.75 410.05 111
L 408.6 108.85 408.55 110.5
M 419.6 97.75
L 414.15 97.65 414.95 110.8
Q 417.3 109.95 419.75 108.9 423.25 107.4 426.9 105.55 432.3 102.25 436 96.95
L 426.85 97.9 419.6 97.75 Z"/>

<path fill="#F5F3FF" stroke="none" d="
M 468.75 139
Q 476.6 130.35 473.25 118.5 469.15 107.45 448.75 114.5
L 391.3 134.3 418.15 154.3 468.75 139
M 349.9 151
L 349.75 167.6 343.45 169.85 366.05 168.4 404.45 158.3 374.55 140.05 356.3 146.3 356.3 149.05 349.9 151
M 389.2 135
L 378.4 138.7 407.8 157.3 415.2 155.15
Q 402.4 145.05 389.2 135 Z"/>

<path fill="#DD9146" stroke="none" d="
M 396.3 99.55
Q 397.8 102.5 400.25 105.05
L 395.65 98.1
Q 395.95 98.85 396.3 99.55
M 416 67.95
Q 412.35 67.95 409.15 69
L 408.95 84.5
Q 414.5 82.45 419.35 81.85 423.25 81.3 426.75 81.75 432.95 82.55 436.65 85.35 436.75 80.4 432.7 75.7 432.1 75 431.45 74.35 426.2 69.1 419.1 68.15 417.6 67.95 416 67.95
M 400.5 74.35
Q 394.75 80.15 394.15 88.1
L 404.35 102.75 405.65 70.5
Q 402.9 72 400.5 74.35 Z"/>

<path fill="#4A4353" stroke="none" d="
M 403.85 113.9
L 404 110.75 404.1 108.25
Q 402.2 107 400.5 105.3 400.4 105.2 400.25 105.05 397.8 102.5 396.3 99.55
L 390.2 99.55 389.35 99.55
Q 371.25 106.55 379.75 113.1 390.9 116.4 403.85 113.9 Z"/>

<path fill="#1C1C24" stroke="none" d="
M 445.4 84.05
Q 442.3 91.95 436 96.95 432.3 102.25 426.9 105.55 423.25 107.4 419.75 108.9 417.3 109.95 414.95 110.8 413.85 111.2 412.75 111.55 411.8 111.85 410.85 112.15 409.65 112.5 408.5 112.8 407.15 113.15 405.85 113.5 404.85 113.7 403.85 113.9 390.9 116.4 379.75 113.1 371.25 106.55 389.35 99.55
L 390.2 99.55
Q 387.7 94.6 377.85 98.8 372.45 102.7 370.85 105.2 368.4 110.1 370.4 114.9 371.2 116.85 374.1 118.4 378.2 120.6 386.4 121.95 398.1 123.65 410.15 120.05 412.65 119.3 415.15 118.3 415.25 118.25 415.35 118.25 417.6 117.35 419.9 116.25 429 111.9 438.35 104.5 447.8 95.45 451.35 82.5 455.05 76.5 460.3 77.35 450.35 72.2 446.65 80.3 445.9 81.9 445.4 84.05 Z"/>

<path fill="#40281E" stroke="none" d="
M 436 96.95
L 436.65 85.35
Q 432.95 82.55 426.75 81.75
L 426.85 97.9 436 96.95
M 408.95 84.5
L 408.75 97.5 414.15 97.65 419.6 97.75 419.35 81.85
Q 414.5 82.45 408.95 84.5 Z"/>

<path fill="#6B7E6E" stroke="none" d="
M 414.15 97.65
L 408.75 97.5 408.6 108.85 410.05 111
Q 411.35 111.35 412.75 111.55 413.85 111.2 414.95 110.8
L 414.15 97.65 Z"/>

<path fill="#915A43" stroke="none" d="
M 419.35 81.85
L 419.6 97.75 426.85 97.9 426.75 81.75
Q 423.25 81.3 419.35 81.85 Z"/>

<path fill="url(#Gradient_15)" stroke="none" d="
M 441.25 45.15
L 437.75 42.5 432.75 45.1 441.25 45.15
M 508.95 17.8
L 487.4 14.5 485.05 14.5
Q 482.9 14.85 482.75 15
L 439.95 41.15 445 44.95
Q 454.05 45 462.05 45.2
L 508.95 17.8 Z"/>

<path fill="url(#Gradient_16)" stroke="none" d="
M 482.75 15
Q 482.9 14.85 485.05 14.5
L 243.35 23.85 277.6 49.55
Q 281.25 49.4 284.85 49.2 286.75 49.1 288.6 49.05 327.15 47.3 359.45 46.3 361.9 46.2 364.35 46.15 387.1 45.45 406.7 45.15
L 407.8 17.8 421.35 45
Q 424.3 44.95 427.15 44.95
L 437.75 39.5 439.95 41.15 482.75 15
M 231.7 51.85
Q 236.1 51.6 240.45 51.4 254.45 50.65 267.75 50.05
L 240.9 30.75
Q 232.7 41.3 231.7 51.85
M 409.75 29
L 409.55 45.15 417.65 45.05 409.75 29 Z"/>

<path fill="#1E1D1B" stroke="none" d="
M 503.75 189.5
L 495 190.9 456.65 236.85 456.6 237.65 462.7 242.45 497.7 205.45 533.7 238.45 540.35 238.45 543.7 238.45 529.9 224.25 510.7 201.5 503.75 189.5 Z"/>

<path fill="url(#Gradient_17)" stroke="none" d="
M 520.85 186.8
L 503.75 189.5 510.7 201.5 529.9 224.25 543.7 238.45 540.35 238.45 552.25 255.8
Q 552.25 247.65 555.85 241.35
L 520.85 186.8 Z"/>

<path fill="#4B4D3F" stroke="none" d="
M 503.75 189.5
L 520.85 186.8 520.15 185.7 512 186.05 467.05 188.9 459.15 189.4 459.45 196.5 495 190.9 503.75 189.5 Z"/>

<path fill="url(#Gradient_18)" stroke="none" d="
M 524.85 50.55
L 528.25 50.9 530.25 44 524.85 50.55 Z"/>

<path fill="#182120" stroke="none" d="
M 505.8 73.75
L 524.85 50.55 530.25 44 528.25 50.9 522 72.45 526 72.15 531.2 51.25 535.75 33 521.35 50.2 501.3 74.1 505.8 73.75
M 512.25 34
L 509.05 33.85 499.85 47.9 483 73.55 445 44.95 439.95 41.15 437.75 39.5 427.15 44.95 422.5 47.35 421.35 45 407.8 17.8 406.7 45.15 406.25 55.65 380.45 68.85 364.35 46.15
Q 361.9 46.2 359.45 46.3
L 376.65 70.8 334.85 92.2 288.05 57.35 288.6 49.05
Q 286.75 49.1 284.85 49.2
L 284.5 54.7 277.6 49.55 243.35 23.85 231.4 24.3 198.2 52.85 198.6 53.7
Q 217.75 66.5 221.3 100.05 221.35 100.3 221.35 100.55 228.35 161.5 210.85 169.2 225 169.5 239.95 169.7 226.7 126.3 231.35 52.55
L 282.55 83.85 281.35 101.45 276.75 170
Q 278.45 170 280.15 170
L 283.55 121.95 289.35 119 316.85 104.8 347.05 123.25 363.75 133.45 374.55 140.05 404.45 158.3 413 163.55 416.8 163 407.8 157.3 378.4 138.7 365.45 130.5 350.3 120.9 321.25 102.55 335.05 95.45
Q 347.85 104.45 360.35 113.55 366 117.65 371.65 121.85 380.5 128.4 389.2 135 402.4 145.05 415.2 155.15 419.5 158.55 423.8 162
L 427.95 162 418.15 154.3 391.3 134.3 372.7 120.4 361.9 112.4 337.5 94.2 378.3 73.15 395.5 97.65 395.5 97.7
Q 395.55 97.9 395.65 98.1
L 400.25 105.05
Q 400.4 105.2 400.5 105.3 402.2 107 404.1 108.25
L 404 110.75 405.85 113.5
Q 407.15 113.15 408.5 112.8 409.65 112.5 410.85 112.15
L 410.05 111
Q 409.3 110.75 408.55 110.5
L 408.6 108.85 408.75 97.5 408.95 84.5 409.15 69 409.35 57.15 420.7 51.3 432.7 75.7
Q 436.75 80.4 436.65 85.35 437.9 88.05 437.9 89.85 437.9 94.3 436 96.95 442.3 91.95 445.4 84.05 445.9 81.9 446.65 80.3
L 440.5 83.45 423.7 49.75 432.75 45.1 437.75 42.5 441.25 45.15 442.6 45.15 441.25 45.15 481.6 75.65 489.2 75.05 504.2 48.35 512.25 34
M 409.55 45.15
L 409.75 29 417.65 45.05 419.5 48.85 409.4 54.05 409.55 45.15
M 406.15 58.8
L 405.65 70.5 404.35 102.75 394.15 88.1 382.15 71.2 406.15 58.8
M 286.4 80.5
L 287.65 63.05
Q 310.5 78.2 332.3 93.5
L 318.3 100.7 286.4 80.5
M 267.75 50.05
Q 276 55.35 284.1 60.7
L 282.9 78.3 240.45 51.4
Q 236.1 51.6 231.7 51.85 232.7 41.3 240.9 30.75
L 267.75 50.05
M 288.25 116.1
L 283.8 118.35 284.55 107.6 286.05 86 313.85 102.95 288.25 116.1 Z"/>

<path fill="url(#Gradient_19)" stroke="none" d="
M 612.65 60.3
L 612.65 59.95 649.15 39.35 508.95 17.8 462.05 45.2
Q 472.55 45.45 481.35 45.9
L 499.85 47.9 509.05 33.85 512.25 34 504.2 48.35 521.35 50.2 535.75 33 531.2 51.25 612.65 60.3 Z"/>

<path fill="#FD612E" stroke="none" d="
M 567.7 63.7
Q 567.8 63.8 567.85 63.85 569.3 66.7 558.75 74.5
L 536.55 71.05
Q 535.75 69.15 536.85 67.55 531.5 68.95 526.75 72.05
L 526.75 72.1
Q 526.3 72.35 525.85 72.7 519.75 76.9 514.55 83.9 501.55 101.45 501.55 126.3 501.55 151.1 514.55 168.7 523.55 180.8 535.1 184.55 535.85 184.8 536.6 185
L 546.25 184.6
Q 543.25 183.75 544.25 182 550.3 174.95 562.55 172.25 565.25 171.65 568.25 171.25 574.6 171.8 576.25 178 576.15 179.05 575.45 180.05
L 598.45 175.55
Q 596.05 175.85 593.55 175.85 583.85 175.85 575.65 171.2 568.25 167 562.05 159 561.65 158.45 561.25 157.95 549.05 141.4 549.05 118.35 549.05 102.3 555 89.4 557.85 83.15 562.05 77.7 564.15 75 566.35 72.75 575.1 63.85 586 61.6
L 567.7 63.7
M 546.25 92
Q 541 95.15 528.75 94.65 523.3 94.45 516.5 93.5 507.75 89.25 527.55 81.3 528.85 80.8 530.25 80.25 545.55 74.75 550.5 82.25 552.3 87.6 546.25 92
M 545 104.5
Q 545.95 108.3 543.25 113 537.8 116.65 530.8 118 526.55 118.8 521.75 118.75 507.7 117.3 507.5 113.55 515 104.6 529.3 100.9 531.2 100.4 533.25 100 541.5 97.95 545 104.5
M 529.7 124.75
Q 530.55 124.65 531.4 124.55 543.4 123.45 545.7 131.5 546.15 139 535.7 143.5 534.35 143.7 533.1 143.9 513.15 146.7 508.7 142.5 508.45 135.95 529.7 124.75
M 553.8 154.7
Q 559.95 158.2 553.7 167.5 545.45 171.15 535.45 170.4 528.95 169.9 521.7 167.5 519.05 164.95 534.25 157.15 537.55 155.45 541.7 153.5 547.6 151.15 553.8 154.7 Z"/>

<path fill="#E94500" stroke="none" d="
M 593.55 60.85
Q 589.65 60.85 586 61.6 575.1 63.85 566.35 72.75 564.15 75 562.05 77.7 557.85 83.15 555 89.4 549.05 102.3 549.05 118.35 549.05 141.4 561.25 157.95 561.65 158.45 562.05 159 568.25 167 575.65 171.2 583.85 175.85 593.55 175.85 596.05 175.85 598.45 175.55 598.85 175.5 599.2 175.45 602.4 174.95 605.4 173.95 605.5 173.9 605.6 173.85 609.55 172.45 613.2 170.15 618.95 166.45 623.95 160.4 624.5 159.7 625.05 159 638.1 142.15 638.1 118.35 638.1 98.9 629.4 84.15 627.45 80.8 625.05 77.7 619.35 70.35 612.65 66.25 603.95 60.85 593.55 60.85 Z"/>

<path fill="#949BA1" stroke="none" d="
M 756.2 163.5
L 733.35 164.6 699.1 175.85 730.7 174 756.2 163.5 Z"/>

<path fill="#F8FFFF" stroke="none" d="
M 731.7 157.45
L 733.7 164.45 733.35 164.6 756.2 163.5 756.2 156.5 731.7 157.45 Z"/>

<path fill="#476B9B" stroke="none" d="
M 653.75 168.3
L 654.7 160.4 623.95 160.4
Q 618.95 166.45 613.2 170.15
L 653.75 168.3 Z"/>

<path fill="#375FA4" stroke="none" d="
M 653.7 168.45
L 653.75 168.3 613.2 170.15
Q 609.55 172.45 605.6 173.85 605.5 173.9 605.4 173.95 602.4 174.95 599.2 175.45 598.85 175.5 598.45 175.55
L 575.45 180.05
Q 574.05 181.8 570.4 183.4
L 628.95 179.95 653.7 168.45 Z"/>

<path fill="#08529D" stroke="none" d="
M 685.85 159.2
L 686.6 166.3 686 166.8 733.35 164.6 733.7 164.45 731.7 157.45 685.85 159.2 Z"/>

<path fill="#FFFCFF" stroke="none" d="
M 686.6 166.3
L 685.85 159.2 654.7 160.4 653.75 168.3 686 166.8 686.6 166.3 Z"/>

<path fill="#163A84" stroke="none" d="
M 686 166.8
L 672.35 177.45 699.1 175.85 733.35 164.6 686 166.8 Z"/>

<path fill="#B9B0AB" stroke="none" d="
M 672.35 177.45
L 686 166.8 653.75 168.3 653.7 168.45 628.95 179.95 672.35 177.45 Z"/>

<path fill="#162216" stroke="none" d="
M 650.8 39.6
L 649.15 39.35 612.65 59.95 612.65 60.3 612.65 66.25
Q 619.35 70.35 625.05 77.7 627.45 80.8 629.4 84.15 629.15 73.4 634.1 62.65 635.1 60.45 636.4 58.2 641.6 48.9 650.8 39.6 Z"/>

<path fill="#0C5D9F" stroke="none" d="
M 673.8 43.1
L 675.75 33.15 512.55 4.2
Q 514.15 10.5 508.95 17.8
L 649.15 39.35 650.8 39.6 673.8 43.1
M 746.35 53.85
L 746.05 45.65 698.95 37.25 698.7 46.9 746.35 53.85 Z"/>

<path fill="url(#Gradient_20)" stroke="none" d="
M 673.75 43.15
L 673.8 43.1 650.8 39.6
Q 641.6 48.9 636.4 58.2
L 673.75 43.15 Z"/>

<path fill="#737C79" stroke="none" d="
M 673.8 43.1
L 673.75 43.15 636.4 58.2
Q 635.1 60.45 634.1 62.65
L 652 64.65 698.65 46.9 673.8 43.1 Z"/>

<path fill="url(#Gradient_21)" stroke="none" d="
M 698.7 46.9
L 698.65 48.1 698.65 46.9 652 64.65 695.45 69.5 746.35 53.85 698.7 46.9 Z"/>

<path fill="#616163" stroke="none" d="
M 762.2 56.25
L 746.35 53.85 695.45 69.5 713.95 71.25 762.2 56.25 Z"/>
</g>

<g id="Layer0_0_MEMBER_0_MEMBER_0_FILL">
<path fill="url(#Gradient_22)" stroke="none" d="
M 766.45 327.5
Q 739.95 327.5 721.2 354.95 702.45 382.4 702.45 421.25 702.45 460.1 721.2 487.55 739.95 515 766.45 515 792.95 515 811.7 487.55 830.45 460.1 830.45 421.25 830.45 382.4 811.7 354.95 792.95 327.5 766.45 327.5 Z"/>
</g>

<g id="Layer0_0_MEMBER_0_MEMBER_1_FILL">
<path fill="url(#Gradient_23)" stroke="none" d="
M 621.5 135.1
Q 628.35 127.7 628.3 117.25 628.25 106.8 621.45 99.4 614.65 92 606.8 92 598.95 92 593.35 99.4 587.8 106.8 587.8 117.25 587.8 127.7 593.35 135.1 598.95 142.5 606.8 142.5 614.65 142.5 621.5 135.1 Z"/>
</g>

<path id="Layer0_0_1_STROKES" stroke="#666666" stroke-width="1" stroke-linejoin="round" stroke-linecap="round" fill="none" d="
M 145 59.5
L 142.6 59.5 138.675 60.75 145 63.5
M -1.5 -0.7
L 150.5 57 142.6 59.5 135.8 59.5 138.675 60.75 -1.5 109.975
M 150.5 57
L -1.5 53"/>

<path id="Layer0_0_MEMBER_0_1_STROKES" stroke="#E0E8D9" stroke-opacity="0.9490196078431372" stroke-width="1" stroke-linejoin="round" stroke-linecap="round" fill="none" d="
M 200.47674942016602 16.875446319580078
L 200.95854797363282 16.875446319580078
M 197.4432029724121 16.85675811767578
L 200.47674942016602 16.875446319580078
M 198.83506546020507 31.900760650634762
L 198.60308837890625 36.23642349243164
M 170.15912933349608 54.4200439453125
L 170.15912933349608 53.56038665771485 163.53886032104492 55.877723693847656 163.50317153930663 57.87736129760742 165.53743209838868 57.18589782714844 165.53743209838868 63.483821868896484 165.57312088012696 63.483821868896484 167.82151412963867 62.642852783203125 167.8750473022461 56.43836975097656 170.15912933349608 55.70952987670899 170.15912933349608 54.68167877197266 170.15912933349608 54.4200439453125 Z
M 146.33686752319335 61.87663650512696
L 146.22980117797852 63.55857467651368
M 148.74586029052733 61.0169792175293
L 146.33686752319335 61.87663650512696
M 149.53101348876953 60.960914611816406
Q 149.19197006225585 60.84878540039063 148.74586029052733 61.0169792175293
M 150.08418960571288 61.315990447998054
Q 149.85221252441406 60.99829101562499 149.53101348876953 60.960914611816406
M 150.35185546875 61.93270111083984
Q 150.24478912353516 61.5589370727539 150.08418960571288 61.315990447998054
M 150.40538864135743 62.68022918701171
Q 150.42323303222656 62.287776947021484 150.35185546875 61.93270111083984
M 150.26263351440429 63.55857467651368
Q 150.36969985961915 63.14743423461913 150.40538864135743 62.68022918701171
M 150.99425354003907 62.15695953369141
Q 150.76227645874025 62.7923583984375 150.72658767700196 63.55857467651368
M 151.5831184387207 60.84878540039063
Q 151.20838623046876 61.42811965942383 150.99425354003907 62.15695953369141
M 152.47533798217773 59.839622497558594
Q 151.9221618652344 60.23207473754883 151.5831184387207 60.84878540039063
M 153.61737899780275 59.16684722900391
Q 152.99282531738282 59.37241744995117 152.47533798217773 59.839622497558594
M 154.7415756225586 59.01734161376953
Q 154.2240882873535 58.92390060424805 153.61737899780275 59.16684722900391
M 155.63379516601563 59.465858459472656
Q 155.2233741760254 59.110782623291016 154.7415756225586 59.01734161376953
M 156.18697128295898 60.475021362304695
Q 155.97283859252929 59.839622497558594 155.63379516601563 59.465858459472656
M 156.34757080078126 61.93270111083984
Q 156.36541519165038 61.09173202514648 156.18697128295898 60.475021362304695
M 156.062060546875 63.539886474609375
Q 156.29403762817384 62.73629379272461 156.34757080078126 61.93270111083984
M 157.2397903442383 58.0455551147461
L 157.04350204467772 63.539886474609375
M 160.95142364501953 56.75606918334961
L 157.2397903442383 58.0455551147461
M 162.5217300415039 56.793445587158196
Q 161.87933197021485 56.41968154907226 160.95142364501953 56.75606918334961
M 163.1284393310547 58.23243713378907
Q 163.1284393310547 57.148521423339844 162.5217300415039 56.793445587158196
M 162.84292907714843 59.50323486328124
Q 163.11059494018554 58.867835998535156 163.1284393310547 58.23243713378907
M 162.0399314880371 60.493709564208984
Q 162.53957443237306 60.11994552612305 162.84292907714843 59.50323486328124
M 162.7358627319336 60.9796028137207
Q 162.45035247802736 60.549774169921875 162.0399314880371 60.493709564208984
M 163.039217376709 62.15695953369141
Q 162.98568420410157 61.40943145751954 162.7358627319336 60.9796028137207
M 163.039217376709 62.455970764160156
Q 163.02137298583983 62.2504005432129 163.039217376709 62.15695953369141
M 163.07490615844728 63.296939849853516
Q 163.039217376709 62.92317581176758 163.039217376709 62.455970764160156
M 163.11059494018554 63.50251007080078
Q 163.0927505493164 63.4090690612793 163.07490615844728 63.296939849853516
M 160.79082412719725 58.77439498901367
Q 161.00495681762695 58.90521240234375 161.00495681762695 59.297664642333984 160.98711242675782 59.52192306518555 160.91573486328124 59.72749328613282 160.8086685180664 59.87699890136718 160.68375778198242 60.02650451660156 160.5410026550293 60.11994552612305 160.4160919189453 60.21338653564453 160.2376480102539 60.25076293945312 160.07704849243163 60.32551574707031
L 159.04207382202148 60.64321517944336 159.0956069946289 59.14815902709961 160.00567092895508 58.867835998535156
Q 160.55884704589843 58.68095397949219 160.79082412719725 58.77439498901367 Z
M 158.97069625854493 63.52119827270507
L 158.98854064941406 62.26908874511719 160.0592041015625 61.970077514648445
Q 160.30902557373048 61.857948303222656 160.50531387329102 61.95138931274414 160.68375778198242 62.00745391845703 160.79082412719725 62.21302413940429 160.86220169067383 62.36252975463867 160.89789047241212 62.60547637939453 160.89789047241212 62.829734802246094 160.9335792541504 63.20349884033203 160.9335792541504 63.37169265747071 160.95142364501953 63.52119827270507 160.95142364501953 63.614639282226555 160.96926803588866 63.726768493652344
M 163.16412811279298 63.726768493652344
Q 163.1284393310547 63.63332748413086 163.11059494018554 63.50251007080078
M 158.97069625854493 63.726768493652344
L 158.97069625854493 63.52119827270507
M 152.33258285522462 63.55857467651368
Q 152.33258285522462 63.353004455566406 152.35042724609374 63.128746032714844 152.35042724609374 62.56809997558594 152.49318237304686 62.1756477355957 152.58240432739257 61.76450729370117 152.77869262695313 61.52156066894531 152.93929214477538 61.24123764038086 153.13558044433594 61.09173202514648 153.31402435302735 60.92353820800781 153.52815704345704 60.86747360229492 153.67091217041016 60.811408996582024 153.88504486083986 60.86747360229492 154.02779998779297 60.86747360229492 154.2240882873535 61.05435562133789 154.36684341430663 61.18517303466796 154.4739097595215 61.5776252746582 154.5631317138672 61.89532470703125 154.54528732299804 62.47465896606445 154.50959854125978 63.01661682128906 154.3846878051758 63.44644546508789 154.36684341430663 63.483821868896484 154.3489990234375 63.539886474609375
M 157.04350204467772 63.539886474609375
L 157.04350204467772 63.726768493652344"/>

<path id="Layer0_0_MEMBER_0_2_STROKES" stroke="#000000" stroke-opacity="0.9490196078431372" stroke-width="1" stroke-linejoin="round" stroke-linecap="round" fill="none" d="
M 158.97069625854493 63.52119827270507
Q 159.95213775634767 63.52119827270507 160.95142364501953 63.52119827270507
M 193.9278579711914 103.86902618408202
Q 193.48174819946288 105.70046997070312 192.25048522949217 106.05554580688477 191.00137786865233 106.3919334411621 189.71658172607422 105.04638290405273 188.4317855834961 103.70083236694336 187.8607650756836 101.45824813842773 187.2897445678711 99.21566390991211 187.75369873046876 97.38422012329102 188.23549728393553 95.55277633666992 189.48460464477537 95.21638870239258 190.7158676147461 94.86131286621094 191.96497497558593 96.2068634033203 193.26761550903322 97.55241394042969 193.8386360168457 99.79499816894531 194.4096565246582 102.03758239746094 193.9278579711914 103.86902618408202 Z
M 154.3489990234375 63.539886474609375
Q 154.3133102416992 63.63332748413086 154.27762145996093 63.726768493652344
M 152.35042724609374 63.726768493652344
Q 152.33258285522462 63.63332748413086 152.33258285522462 63.55857467651368 153.33186874389648 63.539886474609375 154.3489990234375 63.539886474609375
M 147.62166366577148 63.55857467651368
L 147.65735244750977 62.99792861938477 148.29975051879882 62.829734802246094
Q 148.4603500366211 62.73629379272461 148.58526077270508 62.754981994628906 148.6744827270508 62.68022918701171 148.79939346313478 62.73629379272461 148.8529266357422 62.754981994628906 148.92430419921874 62.86711120605468 148.9421485900879 62.97924041748047 148.95999298095703 63.22218704223633 148.92430419921874 63.390380859375 148.88861541748048 63.55857467651368 148.88861541748048 63.595951080322266 148.87077102661132 63.63332748413086 148.8529266357422 63.68939208984375 148.8172378540039 63.726768493652344
M 147.62166366577148 63.726768493652344
L 147.62166366577148 63.55857467651368
Q 148.26406173706056 63.55857467651368 148.88861541748048 63.55857467651368"/>
</defs>

<g transform="matrix( 1, 0, 0, 1, 0,0) ">
<use xlink:href="#Layer0_0_1_STROKES"/>
</g>

<g transform="matrix( 0.3568878173828125, 0, 0, 0.3737640380859375, 43,0) ">
<use xlink:href="#Layer0_0_MEMBER_0_FILL"/>

<use xlink:href="#Layer0_0_MEMBER_0_1_STROKES" transform="matrix( 2.802001953125, 0, 0, 2.6754913330078125, -120.5,0) "/>

<use xlink:href="#Layer0_0_MEMBER_0_2_STROKES" transform="matrix( 2.802001953125, 0, 0, 2.6754913330078125, -120.5,0) "/>
</g>

<g transform="matrix( 0.3911590576171875, 0, 0, 0.4096527099609375, -41.5,-127.7) ">
<use xlink:href="#Layer0_0_MEMBER_0_MEMBER_0_FILL"/>
</g>

<g transform="matrix( 0.3568878173828125, 0, 0, 0.3737640380859375, 43,0) ">
<use xlink:href="#Layer0_0_MEMBER_0_MEMBER_1_FILL"/>
</g>
</svg>
