<svg xmlns="http://www.w3.org/2000/svg" xmlns:xlink="http://www.w3.org/1999/xlink" preserveAspectRatio="none" width="315" height="110" viewBox="0 0 315 110"><defs><linearGradient id="a" gradientUnits="userSpaceOnUse" x1="79.737" y1="207.662" x2="90.962" y2="165.838"><stop offset="2.745%" stop-color="#798291"/><stop offset="100%" stop-color="#FFF2F9"/></linearGradient><linearGradient id="b" gradientUnits="userSpaceOnUse" x1="67.575" y1="14.725" x2="29.225" y2="80.975"><stop offset="2.745%" stop-color="#F0EFF5"/><stop offset="100%" stop-color="#B4B8B7"/></linearGradient><linearGradient id="c" gradientUnits="userSpaceOnUse" x1="100.663" y1="87.75" x2="151.138" y2=".55"><stop offset="2.745%" stop-color="#172226"/><stop offset="100%" stop-color="#19284F"/></linearGradient><linearGradient id="d" gradientUnits="userSpaceOnUse" x1="276.938" y1="157.65" x2="395.962" y2="126.25"><stop offset="5.49%" stop-color="#34217B"/><stop offset="96.078%" stop-color="#0858B9"/></linearGradient><linearGradient id="e" gradientUnits="userSpaceOnUse" x1="202.987" y1="213.525" x2="213.713" y2="173.575"><stop offset="2.745%" stop-color="#798291"/><stop offset="100%" stop-color="#FFF2F9"/></linearGradient><linearGradient id="f" gradientUnits="userSpaceOnUse" x1="242.938" y1="106" x2="261.262" y2="95.4"><stop offset="2.745%" stop-color="#8B3631"/><stop offset="100%" stop-color="#BF431D"/></linearGradient><linearGradient id="g" gradientUnits="userSpaceOnUse" x1="237.887" y1="158.375" x2="265.813" y2="142.225"><stop offset="2.745%" stop-color="#8B3631"/><stop offset="100%" stop-color="#BF431D"/></linearGradient><linearGradient id="h" gradientUnits="userSpaceOnUse" x1="235.662" y1="126.95" x2="260.038" y2="112.85"><stop offset="2.745%" stop-color="#8B3631"/><stop offset="100%" stop-color="#BF431D"/></linearGradient><linearGradient id="i" gradientUnits="userSpaceOnUse" x1="205.025" y1="9.05" x2="168.375" y2="72.35"><stop offset="2.745%" stop-color="#F0EFF5"/><stop offset="100%" stop-color="#B4B8B7"/></linearGradient><linearGradient id="j" gradientUnits="userSpaceOnUse" x1="543.675" y1="231.113" x2="557.625" y2="249.387"><stop offset="5.49%" stop-color="#798291"/><stop offset="100%" stop-color="#FFF"/></linearGradient><linearGradient id="k" gradientUnits="userSpaceOnUse" x1="473.063" y1="171.012" x2="500.038" y2="197.988"><stop offset="5.49%" stop-color="#798291"/><stop offset="100%" stop-color="#383636"/></linearGradient><linearGradient id="l" gradientUnits="userSpaceOnUse" x1="473.012" y1="182.962" x2="446.488" y2="156.438"><stop offset="30.98%" stop-color="#798291"/><stop offset="100%" stop-color="#FFF2F9"/></linearGradient><linearGradient id="m" gradientUnits="userSpaceOnUse" x1="419.275" y1="195.025" x2="466.025" y2="241.775"><stop offset="5.49%" stop-color="#798291"/><stop offset="58.431%" stop-color="#FFF"/></linearGradient><linearGradient id="n" gradientUnits="userSpaceOnUse" x1="453.9" y1="191.15" x2="453.9" y2="72.15"><stop offset="2.745%" stop-color="#9D381A"/><stop offset="100%" stop-color="#F53800"/></linearGradient><linearGradient id="o" gradientUnits="userSpaceOnUse" x1="505.212" y1="11.275" x2="443.188" y2="46.825"><stop offset="2.745%" stop-color="#F0EFF5"/><stop offset="100%" stop-color="#B4B8B7"/></linearGradient><linearGradient id="p" gradientUnits="userSpaceOnUse" x1="351.038" y1="68.95" x2="373.163" y2="-14.95"><stop offset="2.745%" stop-color="#172226"/><stop offset="100%" stop-color="#19284F"/></linearGradient><linearGradient id="q" gradientUnits="userSpaceOnUse" x1="504.263" y1="189.012" x2="561.638" y2="246.387"><stop offset="5.49%" stop-color="#798291"/><stop offset="100%" stop-color="#FFF"/></linearGradient><linearGradient id="r" gradientUnits="userSpaceOnUse" x1="526.163" y1="51.288" x2="530.337" y2="44.012"><stop offset="2.745%" stop-color="#172226"/><stop offset="100%" stop-color="#19284F"/></linearGradient><linearGradient id="s" gradientUnits="userSpaceOnUse" x1="531.162" y1="84.838" x2="579.938" y2="-.338"><stop offset="2.745%" stop-color="#172226"/><stop offset="100%" stop-color="#19284F"/></linearGradient><linearGradient id="t" gradientUnits="userSpaceOnUse" x1="647.225" y1="64.388" x2="662.975" y2="36.912"><stop offset="2.745%" stop-color="#172226"/><stop offset="100%" stop-color="#19284F"/></linearGradient><linearGradient id="u" gradientUnits="userSpaceOnUse" x1="680.512" y1="89.287" x2="714.587" y2="29.812"><stop offset="2.745%" stop-color="#172226"/><stop offset="100%" stop-color="#19284F"/></linearGradient><linearGradient id="v" gradientUnits="userSpaceOnUse" x1="722.875" y1="345.225" x2="810.025" y2="497.275"><stop offset="5.49%" stop-color="#ECE3C6"/><stop offset="37.647%" stop-color="#FFF" stop-opacity="0"/><stop offset="66.667%" stop-color="#FFF" stop-opacity="0"/><stop offset="96.078%" stop-color="#ECE3C6"/></linearGradient><radialGradient id="w" gradientUnits="userSpaceOnUse" cx="0" cy="0" r="34.9" fx="0" fy="0" gradientTransform="translate(621.8 117.5)" spreadMethod="pad"><stop offset="0%" stop-color="#FFF"/><stop offset="43.922%" stop-color="#FA5712"/><stop offset="78.431%" stop-color="#9C3926"/></radialGradient><g id="y"><path fill="#312D2A" d="M251.5 228.35q-.25-.4-.45-.75-2.2-3.65-5.3-3.65-3.1 0-5.3 3.65-2.2 3.65-2.2 8.85 0 5.2 2.2 8.85 2.2 3.65 5.3 3.65 3.1 0 5.3-3.65 2.2-3.65 2.2-8.85 0-2.6-.55-4.8l34.15-23.6q-10.15-.05-20.9-.2l-14.45 20.5m321.8 1.6q-2.85 0-5.4.85-5.35 1.65-9.5 6.75-1.45 1.8-2.55 3.8l5.85 9.1 10 4v6l-19-4-.45-.65v.05q0 10.75 6.15 18.3 5.95 7.25 14.15 7.6h.75q8.7 0 14.85-7.6 6.15-7.55 6.15-18.3 0-10.7-6.15-18.3-6.15-7.6-14.85-7.6z"/><path fill="#0A347E" d="M133.85 177.3h-.05q-21.5 18.4-35.1 23.2 37.6 2.4 71.1 4.1 23.15-11.75 35.15-23.5-35.2-1.45-71.1-3.8m298.45 13.85q7.8-5.1 7.6-11.7-93.6 5.45-193 3l-.05.05q-8.6 12.05-30.9 24.05 26.55.95 50 1.3 10.75.15 20.9.2 93.3.25 129.75-10.3 10-2.9 15.7-6.6z"/><path fill="url(#a)" d="M76.45 172.9l-39.5 23.25q32.15 2.4 61.75 4.35 13.6-4.8 35.1-23.2-28.5-1.9-57.35-4.4z"/><path fill="#FFF" d="M30.45 191.4l6.4 4.75q.05-.05.1 0l39.5-23.25q28.85 2.5 57.35 4.4h.05q3-6.35.05-10.75-31.5-1.6-57.15-3.9l-46.3 28.75m175.35-22.3q2.5 6-.85 12 21.1.85 41.95 1.35 2.8-6.35-.05-12.7-2.55 0-5.05-.05h-1.85q-14.95-.2-29.1-.5l-5.05-.1m26-145.15q1.15-5.65-4.2-9.7L192 16.2q4.25 3.9 2.7 9.5l36.7-1.4.4-.35M544.25 182q-1 1.75 2 2.6l24.15-1.2q3.65-1.6 5.05-3.35.7-1 .8-2.05-1.65-6.2-8-6.75-3 .4-5.7 1-12.25 2.7-18.3 9.75m-35.3-164.2q5.2-7.3 3.6-13.6L488.9 0q-.55 7.9-3.85 14.5h2.35l21.55 3.3m44.75 149.7q6.25-9.3.1-12.8-6.2-3.55-12.1-1.2-4.15 1.95-7.45 3.65-15.2 7.8-12.55 10.35 7.25 2.4 13.75 2.9 10 .75 18.25-2.9m-22.3-42.95l-1.7.2q-21.25 11.2-21 17.75 4.45 4.2 24.4 1.4 1.25-.2 2.6-.4 10.45-4.5 10-12-2.3-8.05-14.3-6.95M543.25 113q2.7-4.7 1.75-8.5-3.5-6.55-11.75-4.5-2.05.4-3.95.9-14.3 3.7-21.8 12.65.2 3.75 14.25 5.2 4.8.05 9.05-.75 7-1.35 12.45-5m-14.5-18.35q12.25.5 17.5-2.65 6.05-4.4 4.25-9.75-4.95-7.5-20.25-2-1.4.55-2.7 1.05-19.8 7.95-11.05 12.2 6.8.95 12.25 1.15m39.1-30.8l-.15-.15q-3.25-3.2-13.95-2.7-.65.1-1.3.25-13.1 2.4-15.6 6.3-1.1 1.6-.3 3.5l22.2 3.45q10.55-7.8 9.1-10.65m130.8-15.75l.05-1.2.25-9.65-23.2-4.1-1.95 9.95 24.85 3.8v1.2m63.55.4l-16.15-2.85.3 8.2 15.85 2.4V48.5z"/><path fill="url(#b)" d="M57.15 62.5l20-14.65 15.95-18.3-52.8 2Q19.6 48.35 3.65 66.2q28-2 53.5-3.7z"/><path fill="url(#c)" d="M77.15 47.85l-20 14.65q44.5-3 84.8-5.45L194.7 25.7 93.1 29.55l-15.95 18.3z"/><path fill="#FFFFE8" d="M93.1 29.55q.1-3.9-3.2-7.75l-50.1 2.7Q15 35.7 0 60.2l3.65 6Q19.6 48.35 40.3 31.55l52.8-2z"/><path fill="url(#d)" d="M293.25 168.55l-.1 1.5h3.55l.2-.9q-.05-.65-.1-.95-.2-.3-.35-.35-.35-.15-.6.05-.35-.05-.8.2l-1.8.45m19.1-3.8q-.3-1.05-.7-1.4-.55-.5-.95-.5-.6-.15-1 0-.6.15-1.1.6-.55.4-1 1.15-.55.65-.8 1.75-.4 1.05-.4 2.55-.05.6-.05 1.15 2.8-.05 5.65-.05.05-.15.1-.25.35-1.15.45-2.6.05-1.55-.2-2.4M259.4 99.5q-.45 5.8-.5 11.5-.1 4.55.1 9.05.05 1.2.1 2.45.25 4.8.8 9.55.05.7.15 1.45.5 3.95 1.15 7.85.85 5.1 2.05 10.15 1.2 5.1 2.75 10.1 1.25 4.15 2.8 8.35 3.95 0 7.95.05l4.6-68.55q-.25-.5-.5-.95-10.15-8.9-20.35-6.5-.9 3-1.1 5.5m70.65 66.95q-.3-.55-.8-.7-.55-.25-1.25.05l-3 .8-.05 3.35h5.55q-.05-.4-.05-.85-.1-1-.1-1.6-.1-.65-.3-1.05m-.3-5.85q.35-.4.65-.8.2-.55.25-1.15 0-1.05-.6-1.4-.65-.25-2.2.25l-2.55.75-.15 4 2.9-.85q.45-.2.95-.3.35-.25.75-.5m34-27.15l-16.7-10.2-22.2 16.25q-23.15 17.3-30.7-.5-1.05-9.55-4.8-20l-5.8 2.95-3.4 48.05q4.5 0 9.1.05l.3-4.5 6.75-2.3q1.25-.45 2.2-.15.9.1 1.55.95.45.65.75 1.65.2.95.15 2-.1 1.25-.4 2.35h1.3q.1-2.05.75-3.75.6-1.95 1.65-3.5.95-1.65 2.5-2.7 1.45-1.25 3.2-1.8 1.7-.65 3.15-.4 1.35.25 2.5 1.2.95 1 1.55 2.7.5 1.65.45 3.9-.15 2.15-.8 4.3 1.35-.05 2.75 0l.55-14.7 10.4-3.45q2.6-.9 4.4.1 1.7.95 1.7 3.85-.05 1.7-.8 3.4-.85 1.65-2.25 2.65 1.15.15 1.95 1.3.7 1.15.85 3.15-.05.25 0 .8 0 1.25.1 2.25.05.3.1.55l6.8-.05V153l-5.7 1.85.1-5.35 18.55-6.2v2.3l7.45-12.15m1.7-2.95l6.2-8.65q-5.65-4.2-11.3-8.3l-10.05 7.35 15.15 9.6m8.65-12.1q-2.9-1.55-3.7-3.5-2-4.8.45-9.7l-8.95 7.2 10.8 8 1.4-2m-85.85-2.3q-1.65-4.2-3.7-8.5l-.75 10.75 4.45-2.25z"/><path d="M293.15 170.05l.1-1.5 1.8-.45q.45-.25.8-.2.25-.2.6-.05.15.05.35.35.05.3.1.95l-.2.9q0 .1-.05.2-.05.15-.15.25h3.9q.1-.25.15-.45.3-1.1.4-2.35.05-1.05-.15-2-.3-1-.75-1.65-.65-.85-1.55-.95-.95-.3-2.2.15l-6.75 2.3-.3 4.5-.05.45h3.95v-.45m16.8-11.75q-1.75.55-3.2 1.8-1.55 1.05-2.5 2.7-1.05 1.55-1.65 3.5-.65 1.7-.75 3.75v.45h4.55q-.05-.25-.05-.45 0-.55.05-1.15 0-1.5.4-2.55.25-1.1.8-1.75.45-.75 1-1.15.5-.45 1.1-.6.4-.15 1 0 .4 0 .95.5.4.35.7 1.4.25.85.2 2.4-.1 1.45-.45 2.6-.05.1-.1.25l-.2.5h4.8l.2-.5q.65-2.15.8-4.3.05-2.25-.45-3.9-.6-1.7-1.55-2.7-1.15-.95-2.5-1.2-1.45-.25-3.15.4m25.85.9q.75-1.7.8-3.4 0-2.9-1.7-3.85-1.8-1-4.4-.1l-10.4 3.45-.55 14.7v.5h5.4v-.55l.05-3.35 3-.8q.7-.3 1.25-.05.5.15.8.7.2.4.3 1.05 0 .6.1 1.6 0 .45.05.85 0 .25.05.55h6.15q-.1-.25-.15-.6-.05-.25-.1-.55-.1-1-.1-2.25-.05-.55 0-.8-.15-2-.85-3.15-.8-1.15-1.95-1.3 1.4-1 2.25-2.65m-5.4.6q-.3.4-.65.8-.4.25-.75.5-.5.1-.95.3l-2.9.85.15-4 2.55-.75q1.55-.5 2.2-.25.6.35.6 1.4-.05.6-.25 1.15m25.9-14.2v-2.3l-18.55 6.2-.1 5.35 5.7-1.85v16.85h.1l6.3-2.25.15-16.6 6.4-1.95v-3.45z"/><path fill="url(#e)" d="M246.85 182.5l.05-.05q-20.85-.5-41.95-1.35-12 11.75-35.15 23.5 24.15 1.15 46.15 1.95 22.3-12 30.9-24.05z"/><path fill="url(#f)" d="M243.1 106.25l16.3-6.75q.2-2.5 1.1-5.5-8.7 2.05-17.4 12.25z"/><path fill="url(#g)" d="M239.05 156.05q.5 3.15 1.2 6.45l25.75-.9q-1.55-5-2.75-10.1l-24.2 4.55m-2-16.65l.1 1.5q.3 3.75.8 7.75l23.25-7.3q-.65-3.9-1.15-7.85-.1-.75-.15-1.45l-22.85 7.35z"/><path fill="#FFFEF8" d="M237.95 148.65q.45 3.6 1.1 7.4l24.2-4.55q-1.2-5.05-2.05-10.15l-23.25 7.3m2.3 13.85q.7 3.5 1.55 7.2 2.5.05 5.05.05 10.75.1 21.95.2-1.55-4.2-2.8-8.35l-25.75.9m-.9-51.5q-1.1 3.85-1.7 8.2l21.25-8.2q.05-5.7.5-11.5l-16.3 6.75q-1.85 2.2-3.75 4.75m-2.55 20.5q0 3.8.25 7.9l22.85-7.35q-.55-4.75-.8-9.55-.05-1.25-.1-2.45L236.85 129q-.05 1.25-.05 2.5z"/><path fill="#0557A3" d="M204.95 181.1q3.35-6 .85-12-39.1-.85-71.9-2.55 2.95 4.4-.05 10.75 35.9 2.35 71.1 3.8m120-11.15v.55h-5.4v-.5q-1.4-.05-2.75 0l-.2.5h-4.8l.2-.5q-2.85 0-5.65.05 0 .2.05.45h-4.55v-.25-.2h-1.3q-.05.2-.15.45h-3.9q.1-.1.15-.25.05-.1.05-.2h-3.55v.45h-3.95l.05-.45q-4.6-.05-9.1-.05h-3.4q-4-.05-7.95-.05-11.2-.1-21.95-.2 2.85 6.35.05 12.7 99.4 2.45 193-3L427.95 162h-4.15l-7 1-3.8.55q-21.15 4.3-46.95 4.85l-22.6 1.45h-.1l-6.8.05q.05.35.15.6h-6.15q-.05-.3-.05-.55h-5.55z"/><path fill="url(#h)" d="M237.65 119.2q-.65 4.65-.8 9.8l22.15-8.95q-.2-4.5-.1-9.05l-21.25 8.2z"/><path fill="url(#i)" d="M198.6 53.7l-.4-.85 33.2-28.55-36.7 1.4-52.75 31.35q29.45-1.85 56.65-3.35z"/><path fill="#14558F" d="M194.7 25.7q1.55-5.6-2.7-9.5L89.9 21.8q3.3 3.85 3.2 7.75l101.6-3.85z"/><path fill="#0954A5" d="M485.05 14.5q3.3-6.6 3.85-14.5L227.6 14.25q5.35 4.05 4.2 9.7l-.4.35 11.95-.45 241.7-9.35z"/><path fill="url(#j)" d="M571.7 260.45v-6l-10-4-5.85-9.1q-3.6 6.3-3.6 14.45l.45.65 19 4z"/><path fill="#232323" d="M406 286.3q7.3 8 17.35 8h1.1q6.15-2.25 8.9-10 2.95-8.35.25-18.35-2.65-10-9.4-15.8-6.8-5.75-13.75-3.85-6.9 1.85-9.9 10.2-2.95 8.4-.3 18.4 1.35 4.95 3.65 8.85.95 1.3 2.1 2.55m4.45-31.55q3.45-.95 6.95 2.65 3.65 3.6 5.25 9.6t.25 10.9q-1.25 4.9-4.7 5.85-3.5.9-7.1-2.7-3.6-3.6-5.2-9.6t-.3-10.9q1.35-4.9 4.85-5.8z"/><path fill="#8A8987" d="M417.4 257.4q-3.5-3.6-6.95-2.65-3.5.9-4.85 5.8-1.3 4.9.3 10.9t5.2 9.6q3.6 3.6 7.1 2.7 3.45-.95 4.7-5.85 1.35-4.9-.25-10.9t-5.25-9.6z"/><path fill="#3F3B38" d="M422 239.75q-1.75 0-3.35.25-7.9 1.15-13.6 7.75-6.9 8-6.6 19.3.2 9.5 5.45 16.7-2.3-3.9-3.65-8.85-2.65-10 .3-18.4 3-8.35 9.9-10.2 6.95-1.9 13.75 3.85 6.75 5.8 9.4 15.8 2.7 10-.25 18.35-2.75 7.75-8.9 10 9.3-.45 15.85-8 6.9-8 6.65-19.25-.1-2.95-.6-5.65-1.6-7.75-7-13.65-7.3-8-17.35-8z"/><path fill="url(#k)" d="M484.95 170.55q-30.85 7.85-17.9 18.35l44.95-2.85q-12.7-4-27.05-15.5z"/><path fill="url(#l)" d="M452.1 185.15q3.3 2.3 7.05 4.25l7.9-.5q-12.95-10.5 17.9-18.35-4.25-3.4-8.65-7.45-2.6-2.45-5.3-5.1-39.45 3.45-34 11.75 5.95 9 15.1 15.4z"/><path fill="url(#m)" d="M432.3 191.15q-5.7 3.7-15.7 6.6l2.05 42.25q1.6-.25 3.35-.25 10.05 0 17.35 8 5.4 5.9 7 13.65l9.35-11 .9-12.75-.4-.3.45-.5 2.8-40.35-.3-7.1-26.85 1.75z"/><path fill="url(#n)" d="M415.2 155.15l-7.4 2.15 9 5.7 7-1q-4.3-3.45-8.6-6.85m-10.75 3.15l-38.4 10.1q25.8-.55 46.95-4.85l-8.55-5.25m-48.15-12.7v.7l18.25-6.25-10.8-6.6-7.45 12.15m9.15-15.1l12.95 8.2 10.8-3.7q-8.7-6.6-17.55-13.15l-6.2 8.65M522 72.45l-16.2 1.3-4.5.35-12.1.95-7.6.6-21.3 1.7q-5.25-.85-8.95 5.15-3.55 12.95-13 22-9.35 7.4-18.45 11.75-2.3 1.1-4.55 2-.1 0-.2.05-2.5 1-5 1.75-12.05 3.6-23.75 1.9-8.2-1.35-12.3-3.55l-1.4 2 18.6 13.9 57.45-19.8q20.4-7.05 24.5 4 3.35 11.85-4.5 20.5l-50.6 15.3 9.8 7.7 11.95 17.45q.2 6.6-7.6 11.7l26.85-1.75q-3.75-1.95-7.05-4.25-9.15-6.4-15.1-15.4-5.45-8.3 34-11.75 2.7 2.65 5.3 5.1 4.4 4.05 8.65 7.45 14.35 11.5 27.05 15.5l23.1-1.5q-11.55-3.75-20.55-15.85-13-17.6-13-42.4 0-24.85 13-42.4 5.2-7 11.3-11.2l.15-.55-4 .3z"/><path fill="#434F45" d="M408.55 110.5l1.5.5-1.45-2.15-.05 1.65m11.05-12.75l-5.45-.1.8 13.15q2.35-.85 4.8-1.9 3.5-1.5 7.15-3.35 5.4-3.3 9.1-8.6l-9.15.95-7.25-.15z"/><path fill="#F5F3FF" d="M468.75 139q7.85-8.65 4.5-20.5-4.1-11.05-24.5-4l-57.45 19.8 26.85 20 50.6-15.3M349.9 151l-.15 16.6-6.3 2.25 22.6-1.45 38.4-10.1-29.9-18.25-18.25 6.25v2.75l-6.4 1.95m39.3-16l-10.8 3.7 29.4 18.6 7.4-2.15q-12.8-10.1-26-20.15z"/><path fill="#DD9146" d="M396.3 99.55q1.5 2.95 3.95 5.5l-4.6-6.95q.3.75.65 1.45m19.7-31.6q-3.65 0-6.85 1.05l-.2 15.5q5.55-2.05 10.4-2.65 3.9-.55 7.4-.1 6.2.8 9.9 3.6.1-4.95-3.95-9.65-.6-.7-1.25-1.35-5.25-5.25-12.35-6.2-1.5-.2-3.1-.2m-15.5 6.4q-5.75 5.8-6.35 13.75l10.2 14.65 1.3-32.25q-2.75 1.5-5.15 3.85z"/><path fill="#4A4353" d="M403.85 113.9l.15-3.15.1-2.5q-1.9-1.25-3.6-2.95l-.25-.25q-2.45-2.55-3.95-5.5H389.35q-18.1 7-9.6 13.55 11.15 3.3 24.1.8z"/><path fill="#1C1C24" d="M445.4 84.05q-3.1 7.9-9.4 12.9-3.7 5.3-9.1 8.6-3.65 1.85-7.15 3.35-2.45 1.05-4.8 1.9-1.1.4-2.2.75l-1.9.6q-1.2.35-2.35.65-1.35.35-2.65.7l-2 .4q-12.95 2.5-24.1-.8-8.5-6.55 9.6-13.55h.85q-2.5-4.95-12.35-.75-5.4 3.9-7 6.4-2.45 4.9-.45 9.7.8 1.95 3.7 3.5 4.1 2.2 12.3 3.55 11.7 1.7 23.75-1.9 2.5-.75 5-1.75.1-.05.2-.05 2.25-.9 4.55-2 9.1-4.35 18.45-11.75 9.45-9.05 13-22 3.7-6 8.95-5.15-9.95-5.15-13.65 2.95-.75 1.6-1.25 3.75z"/><path fill="#40281E" d="M436 96.95l.65-11.6q-3.7-2.8-9.9-3.6l.1 16.15 9.15-.95M408.95 84.5l-.2 13 5.4.15 5.45.1-.25-15.9q-4.85.6-10.4 2.65z"/><path fill="#6B7E6E" d="M414.15 97.65l-5.4-.15-.15 11.35 1.45 2.15q1.3.35 2.7.55 1.1-.35 2.2-.75l-.8-13.15z"/><path fill="#915A43" d="M419.35 81.85l.25 15.9 7.25.15-.1-16.15q-3.5-.45-7.4.1z"/><path fill="url(#o)" d="M441.25 45.15l-3.5-2.65-5 2.6 8.5.05m67.7-27.35l-21.55-3.3h-2.35q-2.15.35-2.3.5l-42.8 26.15 5.05 3.8q9.05.05 17.05.25l46.9-27.4z"/><path fill="url(#p)" d="M482.75 15q.15-.15 2.3-.5l-241.7 9.35 34.25 25.7q3.65-.15 7.25-.35 1.9-.1 3.75-.15 38.55-1.75 70.85-2.75 2.45-.1 4.9-.15 22.75-.7 42.35-1l1.1-27.35L421.35 45q2.95-.05 5.8-.05l10.6-5.45 2.2 1.65L482.75 15M231.7 51.85q4.4-.25 8.75-.45 14-.75 27.3-1.35l-26.85-19.3q-8.2 10.55-9.2 21.1M409.75 29l-.2 16.15 8.1-.1-7.9-16.05z"/><path fill="#1E1D1B" d="M503.75 189.5l-8.75 1.4-38.35 45.95-.05.8 6.1 4.8 35-37 36 33h10l-13.8-14.2-19.2-22.75-6.95-12z"/><path fill="url(#q)" d="M520.85 186.8l-17.1 2.7 6.95 12 19.2 22.75 13.8 14.2h-3.35l11.9 17.35q0-8.15 3.6-14.45l-35-54.55z"/><path fill="#4B4D3F" d="M503.75 189.5l17.1-2.7-.7-1.1-8.15.35-44.95 2.85-7.9.5.3 7.1 35.55-5.6 8.75-1.4z"/><path fill="url(#r)" d="M524.85 50.55l3.4.35 2-6.9-5.4 6.55z"/><path fill="#182120" d="M505.8 73.75l19.05-23.2 5.4-6.55-2 6.9L522 72.45l4-.3 5.2-20.9L535.75 33l-14.4 17.2-20.05 23.9 4.5-.35M512.25 34l-3.2-.15-9.2 14.05L483 73.55l-38-28.6-5.05-3.8-2.2-1.65-10.6 5.45-4.65 2.4-1.15-2.35-13.55-27.2-1.1 27.35-.45 10.5-25.8 13.2-16.1-22.7q-2.45.05-4.9.15l17.2 24.5-41.8 21.4-46.8-34.85.55-8.3q-1.85.05-3.75.15l-.35 5.5-6.9-5.15-34.25-25.7-11.95.45-33.2 28.55.4.85q19.15 12.8 22.7 46.35.05.25.05.5 7 60.95-10.5 68.65 14.15.3 29.1.5-13.25-43.4-8.6-117.15l51.2 31.3-1.2 17.6-4.6 68.55h3.4l3.4-48.05 5.8-2.95 27.5-14.2 30.2 18.45 16.7 10.2 10.8 6.6 29.9 18.25 8.55 5.25 3.8-.55-9-5.7-29.4-18.6-12.95-8.2-15.15-9.6-29.05-18.35 13.8-7.1q12.8 9 25.3 18.1 5.65 4.1 11.3 8.3 8.85 6.55 17.55 13.15 13.2 10.05 26 20.15 4.3 3.4 8.6 6.85h4.15l-9.8-7.7-26.85-20-18.6-13.9-10.8-8-24.4-18.2 40.8-21.05 17.2 24.5v.05q.05.2.15.4l4.6 6.95.25.25q1.7 1.7 3.6 2.95l-.1 2.5 1.85 2.75q1.3-.35 2.65-.7 1.15-.3 2.35-.65l-.8-1.15-1.5-.5.05-1.65.15-11.35.2-13 .2-15.5.2-11.85 11.35-5.85 12 24.4q4.05 4.7 3.95 9.65 1.25 2.7 1.25 4.5 0 4.45-1.9 7.1 6.3-5 9.4-12.9.5-2.15 1.25-3.75l-6.15 3.15-16.8-33.7 9.05-4.65 5-2.6 3.5 2.65h1.35-1.35l40.35 30.5 7.6-.6 15-26.7L512.25 34m-102.7 11.15l.2-16.15 7.9 16.05 1.85 3.8-10.1 5.2.15-8.9m-3.4 13.65l-.5 11.7-1.3 32.25-10.2-14.65-12-16.9 24-12.4M286.4 80.5l1.25-17.45Q310.5 78.2 332.3 93.5l-14 7.2-31.9-20.2m-18.65-30.45q8.25 5.3 16.35 10.65l-1.2 17.6-42.45-26.9q-4.35.2-8.75.45 1-10.55 9.2-21.1l26.85 19.3m20.5 66.05l-4.45 2.25.75-10.75 1.5-21.6 27.8 16.95-25.6 13.15z"/><path fill="url(#s)" d="M612.65 60.3v-.35l36.5-20.6-140.2-21.55-46.9 27.4q10.5.25 19.3.7l18.5 2 9.2-14.05 3.2.15-8.05 14.35 17.15 1.85 14.4-17.2-4.55 18.25 81.45 9.05z"/><path fill="#FD612E" d="M567.7 63.7l.15.15q1.45 2.85-9.1 10.65l-22.2-3.45q-.8-1.9.3-3.5-5.35 1.4-10.1 4.5v.05q-.45.25-.9.6-6.1 4.2-11.3 11.2-13 17.55-13 42.4 0 24.8 13 42.4 9 12.1 20.55 15.85.75.25 1.5.45l9.65-.4q-3-.85-2-2.6 6.05-7.05 18.3-9.75 2.7-.6 5.7-1 6.35.55 8 6.75-.1 1.05-.8 2.05l23-4.5q-2.4.3-4.9.3-9.7 0-17.9-4.65-7.4-4.2-13.6-12.2-.4-.55-.8-1.05-12.2-16.55-12.2-39.6 0-16.05 5.95-28.95 2.85-6.25 7.05-11.7 2.1-2.7 4.3-4.95 8.75-8.9 19.65-11.15l-18.3 2.1M546.25 92q-5.25 3.15-17.5 2.65-5.45-.2-12.25-1.15-8.75-4.25 11.05-12.2 1.3-.5 2.7-1.05 15.3-5.5 20.25 2 1.8 5.35-4.25 9.75M545 104.5q.95 3.8-1.75 8.5-5.45 3.65-12.45 5-4.25.8-9.05.75-14.05-1.45-14.25-5.2 7.5-8.95 21.8-12.65 1.9-.5 3.95-.9 8.25-2.05 11.75 4.5m-15.3 20.25l1.7-.2q12-1.1 14.3 6.95.45 7.5-10 12-1.35.2-2.6.4-19.95 2.8-24.4-1.4-.25-6.55 21-17.75m24.1 29.95q6.15 3.5-.1 12.8-8.25 3.65-18.25 2.9-6.5-.5-13.75-2.9-2.65-2.55 12.55-10.35 3.3-1.7 7.45-3.65 5.9-2.35 12.1 1.2z"/><path fill="#E94500" d="M593.55 60.85q-3.9 0-7.55.75-10.9 2.25-19.65 11.15-2.2 2.25-4.3 4.95-4.2 5.45-7.05 11.7-5.95 12.9-5.95 28.95 0 23.05 12.2 39.6.4.5.8 1.05 6.2 8 13.6 12.2 8.2 4.65 17.9 4.65 2.5 0 4.9-.3.4-.05.75-.1 3.2-.5 6.2-1.5l.2-.1q3.95-1.4 7.6-3.7 5.75-3.7 10.75-9.75l1.1-1.4q13.05-16.85 13.05-40.65 0-19.45-8.7-34.2-1.95-3.35-4.35-6.45-5.7-7.35-12.4-11.45-8.7-5.4-19.1-5.4z"/><path fill="#949BA1" d="M756.2 163.5l-22.85 1.1-34.25 11.25 31.6-1.85 25.5-10.5z"/><path fill="#F8FFFF" d="M731.7 157.45l2 7-.35.15 22.85-1.1v-7l-24.5.95z"/><path fill="#476B9B" d="M653.75 168.3l.95-7.9h-30.75q-5 6.05-10.75 9.75l40.55-1.85z"/><path fill="#375FA4" d="M653.7 168.45l.05-.15-40.55 1.85q-3.65 2.3-7.6 3.7l-.2.1q-3 1-6.2 1.5-.35.05-.75.1l-23 4.5q-1.4 1.75-5.05 3.35l58.55-3.45 24.75-11.5z"/><path fill="#08529D" d="M685.85 159.2l.75 7.1-.6.5 47.35-2.2.35-.15-2-7-45.85 1.75z"/><path fill="#FFFCFF" d="M686.6 166.3l-.75-7.1-31.15 1.2-.95 7.9 32.25-1.5.6-.5z"/><path fill="#163A84" d="M686 166.8l-13.65 10.65 26.75-1.6 34.25-11.25-47.35 2.2z"/><path fill="#B9B0AB" d="M672.35 177.45L686 166.8l-32.25 1.5-.05.15-24.75 11.5 43.4-2.5z"/><path fill="#162216" d="M650.8 39.6l-1.65-.25-36.5 20.6v6.3q6.7 4.1 12.4 11.45 2.4 3.1 4.35 6.45-.25-10.75 4.7-21.5 1-2.2 2.3-4.45 5.2-9.3 14.4-18.6z"/><path fill="#0C5D9F" d="M673.8 43.1l1.95-9.95L512.55 4.2q1.6 6.3-3.6 13.6l140.2 21.55 1.65.25 23 3.5m72.55 10.75l-.3-8.2-47.1-8.4-.25 9.65 47.65 6.95z"/><path fill="url(#t)" d="M673.75 43.15l.05-.05-23-3.5q-9.2 9.3-14.4 18.6l37.35-15.05z"/><path fill="#737C79" d="M673.8 43.1l-.05.05L636.4 58.2q-1.3 2.25-2.3 4.45l17.9 2 46.65-17.75-24.85-3.8z"/><path fill="url(#u)" d="M698.7 46.9l-.05 1.2v-1.2L652 64.65l43.45 4.85 50.9-15.65-47.65-6.95z"/><path fill="#616163" d="M762.2 56.25l-15.85-2.4-50.9 15.65 18.5 1.75 48.25-15z"/></g><path fill="url(#v)" d="M766.45 327.5q-26.5 0-45.25 27.45t-18.75 66.3q0 38.85 18.75 66.3Q739.95 515 766.45 515t45.25-27.45q18.75-27.45 18.75-66.3 0-38.85-18.75-66.3-18.75-27.45-45.25-27.45z" id="B"/><path fill="url(#w)" d="M621.5 135.1q6.85-7.4 6.8-17.85-.05-10.45-6.85-17.85-6.8-7.4-14.65-7.4-7.85 0-13.45 7.4-5.55 7.4-5.55 17.85 0 10.45 5.55 17.85 5.6 7.4 13.45 7.4t14.7-7.4z" id="C"/><path id="x" stroke="#666" stroke-linejoin="round" stroke-linecap="round" fill="none" d="M145 59.5h-2.4l-3.925 1.25L145 63.5M-1.5-.7l152 57.7-7.9 2.5h-6.8l2.875 1.25L-1.5 109.975M150.5 57l-152-4"/><path id="z" stroke="#E0E8D9" stroke-opacity=".949" stroke-linejoin="round" stroke-linecap="round" fill="none" d="M200.477 16.875h.482m-3.517-.018l3.034.018M198.835 31.9l-.232 4.336M170.16 54.42v-.86l-6.62 2.318-.037 2 2.034-.692v6.298h.036l2.25-.84.052-6.206 2.284-.728v-1.29zm-23.823 7.457l-.107 1.682m2.516-2.543l-2.41.86m3.195-.916q-.338-.11-.784.057m1.338.3q-.232-.32-.553-.356m.822.973q-.107-.374-.268-.617m.32 1.364q.02-.392-.052-.747m-.09 1.626q.108-.413.143-.88m.59-.523q-.233.635-.268 1.402m.856-2.71q-.375.578-.59 1.307m1.482-2.317q-.553.392-.892 1.01m2.034-1.683q-.624.205-1.142.673m2.267-.823q-.518-.093-1.125.15m2.017.3q-.41-.356-.892-.45m1.445 1.458q-.214-.635-.553-1.01m.714 2.468q.017-.84-.16-1.458m-.126 3.065q.232-.804.286-1.607m.892-3.887l-.196 5.494m3.907-6.784l-3.71 1.29m5.282-1.253q-.643-.373-1.57-.037m2.176 1.476q0-1.083-.606-1.44m.32 2.71q.27-.634.286-1.27m-1.088 2.262q.5-.374.803-.99m-.107 1.476q-.286-.43-.696-.486m1 1.663q-.054-.748-.304-1.177m.303 1.476q-.02-.206 0-.3m.035 1.14q-.036-.373-.036-.84m.07 1.047q-.017-.094-.035-.206m-2.284-4.523q.215.13.215.524-.018.224-.09.43-.106.15-.23.3-.144.092-.27.185-.177.038-.338.113l-1.035.317.054-1.495.91-.28q.553-.187.785-.094zm-1.82 4.747l.02-1.25 1.07-.3q.25-.112.445-.02.18.057.286.263.072.15.108.392 0 .225.036.598 0 .17.017.318 0 .095.02.207m2.194 0q-.036-.094-.053-.224m-4.14.224v-.206m-6.637.04q0-.207.017-.43 0-.562.143-.954.09-.41.286-.654.16-.28.356-.43.178-.168.392-.225.143-.056.357 0 .143 0 .34.187.142.13.25.524.088.317.07.897-.035.542-.16.97-.018.04-.036.095m2.694 0v.187"/><path id="A" stroke="#000" stroke-opacity=".949" stroke-linejoin="round" stroke-linecap="round" fill="none" d="M158.97 63.52h1.98m32.978 40.35q-.446 1.83-1.678 2.186-1.25.336-2.533-1.01-1.285-1.345-1.856-3.588-.57-2.242-.106-4.074.48-1.83 1.73-2.168 1.232-.355 2.48.99 1.304 1.346 1.875 3.59.57 2.242.088 4.073zm-39.58-40.33l-.07.187m-1.928 0q-.017-.094-.017-.168 1-.02 2.016-.02m-6.728.02l.035-.562.643-.168q.16-.094.285-.075.09-.075.214-.02.053.02.124.132.018.112.036.355-.036.168-.07.337 0 .036-.02.073-.017.056-.053.094m-1.195 0v-.168h1.267"/></defs><use xlink:href="#x"/><g transform="matrix(.3569 0 0 .37376 43 0)"><use xlink:href="#y"/><use xlink:href="#z" transform="matrix(2.802 0 0 2.6755 -120.5 0)"/><use xlink:href="#A" transform="matrix(2.802 0 0 2.6755 -120.5 0)"/></g><use xlink:href="#B" transform="matrix(.39116 0 0 .40965 -41.5 -127.7)"/><use xlink:href="#C" transform="matrix(.3569 0 0 .37376 43 0)"/></svg>