<svg xmlns="http://www.w3.org/2000/svg" xmlns:xlink="http://www.w3.org/1999/xlink" preserveAspectRatio="none" width="394" height="290" viewBox="0 0 394 290"><defs><linearGradient id="a" gradientUnits="userSpaceOnUse" x1="-67.75" y1="-72.825" x2="69.75" y2="28.325"><stop offset="0%" stop-color="#FFFFC5"/><stop offset="19.608%" stop-color="#FFF"/><stop offset="34.118%" stop-color="#D7D7B7"/><stop offset="56.471%" stop-color="#FFFFC5"/><stop offset="98.824%" stop-color="#FFFFCF"/></linearGradient><radialGradient id="b" gradientUnits="userSpaceOnUse" cx="0" cy="0" r="154.788" fx="0" fy="0" gradientTransform="translate(153.6 153.65)" spreadMethod="pad"><stop offset="78.824%" stop-color="#FFF" stop-opacity=".431"/><stop offset="100%" stop-color="#003" stop-opacity=".471"/></radialGradient><radialGradient id="c" gradientUnits="userSpaceOnUse" cx="0" cy="0" r="175.02" fx="0" fy="0" gradientTransform="rotate(141.944 -16.92 42.978)" spreadMethod="pad"><stop offset=".784%" stop-color="#399"/><stop offset="50.98%" stop-color="#669"/><stop offset="95.686%" stop-color="#373754"/></radialGradient><filter id="h" x="-20%" y="-20%" width="140%" height="140%" color-interpolation-filters="sRGB"><feFlood flood-color="#000" flood-opacity="1" result="result1"/><feComposite in2="SourceGraphic" in="result1" operator="in" result="result2"/><feGaussianBlur in="result2" stdDeviation="2.6666666666666665,2.6666666666666665" result="result3"/><feOffset dx="-.052" dy=".999" in="result3" result="result4"/><feComposite in2="result4" in="SourceGraphic" result="result5"/></filter><filter id="r" x="-20%" y="-20%" width="140%" height="140%" color-interpolation-filters="sRGB"><feGaussianBlur in="SourceGraphic" stdDeviation="1.6666666666666667,1.6666666666666667" result="result1"/></filter><g id="d"><path fill="#CCC" d="M21.5 242.8q.1.1.35.75.1 1.05-.35 2.1 0 .1-.2.5-.1.25-.2.65-.1 2.05 1.4.65.3-.4.4-.65.1-.4 0-.55.85-1.9.5-3.45-.1-1.4-.9-2.05-.55 1-1 1.8v.25m5.35-13.05q-.15.2-.15.35.15.1.3.75.15 1.05-.3 1.95 0 .25-.1.45-.25.45-.4.7-.1 2.15 1.45.75.35-.4.5-.75.15-.25 0-.5.8-1.8.65-3.5-.4-1.25-1.15-1.9-.4 1.05-.8 1.7M23 234.7q-.097.145-.1.25-.4.65-.95 1.7 0 .5-.1.6-.25 1.2-.35 1.3.1 1.8 1.5.75 0-.1.55-1.1h.2q.4-1.15.65-2.3v-.15q.5-1.55-.1-1.8-.75-.15-1.3.75m2.45-5.9q.3-.65.65-1.4-.9 0-1.95.65-1.35 1.15-2.3 2.8 0 .25-.25.7-.3 2.25 1.3 1.25.1-.4.4-.8.1-.1.1-.45.55-.95 1.3-1.6.2-.2.75-.5v-.65m-9 15.4q-.25 2.4 1.3 1.3.15-.25.25-.7.25-.2.25-.45.4-1.05 1.15-1.7.4-.1.65-.5.1-.1.1-.4.4-.75.85-1.65-1.05 0-2.25.9-1.15.9-2.15 2.85 0 .1-.15.35M32 217q0 .25-.1.25.35.3.35.95.1.85-.25 1.9-.1.2-.1.35-.2.5-.3.8-.35 1.9 1.45.65.25-.3.25-.65.1-.3.1-.5.65-1.8.5-3.5-.1-1.4-.85-2.15-.5 1.1-1.05 1.9m-2.45 4.25q-.6-.15-1.25.65-.145.194-.15.35-.5.4-.9 1.65-.1.55-.25.65-.15.95-.3 1.3.3 1.65 1.6.8 0-.15.5-1.35h.15q.5-.95.75-2.25v-.15q.5-1.65-.15-1.65m-1.05-2.1q0-.1.3-.35.25-1.05 1-1.55.4-.25.8-.55.25-.3 0-.6.35-.65.65-1.4-.95 0-1.8.65-1.45 1.05-2.3 2.85-.15.2-.3.6-.15 2.3 1.45 1.3.1-.4.2-.95m8.8-14.75l-.2.25q.2.3.3.95.1.85-.3 1.9 0 .25-.2.4-.15.35-.3.75-.1 1.9 1.45.65.25-.25.5-.75.15-.15 0-.55.75-1.65.5-3.35-.25-1.4-1-2.05-.4 1.05-.75 1.8m-3.6 4.8q-.397.1-.4.2-.25.8-.75 1.8-.2.55-.3.75-.25.85-.25 1.15.25 1.7 1.4.55l.5-1q.65-.9.95-2.2 0-.1.25-.25.2-1.65-.4-1.65-.65-.3-1 .65m2.15-5.65q.3-.7.65-1.45-1 0-1.95.65-1.4 1.05-2.3 2.85 0 .2-.25.5-.3 2.45 1.3 1.4.1-.55.4-.9.1-.15.1-.4.55-1.05 1.3-1.55.2-.35.75-.45v-.65m6.55-11.85l-.1.1q.35.45.35 1.05.15.9-.25 1.8-.1.15-.1.55-.15.35-.4.6-.25 2.05 1.35.65.4-.4.4-.65.15-.1.15-.5.65-1.9.5-3.5-.1-1.35-1.05-2-.35 1.05-.85 1.9m1.7-7.95q-.447.1-.45.25-.5.7-.75 1.95-.1.25-.1.35-.4 1.15-.4 1.3.25 1.8 1.4.8l.5-1.05q0-.1.3-.1.35-1.05.65-2.35l.2-.1q.25-1.55-.4-1.55-.6-.35-.95.5m3.6-4.9v.25q.1.2.2.95.15.85-.2 1.9-.3.1-.3.5-.15.25-.25.65-.1 2.05 1.4.65.3-.4.5-.65v-.5q.8-1.95.45-3.5-.2-1.4-.95-2.05-.5 1.05-.85 1.8m-2.1.25q.3-.25.5-.45.25-.3.25-.55.3-.9.7-1.65-1.05 0-2.1.75-1.3 1.05-2.15 2.85-.15.2-.15.5-.35 2.35 1.15 1.3.3-.4.4-.65 0-.3.1-.55.4-1 1.3-1.55m7.2-12.65l-.15.1q.25.15.25.9.3 1.05-.1 1.9-.15.2-.15.55-.1.25-.4.6-.2 2.1 1.45.65.25-.35.35-.65.15-.2.15-.5.6-1.9.5-3.45-.1-1.45-1-2.05-.4 1.15-.9 1.95m-3.6 4.45q-.15.45-.35.55-.3.65-.8 1.5-.15.65-.15 1.05-.2.75-.2.85.1 1.8 1.35.85.15 0 .45-1.2.6-.9.95-2.05.15-.25.15-.35.5-1.6-.35-1.8-.55-.15-1.05.6m-.15-1.65q.15-.35.25-.65 0-.25.2-.5.35-.9 1.1-1.55.25-.25.8-.5.1-.3 0-.65.35-.75.65-1.4-.95 0-1.95.65-1.45 1-2.2 2.8-.1.4-.2.5-.3 2.55 1.35 1.3m5-10.55v.05q-.5.6-.75 1.9-.1.25-.1.5-.4 1.05-.55 1.2.25 1.65 1.55.75l.5-1.05q0-.25.3-.25.35-.9.65-2.2l.1-.1q.4-1.55-.3-1.55-.65-.4-1.1.35-.293.146-.3.4m2.45-5.35q.3-.25.3-.65.25-.75.65-1.6-1.05.2-2.1.85-1.3.85-2.15 2.75-.3.3-.3.55-.25 2.3 1.3 1.25.15-.35.4-.6 0-.35.1-.55.4-1.15 1.3-1.5.25-.3.5-.5m1.4.2q0 .2-.1.3.4.1.5.85.1.85-.4 1.95-.1.15-.1.4-.15.4-.25.75-.1 1.95 1.4.5.3-.2.4-.5v-.45q.85-2 .5-3.5-.15-1.4-.9-2.1-.55.95-1.05 1.8M40.2 197.5q.3-1.55-.25-1.55-.65-.25-1.15.65-.248 0-.25.1-.5.65-.9 1.95-.15.25-.15.65-.2.9-.4 1.3.3 1.6 1.6.6l.35-1.15.25-.1q.55-1.05.8-2.35l.1-.1m-1.5-2.95q.1-.3.2-.65 0-.3.15-.5.4-.95 1.15-1.6.3-.2.8-.35.25-.4.25-.6.1-.65.4-1.45-.95 0-1.8.6-1.55.95-2.35 2.85-.1.25-.2.4-.2 2.45 1.4 1.3m24.5-53.8v.4q.1.1.25.75.15.9-.25 2.1 0 .1-.15.35-.1.4-.4.6-.1 2.1 1.45.65.35-.2.45-.65.2-.2 0-.35.85-1.95.45-3.45-.15-1.6-.9-2.05-.5.9-.9 1.65m1.25-7.4v.05q-.35.4-.85 1.6 0 .35-.15.75-.15.9-.25 1.05.1 1.8 1.55.85l.5-1.15q.5-1.15.8-2.15.1-.1.1-.4.5-1.5-.1-1.7-.8-.1-1.3.65-.194.145-.3.45m3.9-5.15v.35q.25.1.35.8.1.9-.35 2.05-.2.1-.2.2-.1.55-.2.85-.25 2 1.4.6.25-.25.4-.6V132q.85-1.9.5-3.45-.1-1.4-.9-2.05-.55.9-1 1.7m-2.1.1q.4-.1.65-.4.3-.25.3-.5.2-.75.5-1.55-.9 0-1.95.8-1.3.9-2.3 2.8-.15.15-.15.55-.25 2.25 1.25 1.1.2-.25.3-.75 0-.1.15-.25.5-1.15 1.25-1.8m-7 17.7q-.4.55-.85 1.7 0 .5-.1.65-.4 1.15-.4 1.25.3 1.7 1.45.75.25 0 .5-1.15.25-.1.35-.1.3-.9.85-2.2v-.15q.45-1.65-.4-1.8-.55-.1-1.05.65-.25.2-.35.4m1.25-6.8q-1.25.9-2.2 2.8 0 .2-.1.55-.4 2.3 1.15 1.15.25-.25.35-.55.15-.35.15-.5.55-1.1 1.3-1.75.35-.15.65-.4.1-.1.1-.5.25-.8.65-1.55-.9 0-2.05.75m13.05-23.35q.15.15.3.6.15 1.05-.3 2 0 .35-.1.45-.25.4-.4.8-.1 2.05 1.45.65.35-.3.5-.65.15-.4 0-.6.8-1.7.65-3.5-.4-1.3-1.15-1.9-.5.95-.95 1.8v.35m-3.95 4.75q-.4.65-.8 1.8 0 .5-.1.65-.35 1-.35 1.25.25 1.7 1.4.8.2-.25.65-1.3h.2q.3-1.1.8-2.15v-.4q.35-1.4-.4-1.55-.6-.15-1.05.65-.2.1-.35.25m-.9-4.15q0 .4-.1.85-.45 2.25 1.15 1.15.2-.3.4-.8.1-.15.1-.35.55-1.05 1.3-1.7.2-.1.65-.55.1-.2.1-.5.3-.65.65-1.4-.9 0-1.95.55-1.4 1.15-2.3 2.75m6.3-8.6q-.5.55-1 1.8 0 .45-.15.55-.15 1.05-.3 1.25.15 1.8 1.6.8 0-.15.5-1.1h.15q.5-1.2.75-2.45v-.2q.5-1.5-.15-1.5-.75-.1-1.25.65-.148.098-.15.2m3.75-4.95q.2.2.35.9.15 1-.15 1.95-.2.2-.4.5-.1.35-.1.75-.35 1.8 1.45.65.1-.4.25-.75.2-.3.2-.55.55-1.8.4-3.45-.1-1.4-1.15-2.05-.2 1-.65 1.9l-.2.15m-.65-2.55q-.95 0-1.8.6-1.45 1.2-2.3 2.85-.15.35-.3.5-.25 2.6 1.45 1.45 0-.3.1-.85.1-.1.4-.45.25-.95 1-1.55.4-.15.95-.55v-.65q.2-.5.5-1.35m3.85-4.55q.2-1.5-.4-1.5-.65-.4-1 .5-.95.65-1.15 2.15-.45 1.6-.65 1.8.35 1.7 1.6.65l.4-1q.65-1.15 1.2-2.6z"/><path fill="#333" d="M24.4 235.9q-.25 1.15-.65 2.3.95 0 2-.95 1.25-.85 1.9-2.55-1.55 1.4-1.45-.75-.45.9-1 1.3-.4.5-.8.65m-1.5-.95q0-.255-.1-.65 0-.75.1-1.5-1.6 1-1.3-1.25-.6 2.25-.4 3.8.1 1.3.65 1.9.1-.1.1-.6.55-1.05.95-1.7m3.2-7.55q-.35.75-.65 1.4v.65q-.25 1.25.1 1.4.55.15 1.15-.75 0-.15.15-.35.4-.65.8-1.7.35-.75.65-1.4-1.3.85-1.6-.8-.35.8-.6 1.55m-5.95 14.35q0 .3-.1.4-.1 1.3.4 1.4.55.3 1.05-.75v-.25q.45-.8 1-1.8.3-.65.5-1.45-1.4 1.05-1.5-.75-.3.75-.5 1.55-.45.9-.85 1.65m-2.55 5.4q0-.9.15-1.65-1.55 1.1-1.3-1.3-.75 2.4-.65 4 .4 2 1.8 2.55 1.15.4 2.85-.75 1.4-.95 2.05-2.55-1.5 1.4-1.4-.65-.55.75-1.15 1.4-.75.65-1.4.2-.8-.2-.95-1.25m14-25.9q-.65.85-1.15 1.3-.25.5-.75.5-.25 1.3-.75 2.25.85-.1 2-.75 1.3-.85 2.1-2.65-1.8 1.25-1.45-.65m-.35-6.55q-.3.75-.65 1.4.25.3 0 .6-.3 1.3.25 1.5.4.1 1.05-.95.1 0 .1-.25.55-.8 1.05-1.9.1-.5.35-1.45-1.15 1.15-1.4-.55-.4.85-.75 1.6m-3.1 6.9q-.15-.75.15-1.5-1.6 1-1.45-1.3-.75 2.3-.5 3.85.25 1.25.65 1.9.15-.1.25-.65.4-1.25.9-1.65v-.65m8.45-12.95q-.45.75-1.1 1.3-.3.5-.65.5-.3 1.3-.95 2.2 1.2 0 2.25-.7 1.25-.85 1.9-2.65-1.55 1.25-1.45-.65m-3.3.75q0-.2-.15-.35 0-.8.15-1.55-1.6 1.05-1.3-1.4-.75 2.45-.4 4.1.1 1.1.65 1.75.1-.2.3-.75.5-1 .75-1.8m3.8-8.8q-.35.75-.6 1.5-.35.75-.65 1.45v.65q-.35.95.1 1.25.55.15 1.15-.8l.2-.25q.35-.75.75-1.8.25-.6.65-1.4-1.3 1-1.6-.6m4.8-4.8q-.55.9-1.05 1.4-.35.4-.75.4-.25 1.3-.8 2.35.9 0 2.05-.8 1.3-1 1.9-2.7-1.6 1.4-1.35-.65m.4-4l.1-.1q.5-.85.85-1.9.3-.65.55-1.4-1.15 1-1.4-.8-.5 1.05-.75 1.8-.3.8-.4 1.45 0 .2-.25.6-.3 1 .25 1.3.4.1 1.05-.95m4.85-8.7q-.5.9-1.15 1.4-.3.4-.75.4-.3 1.3-.65 2.35.85 0 1.9-.95 1.3-.85 2.05-2.55-1.5 1.4-1.4-.65m-3.5.9v-.5q0-.8.15-1.65-1.5 1.05-1.15-1.3-1 2.35-.75 3.95.4 1.3.9 1.8 0-.1.1-.35.25-1.25.75-1.95m3.4-7.55q-.4.75-.7 1.65 0 .25-.25.55-.1 1.1.4 1.25.55.15 1.2-.8v-.25q.35-.75.85-1.8.3-.6.5-1.35-1.25.95-1.35-.85-.45.85-.65 1.6m6.65-5.3q-1.65 1.45-1.45-.65-.5.95-.95 1.45-.45.5-.85.5-.35 1.15-.95 2.05 1.1 0 2.25-.5 1.15-1.15 1.95-2.85m-2.3-5.75q.1.35 0 .65-.3 1.15.1 1.25.55.15 1.15-.75l.15-.1q.5-.8.9-1.95.25-.65.5-1.4-1.3.9-1.55-.75-.4.85-.6 1.65-.3.65-.65 1.4m-2.55 6.05v-.55q-.2-.75.2-1.65-1.65 1.25-1.35-1.3-.85 2.35-.55 4.15.1 1.05.75 1.9 0-.4.15-1.05.5-.85.8-1.5m10.1-13.15q-1.5 1.45-1.4-.5-.5.95-1.15 1.45-.25.35-.75.35-.3 1.3-.65 2.2.75 0 1.9-.75 1.3-.95 2.05-2.75m-4.9.45v-.05-.5q0-.75.15-1.7-1.55 1.05-1.3-1.25-.85 2.3-.65 4 .4 1.15.95 1.9 0-.25.1-.5.25-1.3.75-1.9m3.85-9.15q-.25.9-.45 1.5-.4.85-.65 1.6 0 .4-.3.65-.1 1.15.4 1.25.55.1.9-.75.1-.1.1-.3.5-.85 1.05-1.8.3-.65.4-1.4-1.15.95-1.45-.75m-19.35 47.1v-.55q-.25-.6.15-1.6-1.6 1.15-1.4-1.3-.8 2.45-.55 3.95.35 1.3.75 2.1 0-.4.15-.65.4-1.3.9-1.95m23.1-50.3q-.4.35-.6.5-.55 1.3-.85 2.2.95 0 1.8-.75 1.45-.95 2.1-2.75-1.55 1.45-1.45-.65-.5.85-1 1.45m2.45-7.3q.35-.65.65-1.45-1.45.95-1.55-.85-.25.85-.65 1.65-.4.75-.65 1.55 0 .4-.1.5-.15 1.3.2 1.4.55.1 1.2-.75v-.4q.4-.75.9-1.65m2.7-5.3q-.25.45-.75.55-.3 1-.8 2.15.9 0 2.05-.75 1.3-.9 2.05-2.7-1.65 1.4-1.4-.6-.55.75-1.15 1.35m-2.35-.9q0-.9.1-1.8-1.5 1.15-1.25-1.1-.85 2.25-.65 3.8.4 1.3.8 1.95.15-.4.15-.75.5-1.2.85-1.6v-.05q.097-.305 0-.45m4.9-6.4q.25-.65.4-1.4-1.15.9-1.4-.8-.3.8-.65 1.55-.3.8-.5 1.55 0 .25-.3.5-.1 1.15.4 1.45.4.1 1.05-.8v-.35q.45-.8 1-1.7M59.25 146q.1-.4 0-.5 0-.9.1-1.8-1.55 1.15-1.15-1.15-.75 2.3-.65 3.85.25 1.3.75 1.95.1-.15.1-.65.45-1.15.85-1.7m12.8-25q-.4.5-.65.65-.5 1.05-.8 2.15.95 0 1.8-.75 1.45-1 2.1-2.7-1.55 1.4-1.45-.65-.45.75-1 1.3m2.45-7.3q.35-.75.65-1.45-1.45 1-1.6-.8-.35.8-.6 1.7-.35.75-.65 1.4 0 .3-.1.5-.15 1.3.2 1.4.55.3 1.15-.6v-.35q.45-.85.95-1.8m-4.9 6.35q0-.85.15-1.6-1.6 1.1-1.15-1.15-.9 2.25-.65 3.8.2 1.3.75 1.95.1-.15.1-.65.4-1.15.8-1.8.15-.25 0-.55m7.7-11.75q-.5.4-.75.4-.25 1.25-.75 2.45.85-.3 2-.95 1.3-.85 2.1-2.55-1.8 1.15-1.45-.65-.65.75-1.15 1.3m-3.3 1.35q.5-1.25 1-1.8v-.6q-.15-.75.15-1.5-1.7 1.15-1.45-1.45-.75 2.6-.5 4.1.25 1.25.65 1.8.15-.1.15-.55m5.6-8.8q.4-.65.75-1.45-1.25 1.05-1.6-.65-.3.8-.65 1.6-.3.85-.5 1.35v.65q-.45 1.15.1 1.3.4.15 1.05-.75l.2-.15q.45-.9.65-1.9z"/></g><g id="e"><path fill="#333" d="M145.75 245.5q.1.75.1 1.65-.1 1.05-.85 1.25-.65.45-1.45-.2-.65-.65-1.2-1.4.3 2.05-1.4.65.65 1.6 2.05 2.55 1.7 1.15 2.85.75 1.4-.55 1.8-2.55.1-1.6-.65-4 .25 2.4-1.25 1.3m-5.3-6.2q.3.8.5 1.45.55 1 1.05 1.8v.25q.65 1.05 1 .75.55-.1.4-1.4-.1-.1-.1-.4-.4-.75-.65-1.65-.4-.8-.65-1.55-.1 1.8-1.55.75m-2.8-2.05q1.1.95 2.15.95-.5-1.15-.85-2.3-.3-.15-.55-.65-.75-.4-1.15-1.3.1 2.15-1.4.75.65 1.7 1.8 2.55m2.8-4.45q.3.75.3 1.5-.293.39-.3.6v.05q.5.65 1.05 1.7 0 .5.1.6.55-.6.65-1.9.4-1.55-.35-3.8.25 2.25-1.45 1.25m-3.1-5.4q-.2-.75-.6-1.55-.25 1.65-1.55.8.35.65.65 1.4.25 1.05.75 1.7.15.2.15.35.6.9 1.15.75.5-.15.1-1.4v-.65q-.35-.65-.65-1.4m-2-5.8v.65q.5.4.75 1.65.1.55.4.65.5-.65.65-1.9.2-1.55-.55-3.85.15 2.3-1.4 1.3.35.75.15 1.5m-2.35.95q-.5-.45-1.15-1.3.4 1.9-1.4.65.75 1.8 2.05 2.65 1.15.65 2.05.75-.35-.95-.8-2.25-.5 0-.75-.5m-2.95-8.9q.3.95.4 1.45.55 1.1 1 1.9 0 .25.15.25.65 1.05 1 .95.55-.2.3-1.5-.3-.3 0-.6-.4-.65-.65-1.4-.4-.75-.8-1.6-.25 1.7-1.4.55m.3-4.6q-.2.15-.2.35.3.8.85 1.8.1.55.2.75.55-.65.65-1.75.4-1.65-.4-4.1.3 2.45-1.3 1.4.2.75.2 1.55m-2.3.9q-.65-.55-1.2-1.3.15 1.9-1.4.65.65 1.8 1.95 2.65.95.7 2.15.7-.65-.9-.9-2.2-.4 0-.6-.5m-.45-6.4q-.2-.7-.6-1.45-.25-.75-.65-1.5-.25 1.6-1.6.6.45.8.7 1.4.35 1.05.8 1.8l.1.25q.65.95 1.15.8.55-.3.1-1.25v-.65m-2.65-7.4v.55q.5.65.85 1.95.15.25.15.65.4-.8.8-2.1.25-1.5-.5-3.95.1 2.45-1.5 1.3.45 1 .2 1.6m-1.55 1.45q-.35 0-.75-.4-.55-.5-1.2-1.4.4 2.05-1.4.65.9 1.7 2.05 2.7 1.15.8 2.05.8-.35-1.05-.75-2.35m-3.35-7.8q.5 1.05 1 1.9l.2.1q.6 1.05 1.1.95.4-.3.15-1.3-.15-.4-.15-.6-.25-.65-.5-1.45-.4-.75-.8-1.8-.1 1.8-1.4.8.25.75.4 1.4m.9-9.25q.3 2.35-1.3 1.3.15.85.15 1.65v.5q.4.7.75 1.95.15.25.15.35.55-.5.75-1.8.4-1.6-.5-3.95m-4.6 2.55q.1 2.05-1.45.65.75 1.7 2.1 2.55 1.1.95 1.8.95-.3-1.05-.55-2.35-.5 0-.9-.4-.55-.5-1-1.4m.75-5q-.3-.9-.65-1.65-.25-.75-.6-1.6-.2 1.8-1.45.85.15.75.5 1.35.55 1.05.95 1.8v.25q.6.95 1.15.8.35-.15.25-1.25-.15-.3-.15-.55m-1.25-10.15q.1 2.55-1.45 1.3.4.9.15 1.65v.55q.35.65.9 1.5.1.65.1 1.05.65-.85.8-1.9.35-1.8-.5-4.15m-4.65 2.55q.3 2.1-1.4.65.75 1.7 1.9 2.85 1.15.5 2.35.5-.65-.9-1.05-2.05-.4 0-.75-.5-.55-.5-1.05-1.45m-.4-8.15q-.25 1.65-1.55.75.25.75.55 1.4.35 1.15.85 1.95l.15.1q.7.9 1.15.75.4-.1.15-1.25-.15-.3 0-.65-.4-.75-.6-1.4-.3-.8-.7-1.65m-.25-7.1q.25 2.3-1.3 1.25.15.95.15 1.7v.55q.5.6.75 1.9.15.25.15.5.5-.75.9-1.9.3-1.7-.65-4m-4.65 2.55q.2 1.95-1.4.5.75 1.8 2.05 2.75 1.15.75 1.95.75-.4-.9-.6-2.2-.55 0-.85-.35-.6-.5-1.15-1.45m1.05-4.45q-.25-.25-.25-.65-.25-.75-.6-1.6-.3-.6-.55-1.5-.3 1.7-1.55.75.3.75.5 1.4.55.95 1.05 1.8 0 .2.15.3.4.85.85.75.5-.1.4-1.25m-1.7-10.8q.45 2.3-1.25 1.15.3.9.3 1.8-.3.1 0 .5.35.55.75 1.7 0 .5.1.65.55-.65.75-1.95.2-1.55-.65-3.85m-4.45 2.4q.1 2.1-1.4.65.55 1.8 1.9 2.75 1.05.75 1.95.75-.25-.9-.75-2.2-.3-.15-.65-.5-.65-.6-1.05-1.45m-1.4-5.85q.35.9.9 1.65v.4q.6.85 1 .75.55-.1.35-1.4-.1-.1-.1-.5-.35-.8-.65-1.55-.2-.8-.6-1.65-.15 1.8-1.55.85.25.8.65 1.45m.75-9.1q.25 2.25-1.25 1.1.1.9.1 1.8-.097.145 0 .45v.05q.4.4.75 1.6 0 .35.2.75.45-.65.85-1.95.25-1.55-.65-3.8m-6.05 3.05q.8 1.8 2.05 2.7 1.15.75 2.1.75-.4-1.15-.75-2.15-.55-.1-.8-.55-.65-.6-1.2-1.35.2 2-1.4.6m2.45-5.15q-.1-.25-.1-.5-.4-.75-.75-1.55-.3-.75-.55-1.55-.25 1.7-1.45.8.2.75.4 1.4.55.9 1.05 1.7v.35q.55.9 1 .8.55-.3.4-1.45m-2.65-7.85q-.2.3 0 .55.35.65.75 1.8 0 .5.1.65.55-.65.75-1.95.2-1.55-.6-3.8.4 2.25-1.2 1.15.2.75.2 1.6m-4.9.3q.65 1.7 2.05 2.7.85.75 1.8.75-.3-1.1-.75-2.15-.3-.15-.65-.65-.5-.55-1.05-1.3.1 2.05-1.4.65m.9-8.9q-.15 1.8-1.5.8.2.7.6 1.45.5.95.9 1.8v.35q.6.9 1.15.6.4-.1.25-1.4-.15-.2-.15-.5-.2-.65-.65-1.4-.2-.9-.6-1.7m-1.4-4.2v.6q.5.55 1 1.8 0 .45.15.55.35-.55.65-1.8.2-1.5-.55-4.1.25 2.6-1.35 1.45.2.75.1 1.5M85 107q.4 1.8-1.4.65.75 1.7 2.05 2.55 1.15.65 2.05.95-.5-1.2-.8-2.45-.2 0-.75-.4-.5-.55-1.15-1.3m1.05-4.65v-.65q-.4-.5-.65-1.35-.4-.8-.6-1.6-.45 1.7-1.6.65.25.8.55 1.45.4 1 .85 1.9l.2.15q.6.9.95.75.55-.15.3-1.3z"/><path fill="#CCC" d="M144.7 241q-1.15-.9-2.05-.9.25.9.65 1.65 0 .3.1.4.25.4.65.5.75.65 1.15 1.7 0 .25.25.45.15.45.3.7 1.5 1.1 1.25-1.3-.1-.25-.1-.35-1.05-1.95-2.2-2.85m-4.6 1.8q-.3 1.55.35 3.45v.55q.3.25.5.65 1.7 1.4 1.4-.65-.1-.4-.2-.65-.15-.4-.15-.5-.5-1.05-.4-2.1.3-.65.4-.75v-.25q-.5-.8-1.05-1.8-.75.65-.85 2.05m.35-7.85v-.05-.2q-.5-.9-1.4-.75-.5.25-.1 1.8v.15q.35 1.15.85 2.3h.15q.5 1 .5 1.1 1.45 1.05 1.55-.75-.1-.1-.4-1.3-.1-.1-.1-.6-.55-1.05-1.05-1.7m-5.1-1q.2.35.5.75 1.5 1.4 1.4-.75-.1-.25-.25-.7-.25-.2-.25-.45-.55-.9-.25-1.95.1-.65.25-.75 0-.15-.15-.35-.5-.65-.75-1.7-.8.65-1.15 1.9-.15 1.7.65 3.5-.15.25 0 .5m2-6.55q.3.75.65 1.4v.65q.55.3.75.5.85.65 1.35 1.6 0 .35.1.45.25.4.25.8 1.7 1 1.45-1.25-.3-.45-.3-.7-.85-1.65-2.3-2.8-.9-.65-1.95-.65m-2-5.15q-.005-.156-.15-.35-.65-.8-1.3-.65-.65 0-.15 1.65v.15q.45 1.3.8 2.25h.15q.5 1.2.5 1.35 1.3.85 1.55-.8-.15-.35-.25-1.3-.3-.1-.4-.65-.25-1.25-.75-1.65m-1.15-6.9q-1.05-.65-1.95-.65.25.75.65 1.4-.3.3 0 .6.35.3.75.55.75.5 1.05 1.55.1.25.1.35.25.55.4.95 1.55 1 1.4-1.3-.1-.4-.4-.6-.65-1.8-2-2.85m-3 2.85q0-.65.4-.95-.15 0-.15-.25-.45-.8-1-1.9-.8.75-.9 2.15-.15 1.7.5 3.5 0 .2.1.5 0 .35.3.65 1.8 1.25 1.4-.65-.1-.3-.25-.8 0-.15-.15-.35-.35-1.05-.25-1.9m-2.4-9.65q-.65 0-.45 1.65.3.15.3.25.25 1.3.9 2.2l.5 1q1.15 1.15 1.4-.55 0-.3-.25-1.15-.1-.2-.2-.75-.55-1-.85-1.8-.002-.1-.3-.2-.45-.95-1.05-.65m-3.85 0q.25.5.5.75 1.55 1.25 1.4-.65-.1-.4-.3-.75-.2-.15-.2-.4-.4-1.05-.25-1.9.15-.65.25-.95l-.1-.25q-.45-.75-.8-1.8-.8.65-1 2.05-.3 1.7.5 3.35-.2.4 0 .55m2.05-6.45q.4.75.6 1.45v.65q.55.1.75.45.85.5 1.3 1.55 0 .25.2.4.2.35.3.9 1.6 1.05 1.3-1.4-.25-.3-.25-.5-.85-1.8-2.3-2.85-.85-.65-1.9-.65m-3.75-4.6l.15.1q.4 1.3.75 2.35l.3.1.3 1.15q1.35 1 1.6-.6-.1-.4-.4-1.3 0-.4-.15-.65-.35-1.3-.85-1.95-.002-.1-.3-.1-.5-.9-1.15-.65-.45 0-.25 1.55m-.75-6.05q.55.15.75.35.75.65 1.2 1.6.1.2.1.5.1.35.2.65 1.6 1.15 1.5-1.3-.15-.15-.3-.4-.75-1.9-2.15-2.85-1.05-.6-1.95-.6.25.8.5 1.45 0 .2.15.6m-1.45.25q-.5-.85-1-1.9-.8.65-.9 2-.1 1.6.5 3.5 0 .4.15.5 0 .25.25.65 1.8 1.4 1.4-.65-.1-.25-.2-.6 0-.4-.2-.55-.35-.9-.1-1.8 0-.6.3-1.05l-.2-.1m-2.65-8.45q-.65 0-.3 1.55l.15.1q.25 1.3.55 2.35.35 0 .35.1l.5 1.05q1.3 1 1.4-.8 0-.15-.35-1.3 0-.1-.15-.35-.35-1.25-.75-1.95-.004-.152-.25-.25-.5-.85-1.15-.5m-2.55-4.4q-.4-.75-.95-1.8-.75.65-.85 2.05-.4 1.55.35 3.5v.5q.15.25.5.65 1.55 1.4 1.45-.65-.15-.4-.4-.65 0-.4-.1-.5-.4-1.05-.3-1.9.1-.75.3-.95v-.25m.6-2.4q.35.75.65 1.65 0 .25.15.55.4.2.6.45.75.55 1.3 1.55.1.25.1.55.3.25.4.65 1.6 1.05 1.3-1.3 0-.3-.25-.5-.9-1.8-2.2-2.85-1.15-.75-2.05-.75m-3.6-4.35q0 .1.15.35.4 1.15 1.05 2.05.2 1.2.35 1.2 1.25.95 1.45-.85 0-.1-.3-.85 0-.4-.1-1.05-.55-.85-.9-1.5-.15-.1-.3-.55-.5-.75-1.15-.6-.75.2-.25 1.8m.55-7.45q-1.05-.65-1.9-.65.2.65.6 1.4-.15.35 0 .65.5.25.75.5.8.65 1.2 1.55.1.25.1.5.1.3.25.65 1.55 1.25 1.45-1.3-.2-.1-.3-.5-.75-1.8-2.15-2.8m-2.6 1.9l-.15-.1q-.5-.8-.85-1.95-.95.6-1.05 2.05-.1 1.55.5 3.45 0 .3.15.5.1.3.4.65 1.7 1.45 1.4-.65-.25-.35-.4-.6 0-.35-.15-.55-.35-.85-.1-1.9 0-.75.25-.9m-2.8-8.6q-.65 0-.3 1.55l.2.1q.2 1.3.6 2.2.25 0 .25.25l.5 1.05q1.3.9 1.55-.75-.15-.15-.5-1.2 0-.25-.15-.5-.25-1.3-.75-1.9v-.05q-.008-.255-.25-.4-.5-.75-1.15-.35m-3.5-6.2q-.75.7-.85 2.1-.4 1.5.35 3.5v.45l.5.5q1.6 1.45 1.4-.5-.1-.35-.2-.75 0-.25-.15-.4-.5-1.1-.4-1.95.1-.75.55-.85-.15-.1-.15-.3-.5-.85-1.05-1.8m2.45 1.6q.3.2.5.5.9.35 1.3 1.5.1.2.1.55.3.25.4.6 1.55 1.05 1.3-1.25 0-.25-.25-.55-.9-1.9-2.2-2.75-1.05-.65-2-.85.35.85.6 1.6 0 .4.25.65m-4.45-6.6v.15q.5 1.3.75 2.2.2 0 .4.1.25 1.15.35 1.15 1.25.95 1.55-.75 0-.1-.4-1.25-.1-.15-.1-.65-.4-1.15-.75-1.7-.3-.2-.4-.4-.45-.75-1.2-.65-.6.15-.2 1.8m-.85-6.25q.45.25.7.4.75.65 1.3 1.75 0 .15.1.5.15.3.25.55 1.7 1.15 1.25-1.15-.1-.35-.1-.55-.85-1.9-2.15-2.8-1.15-.75-2.1-.75.3.75.65 1.55 0 .4.1.5m-1.35.25q-.55-.75-.9-1.65-.9.45-1.05 2.05-.2 1.5.55 3.45-.15.15 0 .35.1.45.5.65 1.5 1.45 1.4-.65-.1-.2-.4-.6-.1-.25-.1-.35-.55-1.2-.35-2.1.2-.65.35-.75v-.4m-3-6.8q0 .3.2.4.35 1 .75 2.15l.5 1.15q1.4.95 1.55-.85-.15-.15-.35-1.05-.2-.4-.2-.75-.35-1.2-.75-1.6v-.05q-.105-.305-.25-.45-.5-.75-1.25-.65-.7.2-.2 1.7m-2.55-4.6q.15-.7.4-.8v-.35q-.5-.8-1.05-1.7-.75.65-.85 2.05-.4 1.55.45 3.45v.45q.2.35.4.6 1.6 1.4 1.4-.6-.1-.3-.2-.85 0-.1-.15-.2-.5-1.15-.4-2.05m5.2.1q-.95-1.9-2.1-2.8-1.15-.8-2.15-.8.35.8.75 1.55 0 .25.1.5.25.3.55.4.85.65 1.25 1.8.15.15.15.25.25.5.4.75 1.5 1.15 1.25-1.1 0-.4-.2-.55m-6.45-9.1q-.4-.8-1.05-.65-.75.15-.35 1.55v.4q.45 1.05.75 2.15h.25q.4 1.05.6 1.3 1.2.9 1.45-.8 0-.25-.4-1.25-.1-.15-.1-.65-.4-1.15-.75-1.8-.2-.15-.4-.25m-2.35-5.8q0 .3.15.5.4.45.6.55.85.65 1.35 1.7 0 .2.1.35.15.5.35.8 1.6 1.1 1.2-1.15-.15-.45-.15-.85-.85-1.6-2.3-2.75-1-.55-1.95-.55.45.75.65 1.4m-1.25 1.3v-.35q-.4-.85-.9-1.8-.8.6-1.15 1.9-.15 1.8.65 3.5-.1.2 0 .6.1.35.5.65 1.5 1.4 1.4-.65-.1-.4-.4-.8-.1-.1-.1-.45-.4-.95-.25-2 .1-.45.25-.6m-1.4-8q-.003-.103-.1-.2-.55-.75-1.35-.65-.65 0-.15 1.5v.2q.3 1.25.8 2.45h.15q.55.95.55 1.1 1.35 1 1.5-.8-.15-.2-.25-1.25-.15-.1-.15-.55-.5-1.25-1-1.8m-4.75-7q-.95.65-1.05 2.05-.25 1.65.5 3.45 0 .25.1.55.15.35.3.75 1.8 1.15 1.4-.65 0-.4-.1-.75-.1-.3-.3-.5-.35-.95-.25-1.95.25-.7.45-.9l-.2-.15q-.45-.9-.85-1.9m4.1 3.6q.25.35.35.45.2.55.2.85 1.6 1.15 1.35-1.45-.1-.15-.25-.5-.9-1.65-2.3-2.85-.9-.6-1.8-.6.25.85.65 1.35v.65q.35.4.75.55.75.6 1.05 1.55m-3.05-5.7q-.2-.2-.65-1.8-.4-1.5-1.15-2.15-.55-.9-1.05-.5-.65 0-.4 1.5.5 1.45 1.15 2.6l.5 1q1.15 1.05 1.6-.65z"/></g><g id="f"><path fill="#333" d="M83.2 245q1.05 0 1.8-1.15.75-1.3.75-2.75-.75 1.45-1.15 0-.25.65-.45 1.3-.4.8-.95.8-.75 0-1.15-.8l-.5-1.3q-.8 1.45-1.4-.65.4 2.1.85 3.4.95 1.15 2.2 1.15m.25-7.2v-.3q.15-.65.15-1.6v-1.2q-.8 1.2-1.45 0-.1.55 0 1.4v1.15q0 .45.2.55.1.85.45.85.5 0 .65-.85m-1.5-6.8q-.4-.5-.55-1.45-.75 1.45-1.25-.35.2 1.9.75 3.1.5.95 1.15 1.25v-.5q-.1-1.05 0-1.7-.1-.25-.1-.35m1.9 0q-.1.35-.25.65v1.9q.75-.3 1.3-1.25.75-1.2.75-2.75-.75 1.55-1.3 0-.1.95-.5 1.45m-.4-7.7q-.65 1.15-1.4 0-.1.6.1 1.4v1.25q0 .4.2.55.1.9.45.9.5 0 .65-.9v-.35q.15-.65.15-1.6-.15-.65-.15-1.25m-1.5-1.6q-.15-.95 0-1.6-.15-.3-.15-.4-.4-.65-.5-1.4-.75 1.4-1.3-.55.15 2.05.75 3.2.55.75 1.2 1.15v-.4m3.6-3.4q-.75 1.5-1.3 0-.1.75-.5 1.4-.15.4-.3.5v2.05q.8-.35 1.35-1.3.75-1.15.75-2.65m-2.1-6.35q-.75 1.15-1.4-.1-.1.8 0 1.45v1.4q0 .2.1.4.2 1 .55 1 .5 0 .6-1.2v-.1q.15-.65.15-1.5v-1.35m1.95-4.85q-.6 1.55-1.25 0 0 .8-.4 1.45-.15.35-.3.5v2.05q.8-.4 1.35-1.3.75-1.15.6-2.7m-3.45 1.55q-.15 0-.15-.1-.4-.65-.8-1.45-.45 1.45-1.1-.65.25 2.2.85 3.35.55.75 1.2 1.05v-.4q-.15-1.05 0-1.8m0-5.1q0 .25.1.45.1.95.4.95.55 0 .75-1.15v-.15q.1-.8.1-1.55v-1.3q-.85 1.2-1.35-.1-.15.75 0 1.4v1.45m3.45-7.75q-.8 1.4-1.25 0-.3.8-.55 1.3-.15.4-.3.5v2.15q.85-.35 1.3-1.25.8-1.15.8-2.7m-3.6 1.55q-.25-.15-.25-.25-.25-.5-.55-1.3-.65 1.4-1.1-.6.1 2.15.75 3.3.35.8 1.15 1.05v-.25q-.25-1.15 0-1.95m1.5-6.5q-.1-.65-.1-1.3-.75 1-1.4-.15-.25.8.15 1.45V192q0 .35.1.75.1.65.4.65.55 0 .75-.95v-.1q.1-.75.1-1.5m1.8-6.35q-.75 1.45-1.25 0-.1.65-.4 1.3-.15.4-.25.5v1.9q.65-.2 1.15-.95.75-1.3.75-2.75m-1.9-5.2v-1.2q-.85 1.2-1.4 0-.25.55 0 1.4v1.15q0 .45.15.55.1.85.4.85.45 0 .65-.85v-.1q.2-.85.2-1.8m1.8-5.95q-.65 1.4-1.25 0 0 .65-.3 1.15-.15.55-.25.75v1.8q.65-.1 1.15-1.15.75-1.15.65-2.55m-3.45-5v1.2q0 .35.25.6.15.75.35.75.55 0 .65-.9v-.1q.2-.8.2-1.8v-1q-.85 1-1.45-.2-.15.55 0 1.45m3.45-6.3q-.75 1.45-1.25 0-.15.5-.45 1.15-.1.4-.3.65v1.9q.75-.35 1.25-1.25.75-1 .75-2.45m-2-5.25q-.2-.65-.2-1.25-.75 1.25-1.4 0-.1.6.15 1.4v1.25q0 .25.25.55.15.85.35.85.55 0 .65-.85v-.45q.2-.5.2-1.5m1.9-6.3q-.75 1.55-1.3 0-.15.8-.4 1.45-.2.35-.4.65v1.9q.8-.4 1.35-1.3.75-1.15.75-2.7m-2.1-6.3q-.75 1.2-1.4-.1-.1.75 0 1.4v1.4q0 .3.15.5.25.95.5.95.4 0 .65-.95v-.35q.1-.65.1-1.55v-1.3m.4-3.45q-.2.4-.4.5v2.1q.8-.4 1.35-1.35.75-1.1.65-2.65-.65 1.55-1.35 0 0 .75-.25 1.4m-.5-6.4v-1.3q-.75 1.2-1.4-.15-.3.8 0 1.45v1.4q0 .4.1.5.15.9.55.9t.5-1v-.3q.25-.65.25-1.5m.75-6.35q-.15.85-.45 1.35-.2.35-.3.65v2q.75-.4 1.15-1.25.95-1.15.95-2.75-.95 1.45-1.35 0m-1-4.95v-1.3q-.65 1.15-1.45-.1-.1.75 0 1.4.3.75.3 1.25 0 .3.1.55.15 1 .55 1t.5-1.15v-.1q.25-.8 0-1.55m2.15-6.3q-.85 1.4-1.3 0-.1.75-.5 1.15-.1.55-.35.75v1.95q.85-.25 1.3-1.3.85-1.05.85-2.55m-2.15-6.25q-.65.95-1.45-.3-.1.95 0 1.4v1.35q0 .3.3.6.1.75.5.75.35 0 .55-.9v-.15q.1-.75.1-1.8v-.95m-2.95 62.2q.4 2.05 1.05 3.2.35.95 1 1.15v-.6q-.15-.9 0-1.6-.15-.1-.15-.35-.4-.5-.65-1.15-.6 1.4-1.25-.65m.1 11.15q.3 2.1.95 3.4.35.75 1 .95v-.45q-.15-1.05 0-1.7-.15-.1-.15-.25-.4-.65-.5-1.3-.75 1.45-1.3-.65m-.1-22.45q.1 2.1.85 3.1.4.9 1.05 1.25v-.45q-.1-1.05 0-1.7-.1-.1-.1-.4-.4-.65-.55-1.15-.75 1.15-1.25-.65m-.1-11.4q.1 2.05.75 3.2.5.75 1.15 1.3v-.55q-.3-1.15 0-1.65-.3-.25-.3-.35-.25-.65-.35-1.45-.75 1.45-1.25-.5m-.15-11.3q.25 2.2.9 3.3.5.8 1.15 1.15v-.5q-.3-.85 0-1.75-.3 0-.3-.15-.25-.65-.45-1.4-.65 1.4-1.3-.65m1.3-10.7q-.95 1.45-1.3-.6.15 2.2.75 3.35.55.75 1 1.05v-.3q-.1-1.15 0-1.8-.1-.1-.1-.35-.25-.5-.35-1.35m-.2-11.25q-.85 1.4-1.25-.65.15 2.15.8 3.2.45.95 1 1.15v-.4q-.15-.95 0-1.8-.15 0-.15-.35-.2-.4-.4-1.15z"/><path fill="#CCC" d="M82.35 237.8q-.2-.1-.2-.55v-1.15q-.75.3-1.25 1.05-.75 1.3-.75 2.8v.5q.6 2.1 1.4.65-.15-.35-.15-.65v-.5q.15-.9.55-1.5.1-.25.4-.65m2.55-.65q-.55-.9-1.3-1.25 0 .95-.15 1.6v.3q.3.1.4.65.5.6.5 1.5v.5q0 .3.25.65.4 1.45 1.15 0-.1-.35-.1-.65v-.5q0-1.5-.75-2.8m-1.45-5.6q0-1.35-.65-1.35-.45.3-.65.8-.1.1-.1.35-.1.65 0 1.7v.5q.1.75.1 1.15.65 1.2 1.45 0v-1.15-1.9q0-.1-.15-.1m-1.1-5.05q-.2-.15-.2-.55v-1.25q-.75.4-1.25 1.15-.75 1.05-.75 2.85v.5q.5 1.8 1.25.35v-.45-.4q.15-.95.55-1.6.1-.35.4-.6m1.1-.35v.35q.3.15.4.6.5.65.5 1.6V229.55q.55 1.55 1.3 0v-.35-.5q0-1.8-.75-2.85-.55-.9-1.3-1.3 0 .95-.15 1.6m-1.5-6.05q-.15.65 0 1.6v.4q.1.95.1 1.2.75 1.15 1.4 0v-1.05-2.05l-.15-.1q0-1.15-.6-1.15-.55.1-.65.75-.1.1-.1.4m1.35-5.3v.1q.3.45.45.95.5.55.5 1.5v.95q.55 1.5 1.3 0v-.55-.4q0-1.8-.75-2.75-.55-1.05-1.35-1.3 0 .85-.15 1.5m-1.15.3q-.1-.2-.1-.4v-1.4q-.75.25-1.3 1.3-.75.95-.75 2.75v.4q.55 1.95 1.3.55v-.65-.3q.1-.95.5-1.5.15-.5.35-.75m-.1-6.7q-.1.15-.1.25-.15.75 0 1.8v.4q.1.9.1 1 .65 1.25 1.4.1v-.85-2.05q0-.15-.15-.4 0-1.15-.6-1.05-.55 0-.65.8m1.15-4.75v.15q.25.2.4.6.55.75.55 1.7v1q.65 1.55 1.25 0v-.65-.35q0-1.7-.8-2.75-.45-.95-1.3-1.25 0 .75-.1 1.55m-1.15.35q-.1-.2-.1-.45v-1.45q-.95.3-1.3 1.25-.75 1.05-.75 2.75v.35q.65 2.1 1.1.65v-.65-.35q.3-.95.55-1.7l.5-.4m-.1-6.8l-.15.15q-.25.8 0 1.95v.25q.15 1.05.15 1.15.5 1.3 1.35.1v-1.05-2.15l-.1-.1q0-1.35-.75-1.05-.4 0-.5.75m2.65-5.4q-.45-.85-1.3-.95 0 .75-.1 1.5v.1q.25.3.4.65.55.8.55 1.55v1.15q.45 1.4 1.25 0v-.6-.55q0-1.55-.8-2.85m-1.4-3.6v-1.9q0-.1-.2-.1 0-1.3-.65-1.3-.4.25-.55 1.05-.25 0-.25.1-.15.65 0 1.7v.45q.25.95.25 1.2.65 1.15 1.4.15V188.2m-.2-7q.3.1.45.65.4.6.4 1.5v1.15q.5 1.45 1.25 0v-.65-.5q0-1.5-.75-2.8-.5-.9-1.15-1.25 0 .95-.2 1.8v.1m-1.2-6.7q-.25.25-.25.35-.15.7 0 1.6v.6q.25.8.25 1.05.55 1.2 1.4 0v-1.05-1.8q0-.2-.2-.4 0-1.25-.65-1.25-.4.3-.55.9m1.2-6.4q0 1-.2 1.8v.1q.4.15.5.65.45.7.45 1.55v1.15q.6 1.4 1.25 0v-.65-.5q0-1.55-.75-2.85-.5-.85-1.25-1.25m-.2-4.4q0-1.25-.65-1.25-.35.1-.6 1.05-.15 0-.15.1-.1.65 0 1.7v.45q.15.95.15 1.15.6 1.2 1.45.2V165.75v-1.9q0-.15-.2-.15m0-5.4v.45q.4.1.5.6.45.65.45 1.55v1.15q.5 1.45 1.25 0v-.65-.5q0-1.55-.75-2.8-.5-1.05-1.25-1.3 0 1-.2 1.5m0-5.7q0-.15-.1-.15 0-1.35-.65-1.35-.5.2-.65.85-.1.1-.1.35-.3.5 0 1.65v.55q.1.75.1 1.05.65 1.25 1.4 0v-1.05-1.9m-.1-5.55v.35q.3.2.5.65.4.5.4 1.55v.9q.55 1.55 1.3 0v-.5-.4q0-1.8-.75-2.85-.55-.95-1.35-1.25 0 .9-.1 1.55m.1-5.8q0-.1-.1-.35-.25-1.35-.75-1.05-.55.15-.55.75-.1.15-.1.3-.3.9 0 1.75v.5q.1.85.1.95.65 1.3 1.4.1v-.85-2.1m-.1-6.9q0 .85-.25 1.5v.3q.35.25.55.65.45.75.45 1.65v.9q.7 1.55 1.35 0v-.65-.25q0-1.8-.95-2.85-.4-.9-1.15-1.25m-.25-4.65q0-1.15-.5-1.05-.55 0-.65.8-.3.15-.3.25-.1.65 0 1.8v.3q.3 1 .3 1.1.65 1.35 1.4.15V132v-2l-.25-.3m0-5.1v.1q.35.4.55.65.45.75.45 1.55v1.1q.4 1.45 1.35 0v-.6-.5q0-1.55-.95-2.85-.4-.75-1.4-1 .25.75 0 1.55m-.1-11.2q.35.15.45.65.5.6.5 1.55v1.15q.45 1.4 1.3 0v-.65-.5q0-1.55-.85-2.85-.45-.85-1.3-1.3 0 1.05-.1 1.8v.15m.1-4.05q0-.95-.1-2.25-.2-1.25-.8-1.15-.55 0-.55.95-.25.45-.1 1.8.1 1.25.1 1.5.8 1.25 1.45.3v-1.15m-1.9 71.2q-.95 1.3-.95 2.8v.5q.55 2.1 1.3.65v-.65-.5q.1-.9.5-1.5.15-.4.55-.65-.15-.1-.15-.55v-1.15q-.9.25-1.25 1.05m.1 11.25q-.75 1.3-.75 2.85v.55q.45 2 1.1.6v-.6-.55q.3-.75.55-1.55.25-.25.5-.35-.1-.4-.1-.75v-1.15q-.95.2-1.3.95m-1.15-30.4q.5 1.8 1.25.65v-.65-.5q.15-.9.55-1.55.1-.4.5-.6-.25-.3-.25-.55v-1.25q-.8.4-1.2 1.15-.85 1.25-.85 2.8v.5m.85 7.95q-.85 1.3-.85 2.85v.5q.65 2.05 1.25.65v-.65-.5q.15-.85.55-1.55.1-.35.5-.5-.25-.25-.25-.6v-1.2q-.8.25-1.2 1m.3-19.5v-.25q.1-1.05.35-1.55.3-.35.55-.65-.15-.2-.15-.5v-1.4q-.75.3-1.25 1.25-.75 1.05-.75 2.85v.4q.5 1.95 1.25.5v-.65m-.1-10.5v-.65-.25q.1-.9.35-1.65.1-.4.5-.55-.1-.1-.1-.5v-1.4q-.75.35-1.3 1.25-.75 1.05-.75 2.85v.25q.65 2.05 1.3.65m-1.3-11.95q.35 2.05 1.3.6v-.6-.5q.1-.8.35-1.55.1-.25.5-.5-.1-.25-.1-.55 0-.5-.3-1.25-.45.25-1 1-.75 1.3-.75 2.85v.5m1.65-7.35v.4q.1 1.05.1 1.2.8 1.25 1.45.1v-1.15-1.95q0-.2-.1-.2 0-1.15-.55-1.05-.5 0-.8.75l-.1.1q-.15.85 0 1.8m-.55-3.3v-.65-.5q.2-.95.4-1.55.15-.35.55-.5-.3-.3-.3-.6v-1.35q-.65.4-1.1 1.15-.8 1.3-.8 2.85v.5q.4 2.05 1.25.65z"/></g><g id="g"><path fill="#CCC" d="M15.2 252.25q.6 2.85 19.5 4.75 17.7 1.95 42.05 2.15-5.85-.95-3.6-2.4 5.95-1.95 6.05-2.7.2-1.05-3.2-1.25-3.45-.55-10.4-.55-6.75-.1-3.8-1.5 2.8-1.45 4.45-2.2 1.6-.75-9-.65-3.95-1.4-.6-2.3-12.1.4-21.95 1.55-19.1 2.05-19.5 4.9v.2m88.15-6.9v1.15q0 .15-1.9 1.8-1.15.9-1.6 1.5v.75q.55 0 1.05.3.25.55.25.9 0 .9-2.05 1.8-2.8 1.45-2.8 1.55.4.5.5 1 .4.65.4 1.05-.9.5-2.3 1.05-.75.2-1.4.85 20.15-.25 35.4-2.05 18.85-1.9 19.5-4.75v-.2q-.4-2.85-19.5-4.9-11.45-1.3-25.55-1.8z"/><path fill="#FFF" d="M91.4 245.05h-9.45q-13.65 0-25.3.55-3.35.9.6 2.3 10.6-.1 9 .65-1.65.75-4.45 2.2-2.95 1.4 3.8 1.5 6.95 0 10.4.55 3.4.2 3.2 1.25-.1.75-6.05 2.7-2.25 1.45 3.6 2.4h8.15q5.65-.6 7-2.25 1.45-1.8-1.9-2.75-2.85-.95-2.95-.95-2.35-1.05-.9-2.65 1.55-1.35 5.9-2.65 3.45-1.55-.65-2.85z"/><path fill="#999" d="M103.15 245.35q-5.7-.15-11.75-.3 4.1 1.3.65 2.85-4.35 1.3-5.9 2.65-1.45 1.6.9 2.65.1 0 2.95.95 3.35.95 1.9 2.75-1.35 1.65-7 2.25 4.35 0 8.6-.1.65-.65 1.4-.85 1.4-.55 2.3-1.05 0-.4-.4-1.05-.1-.5-.5-1 0-.1 2.8-1.55 2.05-.9 2.05-1.8 0-.35-.25-.9-.5-.3-1.05-.3v-.75q.45-.6 1.6-1.5 1.9-1.65 1.9-1.8v-1.15h-.2z"/></g><g id="j"><path fill="url(#a)" d="M46.8 59.55L87.7-6.7Q25.6-34.75-22.6-97.35-30-103-38-102.25q-6.1.6-10.55 4.9-1.2 1.15-2.3 2.55-.1.15-1.8 1.55L-94-34.4l.6-.7q4.55-4.55 10.8-5.15 8.2-.8 15.75 5.15Q-13.5 29.85 46.8 59.55m64.1-70q-6.05-2.25-11.95-4.85-64.5-28.1-114.55-93.05-7.4-5.65-15.4-4.9-6.1.6-10.55 4.9-1.2 1.15-2.3 2.55-.1.15-.15.25l-.2.25-.4.6-5.5 7.8q2.15-1.75 2.25-1.9 1.1-1.4 2.3-2.55 4.45-4.3 10.55-4.9 8-.75 15.4 4.9Q30.25-36.6 94.95-8.85L47.15 68.7q-63-31.1-117.05-99.55-7.55-5.95-15.75-5.15-6.25.6-10.8 5.15-.2.2-.35.4l-8.55 12.15q5.5-6.45 14.1-7.5Q-82-27-74.6-21.35 6.95 69.15 57.2 82.6l46.95-79.85 6.75-13.2z"/><path fill="#272700" d="M47.15 68.7l47.8-77.55Q30.25-36.6-19.6-101.35-27-107-35-106.25q-6.1.6-10.55 4.9-1.2 1.15-2.3 2.55-.1.15-2.25 1.9l-2.55 3.65q1.7-1.4 1.8-1.55 1.1-1.4 2.3-2.55 4.45-4.3 10.55-4.9 8-.75 15.4 4.9Q25.6-34.75 87.7-6.7L46.8 59.55Q-13.5 29.85-66.85-35.1q-7.55-5.95-15.75-5.15-6.25.6-10.8 5.15l-.6.7-2.8 3.95q.15-.2.35-.4 4.55-4.55 10.8-5.15 8.2-.8 15.75 5.15Q-15.85 37.6 47.15 68.7z"/><path fill="#996" d="M51.25 88.45l5.95-5.85Q6.95 69.15-74.6-21.35-82-27-91.25-25.8q-8.6 1.05-14.1 7.5-.1.1-.2.25-.35.35-.65.75-5.7 7.35-4.5 16.65 1.15 9.25 8.55 14.9 79 50.95 126.5 97.9.8.6 1.65 1.2l7.75-8.85-2.65 2.35Q-20 60.45-96.3 10.15q-7.2-5.3-9-11.3-1.75-6.1 3-9.3.25-.15.55-.35.1-.05.15-.1 4.6-2.7 12.5-1.3.123.02.25.05 8.255 1.427 15.35 6.6 78.1 72.4 124.75 94M42 95.15q.686.457 1.4.95l3.2-3.1-1.1-1.85-3.5 4z"/><path fill="#5B5B3C" d="M45.5 91.15L46.6 93l4.65-4.55Q4.6 66.85-73.5-5.55q-7.095-5.173-15.35-6.6Q-24.69 49.683 42 95.15l3.5-4z"/><path fill="#7B7B52" d="M43.4 96.1q-.714-.493-1.4-.95-66.69-45.467-130.85-107.3-.127-.03-.25-.05-7.9-1.4-12.5 1.3-.05.05-.15.1-.3.2-.55.35-4.75 3.2-3 9.3 1.8 6 9 11.3 76.3 50.3 127.4 96.7l2.65-2.35 9.65-8.4z"/></g><path fill="#737373" d="M84.8 258.8h-8.15q-24.4-.2-42.1-2.15-18.85-1.9-19.5-4.75.65 8.35 19.5 14.4 19.5 6.15 47.25 6.15 27.45 0 47-6.15 18.85-6.05 19.5-14.4-.65 2.85-19.5 4.75-15.3 1.8-35.45 2.05-4.2.1-8.55.1z" id="m"/><g id="n"><path fill="#CCC" d="M270.25 168.85v.3q.25.1.35.75.1 1.05-.35 2 0 .2-.15.55-.15.3-.35.65 0 2.05 1.4.6.4-.35.5-.6.25-.35 0-.5.85-1.95.5-3.45-.1-1.4-1-2.1-.45 1.05-.9 1.8m-5.05 1.7q-.25 2.3 1.3 1.25.15-.35.4-.65v-.5q.5-1 1.4-1.65.25-.15.5-.5.3-.1.3-.4.25-.9.65-1.7-1.05 0-2.1.8-1.3 1-2.25 2.8 0 .3-.2.55m8.15-8.4v-.1q.35-1.5-.3-1.7-.75-.2-1.15.55-.246.148-.25.4-.5.65-.95 1.7 0 .5-.1.6-.1 1.2-.35 1.3.25 1.8 1.65.75 0-.1.4-1.3h.2q.45-1 .85-2.2m2.15-5.75q.1.15.25.8.15.9-.25 1.9 0 .3-.15.4-.2.5-.4.85-.1 2 1.45.55.35-.25.55-.55.1-.35 0-.75.75-1.65.6-3.3-.4-1.25-1.15-1.9-.3.85-.8 1.8-.1.1-.1.2m-1.3-.6v-.65q.3-.65.65-1.4-.9 0-1.9.65-1.4 1-2.35 2.8 0 .4-.1.6-.4 2.35 1.15 1.3.25-.35.4-.9.1-.1.1-.4.55-.95 1.3-1.5.25-.1.75-.5m6.55-12.5q0 .2-.1.2.35.3.35.95.15.95-.25 1.8-.1.4-.1.55l-.3.75q-.35 1.95 1.45.65.25-.25.25-.65.1-.25.1-.65.65-1.6.55-3.4-.15-1.5-.9-2-.5 1.05-1.05 1.8m-2.45 4.25q-.6-.15-1.25.65-.094.14-.1.35v.05q-.55.4-.85 1.65-.2.55-.35.65-.15.9-.25 1.3.25 1.65 1.55.75 0-.15.5-1.3h.15q.5-1.05.75-2.3v-.15q.5-1.65-.15-1.65m-2.7-2.45q-.1 2.3 1.45 1.15.1-.2.25-.75 0-.1.25-.4.25-1 1-1.6.4-.2.8-.45.25-.4 0-.6.35-.65.65-1.4-.9 0-1.8.65-1.45.95-2.3 2.75-.15.3-.3.65m8-8.3q0-.3.25-.4.2-1.55-.4-1.55-.65-.25-1 .65-.397.15-.4.25-.25.65-.75 1.8-.15.4-.3.75-.25.75-.25 1.05.25 1.8 1.4.75l.55-1.15q.6-1 .9-2.15m2.15-3.1v.5q-.25.4-.4.8-.1 1.9 1.45.65.35-.3.35-.8.3-.15 0-.5.95-1.65.8-3.45-.4-1.4-1.15-1.95-.3 1-.75 1.8l-.3.15q.3.4.4 1 .15.9-.4 1.8m-1.15-3.85q.3-.65.65-1.4-.9 0-1.95.65-1.4 1-2.3 2.8 0 .25-.25.35-.3 2.6 1.3 1.45.1-.4.4-.8.1-.1.1-.35.35-1.05 1.3-1.65.2-.25.75-.45v-.6m6.45-8.3q-.15.2-.3.6-.35 2.05 1.45.65.25-.4.25-.65.1-.25.1-.5.65-1.8.5-3.5-.1-1.4-.85-2-.5.95-1.05 1.9l-.1.1q.35.4.35.95.15 1-.25 1.9-.1.25-.1.55m-3.5 1.35q-.396 0-.4.15-.35.65-.65 1.9-.2.3-.2.65-.25.9-.55 1.25.4 1.7 1.7.55l.5-1 .15-.15q.5-1 .75-2.15l.1-.3q.4-1.5-.35-1.5-.5-.4-1.05.6m2.45-5.8q.1-.6.4-1.35-.95 0-1.8.5-1.45 1.05-2.3 2.85-.15.35-.25.45-.3 2.35 1.4 1.3.1-.35.2-.65 0-.25.3-.35.25-1.05 1-1.7.4-.2.8-.5.25-.25.25-.55m4-5.85l.25-.15q.2-1.55-.45-1.55-.6-.4-.95.45-.397.198-.4.35-.55.6-.75 1.9-.15.3-.15.4-.4 1.15-.4 1.3.25 1.8 1.4.75l.5-1q0-.3.3-.3.35-.85.65-2.15m2.45-6.05v.25q.1.1.2.95.15.75-.2 1.9-.3.1-.3.5-.1.25-.25.65-.1 2.05 1.4.55l.55-.55v-.5q.75-1.95.4-3.5-.2-1.4-.95-2.05-.5.9-.85 1.8m-1.45-.25q.15-.25.15-.65.25-.75.65-1.5-1.05 0-2.1.75-1.25.85-2.15 2.85-.15.2-.15.45-.35 2.3 1.15 1.35.3-.45.4-.65 0-.4.1-.55.55-1.05 1.3-1.55.3-.25.65-.5m11.85-25.15q0 .1-.3.4.4.1.5.85.15.75-.2 1.95-.3.1-.3.5-.15.25-.25.55-.3 2 1.4.6.3-.2.5-.6v-.45q.8-1.9.45-3.4-.2-1.45-.95-2.1-.5.95-.85 1.7m-8.9 17.45q-.1.35-.35.5-.3.7-.8 1.55-.15.65-.15.95-.2.85-.2.95.1 1.7 1.4.75.1 0 .4-.95.6-1.05.95-2.35.15-.1.15-.2.5-1.6-.35-1.8-.55-.2-1.05.6m4.5-6.45q-.4 1.2-.9 1.95l-.1.1q.4.2.4.95 0 1.05-.3 1.9-.1.1-.1.5-.15.25-.45.65-.2 1.9 1.45.55.25-.3.35-.55.15-.2.15-.5.65-1.95.5-3.5-.2-1.4-1-2.05m-1.65-.5q-.95 0-1.95.65-1.45 1.05-2.2 2.85-.1.4-.2.5-.3 2.55 1.4 1.3.1-.4.2-.65 0-.4.2-.55.35-.85 1.1-1.55.3-.35.8-.45.1-.3 0-.65.25-.8.65-1.45m2.15-7.55q.3-.3.3-.5 0-.45.2-.55.4-1.05 1.15-1.5.45-.4.8-.5.15-.3.15-.65.25-.85.45-1.6-.85.15-1.9.75-1.3.95-2.25 2.85v.55q-.4 2.3 1.1 1.15m.3 1.9q-.446.248-.45.4-.5.5-.75 1.8-.2.35-.2.65-.3 1-.4 1.15.4 1.65 1.5.8l.5-1.2q0-.1.3-.1.35-.95.65-2.2l.2-.1q.3-1.7-.35-1.7-.65-.25-1 .5M308 72.2q-.4.7-.8 1.8 0 .5-.15.7-.2.95-.2 1.25.1 1.65 1.35.75.15 0 .45-1.15.2-.1.35-.1.25-.95.8-2.2v-.15q.45-1.65-.4-1.8-.55-.1-1.05.65-.15.1-.35.25m4.85-6.9q-.4 1-.9 1.8v.4q.1.1.3.75.2.85-.3 2 0 .2-.15.45-.1.4-.4.6-.1 2.05 1.45.65.35-.25.55-.65.1-.2 0-.5.75-1.8.45-3.3-.25-1.45-1-2.2m-2.3 1.35q.1-.1.1-.35.4-.75.65-1.55-.85 0-2.05.8-1.25.9-2.2 2.8 0 .1-.1.55-.4 2.3 1.25 1.15.15-.3.25-.65.2-.3.2-.4.5-1.15 1.25-1.8.35-.1.65-.55m4.25-6q.1-.15.1-.35.5-1.6-.1-1.7-.75-.1-1.3.65-.097.097-.3.35v.05q-.35.5-.75 1.7 0 .45-.2.75-.2.85-.3 1.15.1 1.6 1.55.65l.55-1.05q.45-1.05.75-2.2m2.3-5.9q.25.25.35.9.1.9-.35 2.1-.15.1-.15.2-.15.55-.25.75-.25 2.1 1.4.65.3-.25.4-.65v-.5q.75-1.75.5-3.45-.1-1.45-.9-1.9-.55.9-1 1.65v.25m-2.1-.1q.4-.15.65-.4.3-.25.3-.5.2-.8.5-1.55-.9 0-1.95.75-1.3.9-2.25 2.8-.2.2-.2.4-.25 2.45 1.35 1.3.1-.25.2-.75 0-.15.25-.25.4-1.15 1.15-1.8m3.4-7.7q-.55.6-.85 1.8 0 .4-.1.6-.35 1.05-.35 1.2.25 1.8 1.4.85.25-.25.65-1.25h.1q.4-1.2.95-2.35v-.25q.5-1.35-.45-1.55-.6-.1-1 .65-.25.15-.35.3m3.95-5.2v.3q.1.1.25.9.15.9-.25 1.8 0 .25-.25.5 0 .5-.3.75-.1 2.1 1.45.65.25-.35.55-.65.1-.25 0-.65.75-1.8.6-3.4-.4-1.3-1.15-1.9-.5.95-.9 1.7m-2.05.2q.4-.2.65-.55.1-.25.1-.6.3-.55.65-1.45-1 0-1.95.7-1.35 1.1-2.3 2.9 0 .25-.1.5-.4 2.45 1.15 1.3.25-.25.4-.8.1-.1.1-.5.55-.85 1.3-1.5m5-7v-.1q.5-1.5-.15-1.5-.75-.3-1.25.65-.097.097-.1.2-.55.55-1.05 1.7 0 .55-.15.65-.15 1.05-.25 1.25.1 1.8 1.55.75 0-.1.5-1.25h.15q.35-1.05.75-2.35m2.45-6l-.25.3q.25.2.35.85.15 1.05-.1 1.9-.25.3-.35.55-.2.4-.2.8-.35 1.75 1.45.65.1-.4.25-.95.2-.1.2-.4.55-1.75.45-3.4-.15-1.45-1.05-2.1-.35 1.15-.75 1.8m-2.35.3q.4-.3.95-.55v-.65q.2-.6.5-1.4-.9 0-1.95.65-1.4 1.15-2.15 2.8-.15.4-.3.5-.35 2.45 1.45 1.4 0-.35.1-.75.25-.1.4-.5.25-.9 1-1.5m4.9-8.8q-.65-.2-1 .65-.8.7-1.15 2.1-.4 1.5-.65 1.9.35 1.8 1.6.65l.45-1.15q.6-1 1.15-2.45.2-1.7-.4-1.7z"/><path fill="#333" d="M266.5 171.8q-1.55 1.05-1.3-1.25-.75 2.3-.65 4 .4 2 1.8 2.4 1.3.55 2.85-.5 1.4-1.05 1.95-2.75-1.4 1.45-1.4-.6-.4.8-1.05 1.45-.75.6-1.4.2-.8-.2-.95-1.25 0-.9.15-1.7m6.85-9.65q-.4 1.2-.85 2.2.95 0 2-.75 1.25-.9 1.9-2.7-1.55 1.45-1.45-.55-.45.7-1 1.2-.4.5-.6.6m-3.1 2.75q-.3.75-.5 1.5-.4.8-.65 1.7 0 .3-.3.4-.1 1.25.4 1.4.55.1 1.05-.75v-.3q.45-.75.9-1.8.4-.65.75-1.4-1.4 1.05-1.65-.75m1.4-5.8q-1.55 1.05-1.15-1.3-.75 2.35-.55 4 .15 1.2.65 1.8.1-.1.1-.6.45-1.05.95-1.7 0-.403-.1-.65 0-.75.1-1.55m3.85-6.9q-.35.75-.65 1.55-.35.75-.65 1.4v.65q-.25 1.25.1 1.4.55.1 1.2-.8 0-.1.1-.2.5-.95.8-1.8.35-.8.65-1.45-1.3.9-1.55-.75m3.7-3.4q-.25.55-.75.55-.25 1.25-.75 2.3.85-.1 2-.75 1.3-.9 2.1-2.7-1.8 1.3-1.45-.65-.65.8-1.15 1.25m-2.15-2.55q-1.55 1.15-1.45-1.15-.75 2.3-.45 3.9.2 1.25.6 1.9.15-.1.35-.65.3-1.25.85-1.65v-.05-.6q-.2-.75.1-1.7m5.1-6.15q-1.15 1.05-1.4-.75-.4.85-.75 1.7-.3.75-.65 1.4.25.2 0 .6-.25 1.3.25 1.4.4.2 1.05-.95.1 0 .1-.2.55-.75 1.05-1.8.1-.75.35-1.4m-.1-4.35q0-.25-.15-.4 0-.75.15-1.65-1.6 1.15-1.3-1.45-.75 2.6-.4 4.15.1 1.25.65 1.9.15-.35.3-.75.5-1.15.75-1.8m2.3.55q-.4.5-.75.5-.3 1.15-.9 2.15 1.15 0 2.2-.65 1.25-.85 1.9-2.65-1.55 1.25-1.45-.65-.45.75-1 1.3m.9-7.85q-.35.75-.65 1.4v.6q-.25 1.05.1 1.3.55.15 1.05-.85l.3-.15q.45-.8.75-1.8.35-.65.65-1.55-1.3 1.15-1.7-.55-.25.85-.5 1.6m5.5-6.3q-.65.9-1.15 1.4-.25.55-.75.55-.25 1.15-.75 2.15.85 0 2-.75 1.3-1.05 2.1-2.7-1.8 1.4-1.45-.65m-3.6.5q0-.9.3-1.8-1.7 1.05-1.4-1.3-.8 2.35-.55 4 .25 1.15.8 2.05 0-.35.2-.65.3-1.25.65-1.9v-.4m3.25-6.9q-.3.75-.4 1.35 0 .3-.25.55-.3 1.15.25 1.25.4.2 1.05-.75l.1-.1q.55-.95 1.05-1.9.1-.65.35-1.45-1.15 1.05-1.4-.75-.4.9-.75 1.8m1-8.9q-1 2.3-.65 4 .3 1.15.8 1.8 0-.1.15-.4.2-1.3.75-1.9v-.55q0-.75.1-1.6-1.5.95-1.15-1.35m3.35 4q-.3.4-.75.4-.3 1.3-.65 2.15.9 0 1.95-.75 1.25-.85 2-2.65-1.5 1.5-1.4-.55-.5.9-1.15 1.4m.4-6.55q0 .4-.15.65-.25 1.15.3 1.25.5.2 1.15-.75v-.25q.35-.9.85-1.8.3-.6.55-1.45-1.3.95-1.4-.75-.4.75-.65 1.6-.4.75-.65 1.5m10-18.9q-.25.55-.75.55-.3 1.25-.65 2.2.85 0 1.9-.8 1.3-.9 2.05-2.7-1.7 1.4-1.4-.6-.5 1-1.15 1.35m3.05-8.7q-1.25.9-1.35-.75-.45.9-.85 1.5-.2.75-.45 1.6 0 .35-.15.65-.25 1.15.25 1.25.35.1.9-.75.3-.3.3-.4.35-.75.85-1.7.3-.65.5-1.4m-8.15 21.55q-.4.4-.85.4-.35 1.3-.95 2.35 1.1 0 2.15-.75 1.45-1.05 2.05-2.85-1.65 1.35-1.45-.55-.6.9-.95 1.4m-2.45-.5v-.5q-.2-.8.25-1.65-1.7 1.25-1.4-1.3-.85 2.35-.55 4.15.15 1.1.75 1.8 0-.3.15-.95.5-.85.8-1.55m2.55-6q.1.35 0 .65-.3 1.15.1 1.25.55.15 1.2-.8l.1-.1q.5-.75.9-1.95.25-.6.5-1.35-1.1.85-1.5-.8-.45.9-.65 1.65-.4.65-.65 1.45m2.65-6.7v-.5q0-.8.15-1.8-1.5 1.15-1.1-1.15-1.05 2.3-.85 3.8.45 1.3.85 2.1 0-.3.2-.65.25-1.3.75-1.8m7.65-12.35q-.45.4-.65.55-.55 1.25-.8 2.2.9 0 1.8-.75 1.45-1.05 2.05-2.75-1.55 1.4-1.45-.65-.35.75-.95 1.4m-2.25-2.65q-1.65 1.15-1.25-1.15-.95 2.3-.65 3.8.25 1.3.75 2 .15-.2.15-.7.4-1.1.8-1.8.2-.25 0-.35 0-1.05.2-1.8m5.3-6.15q-1.45.95-1.55-.65-.25.65-.65 1.5-.25.8-.65 1.55 0 .25-.1.35-.1 1.35.25 1.6.5.1 1.15-.75v-.4q.5-.8.9-1.8.35-.55.65-1.4m-.1-6.45q-1.6 1.15-1.35-1.3-.85 2.45-.65 4 .4 1.3.85 1.95.2-.3.2-.75.4-1.2.75-1.7v-.05q.194-.253 0-.35 0-1.05.2-1.8m2.15 2.7q-.25.35-.75.5-.3 1.15-.75 2.2.85 0 2-.75 1.3-1.05 2.05-2.75-1.65 1.45-1.4-.65-.55.85-1.15 1.45m2.95-8.75q-1.15.95-1.4-.85-.3.85-.65 1.65-.3.75-.5 1.55 0 .25-.3.5-.1 1.15.4 1.4.4.1 1.05-.9v-.25q.45-.75 1-1.65.3-.65.4-1.45m2.2-4.05q-.3.35-.5.45-.55 1.15-.95 2.35 1.05 0 1.9-.8 1.45-1 2.1-2.7-1.55 1.45-1.45-.65-.45.8-1.1 1.35m-2.2-2.6q-1.55 1.15-1.15-1.3-.9 2.45-.65 4 .25 1.3.75 1.9.1-.2.1-.6.3-1.2.85-1.8.1-.3 0-.65 0-.75.1-1.55m3.85-6.95q-.25.75-.65 1.55-.35.9-.65 1.45 0 .35-.1.6-.25 1.3.2 1.55.55.15 1.2-.9v-.3q.4-.75.9-1.7.25-.85.65-1.5-1.45 1.05-1.55-.75m1.45-3.6v-.6q-.3-.75.1-1.6-1.8 1.05-1.45-1.4-.75 2.45-.35 4.15 0 1.15.5 1.8.15-.1.15-.65.5-1.15 1.05-1.7m2.25.25q-.35.5-.75.5-.4 1.3-.75 2.35.85-.1 2-.75 1.3-.95 2.1-2.55-1.8 1.1-1.45-.65-.65.75-1.15 1.1m1.45-9.35q-.3.75-.65 1.55-.3.8-.5 1.4v.65q-.4 1.15.1 1.3.4.1 1.05-.75l.25-.3q.4-.65.75-1.8.25-.65.6-1.4-1.25 1.15-1.6-.65z"/></g><g id="o"><path fill="#333" d="M383.7 151.65q-.55-1.05-.75-2.3-.55 0-.95-.55-.35-.45-1-1.25.25 1.95-1.45.65.85 1.8 2.1 2.7 1 .65 2.05.75m12.45 18.9q.25 2.3-1.45 1.25.3.8.3 1.7-.3 1.05-1.05 1.25-.6.4-1.4-.2-.6-.65-1-1.45.1 2.05-1.4.6.6 1.7 2 2.75 1.6 1.05 2.85.5 1.4-.4 1.65-2.4.15-1.7-.5-4m-8.1-8.4q-.35-.1-.65-.6-.65-.5-1.15-1.2.3 2-1.4.55.65 1.8 1.9 2.7 1.2.75 2.1.75-.5-1-.8-2.2m3.6 4.25q-.25-.75-.65-1.5-.1 1.8-1.5.75.25.75.65 1.4.35 1.05.85 1.8v.3q.65.85 1.15.75.4-.15.3-1.4-.15-.1-.15-.4-.35-.9-.65-1.7m-2.05-7.3q.15.8.15 1.55-.147.245-.15.6v.05q.55.65.9 1.7 0 .5.25.6.35-.6.65-1.8.25-1.65-.5-4 .2 2.35-1.3 1.3m-3.05-5.35q-.4-.8-.65-1.55-.4 1.65-1.55.75.25.65.5 1.45.4.85.95 1.8.1.1.1.2.65.9 1 .8.5-.15.25-1.4v-.65q-.4-.65-.6-1.4m-2.2-7.5q.25.95.1 1.7v.65q.4.4.8 1.65.1.55.25.65.5-.65.65-1.9.4-1.6-.35-3.9.1 2.3-1.45 1.15m-7.95-7.95q1.15.65 2.3.65-.75-1-1.05-2.15-.35 0-.65-.5-.6-.55-1.15-1.3.3 1.9-1.4.65.65 1.8 1.95 2.65m4.85 2.75q-.25-.85-.75-1.7-.1 1.8-1.4.75.25.65.45 1.4.55 1.05.95 1.8 0 .2.1.2.65 1.15 1.15.95.55-.1.15-1.4-.15-.4 0-.6-.25-.65-.65-1.4m-2.05-7.35q.15.9.15 1.65-.15.15-.15.4.35.65.9 1.8.1.4.3.75.5-.65.6-1.9.25-1.55-.5-4.15.4 2.6-1.3 1.45m-2.4-3.85q-.4-.65-.65-1.4-.3-.75-.65-1.6-.4 1.7-1.55.55.3.9.5 1.55.4 1 .9 1.8l.15.15q.65 1 1 .85.5-.25.3-1.3v-.6m-2.85-9q.3.9.1 1.8v.4q.4.65.8 1.9.15.3.15.65.5-.9.85-2.05.3-1.65-.5-4 .15 2.35-1.4 1.3m-2.35 2.7q-.35-.5-.95-1.4.2 2.05-1.45.65.8 1.65 2.05 2.7 1 .75 2.05.75-.5-1-.75-2.15-.55 0-.95-.55m-.2-6.45q-.15-.6-.55-1.35-.2-.9-.75-1.8-.1 1.8-1.45.75.4.8.55 1.45.5.95.9 1.9l.1.1q.65.95 1.2.75.5-.1.1-1.25-.1-.25-.1-.55m-2.55-7.3v.55q.5.6.85 1.9.1.3.1.4.4-.65.85-1.8.2-1.7-.65-4 .2 2.3-1.35 1.35.2.85.2 1.6m-2.35 1.05q-.65-.5-1.05-1.4.15 2.05-1.4.55.75 1.8 1.95 2.65 1.15.75 1.9.75-.25-.85-.65-2.15-.35 0-.75-.4m-.3-6.55q-.35-.75-.6-1.5-.35-.85-.65-1.6-.15 1.7-1.4.75.1.85.5 1.45.4.9.9 1.8v.25q.65.95 1.05.75.5-.1.4-1.25-.2-.25-.2-.65m-2.55-7.05v.5q.4.7.8 1.55.15.65.15.95.65-.7.85-1.8.3-1.8-.5-4.15.15 2.55-1.4 1.3.25.85.1 1.65m-2.3 1q-.45-.5-1.1-1.4.2 1.9-1.45.55.75 1.8 2.1 2.85 1.1.75 2.1.75-.6-1.05-.85-2.35-.5 0-.8-.4m-.15-6.5q-.3-.8-.75-1.45-.2-.75-.6-1.65-.3 1.65-1.4.8.2.75.35 1.35.5 1.2 1.05 1.95v.1q.6.95 1.15.8.5-.1.2-1.25-.2-.3 0-.65m-2.75-7.2v.5q.45.5.85 1.8.1.35.1.65.45-.8.85-2.1.2-1.5-.7-3.8.3 2.3-1.1 1.15v1.8m-2.35.85q-.5-.35-1.05-1.35.15 2-1.35.6.75 1.8 1.9 2.7 1.15.8 1.9.8-.2-.95-.5-2.2-.55 0-.9-.55m-.1-5.7q-.2-.3-.2-.65-.2-.85-.6-1.6-.35-.6-.65-1.5-.1 1.65-1.4.75.1.75.55 1.4.35.95.85 1.7 0 .1.1.4.55.85.95.75.5-.1.4-1.25m-2.75-7.85q-.1.1 0 .35.55.7.8 1.8 0 .5.15.7.45-.7.85-2 .15-1.5-.6-3.8.2 2.3-1.3 1.15.1.75.1 1.8m-2.3.85q-.65-.65-1.15-1.4.15 2.05-1.4.65.65 1.7 2.05 2.75.9.75 1.95.75-.4-.95-.8-2.2-.35-.15-.65-.55m-1-7.95q-.3-.85-.5-1.5-.3 1.6-1.7.65.4.85.65 1.4.5 1 1.05 1.8v.4q.5.85 1 .75.5-.25.4-1.6-.25-.1-.25-.35-.3-.75-.65-1.55m-3.35-4.1q-.55-.15-.9-.5-.5-.6-1-1.45.1 2.1-1.4.65.75 1.7 2 2.75 1.05.75 2.05.75-.45-1.05-.75-2.2m2.55-4.5q.4 2.45-1.15 1.3.15.75.15 1.8-.145.097 0 .35v.05q.25.5.75 1.7 0 .45.15.75.5-.65.75-1.95.4-1.55-.65-4m-3.7-2.4q-.25-.8-.65-1.55-.25-.8-.65-1.65-.1 1.8-1.4.85.15.8.55 1.45.5.9.85 1.65v.25q.65 1 1.15.9.4-.25.25-1.4-.1-.25-.1-.5m-4.25-5.95q-.25-.1-.65-.45-.65-.55-1-1.35 0 2.1-1.45.65.55 1.7 1.95 2.7.9.8 1.95.8-.4-1.2-.8-2.35m1.55-3.05q.15.8.15 1.55-.15.35 0 .65.5.6.9 1.8 0 .4.1.6.35-.6.8-1.9.1-1.55-.65-4 .2 2.45-1.3 1.3m-2.7-1.8q.5-.25.4-1.55-.25-.25-.25-.6-.3-.55-.65-1.45-.25-.8-.5-1.55-.3 1.8-1.7.75.4.65.75 1.5.45.95.95 1.7v.3q.5 1.05 1 .9m-4.1-8q-.25 0-.8-.5-.35-.35-1-1.1.25 1.75-1.45.65.85 1.6 2.1 2.55 1 .65 1.95.75-.45-1.05-.8-2.35m1.4-2.95q.4.85.25 1.6v.6q.5.55.95 1.7 0 .55.1.65.5-.65.65-1.8.25-1.7-.55-4.15.4 2.45-1.4 1.4m-2.3-3.95q-.25-.6-.65-1.4-.25-.8-.65-1.55-.2 1.8-1.5.65.25.75.65 1.4.25 1.15.75 1.8l.1.3q.65.85 1.2.75.4-.15.1-1.3v-.65z"/><path fill="#CCC" d="M392.45 168.5q.35.35.65.5.75.65 1.25 1.65 0 .3.15.5.2.3.2.65 1.7 1.05 1.45-1.25-.25-.25-.25-.55-.9-1.8-2.15-2.8-1.2-.8-2.1-.8.3.8.65 1.7 0 .3.15.4m-2.85 4.1q-.1.15 0 .5.15.25.55.6 1.5 1.45 1.4-.6-.15-.35-.45-.65-.1-.35-.1-.55-.5-.95-.25-2 .15-.65.25-.75v-.3q-.5-.75-.85-1.8-.85.7-1.05 2.1-.25 1.5.5 3.45m1.15-9q-.25-.1-.25-.6-.35-1.05-.9-1.7v-.05q-.003-.205-.1-.35-.55-.75-1.3-.55-.7.2-.15 1.7v.1q.3 1.2.8 2.2h.1q.55 1.2.55 1.3 1.4 1.05 1.5-.75-.1-.1-.25-1.3m-4.85-7.2q0-.1-.1-.2-.55-.95-.95-1.8-.75.65-1.05 1.9-.1 1.65.65 3.3-.1.4 0 .75.15.3.4.55 1.7 1.45 1.4-.55-.1-.35-.25-.85-.1-.1-.1-.4-.55-1-.4-1.9.3-.65.4-.8m2.45-2q-.95-.65-1.8-.65.2.75.6 1.4v.65q.35.4.8.5.75.55 1.15 1.5 0 .3.2.4.2.55.3.9 1.5 1.05 1.3-1.3-.15-.2-.15-.6-1-1.8-2.4-2.8m-4-6.2q-.65-.8-1.3-.65-.65 0-.1 1.65v.15q.2 1.25.75 2.3h.1q.55 1.15.55 1.3 1.15.9 1.55-.75-.1-.4-.4-1.3-.15-.1-.25-.65-.4-1.25-.8-1.65v-.05q-.006-.21-.1-.35m-5.65-4.7q-.25 1.8.4 3.4 0 .4.1.65 0 .4.35.65 1.7 1.3 1.45-.65-.1-.25-.4-.75 0-.15-.1-.55-.3-.85-.1-1.8 0-.65.2-.95-.1 0-.1-.2-.4-.75-.95-1.8-.85.5-.85 2m4.45-1.8q-.85-.65-1.9-.65.4.75.65 1.4-.15.2 0 .6.5.25.75.45.8.6 1.15 1.6.2.3.2.4.1.55.35.75 1.55 1.15 1.45-1.15-.3-.35-.45-.65-.75-1.8-2.2-2.75m-4.2-6.2q-.5-.9-1.2-.65-.45 0-.2 1.55.1.1.1.4.3 1.15 1.05 2.15l.4 1.15q1.3 1.05 1.4-.75 0-.3-.1-1.05-.2-.35-.3-.75-.55-1.15-.9-1.8-.002-.1-.25-.25m-3.45-4.6l-.15-.15q-.5-.8-.9-1.8-.75.55-1.05 1.95-.1 1.8.65 3.45-.1.35 0 .5.2.5.4.8 1.7 1.25 1.4-.65 0-.4-.25-.8-.1-.15-.1-.5-.5-.9-.4-1.8.25-.6.4-1m.65-2.45q.25.75.65 1.4v.6q.5.2.75.45.75.6 1.15 1.65 0 .25.25.35.15.4.25.8 1.7 1.15 1.3-1.45-.1-.1-.1-.35-1.05-1.8-2.45-2.8-.95-.65-1.8-.65m-2.45-5.55q-.4-1-1.05-.6-.65 0-.4 1.5l.3.3q.25 1.15.75 2.15l.1.15.55 1q1.15 1.15 1.55-.55-.15-.35-.5-1.25 0-.35-.15-.65-.4-1.25-.8-1.9-.004-.15-.35-.15m-4.85-.75q0 .25.35.65 1.65 1.4 1.45-.65-.2-.4-.45-.6 0-.3-.1-.55-.3-.9-.1-1.9 0-.55.2-.95l-.1-.1q-.4-.95-.9-1.9-.8.6-.9 2-.3 1.7.35 3.5 0 .25.2.5m2-6.4q.4.75.55 1.35 0 .3.1.55.5.3.75.5.8.65 1.15 1.7.15.1.15.35.15.3.4.65 1.55 1.05 1.4-1.3-.25-.1-.35-.45-.75-1.8-2.2-2.85-.9-.5-1.95-.5m-3.7-4.65l.1.15q.4 1.3.65 2.15.4 0 .4.3l.35 1q1.35 1.05 1.45-.75 0-.15-.3-1.3 0-.1-.1-.4-.35-1.3-.85-1.9-.005-.153-.3-.35-.55-.85-1.15-.45-.5 0-.25 1.55m-2.55-4.7q.2-.85.35-.95v-.25q-.5-.9-.9-1.8-.9.65-1.05 2.05-.2 1.55.55 3.5v.5q.1.25.5.55 1.55 1.5 1.4-.55-.2-.4-.35-.65 0-.4-.15-.5-.5-1.15-.35-1.9m1-3.6q.25.75.6 1.5 0 .4.2.65t.65.5q.75.5 1.25 1.55.1.15.1.55.15.2.25.65 1.55.95 1.35-1.35 0-.25-.2-.45-.95-2-2.15-2.85-1.15-.75-2.05-.75m-2.15-5.55q-.55-.8-1.2-.6-.75.2-.25 1.8 0 .1.15.2.25 1.3.85 2.35.45.95.55.95 1.25.95 1.4-.75 0-.1-.35-.95 0-.3-.15-.95-.4-.85-.8-1.55-.1-.15-.2-.5m-5.55-4.4q-.3 1.55.55 3.5v.5q.2.25.35.55 1.65 1.35 1.45-.55-.2-.4-.4-.65v-.5q-.45-.85-.3-1.9 0-.75.3-.95v-.1q-.55-.75-1.05-1.95-.75.65-.9 2.05m4.5-1.9q-.9-.65-1.95-.65.45.65.75 1.45-.2.35 0 .65.45.1.8.45.8.7 1 1.55.15.15.15.55.3.25.4.65 1.55 1.25 1.4-1.3-.15-.1-.35-.5-.8-1.8-2.2-2.85m-3.95-5.9q-.003-.153-.3-.4-.55-.75-1.15-.5-.55 0-.25 1.7l.25.1q.3 1.25.5 2.2.4 0 .4.1l.55 1.2q1.1.85 1.4-.8 0-.15-.45-1.15 0-.3-.1-.65-.4-1.3-.85-1.8m-3.8-4.85q-.1-.3-.1-.4-.5-.75-.85-1.7-.95.65-1.05 2.1-.25 1.5.5 3.4v.45q.1.4.55.6 1.5 1.4 1.35-.6-.2-.3-.4-.55 0-.4-.1-.5-.5-1.2-.35-1.95.25-.75.45-.85m1.15-1.15q0 .35.2.65.25.1.65.5.75.45 1.25 1.5.15.1.15.55.1.2.4.5 1.4 1.15 1.1-1.15 0-.4-.15-.55-.95-1.9-2.1-2.85-1.2-.6-2.1-.75.4.75.6 1.6m-4.2-5.95v.15q.4 1.25.8 2.2.1 0 .25.1.4 1.15.5 1.15 1.3.9 1.4-.75 0-.3-.35-1.25-.15-.2-.15-.7-.25-1.1-.8-1.8-.1-.15-.2-.25-.55-.75-1.15-.65-.8.15-.3 1.8m-1-6.8q0 .25.25.35.25.45.5.55.9.65 1.3 1.8 0 .1.1.4.3.35.4.65 1.5 1.15 1.3-1.15-.25-.45-.25-.55-.95-1.9-2.2-2.8-1.05-.8-2.05-.8.35.8.65 1.55m-1.15 1.2v-.4q-.55-.8-1.05-1.8-.75.75-.9 2.2-.4 1.5.5 3.3-.25.3 0 .5.15.4.4.65 1.55 1.4 1.4-.65-.15-.2-.25-.6-.1-.25-.1-.45-.55-1.15-.4-2 .1-.65.4-.75m-3.1-7.2q0 .2.25.35.3 1.15.75 2.2l.4 1.05q1.4.95 1.7-.65-.3-.3-.4-1.15-.15-.3-.15-.75-.5-1.2-.75-1.7v-.05q-.158-.253-.4-.35-.4-.75-1.15-.65-.65.1-.25 1.7m-1.65-1.6q-.15-.2-.45-.75 0-.1-.1-.2-.35-1.2-.25-2.1.15-.65.25-.9v-.25q-.35-.75-.85-1.65-.95.45-.95 1.9-.35 1.7.4 3.45v.5q.15.4.55.65 1.5 1.45 1.4-.65m.1-6.5q.4.75.65 1.55 0 .25.1.5.4.25.7.4.75.65 1.25 1.8.15.1.15.25.1.5.35.75 1.55 1.15 1.15-1.3 0-.2-.1-.4-.9-1.9-2.15-2.8-1.2-.75-2.1-.75m-3.6-4.65v.25q.4 1.15.8 2.35h.1q.55 1 .65 1.25 1.3.95 1.4-.85 0-.15-.25-1.2-.1-.2-.1-.6-.4-1.2-.9-1.8-.15-.15-.25-.3-.55-.75-1.15-.65-.85.2-.3 1.55m-2.15-5.5v-.3q-.5-.75-.95-1.7-.85.6-1.15 1.9-.2 1.6.65 3.4-.25.4 0 .65.15.3.5.65 1.45 1.45 1.45-.65-.25-.25-.4-.75-.1-.25-.1-.5-.5-.9-.4-1.8.1-.8.4-.9m1.4-.65q.2.35.5.55.9.65 1.4 1.5v.5q.3.55.4.8 1.5 1.15 1.3-1.3-.15-.25-.15-.5-1-1.8-2.4-2.9-.95-.7-1.95-.7.35.9.65 1.45 0 .35.25.6m-6.8-12.45q-.5-.65-.75-1.8-.95.65-1.15 2.1-.2 1.65.5 3.4 0 .3.1.4.15.55.35.95 1.7 1.1 1.45-.65 0-.4-.25-.8-.15-.25-.25-.55-.3-.85-.1-1.9.1-.65.2-.85l-.1-.3m2.3 5.9v.1q.35 1.3.8 2.35h.2q.4 1.15.4 1.25 1.4 1.05 1.7-.75-.3-.2-.4-1.25-.1-.1-.1-.65-.45-1.15-.95-1.7-.002-.1-.25-.2-.4-.95-1.15-.65-.65 0-.25 1.5m-.15-5.6q.8.6 1.15 1.5.2.4.3.5.1.4.1.75 1.8 1.05 1.4-1.4-.1-.1-.2-.5-.8-1.65-2.25-2.8-.95-.65-1.9-.65.4.8.65 1.4v.65q.5.25.75.55m-2.65-6.05q-.25-1.4-1.05-2.1-.55-.85-1.2-.65-.6 0-.2 1.7.4 1.45 1.05 2.45l.5 1.15q1.3 1.15 1.5-.65-.1-.4-.6-1.9z"/></g><g id="p"><path fill="#333" d="M331.1 168.85q-.3-.65-.4-1.3-.75 1.45-1.4-.6.25 2.05.85 3.35.75 1.15 2.1 1.15 1.1 0 1.9-1.15.8-1.3.8-2.75-.8 1.45-1.3 0-.1.65-.5 1.3-.25.8-.9.8-.7 0-1.15-.8m1.6-6.5v-1.3q-.75 1.3-1.35 0-.25.75 0 1.4v1.3q0 .4.1.5.1 1.05.5 1.05t.55-1.05v-.3q.2-.6.2-1.6m-2.15-6.15q-.9 1.4-1.25-.55.1 2.05.75 3.1.5.85 1.05 1.25v-.5q-.2-1.05 0-1.7-.2-.1-.2-.2-.2-.75-.35-1.4m3 0q-.2.65-.55 1.4-.1.2-.3.5v1.9q.85-.4 1.2-1.25.9-1.05.9-2.55-.9 1.5-1.25 0m-.85-5.2q-.2-.6-.2-1.25-.55 1.15-1.4 0-.2.65.25 1.4v1.25q0 .4.1.55.1.9.5.9t.55-.9v-.35q.2-.55.2-1.6m.2-4.85q-.2.4-.4.5v2.05q.85-.35 1.25-1.3.75-1.15.75-2.65-.75 1.5-1.15 0-.2.75-.45 1.4m-2.6-1.4q-.75 1.4-1.2-.4.2 1.9.85 3.05.35.8.95 1.2v-.4q-.1-1 0-1.65-.1-.3-.1-.4-.25-.65-.5-1.4m.8-5v1.4q0 .35.25.55.1.85.4.85.5 0 .6-1.05v-.25q.15-.6.15-1.5v-1.35q-.75 1.2-1.4-.1-.2.75 0 1.45m1.8-4.75q-.2.35-.4.5v2.05q.85-.25 1.25-1.25.75-1.2.65-2.75-.65 1.55-1.25 0 0 .8-.25 1.45m-2.1 0q-.25-.65-.65-1.45-.6 1.45-1.25-.65.4 2.2 1.05 3.4.35.75.95 1.15v-.55q-.1-.9 0-1.8-.1 0-.1-.1m.1-7.85q-.1.75 0 1.4v1.4q0 .4.2.5.25.95.45.95.55 0 .7-1.05v-.25q.1-.8.1-1.55v-1.25q-.8 1.15-1.45-.15m2.25-4.85q-.15.75-.45 1.25-.2.55-.35.65v2.05q.8-.35 1.3-1.3.75-1.15.75-2.65-.75 1.4-1.25 0m-2.45 1.25q-.4-.5-.55-1.25-.75 1.4-1.25-.65.2 2.15.75 3.3.5.8 1.15 1.05v-.25q-.1-1.15 0-1.95-.1-.1-.1-.25m.1-7.7q-.1.8.1 1.45v1.25q0 .25.2.55.25.85.45.85.55 0 .7-1.05v-.1q.1-.75.1-1.5-.1-.65-.1-1.35-.7 1.15-1.45-.1m-.1-3.3q-.15-.15-.15-.3-.4-.65-.5-1.3-.75 1.45-1.3-.6.15 2.05.8 3.35.5.75 1.15 1v-.35q-.15-1.2 0-1.8m1.8-.3q-.15.4-.25.65v1.8q.75-.25 1.3-1 .75-1.3.75-2.75-.75 1.45-1.3 0-.1.65-.5 1.3m-.25-7.85q-.8 1.35-1.45 0-.1.8 0 1.55v1.2q0 .4.1.5.2.9.55.9.5 0 .65-.9v-.1q.15-.8.15-1.8v-1.35m-1.7-3.3q-.4-.65-.6-1.3-.65 1.4-1.3-.6.25 2 .9 3.3.5.8 1.15 1.05v-.65q-.15-.95 0-1.55-.15-.15-.15-.25m2.35-1.3q0 .65-.4 1.3-.15.4-.25.5v1.95q.75-.15 1.3-1.05.75-1.3.6-2.7-.6 1.4-1.25 0m-.8-5.25v-1q-.75 1-1.4-.15-.15.6 0 1.45V96q0 .35.1.65.1.75.55.75.4 0 .6-.95v-.1q.15-.75.15-1.8m-1.8-4.9q-.25-.5-.35-1.15-.85 1.15-1.3-.65.1 2.1.75 3.1.55 1.05 1.15 1.25v-.45q-.25-1.05 0-1.7-.25-.1-.25-.4m2.6-1.15q-.2.65-.55 1.15-.1.4-.25.65v1.9q.8-.2 1.25-1.25.8-1 .8-2.45-.8 1.45-1.25 0m-.8-5.25q-.15-.6-.15-1.15-.85 1.15-1.4 0-.25.55.15 1.4v1.15q0 .4.1.55.1.85.55.85.4 0 .6-.85v-.3q.15-.75.15-1.65m.15-4.85q-.15.35-.3.65v1.9q.75-.3 1.2-1.25.75-1.2.75-2.75-.75 1.55-1.2 0-.2.8-.45 1.45m-1.95.35q-.15-.25-.15-.35-.2-.65-.5-1.45-.75 1.45-1.15-.35.15 1.9.8 3.1.35.75 1 1.25v-.5q-.15-1.05 0-1.7m.25-6.8v1.4q0 .3.15.5.1.95.4.95.45 0 .65-.95v-.35q.2-.6.2-1.55V70.7q-.85 1.15-1.4-.15-.25.75 0 1.4m1.7-4.75q-.15.4-.3.5v2.05q.75-.35 1.2-1.3.75-.95.6-2.65-.6 1.7-1.25 0 0 .75-.25 1.4m-1.95.3q-.15 0-.15-.3-.2-.65-.6-1.4-.65 1.4-1.3-.65.4 2.35 1.05 3.3.35.85 1 1.2v-.55q-.15-.85 0-1.6m0-8.15q-.15.8 0 1.45v1.4q0 .25.25.5.15.9.35.9.55 0 .65-1.15v-.15q.2-.5.2-1.5v-1.25q-.85 1.1-1.45-.2m-.15-3.2q-.1-.1-.1-.4-.4-.45-.5-1.25-.8 1.45-1.3-.65.25 2.2.85 3.35.45.75 1.05 1v-.25q-.1-1.15 0-1.8m3.6-1.65q-.75 1.45-1.25 0-.15.8-.4 1.25-.15.4-.35.7v2.05q.75-.4 1.25-1.3.75-1.15.75-2.7m-2.2-7.35q.8-.35 1.35-1.25.75-1.15.75-2.7-.75 1.4-1.3 0-.1.75-.4 1.3-.2.4-.4.5v2.15m0 1.05q-.75 1.15-1.4-.1-.1.75 0 1.4.15.75.15 1.25 0 .3.25.65.15.95.35.95.55 0 .65-1.2v-.1q.2-.8 0-1.55v-1.3m-1.5-1.8q-.1-.85 0-1.65-.1 0-.1-.25-.4-.55-.55-1.3-.75 1.4-1.25-.6.1 2.15.75 3.3.5.75 1.15 1.05v-.55m1.4-6.65q.1-.75.1-1.8V36.9q-.75 1.05-1.4-.15-.1.85 0 1.5v1.1q0 .4.15.7.25.75.5.75.55 0 .65-.95v-.1z"/><path fill="#CCC" d="M331.35 162.45q-.8.4-1.3 1.15-.75 1.3-.75 2.8v.55q.65 2.05 1.4.6-.15-.35-.15-.6v-.55q.15-.85.35-1.5.2-.3.55-.65-.1-.1-.1-.5v-1.3m2.55 1.15q-.35-.9-1.2-1.25 0 1-.2 1.6v.3q.4.1.5.65.55.65.55 1.5v.55q0 .25.1.6.5 1.45 1.3 0-.15-.35-.15-.6v-.55q0-1.5-.9-2.8m-2.8-5.8q-.2.65 0 1.7v.5q.25.8.25 1.05.6 1.3 1.35 0V160v-1.9q0-.15-.2-.15 0-1.3-.55-1.3-.5.2-.6.95-.25.1-.25.2m-.2-4.2q.2-.35.55-.65-.1-.15-.1-.55v-1.25q-.8.4-1.3 1.15-.75 1.15-.75 2.85v.5q.35 1.95 1.25.55v-.8-.25q.15-.95.35-1.55m3.9 2.05v-.5q0-1.7-.9-2.85-.35-.85-1.2-1.3 0 1.05-.2 1.6v.35q.4.1.5.65.55.6.55 1.55v1.05q.35 1.5 1.25 0v-.55m-3.9-9.1q-.1.65 0 1.65v.4q.2.9.2 1.15.85 1.15 1.4 0v-1.05-2.05l-.15-.1q0-1.15-.6-1.15-.4.1-.65.75-.2.1-.2.4m1.6-6.8q0 .9-.15 1.5v.25q.35.3.55.7.45.75.45 1.6v.95q.4 1.5 1.15 0v-.4-.55q0-1.8-.75-2.75-.4-.95-1.25-1.3m-1.4 0q-.8.35-1.15 1.3-.85.95-.85 2.75v.55q.45 1.8 1.2.4v-.65-.3q.25-.85.5-1.6.1-.4.55-.5-.25-.2-.25-.55v-1.4m0-4.9q-.2.15-.2.25-.1.9 0 1.8v.55q.2.75.2.85.65 1.3 1.4.1v-.85-2.05q0-.15-.15-.4 0-1.15-.6-1.05-.4 0-.65.8m-.2-6.3q-.75.4-1.25 1.3-.75 1.05-.75 2.7v.35q.65 2.1 1.25.65v-.65-.35q.15-.8.55-1.65.1-.25.4-.45-.2-.1-.2-.5v-1.4m3.5 4.35v-.35q0-1.65-.75-2.7-.5-.9-1.3-1.3 0 .75-.1 1.55v.25q.25.1.45.55.45.85.45 1.65v1q.6 1.55 1.25 0v-.65m-2.85-10q-.45 0-.65.8l-.1.1q-.1.8 0 1.95v.25q.1 1.05.1 1.15.65 1.3 1.45.15v-1.05-2.05l-.1-.1q0-1.3-.7-1.2m.7-4.1v.1q.25.2.45.65.45.8.45 1.7v1.05q.5 1.4 1.25 0v-.65-.4q0-1.7-.75-2.85-.5-1-1.3-1.1 0 .75-.1 1.5m-3.35 2.45v.4q.5 2.05 1.25.65v-.65-.4q.15-.9.55-1.7.1-.2.4-.45-.2-.3-.2-.55v-1.25q-.75.25-1.25 1.1-.75 1.15-.75 2.85m3.35-8.35q0-.25-.15-.25 0-1.15-.65-1.15-.55.1-.65.9-.1 0-.1.15-.15.6 0 1.8v.35q.1 1.05.1 1.15.75 1.25 1.45.1v-1.25-1.8m-3.5-3.1v.55q.55 2.05 1.3.6v-.6-.55q.1-.85.5-1.5.15-.3.35-.65-.1-.1-.1-.5v-1.2q-.75.25-1.25 1.05-.8 1.3-.8 2.8m3.5-8.2q0-.1-.15-.25 0-1.3-.65-1.3-.55.2-.65 1.05-.1.1-.1.25-.15.6 0 1.55v.65q.1.75.1.85.65 1.35 1.45 0v-.85-1.95m2.05 9.35v-.6-.55q0-1.5-.75-2.8-.55-.9-1.3-1.25 0 1-.15 1.8v.1q.25.1.4.65.5.65.5 1.5v1.15q.55 1.45 1.3 0m-3.6-16.1q-.75.2-1.3.95-.75 1.3-.75 2.85v.55q.65 2 1.3.6v-.6-.55q.1-.9.35-1.55.25-.25.5-.45-.1-.3-.1-.65v-1.15m2.65.95q-.45-.85-1.25-1.25 0 1.05-.15 1.8v.1q.3.2.4.65.55.65.55 1.55v1.15q.65 1.4 1.25 0v-.6-.55q0-1.55-.8-2.85m-2.8-5.75q-.25.65 0 1.7v.45q.15.95.15 1.2.65 1.15 1.4.15V92.2v-1.9q0-.1-.15-.1 0-1.3-.6-1.3-.55.25-.65 1.05-.15 0-.15.1m1.4-5.15v.3q.3.1.4.65.55.6.55 1.5v1.15q.45 1.45 1.25 0v-.65-.5q0-1.5-.8-2.8-.45-.95-1.25-1.3 0 .9-.15 1.65m-1.65.95q.25-.45.5-.65-.1-.15-.1-.55V83.5q-.75.25-1.3 1.05-.75 1.3-.75 2.8v.5q.45 1.8 1.3.65v-.65-.5q.1-.9.35-1.5m.25-7.45q-.25.1-.25.35-.15.65 0 1.7v.5q.25.75.25 1.15.55 1.15 1.4 0v-1.15-1.9q0-.2-.2-.2 0-1.25-.65-1.25-.4.15-.55.8m1.2-4.9v.35q.35.15.5.65.45.65.45 1.6V76.95q.45 1.55 1.2 0v-.35-.5q0-1.8-.75-2.85-.45-1.05-1.2-1.3 0 .95-.2 1.55m-1.2-.15v-1.4q-.9.25-1.25 1.3-.8 1.05-.8 2.85v.5q.4 1.8 1.15.35v-.65-.2q.3-.95.5-1.6.15-.35.55-.65-.15-.2-.15-.5m.35-7.05q-.35.15-.35.8-.25.1-.25.4-.15.75 0 1.6v.55q.25.8.25.9.55 1.3 1.4.15v-.95-2.05q0-.1-.2-.2-.2-1.3-.85-1.2m-.85-2.95q.1-.5.5-.65-.25-.25-.25-.5v-1.4q-.75.25-1.2 1.3-.85 1.15-.85 2.75v.3q.65 2.05 1.3.65v-.65-.3q.1-.95.5-1.5m3.7 1.5q0-1.6-.75-2.75-.5-1.05-1.25-1.3 0 1-.2 1.5v.15q.4.4.55.9.4.55.4 1.5v.95q.65 1.7 1.25 0v-.65-.3m-2-6.35v-2.05l-.2-.3q0-1.15-.65-1.05-.35 0-.6.85-.15.1-.15.2-.1.65 0 1.8v.25q.15 1.05.15 1.15.6 1.3 1.45.2V58.5m-.2-7.45v.1q.4.45.55.65.4.75.4 1.5V54.5q.5 1.45 1.25 0v-.65-.55q0-1.5-.75-2.75-.5-.75-1.45-1.05.2.75 0 1.55m-1.4-1.55q-.6.3-1.05 1.05-.85 1.25-.85 2.75v.55q.5 2.1 1.3.65v-.65-.55q.1-.75.5-1.5.1-.2.5-.4-.25-.35-.25-.65 0-.5-.15-1.25m1.3-4.6q0-1.35-.65-1.05-.5 0-.65.75l-.1.15q-.1.8 0 1.65v.55q.1.85.1 1.15.65 1.25 1.4.1v-1.05V45q0-.1-.1-.1m-1.15-4.85q-.15-.3-.15-.7v-1.1q-.75.2-1.25.95-.75 1.3-.75 2.85v.55q.5 2 1.25.6v-.6-.55q.15-.9.55-1.55.1-.25.35-.45m1.25-2.1q0 1.05-.1 1.8v.1q.3.2.5.65.4.65.4 1.55v1.15q.55 1.4 1.3 0v-.6-.55q0-1.55-.75-2.85-.55-.85-1.35-1.25m-.1-4.35q-.1-1.3-.75-1.05-.55 0-.55.8-.2.65-.1 1.75.1 1.35.1 1.65.65 1.2 1.4.15v-1.1q0-.95-.1-2.2z"/></g><g id="q"><path fill="#CCC" d="M328.25 180.15q.15-.95-3.25-1.2-3.3-.5-10.2-.5-6.95-.1-4-1.55 2.85-1.4 4.65-2.15 1.5-.85-9-.65-4.15-1.45-.65-2.45-12.05.45-22.05 1.65-19.15 2.05-19.55 4.85v.3q.7 2.8 19.55 4.75 17.8 1.9 42.2 2.15-6.05-1-3.7-2.45 5.9-1.9 6-2.75m24.3-8.65v1.15q0 .15-2 1.65-1.25 1.05-1.5 1.6v.85q.5 0 .85.3.45.45.45 1 0 .65-2.05 1.65-2.85 1.4-2.85 1.55.25.5.4 1.05.55.6.55 1-.95.55-2.35 1.05-.8.25-1.55.9 20.3-.4 35.4-2.05 18.85-1.95 19.55-4.75v-.3q-.25-2.8-19.55-4.85-11.25-1.3-25.35-1.8z"/><path fill="#FFF" d="M340.6 171.25h-9.65q-13.5 0-25.15.4-3.5 1 .65 2.45 10.5-.2 9 .65-1.8.75-4.65 2.15-2.95 1.45 4 1.55 6.9 0 10.2.5 3.4.25 3.25 1.2-.1.85-6 2.75-2.35 1.45 3.7 2.45h7.95q5.8-.65 7.2-2.3 1.4-1.8-1.9-2.7-2.85-.85-3.1-.85-2.3-1.15-.9-2.75 1.55-1.4 5.9-2.65 3.6-1.6-.5-2.85z"/><path fill="#999" d="M352.55 171.5h-.4q-5.65-.15-11.55-.25 4.1 1.25.5 2.85-4.35 1.25-5.9 2.65-1.4 1.6.9 2.75.25 0 3.1.85 3.3.9 1.9 2.7-1.4 1.65-7.2 2.3 4.35 0 8.6-.1.75-.65 1.55-.9 1.4-.5 2.35-1.05 0-.4-.55-1-.15-.55-.4-1.05 0-.15 2.85-1.55 2.05-1 2.05-1.65 0-.55-.45-1-.35-.3-.85-.3v-.85q.25-.55 1.5-1.6 2-1.5 2-1.65v-1.15z"/></g><path fill="url(#b)" d="M307.25 153.65q0-63.6-45-108.6Q217.25 0 153.6 0 90.05 0 45 45.05q-45 45-45 108.6 0 63.6 45 108.6 45.05 45.05 108.6 45.05 63.65 0 108.65-45.05 45-45 45-108.6z" id="s"/><g id="t"><path fill="#9C0" d="M122.35 21.9q.15.95-.35 4.8l-3.9 3.05q-.85-1.1-3.6-3.45-2.8-2.4-4.1-3.15-2.85 2.6.85 11.65 4.6 11.15 4.5 14.5l-2.35 1.85q-1.85-2.35-2.65-1.75.15-2.45 1.3-4.8l-1.2-1.55q-.3.25-2.05.9-1.65.7-2.5 1.35-3-4.1-4.35-5.05-2-1.35-4.3.45-3.1 2.45-3.55 7.25-.45 4.75-3.1 6.85.25 1.45 2 4.1 1.2 1.6 4.55 5.9l-6.25 4.9-4.3-5.5q1.3-.7 1.5-.85.1-.25-.85-1.5-1.2-1.55-6.3-.8-2.65.45-6.15 1 .75 1.2 1.05 4.75.35 3.5 1.95 5.55.65.8 3.4 1.15 2.8.3 3.7 1.5.8 1 1.1 2.2.35 1.25.9 1.95-.35.65-2.1 1.05-2.4.5-5.05-.5 1.25 1.55 2.1 5.95-.55.15-3.9.65-3.45.5-4 .5-1.4-5.65-2.3-6.85-.45-.6-.75-.25-.8-1-.15-1.8.6-.85-.15-1.8-2.85-3.65-6.95-4-2.95-.25-4 .55-3 2.35.4 9.35 3.95 6.6 4.1 6.8 2.95 3.8 4.85 4.65 1.95.8 2.2 1.15.05.05.85 4.3.7 4.15 1.2 4.8.95 1.15 4.4 2.35 3.25.9 3.35 1.05.05.05.75 4.2.7 4.1 1.3 4.9-3.05 1.7-9.05-1.05-2.5-1.1-3.85-1.05-1.95.05-3.35 2.3.7.65 0 6.35-.75 5.55-1.15 5.9-3.25 2.5-4.75 3.05-1.5.5-2.65-.5-.7-.55-2.6-3.35-2.3-3.2-4.5-5.6-7.25 8.05-14.8 7.35-4.65-.35-5.45-.25-3.05.35-5.8 3.2 4.1 4.3 5.85 7.4 3.3 5.7-1.1 9.15-.15.1-3.4 1.35-3.85 1.75-7.65 4.7-.95-3-4.25-3.95-2.65-.7-3.35-.15-5.05 3.95-7.45 10.1-.5 1.3-.85 2.5 40.2-.95 73.4-26.95 41.2-32.25 47.45-84.15 2.2-17.6-.1-34-.25-1.6-.5-3.15l-3.3 2.6q1.85 2.15 2.1 3.9M21 14.8q.6-1.45 1-4.55L20.15 7.9q-.35.25-4.15 3.15-4.15 2.8-6.45 2.65L7.2 15.55q1.3 3.7 1.45 4.15.85 2 1.85 3.3 2.1 2.7 4 1.95 1.85-1.4 2.4-1.85 2.3-1.8 4.75-6.2 1.65-3.15 2.15-4.9-3.2 3.7-2.8 2.8m8.2 6.25l-3.9 3.1q-.75 3.45-.7 4.15-.05 1.45-.35 4.2l4.3 5.5 4.7-3.65q-.4-.55.4-1.55.55-.5 2.1-1.75-.2-.25-1.9-1.6-1.65-1.3-2.55-2.45-.2-.3.2-3.6.4-3.2.85-4.8-2.05 1.6-3.4 1.7l.25.75z"/><path fill="#CC0" d="M42.75-78.35q.05-1.75-.45-3.2-13.3-4.75-28.25-6.6-43-5.2-78.7 16.05-.75 2.35-2.5 5.6l2.8.3q10.6-8.05 23.7-8.65 4.95-.15 8.9.8 3.6.85 4.6 2.15.75 1 1.05 2.95.25 2 1.05 2.95 2.4 3.1 6.05 2.45 2.1-.4 6.8-2.95 4.5-2.6 6.8-2.95Q-1.7-70 .9-66.7q1.8 2.35-.5 9.05-2.3 6.75.3 10.05 3.1 4 5.05 4.85 3.15 1.35 7.35-1.9.7-.55 1-3.25.2-1.55.6-5.6 1-8.4 4.75-11.3 3.85-3.05 6.5-2.55 1.2.4 1.9.6 1.15.3 2.1.05.65-1.65.1-3.75-.55-2.05 1.1-6.05.15.25.35 2.15.25 1.85 1.15 3 1.8 2.3 3.2 2.55 1.35.2 3.35-1.4 3.55-2.75 3.55-8.15z"/><path fill="url(#c)" d="M42.3-81.55q.5 1.45.45 3.2 0 5.4-3.55 8.15-2 1.6-3.35 1.4-1.4-.25-3.2-2.55-.9-1.15-1.15-3-.2-1.9-.35-2.15-1.65 4-1.1 6.05.55 2.1-.1 3.75-.95.25-2.1-.05-.7-.2-1.9-.6-2.65-.5-6.5 2.55-3.75 2.9-4.75 11.3-.4 4.05-.6 5.6-.3 2.7-1 3.25-4.2 3.25-7.35 1.9Q3.8-43.6.7-47.6q-2.6-3.3-.3-10.05 2.3-6.7.5-9.05-2.6-3.3-6.3-2.75-2.3.35-6.8 2.95-4.7 2.55-6.8 2.95-3.65.65-6.05-2.45-.8-.95-1.05-2.95-.3-1.95-1.05-2.95-1-1.3-4.6-2.15-3.95-.95-8.9-.8-13.1.6-23.7 8.65l-2.8-.3q1.75-3.25 2.5-5.6-7.3 4.3-14.4 9.85-20.7 16.2-32.65 37.4.55.55 1.05 1.25 3.15 4-.6 17-1.95 6.95-2.3 9.25-.8 4.5.7 6.45.05 0 .95 3.55.85 3.6 3.75 7.3 1.65-.5 2.8-.2 1 .45 1.4.7-.95 3.35-.85 4.85.05.55.5 1.1 1.7 2.15 4.15 1.55 1.45-.4 7-3.4 2-1 5.85.7 4.55 2.1 5.2 2.05l3.65 4.7q-.95 1.5-8.5 8.85-6.55 7.45-3.85 10.95 3.5 3.6 7.65 5.65 8.25 4.05 12.5-2.45l6.75 8.6q-.3 2.75 1.55 5.1 2.6-1.2 5.15-1.9 1.95-.55 2.9-.65-.9 2.05-.3 2.85.5-.4.95-.2l.45.3q2.7-3.25 9.05-6.15 7.4-3.45 9.8-.4 3.05 3.9-1.5 17.2-.35.95-3.7 9.95-1.95 5.15-2.15 7.05 1.8-1.35 4.05-2.55 2.25-1.15 2.85-1.6l4.3 5.5q-1.95 4.15-6.25 8.7-2.45 2.55-7.25 7-3.7 3.7-4.7 6.3-1.2 3.25 1.25 6.4 2.15 2.75 3.45 3.9 3.35 2.95 7.7 3.8-2.1 1.05-4 4.55-2.1 4-5.15 6.4-1.65 1.25-4.3.9-2.7-.45-5.2 1.5-1.3 1.05-3.05 3.05 18.9 9.3 41.5 12.1 10.15 1.2 19.8.95.35-1.2.85-2.5 2.4-6.15 7.45-10.1.7-.55 3.35.15 3.3.95 4.25 3.95 3.8-2.95 7.65-4.7 3.25-1.25 3.4-1.35 4.4-3.45 1.1-9.15-1.75-3.1-5.85-7.4 2.75-2.85 5.8-3.2.8-.1 5.45.25 7.55.7 14.8-7.35 2.2 2.4 4.5 5.6 1.9 2.8 2.6 3.35 1.15 1 2.65.5 1.5-.55 4.75-3.05.4-.35 1.15-5.9.7-5.7 0-6.35 1.4-2.25 3.35-2.3 1.35-.05 3.85 1.05 6 2.75 9.05 1.05-.6-.8-1.3-4.9-.7-4.15-.75-4.2-.1-.15-3.35-1.05-3.45-1.2-4.4-2.35-.5-.65-1.2-4.8-.8-4.25-.85-4.3-.25-.35-2.2-1.15-1.9-.85-4.85-4.65-.15-.2-4.1-6.8-3.4-7-.4-9.35 1.05-.8 4-.55 4.1.35 6.95 4 .75.95.15 1.8-.65.8.15 1.8.3-.35.75.25.9 1.2 2.3 6.85.55 0 4-.5 3.35-.5 3.9-.65-.85-4.4-2.1-5.95 2.65 1 5.05.5 1.75-.4 2.1-1.05-.55-.7-.9-1.95-.3-1.2-1.1-2.2-.9-1.2-3.7-1.5-2.75-.35-3.4-1.15-1.6-2.05-1.95-5.55-.3-3.55-1.05-4.75 3.5-.55 6.15-1 5.1-.75 6.3.8.95 1.25.85 1.5-.2.15-1.5.85l4.3 5.5 6.25-4.9Q94.2 60.5 93 58.9q-1.75-2.65-2-4.1 2.65-2.1 3.1-6.85.45-4.8 3.55-7.25 2.3-1.8 4.3-.45 1.35.95 4.35 5.05.85-.65 2.5-1.35 1.75-.65 2.05-.9l1.2 1.55q-1.15 2.35-1.3 4.8.8-.6 2.65 1.75l2.35-1.85q.1-3.35-4.5-14.5-3.7-9.05-.85-11.65 1.3.75 4.1 3.15 2.75 2.35 3.6 3.45l3.9-3.05q.5-3.85.35-4.8-.25-1.75-2.1-3.9l3.3-2.6q-5.05-30.1-25.3-56Q75.3-69.95 42.3-81.55m-4.55 35.1q.15-.05.4-.05 2.7.55 3.7 1.5l.25.35h.05q.3.35.6.75 8.65 11 6.75 26.35Q48.8-11.9 46.75-7 45-2.7 43.25-1.3q-1.1.85-.25 7.75L39.1 9.5q-.6-.75-3.2-3.25-2.65-2.6-3.45-3.6-.25-.35-.3-2.8-.05-2.5-1-3.7-.9-1.15-5.7.25-2.9.85-10.45 3.35Q-.35 4.35-4.95-1.5q-1.8-2.35-1.55-5.15.3-2.75 2.35-4.35 1.25-1 2.05.35.75 1.25 3.35-.75 1.4-1.1 5.35-6.8 3.65-5.2 4.9-7.55-.35-.45-1.5-.9-2-.75-2.5-1L5.65-30l10.95-8.6q1.3.7 4.9 1.15 4.25.55 5.65-.55 1.6-1.25 3.85-4.9 2-3.45 2.15-3.6 1.1-.85 4.55-.15l.05.2M25.3 24.15l3.9-3.1-.25-.75q1.35-.1 3.4-1.7-.45 1.6-.85 4.8-.4 3.3-.2 3.6.9 1.15 2.55 2.45 1.7 1.35 1.9 1.6-1.55 1.25-2.1 1.75-.8 1-.4 1.55L28.55 38l-4.3-5.5q.3-2.75.35-4.2-.05-.7.7-4.15M22 10.25q-.4 3.1-1 4.55-.4.9 2.8-2.8-.5 1.75-2.15 4.9-2.45 4.4-4.75 6.2-.55.45-2.4 1.85-1.9.75-4-1.95-1-1.3-1.85-3.3-.15-.45-1.45-4.15l2.35-1.85q2.3.15 6.45-2.65 3.8-2.9 4.15-3.15L22 10.25z"/><path fill="#FFC" d="M38.15-46.5q-.25 0-.4.05l-.05-.2q-3.45-.7-4.55.15-.15.15-2.15 3.6-2.25 3.65-3.85 4.9-1.4 1.1-5.65.55-3.6-.45-4.9-1.15L5.65-30l1.85 2.35q.5.25 2.5 1 1.15.45 1.5.9-1.25 2.35-4.9 7.55-3.95 5.7-5.35 6.8-2.6 2-3.35.75Q-2.9-12-4.15-11-6.2-9.4-6.5-6.65q-.25 2.8 1.55 5.15Q-.35 4.35 15-.25q7.55-2.5 10.45-3.35 4.8-1.4 5.7-.25.95 1.2 1 3.7.05 2.45.3 2.8.8 1 3.45 3.6 2.6 2.5 3.2 3.25L43 6.45q-.85-6.9.25-7.75Q45-2.7 46.75-7q2.05-4.9 2.75-10.55 1.9-15.35-6.75-26.35-.3-.4-.6-.75h-.05l-.25-.35q-1-.95-3.7-1.5z"/></g><path fill="#8E8E00" d="M-34.45-60.2q.35-2.3 2.3-9.25 3.75-13 .6-17-.5-.7-1.05-1.25-11.75 21-14.9 46.85-6.35 51.95 25.9 93.15 18.2 23.25 42.7 35.45 1.75-2 3.05-3.05 2.5-1.95 5.2-1.5 2.65.35 4.3-.9 3.05-2.4 5.15-6.4 1.9-3.5 4-4.55-4.35-.85-7.7-3.8-1.3-1.15-3.45-3.9-2.45-3.15-1.25-6.4 1-2.6 4.7-6.3 4.8-4.45 7.25-7 4.3-4.55 6.25-8.7l-4.3-5.5q-.6.45-2.85 1.6-2.25 1.2-4.05 2.55.2-1.9 2.15-7.05 3.35-9 3.7-9.95Q47.8 3.6 44.75-.3q-2.4-3.05-9.8.4Q28.6 3 25.9 6.25l-.45-.3q-.45-.2-.95.2-.6-.8.3-2.85-.95.1-2.9.65-2.55.7-5.15 1.9Q14.9 3.5 15.2.75l-6.75-8.6Q4.2-1.35-4.05-5.4q-4.15-2.05-7.65-5.65-2.7-3.5 3.85-10.95 7.55-7.35 8.5-8.85L-3-35.55q-.65.05-5.2-2.05-3.85-1.7-5.85-.7-5.55 3-7 3.4-2.45.6-4.15-1.55-.45-.55-.5-1.1-.1-1.5.85-4.85-.4-.25-1.4-.7-1.15-.3-2.8.2-2.9-3.7-3.75-7.3-.9-3.55-.95-3.55-1.5-1.95-.7-6.45z" id="u"/><path fill="#737373" d="M333.9 185.35h-7.95q-24.4-.25-42.2-2.15-18.85-1.95-19.55-4.75.7 8.35 19.55 14.35 19.6 6 47.2 6t46.95-6q18.85-6 19.55-14.35-.7 2.8-19.55 4.75-15.1 1.65-35.4 2.05-4.25.1-8.6.1z" id="v"/><g id="w"><path fill="#CCC" d="M178.35 51.7q-6.45.7-14.25 2.9-27.4 7.75-70.35 34.75-8.35 5.45-22.15 6.8 15.95.8 23.15-3.75 35.5-22.45 60.5-31.75 10.2-3.6 18.6-5.25 2.05-.2 3.5-.5 14.15-1.75 22.8 3.2v.1q6.6 4.65 9.95-1.45l-.6-5.45q-7.4-4.65-10.3 3.9-7-4.1-17.8-3.65-1.45-.05-3.05.15m112.75-28q11.45-1.25 24.75-2 .25-.1.85-.1 8.6-.55 20.95-10.35-11.85 6.85-21.95 7.25-.5.2-.85.2-13.25.8-24.75 1.9-19.7 2.05-34.7 5.45-3.3.8-6.4 1.65-3.7 1.05-6.9 2-1.45.5-2.85.95-10.3 3.5-17.25 8l4 1.1q3.85-2.15 8.55-4.1 4.2-1.7 9.3-3.4 3.2-.85 6.75-1.9 16.65-4.2 40.5-6.65z"/><path fill="#B4B4B4" d="M226 39.75l-4-1.1q-8.75 5.7-11.95 13.05-.3-.2-.55-.4l.6 5.45q.5-.9.9-2v-.15q3.7-8.4 15-14.85z"/><path fill="#737373" d="M315.85 21.7q-13.3.75-24.75 2-23.85 2.45-40.5 6.65-3.55 1.05-6.75 1.9-5.1 1.7-9.3 3.4-4.7 1.95-8.55 4.1-11.3 6.45-15 14.85v.15q-.4 1.1-.9 2-3.35 6.1-9.95 1.45v-.1q-8.65-4.95-22.8-3.2-1.45.3-3.5.5-8.4 1.65-18.6 5.25-25 9.3-60.5 31.75-7.2 4.55-23.15 3.75 14.5 6.35 22.4 1.5 32.35-20.45 58.45-28.75 28.5-9.1 49.9-3.85 3.6 2.5 6.25 1.65 1.35-.4 2.45-1.65 1.2-1.25 2.15-3.45 22.35-26 79.25-33.65 11.55-1.55 24.65-2.3 1.45-.05 3.25-.25 9.3-.55 17.3-14.15-12.35 9.8-20.95 10.35-.6 0-.85.1z"/></g><g id="x"><path fill="#666" d="M133.2 284.1q0 6.95 22.1 11.7 21.95 4.85 53 4.85t53-4.85q22.05-4.75 22.05-11.7 0-1.15-.6-2.3-3.1 5.5-21.45 9.5-21.95 4.9-53 4.9t-53-4.9q-18.4-4-21.5-9.5-.6 1.15-.6 2.3z"/><path fill="#999" d="M155.3 272.3q-18.4 4.1-21.5 9.5 3.1 5.5 21.5 9.5 21.95 4.9 53 4.9t53-4.9q18.35-4 21.45-9.5-3.1-5.4-21.45-9.5-21.95-4.85-53-4.85t-53 4.85z"/></g><g id="y"><path fill="#CCC" d="M209.4 64.25q0-1.5-.8-2.65-.85-1.15-1.9-1.05-1.15-.1-1.95 1.05-.25.45-.45 1.05l1.7 217.1q2.6.15 5.95-1.1.55-2.8.55-6.05l-3.1-208.35z"/><path fill="#999" d="M204.3 62.65q-.3.75-.3 1.6l-2 208.35q-.15 3.25.4 6.05 1.55.95 3.6 1.1l-1.7-217.1z"/></g><path id="i" stroke="#333" stroke-linejoin="round" stroke-linecap="round" fill="none" d="M-91.8-12.25L45.85 95.6"/></defs><use xlink:href="#d" transform="translate(-11.2 -11.25)"/><use xlink:href="#e" transform="translate(-11.2 -11.25)"/><use xlink:href="#f" transform="translate(-11.2 -11.25)"/><use xlink:href="#g" transform="translate(-11.2 -11.25)"/><g filter="url(#h)"><use xlink:href="#i" transform="matrix(.32826 -.31668 .31668 .32826 72.3 217.5)"/><use xlink:href="#j" transform="matrix(.32826 -.31668 .31668 .32826 72.3 217.5)"/><g transform="matrix(.7552 -.09614 .04947 .38863 56.285 194.987)"><clipPath id="k"><path fill="#FFF" d="M-2-2h41.45v78.85H-2z"/></clipPath><text clip-path="url(#k)" writing-mode="lr"><tspan x="0" y="60.65" baseline-shift="0%" font-family="Helvetica67_CondensedMedium_Regular" font-size="67" fill="#272700">$</tspan></text></g></g><g transform="matrix(1.40662 0 0 1.40662 32.182 116.525)"><clipPath id="l"><path fill="#FFF" d="M-2-2h27.55v50.9H-2z"/></clipPath><text clip-path="url(#l)" writing-mode="lr"><tspan x="0" y="38" baseline-shift="0%" font-family="Helvetica93_ExtendedBlack_Regular" font-size="42" fill="#690">$</tspan></text></g><use xlink:href="#m" transform="translate(-11.2 -11.25)"/><use xlink:href="#n" transform="translate(-11.2 -11.25)"/><use xlink:href="#o" transform="translate(-11.2 -11.25)"/><use xlink:href="#p" transform="translate(-11.2 -11.25)"/><use xlink:href="#q" transform="translate(-11.2 -11.25)"/><use xlink:href="#s" transform="matrix(.31027 .1682 -.1682 .31027 297.9 60.15)" filter="url(#r)"/><use xlink:href="#t" transform="rotate(-96.175 213.534 -70.855) scale(.36613)"/><use xlink:href="#u" transform="rotate(-96.175 238.343 -69.363) scale(.36613)"/><use xlink:href="#v" transform="translate(-11.2 -11.25)"/><use xlink:href="#w" transform="translate(-11.2 -11.25)"/><use xlink:href="#x" transform="translate(-11.2 -11.25)"/><g transform="translate(-11.2 -11.25)"><use xlink:href="#y"/></g></svg>