<svg xmlns="http://www.w3.org/2000/svg" xmlns:xlink="http://www.w3.org/1999/xlink" preserveAspectRatio="none" width="260" height="115" viewBox="0 0 260 115"><defs><path fill="#0F0" d="M343.45 172.4q-3.15-1.2-6.5-1.85-6.65-1.35-14-.4-13.033 1.593-21.15 8.35-3.077 2.575-5.45 5.9-1.8 2.4-2.8 5.05 1-2.65 2.8-5.05-8.15-2.45-17-1.85.3.15.65.3 4 2.1 6.6 4.55-2.6-2.45-6.6-4.55-.35-.15-.65-.3-5.093-2.614-11.15-4.05-7.34-1.75-16.1-1.75-8.847-.027-16.3 1.75-6.33 1.518-11.65 4.35-7.6 4-10.25 9.15-5.05 10.65 9.9 20.5.15.1.35.2 2.65 1.4 5.55 2.5-2.9-1.1-5.55-2.5-.2-.1-.35-.2-.25.4-.4.8-1.3 3-.9 6.35v.05q.8 6.05 7.15 9.8.05-.1.1-.1h.05q4.85-2.8 10.6-3.5l1.7-.15-1.7.15q-5.75.7-10.6 3.5l-.1.15-.05-.05q-9.95 5.8-8.85 14.8.75 6 6.9 9.75 6 3.8 14.3 3.45v-.05q.1-1.95.65-3.9-.55 1.95-.65 3.9l.1.05h-.1q-.1 1.85.1 3.25 1.2 10.05 11.95 15.9 10.7 5.9 24.6 4.2 9.1-1.15 16.55-5.4 3.4-2.05 6-4.4-2.6 2.35-6 4.4l.1.1q4.05 4.2 10.7 6.2 6.6 1.95 13.95 1.1 10.6-1.35 17.7-7.7-1.15-1.4-2.1-3.35.95 1.95 2.1 3.35.1-.1.25-.2l-.1.3q3.25 3.65 8.8 5.4 5.5 1.65 11.7.85 10.65-1.3 16.4-8.25-2.6-1.7-4.2-3.8 1.6 2.1 4.2 3.8 7.95 5.25 19.2 3.85 8.75-1.1 15-5.95 6.15-4.9 6.9-11.3l-.05-.05q0-.05.05-.05.25-1.45.05-3.1.2 1.65-.05 3.1 8.4-2.8 13.2-8.6 4.75-5.85 3.95-12.3-.5-3.9-3.05-7.25-2.95-3.85-8.1-6.25 5.15 2.4 8.1 6.25l.05-.1q6.15-7.35 5.1-15.65-1.15-9.15-10.2-14.95-9.05-5.85-21.6-5.55.45 3.9-.9 7.6 1.35-3.7.9-7.6-.05-.05-.1-.05l.05-.05q-1.15-8.55-10.25-13.5-4.267-2.332-9.15-3.25-5.527-1.05-11.85-.25-.886.107-1.75.25-7.204 1.185-13.05 4.8l-.05.1q1.2 2.15 2 4.9-.8-2.75-2-4.9-.9-1.55-2-2.95-.83-1.02-1.8-1.95-3.874-3.774-9.85-6.1M191.7 209.8q0-1.5-2-2.6-2.05-1.1-4.9-1.1-2.9 0-4.9 1.1-2.1 1.1-2.05 2.6-.05 1.5 2.05 2.6 2 1.1 4.9 1.1 2.85 0 4.9-1.1 2-1.1 2-2.6m4.95-17.45q-5.75-.05-9.75 2.1-4.1 2.2-4.1 5.25 0 3 4.1 5.2 4 2.15 9.75 2.15 5.7 0 9.8-2.15.5-.25.95-.55 3.05-2 3.05-4.65 0-2.65-3.05-4.65-.45-.3-.95-.6-4.1-2.15-9.8-2.1z" id="a"/><path id="b" stroke="#CCC" stroke-width="1.45" stroke-linejoin="round" stroke-linecap="round" fill="none" d="M296.35 184.4q2.373-3.325 5.45-5.9 8.117-6.757 21.15-8.35 7.35-.95 14 .4 3.35.65 6.5 1.85 5.976 2.326 9.85 6.1.97.93 1.8 1.95 1.1 1.4 2 2.95l.05-.1q5.846-3.615 13.05-4.8.864-.143 1.75-.25 6.323-.8 11.875.25 4.858.918 9.125 3.25 9.1 4.95 10.25 13.5l-.05.05q.05 0 .1.05 12.55-.3 21.6 5.55 9.05 5.8 10.2 14.95 1.05 8.3-5.1 15.65l-.05.1q2.55 3.35 3.05 7.25.8 6.45-3.95 12.3-4.8 5.8-13.2 8.6-.05 0-.05.05l.05.05q-.75 6.4-6.9 11.3-6.25 4.85-15 5.95-11.25 1.4-19.2-3.85-5.75 6.95-16.4 8.25-6.2.8-11.7-.85-5.55-1.75-8.8-5.4l.1-.3q-.15.1-.25.2-7.1 6.35-17.7 7.7-7.35.85-13.95-1.1-6.65-2-10.7-6.2l-.1-.1q-7.45 4.25-16.55 5.4-13.9 1.7-24.6-4.2-10.75-5.85-11.95-15.9-.2-1.4-.1-3.25-8.3.35-14.3-3.45-6.15-3.75-6.9-9.75-1.1-9 8.85-14.8-6.35-3.75-7.15-9.8v-.05q-.4-3.35.9-6.35.15-.4.4-.8-14.95-9.85-9.9-20.5 2.65-5.15 10.25-9.15 5.32-2.832 11.675-4.35 7.428-1.777 16.275-1.75 8.76 0 16.125 1.75 6.032 1.436 11.125 4.05 8.85-.6 17 1.85-1.8 2.4-2.8 5.05m63.55-6.05q1.2 2.15 2 4.9m70.8 43.3q-2.95-3.85-8.1-6.25m-6 34.4q.25-1.45.05-3.1m-78.2 18.5q-1.15-1.4-2.1-3.35m39.15 1.45q-2.6-1.7-4.2-3.8m32.75-74.1q.45 3.9-.9 7.6M186.9 204.9q4 2.15 9.75 2.15 5.7 0 9.8-2.15.5-.25.95-.55 3.05-2 3.05-4.65 0-2.65-3.05-4.65-.45-.3-.95-.6-4.1-2.15-9.8-2.1-5.75-.05-9.75 2.1-4.1 2.2-4.1 5.25 0 3 4.1 5.2zm92.45-22.35q.3.15.65.3 4 2.1 6.6 4.55m8.6 88.05q3.4-2.05 6-4.4m-71.5-55.85q-2.9-1.1-5.55-2.5-.2-.1-.35-.2m6 16.9q4.85-2.8 10.6-3.5l1.7-.15m-12.45 3.75l.05.05.1-.15h-.05q-.05 0-.1.1zm-49.75-17.1q2 1.1 4.9 1.1 2.85 0 4.9-1.1 2-1.1 2-2.6t-2-2.6q-2.05-1.1-4.9-1.1-2.9 0-4.9 1.1-2.1 1.1-2.05 2.6-.05 1.5 2.05 2.6zm62.1 45.05v.05h.1l-.1-.05q.1-1.95.65-3.9"/></defs><g transform="translate(-177.05 -168.95)"><use xlink:href="#a"/><use xlink:href="#b"/></g></svg>