<svg xmlns="http://www.w3.org/2000/svg" xmlns:xlink="http://www.w3.org/1999/xlink" preserveAspectRatio="none" width="781" height="426" viewBox="0 0 781 426"><defs><path fill="#CFCECE" d="M756.8 269.8q-4.9-2.9-12.6-5.15-8.75-2.25-13.1-3.65h-24q-2.05.6-6.05.95-4.2.3-6.15.85-15.05 4.35-27.5 14.8-1.75 1.45-2.85 1.65-1.55.25-3.15-1.25-17.6-15.9-37.3-17h-20q-1.15.75-1.75.85-28.55 3.05-45.5 27.2-1.8 2.55-3.5 2.25-.75-.15-3.1-1.85-29.55-21.6-70.15-13.55-30.3 5.95-49.1 32.3-1 1.45-1.8 1.85-1.05.55-2.6-.2-15.05-7.15-32.85-9.5-21.15-2.8-41.5 1.7-22.7 5.05-41.7 21.3-11.75 10-19.15 20.8-8.25 12.05-11.55 25.85-3.15 13.1-1.85 27.1.2 2.2-.35 3.25-.7 1.4-3 1.65-23.85 2.65-41.1 23.15-12.25 14.4-12.6 32.8-.3 15 5.65 27.75-1.7-.25-3.2-1.6-1.5-1.55-2.4-2.15-12.85-8.6-31.3-10.3-14.5-1.4-26.2 1.25-13.15 2.95-23.7 11.05-12 9.2-12.7 22.45-.65 13.1 10.15 22.7 1.4 1.2 5.05 3.7 3.3 2.2 4.9 3.8-.95.25-2.05-.05-11.25-2.4-20.9-1-10.45 1.5-19.6 7.6-8.25 5.55-8.95 15.45-.65 9.65 6.15 15.05 2.4 1.9 7.45 5.7-7.85-1.2-13.6.1-6.75 1.5-11.7 6.6v11q5.4 6.45 14.35 7.9 8.95 1.4 15.95-3.15 5.65-3.7 6.55-8.65.9-5.2-4.1-8.95-.7-.55-.8-.7-.4-.55.05-1.2 12.25 2.55 21.65 1.75 11.3-.9 20.7-6.65 9.9-6.05 10.6-16.35.7-10.3-8.4-17.3-1.25-.9-1.25-.95-.6-.65-.4-1.7 26.35 7.15 48.1-1.1 17-6.45 23.55-15.15 7.65-10.2 4.65-27.05 4.7 5 10.65 9.1 4 2.8 4.15 3.85.15 1-2.85 4.65-17.2 20.65-10.3 48.2 3 11.95 11.35 21.4 7.25 8.3 19.05 15.1 16.2 9.4 36 7.95 2.2-.2 3.75.7 1.4.75 2.75 2.65 4.55 6.2 5.05 6.85 2.95 3.8 5.5 6.4 30.5 30.85 76.55 35.25 34.15 3.3 65.25-12.45 2.1-1.05 3.45-.65 1.15.35 2.65 2.25 21 25.9 55.9 34.15 2.85.65 9.55 1.3 6.15.6 9.45 1.55h12q.35-.15 1.1-.55.65-.3 1.1-.3 21.65-.45 44.95-13.2 29.3-16.1 41.1-43.95 1.55-3.65 3.25-4.2 1.6-.5 4.9 1.3 14.3 7.65 33.95 8.75 33.75 1.85 59.55-17.1 14.9-11 22.85-24.25 8.6-14.4 9.3-31.95.1-1.85.8-2.65.75-.75 2.6-1.1 7.5-1.4 12.4-2.7 6.7-1.8 11.95-4.2 22.15-10 36.05-25.1 14.9-16.25 20.75-38.8.7-2.55 1.1-8.55.35-5.55 1.35-8.5v-6q-.7-.55-.85-1.5-.05-.15-.1-1.7-.95-23.4-17.6-44.65-1.45-1.85-1.7-3.25-.3-1.55.5-3.75 11.8-32.4-5.9-60.05-15.85-24.85-44.7-32.95-1.65-.5-2.35-1-.95-.75-1.35-2.3-3.15-13.75-12.15-24.55-8-9.65-21.15-17.5z" id="a"/><path fill="#FFF" d="M758.2 273.55q-9.75-6.15-21.95-8.4-10.3-1.9-23.65-1.3-32.45 1.6-51.8 26.7-1.45 1.9-7.65 10.6-.85-1.05-.8-1.95 0-.5.5-1.35 2.3-3.8 3.45-5.5 2-3 4.05-5.1 1.25-1.25 1.3-2.2.1-1.1-1.2-2.3-4-3.85-6.4-5.9-3.7-3.05-7.15-5-8.7-4.95-19.15-6.85-8.9-1.6-20.35-1.2-23.1.9-40.45 16.8-10.55 9.7-15.5 24.55-.2.65-.55 2.25-.45 1.2-1.75.75-1.25-.45-.85-1.75.75-1.5.9-2.15.9-3.05 2.8-6.95.75-1.6.6-2.55-.2-1.15-1.75-1.95-.8-.4-2.05-1.4-1.45-1.15-2-1.5-38.5-24.1-81.4-7-19.05 7.6-31.5 25.2-1.65 2.35-1.5 3.7.2 1.5 2.7 2.95 2.6 1.5 6 3.95 2 1.4 5.85 4.25.6.45 2.15 1.4 1.05 1 .1 2.15-.75.9-1.85.15-1.2-1.2-1.75-1.65-9.35-8.35-22.2-14.15-28.7-12.85-63.4-7.6-36.2 5.45-61.1 35.35-26.1 31.3-16.15 71.35.25 1.05 1.05 3.25.4 2.1-.9 4.1-2.45-3.7-3.15-8.85-.4-3.05-1.95-3.95-1.5-.85-4.55-.1-20.45 4.8-35.45 20.1-13.95 14.2-14.1 36.25-.2 22.2 13.85 36.25 19.35 19.35 47.4 20.05 1.25.05 3.8-.15 2.25 0 3.7.75-.2.85-.65 1.15-.3.2-.95.3-6.85.9-14.35-.25-6.35-.95-13.9-3.55-7.8-2.65-9.9-1.95-2.1.7-6.95 7.65-.25.3-1.55 2.55-9.25 15.9-5.5 35.5 3.8 19.95 18.85 31.35 14.7 11.15 30.1 14.35Q303.5 608 320.7 603q.8-.2 2.5-.8 1.5-.25 2.8 1-4.9 3.2-10.2 3.85-3.75.5-4.25 1.45t1.65 3.8q18.1 24.55 47.15 36.35 29.45 11.9 59.9 8.6 21.1-2.35 40-11.15 2.45-1.15 2.7-2.45.2-1.15-1.2-3.35-1.35-2.1-3.1-5.4l-2.9-5.55q-.5-.95-.6-1.4-.15-.85.55-1.25.95-.55 1.55.1.15.15.9 1.5l.9 1.8q5.2 12.25 17.9 24.95 24.85 24.7 62.35 27.85 34.4 2.9 63.65-14.15 37.2-21.75 44.2-63 .4-2.1.55-2.5.6-1.4 2.1-2 .6 3.6-.25 8-.2.8-1.95 7.45-.6 2.1.05 3.35.55 1.1 2.45 2.1 14.05 7.35 30.4 8.75 19.25 1.65 35.3-2.65 17.4-4.6 31.5-16.3 27.35-22.55 27.85-55.45.2-11.75-4.2-23.9-.45-1.2-.45-1.45-.1-.8.6-1.2 1.05-.55 1.65.2.3.35.65 1.55.65 2.25 2.05 6.65 1.1 3.9 1.55 6.75 1.15 7.5 2.45 8.45 1.45 1.05 8.7-.75 27.45-6.65 47.45-26.45 21.4-21.1 24.85-48.6 4.15-33-16.4-60.9-1.15-1.6-2.1-1.5-.85.15-1.9 1.8-3.15 4.8-3.4 5.2-2 2.95-3.75 4.95-4.3 5-5.9 6.45-3.55 3.35-7.4 4.75 1.9-2.55 5.4-6.3 4.2-4.55 5.5-6.1 20.3-24.15 14.85-53.4-7.05-37.75-46.65-53.35-4.85-1.9-5.7-1.4-.8.55-.9 5.65 0 .7.05 2.35-.2 1.3-1.5 1.25-1.15-.05-1.4-1.4 0-1.65-.05-2.35-1.45-31.3-31-49.9z" id="b"/><path fill="#FFF" d="M193.5 474.5q-7.85-.95-17.9-.5-11.75.55-21 4.3-10.15 4.15-17.75 12.25-7.7 8.15-6.85 19.35.9 11.2 9.8 18.05 19.15 14.75 41.35 13.05 22.05 1.7 39.8-10.95 9.7-6.95 12.15-16.7 2.6-10.35-4.1-20.1-6.2-9.05-18.25-14.2-7.9-3.35-17.25-4.55z" id="c"/><path fill="#FFF" d="M101.85 549.15q-3.75 4.55-3.8 10.45-.05 10.7 11.5 16.65 24.65 12.75 47.75-1.4 8.85-5.45 9.05-14.65.2-9.1-8.25-15.1-11.4-8.2-25.55-7-11.75-1.3-21.95 4.3-5.8 3.25-8.75 6.75z" id="d"/><path fill="#FFF" d="M118.05 592.85q.4-4-3.15-7.3-4.95-4.55-14.25-3.9-9.3.6-13.6 5.75-3.9 4.7.15 9.4 2.75 3.2 6.65 4.4 3.4 1.1 8.25.8 5.3.95 11.45-2.7 4.15-2.45 4.5-6.45z" id="e"/></defs><use xlink:href="#a" transform="translate(-84 -261)"/><use xlink:href="#b" transform="translate(-84 -261)"/><use xlink:href="#c" transform="translate(-84 -261)"/><use xlink:href="#d" transform="translate(-84 -261)"/><use xlink:href="#e" transform="translate(-84 -261)"/></svg>