
<svg xmlns="http://www.w3.org/2000/svg" version="1.1" xmlns:xlink="http://www.w3.org/1999/xlink" preserveAspectRatio="none" x="0px" y="0px" width="413px" height="252px" viewBox="0 0 413 252">
<defs>
<g id="Layer0_0_MEMBER_0_FILL">
<path fill="#FFFFFF" stroke="none" d="
M 411.55 233.85
L 411.55 18.2
Q 366.05 -1.3 309.05 1.8 286.25 3 257.75 7.95 240.7 10.95 206.5 18.25 172.25 25.55 155.2 28.55 126.7 33.5 103.9 34.7 46.9 37.75 1.4 18.25
L 1.4 233.85
Q 46.9 253.35 103.9 250.3 126.7 249.1 155.2 244.15 172.25 241.15 206.5 233.85 240.7 226.55 257.75 223.55 286.25 218.6 309.05 217.4 366.05 214.35 411.55 233.85 Z"/>
</g>

<path id="Layer0_0_MEMBER_0_1_STROKES" stroke="#999999" stroke-width="1" stroke-linejoin="round" stroke-linecap="round" fill="none" d="
M 103.9 34.7
Q 126.7 33.5 155.2 28.55 172.25 25.55 206.5 18.25 240.7 10.95 257.75 7.95 286.25 3 309.05 1.8 366.05 -1.3 411.55 18.2
L 411.55 233.85
Q 366.05 214.35 309.05 217.4 286.25 218.6 257.75 223.55 240.7 226.55 206.5 233.85 172.25 241.15 155.2 244.15 126.7 249.1 103.9 250.3 46.9 253.35 1.4 233.85
L 1.4 18.25
Q 46.9 37.75 103.9 34.7 Z"/>
</defs>

<g transform="matrix( 1, 0, 0, 1, 0.05,0) ">
<use xlink:href="#Layer0_0_MEMBER_0_FILL"/>

<use xlink:href="#Layer0_0_MEMBER_0_1_STROKES"/>
</g>
</svg>
