<svg xmlns="http://www.w3.org/2000/svg" xmlns:xlink="http://www.w3.org/1999/xlink" preserveAspectRatio="none" width="413" height="252" viewBox="0 0 413 252"><defs><path fill="#FFF" d="M411.55 233.85V18.2q-45.5-19.5-102.5-16.4-22.8 1.2-51.3 6.15-17.05 3-51.25 10.3-34.25 7.3-51.3 10.3-28.5 4.95-51.3 6.15-57 3.05-102.5-16.45v215.6q45.5 19.5 102.5 16.45 22.8-1.2 51.3-6.15 17.05-3 51.3-10.3 34.2-7.3 51.25-10.3 28.5-4.95 51.3-6.15 57-3.05 102.5 16.45z" id="a"/><path id="b" stroke="#999" stroke-linejoin="round" stroke-linecap="round" fill="none" d="M103.9 34.7q22.8-1.2 51.3-6.15 17.05-3 51.3-10.3 34.2-7.3 51.25-10.3 28.5-4.95 51.3-6.15 57-3.1 102.5 16.4v215.65q-45.5-19.5-102.5-16.45-22.8 1.2-51.3 6.15-17.05 3-51.25 10.3-34.25 7.3-51.3 10.3-28.5 4.95-51.3 6.15-57 3.05-102.5-16.45V18.25q45.5 19.5 102.5 16.45z"/></defs><g transform="translate(.05)"><use xlink:href="#a"/><use xlink:href="#b"/></g></svg>