
<svg xmlns="http://www.w3.org/2000/svg" version="1.1" xmlns:xlink="http://www.w3.org/1999/xlink" preserveAspectRatio="none" x="0px" y="0px" width="91px" height="49px" viewBox="0 0 91 49">
<defs>
<linearGradient id="Gradient_1" gradientUnits="userSpaceOnUse" x1="392.05" y1="231.5125" x2="392.05" y2="200.3875" spreadMethod="pad">
<stop  offset="0%" stop-color="#65BE4D"/>

<stop  offset="84.31372549019608%" stop-color="#55C63B"/>
</linearGradient>

<linearGradient id="Gradient_2" gradientUnits="userSpaceOnUse" x1="392.15" y1="210.35" x2="392.15" y2="230.65" spreadMethod="pad">
<stop  offset="0%" stop-color="#87CC75" stop-opacity="0"/>

<stop  offset="53.72549019607843%" stop-color="#94E080"/>
</linearGradient>

<filter id="Filter_1" x="-34.52878730521779%" y="-88.12872993513815%" width="169.05757461043558%" height="276.2574598702763%" color-interpolation-filters="sRGB">
<feGaussianBlur in="SourceGraphic" stdDeviation="0.6666666666666666,0.6666666666666666" result="result1"/>

<feFlood flood-color="#339900" flood-opacity="1" in="result1" result="result2"/>

<feGaussianBlur in="result1" stdDeviation="1.6666666666666667,1.6666666666666667" result="result3"/>

<feComposite in2="result3" in="result2" operator="in" result="result4"/>

<feComposite in2="result4" in="result1" operator="over" result="result5"/>
</filter>

<filter id="Filter_2" x="-20%" y="-56.81467570077262%" width="140%" height="213.62935140154525%" color-interpolation-filters="sRGB">
<feGaussianBlur in="SourceGraphic" stdDeviation="1,1" result="result1"/>
</filter>

<g id="Layer1_0_MEMBER_0_FILL">
<path fill="#E5E5E5" stroke="none" d="
M 417.4 191.5
L 348.65 191.5 348.65 239.9 417.85 239.9 439.4 215.7 417.4 191.5
M 350.6 193.25
L 416.6 193.35 437.45 215.75 416.6 238.2 350.45 238.2 350.6 193.25 Z"/>

<path fill="#FFFFFF" fill-opacity="0.9372549019607843" stroke="none" d="
M 416.6 193.35
L 350.6 193.25 350.45 238.2 416.6 238.2 437.45 215.75 416.6 193.35
M 413.1 198.85
L 429.5 215.95 413.1 233.05 355.05 233.05 355.05 198.85 413.1 198.85 Z"/>

<path fill="#4BA035" stroke="none" d="
M 429.5 215.95
L 413.1 198.85 355.05 198.85 355.05 233.05 413.1 233.05 429.5 215.95
M 412.05 200.35
L 427.65 215.85 412.05 231.45 356.55 231.45 356.55 200.35 412.05 200.35 Z"/>

<path fill="url(#Gradient_1)" stroke="none" d="
M 427.65 215.85
L 412.05 200.35 356.55 200.35 356.55 231.45 412.05 231.45 427.65 215.85 Z"/>
</g>

<g id="Layer1_0_MEMBER_1_MEMBER_0_FILL">
<path fill="url(#Gradient_2)" stroke="none" d="
M 410.3 230.65
L 425.55 216.1
Q 410.75 207.9 358.6 211.45
L 358.6 230.65 410.3 230.65 Z"/>
</g>

<g id="S_mbolo_2_0_Layer0_0_FILL">
<path fill="#CEE5C8" stroke="none" d="
M 9.05 4.1
L 2.15 0.05
Q -0.9 -0.35 0.85 2.9
L 5.45 5.05 0.8 7.1
Q -1.1 9.2 1.4 10.15
L 9.05 6.55
Q 10.55 5.2 9.05 4.1 Z"/>
</g>

<g id="S_mbolo_2_0_Layer0_1_FILL">
<path fill="#CEE5C8" stroke="none" d="
M 19.25 4.35
L 12.35 0.3
Q 9.3 -0.1 11.05 3.15
L 15.65 5.3 11 7.35
Q 9.1 9.45 11.6 10.4
L 19.25 6.8
Q 20.75 5.45 19.25 4.35 Z"/>
</g>

<g id="S_mbolo_2_0_Layer0_2_FILL">
<path fill="#CEE5C8" stroke="none" d="
M 29.15 4.35
L 22.25 0.3
Q 19.2 -0.1 20.95 3.15
L 25.55 5.3 20.9 7.35
Q 19 9.45 21.5 10.4
L 29.15 6.8
Q 30.65 5.45 29.15 4.35 Z"/>
</g>

<g id="S_mbolo_1_0_Layer0_0_FILL">
<path fill="#339900" fill-opacity="0.6" stroke="none" d="
M 35.75 5.8
L 30.45 -1.3 -0.45 -1.3 -0.45 4.35
Q 19.75 2.8 35.75 5.8
M 33.35 4.75
Q 18.75 2.35 0 3.5
L 0 0.15 29.45 0.15 33.35 4.75 Z"/>

<path fill="#CCFFCC" fill-opacity="0.4980392156862745" stroke="none" d="
M 0 3.5
Q 18.75 2.35 33.35 4.75
L 29.45 0.15 0 0.15 0 3.5 Z"/>
</g>
</defs>

<g transform="matrix( 1, 0, 0, 1, -348.65,-191.5) ">
<use xlink:href="#Layer1_0_MEMBER_0_FILL"/>
</g>

<g transform="matrix( 1, 0, 0, 1, -348.65,-191.5) ">
<use xlink:href="#Layer1_0_MEMBER_1_MEMBER_0_FILL"/>
</g>

<g filter="url(#Filter_1)" transform="matrix( 1, 0, 0, 1, 0,0) ">
<g transform="matrix( 1.725128173828125, 0, 0, 1.555450439453125, 14.05,16.45) ">
<g transform="matrix( 1, 0, 0, 1, 0,0) ">
<use xlink:href="#S_mbolo_2_0_Layer0_0_FILL"/>
</g>

<g transform="matrix( 1, 0, 0, 1, 0,0) ">
<use xlink:href="#S_mbolo_2_0_Layer0_1_FILL"/>
</g>

<g transform="matrix( 1, 0, 0, 1, 0,0) ">
<use xlink:href="#S_mbolo_2_0_Layer0_2_FILL"/>
</g>
</g>
</g>

<g filter="url(#Filter_2)" transform="matrix( 1, 0, 0, 1, 0,0) ">
<g transform="matrix( 1.752899169921875, 0, 0, 1.752899169921875, 10.55,11.55) ">
<g transform="matrix( 1, 0, 0, 1, 0,0) ">
<use xlink:href="#S_mbolo_1_0_Layer0_0_FILL"/>
</g>
</g>
</g>
</svg>
