<svg xmlns="http://www.w3.org/2000/svg" xmlns:xlink="http://www.w3.org/1999/xlink" preserveAspectRatio="none" width="91" height="49" viewBox="0 0 91 49"><defs><linearGradient id="a" gradientUnits="userSpaceOnUse" x1="392.05" y1="231.512" x2="392.05" y2="200.387"><stop offset="0%" stop-color="#65BE4D"/><stop offset="84.314%" stop-color="#55C63B"/></linearGradient><linearGradient id="b" gradientUnits="userSpaceOnUse" x1="392.15" y1="210.35" x2="392.15" y2="230.65"><stop offset="0%" stop-color="#87CC75" stop-opacity="0"/><stop offset="53.725%" stop-color="#94E080"/></linearGradient><filter id="e" x="-34.529%" y="-88.129%" width="169.058%" height="276.257%" color-interpolation-filters="sRGB"><feGaussianBlur in="SourceGraphic" stdDeviation="0.6666666666666666,0.6666666666666666" result="result1"/><feFlood flood-color="#390" flood-opacity="1" result="result2"/><feGaussianBlur in="result1" stdDeviation="1.6666666666666667,1.6666666666666667" result="result3"/><feComposite in2="result3" in="result2" operator="in" result="result4"/><feComposite in2="result4" in="result1" result="result5"/></filter><filter id="i" x="-20%" y="-56.815%" width="140%" height="213.629%" color-interpolation-filters="sRGB"><feGaussianBlur in="SourceGraphic" stdDeviation="1,1" result="result1"/></filter><g id="c"><path fill="#E5E5E5" d="M417.4 191.5h-68.75v48.4h69.2l21.55-24.2-22-24.2m-66.8 1.75l66 .1 20.85 22.4-20.85 22.45h-66.15l.15-44.95z"/><path fill="#FFF" fill-opacity=".937" d="M416.6 193.35l-66-.1-.15 44.95h66.15l20.85-22.45-20.85-22.4m-3.5 5.5l16.4 17.1-16.4 17.1h-58.05v-34.2h58.05z"/><path fill="#4BA035" d="M429.5 215.95l-16.4-17.1h-58.05v34.2h58.05l16.4-17.1m-17.45-15.6l15.6 15.5-15.6 15.6h-55.5v-31.1h55.5z"/><path fill="url(#a)" d="M427.65 215.85l-15.6-15.5h-55.5v31.1h55.5l15.6-15.6z"/></g><path fill="url(#b)" d="M410.3 230.65l15.25-14.55q-14.8-8.2-66.95-4.65v19.2h51.7z" id="d"/><path fill="#CEE5C8" d="M9.05 4.1L2.15.05Q-.9-.35.85 2.9l4.6 2.15L.8 7.1q-1.9 2.1.6 3.05l7.65-3.6q1.5-1.35 0-2.45z" id="f"/><path fill="#CEE5C8" d="M19.25 4.35L12.35.3q-3.05-.4-1.3 2.85l4.6 2.15L11 7.35q-1.9 2.1.6 3.05l7.65-3.6q1.5-1.35 0-2.45z" id="g"/><path fill="#CEE5C8" d="M29.15 4.35L22.25.3q-3.05-.4-1.3 2.85l4.6 2.15-4.65 2.05q-1.9 2.1.6 3.05l7.65-3.6q1.5-1.35 0-2.45z" id="h"/><g id="j"><path fill="#390" fill-opacity=".6" d="M35.75 5.8l-5.3-7.1H-.45v5.65q20.2-1.55 36.2 1.45m-2.4-1.05Q18.75 2.35 0 3.5V.15h29.45l3.9 4.6z"/><path fill="#CFC" fill-opacity=".498" d="M0 3.5q18.75-1.15 33.35 1.25l-3.9-4.6H0V3.5z"/></g></defs><use xlink:href="#c" transform="translate(-348.65 -191.5)"/><use xlink:href="#d" transform="translate(-348.65 -191.5)"/><g filter="url(#e)"><use xlink:href="#f" transform="matrix(1.72513 0 0 1.55545 14.05 16.45)"/><use xlink:href="#g" transform="matrix(1.72513 0 0 1.55545 14.05 16.45)"/><use xlink:href="#h" transform="matrix(1.72513 0 0 1.55545 14.05 16.45)"/></g><use xlink:href="#j" transform="matrix(1.7529 0 0 1.7529 10.55 11.55)" filter="url(#i)"/></svg>