
<svg xmlns="http://www.w3.org/2000/svg" version="1.1" xmlns:xlink="http://www.w3.org/1999/xlink" preserveAspectRatio="none" x="0px" y="0px" width="92px" height="83px" viewBox="0 0 92 83">
<defs>
<g id="Layer0_0_MEMBER_0_FILL">
<path fill="#CCCCCC" stroke="none" d="
M -100.15 124.1
L -107.95 130.05
Q -121.45 140.4 -121.85 149.65 -121.6 159.6 -110.65 171.75 -119.65 182.65 -125.6 182.5
L -138.15 181.65 -132.45 191.2
Q -127.8 198.95 -123.1 202.8 -117.6 207.5 -111.25 207.5
L -111.2 207.5
Q -105.2 207.45 -99.1 201.7 -95.1 198.1 -90.7 192 -77.95 203.35 -69.4 203.65
L -68.3 203.75 -68.2 203.65
Q -62.65 203.2 -58.1 198.65 -53.8 194.4 -50.05 186.8
L -45.9 178.4 -55.2 178.4
Q -64.6 178.25 -73.7 170.35 -70.1 165.9 -65.25 162.25 -62.95 160.55 -60.85 159.55
L -59.5 158.9 -59.15 158.8 -48.85 160.1 -51.9 151.2
Q -54.25 144.25 -58.2 140.3 -62.6 135.85 -68.85 135.7
L -69 135.75
Q -80.35 136 -92.3 149.65 -97.55 141.75 -98.7 133.8
L -100.15 124.1 Z"/>
</g>

<g id="Layer0_0_MEMBER_1_FILL">
<path fill="#FFFFFF" stroke="none" d="
M -107.65 128.4
Q -120.5 138.15 -120.85 146.6 -120.6 156 -109.15 168.25
L -109 168.55
Q -119.4 181.55 -126.8 181.25
L -135.5 180.7 -131.65 187.05
Q -127.5 194.25 -122.8 198.1 -117.6 202.4 -112.1 202.4 -106.95 202.35 -101.3 197.1 -96.9 193 -92 185.85
L -92 185.95
Q -78.25 198.25 -70.25 198.55 -65 198.55 -60.3 194.1 -56.15 189.8 -52.7 182.75
L -49.9 177.15 -56.15 177.15
Q -66.9 177.15 -77.25 167.35
L -77.1 167.15
Q -73.25 161.9 -67.35 157.55 -61.95 153.35 -60 153.65
L -52.6 154.6 -54.65 148.7
Q -56.95 141.95 -60.45 138.5 -64.3 134.35 -69.85 134.5 -81 134.6 -93.3 149.55 -100.15 140.5 -101.55 130.9
L -102.5 124.5 -107.65 128.4 Z"/>
</g>

<g id="Layer0_0_MEMBER_2_FILL">
<path fill="#003399" stroke="none" d="
M -105.4 131.45
Q -116.9 140.15 -116.9 146.6 -116.9 154.45 -106.3 165.55
L -103.8 168.3 -105.75 170.75
Q -117.4 185.15 -126.8 185.15
L -128.35 185.1
Q -120.35 198.5 -112.1 198.5 -105 198.5 -93.7 181.55
L -92.6 180 -89.3 183.05
Q -76.9 194.65 -70.25 194.65 -62.8 194.65 -56.15 181 -68.85 181 -80.3 169.8
L -82.35 167.85 -80.2 164.85
Q -75.75 158.9 -69.65 154.45 -63.35 149.8 -60 149.8 -59.05 149.8 -58.35 149.95 -62.2 138.35 -69.85 138.35 -79.65 138.35 -91.65 153.65
L -93.4 155.9 -95.5 153.2
Q -103.75 142.6 -105.4 131.45 Z"/>
</g>

<g id="Layer0_0_MEMBER_3_FILL">
<path fill="#000099" stroke="none" d="
M -114.65 139.15
Q -117.7 143.2 -117.7 146.6 -117.7 154.65 -106.95 166.1
L -104.9 168.4 -106.4 170.25
Q -112.1 177.5 -117.2 180.85 -122.4 184.4 -126.8 184.4
L -129.75 184.15 -129 185.5
Q -125.15 192.05 -120.85 195.75 -116.45 199.3 -112.1 199.3 -108.3 199.3 -103.35 194.8 -98.7 190.5 -93.05 182.05
L -92.45 181.25 -89.85 183.6
Q -83.65 189.5 -78.75 192.45 -73.7 195.45 -70.25 195.45 -66.25 195.45 -62.5 191.85 -58.9 188.4 -55.45 181.4
L -54.9 180.25 -56.15 180.25
Q -68.45 180.25 -79.75 169.25
L -81.3 167.75 -79.6 165.35
Q -75.45 159.7 -69.15 155.05 -63.05 150.45 -60 150.6 -59.15 150.6 -58.4 150.75
L -57.15 150.9 -57.55 149.65
Q -59.6 143.7 -62.65 140.7 -65.8 137.6 -69.85 137.6 -75.05 137.6 -80.6 141.6 -86 145.35 -92.2 153.2
L -93.4 154.6 -94.9 152.7
Q -102.95 142.3 -104.6 131.4
L -104.75 130.05 -105.85 130.85
Q -111.9 135.55 -114.65 139.15
M -116.1 146.6
Q -116.1 143.6 -113.4 140.1 -110.8 136.8 -105.95 132.95 -103.9 143.55 -96.15 153.65
L -93.3 157.2 -91.05 154.2
Q -85.1 146.65 -79.75 142.85 -74.55 139.15 -69.85 139.15 -66.4 139.15 -63.75 141.8 -61.15 144.4 -59.45 149.1
L -60 149
Q -63.65 149 -70.1 153.8 -76.55 158.6 -80.85 164.4
L -83.45 167.9 -80.85 170.45
Q -69.55 181.25 -57.4 181.8 -60.45 187.65 -63.6 190.75 -66.8 193.85 -70.25 193.85 -73.15 194 -77.95 191.1 -82.7 188.15 -88.75 182.5
L -92.75 178.9 -94.35 181.1 -94.4 181.1
Q -99.75 189.25 -104.45 193.7 -108.75 197.7 -112.1 197.7 -115.9 197.7 -119.8 194.5 -123.4 191.5 -126.85 185.95
L -126.8 185.95
Q -121.9 185.95 -116.35 182.2 -111.25 178.75 -105.15 171.3
L -102.8 168.3 -105.75 165.1 -105.75 165
Q -116.1 154.1 -116.1 146.6 Z"/>
</g>

<g id="Layer0_0_MEMBER_4_FILL">
<path fill="#FFFFFF" fill-opacity="0.30196078431372547" stroke="none" d="
M -102.65 143.15
Q -104.6 138.85 -105.8 133.75 -110.9 137.6 -112 139.5 -112.7 140.75 -112.7 144.25 -112.7 152.2 -102.1 163.3
L -93.4 168.4 -89.5 162.55
Q -87.65 160.1 -77.85 152.9 -70.6 147.45 -65.4 147.45 -62.65 147.45 -60.4 148.95 -60.4 146 -63.2 143.25 -66.2 140.35 -69.9 140.35 -79.7 140.35 -91.65 155.65
L -93.4 157.8 -95.5 155.15
Q -100 149.35 -102.65 143.15 Z"/>
</g>

<g id="Layer0_0_MEMBER_5_FILL">
<path fill="#003399" stroke="none" d="
M -105.75 133.75
Q -104.6 138.85 -102.65 143.15 -104.5 138.6 -105.4 133.4
L -105.75 133.75 Z"/>
</g>
</defs>

<g transform="matrix( 1, 0, 0, 1, 138.15,-124.1) ">
<use xlink:href="#Layer0_0_MEMBER_0_FILL"/>
</g>

<g transform="matrix( 1, 0, 0, 1, 138.15,-124.1) ">
<use xlink:href="#Layer0_0_MEMBER_1_FILL"/>
</g>

<g transform="matrix( 1, 0, 0, 1, 138.15,-124.1) ">
<use xlink:href="#Layer0_0_MEMBER_2_FILL"/>
</g>

<g transform="matrix( 1, 0, 0, 1, 138.15,-124.1) ">
<use xlink:href="#Layer0_0_MEMBER_3_FILL"/>
</g>

<g transform="matrix( 1, 0, 0, 1, 138.15,-124.1) ">
<use xlink:href="#Layer0_0_MEMBER_4_FILL"/>
</g>

<g transform="matrix( 1, 0, 0, 1, 138.15,-124.1) ">
<use xlink:href="#Layer0_0_MEMBER_5_FILL"/>
</g>
</svg>
