<svg xmlns="http://www.w3.org/2000/svg" xmlns:xlink="http://www.w3.org/1999/xlink" preserveAspectRatio="none" width="92" height="83" viewBox="0 0 92 83"><defs><path fill="#CCC" d="M-100.15 124.1l-7.8 5.95q-13.5 10.35-13.9 19.6.25 9.95 11.2 22.1-9 10.9-14.95 10.75l-12.55-.85 5.7 9.55q4.65 7.75 9.35 11.6 5.5 4.7 11.85 4.7h.05q6-.05 12.1-5.8 4-3.6 8.4-9.7 12.75 11.35 21.3 11.65l1.1.1.1-.1q5.55-.45 10.1-5 4.3-4.25 8.05-11.85l4.15-8.4h-9.3q-9.4-.15-18.5-8.05 3.6-4.45 8.45-8.1 2.3-1.7 4.4-2.7l1.35-.65.35-.1 10.3 1.3-3.05-8.9q-2.35-6.95-6.3-10.9-4.4-4.45-10.65-4.6l-.15.05q-11.35.25-23.3 13.9-5.25-7.9-6.4-15.85l-1.45-9.7z" id="a"/><path fill="#FFF" d="M-107.65 128.4q-12.85 9.75-13.2 18.2.25 9.4 11.7 21.65l.15.3q-10.4 13-17.8 12.7l-8.7-.55 3.85 6.35q4.15 7.2 8.85 11.05 5.2 4.3 10.7 4.3 5.15-.05 10.8-5.3 4.4-4.1 9.3-11.25v.1q13.75 12.3 21.75 12.6 5.25 0 9.95-4.45 4.15-4.3 7.6-11.35l2.8-5.6h-6.25q-10.75 0-21.1-9.8l.15-.2q3.85-5.25 9.75-9.6 5.4-4.2 7.35-3.9l7.4.95-2.05-5.9q-2.3-6.75-5.8-10.2-3.85-4.15-9.4-4-11.15.1-23.45 15.05-6.85-9.05-8.25-18.65l-.95-6.4-5.15 3.9z" id="b"/><path fill="#039" d="M-105.4 131.45q-11.5 8.7-11.5 15.15 0 7.85 10.6 18.95l2.5 2.75-1.95 2.45q-11.65 14.4-21.05 14.4l-1.55-.05q8 13.4 16.25 13.4 7.1 0 18.4-16.95l1.1-1.55 3.3 3.05q12.4 11.6 19.05 11.6 7.45 0 14.1-13.65-12.7 0-24.15-11.2l-2.05-1.95 2.15-3q4.45-5.95 10.55-10.4 6.3-4.65 9.65-4.65.95 0 1.65.15-3.85-11.6-11.5-11.6-9.8 0-21.8 15.3l-1.75 2.25-2.1-2.7q-8.25-10.6-9.9-21.75z" id="c"/><path fill="#009" d="M-114.65 139.15q-3.05 4.05-3.05 7.45 0 8.05 10.75 19.5l2.05 2.3-1.5 1.85q-5.7 7.25-10.8 10.6-5.2 3.55-9.6 3.55l-2.95-.25.75 1.35q3.85 6.55 8.15 10.25 4.4 3.55 8.75 3.55 3.8 0 8.75-4.5 4.65-4.3 10.3-12.75l.6-.8 2.6 2.35q6.2 5.9 11.1 8.85 5.05 3 8.5 3 4 0 7.75-3.6 3.6-3.45 7.05-10.45l.55-1.15h-1.25q-12.3 0-23.6-11l-1.55-1.5 1.7-2.4q4.15-5.65 10.45-10.3 6.1-4.6 9.15-4.45.85 0 1.6.15l1.25.15-.4-1.25q-2.05-5.95-5.1-8.95-3.15-3.1-7.2-3.1-5.2 0-10.75 4-5.4 3.75-11.6 11.6l-1.2 1.4-1.5-1.9q-8.05-10.4-9.7-21.3l-.15-1.35-1.1.8q-6.05 4.7-8.8 8.3m-1.45 7.45q0-3 2.7-6.5 2.6-3.3 7.45-7.15 2.05 10.6 9.8 20.7l2.85 3.55 2.25-3q5.95-7.55 11.3-11.35 5.2-3.7 9.9-3.7 3.45 0 6.1 2.65 2.6 2.6 4.3 7.3l-.55-.1q-3.65 0-10.1 4.8-6.45 4.8-10.75 10.6l-2.6 3.5 2.6 2.55q11.3 10.8 23.45 11.35-3.05 5.85-6.2 8.95-3.2 3.1-6.65 3.1-2.9.15-7.7-2.75-4.75-2.95-10.8-8.6l-4-3.6-1.6 2.2h-.05q-5.35 8.15-10.05 12.6-4.3 4-7.65 4-3.8 0-7.7-3.2-3.6-3-7.05-8.55h.05q4.9 0 10.45-3.75 5.1-3.45 11.2-10.9l2.35-3-2.95-3.2v-.1q-10.35-10.9-10.35-18.4z" id="d"/><path fill="#FFF" fill-opacity=".302" d="M-102.65 143.15q-1.95-4.3-3.15-9.4-5.1 3.85-6.2 5.75-.7 1.25-.7 4.75 0 7.95 10.6 19.05l8.7 5.1 3.9-5.85q1.85-2.45 11.65-9.65 7.25-5.45 12.45-5.45 2.75 0 5 1.5 0-2.95-2.8-5.7-3-2.9-6.7-2.9-9.8 0-21.75 15.3l-1.75 2.15-2.1-2.65q-4.5-5.8-7.15-12z" id="e"/><path fill="#039" d="M-105.75 133.75q1.15 5.1 3.1 9.4-1.85-4.55-2.75-9.75l-.35.35z" id="f"/></defs><use xlink:href="#a" transform="translate(138.15 -124.1)"/><use xlink:href="#b" transform="translate(138.15 -124.1)"/><use xlink:href="#c" transform="translate(138.15 -124.1)"/><use xlink:href="#d" transform="translate(138.15 -124.1)"/><use xlink:href="#e" transform="translate(138.15 -124.1)"/><use xlink:href="#f" transform="translate(138.15 -124.1)"/></svg>