<svg xmlns="http://www.w3.org/2000/svg" xmlns:xlink="http://www.w3.org/1999/xlink" preserveAspectRatio="none" width="400" height="365" viewBox="0 0 400 365"><defs><linearGradient id="a" gradientUnits="userSpaceOnUse" x1="32.862" y1="43.45" x2="-7.863" y2="43.45"><stop offset="0%" stop-color="#D9E021" stop-opacity=".4"/><stop offset="100%" stop-color="#FFF" stop-opacity=".4"/></linearGradient><linearGradient id="b" gradientUnits="userSpaceOnUse" x1="-6.35" y1="51.15" x2="22.75" y2="51.15"><stop offset="0%" stop-color="#FFF" stop-opacity="0"/><stop offset="100%" stop-color="#8CC63F" stop-opacity=".4"/></linearGradient><linearGradient id="c" gradientUnits="userSpaceOnUse" x1="26.987" y1="39.65" x2="76.013" y2="39.65"><stop offset="0%" stop-color="#D9E021" stop-opacity=".502"/><stop offset="100%" stop-color="#FFF" stop-opacity=".502"/></linearGradient><path fill="#EFEFEF" d="M80.5 45.8q0-5.3-4.7-8.1L17.15 3.6Q15 2.35 12.45 2.35q-2.55 0-4.7 1.25Q3.15 6.3 3 11.75v68.2q.15 5.45 4.75 8.15 2.15 1.25 4.7 1.25 2.55 0 4.7-1.25L75.8 54q4.7-2.8 4.7-8.2z" id="d"/><path fill="#FFF" d="M79.4 43.45q0-5.35-4.7-8.15L16.1 1.2Q13.9 0 11.4 0 8.8 0 6.7 1.2 2.05 3.95 1.9 9.4v68.15Q2.05 83 6.7 85.7q2.1 1.25 4.7 1.25 2.5 0 4.7-1.25l58.6-34.1q4.7-2.8 4.7-8.15z" id="e"/><path fill="#D9E021" d="M71.9 47.9q2.476-1.472 2.45-4.4.026-3-2.45-4.5L15.35 6.1q-2.52-1.405-5.2 0-2.497 1.454-2.5 4.45V76.4q.003 2.996 2.5 4.4 2.68 1.59 5.2 0L71.9 47.9z" id="g"/><path fill="url(#a)" d="M71.95 47.95q2.45-1.5 2.45-4.4 0-3-2.45-4.5l-56.6-32.9q-2.55-1.45-5.2 0-2.5 1.45-2.5 4.45v65.85q0 2.95 2.5 4.4 2.65 1.55 5.2 0l56.6-32.9z" id="i"/><path fill="url(#b)" d="M71.95 47.95q2.45-1.5 2.45-4.45 0-3-2.45-4.45l-56.6-32.9q-2.55-1.45-5.2 0-2.5 1.4-2.5 4.4V76.4q0 3 2.5 4.45 2.65 1.55 5.2 0l56.6-32.9z" id="k"/><path fill="url(#c)" d="M71.25 48.3q2.653-1.563 2.65-4.65.003-2.97-2.65-4.6L29.1 15.1Q43.877 32.77 43.85 54q.02 6.292-1.1 10.15l28.5-15.85z" id="l"/><path id="f" stroke="#EAE9E8" stroke-linejoin="round" stroke-linecap="round" fill="none" d="M200.8 354.074q-24.342 0-37.083-21.385L8.56 66.055Q2.874 56.046 2.874 44.67q0-11.83 5.688-21.385Q20.847 2.128 45.645 1.445H355.73q24.797.683 37.31 21.84 5.46 9.555 5.46 21.386 0 11.376-5.46 21.386L237.883 332.69q-12.74 21.384-37.083 21.384z"/><path id="h" stroke="#8CC63F" stroke-width="2" stroke-linejoin="round" stroke-linecap="round" fill="none" d="M200.573 331.21q13.646.003 20.475-11.148L370.63 62.642q6.508-11.462 0-23.545-6.502-11.478-20.133-11.49H50.877q-13.63.012-20.135 11.49-7.127 12.083 0 23.546l149.697 257.42q6.812 11.15 20.133 11.147z"/></defs><use xlink:href="#d" transform="rotate(90 204.85 203.65) scale(4.55005)"/><g transform="rotate(90 202.85 195.65) scale(4.55005)"><use xlink:href="#e"/><use xlink:href="#f" transform="rotate(-90 44.6 43) scale(.21977)"/></g><g transform="rotate(90 202.85 195.65) scale(4.55005)"><use xlink:href="#g"/><use xlink:href="#h" transform="rotate(-90 44.6 43) scale(.21977)"/></g><use xlink:href="#i" transform="rotate(90 202.85 195.65) scale(4.55005)"/><g transform="matrix(4.55005 0 0 4.55005 -129.45 -96.7)"><clipPath id="j"><path fill="#FFF" d="M57.4-2h29.2v87.8H57.4z"/></clipPath><text clip-path="url(#j)" writing-mode="lr"><tspan x="59.5" y="67.9" baseline-shift="0%" font-family="HelveticaRounded-Black" font-size="75" fill="#FFF">-</tspan></text></g><use xlink:href="#k" transform="rotate(90 202.725 195.674) scale(4.54294)"/><use xlink:href="#l" transform="rotate(90 202.725 195.674) scale(4.54294)"/></svg>