<svg xmlns="http://www.w3.org/2000/svg" xmlns:xlink="http://www.w3.org/1999/xlink" preserveAspectRatio="none" width="358" height="407" viewBox="0 0 358 407"><defs><linearGradient id="a" gradientUnits="userSpaceOnUse" x1="32.862" y1="43.45" x2="-7.863" y2="43.45"><stop offset="0%" stop-color="#D9E021" stop-opacity=".4"/><stop offset="100%" stop-color="#FFF" stop-opacity=".4"/></linearGradient><linearGradient id="b" gradientUnits="userSpaceOnUse" x1="-6.35" y1="51.15" x2="22.75" y2="51.15"><stop offset="0%" stop-color="#FFF" stop-opacity="0"/><stop offset="100%" stop-color="#8CC63F" stop-opacity=".4"/></linearGradient><linearGradient id="c" gradientUnits="userSpaceOnUse" x1="26.987" y1="39.65" x2="76.013" y2="39.65"><stop offset="0%" stop-color="#D9E021" stop-opacity=".502"/><stop offset="100%" stop-color="#FFF" stop-opacity=".502"/></linearGradient><path fill="#EFEFEF" d="M80.5 45.8q0-5.3-4.7-8.1L17.15 3.6Q15 2.35 12.45 2.35q-2.55 0-4.7 1.25Q3.15 6.3 3 11.75v68.2q.15 5.45 4.75 8.15 2.15 1.25 4.7 1.25 2.55 0 4.7-1.25L75.8 54q4.7-2.8 4.7-8.2z" id="d"/><path fill="#FFF" d="M79.4 43.45q0-5.35-4.7-8.15L16.1 1.2Q13.9 0 11.4 0 8.8 0 6.7 1.2 2.05 3.95 1.9 9.4v68.15Q2.05 83 6.7 85.7q2.1 1.25 4.7 1.25 2.5 0 4.7-1.25l58.6-34.1q4.7-2.8 4.7-8.15z" id="e"/><path fill="#D9E021" d="M74.35 43.5q.026-3-2.45-4.5L15.35 6.1q-2.52-1.405-5.2 0-2.497 1.454-2.5 4.45V76.4q.003 2.996 2.5 4.4 2.68 1.59 5.2 0L71.9 47.9q2.476-1.472 2.45-4.4z" id="g"/><path fill="url(#a)" d="M74.4 43.55q0-3-2.45-4.5l-56.6-32.9q-2.55-1.45-5.2 0-2.5 1.45-2.5 4.45v65.85q0 2.95 2.5 4.4 2.65 1.55 5.2 0l56.6-32.9q2.45-1.5 2.45-4.4z" id="i"/><path fill="url(#b)" d="M74.4 43.5q0-3-2.45-4.45l-56.6-32.9q-2.55-1.45-5.2 0-2.5 1.4-2.5 4.4V76.4q0 3 2.5 4.45 2.65 1.55 5.2 0l56.6-32.9q2.45-1.5 2.45-4.45z" id="k"/><path fill="url(#c)" d="M73.9 43.65q.003-2.97-2.65-4.6L29.1 15.1Q43.877 32.77 43.85 54q.02 6.292-1.1 10.15l28.5-15.85q2.653-1.563 2.65-4.65z" id="l"/><path id="f" stroke="#EAE9E8" stroke-linejoin="round" stroke-linecap="round" fill="none" d="M79.4 43.45q0 5.35-4.7 8.15L16.1 85.7q-2.2 1.25-4.7 1.25-2.6 0-4.7-1.25-4.65-2.7-4.8-8.15V9.4q.15-5.45 4.8-8.2Q8.8 0 11.4 0q2.5 0 4.7 1.2l58.6 34.1q4.7 2.8 4.7 8.15z"/><path id="h" stroke="#8CC63F" stroke-width="2" stroke-linejoin="round" stroke-linecap="round" fill="none" d="M74.375 43.5q0-3-2.45-4.5L15.35 6.125q-2.52-1.43-5.175 0-2.522 1.43-2.525 4.425V76.4q.003 2.996 2.525 4.425 2.656 1.566 5.175 0l56.575-32.9q2.45-1.497 2.45-4.425z"/></defs><use xlink:href="#d" transform="translate(-8.804) scale(4.55004)"/><g transform="translate(-8.804) scale(4.55004)"><use xlink:href="#e"/><use xlink:href="#f"/></g><g transform="translate(-8.804) scale(4.55004)"><use xlink:href="#g"/><use xlink:href="#h"/></g><use xlink:href="#i" transform="translate(-8.804) scale(4.55004)"/><g transform="translate(-190.35 53.69) scale(4.55004)"><clipPath id="j"><path fill="#FFF" d="M56.75-2h30.5v54.3h-30.5z"/></clipPath><text clip-path="url(#j)" writing-mode="lr"><tspan x="58.85" y="40.75" baseline-shift="0%" font-family="HelveticaRounded_Black_Regular" font-size="45" fill="#FFF">+</tspan></text></g><use xlink:href="#k" transform="translate(-8.804) scale(4.55004)"/><use xlink:href="#l" transform="translate(-8.804) scale(4.55004)"/></svg>