<svg xmlns="http://www.w3.org/2000/svg" xmlns:xlink="http://www.w3.org/1999/xlink" preserveAspectRatio="none" width="400" height="365" viewBox="0 0 400 365"><defs><linearGradient id="a" gradientUnits="userSpaceOnUse" x1="32.862" y1="43.45" x2="-7.863" y2="43.45"><stop offset="0%" stop-color="#D9E021" stop-opacity=".4"/><stop offset="100%" stop-color="#FFF" stop-opacity=".4"/></linearGradient><linearGradient id="b" gradientUnits="userSpaceOnUse" x1="-6.35" y1="51.15" x2="22.75" y2="51.15"><stop offset="0%" stop-color="#FFF" stop-opacity="0"/><stop offset="100%" stop-color="#8CC63F" stop-opacity=".4"/></linearGradient><linearGradient id="c" gradientUnits="userSpaceOnUse" x1="26.987" y1="39.65" x2="76.013" y2="39.65"><stop offset="0%" stop-color="#D9E021" stop-opacity=".502"/><stop offset="100%" stop-color="#FFF" stop-opacity=".502"/></linearGradient><path fill="#EFEFEF" d="M80.5 45.8q0-5.3-4.7-8.1L17.15 3.6Q15 2.35 12.45 2.35q-2.55 0-4.7 1.25Q3.15 6.3 3 11.75v68.2q.15 5.45 4.75 8.15 2.15 1.25 4.7 1.25 2.55 0 4.7-1.25L75.8 54q4.7-2.8 4.7-8.2z" id="d"/><path fill="#FFF" d="M79.4 43.45q0-5.35-4.7-8.15L16.1 1.2Q13.9 0 11.4 0 8.8 0 6.7 1.2 2.05 3.95 1.9 9.4v68.15Q2.05 83 6.7 85.7q2.1 1.25 4.7 1.25 2.5 0 4.7-1.25l58.6-34.1q4.7-2.8 4.7-8.15z" id="e"/><path fill="#D9E021" d="M71.9 47.9q2.476-1.472 2.45-4.4.026-3-2.45-4.5L15.35 6.1q-2.52-1.405-5.2 0-2.497 1.454-2.5 4.45V76.4q.003 2.996 2.5 4.4 2.68 1.59 5.2 0L71.9 47.9z" id="g"/><path fill="url(#a)" d="M71.95 47.95q2.45-1.5 2.45-4.4 0-3-2.45-4.5l-56.6-32.9q-2.55-1.45-5.2 0-2.5 1.45-2.5 4.45v65.85q0 2.95 2.5 4.4 2.65 1.55 5.2 0l56.6-32.9z" id="i"/><path fill="url(#b)" d="M71.95 47.95q2.45-1.5 2.45-4.45 0-3-2.45-4.45l-56.6-32.9q-2.55-1.45-5.2 0-2.5 1.4-2.5 4.4V76.4q0 3 2.5 4.45 2.65 1.55 5.2 0l56.6-32.9z" id="k"/><path fill="url(#c)" d="M71.25 48.3q2.653-1.563 2.65-4.65.003-2.97-2.65-4.6L29.1 15.1Q43.877 32.77 43.85 54q.02 6.292-1.1 10.15l28.5-15.85z" id="l"/><path id="f" stroke="#EAE9E8" stroke-linejoin="round" stroke-linecap="round" fill="none" d="M197.7.426q24.342 0 37.083 21.385L389.94 288.445q5.687 10.01 5.687 21.385 0 11.83-5.688 21.385-12.286 21.157-37.084 21.84H42.77q-24.797-.683-37.31-21.84Q0 321.66 0 309.83q0-11.376 5.46-21.386L160.617 21.81Q173.357.427 197.7.427z"/><path id="h" stroke="#8CC63F" stroke-width="2" stroke-linejoin="round" stroke-linecap="round" fill="none" d="M197.927 23.29q-13.646-.003-20.475 11.148L27.87 291.858q-6.508 11.462 0 23.545 6.502 11.478 20.133 11.49h299.62q13.63-.012 20.135-11.49 7.127-12.083 0-23.546L218.06 34.437q-6.812-11.15-20.133-11.147z"/></defs><use xlink:href="#d" transform="matrix(0 -4.55005 4.55005 0 -8 378.7)"/><g transform="matrix(0 -4.55005 4.55005 0 0 361.7)"><use xlink:href="#e"/><use xlink:href="#f" transform="matrix(0 .21977 -.21977 0 79.5 0)"/></g><g transform="matrix(0 -4.55005 4.55005 0 0 361.7)"><use xlink:href="#g"/><use xlink:href="#h" transform="matrix(0 .21977 -.21977 0 79.5 0)"/></g><use xlink:href="#i" transform="matrix(0 -4.55005 4.55005 0 0 361.7)"/><g transform="matrix(4.55005 0 0 4.55005 -124.45 117.2)"><clipPath id="j"><path fill="#FFF" d="M56.75-2h30.5v54.3h-30.5z"/></clipPath><text clip-path="url(#j)" writing-mode="lr"><tspan x="58.85" y="40.75" baseline-shift="0%" font-family="HelveticaRounded-Black" font-size="45" fill="#FFF">+</tspan></text></g><use xlink:href="#k" transform="scale(4.5482) rotate(-90 39.758 39.747)"/><use xlink:href="#l" transform="scale(4.5482) rotate(-90 39.758 39.747)"/></svg>