<svg xmlns="http://www.w3.org/2000/svg" xmlns:xlink="http://www.w3.org/1999/xlink" preserveAspectRatio="none" width="358" height="407" viewBox="0 0 358 407"><defs><linearGradient id="a" gradientUnits="userSpaceOnUse" x1="49.538" y1="45.85" x2="90.263" y2="45.85"><stop offset="0%" stop-color="#D9E021" stop-opacity=".4"/><stop offset="100%" stop-color="#FFF" stop-opacity=".4"/></linearGradient><linearGradient id="b" gradientUnits="userSpaceOnUse" x1="88.75" y1="38.15" x2="59.65" y2="38.15"><stop offset="0%" stop-color="#FFF" stop-opacity="0"/><stop offset="100%" stop-color="#8CC63F" stop-opacity=".4"/></linearGradient><linearGradient id="c" gradientUnits="userSpaceOnUse" x1="55.413" y1="49.65" x2="6.387" y2="49.65"><stop offset="0%" stop-color="#D9E021" stop-opacity=".502"/><stop offset="100%" stop-color="#FFF" stop-opacity=".502"/></linearGradient><path fill="#EFEFEF" d="M74.65 5.95Q72.5 4.7 69.95 4.7q-2.55 0-4.7 1.25L6.6 40.05q-4.7 2.8-4.7 8.2 0 5.3 4.7 8.1l58.65 34.1q2.15 1.25 4.7 1.25 2.55 0 4.7-1.25 4.6-2.7 4.75-8.15V14.1q-.15-5.45-4.75-8.15z" id="d"/><path fill="#FFF" d="M75.7 3.6Q73.6 2.35 71 2.35q-2.5 0-4.7 1.25L7.7 37.7Q3 40.5 3 45.85 3 51.2 7.7 54l58.6 34.1q2.2 1.2 4.7 1.2 2.6 0 4.7-1.2 4.65-2.75 4.8-8.2V11.75q-.15-5.45-4.8-8.15z" id="e"/><path fill="#D9E021" d="M72.2 8.45q-2.65-1.55-5.15 0l-56.6 32.9Q8 42.85 8 45.8q0 3 2.45 4.5l56.6 32.85q2.5 1.45 5.15 0 2.55-1.4 2.55-4.4V12.9q0-3-2.55-4.45z" id="g"/><path fill="url(#a)" d="M72.25 8.45q-2.65-1.55-5.2 0l-56.6 32.9Q8 42.85 8 45.75q0 3 2.45 4.5l56.6 32.9q2.55 1.45 5.2 0 2.5-1.45 2.5-4.45V12.85q0-2.95-2.5-4.4z" id="i"/><path fill="url(#b)" d="M72.25 8.45q-2.65-1.55-5.2 0l-56.6 32.9Q8 42.85 8 45.8q0 3 2.45 4.45l56.6 32.9q2.55 1.45 5.2 0 2.5-1.4 2.5-4.4V12.9q0-3-2.5-4.45z" id="k"/><path fill="url(#c)" d="M11.15 41Q8.5 42.55 8.5 45.6q0 3 2.65 4.65l42.15 23.9q-14.8-17.6-14.8-38.9.05-6.25 1.1-10.15L11.15 41z" id="l"/><path id="f" stroke="#EAE9E8" stroke-linejoin="round" stroke-linecap="round" fill="none" d="M71 2.35q2.6 0 4.7 1.25 4.65 2.7 4.8 8.15V79.9q-.15 5.45-4.8 8.2-2.1 1.2-4.7 1.2-2.5 0-4.7-1.2L7.7 54Q3 51.2 3 45.85q0-5.35 4.7-8.15L66.3 3.6q2.2-1.25 4.7-1.25z"/><path id="h" stroke="#8CC63F" stroke-width="2" stroke-linejoin="round" stroke-linecap="round" fill="none" d="M72.2 8.45q-2.65-1.55-5.15 0l-56.6 32.9Q8 42.85 8 45.8q0 3 2.45 4.5l56.6 32.85q2.5 1.45 5.15 0 2.55-1.4 2.55-4.4V12.9q0-3-2.55-4.45z"/></defs><use xlink:href="#d" transform="translate(-8.804 -10.835) scale(4.55004)"/><g transform="translate(-8.804 -10.835) scale(4.55004)"><use xlink:href="#e"/><use xlink:href="#f"/></g><g transform="translate(-8.804 -10.835) scale(4.55004)"><use xlink:href="#g"/><use xlink:href="#h"/></g><use xlink:href="#i" transform="translate(-8.804 -10.835) scale(4.55004)"/><g transform="translate(-102.535 42.855) scale(4.55004)"><clipPath id="j"><path fill="#FFF" d="M62.4-2h19.2v54.3H62.4z"/></clipPath><text clip-path="url(#j)" writing-mode="lr"><tspan x="64.5" y="40.75" baseline-shift="0%" font-family="HelveticaRounded_Black_Regular" font-size="45" fill="#FFF">-</tspan></text></g><use xlink:href="#k" transform="translate(-8.804 -10.835) scale(4.55004)"/><use xlink:href="#l" transform="translate(-8.804 -10.835) scale(4.55004)"/></svg>