<svg xmlns="http://www.w3.org/2000/svg" xmlns:xlink="http://www.w3.org/1999/xlink" preserveAspectRatio="none" width="58" height="58" viewBox="0 0 58 58"><defs><linearGradient id="a" gradientUnits="userSpaceOnUse" x1="31.75" y1="3.612" x2="31.75" y2="52.388"><stop offset="0%" stop-opacity=".102"/><stop offset="100%" stop-color="#FFF" stop-opacity=".102"/></linearGradient><linearGradient id="b" gradientUnits="userSpaceOnUse" x1="28.8" y1="22.65" x2="28.8" y2="5.55"><stop offset="0%" stop-opacity=".502"/><stop offset="100%" stop-color="#FFF" stop-opacity=".502"/></linearGradient><path fill="#E2E2E2" d="M58.75 29.4q0-12.2-8.6-20.8Q41.55 0 29.35 0 17.2 0 8.6 8.6T0 29.4q0 12.15 8.6 20.8 8.6 8.6 20.75 8.6 12.2 0 20.8-8.6 8.6-8.65 8.6-20.8z" id="c"/><path fill="#FFF" d="M48.5 48.25q8.2-8.2 8.2-19.8 0-11.6-8.2-19.8Q40.3.45 28.7.45q-11.6 0-19.8 8.2-8.2 8.2-8.2 19.8 0 11.6 8.2 19.8 8.2 8.2 19.8 8.2 11.6 0 19.8-8.2z" id="d"/><path d="M53.7 28.45q0-10.35-7.3-17.65-7.35-7.35-17.7-7.35T11.05 10.8Q3.7 18.1 3.7 28.45q0 10.35 7.35 17.7 7.3 7.3 17.65 7.3 10.35 0 17.7-7.3 7.3-7.35 7.3-17.7z" id="e"/><path fill="#FFF" d="M26.9 43.4l11.95-11.9q2.1-2.15 0-4.25L26.9 15.3q-.85-.8-1.5-.55-.6.25-.6 1.45v26.35q0 1.25.6 1.5.65.2 1.5-.65z" id="g"/><path fill="url(#a)" d="M51.85 28.25q0-9.55-6.75-16.3-6.7-6.7-16.25-6.7t-16.3 6.7q-6.7 6.75-6.7 16.3t6.7 16.25q6.75 6.75 16.3 6.75T45.1 44.5q6.75-6.7 6.75-16.25z" id="h"/><path fill="url(#b)" d="M40.65 19.75q4.85-2.35 4.85-5.65 0-3.35-4.85-5.65-4.9-2.35-11.8-2.35-6.95 0-11.8 2.35-4.9 2.3-4.9 5.65 0 3.3 4.9 5.65 4.9 2.35 11.8 2.35t11.8-2.35z" id="i"/><path id="f" stroke="#999" stroke-miterlimit="3" fill="none" d="M46.4 46.15q-7.35 7.3-17.7 7.3t-17.65-7.3Q3.7 38.8 3.7 28.45t7.35-17.65q7.3-7.35 17.65-7.35 10.35 0 17.7 7.35 7.3 7.3 7.3 17.65 0 10.35-7.3 17.7z"/><path id="j" stroke="#666" stroke-miterlimit="3" fill="none" d="M28.85 6.1q6.9 0 11.8 2.35 4.85 2.3 4.85 5.65 0 3.3-4.85 5.65-4.9 2.35-11.8 2.35t-11.8-2.35q-4.9-2.35-4.9-5.65 0-3.35 4.9-5.65Q21.9 6.1 28.85 6.1z"/></defs><use xlink:href="#c"/><use xlink:href="#d"/><use xlink:href="#e"/><use xlink:href="#f"/><use xlink:href="#g"/><use xlink:href="#h"/><use xlink:href="#i"/><use xlink:href="#j"/></svg>