
<svg xmlns="http://www.w3.org/2000/svg" version="1.1" xmlns:xlink="http://www.w3.org/1999/xlink" preserveAspectRatio="none" x="0px" y="0px" width="68px" height="85px" viewBox="0 0 68 85">
<defs>
<g id="Layer0_0_FILL">
<path fill="#FFFF99" stroke="none" d="
M 278.4 154.8
L 278.4 155 278.45 155
Q 278.40234375 154.9046875 278.4 154.8
M 254.7 92.6
L 254.45 92.5 254.45 92.55 254.7 92.6 Z"/>

<path fill="#FFE1C4" stroke="none" d="
M 271.65 137.55
Q 271.4 139.25 270.95 145.9 270.5 152.45 270.3 153.65 270.3 152.7 269.9 150 269.7 148.55 269.25 145.85
L 269 145.85
Q 268.7 147.5 268.7 151
L 268.7 151.25
Q 268.3 150.4 267.95 147.85 267.5 145.15 267.35 144.8 266.7 145.9 266.6 148.85 266.55 151 266.8 153.4 267.15 156.4 266 157.8 265.35 158.7 264.25 158.8 273 160.1 285.2 160.95 283.05 160.4 281.4 159.2 279 157.45 278.45 155
L 278.4 155
Q 278.6 155.85 278.6 157.05 278.6 158.25 278.4 159.05
L 275.45 159.05 274.85 158.3 274.65 158 274.7 158
Q 274.1 155.6 273.2 149.05 273.2 149 271.95 137.55
L 271.65 137.55
M 305.25 123.7
L 305.3 123.7
Q 305.5 123.55 305.95 123.2 306.1 122.95 306.15 122.25 306.15 121.6 305.15 120.95 304.15 120.3 301.9 118.95 301.5 118.7 301.2 118.45
L 301.15 118.4
Q 299.65 117 299.75 114.2 299.9 110.8 301 108.6 301.5 107.7 301.8 106.75
L 301.8 106.7
Q 299.65 104.95 296.95 101.3 294.35 97.85 292.85 94.95 291.25 100.7 288.65 105.1 293.05 105.55 294.65 108.85 296.3 112.35 297 117.95 296.2 116.8 294.6 115.95 292.4 114.75 287.95 115.2 283.5 115.65 281.05 117.95 281.0015625 117.9984375 281 118.05 280.75 120.25 280.6 121.9 280.05 127.85 280.05 132.75 280.05 137.25 280.4 140.7 280.55 140.75 280.7 140.8 286.8 143.6 288.95 143.9 291.05 144.15 292.5 143.95 294 143.7 294.85 142.25 294.95 142 295.1 141.75 295.3 141.25 295.5 140.75 295.55 140.5 295.65 140.35 295.8 140.1 295.95 139.3 296.15 138.5 297.2 137.5 297.9 136.75 298.35 136.55
L 298.85 136.25 298.3 136.25
Q 298.4 136.15 298.45 136.05 295.2 135.15 294.75 132.25 294.7 132.1 294.65 132 294.25 131.7 293.9 131.35 294.25 131.7 294.65 132 294.75 132.05 294.9 132.15 297.95 130.2 300.6 131.05 300.6 131 300.7 130.95 300.6 130.8 300.4 130.15 300.2 129.6 300.15 128.8
L 300.1 128.8
Q 299.7 128.85 298.55 127.9 297.4 126.85 297.4 126.4 297.4 125.75 297.9 125.65 298.15 125.65 298.8 125.4 300.25 125.35 300.85 125.15 301.65 124.9 302.9 124.5 305.05 123.8 305.25 123.7 Z"/>

<path fill="#FDCC0B" stroke="none" d="
M 256.05 107.1
Q 256 107.3 255.95 107.6 256 107.5 256.05 107.4
L 256.05 107.1
M 293.55 144.35
Q 292.5 144.7 289.45 145.35 286.9 145.85 285.85 146.45 284.3 147.35 284.3 149.1 284.3 150.6 285.25 153.35 287.85 154.4 291.85 155.5 299.85 157.7 299.9 156.7
L 300.5 157.35
Q 298.2 154.5 296.95 150.9 295.9 147.9 295.3 143.5 294.55 144 293.55 144.35
M 295.5 92.75
L 295.2 92.75 295.15 92.9
Q 295.3 92.85 295.5 92.75
M 257.65 93.65
L 257.95 93.65 257.75 93.6
Q 257.7015625 93.6484375 257.65 93.65
M 254.45 92.55
L 254.45 92.6 254.7 92.6 254.45 92.55
M 245.15 97.8
Q 245.15 97.65 245.2 97.5 242.85 103.05 240.8 110.85 236.3 127.85 242.8 151.1 244.9 155.7 262.35 158.5 263.25 158.65 264.25 158.8 265.35 158.7 266 157.8 267.15 156.4 266.8 153.4 266.55 151 266.6 148.85 266.7 145.9 267.35 144.8 267.5 145.15 267.95 147.85 268.3 150.4 268.7 151.25
L 268.7 151
Q 268.7 147.5 269 145.85
L 269.25 145.85
Q 269.7 148.55 269.9 150 270.3 152.7 270.3 153.65 270.5 152.45 270.95 145.9 271.4 139.25 271.65 137.55
L 271.95 137.55
Q 273.2 149 273.2 149.05 274.1 155.6 274.7 158
L 274.65 158 274.85 158.3 275.45 159.05 278.4 159.05
Q 278.6 158.25 278.6 157.05 278.6 155.85 278.4 155
L 278.4 154.8
Q 278.40234375 154.9046875 278.45 155 279 157.45 281.4 159.2 283.05 160.4 285.2 160.95 285.8 161 286.45 161.05 287.45 161.1 288.5 161.2 287.7 160.2 285.5 157.7 284.35 156.4 283.9 155.4 283.45 154.45 282.8 152.2 282.6 151.45 282.35 150.55 281.1 145.65 280.65 142.5 280.5 141.75 280.45 140.85 280.4 140.75 280.4 140.7 280.05 137.25 280.05 132.75 280.05 127.85 280.6 121.9 280.75 120.25 281 118.05 281 117.9984375 281 117.95 281.15 115.95 281.4 113.5 285.15 110.45 287.85 106.35 288.25 105.7 288.65 105.1 291.25 100.7 292.85 94.95 294.35 97.85 296.95 101.3 299.65 104.95 301.8 106.7
L 302 106.7
Q 301.95 106.75 301.95 106.8
L 301.8 106.75
Q 301.5 107.7 301 108.6 299.9 110.8 299.75 114.2 299.65 117 301.15 118.4 302.95 112.8 303.75 110.65 304.3 109.65 304.5 105.25 304.7 100.85 304.4 99.55 304.25 98.65 303.7 97.3 303.1 97.4 302.35 97.4 300.8 97.4 298.75 96.55 298.9 96.85 298.95 97.1 297.25 96 296.25 95.35 296 95.15 295.8 95 295.5 94.8 295.3 94.7 294.35 94.05 293.65 93.25
L 293.4 93.45
Q 291.75 92.2 291.2 91.1 290.65 91.5 287.7 94.15 286.35 95.4 284.8 95.4 283.35 95.4 282.8 94.8 282.2 94.2 282.2 92.65 282.2 91.35 282.5 90.8
L 282.2 90.8
Q 278.85 97.75 276.75 102.05 274.65 106.35 271.65 110.6 268.65 114.8 262.1 117.75 255.55 120.75 254.05 120.45 252.5 120.15 251.35 119.8 250.8 123.3 250.15 128.9
L 250.15 119.35
Q 247.85 118.25 246.2 115.55 243.85 111.75 243.85 107.35 243.85 102.85 245.15 97.8
M 283.9 97.05
L 284.05 97.1
Q 283.9 97.9 283.75 99 283.65 99.9 283.4 100.95 284.5 99.6 285.3 98.2 285.7 97.4 286.4 96
L 286.4 97.4
Q 285.8 98.6 285.6 99.45 285.4 100.4 285.35 100.6
L 285.35 100.75
Q 285.75 100.25 287.6 98.15 289.15 96.35 289.6 95.35
L 289.75 95.4
Q 289.65 95.6 289.6 96 289.6 96.15 289.55 96.35 287.9 100.15 286.95 101.8 285.15 104.95 283.2 106.35
L 283.15 106.3
Q 284 105.15 284.2 104.9 284.55 104.25 284.8 103.2 283.2 104.8 282.25 105.7 280.638671875 107.2625 280.15 107.95 282.0029296875 105.04140625 282.5 103.55 282.2 103.7 281.75 104.15 281.25 104.65 280.75 105 282.1 102.6 282.65 101.2 282.95 100.4 283.9 97.05
M 270.75 79.55
L 270.75 79.8
Q 270.85 79.75 270.9 79.75
L 270.75 79.55
M 279.4 82.4
L 279.35 82.1 279.35 82.4 279.4 82.4 Z"/>

<path fill="#CC9900" stroke="none" d="
M 289.45 145.35
Q 292.5 144.7 293.55 144.35 294.55 144 295.3 143.5 295.2 142.6 295.1 141.75 294.95 142 294.85 142.25 294 143.7 292.5 143.95 291.05 144.15 288.95 143.9 286.8 143.6 280.7 140.8
L 280.45 140.85
Q 280.5 141.75 280.65 142.5 281.1 145.65 282.35 150.55 282.6 151.45 282.8 152.2 283.85 152.75 285.25 153.35 284.3 150.6 284.3 149.1 284.3 147.35 285.85 146.45 286.9 145.85 289.45 145.35 Z"/>

<path fill="#FF6699" stroke="none" d="
M 294.9 132.15
Q 296.25 133 298.65 133.3
L 298.7 133.15
Q 299.35 132.25 300.6 131.05 297.95 130.2 294.9 132.15 Z"/>

<path fill="#FEBCBC" stroke="none" d="
M 294.9 132.15
L 294.75 132.25
Q 295.2 135.15 298.45 136.05 299.4 134.8 298.7 133.3
L 298.65 133.3
Q 296.25 133 294.9 132.15 Z"/>

<path fill="#FEC289" stroke="none" d="
M 302.9 124.5
Q 301.65 124.9 300.85 125.15 300.25 125.35 298.8 125.4 298.15 125.65 297.9 125.65 297.4 125.75 297.4 126.4 297.4 126.85 298.55 127.9 299.7 128.85 300.1 128.8
L 300.15 128.5
Q 300.15 128.4 300.15 128.25 300.2 127.1 303.05 125.5 304.65 124.65 305.45 123.9
L 305.25 123.7
Q 305.05 123.8 302.9 124.5
M 288.65 105.1
Q 288.25 105.7 287.85 106.35 285.15 110.45 281.4 113.5 281.15 115.95 281 117.95
L 281.05 117.95
Q 283.5 115.65 287.95 115.2 292.4 114.75 294.6 115.95 296.2 116.8 297 117.95 296.3 112.35 294.65 108.85 293.05 105.55 288.65 105.1 Z"/>

<path fill="#FFFFFF" stroke="none" d="
M 295.2 92.75
L 295.5 92.75
Q 295.3 92.85 295.15 92.9 294.15 93.15 293.85 93.05
L 293.65 93.25
Q 294.35 94.05 295.3 94.7 295.5 94.8 295.8 95 296 95.15 296.25 95.35 297.25 96 298.95 97.1 298.9 96.85 298.75 96.55 298.35 95.4 297.25 93.35 297.9 94.2 299.75 95.2 300.05 95.4 300.35 95.65
L 299.3 93.4
Q 296.7 90.85 295.6 90.1 292.7 88.1 289.15 88.15 293.2 90.85 295.2 92.75
M 284.05 97.1
L 283.9 97.05
Q 282.95 100.4 282.65 101.2 282.1 102.6 280.75 105 281.25 104.65 281.75 104.15 282.2 103.7 282.5 103.55 282.0029296875 105.04140625 280.15 107.95 280.638671875 107.2625 282.25 105.7 283.2 104.8 284.8 103.2 284.55 104.25 284.2 104.9 284 105.15 283.15 106.3
L 283.2 106.35
Q 285.15 104.95 286.95 101.8 287.9 100.15 289.55 96.35 289.6 96.15 289.6 96 289.65 95.6 289.75 95.4
L 289.6 95.35
Q 289.15 96.35 287.6 98.15 285.75 100.25 285.35 100.75
L 285.35 100.6
Q 285.4 100.4 285.6 99.45 285.8 98.6 286.4 97.4
L 286.4 96
Q 285.7 97.4 285.3 98.2 284.5 99.6 283.4 100.95 283.65 99.9 283.75 99 283.9 97.9 284.05 97.1
M 260.65 86.4
L 260.55 86.2
Q 258.9 86.85 257.5 88.45 256.3 89.8 254.7 92.6
L 254.45 92.6 254.45 92.55 254.45 92.5
Q 254.55 92.25 254.95 91.25 255.25 90.35 255.25 89.9
L 255.15 89.8
Q 254.65 90.4 252.75 92.4 252.55 92.65 252.35 92.9 252 93.3 251.8 93.8 249.6 97.9 247.85 107.5 247.2 111.2 246.7 114.85 247.15 113.1 247.85 111.25 248.5 109.5 251.2 104.2 251.15 105.2 250.7 108.45 250.1 112.25 250.15 113.85
L 250.15 119.35 250.15 128.9
Q 250.8 123.3 251.35 119.8 251.8 117.25 252.2 115.9 252.9 113.45 255.95 107.6 256 107.3 256.05 107.1
L 256.05 107.4
Q 256 107.5 255.95 107.6 255.85 108 255.8 108.55 255.65 109.8 255.5 110.35
L 255.5 115.2
Q 256.45 113.3 258.75 108.45 258.85 109.75 258.65 110.85 258.6 110.95 257.95 114.1
L 258.15 114.3
Q 259.5 113.05 261.2 106.35 262.1 102.75 262.8 99.05 262.8 100.4 262.55 104.5 262.35 108.7 262.25 109
L 262.25 110.35 262.5 110.35
Q 262.7 109.4 264.25 101.55 265.75 93.5 265.75 90.55
L 265.75 89.1
Q 265.35 90.35 264.15 92.05 262.8 93.9 262.25 95.3
L 262 95.3
Q 262 93.55 262.8 90.3 263.6 87.2 264.4 85.6 263.85 85.75 261.65 88.7
L 257.95 93.65 257.65 93.65
Q 257.7015625 93.6484375 257.75 93.6 258.15 92.65 259.2 90.05 260.35 87.25 260.65 86.4
M 280.8 79.9
L 280.5 79.8
Q 279.55 80.75 277.3 81.6 277.3 80.45 277.6 79.9
L 277.3 79.8
Q 277 79.8 276.65 79.95 276.3 80.1 276.2 80.1 276.3 79.85 277.1 78.65
L 275.35 78.65
Q 274.65 79.35 273.8 79.75 272.65 80.3 272.45 80.4
L 272.45 80.1
Q 272.55 79.65 272.9 79.4 273.15 79.15 273.3 78.65
L 273.05 78.65
Q 272.15 78.45 272 78.75 271.65 79.35 270.9 79.75 270.85 79.75 270.75 79.8
L 270.75 79.55
Q 271.1 78.9 271.6 77.8 270.75 78.25 269.5 79.5 268.8 80.2 267.55 80.1
L 267.55 78.65
Q 267.2 79.4 266.45 80.05 265.95 80.55 265.75 80.8 268.05 80.9 270.3 81.2 272.75 81.6 275.6 82.35 282.6 84.25 283.9 84.25 283.95 84.25 284 84.25
L 284.4 83.55
Q 284.85 82.9 284.85 81.8
L 284.25 81.8
Q 283.5 82.2 282.55 83
L 281.1 83
Q 281.4 82.7 281.4 81.8 280.25 82.4 279.4 82.4
L 279.35 82.4 279.35 82.1
Q 279.6 81.65 280.25 81 280.7 80.5 280.8 79.9 Z"/>

<path fill="#FEDC56" stroke="none" d="
M 260.55 86.2
L 260.65 86.4
Q 260.35 87.25 259.2 90.05 258.15 92.65 257.75 93.6
L 257.95 93.65 261.65 88.7
Q 263.85 85.75 264.4 85.6 263.6 87.2 262.8 90.3 262 93.55 262 95.3
L 262.25 95.3
Q 262.8 93.9 264.15 92.05 265.35 90.35 265.75 89.1
L 265.75 90.55
Q 265.75 93.5 264.25 101.55 262.7 109.4 262.5 110.35
L 262.25 110.35 262.25 109
Q 262.35 108.7 262.55 104.5 262.8 100.4 262.8 99.05 262.1 102.75 261.2 106.35 259.5 113.05 258.15 114.3
L 257.95 114.1
Q 258.6 110.95 258.65 110.85 258.85 109.75 258.75 108.45 256.45 113.3 255.5 115.2
L 255.5 110.35
Q 255.65 109.8 255.8 108.55 255.85 108 255.95 107.6 252.9 113.45 252.2 115.9 251.8 117.25 251.35 119.8 252.5 120.15 254.05 120.45 255.55 120.75 262.1 117.75 268.65 114.8 271.65 110.6 274.65 106.35 276.75 102.05 278.85 97.75 282.2 90.8
L 282.5 90.8
Q 282.2 91.35 282.2 92.65 282.2 94.2 282.8 94.8 283.35 95.4 284.8 95.4 286.35 95.4 287.7 94.15 290.65 91.5 291.2 91.1 291.75 92.2 293.4 93.45
L 293.65 93.25 293.85 93.05
Q 294.15 93.15 295.15 92.9
L 295.2 92.75
Q 293.2 90.85 289.15 88.15 292.7 88.1 295.6 90.1 296.7 90.85 299.3 93.4
L 300.35 95.65
Q 300.05 95.4 299.75 95.2 297.9 94.2 297.25 93.35 298.35 95.4 298.75 96.55 300.8 97.4 302.35 97.4 303.1 97.4 303.7 97.3 303.4 96.7 303.1 96 302 93.7 301.95 92.9 300.25 88.7 296.9 86.35 293.2 83.2 290.6 81.75 288.05 80.3 282.55 78.65 276.8 77 272.75 77 264.55 77 263.05 80.2 263.3 80.2 263.3 80.45
L 263.85 80.75
Q 262.75 80.75 261.6 80.8 257.2 81 251.25 87.35 248.05 90.8 245.2 97.5 245.15 97.65 245.15 97.8 243.85 102.85 243.85 107.35 243.85 111.75 246.2 115.55 247.85 118.25 250.15 119.35
L 250.15 113.85
Q 250.1 112.25 250.7 108.45 251.15 105.2 251.2 104.2 248.5 109.5 247.85 111.25 247.15 113.1 246.7 114.85 247.2 111.2 247.85 107.5 249.6 97.9 251.8 93.8 252 93.3 252.35 92.9 252.55 92.65 252.75 92.4 254.65 90.4 255.15 89.8
L 255.25 89.9
Q 255.25 90.35 254.95 91.25 254.55 92.25 254.45 92.5
L 254.7 92.6
Q 256.3 89.8 257.5 88.45 258.9 86.85 260.55 86.2
M 280.5 79.8
L 280.8 79.9
Q 280.7 80.5 280.25 81 279.6 81.65 279.35 82.1
L 279.4 82.4
Q 280.25 82.4 281.4 81.8 281.4 82.7 281.1 83
L 282.55 83
Q 283.5 82.2 284.25 81.8
L 284.85 81.8
Q 284.85 82.9 284.4 83.55
L 284 84.25
Q 283.95 84.25 283.9 84.25 282.6 84.25 275.6 82.35 272.75 81.6 270.3 81.2 268.05 80.9 265.75 80.8 265.95 80.55 266.45 80.05 267.2 79.4 267.55 78.65
L 267.55 80.1
Q 268.8 80.2 269.5 79.5 270.75 78.25 271.6 77.8 271.1 78.9 270.75 79.55
L 270.9 79.75
Q 271.65 79.35 272 78.75 272.15 78.45 273.05 78.65
L 273.3 78.65
Q 273.15 79.15 272.9 79.4 272.55 79.65 272.45 80.1
L 272.45 80.4
Q 272.65 80.3 273.8 79.75 274.65 79.35 275.35 78.65
L 277.1 78.65
Q 276.3 79.85 276.2 80.1 276.3 80.1 276.65 79.95 277 79.8 277.3 79.8
L 277.6 79.9
Q 277.3 80.45 277.3 81.6 279.55 80.75 280.5 79.8
M 277.25 95.35
L 277.05 95.3 277.25 95.3 277.25 95.35
M 285.8 92.65
L 285.8 92.6 285.95 92.7 285.8 92.65 Z"/>
</g>

<g id="Layer0_0_MEMBER_0_FILL">
<path fill="#996600" stroke="none" d="
M 234.85 124.2
Q 234.35 124.1 233.75 124.1 232.85 124.1 232.2 124.6 232.15 124.65 232.1 124.7 231.5 125.3 231.5 126.1
L 231.5 126.2
Q 231.5 126.25 231.5 126.3 232.4 126.95 233.55 126.95 234.1 126.95 234.65 126.8 234.85 125.5 234.85 124.2 Z"/>

<path fill="#000000" stroke="none" d="
M 232.75 123.4
Q 232.5 123.05 232.5 122.75 232.5 121.8 233.7 121.7 234.05 121.7 234.3 121.75 234.4 121.8 234.5 121.9 234.6 121.95 234.65 122.05 234.5 121.55 234.4 121.05 234 120.95 233.55 120.95 232.15 120.95 231.2 121.8 230.25 122.7 230.25 123.9 230.25 124.45 230.45 124.9 230.65 125.55 231.2 126.05
L 231.5 126.1
Q 231.5 125.3 232.1 124.7 232.15 124.65 232.2 124.6 232.85 124.1 233.75 124.1 234.35 124.1 234.85 124.2 234.8 123.65 234.75 123.1 234.7 123.2 234.65 123.35 234.45 123.65 234.15 123.75 233.95 123.8 233.7 123.8 233.1 123.8 232.75 123.4 Z"/>

<path fill="#FFFFFF" stroke="none" d="
M 232.5 122.75
Q 232.5 123.05 232.75 123.4 233.1 123.8 233.7 123.8 233.95 123.8 234.15 123.75 234.45 123.65 234.65 123.35 234.7 123.2 234.75 123.1 234.8 122.85 234.8 122.75 234.8 122.3 234.65 122.05 234.6 121.95 234.5 121.9 234.4 121.8 234.3 121.75 234.05 121.7 233.7 121.7 232.5 121.8 232.5 122.75 Z"/>
</g>

<g id="Layer0_0_MEMBER_1_FILL">
<path fill="#CC9900" stroke="none" d="
M 231.2 115.35
Q 226.1 115.45 222.9 117 226.35 116.45 230.7 116.6 234.45 116.75 238.9 117.45 239.45 117.55 240.05 117.65
L 239.95 116
Q 236.7 115.55 233.9 115.4 232.5 115.35 231.2 115.35 Z"/>
</g>

<path id="Layer0_0_1_STROKES" stroke="#FF0066" stroke-width="1" stroke-linejoin="round" stroke-linecap="round" fill="none" d="
M 298.7 133.15
L 298.7 133.3
M 294.9 132.15
Q 294.75 132.05 294.65 132 294.7 132.1 294.75 132.25
M 298.65 133.3
Q 296.25 133 294.9 132.15
M 294.65 132
Q 294.25 131.7 293.9 131.35
M 298.7 133.3
L 298.65 133.3"/>
</defs>

<g transform="matrix( 1, 0, 0, 1, -238.95,-77) ">
<use xlink:href="#Layer0_0_FILL"/>

<use xlink:href="#Layer0_0_1_STROKES"/>
</g>

<g transform="matrix( 1, 0, 0, 1, -182.75,-86.45) ">
<use xlink:href="#Layer0_0_MEMBER_0_FILL"/>
</g>

<g transform="matrix( 1, 0, 0, 1, -182.75,-86.45) ">
<use xlink:href="#Layer0_0_MEMBER_1_FILL"/>
</g>
</svg>
