<svg xmlns="http://www.w3.org/2000/svg" xmlns:xlink="http://www.w3.org/1999/xlink" preserveAspectRatio="none" width="68" height="85" viewBox="0 0 68 85"><defs><g id="a"><path fill="#FF9" d="M278.4 154.8v.2h.05q-.048-.095-.05-.2m-23.7-62.2l-.25-.1v.05l.25.05z"/><path fill="#FFE1C4" d="M271.65 137.55q-.25 1.7-.7 8.35-.45 6.55-.65 7.75 0-.95-.4-3.65-.2-1.45-.65-4.15H269q-.3 1.65-.3 5.15v.25q-.4-.85-.75-3.4-.45-2.7-.6-3.05-.65 1.1-.75 4.05-.05 2.15.2 4.55.35 3-.8 4.4-.65.9-1.75 1 8.75 1.3 20.95 2.15-2.15-.55-3.8-1.75-2.4-1.75-2.95-4.2h-.05q.2.85.2 2.05 0 1.2-.2 2h-2.95l-.6-.75-.2-.3h.05q-.6-2.4-1.5-8.95 0-.05-1.25-11.5h-.3m33.6-13.85h.05q.2-.15.65-.5.15-.25.2-.95 0-.65-1-1.3t-3.25-2q-.4-.25-.7-.5l-.05-.05q-1.5-1.4-1.4-4.2.15-3.4 1.25-5.6.5-.9.8-1.85v-.05q-2.15-1.75-4.85-5.4-2.6-3.45-4.1-6.35-1.6 5.75-4.2 10.15 4.4.45 6 3.75 1.65 3.5 2.35 9.1-.8-1.15-2.4-2-2.2-1.2-6.65-.75-4.45.45-6.9 2.75-.048.048-.05.1-.25 2.2-.4 3.85-.55 5.95-.55 10.85 0 4.5.35 7.95l.3.1q6.1 2.8 8.25 3.1 2.1.25 3.55.05 1.5-.25 2.35-1.7.1-.25.25-.5l.4-1q.05-.25.15-.4.15-.25.3-1.05.2-.8 1.25-1.8.7-.75 1.15-.95l.5-.3h-.55q.1-.1.15-.2-3.25-.9-3.7-3.8-.05-.15-.1-.25-.4-.3-.75-.65.35.35.75.65.1.05.25.15 3.05-1.95 5.7-1.1 0-.05.1-.1-.1-.15-.3-.8-.2-.55-.25-1.35h-.05q-.4.05-1.55-.9-1.15-1.05-1.15-1.5 0-.65.5-.75.25 0 .9-.25 1.45-.05 2.05-.25.8-.25 2.05-.65 2.15-.7 2.35-.8z"/><path fill="#FDCC0B" d="M256.05 107.1q-.05.2-.1.5l.1-.2v-.3m37.5 37.25q-1.05.35-4.1 1-2.55.5-3.6 1.1-1.55.9-1.55 2.65 0 1.5.95 4.25 2.6 1.05 6.6 2.15 8 2.2 8.05 1.2l.6.65q-2.3-2.85-3.55-6.45-1.05-3-1.65-7.4-.75.5-1.75.85m1.95-51.6h-.3l-.05.15q.15-.05.35-.15m-37.85.9h.3l-.2-.05q-.048.048-.1.05m-3.2-1.1v.05h.25l-.25-.05m-9.3 5.25q0-.15.05-.3-2.35 5.55-4.4 13.35-4.5 17 2 40.25 2.1 4.6 19.55 7.4.9.15 1.9.3 1.1-.1 1.75-1 1.15-1.4.8-4.4-.25-2.4-.2-4.55.1-2.95.75-4.05.15.35.6 3.05.35 2.55.75 3.4V151q0-3.5.3-5.15h.25q.45 2.7.65 4.15.4 2.7.4 3.65.2-1.2.65-7.75.45-6.65.7-8.35h.3q1.25 11.45 1.25 11.5.9 6.55 1.5 8.95h-.05l.2.3.6.75h2.95q.2-.8.2-2t-.2-2.05v-.2q.002.105.05.2.55 2.45 2.95 4.2 1.65 1.2 3.8 1.75.6.05 1.25.1 1 .05 2.05.15-.8-1-3-3.5-1.15-1.3-1.6-2.3-.45-.95-1.1-3.2-.2-.75-.45-1.65-1.25-4.9-1.7-8.05-.15-.75-.2-1.65-.05-.1-.05-.15-.35-3.45-.35-7.95 0-4.9.55-10.85.15-1.65.4-3.85v-.1q.15-2 .4-4.45 3.75-3.05 6.45-7.15.4-.65.8-1.25 2.6-4.4 4.2-10.15 1.5 2.9 4.1 6.35 2.7 3.65 4.85 5.4h.2q-.05.05-.05.1l-.15-.05q-.3.95-.8 1.85-1.1 2.2-1.25 5.6-.1 2.8 1.4 4.2 1.8-5.6 2.6-7.75.55-1 .75-5.4.2-4.4-.1-5.7-.15-.9-.7-2.25-.6.1-1.35.1-1.55 0-3.6-.85.15.3.2.55-1.7-1.1-2.7-1.75-.25-.2-.45-.35-.3-.2-.5-.3-.95-.65-1.65-1.45l-.25.2q-1.65-1.25-2.2-2.35-.55.4-3.5 3.05-1.35 1.25-2.9 1.25-1.45 0-2-.6-.6-.6-.6-2.15 0-1.3.3-1.85h-.3q-3.35 6.95-5.45 11.25t-5.1 8.55q-3 4.2-9.55 7.15-6.55 3-8.05 2.7-1.55-.3-2.7-.65-.55 3.5-1.2 9.1v-9.55q-2.3-1.1-3.95-3.8-2.35-3.8-2.35-8.2 0-4.5 1.3-9.55m38.75-.75l.15.05q-.15.8-.3 1.9-.1.9-.35 1.95 1.1-1.35 1.9-2.75l1.1-2.2v1.4q-.6 1.2-.8 2.05-.2.95-.25 1.15v.15q.4-.5 2.25-2.6 1.55-1.8 2-2.8l.15.05q-.1.2-.15.6 0 .15-.05.35-1.65 3.8-2.6 5.45-1.8 3.15-3.75 4.55l-.05-.05q.85-1.15 1.05-1.4.35-.65.6-1.7-1.6 1.6-2.55 2.5-1.61 1.563-2.1 2.25 1.853-2.91 2.35-4.4-.3.15-.75.6-.5.5-1 .85 1.35-2.4 1.9-3.8.3-.8 1.25-4.15m-13.15-17.5v.25q.1-.05.15-.05l-.15-.2m8.65 2.85l-.05-.3v.3h.05z"/><path fill="#C90" d="M289.45 145.35q3.05-.65 4.1-1 1-.35 1.75-.85-.1-.9-.2-1.75-.15.25-.25.5-.85 1.45-2.35 1.7-1.45.2-3.55-.05-2.15-.3-8.25-3.1l-.25.05q.05.9.2 1.65.45 3.15 1.7 8.05.25.9.45 1.65 1.05.55 2.45 1.15-.95-2.75-.95-4.25 0-1.75 1.55-2.65 1.05-.6 3.6-1.1z"/><path fill="#F69" d="M294.9 132.15q1.35.85 3.75 1.15l.05-.15q.65-.9 1.9-2.1-2.65-.85-5.7 1.1z"/><path fill="#FEBCBC" d="M294.9 132.15l-.15.1q.45 2.9 3.7 3.8.95-1.25.25-2.75h-.05q-2.4-.3-3.75-1.15z"/><path fill="#FEC289" d="M302.9 124.5q-1.25.4-2.05.65-.6.2-2.05.25-.65.25-.9.25-.5.1-.5.75 0 .45 1.15 1.5 1.15.95 1.55.9l.05-.3v-.25q.05-1.15 2.9-2.75 1.6-.85 2.4-1.6l-.2-.2q-.2.1-2.35.8m-14.25-19.4q-.4.6-.8 1.25-2.7 4.1-6.45 7.15-.25 2.45-.4 4.45h.05q2.45-2.3 6.9-2.75 4.45-.45 6.65.75 1.6.85 2.4 2-.7-5.6-2.35-9.1-1.6-3.3-6-3.75z"/><path fill="#FFF" d="M295.2 92.75h.3q-.2.1-.35.15-1 .25-1.3.15l-.2.2q.7.8 1.65 1.45.2.1.5.3.2.15.45.35 1 .65 2.7 1.75-.05-.25-.2-.55-.4-1.15-1.5-3.2.65.85 2.5 1.85.3.2.6.45l-1.05-2.25q-2.6-2.55-3.7-3.3-2.9-2-6.45-1.95 4.05 2.7 6.05 4.6m-11.15 4.35l-.15-.05q-.95 3.35-1.25 4.15-.55 1.4-1.9 3.8.5-.35 1-.85.45-.45.75-.6-.497 1.49-2.35 4.4.49-.688 2.1-2.25.95-.9 2.55-2.5-.25 1.05-.6 1.7-.2.25-1.05 1.4l.05.05q1.95-1.4 3.75-4.55.95-1.65 2.6-5.45.05-.2.05-.35.05-.4.15-.6l-.15-.05q-.45 1-2 2.8-1.85 2.1-2.25 2.6v-.15q.05-.2.25-1.15.2-.85.8-2.05V96l-1.1 2.2q-.8 1.4-1.9 2.75.25-1.05.35-1.95.15-1.1.3-1.9m-23.4-10.7l-.1-.2q-1.65.65-3.05 2.25-1.2 1.35-2.8 4.15h-.25v-.1l.5-1.25q.3-.9.3-1.35l-.1-.1q-.5.6-2.4 2.6l-.4.5q-.35.4-.55.9-2.2 4.1-3.95 13.7-.65 3.7-1.15 7.35.45-1.75 1.15-3.6.65-1.75 3.35-7.05-.05 1-.5 4.25-.6 3.8-.55 5.4v15.05q.65-5.6 1.2-9.1.45-2.55.85-3.9.7-2.45 3.75-8.3.05-.3.1-.5v.3l-.1.2q-.1.4-.15.95-.15 1.25-.3 1.8v4.85q.95-1.9 3.25-6.75.1 1.3-.1 2.4-.05.1-.7 3.25l.2.2q1.35-1.25 3.05-7.95.9-3.6 1.6-7.3 0 1.35-.25 5.45-.2 4.2-.3 4.5v1.35h.25q.2-.95 1.75-8.8 1.5-8.05 1.5-11V89.1q-.4 1.25-1.6 2.95-1.35 1.85-1.9 3.25H262q0-1.75.8-5 .8-3.1 1.6-4.7-.55.15-2.75 3.1l-3.7 4.95h-.3q.052-.002.1-.05.4-.95 1.45-3.55 1.15-2.8 1.45-3.65m20.15-6.5l-.3-.1q-.95.95-3.2 1.8 0-1.15.3-1.7l-.3-.1q-.3 0-.65.15-.35.15-.45.15.1-.25.9-1.45h-1.75q-.7.7-1.55 1.1-1.15.55-1.35.65v-.3q.1-.45.45-.7.25-.25.4-.75h-.25q-.9-.2-1.05.1-.35.6-1.1 1-.05 0-.15.05v-.25q.35-.65.85-1.75-.85.45-2.1 1.7-.7.7-1.95.6v-1.45q-.35.75-1.1 1.4-.5.5-.7.75 2.3.1 4.55.4 2.45.4 5.3 1.15 7 1.9 8.3 1.9h.1l.4-.7q.45-.65.45-1.75h-.6q-.75.4-1.7 1.2h-1.45q.3-.3.3-1.2-1.15.6-2 .6h-.05v-.3q.25-.45.9-1.1.45-.5.55-1.1z"/><path fill="#FEDC56" d="M260.55 86.2l.1.2q-.3.85-1.45 3.65-1.05 2.6-1.45 3.55l.2.05 3.7-4.95q2.2-2.95 2.75-3.1-.8 1.6-1.6 4.7-.8 3.25-.8 5h.25q.55-1.4 1.9-3.25 1.2-1.7 1.6-2.95v1.45q0 2.95-1.5 11-1.55 7.85-1.75 8.8h-.25V109q.1-.3.3-4.5.25-4.1.25-5.45-.7 3.7-1.6 7.3-1.7 6.7-3.05 7.95l-.2-.2q.65-3.15.7-3.25.2-1.1.1-2.4-2.3 4.85-3.25 6.75v-4.85q.15-.55.3-1.8.05-.55.15-.95-3.05 5.85-3.75 8.3-.4 1.35-.85 3.9 1.15.35 2.7.65 1.5.3 8.05-2.7 6.55-2.95 9.55-7.15 3-4.25 5.1-8.55 2.1-4.3 5.45-11.25h.3q-.3.55-.3 1.85 0 1.55.6 2.15.55.6 2 .6 1.55 0 2.9-1.25 2.95-2.65 3.5-3.05.55 1.1 2.2 2.35l.25-.2.2-.2q.3.1 1.3-.15l.05-.15q-2-1.9-6.05-4.6 3.55-.05 6.45 1.95 1.1.75 3.7 3.3l1.05 2.25q-.3-.25-.6-.45-1.85-1-2.5-1.85 1.1 2.05 1.5 3.2 2.05.85 3.6.85.75 0 1.35-.1-.3-.6-.6-1.3-1.1-2.3-1.15-3.1-1.7-4.2-5.05-6.55-3.7-3.15-6.3-4.6-2.55-1.45-8.05-3.1-5.75-1.65-9.8-1.65-8.2 0-9.7 3.2.25 0 .25.25l.55.3q-1.1 0-2.25.05-4.4.2-10.35 6.55-3.2 3.45-6.05 10.15-.05.15-.05.3-1.3 5.05-1.3 9.55 0 4.4 2.35 8.2 1.65 2.7 3.95 3.8v-5.5q-.05-1.6.55-5.4.45-3.25.5-4.25-2.7 5.3-3.35 7.05-.7 1.85-1.15 3.6.5-3.65 1.15-7.35 1.75-9.6 3.95-13.7.2-.5.55-.9l.4-.5q1.9-2 2.4-2.6l.1.1q0 .45-.3 1.35l-.5 1.25.25.1q1.6-2.8 2.8-4.15 1.4-1.6 3.05-2.25m19.95-6.4l.3.1q-.1.6-.55 1.1-.65.65-.9 1.1l.05.3q.85 0 2-.6 0 .9-.3 1.2h1.45q.95-.8 1.7-1.2h.6q0 1.1-.45 1.75l-.4.7h-.1q-1.3 0-8.3-1.9-2.85-.75-5.3-1.15-2.25-.3-4.55-.4.2-.25.7-.75.75-.65 1.1-1.4v1.45q1.25.1 1.95-.6 1.25-1.25 2.1-1.7-.5 1.1-.85 1.75l.15.2q.75-.4 1.1-1 .15-.3 1.05-.1h.25q-.15.5-.4.75-.35.25-.45.7v.3q.2-.1 1.35-.65.85-.4 1.55-1.1h1.75q-.8 1.2-.9 1.45.1 0 .45-.15t.65-.15l.3.1q-.3.55-.3 1.7 2.25-.85 3.2-1.8m-3.25 15.55l-.2-.05h.2v.05m8.55-2.7v-.05l.15.1-.15-.05z"/></g><g id="c"><path fill="#960" d="M234.85 124.2q-.5-.1-1.1-.1-.9 0-1.55.5l-.1.1q-.6.6-.6 1.4v.2q.9.65 2.05.65.55 0 1.1-.15.2-1.3.2-2.6z"/><path d="M232.75 123.4q-.25-.35-.25-.65 0-.95 1.2-1.05.35 0 .6.05.1.05.2.15.1.05.15.15-.15-.5-.25-1-.4-.1-.85-.1-1.4 0-2.35.85-.95.9-.95 2.1 0 .55.2 1 .2.65.75 1.15l.3.05q0-.8.6-1.4l.1-.1q.65-.5 1.55-.5.6 0 1.1.1l-.1-1.1q-.05.1-.1.25-.2.3-.5.4-.2.05-.45.05-.6 0-.95-.4z"/><path fill="#FFF" d="M232.5 122.75q0 .3.25.65.35.4.95.4.25 0 .45-.05.3-.1.5-.4.05-.15.1-.25.05-.25.05-.35 0-.45-.15-.7-.05-.1-.15-.15-.1-.1-.2-.15-.25-.05-.6-.05-1.2.1-1.2 1.05z"/></g><path fill="#C90" d="M231.2 115.35q-5.1.1-8.3 1.65 3.45-.55 7.8-.4 3.75.15 8.2.85.55.1 1.15.2l-.1-1.65q-3.25-.45-6.05-.6-1.4-.05-2.7-.05z" id="d"/><path id="b" stroke="#F06" stroke-linejoin="round" stroke-linecap="round" fill="none" d="M298.7 133.15v.15m-3.8-1.15q-.15-.1-.25-.15.05.1.1.25m3.9 1.05q-2.4-.3-3.75-1.15m-.25-.15q-.4-.3-.75-.65m4.8 1.95h-.05"/></defs><g transform="translate(-238.95 -77)"><use xlink:href="#a"/><use xlink:href="#b"/></g><use xlink:href="#c" transform="translate(-182.75 -86.45)"/><use xlink:href="#d" transform="translate(-182.75 -86.45)"/></svg>