<svg xmlns="http://www.w3.org/2000/svg" xmlns:xlink="http://www.w3.org/1999/xlink" preserveAspectRatio="none" width="101" height="95" viewBox="0 0 101 95"><defs><linearGradient id="a" gradientUnits="userSpaceOnUse" x1="39.613" y1="75.025" x2="51.788" y2="27.775"><stop offset="0%" stop-color="#8A8A8A"/><stop offset="100%" stop-color="#FFF"/></linearGradient><linearGradient id="b" gradientUnits="userSpaceOnUse" x1="47.038" y1="35.388" x2="28.262" y2="37.313"><stop offset="69.804%" stop-color="#5C0101"/><stop offset="100%" stop-color="#FEA3A3"/></linearGradient><g id="c"><path fill="#F00" d="M42.55 9.45l-1.2-.85L29.15 0v23.5l11.35 6.1v38.9l5.65 4.25V12q-1.803-1.27-3.6-2.55z"/><path fill="url(#a)" d="M93.65 18.65q3.4-.35 6.55.1L41.35 8.6l1.2.85q1.797 1.28 3.6 2.55v60.75L40.5 68.5V29.6l-11.35-6.1V8.3Q17.4 10.85 8.85 23.95-.8 38.7.05 74.25l57 20.15q.05-.4.05-.75-.3-14.1.85-25.3 1.7-16.1 6.4-26.25 1.3-2.8 2.8-5.1 10.95-16.75 26.5-18.35z"/></g><path id="d" stroke="#CCC" stroke-width="3" stroke-linejoin="round" stroke-linecap="round" fill="none" d="M100.2 18.75q-3.15-.45-6.55-.1Q78.1 20.25 67.15 37q-1.5 2.3-2.8 5.1-4.7 10.15-6.4 26.25-1.15 11.2-.85 25.3"/><path id="e" stroke="#999" stroke-linejoin="round" stroke-linecap="round" fill="none" d="M.05 74.25q-.85-35.55 8.8-50.3 8.55-13.1 20.3-15.65"/><path id="f" stroke="#CCC" stroke-linejoin="round" stroke-linecap="round" fill="none" d="M41.35 8.6l58.85 10.15"/><path id="g" stroke="url(#b)" stroke-width="2.25" stroke-linejoin="round" stroke-linecap="round" fill="none" d="M29.15 0v23.5m17 49.25V12"/><path id="h" stroke="#900" stroke-linejoin="round" stroke-linecap="round" fill="none" d="M29.15 23.5l11.35 6.1v38.9l5.65 4.25"/><path id="i" stroke="#F66" stroke-width="2.25" stroke-linejoin="round" stroke-linecap="round" fill="none" d="M41.35 8.6L29.15 0m17 12q-1.803-1.27-3.6-2.55l-1.2-.85"/></defs><g><use xlink:href="#c"/><use xlink:href="#d"/><use xlink:href="#e"/><use xlink:href="#f"/><use xlink:href="#g"/><use xlink:href="#h"/><use xlink:href="#i"/></g></svg>