<svg xmlns="http://www.w3.org/2000/svg" xmlns:xlink="http://www.w3.org/1999/xlink" preserveAspectRatio="none" width="91" height="169" viewBox="0 0 91 169"><defs><linearGradient id="a" gradientUnits="userSpaceOnUse" x1="81.7" y1="100.35" x2="91.7" y2="62.05"><stop offset="0%" stop-color="#8A8A8A"/><stop offset="100%" stop-color="#FFF"/></linearGradient><linearGradient id="b" gradientUnits="userSpaceOnUse" x1="109.325" y1="66.225" x2="60.275" y2="22.175"><stop offset="0%" stop-color="#DDD"/><stop offset="100%" stop-color="#555"/></linearGradient><linearGradient id="c" gradientUnits="userSpaceOnUse" x1="58.9" y1="24.175" x2="58.9" y2="11.125"><stop offset="0%" stop-color="#3C3C3C"/><stop offset="100%" stop-color="#959595"/></linearGradient><linearGradient id="d" gradientUnits="userSpaceOnUse" x1="95" y1="-11.55" x2="95" y2="25.45"><stop offset="0%" stop-color="#8A8A8A"/><stop offset="100%" stop-color="#FFF"/></linearGradient><path fill-opacity=".302" d="M71.5 136.05q0-8.05-5.7-13.75-5.65-5.65-13.7-5.65-8.05 0-13.75 5.65-5.65 5.7-5.65 13.75t5.65 13.7q5.7 5.7 13.75 5.7t13.7-5.7q5.7-5.65 5.7-13.7z" id="e"/><g id="f"><path fill="#FF0" d="M51.6 86l-11-9v51.45q2.35 1.65 5.45 3.85 3.25 2.3 5.55 3.45V86z"/><path fill="#FC0" d="M52.6 86.8l-.5-.4-.5-.4v49.75q2.7 1.4 4.1 1.25 3.65-.35 8.1-2.55l.8-.4V83.6l-12 2.2-.5.6.5.4z"/><path fill="#CAA202" d="M64.6 11.6l-13 1.3V86l.5.4.5-.6 12-2.2v-72z"/><path fill="#D2D202" d="M51.6 12.9l-11 1.15V77l11 9V12.9z"/></g><g id="h"><path fill="#999" d="M74.6 53.5v-3.2l-11 1.1v6l11-1.1v-2.8m48-5.05V45.4l-11 1.1v6l11-1.1v-2.95z"/><path fill="url(#a)" d="M127.5 47.9l-4.9.55v2.95l-11 1.1v-2.95l-37 3.95v2.8l-11 1.1v-2.75l-9.1.95q-1 15.2-1 16.85 0 21.2 10.95 35.15 8.25 10.45 19.05 12.1.45.1.95.15 3.15.4 6.55.05 15.55-1.55 26.5-17.75 1.5-2.2 2.8-4.9 4.7-9.7 6.4-25.2 1.1-10.65.8-24.15z"/></g><g id="k"><path fill="url(#b)" d="M61.45 26.95l-6.05.6q-1.15 11.2-.85 25.3.05-.1.05-.25l70.35-7.2-63.5-18.45z"/><path fill="url(#c)" d="M62.4 10.6q0-4.85-.6-9.3-4.7 10.15-6.4 26.25l6.05-.6q.95-14.8.95-16.35z"/><path fill="url(#d)" d="M117.65-9.2Q109.4-20.1 98.6-21.9q-.45-.1-.95-.15-3.15-.45-6.55-.1-15.55 1.6-26.5 18.35-1.5 2.3-2.8 5.1.6 4.45.6 9.3 0 1.55-.95 16.35l63.5 18.45 2.55.75v-.25q.05-.4.05-.75 1.05-15.95 1.05-17.65 0-22.15-10.95-36.7z"/></g><path id="g" stroke="#CCC" stroke-linejoin="round" stroke-linecap="round" fill="none" d="M52.6 86.8l-.5-.4-.5-.4"/><path id="i" stroke="#999" stroke-linejoin="round" stroke-linecap="round" fill="none" d="M122.6 48.45l4.9-.55q.3 13.5-.8 24.15-1.7 15.5-6.4 25.2-1.3 2.7-2.8 4.9-10.95 16.2-26.5 17.75-3.4.35-6.55-.05-.5-.05-.95-.15-10.8-1.65-19.05-12.1Q53.5 93.65 53.5 72.45q0-1.65 1-16.85l9.1-.95m48-5.1l-37 3.95"/><path id="j" stroke="#CCC" stroke-linejoin="round" stroke-linecap="round" fill="none" d="M122.6 48.45V45.4l-11 1.1v6l11-1.1v-2.95zm-59 6.2V51.4l11-1.1v3.2m-11 1.15v2.75l11-1.1v-2.8"/><path id="l" stroke="#CCC" stroke-width="3" stroke-linejoin="round" stroke-linecap="round" fill="none" d="M127.55 45.15q1.05-15.95 1.05-17.65 0-22.15-10.95-36.7-8.25-10.9-19.05-12.7-.45-.1-.95-.15m29.85 68.2L54.6 53.6"/><path id="m" stroke="#000" stroke-linejoin="round" stroke-linecap="round" fill="none" d="M127.5 46.15v-.25q.05-.4.05-.75"/></defs><use xlink:href="#e" transform="matrix(.86603 .5 -.25772 .4464 8.05 68.7)"/><g transform="translate(-39.95 23.55)"><use xlink:href="#f"/><use xlink:href="#g"/></g><g transform="translate(-39.95 23.55)"><use xlink:href="#h"/><use xlink:href="#i"/><use xlink:href="#j"/></g><g transform="translate(-39.95 23.55)"><use xlink:href="#k"/><use xlink:href="#l"/><use xlink:href="#m"/></g></svg>