
<svg xmlns="http://www.w3.org/2000/svg" version="1.1" xmlns:xlink="http://www.w3.org/1999/xlink" preserveAspectRatio="none" x="0px" y="0px" width="91px" height="169px" viewBox="0 0 91 169">
<defs>
<linearGradient id="Gradient_1" gradientUnits="userSpaceOnUse" x1="81.7" y1="100.35000000000001" x2="91.7" y2="62.05" spreadMethod="pad">
<stop  offset="0%" stop-color="#8A8A8A"/>

<stop  offset="100%" stop-color="#FFFFFF"/>
</linearGradient>

<linearGradient id="Gradient_2" gradientUnits="userSpaceOnUse" x1="109.325" y1="66.22500000000001" x2="60.27499999999999" y2="22.175" spreadMethod="pad">
<stop  offset="0%" stop-color="#DDDDDD"/>

<stop  offset="100%" stop-color="#555555"/>
</linearGradient>

<linearGradient id="Gradient_3" gradientUnits="userSpaceOnUse" x1="58.9" y1="24.174999999999997" x2="58.9" y2="11.124999999999998" spreadMethod="pad">
<stop  offset="0%" stop-color="#3C3C3C"/>

<stop  offset="100%" stop-color="#959595"/>
</linearGradient>

<linearGradient id="Gradient_4" gradientUnits="userSpaceOnUse" x1="95" y1="-11.55" x2="95" y2="25.45" spreadMethod="pad">
<stop  offset="0%" stop-color="#8A8A8A"/>

<stop  offset="100%" stop-color="#FFFFFF"/>
</linearGradient>

<g id="Layer0_0_MEMBER_0_MEMBER_0_FILL">
<path fill="#000000" fill-opacity="0.30196078431372547" stroke="none" d="
M 71.5 136.05
Q 71.5 128 65.8 122.3 60.15 116.65 52.1 116.65 44.05 116.65 38.35 122.3 32.7 128 32.7 136.05 32.7 144.1 38.35 149.75 44.05 155.45 52.1 155.45 60.15 155.45 65.8 149.75 71.5 144.1 71.5 136.05 Z"/>
</g>

<g id="Layer0_0_MEMBER_1_MEMBER_0_MEMBER_0_FILL">
<path fill="#FFFF00" stroke="none" d="
M 51.6 86
L 40.6 77 40.6 128.45
Q 42.95 130.1 46.05 132.3 49.3 134.6 51.6 135.75
L 51.6 86 Z"/>

<path fill="#FFCC00" stroke="none" d="
M 52.6 86.8
L 52.1 86.4 51.6 86 51.6 135.75
Q 54.3 137.15 55.7 137 59.35 136.65 63.8 134.45 64.2 134.25 64.6 134.05
L 64.6 83.6 52.6 85.8 52.1 86.4 52.6 86.8 Z"/>

<path fill="#CAA202" stroke="none" d="
M 64.6 11.6
L 51.6 12.9 51.6 86 52.1 86.4 52.6 85.8 64.6 83.6 64.6 11.6 Z"/>

<path fill="#D2D202" stroke="none" d="
M 51.6 12.9
L 40.6 14.05 40.6 77 51.6 86 51.6 12.9 Z"/>
</g>

<g id="Layer0_0_MEMBER_1_MEMBER_0_MEMBER_1_MEMBER_0_FILL">
<path fill="#999999" stroke="none" d="
M 74.6 53.5
L 74.6 50.3 63.6 51.4 63.6 54.65 63.6 57.4 74.6 56.3 74.6 53.5
M 122.6 48.45
L 122.6 45.4 111.6 46.5 111.6 49.55 111.6 52.5 122.6 51.4 122.6 48.45 Z"/>

<path fill="url(#Gradient_1)" stroke="none" d="
M 127.5 47.9
L 122.6 48.45 122.6 51.4 111.6 52.5 111.6 49.55 74.6 53.5 74.6 56.3 63.6 57.4 63.6 54.65 54.5 55.6
Q 53.5 70.8 53.5 72.45 53.5 93.65 64.45 107.6 72.7 118.05 83.5 119.7 83.95 119.8 84.45 119.85 87.6 120.25 91 119.9 106.55 118.35 117.5 102.15 119 99.95 120.3 97.25 125 87.55 126.7 72.05 127.8 61.4 127.5 47.9 Z"/>
</g>

<g id="Layer0_0_MEMBER_1_MEMBER_0_MEMBER_1_MEMBER_1_FILL">
<path fill="url(#Gradient_2)" stroke="none" d="
M 61.45 26.95
L 55.4 27.55
Q 54.25 38.75 54.55 52.85 54.6 52.75 54.6 52.6
L 124.95 45.4 61.45 26.95 Z"/>

<path fill="url(#Gradient_3)" stroke="none" d="
M 62.4 10.6
Q 62.4 5.75 61.8 1.3 57.1 11.45 55.4 27.55
L 61.45 26.95
Q 62.4 12.15 62.4 10.6 Z"/>

<path fill="url(#Gradient_4)" stroke="none" d="
M 117.65 -9.2
Q 109.4 -20.1 98.6 -21.9 98.15 -22 97.65 -22.05 94.5 -22.5 91.1 -22.15 75.55 -20.55 64.6 -3.8 63.1 -1.5 61.8 1.3 62.4 5.75 62.4 10.6 62.4 12.15 61.45 26.95
L 124.95 45.4 127.5 46.15
Q 127.5 46 127.5 45.9 127.55 45.5 127.55 45.15 128.6 29.2 128.6 27.5 128.6 5.35 117.65 -9.2 Z"/>
</g>

<path id="Layer0_0_MEMBER_1_MEMBER_0_MEMBER_0_1_STROKES" stroke="#CCCCCC" stroke-width="1" stroke-linejoin="round" stroke-linecap="round" fill="none" d="
M 52.6 86.8
L 52.1 86.4 51.6 86"/>

<path id="Layer0_0_MEMBER_1_MEMBER_0_MEMBER_1_MEMBER_0_1_STROKES" stroke="#999999" stroke-width="1" stroke-linejoin="round" stroke-linecap="round" fill="none" d="
M 122.6 48.45
L 127.5 47.9
Q 127.8 61.4 126.7 72.05 125 87.55 120.3 97.25 119 99.95 117.5 102.15 106.55 118.35 91 119.9 87.6 120.25 84.45 119.85 83.95 119.8 83.5 119.7 72.7 118.05 64.45 107.6 53.5 93.65 53.5 72.45 53.5 70.8 54.5 55.6
L 63.6 54.65
M 111.6 49.55
L 74.6 53.5"/>

<path id="Layer0_0_MEMBER_1_MEMBER_0_MEMBER_1_MEMBER_0_2_STROKES" stroke="#CCCCCC" stroke-width="1" stroke-linejoin="round" stroke-linecap="round" fill="none" d="
M 122.6 48.45
L 122.6 45.4 111.6 46.5 111.6 49.55 111.6 52.5 122.6 51.4 122.6 48.45 Z
M 63.6 54.65
L 63.6 51.4 74.6 50.3 74.6 53.5
M 63.6 54.65
L 63.6 57.4 74.6 56.3 74.6 53.5"/>

<path id="Layer0_0_MEMBER_1_MEMBER_0_MEMBER_1_MEMBER_1_1_STROKES" stroke="#CCCCCC" stroke-width="3" stroke-linejoin="round" stroke-linecap="round" fill="none" d="
M 127.55 45.15
Q 128.6 29.2 128.6 27.5 128.6 5.35 117.65 -9.2 109.4 -20.1 98.6 -21.9 98.15 -22 97.65 -22.05
M 127.5 46.15
L 54.6 53.6"/>

<path id="Layer0_0_MEMBER_1_MEMBER_0_MEMBER_1_MEMBER_1_2_STROKES" stroke="#000000" stroke-width="1" stroke-linejoin="round" stroke-linecap="round" fill="none" d="
M 127.5 46.15
Q 127.5 46 127.5 45.9 127.55 45.5 127.55 45.15"/>
</defs>

<g transform="matrix( 0.86602783203125, 0.5, -0.257720947265625, 0.4463958740234375, 8.05,68.7) ">
<use xlink:href="#Layer0_0_MEMBER_0_MEMBER_0_FILL"/>
</g>

<g transform="matrix( 1, 0, 0, 1, -39.95,23.55) ">
<use xlink:href="#Layer0_0_MEMBER_1_MEMBER_0_MEMBER_0_FILL"/>

<use xlink:href="#Layer0_0_MEMBER_1_MEMBER_0_MEMBER_0_1_STROKES"/>
</g>

<g transform="matrix( 1, 0, 0, 1, -39.95,23.55) ">
<use xlink:href="#Layer0_0_MEMBER_1_MEMBER_0_MEMBER_1_MEMBER_0_FILL"/>

<use xlink:href="#Layer0_0_MEMBER_1_MEMBER_0_MEMBER_1_MEMBER_0_1_STROKES"/>

<use xlink:href="#Layer0_0_MEMBER_1_MEMBER_0_MEMBER_1_MEMBER_0_2_STROKES"/>
</g>

<g transform="matrix( 1, 0, 0, 1, -39.95,23.55) ">
<use xlink:href="#Layer0_0_MEMBER_1_MEMBER_0_MEMBER_1_MEMBER_1_FILL"/>

<use xlink:href="#Layer0_0_MEMBER_1_MEMBER_0_MEMBER_1_MEMBER_1_1_STROKES"/>

<use xlink:href="#Layer0_0_MEMBER_1_MEMBER_0_MEMBER_1_MEMBER_1_2_STROKES"/>
</g>
</svg>
