
<svg xmlns="http://www.w3.org/2000/svg" version="1.1" xmlns:xlink="http://www.w3.org/1999/xlink" preserveAspectRatio="none" x="0px" y="0px" width="174px" height="169px" viewBox="0 0 174 169">
<defs>
<radialGradient id="Gradient_1" gradientUnits="userSpaceOnUse" cx="0" cy="0" r="115.55" fx="0" fy="0" gradientTransform="matrix( 1, 0, 0, 1, 12.95,0.35) " spreadMethod="pad">
<stop  offset="3.1372549019607843%" stop-color="#FDC035"/>

<stop  offset="99.2156862745098%" stop-color="#D27E02"/>
</radialGradient>

<radialGradient id="Gradient_2" gradientUnits="userSpaceOnUse" cx="0" cy="0" r="115.55" fx="0" fy="0" gradientTransform="matrix( 1, 0, 0, 1, 12.95,0.35) " spreadMethod="pad">
<stop  offset="29.80392156862745%" stop-color="#996600"/>

<stop  offset="100%" stop-color="#CC9900"/>
</radialGradient>

<radialGradient id="Gradient_3" gradientUnits="userSpaceOnUse" cx="0" cy="0" r="80.3125" fx="0" fy="0" gradientTransform="matrix( 1, 0, 0, 1, 3.65,-20.85) " spreadMethod="pad">
<stop  offset="3.1372549019607843%" stop-color="#FDC035"/>

<stop  offset="99.2156862745098%" stop-color="#D27E02"/>
</radialGradient>

<filter id="Filter_1" x="-20%" y="-20%" width="140%" height="140%" color-interpolation-filters="sRGB">
<feFlood flood-color="#666666" flood-opacity="1" in="SourceGraphic" result="result1"/>

<feComposite in2="SourceGraphic" in="result1" operator="in" result="result2"/>

<feGaussianBlur in="result2" stdDeviation="1.6666666666666667,1.6666666666666667" result="result3"/>

<feOffset dx="0" dy="0" in="result3" result="result4"/>

<feComposite in2="result4" in="SourceGraphic" operator="over" result="result5"/>
</filter>

<filter id="Filter_2" x="-20%" y="-20%" width="140%" height="140%" color-interpolation-filters="sRGB">
<feFlood flood-color="#996600" flood-opacity="1" in="SourceGraphic" result="result1"/>

<feComposite in2="SourceGraphic" in="result1" operator="in" result="result2"/>

<feGaussianBlur in="result2" stdDeviation="1.6666666666666667,1.6666666666666667" result="result3"/>

<feOffset dx="0" dy="0" in="result3" result="result4"/>

<feComposite in2="result4" in="SourceGraphic" operator="over" result="result5"/>
</filter>

<g id="carimbo_0_Layer0_0_FILL">
<path fill="#333333" stroke="none" d="
M 75 -72.4
Q 43.9 -102.35 0 -102.35 -43.95 -102.35 -75 -72.4 -106.05 -42.4 -106.05 0 -106.05 42.4 -75 72.35 -61.5283203125 85.366015625 -45.65 92.7 -24.8814453125 102.35 0 102.35 16.155078125 102.35 30.55 98.25 55.3447265625 91.31015625 75 72.35 106.05 42.4 106.05 0 106.05 -42.4 75 -72.4
M 100.05 0.3
Q 100.05 1.6568359375 100 3 99.0560546875 41.45859375 70.6 68.9 41.15 97.35 -0.5 97.35 -42.15 97.35 -71.6 68.9 -100.0560546875 41.45859375 -101.05 3 -101.05 1.6568359375 -101.05 0.3 -101.05 -39.9 -71.6 -68.35 -42.15 -96.75 -0.5 -96.75 41.15 -96.75 70.6 -68.35 100.05 -39.9 100.05 0.3 Z"/>

<path fill="url(#Gradient_1)" stroke="none" d="
M 99.9 0.25
L 100.05 0.3
Q 100.05 -39.9 70.6 -68.35 41.15 -96.75 -0.5 -96.75 -42.15 -96.75 -71.6 -68.35 -101.05 -39.9 -101.05 0.3
L -100.95 0.25
Q -99.04296875 -36.4388671875 -71.6 -62.95 -42.15 -91.35 -0.5 -91.35 41.15 -91.35 70.6 -62.95 98.04296875 -36.4388671875 99.9 0.25 Z"/>

<path fill="url(#Gradient_2)" stroke="none" d="
M 100.05 0.3
L 99.9 0.25
Q 98.04296875 -36.4388671875 70.6 -62.95 41.15 -91.35 -0.5 -91.35 -42.15 -91.35 -71.6 -62.95 -99.04296875 -36.4388671875 -100.95 0.25
L -101.05 0.3
Q -101.05 1.6568359375 -101.05 3 -100.0560546875 41.45859375 -71.6 68.9 -42.15 97.35 -0.5 97.35 41.15 97.35 70.6 68.9 99.0560546875 41.45859375 100 3 100.05 1.6568359375 100.05 0.3 Z"/>
</g>

<g id="suport_0_Layer0_0_FILL">
<path fill="url(#Gradient_3)" stroke="none" d="
M 60.05 -1.3
Q 60.05 -26.15 42.4 -43.75 41.1 -45.05 39.75 -46.3
L -39.8 -46.3
Q -41.15 -45.05 -42.5 -43.75 -60.05 -26.15 -60.05 -1.3 -60.05 23.55 -42.5 41.15 -39.7 43.95 -36.7 46.3
L 36.65 46.3
Q 39.6 43.95 42.4 41.15 60.05 23.55 60.05 -1.3 Z"/>
</g>
</defs>

<g transform="matrix( 0.9266204833984375, 0, 0, 0.9266204833984375, 87,84.5) ">
<g filter="url(#Filter_1)" transform="matrix( 1.079193115234375, 0, 0, 1.079193115234375, -93.9,-91.2) ">
<g transform="matrix( 0.7732086181640625, 0, 0, 0.7732086181640625, 87,84.5) ">
<g transform="matrix( 1, 0, 0, 1, 0,0) ">
<use xlink:href="#carimbo_0_Layer0_0_FILL"/>
</g>

<g filter="url(#Filter_2)" transform="matrix( 1.395721435546875, 0, 0, 1.395721435546875, -233.9,-227.2) ">
<g transform="matrix( 0.7164764404296875, 0, 0, 0.7164764404296875, 167.6,164.1) ">
<g transform="matrix( 1, 0, 0, 1, 0,0) ">
<use xlink:href="#suport_0_Layer0_0_FILL"/>
</g>
</g>
</g>
</g>
</g>
</g>
</svg>
