<svg xmlns="http://www.w3.org/2000/svg" xmlns:xlink="http://www.w3.org/1999/xlink" preserveAspectRatio="none" width="91" height="109" viewBox="0 0 91 109"><defs><path fill="#9C0" d="M45.5-44.9q0-9.75-11.2-9.75h-68.6q-11.2 0-11.2 9.75v89.85q0 9.75 11.2 9.75h68.6q11.2 0 11.2-9.75V-44.9m-19.65.15q0 10 10.8 10V35.8q-10.8 0-10.8 10h-52.8q0-10-10.75-10v-70.55q10.75 0 10.75-10h52.8z" id="a"/><path fill="#FFF" d="M-36.1-40.85l3.5-2.85-1.6-4.25-4.55.2-1.2 4.4 3.85 2.5z" id="b"/><path fill="#FFF" d="M35.45-40.85l3.5-2.85-1.6-4.25-4.55.2-1.2 4.4 3.85 2.5z" id="c"/><path fill="#FFF" d="M-36.1 49.1l3.5-2.85-1.6-4.25-4.55.2-1.2 4.4 3.85 2.5z" id="d"/><path fill="#FFF" d="M36 49.1l3.5-2.85L37.9 42l-4.55.2-1.2 4.4L36 49.1z" id="e"/></defs><use xlink:href="#a" transform="translate(45.55 54.65)"/><use xlink:href="#b" transform="translate(45.55 54.65)"/><use xlink:href="#c" transform="translate(45.55 54.65)"/><use xlink:href="#d" transform="translate(45.55 54.65)"/><use xlink:href="#e" transform="translate(45.55 54.65)"/></svg>