
<svg xmlns="http://www.w3.org/2000/svg" version="1.1" xmlns:xlink="http://www.w3.org/1999/xlink" preserveAspectRatio="none" x="0px" y="0px" width="91px" height="109px" viewBox="0 0 91 109">
<defs>
<filter id="Filter_1" x="-20%" y="-20%" width="140%" height="140%" color-interpolation-filters="sRGB">
<feColorMatrix in="SourceGraphic" type="matrix" values="0.11 0 0 0 0.5333333333333333 0 0.11 0 0 0.7137254901960784 0 0 0.11 0 0 0 0 0 1 0" result="result1"/>
</filter>

<g id="Tween_1_0_Layer0_0_MEMBER_0_FILL">
<path fill="#99CC00" stroke="none" d="
M 45.5 -44.9
Q 45.5 -54.65 34.3 -54.65
L -34.3 -54.65
Q -45.5 -54.65 -45.5 -44.9
L -45.5 44.95
Q -45.5 54.7 -34.3 54.7
L 34.3 54.7
Q 45.5 54.7 45.5 44.95
L 45.5 -44.9
M 25.85 -44.75
Q 25.85 -34.75 36.65 -34.75
L 36.65 35.8
Q 25.85 35.8 25.85 45.8
L -26.95 45.8
Q -26.95 35.8 -37.7 35.8
L -37.7 -34.75
Q -26.95 -34.75 -26.95 -44.75
L 25.85 -44.75 Z"/>

<path fill="#FFFFFF" stroke="none" d="
M 36.65 -34.75
Q 25.85 -34.75 25.85 -44.75
L -26.95 -44.75
Q -26.95 -34.75 -37.7 -34.75
L -37.7 35.8
Q -26.95 35.8 -26.95 45.8
L 25.85 45.8
Q 25.85 35.8 36.65 35.8
L 36.65 -34.75 Z"/>
</g>

<g id="cartatras_0_Layer0_0_FILL">
<path fill="#FFFFFF" stroke="none" d="
M 6.8 12
L 6.8 2.65
Q 4.25 1.3 3.7 -4.5
L -12.35 -4.5 -23.3 -7.85 -31.75 -7.85 -36.1 -14.4
Q -36.1 -17.3 -32.85 -20.45
L -32.85 -23.2 -29.75 -27.55 -19.5 -30.9 -14.5 -34.8 -21.5 -53.95 -12.9 -53.95 -12.9 -59 -23.15 -64.8
Q -36.65 -59.85 -47.7 -48.6 -58.05 -37.8 -63.05 -24.9
L -58.7 -24.9 -51.7 -18.85 -47.45 -18.85 -40.45 -13.85 -40.45 -6.15
Q -40.45 -3.95 -39.2 -2.8
L -35.55 6.45 -35.55 17.45 -12.9 38.4 -12.9 49.9 -6.45 55.9 -1.65 55.9 -1.65 38.85 1.55 33.95 1.55 19.15
Q 2.55 17.45 4.9 16.55 7.05 15.45 6.8 12
M 31.2 -23.75
Q 24.5 -21.75 24.05 -21.45 23.5 -20.85 23.5 -16.4 23.5 -13.2 24.2 -10.6 24.65 -8.5 26.2 -3.95 26.65 -2.5 29.3 -2.15 32.75 -1.6 34.3 -0.7 35.9 0.2 44.9 2.2 47.9 2.75 47.9 10.35 47.9 12.8 47.7 14.8 47.25 16.9 47.25 18.25 47.25 20.15 45.9 21.7 44.15 23.45 43.9 24.05 43.7 24.7 43.45 27.5 43.15 29.8 41.8 31.7
L 41.8 38.4 52.7 38.4
Q 57.3 35.85 61.05 32.4 61.3 32.15 61.5 32.05 62.4 30.4 63.05 28.95 63.2 28.7 63.3 28.5 63.3 28.25 63.4 28.05 68.65 15.35 68.65 0.65 68.65 -13.4 63.95 -25.55 57.4 -26 57.05 -26 54.7 -26.2 53.7 -27.1
L 50.05 -27.1
Q 50.05 -26.8 50.05 -26.55 49.8 -26.55 49.6 -26.55 48.05 -26.8 45.25 -27.55 42.1 -28.65 42 -28.65 39.25 -28.65 36.35 -26.8 32.65 -24.2 31.2 -23.75
M 26.2 -64
Q 15.6 -64.2 14.5 -62 13.05 -60 13.8 -53.65 13.95 -49.75 11.35 -46.7 7.8 -42.8 7.35 -40.25 10.35 -39.15 14.25 -40.95 17.85 -42.7 19.6 -44.15 21.4 -45.7 21.2 -35.35 20.6 -34 24.85 -33.15 29.4 -32.25 30.85 -36.6 32.3 -41.15 33.45 -41.25 34.55 -41.4 39.35 -39.95 45.6 -38.15 48.8 -36.15
L 56.3 -39.5
Q 53.7 -43.4 48.7 -48.6 37.1 -60.3 26.2 -64 Z"/>
</g>

<g id="indicador_gr3_0_Layer0_0_FILL">
<path fill="#FFFFFF" fill-opacity="0.37254901960784315" stroke="none" d="
M 27.25 12.6
Q 27.2 12.7 27.2 12.8 27.15 12.9 27.1 13 27.9 13.05 26.5 14.4 24.55 18.65 21.15 22.35 18.95 24.75 16.6 26.6 16.4 26.7 16.2 26.85 13.884375 28.4966796875 11.35 29.55
L 15.25 38.95
Q 22.5166015625 35.86796875 28.5 29.65 31.25 26.75 33.35 23.6 34.2 22.35 34.95 21.05 37.553515625 16.5 38.9 11.35
L 28.5 8.35
Q 28.0302734375 10.53125 27.25 12.6
M -23.95 14.7
L -34.75 21.45
Q -33.358203125 23.798046875 -31.65 26 -30.85 27.05 -30.05 28.05 -29.3 28.85 -28.55 29.65 -21.61640625 36.83515625 -13.05 39.85
L -10.05 29.05
Q -10.300390625 28.9248046875 -10.55 28.8
L -10.6 28.75
Q -15.05 26.5 -18.8 22.35 -21.6 19.25 -23.4 15.75 -23.669140625 15.234375 -23.95 14.7
M -12.45 -27.2
L -17.05 -38.25
Q -23.29140625 -35.1935546875 -28.55 -29.75 -36.2357421875 -21.671875 -38.9 -11.45
L -26.15 -7.7
Q -25.7365234375 -9.4697265625 -25.15 -11.15 -23.05 -16.95 -18.8 -21.8 -15.8412109375 -25.083984375 -12.45 -27.2
M 9.3 -41
L 6.35 -30.35
Q 9.0185546875 -29.7927734375 11.85 -28.7 16.35 -27.05 21.15 -21.8 23.25 -19.45 24.3 -17.7 24.833984375 -16.82265625 25.3 -16
L 34.55 -21.8
Q 32.085546875 -25.997265625 28.5 -29.75 20.119140625 -38.428515625 9.3 -41 9.310546875 -40.9724609375 9.3 -41 Z"/>

<path fill="#FFFFFF" fill-opacity="0.17254901960784313" stroke="none" d="
M -6.85 30.35
Q -8.4865234375 29.790234375 -10.05 29.05
L -13.05 39.85
Q -9.6671875 41.015234375 -6.05 41.55 -3.1 42 0 42 5.9 42 11.15 40.45 13.26328125 39.8291015625 15.25 38.95
L 11.35 29.55
Q 8.946875 30.590234375 6.35 31.1 3.8 31.55 1.2 31.55 0.55 31.55 -0.15 31.55 -3.65 31.35 -6.85 30.35
M -38.9 -11.45
Q -40.3 -6.0513671875 -40.3 -0.05 -40.3 11.9076171875 -34.75 21.45
L -23.95 14.7
Q -27 8.2109375 -27 0.3 -27 -3.9001953125 -26.15 -7.7
L -38.9 -11.45
M 34.55 -21.8
L 25.3 -16
Q 26.6669921875 -13.537890625 27.45 -11.45 29.4 -6 29.4 0.3 29.4 4.5044921875 28.5 8.35
L 38.9 11.35
Q 40.3 5.98203125 40.3 -0.05 40.3 -12.1279296875 34.55 -21.8
M 1.2 -30.9
Q 3.691015625 -30.9 6.35 -30.35
L 9.3 -41
Q 9.2287109375 -40.98203125 9.15 -41 4.75 -42 0 -42 -2.65 -42 -5.15 -41.75 -11.4916015625 -40.9484375 -17.05 -38.25
L -12.45 -27.2
Q -10.57578125 -28.2806640625 -8.6 -29.05 -4.05 -30.9 1.2 -30.9 Z"/>
</g>

<g id="indicador_gr3_0_Layer0_0_STROKES_1_FILL">
<path fill="#FFFFFF" stroke="none" d="
M -8.15 40.6
Q -8.45 40.9 -8.45 41.3 -8.45 41.7 -8.15 42 -7.85 42.3 -7.45 42.3 -7.05 42.3 -6.75 42 -6.45 41.7 -6.45 41.3 -6.45 40.9 -6.75 40.6 -7.05 40.3 -7.45 40.3 -7.85 40.3 -8.15 40.6
M -3.05 41.25
Q -3.35 41.55 -3.35 41.95 -3.35 42.35 -3.05 42.65 -2.75 42.95 -2.35 42.95 -1.95 42.95 -1.65 42.65 -1.35 42.35 -1.35 41.95 -1.35 41.55 -1.65 41.25 -1.95 40.95 -2.35 40.95 -2.75 40.95 -3.05 41.25
M -17.3 39
Q -16.9 39 -16.6 38.7 -16.3 38.4 -16.3 38 -16.3 37.6 -16.6 37.3 -16.9 37 -17.3 37 -17.7 37 -18 37.3 -18.3 37.6 -18.3 38 -18.3 38.4 -18 38.7 -17.7 39 -17.3 39
M -12.3 41.05
Q -11.9 41.05 -11.6 40.75 -11.3 40.45 -11.3 40.05 -11.3 39.65 -11.6 39.35 -11.9 39.05 -12.3 39.05 -12.7 39.05 -13 39.35 -13.3 39.65 -13.3 40.05 -13.3 40.45 -13 40.75 -12.7 41.05 -12.3 41.05
M -20.6 35.5
Q -20.6 35.1 -20.9 34.8 -21.2 34.5 -21.6 34.5 -22 34.5 -22.3 34.8 -22.6 35.1 -22.6 35.5 -22.6 35.9 -22.3 36.2 -22 36.5 -21.6 36.5 -21.2 36.5 -20.9 36.2 -20.6 35.9 -20.6 35.5
M -25.6 31.45
Q -26 31.45 -26.3 31.75 -26.6 32.05 -26.6 32.45 -26.6 32.85 -26.3 33.15 -26 33.45 -25.6 33.45 -25.2 33.45 -24.9 33.15 -24.6 32.85 -24.6 32.45 -24.6 32.05 -24.9 31.75 -25.2 31.45 -25.6 31.45
M -30.05 28.05
Q -30.35 28.35 -30.35 28.75 -30.35 29.15 -30.05 29.45 -29.75 29.75 -29.35 29.75 -28.95 29.75 -28.65 29.45 -28.35 29.15 -28.35 28.75 -28.35 28.35 -28.65 28.05 -28.95 27.75 -29.35 27.75 -29.75 27.75 -30.05 28.05
M -31.75 24.2
Q -32.05 23.9 -32.45 23.9 -32.85 23.9 -33.15 24.2 -33.45 24.5 -33.45 24.9 -33.45 25.3 -33.15 25.6 -32.85 25.9 -32.45 25.9 -32.05 25.9 -31.75 25.6 -31.45 25.3 -31.45 24.9 -31.45 24.5 -31.75 24.2
M -36.2 20.55
Q -36.2 20.95 -35.9 21.25 -35.6 21.55 -35.2 21.55 -34.8 21.55 -34.5 21.25 -34.2 20.95 -34.2 20.55 -34.2 20.15 -34.5 19.85 -34.8 19.55 -35.2 19.55 -35.6 19.55 -35.9 19.85 -36.2 20.15 -36.2 20.55
M -36.6 15.5
Q -36.9 15.2 -37.3 15.2 -37.7 15.2 -38 15.5 -38.3 15.8 -38.3 16.2 -38.3 16.6 -38 16.9 -37.7 17.2 -37.3 17.2 -36.9 17.2 -36.6 16.9 -36.3 16.6 -36.3 16.2 -36.3 15.8 -36.6 15.5
M -38.1 10.8
Q -38.4 10.5 -38.8 10.5 -39.2 10.5 -39.5 10.8 -39.8 11.1 -39.8 11.5 -39.8 11.9 -39.5 12.2 -39.2 12.5 -38.8 12.5 -38.4 12.5 -38.1 12.2 -37.8 11.9 -37.8 11.5 -37.8 11.1 -38.1 10.8
M -39.1 5.85
Q -39.4 5.55 -39.8 5.55 -40.2 5.55 -40.5 5.85 -40.8 6.15 -40.8 6.55 -40.8 6.95 -40.5 7.25 -40.2 7.55 -39.8 7.55 -39.4 7.55 -39.1 7.25 -38.8 6.95 -38.8 6.55 -38.8 6.15 -39.1 5.85
M -39.55 0.85
Q -39.85 0.55 -40.25 0.55 -40.65 0.55 -40.95 0.85 -41.25 1.15 -41.25 1.55 -41.25 1.95 -40.95 2.25 -40.65 2.55 -40.25 2.55 -39.85 2.55 -39.55 2.25 -39.25 1.95 -39.25 1.55 -39.25 1.15 -39.55 0.85
M -38.85 -9.25
Q -39.15 -9.55 -39.55 -9.55 -39.95 -9.55 -40.25 -9.25 -40.55 -8.95 -40.55 -8.55 -40.55 -8.15 -40.25 -7.85 -39.95 -7.55 -39.55 -7.55 -39.15 -7.55 -38.85 -7.85 -38.55 -8.15 -38.55 -8.55 -38.55 -8.95 -38.85 -9.25
M -38.95 -14.3
Q -39.25 -14 -39.25 -13.6 -39.25 -13.2 -38.95 -12.9 -38.65 -12.6 -38.25 -12.6 -37.85 -12.6 -37.55 -12.9 -37.25 -13.2 -37.25 -13.6 -37.25 -14 -37.55 -14.3 -37.85 -14.6 -38.25 -14.6 -38.65 -14.6 -38.95 -14.3
M -35.85 -18.8
Q -36.15 -19.1 -36.55 -19.1 -36.95 -19.1 -37.25 -18.8 -37.55 -18.5 -37.55 -18.1 -37.55 -17.7 -37.25 -17.4 -36.95 -17.1 -36.55 -17.1 -36.15 -17.1 -35.85 -17.4 -35.55 -17.7 -35.55 -18.1 -35.55 -18.5 -35.85 -18.8
M -33.45 -23.2
Q -33.75 -23.5 -34.15 -23.5 -34.55 -23.5 -34.85 -23.2 -35.15 -22.9 -35.15 -22.5 -35.15 -22.1 -34.85 -21.8 -34.55 -21.5 -34.15 -21.5 -33.75 -21.5 -33.45 -21.8 -33.15 -22.1 -33.15 -22.5 -33.15 -22.9 -33.45 -23.2
M -27.1 -31.2
Q -27.4 -31.5 -27.8 -31.5 -28.2 -31.5 -28.5 -31.2 -28.8 -30.9 -28.8 -30.5 -28.8 -30.1 -28.5 -29.8 -28.2 -29.5 -27.8 -29.5 -27.4 -29.5 -27.1 -29.8 -26.8 -30.1 -26.8 -30.5 -26.8 -30.9 -27.1 -31.2
M -23.25 -34.6
Q -23.55 -34.9 -23.95 -34.9 -24.35 -34.9 -24.65 -34.6 -24.95 -34.3 -24.95 -33.9 -24.95 -33.5 -24.65 -33.2 -24.35 -32.9 -23.95 -32.9 -23.55 -32.9 -23.25 -33.2 -22.95 -33.5 -22.95 -33.9 -22.95 -34.3 -23.25 -34.6
M -32 -27.3
Q -32.3 -27 -32.3 -26.6 -32.3 -26.2 -32 -25.9 -31.7 -25.6 -31.3 -25.6 -30.9 -25.6 -30.6 -25.9 -30.3 -26.2 -30.3 -26.6 -30.3 -27 -30.6 -27.3 -30.9 -27.6 -31.3 -27.6 -31.7 -27.6 -32 -27.3
M -15.85 -39.75
Q -16.15 -39.45 -16.15 -39.05 -16.15 -38.65 -15.85 -38.35 -15.55 -38.05 -15.15 -38.05 -14.75 -38.05 -14.45 -38.35 -14.15 -38.65 -14.15 -39.05 -14.15 -39.45 -14.45 -39.75 -14.75 -40.05 -15.15 -40.05 -15.55 -40.05 -15.85 -39.75
M -19.1 -37.45
Q -19.4 -37.75 -19.8 -37.75 -20.2 -37.75 -20.5 -37.45 -20.8 -37.15 -20.8 -36.75 -20.8 -36.35 -20.5 -36.05 -20.2 -35.75 -19.8 -35.75 -19.4 -35.75 -19.1 -36.05 -18.8 -36.35 -18.8 -36.75 -18.8 -37.15 -19.1 -37.45
M -6.25 -42.35
Q -6.55 -42.05 -6.55 -41.65 -6.55 -41.25 -6.25 -40.95 -5.95 -40.65 -5.55 -40.65 -5.15 -40.65 -4.85 -40.95 -4.55 -41.25 -4.55 -41.65 -4.55 -42.05 -4.85 -42.35 -5.15 -42.65 -5.55 -42.65 -5.95 -42.65 -6.25 -42.35
M -9.45 -40.65
Q -9.45 -41.05 -9.75 -41.35 -10.05 -41.65 -10.45 -41.65 -10.85 -41.65 -11.15 -41.35 -11.45 -41.05 -11.45 -40.65 -11.45 -40.25 -11.15 -39.95 -10.85 -39.65 -10.45 -39.65 -10.05 -39.65 -9.75 -39.95 -9.45 -40.25 -9.45 -40.65
M -41.2 -3.55
Q -41.2 -3.15 -40.9 -2.85 -40.6 -2.55 -40.2 -2.55 -39.8 -2.55 -39.5 -2.85 -39.2 -3.15 -39.2 -3.55 -39.2 -3.95 -39.5 -4.25 -39.8 -4.55 -40.2 -4.55 -40.6 -4.55 -40.9 -4.25 -41.2 -3.95 -41.2 -3.55
M 20.9 34.8
Q 20.6 35.1 20.6 35.5 20.6 35.9 20.9 36.2 21.2 36.5 21.6 36.5 22 36.5 22.3 36.2 22.6 35.9 22.6 35.5 22.6 35.1 22.3 34.8 22 34.5 21.6 34.5 21.2 34.5 20.9 34.8
M 24.9 31.7
Q 24.6 32 24.6 32.4 24.6 32.8 24.9 33.1 25.2 33.4 25.6 33.4 26 33.4 26.3 33.1 26.6 32.8 26.6 32.4 26.6 32 26.3 31.7 26 31.4 25.6 31.4 25.2 31.4 24.9 31.7
M 29.9 29.65
Q 30.2 29.35 30.2 28.95 30.2 28.55 29.9 28.25 29.6 27.95 29.2 27.95 28.8 27.95 28.5 28.25 28.2 28.55 28.2 28.95 28.2 29.35 28.5 29.65 28.8 29.95 29.2 29.95 29.6 29.95 29.9 29.65
M 11.95 39.3
Q 11.65 39.6 11.65 40 11.65 40.4 11.95 40.7 12.25 41 12.65 41 13.05 41 13.35 40.7 13.65 40.4 13.65 40 13.65 39.6 13.35 39.3 13.05 39 12.65 39 12.25 39 11.95 39.3
M 16.6 37.35
Q 16.3 37.65 16.3 38.05 16.3 38.45 16.6 38.75 16.9 39.05 17.3 39.05 17.7 39.05 18 38.75 18.3 38.45 18.3 38.05 18.3 37.65 18 37.35 17.7 37.05 17.3 37.05 16.9 37.05 16.6 37.35
M 2.05 41.2
Q 1.75 41.5 1.75 41.9 1.75 42.3 2.05 42.6 2.35 42.9 2.75 42.9 3.15 42.9 3.45 42.6 3.75 42.3 3.75 41.9 3.75 41.5 3.45 41.2 3.15 40.9 2.75 40.9 2.35 40.9 2.05 41.2
M 8.45 40.6
Q 8.15 40.3 7.75 40.3 7.35 40.3 7.05 40.6 6.75 40.9 6.75 41.3 6.75 41.7 7.05 42 7.35 42.3 7.75 42.3 8.15 42.3 8.45 42 8.75 41.7 8.75 41.3 8.75 40.9 8.45 40.6
M 35.05 19.85
Q 34.65 19.85 34.35 20.15 34.05 20.45 34.05 20.85 34.05 21.25 34.35 21.55 34.65 21.85 35.05 21.85 35.45 21.85 35.75 21.55 36.05 21.25 36.05 20.85 36.05 20.45 35.75 20.15 35.45 19.85 35.05 19.85
M 33.05 24.35
Q 32.75 24.05 32.35 24.05 31.95 24.05 31.65 24.35 31.35 24.65 31.35 25.05 31.35 25.45 31.65 25.75 31.95 26.05 32.35 26.05 32.75 26.05 33.05 25.75 33.35 25.45 33.35 25.05 33.35 24.65 33.05 24.35
M 36.55 15.65
Q 36.25 15.95 36.25 16.35 36.25 16.75 36.55 17.05 36.85 17.35 37.25 17.35 37.65 17.35 37.95 17.05 38.25 16.75 38.25 16.35 38.25 15.95 37.95 15.65 37.65 15.35 37.25 15.35 36.85 15.35 36.55 15.65
M 38.2 12
Q 38.5 12.3 38.9 12.3 39.3 12.3 39.6 12 39.9 11.7 39.9 11.3 39.9 10.9 39.6 10.6 39.3 10.3 38.9 10.3 38.5 10.3 38.2 10.6 37.9 10.9 37.9 11.3 37.9 11.7 38.2 12
M 41 1.95
Q 41.3 1.65 41.3 1.25 41.3 0.85 41 0.55 40.7 0.25 40.3 0.25 39.9 0.25 39.6 0.55 39.3 0.85 39.3 1.25 39.3 1.65 39.6 1.95 39.9 2.25 40.3 2.25 40.7 2.25 41 1.95
M 40.6 7.05
Q 40.9 6.75 40.9 6.35 40.9 5.95 40.6 5.65 40.3 5.35 39.9 5.35 39.5 5.35 39.2 5.65 38.9 5.95 38.9 6.35 38.9 6.75 39.2 7.05 39.5 7.35 39.9 7.35 40.3 7.35 40.6 7.05
M 40.15 -4.7
Q 39.75 -4.7 39.45 -4.4 39.15 -4.1 39.15 -3.7 39.15 -3.3 39.45 -3 39.75 -2.7 40.15 -2.7 40.55 -2.7 40.85 -3 41.15 -3.3 41.15 -3.7 41.15 -4.1 40.85 -4.4 40.55 -4.7 40.15 -4.7
M 38.8 -9.35
Q 38.5 -9.05 38.5 -8.65 38.5 -8.25 38.8 -7.95 39.1 -7.65 39.5 -7.65 39.9 -7.65 40.2 -7.95 40.5 -8.25 40.5 -8.65 40.5 -9.05 40.2 -9.35 39.9 -9.65 39.5 -9.65 39.1 -9.65 38.8 -9.35
M 37.6 -14.25
Q 37.3 -13.95 37.3 -13.55 37.3 -13.15 37.6 -12.85 37.9 -12.55 38.3 -12.55 38.7 -12.55 39 -12.85 39.3 -13.15 39.3 -13.55 39.3 -13.95 39 -14.25 38.7 -14.55 38.3 -14.55 37.9 -14.55 37.6 -14.25
M 34.7 -23.45
Q 34.4 -23.75 34 -23.75 33.6 -23.75 33.3 -23.45 33 -23.15 33 -22.75 33 -22.35 33.3 -22.05 33.6 -21.75 34 -21.75 34.4 -21.75 34.7 -22.05 35 -22.35 35 -22.75 35 -23.15 34.7 -23.45
M 37.2 -18.85
Q 36.9 -19.15 36.5 -19.15 36.1 -19.15 35.8 -18.85 35.5 -18.55 35.5 -18.15 35.5 -17.75 35.8 -17.45 36.1 -17.15 36.5 -17.15 36.9 -17.15 37.2 -17.45 37.5 -17.75 37.5 -18.15 37.5 -18.55 37.2 -18.85
M 3.65 -42.45
Q 3.35 -42.15 3.35 -41.75 3.35 -41.35 3.65 -41.05 3.95 -40.75 4.35 -40.75 4.75 -40.75 5.05 -41.05 5.35 -41.35 5.35 -41.75 5.35 -42.15 5.05 -42.45 4.75 -42.75 4.35 -42.75 3.95 -42.75 3.65 -42.45
M 0.35 -42
Q 0.35 -42.4 0.05 -42.7 -0.25 -43 -0.65 -43 -1.05 -43 -1.35 -42.7 -1.65 -42.4 -1.65 -42 -1.65 -41.6 -1.35 -41.3 -1.05 -41 -0.65 -41 -0.25 -41 0.05 -41.3 0.35 -41.6 0.35 -42
M 14.55 -38.9
Q 14.55 -38.5 14.85 -38.2 15.15 -37.9 15.55 -37.9 15.95 -37.9 16.25 -38.2 16.55 -38.5 16.55 -38.9 16.55 -39.3 16.25 -39.6 15.95 -39.9 15.55 -39.9 15.15 -39.9 14.85 -39.6 14.55 -39.3 14.55 -38.9
M 11.65 -39.8
Q 11.95 -40.1 11.95 -40.5 11.95 -40.9 11.65 -41.2 11.35 -41.5 10.95 -41.5 10.584765625 -41.5 10.3 -41.25 10.2318359375 -41.4681640625 10.05 -41.65 9.75 -41.95 9.35 -41.95 8.95 -41.95 8.65 -41.65 8.35 -41.35 8.35 -40.95 8.35 -40.55 8.65 -40.25 8.95 -39.95 9.35 -39.95 9.715234375 -39.95 10 -40.2 10.0681640625 -39.9818359375 10.25 -39.8 10.55 -39.5 10.95 -39.5 11.35 -39.5 11.65 -39.8
M 32.15 -26.8
Q 32.15 -27.2 31.85 -27.5 31.55 -27.8 31.15 -27.8 30.75 -27.8 30.45 -27.5 30.15 -27.2 30.15 -26.8 30.15 -26.4 30.45 -26.1 30.75 -25.8 31.15 -25.8 31.55 -25.8 31.85 -26.1 32.15 -26.4 32.15 -26.8
M 20.65 -35.95
Q 20.95 -36.25 20.95 -36.65 20.95 -37.05 20.65 -37.35 20.35 -37.65 19.95 -37.65 19.55 -37.65 19.25 -37.35 18.95 -37.05 18.95 -36.65 18.95 -36.25 19.25 -35.95 19.55 -35.65 19.95 -35.65 20.35 -35.65 20.65 -35.95
M 24 -34.85
Q 23.6 -34.85 23.3 -34.55 23 -34.25 23 -33.85 23 -33.45 23.3 -33.15 23.6 -32.85 24 -32.85 24.4 -32.85 24.7 -33.15 25 -33.45 25 -33.85 25 -34.25 24.7 -34.55 24.4 -34.85 24 -34.85
M 28.4 -31.25
Q 28.1 -31.55 27.7 -31.55 27.3 -31.55 27 -31.25 26.7 -30.95 26.7 -30.55 26.7 -30.15 27 -29.85 27.3 -29.55 27.7 -29.55 28.1 -29.55 28.4 -29.85 28.7 -30.15 28.7 -30.55 28.7 -30.95 28.4 -31.25 Z"/>
</g>

<g id="Tween_1_0_Layer0_0_MEMBER_2_FILL">
<path fill="#FFFFFF" stroke="none" d="
M -36.1 -40.85
L -32.6 -43.7 -34.2 -47.95 -38.75 -47.75 -39.95 -43.35 -36.1 -40.85 Z"/>
</g>

<g id="Tween_1_0_Layer0_0_MEMBER_3_FILL">
<path fill="#FFFFFF" stroke="none" d="
M 35.45 -40.85
L 38.95 -43.7 37.35 -47.95 32.8 -47.75 31.6 -43.35 35.45 -40.85 Z"/>
</g>

<g id="Tween_1_0_Layer0_0_MEMBER_4_FILL">
<path fill="#FFFFFF" stroke="none" d="
M -36.1 49.1
L -32.6 46.25 -34.2 42 -38.75 42.2 -39.95 46.6 -36.1 49.1 Z"/>
</g>

<g id="Tween_1_0_Layer0_0_MEMBER_5_FILL">
<path fill="#FFFFFF" stroke="none" d="
M 36 49.1
L 39.5 46.25 37.9 42 33.35 42.2 32.15 46.6 36 49.1 Z"/>
</g>

<path id="cartatras_0_Layer0_0_1_STROKES" stroke="#FFFFFF" stroke-width="2" stroke-linejoin="round" stroke-linecap="round" fill="none" d="
M -23.15 -64.8
Q -12.15 -68.9 0.55 -68.9 12.5 -68.9 26.2 -64 37.1 -60.3 48.7 -48.6 53.7 -43.4 56.3 -39.5 61.3 -31.8 63.95 -25.55 68.65 -13.4 68.65 0.65 68.65 15.35 63.4 28.05 63.3 28.25 63.3 28.5 63.2 28.7 63.05 28.95 64.95 29.05 61.5 32.05 56.85 41.5 48.7 49.75 44.45 54 40 57.55 38.9 58.35 37.65 59.25 37.2 59.45 36.8 59.8 25.85 66.95 13.05 69.25 6.8 70.25 0.55 70.25 -1 70.25 -2.65 70.25 -11.15 69.85 -18.8 67.6 -23.5 66.15 -27.85 64.15
L -27.95 64.05
Q -38.65 59 -47.7 49.75 -54.5 42.85 -58.85 35.05 -67.5 19.7 -67.5 0.65 -67.5 -13.05 -63.05 -24.9 -58.05 -37.8 -47.7 -48.6 -36.65 -59.85 -23.15 -64.8
L -12.9 -59 -12.9 -53.95 -21.5 -53.95 -14.5 -34.8 -19.5 -30.9 -29.75 -27.55 -32.85 -23.2 -32.85 -20.45
Q -36.1 -17.3 -36.1 -14.4
L -31.75 -7.85 -23.3 -7.85 -12.35 -4.5 3.7 -4.5
Q 4.25 1.3 6.8 2.65
L 6.8 12
Q 7.05 15.45 4.9 16.55 2.55 17.45 1.55 19.15
L 1.55 33.95 -1.65 38.85 -1.65 55.9 -6.45 55.9 -12.9 49.9 -12.9 38.4 -35.55 17.45 -35.55 6.45 -39.2 -2.8
Q -40.45 -3.95 -40.45 -6.15
L -40.45 -13.85 -47.45 -18.85 -51.7 -18.85 -58.7 -24.9 -63.05 -24.9
M 26.2 -64
Q 15.6 -64.2 14.5 -62 13.05 -60 13.8 -53.65 13.95 -49.75 11.35 -46.7 7.8 -42.8 7.35 -40.25 10.35 -39.15 14.25 -40.95 17.85 -42.7 19.6 -44.15 21.4 -45.7 21.2 -35.35 20.6 -34 24.85 -33.15 29.4 -32.25 30.85 -36.6 32.3 -41.15 33.45 -41.25 34.55 -41.4 39.35 -39.95 45.6 -38.15 48.8 -36.15
L 56.3 -39.5
M 63.95 -25.55
Q 57.4 -26 57.05 -26 54.7 -26.2 53.7 -27.1
L 50.05 -27.1
Q 50.05 -26.8 50.05 -26.55 49.8 -26.55 49.6 -26.55 48.05 -26.8 45.25 -27.55 42.1 -28.65 42 -28.65 39.25 -28.65 36.35 -26.8 32.65 -24.2 31.2 -23.75 24.5 -21.75 24.05 -21.45 23.5 -20.85 23.5 -16.4 23.5 -13.2 24.2 -10.6 24.65 -8.5 26.2 -3.95 26.65 -2.5 29.3 -2.15 32.75 -1.6 34.3 -0.7 35.9 0.2 44.9 2.2 47.9 2.75 47.9 10.35 47.9 12.8 47.7 14.8 47.25 16.9 47.25 18.25 47.25 20.15 45.9 21.7 44.15 23.45 43.9 24.05 43.7 24.7 43.45 27.5 43.15 29.8 41.8 31.7
L 41.8 38.4 52.7 38.4
Q 57.3 35.85 61.05 32.4 61.3 32.15 61.5 32.05 62.4 30.4 63.05 28.95
M -18.8 67.6
Q -18.25 66.7 -16.95 65.8 -15.25 64.5 -13.25 64.05 -12.15 63.6 -10.7 63.6 -9.6 63.6 -8.7 63.8 -7.7 64.05 -6.9 64.5 -5.35 65.25 -3.1 65.25 -1 65.25 2.55 63.25 3.15 63.05 3.55 62.8 4 62.45 4.55 62.05 4.9 61.8 5.35 61.45 10.6 57.55 13.6 57.55 14.5 57.55 16.05 58.15 17.85 58.7 18.4 58.7 19.85 58.7 25.85 56.45 29.3 56.45 29.65 56.7 30.1 56.9 30.55 59 30.55 59.45 30.65 60.15"/>
</defs>

<g id="btn_01" transform="matrix( 1, 0, 0, 1, 45.55,54.65) ">
<g transform="matrix( 1, 0, 0, 1, 0,0) ">
<g transform="matrix( 1, 0, 0, 1, 0,0) ">
<use xlink:href="#Tween_1_0_Layer0_0_MEMBER_0_FILL"/>
</g>

<g transform="matrix( 0.2738037109375, 0, 0, 0.2738037109375, -1.15,0) ">
<g transform="matrix( 1, 0, 0, 1, 0,0) ">
<use filter="url(#Filter_1)" xlink:href="#cartatras_0_Layer0_0_FILL"/>

<use filter="url(#Filter_1)" xlink:href="#cartatras_0_Layer0_0_1_STROKES"/>
</g>

<g transform="matrix( 2.39715576171875, 0, 0, 2.2285003662109375, -96.6,-93.6) ">
<g transform="matrix( 1, 0, 0, 1, 40.3,42) ">
<g transform="matrix( 1, 0, 0, 0.9692535400390625, 0,0) ">
<g transform="matrix( 1, 0, 0, 1, 0,0) ">
<use filter="url(#Filter_1)" xlink:href="#indicador_gr3_0_Layer0_0_FILL"/>

<use filter="url(#Filter_1)" xlink:href="#indicador_gr3_0_Layer0_0_STROKES_1_FILL"/>
</g>
</g>
</g>
</g>
</g>

<g transform="matrix( 1, 0, 0, 1, 0,0) ">
<use xlink:href="#Tween_1_0_Layer0_0_MEMBER_2_FILL"/>
</g>

<g transform="matrix( 1, 0, 0, 1, 0,0) ">
<use xlink:href="#Tween_1_0_Layer0_0_MEMBER_3_FILL"/>
</g>

<g transform="matrix( 1, 0, 0, 1, 0,0) ">
<use xlink:href="#Tween_1_0_Layer0_0_MEMBER_4_FILL"/>
</g>

<g transform="matrix( 1, 0, 0, 1, 0,0) ">
<use xlink:href="#Tween_1_0_Layer0_0_MEMBER_5_FILL"/>
</g>
</g>
</g>
</svg>
