<svg xmlns="http://www.w3.org/2000/svg" xmlns:xlink="http://www.w3.org/1999/xlink" preserveAspectRatio="none" width="91" height="109" viewBox="0 0 91 109"><defs><filter id="b" x="-20%" y="-20%" width="140%" height="140%" color-interpolation-filters="sRGB"><feColorMatrix in="SourceGraphic" values="0.11 0 0 0 0.5333333333333333 0 0.11 0 0 0.7137254901960784 0 0 0.11 0 0 0 0 0 1 0" result="result1"/></filter><g id="a"><path fill="#9C0" d="M45.5-44.9q0-9.75-11.2-9.75h-68.6q-11.2 0-11.2 9.75v89.85q0 9.75 11.2 9.75h68.6q11.2 0 11.2-9.75V-44.9m-19.65.15q0 10 10.8 10V35.8q-10.8 0-10.8 10h-52.8q0-10-10.75-10v-70.55q10.75 0 10.75-10h52.8z"/><path fill="#FFF" d="M36.65-34.75q-10.8 0-10.8-10h-52.8q0 10-10.75 10V35.8q10.75 0 10.75 10h52.8q0-10 10.8-10v-70.55z"/></g><path fill="#FFF" d="M6.8 12V2.65Q4.25 1.3 3.7-4.5h-16.05L-23.3-7.85h-8.45l-4.35-6.55q0-2.9 3.25-6.05v-2.75l3.1-4.35 10.25-3.35 5-3.9-7-19.15h8.6V-59l-10.25-5.8q-13.5 4.95-24.55 16.2-10.35 10.8-15.35 23.7h4.35l7 6.05h4.25l7 5v7.7q0 2.2 1.25 3.35l3.65 9.25v11L-12.9 38.4v11.5l6.45 6h4.8V38.85l3.2-4.9v-14.8q1-1.7 3.35-2.6 2.15-1.1 1.9-4.55m24.4-35.75q-6.7 2-7.15 2.3-.55.6-.55 5.05 0 3.2.7 5.8.45 2.1 2 6.65.45 1.45 3.1 1.8 3.45.55 5 1.45 1.6.9 10.6 2.9 3 .55 3 8.15 0 2.45-.2 4.45-.45 2.1-.45 3.45 0 1.9-1.35 3.45-1.75 1.75-2 2.35-.2.65-.45 3.45-.3 2.3-1.65 4.2v6.7h10.9q4.6-2.55 8.35-6 .25-.25.45-.35.9-1.65 1.55-3.1.15-.25.25-.45 0-.25.1-.45 5.25-12.7 5.25-27.4 0-14.05-4.7-26.2-6.55-.45-6.9-.45-2.35-.2-3.35-1.1h-3.65v.55h-.45q-1.55-.25-4.35-1-3.15-1.1-3.25-1.1-2.75 0-5.65 1.85-3.7 2.6-5.15 3.05M26.2-64q-10.6-.2-11.7 2-1.45 2-.7 8.35.15 3.9-2.45 6.95-3.55 3.9-4 6.45 3 1.1 6.9-.7 3.6-1.75 5.35-3.2 1.8-1.55 1.6 8.8-.6 1.35 3.65 2.2 4.55.9 6-3.45 1.45-4.55 2.6-4.65 1.1-.15 5.9 1.3 6.25 1.8 9.45 3.8l7.5-3.35q-2.6-3.9-7.6-9.1Q37.1-60.3 26.2-64z" id="c"/><g id="e" fill="#FFF"><path fill-opacity=".373" d="M27.25 12.6q-.05.1-.05.2l-.1.2q.8.05-.6 1.4-1.95 4.25-5.35 7.95-2.2 2.4-4.55 4.25-.2.1-.4.25-2.316 1.647-4.85 2.7l3.9 9.4q7.267-3.082 13.25-9.3 2.75-2.9 4.85-6.05.85-1.25 1.6-2.55 2.604-4.55 3.95-9.7l-10.4-3q-.47 2.18-1.25 4.25m-51.2 2.1l-10.8 6.75q1.392 2.348 3.1 4.55.8 1.05 1.6 2.05l1.5 1.6q6.934 7.185 15.5 10.2l3-10.8-.5-.25-.05-.05q-4.45-2.25-8.2-6.4-2.8-3.1-4.6-6.6l-.55-1.05m11.5-41.9l-4.6-11.05q-6.24 3.056-11.5 8.5-7.686 8.078-10.35 18.3l12.75 3.75q.413-1.77 1-3.45 2.1-5.8 6.35-10.65 2.96-3.284 6.35-5.4M9.3-41L6.35-30.35q2.67.557 5.5 1.65 4.5 1.65 9.3 6.9 2.1 2.35 3.15 4.1.534.877 1 1.7l9.25-5.8q-2.464-4.197-6.05-7.95Q20.12-38.43 9.3-41q.01.028 0 0z"/><path fill-opacity=".173" d="M-6.85 30.35q-1.637-.56-3.2-1.3l-3 10.8q3.383 1.165 7 1.7Q-3.1 42 0 42q5.9 0 11.15-1.55 2.113-.62 4.1-1.5l-3.9-9.4q-2.403 1.04-5 1.55-2.55.45-5.15.45H-.15q-3.5-.2-6.7-1.2m-32.05-41.8q-1.4 5.4-1.4 11.4 0 11.958 5.55 21.5l10.8-6.75Q-27 8.21-27 .3q0-4.2.85-8l-12.75-3.75M34.55-21.8L25.3-16q1.367 2.462 2.15 4.55Q29.4-6 29.4.3q0 4.204-.9 8.05l10.4 3q1.4-5.368 1.4-11.4 0-12.078-5.75-21.75M1.2-30.9q2.49 0 5.15.55L9.3-41q-.07.018-.15 0-4.4-1-9.15-1-2.65 0-5.15.25-6.342.802-11.9 3.5l4.6 11.05q1.874-1.08 3.85-1.85 4.55-1.85 9.8-1.85z"/></g><path fill="#FFF" d="M-8.15 40.6q-.3.3-.3.7 0 .4.3.7.3.3.7.3.4 0 .7-.3.3-.3.3-.7 0-.4-.3-.7-.3-.3-.7-.3-.4 0-.7.3m5.1.65q-.3.3-.3.7 0 .4.3.7.3.3.7.3.4 0 .7-.3.3-.3.3-.7 0-.4-.3-.7-.3-.3-.7-.3-.4 0-.7.3M-17.3 39q.4 0 .7-.3.3-.3.3-.7 0-.4-.3-.7-.3-.3-.7-.3-.4 0-.7.3-.3.3-.3.7 0 .4.3.7.3.3.7.3m5 2.05q.4 0 .7-.3.3-.3.3-.7 0-.4-.3-.7-.3-.3-.7-.3-.4 0-.7.3-.3.3-.3.7 0 .4.3.7.3.3.7.3m-8.3-5.55q0-.4-.3-.7-.3-.3-.7-.3-.4 0-.7.3-.3.3-.3.7 0 .4.3.7.3.3.7.3.4 0 .7-.3.3-.3.3-.7m-5-4.05q-.4 0-.7.3-.3.3-.3.7 0 .4.3.7.3.3.7.3.4 0 .7-.3.3-.3.3-.7 0-.4-.3-.7-.3-.3-.7-.3m-4.45-3.4q-.3.3-.3.7 0 .4.3.7.3.3.7.3.4 0 .7-.3.3-.3.3-.7 0-.4-.3-.7-.3-.3-.7-.3-.4 0-.7.3m-1.7-3.85q-.3-.3-.7-.3-.4 0-.7.3-.3.3-.3.7 0 .4.3.7.3.3.7.3.4 0 .7-.3.3-.3.3-.7 0-.4-.3-.7m-4.45-3.65q0 .4.3.7.3.3.7.3.4 0 .7-.3.3-.3.3-.7 0-.4-.3-.7-.3-.3-.7-.3-.4 0-.7.3-.3.3-.3.7m-.4-5.05q-.3-.3-.7-.3-.4 0-.7.3-.3.3-.3.7 0 .4.3.7.3.3.7.3.4 0 .7-.3.3-.3.3-.7 0-.4-.3-.7m-1.5-4.7q-.3-.3-.7-.3-.4 0-.7.3-.3.3-.3.7 0 .4.3.7.3.3.7.3.4 0 .7-.3.3-.3.3-.7 0-.4-.3-.7m-1-4.95q-.3-.3-.7-.3-.4 0-.7.3-.3.3-.3.7 0 .4.3.7.3.3.7.3.4 0 .7-.3.3-.3.3-.7 0-.4-.3-.7m-.45-5q-.3-.3-.7-.3-.4 0-.7.3-.3.3-.3.7 0 .4.3.7.3.3.7.3.4 0 .7-.3.3-.3.3-.7 0-.4-.3-.7m.7-10.1q-.3-.3-.7-.3-.4 0-.7.3-.3.3-.3.7 0 .4.3.7.3.3.7.3.4 0 .7-.3.3-.3.3-.7 0-.4-.3-.7m-.1-5.05q-.3.3-.3.7 0 .4.3.7.3.3.7.3.4 0 .7-.3.3-.3.3-.7 0-.4-.3-.7-.3-.3-.7-.3-.4 0-.7.3m3.1-4.5q-.3-.3-.7-.3-.4 0-.7.3-.3.3-.3.7 0 .4.3.7.3.3.7.3.4 0 .7-.3.3-.3.3-.7 0-.4-.3-.7m2.4-4.4q-.3-.3-.7-.3-.4 0-.7.3-.3.3-.3.7 0 .4.3.7.3.3.7.3.4 0 .7-.3.3-.3.3-.7 0-.4-.3-.7m6.35-8q-.3-.3-.7-.3-.4 0-.7.3-.3.3-.3.7 0 .4.3.7.3.3.7.3.4 0 .7-.3.3-.3.3-.7 0-.4-.3-.7m3.85-3.4q-.3-.3-.7-.3-.4 0-.7.3-.3.3-.3.7 0 .4.3.7.3.3.7.3.4 0 .7-.3.3-.3.3-.7 0-.4-.3-.7M-32-27.3q-.3.3-.3.7 0 .4.3.7.3.3.7.3.4 0 .7-.3.3-.3.3-.7 0-.4-.3-.7-.3-.3-.7-.3-.4 0-.7.3m16.15-12.45q-.3.3-.3.7 0 .4.3.7.3.3.7.3.4 0 .7-.3.3-.3.3-.7 0-.4-.3-.7-.3-.3-.7-.3-.4 0-.7.3m-3.25 2.3q-.3-.3-.7-.3-.4 0-.7.3-.3.3-.3.7 0 .4.3.7.3.3.7.3.4 0 .7-.3.3-.3.3-.7 0-.4-.3-.7m12.85-4.9q-.3.3-.3.7 0 .4.3.7.3.3.7.3.4 0 .7-.3.3-.3.3-.7 0-.4-.3-.7-.3-.3-.7-.3-.4 0-.7.3m-3.2 1.7q0-.4-.3-.7-.3-.3-.7-.3-.4 0-.7.3-.3.3-.3.7 0 .4.3.7.3.3.7.3.4 0 .7-.3.3-.3.3-.7M-41.2-3.55q0 .4.3.7.3.3.7.3.4 0 .7-.3.3-.3.3-.7 0-.4-.3-.7-.3-.3-.7-.3-.4 0-.7.3-.3.3-.3.7M20.9 34.8q-.3.3-.3.7 0 .4.3.7.3.3.7.3.4 0 .7-.3.3-.3.3-.7 0-.4-.3-.7-.3-.3-.7-.3-.4 0-.7.3m4-3.1q-.3.3-.3.7 0 .4.3.7.3.3.7.3.4 0 .7-.3.3-.3.3-.7 0-.4-.3-.7-.3-.3-.7-.3-.4 0-.7.3m5-2.05q.3-.3.3-.7 0-.4-.3-.7-.3-.3-.7-.3-.4 0-.7.3-.3.3-.3.7 0 .4.3.7.3.3.7.3.4 0 .7-.3M11.95 39.3q-.3.3-.3.7 0 .4.3.7.3.3.7.3.4 0 .7-.3.3-.3.3-.7 0-.4-.3-.7-.3-.3-.7-.3-.4 0-.7.3m4.65-1.95q-.3.3-.3.7 0 .4.3.7.3.3.7.3.4 0 .7-.3.3-.3.3-.7 0-.4-.3-.7-.3-.3-.7-.3-.4 0-.7.3M2.05 41.2q-.3.3-.3.7 0 .4.3.7.3.3.7.3.4 0 .7-.3.3-.3.3-.7 0-.4-.3-.7-.3-.3-.7-.3-.4 0-.7.3m6.4-.6q-.3-.3-.7-.3-.4 0-.7.3-.3.3-.3.7 0 .4.3.7.3.3.7.3.4 0 .7-.3.3-.3.3-.7 0-.4-.3-.7m26.6-20.75q-.4 0-.7.3-.3.3-.3.7 0 .4.3.7.3.3.7.3.4 0 .7-.3.3-.3.3-.7 0-.4-.3-.7-.3-.3-.7-.3m-2 4.5q-.3-.3-.7-.3-.4 0-.7.3-.3.3-.3.7 0 .4.3.7.3.3.7.3.4 0 .7-.3.3-.3.3-.7 0-.4-.3-.7m3.5-8.7q-.3.3-.3.7 0 .4.3.7.3.3.7.3.4 0 .7-.3.3-.3.3-.7 0-.4-.3-.7-.3-.3-.7-.3-.4 0-.7.3M38.2 12q.3.3.7.3.4 0 .7-.3.3-.3.3-.7 0-.4-.3-.7-.3-.3-.7-.3-.4 0-.7.3-.3.3-.3.7 0 .4.3.7M41 1.95q.3-.3.3-.7 0-.4-.3-.7-.3-.3-.7-.3-.4 0-.7.3-.3.3-.3.7 0 .4.3.7.3.3.7.3.4 0 .7-.3m-.4 5.1q.3-.3.3-.7 0-.4-.3-.7-.3-.3-.7-.3-.4 0-.7.3-.3.3-.3.7 0 .4.3.7.3.3.7.3.4 0 .7-.3M40.15-4.7q-.4 0-.7.3-.3.3-.3.7 0 .4.3.7.3.3.7.3.4 0 .7-.3.3-.3.3-.7 0-.4-.3-.7-.3-.3-.7-.3M38.8-9.35q-.3.3-.3.7 0 .4.3.7.3.3.7.3.4 0 .7-.3.3-.3.3-.7 0-.4-.3-.7-.3-.3-.7-.3-.4 0-.7.3m-1.2-4.9q-.3.3-.3.7 0 .4.3.7.3.3.7.3.4 0 .7-.3.3-.3.3-.7 0-.4-.3-.7-.3-.3-.7-.3-.4 0-.7.3m-2.9-9.2q-.3-.3-.7-.3-.4 0-.7.3-.3.3-.3.7 0 .4.3.7.3.3.7.3.4 0 .7-.3.3-.3.3-.7 0-.4-.3-.7m2.5 4.6q-.3-.3-.7-.3-.4 0-.7.3-.3.3-.3.7 0 .4.3.7.3.3.7.3.4 0 .7-.3.3-.3.3-.7 0-.4-.3-.7M3.65-42.45q-.3.3-.3.7 0 .4.3.7.3.3.7.3.4 0 .7-.3.3-.3.3-.7 0-.4-.3-.7-.3-.3-.7-.3-.4 0-.7.3M.35-42q0-.4-.3-.7-.3-.3-.7-.3-.4 0-.7.3-.3.3-.3.7 0 .4.3.7.3.3.7.3.4 0 .7-.3.3-.3.3-.7m14.2 3.1q0 .4.3.7.3.3.7.3.4 0 .7-.3.3-.3.3-.7 0-.4-.3-.7-.3-.3-.7-.3-.4 0-.7.3-.3.3-.3.7m-2.9-.9q.3-.3.3-.7 0-.4-.3-.7-.3-.3-.7-.3-.365 0-.65.25-.068-.218-.25-.4-.3-.3-.7-.3-.4 0-.7.3-.3.3-.3.7 0 .4.3.7.3.3.7.3.365 0 .65-.25.068.218.25.4.3.3.7.3.4 0 .7-.3m20.5 13q0-.4-.3-.7-.3-.3-.7-.3-.4 0-.7.3-.3.3-.3.7 0 .4.3.7.3.3.7.3.4 0 .7-.3.3-.3.3-.7m-11.5-9.15q.3-.3.3-.7 0-.4-.3-.7-.3-.3-.7-.3-.4 0-.7.3-.3.3-.3.7 0 .4.3.7.3.3.7.3.4 0 .7-.3m3.35 1.1q-.4 0-.7.3-.3.3-.3.7 0 .4.3.7.3.3.7.3.4 0 .7-.3.3-.3.3-.7 0-.4-.3-.7-.3-.3-.7-.3m4.4 3.6q-.3-.3-.7-.3-.4 0-.7.3-.3.3-.3.7 0 .4.3.7.3.3.7.3.4 0 .7-.3.3-.3.3-.7 0-.4-.3-.7z" id="f"/><path fill="#FFF" d="M-36.1-40.85l3.5-2.85-1.6-4.25-4.55.2-1.2 4.4 3.85 2.5z" id="g"/><path fill="#FFF" d="M35.45-40.85l3.5-2.85-1.6-4.25-4.55.2-1.2 4.4 3.85 2.5z" id="h"/><path fill="#FFF" d="M-36.1 49.1l3.5-2.85-1.6-4.25-4.55.2-1.2 4.4 3.85 2.5z" id="i"/><path fill="#FFF" d="M36 49.1l3.5-2.85L37.9 42l-4.55.2-1.2 4.4L36 49.1z" id="j"/><path id="d" stroke="#FFF" stroke-width="2" stroke-linejoin="round" stroke-linecap="round" fill="none" d="M-23.15-64.8q11-4.1 23.7-4.1 11.95 0 25.65 4.9 10.9 3.7 22.5 15.4 5 5.2 7.6 9.1 5 7.7 7.65 13.95 4.7 12.15 4.7 26.2 0 14.7-5.25 27.4-.1.2-.1.45-.1.2-.25.45 1.9.1-1.55 3.1-4.65 9.45-12.8 17.7-4.25 4.25-8.7 7.8-1.1.8-2.35 1.7-.45.2-.85.55-10.95 7.15-23.75 9.45-6.25 1-12.5 1h-3.2q-8.5-.4-16.15-2.65-4.7-1.45-9.05-3.45l-.1-.1Q-38.65 59-47.7 49.75q-6.8-6.9-11.15-14.7Q-67.5 19.7-67.5.65q0-13.7 4.45-25.55 5-12.9 15.35-23.7 11.05-11.25 24.55-16.2L-12.9-59v5.05h-8.6l7 19.15-5 3.9-10.25 3.35-3.1 4.35v2.75q-3.25 3.15-3.25 6.05l4.35 6.55h8.45l10.95 3.35H3.7q.55 5.8 3.1 7.15V12q.25 3.45-1.9 4.55-2.35.9-3.35 2.6v14.8l-3.2 4.9V55.9h-4.8l-6.45-6V38.4l-22.65-20.95v-11L-39.2-2.8q-1.25-1.15-1.25-3.35v-7.7l-7-5h-4.25l-7-6.05h-4.35M26.2-64q-10.6-.2-11.7 2-1.45 2-.7 8.35.15 3.9-2.45 6.95-3.55 3.9-4 6.45 3 1.1 6.9-.7 3.6-1.75 5.35-3.2 1.8-1.55 1.6 8.8-.6 1.35 3.65 2.2 4.55.9 6-3.45 1.45-4.55 2.6-4.65 1.1-.15 5.9 1.3 6.25 1.8 9.45 3.8l7.5-3.35m7.65 13.95Q57.4-26 57.05-26q-2.35-.2-3.35-1.1h-3.65v.55h-.45q-1.55-.25-4.35-1-3.15-1.1-3.25-1.1-2.75 0-5.65 1.85-3.7 2.6-5.15 3.05-6.7 2-7.15 2.3-.55.6-.55 5.05 0 3.2.7 5.8.45 2.1 2 6.65.45 1.45 3.1 1.8 3.45.55 5 1.45 1.6.9 10.6 2.9 3 .55 3 8.15 0 2.45-.2 4.45-.45 2.1-.45 3.45 0 1.9-1.35 3.45-1.75 1.75-2 2.35-.2.65-.45 3.45-.3 2.3-1.65 4.2v6.7h10.9q4.6-2.55 8.35-6 .25-.25.45-.35.9-1.65 1.55-3.1M-18.8 67.6q.55-.9 1.85-1.8 1.7-1.3 3.7-1.75 1.1-.45 2.55-.45 1.1 0 2 .2 1 .25 1.8.7 1.55.75 3.8.75 2.1 0 5.65-2 .6-.2 1-.45.45-.35 1-.75.35-.25.8-.6 5.25-3.9 8.25-3.9.9 0 2.45.6 1.8.55 2.35.55 1.45 0 7.45-2.25 3.45 0 3.8.25.45.2.9 2.3 0 .45.1 1.15"/></defs><use xlink:href="#a" transform="translate(45.55 54.65)"/><g transform="matrix(.2738 0 0 .2738 44.4 54.65)"><use filter="url(#b)" xlink:href="#c"/><use filter="url(#b)" xlink:href="#d"/></g><g transform="matrix(.65635 0 0 .5914 44.4 54.65)"><use filter="url(#b)" xlink:href="#e"/><use filter="url(#b)" xlink:href="#f"/></g><use xlink:href="#g" transform="translate(45.55 54.65)"/><use xlink:href="#h" transform="translate(45.55 54.65)"/><use xlink:href="#i" transform="translate(45.55 54.65)"/><g transform="translate(45.55 54.65)"><use xlink:href="#j"/></g></svg>