
<svg xmlns="http://www.w3.org/2000/svg" version="1.1" xmlns:xlink="http://www.w3.org/1999/xlink" preserveAspectRatio="none" x="0px" y="0px" width="107px" height="49px" viewBox="0 0 107 49">
<defs>
<linearGradient id="Gradient_1" gradientUnits="userSpaceOnUse" x1="274.7125" y1="175.7625" x2="274.7875" y2="182.4375" spreadMethod="pad">
<stop  offset="0%" stop-color="#FCFCFC"/>

<stop  offset="100%" stop-color="#A3A3A3"/>
</linearGradient>

<g id="Layer0_0_FILL">
<path fill="#FFFFFF" stroke="none" d="
M 283.35 199.25
L 273.95 204.25 265 199.7 222.4 224.4 328.4 224.35 283.35 199.25
M 233.95 182.45
L 233.45 182.4 221.65 175.7 222.4 224.4 265 199.7 233.95 182.45
M 328.4 224.35
L 327.65 175.65 315.6 182.4 314.95 182.45 283.35 199.25 328.4 224.35
M 327.45 175.7
L 327.65 175.55 221.65 175.6 221.9 175.75 233.95 182.45 265 199.7 273.95 204.25 283.35 199.25 314.95 182.45 327.45 175.7 Z"/>

<path fill="url(#Gradient_1)" stroke="none" d="
M 233.45 182.4
L 233.95 182.45 221.9 175.75 221.65 175.7 233.45 182.4
M 327.65 175.65
L 327.45 175.7 314.95 182.45 315.6 182.4 327.65 175.65 Z"/>
</g>

<path id="Layer0_0_1_STROKES" stroke="#CCCCCC" stroke-width="1" stroke-linejoin="round" stroke-linecap="round" fill="none" d="
M 221.9 175.75
L 221.65 175.6 327.65 175.55 327.45 175.7 327.65 175.65 328.4 224.35 222.4 224.4 221.65 175.7 221.9 175.75 233.95 182.45 265 199.7 273.95 204.25 283.35 199.25 314.95 182.45 327.45 175.7
M 265 199.7
L 222.4 224.4
M 328.4 224.35
L 283.35 199.25"/>
</defs>

<g transform="matrix( 1, 0, 0, 1, -221.65,-175.55) ">
<use xlink:href="#Layer0_0_FILL"/>

<use xlink:href="#Layer0_0_1_STROKES"/>
</g>
</svg>
