
<svg xmlns="http://www.w3.org/2000/svg" version="1.1" xmlns:xlink="http://www.w3.org/1999/xlink" preserveAspectRatio="none" x="0px" y="0px" width="91px" height="109px" viewBox="0 0 91 109">
<defs>
<g id="Tween_1_0_Layer0_0_MEMBER_0_FILL">
<path fill="#99CC00" stroke="none" d="
M 45.5 -44.9
Q 45.5 -54.65 34.3 -54.65
L -34.3 -54.65
Q -45.5 -54.65 -45.5 -44.9
L -45.5 44.95
Q -45.5 54.7 -34.3 54.7
L 34.3 54.7
Q 45.5 54.7 45.5 44.95
L 45.5 -44.9
M 25.85 -44.75
Q 25.85 -34.75 36.65 -34.75
L 36.65 35.8
Q 25.85 35.8 25.85 45.8
L -26.95 45.8
Q -26.95 35.8 -37.7 35.8
L -37.7 -34.75
Q -26.95 -34.75 -26.95 -44.75
L 25.85 -44.75 Z"/>
</g>

<g id="Tween_1_0_Layer0_0_MEMBER_1_FILL">
<path fill="#FFFFFF" stroke="none" d="
M -36.1 -40.85
L -32.6 -43.7 -34.2 -47.95 -38.75 -47.75 -39.95 -43.35 -36.1 -40.85 Z"/>
</g>

<g id="Tween_1_0_Layer0_0_MEMBER_2_FILL">
<path fill="#FFFFFF" stroke="none" d="
M 35.45 -40.85
L 38.95 -43.7 37.35 -47.95 32.8 -47.75 31.6 -43.35 35.45 -40.85 Z"/>
</g>

<g id="Tween_1_0_Layer0_0_MEMBER_3_FILL">
<path fill="#FFFFFF" stroke="none" d="
M -36.1 49.1
L -32.6 46.25 -34.2 42 -38.75 42.2 -39.95 46.6 -36.1 49.1 Z"/>
</g>

<g id="Tween_1_0_Layer0_0_MEMBER_4_FILL">
<path fill="#FFFFFF" stroke="none" d="
M 36 49.1
L 39.5 46.25 37.9 42 33.35 42.2 32.15 46.6 36 49.1 Z"/>
</g>
</defs>

<g id="btn_01" transform="matrix( 1, 0, 0, 1, 45.55,54.65) ">
<g transform="matrix( 1, 0, 0, 1, 0,0) ">
<g transform="matrix( 1, 0, 0, 1, 0,0) ">
<use xlink:href="#Tween_1_0_Layer0_0_MEMBER_0_FILL"/>
</g>

<g transform="matrix( 1, 0, 0, 1, 0,0) ">
<use xlink:href="#Tween_1_0_Layer0_0_MEMBER_1_FILL"/>
</g>

<g transform="matrix( 1, 0, 0, 1, 0,0) ">
<use xlink:href="#Tween_1_0_Layer0_0_MEMBER_2_FILL"/>
</g>

<g transform="matrix( 1, 0, 0, 1, 0,0) ">
<use xlink:href="#Tween_1_0_Layer0_0_MEMBER_3_FILL"/>
</g>

<g transform="matrix( 1, 0, 0, 1, 0,0) ">
<use xlink:href="#Tween_1_0_Layer0_0_MEMBER_4_FILL"/>
</g>
</g>
</g>
</svg>
