<svg xmlns="http://www.w3.org/2000/svg" xmlns:xlink="http://www.w3.org/1999/xlink" preserveAspectRatio="none" width="111" height="164" viewBox="0 0 111 164"><defs><g id="a"><path fill="#999" d="M76.85 94.35v59.5q9.65.65 21.5.85l1.4-63.55q-9.95 12.35-22.9 3.2z"/><path fill="#CCC" d="M133.95 141.85q-5.85 0-10.85-12.05l1.2 19.9q.45.05 1.45 2 6.95-2.25 14.8-6.15-2.85-3.7-6.6-3.7m-80-6.5l1.85-14.45q-9.25 20.65-16.75 21.9-1.5.25-3 .35 1.5 2.15 4.5 3.8 4.5 2.5 13 4.15l.4-15.75m22.9-49.95q-2.05.65-4 1.35l-14.7 24.6 9.7 16.15-9.15 17.25 4.25 7.85q1.25.15 2.6.3L62 144.75l9.1-17.25-9.7-16.15L76.85 85.4m29.1 2.25q-3.05-.85-6.2-1.4l12.9 24.5-7.5 12.95 8.05 20.5-4.75 10.55h.05q1.85 0 3.8-.15l6.3-10.4-8.05-20.5 7.55-12.95-12.15-23.1z"/><path fill="#F2F2F2" d="M123.1 129.8q5 12.05 10.85 12.05 3.75 0 6.6 3.7 1.05-.5 2.05-1.1.15-.05.25-.1l-8.3-42.7q-13.65-9.95-28.6-14l12.15 23.1-7.55 12.95 8.05 20.5-6.3 10.4q5.55-.5 11.85-2.4.05-1.3.15-2.5l-1.2-19.9m-55.25-2.3l-9.7-16.15 14.7-24.6q-19 6.6-31.45 16.8l-9.25 31.35q.7.65 1.5 1.4.05.05 1.25 4.45.4 1.25 1.15 2.4 1.5-.1 3-.35 7.5-1.25 16.75-21.9l-1.85 14.45-.4 15.75q4.2.85 9.4 1.5l-4.25-7.85 9.15-17.25m9-33.15V85.4L61.4 111.35l9.7 16.15-9.1 17.25 3.55 8.15q5.2.55 11.3.95v-59.5m22.9-8.1v4.9l-1.4 63.55q4.85.05 10.1.05l4.75-10.55-8.05-20.5 7.5-12.95-12.9-24.5z"/></g><g id="b"><path fill="#FEC792" d="M85.85 86.4q1.5 0 7.75-2.75 3.3-1.45 6.15-2.9V72.7q-14.45-15.8-22.7 2.65-.15.2-.2.4v6.65q.5.35 1.15.8 5 3.2 7.85 3.2z"/><path fill="#FFEAD5" d="M93.6 83.65q-6.25 2.75-7.75 2.75-2.85 0-7.85-3.2-.65-.45-1.15-.8v12q12.95 9.1 22.9-3.2V80.75q-2.85 1.45-6.15 2.9z"/></g><g id="c"><path fill="#CA5202" d="M34.1 39.45v-.15h-.6q.35.05.6.15M67.2 16.7q1.25-1.2 2.05-1.9-1.15.55-2.3.8-.45.15-.9.25l-.45.6v.25h1.6m57.4 6.2q-.65.3-1.4.5-3.45 1.2-9.7 1.2-4.45 0-8.55-.95-1.2-.25-2.35-.65l-.1.3q0 .05 2.4 4.4 1.45 2.65 3.15 4.15l-.05.05q-6.65-3.85-11.8-9.95-.95-1.1-2-2.5-1.15-.65-2.3-1.4-3.75-2.5-6.6-5.5-2.45-2.6-3.35-4.65-3.75 1.35-6.65 3.05-2.2 1.45-3.5 2.3-.3.25-.65.45l.3.15q-.35.5-.8 1.2-1.7 2.85-2.4 3.95 2.2.05 4.15-.95.8-.5 1.75-1.35-1 1.65-5.55 6.3-3.55 3.55-5.15 5.05L63.4 28q1.2-1.2 2.1-2.95.8-1.45 1.7-3.75-1.6.4-5.3 2.1-1.4.65-5.15 2.55v-.1q3.55-2.5 5.55-4.55V21q-1.7.25-3.95.3h-4.2q.95-.2 2.35-.85l.3-.15q.25-.1 2.35-1.5 1.5-.9 3.2-2.1.35-.25.6-.45-1.5.2-3.1.2-.5 0-.95-.15-1.85 1.1-3.75 2.1-.45.2-.95.45-.05.15-.25.15-1.1 1.6-2.8 3.15-2.3 2.1-4.95 3.35-2.75 1.4-4.85 1.4-2.75 0-5.4-1.35v-.25h-.6q-.45 0-.8-.05 1 1.1 3.15 2.2 2.25 1 7.55 1.45h7.9q-.35.5-1.75 1.45-4.25 4.5-8.2 6.5-4.2 2.3-9.1 2.6 1.45.1 2.8.15h3.2q11.6-4.4 19.7-11.35-4.95 5.35-7.65 7.2-4.4 3.1-11.85 4.5 1.75 2.15 10.55-.25.3-.1.65-.2 1.3-.4 2.75-.85 1.4-.5 2.55-.9-.2.35-.35.6-1.35 1.7-2.4 2.95-.35.45-.8.85-1.3 1.5-1.8 2.15-.05.1-.25.25-.6.6-2.25 2.05h-.05q-1.6 2.1-3.9 2.2 1.9.1 4.15-.75 1-.4 2.25-1.05 1.25-.7 2.75-1.7.3-.25.6-.55v5q.6 1.7 1.15 4.95.1.45.15.95.2 1.35.4 2.4-.2 1.3-.8 3-1.15 3.65-3.35 7.7-2.3 4.15-4.75 7-2.6 3.05-4.55 3.45h1.3q1.2-.5 5.1-2.95 4.1-2.55 4.75-3.25h.3q.65 2.95-3.65 8.9-4.25 6-8.75 6.8h3.6q4.7-.1 12.35-4.45 7.7-4.4 7.9-5.7l.35-.3q-.1.1-.2.35v.1q-.8 1.35-2.9 4-2.15 2.75-5.05 4.4 6.3.35 12.5-4.35 2.45-1.7 4.35-3.75.95-1.15 1.5-1.9-.25-.2-.4-.4-6.45-6-8-7.95-1.55-2-5.95-12.65-1.4-3.45-2.3-5.95-.25-.5-.45-1-.3 3.7-.3 7.3 0 3.15 1.35 9.2 1.2 5.3 2.55 9.35-1.5-1.25-2.55-3.15-.85-2.85-1.65-6.2-1.3-6.05-1.3-9.2 0-3.6.25-7.3.2-2.15.45-4.1.3-2.2.65-3.7 1-1.05 2.15-2.1 1.55-1.6 3.25-3.4 2.05-2.25 6-6.95 2-2.25 4.35-5.1 3.6-4.25 6.25-7.25l.2.15q.05.15.15.2 2.45 2.75 8.6 8.15 4.75 4.15 7.45 6.35l1.4 1.05q8.25 5.9 12.75 7.4.05.1.45.2l-.15.2q-.15 1.3-.25 2.95.5-.45 1.25-.65.9 2.75 1.05 6.35 0 1.5-.25 6.55-.25 4.2 0 6.7l-.2.05.1.4q-.5-1.3-.8-2.3-.65-1.9-.95-4.15-1.8 4.45-3.15 7.8-1.45 3.5-9 9.65 5.05 3.3 7.4 5.85 2.2 2.45 3.15 5.05h.1q-.6-4.45-.7-4.9 2.8 1.05 7.6 3.35 3.45 1.5 6.45 1.75.25-.4 2.75-.4 1.4.05 3.45.2l.05-.3q-4.85-.8-9.2-3.7-4.4-3.15-6.85-7.8v-1.95h.3q.45.3 2.15 1.75 1.95 1.7 3.2 2.7 4.3 3.15 6.8 2.8-5.25-1.4-8.9-7.25-.05 0-.05-.05-.1-.05-.1-.1-.6-1-1.1-2-1.45-2.6-2.4-5.35-.05-.15-.05-.2 0-.194-.05-.25.052.055.1.2 1.35 3.1 3.7 7.4h.35q-.25-3.35-.45-8.2-.25-4.25-.25-5.1 0-.7.05-1.4.1-3.1.55-5.5.7-2.65 1.35-5.2.35-1.35.65-2.65l2.3.9.3-.05V43q-1.05-.85-1.95-1.65-.15-.05-.25-.2v.15q-.85-.45-1.75-1-8.1-4.45-8.1-7.5 0-.5.15-.65.1-.05.15-.05h1.7q.1.25.95 1.35 1.35 2.4 4 5.15 1.1 1 2.9 2.55.1-.7.55-2.05.7.35 1.35.5 4.6 1.8 8.85 1.35h4.55l.05-.2q.15-.1.35-.1-1.95-.8-5.65-2.8-3.45-.7-6.45-1.6-10.85-3.15-10.85-7.55 0-.5.35-.85.35-.3 1.15-.3.5 0 1.8.65.7.3 1.25.5-.85.15-1.6.2 1.6 1.2 6.35 4.15.55-3.15.55-3.9 0-.7-.4-1.65.65-.25 1.35-.5 4.8-1.7 8.25-3.85-3.45.9-7.1-.25z"/><path fill="#F46302" d="M51.4 30.35q-2.1 1.6-6.8 4.25-7.45 4.4-10.5 4.7v.15q4.9-.3 9.1-2.6 3.95-2 8.2-6.5m7.95 18.8q.2-2.15.45-4.1.5-3.85 1.15-5.8-1.15 1.05-2.15 2.1-.35 1.5-.65 3.7-.25 1.95-.45 4.1-.25 3.7-.25 7.3 0 3.15 1.3 9.2.8 3.35 1.65 6.2 1.05 1.9 2.55 3.15-1.35-4.05-2.55-9.35-1.35-6.05-1.35-9.2 0-3.6.3-7.3m-7.2-13.7q2.7-1.85 7.65-7.2-8.1 6.95-19.7 11.35.05.2.2.35 7.45-1.4 11.85-4.5m-1-13.3q1.7-1.55 2.8-3.15-.65.4-1.3.65-10.9 5.5-16.7 5.65v.25q2.65 1.35 5.4 1.35 2.1 0 4.85-1.4 2.65-1.25 4.95-3.35m59.9 25.65q-.05.8-.05 1.15 0 3.95.6 7.2.3 2.25.95 4.15l.2-.05q.25 1 .5 1.95l.2-.05q-.25-2.5 0-6.7.25-5.05.25-6.55-.15-3.6-1.05-6.35-.75.2-1.25.65-.05 1.1-.2 2.25-.05 1.45-.15 2.35M113 33.45q-.85-1.1-.95-1.35h-1.7q-.05 0-.15.05-.15.15-.15.65 0 3.05 8.1 7.5.9.55 1.75 1v-.15q-1.8-1.55-2.9-2.55-2.65-2.75-4-5.15m11.85 1.4q-1.6-1-2.9-1.8-4.75-2.95-6.35-4.15.75-.05 1.6-.2-.55-.2-1.25-.5-1.3-.65-1.8-.65-.8 0-1.15.3-.35.35-.35.85 0 4.4 10.85 7.55 3 .9 6.45 1.6-2.15-1.3-5.1-3m-44.1-41.6q-3.2-2-5.35-2-3.65 0-7.5 3.5-3.3 3-6.45 8.35-2.7 4.75-4.7 10.15-.05.05-.05.2.1.75.35 1.35.65 1.2 1.85 1.5.45.15.95.15 1.6 0 3.1-.2 3.25-2.25 5.3-4.1-.45.9-1.3 2.2-.55.95-.9 1.5.45-.1.9-.25 1.15-.25 2.3-.8.95-.45 1.9-1.1.35-.2.65-.45 1.3-.85 3.5-2.3 2.9-1.7 6.65-3.05.9 2.05 3.35 4.65 2.85 3 6.6 5.5 1.15.75 2.3 1.4-.75-1.05-1.6-2.1-2.1-3.1-2.45-3.6 1.45 1.5 2.65 2.7.95.75 4.25 2.3-.6-2.1-1.25-3.9-.3-.7-.9-1.9.45.6 1.35 1.5 1.65 1.6 2.7 2.25h.4q-.45-1.2-.45-1.35-.3-.7-.3-1.2v-1q.55 1.75 4.25 4.55 3.1 2.4 7.2 4.6-.4-.15-4.9-1.25-3.25-.75-5.55-2.05 1.3.95 5.35 4.65 4.1.95 8.55.95 6.25 0 9.7-1.2.75-.2 1.4-.5-.8-.25-1.65-.6-3.05-1.25-5.7-3.6-1.4-4.1-2.55-8.05-1.2-3.9-6.5-11.05-5.5-7.1-9.6-7.1-4.05 0-9.15 1.4-3.6.95-5.05 1.55-1.6-.9-3.65-2.2m-3.4 5.15q-2.6 0-4.3 1.4-1.35 1.3-2.45 1.95.55-1 1.6-2.6 1.35-2.1 2.25-3h-.35q-.5.4-1.05.5l-.85.3q-1.15.6-3.4 3.1 1.05-2.1 2.75-3.85 2.1-2.05 3.7-2.05.95 0 3.5 1.35 1.45.75 4.45 2.6.1.1.25.2.35.2.55.45.5.5 1.55 1.95-3-1.15-4.3-1.55-2.1-.75-3.9-.75M89.5-.3q.45-.55 1.6-.8 1-.35 1.95-.15-.5-.55-.85-1.05-.4-.6-.4-.9h.65q1.4-.15 4.2-.35 2.55-.2 3.9-.3l.05.1q-1 .3-1.85.85-.9.65-1.1.65L99.7-.2q.65.7 3.45 3.8-1.25 0-3.45-1.25Q97.55.95 97.05.7q0 1.3.45 3.1.3 1.1 1.1 4.1l-.1.2q-.75-.7-2.05-2.2-2.1-2.55-2.4-2.85-3-3.45-4.55-3.35z"/><path fill="#FFEAD5" d="M54.75 46.45q-.45.55-1.2 1.45-.85 1.1-1.6 1.8.45 1.35 1.3 2.5 1.05 1.6 2.65 2.5-.55-3.25-1.15-4.95v-3.3M52.2 41.8q-.45.2-.9.25v.5q-.05.75-.05 1.75h.2q.5-.65 1.8-2.15.45-.4.8-.85-.7.15-1.85.5m68.4 4.95q-.7-.35-1.75-1.75-.65 2.55-1.35 5.2-.45 2.4-.55 5.5 1.85-.9 3.2-2.75 1.6-2.3 1.95-5.55-.95-.2-1.5-.65M81.15 16.9q-.1-.05-.15-.2l-.2-.15q-2.65 3-6.25 7.25-2.35 2.85-4.35 5.1h.55q3.35-.5 7.95 6.1 4.65 6.65 4.85 9.85.25 3.15.25 7.05-.55-3.2-3.7-6.15Q78.3 44 76.4 43q-.25.85-1 1.55 0 .1-.15.2-1.1.95-2.55.95-1.6 0-2.75-1.15-.3-.35-.55-.7-.6-.9-.6-2v-.1q-3.1.4-5.2 2.1-2.5 2.05-3.8 6.3.9 2.5 2.3 5.95 4.4 10.65 5.95 12.65 1.55 1.95 8 7.95.15.2.4.4 6.15 5.5 8.85 5.4 2.8-.05 12.2-7.3 1.05-.85 1.95-1.6 7.55-6.15 9-9.65 1.35-3.35 3.15-7.8-.6-3.25-.6-7.2 0-.35.05-1.15-.5-1.15-1.15-1.85-2.2-2.3-3.35-3.15-1.2-.8-1.55-.9V42.8q-.05 1.05-.7 1.85-.2.35-.45.6-1.15 1.15-2.65 1.15-1.6 0-2.7-1.15-.6-.6-.9-1.35-.25-.65-.25-1.4V42q.05-.35.15-.65-2.7.2-4.05.8-2 1.1-4.25 5.05.7-2.4 1.25-4 .3-1.05.95-2.55 1.85-5.25 4.3-7.95.75-.75 1.5-1.3-2.7-2.2-7.45-6.35-6.15-5.4-8.6-8.15m6.05 24.55q.85 0 .85.9 0 1.05-.9 1.05-.6 0-.8-.45-.05-.15-.05-.6 0-.9.9-.9m-1.65 7.85l.05-.05q.05 0 .05.35 0 .15-.6.6-.2-.05-.35-.05-.05-.05-.05-.4 0-.45.25-.55.3-.05.65.1m21.35 1.75q-.15-.15-.3-.2 0-.05-.05-.2-.05-.2-.05-.5 0-.65.85-.7.85-.05.85.75 0 .35-.2.6-.25.3-.65.3-.3 0-.45-.05m-3-.15q-.1.35-.4.4-.3-.05-.45-.25 0-.15.1-.25.15-.2.35-.35.3.15.4.45m5.3 5.65q.1 0 .1.35 0 .6-1.15.85l-.6-.15q0-.05-.05-.3-.15-.2-.15-.3.3-.25.85-.35.5-.1.9-.1h.1m-8.7-7.05q0 .95-1 .95-.55 0-.8-.45l-.15-.5q0-.8.95-.8 1 .05 1 .8m-2.6 5.05q0-.4.3-.4.1-.05.55-.05.4.15.45.45-.05.2-.15.25-.1.2-.5.2l-.45-.2q-.05.1-.1.1-.1 0-.1-.35m-5.9-2.8q-.1-.2-.1-.5 0-.9 1.1-.8 1.1.1 1.1.85 0 .9-1.1.9-.75 0-1-.45m-5.25.7q0-.55.4-.7.45.3.45 1.1l-.2.05q-.05.15-.25.15l-.25-.15q-.15-.15-.15-.45m-4.3 6.05q-.15-.3-.15-.35 0-.45.15-.9l.1-.1q-.15.6-.1 1.35.35.55 1.1 1.5 1.4 1.6 1.65 1.6.4 0 2.3-1.35 1.7-1.05 2.3-1.65 0 .1.15.35.2.2.2.7-.65 1.3-1.7 2.55-1.85 2.65-3.25 2.65-1 0-2-3.1-.65-1.85-.75-3.25m-.35 14.85q1.1-.35 2.6-.35 1.6 0 2.7.35 1.05.35 1.05.8 0 .45-1.05.85-1.1.3-2.7.3-1.5 0-2.6-.3-1.1-.4-1.1-.85 0-.45 1.1-.8M65.05 49.2q.2-.05.25-.05.4.15.4.45-.1.35-.4.35H65q-.15 0-.15-.35t.2-.4m9.7-1.3q0-.9.95-1 .95-.2.95.85 0 .3-.1.6-.35.6-.95.6-.35 0-.45-.05-.15-.15-.25-.2l-.1-.2q-.05-.25-.05-.6m-.7 4.1q-.4.3-.6.4-.15-.1-.3-.15-.1 0-.1-.35 0-.55.5-.65H74.25q.05 0 .05.3 0 .05-.25.45m-4.9-.1q-.15-.1-.35-.2-.05-.25-.05-.8 0-1.15.9-1.15.8 0 .8 1.15 0 .35-.1.65-.25.4-.7.4-.4 0-.5-.05m-1.7 3.1q.35.05.4.4 0 .1-.25.25-.25.2-.4.2-.25-.15-.35-.35.3-.5.6-.5m-4.5-2.05q0-.9 1-.75.9.05.9.75 0 .9-.9.9-.7 0-.95-.4-.05-.15-.05-.5M74.1 66.2q11.3 3.8 23.9 0-12.6 3.8-23.9 0m47.95-23.85q-.1-1.45-.25-2.75-.65-.15-1.35-.5-.45 1.35-.55 2.05.1.15.25.2.9.8 1.95 1.65 0-.3-.05-.65z"/><path fill="#FEC792" d="M54.15 45.3q-1.5 1-2.75 1.7.1 1.5.55 2.7.75-.7 1.6-1.8.75-.9 1.2-1.45v-1.7q-.3.3-.6.55m2.3-6.95q.15-.25.35-.6-1.15.4-2.55.9-1.45.45-2.75.85v.25q-.1.75-.2 2.3.45-.05.9-.25 1.15-.35 1.85-.5 1.05-1.25 2.4-2.95M83.8 51.9q0-3.9-.25-7.05-.2-3.2-4.85-9.85-4.6-6.6-7.95-6.1h-.55q-3.95 4.7-6 6.95-1.7 1.8-3.25 3.4-.65 1.95-1.15 5.8-.25 1.95-.45 4.1.2.5.45 1 1.3-4.25 3.8-6.3 2.1-1.7 5.2-2.1.1-1.55 1.15-2.65 1.15-1.15 2.75-1.15t2.7 1.15q1.15 1.15 1.15 2.75 0 .6-.15 1.15 1.9 1 3.7 2.75 3.15 2.95 3.7 6.15m13.4-20.5q-.75.55-1.5 1.3-2.45 2.7-4.3 7.95-.65 1.5-.95 2.55-.55 1.6-1.25 4 2.25-3.95 4.25-5.05 1.35-.6 4.05-.8.3-.9 1-1.55 1.1-1.15 2.7-1.15 1.5 0 2.65 1.15.95.9 1.15 2.1.35.1 1.55.9 1.15.85 3.35 3.15.65.7 1.15 1.85.1-.9.15-2.35.15-1.15.2-2.25.1-1.65.25-2.95l.15-.2q-.4-.1-.45-.2-4.5-1.5-12.75-7.4l-1.4-1.05M84.7 73q-1.5 0-2.6.35t-1.1.8q0 .45 1.1.85 1.1.3 2.6.3 1.6 0 2.7-.3 1.05-.4 1.05-.85 0-.45-1.05-.8-1.1-.35-2.7-.35m.5-11.4q-.25 0-1.65-1.6-.75-.95-1.1-1.5.1 1.4.75 3.25 1 3.1 2 3.1 1.4 0 3.25-2.65 1.05-1.25 1.7-2.55 0-.5-.2-.7-.15-.25-.15-.35-.6.6-2.3 1.65-1.9 1.35-2.3 1.35m36.9-15.7v-2.5l-.3-.15-2.3-.9q-.3 1.3-.65 2.65 1.05 1.4 1.75 1.75.55.45 1.5.65v-1.5z"/><path fill="#C60" d="M57.05 14.8q-.25-.6-.35-1.35-1 2.6-1.55 4.95 1.9-1 3.75-2.1-1.2-.3-1.85-1.5z"/><path fill="#FFF" d="M69.25 14.8q-.8.7-2.05 1.9h-1.6v-.25l.45-.6q.35-.55.9-1.5.85-1.3 1.3-2.2-2.05 1.85-5.3 4.1-.25.2-.6.45-1.7 1.2-3.2 2.1-2.1 1.4-2.35 1.5l-.3.15q-1.4.65-2.35.85h4.2q2.25-.05 3.95-.3v.3q-2 2.05-5.55 4.55v.1q3.75-1.9 5.15-2.55 3.7-1.7 5.3-2.1-.9 2.3-1.7 3.75-.9 1.75-2.1 2.95l.05.05q1.6-1.5 5.15-5.05 4.55-4.65 5.55-6.3-.95.85-1.75 1.35-1.95 1-4.15.95.7-1.1 2.4-3.95.45-.7.8-1.2l-.3-.15q-.95.65-1.9 1.1M102.6 23q1.15.4 2.35.65-4.05-3.7-5.35-4.65 2.3 1.3 5.55 2.05 4.5 1.1 4.9 1.25-4.1-2.2-7.2-4.6-3.7-2.8-4.25-4.55v1q0 .5.3 1.2 0 .15.45 1.35h-.4q-1.05-.65-2.7-2.25-.9-.9-1.35-1.5.6 1.2.9 1.9.65 1.8 1.25 3.9-3.3-1.55-4.25-2.3-1.2-1.2-2.65-2.7.35.5 2.45 3.6.85 1.05 1.6 2.1 1.05 1.4 2 2.5 5.15 6.1 11.8 9.95l.05-.05q-1.7-1.5-3.15-4.15-2.4-4.35-2.4-4.4l.1-.3M91.1-1.1q-1.15.25-1.6.8 1.55-.1 4.55 3.35.3.3 2.4 2.85 1.3 1.5 2.05 2.2l.1-.2q-.8-3-1.1-4.1-.45-1.8-.45-3.1.5.25 2.65 1.65 2.2 1.25 3.45 1.25-2.8-3.1-3.45-3.8l-2.05-2.05q.2 0 1.1-.65.85-.55 1.85-.85l-.05-.1q-1.35.1-3.9.3-2.8.2-4.2.35h-.65q0 .3.4.9.35.5.85 1.05-.95-.2-1.95.15m-18.05.9q1.7-1.4 4.3-1.4 1.8 0 3.9.75 1.3.4 4.3 1.55Q84.5-.75 84-1.25q-.2-.25-.55-.45-.15-.1-.25-.2-3-1.85-4.45-2.6-2.55-1.35-3.5-1.35-1.6 0-3.7 2.05-1.7 1.75-2.75 3.85 2.25-2.5 3.4-3.1l.85-.3q.55-.1 1.05-.5h.35q-.9.9-2.25 3-1.05 1.6-1.6 2.6 1.1-.65 2.45-1.95z"/><path fill="#FCC" d="M63.95 52.2q-1-.15-1 .75 0 .35.05.5.25.4.95.4.9 0 .9-.9 0-.7-.9-.75m4.85-.5q.2.1.35.2.1.05.5.05.45 0 .7-.4.1-.3.1-.65 0-1.15-.8-1.15-.9 0-.9 1.15 0 .55.05.8m6.9-4.8q-.95.1-.95 1 0 .35.05.6l.1.2q.1.05.25.2.1.05.45.05.6 0 .95-.6.1-.3.1-.6 0-1.05-.95-.85m16.2 4.35q0 .3.1.5.25.45 1 .45 1.1 0 1.1-.9 0-.75-1.1-.85-1.1-.1-1.1.8m7.6-.8q1 0 1-.95 0-.75-1-.8-.95 0-.95.8l.15.5q.25.45.8.45m7.1.4q.15.05.3.2.15.05.45.05.4 0 .65-.3.2-.25.2-.6 0-.8-.85-.75-.85.05-.85.7 0 .3.05.5.05.15.05.2m-18.55-8.5q0-.9-.85-.9-.9 0-.9.9 0 .45.05.6.2.45.8.45.9 0 .9-1.05z"/><path fill="#FED8B4" d="M67.85 55.4q-.05-.35-.4-.4-.3 0-.6.5.1.2.35.35.15 0 .4-.2.25-.15.25-.25m5.6-3q.2-.1.6-.4.25-.4.25-.45 0-.3-.05-.3H73.55q-.5.1-.5.65 0 .35.1.35.15.05.3.15m-8.15-3.25q-.05 0-.25.05t-.2.4q0 .35.15.35h.3q.3 0 .4-.35 0-.3-.4-.45m21.85 2.6q-.4.15-.4.7 0 .3.15.45l.25.15q.2 0 .25-.15l.2-.05q0-.8-.45-1.1m11.05 2.4q-.3 0-.3.4 0 .35.1.35.05 0 .1-.1l.45.2q.4 0 .5-.2.1-.05.15-.25-.05-.3-.45-.45-.45 0-.55.05m11.1 2.75q0-.35-.1-.35h-.1q-.4 0-.9.1-.55.1-.85.35 0 .1.15.3.05.25.05.3l.6.15q1.15-.25 1.15-.85m-5.8-5.6q.3-.05.4-.4-.1-.3-.4-.45-.2.15-.35.35-.1.1-.1.25.15.2.45.25m-17.9-2.05l-.05.05q-.35-.15-.65-.1-.25.1-.25.55 0 .35.05.4.15 0 .35.05.6-.45.6-.6 0-.35-.05-.35z"/></g><path fill="#FFF" d="M71.15 33.4q-5.05 0-8.6 3.55-3.6 3.6-3.6 8.65 0 5.05 3.6 8.6 3.55 3.6 8.6 3.6t8.65-3.6q3.55-3.55 3.55-8.6t-3.55-8.65q-3.6-3.55-8.65-3.55z" id="f"/><path fill="#FFF" d="M92.3 36.95q-3.6 3.6-3.6 8.65 0 5.05 3.6 8.6 3.55 3.6 8.6 3.6t8.65-3.6q3.55-3.55 3.55-8.6t-3.55-8.65q-3.6-3.55-8.65-3.55-5.05 0-8.6 3.55z" id="h"/><path fill="#FFF" d="M71.15 33.4q-5.05 0-8.6 3.55-3.6 3.6-3.6 8.65 0 5.05 3.6 8.6 3.55 3.6 8.6 3.6t8.65-3.6q3.55-3.55 3.55-8.6t-3.55-8.65q-3.6-3.55-8.65-3.55z" id="j"/><g id="l"><path fill="#9F0" d="M.05 2Q0 2.264 0 2.55q0 1.05.75 1.8t1.8.75q1.05 0 1.8-.75t.75-1.8q0-.286-.05-.55-2.788 2.784-5 0z"/><path fill="#9C0" d="M5.05 2q-.154-.704-.7-1.25Q3.623.023 2.6 0h-.15Q1.477.023.75.75.204 1.296.05 2q2.212 2.784 5 0M3.6 1.55q0 .4-.3.7-.3.3-.7.3-.4 0-.7-.3-.3-.3-.3-.7 0-.4.3-.7.3-.3.7-.3.4 0 .7.3.3.3.3.7z"/><path fill="#FFF" d="M3.3 2.25q.3-.3.3-.7 0-.4-.3-.7-.3-.3-.7-.3-.4 0-.7.3-.3.3-.3.7 0 .4.3.7.3.3.7.3.4 0 .7-.3z"/></g><path id="d" stroke="#F66" stroke-linejoin="round" stroke-linecap="round" fill="none" d="M74.1 66.2q11.3 3.8 23.9 0"/><path id="e" stroke="#CCC" stroke-width="2" stroke-linejoin="round" stroke-linecap="round" fill="none" d="M82.15 46.2q4.35-5 8.6 0"/><path id="g" stroke="#CCC" stroke-linejoin="round" stroke-linecap="round" fill="none" d="M79.8 54.2q-3.6 3.6-8.65 3.6-5.05 0-8.6-3.6-3.6-3.55-3.6-8.6t3.6-8.65q3.55-3.55 8.6-3.55t8.65 3.55q3.55 3.6 3.55 8.65 0 5.05-3.55 8.6z"/><path id="i" stroke="#CCC" stroke-width="2" stroke-linejoin="round" stroke-linecap="round" fill="none" d="M92.3 54.2q-3.6-3.55-3.6-8.6t3.6-8.65q3.55-3.55 8.6-3.55t8.65 3.55q3.55 3.6 3.55 8.65 0 5.05-3.55 8.6-3.6 3.6-8.65 3.6-5.05 0-8.6-3.6z"/><path id="k" stroke="#CCC" stroke-width="2" stroke-linejoin="round" stroke-linecap="round" fill="none" d="M58.95 45.6q0-5.05 3.6-8.65 3.55-3.55 8.6-3.55t8.65 3.55q3.55 3.6 3.55 8.65 0 5.05-3.55 8.6-3.6 3.6-8.65 3.6-5.05 0-8.6-3.6-3.6-3.55-3.6-8.6z"/><path id="m" stroke="#9F0" stroke-linejoin="round" stroke-linecap="round" fill="none" d="M2.625 0q.998.023 1.725.75.546.546.7 1.25.05.264.05.55 0 1.05-.75 1.8t-1.8.75q-1.05 0-1.8-.75T0 2.55Q0 2.264.05 2q.154-.704.7-1.25Q1.477.023 2.475 0M.05 2q2.212 2.784 5 0"/></defs><use xlink:href="#a" transform="translate(-32.15 8.75)"/><use xlink:href="#b" transform="translate(-32.15 8.75)"/><g transform="translate(-32.15 8.75)"><use xlink:href="#c"/><use xlink:href="#d"/></g><use xlink:href="#e" transform="translate(-32.15 8.75)"/><g transform="translate(-32.15 8.75)"><use xlink:href="#f"/><use xlink:href="#g"/></g><g transform="translate(-32.15 8.75)"><use xlink:href="#h"/><use xlink:href="#i"/></g><g transform="translate(-32.15 8.75)"><use xlink:href="#j"/><use xlink:href="#k"/></g><g transform="matrix(1.2768 0 0 1.2768 63.6 50.8)"><use xlink:href="#l"/><use xlink:href="#m"/></g><g transform="matrix(1.2768 0 0 1.2768 37.75 50.85)"><use xlink:href="#l"/><use xlink:href="#m"/></g></svg>