
<svg xmlns="http://www.w3.org/2000/svg" version="1.1" xmlns:xlink="http://www.w3.org/1999/xlink" preserveAspectRatio="none" x="0px" y="0px" width="111px" height="164px" viewBox="0 0 111 164">
<defs>
<g id="gr_foto1_0_Layer0_0_MEMBER_0_FILL">
<path fill="#999999" stroke="none" d="
M 76.85 94.35
L 76.85 153.85
Q 86.5 154.5 98.35 154.7
L 99.75 91.15
Q 89.8 103.5 76.85 94.35 Z"/>

<path fill="#CCCCCC" stroke="none" d="
M 133.95 141.85
Q 128.1 141.85 123.1 129.8
L 124.3 149.7
Q 124.75 149.75 125.75 151.7 132.7 149.45 140.55 145.55 137.7 141.85 133.95 141.85
M 53.95 135.35
L 55.8 120.9
Q 46.55 141.55 39.05 142.8 37.55 143.05 36.05 143.15 37.55 145.3 40.55 146.95 45.05 149.45 53.55 151.1
L 53.95 135.35
M 76.85 85.4
Q 74.8 86.05 72.85 86.75
L 58.15 111.35 67.85 127.5 58.7 144.75 62.95 152.6
Q 64.2 152.75 65.55 152.9
L 62 144.75 71.1 127.5 61.4 111.35 76.85 85.4
M 105.95 87.65
Q 102.9 86.8 99.75 86.25
L 112.65 110.75 105.15 123.7 113.2 144.2 108.45 154.75 108.5 154.75
Q 110.35 154.75 112.3 154.6
L 118.6 144.2 110.55 123.7 118.1 110.75 105.95 87.65 Z"/>

<path fill="#F2F2F2" stroke="none" d="
M 123.1 129.8
Q 128.1 141.85 133.95 141.85 137.7 141.85 140.55 145.55 141.6 145.05 142.6 144.45 142.75 144.4 142.85 144.35
L 134.55 101.65
Q 120.9 91.7 105.95 87.65
L 118.1 110.75 110.55 123.7 118.6 144.2 112.3 154.6
Q 117.85 154.1 124.15 152.2 124.2 150.9 124.3 149.7
L 123.1 129.8
M 67.85 127.5
L 58.15 111.35 72.85 86.75
Q 53.85 93.35 41.4 103.55
L 32.15 134.9
Q 32.85 135.55 33.65 136.3 33.7 136.35 34.9 140.75 35.3 142 36.05 143.15 37.55 143.05 39.05 142.8 46.55 141.55 55.8 120.9
L 53.95 135.35 53.55 151.1
Q 57.75 151.95 62.95 152.6
L 58.7 144.75 67.85 127.5
M 76.85 94.35
L 76.85 85.4 61.4 111.35 71.1 127.5 62 144.75 65.55 152.9
Q 70.75 153.45 76.85 153.85
L 76.85 94.35
M 99.75 86.25
L 99.75 91.15 98.35 154.7
Q 103.2 154.75 108.45 154.75
L 113.2 144.2 105.15 123.7 112.65 110.75 99.75 86.25 Z"/>
</g>

<g id="gr_foto1_0_Layer0_0_MEMBER_0_MEMBER_0_FILL">
<path fill="#FEC792" stroke="none" d="
M 85.85 86.4
Q 87.35 86.4 93.6 83.65 96.9 82.2 99.75 80.75
L 99.75 72.7
Q 85.3 56.9 77.05 75.35 76.9 75.55 76.85 75.75
L 76.85 82.4
Q 77.35 82.75 78 83.2 83 86.4 85.85 86.4 Z"/>

<path fill="#FFEAD5" stroke="none" d="
M 93.6 83.65
Q 87.35 86.4 85.85 86.4 83 86.4 78 83.2 77.35 82.75 76.85 82.4
L 76.85 94.4
Q 89.8 103.5 99.75 91.2
L 99.75 80.75
Q 96.9 82.2 93.6 83.65 Z"/>
</g>

<g id="gr_foto1_0_Layer0_0_MEMBER_0_MEMBER_0_MEMBER_0_FILL">
<path fill="#CA5202" stroke="none" d="
M 34.1 39.45
L 34.1 39.3
Q 33.75 39.3 33.5 39.3 33.85 39.35 34.1 39.45
M 67.2 16.7
Q 68.45 15.5 69.25 14.8 68.1 15.35 66.95 15.6 66.5 15.75 66.05 15.85 65.75 16.25 65.6 16.45
L 65.6 16.7 67.2 16.7
M 124.6 22.9
Q 123.95 23.2 123.2 23.4 119.75 24.6 113.5 24.6 109.05 24.6 104.95 23.65 103.75 23.4 102.6 23
L 102.5 23.3
Q 102.5 23.35 104.9 27.7 106.35 30.35 108.05 31.85
L 108 31.9
Q 101.35 28.05 96.2 21.95 95.25 20.85 94.2 19.45 93.05 18.8 91.9 18.05 88.15 15.55 85.3 12.55 82.85 9.95 81.95 7.9 78.2 9.25 75.3 10.95 73.1 12.4 71.8 13.25 71.5 13.5 71.15 13.7
L 71.45 13.85
Q 71.1 14.35 70.65 15.05 68.95 17.9 68.25 19 70.45 19.05 72.4 18.05 73.2 17.55 74.15 16.7 73.15 18.35 68.6 23 65.05 26.55 63.45 28.05
L 63.4 28
Q 64.6 26.8 65.5 25.05 66.3 23.6 67.2 21.3 65.6 21.7 61.9 23.4 60.5 24.05 56.75 25.95
L 56.75 25.85
Q 60.3 23.35 62.3 21.3
L 62.3 21
Q 60.6 21.25 58.35 21.3 57 21.3 54.15 21.3 55.1 21.1 56.5 20.45 56.6 20.4 56.8 20.3 57.05 20.2 59.15 18.8 60.65 17.9 62.35 16.7 62.7 16.45 62.95 16.25 61.45 16.45 59.85 16.45 59.35 16.45 58.9 16.3 57.05 17.4 55.15 18.4 54.7 18.6 54.2 18.85 54.15 19 53.95 19 52.85 20.6 51.15 22.15 48.85 24.25 46.2 25.5 43.45 26.9 41.35 26.9 38.6 26.9 35.95 25.55
L 35.95 25.3
Q 35.6 25.3 35.35 25.3 34.9 25.3 34.55 25.25 35.55 26.35 37.7 27.45 39.95 28.45 45.25 28.9
L 53.15 28.9
Q 52.8 29.4 51.4 30.35 47.15 34.85 43.2 36.85 39 39.15 34.1 39.45 35.55 39.55 36.9 39.6 37.85 39.6 40.1 39.6 51.7 35.2 59.8 28.25 54.85 33.6 52.15 35.45 47.75 38.55 40.3 39.95 42.05 42.1 50.85 39.7 51.15 39.6 51.5 39.5 52.8 39.1 54.25 38.65 55.65 38.15 56.8 37.75 56.6 38.1 56.45 38.35 55.1 40.05 54.05 41.3 53.7 41.75 53.25 42.15 51.95 43.65 51.45 44.3 51.4 44.4 51.2 44.55 50.6 45.15 48.95 46.6
L 48.9 46.6
Q 47.3 48.7 45 48.8 46.9 48.9 49.15 48.05 50.15 47.65 51.4 47 52.65 46.3 54.15 45.3 54.45 45.05 54.75 44.75
L 54.75 46.45 54.75 49.75
Q 55.35 51.45 55.9 54.7 56 55.15 56.05 55.65 56.25 57 56.45 58.05 56.25 59.35 55.65 61.05 54.5 64.7 52.3 68.75 50 72.9 47.55 75.75 44.95 78.8 43 79.2
L 44 79.2
Q 44.1 79.2 44.3 79.2 45.5 78.7 49.4 76.25 53.5 73.7 54.15 73
L 54.45 73
Q 55.1 75.95 50.8 81.9 46.55 87.9 42.05 88.7
L 45.65 88.7
Q 50.35 88.6 58 84.25 65.7 79.85 65.9 78.55
L 66.25 78.25
Q 66.15 78.35 66.05 78.6
L 66.05 78.7
Q 65.25 80.05 63.15 82.7 61 85.45 58.1 87.1 64.4 87.45 70.6 82.75 73.05 81.05 74.95 79 75.9 77.85 76.45 77.1 76.2 76.9 76.05 76.7 69.6 70.7 68.05 68.75 66.5 66.75 62.1 56.1 60.7 52.65 59.8 50.15 59.55 49.65 59.35 49.15 59.05 52.85 59.05 56.45 59.05 59.6 60.4 65.65 61.6 70.95 62.95 75 61.45 73.75 60.4 71.85 59.55 69 58.75 65.65 57.45 59.6 57.45 56.45 57.45 52.85 57.7 49.15 57.9 47 58.15 45.05 58.45 42.85 58.8 41.35 59.8 40.3 60.95 39.25 62.5 37.65 64.2 35.85 66.25 33.6 70.2 28.9 72.2 26.65 74.55 23.8 78.15 19.55 80.8 16.55
L 81 16.7
Q 81.05 16.85 81.15 16.9 83.6 19.65 89.75 25.05 94.5 29.2 97.2 31.4 98 32 98.6 32.45 106.85 38.35 111.35 39.85 111.4 39.95 111.8 40.05
L 111.65 40.25
Q 111.5 41.55 111.4 43.2 111.9 42.75 112.65 42.55 113.55 45.3 113.7 48.9 113.7 50.4 113.45 55.45 113.2 59.65 113.45 62.15
L 113.25 62.2
Q 113.3 62.4 113.35 62.6 112.85 61.3 112.55 60.3 111.9 58.4 111.6 56.15 109.8 60.6 108.45 63.95 107 67.45 99.45 73.6 104.5 76.9 106.85 79.45 109.05 81.9 110 84.5
L 110.1 84.5
Q 109.5 80.05 109.4 79.6 112.2 80.65 117 82.95 120.45 84.45 123.45 84.7 123.7 84.3 126.2 84.3 127.6 84.35 129.65 84.5
L 129.7 84.2
Q 124.85 83.4 120.5 80.5 116.1 77.35 113.65 72.7
L 113.65 70.75 113.95 70.75
Q 114.4 71.05 116.1 72.5 118.05 74.2 119.3 75.2 123.6 78.35 126.1 78 120.85 76.6 117.2 70.75 117.15 70.75 117.15 70.7 117.05 70.65 117.05 70.6 116.45 69.6 115.95 68.6 114.5 66 113.55 63.25 113.5 63.1 113.5 63.05 113.5 62.8560546875 113.45 62.8 113.5015625 62.8546875 113.55 63 114.9 66.1 117.25 70.4
L 117.6 70.4
Q 117.35 67.05 117.15 62.2 116.9 57.95 116.9 57.1 116.9 56.4 116.95 55.7 117.05 52.6 117.5 50.2 118.2 47.55 118.85 45 119.2 43.65 119.5 42.35 120.65 42.8 121.8 43.25
L 122.1 43.2
Q 122.1 43.15 122.1 43 121.05 42.15 120.15 41.35 120 41.3 119.9 41.15
L 119.9 41.3
Q 119.05 40.85 118.15 40.3 110.05 35.85 110.05 32.8 110.05 32.3 110.2 32.15 110.3 32.1 110.35 32.1
L 112.05 32.1
Q 112.15 32.35 113 33.45 114.35 35.85 117 38.6 118.1 39.6 119.9 41.15 120 40.45 120.45 39.1 121.15 39.45 121.8 39.6 126.4 41.4 130.65 40.95
L 135.2 40.95 135.25 40.75
Q 135.4 40.65 135.6 40.65 133.65 39.85 129.95 37.85 126.5 37.15 123.5 36.25 112.65 33.1 112.65 28.7 112.65 28.2 113 27.85 113.35 27.55 114.15 27.55 114.65 27.55 115.95 28.2 116.65 28.5 117.2 28.7 116.35 28.85 115.6 28.9 117.2 30.1 121.95 33.05 122.5 29.9 122.5 29.15 122.5 28.45 122.1 27.5 122.75 27.25 123.45 27 128.25 25.3 131.7 23.15 128.25 24.05 124.6 22.9 Z"/>

<path fill="#F46302" stroke="none" d="
M 51.4 30.35
Q 49.3 31.95 44.6 34.6 37.15 39 34.1 39.3
L 34.1 39.45
Q 39 39.15 43.2 36.85 47.15 34.85 51.4 30.35
M 59.35 49.15
Q 59.55 47 59.8 45.05 60.3 41.2 60.95 39.25 59.8 40.3 58.8 41.35 58.45 42.85 58.15 45.05 57.9 47 57.7 49.15 57.45 52.85 57.45 56.45 57.45 59.6 58.75 65.65 59.55 69 60.4 71.85 61.45 73.75 62.95 75 61.6 70.95 60.4 65.65 59.05 59.6 59.05 56.45 59.05 52.85 59.35 49.15
M 52.15 35.45
Q 54.85 33.6 59.8 28.25 51.7 35.2 40.1 39.6 40.15 39.8 40.3 39.95 47.75 38.55 52.15 35.45
M 51.15 22.15
Q 52.85 20.6 53.95 19 53.3 19.4 52.65 19.65 41.75 25.15 35.95 25.3
L 35.95 25.55
Q 38.6 26.9 41.35 26.9 43.45 26.9 46.2 25.5 48.85 24.25 51.15 22.15
M 111.05 47.8
Q 111 48.6 111 48.95 111 52.9 111.6 56.15 111.9 58.4 112.55 60.3
L 112.75 60.25
Q 113 61.25 113.25 62.2
L 113.45 62.15
Q 113.2 59.65 113.45 55.45 113.7 50.4 113.7 48.9 113.55 45.3 112.65 42.55 111.9 42.75 111.4 43.2 111.35 44.3 111.2 45.45 111.15 46.9 111.05 47.8
M 113 33.45
Q 112.15 32.35 112.05 32.1
L 110.35 32.1
Q 110.3 32.1 110.2 32.15 110.05 32.3 110.05 32.8 110.05 35.85 118.15 40.3 119.05 40.85 119.9 41.3
L 119.9 41.15
Q 118.1 39.6 117 38.6 114.35 35.85 113 33.45
M 124.85 34.85
Q 123.25 33.85 121.95 33.05 117.2 30.1 115.6 28.9 116.35 28.85 117.2 28.7 116.65 28.5 115.95 28.2 114.65 27.55 114.15 27.55 113.35 27.55 113 27.85 112.65 28.2 112.65 28.7 112.65 33.1 123.5 36.25 126.5 37.15 129.95 37.85 127.8 36.55 124.85 34.85
M 80.75 -6.75
Q 77.55 -8.75 75.4 -8.75 71.75 -8.75 67.9 -5.25 64.6 -2.25 61.45 3.1 58.75 7.85 56.75 13.25 56.7 13.3 56.7 13.45 56.8 14.2 57.05 14.8 57.7 16 58.9 16.3 59.35 16.45 59.85 16.45 61.45 16.45 62.95 16.25 66.2 14 68.25 12.15 67.8 13.05 66.95 14.35 66.4 15.3 66.05 15.85 66.5 15.75 66.95 15.6 68.1 15.35 69.25 14.8 70.2 14.35 71.15 13.7 71.5 13.5 71.8 13.25 73.1 12.4 75.3 10.95 78.2 9.25 81.95 7.9 82.85 9.95 85.3 12.55 88.15 15.55 91.9 18.05 93.05 18.8 94.2 19.45 93.45 18.4 92.6 17.35 90.5 14.25 90.15 13.75 91.6 15.25 92.8 16.45 93.75 17.2 97.05 18.75 96.45 16.65 95.8 14.85 95.5 14.15 94.9 12.95 95.35 13.55 96.25 14.45 97.9 16.05 98.95 16.7
L 99.35 16.7
Q 98.9 15.5 98.9 15.35 98.6 14.65 98.6 14.15
L 98.6 13.15
Q 99.15 14.9 102.85 17.7 105.95 20.1 110.05 22.3 109.65 22.15 105.15 21.05 101.9 20.3 99.6 19 100.9 19.95 104.95 23.65 109.05 24.6 113.5 24.6 119.75 24.6 123.2 23.4 123.95 23.2 124.6 22.9 123.8 22.65 122.95 22.3 119.9 21.05 117.25 18.7 115.85 14.6 114.7 10.65 113.5 6.75 108.2 -0.4 102.7 -7.5 98.6 -7.5 94.55 -7.5 89.45 -6.1 85.85 -5.15 84.4 -4.55 82.8 -5.45 80.75 -6.75
M 77.35 -1.6
Q 74.75 -1.6 73.05 -0.2 71.7 1.1 70.6 1.75 71.15 0.75 72.2 -0.85 73.55 -2.95 74.45 -3.85
L 74.1 -3.85
Q 73.6 -3.45 73.05 -3.35
L 72.2 -3.05
Q 71.05 -2.45 68.8 0.05 69.85 -2.05 71.55 -3.8 73.65 -5.85 75.25 -5.85 76.2 -5.85 78.75 -4.5 80.2 -3.75 83.2 -1.9 83.3 -1.8 83.45 -1.7 83.8 -1.5 84 -1.25 84.5 -0.75 85.55 0.7 82.55 -0.45 81.25 -0.85 79.15 -1.6 77.35 -1.6
M 89.5 -0.3
Q 89.95 -0.85 91.1 -1.1 92.1 -1.45 93.05 -1.25 92.55 -1.8 92.2 -2.3 91.8 -2.9 91.8 -3.2 92.1 -3.2 92.45 -3.2 93.85 -3.35 96.65 -3.55 99.2 -3.75 100.55 -3.85
L 100.6 -3.75
Q 99.6 -3.45 98.75 -2.9 97.85 -2.25 97.65 -2.25 97.85 -2.05 99.7 -0.2 100.35 0.5 103.15 3.6 101.9 3.6 99.7 2.35 97.55 0.95 97.05 0.7 97.05 2 97.5 3.8 97.8 4.9 98.6 7.9
L 98.5 8.1
Q 97.75 7.4 96.45 5.9 94.35 3.35 94.05 3.05 91.05 -0.4 89.5 -0.3 Z"/>

<path fill="#FFEAD5" stroke="none" d="
M 54.75 46.45
Q 54.3 47 53.55 47.9 52.7 49 51.95 49.7 52.4 51.05 53.25 52.2 54.3 53.8 55.9 54.7 55.35 51.45 54.75 49.75
L 54.75 46.45
M 52.2 41.8
Q 51.75 42 51.3 42.05 51.3 42.3 51.3 42.55 51.25 43.3 51.25 44.3
L 51.45 44.3
Q 51.95 43.65 53.25 42.15 53.7 41.75 54.05 41.3 53.35 41.45 52.2 41.8
M 120.6 46.75
Q 119.9 46.4 118.85 45 118.2 47.55 117.5 50.2 117.05 52.6 116.95 55.7 118.8 54.8 120.15 52.95 121.75 50.65 122.1 47.4 121.15 47.2 120.6 46.75
M 81.15 16.9
Q 81.05 16.85 81 16.7
L 80.8 16.55
Q 78.15 19.55 74.55 23.8 72.2 26.65 70.2 28.9 70.45 28.9 70.75 28.9 74.1 28.4 78.7 35 83.35 41.65 83.55 44.85 83.8 48 83.8 51.9 83.25 48.7 80.1 45.75 78.3 44 76.4 43 76.15 43.85 75.4 44.55 75.4 44.65 75.25 44.75 74.15 45.7 72.7 45.7 71.1 45.7 69.95 44.55 69.65 44.2 69.4 43.85 68.8 42.95 68.8 41.85
L 68.8 41.75
Q 65.7 42.15 63.6 43.85 61.1 45.9 59.8 50.15 60.7 52.65 62.1 56.1 66.5 66.75 68.05 68.75 69.6 70.7 76.05 76.7 76.2 76.9 76.45 77.1 82.6 82.6 85.3 82.5 88.1 82.45 97.5 75.2 98.55 74.35 99.45 73.6 107 67.45 108.45 63.95 109.8 60.6 111.6 56.15 111 52.9 111 48.95 111 48.6 111.05 47.8 110.55 46.65 109.9 45.95 107.7 43.65 106.55 42.8 105.35 42 105 41.9 105 42.15 105 42.5 105 42.6 105 42.8 104.95 43.85 104.3 44.65 104.1 45 103.85 45.25 102.7 46.4 101.2 46.4 99.6 46.4 98.5 45.25 97.9 44.65 97.6 43.9 97.35 43.25 97.35 42.5 97.35 42.25 97.35 42 97.4 41.65 97.5 41.35 94.8 41.55 93.45 42.15 91.45 43.25 89.2 47.2 89.9 44.8 90.45 43.2 90.75 42.15 91.4 40.65 93.25 35.4 95.7 32.7 96.45 31.95 97.2 31.4 94.5 29.2 89.75 25.05 83.6 19.65 81.15 16.9
M 87.2 41.45
Q 88.05 41.45 88.05 42.35 88.05 43.4 87.15 43.4 86.55 43.4 86.35 42.95 86.3 42.8 86.3 42.35 86.3 41.45 87.2 41.45
M 85.55 49.3
L 85.6 49.25
Q 85.65 49.25 85.65 49.6 85.65 49.75 85.05 50.2 84.85 50.15 84.7 50.15 84.65 50.1 84.65 49.75 84.65 49.3 84.9 49.2 85.2 49.15 85.55 49.3
M 106.9 51.05
Q 106.75 50.9 106.6 50.85 106.6 50.8 106.55 50.65 106.5 50.45 106.5 50.15 106.5 49.5 107.35 49.45 108.2 49.4 108.2 50.2 108.2 50.55 108 50.8 107.75 51.1 107.35 51.1 107.05 51.1 106.9 51.05
M 103.9 50.9
Q 103.8 51.25 103.5 51.3 103.2 51.25 103.05 51.05 103.05 50.9 103.15 50.8 103.3 50.6 103.5 50.45 103.8 50.6 103.9 50.9
M 109.2 56.55
Q 109.3 56.55 109.3 56.9 109.3 57.5 108.15 57.75
L 107.55 57.6
Q 107.55 57.55 107.5 57.3 107.35 57.1 107.35 57 107.65 56.75 108.2 56.65 108.7 56.55 109.1 56.55
L 109.2 56.55
M 100.5 49.5
Q 100.5 50.45 99.5 50.45 98.95 50.45 98.7 50
L 98.55 49.5
Q 98.55 48.7 99.5 48.7 100.5 48.75 100.5 49.5
M 97.9 54.55
Q 97.9 54.15 98.2 54.15 98.3 54.1 98.75 54.1 99.15 54.25 99.2 54.55 99.15 54.75 99.05 54.8 98.95 55 98.55 55
L 98.1 54.8
Q 98.05 54.9 98 54.9 97.9 54.9 97.9 54.55
M 92 51.75
Q 91.9 51.55 91.9 51.25 91.9 50.35 93 50.45 94.1 50.55 94.1 51.3 94.1 52.2 93 52.2 92.25 52.2 92 51.75
M 86.75 52.45
Q 86.75 51.9 87.15 51.75 87.6 52.05 87.6 52.85
L 87.4 52.9
Q 87.35 53.05 87.15 53.05
L 86.9 52.9
Q 86.75 52.75 86.75 52.45
M 82.45 58.5
Q 82.3 58.2 82.3 58.15 82.3 57.7 82.45 57.25
L 82.55 57.15
Q 82.4 57.75 82.45 58.5 82.8 59.05 83.55 60 84.95 61.6 85.2 61.6 85.6 61.6 87.5 60.25 89.2 59.2 89.8 58.6 89.8 58.7 89.95 58.95 90.15 59.15 90.15 59.65 89.5 60.95 88.45 62.2 86.6 64.85 85.2 64.85 84.2 64.85 83.2 61.75 82.55 59.9 82.45 58.5
M 82.1 73.35
Q 83.2 73 84.7 73 86.3 73 87.4 73.35 88.45 73.7 88.45 74.15 88.45 74.6 87.4 75 86.3 75.3 84.7 75.3 83.2 75.3 82.1 75 81 74.6 81 74.15 81 73.7 82.1 73.35
M 65.05 49.2
Q 65.25 49.15 65.3 49.15 65.7 49.3 65.7 49.6 65.6 49.95 65.3 49.95 65.05 49.95 65 49.95 64.85 49.95 64.85 49.6 64.85 49.25 65.05 49.2
M 74.75 47.9
Q 74.75 47 75.7 46.9 76.65 46.7 76.65 47.75 76.65 48.05 76.55 48.35 76.2 48.95 75.6 48.95 75.25 48.95 75.15 48.9 75 48.75 74.9 48.7
L 74.8 48.5
Q 74.75 48.25 74.75 47.9
M 74.05 52
Q 73.65 52.3 73.45 52.4 73.3 52.3 73.15 52.25 73.05 52.25 73.05 51.9 73.05 51.35 73.55 51.25 73.65 51.25 74.1 51.25
L 74.25 51.25
Q 74.3 51.25 74.3 51.55 74.3 51.6 74.05 52
M 69.15 51.9
Q 69 51.8 68.8 51.7 68.75 51.45 68.75 50.9 68.75 49.75 69.65 49.75 70.45 49.75 70.45 50.9 70.45 51.25 70.35 51.55 70.1 51.95 69.65 51.95 69.25 51.95 69.15 51.9
M 67.45 55
Q 67.8 55.05 67.85 55.4 67.85 55.5 67.6 55.65 67.35 55.85 67.2 55.85 66.95 55.7 66.85 55.5 67.15 55 67.45 55
M 62.95 52.95
Q 62.95 52.05 63.95 52.2 64.85 52.25 64.85 52.95 64.85 53.85 63.95 53.85 63.25 53.85 63 53.45 62.95 53.3 62.95 52.95
M 74.1 66.2
Q 85.4 70 98 66.2 85.4 70 74.1 66.2
M 122.05 42.35
Q 121.95 40.9 121.8 39.6 121.15 39.45 120.45 39.1 120 40.45 119.9 41.15 120 41.3 120.15 41.35 121.05 42.15 122.1 43 122.1 42.7 122.05 42.35 Z"/>

<path fill="#FEC792" stroke="none" d="
M 54.15 45.3
Q 52.65 46.3 51.4 47 51.5 48.5 51.95 49.7 52.7 49 53.55 47.9 54.3 47 54.75 46.45
L 54.75 44.75
Q 54.45 45.05 54.15 45.3
M 56.45 38.35
Q 56.6 38.1 56.8 37.75 55.65 38.15 54.25 38.65 52.8 39.1 51.5 39.5 51.5 39.6 51.5 39.75 51.4 40.5 51.3 42.05 51.75 42 52.2 41.8 53.35 41.45 54.05 41.3 55.1 40.05 56.45 38.35
M 83.8 51.9
Q 83.8 48 83.55 44.85 83.35 41.65 78.7 35 74.1 28.4 70.75 28.9 70.45 28.9 70.2 28.9 66.25 33.6 64.2 35.85 62.5 37.65 60.95 39.25 60.3 41.2 59.8 45.05 59.55 47 59.35 49.15 59.55 49.65 59.8 50.15 61.1 45.9 63.6 43.85 65.7 42.15 68.8 41.75 68.9 40.2 69.95 39.1 71.1 37.95 72.7 37.95 74.3 37.95 75.4 39.1 76.55 40.25 76.55 41.85 76.55 42.45 76.4 43 78.3 44 80.1 45.75 83.25 48.7 83.8 51.9
M 97.2 31.4
Q 96.45 31.95 95.7 32.7 93.25 35.4 91.4 40.65 90.75 42.15 90.45 43.2 89.9 44.8 89.2 47.2 91.45 43.25 93.45 42.15 94.8 41.55 97.5 41.35 97.8 40.45 98.5 39.8 99.6 38.65 101.2 38.65 102.7 38.65 103.85 39.8 104.8 40.7 105 41.9 105.35 42 106.55 42.8 107.7 43.65 109.9 45.95 110.55 46.65 111.05 47.8 111.15 46.9 111.2 45.45 111.35 44.3 111.4 43.2 111.5 41.55 111.65 40.25
L 111.8 40.05
Q 111.4 39.95 111.35 39.85 106.85 38.35 98.6 32.45 98 32 97.2 31.4
M 84.7 73
Q 83.2 73 82.1 73.35 81 73.7 81 74.15 81 74.6 82.1 75 83.2 75.3 84.7 75.3 86.3 75.3 87.4 75 88.45 74.6 88.45 74.15 88.45 73.7 87.4 73.35 86.3 73 84.7 73
M 85.2 61.6
Q 84.95 61.6 83.55 60 82.8 59.05 82.45 58.5 82.55 59.9 83.2 61.75 84.2 64.85 85.2 64.85 86.6 64.85 88.45 62.2 89.5 60.95 90.15 59.65 90.15 59.15 89.95 58.95 89.8 58.7 89.8 58.6 89.2 59.2 87.5 60.25 85.6 61.6 85.2 61.6
M 122.1 45.9
Q 122.1 44.55 122.1 43.4
L 121.8 43.25
Q 120.65 42.8 119.5 42.35 119.2 43.65 118.85 45 119.9 46.4 120.6 46.75 121.15 47.2 122.1 47.4 122.1 46.65 122.1 45.9 Z"/>

<path fill="#CC6600" stroke="none" d="
M 57.05 14.8
Q 56.8 14.2 56.7 13.45 55.7 16.05 55.15 18.4 57.05 17.4 58.9 16.3 57.7 16 57.05 14.8 Z"/>

<path fill="#FFFFFF" stroke="none" d="
M 69.25 14.8
Q 68.45 15.5 67.2 16.7
L 65.6 16.7 65.6 16.45
Q 65.75 16.25 66.05 15.85 66.4 15.3 66.95 14.35 67.8 13.05 68.25 12.15 66.2 14 62.95 16.25 62.7 16.45 62.35 16.7 60.65 17.9 59.15 18.8 57.05 20.2 56.8 20.3 56.6 20.4 56.5 20.45 55.1 21.1 54.15 21.3 57 21.3 58.35 21.3 60.6 21.25 62.3 21
L 62.3 21.3
Q 60.3 23.35 56.75 25.85
L 56.75 25.95
Q 60.5 24.05 61.9 23.4 65.6 21.7 67.2 21.3 66.3 23.6 65.5 25.05 64.6 26.8 63.4 28
L 63.45 28.05
Q 65.05 26.55 68.6 23 73.15 18.35 74.15 16.7 73.2 17.55 72.4 18.05 70.45 19.05 68.25 19 68.95 17.9 70.65 15.05 71.1 14.35 71.45 13.85
L 71.15 13.7
Q 70.2 14.35 69.25 14.8
M 102.6 23
Q 103.75 23.4 104.95 23.65 100.9 19.95 99.6 19 101.9 20.3 105.15 21.05 109.65 22.15 110.05 22.3 105.95 20.1 102.85 17.7 99.15 14.9 98.6 13.15
L 98.6 14.15
Q 98.6 14.65 98.9 15.35 98.9 15.5 99.35 16.7
L 98.95 16.7
Q 97.9 16.05 96.25 14.45 95.35 13.55 94.9 12.95 95.5 14.15 95.8 14.85 96.45 16.65 97.05 18.75 93.75 17.2 92.8 16.45 91.6 15.25 90.15 13.75 90.5 14.25 92.6 17.35 93.45 18.4 94.2 19.45 95.25 20.85 96.2 21.95 101.35 28.05 108 31.9
L 108.05 31.85
Q 106.35 30.35 104.9 27.7 102.5 23.35 102.5 23.3
L 102.6 23
M 91.1 -1.1
Q 89.95 -0.85 89.5 -0.3 91.05 -0.4 94.05 3.05 94.35 3.35 96.45 5.9 97.75 7.4 98.5 8.1
L 98.6 7.9
Q 97.8 4.9 97.5 3.8 97.05 2 97.05 0.7 97.55 0.95 99.7 2.35 101.9 3.6 103.15 3.6 100.35 0.5 99.7 -0.2 97.85 -2.05 97.65 -2.25 97.85 -2.25 98.75 -2.9 99.6 -3.45 100.6 -3.75
L 100.55 -3.85
Q 99.2 -3.75 96.65 -3.55 93.85 -3.35 92.45 -3.2 92.1 -3.2 91.8 -3.2 91.8 -2.9 92.2 -2.3 92.55 -1.8 93.05 -1.25 92.1 -1.45 91.1 -1.1
M 73.05 -0.2
Q 74.75 -1.6 77.35 -1.6 79.15 -1.6 81.25 -0.85 82.55 -0.45 85.55 0.7 84.5 -0.75 84 -1.25 83.8 -1.5 83.45 -1.7 83.3 -1.8 83.2 -1.9 80.2 -3.75 78.75 -4.5 76.2 -5.85 75.25 -5.85 73.65 -5.85 71.55 -3.8 69.85 -2.05 68.8 0.05 71.05 -2.45 72.2 -3.05
L 73.05 -3.35
Q 73.6 -3.45 74.1 -3.85
L 74.45 -3.85
Q 73.55 -2.95 72.2 -0.85 71.15 0.75 70.6 1.75 71.7 1.1 73.05 -0.2 Z"/>

<path fill="#FFCCCC" stroke="none" d="
M 63.95 52.2
Q 62.95 52.05 62.95 52.95 62.95 53.3 63 53.45 63.25 53.85 63.95 53.85 64.85 53.85 64.85 52.95 64.85 52.25 63.95 52.2
M 68.8 51.7
Q 69 51.8 69.15 51.9 69.25 51.95 69.65 51.95 70.1 51.95 70.35 51.55 70.45 51.25 70.45 50.9 70.45 49.75 69.65 49.75 68.75 49.75 68.75 50.9 68.75 51.45 68.8 51.7
M 75.7 46.9
Q 74.75 47 74.75 47.9 74.75 48.25 74.8 48.5
L 74.9 48.7
Q 75 48.75 75.15 48.9 75.25 48.95 75.6 48.95 76.2 48.95 76.55 48.35 76.65 48.05 76.65 47.75 76.65 46.7 75.7 46.9
M 91.9 51.25
Q 91.9 51.55 92 51.75 92.25 52.2 93 52.2 94.1 52.2 94.1 51.3 94.1 50.55 93 50.45 91.9 50.35 91.9 51.25
M 99.5 50.45
Q 100.5 50.45 100.5 49.5 100.5 48.75 99.5 48.7 98.55 48.7 98.55 49.5
L 98.7 50
Q 98.95 50.45 99.5 50.45
M 106.6 50.85
Q 106.75 50.9 106.9 51.05 107.05 51.1 107.35 51.1 107.75 51.1 108 50.8 108.2 50.55 108.2 50.2 108.2 49.4 107.35 49.45 106.5 49.5 106.5 50.15 106.5 50.45 106.55 50.65 106.6 50.8 106.6 50.85
M 88.05 42.35
Q 88.05 41.45 87.2 41.45 86.3 41.45 86.3 42.35 86.3 42.8 86.35 42.95 86.55 43.4 87.15 43.4 88.05 43.4 88.05 42.35 Z"/>

<path fill="#FED8B4" stroke="none" d="
M 67.85 55.4
Q 67.8 55.05 67.45 55 67.15 55 66.85 55.5 66.95 55.7 67.2 55.85 67.35 55.85 67.6 55.65 67.85 55.5 67.85 55.4
M 73.45 52.4
Q 73.65 52.3 74.05 52 74.3 51.6 74.3 51.55 74.3 51.25 74.25 51.25
L 74.1 51.25
Q 73.65 51.25 73.55 51.25 73.05 51.35 73.05 51.9 73.05 52.25 73.15 52.25 73.3 52.3 73.45 52.4
M 65.3 49.15
Q 65.25 49.15 65.05 49.2 64.85 49.25 64.85 49.6 64.85 49.95 65 49.95 65.05 49.95 65.3 49.95 65.6 49.95 65.7 49.6 65.7 49.3 65.3 49.15
M 87.15 51.75
Q 86.75 51.9 86.75 52.45 86.75 52.75 86.9 52.9
L 87.15 53.05
Q 87.35 53.05 87.4 52.9
L 87.6 52.85
Q 87.6 52.05 87.15 51.75
M 98.2 54.15
Q 97.9 54.15 97.9 54.55 97.9 54.9 98 54.9 98.05 54.9 98.1 54.8
L 98.55 55
Q 98.95 55 99.05 54.8 99.15 54.75 99.2 54.55 99.15 54.25 98.75 54.1 98.3 54.1 98.2 54.15
M 109.3 56.9
Q 109.3 56.55 109.2 56.55
L 109.1 56.55
Q 108.7 56.55 108.2 56.65 107.65 56.75 107.35 57 107.35 57.1 107.5 57.3 107.55 57.55 107.55 57.6
L 108.15 57.75
Q 109.3 57.5 109.3 56.9
M 103.5 51.3
Q 103.8 51.25 103.9 50.9 103.8 50.6 103.5 50.45 103.3 50.6 103.15 50.8 103.05 50.9 103.05 51.05 103.2 51.25 103.5 51.3
M 85.6 49.25
L 85.55 49.3
Q 85.2 49.15 84.9 49.2 84.65 49.3 84.65 49.75 84.65 50.1 84.7 50.15 84.85 50.15 85.05 50.2 85.65 49.75 85.65 49.6 85.65 49.25 85.6 49.25 Z"/>
</g>

<g id="gr_foto1_0_Layer0_0_MEMBER_1_MEMBER_0_FILL">
<path fill="#FFFFFF" stroke="none" d="
M 71.15 33.4
Q 66.1 33.4 62.55 36.95 58.95 40.55 58.95 45.6 58.95 50.65 62.55 54.2 66.1 57.8 71.15 57.8 76.2 57.8 79.8 54.2 83.35 50.65 83.35 45.6 83.35 40.55 79.8 36.95 76.2 33.4 71.15 33.4 Z"/>
</g>

<g id="gr_foto1_0_Layer0_0_MEMBER_1_MEMBER_1_FILL">
<path fill="#FFFFFF" stroke="none" d="
M 92.3 36.95
Q 88.7 40.55 88.7 45.6 88.7 50.65 92.3 54.2 95.85 57.8 100.9 57.8 105.95 57.8 109.55 54.2 113.1 50.65 113.1 45.6 113.1 40.55 109.55 36.95 105.95 33.4 100.9 33.4 95.85 33.4 92.3 36.95 Z"/>
</g>

<g id="gr_foto1_0_Layer0_0_MEMBER_2_FILL">
<path fill="#FFFFFF" stroke="none" d="
M 71.15 33.4
Q 66.1 33.4 62.55 36.95 58.95 40.55 58.95 45.6 58.95 50.65 62.55 54.2 66.1 57.8 71.15 57.8 76.2 57.8 79.8 54.2 83.35 50.65 83.35 45.6 83.35 40.55 79.8 36.95 76.2 33.4 71.15 33.4 Z"/>
</g>

<g id="Symbol_1_0_Layer0_0_FILL">
<path fill="#99FF00" stroke="none" d="
M 0.05 2
Q 0 2.2638671875 0 2.55 0 3.6 0.75 4.35 1.5 5.1 2.55 5.1 3.6 5.1 4.35 4.35 5.1 3.6 5.1 2.55 5.1 2.2638671875 5.05 2 2.2619140625 4.784375 0.05 2 Z"/>

<path fill="#99CC00" stroke="none" d="
M 5.05 2
Q 4.895703125 1.295703125 4.35 0.75 3.6234375 0.0234375 2.6 0
L 2.45 0
Q 1.4765625 0.0234375 0.75 0.75 0.204296875 1.295703125 0.05 2 2.2619140625 4.784375 5.05 2
M 3.6 1.55
Q 3.6 1.95 3.3 2.25 3 2.55 2.6 2.55 2.2 2.55 1.9 2.25 1.6 1.95 1.6 1.55 1.6 1.15 1.9 0.85 2.2 0.55 2.6 0.55 3 0.55 3.3 0.85 3.6 1.15 3.6 1.55 Z"/>

<path fill="#FFFFFF" stroke="none" d="
M 3.3 2.25
Q 3.6 1.95 3.6 1.55 3.6 1.15 3.3 0.85 3 0.55 2.6 0.55 2.2 0.55 1.9 0.85 1.6 1.15 1.6 1.55 1.6 1.95 1.9 2.25 2.2 2.55 2.6 2.55 3 2.55 3.3 2.25 Z"/>
</g>

<path id="gr_foto1_0_Layer0_0_MEMBER_0_MEMBER_0_MEMBER_0_1_STROKES" stroke="#FF6666" stroke-width="1" stroke-linejoin="round" stroke-linecap="round" fill="none" d="
M 74.1 66.2
Q 85.4 70 98 66.2"/>

<path id="gr_foto1_0_Layer0_0_MEMBER_1_1_STROKES" stroke="#CCCCCC" stroke-width="2" stroke-linejoin="round" stroke-linecap="round" fill="none" d="
M 82.15 46.2
Q 86.5 41.2 90.75 46.2"/>

<path id="gr_foto1_0_Layer0_0_MEMBER_1_MEMBER_0_1_STROKES" stroke="#CCCCCC" stroke-width="1" stroke-linejoin="round" stroke-linecap="round" fill="none" d="
M 79.8 54.2
Q 76.2 57.8 71.15 57.8 66.1 57.8 62.55 54.2 58.95 50.65 58.95 45.6 58.95 40.55 62.55 36.95 66.1 33.4 71.15 33.4 76.2 33.4 79.8 36.95 83.35 40.55 83.35 45.6 83.35 50.65 79.8 54.2 Z"/>

<path id="gr_foto1_0_Layer0_0_MEMBER_1_MEMBER_1_1_STROKES" stroke="#CCCCCC" stroke-width="2" stroke-linejoin="round" stroke-linecap="round" fill="none" d="
M 92.3 54.2
Q 88.7 50.65 88.7 45.6 88.7 40.55 92.3 36.95 95.85 33.4 100.9 33.4 105.95 33.4 109.55 36.95 113.1 40.55 113.1 45.6 113.1 50.65 109.55 54.2 105.95 57.8 100.9 57.8 95.85 57.8 92.3 54.2 Z"/>

<path id="gr_foto1_0_Layer0_0_MEMBER_2_1_STROKES" stroke="#CCCCCC" stroke-width="2" stroke-linejoin="round" stroke-linecap="round" fill="none" d="
M 58.95 45.6
Q 58.95 40.55 62.55 36.95 66.1 33.4 71.15 33.4 76.2 33.4 79.8 36.95 83.35 40.55 83.35 45.6 83.35 50.65 79.8 54.2 76.2 57.8 71.15 57.8 66.1 57.8 62.55 54.2 58.95 50.65 58.95 45.6 Z"/>

<path id="Symbol_1_0_Layer0_0_1_STROKES" stroke="#99FF00" stroke-width="1" stroke-linejoin="round" stroke-linecap="round" fill="none" d="
M 2.625 0
Q 3.6234375 0.0234375 4.35 0.75 4.895703125 1.295703125 5.05 2 5.1 2.2638671875 5.1 2.55 5.1 3.6 4.35 4.35 3.6 5.1 2.55 5.1 1.5 5.1 0.75 4.35 0 3.6 0 2.55 0 2.2638671875 0.05 2 0.204296875 1.295703125 0.75 0.75 1.4765625 0.0234375 2.475 0
M 0.05 2
Q 2.2619140625 4.784375 5.05 2"/>
</defs>

<g id="btn_01" transform="matrix( 1, 0, 0, 1, -32.15,8.75) ">
<g transform="matrix( 1, 0, 0, 1, 0,0) ">
<g transform="matrix( 1, 0, 0, 1, 0,0) ">
<use xlink:href="#gr_foto1_0_Layer0_0_MEMBER_0_FILL"/>
</g>

<g transform="matrix( 1, 0, 0, 1, 0,0) ">
<use xlink:href="#gr_foto1_0_Layer0_0_MEMBER_0_MEMBER_0_FILL"/>
</g>

<g transform="matrix( 1, 0, 0, 1, 0,0) ">
<use xlink:href="#gr_foto1_0_Layer0_0_MEMBER_0_MEMBER_0_MEMBER_0_FILL"/>

<use xlink:href="#gr_foto1_0_Layer0_0_MEMBER_0_MEMBER_0_MEMBER_0_1_STROKES"/>
</g>

<g transform="matrix( 1, 0, 0, 1, 0,0) ">
<use xlink:href="#gr_foto1_0_Layer0_0_MEMBER_1_1_STROKES"/>
</g>

<g transform="matrix( 1, 0, 0, 1, 0,0) ">
<use xlink:href="#gr_foto1_0_Layer0_0_MEMBER_1_MEMBER_0_FILL"/>

<use xlink:href="#gr_foto1_0_Layer0_0_MEMBER_1_MEMBER_0_1_STROKES"/>
</g>

<g transform="matrix( 1, 0, 0, 1, 0,0) ">
<use xlink:href="#gr_foto1_0_Layer0_0_MEMBER_1_MEMBER_1_FILL"/>

<use xlink:href="#gr_foto1_0_Layer0_0_MEMBER_1_MEMBER_1_1_STROKES"/>
</g>

<g transform="matrix( 1, 0, 0, 1, 0,0) ">
<use xlink:href="#gr_foto1_0_Layer0_0_MEMBER_2_FILL"/>

<use xlink:href="#gr_foto1_0_Layer0_0_MEMBER_2_1_STROKES"/>
</g>

<g transform="matrix( 1.27679443359375, 0, 0, 1.27679443359375, 95.75,42.05) ">
<g transform="matrix( 1, 0, 0, 1, 0,0) ">
<use xlink:href="#Symbol_1_0_Layer0_0_FILL"/>

<use xlink:href="#Symbol_1_0_Layer0_0_1_STROKES"/>
</g>
</g>

<g transform="matrix( 1.27679443359375, 0, 0, 1.27679443359375, 69.9,42.1) ">
<g transform="matrix( 1, 0, 0, 1, 0,0) ">
<use xlink:href="#Symbol_1_0_Layer0_0_FILL"/>

<use xlink:href="#Symbol_1_0_Layer0_0_1_STROKES"/>
</g>
</g>
</g>
</g>
</svg>
