<svg xmlns="http://www.w3.org/2000/svg" xmlns:xlink="http://www.w3.org/1999/xlink" preserveAspectRatio="none" width="114" height="154" viewBox="0 0 114 154"><defs><g id="a"><path fill="#CCC" d="M112.4 160.55q.45.1 1.5 2.05 7.1-2.3 15.15-6.3-2.95-3.8-6.8-3.8-5.95 0-11.1-12.35l1.25 20.4m-87.35-7.05q-1.55.25-3.05.35 1.5 2.2 4.55 3.9Q31.2 160.3 39.9 162l.4-16.15 1.9-14.8q-9.5 21.15-17.15 22.45M63.8 94.7q-2.1.65-4.15 1.4L44.6 121.25l9.95 16.55-9.35 17.65 4.35 8.05q1.3.2 2.65.35l-3.65-8.4 9.35-17.65-9.95-16.55L63.8 94.7M93.6 97q-3.15-.85-6.35-1.45l13.25 25.1-7.75 13.3 8.25 21-4.85 10.8h.1q1.9 0 3.85-.15l6.45-10.65-8.25-21 7.75-13.3L93.6 97z"/><path fill="#F7F7F7" d="M106.05 120.65l-7.75 13.3 8.25 21-6.45 10.65q5.7-.5 12.15-2.5.05-1.3.15-2.55l-1.25-20.4q5.15 12.35 11.1 12.35 3.85 0 6.8 3.8 1.05-.5 2.1-1.1.15-.05.25-.15l-8.5-43.75q-14-10.2-29.3-14.3l12.45 23.65m-13.3 13.3l7.75-13.3-13.25-25.1v5.05l-1.4 65.05q4.95.1 10.3.1l4.85-10.8-8.25-21m-38.2 3.85l-9.95-16.55L59.65 96.1q-19.4 6.7-32.15 17.2L18 145.4q.75.65 1.5 1.45.1.05 1.3 4.55.4 1.25 1.2 2.45 1.5-.1 3.05-.35 7.65-1.3 17.15-22.45l-1.9 14.8-.4 16.15q4.35.85 9.65 1.5l-4.35-8.05 9.35-17.65m-6.6-16.55l9.95 16.55-9.35 17.65 3.65 8.4q5.3.55 11.6.95V94.7l-15.85 26.55z"/><path fill="#C9C" d="M63.8 103.85v60.95q9.85.65 22.05.85l1.4-65.05q-10.2 12.6-23.45 3.25z"/></g><g id="b"><path fill="#C90" d="M54.2 77.85l-.8-1.1q-.4-.6-.75-1.3.65 6.6 4 16.1 1.3 3.85 2.8 7.15l4.2-.75V86.5q-.25-.25-.65-.45-2.25-1.6-4.2-3.25-.65-.55-1.25-1.2-.05 0-.05-.05-.7-.65-1.4-1.35-.65-.65-1.25-1.4-.35-.55-.65-.95m39.05 5.1q1.45-5 1.45-5.4-.4.6-.75 1.15-3.35 4-8.55 7.55v11l2 1.35q2.3-5.7 3.35-8.15 1.05-2.45 2.5-7.5z"/><path fill="#FEDE5F" d="M53.4 59.6v-.1-.9q0-.2-.15-.5l.15 1.5m-7 10.5l-.3-.75q-.2.35-.35.85-.3.95-.4 2.2l1.2-.05q-.15-.8-.15-1.55v-.7m9.7-42.05v-.45q-.65.5-.95 1.2l-.6 1 .8.1q.3-.35.75-1.85m50.65 33.45h.15q-.05-.15-.2-.35l.05.35m-6.5 5.1q-.3-1.25-.45-2.05-.05-.35-.05-.4v.4q0 1.2-.05 2.85v.7h.95q-.2-.7-.4-1.5m.55-9.6v1.6q0 .4.15 1.95l1.2-.15q-1.3-2.35-1.35-3.4M74.65 29.9l.55-1.2q-.3-.2-.55-.3v1.5M78.6 25h-2.5q.9.3 1.75 1.15L78.6 25z"/><path fill="#FEC289" d="M58.55 47.75q-.25.45-.4.9-2.5 5.65-4.9 9.45.15.3.15.5v.9q4.1-2.65 8.4-2.3 4.6.35 5.75.9 1.1.7 3.3 3.6-.1-3.25-1.1-7-1.1-4.15-6.15-5.9-2.65-.8-5.05-1.05M81.6 93.4q2.5-1.4 3.8-3v-4.15Q80.7 89.4 74.25 92q-6-2.55-10.6-5.5v4.65q1.25.9 3.75 2.25 4.6 2.4 6.8 2.4 3.3 0 7.4-2.4m12.45-32.95q-.05-1.15-.1-2.2-3.85-3.35-10.5-6.85-1-.5-1.85-.9-.05-.1-.2-.1-.35.2-.55.5-1.9 1.45-2.6 3.8-.95 3.85-1.55 10.2.95-4.9 2.75-5.8 1.8-.85 6.8-.7 4.4.05 7.1 1.65.15.1.4.15.1.05.3.25z"/><path fill="#FF9" d="M58.85 36.9v-.1h-.05l.05.1m-4.35-7l.05-.05-.05-.05v.1m49 33.7h-.3q0 .35-.05.7h.35v-.7M97 46.5v.1h.05l-.05-.1z"/><path fill="#FDCC0B" d="M58.8 36.8q-.15-1.1-.25-2.1-.75.6-1.35 1.15-5.8 4.75-10.1 4.75-2.15 0-3.55-1.9-1-1.4-1.2-3.15-2.95 9.4-3.75 24-.4 9.4-.2 10.95-.25 3.2-.4 7.05-.35 12.5 3.9 20.15 4.2 7.6 19.2 9.75l3.25.65q-2.7-4.2-4.9-9.4-1.5-3.3-2.8-7.15-3.35-9.5-4-16.1-.15-1.2-.25-2.3-.05-.7-.05-1.35 0-2.1.55-6.7.35-3.3.5-5.5l-.15-1.5q2.4-3.8 4.9-9.45.15-.45.4-.9.05-.3.1-.55 3.65-9.15 6.1-14.7-.9-1.05-1.85-2.25-1.7 1.85-3.15 3.25-.4 1.45-.9 3.3v.1l-.05-.1M48.25 55.4v-.05q0-.1.05-.15.3-.35.65-.9Q50 52.6 50 52.25l.35.1q0 1.75-.5 3.5-.05.2-.15.4-.1.4-.25.95-.15.7-.25 1.75-.25 2.2-.5 5.6-.1.55-.15 1.15-.1.6-.1 1.15-.15.9-.2 1.7-.15 1.15-.25 2.25-.35 2.9-.75 5.05-.6-1.8-.7-3.5l-1.2.05q-.05.7-.05 3.65 0 1.65.8 7.8v.85q-.4-.25-1.95-5.05-1.5-4.95-1.5-6.65 0-4.55 1.65-10.4.1-.35.15-.7.5-1.65 1.05-3.3 1.1-3.4 2.15-5.65v3.3q.05-.15.6-.85m52.05-18.7q0 2.4-3.9 4.5-3.55 2-6.7 2-9.7 0-15.75-3.1-4.5-2.25-9-7.35-.15 6.5 5.4 11.15 2.35 1.85 11.05 6.5.15 0 .2.1.85.4 1.85.9 6.65 3.5 10.5 6.85.05 1.05.1 2.2.3 5.85.65 14.65v2.45q0 .4-1.45 5.4-1.45 5.05-2.5 7.5T87.4 98.6q-.2 1.1-2.2 4.15-.4.75-1 1.45-.35.55-1.05 2l-.9 2.1q5.05.4 12.1-1.05 7.55-1.6 10.05-12.1 2.45-10.6 2.5-21.95.05-7.2-.15-11.7l-.05-.35q-.15-2.55-.4-4.3-.1-1.4-.3-1.65 0-1.85-.3-5.55-.8-7.45-3.15-16.15-1.7-6.25-7.95-11.35 5.7 8.75 5.7 14.55M97 46.6v-.1l.05.1q.5.9 1.15 2.35V49q.5.85 1.2 1.9.4.6 1 1.3 0 .05.05.05V45q.55 2.3 1.4 6.1.05.35.1.8.65 3.15 1.55 6.7v5.7h-.35q.05-.35.05-.7-.05-1.5-1.05-3.2l-1.2.15q.15 1.5.45 4.15.05.55.15 1.2 0 .25.05.55 0 .9-.05 1.65-.15.95-.35 1.6h-.4q0-.5-.15-1.6h-.95v.35q-.1.7-.1 1.4-.1 1.85-.2 4.15h-.05q-.2-2.05-.45-3.85-.1-.8-.2-1.65-.2-1.6-.4-2.9-.4-3.7-.85-6.05Q96.4 52.9 94.7 48.9q1.25.75 3.45 3.05V50.1q-.6-.3-.95-1.4-.1-.05-.1-.15-.2-.8-.1-1.95M68.65 25.95q1.02-.194 1.65-.2-.577-.01-1.4-.35l-.25.55z"/><path fill="#FFF" d="M48.25 55.35v.05q-.55.7-.6.85v-3.3Q46.6 55.2 45.5 58.6q-.55 1.65-1.05 3.3-.05.35-.15.7-1.65 5.85-1.65 10.4 0 1.7 1.5 6.65 1.55 4.8 1.95 5.05v-.85q-.8-6.15-.8-7.8 0-2.95.05-3.65.1-1.25.4-2.2.15-.5.35-.85l.3.75v.7q0 .75.15 1.55.1 1.7.7 3.5.4-2.15.75-5.05.1-1.1.25-2.25.05-.8.2-1.7 0-.55.1-1.15.05-.6.15-1.15.25-3.4.5-5.6.1-1.05.25-1.75.15-.55.25-.95.1-.2.15-.4.5-1.75.5-3.5l-.35-.1q0 .35-1.05 2.05-.35.55-.65.9-.05.05-.05.15M62.6 21.8h-1.5q-.6 0-1.1.25-1 .5-1.15.6v-.45q.872-1.356 1.4-1.8-5.4 3.868-5.75 9.4l.05.05v-.05l.6-1q.3-.7.95-1.2v.45q-.45 1.5-.75 1.85v4.35h.3q.45-3.05 2.45-4.35 0 1.6.45 4.8.1 1 .25 2.1h.05q.5-1.85.9-3.3.4-1.35.7-2.3.85-2.55 2.1-3.9 0-.15.05-.25.1-.15.1-.25.1-.6.3-1 .5-1.4 1.2-2.4-1.3 0-3.9 1.6.6-.45.9-1.8.35-1.15 1.4-1.4m35.6 27.15q-.65-1.45-1.15-2.35H97q-.1 1.15.1 1.95 0 .1.1.15.35 1.1.95 1.4v1.85q-2.2-2.3-3.45-3.05 1.7 4 2.75 10.65.45 2.35.85 6.05.2 1.3.4 2.9.1.85.2 1.65.25 1.8.45 3.85h.05q.1-2.3.2-4.15 0-.7.1-1.4v-.35-.45-.25q.05-1.65.05-2.85v-.4q0 .05.05.4.15.8.45 2.05.2.8.4 1.5.15 1.1.15 1.6h.4q.2-.65.35-1.6.05-.75.05-1.65-.05-.3-.05-.55-.1-.65-.15-1.2-.3-2.65-.45-4.15-.15-1.55-.15-1.95V57q.05 1.05 1.35 3.4 1 1.7 1.05 3.2h.3v-5q-.9-3.55-1.55-6.7-.05-.45-.1-.8-.85-3.8-1.4-6.1v7.25q-.05 0-.05-.05-.6-.7-1-1.3-.7-1.05-1.2-1.9v-.05m-11.6-22.1q-.2-.35-.5-.7-1.65-2.45-4.45-4.1-2.9-1.65-6.15-2.1.6-.45 2.2-.85 1.75-.5 2.3-.35-2-.9-2.75-1.1-1.15-.35-2.65-.35-.7 0-1.5.05-1.4.25-2.45.45-1.1.25-2.35.75-1.65.75-2.1 2.55 1.55 0 4.55.35-2.25 1.25-4.2 2.8l.3.15q.45.4 1.6.8.25.1.45.2.823.34 1.4.35-.63.006-1.65.2-1.25.2-2.1.2 2.3 2.55 5 7.35 2.85 4 8.45 6.5-1.6-2.4-2.85-4.55-2.5-4.1-2.5-5.55v-1.5q.25.1.55.3 1.9 1.15 6.2 3.85l.2-.2q-.55-2.1-2.1-4.15-.8-1.3-1.65-2.05Q77 25.3 76.1 25h2.5q.1 0 8 1.85z"/><path fill="#FFE1C4" d="M85.4 97.25V90.4q-1.3 1.6-3.8 3-4.1 2.4-7.4 2.4-2.2 0-6.8-2.4-2.5-1.35-3.75-2.25v9.2q.7 3.5 4.45 5.75 3.55 2.2 7.7 2.2 1.35 0 3.8-1.05 2.2-.9 2.7-1.45.6-.55 1.15-1.2.5-.7 1-1.45.65-1.5.95-3.15v-2.75m8.35-37.05q-.25-.05-.4-.15-2.7-1.6-7.1-1.65-5-.15-6.8.7-1.8.9-2.75 5.8.6-6.35 1.55-10.2.7-2.35 2.6-3.8.2-.3.55-.5-8.7-4.65-11.05-6.5-5.55-4.65-5.4-11.15v-.1q0-.2-.05-.4-.1.1-.15.25-2.45 5.55-6.1 14.7-.05.25-.1.55 2.4.25 5.05 1.05 5.05 1.75 6.15 5.9 1 3.75 1.1 7-2.2-2.9-3.3-3.6-1.15-.55-5.75-.9-4.3-.35-8.4 2.3v.1q-.15 2.2-.5 5.5-.55 4.6-.55 6.7 0 .65.05 1.35.1 1.1.25 2.3.35.7.75 1.3l.8 1.1q.3.4.65.95.6.75 1.25 1.4.7.7 1.4 1.35 0 .05.05.05.6.65 1.25 1.2 1.95 1.65 4.2 3.25.4.2.65.45 4.6 2.95 10.6 5.5 6.45-2.6 11.15-5.75 5.2-3.55 8.55-7.55.35-.55.75-1.15V75.1q-.35-8.8-.65-14.65-.2-.2-.3-.25m-25.9 7.45q.1-.05.15-.1l-.05.1h-.1z"/><path fill="#FEDC56" d="M94.6 22.15q-2.45-2.05-5.6-3.9-11.15-6.5-17.25-6.05-6 .4-6.65 2.4-.6 1.95-1.25 2.4-2.35-.2-6.9-.25-4.55-.15-10.75 10.1-2.3 3.55-3.85 8.7.2 1.75 1.2 3.15 1.4 1.9 3.55 1.9 4.3 0 10.1-4.75.6-.55 1.35-1.15-.45-3.2-.45-4.8-2 1.3-2.45 4.35h-.3V29.9l-.8-.1v.05l-.05.05v-.1q.35-5.532 5.75-9.4-.528.444-1.4 1.8v.45q.15-.1 1.15-.6.5-.25 1.1-.25h1.5q-1.05.25-1.4 1.4-.3 1.35-.9 1.8 2.6-1.6 3.9-1.6-.7 1-1.2 2.4-.2.4-.3 1 0 .1-.1.25-.05.1-.05.25-1.25 1.35-2.1 3.9-.3.95-.7 2.3 1.45-1.4 3.15-3.25.95 1.2 1.85 2.25.05-.15.15-.25.05.2.05.4v.1q4.5 5.1 9 7.35Q80 43.2 89.7 43.2q3.15 0 6.7-2 3.9-2.1 3.9-4.5 0-5.8-5.7-14.55m-8.5 4q.3.35.5.7-7.9-1.85-8-1.85l-.75 1.15q.85.75 1.65 2.05 1.55 2.05 2.1 4.15l-.2.2q-4.3-2.7-6.2-3.85l-.55 1.2q0 1.45 2.5 5.55Q78.4 37.6 80 40q-5.6-2.5-8.45-6.5-2.7-4.8-5-7.35.85 0 2.1-.2l.25-.55q-.2-.1-.45-.2-1.15-.4-1.6-.8l-.3-.15q1.95-1.55 4.2-2.8-3-.35-4.55-.35.45-1.8 2.1-2.55 1.25-.5 2.35-.75 1.05-.2 2.45-.45.8-.05 1.5-.05 1.5 0 2.65.35.75.2 2.75 1.1-.55-.15-2.3.35-1.6.4-2.2.85 3.25.45 6.15 2.1 2.8 1.65 4.45 4.1z"/></g><path fill="#C90" d="M80.35 48.8l-.15 1.85q11.65-2.05 18.95-.75-6.1-3-18.8-1.1z" id="d"/><path fill="#C90" d="M49.2 50q7.45-1.25 19 .7l-.1-1.85Q55.4 46.95 49.2 50z" id="e"/><g id="f"><path fill="#F69" d="M73.9 76.65q-2.65 0-4.3 1.25-1.65 1.2-2.55.85 8.15 3.95 14.35-.3-1.25.55-3.05-.7-1.85-1.15-4.45-1.1z"/><path fill="#F66" d="M81.4 78.45l.05.05q.05-.05.05-.15-.05.1-.1.1z"/><path fill="#FEBCBC" d="M81.45 78.5l-.05-.05q-6.2 4.25-14.35.3.85 1.35 1.25 1.85.4.55 1.75 2 1.35 1.35 4.15 1.35 2.85 0 3.9-1.1 1.1-1.15 1.85-1.85.8-.75 1.5-2.5z"/></g><g id="h"><path fill="#FDB40B" d="M63.7 60.2v.1q.05 0 .1-.05l-.1-.05z"/><path fill="#066" d="M63.8 60.25l.2-.2-.3.05v.1l.1.05z"/><path fill="#960" d="M63 58.55q-.7-.65-1.85-.65-1.25 0-2.15.55-.55.35-.7.8.15.5.65.8 1.05 1 2.5 1 1.25 0 2.25-.75v-.2q0-.9-.7-1.55z"/><path d="M64 55.3q-1.05-.9-2.55-.9-1.35 0-2.3.8-.15.05-.2.1-1.15 1-1.15 2.4 0 .85.5 1.55.15-.45.7-.8.9-.55 2.15-.55 1.15 0 1.85.65.7.65.7 1.55l.3-.05q1.05-1 1.05-2.35 0-1.4-1.05-2.4m-2.45 1.05q0 .35-.25.75-.4.45-1.05.45-.7 0-1.05-.5-.2-.4-.2-.7 0-.6.35-.9.3-.25.9-.2 1.3.05 1.3 1.1z"/><path fill="#FFF" d="M61.3 57.1q.25-.4.25-.75 0-1.05-1.3-1.1-.6-.05-.9.2-.35.3-.35.9 0 .3.2.7.35.5 1.05.5.65 0 1.05-.45z"/></g><path fill="#FEC289" d="M70.55 69.25q.1-.7.15-1.1l-.45 1.5q-.05 1.2.2 1.85.25.65 1.85 2.1 1.5 1.45 2.5 1.45.85 0 2.1-2 1.15-1.8 1.15-2.45 0-.45-.3-1.4.15 1.2-.35 1.65-.75.85-2.15 1.45-1.3.55-3.15-.6-1.85-1.15-1.55-2.45z" id="i"/><g id="j"><path fill="#FDB40B" d="M88.9 60.3q.05 0 .15-.05l-.15-.05v.1z"/><path fill="#066" d="M89.25 60.05l-.35.05v.1l.15.05.2-.2z"/><path fill="#960" d="M84.2 58.45q-.5.35-.7.8.2.5.65.8 1.05 1 2.5 1 1.25 0 2.25-.75v-.2q0-.9-.65-1.55-.75-.65-1.85-.65-1.25 0-2.2.55z"/><path d="M89.25 55.3q-1.05-.9-2.6-.9-1.3 0-2.3.8-.05.05-.2.1-1.1 1-1.1 2.4 0 .85.45 1.55.2-.45.7-.8.95-.55 2.2-.55 1.1 0 1.85.65.65.65.65 1.55l.35-.05q1.05-1 1.05-2.35 0-1.4-1.05-2.4m-4.7.15q.35-.25.95-.2 1.3.05 1.3 1.1 0 .35-.25.75-.4.45-1.05.45-.75 0-1.1-.5-.2-.4-.2-.7 0-.6.35-.9z"/><path fill="#FFF" d="M85.5 55.25q-.6-.05-.95.2-.35.3-.35.9 0 .3.2.7.35.5 1.1.5.65 0 1.05-.45.25-.4.25-.75 0-1.05-1.3-1.1z"/></g><path fill="#FFF" fill-opacity=".361" d="M101.7 54.3Q85 45.9 77.8 60.7q14.9 7.7 23.9-6.4m-54.9 0q9 14.1 23.9 6.4-7.15-14.8-23.9-6.4z" id="k"/><path id="c" stroke="#F90" stroke-linejoin="round" stroke-linecap="round" fill="none" d="M93.35 60.05q.15.1.4.15"/><path id="g" stroke="#F06" stroke-linejoin="round" stroke-linecap="round" fill="none" d="M81.4 78.45q-6.2 4.25-14.35.3"/><path id="l" stroke="#333" stroke-linejoin="round" stroke-linecap="round" fill="none" d="M46.8 54.3q9 14.1 23.9 6.4-7.15-14.8-23.9-6.4zm23.9 6.4q3.95-3.95 7.1 0 7.2-14.8 23.9-6.4-9 14.1-23.9 6.4"/></defs><use xlink:href="#a" transform="translate(-18 -12.15)"/><g transform="translate(-18 -12.15)"><use xlink:href="#b"/><use xlink:href="#c"/></g><use xlink:href="#d" transform="translate(-18 -12.15)"/><use xlink:href="#e" transform="translate(-18 -12.15)"/><g transform="translate(-18 -12.15)"><use xlink:href="#f"/><use xlink:href="#g"/></g><use xlink:href="#h" transform="translate(-18 -12.15)"/><use xlink:href="#i" transform="translate(-18 -12.15)"/><use xlink:href="#j" transform="translate(-18 -12.15)"/><g transform="translate(-18 -12.15)"><use xlink:href="#k"/><use xlink:href="#l"/></g></svg>