
<svg xmlns="http://www.w3.org/2000/svg" version="1.1" xmlns:xlink="http://www.w3.org/1999/xlink" preserveAspectRatio="none" x="0px" y="0px" width="114px" height="154px" viewBox="0 0 114 154">
<defs>
<g id="gr_foto2_0_Layer0_0_MEMBER_0_FILL">
<path fill="#CCCCCC" stroke="none" d="
M 112.4 160.55
Q 112.85 160.65 113.9 162.6 121 160.3 129.05 156.3 126.1 152.5 122.25 152.5 116.3 152.5 111.15 140.15
L 112.4 160.55
M 25.05 153.5
Q 23.5 153.75 22 153.85 23.5 156.05 26.55 157.75 31.2 160.3 39.9 162
L 40.3 145.85 42.2 131.05
Q 32.7 152.2 25.05 153.5
M 63.8 94.7
Q 61.7 95.35 59.65 96.1
L 44.6 121.25 54.55 137.8 45.2 155.45 49.55 163.5
Q 50.85 163.7 52.2 163.85
L 48.55 155.45 57.9 137.8 47.95 121.25 63.8 94.7
M 93.6 97
Q 90.45 96.15 87.25 95.55
L 100.5 120.65 92.75 133.95 101 154.95 96.15 165.75 96.25 165.75
Q 98.15 165.75 100.1 165.6
L 106.55 154.95 98.3 133.95 106.05 120.65 93.6 97 Z"/>

<path fill="#F7F7F7" stroke="none" d="
M 106.05 120.65
L 98.3 133.95 106.55 154.95 100.1 165.6
Q 105.8 165.1 112.25 163.1 112.3 161.8 112.4 160.55
L 111.15 140.15
Q 116.3 152.5 122.25 152.5 126.1 152.5 129.05 156.3 130.1 155.8 131.15 155.2 131.3 155.15 131.4 155.05
L 122.9 111.3
Q 108.9 101.1 93.6 97
L 106.05 120.65
M 92.75 133.95
L 100.5 120.65 87.25 95.55 87.25 100.6 85.85 165.65
Q 90.8 165.75 96.15 165.75
L 101 154.95 92.75 133.95
M 54.55 137.8
L 44.6 121.25 59.65 96.1
Q 40.25 102.8 27.5 113.3
L 18 145.4
Q 18.75 146.05 19.5 146.85 19.6 146.9 20.8 151.4 21.2 152.65 22 153.85 23.5 153.75 25.05 153.5 32.7 152.2 42.2 131.05
L 40.3 145.85 39.9 162
Q 44.25 162.85 49.55 163.5
L 45.2 155.45 54.55 137.8
M 47.95 121.25
L 57.9 137.8 48.55 155.45 52.2 163.85
Q 57.5 164.4 63.8 164.8
L 63.8 103.85 63.8 94.7 47.95 121.25 Z"/>

<path fill="#CC99CC" stroke="none" d="
M 63.8 103.85
L 63.8 164.8
Q 73.65 165.45 85.85 165.65
L 87.25 100.6
Q 77.05 113.2 63.8 103.85 Z"/>
</g>

<g id="gr_foto2_0_Layer0_0_MEMBER_0_MEMBER_0_MEMBER_0_FILL">
<path fill="#CC9900" stroke="none" d="
M 54.2 77.85
Q 53.8 77.3 53.4 76.75 53 76.15 52.65 75.45 53.3 82.05 56.65 91.55 57.95 95.4 59.45 98.7
L 63.65 97.95 63.65 91.15 63.65 86.5
Q 63.4 86.25 63 86.05 60.75 84.45 58.8 82.8 58.15 82.25 57.55 81.6 57.5 81.6 57.5 81.55 56.8 80.9 56.1 80.2 55.45 79.55 54.85 78.8 54.5 78.25 54.2 77.85
M 93.25 82.95
Q 94.7 77.95 94.7 77.55 94.3 78.15 93.95 78.7 90.6 82.7 85.4 86.25
L 85.4 90.4 85.4 97.25 87.4 98.6
Q 89.7 92.9 90.75 90.45 91.8 88 93.25 82.95 Z"/>

<path fill="#FEDE5F" stroke="none" d="
M 53.4 59.6
Q 53.4 59.55 53.4 59.5 53.4 58.95 53.4 58.6 53.4 58.4 53.25 58.1
L 53.4 59.6
M 46.4 70.1
L 46.1 69.35
Q 45.9 69.7 45.75 70.2 45.45 71.15 45.35 72.4
L 46.55 72.35
Q 46.4 71.55 46.4 70.8 46.4 70.45 46.4 70.1
M 56.1 28.05
L 56.1 27.6
Q 55.45 28.1 55.15 28.8 54.7 29.55 54.55 29.8
L 55.35 29.9
Q 55.65 29.55 56.1 28.05
M 106.75 61.5
L 106.9 61.5
Q 106.85 61.35 106.7 61.15
L 106.75 61.5
M 100.25 66.6
Q 99.95 65.35 99.8 64.55 99.75 64.2 99.75 64.15 99.75 64.2 99.75 64.55 99.75 65.75 99.7 67.4 99.7 67.55 99.7 67.65 99.7 67.85 99.7 68.1
L 100.65 68.1
Q 100.45 67.4 100.25 66.6
M 100.8 57
L 100.8 58.6
Q 100.8 59 100.95 60.55
L 102.15 60.4
Q 100.85 58.05 100.8 57
M 74.65 29.9
L 75.2 28.7
Q 74.9 28.5 74.65 28.4
L 74.65 29.9
M 78.6 25
L 76.1 25
Q 77 25.3 77.85 26.15
L 78.6 25 Z"/>

<path fill="#FEC289" stroke="none" d="
M 58.55 47.75
Q 58.3 48.2 58.15 48.65 55.65 54.3 53.25 58.1 53.4 58.4 53.4 58.6 53.4 58.95 53.4 59.5 57.5 56.85 61.8 57.2 66.4 57.55 67.55 58.1 68.65 58.8 70.85 61.7 70.75 58.45 69.75 54.7 68.65 50.55 63.6 48.8 60.95 48 58.55 47.75
M 81.6 93.4
Q 84.1 92 85.4 90.4
L 85.4 86.25
Q 80.7 89.4 74.25 92 68.25 89.45 63.65 86.5
L 63.65 91.15
Q 64.9 92.05 67.4 93.4 72 95.8 74.2 95.8 77.5 95.8 81.6 93.4
M 94.05 60.45
Q 94 59.3 93.95 58.25 90.1 54.9 83.45 51.4 82.45 50.9 81.6 50.5 81.55 50.4 81.4 50.4 81.05 50.6 80.85 50.9 78.95 52.35 78.25 54.7 77.3 58.55 76.7 64.9 77.65 60 79.45 59.1 81.25 58.25 86.25 58.4 90.65 58.45 93.35 60.05 93.5 60.15 93.75 60.2 93.85 60.25 94.05 60.45 Z"/>

<path fill="#FFFF99" stroke="none" d="
M 58.85 36.9
L 58.85 36.8 58.8 36.8 58.85 36.9
M 54.5 29.9
L 54.55 29.85 54.5 29.8
Q 54.5 29.85 54.5 29.9
M 103.5 63.6
L 103.2 63.6
Q 103.2 63.95 103.15 64.3
L 103.5 64.3 103.5 63.6
M 97 46.5
L 97 46.6 97.05 46.6 97 46.5 Z"/>

<path fill="#FDCC0B" stroke="none" d="
M 58.8 36.8
Q 58.65 35.7 58.55 34.7 57.8 35.3 57.2 35.85 51.4 40.6 47.1 40.6 44.95 40.6 43.55 38.7 42.55 37.3 42.35 35.55 39.4 44.95 38.6 59.55 38.2 68.95 38.4 70.5 38.15 73.7 38 77.55 37.65 90.05 41.9 97.7 46.1 105.3 61.1 107.45
L 64.35 108.1
Q 61.65 103.9 59.45 98.7 57.95 95.4 56.65 91.55 53.3 82.05 52.65 75.45 52.5 74.25 52.4 73.15 52.35 72.45 52.35 71.8 52.35 69.7 52.9 65.1 53.25 61.8 53.4 59.6
L 53.25 58.1
Q 55.65 54.3 58.15 48.65 58.3 48.2 58.55 47.75 58.6 47.45 58.65 47.2 62.3 38.05 64.75 32.5 63.85 31.45 62.9 30.25 61.2 32.1 59.75 33.5 59.35 34.95 58.85 36.8
L 58.85 36.9 58.8 36.8
M 48.25 55.4
L 48.25 55.35
Q 48.25 55.25 48.3 55.2 48.6 54.85 48.95 54.3 50 52.6 50 52.25
L 50.35 52.35
Q 50.35 54.1 49.85 55.85 49.8 56.05 49.7 56.25 49.6 56.65 49.45 57.2 49.3 57.9 49.2 58.95 48.95 61.15 48.7 64.55 48.6 65.1 48.55 65.7 48.45 66.3 48.45 66.85 48.3 67.75 48.25 68.55 48.1 69.7 48 70.8 47.65 73.7 47.25 75.85 46.65 74.05 46.55 72.35
L 45.35 72.4
Q 45.3 73.1 45.3 76.05 45.3 77.7 46.1 83.85
L 46.1 84.7
Q 45.7 84.45 44.15 79.65 42.65 74.7 42.65 73 42.65 68.45 44.3 62.6 44.4 62.25 44.45 61.9 44.95 60.25 45.5 58.6 46.6 55.2 47.65 52.95
L 47.65 56.25
Q 47.7 56.1 48.25 55.4
M 100.3 36.7
Q 100.3 39.1 96.4 41.2 92.85 43.2 89.7 43.2 80 43.2 73.95 40.1 69.45 37.85 64.95 32.75 64.8 39.25 70.35 43.9 72.7 45.75 81.4 50.4 81.55 50.4 81.6 50.5 82.45 50.9 83.45 51.4 90.1 54.9 93.95 58.25 94 59.3 94.05 60.45 94.35 66.3 94.7 75.1 94.7 76.35 94.7 77.55 94.7 77.95 93.25 82.95 91.8 88 90.75 90.45 89.7 92.9 87.4 98.6 87.2 99.7 85.2 102.75 84.8 103.5 84.2 104.2 83.85 104.75 83.15 106.2
L 82.25 108.3
Q 87.3 108.7 94.35 107.25 101.9 105.65 104.4 95.15 106.85 84.55 106.9 73.2 106.95 66 106.75 61.5
L 106.7 61.15
Q 106.55 58.6 106.3 56.85 106.2 55.45 106 55.2 106 53.35 105.7 49.65 104.9 42.2 102.55 33.5 100.85 27.25 94.6 22.15 100.3 30.9 100.3 36.7
M 97 46.6
L 97 46.5 97.05 46.6
Q 97.55 47.5 98.2 48.95
L 98.2 49
Q 98.7 49.85 99.4 50.9 99.8 51.5 100.4 52.2 100.4 52.25 100.45 52.25
L 100.45 45
Q 101 47.3 101.85 51.1 101.9 51.45 101.95 51.9 102.6 55.05 103.5 58.6
L 103.5 63.6 103.5 64.3 103.15 64.3
Q 103.2 63.95 103.2 63.6 103.15 62.1 102.15 60.4
L 100.95 60.55
Q 101.1 62.05 101.4 64.7 101.45 65.25 101.55 65.9 101.55 66.15 101.6 66.45 101.6 67.35 101.55 68.1 101.4 69.05 101.2 69.7
L 100.8 69.7
Q 100.8 69.2 100.65 68.1
L 99.7 68.1
Q 99.7 68.3 99.7 68.45 99.6 69.15 99.6 69.85 99.5 71.7 99.4 74
L 99.35 74
Q 99.15 71.95 98.9 70.15 98.8 69.35 98.7 68.5 98.5 66.9 98.3 65.6 97.9 61.9 97.45 59.55 96.4 52.9 94.7 48.9 95.95 49.65 98.15 51.95
L 98.15 50.1
Q 97.55 49.8 97.2 48.7 97.1 48.65 97.1 48.55 96.9 47.75 97 46.6
M 68.65 25.95
Q 69.669921875 25.7556640625 70.3 25.75 69.7234375 25.7390625 68.9 25.4
L 68.65 25.95 Z"/>

<path fill="#FFFFFF" stroke="none" d="
M 48.25 55.35
L 48.25 55.4
Q 47.7 56.1 47.65 56.25
L 47.65 52.95
Q 46.6 55.2 45.5 58.6 44.95 60.25 44.45 61.9 44.4 62.25 44.3 62.6 42.65 68.45 42.65 73 42.65 74.7 44.15 79.65 45.7 84.45 46.1 84.7
L 46.1 83.85
Q 45.3 77.7 45.3 76.05 45.3 73.1 45.35 72.4 45.45 71.15 45.75 70.2 45.9 69.7 46.1 69.35
L 46.4 70.1
Q 46.4 70.45 46.4 70.8 46.4 71.55 46.55 72.35 46.65 74.05 47.25 75.85 47.65 73.7 48 70.8 48.1 69.7 48.25 68.55 48.3 67.75 48.45 66.85 48.45 66.3 48.55 65.7 48.6 65.1 48.7 64.55 48.95 61.15 49.2 58.95 49.3 57.9 49.45 57.2 49.6 56.65 49.7 56.25 49.8 56.05 49.85 55.85 50.35 54.1 50.35 52.35
L 50 52.25
Q 50 52.6 48.95 54.3 48.6 54.85 48.3 55.2 48.25 55.25 48.25 55.35
M 62.6 21.8
L 61.1 21.8
Q 60.5 21.8 60 22.05 59 22.55 58.85 22.65
L 58.85 22.2
Q 59.721875 20.84375 60.25 20.4 54.848828125 24.2681640625 54.5 29.8
L 54.55 29.85 54.55 29.8
Q 54.7 29.55 55.15 28.8 55.45 28.1 56.1 27.6
L 56.1 28.05
Q 55.65 29.55 55.35 29.9
L 55.35 34.25 55.65 34.25
Q 56.1 31.2 58.1 29.9 58.1 31.5 58.55 34.7 58.65 35.7 58.8 36.8
L 58.85 36.8
Q 59.35 34.95 59.75 33.5 60.15 32.15 60.45 31.2 61.3 28.65 62.55 27.3 62.55 27.15 62.6 27.05 62.7 26.9 62.7 26.8 62.8 26.2 63 25.8 63.5 24.4 64.2 23.4 62.9 23.4 60.3 25 60.9 24.55 61.2 23.2 61.55 22.05 62.6 21.8
M 98.2 48.95
Q 97.55 47.5 97.05 46.6
L 97 46.6
Q 96.9 47.75 97.1 48.55 97.1 48.65 97.2 48.7 97.55 49.8 98.15 50.1
L 98.15 51.95
Q 95.95 49.65 94.7 48.9 96.4 52.9 97.45 59.55 97.9 61.9 98.3 65.6 98.5 66.9 98.7 68.5 98.8 69.35 98.9 70.15 99.15 71.95 99.35 74
L 99.4 74
Q 99.5 71.7 99.6 69.85 99.6 69.15 99.7 68.45 99.7 68.3 99.7 68.1 99.7 67.85 99.7 67.65 99.7 67.55 99.7 67.4 99.75 65.75 99.75 64.55 99.75 64.2 99.75 64.15 99.75 64.2 99.8 64.55 99.95 65.35 100.25 66.6 100.45 67.4 100.65 68.1 100.8 69.2 100.8 69.7
L 101.2 69.7
Q 101.4 69.05 101.55 68.1 101.6 67.35 101.6 66.45 101.55 66.15 101.55 65.9 101.45 65.25 101.4 64.7 101.1 62.05 100.95 60.55 100.8 59 100.8 58.6
L 100.8 57
Q 100.85 58.05 102.15 60.4 103.15 62.1 103.2 63.6
L 103.5 63.6 103.5 58.6
Q 102.6 55.05 101.95 51.9 101.9 51.45 101.85 51.1 101 47.3 100.45 45
L 100.45 52.25
Q 100.4 52.25 100.4 52.2 99.8 51.5 99.4 50.9 98.7 49.85 98.2 49
L 98.2 48.95
M 86.6 26.85
Q 86.4 26.5 86.1 26.15 84.45 23.7 81.65 22.05 78.75 20.4 75.5 19.95 76.1 19.5 77.7 19.1 79.45 18.6 80 18.75 78 17.85 77.25 17.65 76.1 17.3 74.6 17.3 73.9 17.3 73.1 17.35 71.7 17.6 70.65 17.8 69.55 18.05 68.3 18.55 66.65 19.3 66.2 21.1 67.75 21.1 70.75 21.45 68.5 22.7 66.55 24.25 66.65 24.3 66.85 24.4 67.3 24.8 68.45 25.2 68.7 25.3 68.9 25.4 69.7234375 25.7390625 70.3 25.75 69.669921875 25.7556640625 68.65 25.95 67.4 26.15 66.55 26.15 68.85 28.7 71.55 33.5 74.4 37.5 80 40 78.4 37.6 77.15 35.45 74.65 31.35 74.65 29.9
L 74.65 28.4
Q 74.9 28.5 75.2 28.7 77.1 29.85 81.4 32.55
L 81.6 32.35
Q 81.05 30.25 79.5 28.2 78.7 26.9 77.85 26.15 77 25.3 76.1 25
L 78.6 25
Q 78.7 25 86.6 26.85 Z"/>

<path fill="#FFE1C4" stroke="none" d="
M 85.4 97.25
L 85.4 90.4
Q 84.1 92 81.6 93.4 77.5 95.8 74.2 95.8 72 95.8 67.4 93.4 64.9 92.05 63.65 91.15
L 63.65 97.95 63.65 100.35
Q 64.35 103.85 68.1 106.1 71.65 108.3 75.8 108.3 77.15 108.3 79.6 107.25 81.8 106.35 82.3 105.8 82.9 105.25 83.45 104.6 83.95 103.9 84.45 103.15 85.1 101.65 85.4 100
L 85.4 97.25
M 93.75 60.2
Q 93.5 60.15 93.35 60.05 90.65 58.45 86.25 58.4 81.25 58.25 79.45 59.1 77.65 60 76.7 64.9 77.3 58.55 78.25 54.7 78.95 52.35 80.85 50.9 81.05 50.6 81.4 50.4 72.7 45.75 70.35 43.9 64.8 39.25 64.95 32.75 64.95 32.7 64.95 32.65 64.95 32.45 64.9 32.25 64.8 32.35 64.75 32.5 62.3 38.05 58.65 47.2 58.6 47.45 58.55 47.75 60.95 48 63.6 48.8 68.65 50.55 69.75 54.7 70.75 58.45 70.85 61.7 68.65 58.8 67.55 58.1 66.4 57.55 61.8 57.2 57.5 56.85 53.4 59.5 53.4 59.55 53.4 59.6 53.25 61.8 52.9 65.1 52.35 69.7 52.35 71.8 52.35 72.45 52.4 73.15 52.5 74.25 52.65 75.45 53 76.15 53.4 76.75 53.8 77.3 54.2 77.85 54.5 78.25 54.85 78.8 55.45 79.55 56.1 80.2 56.8 80.9 57.5 81.55 57.5 81.6 57.55 81.6 58.15 82.25 58.8 82.8 60.75 84.45 63 86.05 63.4 86.25 63.65 86.5 68.25 89.45 74.25 92 80.7 89.4 85.4 86.25 90.6 82.7 93.95 78.7 94.3 78.15 94.7 77.55 94.7 76.35 94.7 75.1 94.35 66.3 94.05 60.45 93.85 60.25 93.75 60.2
M 67.85 67.65
Q 67.95 67.6 68 67.55
L 67.95 67.65 67.85 67.65 Z"/>

<path fill="#FEDC56" stroke="none" d="
M 94.6 22.15
Q 92.15 20.1 89 18.25 77.85 11.75 71.75 12.2 65.75 12.6 65.1 14.6 64.5 16.55 63.85 17 61.5 16.8 56.95 16.75 52.4 16.6 46.2 26.85 43.9 30.4 42.35 35.55 42.55 37.3 43.55 38.7 44.95 40.6 47.1 40.6 51.4 40.6 57.2 35.85 57.8 35.3 58.55 34.7 58.1 31.5 58.1 29.9 56.1 31.2 55.65 34.25
L 55.35 34.25 55.35 29.9 54.55 29.8 54.55 29.85 54.5 29.9
Q 54.5 29.85 54.5 29.8 54.848828125 24.2681640625 60.25 20.4 59.721875 20.84375 58.85 22.2
L 58.85 22.65
Q 59 22.55 60 22.05 60.5 21.8 61.1 21.8
L 62.6 21.8
Q 61.55 22.05 61.2 23.2 60.9 24.55 60.3 25 62.9 23.4 64.2 23.4 63.5 24.4 63 25.8 62.8 26.2 62.7 26.8 62.7 26.9 62.6 27.05 62.55 27.15 62.55 27.3 61.3 28.65 60.45 31.2 60.15 32.15 59.75 33.5 61.2 32.1 62.9 30.25 63.85 31.45 64.75 32.5 64.8 32.35 64.9 32.25 64.95 32.45 64.95 32.65 64.95 32.7 64.95 32.75 69.45 37.85 73.95 40.1 80 43.2 89.7 43.2 92.85 43.2 96.4 41.2 100.3 39.1 100.3 36.7 100.3 30.9 94.6 22.15
M 86.1 26.15
Q 86.4 26.5 86.6 26.85 78.7 25 78.6 25
L 77.85 26.15
Q 78.7 26.9 79.5 28.2 81.05 30.25 81.6 32.35
L 81.4 32.55
Q 77.1 29.85 75.2 28.7
L 74.65 29.9
Q 74.65 31.35 77.15 35.45 78.4 37.6 80 40 74.4 37.5 71.55 33.5 68.85 28.7 66.55 26.15 67.4 26.15 68.65 25.95
L 68.9 25.4
Q 68.7 25.3 68.45 25.2 67.3 24.8 66.85 24.4 66.65 24.3 66.55 24.25 68.5 22.7 70.75 21.45 67.75 21.1 66.2 21.1 66.65 19.3 68.3 18.55 69.55 18.05 70.65 17.8 71.7 17.6 73.1 17.35 73.9 17.3 74.6 17.3 76.1 17.3 77.25 17.65 78 17.85 80 18.75 79.45 18.6 77.7 19.1 76.1 19.5 75.5 19.95 78.75 20.4 81.65 22.05 84.45 23.7 86.1 26.15 Z"/>
</g>

<g id="gr_foto2_0_Layer0_0_MEMBER_0_MEMBER_0_MEMBER_0_MEMBER_0_FILL">
<path fill="#CC9900" stroke="none" d="
M 80.35 48.8
L 80.2 50.65
Q 91.85 48.6 99.15 49.9 93.05 46.9 80.35 48.8 Z"/>
</g>

<g id="gr_foto2_0_Layer0_0_MEMBER_0_MEMBER_0_MEMBER_0_MEMBER_1_FILL">
<path fill="#CC9900" stroke="none" d="
M 49.2 50
Q 56.65 48.75 68.2 50.7
L 68.1 48.85
Q 55.4 46.95 49.2 50 Z"/>
</g>

<g id="gr_foto2_0_Layer0_0_MEMBER_0_MEMBER_0_MEMBER_0_MEMBER_2_FILL">
<path fill="#FF6699" stroke="none" d="
M 73.9 76.65
Q 71.25 76.65 69.6 77.9 67.95 79.1 67.05 78.75 75.2 82.7 81.4 78.45 80.15 79 78.35 77.75 76.5 76.6 73.9 76.65 Z"/>

<path fill="#FF6666" stroke="none" d="
M 81.4 78.45
L 81.45 78.5
Q 81.5 78.45 81.5 78.35 81.45 78.45 81.4 78.45 Z"/>

<path fill="#FEBCBC" stroke="none" d="
M 81.45 78.5
L 81.4 78.45
Q 75.2 82.7 67.05 78.75 67.9 80.1 68.3 80.6 68.7 81.15 70.05 82.6 71.4 83.95 74.2 83.95 77.05 83.95 78.1 82.85 79.2 81.7 79.95 81 80.75 80.25 81.45 78.5 Z"/>
</g>

<g id="gr_foto2_0_Layer0_0_MEMBER_0_MEMBER_0_MEMBER_0_MEMBER_3_FILL">
<path fill="#FDB40B" stroke="none" d="
M 63.7 60.2
Q 63.7 60.25 63.7 60.3 63.75 60.3 63.8 60.25
L 63.7 60.2 Z"/>

<path fill="#006666" stroke="none" d="
M 63.8 60.25
Q 63.85 60.2 64 60.05
L 63.7 60.1 63.7 60.2 63.8 60.25 Z"/>

<path fill="#996600" stroke="none" d="
M 63 58.55
Q 62.3 57.9 61.15 57.9 59.9 57.9 59 58.45 58.45 58.8 58.3 59.25 58.45 59.75 58.95 60.05 60 61.05 61.45 61.05 62.7 61.05 63.7 60.3 63.7 60.25 63.7 60.2
L 63.7 60.1
Q 63.7 59.2 63 58.55 Z"/>

<path fill="#000000" stroke="none" d="
M 64 55.3
Q 62.95 54.4 61.45 54.4 60.1 54.4 59.15 55.2 59 55.25 58.95 55.3 57.8 56.3 57.8 57.7 57.8 58.55 58.3 59.25 58.45 58.8 59 58.45 59.9 57.9 61.15 57.9 62.3 57.9 63 58.55 63.7 59.2 63.7 60.1
L 64 60.05
Q 65.05 59.05 65.05 57.7 65.05 56.3 64 55.3
M 61.55 56.35
Q 61.55 56.7 61.3 57.1 60.9 57.55 60.25 57.55 59.55 57.55 59.2 57.05 59 56.65 59 56.35 59 55.75 59.35 55.45 59.65 55.2 60.25 55.25 61.55 55.3 61.55 56.35 Z"/>

<path fill="#FFFFFF" stroke="none" d="
M 61.3 57.1
Q 61.55 56.7 61.55 56.35 61.55 55.3 60.25 55.25 59.65 55.2 59.35 55.45 59 55.75 59 56.35 59 56.65 59.2 57.05 59.55 57.55 60.25 57.55 60.9 57.55 61.3 57.1 Z"/>
</g>

<g id="gr_foto2_0_Layer0_0_MEMBER_0_MEMBER_0_MEMBER_0_MEMBER_4_FILL">
<path fill="#FEC289" stroke="none" d="
M 70.55 69.25
Q 70.65 68.55 70.7 68.15
L 70.25 69.65
Q 70.2 70.85 70.45 71.5 70.7 72.15 72.3 73.6 73.8 75.05 74.8 75.05 75.65 75.05 76.9 73.05 78.05 71.25 78.05 70.6 78.05 70.15 77.75 69.2 77.9 70.4 77.4 70.85 76.65 71.7 75.25 72.3 73.95 72.85 72.1 71.7 70.25 70.55 70.55 69.25 Z"/>
</g>

<g id="gr_foto2_0_Layer0_0_MEMBER_0_MEMBER_0_MEMBER_0_MEMBER_5_FILL">
<path fill="#FDB40B" stroke="none" d="
M 88.9 60.3
Q 88.95 60.3 89.05 60.25
L 88.9 60.2
Q 88.9 60.25 88.9 60.3 Z"/>

<path fill="#006666" stroke="none" d="
M 89.25 60.05
L 88.9 60.1 88.9 60.2 89.05 60.25
Q 89.1 60.2 89.25 60.05 Z"/>

<path fill="#996600" stroke="none" d="
M 84.2 58.45
Q 83.7 58.8 83.5 59.25 83.7 59.75 84.15 60.05 85.2 61.05 86.65 61.05 87.9 61.05 88.9 60.3 88.9 60.25 88.9 60.2
L 88.9 60.1
Q 88.9 59.2 88.25 58.55 87.5 57.9 86.4 57.9 85.15 57.9 84.2 58.45 Z"/>

<path fill="#000000" stroke="none" d="
M 89.25 55.3
Q 88.2 54.4 86.65 54.4 85.35 54.4 84.35 55.2 84.3 55.25 84.15 55.3 83.05 56.3 83.05 57.7 83.05 58.55 83.5 59.25 83.7 58.8 84.2 58.45 85.15 57.9 86.4 57.9 87.5 57.9 88.25 58.55 88.9 59.2 88.9 60.1
L 89.25 60.05
Q 90.3 59.05 90.3 57.7 90.3 56.3 89.25 55.3
M 84.55 55.45
Q 84.9 55.2 85.5 55.25 86.8 55.3 86.8 56.35 86.8 56.7 86.55 57.1 86.15 57.55 85.5 57.55 84.75 57.55 84.4 57.05 84.2 56.65 84.2 56.35 84.2 55.75 84.55 55.45 Z"/>

<path fill="#FFFFFF" stroke="none" d="
M 85.5 55.25
Q 84.9 55.2 84.55 55.45 84.2 55.75 84.2 56.35 84.2 56.65 84.4 57.05 84.75 57.55 85.5 57.55 86.15 57.55 86.55 57.1 86.8 56.7 86.8 56.35 86.8 55.3 85.5 55.25 Z"/>
</g>

<g id="gr_foto2_0_Layer0_0_MEMBER_0_MEMBER_1_FILL">
<path fill="#FFFFFF" fill-opacity="0.3607843137254902" stroke="none" d="
M 101.7 54.3
Q 85 45.9 77.8 60.7 92.7 68.4 101.7 54.3
M 46.8 54.3
Q 55.8 68.4 70.7 60.7 63.55 45.9 46.8 54.3 Z"/>
</g>

<path id="gr_foto2_0_Layer0_0_MEMBER_0_MEMBER_0_MEMBER_0_1_STROKES" stroke="#FF9900" stroke-width="1" stroke-linejoin="round" stroke-linecap="round" fill="none" d="
M 93.35 60.05
Q 93.5 60.15 93.75 60.2"/>

<path id="gr_foto2_0_Layer0_0_MEMBER_0_MEMBER_0_MEMBER_0_MEMBER_2_1_STROKES" stroke="#FF0066" stroke-width="1" stroke-linejoin="round" stroke-linecap="round" fill="none" d="
M 81.4 78.45
Q 75.2 82.7 67.05 78.75"/>

<path id="gr_foto2_0_Layer0_0_MEMBER_0_MEMBER_1_1_STROKES" stroke="#333333" stroke-width="1" stroke-linejoin="round" stroke-linecap="round" fill="none" d="
M 46.8 54.3
Q 55.8 68.4 70.7 60.7 63.55 45.9 46.8 54.3 Z
M 70.7 60.7
Q 74.65 56.75 77.8 60.7 85 45.9 101.7 54.3 92.7 68.4 77.8 60.7"/>
</defs>

<g id="btn_02" transform="matrix( 1, 0, 0, 1, -18,-12.15) ">
<g transform="matrix( 1, 0, 0, 1, 0,0) ">
<g transform="matrix( 1, 0, 0, 1, 0,0) ">
<use xlink:href="#gr_foto2_0_Layer0_0_MEMBER_0_FILL"/>
</g>

<g transform="matrix( 1, 0, 0, 1, 0,0) ">
<use xlink:href="#gr_foto2_0_Layer0_0_MEMBER_0_MEMBER_0_MEMBER_0_FILL"/>

<use xlink:href="#gr_foto2_0_Layer0_0_MEMBER_0_MEMBER_0_MEMBER_0_1_STROKES"/>
</g>

<g transform="matrix( 1, 0, 0, 1, 0,0) ">
<use xlink:href="#gr_foto2_0_Layer0_0_MEMBER_0_MEMBER_0_MEMBER_0_MEMBER_0_FILL"/>
</g>

<g transform="matrix( 1, 0, 0, 1, 0,0) ">
<use xlink:href="#gr_foto2_0_Layer0_0_MEMBER_0_MEMBER_0_MEMBER_0_MEMBER_1_FILL"/>
</g>

<g transform="matrix( 1, 0, 0, 1, 0,0) ">
<use xlink:href="#gr_foto2_0_Layer0_0_MEMBER_0_MEMBER_0_MEMBER_0_MEMBER_2_FILL"/>

<use xlink:href="#gr_foto2_0_Layer0_0_MEMBER_0_MEMBER_0_MEMBER_0_MEMBER_2_1_STROKES"/>
</g>

<g transform="matrix( 1, 0, 0, 1, 0,0) ">
<use xlink:href="#gr_foto2_0_Layer0_0_MEMBER_0_MEMBER_0_MEMBER_0_MEMBER_3_FILL"/>
</g>

<g transform="matrix( 1, 0, 0, 1, 0,0) ">
<use xlink:href="#gr_foto2_0_Layer0_0_MEMBER_0_MEMBER_0_MEMBER_0_MEMBER_4_FILL"/>
</g>

<g transform="matrix( 1, 0, 0, 1, 0,0) ">
<use xlink:href="#gr_foto2_0_Layer0_0_MEMBER_0_MEMBER_0_MEMBER_0_MEMBER_5_FILL"/>
</g>

<g transform="matrix( 1, 0, 0, 1, 0,0) ">
<use xlink:href="#gr_foto2_0_Layer0_0_MEMBER_0_MEMBER_1_FILL"/>

<use xlink:href="#gr_foto2_0_Layer0_0_MEMBER_0_MEMBER_1_1_STROKES"/>
</g>
</g>
</g>
</svg>
