<?xml version="1.0" encoding="utf-8"?>
<!-- Generator: Adobe Illustrator 16.0.0, SVG Export Plug-In . SVG Version: 6.00 Build 0)  -->
<!DOCTYPE svg PUBLIC "-//W3C//DTD SVG 1.1//EN" "http://www.w3.org/Graphics/SVG/1.1/DTD/svg11.dtd">
<svg version="1.1" id="Camada_1" xmlns="http://www.w3.org/2000/svg" xmlns:xlink="http://www.w3.org/1999/xlink" x="0px" y="0px"
	 width="149px" height="149px" viewBox="0 0 149 149" enable-background="new 0 0 149 149" xml:space="preserve">
<g transform="matrix( 1, 0, 0, 1, -239.1,-2.1) ">
	<g>
		<g id="Layer0_0_FILL">
			<path fill="#009933" d="M380.1,42.6c-3.482-6.715-8.099-12.948-13.85-18.7c-2.834-2.833-5.783-5.4-8.851-7.7
				c-1.267,2.2-2.417,4.1-3.45,5.7l4.65,0.15c0.033,0.267-0.1,0.466-0.4,0.6c-0.3,0.066-0.416,0.3-0.35,0.7
				c0.233-0.1,0.5-0.3,0.8-0.6l0.15,0.6c0.1,0.333,0.366,0.45,0.8,0.35c-1.033,0.333-2,0.267-2.9-0.2c-1-0.5-1.732-0.7-2.199-0.6
				c0-0.034-0.234-0.284-0.7-0.75c-0.134,0.167-0.25,0.35-0.351,0.55c0.2,0.2,0.484,0.35,0.851,0.45c0.999,0.233,1.566,0.5,1.7,0.8
				c-0.167,0.267-1.084-0.067-2.75-1c-0.5,0.733-0.967,1.4-1.4,2c-0.133,0.2-0.316,0.2-0.55,0c0.399-0.533,0.884-1.233,1.45-2.1
				c-0.167,0.067-0.367,0.25-0.601,0.55c-0.5,0.633-1,0.85-1.5,0.65c-0.033-0.167,0.134-0.267,0.5-0.3c0.333,0,0.417-0.2,0.25-0.6
				c-0.966-0.067-1.483-0.083-1.55-0.05c0-0.567,0.35-0.8,1.05-0.7c0.667,0.133,1.017,0.383,1.05,0.75
				c0.234,0.033,0.268-0.1,0.101-0.4c-0.134-0.233,0.017-0.3,0.45-0.2c-0.033-0.3-0.384-0.4-1.051-0.3
				c-0.633,0.067-0.967-0.083-1-0.45L353,21.85c0,0.133,0.033,0.267,0.1,0.4c0.934-1.5,2.066-3.45,3.4-5.85
				c0.1-0.2,0.217-0.4,0.35-0.6c-2.934-2.133-5.983-4.034-9.15-5.7c-0.1,0.033-0.184,0.05-0.25,0.05
				c-0.166,0.633-0.283,0.9-0.35,0.8c-0.033,0-0.084-0.283-0.15-0.85c-5.934-0.433-13.866-0.767-23.8-1
				c-3.8-0.067-7.183-0.133-10.15-0.2c-0.333,0.1-0.517,0.2-0.55,0.3c-0.3-0.067-0.55,0.066-0.75,0.4
				c-0.233,0.367-0.417,0.55-0.55,0.55c0.3-0.333,0.467-0.65,0.5-0.95c0.567-0.167,0.317-0.283-0.75-0.35
				C305,8.717,301.033,8.6,299,8.5V8.15l47.45,1.35c-9.934-4.933-20.883-7.4-32.85-7.4c-13.333,0-25.417,3.067-36.25,9.2
				c-0.033,0.033-0.083,0.083-0.15,0.15c0.033,0,0.367-0.033,1-0.1c0.2-0.033,0.383,0.117,0.55,0.45
				c-0.333,0.233-0.783,0.283-1.35,0.15c-0.3-0.067-0.383,0.1-0.25,0.5c-0.6-0.7-0.933-0.617-1,0.25H275
				c-4.967,3.066-9.667,6.8-14.1,11.2c-14.533,14.566-21.8,32.133-21.8,52.7c0,20.566,7.267,38.117,21.8,52.65
				c0.733,0.732,1.483,1.449,2.25,2.15l0.1-4.15l1.75,0.05c-0.467,0.533-0.816,0.966-1.05,1.3c-0.367,0.533-0.55,1.15-0.55,1.85
				v1.201c14.067,12.966,30.8,19.449,50.2,19.449c9.533,0,18.416-1.55,26.65-4.65l5.449-4.649c-0.732,0.733-1.783,1.966-3.149,3.7
				c1.466-0.634,2.933-1.301,4.399-2c-0.066-0.268-0.116-0.417-0.149-0.45c-0.001-0.2,0.149-0.333,0.45-0.399
				c0.366,0,0.583-0.084,0.649-0.25c-0.2-0.135-0.3-0.135-0.3,0c-0.267,0-0.334-0.217-0.2-0.65h0.45
				c0.166,0.232,0.217,0.516,0.15,0.85c-0.101,0.334-0.334,0.483-0.7,0.45c0.033,0.066,0.116,0.101,0.25,0.101
				c0.3-0.168,0.6-0.317,0.899-0.451c-0.033-0.1-0.066-0.199-0.1-0.299c0.066,0.033,0.2,0.082,0.4,0.149
				c2.266-1.267,4.482-2.649,6.649-4.149c0.333-0.635,0.7-1.301,1.101-2c2.133-3.734,3.766-6.201,4.899-7.4
				c-1.733,3.232-3.316,6.066-4.75,8.5c3.333-2.434,6.534-5.184,9.601-8.25c13-12.967,20.199-28.334,21.6-46.1
				c-0.467,0.633-1.1,1.115-1.9,1.449c-1-0.334-1.75-0.75-2.25-1.25c-0.166,0.666-0.25,0.166-0.25-1.5
				c0-1.066,0.301-1.717,0.9-1.949c0.334-0.168,0.867-0.268,1.6-0.301c0.801,0.334,1.484,0.801,2.051,1.4
				c0.066-1.467,0.1-2.934,0.1-4.4c0-5.321-0.483-10.438-1.45-15.35c-0.894-4.505-2.194-8.838-3.899-13
				C381.959,46.33,381.076,44.447,380.1,42.6 M345.7,21.8c-0.399,0.4-0.866,0.917-1.399,1.55c4.466,2.667,8.667,5.967,12.6,9.9
				c2.97,2.969,5.569,6.086,7.8,9.35c2.088,3.039,3.854,6.206,5.301,9.5c0.666,1.533,1.283,3.083,1.85,4.65
				c0.498,1.477,0.931,2.977,1.3,4.5c1.267,5.012,1.899,10.279,1.9,15.8c-0.001,17.134-6.05,31.733-18.15,43.8
				c-3.333,3.334-6.833,6.217-10.5,8.65l13.9,0.35c-0.034,0.1-0.217,0.2-0.55,0.301c-1.467-0.301-2.334-0.217-2.601,0.25h-0.2
				c-3.199-0.701-6.366-0.784-9.5-0.25c-0.166,0.633-0.283,0.899-0.35,0.799c-0.033,0-0.084-0.283-0.15-0.85
				c-0.467-0.033-0.934-0.066-1.399-0.1c-9.567,6.033-20.384,9.05-32.45,9.05c-0.467,0-0.933,0-1.4,0
				c-0.067,0.066-0.133,0.134-0.2,0.2c0.033,0,0.35-0.051,0.95-0.15c0.233-0.033,0.433,0.133,0.6,0.5
				c-0.367,0.233-0.817,0.283-1.35,0.15c-0.3-0.066-0.383,0.1-0.25,0.5c-0.6-0.7-0.934-0.617-1,0.25l-0.25,0.05l-1.85-0.101
				c0.6-0.399,0.867-0.899,0.8-1.5c-0.1,0-0.183,0-0.25,0c-0.267,0-0.517,0-0.75,0c-0.1,0-0.183-0.033-0.25-0.1
				c-11.1-0.834-21.083-4.383-29.95-10.65c-0.067,0.033-0.117,0.066-0.15,0.101c0.267,0.399,0.267,0.816,0,1.25v0.351l-0.55-0.051
				l0.1-1.55c-0.067-0.333-0.25-0.45-0.55-0.351v-0.399h0.25c-2.7-1.967-5.3-4.2-7.8-6.7c-7.533-7.533-12.717-16.033-15.55-25.5
				l-3.4-0.1V94.95c0.767-0.066,1.85-0.083,3.25-0.049c-0.667-2.334-1.2-4.717-1.6-7.15c-0.233,0.033-0.517,0-0.85-0.1
				c-0.233-0.034-0.3,0.1-0.2,0.399c-0.633-0.634-0.983-0.517-1.05,0.351l-2-0.051c0.533-0.467,0.817-1,0.85-1.6
				c-0.467,0.033-0.817,0.066-1.05,0.1c-0.5,0-0.583-0.367-0.25-1.1c0.967,0.766,1.55,0.9,1.75,0.4l0.05-0.65l1.5,0.05
				c-0.967,0.8-1.483,1.533-1.55,2.2c0.633,0,1.067-0.533,1.3-1.6c1.167-0.234,1.316,0.1,0.45,1c0.3,0.033,0.617,0,0.95-0.101
				c-0.5-3.233-0.75-6.567-0.75-10c0-17.1,6.05-31.7,18.15-43.8c0.967-0.967,1.967-1.9,3-2.8c-0.267,0.066-0.583,0.083-0.95,0.05
				c-1-0.1-1.684-0.083-2.05,0.05c0-0.3,0.167-0.417,0.5-0.35c0.5,0.033,0.767,0.05,0.8,0.05c0.267-0.167,0.066-0.267-0.6-0.3
				c-0.7-0.067-0.833-0.3-0.4-0.7h1.3c0.1,0.533,0.383,0.733,0.85,0.6c0.5-0.2,0.883-0.167,1.15,0.1
				c11.4-9.9,24.817-14.85,40.25-14.85c2.533,0,5.017,0.133,7.45,0.4c0.033-0.066,0.083-0.133,0.149-0.2l-0.05,0.2
				c1.534,0.167,3.05,0.4,4.55,0.7c0.301-0.1,0.65-0.4,1.051-0.9l-0.101,0.3c0.034,0.233,0.15,0.517,0.351,0.85
				c6.232,1.3,12.083,3.55,17.55,6.75L345.7,21.8 M348.35,22.4c0.133,0.033,0.383,0.116,0.75,0.25c0.166,0.1,0.334,0.033,0.5-0.2
				c0.033,0.4-0.033,0.833-0.2,1.3c1.034,0.067,1.267,0.184,0.7,0.35C349.2,24.133,348.617,23.567,348.35,22.4 M347.9,22.4
				c-0.2-0.134-0.3-0.134-0.3,0c-0.267,0-0.334-0.217-0.2-0.65h0.45c0.166,0.233,0.217,0.517,0.15,0.85
				c-0.101,0.333-0.334,0.483-0.7,0.45c0.033,0.1,0.3,0.117,0.8,0.05c0.166,0,0.316,0.2,0.45,0.6c-0.434,0.133-0.684,0.45-0.75,0.95
				c-0.333,0.033-0.567-0.167-0.7-0.6c-0.166-0.6-0.267-0.934-0.3-1c-0.001-0.2,0.149-0.333,0.45-0.4
				C347.617,22.65,347.833,22.567,347.9,22.4 M359.5,20.45v-0.3c0.3-0.1,0.449-0.184,0.449-0.25h1.851
				c0.7,0.133,0.833,1.433,0.399,3.9l-0.25-0.05l-0.05-0.6C361.233,21.583,360.434,20.684,359.5,20.45 M358.8,24.95
				c0.1,0.367,0.017,0.583-0.25,0.65c-1.601-0.8-2.184-1.183-1.75-1.15C356.967,24.45,357.633,24.617,358.8,24.95 M359.15,33.45
				v-0.3c0.233,0,0.483-0.1,0.75-0.3c0.2,0,0.384-0.117,0.55-0.35c0.033,0.233,0.184,0.4,0.45,0.5c0.233,0.1,0.333,0.267,0.3,0.5
				L359.15,33.45 M380.2,92.55c0.167,0.233,0.25,0.833,0.25,1.8s-0.016,1.467-0.05,1.5c-0.066,0.2-0.134,0.45-0.2,0.75
				c-0.066,0-0.35,0.133-0.85,0.4c-0.566,0.3-1.033,0.5-1.4,0.6c-1.566-1.566-2.35-2.617-2.35-3.15c0-2.266,1.45-3.049,4.35-2.35
				C379.95,92.2,380.034,92.35,380.2,92.55 M326.95,144.901l0.301,0.049l-0.15,3.5h-0.75c0.033-0.266-0.066-0.467-0.3-0.6
				c-0.267-0.1-0.417-0.233-0.45-0.4c0.5-0.633,0.85-1.166,1.05-1.6v-0.3C326.916,145.483,327.016,145.266,326.95,144.901
				 M315.2,11.2c0.167,0.066,0.334,0.183,0.5,0.35c-0.199,0.1-0.467,0.75-0.8,1.95c0.3-0.033,0.45,0.067,0.45,0.3h-0.45
				c-0.033-0.133-0.3-0.133-0.8,0C314.7,12.633,315.067,11.767,315.2,11.2 M295.45,10.35h0.3c0.133,0.9-0.217,1.533-1.05,1.9
				c-0.233,0.033-0.25-0.15-0.05-0.55c0.167-0.434,0.1-0.667-0.2-0.7c0.1-0.333,0.217-0.35,0.35-0.05c0.2,0.367,0.417,0.5,0.65,0.4
				V10.35 M303,11.15c-0.667-0.067-0.95,0.15-0.85,0.65l2.05,0.1c-0.567,0.6-1.233,0.716-2,0.35c-0.9-0.4-1.617-0.45-2.15-0.15
				c0.133-0.967,1-1.35,2.6-1.15v-0.4h0.55c0.033,0.133,0.367,0.25,1,0.35C304.133,11.233,303.733,11.317,303,11.15 M262.65,29.85
				l0.05-2.2c0,0.433,0.233,0.816,0.7,1.15c0.5,0.3,0.75,0.65,0.75,1.05H262.65 M267.5,28.8c-0.033-0.6,0.15-0.867,0.55-0.8
				c0.1,0.3,0.05,0.7-0.15,1.2c-0.066,0.267-0.033,0.417,0.1,0.45v0.3h-0.75C267.417,29.917,267.5,29.533,267.5,28.8 M291.7,143.2
				c-0.467,0.033-0.817,0.066-1.05,0.101c-0.5,0-0.583-0.366-0.25-1.101c0.967,0.768,1.55,0.9,1.75,0.4l0.05-0.65l1.5,0.051
				c-0.967,0.8-1.483,1.533-1.55,2.199c0.633,0,1.067-0.533,1.3-1.6c1.167-0.233,1.316,0.1,0.45,1c0.333,0.033,0.667-0.017,1-0.15
				c0.2-0.033,0.383,0.134,0.55,0.5c-0.3,0.268-0.75,0.316-1.35,0.15c-0.233-0.033-0.3,0.1-0.2,0.4
				c-0.633-0.634-0.983-0.518-1.05,0.35l-2-0.05C291.383,144.333,291.667,143.8,291.7,143.2 M315.75,141.85l-0.25-0.1
				c0.934-0.7,2.083-1.25,3.449-1.65c-0.333,0.367-0.866,0.684-1.6,0.95C316.583,141.317,316.05,141.583,315.75,141.85 M275.5,129.8
				l1.5,0.05c-0.933,0.733-1.467,1.467-1.6,2.2c0.7,0.033,1.15-0.5,1.35-1.601c1.1-0.199,1.25,0.134,0.45,1
				c0.033,0,0.367-0.033,1-0.1c0.2-0.033,0.383,0.117,0.55,0.45c-0.333,0.233-0.783,0.283-1.35,0.149
				c-0.3-0.066-0.383,0.101-0.25,0.5c-0.6-0.699-0.933-0.616-1,0.25l-2.05-0.049c0.567-0.434,0.833-0.951,0.8-1.551
				c-0.4,0.033-0.75,0.051-1.05,0.051c-0.433,0-0.5-0.367-0.2-1.101c0,0.333,0.25,0.601,0.75,0.8c0.534,0.133,0.883,0.017,1.05-0.35
				L275.5,129.8 M310.85,139c-0.267,0-0.533,0-0.8,0c-0.167,0.266-0.284,0.533-0.35,0.8C310.2,139.833,310.583,139.567,310.85,139
				 M319.219,82.651c-0.633,1-1.217,1.933-1.75,2.799l3.7,0.15L319.219,82.651 M317.319,85.7c-0.133,0.167-0.267,0.351-0.4,0.551
				c0.233,0.199,0.534,0.35,0.901,0.449c1,0.234,1.566,0.5,1.699,0.801c-0.166,0.266-1.083-0.066-2.75-1
				c-0.066,0.1-0.134,0.199-0.2,0.3l1.4,2.101h3.601c-1.233-0.635-1.65-0.934-1.25-0.9c0.166,0,0.833,0.166,2,0.5
				c0.033,0.166,0.05,0.3,0.05,0.4h1l-0.95-1.451c-0.767,0.101-1.5-0.033-2.2-0.399c-1-0.5-1.733-0.7-2.2-0.601
				C318.019,86.416,317.786,86.166,317.319,85.7 M321.87,86.6l-0.25-0.35c-0.233,0.1-0.316,0.316-0.25,0.65
				C321.502,86.833,321.669,86.733,321.87,86.6 M295.57,72.9c-1.5-0.067-3.067-0.117-4.7-0.15v16.151h12.25V84.6h-7.55v-4.55h7.55
				V75.8h-7.55V72.9 M290.87,72.5l4.7,0.15V71.4h7.55v-4.3h-12.25V72.5 M322.27,73.65c0.091-0.031,0.174-0.047,0.25-0.05
				c-0.047,0-0.113,0-0.2,0C322.286,73.6,322.27,73.617,322.27,73.65 M311.82,73.1V71h1.05c1.167,0,2.066,0.233,2.699,0.7
				c0.5,0.4,0.816,0.9,0.95,1.5l4.801,0.15c-0.034-1.9-0.667-3.4-1.9-4.5c-1.267-1.167-2.983-1.75-5.149-1.75h-7.2v5.85L311.82,73.1
				 M311.82,73.6c-0.3,0.033-0.583,0.067-0.85,0.1c-0.167,0.633-0.283,0.9-0.35,0.8c-0.033,0-0.083-0.283-0.15-0.85
				c-1.067-0.067-2.2-0.134-3.4-0.2V87.2l2.15-1.85c-0.533,0.533-1.25,1.35-2.15,2.45v1.101h4.7v-1.5
				c-0.267,0.166-0.417,0.433-0.45,0.799c-0.333,0.033-0.567-0.166-0.7-0.6c-0.167-0.6-0.267-0.934-0.3-1
				c0-0.199,0.15-0.334,0.45-0.4c0.367,0,0.583-0.083,0.65-0.25c-0.2-0.133-0.3-0.133-0.3,0c-0.267,0-0.333-0.217-0.2-0.649h0.45
				c0.167,0.233,0.217,0.517,0.15,0.851c-0.1,0.332-0.333,0.482-0.7,0.449c0.033,0.1,0.3,0.117,0.8,0.051
				c0.067,0,0.117,0.016,0.15,0.049v-6.25h0.55l3.298,4.951h0.9c0,0.133,0.033,0.266,0.1,0.399c0.634-1.034,1.367-2.267,2.201-3.7
				l-1.551-2.3c1.567-0.667,2.634-1.601,3.2-2.8s0.851-2.333,0.851-3.4c-0.333,0.033-0.55,0.15-0.65,0.35h-0.2
				c-1.333-0.3-2.649-0.483-3.95-0.55c0,0.066,0,0.15,0,0.25c0,2-1.233,3-3.699,3h-1V73.6 M287.32,72.7
				c-0.2-0.033-0.417-0.05-0.65-0.05c-0.4,0-0.783,0-1.15,0c0.6,0.267,1.2,0.583,1.8,0.95V72.7 M273.52,70.1
				c-0.566,0.567-1.05,1.2-1.45,1.9l6.2,0.15c0.8-0.467,1.75-0.7,2.85-0.7c1.133,0,2.383,0.3,3.75,0.9l2.45,0.05v-4.15
				c-2.2-0.967-4.267-1.45-6.2-1.45C278.12,66.8,275.587,67.9,273.52,70.1 M274.42,72.4c-0.9-0.034-1.75-0.05-2.55-0.05
				c-1,1.667-1.5,3.583-1.5,5.75c0,2.2,0.517,4.166,1.55,5.9c0.567-0.4,0.817-0.917,0.75-1.551c-0.367,0.033-0.7,0.051-1,0.051
				c-0.433-0.033-0.5-0.4-0.2-1.1c0,0.332,0.25,0.582,0.75,0.75c0.533,0.166,0.883,0.049,1.05-0.351l0.05-0.649l1.5,0.049
				c-0.934,0.734-1.467,1.451-1.6,2.15c0.7,0.066,1.15-0.449,1.35-1.55c1.1-0.2,1.25,0.134,0.45,1c0.033,0,0.35-0.05,0.95-0.149
				c0.233-0.034,0.433,0.133,0.6,0.5c-0.367,0.232-0.817,0.283-1.35,0.149c-0.3-0.067-0.383,0.101-0.25,0.5
				c-0.6-0.7-0.934-0.616-1,0.25l-0.25,0.05l-1.75-0.1c0.4,0.699,0.9,1.366,1.5,2c2.033,2.133,4.517,3.199,7.45,3.199
				c1.7,0,3.833-0.434,6.4-1.299v-5.25c-2.3,1.299-4.267,1.949-5.9,1.949c-0.167,0-0.333,0-0.5,0h-0.05
				c-0.767,0.267-1.3,0.533-1.6,0.801l-0.25-0.101c0.4-0.3,0.817-0.55,1.25-0.75c-1.333-0.2-2.433-0.767-3.3-1.7
				c-1.133-1.166-1.7-2.717-1.7-4.65c0-2.066,0.533-3.7,1.6-4.899c0.267-0.333,0.583-0.617,0.95-0.85c-0.467,0-0.9,0-1.3,0
				c-0.333,0.1-0.517,0.2-0.55,0.3c-0.3-0.066-0.55,0.067-0.75,0.4c-0.233,0.366-0.417,0.55-0.55,0.55
				c0.3-0.333,0.467-0.65,0.5-0.95C275.737,72.583,275.487,72.467,274.42,72.4 M338.483,71.75V67.1h-14.65v4.65h5v17.151h4.7V71.75
				H338.483 M326.45,16.45c-0.1-0.133-0.217-0.184-0.35-0.15c-0.066-0.1-0.15-0.1-0.25,0C326.05,16.333,326.25,16.383,326.45,16.45z
				 M350.186,70.992c-1.871-0.123-3.904-0.247-6.1-0.374l-6.851,18.361h4.351l1.6-4.258h7.85l0.5,1.384l0.9-0.744
				c-0.246,0.253-0.529,0.555-0.85,0.904l1.05,2.714h4.45l-0.4-1.064c-0.605-0.226-1.006-0.828-1.2-1.81
				c0.11,0,0.294,0.054,0.55,0.16L350.186,70.992 M347.086,74.397l2.449,6.386h-4.85L347.086,74.397 M353.686,86.851
				c0-0.248,0.184-0.408,0.55-0.479c0.366-0.035,0.583-0.123,0.65-0.266c-0.167-0.177-0.25-0.177-0.25,0
				c-0.333-0.035-0.417-0.319-0.25-0.852l0.55,0.107c0.166,0.247,0.184,0.549,0.05,0.904c-0.066,0.426-0.3,0.621-0.7,0.585
				c0.033,0.107,0.316,0.107,0.851,0c0.233,0.071,0.433,0.319,0.6,0.745c-0.5,0.177-0.8,0.567-0.899,1.171
				c-0.367,0.035-0.634-0.212-0.801-0.744C353.87,87.313,353.752,86.922,353.686,86.851 M344.286,70.194l5.7,0.159l-1.2-3.086
				h-3.399L344.286,70.194"/>
		</g>
	</g>
</g>
</svg>
