<svg xmlns="http://www.w3.org/2000/svg" width="151" height="151" viewBox="0 0 151 151"><path fill="#F00" d="M96.07 83.1v-.05.05m-61.1-15.15v-.05l.3.05h1.7V63.9H25.52v20.4h5.35l-1.15-.05c.6-.5.916-1.084.95-1.75-.5.033-.884.05-1.15.05-.568 0-.65-.4-.25-1.2 1.065.9 1.716 1.05 1.95.45l.05-.8 1.75.1c-1.1.934-1.7 1.768-1.8 2.5.732 0 1.232-.6 1.5-1.8 1.3-.233 1.482.134.55 1.1.332.034.682 0 1.05-.1.266-.066.482.116.65.55-.368.268-.868.316-1.5.15-.3-.066-.384.1-.25.5-.72-.72-1.105-.62-1.15.3h4.9v-4.05h-7.05v-4.2h7.05v-4h-7.05v-4.1h5.05m57.18 14.4v.35c.146-.22.296-.455.45-.7a1.716 1.716 0 0 0-.45.35m0-.65c.03.025.065.042.1.05a.448.448 0 0 0-.1-.25v.2m0-.75l.7.05c.016.152.05.285.1.4 1.036-1.618 2.253-3.72 3.65-6.3v-7.3a30.753 30.753 0 0 0-4.45-.55v13.7M84.283 67.4a919.12 919.12 0 0 0-6.1-.35l-6.85 17.25h4.35l1.6-4h7.85l.5 1.3.9-.7c-.246.24-.53.522-.85.85l1.05 2.55h4.45l-.4-1c-.605-.21-1.006-.777-1.2-1.7.11 0 .294.052.55.15l-5.85-14.35m-3.1 3.2l2.45 6h-4.85l2.4-6m6.6 11.7c0-.233.184-.384.55-.45.366-.033.583-.116.65-.25-.167-.166-.25-.166-.25 0-.333-.033-.417-.3-.25-.8l.55.1c.166.233.184.517.05.85-.066.4-.3.585-.7.55.033.102.316.102.85 0 .234.068.434.3.6.7-.5.167-.8.534-.898 1.1-.367.034-.634-.198-.8-.698-.168-.67-.285-1.035-.352-1.102m-9.4-15.65l5.7.15-1.2-2.9h-3.4l-1.1 2.75m42.078.75c-1.87-.114-3.903-.23-6.097-.35l-6.85 17.25h4.35l1.6-4h7.848l.5 1.3.9-.7c-.245.24-.528.522-.85.85l1.052 2.55h4.45l-.4-1c-.606-.21-1.007-.777-1.2-1.7.11 0 .293.052.55.15l-5.85-14.35m-3.1 3.2l2.448 6h-4.85l2.4-6m-2.798-3.95l5.7.15-1.202-2.9h-3.4l-1.098 2.75M92.15 63.9v3.2l8.95.25c0 .1-.2.217-.6.35-1.382-.304-2.298-.287-2.75.05h.45c.855 0 1.74.15 2.65.45.588-.754 1.103-1.354 1.55-1.8a66.26 66.26 0 0 1-1.1 1.95c1.044.356 1.827 1.04 2.35 2.05.565 1.033.85 2.217.85 3.55 0 2.208-.55 3.808-1.65 4.8.782.23.933 1.68.45 4.35h-.3v-.7c-.542-1.22-1.142-2.07-1.8-2.55-.837.333-1.787.5-2.85.5H96.6V76.6c-.982 1.657-1.898 3.14-2.75 4.45l5.35.1c.066.3-.1.516-.5.65-.334.1-.45.365-.35.8.232-.1.516-.317.85-.65l.2.7c.1.366.4.5.9.4-1.133.365-2.217.283-3.25-.25-1.133-.567-1.967-.784-2.5-.65 0-.03-.283-.313-.85-.85-.13.197-.262.38-.4.55.258.24.607.423 1.05.55 1.067.266 1.717.583 1.95.95-.23.296-1.28-.12-3.15-1.25a36.81 36.81 0 0 1-1 1.5v.7h5.25c-.426-.268-.508-.4-.25-.4.17 0 .737.133 1.7.4 3.056-.023 5.506-.957 7.35-2.8 1.867-1.835 2.8-4.284 2.8-7.35 0-3.067-.9-5.534-2.7-7.4-1.8-1.9-4.2-2.85-7.2-2.85h-6.95M56.133 80l-.65.25v4.05h4.4v-7.9h.5l5.3 7.9h5.05l-5.7-8.5a6.948 6.948 0 0 0 1.45-.85c-.088-.25-.254-.35-.5-.3-.1-.168-.217-.1-.35.2l-.85-.3c.4-.034.867-.384 1.4-1.05l-.15.4c.072.285.238.62.5 1 .662-.49 1.162-1.074 1.5-1.75.534-1.134.8-2.218.8-3.25 0-1.272-.3-2.355-.9-3.25-1.695-.058-3.46-.107-5.3-.15-2.55-.06-4.934-.126-7.15-.2v13.55a13.553 13.553 0 0 1 2.4-.9c-.366.433-.95.783-1.75 1.05m3.8-12.45h1c1.067 0 1.9.233 2.5.7.6.433.9 1.033.9 1.8 0 1.867-1.15 2.8-3.45 2.8h-.95v-5.3m-.6 7.3c-.434.033-.667.083-.7.15.167.267.133.383-.1.35.133-.333.05-.633-.25-.9.467.134 1.017-.167 1.65-.9l-.6 1.3m-9.632 3.8c.324.027.59-.056.8-.25l-.45-.7c-.182.314-.3.63-.35.95m5.783-14.75V66l12.25.3c-.196-.26-.43-.51-.7-.75-1.167-1.1-2.767-1.65-4.8-1.65h-6.75m-4.032 2.35c-.105.01-.238.01-.4 0v-.1c-5.32-.125-9.252-.24-11.8-.35V69c.467-.42 1.284-.586 2.45-.5v-.35h.6c.035.133.435.267 1.2.4-.1.367-.582.467-1.45.3-.7-.133-1.016.117-.95.75l2.3.05c-.6.667-1.35.8-2.25.4-.757-.328-1.39-.445-1.9-.35v14.6h4.4v-7.9h.5l5.3 7.9h5.05l-3.8-5.602c-.087.127-.137.377-.15.75l-2.35-.05c.668-.5.967-1.116.9-1.85-.433.067-.816.1-1.15.1-.5-.032-.582-.433-.25-1.2 0 .367.284.635.85.8.52.165.87.1 1.05-.2l-.8-1.25c1.435-.632 2.435-1.516 3-2.65.535-1.132.8-2.216.8-3.25 0-1.067-.216-2.018-.65-2.85-.236.4-.437.6-.6.6.28-.277.446-.544.5-.8a4.302 4.302 0 0 0-.4-.598m-4.25 2c.6.433.9 1.033.9 1.8 0 1.867-1.15 2.8-3.45 2.8h-.95v-5.3h1c1.067 0 1.9.233 2.5.7m3.85-2.45a2.556 2.556 0 0 0-.25-.25c-1.167-1.1-2.767-1.65-4.8-1.65h-6.75v1.6l11.8.3m75.8-45.6v-.15C112.514 6.683 95.414 0 75.55 0c-20.867 0-38.667 7.383-53.4 22.15C7.383 36.883 0 54.683 0 75.55c0 4.76.383 9.36 1.15 13.8h.2c.1.566.433.783 1 .65.633-.233 1.083-.184 1.35.15-.367.533-.95.732-1.75.6a13.28 13.28 0 0 0-.55-.05c2.77 14.495 9.688 27.263 20.75 38.3 14.733 14.733 32.533 22.1 53.4 22.1 5.388 0 10.57-.5 15.55-1.5 7.646-1.49 14.813-4.158 21.5-8 4.992-2.837 9.71-6.337 14.15-10.5a951.66 951.66 0 0 0-17.4-.55c-1.675-.038-3.275-.07-4.8-.1-.913.492-1.847.96-2.8 1.4a56.812 56.812 0 0 1-10.65 3.8c-4.883 1.2-10.016 1.8-15.4 1.8-6.945 0-13.478-1-19.6-3 .006.06.006.126 0 .2l-.25-.05-.6.05-1.4-.05a2.32 2.32 0 0 0 .55-.75 56.22 56.22 0 0 1-10.9-5.35 21.1 21.1 0 0 0-1.2 1.448 3.223 3.223 0 0 0-.65 2.1l-.1 3.65c.334.734.685 1.95 1.05 3.65v.4c-.332-.066-.566-.4-.7-1-.1-.666-.25-1.084-.45-1.25 0-.467-.082-.7-.25-.7l.25-8.4 1.95.05c-3.906-2.474-7.606-5.457-11.1-8.95-12-11.966-18-26.415-18-43.35 0-16.966 6-31.45 18-43.45 11.968-11.933 26.435-17.9 43.4-17.9 9.583 0 18.366 1.9 26.35 5.7 1.95.058 4.416.107 7.4.15 5.067.067 9.084.317 12.05.75l-18.75-.548c5.872 2.92 11.305 6.87 16.3 11.85 12 12 18 26.483 18 43.45 0 16.935-6 31.384-18 43.35-4.317 4.318-8.968 7.852-13.95 10.6l22.1.6a44.312 44.312 0 0 0 1.8-1.698c14.734-14.733 22.1-32.55 22.1-53.45 0-20.867-7.365-38.667-22.1-53.4-.67-.67-1.353-1.337-2.05-2-.052.023-.085.04-.1.048m-9.3-.95c.067.567-.233.817-.9.75-.933-.1-1.416-.133-1.45-.1v-.75l2.35.1M104.6 6.95c-.366.434-.95.784-1.75 1.05-.866.333-1.482.65-1.85.95l-.3-.1c1.033-.833 2.333-1.467 3.9-1.9m-6.65-.55c-.366.267-.884.333-1.55.2-.334-.067-.417.117-.25.55-.734-.833-1.117-.733-1.15.3l-2.35-.05c.666-.5.967-1.117.9-1.85a7.61 7.61 0 0 1-1.15.1c-.5-.033-.584-.433-.25-1.2 0 .367.283.634.85.8.633.2 1.033.067 1.2-.4l.05-.75 1.7.1c-1.067.8-1.667 1.617-1.8 2.45.766.067 1.283-.517 1.55-1.75 1.233-.267 1.4.1.5 1.1.033 0 .4-.067 1.1-.2.266-.033.483.167.65.6m-20.6 4.4c.268-.066.484.117.65.55-.367.267-.867.316-1.5.15-.3-.067-.383.1-.25.5-.733-.733-1.117-.617-1.15.35l-2.35-.1c.6-.5.917-1.083.95-1.75-.5.033-.883.05-1.15.05-.566 0-.65-.4-.25-1.2 1.067.9 1.717 1.05 1.95.45l.05-.8 1.75.1c-1.1.933-1.7 1.767-1.8 2.5.733 0 1.233-.6 1.5-1.8 1.3-.233 1.483.133.55 1.1.333.033.683 0 1.05-.1m36 2.7l.05-.35c.3-.1.4-.35.3-.75h.3l-.1 4h-.85c.034-.267-.1-.467-.4-.6-.267-.1-.416-.283-.45-.55.6-.7.984-1.283 1.15-1.75m-64.7 3.85h1.4c.1.566.434.783 1 .65.633-.233 1.083-.183 1.35.15-.367.533-.95.733-1.75.6-1.167-.133-1.95-.117-2.35.05-.033-.333.167-.466.6-.4.533.033.817.05.85.05.3-.2.067-.316-.7-.35-.767-.067-.9-.317-.4-.75M46.95 16c.133.3.083.717-.15 1.25-.133.367-.1.55.1.55v.35H46c.2-.033.283-.467.25-1.3.033-.733.267-1.017.7-.85m-5.25.8c.533.367.8.767.8 1.2h-1.7v-2.55c.033.533.333.983.9 1.35M8.75 65.55c-.033-.333-.233-.466-.6-.4v-.35l5 .1v.45c-2.066-.434-3.333-.367-3.8.2.267.5.25.983-.05 1.45v.35h-.6l.05-1.8m-3.3 2.85c.566.2.966.083 1.2-.35v-.75l1.7.05c-1.067.833-1.667 1.667-1.8 2.5.767.066 1.284-.517 1.55-1.75 1.267-.267 1.45.083.55 1.05.033 0 .383-.05 1.05-.15.267-.033.5.15.7.55-.433.3-.95.367-1.55.2-.333-.067-.434.117-.3.55-.7-.8-1.083-.7-1.15.3l-.25-.05-.6.05-1.4-.05c.567-.533.85-1.133.85-1.8-.433.067-.817.1-1.15.1-.5-.033-.583-.434-.25-1.2 0 .3.283.55.85.75m67.3 79.9c.6-.5.917-1.083.95-1.75-.5.034-.883.05-1.15.05-.566 0-.65-.4-.25-1.2 1.067.9 1.717 1.05 1.95.45l.05-.8 1.75.1c-1.1.935-1.7 1.767-1.8 2.5.733 0 1.233-.6 1.5-1.8 1.3-.232 1.483.134.55 1.1.333.034.684 0 1.05-.1.268-.066.484.117.65.55-.367.267-.867.317-1.5.15-.3-.066-.383.1-.25.5-.733-.733-1.117-.616-1.15.35l-2.35-.1m-29.2-10.75c-.233.233-.45.366-.65.4l.05-.4c.466-.233.667-.583.6-1.05.367.2.567.45.6.75.533-.133.434-.5-.3-1.1.933.1 1.3.95 1.1 2.55-.434-.1-.684-.184-.75-.25-.433.167-.65-.134-.65-.9m69.35 0l-.15.4c.1.4.4.9.9 1.5-.2.3-.334.267-.4-.1-.033-.5-.217-.718-.55-.65-.032-.054-.065-.087-.1-.1-.076-.006-.16.095-.25.3l-.85-.3c.322-.028.688-.26 1.1-.7.097-.105.197-.222.3-.35m-6.25.05l-.6 1.3c-.434.034-.668.084-.7.15.166.267.133.384-.1.35.132-.333.05-.633-.25-.9.467.133 1.017-.166 1.65-.9m-6.65-2.1c.4-.033.6.1.6.4l-.55-.05c-.033-.166-.316-.166-.85 0 .667-1.3 1.066-2.266 1.2-2.9.166.067.366.184.6.35-.267.1-.6.833-1 2.2m-3.6 7.15c-.334-.066-.417.116-.25.55-.734-.833-1.117-.733-1.15.3l-2.35-.05c.666-.5.967-1.116.9-1.85-.434.065-.817.1-1.15.1-.5-.034-.584-.434-.25-1.2 0 .367.283.633.85.8.633.2 1.033.067 1.2-.4l.05-.75 1.7.1c-1.067.8-1.667 1.618-1.8 2.45.766.067 1.283-.516 1.55-1.75 1.233-.266 1.4.1.5 1.1.033 0 .4-.065 1.1-.2.267-.032.483.168.65.6-.366.267-.884.333-1.55.2m8.2.35c-.366.434-.95.783-1.75 1.05-.866.333-1.482.65-1.85.95l-.3-.1c1.033-.834 2.333-1.466 3.9-1.9z"/></svg>