<svg xmlns="http://www.w3.org/2000/svg" xmlns:xlink="http://www.w3.org/1999/xlink" preserveAspectRatio="none" width="149" height="149" viewBox="0 0 149 149"><defs><path fill="#093" d="M380.1 42.6q-5.223-10.073-13.85-18.7-4.25-4.25-8.85-7.7-1.9 3.3-3.45 5.7l4.65.15q.05.4-.4.6-.45.1-.35.7.35-.15.8-.6l.15.6q.15.5.8.35-1.55.5-2.9-.2-1.5-.75-2.2-.6 0-.05-.7-.75-.2.25-.35.55.3.3.85.45 1.5.35 1.7.8-.25.4-2.75-1-.75 1.1-1.4 2-.2.3-.55 0 .6-.8 1.45-2.1-.25.1-.6.55-.75.95-1.5.65-.05-.25.5-.3.5 0 .25-.6-1.45-.1-1.55-.05 0-.85 1.05-.7 1 .2 1.05.75.35.05.1-.4-.2-.35.45-.2-.05-.45-1.05-.3-.95.1-1-.45l2.55.05q0 .2.1.4 1.4-2.25 3.4-5.85.15-.3.35-.6-4.4-3.2-9.15-5.7-.15.05-.25.05-.25.95-.35.8-.05 0-.15-.85-8.9-.65-23.8-1-5.7-.1-10.15-.2-.5.15-.55.3-.45-.1-.75.4-.35.55-.55.55.45-.5.5-.95.85-.25-.75-.35-8.85-.2-11.9-.35v-.35l47.45 1.35q-14.9-7.4-32.85-7.4-20 0-36.25 9.2l-.15.15q.05 0 1-.1.3-.05.55.45-.5.35-1.35.15-.45-.1-.25.5-.9-1.05-1 .25H275q-7.45 4.6-14.1 11.2-21.8 21.85-21.8 52.7t21.8 52.65q1.1 1.1 2.25 2.15l.1-4.15 1.75.05q-.7.8-1.05 1.3-.55.8-.55 1.85v1.2q21.1 19.45 50.2 19.45 14.3 0 26.65-4.65l5.45-4.65q-1.1 1.1-3.15 3.7 2.2-.95 4.4-2-.1-.4-.15-.45 0-.3.45-.4.55 0 .65-.25-.3-.2-.3 0-.4 0-.2-.65h.45q.25.35.15.85-.15.5-.7.45.05.1.25.1.45-.25.9-.45l-.1-.3q.1.05.4.15 3.4-1.9 6.65-4.15.5-.95 1.1-2 3.2-5.6 4.9-7.4-2.6 4.85-4.75 8.5 5-3.65 9.6-8.25 19.5-19.45 21.6-46.1-.7.95-1.9 1.45-1.5-.5-2.25-1.25-.25 1-.25-1.5 0-1.6.9-1.95.5-.25 1.6-.3 1.2.5 2.05 1.4.1-2.2.1-4.4 0-7.98-1.45-15.35-1.34-6.757-3.9-13-1.186-2.88-2.65-5.65m-34.4-20.8q-.6.6-1.4 1.55 6.7 4 12.6 9.9 4.454 4.454 7.8 9.35 3.13 4.558 5.3 9.5 1 2.3 1.85 4.65.746 2.215 1.3 4.5 1.9 7.518 1.9 15.8 0 25.7-18.15 43.8-5 5-10.5 8.65l13.9.35q-.05.15-.55.3-2.2-.45-2.6.25h-.2q-4.8-1.05-9.5-.25-.25.95-.35.8-.05 0-.15-.85l-1.4-.1q-14.35 9.05-32.45 9.05h-1.4l-.2.2q.05 0 .95-.15.35-.05.6.5-.55.35-1.35.15-.45-.1-.25.5-.9-1.05-1 .25l-.25.05-1.85-.1q.9-.6.8-1.5h-1q-.15 0-.25-.1-16.65-1.25-29.95-10.65-.1.05-.15.1.4.6 0 1.25v.35l-.55-.05.1-1.55q-.1-.5-.55-.35v-.4h.25q-4.05-2.95-7.8-6.7-11.3-11.3-15.55-25.5l-3.4-.1v-.3q1.15-.1 3.25-.05-1-3.5-1.6-7.15-.35.05-.85-.1-.35-.05-.2.4-.95-.95-1.05.35l-2-.05q.8-.7.85-1.6-.7.05-1.05.1-.75 0-.25-1.1 1.45 1.15 1.75.4l.05-.65 1.5.05q-1.45 1.2-1.55 2.2.95 0 1.3-1.6 1.75-.35.45 1 .45.05.95-.1-.75-4.85-.75-10 0-25.65 18.15-43.8 1.45-1.45 3-2.8-.4.1-.95.05-1.5-.15-2.05.05 0-.45.5-.35.75.05.8.05.4-.25-.6-.3-1.05-.1-.4-.7h1.3q.15.8.85.6.75-.3 1.15.1 17.1-14.85 40.25-14.85 3.8 0 7.45.4.05-.1.15-.2l-.05.2q2.3.25 4.55.7.45-.15 1.05-.9l-.1.3q.05.35.35.85 9.35 1.95 17.55 6.75l1.65-1.4m2.65.6q.2.05.75.25.25.15.5-.2.05.6-.2 1.3 1.55.1.7.35-1.35.05-1.75-1.7m-.45 0q-.3-.2-.3 0-.4 0-.2-.65h.45q.25.35.15.85-.15.5-.7.45.05.15.8.05.25 0 .45.6-.65.2-.75.95-.5.05-.7-.6-.25-.9-.3-1 0-.3.45-.4.55 0 .65-.25m11.6-1.95v-.3q.45-.15.45-.25h1.85q1.05.2.4 3.9l-.25-.05-.05-.6q-1-2.35-2.4-2.7m-.7 4.5q.15.55-.25.65-2.4-1.2-1.75-1.15.25 0 2 .5m.35 8.5v-.3q.35 0 .75-.3.3 0 .55-.35.05.35.45.5.35.15.3.5l-2.05-.05m21.05 59.1q.25.35.25 1.8 0 1.45-.05 1.5-.1.3-.2.75-.1 0-.85.4-.85.45-1.4.6-2.35-2.35-2.35-3.15 0-3.4 4.35-2.35 0 .15.25.45m-53.25 52.35l.3.05-.15 3.5h-.75q.05-.4-.3-.6-.4-.15-.45-.4.75-.95 1.05-1.6v-.3q.4-.1.3-.65M315.2 11.2q.25.1.5.35-.3.15-.8 1.95.45-.05.45.3h-.45q-.05-.2-.8 0 .9-1.75 1.1-2.6m-19.75-.85h.3q.2 1.35-1.05 1.9-.35.05-.05-.55.25-.65-.2-.7.15-.5.35-.05.3.55.65.4v-1m7.55.8q-1-.1-.85.65l2.05.1q-.85.9-2 .35-1.35-.6-2.15-.15.2-1.45 2.6-1.15v-.4h.55q.05.2 1 .35-.1.5-1.2.25m-40.35 18.7l.05-2.2q0 .65.7 1.15.75.45.75 1.05h-1.5m4.85-1.05q-.05-.9.55-.8.15.45-.15 1.2-.1.4.1.45v.3h-.75q.25-.05.25-1.15m24.2 114.4q-.7.05-1.05.1-.75 0-.25-1.1 1.45 1.15 1.75.4l.05-.65 1.5.05q-1.45 1.2-1.55 2.2.95 0 1.3-1.6 1.75-.35.45 1 .5.05 1-.15.3-.05.55.5-.45.4-1.35.15-.35-.05-.2.4-.95-.95-1.05.35l-2-.05q.8-.7.85-1.6m24.05-1.35l-.25-.1q1.4-1.05 3.45-1.65-.5.55-1.6.95-1.15.4-1.6.8M275.5 129.8l1.5.05q-1.4 1.1-1.6 2.2 1.05.05 1.35-1.6 1.65-.3.45 1 .05 0 1-.1.3-.05.55.45-.5.35-1.35.15-.45-.1-.25.5-.9-1.05-1 .25l-2.05-.05q.85-.65.8-1.55-.6.05-1.05.05-.65 0-.2-1.1 0 .5.75.8.8.2 1.05-.35l.05-.7m35.35 9.2h-.8q-.25.4-.35.8.75.05 1.15-.8m1.85-56.35q-.95 1.5-1.75 2.8l3.7.15-1.95-2.95m-1.9 3.05q-.2.25-.4.55.35.3.9.45 1.5.35 1.7.8-.25.4-2.75-1l-.2.3 1.4 2.1h3.6q-1.85-.95-1.25-.9.25 0 2 .5.05.25.05.4h1l-.95-1.45q-1.15.15-2.2-.4-1.5-.75-2.2-.6 0-.05-.7-.75m4.55.9l-.25-.35q-.35.15-.25.65.2-.1.5-.3m-26.3-13.7q-2.25-.1-4.7-.15V88.9h12.25v-4.3h-7.55v-4.55h7.55V75.8h-7.55v-2.9m-4.7-.4l4.7.15V71.4h7.55v-4.3h-12.25v5.4m31.4 1.15q.137-.046.25-.05h-.2q-.05 0-.05.05m-10.45-.55V71h1.05q1.75 0 2.7.7.75.6.95 1.5l4.8.15q-.05-2.85-1.9-4.5-1.9-1.75-5.15-1.75h-7.2v5.85l4.75.15m0 .5q-.45.05-.85.1-.25.95-.35.8-.05 0-.15-.85-1.6-.1-3.4-.2V87.2l2.15-1.85q-.8.8-2.15 2.45v1.1h4.7v-1.5q-.4.25-.45.8-.5.05-.7-.6-.25-.9-.3-1 0-.3.45-.4.55 0 .65-.25-.3-.2-.3 0-.4 0-.2-.65h.45q.25.35.15.85-.15.5-.7.45.05.15.8.05.1 0 .15.05v-6.25h.55l3.3 4.95h.9q0 .2.1.4.95-1.55 2.2-3.7l-1.55-2.3q2.35-1 3.2-2.8.85-1.8.85-3.4-.5.05-.65.35h-.2q-2-.45-3.95-.55v.25q0 3-3.7 3h-1V73.6m-24.5-.9q-.3-.05-.65-.05H279q.9.4 1.8.95v-.9M267 70.1q-.85.85-1.45 1.9l6.2.15q1.2-.7 2.85-.7 1.7 0 3.75.9l2.45.05v-4.15q-3.3-1.45-6.2-1.45-4.5 0-7.6 3.3m.9 2.3q-1.35-.05-2.55-.05-1.5 2.5-1.5 5.75 0 3.3 1.55 5.9.85-.6.75-1.55-.55.05-1 .05-.65-.05-.2-1.1 0 .5.75.75.8.25 1.05-.35l.05-.65 1.5.05q-1.4 1.1-1.6 2.15 1.05.1 1.35-1.55 1.65-.3.45 1 .05 0 .95-.15.35-.05.6.5-.55.35-1.35.15-.45-.1-.25.5-.9-1.05-1 .25l-.25.05-1.75-.1q.6 1.05 1.5 2 3.05 3.2 7.45 3.2 2.55 0 6.4-1.3v-5.25q-3.45 1.95-5.9 1.95h-.55q-1.15.4-1.6.8l-.25-.1q.6-.45 1.25-.75-2-.3-3.3-1.7-1.7-1.75-1.7-4.65 0-3.1 1.6-4.9.4-.5.95-.85H270q-.5.15-.55.3-.45-.1-.75.4-.35.55-.55.55.45-.5.5-.95.85-.25-.75-.35m65.65-.65V67.1H318.9v4.65h5V88.9h4.7V71.75h4.95m21.25-1.7q-1.475-1.475-3.3-2.3-2.135-.9-4.75-.9-4.35 0-7.55 3.15t-3.2 8q0 4.85 3.1 8 3.05 3.15 7.8 3.15 4.8 0 7.9-3.15 3.15-3.2 3.15-7.95 0-3.625-1.75-6.3-.604-.904-1.4-1.7M347 71.2q2.7.05 4.4 1.9 1.65 1.85 1.65 4.9 0 3.1-1.7 4.95-1.7 1.9-4.45 1.9-2.6 0-4.3-1.9-1.7-1.9-1.7-4.8 0-3.1 1.65-5.05 1.7-1.95 4.45-1.9m-20.55-54.75q-.15-.2-.35-.15-.1-.15-.25 0 .3.05.6.15z" id="a"/></defs><use xlink:href="#a" transform="translate(-239.1 -2.1)"/></svg>