<?xml version="1.0" encoding="utf-8"?>
<!-- Generator: Adobe Illustrator 16.0.0, SVG Export Plug-In . SVG Version: 6.00 Build 0)  -->
<!DOCTYPE svg PUBLIC "-//W3C//DTD SVG 1.1//EN" "http://www.w3.org/Graphics/SVG/1.1/DTD/svg11.dtd">
<svg version="1.1" id="Camada_1" xmlns="http://www.w3.org/2000/svg" xmlns:xlink="http://www.w3.org/1999/xlink" x="0px" y="0px"
	 width="151px" height="151px" viewBox="0 0 151 151" enable-background="new 0 0 151 151" xml:space="preserve">
<g transform="matrix( 1, 0, 0, 1, -207.9,-16.15) ">
	<g>
		<g id="Layer0_0_FILL">
			<path fill="#FF0000" d="M303.97,99.25L303.97,99.25V99.2V99.25 M242.869,84.1v-0.05l0.3,0.05h1.7v-4.05h-11.45v20.4h5.35
				l-1.15-0.05c0.6-0.5,0.917-1.084,0.95-1.75c-0.5,0.033-0.883,0.05-1.15,0.05c-0.567,0-0.65-0.399-0.25-1.2
				c1.066,0.9,1.717,1.051,1.95,0.45l0.05-0.8l1.75,0.1c-1.1,0.934-1.7,1.768-1.8,2.5c0.733,0,1.233-0.6,1.5-1.8
				c1.3-0.233,1.483,0.134,0.55,1.101c0.333,0.033,0.683,0,1.05-0.101c0.267-0.066,0.483,0.116,0.65,0.55
				c-0.367,0.268-0.867,0.316-1.5,0.15c-0.3-0.066-0.383,0.1-0.25,0.5c-0.72-0.721-1.104-0.621-1.15,0.3h4.9V96.4h-7.05v-4.2h7.05
				v-4h-7.05v-4.1H242.869 M300.05,98.5v0.35c0.146-0.221,0.296-0.455,0.45-0.699C300.364,98.216,300.214,98.334,300.05,98.5
				 M300.05,97.849c0.031,0.026,0.065,0.043,0.101,0.051c-0.009-0.096-0.042-0.178-0.101-0.25V97.849 M300.05,97.099l0.7,0.051
				c0.016,0.152,0.049,0.285,0.101,0.4c1.035-1.618,2.252-3.719,3.649-6.3v-7.3c-1.479-0.293-2.964-0.476-4.45-0.55V97.099
				 M292.183,83.55c-1.871-0.114-3.905-0.231-6.099-0.35l-6.851,17.25h4.35l1.601-4h7.849l0.5,1.3l0.9-0.699
				c-0.246,0.238-0.529,0.521-0.85,0.85l1.05,2.55h4.45l-0.4-1c-0.605-0.212-1.006-0.778-1.2-1.7c0.11,0,0.294,0.051,0.55,0.15
				L292.183,83.55 M289.083,86.75l2.45,6h-4.85L289.083,86.75 M295.683,98.45c0-0.233,0.184-0.384,0.55-0.45
				c0.366-0.033,0.583-0.116,0.65-0.25c-0.167-0.166-0.25-0.166-0.25,0c-0.333-0.033-0.417-0.3-0.25-0.8l0.55,0.101
				c0.166,0.232,0.184,0.516,0.05,0.85c-0.066,0.4-0.3,0.584-0.7,0.55c0.033,0.101,0.316,0.101,0.851,0
				c0.233,0.067,0.433,0.3,0.6,0.7c-0.5,0.166-0.8,0.533-0.899,1.1c-0.367,0.033-0.634-0.199-0.801-0.699
				C295.867,98.883,295.75,98.517,295.683,98.45 M286.284,82.8l5.699,0.15l-1.2-2.9h-3.4L286.284,82.8 M328.361,83.55
				c-1.871-0.114-3.904-0.231-6.098-0.35l-6.851,17.25h4.351l1.6-4h7.848l0.5,1.3l0.9-0.699c-0.246,0.238-0.529,0.521-0.85,0.85
				l1.051,2.55h4.449l-0.4-1c-0.605-0.212-1.006-0.778-1.199-1.7c0.109,0,0.293,0.051,0.549,0.15L328.361,83.55 M325.261,86.75
				l2.449,6h-4.849L325.261,86.75 M322.462,82.8l5.699,0.15l-1.201-2.9h-3.399L322.462,82.8 M300.05,80.05v3.2l8.95,0.25
				c0,0.1-0.2,0.217-0.6,0.35c-1.382-0.304-2.298-0.287-2.75,0.05h0.45c0.855,0,1.739,0.15,2.649,0.45
				c0.589-0.754,1.104-1.354,1.55-1.8c-0.365,0.673-0.732,1.323-1.1,1.95c1.045,0.356,1.828,1.039,2.35,2.05
				c0.566,1.033,0.851,2.217,0.851,3.55c0,2.208-0.55,3.808-1.65,4.8c0.782,0.23,0.933,1.681,0.45,4.35h-0.3V98.55
				c-0.542-1.219-1.142-2.069-1.8-2.551c-0.837,0.334-1.787,0.5-2.851,0.5h-1.75v-3.75c-0.981,1.658-1.897,3.141-2.75,4.45
				l5.351,0.101c0.066,0.299-0.101,0.516-0.5,0.649c-0.334,0.101-0.45,0.366-0.351,0.8c0.233-0.1,0.517-0.316,0.851-0.65L307.3,98.8
				c0.101,0.366,0.4,0.5,0.9,0.399c-1.133,0.366-2.217,0.284-3.25-0.25c-1.133-0.566-1.967-0.783-2.5-0.649
				c0-0.029-0.283-0.313-0.85-0.851c-0.129,0.198-0.262,0.382-0.4,0.55c0.258,0.24,0.607,0.424,1.05,0.551
				c1.067,0.266,1.717,0.583,1.95,0.949c-0.23,0.297-1.281-0.119-3.15-1.25c-0.344,0.543-0.678,1.043-1,1.5v0.7h5.25
				c-0.426-0.267-0.508-0.399-0.25-0.399c0.171,0,0.737,0.133,1.7,0.399c3.056-0.022,5.506-0.956,7.351-2.8
				c1.866-1.834,2.8-4.283,2.8-7.35c0-3.066-0.9-5.533-2.7-7.4c-1.8-1.9-4.2-2.85-7.2-2.85H300.05 M264.033,96.15
				c-0.235,0.09-0.452,0.174-0.65,0.25v4.05h4.4V92.55h0.5l5.3,7.899h5.05l-5.7-8.5c0.542-0.239,1.025-0.522,1.45-0.85
				c-0.088-0.249-0.254-0.349-0.5-0.3c-0.1-0.167-0.217-0.1-0.35,0.2l-0.85-0.3c0.4-0.033,0.867-0.383,1.4-1.05l-0.15,0.4
				c0.072,0.286,0.238,0.62,0.5,1c0.662-0.49,1.162-1.073,1.5-1.75c0.534-1.133,0.8-2.217,0.8-3.25c0-1.271-0.3-2.354-0.9-3.25
				c-1.695-0.057-3.461-0.106-5.3-0.15c-2.55-0.058-4.934-0.125-7.15-0.2V96c0.715-0.355,1.515-0.654,2.4-0.9
				C265.417,95.533,264.834,95.883,264.033,96.15 M267.834,83.7h1c1.066,0,1.9,0.233,2.5,0.7c0.6,0.433,0.9,1.033,0.9,1.8
				c0,1.867-1.15,2.8-3.45,2.8h-0.95V83.7 M267.233,91c-0.434,0.033-0.667,0.083-0.7,0.15c0.167,0.267,0.133,0.383-0.1,0.35
				c0.133-0.333,0.05-0.633-0.25-0.9c0.467,0.134,1.017-0.167,1.65-0.9L267.233,91 M257.601,94.8c0.323,0.027,0.589-0.056,0.8-0.25
				l-0.45-0.701C257.768,94.164,257.651,94.48,257.601,94.8 M263.383,80.05v2.1l12.25,0.3c-0.196-0.259-0.429-0.509-0.7-0.75
				c-1.167-1.1-2.767-1.65-4.8-1.65H263.383 M259.351,82.4c-0.106,0.009-0.239,0.009-0.4,0v-0.1c-5.32-0.125-9.253-0.241-11.8-0.35
				v3.2c0.466-0.42,1.283-0.586,2.45-0.5V84.3h0.6c0.034,0.133,0.434,0.267,1.2,0.4c-0.1,0.367-0.583,0.467-1.45,0.3
				c-0.7-0.133-1.017,0.117-0.95,0.75l2.3,0.05c-0.6,0.667-1.35,0.8-2.25,0.4c-0.758-0.328-1.391-0.445-1.9-0.35v14.6h4.4V92.55h0.5
				l5.3,7.899h5.05l-3.8-5.601c-0.088,0.127-0.138,0.377-0.15,0.75l-2.35-0.049c0.667-0.5,0.966-1.117,0.9-1.851
				c-0.434,0.067-0.817,0.101-1.15,0.101c-0.5-0.033-0.583-0.434-0.25-1.201c0,0.367,0.283,0.635,0.85,0.801
				c0.519,0.164,0.869,0.098,1.05-0.2l-0.8-1.25c1.434-0.633,2.434-1.517,3-2.65c0.534-1.133,0.8-2.217,0.8-3.25
				c0-1.068-0.217-2.019-0.65-2.85c-0.237,0.4-0.438,0.6-0.6,0.6c0.278-0.278,0.445-0.545,0.5-0.8
				C259.647,82.807,259.514,82.608,259.351,82.4 M255.101,84.4c0.6,0.433,0.9,1.033,0.9,1.8c0,1.867-1.15,2.8-3.45,2.8h-0.95v-5.3h1
				C253.667,83.7,254.501,83.933,255.101,84.4 M258.95,81.95c-0.068-0.079-0.151-0.163-0.25-0.25c-1.167-1.1-2.767-1.65-4.8-1.65
				h-6.75v1.6L258.95,81.95 M334.75,36.35V36.2c-14.336-13.367-31.436-20.05-51.3-20.05c-20.867,0-38.667,7.383-53.4,22.15
				c-14.767,14.733-22.15,32.533-22.15,53.4c0,4.761,0.383,9.36,1.15,13.8h0.2c0.1,0.566,0.433,0.783,1,0.65
				c0.633-0.233,1.083-0.184,1.35,0.15c-0.367,0.533-0.95,0.732-1.75,0.6c-0.196-0.022-0.379-0.039-0.55-0.051
				c2.771,14.496,9.688,27.264,20.75,38.301c14.733,14.733,32.533,22.1,53.4,22.1c5.388,0,10.57-0.5,15.55-1.5
				c7.646-1.49,14.813-4.158,21.5-8c4.992-2.837,9.709-6.337,14.15-10.5c-5.014-0.211-10.813-0.395-17.4-0.55
				c-1.675-0.038-3.275-0.071-4.8-0.101c-0.913,0.493-1.847,0.96-2.8,1.4c-3.396,1.611-6.947,2.879-10.65,3.801
				c-4.883,1.199-10.016,1.799-15.399,1.799c-6.946,0-13.479-1-19.6-3c0.005,0.06,0.005,0.127,0,0.201l-0.25-0.051l-0.6,0.051
				l-1.4-0.051c0.248-0.232,0.431-0.482,0.55-0.75c-3.792-1.373-7.425-3.156-10.9-5.35c-0.542,0.611-0.941,1.094-1.2,1.449
				c-0.466,0.635-0.683,1.334-0.65,2.101l-0.1,3.649c0.333,0.734,0.684,1.951,1.05,3.65v0.4c-0.333-0.066-0.567-0.4-0.7-1
				c-0.1-0.666-0.25-1.084-0.45-1.25c0-0.467-0.083-0.7-0.25-0.7l0.25-8.399l1.95,0.049c-3.907-2.474-7.607-5.457-11.1-8.949
				c-12-11.967-18-26.416-18-43.35c0-16.967,6-31.451,18-43.451c11.967-11.933,26.434-17.9,43.4-17.9c9.582,0,18.365,1.9,26.35,5.7
				c1.948,0.058,4.415,0.107,7.4,0.15c5.066,0.067,9.083,0.317,12.05,0.75L310.65,37c5.872,2.919,11.305,6.869,16.3,11.85
				c12,12,18.001,26.483,18,43.451c0.001,16.934-6,31.383-18,43.35c-4.317,4.317-8.968,7.851-13.95,10.6l22.101,0.6
				c0.605-0.54,1.206-1.106,1.8-1.699c14.733-14.733,22.1-32.551,22.1-53.45c0-20.867-7.366-38.667-22.1-53.4
				c-0.671-0.671-1.354-1.337-2.05-2C334.798,36.325,334.765,36.342,334.75,36.35 M325.45,35.4c0.067,0.567-0.233,0.817-0.899,0.75
				c-0.934-0.1-1.417-0.133-1.45-0.1V35.3L325.45,35.4 M312.5,23.1c-0.366,0.434-0.949,0.784-1.75,1.05
				c-0.866,0.333-1.482,0.65-1.85,0.95l-0.3-0.1C309.633,24.167,310.933,23.533,312.5,23.1 M305.85,22.55
				c-0.366,0.267-0.884,0.333-1.55,0.2c-0.334-0.067-0.417,0.117-0.25,0.55c-0.734-0.833-1.117-0.733-1.15,0.3l-2.35-0.05
				c0.666-0.5,0.967-1.117,0.899-1.85c-0.433,0.067-0.816,0.1-1.149,0.1c-0.5-0.033-0.584-0.433-0.25-1.2
				c0,0.367,0.283,0.634,0.85,0.8c0.633,0.2,1.033,0.067,1.2-0.4l0.05-0.75l1.7,0.1c-1.067,0.8-1.667,1.617-1.8,2.45
				c0.766,0.067,1.283-0.517,1.55-1.75c1.233-0.267,1.399,0.1,0.5,1.1c0.033,0,0.399-0.067,1.1-0.2
				C305.466,21.917,305.683,22.117,305.85,22.55 M285.25,26.95c0.268-0.066,0.484,0.117,0.65,0.55
				c-0.367,0.267-0.867,0.316-1.5,0.15c-0.3-0.067-0.383,0.1-0.25,0.5c-0.733-0.733-1.117-0.617-1.15,0.35l-2.35-0.1
				c0.6-0.5,0.917-1.083,0.95-1.75c-0.5,0.033-0.883,0.05-1.15,0.05c-0.566,0-0.65-0.4-0.25-1.2c1.067,0.9,1.717,1.05,1.95,0.45
				l0.05-0.8l1.75,0.1c-1.1,0.933-1.7,1.767-1.8,2.5c0.733,0,1.233-0.6,1.5-1.8c1.3-0.233,1.483,0.133,0.55,1.1
				C284.533,27.083,284.883,27.05,285.25,26.95 M321.25,29.65l0.051-0.35c0.3-0.1,0.399-0.35,0.3-0.75h0.3l-0.1,4h-0.851
				c0.034-0.267-0.1-0.467-0.399-0.6c-0.268-0.1-0.417-0.283-0.45-0.55C320.7,30.7,321.084,30.117,321.25,29.65 M256.55,33.5h1.4
				c0.1,0.566,0.434,0.783,1,0.65c0.633-0.233,1.083-0.183,1.35,0.15c-0.367,0.533-0.95,0.733-1.75,0.6
				c-1.167-0.133-1.95-0.117-2.35,0.05c-0.033-0.333,0.167-0.466,0.6-0.4c0.533,0.033,0.817,0.05,0.85,0.05
				c0.3-0.2,0.067-0.316-0.7-0.35C256.183,34.183,256.05,33.933,256.55,33.5 M254.85,32.15c0.133,0.3,0.083,0.717-0.15,1.25
				c-0.133,0.367-0.1,0.55,0.1,0.55v0.35h-0.9c0.2-0.033,0.283-0.467,0.25-1.3C254.183,32.267,254.417,31.983,254.85,32.15
				 M249.6,32.95c0.533,0.367,0.8,0.767,0.8,1.2h-1.7V31.6C248.733,32.133,249.033,32.583,249.6,32.95 M216.65,81.7
				c-0.033-0.333-0.233-0.466-0.6-0.4v-0.35l5,0.1v0.45c-2.066-0.434-3.333-0.367-3.8,0.2c0.267,0.5,0.25,0.983-0.05,1.45v0.35h-0.6
				L216.65,81.7 M213.35,84.55c0.566,0.2,0.966,0.083,1.2-0.35v-0.75l1.7,0.05c-1.067,0.833-1.667,1.667-1.8,2.5
				c0.767,0.066,1.284-0.517,1.55-1.75c1.267-0.267,1.45,0.083,0.55,1.05c0.033,0,0.383-0.05,1.05-0.15
				c0.267-0.033,0.5,0.15,0.7,0.55c-0.433,0.3-0.95,0.367-1.55,0.2c-0.333-0.067-0.434,0.117-0.3,0.55c-0.7-0.8-1.083-0.7-1.15,0.3
				l-0.25-0.05l-0.6,0.05l-1.4-0.05c0.567-0.533,0.85-1.133,0.85-1.8c-0.433,0.067-0.817,0.1-1.15,0.1
				c-0.5-0.033-0.583-0.434-0.25-1.2C212.5,84.1,212.783,84.35,213.35,84.55 M280.65,164.45c0.6-0.5,0.917-1.083,0.95-1.75
				c-0.5,0.034-0.883,0.05-1.15,0.05c-0.566,0-0.65-0.4-0.25-1.199c1.067,0.899,1.717,1.049,1.95,0.449l0.05-0.8l1.75,0.101
				c-1.1,0.934-1.7,1.766-1.8,2.5c0.733,0,1.233-0.601,1.5-1.801c1.3-0.232,1.483,0.134,0.55,1.101
				c0.333,0.033,0.684-0.001,1.05-0.101c0.268-0.066,0.484,0.117,0.65,0.551c-0.367,0.266-0.867,0.316-1.5,0.149
				c-0.3-0.066-0.383,0.101-0.25,0.5c-0.733-0.733-1.117-0.616-1.15,0.351L280.65,164.45 M251.45,153.7
				c-0.233,0.233-0.45,0.366-0.65,0.399l0.05-0.399c0.466-0.233,0.667-0.583,0.6-1.05c0.367,0.199,0.567,0.449,0.6,0.75
				c0.533-0.133,0.434-0.5-0.3-1.1c0.933,0.1,1.3,0.949,1.1,2.549c-0.434-0.1-0.684-0.183-0.75-0.25
				C251.667,154.767,251.45,154.466,251.45,153.7 M320.8,153.7l-0.15,0.399c0.1,0.4,0.4,0.9,0.9,1.5c-0.2,0.301-0.334,0.268-0.4-0.1
				c-0.033-0.5-0.217-0.717-0.55-0.65c-0.032-0.053-0.065-0.086-0.101-0.1c-0.075-0.005-0.158,0.096-0.25,0.301l-0.85-0.301
				c0.323-0.027,0.689-0.26,1.1-0.699C320.597,153.945,320.697,153.828,320.8,153.7 M314.55,153.75l-0.601,1.301
				c-0.433,0.033-0.667,0.083-0.7,0.149c0.167,0.267,0.134,0.384-0.1,0.351c0.133-0.334,0.05-0.634-0.25-0.9
				C313.367,154.783,313.917,154.484,314.55,153.75 M307.9,151.65c0.4-0.033,0.6,0.1,0.6,0.4L307.95,152
				c-0.033-0.166-0.316-0.166-0.85,0c0.667-1.3,1.066-2.266,1.2-2.9c0.166,0.067,0.366,0.184,0.6,0.351
				C308.633,149.55,308.3,150.283,307.9,151.65 M304.3,158.8c-0.334-0.066-0.417,0.116-0.25,0.549
				c-0.734-0.832-1.117-0.732-1.15,0.301l-2.35-0.051c0.666-0.5,0.967-1.115,0.899-1.85c-0.433,0.066-0.816,0.1-1.149,0.1
				c-0.5-0.033-0.584-0.433-0.25-1.199c0,0.367,0.283,0.633,0.85,0.8c0.633,0.2,1.033,0.067,1.2-0.399l0.05-0.75l1.7,0.1
				c-1.067,0.8-1.667,1.617-1.8,2.449c0.766,0.067,1.283-0.516,1.55-1.75c1.233-0.266,1.399,0.101,0.5,1.101
				c0.033,0,0.399-0.066,1.1-0.2c0.267-0.033,0.483,0.167,0.65,0.6C305.484,158.867,304.966,158.933,304.3,158.8 M312.5,159.15
				c-0.366,0.434-0.949,0.783-1.75,1.05c-0.866,0.333-1.482,0.649-1.85,0.95l-0.3-0.1C309.633,160.216,310.933,159.584,312.5,159.15
				z"/>
		</g>
	</g>
</g>
</svg>
