<svg xmlns="http://www.w3.org/2000/svg" xmlns:xlink="http://www.w3.org/1999/xlink" preserveAspectRatio="none" width="151" height="151" viewBox="0 0 151 151"><defs><path fill="#F00" d="M298.3 99.25v-.05.05M237.2 84.1v-.05l.3.05h1.7v-4.05h-11.45v20.4h5.35l-1.15-.05q.9-.75.95-1.75-.75.05-1.15.05-.85 0-.25-1.2 1.6 1.35 1.95.45l.05-.8 1.75.1q-1.65 1.4-1.8 2.5 1.1 0 1.5-1.8 1.95-.35.55 1.1.5.05 1.05-.1.4-.1.65.55-.55.4-1.5.15-.45-.1-.25.5-1.08-1.08-1.15.3h4.9V96.4h-7.05v-4.2h7.05v-4h-7.05v-4.1h5.05m64.55 14.4v.35q.218-.333.45-.7-.205.1-.45.35m0-.65q.047.04.1.05-.013-.143-.1-.25v.2m0-.75l.7.05q.023.23.1.4 1.553-2.427 3.65-6.3v-7.3q-2.22-.44-4.45-.55v13.7m-9.85-13.55q-2.806-.17-6.1-.35l-6.85 17.25h4.35l1.6-4h7.85l.5 1.3.9-.7q-.37.358-.85.85l1.05 2.55h4.45l-.4-1q-.91-.318-1.2-1.7.166 0 .55.15l-5.85-14.35m-3.1 3.2l2.45 6h-4.85l2.4-6m6.6 11.7q0-.35.55-.45.55-.05.65-.25-.25-.25-.25 0-.5-.05-.25-.8l.55.1q.25.35.05.85-.1.6-.7.55.05.15.85 0 .35.1.6.7-.75.25-.9 1.1-.55.05-.8-.7-.25-1-.35-1.1M286 82.8l5.7.15-1.2-2.9h-3.4L286 82.8m15.75-2.75v3.2l8.95.25q0 .15-.6.35-2.072-.456-2.75.05h.45q1.284 0 2.65.45.882-1.132 1.55-1.8-.55 1.01-1.1 1.95 1.568.534 2.35 2.05.85 1.55.85 3.55 0 3.31-1.65 4.8 1.174.346.45 4.35h-.3v-.7q-.813-1.83-1.8-2.55-1.255.5-2.85.5h-1.75v-3.75q-1.472 2.486-2.75 4.45l5.35.1q.1.45-.5.65-.5.15-.35.8.35-.15.85-.65l.2.7q.15.55.9.4-1.7.55-3.25-.25-1.7-.85-2.5-.65 0-.044-.85-.85-.193.298-.4.55.386.36 1.05.55 1.6.4 1.95.95-.347.446-3.15-1.25-.517.814-1 1.5v.7H307q-.638-.4-.25-.4.256 0 1.7.4 4.583-.033 7.35-2.8 2.8-2.75 2.8-7.35t-2.7-7.4q-2.7-2.85-7.2-2.85h-6.95m-39.7 16.1l-.65.25v4.05h4.4v-7.9h.5l5.3 7.9h5.05l-5.7-8.5q.813-.36 1.45-.85-.132-.374-.5-.3-.15-.25-.35.2l-.85-.3q.6-.05 1.4-1.05l-.15.4q.107.43.5 1 .993-.735 1.5-1.75.8-1.7.8-3.25 0-1.907-.9-3.25-2.542-.085-5.3-.15-3.826-.087-7.15-.2V96q1.072-.533 2.4-.9-.55.65-1.75 1.05m3.8-12.45h1q1.6 0 2.5.7.9.65.9 1.8 0 2.8-3.45 2.8h-.95v-5.3m-.6 7.3q-.65.05-.7.15.25.4-.1.35.2-.5-.25-.9.7.2 1.65-.9l-.6 1.3m-11.9 3.8q.484.042.8-.25l-.45-.7q-.273.47-.35.95m8.05-14.75v2.1l12.25.3q-.294-.39-.7-.75-1.75-1.65-4.8-1.65h-6.75m-6.3 2.35q-.16.013-.4 0v-.1q-7.98-.187-11.8-.35v3.2q.7-.63 2.45-.5v-.35h.6q.05.2 1.2.4-.15.55-1.45.3-1.05-.2-.95.75l2.3.05q-.9 1-2.25.4-1.137-.493-1.9-.35v14.6h4.4v-7.9h.5l5.3 7.9h5.05l-3.8-5.6q-.132.19-.15.75l-2.35-.05q1-.75.9-1.85-.65.1-1.15.1-.75-.05-.25-1.2 0 .55.85.8.778.246 1.05-.2l-.8-1.25q2.15-.95 3-2.65.8-1.7.8-3.25 0-1.603-.65-2.85-.356.6-.6.6.418-.418.5-.8-.155-.29-.4-.6m-4.25 2q.9.65.9 1.8 0 2.8-3.45 2.8h-.95v-5.3h1q1.6 0 2.5.7m3.85-2.45q-.102-.12-.25-.25-1.75-1.65-4.8-1.65h-6.75v1.6l11.8.3m76.75-2.1q-4.1 0-7.05 2.95-3 2.95-3 7.45 0 4.55 2.9 7.5 2.85 2.95 7.3 2.95 4.45 0 7.4-2.95 2.95-3 2.95-7.45 0-4.55-3-7.5-2.95-2.95-7.5-2.95m-3.9 5.85q1.55-1.85 4.1-1.8 2.6.05 4.15 1.8 1.5 1.7 1.5 4.55 0 2.9-1.55 4.65-1.6 1.75-4.15 1.75-2.45 0-4.05-1.75-1.55-1.8-1.55-4.5 0-2.9 1.55-4.7m7.2-49.35v-.15q-21.504-20.05-51.3-20.05-31.3 0-53.4 22.15-22.15 22.1-22.15 53.4 0 7.14 1.15 13.8h.2q.15.85 1 .65.95-.35 1.35.15-.55.8-1.75.6-.294-.034-.55-.05 4.156 21.744 20.75 38.3 22.1 22.1 53.4 22.1 8.08 0 15.55-1.5 11.47-2.237 21.5-8 7.49-4.256 14.15-10.5-7.52-.317-17.4-.55-2.513-.057-4.8-.1-1.37.74-2.8 1.4-5.095 2.418-10.65 3.8-7.325 1.8-15.4 1.8-10.418 0-19.6-3 .007.088 0 .2l-.25-.05-.6.05-1.4-.05q.37-.35.55-.75-5.688-2.06-10.9-5.35-.812.916-1.2 1.45-.7.95-.65 2.1l-.1 3.65q.5 1.1 1.05 3.65v.4q-.5-.1-.7-1-.15-1-.45-1.25 0-.7-.25-.7l.25-8.4 1.95.05q-5.86-3.71-11.1-8.95-18-17.95-18-43.35 0-25.45 18-43.45 17.95-17.9 43.4-17.9 14.373 0 26.35 5.7 2.92.086 7.4.15 7.6.1 12.05.75L310.65 37q8.808 4.38 16.3 11.85 18 18 18 43.45 0 25.4-18 43.35-6.476 6.476-13.95 10.6l22.1.6q.91-.81 1.8-1.7Q359 123.05 359 91.7q0-31.3-22.1-53.4-1.006-1.006-2.05-2l-.1.05m-9.3-.95q.1.85-.9.75-1.4-.15-1.45-.1v-.75l2.35.1M312.5 23.1q-.55.65-1.75 1.05-1.3.5-1.85.95l-.3-.1q1.55-1.25 3.9-1.9m-6.65-.55q-.55.4-1.55.2-.5-.1-.25.55-1.1-1.25-1.15.3l-2.35-.05q1-.75.9-1.85-.65.1-1.15.1-.75-.05-.25-1.2 0 .55.85.8.95.3 1.2-.4l.05-.75 1.7.1q-1.6 1.2-1.8 2.45 1.15.1 1.55-1.75 1.85-.4.5 1.1.05 0 1.1-.2.4-.05.65.6m-20.6 4.4q.4-.1.65.55-.55.4-1.5.15-.45-.1-.25.5-1.1-1.1-1.15.35l-2.35-.1q.9-.75.95-1.75-.75.05-1.15.05-.85 0-.25-1.2 1.6 1.35 1.95.45l.05-.8 1.75.1q-1.65 1.4-1.8 2.5 1.1 0 1.5-1.8 1.95-.35.55 1.1.5.05 1.05-.1m36 2.7l.05-.35q.45-.15.3-.75h.3l-.1 4h-.85q.05-.4-.4-.6-.4-.15-.45-.55.9-1.05 1.15-1.75m-64.7 3.85h1.4q.15.85 1 .65.95-.35 1.35.15-.55.8-1.75.6-1.75-.2-2.35.05-.05-.5.6-.4.8.05.85.05.45-.3-.7-.35-1.15-.1-.4-.75m-1.7-1.35q.2.45-.15 1.25-.2.55.1.55v.35h-.9q.3-.05.25-1.3.05-1.1.7-.85m-5.25.8q.8.55.8 1.2h-1.7V31.6q.05.8.9 1.35M216.65 81.7q-.05-.5-.6-.4v-.35l5 .1v.45q-3.1-.65-3.8.2.4.75-.05 1.45v.35h-.6l.05-1.8m-3.3 2.85q.85.3 1.2-.35v-.75l1.7.05q-1.6 1.25-1.8 2.5 1.15.1 1.55-1.75 1.9-.4.55 1.05.05 0 1.05-.15.4-.05.7.55-.65.45-1.55.2-.5-.1-.3.55-1.05-1.2-1.15.3l-.25-.05-.6.05-1.4-.05q.85-.8.85-1.8-.65.1-1.15.1-.75-.05-.25-1.2 0 .45.85.75m67.3 79.9q.9-.75.95-1.75-.75.05-1.15.05-.85 0-.25-1.2 1.6 1.35 1.95.45l.05-.8 1.75.1q-1.65 1.4-1.8 2.5 1.1 0 1.5-1.8 1.95-.35.55 1.1.5.05 1.05-.1.4-.1.65.55-.55.4-1.5.15-.45-.1-.25.5-1.1-1.1-1.15.35l-2.35-.1m-29.2-10.75q-.35.35-.65.4l.05-.4q.7-.35.6-1.05.55.3.6.75.8-.2-.3-1.1 1.4.15 1.1 2.55-.65-.15-.75-.25-.65.25-.65-.9m69.35 0l-.15.4q.15.6.9 1.5-.3.45-.4-.1-.05-.75-.55-.65-.047-.08-.1-.1-.113-.008-.25.3l-.85-.3q.485-.04 1.1-.7.146-.158.3-.35m-6.25.05l-.6 1.3q-.65.05-.7.15.25.4-.1.35.2-.5-.25-.9.7.2 1.65-.9m-6.65-2.1q.6-.05.6.4l-.55-.05q-.05-.25-.85 0 1-1.95 1.2-2.9.25.1.6.35-.4.15-1 2.2m-3.6 7.15q-.5-.1-.25.55-1.1-1.25-1.15.3l-2.35-.05q1-.75.9-1.85-.65.1-1.15.1-.75-.05-.25-1.2 0 .55.85.8.95.3 1.2-.4l.05-.75 1.7.1q-1.6 1.2-1.8 2.45 1.15.1 1.55-1.75 1.85-.4.5 1.1.05 0 1.1-.2.4-.05.65.6-.55.4-1.55.2m8.2.35q-.55.65-1.75 1.05-1.3.5-1.85.95l-.3-.1q1.55-1.25 3.9-1.9z" id="a"/></defs><use xlink:href="#a" transform="translate(-207.9 -16.15)"/></svg>