
<svg xmlns="http://www.w3.org/2000/svg" version="1.1" xmlns:xlink="http://www.w3.org/1999/xlink" preserveAspectRatio="none" x="0px" y="0px" width="149px" height="149px" viewBox="0 0 149 149">
<defs>
<g id="Layer0_0_FILL">
<path fill="#009933" stroke="none" d="
M 380.1 42.6
Q 374.87734375 32.52734375 366.25 23.9 362 19.65 357.4 16.2 355.5 19.5 353.95 21.9
L 358.6 22.05
Q 358.65 22.45 358.2 22.65 357.75 22.75 357.85 23.35 358.2 23.2 358.65 22.75
L 358.8 23.35
Q 358.95 23.85 359.6 23.7 358.05 24.2 356.7 23.5 355.2 22.75 354.5 22.9 354.5 22.85 353.8 22.15 353.6 22.4 353.45 22.7 353.75 23 354.3 23.15 355.8 23.5 356 23.95 355.75 24.35 353.25 22.95 352.5 24.05 351.85 24.95 351.65 25.25 351.3 24.95 351.9 24.15 352.75 22.85 352.5 22.95 352.15 23.4 351.4 24.35 350.65 24.05 350.6 23.8 351.15 23.75 351.65 23.75 351.4 23.15 349.95 23.05 349.85 23.1 349.85 22.25 350.9 22.4 351.9 22.6 351.95 23.15 352.3 23.2 352.05 22.75 351.85 22.4 352.5 22.55 352.45 22.1 351.45 22.25 350.5 22.35 350.45 21.8
L 353 21.85
Q 353 22.05 353.1 22.25 354.5 20 356.5 16.4 356.65 16.1 356.85 15.8 352.45 12.6 347.7 10.1 347.55 10.15 347.45 10.15 347.2 11.1 347.1 10.95 347.05 10.95 346.95 10.1 338.05 9.45 323.15 9.1 317.45 9 313 8.9 312.5 9.05 312.45 9.2 312 9.1 311.7 9.6 311.35 10.15 311.15 10.15 311.6 9.65 311.65 9.2 312.5 8.95 310.9 8.85 302.05 8.65 299 8.5
L 299 8.15 346.45 9.5
Q 331.55 2.1 313.6 2.1 293.6 2.1 277.35 11.3 277.3 11.35 277.2 11.45 277.25 11.45 278.2 11.35 278.5 11.3 278.75 11.8 278.25 12.15 277.4 11.95 276.95 11.85 277.15 12.45 276.25 11.4 276.15 12.7
L 275 12.7
Q 267.55 17.3 260.9 23.9 239.1 45.75 239.1 76.6 239.1 107.45 260.9 129.25 262 130.35 263.15 131.4
L 263.25 127.25 265 127.3
Q 264.3 128.1 263.95 128.6 263.4 129.4 263.4 130.45
L 263.4 131.65
Q 284.5 151.1 313.6 151.1 327.9 151.1 340.25 146.45
L 345.7 141.8
Q 344.6 142.9 342.55 145.5 344.75 144.55 346.95 143.5 346.85 143.1 346.8 143.05 346.8 142.75 347.25 142.65 347.8 142.65 347.9 142.4 347.6 142.2 347.6 142.4 347.2 142.4 347.4 141.75
L 347.85 141.75
Q 348.1 142.1 348 142.6 347.85 143.1 347.3 143.05 347.35 143.15 347.55 143.15 348 142.9 348.45 142.7 348.4 142.55 348.35 142.4 348.45 142.45 348.75 142.55 352.15 140.65 355.4 138.4 355.9 137.45 356.5 136.4 359.7 130.8 361.4 129 358.8 133.85 356.65 137.5 361.65 133.85 366.25 129.25 385.75 109.8 387.85 83.15 387.15 84.1 385.95 84.6 384.45 84.1 383.7 83.35 383.45 84.35 383.45 81.85 383.45 80.25 384.35 79.9 384.85 79.65 385.95 79.6 387.15 80.1 388 81 388.1 78.8 388.1 76.6 388.1 68.6189453125 386.65 61.25 385.3091796875 54.492578125 382.75 48.25 381.563671875 45.3705078125 380.1 42.6
M 345.7 21.8
Q 345.1 22.4 344.3 23.35 351 27.35 356.9 33.25 361.3537109375 37.7037109375 364.7 42.6 367.83046875 47.158203125 370 52.1 371 54.4 371.85 56.75 372.59609375 58.9646484375 373.15 61.25 375.05 68.7677734375 375.05 77.05 375.05 102.75 356.9 120.85 351.9 125.85 346.4 129.5
L 360.3 129.85
Q 360.25 130 359.75 130.15 357.55 129.7 357.15 130.4
L 356.95 130.4
Q 352.15 129.35 347.45 130.15 347.2 131.1 347.1 130.95 347.05 130.95 346.95 130.1 346.25 130.05 345.55 130 331.2 139.05 313.1 139.05 312.4 139.05 311.7 139.05 311.6 139.15 311.5 139.25 311.55 139.25 312.45 139.1 312.8 139.05 313.05 139.6 312.5 139.95 311.7 139.75 311.25 139.65 311.45 140.25 310.55 139.2 310.45 140.5
L 310.2 140.55 308.35 140.45
Q 309.25 139.85 309.15 138.95 309 138.95 308.9 138.95 308.5 138.95 308.15 138.95 308 138.95 307.9 138.85 291.25 137.6 277.95 128.2 277.85 128.25 277.8 128.3 278.2 128.9 277.8 129.55
L 277.8 129.9 277.25 129.85 277.35 128.3
Q 277.25 127.8 276.8 127.95
L 276.8 127.55 277.05 127.55
Q 273 124.6 269.25 120.85 257.95 109.55 253.7 95.35
L 250.3 95.25 250.3 94.95
Q 251.45 94.85 253.55 94.9 252.55 91.4 251.95 87.75 251.6 87.8 251.1 87.65 250.75 87.6 250.9 88.05 249.95 87.1 249.85 88.4
L 247.85 88.35
Q 248.65 87.65 248.7 86.75 248 86.8 247.65 86.85 246.9 86.85 247.4 85.75 248.85 86.9 249.15 86.15
L 249.2 85.5 250.7 85.55
Q 249.25 86.75 249.15 87.75 250.1 87.75 250.45 86.15 252.2 85.8 250.9 87.15 251.35 87.2 251.85 87.05 251.1 82.2 251.1 77.05 251.1 51.4 269.25 33.25 270.7 31.8 272.25 30.45 271.85 30.55 271.3 30.5 269.8 30.35 269.25 30.55 269.25 30.1 269.75 30.2 270.5 30.25 270.55 30.25 270.95 30 269.95 29.95 268.9 29.85 269.55 29.25
L 270.85 29.25
Q 271 30.05 271.7 29.85 272.45 29.55 272.85 29.95 289.95 15.1 313.1 15.1 316.9 15.1 320.55 15.5 320.6 15.4 320.7 15.3
L 320.65 15.5
Q 322.95 15.75 325.2 16.2 325.65 16.05 326.25 15.3
L 326.15 15.6
Q 326.2 15.95 326.5 16.45 335.85 18.4 344.05 23.2
L 345.7 21.8
M 348.35 22.4
Q 348.55 22.45 349.1 22.65 349.35 22.8 349.6 22.45 349.65 23.05 349.4 23.75 350.95 23.85 350.1 24.1 348.75 24.15 348.35 22.4
M 347.9 22.4
Q 347.6 22.2 347.6 22.4 347.2 22.4 347.4 21.75
L 347.85 21.75
Q 348.1 22.1 348 22.6 347.85 23.1 347.3 23.05 347.35 23.2 348.1 23.1 348.35 23.1 348.55 23.7 347.9 23.9 347.8 24.65 347.3 24.7 347.1 24.05 346.85 23.15 346.8 23.05 346.8 22.75 347.25 22.65 347.8 22.65 347.9 22.4
M 359.5 20.45
L 359.5 20.15
Q 359.95 20 359.95 19.9
L 361.8 19.9
Q 362.85 20.1 362.2 23.8
L 361.95 23.75 361.9 23.15
Q 360.9 20.8 359.5 20.45
M 358.8 24.95
Q 358.95 25.5 358.55 25.6 356.15 24.4 356.8 24.45 357.05 24.45 358.8 24.95
M 359.15 33.45
L 359.15 33.15
Q 359.5 33.15 359.9 32.85 360.2 32.85 360.45 32.5 360.5 32.85 360.9 33 361.25 33.15 361.2 33.5
L 359.15 33.45
M 380.2 92.55
Q 380.45 92.9 380.45 94.35 380.45 95.8 380.4 95.85 380.3 96.15 380.2 96.6 380.1 96.6 379.35 97 378.5 97.45 377.95 97.6 375.6 95.25 375.6 94.45 375.6 91.05 379.95 92.1 379.95 92.25 380.2 92.55
M 326.95 144.9
L 327.25 144.95 327.1 148.45 326.35 148.45
Q 326.4 148.05 326.05 147.85 325.65 147.7 325.6 147.45 326.35 146.5 326.65 145.85
L 326.65 145.55
Q 327.05 145.45 326.95 144.9
M 315.2 11.2
Q 315.45 11.3 315.7 11.55 315.4 11.7 314.9 13.5 315.35 13.45 315.35 13.8
L 314.9 13.8
Q 314.85 13.6 314.1 13.8 315 12.05 315.2 11.2
M 295.45 10.35
L 295.75 10.35
Q 295.95 11.7 294.7 12.25 294.35 12.3 294.65 11.7 294.9 11.05 294.45 11 294.6 10.5 294.8 10.95 295.1 11.5 295.45 11.35
L 295.45 10.35
M 303 11.15
Q 302 11.05 302.15 11.8
L 304.2 11.9
Q 303.35 12.8 302.2 12.25 300.85 11.65 300.05 12.1 300.25 10.65 302.65 10.95
L 302.65 10.55 303.2 10.55
Q 303.25 10.75 304.2 10.9 304.1 11.4 303 11.15
M 262.65 29.85
L 262.7 27.65
Q 262.7 28.3 263.4 28.8 264.15 29.25 264.15 29.85
L 262.65 29.85
M 267.5 28.8
Q 267.45 27.9 268.05 28 268.2 28.45 267.9 29.2 267.8 29.6 268 29.65
L 268 29.95 267.25 29.95
Q 267.5 29.9 267.5 28.8
M 291.7 143.2
Q 291 143.25 290.65 143.3 289.9 143.3 290.4 142.2 291.85 143.35 292.15 142.6
L 292.2 141.95 293.7 142
Q 292.25 143.2 292.15 144.2 293.1 144.2 293.45 142.6 295.2 142.25 293.9 143.6 294.4 143.65 294.9 143.45 295.2 143.4 295.45 143.95 295 144.35 294.1 144.1 293.75 144.05 293.9 144.5 292.95 143.55 292.85 144.85
L 290.85 144.8
Q 291.65 144.1 291.7 143.2
M 315.75 141.85
L 315.5 141.75
Q 316.9 140.7 318.95 140.1 318.45 140.65 317.35 141.05 316.2 141.45 315.75 141.85
M 275.5 129.8
L 277 129.85
Q 275.6 130.95 275.4 132.05 276.45 132.1 276.75 130.45 278.4 130.15 277.2 131.45 277.25 131.45 278.2 131.35 278.5 131.3 278.75 131.8 278.25 132.15 277.4 131.95 276.95 131.85 277.15 132.45 276.25 131.4 276.15 132.7
L 274.1 132.65
Q 274.95 132 274.9 131.1 274.3 131.15 273.85 131.15 273.2 131.15 273.65 130.05 273.65 130.55 274.4 130.85 275.2 131.05 275.45 130.5
L 275.5 129.8
M 310.85 139
Q 310.45 139 310.05 139 309.8 139.4 309.7 139.8 310.45 139.85 310.85 139
M 312.7 82.65
Q 311.75 84.15 310.95 85.45
L 314.65 85.6 312.7 82.65
M 310.8 85.7
Q 310.6 85.95 310.4 86.25 310.75 86.55 311.3 86.7 312.8 87.05 313 87.5 312.75 87.9 310.25 86.5 310.15 86.65 310.05 86.8
L 311.45 88.9 315.05 88.9
Q 313.2 87.95 313.8 88 314.05 88 315.8 88.5 315.85 88.75 315.85 88.9
L 316.85 88.9 315.9 87.45
Q 314.75 87.6 313.7 87.05 312.2 86.3 311.5 86.45 311.5 86.4 310.8 85.7
M 315.35 86.6
L 315.1 86.25
Q 314.75 86.4 314.85 86.9 315.05 86.8 315.35 86.6
M 289.05 72.9
Q 286.8 72.8 284.35 72.75
L 284.35 88.9 296.6 88.9 296.6 84.6 289.05 84.6 289.05 80.05 296.6 80.05 296.6 75.8 289.05 75.8 289.05 72.9
M 284.35 72.5
L 289.05 72.65 289.05 71.4 296.6 71.4 296.6 67.1 284.35 67.1 284.35 72.5
M 315.75 73.65
Q 315.887109375 73.604296875 316 73.6 315.93125 73.6 315.8 73.6 315.75 73.6 315.75 73.65
M 305.3 73.1
L 305.3 71 306.35 71
Q 308.1 71 309.05 71.7 309.8 72.3 310 73.2
L 314.8 73.35
Q 314.75 70.5 312.9 68.85 311 67.1 307.75 67.1
L 300.55 67.1 300.55 72.95 305.3 73.1
M 305.3 73.6
Q 304.85 73.65 304.45 73.7 304.2 74.65 304.1 74.5 304.05 74.5 303.95 73.65 302.35 73.55 300.55 73.45
L 300.55 87.2 302.7 85.35
Q 301.9 86.15 300.55 87.8
L 300.55 88.9 305.25 88.9 305.25 87.4
Q 304.85 87.65 304.8 88.2 304.3 88.25 304.1 87.6 303.85 86.7 303.8 86.6 303.8 86.3 304.25 86.2 304.8 86.2 304.9 85.95 304.6 85.75 304.6 85.95 304.2 85.95 304.4 85.3
L 304.85 85.3
Q 305.1 85.65 305 86.15 304.85 86.65 304.3 86.6 304.35 86.75 305.1 86.65 305.2 86.65 305.25 86.7
L 305.25 80.45 305.8 80.45 309.1 85.4 310 85.4
Q 310 85.6 310.1 85.8 311.05 84.25 312.3 82.1
L 310.75 79.8
Q 313.1 78.8 313.95 77 314.8 75.2 314.8 73.6 314.3 73.65 314.15 73.95
L 313.95 73.95
Q 311.95 73.5 310 73.4 310 73.5 310 73.65 310 76.65 306.3 76.65
L 305.3 76.65 305.3 73.6
M 280.8 72.7
Q 280.5 72.65 280.15 72.65 279.55 72.65 279 72.65 279.9 73.05 280.8 73.6
L 280.8 72.7
M 267 70.1
Q 266.15 70.95 265.55 72
L 271.75 72.15
Q 272.95 71.45 274.6 71.45 276.3 71.45 278.35 72.35
L 280.8 72.4 280.8 68.25
Q 277.5 66.8 274.6 66.8 270.1 66.8 267 70.1
M 267.9 72.4
Q 266.55 72.35 265.35 72.35 263.85 74.85 263.85 78.1 263.85 81.4 265.4 84 266.25 83.4 266.15 82.45 265.6 82.5 265.15 82.5 264.5 82.45 264.95 81.4 264.95 81.9 265.7 82.15 266.5 82.4 266.75 81.8
L 266.8 81.15 268.3 81.2
Q 266.9 82.3 266.7 83.35 267.75 83.45 268.05 81.8 269.7 81.5 268.5 82.8 268.55 82.8 269.45 82.65 269.8 82.6 270.05 83.15 269.5 83.5 268.7 83.3 268.25 83.2 268.45 83.8 267.55 82.75 267.45 84.05
L 267.2 84.1 265.45 84
Q 266.05 85.05 266.95 86 270 89.2 274.4 89.2 276.95 89.2 280.8 87.9
L 280.8 82.65
Q 277.35 84.6 274.9 84.6 274.65 84.6 274.4 84.6
L 274.35 84.6
Q 273.2 85 272.75 85.4
L 272.5 85.3
Q 273.1 84.85 273.75 84.55 271.75 84.25 270.45 82.85 268.75 81.1 268.75 78.2 268.75 75.1 270.35 73.3 270.75 72.8 271.3 72.45 270.6 72.45 270 72.45 269.5 72.6 269.45 72.75 269 72.65 268.7 73.15 268.35 73.7 268.15 73.7 268.6 73.2 268.65 72.75 269.5 72.5 267.9 72.4
M 333.55 71.75
L 333.55 67.1 318.9 67.1 318.9 71.75 323.9 71.75 323.9 88.9 328.6 88.9 328.6 71.75 333.55 71.75
M 354.8 70.05
Q 353.325390625 68.575390625 351.5 67.75 349.36484375 66.85 346.75 66.85 342.4 66.85 339.2 70 336 73.15 336 78 336 82.85 339.1 86 342.15 89.15 346.9 89.15 351.7 89.15 354.8 86 357.95 82.8 357.95 78.05 357.95 74.4251953125 356.2 71.75 355.595703125 70.845703125 354.8 70.05
M 347 71.2
Q 349.7 71.25 351.4 73.1 353.05 74.95 353.05 78 353.05 81.1 351.35 82.95 349.65 84.85 346.9 84.85 344.3 84.85 342.6 82.95 340.9 81.05 340.9 78.15 340.9 75.05 342.55 73.1 344.25 71.15 347 71.2
M 326.45 16.45
Q 326.3 16.25 326.1 16.3 326 16.15 325.85 16.3 326.15 16.35 326.45 16.45 Z"/>
</g>
</defs>

<g transform="matrix( 1, 0, 0, 1, -239.1,-2.1) ">
<use xlink:href="#Layer0_0_FILL"/>
</g>
</svg>
