<svg xmlns="http://www.w3.org/2000/svg" width="149" height="149" viewBox="0 0 149 149"><path fill="#093" d="M141 40.5c-3.482-6.715-8.1-12.948-13.85-18.7a82.65 82.65 0 0 0-8.85-7.7c-1.268 2.2-2.418 4.1-3.45 5.7l4.65.15c.032.267-.1.466-.4.6-.3.066-.417.3-.35.7.232-.1.5-.3.8-.6l.15.6c.1.333.365.45.8.35-1.034.333-2 .267-2.9-.2-1-.5-1.733-.7-2.2-.6 0-.034-.234-.284-.7-.75-.134.167-.25.35-.35.55.2.2.483.35.85.45 1 .233 1.566.5 1.7.8-.167.267-1.084-.067-2.75-1-.5.733-.967 1.4-1.4 2-.133.2-.316.2-.55 0 .4-.533.884-1.233 1.45-2.1-.167.067-.367.25-.6.55-.5.633-1 .85-1.5.65-.034-.167.133-.267.5-.3.332 0 .416-.2.25-.6-.967-.067-1.484-.083-1.55-.05 0-.567.35-.8 1.05-.7.666.133 1.016.383 1.05.75.233.033.267-.1.1-.4-.134-.233.017-.3.45-.2-.033-.3-.384-.4-1.05-.3-.634.067-.968-.083-1-.45l2.55.05c0 .133.033.267.1.4.934-1.5 2.066-3.45 3.4-5.85.1-.2.217-.4.35-.6A74.652 74.652 0 0 0 108.6 8a.837.837 0 0 1-.25.05c-.166.633-.283.9-.35.8-.033 0-.084-.283-.15-.85-5.934-.433-13.866-.767-23.8-1-3.8-.067-7.183-.133-10.15-.2-.333.1-.517.2-.55.3-.3-.067-.55.066-.75.4-.233.367-.417.55-.55.55.3-.333.467-.65.5-.95.567-.167.317-.283-.75-.35-5.9-.133-9.867-.25-11.9-.35v-.35l47.45 1.35C97.416 2.467 86.467 0 74.5 0 61.167 0 49.083 3.067 38.25 9.2l-.15.15c.033 0 .367-.033 1-.1.2-.033.383.117.55.45-.333.233-.783.283-1.35.15-.3-.067-.383.1-.25.5-.6-.7-.933-.617-1 .25H35.9c-4.967 3.066-9.667 6.8-14.1 11.2C7.267 36.366 0 53.933 0 74.5c0 20.566 7.267 38.117 21.8 52.65a70.34 70.34 0 0 0 2.25 2.15l.1-4.15 1.75.05c-.467.533-.816.966-1.05 1.3-.367.533-.55 1.15-.55 1.85v1.2C38.367 142.518 55.1 149 74.5 149c9.533 0 18.416-1.55 26.65-4.65l5.45-4.65c-.733.734-1.784 1.967-3.15 3.7 1.466-.633 2.933-1.3 4.4-2-.067-.267-.117-.416-.15-.45 0-.2.15-.332.45-.398.366 0 .583-.084.65-.25-.2-.135-.3-.135-.3 0-.268 0-.335-.217-.2-.65h.45c.165.232.216.516.15.85-.102.334-.335.483-.7.45.032.066.115.1.25.1.3-.167.6-.316.898-.45l-.1-.3c.066.034.2.083.4.15a81.917 81.917 0 0 0 6.65-4.15c.332-.634.7-1.3 1.1-2 2.133-3.733 3.766-6.2 4.9-7.4a245.372 245.372 0 0 1-4.75 8.5 81.945 81.945 0 0 0 9.6-8.25c13-12.966 20.2-28.333 21.6-46.1-.467.634-1.1 1.116-1.9 1.45-1-.334-1.75-.75-2.25-1.25-.166.666-.25.166-.25-1.5 0-1.066.3-1.717.9-1.95.334-.167.867-.267 1.6-.3.8.334 1.484.8 2.05 1.4a97.9 97.9 0 0 0 .1-4.4c0-5.32-.482-10.438-1.45-15.35a70.306 70.306 0 0 0-3.898-13A65.198 65.198 0 0 0 141 40.5m-34.4-20.8c-.4.4-.866.917-1.4 1.55 4.467 2.667 8.668 5.967 12.6 9.9 2.97 2.97 5.57 6.086 7.8 9.35a57.8 57.8 0 0 1 5.302 9.5 79.865 79.865 0 0 1 1.85 4.65c.498 1.477.93 2.977 1.3 4.5 1.267 5.012 1.9 10.28 1.9 15.8 0 17.134-6.05 31.733-18.15 43.8-3.333 3.334-6.833 6.217-10.5 8.65l13.9.35c-.034.1-.217.2-.55.3-1.467-.3-2.334-.216-2.6.25h-.2c-3.2-.7-6.367-.783-9.5-.25-.167.634-.284.9-.35.8-.034 0-.085-.283-.15-.85l-1.4-.1c-9.567 6.033-20.384 9.05-32.45 9.05h-1.4l-.2.2c.033 0 .35-.05.95-.15.233-.033.433.133.6.5-.367.233-.817.283-1.35.15-.3-.066-.383.1-.25.5-.6-.7-.934-.617-1 .25l-.25.05-1.85-.1c.6-.4.867-.9.8-1.5h-1a.338.338 0 0 1-.25-.1c-11.1-.835-21.083-4.384-29.95-10.65a.525.525 0 0 0-.15.1c.267.4.267.816 0 1.25v.35l-.55-.05.1-1.55c-.067-.333-.25-.45-.55-.35v-.4h.25c-2.7-1.967-5.3-4.2-7.8-6.7-7.533-7.533-12.717-16.033-15.55-25.5l-3.4-.1v-.3c.767-.066 1.85-.083 3.25-.05a63.467 63.467 0 0 1-1.6-7.15c-.233.034-.517 0-.85-.1-.233-.033-.3.1-.2.4-.633-.634-.983-.517-1.05.35l-2-.05c.533-.467.817-1 .85-1.6-.467.033-.817.066-1.05.1-.5 0-.583-.367-.25-1.1.967.766 1.55.9 1.75.4l.05-.65 1.5.05c-.967.8-1.483 1.533-1.55 2.2.633 0 1.067-.533 1.3-1.6 1.167-.234 1.316.1.45 1 .3.033.617 0 .95-.1a65.36 65.36 0 0 1-.75-10c0-17.1 6.05-31.7 18.15-43.8.967-.968 1.967-1.9 3-2.8a2.9 2.9 0 0 1-.95.05c-1-.1-1.684-.084-2.05.05 0-.3.167-.418.5-.35.5.032.767.05.8.05.267-.168.066-.268-.6-.3-.7-.068-.833-.3-.4-.7h1.3c.1.532.383.732.85.6.5-.2.883-.168 1.15.1C45.152 17.95 58.57 13 74.002 13c2.533 0 5.017.132 7.45.4a.803.803 0 0 1 .15-.2l-.05.2c1.533.166 3.05.4 4.55.7.3-.1.65-.4 1.05-.9l-.1.3c.033.232.15.516.35.85a57.93 57.93 0 0 1 17.55 6.75l1.648-1.4m2.65.6c.133.033.383.116.75.25.166.1.334.033.5-.2.033.4-.033.833-.2 1.3 1.034.067 1.267.184.7.35-.9.033-1.483-.533-1.75-1.7m-.45 0c-.2-.134-.3-.134-.3 0-.267 0-.334-.217-.2-.65h.45c.166.233.217.517.15.85-.1.333-.334.483-.7.45.033.1.3.117.8.05.166 0 .316.2.45.6-.434.133-.684.45-.75.95-.333.033-.567-.167-.7-.6-.166-.6-.267-.934-.3-1 0-.2.15-.333.45-.4.367 0 .583-.083.65-.25m11.6-1.95v-.3c.3-.1.45-.184.45-.25h1.85c.7.133.833 1.433.4 3.9l-.25-.05-.05-.6c-.667-1.567-1.466-2.466-2.4-2.7m-.7 4.5c.1.367.017.583-.25.65-1.6-.8-2.184-1.183-1.75-1.15.167 0 .833.167 2 .5m.35 8.5v-.3c.233 0 .483-.1.75-.3.2 0 .384-.117.55-.35.033.233.184.4.45.5.233.1.333.267.3.5l-2.05-.05m21.05 59.1c.167.233.25.833.25 1.8s-.016 1.467-.05 1.5c-.066.2-.134.45-.2.75-.066 0-.35.133-.85.4-.566.3-1.033.5-1.4.6-1.566-1.566-2.35-2.617-2.35-3.15 0-2.266 1.45-3.05 4.35-2.35 0 .1.084.25.25.45M87.85 142.8l.3.05-.15 3.5h-.75a.56.56 0 0 0-.3-.6c-.266-.1-.416-.233-.45-.4.5-.633.85-1.166 1.05-1.6v-.3c.266-.067.366-.284.3-.65M76.1 9.1a1.5 1.5 0 0 1 .5.35c-.2.1-.467.75-.8 1.95.3-.033.45.067.45.3h-.45c-.033-.133-.3-.133-.8 0 .6-1.167.967-2.033 1.1-2.6m-19.75-.85h.3c.133.9-.217 1.533-1.05 1.9-.233.033-.25-.15-.05-.55.167-.434.1-.667-.2-.7.1-.333.217-.35.35-.05.2.367.417.5.65.4v-1m7.55.8c-.667-.067-.95.15-.85.65l2.05.1c-.567.6-1.233.716-2 .35-.9-.4-1.617-.45-2.15-.15.133-.967 1-1.35 2.6-1.15v-.4h.55c.033.133.367.25 1 .35-.067.333-.467.417-1.2.25m-40.35 18.7l.05-2.2c0 .433.233.816.7 1.15.5.3.75.65.75 1.05h-1.5m4.85-1.05c-.033-.6.15-.867.55-.8.1.3.05.7-.15 1.2-.066.267-.033.417.1.45v.3h-.75c.167-.033.25-.417.25-1.15m24.2 114.4c-.467.033-.817.066-1.05.1-.5 0-.583-.365-.25-1.1.967.768 1.55.9 1.75.4l.05-.65 1.5.05c-.967.8-1.483 1.534-1.55 2.2.633 0 1.067-.533 1.3-1.6 1.167-.233 1.316.1.45 1 .333.033.667-.017 1-.15.2-.033.383.134.55.5-.3.268-.75.316-1.35.15-.233-.033-.3.1-.2.4-.633-.634-.983-.518-1.05.35l-2-.05c.533-.467.817-1 .85-1.6m24.05-1.35l-.25-.1c.934-.7 2.083-1.25 3.45-1.65-.334.367-.867.684-1.6.95-.767.267-1.3.533-1.6.8M36.4 127.7l1.5.05c-.933.733-1.467 1.467-1.6 2.2.7.033 1.15-.5 1.35-1.6 1.1-.2 1.25.133.45 1 .033 0 .367-.034 1-.1.2-.034.383.116.55.45-.333.232-.783.282-1.35.148-.3-.066-.383.1-.25.5-.6-.7-.933-.616-1 .25l-2.05-.05c.567-.433.833-.95.8-1.55-.4.033-.75.05-1.05.05-.433 0-.5-.366-.2-1.1 0 .333.25.6.75.8.534.133.883.017 1.05-.35l.05-.698m35.35 9.2h-.8a2.75 2.75 0 0 0-.35.8c.5.033.883-.233 1.15-.8m8.37-56.35c-.634 1-1.218 1.934-1.75 2.8l3.7.15-1.95-2.95m-1.9 3.05c-.134.167-.268.35-.4.55.232.2.533.35.9.45 1 .234 1.566.5 1.7.8-.167.267-1.084-.065-2.75-1-.067.1-.135.2-.2.3l1.4 2.102h3.6c-1.233-.635-1.65-.934-1.25-.9.166 0 .833.166 2 .5.033.166.05.3.05.4h1l-.95-1.45c-.767.1-1.5-.034-2.2-.4-1-.5-1.733-.7-2.2-.6 0-.036-.234-.286-.7-.752m4.55.9l-.25-.35c-.233.1-.316.316-.25.65a5.3 5.3 0 0 0 .5-.3m-26.3-13.7c-1.5-.067-3.067-.117-4.7-.15V86.8h12.25v-4.3h-7.55v-4.55h7.55V73.7h-7.55v-2.9m-4.7-.4l4.7.15V69.3h7.55V65H51.77v5.4m31.4 1.15a.885.885 0 0 1 .25-.05h-.2c-.034 0-.05.017-.05.05M72.72 71v-2.1h1.05c1.167 0 2.066.233 2.7.7.5.4.815.9.95 1.5l4.8.15c-.034-1.9-.667-3.4-1.9-4.5-1.267-1.167-2.983-1.75-5.15-1.75h-7.2v5.85l4.75.15m0 .5c-.3.033-.583.067-.85.1-.167.633-.283.9-.35.8-.033 0-.083-.283-.15-.85-1.067-.067-2.2-.134-3.4-.2V85.1l2.15-1.85c-.533.533-1.25 1.35-2.15 2.45v1.1h4.7v-1.5c-.267.167-.417.434-.45.8-.333.033-.567-.166-.7-.6-.167-.6-.267-.934-.3-1 0-.2.15-.334.45-.4.367 0 .583-.083.65-.25-.2-.133-.3-.133-.3 0-.267 0-.333-.217-.2-.65h.45c.167.234.217.518.15.852-.1.332-.333.482-.7.45.033.1.3.116.8.05.067 0 .117.016.15.05v-6.25h.55l3.298 4.95h.9a.88.88 0 0 0 .1.4 191.31 191.31 0 0 0 2.2-3.7l-1.55-2.3c1.567-.668 2.634-1.602 3.2-2.8s.85-2.334.85-3.4c-.332.032-.55.15-.65.35h-.2a23.46 23.46 0 0 0-3.95-.55v.25c0 2-1.232 3-3.698 3h-1V71.5m-24.5-.9a4 4 0 0 0-.65-.05h-1.15c.6.267 1.2.583 1.8.95v-.9M34.42 68a8.994 8.994 0 0 0-1.45 1.9l6.2.15c.8-.467 1.75-.7 2.85-.7 1.133 0 2.383.3 3.75.9l2.45.05v-4.15c-2.2-.967-4.267-1.45-6.2-1.45-3 0-5.533 1.1-7.6 3.3m.9 2.3c-.9-.034-1.75-.05-2.55-.05-1 1.667-1.5 3.583-1.5 5.75 0 2.2.517 4.166 1.55 5.9.567-.4.817-.917.75-1.55-.367.032-.7.05-1 .05-.433-.033-.5-.4-.2-1.1 0 .332.25.582.75.75.533.166.883.05 1.05-.35l.05-.65 1.5.05c-.934.733-1.467 1.45-1.6 2.15.7.065 1.15-.45 1.35-1.55 1.1-.2 1.25.133.45 1 .033 0 .35-.05.95-.15.233-.034.433.133.6.5-.367.232-.817.283-1.35.15-.3-.068-.383.1-.25.5-.6-.7-.934-.617-1 .25l-.25.05-1.75-.1c.4.698.9 1.365 1.5 2 2.033 2.132 4.517 3.198 7.45 3.198 1.7 0 3.833-.434 6.4-1.3v-5.25c-2.3 1.3-4.267 1.95-5.9 1.95h-.55c-.767.267-1.3.533-1.6.8l-.25-.1c.4-.3.817-.55 1.25-.75-1.333-.2-2.433-.767-3.3-1.7-1.133-1.166-1.7-2.717-1.7-4.65 0-2.066.533-3.7 1.6-4.9.267-.332.583-.616.95-.85h-1.3c-.333.1-.517.2-.55.3-.3-.065-.55.068-.75.4-.233.367-.417.55-.55.55.3-.332.467-.65.5-.95.567-.165.317-.28-.75-.348m64.063-.65V65h-14.65v4.65h5V86.8h4.7V69.65h4.95M87.35 14.35c-.1-.133-.217-.184-.35-.15-.066-.1-.15-.1-.25 0 .2.033.4.083.6.15zm23.736 54.542c-1.87-.123-3.904-.247-6.1-.374l-6.85 18.36h4.35l1.6-4.257h7.85l.5 1.385.9-.744c-.246.254-.53.556-.85.905l1.05 2.714h4.45l-.4-1.065c-.605-.226-1.006-.828-1.2-1.81.11 0 .294.054.55.16l-5.85-15.273m-3.1 3.405l2.45 6.386h-4.85l2.4-6.386m6.6 12.454c0-.247.184-.407.55-.478.366-.035.583-.123.65-.266-.167-.177-.25-.177-.25 0-.333-.035-.417-.32-.25-.852l.55.107c.166.248.184.55.05.905-.066.426-.3.62-.7.585.033.107.316.107.85 0 .234.07.434.32.6.745-.5.177-.8.567-.898 1.17-.367.036-.634-.21-.8-.743-.168-.71-.286-1.1-.352-1.17m-9.4-16.658l5.7.16-1.2-3.087h-3.4l-1.1 2.927"/></svg>