<svg xmlns="http://www.w3.org/2000/svg" xmlns:xlink="http://www.w3.org/1999/xlink" preserveAspectRatio="none" width="51" height="61" viewBox="0 0 51 61"><defs><filter id="e" x="-20%" y="-20%" width="140%" height="140%" color-interpolation-filters="sRGB"><feColorMatrix in="SourceGraphic" values="1 0 0 0 0 0 1 0 0 0 0 0 1 0 0 0 0 0 0 0" result="result1"/></filter><path fill="#98ADAF" d="M-9.5-25.7l-3.7-1-3.2.7-4.3 2.9-.95 1.35-.7 1.65-.3 1.6v1.65l.3 1.65.7 1.95 33.8 38.3 1.3 1 2.6.65h1.35l2.25-.65 1-.6 2-3v-3.9L22 17.2 0-9.3l-.65-.35h-.7L-2-9.3l-.3.3v1l21.95 26.25.4.95.3 1.65-1.3 2.55-1.35.7h-1.65l-1.65-.3-1.65-1.35-32.15-37-1-2.6.4-1 .6-2.3.65-1 1-.95.95-.7 3.6-.95 2.35.65 1.35.7.95 1.25 1.65 1.65 1.95-1.65-2.9-2.9-1.65-1.35z" id="a"/><path fill="#B0C3C4" d="M-20.4-13.25l.7.95 32.15 36.1v.3l1.35.95 1.6.7h1.65l1.35-.7.65-.95.6-1.3-.6 1-1.35.65-1.65.3-1.65-.65-1.65-1.3-32.15-36.05-1-1.6-.3-1.65v-1.65l.3-1.65-.65 1.65-.3 1.95.95 2.95z" id="b"/><path fill="#B0C3C4" d="M-1.35-8.3l.7.3 21 24.9L22 19.8v1.65l-.3 1.35.6-1.35V19.5l-.6-1.65-1.05-1.95L0-8.7-.65-9h-1l-.35.7v.3l.65-.3z" id="c"/><path fill="#B0C3C4" d="M-14.75-25.05h1.55l1.35.3 3.3 1.65 1.65 1.65.6 1.35 1.05-.95-1.35-1.65-2.6-2.05-1.3-.6-2-.65h-1.95l-2.35.65-.95.6L-20-22.7l-.7.95-.35 1 2-2.35 1.3-.95 1.35-.7 1.65-.3z" id="d"/><path fill="#98ADAF" d="M-10.65-27.5l-2 1.65 30.9 37.65 1.65 3.3.3 1.6v3l-1.65 2.6-1 1-1.95 1.25-1.35.4H12.6L9.7 23.9l-1.65-1-1.65-1.55L-20.85-9.5l-.35-.3h-1.3l-.3.6v1.35l29.2 32.8 4.25 2.25 1.95.35h2.05l3.3-1.35 1.25-.95 2.65-2.95.65-2 .3-1.95V16.4l-.3-2.35-.95-1.95-1.35-1.95-30.85-37.65z" id="f"/><path fill="#B0C3C4" d="M-21.2-9.2l-.6-.3h-.4l-.3.7.3.3h.4l.6.3L7.75 24.25l1.65 1 1.65.65 1.55.3h1.35l1.65-.3 1.95-1.35 1.35-1.25 1-1.95-.7 1.25-.95 1-2.35 1.35-2.6.6-1.65-.3-1.65-.7-1.6-.95-29.6-32.8z" id="g"/><path fill="#B0C3C4" d="M-11-27.2l-1 .7 32.85 40.25.7 2.95v2.6l-.7 2.65.7-1.3.6-3V16.1l-.6-3-1-1.65L-11-27.2z" id="h"/></defs><use xlink:href="#a" transform="translate(22.65 26.7)"/><use xlink:href="#b" transform="translate(22.65 26.7)"/><use xlink:href="#c" transform="translate(22.65 26.7)"/><use xlink:href="#d" transform="translate(22.65 26.7)"/><g><use filter="url(#e)" xlink:href="#f" transform="translate(28.4 32.85)"/><use filter="url(#e)" xlink:href="#g" transform="translate(28.4 32.85)"/><use filter="url(#e)" xlink:href="#h" transform="translate(28.4 32.85)"/></g></svg>