
<svg xmlns="http://www.w3.org/2000/svg" version="1.1" xmlns:xlink="http://www.w3.org/1999/xlink" preserveAspectRatio="none" x="0px" y="0px" width="48px" height="43px" viewBox="0 0 48 43">
<defs>
<linearGradient id="Gradient_1" gradientUnits="userSpaceOnUse" x1="26.75" y1="40.150000000000006" x2="26.75" y2="2.9499999999999993" spreadMethod="pad">
<stop  offset="0%" stop-color="#FF0000"/>

<stop  offset="100%" stop-color="#ED1C24"/>
</linearGradient>

<g id="Layer0_0_MEMBER_0_FILL">
<path fill="#CCCCCC" stroke="none" d="
M 43.65 18.4
L 43.85 18.35 49.15 19 47.6 14.45
Q 46.3 10.8 44.35 8.85 42.05 6.45 38.85 6.45
L 38.75 6.45
Q 32.95 6.6 26.8 13.6 24.1 9.6 23.5 5.45
L 22.75 0.5 18.7 3.5
Q 11.75 8.95 11.55 13.65 11.7 18.85 17.35 25 12.6 30.65 9.6 30.55
L 9.5 30.55 3.2 30.1 6.1 35.05
Q 8.45 38.95 10.9 41 13.75 43.45 17.05 43.45 20 43.4 23.3 40.45 25.3 38.6 27.6 35.45 34.15 41.25 38.6 41.45
L 39.15 41.5 39.15 41.45
Q 41.9 41.25 44.4 38.85 46.6 36.7 48.55 32.75
L 50.7 28.45 45.85 28.45
Q 41.05 28.45 36.35 24.3 38.2 22 40.7 20.15 41.65 19.4 42.95 18.7
L 43.65 18.4 Z"/>
</g>

<g id="Layer0_0_MEMBER_1_FILL">
<path fill="#FFFFFF" stroke="none" d="
M 43.25 36.5
Q 45.2 34.6 47.2 30.7
L 48.6 27.8 45.4 27.8
Q 39.8 27.8 34.55 22.75
L 34.6 22.65
Q 36.6 20 39.65 17.7 42.45 15.55 43.45 15.7
L 47.2 16.15 46.2 13.15
Q 45.05 9.75 43.2 7.9 41.1 5.8 38.35 5.8 32.5 5.95 26.25 13.6 22.7 8.8 22.05 3.95
L 21.55 0.65 18.85 2.65
Q 12.25 7.75 12.1 12.05 12.15 16.85 18.1 23.2
L 18.2 23.35
Q 12.85 30 9.05 29.9
L 4.55 29.6 6.5 32.9
Q 8.75 36.6 11.1 38.6 13.7 40.8 16.55 40.8
L 16.6 40.8
Q 19.3 40.75 22.15 38.05 24.3 36.1 26.95 32.3 33.95 38.7 38.15 38.8 40.8 38.85 43.25 36.5 Z"/>
</g>

<g id="Layer0_0_MEMBER_2_FILL">
<path fill="url(#Gradient_1)" stroke="none" d="
M 43.45 13.7
L 44.3 13.75
Q 42.25 7.8 38.35 7.8 33.35 7.8 27.1 15.7
L 26.25 16.85 25.1 15.45
Q 20.85 9.9 20.05 4.25 14.1 8.75 14.1 12.05 14.1 16.1 19.55 21.85
L 20.85 23.25 19.85 24.5
Q 13.85 31.9 9.05 31.9
L 8.2 31.85
Q 12.3 38.8 16.6 38.8 20.25 38.8 26.05 30.05
L 26.6 29.25 28.3 30.85
Q 34.8 36.8 38.15 36.8 42 36.8 45.4 29.8 39 29.8 32.95 24
L 31.9 23 33 21.45
Q 35.2 18.5 38.45 16.1 41.7 13.7 43.45 13.7 Z"/>
</g>

<g id="Layer0_0_MEMBER_4_FILL">
<path fill="#FFFFFF" fill-opacity="0.34901960784313724" stroke="none" d="
M 43.2 13.25
Q 43.2 11.7 41.75 10.3 40.25 8.8 38.35 8.8 33.35 8.8 27.1 16.7
L 26.25 17.85 25.1 16.45
Q 20.85 10.9 20.05 5.25 17.3 7.35 16.7 8.35 16.3 9 16.3 10.85 16.3 14.9 21.7 20.65
L 26.2 23.25 28.2 20.25
Q 29.1 19.05 34.2 15.25 39.85 11.05 43.2 13.25 Z"/>
</g>

<path id="Layer0_0_MEMBER_3_1_STROKES" stroke="#DB0000" stroke-width="1" stroke-linejoin="round" stroke-linecap="round" fill="none" d="
M 32.95 24
Q 39 29.8 45.4 29.8 42 36.8 38.15 36.8 34.8 36.8 28.3 30.85
L 26.6 29.25 26.05 30.05
Q 20.25 38.8 16.6 38.8 12.3 38.8 8.2 31.85
L 9.05 31.9
Q 13.85 31.9 19.85 24.5
L 20.85 23.25 19.55 21.85
Q 14.1 16.1 14.1 12.05 14.1 8.75 20.05 4.25 20.85 9.9 25.1 15.45
L 26.25 16.85 27.1 15.7
Q 33.35 7.8 38.35 7.8 42.25 7.8 44.3 13.75
L 43.45 13.7
Q 41.7 13.7 38.45 16.1 35.2 18.5 33 21.45
L 31.9 23 32.95 24 Z"/>
</defs>

<g transform="matrix( 1, 0, 0, 1, -3.2,-0.5) ">
<use xlink:href="#Layer0_0_MEMBER_0_FILL"/>
</g>

<g transform="matrix( 1, 0, 0, 1, -3.2,-0.5) ">
<use xlink:href="#Layer0_0_MEMBER_1_FILL"/>
</g>

<g transform="matrix( 1, 0, 0, 1, -3.2,-0.5) ">
<use xlink:href="#Layer0_0_MEMBER_2_FILL"/>
</g>

<g transform="matrix( 1, 0, 0, 1, -3.2,-0.5) ">
<use xlink:href="#Layer0_0_MEMBER_3_1_STROKES"/>
</g>

<g transform="matrix( 1, 0, 0, 1, -3.2,-0.5) ">
<use xlink:href="#Layer0_0_MEMBER_4_FILL"/>
</g>
</svg>
