<svg xmlns="http://www.w3.org/2000/svg" xmlns:xlink="http://www.w3.org/1999/xlink" preserveAspectRatio="none" width="48" height="43" viewBox="0 0 48 43"><defs><linearGradient id="a" gradientUnits="userSpaceOnUse" x1="26.75" y1="40.15" x2="26.75" y2="2.95"><stop offset="0%" stop-color="#F00"/><stop offset="100%" stop-color="#ED1C24"/></linearGradient><path fill="#CCC" d="M43.65 18.4l.2-.05 5.3.65-1.55-4.55q-1.3-3.65-3.25-5.6-2.3-2.4-5.5-2.4h-.1q-5.8.15-11.95 7.15-2.7-4-3.3-8.15L22.75.5l-4.05 3q-6.95 5.45-7.15 10.15.15 5.2 5.8 11.35-4.75 5.65-7.75 5.55h-.1l-6.3-.45 2.9 4.95q2.35 3.9 4.8 5.95 2.85 2.45 6.15 2.45 2.95-.05 6.25-3 2-1.85 4.3-5 6.55 5.8 11 6l.55.05v-.05q2.75-.2 5.25-2.6 2.2-2.15 4.15-6.1l2.15-4.3h-4.85q-4.8 0-9.5-4.15 1.85-2.3 4.35-4.15.95-.75 2.25-1.45l.7-.3z" id="b"/><path fill="#FFF" d="M43.25 36.5q1.95-1.9 3.95-5.8l1.4-2.9h-3.2q-5.6 0-10.85-5.05l.05-.1q2-2.65 5.05-4.95 2.8-2.15 3.8-2l3.75.45-1-3q-1.15-3.4-3-5.25-2.1-2.1-4.85-2.1-5.85.15-12.1 7.8-3.55-4.8-4.2-9.65l-.5-3.3-2.7 2q-6.6 5.1-6.75 9.4.05 4.8 6 11.15l.1.15Q12.85 30 9.05 29.9l-4.5-.3 1.95 3.3q2.25 3.7 4.6 5.7 2.6 2.2 5.45 2.2h.05q2.7-.05 5.55-2.75 2.15-1.95 4.8-5.75 7 6.4 11.2 6.5 2.65.05 5.1-2.3z" id="c"/><path fill="url(#a)" d="M43.45 13.7l.85.05Q42.25 7.8 38.35 7.8q-5 0-11.25 7.9l-.85 1.15-1.15-1.4q-4.25-5.55-5.05-11.2-5.95 4.5-5.95 7.8 0 4.05 5.45 9.8l1.3 1.4-1 1.25q-6 7.4-10.8 7.4l-.85-.05q4.1 6.95 8.4 6.95 3.65 0 9.45-8.75l.55-.8 1.7 1.6q6.5 5.95 9.85 5.95 3.85 0 7.25-7-6.4 0-12.45-5.8l-1.05-1 1.1-1.55q2.2-2.95 5.45-5.35 3.25-2.4 5-2.4z" id="d"/><path fill="#FFF" fill-opacity=".349" d="M43.2 13.25q0-1.55-1.45-2.95-1.5-1.5-3.4-1.5-5 0-11.25 7.9l-.85 1.15-1.15-1.4q-4.25-5.55-5.05-11.2-2.75 2.1-3.35 3.1-.4.65-.4 2.5 0 4.05 5.4 9.8l4.5 2.6 2-3q.9-1.2 6-5 5.65-4.2 9-2z" id="f"/><path id="e" stroke="#DB0000" stroke-linejoin="round" stroke-linecap="round" fill="none" d="M32.95 24Q39 29.8 45.4 29.8q-3.4 7-7.25 7-3.35 0-9.85-5.95l-1.7-1.6-.55.8q-5.8 8.75-9.45 8.75-4.3 0-8.4-6.95l.85.05q4.8 0 10.8-7.4l1-1.25-1.3-1.4q-5.45-5.75-5.45-9.8 0-3.3 5.95-7.8.8 5.65 5.05 11.2l1.15 1.4.85-1.15q6.25-7.9 11.25-7.9 3.9 0 5.95 5.95l-.85-.05q-1.75 0-5 2.4T33 21.45L31.9 23l1.05 1z"/></defs><use xlink:href="#b" transform="translate(-3.2 -.5)"/><use xlink:href="#c" transform="translate(-3.2 -.5)"/><use xlink:href="#d" transform="translate(-3.2 -.5)"/><use xlink:href="#e" transform="translate(-3.2 -.5)"/><use xlink:href="#f" transform="translate(-3.2 -.5)"/></svg>