<svg xmlns="http://www.w3.org/2000/svg" xmlns:xlink="http://www.w3.org/1999/xlink" preserveAspectRatio="none" width="327" height="104" viewBox="0 0 327 104"><view viewBox="0, 0, 108, 104"/><view viewBox="109, 0, 108, 104"/><view viewBox="218, 0, 108, 104"/><defs><path fill="#FFF" d="M67.45 38.5L54.9 0 40.5 37.85 0 37.9l31.55 25.4-12.45 38.55L53 79.7l32.8 23.75-10.6-39.1 32.7-23.85-40.45-2z" id="a"/><path fill="#0060B6" d="M176.9 38.8L164.35.3l-14.4 37.85-40.5.05L141 63.6l-12.45 38.55L162.45 80l32.8 23.75-10.6-39.1 32.7-23.85-40.45-2z" id="c"/><path fill="#F00" d="M273.4.3L259 38.15l-40.5.05 31.55 25.4-12.45 38.55L271.5 80l32.8 23.75-10.6-39.1 32.7-23.85-40.45-2L273.4.3z" id="e"/><path id="b" stroke="#CCC" stroke-linejoin="round" stroke-linecap="round" fill="none" d="M54.9 0l12.55 38.5 40.45 2-32.7 23.85 10.6 39.1L53 79.7l-33.9 22.15L31.55 63.3 0 37.9l40.5-.05L54.9 0z"/><path id="d" stroke="#CCC" stroke-linejoin="round" stroke-linecap="round" fill="none" d="M164.35.3l12.55 38.5 40.45 2-32.7 23.85 10.6 39.1L162.45 80l-33.9 22.15L141 63.6l-31.55-25.4 40.5-.05L164.35.3z"/><path id="f" stroke="#CCC" stroke-linejoin="round" stroke-linecap="round" fill="none" d="M273.4.3l12.55 38.5 40.45 2-32.7 23.85 10.6 39.1L271.5 80l-33.9 22.15 12.45-38.55-31.55-25.4 40.5-.05L273.4.3z"/></defs><g><use xlink:href="#a"/><use xlink:href="#b"/></g><g><use xlink:href="#c"/><use xlink:href="#d"/></g><g><use xlink:href="#e"/><use xlink:href="#f"/></g></svg>