<svg xmlns="http://www.w3.org/2000/svg" xmlns:xlink="http://www.w3.org/1999/xlink" preserveAspectRatio="none" width="59" height="59" viewBox="0 0 59 59"><defs><linearGradient id="a" gradientUnits="userSpaceOnUse" x1="35.65" y1="8.4" x2="35.65" y2="57.5"><stop offset="0%" stop-color="#FBB03B" stop-opacity=".4"/><stop offset="62.745%" stop-color="#FBB03B" stop-opacity=".302"/><stop offset="100%" stop-color="#FFF" stop-opacity=".6"/></linearGradient><linearGradient id="b" gradientUnits="userSpaceOnUse" x1="32.1" y1="31.1" x2="32.1" y2="10.8"><stop offset="0%" stop-color="#FBB03B" stop-opacity=".4"/><stop offset="62.745%" stop-color="#FBB03B" stop-opacity=".302"/><stop offset="100%" stop-color="#FFF" stop-opacity=".6"/></linearGradient><path fill="#E2E2E2" d="M63.4 32.5q0-12.2-8.6-20.8Q46.2 3.1 34 3.1q-12.15 0-20.75 8.6t-8.6 20.8q0 12.15 8.6 20.8 8.6 8.6 20.75 8.6 12.2 0 20.8-8.6 8.6-8.65 8.6-20.8z" id="c"/><path fill="#FFF" d="M61.85 32.05q0-11.6-8.2-19.8-8.2-8.2-19.8-8.2-11.6 0-19.8 8.2-8.2 8.2-8.2 19.8 0 11.6 8.2 19.8 8.2 8.2 19.8 8.2 11.6 0 19.8-8.2 8.2-8.2 8.2-19.8z" id="d"/><path fill="#FBB03B" d="M58.95 32.05q0-10.4-7.3-17.7-7.35-7.3-17.7-7.3-10.4 0-17.7 7.3-7.3 7.3-7.3 17.7 0 10.35 7.3 17.7 7.3 7.3 17.7 7.3 10.35 0 17.7-7.3 7.3-7.35 7.3-17.7z" id="e"/><path fill="#FFF" d="M29.7 41.45Q28 43.15 28 45.6t1.7 4.15q1.75 1.75 4.15 1.75 2.4 0 4.15-1.75 1.75-1.75 1.75-4.15 0-2.4-1.75-4.15-1.75-1.75-4.15-1.75-2.4 0-4.15 1.75m9.9-22.65q0-3-1.4-4.55-1.35-1.6-4.35-1.6-3 0-4.35 1.6-1.35 1.6-1.35 4.55 0 2.75.6 6.95.85 5.05 1.75 9.3.3 1.45 1.05 2.1.75.6 2.3.6 1.65 0 2.3-.6.75-.65 1.05-2.1 1.2-5.15 1.8-9.3.6-4.2.6-6.95z" id="g"/><path fill="url(#a)" d="M56.85 32.05q0-9.55-6.75-16.3-6.7-6.7-16.25-6.7t-16.3 6.7q-6.7 6.75-6.7 16.3t6.7 16.25q6.75 6.75 16.3 6.75T50.1 48.3q6.75-6.7 6.75-16.25z" id="h"/><path fill="url(#b)" d="M50.5 17.05q0-3.35-4.85-5.65-4.9-2.35-11.8-2.35-6.95 0-11.8 2.35-4.9 2.3-4.9 5.65 0 3.3 4.9 5.65 4.9 2.35 11.8 2.35t11.8-2.35q4.85-2.35 4.85-5.65z" id="i"/><path id="f" stroke="#F7931E" stroke-linejoin="round" stroke-linecap="round" fill="none" d="M51.55 14.35q7.3 7.3 7.3 17.7 0 10.35-7.3 17.7-7.35 7.3-17.7 7.3-10.4 0-17.7-7.3-7.3-7.35-7.3-17.7 0-10.4 7.3-17.7 7.3-7.3 17.7-7.3 10.35 0 17.7 7.3z"/><path id="j" stroke="#F7931E" stroke-linejoin="round" stroke-linecap="round" fill="none" d="M50.5 17.25q0 3.3-4.85 5.65-4.9 2.35-11.8 2.35t-11.8-2.35q-4.9-2.35-4.9-5.65 0-3.35 4.9-5.65 4.85-2.35 11.8-2.35 6.9 0 11.8 2.35 4.85 2.3 4.85 5.65z"/></defs><use xlink:href="#c" transform="translate(-4.5 -3)"/><use xlink:href="#d" transform="translate(-4.5 -3)"/><use xlink:href="#e" transform="translate(-4.5 -3)"/><use xlink:href="#f" transform="translate(-4.5 -3)"/><use xlink:href="#g" transform="translate(-4.5 -3)"/><use xlink:href="#h" transform="translate(-4.5 -3)"/><use xlink:href="#i" transform="translate(-4.5 -3)"/><use xlink:href="#j" transform="translate(-4.5 -3)"/></svg>