<svg xmlns="http://www.w3.org/2000/svg" xmlns:xlink="http://www.w3.org/1999/xlink" preserveAspectRatio="none" width="59" height="59" viewBox="0 0 59 59"><defs><linearGradient id="a" gradientUnits="userSpaceOnUse" x1="-.75" y1="-23.75" x2="-.75" y2="22.25"><stop offset="0%" stop-color="#F72B72" stop-opacity=".4"/><stop offset="100%" stop-color="#FFF" stop-opacity=".4"/></linearGradient><linearGradient id="b" gradientUnits="userSpaceOnUse" x1="-.8" y1="-6.35" x2="-.8" y2="-23.45"><stop offset="0%" stop-color="#F72B72" stop-opacity=".502"/><stop offset="100%" stop-color="#FFF" stop-opacity=".502"/></linearGradient><path fill="#E2E2E2" d="M-.05-29.4q-12.15 0-20.75 8.6T-29.4 0q0 12.15 8.6 20.8 8.6 8.6 20.75 8.6 12.2 0 20.8-8.6 8.6-8.65 8.6-20.8 0-12.2-8.6-20.8-8.6-8.6-20.8-8.6z" id="c"/><path fill="#FFF" d="M27.3-.95q0-11.6-8.2-19.8-8.2-8.2-19.8-8.2-11.6 0-19.8 8.2-8.2 8.2-8.2 19.8 0 11.6 8.2 19.8 8.2 8.2 19.8 8.2 11.6 0 19.8-8.2 8.2-8.2 8.2-19.8z" id="d"/><path fill="#F72B72" d="M24.3-.95q0-10.35-7.3-17.65-7.35-7.35-17.7-7.35t-17.65 7.35Q-25.7-11.3-25.7-.95q0 10.35 7.35 17.7 7.3 7.3 17.65 7.3 10.35 0 17.7-7.3 7.3-7.35 7.3-17.7z" id="e"/><path fill="#FFF" d="M-2.5-12.4q-.7-.7-2.25-.7h-11.2q-2.1 0-3.05 1-1 1-1 3.2V4.75q0 2.15 1 3.15.95 1 3.05 1h11.5q1.6 0 2.3-.65.75-.75.75-1.9 0-1.2-.75-1.9-.7-.65-2.3-.65h-8.5V.25h6.55q1.6 0 2.3-.7.75-.65.75-1.85 0-1.2-.75-1.9-.8-.7-2.3-.7h-6.55v-3.05h8.2q1.45 0 2.25-.7.8-.65.8-1.9 0-1.2-.8-1.85z" id="g"/><path fill="#FFF" d="M6-3.05l-1.4-2.7q-.65-1-1.15-1.35Q2.8-7.5 2-7.5q-1.1 0-2.05.85-.9.75-.9 1.75 0 .6.2 1l.6 1.15L2.15.6-.2 4Q-.9 5.25-1 5.45q-.25.45-.25 1.25 0 1 .75 1.8.65.8 2.1.8 1 0 1.55-.4.65-.35 1.2-1.45L6 4.4l1.6 3.05q.6 1.1 1.2 1.45.6.4 1.6.4 1.35 0 2.1-.8t.75-1.8q0-.65-.25-1.25-.15-.4-.85-1.45L9.85.6l2.9-4.5q.2-.6.2-1 0-1-.9-1.75-.95-.85-2.1-.85-.7 0-1.4.35Q8-6.8 7.45-5.8L6-3.05z" id="h"/><path fill="#FFF" d="M17.5 2.25q-1.4 0-2.4 1-1.05 1.05-1.05 2.4 0 1.4 1.05 2.45 1 1 2.4 1t2.4-1q1-1 1-2.45 0-1.4-1-2.4t-2.4-1z" id="i"/><path fill="url(#a)" d="M22.25-.75q0-9.55-6.75-16.3-6.7-6.7-16.25-6.7t-16.3 6.7q-6.7 6.75-6.7 16.3t6.7 16.25q6.75 6.75 16.3 6.75T15.5 15.5q6.75-6.7 6.75-16.25z" id="j"/><path fill="url(#b)" d="M11.05-9.25q4.85-2.35 4.85-5.65 0-3.35-4.85-5.65-4.9-2.35-11.8-2.35-6.95 0-11.8 2.35-4.9 2.3-4.9 5.65 0 3.3 4.9 5.65Q-7.65-6.9-.75-6.9t11.8-2.35z" id="k"/><path id="f" stroke="#D64174" stroke-linejoin="round" stroke-linecap="round" fill="none" d="M24.3-.95q0 10.35-7.3 17.7-7.35 7.3-17.7 7.3t-17.65-7.3Q-25.7 9.4-25.7-.95t7.35-17.65q7.3-7.35 17.65-7.35 10.35 0 17.7 7.35 7.3 7.3 7.3 17.65z"/><path id="l" stroke="#D64174" stroke-linejoin="round" stroke-linecap="round" fill="none" d="M15.9-14.9q0 3.3-4.85 5.65Q6.15-6.9-.75-6.9t-11.8-2.35q-4.9-2.35-4.9-5.65 0-3.35 4.9-5.65Q-7.7-22.9-.75-22.9q6.9 0 11.8 2.35 4.85 2.3 4.85 5.65z"/></defs><use xlink:href="#c" transform="translate(29.4 29.4)"/><use xlink:href="#d" transform="translate(29.4 29.4)"/><use xlink:href="#e" transform="translate(29.4 29.4)"/><use xlink:href="#f" transform="translate(29.4 29.4)"/><use xlink:href="#g" transform="translate(29.4 29.4)"/><use xlink:href="#h" transform="translate(29.4 29.4)"/><use xlink:href="#i" transform="translate(29.4 29.4)"/><use xlink:href="#j" transform="translate(29.4 29.4)"/><use xlink:href="#k" transform="translate(29.4 29.4)"/><use xlink:href="#l" transform="translate(29.4 29.4)"/></svg>