<svg xmlns="http://www.w3.org/2000/svg" xmlns:xlink="http://www.w3.org/1999/xlink" preserveAspectRatio="none" width="90" height="80" viewBox="0 0 90 80"><defs><path fill="#FFF" d="M12.05-46.3q-1.45-2.4-2.8-2.1-1.35.25-1.8 3-.2 1.1-.15 2.3 0 1.65.3 3.5 4 .55 6.5-1.3-.4-1.8-1-3.3-.45-1.15-1.05-2.1z" id="a"/><path fill="#FFF" d="M5.1-45.05q-.4-2.05-1.05-3.8-1.6-4.35-3.9-4.35-2.2 0-3.85 4.35-.6 1.65-1 3.7-.5 2.65-.55 5.7 6.25 2.2 10.95 0-.1-3.05-.6-5.6z" id="b"/><path fill="#FFF" d="M-7.3-39.85q.45-1.8.5-3.35 0-1.25-.1-2.4-.35-2.75-1.7-3.1-1.35-.3-2.9 2.05-.6.9-1.1 2.05-.65 1.45-1.15 3.25 3.4 2.15 6.45 1.5z" id="c"/><g id="d"><path fill="#CCC" d="M12.3 46.55l-.15.55h.15v-.55z"/><path fill="#999" d="M78.6 47.55q-.25.3-.7.6-2.7 1.6-10.7 3.85-9.2 2.5-22.8 2.5-13.55 0-22.95-2.5-9.15-2.65-9.15-4.9h-.15l-2.1 10.05v.6q0 3.35 10.45 5.75 10.35 2.2 25.05 2.2 14.7 0 25.05-2.2 10.45-2.4 10.45-5.75 0-.45-.2-.9h.2l-2.45-9.3M70.25 15.6l-2.6-10.05q-1.15 2.4-7.4 3.85-6.8 1.45-16.35 1.45-9.65 0-16.45-1.45-6.7-1.45-6.7-3.7 0-.3.1-.45l-.2-.1-2.4 11.6q1.65 1.2 5.45 2.25.45.15 1.05.25 7.75 1.95 18.8 1.95 10.95 0 18.7-1.95.6-.1 1.2-.25 5.05-1.35 6.8-3.4z"/><path fill="#FFF" d="M63.45 19q-.6.15-1.2.25-7.75 1.95-18.7 1.95-11.05 0-18.8-1.95-.6-.1-1.05-.25-3.8-1.05-5.45-2.25l-5.95 29.8v.55q0 2.25 9.15 4.9 9.4 2.5 22.95 2.5 13.6 0 22.8-2.5 8-2.25 10.7-3.85.45-.3.7-.6L70.25 15.6q-1.75 2.05-6.8 3.4M55.1 33.4q0 3.85-2.75 6.5-2.7 2.65-6.45 2.65-3.85 0-6.45-2.65-2.7-2.65-2.7-6.5 0-3.8 2.7-6.45 2.6-2.65 6.45-2.65 3.75 0 6.45 2.65 2.75 2.65 2.75 6.45M67.65 5.55q-.6.3-.6.15 0-2.2-6.8-3.8Q53.45.4 43.9.4q-9.65 0-16.45 1.5-5.9 1.45-6.6 3.35-.1.15-.1.45 0 2.25 6.7 3.7 6.8 1.45 16.45 1.45 9.55 0 16.35-1.45 6.25-1.45 7.4-3.85z"/></g><path fill="#E6E6E6" d="M52.15 30.35q-3.2-3.4-7.9-3.4-4.8 0-8 3.4-3.3 3.25-3.3 7.95t3.3 7.95q3.2 3.25 8 3.25 4.7 0 7.9-3.25 3.4-3.25 3.4-7.95t-3.4-7.95z" id="e"/><g id="f"><path fill="#A07001" d="M40.5 37.25q.1.3.2.3h.15v-.3V37q-.15.25-.25.25h-.1m5.3 2.95v-.4l-.6.55h-2.25l-.7-.4v.25l.7.6h2.25l.6-.6m-.85-5.3h-.1q-.35.15-.35.9v.3q.2 0 .45-.3 0-.3.1-.45h.6q.15.15.15.45h.2q.7.3.85.6.1.3.2 1.3l.15-.3v.15h.1q.1 0 .35-.55-.1.15-.25.15h-.1l-.1-.15.1-.6q-.1 0-.25.15v-.45-.45l.15-.3q-.15 0-.15-.15l-.2-.15q-.15-.15-.25-.15-.1-.15-.35-.15-.25-.15-.45-.15-.6 0-.85.3m-2.45.45h.2q.15.15.15.45.1.15.2.15.25.15.35.3.15.15.15.45.1-.3.1-.45 0-.45-.35-.9-.25-.3-.35-.45-.25-.15-.45-.15h-.6q-.35.15-.6.3t-.35.3q0 .3.1.45v.3l.5-.3q.1-.15.45-.15 0-.15.15-.3h.35m1.5 4h-.45l-.15.15.15.15h.95l.1-.15q0-.15-.1-.15H44m-.8-5.9l.1-.15q.1 0 .35.3.25.15.35.15.25 0 .35-.15.25-.15.25-.3l.1.15q.15.15.35.15.15 0 .15-.15l.1-.15q0 .15.1.3h.4q.1 0 .1-.15l.1.3v.15q.15.15.25.15h.25l.2.3q.15.25.25.25-.1-.15-.1-.25-.25-.45-.6-.6v-.45h-.6q-.25 0-.35-.45l-.1.15q.1.15 0 .3h-.25l-.25-.15-.1-.15-.25.3q-.2.15-.35.15-.1 0-.35-.15l-.25-.15h-.35q-.1.15-.2.15h-.25q-.1-.15-.25-.3-.2.15-.2.3h-.5q0 .3-.1.45h-.1q-.15 0-.15.15-.1.15-.25.45 0 .1-.35.1.153.005.25.15V35.05l.25-.3v-.4q.1-.15.35-.3l.1-.15q.15-.15.15-.3h.35l.1-.3q.1.15.35.3.1.15.25.15.2 0 .35-.3z"/><path fill="#FFF" d="M47.55 42.6l-.15.15q-.8.4-2 .4-1.15 0-2.9-.3-.7-.1-1.05-.25-1.3-.3-1.3-.9H40q-.95.45-1.65.9 0 .15-.1.15-.25.1-.35.25-.1.15-.25.3v.15q-.35 0-.45.3-.5.75-.85 1.65-.1.15-.1.4l.1.15q.5.3.95.9.95 0 1.2.75 3.15 1.15 5.5 1.15.15 0 5.2-1 1.3-1.05 2.35-1.65.1 0 .2-.15-.1-.3-.2-.55-.5-.9-.95-1.65-.1-.45-.35-.75-.1 0-.1-.15-.15 0 0-.1-.15 0-.15-.15-.6-.45-1.75-.9 0 .45-.7.9m-2-7.1q0-.145-.15-.15h-.35v.3q.15.15.25.15t.1-.15q.15 0 .15-.15m-2.95 0q0-.148-.1-.15h-.35v.3q.1.15.2.15.15 0 .15-.15.1 0 .1-.15z"/><path fill="#E1E1E1" d="M46.85 41.1q0 .9-.85 1.5h-.1q-.6.4-1.65.4-.95-.15-1.75-.4-.15 0-.25-.15-.95-.45-.95-.75-.1-.45 0-.75-.7.45-1.15.75 0 .6 1.3.9.35.15 1.05.25 1.75.3 2.9.3 1.2 0 2-.4l.15-.15q.7-.45.7-.9l-.1-.15q-.75-.3-1.3-.45z"/><path fill="#C90" d="M45.8 41.25V40.2l-.6.6h-2.25l-.7-.6v1.05q2.1 1.35 3.55 0m1.75-5.9v.15q0 .3-.15.6 0 .15-.1.3l-.1.6.1.15h.1q.15 0 .25-.15.25-.6.25-1.05l-.1-.15v-.45h-.25M43.3 33.3l-.1.15q-.15.3-.35.3-.15 0-.25-.15-.25-.15-.35-.3l-.1.3h-.35q0 .15-.15.3l-.1.15q-.25.15-.35.3v.4l-.25.3v.3q.1-.15.35-.3.25-.15.6-.3h.6q.2 0 .45.15.1.15.35.45.35.45.35.9 0 .15-.1.45 0-.3-.15-.45-.1-.15-.35-.3-.1 0-.2-.15 0 .15-.15.3-.1.15-.2.15-.25 0-.35-.15-.15-.15-.15-.3v-.15q-.35 0-.45.15l-.5.3v.3l-.2.45q0-.6-.15-.6l-.1-.15v-.3-.3q-.1 0-.1-.15h-.25v.6q0 .45.1 1.05 0 .15.15.25h.1q.1 0 .25-.25v.55q.003-.15.1-.15l.25 1.8 1.05.75.7.4h2.25l.6-.55 1.05-.9.2-1.2q-.1-1-.2-1.3-.15-.3-.85-.6h-.2q0 .15-.15.3-.1.15-.25.15-.2 0-.35-.15-.1-.15-.1-.3-.25.3-.45.3v-.3q0-.75.35-.9h.1q.25-.3.85-.3.2 0 .45.15.25 0 .35.15.1 0 .25.15v-.15q.2-.15.1-.3-.1 0-.25-.25l-.2-.3h-.25q-.1 0-.25-.15v-.15l-.1-.3q0 .15-.1.15h-.4q-.1-.15-.1-.3l-.1.15q0 .15-.15.15-.2 0-.35-.15l-.1-.15q0 .15-.25.3-.1.15-.35.15-.1 0-.35-.15-.25-.3-.35-.3m1.55 4.1q0 .15-.25.3-.35.3-.6.3-.35 0-.45-.15l-.5-.3v-.3h.15v.15q0 .15.35.3h.6q.1 0 .35-.15.2 0 .2-.3l.15.15m-1.3 1.95h.95q.1 0 .1.15l-.1.15h-.95l-.15-.15.15-.15m1.5-.9q-1.05.3-2.2 0 1.15.3 2.2 0z"/><path fill="#CCC" d="M45.8 40.8v.45q-1.45 1.35-3.55 0v-.45q-.7 0-.95.15-.1.3 0 .75 0 .3.95.75.1.15.25.15.8.25 1.75.4 1.05 0 1.65-.4h.1q.85-.6.85-1.5-.35-.15-1.05-.3z"/><path fill="#630" d="M47.05 32.7h.35q-.35-.15-.35-.3l-.1.15q-.1.15.1.15m-.8-.75h.1q.25 0 .35-.3.15 0 .15-.1h-.6v-.15q-.1 0-.1.15v.25l.1.15m-3.2-1.45q-.35 0-.35.15-.1.3-.35.45-.1.15-.45.15-.25 0-.35.15-.1 0-.25.25-.1.3-.35.3-.35 0-.45.15-.15.3 0 .6.1.3 0 .6-.25.3-.25.45l.1.15q.15-.15.25-.45.1-.3.1-.6.15 0 .25-.3l.25-.3h.25q.1 0 .1-.15l.1-.15q0-.3.35-.3h.25l.25-.1h.45v-.45q0-.3.25-.3l.1.15h.1v.45q.15.15.25.15.15 0 .15-.15.1 0 .1-.15h.1l.15.15q.1 0 .2-.15.15-.15.15-.3h.1q.1 0 .1.3 0 .15.25.15.1-.15.25-.15v.15h.1q.1 0 .25-.15l.25-.3h-.25q-.15 0-.35.15-.25 0-.25-.15.1 0-.1-.3-.25-.15-.5 0l-.1.15q-.1.15-.35.15-.1-.15-.35-.3-.35-.15-.5-.15z"/><path fill="#300" d="M45.4 35.35q.15.005.15.15 0 .15-.15.15 0 .15-.1.15t-.25-.15v-.3q-.1.15-.1.45 0 .15.1.3.15.15.35.15.15 0 .25-.15.15-.15.15-.3 0-.3-.15-.45h-.25m-2.9 0q.1.002.1.15 0 .15-.1.15 0 .15-.15.15-.1 0-.2-.15v-.3q-.15.15-.15.3v.15q0 .15.15.3.1.15.35.15.1 0 .2-.15.15-.15.15-.3 0-.3-.15-.45h-.2m2.7-3.95v-.15q-.15 0-.25.15-.25 0-.25-.15 0-.3-.1-.3h-.1q0 .15-.15.3-.1.15-.2.15l-.15-.15h-.1q0 .15-.1.15 0 .15-.15.15-.1 0-.25-.15v-.45h-.1l-.1-.15q-.25 0-.25.3v.45h-.45l-.25.1H42q-.35 0-.35.3l-.1.15q0 .15-.1.15h-.25l-.25.3q-.1.3-.25.3 0 .3-.1.6t-.25.45v.3q0 .15-.1.25-.1.15-.1.3v.15q.1.15.1.3.1 0 .35.15v.75l.1.15q.15 0 .15.6l.2-.45v-.6q-.1-.15-.1-.45V34.9v-.3q-.097-.145-.25-.15.35 0 .35-.1.15-.3.25-.45 0-.15.15-.15h.1q.1-.15.1-.45h.5q0-.15.2-.3.15.15.25.3h.25q.1 0 .2-.15h.35l.25.15q.25.15.35.15.15 0 .35-.15l.25-.3.1.15.25.15h.25q.1-.15 0-.3l.1-.15q.1.45.35.45h.6v.45q.35.15.6.6 0 .1.1.25t-.1.3v.15l.2.15q0 .15.15.15l-.15.3v.9q.15-.15.25-.15.1-.15.1-.3.15-.3.15-.6h-.15q0-.3.15-.45l.1-.15v-.3q0-.15-.1-.4v-.15q.1-.15.1-.3-.25-.45-.1-.75.1-.15 0-.3h-.5q-.2 0-.1-.15l.1-.15q.15-.15 0-.3 0-.3-.1-.45-.1 0-.1-.1 0 .1-.15.1-.1.3-.35.3h-.1l-.1-.15v-.25q0-.15.1-.15-.1-.6-.7-.45h.25l-.25.3q-.15.15-.25.15h-.1z"/><path fill="#986A01" d="M44.6 37.7q.25-.15.25-.3l-.15-.15q0 .3-.2.3-.25.15-.35.15h-.6q-.35-.15-.35-.3v-.15h-.15v.3l.5.3q.1.15.45.15.25 0 .6-.3z"/></g><path fill="#630" d="M41.05 35.35h2v-.45h-2v.45z" id="h"/><path fill="#630" d="M44.7 35.2h2v-.45h-2v.45z" id="i"/><path fill="#FFF" fill-opacity=".431" d="M52.7 29.6q-3.4-3.4-8.35-3.4-5.05 0-8.45 3.4-3.55 3.55-3.55 8.4 0 5 3.55 8.4 3.4 3.55 8.45 3.55 4.95 0 8.35-3.55 3.55-3.4 3.55-8.4 0-4.85-3.55-8.4z" id="j"/><path fill="#CCC" d="M54.25 28.15q-4.1-4-9.9-4-5.85 0-10 4-4.1 4.1-4.1 9.85 0 5.9 4.1 9.9 4.15 4.1 10 4.1 5.8 0 9.9-4.1 4.1-4 4.1-9.9 0-5.75-4.1-9.85m-2 17.8q-3.3 3.25-7.9 3.25-4.7 0-8-3.25-3.25-3.2-3.25-7.95 0-4.55 3.25-7.8 3.3-3.4 8-3.4 4.6 0 7.9 3.4 3.3 3.25 3.3 7.8 0 4.75-3.3 7.95z" id="k"/><path id="g" stroke="#960" stroke-linejoin="round" stroke-linecap="round" fill="none" d="M45.05 38.45q-1.05.3-2.2 0"/></defs><use xlink:href="#a" transform="matrix(2.15056 0 0 2.1917 44.824 162.97)"/><use xlink:href="#b" transform="matrix(2.15056 0 0 2.1917 44.824 162.97)"/><use xlink:href="#c" transform="matrix(2.15056 0 0 2.1917 44.824 162.97)"/><use xlink:href="#d"/><use xlink:href="#e"/><g><use xlink:href="#f"/><use xlink:href="#g"/></g><g><use xlink:href="#h"/></g><g><use xlink:href="#i"/></g><g><use xlink:href="#j"/></g><g><use xlink:href="#k"/></g></svg>