
<svg xmlns="http://www.w3.org/2000/svg" version="1.1" xmlns:xlink="http://www.w3.org/1999/xlink" preserveAspectRatio="none" x="0px" y="0px" width="90px" height="80px" viewBox="0 0 90 80">
<defs>
<g id="foguete_funcionando_0_Layer0_1_FILL">
<path fill="#FFFFFF" stroke="none" d="
M 12.05 -46.3
Q 10.6 -48.7 9.25 -48.4 7.9 -48.15 7.45 -45.4 7.25 -44.3 7.3 -43.1 7.3 -41.45 7.6 -39.6 11.6 -39.05 14.1 -40.9 13.7 -42.7 13.1 -44.2 12.65 -45.35 12.05 -46.3 Z"/>
</g>

<g id="foguete_funcionando_0_Layer0_3_FILL">
<path fill="#FFFFFF" stroke="none" d="
M 5.1 -45.05
Q 4.7 -47.1 4.05 -48.85 2.45 -53.2 0.15 -53.2 -2.05 -53.2 -3.7 -48.85 -4.3 -47.2 -4.7 -45.15 -5.2 -42.5 -5.25 -39.45 1 -37.25 5.7 -39.45 5.6 -42.5 5.1 -45.05 Z"/>
</g>

<g id="foguete_funcionando_0_Layer0_5_FILL">
<path fill="#FFFFFF" stroke="none" d="
M -7.3 -39.85
Q -6.85 -41.65 -6.8 -43.2 -6.8 -44.45 -6.9 -45.6 -7.25 -48.35 -8.6 -48.7 -9.95 -49 -11.5 -46.65 -12.1 -45.75 -12.6 -44.6 -13.25 -43.15 -13.75 -41.35 -10.35 -39.2 -7.3 -39.85 Z"/>
</g>

<g id="Layer0_1_FILL">
<path fill="#CCCCCC" stroke="none" d="
M 12.3 46.55
L 12.15 47.1 12.3 47.1
Q 12.3 46.85 12.3 46.55 Z"/>

<path fill="#999999" stroke="none" d="
M 78.6 47.55
Q 78.35 47.85 77.9 48.15 75.2 49.75 67.2 52 58 54.5 44.4 54.5 30.85 54.5 21.45 52 12.3 49.35 12.3 47.1
L 12.15 47.1 10.05 57.15
Q 10.05 57.3 10.05 57.45
L 10.05 57.75
Q 10.05 61.1 20.5 63.5 30.85 65.7 45.55 65.7 60.25 65.7 70.6 63.5 81.05 61.1 81.05 57.75 81.05 57.3 80.85 56.85
L 81.05 56.85 78.6 47.55
M 70.25 15.6
L 67.65 5.55
Q 66.5 7.95 60.25 9.4 53.45 10.85 43.9 10.85 34.25 10.85 27.45 9.4 20.75 7.95 20.75 5.7 20.75 5.4 20.85 5.25
L 20.65 5.15 18.25 16.75
Q 19.9 17.95 23.7 19 24.15 19.15 24.75 19.25 32.5 21.2 43.55 21.2 54.5 21.2 62.25 19.25 62.85 19.15 63.45 19 68.5 17.65 70.25 15.6 Z"/>

<path fill="#FFFFFF" stroke="none" d="
M 63.45 19
Q 62.85 19.15 62.25 19.25 54.5 21.2 43.55 21.2 32.5 21.2 24.75 19.25 24.15 19.15 23.7 19 19.9 17.95 18.25 16.75
L 12.3 46.55
Q 12.3 46.85 12.3 47.1 12.3 49.35 21.45 52 30.85 54.5 44.4 54.5 58 54.5 67.2 52 75.2 49.75 77.9 48.15 78.35 47.85 78.6 47.55
L 70.25 15.6
Q 68.5 17.65 63.45 19
M 55.1 33.4
Q 55.1 37.25 52.35 39.9 49.65 42.55 45.9 42.55 42.05 42.55 39.45 39.9 36.75 37.25 36.75 33.4 36.75 29.6 39.45 26.95 42.05 24.3 45.9 24.3 49.65 24.3 52.35 26.95 55.1 29.6 55.1 33.4
M 67.65 5.55
Q 67.05 5.85 67.05 5.7 67.05 3.5 60.25 1.9 53.45 0.4 43.9 0.4 34.25 0.4 27.45 1.9 21.55 3.35 20.85 5.25 20.75 5.4 20.75 5.7 20.75 7.95 27.45 9.4 34.25 10.85 43.9 10.85 53.45 10.85 60.25 9.4 66.5 7.95 67.65 5.55 Z"/>
</g>

<g id="Layer0_1_MEMBER_0_FILL">
<path fill="#E6E6E6" stroke="none" d="
M 52.15 30.35
Q 48.95 26.95 44.25 26.95 39.45 26.95 36.25 30.35 32.95 33.6 32.95 38.3 32.95 43 36.25 46.25 39.45 49.5 44.25 49.5 48.95 49.5 52.15 46.25 55.55 43 55.55 38.3 55.55 33.6 52.15 30.35 Z"/>
</g>

<g id="Layer0_1_MEMBER_0_MEMBER_0_FILL">
<path fill="#A07001" stroke="none" d="
M 40.5 37.25
Q 40.6 37.55 40.7 37.55
L 40.85 37.55
Q 40.85 37.3955078125 40.85 37.25 40.85 37.15 40.85 37 40.7 37.25 40.6 37.25
L 40.5 37.25
M 45.8 40.2
L 45.8 39.8 45.2 40.35 42.95 40.35 42.25 39.95 42.25 40.2 42.95 40.8 45.2 40.8 45.8 40.2
M 44.95 34.9
L 44.85 34.9
Q 44.5 35.05 44.5 35.8
L 44.5 36.1
Q 44.7 36.1 44.95 35.8 44.95 35.5 45.05 35.35
L 45.4 35.35
Q 45.553125 35.35 45.65 35.35 45.8 35.5 45.8 35.8
L 46 35.8
Q 46.7 36.1 46.85 36.4 46.95 36.7 47.05 37.7
L 47.2 37.4 47.2 37.55 47.3 37.55
Q 47.4 37.55 47.65 37 47.55 37.15 47.4 37.15
L 47.3 37.15 47.2 37 47.3 36.4
Q 47.2 36.4 47.05 36.55 47.05 36.4 47.05 36.1 47.05 35.8 47.05 35.65
L 47.2 35.35
Q 47.05 35.35 47.05 35.2
L 46.85 35.05
Q 46.7 34.9 46.6 34.9 46.5 34.75 46.25 34.75 46 34.6 45.8 34.6 45.2 34.6 44.95 34.9
M 42.5 35.35
Q 42.6015625 35.35 42.7 35.35 42.85 35.5 42.85 35.8 42.95 35.95 43.05 35.95 43.3 36.1 43.4 36.25 43.55 36.4 43.55 36.7 43.65 36.4 43.65 36.25 43.65 35.8 43.3 35.35 43.05 35.05 42.95 34.9 42.7 34.75 42.5 34.75 42.25 34.75 41.9 34.75 41.55 34.9 41.3 35.05 41.05 35.2 40.95 35.35 40.95 35.65 41.05 35.8
L 41.05 36.1
Q 41.3 35.95 41.55 35.8 41.65 35.65 42 35.65 42 35.5 42.15 35.35
L 42.5 35.35
M 44 39.35
Q 43.8 39.35 43.55 39.35
L 43.4 39.5 43.55 39.65
Q 43.8 39.65 44 39.65 44.25 39.65 44.5 39.65
L 44.6 39.5
Q 44.6 39.35 44.5 39.35 44.25 39.35 44 39.35
M 43.2 33.45
L 43.3 33.3
Q 43.4 33.3 43.65 33.6 43.9 33.75 44 33.75 44.25 33.75 44.35 33.6 44.6 33.45 44.6 33.3
L 44.7 33.45
Q 44.85 33.6 45.05 33.6 45.2 33.6 45.2 33.45
L 45.3 33.3
Q 45.3 33.45 45.4 33.6
L 45.8 33.6
Q 45.9 33.6 45.9 33.45
L 46 33.75 46 33.9
Q 46.15 34.05 46.25 34.05 46.35 34.05 46.5 34.05
L 46.7 34.35
Q 46.85 34.6 46.95 34.6 46.85 34.45 46.85 34.35 46.6 33.9 46.25 33.75
L 46.25 33.3
Q 45.9 33.3 45.65 33.3 45.4 33.3 45.3 32.85
L 45.2 33
Q 45.3 33.15 45.2 33.3 45.05 33.3 44.95 33.3
L 44.7 33.15 44.6 33 44.35 33.3
Q 44.15 33.45 44 33.45 43.9 33.45 43.65 33.3
L 43.4 33.15
Q 43.3 33.15 43.05 33.15 42.95 33.3 42.85 33.3
L 42.6 33.3
Q 42.5 33.15 42.35 33 42.15 33.15 42.15 33.3
L 41.9 33.3
Q 41.8 33.3 41.65 33.3 41.65 33.6 41.55 33.75
L 41.45 33.75
Q 41.3 33.75 41.3 33.9 41.2 34.05 41.05 34.35 41.05 34.4486328125 40.7 34.45 40.853125 34.4546875 40.95 34.6 40.95 34.75 40.95 34.9
L 40.95 35.05 41.2 34.75 41.2 34.35
Q 41.3 34.2 41.55 34.05
L 41.65 33.9
Q 41.8 33.75 41.8 33.6
L 42.15 33.6 42.25 33.3
Q 42.35 33.45 42.6 33.6 42.7 33.75 42.85 33.75 43.05 33.75 43.2 33.45 Z"/>

<path fill="#FFFFFF" stroke="none" d="
M 47.55 42.6
L 47.4 42.75
Q 46.6 43.15 45.4 43.15 44.25 43.15 42.5 42.85 41.8 42.75 41.45 42.6 40.15 42.3 40.15 41.7
L 40 41.7
Q 39.05 42.15 38.35 42.6 38.35 42.75 38.25 42.75 38 42.85 37.9 43 37.8 43.15 37.65 43.3
L 37.65 43.45
Q 37.3 43.45 37.2 43.75 36.7 44.5 36.35 45.4 36.25 45.55 36.25 45.8
L 36.35 45.95
Q 36.85 46.25 37.3 46.85 38.25 46.85 38.5 47.6 41.65 48.75 44 48.75 44.15 48.75 49.2 47.75 50.5 46.7 51.55 46.1 51.65 46.1 51.75 45.95 51.65 45.65 51.55 45.4 51.05 44.5 50.6 43.75 50.5 43.3 50.25 43 50.15 43 50.15 42.85 50 42.85 50.15 42.75 50 42.75 50 42.6 49.4 42.15 48.25 41.7 48.25 42.15 47.55 42.6
M 45.55 35.5
Q 45.55 35.3546875 45.4 35.35
L 45.05 35.35 45.05 35.65
Q 45.2 35.8 45.3 35.8 45.4 35.8 45.4 35.65 45.55 35.65 45.55 35.5
M 42.6 35.5
Q 42.6 35.35234375 42.5 35.35
L 42.15 35.35 42.15 35.65
Q 42.25 35.8 42.35 35.8 42.5 35.8 42.5 35.65 42.6 35.65 42.6 35.5 Z"/>

<path fill="#E1E1E1" stroke="none" d="
M 46.85 41.1
Q 46.85 42 46 42.6
L 45.9 42.6
Q 45.3 43 44.25 43 43.3 42.85 42.5 42.6 42.35 42.6 42.25 42.45 41.3 42 41.3 41.7 41.2 41.25 41.3 40.95 40.6 41.4 40.15 41.7 40.15 42.3 41.45 42.6 41.8 42.75 42.5 42.85 44.25 43.15 45.4 43.15 46.6 43.15 47.4 42.75
L 47.55 42.6
Q 48.25 42.15 48.25 41.7
L 48.15 41.55
Q 47.4 41.25 46.85 41.1 Z"/>

<path fill="#CC9900" stroke="none" d="
M 45.8 41.25
L 45.8 40.8 45.8 40.2 45.2 40.8 42.95 40.8 42.25 40.2 42.25 40.8 42.25 41.25
Q 44.35 42.6 45.8 41.25
M 47.55 35.35
L 47.55 35.5
Q 47.55 35.8 47.4 36.1 47.4 36.25 47.3 36.4
L 47.2 37 47.3 37.15 47.4 37.15
Q 47.55 37.15 47.65 37 47.9 36.4 47.9 35.95
L 47.8 35.8
Q 47.8 35.5 47.8 35.35
L 47.55 35.35
M 43.3 33.3
L 43.2 33.45
Q 43.05 33.75 42.85 33.75 42.7 33.75 42.6 33.6 42.35 33.45 42.25 33.3
L 42.15 33.6 41.8 33.6
Q 41.8 33.75 41.65 33.9
L 41.55 34.05
Q 41.3 34.2 41.2 34.35
L 41.2 34.75 40.95 35.05 40.95 35.35
Q 41.05 35.2 41.3 35.05 41.55 34.9 41.9 34.75 42.25 34.75 42.5 34.75 42.7 34.75 42.95 34.9 43.05 35.05 43.3 35.35 43.65 35.8 43.65 36.25 43.65 36.4 43.55 36.7 43.55 36.4 43.4 36.25 43.3 36.1 43.05 35.95 42.95 35.95 42.85 35.8 42.85 35.95 42.7 36.1 42.6 36.25 42.5 36.25 42.25 36.25 42.15 36.1 42 35.95 42 35.8
L 42 35.65
Q 41.65 35.65 41.55 35.8 41.3 35.95 41.05 36.1
L 41.05 36.4 40.85 36.85
Q 40.85 36.25 40.7 36.25
L 40.6 36.1 40.6 35.8
Q 40.6 35.65 40.6 35.5 40.5 35.5 40.5 35.35
L 40.25 35.35
Q 40.25 35.5 40.25 35.8
L 40.25 35.95
Q 40.25 36.4 40.35 37 40.35 37.15 40.5 37.25
L 40.6 37.25
Q 40.7 37.25 40.85 37 40.85 37.15 40.85 37.25 40.85 37.3955078125 40.85 37.55 40.853125 37.4 40.95 37.4
L 41.2 39.2 42.25 39.95 42.95 40.35 45.2 40.35 45.8 39.8 46.85 38.9 47.05 37.7
Q 46.95 36.7 46.85 36.4 46.7 36.1 46 35.8
L 45.8 35.8
Q 45.8 35.95 45.65 36.1 45.55 36.25 45.4 36.25 45.2 36.25 45.05 36.1 44.95 35.95 44.95 35.8 44.7 36.1 44.5 36.1
L 44.5 35.8
Q 44.5 35.05 44.85 34.9
L 44.95 34.9
Q 45.2 34.6 45.8 34.6 46 34.6 46.25 34.75 46.5 34.75 46.6 34.9 46.7 34.9 46.85 35.05
L 46.85 34.9
Q 47.05 34.75 46.95 34.6 46.85 34.6 46.7 34.35
L 46.5 34.05
Q 46.35 34.05 46.25 34.05 46.15 34.05 46 33.9
L 46 33.75 45.9 33.45
Q 45.9 33.6 45.8 33.6
L 45.4 33.6
Q 45.3 33.45 45.3 33.3
L 45.2 33.45
Q 45.2 33.6 45.05 33.6 44.85 33.6 44.7 33.45
L 44.6 33.3
Q 44.6 33.45 44.35 33.6 44.25 33.75 44 33.75 43.9 33.75 43.65 33.6 43.4 33.3 43.3 33.3
M 44.85 37.4
Q 44.85 37.55 44.6 37.7 44.25 38 44 38 43.65 38 43.55 37.85 43.3 37.7 43.05 37.55 43.05 37.4 43.05 37.25
L 43.2 37.25 43.2 37.4
Q 43.2 37.55 43.55 37.7
L 44.15 37.7
Q 44.25 37.7 44.5 37.55 44.7 37.55 44.7 37.25
L 44.85 37.4
M 43.55 39.35
Q 43.8 39.35 44 39.35 44.25 39.35 44.5 39.35 44.6 39.35 44.6 39.5
L 44.5 39.65
Q 44.25 39.65 44 39.65 43.8 39.65 43.55 39.65
L 43.4 39.5 43.55 39.35
M 45.05 38.45
Q 44 38.75 42.85 38.45 44 38.75 45.05 38.45 Z"/>

<path fill="#CCCCCC" stroke="none" d="
M 45.8 40.8
L 45.8 41.25
Q 44.35 42.6 42.25 41.25
L 42.25 40.8
Q 41.55 40.8 41.3 40.95 41.2 41.25 41.3 41.7 41.3 42 42.25 42.45 42.35 42.6 42.5 42.6 43.3 42.85 44.25 43 45.3 43 45.9 42.6
L 46 42.6
Q 46.85 42 46.85 41.1 46.5 40.95 45.8 40.8 Z"/>

<path fill="#663300" stroke="none" d="
M 47.05 32.7
L 47.4 32.7
Q 47.05 32.55 47.05 32.4
L 46.95 32.55
Q 46.85 32.7 47.05 32.7
M 46.25 31.95
L 46.35 31.95
Q 46.6 31.95 46.7 31.65 46.848828125 31.65 46.85 31.55 46.7 31.55 46.6 31.55 46.5 31.55 46.25 31.55
L 46.25 31.4
Q 46.15 31.4 46.15 31.55
L 46.15 31.8 46.25 31.95
M 43.05 30.5
Q 42.7 30.5 42.7 30.65 42.6 30.95 42.35 31.1 42.25 31.25 41.9 31.25 41.65 31.25 41.55 31.4 41.45 31.4 41.3 31.65 41.2 31.95 40.95 31.95 40.6 31.95 40.5 32.1 40.35 32.4 40.5 32.7 40.6 33 40.5 33.3 40.25 33.6 40.25 33.75
L 40.35 33.9
Q 40.5 33.75 40.6 33.45 40.7 33.15 40.7 32.85 40.85 32.85 40.95 32.55
L 41.2 32.25 41.45 32.25
Q 41.55 32.25 41.55 32.1
L 41.65 31.95
Q 41.65 31.65 42 31.65 42.15 31.65 42.25 31.65
L 42.5 31.55
Q 42.7 31.55 42.95 31.55
L 42.95 31.1
Q 42.95 30.8 43.2 30.8
L 43.3 30.95 43.4 30.95
Q 43.4 31.25 43.4 31.4 43.55 31.55 43.65 31.55 43.8 31.55 43.8 31.4 43.9 31.4 43.9 31.25
L 44 31.25 44.15 31.4
Q 44.25 31.4 44.35 31.25 44.5 31.1 44.5 30.95
L 44.6 30.95
Q 44.7 30.95 44.7 31.25 44.7 31.4 44.95 31.4 45.05 31.25 45.2 31.25
L 45.2 31.4 45.3 31.4
Q 45.4 31.4 45.55 31.25
L 45.8 30.95
Q 45.65 30.95 45.55 30.95 45.4 30.95 45.2 31.1 44.95 31.1 44.95 30.95 45.05 30.95 44.85 30.65 44.6 30.5 44.35 30.65
L 44.25 30.8
Q 44.15 30.95 43.9 30.95 43.8 30.8 43.55 30.65 43.2 30.5 43.05 30.5 Z"/>

<path fill="#330000" stroke="none" d="
M 45.4 35.35
Q 45.55 35.3546875 45.55 35.5 45.55 35.65 45.4 35.65 45.4 35.8 45.3 35.8 45.2 35.8 45.05 35.65
L 45.05 35.35
Q 44.95 35.5 44.95 35.8 44.95 35.95 45.05 36.1 45.2 36.25 45.4 36.25 45.55 36.25 45.65 36.1 45.8 35.95 45.8 35.8 45.8 35.5 45.65 35.35 45.553125 35.35 45.4 35.35
M 42.5 35.35
Q 42.6 35.35234375 42.6 35.5 42.6 35.65 42.5 35.65 42.5 35.8 42.35 35.8 42.25 35.8 42.15 35.65
L 42.15 35.35
Q 42 35.5 42 35.65
L 42 35.8
Q 42 35.95 42.15 36.1 42.25 36.25 42.5 36.25 42.6 36.25 42.7 36.1 42.85 35.95 42.85 35.8 42.85 35.5 42.7 35.35 42.6015625 35.35 42.5 35.35
M 45.2 31.4
L 45.2 31.25
Q 45.05 31.25 44.95 31.4 44.7 31.4 44.7 31.25 44.7 30.95 44.6 30.95
L 44.5 30.95
Q 44.5 31.1 44.35 31.25 44.25 31.4 44.15 31.4
L 44 31.25 43.9 31.25
Q 43.9 31.4 43.8 31.4 43.8 31.55 43.65 31.55 43.55 31.55 43.4 31.4 43.4 31.25 43.4 30.95
L 43.3 30.95 43.2 30.8
Q 42.95 30.8 42.95 31.1
L 42.95 31.55
Q 42.7 31.55 42.5 31.55
L 42.25 31.65
Q 42.15 31.65 42 31.65 41.65 31.65 41.65 31.95
L 41.55 32.1
Q 41.55 32.25 41.45 32.25
L 41.2 32.25 40.95 32.55
Q 40.85 32.85 40.7 32.85 40.7 33.15 40.6 33.45 40.5 33.75 40.35 33.9
L 40.35 34.2
Q 40.35 34.35 40.25 34.45 40.15 34.6 40.15 34.75
L 40.15 34.9
Q 40.25 35.05 40.25 35.2 40.35 35.2 40.6 35.35
L 40.6 35.5
Q 40.6 35.65 40.6 35.8
L 40.6 36.1 40.7 36.25
Q 40.85 36.25 40.85 36.85
L 41.05 36.4 41.05 36.1 41.05 35.8
Q 40.95 35.65 40.95 35.35
L 40.95 35.05 40.95 34.9
Q 40.95 34.75 40.95 34.6 40.853125 34.4546875 40.7 34.45 41.05 34.4486328125 41.05 34.35 41.2 34.05 41.3 33.9 41.3 33.75 41.45 33.75
L 41.55 33.75
Q 41.65 33.6 41.65 33.3 41.8 33.3 41.9 33.3
L 42.15 33.3
Q 42.15 33.15 42.35 33 42.5 33.15 42.6 33.3
L 42.85 33.3
Q 42.95 33.3 43.05 33.15 43.3 33.15 43.4 33.15
L 43.65 33.3
Q 43.9 33.45 44 33.45 44.15 33.45 44.35 33.3
L 44.6 33 44.7 33.15 44.95 33.3
Q 45.05 33.3 45.2 33.3 45.3 33.15 45.2 33
L 45.3 32.85
Q 45.4 33.3 45.65 33.3 45.9 33.3 46.25 33.3
L 46.25 33.75
Q 46.6 33.9 46.85 34.35 46.85 34.45 46.95 34.6 47.05 34.75 46.85 34.9
L 46.85 35.05 47.05 35.2
Q 47.05 35.35 47.2 35.35
L 47.05 35.65
Q 47.05 35.8 47.05 36.1 47.05 36.4 47.05 36.55 47.2 36.4 47.3 36.4 47.4 36.25 47.4 36.1 47.55 35.8 47.55 35.5
L 47.4 35.5
Q 47.4 35.2 47.55 35.05
L 47.65 34.9
Q 47.65 34.75 47.65 34.6 47.65 34.45 47.55 34.2
L 47.55 34.05
Q 47.65 33.9 47.65 33.75 47.4 33.3 47.55 33 47.65 32.85 47.55 32.7
L 47.4 32.7 47.05 32.7
Q 46.85 32.7 46.95 32.55
L 47.05 32.4
Q 47.2 32.25 47.05 32.1 47.05 31.8 46.95 31.65 46.85078125 31.65 46.85 31.55 46.848828125 31.65 46.7 31.65 46.6 31.95 46.35 31.95
L 46.25 31.95 46.15 31.8 46.15 31.55
Q 46.15 31.4 46.25 31.4 46.15 30.8 45.55 30.95 45.65 30.95 45.8 30.95
L 45.55 31.25
Q 45.4 31.4 45.3 31.4
L 45.2 31.4 Z"/>

<path fill="#986A01" stroke="none" d="
M 44.6 37.7
Q 44.85 37.55 44.85 37.4
L 44.7 37.25
Q 44.7 37.55 44.5 37.55 44.25 37.7 44.15 37.7
L 43.55 37.7
Q 43.2 37.55 43.2 37.4
L 43.2 37.25 43.05 37.25
Q 43.05 37.4 43.05 37.55 43.3 37.7 43.55 37.85 43.65 38 44 38 44.25 38 44.6 37.7 Z"/>
</g>

<g id="Layer0_1_MEMBER_0_MEMBER_0_MEMBER_0_FILL">
<path fill="#663300" stroke="none" d="
M 41.05 35.35
L 43.05 35.35 43.05 34.9 41.05 34.9 41.05 35.35 Z"/>
</g>

<g id="Layer0_1_MEMBER_0_MEMBER_0_MEMBER_1_FILL">
<path fill="#663300" stroke="none" d="
M 44.7 35.2
L 46.7 35.2 46.7 34.75 44.7 34.75 44.7 35.2 Z"/>
</g>

<g id="Layer0_1_MEMBER_0_MEMBER_1_FILL">
<path fill="#FFFFFF" fill-opacity="0.43137254901960786" stroke="none" d="
M 52.7 29.6
Q 49.3 26.2 44.35 26.2 39.3 26.2 35.9 29.6 32.35 33.15 32.35 38 32.35 43 35.9 46.4 39.3 49.95 44.35 49.95 49.3 49.95 52.7 46.4 56.25 43 56.25 38 56.25 33.15 52.7 29.6 Z"/>
</g>

<g id="Layer0_1_MEMBER_0_MEMBER_2_FILL">
<path fill="#CCCCCC" stroke="none" d="
M 54.25 28.15
Q 50.15 24.15 44.35 24.15 38.5 24.15 34.35 28.15 30.25 32.25 30.25 38 30.25 43.9 34.35 47.9 38.5 52 44.35 52 50.15 52 54.25 47.9 58.35 43.9 58.35 38 58.35 32.25 54.25 28.15
M 52.25 45.95
Q 48.95 49.2 44.35 49.2 39.65 49.2 36.35 45.95 33.1 42.75 33.1 38 33.1 33.45 36.35 30.2 39.65 26.8 44.35 26.8 48.95 26.8 52.25 30.2 55.55 33.45 55.55 38 55.55 42.75 52.25 45.95 Z"/>
</g>

<path id="Layer0_1_MEMBER_0_MEMBER_0_1_STROKES" stroke="#996600" stroke-width="1" stroke-linejoin="round" stroke-linecap="round" fill="none" d="
M 45.05 38.45
Q 44 38.75 42.85 38.45"/>
</defs>

<g transform="matrix( 1.3159027099609375, 0, 0, 1.688720703125, 66.8,-1053) ">
<g id="foguete_btn" transform="matrix( 1.869842529296875, 0, 0, 1.869842529296875, -16.7,707.9) ">
<g id="fogo_mc" transform="matrix( 0.8740234375, 0, 0, 0.694091796875, 0,6.5) ">
<g transform="matrix( 0.232940673828125, -0.0465240478515625, 0.1062774658203125, 0.532073974609375, 12.7,-32.15) "/>

<g transform="matrix( 1, 0, 0, 1, 0,0) ">
<use xlink:href="#foguete_funcionando_0_Layer0_1_FILL"/>
</g>

<g transform="matrix( 0.39141845703125, 0, 0, 0.9914398193359375, -0.15,-24.5) "/>

<g transform="matrix( 1, 0, 0, 1, 0,0) ">
<use xlink:href="#foguete_funcionando_0_Layer0_3_FILL"/>
</g>

<g transform="matrix( 0.230865478515625, 0.0542144775390625, -0.124725341796875, 0.531158447265625, -13.1,-32.45) "/>

<g transform="matrix( 1, 0, 0, 1, 0,0) ">
<use xlink:href="#foguete_funcionando_0_Layer0_5_FILL"/>
</g>
</g>
</g>
</g>

<g transform="matrix( 1, 0, 0, 1, 0,0) ">
<use xlink:href="#Layer0_1_FILL"/>
</g>

<g transform="matrix( 1, 0, 0, 1, 0,0) ">
<use xlink:href="#Layer0_1_MEMBER_0_FILL"/>
</g>

<g transform="matrix( 1, 0, 0, 1, 0,0) ">
<use xlink:href="#Layer0_1_MEMBER_0_MEMBER_0_FILL"/>

<use xlink:href="#Layer0_1_MEMBER_0_MEMBER_0_1_STROKES"/>
</g>

<g transform="matrix( 1, 0, 0, 1, 0,0) ">
<use xlink:href="#Layer0_1_MEMBER_0_MEMBER_0_MEMBER_0_FILL"/>
</g>

<g transform="matrix( 1, 0, 0, 1, 0,0) ">
<use xlink:href="#Layer0_1_MEMBER_0_MEMBER_0_MEMBER_1_FILL"/>
</g>

<g transform="matrix( 1, 0, 0, 1, 0,0) ">
<use xlink:href="#Layer0_1_MEMBER_0_MEMBER_1_FILL"/>
</g>

<g transform="matrix( 1, 0, 0, 1, 0,0) ">
<use xlink:href="#Layer0_1_MEMBER_0_MEMBER_2_FILL"/>
</g>
</svg>
