<svg xmlns="http://www.w3.org/2000/svg" xmlns:xlink="http://www.w3.org/1999/xlink" preserveAspectRatio="none" width="42" height="55" viewBox="0 0 42 55"><defs><path fill="#FFF" d="M4.2.1l-4.1 4v50.25h41.55V.1H4.2z" id="a"/><path fill="#8CA8B8" d="M4.15 0L0 4.05V54.5h41.75V0H4.15M.2 4.15L4.25.2h37.3v54.05H.2V4.15z" id="b"/><path fill="#CCC" d="M.2 4.35h4.2V.2h-.2l-4 3.9v.25z" id="c"/><path fill="#8CA8B8" d="M.1 4.1h4.05V0L.1 4.1z" id="d"/><path id="e" stroke="#8CA8B8" stroke-opacity=".6" stroke-linejoin="round" stroke-linecap="round" fill="none" d="M4.15 9.8H36.9"/><path id="f" stroke="#8CA8B8" stroke-opacity=".6" stroke-linejoin="round" stroke-linecap="round" fill="none" d="M4.15 15.6H36.9"/><path id="g" stroke="#8CA8B8" stroke-opacity=".6" stroke-linejoin="round" stroke-linecap="round" fill="none" d="M4.15 18.8H36.9"/><path id="h" stroke="#8CA8B8" stroke-opacity=".6" stroke-linejoin="round" stroke-linecap="round" fill="none" d="M4.15 22H36.9"/><path id="i" stroke="#8CA8B8" stroke-opacity=".6" stroke-linejoin="round" stroke-linecap="round" fill="none" d="M4.15 25.2H36.9"/><path id="j" stroke="#8CA8B8" stroke-opacity=".6" stroke-linejoin="round" stroke-linecap="round" fill="none" d="M4.15 28.4H36.9"/><path id="k" stroke="#8CA8B8" stroke-opacity=".6" stroke-linejoin="round" stroke-linecap="round" fill="none" d="M4.15 31.6H36.9"/><path id="l" stroke="#8CA8B8" stroke-opacity=".6" stroke-linejoin="round" stroke-linecap="round" fill="none" d="M4.15 34.8H36.9"/><path id="m" stroke="#8CA8B8" stroke-opacity=".6" stroke-linejoin="round" stroke-linecap="round" fill="none" d="M4.15 38H36.9"/><path id="n" stroke="#8CA8B8" stroke-opacity=".6" stroke-linejoin="round" stroke-linecap="round" fill="none" d="M4.15 41.2H36.9"/><path id="o" stroke="#8CA8B8" stroke-opacity=".6" stroke-linejoin="round" stroke-linecap="round" fill="none" d="M4.15 44.4H36.9"/><path id="p" stroke="#8CA8B8" stroke-opacity=".6" stroke-linejoin="round" stroke-linecap="round" fill="none" d="M4.15 47.6H36.9"/></defs><use xlink:href="#a"/><use xlink:href="#b"/><use xlink:href="#c"/><use xlink:href="#d"/><use xlink:href="#e"/><use xlink:href="#f"/><use xlink:href="#g"/><use xlink:href="#h"/><use xlink:href="#i"/><use xlink:href="#j"/><use xlink:href="#k"/><use xlink:href="#l"/><use xlink:href="#m"/><use xlink:href="#n"/><use xlink:href="#o"/><use xlink:href="#p"/></svg>