<svg xmlns="http://www.w3.org/2000/svg" width="611" height="55" viewBox="0 0 611 55"><path fill-rule="evenodd" clip-rule="evenodd" fill="#F00" d="M0 2h611v53H0z"/><path fill-rule="evenodd" clip-rule="evenodd" fill="#FFF" d="M-.333 15.337h8.687l.24 1.566-6.455 2.52c-.045.482-.09.966-.133 1.45l11.25 1.582.08.967c-3.128.24-6.256.478-9.385.717-.01.708-.023 1.418-.034 2.127 8.23.568 16.464 1.097 24.688 1.753.985.08 2.083.652 2.838 1.323 1.514 1.343 2.827 2.91 4.578 4.76l-2.955 4.802c19.86 4.98 39.124 9.68 59.317 9.01l.93 1.286-4.26 1.403.788 1.71c1.897.676 3.79 1.92 5.694 1.94 14.833.162 29.688.57 44.5-.03 19.903-.805 39.756-2.932 59.66-3.62 42.94-1.488 85.894-2.606 128.848-3.523 39.47-.842 78.953-1.086 118.424-1.88 13.807-.277 27.852-.028 41.324-2.522 14.245-2.637 28.265-1.887 42.44-1.95l-21.555-1.71c-.005-.333-.01-.664-.013-.995h55.45l.036-.227-13.525-1.664.03-1.05h14.074c.098-.667.197-1.332.297-1.996-8.55-1.97-17.1-3.937-26.286-6.052 4.472-5.426 10.756-1.016 14.455-2.854l-71.312-6.565.132-1.935 123.828 5.976.237-1.158c-1.2-.283-2.39-.752-3.6-.82-33.73-1.893-67.45-4.036-101.197-5.517-30.438-1.334-60.91-1.897-91.366-2.872-28.94-.926-57.88-1.945-86.816-2.938-.407-.014-.81-.233-1.228-1.152 13.408-1.21 26.873-.78 40.293-1.55-27.32 0-54.643.277-81.957-.13-11.428-.17-22.823-2.39-34.252-2.592-13.915-.245-27.852.574-41.773 1.107-4.977.19-9.93 1.246-14.9 1.303-38.455.44-76.91.757-115.363 1.045-11.16.085-22.353-.576-33.476.057-13.885.79-27.987.696-41.277 5.9V1.333h611.135v54.012H-.333v-40.01z"/></svg>