
<svg xmlns="http://www.w3.org/2000/svg" version="1.1" xmlns:xlink="http://www.w3.org/1999/xlink" preserveAspectRatio="none" x="0px" y="0px" width="149px" height="316px" viewBox="0 0 149 316">
<defs>
<g id="Layer0_0_MEMBER_0_MEMBER_0_FILL">
<path fill="#FFFFFF" stroke="none" d="
M 87.2 267.3
Q 85.9 267.75 84.55 268.2 81.75 269.1 78.85 270.35 77.55 270.85 76.2 271.4 74.75 272 73.3 272.7 72.95 272.85 72.65 273 69.15 274.6 65.4 276.5 63.8 277.3 62.15 278.15 60.5 279.05 58.9 280
L 58 280 58 281.65 45.2 319.6
Q 45.85 320.3 46.35 320.9 46.5 321.05 46.75 321.2 48.2 322.7 49.65 323.8 51 324.85 52.45 325.6 53.25 326.05 54.1 326.35 54.65 326.6 55.15 326.75 55.3 326.8 55.45 326.8 55.55 330.1 55.45 333.95 55.4 335.5 55.3 337.15 55.15 342.3 54.65 348.45 53.4 363.95 53.55 365.7 53.75 367.45 54.55 379.9 55.3 392.25 54.1 397.95 52.8 403.65 52.8 408.35 52.75 413.1 52.9 414.35 52.95 414.75 53.05 415.45 53.1 416.95 53.25 420 53.25 420.95 53.4 421.75 53.4 422.05 53.5 422.4 53.9 424 55.1 426.15 55.8 427.2 56.6 428.5 57.45 429.25 58.6 429.85 62 431.85 65.05 432.75 67.4 430.85 66.65 427.2 65.95 423.55 64.95 421.05 64 418.55 63.2 411.85 65.05 416.8 65.85 417.55 66.2 417.85 68.9 418.55 68.85 418.45 68.75 417.05 68.7 415.65 68.55 413.15 68.15 407.6 68.55 403.75 68.55 403.65 68.55 403.6 69.75 403 69.6 402.6 69.35 402.3 68.6 402.5 68.7 399.4 67.45 397.3 66.2 394.95 66.1 391.6 66.1 386.1 66.55 382.5 67.15 378.55 68.1 370.2 68.45 367.5 68.75 364.4 69.65 367 69.2 367.9 69 368.2 68.75 368.65
L 68.75 390.9
Q 71.05 392.25 73.3 393.5 74.75 394.25 76.2 394.95 77.5 395.55 78.85 396.15 81.65 397.35 84.55 398.4 85.85 398.9 87.2 399.35 88.65 399.7 90.1 400.15 97.4 402.15 104.75 402.7 105.45 402.75 106.05 402.75 106.8 402.85 107.55 402.85 108.9 402.85 110.2 402.85 111.6 402.85 112.95 402.85 114 402.75 115 402.7 115.45 402.7 115.9 402.7 117.3 402.5 118.65 402.35 120.1 402.2 121.45 402 128.35 400.95 135.4 398.65 136.85 398.2 138.25 397.75 139.6 397.2 140.9 396.75 143.75 395.6 146.6 394.3 147.35 393.95 148.2 393.55
L 149.3 393.55 149.3 393.05
Q 150.75 392.25 152.2 391.6 152.3 391.5 152.35 391.45
L 152.35 366.45
Q 152.65 368.65 152.9 370.7 153.85 379 154.4 382.95 154.95 386.95 154.95 391.3 154.95 391.45 154.95 391.6 154.95 395.3 153.5 397.8 152.15 400.25 152.45 404.2 152.8 408.15 152.5 413.7 152.2 418.85 152.05 419 154.8 418.3 155.1 418 155.9 417.25 157.8 412.3 157 419.1 156 421.6 155 424 154.35 427.75 153.65 431.4 156 433.25 158.95 432.3 162.4 430.4 163.6 429.7 164.35 428.95 165.25 427.75 165.85 426.6 167.1 424.55 167.45 422.95 167.55 422.55 167.6 422.25
L 167.45 422.5 167.6 422.2
Q 167.7 421.45 167.7 420.45 167.85 417.4 167.9 415.9 168 415.2 168.05 414.8 168.2 413.6 168.15 408.9 168.15 404.2 166.85 398.4 165.65 392.75 166.5 380.35 167.25 367.9 167.4 366.25 167.55 364.4 166.3 348.9 165.65 340.8 165.5 334.5 165.4 330.6 165.5 327.35 166.15 327.05 166.8 326.75 168.05 326.05 169.45 325.15 171.25 324 173.15 322.55 173.45 322.25 173.9 321.95
L 169.45 306 169.45 304.25 169 304.25 163.95 286.45 163.95 285.15 163.6 285.15 163.05 283.15
Q 161.9 282.4 160.85 281.65 159.65 280.75 158.45 280 157.15 279.05 155.75 278.15 154.4 277.3 153.05 276.5 152.6 276.2 152.2 275.95 150.75 275.1 149.3 274.3 148.1 273.6 146.95 273 146.75 272.9 146.6 272.75 143.7 271.25 140.9 270.05 139.6 269.4 138.25 268.9 136.8 268.35 135.4 267.85 133.45 267.15 131.55 266.6 130.8 266.4 130.1 266.25 128.15 260.6 125.5 258.65
L 95.2 258.65
Q 94.55 259.55 93 261.7 91.6 263.6 91.6 266.1 90.85 266.25 90.1 266.45
L 90 266.55
Q 89.95 266.55 89.8 266.55 88.6 266.9 87.2 267.3
M 152.35 323.65
Q 152.3 323.65 152.2 323.55
L 152.2 312.95 152.45 312.95
Q 152.45 313.7 152.35 314.35
L 152.35 323.65 Z"/>
</g>

<g id="Layer0_0_MEMBER_0_MEMBER_1_FILL">
<path fill="#FFCC66" stroke="none" d="
M 53.5 448.6
Q 50.75 452.25 47.35 452.85 47.75 454.75 49.15 457.25 49.95 458.65 50.9 460.15 51.85 461.05 53.2 461.8 57.15 464.1 60.55 465.3 63.3 463.05 62.55 458.65 61.7 454.25 60.55 451.2 59.4 448.15 58.5 440.1 56.85 444.15 53.5 448.6
M 64.65 430.25
L 64.6 430.15
Q 64.2 430.3 63.6 430.6 61.1 431.85 61.1 434.2 61.1 440.4 61.95 442.75 62.85 445.2 64.9 446.25 64.8 444.65 64.6 441.65 64.2 434.95 64.65 430.25
M 178.8 453.4
Q 175.3 452.85 172.65 449.15 169.2 444.75 167.6 440.65 166.7 448.75 165.55 451.8 164.45 454.75 163.6 459.25 162.85 463.55 165.5 465.9 169 464.8 172.95 462.5 174.3 461.65 175.15 460.75 176.2 459.25 176.95 457.85 178.3 455.35 178.8 453.4
M 161.3 384.55
L 161.4 384.55
Q 161.3 384 161.15 383.45 161.25 384 161.3 384.55
M 161.4 333.45
Q 161.3 333.45 161.15 333.3
L 161.15 339.2
Q 161.153125 339.30625 161.25 339.5 161.3 339.6 161.4 339.8 162.2 341.25 166.1 343.75 170.6 346.65 172.8 346.5 175.05 346.2 176.5 346.5 176.4 341.8 176.5 337.9
L 176.5 337.85
Q 175.05 338.3 173.6 338.35 168.05 338.65 161.4 333.45
M 64.2 389.7
Q 64.5 386.5 64.95 382.7 63.15 394.1 60.1 402.3 58 407.85 53.55 415.6 53.8 415.5 54.55 416.8 55.3 417.95 58 417.8 59.05 417.7 59.55 417.55
L 59.65 417.8
Q 59.7 417.55 59.8 417.5 59.9 417.35 60.05 417.1 60.85 415.65 61.75 416.85
L 61.75 415.3
Q 61.7515625 415.35390625 61.85 415.6 61.85 409 62.4 404.55 63.05 399.7 64.2 389.7
M 49.55 337.3
Q 49.7 341.25 49.55 345.95 51.05 345.65 53.25 345.8 55.55 346.05 60.05 343.15 64.5 340.25 64.95 338.65
L 64.95 332.65
Q 58.15 338.15 52.5 337.75 51.05 337.7 49.55 337.3 Z"/>

<path fill="#999900" stroke="none" d="
M 73.45 413.75
L 73.45 417.95 76.5 417.95 76.5 413.75 73.45 413.75
M 70.2 413.75
L 64.95 413.75 64.95 414.75
Q 67.55 416.4 70.2 417.85
L 70.2 413.75
M 64.95 403.3
L 64.95 407.55 70.2 407.55 70.2 403.3 64.95 403.3
M 76.5 403.3
L 73.45 403.3 73.45 407.55 76.5 407.55 76.5 403.3
M 83.1 417.95
L 86.2 417.95 86.2 413.75 83.1 413.75 83.1 417.95
M 86.2 403.3
L 83.1 403.3 83.1 407.55 86.2 407.55 86.2 403.3
M 109.7 413.75
L 109.7 417.95 112.7 417.95 112.7 413.75 109.7 413.75
M 106.4 417.95
L 106.4 413.75 89.55 413.75 89.55 417.95 106.4 417.95
M 106.4 407.55
L 106.4 403.3 89.55 403.3 89.55 407.55 106.4 407.55
M 112.7 407.55
L 112.7 403.3 109.7 403.3 109.7 407.55 112.7 407.55
M 122.45 417.95
L 122.45 413.75 119.35 413.75 119.35 417.95 122.45 417.95
M 122.45 407.55
L 122.45 403.3 119.35 403.3 119.35 407.55 122.45 407.55
M 154.7 417.95
L 156.55 417.95 157.8 417.95 157.8 417.25 157.8 413.75 154.7 413.75 154.7 417.95
M 161.4 413.75
L 161.15 413.75 161.15 415.5
Q 161.3 415.5 161.4 415.35
L 161.4 413.75
M 141.8 417.95
L 141.8 413.75 125.7 413.75 125.7 417.95 141.8 417.95
M 145.05 413.75
L 145.05 417.95 148.2 417.95 148.2 413.75 145.05 413.75
M 148.2 407.55
L 148.2 403.3 145.05 403.3 145.05 407.55 148.2 407.55
M 141.8 407.55
L 141.8 403.3 125.7 403.3 125.7 407.55 141.8 407.55
M 161.4 403.3
L 161.15 403.3 161.15 407.55 161.4 407.55 161.4 403.3
M 154.7 403.3
L 154.7 407.55 157.8 407.55 157.8 403.3 154.7 403.3
M 174.7 305.8
L 163.8 305.8 163.8 310.05 174.7 310.05 174.7 305.8
M 178 316.25
L 178 320.5 181.05 320.5 181.05 316.25 178 316.25
M 163.8 318
Q 164.35 319.3 164.9 320.5
L 174.7 320.5 174.7 316.25 163.8 316.25 163.8 318
M 179.4 305.8
L 178 305.8 178 310.05 180.5 310.05 179.4 305.8
M 161.4 386.9
L 161.4 385.2
Q 161.3 384.85 161.3 384.55 161.25 384 161.15 383.45
L 161.15 386.9 161.4 386.9
M 148.2 382.7
L 145.05 382.7 145.05 386.9 148.2 386.9 148.2 382.7
M 148.2 376.5
L 148.2 372.25 145.05 372.25 145.05 376.5 148.2 376.5
M 157.8 382.7
L 154.7 382.7 154.7 386.9 157.8 386.9 157.8 382.7
M 157.8 376.5
L 157.8 372.25 154.7 372.25 154.7 376.5 157.8 376.5
M 125.7 382.7
L 125.7 386.9 141.8 386.9 141.8 382.7 125.7 382.7
M 125.7 372.25
L 125.7 376.5 141.8 376.5 141.8 372.25 125.7 372.25
M 141.8 354.15
L 141.8 349.85 125.7 349.85 125.7 354.15 141.8 354.15
M 148.2 354.15
L 148.2 349.85 145.05 349.85 145.05 354.15 148.2 354.15
M 154.7 354.15
L 157.8 354.15 157.8 349.85 154.7 349.85 154.7 354.15
M 119.35 382.7
L 119.35 386.9 122.45 386.9 122.45 382.7 119.35 382.7
M 112.7 386.9
L 112.7 382.7 109.7 382.7 109.7 386.9 112.7 386.9
M 119.35 372.25
L 119.35 376.5 122.45 376.5 122.45 372.25 119.35 372.25
M 112.7 376.5
L 112.7 372.25 109.7 372.25 109.7 376.5 112.7 376.5
M 89.55 382.7
L 89.55 386.9 106.4 386.9 106.4 382.7 89.55 382.7
M 86.2 382.7
L 83.1 382.7 83.1 386.9 86.2 386.9 86.2 382.7
M 86.2 376.5
L 86.2 372.25 83.1 372.25 83.1 376.5 86.2 376.5
M 89.55 372.25
L 89.55 376.5 106.4 376.5 106.4 372.25 89.55 372.25
M 86.2 349.85
L 83.1 349.85 83.1 354.15 86.2 354.15 86.2 349.85
M 106.4 354.15
L 106.4 349.85 89.55 349.85 89.55 354.15 106.4 354.15
M 119.35 349.85
L 119.35 354.15 122.45 354.15 122.45 349.85 119.35 349.85
M 112.7 354.15
L 112.7 349.85 109.7 349.85 109.7 354.15 112.7 354.15
M 109.7 339.5
L 109.7 343.6 112.7 343.6 112.7 339.5 109.7 339.5
M 89.55 339.5
L 89.55 343.6 106.4 343.6 106.4 339.5 89.55 339.5
M 86.2 339.5
L 83.1 339.5 83.1 343.6 86.2 343.6 86.2 339.5
M 83.1 316.25
L 83.1 320.5 86.2 320.5 86.2 316.25 83.1 316.25
M 86.2 305.8
L 83.1 305.8 83.1 310.05 86.2 310.05 86.2 305.8
M 106.4 310.05
L 106.4 305.8 89.55 305.8 89.55 310.05 106.4 310.05
M 109.7 310.05
L 112.7 310.05 112.7 305.8 109.7 305.8 109.7 310.05
M 109.7 316.25
L 109.7 320.5 112.7 320.5 112.7 316.25 109.7 316.25
M 106.4 320.5
L 106.4 316.25 89.55 316.25 89.55 320.5 106.4 320.5
M 157.8 343.6
L 157.8 339.5 154.7 339.5 154.7 343.6 157.8 343.6
M 145.05 339.5
L 145.05 343.6 148.2 343.6 148.2 339.5 145.05 339.5
M 125.7 339.5
L 125.7 343.6 141.8 343.6 141.8 339.5 125.7 339.5
M 122.45 343.6
L 122.45 339.5 119.35 339.5 119.35 343.6 122.45 343.6
M 122.45 310.05
L 122.45 305.8 119.35 305.8 119.35 310.05 122.45 310.05
M 122.45 320.5
L 122.45 316.25 119.35 316.25 119.35 320.5 122.45 320.5
M 141.8 310.05
L 141.8 305.8 125.7 305.8 125.7 310.05 141.8 310.05
M 161.15 305.8
L 161.15 310.05 162.7 310.05
Q 163.05 307.9 163.6 305.8
L 161.15 305.8
M 161.15 316.25
L 161.15 320.5 161.45 320.5
Q 161.55 318.4 161.85 316.25
L 161.15 316.25
M 154.7 316.25
L 154.7 320.5 157.8 320.5 157.8 316.25 154.7 316.25
M 145.05 316.25
L 145.05 320.5 148.2 320.5 148.2 316.25 145.05 316.25
M 141.8 320.5
L 141.8 316.25 125.7 316.25 125.7 320.5 141.8 320.5
M 148.2 305.8
L 145.05 305.8 145.05 310.05 148.2 310.05 148.2 305.8
M 157.8 305.8
L 154.7 305.8 154.7 310.05 157.8 310.05 157.8 305.8
M 70.2 382.7
L 64.95 382.7
Q 65.95 385.8 65.4 386.9
L 70.2 386.9 70.2 382.7
M 70.2 376.5
L 70.2 372.25 64.95 372.25 64.95 376.5 70.2 376.5
M 76.5 382.7
L 73.45 382.7 73.45 386.9 76.5 386.9 76.5 382.7
M 76.5 376.5
L 76.5 372.25 73.45 372.25 73.45 376.5 76.5 376.5
M 64.95 354.15
L 70.2 354.15 70.2 349.85 64.95 349.85 64.95 354.15
M 73.45 354.15
L 76.5 354.15 76.5 349.85 73.45 349.85 73.45 354.15
M 76.5 343.6
L 76.5 339.5 73.45 339.5 73.45 343.6 76.5 343.6
M 70.2 343.6
L 70.2 339.5 64.95 339.5 64.95 343.6 70.2 343.6
M 52.5 316.25
L 52.5 320.5 60.4 320.5
Q 60.4 320.15 60.4 319.85 60.4 318.85 60.2 316.25
L 52.5 316.25
M 46.05 320.5
L 49.25 320.5 49.25 316.25 46.05 316.25 46.05 320.5
M 49.25 305.8
L 46.05 305.8 46.05 310.05 49.25 310.05 49.25 305.8
M 59.25 308.3
Q 59.05 307 58.95 305.8
L 52.5 305.8 52.5 310.05 59.5 310.05
Q 59.35 309.2 59.25 308.3
M 73.45 316.25
L 73.45 320.5 76.5 320.5 76.5 316.25 73.45 316.25
M 60.8 310.05
L 70.2 310.05 70.2 305.8 59.65 305.8 60.8 310.05
M 62.4 316.25
L 63.5 320.5 70.2 320.5 70.2 316.25 62.4 316.25
M 76.5 305.8
L 73.45 305.8 73.45 310.05 76.5 310.05 76.5 305.8
M 69.35 272.25
Q 65.35 274.15 61.1 276.35
L 70.2 276.35 70.2 272.25 69.35 272.25
M 76.5 282.65
L 73.45 282.65 73.45 286.8 76.5 286.8 76.5 282.65
M 76.5 276.35
L 76.5 272.25 73.45 272.25 73.45 276.35 76.5 276.35
M 52.5 282.65
L 52.5 286.8 70.2 286.8 70.2 282.65 52.5 282.65
M 161.15 282.65
L 161.15 286.8 174.3 286.8 173.7 284.55
Q 172.4 283.55 171.2 282.65
L 161.15 282.65
M 148.2 282.65
L 145.05 282.65 145.05 286.8 148.2 286.8 148.2 282.65
M 148.2 276.35
L 148.2 272.25 145.05 272.25 145.05 276.35 148.2 276.35
M 157.8 282.65
L 154.7 282.65 154.7 286.8 157.8 286.8 157.8 282.65
M 157.8 276.35
L 157.8 273.75
Q 156.45 273 155.15 272.25
L 154.7 272.25 154.7 276.35 157.8 276.35
M 161.15 275.8
L 161.15 276.35 162.15 276.35
Q 161.6 276.1 161.15 275.8
M 133.75 284.9
Q 133.35 285.9 133.05 286.8
L 141.8 286.8 141.8 282.65 134.5 282.65
Q 134.2 283.75 133.75 284.9
M 130.2 282.65
L 125.7 282.65 125.7 286.8 127 286.8
Q 128.9 284.45 130.2 282.65
M 133.75 276.35
Q 134.65 274.3 135.25 272.25
L 125.7 272.25 125.7 276.35 133.75 276.35
M 136.4 275.8
Q 136.35 276.1 136.25 276.35
L 141.8 276.35 141.8 272.25 137.1 272.25
Q 136.85 273.7 136.4 275.8
M 119.35 286.8
L 120.25 286.8 122.45 286.8 122.45 282.65 119.35 282.65 119.35 285.15 119.35 286.8
M 112.7 282.85
L 112.7 282.65 112.5 282.65 111.35 282.65
Q 110.95 283.75 110 286.8
L 112.7 286.8 112.7 282.85
M 112.7 276.1
L 112.7 272.25 109.7 272.25 109.7 276.35 112.25 276.35 112.7 276.35 112.7 276.1
M 119.35 272.25
L 119.35 276.35 122.45 276.35 122.45 272.25 119.35 272.25
M 90.55 272.25
Q 90.95 274.15 92 276.35
L 106.4 276.35 106.4 272.25 90.55 272.25
M 95.55 282.65
Q 97.15 285 99.05 286.8
L 106.4 286.8 106.4 282.65 95.55 282.65
M 86.2 282.65
L 83.1 282.65 83.1 286.8 86.2 286.8 86.2 282.65
M 90.15 282.65
L 89.55 282.65 89.55 286.8 92.6 286.8
Q 91.15 284.7 90.15 282.65
M 86.2 276.35
L 86.2 272.25 83.1 272.25 83.1 276.35 86.2 276.35 Z"/>

<path fill="#FFCC00" stroke="none" d="
M 73.45 417.95
L 73.45 419.6
Q 75 420.35 76.5 421.05
L 76.5 417.95 73.45 417.95
M 76.5 413.75
L 76.5 411.7 73.45 411.7 73.45 413.75 76.5 413.75
M 70.2 413.75
L 70.2 411.7 64.95 411.7 64.95 413.75 70.2 413.75
M 70.2 407.55
L 64.95 407.55 64.95 409.6 70.2 409.6 70.2 407.55
M 76.5 407.55
L 73.45 407.55 73.45 409.6 76.5 409.6 76.5 407.55
M 89.55 425.9
Q 97.9 428.35 106.4 428.95
L 106.4 417.95 89.55 417.95 89.55 425.9
M 86.2 417.95
L 83.1 417.95 83.1 423.85
Q 84.65 424.4 86.2 424.85
L 86.2 417.95
M 86.2 413.75
L 86.2 411.7 83.1 411.7 83.1 413.75 86.2 413.75
M 86.2 407.55
L 83.1 407.55 83.1 409.6 86.2 409.6 86.2 407.55
M 106.4 409.6
L 106.4 407.55 89.55 407.55 89.55 409.6 106.4 409.6
M 109.7 407.55
L 109.7 409.6 112.7 409.6 112.7 407.55 109.7 407.55
M 112.7 417.95
L 109.7 417.95 109.7 429.15
Q 111.2 429.15 112.7 429.15
L 112.7 417.95
M 109.7 411.7
L 109.7 413.75 112.7 413.75 112.7 411.7 109.7 411.7
M 106.4 413.75
L 106.4 411.7 89.55 411.7 89.55 413.75 106.4 413.75
M 122.45 428.65
L 122.45 417.95 119.35 417.95 119.35 428.85
Q 120.9 428.8 122.45 428.65
M 125.7 428.1
Q 133.7 426.9 141.8 424.1
L 141.8 417.95 125.7 417.95 125.7 428.1
M 122.45 409.6
L 122.45 407.55 119.35 407.55 119.35 409.6 122.45 409.6
M 122.45 413.75
L 122.45 411.7 119.35 411.7 119.35 413.75 122.45 413.75
M 141.8 409.6
L 141.8 407.55 125.7 407.55 125.7 409.6 141.8 409.6
M 154.7 417.95
L 154.7 418.85
Q 155.6 418.4 156.55 417.95
L 154.7 417.95
M 161.15 413.75
L 161.4 413.75 161.4 411.7 161.15 411.7 161.15 413.75
M 157.8 413.75
L 157.8 411.7 154.7 411.7 154.7 413.75 157.8 413.75
M 148.2 417.95
L 145.05 417.95 145.05 423
Q 146.6 422.35 148.2 421.75
L 148.2 417.95
M 141.8 413.75
L 141.8 411.7 125.7 411.7 125.7 413.75 141.8 413.75
M 148.2 413.75
L 148.2 411.7 145.05 411.7 145.05 413.75 148.2 413.75
M 148.2 407.55
L 145.05 407.55 145.05 409.6 148.2 409.6 148.2 407.55
M 157.8 407.55
L 154.7 407.55 154.7 409.6 157.8 409.6 157.8 407.55
M 161.4 407.55
L 161.15 407.55 161.15 409.6 161.4 409.6 161.4 407.55
M 174.7 320.5
L 164.9 320.5
Q 166.4 324.25 167.45 326 169.05 328.95 170.95 330.15 172.4 331.15 174.7 331.6
L 174.7 320.5
M 181.05 320.5
L 178 320.5 178 332
Q 179.3 332.05 181.05 332.05
L 181.05 320.5
M 181.05 314.3
L 178 314.3 178 316.25 181.05 316.25 181.05 314.3
M 181.05 310.05
L 180.5 310.05 178 310.05 178 312.15 181.05 312.15 181.05 310.05
M 163.8 314.3
L 163.8 316.25 174.7 316.25 174.7 314.3 163.8 314.3
M 163.8 310.05
L 163.8 312.15 174.7 312.15 174.7 310.05 163.8 310.05
M 178 305.8
L 179.4 305.8 178 300.8 178 305.8
M 161.15 286.8
L 161.15 305.8 163.6 305.8 163.8 305.8 174.7 305.8 174.7 288.4 174.7 286.8 174.3 286.8 161.15 286.8
M 122.45 386.9
L 119.35 386.9 119.35 403.3 122.45 403.3 122.45 386.9
M 125.7 372.25
L 141.8 372.25 141.8 354.15 125.7 354.15 125.7 372.25
M 141.8 386.9
L 125.7 386.9 125.7 403.3 141.8 403.3 141.8 386.9
M 161.4 386.9
L 161.15 386.9 161.15 403.3 161.4 403.3 161.4 386.9
M 157.8 386.9
L 154.7 386.9 154.7 403.3 157.8 403.3 157.8 386.9
M 148.2 386.9
L 145.05 386.9 145.05 403.3 148.2 403.3 148.2 386.9
M 148.2 378.55
L 148.2 376.5 145.05 376.5 145.05 378.55 148.2 378.55
M 145.05 380.6
L 145.05 382.7 148.2 382.7 148.2 380.6 145.05 380.6
M 157.8 378.55
L 157.8 376.5 154.7 376.5 154.7 378.55 157.8 378.55
M 154.7 380.6
L 154.7 382.7 157.8 382.7 157.8 380.6 154.7 380.6
M 125.7 380.6
L 125.7 382.7 141.8 382.7 141.8 380.6 125.7 380.6
M 125.7 376.5
L 125.7 378.55 141.8 378.55 141.8 376.5 125.7 376.5
M 148.2 354.15
L 145.05 354.15 145.05 372.25 148.2 372.25 148.2 354.15
M 141.8 349.85
L 141.8 347.85 125.7 347.85 125.7 349.85 141.8 349.85
M 148.2 349.85
L 148.2 347.85 145.05 347.85 145.05 349.85 148.2 349.85
M 157.8 354.15
L 154.7 354.15 154.7 372.25 157.8 372.25 157.8 354.15
M 157.8 347.85
L 154.7 347.85 154.7 349.85 157.8 349.85 157.8 347.85
M 106.4 372.25
L 106.4 354.15 89.55 354.15 89.55 372.25 106.4 372.25
M 119.35 354.15
L 119.35 372.25 122.45 372.25 122.45 354.15 119.35 354.15
M 106.4 386.9
L 89.55 386.9 89.55 403.3 106.4 403.3 106.4 386.9
M 112.7 386.9
L 109.7 386.9 109.7 403.3 112.7 403.3 112.7 386.9
M 112.7 382.7
L 112.7 380.6 109.7 380.6 109.7 382.7 112.7 382.7
M 119.35 380.6
L 119.35 382.7 122.45 382.7 122.45 380.6 119.35 380.6
M 119.35 376.5
L 119.35 378.55 122.45 378.55 122.45 376.5 119.35 376.5
M 112.7 378.55
L 112.7 376.5 109.7 376.5 109.7 378.55 112.7 378.55
M 86.2 386.9
L 83.1 386.9 83.1 403.3 86.2 403.3 86.2 386.9
M 86.2 376.5
L 83.1 376.5 83.1 378.55 86.2 378.55 86.2 376.5
M 89.55 376.5
L 89.55 378.55 106.4 378.55 106.4 376.5 89.55 376.5
M 89.55 380.6
L 89.55 382.7 106.4 382.7 106.4 380.6 89.55 380.6
M 83.1 380.6
L 83.1 382.7 86.2 382.7 86.2 380.6 83.1 380.6
M 86.2 354.15
L 83.1 354.15 83.1 372.25 86.2 372.25 86.2 354.15
M 86.2 349.85
L 86.2 347.85 83.1 347.85 83.1 349.85 86.2 349.85
M 112.7 354.15
L 109.7 354.15 109.7 372.25 112.7 372.25 112.7 354.15
M 106.4 349.85
L 106.4 347.85 89.55 347.85 89.55 349.85 106.4 349.85
M 119.35 347.85
L 119.35 349.85 122.45 349.85 122.45 347.85 119.35 347.85
M 112.7 349.85
L 112.7 347.85 109.7 347.85 109.7 349.85 112.7 349.85
M 89.55 320.5
L 89.55 339.5 106.4 339.5 106.4 320.5 89.55 320.5
M 109.7 343.6
L 109.7 345.75 112.7 345.75 112.7 343.6 109.7 343.6
M 89.55 343.6
L 89.55 345.75 106.4 345.75 106.4 343.6 89.55 343.6
M 83.1 343.6
L 83.1 345.75 86.2 345.75 86.2 343.6 83.1 343.6
M 83.1 314.3
L 83.1 316.25 86.2 316.25 86.2 314.3 83.1 314.3
M 86.2 320.5
L 83.1 320.5 83.1 339.5 86.2 339.5 86.2 320.5
M 86.2 312.15
L 86.2 310.05 83.1 310.05 83.1 312.15 86.2 312.15
M 112.7 320.5
L 109.7 320.5 109.7 339.5 112.7 339.5 112.7 320.5
M 109.7 310.05
L 109.7 312.15 112.7 312.15 112.7 310.05 109.7 310.05
M 109.7 314.3
L 109.7 316.25 112.7 316.25 112.7 314.3 109.7 314.3
M 106.4 312.15
L 106.4 310.05 89.55 310.05 89.55 312.15 106.4 312.15
M 106.4 316.25
L 106.4 314.3 89.55 314.3 89.55 316.25 106.4 316.25
M 122.45 339.5
L 122.45 320.5 119.35 320.5 119.35 339.5 122.45 339.5
M 141.8 339.5
L 141.8 320.5 125.7 320.5 125.7 339.5 141.8 339.5
M 154.7 343.6
L 154.7 345.75 157.8 345.75 157.8 343.6 154.7 343.6
M 145.05 343.6
L 145.05 345.75 148.2 345.75 148.2 343.6 145.05 343.6
M 125.7 343.6
L 125.7 345.75 141.8 345.75 141.8 343.6 125.7 343.6
M 122.45 345.75
L 122.45 343.6 119.35 343.6 119.35 345.75 122.45 345.75
M 122.45 312.15
L 122.45 310.05 119.35 310.05 119.35 312.15 122.45 312.15
M 122.45 316.25
L 122.45 314.3 119.35 314.3 119.35 316.25 122.45 316.25
M 157.8 316.25
L 157.8 314.3 154.7 314.3 154.7 316.25 157.8 316.25
M 157.8 320.5
L 154.7 320.5 154.7 339.5 157.8 339.5 157.8 320.5
M 161.15 316.25
L 161.85 316.25
Q 161.9 315.3 162.05 314.3
L 161.15 314.3 161.15 316.25
M 157.8 312.15
L 157.8 310.05 154.7 310.05 154.7 312.15 157.8 312.15
M 161.15 310.05
L 161.15 312.15 162.4 312.15
Q 162.55 311.05 162.7 310.05
L 161.15 310.05
M 141.8 316.25
L 141.8 314.3 125.7 314.3 125.7 316.25 141.8 316.25
M 148.2 320.5
L 145.05 320.5 145.05 339.5 148.2 339.5 148.2 320.5
M 148.2 316.25
L 148.2 314.3 145.05 314.3 145.05 316.25 148.2 316.25
M 141.8 312.15
L 141.8 310.05 125.7 310.05 125.7 312.15 141.8 312.15
M 148.2 312.15
L 148.2 310.05 145.05 310.05 145.05 312.15 148.2 312.15
M 76.5 386.9
L 73.45 386.9 73.45 403.3 76.5 403.3 76.5 386.9
M 70.2 386.9
L 65.4 386.9
Q 65.2 387.35 64.95 387.8
L 64.95 403.3 70.2 403.3 70.2 386.9
M 64.95 378.55
L 70.2 378.55 70.2 376.5 64.95 376.5 64.95 378.55
M 64.95 380.6
L 64.95 382.7 70.2 382.7 70.2 380.6 64.95 380.6
M 76.5 376.5
L 73.45 376.5 73.45 378.55 76.5 378.55 76.5 376.5
M 73.45 380.6
L 73.45 382.7 76.5 382.7 76.5 380.6 73.45 380.6
M 64.95 349.85
L 70.2 349.85 70.2 347.85 64.95 347.85 64.95 349.85
M 70.2 354.15
L 64.95 354.15 64.95 372.25 70.2 372.25 70.2 354.15
M 76.5 354.15
L 73.45 354.15 73.45 372.25 76.5 372.25 76.5 354.15
M 76.5 347.85
L 73.45 347.85 73.45 349.85 76.5 349.85 76.5 347.85
M 39.55 328.2
L 39.55 323.25 38.15 327.5
Q 38.55 327.65 39.05 327.95 39.3 328.05 39.55 328.2
M 73.45 345.75
L 76.5 345.75 76.5 343.6 73.45 343.6 73.45 345.75
M 70.2 345.75
L 70.2 343.6 64.95 343.6 64.95 345.75 70.2 345.75
M 52.5 314.3
L 52.5 316.25 60.2 316.25
Q 60.05 315.35 59.95 314.3
L 52.5 314.3
M 60.4 320.5
L 52.5 320.5 52.5 331.45
Q 60.2 329.7 60.4 320.5
M 59.7 312.15
Q 59.55 311.1 59.5 310.05
L 52.5 310.05 52.5 312.15 59.7 312.15
M 49.25 320.5
L 46.05 320.5 46.05 331.45
Q 47.4 331.75 48.55 331.75 48.85 331.75 49.25 331.75
L 49.25 320.5
M 46.05 310.05
L 46.05 312.15 49.25 312.15 49.25 310.05 46.05 310.05
M 49.25 314.3
L 46.05 314.3 46.05 316.25 49.25 316.25 49.25 314.3
M 46.05 305.8
L 49.25 305.8 49.25 292.9 46.05 302.75 46.05 305.8
M 76.5 314.3
L 73.45 314.3 73.45 316.25 76.5 316.25 76.5 314.3
M 76.5 320.5
L 73.45 320.5 73.45 339.5 76.5 339.5 76.5 320.5
M 76.5 312.15
L 76.5 310.05 73.45 310.05 73.45 312.15 76.5 312.15
M 70.2 320.5
L 63.5 320.5 64.95 326 64.95 332.65 64.95 338.65 64.95 339.5 70.2 339.5 70.2 320.5
M 70.2 316.25
L 70.2 314.3 61.85 314.3 62.4 316.25 70.2 316.25
M 70.2 312.15
L 70.2 310.05 60.8 310.05 61.3 312.15 70.2 312.15
M 70.2 286.8
L 52.5 286.8 52.5 305.8 58.95 305.8 59.65 305.8 70.2 305.8 70.2 286.8
M 76.5 286.8
L 73.45 286.8 73.45 305.8 76.5 305.8 76.5 286.8
M 69.35 272.25
L 70.2 272.25 70.2 271.85
Q 69.75 272.1 69.35 272.25
M 70.2 276.35
L 61.1 276.35
Q 59.2 277.4 57.3 278.45
L 70.2 278.45 70.2 276.35
M 76.5 278.45
L 76.5 276.35 73.45 276.35 73.45 278.45 76.5 278.45
M 73.45 280.6
L 73.45 282.65 76.5 282.65 76.5 280.6 73.45 280.6
M 53.5 280.6
L 52.5 280.6 52.5 282.65 70.2 282.65 70.2 280.6 53.5 280.6
M 76.5 269.05
Q 75.05 269.65 73.45 270.35
L 73.45 272.25 76.5 272.25 76.5 269.05
M 157.8 286.8
L 154.7 286.8 154.7 305.8 157.8 305.8 157.8 286.8
M 148.2 286.8
L 145.05 286.8 145.05 305.8 148.2 305.8 148.2 286.8
M 145.05 276.35
L 145.05 278.45 148.2 278.45 148.2 276.35 145.05 276.35
M 145.05 280.6
L 145.05 282.65 148.2 282.65 148.2 280.6 145.05 280.6
M 157.8 276.35
L 154.7 276.35 154.7 278.45 157.8 278.45 157.8 276.35
M 161.15 276.35
L 161.15 278.45 165.25 278.45
Q 163.65 277.4 162.15 276.35
L 161.15 276.35
M 161.15 280.6
L 161.15 282.65 171.2 282.65
Q 169.75 281.55 168.35 280.6
L 161.15 280.6
M 154.7 280.6
L 154.7 282.65 157.8 282.65 157.8 280.6 154.7 280.6
M 154.7 272.25
L 155.15 272.25
Q 154.95 272.15 154.7 271.95
L 154.7 272.25
M 133.05 286.8
Q 129.65 295.45 125.7 296.9
L 125.7 305.8 141.8 305.8 141.8 286.8 133.05 286.8
M 122.45 290.6
L 122.45 286.8 120.25 286.8
Q 121.6 289.4 122.45 290.6
M 125.7 288.4
Q 126.4 287.65 127 286.8
L 125.7 286.8 125.7 288.4
M 122.45 296.05
Q 122.15 295.7 121.7 295.15 121.15 294.35 119.35 291.3
L 119.35 305.8 122.45 305.8 122.45 296.05
M 125.7 280.6
L 125.7 282.65 130.2 282.65
Q 130.55 282.05 130.85 281.55 131.15 281.05 131.45 280.6
L 125.7 280.6
M 135.1 280.6
Q 134.9 281.65 134.5 282.65
L 141.8 282.65 141.8 280.6 135.1 280.6
M 132.7 278.45
Q 133.2 277.45 133.75 276.35
L 125.7 276.35 125.7 278.45 132.7 278.45
M 136.25 276.35
Q 135.95 277.45 135.75 278.45
L 141.8 278.45 141.8 276.35 136.25 276.35
M 137.3 264.5
Q 137.55 265.1 137.55 265.7 137.6 266.9 137.25 270.2 137.25 270.95 137.1 272.25
L 141.8 272.25 141.8 266
Q 139.5 265.15 137.3 264.5
M 130.35 254.9
L 125.7 254.9 125.7 272.25 135.25 272.25
Q 135.95 269.5 135.95 266.9 135.95 265.3 135.75 264.05 133.35 257.2 130.35 254.9
M 148.2 268.65
Q 146.6 267.9 145.05 267.3
L 145.05 272.25 148.2 272.25 148.2 268.65
M 119.35 254.9
L 119.35 272.25 122.45 272.25 122.45 254.9 119.35 254.9
M 109.7 286.8
L 109.7 287.7 109.7 305.8 112.7 305.8 112.7 286.8 110 286.8 109.7 286.8
M 105 291.45
Q 105.65 289.7 106.4 287.8
L 106.4 286.8 99.05 286.8
Q 101.8 289.55 105 291.45
M 109.7 278.45
L 110.75 278.45
Q 111.6 277 112.25 276.35
L 109.7 276.35 109.7 278.45
M 119.35 276.35
L 119.35 278.45 122.45 278.45 122.45 276.35 119.35 276.35
M 119.35 280.6
L 119.35 282.65 122.45 282.65 122.45 280.6 119.35 280.6
M 112.5 282.65
Q 111.95 282.35 111.5 282.1 111.5 282.35 111.35 282.65
L 112.5 282.65
M 93.45 288.05
Q 93.05 287.5 92.6 286.8
L 89.55 286.8 89.55 305.8 106.4 305.8 106.4 294.8
Q 105.45 296 104.5 296 99.2 296 93.45 288.05
M 86.2 286.8
L 83.1 286.8 83.1 305.8 86.2 305.8 86.2 286.8
M 86.2 276.35
L 83.1 276.35 83.1 278.45 86.2 278.45 86.2 276.35
M 89.55 282.65
L 90.15 282.65
Q 89.85 281.95 89.55 281.35
L 89.55 282.65
M 83.1 280.6
L 83.1 282.65 86.2 282.65 86.2 280.6 83.1 280.6
M 94.2 280.6
Q 94.9 281.65 95.55 282.65
L 106.4 282.65 106.4 280.6 94.2 280.6
M 92 276.35
Q 92.45 277.4 93.05 278.45
L 106.4 278.45 106.4 276.35 92 276.35
M 86.2 265.3
Q 84.7 265.95 83.1 266.45
L 83.1 272.25 86.2 272.25 86.2 265.3
M 95.4 254.9
Q 94.65 256 92.85 258.55 91.3 260.75 91.3 263.9 90.95 263.95 90.25 268.3 90 270.05 90.55 272.25
L 106.4 272.25 106.4 254.9 95.4 254.9
M 112.7 254.9
L 109.7 254.9 109.7 272.25 112.7 272.25 112.7 254.9 Z"/>

<path fill="#CCFF00" stroke="none" d="
M 76.5 411.7
L 76.5 409.6 73.45 409.6 73.45 411.7 76.5 411.7
M 70.2 411.7
L 70.2 409.6 64.95 409.6 64.95 411.7 70.2 411.7
M 86.2 411.7
L 86.2 409.6 83.1 409.6 83.1 411.7 86.2 411.7
M 106.4 411.7
L 106.4 409.6 89.55 409.6 89.55 411.7 106.4 411.7
M 109.7 409.6
L 109.7 411.7 112.7 411.7 112.7 409.6 109.7 409.6
M 122.45 411.7
L 122.45 409.6 119.35 409.6 119.35 411.7 122.45 411.7
M 157.8 411.7
L 157.8 409.6 154.7 409.6 154.7 411.7 157.8 411.7
M 161.4 409.6
L 161.15 409.6 161.15 411.7 161.4 411.7 161.4 409.6
M 141.8 411.7
L 141.8 409.6 125.7 409.6 125.7 411.7 141.8 411.7
M 148.2 411.7
L 148.2 409.6 145.05 409.6 145.05 411.7 148.2 411.7
M 181.05 314.3
L 181.05 312.15 178 312.15 178 314.3 181.05 314.3
M 163.8 312.15
L 163.8 314.3 174.7 314.3 174.7 312.15 163.8 312.15
M 119.35 345.75
L 119.35 347.85 122.45 347.85 122.45 345.75 119.35 345.75
M 145.05 378.55
L 145.05 380.6 148.2 380.6 148.2 378.55 145.05 378.55
M 154.7 378.55
L 154.7 380.6 157.8 380.6 157.8 378.55 154.7 378.55
M 125.7 378.55
L 125.7 380.6 141.8 380.6 141.8 378.55 125.7 378.55
M 112.7 380.6
L 112.7 378.55 109.7 378.55 109.7 380.6 112.7 380.6
M 119.35 378.55
L 119.35 380.6 122.45 380.6 122.45 378.55 119.35 378.55
M 89.55 378.55
L 89.55 380.6 106.4 380.6 106.4 378.55 89.55 378.55
M 83.1 378.55
L 83.1 380.6 86.2 380.6 86.2 378.55 83.1 378.55
M 106.4 345.75
L 89.55 345.75 89.55 347.85 106.4 347.85 106.4 345.75
M 112.7 345.75
L 109.7 345.75 109.7 347.85 112.7 347.85 112.7 345.75
M 86.2 345.75
L 83.1 345.75 83.1 347.85 86.2 347.85 86.2 345.75
M 86.2 314.3
L 86.2 312.15 83.1 312.15 83.1 314.3 86.2 314.3
M 109.7 312.15
L 109.7 314.3 112.7 314.3 112.7 312.15 109.7 312.15
M 106.4 314.3
L 106.4 312.15 89.55 312.15 89.55 314.3 106.4 314.3
M 141.8 345.75
L 125.7 345.75 125.7 347.85 141.8 347.85 141.8 345.75
M 157.8 345.75
L 154.7 345.75 154.7 347.85 157.8 347.85 157.8 345.75
M 148.2 345.75
L 145.05 345.75 145.05 347.85 148.2 347.85 148.2 345.75
M 122.45 314.3
L 122.45 312.15 119.35 312.15 119.35 314.3 122.45 314.3
M 157.8 314.3
L 157.8 312.15 154.7 312.15 154.7 314.3 157.8 314.3
M 161.15 312.15
L 161.15 314.3 162.05 314.3
Q 162.15 313.15 162.4 312.15
L 161.15 312.15
M 141.8 314.3
L 141.8 312.15 125.7 312.15 125.7 314.3 141.8 314.3
M 148.2 314.3
L 148.2 312.15 145.05 312.15 145.05 314.3 148.2 314.3
M 64.95 378.55
L 64.95 380.6 70.2 380.6 70.2 378.55 64.95 378.55
M 73.45 378.55
L 73.45 380.6 76.5 380.6 76.5 378.55 73.45 378.55
M 76.5 345.75
L 73.45 345.75 73.45 347.85 76.5 347.85 76.5 345.75
M 70.2 345.75
L 64.95 345.75 64.95 347.85 70.2 347.85 70.2 345.75
M 59.95 314.3
Q 59.8 313.25 59.7 312.15
L 52.5 312.15 52.5 314.3 59.95 314.3
M 49.25 314.3
L 49.25 312.15 46.05 312.15 46.05 314.3 49.25 314.3
M 76.5 314.3
L 76.5 312.15 73.45 312.15 73.45 314.3 76.5 314.3
M 70.2 314.3
L 70.2 312.15 61.3 312.15 61.85 314.3 70.2 314.3
M 73.45 278.45
L 73.45 280.6 76.5 280.6 76.5 278.45 73.45 278.45
M 57.3 278.45
Q 55.4 279.45 53.5 280.6
L 70.2 280.6 70.2 278.45 57.3 278.45
M 145.05 278.45
L 145.05 280.6 148.2 280.6 148.2 278.45 145.05 278.45
M 161.15 278.45
L 161.15 280.6 168.35 280.6
Q 166.8 279.45 165.25 278.45
L 161.15 278.45
M 154.7 278.45
L 154.7 280.6 157.8 280.6 157.8 278.45 154.7 278.45
M 125.7 278.45
L 125.7 280.6 131.45 280.6
Q 132.1 279.6 132.7 278.45
L 125.7 278.45
M 135.75 278.45
Q 135.4 279.6 135.1 280.6
L 141.8 280.6 141.8 278.45 135.75 278.45
M 109.7 278.45
L 109.7 280.5
Q 110.2 279.3 110.75 278.45
L 109.7 278.45
M 119.35 278.45
L 119.35 280.6 122.45 280.6 122.45 278.45 119.35 278.45
M 83.1 278.45
L 83.1 280.6 86.2 280.6 86.2 278.45 83.1 278.45
M 93.05 278.45
Q 93.5 279.3 93.95 280.2 94.1 280.45 94.2 280.6
L 106.4 280.6 106.4 278.45 93.05 278.45 Z"/>

<path fill="#FFFF00" fill-opacity="0.5215686274509804" stroke="none" d="
M 181.05 312.15
L 181.05 314.3 181.05 316.25 181.05 320.5 181.05 332.05
Q 182.5 332.15 184.25 332.15 184.95 332.15 185.3 332.15 185.75 331.7 186.2 331.3
L 181.05 312.15
M 46.05 305.8
L 46.05 302.75 39.55 323.25 39.55 328.2
Q 40.8 328.85 42.65 329.95 42.7 329.95 42.85 330 43.1 330.15 43.3 330.3 44.85 331.1 46.05 331.45
L 46.05 320.5 46.05 316.25 46.05 314.3 46.05 312.15 46.05 310.05 46.05 305.8
M 154.7 271.95
Q 151.35 270.1 148.2 268.65
L 148.2 272.25 148.2 276.35 148.2 278.45 148.2 280.6 148.2 282.65 148.2 286.8 148.2 305.8 148.2 310.05 148.2 312.15 148.2 314.3 148.2 316.25 148.2 320.5 148.2 339.5 148.2 343.6 148.2 345.75 148.2 347.85 148.2 349.85 148.2 354.15 148.2 372.25 148.2 376.5 148.2 378.55 148.2 380.6 148.2 382.7 148.2 386.9 148.2 403.3 148.2 407.55 148.2 409.6 148.2 411.7 148.2 413.75 148.2 417.95 148.2 421.75
Q 151.45 420.45 154.7 418.85
L 154.7 417.95 154.7 413.75 154.7 411.7 154.7 409.6 154.7 407.55 154.7 403.3 154.7 386.9 154.7 382.7 154.7 380.6 154.7 378.55 154.7 376.5 154.7 372.25 154.7 354.15 154.7 349.85 154.7 347.85 154.7 345.75 154.7 343.6 154.7 339.5 154.7 320.5 154.7 316.25 154.7 314.3 154.7 312.15 154.7 310.05 154.7 305.8 154.7 286.8 154.7 282.65 154.7 280.6 154.7 278.45 154.7 276.35 154.7 272.25 154.7 271.95
M 115.9 286.05
Q 114.25 283.75 112.7 282.85
L 112.7 286.8 112.7 305.8 112.7 310.05 112.7 312.15 112.7 314.3 112.7 316.25 112.7 320.5 112.7 339.5 112.7 343.6 112.7 345.75 112.7 347.85 112.7 349.85 112.7 354.15 112.7 372.25 112.7 376.5 112.7 378.55 112.7 380.6 112.7 382.7 112.7 386.9 112.7 403.3 112.7 407.55 112.7 409.6 112.7 411.7 112.7 413.75 112.7 417.95 112.7 429.15
Q 114.3 429.15 115.9 429.1
L 115.9 286.05
M 118.8 290.4
Q 118.55 289.9 118.25 289.55
L 118.25 428.95
Q 118.8 428.95 119.35 428.85
L 119.35 417.95 119.35 413.75 119.35 411.7 119.35 409.6 119.35 407.55 119.35 403.3 119.35 386.9 119.35 382.7 119.35 380.6 119.35 378.55 119.35 376.5 119.35 372.25 119.35 354.15 119.35 349.85 119.35 347.85 119.35 345.75 119.35 343.6 119.35 339.5 119.35 320.5 119.35 316.25 119.35 314.3 119.35 312.15 119.35 310.05 119.35 305.8 119.35 291.3
Q 119.1 290.85 118.8 290.4
M 83.1 276.35
L 83.1 272.25 83.1 266.45
Q 79.9 267.55 76.5 269.05
L 76.5 272.25 76.5 276.35 76.5 278.45 76.5 280.6 76.5 282.65 76.5 286.8 76.5 305.8 76.5 310.05 76.5 312.15 76.5 314.3 76.5 316.25 76.5 320.5 76.5 339.5 76.5 343.6 76.5 345.75 76.5 347.85 76.5 349.85 76.5 354.15 76.5 372.25 76.5 376.5 76.5 378.55 76.5 380.6 76.5 382.7 76.5 386.9 76.5 403.3 76.5 407.55 76.5 409.6 76.5 411.7 76.5 413.75 76.5 417.95 76.5 421.05
Q 79.85 422.55 83.1 423.85
L 83.1 417.95 83.1 413.75 83.1 411.7 83.1 409.6 83.1 407.55 83.1 403.3 83.1 386.9 83.1 382.7 83.1 380.6 83.1 378.55 83.1 376.5 83.1 372.25 83.1 354.15 83.1 349.85 83.1 347.85 83.1 345.75 83.1 343.6 83.1 339.5 83.1 320.5 83.1 316.25 83.1 314.3 83.1 312.15 83.1 310.05 83.1 305.8 83.1 286.8 83.1 282.65 83.1 280.6 83.1 278.45 83.1 276.35
M 119.35 254.9
L 112.7 254.9 112.7 272.25 112.7 276.1
Q 113.1 275.9 113.4 275.9 114.25 276.2 115.9 278.85 116.95 280.6 118.4 283.4 118.85 284.3 119.35 285.15
L 119.35 282.65 119.35 280.6 119.35 278.45 119.35 276.35 119.35 272.25 119.35 254.9 Z"/>

<path fill="#FF6600" fill-opacity="0.5019607843137255" stroke="none" d="
M 178 305.8
L 178 300.8 174.7 288.4 174.7 305.8 174.7 310.05 174.7 312.15 174.7 314.3 174.7 316.25 174.7 320.5 174.7 331.6
Q 175.35 331.7 176.05 331.9 176.8 332 178 332
L 178 320.5 178 316.25 178 314.3 178 312.15 178 310.05 178 305.8
M 122.45 314.3
L 122.45 316.25 122.45 320.5 122.45 339.5 122.45 343.6 122.45 345.75 122.45 347.85 122.45 349.85 122.45 354.15 122.45 372.25 122.45 376.5 122.45 378.55 122.45 380.6 122.45 382.7 122.45 386.9 122.45 403.3 122.45 407.55 122.45 409.6 122.45 411.7 122.45 413.75 122.45 417.95 122.45 428.65
Q 124.1 428.35 125.7 428.1
L 125.7 417.95 125.7 413.75 125.7 411.7 125.7 409.6 125.7 407.55 125.7 403.3 125.7 386.9 125.7 382.7 125.7 380.6 125.7 378.55 125.7 376.5 125.7 372.25 125.7 354.15 125.7 349.85 125.7 347.85 125.7 345.75 125.7 343.6 125.7 339.5 125.7 320.5 125.7 316.25 125.7 314.3 125.7 312.15 125.7 310.05 125.7 305.8 125.7 296.9
Q 124.95 297.2 124.1 297.2 123.45 297.2 122.45 296.05
L 122.45 305.8 122.45 310.05 122.45 312.15 122.45 314.3
M 52.5 282.65
L 49.25 292.9 49.25 305.8 49.25 310.05 49.25 312.15 49.25 314.3 49.25 316.25 49.25 320.5 49.25 331.75
Q 51 331.7 52.5 331.45
L 52.5 320.5 52.5 316.25 52.5 314.3 52.5 312.15 52.5 310.05 52.5 305.8 52.5 286.8 52.5 282.65
M 73.45 270.35
Q 71.85 271 70.2 271.85
L 70.2 272.25 70.2 276.35 70.2 278.45 70.2 280.6 70.2 282.65 70.2 286.8 70.2 305.8 70.2 310.05 70.2 312.15 70.2 314.3 70.2 316.25 70.2 320.5 70.2 339.5 70.2 343.6 70.2 345.75 70.2 347.85 70.2 349.85 70.2 354.15 70.2 372.25 70.2 376.5 70.2 378.55 70.2 380.6 70.2 382.7 70.2 386.9 70.2 403.3 70.2 407.55 70.2 409.6 70.2 411.7 70.2 413.75 70.2 417.85
Q 71.8 418.7 73.45 419.6
L 73.45 417.95 73.45 413.75 73.45 411.7 73.45 409.6 73.45 407.55 73.45 403.3 73.45 386.9 73.45 382.7 73.45 380.6 73.45 378.55 73.45 376.5 73.45 372.25 73.45 354.15 73.45 349.85 73.45 347.85 73.45 345.75 73.45 343.6 73.45 339.5 73.45 320.5 73.45 316.25 73.45 314.3 73.45 312.15 73.45 310.05 73.45 305.8 73.45 286.8 73.45 282.65 73.45 280.6 73.45 278.45 73.45 276.35 73.45 272.25 73.45 270.35
M 161.15 275.8
Q 159.5 274.75 157.8 273.75
L 157.8 276.35 157.8 278.45 157.8 280.6 157.8 282.65 157.8 286.8 157.8 305.8 157.8 310.05 157.8 312.15 157.8 314.3 157.8 316.25 157.8 320.5 157.8 339.5 157.8 343.6 157.8 345.75 157.8 347.85 157.8 349.85 157.8 354.15 157.8 372.25 157.8 376.5 157.8 378.55 157.8 380.6 157.8 382.7 157.8 386.9 157.8 403.3 157.8 407.55 157.8 409.6 157.8 411.7 157.8 413.75 157.8 417.25
Q 159.5 416.4 161.15 415.5
L 161.15 413.75 161.15 411.7 161.15 409.6 161.15 407.55 161.15 403.3 161.15 386.9 161.15 383.45 161.15 339.2 161.15 333.3 161.15 320.5 161.15 316.25 161.15 314.3 161.15 312.15 161.15 310.05 161.15 305.8 161.15 286.8 161.15 282.65 161.15 280.6 161.15 278.45 161.15 276.35 161.15 275.8
M 125.7 254.9
L 122.45 254.9 122.45 272.25 122.45 276.35 122.45 278.45 122.45 280.6 122.45 282.65 122.45 286.8 122.45 290.6
Q 122.9 291.15 123.25 291.45 124.55 289.75 125.7 288.4
L 125.7 286.8 125.7 282.65 125.7 280.6 125.7 278.45 125.7 276.35 125.7 272.25 125.7 254.9
M 145.05 267.3
Q 143.4 266.55 141.8 266
L 141.8 272.25 141.8 276.35 141.8 278.45 141.8 280.6 141.8 282.65 141.8 286.8 141.8 305.8 141.8 310.05 141.8 312.15 141.8 314.3 141.8 316.25 141.8 320.5 141.8 339.5 141.8 343.6 141.8 345.75 141.8 347.85 141.8 349.85 141.8 354.15 141.8 372.25 141.8 376.5 141.8 378.55 141.8 380.6 141.8 382.7 141.8 386.9 141.8 403.3 141.8 407.55 141.8 409.6 141.8 411.7 141.8 413.75 141.8 417.95 141.8 424.1
Q 143.45 423.55 145.05 423
L 145.05 417.95 145.05 413.75 145.05 411.7 145.05 409.6 145.05 407.55 145.05 403.3 145.05 386.9 145.05 382.7 145.05 380.6 145.05 378.55 145.05 376.5 145.05 372.25 145.05 354.15 145.05 349.85 145.05 347.85 145.05 345.75 145.05 343.6 145.05 339.5 145.05 320.5 145.05 316.25 145.05 314.3 145.05 312.15 145.05 310.05 145.05 305.8 145.05 286.8 145.05 282.65 145.05 280.6 145.05 278.45 145.05 276.35 145.05 272.25 145.05 267.3
M 107.95 292.2
Q 107.2 293.85 106.4 294.8
L 106.4 305.8 106.4 310.05 106.4 312.15 106.4 314.3 106.4 316.25 106.4 320.5 106.4 339.5 106.4 343.6 106.4 345.75 106.4 347.85 106.4 349.85 106.4 354.15 106.4 372.25 106.4 376.5 106.4 378.55 106.4 380.6 106.4 382.7 106.4 386.9 106.4 403.3 106.4 407.55 106.4 409.6 106.4 411.7 106.4 413.75 106.4 417.95 106.4 428.95
Q 107.2 428.95 107.95 429.1 108.85 429.1 109.7 429.15
L 109.7 417.95 109.7 413.75 109.7 411.7 109.7 409.6 109.7 407.55 109.7 403.3 109.7 386.9 109.7 382.7 109.7 380.6 109.7 378.55 109.7 376.5 109.7 372.25 109.7 354.15 109.7 349.85 109.7 347.85 109.7 345.75 109.7 343.6 109.7 339.5 109.7 320.5 109.7 316.25 109.7 314.3 109.7 312.15 109.7 310.05 109.7 305.8 109.7 287.7
Q 109.4 288.65 109 289.75 108.45 291.15 107.95 292.2
M 89.2 264.4
Q 87.75 264.85 86.2 265.3
L 86.2 272.25 86.2 276.35 86.2 278.45 86.2 280.6 86.2 282.65 86.2 286.8 86.2 305.8 86.2 310.05 86.2 312.15 86.2 314.3 86.2 316.25 86.2 320.5 86.2 339.5 86.2 343.6 86.2 345.75 86.2 347.85 86.2 349.85 86.2 354.15 86.2 372.25 86.2 376.5 86.2 378.55 86.2 380.6 86.2 382.7 86.2 386.9 86.2 403.3 86.2 407.55 86.2 409.6 86.2 411.7 86.2 413.75 86.2 417.95 86.2 424.85
Q 87.9 425.4 89.55 425.9
L 89.55 417.95 89.55 413.75 89.55 411.7 89.55 409.6 89.55 407.55 89.55 403.3 89.55 386.9 89.55 382.7 89.55 380.6 89.55 378.55 89.55 376.5 89.55 372.25 89.55 354.15 89.55 349.85 89.55 347.85 89.55 345.75 89.55 343.6 89.55 339.5 89.55 320.5 89.55 316.25 89.55 314.3 89.55 312.15 89.55 310.05 89.55 305.8 89.55 286.8 89.55 282.65 89.55 281.35
Q 87.6 276.7 87.6 272.25 87.6 270.4 88.05 268.15 88.5 265.95 89.2 264.4
M 89.55 264.35
Q 89.5 264.35 89.4 264.4
L 89.55 264.4 89.55 264.35
M 109.7 254.9
L 106.4 254.9 106.4 272.25 106.4 276.35 106.4 278.45 106.4 280.6 106.4 282.65 106.4 286.8 106.4 287.8
Q 107.1 286.05 107.95 284.25 108.6 282.8 109.3 281.2 109.45 280.9 109.7 280.6
L 109.7 280.5 109.7 278.45 109.7 276.35 109.7 272.25 109.7 254.9 Z"/>

<path fill="#FFEAD5" stroke="none" d="
M 161.25 339.5
Q 161.153125 339.30625 161.15 339.2
L 161.15 383.45
Q 161.3 384 161.4 384.55
L 161.3 384.55
Q 161.3 384.85 161.4 385.2 161.7 387.85 161.9 390.4 163.05 400.3 163.65 405.1 164.25 409.95 164.35 415.2 164.35 415.35 164.35 415.6 164.35 420 162.7 423 161 426.05 161.45 430.85 161.9 435.55 161.45 442.3 161.15 448.55 161 448.7 164.1 447.85 164.5 447.55 165.4 446.55 167.6 440.65 169.2 444.75 172.65 449.15 175.3 452.85 178.8 453.4 178.85 453 178.95 452.55 179 451.65 179.1 450.45 179.25 446.8 179.3 444.95 179.4 444.15 179.45 443.7 179.6 442.1 179.55 436.45 179.55 430.7 178.1 423.85 176.75 416.95 177.65 402 178.45 386.95 178.7 384.85 178.85 382.7 177.5 364.05 176.75 354.15 176.5 346.5 175.05 346.2 172.8 346.5 170.6 346.65 166.1 343.75 162.2 341.25 161.4 339.8 161.3 339.6 161.25 339.5
M 60.05 343.15
Q 55.55 346.05 53.25 345.8 51.05 345.65 49.55 345.95 49.4 353.65 48.65 363.4 47.25 382.15 47.4 384.3 47.6 386.45 48.5 401.4 49.4 416.4 48.05 423.25 46.6 430.15 46.5 435.85 46.5 441.55 46.65 443.15 46.75 443.6 46.75 444.35 46.9 446.25 47.05 449.9 47.05 450.95 47.2 452.05 47.2 452.4 47.35 452.85 50.75 452.25 53.5 448.6 56.85 444.15 58.5 440.1 60.65 445.95 61.6 446.95 62 447.25 65.1 448.15 65.05 448.1 64.9 446.25 62.85 445.2 61.95 442.75 61.1 440.4 61.1 434.2 61.1 431.85 63.6 430.6 64.2 430.3 64.6 430.15
L 64.65 430.25
Q 64.65 430.15 64.65 430.1 66.1 429.35 65.85 428.85 65.65 428.5 64.75 428.8 64.8 424.9 63.45 422.5 61.95 419.6 61.85 415.6 61.7515625 415.35390625 61.75 415.3
L 61.75 416.85
Q 60.85 415.65 60.05 417.1 59.9 417.35 59.8 417.5 59.7 417.55 59.65 417.8
L 59.55 417.55
Q 59.05 417.7 58 417.8 55.3 417.95 54.55 416.8 53.8 415.5 53.55 415.6 58 407.85 60.1 402.3 63.15 394.1 64.95 382.7
L 64.95 380.6 64.95 378.55 64.95 376.5 64.95 372.25 64.95 354.15 64.95 349.85 64.95 347.85 64.95 345.75 64.95 343.6 64.95 339.5 64.95 338.65
Q 64.5 340.25 60.05 343.15 Z"/>

<path fill="#FF9900" stroke="none" d="
M 161.85 316.25
Q 161.55 318.4 161.45 320.5 161.4 321.45 161.4 322.25
L 161.4 333.45
Q 168.05 338.65 173.6 338.35 175.05 338.3 176.5 337.85
L 176.5 337.9
Q 177.25 337.6 178 337.25 179.55 336.4 181.05 335.25 183.1 333.9 185.3 332.15 184.95 332.15 184.25 332.15 182.5 332.15 181.05 332.05 179.3 332.05 178 332 176.8 332 176.05 331.9 175.35 331.7 174.7 331.6 172.4 331.15 170.95 330.15 169.05 328.95 167.45 326 166.4 324.25 164.9 320.5 164.35 319.3 163.8 318
L 163.8 316.25 163.8 314.3 163.8 312.15 163.8 310.05 163.8 305.8 163.6 305.8
Q 163.05 307.9 162.7 310.05 162.55 311.05 162.4 312.15 162.15 313.15 162.05 314.3 161.9 315.3 161.85 316.25
M 61.3 312.15
L 60.8 310.05 59.65 305.8 58.95 305.8
Q 59.05 307 59.25 308.3 59.35 309.2 59.5 310.05 59.55 311.1 59.7 312.15 59.8 313.25 59.95 314.3 60.05 315.35 60.2 316.25 60.4 318.85 60.4 319.85 60.4 320.15 60.4 320.5 60.2 329.7 52.5 331.45 51 331.7 49.25 331.75 48.85 331.75 48.55 331.75 47.4 331.75 46.05 331.45 44.85 331.1 43.3 330.3 43.1 330.15 42.85 330 42.7 329.95 42.65 329.95 40.8 328.85 39.55 328.2 39.3 328.05 39.05 327.95 38.55 327.65 38.15 327.5
L 37.8 328.55
Q 38.45 329.4 39.05 330 39.3 330.3 39.55 330.45 41.1 332.2 42.8 333.65 44.4 334.85 46.05 335.85 47.05 336.4 48.05 336.75 47.95 335.1 47.9 333.65 47.95 335.1 48.05 336.75 48.65 337 49.25 337.25 49.4 337.25 49.55 337.3 51.05 337.7 52.5 337.75 58.15 338.15 64.95 332.65
L 64.95 326 63.5 320.5 62.4 316.25 61.85 314.3 61.3 312.15
M 89.4 264.4
Q 89.35 264.4 89.2 264.4 88.5 265.95 88.05 268.15 87.6 270.4 87.6 272.25 87.6 276.7 89.55 281.35 89.85 281.95 90.15 282.65 91.15 284.7 92.6 286.8 93.05 287.5 93.45 288.05 99.2 296 104.5 296 105.45 296 106.4 294.8 107.2 293.85 107.95 292.2 108.45 291.15 109 289.75 109.4 288.65 109.7 287.7
L 109.7 286.8 110 286.8
Q 110.95 283.75 111.35 282.65 111.5 282.35 111.5 282.1 111.95 282.35 112.5 282.65
L 112.7 282.65 112.7 282.85
Q 114.25 283.75 115.9 286.05
L 115.9 429.1
Q 117.1 429.1 118.25 428.95
L 118.25 289.55
Q 118.55 289.9 118.8 290.4 119.1 290.85 119.35 291.3 121.15 294.35 121.7 295.15 122.15 295.7 122.45 296.05 123.45 297.2 124.1 297.2 124.95 297.2 125.7 296.9 129.65 295.45 133.05 286.8 133.35 285.9 133.75 284.9 134.2 283.75 134.5 282.65 134.9 281.65 135.1 280.6 135.4 279.6 135.75 278.45 135.95 277.45 136.25 276.35 136.35 276.1 136.4 275.8 136.85 273.7 137.1 272.25 137.25 270.95 137.25 270.2 137.6 266.9 137.55 265.7 137.55 265.1 137.3 264.5 136.5 264.25 135.75 264.05 135.95 265.3 135.95 266.9 135.95 269.5 135.25 272.25 134.65 274.3 133.75 276.35 133.2 277.45 132.7 278.45 132.1 279.6 131.45 280.6 131.15 281.05 130.85 281.55 130.55 282.05 130.2 282.65 128.9 284.45 127 286.8 126.4 287.65 125.7 288.4 124.55 289.75 123.25 291.45 122.9 291.15 122.45 290.6 121.6 289.4 120.25 286.8
L 119.35 286.8 119.35 285.15
Q 118.85 284.3 118.4 283.4 116.95 280.6 115.9 278.85 114.25 276.2 113.4 275.9 113.1 275.9 112.7 276.1
L 112.7 276.35 112.25 276.35
Q 111.6 277 110.75 278.45 110.2 279.3 109.7 280.5
L 109.7 280.6
Q 109.45 280.9 109.3 281.2 108.6 282.8 107.95 284.25 107.1 286.05 106.4 287.8 105.65 289.7 105 291.45 101.8 289.55 99.05 286.8 97.15 285 95.55 282.65 94.9 281.65 94.2 280.6 94.1 280.45 93.95 280.2 93.5 279.3 93.05 278.45 92.45 277.4 92 276.35 90.95 274.15 90.55 272.25 90 270.05 90.25 268.3 90.95 263.95 91.3 263.9 90.4 264.05 89.55 264.35
L 89.55 264.4 89.4 264.4 Z"/>
</g>

<g id="Layer0_0_MEMBER_0_MEMBER_1_MEMBER_0_FILL">
<path fill="#999900" stroke="none" d="
M 81.3 348.9
Q 81.75 349.05 82.2 349.15
L 82.2 348.4 81.3 348.4 81.3 348.9
M 88.05 349.6
L 88.05 348.4 83.1 348.4 83.1 349.35 83.1 349.6 84.3 349.6 88.05 349.6
M 89.85 348.4
L 88.95 348.4 88.95 349.6 89.85 349.6 89.85 348.4
M 93.65 348.4
L 93.65 349.05
Q 94.8 348.75 96 348.4
L 93.65 348.4
M 91.75 348.4
L 91.75 349.55 91.75 349.6 92.7 349.6 92.7 349.3 92.7 348.4 91.75 348.4
M 102.95 342.4
L 102 342.4 102 343.6 102.6 343.6 102.95 343.6 102.95 342.4
M 102.95 339.35
L 102 339.35 102 340.55 102.95 340.55 102.95 339.35
M 102 332.9
L 102 334.1 102.95 334.1 102.95 332.9 102 332.9
M 102.95 329.85
L 102 329.85 102 331.1 102.95 331.1 102.95 329.85
M 102.95 324.3
L 102.95 323.1 102 323.1 102 324.3 102.95 324.3
M 98.3 339.35
L 93.65 339.35 93.65 340.55 98.3 340.55 98.3 339.35
M 100.1 342.4
L 99.3 342.4 99.3 343.6 100.1 343.6 100.1 342.4
M 93.65 342.4
L 93.65 343.6 98.3 343.6 98.3 342.4 93.65 342.4
M 92.7 342.4
L 91.75 342.4 91.75 343.6 92.7 343.6 92.7 342.4
M 92.7 339.35
L 91.75 339.35 91.75 340.55 92.7 340.55 92.7 339.35
M 100.1 339.35
L 99.3 339.35 99.3 340.55 100.1 340.55 100.1 339.35
M 83.1 340.55
L 88.05 340.55 88.05 339.35 83.1 339.35 83.1 340.55
M 89.85 342.4
L 88.95 342.4 88.95 343.6 89.85 343.6 89.85 342.4
M 83.1 342.4
L 83.1 343.6 88.05 343.6 88.05 342.4 83.1 342.4
M 82.2 342.4
L 81.3 342.4 81.3 343.6 82.2 343.6 82.2 342.4
M 82.2 339.35
L 81.3 339.35 81.3 340.55 82.2 340.55 82.2 339.35
M 89.85 339.35
L 88.95 339.35 88.95 340.55 89.85 340.55 89.85 339.35
M 88.95 332.9
L 88.95 334.1 89.85 334.1 89.85 332.9 88.95 332.9
M 89.85 329.85
L 88.95 329.85 88.95 331.1 89.85 331.1 89.85 329.85
M 83.1 329.85
L 83.1 331.1 88.05 331.1 88.05 329.85 83.1 329.85
M 83.1 332.9
L 83.1 334.1 88.05 334.1 88.05 332.9 83.1 332.9
M 82.2 334.1
L 82.2 332.9 81.3 332.9 81.3 334.1 82.2 334.1
M 82.2 329.85
L 81.3 329.85 81.3 331.1 82.2 331.1 82.2 329.85
M 82.2 323.1
L 81.3 323.1 81.3 324.3 82.2 324.3 82.2 323.1
M 88.05 324.3
L 88.05 323.1 83.1 323.1 83.1 324.3 88.05 324.3
M 89.85 323.1
L 88.95 323.1 88.95 324.3 89.85 324.3 89.85 323.1
M 99.3 332.9
L 99.3 334.1 100.1 334.1 100.1 332.9 99.3 332.9
M 100.1 329.85
L 99.3 329.85 99.3 331.1 100.1 331.1 100.1 329.85
M 93.65 329.85
L 93.65 331.1 98.3 331.1 98.3 329.85 93.65 329.85
M 93.65 332.9
L 93.65 334.1 98.3 334.1 98.3 332.9 93.65 332.9
M 91.75 332.9
L 91.75 334.1 92.7 334.1 92.7 332.9 91.75 332.9
M 92.7 329.85
L 91.75 329.85 91.75 331.1 92.7 331.1 92.7 329.85
M 91.75 323.1
L 91.75 324.3 92.7 324.3 92.7 323.1 91.75 323.1
M 98.3 324.3
L 98.3 323.1 93.65 323.1 93.65 324.3 98.3 324.3
M 100.1 323.1
L 99.3 323.1 99.3 324.3 100.1 324.3 100.1 323.1
M 100.1 321.35
L 100.1 320.05 99.3 320.05 99.3 321.35 100.1 321.35
M 93.65 320.05
L 93.65 321.35 98.3 321.35 98.3 320.05 93.65 320.05
M 91.75 320.05
L 91.75 321.35 92.7 321.35 92.7 320.05 91.75 320.05
M 88.95 321.35
L 89.85 321.35 89.85 320.05 88.95 320.05 88.95 321.35
M 83.1 320.05
L 83.1 321.35 88.05 321.35 88.05 320.05 83.1 320.05
M 82.2 321.35
L 82.2 320.05 81.3 320.05 81.3 321.35 82.2 321.35
M 102 321.35
L 102.95 321.35 102.95 320.05 102.6 320.05 102 320.05 102 321.35
M 77.5 339.35
L 73.45 339.35 73.45 340.55 77.5 340.55 77.5 339.35
M 79.4 342.4
L 78.5 342.4 78.5 343.6 79.4 343.6 79.4 342.4
M 73.45 342.4
L 73.45 343.6 77.5 343.6 77.5 342.4 73.45 342.4
M 79.4 339.35
L 78.5 339.35 78.5 340.55 79.4 340.55 79.4 339.35
M 79.4 334.1
L 79.4 332.9 78.5 332.9 78.5 334.1 79.4 334.1
M 79.4 329.85
L 78.5 329.85 78.5 331.1 79.4 331.1 79.4 329.85
M 73.45 329.85
L 73.45 331.1 77.5 331.1 77.5 329.85 73.45 329.85
M 73.45 332.9
L 73.45 334.1 77.5 334.1 77.5 332.9 73.45 332.9
M 77.5 324.3
L 77.5 323.1 73.45 323.1 73.45 324.3 77.5 324.3
M 79.4 323.1
L 78.5 323.1 78.5 324.3 79.4 324.3 79.4 323.1
M 78.5 321.35
L 79.4 321.35 79.4 320.05 78.5 320.05 78.5 321.35
M 73.45 320.05
L 73.45 321.35 77.5 321.35 77.5 320.05 73.45 320.05 Z"/>

<path fill="#FFCC00" stroke="none" d="
M 89.85 349.75
L 89.85 349.6 88.95 349.6 88.95 349.85
Q 89.4 349.85 89.85 349.75
M 88.05 349.85
L 88.05 349.6 84.3 349.6
Q 86.15 349.9 88.05 349.85
M 102.6 345.1
L 102.6 343.6 102 343.6 102 345.5
Q 102.3 345.35 102.6 345.1
M 102.95 341.8
L 102 341.8 102 342.4 102.95 342.4 102.95 341.8
M 102.95 341.15
L 102.95 340.55 102 340.55 102 341.15 102.95 341.15
M 102.95 334.1
L 102 334.1 102 339.35 102.95 339.35 102.95 334.1
M 102 332.9
L 102.95 332.9 102.95 332.3 102 332.3 102 332.9
M 102.95 331.7
L 102.95 331.1 102 331.1 102 331.7 102.95 331.7
M 102.95 324.3
L 102 324.3 102 329.85 102.95 329.85 102.95 324.3
M 102.95 323.1
L 102.95 322.55 102 322.55 102 323.1 102.95 323.1
M 98.3 343.6
L 93.65 343.6 93.65 348.4 96 348.4
Q 97.15 348 98.3 347.5
L 98.3 343.6
M 100.1 343.6
L 99.3 343.6 99.3 347
Q 99.65 346.8 100.1 346.55
L 100.1 343.6
M 100.1 341.8
L 99.3 341.8 99.3 342.4 100.1 342.4 100.1 341.8
M 100.1 341.15
L 100.1 340.55 99.3 340.55 99.3 341.15 100.1 341.15
M 92.7 343.6
L 91.75 343.6 91.75 348.4 92.7 348.4 92.7 343.6
M 93.65 341.8
L 93.65 342.4 98.3 342.4 98.3 341.8 93.65 341.8
M 92.7 342.4
L 92.7 341.8 91.75 341.8 91.75 342.4 92.7 342.4
M 93.65 340.55
L 93.65 341.15 98.3 341.15 98.3 340.55 93.65 340.55
M 92.7 341.15
L 92.7 340.55 91.75 340.55 91.75 341.15 92.7 341.15
M 88.05 343.6
L 83.1 343.6 83.1 348.4 88.05 348.4 88.05 343.6
M 89.85 343.6
L 88.95 343.6 88.95 348.4 89.85 348.4 89.85 343.6
M 89.85 341.8
L 88.95 341.8 88.95 342.4 89.85 342.4 89.85 341.8
M 88.95 340.55
L 88.95 341.15 89.85 341.15 89.85 340.55 88.95 340.55
M 82.2 343.6
L 81.3 343.6 81.3 348.4 82.2 348.4 82.2 343.6
M 83.1 341.8
L 83.1 342.4 88.05 342.4 88.05 341.8 83.1 341.8
M 82.2 341.8
L 81.3 341.8 81.3 342.4 82.2 342.4 82.2 341.8
M 81.3 340.55
L 81.3 341.15 82.2 341.15 82.2 340.55 81.3 340.55
M 83.1 340.55
L 83.1 341.15 88.05 341.15 88.05 340.55 83.1 340.55
M 88.05 334.1
L 83.1 334.1 83.1 339.35 88.05 339.35 88.05 334.1
M 83.1 329.85
L 88.05 329.85 88.05 324.3 83.1 324.3 83.1 329.85
M 89.85 334.1
L 88.95 334.1 88.95 339.35 89.85 339.35 89.85 334.1
M 89.85 332.3
L 88.95 332.3 88.95 332.9 89.85 332.9 89.85 332.3
M 89.85 331.1
L 88.95 331.1 88.95 331.7 89.85 331.7 89.85 331.1
M 83.1 332.3
L 83.1 332.9 88.05 332.9 88.05 332.3 83.1 332.3
M 82.2 334.1
L 81.3 334.1 81.3 339.35 82.2 339.35 82.2 334.1
M 82.2 331.1
L 81.3 331.1 81.3 331.7 82.2 331.7 82.2 331.1
M 82.2 332.3
L 81.3 332.3 81.3 332.9 82.2 332.9 82.2 332.3
M 83.1 331.1
L 83.1 331.7 88.05 331.7 88.05 331.1 83.1 331.1
M 82.2 324.3
L 81.3 324.3 81.3 329.85 82.2 329.85 82.2 324.3
M 82.2 322.55
L 81.3 322.55 81.3 323.1 82.2 323.1 82.2 322.55
M 88.05 323.1
L 88.05 322.55 83.1 322.55 83.1 323.1 88.05 323.1
M 89.85 324.3
L 88.95 324.3 88.95 329.85 89.85 329.85 89.85 324.3
M 89.85 323.1
L 89.85 322.55 88.95 322.55 88.95 323.1 89.85 323.1
M 98.3 329.85
L 98.3 324.3 93.65 324.3 93.65 329.85 98.3 329.85
M 98.3 334.1
L 93.65 334.1 93.65 339.35 98.3 339.35 98.3 334.1
M 100.1 334.1
L 99.3 334.1 99.3 339.35 100.1 339.35 100.1 334.1
M 100.1 332.9
L 100.1 332.3 99.3 332.3 99.3 332.9 100.1 332.9
M 100.1 331.7
L 100.1 331.1 99.3 331.1 99.3 331.7 100.1 331.7
M 92.7 332.9
L 92.7 332.3 91.75 332.3 91.75 332.9 92.7 332.9
M 93.65 332.3
L 93.65 332.9 98.3 332.9 98.3 332.3 93.65 332.3
M 92.7 334.1
L 91.75 334.1 91.75 339.35 92.7 339.35 92.7 334.1
M 92.7 331.7
L 92.7 331.1 91.75 331.1 91.75 331.7 92.7 331.7
M 93.65 331.1
L 93.65 331.7 98.3 331.7 98.3 331.1 93.65 331.1
M 92.7 324.3
L 91.75 324.3 91.75 329.85 92.7 329.85 92.7 324.3
M 92.7 323.1
L 92.7 322.55 91.75 322.55 91.75 323.1 92.7 323.1
M 98.3 323.1
L 98.3 322.55 93.65 322.55 93.65 323.1 98.3 323.1
M 100.1 324.3
L 99.3 324.3 99.3 329.85 100.1 329.85 100.1 324.3
M 100.1 323.1
L 100.1 322.55 99.3 322.55 99.3 323.1 100.1 323.1
M 98.3 321.35
L 93.65 321.35 93.65 321.9 98.3 321.9 98.3 321.35
M 98.3 314.9
Q 95.85 315.05 93.65 315.2
L 93.65 320.05 98.3 320.05 98.3 314.9
M 100.1 321.35
L 99.3 321.35 99.3 321.9 100.1 321.9 100.1 321.35
M 91.75 320.05
L 92.7 320.05 92.7 315.2 91.75 320.05
M 92.7 321.35
L 91.75 321.35 91.75 321.9 92.7 321.9 92.7 321.35
M 99.3 314.85
Q 99.65 314.85 100.1 314.85
L 100.1 314.6 99.3 314.6 99.3 314.85
M 100.1 314.85
Q 99.65 314.85 99.3 314.85
L 99.3 320.05 100.1 320.05 100.1 314.85
M 88.05 321.35
L 83.1 321.35 83.1 321.9 88.05 321.9 88.05 321.35
M 88.05 320.05
L 88.05 315.35
Q 85.45 315.35 83.1 315.35
L 83.1 320.05 88.05 320.05
M 89.85 321.35
L 88.95 321.35 88.95 321.9 89.85 321.9 89.85 321.35
M 82.2 321.35
L 81.3 321.35 81.3 321.9 82.2 321.9 82.2 321.35
M 82.2 315.3
Q 81.75 315.3 81.3 315.3
L 81.3 320.05 82.2 320.05 82.2 315.3
M 89.85 315.3
Q 89.4 315.35 88.95 315.35
L 88.95 320.05 89.85 320.05 89.85 315.3
M 102.95 321.35
L 102 321.35 102 321.9 102.95 321.9 102.95 321.35
M 102.6 314.6
L 102.55 314.6
Q 102.28125 314.60625 102 314.7
L 102 320.05 102.6 320.05 102.6 314.6
M 102 314.6
L 102 314.7
Q 102.28125 314.60625 102.55 314.6
L 102 314.6
M 79.4 343.6
L 78.5 343.6 78.5 347.95
Q 78.95 348.1 79.4 348.25
L 79.4 343.6
M 78.5 341.15
L 79.4 341.15 79.4 340.55 78.5 340.55 78.5 341.15
M 79.4 341.8
L 78.5 341.8 78.5 342.4 79.4 342.4 79.4 341.8
M 73.45 343.6
L 73.45 345.1
Q 75.45 346.5 77.5 347.5
L 77.5 343.6 73.45 343.6
M 73.45 341.8
L 73.45 342.4 77.5 342.4 77.5 341.8 73.45 341.8
M 73.45 340.55
L 73.45 341.15 77.5 341.15 77.5 340.55 73.45 340.55
M 77.5 334.1
L 73.45 334.1 73.45 339.35 77.5 339.35 77.5 334.1
M 73.45 329.85
L 77.5 329.85 77.5 324.3 73.45 324.3 73.45 329.85
M 79.4 334.1
L 78.5 334.1 78.5 339.35 79.4 339.35 79.4 334.1
M 79.4 332.3
L 78.5 332.3 78.5 332.9 79.4 332.9 79.4 332.3
M 79.4 331.7
L 79.4 331.1 78.5 331.1 78.5 331.7 79.4 331.7
M 73.45 331.1
L 73.45 331.7 77.5 331.7 77.5 331.1 73.45 331.1
M 73.45 332.3
L 73.45 332.9 77.5 332.9 77.5 332.3 73.45 332.3
M 77.5 323.1
L 77.5 322.55 73.45 322.55 73.45 323.1 77.5 323.1
M 79.4 324.3
L 78.5 324.3 78.5 329.85 79.4 329.85 79.4 324.3
M 79.4 322.55
L 78.5 322.55 78.5 323.1 79.4 323.1 79.4 322.55
M 77.5 321.35
L 73.45 321.35 73.45 321.9 77.5 321.9 77.5 321.35
M 73.45 314.6
L 73.45 320.05 77.5 320.05 77.5 315.05
Q 75.35 314.9 73.45 314.6
M 79.4 321.35
L 78.5 321.35 78.5 321.9 79.4 321.9 79.4 321.35
M 79.4 315.2
Q 78.95 315.15 78.5 315.15
L 78.5 320.05 79.4 320.05 79.4 315.2 Z"/>

<path fill="#CCFF00" stroke="none" d="
M 102.95 341.8
L 102.95 341.15 102 341.15 102 341.8 102.95 341.8
M 102.95 332.3
L 102.95 331.7 102 331.7 102 332.3 102.95 332.3
M 102.95 322.55
L 102.95 321.9 102 321.9 102 322.55 102.95 322.55
M 100.1 341.8
L 100.1 341.15 99.3 341.15 99.3 341.8 100.1 341.8
M 92.7 341.8
L 92.7 341.15 91.75 341.15 91.75 341.8 92.7 341.8
M 93.65 341.15
L 93.65 341.8 98.3 341.8 98.3 341.15 93.65 341.15
M 89.85 341.8
L 89.85 341.15 88.95 341.15 88.95 341.8 89.85 341.8
M 82.2 341.8
L 82.2 341.15 81.3 341.15 81.3 341.8 82.2 341.8
M 83.1 341.15
L 83.1 341.8 88.05 341.8 88.05 341.15 83.1 341.15
M 88.95 332.3
L 89.85 332.3 89.85 331.7 88.95 331.7 88.95 332.3
M 81.3 332.3
L 82.2 332.3 82.2 331.7 81.3 331.7 81.3 332.3
M 83.1 331.7
L 83.1 332.3 88.05 332.3 88.05 331.7 83.1 331.7
M 82.2 321.9
L 81.3 321.9 81.3 322.55 82.2 322.55 82.2 321.9
M 88.05 322.55
L 88.05 321.9 83.1 321.9 83.1 322.55 88.05 322.55
M 88.95 321.9
L 88.95 322.55 89.85 322.55 89.85 321.9 88.95 321.9
M 100.1 332.3
L 100.1 331.7 99.3 331.7 99.3 332.3 100.1 332.3
M 92.7 332.3
L 92.7 331.7 91.75 331.7 91.75 332.3 92.7 332.3
M 93.65 331.7
L 93.65 332.3 98.3 332.3 98.3 331.7 93.65 331.7
M 92.7 322.55
L 92.7 321.9 91.75 321.9 91.75 322.55 92.7 322.55
M 98.3 322.55
L 98.3 321.9 93.65 321.9 93.65 322.55 98.3 322.55
M 100.1 322.55
L 100.1 321.9 99.3 321.9 99.3 322.55 100.1 322.55
M 78.5 341.8
L 79.4 341.8 79.4 341.15 78.5 341.15 78.5 341.8
M 73.45 341.15
L 73.45 341.8 77.5 341.8 77.5 341.15 73.45 341.15
M 78.5 331.7
L 78.5 332.3 79.4 332.3 79.4 331.7 78.5 331.7
M 73.45 331.7
L 73.45 332.3 77.5 332.3 77.5 331.7 73.45 331.7
M 77.5 322.55
L 77.5 321.9 73.45 321.9 73.45 322.55 77.5 322.55
M 78.5 322.55
L 79.4 322.55 79.4 321.9 78.5 321.9 78.5 322.55 Z"/>

<path fill="#FF6600" fill-opacity="0.5019607843137255" stroke="none" d="
M 93.65 315.2
Q 93.15 315.2 92.7 315.2
L 92.7 320.05 92.7 321.35 92.7 321.9 92.7 322.55 92.7 323.1 92.7 324.3 92.7 329.85 92.7 331.1 92.7 331.7 92.7 332.3 92.7 332.9 92.7 334.1 92.7 339.35 92.7 340.55 92.7 341.15 92.7 341.8 92.7 342.4 92.7 343.6 92.7 348.4 92.7 349.3
Q 93.15 349.2 93.65 349.05
L 93.65 348.4 93.65 343.6 93.65 342.4 93.65 341.8 93.65 341.15 93.65 340.55 93.65 339.35 93.65 334.1 93.65 332.9 93.65 332.3 93.65 331.7 93.65 331.1 93.65 329.85 93.65 324.3 93.65 323.1 93.65 322.55 93.65 321.9 93.65 321.35 93.65 320.05 93.65 315.2
M 99.3 314.85
Q 98.75 314.9 98.3 314.9
L 98.3 320.05 98.3 321.35 98.3 321.9 98.3 322.55 98.3 323.1 98.3 324.3 98.3 329.85 98.3 331.1 98.3 331.7 98.3 332.3 98.3 332.9 98.3 334.1 98.3 339.35 98.3 340.55 98.3 341.15 98.3 341.8 98.3 342.4 98.3 343.6 98.3 347.5
Q 98.75 347.25 99.3 347
L 99.3 343.6 99.3 342.4 99.3 341.8 99.3 341.15 99.3 340.55 99.3 339.35 99.3 334.1 99.3 332.9 99.3 332.3 99.3 331.7 99.3 331.1 99.3 329.85 99.3 324.3 99.3 323.1 99.3 322.55 99.3 321.9 99.3 321.35 99.3 320.05 99.3 314.85
M 83.1 315.35
Q 82.65 315.35 82.2 315.3
L 82.2 320.05 82.2 321.35 82.2 321.9 82.2 322.55 82.2 323.1 82.2 324.3 82.2 329.85 82.2 331.1 82.2 331.7 82.2 332.3 82.2 332.9 82.2 334.1 82.2 339.35 82.2 340.55 82.2 341.15 82.2 341.8 82.2 342.4 82.2 343.6 82.2 348.4 82.2 349.15
Q 82.65 349.3 83.1 349.35
L 83.1 348.4 83.1 343.6 83.1 342.4 83.1 341.8 83.1 341.15 83.1 340.55 83.1 339.35 83.1 334.1 83.1 332.9 83.1 332.3 83.1 331.7 83.1 331.1 83.1 329.85 83.1 324.3 83.1 323.1 83.1 322.55 83.1 321.9 83.1 321.35 83.1 320.05 83.1 315.35
M 88.95 315.35
Q 88.5 315.35 88.05 315.35
L 88.05 320.05 88.05 321.35 88.05 321.9 88.05 322.55 88.05 323.1 88.05 324.3 88.05 329.85 88.05 331.1 88.05 331.7 88.05 332.3 88.05 332.9 88.05 334.1 88.05 339.35 88.05 340.55 88.05 341.15 88.05 341.8 88.05 342.4 88.05 343.6 88.05 348.4 88.05 349.6 88.05 349.85
Q 88.5 349.85 88.95 349.85
L 88.95 349.6 88.95 348.4 88.95 343.6 88.95 342.4 88.95 341.8 88.95 341.15 88.95 340.55 88.95 339.35 88.95 334.1 88.95 332.9 88.95 332.3 88.95 331.7 88.95 331.1 88.95 329.85 88.95 324.3 88.95 323.1 88.95 322.55 88.95 321.9 88.95 321.35 88.95 320.05 88.95 315.35
M 78.5 315.15
Q 78 315.05 77.5 315.05
L 77.5 320.05 77.5 321.35 77.5 321.9 77.5 322.55 77.5 323.1 77.5 324.3 77.5 329.85 77.5 331.1 77.5 331.7 77.5 332.3 77.5 332.9 77.5 334.1 77.5 339.35 77.5 340.55 77.5 341.15 77.5 341.8 77.5 342.4 77.5 343.6 77.5 347.5
Q 78 347.7 78.5 347.95
L 78.5 343.6 78.5 342.4 78.5 341.8 78.5 341.15 78.5 340.55 78.5 339.35 78.5 334.1 78.5 332.9 78.5 332.3 78.5 331.7 78.5 331.1 78.5 329.85 78.5 324.3 78.5 323.1 78.5 322.55 78.5 321.9 78.5 321.35 78.5 320.05 78.5 315.15 Z"/>

<path fill="#FFFF00" fill-opacity="0.5215686274509804" stroke="none" d="
M 89.85 320.05
L 89.85 321.35 89.85 321.9 89.85 322.55 89.85 323.1 89.85 324.3 89.85 329.85 89.85 331.1 89.85 331.7 89.85 332.3 89.85 332.9 89.85 334.1 89.85 339.35 89.85 340.55 89.85 341.15 89.85 341.8 89.85 342.4 89.85 343.6 89.85 348.4 89.85 349.6 89.85 349.75
Q 90.85 349.7 91.75 349.55
L 91.75 348.4 91.75 343.6 91.75 342.4 91.75 341.8 91.75 341.15 91.75 340.55 91.75 339.35 91.75 334.1 91.75 332.9 91.75 332.3 91.75 331.7 91.75 331.1 91.75 329.85 91.75 324.3 91.75 323.1 91.75 322.55 91.75 321.9 91.75 321.35 91.75 320.05 92.7 315.2
Q 90.8 315.3 89.85 315.3
L 89.85 320.05
M 102 321.35
L 102 320.05 102 314.7
Q 101.1 314.75 100.1 314.85
L 100.1 320.05 100.1 321.35 100.1 321.9 100.1 322.55 100.1 323.1 100.1 324.3 100.1 329.85 100.1 331.1 100.1 331.7 100.1 332.3 100.1 332.9 100.1 334.1 100.1 339.35 100.1 340.55 100.1 341.15 100.1 341.8 100.1 342.4 100.1 343.6 100.1 346.55
Q 101.1 346.1 102 345.5
L 102 343.6 102 342.4 102 341.8 102 341.15 102 340.55 102 339.35 102 334.1 102 332.9 102 332.3 102 331.7 102 331.1 102 329.85 102 324.3 102 323.1 102 322.55 102 321.9 102 321.35
M 79.4 320.05
L 79.4 321.35 79.4 321.9 79.4 322.55 79.4 323.1 79.4 324.3 79.4 329.85 79.4 331.1 79.4 331.7 79.4 332.3 79.4 332.9 79.4 334.1 79.4 339.35 79.4 340.55 79.4 341.15 79.4 341.8 79.4 342.4 79.4 343.6 79.4 348.25
Q 80.3 348.6 81.3 348.9
L 81.3 348.4 81.3 343.6 81.3 342.4 81.3 341.8 81.3 341.15 81.3 340.55 81.3 339.35 81.3 334.1 81.3 332.9 81.3 332.3 81.3 331.7 81.3 331.1 81.3 329.85 81.3 324.3 81.3 323.1 81.3 322.55 81.3 321.9 81.3 321.35 81.3 320.05 81.3 315.3
Q 80.3 315.2 79.4 315.2
L 79.4 320.05 Z"/>
</g>

<g id="Layer0_0_MEMBER_0_MEMBER_1_MEMBER_1_FILL">
<path fill="#999900" stroke="none" d="
M 133.45 347.55
L 133.45 348.1
Q 133.9 348.25 134.35 348.3
L 134.35 347.55 133.45 347.55
M 140.2 348.75
L 140.2 347.55 135.25 347.55 135.25 348.55 135.25 348.75 136.5 348.75 140.2 348.75
M 142.05 348.75
L 142.05 347.55 141.1 347.55 141.1 348.75 142.05 348.75
M 145.8 347.55
L 145.8 348.25
Q 146.95 347.95 148.2 347.55
L 145.8 347.55
M 144.85 348.75
L 144.85 348.45 144.85 347.55 143.95 347.55 143.95 348.7 143.95 348.75 144.85 348.75
M 155.1 342.75
L 155.1 341.55 154.2 341.55 154.2 342.75 154.8 342.75 155.1 342.75
M 155.1 339.75
L 155.1 338.5 154.2 338.5 154.2 339.75 155.1 339.75
M 151.45 341.55
L 151.45 342.75 152.3 342.75 152.3 341.55 151.45 341.55
M 144.85 342.75
L 144.85 341.55 143.95 341.55 143.95 342.75 144.85 342.75
M 145.8 341.55
L 145.8 342.75 150.45 342.75 150.45 341.55 145.8 341.55
M 143.95 339.75
L 144.85 339.75 144.85 338.5 143.95 338.5 143.95 339.75
M 150.45 339.75
L 150.45 338.5 145.8 338.5 145.8 339.75 150.45 339.75
M 151.45 338.5
L 151.45 339.75 152.3 339.75 152.3 338.5 151.45 338.5
M 145.8 332.05
L 145.8 333.3 150.45 333.3 150.45 332.05 145.8 332.05
M 143.95 332.05
L 143.95 333.3 144.85 333.3 144.85 332.05 143.95 332.05
M 144.85 330.25
L 144.85 329.05 143.95 329.05 143.95 330.25 144.85 330.25
M 145.8 329.05
L 145.8 330.25 150.45 330.25 150.45 329.05 145.8 329.05
M 144.85 323.5
L 144.85 322.25 143.95 322.25 143.95 323.5 144.85 323.5
M 150.45 323.5
L 150.45 322.25 145.8 322.25 145.8 323.5 150.45 323.5
M 154.2 332.05
L 154.2 333.3 155.1 333.3 155.1 332.05 154.2 332.05
M 152.3 333.3
L 152.3 332.05 151.45 332.05 151.45 333.3 152.3 333.3
M 152.3 330.25
L 152.3 329.05 151.45 329.05 151.45 330.25 152.3 330.25
M 155.1 330.25
L 155.1 329.05 154.2 329.05 154.2 330.25 155.1 330.25
M 152.3 323.5
L 152.3 322.25 151.45 322.25 151.45 323.5 152.3 323.5
M 155.1 323.5
L 155.1 322.25 154.2 322.25 154.2 323.5 155.1 323.5
M 141.1 341.55
L 141.1 342.75 142.05 342.75 142.05 341.55 141.1 341.55
M 134.35 342.75
L 134.35 341.55 133.45 341.55 133.45 342.75 134.35 342.75
M 135.25 341.55
L 135.25 342.75 140.2 342.75 140.2 341.55 135.25 341.55
M 133.45 338.5
L 133.45 339.75 134.35 339.75 134.35 338.5 133.45 338.5
M 141.1 338.5
L 141.1 339.75 142.05 339.75 142.05 338.5 141.1 338.5
M 140.2 339.75
L 140.2 338.5 135.25 338.5 135.25 339.75 140.2 339.75
M 131.55 341.55
L 130.65 341.55 130.65 342.75 131.55 342.75 131.55 341.55
M 125.65 341.55
L 125.65 342.75 129.65 342.75 129.65 341.55 125.65 341.55
M 130.65 339.75
L 131.55 339.75 131.55 338.5 130.65 338.5 130.65 339.75
M 129.65 339.75
L 129.65 338.5 125.65 338.5 125.65 339.75 129.65 339.75
M 131.55 332.05
L 130.65 332.05 130.65 333.3 131.55 333.3 131.55 332.05
M 131.55 329.05
L 130.65 329.05 130.65 330.25 131.55 330.25 131.55 329.05
M 125.65 332.05
L 125.65 333.3 129.65 333.3 129.65 332.05 125.65 332.05
M 125.65 329.05
L 125.65 330.25 129.65 330.25 129.65 329.05 125.65 329.05
M 129.65 323.5
L 129.65 322.25 125.65 322.25 125.65 323.5 129.65 323.5
M 131.55 322.25
L 130.65 322.25 130.65 323.5 131.55 323.5 131.55 322.25
M 141.1 332.05
L 141.1 333.3 142.05 333.3 142.05 332.05 141.1 332.05
M 141.1 329.05
L 141.1 330.25 142.05 330.25 142.05 329.05 141.1 329.05
M 135.25 332.05
L 135.25 333.3 140.2 333.3 140.2 332.05 135.25 332.05
M 133.45 332.05
L 133.45 333.3 134.35 333.3 134.35 332.05 133.45 332.05
M 134.35 330.25
L 134.35 329.05 133.45 329.05 133.45 330.25 134.35 330.25
M 135.25 329.05
L 135.25 330.25 140.2 330.25 140.2 329.05 135.25 329.05
M 134.35 323.5
L 134.35 322.25 133.45 322.25 133.45 323.5 134.35 323.5
M 141.1 322.25
L 141.1 323.5 142.05 323.5 142.05 322.25 141.1 322.25
M 140.2 323.5
L 140.2 322.25 135.25 322.25 135.25 323.5 140.2 323.5
M 135.25 319.25
L 135.25 320.5 140.2 320.5 140.2 319.25 135.25 319.25
M 133.45 319.25
L 133.45 320.5 134.35 320.5 134.35 319.25 133.45 319.25
M 131.55 319.25
L 130.65 319.25 130.65 320.5 131.55 320.5 131.55 319.25
M 125.65 319.25
L 125.65 320.5 129.65 320.5 129.65 319.25 125.65 319.25
M 154.2 319.25
L 154.2 320.5 155.1 320.5 155.1 319.25 154.8 319.25 154.2 319.25
M 151.45 319.25
L 151.45 320.5 152.3 320.5 152.3 319.25 151.45 319.25
M 145.8 319.25
L 145.8 320.5 150.45 320.5 150.45 319.25 145.8 319.25
M 143.95 319.25
L 143.95 320.5 144.85 320.5 144.85 319.25 143.95 319.25
M 142.05 320.5
L 142.05 319.25 141.1 319.25 141.1 320.5 142.05 320.5 Z"/>

<path fill="#FFCC00" stroke="none" d="
M 140.2 349
L 140.2 348.75 136.5 348.75
Q 138.3 349.05 140.2 349
M 142.05 348.9
L 142.05 348.75 141.1 348.75 141.1 349
Q 141.55 349 142.05 348.9
M 142.05 342.75
L 141.1 342.75 141.1 347.55 142.05 347.55 142.05 342.75
M 152.3 338.5
L 152.3 333.3 151.45 333.3 151.45 338.5 152.3 338.5
M 154.8 344.3
L 154.8 342.75 154.2 342.75 154.2 344.65
Q 154.5 344.5 154.8 344.3
M 155.1 341.55
L 155.1 340.95 154.2 340.95 154.2 341.55 155.1 341.55
M 155.1 339.75
L 154.2 339.75 154.2 340.35 155.1 340.35 155.1 339.75
M 151.45 339.75
L 151.45 340.35 152.3 340.35 152.3 339.75 151.45 339.75
M 150.45 342.75
L 145.8 342.75 145.8 347.55 148.2 347.55
Q 149.3 347.15 150.45 346.65
L 150.45 342.75
M 150.45 339.75
L 145.8 339.75 145.8 340.35 150.45 340.35 150.45 339.75
M 151.45 340.95
L 151.45 341.55 152.3 341.55 152.3 340.95 151.45 340.95
M 151.45 342.75
L 151.45 346.2
Q 151.8 345.95 152.3 345.75
L 152.3 342.75 151.45 342.75
M 144.85 342.75
L 143.95 342.75 143.95 347.55 144.85 347.55 144.85 342.75
M 144.85 341.55
L 144.85 340.95 143.95 340.95 143.95 341.55 144.85 341.55
M 145.8 340.95
L 145.8 341.55 150.45 341.55 150.45 340.95 145.8 340.95
M 144.85 339.75
L 143.95 339.75 143.95 340.35 144.85 340.35 144.85 339.75
M 150.45 333.3
L 145.8 333.3 145.8 338.5 150.45 338.5 150.45 333.3
M 145.8 323.5
L 145.8 329.05 150.45 329.05 150.45 323.5 145.8 323.5
M 144.85 333.3
L 143.95 333.3 143.95 338.5 144.85 338.5 144.85 333.3
M 145.8 331.45
L 145.8 332.05 150.45 332.05 150.45 331.45 145.8 331.45
M 143.95 331.45
L 143.95 332.05 144.85 332.05 144.85 331.45 143.95 331.45
M 144.85 330.85
L 144.85 330.25 143.95 330.25 143.95 330.85 144.85 330.85
M 145.8 330.25
L 145.8 330.85 150.45 330.85 150.45 330.25 145.8 330.25
M 144.85 323.5
L 143.95 323.5 143.95 329.05 144.85 329.05 144.85 323.5
M 144.85 322.25
L 144.85 321.75 143.95 321.75 143.95 322.25 144.85 322.25
M 150.45 322.25
L 150.45 321.75 145.8 321.75 145.8 322.25 150.45 322.25
M 152.3 329.05
L 152.3 323.5 151.45 323.5 151.45 329.05 152.3 329.05
M 155.1 333.3
L 154.2 333.3 154.2 338.5 155.1 338.5 155.1 333.3
M 152.3 332.05
L 152.3 331.45 151.45 331.45 151.45 332.05 152.3 332.05
M 154.2 331.45
L 154.2 332.05 155.1 332.05 155.1 331.45 154.2 331.45
M 152.3 330.85
L 152.3 330.25 151.45 330.25 151.45 330.85 152.3 330.85
M 155.1 330.85
L 155.1 330.25 154.2 330.25 154.2 330.85 155.1 330.85
M 155.1 323.5
L 154.2 323.5 154.2 329.05 155.1 329.05 155.1 323.5
M 152.3 322.25
L 152.3 321.75 151.45 321.75 151.45 322.25 152.3 322.25
M 155.1 322.25
L 155.1 321.75 154.2 321.75 154.2 322.25 155.1 322.25
M 141.1 333.3
L 141.1 338.5 142.05 338.5 142.05 333.3 141.1 333.3
M 141.1 339.75
L 141.1 340.35 142.05 340.35 142.05 339.75 141.1 339.75
M 135.25 340.35
L 140.2 340.35 140.2 339.75 135.25 339.75 135.25 340.35
M 140.2 342.75
L 135.25 342.75 135.25 347.55 140.2 347.55 140.2 342.75
M 141.1 340.95
L 141.1 341.55 142.05 341.55 142.05 340.95 141.1 340.95
M 134.35 342.75
L 133.45 342.75 133.45 347.55 134.35 347.55 134.35 342.75
M 135.25 340.95
L 135.25 341.55 140.2 341.55 140.2 340.95 135.25 340.95
M 134.35 341.55
L 134.35 340.95 133.45 340.95 133.45 341.55 134.35 341.55
M 134.35 339.75
L 133.45 339.75 133.45 340.35 134.35 340.35 134.35 339.75
M 129.65 339.75
L 125.65 339.75 125.65 340.35 129.65 340.35 129.65 339.75
M 131.55 342.75
L 130.65 342.75 130.65 347.1
Q 131.1 347.25 131.55 347.4
L 131.55 342.75
M 130.65 341.55
L 131.55 341.55 131.55 340.95 130.65 340.95 130.65 341.55
M 125.65 342.75
L 125.65 344.3
Q 127.6 345.65 129.65 346.65
L 129.65 342.75 125.65 342.75
M 125.65 340.95
L 125.65 341.55 129.65 341.55 129.65 340.95 125.65 340.95
M 131.55 339.75
L 130.65 339.75 130.65 340.35 131.55 340.35 131.55 339.75
M 129.65 333.3
L 125.65 333.3 125.65 338.5 129.65 338.5 129.65 333.3
M 125.65 323.5
L 125.65 329.05 129.65 329.05 129.65 323.5 125.65 323.5
M 131.55 333.3
L 130.65 333.3 130.65 338.5 131.55 338.5 131.55 333.3
M 131.55 331.45
L 130.65 331.45 130.65 332.05 131.55 332.05 131.55 331.45
M 131.55 330.25
L 130.65 330.25 130.65 330.85 131.55 330.85 131.55 330.25
M 125.65 331.45
L 125.65 332.05 129.65 332.05 129.65 331.45 125.65 331.45
M 125.65 330.25
L 125.65 330.85 129.65 330.85 129.65 330.25 125.65 330.25
M 131.55 323.5
L 130.65 323.5 130.65 329.05 131.55 329.05 131.55 323.5
M 129.65 322.25
L 129.65 321.75 125.65 321.75 125.65 322.25 129.65 322.25
M 131.55 321.75
L 130.65 321.75 130.65 322.25 131.55 322.25 131.55 321.75
M 141.1 323.5
L 141.1 329.05 142.05 329.05 142.05 323.5 141.1 323.5
M 135.25 323.5
L 135.25 329.05 140.2 329.05 140.2 323.5 135.25 323.5
M 140.2 333.3
L 135.25 333.3 135.25 338.5 140.2 338.5 140.2 333.3
M 141.1 331.45
L 141.1 332.05 142.05 332.05 142.05 331.45 141.1 331.45
M 141.1 330.25
L 141.1 330.85 142.05 330.85 142.05 330.25 141.1 330.25
M 134.35 333.3
L 133.45 333.3 133.45 338.5 134.35 338.5 134.35 333.3
M 135.25 331.45
L 135.25 332.05 140.2 332.05 140.2 331.45 135.25 331.45
M 133.45 331.45
L 133.45 332.05 134.35 332.05 134.35 331.45 133.45 331.45
M 135.25 330.25
L 135.25 330.85 140.2 330.85 140.2 330.25 135.25 330.25
M 134.35 330.85
L 134.35 330.25 133.45 330.25 133.45 330.85 134.35 330.85
M 134.35 323.5
L 133.45 323.5 133.45 329.05 134.35 329.05 134.35 323.5
M 134.35 322.25
L 134.35 321.75 133.45 321.75 133.45 322.25 134.35 322.25
M 141.1 321.75
L 141.1 322.25 142.05 322.25 142.05 321.75 141.1 321.75
M 140.2 322.25
L 140.2 321.75 135.25 321.75 135.25 322.25 140.2 322.25
M 140.2 319.25
L 140.2 314.5
Q 137.6 314.5 135.25 314.5
L 135.25 319.25 140.2 319.25
M 135.25 320.5
L 135.25 321.05 140.2 321.05 140.2 320.5 135.25 320.5
M 133.45 320.5
L 133.45 321.05 134.35 321.05 134.35 320.5 133.45 320.5
M 134.35 314.45
Q 133.9 314.45 133.45 314.45
L 133.45 319.25 134.35 319.25 134.35 314.45
M 125.65 313.75
L 125.65 319.25 129.65 319.25 129.65 314.2
Q 127.55 314.05 125.65 313.75
M 131.55 320.5
L 130.65 320.5 130.65 321.05 131.55 321.05 131.55 320.5
M 125.65 320.5
L 125.65 321.05 129.65 321.05 129.65 320.5 125.65 320.5
M 131.55 314.35
Q 131.1 314.3 130.65 314.3
L 130.65 319.25 131.55 319.25 131.55 314.35
M 154.2 320.5
L 154.2 321.05 155.1 321.05 155.1 320.5 154.2 320.5
M 154.75 313.75
Q 154.48125 313.75625 154.2 313.85
L 154.2 319.25 154.8 319.25 154.8 313.75 154.75 313.75
M 154.2 313.85
Q 154.48125 313.75625 154.75 313.75
L 154.2 313.75 154.2 313.85
M 142.05 319.25
L 142.05 314.45
Q 141.55 314.5 141.1 314.5
L 141.1 319.25 142.05 319.25
M 150.45 314.05
Q 148.05 314.2 145.8 314.35
L 145.8 319.25 150.45 319.25 150.45 314.05
M 151.45 314
L 151.45 319.25 152.3 319.25 152.3 314
Q 151.8 314 151.45 314
M 151.45 320.5
L 151.45 321.05 152.3 321.05 152.3 320.5 151.45 320.5
M 143.95 319.25
L 144.85 319.25 144.85 314.35 143.95 319.25
M 145.8 320.5
L 145.8 321.05 150.45 321.05 150.45 320.5 145.8 320.5
M 142.05 321.05
L 142.05 320.5 141.1 320.5 141.1 321.05 142.05 321.05
M 143.95 320.5
L 143.95 321.05 144.85 321.05 144.85 320.5 143.95 320.5
M 151.45 313.75
L 151.45 314
Q 151.8 314 152.3 314
L 152.3 313.75 151.45 313.75 Z"/>

<path fill="#CCFF00" stroke="none" d="
M 142.05 321.05
L 141.1 321.05 141.1 321.75 142.05 321.75 142.05 321.05
M 155.1 340.95
L 155.1 340.35 154.2 340.35 154.2 340.95 155.1 340.95
M 151.45 340.35
L 151.45 340.95 152.3 340.95 152.3 340.35 151.45 340.35
M 144.85 340.95
L 144.85 340.35 143.95 340.35 143.95 340.95 144.85 340.95
M 145.8 340.35
L 145.8 340.95 150.45 340.95 150.45 340.35 145.8 340.35
M 145.8 330.85
L 145.8 331.45 150.45 331.45 150.45 330.85 145.8 330.85
M 144.85 331.45
L 144.85 330.85 143.95 330.85 143.95 331.45 144.85 331.45
M 155.1 331.45
L 155.1 330.85 154.2 330.85 154.2 331.45 155.1 331.45
M 152.3 331.45
L 152.3 330.85 151.45 330.85 151.45 331.45 152.3 331.45
M 141.1 340.35
L 141.1 340.95 142.05 340.95 142.05 340.35 141.1 340.35
M 134.35 340.95
L 134.35 340.35 133.45 340.35 133.45 340.95 134.35 340.95
M 135.25 340.35
L 135.25 340.95 140.2 340.95 140.2 340.35 135.25 340.35
M 130.65 340.95
L 131.55 340.95 131.55 340.35 130.65 340.35 130.65 340.95
M 125.65 340.35
L 125.65 340.95 129.65 340.95 129.65 340.35 125.65 340.35
M 131.55 330.85
L 130.65 330.85 130.65 331.45 131.55 331.45 131.55 330.85
M 125.65 330.85
L 125.65 331.45 129.65 331.45 129.65 330.85 125.65 330.85
M 141.1 330.85
L 141.1 331.45 142.05 331.45 142.05 330.85 141.1 330.85
M 134.35 331.45
L 134.35 330.85 133.45 330.85 133.45 331.45 134.35 331.45
M 135.25 330.85
L 135.25 331.45 140.2 331.45 140.2 330.85 135.25 330.85
M 140.2 321.05
L 135.25 321.05 135.25 321.75 140.2 321.75 140.2 321.05
M 134.35 321.05
L 133.45 321.05 133.45 321.75 134.35 321.75 134.35 321.05
M 129.65 321.05
L 125.65 321.05 125.65 321.75 129.65 321.75 129.65 321.05
M 131.55 321.05
L 130.65 321.05 130.65 321.75 131.55 321.75 131.55 321.05
M 152.3 321.05
L 151.45 321.05 151.45 321.75 152.3 321.75 152.3 321.05
M 155.1 321.05
L 154.2 321.05 154.2 321.75 155.1 321.75 155.1 321.05
M 150.45 321.05
L 145.8 321.05 145.8 321.75 150.45 321.75 150.45 321.05
M 144.85 321.05
L 143.95 321.05 143.95 321.75 144.85 321.75 144.85 321.05 Z"/>

<path fill="#FF6600" fill-opacity="0.5019607843137255" stroke="none" d="
M 135.25 314.5
Q 134.8 314.5 134.35 314.45
L 134.35 319.25 134.35 320.5 134.35 321.05 134.35 321.75 134.35 322.25 134.35 323.5 134.35 329.05 134.35 330.25 134.35 330.85 134.35 331.45 134.35 332.05 134.35 333.3 134.35 338.5 134.35 339.75 134.35 340.35 134.35 340.95 134.35 341.55 134.35 342.75 134.35 347.55 134.35 348.3
Q 134.8 348.45 135.25 348.55
L 135.25 347.55 135.25 342.75 135.25 341.55 135.25 340.95 135.25 340.35 135.25 339.75 135.25 338.5 135.25 333.3 135.25 332.05 135.25 331.45 135.25 330.85 135.25 330.25 135.25 329.05 135.25 323.5 135.25 322.25 135.25 321.75 135.25 321.05 135.25 320.5 135.25 319.25 135.25 314.5
M 141.1 314.5
Q 140.65 314.5 140.2 314.5
L 140.2 319.25 140.2 320.5 140.2 321.05 140.2 321.75 140.2 322.25 140.2 323.5 140.2 329.05 140.2 330.25 140.2 330.85 140.2 331.45 140.2 332.05 140.2 333.3 140.2 338.5 140.2 339.75 140.2 340.35 140.2 340.95 140.2 341.55 140.2 342.75 140.2 347.55 140.2 348.75 140.2 349
Q 140.65 349 141.1 349
L 141.1 348.75 141.1 347.55 141.1 342.75 141.1 341.55 141.1 340.95 141.1 340.35 141.1 339.75 141.1 338.5 141.1 333.3 141.1 332.05 141.1 331.45 141.1 330.85 141.1 330.25 141.1 329.05 141.1 323.5 141.1 322.25 141.1 321.75 141.1 321.05 141.1 320.5 141.1 319.25 141.1 314.5
M 130.65 314.3
Q 130.2 314.2 129.65 314.2
L 129.65 319.25 129.65 320.5 129.65 321.05 129.65 321.75 129.65 322.25 129.65 323.5 129.65 329.05 129.65 330.25 129.65 330.85 129.65 331.45 129.65 332.05 129.65 333.3 129.65 338.5 129.65 339.75 129.65 340.35 129.65 340.95 129.65 341.55 129.65 342.75 129.65 346.65
Q 130.2 346.85 130.65 347.1
L 130.65 342.75 130.65 341.55 130.65 340.95 130.65 340.35 130.65 339.75 130.65 338.5 130.65 333.3 130.65 332.05 130.65 331.45 130.65 330.85 130.65 330.25 130.65 329.05 130.65 323.5 130.65 322.25 130.65 321.75 130.65 321.05 130.65 320.5 130.65 319.25 130.65 314.3
M 145.8 314.35
Q 145.3 314.35 144.85 314.35
L 144.85 319.25 144.85 320.5 144.85 321.05 144.85 321.75 144.85 322.25 144.85 323.5 144.85 329.05 144.85 330.25 144.85 330.85 144.85 331.45 144.85 332.05 144.85 333.3 144.85 338.5 144.85 339.75 144.85 340.35 144.85 340.95 144.85 341.55 144.85 342.75 144.85 347.55 144.85 348.45
Q 145.3 348.4 145.8 348.25
L 145.8 347.55 145.8 342.75 145.8 341.55 145.8 340.95 145.8 340.35 145.8 339.75 145.8 338.5 145.8 333.3 145.8 332.05 145.8 331.45 145.8 330.85 145.8 330.25 145.8 329.05 145.8 323.5 145.8 322.25 145.8 321.75 145.8 321.05 145.8 320.5 145.8 319.25 145.8 314.35
M 151.45 314
Q 150.9 314.05 150.45 314.05
L 150.45 319.25 150.45 320.5 150.45 321.05 150.45 321.75 150.45 322.25 150.45 323.5 150.45 329.05 150.45 330.25 150.45 330.85 150.45 331.45 150.45 332.05 150.45 333.3 150.45 338.5 150.45 339.75 150.45 340.35 150.45 340.95 150.45 341.55 150.45 342.75 150.45 346.65
Q 150.9 346.4 151.45 346.2
L 151.45 342.75 151.45 341.55 151.45 340.95 151.45 340.35 151.45 339.75 151.45 338.5 151.45 333.3 151.45 332.05 151.45 331.45 151.45 330.85 151.45 330.25 151.45 329.05 151.45 323.5 151.45 322.25 151.45 321.75 151.45 321.05 151.45 320.5 151.45 319.25 151.45 314 Z"/>

<path fill="#FFFF00" fill-opacity="0.5215686274509804" stroke="none" d="
M 131.55 320.5
L 131.55 321.05 131.55 321.75 131.55 322.25 131.55 323.5 131.55 329.05 131.55 330.25 131.55 330.85 131.55 331.45 131.55 332.05 131.55 333.3 131.55 338.5 131.55 339.75 131.55 340.35 131.55 340.95 131.55 341.55 131.55 342.75 131.55 347.4
Q 132.45 347.8 133.45 348.1
L 133.45 347.55 133.45 342.75 133.45 341.55 133.45 340.95 133.45 340.35 133.45 339.75 133.45 338.5 133.45 333.3 133.45 332.05 133.45 331.45 133.45 330.85 133.45 330.25 133.45 329.05 133.45 323.5 133.45 322.25 133.45 321.75 133.45 321.05 133.45 320.5 133.45 319.25 133.45 314.45
Q 132.45 314.35 131.55 314.35
L 131.55 319.25 131.55 320.5
M 154.2 313.85
Q 153.25 313.9 152.3 314
L 152.3 319.25 152.3 320.5 152.3 321.05 152.3 321.75 152.3 322.25 152.3 323.5 152.3 329.05 152.3 330.25 152.3 330.85 152.3 331.45 152.3 332.05 152.3 333.3 152.3 338.5 152.3 339.75 152.3 340.35 152.3 340.95 152.3 341.55 152.3 342.75 152.3 345.75
Q 153.25 345.25 154.2 344.65
L 154.2 342.75 154.2 341.55 154.2 340.95 154.2 340.35 154.2 339.75 154.2 338.5 154.2 333.3 154.2 332.05 154.2 331.45 154.2 330.85 154.2 330.25 154.2 329.05 154.2 323.5 154.2 322.25 154.2 321.75 154.2 321.05 154.2 320.5 154.2 319.25 154.2 313.85
M 144.85 314.35
Q 142.95 314.45 142.05 314.45
L 142.05 319.25 142.05 320.5 142.05 321.05 142.05 321.75 142.05 322.25 142.05 323.5 142.05 329.05 142.05 330.25 142.05 330.85 142.05 331.45 142.05 332.05 142.05 333.3 142.05 338.5 142.05 339.75 142.05 340.35 142.05 340.95 142.05 341.55 142.05 342.75 142.05 347.55 142.05 348.75 142.05 348.9
Q 143 348.85 143.95 348.7
L 143.95 347.55 143.95 342.75 143.95 341.55 143.95 340.95 143.95 340.35 143.95 339.75 143.95 338.5 143.95 333.3 143.95 332.05 143.95 331.45 143.95 330.85 143.95 330.25 143.95 329.05 143.95 323.5 143.95 322.25 143.95 321.75 143.95 321.05 143.95 320.5 143.95 319.25 144.85 314.35 Z"/>
</g>

<g id="Layer0_0_MEMBER_0_MEMBER_2_FILL">
<path fill="#FFCC66" stroke="none" d="
M 76.45 223.05
Q 77.35 223.95 78.5 226.55 79.55 228.9 79.55 230 79.85 228.9 80 228.1 80 227.6 80 224.4 79.3 223.7 79.1 223.5 78.5 223.05 77.8 222.8 77.65 222.8 77.5 222.8
L 76.45 223.05
M 111.05 223.95
Q 110.95 223.85 110.95 223.7
L 110.8 223.7 110.95 223.85
Q 110.95 223.9408203125 111 224.1 110.959375 223.95 111.05 223.95
M 87 237.15
Q 87 236.85 86.85 236.7 86.2 235.4 85.75 233.9 85.15 237.3 82.65 237.6 81.2 237.85 77.95 235.05 81.75 240.25 84.1 240.25 84.3 240.25 84.55 240.25 85.6 240.25 86.2 239.35 86.7 238.2 87 237.15
M 140.8 229.95
L 141.05 229.95
Q 141.05 229.55 141.05 229.4
L 140.8 229.5
Q 140.8 229.7 140.8 229.95 Z"/>

<path fill="#000000" stroke="none" d="
M 130.8 247.8
Q 129.05 249.6 126.85 251.65 128.45 253.25 130.65 255.7 130.65 254.15 131.1 253.25 131.7 252.4 131.7 251.3 131.7 250.2 131.1 249 130.95 248.4 130.8 247.8
M 87.95 239.2
Q 87.95 240.25 88.2 242.45 88.4 244.5 86.7 247.4 84.95 250 84 251.05 83.1 252.1 85.4 251.35 86.85 251.65 88.6 250.45 89.2 250 90.65 248.7
L 88.75 253.85
Q 87 256.65 86.7 257.1
L 88.9 257.1
Q 90.55 256.65 93.65 255.4 96.7 254.1 98.35 251.95 92.35 246.7 92.15 245.3 90.15 244.35 87.95 239.2
M 134.05 244.35
Q 133.15 245.3 132.3 246.35 131.85 246.7 131.4 247.2 132.1 247.8 133.45 248.7 134.95 250 136.25 250.45
L 136.55 250.2
Q 134.65 246.95 134.05 244.35
M 75.2 177.8
L 75.2 178.25
Q 75.45 178.25 80.9 177.35 81.75 177.15 82.5 177 79.55 177.8 77.05 179.6 71.85 182.95 68.6 189.65 70.2 189.15 75.65 188.05 80.6 186.8 82.65 186.05 81.2 187.65 77.5 189.15 73.85 190.7 70.8 190.9 71.7 192.45 74.25 194.95 75.3 195.95 76.05 196.7 77.7 198.3 77.8 198.5
L 77.95 198.65
Q 77.95 199.1 78.25 199.2 77.2 199.2 73.9 198.65
L 70.8 198.05 69.5 198.05
Q 75.65 206.8 77.2 209.6 78.65 212.55 79.4 215.8 80 219.25 80 222.95 80 223.85 80 224.4 80 227.6 80 228.1 79.85 228.9 79.55 230
L 79.55 230.15
Q 79.25 230.85 78.95 231.6 78.8 232 78.65 232.35 79.75 232.3 80.85 231.6 81.65 231 82.5 229.95 83.4 228.4 83.7 227.6 83.1 225 82.8 222.5 82.5 220.85 82.35 219.55 82.35 218.95 82.35 218.35 82.2 217.35 82.1 215.65 81.75 214.15 81.75 213.75 81.75 211.25 81.9 210.8 82.2 209.45 83.1 208.9
L 83.1 209 83.55 209
Q 87.95 207.1 92.6 204.3 93.65 203.5 102.1 198.05 101.35 199.55 99.8 201.3 98.45 202.9 97.15 204.15
L 99.35 204.15
Q 104.3 202.9 113.8 200.8 113.8 200.7 113.85 200.7
L 113.85 201.15
Q 113.8 201.3 112.55 204 111.5 206.5 111.05 207.25 112.55 205.7 115.25 204.3 117.75 203.2 119.4 202.45 119.55 204 120.3 205.65 121.45 208 123.1 208.1 122.8 206.35 122.8 203.45 124.85 205.65 126.85 207.25 127.3 207.55 127.55 207.85 130.35 209.9 133.75 211.25 132.85 208.7 132.4 207.1 132.3 206.8 132.1 206.5 131.4 204 131.25 201.6 132.85 206.35 133.15 207.25 133.15 207.4 133.3 207.4 134.65 210.35 137.3 211.7
L 137.3 208.3 137.3 204.15
Q 137.8 206.1 138.4 208.7 139.05 210.9 140.15 213.6 141.7 218.25 141.7 223.05 141.7 225.6 141.7 226.55 141.7 226.75 141.7 226.9 141.65 228.5 141.05 229.4 141.05 229.55 141.05 229.95 140.8078125 230.14375 140.8 230.4
L 140.8 230.45 140.8 230.65
Q 142.05 230.65 144 230.45 144.7 230.4 145.3 230.4 146.05 230.15 146.65 230.15
L 146.65 229.8
Q 145.9 229.4 145.45 228.95 144.45 228.25 144.1 226.75 144 226.2 144 224.4 144 223.4 144 222.05 144 220.7 144.1 219.55 144.1 219.4 144.1 219.25 144.1 218.95 144.1 218.65 144.55 213.6 146.2 211.1 147.35 209.15 147.7 208.55 148.4 206.8 148.4 203.9 148.4 202.25 147.25 199.1 146.8 197.6 146.5 196.7 146.05 195.7 145.75 195.4
L 146.2 195.4
Q 146.95 196.1 147.55 196.7 148.65 198 148.85 199.2
L 148.85 197.35
Q 148.8 197 148.8 196.7 147.5 190.75 144 188.7
L 145.9 188.7
Q 147.35 188.7 147.7 188.85 148.7 188.85 150.15 189.65
L 152.35 189.65
Q 150.55 185.7 144.55 184.6 142.95 184.15 142.05 184.15 144.7 181.95 146.05 180.75 148.55 178.55 149.6 176.95
L 140.3 175.9
Q 138 175.05 136.25 176.7 133.9 176.35 137.15 172.7 139.65 170.25 140.8 168.9 138.85 169.5 132.75 170.05 126.7 170.65 122.95 173.7 123.1 168.6 118.95 163.45 114.75 158.25 112.55 149.9 109.6 154.85 108.85 160.15
L 108.85 167.25
Q 106.2 165.35 101.05 162.65 95.65 159.85 93.2 158.8
L 93.2 164.85
Q 93.65 167.6 94.05 170.05 94.25 170.65 94.35 170.95 84.8 169.8 75.2 177.8
M 101.2 184
Q 100.55 183.55 98.35 182.65 96.1 181.8 94.5 180.45
L 96.6 180.45
Q 97.6 180.45 100.4 181.35 104.15 182.4 105.2 182.5 104 180.75 103.4 178.7 103.4 178.55 102.15 174.8 103.1 175.75 106.95 179.85 109.6 182.5 109.4 182.1 110.9 184.15 118.35 182.65
L 118.35 182.5 118.5 182.5
Q 118.5 182.65 117.95 183.85 117.5 185 115.4 186.2
L 116.45 186.5 116.45 186.35
Q 117.75 185.75 119.55 186.95 117.75 188.1 114.75 188.1 111.9 188.1 108.7 187.1
L 108.7 187.6
Q 109.45 188.25 111.5 189.45 113.2 190.4 114.3 190.9 103.85 186.65 99.15 187.1 94.35 187.6 93.2 187.9 92.15 188.1 90.65 188.7 91.85 187.1 95.1 185.7 98.65 184 101.2 184.3
L 101.2 184
M 102.1 174.2
Q 102.1484375 174.491015625 102.15 174.75 102.146875 174.65 102.1 174.65
L 102.1 174.2
M 128.95 190.45
Q 128.0609375 190.425 126.85 189.65 125 188.7 124.1 188.25 129.5 186.2 132.4 186.5
L 134.5 186.5
Q 137.15 186.95 139.05 188.7
L 139.05 189.15 134.65 189.15
Q 135.8 190.4 137.8 192 139.05 193.5 139.05 196.3
L 139.05 197.15
Q 139 196.9 138.75 196.7 138.3 196.25 137.15 195.55 135.65 194.55 134.2 194.1
L 134.3 194.2
Q 134.5 194.35 134.65 194.55 135.5 195.45 136.2 196.7 136.55 197.35 136.85 198.05
L 136.85 198.95
Q 135.2 197.5 134.2 196.7 133.75 196.4 133.45 196.15 132.3 195.25 129.1 195.1 126 195.1 125 195.7 124.25 196.1 123.45 196.7 123.1 196.9 122.8 197.15 122.95 196.9 123.2 196.7 124.25 195.25 125 194.35 126.3 192.9 128.15 192.75 128.2 192.75 128.6 192.75 127.85 192.45 126.3 192.15 124.85 191.75 122.35 191.85 125.3759765625 190.4609375 128.95 190.45 Z"/>

<path fill="#FFEAD5" stroke="none" d="
M 98.35 256.05
L 98.35 264.25
Q 103.4 272.55 113.5 272.55 122.8 272.55 126.85 264.55
L 126.85 256.5
Q 122.8 264.55 113.5 264.55 103.4 264.55 98.35 256.05
M 146.9 216.3
Q 144.45 217.35 144.1 218.65 144.1 218.95 144.1 219.25 144.1 219.4 144.1 219.55 144 220.7 144 222.05 144 223.4 144 224.4
L 145.3 221.9
Q 147.7 219.85 149.45 223.05 147.35 222.8 146.35 225.45 145.6 226.9 145.45 228.95 145.9 229.4 146.65 229.8
L 146.65 230.15
Q 146.05 230.15 145.3 230.4 144.7 230.4 144 230.45 142.05 230.65 140.8 230.65 140.8 231.1 140.65 231.6 140.45 232.2 140.15 232.85 140.3 232.2 140.5 231.6 140.65 231.1 140.8 230.45
L 140.8 230.4
Q 140.8 230.14375 140.8 229.95 140.8 229.7 140.8 229.5 140.35 226.55 137.45 224.4 133.45 221.5 128.6 221.5 123.65 221.5 120.3 222.5 116.3 223.7 114.45 231.4 115.7 223.85 116.3 221.05 117.75 214.05 120.75 210.65 121.75 209.35 123.2 208.45 123.1 208.45 123.1 208.1 121.45 208 120.3 205.65 119.55 204 119.4 202.45 117.75 203.2 115.25 204.3 112.55 205.7 111.05 207.25 111.5 206.5 112.55 204 113.8 201.3 113.85 201.15
L 113.8 200.8
Q 104.3 202.9 99.35 204.15
L 97.15 204.15
Q 98.45 202.9 99.8 201.3 101.35 199.55 102.1 198.05 93.65 203.5 92.6 204.3 87.95 207.1 83.55 209
L 83.1 209 83.1 208.9
Q 82.2 209.45 81.9 210.8 81.75 211.25 81.75 213.75 81.75 214.15 82.1 215.65
L 82.35 215.65
Q 82.35 214.55 82.65 213.6
L 82.65 213.45
Q 84.5 209.15 89.35 207.55 92.75 206.35 97.6 206.5 102.3 206.8 105.35 210.2 107.8 213.15 110.2 220.45 110.5 221.5 110.95 223.7 110.95 223.85 111.05 223.95 110.959375 223.95 111 224.1 110.95 223.9408203125 110.95 223.85
L 110.8 223.7
Q 107.55 220.15 105.9 219.85 104.3 219.55 99.75 218.65 95.1 217.85 89.65 223.05 85.9 226.7 84.55 230.4 84.1 228.9 83.7 227.6 83.4 228.4 82.5 229.95 81.65 231 80.85 231.6 79.75 232.3 78.65 232.35 78.8 232 78.95 231.6 79.25 230.85 79.55 230.15
L 79.55 230
Q 79.55 228.9 78.5 226.55 77.35 223.95 76.45 223.05
L 77.5 222.8
Q 77.65 222.8 77.8 222.8 78.5 223.05 79.1 223.5 79.3 223.7 80 224.4 80 223.85 80 222.95 80 219.25 79.4 215.8 76.05 215.65 75.2 220 74.25 226.2 76.3 231.6 76.95 233.35 77.95 235.05 81.2 237.85 82.65 237.6 85.15 237.3 85.75 233.9 86.2 235.4 86.85 236.7 87 236.85 87 237.15 87.35 238.2 87.8 239.05 87.8 239.2 87.95 239.2 90.15 244.35 92.15 245.3 92.35 246.7 98.35 251.95 99.15 252.55 99.8 253.25 108.15 260.15 112.4 260.15 117.05 260.15 122.6 255.4 124.85 253.25 126.85 251.65 129.05 249.6 130.8 247.8 131.1 247.55 131.4 247.2 131.85 246.7 132.3 246.35 133.15 245.3 134.05 244.35 136.7 241.1 138.15 237.75 138.6 236.55 139.2 235.5 139.85 236.1 140.8 236.7 142.8 237.75 145 237.75 145.9 237.75 146.8 237.15 147.5 236.25 149.45 231.75 149.45 231.7 149.55 231.6 151.5 227.2 150.75 220 149.6 215.2 146.9 216.3
M 104.15 245.75
Q 107.4 245.75 109.1 246.4 110.65 247.05 112.85 246.8 115 246.55 117.35 246.2 119.7 245.75 123.75 243.15 119.7 245.75 117.35 246.2 115 246.55 112.85 246.8 110.65 247.05 109.1 246.4 107.4 245.75 104.15 245.75
M 114.7 239.65
Q 113.5 240.9 112.4 240.9 111.9 240.9 110.35 238.45 108.7 236.1 109.1 235.05 109.15 235.95 110.65 236.7 112.1 237.45 113.2 237.45 114.7 237.45 114.75 237.3 115.4 237 118.35 234.55 115.85 238.3 114.7 239.65
M 117.95 251.8
Q 117.95 252.55 117.1 253.5 116.6 254.3 110.5 253.65
L 109.75 253.2 109.15 252.7 109.15 252.55 108.7 252.25
Q 109.15 251.35 110.5 251.05 111.05 250.9 112.7 250.9 113.5 250.9 115.25 251.35 116.9 251.8 117.95 251.8 Z"/>

<path fill="#FEC289" stroke="none" d="
M 98.35 251.95
L 98.35 256.05
Q 103.4 264.55 113.5 264.55 122.8 264.55 126.85 256.5
L 126.85 251.65
Q 124.85 253.25 122.6 255.4 117.05 260.15 112.4 260.15 108.15 260.15 99.8 253.25 99.15 252.55 98.35 251.95
M 110.2 220.45
Q 107.8 213.15 105.35 210.2 102.3 206.8 97.6 206.5 92.75 206.35 89.35 207.55 84.5 209.15 82.65 213.45
L 82.65 213.6
Q 82.35 214.55 82.35 215.65 82.2 216.9 82.35 218.35 82.35 218.95 82.35 219.55 82.5 220.85 82.8 222.5 83.1 225 83.7 227.6 84.1 228.9 84.55 230.4 85.9 226.7 89.65 223.05 95.1 217.85 99.75 218.65 104.3 219.55 105.9 219.85 107.55 220.15 110.8 223.7
L 110.95 223.7
Q 110.5 221.5 110.2 220.45
M 144 224.4
Q 144 226.2 144.1 226.75 144.45 228.25 145.45 228.95 145.6 226.9 146.35 225.45 147.35 222.8 149.45 223.05 147.7 219.85 145.3 221.9
L 144 224.4
M 139.2 235.5
Q 138.6 236.55 138.15 237.75 140.45 240.25 141.7 240.25
L 142.05 240.25
Q 144.55 240.25 146.8 237.15 145.9 237.75 145 237.75 142.8 237.75 140.8 236.7 139.85 236.1 139.2 235.5
M 138.4 208.7
Q 137.95 208.45 137.3 208.3
L 137.3 211.7
Q 134.65 210.35 133.3 207.4 133.15 207.4 133.15 207.25 132.85 207.1 132.4 207.1 132.85 208.7 133.75 211.25 130.35 209.9 127.55 207.85 127.3 207.55 126.85 207.25 124.85 207.55 123.45 208.45
L 123.2 208.45
Q 121.75 209.35 120.75 210.65 117.75 214.05 116.3 221.05 115.7 223.85 114.45 231.4 116.3 223.7 120.3 222.5 123.65 221.5 128.6 221.5 133.45 221.5 137.45 224.4 140.35 226.55 140.8 229.5
L 141.05 229.4
Q 141.4 228.1 141.7 226.55 141.7 225.6 141.7 223.05 141.7 218.25 140.15 213.6 139.05 210.9 138.4 208.7
M 117.1 253.5
Q 117.95 252.55 117.95 251.8 116.9 251.8 115.25 251.35 113.5 250.9 112.7 250.9 111.05 250.9 110.5 251.05 109.15 251.35 108.7 252.25
L 109.15 252.55 109.75 253.2 110.5 253.65
Q 116.6 254.3 117.1 253.5
M 112.4 240.9
Q 113.5 240.9 114.7 239.65 115.85 238.3 118.35 234.55 115.4 237 114.75 237.3 114.7 237.45 113.2 237.45 112.1 237.45 110.65 236.7 109.15 235.95 109.1 235.05 108.7 236.1 110.35 238.45 111.9 240.9 112.4 240.9 Z"/>

<path fill="#FFFF99" stroke="none" d="
M 113.8 200.8
L 113.85 201.15 113.85 200.7
Q 113.8 200.7 113.8 200.8
M 122.8 203.45
Q 122.8 206.35 123.1 208.1
L 123.2 208.1 123.45 208.45
Q 124.85 207.55 126.85 207.25 124.85 205.65 122.8 203.45
M 132.4 207.1
Q 132.85 207.1 133.15 207.25 132.85 206.35 131.25 201.6 131.4 204 132.1 206.5 132.3 206.8 132.4 207.1
M 138.4 208.7
Q 137.8 206.1 137.3 204.15
L 137.3 208.3
Q 137.95 208.45 138.4 208.7 Z"/>

<path fill="#FFFFFF" stroke="none" d="
M 126.85 189.65
Q 128.0609375 190.425 128.95 190.45 125.3759765625 190.4609375 122.35 191.85 124.85 191.75 126.3 192.15 127.85 192.45 128.6 192.75 128.2 192.75 128.15 192.75 126.3 192.9 125 194.35 124.25 195.25 123.2 196.7 122.95 196.9 122.8 197.15 123.1 196.9 123.45 196.7 124.25 196.1 125 195.7 126 195.1 129.1 195.1 132.3 195.25 133.45 196.15 133.75 196.4 134.2 196.7 135.2 197.5 136.85 198.95
L 136.85 198.05
Q 136.55 197.35 136.2 196.7 135.5 195.45 134.65 194.55 134.5 194.35 134.3 194.2
L 134.2 194.1
Q 135.65 194.55 137.15 195.55 138.3 196.25 138.75 196.7 139 196.9 139.05 197.15
L 139.05 196.3
Q 139.05 193.5 137.8 192 135.8 190.4 134.65 189.15
L 139.05 189.15 139.05 188.7
Q 137.15 186.95 134.5 186.5
L 132.4 186.5
Q 129.5 186.2 124.1 188.25 125 188.7 126.85 189.65
M 98.35 182.65
Q 100.55 183.55 101.2 184
L 101.2 184.3
Q 98.65 184 95.1 185.7 91.85 187.1 90.65 188.7 92.15 188.1 93.2 187.9 94.35 187.6 99.15 187.1 103.85 186.65 114.3 190.9 113.2 190.4 111.5 189.45 109.45 188.25 108.7 187.6
L 108.7 187.1
Q 111.9 188.1 114.75 188.1 117.75 188.1 119.55 186.95
L 116.45 186.5 115.4 186.2
Q 117.5 185 117.95 183.85 118.5 182.65 118.5 182.5
L 118.35 182.65
Q 110.9 184.15 109.4 182.1 109.6 182.5 106.95 179.85 103.1 175.75 102.15 174.8 103.4 178.55 103.4 178.7 104 180.75 105.2 182.5 104.15 182.4 100.4 181.35 97.6 180.45 96.6 180.45
L 94.5 180.45
Q 96.1 181.8 98.35 182.65 Z"/>
</g>

<g id="Layer0_0_MEMBER_0_MEMBER_2_MEMBER_0_FILL">
<path fill="#000000" stroke="none" d="
M 100.05 211.95
Q 107.1 210.75 106.1 208.85 93 206.05 84 208.85 92.5 208.85 100.05 211.95 Z"/>
</g>

<g id="Layer0_0_MEMBER_0_MEMBER_2_MEMBER_1_FILL">
<path fill="#000000" stroke="none" d="
M 123.5 211.95
Q 131 208.85 139.5 208.85 130.55 206.05 117.45 208.85 116.45 210.75 123.5 211.95 Z"/>
</g>

<g id="Layer0_0_MEMBER_0_MEMBER_2_MEMBER_2_FILL">
<path fill="#FFFFFF" stroke="none" d="
M 101.4 219.1
Q 97.1 218 91.6 219.1
L 93.65 222.9 101.4 222.8
Q 102 222.5 102.4 222.25 104 221.6 103 220.45 102.55 219.85 101.4 219.1 Z"/>
</g>

<g id="Layer0_0_MEMBER_0_MEMBER_2_MEMBER_2_MEMBER_0_FILL">
<path fill="#333333" stroke="none" d="
M 97.75 218.35
Q 96.85 218.35 96.25 219 95.65 219.6 95.65 220.6 95.65 221.6 96.25 222.2
L 96.3 222.25
Q 96.85 222.9 97.75 222.9 98.6 222.9 99.15 222.25
L 99.3 222.2
Q 99.9 221.6 99.9 220.6 99.9 219.6 99.3 219 98.6 218.35 97.75 218.35
M 97.85 220.2
Q 97.7 220 97.7 219.75 97.7 218.95 98.6 218.85 99 218.85 99.15 219.1 99.35 219.3 99.35 219.75 99.35 220 99.2 220.3 99 220.7 98.6 220.7
L 98.45 220.85
Q 98.35 220.75 98.3 220.75
L 98.3 220.7
Q 98 220.45 97.85 220.2 Z"/>

<path fill="#CC9900" stroke="none" d="
M 98.45 220.85
L 98.6 220.7
Q 98.45 220.7 98.3 220.7
L 98.3 220.75
Q 98.35 220.75 98.45 220.85 Z"/>

<path fill="#FFFFFF" stroke="none" d="
M 97.7 219.75
Q 97.7 220 97.85 220.2 98 220.45 98.3 220.7 98.45 220.7 98.6 220.7 99 220.7 99.2 220.3 99.35 220 99.35 219.75 99.35 219.3 99.15 219.1 99 218.85 98.6 218.85 97.7 218.95 97.7 219.75 Z"/>
</g>

<g id="Layer0_0_MEMBER_0_MEMBER_2_MEMBER_3_FILL">
<path fill="#FFFFFF" stroke="none" d="
M 130.7 222.9
L 132.75 219.1
Q 127.3 218 122.95 219.1 121.85 219.85 121.4 220.45 120.4 221.6 122 222.25 122.35 222.5 122.95 222.8
L 130.7 222.9 Z"/>
</g>

<g id="Layer0_0_MEMBER_0_MEMBER_2_MEMBER_3_MEMBER_0_FILL">
<path fill="#333333" stroke="none" d="
M 125.1 222.2
L 125.25 222.25
Q 125.8 222.9 126.6 222.9 127.55 222.9 128.05 222.25
L 128.15 222.2
Q 128.75 221.6 128.75 220.6 128.75 219.6 128.15 219 127.55 218.35 126.6 218.35 125.8 218.35 125.1 219 124.5 219.6 124.5 220.6 124.5 221.6 125.1 222.2
M 125.25 219.1
Q 125.4 218.85 125.8 218.85 126.7 218.95 126.7 219.75 126.7 220 126.55 220.2 126.4 220.45 126.1 220.7
L 126.1 220.75
Q 126 220.75 125.95 220.85
L 125.8 220.7
Q 125.4 220.7 125.15 220.3 125 220 125 219.75 125 219.3 125.25 219.1 Z"/>

<path fill="#CC9900" stroke="none" d="
M 126.1 220.7
Q 125.95 220.7 125.8 220.7
L 125.95 220.85
Q 126 220.75 126.1 220.75
L 126.1 220.7 Z"/>

<path fill="#FFFFFF" stroke="none" d="
M 125.8 218.85
Q 125.4 218.85 125.25 219.1 125 219.3 125 219.75 125 220 125.15 220.3 125.4 220.7 125.8 220.7 125.95 220.7 126.1 220.7 126.4 220.45 126.55 220.2 126.7 220 126.7 219.75 126.7 218.95 125.8 218.85 Z"/>
</g>

<path id="Layer0_0_MEMBER_0_MEMBER_1_1_STROKES" stroke="#FF9933" stroke-width="1" stroke-linejoin="round" stroke-linecap="round" fill="none" d="
M 47.9 333.65
Q 47.95 335.1 48.05 336.75"/>

<path id="Layer0_0_MEMBER_0_MEMBER_1_MEMBER_0_1_STROKES" stroke="#FF9933" stroke-width="1" stroke-linejoin="round" stroke-linecap="round" fill="none" d="
M 92.7 315.2
Q 93.15 315.2 93.65 315.2 95.85 315.05 98.3 314.9 98.75 314.9 99.3 314.85
M 102 314.7
Q 101.1 314.75 100.1 314.85
M 102.575 314.6
L 102.6 314.6 102.6 320.05
M 102.575 314.6
Q 102.28125 314.60625 102 314.7
M 100.1 314.85
Q 99.65 314.85 99.3 314.85"/>

<path id="Layer0_0_MEMBER_0_MEMBER_1_MEMBER_1_1_STROKES" stroke="#FF9933" stroke-width="1" stroke-linejoin="round" stroke-linecap="round" fill="none" d="
M 150.45 314.05
Q 150.9 314.05 151.45 314
M 152.3 314
Q 153.25 313.9 154.2 313.85
M 154.775 313.75
L 154.8 313.75 154.8 319.25
M 144.85 314.35
Q 145.3 314.35 145.8 314.35 148.05 314.2 150.45 314.05
M 151.45 314
Q 151.8 314 152.3 314
M 154.2 313.85
Q 154.48125 313.75625 154.775 313.75"/>

<path id="Layer0_0_MEMBER_0_MEMBER_2_1_STROKES" stroke="#FF9933" stroke-width="1" stroke-linejoin="round" stroke-linecap="round" fill="none" d="
M 104.15 245.75
Q 107.4 245.75 109.1 246.4 110.65 247.05 112.85 246.8 115 246.55 117.35 246.2 119.7 245.75 123.75 243.15"/>

<path id="Layer0_0_MEMBER_0_MEMBER_2_MEMBER_2_1_STROKES" stroke="#000000" stroke-width="1" stroke-linejoin="round" stroke-linecap="round" fill="none" d="
M 101.4 219.1
Q 97.1 218 91.6 219.1"/>

<path id="Layer0_0_MEMBER_0_MEMBER_2_MEMBER_2_MEMBER_1_1_STROKES" stroke="#000000" stroke-width="1" stroke-linejoin="round" stroke-linecap="round" fill="none" d="
M 102.95 220.3
Q 102.45 219.7 101.25 219 97 217.85 91.45 219"/>

<path id="Layer0_0_MEMBER_0_MEMBER_2_MEMBER_3_1_STROKES" stroke="#000000" stroke-width="1" stroke-linejoin="round" stroke-linecap="round" fill="none" d="
M 122.95 219.1
Q 127.3 218 132.75 219.1"/>

<path id="Layer0_0_MEMBER_0_MEMBER_2_MEMBER_3_MEMBER_1_1_STROKES" stroke="#000000" stroke-width="1" stroke-linejoin="round" stroke-linecap="round" fill="none" d="
M 121.45 220.3
Q 121.9 219.7 123.1 219 127.35 217.85 132.9 219"/>
</defs>

<g transform="matrix( 1, 0, 0, 1, -37.8,-149.9) ">
<use xlink:href="#Layer0_0_MEMBER_0_MEMBER_0_FILL"/>
</g>

<g transform="matrix( 1, 0, 0, 1, -37.8,-149.9) ">
<use xlink:href="#Layer0_0_MEMBER_0_MEMBER_1_FILL"/>

<use xlink:href="#Layer0_0_MEMBER_0_MEMBER_1_1_STROKES"/>
</g>

<g transform="matrix( 1, 0, 0, 1, -37.8,-149.9) ">
<use xlink:href="#Layer0_0_MEMBER_0_MEMBER_1_MEMBER_0_FILL"/>

<use xlink:href="#Layer0_0_MEMBER_0_MEMBER_1_MEMBER_0_1_STROKES"/>
</g>

<g transform="matrix( 1, 0, 0, 1, -37.8,-149.9) ">
<use xlink:href="#Layer0_0_MEMBER_0_MEMBER_1_MEMBER_1_FILL"/>

<use xlink:href="#Layer0_0_MEMBER_0_MEMBER_1_MEMBER_1_1_STROKES"/>
</g>

<g transform="matrix( 1, 0, 0, 1, -37.8,-149.9) ">
<use xlink:href="#Layer0_0_MEMBER_0_MEMBER_2_FILL"/>

<use xlink:href="#Layer0_0_MEMBER_0_MEMBER_2_1_STROKES"/>
</g>

<g transform="matrix( 1, 0, 0, 1, -37.8,-149.9) ">
<use xlink:href="#Layer0_0_MEMBER_0_MEMBER_2_MEMBER_0_FILL"/>
</g>

<g transform="matrix( 1, 0, 0, 1, -37.8,-149.9) ">
<use xlink:href="#Layer0_0_MEMBER_0_MEMBER_2_MEMBER_1_FILL"/>
</g>

<g transform="matrix( 1, 0, 0, 1, -37.8,-149.9) ">
<use xlink:href="#Layer0_0_MEMBER_0_MEMBER_2_MEMBER_2_FILL"/>

<use xlink:href="#Layer0_0_MEMBER_0_MEMBER_2_MEMBER_2_1_STROKES"/>
</g>

<g transform="matrix( 1, 0, 0, 1, -37.8,-149.9) ">
<use xlink:href="#Layer0_0_MEMBER_0_MEMBER_2_MEMBER_2_MEMBER_0_FILL"/>
</g>

<g transform="matrix( 1, 0, 0, 1, -37.8,-149.9) ">
<use xlink:href="#Layer0_0_MEMBER_0_MEMBER_2_MEMBER_2_MEMBER_1_1_STROKES"/>
</g>

<g transform="matrix( 1, 0, 0, 1, -37.8,-149.9) ">
<use xlink:href="#Layer0_0_MEMBER_0_MEMBER_2_MEMBER_3_FILL"/>

<use xlink:href="#Layer0_0_MEMBER_0_MEMBER_2_MEMBER_3_1_STROKES"/>
</g>

<g transform="matrix( 1, 0, 0, 1, -37.8,-149.9) ">
<use xlink:href="#Layer0_0_MEMBER_0_MEMBER_2_MEMBER_3_MEMBER_0_FILL"/>
</g>

<g transform="matrix( 1, 0, 0, 1, -37.8,-149.9) ">
<use xlink:href="#Layer0_0_MEMBER_0_MEMBER_2_MEMBER_3_MEMBER_1_1_STROKES"/>
</g>
</svg>
