<svg xmlns="http://www.w3.org/2000/svg" xmlns:xlink="http://www.w3.org/1999/xlink" preserveAspectRatio="none" width="149" height="316" viewBox="0 0 149 316"><defs><path fill="#FFF" d="M87.2 267.3q-1.3.45-2.65.9-2.8.9-5.7 2.15-1.3.5-2.65 1.05-1.45.6-2.9 1.3-.35.15-.65.3-3.5 1.6-7.25 3.5-1.6.8-3.25 1.65-1.65.9-3.25 1.85H58v1.65L45.2 319.6q.65.7 1.15 1.3.15.15.4.3 1.45 1.5 2.9 2.6 1.35 1.05 2.8 1.8.8.45 1.65.75.55.25 1.05.4.15.05.3.05.1 3.3 0 7.15-.05 1.55-.15 3.2-.15 5.15-.65 11.3-1.25 15.5-1.1 17.25.2 1.75 1 14.2.75 12.35-.45 18.05-1.3 5.7-1.3 10.4-.05 4.75.1 6 .05.4.15 1.1.05 1.5.2 4.55 0 .95.15 1.75 0 .3.1.65.4 1.6 1.6 3.75.7 1.05 1.5 2.35.85.75 2 1.35 3.4 2 6.45 2.9 2.35-1.9 1.6-5.55-.7-3.65-1.7-6.15-.95-2.5-1.75-9.2 1.85 4.95 2.65 5.7.35.3 3.05 1-.05-.1-.15-1.5-.05-1.4-.2-3.9-.4-5.55 0-9.4v-.15q1.2-.6 1.05-1-.25-.3-1-.1.1-3.1-1.15-5.2-1.25-2.35-1.35-5.7 0-5.5.45-9.1.6-3.95 1.55-12.3.35-2.7.65-5.8.9 2.6.45 3.5-.2.3-.45.75v22.25q2.3 1.35 4.55 2.6 1.45.75 2.9 1.45 1.3.6 2.65 1.2 2.8 1.2 5.7 2.25 1.3.5 2.65.95 1.45.35 2.9.8 7.3 2 14.65 2.55.7.05 1.3.05.75.1 1.5.1h5.4q1.05-.1 2.05-.15h.9q1.4-.2 2.75-.35 1.45-.15 2.8-.35 6.9-1.05 13.95-3.35 1.45-.45 2.85-.9 1.35-.55 2.65-1 2.85-1.15 5.7-2.45.75-.35 1.6-.75h1.1v-.5q1.45-.8 2.9-1.45l.15-.15v-25q.3 2.2.55 4.25.95 8.3 1.5 12.25.55 4 .55 8.35v.3q0 3.7-1.45 6.2-1.35 2.45-1.05 6.4.35 3.95.05 9.5-.3 5.15-.45 5.3 2.75-.7 3.05-1 .8-.75 2.7-5.7-.8 6.8-1.8 9.3-1 2.4-1.65 6.15-.7 3.65 1.65 5.5 2.95-.95 6.4-2.85 1.2-.7 1.95-1.45.9-1.2 1.5-2.35 1.25-2.05 1.6-3.65.1-.4.15-.7l-.15.25.15-.3q.1-.75.1-1.75.15-3.05.2-4.55.1-.7.15-1.1.15-1.2.1-5.9 0-4.7-1.3-10.5-1.2-5.65-.35-18.05.75-12.45.9-14.1.15-1.85-1.1-17.35-.65-8.1-.8-14.4-.1-3.9 0-7.15l1.3-.6q1.25-.7 2.65-1.6 1.8-1.15 3.7-2.6.3-.3.75-.6L169.45 306v-1.75H169l-5.05-17.8v-1.3h-.35l-.55-2q-1.15-.75-2.2-1.5-1.2-.9-2.4-1.65-1.3-.95-2.7-1.85-1.35-.85-2.7-1.65-.45-.3-.85-.55-1.45-.85-2.9-1.65-1.2-.7-2.35-1.3-.2-.1-.35-.25-2.9-1.5-5.7-2.7-1.3-.65-2.65-1.15-1.45-.55-2.85-1.05-1.95-.7-3.85-1.25-.75-.2-1.45-.35-1.95-5.65-4.6-7.6H95.2L93 261.7q-1.4 1.9-1.4 4.4-.75.15-1.5.35l-.1.1h-.2q-1.2.35-2.6.75m65.15 56.35q-.05 0-.15-.1v-10.6h.25q0 .75-.1 1.4v9.3z" id="a"/><g id="b"><path fill="#FC6" d="M53.5 448.6q-2.75 3.65-6.15 4.25.4 1.9 1.8 4.4.8 1.4 1.75 2.9.95.9 2.3 1.65 3.95 2.3 7.35 3.5 2.75-2.25 2-6.65-.85-4.4-2-7.45t-2.05-11.1q-1.65 4.05-5 8.5m11.15-18.35l-.05-.1q-.4.15-1 .45-2.5 1.25-2.5 3.6 0 6.2.85 8.55.9 2.45 2.95 3.5-.1-1.6-.3-4.6-.4-6.7.05-11.4M178.8 453.4q-3.5-.55-6.15-4.25-3.45-4.4-5.05-8.5-.9 8.1-2.05 11.15-1.1 2.95-1.95 7.45-.75 4.3 1.9 6.65 3.5-1.1 7.45-3.4 1.35-.85 2.2-1.75 1.05-1.5 1.8-2.9 1.35-2.5 1.85-4.45m-17.5-68.85h.1q-.1-.55-.25-1.1.1.55.15 1.1m.1-51.1q-.1 0-.25-.15v5.9q.003.106.1.3l.15.3q.8 1.45 4.7 3.95 4.5 2.9 6.7 2.75 2.25-.3 3.7 0-.1-4.7 0-8.6v-.05q-1.45.45-2.9.5-5.55.3-12.2-4.9M64.2 389.7q.3-3.2.75-7-1.8 11.4-4.85 19.6-2.1 5.55-6.55 13.3.25-.1 1 1.2.75 1.15 3.45 1 1.05-.1 1.55-.25l.1.25q.05-.25.15-.3.1-.15.25-.4.8-1.45 1.7-.25v-1.55q.002.054.1.3 0-6.6.55-11.05.65-4.85 1.8-14.85m-14.65-52.4q.15 3.95 0 8.65 1.5-.3 3.7-.15 2.3.25 6.8-2.65 4.45-2.9 4.9-4.5v-6q-6.8 5.5-12.45 5.1-1.45-.05-2.95-.45z"/><path fill="#990" d="M73.45 413.75v4.2h3.05v-4.2h-3.05m-3.25 0h-5.25v1q2.6 1.65 5.25 3.1v-4.1m-5.25-10.45v4.25h5.25v-4.25h-5.25m11.55 0h-3.05v4.25h3.05v-4.25m6.6 14.65h3.1v-4.2h-3.1v4.2m3.1-14.65h-3.1v4.25h3.1v-4.25m23.5 10.45v4.2h3v-4.2h-3m-3.3 4.2v-4.2H89.55v4.2h16.85m0-10.4v-4.25H89.55v4.25h16.85m6.3 0v-4.25h-3v4.25h3m9.75 10.4v-4.2h-3.1v4.2h3.1m0-10.4v-4.25h-3.1v4.25h3.1m32.25 10.4h3.1v-4.2h-3.1v4.2m6.7-4.2h-.25v1.75q.15 0 .25-.15v-1.6m-19.6 4.2v-4.2h-16.1v4.2h16.1m3.25-4.2v4.2h3.15v-4.2h-3.15m3.15-6.2v-4.25h-3.15v4.25h3.15m-6.4 0v-4.25h-16.1v4.25h16.1m19.6-4.25h-.25v4.25h.25v-4.25m-6.7 0v4.25h3.1v-4.25h-3.1m20-97.5h-10.9v4.25h10.9v-4.25m3.3 10.45v4.25h3.05v-4.25H178M163.8 318q.55 1.3 1.1 2.5h9.8v-4.25h-10.9V318m15.6-12.2H178v4.25h2.5l-1.1-4.25m-18 81.1v-1.7q-.1-.35-.1-.65-.05-.55-.15-1.1v3.45h.25m-13.2-4.2h-3.15v4.2h3.15v-4.2m0-6.2v-4.25h-3.15v4.25h3.15m9.6 6.2h-3.1v4.2h3.1v-4.2m0-6.2v-4.25h-3.1v4.25h3.1m-32.1 6.2v4.2h16.1v-4.2h-16.1m0-10.45v4.25h16.1v-4.25h-16.1m16.1-18.1v-4.3h-16.1v4.3h16.1m6.4 0v-4.3h-3.15v4.3h3.15m6.5 0h3.1v-4.3h-3.1v4.3m-35.35 28.55v4.2h3.1v-4.2h-3.1m-6.65 4.2v-4.2h-3v4.2h3m6.65-14.65v4.25h3.1v-4.25h-3.1m-6.65 4.25v-4.25h-3v4.25h3m-23.15 6.2v4.2h16.85v-4.2H89.55m-3.35 0h-3.1v4.2h3.1v-4.2m0-6.2v-4.25h-3.1v4.25h3.1m3.35-4.25v4.25h16.85v-4.25H89.55m-3.35-22.4h-3.1v4.3h3.1v-4.3m20.2 4.3v-4.3H89.55v4.3h16.85m12.95-4.3v4.3h3.1v-4.3h-3.1m-6.65 4.3v-4.3h-3v4.3h3m-3-14.65v4.1h3v-4.1h-3m-20.15 0v4.1h16.85v-4.1H89.55m-3.35 0h-3.1v4.1h3.1v-4.1m-3.1-23.25v4.25h3.1v-4.25h-3.1m3.1-10.45h-3.1v4.25h3.1v-4.25m20.2 4.25v-4.25H89.55v4.25h16.85m3.3 0h3v-4.25h-3v4.25m0 6.2v4.25h3v-4.25h-3m-3.3 4.25v-4.25H89.55v4.25h16.85m51.4 23.1v-4.1h-3.1v4.1h3.1m-12.75-4.1v4.1h3.15v-4.1h-3.15m-19.35 0v4.1h16.1v-4.1h-16.1m-3.25 4.1v-4.1h-3.1v4.1h3.1m0-33.55v-4.25h-3.1v4.25h3.1m0 10.45v-4.25h-3.1v4.25h3.1m19.35-10.45v-4.25h-16.1v4.25h16.1m19.35-4.25v4.25h1.55q.35-2.15.9-4.25h-2.45m0 10.45v4.25h.3q.1-2.1.4-4.25h-.7m-6.45 0v4.25h3.1v-4.25h-3.1m-9.65 0v4.25h3.15v-4.25h-3.15m-3.25 4.25v-4.25h-16.1v4.25h16.1m6.4-14.7h-3.15v4.25h3.15v-4.25m9.6 0h-3.1v4.25h3.1v-4.25m-87.6 76.9h-5.25q1 3.1.45 4.2h4.8v-4.2m0-6.2v-4.25h-5.25v4.25h5.25m6.3 6.2h-3.05v4.2h3.05v-4.2m0-6.2v-4.25h-3.05v4.25h3.05m-11.55-22.35h5.25v-4.3h-5.25v4.3m8.5 0h3.05v-4.3h-3.05v4.3m3.05-10.55v-4.1h-3.05v4.1h3.05m-6.3 0v-4.1h-5.25v4.1h5.25m-17.7-27.35v4.25h7.9v-.65q0-1-.2-3.6h-7.7m-6.45 4.25h3.2v-4.25h-3.2v4.25m3.2-14.7h-3.2v4.25h3.2v-4.25m10 2.5q-.2-1.3-.3-2.5H52.5v4.25h7q-.15-.85-.25-1.75m14.2 7.95v4.25h3.05v-4.25h-3.05m-12.65-6.2h9.4v-4.25H59.65l1.15 4.25m1.6 6.2l1.1 4.25h6.7v-4.25h-7.8m14.1-10.45h-3.05v4.25h3.05v-4.25m-7.15-33.55q-4 1.9-8.25 4.1h9.1v-4.1h-.85m7.15 10.4h-3.05v4.15h3.05v-4.15m0-6.3v-4.1h-3.05v4.1h3.05m-24 6.3v4.15h17.7v-4.15H52.5m108.65 0v4.15h13.15l-.6-2.25q-1.3-1-2.5-1.9h-10.05m-12.95 0h-3.15v4.15h3.15v-4.15m0-6.3v-4.1h-3.15v4.1h3.15m9.6 6.3h-3.1v4.15h3.1v-4.15m0-6.3v-2.6q-1.35-.75-2.65-1.5h-.45v4.1h3.1m3.35-.55v.55h1q-.55-.25-1-.55m-27.4 9.1q-.4 1-.7 1.9h8.75v-4.15h-7.3q-.3 1.1-.75 2.25m-3.55-2.25h-4.5v4.15h1.3q1.9-2.35 3.2-4.15m3.55-6.3q.9-2.05 1.5-4.1h-9.55v4.1h8.05m2.65-.55q-.05.3-.15.55h5.55v-4.1h-4.7q-.25 1.45-.7 3.55m-17.05 11h3.1v-4.15h-3.1v4.15m-6.65-3.95v-.2H111.35q-.4 1.1-1.35 4.15h2.7v-3.95m0-6.75v-3.85h-3v4.1h3v-.25m6.65-3.85v4.1h3.1v-4.1h-3.1m-28.8 0q.4 1.9 1.45 4.1h14.4v-4.1H90.55m5 10.4q1.6 2.35 3.5 4.15h7.35v-4.15H95.55m-9.35 0h-3.1v4.15h3.1v-4.15m3.95 0h-.6v4.15h3.05q-1.45-2.1-2.45-4.15m-3.95-6.3v-4.1h-3.1v4.1h3.1z"/><path fill="#FC0" d="M73.45 417.95v1.65q1.55.75 3.05 1.45v-3.1h-3.05m3.05-4.2v-2.05h-3.05v2.05h3.05m-6.3 0v-2.05h-5.25v2.05h5.25m0-6.2h-5.25v2.05h5.25v-2.05m6.3 0h-3.05v2.05h3.05v-2.05m13.05 18.35q8.35 2.45 16.85 3.05v-11H89.55v7.95m-3.35-7.95h-3.1v5.9q1.55.55 3.1 1v-6.9m0-4.2v-2.05h-3.1v2.05h3.1m0-6.2h-3.1v2.05h3.1v-2.05m20.2 2.05v-2.05H89.55v2.05h16.85m3.3-2.05v2.05h3v-2.05h-3m3 10.4h-3v11.2h3v-11.2m-3-6.25v2.05h3v-2.05h-3m-3.3 2.05v-2.05H89.55v2.05h16.85m16.05 14.9v-10.7h-3.1v10.9q1.55-.05 3.1-.2m3.25-.55q8-1.2 16.1-4v-6.15h-16.1v10.15m-3.25-18.5v-2.05h-3.1v2.05h3.1m0 4.15v-2.05h-3.1v2.05h3.1m19.35-4.15v-2.05h-16.1v2.05h16.1m12.9 8.35v.9q.9-.45 1.85-.9h-1.85m6.45-4.2h.25v-2.05h-.25v2.05m-3.35 0v-2.05h-3.1v2.05h3.1m-9.6 4.2h-3.15V423q1.55-.65 3.15-1.25v-3.8m-6.4-4.2v-2.05h-16.1v2.05h16.1m6.4 0v-2.05h-3.15v2.05h3.15m0-6.2h-3.15v2.05h3.15v-2.05m9.6 0h-3.1v2.05h3.1v-2.05m3.6 0h-.25v2.05h.25v-2.05m13.3-87.05h-9.8q1.5 3.75 2.55 5.5 1.6 2.95 3.5 4.15 1.45 1 3.75 1.45v-11.1m6.35 0H178V332q1.3.05 3.05.05V320.5m0-6.2H178v1.95h3.05v-1.95m0-4.25H178v2.1h3.05v-2.1m-17.25 4.25v1.95h10.9v-1.95h-10.9m0-4.25v2.1h10.9v-2.1h-10.9m14.2-4.25h1.4l-1.4-5v5m-16.85-19v19h13.55v-19h-13.55m-38.7 100.1h-3.1v16.4h3.1v-16.4m3.25-14.65h16.1v-18.1h-16.1v18.1m16.1 14.65h-16.1v16.4h16.1v-16.4m19.6 0h-.25v16.4h.25v-16.4m-3.6 0h-3.1v16.4h3.1v-16.4m-9.6 0h-3.15v16.4h3.15v-16.4m0-8.35v-2.05h-3.15v2.05h3.15m-3.15 2.05v2.1h3.15v-2.1h-3.15m12.75-2.05v-2.05h-3.1v2.05h3.1m-3.1 2.05v2.1h3.1v-2.1h-3.1m-29 0v2.1h16.1v-2.1h-16.1m0-4.1v2.05h16.1v-2.05h-16.1m22.5-22.35h-3.15v18.1h3.15v-18.1m-6.4-4.3v-2h-16.1v2h16.1m6.4 0v-2h-3.15v2h3.15m9.6 4.3h-3.1v18.1h3.1v-18.1m0-6.3h-3.1v2h3.1v-2m-51.4 24.4v-18.1H89.55v18.1h16.85m12.95-18.1v18.1h3.1v-18.1h-3.1M106.4 386.9H89.55v16.4h16.85v-16.4m6.3 0h-3v16.4h3v-16.4m0-4.2v-2.1h-3v2.1h3m6.65-2.1v2.1h3.1v-2.1h-3.1m0-4.1v2.05h3.1v-2.05h-3.1m-6.65 2.05v-2.05h-3v2.05h3m-26.5 8.35h-3.1v16.4h3.1v-16.4m0-10.4h-3.1v2.05h3.1v-2.05m3.35 0v2.05h16.85v-2.05H89.55m0 4.1v2.1h16.85v-2.1H89.55m-6.45 0v2.1h3.1v-2.1h-3.1m3.1-26.45h-3.1v18.1h3.1v-18.1m0-4.3v-2h-3.1v2h3.1m26.5 4.3h-3v18.1h3v-18.1m-6.3-4.3v-2H89.55v2h16.85m12.95-2v2h3.1v-2h-3.1m-6.65 2v-2h-3v2h3M89.55 320.5v19h16.85v-19H89.55m20.15 23.1v2.15h3v-2.15h-3m-20.15 0v2.15h16.85v-2.15H89.55m-6.45 0v2.15h3.1v-2.15h-3.1m0-29.3v1.95h3.1v-1.95h-3.1m3.1 6.2h-3.1v19h3.1v-19m0-8.35v-2.1h-3.1v2.1h3.1m26.5 8.35h-3v19h3v-19m-3-10.45v2.1h3v-2.1h-3m0 4.25v1.95h3v-1.95h-3m-3.3-2.15v-2.1H89.55v2.1h16.85m0 4.1v-1.95H89.55v1.95h16.85m16.05 23.25v-19h-3.1v19h3.1m19.35 0v-19h-16.1v19h16.1m12.9 4.1v2.15h3.1v-2.15h-3.1m-9.65 0v2.15h3.15v-2.15h-3.15m-19.35 0v2.15h16.1v-2.15h-16.1m-3.25 2.15v-2.15h-3.1v2.15h3.1m0-33.6v-2.1h-3.1v2.1h3.1m0 4.1v-1.95h-3.1v1.95h3.1m35.35 0v-1.95h-3.1v1.95h3.1m0 4.25h-3.1v19h3.1v-19m3.35-4.25h.7q.05-.95.2-1.95h-.9v1.95m-3.35-4.1v-2.1h-3.1v2.1h3.1m3.35-2.1v2.1h1.25q.15-1.1.3-2.1h-1.55m-19.35 6.2v-1.95h-16.1v1.95h16.1m6.4 4.25h-3.15v19h3.15v-19m0-4.25v-1.95h-3.15v1.95h3.15m-6.4-4.1v-2.1h-16.1v2.1h16.1m6.4 0v-2.1h-3.15v2.1h3.15M76.5 386.9h-3.05v16.4h3.05v-16.4m-6.3 0h-4.8q-.2.45-.45.9v15.5h5.25v-16.4m-5.25-8.35h5.25v-2.05h-5.25v2.05m0 2.05v2.1h5.25v-2.1h-5.25m11.55-4.1h-3.05v2.05h3.05v-2.05m-3.05 4.1v2.1h3.05v-2.1h-3.05m-8.5-30.75h5.25v-2h-5.25v2m5.25 4.3h-5.25v18.1h5.25v-18.1m6.3 0h-3.05v18.1h3.05v-18.1m0-6.3h-3.05v2h3.05v-2M39.55 328.2v-4.95l-1.4 4.25q.4.15.9.45.25.1.5.25m33.9 17.55h3.05v-2.15h-3.05v2.15m-3.25 0v-2.15h-5.25v2.15h5.25M52.5 314.3v1.95h7.7q-.15-.9-.25-1.95H52.5m7.9 6.2h-7.9v10.95q7.7-1.75 7.9-10.95m-.7-8.35q-.15-1.05-.2-2.1h-7v2.1h7.2m-10.45 8.35h-3.2v10.95q1.35.3 2.5.3h.7V320.5m-3.2-10.45v2.1h3.2v-2.1h-3.2m3.2 4.25h-3.2v1.95h3.2v-1.95m-3.2-8.5h3.2v-12.9l-3.2 9.85v3.05m30.45 8.5h-3.05v1.95h3.05v-1.95m0 6.2h-3.05v19h3.05v-19m0-8.35v-2.1h-3.05v2.1h3.05m-6.3 8.35h-6.7l1.45 5.5v13.5h5.25v-19m0-4.25v-1.95h-8.35l.55 1.95h7.8m0-4.1v-2.1h-9.4l.5 2.1h8.9m0-25.35H52.5v19H70.2v-19m6.3 0h-3.05v19h3.05v-19m-7.15-14.55h.85v-.4q-.45.25-.85.4m.85 4.1h-9.1l-3.8 2.1h12.9v-2.1m6.3 2.1v-2.1h-3.05v2.1h3.05m-3.05 2.15v2.05h3.05v-2.05h-3.05m-19.95 0h-1v2.05h17.7v-2.05H53.5m23-11.55q-1.45.6-3.05 1.3v1.9h3.05v-3.2m81.3 17.75h-3.1v19h3.1v-19m-9.6 0h-3.15v19h3.15v-19m-3.15-10.45v2.1h3.15v-2.1h-3.15m0 4.25v2.05h3.15v-2.05h-3.15m12.75-4.25h-3.1v2.1h3.1v-2.1m3.35 0v2.1h4.1q-1.6-1.05-3.1-2.1h-1m0 4.25v2.05h10.05q-1.45-1.1-2.85-2.05h-7.2m-6.45 0v2.05h3.1v-2.05h-3.1m0-8.35h.45q-.2-.1-.45-.3v.3m-21.65 14.55q-3.4 8.65-7.35 10.1v8.9h16.1v-19h-8.75m-10.6 3.8v-3.8h-2.2q1.35 2.6 2.2 3.8m3.25-2.2q.7-.75 1.3-1.6h-1.3v1.6m-3.25 7.65q-.3-.35-.75-.9-.55-.8-2.35-3.85v14.5h3.1v-9.75m3.25-15.45v2.05h4.5q.35-.6.65-1.1.3-.5.6-.95h-5.75m9.4 0q-.2 1.05-.6 2.05h7.3v-2.05h-6.7m-2.4-2.15l1.05-2.1h-8.05v2.1h7m3.55-2.1q-.3 1.1-.5 2.1h6.05v-2.1h-5.55m1.05-11.85q.25.6.25 1.2.05 1.2-.3 4.5 0 .75-.15 2.05h4.7V266q-2.3-.85-4.5-1.5m-6.95-9.6h-4.65v17.35h9.55q.7-2.75.7-5.35 0-1.6-.2-2.85-2.4-6.85-5.4-9.15m17.85 13.75q-1.6-.75-3.15-1.35v4.95h3.15v-3.6m-28.85-13.75v17.35h3.1V254.9h-3.1m-9.65 31.9v19h3v-19h-3m-4.7 4.65q.65-1.75 1.4-3.65v-1h-7.35q2.75 2.75 5.95 4.65m4.7-13h1.05q.85-1.45 1.5-2.1h-2.55v2.1m9.65-2.1v2.1h3.1v-2.1h-3.1m0 4.25v2.05h3.1v-2.05h-3.1m-6.85 2.05q-.55-.3-1-.55 0 .25-.15.55h1.15m-19.05 5.4q-.4-.55-.85-1.25h-3.05v19h16.85v-11q-.95 1.2-1.9 1.2-5.3 0-11.05-7.95m-7.25-1.25h-3.1v19h3.1v-19m0-10.45h-3.1v2.1h3.1v-2.1m3.35 6.3h.6q-.3-.7-.6-1.3v1.3m-6.45-2.05v2.05h3.1v-2.05h-3.1m11.1 0q.7 1.05 1.35 2.05h10.85v-2.05H94.2m-2.2-4.25q.45 1.05 1.05 2.1h13.35v-2.1H92m-5.8-11.05q-1.5.65-3.1 1.15v5.8h3.1v-6.95m9.2-10.4q-.75 1.1-2.55 3.65-1.55 2.2-1.55 5.35-.35.05-1.05 4.4-.25 1.75.3 3.95h15.85V254.9h-11m17.3 0h-3v17.35h3V254.9z"/><path fill="#CF0" d="M76.5 411.7v-2.1h-3.05v2.1h3.05m-6.3 0v-2.1h-5.25v2.1h5.25m16 0v-2.1h-3.1v2.1h3.1m20.2 0v-2.1H89.55v2.1h16.85m3.3-2.1v2.1h3v-2.1h-3m12.75 2.1v-2.1h-3.1v2.1h3.1m35.35 0v-2.1h-3.1v2.1h3.1m3.6-2.1h-.25v2.1h.25v-2.1m-19.6 2.1v-2.1h-16.1v2.1h16.1m6.4 0v-2.1h-3.15v2.1h3.15m32.85-97.4v-2.15H178v2.15h3.05m-17.25-2.15v2.15h10.9v-2.15h-10.9m-44.45 33.6v2.1h3.1v-2.1h-3.1m25.7 32.8v2.05h3.15v-2.05h-3.15m9.65 0v2.05h3.1v-2.05h-3.1m-29 0v2.05h16.1v-2.05h-16.1m-13 2.05v-2.05h-3v2.05h3m6.65-2.05v2.05h3.1v-2.05h-3.1m-29.8 0v2.05h16.85v-2.05H89.55m-6.45 0v2.05h3.1v-2.05h-3.1m23.3-32.8H89.55v2.1h16.85v-2.1m6.3 0h-3v2.1h3v-2.1m-26.5 0h-3.1v2.1h3.1v-2.1m0-31.45v-2.15h-3.1v2.15h3.1m23.5-2.15v2.15h3v-2.15h-3m-3.3 2.15v-2.15H89.55v2.15h16.85m35.4 31.45h-16.1v2.1h16.1v-2.1m16 0h-3.1v2.1h3.1v-2.1m-9.6 0h-3.15v2.1h3.15v-2.1m-25.75-31.45v-2.15h-3.1v2.15h3.1m35.35 0v-2.15h-3.1v2.15h3.1m3.35-2.15v2.15h.9q.1-1.15.35-2.15h-1.25m-19.35 2.15v-2.15h-16.1v2.15h16.1m6.4 0v-2.15h-3.15v2.15h3.15m-83.25 64.25v2.05h5.25v-2.05h-5.25m8.5 0v2.05h3.05v-2.05h-3.05m3.05-32.8h-3.05v2.1h3.05v-2.1m-6.3 0h-5.25v2.1h5.25v-2.1M59.95 314.3q-.15-1.05-.25-2.15h-7.2v2.15h7.45m-10.7 0v-2.15h-3.2v2.15h3.2m27.25 0v-2.15h-3.05v2.15h3.05m-6.3 0v-2.15h-8.9l.55 2.15h8.35m3.25-35.85v2.15h3.05v-2.15h-3.05m-16.15 0q-1.9 1-3.8 2.15h16.7v-2.15H57.3m87.75 0v2.15h3.15v-2.15h-3.15m16.1 0v2.15h7.2q-1.55-1.15-3.1-2.15h-4.1m-6.45 0v2.15h3.1v-2.15h-3.1m-29 0v2.15h5.75q.65-1 1.25-2.15h-7m10.05 0q-.35 1.15-.65 2.15h6.7v-2.15h-6.05m-26.05 0v2.05q.5-1.2 1.05-2.05h-1.05m9.65 0v2.15h3.1v-2.15h-3.1m-36.25 0v2.15h3.1v-2.15h-3.1m9.95 0q.45.85.9 1.75.15.25.25.4h12.2v-2.15H93.05z"/><path fill="#FF0" fill-opacity=".522" d="M181.05 312.15v19.9q1.45.1 3.2.1h1.05q.45-.45.9-.85l-5.15-19.15m-135-6.35v-3.05l-6.5 20.5v4.95q1.25.65 3.1 1.75.05 0 .2.05.25.15.45.3 1.55.8 2.75 1.15V305.8m108.65-33.85q-3.35-1.85-6.5-3.3v153.1q3.25-1.3 6.5-2.9v-146.9m-38.8 14.1q-1.65-2.3-3.2-3.2V429.15q1.6 0 3.2-.05V286.05m2.9 4.35q-.25-.5-.55-.85v139.4q.55 0 1.1-.1V291.3q-.25-.45-.55-.9m-35.7-14.05V266.45q-3.2 1.1-6.6 2.6V421.05q3.35 1.5 6.6 2.8V276.35m36.25-21.45h-6.65V276.1q.4-.2.7-.2.85.3 2.5 2.95 1.05 1.75 2.5 4.55.45.9.95 1.75V254.9z"/><path fill="#F60" fill-opacity=".502" d="M178 305.8v-5l-3.3-12.4V331.6q.65.1 1.35.3.75.1 1.95.1v-26.2m-55.55 8.5v114.35q1.65-.3 3.25-.55V296.9q-.75.3-1.6.3-.65 0-1.65-1.15v18.25M52.5 282.65l-3.25 10.25V331.75q1.75-.05 3.25-.3v-48.8m20.95-12.3q-1.6.65-3.25 1.5v146q1.6.85 3.25 1.75V270.35m87.7 5.45q-1.65-1.05-3.35-2.05v143.5q1.7-.85 3.35-1.75V275.8m-35.45-20.9h-3.25v35.7q.45.55.8.85 1.3-1.7 2.45-3.05v-33.5m19.35 12.4q-1.65-.75-3.25-1.3v158.1q1.65-.55 3.25-1.1V267.3m-37.1 24.9q-.75 1.65-1.55 2.6V428.95q.8 0 1.55.15.9 0 1.75.05V287.7q-.3.95-.7 2.05-.55 1.4-1.05 2.45M89.2 264.4q-1.45.45-3 .9V424.85q1.7.55 3.35 1.05V281.35q-1.95-4.65-1.95-9.1 0-1.85.45-4.1.45-2.2 1.15-3.75m.35-.05q-.05 0-.15.05h.15v-.05m20.15-9.45h-3.3V287.8q.7-1.75 1.55-3.55.65-1.45 1.35-3.05.15-.3.4-.6V254.9z"/><path fill="#FFEAD5" d="M161.25 339.5q-.097-.194-.1-.3v44.25q.15.55.25 1.1h-.1q0 .3.1.65.3 2.65.5 5.2 1.15 9.9 1.75 14.7.6 4.85.7 10.1v.4q0 4.4-1.65 7.4-1.7 3.05-1.25 7.85.45 4.7 0 11.45-.3 6.25-.45 6.4 3.1-.85 3.5-1.15.9-1 3.1-6.9 1.6 4.1 5.05 8.5 2.65 3.7 6.15 4.25.05-.4.15-.85.05-.9.15-2.1.15-3.65.2-5.5.1-.8.15-1.25.15-1.6.1-7.25 0-5.75-1.45-12.6-1.35-6.9-.45-21.85.8-15.05 1.05-17.15.15-2.15-1.2-20.8-.75-9.9-1-17.55-1.45-.3-3.7 0-2.2.15-6.7-2.75-3.9-2.5-4.7-3.95l-.15-.3m-101.2 3.65q-4.5 2.9-6.8 2.65-2.2-.15-3.7.15-.15 7.7-.9 17.45-1.4 18.75-1.25 20.9.2 2.15 1.1 17.1.9 15-.45 21.85-1.45 6.9-1.55 12.6 0 5.7.15 7.3.1.45.1 1.2.15 1.9.3 5.55 0 1.05.15 2.15 0 .35.15.8 3.4-.6 6.15-4.25 3.35-4.45 5-8.5 2.15 5.85 3.1 6.85.4.3 3.5 1.2-.05-.05-.2-1.9-2.05-1.05-2.95-3.5-.85-2.35-.85-8.55 0-2.35 2.5-3.6.6-.3 1-.45l.05.1v-.15q1.45-.75 1.2-1.25-.2-.35-1.1-.05.05-3.9-1.3-6.3-1.5-2.9-1.6-6.9-.098-.246-.1-.3v1.55q-.9-1.2-1.7.25-.15.25-.25.4-.1.05-.15.3l-.1-.25q-.5.15-1.55.25-2.7.15-3.45-1-.75-1.3-1-1.2 4.45-7.75 6.55-13.3 3.05-8.2 4.85-19.6V338.65q-.45 1.6-4.9 4.5z"/><path fill="#F90" d="M161.85 316.25q-.3 2.15-.4 4.25-.05.95-.05 1.75v11.2q6.65 5.2 12.2 4.9 1.45-.05 2.9-.5v.05q.75-.3 1.5-.65 1.55-.85 3.05-2 2.05-1.35 4.25-3.1h-1.05q-1.75 0-3.2-.1-1.75 0-3.05-.05-1.2 0-1.95-.1-.7-.2-1.35-.3-2.3-.45-3.75-1.45-1.9-1.2-3.5-4.15-1.05-1.75-2.55-5.5-.55-1.2-1.1-2.5v-12.2h-.2q-.55 2.1-.9 4.25-.15 1-.3 2.1-.25 1-.35 2.15-.15 1-.2 1.95m-100.55-4.1l-.5-2.1-1.15-4.25h-.7q.1 1.2.3 2.5.1.9.25 1.75.05 1.05.2 2.1.1 1.1.25 2.15.1 1.05.25 1.95.2 2.6.2 3.6v.65q-.2 9.2-7.9 10.95-1.5.25-3.25.3h-.7q-1.15 0-2.5-.3-1.2-.35-2.75-1.15-.2-.15-.45-.3-.15-.05-.2-.05-1.85-1.1-3.1-1.75-.25-.15-.5-.25-.5-.3-.9-.45l-.35 1.05q.65.85 1.25 1.45.25.3.5.45 1.55 1.75 3.25 3.2 1.6 1.2 3.25 2.2 1 .55 2 .9-.1-1.65-.15-3.1.05 1.45.15 3.1l1.2.5q.15 0 .3.05 1.5.4 2.95.45 5.65.4 12.45-5.1V326l-1.45-5.5-1.1-4.25-.55-1.95-.55-2.15m28.1-47.75h-.2q-.7 1.55-1.15 3.75-.45 2.25-.45 4.1 0 4.45 1.95 9.1.3.6.6 1.3 1 2.05 2.45 4.15.45.7.85 1.25Q99.2 296 104.5 296q.95 0 1.9-1.2.8-.95 1.55-2.6.5-1.05 1.05-2.45.4-1.1.7-2.05v-.9h.3q.95-3.05 1.35-4.15.15-.3.15-.55.45.25 1 .55h.2v.2q1.55.9 3.2 3.2V429.1q1.2 0 2.35-.15v-139.4q.3.35.55.85.3.45.55.9 1.8 3.05 2.35 3.85.45.55.75.9 1 1.15 1.65 1.15.85 0 1.6-.3 3.95-1.45 7.35-10.1.3-.9.7-1.9.45-1.15.75-2.25.4-1 .6-2.05.3-1 .65-2.15.2-1 .5-2.1.1-.25.15-.55.45-2.1.7-3.55.15-1.3.15-2.05.35-3.3.3-4.5 0-.6-.25-1.2-.8-.25-1.55-.45.2 1.25.2 2.85 0 2.6-.7 5.35-.6 2.05-1.5 4.1l-1.05 2.1q-.6 1.15-1.25 2.15-.3.45-.6.95-.3.5-.65 1.1-1.3 1.8-3.2 4.15-.6.85-1.3 1.6-1.15 1.35-2.45 3.05-.35-.3-.8-.85-.85-1.2-2.2-3.8h-.9v-1.65q-.5-.85-.95-1.75-1.45-2.8-2.5-4.55-1.65-2.65-2.5-2.95-.3 0-.7.2v.25h-.45q-.65.65-1.5 2.1-.55.85-1.05 2.05v.1q-.25.3-.4.6-.7 1.6-1.35 3.05-.85 1.8-1.55 3.55-.75 1.9-1.4 3.65-3.2-1.9-5.95-4.65-1.9-1.8-3.5-4.15-.65-1-1.35-2.05-.1-.15-.25-.4-.45-.9-.9-1.75-.6-1.05-1.05-2.1-1.05-2.2-1.45-4.1-.55-2.2-.3-3.95.7-4.35 1.05-4.4-.9.15-1.75.45v.05h-.15z"/></g><g id="d"><path fill="#990" d="M81.3 348.9q.45.15.9.25v-.75h-.9v.5m6.75.7v-1.2H83.1v1.2h4.95m1.8-1.2h-.9v1.2h.9v-1.2m3.8 0v.65q1.15-.3 2.35-.65h-2.35m-1.9 0v1.2h.95v-1.2h-.95m11.2-6H102v1.2h.95v-1.2m0-3.05H102v1.2h.95v-1.2m-.95-6.45v1.2h.95v-1.2H102m.95-3.05H102v1.25h.95v-1.25m0-5.55v-1.2H102v1.2h.95m-4.65 15.05h-4.65v1.2h4.65v-1.2m1.8 3.05h-.8v1.2h.8v-1.2m-6.45 0v1.2h4.65v-1.2h-4.65m-.95 0h-.95v1.2h.95v-1.2m0-3.05h-.95v1.2h.95v-1.2m7.4 0h-.8v1.2h.8v-1.2m-17 1.2h4.95v-1.2H83.1v1.2m6.75 1.85h-.9v1.2h.9v-1.2m-6.75 0v1.2h4.95v-1.2H83.1m-.9 0h-.9v1.2h.9v-1.2m0-3.05h-.9v1.2h.9v-1.2m7.65 0h-.9v1.2h.9v-1.2m-.9-6.45v1.2h.9v-1.2h-.9m.9-3.05h-.9v1.25h.9v-1.25m-6.75 0v1.25h4.95v-1.25H83.1m0 3.05v1.2h4.95v-1.2H83.1m-.9 1.2v-1.2h-.9v1.2h.9m0-4.25h-.9v1.25h.9v-1.25m0-6.75h-.9v1.2h.9v-1.2m5.85 1.2v-1.2H83.1v1.2h4.95m1.8-1.2h-.9v1.2h.9v-1.2m9.45 9.8v1.2h.8v-1.2h-.8m.8-3.05h-.8v1.25h.8v-1.25m-6.45 0v1.25h4.65v-1.25h-4.65m0 3.05v1.2h4.65v-1.2h-4.65m-1.9 0v1.2h.95v-1.2h-.95m.95-3.05h-.95v1.25h.95v-1.25m-.95-6.75v1.2h.95v-1.2h-.95m6.55 1.2v-1.2h-4.65v1.2h4.65m1.8-1.2h-.8v1.2h.8v-1.2m0-1.75v-1.3h-.8v1.3h.8m-6.45-1.3v1.3h4.65v-1.3h-4.65m-1.9 0v1.3h.95v-1.3h-.95m-2.8 1.3h.9v-1.3h-.9v1.3m-5.85-1.3v1.3h4.95v-1.3H83.1m-.9 1.3v-1.3h-.9v1.3h.9m19.8 0h.95v-1.3H102v1.3m-24.5 18h-4.05v1.2h4.05v-1.2m1.9 3.05h-.9v1.2h.9v-1.2m-5.95 0v1.2h4.05v-1.2h-4.05m5.95-3.05h-.9v1.2h.9v-1.2m0-5.25v-1.2h-.9v1.2h.9m0-4.25h-.9v1.25h.9v-1.25m-5.95 0v1.25h4.05v-1.25h-4.05m0 3.05v1.2h4.05v-1.2h-4.05m4.05-8.6v-1.2h-4.05v1.2h4.05m1.9-1.2h-.9v1.2h.9v-1.2m-.9-1.75h.9v-1.3h-.9v1.3m-5.05-1.3v1.3h4.05v-1.3h-4.05z"/><path fill="#FC0" d="M89.85 349.75v-.15h-.9v.25q.45 0 .9-.1m-1.8.1v-.25H84.3q1.85.3 3.75.25m14.55-4.75v-1.5h-.6v1.9q.3-.15.6-.4m.35-3.3H102v.6h.95v-.6m0-.65v-.6H102v.6h.95m0-7.05H102v5.25h.95v-5.25m-.95-1.2h.95v-.6H102v.6m.95-1.2v-.6H102v.6h.95m0-7.4H102v5.55h.95v-5.55m0-1.2v-.55H102v.55h.95m-4.65 20.5h-4.65v4.8H96q1.15-.4 2.3-.9v-3.9m1.8 0h-.8v3.4q.35-.2.8-.45v-2.95m0-1.8h-.8v.6h.8v-.6m0-.65v-.6h-.8v.6h.8m-7.4 2.45h-.95v4.8h.95v-4.8m.95-1.8v.6h4.65v-.6h-4.65m-.95.6v-.6h-.95v.6h.95m.95-1.85v.6h4.65v-.6h-4.65m-.95.6v-.6h-.95v.6h.95m-4.65 2.45H83.1v4.8h4.95v-4.8m1.8 0h-.9v4.8h.9v-4.8m0-1.8h-.9v.6h.9v-.6m-.9-1.25v.6h.9v-.6h-.9m-6.75 3.05h-.9v4.8h.9v-4.8m.9-1.8v.6h4.95v-.6H83.1m-.9 0h-.9v.6h.9v-.6m-.9-1.25v.6h.9v-.6h-.9m1.8 0v.6h4.95v-.6H83.1m4.95-6.45H83.1v5.25h4.95v-5.25m-4.95-4.25h4.95v-5.55H83.1v5.55m6.75 4.25h-.9v5.25h.9v-5.25m0-1.8h-.9v.6h.9v-.6m0-1.2h-.9v.6h.9v-.6m-6.75 1.2v.6h4.95v-.6H83.1m-.9 1.8h-.9v5.25h.9v-5.25m0-3h-.9v.6h.9v-.6m0 1.2h-.9v.6h.9v-.6m.9-1.2v.6h4.95v-.6H83.1m-.9-6.8h-.9v5.55h.9v-5.55m0-1.75h-.9v.55h.9v-.55m5.85.55v-.55H83.1v.55h4.95m1.8 1.2h-.9v5.55h.9v-5.55m0-1.2v-.55h-.9v.55h.9m8.45 6.75v-5.55h-4.65v5.55h4.65m0 4.25h-4.65v5.25h4.65v-5.25m1.8 0h-.8v5.25h.8v-5.25m0-1.2v-.6h-.8v.6h.8m0-1.2v-.6h-.8v.6h.8m-7.4 1.2v-.6h-.95v.6h.95m.95-.6v.6h4.65v-.6h-4.65m-.95 1.8h-.95v5.25h.95v-5.25m0-2.4v-.6h-.95v.6h.95m.95-.6v.6h4.65v-.6h-4.65m-.95-6.8h-.95v5.55h.95v-5.55m0-1.2v-.55h-.95v.55h.95m5.6 0v-.55h-4.65v.55h4.65m1.8 1.2h-.8v5.55h.8v-5.55m0-1.2v-.55h-.8v.55h.8m-1.8-1.75h-4.65v.55h4.65v-.55m0-6.45q-2.45.15-4.65.3v4.85h4.65v-5.15m1.8 6.45h-.8v.55h.8v-.55m-8.35-1.3h.95v-4.85l-.95 4.85m.95 1.3h-.95v.55h.95v-.55m6.6-6.5h.8v-.25h-.8v.25m.8 0h-.8v5.2h.8v-5.2m-12.05 6.5H83.1v.55h4.95v-.55m0-1.3v-4.7H83.1v4.7h4.95m1.8 1.3h-.9v.55h.9v-.55m-7.65 0h-.9v.55h.9v-.55m0-6.05h-.9v4.75h.9v-4.75m7.65 0q-.45.05-.9.05v4.7h.9v-4.75m13.1 6.05H102v.55h.95v-.55m-.35-6.75h-.05q-.27.006-.55.1v5.35h.6v-5.45m-.6 0v.1q.28-.094.55-.1H102m-22.6 29h-.9v4.35l.9.3v-4.65m-.9-2.45h.9v-.6h-.9v.6m.9.65h-.9v.6h.9v-.6m-5.95 1.8v1.5q2 1.4 4.05 2.4v-3.9h-4.05m0-1.8v.6h4.05v-.6h-4.05m0-1.25v.6h4.05v-.6h-4.05m4.05-6.45h-4.05v5.25h4.05v-5.25m-4.05-4.25h4.05v-5.55h-4.05v5.55m5.95 4.25h-.9v5.25h.9v-5.25m0-1.8h-.9v.6h.9v-.6m0-.6v-.6h-.9v.6h.9m-5.95-.6v.6h4.05v-.6h-4.05m0 1.2v.6h4.05v-.6h-4.05m4.05-9.2v-.55h-4.05v.55h4.05m1.9 1.2h-.9v5.55h.9v-5.55m0-1.75h-.9v.55h.9v-.55m-1.9-1.2h-4.05v.55h4.05v-.55m-4.05-6.75v5.45h4.05v-5q-2.15-.15-4.05-.45m5.95 6.75h-.9v.55h.9v-.55m0-6.15q-.45-.05-.9-.05v4.9h.9v-4.85z"/><path fill="#CF0" d="M102.95 341.8v-.65H102v.65h.95m0-9.5v-.6H102v.6h.95m0-9.75v-.65H102v.65h.95m-2.85 19.25v-.65h-.8v.65h.8m-7.4 0v-.65h-.95v.65h.95m.95-.65v.65h4.65v-.65h-4.65m-3.8.65v-.65h-.9v.65h.9m-7.65 0v-.65h-.9v.65h.9m.9-.65v.65h4.95v-.65H83.1m5.85-8.85h.9v-.6h-.9v.6m-7.65 0h.9v-.6h-.9v.6m1.8-.6v.6h4.95v-.6H83.1m-.9-9.8h-.9v.65h.9v-.65m5.85.65v-.65H83.1v.65h4.95m.9-.65v.65h.9v-.65h-.9m11.15 10.4v-.6h-.8v.6h.8m-7.4 0v-.6h-.95v.6h.95m.95-.6v.6h4.65v-.6h-4.65m-.95-9.15v-.65h-.95v.65h.95m5.6 0v-.65h-4.65v.65h4.65m1.8 0v-.65h-.8v.65h.8M78.5 341.8h.9v-.65h-.9v.65m-5.05-.65v.65h4.05v-.65h-4.05m5.05-9.45v.6h.9v-.6h-.9m-5.05 0v.6h4.05v-.6h-4.05m4.05-9.15v-.65h-4.05v.65h4.05m1 0h.9v-.65h-.9v.65z"/><path fill="#F60" fill-opacity=".502" d="M93.65 315.2h-.95v34.1q.45-.1.95-.25V315.2m5.65-.35q-.55.05-1 .05v32.6q.45-.25 1-.5v-32.15m-16.2.5q-.45 0-.9-.05v33.85q.45.15.9.2V315.35m5.85 0h-.9V349.85h.9V315.35m-10.45-.2q-.5-.1-1-.1v32.45q.5.2 1 .45V315.15z"/><path fill="#FF0" fill-opacity=".522" d="M89.85 320.05V349.75q1-.05 1.9-.2V320.05l.95-4.85q-1.9.1-2.85.1v4.75m12.15 1.3V314.7q-.9.05-1.9.15V346.55q1-.45 1.9-1.05V321.35m-22.6-1.3V348.25q.9.35 1.9.65v-33.6q-1-.1-1.9-.1v4.85z"/></g><g id="f"><path fill="#990" d="M133.45 347.55v.55q.45.15.9.2v-.75h-.9m6.75 1.2v-1.2h-4.95v1.2h4.95m1.85 0v-1.2h-.95v1.2h.95m3.75-1.2v.7q1.15-.3 2.4-.7h-2.4m-.95 1.2v-1.2h-.9v1.2h.9m10.25-6v-1.2h-.9v1.2H155.1m0-3v-1.25h-.9v1.25h.9m-3.65 1.8v1.2h.85v-1.2h-.85m-6.6 1.2v-1.2h-.9v1.2h.9m.95-1.2v1.2h4.65v-1.2h-4.65m-1.85-1.8h.9v-1.25h-.9v1.25m6.5 0v-1.25h-4.65v1.25h4.65m1-1.25v1.25h.85v-1.25h-.85m-5.65-6.45v1.25h4.65v-1.25h-4.65m-1.85 0v1.25h.9v-1.25h-.9m.9-1.8v-1.2h-.9v1.2h.9m.95-1.2v1.2h4.65v-1.2h-4.65m-.95-5.55v-1.25h-.9v1.25h.9m5.6 0v-1.25h-4.65v1.25h4.65m3.75 8.55v1.25h.9v-1.25h-.9m-1.9 1.25v-1.25h-.85v1.25h.85m0-3.05v-1.2h-.85v1.2h.85m2.8 0v-1.2h-.9v1.2h.9m-2.8-6.75v-1.25h-.85v1.25h.85m2.8 0v-1.25h-.9v1.25h.9m-14 18.05v1.2h.95v-1.2h-.95m-6.75 1.2v-1.2h-.9v1.2h.9m.9-1.2v1.2h4.95v-1.2h-4.95m-1.8-3.05v1.25h.9v-1.25h-.9m7.65 0v1.25h.95v-1.25h-.95m-.9 1.25v-1.25h-4.95v1.25h4.95m-8.65 1.8h-.9v1.2h.9v-1.2m-5.9 0v1.2h4v-1.2h-4m5-1.8h.9v-1.25h-.9v1.25m-1 0v-1.25h-4v1.25h4m1.9-7.7h-.9v1.25h.9v-1.25m0-3h-.9v1.2h.9v-1.2m-5.9 3v1.25h4v-1.25h-4m0-3v1.2h4v-1.2h-4m4-5.55v-1.25h-4v1.25h4m1.9-1.25h-.9v1.25h.9v-1.25m9.55 9.8v1.25h.95v-1.25h-.95m0-3v1.2h.95v-1.2h-.95m-5.85 3v1.25h4.95v-1.25h-4.95m-1.8 0v1.25h.9v-1.25h-.9m.9-1.8v-1.2h-.9v1.2h.9m.9-1.2v1.2h4.95v-1.2h-4.95m-.9-5.55v-1.25h-.9v1.25h.9m6.75-1.25v1.25h.95v-1.25h-.95m-.9 1.25v-1.25h-4.95v1.25h4.95m-4.95-4.25v1.25h4.95v-1.25h-4.95m-1.8 0v1.25h.9v-1.25h-.9m-1.9 0h-.9v1.25h.9v-1.25m-5.9 0v1.25h4v-1.25h-4m28.55 0v1.25h.9v-1.25H154.2m-2.75 0v1.25h.85v-1.25h-.85m-5.65 0v1.25h4.65v-1.25h-4.65m-1.85 0v1.25h.9v-1.25h-.9m-1.9 1.25v-1.25h-.95v1.25h.95z"/><path fill="#FC0" d="M140.2 349v-.25h-3.7q1.8.3 3.7.25m1.85-.1v-.15h-.95v.25q.45 0 .95-.1m0-6.15h-.95v4.8h.95v-4.8m10.25-4.25v-5.2h-.85v5.2h.85m2.5 5.8v-1.55h-.6v1.9q.3-.15.6-.35m.3-2.75v-.6h-.9v.6h.9m0-1.8h-.9v.6h.9v-.6m-3.65 0v.6h.85v-.6h-.85m-1 3h-4.65v4.8h2.4q1.1-.4 2.25-.9v-3.9m0-3h-4.65v.6h4.65v-.6m1 1.2v.6h.85v-.6h-.85m0 1.8v3.45q.35-.25.85-.45v-3h-.85m-6.6 0h-.9v4.8h.9v-4.8m0-1.2v-.6h-.9v.6h.9m.95-.6v.6h4.65v-.6h-4.65m-.95-1.2h-.9v.6h.9v-.6m5.6-6.45h-4.65v5.2h4.65v-5.2m-4.65-9.8v5.55h4.65v-5.55h-4.65m-.95 9.8h-.9v5.2h.9v-5.2m.95-1.85v.6h4.65v-.6h-4.65m-1.85 0v.6h.9v-.6h-.9m.9-.6v-.6h-.9v.6h.9m.95-.6v.6h4.65v-.6h-4.65m-.95-6.75h-.9v5.55h.9v-5.55m0-1.25v-.5h-.9v.5h.9m5.6 0v-.5h-4.65v.5h4.65m1.85 6.8v-5.55h-.85v5.55h.85m2.8 4.25h-.9v5.2h.9v-5.2m-2.8-1.25v-.6h-.85v.6h.85m1.9-.6v.6h.9v-.6h-.9m-1.9-.6v-.6h-.85v.6h.85m2.8 0v-.6h-.9v.6h.9m0-7.35h-.9v5.55h.9v-5.55m-2.8-1.25v-.5h-.85v.5h.85m2.8 0v-.5h-.9v.5h.9m-14 11.05v5.2h.95v-5.2h-.95m0 6.45v.6h.95v-.6h-.95m-5.85.6h4.95v-.6h-4.95v.6m4.95 2.4h-4.95v4.8h4.95v-4.8m.9-1.8v.6h.95v-.6h-.95m-6.75 1.8h-.9v4.8h.9v-4.8m.9-1.8v.6h4.95v-.6h-4.95m-.9.6v-.6h-.9v.6h.9m0-1.8h-.9v.6h.9v-.6m-4.7 0h-4v.6h4v-.6m1.9 3h-.9v4.35l.9.3v-4.65m-.9-1.2h.9v-.6h-.9v.6m-5 1.2v1.55q1.95 1.35 4 2.35v-3.9h-4m0-1.8v.6h4v-.6h-4m5.9-1.2h-.9v.6h.9v-.6m-1.9-6.45h-4v5.2h4v-5.2m-4-9.8v5.55h4v-5.55h-4m5.9 9.8h-.9v5.2h.9v-5.2m0-1.85h-.9v.6h.9v-.6m0-1.2h-.9v.6h.9v-.6m-5.9 1.2v.6h4v-.6h-4m0-1.2v.6h4v-.6h-4m5.9-6.75h-.9v5.55h.9v-5.55m-1.9-1.25v-.5h-4v.5h4m1.9-.5h-.9v.5h.9v-.5m9.55 1.75v5.55h.95v-5.55h-.95m-5.85 0v5.55h4.95v-5.55h-4.95m4.95 9.8h-4.95v5.2h4.95v-5.2m.9-1.85v.6h.95v-.6h-.95m0-1.2v.6h.95v-.6h-.95m-6.75 3.05h-.9v5.2h.9v-5.2m.9-1.85v.6h4.95v-.6h-4.95m-1.8 0v.6h.9v-.6h-.9m1.8-1.2v.6h4.95v-.6h-4.95m-.9.6v-.6h-.9v.6h.9m0-7.35h-.9v5.55h.9v-5.55m0-1.25v-.5h-.9v.5h.9m6.75-.5v.5h.95v-.5h-.95m-.9.5v-.5h-4.95v.5h4.95m0-3v-4.75h-4.95v4.75h4.95m-4.95 1.25v.55h4.95v-.55h-4.95m-1.8 0v.55h.9v-.55h-.9m.9-6.05h-.9v4.8h.9v-4.8m-8.7-.7v5.5h4v-5.05q-2.1-.15-4-.45m5.9 6.75h-.9v.55h.9v-.55m-5.9 0v.55h4v-.55h-4m5.9-6.15q-.45-.05-.9-.05v4.95h.9v-4.9m22.65 6.15v.55h.9v-.55h-.9m.55-6.75q-.27.006-.55.1v5.4h.6v-5.5h-.05m-.55.1q.28-.094.55-.1h-.55v.1m-12.15 5.4v-4.8q-.5.05-.95.05v4.75h.95m8.4-5.2q-2.4.15-4.65.3v4.9h4.65v-5.2m1-.05v5.25h.85V314h-.85m0 6.5v.55h.85v-.55h-.85m-7.5-1.25h.9v-4.9l-.9 4.9m1.85 1.25v.55h4.65v-.55h-4.65m-3.75.55v-.55h-.95v.55h.95m1.9-.55v.55h.9v-.55h-.9m7.5-6.75v.25h.85v-.25h-.85z"/><path fill="#CF0" d="M142.05 321.05h-.95v.7h.95v-.7m13.05 19.9v-.6h-.9v.6h.9m-3.65-.6v.6h.85v-.6h-.85m-6.6.6v-.6h-.9v.6h.9m.95-.6v.6h4.65v-.6h-4.65m0-9.5v.6h4.65v-.6h-4.65m-.95.6v-.6h-.9v.6h.9m10.25 0v-.6h-.9v.6h.9m-2.8 0v-.6h-.85v.6h.85m-11.2 8.9v.6h.95v-.6h-.95m-6.75.6v-.6h-.9v.6h.9m.9-.6v.6h4.95v-.6h-4.95m-4.6.6h.9v-.6h-.9v.6m-5-.6v.6h4v-.6h-4m5.9-9.5h-.9v.6h.9v-.6m-5.9 0v.6h4v-.6h-4m15.45 0v.6h.95v-.6h-.95m-6.75.6v-.6h-.9v.6h.9m.9-.6v.6h4.95v-.6h-4.95m4.95-9.8h-4.95v.7h4.95v-.7m-5.85 0h-.9v.7h.9v-.7m-4.7 0h-4v.7h4v-.7m1.9 0h-.9v.7h.9v-.7m20.75 0h-.85v.7h.85v-.7m2.8 0h-.9v.7h.9v-.7m-4.65 0h-4.65v.7h4.65v-.7m-5.6 0h-.9v.7h.9v-.7z"/><path fill="#F60" fill-opacity=".502" d="M135.25 314.5q-.45 0-.9-.05V348.3q.45.15.9.25V314.5m5.85 0h-.9V349h.9v-34.5m-10.45-.2q-.45-.1-1-.1V346.65q.55.2 1 .45v-32.8m15.15.05h-.95v34.1q.45-.05.95-.2V314.35m5.65-.35q-.55.05-1 .05V346.65q.45-.25 1-.45V314z"/><path fill="#FF0" fill-opacity=".522" d="M131.55 320.5V347.4q.9.4 1.9.7V314.45q-1-.1-1.9-.1v6.15m22.65-6.65q-.95.05-1.9.15V345.75q.95-.5 1.9-1.1V313.85m-9.35.5q-1.9.1-2.8.1V348.9q.95-.05 1.9-.2V319.25l.9-4.9z"/></g><g id="h"><path fill="#FC6" d="M76.45 223.05q.9.9 2.05 3.5 1.05 2.35 1.05 3.45.3-1.1.45-1.9v-3.7l-.9-.9q-.6-.45-1.3-.7h-.3l-1.05.25m34.6.9q-.1-.1-.1-.25h-.15l.15.15q0 .09.05.25-.04-.15.05-.15M87 237.15q0-.3-.15-.45-.65-1.3-1.1-2.8-.6 3.4-3.1 3.7-1.45.25-4.7-2.55 3.8 5.2 6.15 5.2h.45q1.05 0 1.65-.9.5-1.15.8-2.2m53.8-7.2h.25v-.55l-.25.1v.45z"/><path d="M130.8 247.8q-1.75 1.8-3.95 3.85 1.6 1.6 3.8 4.05 0-1.55.45-2.45.6-.85.6-1.95t-.6-2.3l-.3-1.2m-42.85-8.6q0 1.05.25 3.25.2 2.05-1.5 4.95-1.75 2.6-2.7 3.65-.9 1.05 1.4.3 1.45.3 3.2-.9.6-.45 2.05-1.75l-1.9 5.15q-1.75 2.8-2.05 3.25h2.2q1.65-.45 4.75-1.7 3.05-1.3 4.7-3.45-6-5.25-6.2-6.65-2-.95-4.2-6.1m46.1 5.15q-.9.95-1.75 2-.45.35-.9.85.7.6 2.05 1.5 1.5 1.3 2.8 1.75l.3-.25q-1.9-3.25-2.5-5.85M75.2 177.8v.45q.25 0 5.7-.9.85-.2 1.6-.35-2.95.8-5.45 2.6-5.2 3.35-8.45 10.05 1.6-.5 7.05-1.6 4.95-1.25 7-2-1.45 1.6-5.15 3.1-3.65 1.55-6.7 1.75.9 1.55 3.45 4.05 1.05 1 1.8 1.75 1.65 1.6 1.75 1.8l.15.15q0 .45.3.55-1.05 0-4.35-.55l-3.1-.6h-1.3q6.15 8.75 7.7 11.55 1.45 2.95 2.2 6.2.6 3.45.6 7.15v5.15q-.15.8-.45 1.9v.15q-.3.7-.6 1.45-.15.4-.3.75 1.1-.05 2.2-.75.8-.6 1.65-1.65.9-1.55 1.2-2.35-.6-2.6-.9-5.1-.3-1.65-.45-2.95v-1.2q-.15-1-.25-2.7-.35-1.5-.35-1.9 0-2.5.15-2.95.3-1.35 1.2-1.9v.1h.45q4.4-1.9 9.05-4.7 1.05-.8 9.5-6.25-.75 1.5-2.3 3.25-1.35 1.6-2.65 2.85h2.2q4.95-1.25 14.45-3.35 0-.1.05-.1v.45q-.05.15-1.3 2.85-1.05 2.5-1.5 3.25 1.5-1.55 4.2-2.95 2.5-1.1 4.15-1.85.15 1.55.9 3.2 1.15 2.35 2.8 2.45-.3-1.75-.3-4.65 2.05 2.2 4.05 3.8.45.3.7.6 2.8 2.05 6.2 3.4-.9-2.55-1.35-4.15-.1-.3-.3-.6-.7-2.5-.85-4.9 1.6 4.75 1.9 5.65 0 .15.15.15 1.35 2.95 4 4.3V204.15q.5 1.95 1.1 4.55.65 2.2 1.75 4.9 1.55 4.65 1.55 9.45v3.85q-.05 1.6-.65 2.5v.55q-.242.194-.25.45v.25q1.25 0 3.2-.2.7-.05 1.3-.05.75-.25 1.35-.25v-.35q-.75-.4-1.2-.85-1-.7-1.35-2.2-.1-.55-.1-2.35v-2.35q0-1.35.1-2.5v-.3-.6q.45-5.05 2.1-7.55 1.15-1.95 1.5-2.55.7-1.75.7-4.65 0-1.65-1.15-4.8-.45-1.5-.75-2.4-.45-1-.75-1.3h.45q.75.7 1.35 1.3 1.1 1.3 1.3 2.5v-1.85q-.05-.35-.05-.65-1.3-5.95-4.8-8h1.9q1.45 0 1.8.15 1 0 2.45.8h2.2q-1.8-3.95-7.8-5.05-1.6-.45-2.5-.45 2.65-2.2 4-3.4 2.5-2.2 3.55-3.8l-9.3-1.05q-2.3-.85-4.05.8-2.35-.35.9-4 2.5-2.45 3.65-3.8-1.95.6-8.05 1.15-6.05.6-9.8 3.65.15-5.1-4-10.25-4.2-5.2-6.4-13.55-2.95 4.95-3.7 10.25v7.1q-2.65-1.9-7.8-4.6-5.4-2.8-7.85-3.85v6.05l.85 5.2.3.9q-9.55-1.15-19.15 6.85m26 6.2q-.65-.45-2.85-1.35-2.25-.85-3.85-2.2h2.1q1 0 3.8.9 3.75 1.05 4.8 1.15-1.2-1.75-1.8-3.8 0-.15-1.25-3.9.95.95 4.8 5.05 2.65 2.65 2.45 2.25 1.5 2.05 8.95.55v-.15h.15q0 .15-.55 1.35-.45 1.15-2.55 2.35l1.05.3v-.15q1.3-.6 3.1.6-1.8 1.15-4.8 1.15-2.85 0-6.05-1v.5q.75.65 2.8 1.85 1.7.95 2.8 1.45-10.45-4.25-15.15-3.8-4.8.5-5.95.8-1.05.2-2.55.8 1.2-1.6 4.45-3 3.55-1.7 6.1-1.4v-.3m.9-9.8q.048.29.05.55-.003-.1-.05-.1v-.45m26.85 16.25q-.89-.025-2.1-.8-1.85-.95-2.75-1.4 5.4-2.05 8.3-1.75h2.1q2.65.45 4.55 2.2v.45h-4.4q1.15 1.25 3.15 2.85 1.25 1.5 1.25 4.3v.85q-.05-.25-.3-.45-.45-.45-1.6-1.15-1.5-1-2.95-1.45l.1.1q.2.15.35.35.85.9 1.55 2.15.35.65.65 1.35v.9q-1.65-1.45-2.65-2.25-.45-.3-.75-.55-1.15-.9-4.35-1.05-3.1 0-4.1.6-.75.4-1.55 1-.35.2-.65.45.15-.25.4-.45 1.05-1.45 1.8-2.35 1.3-1.45 3.15-1.6h.45q-.75-.3-2.3-.6-1.45-.4-3.95-.3 3.026-1.39 6.6-1.4z"/><path fill="#FFEAD5" d="M98.35 256.05v8.2q5.05 8.3 15.15 8.3 9.3 0 13.35-8v-8.05q-4.05 8.05-13.35 8.05-10.1 0-15.15-8.5m48.55-39.75q-2.45 1.05-2.8 2.35V219.55q-.1 1.15-.1 2.5v2.35l1.3-2.5q2.4-2.05 4.15 1.15-2.1-.25-3.1 2.4-.75 1.45-.9 3.5.45.45 1.2.85v.35q-.6 0-1.35.25-.6 0-1.3.05-1.95.2-3.2.2 0 .45-.15.95-.2.6-.5 1.25.15-.65.35-1.25.15-.5.3-1.15v-.05-.45-.45q-.45-2.95-3.35-5.1-4-2.9-8.85-2.9-4.95 0-8.3 1-4 1.2-5.85 8.9 1.25-7.55 1.85-10.35 1.45-7 4.45-10.4 1-1.3 2.45-2.2-.1 0-.1-.35-1.65-.1-2.8-2.45-.75-1.65-.9-3.2-1.65.75-4.15 1.85-2.7 1.4-4.2 2.95.45-.75 1.5-3.25 1.25-2.7 1.3-2.85l-.05-.35q-9.5 2.1-14.45 3.35h-2.2q1.3-1.25 2.65-2.85 1.55-1.75 2.3-3.25-8.45 5.45-9.5 6.25-4.65 2.8-9.05 4.7h-.45v-.1q-.9.55-1.2 1.9-.15.45-.15 2.95 0 .4.35 1.9h.25q0-1.1.3-2.05v-.15q1.85-4.3 6.7-5.9 3.4-1.2 8.25-1.05 4.7.3 7.75 3.7 2.45 2.95 4.85 10.25.3 1.05.75 3.25 0 .15.1.25-.09 0-.05.15-.05-.16-.05-.25l-.15-.15q-3.25-3.55-4.9-3.85-1.6-.3-6.15-1.2-4.65-.8-10.1 4.4-3.75 3.65-5.1 7.35-.45-1.5-.85-2.8-.3.8-1.2 2.35-.85 1.05-1.65 1.65-1.1.7-2.2.75.15-.35.3-.75.3-.75.6-1.45V230q0-1.1-1.05-3.45-1.15-2.6-2.05-3.5l1.05-.25h.3q.7.25 1.3.7l.9.9v-1.45q0-3.7-.6-7.15-3.35-.15-4.2 4.2-.95 6.2 1.1 11.6.65 1.75 1.65 3.45 3.25 2.8 4.7 2.55 2.5-.3 3.1-3.7.45 1.5 1.1 2.8.15.15.15.45.35 1.05.8 1.9 0 .15.15.15 2.2 5.15 4.2 6.1.2 1.4 6.2 6.65.8.6 1.45 1.3 8.35 6.9 12.6 6.9 4.65 0 10.2-4.75 2.25-2.15 4.25-3.75 2.2-2.05 3.95-3.85.3-.25.6-.6.45-.5.9-.85.85-1.05 1.75-2 2.65-3.25 4.1-6.6.45-1.2 1.05-2.25.65.6 1.6 1.2 2 1.05 4.2 1.05.9 0 1.8-.6.7-.9 2.65-5.4 0-.05.1-.15 1.95-4.4 1.2-11.6-1.15-4.8-3.85-3.7m-42.75 29.45q3.25 0 4.95.65 1.55.65 3.75.4 2.15-.25 4.5-.6 2.35-.45 6.4-3.05-4.05 2.6-6.4 3.05-2.35.35-4.5.6-2.2.25-3.75-.4-1.7-.65-4.95-.65m10.55-6.1q-1.2 1.25-2.3 1.25-.5 0-2.05-2.45-1.65-2.35-1.25-3.4.05.9 1.55 1.65 1.45.75 2.55.75 1.5 0 1.55-.15.65-.3 3.6-2.75-2.5 3.75-3.65 5.1m3.25 12.15q0 .75-.85 1.7-.5.8-6.6.15l-.75-.45-.6-.5v-.15l-.45-.3q.45-.9 1.8-1.2.55-.15 2.2-.15.8 0 2.55.45 1.65.45 2.7.45z"/><path fill="#FEC289" d="M98.35 251.95v4.1q5.05 8.5 15.15 8.5 9.3 0 13.35-8.05v-4.85q-2 1.6-4.25 3.75-5.55 4.75-10.2 4.75-4.25 0-12.6-6.9-.65-.7-1.45-1.3m11.85-31.5q-2.4-7.3-4.85-10.25-3.05-3.4-7.75-3.7-4.85-.15-8.25 1.05-4.85 1.6-6.7 5.9v.15q-.3.95-.3 2.05-.15 1.25 0 2.7v1.2q.15 1.3.45 2.95.3 2.5.9 5.1.4 1.3.85 2.8 1.35-3.7 5.1-7.35 5.45-5.2 10.1-4.4 4.55.9 6.15 1.2 1.65.3 4.9 3.85h.15q-.45-2.2-.75-3.25m33.8 3.95q0 1.8.1 2.35.35 1.5 1.35 2.2.15-2.05.9-3.5 1-2.65 3.1-2.4-1.75-3.2-4.15-1.15l-1.3 2.5m-4.8 11.1q-.6 1.05-1.05 2.25 2.3 2.5 3.55 2.5h.35q2.5 0 4.75-3.1-.9.6-1.8.6-2.2 0-4.2-1.05-.95-.6-1.6-1.2m-.8-26.8q-.45-.25-1.1-.4v3.4q-2.65-1.35-4-4.3-.15 0-.15-.15-.3-.15-.75-.15.45 1.6 1.35 4.15-3.4-1.35-6.2-3.4-.25-.3-.7-.6-2 .3-3.4 1.2h-.25q-1.45.9-2.45 2.2-3 3.4-4.45 10.4-.6 2.8-1.85 10.35 1.85-7.7 5.85-8.9 3.35-1 8.3-1 4.85 0 8.85 2.9 2.9 2.15 3.35 5.1l.25-.1q.35-1.3.65-2.85v-3.5q0-4.8-1.55-9.45-1.1-2.7-1.75-4.9m-21.3 44.8q.85-.95.85-1.7-1.05 0-2.7-.45-1.75-.45-2.55-.45-1.65 0-2.2.15-1.35.3-1.8 1.2l.45.3.6.65.75.45q6.1.65 6.6-.15m-4.7-12.6q1.1 0 2.3-1.25 1.15-1.35 3.65-5.1-2.95 2.45-3.6 2.75-.05.15-1.55.15-1.1 0-2.55-.75-1.5-.75-1.55-1.65-.4 1.05 1.25 3.4 1.55 2.45 2.05 2.45z"/><path fill="#FF9" d="M113.8 200.8l.05.35v-.45q-.05 0-.05.1m9 2.65q0 2.9.3 4.65h.1l.25.35q1.4-.9 3.4-1.2-2-1.6-4.05-3.8m9.6 3.65q.45 0 .75.15-.3-.9-1.9-5.65.15 2.4.85 4.9.2.3.3.6m6 1.6q-.6-2.6-1.1-4.55v4.15q.65.15 1.1.4z"/><path fill="#FFF" d="M126.85 189.65q1.21.775 2.1.8-3.574.01-6.6 1.4 2.5-.1 3.95.3 1.55.3 2.3.6h-.45q-1.85.15-3.15 1.6-.75.9-1.8 2.35-.25.2-.4.45.3-.25.65-.45.8-.6 1.55-1 1-.6 4.1-.6 3.2.15 4.35 1.05.3.25.75.55 1 .8 2.65 2.25v-.9q-.3-.7-.65-1.35-.7-1.25-1.55-2.15-.15-.2-.35-.35l-.1-.1q1.45.45 2.95 1.45 1.15.7 1.6 1.15.25.2.3.45v-.85q0-2.8-1.25-4.3-2-1.6-3.15-2.85h4.4v-.45q-1.9-1.75-4.55-2.2h-2.1q-2.9-.3-8.3 1.75.9.45 2.75 1.4m-28.5-7q2.2.9 2.85 1.35v.3q-2.55-.3-6.1 1.4-3.25 1.4-4.45 3 1.5-.6 2.55-.8 1.15-.3 5.95-.8 4.7-.45 15.15 3.8-1.1-.5-2.8-1.45-2.05-1.2-2.8-1.85v-.5q3.2 1 6.05 1 3 0 4.8-1.15l-3.1-.45-1.05-.3q2.1-1.2 2.55-2.35.55-1.2.55-1.35l-.15.15q-7.45 1.5-8.95-.55.2.4-2.45-2.25-3.85-4.1-4.8-5.05 1.25 3.75 1.25 3.9.6 2.05 1.8 3.8-1.05-.1-4.8-1.15-2.8-.9-3.8-.9h-2.1q1.6 1.35 3.85 2.2z"/></g><path d="M100.05 211.95q7.05-1.2 6.05-3.1-13.1-2.8-22.1 0 8.5 0 16.05 3.1z" id="j"/><path d="M123.5 211.95q7.5-3.1 16-3.1-8.95-2.8-22.05 0-1 1.9 6.05 3.1z" id="k"/><path fill="#FFF" d="M101.4 219.1q-4.3-1.1-9.8 0l2.05 3.8 7.75-.1q.6-.3 1-.55 1.6-.65.6-1.8-.45-.6-1.6-1.35z" id="l"/><g id="n"><path fill="#333" d="M97.75 218.35q-.9 0-1.5.65-.6.6-.6 1.6t.6 1.6l.05.05q.55.65 1.45.65.85 0 1.4-.65l.15-.05q.6-.6.6-1.6t-.6-1.6q-.7-.65-1.55-.65m.1 1.85q-.15-.2-.15-.45 0-.8.9-.9.4 0 .55.25.2.2.2.65 0 .25-.15.55-.2.4-.6.4l-.15.15q-.1-.1-.15-.1v-.05q-.3-.25-.45-.5z"/><path fill="#C90" d="M98.45 220.85l.15-.15h-.3v.05q.05 0 .15.1z"/><path fill="#FFF" d="M97.7 219.75q0 .25.15.45.15.25.45.5h.3q.4 0 .6-.4.15-.3.15-.55 0-.45-.2-.65-.15-.25-.55-.25-.9.1-.9.9z"/></g><path fill="#FFF" d="M130.7 222.9l2.05-3.8q-5.45-1.1-9.8 0-1.1.75-1.55 1.35-1 1.15.6 1.8.35.25.95.55l7.75.1z" id="p"/><g id="r"><path fill="#333" d="M125.1 222.2l.15.05q.55.65 1.35.65.95 0 1.45-.65l.1-.05q.6-.6.6-1.6t-.6-1.6q-.6-.65-1.55-.65-.8 0-1.5.65-.6.6-.6 1.6t.6 1.6m.15-3.1q.15-.25.55-.25.9.1.9.9 0 .25-.15.45-.15.25-.45.5v.05q-.1 0-.15.1l-.15-.15q-.4 0-.65-.4-.15-.3-.15-.55 0-.45.25-.65z"/><path fill="#C90" d="M126.1 220.7h-.3l.15.15q.05-.1.15-.1v-.05z"/><path fill="#FFF" d="M125.8 218.85q-.4 0-.55.25-.25.2-.25.65 0 .25.15.55.25.4.65.4h.3q.3-.25.45-.5.15-.2.15-.45 0-.8-.9-.9z"/></g><path id="c" stroke="#F93" stroke-linejoin="round" stroke-linecap="round" fill="none" d="M47.9 333.65q.05 1.45.15 3.1"/><path id="e" stroke="#F93" stroke-linejoin="round" stroke-linecap="round" fill="none" d="M92.7 315.2h.95q2.2-.15 4.65-.3.45 0 1-.05m2.7-.15q-.9.05-1.9.15m2.475-.25h.025v5.45m-.025-5.45q-.294.006-.575.1m-1.9.15h-.8"/><path id="g" stroke="#F93" stroke-linejoin="round" stroke-linecap="round" fill="none" d="M150.45 314.05q.45 0 1-.05m.85 0q.95-.1 1.9-.15m.575-.1h.025v5.5m-9.95-4.9h.95q2.25-.15 4.65-.3m1-.05h.85m1.9-.15q.28-.094.575-.1"/><path id="i" stroke="#F93" stroke-linejoin="round" stroke-linecap="round" fill="none" d="M104.15 245.75q3.25 0 4.95.65 1.55.65 3.75.4 2.15-.25 4.5-.6 2.35-.45 6.4-3.05"/><path id="m" stroke="#000" stroke-linejoin="round" stroke-linecap="round" fill="none" d="M101.4 219.1q-4.3-1.1-9.8 0"/><path id="o" stroke="#000" stroke-linejoin="round" stroke-linecap="round" fill="none" d="M102.95 220.3q-.5-.6-1.7-1.3-4.25-1.15-9.8 0"/><path id="q" stroke="#000" stroke-linejoin="round" stroke-linecap="round" fill="none" d="M122.95 219.1q4.35-1.1 9.8 0"/><path id="s" stroke="#000" stroke-linejoin="round" stroke-linecap="round" fill="none" d="M121.45 220.3q.45-.6 1.65-1.3 4.25-1.15 9.8 0"/></defs><use xlink:href="#a" transform="translate(-37.8 -149.9)"/><g transform="translate(-37.8 -149.9)"><use xlink:href="#b"/><use xlink:href="#c"/></g><g transform="translate(-37.8 -149.9)"><use xlink:href="#d"/><use xlink:href="#e"/></g><g transform="translate(-37.8 -149.9)"><use xlink:href="#f"/><use xlink:href="#g"/></g><g transform="translate(-37.8 -149.9)"><use xlink:href="#h"/><use xlink:href="#i"/></g><use xlink:href="#j" transform="translate(-37.8 -149.9)"/><use xlink:href="#k" transform="translate(-37.8 -149.9)"/><g transform="translate(-37.8 -149.9)"><use xlink:href="#l"/><use xlink:href="#m"/></g><use xlink:href="#n" transform="translate(-37.8 -149.9)"/><use xlink:href="#o" transform="translate(-37.8 -149.9)"/><g transform="translate(-37.8 -149.9)"><use xlink:href="#p"/><use xlink:href="#q"/></g><use xlink:href="#r" transform="translate(-37.8 -149.9)"/><use xlink:href="#s" transform="translate(-37.8 -149.9)"/></svg>