<svg xmlns="http://www.w3.org/2000/svg" width="82" height="38" viewBox="0 0 82 38"><g fill-rule="evenodd" clip-rule="evenodd"><path fill="#E1E1E1" d="M.15 34.1C20.083 23.466 44.7 14.183 74 6.25l.2-.05c-.433-1.767-.4-3.75.1-5.95L2.4 28.75c-1.467.633-2.267 1.8-2.4 3.5-.033.7.017 1.316.15 1.85z"/><path fill="#FFF" d="M74.2 6.2l-.2.05C44.7 14.183 20.083 23.466.15 34.1c.233.867.65 1.55 1.25 2.05 1.333 1.066 2.733 1.3 4.2.7l74.7-24.9c-3.833.5-5.866-1.417-6.1-5.75z"/><path fill="#BBB" d="M74.3.25c-.5 2.2-.533 4.183-.1 5.95.233 4.333 2.267 6.25 6.1 5.75l.65-.2c2.1-4.9.767-8.817-4-11.75L74.3.25z"/></g></svg>