<?xml version="1.0" encoding="utf-8"?>
<!-- Generator: Adobe Illustrator 16.0.0, SVG Export Plug-In . SVG Version: 6.00 Build 0)  -->
<!DOCTYPE svg PUBLIC "-//W3C//DTD SVG 1.1//EN" "http://www.w3.org/Graphics/SVG/1.1/DTD/svg11.dtd">
<svg version="1.1" id="Camada_1" xmlns="http://www.w3.org/2000/svg" xmlns:xlink="http://www.w3.org/1999/xlink" x="0px" y="0px"
	 width="82px" height="38px" viewBox="0 0 82 38" enable-background="new 0 0 82 38" xml:space="preserve">
<g>
	<g>
		<g>
			<path fill-rule="evenodd" clip-rule="evenodd" fill="#E1E1E1" d="M0.15,34.1C20.083,23.466,44.7,14.183,74,6.25l0.2-0.05
				c-0.433-1.767-0.4-3.75,0.1-5.95L2.4,28.75c-1.467,0.633-2.267,1.8-2.4,3.5C-0.033,32.95,0.017,33.566,0.15,34.1z"/>
			<path fill-rule="evenodd" clip-rule="evenodd" fill="#FFFFFF" d="M74.2,6.2L74,6.25C44.7,14.183,20.083,23.466,0.15,34.1
				c0.233,0.867,0.65,1.55,1.25,2.05c1.333,1.066,2.733,1.3,4.2,0.7l74.7-24.9C76.467,12.45,74.434,10.533,74.2,6.2z"/>
			<path fill-rule="evenodd" clip-rule="evenodd" fill="#BBBBBB" d="M74.3,0.25c-0.5,2.2-0.533,4.183-0.1,5.95
				c0.233,4.333,2.267,6.25,6.1,5.75l0.65-0.2c2.1-4.9,0.767-8.817-4-11.75L74.3,0.25z"/>
		</g>
	</g>
</g>
</svg>
