<svg xmlns="http://www.w3.org/2000/svg" xmlns:xlink="http://www.w3.org/1999/xlink" preserveAspectRatio="none" width="214" height="214" viewBox="0 0 214 214"><defs><g id="a"><path fill="#FFF" d="M434.15 132.95l.1-.1-.05-.05q0 .05-.05.15z"/><path fill="#F7F7F7" d="M422.3 89.7q-.9-.25-1.9-1.7-1.2-1.8-1.9-2.75t-1.4-1.6Q406.5 81.5 395 81.5q-43.9 0-74.95 30.95-30.95 31.05-30.95 74.95 0 43.95 30.95 74.85Q351.1 293.3 395 293.3q43.9 0 74.85-31.05 31.05-30.9 31.05-74.85 0-32.65-17.15-58.2-.45 0-.85-.45-.25-.3-.35-.6-.6.15-1 .75-.3.4-.3.6 0 .3.2.55.25.25.25.5 0 .55-.25 2.05h-2.95q-1.15-.4-3.7-3.85-2.15-2.95-5.1-2.95-.65-.1-1.05 0-.65.1-.65.9 0 .3.25.35.2.05.2.3 0 .3-.1.45-.1.1-.1.35h-2.35q0 .4-.25 1.05l.45.2q-.1 0 0 .25h-.2q-.7 0-2.35-.65-1.65-.65-2.5-.65-1.2 0-3.35 1.05-2 1.1-2.2 1.1-1.05 0-3.1-2.65-2.1-2.9-2.55-3.35-.4.75-.4 1.6 0 .5 1.05 2.25t1.05 1.9q0 1.35-.4 1.5h-1.7q-2.45 0-3.1-.9-1.3-1.8-1.4-1.85-.15.25-.15.65v.1q-.05.05 0 .1-.05.15-.05.35v.5h-1.3l-.8-1.2q-.15-.1-1.35-.1-.8 0-1.25.45 0 .05.2.4.2.35.2.65 0 .4-.4 1.1-.55.85-1.2.85-1.5 0-1.4-1.15.15-1.2-1.25-1.2-1.25 0-1.6.9-.1.4-.4 1.4l.05.05q.15 0 .35.4.3.55.3 1.3 0 .55-.4 1.25-.55.85-1.3.85-.55 0-1.2-.4-.65-.45-1.05-.45-.65 0-1.4.85-.95 1.2-1.5 1.5v1.3q.9-.45 1.6-.45.6 0 1.4.9-.05.75-1.2 2.3-.3.35-2 2.4-.3.35-3.2 1.3-1.75.6-.65 2.75h-2.35q0 .25-.4 1.35-.45 1.05-.45 1.85 0 .25.25.65.2.5.2.85.2 0 1.05-.25.05-1 .1-1.6.1-1.15.75-1.8h1.3q0 .45-.3 1.5-.35 1-.35 1.35 0 2.05 1.85 3.5 1.95 1.55 4.35.7-.15 1.05-.4 1.2-.1.1-1.3.1-.95 0-1.1-.05-.3-.05-.4-.4h-1.1q.05.9-.05 1-.05.05-.7.05-1.2 0-1.3-.85 0-1.15-.3-1.7h-1.05q.2.5-1.25.45-1.3 0-1.5-.25.15-.25.35-.25.2.05.25-.35v-.65q0-.85-1.75-2.1-1.85-1.3-1.85-2.75 0-.8.4-1.2.45-.35.45-.7 0-.45-1.3-4-1.25-3.5-1.25-3.7 0-1.6 2.1-3.05 2.15-1.45 2.15-2.15 0-.3-.1-.55-.1-.25-.1-.3-.35 0-.9.2t-.8.2q-1.1-.2-1.5-.2v-.65q.85-.4 3.85-1.8 2.55-1.55 2.55-3.75 0-.45-.45-1.3-.35-.8-.4-.85-.5.9-1.95 3.65h-.4q0-.15-.1-.15l-.1-.05v-.55q0-.3.2-.6.05-.15.15-.2.1-.1.15-.1.2-.6.55-2.3.4-1.95.65-2.25.55-1 1.7-1.5.85-.35.85-1.2 0-.55-.45-.9-.4-.45-.4-.9 0-.75 3.4-3.75 3.45-3 3.45-5.2 0-.9-.3-1.7-.35-.85-.35-1.5 0-1.2 2.9-3.6 2.85-2.4 2.85-2.7 0-2.55-1.15-3.1-1.2-.55-1.2-1.2 0-.8.05-.85.1-.05.8-.75-.3-.15-2.7-1.15-1.85-.75-2.4-1.2-2.05-1.6-2.25-1.75-1.05-.65-2.9-1.2m-45.7 105.95q-.9-1.95-.15-2.4.3-.2 1.85-.2 1 0 1.8 1.7.75 1.7.35 2.6l.9.05q.9-.65.95-.8.3-.35.3-1.4 0-1.85-.95-2.8-1.45-1.15-2.5-2.35.75-.55 2.75-2.55 2-1.7 3.45-1.7 1.35 0 2 1.8.75 1.7.35 3.75h2.15q1.75-.5 3.4 2.15 1.4.15 2.15-1.4.8-1.6 2.15-1.6 1.5 0 2.25 1.8.7 1.6.3 3.35h1.25q1.3-.95 1.5-1.2.25-.35.25-1.15 0-1.8-2.15-2.8 0-.45.4-1.5.45-1.05.45-1.5-2.25-1.15-2.55-2.15.7-.95 3-2.55 2.35-1.7 3.4-1.7 1.55 0 1.8.15.7.45.35 2.4.65 0 1.65-.2.65-.15 1.3-.2.1-.9.6-2.35.6-1.95 2-2.35 1.8-.55 3.1-1.95 1.6-1.6.75-3.2h1.25q.25.4 1.1 2 .9 1.45 1.9 1.45.4 0 2.1-1.75 1.65-1.7 3.25-1.7 1.8 0 2.15.2 1.1.4 1.45 2.3v.1h-.4q-3.8 0-4.65 1.6-1.4 2.55-3.05 3.5-2.25 1.25-3.05 4-.4 1.55-.8 4.1h-3.85q-.9 4-3.75 9-2.65 4.2-2.65 4.25 0 1.05 1.7 4.05 1.15 2.05 1.55 4.05l.05.05h-.3v2.1h2.15q0-.4.2-.85.2-.4.2-.85h2.15q0 .85.45.85-1.05.95-1.2 1.1-.85.65-1.4.6.45 1.3 4.35 2.3 2 .45 4 .7.4 0 .45-.15.45-1.2.6-1.55h2.55q0 .45.25 1.05.2.65.2 1.1l.2.05q.25.1.25.35.15-.05.35.05.25-.05.9-.9H430q-1.2 3.05 2.45 5 .9.5 2.65 1.45 1.3.9 1.3 1.9 0 .75-.1.9-.25.25-1.6.6 2.35 1.8 2.8 3.95.2.85.2 5.85 0 3.55-.3 4.2-.85 1.7-4.85 1.8 0 .65.2 2 .25 1.3.25 1.85 0 1.55-1.5 2.8-1.5 1.2-1.5 2.3 0 .55.4 1.95.45 1.4.45 1.9 0 2.4-2.55 3.2-3.1.95-3.45 1.5-.75 1.25-1.2 3.7-.6 1.85-3.05 1.85-.45 0-1.3-.85-.8-.85-1.7-.85-1.95 0-3.4 1.6-1.25 1.55-2.55 2.95-.2.3-.9 1 .05 1.05-.6 1.25-.1.05-.85.05-1.35 0-3.45-.85-2.15-.85-3.2-.9 0 1.6-.65 3.05-.8 1.8-1.05 3.4h-2.15q-.5-.8-1.25-1.15-.85-.3-1.3-.6-.6 1.6-.6 1.65-.1.1-1.55.1-.65 0-1.65-.25-1.35-.4-2.2-.6h-2.95q0 .4-.25 1.25-.2.85-.2 1.3h-3.4q-.75-.4-3.15-3.45-2-2.55-3.9-2.55-.4 0-1.7 1.3-1.35 1.25-1.95 1.25-1.3 0-1.9-1.15 0-.1-.75-2.45-1.05-3.65-5.25-3.65-.5 0-1.35.45-.85.4-1.45.4-2.4 0-5.55-2.6-2.9-2.4-2.95-3.8-.1-1.15-.4-2.15-.6-2.05-2.05-3.55-1.7-1.75-2.75-3.1-2.5-5.35-2.5-10.65 0-1.6 1.6-3.8 1.4-2 .95-4.1h2.55q1.25 1 3.2 1.05 1.1 0 2.8-.2v2.6q-1.3 1.2-1.3 1.7 0 1.05.45 1.3 4.2-.6 6.15-3.35 1.95-2.85 1.95-8.65v-3.3q-.35-2.3-2.55-2.65v-3.45q1.05-1.6 1.7-3.85 0-.5-.4-3.4-.45-2.85-.45-3.4 0-2.75.25-2.85 2-.6 4-2.3-1.05-.4-1.15-.6-.1-.1-.1-1.5 0-.9 1.7-1.75 1.85-.85 4.25-.85.5 0 2.35.45 1.85.4 2.8.4v-2.95M440.25 154v1.05q-.9 0-1.45.35-.6.3-1.45.3-1.05 0-1.3-.05-.05 0-.1-.05-.4-.2-.8-.75l-.05-.05q-.6-.65-.6-1.05 0-.65.4-1.05.4-.45.95-.45.15 0 1.6.55 1.75.65 2.8 1.2z"/><path fill="#BBB" d="M440.25 155.05V154q-1.05-.55-2.8-1.2-1.45-.55-1.6-.55-.55 0-.95.45-.4.4-.4 1.05 0 .4.6 1.05l.05.05q.4.55.8.75.05.05.1.05.25.05 1.3.05.85 0 1.45-.3.55-.35 1.45-.35z"/><path fill="#B3B3B3" d="M376.45 193.25q-.75.45.15 2.4v2.95q-.95 0-2.8-.4-1.85-.45-2.35-.45-2.4 0-4.25.85-1.7.85-1.7 1.75 0 1.4.1 1.5.1.2 1.15.6-2 1.7-4 2.3-.25.1-.25 2.85 0 .55.45 3.4.4 2.9.4 3.4-.65 2.25-1.7 3.85v3.45q2.2.35 2.55 2.65v3.3q0 5.8-1.95 8.65-1.95 2.75-6.15 3.35-.45-.25-.45-1.3 0-.5 1.3-1.7v-2.6q-1.7.2-2.8.2-1.95-.05-3.2-1.05h-2.55q.45 2.1-.95 4.1-1.6 2.2-1.6 3.8 0 5.3 2.5 10.65 1.05 1.35 2.75 3.1 1.45 1.5 2.05 3.55.3 1 .4 2.15.05 1.4 2.95 3.8 3.15 2.6 5.55 2.6.6 0 1.45-.4.85-.45 1.35-.45 4.2 0 5.25 3.65.75 2.35.75 2.45.6 1.15 1.9 1.15.6 0 1.95-1.25 1.3-1.3 1.7-1.3 1.9 0 3.9 2.55 2.4 3.05 3.15 3.45h3.4q0-.45.2-1.3.25-.85.25-1.25h2.95q.85.2 2.2.6 1 .25 1.65.25 1.45 0 1.55-.1 0-.05.6-1.65.45.3 1.3.6.75.35 1.25 1.15h2.15q.25-1.6 1.05-3.4.65-1.45.65-3.05 1.05.05 3.2.9 2.1.85 3.45.85.75 0 .85-.05.65-.2.6-1.25.7-.7.9-1 1.3-1.4 2.55-2.95 1.45-1.6 3.4-1.6.9 0 1.7.85.85.85 1.3.85 2.45 0 3.05-1.85.45-2.45 1.2-3.7.35-.55 3.45-1.5 2.55-.8 2.55-3.2 0-.5-.45-1.9-.4-1.4-.4-1.95 0-1.1 1.5-2.3 1.5-1.25 1.5-2.8 0-.55-.25-1.85-.2-1.35-.2-2 4-.1 4.85-1.8.3-.65.3-4.2 0-5-.2-5.85-.45-2.15-2.8-3.95 1.35-.35 1.6-.6.1-.15.1-.9 0-1-1.3-1.9-1.75-.95-2.65-1.45-3.65-1.95-2.45-5h-2.15q-.65.85-.9.9-.2-.1-.35-.05 0-.25-.25-.35l-.2-.05q0-.45-.2-1.1-.25-.6-.25-1.05h-2.55q-.15.35-.6 1.55-.05.15-.45.15-2-.25-4-.7-3.9-1-4.35-2.3.55.05 1.4-.6.15-.15 1.2-1.1-.45 0-.45-.85h-2.15q0 .45-.2.85-.2.45-.2.85h-2.15v-2.1h.25v-.05q-.4-2-1.55-4.05-1.7-3-1.7-4.05 0-.05 2.65-4.25 2.85-5 3.75-9h3.85q.4-2.55.8-4.1.8-2.75 3.05-4 1.65-.95 3.05-3.5.85-1.6 4.65-1.6h.4v-.1q-.35-1.9-1.45-2.3-.35-.2-2.15-.2-1.6 0-3.25 1.7-1.7 1.75-2.1 1.75-1 0-1.9-1.45-.85-1.6-1.1-2h-1.25q.85 1.6-.75 3.2-1.3 1.4-3.1 1.95-1.4.4-2 2.35-.5 1.45-.6 2.35-.65.05-1.3.2-1 .2-1.65.2.35-1.95-.35-2.4-.25-.15-1.8-.15-1.05 0-3.4 1.7-2.3 1.6-3 2.55.3 1 2.55 2.15 0 .45-.45 1.5-.4 1.05-.4 1.5 2.15 1 2.15 2.8 0 .8-.25 1.15-.2.25-1.5 1.2h-1.25q.4-1.75-.3-3.35-.75-1.8-2.25-1.8-1.35 0-2.15 1.6-.75 1.55-2.15 1.4-1.65-2.65-3.4-2.15h-2.15q.4-2.05-.35-3.75-.65-1.8-2-1.8-1.45 0-3.45 1.7-2 2-2.75 2.55 1.05 1.2 2.5 2.35.95.95.95 2.8 0 1.05-.3 1.4-.05.15-.95.8l-.9-.05q.4-.9-.35-2.6-.8-1.7-1.8-1.7-1.55 0-1.85.2z"/><path fill="#B7B7B7" d="M420.4 88q1 1.45 1.9 1.7 1.85.55 2.9 1.2.2.15 2.25 1.75.55.45 2.4 1.2 2.4 1 2.7 1.15-.7.7-.8.75-.05.05-.05.85 0 .65 1.2 1.2 1.15.55 1.15 3.1 0 .3-2.85 2.7-2.9 2.4-2.9 3.6 0 .65.35 1.5.3.8.3 1.7 0 2.2-3.45 5.2-3.4 3-3.4 3.75 0 .45.4.9.45.35.45.9 0 .85-.85 1.2-1.15.5-1.7 1.5-.25.3-.65 2.25-.35 1.7-.55 2.3-.05 0-.15.1-.1.05-.15.2-.2.3-.2.6v.55l.1.05q.1 0 .1.15h.4q1.45-2.75 1.95-3.65.05.05.4.85.45.85.45 1.3 0 2.2-2.55 3.75-3 1.4-3.85 1.8v.65q.4 0 1.5.2.25 0 .8-.2t.9-.2q0 .05.1.3t.1.55q0 .7-2.15 2.15-2.1 1.45-2.1 3.05 0 .2 1.25 3.7 1.3 3.55 1.3 4 0 .35-.45.7-.4.4-.4 1.2 0 1.45 1.85 2.75 1.75 1.25 1.75 2.1v.65q-.05.4-.25.35-.2 0-.35.25.2.25 1.5.25 1.45.05 1.25-.45h1.05q.3.55.3 1.7.1.85 1.3.85.65 0 .7-.05.1-.1.05-1h1.1q.1.35.4.4.15.05 1.1.05 1.2 0 1.3-.1.25-.15.4-1.2-2.4.85-4.35-.7-1.85-1.45-1.85-3.5 0-.35.35-1.35.3-1.05.3-1.5h-1.3q-.65.65-.75 1.8-.05.6-.1 1.6-.85.25-1.05.25 0-.35-.2-.85-.25-.4-.25-.65 0-.8.45-1.85.4-1.1.4-1.35H424q-1.1-2.15.65-2.75 2.9-.95 3.2-1.3 1.7-2.05 2-2.4 1.15-1.55 1.2-2.3-.8-.9-1.4-.9-.7 0-1.6.45v-1.3q.55-.3 1.5-1.5.75-.85 1.4-.85.4 0 1.05.45.65.4 1.2.4.75 0 1.3-.85.4-.7.4-1.25 0-.75-.3-1.3-.2-.4-.35-.4l-.1.1q.05-.1.05-.15.3-1 .4-1.4.35-.9 1.6-.9 1.4 0 1.25 1.2-.1 1.15 1.4 1.15.65 0 1.2-.85.4-.7.4-1.1 0-.3-.2-.65-.2-.35-.2-.4.45-.45 1.25-.45 1.2 0 1.35.1l.8 1.2h1.3v-.5q0-.2.05-.35-.05-.05 0-.1v-.1q0-.4.15-.65.1.05 1.4 1.85.65.9 3.1.9h1.7q.4-.15.4-1.5 0-.15-1.05-1.9t-1.05-2.25q0-.85.4-1.6.45.45 2.55 3.35 2.05 2.65 3.1 2.65.2 0 2.2-1.1 2.15-1.05 3.35-1.05.85 0 2.5.65t2.35.65h.2q-.1-.25 0-.25l-.45-.2q.25-.65.25-1.05h2.35q0-.25.1-.35.1-.15.1-.45 0-.25-.2-.3-.25-.05-.25-.35 0-.8.65-.9.4-.1 1.05 0 2.95 0 5.1 2.95 2.55 3.45 3.7 3.85h2.95q.25-1.5.25-2.05 0-.25-.25-.5-.2-.25-.2-.55 0-.2.3-.6.4-.6 1-.75.1.3.35.6.4.45.85.45-5.95-8.8-13.9-16.75Q447 89.6 417.1 83.65q.7.65 1.4 1.6.7.95 1.9 2.75z"/></g><path fill="#FFF" data-correta="#5AC769" fill-opacity=".8" d="M6.25-59.8q7.4-.3 12.15 1.75 4.8 2.05 5.75-.7.95-2.8 3.1-2.8 4.55 0 9.75 3.25-2.65-3.05-2.65-5.65 0-1.8 1.1-2.05.65-.15 2.2 0 5.8 0 16.5 8.8 9.1 7.55 10.35 10.2 4.9 9.8 7.4 14.3 2.65 4.65 5.65 8.75l.35-.1q-.1-1.05-1.5-3.35-1.7-2.6-2.25-3.6v-2.25h3.4q2.1 5.25 6.25 14.3Q87.35-10.4 89.45-.5q.15 0 1.15-.35.8-.3 1.2-.35l.65.7q1.6 2.65 2.45 11.55.5 5.55.5 9.1 0 .25-.35 3.75-.2 1.85-.3 3.15-.1.85-.1 1.5 0 .15-.05.35-.3.9-.3 1.3 0 .5.35 3.1.4 2.55.4 3.05t-.4 3.1Q94.3 42 94.3 42.5q0 2.8.75 4.7 5.05-5 7.1-18.9.65-4.4.95-9.25.1-2.6.1-4.3 0-1.95-2-5.5-2.15-3.8-2.45-5.65-.2-3.25-.4-5.4-.4-4.2-1.05-5.75-.4-1-3.45-5.7-2.15-3.4-1.8-5.15.55-2.55-.65-5.55-1.4-2.75-2.35-4.8-.25-.5-.4-.9-.9-.85-2.05-2.5-1.65-2.5-2.45-3.65v-.8q.2.2.45.4 2 1.95 3.95 4.65 4.5 6.15 8.55 16.2 4 9.9 4.65 11.3 1.85 4.1 3.8 7.15-2.2-39.45-30.8-68Q43.9-95.85.1-95.85q-43.75 0-74.7 30.95-30.95 30.95-30.95 74.7t30.95 74.65q6.3 6.35 13.2 11.4v-.1q-2.95-4.85-2.95-5.95 0-.45.4-1 .35-.55.35-1.1 0-1.4-2.2-1.7-2.65-.35-3.75-2.35-.35-.6-1.15-3.6-.7-2.45-1.45-3.1-1-.85-2.65-1.85-1.6-.9-2.2-1.5-1.1-.95-1.55-3.2-.55-2.4-1.05-3.1-1.5-1.9-3.05-6.9-1.55-5.25-2.2-6.9-1.75-4.25-4.45-7.7-2.05-2.35-3.05-3.75-.4-.5-.6-.85-2.8-2.9-4.35-6.95-1.65-4.4-1.65-9.65 0-7.8 2.6-13.2.5-1.05 1.1-1.9-.2-1.15-.35-2.8l.35 2.75q.2-12.4 6.1-17.8 5.9-5.45 12.8-.15v-4.75q-4.75 1.4-6.2-.25-.8-1.9-1.8-3.05-2.15 1.45-5.25.8-3.15-.7 1.15-11.85 4.2-11.2 19.6-19.9Q-53.5-56.2-42.3-59q10.2-2.45 16.1-2.45 4.2 0 7 1.7 2.1 1.25 3.05 3.1-3.2 3.8-10.85 9.65-8.45 6.4-5.25 9.6-1 2.7.45 13.15 9.1-2.85 11.6.05 2.2 2.6-.7 8.65l.6.35q1.3-1.05 2.45-2l1.4-1.2q7.25-6.1 7.25-6.85 0-.3-3.3-.55-3.35-.25-5.8-1.75-2.5-1.5-1.85-4.6.65-3.15 12.55-6.15 11.9-3.05 12.05-3.1 3.65-1.85 5.45-4.55-3.05-3.9-12.15-5.7-15.2 5.55-9.95 1.45.9-5.7 5.95-7.5 5.05-1.85 12.5-2.1z" id="b"/><path fill="#FFF" data-correta="#DA3A36" fill-opacity=".8" d="M-12.25-50.45q5-7.4 8.2-11.7 1-1.9 0-2.6-.9-1.55-4.1 0Q-11.65-61.3-19.3-51q-2 2.65-3.1 5.55-.6 1.6-1.3 4.1-.6 1.8-1.7 2.5-1.3.85-4.35.85-.45 0-3.55-.35-3.05-.35-3.6-.35-.45 0-2.75.35t-2.8.35q-4 0-7.95-3.65-3.95-3.75-7.65-3.75-5.95 0-9.35 5.1v.05q-.6.85-1.1 1.9-2.6 5.4-2.6 13.2 0 5.25 1.65 9.65 1.55 4.05 4.4 6.95.2.35.55.85 1.05 1.4 3.1 3.75 2.7 3.45 4.45 7.7.65 1.65 2.15 6.9 1.6 4.95 3.05 6.9.5.7 1.05 3.1.5 2.25 1.55 3.2.65.55 2.25 1.5 1.6 1 2.65 1.85.75.65 1.45 3.1.8 3 1.15 3.6 1.05 1.95 3.75 2.35 2.15.3 2.15 1.7 0 .55-.3 1.1-.4.55-.4 1 0 1.1 2.95 5.95.1.1.1.25Q-9.05 64 21.95 65.55 29.75 64.1 45 62.2q19.85-2.55 26.15-7.05v-2.6q-3.45 2.95-6.45 3.5-1.2.2-7.75.2-14.05 0-27.25-3.4-6.1-1.6-24.85-8.15Q-.8 42.75-6 39.35q-6.9-4.45-9.6-5.8-3.8-1.85-5.9-9.5-1.3-6.35-1.9-8.75-.15-.7-.3-1.1-.9-3.6-4.6-17.4Q-32-16.8-32-23.3q0-3.35 2.6-6.15 1.1-1.2 4.1-3.35 2.5-1.7 3.95-4.05 1.45-2.7 2.75-4.45 1.35-1.8 6.35-9.15z" id="c"/><path fill="#FFF" data-correta="#4B4CFE" fill-opacity=".8" d="M13-54.05q-1.25 0-2.7 2.3-1.35 2.25-3.8 2.25-12.3 0-17.1 1.4-6.8 1.95-14.9 9.35-6.45 5.85-6.75 6.15-2.25 2.15-5.55 6.15-3.25 4.1-2.95 7.8.25 2.35-1.3 4.2-1 1.2-2.5 2.05-.2.05-.35.15-.05 0-.05.05l-2.15.65q-4.85 3.3-4.85 7.8 0 1.7.35 4.2.4 2.45.4 6.05 0 2.95-1.05 7.4-1.1 4.5-1.1 5.45 0 2.2 2.45 4.6 2.75 2.6 3.05 3.6-.9.4-2.55 1.05-1.2.8-1.2 2.7 0 .05 2.25 6.05 2.75 6 6.05 7.95.15.1.3.15v.3q1.95 2 4.85 5 2.7 2.5 5.9 3.6 2.05.7 8.5 2.6 5.95 1.9 7.95 2.95 6.3 3.55 16.35 5.95 9.75 2.3 17.5 2.3 5.75 0 6.75-.45 1.6-.7 4.5-5.55 3.75-6.15 4.1-6.65 2.35-3.4 8.75-7.65 1.55-1.35 3.3-4.3 2.4-4.2 2.4-6.7 0-1.4-.7-5.85-.8-4.5-.8-7t1.15-5.4q1.1-2.9 1.1-5.6.2-5.7.35-8.95 2.25-5 2.25-6.65 0-5.6 1.1-8.6t1.1-6.7q0-4.55-1.65-8.3-2.5-4.85-4.25-9.2-1.15-2.8-4.5-5.85-3.8-3.1-5.2-4.25-1.6-1.2-3.5-6.25-2-5.2-3.2-6.4-1.45-1.35-4.45-5.8-2.1-3.05-4.9-4.2-.15.35-.45.8-.25.4-.25 1 0 1.95 1.85 5.65 1.85 3.75 1.85 5.75 0 2.25-.7 6.15h-4.1q-1.55-.4-3.7-2.9-2-2.35-3.25-2.35z" id="d"/><path fill="#FFF" data-correta="#43F1F0" fill-opacity=".8" d="M53.8-66.1q-3.15-3.75-6.15-6.65l-.15-.15q-3.05-1.7-6.05-4.4-1.05-1-1.85-1.9-5.25-3.25-9.75-3.25-2.2 0-3.15 2.8-.9 2.75-5.7.7T8.8-80.7q-7.4.25-12.45 2.1-5.1 1.8-6 7.5Q-14.9-67 .3-72.6q9.1 1.85 12.2 5.75-1.85 2.7-5.45 4.55-.2.05-12.05 3.1-11.95 3-12.6 6.15-.6 3.05 1.85 4.6 2.5 1.5 5.8 1.75 3.35.2 3.35.55 0 .75-7.25 6.85l-2.85 2.45q-.6.4-1.05.85-4.35 3.5-4.9 4.15-1.9 2.35-7.05 7.4-4.25 4.15-5.25 6.05-2.4 4.3-8.7 14.55-4.9 9.35-5.05 17.8 0 .4.1.85.5 1.45 1.4 4.1 1.45 4.5 1.45 7.35 0 .7-.75 2.95-.7 2.3-.7 3.35 0 2.65 3.2 10.7 2.45 6.4 4.95 11.35 2.4 4.8 10.1 10.05 6.35 4.3 10.45 5.55Q.75 76.3 4.6 77.35q18.45 5.15 28.2 5.15 5.25 0 13.05-1.1-4.75-1.2-3.6-2.95 1.15-1.75 1.75-2.3 1.5-1.5 5.4-4.25 3.35-2.75 3.9-5.75 7.6-4.85 10.05-22.3 1.1-10.1 1.7-15.4.9-8.15 2.3-14l-.25-2.3q.1-.1.25-.2Q69 10.7 70.4 6.9q1.5-4.1 1.5-7.85 0-7.15-1.75-14.65-1.65-6.95-3.85-10.25-3.2-4.7-4.4-6.4Q60-35.05 57.95-44q-2.1-8.95-.95-8.65 1.7 1.1 3.8 3.65 1.85 2.25 4.8 6h1.85v-2.95Q66.4-48.4 62.9-53.8q-4.3-6.55-9.1-12.3m-21.1 8.65q.3-.45.45-.8 2.8 1.15 4.9 4.2 3 4.45 4.45 5.8 1.2 1.2 3.2 6.4 1.9 5 3.5 6.25 1.4 1.15 5.2 4.25 3.35 3.05 4.5 5.85 1.75 4.35 4.25 9.2 1.7 3.75 1.7 8.3 0 3.7-1.15 6.7-1.1 3-1.1 8.6 0 1.65-2.25 6.6-.15 3.3-.35 9 0 2.7-1.1 5.6-1.1 2.9-1.1 5.4 0 2.5.75 7 .7 4.45.7 5.85 0 2.5-2.4 6.7-1.75 2.95-3.3 4.3-6.4 4.25-8.75 7.65-.35.5-4.1 6.65-2.9 4.85-4.5 5.55-1 .45-6.75.45-7.75 0-17.5-2.3Q1.9 73.35-4.4 69.8q-2-1.05-7.9-2.95-6.5-1.9-8.5-2.6-3.25-1.1-5.95-3.6-2.85-3-4.85-5-.2-.2-.3-.45-3.3-1.95-6.05-7.95-2.25-6-2.25-6.05 0-1.9 1.2-2.7 1.65-.65 2.55-1.05-.3-1-3.05-3.6-2.45-2.4-2.45-4.6 0-.95 1.1-5.45 1.05-4.45 1.05-7.4 0-3.6-.4-6.05-.35-2.5-.35-4.2 0-4.5 4.85-7.8l2.15-.65q0-.05.05-.05.15-.1.35-.15 1.5-.9 2.5-2.05 1.55-1.85 1.3-4.2-.3-3.75 2.95-7.8 3.3-4 5.55-6.2.35-.3 6.75-6.1Q-6-36.25.8-38.2q4.8-1.4 17.1-1.4 2.45 0 3.8-2.25 1.45-2.3 2.7-2.3 1.25 0 3.25 2.35 2.15 2.5 3.7 2.9h4.1q.7-3.9.7-6.15 0-2.05-1.8-5.75-1.9-3.7-1.9-5.65 0-.6.25-1z" id="e"/><path fill="#FFF" data-correta="#FAF753" fill-opacity=".8" d="M38.05 77.65q-7.8 1.1-13.05 1.1-9.75 0-28.2-5.15-3.85-1.05-23.1-7.15-4.1-1.25-10.45-5.55-7.7-5.25-10.1-10.05-2.5-4.95-4.95-11.35-3.2-8.05-3.2-10.7 0-1.05.7-3.35.75-2.25.75-2.95 0-2.85-1.45-7.35-.9-2.65-1.4-4.1-.1-.45-.1-.85.15-8.45 5.05-17.8 6.3-10.25 8.7-14.55 1-1.9 5.25-6.05 5.15-5.05 7.05-7.4.55-.65 4.9-4.15l.05-.1-1.35 1.05q.4-.75.75-1.45 2.9-6 .7-8.6-2.5-2.9-11.65-.05-1.4-10.45-.4-13.15-3.2-3.2 5.25-9.6 7.65-5.85 10.85-9.7-.95-1.8-3.05-3.05-2.8-1.7-7.05-1.7-5.9 0-16.05 2.45-11.25 2.8-26.6 11.5-15.35 8.7-19.6 19.85-4.25 11.2-1.15 11.9 3.15.65 5.25-.8 1.05 1.15 1.85 3 1.4 1.7 6.2.3v4.75q-6.9-5.3-12.8.15-5.9 5.35-6.15 17.8 3.4-5.1 9.35-5.1 3.7 0 7.7 3.75 3.9 3.65 7.9 3.65.5 0 2.8-.35t2.75-.35q.55 0 3.6.35 3.1.35 3.55.35 3.05 0 4.35-.85 1.15-.7 1.7-2.5.7-2.5 1.3-4.1 1.1-2.9 3.1-5.55 7.65-10.3 11.15-13.8 3.2-1.5 4.1 0 1 .75 0 2.65-3.2 4.3-8.2 11.7-5 7.35-6.35 9.1-1.25 1.8-2.75 4.5Q-55.9-9.4-58.4-7.7q-3 2.15-4.1 3.35-2.6 2.8-2.6 6.15 0 6.5 3.7 20.1 3.75 13.8 4.6 17.4.15.4.3 1.1.6 2.4 1.9 8.75 2.1 7.65 5.9 9.5 2.7 1.35 9.6 5.8 5.2 3.4 10.85 5.35Q-9.5 76.35-3.4 77.95q13.2 3.4 27.3 3.4 6.5 0 7.7-.2 3-.6 6.45-3.5M-51.3-54.6q0 2.5 1.1 3.15.65.35 2.45.25 1.7-.2 2.4.35 1.1.8 1.1 3.55 0 2.4-4.85 8.45-4.15 5.15-4.75 7.05-.1.2-.25.45-.55.95-1.1 2.2-2.1 4.55-2.8 5.1-4.65 3.65-4.8 3.7-2.35 1.5-5.3 1.5-2.35 0-3.35-.65-1.1-.85-1.1-2.9 0-2.35 2.9-8.7 2.6-5.65 4.15-7.8 1.6-2.15 5.8-5.65 3.7-3.05 5-5.55-1.05-1.5-1.4-1.7-.2-.15-2.1-.15-3.2 0-8.95 2.75-5.7 3.05-6.85 3.6h-5.65V-49q3.2-10.95 14.3-17.4 6.25-3.75 21.85-8.65h3.75q-2.1 4.2-4.6 6.9-.45.5-3.65 3.4-1.75 1.6-2.4 3.35-.9 2.35-.9 6.8m123.6-3.3h-3.35v2.25q.5 1 2.2 3.6 1.45 2.3 1.55 3.35v.1h-.4q-2.95-4.1-5.6-8.75-2.55-4.5-7.4-14.3-1.3-2.65-10.4-10.2-10.65-8.8-16.5-8.8-1.5-.15-2.15 0-1.1.25-1.1 2.05 0 2.55 2.65 5.65 3.75 2.3 7.9 6.3l.15.15q3 2.9 6.15 6.65 4.8 5.75 9.1 12.3 3.5 5.4 4.55 7.85v2.95H57.8q-2.95-3.75-4.8-6-2.1-2.55-3.8-3.65-1.15-.3.95 8.65Q52.2-38.8 54.1-36q1.2 1.7 4.4 6.4 2.2 3.3 3.85 10.25 1.75 7.5 1.75 14.65 0 3.75-1.5 7.85-1.4 3.8-3.05 5.05l.45.5q-.25.95-.45 2-1.4 5.85-2.3 14-.6 5.3-1.7 15.4Q53.1 57.55 45.5 62.4q-.55 3-3.9 5.75-3.9 2.75-5.4 4.25-.6.55-1.75 2.3-1.15 1.75 3.6 2.95v2.6q-6.3 4.5-26.15 7.05-15.25 1.9-23.05 3.35 3 .15 6 .15 43.8 0 74.7-31 30.95-30.9 30.95-74.65 0-3.4-.15-6.7-1.95-3.05-3.8-7.15-.65-1.4-4.65-11.3-4.05-10.05-8.55-16.2l-.2.25q0 .6.35 1.7.05.15.15.3.1.2.15.5 1 2.1 2.35 4.85 1.25 3 .7 5.55-.4 1.75 1.8 5.1 3 4.7 3.45 5.75.65 1.55 1 5.7.25 2.2.45 5.45.25 1.85 2.45 5.65 2 3.55 2 5.5 0 1.7-.15 4.3-.3 4.85-.9 9.25-2.05 13.9-7.1 18.85-.8-1.85-.8-4.65 0-.5.4-3.05.4-2.6.4-3.1t-.4-3.05q-.4-2.6-.4-3.1 0-.4.3-1.3.05-.2.1-.35 0-.65.1-1.5.05-1.3.3-3.15.35-3.5.35-3.75 0-3.55-.55-9.1-.8-8.9-2.4-11.55l-.65-.7q-.45.05-1.2.35-1.05.35-1.15.35-2.1-9.9-5.7-18.45-4.15-9.05-6.25-14.3z" id="f"/><path fill="#FFF" data-correta="#5AC769" fill-opacity=".8" d="M19.95-28.1H16.2Q.65-23.15-5.65-19.45q-11.1 6.5-14.25 17.4v3.4h5.6q1.15-.55 6.85-3.6Q-1.7-5 1.5-5q1.9 0 2.1.15.35.2 1.45 1.7Q3.7-.6.05 2.4-4.2 5.9-5.8 8.05q-1.55 2.15-4.15 7.8-2.9 6.4-2.9 8.75 0 2.05 1.15 2.85.95.7 3.3.7 2.95 0 5.3-1.5.2-.1 4.8-3.75.7-.55 2.8-5.1.55-1.25 1.1-2.2.15-.25.3-.4.6-1.95 4.7-7.1 4.85-6.05 4.85-8.45 0-2.75-1.1-3.55-.7-.5-2.4-.35-1.8.15-2.45-.25-1.1-.65-1.1-3.15 0-4.45.9-6.8.65-1.75 2.45-3.35 3.15-2.9 3.6-3.4 2.5-2.7 4.6-6.9z" id="g"/><path id="h" stroke="#666" stroke-linejoin="round" stroke-linecap="round" fill="none" d="M472.85 153.55q-.1-1.05-1.55-3.35-1.7-2.6-2.2-3.6v-2.25h3.4q2.05 5.25 6.2 14.3 3.6 8.55 5.7 18.45.1 0 1.15-.35.75-.3 1.2-.35l.65.7q1.6 2.65 2.4 11.55.55 5.55.55 9.1 0 .25-.35 3.75-.2 1.85-.3 3.15-.1.85-.1 1.5-.05.2-.1.35-.3.9-.3 1.3 0 .5.4 3.1.4 2.55.4 3.05t-.4 3.1-.4 3.1q0 2.75.8 4.65 5.05-4.95 7.1-18.9.6-4.4.9-9.25.15-2.6.15-4.3 0-1.95-2-5.5-2.2-3.8-2.45-5.65-.2-3.25-.4-5.4-.4-4.2-1.05-5.75-.4-1-3.45-5.7-2.2-3.4-1.8-5.15.55-2.55-.7-5.55-1.35-2.75-2.35-4.8-.2-.5-.35-.9-.9-.85-2.05-2.5-1.65-2.45-2.45-3.65v-.8q.2.2.45.4 2 1.95 3.95 4.65 4.5 6.15 8.55 16.2 4 9.9 4.65 11.3 1.85 4.1 3.8 7.15-2.2-39.45-30.8-68-30.9-30.95-74.65-30.95-43.75 0-74.75 30.95-30.9 30.95-30.9 74.7t30.9 74.7q6.35 6.3 13.2 11.35l.05-.1q-2.95-4.8-2.95-5.95 0-.45.4-1 .35-.55.35-1.1 0-1.4-2.2-1.7-2.7-.35-3.75-2.35-.35-.6-1.15-3.55-.7-2.5-1.45-3.15-1.05-.85-2.65-1.85-1.6-.9-2.25-1.5-1.05-.95-1.5-3.2-.55-2.4-1.1-3.1-1.45-1.9-3-6.9-1.55-5.25-2.2-6.9-1.75-4.25-4.45-7.7-2.05-2.35-3.05-3.75-.4-.5-.6-.85-2.85-2.9-4.35-6.95-1.7-4.4-1.7-9.6 0-7.85 2.6-13.2.55-1.1 1.15-1.95v-.05q.2-12.4 6.1-17.8 5.9-5.45 12.8-.15v-4.7q-4.8 1.35-6.2-.3-.8-1.9-1.8-3.05-2.15 1.45-5.3.8-3.1-.7 1.15-11.85 4.25-11.2 19.65-19.9 15.3-8.7 26.55-11.45 10.15-2.5 16.05-2.5 4.25 0 7.05 1.7 2.1 1.25 3.05 3.1-3.2 3.85-10.85 9.65-8.45 6.4-5.25 9.6-1 2.7.4 13.15 9.15-2.85 11.65.05 2.2 2.6-.7 8.65l.6.35q1.3-1.05 2.45-2l1.4-1.2q7.25-6.1 7.25-6.85 0-.3-3.3-.55-3.35-.25-5.85-1.75-2.45-1.5-1.8-4.6.6-3.15 12.55-6.15 11.85-3.05 12.05-3.05 3.6-1.9 5.45-4.6-3.05-3.9-12.15-5.7-15.25 5.6-9.95 1.5.85-5.75 5.95-7.55 5.05-1.85 12.5-2.1 7.35-.3 12.15 1.75 4.8 2.05 5.75-.7.9-2.8 3.1-2.8 4.55 0 9.75 3.25-2.65-3.05-2.65-5.65 0-1.75 1.1-2.05.65-.15 2.2 0 5.8 0 16.45 8.8 9.1 7.55 10.4 10.2 4.85 9.8 7.4 14.3 2.65 4.65 5.65 8.75l.35-.1v.1h-.35m28 27.05q.15 3.35.15 6.7 0 43.75-30.95 74.7-30.9 30.95-74.65 30.95-3.05 0-6.05-.15-31-1.55-55.3-19.3-.05-.1-.15-.25M355.8 134.1q-.45.5-3.6 3.4-1.8 1.6-2.45 3.35-.9 2.35-.9 6.8 0 2.5 1.1 3.15.65.4 2.45.25 1.7-.15 2.4.35 1.1.8 1.1 3.55 0 2.4-4.85 8.45-4.1 5.15-4.7 7.1-.15.15-.3.4-.55.95-1.1 2.2-2.1 4.55-2.8 5.1-4.6 3.65-4.8 3.75-2.35 1.5-5.3 1.5-2.35 0-3.3-.7-1.15-.8-1.15-2.85 0-2.35 2.9-8.75 2.6-5.65 4.15-7.8 1.6-2.15 5.85-5.65 3.65-3 5-5.55-1.1-1.5-1.45-1.7-.2-.15-2.1-.15-3.2 0-8.95 2.75-5.7 3.05-6.85 3.6h-5.6v-3.4q3.15-10.9 14.25-17.4 6.3-3.7 21.85-8.65h3.75q-2.1 4.2-4.6 6.9zM389 292.9q7.8-1.45 23.05-3.35 19.85-2.55 26.15-7.05v-2.6q-3.45 2.95-6.45 3.5-1.2.2-7.7.2-14.05 0-27.25-3.35-6.15-1.65-24.9-8.2-5.65-1.95-10.85-5.3-6.9-4.5-9.6-5.85-3.8-1.85-5.9-9.5-1.25-6.35-1.85-8.75-.2-.7-.3-1.1-.9-3.6-4.65-17.4-3.7-13.6-3.7-20.1 0-3.3 2.6-6.15 1.1-1.2 4.1-3.3 2.5-1.75 3.95-4.1 1.5-2.7 2.75-4.45 1.35-1.8 6.4-9.15 5-7.4 8.15-11.7 1-1.9 0-2.6-.9-1.55-4.1 0-3.45 3.45-11.15 13.75-1.95 2.65-3.1 5.55-.6 1.6-1.25 4.1-.6 1.85-1.75 2.5-1.3.85-4.35.85-.45 0-3.55-.3-3.05-.4-3.55-.4t-2.8.4q-2.3.3-2.75.3-4.05 0-7.95-3.65-4-3.7-7.7-3.7-5.95 0-9.3 5.05m77.4-26.65l-1.45 1.25q-.55.4-1.05.85-4.35 3.5-4.9 4.2-1.9 2.3-7.05 7.35-4.25 4.15-5.25 6.05-2.4 4.3-8.7 14.55-4.9 9.35-5.05 17.85 0 .35.1.8.55 1.45 1.4 4.1 1.45 4.5 1.45 7.35 0 .7-.75 3-.7 2.25-.7 3.3 0 2.65 3.2 10.75 2.45 6.35 4.95 11.3 2.45 4.8 10.1 10.05 6.35 4.3 10.45 5.55 19.25 6.1 23.1 7.15 18.45 5.15 28.2 5.15 5.25 0 13.05-1.1-4.75-1.2-3.55-2.95 1.15-1.7 1.7-2.25 1.55-1.5 5.4-4.3 3.35-2.75 3.9-5.75 7.6-4.85 10.05-22.3 1.1-10.1 1.7-15.4.9-8.15 2.3-14l-.25-2.3q.15-.1.25-.2 1.65-1.25 3.1-5.05 1.5-4.1 1.5-7.85 0-7.15-1.8-14.65-1.65-6.95-3.8-10.25-3.25-4.7-4.4-6.4-1.95-2.8-4-11.75-2.1-8.95-.95-8.6 1.75 1.05 3.8 3.6 1.85 2.3 4.8 6.05h1.85v-3q-1.05-2.45-4.55-7.8-4.3-6.6-9.1-12.35-3.15-3.75-6.15-6.65-.05-.1-.15-.15-4.15-4-7.9-6.3m-70.25 74.65q1.55-1.85 1.3-4.2-.3-3.7 3-7.75 3.25-4.05 5.5-6.2.35-.3 6.75-6.15 8.1-7.4 14.9-9.35 4.85-1.4 17.1-1.4 2.45 0 3.85-2.25t2.65-2.25q1.25 0 3.25 2.3 2.15 2.5 3.7 2.9h4.1q.7-3.9.7-6.15 0-2-1.8-5.75-1.9-3.7-1.9-5.6 0-.6.25-1.05.3-.4.5-.8 2.75 1.15 4.85 4.2 3 4.45 4.45 5.85 1.25 1.2 3.2 6.35 1.9 5.05 3.5 6.3 1.4 1.15 5.2 4.2 3.35 3.05 4.5 5.85 1.75 4.35 4.25 9.2 1.7 3.75 1.7 8.3 0 3.7-1.15 6.75-1.1 2.95-1.1 8.55 0 1.7-2.25 6.65-.15 3.3-.35 8.95 0 2.7-1.1 5.6-1.1 2.9-1.1 5.45 0 2.45.75 6.95t.75 5.85q0 2.5-2.45 6.7-1.75 2.95-3.3 4.3-6.4 4.25-8.75 7.65-.35.5-4.1 6.7-2.9 4.8-4.5 5.55-.95.4-6.75.4-7.75 0-17.5-2.3-10.05-2.4-16.35-5.95-2-1.05-7.9-2.95-6.5-1.9-8.5-2.6-3.25-1.1-5.95-3.6-2.85-2.95-4.85-5v-.3q-.15-.05-.3-.15-3.25-1.9-6.05-7.95-2.2-5.95-2.2-6.05 0-1.9 1.2-2.7 1.6-.65 2.5-1.05-.3-1-3.05-3.6-2.45-2.4-2.45-4.6 0-.95 1.1-5.45 1.05-4.45 1.05-7.4 0-3.55-.35-6.05-.4-2.5-.4-4.2 0-4.45 4.85-7.8l2.15-.65q0-.05.05-.05.15-.05.4-.15 1.5-.85 2.45-2.05zm12.35-31.9q-.35.65-.7 1.4l1.3-1.05-.05.1m109.35-13.65q-.05-.3-.15-.55-.1-.15-.15-.3-.35-1.1-.35-1.7l.2-.25m-23.8 66.9q.2-1.05.5-1.95l-.5-.55"/></defs><use xlink:href="#a" transform="translate(-288.1 -80.5)"/><use xlink:href="#b" transform="translate(106.55 96.85)"/><use xlink:href="#c" transform="translate(78.1 147.15)"/><use xlink:href="#d" transform="translate(115.35 126.95)"/><use xlink:href="#e" transform="translate(104.8 118)"/><use xlink:href="#f" transform="translate(112.65 122)"/><use xlink:href="#g" transform="translate(52.35 74.8)"/><use xlink:href="#h" transform="translate(-288.1 -80.5)"/></svg>