
<svg xmlns="http://www.w3.org/2000/svg" version="1.1" xmlns:xlink="http://www.w3.org/1999/xlink" preserveAspectRatio="none" x="0px" y="0px" width="214px" height="214px" viewBox="0 0 214 214">
<defs>
<g id="Layer0_0_MEMBER_0_FILL">
<path fill="#FFFFFF" stroke="none" d="
M 434.15 132.95
L 434.25 132.85 434.2 132.8
Q 434.2 132.85 434.15 132.95 Z"/>

<path fill="#F7F7F7" stroke="none" d="
M 422.3 89.7
Q 421.4 89.45 420.4 88 419.2 86.2 418.5 85.25 417.8 84.3 417.1 83.65 406.5 81.5 395 81.5 351.1 81.5 320.05 112.45 289.1 143.5 289.1 187.4 289.1 231.35 320.05 262.25 351.1 293.3 395 293.3 438.9 293.3 469.85 262.25 500.9 231.35 500.9 187.4 500.9 154.75 483.75 129.2 483.3 129.2 482.9 128.75 482.65 128.45 482.55 128.15 481.95 128.3 481.55 128.9 481.25 129.3 481.25 129.5 481.25 129.8 481.45 130.05 481.7 130.3 481.7 130.55 481.7 131.1 481.45 132.6
L 478.5 132.6
Q 477.35 132.2 474.8 128.75 472.65 125.8 469.7 125.8 469.05 125.7 468.65 125.8 468 125.9 468 126.7 468 127 468.25 127.05 468.45 127.1 468.45 127.35 468.45 127.65 468.35 127.8 468.25 127.9 468.25 128.15
L 465.9 128.15
Q 465.9 128.55 465.65 129.2
L 466.1 129.4
Q 466 129.4 466.1 129.65
L 465.9 129.65
Q 465.2 129.65 463.55 129 461.9 128.35 461.05 128.35 459.85 128.35 457.7 129.4 455.7 130.5 455.5 130.5 454.45 130.5 452.4 127.85 450.3 124.95 449.85 124.5 449.45 125.25 449.45 126.1 449.45 126.6 450.5 128.35 451.55 130.1 451.55 130.25 451.55 131.6 451.15 131.75 450.3 131.75 449.45 131.75 447 131.75 446.35 130.85 445.05 129.05 444.95 129 444.8 129.25 444.8 129.65
L 444.8 129.75
Q 444.75 129.8 444.8 129.85 444.75 130 444.75 130.2
L 444.75 130.7 443.45 130.7 442.65 129.5
Q 442.5 129.4 441.3 129.4 440.5 129.4 440.05 129.85 440.05 129.9 440.25 130.25 440.45 130.6 440.45 130.9 440.45 131.3 440.05 132 439.5 132.85 438.85 132.85 437.35 132.85 437.45 131.7 437.6 130.5 436.2 130.5 434.95 130.5 434.6 131.4 434.5 131.8 434.2 132.8
L 434.25 132.85
Q 434.4 132.85 434.6 133.25 434.9 133.8 434.9 134.55 434.9 135.1 434.5 135.8 433.95 136.65 433.2 136.65 432.65 136.65 432 136.25 431.35 135.8 430.95 135.8 430.3 135.8 429.55 136.65 428.6 137.85 428.05 138.15
L 428.05 139.45
Q 428.95 139 429.65 139 430.25 139 431.05 139.9 431 140.65 429.85 142.2 429.55 142.55 427.85 144.6 427.55 144.95 424.65 145.9 422.9 146.5 424 148.65
L 421.65 148.65
Q 421.65 148.9 421.25 150 420.8 151.05 420.8 151.85 420.8 152.1 421.05 152.5 421.25 153 421.25 153.35 421.45 153.35 422.3 153.1 422.35 152.1 422.4 151.5 422.5 150.35 423.15 149.7
L 424.45 149.7
Q 424.45 150.15 424.15 151.2 423.8 152.2 423.8 152.55 423.8 154.6 425.65 156.05 427.6 157.6 430 156.75 429.85 157.8 429.6 157.95 429.5 158.05 428.3 158.05 427.35 158.05 427.2 158 426.9 157.95 426.8 157.6
L 425.7 157.6
Q 425.75 158.5 425.65 158.6 425.6 158.65 424.95 158.65 423.75 158.65 423.65 157.8 423.65 156.65 423.35 156.1
L 422.3 156.1
Q 422.5 156.6 421.05 156.55 419.75 156.55 419.55 156.3 419.7 156.05 419.9 156.05 420.1 156.1 420.15 155.7
L 420.15 155.05
Q 420.15 154.2 418.4 152.95 416.55 151.65 416.55 150.2 416.55 149.4 416.95 149 417.4 148.65 417.4 148.3 417.4 147.85 416.1 144.3 414.85 140.8 414.85 140.6 414.85 139 416.95 137.55 419.1 136.1 419.1 135.4 419.1 135.1 419 134.85 418.9 134.6 418.9 134.55 418.55 134.55 418 134.75 417.45 134.95 417.2 134.95 416.1 134.75 415.7 134.75
L 415.7 134.1
Q 416.55 133.7 419.55 132.3 422.1 130.75 422.1 128.55 422.1 128.1 421.65 127.25 421.3 126.45 421.25 126.4 420.75 127.3 419.3 130.05
L 418.9 130.05
Q 418.9 129.9 418.8 129.9
L 418.7 129.85 418.7 129.3
Q 418.7 129 418.9 128.7 418.95 128.55 419.05 128.5 419.15 128.4 419.2 128.4 419.4 127.8 419.75 126.1 420.15 124.15 420.4 123.85 420.95 122.85 422.1 122.35 422.95 122 422.95 121.15 422.95 120.6 422.5 120.25 422.1 119.8 422.1 119.35 422.1 118.6 425.5 115.6 428.95 112.6 428.95 110.4 428.95 109.5 428.65 108.7 428.3 107.85 428.3 107.2 428.3 106 431.2 103.6 434.05 101.2 434.05 100.9 434.05 98.35 432.9 97.8 431.7 97.25 431.7 96.6 431.7 95.8 431.75 95.75 431.85 95.7 432.55 95 432.25 94.85 429.85 93.85 428 93.1 427.45 92.65 425.4 91.05 425.2 90.9 424.15 90.25 422.3 89.7
M 376.6 195.65
Q 375.7 193.7 376.45 193.25 376.75 193.05 378.3 193.05 379.3 193.05 380.1 194.75 380.85 196.45 380.45 197.35
L 381.35 197.4
Q 382.25 196.75 382.3 196.6 382.6 196.25 382.6 195.2 382.6 193.35 381.65 192.4 380.2 191.25 379.15 190.05 379.9 189.5 381.9 187.5 383.9 185.8 385.35 185.8 386.7 185.8 387.35 187.6 388.1 189.3 387.7 191.35
L 389.85 191.35
Q 391.6 190.85 393.25 193.5 394.65 193.65 395.4 192.1 396.2 190.5 397.55 190.5 399.05 190.5 399.8 192.3 400.5 193.9 400.1 195.65
L 401.35 195.65
Q 402.65 194.7 402.85 194.45 403.1 194.1 403.1 193.3 403.1 191.5 400.95 190.5 400.95 190.05 401.35 189 401.8 187.95 401.8 187.5 399.55 186.35 399.25 185.35 399.95 184.4 402.25 182.8 404.6 181.1 405.65 181.1 407.2 181.1 407.45 181.25 408.15 181.7 407.8 183.65 408.45 183.65 409.45 183.45 410.1 183.3 410.75 183.25 410.85 182.35 411.35 180.9 411.95 178.95 413.35 178.55 415.15 178 416.45 176.6 418.05 175 417.2 173.4
L 418.45 173.4
Q 418.7 173.8 419.55 175.4 420.45 176.85 421.45 176.85 421.85 176.85 423.55 175.1 425.2 173.4 426.8 173.4 428.6 173.4 428.95 173.6 430.05 174 430.4 175.9 430.4 175.95 430.4 176
L 430 176
Q 426.2 176 425.35 177.6 423.95 180.15 422.3 181.1 420.05 182.35 419.25 185.1 418.85 186.65 418.45 189.2
L 414.6 189.2
Q 413.7 193.2 410.85 198.2 408.2 202.4 408.2 202.45 408.2 203.5 409.9 206.5 411.05 208.55 411.45 210.55
L 411.5 210.6 411.45 210.6 411.2 210.6 411.2 212.7 413.35 212.7
Q 413.35 212.3 413.55 211.85 413.75 211.45 413.75 211
L 415.9 211
Q 415.9 211.85 416.35 211.85 415.3 212.8 415.15 212.95 414.3 213.6 413.75 213.55 414.2 214.85 418.1 215.85 420.1 216.3 422.1 216.55 422.5 216.55 422.55 216.4 423 215.2 423.15 214.85
L 425.7 214.85
Q 425.7 215.3 425.95 215.9 426.15 216.55 426.15 217
L 426.35 217.05
Q 426.6 217.15 426.6 217.4 426.75 217.35 426.95 217.45 427.2 217.4 427.85 216.55
L 430 216.55
Q 428.8 219.6 432.45 221.55 433.35 222.05 435.1 223 436.4 223.9 436.4 224.9 436.4 225.65 436.3 225.8 436.05 226.05 434.7 226.4 437.05 228.2 437.5 230.35 437.7 231.2 437.7 236.2 437.7 239.75 437.4 240.4 436.55 242.1 432.55 242.2 432.55 242.85 432.75 244.2 433 245.5 433 246.05 433 247.6 431.5 248.85 430 250.05 430 251.15 430 251.7 430.4 253.1 430.85 254.5 430.85 255 430.85 257.4 428.3 258.2 425.2 259.15 424.85 259.7 424.1 260.95 423.65 263.4 423.05 265.25 420.6 265.25 420.15 265.25 419.3 264.4 418.5 263.55 417.6 263.55 415.65 263.55 414.2 265.15 412.95 266.7 411.65 268.1 411.45 268.4 410.75 269.1 410.8 270.15 410.15 270.35 410.05 270.4 409.3 270.4 407.95 270.4 405.85 269.55 403.7 268.7 402.65 268.65 402.65 270.25 402 271.7 401.2 273.5 400.95 275.1
L 398.8 275.1
Q 398.3 274.3 397.55 273.95 396.7 273.65 396.25 273.35 395.65 274.95 395.65 275 395.55 275.1 394.1 275.1 393.45 275.1 392.45 274.85 391.1 274.45 390.25 274.25
L 387.3 274.25
Q 387.3 274.65 387.05 275.5 386.85 276.35 386.85 276.8
L 383.45 276.8
Q 382.7 276.4 380.3 273.35 378.3 270.8 376.4 270.8 376 270.8 374.7 272.1 373.35 273.35 372.75 273.35 371.45 273.35 370.85 272.2 370.85 272.1 370.1 269.75 369.05 266.1 364.85 266.1 364.35 266.1 363.5 266.55 362.65 266.95 362.05 266.95 359.65 266.95 356.5 264.35 353.6 261.95 353.55 260.55 353.45 259.4 353.15 258.4 352.55 256.35 351.1 254.85 349.4 253.1 348.35 251.75 345.85 246.4 345.85 241.1 345.85 239.5 347.45 237.3 348.85 235.3 348.4 233.2
L 350.95 233.2
Q 352.2 234.2 354.15 234.25 355.25 234.25 356.95 234.05
L 356.95 236.65
Q 355.65 237.85 355.65 238.35 355.65 239.4 356.1 239.65 360.3 239.05 362.25 236.3 364.2 233.45 364.2 227.65
L 364.2 224.35
Q 363.85 222.05 361.65 221.7
L 361.65 218.25
Q 362.7 216.65 363.35 214.4 363.35 213.9 362.95 211 362.5 208.15 362.5 207.6 362.5 204.85 362.75 204.75 364.75 204.15 366.75 202.45 365.7 202.05 365.6 201.85 365.5 201.75 365.5 200.35 365.5 199.45 367.2 198.6 369.05 197.75 371.45 197.75 371.95 197.75 373.8 198.2 375.65 198.6 376.6 198.6
L 376.6 195.65
M 440.25 154
L 440.25 155.05
Q 439.35 155.05 438.8 155.4 438.2 155.7 437.35 155.7 436.3 155.7 436.05 155.65 436 155.65 435.95 155.6 435.55 155.4 435.15 154.85
L 435.1 154.8
Q 434.5 154.15 434.5 153.75 434.5 153.1 434.9 152.7 435.3 152.25 435.85 152.25 436 152.25 437.45 152.8 439.2 153.45 440.25 154 Z"/>

<path fill="#BBBBBB" stroke="none" d="
M 440.25 155.05
L 440.25 154
Q 439.2 153.45 437.45 152.8 436 152.25 435.85 152.25 435.3 152.25 434.9 152.7 434.5 153.1 434.5 153.75 434.5 154.15 435.1 154.8
L 435.15 154.85
Q 435.55 155.4 435.95 155.6 436 155.65 436.05 155.65 436.3 155.7 437.35 155.7 438.2 155.7 438.8 155.4 439.35 155.05 440.25 155.05 Z"/>

<path fill="#B3B3B3" stroke="none" d="
M 376.45 193.25
Q 375.7 193.7 376.6 195.65
L 376.6 198.6
Q 375.65 198.6 373.8 198.2 371.95 197.75 371.45 197.75 369.05 197.75 367.2 198.6 365.5 199.45 365.5 200.35 365.5 201.75 365.6 201.85 365.7 202.05 366.75 202.45 364.75 204.15 362.75 204.75 362.5 204.85 362.5 207.6 362.5 208.15 362.95 211 363.35 213.9 363.35 214.4 362.7 216.65 361.65 218.25
L 361.65 221.7
Q 363.85 222.05 364.2 224.35
L 364.2 227.65
Q 364.2 233.45 362.25 236.3 360.3 239.05 356.1 239.65 355.65 239.4 355.65 238.35 355.65 237.85 356.95 236.65
L 356.95 234.05
Q 355.25 234.25 354.15 234.25 352.2 234.2 350.95 233.2
L 348.4 233.2
Q 348.85 235.3 347.45 237.3 345.85 239.5 345.85 241.1 345.85 246.4 348.35 251.75 349.4 253.1 351.1 254.85 352.55 256.35 353.15 258.4 353.45 259.4 353.55 260.55 353.6 261.95 356.5 264.35 359.65 266.95 362.05 266.95 362.65 266.95 363.5 266.55 364.35 266.1 364.85 266.1 369.05 266.1 370.1 269.75 370.85 272.1 370.85 272.2 371.45 273.35 372.75 273.35 373.35 273.35 374.7 272.1 376 270.8 376.4 270.8 378.3 270.8 380.3 273.35 382.7 276.4 383.45 276.8
L 386.85 276.8
Q 386.85 276.35 387.05 275.5 387.3 274.65 387.3 274.25
L 390.25 274.25
Q 391.1 274.45 392.45 274.85 393.45 275.1 394.1 275.1 395.55 275.1 395.65 275 395.65 274.95 396.25 273.35 396.7 273.65 397.55 273.95 398.3 274.3 398.8 275.1
L 400.95 275.1
Q 401.2 273.5 402 271.7 402.65 270.25 402.65 268.65 403.7 268.7 405.85 269.55 407.95 270.4 409.3 270.4 410.05 270.4 410.15 270.35 410.8 270.15 410.75 269.1 411.45 268.4 411.65 268.1 412.95 266.7 414.2 265.15 415.65 263.55 417.6 263.55 418.5 263.55 419.3 264.4 420.15 265.25 420.6 265.25 423.05 265.25 423.65 263.4 424.1 260.95 424.85 259.7 425.2 259.15 428.3 258.2 430.85 257.4 430.85 255 430.85 254.5 430.4 253.1 430 251.7 430 251.15 430 250.05 431.5 248.85 433 247.6 433 246.05 433 245.5 432.75 244.2 432.55 242.85 432.55 242.2 436.55 242.1 437.4 240.4 437.7 239.75 437.7 236.2 437.7 231.2 437.5 230.35 437.05 228.2 434.7 226.4 436.05 226.05 436.3 225.8 436.4 225.65 436.4 224.9 436.4 223.9 435.1 223 433.35 222.05 432.45 221.55 428.8 219.6 430 216.55
L 427.85 216.55
Q 427.2 217.4 426.95 217.45 426.75 217.35 426.6 217.4 426.6 217.15 426.35 217.05
L 426.15 217
Q 426.15 216.55 425.95 215.9 425.7 215.3 425.7 214.85
L 423.15 214.85
Q 423 215.2 422.55 216.4 422.5 216.55 422.1 216.55 420.1 216.3 418.1 215.85 414.2 214.85 413.75 213.55 414.3 213.6 415.15 212.95 415.3 212.8 416.35 211.85 415.9 211.85 415.9 211
L 413.75 211
Q 413.75 211.45 413.55 211.85 413.35 212.3 413.35 212.7
L 411.2 212.7 411.2 210.6 411.45 210.6 411.45 210.55
Q 411.05 208.55 409.9 206.5 408.2 203.5 408.2 202.45 408.2 202.4 410.85 198.2 413.7 193.2 414.6 189.2
L 418.45 189.2
Q 418.85 186.65 419.25 185.1 420.05 182.35 422.3 181.1 423.95 180.15 425.35 177.6 426.2 176 430 176
L 430.4 176
Q 430.4 175.95 430.4 175.9 430.05 174 428.95 173.6 428.6 173.4 426.8 173.4 425.2 173.4 423.55 175.1 421.85 176.85 421.45 176.85 420.45 176.85 419.55 175.4 418.7 173.8 418.45 173.4
L 417.2 173.4
Q 418.05 175 416.45 176.6 415.15 178 413.35 178.55 411.95 178.95 411.35 180.9 410.85 182.35 410.75 183.25 410.1 183.3 409.45 183.45 408.45 183.65 407.8 183.65 408.15 181.7 407.45 181.25 407.2 181.1 405.65 181.1 404.6 181.1 402.25 182.8 399.95 184.4 399.25 185.35 399.55 186.35 401.8 187.5 401.8 187.95 401.35 189 400.95 190.05 400.95 190.5 403.1 191.5 403.1 193.3 403.1 194.1 402.85 194.45 402.65 194.7 401.35 195.65
L 400.1 195.65
Q 400.5 193.9 399.8 192.3 399.05 190.5 397.55 190.5 396.2 190.5 395.4 192.1 394.65 193.65 393.25 193.5 391.6 190.85 389.85 191.35
L 387.7 191.35
Q 388.1 189.3 387.35 187.6 386.7 185.8 385.35 185.8 383.9 185.8 381.9 187.5 379.9 189.5 379.15 190.05 380.2 191.25 381.65 192.4 382.6 193.35 382.6 195.2 382.6 196.25 382.3 196.6 382.25 196.75 381.35 197.4
L 380.45 197.35
Q 380.85 196.45 380.1 194.75 379.3 193.05 378.3 193.05 376.75 193.05 376.45 193.25 Z"/>

<path fill="#B7B7B7" stroke="none" d="
M 420.4 88
Q 421.4 89.45 422.3 89.7 424.15 90.25 425.2 90.9 425.4 91.05 427.45 92.65 428 93.1 429.85 93.85 432.25 94.85 432.55 95 431.85 95.7 431.75 95.75 431.7 95.8 431.7 96.6 431.7 97.25 432.9 97.8 434.05 98.35 434.05 100.9 434.05 101.2 431.2 103.6 428.3 106 428.3 107.2 428.3 107.85 428.65 108.7 428.95 109.5 428.95 110.4 428.95 112.6 425.5 115.6 422.1 118.6 422.1 119.35 422.1 119.8 422.5 120.25 422.95 120.6 422.95 121.15 422.95 122 422.1 122.35 420.95 122.85 420.4 123.85 420.15 124.15 419.75 126.1 419.4 127.8 419.2 128.4 419.15 128.4 419.05 128.5 418.95 128.55 418.9 128.7 418.7 129 418.7 129.3
L 418.7 129.85 418.8 129.9
Q 418.9 129.9 418.9 130.05
L 419.3 130.05
Q 420.75 127.3 421.25 126.4 421.3 126.45 421.65 127.25 422.1 128.1 422.1 128.55 422.1 130.75 419.55 132.3 416.55 133.7 415.7 134.1
L 415.7 134.75
Q 416.1 134.75 417.2 134.95 417.45 134.95 418 134.75 418.55 134.55 418.9 134.55 418.9 134.6 419 134.85 419.1 135.1 419.1 135.4 419.1 136.1 416.95 137.55 414.85 139 414.85 140.6 414.85 140.8 416.1 144.3 417.4 147.85 417.4 148.3 417.4 148.65 416.95 149 416.55 149.4 416.55 150.2 416.55 151.65 418.4 152.95 420.15 154.2 420.15 155.05
L 420.15 155.7
Q 420.1 156.1 419.9 156.05 419.7 156.05 419.55 156.3 419.75 156.55 421.05 156.55 422.5 156.6 422.3 156.1
L 423.35 156.1
Q 423.65 156.65 423.65 157.8 423.75 158.65 424.95 158.65 425.6 158.65 425.65 158.6 425.75 158.5 425.7 157.6
L 426.8 157.6
Q 426.9 157.95 427.2 158 427.35 158.05 428.3 158.05 429.5 158.05 429.6 157.95 429.85 157.8 430 156.75 427.6 157.6 425.65 156.05 423.8 154.6 423.8 152.55 423.8 152.2 424.15 151.2 424.45 150.15 424.45 149.7
L 423.15 149.7
Q 422.5 150.35 422.4 151.5 422.35 152.1 422.3 153.1 421.45 153.35 421.25 153.35 421.25 153 421.05 152.5 420.8 152.1 420.8 151.85 420.8 151.05 421.25 150 421.65 148.9 421.65 148.65
L 424 148.65
Q 422.9 146.5 424.65 145.9 427.55 144.95 427.85 144.6 429.55 142.55 429.85 142.2 431 140.65 431.05 139.9 430.25 139 429.65 139 428.95 139 428.05 139.45
L 428.05 138.15
Q 428.6 137.85 429.55 136.65 430.3 135.8 430.95 135.8 431.35 135.8 432 136.25 432.65 136.65 433.2 136.65 433.95 136.65 434.5 135.8 434.9 135.1 434.9 134.55 434.9 133.8 434.6 133.25 434.4 132.85 434.25 132.85
L 434.15 132.95
Q 434.2 132.85 434.2 132.8 434.5 131.8 434.6 131.4 434.95 130.5 436.2 130.5 437.6 130.5 437.45 131.7 437.35 132.85 438.85 132.85 439.5 132.85 440.05 132 440.45 131.3 440.45 130.9 440.45 130.6 440.25 130.25 440.05 129.9 440.05 129.85 440.5 129.4 441.3 129.4 442.5 129.4 442.65 129.5
L 443.45 130.7 444.75 130.7 444.75 130.2
Q 444.75 130 444.8 129.85 444.75 129.8 444.8 129.75
L 444.8 129.65
Q 444.8 129.25 444.95 129 445.05 129.05 446.35 130.85 447 131.75 449.45 131.75 450.3 131.75 451.15 131.75 451.55 131.6 451.55 130.25 451.55 130.1 450.5 128.35 449.45 126.6 449.45 126.1 449.45 125.25 449.85 124.5 450.3 124.95 452.4 127.85 454.45 130.5 455.5 130.5 455.7 130.5 457.7 129.4 459.85 128.35 461.05 128.35 461.9 128.35 463.55 129 465.2 129.65 465.9 129.65
L 466.1 129.65
Q 466 129.4 466.1 129.4
L 465.65 129.2
Q 465.9 128.55 465.9 128.15
L 468.25 128.15
Q 468.25 127.9 468.35 127.8 468.45 127.65 468.45 127.35 468.45 127.1 468.25 127.05 468 127 468 126.7 468 125.9 468.65 125.8 469.05 125.7 469.7 125.8 472.65 125.8 474.8 128.75 477.35 132.2 478.5 132.6
L 481.45 132.6
Q 481.7 131.1 481.7 130.55 481.7 130.3 481.45 130.05 481.25 129.8 481.25 129.5 481.25 129.3 481.55 128.9 481.95 128.3 482.55 128.15 482.65 128.45 482.9 128.75 483.3 129.2 483.75 129.2 477.8 120.4 469.85 112.45 447 89.6 417.1 83.65 417.8 84.3 418.5 85.25 419.2 86.2 420.4 88 Z"/>
</g>

<g id="parte1_0_Layer0_0_FILL">
<path fill="#FFFFFF" data-correta="#5AC769" fill-opacity="0.8" stroke="none" d="
M 6.25 -59.8
Q 13.65 -60.1 18.4 -58.05 23.2 -56 24.15 -58.75 25.1 -61.55 27.25 -61.55 31.8 -61.55 37 -58.3 34.35 -61.35 34.35 -63.95 34.35 -65.75 35.45 -66 36.1 -66.15 37.65 -66 43.45 -66 54.15 -57.2 63.25 -49.65 64.5 -47 69.4 -37.2 71.9 -32.7 74.55 -28.05 77.55 -23.95
L 77.9 -24.05
Q 77.8 -25.1 76.4 -27.4 74.7 -30 74.15 -31
L 74.15 -33.25 77.55 -33.25
Q 79.65 -28 83.8 -18.95 87.35 -10.4 89.45 -0.5 89.6 -0.5 90.6 -0.85 91.4 -1.15 91.8 -1.2
L 92.45 -0.5
Q 94.05 2.15 94.9 11.05 95.4 16.6 95.4 20.15 95.4 20.4 95.05 23.9 94.85 25.75 94.75 27.05 94.65 27.9 94.65 28.55 94.65 28.7 94.6 28.9 94.3 29.8 94.3 30.2 94.3 30.7 94.65 33.3 95.05 35.85 95.05 36.35 95.05 36.85 94.65 39.45 94.3 42 94.3 42.5 94.3 45.3 95.05 47.2 100.1 42.2 102.15 28.3 102.8 23.9 103.1 19.05 103.2 16.45 103.2 14.75 103.2 12.8 101.2 9.25 99.05 5.45 98.75 3.6 98.55 0.35 98.35 -1.8 97.95 -6 97.3 -7.55 96.9 -8.55 93.85 -13.25 91.7 -16.65 92.05 -18.4 92.6 -20.95 91.4 -23.95 90 -26.7 89.05 -28.75 88.8 -29.25 88.65 -29.65 87.75 -30.5 86.6 -32.15 84.95 -34.65 84.15 -35.8
L 84.15 -36.6
Q 84.35 -36.4 84.6 -36.2 86.6 -34.25 88.55 -31.55 93.05 -25.4 97.1 -15.35 101.1 -5.45 101.75 -4.05 103.6 0.05 105.55 3.1 103.35 -36.35 74.75 -64.9 43.9 -95.85 0.1 -95.85 -43.65 -95.85 -74.6 -64.9 -105.55 -33.95 -105.55 9.8 -105.55 53.55 -74.6 84.45 -68.3 90.8 -61.4 95.85
L -61.4 95.75
Q -64.35 90.9 -64.35 89.8 -64.35 89.35 -63.95 88.8 -63.6 88.25 -63.6 87.7 -63.6 86.3 -65.8 86 -68.45 85.65 -69.55 83.65 -69.9 83.05 -70.7 80.05 -71.4 77.6 -72.15 76.95 -73.15 76.1 -74.8 75.1 -76.4 74.2 -77 73.6 -78.1 72.65 -78.55 70.4 -79.1 68 -79.6 67.3 -81.1 65.4 -82.65 60.4 -84.2 55.15 -84.85 53.5 -86.6 49.25 -89.3 45.8 -91.35 43.45 -92.35 42.05 -92.75 41.55 -92.95 41.2 -95.75 38.3 -97.3 34.25 -98.95 29.85 -98.95 24.6 -98.95 16.8 -96.35 11.4 -95.85 10.35 -95.25 9.5 -95.45 8.35 -95.6 6.7
L -95.25 9.45
Q -95.05 -2.95 -89.15 -8.35 -83.25 -13.8 -76.35 -8.5
L -76.35 -13.25
Q -81.1 -11.85 -82.55 -13.5 -83.35 -15.4 -84.35 -16.55 -86.5 -15.1 -89.6 -15.75 -92.75 -16.45 -88.45 -27.6 -84.25 -38.8 -68.85 -47.5 -53.5 -56.2 -42.3 -59 -32.1 -61.45 -26.2 -61.45 -22 -61.45 -19.2 -59.75 -17.1 -58.5 -16.15 -56.65 -19.35 -52.85 -27 -47 -35.45 -40.6 -32.25 -37.4 -33.25 -34.7 -31.8 -24.25 -22.7 -27.1 -20.2 -24.2 -18 -21.6 -20.9 -15.55
L -20.3 -15.2
Q -19 -16.25 -17.85 -17.2
L -16.45 -18.4
Q -9.2 -24.5 -9.2 -25.25 -9.2 -25.55 -12.5 -25.8 -15.85 -26.05 -18.3 -27.55 -20.8 -29.05 -20.15 -32.15 -19.5 -35.3 -7.6 -38.3 4.3 -41.35 4.45 -41.4 8.1 -43.25 9.9 -45.95 6.85 -49.85 -2.25 -51.65 -17.45 -46.1 -12.2 -50.2 -11.3 -55.9 -6.25 -57.7 -1.2 -59.55 6.25 -59.8 Z"/>
</g>

<g id="parte2_0_Layer0_0_FILL">
<path fill="#FFFFFF" data-correta="#DA3A36" fill-opacity="0.8" stroke="none" d="
M -12.25 -50.45
Q -7.25 -57.85 -4.05 -62.15 -3.05 -64.05 -4.05 -64.75 -4.95 -66.3 -8.15 -64.75 -11.65 -61.3 -19.3 -51 -21.3 -48.35 -22.4 -45.45 -23 -43.85 -23.7 -41.35 -24.3 -39.55 -25.4 -38.85 -26.7 -38 -29.75 -38 -30.2 -38 -33.3 -38.35 -36.35 -38.7 -36.9 -38.7 -37.35 -38.7 -39.65 -38.35 -41.95 -38 -42.45 -38 -46.45 -38 -50.4 -41.65 -54.35 -45.4 -58.05 -45.4 -64 -45.4 -67.4 -40.3
L -67.4 -40.25
Q -68 -39.4 -68.5 -38.35 -71.1 -32.95 -71.1 -25.15 -71.1 -19.9 -69.45 -15.5 -67.9 -11.45 -65.05 -8.55 -64.85 -8.2 -64.5 -7.7 -63.45 -6.3 -61.4 -3.95 -58.7 -0.5 -56.95 3.75 -56.3 5.4 -54.8 10.65 -53.2 15.6 -51.75 17.55 -51.25 18.25 -50.7 20.65 -50.2 22.9 -49.15 23.85 -48.5 24.4 -46.9 25.35 -45.3 26.35 -44.25 27.2 -43.5 27.85 -42.8 30.3 -42 33.3 -41.65 33.9 -40.6 35.85 -37.9 36.25 -35.75 36.55 -35.75 37.95 -35.75 38.5 -36.05 39.05 -36.45 39.6 -36.45 40.05 -36.45 41.15 -33.5 46 -33.4 46.1 -33.4 46.25 -9.05 64 21.95 65.55 29.75 64.1 45 62.2 64.85 59.65 71.15 55.15
L 71.15 52.55
Q 67.7 55.5 64.7 56.05 63.5 56.25 56.95 56.25 42.9 56.25 29.7 52.85 23.6 51.25 4.85 44.7 -0.8 42.75 -6 39.35 -12.9 34.9 -15.6 33.55 -19.4 31.7 -21.5 24.05 -22.8 17.7 -23.4 15.3 -23.55 14.6 -23.7 14.2 -24.6 10.6 -28.3 -3.2 -32 -16.8 -32 -23.3 -32 -26.65 -29.4 -29.45 -28.3 -30.65 -25.3 -32.8 -22.8 -34.5 -21.35 -36.85 -19.9 -39.55 -18.6 -41.3 -17.25 -43.1 -12.25 -50.45 Z"/>
</g>

<g id="parte3_0_Layer0_0_FILL">
<path fill="#FFFFFF" data-correta="#4B4CFE" fill-opacity="0.8" stroke="none" d="
M 13 -54.05
Q 11.75 -54.05 10.3 -51.75 8.95 -49.5 6.5 -49.5 -5.8 -49.5 -10.6 -48.1 -17.4 -46.15 -25.5 -38.75 -31.95 -32.9 -32.25 -32.6 -34.5 -30.45 -37.8 -26.45 -41.05 -22.35 -40.75 -18.65 -40.5 -16.3 -42.05 -14.45 -43.05 -13.25 -44.55 -12.4 -44.75 -12.35 -44.9 -12.25 -44.95 -12.25 -44.95 -12.2
L -47.1 -11.55
Q -51.95 -8.25 -51.95 -3.75 -51.95 -2.05 -51.6 0.45 -51.2 2.9 -51.2 6.5 -51.2 9.45 -52.25 13.9 -53.35 18.4 -53.35 19.35 -53.35 21.55 -50.9 23.95 -48.15 26.55 -47.85 27.55 -48.75 27.95 -50.4 28.6 -51.6 29.4 -51.6 31.3 -51.6 31.35 -49.35 37.35 -46.6 43.35 -43.3 45.3 -43.15 45.4 -43 45.45
L -43 45.75
Q -41.05 47.75 -38.15 50.75 -35.45 53.25 -32.25 54.35 -30.2 55.05 -23.75 56.95 -17.8 58.85 -15.8 59.9 -9.5 63.45 0.55 65.85 10.3 68.15 18.05 68.15 23.8 68.15 24.8 67.7 26.4 67 29.3 62.15 33.05 56 33.4 55.5 35.75 52.1 42.15 47.85 43.7 46.5 45.45 43.55 47.85 39.35 47.85 36.85 47.85 35.45 47.15 31 46.35 26.5 46.35 24 46.35 21.5 47.5 18.6 48.6 15.7 48.6 13 48.8 7.3 48.95 4.05 51.2 -0.95 51.2 -2.6 51.2 -8.2 52.3 -11.2 53.4 -14.2 53.4 -17.9 53.4 -22.45 51.75 -26.2 49.25 -31.05 47.5 -35.4 46.35 -38.2 43 -41.25 39.2 -44.35 37.8 -45.5 36.2 -46.7 34.3 -51.75 32.3 -56.95 31.1 -58.15 29.65 -59.5 26.65 -63.95 24.55 -67 21.75 -68.15 21.6 -67.8 21.3 -67.35 21.05 -66.95 21.05 -66.35 21.05 -64.4 22.9 -60.7 24.75 -56.95 24.75 -54.95 24.75 -52.7 24.05 -48.8
L 19.95 -48.8
Q 18.4 -49.2 16.25 -51.7 14.25 -54.05 13 -54.05 Z"/>
</g>

<g id="parte4_0_Layer0_0_FILL">
<path fill="#FFFFFF" data-correta="#43F1F0" fill-opacity="0.8" stroke="none" d="
M 53.8 -66.1
Q 50.65 -69.85 47.65 -72.75 47.55 -72.85 47.5 -72.9 44.45 -74.6 41.45 -77.3 40.4 -78.3 39.6 -79.2 34.35 -82.45 29.85 -82.45 27.65 -82.45 26.7 -79.65 25.8 -76.9 21 -78.95 16.2 -81 8.8 -80.7 1.4 -80.45 -3.65 -78.6 -8.75 -76.8 -9.65 -71.1 -14.9 -67 0.3 -72.6 9.4 -70.75 12.5 -66.85 10.65 -64.15 7.05 -62.3 6.85 -62.25 -5 -59.2 -16.95 -56.2 -17.6 -53.05 -18.2 -50 -15.75 -48.45 -13.25 -46.95 -9.95 -46.7 -6.6 -46.5 -6.6 -46.15 -6.6 -45.4 -13.85 -39.3
L -16.7 -36.85
Q -17.3 -36.45 -17.75 -36 -22.1 -32.5 -22.65 -31.85 -24.55 -29.5 -29.7 -24.45 -33.95 -20.3 -34.95 -18.4 -37.35 -14.1 -43.65 -3.85 -48.55 5.5 -48.7 13.95 -48.7 14.35 -48.6 14.8 -48.1 16.25 -47.2 18.9 -45.75 23.4 -45.75 26.25 -45.75 26.95 -46.5 29.2 -47.2 31.5 -47.2 32.55 -47.2 35.2 -44 43.25 -41.55 49.65 -39.05 54.6 -36.65 59.4 -28.95 64.65 -22.6 68.95 -18.5 70.2 0.75 76.3 4.6 77.35 23.05 82.5 32.8 82.5 38.05 82.5 45.85 81.4 41.1 80.2 42.25 78.45 43.4 76.7 44 76.15 45.5 74.65 49.4 71.9 52.75 69.15 53.3 66.15 60.9 61.3 63.35 43.85 64.45 33.75 65.05 28.45 65.95 20.3 67.35 14.45
L 67.1 12.15
Q 67.2 12.05 67.35 11.95 69 10.7 70.4 6.9 71.9 2.8 71.9 -0.95 71.9 -8.1 70.15 -15.6 68.5 -22.55 66.3 -25.85 63.1 -30.55 61.9 -32.25 60 -35.05 57.95 -44 55.85 -52.95 57 -52.65 58.7 -51.55 60.8 -49 62.65 -46.75 65.6 -43
L 67.45 -43 67.45 -45.95
Q 66.4 -48.4 62.9 -53.8 58.6 -60.35 53.8 -66.1
M 32.7 -57.45
Q 33 -57.9 33.15 -58.25 35.95 -57.1 38.05 -54.05 41.05 -49.6 42.5 -48.25 43.7 -47.05 45.7 -41.85 47.6 -36.85 49.2 -35.6 50.6 -34.45 54.4 -31.35 57.75 -28.3 58.9 -25.5 60.65 -21.15 63.15 -16.3 64.85 -12.55 64.85 -8 64.85 -4.3 63.7 -1.3 62.6 1.7 62.6 7.3 62.6 8.95 60.35 13.9 60.2 17.2 60 22.9 60 25.6 58.9 28.5 57.8 31.4 57.8 33.9 57.8 36.4 58.55 40.9 59.25 45.35 59.25 46.75 59.25 49.25 56.85 53.45 55.1 56.4 53.55 57.75 47.15 62 44.8 65.4 44.45 65.9 40.7 72.05 37.8 76.9 36.2 77.6 35.2 78.05 29.45 78.05 21.7 78.05 11.95 75.75 1.9 73.35 -4.4 69.8 -6.4 68.75 -12.3 66.85 -18.8 64.95 -20.8 64.25 -24.05 63.15 -26.75 60.65 -29.6 57.65 -31.6 55.65 -31.8 55.45 -31.9 55.2 -35.2 53.25 -37.95 47.25 -40.2 41.25 -40.2 41.2 -40.2 39.3 -39 38.5 -37.35 37.85 -36.45 37.45 -36.75 36.45 -39.5 33.85 -41.95 31.45 -41.95 29.25 -41.95 28.3 -40.85 23.8 -39.8 19.35 -39.8 16.4 -39.8 12.8 -40.2 10.35 -40.55 7.85 -40.55 6.15 -40.55 1.65 -35.7 -1.65
L -33.55 -2.3
Q -33.55 -2.35 -33.5 -2.35 -33.35 -2.45 -33.15 -2.5 -31.65 -3.4 -30.65 -4.55 -29.1 -6.4 -29.35 -8.75 -29.65 -12.5 -26.4 -16.55 -23.1 -20.55 -20.85 -22.75 -20.5 -23.05 -14.1 -28.85 -6 -36.25 0.8 -38.2 5.6 -39.6 17.9 -39.6 20.35 -39.6 21.7 -41.85 23.15 -44.15 24.4 -44.15 25.65 -44.15 27.65 -41.8 29.8 -39.3 31.35 -38.9
L 35.45 -38.9
Q 36.15 -42.8 36.15 -45.05 36.15 -47.1 34.35 -50.8 32.45 -54.5 32.45 -56.45 32.45 -57.05 32.7 -57.45 Z"/>
</g>

<g id="parte5_0_Layer0_0_FILL">
<path fill="#FFFFFF" data-correta="#FAF753" fill-opacity="0.8" stroke="none" d="
M 38.05 77.65
Q 30.25 78.75 25 78.75 15.25 78.75 -3.2 73.6 -7.05 72.55 -26.3 66.45 -30.4 65.2 -36.75 60.9 -44.45 55.65 -46.85 50.85 -49.35 45.9 -51.8 39.5 -55 31.45 -55 28.8 -55 27.75 -54.3 25.45 -53.55 23.2 -53.55 22.5 -53.55 19.65 -55 15.15 -55.9 12.5 -56.4 11.05 -56.5 10.6 -56.5 10.2 -56.35 1.75 -51.45 -7.6 -45.15 -17.85 -42.75 -22.15 -41.75 -24.05 -37.5 -28.2 -32.35 -33.25 -30.45 -35.6 -29.9 -36.25 -25.55 -39.75
L -25.5 -39.85 -26.85 -38.8
Q -26.45 -39.55 -26.1 -40.25 -23.2 -46.25 -25.4 -48.85 -27.9 -51.75 -37.05 -48.9 -38.45 -59.35 -37.45 -62.05 -40.65 -65.25 -32.2 -71.65 -24.55 -77.5 -21.35 -81.35 -22.3 -83.15 -24.4 -84.4 -27.2 -86.1 -31.45 -86.1 -37.35 -86.1 -47.5 -83.65 -58.75 -80.85 -74.1 -72.15 -89.45 -63.45 -93.7 -52.3 -97.95 -41.1 -94.85 -40.4 -91.7 -39.75 -89.6 -41.2 -88.55 -40.05 -87.75 -38.2 -86.35 -36.5 -81.55 -37.9
L -81.55 -33.15
Q -88.45 -38.45 -94.35 -33 -100.25 -27.65 -100.5 -15.2 -97.1 -20.3 -91.15 -20.3 -87.45 -20.3 -83.45 -16.55 -79.55 -12.9 -75.55 -12.9 -75.05 -12.9 -72.75 -13.25 -70.45 -13.6 -70 -13.6 -69.45 -13.6 -66.4 -13.25 -63.3 -12.9 -62.85 -12.9 -59.8 -12.9 -58.5 -13.75 -57.35 -14.45 -56.8 -16.25 -56.1 -18.75 -55.5 -20.35 -54.4 -23.25 -52.4 -25.9 -44.75 -36.2 -41.25 -39.7 -38.05 -41.2 -37.15 -39.7 -36.15 -38.95 -37.15 -37.05 -40.35 -32.75 -45.35 -25.35 -50.35 -18 -51.7 -16.25 -52.95 -14.45 -54.45 -11.75 -55.9 -9.4 -58.4 -7.7 -61.4 -5.55 -62.5 -4.35 -65.1 -1.55 -65.1 1.8 -65.1 8.3 -61.4 21.9 -57.65 35.7 -56.8 39.3 -56.65 39.7 -56.5 40.4 -55.9 42.8 -54.6 49.15 -52.5 56.8 -48.7 58.65 -46 60 -39.1 64.45 -33.9 67.85 -28.25 69.8 -9.5 76.35 -3.4 77.95 9.8 81.35 23.9 81.35 30.4 81.35 31.6 81.15 34.6 80.55 38.05 77.65
M -51.3 -54.6
Q -51.3 -52.1 -50.2 -51.45 -49.55 -51.1 -47.75 -51.2 -46.05 -51.4 -45.35 -50.85 -44.25 -50.05 -44.25 -47.3 -44.25 -44.9 -49.1 -38.85 -53.25 -33.7 -53.85 -31.8 -53.95 -31.6 -54.1 -31.35 -54.65 -30.4 -55.2 -29.15 -57.3 -24.6 -58 -24.05 -62.65 -20.4 -62.8 -20.35 -65.15 -18.85 -68.1 -18.85 -70.45 -18.85 -71.45 -19.5 -72.55 -20.35 -72.55 -22.4 -72.55 -24.75 -69.65 -31.1 -67.05 -36.75 -65.5 -38.9 -63.9 -41.05 -59.7 -44.55 -56 -47.6 -54.7 -50.1 -55.75 -51.6 -56.1 -51.8 -56.3 -51.95 -58.2 -51.95 -61.4 -51.95 -67.15 -49.2 -72.85 -46.15 -74 -45.6
L -79.65 -45.6 -79.65 -49
Q -76.45 -59.95 -65.35 -66.4 -59.1 -70.15 -43.5 -75.05
L -39.75 -75.05
Q -41.85 -70.85 -44.35 -68.15 -44.8 -67.65 -48 -64.75 -49.75 -63.15 -50.4 -61.4 -51.3 -59.05 -51.3 -54.6
M 72.3 -57.9
L 68.95 -57.9 68.95 -55.65
Q 69.45 -54.65 71.15 -52.05 72.6 -49.75 72.7 -48.7 72.7 -48.65 72.7 -48.6
L 72.3 -48.6
Q 69.35 -52.7 66.7 -57.35 64.15 -61.85 59.3 -71.65 58 -74.3 48.9 -81.85 38.25 -90.65 32.4 -90.65 30.9 -90.8 30.25 -90.65 29.15 -90.4 29.15 -88.6 29.15 -86.05 31.8 -82.95 35.55 -80.65 39.7 -76.65 39.75 -76.6 39.85 -76.5 42.85 -73.6 46 -69.85 50.8 -64.1 55.1 -57.55 58.6 -52.15 59.65 -49.7
L 59.65 -46.75 57.8 -46.75
Q 54.85 -50.5 53 -52.75 50.9 -55.3 49.2 -56.4 48.05 -56.7 50.15 -47.75 52.2 -38.8 54.1 -36 55.3 -34.3 58.5 -29.6 60.7 -26.3 62.35 -19.35 64.1 -11.85 64.1 -4.7 64.1 -0.95 62.6 3.15 61.2 6.95 59.55 8.2
L 60 8.7
Q 59.75 9.65 59.55 10.7 58.15 16.55 57.25 24.7 56.65 30 55.55 40.1 53.1 57.55 45.5 62.4 44.95 65.4 41.6 68.15 37.7 70.9 36.2 72.4 35.6 72.95 34.45 74.7 33.3 76.45 38.05 77.65
L 38.05 80.25
Q 31.75 84.75 11.9 87.3 -3.35 89.2 -11.15 90.65 -8.15 90.8 -5.15 90.8 38.65 90.8 69.55 59.8 100.5 28.9 100.5 -14.85 100.5 -18.25 100.35 -21.55 98.4 -24.6 96.55 -28.7 95.9 -30.1 91.9 -40 87.85 -50.05 83.35 -56.2
L 83.15 -55.95
Q 83.15 -55.35 83.5 -54.25 83.55 -54.1 83.65 -53.95 83.75 -53.75 83.8 -53.45 84.8 -51.35 86.15 -48.6 87.4 -45.6 86.85 -43.05 86.45 -41.3 88.65 -37.95 91.65 -33.25 92.1 -32.2 92.75 -30.65 93.1 -26.5 93.35 -24.3 93.55 -21.05 93.8 -19.2 96 -15.4 98 -11.85 98 -9.9 98 -8.2 97.85 -5.6 97.55 -0.75 96.95 3.65 94.9 17.55 89.85 22.5 89.05 20.65 89.05 17.85 89.05 17.35 89.45 14.8 89.85 12.2 89.85 11.7 89.85 11.2 89.45 8.65 89.05 6.05 89.05 5.55 89.05 5.15 89.35 4.25 89.4 4.05 89.45 3.9 89.45 3.25 89.55 2.4 89.6 1.1 89.85 -0.75 90.2 -4.25 90.2 -4.5 90.2 -8.05 89.65 -13.6 88.85 -22.5 87.25 -25.15
L 86.6 -25.85
Q 86.15 -25.8 85.4 -25.5 84.35 -25.15 84.25 -25.15 82.15 -35.05 78.55 -43.6 74.4 -52.65 72.3 -57.9 Z"/>
</g>

<g id="parte6_0_Layer0_0_FILL">
<path fill="#FFFFFF" data-correta="#5AC769" fill-opacity="0.8" stroke="none" d="
M 19.95 -28.1
L 16.2 -28.1
Q 0.65 -23.15 -5.65 -19.45 -16.75 -12.95 -19.9 -2.05
L -19.9 1.35 -14.3 1.35
Q -13.15 0.8 -7.45 -2.25 -1.7 -5 1.5 -5 3.4 -5 3.6 -4.85 3.95 -4.65 5.05 -3.15 3.7 -0.6 0.05 2.4 -4.2 5.9 -5.8 8.05 -7.35 10.2 -9.95 15.85 -12.85 22.25 -12.85 24.6 -12.85 26.65 -11.7 27.45 -10.75 28.15 -8.4 28.15 -5.45 28.15 -3.1 26.65 -2.9 26.55 1.7 22.9 2.4 22.35 4.5 17.8 5.05 16.55 5.6 15.6 5.75 15.35 5.9 15.2 6.5 13.25 10.6 8.1 15.45 2.05 15.45 -0.35 15.45 -3.1 14.35 -3.9 13.65 -4.4 11.95 -4.25 10.15 -4.1 9.5 -4.5 8.4 -5.15 8.4 -7.65 8.4 -12.1 9.3 -14.45 9.95 -16.2 11.75 -17.8 14.9 -20.7 15.35 -21.2 17.85 -23.9 19.95 -28.1 Z"/>
</g>

<path id="Layer0_0_MEMBER_7_1_STROKES" stroke="#666666" stroke-width="1" stroke-linejoin="round" stroke-linecap="round" fill="none" d="
M 472.85 153.55
Q 472.75 152.5 471.3 150.2 469.6 147.6 469.1 146.6
L 469.1 144.35 472.5 144.35
Q 474.55 149.6 478.7 158.65 482.3 167.2 484.4 177.1 484.5 177.1 485.55 176.75 486.3 176.45 486.75 176.4
L 487.4 177.1
Q 489 179.75 489.8 188.65 490.35 194.2 490.35 197.75 490.35 198 490 201.5 489.8 203.35 489.7 204.65 489.6 205.5 489.6 206.15 489.55 206.35 489.5 206.5 489.2 207.4 489.2 207.8 489.2 208.3 489.6 210.9 490 213.45 490 213.95 490 214.45 489.6 217.05 489.2 219.6 489.2 220.15 489.2 222.9 490 224.8 495.05 219.85 497.1 205.9 497.7 201.5 498 196.65 498.15 194.05 498.15 192.35 498.15 190.4 496.15 186.85 493.95 183.05 493.7 181.2 493.5 177.95 493.3 175.8 492.9 171.6 492.25 170.05 491.85 169.05 488.8 164.35 486.6 160.95 487 159.2 487.55 156.65 486.3 153.65 484.95 150.9 483.95 148.85 483.75 148.35 483.6 147.95 482.7 147.1 481.55 145.45 479.9 143 479.1 141.8
L 479.1 141
Q 479.3 141.2 479.55 141.4 481.55 143.35 483.5 146.05 488 152.2 492.05 162.25 496.05 172.15 496.7 173.55 498.55 177.65 500.5 180.7 498.3 141.25 469.7 112.7 438.8 81.75 395.05 81.75 351.3 81.75 320.3 112.7 289.4 143.65 289.4 187.4 289.4 231.15 320.3 262.1 326.65 268.4 333.5 273.45
L 333.55 273.35
Q 330.6 268.55 330.6 267.4 330.6 266.95 331 266.4 331.35 265.85 331.35 265.3 331.35 263.9 329.15 263.6 326.45 263.25 325.4 261.25 325.05 260.65 324.25 257.7 323.55 255.2 322.8 254.55 321.75 253.7 320.15 252.7 318.55 251.8 317.9 251.2 316.85 250.25 316.4 248 315.85 245.6 315.3 244.9 313.85 243 312.3 238 310.75 232.75 310.1 231.1 308.35 226.85 305.65 223.4 303.6 221.05 302.6 219.65 302.2 219.15 302 218.8 299.15 215.9 297.65 211.85 295.95 207.45 295.95 202.25 295.95 194.4 298.55 189.05 299.1 187.95 299.7 187.1
L 299.7 187.05
Q 299.9 174.65 305.8 169.25 311.7 163.8 318.6 169.1
L 318.6 164.4
Q 313.8 165.75 312.4 164.1 311.6 162.2 310.6 161.05 308.45 162.5 305.3 161.85 302.2 161.15 306.45 150 310.7 138.8 326.1 130.1 341.4 121.4 352.65 118.65 362.8 116.15 368.7 116.15 372.95 116.15 375.75 117.85 377.85 119.1 378.8 120.95 375.6 124.8 367.95 130.6 359.5 137 362.7 140.2 361.7 142.9 363.1 153.35 372.25 150.5 374.75 153.4 376.95 156 374.05 162.05
L 374.65 162.4
Q 375.95 161.35 377.1 160.4
L 378.5 159.2
Q 385.75 153.1 385.75 152.35 385.75 152.05 382.45 151.8 379.1 151.55 376.6 150.05 374.15 148.55 374.8 145.45 375.4 142.3 387.35 139.3 399.2 136.25 399.4 136.25 403 134.35 404.85 131.65 401.8 127.75 392.7 125.95 377.45 131.55 382.75 127.45 383.6 121.7 388.7 119.9 393.75 118.05 401.2 117.8 408.55 117.5 413.35 119.55 418.15 121.6 419.1 118.85 420 116.05 422.2 116.05 426.75 116.05 431.95 119.3 429.3 116.25 429.3 113.65 429.3 111.9 430.4 111.6 431.05 111.45 432.6 111.6 438.4 111.6 449.05 120.4 458.15 127.95 459.45 130.6 464.3 140.4 466.85 144.9 469.5 149.55 472.5 153.65
L 472.85 153.55
Q 472.85 153.6 472.85 153.65
L 472.5 153.65
M 500.5 180.7
Q 500.65 184.05 500.65 187.4 500.65 231.15 469.7 262.1 438.8 293.05 395.05 293.05 392 293.05 389 292.9 358 291.35 333.7 273.6 333.65 273.5 333.55 273.35
M 355.8 134.1
Q 355.35 134.6 352.2 137.5 350.4 139.1 349.75 140.85 348.85 143.2 348.85 147.65 348.85 150.15 349.95 150.8 350.6 151.2 352.4 151.05 354.1 150.9 354.8 151.4 355.9 152.2 355.9 154.95 355.9 157.35 351.05 163.4 346.95 168.55 346.35 170.5 346.2 170.65 346.05 170.9 345.5 171.85 344.95 173.1 342.85 177.65 342.15 178.2 337.55 181.85 337.35 181.95 335 183.45 332.05 183.45 329.7 183.45 328.75 182.75 327.6 181.95 327.6 179.9 327.6 177.55 330.5 171.15 333.1 165.5 334.65 163.35 336.25 161.2 340.5 157.7 344.15 154.7 345.5 152.15 344.4 150.65 344.05 150.45 343.85 150.3 341.95 150.3 338.75 150.3 333 153.05 327.3 156.1 326.15 156.65
L 320.55 156.65 320.55 153.25
Q 323.7 142.35 334.8 135.85 341.1 132.15 356.65 127.2
L 360.4 127.2
Q 358.3 131.4 355.8 134.1 Z
M 389 292.9
Q 396.8 291.45 412.05 289.55 431.9 287 438.2 282.5
L 438.2 279.9
Q 434.75 282.85 431.75 283.4 430.55 283.6 424.05 283.6 410 283.6 396.8 280.25 390.65 278.6 371.9 272.05 366.25 270.1 361.05 266.75 354.15 262.25 351.45 260.9 347.65 259.05 345.55 251.4 344.3 245.05 343.7 242.65 343.5 241.95 343.4 241.55 342.5 237.95 338.75 224.15 335.05 210.55 335.05 204.05 335.05 200.75 337.65 197.9 338.75 196.7 341.75 194.6 344.25 192.85 345.7 190.5 347.2 187.8 348.45 186.05 349.8 184.25 354.85 176.9 359.85 169.5 363 165.2 364 163.3 363 162.6 362.1 161.05 358.9 162.6 355.45 166.05 347.75 176.35 345.8 179 344.65 181.9 344.05 183.5 343.4 186 342.8 187.85 341.65 188.5 340.35 189.35 337.3 189.35 336.85 189.35 333.75 189.05 330.7 188.65 330.2 188.65 329.7 188.65 327.4 189.05 325.1 189.35 324.65 189.35 320.6 189.35 316.7 185.7 312.7 182 309 182 303.05 182 299.7 187.05
M 377.1 160.4
L 375.65 161.65
Q 375.1 162.05 374.6 162.5 370.25 166 369.7 166.7 367.8 169 362.65 174.05 358.4 178.2 357.4 180.1 355 184.4 348.7 194.65 343.8 204 343.65 212.5 343.65 212.85 343.75 213.3 344.3 214.75 345.15 217.4 346.6 221.9 346.6 224.75 346.6 225.45 345.85 227.75 345.15 230 345.15 231.05 345.15 233.7 348.35 241.8 350.8 248.15 353.3 253.1 355.75 257.9 363.4 263.15 369.75 267.45 373.85 268.7 393.1 274.8 396.95 275.85 415.4 281 425.15 281 430.4 281 438.2 279.9 433.45 278.7 434.65 276.95 435.8 275.25 436.35 274.7 437.9 273.2 441.75 270.4 445.1 267.65 445.65 264.65 453.25 259.8 455.7 242.35 456.8 232.25 457.4 226.95 458.3 218.8 459.7 212.95
L 459.45 210.65
Q 459.6 210.55 459.7 210.45 461.35 209.2 462.8 205.4 464.3 201.3 464.3 197.55 464.3 190.4 462.5 182.9 460.85 175.95 458.7 172.65 455.45 167.95 454.3 166.25 452.35 163.45 450.3 154.5 448.2 145.55 449.35 145.9 451.1 146.95 453.15 149.5 455 151.8 457.95 155.55
L 459.8 155.55 459.8 152.55
Q 458.75 150.1 455.25 144.75 450.95 138.15 446.15 132.4 443 128.65 440 125.75 439.95 125.65 439.85 125.6 435.7 121.6 431.95 119.3
M 361.7 193.95
Q 363.25 192.1 363 189.75 362.7 186.05 366 182 369.25 177.95 371.5 175.8 371.85 175.5 378.25 169.65 386.35 162.25 393.15 160.3 398 158.9 410.25 158.9 412.7 158.9 414.1 156.65 415.5 154.4 416.75 154.4 418 154.4 420 156.7 422.15 159.2 423.7 159.6
L 427.8 159.6
Q 428.5 155.7 428.5 153.45 428.5 151.45 426.7 147.7 424.8 144 424.8 142.1 424.8 141.5 425.05 141.05 425.35 140.65 425.55 140.25 428.3 141.4 430.4 144.45 433.4 148.9 434.85 150.3 436.1 151.5 438.05 156.65 439.95 161.7 441.55 162.95 442.95 164.1 446.75 167.15 450.1 170.2 451.25 173 453 177.35 455.5 182.2 457.2 185.95 457.2 190.5 457.2 194.2 456.05 197.25 454.95 200.2 454.95 205.8 454.95 207.5 452.7 212.45 452.55 215.75 452.35 221.4 452.35 224.1 451.25 227 450.15 229.9 450.15 232.45 450.15 234.9 450.9 239.4 451.65 243.9 451.65 245.25 451.65 247.75 449.2 251.95 447.45 254.9 445.9 256.25 439.5 260.5 437.15 263.9 436.8 264.4 433.05 270.6 430.15 275.4 428.55 276.15 427.6 276.55 421.8 276.55 414.05 276.55 404.3 274.25 394.25 271.85 387.95 268.3 385.95 267.25 380.05 265.35 373.55 263.45 371.55 262.75 368.3 261.65 365.6 259.15 362.75 256.2 360.75 254.15
L 360.75 253.85
Q 360.6 253.8 360.45 253.7 357.2 251.8 354.4 245.75 352.2 239.8 352.2 239.7 352.2 237.8 353.4 237 355 236.35 355.9 235.95 355.6 234.95 352.85 232.35 350.4 229.95 350.4 227.75 350.4 226.8 351.5 222.3 352.55 217.85 352.55 214.9 352.55 211.35 352.2 208.85 351.8 206.35 351.8 204.65 351.8 200.2 356.65 196.85
L 358.8 196.2
Q 358.8 196.15 358.85 196.15 359 196.1 359.25 196 360.75 195.15 361.7 193.95 Z
M 374.05 162.05
Q 373.7 162.7 373.35 163.45
L 374.65 162.4 374.6 162.5
M 483.95 148.85
Q 483.9 148.55 483.8 148.3 483.7 148.15 483.65 148 483.3 146.9 483.3 146.3
L 483.5 146.05
M 459.7 212.95
Q 459.9 211.9 460.2 211
L 459.7 210.45"/>
</defs>

<g transform="matrix( 1, 0, 0, 1, -288.1,-80.5) ">
<use xlink:href="#Layer0_0_MEMBER_0_FILL"/>
</g>

<g id="mccor_0101" transform="matrix( 1, 0, 0, 1, 106.55,96.85) ">
<g transform="matrix( 1, 0, 0, 1, 0,0) ">
<use xlink:href="#parte1_0_Layer0_0_FILL"/>
</g>
</g>

<g id="mccor_0102" transform="matrix( 1, 0, 0, 1, 78.1,147.15) ">
<g transform="matrix( 1, 0, 0, 1, 0,0) ">
<use xlink:href="#parte2_0_Layer0_0_FILL"/>
</g>
</g>

<g id="mccor_0103" transform="matrix( 1, 0, 0, 1, 115.35,126.95) ">
<g transform="matrix( 1, 0, 0, 1, 0,0) ">
<use xlink:href="#parte3_0_Layer0_0_FILL"/>
</g>
</g>

<g id="mccor_0104" transform="matrix( 1, 0, 0, 1, 104.8,118) ">
<g transform="matrix( 1, 0, 0, 1, 0,0) ">
<use xlink:href="#parte4_0_Layer0_0_FILL"/>
</g>
</g>

<g id="mccor_0105" transform="matrix( 1, 0, 0, 1, 112.65,122) ">
<g transform="matrix( 1, 0, 0, 1, 0,0) ">
<use xlink:href="#parte5_0_Layer0_0_FILL"/>
</g>
</g>

<g id="mccor_0106" transform="matrix( 1, 0, 0, 1, 52.35,74.8) ">
<g transform="matrix( 1, 0, 0, 1, 0,0) ">
<use xlink:href="#parte6_0_Layer0_0_FILL"/>
</g>
</g>

<g transform="matrix( 1, 0, 0, 1, -288.1,-80.5) ">
<use xlink:href="#Layer0_0_MEMBER_7_1_STROKES"/>
</g>
</svg>
