
<svg xmlns="http://www.w3.org/2000/svg" version="1.1" xmlns:xlink="http://www.w3.org/1999/xlink" preserveAspectRatio="none" x="0px" y="0px" width="42px" height="60px" viewBox="0 0 42 60">
<defs>
<g id="gr_boneco_0_Layer0_0_FILL">
<path fill="#008000" stroke="none" d="
M 41.1 21.05
L 41.1 15.95 23.95 15.95 23.95 12.9
Q 25.45 11.9 26.1 10.7 27.1 9.05 27.15 6.9 27.15 4.45 25.4 2.35 23.2 0 20.5 0 17.55 0 15.45 2.35 13.65 4.55 13.7 6.9 13.7 8.85 14.7 10.7 15.8 12.35 17 12.9
L 17 15.95 0 15.95 0 21.05 13.25 21.05 13.25 36.2 15.2 36.2 15.35 60 19.6 60 19.6 36.15 21.5 36.15 21.5 60 25.7 60 25.7 36.2 27.6 36.2 27.6 21.05 41.1 21.05 Z"/>
</g>
</defs>

<g transform="matrix( 1, 0, 0, 1, 0.45,0) ">
<g transform="matrix( 1, 0, 0, 1, 0,0) ">
<use xlink:href="#gr_boneco_0_Layer0_0_FILL"/>
</g>
</g>
</svg>
