
<svg xmlns="http://www.w3.org/2000/svg" version="1.1" xmlns:xlink="http://www.w3.org/1999/xlink" preserveAspectRatio="none" x="0px" y="0px" width="201px" height="138px" viewBox="0 0 201 138">
<defs>
<g id="Layer0_0_FILL">
<path fill="#E4E4DA" stroke="none" d="
M 58 121.2
L 62.9 125.5 64.5 119.15 60.25 118.25
Q 60.55 119.6 61.1 120.9
L 58 121.2 Z"/>

<path fill="#D6D3E6" stroke="none" d="
M 58 121.2
L 53.75 121.55
Q 53.75 121.75 53.85 121.95 53.2 122.1 53.05 122.15
L 63.8 132.85 63.8 132.8 64.45 126.9 64.35 126.8 62.9 125.5 58 121.2 Z"/>

<path fill="#FFFAFA" stroke="none" d="
M 60.65 108.9
L 58.6 108.9 53.95 108.8
Q 53.85 109.25 53.75 109.75 52.4 115.75 53.75 121.55
L 58 121.2 61.1 120.9
Q 60.55 119.6 60.25 118.25 59.2 114.05 60.4 109.7
L 60.4 109.65
Q 60.5 109.25 60.65 108.9 Z"/>

<path fill="#FCFEFD" stroke="none" d="
M 58 88.15
Q 65.4 77.5 65.2 63.7 55.25 68.2 44.35 65.05 47.05 77.45 58 88.15 Z"/>

<path fill="#E2B282" stroke="none" d="
M 69.9 98.3
L 68.35 98.3 63.1 109.4 60.4 109.65 60.4 109.7
Q 59.2 114.05 60.25 118.25
L 64.5 119.15 69.9 98.3 Z"/>

<path fill="#D8D2D2" stroke="none" d="
M 78.9 63.65
L 78.85 63.6 69.9 98.3 64.5 119.15 62.9 125.5 64.35 126.8 64.9 126.8 81.7 67.4 78.9 63.65 Z"/>

<path fill="#5C5C5C" stroke="none" d="
M 65.3 50.95
Q 64.5 51.6 63.8 51.9 65.1 58.05 65.2 63.7 65.4 77.5 58 88.15
L 58 88.2
Q 67.2 80 72.6 68.55
L 69.2 65.65 75.2 65.05
Q 72.9 57.8 65.3 50.95 Z"/>

<path fill="#424244" stroke="none" d="
M 34.75 83.15
Q 31.9 50.1 9.05 60.8 6.4 87.9 15.25 109.95 17.5 115.65 20.6 121.05
L 20.7 121.05
Q 36.15 125.25 53.05 122.15 53.2 122.1 53.85 121.95 53.75 121.75 53.75 121.55 52.4 115.75 53.75 109.75 53.85 109.25 53.95 108.8 54.05 108.35 54.2 107.9
L 34.75 104.45 34.7 104.45 34.75 83.15 Z"/>

<path fill="#41423C" stroke="none" d="
M 9.05 60.8
Q 31.9 50.1 34.75 83.15
L 34.7 104.45 34.75 104.45 54.2 107.9
Q 54.05 108.35 53.95 108.8
L 58.6 108.9 57.95 88.3 57.9 88.3
Q 48.15 82.55 37.5 73.1
L 39.9 68.1 33.75 64.75
Q 34.5 54.2 43.15 45.25 22.25 49.25 9.1 60.55 9.05 60.6 9.05 60.7 9.05 60.75 9.05 60.8 Z"/>

<path fill="#8590C8" stroke="none" d="
M 2 8.05
L 2 48.75
Q 19.9 36.85 37.7 29.25 37.1 24.4 38.2 19 40.25 12.1 44.3 8.05
L 2 8.05
M 105.8 15.55
Q 106.3 12.15 108.1 8.95 108.35 8.5 108.65 8.05
L 74.85 8.05
Q 77.95 10.95 80.5 15.3 81 16.05 81.45 16.9 93.65 15.2 105.8 15.55
M 203 51.35
L 203 8.05 138.4 8.05
Q 140.4 10.4 141.5 13.45 141.55 13.6 141.6 13.8
L 141.6 14.3
Q 142 16.3 142.05 18.3 142.05 19.7 141.85 21.1 172.6 29.65 203 51.35 Z"/>

<path fill="#421200" stroke="none" d="
M 78.1 32.25
Q 78.05 32.15 78 32.05 77.2 30.6 75.85 29.15
L 75.9 30.95
Q 76.1 30.85 76.3 30.8 76.1 31 75.9 31.15
L 75.95 33.9
Q 75.65 35.95 74.95 37.9 73.15 42.95 68.65 47.55 74.15 49.95 78.6 48.9 75.1 47.35 75.35 43.9 77.85 45.65 79.35 44.45 77.1 43.6 76.8 40.6 76.8 40.45 76.8 40.3 76.55 37.25 78.1 32.25 Z"/>

<path fill="#4C1405" stroke="none" d="
M 75.9 31.15
L 75.9 30.95
Q 73.6 31.5 71.2 31 74.6 33.45 75.9 31.15
M 64.8 24.45
Q 65.65 24.75 66.45 25.25 65.25 23.85 63.85 23.15 61 21.8 57.35 23.4 61.45 23.05 64.8 24.45
M 55.35 27.1
Q 56.15 30.65 59.6 31 61.6 31.2 64.5 30.3 61.35 30.5 58.8 29.4 56.9 28.6 55.35 27.1
M 84.05 23.3
Q 83.25 20.1 81.45 16.9 81 16.05 80.5 15.3 77.95 10.95 74.85 8.05 67.85 1.5 58 2.3 51.6 2.7 47.1 5.75 45.6 6.75 44.3 8.05 40.25 12.1 38.2 19 37.1 24.4 37.7 29.25 37.7 29.55 37.75 29.85 38.2 36.5 29.45 36.45 32.45 38.8 37.2 37.45 34.5 39.85 29.7 39 35.45 43.05 42.4 38.6 42.45 38.55 42.55 38.5 39.45 42.65 35.2 43.65 37.45 44.45 40.45 43.7 42.4 42.95 43.45 41.55 43.4 43.4 43.9 45.1 44.15 46.05 44.6 46.95 45.8 49.4 48.3 51.35 45.35 46.65 46.35 41.4 46.7 45.05 49.7 46
L 49.6 45.75 49.55 45.65 49.5 45.6
Q 48.25 43.45 47.75 41.15 47.4 39.45 47.45 37.7 48.65 40.1 49.5 40.35 46.7 31.55 54.25 25.55 54.35 25.45 54.45 25.4 55.35 24.7 56.15 24 57.25 22.95 58.15 21.9 59.45 20.25 60.3 18.5 61.6 15.65 61.65 12.5 63.05 16.65 65.6 19.9 68.25 23.3 72.15 25.75 74.2 27.35 75.7 28.95 75.75 29.05 75.85 29.15 77.2 30.6 78 32.05 78.05 32.15 78.1 32.25 80.05 35.8 79 39.3 81.45 36.3 80.5 33.25 80.45 32 78.4 29.3 76.45 26.75 72.85 23.05 76.4 25.15 78.8 27.5 79.45 28.2 80.1 28.95 80.65 29.6 81.1 30.3 78.65 23.35 70.8 18.7 69.75 18.1 68.6 17.55 64.95 15.6 61.2 10.2 60.9 9.7 60.6 9.15 64 13.3 69.5 16.25 71.55 17.15 73.3 18.2 81.2 23.15 81.8 32.05 81.95 32.6 82.1 33.15 82.3 34.5 82.05 35.8 83.75 34.7 84.25 32.85 85.25 28.1 84.05 23.3 82.2 19.9 79.85 17.1 74.85 11.25 67.4 8.05 63.05 6.2 57.85 5.25 65.25 4.9 71.05 8.05 76.5 11 80.55 17 82.45 19.8 84.05 23.3
M 58.45 9.4
Q 58.2 12.3 57.4 14.7 56.3 17.85 54.25 20.2 49.8 25.25 40.7 26.4 48.95 24.55 53.65 18.95 55.5 16.7 56.85 13.9 57.8 11.8 58.45 9.4 Z"/>

<path fill="#753222" stroke="none" d="
M 78.4 29.3
L 78.8 27.5
Q 76.4 25.15 72.85 23.05 76.45 26.75 78.4 29.3
M 67.4 8.05
Q 74.85 11.25 79.85 17.1 82.2 19.9 84.05 23.3 82.45 19.8 80.55 17 76.5 11 71.05 8.05 65.25 4.9 57.85 5.25 63.05 6.2 67.4 8.05
M 81.1 30.3
Q 81.15 30.4 81.2 30.5 81.55 31.25 81.8 32.05 81.2 23.15 73.3 18.2 71.55 17.15 69.5 16.25 64 13.3 60.6 9.15 60.9 9.7 61.2 10.2 64.95 15.6 68.6 17.55 69.75 18.1 70.8 18.7 78.65 23.35 81.1 30.3
M 57.4 14.7
Q 58.2 12.3 58.45 9.4 57.8 11.8 56.85 13.9 55.5 16.7 53.65 18.95 48.95 24.55 40.7 26.4 49.8 25.25 54.25 20.2 56.3 17.85 57.4 14.7 Z"/>

<path fill="#E59E5E" stroke="none" d="
M 49.7 46
Q 46.7 45.05 46.35 41.4 45.35 46.65 48.3 51.35 45.8 49.4 44.6 46.95 42.45 56.35 44.35 65
L 44.35 65.05
Q 55.25 68.2 65.2 63.7 65.1 58.05 63.8 51.9 63.65 51.95 63.5 52.05 63.35 52.05 63.25 52.1 62.4 54.45 59.6 55.65 59.65 55.65 59.7 55.65
L 59.45 55.7
Q 59.5 55.65 59.6 55.65 53.05 55.15 49.7 46 Z"/>

<path fill="#D28541" stroke="none" d="
M 49.5 45.6
L 49.55 45.65 49.6 45.75
Q 49.654296875 45.8724609375 49.75 46
L 49.7 46
Q 53.05 55.15 59.6 55.65 62.4 54.45 63.25 52.1 62.45 52.35 61.8 52.1 56 51.7 47.75 41.15 48.25 43.45 49.5 45.6 Z"/>

<path fill="#5C5C5A" stroke="none" d="
M 43.9 45.1
Q 43.5 45.15 43.15 45.25 34.5 54.2 33.75 64.75
L 39.9 68.1 37.5 73.1
Q 48.15 82.55 57.9 88.3
L 57.95 88.3 58 88.35 58 88.2 58 88.15
Q 47.05 77.45 44.35 65.05
L 44.35 65
Q 42.45 56.35 44.6 46.95 44.15 46.05 43.9 45.1 Z"/>

<path fill="#AAB4D8" stroke="none" d="
M 42.55 38.5
Q 42.45 38.55 42.4 38.6 35.45 43.05 29.7 39 34.5 39.85 37.2 37.45 32.45 38.8 29.45 36.45 38.2 36.5 37.75 29.85 37.7 29.55 37.7 29.25 19.9 36.85 2 48.75
L 2 110 15.25 109.95
Q 6.4 87.9 9.05 60.8 9.05 60.75 9.05 60.7 9.05 60.6 9.1 60.55 22.25 49.25 43.15 45.25 43.5 45.15 43.9 45.1 43.4 43.4 43.45 41.55 42.4 42.95 40.45 43.7 37.45 44.45 35.2 43.65 39.45 42.65 42.55 38.5
M 81.45 16.9
Q 83.25 20.1 84.05 23.3 85.25 28.1 84.25 32.85 83.75 34.7 82.05 35.8 82.3 34.5 82.1 33.15 81.95 32.6 81.8 32.05 81.55 31.25 81.2 30.5 81.15 30.4 81.1 30.3 80.65 29.6 80.1 28.95 79.45 28.2 78.8 27.5
L 78.4 29.3
Q 80.45 32 80.5 33.25 81.45 36.3 79 39.3 80.05 35.8 78.1 32.25 76.55 37.25 76.8 40.3 76.8 40.45 76.8 40.6 77.1 43.6 79.35 44.45 77.85 45.65 75.35 43.9 75.1 47.35 78.6 48.9 74.15 49.95 68.65 47.55 68.45 47.8 68.3 48 80.9 51.1 89.3 56.45
L 91.1 63.85 101.3 64
Q 100 44.8 109.95 42.3 108.9 39.3 108.5 36.6
L 108.5 36.55
Q 108.8 32.45 107.25 27.3 104.9 21.15 105.8 15.55 93.65 15.2 81.45 16.9
M 176.5 50.45
Q 176.7 50.6 176.85 50.8 197.85 73 199.65 109.05
L 203 109.05 203 51.35
Q 172.6 29.65 141.85 21.1 141.7 22 141.5 22.9
L 143 23.3
Q 143.35 28 140.25 33.4 140.05 36.15 140.35 38.25
L 142.6 37.9 147.1 41.4
Q 147.15 41.75 147.25 42.1 162.55 44.05 176.5 50.45 Z"/>

<path fill="#E1A777" stroke="none" d="
M 65.6 19.9
Q 63.05 16.65 61.65 12.5 61.6 15.65 60.3 18.5 59.45 20.25 58.15 21.9 57.25 22.95 56.15 24 55.35 24.7 54.45 25.4 54.35 25.45 54.25 25.55 46.7 31.55 49.5 40.35 48.65 40.1 47.45 37.7 47.4 39.45 47.75 41.15 56 51.7 61.8 52.1 62.45 52.35 63.25 52.1 63.35 52.05 63.5 52.05 63.65 51.95 63.8 51.9 64.5 51.6 65.3 50.95 66.55 49.95 68.1 48.2 68.2 48.1 68.3 48 68.45 47.8 68.65 47.55 73.15 42.95 74.95 37.9 75.65 35.95 75.95 33.9
L 75.9 31.15
Q 74.6 33.45 71.2 31 73.6 31.5 75.9 30.95
L 75.85 29.15
Q 75.75 29.05 75.7 28.95 74.2 27.35 72.15 25.75 68.25 23.3 65.6 19.9
M 59.6 31
Q 56.15 30.65 55.35 27.1 56.9 28.6 58.8 29.4 61.35 30.5 64.5 30.3 61.6 31.2 59.6 31
M 69.1 30.15
Q 69.65 28.65 70.65 27.1 70.25 29.25 70.05 31.4 69.65 35.3 69.85 39.2 67.4 34.85 69.1 30.15
M 64.5 40.95
Q 67.7 41.05 69.6 41.75 68.65 44.8 67 46 66 46.7 64.75 46.75 62.3 47.05 58.8 41.05 62.05 40.8 64.5 40.95
M 66.45 25.25
Q 65.65 24.75 64.8 24.45 61.45 23.05 57.35 23.4 61 21.8 63.85 23.15 65.25 23.85 66.45 25.25 Z"/>

<path fill="#A86D4D" stroke="none" d="
M 69.6 41.75
Q 67.7 41.05 64.5 40.95 62.05 40.8 58.8 41.05 62.3 47.05 64.75 46.75 66 46.7 67 46 68.65 44.8 69.6 41.75
M 65.25 42.45
Q 67.55 42.65 69.1 42.35 68.15 44.4 66.45 44.9 65.85 45.05 65.1 45 62.85 45.4 59.4 41.4 62.75 42.2 65.25 42.45 Z"/>

<path fill="#FFE7C1" stroke="none" d="
M 69.1 42.35
Q 67.55 42.65 65.25 42.45 62.75 42.2 59.4 41.4 62.85 45.4 65.1 45 65.85 45.05 66.45 44.9 68.15 44.4 69.1 42.35 Z"/>

<path fill="#D0925D" stroke="none" d="
M 70.65 27.1
Q 69.65 28.65 69.1 30.15 67.4 34.85 69.85 39.2 69.65 35.3 70.05 31.4 70.25 29.25 70.65 27.1 Z"/>

<path fill="#B4A9AF" stroke="none" d="
M 149.7 86.45
L 155.7 67.55 81.7 67.4 64.9 126.8 64.35 126.8 64.45 126.9 63.8 132.8 137.6 132.3 137.85 126.55 136.85 126.55 139.2 119.3 142.15 110 143.9 104.5 149.7 86.45 Z"/>

<path fill="#E9E4EA" stroke="none" d="
M 156.6 85.65
L 149.7 86.45 143.9 104.5 152.35 109.9 159.95 103.05 156.6 85.65 Z"/>

<path fill="#404237" stroke="none" d="
M 91.1 63.85
L 89.3 56.45
Q 80.9 51.1 68.3 48 68.2 48.1 68.1 48.2 66.55 49.95 65.3 50.95 72.9 57.8 75.2 65.05
L 69.2 65.65 72.6 68.55
Q 67.2 80 58 88.2
L 58 88.35 57.95 88.3 58.6 108.9 60.65 108.9
Q 60.5 109.25 60.4 109.65
L 63.1 109.4 68.35 98.3 69.9 98.3 78.85 63.6 78.9 63.65 91.1 63.85 Z"/>

<path fill="#D8D0CD" stroke="none" d="
M 114.9 64.2
L 101.3 64 91.1 63.85 78.9 63.65 81.7 67.4 155.7 67.55 155.75 67.45 150.85 64.7 147 64.65 131.25 64.4 123.95 64.3 114.9 64.2 Z"/>

<path fill="#D7D6DB" stroke="none" d="
M 114.9 64.2
L 117.35 63.55 111.35 62.15 113.35 49.65
Q 111.2 45.75 109.95 42.3 100 44.8 101.3 64
L 114.9 64.2 Z"/>

<path fill="#DD986E" stroke="none" d="
M 118.75 55.5
L 120.4 58.3
Q 123.5 59.75 126.1 59.45 129.3 59 131.6 55.65 134.2 51.7 135.1 48.1 130.35 54.45 124.5 56.05 124.25 56.1 124 56.15 121.35 56.3 119.4 55.75 119.05 55.6 118.75 55.5 Z"/>

<path fill="#E1E7E7" stroke="none" d="
M 115.45 53.2
Q 114.3 51.35 113.35 49.65
L 111.35 62.15 117.35 63.55 114.9 64.2 123.95 64.3 120.4 58.3 118.75 55.5
Q 118.55 55.45 118.4 55.4 116.6 54.65 115.45 53.2
M 140.35 38.25
Q 140.7 40.35 141.55 41.8 140.7 55.9 131.25 64.4
L 147 64.65
Q 149 53.55 147.25 42.1 147.15 41.75 147.1 41.4
L 142.6 37.9 140.35 38.25 Z"/>

<path fill="#E6AA8E" stroke="none" d="
M 141.5 22.9
Q 141.4 23.15 141.35 23.4 141.3 23.45 141.25 23.55 138.9 26.45 139.45 32.15
L 138.35 33.4 138.3 33.2
Q 138.7 40.95 136.1 46.5 135.9 46.85 135.75 47.15 135.4 47.65 135.1 48.1 134.2 51.7 131.6 55.65 129.3 59 126.1 59.45 123.5 59.75 120.4 58.3
L 123.95 64.3 131.25 64.4
Q 140.7 55.9 141.55 41.8 140.7 40.35 140.35 38.25 140.05 36.15 140.25 33.4 143.35 28 143 23.3
L 141.5 22.9 Z"/>

<path fill="#E9C1A7" stroke="none" d="
M 130.3 22.8
Q 128.75 21.95 127.15 21.25 124 19.8 120.5 18.8 121.25 20.55 124.35 22.35 117.9 21.25 112.3 18.1 112.95 19.95 115.5 21.4 111.5 20.35 108.5 16.45 108 18.15 107.75 19.7 106.85 24.2 107.35 27.5 107.3 27.4 107.25 27.3 108.8 32.45 108.5 36.55
L 108.5 36.6
Q 108.9 39.3 109.95 42.3 111.2 45.75 113.35 49.65 114.3 51.35 115.45 53.2 116.6 54.65 118.4 55.4 118.55 55.45 118.75 55.5 119.05 55.6 119.4 55.75 121.35 56.3 124 56.15 124.25 56.1 124.5 56.05 130.35 54.45 135.1 48.1
L 136.1 46.5
Q 138.7 40.95 138.3 33.2
L 136.15 26.75
Q 133.45 24.55 130.3 22.8
M 125.95 26.45
Q 124.5 26.55 123 26.8 124.55 25 126.4 24.45 130 23.3 134.6 26.8 130.75 26.05 125.95 26.45
M 124.15 30.8
Q 124.55 30.85 124.95 30.95 129.15 31.6 132.6 30.65 128.45 35.05 124.85 31.55 124.5 31.2 124.15 30.8
M 122.25 48.7
Q 122.1 48.9 121.85 48.9
L 119.45 48.9
Q 119.2 48.9 119 48.7 118.85 48.55 118.85 48.3
L 118.85 48.25
Q 118.85 48 119 47.8 119.2 47.65 119.45 47.65
L 121.85 47.65
Q 122.1 47.65 122.25 47.8 122.45 48 122.45 48.25
L 122.45 48.3
Q 122.45 48.55 122.25 48.7
M 123.8 45.95
L 123.7 46.05
Q 122.65 46.4 121.45 46.45 120.8 46.5 120.1 46.45 118.65 46.35 117.1 45.9
L 115.3 42.7
Q 116.9 43 118.55 43.1 120.4 43.15 122.25 42.95 124.65 42.6 127 41.7 127 43.6 123.8 45.95
M 112.5 30.05
Q 114.5 30.4 116.35 30.25 114.65 31.5 113.25 31.7 110.85 31.95 109.15 29.1 110.85 29.75 112.5 30.05
M 115.5 26.9
Q 115.6 27.05 115.75 27.25 113.35 25.85 110.45 25.6 109.4 25.5 108.35 25.55 109 24.5 109.7 23.95 112.15 22.1 115.5 26.9
M 116.7 38.95
L 116.6 38.95 116.35 38.9
Q 116.4 38.75 116.45 38.55 117.6 33.55 116.15 27.4 118.6 30.5 117.4 39.1
L 120.1 39.15 121.6 40.15 117.7 40.65 116.7 38.95 Z"/>

<path fill="#D6A28C" stroke="none" d="
M 117.4 39.1
L 116.7 38.95 117.7 40.65 121.6 40.15 120.1 39.15 117.4 39.1 Z"/>

<path fill="#E7AF94" stroke="none" d="
M 116.6 38.95
L 116.7 38.95 117.4 39.1
Q 118.6 30.5 116.15 27.4 117.6 33.55 116.45 38.55 116.4 38.75 116.35 38.9
L 116.6 38.95 Z"/>

<path fill="#8E6547" stroke="none" d="
M 115.75 27.25
Q 115.6 27.05 115.5 26.9 112.15 22.1 109.7 23.95 109 24.5 108.35 25.55 109.4 25.5 110.45 25.6 113.35 25.85 115.75 27.25
M 123 26.8
Q 124.5 26.55 125.95 26.45 130.75 26.05 134.6 26.8 130 23.3 126.4 24.45 124.55 25 123 26.8 Z"/>

<path fill="#653E1F" stroke="none" d="
M 116.35 30.25
Q 114.5 30.4 112.5 30.05 110.85 29.75 109.15 29.1 110.85 31.95 113.25 31.7 114.65 31.5 116.35 30.25
M 124.95 30.95
Q 124.55 30.85 124.15 30.8 124.5 31.2 124.85 31.55 128.45 35.05 132.6 30.65 129.15 31.6 124.95 30.95 Z"/>

<path fill="#FFF5DA" stroke="none" d="
M 123.7 46.05
L 123.8 45.95
Q 127 43.6 127 41.7 124.65 42.6 122.25 42.95 120.4 43.15 118.55 43.1 116.9 43 115.3 42.7
L 117.1 45.9
Q 118.65 46.35 120.1 46.45 120.8 46.5 121.45 46.45 122.65 46.4 123.7 46.05 Z"/>

<path fill="#CFA380" stroke="none" d="
M 121.85 48.9
Q 122.1 48.9 122.25 48.7 122.45 48.55 122.45 48.3
L 122.45 48.25
Q 122.45 48 122.25 47.8 122.1 47.65 121.85 47.65
L 119.45 47.65
Q 119.2 47.65 119 47.8 118.85 48 118.85 48.25
L 118.85 48.3
Q 118.85 48.55 119 48.7 119.2 48.9 119.45 48.9
L 121.85 48.9 Z"/>

<path fill="#C2905B" stroke="none" d="
M 127.15 21.25
Q 128.75 21.95 130.3 22.8
L 133.2 22.8
Q 133.7 23.1 134.55 23.3 135.35 23.5 135.6 23.65
L 135.85 23.65
Q 133.35 22.55 133.1 22.3
L 131.1 20.8
Q 131.1 20.55390625 130.95 20.55
L 131.65 20.55
Q 131.75 20.6 133.35 21.45 135.3 22.45 136.45 22.85 134.9 20.3 134.3 19.2 133.9 18.55 133.85 18.4 134.5 18.9 135.05 19.35 136.5 20.6 137.35 21.8 138 22.7 139.2 24.55
L 139.45 24.55
Q 139.1 22.65 138.95 21.7 138.9 21.7 138.9 21.65 138.5 21.05 138.6 20.4
L 138.6 20.8 138.85 20.8
Q 138.85 20.95 138.95 21.7 139.55 22.6 139.85 23.4
L 140.35 23.4
Q 140.45 22.5 141.05 20.85 141.15 20.6 141.25 20.3 141.75 19.05 142.05 18.3 142 16.3 141.6 14.3
L 141.6 13.8
Q 141.55 13.6 141.5 13.45 140.4 10.4 138.4 8.05 134.1 2.95 125.4 0.9 113.5 0.7 108.65 8.05 108.35 8.5 108.1 8.95 106.3 12.15 105.8 15.55 104.9 21.15 107.25 27.3 107.3 27.4 107.35 27.5 106.85 24.2 107.75 19.7 108 18.15 108.5 16.45 111.5 20.35 115.5 21.4 112.95 19.95 112.3 18.1 117.9 21.25 124.35 22.35 121.25 20.55 120.5 18.8 124 19.8 127.15 21.25 Z"/>

<path fill="#B07938" stroke="none" d="
M 141.85 21.1
Q 142.05 19.7 142.05 18.3 141.75 19.05 141.25 20.3 141.15 20.6 141.05 20.85 140.45 22.5 140.35 23.4
L 139.85 23.4
Q 139.55 22.6 138.95 21.7 139.1 22.65 139.45 24.55
L 139.2 24.55
Q 138 22.7 137.35 21.8 136.5 20.6 135.05 19.35 134.5 18.9 133.85 18.4 133.9 18.55 134.3 19.2 134.9 20.3 136.45 22.85 136.5 22.85 136.6 22.9
L 136.6 23.15
Q 136.5 23 136.45 22.85 135.3 22.45 133.35 21.45 131.75 20.6 131.65 20.55
L 130.95 20.55
Q 131.1 20.55390625 131.1 20.8
L 133.1 22.3
Q 133.35 22.55 135.85 23.65
L 135.6 23.65
Q 135.35 23.5 134.55 23.3 133.7 23.1 133.2 22.8
L 130.3 22.8
Q 133.45 24.55 136.15 26.75
L 138.3 33.2 138.35 33.4 139.45 32.15
Q 138.9 26.45 141.25 23.55 141.3 23.45 141.35 23.4 141.4 23.15 141.5 22.9 141.7 22 141.85 21.1 Z"/>

<path fill="#CECDD3" stroke="none" d="
M 167.9 107.2
Q 176.75 90.65 191.95 108.3 181.25 89.6 172.4 99.8 170.1 102.5 167.9 107.2
M 164.75 82.55
Q 161.4 71.3 163.5 59 156.5 76.8 166.75 89.7 165.3 86.1 164.75 82.55 Z"/>

<path fill="#5C6C9F" stroke="none" d="
M 203 138
L 203 109.05 199.65 109.05
Q 199.95 114.9 199.75 121.1 180.5 132.6 156.85 125.4
L 150.95 126.2
Q 151.15 125 151.3 123.85 144.95 124.75 139.2 119.3
L 136.85 126.55 137.85 126.55 137.6 132.3 63.8 132.8 63.8 132.85 53.05 122.15
Q 36.15 125.25 20.7 121.05
L 20.6 121.05
Q 17.5 115.65 15.25 109.95
L 2 110 2 138 203 138 Z"/>

<path fill="#EAE5EB" stroke="none" d="
M 176.85 50.8
Q 162.25 66.6 164.75 82.55 165.3 86.1 166.75 89.7 166.85 89.95 166.95 90.25 168.9 95 172.4 99.8 181.25 89.6 191.95 108.3 176.75 90.65 167.9 107.2 167.85 107.2 167.85 107.3 161.65 106.55 157.9 109.25 155.95 110.65 154.6 112.9 152.7 113.9 149.95 112.25 150.1 112.8 150.25 113.35 151.75 118.75 151.3 123.85 151.15 125 150.95 126.2
L 156.85 125.4
Q 180.5 132.6 199.75 121.1 199.95 114.9 199.65 109.05 197.85 73 176.85 50.8 Z"/>

<path fill="#D9D6DF" stroke="none" d="
M 163.5 59
Q 161.4 71.3 164.75 82.55 162.25 66.6 176.85 50.8 176.7 50.6 176.5 50.45 162.55 44.05 147.25 42.1 149 53.55 147 64.65
L 150.85 64.7 155.75 67.45 155.95 67.55 155.7 67.55 149.7 86.45 156.6 85.65 159.95 103.05 152.35 109.9 143.9 104.5 142.15 110
Q 146.2 112.45 150.25 113.35 150.1 112.8 149.95 112.25 152.7 113.9 154.6 112.9 155.95 110.65 157.9 109.25 161.65 106.55 167.85 107.3 167.85 107.2 167.9 107.2 170.1 102.5 172.4 99.8 168.9 95 166.95 90.25 166.85 89.95 166.75 89.7 156.5 76.8 163.5 59 Z"/>
</g>
</defs>

<g transform="matrix( 1, 0, 0, 1, -2,-0.9) ">
<use xlink:href="#Layer0_0_FILL"/>
</g>
</svg>
