<svg xmlns="http://www.w3.org/2000/svg" xmlns:xlink="http://www.w3.org/1999/xlink" preserveAspectRatio="none" width="201" height="138" viewBox="0 0 201 138"><defs><g id="a"><path fill="#E4E4DA" d="M58 121.2l4.9 4.3 1.6-6.35-4.25-.9q.3 1.35.85 2.65l-3.1.3z"/><path fill="#D6D3E6" d="M58 121.2l-4.25.35q0 .2.1.4-.65.15-.8.2l10.75 10.7v-.05l.65-5.9-.1-.1-1.45-1.3-4.9-4.3z"/><path fill="#FFFAFA" d="M60.65 108.9H58.6l-4.65-.1q-.1.45-.2.95-1.35 6 0 11.8l4.25-.35 3.1-.3q-.55-1.3-.85-2.65-1.05-4.2.15-8.55v-.05q.1-.4.25-.75z"/><path fill="#FCFEFD" d="M58 88.15q7.4-10.65 7.2-24.45-9.95 4.5-20.85 1.35 2.7 12.4 13.65 23.1z"/><path fill="#E2B282" d="M69.9 98.3h-1.55l-5.25 11.1-2.7.25v.05q-1.2 4.35-.15 8.55l4.25.9 5.4-20.85z"/><path fill="#D8D2D2" d="M78.9 63.65l-.05-.05-8.95 34.7-5.4 20.85-1.6 6.35 1.45 1.3h.55l16.8-59.4-2.8-3.75z"/><path fill="#5C5C5C" d="M65.3 50.95q-.8.65-1.5.95 1.3 6.15 1.4 11.8.2 13.8-7.2 24.45v.05q9.2-8.2 14.6-19.65l-3.4-2.9 6-.6q-2.3-7.25-9.9-14.1z"/><path fill="#424244" d="M34.75 83.15Q31.9 50.1 9.05 60.8q-2.65 27.1 6.2 49.15 2.25 5.7 5.35 11.1h.1q15.45 4.2 32.35 1.1.15-.05.8-.2-.1-.2-.1-.4-1.35-5.8 0-11.8.1-.5.2-.95.1-.45.25-.9l-19.45-3.45h-.05l.05-21.3z"/><path fill="#41423C" d="M9.05 60.8q22.85-10.7 25.7 22.35l-.05 21.3h.05l19.45 3.45q-.15.45-.25.9l4.65.1-.65-20.6h-.05q-9.75-5.75-20.4-15.2l2.4-5-6.15-3.35q.75-10.55 9.4-19.5-20.9 4-34.05 15.3-.05.05-.05.15v.1z"/><path fill="#8590C8" d="M2 8.05v40.7q17.9-11.9 35.7-19.5-.6-4.85.5-10.25 2.05-6.9 6.1-10.95H2m103.8 7.5q.5-3.4 2.3-6.6.25-.45.55-.9h-33.8q3.1 2.9 5.65 7.25.5.75.95 1.6 12.2-1.7 24.35-1.35m97.2 35.8V8.05h-64.6q2 2.35 3.1 5.4.05.15.1.35v.5q.4 2 .45 4 0 1.4-.2 2.8Q172.6 29.65 203 51.35z"/><path fill="#421200" d="M78.1 32.25l-.1-.2q-.8-1.45-2.15-2.9l.05 1.8q.2-.1.4-.15-.2.2-.4.35l.05 2.75q-.3 2.05-1 4-1.8 5.05-6.3 9.65 5.5 2.4 9.95 1.35-3.5-1.55-3.25-5 2.5 1.75 4 .55-2.25-.85-2.55-3.85v-.3q-.25-3.05 1.3-8.05z"/><path fill="#4C1405" d="M75.9 31.15v-.2q-2.3.55-4.7.05 3.4 2.45 4.7.15m-11.1-6.7q.85.3 1.65.8-1.2-1.4-2.6-2.1-2.85-1.35-6.5.25 4.1-.35 7.45 1.05m-9.45 2.65q.8 3.55 4.25 3.9 2 .2 4.9-.7-3.15.2-5.7-.9-1.9-.8-3.45-2.3m28.7-3.8q-.8-3.2-2.6-6.4-.45-.85-.95-1.6-2.55-4.35-5.65-7.25Q67.85 1.5 58 2.3q-6.4.4-10.9 3.45-1.5 1-2.8 2.3Q40.25 12.1 38.2 19q-1.1 5.4-.5 10.25 0 .3.05.6.45 6.65-8.3 6.6 3 2.35 7.75 1-2.7 2.4-7.5 1.55 5.75 4.05 12.7-.4.05-.05.15-.1-3.1 4.15-7.35 5.15 2.25.8 5.25.05 1.95-.75 3-2.15-.05 1.85.45 3.55.25.95.7 1.85 1.2 2.45 3.7 4.4-2.95-4.7-1.95-9.95.35 3.65 3.35 4.6l-.1-.25-.05-.1-.05-.05q-1.25-2.15-1.75-4.45-.35-1.7-.3-3.45 1.2 2.4 2.05 2.65-2.8-8.8 4.75-14.8.1-.1.2-.15.9-.7 1.7-1.4 1.1-1.05 2-2.1 1.3-1.65 2.15-3.4 1.3-2.85 1.35-6 1.4 4.15 3.95 7.4 2.65 3.4 6.55 5.85 2.05 1.6 3.55 3.2.05.1.15.2 1.35 1.45 2.15 2.9l.1.2q1.95 3.55.9 7.05 2.45-3 1.5-6.05-.05-1.25-2.1-3.95-1.95-2.55-5.55-6.25 3.55 2.1 5.95 4.45.65.7 1.3 1.45.55.65 1 1.35-2.45-6.95-10.3-11.6-1.05-.6-2.2-1.15-3.65-1.95-7.4-7.35-.3-.5-.6-1.05 3.4 4.15 8.9 7.1 2.05.9 3.8 1.95 7.9 4.95 8.5 13.85l.3 1.1q.2 1.35-.05 2.65 1.7-1.1 2.2-2.95 1-4.75-.2-9.55-1.85-3.4-4.2-6.2-5-5.85-12.45-9.05-4.35-1.85-9.55-2.8 7.4-.35 13.2 2.8Q76.5 11 80.55 17q1.9 2.8 3.5 6.3M58.45 9.4q-.25 2.9-1.05 5.3-1.1 3.15-3.15 5.5-4.45 5.05-13.55 6.2 8.25-1.85 12.95-7.45 1.85-2.25 3.2-5.05.95-2.1 1.6-4.5z"/><path fill="#753222" d="M78.4 29.3l.4-1.8q-2.4-2.35-5.95-4.45 3.6 3.7 5.55 6.25m-11-21.25q7.45 3.2 12.45 9.05 2.35 2.8 4.2 6.2-1.6-3.5-3.5-6.3-4.05-6-9.5-8.95-5.8-3.15-13.2-2.8 5.2.95 9.55 2.8M81.1 30.3l.1.2q.35.75.6 1.55-.6-8.9-8.5-13.85-1.75-1.05-3.8-1.95-5.5-2.95-8.9-7.1.3.55.6 1.05 3.75 5.4 7.4 7.35 1.15.55 2.2 1.15 7.85 4.65 10.3 11.6M57.4 14.7q.8-2.4 1.05-5.3-.65 2.4-1.6 4.5-1.35 2.8-3.2 5.05-4.7 5.6-12.95 7.45 9.1-1.15 13.55-6.2 2.05-2.35 3.15-5.5z"/><path fill="#E59E5E" d="M49.7 46q-3-.95-3.35-4.6-1 5.25 1.95 9.95-2.5-1.95-3.7-4.4-2.15 9.4-.25 18.05v.05q10.9 3.15 20.85-1.35-.1-5.65-1.4-11.8-.15.05-.3.15-.15 0-.25.05-.85 2.35-3.65 3.55h.1l-.25.05q.05-.05.15-.05-6.55-.5-9.9-9.65z"/><path fill="#D28541" d="M49.5 45.6l.05.05.05.1q.054.122.15.25h-.05q3.35 9.15 9.9 9.65 2.8-1.2 3.65-3.55-.8.25-1.45 0-5.8-.4-14.05-10.95.5 2.3 1.75 4.45z"/><path fill="#5C5C5A" d="M43.9 45.1q-.4.05-.75.15-8.65 8.95-9.4 19.5l6.15 3.35-2.4 5q10.65 9.45 20.4 15.2h.05l.05.05v-.2q-10.95-10.7-13.65-23.1V65q-1.9-8.65.25-18.05-.45-.9-.7-1.85z"/><path fill="#AAB4D8" d="M42.55 38.5q-.1.05-.15.1-6.95 4.45-12.7.4 4.8.85 7.5-1.55-4.75 1.35-7.75-1 8.75.05 8.3-6.6-.05-.3-.05-.6-17.8 7.6-35.7 19.5V110l13.25-.05Q6.4 87.9 9.05 60.8v-.1q0-.1.05-.15 13.15-11.3 34.05-15.3.35-.1.75-.15-.5-1.7-.45-3.55-1.05 1.4-3 2.15-3 .75-5.25-.05 4.25-1 7.35-5.15m38.9-21.6q1.8 3.2 2.6 6.4 1.2 4.8.2 9.55-.5 1.85-2.2 2.95.25-1.3.05-2.65l-.3-1.1q-.25-.8-.6-1.55l-.1-.2q-.45-.7-1-1.35-.65-.75-1.3-1.45l-.4 1.8q2.05 2.7 2.1 3.95.95 3.05-1.5 6.05 1.05-3.5-.9-7.05-1.55 5-1.3 8.05v.3q.3 3 2.55 3.85-1.5 1.2-4-.55-.25 3.45 3.25 5-4.45 1.05-9.95-1.35-.2.25-.35.45 12.6 3.1 21 8.45l1.8 7.4 10.2.15q-1.3-19.2 8.65-21.7-1.05-3-1.45-5.7v-.05q.3-4.1-1.25-9.25-2.35-6.15-1.45-11.75-12.15-.35-24.35 1.35m95.05 33.55q.2.15.35.35 21 22.2 22.8 58.25H203v-57.7q-30.4-21.7-61.15-30.25-.15.9-.35 1.8l1.5.4q.35 4.7-2.75 10.1-.2 2.75.1 4.85l2.25-.35 4.5 3.5q.05.35.15.7 15.3 1.95 29.25 8.35z"/><path fill="#E1A777" d="M65.6 19.9q-2.55-3.25-3.95-7.4-.05 3.15-1.35 6-.85 1.75-2.15 3.4-.9 1.05-2 2.1-.8.7-1.7 1.4-.1.05-.2.15-7.55 6-4.75 14.8-.85-.25-2.05-2.65-.05 1.75.3 3.45Q56 51.7 61.8 52.1q.65.25 1.45 0 .1-.05.25-.05.15-.1.3-.15.7-.3 1.5-.95 1.25-1 2.8-2.75l.2-.2q.15-.2.35-.45 4.5-4.6 6.3-9.65.7-1.95 1-4l-.05-2.75q-1.3 2.3-4.7-.15 2.4.5 4.7-.05l-.05-1.8q-.1-.1-.15-.2-1.5-1.6-3.55-3.2-3.9-2.45-6.55-5.85m-6 11.1q-3.45-.35-4.25-3.9 1.55 1.5 3.45 2.3 2.55 1.1 5.7.9-2.9.9-4.9.7m9.5-.85q.55-1.5 1.55-3.05-.4 2.15-.6 4.3-.4 3.9-.2 7.8-2.45-4.35-.75-9.05m-4.6 10.8q3.2.1 5.1.8Q68.65 44.8 67 46q-1 .7-2.25.75-2.45.3-5.95-5.7 3.25-.25 5.7-.1m1.95-15.7q-.8-.5-1.65-.8-3.35-1.4-7.45-1.05 3.65-1.6 6.5-.25 1.4.7 2.6 2.1z"/><path fill="#A86D4D" d="M69.6 41.75q-1.9-.7-5.1-.8-2.45-.15-5.7.1 3.5 6 5.95 5.7Q66 46.7 67 46q1.65-1.2 2.6-4.25m-4.35.7q2.3.2 3.85-.1-.95 2.05-2.65 2.55-.6.15-1.35.1-2.25.4-5.7-3.6 3.35.8 5.85 1.05z"/><path fill="#FFE7C1" d="M69.1 42.35q-1.55.3-3.85.1-2.5-.25-5.85-1.05 3.45 4 5.7 3.6.75.05 1.35-.1 1.7-.5 2.65-2.55z"/><path fill="#D0925D" d="M70.65 27.1q-1 1.55-1.55 3.05-1.7 4.7.75 9.05-.2-3.9.2-7.8.2-2.15.6-4.3z"/><path fill="#B4A9AF" d="M149.7 86.45l6-18.9-74-.15-16.8 59.4h-.55l.1.1-.65 5.9 73.8-.5.25-5.75h-1l2.35-7.25 2.95-9.3 1.75-5.5 5.8-18.05z"/><path fill="#E9E4EA" d="M156.6 85.65l-6.9.8-5.8 18.05 8.45 5.4 7.6-6.85-3.35-17.4z"/><path fill="#404237" d="M91.1 63.85l-1.8-7.4q-8.4-5.35-21-8.45l-.2.2q-1.55 1.75-2.8 2.75 7.6 6.85 9.9 14.1l-6 .6 3.4 2.9Q67.2 80 58 88.2v.15l-.05-.05.65 20.6h2.05q-.15.35-.25.75l2.7-.25 5.25-11.1h1.55l8.95-34.7.05.05 12.2.2z"/><path fill="#D8D0CD" d="M114.9 64.2l-13.6-.2-10.2-.15-12.2-.2 2.8 3.75 74 .15.05-.1-4.9-2.75-3.85-.05-15.75-.25-7.3-.1-9.05-.1z"/><path fill="#D7D6DB" d="M114.9 64.2l2.45-.65-6-1.4 2-12.5q-2.15-3.9-3.4-7.35Q100 44.8 101.3 64l13.6.2z"/><path fill="#DD986E" d="M118.75 55.5l1.65 2.8q3.1 1.45 5.7 1.15 3.2-.45 5.5-3.8 2.6-3.95 3.5-7.55-4.75 6.35-10.6 7.95l-.5.1q-2.65.15-4.6-.4-.35-.15-.65-.25z"/><path fill="#E1E7E7" d="M115.45 53.2q-1.15-1.85-2.1-3.55l-2 12.5 6 1.4-2.45.65 9.05.1-3.55-6-1.65-2.8q-.2-.05-.35-.1-1.8-.75-2.95-2.2m24.9-14.95q.35 2.1 1.2 3.55-.85 14.1-10.3 22.6l15.75.25q2-11.1.25-22.55-.1-.35-.15-.7l-4.5-3.5-2.25.35z"/><path fill="#E6AA8E" d="M141.5 22.9q-.1.25-.15.5-.05.05-.1.15-2.35 2.9-1.8 8.6l-1.1 1.25-.05-.2q.4 7.75-2.2 13.3-.2.35-.35.65-.35.5-.65.95-.9 3.6-3.5 7.55-2.3 3.35-5.5 3.8-2.6.3-5.7-1.15l3.55 6 7.3.1q9.45-8.5 10.3-22.6-.85-1.45-1.2-3.55-.3-2.1-.1-4.85 3.1-5.4 2.75-10.1l-1.5-.4z"/><path fill="#E9C1A7" d="M130.3 22.8q-1.55-.85-3.15-1.55-3.15-1.45-6.65-2.45.75 1.75 3.85 3.55-6.45-1.1-12.05-4.25.65 1.85 3.2 3.3-4-1.05-7-4.95-.5 1.7-.75 3.25-.9 4.5-.4 7.8l-.1-.2q1.55 5.15 1.25 9.25v.05q.4 2.7 1.45 5.7 1.25 3.45 3.4 7.35.95 1.7 2.1 3.55 1.15 1.45 2.95 2.2.15.05.35.1.3.1.65.25 1.95.55 4.6.4l.5-.1q5.85-1.6 10.6-7.95l1-1.6q2.6-5.55 2.2-13.3l-2.15-6.45q-2.7-2.2-5.85-3.95m-4.35 3.65q-1.45.1-2.95.35 1.55-1.8 3.4-2.35 3.6-1.15 8.2 2.35-3.85-.75-8.65-.35m-1.8 4.35q.4.05.8.15 4.2.65 7.65-.3-4.15 4.4-7.75.9-.35-.35-.7-.75m-1.9 17.9q-.15.2-.4.2h-2.4q-.25 0-.45-.2-.15-.15-.15-.4v-.05q0-.25.15-.45.2-.15.45-.15h2.4q.25 0 .4.15.2.2.2.45v.05q0 .25-.2.4m1.55-2.75l-.1.1q-1.05.35-2.25.4-.65.05-1.35 0-1.45-.1-3-.55l-1.8-3.2q1.6.3 3.25.4 1.85.05 3.7-.15 2.4-.35 4.75-1.25 0 1.9-3.2 4.25m-11.3-15.9q2 .35 3.85.2-1.7 1.25-3.1 1.45-2.4.25-4.1-2.6 1.7.65 3.35.95m3-3.15q.1.15.25.35-2.4-1.4-5.3-1.65-1.05-.1-2.1-.05.65-1.05 1.35-1.6 2.45-1.85 5.8 2.95m1.2 12.05h-.1l-.25-.05q.05-.15.1-.35 1.15-5-.3-11.15 2.45 3.1 1.25 11.7l2.7.05 1.5 1-3.9.5-1-1.7z"/><path fill="#D6A28C" d="M117.4 39.1l-.7-.15 1 1.7 3.9-.5-1.5-1-2.7-.05z"/><path fill="#E7AF94" d="M116.6 38.95h.1l.7.15q1.2-8.6-1.25-11.7 1.45 6.15.3 11.15-.05.2-.1.35l.25.05z"/><path fill="#8E6547" d="M115.75 27.25q-.15-.2-.25-.35-3.35-4.8-5.8-2.95-.7.55-1.35 1.6 1.05-.05 2.1.05 2.9.25 5.3 1.65m7.25-.45q1.5-.25 2.95-.35 4.8-.4 8.65.35-4.6-3.5-8.2-2.35-1.85.55-3.4 2.35z"/><path fill="#653E1F" d="M116.35 30.25q-1.85.15-3.85-.2-1.65-.3-3.35-.95 1.7 2.85 4.1 2.6 1.4-.2 3.1-1.45m8.6.7q-.4-.1-.8-.15.35.4.7.75 3.6 3.5 7.75-.9-3.45.95-7.65.3z"/><path fill="#FFF5DA" d="M123.7 46.05l.1-.1q3.2-2.35 3.2-4.25-2.35.9-4.75 1.25-1.85.2-3.7.15-1.65-.1-3.25-.4l1.8 3.2q1.55.45 3 .55.7.05 1.35 0 1.2-.05 2.25-.4z"/><path fill="#CFA380" d="M121.85 48.9q.25 0 .4-.2.2-.15.2-.4v-.05q0-.25-.2-.45-.15-.15-.4-.15h-2.4q-.25 0-.45.15-.15.2-.15.45v.05q0 .25.15.4.2.2.45.2h2.4z"/><path fill="#C2905B" d="M127.15 21.25q1.6.7 3.15 1.55h2.9q.5.3 1.35.5.8.2 1.05.35h.25q-2.5-1.1-2.75-1.35l-2-1.5q0-.246-.15-.25h.7q.1.05 1.7.9 1.95 1 3.1 1.4-1.55-2.55-2.15-3.65-.4-.65-.45-.8.65.5 1.2.95 1.45 1.25 2.3 2.45.65.9 1.85 2.75h.25q-.35-1.9-.5-2.85-.05 0-.05-.05-.4-.6-.3-1.25v.4h.25q0 .15.1.9.6.9.9 1.7h.5q.1-.9.7-2.55.1-.25.2-.55l.8-2q-.05-2-.45-4v-.5q-.05-.2-.1-.35-1.1-3.05-3.1-5.4-4.3-5.1-13-7.15-11.9-.2-16.75 7.15-.3.45-.55.9-1.8 3.2-2.3 6.6-.9 5.6 1.45 11.75l.1.2q-.5-3.3.4-7.8.25-1.55.75-3.25 3 3.9 7 4.95-2.55-1.45-3.2-3.3 5.6 3.15 12.05 4.25-3.1-1.8-3.85-3.55 3.5 1 6.65 2.45z"/><path fill="#B07938" d="M141.85 21.1q.2-1.4.2-2.8l-.8 2q-.1.3-.2.55-.6 1.65-.7 2.55h-.5q-.3-.8-.9-1.7.15.95.5 2.85h-.25q-1.2-1.85-1.85-2.75-.85-1.2-2.3-2.45-.55-.45-1.2-.95.05.15.45.8.6 1.1 2.15 3.65.05 0 .15.05v.25q-.1-.15-.15-.3-1.15-.4-3.1-1.4-1.6-.85-1.7-.9h-.7q.15.004.15.25l2 1.5q.25.25 2.75 1.35h-.25q-.25-.15-1.05-.35-.85-.2-1.35-.5h-2.9q3.15 1.75 5.85 3.95l2.15 6.45.05.2 1.1-1.25q-.55-5.7 1.8-8.6.05-.1.1-.15.05-.25.15-.5.2-.9.35-1.8z"/><path fill="#CECDD3" d="M167.9 107.2q8.85-16.55 24.05 1.1-10.7-18.7-19.55-8.5-2.3 2.7-4.5 7.4m-3.15-24.65Q161.4 71.3 163.5 59q-7 17.8 3.25 30.7-1.45-3.6-2-7.15z"/><path fill="#5C6C9F" d="M203 138v-28.95h-3.35q.3 5.85.1 12.05-19.25 11.5-42.9 4.3l-5.9.8q.2-1.2.35-2.35-6.35.9-12.1-4.55l-2.35 7.25h1l-.25 5.75-73.8.5v.05l-10.75-10.7q-16.9 3.1-32.35-1.1h-.1q-3.1-5.4-5.35-11.1L2 110v28h201z"/><path fill="#EAE5EB" d="M176.85 50.8q-14.6 15.8-12.1 31.75.55 3.55 2 7.15.1.25.2.55 1.95 4.75 5.45 9.55 8.85-10.2 19.55 8.5-15.2-17.65-24.05-1.1-.05 0-.05.1-6.2-.75-9.95 1.95-1.95 1.4-3.3 3.65-1.9 1-4.65-.65l.3 1.1q1.5 5.4 1.05 10.5-.15 1.15-.35 2.35l5.9-.8q23.65 7.2 42.9-4.3.2-6.2-.1-12.05-1.8-36.05-22.8-58.25z"/><path fill="#D9D6DF" d="M163.5 59q-2.1 12.3 1.25 23.55-2.5-15.95 12.1-31.75-.15-.2-.35-.35-13.95-6.4-29.25-8.35Q149 53.55 147 64.65l3.85.05 4.9 2.75.2.1h-.25l-6 18.9 6.9-.8 3.35 17.4-7.6 6.85-8.45-5.4-1.75 5.5q4.05 2.45 8.1 3.35l-.3-1.1q2.75 1.65 4.65.65 1.35-2.25 3.3-3.65 3.75-2.7 9.95-1.95 0-.1.05-.1 2.2-4.7 4.5-7.4-3.5-4.8-5.45-9.55-.1-.3-.2-.55Q156.5 76.8 163.5 59z"/></g></defs><use xlink:href="#a" transform="translate(-2 -.9)"/></svg>