
<svg xmlns="http://www.w3.org/2000/svg" version="1.1" xmlns:xlink="http://www.w3.org/1999/xlink" preserveAspectRatio="none" x="0px" y="0px" width="66px" height="59px" viewBox="0 0 66 59">
<defs>
<linearGradient id="Gradient_1" gradientUnits="userSpaceOnUse" x1="36" y1="38.75" x2="36" y2="56.45" spreadMethod="pad">
<stop  offset="0%" stop-color="#516472" stop-opacity="0.30196078431372547"/>

<stop  offset="85.09803921568627%" stop-color="#FFFFFF" stop-opacity="0.6"/>
</linearGradient>

<linearGradient id="Gradient_2" gradientUnits="userSpaceOnUse" x1="37" y1="42" x2="37" y2="6" spreadMethod="pad">
<stop  offset="0%" stop-color="#516472" stop-opacity="0.6"/>

<stop  offset="100%" stop-color="#FFFFFF" stop-opacity="0.6"/>
</linearGradient>

<g id="gr_info_0_Layer0_0_MEMBER_0_FILL">
<path fill="#EFEFEF" stroke="none" d="
M 47.55 8.35
Q 45.5 4.9 41.55 4.9 37.65 4.9 35.6 8.35
L 10.55 51.4
Q 9.65 53 9.65 54.85 9.65 56.75 10.55 58.3 12.55 61.7 16.55 61.8
L 66.6 61.8
Q 70.6 61.7 72.6 58.3 73.5 56.75 73.5 54.85 73.5 53 72.6 51.4
L 47.55 8.35 Z"/>
</g>

<g id="gr_info_0_Layer0_0_MEMBER_1_FILL">
<path fill="#FFFFFF" stroke="none" d="
M 39.8 3.5
Q 35.9 3.5 33.85 6.95
L 8.8 50
Q 7.9 51.6 7.9 53.45 7.9 55.35 8.8 56.9 10.8 60.3 14.8 60.4
L 64.85 60.4
Q 68.85 60.3 70.85 56.9 71.75 55.35 71.75 53.45 71.75 51.6 70.85 50
L 45.8 6.95
Q 43.75 3.5 39.8 3.5 Z"/>
</g>

<g id="gr_info_0_Layer0_0_MEMBER_2_MEMBER_0_MEMBER_0_FILL">
<path fill="#516472" stroke="none" d="
M 39.75 6.25
Q 37.55 6.25 36.4 8.2
L 11.35 51.25
Q 10.3 53.2 11.35 55.15 12.45 57.15 14.75 57.15
L 64.8 57.15
Q 67.1 57.15 68.2 55.15 69.35 53.2 68.2 51.25
L 43.15 8.2
Q 42 6.25 39.75 6.25 Z"/>
</g>

<g id="gr_info_0_Layer0_0_MEMBER_2_MEMBER_0_MEMBER_1_FILL">
<path fill="#FFFFFF" stroke="none" d="
M 42.85 25.65
Q 44.1 24.4 44.1 22.55 44.1 20.65 42.85 19.45 41.55 18.15 39.75 18.15 37.9 18.15 36.6 19.45 35.35 20.7 35.35 22.55 35.35 24.3 36.6 25.65 37.85 26.9 39.75 26.9 41.6 26.9 42.85 25.65
M 44.4 33.25
Q 44.4 31.05 43.1 29.8 41.95 28.65 39.75 28.65 37.55 28.65 36.35 29.8 35.1 31 35.1 33.25
L 35.1 48.8
Q 35.1 51.1 36.35 52.25 37.65 53.4 39.75 53.4 41.85 53.4 43.1 52.25 44.4 51.05 44.4 48.8
L 44.4 33.25 Z"/>
</g>

<g id="gr_info_0_Layer0_0_MEMBER_3_MEMBER_0_FILL">
<path fill="url(#Gradient_1)" stroke="none" d="
M 39.85 7.2
Q 37.65 7.2 36.55 9
L 12.4 50.55
Q 11.35 52.4 12.4 54.35 13.45 56.2 15.65 56.2
L 64 56.2
Q 66.2 56.2 67.25 54.35 68.4 52.4 67.25 50.55
L 43.1 9
Q 42 7.2 39.85 7.2 Z"/>
</g>

<g id="gr_info_0_Layer0_0_MEMBER_3_MEMBER_1_FILL">
<path fill="url(#Gradient_2)" stroke="none" d="
M 47.55 29.6
Q 52.15 29.6 55 30.4
L 43.35 9.5
Q 42.2 7.55 39.95 7.55 37.75 7.55 36.55 9.5
L 19 40.45
Q 31.95 29.6 47.55 29.6 Z"/>
</g>

<path id="gr_info_0_Layer0_0_MEMBER_1_1_STROKES" stroke="#EAE9E8" stroke-width="1" stroke-linejoin="round" stroke-linecap="round" fill="none" d="
M 45.8 6.95
L 70.85 50
Q 71.75 51.6 71.75 53.45 71.75 55.35 70.85 56.9 68.85 60.3 64.85 60.4
L 14.8 60.4
Q 10.8 60.3 8.8 56.9 7.9 55.35 7.9 53.45 7.9 51.6 8.8 50
L 33.85 6.95
Q 35.9 3.5 39.8 3.5 43.75 3.5 45.8 6.95 Z"/>
</defs>

<g transform="matrix( 1, 0, 0, 1, -7.9,-3.5) ">
<g transform="matrix( 1, 0, 0, 1, 0,0) ">
<use xlink:href="#gr_info_0_Layer0_0_MEMBER_0_FILL"/>
</g>

<g transform="matrix( 1, 0, 0, 1, 0,0) ">
<use xlink:href="#gr_info_0_Layer0_0_MEMBER_1_FILL"/>

<use xlink:href="#gr_info_0_Layer0_0_MEMBER_1_1_STROKES"/>
</g>

<g transform="matrix( 1, 0, 0, 1, 0,0) ">
<use xlink:href="#gr_info_0_Layer0_0_MEMBER_2_MEMBER_0_MEMBER_0_FILL"/>
</g>

<g transform="matrix( 1, 0, 0, 1, 0,0) ">
<use xlink:href="#gr_info_0_Layer0_0_MEMBER_2_MEMBER_0_MEMBER_1_FILL"/>
</g>

<g transform="matrix( 1, 0, 0, 1, 0,0) ">
<use xlink:href="#gr_info_0_Layer0_0_MEMBER_3_MEMBER_0_FILL"/>
</g>

<g transform="matrix( 1, 0, 0, 1, 0,0) ">
<use xlink:href="#gr_info_0_Layer0_0_MEMBER_3_MEMBER_1_FILL"/>
</g>
</g>
</svg>
