<svg xmlns="http://www.w3.org/2000/svg" xmlns:xlink="http://www.w3.org/1999/xlink" preserveAspectRatio="none" width="66" height="59" viewBox="0 0 66 59"><defs><linearGradient id="a" gradientUnits="userSpaceOnUse" x1="36" y1="38.75" x2="36" y2="56.45"><stop offset="0%" stop-color="#516472" stop-opacity=".302"/><stop offset="85.098%" stop-color="#FFF" stop-opacity=".6"/></linearGradient><linearGradient id="b" gradientUnits="userSpaceOnUse" x1="37" y1="42" x2="37" y2="6"><stop offset="0%" stop-color="#516472" stop-opacity=".6"/><stop offset="100%" stop-color="#FFF" stop-opacity=".6"/></linearGradient><path fill="#EFEFEF" d="M47.55 8.35q-2.05-3.45-6-3.45-3.9 0-5.95 3.45L10.55 51.4q-.9 1.6-.9 3.45 0 1.9.9 3.45 2 3.4 6 3.5H66.6q4-.1 6-3.5.9-1.55.9-3.45 0-1.85-.9-3.45L47.55 8.35z" id="c"/><path fill="#FFF" d="M39.8 3.5q-3.9 0-5.95 3.45L8.8 50q-.9 1.6-.9 3.45 0 1.9.9 3.45 2 3.4 6 3.5h50.05q4-.1 6-3.5.9-1.55.9-3.45 0-1.85-.9-3.45L45.8 6.95q-2.05-3.45-6-3.45z" id="d"/><path fill="#516472" d="M39.75 6.25q-2.2 0-3.35 1.95L11.35 51.25q-1.05 1.95 0 3.9 1.1 2 3.4 2H64.8q2.3 0 3.4-2 1.15-1.95 0-3.9L43.15 8.2Q42 6.25 39.75 6.25z" id="f"/><path fill="#FFF" d="M42.85 25.65q1.25-1.25 1.25-3.1 0-1.9-1.25-3.1-1.3-1.3-3.1-1.3-1.85 0-3.15 1.3-1.25 1.25-1.25 3.1 0 1.75 1.25 3.1 1.25 1.25 3.15 1.25 1.85 0 3.1-1.25m1.55 7.6q0-2.2-1.3-3.45-1.15-1.15-3.35-1.15t-3.4 1.15Q35.1 31 35.1 33.25V48.8q0 2.3 1.25 3.45 1.3 1.15 3.4 1.15 2.1 0 3.35-1.15 1.3-1.2 1.3-3.45V33.25z" id="g"/><path fill="url(#a)" d="M39.85 7.2q-2.2 0-3.3 1.8L12.4 50.55q-1.05 1.85 0 3.8 1.05 1.85 3.25 1.85H64q2.2 0 3.25-1.85 1.15-1.95 0-3.8L43.1 9Q42 7.2 39.85 7.2z" id="h"/><path fill="url(#b)" d="M47.55 29.6q4.6 0 7.45.8L43.35 9.5q-1.15-1.95-3.4-1.95-2.2 0-3.4 1.95L19 40.45Q31.95 29.6 47.55 29.6z" id="i"/><path id="e" stroke="#EAE9E8" stroke-linejoin="round" stroke-linecap="round" fill="none" d="M45.8 6.95L70.85 50q.9 1.6.9 3.45 0 1.9-.9 3.45-2 3.4-6 3.5H14.8q-4-.1-6-3.5-.9-1.55-.9-3.45 0-1.85.9-3.45L33.85 6.95Q35.9 3.5 39.8 3.5q3.95 0 6 3.45z"/></defs><use xlink:href="#c" transform="translate(-7.9 -3.5)"/><g transform="translate(-7.9 -3.5)"><use xlink:href="#d"/><use xlink:href="#e"/></g><use xlink:href="#f" transform="translate(-7.9 -3.5)"/><use xlink:href="#g" transform="translate(-7.9 -3.5)"/><use xlink:href="#h" transform="translate(-7.9 -3.5)"/><use xlink:href="#i" transform="translate(-7.9 -3.5)"/></svg>