<svg xmlns="http://www.w3.org/2000/svg" xmlns:xlink="http://www.w3.org/1999/xlink" preserveAspectRatio="none" width="143" height="127" viewBox="0 0 143 127"><defs><linearGradient id="a" gradientUnits="userSpaceOnUse" x1="31.9" y1=".225" x2="31.9" y2="56.175"><stop offset="0%" stop-color="#FDCB38" stop-opacity=".102"/><stop offset="100%" stop-color="#FFF" stop-opacity=".102"/></linearGradient><linearGradient id="b" gradientUnits="userSpaceOnUse" x1="31.9" y1="34.2" x2="31.9" y2="64.1"><stop offset="2.353%" stop-color="#FDCB38" stop-opacity=".702"/><stop offset="100%" stop-color="#FFF" stop-opacity=".702"/></linearGradient><linearGradient id="c" gradientUnits="userSpaceOnUse" x1="28.9" y1="39.85" x2="28.9" y2="53.65"><stop offset="3.922%" stop-color="#FDCB38" stop-opacity=".102"/><stop offset="100%" stop-color="#FFF" stop-opacity=".102"/></linearGradient><linearGradient id="d" gradientUnits="userSpaceOnUse" x1="29.1" y1="38.5" x2="29.1" y2="2.5"><stop offset="0%" stop-color="#FDCB38" stop-opacity=".6"/><stop offset="100%" stop-color="#FFF" stop-opacity=".6"/></linearGradient><path fill="#EFEFEF" d="M27.7 4.85L2.65 47.9q-.9 1.6-.9 3.45 0 1.9.9 3.45 2 3.4 6 3.5H58.7q4-.1 6-3.5.9-1.55.9-3.45 0-1.85-.9-3.45L39.65 4.85q-2.05-3.45-6-3.45-3.9 0-5.95 3.45z" id="e"/><path fill="#FFF" d="M25.95 3.45L.9 46.5Q0 48.1 0 49.95q0 1.9.9 3.45 2 3.4 6 3.5h50.05q4-.1 6-3.5.9-1.55.9-3.45 0-1.85-.9-3.45L37.9 3.45Q35.85 0 31.9 0 28 0 25.95 3.45z" id="f"/><path fill="#FDCB38" d="M28.55 4.7L3.5 47.75q-1.15 1.95 0 3.9 1.1 2 3.4 2h50.05q2.3 0 3.4-2 1.15-1.95 0-3.9L35.3 4.7q-1.15-1.95-3.4-1.95-2.2 0-3.35 1.95z" id="h"/><path fill="url(#a)" d="M28.65 5.5L4.5 47.05q-1.05 1.85 0 3.8 1.05 1.85 3.25 1.85H56.1q2.2 0 3.25-1.85 1.15-1.95 0-3.8L35.2 5.5q-1.1-1.8-3.25-1.8-2.2 0-3.3 1.8z" id="j"/><path fill="url(#b)" d="M31.95 3.7q-2.2 0-3.3 1.8L4.5 47.05q-1.05 1.85 0 3.8 1.05 1.85 3.25 1.85H56.1q2.2 0 3.25-1.85 1.15-1.95 0-3.8L35.2 5.5q-1.1-1.8-3.25-1.8z" id="k"/><path fill="#FFF" d="M28.3 40.9q-1.45 1.45-1.45 3.55 0 2.15 1.45 3.6 1.5 1.5 3.6 1.5 2.05 0 3.55-1.5t1.5-3.6q0-2.05-1.5-3.55t-3.55-1.5q-2.1 0-3.6 1.5m-.15-23.35q-1.2 1.35-1.2 3.9 0 2.25.55 5.95.5 3.55 1.5 8 .25 1.3.9 1.8.65.55 2 .55 1.3 0 1.95-.55.7-.5.9-1.8 1-4.2 1.55-8 .5-3.35.5-5.95 0-2.5-1.15-3.9-1.25-1.4-3.75-1.4-2.6 0-3.75 1.4z" id="l"/><path fill="url(#c)" d="M31.95 3.7q-2.2 0-3.3 1.8L4.5 47.05q-1.05 1.85 0 3.8 1.05 1.85 3.25 1.85H56.1q2.2 0 3.25-1.85 1.15-1.95 0-3.8L35.2 5.5q-1.1-1.8-3.25-1.8z" id="n"/><path fill="url(#d)" d="M32.05 4.05q-2.2 0-3.4 1.95L11.1 36.95Q24.05 26.1 39.65 26.1q4.6 0 7.45.8L35.45 6q-1.15-1.95-3.4-1.95z" id="o"/><path id="g" stroke="#EAE9E8" stroke-linejoin="round" stroke-linecap="round" fill="none" d="M37.9 3.45L62.95 46.5q.9 1.6.9 3.45 0 1.9-.9 3.45-2 3.4-6 3.5H6.9q-4-.1-6-3.5-.9-1.55-.9-3.45 0-1.85.9-3.45L25.95 3.45Q28 0 31.9 0q3.95 0 6 3.45z"/><path id="i" stroke="#FFBF00" stroke-linejoin="round" stroke-linecap="round" fill="none" d="M3.5 47.75q-1.15 1.95 0 3.9 1.1 2 3.4 2h50.05q2.3 0 3.4-2 1.15-1.95 0-3.9L35.3 4.7q-1.15-1.95-3.4-1.95-2.2 0-3.35 1.95L3.5 47.75z"/><path id="m" stroke="#FCBE22" stroke-linejoin="round" stroke-linecap="round" fill="none" d="M28.15 17.55q1.15-1.4 3.75-1.4 2.5 0 3.75 1.4 1.15 1.4 1.15 3.9 0 2.6-.5 5.95-.55 3.8-1.55 8-.2 1.3-.9 1.8-.65.55-1.95.55-1.35 0-2-.55-.65-.5-.9-1.8-1-4.45-1.5-8-.55-3.7-.55-5.95 0-2.55 1.2-3.9zm8.8 26.9q0 2.1-1.5 3.6t-3.55 1.5q-2.1 0-3.6-1.5-1.45-1.45-1.45-3.6 0-2.1 1.45-3.55 1.5-1.5 3.6-1.5 2.05 0 3.55 1.5t1.5 3.55z"/></defs><use xlink:href="#e" transform="matrix(2.1535 -.00017 .00016 2.1535 1.537 1.005)"/><g transform="matrix(2.1535 -.00017 .00016 2.1535 1.537 1.005)"><use xlink:href="#f"/><use xlink:href="#g"/></g><use xlink:href="#h" transform="matrix(2.1535 -.00017 .00016 2.1535 1.537 1.005)"/><use xlink:href="#i" transform="matrix(2.1535 -.00017 .00016 2.1535 1.537 1.005)"/><use xlink:href="#j" transform="matrix(2.1535 -.00017 .00016 2.1535 1.537 1.005)"/><use xlink:href="#k" transform="matrix(2.1535 -.00017 .00016 2.1535 1.537 1.005)"/><use xlink:href="#l" transform="matrix(2.1535 -.00017 .00016 2.1535 1.537 1.005)"/><use xlink:href="#m" transform="matrix(2.1535 -.00017 .00016 2.1535 1.537 1.005)"/><use xlink:href="#n" transform="matrix(2.1535 -.00017 .00016 2.1535 1.537 1.005)"/><use xlink:href="#o" transform="matrix(2.1535 -.00017 .00016 2.1535 1.537 1.005)"/></svg>