<svg xmlns="http://www.w3.org/2000/svg" xmlns:xlink="http://www.w3.org/1999/xlink" preserveAspectRatio="none" width="59" height="59" viewBox="0 0 59 59"><defs><linearGradient id="a" gradientUnits="userSpaceOnUse" x1="36.7" y1="15.65" x2="36.7" y2="57.05"><stop offset="0%" stop-color="#1C8FD0" stop-opacity=".4"/><stop offset="100%" stop-color="#FFF" stop-opacity=".4"/></linearGradient><linearGradient id="b" gradientUnits="userSpaceOnUse" x1="36.5" y1="27.4" x2="36.5" y2="11.4"><stop offset="0%" stop-color="#1C8FD0" stop-opacity=".502"/><stop offset="100%" stop-color="#FFF" stop-opacity=".502"/></linearGradient><path fill="#E2E2E2" d="M66.7 34.8q0-12.2-8.6-20.8-8.6-8.6-20.8-8.6-12.15 0-20.75 8.6t-8.6 20.8q0 12.15 8.6 20.8 8.6 8.6 20.75 8.6 12.2 0 20.8-8.6 8.6-8.65 8.6-20.8z" id="c"/><path fill="#FFF" d="M64.65 33.85q0-11.6-8.2-19.8-8.2-8.2-19.8-8.2-11.6 0-19.8 8.2-8.2 8.2-8.2 19.8 0 11.6 8.2 19.8 8.2 8.2 19.8 8.2 11.6 0 19.8-8.2 8.2-8.2 8.2-19.8z" id="d"/><path fill="#1C8FD0" d="M61.75 33.85q0-10.4-7.3-17.7-7.35-7.3-17.7-7.3-10.4 0-17.7 7.3-7.3 7.3-7.3 17.7 0 10.35 7.3 17.7 7.3 7.3 17.7 7.3 10.35 0 17.7-7.3 7.3-7.35 7.3-17.7z" id="e"/><path fill="#FFF" d="M32.2 43q-1.65 1.6-1.65 3.9 0 2.25 1.65 3.9 1.7 1.6 3.9 1.6 2.25 0 3.9-1.6 1.65-1.65 1.65-3.9 0-2.3-1.65-3.9-1.65-1.65-3.9-1.65T32.2 43m14.05-9.9q1.1-.7 2.05-1.65 1-1.1 1.55-2.45.6-1.4.6-3.3 0-4.25-3.65-7.1-3.55-2.9-10.2-2.9-3.1 0-5.75.85-2.55.85-4.2 2.15-1.7 1.4-2.5 2.85-.85 1.45-.85 2.75 0 1.9 1.25 2.95 1.3 1.05 3.3 1.05 1.5 0 2.3-.5.75-.35 1.95-2.15.9-1.4 2.05-1.95 1.2-.6 2.4-.6 1.6 0 2.45.65.95.65.95 2.1 0 1.35-.7 2.2-.7.7-3.15 2-2.2 1.15-3.4 2.5-1.2 1.35-1.2 3.4 0 1.85.95 2.85.9 1.05 2.95 1.05 1.9 0 2.9-.5.95-.45 1.65-1.9.35-.8 1.2-1.4 1.2-.8 2.5-1.45 1.45-.75 2.6-1.5z" id="g"/><path fill="url(#a)" d="M59.6 34.05q0-9.55-6.75-16.3-6.7-6.7-16.25-6.7t-16.3 6.7q-6.7 6.75-6.7 16.3t6.7 16.25q6.75 6.75 16.3 6.75t16.25-6.75q6.75-6.7 6.75-16.25z" id="h"/><path fill="url(#b)" d="M48.4 25.75q4.85-2.35 4.85-5.65 0-3.35-4.85-5.65-4.9-2.35-11.8-2.35-6.95 0-11.8 2.35-4.9 2.3-4.9 5.65 0 3.3 4.9 5.65 4.9 2.35 11.8 2.35t11.8-2.35z" id="i"/><path id="f" stroke="#007AC0" stroke-linejoin="round" stroke-linecap="round" fill="none" d="M61.75 33.85q0 10.35-7.3 17.7-7.35 7.3-17.7 7.3-10.4 0-17.7-7.3-7.3-7.35-7.3-17.7 0-10.4 7.3-17.7 7.3-7.3 17.7-7.3 10.35 0 17.7 7.3 7.3 7.3 7.3 17.7z"/><path id="j" stroke="#007AC0" stroke-linejoin="round" stroke-linecap="round" fill="none" d="M53.25 19.9q0 3.3-4.85 5.65-4.9 2.35-11.8 2.35t-11.8-2.35q-4.9-2.35-4.9-5.65 0-3.35 4.9-5.65 4.85-2.35 11.8-2.35 6.9 0 11.8 2.35 4.85 2.3 4.85 5.65z"/></defs><use xlink:href="#c" transform="translate(-7.8 -5.4)"/><use xlink:href="#d" transform="translate(-7.8 -5.4)"/><use xlink:href="#e" transform="translate(-7.8 -5.4)"/><use xlink:href="#f" transform="translate(-7.8 -5.4)"/><use xlink:href="#g" transform="translate(-7.8 -5.4)"/><use xlink:href="#h" transform="translate(-7.8 -5.4)"/><use xlink:href="#i" transform="translate(-7.8 -5.4)"/><use xlink:href="#j" transform="translate(-7.8 -5.4)"/></svg>