<svg xmlns="http://www.w3.org/2000/svg" xmlns:xlink="http://www.w3.org/1999/xlink" preserveAspectRatio="none" width="59" height="59" viewBox="0 0 59 59"><defs><linearGradient id="a" gradientUnits="userSpaceOnUse" x1="23.1" y1="4.6" x2="23.1" y2="46"><stop offset="0%" stop-color="#1C8FD0" stop-opacity=".4"/><stop offset="100%" stop-color="#FFF" stop-opacity=".4"/></linearGradient><linearGradient id="b" gradientUnits="userSpaceOnUse" x1="16.6" y1="15.5" x2="16.6" y2="-.5"><stop offset="0%" stop-color="#1C8FD0" stop-opacity=".498"/><stop offset="100%" stop-color="#FFF" stop-opacity=".498"/></linearGradient><filter id="g" x="-25.657%" y="-25.657%" width="151.314%" height="151.314%" color-interpolation-filters="sRGB"><feGaussianBlur in="SourceGraphic" stdDeviation="1.6666666666666667,1.6666666666666667" result="result1"/></filter><filter id="i" x="-20%" y="-20%" width="140%" height="140%" color-interpolation-filters="sRGB"><feColorMatrix in="SourceGraphic" values="1 0 0 0 0 0 1 0 0 0 0 0 1 0 0 0 0 0 0.75 0" result="result1"/></filter><filter id="k" x="-33.474%" y="-58.324%" width="166.947%" height="216.647%" color-interpolation-filters="sRGB"><feGaussianBlur in="SourceGraphic" stdDeviation="1.6666666666666667,1.6666666666666667" result="result1"/><feColorMatrix in="result1" values="1 0 0 0 0 0 1 0 0 0 0 0 1 0 0 0 0 0 0.75 0" result="result2"/></filter><path fill="#CCC" d="M49.3 49.3q8.35-8.35 8.35-20.15 0-11.85-8.35-20.2T29.15.6Q17.3.6 8.95 8.95T.6 29.15q0 11.8 8.35 20.15 8.35 8.35 20.2 8.35 11.8 0 20.15-8.35z" id="c"/><path fill="#FFF" d="M48.5 48.25q8.2-8.2 8.2-19.8 0-11.6-8.2-19.8Q40.3.45 28.7.45q-11.6 0-19.8 8.2-8.2 8.2-8.2 19.8 0 11.6 8.2 19.8 8.2 8.2 19.8 8.2 11.6 0 19.8-8.2z" id="d"/><path fill="#1C8FD0" d="M46.5 46.15q7.3-7.35 7.3-17.7 0-10.4-7.3-17.7-7.35-7.3-17.7-7.3-10.4 0-17.7 7.3-7.3 7.3-7.3 17.7 0 10.35 7.3 17.7 7.3 7.3 17.7 7.3 10.35 0 17.7-7.3z" id="e"/><path fill="url(#a)" d="M23 46q9.55 0 16.25-6.75Q46 32.55 46 23T39.25 6.7Q32.55 0 23 0T6.7 6.7Q0 13.45 0 23t6.7 16.25Q13.45 46 23 46z" id="h"/><path fill="#FFF" d="M4.65 10.5q-2.2 0-3.4 1.15Q0 12.85 0 15.1v15.55q0 2.3 1.25 3.45 1.3 1.15 3.4 1.15 2.1 0 3.35-1.15 1.3-1.2 1.3-3.45V15.1q0-2.2-1.3-3.45-1.15-1.15-3.35-1.15M9 4.4q0-1.9-1.25-3.1Q6.45 0 4.65 0 2.8 0 1.5 1.3.25 2.55.25 4.4q0 1.75 1.25 3.1 1.25 1.25 3.15 1.25 1.85 0 3.1-1.25T9 4.4z" id="j"/><path fill="url(#b)" d="M16.7 16.2q6.9 0 11.8-2.35 4.85-2.35 4.85-5.65 0-3.35-4.85-5.65Q23.6.2 16.7.2 9.75.2 4.9 2.55 0 4.85 0 8.2q0 3.3 4.9 5.65 4.9 2.35 11.8 2.35z" id="l"/><path id="f" stroke="#007AC0" stroke-linejoin="round" stroke-linecap="round" fill="none" d="M53.8 28.45q0 10.35-7.3 17.7-7.35 7.3-17.7 7.3-10.4 0-17.7-7.3-7.3-7.35-7.3-17.7 0-10.4 7.3-17.7 7.3-7.3 17.7-7.3 10.35 0 17.7 7.3 7.3 7.3 7.3 17.7z"/><path id="m" stroke="#007AC0" stroke-linejoin="round" stroke-linecap="round" fill="none" d="M28.5 13.65Q23.6 16 16.7 16T4.9 13.65Q0 11.3 0 8q0-3.35 4.9-5.65Q9.75 0 16.7 0q6.9 0 11.8 2.35 4.85 2.3 4.85 5.65 0 3.3-4.85 5.65z"/></defs><use xlink:href="#c" transform="translate(.15 .1)"/><use xlink:href="#d" transform="translate(.15 .1)"/><use xlink:href="#e" transform="translate(.15 .1)"/><use xlink:href="#f" transform="translate(.15 .1)"/><g filter="url(#g)"><use xlink:href="#h" transform="matrix(1.08696 0 0 1.08696 4.3 3.75)"/></g><g><use filter="url(#i)" xlink:href="#j" transform="translate(24.95 12.45)"/></g><g filter="url(#k)"><use xlink:href="#l" transform="translate(12.6 7.4)"/><use xlink:href="#m" transform="translate(12.6 7.4)"/></g></svg>