
<svg xmlns="http://www.w3.org/2000/svg" version="1.1" xmlns:xlink="http://www.w3.org/1999/xlink" preserveAspectRatio="none" x="0px" y="0px" width="59px" height="59px" viewBox="0 0 59 59">
<defs>
<linearGradient id="Gradient_1" gradientUnits="userSpaceOnUse" x1="23.1" y1="4.599999999999998" x2="23.1" y2="46" spreadMethod="pad">
<stop  offset="0%" stop-color="#1C8FD0" stop-opacity="0.4"/>

<stop  offset="100%" stop-color="#FFFFFF" stop-opacity="0.4"/>
</linearGradient>

<linearGradient id="Gradient_2" gradientUnits="userSpaceOnUse" x1="16.6" y1="15.5" x2="16.6" y2="-0.5" spreadMethod="pad">
<stop  offset="0%" stop-color="#1C8FD0" stop-opacity="0.4980392156862745"/>

<stop  offset="100%" stop-color="#FFFFFF" stop-opacity="0.4980392156862745"/>
</linearGradient>

<filter id="Filter_1" x="-25.65685424949238%" y="-25.65685424949238%" width="151.31370849898477%" height="151.31370849898477%" color-interpolation-filters="sRGB">
<feGaussianBlur in="SourceGraphic" stdDeviation="1.6666666666666667,1.6666666666666667" result="result1"/>
</filter>

<filter id="Filter_2" x="-20%" y="-20%" width="140%" height="140%" color-interpolation-filters="sRGB">
<feColorMatrix in="SourceGraphic" type="matrix" values="1 0 0 0 0 0 1 0 0 0 0 0 1 0 0 0 0 0 0.75 0" result="result1"/>
</filter>

<filter id="Filter_3" x="-33.473544601937604%" y="-58.323624226828336%" width="166.9470892038752%" height="216.6472484536567%" color-interpolation-filters="sRGB">
<feGaussianBlur in="SourceGraphic" stdDeviation="1.6666666666666667,1.6666666666666667" result="result1"/>

<feColorMatrix in="result1" type="matrix" values="1 0 0 0 0 0 1 0 0 0 0 0 1 0 0 0 0 0 0.75 0" result="result2"/>
</filter>

<g id="mc_base_bt_indice_0_Layer0_0_FILL">
<path fill="#CCCCCC" stroke="none" d="
M 49.3 49.3
Q 57.65 40.95 57.65 29.15 57.65 17.3 49.3 8.95 40.95 0.6 29.15 0.6 17.3 0.6 8.95 8.95 0.6 17.3 0.6 29.15 0.6 40.95 8.95 49.3 17.3 57.65 29.15 57.65 40.95 57.65 49.3 49.3 Z"/>
</g>

<g id="mc_base_bt_indice_0_Layer0_0_MEMBER_0_FILL">
<path fill="#FFFFFF" stroke="none" d="
M 48.5 48.25
Q 56.7 40.05 56.7 28.45 56.7 16.85 48.5 8.65 40.3 0.45 28.7 0.45 17.1 0.45 8.9 8.65 0.7 16.85 0.7 28.45 0.7 40.05 8.9 48.25 17.1 56.45 28.7 56.45 40.3 56.45 48.5 48.25 Z"/>
</g>

<g id="mc_base_bt_indice_0_Layer0_0_MEMBER_1_FILL">
<path fill="#1C8FD0" stroke="none" d="
M 46.5 46.15
Q 53.8 38.8 53.8 28.45 53.8 18.05 46.5 10.75 39.15 3.45 28.8 3.45 18.4 3.45 11.1 10.75 3.8 18.05 3.8 28.45 3.8 38.8 11.1 46.15 18.4 53.45 28.8 53.45 39.15 53.45 46.5 46.15 Z"/>
</g>

<g id="mc_transp_ico_indice_0_Layer0_0_MEMBER_0_FILL">
<path fill="url(#Gradient_1)" stroke="none" d="
M 23 46
Q 32.55 46 39.25 39.25 46 32.55 46 23 46 13.45 39.25 6.7 32.55 0 23 0 13.45 0 6.7 6.7 0 13.45 0 23 0 32.55 6.7 39.25 13.45 46 23 46 Z"/>
</g>

<g id="mc_i_ico_indice_0_Layer0_0_FILL">
<path fill="#FFFFFF" stroke="none" d="
M 4.65 10.5
Q 2.45 10.5 1.25 11.65 0 12.85 0 15.1
L 0 30.65
Q 0 32.95 1.25 34.1 2.55 35.25 4.65 35.25 6.75 35.25 8 34.1 9.3 32.9 9.3 30.65
L 9.3 15.1
Q 9.3 12.9 8 11.65 6.85 10.5 4.65 10.5
M 9 4.4
Q 9 2.5 7.75 1.3 6.45 0 4.65 0 2.8 0 1.5 1.3 0.25 2.55 0.25 4.4 0.25 6.15 1.5 7.5 2.75 8.75 4.65 8.75 6.5 8.75 7.75 7.5 9 6.25 9 4.4 Z"/>
</g>

<g id="mc_brilho_ico_indice_0_Layer0_0_MEMBER_0_FILL">
<path fill="url(#Gradient_2)" stroke="none" d="
M 16.7 16.2
Q 23.6 16.2 28.5 13.85 33.35 11.5 33.35 8.2 33.35 4.85 28.5 2.55 23.6 0.2 16.7 0.2 9.75 0.2 4.9 2.55 0 4.85 0 8.2 0 11.5 4.9 13.85 9.8 16.2 16.7 16.2 Z"/>
</g>

<path id="mc_base_bt_indice_0_Layer0_0_MEMBER_2_1_STROKES" stroke="#007AC0" stroke-width="1" stroke-linejoin="round" stroke-linecap="round" fill="none" d="
M 53.8 28.45
Q 53.8 38.8 46.5 46.15 39.15 53.45 28.8 53.45 18.4 53.45 11.1 46.15 3.8 38.8 3.8 28.45 3.8 18.05 11.1 10.75 18.4 3.45 28.8 3.45 39.15 3.45 46.5 10.75 53.8 18.05 53.8 28.45 Z"/>

<path id="mc_brilho_ico_indice_0_Layer0_0_MEMBER_1_1_STROKES" stroke="#007AC0" stroke-width="1" stroke-linejoin="round" stroke-linecap="round" fill="none" d="
M 28.5 13.65
Q 23.6 16 16.7 16 9.8 16 4.9 13.65 0 11.3 0 8 0 4.65 4.9 2.35 9.75 0 16.7 0 23.6 0 28.5 2.35 33.35 4.65 33.35 8 33.35 11.3 28.5 13.65 Z"/>
</defs>

<g transform="matrix( 1, 0, 0, 1, 0.15,0.1) ">
<g transform="matrix( 1, 0, 0, 1, 0,0) ">
<use xlink:href="#mc_base_bt_indice_0_Layer0_0_FILL"/>
</g>

<g transform="matrix( 1, 0, 0, 1, 0,0) ">
<use xlink:href="#mc_base_bt_indice_0_Layer0_0_MEMBER_0_FILL"/>
</g>

<g transform="matrix( 1, 0, 0, 1, 0,0) ">
<use xlink:href="#mc_base_bt_indice_0_Layer0_0_MEMBER_1_FILL"/>
</g>

<g transform="matrix( 1, 0, 0, 1, 0,0) ">
<use xlink:href="#mc_base_bt_indice_0_Layer0_0_MEMBER_2_1_STROKES"/>
</g>
</g>

<g filter="url(#Filter_1)" transform="matrix( 1, 0, 0, 1, 0,0) ">
<g transform="matrix( 1.0869598388671875, 0, 0, 1.0869598388671875, 4.3,3.75) ">
<g transform="matrix( 1, 0, 0, 1, 0,0) ">
<use xlink:href="#mc_transp_ico_indice_0_Layer0_0_MEMBER_0_FILL"/>
</g>
</g>
</g>

<g transform="matrix( 1, 0, 0, 1, 24.95,12.45) ">
<g transform="matrix( 1, 0, 0, 1, 0,0) ">
<use filter="url(#Filter_2)" xlink:href="#mc_i_ico_indice_0_Layer0_0_FILL"/>
</g>
</g>

<g filter="url(#Filter_3)" transform="matrix( 1, 0, 0, 1, 0,0) ">
<g transform="matrix( 1, 0, 0, 1, 12.6,7.4) ">
<g transform="matrix( 1, 0, 0, 1, 0,0) ">
<use xlink:href="#mc_brilho_ico_indice_0_Layer0_0_MEMBER_0_FILL"/>
</g>

<g transform="matrix( 1, 0, 0, 1, 0,0) ">
<use xlink:href="#mc_brilho_ico_indice_0_Layer0_0_MEMBER_1_1_STROKES"/>
</g>
</g>
</g>
</svg>
