<svg xmlns="http://www.w3.org/2000/svg" xmlns:xlink="http://www.w3.org/1999/xlink" preserveAspectRatio="none" width="81" height="79" viewBox="0 0 81 79"><defs><linearGradient id="a" gradientUnits="userSpaceOnUse" x1="38.9" y1="21.45" x2="38.9" y2="79.45"><stop offset="0%" stop-color="#96324F"/><stop offset="100%" stop-color="#C35C7A"/></linearGradient><linearGradient id="b" gradientUnits="userSpaceOnUse" x1="38.9" y1="21.45" x2="38.9" y2="79.45"><stop offset="0%" stop-color="#96324F" stop-opacity=".102"/><stop offset="100%" stop-color="#C35C7A" stop-opacity=".6"/></linearGradient><linearGradient id="c" gradientUnits="userSpaceOnUse" x1="37.2" y1="32.738" x2="37.2" y2="7.963"><stop offset="0%" stop-color="#96324F" stop-opacity=".4"/><stop offset="100%" stop-color="#C35C7A" stop-opacity=".4"/></linearGradient><path fill="#CCC" d="M77.8 33.85L46.95 3Q44.6.65 41.3.75 38 .65 35.6 3L4.75 33.85q-2.3 2.3-2.3 5.65 0 3.35 2.3 5.7L35.6 76.05q2.45 2.35 5.7 2.35 3.3 0 5.65-2.35L77.8 45.2q2.35-2.4 2.35-5.7 0-3.2-2.35-5.65z" id="d"/><path fill="#FFF" d="M75.35 33.2L44.5 2.35Q42.15 0 38.85 0q-3.3 0-5.65 2.35L2.35 33.2Q0 35.55 0 38.85q0 .8.15 1.55.4 2.3 2.2 4.1L33.2 75.35q2.35 2.35 5.65 2.35 3.3 0 5.65-2.35L75.35 44.5q2.35-2.35 2.35-5.65 0-3.3-2.35-5.65z" id="e"/><path fill="url(#a)" d="M73.4 35.6L42.55 4.75q-1.45-1.4-3.5-1.4-2.1 0-3.55 1.4L4.65 35.6Q3.2 37.05 3.2 39.15q0 2.05 1.45 3.5L35.5 73.5q1.45 1.45 3.55 1.45 2.05 0 3.5-1.45L73.4 42.65q1.45-1.45 1.45-3.5 0-2.1-1.45-3.55z" id="g"/><path fill="#FFF" d="M33.85 51.35Q32 53.2 32 55.8t1.85 4.45q1.9 1.9 4.45 1.9 2.6 0 4.5-1.9 1.85-1.85 1.85-4.45t-1.85-4.45q-1.9-1.9-4.5-1.9-2.55 0-4.45 1.9m20.2-16q.65-1.6.65-3.8 0-4.8-4.1-8.1-4.2-3.35-11.7-3.35-3.65 0-6.55 1-2.95 1-4.85 2.45-1.95 1.6-2.85 3.25-.95 1.6-.95 3.15 0 2.2 1.4 3.4 1.5 1.2 3.8 1.2 1.7 0 2.65-.6.85-.45 2.2-2.45 1.05-1.55 2.35-2.25 1.3-.65 2.75-.65 1.75 0 2.8.75 1.1.8 1.1 2.35 0 1.6-.85 2.55-.95.95-3.6 2.25-2.55 1.4-3.85 2.9-1.4 1.55-1.4 3.9 0 2.1 1.1 3.25 1.05 1.2 3.4 1.2 2.2 0 3.3-.55 1.15-.55 1.9-2.2.4-.95 1.35-1.6l2.85-1.7q1.8-.9 3-1.65 1.05-.65 2.3-1.9 1.1-1.1 1.8-2.8z" id="i"/><path fill="url(#b)" d="M73.4 35.6L42.55 4.75q-1.45-1.4-3.5-1.4-2.1 0-3.55 1.4L4.65 35.6Q3.2 37.05 3.2 39.15q0 2.05 1.45 3.5L35.5 73.5q1.45 1.45 3.55 1.45 2.05 0 3.5-1.45L73.4 42.65q1.45-1.45 1.45-3.5 0-2.1-1.45-3.55z" id="j"/><path fill="url(#c)" d="M65.55 30.85L42.3 7.2q-1.1-1.9-3.35-1.9-2.3 0-3.4 1.9L8.9 35.4q16.15-14.65 38-11.05 10.95 1.8 18.65 6.5z" id="k"/><path id="f" stroke="#CCC" stroke-linejoin="round" stroke-linecap="round" fill="none" d="M75.35 44.5L44.5 75.35q-2.35 2.35-5.65 2.35-3.3 0-5.65-2.35L2.35 44.5q-1.8-1.8-2.2-4.1Q0 39.65 0 38.85q0-3.3 2.35-5.65L33.2 2.35Q35.55 0 38.85 0q3.3 0 5.65 2.35L75.35 33.2q2.35 2.35 2.35 5.65 0 3.3-2.35 5.65z"/><path id="h" stroke="#5A1428" stroke-linejoin="round" stroke-linecap="round" fill="none" d="M73.4 42.65L42.55 73.5q-1.45 1.45-3.5 1.45-2.1 0-3.55-1.45L4.65 42.65Q3.2 41.2 3.2 39.15q0-2.1 1.45-3.55L35.5 4.75q1.45-1.4 3.55-1.4 2.05 0 3.5 1.4L73.4 35.6q1.45 1.45 1.45 3.55 0 2.05-1.45 3.5z"/><path id="l" stroke="#FFF" stroke-linejoin="round" stroke-linecap="round" fill="none" d="M30.8 13.35l5.35-5.85q.9-1 1.75-1.3 2.35-.7 4.45 1.6L45.3 11"/></defs><use xlink:href="#d" transform="translate(.45 .3)"/><g transform="translate(.45 .3)"><use xlink:href="#e"/><use xlink:href="#f"/></g><use xlink:href="#g" transform="translate(.45 .3)"/><use xlink:href="#h" transform="translate(.45 .3)"/><use xlink:href="#i" transform="translate(.45 .3)"/><use xlink:href="#j" transform="translate(.45 .3)"/><use xlink:href="#k" transform="translate(.45 .3)"/><use xlink:href="#l" transform="translate(.45 .3)"/></svg>