
<svg xmlns="http://www.w3.org/2000/svg" version="1.1" xmlns:xlink="http://www.w3.org/1999/xlink" preserveAspectRatio="none" x="0px" y="0px" width="81px" height="79px" viewBox="0 0 81 79">
<defs>
<linearGradient id="Gradient_1" gradientUnits="userSpaceOnUse" x1="38.9" y1="21.450000000000003" x2="38.9" y2="79.45" spreadMethod="pad">
<stop  offset="0%" stop-color="#96324F"/>

<stop  offset="100%" stop-color="#C35C7A"/>
</linearGradient>

<linearGradient id="Gradient_2" gradientUnits="userSpaceOnUse" x1="38.9" y1="21.450000000000003" x2="38.9" y2="79.45" spreadMethod="pad">
<stop  offset="0%" stop-color="#96324F" stop-opacity="0.10196078431372549"/>

<stop  offset="100%" stop-color="#C35C7A" stop-opacity="0.6"/>
</linearGradient>

<linearGradient id="Gradient_3" gradientUnits="userSpaceOnUse" x1="37.2" y1="32.737500000000004" x2="37.2" y2="7.9625" spreadMethod="pad">
<stop  offset="0%" stop-color="#96324F" stop-opacity="0.4"/>

<stop  offset="100%" stop-color="#C35C7A" stop-opacity="0.4"/>
</linearGradient>

<g id="Gr_ficos_gr_interrogativo_0_Layer0_0_MEMBER_0_MEMBER_0_FILL">
<path fill="#CCCCCC" stroke="none" d="
M 77.8 33.85
L 46.95 3
Q 44.6 0.65 41.3 0.75 38 0.65 35.6 3
L 4.75 33.85
Q 2.45 36.15 2.45 39.5 2.45 42.85 4.75 45.2
L 35.6 76.05
Q 38.05 78.4 41.3 78.4 44.6 78.4 46.95 76.05
L 77.8 45.2
Q 80.15 42.8 80.15 39.5 80.15 36.3 77.8 33.85 Z"/>
</g>

<g id="Gr_ficos_gr_interrogativo_0_Layer0_0_MEMBER_0_MEMBER_1_FILL">
<path fill="#FFFFFF" stroke="none" d="
M 75.35 33.2
L 44.5 2.35
Q 42.15 0 38.85 0 35.55 0 33.2 2.35
L 2.35 33.2
Q 0 35.55 0 38.85 0 39.65 0.15 40.4 0.55 42.7 2.35 44.5
L 33.2 75.35
Q 35.55 77.7 38.85 77.7 42.15 77.7 44.5 75.35
L 75.35 44.5
Q 77.7 42.15 77.7 38.85 77.7 35.55 75.35 33.2 Z"/>
</g>

<g id="Gr_ficos_gr_interrogativo_0_Layer0_0_MEMBER_1_FILL">
<path fill="url(#Gradient_1)" stroke="none" d="
M 73.4 35.6
L 42.55 4.75
Q 41.1 3.35 39.05 3.35 36.95 3.35 35.5 4.75
L 4.65 35.6
Q 3.2 37.05 3.2 39.15 3.2 41.2 4.65 42.65
L 35.5 73.5
Q 36.95 74.95 39.05 74.95 41.1 74.95 42.55 73.5
L 73.4 42.65
Q 74.85 41.2 74.85 39.15 74.85 37.05 73.4 35.6 Z"/>
</g>

<g id="Gr_ficos_gr_interrogativo_0_Layer0_0_MEMBER_3_FILL">
<path fill="#FFFFFF" stroke="none" d="
M 33.85 51.35
Q 32 53.2 32 55.8 32 58.4 33.85 60.25 35.75 62.15 38.3 62.15 40.9 62.15 42.8 60.25 44.65 58.4 44.65 55.8 44.65 53.2 42.8 51.35 40.9 49.45 38.3 49.45 35.75 49.45 33.85 51.35
M 54.05 35.35
Q 54.7 33.75 54.7 31.55 54.7 26.75 50.6 23.45 46.4 20.1 38.9 20.1 35.25 20.1 32.35 21.1 29.4 22.1 27.5 23.55 25.55 25.15 24.65 26.8 23.7 28.4 23.7 29.95 23.7 32.15 25.1 33.35 26.6 34.55 28.9 34.55 30.6 34.55 31.55 33.95 32.4 33.5 33.75 31.5 34.8 29.95 36.1 29.25 37.4 28.6 38.85 28.6 40.6 28.6 41.65 29.35 42.75 30.15 42.75 31.7 42.75 33.3 41.9 34.25 40.95 35.2 38.3 36.5 35.75 37.9 34.45 39.4 33.05 40.95 33.05 43.3 33.05 45.4 34.15 46.55 35.2 47.75 37.55 47.75 39.75 47.75 40.85 47.2 42 46.65 42.75 45 43.15 44.05 44.1 43.4
L 46.95 41.7
Q 48.75 40.8 49.95 40.05 51 39.4 52.25 38.15 53.35 37.05 54.05 35.35 Z"/>
</g>

<g id="Gr_ficos_gr_interrogativo_0_Layer0_0_MEMBER_4_FILL">
<path fill="url(#Gradient_2)" stroke="none" d="
M 73.4 35.6
L 42.55 4.75
Q 41.1 3.35 39.05 3.35 36.95 3.35 35.5 4.75
L 4.65 35.6
Q 3.2 37.05 3.2 39.15 3.2 41.2 4.65 42.65
L 35.5 73.5
Q 36.95 74.95 39.05 74.95 41.1 74.95 42.55 73.5
L 73.4 42.65
Q 74.85 41.2 74.85 39.15 74.85 37.05 73.4 35.6 Z"/>
</g>

<g id="Gr_ficos_gr_interrogativo_0_Layer0_0_MEMBER_5_FILL">
<path fill="url(#Gradient_3)" stroke="none" d="
M 65.55 30.85
L 42.3 7.2
Q 41.2 5.3 38.95 5.3 36.65 5.3 35.55 7.2
L 8.9 35.4
Q 25.05 20.75 46.9 24.35 57.85 26.15 65.55 30.85 Z"/>
</g>

<path id="Gr_ficos_gr_interrogativo_0_Layer0_0_MEMBER_0_MEMBER_1_1_STROKES" stroke="#CCCCCC" stroke-width="1" stroke-linejoin="round" stroke-linecap="round" fill="none" d="
M 75.35 44.5
L 44.5 75.35
Q 42.15 77.7 38.85 77.7 35.55 77.7 33.2 75.35
L 2.35 44.5
Q 0.55 42.7 0.15 40.4 0 39.65 0 38.85 0 35.55 2.35 33.2
L 33.2 2.35
Q 35.55 0 38.85 0 42.15 0 44.5 2.35
L 75.35 33.2
Q 77.7 35.55 77.7 38.85 77.7 42.15 75.35 44.5 Z"/>

<path id="Gr_ficos_gr_interrogativo_0_Layer0_0_MEMBER_2_1_STROKES" stroke="#5A1428" stroke-width="1" stroke-linejoin="round" stroke-linecap="round" fill="none" d="
M 73.4 42.65
L 42.55 73.5
Q 41.1 74.95 39.05 74.95 36.95 74.95 35.5 73.5
L 4.65 42.65
Q 3.2 41.2 3.2 39.15 3.2 37.05 4.65 35.6
L 35.5 4.75
Q 36.95 3.35 39.05 3.35 41.1 3.35 42.55 4.75
L 73.4 35.6
Q 74.85 37.05 74.85 39.15 74.85 41.2 73.4 42.65 Z"/>

<path id="Gr_ficos_gr_interrogativo_0_Layer0_0_MEMBER_6_1_STROKES" stroke="#FFFFFF" stroke-width="1" stroke-linejoin="round" stroke-linecap="round" fill="none" d="
M 30.8 13.35
L 36.15 7.5
Q 37.05 6.5 37.9 6.2 40.25 5.5 42.35 7.8
L 45.3 11"/>
</defs>

<g transform="matrix( 1, 0, 0, 1, 0.45,0.3) ">
<g transform="matrix( 1, 0, 0, 1, 0,0) ">
<use xlink:href="#Gr_ficos_gr_interrogativo_0_Layer0_0_MEMBER_0_MEMBER_0_FILL"/>
</g>

<g transform="matrix( 1, 0, 0, 1, 0,0) ">
<use xlink:href="#Gr_ficos_gr_interrogativo_0_Layer0_0_MEMBER_0_MEMBER_1_FILL"/>

<use xlink:href="#Gr_ficos_gr_interrogativo_0_Layer0_0_MEMBER_0_MEMBER_1_1_STROKES"/>
</g>

<g transform="matrix( 1, 0, 0, 1, 0,0) ">
<use xlink:href="#Gr_ficos_gr_interrogativo_0_Layer0_0_MEMBER_1_FILL"/>
</g>

<g transform="matrix( 1, 0, 0, 1, 0,0) ">
<use xlink:href="#Gr_ficos_gr_interrogativo_0_Layer0_0_MEMBER_2_1_STROKES"/>
</g>

<g transform="matrix( 1, 0, 0, 1, 0,0) ">
<use xlink:href="#Gr_ficos_gr_interrogativo_0_Layer0_0_MEMBER_3_FILL"/>
</g>

<g transform="matrix( 1, 0, 0, 1, 0,0) ">
<use xlink:href="#Gr_ficos_gr_interrogativo_0_Layer0_0_MEMBER_4_FILL"/>
</g>

<g transform="matrix( 1, 0, 0, 1, 0,0) ">
<use xlink:href="#Gr_ficos_gr_interrogativo_0_Layer0_0_MEMBER_5_FILL"/>
</g>

<g transform="matrix( 1, 0, 0, 1, 0,0) ">
<use xlink:href="#Gr_ficos_gr_interrogativo_0_Layer0_0_MEMBER_6_1_STROKES"/>
</g>
</g>
</svg>
