<svg xmlns="http://www.w3.org/2000/svg" xmlns:xlink="http://www.w3.org/1999/xlink" preserveAspectRatio="none" width="71" height="109" viewBox="0 0 71 109"><defs><linearGradient id="a" gradientUnits="userSpaceOnUse" x1="-.15" y1="-37.413" x2="-.15" y2="44.013"><stop offset="0%" stop-color="#FFF"/><stop offset="100%" stop-color="#999"/></linearGradient><g id="b"><path fill="#C4C4C4" d="M27.05 43.6q-1.05.2-2.2.4Q14.6 45.95.1 45.95T-24.7 44q-1.15-.2-2.2-.4-6.55-1.4-7.7-3.25l.05 8.35q1.55 2.05 9.85 3.6 10.3 1.85 24.8 1.85t24.75-1.85q10.25-1.9 10.25-4.55v-.35q-.05-.1-.15-.25v-7.1q-.85 2-7.9 3.55m6.05-80.85q1.5-.75 1.85-1.65v-8.2q-.85 2-7.9 3.55-1.05.2-2.2.4-1.4.3-2.9.5-9.35 1.4-21.85 1.4-12.55 0-21.9-1.4-1.5-.2-2.9-.5-1.15-.2-2.2-.4-8.05-1.75-8.05-4.15l-.15.05.25 8.55q.25.9 1.65 1.7 2.45 1.35 8.5 2.5Q-14.4-33 .1-33t24.75-1.9q5.45-1 8-2.2.15-.05.25-.15z"/><path fill="#EAEAEA" d="M25.5 42.15q-.95.2-2.05.35Q13.85 44 .25 44t-23.2-1.5q-1.05-.15-2.05-.35-6.1-1.1-8.2-3.75v-.95q-1 .5-1.4 1.1v1.8q1.15 1.85 7.7 3.25 1.05.2 2.2.4 10.3 1.95 24.8 1.95T24.85 44q1.15-.2 2.2-.4 7.05-1.55 7.9-3.55l.15-.85q-.25-1.05-2-1.9h-.2v1.55q-1.15 2.2-7.4 3.3m-3.55-84.8Q12.6-44.05.1-44.05q-12.55 0-21.9 1.4 9.35 1.4 21.9 1.4 12.5 0 21.85-1.4m-52.7 14.75q-.25.25-.35.55v59.3q0 .65.45 1.1.4.5 1 .5.65 0 1-.5.45-.45.45-1.1V-26q-.25-.4-.5-.95-.8-1.55-.85-1.55-.75 0-1.2.6m16.2 6.3q-.8-1.7-2.75-1.7-.85 0-.95.05-.15.1-.7.65l-.2.1v57.85q0 1.2.75 2.05.8.85 1.9.85 1.1 0 1.85-.85.8-.85.8-2.05v-54.2q-.45-2.3-.7-2.75M2.6-18.65q-.05-1.25-.85-2.15-.85-.9-2.05-.9h-1.1q-1.2 0-2.05.9-.8.95-.85 2.2v55.1q0 1.35.85 2.25.85.95 2.05.95h1.1q1.2 0 2.05-.95.85-.9.85-2.25v-55.15m12.65-2.8q-1.15 0-2.35 1-1.2.95-1.3 2.15V35q0 1.15.7 1.9t1.7.75q1 0 1.7-.75t.7-1.9v-55.75q-.2-.15-.45-.4-.35-.3-.7-.3M28.1-17.8q-.25-.6-.45-1.15-.85-2.1-1.35-2.1-.6 0-1.5 2-.1.2-.15.45v51.75q0 .75.5 1.3t1.2.55q.7 0 1.2-.55.55-.55.55-1.3V-17.8m-3.25-34.5Q14.6-54.15.1-54.15t-24.8 1.85q-10.25 1.9-10.25 4.6 0 2.4 8.05 4.15 1.05-.25 2.2-.5Q-14.4-45.9.1-45.9t24.75 1.85q1.15.25 2.2.5 7.05-1.55 7.9-3.55v-1.15Q34-50.6 24.85-52.3z"/><path fill="url(#a)" d="M32.85-37.1q-2.55 1.2-8 2.2Q14.6-33 .1-33t-24.8-1.9q-6.05-1.15-8.5-2.5v75.8q2.1 2.65 8.2 3.75 1 .2 2.05.35 9.6 1.5 23.2 1.5t23.2-1.5q1.1-.15 2.05-.35 6.25-1.1 7.4-3.3V37.3l-.05-74.4m-6.5 5.55q.7 0 1.2.6.55.55.55 1.3V33.15q0 .75-.55 1.3-.5.55-1.2.55t-1.2-.55q-.5-.55-.5-1.3v-62.8q0-.75.5-1.3.5-.6 1.2-.6m-14.05 2.8q.7-.75 1.7-.75t1.7.75q.7.8.7 1.9V35q0 1.15-.7 1.9t-1.7.75q-1 0-1.7-.75t-.7-1.9V-26.85q0-1.1.7-1.9M1.75-27.7q.85.95.85 2.3v61.9q0 1.35-.85 2.25-.85.95-2.05.95h-1.1q-1.2 0-2.05-.95-.85-.9-.85-2.25v-61.9q0-1.35.85-2.3.85-.9 2.05-.9h1.1q1.2 0 2.05.9m-16.4-1.25q.8.9.8 2.1v62.2q0 1.2-.8 2.05-.75.85-1.85.85t-1.9-.85q-.75-.85-.75-2.05v-62.2q0-1.2.75-2.1.8-.85 1.9-.85 1.1 0 1.85.85m-16.45 1.6v-4.35q0-.65.45-1.15.4-.45 1-.45.65 0 1 .45.45.5.45 1.15V31.95q0 .65-.45 1.1-.35.5-1 .5-.6 0-1-.5-.45-.45-.45-1.1v-59.3z"/><path fill="#AAA" d="M-31.1-31.7v4.35q.1-.3.35-.55.45-.6 1.2-.6.05 0 .85 1.55.25.55.5.95v-5.7q0-.65-.45-1.15-.35-.45-1-.45-.6 0-1 .45-.45.5-.45 1.15m17.25 4.85q0-1.2-.8-2.1-.75-.85-1.85-.85t-1.9.85q-.75.9-.75 2.1v4.35l.2-.1q.55-.55.7-.65.1-.05.95-.05 1.95 0 2.75 1.7.25.45.7 2.75v-8M2.6-25.4q0-1.35-.85-2.3-.85-.9-2.05-.9h-1.1q-1.2 0-2.05.9-.85.95-.85 2.3v6.8q.05-1.25.85-2.2.85-.9 2.05-.9h1.1q1.2 0 2.05.9.8.9.85 2.15v-6.75M14-29.5q-1 0-1.7.75-.7.8-.7 1.9v8.55q.1-1.2 1.3-2.15 1.2-1 2.35-1 .35 0 .7.3.25.25.45.4v-6.1q0-1.1-.7-1.9-.7-.75-1.7-.75m13.55-1.45q-.5-.6-1.2-.6t-1.2.6q-.5.55-.5 1.3v11.05q.05-.25.15-.45.9-2 1.5-2 .5 0 1.35 2.1.2.55.45 1.15v-11.85q0-.75-.55-1.3z"/><path fill="#CCC" d="M21.95-42.65q1.5-.2 2.9-.5 1.15-.2 2.2-.4-1.05-.25-2.2-.5Q14.6-45.9.1-45.9t-24.8 1.85q-1.15.25-2.2.5 1.05.2 2.2.4 1.4.3 2.9.5 9.35-1.4 21.9-1.4 12.5 0 21.85 1.4z"/></g></defs><use xlink:href="#b" transform="translate(35.1 54.15)"/></svg>