<svg xmlns="http://www.w3.org/2000/svg" xmlns:xlink="http://www.w3.org/1999/xlink" preserveAspectRatio="none" width="36" height="55" viewBox="0 0 36 55"><defs><linearGradient id="a" gradientUnits="userSpaceOnUse" x1=".363" y1="-8.65" x2="-10.863" y2="-2.25"><stop offset="0%" stop-color="#666"/><stop offset="24.706%" stop-color="#FFF"/><stop offset="67.843%" stop-color="#999"/><stop offset="98.824%" stop-color="#D5D5D5"/></linearGradient><linearGradient id="b" gradientUnits="userSpaceOnUse" x1=".775" y1="1.3" x2="2.225" y2="3.8"><stop offset="0%" stop-color="#666"/><stop offset="24.706%" stop-color="#FFF"/><stop offset="67.843%" stop-color="#999"/><stop offset="98.824%" stop-color="#D5D5D5"/></linearGradient><linearGradient id="c" gradientUnits="userSpaceOnUse" x1="-24.475" y1="-7.175" x2="12.375" y2="-9.825"><stop offset="0%" stop-color="#960"/><stop offset="24.706%" stop-color="#FFF"/><stop offset="67.843%" stop-color="#C90"/><stop offset="98.824%" stop-color="#FFC"/></linearGradient><linearGradient id="d" gradientUnits="userSpaceOnUse" x1="-21.175" y1="-3.25" x2="10.875" y2="-13.85"><stop offset="0%" stop-color="#666"/><stop offset="24.706%" stop-color="#FFF"/><stop offset="67.843%" stop-color="#999"/><stop offset="98.824%" stop-color="#D5D5D5"/></linearGradient><linearGradient id="e" gradientUnits="userSpaceOnUse" x1="-24.475" y1="-7.175" x2="12.375" y2="-9.825"><stop offset="0%" stop-color="#666"/><stop offset="24.706%" stop-color="#FFF"/><stop offset="67.843%" stop-color="#999"/><stop offset="98.824%" stop-color="#D5D5D5"/></linearGradient><linearGradient id="f" gradientUnits="userSpaceOnUse" x1="1.55" y1="-17.338" x2="6.25" y2="-5.263"><stop offset="0%" stop-color="#666"/><stop offset="24.706%" stop-color="#FFF"/><stop offset="67.843%" stop-color="#999"/><stop offset="98.824%" stop-color="#D5D5D5"/></linearGradient><linearGradient id="g" gradientUnits="userSpaceOnUse" x1="17.788" y1="-10.162" x2="-6.088" y2="-21.538"><stop offset="0%" stop-color="#960"/><stop offset="24.706%" stop-color="#FFF"/><stop offset="67.843%" stop-color="#C90"/><stop offset="98.824%" stop-color="#FFC"/></linearGradient><linearGradient id="h" gradientUnits="userSpaceOnUse" x1="-3.287" y1="-2.075" x2="-5.412" y2="1.475"><stop offset="0%" stop-color="#666"/><stop offset="24.706%" stop-color="#FFF"/><stop offset="67.843%" stop-color="#999"/><stop offset="98.824%" stop-color="#D5D5D5"/></linearGradient><linearGradient id="i" gradientUnits="userSpaceOnUse" x1="17.788" y1="-10.162" x2="-6.088" y2="-21.538"><stop offset="0%" stop-color="#666"/><stop offset="24.706%" stop-color="#FFF"/><stop offset="67.843%" stop-color="#999"/><stop offset="98.824%" stop-color="#D5D5D5"/></linearGradient><linearGradient id="j" gradientUnits="userSpaceOnUse" x1="13.738" y1="-4.675" x2="-3.238" y2="-27.325"><stop offset="0%" stop-color="#666"/><stop offset="24.706%" stop-color="#FFF"/><stop offset="67.843%" stop-color="#999"/><stop offset="98.824%" stop-color="#D5D5D5"/></linearGradient><filter id="l" x="-20%" y="-20%" width="140%" height="140%" color-interpolation-filters="sRGB"><feColorMatrix in="SourceGraphic" values="0 0 0 0 0.8 0 0 0 0 0.8 0 0 0 0 0.8 0 0 0 1 0" result="result1"/></filter><path fill="#FFF" fill-opacity=".29" d="M5.65-4.8Q9.9-8 11.6-13.75q1.7-5.8 0-10.75-1.8-5-6-6.25-3.15-.95-6.35.65-1 .45-2.05 1.3-1.4 1.05-2.55 2.35-2 2.75-3.1 6.4-1.7 5.6-.45 10.5v.05q.15.2.15.4l.4 1q1.85 4.05 5.6 5.2 4.2 1.25 8.4-1.9z" id="k"/><path fill="url(#a)" d="M8.8-3.5q-.3.35-.75.7-2.4 2-6.3 2.65.05.05.05.1.15.25.05.5.55.4.1.75 6.2-.45 9.65-3.35 1-.8 1.6-1.65 1.75-2.5.55-5.45-1.6-4.05-7.5-6.7Q1-18.3-4.95-18.35q-.45.05-.95.05.05.15 0 .35-.15.3-.75.55 5.25.05 9.95 2.15 5.3 2.35 6.7 6 1.2 3.2-1.2 5.75z" id="m"/><g id="n"><path d="M-.85 3.85q-.95-.05-1.3-.15l8.3 14.8q3.25.65 8.45-.6L6.05 3.1q-.15.15-1.05.35-1.1.25-2.8.35-.4.05-.65.05Q.4 3.9-.5 3.9q-.2-.05-.35-.05z"/><path fill="url(#b)" d="M-2.15 3.7q.35.1 1.3.15.15 0 .35.05.9 0 2.05-.05.25 0 .65-.05 1.7-.1 2.8-.35.9-.2 1.05-.35-2.8-.85-2.85-1.8H.6q-.8.1-1.75.15Q-.7 2.5-2.1 3.7h-.05z"/><path fill="url(#c)" d="M12.7-2.6l-.25.05h.25v-.05z"/><path fill="url(#d)" d="M2.7-16.75l.45-.3q-6.75-2-14-1.5-8.05.6-11.95 3.9-4.05 3.3-1.7 7.45 2.45 4.15 9.8 6.65 6.5 2.2 13.55 2Q-.2 1.4.6 1.3h2.6q6-1.05 9.5-3.85h-.25Q8.95-.15 2.45.3q-7.1.5-13.75-1.75-6.6-2.2-8.7-5.9-2.1-3.7 1.45-6.7t10.75-3.5q5.4-.4 10.5.8z"/><path fill="url(#e)" d="M9.9-14.2q-1.55-.95-3.55-1.7-.85-.4-1.8-.7-.7-.25-1.4-.45l-.45.3q1.65.35 3.3.95 2.25.75 3.9 1.6z"/></g><path fill="#FFF" fill-opacity=".29" d="M10.2-14.2q-1.65-.9-3.9-1.6-1.65-.6-3.3-.95-5.1-1.2-10.5-.85-7.2.55-10.75 3.55-3.55 2.95-1.45 6.65 2.1 3.7 8.7 5.95Q-4.35.8 2.8.25 9.25-.2 12.75-2.6q.45-.35.8-.6.1-.1.3-.25h.05q2.7-3 .65-6.55-1.35-2.35-4.35-4.2z" id="o"/><path fill="url(#f)" d="M10.25-29.3q-.3-.45-.2-1 .05-.35.2-.55-.35-.15-.65-.25-4.1-1.15-8.75 1.45-5.2 2.9-8.15 8.75-2.2 4.4-2.15 8.5.1 1.45.35 2.85Q-8.05-4.4-4.05-2.5q-.1-.6.4-1.1.05-.35.25-.7.05-.1.1-.15-2.35-1.85-3.1-5.4-.1-.65-.15-1.2-.5-4.4 1.85-9 2.55-5.4 7.3-7.9 4.1-2.3 7.65-1.35z" id="p"/><g id="q"><path d="M-14.85 23.25L-2.4 2.2q-.3.05-.95-.1-.1.05-.25.05-.6-.2-1.4-.5-.15-.1-.4-.2Q-6.5.95-7.15.3q-.55-.35-.55-.7l-12.6 21.05q3 2.95 5.45 2.6z"/><path fill="url(#g)" d="M-9.5-10.35l-.15-.05v.05h.15z"/><path fill="url(#h)" d="M-2.05-1.55q-.6-.15-1.15-.5-.75-.3-1.75-.55-.5 1.5-2.75 2.2 0 .35.55.7.65.65 1.75 1.15.25.1.4.2.8.3 1.4.5.15 0 .25-.05.65.15.95.1l-.05-.1q-.4-2.05.4-3.65z"/><path fill="url(#i)" d="M3.65-30.2l-.2-.55q-.55.2-1.15.45-.75.3-1.5.65-1.8.85-3.25 2Q-.9-28.7 1-29.4q1.35-.5 2.65-.8z"/><path fill="url(#j)" d="M13.7-30.25Q9-32.5 3.45-30.75l.2.55q4-.8 7.45.85 4.7 2.25 5.8 7.5 1 5.3-2.1 10.6Q11.7-6 6.15-3.9.65-1.75-4-3.95q-4.15-2-5.5-6.4h-.15q1.05 5 4.7 7.75 1 .25 1.75.55.55.35 1.15.5Q2.7.2 8.1-1.85q6.15-2.4 9.7-8.3 3.45-5.85 2.25-11.7-1.15-5.9-6.35-8.4z"/></g><path fill="#FFF" fill-opacity=".29" d="M5.95-3.95q5.55-2.15 8.65-7.4 3.1-5.25 2.1-10.55-1.1-5.3-5.8-7.55-3.45-1.65-7.45-.85-1.3.3-2.65.8-1.9.7-3.45 1.75Q-5.5-25.5-7.5-22.2q-3.05 5.1-2.55 10.2v.05q.1.2.1.4.15.5.25 1.1 1.35 4.4 5.5 6.4 4.65 2.2 10.15.1z" id="r"/></defs><use xlink:href="#k" transform="translate(17.6 27.3) scale(.86606)"/><use filter="url(#l)" xlink:href="#m" transform="matrix(-.527 -.26 -.26 .527 14.742 38.17)"/><use filter="url(#l)" xlink:href="#n" transform="matrix(-.527 -.26 -.26 .527 14.742 38.17)"/><use filter="url(#l)" xlink:href="#o" transform="matrix(-.527 -.26 -.26 .527 14.742 38.17)"/><use xlink:href="#p" transform="translate(17.6 27.3) scale(.86606)"/><g transform="translate(17.6 27.3) scale(.86606)"><use xlink:href="#q"/></g><g transform="translate(17.6 27.3) scale(.86606)"><use xlink:href="#r"/></g></svg>