<svg xmlns="http://www.w3.org/2000/svg" xmlns:xlink="http://www.w3.org/1999/xlink" preserveAspectRatio="none" width="73" height="23" viewBox="0 0 73 23"><defs><path d="M21.5-8.05q-2.55 3.2-2.55 7.75t2.55 7.8q2.6 3.15 6.2 3.15t6.15-3.15Q36.4 4.25 36.4-.3t-2.55-7.75q-2.55-3.2-6.15-3.2-3.6 0-6.2 3.2z" id="a"/><path fill="#FFF" d="M27.25-5.55q0 1.5 1.1 2.55 1.05 1.05 2.55 1.05 1.5 0 2.55-1.05 1.05-1.05 1.05-2.55 0-1.5-1.05-2.55-1.05-1.05-2.55-1.05-1.5 0-2.55 1.05-1.1 1.05-1.1 2.55z" id="b"/><path d="M-27.65-10.7q-3.65 0-6.2 3.25Q-36.4-4.25-36.4.3t2.55 7.75q2.55 3.2 6.2 3.2 3.6 0 6.15-3.2 2.55-3.2 2.55-7.75t-2.55-7.75q-2.55-3.25-6.15-3.25z" id="c"/><path fill="#FFF" d="M-27.15-2.45Q-26.1-1.4-24.6-1.4q1.5 0 2.55-1.05Q-21-3.5-21-5q0-1.5-1.05-2.55Q-23.1-8.6-24.6-8.6q-1.5 0-2.55 1.05-1.1 1.05-1.1 2.55 0 1.5 1.1 2.55z" id="d"/></defs><use xlink:href="#a" transform="translate(36.4 11.25)"/><use xlink:href="#b" transform="translate(36.4 11.25)"/><use xlink:href="#c" transform="translate(36.4 11.25)"/><use xlink:href="#d" transform="translate(36.4 11.25)"/></svg>