
<svg xmlns="http://www.w3.org/2000/svg" version="1.1" xmlns:xlink="http://www.w3.org/1999/xlink" preserveAspectRatio="none" x="0px" y="0px" width="192px" height="404px" viewBox="0 0 192 404">
<defs>
<g id="Graficos_gr_pe_0_Layer0_0_FILL">
<path fill="#FFFFFF" stroke="none" d="
M 0.7 4.1
Q 0.7 5.65 2.9 6.8 5.05 7.9 8.15 7.9 11.35 7.9 14.45 6.65 17.7 5.25 17.7 3.75 17.7 2.25 14.45 1.2 11.55 0.3 8.15 0.3 5.05 0.3 2.9 1.4 0.7 2.5 0.7 4.1 Z"/>
</g>

<g id="Graficos_gr_pe_0_Layer0_2_FILL">
<path fill="#FFFFFF" stroke="none" d="
M 0 3.75
Q 0 5.35 2.2 6.45 4.35 7.55 7.45 7.55 10.65 7.55 13.75 6.3 17 4.95 17 3.4 17 1.9 13.75 0.9 10.8 0 7.45 0 4.35 0 2.2 1.1 0 2.2 0 3.75 Z"/>
</g>

<g id="mc_mascote_erro_0_Layer4_0_MEMBER_0_MEMBER_0_FILL">
<path fill="#FFFFFF" stroke="none" d="
M 70.25 38.05
Q 70.7 38.95 67.2 48.8
L 70.45 50
Q 76.1 37 75.05 35.7 74.1 34.4 61.95 26.55
L 61.2 32.7
Q 69.85 37.1 70.25 38.05 Z"/>
</g>

<g id="mc_mascote_erro_0_Layer4_0_MEMBER_0_MEMBER_2_FILL">
<path fill="#FFFFFF" stroke="none" d="
M 66.75 45.5
L 66.65 45.4
Q 65.95 44.85 64.9 46.1 63.75 47.35 64.45 47.8 64.85 48 65.5 47.65
L 65.6 48.15
Q 65.05 48.25 64.35 49.25 63.95 49.85 64.5 50.2 64.9 50.55 66.45 50.95 68.3 51.45 69.25 51.15 70.2 51 70.75 50.4 71.15 50 71.25 49.6 72.1 49.25 72.65 48.6 73.6 47.65 73.35 46.5 73.1 45.4 71.75 44.8 69.15 43.7 66.75 45.5 Z"/>
</g>

<g id="mc_mascote_erro_0_Layer4_0_MEMBER_0_MEMBER_4_FILL">
<path fill="#FFFFFF" stroke="none" d="
M 31.85 65.15
Q 31.85 66.75 34.05 67.85 36.2 68.95 39.3 68.95 42.5 68.95 45.6 67.7 48.85 66.35 48.85 64.8 48.85 63.3 45.6 62.3 42.7 61.35 39.3 61.35 36.2 61.35 34.05 62.45 31.85 63.55 31.85 65.15 Z"/>
</g>

<g id="mc_mascote_erro_0_Layer4_0_MEMBER_0_MEMBER_6_FILL">
<path fill="#FFFFFF" stroke="none" d="
M 31.15 64.85
Q 31.15 66.4 33.35 67.5 35.5 68.6 38.6 68.6 41.8 68.6 44.9 67.35 48.15 66 48.15 64.5 48.15 63 44.9 61.95 41.95 61.05 38.6 61.05 35.5 61.05 33.35 62.15 31.15 63.25 31.15 64.85 Z"/>
</g>

<g id="mc_mascote_erro_0_Layer4_0_MEMBER_0_MEMBER_8_FILL">
<path fill="#999999" stroke="none" d="
M 62.45 21.05
Q 56.7 8.3 49.85 8.3 43.05 8.25 37.35 21.05 32.2 32.7 32.3 42.95 32.4 52.05 37.7 58.5 43 64.9 50.35 64.9 57.7 64.9 62.8 58.5 67.95 52.05 67.8 42.95 67.65 32.55 62.45 21.05 Z"/>
</g>

<g id="mc_mascote_erro_0_Layer4_0_MEMBER_0_MEMBER_10_FILL">
<path fill="#FFFFFF" stroke="none" d="
M 62.45 22.8
Q 57.05 10.9 50.75 10.9 44.45 10.9 39.15 22.8 34.35 33.6 34.45 43.1 34.55 51.55 39.45 57.55 44.35 63.5 51.15 63.5 58 63.5 62.75 57.55 67.55 51.55 67.45 43.1 67.3 33.45 62.45 22.8 Z"/>
</g>

<g id="mc_mascote_erro_0_Layer4_0_MEMBER_0_MEMBER_12_FILL">
<path fill="#FFFFFF" stroke="none" d="
M 58.5 28.05
Q 60.1 28.05 61.05 26.9 62.05 25.8 61.75 24.15 61.5 22.55 60.15 21.4 58.85 20.3 57.2 20.3 55.6 20.3 54.65 21.4 53.7 22.55 53.95 24.15 54.25 25.8 55.55 26.9 56.85 28.05 58.5 28.05 Z"/>
</g>

<g id="mc_mascote_erro_0_Layer4_0_MEMBER_0_MEMBER_14_FILL">
<path fill="#0D0057" stroke="none" d="
M 50.4 16.2
Q 53.9 16.2 56.15 15.15 58.45 14.15 58.25 12.7
L 58.25 12.65 56.4 1.3 39.6 1.3 41.45 12.6 41.45 12.7
Q 41.65 14.15 44.3 15.15 46.9 16.2 50.4 16.2 Z"/>
</g>

<g id="mc_mascote_erro_0_Layer4_0_MEMBER_0_MEMBER_15_FILL">
<path fill="#0D0057" stroke="none" d="
M 37.75 1.35
L 30.65 8.3 71.35 0.7 51.5 -1.15 37.75 1.35 Z"/>
</g>

<g id="mc_mascote_erro_0_Layer4_0_MEMBER_0_MEMBER_16_FILL">
<path fill="#000000" stroke="none" d="
M 44.5 23.95
L 44.45 22 35 18.35 33.85 20.95 44.5 23.95 Z"/>
</g>

<g id="mc_mascote_erro_0_Layer4_0_MEMBER_0_MEMBER_18_FILL">
<path fill="#FFFFFF" stroke="none" d="
M 48.7 28.1
Q 50.35 28.1 51.25 26.95 52.25 25.85 52 24.2 51.7 22.55 50.4 21.45 49.05 20.3 47.45 20.3 45.85 20.3 44.9 21.45 43.95 22.55 44.2 24.2 44.45 25.85 45.75 26.95 47.1 28.1 48.7 28.1 Z"/>
</g>

<g id="mc_mascote_erro_0_Layer4_0_MEMBER_0_MEMBER_20_FILL">
<path fill="#000000" stroke="none" d="
M 52.25 23.95
L 52.4 25.05 53.9 25.05 53.75 23.95 52.25 23.95 Z"/>
</g>

<g id="mc_mascote_erro_0_Layer4_0_MEMBER_0_MEMBER_21_FILL">
<path fill="#000000" stroke="none" d="
M 45.65 19.8
L 49.25 17.15 44.35 18.4 45.65 19.8 Z"/>
</g>

<g id="mc_mascote_erro_0_Layer4_0_MEMBER_0_MEMBER_22_FILL">
<path fill="#000000" stroke="none" d="
M 54.85 16.95
L 58.95 19.2 59.45 17.45 54.85 16.95 Z"/>
</g>

<g id="mc_mascote_erro_0_Layer4_0_MEMBER_0_MEMBER_23_FILL">
<path fill="#FFFFFF" stroke="none" d="
M 55.7 42.35
Q 48.3 48.6 47.2 48.65 46.1 48.7 41.95 39.8
L 35.4 40.5
Q 44.7 55.15 46.45 55.5 48.15 55.85 58.3 44.85
L 55.7 42.35 Z"/>
</g>

<g id="mc_mascote_erro_0_Layer4_0_MEMBER_0_MEMBER_25_FILL">
<path fill="#FFFFFF" stroke="none" d="
M 56 39.3
Q 56.4 38.4 56 38.05 55.45 37.25 54.15 38.7 53 40.1 53.55 40.85
L 53.7 40.95
Q 52 43.9 53.5 46.8 54.3 48.3 55.6 48.45 56.95 48.6 58.05 47.4 58.65 46.65 58.95 45.65 59.55 45.4 59.85 44.95 60.35 44.45 60.55 43.2 60.75 42 59.95 40 59.35 38.25 58.9 37.8 58.3 37.2 57.7 37.8 56.7 38.65 56.65 39.3
L 56 39.3 Z"/>
</g>

<g id="Graficos_gr_olhos_0_Layer0_0_FILL">
<path fill="#000000" stroke="none" d="
M 2.1 0
Q 0.3 0 0.05 1.8 -0.3 3.6 1.5 3.6 3.35 3.6 3.6 1.8 3.85 0 2.1 0
M 1.75 0.2
Q 2.9 0.2 2.7 1.35 2.5 2.45 1.4 2.45 0.25 2.45 0.45 1.35 0.65 0.2 1.75 0.2
M 11.35 3.6
Q 13.2 3.6 13.45 1.8 13.7 0 11.95 0 10.2 0 9.85 1.8 9.6 3.6 11.35 3.6
M 11.6 0.2
Q 12.75 0.2 12.55 1.35 12.35 2.45 11.25 2.45 10.1 2.45 10.3 1.35 10.5 0.2 11.6 0.2 Z"/>

<path fill="#FFFFFF" stroke="none" d="
M 2.7 1.35
Q 2.9 0.2 1.75 0.2 0.65 0.2 0.45 1.35 0.25 2.45 1.4 2.45 2.5 2.45 2.7 1.35
M 12.55 1.35
Q 12.75 0.2 11.6 0.2 10.5 0.2 10.3 1.35 10.1 2.45 11.25 2.45 12.35 2.45 12.55 1.35 Z"/>
</g>

<g id="mc_mascote_erro_0_Layer2_0_MEMBER_1_MEMBER_0_FILL">
<path fill="#999999" stroke="none" d="
M -11.05 -2.2
Q -21.8 -8.45 -37.05 -8.45 -52.25 -8.45 -63 -2.2 -73.75 4.1 -73.75 13 -73.75 21.9 -63 28.15 -52.25 34.45 -37.05 34.45 -21.8 34.45 -11.05 28.15 -0.3 21.9 -0.3 13 -0.3 4.1 -11.05 -2.2 Z"/>
</g>

<g id="mc_mascote_erro_0_Layer2_0_MEMBER_1_MEMBER_1_FILL">
<path fill="#FFFFFF" stroke="none" d="
M -12.4 -2.1
Q -22.55 -8 -37.05 -8 -51.45 -8 -61.65 -2.1 -71.85 3.9 -71.85 12.35 -71.85 20.75 -61.65 26.7 -51.45 32.65 -37.05 32.65 -22.55 32.65 -12.4 26.7 -2.2 20.75 -2.2 12.35 -2.2 3.9 -12.4 -2.1 Z"/>
</g>

<g id="mc_mascote_erro_0_Layer2_0_MEMBER_2_FILL">
<path fill="#999999" stroke="none" d="
M 35.3 -7.8
Q 36.95 -6.15 39.25 -6.15 41.6 -6.15 43.2 -7.8 44.8 -9.45 44.8 -11.75 44.8 -14.05 43.2 -15.65 41.6 -17.3 39.25 -17.3 36.95 -17.3 35.3 -15.65 33.7 -14.05 33.7 -11.75 33.7 -9.45 35.3 -7.8
M 39.2 -7.25
Q 37.25 -7.25 35.9 -8.6 34.55 -10 34.55 -11.85 34.55 -13.75 35.9 -15.15 37.25 -16.5 39.2 -16.5 41.1 -16.5 42.4 -15.15 43.8 -13.75 43.8 -11.85 43.8 -10 42.4 -8.6 41.1 -7.25 39.2 -7.25 Z"/>

<path fill="#FFFFFF" stroke="none" d="
M 35.9 -8.6
Q 37.25 -7.25 39.2 -7.25 41.1 -7.25 42.4 -8.6 43.8 -10 43.8 -11.85 43.8 -13.75 42.4 -15.15 41.1 -16.5 39.2 -16.5 37.25 -16.5 35.9 -15.15 34.55 -13.75 34.55 -11.85 34.55 -10 35.9 -8.6 Z"/>
</g>

<g id="mc_mascote_erro_0_Layer2_0_MEMBER_3_FILL">
<path fill="#999999" stroke="none" d="
M 36.55 -4.1
Q 36.55 -2.45 37.7 -1.3 38.9 -0.1 40.55 -0.1 42.2 -0.1 43.35 -1.3 44.5 -2.45 44.5 -4.1 44.5 -5.75 43.35 -6.95 42.2 -8.1 40.55 -8.1 38.9 -8.1 37.7 -6.95 36.55 -5.75 36.55 -4.1
M 38.15 -6.55
Q 39.1 -7.5 40.45 -7.5 41.85 -7.5 42.8 -6.55 43.8 -5.55 43.8 -4.2 43.8 -2.85 42.8 -1.9 41.85 -0.85 40.45 -0.85 39.1 -0.85 38.15 -1.9 37.15 -2.85 37.15 -4.2 37.15 -5.55 38.15 -6.55 Z"/>

<path fill="#FFFFFF" stroke="none" d="
M 40.45 -7.5
Q 39.1 -7.5 38.15 -6.55 37.15 -5.55 37.15 -4.2 37.15 -2.85 38.15 -1.9 39.1 -0.85 40.45 -0.85 41.85 -0.85 42.8 -1.9 43.8 -2.85 43.8 -4.2 43.8 -5.55 42.8 -6.55 41.85 -7.5 40.45 -7.5 Z"/>
</g>

<g id="Graficos_gr_det_0_Layer0_0_FILL">
<path fill="#0D0057" stroke="none" d="
M 1 0
L 0 6.35 2.7 6.35 1 0 Z"/>
</g>

<g id="mc_mascote_erro_0_Layer1_0_MEMBER_1_MEMBER_0_FILL">
<path fill="#FFFFFF" stroke="none" d="
M 51.9 7.05
Q 51.45 6.55 50.95 6.55 50.1 6.6 49.3 8.15 48.6 9.5 48.5 10.65 48.5 11.8 49.1 12.45 49.65 13.15 50.55 13.05 52.4 12.95 52.9 10.6
L 52.95 10.45 51.4 10.65 51.65 11.05 52.25 11
Q 51.65 12.35 50.65 12.45 50 12.45 49.6 12.05 49 11.45 49.1 10.55 49.15 9.6 49.75 8.45 50.4 7.25 51 7.2 52.1 7.1 52.6 9.45
L 52.65 9.55 52.9 9.5 52.85 9.4
Q 52.5 7.75 51.9 7.05 Z"/>
</g>

<g id="mc_mascote_erro_0_Layer1_0_MEMBER_1_MEMBER_1_FILL">
<path fill="#FFFFFF" stroke="none" d="
M 51.85 4
L 51.05 4.1 51.2 5.95 51.85 4 Z"/>
</g>

<g id="mc_mascote_erro_0_Layer1_0_MEMBER_1_MEMBER_2_FILL">
<path fill="#FFFFFF" stroke="none" d="
M 54 5.2
L 53.25 4.95 52.6 6.7 54 5.2 Z"/>
</g>

<g id="mc_mascote_erro_0_Layer1_0_MEMBER_1_MEMBER_3_FILL">
<path fill="#FFFFFF" stroke="none" d="
M 54.95 7.5
L 54.35 6.95 53.05 8.35 54.95 7.5 Z"/>
</g>

<g id="mc_mascote_erro_0_Layer1_0_MEMBER_1_MEMBER_4_FILL">
<path fill="#FFFFFF" stroke="none" d="
M 48.85 4.85
L 48.15 5.3 49.85 6.45 48.85 4.85 Z"/>
</g>

<g id="mc_mascote_erro_0_Layer1_0_MEMBER_1_MEMBER_5_FILL">
<path fill="#FFFFFF" stroke="none" d="
M 47.2 6.95
L 46.75 7.6 48.75 8 47.2 6.95 Z"/>
</g>

<path id="Graficos_gr_pe_0_Layer0_1_1_STROKES" stroke="#999999" stroke-width="1" stroke-linejoin="round" stroke-linecap="round" fill="none" d="
M 2.9 6.8
Q 0.7 5.65 0.7 4.1 0.7 2.5 2.9 1.4 5.05 0.3 8.15 0.3 11.55 0.3 14.45 1.2 17.7 2.25 17.7 3.75 17.7 5.25 14.45 6.65 11.35 7.9 8.15 7.9 5.05 7.9 2.9 6.8 Z"/>

<path id="Graficos_gr_pe_0_Layer0_3_1_STROKES" stroke="#999999" stroke-width="1" stroke-linejoin="round" stroke-linecap="round" fill="none" d="
M 2.2 6.45
Q 0 5.35 0 3.75 0 2.2 2.2 1.1 4.35 0 7.45 0 10.8 0 13.75 0.9 17 1.9 17 3.4 17 4.95 13.75 6.3 10.65 7.55 7.45 7.55 4.35 7.55 2.2 6.45 Z"/>

<path id="mc_mascote_erro_0_Layer4_0_MEMBER_0_MEMBER_1_1_STROKES" stroke="#999999" stroke-width="1" stroke-linejoin="round" stroke-linecap="round" fill="none" d="
M 61.2 32.7
Q 69.85 37.1 70.25 38.05 70.7 38.95 67.2 48.8
L 70.45 50
Q 76.1 37 75.05 35.7 74.1 34.4 61.95 26.55"/>

<path id="mc_mascote_erro_0_Layer4_0_MEMBER_0_MEMBER_3_1_STROKES" stroke="#999999" stroke-width="1" stroke-linejoin="round" stroke-linecap="round" fill="none" d="
M 66.65 45.4
L 66.75 45.5
Q 69.15 43.7 71.75 44.8 73.1 45.4 73.35 46.5 73.6 47.65 72.65 48.6 72.1 49.25 71.25 49.6 71.15 50 70.75 50.4 70.2 51 69.25 51.15 68.3 51.45 66.45 50.95 64.9 50.55 64.5 50.2 63.95 49.85 64.35 49.25 65.05 48.25 65.6 48.15
L 65.5 47.65
Q 64.85 48 64.45 47.8 63.75 47.35 64.9 46.1 65.95 44.85 66.65 45.4 Z"/>

<path id="mc_mascote_erro_0_Layer4_0_MEMBER_0_MEMBER_5_1_STROKES" stroke="#999999" stroke-width="1" stroke-linejoin="round" stroke-linecap="round" fill="none" d="
M 34.05 67.85
Q 31.85 66.75 31.85 65.15 31.85 63.55 34.05 62.45 36.2 61.35 39.3 61.35 42.7 61.35 45.6 62.3 48.85 63.3 48.85 64.8 48.85 66.35 45.6 67.7 42.5 68.95 39.3 68.95 36.2 68.95 34.05 67.85 Z"/>

<path id="mc_mascote_erro_0_Layer4_0_MEMBER_0_MEMBER_7_1_STROKES" stroke="#999999" stroke-width="1" stroke-linejoin="round" stroke-linecap="round" fill="none" d="
M 33.35 67.5
Q 31.15 66.4 31.15 64.85 31.15 63.25 33.35 62.15 35.5 61.05 38.6 61.05 41.95 61.05 44.9 61.95 48.15 63 48.15 64.5 48.15 66 44.9 67.35 41.8 68.6 38.6 68.6 35.5 68.6 33.35 67.5 Z"/>

<path id="mc_mascote_erro_0_Layer4_0_MEMBER_0_MEMBER_9_1_STROKES" stroke="#999999" stroke-width="1" stroke-linejoin="round" stroke-linecap="round" fill="none" d="
M 67.8 42.95
Q 67.95 52.05 62.8 58.5 57.7 64.9 50.35 64.9 43 64.9 37.7 58.5 32.4 52.05 32.3 42.95 32.2 32.7 37.35 21.05 43.05 8.25 49.85 8.3 56.7 8.3 62.45 21.05 67.65 32.55 67.8 42.95 Z"/>

<path id="mc_mascote_erro_0_Layer4_0_MEMBER_0_MEMBER_11_1_STROKES" stroke="#999999" stroke-width="1" stroke-linejoin="round" stroke-linecap="round" fill="none" d="
M 67.45 43.1
Q 67.55 51.55 62.75 57.55 58 63.5 51.2 63.5 44.35 63.5 39.45 57.55 34.55 51.55 34.45 43.1 34.35 33.6 39.15 22.8 44.45 10.9 50.75 10.9 57.05 10.9 62.45 22.8 67.3 33.45 67.45 43.1 Z"/>

<path id="mc_mascote_erro_0_Layer4_0_MEMBER_0_MEMBER_13_1_STROKES" stroke="#000000" stroke-width="1" stroke-linejoin="round" stroke-linecap="round" fill="none" d="
M 61.05 26.9
Q 60.1 28.05 58.5 28.05 56.85 28.05 55.55 26.9 54.25 25.8 53.95 24.15 53.7 22.55 54.65 21.4 55.6 20.3 57.2 20.3 58.85 20.3 60.15 21.4 61.5 22.55 61.75 24.15 62.05 25.8 61.05 26.9 Z"/>

<path id="mc_mascote_erro_0_Layer4_0_MEMBER_0_MEMBER_17_1_STROKES" stroke="#FFFFFF" stroke-width="1" stroke-linejoin="round" stroke-linecap="round" fill="none" d="
M 44.5 23.95
L 33.85 20.95 35 18.35 44.45 22 44.5 23.95 Z"/>

<path id="mc_mascote_erro_0_Layer4_0_MEMBER_0_MEMBER_19_1_STROKES" stroke="#000000" stroke-width="1" stroke-linejoin="round" stroke-linecap="round" fill="none" d="
M 51.25 26.95
Q 50.35 28.1 48.7 28.1 47.1 28.1 45.75 26.95 44.45 25.85 44.2 24.2 43.95 22.55 44.9 21.45 45.85 20.3 47.45 20.3 49.05 20.3 50.4 21.45 51.7 22.55 52 24.2 52.25 25.85 51.25 26.95 Z"/>

<path id="mc_mascote_erro_0_Layer4_0_MEMBER_0_MEMBER_24_MEMBER_0_1_STROKES" stroke="#999999" stroke-width="1" stroke-linejoin="round" stroke-linecap="round" fill="none" d="
M 41.95 39.8
Q 46.1 48.7 47.2 48.65 48.3 48.6 55.7 42.35
L 58.3 44.85
Q 48.15 55.85 46.45 55.5 44.7 55.15 35.4 40.5"/>

<path id="mc_mascote_erro_0_Layer4_0_MEMBER_0_MEMBER_24_MEMBER_1_1_STROKES" stroke="#999999" stroke-width="1" stroke-linejoin="round" stroke-linecap="round" fill="none" d="
M 56 38.05
Q 55.45 37.25 54.15 38.7 53 40.1 53.55 40.85
L 53.7 40.95
Q 52 43.9 53.5 46.8 54.3 48.3 55.6 48.45 56.95 48.6 58.05 47.4 58.65 46.65 58.95 45.65 59.55 45.4 59.85 44.95 60.35 44.45 60.55 43.2 60.75 42 59.95 40 59.35 38.25 58.9 37.8 58.3 37.2 57.7 37.8 56.7 38.65 56.65 39.3
L 56 39.3
Q 56.4 38.4 56 38.05 Z"/>

<path id="gr_boca_erro_0_Layer0_0_1_STROKES" stroke="#999999" stroke-width="1" stroke-linejoin="round" stroke-linecap="round" fill="none" d="
M -7.7 -1.4
Q 0 4.35 7.7 -1.4"/>
</defs>

<g transform="matrix( 3.7061767578125, 0, 0, 3.7061767578125, -108,146.45) ">
<g transform="matrix( -1, 0, 0, 1, 69.85,61.15) ">
<g transform="matrix( 1, 0, 0, 1, 0,0) ">
<g transform="matrix( 1, 0, 0, 1, 0,0) ">
<use xlink:href="#Graficos_gr_pe_0_Layer0_0_FILL"/>
</g>

<g transform="matrix( 1, 0, 0, 1, 0,0) ">
<use xlink:href="#Graficos_gr_pe_0_Layer0_1_1_STROKES"/>
</g>

<g transform="matrix( 1, 0, 0, 1, 0,0) ">
<use xlink:href="#Graficos_gr_pe_0_Layer0_2_FILL"/>
</g>

<g transform="matrix( 1, 0, 0, 1, 0,0) ">
<use xlink:href="#Graficos_gr_pe_0_Layer0_3_1_STROKES"/>
</g>
</g>
</g>

<g transform="matrix( 1, 0, 0, 1, 0,0) ">
<use xlink:href="#mc_mascote_erro_0_Layer4_0_MEMBER_0_MEMBER_0_FILL"/>
</g>

<g transform="matrix( 1, 0, 0, 1, 0,0) ">
<use xlink:href="#mc_mascote_erro_0_Layer4_0_MEMBER_0_MEMBER_1_1_STROKES"/>
</g>

<g transform="matrix( 1, 0, 0, 1, 0,0) ">
<use xlink:href="#mc_mascote_erro_0_Layer4_0_MEMBER_0_MEMBER_2_FILL"/>
</g>

<g transform="matrix( 1, 0, 0, 1, 0,0) ">
<use xlink:href="#mc_mascote_erro_0_Layer4_0_MEMBER_0_MEMBER_3_1_STROKES"/>
</g>

<g transform="matrix( 1, 0, 0, 1, 0,0) ">
<use xlink:href="#mc_mascote_erro_0_Layer4_0_MEMBER_0_MEMBER_4_FILL"/>
</g>

<g transform="matrix( 1, 0, 0, 1, 0,0) ">
<use xlink:href="#mc_mascote_erro_0_Layer4_0_MEMBER_0_MEMBER_5_1_STROKES"/>
</g>

<g transform="matrix( 1, 0, 0, 1, 0,0) ">
<use xlink:href="#mc_mascote_erro_0_Layer4_0_MEMBER_0_MEMBER_6_FILL"/>
</g>

<g transform="matrix( 1, 0, 0, 1, 0,0) ">
<use xlink:href="#mc_mascote_erro_0_Layer4_0_MEMBER_0_MEMBER_7_1_STROKES"/>
</g>

<g transform="matrix( 1, 0, 0, 1, 0,0) ">
<use xlink:href="#mc_mascote_erro_0_Layer4_0_MEMBER_0_MEMBER_8_FILL"/>
</g>

<g transform="matrix( 1, 0, 0, 1, 0,0) ">
<use xlink:href="#mc_mascote_erro_0_Layer4_0_MEMBER_0_MEMBER_9_1_STROKES"/>
</g>

<g transform="matrix( 1, 0, 0, 1, 0,0) ">
<use xlink:href="#mc_mascote_erro_0_Layer4_0_MEMBER_0_MEMBER_10_FILL"/>
</g>

<g transform="matrix( 1, 0, 0, 1, 0,0) ">
<use xlink:href="#mc_mascote_erro_0_Layer4_0_MEMBER_0_MEMBER_11_1_STROKES"/>
</g>

<g transform="matrix( 1, 0, 0, 1, 0,0) ">
<use xlink:href="#mc_mascote_erro_0_Layer4_0_MEMBER_0_MEMBER_12_FILL"/>
</g>

<g transform="matrix( 1, 0, 0, 1, 0,0) ">
<use xlink:href="#mc_mascote_erro_0_Layer4_0_MEMBER_0_MEMBER_13_1_STROKES"/>
</g>

<g transform="matrix( 1, 0, 0, 1, 0,0) ">
<use xlink:href="#mc_mascote_erro_0_Layer4_0_MEMBER_0_MEMBER_14_FILL"/>
</g>

<g transform="matrix( 1, 0, 0, 1, 0,0) ">
<use xlink:href="#mc_mascote_erro_0_Layer4_0_MEMBER_0_MEMBER_15_FILL"/>
</g>

<g transform="matrix( 1, 0, 0, 1, 0,0) ">
<use xlink:href="#mc_mascote_erro_0_Layer4_0_MEMBER_0_MEMBER_16_FILL"/>
</g>

<g transform="matrix( 1, 0, 0, 1, 0,0) ">
<use xlink:href="#mc_mascote_erro_0_Layer4_0_MEMBER_0_MEMBER_17_1_STROKES"/>
</g>

<g transform="matrix( 1, 0, 0, 1, 0,0) ">
<use xlink:href="#mc_mascote_erro_0_Layer4_0_MEMBER_0_MEMBER_18_FILL"/>
</g>

<g transform="matrix( 1, 0, 0, 1, 0,0) ">
<use xlink:href="#mc_mascote_erro_0_Layer4_0_MEMBER_0_MEMBER_19_1_STROKES"/>
</g>

<g transform="matrix( 1, 0, 0, 1, 0,0) ">
<use xlink:href="#mc_mascote_erro_0_Layer4_0_MEMBER_0_MEMBER_20_FILL"/>
</g>

<g transform="matrix( 1, 0, 0, 1, 0,0) ">
<use xlink:href="#mc_mascote_erro_0_Layer4_0_MEMBER_0_MEMBER_21_FILL"/>
</g>

<g transform="matrix( 1, 0, 0, 1, 0,0) ">
<use xlink:href="#mc_mascote_erro_0_Layer4_0_MEMBER_0_MEMBER_22_FILL"/>
</g>

<g transform="matrix( 1, 0, 0, 1, 0,0) ">
<use xlink:href="#mc_mascote_erro_0_Layer4_0_MEMBER_0_MEMBER_23_FILL"/>
</g>

<g transform="matrix( 1, 0, 0, 1, 0,0) ">
<use xlink:href="#mc_mascote_erro_0_Layer4_0_MEMBER_0_MEMBER_24_MEMBER_0_1_STROKES"/>
</g>

<g transform="matrix( 1, 0, 0, 1, 0,0) ">
<use xlink:href="#mc_mascote_erro_0_Layer4_0_MEMBER_0_MEMBER_24_MEMBER_1_1_STROKES"/>
</g>

<g transform="matrix( 1, 0, 0, 1, 0,0) ">
<use xlink:href="#mc_mascote_erro_0_Layer4_0_MEMBER_0_MEMBER_25_FILL"/>
</g>

<g transform="matrix( 1, 0, 0, 1, 53.85,35.25) ">
<g transform="matrix( 1, 0, 0, 1, 0,0) ">
<g transform="matrix( 1, 0, 0, 1, 0,0) ">
<use xlink:href="#gr_boca_erro_0_Layer0_0_1_STROKES"/>
</g>
</g>
</g>

<g transform="matrix( -1, 0, 0, 1, 60.5,20.85) ">
<g transform="matrix( 1, 0, 0, 1, 0,0) ">
<g transform="matrix( 1, 0, 0, 1, 0,0) ">
<use xlink:href="#Graficos_gr_olhos_0_Layer0_0_FILL"/>
</g>
</g>
</g>

<g transform="matrix( 0.65911865234375, 0, 0, 0.65911865234375, 80.5,-33.7) ">
<use xlink:href="#mc_mascote_erro_0_Layer2_0_MEMBER_1_MEMBER_0_FILL"/>
</g>

<g transform="matrix( 0.65911865234375, 0, 0, 0.65911865234375, 80.5,-33.7) ">
<use xlink:href="#mc_mascote_erro_0_Layer2_0_MEMBER_1_MEMBER_1_FILL"/>
</g>

<g transform="matrix( 1, 0, 0, 1, 0,0) ">
<use xlink:href="#mc_mascote_erro_0_Layer2_0_MEMBER_2_FILL"/>
</g>

<g transform="matrix( 1, 0, 0, 1, 0,0) ">
<use xlink:href="#mc_mascote_erro_0_Layer2_0_MEMBER_3_FILL"/>
</g>

<g transform="matrix( -1, 0, 0, 1, 32.5,8.75) ">
<g transform="matrix( 0.9953155517578125, -0.09075927734375, 0.09075927734375, 0.9953155517578125, 0,0.05) ">
<g transform="matrix( 1, 0, 0, 1, 0,0) ">
<use xlink:href="#Graficos_gr_det_0_Layer0_0_FILL"/>
</g>
</g>
</g>

<g transform="matrix( 1, 0, 0, 1, 0,0) ">
<use xlink:href="#mc_mascote_erro_0_Layer1_0_MEMBER_1_MEMBER_0_FILL"/>
</g>

<g transform="matrix( 1, 0, 0, 1, 0,0) ">
<use xlink:href="#mc_mascote_erro_0_Layer1_0_MEMBER_1_MEMBER_1_FILL"/>
</g>

<g transform="matrix( 1, 0, 0, 1, 0,0) ">
<use xlink:href="#mc_mascote_erro_0_Layer1_0_MEMBER_1_MEMBER_2_FILL"/>
</g>

<g transform="matrix( 1, 0, 0, 1, 0,0) ">
<use xlink:href="#mc_mascote_erro_0_Layer1_0_MEMBER_1_MEMBER_3_FILL"/>
</g>

<g transform="matrix( 1, 0, 0, 1, 0,0) ">
<use xlink:href="#mc_mascote_erro_0_Layer1_0_MEMBER_1_MEMBER_4_FILL"/>
</g>

<g transform="matrix( 1, 0, 0, 1, 0,0) ">
<use xlink:href="#mc_mascote_erro_0_Layer1_0_MEMBER_1_MEMBER_5_FILL"/>
</g>
</g>
</svg>
