<svg xmlns="http://www.w3.org/2000/svg" xmlns:xlink="http://www.w3.org/1999/xlink" preserveAspectRatio="none" width="932" height="661" viewBox="0 0 932 661"><defs><g id="a"><path fill="#8E5F27" d="M618.55 525.4l-.05-11h-25.25l25.3 11z"/><path fill="#997426" d="M618.55 525.4l27.45-11h-27.5l.05 11z"/></g><g id="b"><path fill="#997426" d="M541.25 201.9l.05 5.8 1.05 151.35h24.9l52.8-21.1-2.4-154.95-76.4 18.9m200.55-49.7l-71.95 17.9 1.6 148.95 73.45-27.1-3.1-139.75z"/><path fill="#8E5F27" d="M416.65 113.85l-13.3-10.05-4.4 203.1 120.55 52.15h22.85L541.3 207.7l-124.65-93.85z"/><path fill="#1E4EA0" d="M671.45 319.05l-1.6-148.95-52.2 12.9 2.4 154.95 51.4-18.9z"/><path fill="#785734" d="M741.8 152.2v-.6l-120.75-29.7-204.4-8.05L541.3 207.7l-.05-5.8 76.4-18.9 52.2-12.9 71.95-17.9z"/></g><g id="c"><path fill="#D92746" d="M647.5 147.55h.2l-51.75-45.75q-4.15 8.8-.55 15.3l50.5 45.85h1.05q-3.45-7.7.55-15.4z"/><path fill="#7C1729" d="M719.45 158.65l-.25-15.15-71.5 4.05.55.55-.75-.55q-4 7.7-.55 15.4l72.5-4.3m-68.75 2l.35-11.8 67.35-3.1v11.35l-67.7 3.55z"/><path fill="#FFF" d="M651.05 148.85l-.35 11.8 67.7-3.55v-11.35l-67.35 3.1z"/><path fill="#BD0A2A" d="M719.2 143.5l1.9-.15-62.8-46.05-62.35 4.5 51.75 45.75 71.5-4.05z"/></g><g id="d"><path fill="#2B89D2" d="M650.95 144.15q-3.55-7.7.4-15.4h.2l-51.65-45.8q-4.25 8.85-.65 15.35l50.55 45.85h1.15z"/><path fill="#1A4AAE" d="M723.1 124.65l1.85-.15-62.7-46-62.35 4.45 51.65 45.8 71.55-4.1z"/><path fill="#393A59" d="M723.35 139.85l-.25-15.2-71.55 4.1.6.5-.8-.5q-3.95 7.7-.4 15.4l72.4-4.3m-1.1-13v11.4l-67.7 3.55.35-11.75 67.35-3.2z"/><path fill="#FFF" d="M722.25 138.25v-11.4l-67.35 3.2-.35 11.75 67.7-3.55z"/></g><g id="e"><path fill="#D92746" d="M467.1 201.65q-7.35 15.35-.95 26.8l88.35 80.2h1.9q-6.1-13.55.9-26.95h.35l-90.55-80.05z"/><path fill="#7C1729" d="M683.2 301.15l-.45-26.6-125.1 7.15 1 .9-1.35-.9q-7 13.4-.9 26.95l126.8-7.5m-1.9-22.7v19.9l-118.5 6.15.65-20.55 117.85-5.5z"/><path fill="#FFF" d="M681.3 298.35v-19.9l-117.85 5.5-.65 20.55 118.5-6.15z"/><path fill="#BD0A2A" d="M682.75 274.55l3.35-.2-109.9-80.6-109.1 7.9 90.55 80.05 125.1-7.15z"/></g><g id="f"><path fill="#BD0A2A" d="M624.35 186.5l2.5-.1-80.65-59.15-80.05 5.75 66.45 58.7 91.75-5.2z"/><path fill="#7C1729" d="M533.35 192.4l-1-.7q-5.15 9.9-.65 19.85l93-5.55-.35-19.5-91.75 5.2.75.7m3.55 1l86.4-4.05v14.6l-86.9 4.55.5-15.1z"/><path fill="#FFF" d="M623.3 189.35l-86.4 4.05-.5 15.1 86.9-4.55v-14.6z"/><path fill="#D92746" d="M532.35 191.7h.25L466.15 133q-5.35 11.25-.7 19.65l64.85 58.9h1.4q-4.5-9.95.65-19.85z"/></g><g id="g"><path fill="#3B9846" d="M503.35 121.95q-5.4 11.25-.75 19.65l64.85 58.9h1.45q-4.55-9.95.6-19.85h.25l-66.4-58.7z"/><path fill="#2E7637" d="M661.85 194.95l-.3-19.5-91.8 5.2.75.7-1-.7q-5.15 9.9-.6 19.85l92.95-5.55m-1.35-16.65v14.6l-86.95 4.55.5-15.1 86.45-4.05z"/><path fill="#FFF" d="M660.5 192.9v-14.6l-86.45 4.05-.5 15.1 86.95-4.55z"/><path fill="#5BAD0A" d="M661.55 175.45l2.45-.15-80.6-59.1-80.05 5.75 66.4 58.7 91.8-5.2z"/></g><g id="h"><path fill="#2B89D2" d="M498.55 109.6q-5.4 11.3-.75 19.7l64.85 58.8h1.45q-4.45-9.85.6-19.75h.25l-66.4-58.75z"/><path fill="#1A4AAE" d="M656.75 163.15l2.45-.2-80.55-59.1-80.1 5.75 66.4 58.75 91.8-5.2z"/><path fill="#393A59" d="M657.1 182.65l-.35-19.5-91.8 5.2.75.7-1-.7q-5.05 9.9-.6 19.75l93-5.45M655.7 166v14.6l-86.95 4.55.5-15.1L655.7 166z"/><path fill="#FFF" d="M655.7 180.6V166l-86.45 4.05-.5 15.1 86.95-4.55z"/></g><g id="i"><path fill="#D92746" d="M559.75 142.7h.25l-66.4-58.75q-5.4 11.3-.75 19.7l64.85 58.8h1.35q-4.45-9.85.7-19.75z"/><path fill="#7C1729" d="M652.1 157l-.3-19.5-91.8 5.2.75.7-1-.7q-5.15 9.9-.7 19.75L652.1 157m-1.35-16.65v14.6l-86.95 4.55.5-15.1 86.45-4.05z"/><path fill="#FFF" d="M650.75 154.95v-14.6l-86.45 4.05-.5 15.1 86.95-4.55z"/><path fill="#BD0A2A" d="M651.8 137.5l2.4-.2-80.6-59.1-80 5.75L560 142.7l91.8-5.2z"/></g><g id="j"><path fill="#3B9846" d="M502.05 60.35q-5.35 11.25-.7 19.7l64.85 58.8h1.4q-4.5-9.95.65-19.75h.25l-66.45-58.75z"/><path fill="#5BAD0A" d="M660.25 113.85l2.5-.15-80.65-59.15-80.05 5.8 66.45 58.75 91.75-5.25z"/><path fill="#2E7637" d="M660.6 133.4l-.35-19.55-91.75 5.25.75.65-1-.65q-5.15 9.8-.65 19.75l93-5.45m-1.4-16.65v14.55l-86.9 4.5.5-15.1 86.4-3.95z"/><path fill="#FFF" d="M659.2 131.3v-14.55l-86.4 3.95-.5 15.1 86.9-4.5z"/></g><g id="k"><path fill="#8E5F27" d="M479.75 243.95l-14.65-11.1-4.8 224.1 132.95 57.6h25.2L617.3 347.5 479.75 243.95z"/><path fill="#997426" d="M704.2 491.25l-2.6-171.05-84.35 20.9.05 6.4 1.15 167.05h27.5l58.25-23.3M838.55 286.3l-79.45 19.75 1.85 164.25L842 440.5l-3.45-154.2z"/><path fill="#1E4EA0" d="M759.1 306.05l-57.5 14.15 2.6 171.05 56.75-20.95-1.85-164.25z"/><path fill="#785734" d="M701.6 320.2l57.5-14.15 79.45-19.75v-.7L705.3 252.85l-225.55-8.9L617.3 347.5l-.05-6.4 84.35-20.9z"/></g><g id="l"><path fill="#BD0A2A" d="M746.4 225.5l-68.75 4.95 57.05 50.5 78.9-4.45 2.1-.2-69.3-50.8z"/><path fill="#7C1729" d="M735.35 281.55l-.85-.6q-4.45 8.5-.6 17l79.95-4.7-.25-16.75-78.9 4.45.65.6m2.6 13.85l.45-13 74.3-3.45v12.55l-74.75 3.9z"/><path fill="#FFF" d="M738.4 282.4l-.45 13 74.75-3.9v-12.55l-74.3 3.45z"/><path fill="#D92746" d="M734.5 280.95h.2l-57.05-50.5q-4.65 9.7-.65 16.95l55.7 50.55h1.2q-3.85-8.5.6-17z"/></g><g id="m"><path fill="#1A4AAE" d="M681.9 209.85l57.05 50.5 78.95-4.45 2.05-.2-69.25-50.8-68.8 4.95z"/><path fill="#393A59" d="M738.75 260.35q-4.35 8.5-.55 17l79.95-4.7-.25-16.75-78.95 4.45.65.6-.85-.6m3.5 14.4l.4-12.95 74.3-3.45v12.55l-74.7 3.85z"/><path fill="#FFF" d="M742.65 261.8l-.4 12.95 74.7-3.85v-12.55l-74.3 3.45z"/><path fill="#2B89D2" d="M738.2 277.35q-3.8-8.5.55-17h.2l-57.05-50.5q-4.65 9.7-.65 16.95L737 277.35h1.2z"/></g><g id="n"><path fill="#D92746" d="M534.45 264.95q-5.95 12.45-.8 21.7l71.55 64.9h1.55q-4.95-10.9.7-21.8h.3l-73.3-64.8z"/><path fill="#BD0A2A" d="M709 324l2.75-.15-88.95-65.3-88.35 6.4 73.3 64.8L709 324z"/><path fill="#7C1729" d="M709.4 345.5L709 324l-101.25 5.75.85.75-1.15-.75q-5.65 10.9-.7 21.8l102.65-6.05m-1.55-18.35v16.1l-95.95 5 .55-16.65 95.4-4.45z"/><path fill="#FFF" d="M707.85 343.25v-16.1l-95.4 4.45-.55 16.65 95.95-5z"/></g><g id="o"><path fill="#5BAD0A" d="M750 311.8l2.75-.2-88.95-65.25-88.35 6.4 73.3 64.8L750 311.8z"/><path fill="#2E7637" d="M649.6 318.3l-1.15-.75q-5.65 10.9-.7 21.8l102.65-6.05-.4-21.5-101.25 5.75.85.75m3.3 17.75l.55-16.65 95.4-4.45v16.1l-95.95 5z"/><path fill="#FFF" d="M653.45 319.4l-.55 16.65 95.95-5v-16.1l-95.4 4.45z"/><path fill="#3B9846" d="M648.45 317.55h.3l-73.3-64.8q-5.95 12.4-.8 21.7l71.55 64.9h1.55q-4.95-10.9.7-21.8z"/></g><g id="p"><path fill="#2B89D2" d="M570.2 239.15q-5.95 12.45-.8 21.7l71.55 64.9h1.55q-4.95-10.9.7-21.8h.3l-73.3-64.8z"/><path fill="#1A4AAE" d="M744.75 298.2l2.7-.2-88.95-65.25-88.3 6.4 73.3 64.8 101.25-5.75z"/><path fill="#393A59" d="M745.15 319.7l-.4-21.5-101.25 5.75.8.75-1.1-.75q-5.65 10.9-.7 21.8l102.65-6.05m-1.55-18.35v16.1l-95.95 5 .55-16.65 95.4-4.45z"/><path fill="#FFF" d="M743.6 317.45v-16.1l-95.4 4.45-.55 16.65 95.95-5z"/></g><g id="q"><path fill="#D92746" d="M637.7 275.65h.3l-73.3-64.8q-5.95 12.45-.8 21.7l71.55 64.9H637q-4.95-10.9.7-21.8z"/><path fill="#BD0A2A" d="M739.25 269.9l2.7-.2L653 204.45l-88.3 6.4 73.3 64.8 101.25-5.75z"/><path fill="#7C1729" d="M739.65 291.4l-.4-21.5L638 275.65l.8.75-1.1-.75q-5.65 10.9-.7 21.8l102.65-6.05m-1.55-18.35v16.1l-95.95 5 .55-16.65 95.4-4.45z"/><path fill="#FFF" d="M738.1 289.15v-16.1l-95.4 4.45-.55 16.65 95.95-5z"/></g><g id="r"><path fill="#3B9846" d="M646.35 271.4q-4.9-10.95.75-21.8h.25l-73.3-64.85q-5.9 12.45-.75 21.7l71.5 64.95h1.55z"/><path fill="#2E7637" d="M749 265.35l-.35-21.55-101.3 5.8.85.7-1.1-.7q-5.65 10.85-.75 21.8L749 265.35m-1.55-18.4v16.1l-95.9 5 .55-16.65 95.35-4.45z"/><path fill="#FFF" d="M747.45 263.05v-16.1l-95.35 4.45-.55 16.65 95.9-5z"/><path fill="#5BAD0A" d="M748.65 243.8l2.7-.15-88.95-65.25-88.35 6.35 73.3 64.85 101.3-5.8z"/></g><g id="s"><path fill="#1A4AAE" d="M67.25 244.9l90.55 80.05 125.1-7.1 3.35-.25L176.4 237l-109.15 7.9z"/><path fill="#393A59" d="M158.85 325.85l-1.4-.9q-6.95 13.45-.85 26.95l126.8-7.5-.5-26.55-125.1 7.1 1.05.9m4.1 21.95l.7-20.6 117.8-5.45v19.85l-118.5 6.2z"/><path fill="#FFF" d="M163.65 327.2l-.7 20.6 118.5-6.2v-19.85l-117.8 5.45z"/><path fill="#2B89D2" d="M67.25 244.9q-7.3 15.35-.95 26.8l88.35 80.2h1.95q-6.1-13.5.85-26.95h.35L67.25 244.9z"/></g><g id="t"><path fill="#7C1729" d="M171.3 293.15l-1.35-.9q-7 13.45-.9 26.95l126.8-7.5-.5-26.6-125.05 7.15 1 .9m4.8 1.35l117.8-5.45v19.85l-118.5 6.2.7-20.6z"/><path fill="#FFF" d="M293.9 289.05l-117.8 5.45-.7 20.6 118.5-6.2v-19.85z"/><path fill="#BD0A2A" d="M295.35 285.1l3.35-.2-109.85-80.6-109.1 7.9 90.55 80.05 125.05-7.15z"/><path fill="#D92746" d="M79.75 212.2q-7.35 15.35-.95 26.8l88.3 80.2h1.95q-6.1-13.5.9-26.95h.35L79.75 212.2z"/></g><g id="u"><path fill="#3B9846" d="M184.7 286.05q-6.1-13.5.85-26.9h.35L95.35 179.1q-7.3 15.35-.95 26.8l88.35 80.15h1.95z"/><path fill="#5BAD0A" d="M311 252l3.35-.2-109.85-80.6-109.15 7.9 90.55 80.05L311 252z"/><path fill="#2E7637" d="M311.5 278.6L311 252l-125.1 7.15 1.05.9-1.4-.9q-6.95 13.4-.85 26.9l126.8-7.45m-1.95-22.7v19.9l-118.5 6.15.7-20.55 117.8-5.5z"/><path fill="#FFF" d="M309.55 275.8v-19.9l-117.8 5.5-.7 20.55 118.5-6.15z"/></g><g id="v"><path fill="#BD0A2A" d="M295.3 205.5l3.35-.2-109.85-80.65-109.1 7.9 90.5 80.05 125.1-7.1z"/><path fill="#7C1729" d="M295.8 232.1l-.5-26.6-125.1 7.1 1.05.9-1.35-.9q-7 13.45-.9 26.95l126.8-7.45m-1.95-22.7v19.85l-118.5 6.2.7-20.6 117.8-5.45z"/><path fill="#FFF" d="M293.85 229.25V209.4l-117.8 5.45-.7 20.6 118.5-6.2z"/><path fill="#D92746" d="M79.7 132.55q-7.35 15.35-1 26.8l88.35 80.2H169q-6.1-13.5.9-26.95h.3l-90.5-80.05z"/></g><path fill="#FFF" d="M44.25 38.25L49.3 24.3Q36.1 39.5 32.6 39.5q-1.85 0-7.1-3.55l-.45 2.8q4.5 4.15 6.6 4.15 1.7 0 7.35-2.3l5.25-2.35z" id="w"/><path fill="#FFF" d="M37.75 62.4q-2.2 1.15-2.2 2.7 0 1.55 2.2 2.65 2.2 1.1 5.25 1.1 3.15 0 6.25-1.3 3.25-1.3 3.25-2.8 0-1.45-3.25-2.5-2.9-.95-6.25-.95-3.1 0-5.25 1.1z" id="x"/><path fill="#FFF" d="M37.05 62.1q-2.2 1.1-2.2 2.65 0 1.55 2.2 2.7 2.15 1.1 5.2 1.1 3.2 0 6.3-1.3 3.25-1.3 3.25-2.85 0-1.45-3.25-2.45-2.95-.95-6.3-.95-3.05 0-5.2 1.1z" id="z"/><path fill="#FFF" d="M59 67.5q3.1 1.3 6.25 1.3 3.1 0 5.25-1.1 2.2-1.1 2.2-2.7 0-1.55-2.2-2.7-2.15-1.1-5.25-1.1-3.35 0-6.25.95-3.25 1.05-3.25 2.5 0 1.5 3.25 2.85z" id="B"/><path fill="#FFF" d="M59.7 67.15q3.1 1.3 6.3 1.3 3.05 0 5.2-1.1 2.2-1.1 2.2-2.65 0-1.55-2.2-2.7-2.15-1.1-5.2-1.1-3.4 0-6.3.95-3.25 1-3.25 2.5t3.25 2.8z" id="D"/><path fill="#999" d="M67.2 21.15q-5.65-12.7-12.45-12.7-6.75 0-12.55 12.7-5.15 11.45-5.3 21.8-.1 9.05 5 15.4 5.1 6.4 12.4 6.4 7.3 0 12.55-6.4Q72.1 52 72.2 42.95q.15-10.25-5-21.8z" id="F"/><path fill="#FFF" d="M65.45 22.9q-5.25-11.8-11.6-11.8-6.25 0-11.6 11.8-4.8 10.65-4.95 20.2-.1 8.4 4.6 14.35 4.75 5.95 11.55 5.95 6.8 0 11.65-5.95 4.9-5.95 5-14.35.15-9.5-4.65-20.2z" id="H"/><path fill="#FFF" d="M53.35 27.05q.95 1.1 2.55 1.1 1.6 0 2.9-1.1 1.35-1.15 1.6-2.75t-.7-2.75q-.95-1.1-2.55-1.1-1.6 0-2.95 1.1-1.3 1.15-1.55 2.75t.7 2.75z" id="I"/><path fill="#FFF" d="M68.6 45.65l-6.7-1.7-2.75 3.1q-2.85 3.2-3.65 3.4-1.85.45-6.75 2.8l-.2 2.75q5.3-2.35 7.65-2.3 2.35.1 12.4-8.05z" id="K"/><path fill="#FFF" d="M43.65 27q.95 1.1 2.55 1.1 1.6 0 2.9-1.1 1.35-1.15 1.6-2.75.2-1.6-.75-2.75-.9-1.1-2.5-1.1t-2.95 1.1q-1.3 1.15-1.55 2.75t.7 2.75z" id="M"/><path fill="#0D0057" d="M63.15 12.8l1.8-11.3h-16.7l-1.8 11.3-.05.05q-.25 1.45 2.05 2.45 2.3 1 5.75 1 3.5 0 6.1-1 2.6-1 2.85-2.45v-.05z" id="O"/><path fill="#0D0057" d="M73.85 8.5l-7-6.9-13.7-2.45L33.4.95 73.85 8.5z" id="P"/><path d="M60.1 24.05l10.55-3-1.15-2.6-9.35 3.65-.05 1.95z" id="Q"/><path d="M52.2 25.1l.2-1.05h-1.5l-.2 1.05h1.5z" id="T"/><path d="M56.35 16.6l3.85 2.15 1.1-1.55-4.95-.6z" id="U"/><path fill="#FFF" d="M46.25 19.75l4.95-1.85-5.3-.05.35 1.9z" id="V"/><path d="M45.4 18.5l3.9-2.5-4.55.75.65 1.75z" id="W"/><path fill="#FFF" d="M52.85 7.75q-.5 0-.95.5-.6.7-.95 2.35l-.05.1.25.05.05-.1q.5-2.35 1.6-2.25.6.05 1.25 1.25.6 1.15.65 2.1.1.9-.5 1.5-.4.4-1.05.4-1-.1-1.6-1.45l.6.05.25-.4-1.55-.2.05.15q.5 2.35 2.35 2.45.9.1 1.45-.6.6-.65.6-1.8-.1-1.15-.8-2.5-.8-1.55-1.65-1.6z" id="X"/><path fill="#FFF" d="M54.25 5.2l-.8.1.15 1.85.65-1.95z" id="Y"/><path fill="#FFF" d="M56.4 6.4l-.75-.25L55 7.9l1.4-1.5z" id="Z"/><path fill="#FFF" d="M57.35 8.7l-.6-.55-1.3 1.4 1.9-.85z" id="aa"/><path fill="#FFF" d="M51.25 6.05l-.7.45 1.7 1.15-1-1.6z" id="ab"/><path fill="#FFF" d="M49.6 8.15l-.45.65 2 .4-1.55-1.05z" id="ac"/><path fill="#FFF" d="M41.3 31.8q1.15 4.25 3.05 6.25 2.5 2.65 7.25 2.65 4.15 0 6.95-2.5 2.55-2.3 5.6-8.35-6.05 3.2-12.9 3.2-6.8 0-9.95-1.25z" id="ad"/><path fill="#FFF" d="M64.65 28.45q-.7-.3-1.4 0-.35.2-.55.4l2.85 1.7q.7-1.45-.9-2.1z" id="ag"/><path fill="#FFF" d="M42 34.3q2.7 2.55 9.5 2.55t10.9-3.8L42 34.3z" id="ai"/><path fill="#FFF" d="M41.95 30.25q-.45-.45-1.15-.15-.8.3-.8 1.1l2.25-.5q-.1-.25-.3-.45z" id="aj"/><g id="al"><path fill="#300" d="M35.55 38.8l-3.65-.1v23.9l3.65.1V38.8m-3.4.05l3.15.1v23.6l-3.15-.1v-23.6z"/><path fill="#EEB200" d="M35.3 38.95l-3.15-.1v23.6l3.15.1v-23.6m-3.6 8.2q.1.05.15.2v-8.5L21.2 34.9v5.7q5.25.1 10.5 6.55M49.75 42v-5.75l-14.1 2.3v8.75l.4-.3q6.85-5.8 13.7-5z"/><path fill="#069" d="M31.85 51.7q-.05 0-.15.05-5.6 3.85-10.5.25v6.45l10.65 4.1V51.7m4.2-.35q-.2-.15-.4-.25v11.4l14.1-2.35v-6.8q-6.35 2.8-13.7-2z"/><path fill="#FFC" d="M31.85 47.35q-.05-.15-.15-.2-5.25-6.45-10.5-6.55V52q4.9 3.6 10.5-.25.1-.05.15-.05v-4.35m4.2-.35l-.4.3v3.8q.2.1.4.25 7.35 4.8 13.7 2V42q-6.85-.8-13.7 5z"/></g><path fill="#FFF" d="M47.8 48.85q-.017.042-.05.05-.3.05-1.5.1-.95.05-1.6.3-.58.34-.9.45l.25.05-.4.6q-.65-.35-2.05 0-.95.2-.75 1.1.1.65 1.3 2.35 1.35 2.05 2.55 2.65 1.15.65 2.1.55.85-.15 1.2-.4 1.1.3 2.2.25 1.8-.2 2.5-1.5.65-1.3-.15-3-1.436-3.007-4.7-3.55z" id="an"/><path fill="#999" d="M20.4 36q-1.15.3-1.6 1.9-.45 1.55.05 3.4.55 1.95 1.7 3.1 1.15 1.15 2.3.85 1.1-.3 1.5-1.85.45-1.6-.1-3.55-.5-1.85-1.65-2.95-1.1-1.2-2.2-.9z" id="ap"/><path fill="#FFF" d="M20.6 36.85q-.9.25-1.3 1.5-.35 1.35.1 2.9.4 1.6 1.35 2.5 1 1 1.9.75.95-.25 1.25-1.6.35-1.25-.05-2.85-.45-1.55-1.4-2.55-.9-.9-1.85-.65z" id="aq"/><path d="M2.1 0Q.3 0 .05 1.8-.3 3.6 1.5 3.6q1.85 0 2.1-1.8T2.1 0m9.85 0q-1.75 0-2.1 1.8-.25 1.8 1.5 1.8 1.85 0 2.1-1.8T11.95 0z" id="ar"/><path fill="#FFF" d="M2.7 2.3q.2-1.15-.95-1.15-1.1 0-1.3 1.15-.2 1.1.95 1.1 1.1 0 1.3-1.1m9.85 0q.2-1.15-.95-1.15-1.1 0-1.3 1.15-.2 1.1.95 1.1 1.1 0 1.3-1.1z" id="as"/><path fill="#0D0057" d="M1 0L0 6.35h2.7L1 0z" id="at"/><g id="au"><path fill="#5BAD0A" d="M297.95 519.5l3.4-.2-109.9-80.6-109.1 7.9 90.55 80.05 125.05-7.15z"/><path fill="#3B9846" d="M172.55 526.65h.35L82.35 446.6q-7.35 15.35-.95 26.8l88.35 80.15h1.9q-6.1-13.5.9-26.9z"/><path fill="#2E7637" d="M173.9 527.55l-1.35-.9q-7 13.4-.9 26.9l126.8-7.45-.5-26.6-125.05 7.15 1 .9m4.15 21.9l.65-20.55 117.85-5.5v19.9l-118.5 6.15z"/><path fill="#FFF" d="M178.7 528.9l-.65 20.55 118.5-6.15v-19.9l-117.85 5.5z"/></g><g id="av"><path fill="#D92746" d="M171.65 485.55q-6.1-13.5.9-26.95h.35l-90.55-80.05q-7.3 15.35-.95 26.8l88.35 80.2h1.9z"/><path fill="#7C1729" d="M298.45 478.05l-.45-26.6-125.1 7.15 1.05.9-1.4-.9q-7 13.45-.9 26.95l126.8-7.5m-1.9-22.65v19.85l-118.5 6.15.7-20.55 117.8-5.45z"/><path fill="#FFF" d="M296.55 475.25V455.4l-117.8 5.45-.7 20.55 118.5-6.15z"/><path fill="#BD0A2A" d="M191.5 370.65l-109.15 7.9 90.55 80.05 125.1-7.15 3.35-.2-109.85-80.6z"/></g><g id="aw"><path fill="#2E7637" d="M224.45 444.4l-1.4-.9q-7 13.45-.9 26.95l126.8-7.5-.45-26.6-125.1 7.15 1.05.9m4.1 21.9l.7-20.55 117.8-5.45v19.85l-118.5 6.15z"/><path fill="#FFF" d="M229.25 445.75l-.7 20.55 118.5-6.15V440.3l-117.8 5.45z"/><path fill="#5BAD0A" d="M241.95 355.55l-109.1 7.9 90.55 80.05 125.1-7.15 3.35-.2-109.9-80.6z"/><path fill="#3B9846" d="M132.85 363.45q-7.3 15.35-.95 26.8l88.35 80.2h1.9q-6.1-13.5.9-26.95h.35l-90.55-80.05z"/></g><g id="ax"><path fill="#393A59" d="M218.3 427.5l-1.4-.9q-7 13.4-.9 26.9l126.8-7.45-.45-26.6-125.1 7.15 1.05.9m4.1 21.9l.7-20.55 117.8-5.5v19.9l-118.5 6.15z"/><path fill="#FFF" d="M223.1 428.85l-.7 20.55 118.5-6.15v-19.9l-117.8 5.5z"/><path fill="#1A4AAE" d="M235.85 338.65l-109.15 7.9 90.55 80.05 125.1-7.15 3.35-.2-109.85-80.6z"/><path fill="#2B89D2" d="M126.7 346.55q-7.3 15.35-.95 26.8l88.35 80.15h1.9q-6.1-13.5.9-26.9h.35l-90.55-80.05z"/></g><g id="ay"><path fill="#7C1729" d="M211.3 392.55l-1.4-.9q-6.95 13.45-.85 26.95l126.8-7.5-.5-26.6-125.1 7.15 1.05.9m4.8 1.35l117.8-5.45v19.85l-118.5 6.2.7-20.6z"/><path fill="#FFF" d="M333.9 388.45l-117.8 5.45-.7 20.6 118.5-6.2v-19.85z"/><path fill="#D92746" d="M119.7 311.6q-7.3 15.35-.95 26.8l88.35 80.2h1.95q-6.1-13.5.85-26.95h.35L119.7 311.6z"/><path fill="#BD0A2A" d="M335.35 384.5l3.35-.2-109.85-80.6-109.15 7.9 90.55 80.05 125.1-7.15z"/></g><g id="az"><path fill="#3B9846" d="M131.4 279.4q-7.3 15.35-.95 26.8l88.35 80.15h1.95q-6.1-13.5.85-26.9h.35L131.4 279.4z"/><path fill="#5BAD0A" d="M347.05 352.3l3.35-.2-109.85-80.6-109.15 7.9 90.55 80.05 125.1-7.15z"/><path fill="#2E7637" d="M347.5 378.9l-.45-26.6-125.1 7.15 1.05.85-1.4-.85q-6.95 13.4-.85 26.9l126.75-7.45m-1.9-22.7v19.9l-118.5 6.15.7-20.55 117.8-5.5z"/><path fill="#FFF" d="M345.6 376.1v-19.9l-117.8 5.5-.7 20.55 118.5-6.15z"/></g><g id="aA"><path fill="#F5F6F0" d="M132.05 283.6q-27.15-2.05-68.7 47Q10.65 395.95-8 371.25l26.55 98.15Q37.2 494.1 90 428.8q45.05-53.35 73.35-46.35l-31.3-98.85M59.7 344.7l10.15-10.4 23.75 74.75-10.7 14.15-23.2-78.5m-47.2 41l12.7-7.55 24.4 75.3-13.95 11.05-23.15-78.8m25.3-16.45l10.6-9.7 22.55 73.4-11.5 13.4-21.65-77.1m43.45-49.8L94 311.9l24.4 75.4-13.9 10.95-23.25-78.8m64.6 51.95l-15.4 9.3-22.75-79.95 14.25-5.95 23.9 76.6z"/><path fill="#757A63" d="M130.45 380.7l15.4-9.3-23.9-76.6-14.25 5.95 22.75 79.95M94 311.9l-12.75 7.55 23.25 78.8 13.9-10.95L94 311.9m-45.6 47.65l-10.6 9.7 21.65 77.1 11.5-13.4-22.55-73.4m21.45-25.25L59.7 344.7l23.2 78.5 10.7-14.15-23.75-74.75z"/><path fill="#5D5B4C" d="M25.2 378.15l-12.7 7.55 23.15 78.8 13.95-11.05-24.4-75.3z"/></g><g id="aC"><path fill="#F5F6F0" d="M86.45 449.45Q3.4 461.8 6.4 430.95l-46.95 90.3q-2.95 30.75 80.1 18.5Q108.8 531 124.9 555.3l44-93.95q-18.7-19.9-82.45-11.9m52.8 8.05l14.55 5.25-34.25 72.55-17.7-3.55 37.4-74.25m-32.05-4.15l14.4 3.05-33.05 71.95-17.6-1.25 36.25-73.75m-95.5 2.15l14.45 3.1-33 71.9-17.75-1.3 36.3-73.7m29.8 5.1h14.3l-33.05 69.3-17.6 2.05L41.5 460.6m14.1 67l-17.5 3.2 36.1-73.45 14.5-.8-33.1 71.05z"/><path fill="#757A63" d="M38.1 530.8l17.5-3.2 33.1-71.05-14.5.8-36.1 73.45m17.7-70.2H41.5L5.15 531.95l17.6-2.05 33.05-69.3m65.8-4.2l-14.4-3.05-36.25 73.75 17.6 1.25 33.05-71.95m32.2 6.35l-14.55-5.25-37.4 74.25 17.7 3.55 34.25-72.55z"/><path fill="#5D5B4C" d="M26.15 458.6l-14.45-3.1-36.3 73.7 17.75 1.3 33-71.9z"/></g><g id="aE"><path fill="#F5F6F0" d="M90.8 520.7q5.1-26.85-38.85-73.75-58.8-60-32-75.7L-80.7 386.3q-26.65 15.7 32 75.75 47.85 50.9 37.6 78.15l101.9-19.5M16.6 417.05L25 428.7l-75.55 13.95-12-13.1 79.15-12.5m44.4 49l6 13.45-77.7 15.45-9.3-15 81-13.9m-22.55-24.4l9.1 11.25-76.9 15-12.85-12.3 80.65-13.95m42.3 67.6L1.9 524.1l-7.45-16.35 81.95-13.3 4.35 14.8m-77.6-119.2l6.1 13.5-77.7 15.5-9.35-15.2 80.95-13.8z"/><path fill="#5D5B4C" d="M9.25 403.55l-6.1-13.5-80.95 13.8 9.35 15.2 77.7-15.5z"/><path fill="#757A63" d="M1.9 524.1l78.85-14.85-4.35-14.8-81.95 13.3L1.9 524.1m45.65-71.2l-9.1-11.25-80.65 13.95 12.85 12.3 76.9-15M67 479.5l-6-13.45-81 13.9 9.3 15L67 479.5m-42-50.8l-8.4-11.65-79.15 12.5 12 13.1L25 428.7z"/></g><g id="aG"><path fill="#F5F6F0" d="M99.15 339.65Q18.6 316.25 34.1 289.5l-80.25 62.3q-15.55 26.85 65.05 50.3 66.55 21.05 70.9 49.75l79.25-67q-8.65-25.85-69.9-45.2m-45.5-8.7L66.7 337 7.65 386.2l-16.8-5.4 62.8-49.85m-24.9-17l11.85 8.8-60.1 51.65-15.5-8.6 63.75-51.85m115 55.2l11.05 10.7-61.35 51.75-14.55-10.8 64.85-51.65M84.8 341.8l13.45 5.25-59.75 50.8-17.3-4.45 63.6-51.6m31.55 10.15l11.85 8.75-60.1 51.7-15.5-8.65 63.75-51.8z"/><path fill="#757A63" d="M128.2 360.7l-11.85-8.75-63.75 51.8 15.5 8.65 60.1-51.7m-29.95-13.65L84.8 341.8l-63.6 51.6 17.3 4.45 59.75-50.8m56.55 32.8l-11.05-10.7L78.9 420.8l14.55 10.8 61.35-51.75M66.7 337l-13.05-6.05-62.8 49.85 16.8 5.4L66.7 337z"/><path fill="#5D5B4C" d="M40.6 322.75l-11.85-8.8L-35 365.8l15.5 8.6 60.1-51.65z"/></g><g id="aI"><path fill="#F5F6F0" d="M114.2 304.5Q30.95 314.7 34.7 284l-49.25 89q-3.7 30.75 79.55 20.55 69.5-6.95 84.95 17.75l46.4-92.8q-18.2-20.35-82.15-14m-95.3 78.7l-17.65-1.8 38.15-72.8 14.35 3.45L18.9 383.2m12 1.8L69 314.45l14.4.35-34.9 68.55L30.9 385m103.95-76.05l14.4 3.45-34.9 71.15-17.6-1.8 38.1-72.8m-32.95 3.15l14.4-.45-34.9 70.25-17.6 2.75 38.1-72.55m43.3 79.1l-17.6-4.1 39.25-73.15 14.4 5.55-36.05 71.7z"/><path fill="#757A63" d="M127.6 387.1l17.6 4.1 36.05-71.7-14.4-5.55-39.25 73.15m-11.3-75.45l-14.4.45-38.1 72.55 17.6-2.75 34.9-70.25m32.95.75l-14.4-3.45-38.1 72.8 17.6 1.8 34.9-71.15M69 314.45L30.9 385l17.6-1.65 34.9-68.55-14.4-.35z"/><path fill="#5D5B4C" d="M1.25 381.4l17.65 1.8 34.85-71.15-14.35-3.45-38.15 72.8z"/></g><g id="aK"><path fill="#F5F6F0" d="M61.15 516.5q-32.2-77.5-1.55-82.1l-98.9-23.6q-30.7 4.7 1.5 82.2 25.3 65.05 5.7 86.55l101.75 19.8q14.8-22.95-8.5-82.85m-24.05-71l.55 14.8-77.85-14.55-3-17.45 80.3 17.2m2.35 30.1l3.5 13.9-75.35-15.15-6.3-16.6 78.15 17.85m11.1 31.05l4.3 13.75-77-14.8-7.35-16.15 80.05 17.2m15.6 63.1l-1.5 15.35-78.75-15.55-.75-18 81 18.2m-3.75-32.2l.55 14.8-77.85-14.55-3-17.45 80.3 17.2z"/><path fill="#757A63" d="M62.95 552.35l-.55-14.8-80.3-17.2 3 17.45 77.85 14.55m1.7 32.75l1.5-15.35-81-18.2.75 18 78.75 15.55m-9.8-64.7l-4.3-13.75-80.05-17.2 7.35 16.15 77 14.8m-11.9-30.9l-3.5-13.9-78.15-17.85 6.3 16.6 75.35 15.15z"/><path fill="#5D5B4C" d="M37.65 460.3l-.55-14.8-80.3-17.2 3 17.45 77.85 14.55z"/></g><g id="aM"><path fill="#F5F6F0" d="M80.1 508.3q-71.85-43.55-49.85-65.35l-93.75 39.5q-21.95 21.8 49.85 65.4 58.85 37.45 55.7 66.45l93.85-44.2q-1.65-27.2-55.8-61.8m-61.4-43.05l9.15 11.55-71.35 34.3-12.8-12.35 75-33.5m46.95 41.3l11.65 8.65-70.9 33.5-15.5-8.7 74.75-33.45M31.3 570.4l-12.75-12.3 74.95-33.6 9.2 11.6-71.4 34.3m84.3-22.15l7.8 13.3-72.7 34-11.3-14.05 76.2-33.25m-77.25-60.1l11.05 9.15-69.7 32.25-14.9-9.7 73.55-31.7z"/><path fill="#757A63" d="M49.4 497.3l-11.05-9.15-73.55 31.7 14.9 9.7 69.7-32.25m74 64.25l-7.8-13.3-76.2 33.25 11.3 14.05 72.7-34M18.55 558.1l12.75 12.3 71.4-34.3-9.2-11.6-74.95 33.6m58.75-42.9l-11.65-8.65L-9.1 540l15.5 8.7 70.9-33.5z"/><path fill="#5D5B4C" d="M27.85 476.8l-9.15-11.55-75 33.5 12.8 12.35 71.35-34.3z"/></g><path id="y" stroke="#999" stroke-linejoin="round" stroke-linecap="round" fill="none" d="M35.55 65.1q0-1.55 2.2-2.7 2.15-1.1 5.25-1.1 3.35 0 6.25.95 3.25 1.05 3.25 2.5 0 1.5-3.25 2.8-3.1 1.3-6.25 1.3-3.05 0-5.25-1.1t-2.2-2.65z"/><path id="A" stroke="#999" stroke-linejoin="round" stroke-linecap="round" fill="none" d="M34.85 64.75q0-1.55 2.2-2.65 2.15-1.1 5.2-1.1 3.35 0 6.3.95 3.25 1 3.25 2.45 0 1.55-3.25 2.85-3.1 1.3-6.3 1.3-3.05 0-5.2-1.1-2.2-1.15-2.2-2.7z"/><path id="C" stroke="#999" stroke-linejoin="round" stroke-linecap="round" fill="none" d="M59 67.5q3.1 1.3 6.25 1.3 3.1 0 5.25-1.1 2.2-1.1 2.2-2.7 0-1.55-2.2-2.7-2.15-1.1-5.25-1.1-3.35 0-6.25.95-3.25 1.05-3.25 2.5 0 1.5 3.25 2.85z"/><path id="E" stroke="#999" stroke-linejoin="round" stroke-linecap="round" fill="none" d="M59.7 67.15q3.1 1.3 6.3 1.3 3.05 0 5.2-1.1 2.2-1.1 2.2-2.65 0-1.55-2.2-2.7-2.15-1.1-5.2-1.1-3.4 0-6.3.95-3.25 1-3.25 2.5t3.25 2.8z"/><path id="G" stroke="#999" stroke-linejoin="round" stroke-linecap="round" fill="none" d="M67.2 21.15q-5.65-12.7-12.45-12.7-6.75 0-12.55 12.7-5.15 11.45-5.3 21.8-.1 9.05 5 15.4 5.1 6.4 12.4 6.4 7.3 0 12.55-6.4Q72.1 52 72.2 42.95q.15-10.25-5-21.8z"/><path id="J" stroke="#999" stroke-linejoin="round" stroke-linecap="round" fill="none" d="M65.45 22.9q-5.25-11.8-11.6-11.8-6.25 0-11.6 11.8-4.8 10.65-4.95 20.2-.1 8.4 4.6 14.35 4.75 5.95 11.55 5.95 6.8 0 11.65-5.95 4.9-5.95 5-14.35.15-9.5-4.65-20.2z"/><path id="L" stroke="#999" stroke-linejoin="round" stroke-linecap="round" fill="none" d="M68.6 45.65Q58.55 53.8 56.2 53.7q-2.35-.05-7.65 2.3l.2-2.75q4.9-2.35 6.75-2.8.8-.2 3.65-3.4l2.75-3.1"/><path id="N" stroke="#000" stroke-linejoin="round" stroke-linecap="round" fill="none" d="M43.65 27q.95 1.1 2.55 1.1 1.6 0 2.9-1.1 1.35-1.15 1.6-2.75.2-1.6-.75-2.75-.9-1.1-2.5-1.1t-2.95 1.1q-1.3 1.15-1.55 2.75t.7 2.75z"/><path id="R" stroke="#FFF" stroke-linejoin="round" stroke-linecap="round" fill="none" d="M60.1 24.05l10.55-3-1.15-2.6-9.35 3.65-.05 1.95z"/><path id="S" stroke="#000" stroke-linejoin="round" stroke-linecap="round" fill="none" d="M53.35 27.05q.95 1.1 2.55 1.1 1.6 0 2.9-1.1 1.35-1.15 1.6-2.75t-.7-2.75q-.95-1.1-2.55-1.1-1.6 0-2.95 1.1-1.3 1.15-1.55 2.75t.7 2.75z"/><path id="ae" stroke="#999" stroke-linejoin="round" stroke-linecap="round" fill="none" d="M41.3 31.8q1.15 4.25 3.05 6.25 2.5 2.65 7.25 2.65 4.15 0 6.95-2.5 2.55-2.3 5.6-8.35-6.05 3.2-12.9 3.2-6.8 0-9.95-1.25z"/><path id="af" stroke="#999" stroke-linejoin="round" stroke-linecap="round" fill="none" d="M65.55 30.55q.7-1.45-.9-2.1-.7-.3-1.4 0-.35.2-.55.4"/><path id="ah" stroke="#999" stroke-linejoin="round" stroke-linecap="round" fill="none" d="M42.25 30.7q-.1-.25-.3-.45-.45-.45-1.15-.15-.8.3-.8 1.1"/><path id="ak" stroke="#999" stroke-linejoin="round" stroke-linecap="round" fill="none" d="M62.4 33.05q-4.1 3.8-10.9 3.8-6.8 0-9.5-2.55"/><path id="am" stroke="#666" stroke-linejoin="round" stroke-linecap="round" fill="none" d="M31.9 38.7v23.9l3.65.1V38.8l-3.65-.1z"/><path id="ao" stroke="#999" stroke-linejoin="round" stroke-linecap="round" fill="none" d="M44 49.8q3.446-2.695 6.5-.075 3.05 2.62 2.25 4.8-.803 2.175-2.6 2.375-1.1.05-2.2-.25-.35.25-1.2.4-.95.1-2.1-.55-1.2-.6-2.55-2.65-1.2-1.7-1.3-2.35-.2-.9.75-1.1 1.4-.35 2.05 0l.4-.6z"/><path id="aB" stroke="#999" stroke-linejoin="round" stroke-linecap="round" fill="none" d="M132.05 283.6l31.3 98.85q-28.3-7-73.35 46.35-52.8 65.3-71.45 40.6L-8 371.25q18.65 24.7 71.35-40.65 41.55-49.05 68.7-47z"/><path id="aD" stroke="#999" stroke-linejoin="round" stroke-linecap="round" fill="none" d="M168.9 461.35l-44 93.95q-16.1-24.3-85.35-15.55-83.05 12.25-80.1-18.5l46.95-90.3q-3 30.85 80.05 18.5 63.75-8 82.45 11.9z"/><path id="aF" stroke="#999" stroke-linejoin="round" stroke-linecap="round" fill="none" d="M-11.1 540.2q10.25-27.25-37.6-78.15-58.65-60.05-32-75.75l100.65-15.05q-26.8 15.7 32 75.7 43.95 46.9 38.85 73.75l-101.9 19.5z"/><path id="aH" stroke="#999" stroke-linejoin="round" stroke-linecap="round" fill="none" d="M34.1 289.5q-15.5 26.75 65.05 50.15 61.25 19.35 69.9 45.2l-79.25 67q-4.35-28.7-70.9-49.75-80.6-23.45-65.05-50.3l80.25-62.3z"/><path id="aJ" stroke="#999" stroke-linejoin="round" stroke-linecap="round" fill="none" d="M34.7 284q-3.75 30.7 79.5 20.5 63.95-6.35 82.15 14l-46.4 92.8Q134.5 386.6 65 393.55q-83.25 10.2-79.55-20.55l49.25-89z"/><path id="aL" stroke="#999" stroke-linejoin="round" stroke-linecap="round" fill="none" d="M69.65 599.35l-101.75-19.8q19.6-21.5-5.7-86.55-32.2-77.5-1.5-82.2l98.9 23.6q-30.65 4.6 1.55 82.1 23.3 59.9 8.5 82.85z"/><path id="aN" stroke="#999" stroke-linejoin="round" stroke-linecap="round" fill="none" d="M135.9 570.1l-93.85 44.2q3.15-29-55.7-66.45-71.8-43.6-49.85-65.4l93.75-39.5q-22 21.8 49.85 65.35 54.15 34.6 55.8 61.8z"/></defs><use xlink:href="#a" transform="translate(89.05 46.25)"/><use xlink:href="#b" transform="translate(89.05 46.25)"/><use xlink:href="#c" transform="translate(89.05 46.25)"/><use xlink:href="#d" transform="translate(89.05 46.25)"/><use xlink:href="#e" transform="translate(89.05 46.25)"/><use xlink:href="#f" transform="translate(89.05 46.25)"/><use xlink:href="#g" transform="translate(89.05 46.25)"/><use xlink:href="#h" transform="translate(89.05 46.25)"/><use xlink:href="#i" transform="translate(89.05 46.25)"/><use xlink:href="#j" transform="translate(89.05 46.25)"/><use xlink:href="#k" transform="translate(89.05 46.25)"/><use xlink:href="#l" transform="translate(89.05 46.25)"/><use xlink:href="#m" transform="translate(89.05 46.25)"/><use xlink:href="#n" transform="translate(89.05 46.25)"/><use xlink:href="#o" transform="translate(89.05 46.25)"/><use xlink:href="#p" transform="translate(89.05 46.25)"/><use xlink:href="#q" transform="translate(89.05 46.25)"/><use xlink:href="#r" transform="translate(89.05 46.25)"/><use xlink:href="#s" transform="translate(89.05 46.25)"/><use xlink:href="#t" transform="translate(89.05 46.25)"/><use xlink:href="#u" transform="translate(89.05 46.25)"/><use xlink:href="#v" transform="translate(89.05 46.25)"/><use xlink:href="#w" transform="matrix(-7.94756 0 0 7.94756 894.25 6.75)"/><use xlink:href="#x" transform="matrix(-7.94756 0 0 7.94756 894.25 6.75)"/><use xlink:href="#y" transform="matrix(-7.94756 0 0 7.94756 894.25 6.75)"/><use xlink:href="#z" transform="matrix(-7.94756 0 0 7.94756 894.25 6.75)"/><use xlink:href="#A" transform="matrix(-7.94756 0 0 7.94756 894.25 6.75)"/><use xlink:href="#B" transform="matrix(-7.94756 0 0 7.94756 894.25 6.75)"/><use xlink:href="#C" transform="matrix(-7.94756 0 0 7.94756 894.25 6.75)"/><use xlink:href="#D" transform="matrix(-7.94756 0 0 7.94756 894.25 6.75)"/><use xlink:href="#E" transform="matrix(-7.94756 0 0 7.94756 894.25 6.75)"/><use xlink:href="#F" transform="matrix(-7.94756 0 0 7.94756 894.25 6.75)"/><use xlink:href="#G" transform="matrix(-7.94756 0 0 7.94756 894.25 6.75)"/><use xlink:href="#H" transform="matrix(-7.94756 0 0 7.94756 894.25 6.75)"/><use xlink:href="#I" transform="matrix(-7.94756 0 0 7.94756 894.25 6.75)"/><use xlink:href="#J" transform="matrix(-7.94756 0 0 7.94756 894.25 6.75)"/><use xlink:href="#K" transform="matrix(-7.94756 0 0 7.94756 894.25 6.75)"/><use xlink:href="#L" transform="matrix(-7.94756 0 0 7.94756 894.25 6.75)"/><use xlink:href="#M" transform="matrix(-7.94756 0 0 7.94756 894.25 6.75)"/><use xlink:href="#N" transform="matrix(-7.94756 0 0 7.94756 894.25 6.75)"/><use xlink:href="#O" transform="matrix(-7.94756 0 0 7.94756 894.25 6.75)"/><use xlink:href="#P" transform="matrix(-7.94756 0 0 7.94756 894.25 6.75)"/><use xlink:href="#Q" transform="matrix(-7.94756 0 0 7.94756 894.25 6.75)"/><use xlink:href="#R" transform="matrix(-7.94756 0 0 7.94756 894.25 6.75)"/><use xlink:href="#S" transform="matrix(-7.94756 0 0 7.94756 894.25 6.75)"/><use xlink:href="#T" transform="matrix(-7.94756 0 0 7.94756 894.25 6.75)"/><use xlink:href="#U" transform="matrix(-7.94756 0 0 7.94756 894.25 6.75)"/><use xlink:href="#V" transform="matrix(-7.94756 0 0 7.94756 894.25 6.75)"/><use xlink:href="#W" transform="matrix(-7.94756 0 0 7.94756 894.25 6.75)"/><use xlink:href="#X" transform="matrix(-7.94756 0 0 7.94756 894.25 6.75)"/><use xlink:href="#Y" transform="matrix(-7.94756 0 0 7.94756 894.25 6.75)"/><use xlink:href="#Z" transform="matrix(-7.94756 0 0 7.94756 894.25 6.75)"/><use xlink:href="#aa" transform="matrix(-7.94756 0 0 7.94756 894.25 6.75)"/><use xlink:href="#ab" transform="matrix(-7.94756 0 0 7.94756 894.25 6.75)"/><use xlink:href="#ac" transform="matrix(-7.94756 0 0 7.94756 894.25 6.75)"/><use xlink:href="#ad" transform="matrix(-7.94756 0 0 7.94756 894.25 6.75)"/><use xlink:href="#ae" transform="matrix(-7.94756 0 0 7.94756 894.25 6.75)"/><use xlink:href="#af" transform="matrix(-7.94756 0 0 7.94756 894.25 6.75)"/><use xlink:href="#ag" transform="matrix(-7.94756 0 0 7.94756 894.25 6.75)"/><use xlink:href="#ah" transform="matrix(-7.94756 0 0 7.94756 894.25 6.75)"/><use xlink:href="#ai" transform="matrix(-7.94756 0 0 7.94756 894.25 6.75)"/><use xlink:href="#aj" transform="matrix(-7.94756 0 0 7.94756 894.25 6.75)"/><use xlink:href="#ak" transform="matrix(-7.94756 0 0 7.94756 894.25 6.75)"/><g transform="matrix(-7.94756 0 0 7.94756 894.25 6.75)"><use xlink:href="#al"/><use xlink:href="#am"/></g><use xlink:href="#an" transform="matrix(-7.94756 0 0 7.94756 894.25 6.75)"/><use xlink:href="#ao" transform="matrix(-7.94756 0 0 7.94756 894.25 6.75)"/><use xlink:href="#ap" transform="matrix(-7.94756 0 0 7.94756 894.25 6.75)"/><use xlink:href="#aq" transform="matrix(-7.94756 0 0 7.94756 894.25 6.75)"/><use xlink:href="#ar" transform="matrix(-7.94756 0 0 7.94756 542.173 200.273)"/><use xlink:href="#as" transform="matrix(-7.94756 0 0 7.94756 542.173 200.273)"/><g><use xlink:href="#at" transform="scale(7.94314) rotate(-174.79 20.54 3.903)"/></g><g transform="translate(89.05 46.25)"><use xlink:href="#au"/></g><g transform="translate(89.05 46.25)"><use xlink:href="#av"/></g><g transform="translate(89.05 46.25)"><use xlink:href="#aw"/></g><g transform="translate(89.05 46.25)"><use xlink:href="#ax"/></g><g transform="translate(89.05 46.25)"><use xlink:href="#ay"/></g><g transform="translate(89.05 46.25)"><use xlink:href="#az"/></g><g transform="translate(89.05 46.25)"><use xlink:href="#aA"/><use xlink:href="#aB"/></g><g transform="translate(89.05 46.25)"><use xlink:href="#aC"/><use xlink:href="#aD"/></g><g transform="translate(89.05 46.25)"><use xlink:href="#aE"/><use xlink:href="#aF"/></g><g transform="translate(89.05 46.25)"><use xlink:href="#aG"/><use xlink:href="#aH"/></g><g transform="translate(89.05 46.25)"><use xlink:href="#aI"/><use xlink:href="#aJ"/></g><g transform="translate(89.05 46.25)"><use xlink:href="#aK"/><use xlink:href="#aL"/></g><g transform="translate(89.05 46.25)"><use xlink:href="#aM"/><use xlink:href="#aN"/></g></svg>