
<svg xmlns="http://www.w3.org/2000/svg" version="1.1" xmlns:xlink="http://www.w3.org/1999/xlink" preserveAspectRatio="none" x="0px" y="0px" width="52px" height="29px" viewBox="0 0 52 29">
<defs>
<g id="gr_chapeu_0_Layer0_0_MEMBER_0_FILL">
<path fill="#996600" stroke="none" d="
M 37.2 -1.25
Q 21.85 -7.6 0.7 -7.6 -20.65 -7.6 -36.55 -1.25 -51.9 5 -51.9 12.6 -51.9 19.8 -33.5 24.5 -16.35 28.95 6.65 28.95 26.7 28.95 40.15 23.1 51.9 18.15 51.9 12.6 51.9 4.85 37.2 -1.25 Z"/>
</g>

<g id="gr_chapeu_0_Layer0_0_MEMBER_2_MEMBER_0_FILL">
<path fill="#996600" stroke="none" d="
M -1 -28.95
Q -13.7 -28.95 -22.45 -22.55 -33.1 -14.95 -33.1 -0.3 -30.6 5.95 -19.95 10.25 -8.45 14.8 7.3 14.8 31.55 14.8 33.05 1.1 33.05 -13.55 21.6 -21.9 11.9 -28.95 -1 -28.95 Z"/>
</g>

<g id="gr_chapeu_0_Layer0_0_MEMBER_2_MEMBER_2_FILL">
<path fill="#FFFFFF" stroke="none" d="
M 2.5 -1.55
Q 4.3 -4.7 5.8 -4.85 8.55 -5.15 9.95 0.95
L 10.1 1.25 10.8 1.1 10.65 0.85
Q 9.7 -3.6 8.15 -5.25 6.9 -6.5 5.65 -6.5 3.45 -6.35 1.35 -2.5 -0.45 0.95 -0.7 4 -0.7 7.2 0.8 8.7 2.35 10.65 4.7 10.4 9.25 10.1 10.8 4
L 10.8 3.6 6.9 4.15 7.45 5.25 9.1 5
Q 7.45 8.45 4.85 8.7 3.45 8.85 2.05 7.75 0.7 6.1 0.8 3.85 0.95 1.4 2.5 -1.55 Z"/>
</g>

<g id="gr_chapeu_0_Layer0_0_MEMBER_2_MEMBER_3_FILL">
<path fill="#FFFFFF" stroke="none" d="
M 5.95 -12.9
L 6.35 -8.05 8 -13.15 5.95 -12.9 Z"/>
</g>

<g id="gr_chapeu_0_Layer0_0_MEMBER_2_MEMBER_4_FILL">
<path fill="#FFFFFF" stroke="none" d="
M 11.6 -10.8
L 10.1 -6.1 13.55 -10.1 11.6 -10.8 Z"/>
</g>

<g id="gr_chapeu_0_Layer0_0_MEMBER_2_MEMBER_5_FILL">
<path fill="#FFFFFF" stroke="none" d="
M 14.5 -5.55
L 11.2 -1.8 16.05 -4.15 14.5 -5.55 Z"/>
</g>

<g id="gr_chapeu_0_Layer0_0_MEMBER_2_MEMBER_6_FILL">
<path fill="#FFFFFF" stroke="none" d="
M 2.75 -6.8
L 0.15 -10.95 -1.65 -9.85 2.75 -6.8 Z"/>
</g>

<g id="gr_chapeu_0_Layer0_0_MEMBER_2_MEMBER_7_FILL">
<path fill="#FFFFFF" stroke="none" d="
M -4.05 -5.55
L -5.25 -3.75 0 -2.75 -4.05 -5.55 Z"/>
</g>

<g id="gr_chapeu_0_Layer0_0_MEMBER_2_MEMBER_8_FILL">
<path fill="#FFFFFF" stroke="none" d="
M -23.8 -2.5
Q -23.8 -5 -24.95 -5 -26.05 -5 -26.05 -2.5 -26.05 0.15 -24.95 0.15 -23.8 0.15 -23.8 -2.5 Z"/>
</g>

<g id="gr_chapeu_0_Layer0_0_MEMBER_2_MEMBER_9_FILL">
<path fill="#FFFFFF" stroke="none" d="
M -5.85 -23.95
Q -5.85 -21.75 -0.45 -21.75 4.95 -21.75 4.95 -23.95 4.95 -26.15 -0.45 -26.15 -5.85 -26.15 -5.85 -23.95 Z"/>
</g>

<g id="gr_chapeu_0_Layer0_0_MEMBER_2_MEMBER_10_FILL">
<path fill="#FFFFFF" stroke="none" d="
M -29.65 -4.55
Q -29.65 -2.2 -28.55 -2.2 -27.3 -2.2 -27.3 -4.55 -27.3 -6.95 -28.55 -6.95 -29.65 -6.95 -29.65 -4.55 Z"/>
</g>

<path id="gr_chapeu_0_Layer0_0_MEMBER_1_1_STROKES" stroke="#FFFFFF" stroke-width="1" stroke-linejoin="round" stroke-linecap="round" fill="none" d="
M -51.9 12.6
Q -51.9 19.8 -33.5 24.5 -16.35 28.95 6.65 28.95 26.7 28.95 40.15 23.1 51.9 18.15 51.9 12.6 51.9 4.85 37.2 -1.25 21.85 -7.6 0.7 -7.6 -20.65 -7.6 -36.55 -1.25 -51.9 5 -51.9 12.6 Z"/>

<path id="gr_chapeu_0_Layer0_0_MEMBER_2_MEMBER_1_1_STROKES" stroke="#FFFFFF" stroke-width="1" stroke-linejoin="round" stroke-linecap="round" fill="none" d="
M -33.1 -0.3
Q -30.6 5.95 -19.95 10.25 -8.45 14.8 7.3 14.8 31.55 14.8 33.05 1.1 33.05 -13.55 21.6 -21.9 11.9 -28.95 -1 -28.95 -13.7 -28.95 -22.45 -22.55 -33.1 -14.95 -33.1 -0.3 Z"/>
</defs>

<g id="mc_04" transform="matrix( 1, 0, 0, 1, 26,14.5) ">
<g id="botao" transform="matrix( 1, 0, 0, 1, 0,-0.05) ">
<g transform="matrix( 0.5, 0, 0, 0.5, -0.05,0.05) ">
<g transform="matrix( 1, 0, 0, 1, 0,0) ">
<use xlink:href="#gr_chapeu_0_Layer0_0_MEMBER_0_FILL"/>
</g>

<g transform="matrix( 1, 0, 0, 1, 0,0) ">
<use xlink:href="#gr_chapeu_0_Layer0_0_MEMBER_1_1_STROKES"/>
</g>

<g transform="matrix( 1, 0, 0, 1, 0,0) ">
<use xlink:href="#gr_chapeu_0_Layer0_0_MEMBER_2_MEMBER_0_FILL"/>
</g>

<g transform="matrix( 1, 0, 0, 1, 0,0) ">
<use xlink:href="#gr_chapeu_0_Layer0_0_MEMBER_2_MEMBER_1_1_STROKES"/>
</g>

<g transform="matrix( 1, 0, 0, 1, 0,0) ">
<use xlink:href="#gr_chapeu_0_Layer0_0_MEMBER_2_MEMBER_2_FILL"/>
</g>

<g transform="matrix( 1, 0, 0, 1, 0,0) ">
<use xlink:href="#gr_chapeu_0_Layer0_0_MEMBER_2_MEMBER_3_FILL"/>
</g>

<g transform="matrix( 1, 0, 0, 1, 0,0) ">
<use xlink:href="#gr_chapeu_0_Layer0_0_MEMBER_2_MEMBER_4_FILL"/>
</g>

<g transform="matrix( 1, 0, 0, 1, 0,0) ">
<use xlink:href="#gr_chapeu_0_Layer0_0_MEMBER_2_MEMBER_5_FILL"/>
</g>

<g transform="matrix( 1, 0, 0, 1, 0,0) ">
<use xlink:href="#gr_chapeu_0_Layer0_0_MEMBER_2_MEMBER_6_FILL"/>
</g>

<g transform="matrix( 1, 0, 0, 1, 0,0) ">
<use xlink:href="#gr_chapeu_0_Layer0_0_MEMBER_2_MEMBER_7_FILL"/>
</g>

<g transform="matrix( 1, 0, 0, 1, 0,0) ">
<use xlink:href="#gr_chapeu_0_Layer0_0_MEMBER_2_MEMBER_8_FILL"/>
</g>

<g transform="matrix( 1, 0, 0, 1, 0,0) ">
<use xlink:href="#gr_chapeu_0_Layer0_0_MEMBER_2_MEMBER_9_FILL"/>
</g>

<g transform="matrix( 1, 0, 0, 1, 0,0) ">
<use xlink:href="#gr_chapeu_0_Layer0_0_MEMBER_2_MEMBER_10_FILL"/>
</g>
</g>
</g>
</g>
</svg>
