<svg xmlns="http://www.w3.org/2000/svg" xmlns:xlink="http://www.w3.org/1999/xlink" preserveAspectRatio="none" width="244" height="295" viewBox="0 0 244 295"><defs><linearGradient id="a" gradientUnits="userSpaceOnUse" x1="-326.063" y1="252.35" x2="-234.938" y2="252.35"><stop offset=".392%" stop-color="#FFF"/><stop offset="92.941%" stop-color="#9A9A9A"/></linearGradient><linearGradient id="b" gradientUnits="userSpaceOnUse" x1="-120.137" y1="248.65" x2="-211.262" y2="248.65"><stop offset=".392%" stop-color="#FFF"/><stop offset="92.941%" stop-color="#9A9A9A"/></linearGradient><linearGradient id="c" gradientUnits="userSpaceOnUse" x1="-143.425" y1="127.75" x2="-301.575" y2="127.75"><stop offset="29.804%" stop-color="#F0F0F0"/><stop offset="100%" stop-color="#8E8E8E"/></linearGradient><linearGradient id="d" gradientUnits="userSpaceOnUse" x1="-143.425" y1="127.75" x2="-301.575" y2="127.75"><stop offset="29.804%" stop-color="#FAFAFA"/><stop offset="100%" stop-color="#959595"/></linearGradient><linearGradient id="e" gradientUnits="userSpaceOnUse" x1="-341.8" y1="189.35" x2="-279.2" y2="126.75"><stop offset=".392%" stop-color="#FFF"/><stop offset="92.941%" stop-color="#9A9A9A"/></linearGradient><linearGradient id="f" gradientUnits="userSpaceOnUse" x1="-143.425" y1="127.75" x2="-301.575" y2="127.75"><stop offset="29.804%" stop-color="#FFF"/><stop offset="100%" stop-color="#9A9A9A"/></linearGradient><linearGradient id="g" gradientUnits="userSpaceOnUse" x1="-273.688" y1="48.85" x2="-173.813" y2="48.85"><stop offset="0%" stop-color="#959595"/><stop offset="63.137%" stop-color="#CBCBCB"/></linearGradient><linearGradient id="h" gradientUnits="userSpaceOnUse" x1="-273.425" y1="26.25" x2="-178.175" y2="20.45"><stop offset="0%"/><stop offset="49.02%" stop-color="#0D0057"/><stop offset="97.647%" stop-color="#140087"/></linearGradient><linearGradient id="i" gradientUnits="userSpaceOnUse" x1="-103.1" y1="189.35" x2="-165.7" y2="126.75"><stop offset=".392%" stop-color="#FFF"/><stop offset="92.941%" stop-color="#9A9A9A"/></linearGradient><linearGradient id="j" gradientUnits="userSpaceOnUse" x1="-332.688" y1="5.775" x2="-121.512" y2="-7.075"><stop offset="0%"/><stop offset="49.02%" stop-color="#09003C"/><stop offset="100%" stop-color="#0F006B"/></linearGradient><path fill="#B3B3B3" d="M.35 95.6q-.3 1.55-.35 3.3V100.75l.1 1.5q.15 2.05.65 3.9.25.8.5 1.55 1.65 4.65 5.45 8.5.5.5 1 .95l-.4.65q.25.25.55.45 5.95 4.65 13.95 4.65 9.5 0 16.25-6.7 6.4-6.4 6.75-15.35v-.95q0-9.55-6.75-16.25-3.45-3.4-7.55-5.05l.2-.4q-2.9-1.05-6.15-1.2-.2-.05-.35-.05-.6-.05-1.2-.05t-1.2.05q-1.15.05-2.2.2-.9.1-1.8.3Q13 78.5 9.05 81.6q-1.2.9-2.35 2.05Q1.55 88.8.35 95.6M99.7 84.65q-6.3-6.3-15.05-6.7-.6-.05-1.2-.05t-1.2.05q-1.1.05-2.2.15-.9.15-1.75.35-6.3 1.4-11.1 6.2-5.2 5.15-6.4 11.9-.25 1.65-.35 3.35v1.9q.05.75.1 1.45.15 2 .7 3.9 1.5 5.6 5.95 10 6.7 6.75 16.25 6.75 9.5 0 16.25-6.75 6.4-6.4 6.75-15.3v-.95q0-9.5-6.75-16.25z" id="k"/><g id="l"><path fill="url(#a)" d="M-235 254.05q.05-.85.05-1.7 0-4.1-1.1-7.85-10-1.3-20.2-4.6-10.8-4.9-20.65-13.4-4.25-3.65-7.75-8.2-16.25.95-28.1 9.85-13.35 10.05-13.35 24.2 0 .95.1 1.95 49.65 13.4 91-.25z"/><path fill="url(#b)" d="M-168.55 225.95q-10.9 8.9-23 13.95-9.6 3.3-19.4 4.6-.3 2.05-.3 4.15 0 .85.05 1.7 41.35 13.65 91 .25.1-1 .1-1.95 0-14.15-13.35-24.2-10.7-8-24.95-9.6-4.45 6.45-10.15 11.1z"/><path fill="#CCC" d="M-320.55 194.15l4.8-6.2h-14.45l-2.1 4.45 11.75 1.75m17.05-13.95l-3.35 16.65 5.6-3.4 1.75-12.95-.5-3.2-24-29.35q-5.1 3.3-10.15.2 15.95 10.25 30.65 32.05m174.35 7.75l4.8 6.2 11.75-1.75-2.1-4.45h-14.45m-16.4-8.65l1.9 14.15 5.6 3.4-3.35-16.65q14.7-21.8 30.65-32.05-5.05 3.1-10.15-.2l-24.4 29.85q-.15.75-.25 1.5z"/><path fill="url(#c)" d="M-301.55 157.8q.25 10.4 1.55 19.5l.5 3.2q1.75 10.65 5 19.4 3.9 10.55 9.85 18.4 3.5 4.55 7.75 8.2 9.85 8.5 20.65 13.4 10.2 3.3 20.2 4.6 12.7 1.6 25.1 0 9.8-1.3 19.4-4.6 12.1-5.05 23-13.95 5.7-4.65 10.15-11.1 3.45-5.1 6.1-11.3-2.15.85-4.3 1.65-109.95 40.5-144.95-47.4z"/><path fill="url(#d)" d="M-300.95 135.55q-.05.7-.15 1.4-.05.6-.05 1.25-.55 7.55-.45 15.3 0 2.15.05 4.3 35 87.9 144.95 47.4 2.15-.8 4.3-1.65.1-.15.15-.25 3.4-8.1 5.5-18.05-118.05 47.05-153.5-47.5l-.3-.8-.5-1.4z"/><path fill="url(#e)" d="M-324 147.95l22.85-9.75q0-.65.05-1.25.1-.7.15-1.4.55-7.05 1.65-14 .45-2.95 1-5.9-26.5 10.25-45.7 31.65 15.25 21.2 33.1 34.45l-4.85 6.2-4.8 6.2-11.75-1.75-2.05 4.45 19.3 4.85 8.2-4.85 3.35-16.65q-14.7-21.8-30.65-32.05 5.05 3.1 10.15-.2z"/><path d="M-295.3 92.9l2.55.45L-277.2 96q.4-3.85 1.75-7.25l-12.9-7.95-6.95-4.3v16.4m118.6-24.5q1.45.35 2.9.75Q-186.95 57.5-201 58.7v7.55q.3-.05.6-.05 11.2-.85 23.7 2.2m-63.55-1.8v-7.55Q-254.3 57.9-267.4 69.5q2.05-.55 4.05-1 12.15-2.85 23.1-1.9m85.4 14.3V65.75l-4.75 7.4-6.75 10.45q1.65 2.15 2.8 4.55l7.55-6.25 1.15-1M-228.8-28.9l-.3-4.7L-333 1.1l.3 4.7 103.9-34.7z"/><path fill="#006" d="M-170.15 81.3q-.45-.5-.95-1-7.85-7.85-18.8-8.15-10.95.3-18.8 8.15-8.2 8.2-8.2 19.75v.05q-.95-.05-1.9-.05-.45-.05-.85 0-.9 0-1.8.15-.1 3.05-.7 5.85h5.85q1.6 7.8 7.6 13.75 2.15 2.15 4.55 3.75 6.3 4.2 14.25 4.45 7.95-.25 14.25-4.45 2.4-1.6 4.55-3.75 8.2-8.15 8.2-19.75 0-8.45-4.35-15.1-1.3-1.9-2.9-3.65m-41.4 14.35q1.2-6.75 6.4-11.9 4.8-4.8 11.1-6.2.85-.2 1.75-.35 1.1-.1 2.2-.15.6-.05 1.2-.05t1.2.05q8.75.4 15.05 6.7 6.75 6.75 6.75 16.25v.95q-.35 8.9-6.75 15.3-6.75 6.75-16.25 6.75-9.55 0-16.25-6.75-4.45-4.4-5.95-10-.55-1.9-.7-3.9-.05-.7-.1-1.45v-.15-.75-1q.1-1.7.35-3.35m-20.6-16q-1.85-1.85-3.9-3.3-1.85-1.3-3.85-2.25-4.45-2.15-9.65-2.55-.35-.044-.7-.05h.85q.9 0 1.8.05 10.45.6 17.95 8.1 5.35 5.35 7.25 12.1-1.8-6.95-7.25-12.45-6.4-6.35-14.8-7.75-2.4-.4-4.95-.4-.5 0-.95.05-2 .05-3.85.35-4.9.75-9.1 3.2-3.15 1.8-5.9 4.55-4.2 4.25-6.25 9.45-1.35 3.4-1.75 7.25-.15 1.5-.15 3.1 0 .45.05.95.15 6.15 2.75 11.35 1.95 4 5.35 7.45 1.4 1.35 2.85 2.5 1.45 1.15 3.05 2.1.1.05.25.1 5.7 3.25 12.7 3.45h.95q1.45 0 2.9-.1 4.75-.85 8.85-3.35 2.9-1.8 5.5-4.4 8.2-8.15 8.2-19.7 0-11.6-8.2-19.8m-9.5-2.35q4.7 1.65 8.55 5.45 6.75 6.7 6.75 16.25v.95q-.35 8.95-6.75 15.35-6.75 6.7-16.25 6.7h-1.2q-8 0-13.95-4.65-.3-.2-.55-.45l.35-.7q-.475-.425-.95-.9-3.8-3.85-5.45-8.5-.25-.75-.5-1.55-.5-1.85-.65-3.9l-.1-1.5v-.2V99v-1q.05-1.75.35-3.3 1.2-6.8 6.35-11.95 1.15-1.15 2.35-2.05 3.95-3.1 8.75-4.15.9-.2 1.8-.3 1.05-.15 2.2-.2.6-.05 1.2-.05t1.2.05q.15 0 .35.05 3.25.15 6.15 1.2z"/><path fill="#FFF" fill-opacity=".322" d="M-172.65 83.75q-6.3-6.3-15.05-6.7l-23.4 29.2q1.5 5.6 5.95 10 6.7 6.75 16.25 6.75 9.5 0 16.25-6.75 6.4-6.4 6.75-15.3V100q0-9.5-6.75-16.25m-17.45-6.7q-1.1.05-2.2.15L-211.9 99v1.9q.05.75.1 1.45l21.7-25.3m-15.05 6.7q-5.2 5.15-6.4 11.9l17.5-18.1q-6.3 1.4-11.1 6.2m-45.4-7.7q-1.15.05-2.2.2L-272.35 98V99.85l.1 1.5q.15 2.05.65 3.9.25.8.5 1.55l23.3-30.7q-.2-.05-.35-.05-.6-.05-1.2-.05t-1.2.05m-15.1 6.7Q-270.8 87.9-272 94.7l17.45-18.15q-4.8 1.05-8.75 4.15-1.2.9-2.35 2.05m31.35 0q-3.44-3.396-7.55-5.1l-1-.35-21.85 38.9-.35.7q.25.25.55.45 5.95 4.65 13.95 4.65h.6q9.114-.213 15.65-6.7 6.4-6.4 6.75-15.35V99q0-9.55-6.75-16.25z"/><path fill="#FFF" d="M-192.3 77.2q-.9.15-1.75.35l-17.5 18.1q-.25 1.65-.35 3.35l19.6-21.8m3.4-.2q-.6 0-1.2.05l-21.7 25.3q.15 2 .7 3.9l23.4-29.2q-.6-.05-1.2-.05M-272 94.7q-.3 1.55-.35 3.3l19.6-21.75q-.9.1-1.8.3L-272 94.7m29.15-17.4l1 .35.2-.35q-2.9-1.05-6.15-1.2l-23.3 30.7q1.65 4.65 5.45 8.5.475.475.95.9l21.85-38.9z"/><path fill="#00009A" d="M-188.95 72.15h-.95q10.95.3 18.8 8.15.5.5.95 1 1.6 1.75 2.9 3.65l.9-1.35q-1.25-1.75-2.85-3.3-8.2-8.15-19.75-8.15m-47.1 4.2q2.05 1.45 3.9 3.3 8.2 8.2 8.2 19.8 0 11.55-8.2 19.7-2.6 2.6-5.5 4.4-4.1 2.5-8.85 3.35 5.85-.55 10.75-3.35 3.25-1.85 6.1-4.7 5.6-5.6 7.35-12.8h.15q.6-2.8.7-5.85v-.5-.6-1.3q-.1-.7-.1-1.3-.25-2.45-.85-4.75-1.9-6.75-7.25-12.1-7.5-7.5-17.95-8.1-.9-.05-1.8-.05h-.85q.35.006.7.05 5.2.4 9.65 2.55 2 .95 3.85 2.25M-161 101v-.95q0-4.8-1.4-9-.5-1.5-1.15-2.9-1.15-2.4-2.8-4.55l-.9 1.35q4.35 6.65 4.35 15.1 0 11.6-8.2 19.75-2.15 2.15-4.55 3.75-6.3 4.2-14.25 4.45h.95q8.5 0 15.2-4.45 2.4-1.6 4.55-3.75 4.8-4.75 6.8-10.75 1.25-3.8 1.4-8.05z"/><path fill="url(#f)" d="M-221.55 96.5q0 .6.1 1.3v2.4q.9-.15 1.8-.15.4-.05.85 0 .95 0 1.9.05v-.05q0-11.55 8.2-19.75 7.85-7.85 18.8-8.15h.95q11.55 0 19.75 8.15 1.6 1.55 2.85 3.3l6.75-10.45q-4.05-9.3-9.1-18.35-2.5-4.55-5.05-8.6-18.9 8.1-46.85 9.45-25.55 3.35-53.05-5-1.5 2.55-3 5.25-6.8 12.2-11.7 24.9l12.9 7.95q2.05-5.2 6.25-9.45 2.75-2.75 5.9-4.55 4.2-2.45 9.1-3.2 1.85-.3 3.85-.35.45-.05.95-.05 2.55 0 4.95.4 8.4 1.4 14.8 7.75 5.45 5.5 7.25 12.45.6 2.3.85 4.75m-18.7-37.45v9.8q-12.75-1.1-27.2 2.9 2.05-1.8 4.1-3.25-2 .45-4.05 1 13.1-11.6 27.15-10.45m63.55 9.35q1.75 1.3 3.5 2.85-14.45-4-27.2-2.9V66.2q-.3 0-.6.05V58.7q14.05-1.2 27.2 10.45-1.45-.4-2.9-.75m-.35-27.3q-.05.05-.1.05l2.95 4.35q-.05-.15-.15-.25-1.35-2.15-2.7-4.15m33.05 94.65q-.75-10.15-2.55-20.1-3.15-17.2-9.45-33.75l-7.55 6.25q.65 1.4 1.15 2.9 1.4 4.2 1.4 9v1.9q0 4.8-1.4 9-2 5.95-6.8 10.75-1 1-2 1.85-7.6 6.35-17.75 6.35h-.95q-9.6-.3-16.75-6.35-1.05-.85-2.05-1.85-6-5.95-7.6-13.75h-6q-1.75 7.15-7.35 12.75-1.55 1.6-3.25 2.85-6 4.55-13.6 5.25-1.45.1-2.9.1h-.95q-9.1-.25-16-5.7-1.45-1.1-2.85-2.5-3.4-3.4-5.35-7.4-2.8-5.6-2.8-12.3 0-.5.05-.95-.05-.5-.05-.95 0-1.6.15-3.1l-15.55-2.65q-3.45 10.95-5.55 22.3-.55 2.95-1 5.9-1.1 6.95-1.65 14l.5 1.4.3.8q35.45 94.55 153.5 47.5.6-2.9 1.1-5.95.1-.75.25-1.5.4-2.9.75-5.95.35-3.05.55-6.3v-29.8m-36.1 3.65q-37.05 27.45-74.8-5.85 37.9 23.1 74.8 5.85z"/><path fill="#999" d="M-173.2 71.25q-1.75-1.55-3.5-2.85-12.5-3.05-23.7-2.2v2.15q12.75-1.1 27.2 2.9m-67.05-2.4V66.6q-10.95-.95-23.1 1.9-2.05 1.45-4.1 3.25 14.45-4 27.2-2.9m79.25 33.1V101q-.15 4.25-1.4 8.05-2 6-6.8 10.75-2.15 2.15-4.55 3.75-6.7 4.45-15.2 4.45h-.95q-7.95-.25-14.25-4.45-2.4-1.6-4.55-3.75-6-5.95-7.6-13.75h-6q-1.75 7.2-7.35 12.8-2.85 2.85-6.1 4.7-4.9 2.8-10.75 3.35-1.45.1-2.9.1h-.95q-7-.2-12.7-3.45-.15-.05-.25-.1-1.6-.95-3.05-2.1-1.45-1.15-2.85-2.5-3.4-3.45-5.35-7.45-2.6-5.2-2.75-11.35-.05.45-.05.95 0 6.7 2.8 12.3 1.95 4 5.35 7.4 1.4 1.4 2.85 2.5 6.9 5.45 16 5.7h.95q1.45 0 2.9-.1 7.6-.7 13.6-5.25 1.7-1.25 3.25-2.85 5.6-5.6 7.35-12.75h6q1.6 7.8 7.6 13.75 1 1 2.05 1.85 7.15 6.05 16.75 6.35h.95q10.15 0 17.75-6.35 1-.85 2-1.85 4.8-4.8 6.8-10.75 1.4-4.2 1.4-9m-93.9 31.6q37.75 33.3 74.8 5.85-36.9 17.25-74.8-5.85z"/><path fill="url(#g)" d="M-174.2 45.5l-2.95-4.35Q-219.7 55.7-271.4 47q-.15-.05-.3-.05l-1.95 3.7q27.5 8.35 53.05 5 27.95-1.35 46.85-9.45v-.05l-.45-.65z"/><path fill="url(#h)" d="M-176.9 41.05L-178.7 12l-.85-13.95q-48.95-15.35-95.2 5.8l.85 13.9 1.75 29.1q.25 0 .45.1.15 0 .3.05 51.7 8.7 94.25-5.85.05 0 .1-.05.05 0 .15-.05z"/><path fill="url(#i)" d="M-146.55 115.65q1.8 9.95 2.55 20.1v2.3l23.1 9.9q5.1 3.3 10.15.2-15.95 10.25-30.65 32.05l3.35 16.65 8.2 4.85 19.3-4.85-2.05-4.45-11.75 1.75-4.8-6.2-4.85-6.2q17.85-13.25 33.1-34.45-19.2-21.35-45.65-31.65z"/><path fill="url(#j)" d="M-121.5-7.05L-228.8-28.9-332.7 5.8l58.8 11.95-.85-13.9q46.25-21.15 95.2-5.8l.85 13.95 57.2-19.05z"/><path fill="#140087" d="M-229.1-33.6l.3 4.7 107.3 21.85-.3-4.7-107.3-21.85z"/></g><path id="m" stroke="#000" stroke-linejoin="round" stroke-linecap="round" fill="none" d="M-159.6 73.15l4.75-7.4V80.9l-1.15 1m-136.75 11.45l-2.55-.45V76.5l6.95 4.3M-277.2 96l-15.55-2.65m126.4-9.75l6.75-10.45m3.6 8.75l-7.55 6.25m-3.7-3.2l.9-1.35m-122-2.8l12.9 7.95"/></defs><use xlink:href="#k" transform="translate(71.5 32.45)"/><g transform="translate(344 33.6)"><use xlink:href="#l"/><use xlink:href="#m"/></g></svg>