
<svg xmlns="http://www.w3.org/2000/svg" version="1.1" xmlns:xlink="http://www.w3.org/1999/xlink" preserveAspectRatio="none" x="0px" y="0px" width="244px" height="295px" viewBox="0 0 244 295">
<defs>
<linearGradient id="Gradient_1" gradientUnits="userSpaceOnUse" x1="-326.0625" y1="252.35" x2="-234.9375" y2="252.35" spreadMethod="pad">
<stop  offset="0.39215686274509803%" stop-color="#FFFFFF"/>

<stop  offset="92.94117647058823%" stop-color="#9A9A9A"/>
</linearGradient>

<linearGradient id="Gradient_2" gradientUnits="userSpaceOnUse" x1="-120.13749999999999" y1="248.65" x2="-211.2625" y2="248.65" spreadMethod="pad">
<stop  offset="0.39215686274509803%" stop-color="#FFFFFF"/>

<stop  offset="92.94117647058823%" stop-color="#9A9A9A"/>
</linearGradient>

<linearGradient id="Gradient_3" gradientUnits="userSpaceOnUse" x1="-143.425" y1="127.75" x2="-301.575" y2="127.75" spreadMethod="pad">
<stop  offset="29.80392156862745%" stop-color="#F0F0F0"/>

<stop  offset="100%" stop-color="#8E8E8E"/>
</linearGradient>

<linearGradient id="Gradient_4" gradientUnits="userSpaceOnUse" x1="-143.425" y1="127.75" x2="-301.575" y2="127.75" spreadMethod="pad">
<stop  offset="29.80392156862745%" stop-color="#FAFAFA"/>

<stop  offset="100%" stop-color="#959595"/>
</linearGradient>

<linearGradient id="Gradient_5" gradientUnits="userSpaceOnUse" x1="-341.8" y1="189.35000000000002" x2="-279.2" y2="126.75000000000001" spreadMethod="pad">
<stop  offset="0.39215686274509803%" stop-color="#FFFFFF"/>

<stop  offset="92.94117647058823%" stop-color="#9A9A9A"/>
</linearGradient>

<linearGradient id="Gradient_6" gradientUnits="userSpaceOnUse" x1="-143.425" y1="127.75" x2="-301.575" y2="127.75" spreadMethod="pad">
<stop  offset="29.80392156862745%" stop-color="#FFFFFF"/>

<stop  offset="100%" stop-color="#9A9A9A"/>
</linearGradient>

<linearGradient id="Gradient_7" gradientUnits="userSpaceOnUse" x1="-273.6875" y1="48.85" x2="-173.8125" y2="48.85" spreadMethod="pad">
<stop  offset="0%" stop-color="#959595"/>

<stop  offset="63.13725490196079%" stop-color="#CBCBCB"/>
</linearGradient>

<linearGradient id="Gradient_8" gradientUnits="userSpaceOnUse" x1="-273.425" y1="26.25" x2="-178.175" y2="20.450000000000003" spreadMethod="pad">
<stop  offset="0%" stop-color="#000000"/>

<stop  offset="49.01960784313726%" stop-color="#0D0057"/>

<stop  offset="97.6470588235294%" stop-color="#140087"/>
</linearGradient>

<linearGradient id="Gradient_9" gradientUnits="userSpaceOnUse" x1="-103.10000000000001" y1="189.35000000000002" x2="-165.70000000000002" y2="126.75000000000001" spreadMethod="pad">
<stop  offset="0.39215686274509803%" stop-color="#FFFFFF"/>

<stop  offset="92.94117647058823%" stop-color="#9A9A9A"/>
</linearGradient>

<linearGradient id="Gradient_10" gradientUnits="userSpaceOnUse" x1="-332.6875" y1="5.775" x2="-121.51249999999999" y2="-7.075000000000001" spreadMethod="pad">
<stop  offset="0%" stop-color="#000000"/>

<stop  offset="49.01960784313726%" stop-color="#09003C"/>

<stop  offset="100%" stop-color="#0F006B"/>
</linearGradient>

<g id="Layer0_0_MEMBER_0_FILL">
<path fill="#B3B3B3" stroke="none" d="
M 0.35 95.6
Q 0.05 97.15 0 98.9 0 99.4 0 99.9 0 100.2 0 100.55
L 0 100.75
Q 0.05 101.5 0.1 102.25 0.25 104.3 0.75 106.15 1 106.95 1.25 107.7 2.9 112.35 6.7 116.2 7.2 116.7 7.7 117.15
L 7.3 117.8
Q 7.55 118.05 7.85 118.25 13.8 122.9 21.8 122.9 31.3 122.9 38.05 116.2 44.45 109.8 44.8 100.85 44.8 100.4 44.8 99.9 44.8 90.35 38.05 83.65 34.6 80.25 30.5 78.6
L 30.7 78.2
Q 27.8 77.15 24.55 77 24.35 76.95 24.2 76.95 23.6 76.9 23 76.9 22.4 76.9 21.8 76.95 20.65 77 19.6 77.15 18.7 77.25 17.8 77.45 13 78.5 9.05 81.6 7.85 82.5 6.7 83.65 1.55 88.8 0.35 95.6
M 99.7 84.65
Q 93.4 78.35 84.65 77.95 84.05 77.9 83.45 77.9 82.85 77.9 82.25 77.95 81.15 78 80.05 78.1 79.15 78.25 78.3 78.45 72 79.85 67.2 84.65 62 89.8 60.8 96.55 60.55 98.2 60.45 99.9 60.45 100.4 60.45 100.9 60.45 101.25 60.45 101.65 60.45 101.7 60.45 101.8 60.5 102.55 60.55 103.25 60.7 105.25 61.25 107.15 62.75 112.75 67.2 117.15 73.9 123.9 83.45 123.9 92.95 123.9 99.7 117.15 106.1 110.75 106.45 101.85 106.45 101.4 106.45 100.9 106.45 91.4 99.7 84.65 Z"/>
</g>

<g id="Layer0_0_MEMBER_1_FILL">
<path fill="url(#Gradient_1)" stroke="none" d="
M -235 254.05
Q -234.95 253.2 -234.95 252.35 -234.95 248.25 -236.05 244.5 -246.05 243.2 -256.25 239.9 -267.05 235 -276.9 226.5 -281.15 222.85 -284.65 218.3 -300.9 219.25 -312.75 228.15 -326.1 238.2 -326.1 252.35 -326.1 253.3 -326 254.3 -276.35 267.7 -235 254.05 Z"/>

<path fill="url(#Gradient_2)" stroke="none" d="
M -168.55 225.95
Q -179.45 234.85 -191.55 239.9 -201.15 243.2 -210.95 244.5 -211.25 246.55 -211.25 248.65 -211.25 249.5 -211.2 250.35 -169.85 264 -120.2 250.6 -120.1 249.6 -120.1 248.65 -120.1 234.5 -133.45 224.45 -144.15 216.45 -158.4 214.85 -162.85 221.3 -168.55 225.95 Z"/>

<path fill="#CCCCCC" stroke="none" d="
M -320.55 194.15
L -315.75 187.95 -330.2 187.95 -332.3 192.4 -320.55 194.15
M -303.5 180.2
L -306.85 196.85 -301.25 193.45 -299.5 180.5
Q -299.75 178.9 -300 177.3
L -324 147.95
Q -329.1 151.25 -334.15 148.15 -318.2 158.4 -303.5 180.2
M -129.15 187.95
L -124.35 194.15 -112.6 192.4 -114.7 187.95 -129.15 187.95
M -145.55 179.3
L -143.65 193.45 -138.05 196.85 -141.4 180.2
Q -126.7 158.4 -110.75 148.15 -115.8 151.25 -120.9 147.95
L -145.3 177.8
Q -145.45 178.55 -145.55 179.3 Z"/>

<path fill="url(#Gradient_3)" stroke="none" d="
M -301.55 157.8
Q -301.3 168.2 -300 177.3 -299.75 178.9 -299.5 180.5 -297.75 191.15 -294.5 199.9 -290.6 210.45 -284.65 218.3 -281.15 222.85 -276.9 226.5 -267.05 235 -256.25 239.9 -246.05 243.2 -236.05 244.5 -223.35 246.1 -210.95 244.5 -201.15 243.2 -191.55 239.9 -179.45 234.85 -168.55 225.95 -162.85 221.3 -158.4 214.85 -154.95 209.75 -152.3 203.55 -154.45 204.4 -156.6 205.2 -266.55 245.7 -301.55 157.8 Z"/>

<path fill="url(#Gradient_4)" stroke="none" d="
M -300.95 135.55
Q -301 136.25 -301.1 136.95 -301.15 137.55 -301.15 138.2 -301.7 145.75 -301.6 153.5 -301.6 155.65 -301.55 157.8 -266.55 245.7 -156.6 205.2 -154.45 204.4 -152.3 203.55 -152.2 203.4 -152.15 203.3 -148.75 195.2 -146.65 185.25 -264.7 232.3 -300.15 137.75 -300.3 137.35 -300.45 136.95 -300.7 136.25 -300.95 135.55 Z"/>

<path fill="url(#Gradient_5)" stroke="none" d="
M -324 147.95
L -301.15 138.2
Q -301.15 137.55 -301.1 136.95 -301 136.25 -300.95 135.55 -300.4 128.5 -299.3 121.55 -298.85 118.6 -298.3 115.65 -324.8 125.9 -344 147.3 -328.75 168.5 -310.9 181.75
L -315.75 187.95 -320.55 194.15 -332.3 192.4 -334.35 196.85 -315.05 201.7 -306.85 196.85 -303.5 180.2
Q -318.2 158.4 -334.15 148.15 -329.1 151.25 -324 147.95 Z"/>

<path fill="#000000" stroke="none" d="
M -295.3 92.9
L -292.75 93.35 -277.2 96
Q -276.8 92.15 -275.45 88.75
L -288.35 80.8 -295.3 76.5 -295.3 92.9
M -176.7 68.4
Q -175.25 68.75 -173.8 69.15 -186.95 57.5 -201 58.7
L -201 66.25
Q -200.7 66.2 -200.4 66.2 -189.2 65.35 -176.7 68.4
M -240.25 66.6
L -240.25 59.05
Q -254.3 57.9 -267.4 69.5 -265.35 68.95 -263.35 68.5 -251.2 65.65 -240.25 66.6
M -154.85 80.9
L -154.85 65.75 -159.6 73.15 -166.35 83.6
Q -164.7 85.75 -163.55 88.15
L -156 81.9 -154.85 80.9
M -228.8 -28.9
L -229.1 -33.6 -333 1.1 -332.7 5.8 -228.8 -28.9 Z"/>

<path fill="#000066" stroke="none" d="
M -170.15 81.3
Q -170.6 80.8 -171.1 80.3 -178.95 72.45 -189.9 72.15 -200.85 72.45 -208.7 80.3 -216.9 88.5 -216.9 100.05
L -216.9 100.1
Q -217.85 100.05 -218.8 100.05 -219.25 100 -219.65 100.05 -220.55 100.05 -221.45 100.2 -221.55 103.25 -222.15 106.05
L -216.3 106.05
Q -214.7 113.85 -208.7 119.8 -206.55 121.95 -204.15 123.55 -197.85 127.75 -189.9 128 -181.95 127.75 -175.65 123.55 -173.25 121.95 -171.1 119.8 -162.9 111.65 -162.9 100.05 -162.9 91.6 -167.25 84.95 -168.55 83.05 -170.15 81.3
M -211.55 95.65
Q -210.35 88.9 -205.15 83.75 -200.35 78.95 -194.05 77.55 -193.2 77.35 -192.3 77.2 -191.2 77.1 -190.1 77.05 -189.5 77 -188.9 77 -188.3 77 -187.7 77.05 -178.95 77.45 -172.65 83.75 -165.9 90.5 -165.9 100 -165.9 100.5 -165.9 100.95 -166.25 109.85 -172.65 116.25 -179.4 123 -188.9 123 -198.45 123 -205.15 116.25 -209.6 111.85 -211.1 106.25 -211.65 104.35 -211.8 102.35 -211.85 101.65 -211.9 100.9 -211.9 100.8 -211.9 100.75 -211.9 100.35 -211.9 100 -211.9 99.5 -211.9 99 -211.8 97.3 -211.55 95.65
M -232.15 79.65
Q -234 77.8 -236.05 76.35 -237.9 75.05 -239.9 74.1 -244.35 71.95 -249.55 71.55 -249.9 71.50625 -250.25 71.5 -249.8447265625 71.5 -249.4 71.5 -248.5 71.5 -247.6 71.55 -237.15 72.15 -229.65 79.65 -224.3 85 -222.4 91.75 -224.2 84.8 -229.65 79.3 -236.05 72.95 -244.45 71.55 -246.85 71.15 -249.4 71.15 -249.9 71.15 -250.35 71.2 -252.35 71.25 -254.2 71.55 -259.1 72.3 -263.3 74.75 -266.45 76.55 -269.2 79.3 -273.4 83.55 -275.45 88.75 -276.8 92.15 -277.2 96 -277.35 97.5 -277.35 99.1 -277.35 99.55 -277.3 100.05 -277.15 106.2 -274.55 111.4 -272.6 115.4 -269.2 118.85 -267.8 120.2 -266.35 121.35 -264.9 122.5 -263.3 123.45 -263.2 123.5 -263.05 123.55 -257.35 126.8 -250.35 127 -249.9 127 -249.4 127 -247.95 127 -246.5 126.9 -241.75 126.05 -237.65 123.55 -234.75 121.75 -232.15 119.15 -223.95 111 -223.95 99.45 -223.95 87.85 -232.15 79.65
M -241.65 77.3
Q -236.95 78.95 -233.1 82.75 -226.35 89.45 -226.35 99 -226.35 99.5 -226.35 99.95 -226.7 108.9 -233.1 115.3 -239.85 122 -249.35 122 -249.65078125 122 -249.95 122 -250.248046875 122 -250.55 122 -258.55 122 -264.5 117.35 -264.8 117.15 -265.05 116.9
L -264.7 116.2
Q -265.1748046875 115.7751953125 -265.65 115.3 -269.45 111.45 -271.1 106.8 -271.35 106.05 -271.6 105.25 -272.1 103.4 -272.25 101.35 -272.3 100.6 -272.35 99.85
L -272.35 99.65
Q -272.35 99.3 -272.35 99 -272.35 98.5 -272.35 98 -272.3 96.25 -272 94.7 -270.8 87.9 -265.65 82.75 -264.5 81.6 -263.3 80.7 -259.35 77.6 -254.55 76.55 -253.65 76.35 -252.75 76.25 -251.7 76.1 -250.55 76.05 -249.95 76 -249.35 76 -248.75 76 -248.15 76.05 -248 76.05 -247.8 76.1 -244.55 76.25 -241.65 77.3 Z"/>

<path fill="#FFFFFF" fill-opacity="0.3215686274509804" stroke="none" d="
M -172.65 83.75
Q -178.95 77.45 -187.7 77.05
L -211.1 106.25
Q -209.6 111.85 -205.15 116.25 -198.45 123 -188.9 123 -179.4 123 -172.65 116.25 -166.25 109.85 -165.9 100.95 -165.9 100.5 -165.9 100 -165.9 90.5 -172.65 83.75
M -190.1 77.05
Q -191.2 77.1 -192.3 77.2
L -211.9 99
Q -211.9 99.5 -211.9 100 -211.9 100.35 -211.9 100.75 -211.9 100.8 -211.9 100.9 -211.85 101.65 -211.8 102.35
L -190.1 77.05
M -205.15 83.75
Q -210.35 88.9 -211.55 95.65
L -194.05 77.55
Q -200.35 78.95 -205.15 83.75
M -250.55 76.05
Q -251.7 76.1 -252.75 76.25
L -272.35 98
Q -272.35 98.5 -272.35 99 -272.35 99.3 -272.35 99.65
L -272.35 99.85
Q -272.3 100.6 -272.25 101.35 -272.1 103.4 -271.6 105.25 -271.35 106.05 -271.1 106.8
L -247.8 76.1
Q -248 76.05 -248.15 76.05 -248.75 76 -249.35 76 -249.95 76 -250.55 76.05
M -265.65 82.75
Q -270.8 87.9 -272 94.7
L -254.55 76.55
Q -259.35 77.6 -263.3 80.7 -264.5 81.6 -265.65 82.75
M -234.3 82.75
Q -237.740625 79.3541015625 -241.85 77.65 -242.3501953125 77.475390625 -242.85 77.3
L -264.7 116.2 -265.05 116.9
Q -264.8 117.15 -264.5 117.35 -258.55 122 -250.55 122 -250.248046875 122 -249.95 122 -240.835546875 121.787109375 -234.3 115.3 -227.9 108.9 -227.55 99.95 -227.55 99.5 -227.55 99 -227.55 89.45 -234.3 82.75 Z"/>

<path fill="#FFFFFF" stroke="none" d="
M -192.3 77.2
Q -193.2 77.35 -194.05 77.55
L -211.55 95.65
Q -211.8 97.3 -211.9 99
L -192.3 77.2
M -188.9 77
Q -189.5 77 -190.1 77.05
L -211.8 102.35
Q -211.65 104.35 -211.1 106.25
L -187.7 77.05
Q -188.3 77 -188.9 77
M -272 94.7
Q -272.3 96.25 -272.35 98
L -252.75 76.25
Q -253.65 76.35 -254.55 76.55
L -272 94.7
M -242.85 77.3
Q -242.3501953125 77.475390625 -241.85 77.65
L -241.65 77.3
Q -244.55 76.25 -247.8 76.1
L -271.1 106.8
Q -269.45 111.45 -265.65 115.3 -265.1748046875 115.7751953125 -264.7 116.2
L -242.85 77.3 Z"/>

<path fill="#00009A" stroke="none" d="
M -188.95 72.15
Q -189.45 72.15 -189.9 72.15 -178.95 72.45 -171.1 80.3 -170.6 80.8 -170.15 81.3 -168.55 83.05 -167.25 84.95
L -166.35 83.6
Q -167.6 81.85 -169.2 80.3 -177.4 72.15 -188.95 72.15
M -236.05 76.35
Q -234 77.8 -232.15 79.65 -223.95 87.85 -223.95 99.45 -223.95 111 -232.15 119.15 -234.75 121.75 -237.65 123.55 -241.75 126.05 -246.5 126.9 -240.65 126.35 -235.75 123.55 -232.5 121.7 -229.65 118.85 -224.05 113.25 -222.3 106.05
L -222.15 106.05
Q -221.55 103.25 -221.45 100.2 -221.45 100.15 -221.45 100.05
L -221.45 99.7
Q -221.45 99.4 -221.45 99.1 -221.45 98.4 -221.45 97.8 -221.55 97.1 -221.55 96.5 -221.8 94.05 -222.4 91.75 -224.3 85 -229.65 79.65 -237.15 72.15 -247.6 71.55 -248.5 71.5 -249.4 71.5 -249.8447265625 71.5 -250.25 71.5 -249.9 71.50625 -249.55 71.55 -244.35 71.95 -239.9 74.1 -237.9 75.05 -236.05 76.35
M -161 101
Q -161 100.55 -161 100.05 -161 95.25 -162.4 91.05 -162.9 89.55 -163.55 88.15 -164.7 85.75 -166.35 83.6
L -167.25 84.95
Q -162.9 91.6 -162.9 100.05 -162.9 111.65 -171.1 119.8 -173.25 121.95 -175.65 123.55 -181.95 127.75 -189.9 128 -189.45 128 -188.95 128 -180.45 128 -173.75 123.55 -171.35 121.95 -169.2 119.8 -164.4 115.05 -162.4 109.05 -161.15 105.25 -161 101 Z"/>

<path fill="url(#Gradient_6)" stroke="none" d="
M -221.55 96.5
Q -221.55 97.1 -221.45 97.8 -221.45 98.4 -221.45 99.1 -221.45 99.4 -221.45 99.7
L -221.45 100.05
Q -221.45 100.15 -221.45 100.2 -220.55 100.05 -219.65 100.05 -219.25 100 -218.8 100.05 -217.85 100.05 -216.9 100.1
L -216.9 100.05
Q -216.9 88.5 -208.7 80.3 -200.85 72.45 -189.9 72.15 -189.45 72.15 -188.95 72.15 -177.4 72.15 -169.2 80.3 -167.6 81.85 -166.35 83.6
L -159.6 73.15
Q -163.65 63.85 -168.7 54.8 -171.2 50.25 -173.75 46.2 -192.65 54.3 -220.6 55.65 -246.15 59 -273.65 50.65 -275.15 53.2 -276.65 55.9 -283.45 68.1 -288.35 80.8
L -275.45 88.75
Q -273.4 83.55 -269.2 79.3 -266.45 76.55 -263.3 74.75 -259.1 72.3 -254.2 71.55 -252.35 71.25 -250.35 71.2 -249.9 71.15 -249.4 71.15 -246.85 71.15 -244.45 71.55 -236.05 72.95 -229.65 79.3 -224.2 84.8 -222.4 91.75 -221.8 94.05 -221.55 96.5
M -240.25 59.05
L -240.25 66.6 -240.25 68.85
Q -253 67.75 -267.45 71.75 -265.4 69.95 -263.35 68.5 -265.35 68.95 -267.4 69.5 -254.3 57.9 -240.25 59.05
M -176.7 68.4
Q -174.95 69.7 -173.2 71.25 -187.65 67.25 -200.4 68.35
L -200.4 66.2
Q -200.7 66.2 -201 66.25
L -201 58.7
Q -186.95 57.5 -173.8 69.15 -175.25 68.75 -176.7 68.4
M -177.05 41.1
Q -177.1 41.15 -177.15 41.15
L -174.2 45.5
Q -174.25 45.35 -174.35 45.25 -175.7 43.1 -177.05 41.1
M -144 135.75
Q -144.75 125.6 -146.55 115.65 -149.7 98.45 -156 81.9
L -163.55 88.15
Q -162.9 89.55 -162.4 91.05 -161 95.25 -161 100.05 -161 100.55 -161 101 -161 101.45 -161 101.95 -161 106.75 -162.4 110.95 -164.4 116.9 -169.2 121.7 -170.2 122.7 -171.2 123.55 -178.8 129.9 -188.95 129.9 -189.45 129.9 -189.9 129.9 -199.5 129.6 -206.65 123.55 -207.7 122.7 -208.7 121.7 -214.7 115.75 -216.3 107.95
L -222.3 107.95
Q -224.05 115.1 -229.65 120.7 -231.2 122.3 -232.9 123.55 -238.9 128.1 -246.5 128.8 -247.95 128.9 -249.4 128.9 -249.9 128.9 -250.35 128.9 -259.45 128.65 -266.35 123.2 -267.8 122.1 -269.2 120.7 -272.6 117.3 -274.55 113.3 -277.35 107.7 -277.35 101 -277.35 100.5 -277.3 100.05 -277.35 99.55 -277.35 99.1 -277.35 97.5 -277.2 96
L -292.75 93.35
Q -296.2 104.3 -298.3 115.65 -298.85 118.6 -299.3 121.55 -300.4 128.5 -300.95 135.55 -300.7 136.25 -300.45 136.95 -300.3 137.35 -300.15 137.75 -264.7 232.3 -146.65 185.25 -146.05 182.35 -145.55 179.3 -145.45 178.55 -145.3 177.8 -144.9 174.9 -144.55 171.85 -144.2 168.8 -144 165.55
L -144 138.05 -144 135.75
M -180.1 139.4
Q -217.15 166.85 -254.9 133.55 -217 156.65 -180.1 139.4 Z"/>

<path fill="#999999" stroke="none" d="
M -173.2 71.25
Q -174.95 69.7 -176.7 68.4 -189.2 65.35 -200.4 66.2
L -200.4 68.35
Q -187.65 67.25 -173.2 71.25
M -240.25 68.85
L -240.25 66.6
Q -251.2 65.65 -263.35 68.5 -265.4 69.95 -267.45 71.75 -253 67.75 -240.25 68.85
M -161 101.95
Q -161 101.45 -161 101 -161.15 105.25 -162.4 109.05 -164.4 115.05 -169.2 119.8 -171.35 121.95 -173.75 123.55 -180.45 128 -188.95 128 -189.45 128 -189.9 128 -197.85 127.75 -204.15 123.55 -206.55 121.95 -208.7 119.8 -214.7 113.85 -216.3 106.05
L -222.15 106.05 -222.3 106.05
Q -224.05 113.25 -229.65 118.85 -232.5 121.7 -235.75 123.55 -240.65 126.35 -246.5 126.9 -247.95 127 -249.4 127 -249.9 127 -250.35 127 -257.35 126.8 -263.05 123.55 -263.2 123.5 -263.3 123.45 -264.9 122.5 -266.35 121.35 -267.8 120.2 -269.2 118.85 -272.6 115.4 -274.55 111.4 -277.15 106.2 -277.3 100.05 -277.35 100.5 -277.35 101 -277.35 107.7 -274.55 113.3 -272.6 117.3 -269.2 120.7 -267.8 122.1 -266.35 123.2 -259.45 128.65 -250.35 128.9 -249.9 128.9 -249.4 128.9 -247.95 128.9 -246.5 128.8 -238.9 128.1 -232.9 123.55 -231.2 122.3 -229.65 120.7 -224.05 115.1 -222.3 107.95
L -216.3 107.95
Q -214.7 115.75 -208.7 121.7 -207.7 122.7 -206.65 123.55 -199.5 129.6 -189.9 129.9 -189.45 129.9 -188.95 129.9 -178.8 129.9 -171.2 123.55 -170.2 122.7 -169.2 121.7 -164.4 116.9 -162.4 110.95 -161 106.75 -161 101.95
M -254.9 133.55
Q -217.15 166.85 -180.1 139.4 -217 156.65 -254.9 133.55 Z"/>

<path fill="url(#Gradient_7)" stroke="none" d="
M -174.2 45.5
L -177.15 41.15
Q -219.7 55.7 -271.4 47 -271.55 46.95 -271.7 46.95
L -273.65 50.65
Q -246.15 59 -220.6 55.65 -192.65 54.3 -173.75 46.2
L -173.75 46.15 -174.2 45.5 Z"/>

<path fill="url(#Gradient_8)" stroke="none" d="
M -176.9 41.05
L -178.7 12 -179.55 -1.95
Q -228.5 -17.3 -274.75 3.85
L -273.9 17.75 -272.15 46.85
Q -271.9 46.85 -271.7 46.95 -271.55 46.95 -271.4 47 -219.7 55.7 -177.15 41.15 -177.1 41.15 -177.05 41.1 -177 41.1 -176.9 41.05 Z"/>

<path fill="url(#Gradient_9)" stroke="none" d="
M -146.55 115.65
Q -144.75 125.6 -144 135.75
L -144 138.05 -120.9 147.95
Q -115.8 151.25 -110.75 148.15 -126.7 158.4 -141.4 180.2
L -138.05 196.85 -129.85 201.7 -110.55 196.85 -112.6 192.4 -124.35 194.15 -129.15 187.95 -134 181.75
Q -116.15 168.5 -100.9 147.3 -120.1 125.95 -146.55 115.65 Z"/>

<path fill="url(#Gradient_10)" stroke="none" d="
M -121.5 -7.05
L -228.8 -28.9 -332.7 5.8 -273.9 17.75 -274.75 3.85
Q -228.5 -17.3 -179.55 -1.95
L -178.7 12 -121.5 -7.05 Z"/>

<path fill="#140087" stroke="none" d="
M -229.1 -33.6
L -228.8 -28.9 -121.5 -7.05 -121.8 -11.75 -229.1 -33.6 Z"/>
</g>

<path id="Layer0_0_MEMBER_1_1_STROKES" stroke="#000000" stroke-width="1" stroke-linejoin="round" stroke-linecap="round" fill="none" d="
M -159.6 73.15
L -154.85 65.75 -154.85 80.9 -156 81.9
M -292.75 93.35
L -295.3 92.9 -295.3 76.5 -288.35 80.8
M -277.2 96
L -292.75 93.35
M -166.35 83.6
L -159.6 73.15
M -156 81.9
L -163.55 88.15
M -167.25 84.95
L -166.35 83.6
M -288.35 80.8
L -275.45 88.75"/>
</defs>

<g transform="matrix( 1, 0, 0, 1, 71.5,32.45) ">
<use xlink:href="#Layer0_0_MEMBER_0_FILL"/>
</g>

<g transform="matrix( 1, 0, 0, 1, 344,33.6) ">
<use xlink:href="#Layer0_0_MEMBER_1_FILL"/>

<use xlink:href="#Layer0_0_MEMBER_1_1_STROKES"/>
</g>
</svg>
