<svg xmlns="http://www.w3.org/2000/svg" xmlns:xlink="http://www.w3.org/1999/xlink" preserveAspectRatio="none" width="57" height="40" viewBox="0 0 57 40"><defs><path fill="#FFF" d="M-27.8-12.1q1.5 10.35 3.05 11.9 2.55 2.45 5.55 10.7l2.75-3.1q-2.65-7.8-4-10.25-.6-1.05-.2-7.55l.55-6.25-8.85-5.45 1.15 10z" id="a"/><g id="c"><path fill="#9C0" d="M11.75 8.75q-.35-.2-1.05-.35-1.35.1-3.95.4-4.35.55-4.9.85-.55.3-1 .4-.55.15-3.3 1.2l.05.05h.05q.5.55 1.1 1.2 1.65 1.8 4 3.05Q4.6 16.6 6.5 17.1q1.75.15 3.15-.2 2.2-.65 3.4-2.2 1.25-1.6.7-3.5-.45-1.7-2-2.45m.7-9.45q-.15-.1-.2-.2l-.6-.1q-1.45-.45-2.25-.4h-2q-1.15.05-1.45.25-.2.25-.5.2Q5.2-1 2.85.3.55 1.5-.4 2.4q-1 .85-2.4 3.75-.65 1.5-.9 2.95 2.9-.7 2.8-.8l1.75-.5q1.6-.4 3.9-.65L5.4 7q.4.05 1.05-.1.65-.15.7-.15 2.1-.6 2.65-.7 1.4-.55 2.25-1 2-1.35 1.3-3.95-.25-1.05-.9-1.8z"/><path fill="#990" d="M20.7 7.7q.55 0 1.85-.3 1.25-.35 2.1-.55-3.2.2-11.5.1-5-.1-8.4.2-2.3.25-3.9.65l-1.75.5q.1.1-2.8.8-1 .25-2.05.4l-.85.15q-1.25-.2-1.55-.3-.3-.15-.95-.75-.7-.55-.75-.65-.45.45-1.65 1.3-1.2.85-1.8 1.35 1.8 1.6 5.55 1.45 2.1-.05 5.3-.75v-.05Q.3 10.2.85 10.05q.45-.1 1-.4.55-.3 4.9-.85 2.6-.3 3.95-.4.9-.05 1.2 0 .85.05 3.65-.35 2.85-.35 3.7-.35.95-.1 1.45 0z"/><path fill="#CBFD02" d="M12.25-.9q.05.1.2.2.65.75.9 1.8.7 2.6-1.3 3.95-.85.45-2.25 1-.55.1-2.65.7-.05 0-.7.15-.65.15-1.05.1l-.65.15q3.4-.3 8.4-.2 8.3.1 11.5-.1-.85.2-2.1.55-1.3.3-1.85.3-.5-.1-1.45 0-.85 0-3.7.35-2.8.4-3.65.35-.3-.05-1.2 0 .7.15 1.05.35 1.55.75 2 2.45.55 1.9-.7 3.5-1.2 1.55-3.4 2.2-1.4.35-3.15.2.75.2 1.45.35 3 .5 5.75-.3 1.8-.45 4.1-1.65 2.45-1.3 4.4-2.85 2.2-1.8 3.75-3.65 1.5-1.9 1.7-2.95.3-1-4.35-3.1-4.65-2.1-6.25-2.6Q16 0 14.55-.35q-1.1-.25-2.3-.55z"/></g><path fill="#FFF" d="M-7.9 9.95l.2-1q1.35.85 2 .45 1.45-.8-.5-3.3-2-2.5-3.4-1.7l-.2.15Q-14.15.7-19.5 2.4q-2.6.85-3.3 3-.75 2.2.95 4.3.9 1.15 2.55 2.15.3.9.9 1.7.9 1.15 2.7 1.7 1.9.65 5.55 0 3.05-.55 4-1.1 1.1-.7.4-1.9-1.3-1.95-2.15-2.3z" id="d"/><path id="b" stroke="#999" stroke-linejoin="round" stroke-linecap="round" fill="none" d="M-28.95-22.1l1.15 10q1.5 10.35 3.05 11.9 2.55 2.45 5.55 10.7l2.75-3.1q-2.65-7.8-4-10.25-.6-1.05-.2-7.55l.55-6.25"/><path id="e" stroke="#999" stroke-linejoin="round" stroke-linecap="round" fill="none" d="M-9.6 4.4l-.2.15Q-14.15.7-19.5 2.4q-2.6.85-3.3 3-.75 2.2.95 4.3.9 1.15 2.55 2.15.3.9.9 1.7.9 1.15 2.7 1.7 1.9.65 5.55 0 3.05-.55 4-1.1 1.1-.7.4-1.9-1.3-1.95-2.15-2.3l.2-1q1.35.85 2 .45 1.45-.8-.5-3.3-2-2.5-3.4-1.7z"/><path id="f" stroke="#999" stroke-linejoin="round" stroke-linecap="round" fill="none" d="M-5.8 7.5q-.9-.2-1.7 0-1.65.5-1 2.45 1.05 3.45 3.15 3.6"/></defs><use xlink:href="#a" transform="translate(29 21.95)"/><use xlink:href="#b" transform="translate(29 21.95)"/><use xlink:href="#c" transform="translate(29 21.95)"/><use xlink:href="#d" transform="translate(29 21.95)"/><use xlink:href="#e" transform="translate(29 21.95)"/><use xlink:href="#f" transform="translate(29 21.95)"/></svg>