
<svg xmlns="http://www.w3.org/2000/svg" version="1.1" xmlns:xlink="http://www.w3.org/1999/xlink" preserveAspectRatio="none" x="0px" y="0px" width="932px" height="661px" viewBox="0 0 932 661">
<defs>
<g id="Layer0_0_FILL">
<path fill="#8E5F27" stroke="none" d="
M 618.55 525.4
L 618.5 514.4 593.25 514.4 618.55 525.4 Z"/>

<path fill="#997426" stroke="none" d="
M 618.55 525.4
L 646 514.4 618.5 514.4 618.55 525.4 Z"/>
</g>

<g id="Layer0_0_MEMBER_0_FILL">
<path fill="#997426" stroke="none" d="
M 541.25 201.9
L 541.3 207.7 542.35 359.05 567.25 359.05 620.05 337.95 617.65 183 541.25 201.9
M 741.8 152.2
L 669.85 170.1 671.45 319.05 744.9 291.95 741.8 152.2 Z"/>

<path fill="#8E5F27" stroke="none" d="
M 416.65 113.85
L 403.35 103.8 398.95 306.9 519.5 359.05 542.35 359.05 541.3 207.7 416.65 113.85 Z"/>

<path fill="#1E4EA0" stroke="none" d="
M 671.45 319.05
L 669.85 170.1 617.65 183 620.05 337.95 671.45 319.05 Z"/>

<path fill="#785734" stroke="none" d="
M 741.8 152.2
L 741.8 151.6 621.05 121.9 416.65 113.85 541.3 207.7 541.25 201.9 617.65 183 669.85 170.1 741.8 152.2 Z"/>
</g>

<g id="Layer0_0_MEMBER_0_MEMBER_0_MEMBER_0_FILL">
<path fill="#D92746" stroke="none" d="
M 647.5 147.55
L 647.7 147.55 595.95 101.8
Q 591.8 110.6 595.4 117.1
L 645.9 162.95 646.95 162.95
Q 643.5 155.25 647.5 147.55 Z"/>

<path fill="#7C1729" stroke="none" d="
M 719.45 158.65
L 719.2 143.5 647.7 147.55 648.25 148.1 647.5 147.55
Q 643.5 155.25 646.95 162.95
L 719.45 158.65
M 650.7 160.65
L 651.05 148.85 718.4 145.75 718.4 157.1 650.7 160.65 Z"/>

<path fill="#FFFFFF" stroke="none" d="
M 651.05 148.85
L 650.7 160.65 718.4 157.1 718.4 145.75 651.05 148.85 Z"/>

<path fill="#BD0A2A" stroke="none" d="
M 719.2 143.5
L 721.1 143.35 658.3 97.3 595.95 101.8 647.7 147.55 719.2 143.5 Z"/>
</g>

<g id="Layer0_0_MEMBER_0_MEMBER_0_MEMBER_1_FILL">
<path fill="#2B89D2" stroke="none" d="
M 650.95 144.15
Q 647.4 136.45 651.35 128.75
L 651.55 128.75 599.9 82.95
Q 595.65 91.8 599.25 98.3
L 649.8 144.15 650.95 144.15 Z"/>

<path fill="#1A4AAE" stroke="none" d="
M 723.1 124.65
L 724.95 124.5 662.25 78.5 599.9 82.95 651.55 128.75 723.1 124.65 Z"/>

<path fill="#393A59" stroke="none" d="
M 723.35 139.85
L 723.1 124.65 651.55 128.75 652.15 129.25 651.35 128.75
Q 647.4 136.45 650.95 144.15
L 723.35 139.85
M 722.25 126.85
L 722.25 138.25 654.55 141.8 654.9 130.05 722.25 126.85 Z"/>

<path fill="#FFFFFF" stroke="none" d="
M 722.25 138.25
L 722.25 126.85 654.9 130.05 654.55 141.8 722.25 138.25 Z"/>
</g>

<g id="Layer0_0_MEMBER_0_MEMBER_1_FILL">
<path fill="#D92746" stroke="none" d="
M 467.1 201.65
Q 459.75 217 466.15 228.45
L 554.5 308.65 556.4 308.65
Q 550.3 295.1 557.3 281.7
L 557.65 281.7 467.1 201.65 Z"/>

<path fill="#7C1729" stroke="none" d="
M 683.2 301.15
L 682.75 274.55 557.65 281.7 558.65 282.6 557.3 281.7
Q 550.3 295.1 556.4 308.65
L 683.2 301.15
M 681.3 278.45
L 681.3 298.35 562.8 304.5 563.45 283.95 681.3 278.45 Z"/>

<path fill="#FFFFFF" stroke="none" d="
M 681.3 298.35
L 681.3 278.45 563.45 283.95 562.8 304.5 681.3 298.35 Z"/>

<path fill="#BD0A2A" stroke="none" d="
M 682.75 274.55
L 686.1 274.35 576.2 193.75 467.1 201.65 557.65 281.7 682.75 274.55 Z"/>
</g>

<g id="Layer0_0_MEMBER_0_MEMBER_2_MEMBER_0_FILL">
<path fill="#BD0A2A" stroke="none" d="
M 624.35 186.5
L 626.85 186.4 546.2 127.25 466.15 133 532.6 191.7 624.35 186.5 Z"/>

<path fill="#7C1729" stroke="none" d="
M 533.35 192.4
L 532.35 191.7
Q 527.2 201.6 531.7 211.55
L 624.7 206 624.35 186.5 532.6 191.7 533.35 192.4
M 536.9 193.4
L 623.3 189.35 623.3 203.95 536.4 208.5 536.9 193.4 Z"/>

<path fill="#FFFFFF" stroke="none" d="
M 623.3 189.35
L 536.9 193.4 536.4 208.5 623.3 203.95 623.3 189.35 Z"/>

<path fill="#D92746" stroke="none" d="
M 532.35 191.7
L 532.6 191.7 466.15 133
Q 460.8 144.25 465.45 152.65
L 530.3 211.55 531.7 211.55
Q 527.2 201.6 532.35 191.7 Z"/>
</g>

<g id="Layer0_0_MEMBER_0_MEMBER_2_MEMBER_1_FILL">
<path fill="#3B9846" stroke="none" d="
M 503.35 121.95
Q 497.95 133.2 502.6 141.6
L 567.45 200.5 568.9 200.5
Q 564.35 190.55 569.5 180.65
L 569.75 180.65 503.35 121.95 Z"/>

<path fill="#2E7637" stroke="none" d="
M 661.85 194.95
L 661.55 175.45 569.75 180.65 570.5 181.35 569.5 180.65
Q 564.35 190.55 568.9 200.5
L 661.85 194.95
M 660.5 178.3
L 660.5 192.9 573.55 197.45 574.05 182.35 660.5 178.3 Z"/>

<path fill="#FFFFFF" stroke="none" d="
M 660.5 192.9
L 660.5 178.3 574.05 182.35 573.55 197.45 660.5 192.9 Z"/>

<path fill="#5BAD0A" stroke="none" d="
M 661.55 175.45
L 664 175.3 583.4 116.2 503.35 121.95 569.75 180.65 661.55 175.45 Z"/>
</g>

<g id="Layer0_0_MEMBER_0_MEMBER_2_MEMBER_2_FILL">
<path fill="#2B89D2" stroke="none" d="
M 498.55 109.6
Q 493.15 120.9 497.8 129.3
L 562.65 188.1 564.1 188.1
Q 559.65 178.25 564.7 168.35
L 564.95 168.35 498.55 109.6 Z"/>

<path fill="#1A4AAE" stroke="none" d="
M 656.75 163.15
L 659.2 162.95 578.65 103.85 498.55 109.6 564.95 168.35 656.75 163.15 Z"/>

<path fill="#393A59" stroke="none" d="
M 657.1 182.65
L 656.75 163.15 564.95 168.35 565.7 169.05 564.7 168.35
Q 559.65 178.25 564.1 188.1
L 657.1 182.65
M 655.7 166
L 655.7 180.6 568.75 185.15 569.25 170.05 655.7 166 Z"/>

<path fill="#FFFFFF" stroke="none" d="
M 655.7 180.6
L 655.7 166 569.25 170.05 568.75 185.15 655.7 180.6 Z"/>
</g>

<g id="Layer0_0_MEMBER_0_MEMBER_2_MEMBER_3_FILL">
<path fill="#D92746" stroke="none" d="
M 559.75 142.7
L 560 142.7 493.6 83.95
Q 488.2 95.25 492.85 103.65
L 557.7 162.45 559.05 162.45
Q 554.6 152.6 559.75 142.7 Z"/>

<path fill="#7C1729" stroke="none" d="
M 652.1 157
L 651.8 137.5 560 142.7 560.75 143.4 559.75 142.7
Q 554.6 152.6 559.05 162.45
L 652.1 157
M 650.75 140.35
L 650.75 154.95 563.8 159.5 564.3 144.4 650.75 140.35 Z"/>

<path fill="#FFFFFF" stroke="none" d="
M 650.75 154.95
L 650.75 140.35 564.3 144.4 563.8 159.5 650.75 154.95 Z"/>

<path fill="#BD0A2A" stroke="none" d="
M 651.8 137.5
L 654.2 137.3 573.6 78.2 493.6 83.95 560 142.7 651.8 137.5 Z"/>
</g>

<g id="Layer0_0_MEMBER_0_MEMBER_2_MEMBER_4_FILL">
<path fill="#3B9846" stroke="none" d="
M 502.05 60.35
Q 496.7 71.6 501.35 80.05
L 566.2 138.85 567.6 138.85
Q 563.1 128.9 568.25 119.1
L 568.5 119.1 502.05 60.35 Z"/>

<path fill="#5BAD0A" stroke="none" d="
M 660.25 113.85
L 662.75 113.7 582.1 54.55 502.05 60.35 568.5 119.1 660.25 113.85 Z"/>

<path fill="#2E7637" stroke="none" d="
M 660.6 133.4
L 660.25 113.85 568.5 119.1 569.25 119.75 568.25 119.1
Q 563.1 128.9 567.6 138.85
L 660.6 133.4
M 659.2 116.75
L 659.2 131.3 572.3 135.8 572.8 120.7 659.2 116.75 Z"/>

<path fill="#FFFFFF" stroke="none" d="
M 659.2 131.3
L 659.2 116.75 572.8 120.7 572.3 135.8 659.2 131.3 Z"/>
</g>

<g id="Layer0_0_MEMBER_1_FILL">
<path fill="#8E5F27" stroke="none" d="
M 479.75 243.95
L 465.1 232.85 460.3 456.95 593.25 514.55 618.45 514.55 617.3 347.5 479.75 243.95 Z"/>

<path fill="#997426" stroke="none" d="
M 704.2 491.25
L 701.6 320.2 617.25 341.1 617.3 347.5 618.45 514.55 645.95 514.55 704.2 491.25
M 838.55 286.3
L 759.1 306.05 760.95 470.3 842 440.5 838.55 286.3 Z"/>

<path fill="#1E4EA0" stroke="none" d="
M 759.1 306.05
L 701.6 320.2 704.2 491.25 760.95 470.3 759.1 306.05 Z"/>

<path fill="#785734" stroke="none" d="
M 701.6 320.2
L 759.1 306.05 838.55 286.3 838.55 285.6 705.3 252.85 479.75 243.95 617.3 347.5 617.25 341.1 701.6 320.2 Z"/>
</g>

<g id="Layer0_0_MEMBER_1_MEMBER_0_MEMBER_0_FILL">
<path fill="#BD0A2A" stroke="none" d="
M 746.4 225.5
L 677.65 230.45 734.7 280.95 813.6 276.5 815.7 276.3 746.4 225.5 Z"/>

<path fill="#7C1729" stroke="none" d="
M 735.35 281.55
L 734.5 280.95
Q 730.05 289.45 733.9 297.95
L 813.85 293.25 813.6 276.5 734.7 280.95 735.35 281.55
M 737.95 295.4
L 738.4 282.4 812.7 278.95 812.7 291.5 737.95 295.4 Z"/>

<path fill="#FFFFFF" stroke="none" d="
M 738.4 282.4
L 737.95 295.4 812.7 291.5 812.7 278.95 738.4 282.4 Z"/>

<path fill="#D92746" stroke="none" d="
M 734.5 280.95
L 734.7 280.95 677.65 230.45
Q 673 240.15 677 247.4
L 732.7 297.95 733.9 297.95
Q 730.05 289.45 734.5 280.95 Z"/>
</g>

<g id="Layer0_0_MEMBER_1_MEMBER_0_MEMBER_1_FILL">
<path fill="#1A4AAE" stroke="none" d="
M 681.9 209.85
L 738.95 260.35 817.9 255.9 819.95 255.7 750.7 204.9 681.9 209.85 Z"/>

<path fill="#393A59" stroke="none" d="
M 738.75 260.35
Q 734.4 268.85 738.2 277.35
L 818.15 272.65 817.9 255.9 738.95 260.35 739.6 260.95 738.75 260.35
M 742.25 274.75
L 742.65 261.8 816.95 258.35 816.95 270.9 742.25 274.75 Z"/>

<path fill="#FFFFFF" stroke="none" d="
M 742.65 261.8
L 742.25 274.75 816.95 270.9 816.95 258.35 742.65 261.8 Z"/>

<path fill="#2B89D2" stroke="none" d="
M 738.2 277.35
Q 734.4 268.85 738.75 260.35
L 738.95 260.35 681.9 209.85
Q 677.25 219.55 681.25 226.8
L 737 277.35 738.2 277.35 Z"/>
</g>

<g id="Layer0_0_MEMBER_1_MEMBER_1_MEMBER_0_FILL">
<path fill="#D92746" stroke="none" d="
M 534.45 264.95
Q 528.5 277.4 533.65 286.65
L 605.2 351.55 606.75 351.55
Q 601.8 340.65 607.45 329.75
L 607.75 329.75 534.45 264.95 Z"/>

<path fill="#BD0A2A" stroke="none" d="
M 709 324
L 711.75 323.85 622.8 258.55 534.45 264.95 607.75 329.75 709 324 Z"/>

<path fill="#7C1729" stroke="none" d="
M 709.4 345.5
L 709 324 607.75 329.75 608.6 330.5 607.45 329.75
Q 601.8 340.65 606.75 351.55
L 709.4 345.5
M 707.85 327.15
L 707.85 343.25 611.9 348.25 612.45 331.6 707.85 327.15 Z"/>

<path fill="#FFFFFF" stroke="none" d="
M 707.85 343.25
L 707.85 327.15 612.45 331.6 611.9 348.25 707.85 343.25 Z"/>
</g>

<g id="Layer0_0_MEMBER_1_MEMBER_1_MEMBER_1_FILL">
<path fill="#5BAD0A" stroke="none" d="
M 750 311.8
L 752.75 311.6 663.8 246.35 575.45 252.75 648.75 317.55 750 311.8 Z"/>

<path fill="#2E7637" stroke="none" d="
M 649.6 318.3
L 648.45 317.55
Q 642.8 328.45 647.75 339.35
L 750.4 333.3 750 311.8 648.75 317.55 649.6 318.3
M 652.9 336.05
L 653.45 319.4 748.85 314.95 748.85 331.05 652.9 336.05 Z"/>

<path fill="#FFFFFF" stroke="none" d="
M 653.45 319.4
L 652.9 336.05 748.85 331.05 748.85 314.95 653.45 319.4 Z"/>

<path fill="#3B9846" stroke="none" d="
M 648.45 317.55
L 648.75 317.55 575.45 252.75
Q 569.5 265.15 574.65 274.45
L 646.2 339.35 647.75 339.35
Q 642.8 328.45 648.45 317.55 Z"/>
</g>

<g id="Layer0_0_MEMBER_1_MEMBER_1_MEMBER_2_FILL">
<path fill="#2B89D2" stroke="none" d="
M 570.2 239.15
Q 564.25 251.6 569.4 260.85
L 640.95 325.75 642.5 325.75
Q 637.55 314.85 643.2 303.95
L 643.5 303.95 570.2 239.15 Z"/>

<path fill="#1A4AAE" stroke="none" d="
M 744.75 298.2
L 747.45 298 658.5 232.75 570.2 239.15 643.5 303.95 744.75 298.2 Z"/>

<path fill="#393A59" stroke="none" d="
M 745.15 319.7
L 744.75 298.2 643.5 303.95 644.3 304.7 643.2 303.95
Q 637.55 314.85 642.5 325.75
L 745.15 319.7
M 743.6 301.35
L 743.6 317.45 647.65 322.45 648.2 305.8 743.6 301.35 Z"/>

<path fill="#FFFFFF" stroke="none" d="
M 743.6 317.45
L 743.6 301.35 648.2 305.8 647.65 322.45 743.6 317.45 Z"/>
</g>

<g id="Layer0_0_MEMBER_1_MEMBER_1_MEMBER_3_FILL">
<path fill="#D92746" stroke="none" d="
M 637.7 275.65
L 638 275.65 564.7 210.85
Q 558.75 223.3 563.9 232.55
L 635.45 297.45 637 297.45
Q 632.05 286.55 637.7 275.65 Z"/>

<path fill="#BD0A2A" stroke="none" d="
M 739.25 269.9
L 741.95 269.7 653 204.45 564.7 210.85 638 275.65 739.25 269.9 Z"/>

<path fill="#7C1729" stroke="none" d="
M 739.65 291.4
L 739.25 269.9 638 275.65 638.8 276.4 637.7 275.65
Q 632.05 286.55 637 297.45
L 739.65 291.4
M 738.1 273.05
L 738.1 289.15 642.15 294.15 642.7 277.5 738.1 273.05 Z"/>

<path fill="#FFFFFF" stroke="none" d="
M 738.1 289.15
L 738.1 273.05 642.7 277.5 642.15 294.15 738.1 289.15 Z"/>
</g>

<g id="Layer0_0_MEMBER_1_MEMBER_1_MEMBER_4_FILL">
<path fill="#3B9846" stroke="none" d="
M 646.35 271.4
Q 641.45 260.45 647.1 249.6
L 647.35 249.6 574.05 184.75
Q 568.15 197.2 573.3 206.45
L 644.8 271.4 646.35 271.4 Z"/>

<path fill="#2E7637" stroke="none" d="
M 749 265.35
L 748.65 243.8 647.35 249.6 648.2 250.3 647.1 249.6
Q 641.45 260.45 646.35 271.4
L 749 265.35
M 747.45 246.95
L 747.45 263.05 651.55 268.05 652.1 251.4 747.45 246.95 Z"/>

<path fill="#FFFFFF" stroke="none" d="
M 747.45 263.05
L 747.45 246.95 652.1 251.4 651.55 268.05 747.45 263.05 Z"/>

<path fill="#5BAD0A" stroke="none" d="
M 748.65 243.8
L 751.35 243.65 662.4 178.4 574.05 184.75 647.35 249.6 748.65 243.8 Z"/>
</g>

<g id="Layer0_0_MEMBER_2_MEMBER_0_FILL">
<path fill="#1A4AAE" stroke="none" d="
M 67.25 244.9
L 157.8 324.95 282.9 317.85 286.25 317.6 176.4 237 67.25 244.9 Z"/>

<path fill="#393A59" stroke="none" d="
M 158.85 325.85
L 157.45 324.95
Q 150.5 338.4 156.6 351.9
L 283.4 344.4 282.9 317.85 157.8 324.95 158.85 325.85
M 162.95 347.8
L 163.65 327.2 281.45 321.75 281.45 341.6 162.95 347.8 Z"/>

<path fill="#FFFFFF" stroke="none" d="
M 163.65 327.2
L 162.95 347.8 281.45 341.6 281.45 321.75 163.65 327.2 Z"/>

<path fill="#2B89D2" stroke="none" d="
M 67.25 244.9
Q 59.95 260.25 66.3 271.7
L 154.65 351.9 156.6 351.9
Q 150.5 338.4 157.45 324.95
L 157.8 324.95 67.25 244.9 Z"/>
</g>

<g id="Layer0_0_MEMBER_2_MEMBER_1_FILL">
<path fill="#7C1729" stroke="none" d="
M 171.3 293.15
L 169.95 292.25
Q 162.95 305.7 169.05 319.2
L 295.85 311.7 295.35 285.1 170.3 292.25 171.3 293.15
M 176.1 294.5
L 293.9 289.05 293.9 308.9 175.4 315.1 176.1 294.5 Z"/>

<path fill="#FFFFFF" stroke="none" d="
M 293.9 289.05
L 176.1 294.5 175.4 315.1 293.9 308.9 293.9 289.05 Z"/>

<path fill="#BD0A2A" stroke="none" d="
M 295.35 285.1
L 298.7 284.9 188.85 204.3 79.75 212.2 170.3 292.25 295.35 285.1 Z"/>

<path fill="#D92746" stroke="none" d="
M 79.75 212.2
Q 72.4 227.55 78.8 239
L 167.1 319.2 169.05 319.2
Q 162.95 305.7 169.95 292.25
L 170.3 292.25 79.75 212.2 Z"/>
</g>

<g id="Layer0_0_MEMBER_2_MEMBER_2_FILL">
<path fill="#3B9846" stroke="none" d="
M 184.7 286.05
Q 178.6 272.55 185.55 259.15
L 185.9 259.15 95.35 179.1
Q 88.05 194.45 94.4 205.9
L 182.75 286.05 184.7 286.05 Z"/>

<path fill="#5BAD0A" stroke="none" d="
M 311 252
L 314.35 251.8 204.5 171.2 95.35 179.1 185.9 259.15 311 252 Z"/>

<path fill="#2E7637" stroke="none" d="
M 311.5 278.6
L 311 252 185.9 259.15 186.95 260.05 185.55 259.15
Q 178.6 272.55 184.7 286.05
L 311.5 278.6
M 309.55 255.9
L 309.55 275.8 191.05 281.95 191.75 261.4 309.55 255.9 Z"/>

<path fill="#FFFFFF" stroke="none" d="
M 309.55 275.8
L 309.55 255.9 191.75 261.4 191.05 281.95 309.55 275.8 Z"/>
</g>

<g id="Layer0_0_MEMBER_2_MEMBER_3_FILL">
<path fill="#BD0A2A" stroke="none" d="
M 295.3 205.5
L 298.65 205.3 188.8 124.65 79.7 132.55 170.2 212.6 295.3 205.5 Z"/>

<path fill="#7C1729" stroke="none" d="
M 295.8 232.1
L 295.3 205.5 170.2 212.6 171.25 213.5 169.9 212.6
Q 162.9 226.05 169 239.55
L 295.8 232.1
M 293.85 209.4
L 293.85 229.25 175.35 235.45 176.05 214.85 293.85 209.4 Z"/>

<path fill="#FFFFFF" stroke="none" d="
M 293.85 229.25
L 293.85 209.4 176.05 214.85 175.35 235.45 293.85 229.25 Z"/>

<path fill="#D92746" stroke="none" d="
M 79.7 132.55
Q 72.35 147.9 78.7 159.35
L 167.05 239.55 169 239.55
Q 162.9 226.05 169.9 212.6
L 170.2 212.6 79.7 132.55 Z"/>
</g>

<g id="mc_mascote_0_Layer4_0_FILL">
<path fill="#FFFFFF" stroke="none" d="
M 44.25 38.25
L 49.3 24.3
Q 36.1 39.5 32.6 39.5 30.75 39.5 25.5 35.95
L 25.05 38.75
Q 29.55 42.9 31.65 42.9 33.35 42.9 39 40.6
L 44.25 38.25 Z"/>
</g>

<g id="mc_mascote_0_Layer4_1_FILL">
<path fill="#FFFFFF" stroke="none" d="
M 37.75 62.4
Q 35.55 63.55 35.55 65.1 35.55 66.65 37.75 67.75 39.95 68.85 43 68.85 46.15 68.85 49.25 67.55 52.5 66.25 52.5 64.75 52.5 63.3 49.25 62.25 46.35 61.3 43 61.3 39.9 61.3 37.75 62.4 Z"/>
</g>

<g id="mc_mascote_0_Layer4_3_FILL">
<path fill="#FFFFFF" stroke="none" d="
M 37.05 62.1
Q 34.85 63.2 34.85 64.75 34.85 66.3 37.05 67.45 39.2 68.55 42.25 68.55 45.45 68.55 48.55 67.25 51.8 65.95 51.8 64.4 51.8 62.95 48.55 61.95 45.6 61 42.25 61 39.2 61 37.05 62.1 Z"/>
</g>

<g id="mc_mascote_0_Layer4_5_FILL">
<path fill="#FFFFFF" stroke="none" d="
M 59 67.5
Q 62.1 68.8 65.25 68.8 68.35 68.8 70.5 67.7 72.7 66.6 72.7 65 72.7 63.45 70.5 62.3 68.35 61.2 65.25 61.2 61.9 61.2 59 62.15 55.75 63.2 55.75 64.65 55.75 66.15 59 67.5 Z"/>
</g>

<g id="mc_mascote_0_Layer4_7_FILL">
<path fill="#FFFFFF" stroke="none" d="
M 59.7 67.15
Q 62.8 68.45 66 68.45 69.05 68.45 71.2 67.35 73.4 66.25 73.4 64.7 73.4 63.15 71.2 62 69.05 60.9 66 60.9 62.6 60.9 59.7 61.85 56.45 62.85 56.45 64.35 56.45 65.85 59.7 67.15 Z"/>
</g>

<g id="mc_mascote_0_Layer4_9_FILL">
<path fill="#999999" stroke="none" d="
M 67.2 21.15
Q 61.55 8.45 54.75 8.45 48 8.45 42.2 21.15 37.05 32.6 36.9 42.95 36.8 52 41.9 58.35 47 64.75 54.3 64.75 61.6 64.75 66.85 58.35 72.1 52 72.2 42.95 72.35 32.7 67.2 21.15 Z"/>
</g>

<g id="mc_mascote_0_Layer4_11_FILL">
<path fill="#FFFFFF" stroke="none" d="
M 65.45 22.9
Q 60.2 11.1 53.85 11.1 47.6 11.1 42.25 22.9 37.45 33.55 37.3 43.1 37.2 51.5 41.9 57.45 46.65 63.4 53.45 63.4 60.25 63.4 65.1 57.45 70 51.5 70.1 43.1 70.25 33.6 65.45 22.9 Z"/>
</g>

<g id="mc_mascote_0_Layer4_12_FILL">
<path fill="#FFFFFF" stroke="none" d="
M 53.35 27.05
Q 54.3 28.15 55.9 28.15 57.5 28.15 58.8 27.05 60.15 25.9 60.4 24.3 60.65 22.7 59.7 21.55 58.75 20.45 57.15 20.45 55.55 20.45 54.2 21.55 52.9 22.7 52.65 24.3 52.4 25.9 53.35 27.05 Z"/>
</g>

<g id="mc_mascote_0_Layer4_14_FILL">
<path fill="#FFFFFF" stroke="none" d="
M 68.6 45.65
L 61.9 43.95 59.15 47.05
Q 56.3 50.25 55.5 50.45 53.65 50.9 48.75 53.25
L 48.55 56
Q 53.85 53.65 56.2 53.7 58.55 53.8 68.6 45.65 Z"/>
</g>

<g id="mc_mascote_0_Layer4_16_FILL">
<path fill="#FFFFFF" stroke="none" d="
M 43.65 27
Q 44.6 28.1 46.2 28.1 47.8 28.1 49.1 27 50.45 25.85 50.7 24.25 50.9 22.65 49.95 21.5 49.05 20.4 47.45 20.4 45.85 20.4 44.5 21.5 43.2 22.65 42.95 24.25 42.7 25.85 43.65 27 Z"/>
</g>

<g id="mc_mascote_0_Layer4_18_FILL">
<path fill="#0D0057" stroke="none" d="
M 63.15 12.8
L 64.95 1.5 48.25 1.5 46.45 12.8 46.4 12.85
Q 46.15 14.3 48.45 15.3 50.75 16.3 54.2 16.3 57.7 16.3 60.3 15.3 62.9 14.3 63.15 12.85
L 63.15 12.8 Z"/>
</g>

<g id="mc_mascote_0_Layer4_19_FILL">
<path fill="#0D0057" stroke="none" d="
M 73.85 8.5
L 66.85 1.6 53.15 -0.85 33.4 0.95 73.85 8.5 Z"/>
</g>

<g id="mc_mascote_0_Layer4_20_FILL">
<path fill="#000000" stroke="none" d="
M 60.1 24.05
L 70.65 21.05 69.5 18.45 60.15 22.1 60.1 24.05 Z"/>
</g>

<g id="mc_mascote_0_Layer4_23_FILL">
<path fill="#000000" stroke="none" d="
M 52.2 25.1
L 52.4 24.05 50.9 24.05 50.7 25.1 52.2 25.1 Z"/>
</g>

<g id="mc_mascote_0_Layer4_24_FILL">
<path fill="#000000" stroke="none" d="
M 56.35 16.6
L 60.2 18.75 61.3 17.2 56.35 16.6 Z"/>
</g>

<g id="mc_mascote_0_Layer4_25_FILL">
<path fill="#FFFFFF" stroke="none" d="
M 46.25 19.75
L 51.2 17.9 45.9 17.85 46.25 19.75 Z"/>
</g>

<g id="mc_mascote_0_Layer4_26_FILL">
<path fill="#000000" stroke="none" d="
M 45.4 18.5
L 49.3 16 44.75 16.75 45.4 18.5 Z"/>
</g>

<g id="mc_mascote_0_Layer4_27_FILL">
<path fill="#FFFFFF" stroke="none" d="
M 52.85 7.75
Q 52.35 7.75 51.9 8.25 51.3 8.95 50.95 10.6
L 50.9 10.7 51.15 10.75 51.2 10.65
Q 51.7 8.3 52.8 8.4 53.4 8.45 54.05 9.65 54.65 10.8 54.7 11.75 54.8 12.65 54.2 13.25 53.8 13.65 53.15 13.65 52.15 13.55 51.55 12.2
L 52.15 12.25 52.4 11.85 50.85 11.65 50.9 11.8
Q 51.4 14.15 53.25 14.25 54.15 14.35 54.7 13.65 55.3 13 55.3 11.85 55.2 10.7 54.5 9.35 53.7 7.8 52.85 7.75 Z"/>
</g>

<g id="mc_mascote_0_Layer4_28_FILL">
<path fill="#FFFFFF" stroke="none" d="
M 54.25 5.2
L 53.45 5.3 53.6 7.15 54.25 5.2 Z"/>
</g>

<g id="mc_mascote_0_Layer4_29_FILL">
<path fill="#FFFFFF" stroke="none" d="
M 56.4 6.4
L 55.65 6.15 55 7.9 56.4 6.4 Z"/>
</g>

<g id="mc_mascote_0_Layer4_30_FILL">
<path fill="#FFFFFF" stroke="none" d="
M 57.35 8.7
L 56.75 8.15 55.45 9.55 57.35 8.7 Z"/>
</g>

<g id="mc_mascote_0_Layer4_31_FILL">
<path fill="#FFFFFF" stroke="none" d="
M 51.25 6.05
L 50.55 6.5 52.25 7.65 51.25 6.05 Z"/>
</g>

<g id="mc_mascote_0_Layer4_32_FILL">
<path fill="#FFFFFF" stroke="none" d="
M 49.6 8.15
L 49.15 8.8 51.15 9.2 49.6 8.15 Z"/>
</g>

<g id="mc_mascote_0_Layer4_33_FILL">
<path fill="#FFFFFF" stroke="none" d="
M 41.3 31.8
Q 42.45 36.05 44.35 38.05 46.85 40.7 51.6 40.7 55.75 40.7 58.55 38.2 61.1 35.9 64.15 29.85 58.1 33.05 51.25 33.05 44.45 33.05 41.3 31.8 Z"/>
</g>

<g id="mc_mascote_0_Layer4_36_FILL">
<path fill="#FFFFFF" stroke="none" d="
M 64.65 28.45
Q 63.95 28.15 63.25 28.45 62.9 28.65 62.7 28.85
L 65.55 30.55
Q 66.25 29.1 64.65 28.45 Z"/>
</g>

<g id="mc_mascote_0_Layer4_38_FILL">
<path fill="#FFFFFF" stroke="none" d="
M 42 34.3
Q 44.7 36.85 51.5 36.85 58.3 36.85 62.4 33.05
L 42 34.3 Z"/>
</g>

<g id="mc_mascote_0_Layer4_39_FILL">
<path fill="#FFFFFF" stroke="none" d="
M 41.95 30.25
Q 41.5 29.8 40.8 30.1 40 30.4 40 31.2
L 42.25 30.7
Q 42.15 30.45 41.95 30.25 Z"/>
</g>

<g id="mc_mascote_0_Layer4_41_FILL">
<path fill="#330000" stroke="none" d="
M 35.55 38.8
L 31.9 38.7 31.9 62.6 35.55 62.7 35.55 38.8
M 32.15 38.85
L 35.3 38.95 35.3 62.55 32.15 62.45 32.15 38.85 Z"/>

<path fill="#EEB200" stroke="none" d="
M 35.3 38.95
L 32.15 38.85 32.15 62.45 35.3 62.55 35.3 38.95
M 31.7 47.15
Q 31.8 47.2 31.85 47.35
L 31.85 38.85 21.2 34.9 21.2 40.6
Q 26.45 40.7 31.7 47.15
M 49.75 42
L 49.75 36.25 35.65 38.55 35.65 47.3
Q 35.85 47.15 36.05 47 42.9 41.2 49.75 42 Z"/>

<path fill="#006699" stroke="none" d="
M 31.85 51.7
Q 31.8 51.7 31.7 51.75 26.1 55.6 21.2 52
L 21.2 58.45 31.85 62.55 31.85 51.7
M 36.05 51.35
Q 35.85 51.2 35.65 51.1
L 35.65 62.5 49.75 60.15 49.75 53.35
Q 43.4 56.15 36.05 51.35 Z"/>

<path fill="#FFFFCC" stroke="none" d="
M 31.85 47.35
Q 31.8 47.2 31.7 47.15 26.45 40.7 21.2 40.6
L 21.2 52
Q 26.1 55.6 31.7 51.75 31.8 51.7 31.85 51.7
L 31.85 47.35
M 36.05 47
Q 35.85 47.15 35.65 47.3
L 35.65 51.1
Q 35.85 51.2 36.05 51.35 43.4 56.15 49.75 53.35
L 49.75 42
Q 42.9 41.2 36.05 47 Z"/>
</g>

<g id="mc_mascote_0_Layer4_42_MEMBER_0_FILL">
<path fill="#FFFFFF" stroke="none" d="
M 47.8 48.85
Q 47.7826171875 48.891796875 47.75 48.9 47.45 48.95 46.25 49 45.3 49.05 44.65 49.3 44.0708984375 49.640625 43.75 49.75 43.87890625 49.776953125 44 49.8
L 43.6 50.4
Q 42.95 50.05 41.55 50.4 40.6 50.6 40.8 51.5 40.9 52.15 42.1 53.85 43.45 55.9 44.65 56.5 45.8 57.15 46.75 57.05 47.6 56.9 47.95 56.65 49.05 56.95 50.15 56.9 51.95 56.7 52.65 55.4 53.3 54.1 52.5 52.4 51.0638671875 49.39296875 47.8 48.85 Z"/>
</g>

<g id="mc_mascote_0_Layer4_43_MEMBER_0_FILL">
<path fill="#999999" stroke="none" d="
M 20.4 36
Q 19.25 36.3 18.8 37.9 18.35 39.45 18.85 41.3 19.4 43.25 20.55 44.4 21.7 45.55 22.85 45.25 23.95 44.95 24.35 43.4 24.8 41.8 24.25 39.85 23.75 38 22.6 36.9 21.5 35.7 20.4 36 Z"/>
</g>

<g id="mc_mascote_0_Layer4_43_MEMBER_1_FILL">
<path fill="#FFFFFF" stroke="none" d="
M 20.6 36.85
Q 19.7 37.1 19.3 38.35 18.95 39.7 19.4 41.25 19.8 42.85 20.75 43.75 21.75 44.75 22.65 44.5 23.6 44.25 23.9 42.9 24.25 41.65 23.85 40.05 23.4 38.5 22.45 37.5 21.55 36.6 20.6 36.85 Z"/>
</g>

<g id="Graficos_gr_olhos_0_Layer0_0_FILL">
<path fill="#000000" stroke="none" d="
M 2.1 0
Q 0.3 0 0.05 1.8 -0.3 3.6 1.5 3.6 3.35 3.6 3.6 1.8 3.85 0 2.1 0
M 11.95 0
Q 10.2 0 9.85 1.8 9.6 3.6 11.35 3.6 13.2 3.6 13.45 1.8 13.7 0 11.95 0 Z"/>
</g>

<g id="Graficos_gr_olhos_0_Layer0_0_MEMBER_0_FILL">
<path fill="#FFFFFF" stroke="none" d="
M 2.7 2.3
Q 2.9 1.15 1.75 1.15 0.65 1.15 0.45 2.3 0.25 3.4 1.4 3.4 2.5 3.4 2.7 2.3
M 12.55 2.3
Q 12.75 1.15 11.6 1.15 10.5 1.15 10.3 2.3 10.1 3.4 11.25 3.4 12.35 3.4 12.55 2.3 Z"/>
</g>

<g id="Graficos_gr_det_0_Layer0_0_FILL">
<path fill="#0D0057" stroke="none" d="
M 1 0
L 0 6.35 2.7 6.35 1 0 Z"/>
</g>

<g id="Layer0_0_MEMBER_4_MEMBER_0_FILL">
<path fill="#5BAD0A" stroke="none" d="
M 297.95 519.5
L 301.35 519.3 191.45 438.7 82.35 446.6 172.9 526.65 297.95 519.5 Z"/>

<path fill="#3B9846" stroke="none" d="
M 172.55 526.65
L 172.9 526.65 82.35 446.6
Q 75 461.95 81.4 473.4
L 169.75 553.55 171.65 553.55
Q 165.55 540.05 172.55 526.65 Z"/>

<path fill="#2E7637" stroke="none" d="
M 173.9 527.55
L 172.55 526.65
Q 165.55 540.05 171.65 553.55
L 298.45 546.1 297.95 519.5 172.9 526.65 173.9 527.55
M 178.05 549.45
L 178.7 528.9 296.55 523.4 296.55 543.3 178.05 549.45 Z"/>

<path fill="#FFFFFF" stroke="none" d="
M 178.7 528.9
L 178.05 549.45 296.55 543.3 296.55 523.4 178.7 528.9 Z"/>
</g>

<g id="Layer0_0_MEMBER_4_MEMBER_1_FILL">
<path fill="#D92746" stroke="none" d="
M 171.65 485.55
Q 165.55 472.05 172.55 458.6
L 172.9 458.6 82.35 378.55
Q 75.05 393.9 81.4 405.35
L 169.75 485.55 171.65 485.55 Z"/>

<path fill="#7C1729" stroke="none" d="
M 298.45 478.05
L 298 451.45 172.9 458.6 173.95 459.5 172.55 458.6
Q 165.55 472.05 171.65 485.55
L 298.45 478.05
M 296.55 455.4
L 296.55 475.25 178.05 481.4 178.75 460.85 296.55 455.4 Z"/>

<path fill="#FFFFFF" stroke="none" d="
M 296.55 475.25
L 296.55 455.4 178.75 460.85 178.05 481.4 296.55 475.25 Z"/>

<path fill="#BD0A2A" stroke="none" d="
M 191.5 370.65
L 82.35 378.55 172.9 458.6 298 451.45 301.35 451.25 191.5 370.65 Z"/>
</g>

<g id="Layer0_0_MEMBER_4_MEMBER_2_FILL">
<path fill="#2E7637" stroke="none" d="
M 224.45 444.4
L 223.05 443.5
Q 216.05 456.95 222.15 470.45
L 348.95 462.95 348.5 436.35 223.4 443.5 224.45 444.4
M 228.55 466.3
L 229.25 445.75 347.05 440.3 347.05 460.15 228.55 466.3 Z"/>

<path fill="#FFFFFF" stroke="none" d="
M 229.25 445.75
L 228.55 466.3 347.05 460.15 347.05 440.3 229.25 445.75 Z"/>

<path fill="#5BAD0A" stroke="none" d="
M 241.95 355.55
L 132.85 363.45 223.4 443.5 348.5 436.35 351.85 436.15 241.95 355.55 Z"/>

<path fill="#3B9846" stroke="none" d="
M 132.85 363.45
Q 125.55 378.8 131.9 390.25
L 220.25 470.45 222.15 470.45
Q 216.05 456.95 223.05 443.5
L 223.4 443.5 132.85 363.45 Z"/>
</g>

<g id="Layer0_0_MEMBER_4_MEMBER_3_FILL">
<path fill="#393A59" stroke="none" d="
M 218.3 427.5
L 216.9 426.6
Q 209.9 440 216 453.5
L 342.8 446.05 342.35 419.45 217.25 426.6 218.3 427.5
M 222.4 449.4
L 223.1 428.85 340.9 423.35 340.9 443.25 222.4 449.4 Z"/>

<path fill="#FFFFFF" stroke="none" d="
M 223.1 428.85
L 222.4 449.4 340.9 443.25 340.9 423.35 223.1 428.85 Z"/>

<path fill="#1A4AAE" stroke="none" d="
M 235.85 338.65
L 126.7 346.55 217.25 426.6 342.35 419.45 345.7 419.25 235.85 338.65 Z"/>

<path fill="#2B89D2" stroke="none" d="
M 126.7 346.55
Q 119.4 361.9 125.75 373.35
L 214.1 453.5 216 453.5
Q 209.9 440 216.9 426.6
L 217.25 426.6 126.7 346.55 Z"/>
</g>

<g id="Layer0_0_MEMBER_4_MEMBER_4_FILL">
<path fill="#7C1729" stroke="none" d="
M 211.3 392.55
L 209.9 391.65
Q 202.95 405.1 209.05 418.6
L 335.85 411.1 335.35 384.5 210.25 391.65 211.3 392.55
M 216.1 393.9
L 333.9 388.45 333.9 408.3 215.4 414.5 216.1 393.9 Z"/>

<path fill="#FFFFFF" stroke="none" d="
M 333.9 388.45
L 216.1 393.9 215.4 414.5 333.9 408.3 333.9 388.45 Z"/>

<path fill="#D92746" stroke="none" d="
M 119.7 311.6
Q 112.4 326.95 118.75 338.4
L 207.1 418.6 209.05 418.6
Q 202.95 405.1 209.9 391.65
L 210.25 391.65 119.7 311.6 Z"/>

<path fill="#BD0A2A" stroke="none" d="
M 335.35 384.5
L 338.7 384.3 228.85 303.7 119.7 311.6 210.25 391.65 335.35 384.5 Z"/>
</g>

<g id="Layer0_0_MEMBER_4_MEMBER_5_FILL">
<path fill="#3B9846" stroke="none" d="
M 131.4 279.4
Q 124.1 294.75 130.45 306.2
L 218.8 386.35 220.75 386.35
Q 214.65 372.85 221.6 359.45
L 221.95 359.45 131.4 279.4 Z"/>

<path fill="#5BAD0A" stroke="none" d="
M 347.05 352.3
L 350.4 352.1 240.55 271.5 131.4 279.4 221.95 359.45 347.05 352.3 Z"/>

<path fill="#2E7637" stroke="none" d="
M 347.5 378.9
L 347.05 352.3 221.95 359.45 223 360.3 221.6 359.45
Q 214.65 372.85 220.75 386.35
L 347.5 378.9
M 345.6 356.2
L 345.6 376.1 227.1 382.25 227.8 361.7 345.6 356.2 Z"/>

<path fill="#FFFFFF" stroke="none" d="
M 345.6 376.1
L 345.6 356.2 227.8 361.7 227.1 382.25 345.6 376.1 Z"/>
</g>

<g id="Layer0_0_MEMBER_5_MEMBER_0_FILL">
<path fill="#F5F6F0" stroke="none" d="
M 132.05 283.6
Q 104.9 281.55 63.35 330.6 10.65 395.95 -8 371.25
L 18.55 469.4
Q 37.2 494.1 90 428.8 135.05 375.45 163.35 382.45
L 132.05 283.6
M 59.7 344.7
L 69.85 334.3 93.6 409.05 82.9 423.2 59.7 344.7
M 12.5 385.7
L 25.2 378.15 49.6 453.45 35.65 464.5 12.5 385.7
M 37.8 369.25
L 48.4 359.55 70.95 432.95 59.45 446.35 37.8 369.25
M 81.25 319.45
L 94 311.9 118.4 387.3 104.5 398.25 81.25 319.45
M 145.85 371.4
L 130.45 380.7 107.7 300.75 121.95 294.8 145.85 371.4 Z"/>

<path fill="#757A63" stroke="none" d="
M 130.45 380.7
L 145.85 371.4 121.95 294.8 107.7 300.75 130.45 380.7
M 94 311.9
L 81.25 319.45 104.5 398.25 118.4 387.3 94 311.9
M 48.4 359.55
L 37.8 369.25 59.45 446.35 70.95 432.95 48.4 359.55
M 69.85 334.3
L 59.7 344.7 82.9 423.2 93.6 409.05 69.85 334.3 Z"/>

<path fill="#5D5B4C" stroke="none" d="
M 25.2 378.15
L 12.5 385.7 35.65 464.5 49.6 453.45 25.2 378.15 Z"/>
</g>

<g id="Layer0_0_MEMBER_5_MEMBER_1_FILL">
<path fill="#F5F6F0" stroke="none" d="
M 86.45 449.45
Q 3.4 461.8 6.4 430.95
L -40.55 521.25
Q -43.5 552 39.55 539.75 108.8 531 124.9 555.3
L 168.9 461.35
Q 150.2 441.45 86.45 449.45
M 139.25 457.5
L 153.8 462.75 119.55 535.3 101.85 531.75 139.25 457.5
M 107.2 453.35
L 121.6 456.4 88.55 528.35 70.95 527.1 107.2 453.35
M 11.7 455.5
L 26.15 458.6 -6.85 530.5 -24.6 529.2 11.7 455.5
M 41.5 460.6
L 55.8 460.6 22.75 529.9 5.15 531.95 41.5 460.6
M 55.6 527.6
L 38.1 530.8 74.2 457.35 88.7 456.55 55.6 527.6 Z"/>

<path fill="#757A63" stroke="none" d="
M 38.1 530.8
L 55.6 527.6 88.7 456.55 74.2 457.35 38.1 530.8
M 55.8 460.6
L 41.5 460.6 5.15 531.95 22.75 529.9 55.8 460.6
M 121.6 456.4
L 107.2 453.35 70.95 527.1 88.55 528.35 121.6 456.4
M 153.8 462.75
L 139.25 457.5 101.85 531.75 119.55 535.3 153.8 462.75 Z"/>

<path fill="#5D5B4C" stroke="none" d="
M 26.15 458.6
L 11.7 455.5 -24.6 529.2 -6.85 530.5 26.15 458.6 Z"/>
</g>

<g id="Layer0_0_MEMBER_5_MEMBER_2_FILL">
<path fill="#F5F6F0" stroke="none" d="
M 90.8 520.7
Q 95.9 493.85 51.95 446.95 -6.85 386.95 19.95 371.25
L -80.7 386.3
Q -107.35 402 -48.7 462.05 -0.85 512.95 -11.1 540.2
L 90.8 520.7
M 16.6 417.05
L 25 428.7 -50.55 442.65 -62.55 429.55 16.6 417.05
M 61 466.05
L 67 479.5 -10.7 494.95 -20 479.95 61 466.05
M 38.45 441.65
L 47.55 452.9 -29.35 467.9 -42.2 455.6 38.45 441.65
M 80.75 509.25
L 1.9 524.1 -5.55 507.75 76.4 494.45 80.75 509.25
M 3.15 390.05
L 9.25 403.55 -68.45 419.05 -77.8 403.85 3.15 390.05 Z"/>

<path fill="#5D5B4C" stroke="none" d="
M 9.25 403.55
L 3.15 390.05 -77.8 403.85 -68.45 419.05 9.25 403.55 Z"/>

<path fill="#757A63" stroke="none" d="
M 1.9 524.1
L 80.75 509.25 76.4 494.45 -5.55 507.75 1.9 524.1
M 47.55 452.9
L 38.45 441.65 -42.2 455.6 -29.35 467.9 47.55 452.9
M 67 479.5
L 61 466.05 -20 479.95 -10.7 494.95 67 479.5
M 25 428.7
L 16.6 417.05 -62.55 429.55 -50.55 442.65 25 428.7 Z"/>
</g>

<g id="Layer0_0_MEMBER_5_MEMBER_3_FILL">
<path fill="#F5F6F0" stroke="none" d="
M 99.15 339.65
Q 18.6 316.25 34.1 289.5
L -46.15 351.8
Q -61.7 378.65 18.9 402.1 85.45 423.15 89.8 451.85
L 169.05 384.85
Q 160.4 359 99.15 339.65
M 53.65 330.95
L 66.7 337 7.65 386.2 -9.15 380.8 53.65 330.95
M 28.75 313.95
L 40.6 322.75 -19.5 374.4 -35 365.8 28.75 313.95
M 143.75 369.15
L 154.8 379.85 93.45 431.6 78.9 420.8 143.75 369.15
M 84.8 341.8
L 98.25 347.05 38.5 397.85 21.2 393.4 84.8 341.8
M 116.35 351.95
L 128.2 360.7 68.1 412.4 52.6 403.75 116.35 351.95 Z"/>

<path fill="#757A63" stroke="none" d="
M 128.2 360.7
L 116.35 351.95 52.6 403.75 68.1 412.4 128.2 360.7
M 98.25 347.05
L 84.8 341.8 21.2 393.4 38.5 397.85 98.25 347.05
M 154.8 379.85
L 143.75 369.15 78.9 420.8 93.45 431.6 154.8 379.85
M 66.7 337
L 53.65 330.95 -9.15 380.8 7.65 386.2 66.7 337 Z"/>

<path fill="#5D5B4C" stroke="none" d="
M 40.6 322.75
L 28.75 313.95 -35 365.8 -19.5 374.4 40.6 322.75 Z"/>
</g>

<g id="Layer0_0_MEMBER_5_MEMBER_4_FILL">
<path fill="#F5F6F0" stroke="none" d="
M 114.2 304.5
Q 30.95 314.7 34.7 284
L -14.55 373
Q -18.25 403.75 65 393.55 134.5 386.6 149.95 411.3
L 196.35 318.5
Q 178.15 298.15 114.2 304.5
M 18.9 383.2
L 1.25 381.4 39.4 308.6 53.75 312.05 18.9 383.2
M 30.9 385
L 69 314.45 83.4 314.8 48.5 383.35 30.9 385
M 134.85 308.95
L 149.25 312.4 114.35 383.55 96.75 381.75 134.85 308.95
M 101.9 312.1
L 116.3 311.65 81.4 381.9 63.8 384.65 101.9 312.1
M 145.2 391.2
L 127.6 387.1 166.85 313.95 181.25 319.5 145.2 391.2 Z"/>

<path fill="#757A63" stroke="none" d="
M 127.6 387.1
L 145.2 391.2 181.25 319.5 166.85 313.95 127.6 387.1
M 116.3 311.65
L 101.9 312.1 63.8 384.65 81.4 381.9 116.3 311.65
M 149.25 312.4
L 134.85 308.95 96.75 381.75 114.35 383.55 149.25 312.4
M 69 314.45
L 30.9 385 48.5 383.35 83.4 314.8 69 314.45 Z"/>

<path fill="#5D5B4C" stroke="none" d="
M 1.25 381.4
L 18.9 383.2 53.75 312.05 39.4 308.6 1.25 381.4 Z"/>
</g>

<g id="Layer0_0_MEMBER_5_MEMBER_5_FILL">
<path fill="#F5F6F0" stroke="none" d="
M 61.15 516.5
Q 28.95 439 59.6 434.4
L -39.3 410.8
Q -70 415.5 -37.8 493 -12.5 558.05 -32.1 579.55
L 69.65 599.35
Q 84.45 576.4 61.15 516.5
M 37.1 445.5
L 37.65 460.3 -40.2 445.75 -43.2 428.3 37.1 445.5
M 39.45 475.6
L 42.95 489.5 -32.4 474.35 -38.7 457.75 39.45 475.6
M 50.55 506.65
L 54.85 520.4 -22.15 505.6 -29.5 489.45 50.55 506.65
M 66.15 569.75
L 64.65 585.1 -14.1 569.55 -14.85 551.55 66.15 569.75
M 62.4 537.55
L 62.95 552.35 -14.9 537.8 -17.9 520.35 62.4 537.55 Z"/>

<path fill="#757A63" stroke="none" d="
M 62.95 552.35
L 62.4 537.55 -17.9 520.35 -14.9 537.8 62.95 552.35
M 64.65 585.1
L 66.15 569.75 -14.85 551.55 -14.1 569.55 64.65 585.1
M 54.85 520.4
L 50.55 506.65 -29.5 489.45 -22.15 505.6 54.85 520.4
M 42.95 489.5
L 39.45 475.6 -38.7 457.75 -32.4 474.35 42.95 489.5 Z"/>

<path fill="#5D5B4C" stroke="none" d="
M 37.65 460.3
L 37.1 445.5 -43.2 428.3 -40.2 445.75 37.65 460.3 Z"/>
</g>

<g id="Layer0_0_MEMBER_5_MEMBER_6_FILL">
<path fill="#F5F6F0" stroke="none" d="
M 80.1 508.3
Q 8.25 464.75 30.25 442.95
L -63.5 482.45
Q -85.45 504.25 -13.65 547.85 45.2 585.3 42.05 614.3
L 135.9 570.1
Q 134.25 542.9 80.1 508.3
M 18.7 465.25
L 27.85 476.8 -43.5 511.1 -56.3 498.75 18.7 465.25
M 65.65 506.55
L 77.3 515.2 6.4 548.7 -9.1 540 65.65 506.55
M 31.3 570.4
L 18.55 558.1 93.5 524.5 102.7 536.1 31.3 570.4
M 115.6 548.25
L 123.4 561.55 50.7 595.55 39.4 581.5 115.6 548.25
M 38.35 488.15
L 49.4 497.3 -20.3 529.55 -35.2 519.85 38.35 488.15 Z"/>

<path fill="#757A63" stroke="none" d="
M 49.4 497.3
L 38.35 488.15 -35.2 519.85 -20.3 529.55 49.4 497.3
M 123.4 561.55
L 115.6 548.25 39.4 581.5 50.7 595.55 123.4 561.55
M 18.55 558.1
L 31.3 570.4 102.7 536.1 93.5 524.5 18.55 558.1
M 77.3 515.2
L 65.65 506.55 -9.1 540 6.4 548.7 77.3 515.2 Z"/>

<path fill="#5D5B4C" stroke="none" d="
M 27.85 476.8
L 18.7 465.25 -56.3 498.75 -43.5 511.1 27.85 476.8 Z"/>
</g>

<path id="mc_mascote_0_Layer4_2_1_STROKES" stroke="#999999" stroke-width="1" stroke-linejoin="round" stroke-linecap="round" fill="none" d="
M 35.55 65.1
Q 35.55 63.55 37.75 62.4 39.9 61.3 43 61.3 46.35 61.3 49.25 62.25 52.5 63.3 52.5 64.75 52.5 66.25 49.25 67.55 46.15 68.85 43 68.85 39.95 68.85 37.75 67.75 35.55 66.65 35.55 65.1 Z"/>

<path id="mc_mascote_0_Layer4_4_1_STROKES" stroke="#999999" stroke-width="1" stroke-linejoin="round" stroke-linecap="round" fill="none" d="
M 34.85 64.75
Q 34.85 63.2 37.05 62.1 39.2 61 42.25 61 45.6 61 48.55 61.95 51.8 62.95 51.8 64.4 51.8 65.95 48.55 67.25 45.45 68.55 42.25 68.55 39.2 68.55 37.05 67.45 34.85 66.3 34.85 64.75 Z"/>

<path id="mc_mascote_0_Layer4_6_1_STROKES" stroke="#999999" stroke-width="1" stroke-linejoin="round" stroke-linecap="round" fill="none" d="
M 59 67.5
Q 62.1 68.8 65.25 68.8 68.35 68.8 70.5 67.7 72.7 66.6 72.7 65 72.7 63.45 70.5 62.3 68.35 61.2 65.25 61.2 61.9 61.2 59 62.15 55.75 63.2 55.75 64.65 55.75 66.15 59 67.5 Z"/>

<path id="mc_mascote_0_Layer4_8_1_STROKES" stroke="#999999" stroke-width="1" stroke-linejoin="round" stroke-linecap="round" fill="none" d="
M 59.7 67.15
Q 62.8 68.45 66 68.45 69.05 68.45 71.2 67.35 73.4 66.25 73.4 64.7 73.4 63.15 71.2 62 69.05 60.9 66 60.9 62.6 60.9 59.7 61.85 56.45 62.85 56.45 64.35 56.45 65.85 59.7 67.15 Z"/>

<path id="mc_mascote_0_Layer4_10_1_STROKES" stroke="#999999" stroke-width="1" stroke-linejoin="round" stroke-linecap="round" fill="none" d="
M 67.2 21.15
Q 61.55 8.45 54.75 8.45 48 8.45 42.2 21.15 37.05 32.6 36.9 42.95 36.8 52 41.9 58.35 47 64.75 54.3 64.75 61.6 64.75 66.85 58.35 72.1 52 72.2 42.95 72.35 32.7 67.2 21.15 Z"/>

<path id="mc_mascote_0_Layer4_13_1_STROKES" stroke="#999999" stroke-width="1" stroke-linejoin="round" stroke-linecap="round" fill="none" d="
M 65.45 22.9
Q 60.2 11.1 53.85 11.1 47.6 11.1 42.25 22.9 37.45 33.55 37.3 43.1 37.2 51.5 41.9 57.45 46.65 63.4 53.45 63.4 60.25 63.4 65.1 57.45 70 51.5 70.1 43.1 70.25 33.6 65.45 22.9 Z"/>

<path id="mc_mascote_0_Layer4_15_1_STROKES" stroke="#999999" stroke-width="1" stroke-linejoin="round" stroke-linecap="round" fill="none" d="
M 68.6 45.65
Q 58.55 53.8 56.2 53.7 53.85 53.65 48.55 56
L 48.75 53.25
Q 53.65 50.9 55.5 50.45 56.3 50.25 59.15 47.05
L 61.9 43.95"/>

<path id="mc_mascote_0_Layer4_17_1_STROKES" stroke="#000000" stroke-width="1" stroke-linejoin="round" stroke-linecap="round" fill="none" d="
M 43.65 27
Q 44.6 28.1 46.2 28.1 47.8 28.1 49.1 27 50.45 25.85 50.7 24.25 50.9 22.65 49.95 21.5 49.05 20.4 47.45 20.4 45.85 20.4 44.5 21.5 43.2 22.65 42.95 24.25 42.7 25.85 43.65 27 Z"/>

<path id="mc_mascote_0_Layer4_21_1_STROKES" stroke="#FFFFFF" stroke-width="1" stroke-linejoin="round" stroke-linecap="round" fill="none" d="
M 60.1 24.05
L 70.65 21.05 69.5 18.45 60.15 22.1 60.1 24.05 Z"/>

<path id="mc_mascote_0_Layer4_22_1_STROKES" stroke="#000000" stroke-width="1" stroke-linejoin="round" stroke-linecap="round" fill="none" d="
M 53.35 27.05
Q 54.3 28.15 55.9 28.15 57.5 28.15 58.8 27.05 60.15 25.9 60.4 24.3 60.65 22.7 59.7 21.55 58.75 20.45 57.15 20.45 55.55 20.45 54.2 21.55 52.9 22.7 52.65 24.3 52.4 25.9 53.35 27.05 Z"/>

<path id="mc_mascote_0_Layer4_34_1_STROKES" stroke="#999999" stroke-width="1" stroke-linejoin="round" stroke-linecap="round" fill="none" d="
M 41.3 31.8
Q 42.45 36.05 44.35 38.05 46.85 40.7 51.6 40.7 55.75 40.7 58.55 38.2 61.1 35.9 64.15 29.85 58.1 33.05 51.25 33.05 44.45 33.05 41.3 31.8 Z"/>

<path id="mc_mascote_0_Layer4_35_1_STROKES" stroke="#999999" stroke-width="1" stroke-linejoin="round" stroke-linecap="round" fill="none" d="
M 65.55 30.55
Q 66.25 29.1 64.65 28.45 63.95 28.15 63.25 28.45 62.9 28.65 62.7 28.85"/>

<path id="mc_mascote_0_Layer4_37_1_STROKES" stroke="#999999" stroke-width="1" stroke-linejoin="round" stroke-linecap="round" fill="none" d="
M 42.25 30.7
Q 42.15 30.45 41.95 30.25 41.5 29.8 40.8 30.1 40 30.4 40 31.2"/>

<path id="mc_mascote_0_Layer4_40_1_STROKES" stroke="#999999" stroke-width="1" stroke-linejoin="round" stroke-linecap="round" fill="none" d="
M 62.4 33.05
Q 58.3 36.85 51.5 36.85 44.7 36.85 42 34.3"/>

<path id="mc_mascote_0_Layer4_41_1_STROKES" stroke="#666666" stroke-width="1" stroke-linejoin="round" stroke-linecap="round" fill="none" d="
M 31.9 38.7
L 31.9 62.6 35.55 62.7 35.55 38.8 31.9 38.7 Z"/>

<path id="mc_mascote_0_Layer4_42_MEMBER_1_1_STROKES" stroke="#999999" stroke-width="1" stroke-linejoin="round" stroke-linecap="round" fill="none" d="
M 44 49.8
Q 47.4455078125 47.1046875 50.5 49.725 53.5513671875 52.34453125 52.75 54.525 51.9474609375 56.7 50.15 56.9 49.05 56.95 47.95 56.65 47.6 56.9 46.75 57.05 45.8 57.15 44.65 56.5 43.45 55.9 42.1 53.85 40.9 52.15 40.8 51.5 40.6 50.6 41.55 50.4 42.95 50.05 43.6 50.4
L 44 49.8 Z"/>

<path id="Layer0_0_MEMBER_5_MEMBER_0_1_STROKES" stroke="#999999" stroke-width="1" stroke-linejoin="round" stroke-linecap="round" fill="none" d="
M 132.05 283.6
L 163.35 382.45
Q 135.05 375.45 90 428.8 37.2 494.1 18.55 469.4
L -8 371.25
Q 10.65 395.95 63.35 330.6 104.9 281.55 132.05 283.6 Z"/>

<path id="Layer0_0_MEMBER_5_MEMBER_1_1_STROKES" stroke="#999999" stroke-width="1" stroke-linejoin="round" stroke-linecap="round" fill="none" d="
M 168.9 461.35
L 124.9 555.3
Q 108.8 531 39.55 539.75 -43.5 552 -40.55 521.25
L 6.4 430.95
Q 3.4 461.8 86.45 449.45 150.2 441.45 168.9 461.35 Z"/>

<path id="Layer0_0_MEMBER_5_MEMBER_2_1_STROKES" stroke="#999999" stroke-width="1" stroke-linejoin="round" stroke-linecap="round" fill="none" d="
M -11.1 540.2
Q -0.85 512.95 -48.7 462.05 -107.35 402 -80.7 386.3
L 19.95 371.25
Q -6.85 386.95 51.95 446.95 95.9 493.85 90.8 520.7
L -11.1 540.2 Z"/>

<path id="Layer0_0_MEMBER_5_MEMBER_3_1_STROKES" stroke="#999999" stroke-width="1" stroke-linejoin="round" stroke-linecap="round" fill="none" d="
M 34.1 289.5
Q 18.6 316.25 99.15 339.65 160.4 359 169.05 384.85
L 89.8 451.85
Q 85.45 423.15 18.9 402.1 -61.7 378.65 -46.15 351.8
L 34.1 289.5 Z"/>

<path id="Layer0_0_MEMBER_5_MEMBER_4_1_STROKES" stroke="#999999" stroke-width="1" stroke-linejoin="round" stroke-linecap="round" fill="none" d="
M 34.7 284
Q 30.95 314.7 114.2 304.5 178.15 298.15 196.35 318.5
L 149.95 411.3
Q 134.5 386.6 65 393.55 -18.25 403.75 -14.55 373
L 34.7 284 Z"/>

<path id="Layer0_0_MEMBER_5_MEMBER_5_1_STROKES" stroke="#999999" stroke-width="1" stroke-linejoin="round" stroke-linecap="round" fill="none" d="
M 69.65 599.35
L -32.1 579.55
Q -12.5 558.05 -37.8 493 -70 415.5 -39.3 410.8
L 59.6 434.4
Q 28.95 439 61.15 516.5 84.45 576.4 69.65 599.35 Z"/>

<path id="Layer0_0_MEMBER_5_MEMBER_6_1_STROKES" stroke="#999999" stroke-width="1" stroke-linejoin="round" stroke-linecap="round" fill="none" d="
M 135.9 570.1
L 42.05 614.3
Q 45.2 585.3 -13.65 547.85 -85.45 504.25 -63.5 482.45
L 30.25 442.95
Q 8.25 464.75 80.1 508.3 134.25 542.9 135.9 570.1 Z"/>
</defs>

<g transform="matrix( 1, 0, 0, 1, 89.05,46.25) ">
<use xlink:href="#Layer0_0_FILL"/>
</g>

<g transform="matrix( 1, 0, 0, 1, 89.05,46.25) ">
<use xlink:href="#Layer0_0_MEMBER_0_FILL"/>
</g>

<g transform="matrix( 1, 0, 0, 1, 89.05,46.25) ">
<use xlink:href="#Layer0_0_MEMBER_0_MEMBER_0_MEMBER_0_FILL"/>
</g>

<g transform="matrix( 1, 0, 0, 1, 89.05,46.25) ">
<use xlink:href="#Layer0_0_MEMBER_0_MEMBER_0_MEMBER_1_FILL"/>
</g>

<g transform="matrix( 1, 0, 0, 1, 89.05,46.25) ">
<use xlink:href="#Layer0_0_MEMBER_0_MEMBER_1_FILL"/>
</g>

<g transform="matrix( 1, 0, 0, 1, 89.05,46.25) ">
<use xlink:href="#Layer0_0_MEMBER_0_MEMBER_2_MEMBER_0_FILL"/>
</g>

<g transform="matrix( 1, 0, 0, 1, 89.05,46.25) ">
<use xlink:href="#Layer0_0_MEMBER_0_MEMBER_2_MEMBER_1_FILL"/>
</g>

<g transform="matrix( 1, 0, 0, 1, 89.05,46.25) ">
<use xlink:href="#Layer0_0_MEMBER_0_MEMBER_2_MEMBER_2_FILL"/>
</g>

<g transform="matrix( 1, 0, 0, 1, 89.05,46.25) ">
<use xlink:href="#Layer0_0_MEMBER_0_MEMBER_2_MEMBER_3_FILL"/>
</g>

<g transform="matrix( 1, 0, 0, 1, 89.05,46.25) ">
<use xlink:href="#Layer0_0_MEMBER_0_MEMBER_2_MEMBER_4_FILL"/>
</g>

<g transform="matrix( 1, 0, 0, 1, 89.05,46.25) ">
<use xlink:href="#Layer0_0_MEMBER_1_FILL"/>
</g>

<g transform="matrix( 1, 0, 0, 1, 89.05,46.25) ">
<use xlink:href="#Layer0_0_MEMBER_1_MEMBER_0_MEMBER_0_FILL"/>
</g>

<g transform="matrix( 1, 0, 0, 1, 89.05,46.25) ">
<use xlink:href="#Layer0_0_MEMBER_1_MEMBER_0_MEMBER_1_FILL"/>
</g>

<g transform="matrix( 1, 0, 0, 1, 89.05,46.25) ">
<use xlink:href="#Layer0_0_MEMBER_1_MEMBER_1_MEMBER_0_FILL"/>
</g>

<g transform="matrix( 1, 0, 0, 1, 89.05,46.25) ">
<use xlink:href="#Layer0_0_MEMBER_1_MEMBER_1_MEMBER_1_FILL"/>
</g>

<g transform="matrix( 1, 0, 0, 1, 89.05,46.25) ">
<use xlink:href="#Layer0_0_MEMBER_1_MEMBER_1_MEMBER_2_FILL"/>
</g>

<g transform="matrix( 1, 0, 0, 1, 89.05,46.25) ">
<use xlink:href="#Layer0_0_MEMBER_1_MEMBER_1_MEMBER_3_FILL"/>
</g>

<g transform="matrix( 1, 0, 0, 1, 89.05,46.25) ">
<use xlink:href="#Layer0_0_MEMBER_1_MEMBER_1_MEMBER_4_FILL"/>
</g>

<g transform="matrix( 1, 0, 0, 1, 89.05,46.25) ">
<use xlink:href="#Layer0_0_MEMBER_2_MEMBER_0_FILL"/>
</g>

<g transform="matrix( 1, 0, 0, 1, 89.05,46.25) ">
<use xlink:href="#Layer0_0_MEMBER_2_MEMBER_1_FILL"/>
</g>

<g transform="matrix( 1, 0, 0, 1, 89.05,46.25) ">
<use xlink:href="#Layer0_0_MEMBER_2_MEMBER_2_FILL"/>
</g>

<g transform="matrix( 1, 0, 0, 1, 89.05,46.25) ">
<use xlink:href="#Layer0_0_MEMBER_2_MEMBER_3_FILL"/>
</g>

<g transform="matrix( -7.9475555419921875, 0, 0, 7.9475555419921875, 894.25,6.75) ">
<g transform="matrix( 1, 0, 0, 1, 0,0) ">
<use xlink:href="#mc_mascote_0_Layer4_0_FILL"/>
</g>

<g transform="matrix( 1, 0, 0, 1, 0,0) ">
<use xlink:href="#mc_mascote_0_Layer4_1_FILL"/>
</g>

<g transform="matrix( 1, 0, 0, 1, 0,0) ">
<use xlink:href="#mc_mascote_0_Layer4_2_1_STROKES"/>
</g>

<g transform="matrix( 1, 0, 0, 1, 0,0) ">
<use xlink:href="#mc_mascote_0_Layer4_3_FILL"/>
</g>

<g transform="matrix( 1, 0, 0, 1, 0,0) ">
<use xlink:href="#mc_mascote_0_Layer4_4_1_STROKES"/>
</g>

<g transform="matrix( 1, 0, 0, 1, 0,0) ">
<use xlink:href="#mc_mascote_0_Layer4_5_FILL"/>
</g>

<g transform="matrix( 1, 0, 0, 1, 0,0) ">
<use xlink:href="#mc_mascote_0_Layer4_6_1_STROKES"/>
</g>

<g transform="matrix( 1, 0, 0, 1, 0,0) ">
<use xlink:href="#mc_mascote_0_Layer4_7_FILL"/>
</g>

<g transform="matrix( 1, 0, 0, 1, 0,0) ">
<use xlink:href="#mc_mascote_0_Layer4_8_1_STROKES"/>
</g>

<g transform="matrix( 1, 0, 0, 1, 0,0) ">
<use xlink:href="#mc_mascote_0_Layer4_9_FILL"/>
</g>

<g transform="matrix( 1, 0, 0, 1, 0,0) ">
<use xlink:href="#mc_mascote_0_Layer4_10_1_STROKES"/>
</g>

<g transform="matrix( 1, 0, 0, 1, 0,0) ">
<use xlink:href="#mc_mascote_0_Layer4_11_FILL"/>
</g>

<g transform="matrix( 1, 0, 0, 1, 0,0) ">
<use xlink:href="#mc_mascote_0_Layer4_12_FILL"/>
</g>

<g transform="matrix( 1, 0, 0, 1, 0,0) ">
<use xlink:href="#mc_mascote_0_Layer4_13_1_STROKES"/>
</g>

<g transform="matrix( 1, 0, 0, 1, 0,0) ">
<use xlink:href="#mc_mascote_0_Layer4_14_FILL"/>
</g>

<g transform="matrix( 1, 0, 0, 1, 0,0) ">
<use xlink:href="#mc_mascote_0_Layer4_15_1_STROKES"/>
</g>

<g transform="matrix( 1, 0, 0, 1, 0,0) ">
<use xlink:href="#mc_mascote_0_Layer4_16_FILL"/>
</g>

<g transform="matrix( 1, 0, 0, 1, 0,0) ">
<use xlink:href="#mc_mascote_0_Layer4_17_1_STROKES"/>
</g>

<g transform="matrix( 1, 0, 0, 1, 0,0) ">
<use xlink:href="#mc_mascote_0_Layer4_18_FILL"/>
</g>

<g transform="matrix( 1, 0, 0, 1, 0,0) ">
<use xlink:href="#mc_mascote_0_Layer4_19_FILL"/>
</g>

<g transform="matrix( 1, 0, 0, 1, 0,0) ">
<use xlink:href="#mc_mascote_0_Layer4_20_FILL"/>
</g>

<g transform="matrix( 1, 0, 0, 1, 0,0) ">
<use xlink:href="#mc_mascote_0_Layer4_21_1_STROKES"/>
</g>

<g transform="matrix( 1, 0, 0, 1, 0,0) ">
<use xlink:href="#mc_mascote_0_Layer4_22_1_STROKES"/>
</g>

<g transform="matrix( 1, 0, 0, 1, 0,0) ">
<use xlink:href="#mc_mascote_0_Layer4_23_FILL"/>
</g>

<g transform="matrix( 1, 0, 0, 1, 0,0) ">
<use xlink:href="#mc_mascote_0_Layer4_24_FILL"/>
</g>

<g transform="matrix( 1, 0, 0, 1, 0,0) ">
<use xlink:href="#mc_mascote_0_Layer4_25_FILL"/>
</g>

<g transform="matrix( 1, 0, 0, 1, 0,0) ">
<use xlink:href="#mc_mascote_0_Layer4_26_FILL"/>
</g>

<g transform="matrix( 1, 0, 0, 1, 0,0) ">
<use xlink:href="#mc_mascote_0_Layer4_27_FILL"/>
</g>

<g transform="matrix( 1, 0, 0, 1, 0,0) ">
<use xlink:href="#mc_mascote_0_Layer4_28_FILL"/>
</g>

<g transform="matrix( 1, 0, 0, 1, 0,0) ">
<use xlink:href="#mc_mascote_0_Layer4_29_FILL"/>
</g>

<g transform="matrix( 1, 0, 0, 1, 0,0) ">
<use xlink:href="#mc_mascote_0_Layer4_30_FILL"/>
</g>

<g transform="matrix( 1, 0, 0, 1, 0,0) ">
<use xlink:href="#mc_mascote_0_Layer4_31_FILL"/>
</g>

<g transform="matrix( 1, 0, 0, 1, 0,0) ">
<use xlink:href="#mc_mascote_0_Layer4_32_FILL"/>
</g>

<g transform="matrix( 1, 0, 0, 1, 0,0) ">
<use xlink:href="#mc_mascote_0_Layer4_33_FILL"/>
</g>

<g transform="matrix( 1, 0, 0, 1, 0,0) ">
<use xlink:href="#mc_mascote_0_Layer4_34_1_STROKES"/>
</g>

<g transform="matrix( 1, 0, 0, 1, 0,0) ">
<use xlink:href="#mc_mascote_0_Layer4_35_1_STROKES"/>
</g>

<g transform="matrix( 1, 0, 0, 1, 0,0) ">
<use xlink:href="#mc_mascote_0_Layer4_36_FILL"/>
</g>

<g transform="matrix( 1, 0, 0, 1, 0,0) ">
<use xlink:href="#mc_mascote_0_Layer4_37_1_STROKES"/>
</g>

<g transform="matrix( 1, 0, 0, 1, 0,0) ">
<use xlink:href="#mc_mascote_0_Layer4_38_FILL"/>
</g>

<g transform="matrix( 1, 0, 0, 1, 0,0) ">
<use xlink:href="#mc_mascote_0_Layer4_39_FILL"/>
</g>

<g transform="matrix( 1, 0, 0, 1, 0,0) ">
<use xlink:href="#mc_mascote_0_Layer4_40_1_STROKES"/>
</g>

<g transform="matrix( 1, 0, 0, 1, 0,0) ">
<use xlink:href="#mc_mascote_0_Layer4_41_FILL"/>

<use xlink:href="#mc_mascote_0_Layer4_41_1_STROKES"/>
</g>

<g transform="matrix( 1, 0, 0, 1, 0,0) ">
<use xlink:href="#mc_mascote_0_Layer4_42_MEMBER_0_FILL"/>
</g>

<g transform="matrix( 1, 0, 0, 1, 0,0) ">
<use xlink:href="#mc_mascote_0_Layer4_42_MEMBER_1_1_STROKES"/>
</g>

<g transform="matrix( 1, 0, 0, 1, 0,0) ">
<use xlink:href="#mc_mascote_0_Layer4_43_MEMBER_0_FILL"/>
</g>

<g transform="matrix( 1, 0, 0, 1, 0,0) ">
<use xlink:href="#mc_mascote_0_Layer4_43_MEMBER_1_FILL"/>
</g>

<g transform="matrix( 1, 0, 0, 1, 44.3,24.35) ">
<g transform="matrix( 1, 0, 0, 1, 0,0) ">
<g transform="matrix( 1, 0, 0, 1, 0,0) ">
<use xlink:href="#Graficos_gr_olhos_0_Layer0_0_FILL"/>
</g>

<g transform="matrix( 1, 0, 0, 1, 0,0) ">
<use xlink:href="#Graficos_gr_olhos_0_Layer0_0_MEMBER_0_FILL"/>
</g>
</g>
</g>

<g transform="matrix( 1, 0, 0, 1, 71.9,8.75) ">
<g transform="matrix( 0.9953155517578125, -0.09075927734375, 0.09075927734375, 0.9953155517578125, 0,0.05) ">
<g transform="matrix( 1, 0, 0, 1, 0,0) ">
<use xlink:href="#Graficos_gr_det_0_Layer0_0_FILL"/>
</g>
</g>
</g>
</g>

<g transform="matrix( 1, 0, 0, 1, 89.05,46.25) ">
<use xlink:href="#Layer0_0_MEMBER_4_MEMBER_0_FILL"/>
</g>

<g transform="matrix( 1, 0, 0, 1, 89.05,46.25) ">
<use xlink:href="#Layer0_0_MEMBER_4_MEMBER_1_FILL"/>
</g>

<g transform="matrix( 1, 0, 0, 1, 89.05,46.25) ">
<use xlink:href="#Layer0_0_MEMBER_4_MEMBER_2_FILL"/>
</g>

<g transform="matrix( 1, 0, 0, 1, 89.05,46.25) ">
<use xlink:href="#Layer0_0_MEMBER_4_MEMBER_3_FILL"/>
</g>

<g transform="matrix( 1, 0, 0, 1, 89.05,46.25) ">
<use xlink:href="#Layer0_0_MEMBER_4_MEMBER_4_FILL"/>
</g>

<g transform="matrix( 1, 0, 0, 1, 89.05,46.25) ">
<use xlink:href="#Layer0_0_MEMBER_4_MEMBER_5_FILL"/>
</g>

<g transform="matrix( 1, 0, 0, 1, 89.05,46.25) ">
<use xlink:href="#Layer0_0_MEMBER_5_MEMBER_0_FILL"/>

<use xlink:href="#Layer0_0_MEMBER_5_MEMBER_0_1_STROKES"/>
</g>

<g transform="matrix( 1, 0, 0, 1, 89.05,46.25) ">
<use xlink:href="#Layer0_0_MEMBER_5_MEMBER_1_FILL"/>

<use xlink:href="#Layer0_0_MEMBER_5_MEMBER_1_1_STROKES"/>
</g>

<g transform="matrix( 1, 0, 0, 1, 89.05,46.25) ">
<use xlink:href="#Layer0_0_MEMBER_5_MEMBER_2_FILL"/>

<use xlink:href="#Layer0_0_MEMBER_5_MEMBER_2_1_STROKES"/>
</g>

<g transform="matrix( 1, 0, 0, 1, 89.05,46.25) ">
<use xlink:href="#Layer0_0_MEMBER_5_MEMBER_3_FILL"/>

<use xlink:href="#Layer0_0_MEMBER_5_MEMBER_3_1_STROKES"/>
</g>

<g transform="matrix( 1, 0, 0, 1, 89.05,46.25) ">
<use xlink:href="#Layer0_0_MEMBER_5_MEMBER_4_FILL"/>

<use xlink:href="#Layer0_0_MEMBER_5_MEMBER_4_1_STROKES"/>
</g>

<g transform="matrix( 1, 0, 0, 1, 89.05,46.25) ">
<use xlink:href="#Layer0_0_MEMBER_5_MEMBER_5_FILL"/>

<use xlink:href="#Layer0_0_MEMBER_5_MEMBER_5_1_STROKES"/>
</g>

<g transform="matrix( 1, 0, 0, 1, 89.05,46.25) ">
<use xlink:href="#Layer0_0_MEMBER_5_MEMBER_6_FILL"/>

<use xlink:href="#Layer0_0_MEMBER_5_MEMBER_6_1_STROKES"/>
</g>
</svg>
