
<svg xmlns="http://www.w3.org/2000/svg" version="1.1" xmlns:xlink="http://www.w3.org/1999/xlink" preserveAspectRatio="none" x="0px" y="0px" width="103px" height="62px" viewBox="0 0 103 62">
<defs>
<linearGradient id="Gradient_1" gradientUnits="userSpaceOnUse" x1="73.375" y1="67.8625" x2="78.125" y2="43.2375" spreadMethod="pad">
<stop  offset="0.7843137254901961%" stop-color="#CC9900"/>

<stop  offset="100%" stop-color="#878601"/>
</linearGradient>

<linearGradient id="Gradient_2" gradientUnits="userSpaceOnUse" x1="74.675" y1="60.925000000000004" x2="75.925" y2="54.475" spreadMethod="pad">
<stop  offset="0.7843137254901961%" stop-color="#CC9900"/>

<stop  offset="48.627450980392155%" stop-color="#CCFF00"/>

<stop  offset="100%" stop-color="#999900"/>
</linearGradient>

<linearGradient id="Gradient_3" gradientUnits="userSpaceOnUse" x1="73.625" y1="66.5625" x2="74.475" y2="62.137499999999996" spreadMethod="pad">
<stop  offset="0.7843137254901961%" stop-color="#FED067"/>

<stop  offset="100%" stop-color="#DBDB02"/>
</linearGradient>

<linearGradient id="Gradient_4" gradientUnits="userSpaceOnUse" x1="73.675" y1="66.5125" x2="74.52499999999999" y2="62.0875" spreadMethod="pad">
<stop  offset="0.7843137254901961%" stop-color="#FED067"/>

<stop  offset="100%" stop-color="#DBDB02"/>
</linearGradient>

<linearGradient id="Gradient_5" gradientUnits="userSpaceOnUse" x1="113.175" y1="68.4625" x2="114.02499999999999" y2="64.0375" spreadMethod="pad">
<stop  offset="0.7843137254901961%" stop-color="#FED067"/>

<stop  offset="100%" stop-color="#DBDB02"/>
</linearGradient>

<g id="bt_mapa_0_Layer0_0_FILL">
<path fill="#996600" stroke="none" d="
M 58.3 31.55
Q 58.35 31.45 58.3 31.4
L 58.2 31.4
Q 58.3 31.45 58.3 31.55
M 84.3 32.05
Q 84.2 32.5 84.15 32.7 84.05 32.95 83.6 33.1 82.85 33.5 81.55 33.25 81.3 33.2 81.2 33.05 81.3 33.4 81.05 33.9 80.85 34.15 80.55 34.6 80.3 34.85 80.1 35.1 80.1 35.15 80.1 35.2
L 81.15 35.4
Q 81.45 35.05 82.05 34.3 82.65 33.75 83.4 33.95 84.35 34.25 84.85 33.6 85.1 33.15 85.25 32.9 85.35 32.75 85.5 32.6 84.75 32.1 84.3 32.05 Z"/>

<path fill="#498F01" stroke="none" d="
M 58.3 31.8
L 58.4 31.75
Q 58.358203125 31.75 58.3 31.6 58.3396484375 31.7205078125 58.3 31.8
M 47.85 27.8
Q 47.7 27.8 47.6 27.8 47.5515625 27.8 47.55 27.75
L 47.55 27.85 47.8 27.95 47.85 27.8
M 47.65 27.25
Q 47.55 27.5 47.4 27.75 47.45 27.75 47.55 27.75
L 47.65 27.25
M 73.75 30.6
Q 73.75 30.65 73.8 30.75 74.05 31.45 74.05 31.5 74.55 31.3 75.3 30.35 75.45 30.1 75.65 29.9 75.55 29.95 75.45 29.95 74.1 30.45 73.75 30.6
M 106.35 38.5
L 106.4 38.45
Q 106.3 38.4 106.3 38.25 106.25 38.25 106.1 38.25
L 106.3 38.5 106.35 38.5 Z"/>

<path fill="#331E00" stroke="none" d="
M 60 31.8
Q 59.9 31.9 59.7 32
L 59.6 31.8
Q 59.45 31.65 59.45 31.4 59.15 31.45 58.8 31.6 58.55 31.7 58.4 31.75
L 58.3 31.8
Q 58.35 32.05 58.3 32.2 58.2 32.75 57.75 33.3 57.4 33.85 57.3 34.05 57.25 34.5 57.6 34.85 57.65 34.95 57.85 35.05 58.05 35.2 58.35 35.45 58.9 35.85 59.1 36.15 59.15 36.2 59.2 36.25
L 59.25 36.3
Q 59.35 36.65 59.3 37.1 59.2 37.45 58.9 37.85 58.75 38.05 58.5 38.15 57.6 38.95 57.5 39.1
L 57.35 39.7
Q 57.85 39.9 58.1 40.2 58.25 40.4 58.3 40.55 58.55 40.95 58.6 41.55 58.75 41.2 58.95 41 59.1 40.7 59.55 40.4 59.95 40.1 60.15 39.8 60.35 39.4 60.5 38.8 60.6 38.3 60.4 37.8 60.25 37.3 60.35 36.75 60.45 36.35 60.95 34.95 61.55 33.55 61.65 32.9 61.75 32.35 61.8 31.95 61.45 32.25 60.85 32.15
L 60.8 31.95
Q 60.7 31.85 60.25 31.55 60.25 31.6 60 31.8
M 47.55 27.75
Q 47.45 27.75 47.4 27.75 47.35 27.9 47.25 28 47.4 28.5 47.65 29.1 47.95 30 47.8 30.8 47.7 31.15 47.35 31.8 46.9 32.5 46.9 32.6 46.85 32.95 46.95 33.65 47.15 34.3 47.1 34.75 47.05 34.95 46.4 35.15 46.25 35.2 46.2 35.25 46.15 35.7 46.25 36.15 46.2 36.65 46.3 37.05
L 48.15 37.4
Q 48.25 37 48.5 36.4 49.15 35.15 49.25 34.8 49.4 33.95 49.35 31.7 49.35 29.4 49.4 28.95 49.45 28.8 49.65 28.15 49.45 28.1 49.2 28 48.9 27.8 48.85 27.8 48.8 27.75 48.55 27.9 48.35 28.1 48.15 28.15 48.05 27.95 47.85 27.8
L 47.8 27.95 47.55 27.85 47.55 27.75
M 75.2 31.5
Q 75.05 31.7 74.8 32.25 74.55 32.7 73.75 32.55 73.4 32.55 72.95 32.05 72.5 31.5 72.4 31.15
L 72.3 31.35
Q 72.15 31.45 71.95 31.4 71.6 31.3 71.35 31.1
L 71.35 31.15
Q 71.25 31 71.25 30.95
L 71.25 30.9
Q 71.05 30.6 70.65 30.55 70.35 30.45 70.25 30.45 69.95 30.5 70.05 30.6
L 69.25 30.45
Q 69.15 30.75 69 30.95 68.9 31.25 68.4 34
L 68.4 34.05
Q 68.35 34.15 68.35 34.2 67.8 37.25 67.75 38.2 67.75 38.4 67.75 38.6 67.65 39.55 67.35 41.1
L 77.95 43.15
Q 78.15 42.75 78.35 42.3 78.65 41.9 78.95 41.25 79.1 41 79.25 40.7 79.5 40.35 79.65 39.9
L 79.4 39.5
Q 79.15 38.95 79.6 38.05 80 37.1 79.85 36.35 79.7 35.8 80.1 35.2 80.1 35.15 80.1 35.1 80.3 34.85 80.55 34.6 80.85 34.15 81.05 33.9 80.6 33.8 80.2 34 79.8 34.15 79.25 34 78.8 33.95 78.75 33.7 78.7 33.6 78.8 33.2
L 77.85 32.95 77.95 32.6
Q 77.6 32.9 77.55 33 77.4 33.15 77.4 33.45
L 76.6 33.05
Q 75.85 32.75 75.65 32.7 75.9 32.4 76 32.3 76.2 32.15 76.2 32.05 76.25 31.85 76.2 31.8 76.15 31.75 76.15 31.7
L 75.2 31.5
M 71.2 31.5
Q 71.2 31.6 71.2 31.7 71.25 32.25 71.5 32.9
L 71.75 34
Q 71.65 34.4 71.35 35.15 71.05 35.75 71 36.15 70.95 36.25 70.95 36.35 70.95 36.8 71 37.5 71.1 37.9 71.1 38.25 71.2 38.55 71.15 38.7 71.1 38.8 71.1 38.85 71.05 38.85 71 38.8
L 71 38.7
Q 70.8 38.55 70.6 38.15 70.35 37.7 70.15 37.1
L 70.1 37.05
Q 69.8 35.85 69.9 35.2 70 34.7 70.5 33.45 71.05 32.2 71.15 31.5
L 71.2 31.5
M 76.05 35.55
Q 76.1 35.75 76.35 36.05 76.85 36.65 76.8 37.05 76.8 37.2 76.6 37.45 76.4 37.95 75.8 38.8 75.7 38.95 75.55 39.15 74.9 40.15 74.8 40.6 74.85 40.75 74.85 41.2 74.85 41.35 74.85 41.55 74.9 41.75 74.9 41.8
L 74.8 41.75 74.75 41.6
Q 74.7 41.6 74.75 41.55 74.65 41.25 74.55 40.55 74.4 39.5 74.45 38.9 74.45 38.85 74.5 38.75 74.6 38.25 75.2 37.2 75.3 37.05 75.4 36.9 75.9 36.2 76.05 35.55
M 109.5 40.1
L 109.8 39.95
Q 109.8 39.8 109.85 39.7 109.75 39.6 109.75 39.55 109.55 39.7 109.35 39.75 109 39.9 108.75 40.2 108.45 40.4 107.75 40.3 107.4 40.2 106.85 40.15 106.75 40.15 106.7 40.2
L 106.65 40.05
Q 106.7 39.85 106.55 39.4 106.55 39.05 106.55 38.9 106.5 38.7 106.35 38.5
L 106.3 38.5 106.1 38.25
Q 105.75 38.4 105.35 38.5 103.55 38.9 103.5 39 102.55 39.25 102.5 39.5 102.4 39.9 103.35 41.2 104.5 42.75 104.6 43.15 104.25 43.1 104 43.2
L 103.95 43.25
Q 103.4 43.35 102.9 43.7 102.1 44.4 101.85 45.6 101.7 46.45 102.35 47.45 102.55 47.7 102.7 47.95
L 104.9 48.4
Q 105.1 48.15 106.95 47.4 108.5 46.6 108.75 45.8 108.75 45.65 108.75 44.7 108.8 43.75 108.85 43.6 109 42.9 109.95 42.5 110.5 42.25 110.6 42.15 110.95 41.95 111.1 41.55 111.2 41.15 111.25 40.8 111.15 40.85 110.8 40.75 110.65 40.7 110.1 40.55 109.65 40.45 109.3 40.35
L 109.5 40.1
M 84.85 35.7
Q 84.8 36.2 84.15 36.55 83.6 36.75 83.85 37.45 84.15 38.05 84.05 38.5 84.05 38.65 83.95 38.85 83.8 39.35 83.85 39.9 84.05 40.55 83.65 41.1 83.4 41.35 83.3 41.75 83.2 42.05 83.15 42.35 83.15 43 83.2 43.45 83.15 43.55 83.2 43.65 83.3 44 83.85 44.3
L 93.6 46.15
Q 93.5 46.05 93.35 45.8 92.9 45.1 92.95 44.65 92.95 44.6 93 44.5 92.95 44.45 92.95 44.4
L 93 44.4
Q 93.15 43.8 93.2 43.35 93.45 42.5 93.55 41.65 93.6 40.75 93.55 40.2 93.55 40.05 93.5 39.95 93.45 39.8 93.4 39.7 93.2 39.15 93 38.85 91.9 37.85 91.7 37.35 91.25 36.15 91.25 35.8 91.15 35.65 91.05 35.35 90.6 35.1 90.45 34.95 90.15 34.8 89.95 34.6 90 34.7 89.65 35.1 89.4 35.55 89.4 35.6
L 88.75 35.45
Q 88.75 35.4 88.7 35.35
L 88.65 35.4 88.75 34.75 88.2 34.65
Q 88.05 34.8 87.85 35.15 87.65 35.45 87.55 35.8
L 86.85 35.65
Q 86.7 35.45 86.65 35.25 86.4 35.35 85.95 35.35 84.85 35.15 84.85 35.7
M 88.25 36.55
Q 88.25 36.25 88.35 36.1 88.4 36.05 88.7 36 89.2 35.85 90.4 35.95 90.2 37 90.95 39.65 91.2 40.25 91.55 41.4 91.75 42.2 91.7 42.4 91.7 42.45 91.15 42.9 90.85 42.45 89.1 42.1 88.95 42.1 88.8 42.2 88.7 42.2 88.3 42.45 88.25 42.35 88.15 42.3
L 88.05 42.3
Q 88.1 42.05 87.95 40.3 87.95 40.25 87.95 40.2 87.8 39.85 87.85 39.6 87.75 38.55 87.75 38.5 87.75 38.35 88 37.9 88.2 37.4 88.2 37.3 88.3 37 88.25 36.55 Z"/>

<path fill="#304301" stroke="none" d="
M 58.1 29.05
Q 58.1 29.5 58.2 30.2 58.2 30.55 58.25 30.75 58.35 31.1 58.3 31.4 58.35 31.45 58.3 31.55
L 58.3 31.6
Q 58.358203125 31.75 58.4 31.75 58.55 31.7 58.8 31.6 59.15 31.45 59.45 31.4 59.45 31.65 59.6 31.8
L 59.7 32
Q 59.9 31.9 60 31.8 60.25 31.6 60.25 31.55 60.7 31.85 60.8 31.95
L 60.85 32.15
Q 61.45 32.25 61.8 31.95 61.8 31.9 61.8 31.85 61.9 31.3 61.9 30.95
L 61.8 30.95 61.65 31
Q 61.55 30.95 61.2 30.9 61.15078125 30.358984375 60.4 30.1 60.49453125 30.10546875 60.7 29.9 60.9 29.75 61 29.65 60.95 29.55 60.8 29.45 60.6 29.25 60.4 29.3 60.35 29.55 60 29.9 59.8 30.15 59.6 30.35
L 58.95 30.25
Q 59.1 29.95 59 29.9 58.9 29.85 58.65 29.8 58.15 29.55 58.1 29.05
M 50.05 27.15
Q 49.5 26.9 49.4 26.6 49.25 26.15 48.75 26 48.7 26.3 48.55 26.4 48.35 26.6 47.9 26.75 47.75 27 47.65 27.25
L 47.55 27.75
Q 47.5515625 27.8 47.6 27.8 47.7 27.8 47.85 27.8 48.05 27.95 48.15 28.15 48.35 28.1 48.55 27.9 48.8 27.75 48.85 27.8 48.9 27.8 49.2 28 49.45 28.1 49.65 28.15 49.65 28.1 49.7 28.05 49.75 28 49.75 27.95 49.95 27.4 50.05 27.15
M 103.2 34.85
L 102.55 34.7
Q 102.6 34.55 102.5 34.25
L 102.3 33.95
Q 102.25 34.05 102.1 34.2 102 34.3 101.95 34.35 101.9 34.4 101.85 34.5
L 101.85 34.55
Q 101.9 34.7 101.9 34.8
L 101.75 35.1
Q 101.65 35.4 101.55 35.65 101.45 36.5 102.2 36.65 105.05 36.15 105.4 35.55
L 105.3 35.5
Q 105.2 35.5 104.45 35
L 103.75 34.7
Q 103.5 34.6 103.35 34.75
L 103.2 34.85
M 109.95 36.3
Q 109.75 36.5 109.7 36.95 108.85 37.65 108.45 37.55 108.25 37.5 108.1 37.4 107.65 37.85 106.3 38.25 106.3 38.4 106.4 38.45
L 106.35 38.5
Q 106.5 38.7 106.55 38.9 106.55 39.05 106.55 39.4 106.7 39.85 106.65 40.05
L 106.7 40.2
Q 106.75 40.15 106.85 40.15 107.4 40.2 107.75 40.3 108.45 40.4 108.75 40.2 109 39.9 109.35 39.75 109.55 39.7 109.75 39.55 109.75 39.6 109.85 39.7 109.8 39.8 109.8 39.95
L 109.5 40.1 109.3 40.35
Q 109.65 40.45 110.1 40.55 110.65 40.7 110.8 40.75 111.15 40.85 111.25 40.8
L 111.3 40.75
Q 111.4 40.15 111.5 39.6 111.5 38.8 110.2 37.3 110.35 37.35 110.85 36.05 110.75 36.1 110.65 36.05 110.15 36.1 109.95 36.3
M 89.1 33.95
Q 89.05 33.95 88.95 33.9 88.9 33.95 88.05 33.55 87.45 34.05 87.35 34.25 87.25 34.4 87.05 34.8 86.95 35.1 86.7 35.2 86.6669921875 35.2 86.65 35.2
L 86.65 35.25
Q 86.7 35.45 86.85 35.65
L 87.55 35.8
Q 87.65 35.45 87.85 35.15 88.05 34.8 88.2 34.65
L 88.75 34.75 88.65 35.4 88.7 35.35
Q 88.75 35.4 88.75 35.45
L 89.4 35.6
Q 89.4 35.55 89.65 35.1 90 34.7 89.95 34.6 90.15 34.8 90.45 34.95 90.6 35.1 91.05 35.35 90.95 34.85 90.8 34.05 90.75 33.75 90.5 33.5 90.1 33.65 89.85 33.75 89.45 33.95 89.1 33.95
M 81 32.75
Q 81.05 32.5 81.25 31.5 80.4 31.15 80.05 31 79.4 30.85 78.85 30.75 78.85 30.35 78.75 30.1 78.65 29.85 78.65 29.65 78.35 29.65 77.9 29.45 77.45 29.35 77.3 29.3
L 75.65 29.9
Q 75.45 30.1 75.3 30.35 74.55 31.3 74.05 31.5 74.05 31.45 73.8 30.75 73.75 30.65 73.75 30.6
L 73.7 30.55 73.65 30.55
Q 73.45 30.5 72.9 30 72.45 29.55 72.35 29.2 72.3 29.2 72.2 29.25 71.95 29.3 71.65 29.3 70.9 29.45 70.2 29.3 69.85 29.25 69.65 29.05 69.7 29.2 69.45 29.9 69.4 30.05 69.35 30.25 69.3 30.35 69.25 30.45
L 70.05 30.6
Q 69.95 30.5 70.25 30.45 70.35 30.45 70.65 30.55 71.05 30.6 71.25 30.9
L 71.25 30.95
Q 71.3 31.05 71.35 31.1 71.6 31.3 71.95 31.4 72.15 31.45 72.3 31.35
L 72.4 31.15
Q 72.5 31.5 72.95 32.05 73.4 32.55 73.75 32.55 74.55 32.7 74.8 32.25 75.05 31.7 75.2 31.5
L 76.15 31.7
Q 76.15 31.75 76.2 31.8 76.25 31.85 76.2 32.05 76.2 32.15 76 32.3 75.9 32.4 75.65 32.7 75.85 32.75 76.6 33.05
L 77.4 33.45
Q 77.4 33.15 77.55 33 77.6 32.9 77.95 32.6
L 77.85 32.95 78.8 33.2
Q 78.7 33.6 78.75 33.7 78.8 33.95 79.25 34 79.8 34.15 80.2 34 80.6 33.8 81.05 33.9 81.3 33.4 81.2 33.05 81 32.9 81 32.8
L 81 32.75 Z"/>

<path fill="#99CC00" stroke="none" d="
M 59.15 26.3
Q 59.05 26.45 58.6 26.9 58.55 26.9 58.55 26.95 58.5 27.1 58.45 27.35 58.15 27.95 58.15 28.1 58.05 28.35 58.1 28.95 58.1 29 58.1 29.05 58.15 29.55 58.65 29.8 58.9 29.85 59 29.9 59.1 29.95 58.95 30.25
L 59.6 30.35
Q 59.8 30.15 60 29.9 60.35 29.55 60.4 29.3 60.6 29.25 60.8 29.45 60.95 29.55 61 29.65 60.9 29.75 60.7 29.9 60.49453125 30.10546875 60.4 30.1 61.15078125 30.358984375 61.2 30.9 61.55 30.95 61.65 31
L 61.8 30.95
Q 61.75 30.85 61.85 30.75 61.9 30.5 61.85 30.3 61.65 29.3 61.55 28.35 61.15 28.3 60.55 28.2 60 28.1 59.7 27.35 59.6 26.8 59.55 26.65 59.4 26.45 59.15 26.3
M 49.9 24
Q 49.85 23.75 49.75 23.45
L 49.65 23.45
Q 49.6 23.6 49.5 23.65 49.05 24.45 48.1 26.25 48 26.45 47.9 26.75 48.35 26.6 48.55 26.4 48.7 26.3 48.75 26 49.25 26.15 49.4 26.6 49.5 26.9 50.05 27.15
L 50.05 27.1
Q 50.3 25.55 49.9 24 Z"/>

<path fill="url(#Gradient_1)" stroke="none" d="
M 46.6 38.55
Q 46.7 38.8 47 39.3 47.15 39.1 47.4 38.8 47.7 38.4 47.75 38.2 47.85 37.95 48.15 37.4
L 46.3 37.05
Q 46.4 38.05 46.6 38.55
M 83.85 44.3
Q 84 44.45 84.15 44.5 84.6 44.75 85.65 45.3 86.4 45.85 86.65 46.3
L 85.7 46.2
Q 85.6 46 84.85 45.65
L 84.15 45.35 83.5 45.25
Q 83.45 45.35 83.3 45.45 83.2 45.6 83.25 45.8 83.15 46.05 83.5 46.35 83.9 46.7 83.85 46.85 83.85 47.05 83.7 47.05 83.65 47.1 83.6 47.25
L 82.8 47.1
Q 82.5 46.9 81.85 46.6 81.85 46.55 81.8 46.5 81.35 46.3 80.8 46 79.5 45.15 79.4 45.1 78.85 45.05 78.35 45.3 78.1 45.4 77.65 45.85 77.3 46.15 76.95 46.25 76.9 46.3 76.8 46.35 76.35 46.5 75.7 46.4 75.5 46.35 75.35 46.25 75.2 46.25 75.45 46 75.65 45.9 76.15 45.45 76.5 44.95 77.2 44.15 77.55 43.7 77.95 43.15
L 67.35 41.1 67.35 41.15
Q 67.15 41.55 67.15 42 67.05 43.35 67.25 44.4 67.3 44.8 67.4 45.15
L 67.35 45.25
Q 67.6 45.6 68.5 46.15 69.05 46.55 69 46.95 69 47.1 69 47.25
L 67.9 47
Q 67.3 46.65 66.3 46.5 65.1 46.3 64.75 46.2 64.15 46 63.55 45.25 63.5 45.1 63.4 45.05 62.9 44.55 62.4 44.45 61.95 44.35 61.75 44.5 61.5 44.85 60.9 44.9 60.6 45 60.1 44.9 59.45 44.85 59.2 44.85 59.4 45.25 59.95 45.55 60.25 45.8 60.95 46.1 61.6 46.4 61.8 46.75 61.85 46.95 61.95 47.15 62 47.25 61.95 47.4 62.05 47.4 62.15 47.5 62.25 47.65 62.4 47.75 63 48.25 63.65 49.15 63.8 49.25 63.8 49.35
L 63.6 50.4 63.3 50.35
Q 62.95 50.05 62.45 49.6 61.9 49.2 61.2 48.75 60.9 48.6 60.65 48.5 59.1 47.7 56.85 46.85 56.35 46.65 55.25 46 54.3 45.45 53.25 45.35 52.15 45.1 50.2 44.65 48.4 44.2 48.2 44.2 47 44.45 45.6 44.7 44.05 44.95 42.85 44.95 42.15 44.9 41.55 44.9 42.2 44 43.85 43.05 46 41.75 46.5 41.4 45.65 40.85 45.25 40.3
L 44.8 39.6
Q 44.55 39.3 44 39.15 43.75 39.15 43.45 39.35 43.25 39.5 42.85 39.45 42.6 39.4 42.2 39.15 41.85 38.8 41.5 38.75 41.2 39.05 40.7 39.25 40.5 39.4 40.35 39.4
L 38.35 49.9
Q 38.9 50.05 39.95 50.15 39.9 50.15 39.45 50.5 38.9 50.9 38.65 51.1 39.2 51.15 39.85 51.7 40.65 52.35 40.95 52.45 40.75 52.65 40.45 52.8 40.3 52.9 40.3 52.95 40.25 53.1 40.2 53.15
L 40.3 53.45
Q 40.5 53.45 40.75 53.55 41.15 53.7 41.25 53.85
L 42.75 54.15 42.9 53.4
Q 42.65 53.6 42.65 53.35
L 42.65 53
Q 42.8 52.2 43.95 52.05 44.75 51.9 45.7 52.1 45.6 51.85 45.4 51.45 45.15 50.9 45.2 50.8 45.2 50.45 45.55 50.15 45.9 49.85 45.9 49.8
L 47.15 50
Q 47 50.4 46.55 50.7 46.4 50.9 45.95 51.15 47.15 51.05 47.35 52 47.4 52.2 47.35 52.85 47.3 53.35 47.45 53.55
L 47.5 53.6
Q 47.65 53.6 47.85 53.75
L 49.7 54.15
Q 49.8 53.65 50.15 53.25 50.45 52.8 50.5 52.4
L 53.7 53 53.6 53.8
Q 53.2 53.9 53.05 54.15 53.05 54.3 53.05 54.6 53.1 54.95 53 55 52.85 55.25 52.45 55.25 52.6 55.75 53.3 56.15 54.1 56.55 54.15 56.6 53.8 57.1 54.2 57.45 54.55 57.85 55.4 57.9 57.1 58.15 58.3 58.95 58.6 59.25 59.25 59.8 59.8 60.2 60.4 60.5
L 62.95 61
Q 63.2 59.6 63.55 58.65
L 63.65 57.95
Q 63.1 57.85 62.35 57.25 61.35 56.4 60.95 56.2 61.25 56.05 62.7 55.7 63.6 55.35 63.7 55.05 63.75 54.65 62.8 54.35 62.2 54.1 61.8 54 62.35 53.15 63.3 53.25 63.6 53.3 64.15 53.5 64.75 53.7 64.95 53.7 65.35 53.8 66.4 53.55 67.5 53.35 67.55 53.4 68 53.5 68.9 53.7 69.9 54 70 54 70.15 54.05 70.7 54 71.3 53.9 71.55 54 72.55 54.25 72.85 54.55 73.1 54.75 73 55 73 55.3 72.95 55.35 72.85 55.4 72.3 55.45
L 72.2 56 74.2 56.4
Q 74.95 55.9 75.3 55.65 75.85 55.2 75.9 54.65 75.95 54.55 75.55 53.95 75.05 53.35 75.05 53.25 75.1 53 75.95 52.9 76.7 52.8 76.85 52.85 78.85 53.2 80.8 54.2 80.75 54.4 80.7 54.9 80.8 55.3 80.75 55.5 80.55 55.55 79.85 55.6 79.1 55.75 79.05 55.75
L 78.95 56.3 79.55 56.7
Q 79.95 56.9 80.1 56.95 79.7 57.15 78.65 57.55 77.2 58 76.5 58.35 73.6 59.35 73.45 60.2 73.4 60.45 73.35 60.55 73.4 60.6 73.45 60.8 73.85 60.9 74.55 61.15 74.7 61.15 75.85 61.55
L 75.9 61.7
Q 75.95 61.8 75.9 62 75.85 62.05 75.35 62.4 74.9 62.8 74.85 63.05 74.75 63.7 76.55 64.4 77.45 64.7 78.45 65 79.15 64.65 79.85 64.35 81.45 63.75 82.1 63.85 82.95 64 83.5 64.4 83.95 64.6 84.75 65.2 84.55 65.6 85.35 65.95 86.1 66.35 86.9 66.5 87.5 66.6 87.85 66.45 88.1 66.25 88.4 65.85 88.75 65.35 89 65.3 89.5 65 90.15 65.2 90.6 65.25 91 65.45 91.25 65.6 92.05 66.15
L 93.5 66.4
Q 93.55 66.2 93.65 66 93.75 65.75 93.8 65.65
L 94 65.3
Q 92.75 64.85 91.9 64.4 90.25 63.6 90.5 62.7 90.55 62.25 90.85 62.2
L 91.4 62.3
Q 91.75 62.35 92 62.75 92.4 63.1 92.6 63.15 93.05 63.2 93.45 63.05 93.5 63.05 94.05 62.75
L 95.25 63 95.15 63.55 96 63.7
Q 96 63.6 96.15 63.25 96.3 62.95 96.3 62.85 96.45 62.15 95.05 61.3 93.85 60.55 93.15 60.4 93.4 59.95 95 59.65 96.45 59.45 97.6 59.75 98.35 59.9 99.75 60.45 100.9 61 101.35 61.45 100.9 61.7 100 61.65 99.5 61.55 98.8 61.4
L 98.65 62.25
Q 98.8 62.35 98.95 62.5 99.25 62.65 99.55 62.85 98.95 63.2 98.7 63.45 98.35 63.75 98.3 64 98.25 64.35 98.9 64.65 99.4 64.8 100 65 101.6 65.25 102.65 64.6 102.8 64.5 103.5 63.95 104.05 63.55 104.45 63.35
L 106.35 63.7
Q 106.25 63.8 105.4 64.05 104.85 64.3 104.8 64.6 104.75 64.8 104.75 64.85 104.75 64.9 104.8 65.15 105.2 65.35 105.9 65.65 106.35 65.85 106.7 66.25 107 66.45 106.5 66.45 106.1 66.5 105.85 66.45
L 105.75 66.8
Q 107.1 67.15 107.95 67.65 108.5 68 109.2 68.6 109.85 69.25 110.25 69.5 110.85 69.8 111.5 69.95
L 115.4 49.65
Q 114.35 49.4 113.75 49.05 112.65 48.4 111.95 47.15
L 111.15 47
Q 111.2 47.9 110.35 48.2 109.85 48.3 108.8 48.25 108.6 48.2 107.1 48.6 106.8 48.6 106.55 48.65 105.65 48.85 105.55 48.85 105.35 48.85 105.15 48.75 104.9 48.6 104.8 48.65
L 104.9 48.4 102.7 47.95
Q 102.75 48.05 102.8 48.15 102.95 48.6 102.85 49.85 103 50.15 103.2 50.7 103.4 51.15 103.55 51.4 104.45 53 105.7 53.85 106.65 54.45 107.95 55.15
L 108 55.15
Q 108.5 55.5 109.05 55.8 110.25 56.45 111.15 57.5 111.55 57.9 111.85 58.4 111.7 58.4 111.6 58.4 111.45 58.4 111.25 58.35 111.05 58.35 110 57.9 109.8 57.8 109.6 57.7 109.6 57.55 109.65 57.5 109.65 57.25 109.6 57.1 109.45 57.05 109.35 57
L 109.25 57.3 109 57.2
Q 109 57.1 108.9 57.05
L 108.9 57
Q 108.9 56.95 108.9 56.9 108.9 56.75 108.85 56.45 108.75 56.2 108.7 56 108.5 56.2 108.4 56.8 108.3 56.75 108.25 56.75 108.15 56.75 108.15 56.7 108.25 56.25 108 55.85 107.95 55.65 107.9 55.45 107.75 56 107.55 56.55 107.45 56.7 107.4 56.9
L 107.45 56.55
Q 107.35 56.5 107.3 56.5 107.2 56.8 106.7 57.2
L 106.75 57.25 106.7 57.25
Q 106.25 57.15 105.9 56.75 105.95 56.3 106.05 55.85
L 105.75 55.85
Q 105.7 55.95 105.6 56.05 105.5 56.1 105.45 56.15 105.25 55.9 105.05 55.7 105.05 55.6 105 55.5 105 55.25 105 54.7
L 104.95 54.7
Q 104.65 54.9 104.6 55.2 104.5 55.35 104.45 55.3 104.55 54.85 104.45 54.2 104.45 54.1 104.45 54 104.3 53.95 104.15 53.85 104.05 54.05 103.95 54.3 103.65 55.1 103.65 55.15 103.6 55.15 103.55 55.15 103.45 55.05 103.4 55.05 103.35 54.75 103.25 54.7 103.25 54.65 103.1 54.6 103.05 54.85 102.9 54.95 102.85 55.1 102.75 55.15 102.7 55.05 102.6 55
L 102.55 54.95 102.7 54.5 102.6 54.45
Q 102.55 54.65 102.3 54.85 102.15 55.2 102.1 55.35
L 102.1 55.4
Q 101.95 55.45 101.9 55.4
L 102.3 53.65
Q 102.05 53.8 101.75 54.25 101.3 54.65 101.25 54.75 101.4 54.1 101.4 53.75 101.45 53.5 101.5 53.35 101.4 53.3 101.35 53.3 101.15 53.55 100.95 54.05 100.5 54.55 100.25 54.85 100.3 54.9 100.25 54.95
L 100.2 54.9
Q 100 54.7 99.3 53.85
L 99.25 53.75
Q 98.7 53.45 98.35 53.4 97.75 53.3 97.4 53.3 96.9 53.4 96.65 53.45 95.5 53.6 93.55 53.2 92.6 53 91.25 53.7
L 90.25 54.15
Q 89.85 54.35 89.6 54.3 89.2 54.2 88.1 53.65 87.2 53.15 86.85 53.05
L 86.8 53.05
Q 86.65 53.05 86.5 53 86.2 53 85.75 53.25 85.45 53.4 85.05 53.7
L 83.3 53.35
Q 83.45 53.35 83.65 53.2 83.85 53.2 84 53 84.15 52.95 84.55 52.5 85.2 51.9 86.25 51.95 86.55 51.95 87.75 51.95 88.85 51.95 89.2 51.75 89.4 50.85 90.05 50.2 90.4 49.9 91.05 49.35 91.1 49.35 91.25 49.3 91.3 49.2 91.45 49.1
L 91.5 49.1
Q 91.75 48.85 92.15 48.7 92.25 48.65 92.35 48.65 92.6 48.45 92.9 48.4 93.25 48.15 93.4 47.95 93.65 47.55 93.8 46.95 93.85 46.6 93.6 46.15
L 83.85 44.3 Z"/>

<path fill="#FFCC00" stroke="none" d="
M 47.8 30.8
Q 47.95 30 47.65 29.1 47.4 28.5 47.25 28 46.7 29.25 46.6 29.75 46.5 30.15 46.6 31.4 46.6 32.75 46.6 32.9 46.4 33.65 46.3 34.55 46.2 34.95 46.2 35.25 46.25 35.2 46.4 35.15 47.05 34.95 47.1 34.75 47.15 34.3 46.95 33.65 46.85 32.95 46.9 32.6 46.9 32.5 47.35 31.8 47.7 31.15 47.8 30.8
M 76.35 36.05
Q 76.1 35.75 76.05 35.55 75.9 36.2 75.4 36.9 75.3 37.05 75.2 37.2 74.6 38.25 74.5 38.75 74.45 38.85 74.45 38.9 74.4 39.5 74.55 40.55 74.65 41.25 74.75 41.55
L 74.85 41.55
Q 74.85 41.35 74.85 41.2 74.85 40.75 74.8 40.6 74.9 40.15 75.55 39.15 75.7 38.95 75.8 38.8 76.4 37.95 76.6 37.45 76.8 37.2 76.8 37.05 76.85 36.65 76.35 36.05
M 71.2 31.7
Q 71.2 31.6 71.2 31.5
L 71.15 31.5
Q 71.05 32.2 70.5 33.45 70 34.7 69.9 35.2 69.8 35.85 70.1 37.05
L 70.15 37.1
Q 70.35 37.7 70.6 38.15 70.8 38.55 71 38.7
L 71.15 38.7
Q 71.2 38.55 71.1 38.25 71.1 37.9 71 37.5 70.95 36.8 70.95 36.35 70.95 36.25 71 36.15 71.05 35.75 71.35 35.15 71.65 34.4 71.75 34
L 71.5 32.9
Q 71.25 32.25 71.2 31.7
M 88.35 36.1
Q 88.25 36.25 88.25 36.55 88.3 37 88.2 37.3 88.2 37.4 88 37.9 87.75 38.35 87.75 38.5 87.75 38.55 87.85 39.6 87.8 39.85 87.95 40.2 87.95 40.25 87.95 40.3 88.1 42.05 88.05 42.3
L 88.15 42.3
Q 88.25 42.35 88.3 42.45 88.7 42.2 88.8 42.2 88.95 42.1 89.1 42.1 90.85 42.45 91.15 42.9 91.7 42.45 91.7 42.4 91.75 42.2 91.55 41.4 91.2 40.25 90.95 39.65 90.2 37 90.4 35.95 89.2 35.85 88.7 36 88.4 36.05 88.35 36.1 Z"/>

<path fill="#CCFF00" stroke="none" d="
M 78.25 20.85
L 78.3 20.45
Q 78.2 20.4 77.95 20.05 77.65 20.85 77.55 21.1 77.35 21.35 77.05 21.4 77.15 21.5 77.35 21.6 77.6 21.7 77.8 21.75 77.9 21.6 78.05 21.35 78.2 21.1 78.25 20.85
M 76.4 21.25
Q 76.55 21.4 76.65 21.45 76.9 21.45 77.05 21.4
L 77.05 21.35 76.4 21.25
M 76.4 21.25
Q 76.3517578125 21.2486328125 76.3 21.2
L 76.35 21.25 76.4 21.25 Z"/>

<path fill="#5B9702" stroke="none" d="
M 105.8 33.5
Q 105.55 33.4 104.95 33.15 104.2 32.8 104.15 32.75
L 103.45 33.05
Q 102.85 33.4 102.7 33.35 102.5 33.3 102.05 33.05
L 102 33.05
Q 101.9 33.05 101.85 33.15 101.8 33.2 101.7 33.2 101.65 33.25 101.65 33.3 101.55 33.35 101.5 33.65 101.5 33.7 101.7 34.1 101.8 34.3 101.85 34.5 101.9 34.4 101.95 34.35 102 34.3 102.1 34.2 102.25 34.05 102.3 33.95
L 102.5 34.25
Q 102.6 34.55 102.55 34.7
L 103.2 34.85 103.35 34.75
Q 103.5 34.6 103.75 34.7
L 104.45 35
Q 105.2 35.5 105.3 35.5
L 105.4 35.45
Q 105.45 35.3 105.4 34.8 105.3 34.25 105.35 34.15 105.45 33.7 105.55 33.55
L 105.8 33.5
M 81.6 27.45
Q 81.5 27.4 81.4 27.35 80.65 27.25 80.3 27.45 80.2 27.45 80.15 27.5 80.05 27.6 79.85 28.15 79.65 28.65 79.25 28.8 78.6 28.95 77.2 28.7 76.5 28.65 76.05 28.55 75.2 28.35 75 27.75 75.15 27.8 75.2 27.75 75.45 27.65 75.5 27.6
L 75.6 27
Q 75.15 27.05 74.5 27 73.95 27.05 73.8 27.05 73.55 27.1 73.4 27.2 73.3 27.45 73.2 27.9 73.1 28.2 73.2 28.25 73.25 28.5 73.45 28.7 73.4 28.7 73.4 28.8 73.3 28.85 73.3 28.95 72.9 29.1 72.35 29.2 72.45 29.55 72.9 30 73.45 30.5 73.65 30.55
L 73.7 30.55 73.75 30.6
Q 74.1 30.45 75.45 29.95 75.55 29.95 75.65 29.9
L 77.3 29.3
Q 77.45 29.35 77.9 29.45 78.35 29.65 78.65 29.65 78.65 29.85 78.75 30.1 78.85 30.35 78.85 30.75 79.4 30.85 80.05 31 80.4 31.15 81.25 31.5 81.05 32.5 81 32.75
L 81 32.8
Q 81 32.9 81.2 33.05 81.3 33.2 81.55 33.25 82.85 33.5 83.6 33.1 84.05 32.95 84.15 32.7 84.2 32.5 84.3 32.05 84.75 32.1 85.5 32.6 85.6 32.7 85.7 32.75 86.65 33.35 86.8 33.4 87 33.4 87.1 33.35 87.15 33.2 87.35 33.25 87.75 33.4 88.05 33.55 88.55 33.05 89.35 32.35 88.7 32.45 87.85 32.35 86.4 32.15 85.65 31.45 84.95 30.6 84.65 30.35 83.05 29.8 82.7 29.65 81.55 29.3 81.55 27.9 81.5 27.8 81.55 27.7 81.6 27.6 81.6 27.45 Z"/>

<path fill="url(#Gradient_2)" stroke="none" d="
M 61.85 47.95
Q 61.95 47.9 62.05 47.9 62.15 47.85 62.4 47.75 62.25 47.65 62.15 47.5 62.05 47.4 61.95 47.4 61.95 47.65 61.85 47.95
M 58.8 42.9
Q 58.8 43 58.8 43.1 58.9 44.05 59.2 44.85 59.75 44.15 59.4 43.45 59.2 43 58.8 42.9 Z"/>

<path fill="#666600" stroke="none" d="
M 71.25 30.95
Q 71.25 31 71.35 31.15
L 71.35 31.1
Q 71.3 31.05 71.25 30.95 Z"/>

<path fill="#4B4B01" stroke="none" d="
M 74.75 41.6
L 74.85 41.55 74.75 41.55
Q 74.7 41.6 74.75 41.6 Z"/>

<path fill="url(#Gradient_3)" stroke="none" d="
M 106.5 66.45
Q 107 66.45 106.7 66.25 106.35 65.85 105.9 65.65 105.2 65.35 104.8 65.15 104.75 64.9 104.75 64.85 104.75 64.8 104.8 64.6 104.85 64.3 105.4 64.05 106.25 63.8 106.35 63.7
L 104.45 63.35
Q 104.05 63.55 103.5 63.95 102.8 64.5 102.65 64.6 101.6 65.25 100 65 99.4 64.8 98.9 64.65 98.25 64.35 98.3 64 98.35 63.75 98.7 63.45 98.95 63.2 99.55 62.85 99.25 62.65 98.95 62.5 98.8 62.35 98.65 62.25
L 98.8 61.4
Q 99.5 61.55 100 61.65 100.9 61.7 101.35 61.45 100.9 61 99.75 60.45 98.35 59.9 97.6 59.75 96.45 59.45 95 59.65 93.4 59.95 93.15 60.4 93.85 60.55 95.05 61.3 96.45 62.15 96.3 62.85 96.3 62.95 96.15 63.25 96 63.6 96 63.7
L 95.15 63.55 95.25 63 94.05 62.75
Q 93.5 63.05 93.45 63.05 93.05 63.2 92.6 63.15 92.4 63.1 92 62.75 91.75 62.35 91.4 62.3
L 90.85 62.2
Q 90.55 62.25 90.5 62.7 90.25 63.6 91.9 64.4 92.75 64.85 94 65.3
L 93.8 65.65
Q 93.75 65.75 93.65 66 93.55 66.2 93.5 66.4
L 92.05 66.15
Q 91.25 65.6 91 65.45 90.6 65.25 90.15 65.2 89.5 65 89 65.3 88.75 65.35 88.4 65.85 88.1 66.25 87.85 66.45 87.5 66.6 86.9 66.5 86.1 66.35 85.35 65.95 84.55 65.6 84.75 65.2 83.95 64.6 83.5 64.4 82.95 64 82.1 63.85 81.45 63.75 79.85 64.35 79.15 64.65 78.45 65 77.45 64.7 76.55 64.4 74.75 63.7 74.85 63.05 74.9 62.8 75.35 62.4 75.85 62.05 75.9 62 75.95 61.8 75.9 61.7
L 75.85 61.55
Q 74.7 61.15 74.55 61.15 73.85 60.9 73.45 60.8 73.4 60.6 73.35 60.55 73.4 60.45 73.45 60.2 73.6 59.35 76.5 58.35 77.2 58 78.65 57.55 79.7 57.15 80.1 56.95 79.95 56.9 79.55 56.7
L 78.95 56.3 79.05 55.75
Q 79.1 55.75 79.85 55.6 80.55 55.55 80.75 55.5 80.8 55.3 80.7 54.9 80.75 54.4 80.8 54.2 78.85 53.2 76.85 52.85 76.7 52.8 75.95 52.9 75.1 53 75.05 53.25 75.05 53.35 75.55 53.95 75.95 54.55 75.9 54.65 75.85 55.2 75.3 55.65 74.95 55.9 74.2 56.4
L 72.2 56 72.3 55.45
Q 72.85 55.4 72.95 55.35 73 55.3 73 55 73.1 54.75 72.85 54.55 72.55 54.25 71.55 54 71.3 53.9 70.7 54 70.15 54.05 70 54 69.9 54 68.9 53.7 68 53.5 67.55 53.4 67.5 53.35 66.4 53.55 65.35 53.8 64.95 53.7 64.75 53.7 64.15 53.5 63.6 53.3 63.3 53.25 62.35 53.15 61.8 54 62.2 54.1 62.8 54.35 63.75 54.65 63.7 55.05 63.6 55.35 62.7 55.7 61.25 56.05 60.95 56.2 61.35 56.4 62.35 57.25 63.1 57.85 63.65 57.95
L 63.55 58.65
Q 63.2 59.6 62.95 61
L 60.4 60.5
Q 59.8 60.2 59.25 59.8 58.6 59.25 58.3 58.95 57.1 58.15 55.4 57.9 54.55 57.85 54.2 57.45 53.8 57.1 54.15 56.6 54.1 56.55 53.3 56.15 52.6 55.75 52.45 55.25 52.85 55.25 53 55 53.1 54.95 53.05 54.6 53.05 54.3 53.05 54.15 53.2 53.9 53.6 53.8
L 53.7 53 50.5 52.4
Q 50.45 52.8 50.15 53.25 49.8 53.65 49.7 54.15
L 47.85 53.75
Q 47.65 53.6 47.5 53.6
L 47.45 53.55
Q 47.3 53.35 47.35 52.85 47.4 52.2 47.35 52 47.15 51.05 45.95 51.15 46.4 50.9 46.55 50.7 47 50.4 47.15 50
L 45.9 49.8
Q 45.9 49.85 45.55 50.15 45.2 50.45 45.2 50.8 45.15 50.9 45.4 51.45 45.6 51.85 45.7 52.1 44.75 51.9 43.95 52.05 42.8 52.2 42.65 53
L 42.65 53.35
Q 42.65 53.6 42.9 53.4
L 42.75 54.15 41.25 53.85
Q 41.15 53.7 40.75 53.55 40.5 53.45 40.3 53.45
L 40.2 53.15
Q 40.25 53.1 40.3 52.95 40.3 52.9 40.45 52.8 40.75 52.65 40.95 52.45 40.65 52.35 39.85 51.7 39.2 51.15 38.65 51.1 38.9 50.9 39.45 50.5 39.9 50.15 39.95 50.15 38.9 50.05 38.35 49.9
L 36.25 60.65 110.45 75 111.5 69.95
Q 110.85 69.8 110.25 69.5 109.85 69.25 109.2 68.6 108.5 68 107.95 67.65 107.1 67.15 105.75 66.8
L 105.85 66.45
Q 106.1 66.5 106.5 66.45 Z"/>

<path fill="#7D4B02" stroke="none" d="
M 107.55 56.55
Q 107.5 56.55 107.45 56.55
L 107.4 56.9
Q 107.45 56.7 107.55 56.55
M 108.9 56.9
Q 108.9 56.95 108.9 57
L 108.9 57.05
Q 109 57.1 109 57.2
L 109.25 57.3 109.35 57
Q 109.25 57 109.2 57 109 56.95 108.9 56.9
M 104.45 54.2
Q 104.55 54.85 104.45 55.3 104.5 55.35 104.6 55.2 104.65 54.9 104.95 54.7
L 105 54.7
Q 105 55.25 105 55.5 105.05 55.6 105.05 55.7 105.25 55.9 105.45 56.15 105.5 56.1 105.6 56.05 105.7 55.95 105.75 55.85
L 106.05 55.85
Q 105.95 56.3 105.9 56.75 106.25 57.15 106.7 57.25
L 106.75 57.25 106.7 57.2
Q 107.2 56.8 107.3 56.5 106.95 56.4 106.8 56.4 106.35 56.25 106.25 56.05 106.15 55.9 106.15 55.5 106.1 54.65 105.1 54.25 104.85 54.1 104.45 54 104.45 54.1 104.45 54.2
M 111.6 58.4
Q 111.7 58.4 111.85 58.4 111.55 57.9 111.15 57.5 110.5 57.25 109.6 57.1 109.65 57.25 109.65 57.5 109.6 57.55 109.6 57.7 109.8 57.8 110 57.9 111.05 58.35 111.25 58.35 111.45 58.4 111.6 58.4 Z"/>

<path fill="#653D01" stroke="none" d="
M 117.9 36.9
Q 117.55 37.15 117.25 37.05 116.9 36.95 116.8 36.8 116.7 36.6 116.55 36.55 116 36.45 115.8 36.7 115.55 37 115.35 37.05 115.55 36.85 115.45 36.55 115.35 36.25 115.3 36.45 114.7 36.45 114.35 36.55 113.8 36.65 113.75 37.2 113.7 37.25 113.85 37.6
L 114 38.05
Q 113.95 38.2 113.8 38.4 113.75 38.55 113.7 38.7
L 112.25 38.45
Q 111.6 37.8 111.4 37.45 111 36.75 111.55 36.2
L 110.85 36.05
Q 110.35 37.35 110.2 37.3 111.5 38.8 111.5 39.6 111.4 40.15 111.3 40.75
L 111.25 40.8
Q 111.2 41.15 111.1 41.55 110.95 41.95 110.6 42.15 110.5 42.25 109.95 42.5 109 42.9 108.85 43.6 108.8 43.75 108.75 44.7 108.75 45.65 108.75 45.8 108.5 46.6 106.95 47.4 105.1 48.15 104.9 48.4
L 104.8 48.65
Q 104.9 48.6 105.15 48.75 105.35 48.85 105.55 48.85 105.65 48.85 106.55 48.65 106.8 48.6 107.1 48.6 108.6 48.2 108.8 48.25 109.85 48.3 110.35 48.2 111.2 47.9 111.15 47
L 111.95 47.15
Q 112.65 48.4 113.75 49.05 114.35 49.4 115.4 49.65
L 117.9 36.9
M 81.45 46.25
L 81.6 46.2
Q 81.25 45.75 80.85 45.1 80 43.7 80.05 43.15 80.1 43.05 80.3 42.85 80.45 42.6 80.45 42.45 80.55 42.15 80.35 41.85 80.25 41.7 79.8 41.35 79.45 41.05 79.25 40.7 79.1 41 78.95 41.25 79.1 41.5 79.35 41.7 79.6 42.05 79.6 42.1 79.55 42.25 79.3 42.7 78.9 43.15 78.95 43.25 78.8 43.8 80.4 45.2 80.55 45.35 81.45 46.25
M 81.8 35.75
L 81.7 35.7
Q 81.7 35.75 81.6 35.85 81.1 36.25 81.05 36.5 80.95 37 81.25 37.65 81.65 38.4 81.65 38.55 81.7 38.8 81.6 39.55 81.65 40.35 82.2 40.9 82.6 41.25 82.85 42.5 83 43.25 83.15 43.65
L 83.2 43.65
Q 83.15 43.55 83.2 43.45 83.15 43 83.15 42.35 83.2 42.05 83.3 41.75 82.85 41.25 82.7 40.7 82.65 40.3 82.6 40.1 82.5 39.65 82.4 39.3 82.3 39.1 82.25 38.55 82.25 38 82.05 37.8 81.75 37.4 81.6 37.25 81.3 36.85 81.4 36.45 81.4 36.25 81.8 35.75 Z"/>

<path fill="#767601" stroke="none" d="
M 93 44.5
Q 93 44.45 93 44.4
L 92.95 44.4
Q 92.95 44.45 93 44.5 Z"/>

<path fill="#4E6D01" stroke="none" d="
M 90.5 33.5
Q 90.3 33.15 89.8 32.85 89.6 32.65 89.45 32.45
L 89.45 32.4 89.35 32.35
Q 88.55 33.05 88.05 33.55 88.9 33.95 88.95 33.9 89.05 33.95 89.1 33.95 89.45 33.95 89.85 33.75 90.1 33.65 90.5 33.5 Z"/>

<path fill="#7E4B01" stroke="none" d="
M 85.5 32.6
Q 85.35 32.75 85.25 32.9 85.1 33.15 84.85 33.6 84.35 34.25 83.4 33.95 82.65 33.75 82.05 34.3 81.45 35.05 81.15 35.4
L 80.1 35.2
Q 79.7 35.8 79.85 36.35 80 37.1 79.6 38.05 79.15 38.95 79.4 39.5
L 79.65 39.9
Q 79.5 40.35 79.25 40.7 79.45 41.05 79.8 41.35 80.25 41.7 80.35 41.85 80.55 42.15 80.45 42.45 80.45 42.6 80.3 42.85 80.1 43.05 80.05 43.15 80 43.7 80.85 45.1 81.25 45.75 81.6 46.2
L 81.45 46.25
Q 80.55 45.35 80.4 45.2 78.8 43.8 78.95 43.25 78.9 43.15 79.3 42.7 79.55 42.25 79.6 42.1 79.6 42.05 79.35 41.7 79.1 41.5 78.95 41.25 78.65 41.9 78.35 42.3 78.15 42.75 77.95 43.15 77.55 43.7 77.2 44.15 76.5 44.95 76.15 45.45 75.65 45.9 75.45 46 75.2 46.25 75.35 46.25 75.5 46.35 75.7 46.4 76.35 46.5 76.8 46.35 76.9 46.3 76.95 46.25 77.3 46.15 77.65 45.85 78.1 45.4 78.35 45.3 78.85 45.05 79.4 45.1 79.5 45.15 80.8 46 81.35 46.3 81.8 46.5 81.85 46.55 81.85 46.6 82.5 46.9 82.8 47.1
L 83.6 47.25
Q 83.65 47.1 83.7 47.05 83.85 47.05 83.85 46.85 83.9 46.7 83.5 46.35 83.15 46.05 83.25 45.8 83.2 45.6 83.3 45.45 83.45 45.35 83.5 45.25
L 84.15 45.35 84.85 45.65
Q 85.6 46 85.7 46.2
L 86.65 46.3
Q 86.4 45.85 85.65 45.3 84.6 44.75 84.15 44.5 84 44.45 83.85 44.3 83.3 44 83.2 43.65
L 83.15 43.65
Q 83 43.25 82.85 42.5 82.6 41.25 82.2 40.9 81.65 40.35 81.6 39.55 81.7 38.8 81.65 38.55 81.65 38.4 81.25 37.65 80.95 37 81.05 36.5 81.1 36.25 81.6 35.85 81.7 35.75 81.7 35.7
L 81.8 35.75
Q 81.4 36.25 81.4 36.45 81.3 36.85 81.6 37.25 81.75 37.4 82.05 37.8 82.25 38 82.25 38.55 82.3 39.1 82.4 39.3 82.5 39.65 82.6 40.1 82.65 40.3 82.7 40.7 82.85 41.25 83.3 41.75 83.4 41.35 83.65 41.1 84.05 40.55 83.85 39.9 83.8 39.35 83.95 38.85 84.05 38.65 84.05 38.5 84.15 38.05 83.85 37.45 83.6 36.75 84.15 36.55 84.8 36.2 84.85 35.7 84.85 35.15 85.95 35.35 86.4 35.35 86.65 35.25
L 86.6 35.25 86.65 35.2
Q 86.6669921875 35.2 86.7 35.2 86.95 35.1 87.05 34.8 87.25 34.4 87.35 34.25 87.45 34.05 88.05 33.55 87.75 33.4 87.35 33.25 87.15 33.2 87.1 33.35 87 33.4 86.8 33.4 86.65 33.35 85.7 32.75 85.6 32.7 85.5 32.6 Z"/>
</g>

<g id="bt_mapa_0_Layer0_0_MEMBER_0_FILL">
<path fill="#E18804" stroke="none" d="
M 62.4 47.7
Q 62.2 47.75 62.05 47.85 62.05 48.05 62.15 48.35 62.4 49 62.9 49.1 63.05 49.15 63.1 49.05 63.1 48.9 63.25 48.9 63.4 48.95 63.7 49.1 63 48.2 62.4 47.7
M 67 42
Q 66.65 42.25 66.25 42.55 65.75 42.9 65.7 43.1 65.65 43.45 65.9 43.8 66 44.05 66.3 44.45 66.35 44.5 66.3 44.95 66.3 45.3 66.6 45.7 66.95 46.2 68.05 46.6 68.5 46.75 69.05 46.9 69.05 46.5 68.45 46.1 67.65 45.5 67.35 45.2
L 67.4 45.15
Q 67.3 44.8 67.25 44.4 67.05 43.3 67.2 42
L 67 42
M 58.85 43.05
Q 58.8 42.95 58.8 42.85 57.8 43.8 58.05 44.6 58.2 45.05 58.85 45.85 59.05 46 59.7 46.3 60.3 46.55 60.4 46.75 60.6 47.25 60.85 47.45 61.05 47.65 61.45 47.85 61.45 47.7 61.75 47.35 61.85 47.2 61.95 47.1 61.95 46.9 61.85 46.75 61.6 46.4 61 46.1 60.25 45.75 59.9 45.5 59.35 45.2 59.2 44.8 58.95 44.05 58.85 43.05
M 57.85 35.05
Q 56.15 34.7 55.95 34.65 55.7 34.55 55.55 34.45 55.75 34.75 56.2 35.2 57.2 36.25 57.6 36.35 58.35 36.5 58.45 36.4 58.65 36.25 59.1 36.05 58.95 35.8 58.4 35.4 58.05 35.2 57.85 35.05
M 101.05 36.1
Q 100.9 36.15 100.85 36.3 100.8 36.65 100.95 37 101 37.15 101.1 37.35 101.4 37.75 101.85 37.85 102.6 38 103.25 37.65 103.65 37.45 104.55 36.95 105 36.7 105.4 36.65
L 106.1 36.6
Q 106.4 36.55 106.6 36.45 106.75 36.3 106.85 35.9 106.85 35.75 106.8 35.45 106.7 35.1 106.7 34.95 106.8 34.55 107 34.4 107.15 34.25 107.95 33.6 107.15 33.7 106.05 33.5 105.95 33.45 105.85 33.45 105.6 33.5 105.6 33.55 105.45 33.65 105.4 34.1 105.35 34.25 105.35 34.75 105.4 35.25 105.4 35.4
L 105.4 35.45 105.35 35.5
Q 105.1 36.15 102.2 36.6 101.45 36.45 101.55 35.6 101.6 35.3 101.75 35.05 101.85 34.8 101.9 34.8
L 101.8 34.75
Q 101.6 35 101.35 35.35 101.25 35.45 101.2 35.55 101.3 35.7 101.25 35.8 101.25 35.95 101.05 36.1 Z"/>

<path fill="#996600" stroke="none" d="
M 67.75 38.5
Q 67.6 39 67.3 39.85 66.9 41.05 66.45 41.4
L 65.15 42.5
Q 64.45 43.2 64.3 43.95 64.1 45 64.5 45.8 64.6 45.9 64.75 46.1
L 64.7 46.15 64.75 46.15
Q 65.1 46.25 66.3 46.45 67.35 46.6 67.9 47
L 69 47.2
Q 69.05 47.05 69.05 46.9 68.5 46.75 68.05 46.6 66.95 46.2 66.6 45.7 66.3 45.3 66.3 44.95 66.35 44.5 66.3 44.45 66 44.05 65.9 43.8 65.65 43.45 65.7 43.1 65.75 42.9 66.25 42.55 66.65 42.25 67 42
L 67.2 42
Q 67.2 41.6 67.35 41.1 67.65 39.55 67.75 38.5
M 67.35 27.5
Q 66.55 27.5 66.45 27.5 66.05 27.6 66 28.05 65.85 28.85 66.25 29.35 66.95 28.5 67.35 27.5
M 44.85 19.65
Q 44.8 19.85 44.75 20.3
L 44.1 20.15 40.4 39.4
Q 40.55 39.35 40.75 39.25 41.2 39.05 41.55 38.7 41.85 38.75 42.25 39.1 42.6 39.35 42.85 39.4 43.25 39.5 43.55 39.3 43.85 39.15 44.05 39.15 44.55 39.25 44.8 39.55 44.85 39.6 45.2 40.2 45.6 40.85 46.5 41.3 46.55 41.25 46.65 41.3
L 46.55 41.35
Q 46.55 41.3 46.5 41.3 45.95 41.7 43.85 43 42.2 43.95 41.6 44.8 42.2 44.95 42.85 44.9
L 42.6 44.55
Q 44.2 44.55 45.85 44.15 48.1 43.65 48.4 43.6
L 49.9 43.9
Q 50.8 43.75 51.45 43.3 51.8 43.1 52.1 43.05 52.4 42.95 53.05 43.1 53.9 43.25 58.1 46.4 59.7 47.65 60.75 48.4
L 60.7 48.45
Q 60.95 48.55 61.15 48.7 61.9 49.15 62.55 49.6 62.95 49.95 63.35 50.25
L 63.6 50.35 63.8 49.3
Q 63.75 49.15 63.7 49.1 63.4 48.95 63.25 48.9 63.1 48.9 63.1 49.05 63.05 49.15 62.9 49.1 62.4 49 62.15 48.35 62.05 48.05 62.05 47.85 61.95 47.85 61.85 47.9 61.95 47.6 62 47.35 61.95 47.2 61.95 47.1 61.85 47.2 61.75 47.35 61.45 47.7 61.45 47.85 61.05 47.65 60.85 47.45 60.6 47.25 60.4 46.75 60.3 46.55 59.7 46.3 59.05 46 58.85 45.85 58.2 45.05 58.05 44.6 57.8 43.8 58.8 42.85 59.2 43 59.45 43.4 59.75 44.15 59.2 44.8 59.5 44.8 60.15 44.9 60.7 44.95 60.9 44.85 61.5 44.8 61.75 44.5 61.95 44.35 62.4 44.45 62.95 44.55 63.45 45.05 63.25 44.45 63.4 43.7 63.5 43 64.1 42.35 64.5 41.95 65.35 41.35 66.3 40.7 66.6 40.4 67.2 39.85 67.3 39.25
L 67.55 37.6
Q 67.8 36.1 68.35 34.2
L 68.4 34.2
Q 68.4 34.15 68.4 34.05
L 68.4 34
Q 68.9 31.2 69.05 30.9 69.15 30.7 69.25 30.45 69.3 30.3 69.35 30.2 69.4 30.05 69.45 29.9 69.65 29.2 69.7 29.05 69.45 28.9 69.3 28.6 69.05 28.2 69.1 27.7 68.95 27.7 68.85 27.7 68.75 27.65 68.65 27.6 68.5 27.55 68.4 27.5 68.3 27.4 68.2 27.4
L 68.2 27.35
Q 68.15 27.4 68 27.45 68 27.4 67.95 27.45
L 68 27.55
Q 67.75 28.9 66.95 30 66.9 30.1 66.75 30.25 66.8 30.35 66.75 30.45 66.65 30.45 66.6 30.4 66.15 30.95 65.35 31.85 64.3 32.9 63.85 33.75 63.15 35 63.05 36.45 62.9 36.5 62.8 36.45
L 63.55 32.55
Q 64 31.9 64.75 31
L 65.25 30.45
Q 64.55 30.55 64.15 30.45 62.85 30.2 62.65 30 63.4 28.75 61.55 28.3 61.65 29.25 61.9 30.25 61.95 30.5 61.95 30.75 61.75 30.8 61.8 30.9
L 61.9 30.85
Q 61.9 31.25 61.85 31.8 61.85 31.85 61.8 31.9 61.8 32.35 61.7 32.9 61.55 33.55 61 34.95 60.45 36.35 60.35 36.7 60.25 37.3 60.45 37.8 60.65 38.3 60.55 38.8 60.4 39.4 60.15 39.8 59.95 40 59.5 40.35 59.15 40.7 58.95 40.9 58.8 41.2 58.65 41.5 58.5 40.9 58.35 40.55 58.2 40.35 58.1 40.2 57.85 40.15 57.55 40.05 56.4 39.85 55.9 39.75 54.25 39.5 54.35 38.9 54.4 38.55 56.05 38.05 57.45 37.65 57.95 37.65
L 58.9 37.85
Q 59.25 37.45 59.3 37.05 59.4 36.65 59.2 36.25 59.2 36.2 59.15 36.05
L 59.1 36.05
Q 58.65 36.25 58.45 36.4 58.35 36.5 57.6 36.35 57.2 36.25 56.2 35.2 55.75 34.75 55.55 34.45 55 34.15 55.1 33.6 55.15 33.3 55.45 33.05 55.6 32.95 55.75 32.9 56.45 32.65 56.7 32.6 57.15 32.45 57.6 32.05 57.7 31.95 57.8 31.85 57.9 31.8 57.9 31.7
L 57.8 31.65
Q 57.9 31.3 58.05 31.1
L 58.25 30.7
Q 58.25 30.45 58.2 30.15 58.15 29.5 58.05 29.05 58.1 28.95 58.1 28.9 58.1 28.35 58.15 28.05 58.2 27.9 58.4 27.25 58.5 27.1 58.6 26.95 58.1 27.3 57.75 27.25 57.3 27.15 56.85 26.8 56.35 26.45 55.95 26.4
L 56.05 25.7 56.1 25.6
Q 55.55 25.45 55.35 25.35 55.15 25.25 55.05 24.95 54.85 25.1 54.4 25.35 54.2 25.45 53.85 25.6
L 52.75 25.4 52.9 24.7
Q 52.95 24.65 53.25 24.65 53.4 24.65 53.75 24.6 53.3 24.25 52.55 23.5 51.65 22.55 51.7 22.2 51.75 21.95 51.95 21.85 52 21.85 52.25 21.75 52.75 21.6 52.9 21.15 52.65 21.4 52.5 21.45 52.35 21.5 51.55 21.35 51.1 21.25 51.05 21.1 50.9 20.95 50.75 20.7
L 50.55 21.75 49.6 21.55 49.5 21.9
Q 49.4 22.1 49.3 22.3 49.2 22.5 49.1 22.65 48.45 23.7 47.7 23.55 47.5 23.5 47.3 23.4 47.15 23.3 47 23.2 47.15 22.85 47.45 22.5 47.1 22.45 46.75 22.2 46.3 21.95 46.05 21.75
L 46.3 20.4
Q 46.5 20.45 46.55 20.4
L 46.6 20.35
Q 46.2 20.1 46 19.7 45.85 19.3 45.7 19.2 45 19.35 44.85 19.65
M 49.75 23.4
Q 49.85 23.7 49.9 23.95 50.35 25.5 50.05 27.05 50 27.35 49.8 27.9 49.75 27.95 49.75 28.05 49.7 28.1 49.7 28.15 49.45 28.75 49.45 28.9 49.35 29.35 49.35 31.65 49.45 33.9 49.3 34.75 49.2 35.1 48.6 36.35 48.3 36.95 48.1 37.35 47.85 37.95 47.8 38.15 47.7 38.4 47.35 38.75 47.15 39.05 47 39.25 46.7 38.75 46.6 38.55 46.4 38 46.3 37 46.25 36.6 46.2 36.1 46.2 35.65 46.2 35.2 46.2 34.85 46.25 34.5 46.45 33.55 46.55 32.85 46.6 32.65 46.55 31.35 46.55 30.1 46.65 29.7 46.7 29.2 47.25 28 47.35 27.85 47.45 27.7 47.55 27.45 47.65 27.2 47.8 26.95 47.95 26.7 48.05 26.45 48.15 26.2 49.05 24.45 49.5 23.65 49.6 23.55 49.65 23.45
L 49.75 23.4
M 51.55 26.55
Q 51.5 26.4 51.55 26.25 51.65 26.5 51.85 26.8 52.3 27.65 52.2 28.15 52.1 28.65 51.45 29.9 50.8 31.15 50.7 31.6 50.65 32 51.35 33.4 52.1 34.75 51.95 35.4 51.7 36.75 49.7 39.35 49.2 39.95 48.25 41.15 47.55 42.05 47.4 42.4
L 47.6 41.45
Q 47.6 41.35 47.7 41.1 47.85 40.85 48 40.65 48.45 40.05 49.05 39.5 50.6 37.4 50.75 36.5 51.05 35.1 50.75 33.4 50.45 31.8 50.6 30.95 50.6 30.8 50.95 29.65 51.35 28.5 51.35 28.35 51.55 27.3 51.55 26.55
M 64.95 36.2
Q 64.85 35.3 64.9 35 65.1 34 65.95 33.1
L 66.05 33.15
Q 65.95 33.45 65.7 34.65 65.6 35.2 65.5 36.8 65.4 38.35 65.2 39.25 65.05 40 64.1 40.65 63.1 41.35 62.45 41.25 62.1 41.15 61.85 40.5 61.7 40 61.75 39.85 61.8 39.4 62.2 38.9 62.65 38.4 62.75 38.2
L 63.6 38.35 63.35 39.45 63.05 39.4
Q 63.1 39.3 63.15 39.15 63.3 39.05 63.3 38.9 63.2 38.85 62.7 39.1 62.1 39.35 62 39.75 61.95 40 62.05 40.05 62.1 40.1 62.3 40.35
L 63.8 40.6
Q 63.95 39.9 64.35 39.15 64.8 38.4 64.95 37.55 65.05 37.05 64.95 36.2
M 92.75 32.45
L 92.9 32.5
Q 92.65 32.05 92.45 31.7 91.9 30.65 91.5 30.35 91.35 30.6 91.2 31.25 91 31.9 90.2 32.2 89.85 32.3 89.45 32.35
L 89.4 32.45
Q 89.6 32.6 89.9 32.85 90.3 33.15 90.5 33.45 90.75 33.75 90.8 34 91 34.8 91.1 35.25
L 91.1 35.3
Q 91.2 35.65 91.2 35.8 91.3 36.15 91.75 37.25 91.9 37.85 92.95 38.85
L 93 38.5
Q 93.65 38.35 94.45 38.1 95 38 95.75 38.2 94.5 38.5 94.35 38.6 93.65 38.85 93.55 39.55
L 93.4 39.6
Q 93.45 39.75 93.5 39.9 93.55 40.05 93.55 40.15 93.6 40.75 93.55 41.55 93.5 42.45 93.25 43.35 93.2 43.75 93 44.35 93 44.45 93 44.5 93.25 44.85 93.55 45.25 93.85 45.55 94.3 46.05 95.05 47 94.8 48.35 94.75 48.65 94.15 48.85 93.6 48.95 93.2 48.9 93.05 48.85 93 48.75 92.95 48.65 92.8 48.6 92.6 48.55 92.4 48.6 92.25 48.6 92.15 48.7 91.8 48.85 91.5 49.05 91.35 49.2 91.2 49.25 91.15 49.3 91.05 49.35 90.4 49.8 90.1 50.15 89.45 50.8 89.2 51.7 88.8 51.95 87.75 51.95 86.65 51.85 86.25 51.9 85.2 51.9 84.55 52.5 84.15 52.9 84.05 53 83.85 53.15 83.65 53.2
L 83.6 53.35 85.05 53.65
Q 85.4 53.4 85.8 53.2 86.2 53 86.55 53 86.7 52.95 86.8 53
L 86.85 53
Q 87.25 53.05 87.7 53.05 89.5 53.2 90.4 52.9 91.15 52.75 93 52.3 94.55 52 95.4 51.7 96.6 51.95 97.45 51.55 97.6 51.5 97.9 51.35 98.15 51.25 98.35 51.3 98.85 51.4 99.4 52.1 100.05 52.9 100.55 53.05 100.8 53.1 101.35 53.25 101.4 53.3 101.45 53.3 102 53.4 102.85 53.5 103.55 53.65 104.15 53.8 104.3 53.85 104.45 53.9 104.85 54.05 105.15 54.2 106.1 54.65 106.15 55.5 106.2 55.9 106.3 56 106.4 56.25 106.8 56.35 107 56.4 107.35 56.5 107.4 56.5 107.5 56.55
L 107.55 56.55
Q 107.8 55.95 107.95 55.45 107.95 55.65 108.05 55.8 108.25 56.2 108.15 56.6
L 108.1 56.7
Q 108.2 56.7 108.25 56.75 108.35 56.75 108.4 56.75 108.55 56.15 108.65 56 108.8 56.15 108.9 56.5 108.9 56.7 108.9 56.85 109.05 56.9 109.2 56.9 109.25 56.95 109.35 56.95 109.5 57 109.65 57.05 110.55 57.3 111.2 57.45 110.3 56.45 109.1 55.75 108.5 55.45 108 55.15
L 107.95 55.1
Q 106.7 54.35 105.75 53.8 104.45 53 103.6 51.4 103.45 51.1 103.25 50.7 103 50.1 102.85 49.8 102.7 49.5 102.7 49.4 102.35 48.85 101.9 48.75 101.85 48.75 101.25 49 100.75 49.3 99.25 49.25
L 99.2 49.1
Q 98.6 49.35 97.8 49.7 96.3 50.25 96.25 50.25 95.85 50.2 95.75 49.9 95.65 49.6 95.75 49 95.9 48.35 97.35 47.55 98.7 46.8 99.55 46.8 99.5 46.25 100 45.95 100.6 45.7 100.7 45.25 100.7 45.15 100.15 44.4 99.6 43.65 99.65 43.45 99.75 42.85 100.9 42.8 101.45 42.8 102.3 42.85
L 103.95 43.2 104 43.2
Q 104.3 43.1 104.65 43.1 104.5 42.75 103.4 41.2 102.45 39.85 102.55 39.4 102.6 39.2 103.45 38.95 103.55 38.9 105.35 38.45 105.8 38.35 106.15 38.2
L 106 38.05 106.1 38
Q 106.15 38.05 106.25 38.2 107.7 37.8 108.1 37.35 108.25 37.25 108.3 37.1 108.35 36.7 107.9 36.05
L 107.9 35.95
Q 107.85 35.85 107.75 35.75 107.55 35.2 107.6 34.95 107.7 34.5 108.05 34 108.25 33.75 108.45 33.55 108.25 33.6 107.95 33.6 107.15 34.25 107 34.4 106.8 34.55 106.7 34.95 106.7 35.1 106.8 35.45 106.85 35.75 106.85 35.9 106.75 36.3 106.6 36.45 106.4 36.55 106.1 36.6
L 105.4 36.65
Q 105 36.7 104.55 36.95 103.65 37.45 103.25 37.65 102.6 38 101.85 37.85 101.4 37.75 101.1 37.35 101 37.15 100.95 37 100.8 36.65 100.85 36.3 100.9 36.15 101.05 36.1 101.25 35.95 101.25 35.8 101.3 35.7 101.2 35.55 101.05 35.3 100.6 34.9 99.85 34.25 99.15 34.1 98.1 33.9 97.65 34.35 97.4 34.6 97.35 34.6 97.1 34.7 96.75 34.65 96.25 34.55 96.15 34.55 96.05 34.45 95.85 34 95.3 35.6 95.05 36.8
L 94.35 36.65
Q 93.7 35.9 93.35 34.35 93.1 33.3 92.75 32.45
M 97.65 36.2
L 97.5 37.1
Q 97.6 37.35 98.1 38 98.4 38.5 98.55 38.85 98.95 39.8 98.6 41.45 98.4 42.65 97.4 43.45 96.4 44.2 95.3 44 94.7 43.9 94.35 42.75 93.95 41.6 94.1 40.95 94.25 40.2 94.75 39.6 95.45 38.85 96.2 39 96.9 39.1 96.9 40 97 40.5 96.8 41.4 96.7 41.95 96.55 42.05 96.1 42.2 95.5 42.45
L 95.05 42.35 95.3 41.3 95.4 41.35
Q 95.37265625 41.7150390625 95.5 41.8
L 96.15 41.95 96.5 40.15 95.7 40
Q 95.15 40.5 94.95 40.95 94.55 41.5 94.45 42.05 94.35 42.7 94.95 43.05 95.25 43.25 95.6 43.35 96.2 43.45 97.05 42.4 97.8 41.45 97.9 40.9 98 40.3 97.4 39 96.85 37.8 96.95 37.25 97 36.95 97.65 36.2 Z"/>

<path fill="#7D4B02" stroke="none" d="
M 68.4 34.2
L 68.35 34.2
Q 67.8 36.1 67.55 37.6
L 67.3 39.25
Q 67.2 39.85 66.6 40.4 66.3 40.7 65.35 41.35 64.5 41.95 64.1 42.35 63.5 43 63.4 43.7 63.25 44.45 63.45 45.05 63.45 45.1 63.55 45.2 64.15 45.9 64.7 46.15
L 64.75 46.1
Q 64.6 45.9 64.5 45.8 64.1 45 64.3 43.95 64.45 43.2 65.15 42.5
L 66.45 41.4
Q 66.9 41.05 67.3 39.85 67.6 39 67.75 38.5 67.8 38.35 67.75 38.2 67.85 37.15 68.4 34.2
M 65.4 30.45
Q 65.35 30.45 65.25 30.45
L 64.75 31
Q 64 31.9 63.55 32.55
L 62.8 36.45
Q 62.9 36.5 63.05 36.45 63.15 35 63.85 33.75 64.3 32.9 65.35 31.85 66.15 30.95 66.6 30.4 66.1 30.35 65.4 30.45
M 67.95 27.45
Q 67.75 27.5 67.35 27.5 66.95 28.5 66.25 29.35 66.55 29.75 66.65 29.85 66.7 30 66.75 30.25 66.9 30.1 66.95 30 67.75 28.9 68 27.55
L 67.95 27.45
M 58.6 38.15
Q 58.75 37.95 58.9 37.85
L 57.95 37.65
Q 57.45 37.65 56.05 38.05 54.4 38.55 54.35 38.9 54.25 39.5 55.9 39.75 56.4 39.85 57.55 40.05 57.85 40.15 58.1 40.2 57.85 39.85 57.4 39.65
L 57.55 39.05
Q 57.65 38.9 58.6 38.15
M 42.6 44.55
L 42.85 44.9
Q 44.05 44.9 45.6 44.65 47.05 44.4 48.25 44.2 48.4 44.2 50.25 44.6 52.2 45.05 53.25 45.25 54.35 45.4 55.2 45.95 56.35 46.65 56.85 46.85 59.15 47.6 60.7 48.45
L 60.75 48.4
Q 59.7 47.65 58.1 46.4 53.9 43.25 53.05 43.1 52.4 42.95 52.1 43.05 51.8 43.1 51.45 43.3 50.8 43.75 49.9 43.9
L 48.4 43.6
Q 48.1 43.65 45.85 44.15 44.2 44.55 42.6 44.55
M 55.45 33.05
Q 55.15 33.3 55.1 33.6 55 34.15 55.55 34.45 55.7 34.55 55.95 34.65 56.15 34.7 57.85 35.05 57.7 34.9 57.6 34.8 57.35 34.45 57.4 34.05 57.45 33.8 57.8 33.25 58.2 32.75 58.3 32.15 58.3 32 58.35 31.65 58.35 31.6 58.35 31.5 58.3 31.45 58.25 31.35
L 58.35 31.3
Q 58.3 31.05 58.25 30.7
L 58.05 31.1
Q 57.9 31.3 57.8 31.65
L 57.9 31.7
Q 57.9 31.8 57.8 31.85 57.7 31.95 57.6 32.05 57.15 32.45 56.7 32.6 56.45 32.65 55.75 32.9 55.6 32.95 55.45 33.05
M 64.9 35
Q 64.85 35.3 64.95 36.2 65.05 37.05 64.95 37.55 64.8 38.4 64.35 39.15 63.95 39.9 63.8 40.6
L 62.3 40.35
Q 62.1 40.1 62.05 40.05 61.95 40 62 39.75 62.1 39.35 62.7 39.1 63.2 38.85 63.3 38.9 63.3 39.05 63.15 39.15 63.1 39.3 63.05 39.4
L 63.35 39.45 63.6 38.35 62.75 38.2
Q 62.65 38.4 62.2 38.9 61.8 39.4 61.75 39.85 61.7 40 61.85 40.5 62.1 41.15 62.45 41.25 63.1 41.35 64.1 40.65 65.05 40 65.2 39.25 65.4 38.35 65.5 36.8 65.6 35.2 65.7 34.65 65.95 33.45 66.05 33.15
L 65.95 33.1
Q 65.1 34 64.9 35
M 51.55 26.25
Q 51.5 26.4 51.55 26.55 51.55 27.3 51.35 28.35 51.35 28.5 50.95 29.65 50.6 30.8 50.6 30.95 50.45 31.8 50.75 33.4 51.05 35.1 50.75 36.5 50.6 37.4 49.05 39.5 48.45 40.05 48 40.65 47.85 40.85 47.7 41.1 47.6 41.35 47.6 41.45
L 47.4 42.4
Q 47.55 42.05 48.25 41.15 49.2 39.95 49.7 39.35 51.7 36.75 51.95 35.4 52.1 34.75 51.35 33.4 50.65 32 50.7 31.6 50.8 31.15 51.45 29.9 52.1 28.65 52.2 28.15 52.3 27.65 51.85 26.8 51.65 26.5 51.55 26.25
M 97.9 51.35
Q 97.6 51.5 97.45 51.55 96.6 51.95 95.4 51.7 94.55 52 93 52.3 91.15 52.75 90.4 52.9 89.5 53.2 87.7 53.05 87.25 53.05 86.85 53 87.2 53.05 88.15 53.6 89.2 54.2 89.55 54.25 89.85 54.3 90.3 54.1
L 91.25 53.65
Q 92.65 53 93.55 53.15 95.6 53.55 96.65 53.4 96.95 53.35 97.4 53.3 97.85 53.25 98.35 53.35 98.75 53.45 99.2 53.75 99.3 53.8 99.35 53.8 100.05 54.7 100.15 54.85
L 100.2 54.85
Q 100.35 54.85 100.3 54.75 100.55 54.55 100.9 53.95 101.2 53.55 101.35 53.25 100.8 53.1 100.55 53.05 100.05 52.9 99.4 52.1 98.85 51.4 98.35 51.3 98.15 51.25 97.9 51.35
M 101.45 53.3
Q 101.5 53.5 101.45 53.75 101.35 54.05 101.2 54.8 101.3 54.75 101.7 54.2 102.1 53.75 102.3 53.65
L 101.95 55.3 101.95 55.4
Q 102.05 55.35 102.1 55.4
L 102.1 55.35
Q 102.15 55.15 102.35 54.85 102.5 54.6 102.55 54.45
L 102.7 54.45 102.6 54.9 102.65 55
Q 102.75 55 102.7 55.1 102.8 55.1 102.95 54.9 103.05 54.8 103.1 54.55 103.25 54.55 103.25 54.65 103.35 54.75 103.4 54.95 103.5 55 103.55 55.05 103.6 55.1 103.7 55.1 103.7 55.05 103.95 54.25 104.05 54 104.15 53.8 103.55 53.65 102.85 53.5 102 53.4 101.45 53.3
M 99.55 46.8
Q 98.7 46.8 97.35 47.55 95.9 48.35 95.75 49 95.65 49.6 95.75 49.9 95.85 50.2 96.25 50.25 96.3 50.25 97.8 49.7 98.6 49.35 99.2 49.1
L 99.25 49.25
Q 100.75 49.3 101.25 49 101.85 48.75 101.9 48.75 102.35 48.85 102.7 49.4 102.7 49.5 102.85 49.8 103 48.55 102.8 48.1 102.8 48.05 102.7 47.95 102.6 47.7 102.4 47.4 101.7 46.45 101.85 45.6 102.1 44.35 102.95 43.65 103.4 43.35 103.95 43.2
L 102.3 42.85
Q 101.45 42.8 100.9 42.8 99.75 42.85 99.65 43.45 99.6 43.65 100.15 44.4 100.7 45.15 100.7 45.25 100.6 45.7 100 45.95 99.5 46.25 99.55 46.8 Z"/>

<path fill="#B0DB02" stroke="none" d="
M 44.75 20.3
Q 44.8 19.85 44.85 19.65 45 19.35 45.7 19.2 45.85 19.3 46 19.7 46.2 20.1 46.6 20.35
L 46.55 20.4
Q 46.5 20.45 46.3 20.4
L 46.05 21.75
Q 46.3 21.95 46.75 22.2 47.1 22.45 47.45 22.5 47.15 22.85 47 23.2 47.15 23.3 47.3 23.4 47.5 23.5 47.7 23.55 48.45 23.7 49.1 22.65 49.2 22.5 49.3 22.3 49.4 22.1 49.5 21.9
L 49.6 21.55 50.55 21.75 50.75 20.7
Q 50.9 20.95 51.05 21.1 51.1 21.25 51.55 21.35 52.35 21.5 52.5 21.45 52.65 21.4 52.9 21.15 52.9 21.1 52.9 21 53 20.65 52.7 20.35 52.35 20.05 52.15 19.85 52.35 19.65 52.85 19.5 53.3 19.35 53.4 19.2 52.15 18.65 51.95 18.4 51.9 18.3 51.95 18.1 52 17.75 52.05 17.5 52.1 17.25 52.55 16.85 53 16.4 53 16.25 53 16.2 52.8 15.7 52.65 15.2 52.65 15.15 52.7 15.05 53.15 14.55
L 53.15 14.5 45.5 13 44.1 20.15 44.75 20.3 Z"/>

<path fill="#A3CA02" stroke="none" d="
M 75.65 21.35
Q 75.8 21.25 75.85 21.1 75.85 20.95 75.75 20.8 75.6 20.7 75.65 20.55 76.05 20.85 76.35 21.15 76.4 21.15 76.45 21.2
L 77.05 21.35
Q 77.1 21.35 77.1 21.4 77.35 21.3 77.55 21 77.7 20.85 77.95 20 77.95 19.95 78.05 19.9 78.15 19.95 78.4 20.25
L 78.8 20.3 78.95 19.45 56.85 15.2
Q 56.8 15.35 56.7 15.5 56.6 15.65 56.6 15.75 56.4 15.75 55.55 15.3 54.85 14.9 54.35 14.95 54.4 14.8 54.4 14.7
L 53.2 14.5 53.15 14.55
Q 52.7 15.05 52.65 15.15 52.65 15.2 52.8 15.7 53 16.2 53 16.25 53 16.4 52.55 16.85 52.1 17.25 52.05 17.5 52 17.75 51.95 18.1 51.9 18.3 51.95 18.4 52.15 18.65 53.4 19.2 53.3 19.35 52.85 19.5 52.35 19.65 52.15 19.85 52.35 20.05 52.7 20.35 53 20.65 52.9 21 52.9 21.1 52.9 21.15 52.75 21.6 52.25 21.75 52 21.85 51.95 21.85 51.75 21.95 51.7 22.2 51.65 22.55 52.55 23.5 53.3 24.25 53.75 24.6 53.4 24.65 53.25 24.65 52.95 24.65 52.9 24.7
L 52.75 25.4 53.85 25.6
Q 54.2 25.45 54.4 25.35 54.85 25.1 55.05 24.95 55.15 25.25 55.35 25.35 55.55 25.45 56.1 25.6 56.2 25.6 56.35 25.6
L 56.35 25.65
Q 56.2 25.7 56.05 25.7
L 55.95 26.4
Q 56.35 26.45 56.85 26.8 57.3 27.15 57.75 27.25 58.1 27.3 58.6 26.95
L 58.6 26.9
Q 59.05 26.4 59.15 26.3 59.4 26.4 59.55 26.65 59.55 26.7 59.7 27.25 59.95 28.1 60.6 28.15 61.15 28.2 61.55 28.3 63.4 28.75 62.65 30 62.85 30.2 64.15 30.45 64.55 30.55 65.25 30.45 65.35 30.45 65.4 30.45 66.1 30.35 66.6 30.4 66.65 30.45 66.75 30.45 66.8 30.35 66.75 30.25 66.7 30 66.65 29.85 66.55 29.75 66.25 29.35 65.85 28.85 66 28.05 66.05 27.6 66.45 27.5 66.55 27.5 67.35 27.5 67.75 27.5 67.95 27.45 68 27.4 68 27.45 68.15 27.4 68.2 27.35
L 68.25 27.35
Q 68.65 27.05 68.85 26.2 68.85 26.1 68.85 25.85 68.75 25.55 68.6 25.25 68.8 25 68.85 24.95 68.9 24.95 69.2 25 69.5 25.05 69.7 25.4 69.9 25.75 70.1 25.8 70.15 25.8 70.9 25.7 71.75 25.6 72.15 25.7 72.15 25.6 72.25 25.35 72.4 25.1 72.45 24.95 72.3 24.6 72.15 24.3 71.85 23.65 71.9 23.4 71.95 23.05 71.95 22.9 72 22.55 71.8 22.3
L 71.9 21.95 73 22.15
Q 73.1 22.75 73.25 22.9 73.3 22.95 73.75 23.05 74.45 23.15 75.1 22.65 75.6 22.3 75.65 22.1 75.65 21.95 75.55 21.85 75.4 21.8 75.4 21.65 75.45 21.5 75.65 21.35 Z"/>

<path fill="#809E03" stroke="none" d="
M 75.85 21.1
Q 75.8 21.25 75.65 21.35 75.45 21.5 75.4 21.65 75.4 21.8 75.55 21.85 75.65 21.95 75.65 22.1 75.6 22.3 75.1 22.65 74.45 23.15 73.75 23.05 73.3 22.95 73.25 22.9 73.1 22.75 73 22.15
L 71.9 21.95 71.8 22.3
Q 72 22.55 71.95 22.9 71.95 23.05 71.9 23.4 71.85 23.65 72.15 24.3 72.3 24.6 72.45 24.95 72.4 25.1 72.25 25.35 72.15 25.6 72.15 25.7 71.75 25.6 70.9 25.7 70.15 25.8 70.1 25.8 69.9 25.75 69.7 25.4 69.5 25.05 69.2 25 68.9 24.95 68.85 24.95 68.8 25 68.6 25.25 68.75 25.55 68.85 25.85 68.85 26.1 68.85 26.2 68.65 27.05 68.25 27.35
L 68.2 27.4
Q 68.3 27.4 68.4 27.5 68.5 27.55 68.65 27.6
L 68.85 27.65
Q 69 27.1 69.25 26.7 69.45 26.3 69.6 26.05 69.75 26.1 70 26.3 70.2 26.55 70.3 26.65
L 70.95 26.8
Q 71.05 26.35 71.45 25.9 71.5 26 71.65 26.15 71.85 26.25 72.1 26.3 72.55 26.35 72.9 26 73.25 25.65 73.3 25.4 73.3 25.3 73 24.8 72.65 24.4 72.75 24.05 72.75 23.85 72.9 23.7
L 72.95 23.6
Q 73.35 23.7 73.6 23.9
L 74.7 24.1
Q 74.75 23.85 74.75 23.75 74.85 23.55 75 23.35
L 76.05 23.6
Q 76.05 23.5 76.2 23.35 76.25 23.2 76.3 23.05 76.35 22.85 76.15 22.7 75.95 22.6 76.05 22.25 76.05 22.1 76.2 21.75 76.35 21.4 76.4 21.2
L 76.35 21.15
Q 76.05 20.85 75.65 20.55 75.6 20.7 75.75 20.8 75.85 20.95 75.85 21.1 Z"/>

<path fill="#5C3701" stroke="none" d="
M 93 44.5
Q 93 44.55 92.95 44.65 92.9 45.05 93.35 45.75 93.5 46 93.6 46.15 93.85 46.65 93.75 46.95 93.65 47.6 93.45 47.9 93.25 48.15 92.95 48.3 92.6 48.45 92.4 48.6 92.6 48.55 92.8 48.6 92.95 48.65 93 48.75 93.05 48.85 93.2 48.9 93.6 48.95 94.15 48.85 94.75 48.65 94.8 48.35 95.05 47 94.3 46.05 93.85 45.55 93.55 45.25 93.25 44.85 93 44.5 Z"/>

<path fill="#CA7902" stroke="none" d="
M 95.75 38.2
Q 95 38 94.45 38.1 93.65 38.35 93 38.5
L 92.95 38.85
Q 93.25 39.15 93.4 39.6
L 93.55 39.55
Q 93.65 38.85 94.35 38.6 94.5 38.5 95.75 38.2
M 97.5 37.1
L 97.65 36.2
Q 97 36.95 96.95 37.25 96.85 37.8 97.4 39 98 40.3 97.9 40.9 97.8 41.45 97.05 42.4 96.2 43.45 95.6 43.35 95.25 43.25 94.95 43.05 94.35 42.7 94.45 42.05 94.55 41.5 94.95 40.95 95.15 40.5 95.7 40
L 96.5 40.15 96.15 41.95 95.5 41.8
Q 95.37265625 41.7150390625 95.4 41.35
L 95.3 41.3 95.05 42.35 95.5 42.45
Q 96.1 42.2 96.55 42.05 96.7 41.95 96.8 41.4 97 40.5 96.9 40 96.9 39.1 96.2 39 95.45 38.85 94.75 39.6 94.25 40.2 94.1 40.95 93.95 41.6 94.35 42.75 94.7 43.9 95.3 44 96.4 44.2 97.4 43.45 98.4 42.65 98.6 41.45 98.95 39.8 98.55 38.85 98.4 38.5 98.1 38 97.6 37.35 97.5 37.1 Z"/>

<path fill="#CCFF00" stroke="none" d="
M 100.75 31.45
Q 100.45 31.4 100.25 31.65 100.15 31.7 99.75 32.35 99.45 32.75 99.3 32.85 99.2 32.9 99.15 32.9
L 99.15 32.85 99.05 32.9
Q 99.3 33.05 99.75 33.15 100 33.2 100.5 32.85 100.95 32.5 101.15 32.55 101.4 32.6 101.75 32.8 101.85 32.85 101.9 32.9
L 101.95 32.95 102 32.95
Q 102 33 102.05 33 102.45 33.3 102.6 33.35 102.85 33.4 103.5 33.05
L 104.15 32.75
Q 104.2 32.75 105 33.05 105.6 33.35 105.85 33.45 105.95 33.4 106 33.35
L 106.05 33.5
Q 107.15 33.7 107.95 33.6 108.25 33.6 108.45 33.55 108.25 33.75 108.05 34 107.7 34.5 107.6 34.95 107.55 35.2 107.75 35.75 107.85 35.85 107.9 35.95
L 107.9 36.05
Q 108.35 36.7 108.3 37.1 108.25 37.25 108.1 37.35 108.25 37.45 108.45 37.45 108.8 37.55 109.7 36.95
L 109.7 36.9
Q 109.8 36.5 110 36.3 110.2 36.05 110.65 36.05 110.7 36 110.8 35.9
L 110.85 36 111.55 36.15
Q 111 36.7 111.4 37.35 111.6 37.8 112.25 38.4
L 113.75 38.7
Q 113.75 38.55 113.85 38.35 114 38.15 114 38
L 113.7 37.2
Q 113.8 36.65 114.4 36.5 114.75 36.45 115.25 36.4 115.4 36.25 115.5 36.5 115.55 36.75 115.45 37 115.55 37 115.8 36.65 116.1 36.4 116.6 36.5 116.75 36.55 116.8 36.75 116.9 36.95 117.25 37 117.55 37.05 117.85 36.85
L 118.85 31.65 118.15 31.5 118.35 30.65
Q 117.1 30.15 115.3 29 114.8 29.6 114.4 29.6 114.2 29.6 114.1 29.65 114.05 29.7 114 29.95 114 30.1 114.05 30.45 114.1 30.85 114.1 30.95 114 31.35 112.9 31.85 111.85 32.35 111.05 32.2 110.9 32.2 110.6 31.95 110.6 31.85 110.55 31.85 110.5 31.8 110.45 31.75 110.45 31.8 110.45 31.85 110.35 31.8 110.3 31.8
L 109.1 31.1
Q 108 30.4 107.95 30.4 107.8 30.35 107.55 30.45 107.25 30.5 107.1 30.45 106.55 30.35 106.55 30.3 106.55 30.25 106.65 29.65
L 105.95 29.55
Q 105.4 30.1 105.1 30.65 105.05 30.8 104.85 31.45 104.8 31.75 104.55 31.85 104.3 31.9 103.5 31.75 102.85 31.6 102.65 31.4 102.4 31.2 102.15 31.1 101.8 31.05 101.65 31.3 101.5 31.55 101.25 31.55 100.9 31.5 100.75 31.45 Z"/>

<path fill="#8E5602" stroke="none" d="
M 94.55 32.1
Q 94.95 32.95 94.85 33.55 94.65 34.5 94.45 34.7 93.75 34.25 92.9 32.5
L 92.75 32.45
Q 93.1 33.3 93.35 34.35 93.7 35.9 94.35 36.65
L 95.05 36.8
Q 95.3 35.6 95.85 34 96.05 34.45 96.15 34.55 96.25 34.55 96.75 34.65 97.1 34.7 97.35 34.6 97.4 34.6 97.65 34.35 98.1 33.9 99.15 34.1 99.85 34.25 100.6 34.9 101.05 35.3 101.2 35.55 101.25 35.45 101.35 35.35 101.6 35 101.8 34.75
L 101.9 34.8
Q 101.9 34.65 101.9 34.5
L 101.9 34.45
Q 101.8 34.25 101.75 34.05 101.5 33.65 101.55 33.6 101.6 33.35 101.65 33.25 101.65 33.2 101.7 33.15 101.75 33.1 101.8 33.1 101.8 33 101.9 32.9 101.85 32.85 101.75 32.8 101.4 32.6 101.15 32.55 100.95 32.5 100.5 32.85 100 33.2 99.75 33.15 99.3 33.05 99.05 32.9 98.95 32.9 98.9 32.85 98.5 33.05 98.25 33.2 97.5 33.55 96.95 33.45 96.4 33.25 95.95 32.8 95 32 95.15 31.25 95.05 31.25 94.25 30.8 94.25 30.9 94.2 30.95 94.15 31.3 94.55 32.1 Z"/>

<path fill="#99CC00" stroke="none" d="
M 94.05 30.7
Q 93.1 30.1 92.75 30 91.9 29.85 91.55 30.25
L 91.5 30.35
Q 91.9 30.65 92.45 31.7 92.65 32.05 92.9 32.5 93.75 34.25 94.45 34.7 94.65 34.5 94.85 33.55 94.95 32.95 94.55 32.1 94.15 31.3 94.2 30.95 94.25 30.9 94.25 30.8 94.15 30.7 94.05 30.7 Z"/>

<path fill="#8DAF03" stroke="none" d="
M 101.05 30.45
Q 100.8 30.4 100.45 30.3
L 100.15 30.1
Q 100.1 30.2 99.6 31
L 99.1 31.75
Q 99.05 31.9 99.15 32.25 99.25 32.55 99.2 32.7 99.05 32.75 98.9 32.85 98.95 32.9 99.05 32.9
L 99.15 32.85 99.15 32.9
Q 99.2 32.9 99.3 32.85 99.45 32.75 99.75 32.35 100.15 31.7 100.25 31.65 100.45 31.4 100.75 31.45 100.9 31.5 101.25 31.55 101.5 31.55 101.65 31.3 101.8 31.05 102.15 31.1 102.4 31.2 102.65 31.4 102.85 31.6 103.5 31.75 104.3 31.9 104.55 31.85 104.8 31.75 104.85 31.45 105.05 30.8 105.1 30.65 105.4 30.1 105.95 29.55
L 106.65 29.65
Q 106.55 30.25 106.55 30.3 106.55 30.35 107.1 30.45 107.25 30.5 107.55 30.45 107.8 30.35 107.95 30.4 108 30.4 109.1 31.1
L 110.3 31.8
Q 110.35 31.8 110.45 31.85 110.45 31.8 110.45 31.75 110.25 31.45 110.25 31.1 109.6 31.05 109.3 30.8 109.05 30.65 108.8 29.85
L 108.8 29.8
Q 108.15 29.6 108.15 29.05
L 108.2 29
Q 107.8 28.85 107.6 28.75 107.2 28.45 107.55 27.95 106.85 27.55 106.25 27.95 105.85 28.2 105.3 29.05 104.65 30.1 104.5 30.3 104 30.85 103.5 30.75 103.15 30.7 102.9 30.55 102.6 30.3 102.25 29.9 101.9 30.55 101.05 30.45 Z"/>

<path fill="#7ACA02" stroke="none" d="
M 85.25 24.5
Q 85.3 24.3 88 21.2
L 78.95 19.45 78.8 20.3 78.4 20.25
Q 78.15 19.95 78.05 19.9 77.95 19.95 77.95 20 78.15 20.3 78.3 20.4 78.35 20.45 78.25 20.85 78.25 21.05 78.1 21.35 77.95 21.55 77.8 21.75 77.6 21.7 77.35 21.55 77.15 21.45 77.1 21.4 76.9 21.4 76.65 21.35 76.55 21.35 76.45 21.2
L 76.4 21.2
Q 76.35 21.4 76.2 21.75 76.05 22.1 76.05 22.25 75.95 22.6 76.15 22.7 76.35 22.85 76.3 23.05 76.25 23.2 76.2 23.35 76.05 23.5 76.05 23.6
L 75 23.35
Q 74.85 23.55 74.75 23.75 74.75 23.85 74.7 24.1
L 73.6 23.9
Q 73.35 23.7 72.95 23.6
L 72.9 23.7
Q 72.75 23.85 72.75 24.05 72.65 24.4 73 24.8 73.3 25.3 73.3 25.4 73.25 25.65 72.9 26 72.55 26.35 72.1 26.3 71.85 26.25 71.65 26.15 71.5 26 71.45 25.9 71.05 26.35 70.95 26.8
L 70.3 26.65
Q 70.2 26.55 70 26.3 69.75 26.1 69.6 26.05 69.45 26.3 69.25 26.7 69 27.1 68.85 27.65
L 68.85 27.7
Q 68.95 27.7 69.1 27.7 69.05 28.2 69.3 28.6 69.45 28.9 69.7 29.05 69.9 29.2 70.2 29.25 70.85 29.35 71.65 29.25 71.95 29.25 72.2 29.15 72.3 29.2 72.35 29.15 72.85 29.05 73.35 28.85 73.35 28.8 73.35 28.75 73.45 28.7 73.55 28.7 73.25 28.5 73.2 28.25 73.25 28.15 73.3 27.85 73.4 27.35 73.45 27.2 73.55 27 73.8 26.95 74 26.95 74.5 26.95 75.15 27 75.7 27
L 75.55 27.6
Q 75.45 27.6 75.25 27.7 75.1 27.75 74.95 27.75 75.25 28.3 76.05 28.45 76.5 28.6 77.25 28.65 78.65 28.9 79.3 28.7 79.7 28.6 79.85 28.1 80.05 27.55 80.15 27.45 80.2 27.4 80.25 27.4 80.6 27.2 81.4 27.35 81.5 27.4 81.6 27.4 82.05 27.55 82.6 27.85 82.95 28 83.15 28.15 84.15 28.35 84.5 28.25 84.95 28.05 85.1 27.35 85.1 27.3 85 26.65 84.8 26 84.9 25.55 84.9 25.4 85.1 24.85 85.15 24.65 85.25 24.5 Z"/>

<path fill="#6C8602" stroke="none" d="
M 87.4 24.6
Q 87.25 24.35 87.25 24.3 87.3 24.15 87.35 24.1 87.45 24.05 90.7 21.75
L 88 21.2
Q 85.3 24.3 85.25 24.5 85.15 24.65 85.1 24.85 84.9 25.4 84.9 25.55 84.8 26 85 26.65 85.1 27.3 85.1 27.35 84.95 28.05 84.5 28.25 84.15 28.35 83.15 28.15 82.95 28 82.6 27.85 82.05 27.55 81.6 27.4 81.6 27.5 81.55 27.65 81.6 27.75 81.6 27.85 81.9 28.15 82.3 28.65 82.95 29.25 83.9 29.45 84.3 29.55 84.6 29.45 84.7 29.4 84.95 29.2 85.35 28.9 86.15 29.25 86.15 29.15 86.3 29 86.35 28.85 86.4 28.7 86.5 28.3 86.45 28.3 86.2 28.15 85.85 27.7 86.35 27.3 86.4 27.25 86.55 27.05 86.65 26.65 86.65 26.5 86.6 26.2 86.55 25.85 86.55 25.7 86.65 25.35 86.95 25.15 87.3 25.1 87.65 25.25 87.55 24.9 87.4 24.6 Z"/>

<path fill="#A9D202" stroke="none" d="
M 87.25 24.3
Q 87.25 24.35 87.4 24.6 87.55 24.9 87.65 25.25 87.3 25.1 86.95 25.15 86.65 25.35 86.55 25.7 86.55 25.85 86.6 26.2 86.65 26.5 86.65 26.65 86.55 27.05 86.4 27.25 86.35 27.3 85.85 27.7 86.2 28.15 86.45 28.3 86.5 28.3 86.4 28.7 86.35 28.85 86.3 29 86.15 29.15 86.15 29.25 85.35 28.9 84.95 29.2 84.7 29.4 84.6 29.45 84.3 29.55 83.9 29.45 82.95 29.25 82.3 28.65 81.9 28.15 81.6 27.85 81.55 29.25 82.7 29.65 83.05 29.75 84.7 30.35 84.95 30.6 85.75 31.35 86.45 32.15 87.9 32.3 88.75 32.4 89.3 32.4 89.4 32.4 89.45 32.35 89.85 32.3 90.2 32.2 91 31.9 91.2 31.25 91.35 30.6 91.5 30.35
L 91.55 30.25
Q 91.9 29.85 92.75 30 93.1 30.1 94.05 30.7 94.15 30.7 94.25 30.8 95.05 31.25 95.15 31.25 95 32 95.95 32.8 96.4 33.25 96.95 33.45 97.5 33.55 98.25 33.2 98.5 33.05 98.9 32.85 99.05 32.75 99.2 32.7 99.25 32.55 99.15 32.25 99.05 31.9 99.1 31.75
L 99.6 31
Q 100.1 30.2 100.15 30.1
L 100.45 30.3
Q 100.8 30.4 101.05 30.45 101.9 30.55 102.25 29.9 102.6 30.3 102.9 30.55 103.15 30.7 103.5 30.75 104 30.85 104.5 30.3 104.65 30.1 105.3 29.05 105.85 28.2 106.25 27.95 106.85 27.55 107.55 27.95 107.2 28.45 107.6 28.75 107.8 28.85 108.2 29 108.340625 29.09375 108.5 29.15
L 108.15 29.05
Q 108.15 29.6 108.8 29.8
L 108.9 29.85 108.8 29.85
Q 109.05 30.65 109.3 30.8 109.6 31.05 110.25 31.1 110.25 31.45 110.45 31.75 110.5 31.8 110.55 31.85 110.6 31.85 110.6 31.95 110.9 32.2 111.05 32.2 111.85 32.35 112.9 31.85 114 31.35 114.1 30.95 114.1 30.85 114.05 30.45 114 30.1 114 29.95 114.05 29.7 114.1 29.65 114.2 29.6 114.4 29.6 114.8 29.6 115.3 29 117.1 30.15 118.35 30.65
L 118.15 31.5 118.85 31.65 119.7 27.35 90.7 21.75
Q 87.45 24.05 87.35 24.1 87.3 24.15 87.25 24.3 Z"/>
</g>

<g id="bt_mapa_0_Layer0_0_MEMBER_1_FILL">
<path fill="url(#Gradient_4)" stroke="none" d="
M 67.65 50.2
Q 66.65 50.15 66.3 50.2 66.05 50.2 66.05 50.35 66 50.45 66.25 50.6 66.45 50.8 66.85 50.85 67.2 50.9 67.5 50.85 67.8 50.8 67.85 50.7 67.85 50.55 68.25 50.45 68.65 50.25 67.65 50.2
M 71.7 50.9
Q 71.7 50.8 71.6 50.75 71.6 50.6 71.5 50.6 71.35 50.6 71.25 50.65 71.15 50.7 71.15 50.8 71.1 50.9 71.2 51 71.25 51.1 71.4 51.1 71.5 51.1 71.55 51.1 71.65 51 71.7 50.9
M 74.5 51.8
Q 75.15 51.65 75.15 51.45 75.2 51.2 74.6 50.65 74 50.1 73.8 50.4 73.6 50.65 73.2 50.75 72.85 50.8 72.8 51 72.75 51.2 72.65 51.5 72.55 51.8 73.2 51.85 73.85 51.95 74.5 51.8
M 71.25 49.35
Q 71 49.25 70.6 49.2 70.25 49.1 70 49.15 69.75 49.2 69.7 49.25 69.7 49.35 69.65 49.4 69.55 49.55 69.5 49.65 69.4 49.75 70.4 49.65 71.45 49.65 71.45 49.55 71.5 49.5 71.25 49.35 Z"/>
</g>

<g id="bt_mapa_0_Layer0_0_MEMBER_2_FILL">
<path fill="url(#Gradient_5)" stroke="none" d="
M 111.2 52.85
Q 111.2 52.75 111.1 52.7 111.1 52.55 111 52.55 110.85 52.55 110.75 52.6 110.65 52.65 110.65 52.75 110.6 52.85 110.7 52.95 110.75 53.05 110.9 53.05 111 53.05 111.05 53.05 111.15 52.95 111.2 52.85
M 107.75 52.4
Q 108.15 52.2 107.15 52.15 106.15 52.1 105.8 52.15 105.55 52.15 105.55 52.3 105.5 52.4 105.75 52.55 105.95 52.75 106.35 52.8 106.7 52.85 107 52.8 107.3 52.75 107.35 52.65 107.35 52.5 107.75 52.4
M 109.9 51.6
Q 110.95 51.6 110.95 51.5 111 51.45 110.75 51.3 110.5 51.2 110.1 51.15 109.75 51.05 109.5 51.1 109.25 51.15 109.2 51.2 109.2 51.3 109.15 51.35 109.05 51.5 109 51.6 108.9 51.7 109.9 51.6
M 114 53.75
Q 114.65 53.6 114.65 53.4 114.7 53.15 114.1 52.6 113.5 52.05 113.3 52.35 113.1 52.6 112.7 52.7 112.35 52.75 112.3 52.95 112.25 53.15 112.15 53.45 112.05 53.75 112.7 53.8 113.35 53.9 114 53.75 Z"/>
</g>

<g id="bt_mapa_0_Layer0_1_MEMBER_0_FILL">
<path fill="#FFFFFF" stroke="none" d="
M 25.75 48.25
Q 23.2 48.25 17.25 42.95
L 17.25 50.45
Q 24.8 53.45 27.2 53.45 30.55 53.45 37.4 47.1
L 36.7 42.7
Q 28.9 48.25 25.75 48.25 Z"/>
</g>

<g id="bt_mapa_0_Layer0_1_MEMBER_2_FILL">
<path fill="#FFFFFF" stroke="none" d="
M 56.85 13.55
L 57.2 18.6 58.5 13.45 56.85 13.55 Z"/>
</g>

<g id="bt_mapa_0_Layer0_1_MEMBER_3_FILL">
<path fill="#FFFFFF" stroke="none" d="
M 54.35 19.95
L 52.4 15.5 51.05 16.7 54.35 19.95 Z"/>
</g>

<g id="bt_mapa_0_Layer0_1_MEMBER_4_FILL">
<path fill="#FFFFFF" stroke="none" d="
M 52.15 24
L 49.05 21.05 48.15 22.85 52.15 24 Z"/>
</g>

<g id="bt_mapa_0_Layer0_1_MEMBER_5_FILL">
<path fill="#FFFFFF" stroke="none" d="
M 45.35 37.65
Q 44.8 36 42.4 34.35 39.95 32.8 38.3 33.15 37.45 33.3 37.15 33.85 36.9 34.4 37 34.9 37.05 35.5 37.7 36.35 36.85 38.25 36.5 41.55
L 36.45 42.2 35.75 42.85 36.65 48.5 36.9 48.25
Q 37.25 49.3 38.1 49.5 40.5 50.1 41.05 42.7 41.3 41.05 41.15 39.15 44.4 40.7 45.3 39.1 45.5 38.55 45.45 38.05
L 45.35 37.65 Z"/>
</g>

<path id="bt_mapa_0_Layer0_1_MEMBER_1_1_STROKES" stroke="#999999" stroke-width="1" stroke-linejoin="round" stroke-linecap="round" fill="none" d="
M 16.8 50.25
Q 24.7 53.45 27.2 53.45 30.55 53.45 37.4 47.1
L 36.7 42.7
Q 28.9 48.25 25.75 48.25 23.1 48.25 16.8 42.55"/>

<path id="bt_mapa_0_Layer0_1_MEMBER_6_1_STROKES" stroke="#999999" stroke-width="1" stroke-linejoin="round" stroke-linecap="round" fill="none" d="
M 37.15 33.85
Q 36.9 34.4 37 34.9 37.05 35.5 37.7 36.35 36.85 38.25 36.5 41.55
L 36.45 42.2 35.75 42.85 36.65 48.5 36.9 48.25
Q 37.25 49.3 38.1 49.5 40.5 50.1 41.05 42.7 41.3 41.05 41.15 39.15 44.4 40.7 45.3 39.1 45.5 38.55 45.45 38.05
L 45.35 37.65
Q 44.8 36 42.4 34.35 39.95 32.8 38.3 33.15 37.45 33.3 37.15 33.85 Z"/>
</defs>

<g id="mc_01" transform="matrix( 1, 0, 0, 1, 37.55,28.05) ">
<g id="botao" transform="matrix( 1, 0, 0, 1, -54.25,-41.05) ">
<g transform="matrix( 1, 0, 0, 1, 0,0) ">
<use xlink:href="#bt_mapa_0_Layer0_0_FILL"/>
</g>

<g transform="matrix( 1, 0, 0, 1, 0,0) ">
<use xlink:href="#bt_mapa_0_Layer0_0_MEMBER_0_FILL"/>
</g>

<g transform="matrix( 1, 0, 0, 1, 0,0) ">
<use xlink:href="#bt_mapa_0_Layer0_0_MEMBER_1_FILL"/>
</g>

<g transform="matrix( 1, 0, 0, 1, 0,0) ">
<use xlink:href="#bt_mapa_0_Layer0_0_MEMBER_2_FILL"/>
</g>

<g transform="matrix( 1, 0, 0, 1, 0,0) ">
<use xlink:href="#bt_mapa_0_Layer0_1_MEMBER_0_FILL"/>
</g>

<g transform="matrix( 1, 0, 0, 1, 0,0) ">
<use xlink:href="#bt_mapa_0_Layer0_1_MEMBER_1_1_STROKES"/>
</g>

<g transform="matrix( 1, 0, 0, 1, 0,0) ">
<use xlink:href="#bt_mapa_0_Layer0_1_MEMBER_2_FILL"/>
</g>

<g transform="matrix( 1, 0, 0, 1, 0,0) ">
<use xlink:href="#bt_mapa_0_Layer0_1_MEMBER_3_FILL"/>
</g>

<g transform="matrix( 1, 0, 0, 1, 0,0) ">
<use xlink:href="#bt_mapa_0_Layer0_1_MEMBER_4_FILL"/>
</g>

<g transform="matrix( 1, 0, 0, 1, 0,0) ">
<use xlink:href="#bt_mapa_0_Layer0_1_MEMBER_5_FILL"/>
</g>

<g transform="matrix( 1, 0, 0, 1, 0,0) ">
<use xlink:href="#bt_mapa_0_Layer0_1_MEMBER_6_1_STROKES"/>
</g>
</g>
</g>
</svg>
