
<svg xmlns="http://www.w3.org/2000/svg" version="1.1" xmlns:xlink="http://www.w3.org/1999/xlink" preserveAspectRatio="none" x="0px" y="0px" width="57px" height="40px" viewBox="0 0 57 40">
<defs>
<g id="bt_lupa_0_Layer0_0_MEMBER_0_FILL">
<path fill="#FFFFFF" stroke="none" d="
M -27.8 -12.1
Q -26.3 -1.75 -24.75 -0.2 -22.2 2.25 -19.2 10.5
L -16.45 7.4
Q -19.1 -0.4 -20.45 -2.85 -21.05 -3.9 -20.65 -10.4
L -20.1 -16.65 -28.95 -22.1 -27.8 -12.1 Z"/>
</g>

<g id="bt_lupa_0_Layer0_0_MEMBER_2_FILL">
<path fill="#99CC00" stroke="none" d="
M 11.75 8.75
Q 11.4 8.55 10.7 8.4 9.35 8.5 6.75 8.8 2.4 9.35 1.85 9.65 1.3 9.95 0.85 10.05 0.3 10.2 -2.45 11.25
L -2.4 11.3 -2.35 11.3
Q -1.85 11.85 -1.25 12.5 0.4 14.3 2.75 15.55 4.6 16.6 6.5 17.1 8.25 17.25 9.65 16.9 11.85 16.25 13.05 14.7 14.3 13.1 13.75 11.2 13.3 9.5 11.75 8.75
M 12.45 -0.7
Q 12.3 -0.8 12.25 -0.9 11.95 -0.95 11.65 -1 10.2 -1.45 9.4 -1.4 8.55 -1.4 7.4 -1.4 6.25 -1.35 5.95 -1.15 5.75 -0.9 5.45 -0.95 5.2 -1 2.85 0.3 0.55 1.5 -0.4 2.4 -1.4 3.25 -2.8 6.15 -3.45 7.65 -3.7 9.1 -0.8 8.4 -0.9 8.3
L 0.85 7.8
Q 2.45 7.4 4.75 7.15
L 5.4 7
Q 5.8 7.05 6.45 6.9 7.1 6.75 7.15 6.75 9.25 6.15 9.8 6.05 11.2 5.5 12.05 5.05 14.05 3.7 13.35 1.1 13.1 0.05 12.45 -0.7 Z"/>

<path fill="#999900" stroke="none" d="
M 20.7 7.7
Q 21.25 7.7 22.55 7.4 23.8 7.05 24.65 6.85 21.45 7.05 13.15 6.95 8.15 6.85 4.75 7.15 2.45 7.4 0.85 7.8
L -0.9 8.3
Q -0.8 8.4 -3.7 9.1 -4.7 9.35 -5.75 9.5
L -6.6 9.65
Q -7.85 9.45 -8.15 9.35 -8.45 9.2 -9.1 8.6 -9.8 8.05 -9.85 7.95 -10.3 8.4 -11.5 9.25 -12.7 10.1 -13.3 10.6 -11.5 12.2 -7.75 12.05 -5.65 12 -2.45 11.3
L -2.45 11.25
Q 0.3 10.2 0.85 10.05 1.3 9.95 1.85 9.65 2.4 9.35 6.75 8.8 9.35 8.5 10.7 8.4 11.6 8.35 11.9 8.4 12.75 8.45 15.55 8.05 18.4 7.7 19.25 7.7 20.2 7.6 20.7 7.7 Z"/>

<path fill="#CBFD02" stroke="none" d="
M 12.25 -0.9
Q 12.3 -0.8 12.45 -0.7 13.1 0.05 13.35 1.1 14.05 3.7 12.05 5.05 11.2 5.5 9.8 6.05 9.25 6.15 7.15 6.75 7.1 6.75 6.45 6.9 5.8 7.05 5.4 7
L 4.75 7.15
Q 8.15 6.85 13.15 6.95 21.45 7.05 24.65 6.85 23.8 7.05 22.55 7.4 21.25 7.7 20.7 7.7 20.2 7.6 19.25 7.7 18.4 7.7 15.55 8.05 12.75 8.45 11.9 8.4 11.6 8.35 10.7 8.4 11.4 8.55 11.75 8.75 13.3 9.5 13.75 11.2 14.3 13.1 13.05 14.7 11.85 16.25 9.65 16.9 8.25 17.25 6.5 17.1 7.25 17.3 7.95 17.45 10.95 17.95 13.7 17.15 15.5 16.7 17.8 15.5 20.25 14.2 22.2 12.65 24.4 10.85 25.95 9 27.45 7.1 27.65 6.05 27.95 5.05 23.3 2.95 18.65 0.85 17.05 0.35 16 0 14.55 -0.35 13.45 -0.6 12.25 -0.9 Z"/>
</g>

<g id="bt_lupa_0_Layer0_0_MEMBER_3_FILL">
<path fill="#FFFFFF" stroke="none" d="
M -7.9 9.95
L -7.7 8.95
Q -6.35 9.8 -5.7 9.4 -4.25 8.6 -6.2 6.1 -8.2 3.6 -9.6 4.4
L -9.8 4.55
Q -14.15 0.7 -19.5 2.4 -22.1 3.25 -22.8 5.4 -23.55 7.6 -21.85 9.7 -20.95 10.85 -19.3 11.85 -19 12.75 -18.4 13.55 -17.5 14.7 -15.7 15.25 -13.8 15.9 -10.15 15.25 -7.1 14.7 -6.15 14.15 -5.05 13.45 -5.75 12.25 -7.05 10.3 -7.9 9.95 Z"/>
</g>

<path id="bt_lupa_0_Layer0_0_MEMBER_1_1_STROKES" stroke="#999999" stroke-width="1" stroke-linejoin="round" stroke-linecap="round" fill="none" d="
M -28.95 -22.1
L -27.8 -12.1
Q -26.3 -1.75 -24.75 -0.2 -22.2 2.25 -19.2 10.5
L -16.45 7.4
Q -19.1 -0.4 -20.45 -2.85 -21.05 -3.9 -20.65 -10.4
L -20.1 -16.65"/>

<path id="bt_lupa_0_Layer0_0_MEMBER_4_1_STROKES" stroke="#999999" stroke-width="1" stroke-linejoin="round" stroke-linecap="round" fill="none" d="
M -9.6 4.4
L -9.8 4.55
Q -14.15 0.7 -19.5 2.4 -22.1 3.25 -22.8 5.4 -23.55 7.6 -21.85 9.7 -20.95 10.85 -19.3 11.85 -19 12.75 -18.4 13.55 -17.5 14.7 -15.7 15.25 -13.8 15.9 -10.15 15.25 -7.1 14.7 -6.15 14.15 -5.05 13.45 -5.75 12.25 -7.05 10.3 -7.9 9.95
L -7.7 8.95
Q -6.35 9.8 -5.7 9.4 -4.25 8.6 -6.2 6.1 -8.2 3.6 -9.6 4.4 Z"/>

<path id="bt_lupa_0_Layer0_0_MEMBER_5_1_STROKES" stroke="#999999" stroke-width="1" stroke-linejoin="round" stroke-linecap="round" fill="none" d="
M -5.8 7.5
Q -6.7 7.3 -7.5 7.5 -9.15 8 -8.5 9.95 -7.45 13.4 -5.35 13.55"/>
</defs>

<g id="mc_02" transform="matrix( 1, 0, 0, 1, 29,22) ">
<g id="botao" transform="matrix( 1, 0, 0, 1, 0,-0.05) ">
<g transform="matrix( 1, 0, 0, 1, 0,0) ">
<use xlink:href="#bt_lupa_0_Layer0_0_MEMBER_0_FILL"/>
</g>

<g transform="matrix( 1, 0, 0, 1, 0,0) ">
<use xlink:href="#bt_lupa_0_Layer0_0_MEMBER_1_1_STROKES"/>
</g>

<g transform="matrix( 1, 0, 0, 1, 0,0) ">
<use xlink:href="#bt_lupa_0_Layer0_0_MEMBER_2_FILL"/>
</g>

<g transform="matrix( 1, 0, 0, 1, 0,0) ">
<use xlink:href="#bt_lupa_0_Layer0_0_MEMBER_3_FILL"/>
</g>

<g transform="matrix( 1, 0, 0, 1, 0,0) ">
<use xlink:href="#bt_lupa_0_Layer0_0_MEMBER_4_1_STROKES"/>
</g>

<g transform="matrix( 1, 0, 0, 1, 0,0) ">
<use xlink:href="#bt_lupa_0_Layer0_0_MEMBER_5_1_STROKES"/>
</g>
</g>
</g>
</svg>
