
<svg xmlns="http://www.w3.org/2000/svg" version="1.1" xmlns:xlink="http://www.w3.org/1999/xlink" preserveAspectRatio="none" x="0px" y="0px" width="108px" height="104px" viewBox="0 0 108 104">
<defs>
<g id="Layer0_0_FILL">
<path fill="#FFFFFF" stroke="none" d="
M 31.55 63.3
L 0 37.9 0 103.45 85.8 103.45 53 79.7 19.1 101.85 31.55 63.3
M 54.9 0
L 67.45 38.5 107.9 40.5 75.2 64.35 85.8 103.45 107.95 103.45 107.95 0 54.9 0
M 40.5 37.85
L 54.9 0 0 0 0 37.9 40.5 37.85 Z"/>
</g>

<path id="Layer0_0_1_STROKES" stroke="#CCCCCC" stroke-width="1" stroke-linejoin="round" stroke-linecap="round" fill="none" d="
M 0 37.9
L 40.5 37.85 54.9 0
M 0 37.9
L 31.55 63.3 19.1 101.85 53 79.7 85.8 103.45 75.2 64.35 107.9 40.5 67.45 38.5 54.9 0"/>
</defs>

<g transform="matrix( 1, 0, 0, 1, 0,0) ">
<use xlink:href="#Layer0_0_FILL"/>

<use xlink:href="#Layer0_0_1_STROKES"/>
</g>
</svg>
