<svg xmlns="http://www.w3.org/2000/svg" xmlns:xlink="http://www.w3.org/1999/xlink" preserveAspectRatio="none" width="192" height="404" viewBox="0 0 192 404"><defs><path fill="#FFF" d="M.7 4.1q0 1.55 2.2 2.7 2.15 1.1 5.25 1.1 3.2 0 6.3-1.25 3.25-1.4 3.25-2.9T14.45 1.2q-2.9-.9-6.3-.9-3.1 0-5.25 1.1Q.7 2.5.7 4.1z" id="a"/><path fill="#FFF" d="M0 3.75q0 1.6 2.2 2.7 2.15 1.1 5.25 1.1 3.2 0 6.3-1.25Q17 4.95 17 3.4q0-1.5-3.25-2.5Q10.8 0 7.45 0 4.35 0 2.2 1.1 0 2.2 0 3.75z" id="c"/><path fill="#FFF" d="M70.25 38.05q.45.9-3.05 10.75l3.25 1.2q5.65-13 4.6-14.3-.95-1.3-13.1-9.15l-.75 6.15q8.65 4.4 9.05 5.35z" id="e"/><path fill="#FFF" d="M66.75 45.5l-.1-.1q-.7-.55-1.75.7-1.15 1.25-.45 1.7.4.2 1.05-.15l.1.5q-.55.1-1.25 1.1-.4.6.15.95.4.35 1.95.75 1.85.5 2.8.2.95-.15 1.5-.75.4-.4.5-.8.85-.35 1.4-1 .95-.95.7-2.1-.25-1.1-1.6-1.7-2.6-1.1-5 .7z" id="g"/><path fill="#FFF" d="M31.85 65.15q0 1.6 2.2 2.7 2.15 1.1 5.25 1.1 3.2 0 6.3-1.25 3.25-1.35 3.25-2.9 0-1.5-3.25-2.5-2.9-.95-6.3-.95-3.1 0-5.25 1.1-2.2 1.1-2.2 2.7z" id="i"/><path fill="#FFF" d="M31.15 64.85q0 1.55 2.2 2.65 2.15 1.1 5.25 1.1 3.2 0 6.3-1.25 3.25-1.35 3.25-2.85t-3.25-2.55q-2.95-.9-6.3-.9-3.1 0-5.25 1.1-2.2 1.1-2.2 2.7z" id="k"/><path fill="#999" d="M62.45 21.05Q56.7 8.3 49.85 8.3q-6.8-.05-12.5 12.75-5.15 11.65-5.05 21.9.1 9.1 5.4 15.55 5.3 6.4 12.65 6.4 7.35 0 12.45-6.4 5.15-6.45 5-15.55-.15-10.4-5.35-21.9z" id="m"/><path fill="#FFF" d="M62.45 22.8q-5.4-11.9-11.7-11.9-6.3 0-11.6 11.9-4.8 10.8-4.7 20.3.1 8.45 5 14.45 4.9 5.95 11.7 5.95 6.85 0 11.6-5.95 4.8-6 4.7-14.45-.15-9.65-5-20.3z" id="o"/><path fill="#FFF" d="M58.5 28.05q1.6 0 2.55-1.15 1-1.1.7-2.75-.25-1.6-1.6-2.75-1.3-1.1-2.95-1.1-1.6 0-2.55 1.1-.95 1.15-.7 2.75.3 1.65 1.6 2.75 1.3 1.15 2.95 1.15z" id="q"/><path fill="#0D0057" d="M50.4 16.2q3.5 0 5.75-1.05 2.3-1 2.1-2.45v-.05L56.4 1.3H39.6l1.85 11.3v.1q.2 1.45 2.85 2.45 2.6 1.05 6.1 1.05z" id="s"/><path fill="#0D0057" d="M37.75 1.35l-7.1 6.95L71.35.7 51.5-1.15l-13.75 2.5z" id="t"/><path d="M44.5 23.95L44.45 22 35 18.35l-1.15 2.6 10.65 3z" id="u"/><path fill="#FFF" d="M48.7 28.1q1.65 0 2.55-1.15 1-1.1.75-2.75-.3-1.65-1.6-2.75-1.35-1.15-2.95-1.15t-2.55 1.15q-.95 1.1-.7 2.75t1.55 2.75q1.35 1.15 2.95 1.15z" id="w"/><path d="M52.25 23.95l.15 1.1h1.5l-.15-1.1h-1.5z" id="y"/><path d="M45.65 19.8l3.6-2.65-4.9 1.25 1.3 1.4z" id="z"/><path d="M54.85 16.95l4.1 2.25.5-1.75-4.6-.5z" id="A"/><path fill="#FFF" d="M55.7 42.35q-7.4 6.25-8.5 6.3-1.1.05-5.25-8.85l-6.55.7q9.3 14.65 11.05 15 1.7.35 11.85-10.65l-2.6-2.5z" id="B"/><path fill="#FFF" d="M56 39.3q.4-.9 0-1.25-.55-.8-1.85.65-1.15 1.4-.6 2.15l.15.1q-1.7 2.95-.2 5.85.8 1.5 2.1 1.65 1.35.15 2.45-1.05.6-.75.9-1.75.6-.25.9-.7.5-.5.7-1.75.2-1.2-.6-3.2-.6-1.75-1.05-2.2-.6-.6-1.2 0-1 .85-1.05 1.5H56z" id="E"/><g id="G"><path d="M2.1 0Q.3 0 .05 1.8-.3 3.6 1.5 3.6q1.85 0 2.1-1.8T2.1 0m-.35.2Q2.9.2 2.7 1.35q-.2 1.1-1.3 1.1-1.15 0-.95-1.1Q.65.2 1.75.2m9.6 3.4q1.85 0 2.1-1.8T11.95 0q-1.75 0-2.1 1.8-.25 1.8 1.5 1.8M11.6.2q1.15 0 .95 1.15-.2 1.1-1.3 1.1-1.15 0-.95-1.1Q10.5.2 11.6.2z"/><path fill="#FFF" d="M2.7 1.35Q2.9.2 1.75.2.65.2.45 1.35q-.2 1.1.95 1.1 1.1 0 1.3-1.1m9.85 0Q12.75.2 11.6.2q-1.1 0-1.3 1.15-.2 1.1.95 1.1 1.1 0 1.3-1.1z"/></g><path fill="#999" d="M-11.05-2.2q-10.75-6.25-26-6.25-15.2 0-25.95 6.25Q-73.75 4.1-73.75 13q0 8.9 10.75 15.15 10.75 6.3 25.95 6.3 15.25 0 26-6.3Q-.3 21.9-.3 13T-11.05-2.2z" id="H"/><path fill="#FFF" d="M-12.4-2.1Q-22.55-8-37.05-8q-14.4 0-24.6 5.9-10.2 6-10.2 14.45 0 8.4 10.2 14.35 10.2 5.95 24.6 5.95 14.5 0 24.65-5.95 10.2-5.95 10.2-14.35 0-8.45-10.2-14.45z" id="I"/><g id="J"><path fill="#999" d="M35.3-7.8q1.65 1.65 3.95 1.65 2.35 0 3.95-1.65t1.6-3.95q0-2.3-1.6-3.9-1.6-1.65-3.95-1.65-2.3 0-3.95 1.65-1.6 1.6-1.6 3.9t1.6 3.95m3.9.55q-1.95 0-3.3-1.35-1.35-1.4-1.35-3.25 0-1.9 1.35-3.3 1.35-1.35 3.3-1.35 1.9 0 3.2 1.35 1.4 1.4 1.4 3.3 0 1.85-1.4 3.25-1.3 1.35-3.2 1.35z"/><path fill="#FFF" d="M35.9-8.6q1.35 1.35 3.3 1.35 1.9 0 3.2-1.35 1.4-1.4 1.4-3.25 0-1.9-1.4-3.3-1.3-1.35-3.2-1.35-1.95 0-3.3 1.35-1.35 1.4-1.35 3.3 0 1.85 1.35 3.25z"/></g><g id="K"><path fill="#999" d="M36.55-4.1q0 1.65 1.15 2.8 1.2 1.2 2.85 1.2 1.65 0 2.8-1.2 1.15-1.15 1.15-2.8t-1.15-2.85Q42.2-8.1 40.55-8.1T37.7-6.95q-1.15 1.2-1.15 2.85m1.6-2.45q.95-.95 2.3-.95 1.4 0 2.35.95 1 1 1 2.35t-1 2.3q-.95 1.05-2.35 1.05-1.35 0-2.3-1.05-1-.95-1-2.3 0-1.35 1-2.35z"/><path fill="#FFF" d="M40.45-7.5q-1.35 0-2.3.95-1 1-1 2.35t1 2.3q.95 1.05 2.3 1.05 1.4 0 2.35-1.05 1-.95 1-2.3 0-1.35-1-2.35-.95-.95-2.35-.95z"/></g><path fill="#0D0057" d="M1 0L0 6.35h2.7L1 0z" id="L"/><path fill="#FFF" d="M51.9 7.05q-.45-.5-.95-.5-.85.05-1.65 1.6-.7 1.35-.8 2.5 0 1.15.6 1.8.55.7 1.45.6 1.85-.1 2.35-2.45l.05-.15-1.55.2.25.4.6-.05q-.6 1.35-1.6 1.45-.65 0-1.05-.4-.6-.6-.5-1.5.05-.95.65-2.1.65-1.2 1.25-1.25 1.1-.1 1.6 2.25l.05.1.25-.05-.05-.1q-.35-1.65-.95-2.35z" id="M"/><path fill="#FFF" d="M51.85 4l-.8.1.15 1.85.65-1.95z" id="N"/><path fill="#FFF" d="M54 5.2l-.75-.25-.65 1.75L54 5.2z" id="O"/><path fill="#FFF" d="M54.95 7.5l-.6-.55-1.3 1.4 1.9-.85z" id="P"/><path fill="#FFF" d="M48.85 4.85l-.7.45 1.7 1.15-1-1.6z" id="Q"/><path fill="#FFF" d="M47.2 6.95l-.45.65 2 .4-1.55-1.05z" id="R"/><path id="b" stroke="#999" stroke-linejoin="round" stroke-linecap="round" fill="none" d="M2.9 6.8Q.7 5.65.7 4.1q0-1.6 2.2-2.7Q5.05.3 8.15.3q3.4 0 6.3.9 3.25 1.05 3.25 2.55 0 1.5-3.25 2.9-3.1 1.25-6.3 1.25-3.1 0-5.25-1.1z"/><path id="d" stroke="#999" stroke-linejoin="round" stroke-linecap="round" fill="none" d="M2.2 6.45Q0 5.35 0 3.75 0 2.2 2.2 1.1 4.35 0 7.45 0q3.35 0 6.3.9Q17 1.9 17 3.4q0 1.55-3.25 2.9-3.1 1.25-6.3 1.25-3.1 0-5.25-1.1z"/><path id="f" stroke="#999" stroke-linejoin="round" stroke-linecap="round" fill="none" d="M61.2 32.7q8.65 4.4 9.05 5.35.45.9-3.05 10.75l3.25 1.2q5.65-13 4.6-14.3-.95-1.3-13.1-9.15"/><path id="h" stroke="#999" stroke-linejoin="round" stroke-linecap="round" fill="none" d="M66.65 45.4l.1.1q2.4-1.8 5-.7 1.35.6 1.6 1.7.25 1.15-.7 2.1-.55.65-1.4 1-.1.4-.5.8-.55.6-1.5.75-.95.3-2.8-.2-1.55-.4-1.95-.75-.55-.35-.15-.95.7-1 1.25-1.1l-.1-.5q-.65.35-1.05.15-.7-.45.45-1.7 1.05-1.25 1.75-.7z"/><path id="j" stroke="#999" stroke-linejoin="round" stroke-linecap="round" fill="none" d="M34.05 67.85q-2.2-1.1-2.2-2.7t2.2-2.7q2.15-1.1 5.25-1.1 3.4 0 6.3.95 3.25 1 3.25 2.5 0 1.55-3.25 2.9-3.1 1.25-6.3 1.25-3.1 0-5.25-1.1z"/><path id="l" stroke="#999" stroke-linejoin="round" stroke-linecap="round" fill="none" d="M33.35 67.5q-2.2-1.1-2.2-2.65 0-1.6 2.2-2.7 2.15-1.1 5.25-1.1 3.35 0 6.3.9 3.25 1.05 3.25 2.55 0 1.5-3.25 2.85-3.1 1.25-6.3 1.25-3.1 0-5.25-1.1z"/><path id="n" stroke="#999" stroke-linejoin="round" stroke-linecap="round" fill="none" d="M67.8 42.95q.15 9.1-5 15.55-5.1 6.4-12.45 6.4T37.7 58.5q-5.3-6.45-5.4-15.55-.1-10.25 5.05-21.9 5.7-12.8 12.5-12.75 6.85 0 12.6 12.75 5.2 11.5 5.35 21.9z"/><path id="p" stroke="#999" stroke-linejoin="round" stroke-linecap="round" fill="none" d="M67.45 43.1q.1 8.45-4.7 14.45Q58 63.5 51.2 63.5q-6.85 0-11.75-5.95-4.9-6-5-14.45-.1-9.5 4.7-20.3 5.3-11.9 11.6-11.9t11.7 11.9q4.85 10.65 5 20.3z"/><path id="r" stroke="#000" stroke-linejoin="round" stroke-linecap="round" fill="none" d="M61.05 26.9q-.95 1.15-2.55 1.15-1.65 0-2.95-1.15-1.3-1.1-1.6-2.75-.25-1.6.7-2.75.95-1.1 2.55-1.1 1.65 0 2.95 1.1 1.35 1.15 1.6 2.75.3 1.65-.7 2.75z"/><path id="v" stroke="#FFF" stroke-linejoin="round" stroke-linecap="round" fill="none" d="M44.5 23.95l-10.65-3 1.15-2.6L44.45 22l.05 1.95z"/><path id="x" stroke="#000" stroke-linejoin="round" stroke-linecap="round" fill="none" d="M51.25 26.95q-.9 1.15-2.55 1.15-1.6 0-2.95-1.15-1.3-1.1-1.55-2.75t.7-2.75q.95-1.15 2.55-1.15 1.6 0 2.95 1.15 1.3 1.1 1.6 2.75.25 1.65-.75 2.75z"/><path id="C" stroke="#999" stroke-linejoin="round" stroke-linecap="round" fill="none" d="M41.95 39.8q4.15 8.9 5.25 8.85 1.1-.05 8.5-6.3l2.6 2.5q-10.15 11-11.85 10.65-1.75-.35-11.05-15"/><path id="D" stroke="#999" stroke-linejoin="round" stroke-linecap="round" fill="none" d="M56 38.05q-.55-.8-1.85.65-1.15 1.4-.6 2.15l.15.1q-1.7 2.95-.2 5.85.8 1.5 2.1 1.65 1.35.15 2.45-1.05.6-.75.9-1.75.6-.25.9-.7.5-.5.7-1.75.2-1.2-.6-3.2-.6-1.75-1.05-2.2-.6-.6-1.2 0-1 .85-1.05 1.5H56q.4-.9 0-1.25z"/><path id="F" stroke="#999" stroke-linejoin="round" stroke-linecap="round" fill="none" d="M-7.7-1.4Q0 4.35 7.7-1.4"/></defs><use xlink:href="#a" transform="matrix(-3.70618 0 0 3.70618 150.876 373.083)"/><use xlink:href="#b" transform="matrix(-3.70618 0 0 3.70618 150.876 373.083)"/><use xlink:href="#c" transform="matrix(-3.70618 0 0 3.70618 150.876 373.083)"/><use xlink:href="#d" transform="matrix(-3.70618 0 0 3.70618 150.876 373.083)"/><use xlink:href="#e" transform="matrix(3.70618 0 0 3.70618 -108 146.45)"/><use xlink:href="#f" transform="matrix(3.70618 0 0 3.70618 -108 146.45)"/><use xlink:href="#g" transform="matrix(3.70618 0 0 3.70618 -108 146.45)"/><use xlink:href="#h" transform="matrix(3.70618 0 0 3.70618 -108 146.45)"/><use xlink:href="#i" transform="matrix(3.70618 0 0 3.70618 -108 146.45)"/><use xlink:href="#j" transform="matrix(3.70618 0 0 3.70618 -108 146.45)"/><use xlink:href="#k" transform="matrix(3.70618 0 0 3.70618 -108 146.45)"/><use xlink:href="#l" transform="matrix(3.70618 0 0 3.70618 -108 146.45)"/><use xlink:href="#m" transform="matrix(3.70618 0 0 3.70618 -108 146.45)"/><use xlink:href="#n" transform="matrix(3.70618 0 0 3.70618 -108 146.45)"/><use xlink:href="#o" transform="matrix(3.70618 0 0 3.70618 -108 146.45)"/><use xlink:href="#p" transform="matrix(3.70618 0 0 3.70618 -108 146.45)"/><use xlink:href="#q" transform="matrix(3.70618 0 0 3.70618 -108 146.45)"/><use xlink:href="#r" transform="matrix(3.70618 0 0 3.70618 -108 146.45)"/><use xlink:href="#s" transform="matrix(3.70618 0 0 3.70618 -108 146.45)"/><use xlink:href="#t" transform="matrix(3.70618 0 0 3.70618 -108 146.45)"/><use xlink:href="#u" transform="matrix(3.70618 0 0 3.70618 -108 146.45)"/><use xlink:href="#v" transform="matrix(3.70618 0 0 3.70618 -108 146.45)"/><use xlink:href="#w" transform="matrix(3.70618 0 0 3.70618 -108 146.45)"/><use xlink:href="#x" transform="matrix(3.70618 0 0 3.70618 -108 146.45)"/><use xlink:href="#y" transform="matrix(3.70618 0 0 3.70618 -108 146.45)"/><use xlink:href="#z" transform="matrix(3.70618 0 0 3.70618 -108 146.45)"/><use xlink:href="#A" transform="matrix(3.70618 0 0 3.70618 -108 146.45)"/><use xlink:href="#B" transform="matrix(3.70618 0 0 3.70618 -108 146.45)"/><use xlink:href="#C" transform="matrix(3.70618 0 0 3.70618 -108 146.45)"/><use xlink:href="#D" transform="matrix(3.70618 0 0 3.70618 -108 146.45)"/><use xlink:href="#E" transform="matrix(3.70618 0 0 3.70618 -108 146.45)"/><use xlink:href="#F" transform="matrix(3.70618 0 0 3.70618 91.578 277.093)"/><use xlink:href="#G" transform="matrix(-3.70618 0 0 3.70618 116.224 223.724)"/><use xlink:href="#H" transform="translate(190.347 21.552) scale(2.4428)"/><use xlink:href="#I" transform="translate(190.347 21.552) scale(2.4428)"/><use xlink:href="#J" transform="matrix(3.70618 0 0 3.70618 -108 146.45)"/><use xlink:href="#K" transform="matrix(3.70618 0 0 3.70618 -108 146.45)"/><use xlink:href="#L" transform="scale(3.70412) rotate(-174.79 2.78 24.095)"/><use xlink:href="#M" transform="matrix(3.70618 0 0 3.70618 -108 146.45)"/><use xlink:href="#N" transform="matrix(3.70618 0 0 3.70618 -108 146.45)"/><use xlink:href="#O" transform="matrix(3.70618 0 0 3.70618 -108 146.45)"/><g transform="matrix(3.70618 0 0 3.70618 -108 146.45)"><use xlink:href="#P"/></g><g transform="matrix(3.70618 0 0 3.70618 -108 146.45)"><use xlink:href="#Q"/></g><g transform="matrix(3.70618 0 0 3.70618 -108 146.45)"><use xlink:href="#R"/></g></svg>