<svg xmlns="http://www.w3.org/2000/svg" xmlns:xlink="http://www.w3.org/1999/xlink" preserveAspectRatio="none" width="103" height="62" viewBox="0 0 103 62"><defs><linearGradient id="a" gradientUnits="userSpaceOnUse" x1="73.375" y1="67.862" x2="78.125" y2="43.237"><stop offset=".784%" stop-color="#C90"/><stop offset="100%" stop-color="#878601"/></linearGradient><linearGradient id="b" gradientUnits="userSpaceOnUse" x1="74.675" y1="60.925" x2="75.925" y2="54.475"><stop offset=".784%" stop-color="#C90"/><stop offset="48.627%" stop-color="#CF0"/><stop offset="100%" stop-color="#990"/></linearGradient><linearGradient id="c" gradientUnits="userSpaceOnUse" x1="73.625" y1="66.563" x2="74.475" y2="62.137"><stop offset=".784%" stop-color="#FED067"/><stop offset="100%" stop-color="#DBDB02"/></linearGradient><linearGradient id="d" gradientUnits="userSpaceOnUse" x1="73.675" y1="66.513" x2="74.525" y2="62.087"><stop offset=".784%" stop-color="#FED067"/><stop offset="100%" stop-color="#DBDB02"/></linearGradient><linearGradient id="e" gradientUnits="userSpaceOnUse" x1="113.175" y1="68.463" x2="114.025" y2="64.037"><stop offset=".784%" stop-color="#FED067"/><stop offset="100%" stop-color="#DBDB02"/></linearGradient><g id="f"><path fill="#960" d="M58.3 31.55q.05-.1 0-.15h-.1q.1.05.1.15m26 .5q-.1.45-.15.65-.1.25-.55.4-.75.4-2.05.15-.25-.05-.35-.2.1.35-.15.85-.2.25-.5.7-.25.25-.45.5v.1l1.05.2q.3-.35.9-1.1.6-.55 1.35-.35.95.3 1.45-.35.25-.45.4-.7.1-.15.25-.3-.75-.5-1.2-.55z"/><path fill="#498F01" d="M58.3 31.8l.1-.05q-.042 0-.1-.15.04.12 0 .2m-10.45-4h-.25q-.048 0-.05-.05v.1l.25.1.05-.15m-.2-.55q-.1.25-.25.5h.15l.1-.5m26.1 3.35q0 .05.05.15.25.7.25.75.5-.2 1.25-1.15.15-.25.35-.45-.1.05-.2.05-1.35.5-1.7.65m32.6 7.9l.05-.05q-.1-.05-.1-.2h-.2l.2.25h.05z"/><path fill="#331E00" d="M60 31.8q-.1.1-.3.2l-.1-.2q-.15-.15-.15-.4-.3.05-.65.2-.25.1-.4.15l-.1.05q.05.25 0 .4-.1.55-.55 1.1-.35.55-.45.75-.05.45.3.8.05.1.25.2.2.15.5.4.55.4.75.7l.1.1.05.05q.1.35.05.8-.1.35-.4.75-.15.2-.4.3-.9.8-1 .95l-.15.6q.5.2.75.5.15.2.2.35.25.4.3 1 .15-.35.35-.55.15-.3.6-.6.4-.3.6-.6.2-.4.35-1 .1-.5-.1-1-.15-.5-.05-1.05.1-.4.6-1.8.6-1.4.7-2.05.1-.55.15-.95-.35.3-.95.2l-.05-.2q-.1-.1-.55-.4 0 .05-.25.25m-12.45-4.05h-.15q-.05.15-.15.25.15.5.4 1.1.3.9.15 1.7-.1.35-.45 1-.45.7-.45.8-.05.35.05 1.05.2.65.15 1.1-.05.2-.7.4-.15.05-.2.1-.05.45.05.9-.05.5.05.9l1.85.35q.1-.4.35-1 .65-1.25.75-1.6.15-.85.1-3.1 0-2.3.05-2.75.05-.15.25-.8-.2-.05-.45-.15-.3-.2-.35-.2-.05-.05-.3.1-.2.2-.4.25-.1-.2-.3-.35l-.05.15-.25-.1v-.1M75.2 31.5q-.15.2-.4.75-.25.45-1.05.3-.35 0-.8-.5-.45-.55-.55-.9l-.1.2q-.15.1-.35.05-.35-.1-.6-.3v.05q-.1-.15-.1-.2v-.05q-.2-.3-.6-.35-.3-.1-.4-.1-.3.05-.2.15l-.8-.15q-.1.3-.25.5-.1.3-.6 3.05v.05q-.05.1-.05.15-.55 3.05-.6 4v.4q-.1.95-.4 2.5l10.6 2.05q.2-.4.4-.85.3-.4.6-1.05.15-.25.3-.55.25-.35.4-.8l-.25-.4q-.25-.55.2-1.45.4-.95.25-1.7-.15-.55.25-1.15v-.1q.2-.25.45-.5.3-.45.5-.7-.45-.1-.85.1-.4.15-.95 0-.45-.05-.5-.3-.05-.1.05-.5l-.95-.25.1-.35q-.35.3-.4.4-.15.15-.15.45l-.8-.4q-.75-.3-.95-.35.25-.3.35-.4.2-.15.2-.25.05-.2 0-.25-.05-.05-.05-.1l-.95-.2m-4 0v.2q.05.55.3 1.2l.25 1.1q-.1.4-.4 1.15-.3.6-.35 1-.05.1-.05.2 0 .45.05 1.15.1.4.1.75.1.3.05.45-.05.1-.05.15-.05 0-.1-.05v-.1q-.2-.15-.4-.55-.25-.45-.45-1.05l-.05-.05q-.3-1.2-.2-1.85.1-.5.6-1.75.55-1.25.65-1.95h.05m4.85 4.05q.05.2.3.5.5.6.45 1 0 .15-.2.4-.2.5-.8 1.35-.1.15-.25.35-.65 1-.75 1.45.05.15.05.6v.35q.05.2.05.25l-.1-.05-.05-.15q-.05 0 0-.05-.1-.3-.2-1-.15-1.05-.1-1.65 0-.05.05-.15.1-.5.7-1.55l.2-.3q.5-.7.65-1.35m33.45 4.55l.3-.15q0-.15.05-.25-.1-.1-.1-.15-.2.15-.4.2-.35.15-.6.45-.3.2-1 .1-.35-.1-.9-.15-.1 0-.15.05l-.05-.15q.05-.2-.1-.65v-.5q-.05-.2-.2-.4h-.05l-.2-.25q-.35.15-.75.25-1.8.4-1.85.5-.95.25-1 .5-.1.4.85 1.7 1.15 1.55 1.25 1.95-.35-.05-.6.05l-.05.05q-.55.1-1.05.45-.8.7-1.05 1.9-.15.85.5 1.85.2.25.35.5l2.2.45q.2-.25 2.05-1 1.55-.8 1.8-1.6v-1.1q.05-.95.1-1.1.15-.7 1.1-1.1.55-.25.65-.35.35-.2.5-.6.1-.4.15-.75-.1.05-.45-.05-.15-.05-.7-.2-.45-.1-.8-.2l.2-.25m-24.65-4.4q-.05.5-.7.85-.55.2-.3.9.3.6.2 1.05 0 .15-.1.35-.15.5-.1 1.05.2.65-.2 1.2-.25.25-.35.65-.1.3-.15.6 0 .65.05 1.1-.05.1 0 .2.1.35.65.65l9.75 1.85q-.1-.1-.25-.35-.45-.7-.4-1.15 0-.05.05-.15-.05-.05-.05-.1H93q.15-.6.2-1.05.25-.85.35-1.7.05-.9 0-1.45 0-.15-.05-.25-.05-.15-.1-.25-.2-.55-.4-.85-1.1-1-1.3-1.5-.45-1.2-.45-1.55-.1-.15-.2-.45-.45-.25-.6-.4-.3-.15-.5-.35.05.1-.3.5-.25.45-.25.5l-.65-.15q0-.05-.05-.1l-.05.05.1-.65-.55-.1q-.15.15-.35.5-.2.3-.3.65l-.7-.15q-.15-.2-.2-.4-.25.1-.7.1-1.1-.2-1.1.35m3.4.85q0-.3.1-.45.05-.05.35-.1.5-.15 1.7-.05-.2 1.05.55 3.7.25.6.6 1.75.2.8.15 1 0 .05-.55.5-.3-.45-2.05-.8-.15 0-.3.1-.1 0-.5.25-.05-.1-.15-.15h-.1q.05-.25-.1-2v-.1q-.15-.35-.1-.6-.1-1.05-.1-1.1 0-.15.25-.6.2-.5.2-.6.1-.3.05-.75z"/><path fill="#304301" d="M58.1 29.05q0 .45.1 1.15 0 .35.05.55.1.35.05.65.05.05 0 .15v.05q.058.15.1.15.15-.05.4-.15.35-.15.65-.2 0 .25.15.4l.1.2q.2-.1.3-.2.25-.2.25-.25.45.3.55.4l.05.2q.6.1.95-.2v-.1q.1-.55.1-.9h-.1l-.15.05q-.1-.05-.45-.1-.05-.54-.8-.8.095.005.3-.2.2-.15.3-.25-.05-.1-.2-.2-.2-.2-.4-.15-.05.25-.4.6-.2.25-.4.45l-.65-.1q.15-.3.05-.35-.1-.05-.35-.1-.5-.25-.55-.75m-8.05-1.9q-.55-.25-.65-.55-.15-.45-.65-.6-.05.3-.2.4-.2.2-.65.35-.15.25-.25.5l-.1.5q.002.05.05.05h.25q.2.15.3.35.2-.05.4-.25.25-.15.3-.1.05 0 .35.2.25.1.45.15 0-.05.05-.1t.05-.1q.2-.55.3-.8m53.15 7.7l-.65-.15q.05-.15-.05-.45l-.2-.3q-.05.1-.2.25l-.15.15q-.05.05-.1.15v.05q.05.15.05.25l-.15.3q-.1.3-.2.55-.1.85.65 1 2.85-.5 3.2-1.1l-.1-.05q-.1 0-.85-.5l-.7-.3q-.25-.1-.4.05l-.15.1m6.75 1.45q-.2.2-.25.65-.85.7-1.25.6-.2-.05-.35-.15-.45.45-1.8.85 0 .15.1.2l-.05.05q.15.2.2.4v.5q.15.45.1.65l.05.15q.05-.05.15-.05.55.05.9.15.7.1 1-.1.25-.3.6-.45.2-.05.4-.2 0 .05.1.15-.05.1-.05.25l-.3.15-.2.25q.35.1.8.2.55.15.7.2.35.1.45.05l.05-.05q.1-.6.2-1.15 0-.8-1.3-2.3.15.05.65-1.25-.1.05-.2 0-.5.05-.7.25M89.1 33.95q-.05 0-.15-.05-.05.05-.9-.35-.6.5-.7.7-.1.15-.3.55-.1.3-.35.4h-.05v.05q.05.2.2.4l.7.15q.1-.35.3-.65.2-.35.35-.5l.55.1-.1.65.05-.05q.05.05.05.1l.65.15q0-.05.25-.5.35-.4.3-.5.2.2.5.35.15.15.6.4-.1-.5-.25-1.3-.05-.3-.3-.55-.4.15-.65.25-.4.2-.75.2m-8.1-1.2l.25-1.25q-.85-.35-1.2-.5-.65-.15-1.2-.25 0-.4-.1-.65t-.1-.45q-.3 0-.75-.2-.45-.1-.6-.15l-1.65.6q-.2.2-.35.45-.75.95-1.25 1.15 0-.05-.25-.75-.05-.1-.05-.15l-.05-.05h-.05q-.2-.05-.75-.55-.45-.45-.55-.8-.05 0-.15.05-.25.05-.55.05-.75.15-1.45 0-.35-.05-.55-.25.05.15-.2.85-.05.15-.1.35l-.1.2.8.15q-.1-.1.2-.15.1 0 .4.1.4.05.6.35v.05q.05.1.1.15.25.2.6.3.2.05.35-.05l.1-.2q.1.35.55.9.45.5.8.5.8.15 1.05-.3.25-.55.4-.75l.95.2q0 .05.05.1t0 .25q0 .1-.2.25-.1.1-.35.4.2.05.95.35l.8.4q0-.3.15-.45.05-.1.4-.4l-.1.35.95.25q-.1.4-.05.5.05.25.5.3.55.15.95 0 .4-.2.85-.1.25-.5.15-.85-.2-.15-.2-.25v-.05z"/><path fill="#9C0" d="M59.15 26.3q-.1.15-.55.6-.05 0-.05.05-.05.15-.1.4-.3.6-.3.75-.1.25-.05.85v.1q.05.5.55.75.25.05.35.1.1.05-.05.35l.65.1q.2-.2.4-.45.35-.35.4-.6.2-.05.4.15.15.1.2.2-.1.1-.3.25-.205.205-.3.2.75.26.8.8.35.05.45.1l.15-.05q-.05-.1.05-.2.05-.25 0-.45-.2-1-.3-1.95-.4-.05-1-.15-.55-.1-.85-.85-.1-.55-.15-.7-.15-.2-.4-.35M49.9 24q-.05-.25-.15-.55h-.1q-.05.15-.15.2-.45.8-1.4 2.6-.1.2-.2.5.45-.15.65-.35.15-.1.2-.4.5.15.65.6.1.3.65.55v-.05q.25-1.55-.15-3.1z"/><path fill="url(#a)" d="M46.6 38.55q.1.25.4.75.15-.2.4-.5.3-.4.35-.6.1-.25.4-.8l-1.85-.35q.1 1 .3 1.5m37.25 5.75q.15.15.3.2.45.25 1.5.8.75.55 1 1l-.95-.1q-.1-.2-.85-.55l-.7-.3-.65-.1q-.05.1-.2.2-.1.15-.05.35-.1.25.25.55.4.35.35.5 0 .2-.15.2-.05.05-.1.2l-.8-.15q-.3-.2-.95-.5 0-.05-.05-.1-.45-.2-1-.5-1.3-.85-1.4-.9-.55-.05-1.05.2-.25.1-.7.55-.35.3-.7.4-.05.05-.15.1-.45.15-1.1.05-.2-.05-.35-.15-.15 0 .1-.25.2-.1.7-.55.35-.5 1.05-1.3.35-.45.75-1l-10.6-2.05v.05q-.2.4-.2.85-.1 1.35.1 2.4.05.4.15.75l-.05.1q.25.35 1.15.9.55.4.5.8v.3L67.9 47q-.6-.35-1.6-.5-1.2-.2-1.55-.3-.6-.2-1.2-.95-.05-.15-.15-.2-.5-.5-1-.6-.45-.1-.65.05-.25.35-.85.4-.3.1-.8 0-.65-.05-.9-.05.2.4.75.7.3.25 1 .55.65.3.85.65.05.2.15.4.05.1 0 .25.1 0 .2.1.1.15.25.25.6.5 1.25 1.4.15.1.15.2l-.2 1.05-.3-.05q-.35-.3-.85-.75-.55-.4-1.25-.85-.3-.15-.55-.25-1.55-.8-3.8-1.65-.5-.2-1.6-.85-.95-.55-2-.65-1.1-.25-3.05-.7-1.8-.45-2-.45-1.2.25-2.6.5-1.55.25-2.75.25-.7-.05-1.3-.05.65-.9 2.3-1.85 2.15-1.3 2.65-1.65-.85-.55-1.25-1.1l-.45-.7q-.25-.3-.8-.45-.25 0-.55.2-.2.15-.6.1-.25-.05-.65-.3-.35-.35-.7-.4-.3.3-.8.5-.2.15-.35.15l-2 10.5q.55.15 1.6.25-.05 0-.5.35-.55.4-.8.6.55.05 1.2.6.8.65 1.1.75-.2.2-.5.35-.15.1-.15.15-.05.15-.1.2l.1.3q.2 0 .45.1.4.15.5.3l1.5.3.15-.75q-.25.2-.25-.05V53q.15-.8 1.3-.95.8-.15 1.75.05-.1-.25-.3-.65-.25-.55-.2-.65 0-.35.35-.65.35-.3.35-.35l1.25.2q-.15.4-.6.7-.15.2-.6.45 1.2-.1 1.4.85.05.2 0 .85-.05.5.1.7l.05.05q.15 0 .35.15l1.85.4q.1-.5.45-.9.3-.45.35-.85l3.2.6-.1.8q-.4.1-.55.35v.45q.05.35-.05.4-.15.25-.55.25.15.5.85.9.8.4.85.45-.35.5.05.85.35.4 1.2.45 1.7.25 2.9 1.05.3.3.95.85.55.4 1.15.7l2.55.5q.25-1.4.6-2.35l.1-.7q-.55-.1-1.3-.7-1-.85-1.4-1.05.3-.15 1.75-.5.9-.35 1-.65.05-.4-.9-.7-.6-.25-1-.35.55-.85 1.5-.75.3.05.85.25.6.2.8.2.4.1 1.45-.15 1.1-.2 1.15-.15l1.35.3q1 .3 1.1.3.15.05.7 0 .6-.1.85 0 1 .25 1.3.55.25.2.15.45 0 .3-.05.35-.1.05-.65.1l-.1.55 2 .4q.75-.5 1.1-.75.55-.45.6-1 .05-.1-.35-.7-.5-.6-.5-.7.05-.25.9-.35.75-.1.9-.05 2 .35 3.95 1.35-.05.2-.1.7.1.4.05.6-.2.05-.9.1-.75.15-.8.15l-.1.55.6.4q.4.2.55.25-.4.2-1.45.6-1.45.45-2.15.8-2.9 1-3.05 1.85-.05.25-.1.35.05.05.1.25.4.1 1.1.35.15 0 1.3.4l.05.15q.05.1 0 .3-.05.05-.55.4-.45.4-.5.65-.1.65 1.7 1.35.9.3 1.9.6.7-.35 1.4-.65 1.6-.6 2.25-.5.85.15 1.4.55.45.2 1.25.8-.2.4.6.75.75.4 1.55.55.6.1.95-.05.25-.2.55-.6.35-.5.6-.55.5-.3 1.15-.1.45.05.85.25.25.15 1.05.7l1.45.25q.05-.2.15-.4.1-.25.15-.35l.2-.35q-1.25-.45-2.1-.9-1.65-.8-1.4-1.7.05-.45.35-.5l.55.1q.35.05.6.45.4.35.6.4.45.05.85-.1.05 0 .6-.3l1.2.25-.1.55.85.15q0-.1.15-.45.15-.3.15-.4.15-.7-1.25-1.55-1.2-.75-1.9-.9.25-.45 1.85-.75 1.45-.2 2.6.1.75.15 2.15.7 1.15.55 1.6 1-.45.25-1.35.2-.5-.1-1.2-.25l-.15.85q.15.1.3.25.3.15.6.35-.6.35-.85.6-.35.3-.4.55-.05.35.6.65.5.15 1.1.35 1.6.25 2.65-.4.15-.1.85-.65.55-.4.95-.6l1.9.35q-.1.1-.95.35-.55.25-.6.55-.05.2-.05.25 0 .05.05.3.4.2 1.1.5.45.2.8.6.3.2-.2.2-.4.05-.65 0l-.1.35q1.35.35 2.2.85.55.35 1.25.95.65.65 1.05.9.6.3 1.25.45l3.9-20.3q-1.05-.25-1.65-.6-1.1-.65-1.8-1.9l-.8-.15q.05.9-.8 1.2-.5.1-1.55.05-.2-.05-1.7.35-.3 0-.55.05-.9.2-1 .2-.2 0-.4-.1-.25-.15-.35-.1l.1-.25-2.2-.45.1.2q.15.45.05 1.7.15.3.35.85.2.45.35.7.9 1.6 2.15 2.45.95.6 2.25 1.3h.05q.5.35 1.05.65 1.2.65 2.1 1.7.4.4.7.9h-.25q-.15 0-.35-.05-.2 0-1.25-.45l-.4-.2q0-.15.05-.2 0-.25-.05-.4-.15-.05-.25-.1l-.1.3-.25-.1q0-.1-.1-.15V57v-.1q0-.15-.05-.45-.1-.25-.15-.45-.2.2-.3.8-.1-.05-.15-.05-.1 0-.1-.05.1-.45-.15-.85l-.1-.4q-.15.55-.35 1.1-.1.15-.15.35l.05-.35q-.1-.05-.15-.05-.1.3-.6.7l.05.05h-.05q-.45-.1-.8-.5.05-.45.15-.9h-.3q-.05.1-.15.2-.1.05-.15.1-.2-.25-.4-.45 0-.1-.05-.2v-.8h-.05q-.3.2-.35.5-.1.15-.15.1.1-.45 0-1.1V54q-.15-.05-.3-.15-.1.2-.2.45-.3.8-.3.85h-.1q-.1-.1-.15-.1-.05-.3-.15-.35 0-.05-.15-.1-.05.25-.2.35-.05.15-.15.2-.05-.1-.15-.15l-.05-.05.15-.45-.1-.05q-.05.2-.3.4-.15.35-.2.5v.05q-.15.05-.2 0l.4-1.75q-.25.15-.55.6-.45.4-.5.5.15-.65.15-1 .05-.25.1-.4-.1-.05-.15-.05-.2.25-.4.75-.45.5-.7.8.05.05 0 .1l-.05-.05q-.2-.2-.9-1.05l-.05-.1q-.55-.3-.9-.35-.6-.1-.95-.1l-.75.15q-1.15.15-3.1-.25-.95-.2-2.3.5l-1 .45q-.4.2-.65.15-.4-.1-1.5-.65-.9-.5-1.25-.6h-.05q-.15 0-.3-.05-.3 0-.75.25-.3.15-.7.45l-1.75-.35q.15 0 .35-.15.2 0 .35-.2.15-.05.55-.5.65-.6 1.7-.55h1.5q1.1 0 1.45-.2.2-.9.85-1.55.35-.3 1-.85.05 0 .2-.05.05-.1.2-.2h.05q.25-.25.65-.4.1-.05.2-.05.25-.2.55-.25.35-.25.5-.45.25-.4.4-1 .05-.35-.2-.8l-9.75-1.85z"/><path fill="#FC0" d="M47.8 30.8q.15-.8-.15-1.7-.25-.6-.4-1.1-.55 1.25-.65 1.75-.1.4 0 1.65v1.5q-.2.75-.3 1.65-.1.4-.1.7.05-.05.2-.1.65-.2.7-.4.05-.45-.15-1.1-.1-.7-.05-1.05 0-.1.45-.8.35-.65.45-1m28.55 5.25q-.25-.3-.3-.5-.15.65-.65 1.35l-.2.3q-.6 1.05-.7 1.55-.05.1-.05.15-.05.6.1 1.65.1.7.2 1h.1v-.35q0-.45-.05-.6.1-.45.75-1.45.15-.2.25-.35.6-.85.8-1.35.2-.25.2-.4.05-.4-.45-1M71.2 31.7v-.2h-.05q-.1.7-.65 1.95-.5 1.25-.6 1.75-.1.65.2 1.85l.05.05q.2.6.45 1.05.2.4.4.55h.15q.05-.15-.05-.45 0-.35-.1-.75-.05-.7-.05-1.15 0-.1.05-.2.05-.4.35-1 .3-.75.4-1.15l-.25-1.1q-.25-.65-.3-1.2m17.15 4.4q-.1.15-.1.45.05.45-.05.75 0 .1-.2.6-.25.45-.25.6 0 .05.1 1.1-.05.25.1.6v.1q.15 1.75.1 2h.1q.1.05.15.15.4-.25.5-.25.15-.1.3-.1 1.75.35 2.05.8.55-.45.55-.5.05-.2-.15-1-.35-1.15-.6-1.75-.75-2.65-.55-3.7-1.2-.1-1.7.05-.3.05-.35.1z"/><path fill="#CF0" d="M78.25 20.85l.05-.4q-.1-.05-.35-.4-.3.8-.4 1.05-.2.25-.5.3.1.1.3.2.25.1.45.15.1-.15.25-.4t.2-.5m-1.85.4q.15.15.25.2.25 0 .4-.05v-.05l-.65-.1m0 0q-.048 0-.1-.05l.05.05h.05z"/><path fill="#5B9702" d="M105.8 33.5q-.25-.1-.85-.35-.75-.35-.8-.4l-.7.3q-.6.35-.75.3-.2-.05-.65-.3H102q-.1 0-.15.1-.05.05-.15.05-.05.05-.05.1-.1.05-.15.35 0 .05.2.45.1.2.15.4.05-.1.1-.15l.15-.15q.15-.15.2-.25l.2.3q.1.3.05.45l.65.15.15-.1q.15-.15.4-.05l.7.3q.75.5.85.5l.1-.05q.05-.15 0-.65-.1-.55-.05-.65.1-.45.2-.6l.25-.05m-24.2-6.05l-.2-.1q-.75-.1-1.1.1-.1 0-.15.05-.1.1-.3.65-.2.5-.6.65-.65.15-2.05-.1-.7-.05-1.15-.15-.85-.2-1.05-.8.15.05.2 0 .25-.1.3-.15l.1-.6q-.45.05-1.1 0-.55.05-.7.05-.25.05-.4.15-.1.25-.2.7-.1.3 0 .35.05.25.25.45-.05 0-.05.1-.1.05-.1.15-.4.15-.95.25.1.35.55.8.55.5.75.55h.05l.05.05q.35-.15 1.7-.65.1 0 .2-.05l1.65-.6q.15.05.6.15.45.2.75.2 0 .2.1.45t.1.65q.55.1 1.2.25.35.15 1.2.5L81 32.75v.05q0 .1.2.25.1.15.35.2 1.3.25 2.05-.15.45-.15.55-.4.05-.2.15-.65.45.05 1.2.55.1.1.2.15.95.6 1.1.65.2 0 .3-.05.05-.15.25-.1.4.15.7.3.5-.5 1.3-1.2-.65.1-1.5 0-1.45-.2-2.2-.9-.7-.85-1-1.1-1.6-.55-1.95-.7-1.15-.35-1.15-1.75-.05-.1 0-.2t.05-.25z"/><path fill="url(#b)" d="M61.85 47.95q.1-.05.2-.05.1-.05.35-.15-.15-.1-.25-.25-.1-.1-.2-.1 0 .25-.1.55M58.8 42.9v.2q.1.95.4 1.75.55-.7.2-1.4-.2-.45-.6-.55z"/><path fill="#660" d="M71.25 30.95q0 .05.1.2v-.05q-.05-.05-.1-.15z"/><path fill="#4B4B01" d="M74.75 41.6l.1-.05h-.1q-.05.05 0 .05z"/><path fill="url(#c)" d="M106.5 66.45q.5 0 .2-.2-.35-.4-.8-.6-.7-.3-1.1-.5-.05-.25-.05-.3 0-.05.05-.25.05-.3.6-.55.85-.25.95-.35l-1.9-.35q-.4.2-.95.6-.7.55-.85.65-1.05.65-2.65.4-.6-.2-1.1-.35-.65-.3-.6-.65.05-.25.4-.55.25-.25.85-.6-.3-.2-.6-.35-.15-.15-.3-.25l.15-.85q.7.15 1.2.25.9.05 1.35-.2-.45-.45-1.6-1-1.4-.55-2.15-.7-1.15-.3-2.6-.1-1.6.3-1.85.75.7.15 1.9.9 1.4.85 1.25 1.55 0 .1-.15.4-.15.35-.15.45l-.85-.15.1-.55-1.2-.25q-.55.3-.6.3-.4.15-.85.1-.2-.05-.6-.4-.25-.4-.6-.45l-.55-.1q-.3.05-.35.5-.25.9 1.4 1.7.85.45 2.1.9l-.2.35q-.05.1-.15.35-.1.2-.15.4l-1.45-.25q-.8-.55-1.05-.7-.4-.2-.85-.25-.65-.2-1.15.1-.25.05-.6.55-.3.4-.55.6-.35.15-.95.05-.8-.15-1.55-.55-.8-.35-.6-.75-.8-.6-1.25-.8-.55-.4-1.4-.55-.65-.1-2.25.5-.7.3-1.4.65-1-.3-1.9-.6-1.8-.7-1.7-1.35.05-.25.5-.65.5-.35.55-.4.05-.2 0-.3l-.05-.15q-1.15-.4-1.3-.4-.7-.25-1.1-.35-.05-.2-.1-.25.05-.1.1-.35.15-.85 3.05-1.85.7-.35 2.15-.8 1.05-.4 1.45-.6-.15-.05-.55-.25l-.6-.4.1-.55q.05 0 .8-.15.7-.05.9-.1.05-.2-.05-.6.05-.5.1-.7-1.95-1-3.95-1.35-.15-.05-.9.05-.85.1-.9.35 0 .1.5.7.4.6.35.7-.05.55-.6 1-.35.25-1.1.75l-2-.4.1-.55q.55-.05.65-.1.05-.05.05-.35.1-.25-.15-.45-.3-.3-1.3-.55-.25-.1-.85 0-.55.05-.7 0-.1 0-1.1-.3l-1.35-.3q-.05-.05-1.15.15-1.05.25-1.45.15-.2 0-.8-.2-.55-.2-.85-.25-.95-.1-1.5.75.4.1 1 .35.95.3.9.7-.1.3-1 .65-1.45.35-1.75.5.4.2 1.4 1.05.75.6 1.3.7l-.1.7q-.35.95-.6 2.35l-2.55-.5q-.6-.3-1.15-.7-.65-.55-.95-.85-1.2-.8-2.9-1.05-.85-.05-1.2-.45-.4-.35-.05-.85-.05-.05-.85-.45-.7-.4-.85-.9.4 0 .55-.25.1-.05.05-.4v-.45q.15-.25.55-.35l.1-.8-3.2-.6q-.05.4-.35.85-.35.4-.45.9l-1.85-.4q-.2-.15-.35-.15l-.05-.05q-.15-.2-.1-.7.05-.65 0-.85-.2-.95-1.4-.85.45-.25.6-.45.45-.3.6-.7l-1.25-.2q0 .05-.35.35t-.35.65q-.05.1.2.65.2.4.3.65-.95-.2-1.75-.05-1.15.15-1.3.95v.35q0 .25.25.05l-.15.75-1.5-.3q-.1-.15-.5-.3-.25-.1-.45-.1l-.1-.3q.05-.05.1-.2 0-.05.15-.15.3-.15.5-.35-.3-.1-1.1-.75-.65-.55-1.2-.6.25-.2.8-.6.45-.35.5-.35-1.05-.1-1.6-.25l-2.1 10.75L110.45 75l1.05-5.05q-.65-.15-1.25-.45-.4-.25-1.05-.9-.7-.6-1.25-.95-.85-.5-2.2-.85l.1-.35q.25.05.65 0z"/><path fill="#7D4B02" d="M107.55 56.55h-.1l-.05.35q.05-.2.15-.35m1.35.35V57.05q.1.05.1.15l.25.1.1-.3h-.15q-.2-.05-.3-.1m-4.45-2.7q.1.65 0 1.1.05.05.15-.1.05-.3.35-.5h.05v.8q.05.1.05.2.2.2.4.45.05-.05.15-.1.1-.1.15-.2h.3q-.1.45-.15.9.35.4.8.5h.05l-.05-.05q.5-.4.6-.7-.35-.1-.5-.1-.45-.15-.55-.35-.1-.15-.1-.55-.05-.85-1.05-1.25-.25-.15-.65-.25v.2m7.15 4.2h.25q-.3-.5-.7-.9-.65-.25-1.55-.4.05.15.05.4-.05.05-.05.2l.4.2q1.05.45 1.25.45.2.05.35.05z"/><path fill="#653D01" d="M117.9 36.9q-.35.25-.65.15-.35-.1-.45-.25-.1-.2-.25-.25-.55-.1-.75.15-.25.3-.45.35.2-.2.1-.5t-.15-.1q-.6 0-.95.1-.55.1-.6.65-.05.05.1.4l.15.45q-.05.15-.2.35l-.1.3-1.45-.25q-.65-.65-.85-1-.4-.7.15-1.25l-.7-.15q-.5 1.3-.65 1.25 1.3 1.5 1.3 2.3-.1.55-.2 1.15l-.05.05q-.05.35-.15.75-.15.4-.5.6-.1.1-.65.35-.95.4-1.1 1.1-.05.15-.1 1.1v1.1q-.25.8-1.8 1.6-1.85.75-2.05 1l-.1.25q.1-.05.35.1.2.1.4.1.1 0 1-.2.25-.05.55-.05 1.5-.4 1.7-.35 1.05.05 1.55-.05.85-.3.8-1.2l.8.15q.7 1.25 1.8 1.9.6.35 1.65.6l2.5-12.75m-36.45 9.35l.15-.05q-.35-.45-.75-1.1-.85-1.4-.8-1.95.05-.1.25-.3.15-.25.15-.4.1-.3-.1-.6-.1-.15-.55-.5-.35-.3-.55-.65-.15.3-.3.55.15.25.4.45.25.35.25.4-.05.15-.3.6-.4.45-.35.55-.15.55 1.45 1.95l1.05 1.05m.35-10.5l-.1-.05q0 .05-.1.15-.5.4-.55.65-.1.5.2 1.15.4.75.4.9.05.25-.05 1 .05.8.6 1.35.4.35.65 1.6.15.75.3 1.15h.05q-.05-.1 0-.2-.05-.45-.05-1.1.05-.3.15-.6-.45-.5-.6-1.05-.05-.4-.1-.6-.1-.45-.2-.8-.1-.2-.15-.75 0-.55-.2-.75-.3-.4-.45-.55-.3-.4-.2-.8 0-.2.4-.7z"/><path fill="#767601" d="M93 44.5v-.1h-.05q0 .05.05.1z"/><path fill="#4E6D01" d="M90.5 33.5q-.2-.35-.7-.65-.2-.2-.35-.4v-.05l-.1-.05q-.8.7-1.3 1.2.85.4.9.35.1.05.15.05.35 0 .75-.2.25-.1.65-.25z"/><path fill="#7E4B01" d="M85.5 32.6q-.15.15-.25.3-.15.25-.4.7-.5.65-1.45.35-.75-.2-1.35.35-.6.75-.9 1.1l-1.05-.2q-.4.6-.25 1.15.15.75-.25 1.7-.45.9-.2 1.45l.25.4q-.15.45-.4.8.2.35.55.65.45.35.55.5.2.3.1.6 0 .15-.15.4-.2.2-.25.3-.05.55.8 1.95.4.65.75 1.1l-.15.05-1.05-1.05q-1.6-1.4-1.45-1.95-.05-.1.35-.55.25-.45.3-.6 0-.05-.25-.4-.25-.2-.4-.45-.3.65-.6 1.05-.2.45-.4.85-.4.55-.75 1-.7.8-1.05 1.3-.5.45-.7.55-.25.25-.1.25.15.1.35.15.65.1 1.1-.05.1-.05.15-.1.35-.1.7-.4.45-.45.7-.55.5-.25 1.05-.2.1.05 1.4.9.55.3 1 .5.05.05.05.1.65.3.95.5l.8.15q.05-.15.1-.2.15 0 .15-.2.05-.15-.35-.5-.35-.3-.25-.55-.05-.2.05-.35.15-.1.2-.2l.65.1.7.3q.75.35.85.55l.95.1q-.25-.45-1-1-1.05-.55-1.5-.8-.15-.05-.3-.2-.55-.3-.65-.65h-.05q-.15-.4-.3-1.15-.25-1.25-.65-1.6-.55-.55-.6-1.35.1-.75.05-1 0-.15-.4-.9-.3-.65-.2-1.15.05-.25.55-.65.1-.1.1-.15l.1.05q-.4.5-.4.7-.1.4.2.8.15.15.45.55.2.2.2.75.05.55.15.75.1.35.2.8.05.2.1.6.15.55.6 1.05.1-.4.35-.65.4-.55.2-1.2-.05-.55.1-1.05.1-.2.1-.35.1-.45-.2-1.05-.25-.7.3-.9.65-.35.7-.85 0-.55 1.1-.35.45 0 .7-.1h-.05l.05-.05h.05q.25-.1.35-.4.2-.4.3-.55.1-.2.7-.7-.3-.15-.7-.3-.2-.05-.25.1-.1.05-.3.05-.15-.05-1.1-.65-.1-.05-.2-.15z"/></g><g id="g"><path fill="#E18804" d="M62.4 47.7q-.2.05-.35.15 0 .2.1.5.25.65.75.75.15.05.2-.05 0-.15.15-.15.15.05.45.2-.7-.9-1.3-1.4M67 42q-.35.25-.75.55-.5.35-.55.55-.05.35.2.7.1.25.4.65.05.05 0 .5 0 .35.3.75.35.5 1.45.9.45.15 1 .3 0-.4-.6-.8-.8-.6-1.1-.9l.05-.05q-.1-.35-.15-.75-.2-1.1-.05-2.4H67m-8.15 1.05q-.05-.1-.05-.2-1 .95-.75 1.75.15.45.8 1.25.2.15.85.45.6.25.7.45.2.5.45.7.2.2.6.4 0-.15.3-.5.1-.15.2-.25 0-.2-.1-.35-.25-.35-.85-.65-.75-.35-1.1-.6-.55-.3-.7-.7-.25-.75-.35-1.75m-1-8q-1.7-.35-1.9-.4-.25-.1-.4-.2.2.3.65.75 1 1.05 1.4 1.15.75.15.85.05.2-.15.65-.35-.15-.25-.7-.65-.35-.2-.55-.35m43.2 1.05q-.15.05-.2.2-.05.35.1.7.05.15.15.35.3.4.75.5.75.15 1.4-.2.4-.2 1.3-.7.45-.25.85-.3l.7-.05q.3-.05.5-.15.15-.15.25-.55 0-.15-.05-.45-.1-.35-.1-.5.1-.4.3-.55.15-.15.95-.8-.8.1-1.9-.1-.1-.05-.2-.05-.25.05-.25.1-.15.1-.2.55-.05.15-.05.65.05.5.05.65v.05l-.05.05q-.25.65-3.15 1.1-.75-.15-.65-1 .05-.3.2-.55.1-.25.15-.25l-.1-.05q-.2.25-.45.6-.1.1-.15.2.1.15.05.25 0 .15-.2.3z"/><path fill="#960" d="M67.75 38.5q-.15.5-.45 1.35-.4 1.2-.85 1.55l-1.3 1.1q-.7.7-.85 1.45-.2 1.05.2 1.85.1.1.25.3l-.05.05h.05q.35.1 1.55.3 1.05.15 1.6.55l1.1.2q.05-.15.05-.3-.55-.15-1-.3-1.1-.4-1.45-.9-.3-.4-.3-.75.05-.45 0-.5-.3-.4-.4-.65-.25-.35-.2-.7.05-.2.55-.55.4-.3.75-.55h.2q0-.4.15-.9.3-1.55.4-2.6m-.4-11h-.9q-.4.1-.45.55-.15.8.25 1.3.7-.85 1.1-1.85m-22.5-7.85q-.05.2-.1.65l-.65-.15-3.7 19.25q.15-.05.35-.15.45-.2.8-.55.3.05.7.4.35.25.6.3.4.1.7-.1.3-.15.5-.15.5.1.75.4.05.05.4.65.4.65 1.3 1.1.05-.05.15 0l-.1.05q0-.05-.05-.05-.55.4-2.65 1.7-1.65.95-2.25 1.8.6.15 1.25.1l-.25-.35q1.6 0 3.25-.4 2.25-.5 2.55-.55l1.5.3q.9-.15 1.55-.6.35-.2.65-.25.3-.1.95.05.85.15 5.05 3.3 1.6 1.25 2.65 2l-.05.05q.25.1.45.25.75.45 1.4.9.4.35.8.65l.25.1.2-1.05q-.05-.15-.1-.2-.3-.15-.45-.2-.15 0-.15.15-.05.1-.2.05-.5-.1-.75-.75-.1-.3-.1-.5-.1 0-.2.05.1-.3.15-.55-.05-.15-.05-.25-.1.1-.2.25-.3.35-.3.5-.4-.2-.6-.4-.25-.2-.45-.7-.1-.2-.7-.45-.65-.3-.85-.45-.65-.8-.8-1.25-.25-.8.75-1.75.4.15.65.55.3.75-.25 1.4.3 0 .95.1.55.05.75-.05.6-.05.85-.35.2-.15.65-.05.55.1 1.05.6-.2-.6-.05-1.35.1-.7.7-1.35.4-.4 1.25-1 .95-.65 1.25-.95.6-.55.7-1.15l.25-1.65q.25-1.5.8-3.4h.05V34q.5-2.8.65-3.1.1-.2.2-.45.05-.15.1-.25l.1-.3q.2-.7.25-.85-.25-.15-.4-.45-.25-.4-.2-.9h-.25l-.2-.1q-.15-.05-.25-.1-.1-.1-.2-.1v-.05q-.05.05-.2.1 0-.05-.05 0l.05.1q-.25 1.35-1.05 2.45-.05.1-.2.25.05.1 0 .2-.1 0-.15-.05-.45.55-1.25 1.45-1.05 1.05-1.5 1.9-.7 1.25-.8 2.7-.15.05-.25 0l.75-3.9q.45-.65 1.2-1.55l.5-.55q-.7.1-1.1 0-1.3-.25-1.5-.45.75-1.25-1.1-1.7.1.95.35 1.95.05.25.05.5-.2.05-.15.15l.1-.05q0 .4-.05.95 0 .05-.05.1 0 .45-.1 1-.15.65-.7 2.05-.55 1.4-.65 1.75-.1.6.1 1.1.2.5.1 1-.15.6-.4 1-.2.2-.65.55l-.55.55-.3.6q-.15-.6-.3-.95-.15-.2-.25-.35-.25-.05-.55-.15-1.15-.2-1.65-.3-1.65-.25-1.55-.85.05-.35 1.7-.85 1.4-.4 1.9-.4l.95.2q.35-.4.4-.8.1-.4-.1-.8 0-.05-.05-.2h-.05q-.45.2-.65.35-.1.1-.85-.05-.4-.1-1.4-1.15-.45-.45-.65-.75-.55-.3-.45-.85.05-.3.35-.55.15-.1.3-.15.7-.25.95-.3.45-.15.9-.55l.2-.2q.1-.05.1-.15l-.1-.05q.1-.35.25-.55l.2-.4q0-.25-.05-.55-.05-.65-.15-1.1.05-.1.05-.15 0-.55.05-.85.05-.15.25-.8l.2-.3q-.5.35-.85.3-.45-.1-.9-.45-.5-.35-.9-.4l.1-.7.05-.1q-.55-.15-.75-.25-.2-.1-.3-.4-.2.15-.65.4-.2.1-.55.25l-1.1-.2.15-.7q.05-.05.35-.05.15 0 .5-.05-.45-.35-1.2-1.1-.9-.95-.85-1.3.05-.25.25-.35.05 0 .3-.1.5-.15.65-.6-.25.25-.4.3-.15.05-.95-.1-.45-.1-.5-.25-.15-.15-.3-.4l-.2 1.05-.95-.2-.1.35-.2.4q-.1.2-.2.35-.65 1.05-1.4.9-.2-.05-.4-.15l-.3-.2q.15-.35.45-.7-.35-.05-.7-.3-.45-.25-.7-.45l.25-1.35q.2.05.25 0l.05-.05q-.4-.25-.6-.65-.15-.4-.3-.5-.7.15-.85.45m4.9 3.75q.1.3.15.55.45 1.55.15 3.1-.05.3-.25.85-.05.05-.05.15-.05.05-.05.1-.25.6-.25.75-.1.45-.1 2.75.1 2.25-.05 3.1-.1.35-.7 1.6l-.5 1q-.25.6-.3.8-.1.25-.45.6-.2.3-.35.5-.3-.5-.4-.7-.2-.55-.3-1.55-.05-.4-.1-.9v-.9q0-.35.05-.7.2-.95.3-1.65.05-.2 0-1.5 0-1.25.1-1.65.05-.5.6-1.7l.2-.3.2-.5.3-.5.2-.5q.9-1.75 1.35-2.55.1-.1.15-.2l.1-.05m1.8 3.15q-.05-.15 0-.3.1.25.3.55.45.85.35 1.35-.1.5-.75 1.75t-.75 1.7q-.05.4.65 1.8.75 1.35.6 2-.25 1.35-2.25 3.95-.5.6-1.45 1.8-.7.9-.85 1.25l.2-.95q0-.1.1-.35.15-.25.3-.45.45-.6 1.05-1.15 1.55-2.1 1.7-3 .3-1.4 0-3.1-.3-1.6-.15-2.45 0-.15.35-1.3.4-1.15.4-1.3.2-1.05.2-1.8m13.4 9.65q-.1-.9-.05-1.2.2-1 1.05-1.9l.1.05q-.1.3-.35 1.5-.1.55-.2 2.15-.1 1.55-.3 2.45-.15.75-1.1 1.4-1 .7-1.65.6-.35-.1-.6-.75-.15-.5-.1-.65.05-.45.45-.95.45-.5.55-.7l.85.15-.25 1.1-.3-.05q.05-.1.1-.25.15-.1.15-.25-.1-.05-.6.2-.6.25-.7.65-.05.25.05.3.05.05.25.3l1.5.25q.15-.7.55-1.45.45-.75.6-1.6.1-.5 0-1.35m27.8-3.75l.15.05q-.25-.45-.45-.8-.55-1.05-.95-1.35-.15.25-.3.9-.2.65-1 .95-.35.1-.75.15l-.05.1q.2.15.5.4.4.3.6.6.25.3.3.55.2.8.3 1.25v.05q.1.35.1.5.1.35.55 1.45.15.6 1.2 1.6l.05-.35q.65-.15 1.45-.4.55-.1 1.3.1-1.25.3-1.4.4-.7.25-.8.95l-.15.05.1.3q.05.15.05.25.05.6 0 1.4-.05.9-.3 1.8-.05.4-.25 1v.15q.25.35.55.75.3.3.75.8.75.95.5 2.3-.05.3-.65.5-.55.1-.95.05-.15-.05-.2-.15-.05-.1-.2-.15-.2-.05-.4 0-.15 0-.25.1-.35.15-.65.35-.15.15-.3.2-.05.05-.15.1-.65.45-.95.8-.65.65-.9 1.55-.4.25-1.45.25-1.1-.1-1.5-.05-1.05 0-1.7.6l-.5.5q-.2.15-.4.2l-.05.15 1.45.3q.35-.25.75-.45t.75-.2q.15-.05.25 0h.05q.4.05.85.05 1.8.15 2.7-.15.75-.15 2.6-.6 1.55-.3 2.4-.6 1.2.25 2.05-.15.15-.05.45-.2.25-.1.45-.05.5.1 1.05.8.65.8 1.15.95.25.05.8.2.05.05.1.05.55.1 1.4.2.7.15 1.3.3l.3.1q.4.15.7.3.95.45 1 1.3.05.4.15.5.1.25.5.35.2.05.55.15.05 0 .15.05h.05q.25-.6.4-1.1 0 .2.1.35.2.4.1.8l-.05.1q.1 0 .15.05h.15q.15-.6.25-.75.15.15.25.5v.35q.15.05.3.05.05.05.15.05l.3.1q.9.25 1.55.4-.9-1-2.1-1.7-.6-.3-1.1-.6l-.05-.05q-1.25-.75-2.2-1.3-1.3-.8-2.15-2.4l-.35-.7q-.25-.6-.4-.9-.15-.3-.15-.4-.35-.55-.8-.65-.05 0-.65.25-.5.3-2 .25l-.05-.15q-.6.25-1.4.6-1.5.55-1.55.55-.4-.05-.5-.35-.1-.3 0-.9.15-.65 1.6-1.45 1.35-.75 2.2-.75-.05-.55.45-.85.6-.25.7-.7 0-.1-.55-.85t-.5-.95q.1-.6 1.25-.65.55 0 1.4.05l1.65.35h.05q.3-.1.65-.1-.15-.35-1.25-1.9-.95-1.35-.85-1.8.05-.2.9-.45.1-.05 1.9-.5.45-.1.8-.25l-.15-.15.1-.05q.05.05.15.2 1.45-.4 1.85-.85.15-.1.2-.25.05-.4-.4-1.05v-.1q-.05-.1-.15-.2-.2-.55-.15-.8.1-.45.45-.95.2-.25.4-.45-.2.05-.5.05-.8.65-.95.8-.2.15-.3.55 0 .15.1.5.05.3.05.45-.1.4-.25.55-.2.1-.5.15l-.7.05q-.4.05-.85.3-.9.5-1.3.7-.65.35-1.4.2-.45-.1-.75-.5-.1-.2-.15-.35-.15-.35-.1-.7.05-.15.2-.2.2-.15.2-.3.05-.1-.05-.25-.15-.25-.6-.65-.75-.65-1.45-.8-1.05-.2-1.5.25-.25.25-.3.25-.25.1-.6.05-.5-.1-.6-.1-.1-.1-.3-.55-.55 1.6-.8 2.8l-.7-.15q-.65-.75-1-2.3-.25-1.05-.6-1.9m4.9 3.75l-.15.9q.1.25.6.9.3.5.45.85.4.95.05 2.6-.2 1.2-1.2 2-1 .75-2.1.55-.6-.1-.95-1.25-.4-1.15-.25-1.8.15-.75.65-1.35.7-.75 1.45-.6.7.1.7 1 .1.5-.1 1.4-.1.55-.25.65-.45.15-1.05.4l-.45-.1.25-1.05.1.05q-.027.365.1.45l.65.15.35-1.8-.8-.15q-.55.5-.75.95-.4.55-.5 1.1-.1.65.5 1 .3.2.65.3.6.1 1.45-.95.75-.95.85-1.5.1-.6-.5-1.9-.55-1.2-.45-1.75.05-.3.7-1.05z"/><path fill="#7D4B02" d="M68.4 34.2h-.05q-.55 1.9-.8 3.4l-.25 1.65q-.1.6-.7 1.15-.3.3-1.25.95-.85.6-1.25 1-.6.65-.7 1.35-.15.75.05 1.35 0 .05.1.15.6.7 1.15.95l.05-.05q-.15-.2-.25-.3-.4-.8-.2-1.85.15-.75.85-1.45l1.3-1.1q.45-.35.85-1.55.3-.85.45-1.35.05-.15 0-.3.1-1.05.65-4m-3-3.75h-.15l-.5.55q-.75.9-1.2 1.55l-.75 3.9q.1.05.25 0 .1-1.45.8-2.7.45-.85 1.5-1.9.8-.9 1.25-1.45-.5-.05-1.2.05m2.55-3q-.2.05-.6.05-.4 1-1.1 1.85.3.4.4.5.05.15.1.4.15-.15.2-.25.8-1.1 1.05-2.45l-.05-.1m-9.35 10.7q.15-.2.3-.3l-.95-.2q-.5 0-1.9.4-1.65.5-1.7.85-.1.6 1.55.85.5.1 1.65.3.3.1.55.15-.25-.35-.7-.55l.15-.6q.1-.15 1.05-.9m-16 6.4l.25.35q1.2 0 2.75-.25 1.45-.25 2.65-.45.15 0 2 .4 1.95.45 3 .65 1.1.15 1.95.7 1.15.7 1.65.9 2.3.75 3.85 1.6l.05-.05q-1.05-.75-2.65-2-4.2-3.15-5.05-3.3-.65-.15-.95-.05-.3.05-.65.25-.65.45-1.55.6l-1.5-.3q-.3.05-2.55.55-1.65.4-3.25.4m12.85-11.5q-.3.25-.35.55-.1.55.45.85.15.1.4.2.2.05 1.9.4l-.25-.25q-.25-.35-.2-.75.05-.25.4-.8.4-.5.5-1.1 0-.15.05-.5v-.15q-.05-.05-.1-.15l.1-.05q-.05-.25-.1-.6l-.2.4q-.15.2-.25.55l.1.05q0 .1-.1.15l-.2.2q-.45.4-.9.55-.25.05-.95.3-.15.05-.3.15M64.9 35q-.05.3.05 1.2.1.85 0 1.35-.15.85-.6 1.6-.4.75-.55 1.45l-1.5-.25q-.2-.25-.25-.3-.1-.05-.05-.3.1-.4.7-.65.5-.25.6-.2 0 .15-.15.25-.05.15-.1.25l.3.05.25-1.1-.85-.15q-.1.2-.55.7-.4.5-.45.95-.05.15.1.65.25.65.6.75.65.1 1.65-.6.95-.65 1.1-1.4.2-.9.3-2.45.1-1.6.2-2.15.25-1.2.35-1.5l-.1-.05q-.85.9-1.05 1.9m-13.35-8.75q-.05.15 0 .3 0 .75-.2 1.8 0 .15-.4 1.3-.35 1.15-.35 1.3-.15.85.15 2.45.3 1.7 0 3.1-.15.9-1.7 3-.6.55-1.05 1.15-.15.2-.3.45-.1.25-.1.35l-.2.95q.15-.35.85-1.25.95-1.2 1.45-1.8 2-2.6 2.25-3.95.15-.65-.6-2-.7-1.4-.65-1.8.1-.45.75-1.7t.75-1.75q.1-.5-.35-1.35-.2-.3-.3-.55m46.35 25.1q-.3.15-.45.2-.85.4-2.05.15-.85.3-2.4.6-1.85.45-2.6.6-.9.3-2.7.15-.45 0-.85-.05.35.05 1.3.6 1.05.6 1.4.65.3.05.75-.15l.95-.45q1.4-.65 2.3-.5 2.05.4 3.1.25.3-.05.75-.1t.95.05q.4.1.85.4.1.05.15.05.7.9.8 1.05h.05q.15 0 .1-.1.25-.2.6-.8.3-.4.45-.7-.55-.15-.8-.2-.5-.15-1.15-.95-.55-.7-1.05-.8-.2-.05-.45.05m3.55 1.95q.05.2 0 .45-.1.3-.25 1.05.1-.05.5-.6.4-.45.6-.55l-.35 1.65v.1q.1-.05.15 0v-.05q.05-.2.25-.5.15-.25.2-.4h.15l-.1.45.05.1q.1 0 .05.1.1 0 .25-.2.1-.1.15-.35.15 0 .15.1.1.1.15.3.1.05.15.1.05.05.15.05 0-.05.25-.85.1-.25.2-.45-.6-.15-1.3-.3-.85-.1-1.4-.2m-1.9-6.5q-.85 0-2.2.75-1.45.8-1.6 1.45-.1.6 0 .9.1.3.5.35.05 0 1.55-.55.8-.35 1.4-.6l.05.15q1.5.05 2-.25.6-.25.65-.25.45.1.8.65 0 .1.15.4.15-1.25-.05-1.7 0-.05-.1-.15-.1-.25-.3-.55-.7-.95-.55-1.8.25-1.25 1.1-1.95.45-.3 1-.45l-1.65-.35q-.85-.05-1.4-.05-1.15.05-1.25.65-.05.2.5.95t.55.85q-.1.45-.7.7-.5.3-.45.85z"/><path fill="#B0DB02" d="M44.75 20.3q.05-.45.1-.65.15-.3.85-.45.15.1.3.5.2.4.6.65l-.05.05q-.05.05-.25 0l-.25 1.35q.25.2.7.45.35.25.7.3-.3.35-.45.7l.3.2q.2.1.4.15.75.15 1.4-.9.1-.15.2-.35l.2-.4.1-.35.95.2.2-1.05q.15.25.3.4.05.15.5.25.8.15.95.1.15-.05.4-.3V21q.1-.35-.2-.65-.35-.3-.55-.5.2-.2.7-.35.45-.15.55-.3-1.25-.55-1.45-.8-.05-.1 0-.3.05-.35.1-.6t.5-.65q.45-.45.45-.6 0-.05-.2-.55-.15-.5-.15-.55.05-.1.5-.6v-.05L45.5 13l-1.4 7.15.65.15z"/><path fill="#A3CA02" d="M75.65 21.35q.15-.1.2-.25 0-.15-.1-.3-.15-.1-.1-.25.4.3.7.6.05 0 .1.05l.6.15q.05 0 .05.05.25-.1.45-.4.15-.15.4-1 0-.05.1-.1.1.05.35.35l.4.05.15-.85-22.1-4.25q-.05.15-.15.3-.1.15-.1.25-.2 0-1.05-.45-.7-.4-1.2-.35.05-.15.05-.25l-1.2-.2-.05.05q-.45.5-.5.6 0 .05.15.55.2.5.2.55 0 .15-.45.6-.45.4-.5.65-.05.25-.1.6-.05.2 0 .3.2.25 1.45.8-.1.15-.55.3-.5.15-.7.35.2.2.55.5.3.3.2.65v.15q-.15.45-.65.6-.25.1-.3.1-.2.1-.25.35-.05.35.85 1.3.75.75 1.2 1.1-.35.05-.5.05-.3 0-.35.05l-.15.7 1.1.2q.35-.15.55-.25.45-.25.65-.4.1.3.3.4.2.1.75.25h.25v.05q-.15.05-.3.05l-.1.7q.4.05.9.4.45.35.9.45.35.05.85-.3v-.05q.45-.5.55-.6.25.1.4.35 0 .05.15.6.25.85.9.9.55.05.95.15 1.85.45 1.1 1.7.2.2 1.5.45.4.1 1.1 0h.15q.7-.1 1.2-.05.05.05.15.05.05-.1 0-.2-.05-.25-.1-.4-.1-.1-.4-.5-.4-.5-.25-1.3.05-.45.45-.55h.9q.4 0 .6-.05.05-.05.05 0 .15-.05.2-.1h.05q.4-.3.6-1.15v-.35q-.1-.3-.25-.6.2-.25.25-.3.05 0 .35.05t.5.4q.2.35.4.4.05 0 .8-.1.85-.1 1.25 0 0-.1.1-.35.15-.25.2-.4-.15-.35-.3-.65-.3-.65-.25-.9.05-.35.05-.5.05-.35-.15-.6l.1-.35 1.1.2q.1.6.25.75.05.05.5.15.7.1 1.35-.4.5-.35.55-.55 0-.15-.1-.25-.15-.05-.15-.2.05-.15.25-.3z"/><path fill="#809E03" d="M75.85 21.1q-.05.15-.2.25-.2.15-.25.3 0 .15.15.2.1.1.1.25-.05.2-.55.55-.65.5-1.35.4-.45-.1-.5-.15-.15-.15-.25-.75l-1.1-.2-.1.35q.2.25.15.6 0 .15-.05.5-.05.25.25.9.15.3.3.65-.05.15-.2.4-.1.25-.1.35-.4-.1-1.25 0-.75.1-.8.1-.2-.05-.4-.4-.2-.35-.5-.4-.3-.05-.35-.05-.05.05-.25.3.15.3.25.6v.35q-.2.85-.6 1.15l-.05.05q.1 0 .2.1.1.05.25.1l.2.05q.15-.55.4-.95.2-.4.35-.65.15.05.4.25.2.25.3.35l.65.15q.1-.45.5-.9.05.1.2.25.2.1.45.15.45.05.8-.3.35-.35.4-.6 0-.1-.3-.6-.35-.4-.25-.75 0-.2.15-.35l.05-.1q.4.1.65.3l1.1.2q.05-.25.05-.35.1-.2.25-.4l1.05.25q0-.1.15-.25l.1-.3q.05-.2-.15-.35-.2-.1-.1-.45 0-.15.15-.5t.2-.55l-.05-.05q-.3-.3-.7-.6-.05.15.1.25.1.15.1.3z"/><path fill="#5C3701" d="M93 44.5q0 .05-.05.15-.05.4.4 1.1.15.25.25.4.25.5.15.8-.1.65-.3.95-.2.25-.5.4-.35.15-.55.3.2-.05.4 0 .15.05.2.15.05.1.2.15.4.05.95-.05.6-.2.65-.5.25-1.35-.5-2.3-.45-.5-.75-.8-.3-.4-.55-.75z"/><path fill="#CA7902" d="M95.75 38.2q-.75-.2-1.3-.1-.8.25-1.45.4l-.05.35q.3.3.45.75l.15-.05q.1-.7.8-.95.15-.1 1.4-.4m1.75-1.1l.15-.9q-.65.75-.7 1.05-.1.55.45 1.75.6 1.3.5 1.9-.1.55-.85 1.5-.85 1.05-1.45.95-.35-.1-.65-.3-.6-.35-.5-1 .1-.55.5-1.1.2-.45.75-.95l.8.15-.35 1.8-.65-.15q-.127-.085-.1-.45l-.1-.05-.25 1.05.45.1q.6-.25 1.05-.4.15-.1.25-.65.2-.9.1-1.4 0-.9-.7-1-.75-.15-1.45.6-.5.6-.65 1.35-.15.65.25 1.8.35 1.15.95 1.25 1.1.2 2.1-.55 1-.8 1.2-2 .35-1.65-.05-2.6-.15-.35-.45-.85-.5-.65-.6-.9z"/><path fill="#CF0" d="M100.75 31.45q-.3-.05-.5.2-.1.05-.5.7-.3.4-.45.5-.1.05-.15.05v-.05l-.1.05q.25.15.7.25.25.05.75-.3.45-.35.65-.3.25.05.6.25.1.05.15.1l.05.05h.05q0 .05.05.05.4.3.55.35.25.05.9-.3l.65-.3q.05 0 .85.3.6.3.85.4.1-.05.15-.1l.05.15q1.1.2 1.9.1.3 0 .5-.05-.2.2-.4.45-.35.5-.45.95-.05.25.15.8.1.1.15.2v.1q.45.65.4 1.05-.05.15-.2.25.15.1.35.1.35.1 1.25-.5v-.05q.1-.4.3-.6.2-.25.65-.25l.15-.15.05.1.7.15q-.55.55-.15 1.2.2.45.85 1.05l1.5.3q0-.15.1-.35.15-.2.15-.35l-.3-.8q.1-.55.7-.7.35-.05.85-.1.15-.15.25.1.05.25-.05.5.1 0 .35-.35.3-.25.8-.15.15.05.2.25.1.2.45.25.3.05.6-.15l1-5.2-.7-.15.2-.85q-1.25-.5-3.05-1.65-.5.6-.9.6-.2 0-.3.05-.05.05-.1.3 0 .15.05.5.05.4.05.5-.1.4-1.2.9-1.05.5-1.85.35-.15 0-.45-.25 0-.1-.05-.1l-.1-.1v.1q-.1-.05-.15-.05l-1.2-.7q-1.1-.7-1.15-.7-.15-.05-.4.05-.3.05-.45 0-.55-.1-.55-.15 0-.05.1-.65l-.7-.1q-.55.55-.85 1.1-.05.15-.25.8-.05.3-.3.4-.25.05-1.05-.1-.65-.15-.85-.35-.25-.2-.5-.3-.35-.05-.5.2-.15.25-.4.25-.35-.05-.5-.1z"/><path fill="#8E5602" d="M94.55 32.1q.4.85.3 1.45-.2.95-.4 1.15-.7-.45-1.55-2.2l-.15-.05q.35.85.6 1.9.35 1.55 1 2.3l.7.15q.25-1.2.8-2.8.2.45.3.55.1 0 .6.1.35.05.6-.05.05 0 .3-.25.45-.45 1.5-.25.7.15 1.45.8.45.4.6.65.05-.1.15-.2.25-.35.45-.6l.1.05v-.35q-.1-.2-.15-.4-.25-.4-.2-.45.05-.25.1-.35 0-.05.05-.1t.1-.05q0-.1.1-.2-.05-.05-.15-.1-.35-.2-.6-.25-.2-.05-.65.3-.5.35-.75.3-.45-.1-.7-.25-.1 0-.15-.05-.4.2-.65.35-.75.35-1.3.25-.55-.2-1-.65-.95-.8-.8-1.55-.1 0-.9-.45 0 .1-.05.15-.05.35.35 1.15z"/><path fill="#9C0" d="M94.05 30.7q-.95-.6-1.3-.7-.85-.15-1.2.25l-.05.1q.4.3.95 1.35.2.35.45.8.85 1.75 1.55 2.2.2-.2.4-1.15.1-.6-.3-1.45-.4-.8-.35-1.15.05-.05.05-.15-.1-.1-.2-.1z"/><path fill="#8DAF03" d="M101.05 30.45q-.25-.05-.6-.15l-.3-.2q-.05.1-.55.9l-.5.75q-.05.15.05.5.1.3.05.45-.15.05-.3.15.05.05.15.05l.1-.05v.05q.05 0 .15-.05.15-.1.45-.5.4-.65.5-.7.2-.25.5-.2.15.05.5.1.25 0 .4-.25.15-.25.5-.2.25.1.5.3.2.2.85.35.8.15 1.05.1.25-.1.3-.4.2-.65.25-.8.3-.55.85-1.1l.7.1q-.1.6-.1.65 0 .05.55.15.15.05.45 0 .25-.1.4-.05.05 0 1.15.7l1.2.7q.05 0 .15.05v-.1q-.2-.3-.2-.65-.65-.05-.95-.3-.25-.15-.5-.95v-.05q-.65-.2-.65-.75l.05-.05q-.4-.15-.6-.25-.4-.3-.05-.8-.7-.4-1.3 0-.4.25-.95 1.1-.65 1.05-.8 1.25-.5.55-1 .45-.35-.05-.6-.2-.3-.25-.65-.65-.35.65-1.2.55z"/><path fill="#7ACA02" d="M85.25 24.5q.05-.2 2.75-3.3l-9.05-1.75-.15.85-.4-.05q-.25-.3-.35-.35-.1.05-.1.1.2.3.35.4.05.05-.05.45 0 .2-.15.5l-.3.4q-.2-.05-.45-.2-.2-.1-.25-.15-.2 0-.45-.05-.1 0-.2-.15h-.05q-.05.2-.2.55-.15.35-.15.5-.1.35.1.45.2.15.15.35l-.1.3q-.15.15-.15.25L75 23.35q-.15.2-.25.4 0 .1-.05.35l-1.1-.2q-.25-.2-.65-.3l-.05.1q-.15.15-.15.35-.1.35.25.75.3.5.3.6-.05.25-.4.6-.35.35-.8.3-.25-.05-.45-.15-.15-.15-.2-.25-.4.45-.5.9l-.65-.15q-.1-.1-.3-.35-.25-.2-.4-.25-.15.25-.35.65-.25.4-.4.95v.05h.25q-.05.5.2.9.15.3.4.45.2.15.5.2.65.1 1.45 0 .3 0 .55-.1.1.05.15 0 .5-.1 1-.3v-.1q.1-.05.2-.05-.3-.2-.35-.45.05-.1.1-.4.1-.5.15-.65.1-.2.35-.25h.7q.65.05 1.2.05l-.15.6q-.1 0-.3.1-.15.05-.3.05.3.55 1.1.7.45.15 1.2.2 1.4.25 2.05.05.4-.1.55-.6.2-.55.3-.65.05-.05.1-.05.35-.2 1.15-.05.1.05.2.05.45.15 1 .45.35.15.55.3 1 .2 1.35.1.45-.2.6-.9 0-.05-.1-.7-.2-.65-.1-1.1 0-.15.2-.7.05-.2.15-.35z"/><path fill="#6C8602" d="M87.4 24.6q-.15-.25-.15-.3.05-.15.1-.2.1-.05 3.35-2.35L88 21.2q-2.7 3.1-2.75 3.3-.1.15-.15.35-.2.55-.2.7-.1.45.1 1.1.1.65.1.7-.15.7-.6.9-.35.1-1.35-.1-.2-.15-.55-.3-.55-.3-1-.45 0 .1-.05.25.05.1.05.2.3.3.7.8.65.6 1.6.8.4.1.7 0 .1-.05.35-.25.4-.3 1.2.05 0-.1.15-.25l.1-.3q.1-.4.05-.4-.25-.15-.6-.6.5-.4.55-.45.15-.2.25-.6 0-.15-.05-.45-.05-.35-.05-.5.1-.35.4-.55.35-.05.7.1-.1-.35-.25-.65z"/><path fill="#A9D202" d="M87.25 24.3q0 .05.15.3.15.3.25.65-.35-.15-.7-.1-.3.2-.4.55 0 .15.05.5.05.3.05.45-.1.4-.25.6-.05.05-.55.45.35.45.6.6.05 0-.05.4l-.1.3q-.15.15-.15.25-.8-.35-1.2-.05-.25.2-.35.25-.3.1-.7 0-.95-.2-1.6-.8-.4-.5-.7-.8-.05 1.4 1.1 1.8.35.1 2 .7.25.25 1.05 1 .7.8 2.15.95.85.1 1.4.1.1 0 .15-.05.4-.05.75-.15.8-.3 1-.95.15-.65.3-.9l.05-.1q.35-.4 1.2-.25.35.1 1.3.7.1 0 .2.1.8.45.9.45-.15.75.8 1.55.45.45 1 .65.55.1 1.3-.25.25-.15.65-.35.15-.1.3-.15.05-.15-.05-.45-.1-.35-.05-.5l.5-.75q.5-.8.55-.9l.3.2q.35.1.6.15.85.1 1.2-.55.35.4.65.65.25.15.6.2.5.1 1-.45.15-.2.8-1.25.55-.85.95-1.1.6-.4 1.3 0-.35.5.05.8.2.1.6.25.14.094.3.15l-.35-.1q0 .55.65.75l.1.05h-.1q.25.8.5.95.3.25.95.3 0 .35.2.65l.1.1q.05 0 .05.1.3.25.45.25.8.15 1.85-.35 1.1-.5 1.2-.9 0-.1-.05-.5-.05-.35-.05-.5.05-.25.1-.3.1-.05.3-.05.4 0 .9-.6 1.8 1.15 3.05 1.65l-.2.85.7.15.85-4.3-29-5.6q-3.25 2.3-3.35 2.35-.05.05-.1.2z"/></g><path fill="url(#d)" d="M67.65 50.2q-1-.05-1.35 0-.25 0-.25.15-.05.1.2.25.2.2.6.25.35.05.65 0 .3-.05.35-.15 0-.15.4-.25.4-.2-.6-.25m4.05.7q0-.1-.1-.15 0-.15-.1-.15-.15 0-.25.05t-.1.15q-.05.1.05.2.05.1.2.1h.15q.1-.1.15-.2m2.8.9q.65-.15.65-.35.05-.25-.55-.8-.6-.55-.8-.25-.2.25-.6.35-.35.05-.4.25-.05.2-.15.5-.1.3.55.35.65.1 1.3-.05m-3.25-2.45q-.25-.1-.65-.15-.35-.1-.6-.05t-.3.1q0 .1-.05.15-.1.15-.15.25-.1.1.9 0 1.05 0 1.05-.1.05-.05-.2-.2z" id="h"/><path fill="url(#e)" d="M111.2 52.85q0-.1-.1-.15 0-.15-.1-.15-.15 0-.25.05t-.1.15q-.05.1.05.2.05.1.2.1h.15q.1-.1.15-.2m-3.45-.45q.4-.2-.6-.25-1-.05-1.35 0-.25 0-.25.15-.05.1.2.25.2.2.6.25.35.05.65 0 .3-.05.35-.15 0-.15.4-.25m2.15-.8q1.05 0 1.05-.1.05-.05-.2-.2-.25-.1-.65-.15-.35-.1-.6-.05t-.3.1q0 .1-.05.15-.1.15-.15.25-.1.1.9 0m4.1 2.15q.65-.15.65-.35.05-.25-.55-.8-.6-.55-.8-.25-.2.25-.6.35-.35.05-.4.25-.05.2-.15.5-.1.3.55.35.65.1 1.3-.05z" id="i"/><path fill="#FFF" d="M25.75 48.25q-2.55 0-8.5-5.3v7.5q7.55 3 9.95 3 3.35 0 10.2-6.35l-.7-4.4q-7.8 5.55-10.95 5.55z" id="j"/><path fill="#FFF" d="M56.85 13.55l.35 5.05 1.3-5.15-1.65.1z" id="l"/><path fill="#FFF" d="M54.35 19.95L52.4 15.5l-1.35 1.2 3.3 3.25z" id="m"/><path fill="#FFF" d="M52.15 24l-3.1-2.95-.9 1.8 4 1.15z" id="n"/><path fill="#FFF" d="M45.35 37.65q-.55-1.65-2.95-3.3-2.45-1.55-4.1-1.2-.85.15-1.15.7-.25.55-.15 1.05.05.6.7 1.45-.85 1.9-1.2 5.2l-.05.65-.7.65.9 5.65.25-.25q.35 1.05 1.2 1.25 2.4.6 2.95-6.8.25-1.65.1-3.55 3.25 1.55 4.15-.05.2-.55.15-1.05l-.1-.4z" id="o"/><path id="k" stroke="#999" stroke-linejoin="round" stroke-linecap="round" fill="none" d="M16.8 50.25q7.9 3.2 10.4 3.2 3.35 0 10.2-6.35l-.7-4.4q-7.8 5.55-10.95 5.55-2.65 0-8.95-5.7"/><path id="p" stroke="#999" stroke-linejoin="round" stroke-linecap="round" fill="none" d="M37.15 33.85q-.25.55-.15 1.05.05.6.7 1.45-.85 1.9-1.2 5.2l-.05.65-.7.65.9 5.65.25-.25q.35 1.05 1.2 1.25 2.4.6 2.95-6.8.25-1.65.1-3.55 3.25 1.55 4.15-.05.2-.55.15-1.05l-.1-.4q-.55-1.65-2.95-3.3-2.45-1.55-4.1-1.2-.85.15-1.15.7z"/></defs><use xlink:href="#f" transform="translate(-16.7 -13)"/><use xlink:href="#g" transform="translate(-16.7 -13)"/><use xlink:href="#h" transform="translate(-16.7 -13)"/><use xlink:href="#i" transform="translate(-16.7 -13)"/><use xlink:href="#j" transform="translate(-16.7 -13)"/><use xlink:href="#k" transform="translate(-16.7 -13)"/><use xlink:href="#l" transform="translate(-16.7 -13)"/><use xlink:href="#m" transform="translate(-16.7 -13)"/><use xlink:href="#n" transform="translate(-16.7 -13)"/><use xlink:href="#o" transform="translate(-16.7 -13)"/><use xlink:href="#p" transform="translate(-16.7 -13)"/></svg>