
<svg xmlns="http://www.w3.org/2000/svg" version="1.1" xmlns:xlink="http://www.w3.org/1999/xlink" preserveAspectRatio="none" x="0px" y="0px" width="192px" height="251px" viewBox="0 0 192 251">
<defs>
<g id="Layer0_0_FILL">
<path fill="#FFFFFF" stroke="none" d="
M 124.45 18.7
L 124.4 18.65 124.45 18.65
Q 124.5 17.3 124.4 16.3 123.6 9 116.65 4.75 109.8 0.45 100.85 1.7 94.95 2.5 90.2 5.6
L 90.15 5.65
Q 88 7.1 86.3 8.8 88 7.1 90.15 5.65
L 90.2 5.6 90.1 5.55
Q 87.5 2.5 83.2 1 78.95 -0.4 74.25 0.2 67.4 1.2 62.8 5.85 63.55 6.85 64.15 8.25 63.55 6.85 62.8 5.85 62.75 5.9 62.65 6
L 62.7 5.8 62.7 5.75
Q 60.6 3.1 57.05 1.8 53.55 0.6 49.5 1.2 42.65 2.15 38.95 7.2 40.6 8.45 41.65 10 40.6 8.45 38.95 7.2 33.85 3.4 26.55 4.4 20.95 5.2 16.95 8.75 12.95 12.3 12.45 16.95
L 12.5 16.95
Q 12.5 17 12.45 17 12.3 18.05 12.45 19.25 12.3 18.05 12.45 17 7.05 19.05 3.95 23.3 0.9 27.55 1.45 32.2 1.75 35.05 3.4 37.5 5.25 40.3 8.6 42.05 5.25 40.3 3.4 37.5
L 3.4 37.55
Q -0.6 42.9 0.1 48.9 0.85 55.6 6.6 59.8 12.45 64.1 20.6 63.85 20.3 61 21.15 58.3 20.3 61 20.6 63.85
L 20.6 63.9 20.65 63.9 20.6 63.95
Q 21.35 70.1 27.2 73.75 33.1 77.35 40.7 76.3 46.05 75.55 50.25 72.6
L 50.3 72.55
Q 49.5 70.95 49 68.95 49.5 70.95 50.3 72.55 50.9 73.65 51.6 74.7 54.3 78.45 59.05 80.55 61.1 81.4 63.25 81.9 67.55 82.9 72.3 82.2 83.9 80.6 89.45 71.8 90.6 70.05 91.25 68.1 90.6 70.05 89.45 71.8 94.45 73.5 99.95 73.2 100 73.2 100.05 73.2 100.1 73.15 100.1 73.2
L 100.2 73.05
Q 100.15 73.05 100.1 73.05 100.1 73 100.05 73 100 72.95 99.95 72.95 97.7 71.6 96.1 70.05 97.7 71.6 99.95 72.95 100 72.95 100.05 73 100.1 73 100.1 73.05 100.15 73.05 100.2 73.05 100.3 73.1 100.4 73.15 107.7 77.35 117.95 77.35 128.5 77.4 135.95 72.95 140.85 70 142.85 65.45 141.8 65.05 140.9 64.5 138.3 62.9 138.3 60.7 138.3 58.45 140.9 56.9 141.15 56.7 141.45 56.6 139.6 53.5 136.15 51.35 134.6 50.4 133.15 49.75 134.6 50.4 136.15 51.35 136.35 51.05 136.45 50.8 137.25 48.6 137 46.2
L 137 46.15
Q 136.5 41.75 132.4 39 132.35 39.1 132.3 39.1 129.15 41.15 125.5 41.65
L 124.4 41.75 125.5 41.65
Q 129.15 41.15 132.3 39.1
L 132.35 39 132.4 39
Q 138.8 34.8 138.1 28.25 137.6 23.9 133.65 21.15 129.75 18.4 124.45 18.65
L 124.45 18.7
Q 124.4 20.1 124.05 21.55 124.4 20.1 124.45 18.7
M 86.5 35.05
Q 85.8 36.75 84.7 37.85 83.45 39.1 82.4 39.75 81.2 40.5 79.4 41.4
L 76.55 43.1
Q 75.6 43.75 75.2 44.7 74.5 46.35 73.35 46.9 72.25 47.45 70.05 47.45 67.7 47.45 66.65 46.25 65.55 45.1 65.55 43 65.55 40.65 66.95 39.1 68.25 37.6 70.8 36.2 73.45 34.9 74.4 33.95 75.2 33 75.2 31.4 75.2 29.9 74.15 29.1 73.1 28.35 71.35 28.35 69.9 28.35 68.6 29 67.3 29.7 66.25 31.2 64.9 33.2 64.05 33.65 63.1 34.25 61.4 34.25 59.1 34.25 57.6 33.05 56.25 31.85 56.25 29.7 56.25 28.15 57.15 26.55 58.05 24.9 60 23.3 61.9 21.85 64.85 20.85 67.75 19.85 71.4 19.85 78.85 19.85 83.05 23.2 87.15 26.5 87.15 31.25 87.15 33.45 86.5 35.05
M 75.25 51
Q 77.1 52.85 77.1 55.45 77.1 58.05 75.25 59.9 73.4 61.8 70.8 61.8 68.25 61.8 66.35 59.9 64.5 58.05 64.5 55.45 64.5 52.85 66.35 51 68.25 49.1 70.8 49.1 73.4 49.1 75.25 51
M 151.1 230.6
Q 151.1 231.45 151.1 232.3 151.1 234.05 150.95 235.9 150.8 236.6 150.8 237.6
L 150.95 237.75
Q 152.65 239.15 155.1 242.75 156.1 243.95 157.1 245.55 159.5 245.4 161.95 245.25 174.75 243.95 183.7 240.3 183.85 238.75 183.85 237.05 183.7 232.45 181.55 226.9 172.3 230.45 151.1 230.6
M 124.35 229.75
Q 123.35 229.6 122.35 229.6 119.2 229.3 115.75 229.05 115.9 231.05 116.2 233.75 116.75 238.3 117.35 243.05 119.35 243.3 121.2 243.6 121.75 243.6 122.2 243.75
L 122.2 243.85
Q 124.9 245.1 128.55 245.85 135.15 246.95 145 246.4 145.15 245.95 145.3 245.7 146.35 242.9 147.65 239.75 147.95 239.15 148.1 238.6 140.15 237.9 134.7 236.3 126.35 233.9 124.35 229.75
M 149.1 217.95
Q 149.2 217.95 149.35 217.95 168.75 217.95 173.75 212.65 169.9 206.85 167.05 203.15 158.2 206 150.8 207.55 137.4 210.35 128.7 209.1 128.55 209.1 128.4 209.1 126.35 208.65 124.35 208.15 120.75 206.85 118.2 204.7 116.05 209.8 115.35 215.5 119.6 216.1 123.5 216.5 124.6 216.5 125.6 216.65 127.45 216.8 129.15 216.95 128.85 217.5 128.55 218.1 131.7 223.8 139.4 230.45 141.7 232.3 144.3 234.3 146.35 235.9 148.65 237.45 149.65 238.15 150.65 238.9 149.95 237.75 149.2 236.6 149.2 236.45 149.2 236.3 147.35 233.3 145.95 230.6 142 223.35 140.3 217.8 139.3 214.35 139 211.5 143.15 211.35 146.95 213.95 148.2 215.65 149.1 217.95
M 176.6 147.3
Q 176.6 146 175.45 146 174.45 146.15 174.45 147.3 174.45 147.6 174.75 148 175 148.45 175.45 148.45 176.15 148.45 176.45 147.9 176.6 147.6 176.6 147.3 Z"/>

<path fill="#C5D3DB" stroke="none" d="
M 77.1 55.45
Q 77.1 52.85 75.25 51 73.4 49.1 70.8 49.1 68.25 49.1 66.35 51 64.5 52.85 64.5 55.45 64.5 58.05 66.35 59.9 68.25 61.8 70.8 61.8 73.4 61.8 75.25 59.9 77.1 58.05 77.1 55.45
M 84.7 37.85
Q 85.8 36.75 86.5 35.05 87.15 33.45 87.15 31.25 87.15 26.5 83.05 23.2 78.85 19.85 71.4 19.85 67.75 19.85 64.85 20.85 61.9 21.85 60 23.3 58.05 24.9 57.15 26.55 56.25 28.15 56.25 29.7 56.25 31.85 57.6 33.05 59.1 34.25 61.4 34.25 63.1 34.25 64.05 33.65 64.9 33.2 66.25 31.2 67.3 29.7 68.6 29 69.9 28.35 71.35 28.35 73.1 28.35 74.15 29.1 75.2 29.9 75.2 31.4 75.2 33 74.4 33.95 73.45 34.9 70.8 36.2 68.25 37.6 66.95 39.1 65.55 40.65 65.55 43 65.55 45.1 66.65 46.25 67.7 47.45 70.05 47.45 72.25 47.45 73.35 46.9 74.5 46.35 75.2 44.7 75.6 43.75 76.55 43.1
L 79.4 41.4
Q 81.2 40.5 82.4 39.75 83.45 39.1 84.7 37.85 Z"/>

<path fill="#CC3300" stroke="none" d="
M 157.1 245.55
Q 157.5 245.95 157.8 246.55 159.35 248.85 160.65 250.7
L 179 250.7
Q 180.9 248.55 181.3 247.7 182.1 245.85 183.7 240.3 174.75 243.95 161.95 245.25 159.5 245.4 157.1 245.55
M 122.2 243.85
L 122.2 243.75
Q 121.75 243.6 121.2 243.6 119.35 243.3 117.35 243.05 117.75 246.85 118.5 250.7
L 121.5 250.7
Q 121.9 246.95 122.2 243.85
M 129.15 216.95
Q 127.45 216.8 125.6 216.65 124.6 216.5 123.5 216.5 119.6 216.1 115.35 215.5 115.05 218.5 115.05 221.5 115.05 222.5 115.75 229.05 119.2 229.3 122.35 229.6 123.35 229.6 124.35 229.75 125.9 222.8 128.55 218.1 128.85 217.5 129.15 216.95
M 149.35 217.95
Q 149.2 217.95 149.1 217.95 151.2 223.1 151.1 230.6 172.3 230.45 181.55 226.9 179.15 220.8 174.15 213.35 174 212.95 173.75 212.65 168.75 217.95 149.35 217.95 Z"/>

<path fill="#A00101" stroke="none" d="
M 149.8 245.95
Q 147.35 246.1 145 246.4 144.15 248.7 143.3 250.7
L 149.1 250.7
Q 149.5 248.1 149.8 245.95 Z"/>

<path fill="#981F01" stroke="none" d="
M 149.8 245.7
Q 149.8 245.85 149.8 245.95 149.5 248.1 149.1 250.7
L 160.65 250.7
Q 159.35 248.85 157.8 246.55 157.5 245.95 157.1 245.55 153.65 245.7 149.8 245.7 Z"/>

<path fill="#E6E6E6" stroke="none" d="
M 150.95 237.75
L 150.8 237.6
Q 150.65 238.15 150.65 238.9 150.2 241.75 149.8 245.7 153.65 245.7 157.1 245.55 156.1 243.95 155.1 242.75 152.65 239.15 150.95 237.75 Z"/>

<path fill="#E1E1E1" stroke="none" d="
M 150.65 238.9
Q 149.35 238.75 148.1 238.6 147.95 239.15 147.65 239.75 146.35 242.9 145.3 245.7 145.15 245.95 145 246.4 147.35 246.1 149.8 245.95 149.8 245.85 149.8 245.7 150.2 241.75 150.65 238.9 Z"/>

<path fill="#CC0000" stroke="none" d="
M 124.35 229.75
Q 126.35 233.9 134.7 236.3 140.15 237.9 148.1 238.6 149.35 238.75 150.65 238.9 149.65 238.15 148.65 237.45 146.35 235.9 144.3 234.3 141.7 232.3 139.4 230.45 131.7 223.8 128.55 218.1 125.9 222.8 124.35 229.75
M 128.55 245.85
Q 124.9 245.1 122.2 243.85 121.9 246.95 121.5 250.7
L 143.3 250.7
Q 144.15 248.7 145 246.4 135.15 246.95 128.55 245.85
M 149.1 217.95
Q 148.2 215.65 146.95 213.95 143.15 211.35 139 211.5 139.3 214.35 140.3 217.8 142 223.35 145.95 230.6 147.35 233.3 149.2 236.3 149.2 236.45 149.2 236.6 149.95 237.75 150.65 238.9 150.65 238.15 150.8 237.6 150.8 236.6 150.95 235.9 151.1 234.05 151.1 232.3 151.1 231.45 151.1 230.6 151.2 223.1 149.1 217.95 Z"/>

<path fill="#993300" stroke="none" d="
M 126.2 200
Q 125.9 199.85 125.6 199.55 124.5 198.7 123.6 197.7 120.2 201.15 118.2 204.7 120.75 206.85 124.35 208.15 126.35 208.65 128.4 209.1 128.55 209.1 128.7 209.1 137.4 210.35 150.8 207.55 158.2 206 167.05 203.15 164.45 199.7 162.65 197.85 156.65 199.85 151.35 201.15 136.7 204.4 128.85 201.4 127.75 201 126.75 200.45 126.45 200.15 126.2 200 Z"/>

<path fill="#CC9900" stroke="none" d="
M 124.35 197
Q 124.05 197.3 123.6 197.7 124.5 198.7 125.6 199.55 125.9 199.85 126.2 200 126.45 200.15 126.75 200.45 127.75 201 128.85 201.4 136.7 204.4 151.35 201.15 156.65 199.85 162.65 197.85 161.8 196.85 161.1 196.3 159.65 195.3 158.65 194.55
L 158.65 188.9
Q 156.8 188.2 154.1 186.6 150.8 184.6 148.95 183.5 148.1 182.9 147.65 182.6 147.65 183.5 147.95 184.5 148.1 185.6 147.95 186.05 147.5 187.5 143 188.2 142.15 188.2 140 188.9 137.7 189.6 137.3 190.05 135.3 191.15 135.3 192.55 135.15 193 135.4 193.45 135.7 194.55 135.7 195 135.7 195.55 135.3 196.3 135.3 196.15 135.15 196.15
L 135.15 196.45
Q 135 196.7 134.7 197 134.3 197.45 134.15 197.85 134 198.3 133.7 198.3 133.3 198.55 127.75 198.55 125.35 198.55 124.35 197
M 181.7 127.5
Q 178.3 126.95 175.45 127.8 174.6 127.95 171.45 129.5 169.6 130.2 167.9 131.1 163.75 133.35 160.5 136.5 157.65 139.45 154.5 144.75
L 154.2 144.75
Q 153.65 143.6 153.1 142.45 150.95 139 147.95 139
L 147.8 139
Q 147.65 139 147.5 139.15
L 147.35 139.15
Q 144.85 139.45 143 142.45 142.3 143.75 141.7 145.15 140.85 147.75 141.55 151.45 142.3 154.9 144.15 158.4
L 144.15 158.55
Q 144.3 158.55 144.3 158.7 146.1 162.25 147.65 162.55 149.2 162.8 150.2 162.1 150.95 161.8 152.5 159.55 152.35 163.1 150.95 164.4 149.35 165.95 147.35 165.7 147.35 166.25 147.5 167.55 147.65 168.7 147.65 169.1 147.65 169.95 147.5 170.25 147.35 170.55 146.5 171.25 150.1 175.75 153.35 178.35 153.8 178.65 154.35 178.9 156.5 180.5 158.65 181.6 160.8 182.75 162.95 183.5 164.6 184.05 166.6 184.6
L 166.75 184.35 166.75 184.6
Q 169.45 185.35 172.3 185.6 175.15 186.05 176.3 184.9 176.75 184.5 177.15 183.5 177.75 182.5 178 181.6 178.15 180.9 178.75 180.35 179.3 179.75 180.45 179.2
L 180.45 179.05
Q 178.15 178.2 176.75 175.9 175.9 174.65 174.6 171.4 175 171.7 175.3 171.95 176.3 171.95 178.45 171.4 180.6 170.7 181.4 170.7 182.1 170.7 182.95 171.25 184.25 171.8 184.7 171.95 184.7 171.55 184.55 171.4 184.25 170.8 184.1 170.4 183.95 170.1 183.95 169.95 183.85 169.7 183.85 169.25 183.85 168.8 183.85 168.55 183.4 168.8 181.85 167.7 180.3 166.55 180 164.95
L 180 163.1
Q 181.85 164.7 184.4 164.7 187.25 164.7 190.95 163.95
L 189.85 165.25 189.95 165.25
Q 190.25 164.95 190.55 164.7 191.8 163.4 191.7 162.4 191.55 161.4 190.55 160.4 189.55 159.4 187.95 156.55 186.55 153.6 186.4 151 186.4 148.3 186.7 147.3 187.1 146.15 186.95 145.3
L 187.25 145
Q 187.25 145.3 187.1 146.3
L 187.55 143.9
Q 188.25 139.15 188.1 137.05 188.1 134.8 188.1 133.35 187.95 131.95 186.95 128.65 186.95 128.5 186.95 128.35 185.85 127.65 182.55 127.65 182.1 127.5 181.7 127.5
M 171 140.6
Q 166.3 140 162.65 140.15 169.9 138 184.1 141.45
L 183.95 143
Q 183.1 142.9 182.25 142.6 183.25 143.6 182.95 145 182.7 147.75 183.25 150 183.7 151.6 184.55 154.6 184.95 155.85 185.4 157.1 180.3 151.45 178 150.3 177.75 150.15 177.3 150 177.3 150.15 177.3 150.3 177 150.75 176.75 151.15 175.75 152.15 174.6 152.15 173.45 152.15 172.6 151.45 172.45 151.3 172.45 151.15 171.6 150.3 171.45 149.3 167.3 149.45 165.45 149.6 163.5 149.6 159.8 153.3
L 158.5 153.3
Q 157.2 151.3 157.95 149.15 158.1 148.9 158.1 148.6
L 158.1 148.3
Q 157.8 147 158.2 147.3 158.65 147.45 158.65 147 158.8 146.75 159.35 145 159.8 143.45 162.65 142 165.45 140.6 170.45 140.6 170.75 140.6 171 140.6
M 146.1 146.9
Q 146.65 147 145.85 147.6 145 147.9 144.55 147.9
L 144.55 147.75
Q 144.4 147.6 144.3 147.6 144.3 146.75 145 145.6
L 144.85 145.6 144.85 145.45
Q 145.4 144.75 145.85 144.45 145.95 144.45 146.95 144.45 148.95 144.45 149.8 146.3 150.2 147.3 150.8 149.15
L 150.8 151.75
Q 150.1 151.3 149.95 151.3 149.5 151 148.95 151 148.1 151 147.1 153.15 147.1 154.75 148.2 155.25 148.8 155.55 149.5 155.85 149.2 156.55 148.95 156.7 148.8 156.7 148.1 156.7 147.2 156.7 146.1 155.1 145.15 153.75 145.15 152.9 145.15 151.9 146.35 150.75 148.1 149.3 148.35 148.9
L 148.35 146.9 146.1 146.9
M 145.7 160.1
Q 145.7 159.4 145.95 158.95 146.35 158.25 147.5 158.25 149.5 158.25 149.5 159.95
L 149.5 160.1 149.35 160.95
Q 148.95 162.1 147.65 162.1 146.5 162.1 146.1 161.25 145.7 160.7 145.7 160.1 Z"/>

<path fill="#A07001" stroke="none" d="
M 144.15 158.55
Q 143.85 159.25 143.4 160.1 143 160.7 143 160.95 143 161.8 143.85 162.95 144.85 164.4 144.85 165.1 144.85 165.8 143.9 166.9 144.05 166.7 144.3 166.1 144 166.55 143.7 166.95 143.15 167.7 142.85 167.95 140.7 169.55 140.7 170.7
L 142.85 172.75
Q 144.85 174.5 145.95 176.5 146.35 176.9 146.5 177.2 147.35 178.9 147.5 179.75 147.65 180.05 147.65 181.2 147.65 181.75 147.65 182.5
L 147.65 182.6
Q 148.1 182.9 148.95 183.5 150.8 184.6 154.1 186.6 156.8 188.2 158.65 188.9
L 158.65 181.6
Q 156.5 180.5 154.35 178.9 153.8 178.65 153.35 178.35 150.1 175.75 146.5 171.25 147.35 170.55 147.5 170.25 147.65 169.95 147.65 169.1 147.65 168.7 147.5 167.55 147.35 166.25 147.35 165.7 149.35 165.95 150.95 164.4 152.35 163.1 152.5 159.55 150.95 161.8 150.2 162.1 149.2 162.8 147.65 162.55 146.1 162.25 144.3 158.7 144.3 158.55 144.15 158.55
M 189.85 165.25
L 190.95 163.95
Q 187.25 164.7 184.4 164.7 181.85 164.7 180 163.1
L 180 164.95
Q 180.3 166.55 181.85 167.7 183.4 168.8 183.85 168.55 183.95 167.4 184.95 166.8 185.55 166.4 187.4 166.25 188.85 165.95 189.85 165.25
M 145.85 147.6
Q 146.65 147 146.1 146.9
L 148.35 146.9 148.35 148.9
Q 148.1 149.3 146.35 150.75 145.15 151.9 145.15 152.9 145.15 153.75 146.1 155.1 147.2 156.7 148.1 156.7 148.8 156.7 148.95 156.7 149.2 156.55 149.5 155.85 148.8 155.55 148.2 155.25 147.1 154.75 147.1 153.15 148.1 151 148.95 151 149.5 151 149.95 151.3 150.1 151.3 150.8 151.75
L 150.8 149.15
Q 150.2 147.3 149.8 146.3 148.95 144.45 146.95 144.45 145.95 144.45 145.85 144.45 145.4 144.75 144.85 145.45
L 145 145.6
Q 144.3 146.75 144.3 147.6 144.4 147.6 144.55 147.75
L 144.55 147.9
Q 145 147.9 145.85 147.6
M 170.45 140.6
Q 165.45 140.6 162.65 142 159.8 143.45 159.35 145 158.8 146.75 158.65 147 158.65 147.45 158.2 147.3 157.8 147 158.1 148.3
L 158.1 148.6
Q 158.1 148.9 157.95 149.15 157.2 151.3 158.5 153.3
L 159.8 153.3
Q 163.5 149.6 165.45 149.6 167.3 149.45 171.45 149.3 171.45 149 171.45 148.75 171.45 147.15 172.45 146.15 173.3 145.15 174.6 145.15 175.75 145.15 176.75 146.15 177.6 147.15 177.6 148.75 177.6 149.45 177.3 150 177.75 150.15 178 150.3 180.3 151.45 185.4 157.1 184.95 155.85 184.55 154.6 183.7 151.6 183.25 150 182.7 147.75 182.95 145 183.25 143.6 182.25 142.6 176.15 141.15 171 140.6 170.75 140.6 170.45 140.6 Z"/>

<path fill="#CC99FF" stroke="none" d="
M 159.2 119.95
Q 161.2 116.4 161.2 115.7 155.35 119 152.65 124.65 147.65 134.8 146.95 139
L 147.35 139 147.5 139 147.5 139.15
Q 147.65 139 147.8 139
L 147.95 139
Q 150.95 139 153.1 142.45 153.65 143.6 154.2 144.75
L 154.5 144.75
Q 157.65 139.45 160.5 136.5 163.75 133.35 167.9 131.1 164.6 130.5 160.95 127.1 157.2 123.65 159.2 119.95 Z"/>

<path fill="#FF6666" stroke="none" d="
M 175.3 171.95
Q 175 171.7 174.6 171.4 175.9 174.65 176.75 175.9 178.15 178.2 180.45 179.05
L 180.6 179.05
Q 180.75 179.05 181.15 178.75 181.55 178.5 181.85 177.5 182.1 176.65 182.1 175.9 182.25 175.2 182.25 174.65 182.25 174.5 182.4 174.35 178.3 174.35 175.3 171.95 Z"/>

<path fill="#CC3333" stroke="none" d="
M 184.7 171.95
Q 184.25 171.8 182.95 171.25 182.1 170.7 181.4 170.7 180.6 170.7 178.45 171.4 176.3 171.95 175.3 171.95 178.3 174.35 182.4 174.35 182.55 173.9 183.4 173.2 184.25 172.7 184.4 172.25
L 184.7 171.95 Z"/>

<path fill="#FFFF00" stroke="none" d="
M 145.95 158.95
Q 145.95 159.7 146.5 160.25 147.2 160.8 148.2 160.55 149.2 160.1 149.5 159.95 149.5 158.25 147.5 158.25 146.35 158.25 145.95 158.95 Z"/>

<path fill="#FFCC00" stroke="none" d="
M 146.5 160.25
Q 145.95 159.7 145.95 158.95 145.7 159.4 145.7 160.1 145.7 160.7 146.1 161.25 146.5 162.1 147.65 162.1 148.95 162.1 149.35 160.95
L 149.5 160.1 149.5 159.95
Q 149.2 160.1 148.2 160.55 147.2 160.8 146.5 160.25 Z"/>

<path fill="#CAC902" stroke="none" d="
M 176.6 149.45
Q 175.9 148.9 174.75 148.9 174.15 148.9 173.45 149.3 173.3 149.45 173.15 149.6 172.6 150.3 172.6 151.3
L 172.6 151.45
Q 173.45 152.15 174.6 152.15 175.75 152.15 176.75 151.15 177 150.75 177.3 150.3 177.15 150 177 149.9 176.9 149.6 176.6 149.45 Z"/>

<path fill="#999900" stroke="none" d="
M 174.6 145.15
Q 173.3 145.15 172.45 146.15 171.45 147.15 171.45 148.75 171.45 149 171.45 149.3 171.6 150.3 172.45 151.15 172.45 151.3 172.6 151.45
L 172.6 151.3
Q 172.6 150.3 173.15 149.6 173.3 149.45 173.45 149.3 174.15 148.9 174.75 148.9 175.9 148.9 176.6 149.45 176.9 149.6 177 149.9 177.15 150 177.3 150.3 177.3 150.15 177.3 150 177.6 149.45 177.6 148.75 177.6 147.15 176.75 146.15 175.75 145.15 174.6 145.15
M 175.45 146
Q 176.6 146 176.6 147.3 176.6 147.6 176.45 147.9 176.15 148.45 175.45 148.45 175 148.45 174.75 148 174.45 147.6 174.45 147.3 174.45 146.15 175.45 146 Z"/>

<path fill="#000000" stroke="none" d="
M 162.65 140.15
Q 166.3 140 171 140.6 176.15 141.15 182.25 142.6 183.1 142.9 183.95 143
L 184.1 141.45
Q 169.9 138 162.65 140.15
M 166.6 93.35
Q 164.9 90.5 164.3 89.9 162.95 88.35 161.35 88.35 159.65 88.35 157.1 88.9 154.5 89.6 154.2 89.6 153.35 89.6 152.1 88.9 150.8 88.35 150.65 88.35 148.2 88.35 147.2 89.6 147.1 89.6 145.95 92.35 145.15 94.2 143.3 95.05 140.85 96.2 135.85 96.2 130.85 96.2 128.55 95.45 127.2 94.9 126.05 93.75 125.05 92.5 123.9 92.05 122.05 91.2 117.75 91.2 115.05 91.2 112.2 93.45 109.1 95.9 109.1 99.05 109.1 102.3 111.5 108.55 114.05 115.15 114.05 117.85 114.05 120.1 111.75 121.65 110.25 122.8 106.8 123.95 102.55 125.35 101.8 125.65 99.7 126.65 99.7 127.95 99.7 134.65 101.7 137.45 103.25 139.3 106.4 139.45 109.65 139.15 111.05 139.3 113.2 139.45 113.2 142 113.2 143 111.75 143.9 110.35 144.9 110.35 145.9 110.35 147.45 111.75 149 113.2 150.45 113.2 153 113.2 155.4 112.35 156.1 111.6 156.85 108.55 157.8
L 108.4 157.8
Q 106.95 158.25 105.55 158.95 101.1 161.25 101.1 165.25 101.1 166.25 101.4 167.25 102.1 168.7 103.55 168.7 103.95 168.7 105.25 168.25 106.55 167.8 106.8 167.8 108.25 169.4 104.8 173.05 103.95 174.2 102.4 175.75 101.1 177.2 101.1 177.65 101.1 180.6 103.95 184.2 107.55 188.75 112.6 188.75 113.05 188.75 116.2 188.35 119.05 188.2 119.5 188.2 122.05 188.2 122.9 189.6 123.5 190.7 123.6 193.3 123.75 195.85 124.35 196.85
L 124.35 197
Q 125.35 198.55 127.75 198.55 133.3 198.55 133.7 198.3 134 198.3 134.15 197.85 134.3 197.45 134.7 197 135 196.7 135.15 196.45
L 135.15 196.15
Q 135.3 196.15 135.3 196.3 135.7 195.55 135.7 195 135.7 194.55 135.4 193.45 135.15 193 135.3 192.55 135.3 191.15 137.3 190.05 137.7 189.6 140 188.9 142.15 188.2 143 188.2 147.5 187.5 147.95 186.05 148.1 185.6 147.95 184.5 147.65 183.5 147.65 182.6
L 147.65 182.5
Q 147.65 181.75 147.65 181.2 147.65 180.05 147.5 179.75 147.35 178.9 146.5 177.2 146.35 176.9 145.95 176.5 144.85 174.5 142.85 172.75
L 140.7 170.7
Q 140.7 169.55 142.85 167.95 143.15 167.7 143.7 166.95 144 166.55 144.3 166.1 144.05 166.7 143.9 166.9 144.85 165.8 144.85 165.1 144.85 164.4 143.85 162.95 143 161.8 143 160.95 143 160.7 143.4 160.1 143.85 159.25 144.15 158.55
L 144.15 158.4
Q 142.3 154.9 141.55 151.45 140.85 147.75 141.7 145.15 142.3 143.75 143 142.45 144.85 139.45 147.35 139.15
L 147.35 139 146.95 139
Q 147.65 134.8 152.65 124.65 155.35 119 161.2 115.7 165.75 113 172.3 112 178.3 114.3 181 117.15 183.95 114.85 184.95 113.7 186.4 111.85 186.4 108.85 186.4 97.75 178 97.75 177.6 97.75 176 98.2 174.3 98.45 174 98.45 171.3 98.45 169.3 96.9 168.05 95.75 166.6 93.35 Z"/>

<path fill="#E6CCFF" stroke="none" d="
M 185.25 123.65
Q 185.1 123.35 184.55 122.1 183.85 120.65 181.3 117.55 181.15 117.4 181 117.15 178.3 114.3 172.3 112 165.75 113 161.2 115.7 161.2 116.4 159.2 119.95 157.2 123.65 160.95 127.1 164.6 130.5 167.9 131.1 169.6 130.2 171.45 129.5 174.6 127.95 175.45 127.8 178.3 126.95 181.7 127.5 182.1 127.5 182.55 127.65 185.85 127.65 186.95 128.35 186.4 125.95 185.25 123.65 Z"/>
</g>

<path id="Layer0_0_1_STROKES" stroke="#CCCCCC" stroke-width="1.45" stroke-linejoin="round" stroke-linecap="round" fill="none" d="
M 162.1 79.25
Q 163.2 78.65 163.2 77.8 163.2 76.95 162.1 76.3 161.1 75.7 159.65 75.7 158.2 75.7 157.15 76.3 156.1 76.95 156.1 77.8 156.1 78.65 157.15 79.25 158.2 79.95 159.65 79.95 161.1 79.95 162.1 79.25 Z
M 124.45 18.7
L 124.45 18.65 124.4 18.65 124.45 18.7
Q 124.4 20.1 124.05 21.55
M 100.1 73.2
Q 100.1 73.15 100.05 73.2 100 73.2 99.95 73.2 94.45 73.5 89.45 71.8 83.9 80.6 72.3 82.2 67.55 82.9 63.25 81.9 61.1 81.4 59.05 80.55 54.3 78.45 51.6 74.7 50.9 73.65 50.3 72.55
L 50.25 72.6
Q 46.05 75.55 40.7 76.3 33.1 77.35 27.2 73.75 21.35 70.1 20.6 63.95
L 20.65 63.9 20.6 63.9 20.6 63.85
Q 12.45 64.1 6.6 59.8 0.85 55.6 0.1 48.9 -0.6 42.9 3.4 37.55
L 3.4 37.5
Q 1.75 35.05 1.45 32.2 0.9 27.55 3.95 23.3 7.05 19.05 12.45 17 12.5 17 12.5 16.95
L 12.45 16.95
Q 12.95 12.3 16.95 8.75 20.95 5.2 26.55 4.4 33.85 3.4 38.95 7.2 42.65 2.15 49.5 1.2 53.55 0.6 57.05 1.8 60.6 3.1 62.7 5.75
L 62.7 5.8 62.65 6
Q 62.75 5.9 62.8 5.85 67.4 1.2 74.25 0.2 78.95 -0.4 83.2 1 87.5 2.5 90.1 5.55
L 90.2 5.6
Q 94.95 2.5 100.85 1.7 109.8 0.45 116.65 4.75 123.6 9 124.4 16.3 124.5 17.3 124.45 18.65 129.75 18.4 133.65 21.15 137.6 23.9 138.1 28.25 138.8 34.8 132.4 39 136.5 41.75 137 46.15
L 137 46.2
Q 137.25 48.6 136.45 50.8 136.35 51.05 136.15 51.35 139.6 53.5 141.45 56.6 143.9 55.35 147.15 55.35 150.9 55.35 153.45 56.9 156.1 58.5 156.1 60.7 156.1 62.9 153.45 64.5 150.9 66.1 147.15 66.05 144.8 66.1 142.85 65.45 140.85 70 135.95 72.95 128.5 77.4 117.95 77.35 107.7 77.35 100.4 73.15 100.25 73.15 100.1 73.2 Z
M 100.2 73.05
Q 100.15 73.05 100.1 73.05 100.1 73 100.05 73 100 72.95 99.95 72.95 97.7 71.6 96.1 70.05
M 132.4 39
L 132.35 39 132.3 39.1
Q 132.35 39.1 132.4 39 Z
M 132.3 39.1
Q 129.15 41.15 125.5 41.65
L 124.4 41.75
M 90.2 5.6
L 90.15 5.65
Q 88 7.1 86.3 8.8
M 100.4 73.15
Q 100.3 73.1 100.2 73.05
M 89.45 71.8
Q 90.6 70.05 91.25 68.1
M 151.65 67.5
Q 150.35 68.3 150.35 69.4 150.35 70.5 151.65 71.3 153 72.1 154.8 72.1 156.7 72.1 158 71.3 159.35 70.5 159.3 69.4 159.35 68.3 158 67.5 156.7 66.7 154.8 66.7 153 66.7 151.65 67.5 Z
M 141.45 56.6
Q 141.15 56.7 140.9 56.9 138.3 58.45 138.3 60.7 138.3 62.9 140.9 64.5 141.8 65.05 142.85 65.45
M 133.15 49.75
Q 134.6 50.4 136.15 51.35
M 62.8 5.85
Q 63.55 6.85 64.15 8.25
M 12.45 17
Q 12.3 18.05 12.45 19.25
M 3.4 37.5
Q 5.25 40.3 8.6 42.05
M 20.6 63.85
Q 20.3 61 21.15 58.3
M 50.3 72.55
Q 49.5 70.95 49 68.95
M 38.95 7.2
Q 40.6 8.45 41.65 10"/>

<path id="Layer0_0_2_STROKES" stroke="#990000" stroke-width="1" stroke-linejoin="round" stroke-linecap="round" fill="none" d="
M 182.4 174.35
Q 178.3 174.35 175.3 171.95 175 171.7 174.6 171.4"/>

<path id="Layer0_0_3_STROKES" stroke="#999999" stroke-width="1" stroke-linejoin="round" stroke-linecap="round" fill="none" d="
M 147.95 139
L 147.8 139"/>

<path id="Layer0_0_4_STROKES" stroke="#CCCCCC" stroke-width="1" stroke-linejoin="round" stroke-linecap="round" fill="none" d="
M 135.15 196.15
L 135.15 196.45"/>
</defs>

<g transform="matrix( 1, 0, 0, 1, 0,0) ">
<use xlink:href="#Layer0_0_FILL"/>

<use xlink:href="#Layer0_0_1_STROKES"/>

<use xlink:href="#Layer0_0_2_STROKES"/>

<use xlink:href="#Layer0_0_3_STROKES"/>

<use xlink:href="#Layer0_0_4_STROKES"/>
</g>
</svg>
