<svg xmlns="http://www.w3.org/2000/svg" xmlns:xlink="http://www.w3.org/1999/xlink" preserveAspectRatio="none" width="192" height="251" viewBox="0 0 192 251"><defs><g id="a"><path fill="#FFF" d="M124.45 18.7l-.05-.05h.05q.05-1.35-.05-2.35-.8-7.3-7.75-11.55-6.85-4.3-15.8-3.05-5.9.8-10.65 3.9l-.05.05Q88 7.1 86.3 8.8q1.7-1.7 3.85-3.15l.05-.05-.1-.05Q87.5 2.5 83.2 1 78.95-.4 74.25.2q-6.85 1-11.45 5.65.75 1 1.35 2.4-.6-1.4-1.35-2.4l-.15.15.05-.2v-.05Q60.6 3.1 57.05 1.8q-3.5-1.2-7.55-.6-6.85.95-10.55 6 1.65 1.25 2.7 2.8-1.05-1.55-2.7-2.8-5.1-3.8-12.4-2.8-5.6.8-9.6 4.35t-4.5 8.2h.05q0 .05-.05.05-.15 1.05 0 2.25-.15-1.2 0-2.25-5.4 2.05-8.5 6.3-3.05 4.25-2.5 8.9.3 2.85 1.95 5.3 1.85 2.8 5.2 4.55-3.35-1.75-5.2-4.55v.05Q-.6 42.9.1 48.9q.75 6.7 6.5 10.9 5.85 4.3 14 4.05-.3-2.85.55-5.55-.85 2.7-.55 5.55v.05h.05l-.05.05q.75 6.15 6.6 9.8 5.9 3.6 13.5 2.55 5.35-.75 9.55-3.7l.05-.05q-.8-1.6-1.3-3.6.5 2 1.3 3.6.6 1.1 1.3 2.15 2.7 3.75 7.45 5.85 2.05.85 4.2 1.35 4.3 1 9.05.3 11.6-1.6 17.15-10.4 1.15-1.75 1.8-3.7-.65 1.95-1.8 3.7 5 1.7 10.5 1.4h.1q.05-.05.05 0l.1-.15h-.1q0-.05-.05-.05-.05-.05-.1-.05-2.25-1.35-3.85-2.9 1.6 1.55 3.85 2.9.05 0 .1.05.05 0 .05.05h.1l.2.1q7.3 4.2 17.55 4.2 10.55.05 18-4.4 4.9-2.95 6.9-7.5-1.05-.4-1.95-.95-2.6-1.6-2.6-3.8 0-2.25 2.6-3.8.25-.2.55-.3-1.85-3.1-5.3-5.25-1.55-.95-3-1.6 1.45.65 3 1.6.2-.3.3-.55.8-2.2.55-4.6v-.05q-.5-4.4-4.6-7.15-.05.1-.1.1-3.15 2.05-6.8 2.55l-1.1.1 1.1-.1q3.65-.5 6.8-2.55l.05-.1h.05q6.4-4.2 5.7-10.75-.5-4.35-4.45-7.1-3.9-2.75-9.2-2.5v.05q-.05 1.4-.4 2.85.35-1.45.4-2.85M86.5 35.05q-.7 1.7-1.8 2.8-1.25 1.25-2.3 1.9-1.2.75-3 1.65l-2.85 1.7q-.95.65-1.35 1.6-.7 1.65-1.85 2.2-1.1.55-3.3.55-2.35 0-3.4-1.2-1.1-1.15-1.1-3.25 0-2.35 1.4-3.9 1.3-1.5 3.85-2.9 2.65-1.3 3.6-2.25.8-.95.8-2.55 0-1.5-1.05-2.3-1.05-.75-2.8-.75-1.45 0-2.75.65-1.3.7-2.35 2.2-1.35 2-2.2 2.45-.95.6-2.65.6-2.3 0-3.8-1.2-1.35-1.2-1.35-3.35 0-1.55.9-3.15.9-1.65 2.85-3.25 1.9-1.45 4.85-2.45 2.9-1 6.55-1 7.45 0 11.65 3.35 4.1 3.3 4.1 8.05 0 2.2-.65 3.8M75.25 51q1.85 1.85 1.85 4.45t-1.85 4.45q-1.85 1.9-4.45 1.9-2.55 0-4.45-1.9-1.85-1.85-1.85-4.45T66.35 51q1.9-1.9 4.45-1.9 2.6 0 4.45 1.9m75.85 179.6v1.7q0 1.75-.15 3.6-.15.7-.15 1.7l.15.15q1.7 1.4 4.15 5 1 1.2 2 2.8 2.4-.15 4.85-.3 12.8-1.3 21.75-4.95.15-1.55.15-3.25-.15-4.6-2.3-10.15-9.25 3.55-30.45 3.7m-26.75-.85q-1-.15-2-.15-3.15-.3-6.6-.55.15 2 .45 4.7.55 4.55 1.15 9.3 2 .25 3.85.55.55 0 1 .15v.1q2.7 1.25 6.35 2 6.6 1.1 16.45.55.15-.45.3-.7 1.05-2.8 2.35-5.95.3-.6.45-1.15-7.95-.7-13.4-2.3-8.35-2.4-10.35-6.55m24.75-11.8h.25q19.4 0 24.4-5.3-3.85-5.8-6.7-9.5-8.85 2.85-16.25 4.4-13.4 2.8-22.1 1.55h-.3q-2.05-.45-4.05-.95-3.6-1.3-6.15-3.45-2.15 5.1-2.85 10.8 4.25.6 8.15 1 1.1 0 2.1.15 1.85.15 3.55.3-.3.55-.6 1.15 3.15 5.7 10.85 12.35 2.3 1.85 4.9 3.85 2.05 1.6 4.35 3.15 1 .7 2 1.45-.7-1.15-1.45-2.3v-.3q-1.85-3-3.25-5.7-3.95-7.25-5.65-12.8-1-3.45-1.3-6.3 4.15-.15 7.95 2.45 1.25 1.7 2.15 4m27.5-70.65q0-1.3-1.15-1.3-1 .15-1 1.3 0 .3.3.7.25.45.7.45.7 0 1-.55.15-.3.15-.6z"/><path fill="#C5D3DB" d="M77.1 55.45q0-2.6-1.85-4.45-1.85-1.9-4.45-1.9-2.55 0-4.45 1.9-1.85 1.85-1.85 4.45t1.85 4.45q1.9 1.9 4.45 1.9 2.6 0 4.45-1.9 1.85-1.85 1.85-4.45m7.6-17.6q1.1-1.1 1.8-2.8.65-1.6.65-3.8 0-4.75-4.1-8.05-4.2-3.35-11.65-3.35-3.65 0-6.55 1-2.95 1-4.85 2.45-1.95 1.6-2.85 3.25-.9 1.6-.9 3.15 0 2.15 1.35 3.35 1.5 1.2 3.8 1.2 1.7 0 2.65-.6.85-.45 2.2-2.45 1.05-1.5 2.35-2.2 1.3-.65 2.75-.65 1.75 0 2.8.75 1.05.8 1.05 2.3 0 1.6-.8 2.55-.95.95-3.6 2.25-2.55 1.4-3.85 2.9-1.4 1.55-1.4 3.9 0 2.1 1.1 3.25 1.05 1.2 3.4 1.2 2.2 0 3.3-.55 1.15-.55 1.85-2.2.4-.95 1.35-1.6l2.85-1.7q1.8-.9 3-1.65 1.05-.65 2.3-1.9z"/><path fill="#C30" d="M157.1 245.55q.4.4.7 1 1.55 2.3 2.85 4.15H179q1.9-2.15 2.3-3 .8-1.85 2.4-7.4-8.95 3.65-21.75 4.95-2.45.15-4.85.3m-34.9-1.7v-.1q-.45-.15-1-.15-1.85-.3-3.85-.55.4 3.8 1.15 7.65h3q.4-3.75.7-6.85m6.95-26.9q-1.7-.15-3.55-.3-1-.15-2.1-.15-3.9-.4-8.15-1-.3 3-.3 6 0 1 .7 7.55 3.45.25 6.6.55 1 0 2 .15 1.55-6.95 4.2-11.65.3-.6.6-1.15m20.2 1h-.25q2.1 5.15 2 12.65 21.2-.15 30.45-3.7-2.4-6.1-7.4-13.55-.15-.4-.4-.7-5 5.3-24.4 5.3z"/><path fill="#A00101" d="M149.8 245.95q-2.45.15-4.8.45-.85 2.3-1.7 4.3h5.8q.4-2.6.7-4.75z"/><path fill="#981F01" d="M149.8 245.7v.25q-.3 2.15-.7 4.75h11.55q-1.3-1.85-2.85-4.15-.3-.6-.7-1-3.45.15-7.3.15z"/><path fill="#E6E6E6" d="M150.95 237.75l-.15-.15q-.15.55-.15 1.3-.45 2.85-.85 6.8 3.85 0 7.3-.15-1-1.6-2-2.8-2.45-3.6-4.15-5z"/><path fill="#E1E1E1" d="M150.65 238.9q-1.3-.15-2.55-.3-.15.55-.45 1.15-1.3 3.15-2.35 5.95-.15.25-.3.7 2.35-.3 4.8-.45v-.25q.4-3.95.85-6.8z"/><path fill="#C00" d="M124.35 229.75q2 4.15 10.35 6.55 5.45 1.6 13.4 2.3 1.25.15 2.55.3-1-.75-2-1.45-2.3-1.55-4.35-3.15-2.6-2-4.9-3.85-7.7-6.65-10.85-12.35-2.65 4.7-4.2 11.65m4.2 16.1q-3.65-.75-6.35-2-.3 3.1-.7 6.85h21.8q.85-2 1.7-4.3-9.85.55-16.45-.55m20.55-27.9q-.9-2.3-2.15-4-3.8-2.6-7.95-2.45.3 2.85 1.3 6.3 1.7 5.55 5.65 12.8 1.4 2.7 3.25 5.7v.3q.75 1.15 1.45 2.3 0-.75.15-1.3 0-1 .15-1.7.15-1.85.15-3.6v-1.7q.1-7.5-2-12.65z"/><path fill="#930" d="M126.2 200q-.3-.15-.6-.45-1.1-.85-2-1.85-3.4 3.45-5.4 7 2.55 2.15 6.15 3.45 2 .5 4.05.95h.3q8.7 1.25 22.1-1.55 7.4-1.55 16.25-4.4-2.6-3.45-4.4-5.3-6 2-11.3 3.3-14.65 3.25-22.5.25-1.1-.4-2.1-.95-.3-.3-.55-.45z"/><path fill="#C90" d="M124.35 197q-.3.3-.75.7.9 1 2 1.85.3.3.6.45.25.15.55.45 1 .55 2.1.95 7.85 3 22.5-.25 5.3-1.3 11.3-3.3-.85-1-1.55-1.55-1.45-1-2.45-1.75v-5.65q-1.85-.7-4.55-2.3-3.3-2-5.15-3.1-.85-.6-1.3-.9 0 .9.3 1.9.15 1.1 0 1.55-.45 1.45-4.95 2.15-.85 0-3 .7-2.3.7-2.7 1.15-2 1.1-2 2.5-.15.45.1.9.3 1.1.3 1.55 0 .55-.4 1.3 0-.15-.15-.15v.3q-.15.25-.45.55-.4.45-.55.85-.15.45-.45.45-.4.25-5.95.25-2.4 0-3.4-1.55m57.35-69.5q-3.4-.55-6.25.3-.85.15-4 1.7-1.85.7-3.55 1.6-4.15 2.25-7.4 5.4-2.85 2.95-6 8.25h-.3l-1.1-2.3q-2.15-3.45-5.15-3.45h-.15q-.15 0-.3.15h-.15q-2.5.3-4.35 3.3-.7 1.3-1.3 2.7-.85 2.6-.15 6.3.75 3.45 2.6 6.95v.15q.15 0 .15.15 1.8 3.55 3.35 3.85 1.55.25 2.55-.45.75-.3 2.3-2.55-.15 3.55-1.55 4.85-1.6 1.55-3.6 1.3 0 .55.15 1.85.15 1.15.15 1.55 0 .85-.15 1.15-.15.3-1 1 3.6 4.5 6.85 7.1.45.3 1 .55 2.15 1.6 4.3 2.7 2.15 1.15 4.3 1.9 1.65.55 3.65 1.1l.15-.25v.25q2.7.75 5.55 1 2.85.45 4-.7.45-.4.85-1.4.6-1 .85-1.9.15-.7.75-1.25.55-.6 1.7-1.15v-.15q-2.3-.85-3.7-3.15-.85-1.25-2.15-4.5.4.3.7.55 1 0 3.15-.55 2.15-.7 2.95-.7.7 0 1.55.55 1.3.55 1.75.7 0-.4-.15-.55-.3-.6-.45-1-.15-.3-.15-.45-.1-.25-.1-.7v-.7q-.45.25-2-.85-1.55-1.15-1.85-2.75v-1.85q1.85 1.6 4.4 1.6 2.85 0 6.55-.75l-1.1 1.3h.1q.3-.3.6-.55 1.25-1.3 1.15-2.3-.15-1-1.15-2-1-1-2.6-3.85-1.4-2.95-1.55-5.55 0-2.7.3-3.7.4-1.15.25-2l.3-.3q0 .3-.15 1.3l.45-2.4q.7-4.75.55-6.85v-3.7q-.15-1.4-1.15-4.7v-.3q-1.1-.7-4.4-.7-.45-.15-.85-.15M171 140.6q-4.7-.6-8.35-.45 7.25-2.15 21.45 1.3l-.15 1.55q-.85-.1-1.7-.4 1 1 .7 2.4-.25 2.75.3 5 .45 1.6 1.3 4.6.4 1.25.85 2.5-5.1-5.65-7.4-6.8-.25-.15-.7-.3v.3q-.3.45-.55.85-1 1-2.15 1t-2-.7q-.15-.15-.15-.3-.85-.85-1-1.85-4.15.15-6 .3-1.95 0-5.65 3.7h-1.3q-1.3-2-.55-4.15.15-.25.15-.55v-.3q-.3-1.3.1-1 .45.15.45-.3.15-.25.7-2 .45-1.55 3.3-3 2.8-1.4 7.8-1.4h.55m-24.9 6.3q.55.1-.25.7-.85.3-1.3.3v-.15q-.15-.15-.25-.15 0-.85.7-2h-.15v-.15q.55-.7 1-1h1.1q2 0 2.85 1.85.4 1 1 2.85v2.6q-.7-.45-.85-.45-.45-.3-1-.3-.85 0-1.85 2.15 0 1.6 1.1 2.1.6.3 1.3.6-.3.7-.55.85h-.85q-.9 0-2-1.6-.95-1.35-.95-2.2 0-1 1.2-2.15 1.75-1.45 2-1.85v-2h-2.25m-.4 13.2q0-.7.25-1.15.4-.7 1.55-.7 2 0 2 1.7v.15l-.15.85q-.4 1.15-1.7 1.15-1.15 0-1.55-.85-.4-.55-.4-1.15z"/><path fill="#A07001" d="M144.15 158.55q-.3.7-.75 1.55-.4.6-.4.85 0 .85.85 2 1 1.45 1 2.15t-.95 1.8q.15-.2.4-.8-.3.45-.6.85-.55.75-.85 1-2.15 1.6-2.15 2.75l2.15 2.05q2 1.75 3.1 3.75.4.4.55.7.85 1.7 1 2.55.15.3.15 1.45V182.6q.45.3 1.3.9 1.85 1.1 5.15 3.1 2.7 1.6 4.55 2.3v-7.3q-2.15-1.1-4.3-2.7-.55-.25-1-.55-3.25-2.6-6.85-7.1.85-.7 1-1 .15-.3.15-1.15 0-.4-.15-1.55-.15-1.3-.15-1.85 2 .25 3.6-1.3 1.4-1.3 1.55-4.85-1.55 2.25-2.3 2.55-1 .7-2.55.45-1.55-.3-3.35-3.85 0-.15-.15-.15m45.7 6.7l1.1-1.3q-3.7.75-6.55.75-2.55 0-4.4-1.6v1.85q.3 1.6 1.85 2.75 1.55 1.1 2 .85.1-1.15 1.1-1.75.6-.4 2.45-.55 1.45-.3 2.45-1m-44-17.65q.8-.6.25-.7h2.25v2q-.25.4-2 1.85-1.2 1.15-1.2 2.15 0 .85.95 2.2 1.1 1.6 2 1.6h.85q.25-.15.55-.85-.7-.3-1.3-.6-1.1-.5-1.1-2.1 1-2.15 1.85-2.15.55 0 1 .3.15 0 .85.45v-2.6q-.6-1.85-1-2.85-.85-1.85-2.85-1.85h-1.1q-.45.3-1 1l.15.15q-.7 1.15-.7 2 .1 0 .25.15v.15q.45 0 1.3-.3m24.6-7q-5 0-7.8 1.4-2.85 1.45-3.3 3-.55 1.75-.7 2 0 .45-.45.3-.4-.3-.1 1v.3q0 .3-.15.55-.75 2.15.55 4.15h1.3q3.7-3.7 5.65-3.7 1.85-.15 6-.3v-.55q0-1.6 1-2.6.85-1 2.15-1 1.15 0 2.15 1 .85 1 .85 2.6 0 .7-.3 1.25.45.15.7.3 2.3 1.15 7.4 6.8-.45-1.25-.85-2.5-.85-3-1.3-4.6-.55-2.25-.3-5 .3-1.4-.7-2.4-6.1-1.45-11.25-2h-.55z"/><path fill="#C9F" d="M159.2 119.95q2-3.55 2-4.25-5.85 3.3-8.55 8.95-5 10.15-5.7 14.35h.55v.15q.15-.15.3-.15h.15q3 0 5.15 3.45l1.1 2.3h.3q3.15-5.3 6-8.25 3.25-3.15 7.4-5.4-3.3-.6-6.95-4-3.75-3.45-1.75-7.15z"/><path fill="#F66" d="M175.3 171.95q-.3-.25-.7-.55 1.3 3.25 2.15 4.5 1.4 2.3 3.7 3.15h.15q.15 0 .55-.3.4-.25.7-1.25.25-.85.25-1.6.15-.7.15-1.25 0-.15.15-.3-4.1 0-7.1-2.4z"/><path fill="#C33" d="M184.7 171.95q-.45-.15-1.75-.7-.85-.55-1.55-.55-.8 0-2.95.7-2.15.55-3.15.55 3 2.4 7.1 2.4.15-.45 1-1.15.85-.5 1-.95l.3-.3z"/><path fill="#FF0" d="M145.95 158.95q0 .75.55 1.3.7.55 1.7.3 1-.45 1.3-.6 0-1.7-2-1.7-1.15 0-1.55.7z"/><path fill="#FC0" d="M146.5 160.25q-.55-.55-.55-1.3-.25.45-.25 1.15 0 .6.4 1.15.4.85 1.55.85 1.3 0 1.7-1.15l.15-.85v-.15q-.3.15-1.3.6-1 .25-1.7-.3z"/><path fill="#CAC902" d="M176.6 149.45q-.7-.55-1.85-.55-.6 0-1.3.4l-.3.3q-.55.7-.55 1.7v.15q.85.7 2 .7t2.15-1q.25-.4.55-.85-.15-.3-.3-.4-.1-.3-.4-.45z"/><path fill="#990" d="M174.6 145.15q-1.3 0-2.15 1-1 1-1 2.6v.55q.15 1 1 1.85 0 .15.15.3v-.15q0-1 .55-1.7l.3-.3q.7-.4 1.3-.4 1.15 0 1.85.55.3.15.4.45.15.1.3.4v-.3q.3-.55.3-1.25 0-1.6-.85-2.6-1-1-2.15-1m.85.85q1.15 0 1.15 1.3 0 .3-.15.6-.3.55-1 .55-.45 0-.7-.45-.3-.4-.3-.7 0-1.15 1-1.3z"/><path d="M162.65 140.15q3.65-.15 8.35.45 5.15.55 11.25 2 .85.3 1.7.4l.15-1.55q-14.2-3.45-21.45-1.3m3.95-46.8q-1.7-2.85-2.3-3.45-1.35-1.55-2.95-1.55-1.7 0-4.25.55-2.6.7-2.9.7-.85 0-2.1-.7-1.3-.55-1.45-.55-2.45 0-3.45 1.25-.1 0-1.25 2.75-.8 1.85-2.65 2.7-2.45 1.15-7.45 1.15t-7.3-.75q-1.35-.55-2.5-1.7-1-1.25-2.15-1.7-1.85-.85-6.15-.85-2.7 0-5.55 2.25-3.1 2.45-3.1 5.6 0 3.25 2.4 9.5 2.55 6.6 2.55 9.3 0 2.25-2.3 3.8-1.5 1.15-4.95 2.3-4.25 1.4-5 1.7-2.1 1-2.1 2.3 0 6.7 2 9.5 1.55 1.85 4.7 2 3.25-.3 4.65-.15 2.15.15 2.15 2.7 0 1-1.45 1.9-1.4 1-1.4 2 0 1.55 1.4 3.1 1.45 1.45 1.45 4 0 2.4-.85 3.1-.75.75-3.8 1.7h-.15q-1.45.45-2.85 1.15-4.45 2.3-4.45 6.3 0 1 .3 2 .7 1.45 2.15 1.45.4 0 1.7-.45 1.3-.45 1.55-.45 1.45 1.6-2 5.25-.85 1.15-2.4 2.7-1.3 1.45-1.3 1.9 0 2.95 2.85 6.55 3.6 4.55 8.65 4.55.45 0 3.6-.4 2.85-.15 3.3-.15 2.55 0 3.4 1.4.6 1.1.7 3.7.15 2.55.75 3.55v.15q1 1.55 3.4 1.55 5.55 0 5.95-.25.3 0 .45-.45.15-.4.55-.85.3-.3.45-.55v-.3q.15 0 .15.15.4-.75.4-1.3 0-.45-.3-1.55-.25-.45-.1-.9 0-1.4 2-2.5.4-.45 2.7-1.15 2.15-.7 3-.7 4.5-.7 4.95-2.15.15-.45 0-1.55-.3-1-.3-1.9v-.1-1.3q0-1.15-.15-1.45-.15-.85-1-2.55-.15-.3-.55-.7-1.1-2-3.1-3.75l-2.15-2.05q0-1.15 2.15-2.75.3-.25.85-1 .3-.4.6-.85-.25.6-.4.8.95-1.1.95-1.8t-1-2.15q-.85-1.15-.85-2 0-.25.4-.85.45-.85.75-1.55v-.15q-1.85-3.5-2.6-6.95-.7-3.7.15-6.3.6-1.4 1.3-2.7 1.85-3 4.35-3.3V139h-.4q.7-4.2 5.7-14.35 2.7-5.65 8.55-8.95 4.55-2.7 11.1-3.7 6 2.3 8.7 5.15 2.95-2.3 3.95-3.45 1.45-1.85 1.45-4.85 0-11.1-8.4-11.1-.4 0-2 .45-1.7.25-2 .25-2.7 0-4.7-1.55-1.25-1.15-2.7-3.55z"/><path fill="#E6CCFF" d="M185.25 123.65q-.15-.3-.7-1.55-.7-1.45-3.25-4.55-.15-.15-.3-.4-2.7-2.85-8.7-5.15-6.55 1-11.1 3.7 0 .7-2 4.25-2 3.7 1.75 7.15 3.65 3.4 6.95 4 1.7-.9 3.55-1.6 3.15-1.55 4-1.7 2.85-.85 6.25-.3.4 0 .85.15 3.3 0 4.4.7-.55-2.4-1.7-4.7z"/></g><path id="b" stroke="#CCC" stroke-width="1.45" stroke-linejoin="round" stroke-linecap="round" fill="none" d="M162.1 79.25q1.1-.6 1.1-1.45t-1.1-1.5q-1-.6-2.45-.6-1.45 0-2.5.6-1.05.65-1.05 1.5t1.05 1.45q1.05.7 2.5.7t2.45-.7zM124.45 18.7v-.05h-.05l.05.05q-.05 1.4-.4 2.85M100.1 73.2q0-.05-.05 0h-.1q-5.5.3-10.5-1.4-5.55 8.8-17.15 10.4-4.75.7-9.05-.3-2.15-.5-4.2-1.35-4.75-2.1-7.45-5.85-.7-1.05-1.3-2.15l-.05.05q-4.2 2.95-9.55 3.7-7.6 1.05-13.5-2.55-5.85-3.65-6.6-9.8l.05-.05h-.05v-.05q-8.15.25-14-4.05Q.85 55.6.1 48.9q-.7-6 3.3-11.35v-.05q-1.65-2.45-1.95-5.3-.55-4.65 2.5-8.9 3.1-4.25 8.5-6.3.05 0 .05-.05h-.05q.5-4.65 4.5-8.2 4-3.55 9.6-4.35 7.3-1 12.4 2.8 3.7-5.05 10.55-6 4.05-.6 7.55.6 3.55 1.3 5.65 3.95v.05l-.05.2.15-.15Q67.4 1.2 74.25.2q4.7-.6 8.95.8 4.3 1.5 6.9 4.55l.1.05q4.75-3.1 10.65-3.9 8.95-1.25 15.8 3.05Q123.6 9 124.4 16.3q.1 1 .05 2.35 5.3-.25 9.2 2.5 3.95 2.75 4.45 7.1.7 6.55-5.7 10.75 4.1 2.75 4.6 7.15v.05q.25 2.4-.55 4.6-.1.25-.3.55 3.45 2.15 5.3 5.25 2.45-1.25 5.7-1.25 3.75 0 6.3 1.55 2.65 1.6 2.65 3.8 0 2.2-2.65 3.8-2.55 1.6-6.3 1.55-2.35.05-4.3-.6-2 4.55-6.9 7.5-7.45 4.45-18 4.4-10.25 0-17.55-4.2-.15 0-.3.05zm.1-.15h-.1q0-.05-.05-.05-.05-.05-.1-.05-2.25-1.35-3.85-2.9M132.4 39h-.05l-.05.1q.05 0 .1-.1zm-.1.1q-3.15 2.05-6.8 2.55l-1.1.1M90.2 5.6l-.05.05Q88 7.1 86.3 8.8m14.1 64.35l-.2-.1M89.45 71.8q1.15-1.75 1.8-3.7m60.4-.6q-1.3.8-1.3 1.9 0 1.1 1.3 1.9 1.35.8 3.15.8 1.9 0 3.2-.8 1.35-.8 1.3-1.9.05-1.1-1.3-1.9-1.3-.8-3.2-.8-1.8 0-3.15.8zm-10.2-10.9q-.3.1-.55.3-2.6 1.55-2.6 3.8 0 2.2 2.6 3.8.9.55 1.95.95m-9.7-15.7q1.45.65 3 1.6M62.8 5.85q.75 1 1.35 2.4M12.45 17q-.15 1.05 0 2.25M3.4 37.5q1.85 2.8 5.2 4.55m12 21.8q-.3-2.85.55-5.55M50.3 72.55q-.8-1.6-1.3-3.6M38.95 7.2q1.65 1.25 2.7 2.8"/><path id="c" stroke="#900" stroke-linejoin="round" stroke-linecap="round" fill="none" d="M182.4 174.35q-4.1 0-7.1-2.4-.3-.25-.7-.55"/><path id="d" stroke="#999" stroke-linejoin="round" stroke-linecap="round" fill="none" d="M147.95 139h-.15"/><path id="e" stroke="#CCC" stroke-linejoin="round" stroke-linecap="round" fill="none" d="M135.15 196.15v.3"/></defs><g><use xlink:href="#a"/><use xlink:href="#b"/><use xlink:href="#c"/><use xlink:href="#d"/><use xlink:href="#e"/></g></svg>