
<svg xmlns="http://www.w3.org/2000/svg" version="1.1" xmlns:xlink="http://www.w3.org/1999/xlink" preserveAspectRatio="none" x="0px" y="0px" width="41px" height="53px" viewBox="0 0 41 53">
<defs>
<g id="gr_nota02_0_Layer0_0_FILL">
<path fill="#000000" stroke="none" d="
M 16.2 43.1
Q 19.4 40.9 19.4 39.55
L 19.4 13.7 36.05 19.8 36.9 39
Q 32.9 36.7 29.9 36.7 27 36.7 24.7 38.5 21.8 40.85 21.9 45.1 22 49.2 25.6 51.1 28.1 52.4 30.6 52.25 32.95 52.15 36.5 50.5 40.9 48.4 40.85 45.9 40.8 42.1 39.5 9.15
L 15.7 0 15.15 32.4
Q 12.2 30.45 8.9 30.45 5.85 30.45 3.2 32.3 0 34.45 0 38 0 45.6 8.8 45.6 12.55 45.6 16.2 43.1
M 35.9 12.2
L 35.9 15.4 19.2 9.4 19.3 6.3 35.9 12.2 Z"/>
</g>
</defs>

<g transform="matrix( 1, 0, 0, 1, 0,0) ">
<g transform="matrix( 1, 0, 0, 1, 0,0) ">
<use xlink:href="#gr_nota02_0_Layer0_0_FILL"/>
</g>
</g>
</svg>
