<svg xmlns="http://www.w3.org/2000/svg" xmlns:xlink="http://www.w3.org/1999/xlink" preserveAspectRatio="none" width="39" height="56" viewBox="0 0 39 56"><defs><path d="M22.05 2.3L20.8 0l-4.05.3 1.2 39.4q-4.35-2.4-8.1-2.4-3.15 0-6.35 2.6Q0 42.8 0 46.55 0 56 10.3 56q4.6 0 8.85-4.1l3.3-4.15-1.2-33.65q-.15-.35-.05-.55.2-.4 1.4.55 8.4 6.25 9.55 9.85 1.15 3.6 1.15 8.2 0 5.15-1.75 6.8.6 1.8 2.25-.15 2.3-2.7 3.85-6.7 2.25-5.9.2-9.95-1.95-3.85-6.35-8.65-4.65-4.8-6.05-6.45-1.8-2.05-3.4-4.75z" id="a"/></defs><use xlink:href="#a"/></svg>