<svg xmlns="http://www.w3.org/2000/svg" xmlns:xlink="http://www.w3.org/1999/xlink" preserveAspectRatio="none" width="41" height="53" viewBox="0 0 41 53"><defs><path d="M16.2 43.1q3.2-2.2 3.2-3.55V13.7l16.65 6.1.85 19.2q-4-2.3-7-2.3-2.9 0-5.2 1.8-2.9 2.35-2.8 6.6.1 4.1 3.7 6 2.5 1.3 5 1.15 2.35-.1 5.9-1.75 4.4-2.1 4.35-4.6-.05-3.8-1.35-36.75L15.7 0l-.55 32.4q-2.95-1.95-6.25-1.95-3.05 0-5.7 1.85Q0 34.45 0 38q0 7.6 8.8 7.6 3.75 0 7.4-2.5m19.7-30.9v3.2l-16.7-6 .1-3.1 16.6 5.9z" id="a"/></defs><use xlink:href="#a"/></svg>