
<svg xmlns="http://www.w3.org/2000/svg" version="1.1" xmlns:xlink="http://www.w3.org/1999/xlink" preserveAspectRatio="none" x="0px" y="0px" width="39px" height="56px" viewBox="0 0 39 56">
<defs>
<g id="gr_nota01_0_Layer0_0_FILL">
<path fill="#000000" stroke="none" d="
M 22.05 2.3
L 20.8 0 16.75 0.3 17.95 39.7
Q 13.6 37.3 9.85 37.3 6.7 37.3 3.5 39.9 0 42.8 0 46.55 0 56 10.3 56 14.9 56 19.15 51.9
L 22.45 47.75 21.25 14.1
Q 21.1 13.75 21.2 13.55 21.4 13.15 22.6 14.1 31 20.35 32.15 23.95 33.3 27.55 33.3 32.15 33.3 37.3 31.55 38.95 32.15 40.75 33.8 38.8 36.1 36.1 37.65 32.1 39.9 26.2 37.85 22.15 35.9 18.3 31.5 13.5 26.85 8.7 25.45 7.05 23.65 5 22.05 2.3 Z"/>
</g>
</defs>

<g transform="matrix( 1, 0, 0, 1, 0,0) ">
<g transform="matrix( 1, 0, 0, 1, 0,0) ">
<use xlink:href="#gr_nota01_0_Layer0_0_FILL"/>
</g>
</g>
</svg>
