<svg xmlns="http://www.w3.org/2000/svg" xmlns:xlink="http://www.w3.org/1999/xlink" preserveAspectRatio="none" width="77" height="75" viewBox="0 0 77 75"><defs><linearGradient id="a" gradientUnits="userSpaceOnUse" x1="26.25" y1="-8.425" x2="65.65" y2="80.125"><stop offset="0%" stop-color="#E8C747"/><stop offset="63.529%" stop-color="#FCF38E"/><stop offset="100%" stop-color="#FCF38E"/></linearGradient><linearGradient id="b" gradientUnits="userSpaceOnUse" x1="20.837" y1="-4.213" x2="83.162" y2="86.213"><stop offset="0%" stop-color="#FFF" stop-opacity=".4"/><stop offset="76.078%" stop-color="#FFF" stop-opacity="0"/></linearGradient><path fill="#FBFFBA" d="M89.65 65.45q1.7 1 1.25-.9L77.35 7.9Q76.9 6 74.9 6h-2.05q-2 0-2.35-2l-.3-2.05Q69.85 0 67.85 0H43.4q-2.7 0-2.85 2.45l.75 3.85H3.65Q1.7 6.3.55 8.15L.1 9.6q-.6 1 2.7 2.9l86.85 52.95z" id="c"/><path fill="#FFF" d="M69.75 2.7Q69.45.3 68.3.8l-4.65.05q1.3.65 6.1 1.85z" id="d"/><path fill="#FFF" d="M75.8 7l-.5-.1-1.45.65q1.95-.35 2.9 1.25-.4-1.4-.95-1.8z" id="e"/><path fill="url(#a)" d="M89.35 68.5q2.05 0 1.5-1.95L76.4 9.9Q75.95 8 73.9 8h-2.05q-2 0-2.35-2l-.3-2.05Q68.85 2 66.85 2H42.4Q40.45 2 41 3.9l.7 2.15Q42.35 8 40.3 8H1.65Q-.2 8 .15 9.9L14.6 66.55q.55 1.95 2.5 1.95h72.25z" id="f"/><path fill="url(#b)" d="M82.35 43.65q1.15-.85.85-2l-7.6-29.7q-.6-1.9-6.3-1.9-.55 0-1.1-3.05-.5-3.05-2.45-3.05H45.2Q42.9 4 44 7.05q1.1 3.05-.55 3H5.6q-1.25 0-1.9.85-.7.85-.4 2.05l4.8 17.7q.7 2.9 3.45 1.6 4.15-1.9 9.9-2.9 11.55-2 19.8 2.7 12.15 6.9 26.65 10.3 7.25 1.7 12.05 2 1.35.1 2.4-.7z" id="g"/></defs><use xlink:href="#c" transform="matrix(1 0 -.24246 1.0927 2.35 .15)"/><use xlink:href="#d" transform="matrix(1 0 -.24246 1.0927 2.35 .15)"/><use xlink:href="#e" transform="matrix(1 0 -.24246 1.0927 2.35 .15)"/><use xlink:href="#f" transform="matrix(1 0 -.24246 1.0927 2.35 .15)"/><use xlink:href="#g" transform="matrix(1 0 -.24246 1.0927 2.35 .15)"/></svg>