<svg xmlns="http://www.w3.org/2000/svg" xmlns:xlink="http://www.w3.org/1999/xlink" preserveAspectRatio="none" width="564" height="81" viewBox="0 0 564 81"><defs><path fill="#FFF" d="M584.3 262v-.8l-.5-39h-482v39q-.15 16.55-11.75 28.3-11.5 11.35-27.4 11.8H544.2q16.5 0 28.3-11.8 11.45-11.45 11.8-27.5z" id="a"/><g id="b"><path fill="#FFF" d="M101.8 261.2v-40.05H62.2q7.95.15 13.75 5.65 5.65 5.95 5.85 14.4-.2 8.25-5.85 14.2-5.8 5.5-13.75 5.8h39.6z"/><path fill="#C4D3D4" d="M90.05 289.5q11.6-11.75 11.75-28.3H62.2q7.95-.3 13.75-5.8 5.65-5.95 5.85-14.2-.2-8.45-5.85-14.4-5.8-5.5-13.75-5.65h-.6Q45.05 221 33 232.75q-11.8 11.8-11.8 28.45 0 16.55 11.8 28.3 12.05 11.8 28.6 11.8h1.05q15.9-.45 27.4-11.8z"/></g><path id="c" stroke="#000" stroke-linejoin="round" stroke-linecap="round" fill="none" d="M584.3 261.2q0 16.55-11.8 28.3-11.8 11.8-28.3 11.8H61.6q-16.55 0-28.6-11.8-11.8-11.75-11.8-28.3 0-16.65 11.8-28.45 12.05-11.75 28.6-11.6h40.2m0 40.05q-.15 16.55-11.75 28.3-11.5 11.35-27.4 11.8m-.45-80.15q7.95.15 13.75 5.65 5.65 5.95 5.85 14.4-.2 8.25-5.85 14.2-5.8 5.5-13.75 5.8h39.6"/></defs><use xlink:href="#a" transform="translate(-20.3 -220.3)"/><g transform="translate(-20.3 -220.3)"><use xlink:href="#b"/><use xlink:href="#c"/></g></svg>