<svg xmlns="http://www.w3.org/2000/svg" xmlns:xlink="http://www.w3.org/1999/xlink" preserveAspectRatio="none" width="566" height="83" viewBox="0 0 566 83"><defs><g id="a"><path fill="#FFF" d="M152.3 94.95q-2.557.375-5.25.45H628.4q12.1 0 21.5-6-9.246 5.55-20.95 5.55H152.3m26.55-16.35q-.843 1.21-1.8 2.35 3.186-3.6 5.3-7.65-1.505 2.75-3.5 5.3m7.5-23.85h.45q-.053-16.602-11.8-28.15-8.79-8.714-20.05-11-.987-.2-2-.35h-5.9q15.9.3 27.5 11.8 11.587 11.39 11.8 27.7M649.9 89.4q3.105-1.888 5.9-4.4.707-.66 1.4-1.35 11.6-11.8 11.75-28.3-.15-16.7-11.75-28.3-12.1-11.8-28.8-11.8H152.95q1.013.15 2 .35 11.26 2.286 20.05 11 11.747 11.548 11.8 28.15v.15q-.017 10.078-4.45 18.4-2.114 4.05-5.3 7.65-.97 1.155-2.05 2.25l-.45.45q-2.1 2.07-4.4 3.75-7.864 6.087-17.85 7.55h476.65q11.704 0 20.95-5.55z"/><path fill="#C4D3D4" d="M182.35 73.3q4.433-8.322 4.45-18.4h-40.4q-5.77 0-10.45 3-1.89 1.24-3.6 2.95-4.495 4.458-5.65 10.15-.11.68-.2 1.35-.144 1.19-.15 2.4v.2q.018 4.09 1.5 7.65 1.536 3.537 4.5 6.55Q138 94.8 146.4 94.8h1.1q16.2-.45 27.5-11.75 2.13-2.13 3.85-4.45 1.995-2.55 3.5-5.3m4.45-18.55H146.4q-8.1 0-14.05 5.95-5.102 5.06-5.85 11.65.09-.67.2-1.35 1.155-5.692 5.65-10.15 1.71-1.71 3.6-2.95 4.68-3 10.45-3h40.4v-.15z"/></g><path id="b" stroke="#000" stroke-linejoin="round" stroke-linecap="round" fill="none" d="M649.925 89.4q3.08-1.888 5.875-4.4M152.95 15.25q1.013.15 2 .35 11.26 2.286 20.05 11 11.747 11.548 11.8 28.15v.15q-.017 10.078-4.45 18.4-2.114 4.05-5.3 7.675-.97 1.13-2.05 2.225l-.45.45q-2.1 2.07-4.375 3.775M152.3 94.95h476.65q11.704 0 20.975-5.55M152.3 94.95h-5.9q-8.4 0-14.05-5.65-3.022-3.072-4.5-6.7-1.482-3.56-1.5-7.65v-.2q.006-1.21.15-2.375m26.45-57.125q-2.656-.397-5.45-.45h-1.1q-16.65 0-28.3 11.8-1.19 1.174-2.25 2.4-4.532 5.192-6.9 11.325-2.6 6.72-2.6 14.575M655.8 85q.964-.868 1.9-1.8 11.6-11.8 11.75-28.3-.15-16.7-11.75-28.3-12.1-11.8-28.75-11.8H147.5m-21 57.575q.09-.695.225-1.375 1.13-5.692 5.625-10.15 1.71-1.71 3.6-2.925 4.68-3.025 10.45-3.025h40.4m-16.625 32.525q-6.866 5.005-15.225 6.7-3.585.718-7.45.825"/></defs><g transform="translate(-105.35 -13.8)"><use xlink:href="#a"/><use xlink:href="#b"/></g></svg>