
<svg xmlns="http://www.w3.org/2000/svg" version="1.1" xmlns:xlink="http://www.w3.org/1999/xlink" preserveAspectRatio="none" x="0px" y="0px" width="564px" height="81px" viewBox="0 0 564 81">
<defs>
<g id="Layer0_0_MEMBER_0_FILL">
<path fill="#FFFFFF" stroke="none" d="
M 584.3 262
Q 584.3 261.55 584.3 261.2
L 583.8 222.2 101.8 222.2 101.8 261.2
Q 101.65 277.75 90.05 289.5 78.55 300.85 62.65 301.3
L 544.2 301.3
Q 560.7 301.3 572.5 289.5 583.95 278.05 584.3 262 Z"/>
</g>

<g id="Layer0_0_MEMBER_1_FILL">
<path fill="#FFFFFF" stroke="none" d="
M 101.8 261.2
L 101.8 221.15 62.2 221.15
Q 70.15 221.3 75.95 226.8 81.6 232.75 81.8 241.2 81.6 249.45 75.95 255.4 70.15 260.9 62.2 261.2
L 101.8 261.2 Z"/>

<path fill="#C4D3D4" stroke="none" d="
M 90.05 289.5
Q 101.65 277.75 101.8 261.2
L 62.2 261.2
Q 70.15 260.9 75.95 255.4 81.6 249.45 81.8 241.2 81.6 232.75 75.95 226.8 70.15 221.3 62.2 221.15 61.9 221.15 61.6 221.15 45.05 221 33 232.75 21.2 244.55 21.2 261.2 21.2 277.75 33 289.5 45.05 301.3 61.6 301.3 62.2 301.3 62.65 301.3 78.55 300.85 90.05 289.5 Z"/>
</g>

<path id="Layer0_0_MEMBER_1_1_STROKES" stroke="#000000" stroke-width="1" stroke-linejoin="round" stroke-linecap="round" fill="none" d="
M 584.3 261.2
Q 584.3 277.75 572.5 289.5 560.7 301.3 544.2 301.3
L 62.65 301.3
Q 62.2 301.3 61.6 301.3 45.05 301.3 33 289.5 21.2 277.75 21.2 261.2 21.2 244.55 33 232.75 45.05 221 61.6 221.15 61.9 221.15 62.2 221.15
L 101.8 221.15
M 101.8 261.2
Q 101.65 277.75 90.05 289.5 78.55 300.85 62.65 301.3
M 62.2 221.15
Q 70.15 221.3 75.95 226.8 81.6 232.75 81.8 241.2 81.6 249.45 75.95 255.4 70.15 260.9 62.2 261.2
L 101.8 261.2"/>
</defs>

<g transform="matrix( 1, 0, 0, 1, -20.3,-220.3) ">
<use xlink:href="#Layer0_0_MEMBER_0_FILL"/>
</g>

<g transform="matrix( 1, 0, 0, 1, -20.3,-220.3) ">
<use xlink:href="#Layer0_0_MEMBER_1_FILL"/>

<use xlink:href="#Layer0_0_MEMBER_1_1_STROKES"/>
</g>
</svg>
