
<svg xmlns="http://www.w3.org/2000/svg" version="1.1" xmlns:xlink="http://www.w3.org/1999/xlink" preserveAspectRatio="none" x="0px" y="0px" width="98px" height="123px" viewBox="0 0 98 123">
<defs>
<g id="Layer0_0_FILL">
<path fill="#A07001" stroke="none" d="
M 305.6 225.85
Q 305.75 227.2 306.2 228.2 306.65 229.25 306.75 231.15
L 306.75 231.25
Q 306.85 231.4 306.95 231.65
L 307 231.7 306.75 231.85
Q 306.75 234.75 306.5 235.3 305.95 236.55 303.05 237.95 303.55 238.75 304.3 239.1 305.15 239.3 305.5 239.45 306.75 239.85 306.75 242.55
L 306.75 242.6
Q 306.75 246.45 301.85 247.8 300.55 248.15 298.85 248.3 297.65 248.4 296.3 248.4 295.65 248.4 295.15 248.35
L 295.15 255.15
Q 296.65 256.35 297.65 256.35 299.85 256.35 304.3 253.3 309.55 249.65 309.55 245.95 309.55 244.8 309.55 235.9 309.95 236.15 310.45 236.15 311.6 236.15 313.25 235.45 313 233.35 312.6 230.6 312.4 230.6 312.05 230.6 308.65 230.6 305.6 225.85
M 332.35 266.95
L 332.35 261.7 338.2 260.15
Q 332.5 258.6 326.5 256.4 323.9 255.75 317.05 252.05 315.4 247.65 314.25 241.7 314.15 242.1 314.05 242.8 313.85 244.05 313.85 244.7 313.85 251.9 318.15 259.1 323.1 267.4 329.9 267.4 330.5 267.4 331.15 267.2 331.55 267.1 332.35 266.95
M 353.95 249
L 353.95 248.8
Q 351.4 249 347.8 249 347.85 250.1 349.1 250.85 350.15 251.45 351.15 251.45 351.55 251.45 353.45 250.5 353.6 249.45 353.95 249
M 364.7 229.9
L 364.6 229.8
Q 362.25 231.1 359.85 232 356.95 233.05 354.7 233.05 354.3 233.05 352.95 232.75 351.55 232.45 351.15 232.45 350.65 232.45 350.25 233.05 349.95 233.55 349.95 233.85 349.95 235.35 353.55 235.9 355.1 236.1 357.3 236.15 357.35 236.05 357.4 235.95 357.55 235.75 357.7 235.6 358.6 234.6 361.2 232.8 363.7 231 364.7 229.9
M 310.4 216.1
Q 310.15 215.25 309.4 214.75 308.55 214.2 307.05 214.05
L 305.55 213.65 305.55 213.75
Q 305.35 213.9 305.2 214.05 304.85 214.35 304.35 214.6 303.7 215.15 303.7 216.35 303.7 217.3 305.45 219.7 307.15 222.05 308.9 223.85 308.8 222.9 308.75 222.2 308.6 220.9 308.6 220.5 309.5 220.1 310.35 220.65 310.6 220.8 310.85 221 311.1 221.2 311.4 221.4
L 311.4 219.9
Q 310.95 217.9 310.4 216.1
M 331.2 188
Q 331.35 188.1 331.55 188.3 332.8 189.45 332.8 190.45 332.8 192.1 330.25 193.65 327.55 195.3 324.8 195.05 324.8 195.25 325.1 195.95 325.4 196.65 325.4 197.5 325.4 199.6 323.15 200.9 321.55 201.8 320.5 201.8 324.45 205.15 324.6 205.35 326.05 207.15 326.05 211
L 326.15 211.2
Q 326.1 211.25 326 211.35 325.8 212.15 324.6 213.35 324.35 213.55 322.45 215.2 322.45 215.25 322.4 215.3 322.35 215.55 322.3 215.8 322.85 216.65 323.3 217.7 323.8 218.7 323.8 218.95 323.8 222.3 322.55 223.9 321.65 225.1 320.4 225.1 317.2 225.1 316.15 221.35 315.4 218.65 315.95 215.7 315.65 215.15 315.35 214.55 314.05 211.45 311.8 208.5 310.7 209.15 309.6 209.15 307.8 209.15 307.55 208.95 307.05 208.6 306.65 206.7
L 302 206.7
Q 302 208.05 301.5 210.25 300.95 212.5 300.95 213.15 300.95 213.8 301.05 214.55 301.65 213.3 302.05 212.55 303.2 210.7 304.75 210.7 306.2 210.7 306.75 212.25 307.3 213.75 308.75 213.75 309.15 213.75 310.45 213.2 311.65 212.65 312.3 212.85 312.5 213.5 312.95 216.7 313.35 220.1 313.9 222.15 315.6 229.1 319.55 229.1 321.25 229.1 322.9 227.4 324.7 225.3 325.6 224.5 327.15 223.05 328.95 221.9 331.3 220.3 333.05 219.45 334.8 218.55 337.8 217.4 340.8 216.25 340.85 216.25 339.8 214.95 339.8 213.25 339.8 211.2 341.3 209.7 342.7 208.3 344.8 208.3 345.2 208.3 345.6 208.35 346.1 209.05 346.5 209.7 347.1 210.25 347.15 211.35 347.5 212.55 347.4 213.75 347.4 214.35 347.2 215 349.55 214.8 351.85 215.55 353.55 216.2 357.05 219.3 354.7 216.15 353.5 214.15 352.2 211.75 350.75 207.1 349.3 202.4 344.95 202.4 340.6 202.4 332.9 204.75 329.85 205.65 326.2 204.15 325.9 203.3 325.9 202.75 325.9 201.8 327.4 199.4 329.15 196.6 330.8 196.6 332.6 196.6 334.5 195.35 337 193.8 337 191.4 341 191.4 342.85 191.1 343.45 192.35 344 192.9 345.1 194.15 346.85 194.15 348.6 194.15 351.9 192.65 355.75 190.95 356.1 188.95 356.1 188.8 356.1 188.65
L 356.3 188.55
Q 355.55 186.65 354.7 185.85 354.3 185.45 353.95 185.25 354.2 185.25 354.4 185.25 354.3 185.05 354.25 184.9 353.9 184.75 353.65 184.65 353.8 185 353.85 185.3 354.3 186.95 352.85 188.2 351.4 189.55 349.3 189.55 347 189.55 346.4 189.25 344.6 188.4 345.6 185.25 344.8 187.45 343 188.05 342.25 188.3 340.4 188.3 338.55 188.3 336.5 187.45 336.1 187.3 330.5 187.45 330.75 187.6 330.95 187.8 331.1 187.9 331.2 188
M 327.2 210.55
Q 327.05 210.65 326.85 210.75 326.95 210.55 327.1 210.4
L 327.1 210.35
Q 327.15 210.45 327.2 210.55 Z"/>

<path fill="#663300" stroke="none" d="
M 286 166.85
Q 286.75 167.2 287.45 167.5 291.35 169.3 292.9 169.3 294.6 169.3 295.65 168.4 296.9 167.35 296.9 165.2 296.9 164.4 296.7 163.85 296.35 165.05 296.35 165.65 294.95 165.2 293 164.8 291.05 164.4 289.9 164.4 287.35 164.4 286.55 165.85 286.3 166.2 286 166.85
M 310.75 158.35
Q 312.8 160.05 313.25 160.45
L 316.25 156.9
Q 315 156.5 313.85 155.55 312.9 154.75 312.1 154 310.9 154 309.2 156.4 309.65 157.3 310.75 158.35
M 306.45 159.55
L 306.25 159.5
Q 305.45 159.5 303.15 158.9 300.85 158.3 300.05 158.3 298.85 158.3 297.65 161.25 299.75 162.9 302.6 162.9 304.35 162.9 305.2 162.25 306.4 161.45 306.45 159.55
M 349.55 168.75
Q 349.5 168.7 349.4 168.6 348.6 167.8 347.8 166.3 346.25 163.2 345.6 162.6 344.55 161.55 340.7 161.15 336.9 160.7 335.75 159.5 333.4 157.05 331.05 156.05 329.65 155.45 327.75 155.3
L 327.75 155.55
Q 328 157.4 331.2 161.1 334.65 165.05 336.7 165.05 337.05 165.05 338.3 164.7 339.5 164.4 339.9 164.4 341.2 164.4 341.9 165.45 342.15 165.85 342.75 167.65 343.85 170.85 347 170.85 347.65 170.85 348.5 170.2 349.35 169.55 349.55 168.75 Z"/>

<path fill="#432101" stroke="none" d="
M 306.45 159.5
Q 306.35 159.5 306.25 159.5
L 306.45 159.55 306.45 159.5 Z"/>

<path fill="#FFFFFF" stroke="none" d="
M 346.5 209.7
Q 345.85 209.2 344.7 209.25 342.25 209.45 342.25 211.7 342.25 212.25 342.8 213 343.6 214.05 344.7 214.05 346.2 214.05 346.85 212.85 347.15 211.7 347.15 211.6 347.15 211.45 347.15 211.35 347.1 210.25 346.5 209.7 Z"/>

<path fill="#000000" stroke="none" d="
M 345.6 208.35
Q 345.2 208.3 344.8 208.3 342.7 208.3 341.3 209.7 339.8 211.2 339.8 213.25 339.8 214.95 340.85 216.25 341.05 216.5 341.3 216.7 342.7 218.15 344.8 218.15 345.2 218.15 345.6 218.1 346.8 216.55 347.2 215 347.4 214.35 347.4 213.75 347.5 212.55 347.15 211.35 347.15 211.45 347.15 211.6 347.15 211.7 346.85 212.85 346.2 214.05 344.7 214.05 343.6 214.05 342.8 213 342.25 212.25 342.25 211.7 342.25 209.45 344.7 209.25 345.85 209.2 346.5 209.7 346.1 209.05 345.6 208.35
M 331.35 188.25
L 331.55 188.3
Q 331.35 188.1 331.2 188 331.3 188.1 331.35 188.25 Z"/>

<path fill="#CC9900" stroke="none" d="
M 337 191.4
Q 337 193.8 334.5 195.35 332.6 196.6 330.8 196.6 329.15 196.6 327.4 199.4 325.9 201.8 325.9 202.75 325.9 203.3 326.2 204.15 329.85 205.65 332.9 204.75 340.6 202.4 344.95 202.4 349.3 202.4 350.75 207.1 352.2 211.75 353.5 214.15 354.7 216.15 357.05 219.3 353.55 216.2 351.85 215.55 349.55 214.8 347.2 215 346.8 216.55 345.6 218.1 345.2 218.15 344.8 218.15 342.7 218.15 341.3 216.7 341.05 216.5 340.85 216.25 340.8 216.25 337.8 217.4 334.8 218.55 333.05 219.45 331.3 220.3 328.95 221.9 327.15 223.05 325.6 224.5 324.7 225.3 322.9 227.4 321.25 229.1 319.55 229.1 315.6 229.1 313.9 222.15 313.35 220.1 312.95 216.7 312.5 213.5 312.3 212.85 311.65 212.65 310.45 213.2 309.15 213.75 308.75 213.75 307.3 213.75 306.75 212.25 306.2 210.7 304.75 210.7 303.2 210.7 302.05 212.55 301.65 213.3 301.05 214.55 301.4 217.2 302.95 220.8 303.45 221.95 304.15 223.3 304.5 224.05 304.9 224.7 304.45 224.85 305.05 225 305.25 225.05 305.55 225.1 305.55 225.45 305.6 225.85 308.65 230.6 312.05 230.6 312.4 230.6 312.6 230.6 313 233.35 313.25 235.45 311.6 236.15 310.45 236.15 309.95 236.15 309.55 235.9 309.55 244.8 309.55 245.95 309.55 249.65 304.3 253.3 299.85 256.35 297.65 256.35 296.65 256.35 295.15 255.15
L 295.15 268.65
Q 333.2 284.4 332.45 270.1 332.4 269.7 332.35 269.25
L 332.35 266.95
Q 331.55 267.1 331.15 267.2 330.5 267.4 329.9 267.4 323.1 267.4 318.15 259.1 313.85 251.9 313.85 244.7 313.85 244.05 314.05 242.8 314.15 242.1 314.25 241.7 315.4 247.65 317.05 252.05 323.9 255.75 326.5 256.4 332.5 258.6 338.2 260.15 342.7 261.35 347.1 262.1 349.15 261.55 350.9 260.3 351 260.2 351.1 260.15 351.55 259.65 351.75 259.45 351.8 259.45 352.85 257.85 353 257.7 353.1 257.55
L 353.45 256
Q 353.15 252.35 353.45 250.5 351.55 251.45 351.15 251.45 350.15 251.45 349.1 250.85 347.85 250.1 347.8 249 351.4 249 353.95 248.8
L 353.95 249
Q 354 249 354 248.95 354.1 248.55 354.35 248.4 354.8 247.5 355.05 246.25 355.2 245.25 355.2 243.6 353.95 243.95 351.75 243.75 349.5 243.5 348.5 243.25 347.55 242.95 345.35 242.45 343.15 241.95 341.25 238.65 343.15 241.95 345.35 242.45 347.55 242.95 348.5 243.25 349.5 243.5 351.75 243.75 353.95 243.95 355.2 243.6 355.2 243.55 355.2 243.5
L 355.45 243.5
Q 355.5 243.45 355.7 243.35 355.9 243.15 356.3 242.65 357.05 241.85 357.05 241.5 357.05 241.15 356.75 240.35 356.4 239.5 356.25 238.6 356.1 237.65 357.3 236.15 355.1 236.1 353.55 235.9 349.95 235.35 349.95 233.85 349.95 233.55 350.25 233.05 350.65 232.45 351.15 232.45 351.55 232.45 352.95 232.75 354.3 233.05 354.7 233.05 356.95 233.05 359.85 232 362.25 231.1 364.6 229.8 364.75 229.75 364.85 229.7 365 229.5 365.15 229.25 366.3 227.65 366.3 225.7 366.3 224.5 364.65 222.95 362.35 221.1 361.05 219.95 355.8 215.45 355.8 209.95 355.8 206.75 356.5 205.5 357.85 203.2 358.6 201.25 358.7 200.9 358.8 200.55 359.15 199.7 359.05 199 359 197.65 357.4 191.9 356.9 189.9 356.3 188.55
L 356.1 188.65
Q 356.1 188.8 356.1 188.95 355.75 190.95 351.9 192.65 348.6 194.15 346.85 194.15 345.1 194.15 344 192.9 343.45 192.35 342.85 191.1 341 191.4 337 191.4
M 309.4 214.75
Q 310.15 215.25 310.4 216.1 310.95 217.9 311.4 219.9
L 311.4 221.4
Q 311.1 221.2 310.85 221 310.6 220.8 310.35 220.65 309.5 220.1 308.6 220.5 308.6 220.9 308.75 222.2 308.8 222.9 308.9 223.85 307.15 222.05 305.45 219.7 303.7 217.3 303.7 216.35 303.7 215.15 304.35 214.6 304.85 214.35 305.2 214.05 305.35 213.9 305.55 213.75
L 305.55 213.65 307.05 214.05
Q 308.55 214.2 309.4 214.75
M 317.65 243.95
Q 317.55 243.95 317.45 243.95
L 317.35 243.9 318.1 243.95
Q 317.85 243.95 317.65 243.95
M 327.1 210.4
L 327.2 210.55
Q 327.15 210.45 327.1 210.35
L 327.1 210.4 Z"/>

<path fill="#1A0000" stroke="none" d="
M 331.55 188.3
L 331.35 188.3
Q 331.45 188.55 331.45 188.95 331.45 190.6 327.45 192.6 323.75 194.45 321.55 194.45 319.05 194.45 316.25 192.7 315.1 192 314.05 191.15
L 314 191.2
Q 314.15 191.55 314.15 192 314.15 193.6 312 194.75 310.2 195.7 308.6 195.7 306.1 195.7 305.75 195.45 304.9 194.9 304.6 192 304.3 192 304.3 191.7
L 303.7 191.7
Q 303.7 194.75 301.6 196.7 299.15 199.05 294.45 199.05 291.2 199.05 290.25 197.1 289.55 194.3 288.85 192.65 288.9 196.55 287.4 199.55 285.55 203.35 282.1 203.35 281.15 203.35 280.6 203.05 280.2 202.8 279 202.1 277.95 203.75 276.55 204.45 275.25 205.2 273.3 205.2 271.55 205.2 269.8 203.15 270.05 206.95 271.9 210.1 273 211.9 274.05 213.45 274.05 214.35 273.15 216.2 272.2 218.05 272.2 218.95 272.2 224.2 273.75 226.55 275.4 229.1 280.25 230.6 278.85 233.4 283.55 236.4 287.9 239.2 291.95 239.2 290.9 239.85 290.8 240.05 290.75 240.25 290.75 241.95 290.75 244.95 291.95 246.55 293.05 248.05 295.15 248.35 295.65 248.4 296.3 248.4 297.65 248.4 298.85 248.3 300.55 248.15 301.85 247.8 306.75 246.45 306.75 242.6
L 306.75 242.55
Q 306.75 239.85 305.5 239.45 305.15 239.3 304.3 239.1 303.55 238.75 303.05 237.95 305.95 236.55 306.5 235.3 306.75 234.75 306.75 231.85 306.75 231.75 306.75 231.65 306.75 231.45 306.75 231.25
L 306.75 231.15
Q 306.65 229.25 306.2 228.2 305.75 227.2 305.6 225.85 305.35 225.45 305.05 225 304.45 224.85 304.9 224.7 304.5 224.05 304.15 223.3 303.45 221.95 302.95 220.8 301.4 217.2 301.05 214.55 300.95 213.8 300.95 213.15 300.95 212.5 301.5 210.25 302 208.05 302 206.7
L 306.65 206.7
Q 307.05 208.6 307.55 208.95 307.8 209.15 309.6 209.15 310.7 209.15 311.8 208.5 314.05 211.45 315.35 214.55 315.65 215.15 315.95 215.7 315.4 218.65 316.15 221.35 317.2 225.1 320.4 225.1 321.65 225.1 322.55 223.9 323.8 222.3 323.8 218.95 323.8 218.7 323.3 217.7 322.85 216.65 322.3 215.8 322.35 215.55 322.4 215.3 322.45 215.25 322.45 215.2 324.35 213.55 324.6 213.35 325.8 212.15 326 211.35 326.05 211.15 326.05 211 326.05 207.15 324.6 205.35 324.45 205.15 320.5 201.8 321.55 201.8 323.15 200.9 325.4 199.6 325.4 197.5 325.4 196.65 325.1 195.95 324.8 195.25 324.8 195.05 327.55 195.3 330.25 193.65 332.8 192.1 332.8 190.45 332.8 189.45 331.55 188.3
M 311.85 208.45
Q 314.15 206.35 313.8 206.75 313.35 207.3 312.75 207.8 312.3 208.2 311.85 208.45 Z"/>

<path fill="#331A00" stroke="none" d="
M 331.35 188.25
L 331.35 188.3 331.55 188.3 331.35 188.25 Z"/>

<path fill="#330000" stroke="none" d="
M 350.55 169.3
Q 350.05 169.15 349.55 168.75 349.35 169.55 348.5 170.2 347.65 170.85 347 170.85 343.85 170.85 342.75 167.65 342.15 165.85 341.9 165.45 341.2 164.4 339.9 164.4 339.5 164.4 338.3 164.7 337.05 165.05 336.7 165.05 334.65 165.05 331.2 161.1 328 157.4 327.75 155.55
L 327.75 155.3
Q 327.05 155.2 326.3 155.2 323.65 155.2 320.6 156.15 319.05 156.6 317.65 157.05 316.95 157.05 316.25 156.9
L 313.25 160.45
Q 312.8 160.05 310.75 158.35 309.65 157.3 309.2 156.4 309.1 156.55 309 156.75 307.4 159.2 306.45 159.5
L 306.45 159.55
Q 306.4 161.45 305.2 162.25 304.35 162.9 302.6 162.9 299.75 162.9 297.65 161.25 297.55 161.5 297.4 161.8 297 163 296.7 163.85 296.9 164.4 296.9 165.2 296.9 167.35 295.65 168.4 294.6 169.3 292.9 169.3 291.35 169.3 287.45 167.5 286.75 167.2 286 166.85 285.45 167.9 284.75 169.55 283.7 172.15 281.7 172.15 279.7 172.2 280.6 173.2 281.5 174.2 280.95 174.85 280.6 175.15 279.3 178.35 278 181.5 277.85 181.6 276.2 182.8 274.05 186.75 269.9 188.45 269.75 188.5 268.5 189.45 268.5 192.6 268.5 194.75 268.7 195.25 269.1 196.4 271.6 199.95 269.75 201.2 269.75 201.8 269.75 202.5 269.8 203.15 271.55 205.2 273.3 205.2 275.25 205.2 276.55 204.45 277.95 203.75 279 202.1 280.2 202.8 280.6 203.05 281.15 203.35 282.1 203.35 285.55 203.35 287.4 199.55 288.9 196.55 288.85 192.65 289.55 194.3 290.25 197.1 291.2 199.05 294.45 199.05 299.15 199.05 301.6 196.7 303.7 194.75 303.7 191.7
L 304.3 191.7
Q 304.3 192 304.6 192 304.9 194.9 305.75 195.45 306.1 195.7 308.6 195.7 310.2 195.7 312 194.75 314.15 193.6 314.15 192 314.15 191.55 314 191.2 314 191.1515625 313.95 191.1 313.75 190.95 313.55 190.75
L 313.85 190.75
Q 313.85 190.85 313.95 191.1 314.0015625 191.15 314.05 191.15 315.1 192 316.25 192.7 319.05 194.45 321.55 194.45 323.75 194.45 327.45 192.6 331.45 190.6 331.45 188.95 331.45 188.55 331.35 188.3
L 331.35 188.25
Q 331.3 188.1 331.2 188 331.1 187.9 330.95 187.8 330.75 187.6 330.5 187.45 336.1 187.3 336.5 187.45 338.55 188.3 340.4 188.3 342.25 188.3 343 188.05 344.8 187.45 345.6 185.25 344.6 188.4 346.4 189.25 347 189.55 349.3 189.55 351.4 189.55 352.85 188.2 354.3 186.95 353.85 185.3 353.8 185 353.65 184.65 353.9 184.75 354.25 184.9 354.85 185.05 355.7 185.2 357.75 184.95 357.35 184.05
L 358.6 184.05
Q 358.4 183.85 358.35 183.65 358.3 183.55 358.25 183.5 356.75 179.8 356.75 177.6 356.75 174.3 354.25 171.75 352.45 169.95 350.55 169.3
M 345 183.4
Q 344.95 183.4 344.75 183.45 344.95 183.4 345 183.4 Z"/>
</g>

<g id="Layer0_0_MEMBER_0_FILL">
<path fill="#663300" stroke="none" d="
M 351.55 205.1
L 351.55 200.65 331.25 201.25 331.25 205.1 351.55 205.1 Z"/>
</g>

<path id="Layer0_0_1_STROKES" stroke="#9999FF" stroke-width="1" stroke-linejoin="round" stroke-linecap="round" fill="none" d="
M 349.55 168.75
Q 349.5 168.7 349.4 168.6"/>

<path id="Layer0_0_2_STROKES" stroke="#999999" stroke-width="1" stroke-linejoin="round" stroke-linecap="round" fill="none" d="
M 355.7 243.35
Q 355.5 243.45 355.45 243.5 355.35 243.55 355.2 243.6
M 345 183.4
Q 344.95 183.4 344.75 183.45
M 327.1 210.4
Q 326.95 210.55 326.85 210.75 327.05 210.65 327.2 210.55
M 355.45 243.5
L 355.2 243.5
Q 355.2 243.55 355.2 243.6
M 317.35 243.9
L 317.45 243.95"/>

<path id="Layer0_0_3_STROKES" stroke="#CCCCCC" stroke-width="1" stroke-linejoin="round" stroke-linecap="round" fill="none" d="
M 354.25 184.9
Q 354.3 185.05 354.4 185.25 354.55 185.55 354.7 185.85
M 350.9 260.3
Q 349.15 261.55 347.1 262.1
M 332.35 269.25
Q 332.4 269.7 332.45 270.1
M 295.15 268.65
L 295.15 269.1
M 295.15 248.35
L 295.15 255.15"/>

<path id="Layer0_0_4_STROKES" stroke="#996600" stroke-width="1" stroke-linejoin="round" stroke-linecap="round" fill="none" d="
M 355.2 243.6
Q 353.95 243.95 351.75 243.75 349.5 243.5 348.5 243.25 347.55 242.95 345.35 242.45 343.15 241.95 341.25 238.65"/>
</defs>

<g transform="matrix( 1, 0, 0, 1, -268.5,-154) ">
<use xlink:href="#Layer0_0_FILL"/>

<use xlink:href="#Layer0_0_1_STROKES"/>

<use xlink:href="#Layer0_0_2_STROKES"/>

<use xlink:href="#Layer0_0_3_STROKES"/>

<use xlink:href="#Layer0_0_4_STROKES"/>
</g>

<g transform="matrix( 1, 0, 0, 1, -268.5,-154) ">
<use xlink:href="#Layer0_0_MEMBER_0_FILL"/>
</g>
</svg>
