
<svg xmlns="http://www.w3.org/2000/svg" version="1.1" xmlns:xlink="http://www.w3.org/1999/xlink" preserveAspectRatio="none" x="0px" y="0px" width="299px" height="356px" viewBox="0 0 299 356">
<defs>
<linearGradient id="Gradient_1" gradientUnits="userSpaceOnUse" x1="180.55" y1="205.10000000000002" x2="180.55" y2="84.5" spreadMethod="pad">
<stop  offset="2.3529411764705883%" stop-color="#D3A983"/>

<stop  offset="84.31372549019608%" stop-color="#F0D2AC"/>
</linearGradient>

<linearGradient id="Gradient_2" gradientUnits="userSpaceOnUse" x1="575.35" y1="100.71249999999999" x2="575.35" y2="277.4875" spreadMethod="pad">
<stop  offset="37.254901960784316%" stop-color="#D07B2B"/>

<stop  offset="64.70588235294117%" stop-color="#E4A232"/>
</linearGradient>

<linearGradient id="Gradient_3" gradientUnits="userSpaceOnUse" x1="574.15" y1="214.0875" x2="574.15" y2="272.0125" spreadMethod="pad">
<stop  offset="20.392156862745097%" stop-color="#CC8626"/>

<stop  offset="100%" stop-color="#D69E51" stop-opacity="0"/>
</linearGradient>

<linearGradient id="Gradient_4" gradientUnits="userSpaceOnUse" x1="65.95" y1="0.02499999999999858" x2="65.95" y2="72.475" spreadMethod="pad">
<stop  offset="2.3529411764705883%" stop-color="#868686"/>

<stop  offset="84.31372549019608%" stop-color="#313332"/>
</linearGradient>

<filter id="Filter_1" x="-100%" y="-100%" width="300%" height="300%" color-interpolation-filters="sRGB">
<feGaussianBlur in="SourceGraphic" stdDeviation="7.333333333333333,7.333333333333333" result="result1"/>
</filter>

<filter id="Filter_2" x="-24.57807658239514%" y="-20%" width="149.15615316479028%" height="140%" color-interpolation-filters="sRGB">
<feGaussianBlur in="SourceGraphic" stdDeviation="1.6666666666666667,1.6666666666666667" result="result1"/>
</filter>

<filter id="Filter_3" x="-20%" y="-20%" width="140%" height="140%" color-interpolation-filters="sRGB">
<feGaussianBlur in="SourceGraphic" stdDeviation="1.6666666666666667,1.6666666666666667" result="result1"/>
</filter>

<filter id="Filter_4" x="-20%" y="-20%" width="140%" height="140%" color-interpolation-filters="sRGB">
<feGaussianBlur in="SourceGraphic" stdDeviation="1.6666666666666667,1.6666666666666667" result="result1"/>
</filter>

<g id="Layer0_0_MEMBER_1_FILL">
<path fill="#FFFFFA" stroke="none" d="
M 181.6 281.6
Q 216.35 251.55 226.55 208.55 206.5 219.75 181.6 219.75 157.15 219.75 137.35 208.85 145.1 249.3 181.6 281.6 Z"/>

<path fill="#E2E2DE" stroke="none" d="
M 136.6 204
Q 136.9 206.35 137.35 208.85 157.15 219.75 181.6 219.75 206.5 219.75 226.55 208.55 227.2 205.9 227.7 203.35 207.2 215.35 181.6 215.35 156.65 215.35 136.6 204 Z"/>

<path fill="#BC722B" stroke="none" d="
M 137.35 208.85
Q 136.9 206.35 136.6 204 133.3 202.05 130.25 200 128.5 198.8 126.8 197.5 106.9 206.9 90.2 223.6 57.3 256.55 53.1 301.4 52.85 303.5 52.75 305.7 52.4 310.25 52.4 314.85
L 52.4 368.3
Q 52.15 372.85 53.65 376.1 56.35 382.1 64.7 383.8
L 300 385.35
Q 307.25 384.25 309.55 376.1 310.85 371.5 310.6 364.85
L 310.6 314.85
Q 310.6 310.25 310.3 305.7 310.2 303.5 310 301.4 305.7 256.55 272.85 223.6 256.05 206.9 236.35 197.6 235.35 198.3 234.3 199.05 232.45 200.35 230.65 201.55 229.2 202.4 227.7 203.35 227.2 205.9 226.55 208.55 216.35 251.55 181.6 281.6 145.1 249.3 137.35 208.85 Z"/>

<path fill="#C5A17F" stroke="none" d="
M 224.65 192.7
Q 223.35 193.5 222 194.45 203.5 205.1 180.55 205.1 158.05 205.1 140.05 194.9 137.05 193.25 134.3 191.3 132.75 190.2 131.15 189.1 126.2 185.2 121.45 180.6 105.3 164.4 99.8 143.75 99.6 143 99.55 142.3 98.4 137.35 97.75 132.15 93.25 139.4 92 147.1 98 170.1 116.1 188.15 121.2 193.3 126.8 197.5 128.5 198.8 130.25 200 133.3 202.05 136.6 204 156.65 215.35 181.6 215.35 207.2 215.35 227.7 203.35 229.2 202.4 230.65 201.55 232.45 200.35 234.3 199.05 235.35 198.3 236.35 197.6 241.95 193.4 247.15 188.15 264.3 171 270.65 149.35 269.05 140.15 263.4 131.45 262.65 138.9 260.6 145.75 254.95 165.2 239.5 180.6 234.95 185.35 229.75 189.1 228.95 189.75 227.95 190.45 226.3 191.55 224.65 192.7 Z"/>

<path fill="url(#Gradient_1)" stroke="none" d="
M 214.95 97.6
Q 214 97.85 212.9 98.15 163.4 109.9 121.45 87.95 120.05 112.55 106 121.85 101 126.85 97.75 132.15 98.4 137.35 99.55 142.3 99.6 143 99.8 143.75 105.3 164.4 121.45 180.6 126.2 185.2 131.15 189.1 132.75 190.2 134.3 191.3 137.05 193.25 140.05 194.9 158.05 205.1 180.55 205.1 203.5 205.1 222 194.45 223.35 193.5 224.65 192.7 226.3 191.55 227.95 190.45 228.95 189.75 229.75 189.1 234.95 185.35 239.5 180.6 254.95 165.2 260.6 145.75 262.65 138.9 263.4 131.45 259.7 125.6 254.2 120.05 252.7 118.55 251.15 117.1 238.4 101.65 239.15 84.5 233.1 86.65 227.15 87.7 209.25 90.85 191.45 84.5 198.35 91.85 214.95 97.6 Z"/>

<path fill="#201E1F" stroke="none" d="
M 212.9 98.15
Q 214 97.85 214.95 97.6 198.35 91.85 191.45 84.5 209.25 90.85 227.15 87.7 233.1 86.65 239.15 84.5 238.4 101.65 251.15 117.1 252.7 118.55 254.2 120.05 259.7 125.6 263.4 131.45 269.05 140.15 270.65 149.35 274.25 136.85 274.25 122.75 274.25 84.35 247.15 57.1 220.1 30 181.6 30 143.2 30 116.1 57.1 89 84.35 89 122.75 89 134.65 91.65 145.55 91.85 146.3 92 147.1 93.25 139.4 97.75 132.15 101 126.85 106 121.85 120.05 112.55 121.45 87.95 163.4 109.9 212.9 98.15 Z"/>
</g>

<g id="Layer0_0_MEMBER_1_MEMBER_0_FILL">
<path fill="url(#Gradient_2)" stroke="none" d="
M 694.7 211.1
Q 694.7 204.6 694.1 198.45 690.15 156.15 659.75 125.25 645.15 110.4 628.25 101.8 616.1 154 576.35 188.35 533.65 150.7 525.3 100.65 506.55 109.45 491.05 125.25 460.65 156.15 456.75 198.45 456.1 204.6 456.1 211.1
L 456.1 261.4
Q 455.45 273.5 467.45 276
L 684.9 277.45
Q 692.4 276.25 694.2 266.85 694.9 263.1 694.7 258.1
L 694.7 211.1 Z"/>
</g>

<g id="Layer0_0_MEMBER_1_MEMBER_0_MEMBER_0_FILL">
<path fill="url(#Gradient_3)" stroke="none" d="
M 686.65 272
L 686.65 214.1
Q 570.8 283.75 461.6 214.1
L 461.6 265.65 686.65 272 Z"/>
</g>

<g id="S_mbolo_3_0_Layer0_0_FILL">
<path fill="#D7A26C" stroke="none" d="
M 6.9 0
L 0 22
Q 47.05 42.2 33.05 118.4 47.25 78.45 41.3 52.3 37.05 18.4 6.9 0 Z"/>
</g>

<g id="S_mbolo_2_0_Layer0_0_FILL">
<path fill="url(#Gradient_4)" stroke="none" d="
M 131.65 72.5
Q 131.9 69.8 131.9 66.95 131.9 39.2 112.25 19.6 92.75 0 65 0 37.25 0 17.6 19.6 4.1 33.15 0 50.6 9.35 48.25 12.45 30.9 37.4 45.5 68.95 42.95 59.1 33.15 56.85 23.3 80.1 38.2 117.85 30.55 115.5 47.5 131.65 72.5 Z"/>
</g>

<g id="S_mbolo_4_0_Layer0_0_FILL">
<path fill="#E6CBAE" stroke="none" d="
M 65.15 28.5
Q 63.95 27.3 62.7 26.15 52.5 13.75 53.1 0 48.25 1.7 43.45 2.55 62.3 64.5 0.4 85.75 -1.4 87.65 4.5 89.5 34.8 84.65 51.7 65.05 64.35 48.1 65.15 28.5 Z"/>
</g>
</defs>

<g filter="url(#Filter_1)" transform="matrix( 1, 0, 0, 1, 0,0) ">
<g transform="matrix( 1.9796600341796875, 0, 0, 2.75311279296875, -21,299.55) "/>
</g>

<g transform="matrix( 1, 0, 0, 1, -33,-30) ">
<use xlink:href="#Layer0_0_MEMBER_1_FILL"/>
</g>

<g transform="matrix( 1, 0, 0, 1, -427.75,72.75) ">
<use xlink:href="#Layer0_0_MEMBER_1_MEMBER_0_FILL"/>
</g>

<g transform="matrix( 1, 0, 0, 1, -427.75,72.75) ">
<use xlink:href="#Layer0_0_MEMBER_1_MEMBER_0_MEMBER_0_FILL"/>
</g>

<g filter="url(#Filter_2)" transform="matrix( 1, 0, 0, 1, 0,0) ">
<g transform="matrix( 1.2470550537109375, 0, 0, 1.2470550537109375, 200.15,196.55) ">
<g transform="matrix( 1, 0, 0, 1, 0,0) ">
<use xlink:href="#S_mbolo_3_0_Layer0_0_FILL"/>
</g>
</g>
</g>

<g filter="url(#Filter_3)" transform="matrix( 1, 0, 0, 1, 0,0) ">
<g transform="matrix( 1.2470550537109375, 0, 0, 1.2470550537109375, 66.85,6.45) ">
<g transform="matrix( 1, 0, 0, 1, 0,0) ">
<use xlink:href="#S_mbolo_2_0_Layer0_0_FILL"/>
</g>
</g>
</g>

<g filter="url(#Filter_4)" transform="matrix( 1, 0, 0, 1, 0,0) ">
<g transform="matrix( 1.2470550537109375, 0, 0, 1.2470550537109375, 139.55,56.45) ">
<g transform="matrix( 1, 0, 0, 1, 0,0) ">
<use xlink:href="#S_mbolo_4_0_Layer0_0_FILL"/>
</g>
</g>
</g>
</svg>
