
<svg xmlns="http://www.w3.org/2000/svg" version="1.1" xmlns:xlink="http://www.w3.org/1999/xlink" preserveAspectRatio="none" x="0px" y="0px" width="105px" height="121px" viewBox="0 0 105 121">
<defs>
<g id="Layer0_0_FILL">
<path fill="#FFFF99" stroke="none" d="
M 447.4 240.15
L 447.6 239.8
Q 447.45 239.8 447.4 239.8 447.4 240 447.4 240.15
M 477.75 265.65
L 477.5 271.5
Q 480.7 279.8 505.55 265.1
L 506.1 251.7
Q 504.15 253.6 503.05 253.8 501.9 254.05 502.2 253.75
L 502.2 253.65 502.45 253.5
Q 504.45 250.1 504.95 248.35 505.5 246.55 505.75 244.1 506 241.65 504.6 238 504.25 237.1 503.85 236.55 494.05 260.85 477.75 265.65
M 457.6 199.5
Q 457.6 200.35 457.35 202.1 457.1 203.75 457.05 204.65 454.85 204.9 453.05 203.7 451.15 202.1 449.95 201.2 449.35 202.85 448.45 206.2 447.85 208.2 447.45 209.4
L 447.45 209.45
Q 447.4 209.65 447.35 209.85 447.6 210.9 448 211.95 448.8 214.3 447.9 216.7 447 219.1 445.6 222.05 445.55 222.15 445.5 222.25 445.25 222.8 444.95 223.3 444.85 223.5 444.8 223.7 443.55 225.9 442.2 227.45 440.8 229.05 439.45 231 439.2 231.9 439.9 232.7
L 440.1 232.55
Q 441.2 232.9 446.5 233.35 449.9 233.45 452.05 233.35 452.05 234.5 450.8 236.15 450.4 237.1 449.45 238.25 448.7 239.35 448 239.7 447.3 241.55 446.9 242 446.5 242.4 446.65 243.2 446.75 244.1 451.6 245.35 452.35 244.9 453.4 244.7 454 244.65 455.45 244.5 456.8 244.35 461.25 243.45 465.7 242.5 466.35 239.1 465.7 242.5 461.25 243.45 456.8 244.35 455.45 244.5 454 244.65 453.4 244.7 452.35 244.9 451.6 245.35 451.5 245.35 451.5 245.4 450.75 246.5 450.55 247.4 450.25 248.85 451.65 250.45 452.75 250.4 454 250.25 455.9 250.1 456.85 249.75 456.85 249.9 456.95 250.1 457.15 250.25 457.15 250.8 457.1 251.6 456.2 252.4 455.95 252.6 455.6 252.8 454.65 253.35 453.7 253.35 454.85 256.3 455.7 257.8 456.45 259.2 457.85 260.05 459.3 260.9 460.75 261.35 462.25 261.9 472.35 257.65 473.35 257.35 474.15 256.95 474.25 256.9 474.3 256.9 475.95 256.1 477.55 255.35 478.1 255.1 478.6 254.9 480.65 253.8 482.45 252.8 485.65 250.9 487.9 249.05 493.3 244.65 495.4 239.55 496.35 237.4 497.2 231.4 498.15 231.8 499.7 231.8 500.1 231.8 500.45 231.75 504.2 231.35 507.15 227 510.2 222.45 510.5 216.95 510.6 213.55 510.05 210.8 509.75 209.8 509.5 209
L 509.4 209.1
Q 509 209.1 508.35 208.9 507.65 208.75 507.2 208.75 504.5 208.75 502.9 210.1 501.65 211.25 500.8 213.65 500.6 214 499.55 217.85 498.8 220.45 497.95 221.8 491.7 231.45 487.65 234.5
L 485.85 235.15
Q 486.25 234.55 486.5 234.1 487 233.2 487 232.5
L 487 232.45 486.7 232.45
Q 484.7 234.55 483.1 235.4 480.7 236.65 479.95 237.25
L 475.95 237.9 477.45 236.85
Q 479.5 235.85 481.2 232 482.65 228.8 482.65 226.3 482.65 225.7 482.65 225.25
L 482.9 225.1 482.85 225.05
Q 480.5 221.9 477.2 220 471.9 216.95 463.95 216.95 456.95 216.95 452.85 218.7 449.9 219.9 447.6 222.35 455.05 209.65 457.1 206.6 459.1 203.45 462.7 203 459.4 201.95 457.6 199.5
M 508.5 212.85
Q 508.6 213.85 508 214.75 507.65 215.25 506.55 216.25 504.5 218.3 504.6 220.05 504.7 223.75 504.4 225.1 503.8 227.3 501.55 227.3 497.8 227.3 497.85 225.05
L 497.85 224.2
Q 498.05 224.35 498.3 224.65 498.55 224.85 499.1 224.85 500.15 224.85 500.8 224.55 501.8 223.95 501.95 222.3 501.95 221.8 501.1 220.45 500.3 219.05 500.3 218.7 500.35 217.35 501.9 214.9 503.7 212.15 505.2 212.15 505.75 212.15 506.35 212.35 507 212.5 507.4 212.55
L 508.1 212.55
Q 508.1 212.75 508.3 212.8 508.35 212.85 508.5 212.85
M 467.25 194.65
L 467.25 196.05
Q 467.1 198.35 468.75 200.75 469.8 202.1 470 202.4 470.25 203 470.45 203.55 474.95 204.25 477.75 204.85 475.95 203.8 474.05 202.35 468.5 198.05 467.25 194.65 Z"/>

<path fill="#FFCC66" stroke="none" d="
M 456.95 250.1
Q 456.85 249.9 456.85 249.75 455.9 250.1 454 250.25 452.75 250.4 451.65 250.45 452.6 251.5 453.4 252.7 453.55 253.1 453.7 253.35 454.65 253.35 455.6 252.8 455.95 252.6 456.2 252.4 457.1 251.6 457.15 250.8 457.15 250.25 456.95 250.1
M 478.6 254.9
Q 478.1 255.1 477.55 255.35 475.95 256.1 474.3 256.9
L 474.3 256.95
Q 475 257.15 475.6 257.25 476.75 257.6 477.45 257.8 478.1 257.95 478.25 258.1
L 478.25 259.7 478 259.9 477.75 265.65
Q 494.05 260.85 503.85 236.55 503.55 235.85 503.15 235.4 501.8 233.9 500.85 232.25 500.85 232.2 500.45 231.75 500.1 231.8 499.7 231.8 498.15 231.8 497.2 231.4 496.35 237.4 495.4 239.55 493.3 244.65 487.9 249.05 485.65 250.9 482.45 252.8 480.65 253.8 478.6 254.9
M 452.05 233.35
Q 449.9 233.45 446.5 233.35 441.2 232.9 440.1 232.55
L 439.9 232.7 439.9 232.75
Q 440.6 233.45 442.15 234.1 443 234.4 443.7 234.75 446.4 235.85 447.1 236.35 447.9 237 448.3 238.2 449.2 238.2 450.35 236.75 450.6 236.4 450.8 236.15 452.05 234.5 452.05 233.35
M 508 214.75
Q 508.6 213.85 508.5 212.85 508.35 212.85 508.3 212.8 508.1 212.75 508.1 212.55
L 507.4 212.55 506.35 212.55 506.35 212.35
Q 505.75 212.15 505.2 212.15 503.7 212.15 501.9 214.9 500.35 217.35 500.3 218.7 500.3 219.05 501.1 220.45 501.95 221.8 501.95 222.3 501.8 223.95 500.8 224.55 500.15 224.85 499.1 224.85 498.55 224.85 498.3 224.65 498.05 224.35 497.85 224.2
L 497.85 225.05
Q 497.8 227.3 501.55 227.3 503.8 227.3 504.4 225.1 504.7 223.75 504.6 220.05 504.5 218.3 506.55 216.25 507.65 215.25 508 214.75
M 456.2 195.5
L 456 195.65
Q 455.3 200.25 455.7 203.3 450.8 198.05 450.4 194.95 447.6 204 447.2 206.75 447.3 207.1 447.4 207.4
L 447.35 207.4 447.15 207.5
Q 447.15 208.45 447.45 209.4 447.85 208.2 448.45 206.2 449.35 202.85 449.95 201.2 451.15 202.1 453.05 203.7 454.85 204.9 457.05 204.65 457.1 203.75 457.35 202.1 457.6 200.35 457.6 199.5 459.4 201.95 462.7 203 459.1 203.45 457.1 206.6 455.05 209.65 447.6 222.35 449.9 219.9 452.85 218.7 456.95 216.95 463.95 216.95 471.9 216.95 477.2 220 480.5 221.9 482.85 225.05
L 482.9 225.1 482.65 225.25
Q 482.75 225.5 482.95 226.2
L 482.65 226.3
Q 482.65 228.8 481.2 232 479.5 235.85 477.45 236.85
L 475.95 237.9 479.95 237.25
Q 480.7 236.65 483.1 235.4 484.7 234.55 486.7 232.45
L 487 232.45 487 232.5
Q 487 233.2 486.5 234.1 486.25 234.55 485.85 235.15
L 487.65 234.5
Q 491.7 231.45 497.95 221.8 498.8 220.45 499.55 217.85 500.6 214 500.8 213.65 501.65 211.25 502.9 210.1 504.5 208.75 507.2 208.75 507.65 208.75 508.35 208.9 509 209.1 509.4 209.1
L 509.5 209
Q 508.3 206 505.85 206 501.1 206 499.7 209 499.25 210.1 498.75 212.4 498.15 215.5 497.85 216.65 496.9 219.9 494.3 223.6 492.9 225.55 492.15 226.6 490.8 228.4 490 229.7
L 490.1 228.65
Q 490.1 228.45 491.6 225.1 492.85 222.35 492.65 221.1
L 492.6 221.1
Q 491 225.9 488.6 229.05 485.7 232.75 482.25 233.45 483.2 232 485.05 229.3 486.7 227 487.55 225.3 490 220.75 490.25 215.75 490.25 214.9 489.65 209.15
L 489.45 209.15
Q 487.25 207.65 484.5 203.45 480.4 197.35 480.2 197.1 480.3 197.35 483 202.4 485 206.2 485.9 207.05
L 485 207.05
Q 483.55 207.05 481.95 206.65 479.95 206.05 477.8 204.85
L 477.75 204.85
Q 474.95 204.25 470.45 203.55 470.5 203.95 470.45 204.35
L 470.45 205.35
Q 468.2 204.45 465.65 202.9 464.3 202.1 462.85 201.05 458.1 197.7 456.4 195.05 456.4 195.2 456.2 195.5
M 484.7 228
L 485.05 228 484.7 228 Z"/>

<path fill="#000000" stroke="none" d="
M 512.15 168.85
Q 514.4 166.6 516.05 165.3 518.25 163.65 521.05 163.35 516.05 162.75 513.95 162.7 511.75 162.65 510.05 162.95 508.3 163.25 505.75 163.7 503.1 164.1 500.2 165.2 497.35 166.2 494.95 162.2 492.5 158.15 489 156.55 482.1 153.4 473.35 154.05 474.5 154.4 477.45 156.4 479.55 157.8 481.6 159.65 483.65 161.6 483.6 164.3 478.65 161.2 474.1 158.5 469.5 155.9 461.45 156 453.5 156.1 451.75 156.7
L 451.65 156.7
Q 450.95 156.7 451.5 156.9 451.6 156.9 451.65 157 453 157.45 457.35 159.05 462.75 161.1 467.25 163.5 467.35 163.6 467.1 163.7
L 466.85 163.7 466.85 163.65
Q 465.2 163.5 463.45 163.35 460.65 163 459.35 163 451.75 163 449.6 163.15 445.8 163.35 443.3 164.25 440.8 165.15 437.4 167.35 435.65 168.55 430.2 170.9 434.2 172.7 434.4 172.65 434.6 172.55 436.25 172.75 437.9 172.95 438.15 173 438.75 173.1 441.95 173.2 438.7 174 436.8 174.7 434.95 175.35 425.65 172.2 428.5 177.25 432.05 178.9 435.55 180.55 436.05 180.65 435.35 180.55 434.5 180.45 434.4 180.45 434.3 180.4 432.5 180.2 431.9 180.2 428.35 180.2 424.3 181 431.9 183.65 432.9 184.55 433.95 185.55 435.3 186.9 436.55 188.3 436.75 188.5
L 436.45 188.6 436.5 188.55
Q 434 189.45 431.6 191.9 429.25 194.85 425.8 196.05 429.45 199.2 433.6 199.95 437.8 200.75 438.05 200.1 439.75 202.45 440.3 203.5 440.85 204.5 443.95 206.9 447.1 209.25 447.45 209.45
L 447.45 209.4
Q 447.15 208.45 447.15 207.5
L 447.15 207.4
Q 447.15 207.15 447.2 206.75 447.6 204 450.4 194.95 450.8 198.05 455.7 203.3 455.3 200.25 456 195.65
L 456.2 195.5
Q 456.4 195.2 456.4 195.05 458.1 197.7 462.85 201.05 464.3 202.1 465.65 202.9 468.2 204.45 470.45 205.35
L 470.45 204.35
Q 470.5 203.95 470.45 203.55 470.25 203 470 202.4 469.8 202.1 468.75 200.75 467.1 198.35 467.25 196.05
L 467.25 194.65
Q 468.5 198.05 474.05 202.35 475.95 203.8 477.75 204.85
L 477.8 204.85
Q 479.95 206.05 481.95 206.65 483.55 207.05 485 207.05
L 485.9 207.05
Q 485 206.2 483 202.4 480.3 197.35 480.2 197.1 480.4 197.35 484.5 203.45 487.25 207.65 489.45 209.15
L 489.65 209.15
Q 490.25 214.9 490.25 215.75 490 220.75 487.55 225.3 486.7 227 485.05 229.3 483.2 232 482.25 233.45 485.7 232.75 488.6 229.05 491 225.9 492.6 221.1
L 492.6 220.75
Q 492.65 220.9 492.65 221.1 492.85 222.35 491.6 225.1 490.1 228.45 490.1 228.65
L 490 229.7
Q 490.8 228.4 492.15 226.6 492.9 225.55 494.3 223.6 496.9 219.9 497.85 216.65 498.15 215.5 498.75 212.4 499.25 210.1 499.7 209 501.1 206 505.85 206 508.3 206 509.5 209 509.75 209.8 510.05 210.8 510.6 213.55 510.5 216.95 510.2 222.45 507.15 227 504.2 231.35 500.45 231.75 500.85 232.2 500.85 232.25 501.8 233.9 503.15 235.4 503.55 235.85 503.85 236.55 504.25 237.1 504.6 238 506 241.65 505.75 244.1 505.5 246.55 504.95 248.35 504.45 250.1 502.45 253.5
L 502.2 253.65 502.2 253.75
Q 501.9 254.05 503.05 253.8 504.15 253.6 506.1 251.7 506.2 251.6 506.3 251.5 508.45 249.45 509.25 246.25 509.15 247.15 509.2 248.1 509.25 250.65 510.75 253.35 512.65 257 515.6 258.6 514.9 256.1 515.3 248.8 515.3 248.35 515.3 247.95
L 515.35 247.6
Q 515.55 241.3 514.95 239 516.45 239.35 517.3 242.9 517.9 245.8 517.85 248.3
L 518 248.35
Q 518.65 246.95 519.45 243.35 520.35 239.45 520.45 237.25 519.85 231.4 519.55 230.65 519.15 229.85 518.65 228.45 518.05 227.05 517.6 225.4 517.1 223.3 517.15 221.25 517.35 218.2 519 212.85 520.95 206.7 521.6 205.3 522.15 203.9 523.25 197.8 524.3 191.7 528.45 185.55 522.55 189.45 521.6 190.1 521.45 190.15 521.4 190.2 522.5 187.4 524.4 182.7 526.15 178.85 527.55 176.75
L 522.3 176.75
Q 524.3 175.05 525 173.45 526.05 171.05 526.35 170.95 524.35 171.35 524.15 171.4 523.05 171.6 522.5 171.6 521.6 171.6 521.45 171.6 520.8 171.65 519 173.15 520.8 170.65 522.1 169.5 523.2 168.6 524.1 168.55 518.5 166.35 511.9 169.15 511.85 169.15 511.75 169.15
L 512.15 168.85
M 486.7 168.4
L 486.75 168.4
Q 487.9 169.1 491.3 171.6 494.95 174.3 495.7 174.75
L 495.65 176.75 495.2 176.75
Q 495.2 176.05 494.55 175.7 493.5 175.05 493.15 174.75
L 491.1 174.75 491.05 175.2
Q 492.65 175.95 492.9 177.75 492.9 179.9 492.9 180.8 489.9 177.6 487.95 177.6 487.9 178.75 488.75 180.4 489.45 181.7 489.05 183.2
L 489 183.2
Q 485.65 178.75 481.1 176.8 476.55 174.8 468.35 174.45 469.05 173.45 471.1 173.2 471.8 173.15 473.85 173.15 474.3 173.15 476.1 173.4 477.95 173.55 478.9 173.55
L 478.9 173.15
Q 477.55 172.1 475.85 171.1 473.15 169.6 471.6 169.55
L 474.8 169.55
Q 476.8 169.55 480.05 170.4 481.6 170.7 485.65 172
L 488.2 172
Q 488.2 170.35 487.5 169.3 487.45 169.15 486.7 168.4
M 501.45 178.4
Q 503.5 177.6 504.85 177.6
L 509.15 177.6
Q 506.95 178.3 505.8 179 503.95 180 503.5 181.15 506 180.65 510.05 182.05 513.05 183.1 515.1 184.4
L 515.05 184.75
Q 514.15 184.4 511.5 184.4 508.8 184.4 507.55 184.75 508.3 185.55 509.25 187.9 510.3 190.45 510.6 191.25
L 510.4 191.35
Q 508.9 189.55 508 188.6 506.3 186.8 504.7 185.8 500.45 182.9 494.9 184 495.7 182.75 496.3 182.2 497.45 181.25 499.3 180.4 498.4 180.4 497.65 180.15 497.15 179.95 496.35 179.65
L 496.35 179.2
Q 499.45 179.2 501.45 178.4 Z"/>

<path fill="#FFFFFF" stroke="none" d="
M 504.85 177.6
Q 503.5 177.6 501.45 178.4 499.45 179.2 496.35 179.2
L 496.35 179.65
Q 497.15 179.95 497.65 180.15 498.4 180.4 499.3 180.4 497.45 181.25 496.3 182.2 495.7 182.75 494.9 184 500.45 182.9 504.7 185.8 506.3 186.8 508 188.6 508.9 189.55 510.4 191.35
L 510.6 191.25
Q 510.3 190.45 509.25 187.9 508.3 185.55 507.55 184.75 508.8 184.4 511.5 184.4 514.15 184.4 515.05 184.75
L 515.1 184.4
Q 513.05 183.1 510.05 182.05 506 180.65 503.5 181.15 503.95 180 505.8 179 506.95 178.3 509.15 177.6
L 504.85 177.6
M 486.75 168.4
L 486.7 168.4
Q 487.45 169.15 487.5 169.3 488.2 170.35 488.2 172
L 485.65 172
Q 481.6 170.7 480.05 170.4 476.8 169.55 474.8 169.55
L 471.6 169.55
Q 473.15 169.6 475.85 171.1 477.55 172.1 478.9 173.15
L 478.9 173.55
Q 477.95 173.55 476.1 173.4 474.3 173.15 473.85 173.15 471.8 173.15 471.1 173.2 469.05 173.45 468.35 174.45 476.55 174.8 481.1 176.8 485.65 178.75 489 183.2
L 489.05 183.2
Q 489.45 181.7 488.75 180.4 487.9 178.75 487.95 177.6 489.9 177.6 492.9 180.8 492.9 179.9 492.9 177.75 492.65 175.95 491.05 175.2
L 491.1 174.75 493.15 174.75
Q 493.5 175.05 494.55 175.7 495.2 176.05 495.2 176.75
L 495.65 176.75 495.7 174.75
Q 494.95 174.3 491.3 171.6 487.9 169.1 486.75 168.4 Z"/>
</g>

<g id="Layer0_0_MEMBER_0_FILL">
<path fill="#FFFFFF" stroke="none" d="
M 465.65 213.8
Q 465.45 213.6 465.05 213.55 464.55 213.5 464.3 213.9 464.15 214.1 464.15 214.65 464.1 215.85 465 215.85 465.45 215.85 465.7 215.4 465.9 215.1 465.95 214.65 465.95 214.05 465.65 213.8 Z"/>

<path fill="#000000" stroke="none" d="
M 464.3 213.9
L 463.05 213.9 459.2 218.95 476.85 213.2 465.65 213.8
Q 465.95 214.05 465.95 214.65 465.9 215.1 465.7 215.4 465.45 215.85 465 215.85 464.1 215.85 464.15 214.65 464.15 214.1 464.3 213.9 Z"/>
</g>

<g id="Layer0_0_MEMBER_1_FILL">
<path fill="#000000" stroke="none" d="
M 460.3 208.15
Q 468.75 204.8 478.1 204.85 468.35 201.85 453.85 204.85 452.65 206.8 460.3 208.15 Z"/>
</g>

<path id="Layer0_0_1_STROKES" stroke="#FF9933" stroke-width="1" stroke-linejoin="round" stroke-linecap="round" fill="none" d="
M 451.6 245.35
Q 452.35 244.9 453.4 244.7 454 244.65 455.45 244.5 456.8 244.35 461.25 243.45 465.7 242.5 466.35 239.1
M 484.7 228
L 485.05 228"/>
</defs>

<g transform="matrix( 1, 0, 0, 1, -424.3,-153.95) ">
<use xlink:href="#Layer0_0_FILL"/>

<use xlink:href="#Layer0_0_1_STROKES"/>
</g>

<g transform="matrix( 1, 0, 0, 1, -424.3,-153.95) ">
<use xlink:href="#Layer0_0_MEMBER_0_FILL"/>
</g>

<g transform="matrix( 1, 0, 0, 1, -424.3,-153.95) ">
<use xlink:href="#Layer0_0_MEMBER_1_FILL"/>
</g>
</svg>
