
<svg xmlns="http://www.w3.org/2000/svg" version="1.1" xmlns:xlink="http://www.w3.org/1999/xlink" preserveAspectRatio="none" x="0px" y="0px" width="100px" height="145px" viewBox="0 0 100 145">
<defs>
<radialGradient id="Gradient_1" gradientUnits="userSpaceOnUse" cx="0" cy="0" r="208.8875" fx="0" fy="0" gradientTransform="matrix( 1.0000000000000002, 0, 0, 1.0000000000000002, 275.95,255.4) " spreadMethod="pad">
<stop  offset="0%" stop-color="#FFCD62"/>

<stop  offset="63.13725490196079%" stop-color="#DC6900"/>
</radialGradient>

<radialGradient id="Gradient_2" gradientUnits="userSpaceOnUse" cx="0" cy="0" r="223.45" fx="0" fy="0" gradientTransform="matrix( 1, 0, 0, 1, 259.3,262.2) " spreadMethod="pad">
<stop  offset="0%" stop-color="#FFCD62"/>

<stop  offset="63.13725490196079%" stop-color="#DC6900"/>
</radialGradient>

<radialGradient id="Gradient_3" gradientUnits="userSpaceOnUse" cx="0" cy="0" r="106.17500000000001" fx="0" fy="0" gradientTransform="matrix( 1, 0, 0, 1, 340.15,107.35) " spreadMethod="pad">
<stop  offset="0%" stop-color="#EAC79D"/>

<stop  offset="100%" stop-color="#923B10"/>
</radialGradient>

<radialGradient id="Gradient_4" gradientUnits="userSpaceOnUse" cx="0" cy="0" r="143.9875" fx="0" fy="0" gradientTransform="matrix( 1, 0, 0, 1, 316.05,42.6) " spreadMethod="pad">
<stop  offset="2.3529411764705883%" stop-color="#55504C"/>

<stop  offset="67.84313725490196%" stop-color="#292522"/>
</radialGradient>

<g id="Layer0_0_FILL">
<path fill="url(#Gradient_1)" stroke="none" d="
M 337.55 379.5
Q 372.6 376 401.35 365.95
L 299.15 285.15
Q 293.05 277.85 297.55 272.7
L 318.75 256.95
Q 307.8 256.2 295.7 257.9 287.1 232.1 287.1 207.25 287.05 202.35 287.4 197.55 283.45 199.4 279.8 201.5 236.75 225.55 225.8 277.6 213.85 336.05 230.65 351.95 254.8 384.65 337.55 379.5
M 423.4 191.85
Q 419 189.85 414.4 188.5 418.55 190.45 422.35 192.95 443.95 207.15 454.2 239.4 453.05 239.3 451.9 239.4
L 453.6 241.85
Q 437.6 243.7 427 250.85
L 456.05 256.05 452.35 263.45 455.95 262.55 404.1 365
Q 405.2 364.55 406.4 364.1 434.85 353.25 456.85 335.6 480.05 322.15 478.25 297.6 480.75 249.35 449.75 212.15 437.8 198.4 423.4 191.85 Z"/>

<path fill="#A65B31" stroke="none" d="
M 332.5 209.9
Q 344.75 216.5 355.35 225.7 379.65 246.75 395.05 281.35 402.85 231 403.85 208.8 404.25 199.5 403.5 195.1 397 199.5 389.5 203.6 358.2 215 332.5 209.9 Z"/>

<path fill="#A15410" stroke="none" d="
M 455.95 262.55
L 452.35 263.45 402.4 362.15 299.4 277.6 325.8 257.7
Q 381.95 265.8 404.85 341.8
L 399.6 294.3
Q 398.25 297.85 396.9 301.7 352.9 240.8 297.45 253.75 290.7 232.2 290.1 209.35 289.85 200.3 290.55 191.05
L 287.9 192.35
Q 287.55 194.95 287.4 197.55 287.05 202.35 287.1 207.25 287.1 232.1 295.7 257.9 307.8 256.2 318.75 256.95
L 297.55 272.7
Q 293.05 277.85 299.15 285.15
L 401.35 365.95
Q 402.7 365.5 404.1 365
L 455.95 262.55
M 453.6 241.85
L 451.9 239.4
Q 434.85 239.2 426.45 245.55 424.15 247.1 421.75 249.9
L 427 250.85
Q 437.6 243.7 453.6 241.85 Z"/>

<path fill="url(#Gradient_2)" stroke="none" d="
M 427 250.85
L 421.75 249.9
Q 411.7 261.5 399.6 294.3
L 404.85 341.8
Q 381.95 265.8 325.8 257.7
L 299.4 277.6 402.4 362.15 452.35 263.45 456.05 256.05 427 250.85 Z"/>

<path fill="#CE7F54" stroke="none" d="
M 434.45 115.35
Q 427.6 163 391.35 185.7 343.85 208.5 292 175.55 289.45 173.95 286.9 172.2 288.65 175.15 290.8 177.45 291.35 178 291.9 178.5 342.75 213.9 392.55 190 428.85 167.3 434.45 115.35 Z"/>

<path fill="#EBE4EB" stroke="none" d="
M 422.35 192.95
Q 418.55 190.45 414.4 188.5 408.2 191.75 403.5 195.1 404.25 199.5 403.85 208.8 402.85 231 395.05 281.35 379.65 246.75 355.35 225.7 344.75 216.5 332.5 209.9 310.9 205.65 293.2 189.75
L 290.55 191.05
Q 289.85 200.3 290.1 209.35 290.7 232.2 297.45 253.75 352.9 240.8 396.9 301.7 398.25 297.85 399.6 294.3 411.7 261.5 421.75 249.9 424.15 247.1 426.45 245.55 434.85 239.2 451.9 239.4 453.05 239.3 454.2 239.4 443.95 207.15 422.35 192.95 Z"/>

<path fill="url(#Gradient_3)" stroke="none" d="
M 410.95 185.7
Q 413.2 183.75 415.2 181.8 437 160.95 440.15 131.7 442.25 109 432.05 88.9 392.25 104.45 325.95 91.95 314 98.45 311.15 114.15 307.8 128.4 296.95 135.75 288.2 117.9 280.9 130.2 278.65 138.85 279.6 147.55 279.95 151.2 280.9 154.85 282.8 165.3 286.9 172.2 289.45 173.95 292 175.55 343.85 208.5 391.35 185.7 427.6 163 434.45 115.35 428.85 167.3 392.55 190 342.75 213.9 291.9 178.5 292.8 179.4 293.85 180.15 292.65 180.6 291.4 180.9 294.5 184.3 297.8 187.2 314.6 202.25 335.1 206.25 359.5 211.1 389.25 200.25 396.35 196.45 402.5 192.2 406.95 189.05 410.95 185.7 Z"/>

<path fill="#5E2011" stroke="none" d="
M 434.4 87.9
Q 433.25 88.4 432.05 88.9 442.25 109 440.15 131.7 437 160.95 415.2 181.8 413.2 183.75 410.95 185.7 406.95 189.05 402.5 192.2 396.35 196.45 389.25 200.25 359.5 211.1 335.1 206.25 314.6 202.25 297.8 187.2 294.5 184.3 291.4 180.9 288.55 181.55 285.65 181.7 289.75 186.75 293.2 189.75 310.9 205.65 332.5 209.9 358.2 215 389.5 203.6 397 199.5 403.5 195.1 408.2 191.75 414.4 188.5 419 189.85 423.4 191.85 437.8 198.4 449.75 212.15 480.75 249.35 478.25 297.6 480.05 322.15 456.85 335.6 434.85 353.25 406.4 364.1 405.2 364.55 404.1 365 402.7 365.5 401.35 365.95 372.6 376 337.55 379.5 254.8 384.65 230.65 351.95 213.85 336.05 225.8 277.6 236.75 225.55 279.8 201.5 283.45 199.4 287.4 197.55 287.55 194.95 287.9 192.35
L 286.4 193.05
Q 281.15 195.5 276.25 198.35 232.35 223.85 221 278.2 208.6 339.75 226 356.6 251.1 391 337.05 385.6 413.45 377.95 461 339.3 485.05 325.15 483.2 299.2 485.8 248.4 453.6 209.15 441.4 194.9 426.8 187.95 422 185.65 416.9 184.15 439.85 162.2 443.1 131.4 445.3 107.5 434.4 87.9 Z"/>

<path fill="#000000" stroke="none" d="
M 433.9 84.4
Q 432.75 84.9 431.55 85.4 391.75 100.95 325.45 88.45 313.5 94.95 310.65 110.65 307.3 124.9 296.45 132.25 287.7 114.4 280.4 126.7 277.7 137.1 279.6 147.55 278.65 138.85 280.9 130.2 288.2 117.9 296.95 135.75 307.8 128.4 311.15 114.15 314 98.45 325.95 91.95 392.25 104.45 432.05 88.9 433.25 88.4 434.4 87.9 441.35 84.95 447.6 81.15 447.3 79.45 446.95 77.75 440.75 81.5 433.9 84.4 Z"/>

<path fill="url(#Gradient_4)" stroke="none" d="
M 431.55 85.4
Q 432.75 84.9 433.9 84.4 440.75 81.5 446.95 77.75 445.1 68.65 441.8 60.45 434.35 45.75 422.35 33.1 390.95 0 346.55 0 302.15 0 270.75 33.1 254.7 50 246.9 70.5 240.25 92.6 239.35 113 239.35 121.45 240.4 129.45 242.85 148.85 251.4 165.7 270.05 182.2 285.65 181.7 288.55 181.55 291.4 180.9 292.65 180.6 293.85 180.15 292.8 179.4 291.9 178.5 291.35 178 290.8 177.45 288.65 175.15 286.9 172.2 282.8 165.3 280.9 154.85 279.95 151.2 279.6 147.55 277.7 137.1 280.4 126.7 287.7 114.4 296.45 132.25 307.3 124.9 310.65 110.65 313.5 94.95 325.45 88.45 391.75 100.95 431.55 85.4 Z"/>
</g>
</defs>

<g transform="matrix( 0.3738250732421875, 0, 0, 0.3736114501953125, -80.7,0) ">
<use xlink:href="#Layer0_0_FILL"/>
</g>
</svg>
