<svg xmlns="http://www.w3.org/2000/svg" xmlns:xlink="http://www.w3.org/1999/xlink" preserveAspectRatio="none" width="299" height="356" viewBox="0 0 299 356"><defs><linearGradient id="a" gradientUnits="userSpaceOnUse" x1="180.55" y1="205.1" x2="180.55" y2="84.5"><stop offset="2.353%" stop-color="#D3A983"/><stop offset="84.314%" stop-color="#F0D2AC"/></linearGradient><linearGradient id="b" gradientUnits="userSpaceOnUse" x1="575.35" y1="100.712" x2="575.35" y2="277.488"><stop offset="37.255%" stop-color="#D07B2B"/><stop offset="64.706%" stop-color="#E4A232"/></linearGradient><linearGradient id="c" gradientUnits="userSpaceOnUse" x1="574.15" y1="214.088" x2="574.15" y2="272.012"><stop offset="20.392%" stop-color="#CC8626"/><stop offset="100%" stop-color="#D69E51" stop-opacity="0"/></linearGradient><linearGradient id="d" gradientUnits="userSpaceOnUse" x1="65.95" y1=".025" x2="65.95" y2="72.475"><stop offset="2.353%" stop-color="#868686"/><stop offset="84.314%" stop-color="#313332"/></linearGradient><filter id="e" x="-100%" y="-100%" width="300%" height="300%" color-interpolation-filters="sRGB"><feGaussianBlur in="SourceGraphic" stdDeviation="7.333333333333333,7.333333333333333" result="result1"/></filter><filter id="i" x="-24.578%" y="-20%" width="149.156%" height="140%" color-interpolation-filters="sRGB"><feGaussianBlur in="SourceGraphic" stdDeviation="1.6666666666666667,1.6666666666666667" result="result1"/></filter><filter id="k" x="-20%" y="-20%" width="140%" height="140%" color-interpolation-filters="sRGB"><feGaussianBlur in="SourceGraphic" stdDeviation="1.6666666666666667,1.6666666666666667" result="result1"/></filter><filter id="m" x="-20%" y="-20%" width="140%" height="140%" color-interpolation-filters="sRGB"><feGaussianBlur in="SourceGraphic" stdDeviation="1.6666666666666667,1.6666666666666667" result="result1"/></filter><g id="f"><path fill="#FFFFFA" d="M181.6 281.6q34.75-30.05 44.95-73.05-20.05 11.2-44.95 11.2-24.45 0-44.25-10.9 7.75 40.45 44.25 72.75z"/><path fill="#E2E2DE" d="M136.6 204q.3 2.35.75 4.85 19.8 10.9 44.25 10.9 24.9 0 44.95-11.2.65-2.65 1.15-5.2-20.5 12-46.1 12-24.95 0-45-11.35z"/><path fill="#BC722B" d="M137.35 208.85q-.45-2.5-.75-4.85-3.3-1.95-6.35-4-1.75-1.2-3.45-2.5-19.9 9.4-36.6 26.1-32.9 32.95-37.1 77.8-.25 2.1-.35 4.3-.35 4.55-.35 9.15v53.45q-.25 4.55 1.25 7.8 2.7 6 11.05 7.7l235.3 1.55q7.25-1.1 9.55-9.25 1.3-4.6 1.05-11.25v-50q0-4.6-.3-9.15-.1-2.2-.3-4.3-4.3-44.85-37.15-77.8-16.8-16.7-36.5-26-1 .7-2.05 1.45-1.85 1.3-3.65 2.5-1.45.85-2.95 1.8-.5 2.55-1.15 5.2-10.2 43-44.95 73.05-36.5-32.3-44.25-72.75z"/><path fill="#C5A17F" d="M224.65 192.7q-1.3.8-2.65 1.75-18.5 10.65-41.45 10.65-22.5 0-40.5-10.2-3-1.65-5.75-3.6-1.55-1.1-3.15-2.2-4.95-3.9-9.7-8.5-16.15-16.2-21.65-36.85-.2-.75-.25-1.45-1.15-4.95-1.8-10.15-4.5 7.25-5.75 14.95 6 23 24.1 41.05 5.1 5.15 10.7 9.35 1.7 1.3 3.45 2.5 3.05 2.05 6.35 4 20.05 11.35 45 11.35 25.6 0 46.1-12 1.5-.95 2.95-1.8 1.8-1.2 3.65-2.5 1.05-.75 2.05-1.45 5.6-4.2 10.8-9.45 17.15-17.15 23.5-38.8-1.6-9.2-7.25-17.9-.75 7.45-2.8 14.3-5.65 19.45-21.1 34.85-4.55 4.75-9.75 8.5-.8.65-1.8 1.35-1.65 1.1-3.3 2.25z"/><path fill="url(#a)" d="M214.95 97.6q-.95.25-2.05.55-49.5 11.75-91.45-10.2-1.4 24.6-15.45 33.9-5 5-8.25 10.3.65 5.2 1.8 10.15.05.7.25 1.45 5.5 20.65 21.65 36.85 4.75 4.6 9.7 8.5 1.6 1.1 3.15 2.2 2.75 1.95 5.75 3.6 18 10.2 40.5 10.2 22.95 0 41.45-10.65 1.35-.95 2.65-1.75 1.65-1.15 3.3-2.25 1-.7 1.8-1.35 5.2-3.75 9.75-8.5 15.45-15.4 21.1-34.85 2.05-6.85 2.8-14.3-3.7-5.85-9.2-11.4-1.5-1.5-3.05-2.95-12.75-15.45-12-32.6-6.05 2.15-12 3.2-17.9 3.15-35.7-3.2 6.9 7.35 23.5 13.1z"/><path fill="#201E1F" d="M212.9 98.15q1.1-.3 2.05-.55-16.6-5.75-23.5-13.1 17.8 6.35 35.7 3.2 5.95-1.05 12-3.2-.75 17.15 12 32.6 1.55 1.45 3.05 2.95 5.5 5.55 9.2 11.4 5.65 8.7 7.25 17.9 3.6-12.5 3.6-26.6 0-38.4-27.1-65.65Q220.1 30 181.6 30q-38.4 0-65.5 27.1Q89 84.35 89 122.75q0 11.9 2.65 22.8.2.75.35 1.55 1.25-7.7 5.75-14.95 3.25-5.3 8.25-10.3 14.05-9.3 15.45-33.9 41.95 21.95 91.45 10.2z"/></g><path fill="url(#b)" d="M694.7 211.1q0-6.5-.6-12.65-3.95-42.3-34.35-73.2-14.6-14.85-31.5-23.45-12.15 52.2-51.9 86.55-42.7-37.65-51.05-87.7-18.75 8.8-34.25 24.6-30.4 30.9-34.3 73.2-.65 6.15-.65 12.65v50.3q-.65 12.1 11.35 14.6l217.45 1.45q7.5-1.2 9.3-10.6.7-3.75.5-8.75v-47z" id="g"/><path fill="url(#c)" d="M686.65 272v-57.9q-115.85 69.65-225.05 0v51.55L686.65 272z" id="h"/><path fill="#D7A26C" d="M6.9 0L0 22q47.05 20.2 33.05 96.4 14.2-39.95 8.25-66.1Q37.05 18.4 6.9 0z" id="j"/><path fill="url(#d)" d="M131.65 72.5q.25-2.7.25-5.55 0-27.75-19.65-47.35Q92.75 0 65 0T17.6 19.6Q4.1 33.15 0 50.6q9.35-2.35 12.45-19.7 24.95 14.6 56.5 12.05-9.85-9.8-12.1-19.65 23.25 14.9 61 7.25-2.35 16.95 13.8 41.95z" id="l"/><path fill="#E6CBAE" d="M65.15 28.5q-1.2-1.2-2.45-2.35Q52.5 13.75 53.1 0q-4.85 1.7-9.65 2.55Q62.3 64.5.4 85.75q-1.8 1.9 4.1 3.75 30.3-4.85 47.2-24.45Q64.35 48.1 65.15 28.5z" id="n"/></defs><use xlink:href="#f" transform="translate(-33 -30)"/><use xlink:href="#g" transform="translate(-427.75 72.75)"/><use xlink:href="#h" transform="translate(-427.75 72.75)"/><use xlink:href="#j" transform="matrix(1.24706 0 0 1.24706 200.15 196.55)" filter="url(#i)"/><use xlink:href="#l" transform="matrix(1.24706 0 0 1.24706 66.85 6.45)" filter="url(#k)"/><use xlink:href="#n" transform="matrix(1.24706 0 0 1.24706 139.55 56.45)" filter="url(#m)"/></svg>