
<svg xmlns="http://www.w3.org/2000/svg" version="1.1" xmlns:xlink="http://www.w3.org/1999/xlink" preserveAspectRatio="none" x="0px" y="0px" width="195px" height="267px" viewBox="0 0 195 267">
<defs>
<g id="Layer0_0_MEMBER_0_FILL">
<path fill="#99CC00" stroke="none" d="
M 216 115
L 57 155 40 382 235 382 216 115 Z"/>
</g>

<g id="Layer0_0_MEMBER_1_FILL">
<path fill="#BA8201" stroke="none" d="
M -66.05 146.4
Q -67.4 143.3 -68.35 139.35 -68.8 137.2 -69.1 134.9 -69.95 127.9 -70.1 127.1 -71.2 122.2 -72.6 117.95 -71.9 125.5 -69.75 140.7 -68.75 147.6 -67.75 154.2
L -63.1 154.2 -63 154
Q -63.8 151.1 -66.05 146.4 Z"/>

<path fill="#CCCCCC" stroke="none" d="
M -82.4 148.6
Q -83.15 149.55 -83.8 151.35 -84.45 153.15 -84.45 153.65 -84.45 153.9 -84.45 154.2
L -79.4 154.2
Q -80.05 152.5 -80.65 151.1 -81.35 149.4 -82 148.1 -82.2 148.3 -82.4 148.6
M -107.4 86.65
L -109.8 97.45
Q -114.6 98.7 -117.8 99.4
L -117.8 99.35 -119.4 99.6
Q -119.95 99.7 -120.5 99.85 -119.8 100.1 -118.8 100.1 -117.65 100.2 -116.2 100
L -114.95 99.85 -115 99.95 -116.15 104.3
Q -116.35 108.7 -117.15 112.65 -114.65 119.2 -113.45 127.5 -104.9 127.4 -100.35 126.55 -98.35 126.2 -96.45 125.6 -93.65 124.65 -91.15 123.2 -83.9 117.6 -74.85 112.05 -73.95 111.45 -72.95 110.85 -72.7 106.9 -72.45 103.6 -74.75 104.1 -79.25 102.1 -82.2 100.8 -86.05 98.45 -89.2 96.5 -92.55 93.15 -99.1 86.5 -106.25 74.3 -106.4 75 -106.5 75.75 -107.1 78.75 -107.3 80.95 -107.6 84.85 -107.4 86.65
M -111.55 36.45
Q -106.75 39.75 -101.85 41.75 -94.55 44.7 -87.05 44.7 -86.35 44.7 -85.7 44.7 -84.15 44.6 -83.2 44.4 -87.15 39.35 -92.75 35.55 -95.4 41.15 -114.35 34.4 -113.05 35.4 -111.55 36.45
M -120.75 28.25
L -120.75 26.35
Q -121.2 26.7 -121.65 27.1 -121.2 27.65 -120.75 28.25 Z"/>

<path fill="#EAEAEA" stroke="none" d="
M -133.9 141.65
Q -133.85 141.7 -133.75 141.75 -136.1 136.3 -137.65 131.35 -137.3 136 -137.2 140.4 -135.15 140.9 -133.9 141.65
M -113.45 127.5
Q -112.95 131 -112.7 134.8 -112.65 135.6 -112.85 142.65 -112.85 142.95 -112.85 143.25 -107.2 142.8 -98.95 142.05 -92.6 141.5 -87.6 141.1 -87.45 141.1 -87.25 141.1 -77.55 140.35 -73.3 140.35 -71.45 140.55 -69.75 140.7 -71.9 125.5 -72.6 117.95 -73 114.05 -73 112.2 -72.95 111.5 -72.95 110.85 -73.95 111.45 -74.85 112.05 -83.9 117.6 -91.15 123.2 -93.65 124.65 -96.45 125.6 -98.35 126.2 -100.35 126.55 -104.9 127.4 -113.45 127.5
M -114.35 34.4
Q -117.35 33.3 -120.7 31.95
L -120.75 31.9 -120.75 28.25
Q -121.2 27.65 -121.65 27.1 -125.15 30.25 -128.6 37.15 -128.55 37.2 -128.55 37.25 -126.05 40.9 -121.05 44.15 -114.3 48.5 -107.7 49.95 -104.35 50.7 -101.05 50.7 -93.25 50.7 -85.7 48.75 -84.55 48.45 -83.45 48.15 -82.25 47.75 -81.05 47.35 -82 45.95 -83 44.65 -83.05 44.5 -83.2 44.4 -84.15 44.6 -85.7 44.7 -86.35 44.7 -87.05 44.7 -94.55 44.7 -101.85 41.75 -106.75 39.75 -111.55 36.45 -113.05 35.4 -114.35 34.4 Z"/>

<path fill="#A07001" stroke="none" d="
M -131.8 145.3
L -132 145.65
Q -130.5 148.75 -127.9 154.2
L -111.7 154.2
Q -112.55 151.1 -112.8 147.35 -116.45 149.8 -120.25 149.9 -123.85 149.95 -127.55 147.75 -129.6 146.5 -131.8 145.3
M -116.15 104.3
L -115 99.95 -114.95 99.85 -116.2 100
Q -117.65 100.2 -118.8 100.1 -119.8 100.1 -120.5 99.85 -121.65 100 -122.6 100.05 -124.45 100.2 -125.15 99.75 -127.15 98.95 -132.05 99.8 -133 100 -134.15 100.2 -136.25 100.65 -138.2 100.5 -137.9 100.7 -137.6 100.85 -134.75 102.85 -132.85 103.8 -132.45 104 -132.1 104.15 -131.35 104.45 -130.75 104.6 -129.6 104.9 -124.3 104.65 -123.35 104.6 -122.2 104.55 -118.6 104.55 -116.15 104.3
M -106.4 12.5
Q -106.55 13.45 -106.55 13.95 -106.55 19.35 -103.2 24.8 -99.5 30.95 -94.35 30.95 -93.85 30.95 -93.35 30.8 -93 30.75 -92.45 30.6
L -92.45 26.7 -88.05 25.5
Q -92.35 24.35 -96.9 22.75 -98.9 22.25 -104.05 19.45 -105.35 16.2 -106.2 11.7 -106.3 12 -106.4 12.5
M -109.8 7.35
Q -109.5 7.6 -109.1 7.6 -108.25 7.6 -107 7 -107.15 5.45 -107.45 3.4 -107.65 3.4 -107.9 3.4 -110.5 3.4 -112.8 -0.2 -112.7 0.8 -112.3 1.6 -111.95 2.35 -111.9 3.8
L -111.9 3.85
Q -111.85 3.95 -111.8 4.2
L -111.75 4.2 -111.9 4.3
Q -111.9 6.5 -112.15 6.85 -112.5 7.85 -114.7 8.9 -114.4 9.5 -113.75 9.75 -113.15 9.95 -112.9 9.95 -111.9 10.35 -111.9 12.35
L -111.9 12.4
Q -111.9 15.25 -115.7 16.25 -116.65 16.55 -117.95 16.65 -118.85 16.75 -119.9 16.75 -120.35 16.75 -120.75 16.7
L -120.75 21.75
Q -120.748828125 21.798828125 -120.7 21.8 -119.65 22.7 -118.85 22.7 -117.2 22.7 -113.75 20.35 -109.8 17.65 -109.8 14.85 -109.8 14 -109.8 7.35
M -76.05 17.2
L -76.05 17
Q -77.9 17.2 -80.65 17.2 -80.65 17.95 -79.7 18.55 -78.9 19 -78.15 19 -77.85 19 -76.45 18.3 -76.25 17.5 -76.05 17.2
M -70.45 5.05
Q -68.6 3.7 -67.85 2.85
L -67.9 2.8
Q -69.75 3.75 -71.55 4.45 -73.65 5.25 -75.4 5.25 -75.75 5.25 -76.75 5.05 -77.85 4.8 -78.15 4.8 -78.5 4.8 -78.85 5.25 -79.1 5.6 -79.1 5.85 -79.1 6.9 -76.3 7.35 -75.15 7.5 -73.5 7.6 -73.45 7.45 -73.4 7.4 -73.3 7.25 -73.15 7.15 -72.5 6.4 -70.45 5.05
M -112.85 -9.25
Q -112.95 -9.1 -113.1 -9 -113.35 -8.8 -113.75 -8.6 -114.25 -8.2 -114.25 -7.3 -114.25 -6.6 -112.95 -4.8 -111.6 -3.05 -110.25 -1.65 -110.4 -2.4 -110.45 -2.85 -110.5 -3.85 -110.5 -4.2 -109.8 -4.45 -109.15 -4.1 -108.95 -3.95 -108.8 -3.85 -108.65 -3.7 -108.4 -3.5
L -108.4 -4.65
Q -108.75 -6.15 -109.15 -7.45 -109.35 -8.15 -109.95 -8.45 -110.55 -8.9 -111.7 -9
L -112.85 -9.35 -112.85 -9.25
M -93.5 -28.7
Q -93.4 -28.6 -93.3 -28.5 -93.2 -28.45 -93 -28.35 -92.1 -27.4 -92.1 -26.7 -92.1 -25.45 -94.05 -24.3 -96.1 -23.05 -98.2 -23.25 -98.2 -23.1 -97.9 -22.55 -97.75 -22.05 -97.75 -21.4 -97.75 -19.85 -99.45 -18.85 -100.7 -18.2 -101.45 -18.2 -98.5 -15.7 -98.3 -15.5 -97.25 -14.2 -97.25 -11.3
L -97.2 -11.15 -97.3 -11.1
Q -97.45 -10.4 -98.35 -9.6 -98.55 -9.35 -99.95 -8.15 -99.95 -8.1 -100 -8 -100.05 -7.9 -100.1 -7.7 -99.65 -7 -99.25 -6.25 -98.95 -5.6 -98.95 -5.3 -98.95 -2.8 -99.9 -1.65 -100.65 -0.75 -101.55 -0.75 -103.95 -0.75 -104.8 -3.5 -105.35 -5.6 -104.9 -7.75 -105.2 -8.2 -105.35 -8.7 -106.3 -10.95 -108.05 -13.2 -108.9 -12.7 -109.75 -12.7 -111.1 -12.7 -111.35 -12.85 -111.7 -13.15 -112 -14.5
L -115.5 -14.5
Q -115.5 -13.5 -115.9 -11.85 -116.35 -10.15 -116.35 -9.7 -116.35 -9.2 -116.25 -8.65 -115.8 -9.6 -115.45 -10.15 -114.65 -11.5 -113.4 -11.5 -112.3 -11.5 -111.9 -10.4 -111.55 -9.25 -110.4 -9.25 -110.15 -9.25 -109.1 -9.7 -108.2 -10.1 -107.65 -9.9 -107.55 -9.4 -107.2 -7 -106.9 -4.45 -106.5 -2.95 -105.25 2.25 -102.15 2.25 -100.9 2.25 -99.6 0.95 -98.25 -0.6 -97.6 -1.2 -96.45 -2.25 -95.05 -3.15 -93.3 -4.3 -91.9 -4.95 -90.6 -5.65 -88.35 -6.5 -86 -7.3 -85.95 -7.35 -86.75 -8.35 -86.75 -9.65 -86.75 -11.15 -85.65 -12.25 -84.55 -13.3 -83 -13.3 -82.65 -13.3 -82.35 -13.25 -81.95 -12.8 -81.75 -12.25 -81.25 -11.85 -81.25 -11.1 -81.25 -11 -81.15 -10.9 -80.95 -10.1 -81 -9.25 -81 -8.8 -81.15 -8.35 -79.35 -8.4 -77.6 -7.9 -76.3 -7.4 -73.6 -5.1 -75.4 -7.4 -76.4 -8.95 -77.35 -10.75 -78.45 -14.25 -78.7 -15.05 -79.05 -15.65
L -93.4 -15.65 -93.4 -15.7
Q -95.15 -15.6 -97.15 -16.4 -97.35 -17.05 -97.35 -17.5 -97.35 -18.2 -96.25 -19.95 -94.85 -22.15 -93.65 -22.15 -92.3 -22.15 -90.8 -23 -88.9 -24.2 -88.9 -25.95 -85.9 -25.95 -84.5 -26.25 -84 -25.3 -83.6 -24.85 -82.75 -23.9 -81.4 -23.9 -80.1 -23.9 -77.55 -25 -74.7 -26.35 -74.35 -27.85 -74.35 -27.95 -74.35 -28.05
L -74.25 -28.1
Q -74.8 -29.5 -75.4 -30.1 -75.75 -30.45 -76.05 -30.55 -75.8 -30.55 -75.7 -30.55 -75.75 -30.75 -75.75 -30.85 -76.05 -30.95 -76.25 -31.05 -76.1 -30.85 -76.1 -30.55
L -76.1 -30.5
Q -75.75 -29.35 -76.85 -28.4 -77.95 -27.35 -79.55 -27.35 -81.3 -27.35 -81.75 -27.55 -83.1 -28.25 -82.35 -30.55 -83 -28.95 -84.35 -28.5 -84.9 -28.3 -86.3 -28.3 -87.7 -28.3 -89.3 -28.95 -89.55 -29.1 -93.85 -28.95 -93.65 -28.85 -93.5 -28.7
M -96.45 -11.8
Q -96.45 -11.75 -96.4 -11.65 -96.45 -11.6 -96.6 -11.45 -96.5 -11.65 -96.45 -11.8 Z"/>

<path fill="#FFFFFF" stroke="none" d="
M -132 145.65
Q -132.1 145.35 -132.25 145.05 -133.05 143.35 -133.75 141.75 -133.85 141.7 -133.9 141.65 -135.15 140.9 -137.2 140.4 -137 144.45 -137 148.25 -137 148.9 -137.35 154.2
L -127.9 154.2
Q -130.5 148.75 -132 145.65
M -112.85 143.25
Q -112.95 145.35 -112.8 147.35 -112.55 151.1 -111.7 154.2
L -84.45 154.2
Q -84.45 153.9 -84.45 153.65 -84.45 153.15 -83.8 151.35 -83.15 149.55 -82.4 148.6 -82.2 148.3 -82 148.1 -81.35 149.4 -80.65 151.1 -80.05 152.5 -79.4 154.2
L -67.75 154.2
Q -68.75 147.6 -69.75 140.7 -71.45 140.55 -73.3 140.35 -77.55 140.35 -87.25 141.1 -87.45 141.1 -87.6 141.1 -92.6 141.5 -98.95 142.05 -107.2 142.8 -112.85 143.25
M -81.05 47.35
Q -82.25 47.75 -83.45 48.15 -84.55 48.45 -85.7 48.75 -93.25 50.7 -101.05 50.7 -104.35 50.7 -107.7 49.95 -114.3 48.5 -121.05 44.15 -126.05 40.9 -128.55 37.25
L -128.8 37.5
Q -135.7 48 -138.35 59.8 -138.5 60.05 -138.6 60.2 -139.1 60.9 -140.5 63.7 -140.85 65.5 -141.2 67.3 -143.85 84.05 -140.05 99.05 -140 99.25 -139.9 99.4 -140.05 99.35 -140.1 99.4 -140.15 99.35 -140.2 99.3 -140.8 99.05 -141.35 98.8 -141.25 99.15 -141.15 99.55 -141.1 99.75 -141.05 99.9 -140.1 100.2 -139.1 100.4 -138.65 100.45 -138.2 100.5 -136.25 100.65 -134.15 100.2 -133 100 -132.05 99.8 -131.95 99.35 -131.8 98.9 -130.9 95.75 -129.3 92.55 -126.65 87.15 -122.85 83.4 -123 83.7 -122.2 83.8 -123.6 90.15 -123.35 94.65 -123.2 96.35 -122.75 98.95 -122.7 99.45 -122.6 100.05 -121.65 100 -120.5 99.85 -119.95 99.7 -119.4 99.6
L -117.8 99.35 -117.8 99.4
Q -114.6 98.7 -109.8 97.45
L -107.4 86.65
Q -107.6 84.85 -107.3 80.95 -107.1 78.75 -106.5 75.75 -106.4 75 -106.25 74.3 -99.1 86.5 -92.55 93.15 -89.2 96.5 -86.05 98.45 -82.2 100.8 -79.25 102.1 -74.75 104.1 -72.45 103.6 -71.55 89.3 -71.55 87.85 -71.55 61.95 -81.05 47.35
M -81.25 -11.1
Q -81.25 -11.85 -81.75 -12.25 -82.15 -12.65 -83.1 -12.6 -84.9 -12.45 -84.9 -10.75 -84.9 -10.4 -84.5 -9.75 -83.9 -9 -83.1 -9 -81.95 -9 -81.4 -9.9 -81.15 -10.75 -81.15 -10.8 -81.15 -10.85 -81.15 -10.9 -81.25 -11 -81.25 -11.1 Z"/>

<path fill="#D0D0D0" stroke="none" d="
M -139.9 99.4
Q -140 99.25 -140.05 99.05
L -140.2 99.3
Q -140.15 99.35 -140.1 99.4 -140.05 99.35 -139.9 99.4
M -141.2 67.3
Q -140.85 65.5 -140.5 63.7 -141.05 65.2 -141.85 67.15
L -141.2 67.3 Z"/>

<path fill="#CC9900" stroke="none" d="
M -117.15 112.65
Q -116.35 108.7 -116.15 104.3 -118.6 104.55 -122.2 104.55 -123.35 104.6 -124.3 104.65 -129.6 104.9 -130.75 104.6 -131.35 104.45 -132.1 104.15 -132.45 104 -132.85 103.8 -134.75 102.85 -137.6 100.85 -137.9 100.7 -138.2 100.5 -138.65 100.45 -139.1 100.4 -140.1 100.2 -141.05 99.9 -141.15 99.9 -141.25 99.95 -143.45 112.15 -141.55 120.7 -140.95 123.4 -139.3 125.1 -138.7 128.1 -137.65 131.35 -136.1 136.3 -133.75 141.75 -133.05 143.35 -132.25 145.05 -132.1 145.35 -132 145.65
L -131.8 145.3
Q -129.6 146.5 -127.55 147.75 -123.85 149.95 -120.25 149.9 -116.45 149.8 -112.8 147.35 -112.95 145.35 -112.85 143.25 -112.85 142.95 -112.85 142.65 -112.65 135.6 -112.7 134.8 -112.95 131 -113.45 127.5 -114.65 119.2 -117.15 112.65
M -84.5 -26.25
Q -85.9 -25.95 -88.9 -25.95 -88.9 -24.2 -90.8 -23 -92.3 -22.15 -93.65 -22.15 -94.85 -22.15 -96.25 -19.95 -97.35 -18.2 -97.35 -17.5 -97.35 -17.05 -97.15 -16.4 -95.15 -15.6 -93.4 -15.7
L -93.4 -18.5 -77.95 -19 -77.95 -15.65 -79.05 -15.65
Q -78.7 -15.05 -78.45 -14.25 -77.35 -10.75 -76.4 -8.95 -75.4 -7.4 -73.6 -5.1 -76.3 -7.4 -77.6 -7.9 -79.35 -8.4 -81.15 -8.35 -81.45 -7.15 -82.35 -5.95 -82.65 -5.9 -83 -5.9 -84.55 -5.9 -85.65 -7 -85.85 -7.2 -85.95 -7.35 -86 -7.3 -88.35 -6.5 -90.6 -5.65 -91.9 -4.95 -93.3 -4.3 -95.05 -3.15 -96.45 -2.25 -97.6 -1.2 -98.25 -0.6 -99.6 0.95 -100.9 2.25 -102.15 2.25 -105.25 2.25 -106.5 -2.95 -106.9 -4.45 -107.2 -7 -107.55 -9.4 -107.65 -9.9 -108.2 -10.1 -109.1 -9.7 -110.15 -9.25 -110.4 -9.25 -111.55 -9.25 -111.9 -10.4 -112.3 -11.5 -113.4 -11.5 -114.65 -11.5 -115.45 -10.15 -115.8 -9.6 -116.25 -8.65 -116 -6.65 -114.85 -3.95 -114.4 -3.1 -113.95 -2.15 -113.65 -1.55 -113.3 -1.05 -113.65 -0.9 -113.2 -0.8 -113.05 -0.75 -112.85 -0.75 -112.85 -0.4 -112.8 -0.2 -110.5 3.4 -107.9 3.4 -107.65 3.4 -107.45 3.4 -107.15 5.45 -107 7 -108.25 7.6 -109.1 7.6 -109.5 7.6 -109.8 7.35 -109.8 14 -109.8 14.85 -109.8 17.65 -113.75 20.35 -117.2 22.7 -118.85 22.7 -119.65 22.7 -120.7 21.8
L -120.75 21.8 -120.75 26.35 -120.75 28.25 -120.75 31.9 -120.7 31.95
Q -117.35 33.3 -114.35 34.4 -95.4 41.15 -92.75 35.55 -92.25 34.5 -92.35 33 -92.4 32.7 -92.45 32.35
L -92.45 30.6
Q -93 30.75 -93.35 30.8 -93.85 30.95 -94.35 30.95 -99.5 30.95 -103.2 24.8 -106.55 19.35 -106.55 13.95 -106.55 13.45 -106.4 12.5 -106.3 12 -106.2 11.7 -105.35 16.2 -104.05 19.45 -98.9 22.25 -96.9 22.75 -92.35 24.35 -88.05 25.5 -84.55 26.4 -81.25 26.95 -79.65 26.55 -78.35 25.6 -78.25 25.55 -78.2 25.5 -77.85 25.2 -77.7 25 -77.7 24.95 -76.85 23.85 -76.75 23.7 -76.65 23.55
L -76.45 22.45
Q -76.6 19.7 -76.45 18.3 -77.85 19 -78.15 19 -78.9 19 -79.7 18.55 -80.65 17.95 -80.65 17.2 -77.9 17.2 -76.05 17
L -76.05 17.2
Q -76 17.2 -76 17.15 -75.85 16.85 -75.75 16.75 -75.35 16.05 -75.2 15.15 -75.05 14.35 -75.05 13.1 -76.05 13.4 -77.75 13.25 -79.35 13.1 -80.15 12.85 -80.9 12.7 -82.6 12.25 -84.2 11.85 -85.65 9.4 -84.2 11.85 -82.6 12.25 -80.9 12.7 -80.15 12.85 -79.35 13.1 -77.75 13.25 -76.05 13.4 -75.05 13.1
L -74.85 13.1
Q -74.8 13 -74.7 12.95 -74.5 12.8 -74.25 12.4 -73.6 11.8 -73.6 11.6 -73.6 11.3 -73.9 10.7 -74.1 10 -74.3 9.35 -74.35 8.7 -73.5 7.6 -75.15 7.5 -76.3 7.35 -79.1 6.9 -79.1 5.85 -79.1 5.6 -78.85 5.25 -78.5 4.8 -78.15 4.8 -77.85 4.8 -76.75 5.05 -75.75 5.25 -75.4 5.25 -73.65 5.25 -71.55 4.45 -69.75 3.75 -67.9 2.8 -67.8 2.75 -67.7 2.75 -67.6 2.55 -67.45 2.35 -66.6 1.2 -66.6 -0.3 -66.6 -1.2 -67.85 -2.35 -69.6 -3.75 -70.65 -4.6 -74.65 -7.95 -74.65 -12.15 -74.65 -14.5 -74.05 -15.4 -73 -17.15 -72.5 -18.65 -72.4 -18.85 -72.3 -19.15 -72.1 -19.75 -72.15 -20.3 -72.2 -21.3 -73.4 -25.6 -73.8 -27.05 -74.25 -28.1
L -74.35 -28.05
Q -74.35 -27.95 -74.35 -27.85 -74.7 -26.35 -77.55 -25 -80.1 -23.9 -81.4 -23.9 -82.75 -23.9 -83.6 -24.85 -84 -25.3 -84.5 -26.25
M -113.1 -9
Q -112.95 -9.1 -112.85 -9.25
L -112.85 -9.35 -111.7 -9
Q -110.55 -8.9 -109.95 -8.45 -109.35 -8.15 -109.15 -7.45 -108.75 -6.15 -108.4 -4.65
L -108.4 -3.5
Q -108.65 -3.7 -108.8 -3.85 -108.95 -3.95 -109.15 -4.1 -109.8 -4.45 -110.5 -4.2 -110.5 -3.85 -110.45 -2.85 -110.4 -2.4 -110.25 -1.65 -111.6 -3.05 -112.95 -4.8 -114.25 -6.6 -114.25 -7.3 -114.25 -8.2 -113.75 -8.6 -113.35 -8.8 -113.1 -9 Z"/>

<path fill="#E1E1E1" stroke="none" d="
M -129.3 92.55
Q -130.9 95.75 -131.8 98.9 -131.95 99.35 -132.05 99.8 -127.15 98.95 -125.15 99.75 -124.45 100.2 -122.6 100.05 -122.7 99.45 -122.75 98.95 -123.2 96.35 -123.35 94.65 -123.6 90.15 -122.2 83.8 -123 83.7 -122.85 83.4 -126.65 87.15 -129.3 92.55 Z"/>

<path fill="#F7F7F7" stroke="none" d="
M -146.85 80.15
Q -147.45 81.2 -147.55 81.2
L -148.8 92.7
Q -149.4 92.3 -147 94.2 -146.95 94.2 -146.85 94.25
L -146.7 94.4
Q -146.65 94.45 -146.7 94.5
L -146.7 94.55
Q -146.25 94.8 -146 95.05 -145.05 95.9 -144.05 96.8 -142.8 97.9 -141.35 98.8 -140.8 99.05 -140.2 99.3
L -140.05 99.05
Q -143.85 84.05 -141.2 67.3
L -141.85 67.15
Q -144.3 72.95 -145.25 75.75 -146.15 78.5 -146.85 80.15 Z"/>

<path fill="#663300" stroke="none" d="
M -93.4 -15.7
L -93.4 -15.65 -79.05 -15.65 -77.95 -15.65 -77.95 -19 -93.4 -18.5 -93.4 -15.7
M -126.7 -43.9
Q -123.65 -42.55 -122.45 -42.55 -121.15 -42.55 -120.35 -43.2 -119.4 -44 -119.4 -45.65 -119.4 -46.2 -119.55 -46.6 -119.85 -45.7 -119.85 -45.3 -120.9 -45.65 -122.4 -45.9 -123.85 -46.2 -124.75 -46.2 -126.7 -46.2 -127.35 -45.15 -127.45 -44.85 -127.75 -44.35 -127.15 -44.1 -126.7 -43.9
M -95.95 -53.05
L -95.95 -52.9
Q -95.8 -51.5 -93.3 -48.65 -90.7 -45.7 -89.1 -45.7 -88.85 -45.7 -87.95 -46 -87 -46.2 -86.7 -46.2 -85.7 -46.2 -85.25 -45.45 -85 -45.15 -84.5 -43.8 -83.7 -41.4 -81.3 -41.4 -80.85 -41.4 -80.15 -41.9 -79.55 -42.35 -79.3 -42.95 -79.35 -43 -79.5 -43.05 -80.1 -43.6 -80.65 -44.8 -81.85 -47.1 -82.35 -47.55 -83.15 -48.4 -86.1 -48.65 -89 -49 -89.85 -49.85 -91.6 -51.7 -93.4 -52.5 -94.5 -52.95 -95.95 -53.05
M -107.85 -54
Q -108.75 -54 -110.1 -52.2 -109.7 -51.55 -108.85 -50.8 -107.35 -49.5 -107 -49.15
L -104.75 -51.9
Q -105.65 -52.1 -106.55 -52.9 -107.3 -53.45 -107.85 -54
M -112.3 -49.85
Q -112.9 -49.85 -114.65 -50.35 -116.45 -50.85 -117.05 -50.85 -117.95 -50.85 -118.9 -48.6 -117.25 -47.4 -115.05 -47.4 -113.75 -47.4 -113.1 -47.8 -112.25 -48.45 -112.2 -49.85
L -112.3 -49.85 Z"/>

<path fill="#000000" stroke="none" d="
M -82.35 -13.25
Q -82.65 -13.3 -83 -13.3 -84.55 -13.3 -85.65 -12.25 -86.75 -11.15 -86.75 -9.65 -86.75 -8.35 -85.95 -7.35 -85.85 -7.2 -85.65 -7 -84.55 -5.9 -83 -5.9 -82.65 -5.9 -82.35 -5.95 -81.45 -7.15 -81.15 -8.35 -81 -8.8 -81 -9.25 -80.95 -10.1 -81.15 -10.9 -81.15 -10.85 -81.15 -10.8 -81.15 -10.75 -81.4 -9.9 -81.95 -9 -83.1 -9 -83.9 -9 -84.5 -9.75 -84.9 -10.4 -84.9 -10.75 -84.9 -12.45 -83.1 -12.6 -82.15 -12.65 -81.75 -12.25 -81.95 -12.8 -82.35 -13.25
M -93.3 -28.5
Q -93.3 -28.45 -93.25 -28.35
L -93 -28.35
Q -93.2 -28.45 -93.3 -28.5 Z"/>

<path fill="#331A00" stroke="none" d="
M -93.2 -28.3
L -93 -28.35 -93.25 -28.35
Q -93.2 -28.3484375 -93.2 -28.3 Z"/>

<path fill="#1A0000" stroke="none" d="
M -126.7 -19.85
Q -128.1 -17 -130.7 -17 -131.4 -17 -131.85 -17.3 -132.15 -17.4 -133 -17.95 -133.85 -16.7 -134.9 -16.2 -135.85 -15.65 -137.4 -15.65 -138.7 -15.65 -140.05 -17.2 -139.85 -14.3 -138.45 -11.95 -137.6 -10.65 -136.85 -9.45 -136.85 -8.75 -137.5 -7.35 -138.25 -6 -138.25 -5.3 -138.25 -1.4 -137.05 0.3 -135.8 2.25 -132.1 3.4 -133.15 5.45 -129.55 7.75 -126.3 9.85 -123.2 9.85 -124.05 10.35 -124.1 10.45 -124.15 10.65 -124.15 11.9 -124.15 14.15 -123.2 15.35 -122.35 16.45 -120.75 16.7 -120.35 16.75 -119.9 16.75 -118.85 16.75 -117.95 16.65 -116.65 16.55 -115.7 16.25 -111.9 15.25 -111.9 12.4
L -111.9 12.35
Q -111.9 10.35 -112.9 9.95 -113.15 9.95 -113.75 9.75 -114.4 9.5 -114.7 8.9 -112.5 7.85 -112.15 6.85 -111.9 6.5 -111.9 4.3 -111.9 4.25 -111.9 4.2 -111.9 4.1 -111.9 3.85
L -111.9 3.8
Q -111.95 2.35 -112.3 1.6 -112.7 0.8 -112.8 -0.2 -112.95 -0.45 -113.2 -0.8 -113.65 -0.9 -113.3 -1.05 -113.65 -1.55 -113.95 -2.15 -114.4 -3.1 -114.85 -3.95 -116 -6.65 -116.25 -8.65 -116.35 -9.2 -116.35 -9.7 -116.35 -10.15 -115.9 -11.85 -115.5 -13.5 -115.5 -14.5
L -112 -14.5
Q -111.7 -13.15 -111.35 -12.85 -111.1 -12.7 -109.75 -12.7 -108.9 -12.7 -108.05 -13.2 -106.3 -14.8 -106.6 -14.45 -106.9 -14.05 -107.35 -13.7 -107.65 -13.4 -108.05 -13.2 -106.3 -10.95 -105.35 -8.7 -105.2 -8.2 -104.9 -7.75 -105.35 -5.6 -104.8 -3.5 -103.95 -0.75 -101.55 -0.75 -100.65 -0.75 -99.9 -1.65 -98.95 -2.8 -98.95 -5.3 -98.95 -5.6 -99.25 -6.25 -99.65 -7 -100.1 -7.7 -100.05 -7.9 -100 -8 -99.95 -8.1 -99.95 -8.15 -98.55 -9.35 -98.35 -9.6 -97.45 -10.4 -97.3 -11.1 -97.25 -11.2 -97.25 -11.3 -97.25 -14.2 -98.3 -15.5 -98.5 -15.7 -101.45 -18.2 -100.7 -18.2 -99.45 -18.85 -97.75 -19.85 -97.75 -21.4 -97.75 -22.05 -97.9 -22.55 -98.2 -23.1 -98.2 -23.25 -96.1 -23.05 -94.05 -24.3 -92.1 -25.45 -92.1 -26.7 -92.1 -27.4 -93 -28.35
L -93.2 -28.3
Q -93.15 -28.05 -93.15 -27.85 -93.15 -26.55 -96.15 -25.05 -99 -23.7 -100.7 -23.7 -102.55 -23.7 -104.7 -25 -105.6 -25.55 -106.4 -26.2
L -106.4 -26.1
Q -106.3 -25.85 -106.3 -25.55 -106.3 -24.3 -107.95 -23.45 -109.3 -22.8 -110.5 -22.8 -112.4 -22.8 -112.7 -22.9 -113.3 -23.35 -113.6 -25.55 -113.75 -25.55 -113.75 -25.75
L -114.25 -25.75
Q -114.25 -23.5 -115.85 -22 -117.7 -20.25 -121.3 -20.25 -123.75 -20.25 -124.5 -21.75 -125 -23.85 -125.55 -25.05 -125.5 -22.2 -126.7 -19.85 Z"/>

<path fill="#330000" stroke="none" d="
M -112.2 -49.9
L -112.2 -49.85
Q -112.25 -48.45 -113.1 -47.8 -113.75 -47.4 -115.05 -47.4 -117.25 -47.4 -118.9 -48.6 -118.95 -48.4 -119 -48.1 -119.35 -47.3 -119.55 -46.6 -119.4 -46.2 -119.4 -45.65 -119.4 -44 -120.35 -43.2 -121.15 -42.55 -122.45 -42.55 -123.65 -42.55 -126.7 -43.9 -127.15 -44.1 -127.75 -44.35 -128.15 -43.6 -128.65 -42.35 -129.5 -40.45 -130.95 -40.4 -132.55 -40.4 -131.85 -39.6 -131.15 -38.85 -131.6 -38.4 -131.8 -38.1 -132.8 -35.75 -133.8 -33.4 -133.9 -33.35 -135.15 -32.45 -136.85 -29.45 -140 -28.2 -140.05 -28.1 -141.05 -27.45 -141.05 -25.05 -141.05 -23.5 -140.9 -23.1 -140.6 -22.25 -138.65 -19.55 -140.05 -18.65 -140.05 -18.2 -140.05 -17.7 -140.05 -17.2 -138.7 -15.65 -137.4 -15.65 -135.85 -15.65 -134.9 -16.2 -133.85 -16.7 -133 -17.95 -132.15 -17.4 -131.85 -17.3 -131.4 -17 -130.7 -17 -128.1 -17 -126.7 -19.85 -125.5 -22.2 -125.55 -25.05 -125 -23.85 -124.5 -21.75 -123.75 -20.25 -121.3 -20.25 -117.7 -20.25 -115.85 -22 -114.25 -23.5 -114.25 -25.75
L -113.75 -25.75
Q -113.75 -25.55 -113.6 -25.55 -113.3 -23.35 -112.7 -22.9 -112.4 -22.8 -110.5 -22.8 -109.3 -22.8 -107.95 -23.45 -106.3 -24.3 -106.3 -25.55 -106.3 -25.85 -106.4 -26.1 -106.45 -26.2 -106.45 -26.25 -106.6 -26.35 -106.75 -26.45
L -106.55 -26.45
Q -106.55 -26.35 -106.45 -26.25
L -106.4 -26.2
Q -105.6 -25.55 -104.7 -25 -102.55 -23.7 -100.7 -23.7 -99 -23.7 -96.15 -25.05 -93.15 -26.55 -93.15 -27.85 -93.15 -28.05 -93.2 -28.3 -93.2 -28.3484375 -93.25 -28.35 -93.3 -28.45 -93.3 -28.5 -93.4 -28.6 -93.5 -28.7 -93.65 -28.85 -93.85 -28.95 -89.55 -29.1 -89.3 -28.95 -87.7 -28.3 -86.3 -28.3 -84.9 -28.3 -84.35 -28.5 -83 -28.95 -82.35 -30.55 -83.1 -28.25 -81.75 -27.55 -81.3 -27.35 -79.55 -27.35 -77.95 -27.35 -76.85 -28.4 -75.75 -29.35 -76.1 -30.5
L -76.1 -30.55
Q -76.1 -30.85 -76.25 -31.05 -76.05 -30.95 -75.75 -30.85 -75.35 -30.75 -74.7 -30.6 -73.1 -30.85 -73.45 -31.5
L -72.5 -31.5
Q -72.6 -31.6 -72.65 -31.85 -72.7 -31.85 -72.7 -31.9 -73.9 -34.65 -73.9 -36.35 -73.9 -38.8 -75.75 -40.65 -77.15 -42.05 -78.6 -42.55 -78.95 -42.6 -79.3 -42.95 -79.55 -42.35 -80.15 -41.9 -80.85 -41.4 -81.3 -41.4 -83.7 -41.4 -84.5 -43.8 -85 -45.15 -85.25 -45.45 -85.7 -46.2 -86.7 -46.2 -87 -46.2 -87.95 -46 -88.85 -45.7 -89.1 -45.7 -90.7 -45.7 -93.3 -48.65 -95.8 -51.5 -95.95 -52.9
L -95.95 -53.05
Q -96.45 -53.1 -97.05 -53.1 -99.05 -53.1 -101.35 -52.4 -102.6 -52.05 -103.6 -51.7 -104.2 -51.7 -104.75 -51.9
L -107 -49.15
Q -107.35 -49.5 -108.85 -50.8 -109.7 -51.55 -110.1 -52.2 -110.15 -52.05 -110.2 -51.95 -111.45 -50.1 -112.2 -49.9 Z"/>

<path fill="#432101" stroke="none" d="
M -112.2 -49.85
L -112.2 -49.9
Q -112.2484375 -49.8515625 -112.3 -49.85
L -112.2 -49.85 Z"/>
</g>

<path id="Layer0_0_MEMBER_0_1_STROKES" stroke="#8CA8B8" stroke-opacity="0.14901960784313725" stroke-width="1" stroke-linejoin="round" stroke-linecap="round" fill="none" d="
M 216 115
L 235 382 40 382 57 155 216 115 Z"/>

<path id="Layer0_0_MEMBER_1_1_STROKES" stroke="#999999" stroke-width="1" stroke-linejoin="round" stroke-linecap="round" fill="none" d="
M -74.7 12.95
Q -74.8 13 -74.85 13.1
L -75.05 13.1
M -96.45 -11.8
Q -96.5 -11.65 -96.6 -11.45 -96.45 -11.6 -96.4 -11.65"/>

<path id="Layer0_0_MEMBER_1_2_STROKES" stroke="#9999FF" stroke-width="1" stroke-linejoin="round" stroke-linecap="round" fill="none" d="
M -79.5 -43.05
Q -79.35 -43 -79.3 -42.95"/>

<path id="Layer0_0_MEMBER_1_3_STROKES" stroke="#CCCCCC" stroke-width="1" stroke-linejoin="round" stroke-linecap="round" fill="none" d="
M -75.75 -30.85
Q -75.75 -30.75 -75.7 -30.55 -75.55 -30.4 -75.4 -30.1
M -78.35 25.6
Q -79.65 26.55 -81.25 26.95
M -92.45 32.35
Q -92.4 32.7 -92.35 33
M -120.75 21.8
L -120.75 21.75 -120.75 16.7
M -120.7 31.95
L -120.75 31.9"/>

<path id="Layer0_0_MEMBER_1_4_STROKES" stroke="#996600" stroke-width="1" stroke-linejoin="round" stroke-linecap="round" fill="none" d="
M -75.05 13.1
Q -76.05 13.4 -77.75 13.25 -79.35 13.1 -80.15 12.85 -80.9 12.7 -82.6 12.25 -84.2 11.85 -85.65 9.4"/>
</defs>

<g transform="matrix( 1, 0, 0, 1, -40,-115) ">
<use xlink:href="#Layer0_0_MEMBER_0_FILL"/>

<use xlink:href="#Layer0_0_MEMBER_0_1_STROKES"/>
</g>

<g transform="matrix( 1, 0, 0, 1, 207.2,112.8) ">
<use xlink:href="#Layer0_0_MEMBER_1_FILL"/>

<use xlink:href="#Layer0_0_MEMBER_1_1_STROKES"/>

<use xlink:href="#Layer0_0_MEMBER_1_2_STROKES"/>

<use xlink:href="#Layer0_0_MEMBER_1_3_STROKES"/>

<use xlink:href="#Layer0_0_MEMBER_1_4_STROKES"/>
</g>
</svg>
