<svg xmlns="http://www.w3.org/2000/svg" xmlns:xlink="http://www.w3.org/1999/xlink" preserveAspectRatio="none" width="100" height="136" viewBox="0 0 100 136"><defs><radialGradient id="a" gradientUnits="userSpaceOnUse" cx="0" cy="0" r="242.125" fx="0" fy="0" gradientTransform="translate(557.55 187.25)" spreadMethod="pad"><stop offset="0%" stop-color="#6593F5"/><stop offset="100%" stop-color="#092C66"/></radialGradient><linearGradient id="b" gradientUnits="userSpaceOnUse" x1="472.438" y1="128.188" x2="437.663" y2="260.012"><stop offset="0%" stop-color="#C0B5B3"/><stop offset="46.275%" stop-color="#E6E8E7"/></linearGradient><linearGradient id="c" gradientUnits="userSpaceOnUse" x1="418.313" y1="142.6" x2="369.587" y2="324.2"><stop offset="0%" stop-color="#12600C"/><stop offset="100%" stop-color="#073302"/></linearGradient><linearGradient id="d" gradientUnits="userSpaceOnUse" x1="434.45" y1="124.125" x2="428.55" y2="146.075"><stop offset="0%" stop-color="#12600C"/><stop offset="100%" stop-color="#073302"/></linearGradient><radialGradient id="e" gradientUnits="userSpaceOnUse" cx="0" cy="0" r="228.962" fx="0" fy="0" gradientTransform="translate(562.65 216.35)" spreadMethod="pad"><stop offset="0%" stop-color="#6593F5"/><stop offset="100%" stop-color="#092C66"/></radialGradient><linearGradient id="f" gradientUnits="userSpaceOnUse" x1="401.012" y1="114.863" x2="367.787" y2="240.938"><stop offset="0%" stop-color="#C0B5B3"/><stop offset="46.275%" stop-color="#E6E8E7"/></linearGradient><radialGradient id="g" gradientUnits="userSpaceOnUse" cx="0" cy="0" r="149.875" fx="0" fy="0" gradientTransform="translate(491.4 -9.7)" spreadMethod="pad"><stop offset="15.294%" stop-color="#EAC79D"/><stop offset="100%" stop-color="#923B10"/></radialGradient><radialGradient id="h" gradientUnits="userSpaceOnUse" cx="0" cy="0" r="163.55" fx="0" fy="0" gradientTransform="translate(493.6 -75.15)" spreadMethod="pad"><stop offset="2.353%" stop-color="#55504C"/><stop offset="67.843%" stop-color="#292522"/></radialGradient><g id="i"><path fill="url(#a)" d="M371.05 341.3q4.85 2.1 9.9 4 1.65.65 3.1 1.2 1.95.7 3.8 1.35 23.25 8.1 49.55 13.05 17.75 3.35 36.95 5.3 54.45 3.45 90.2-5.3 37.95-9.2 54.8-32.05 22.75-21.6 6.55-100.9-12.95-61.55-59.05-94.25l-26 97.2-62.65-3.85 36.5 15.45-5.1 3.35 5.1 3.2-143.65 92.25z"/><path fill="url(#b)" d="M469.6 164L458 130.5l-30.55 15.35L415 254q45.6-60.75 95.25-115.85L469.6 164z"/><path fill="url(#c)" d="M427.45 145.85l-13.8-4.4-48.05 99q-1.3 35-.15 74.9.05 3.9.2 7.85 24.1-35.5 49.35-69.2l12.45-108.15z"/><path fill="url(#d)" d="M445.2 129.35q-6.85-1.05-13.25-2.8-11.1-2.95-21.8-8.75l3.5 23.65 13.8 4.4L458 130.5q-6.55-.3-12.8-1.15z"/><path fill="url(#e)" d="M336.6 190.9l31.9-83.25q-5.4 1.7-10.6 4-19.5 8.95-35.7 27.55-42.1 50.45-38.65 115.95-2.5 33.3 29 51.55 22.15 17.75 49.1 30.45L326.4 201.1l34.9-2.95-24.7-7.25m216.1-66.15q-4.45-2.55-19.65-11.4-11.55 12.2-22.8 24.8Q460.6 193.25 415 254q-25.25 33.7-49.35 69.2-.15-3.95-.2-7.85l-3.65 21.8q2.1 1 4.4 2.05l143.4-93.35 5.1-3.35-36.5-15.45-6.4-2.7 64.7 2.9 26.65-96.1q-5-3.35-10.45-6.4z"/><path fill="#1A4CAD" d="M383.9 99.75l-12.4 8.15q-.65-.35-1.4-.75l-1.6.5-31.9 83.25 24.7 7.25-34.9 2.95 35.25 136.05h.15l3.65-21.8q-1.15-39.9.15-74.9 2.25-66.25 13.1-114.95 2.45-11.2 7.15-24-1-.9-1.95-1.75z"/><path fill="#FFF" d="M378.7 125.5l6.6 10.15 21.75-19.1q-11.05-6.1-21.05-14.9-.05-.1-.15-.15-4.7 12.8-7.15 24m154.35-12.15q-1.75-1-3.55-2.1-.3.2-.65.4-.35.25-.65.45-10.55 6.7-22.75 11.2-5 1.9-10.25 3.25-.5.15-1.1.3l-1.95.5q-1 .25-1.95.45-12.8 2.75-26.7 2.75-2.75 0-5.5-.05l11.6 33.5 40.65-25.85q11.25-12.6 22.8-24.8z"/><path fill="url(#f)" d="M385.3 135.65l-6.6-10.15q-10.85 48.7-13.1 114.95l48.05-99-3.5-23.65q-1.3-.25-3.1-1.25l-21.75 19.1z"/><path fill="#05245B" d="M564.9 125.1q-3.65-2.4-7.4-4.55-6.6-3.9-22.25-13.4-2.8 2.15-5.75 4.1 1.8 1.1 3.55 2.1 15.2 8.85 19.65 11.4 5.45 3.05 10.45 6.4l-26.65 96.1-64.7-2.9 6.4 2.7 62.65 3.85 26-97.2q46.1 32.7 59.05 94.25 16.2 79.3-6.55 100.9-16.85 22.85-54.8 32.05-35.75 8.75-90.2 5.3-19.2-1.95-36.95-5.3-26.3-4.95-49.55-13.05-1.85-.65-3.8-1.35-1.45-.55-3.1-1.2-5.05-1.9-9.9-4l143.65-92.25-5.1-3.2-143.4 93.35q-2.3-1.05-4.4-2.05h-.15q-26.95-12.7-49.1-30.45-31.5-18.25-29-51.55-3.45-65.5 38.65-115.95 16.2-18.6 35.7-27.55 5.2-2.3 10.6-4l1.6-.5q.75.4 1.4.75l12.4-8.15q-.65-.6-1.2-1.15-.7-.6-1.25-1.15h-.1q-21.55 5.85-28.05 9-19.85 9.35-36.35 28.7-43.65 53.2-40.2 122.1-2.45 35.25 30.2 54.45Q331 331.25 360.5 345q20.05 9.3 42.75 15.9 33.15 9.75 71.8 13.6 76.25 4.75 117.25-13.6 21.6-9.65 33.35-25.8 23.55-22.8 6.8-106.25-14-66.75-63.9-101.35-1.85-1.2-3.65-2.4z"/><path d="M567.75 20.8V15q-14.1 4.05-19.65 18.15h-15.25V39h15.25q5.55-14.1 19.65-18.2m23.6-13.15q-.05-1.65-.2-3.35-3.65 34.05-14.7 55.75h-8.7v5.85h8.7q11.4-22.55 14.9-58.25m-225.7-57.5l-.2-.2q-1.3-1.3-2.2-2.7-.05-.05-.05-.15-.1 0-.1-.05-.35-.6-.55-1.1-.6.95-1.15 1.95.2 2.5 1.7 4.95 0 .05.1.05 0 .1.05.15.9 1.4 2.2 2.7.05.1.2.25 7.15 7.3 26.25 14.65 71.8 14.5 132.9-3.4 7.05-4.5 8.1 1.5 1.55-13.45-8.1-7.3-61.1 17.85-132.9 3.4-19.1-7.35-26.25-14.7z"/><path fill="url(#g)" d="M391.9-29.35Q372.8-36.7 365.65-44q-.15-.15-.2-.25-15.7 25.65-15.7 57.7 0 21.4 7.2 39.8 6.75 18.35 20.4 34 .75.85 1.6 1.8 1.9 2.15 4 4.15l.1.1.35.35q1.95 1.95 4 3.8v.05q6.2 5.65 12.95 10.25 4.7 3.35 9.75 6.1 4.2 2.35 8.55 4.2 17.65 7.65 38 8.65 3.2.15 6.5.15 21.3 0 39.75-7.1 23.7-11.1 34-20.5.9-.8 1.75-1.6.3-.3.65-.6l2.1-1.95q.7-.75 1.4-1.45 16.7-16.85 24.95-37.15V20.8q-14.1 4.1-19.65 18.2h-15.25v-64q.5-3.9.05-6.25-1.05-6-8.1-1.5-61.1 17.9-132.9 3.4z"/><path fill="#461D00" d="M349.8-16.35L347-1.55q-.9 7.55-.9 15.45 0 3.2.15 6.35.8 11.6 4.1 23.6.35 1.45.8 3 .65 2.25 1.35 4.25 9.15 27.3 29.1 46.35 1.15 1.05 2.4 2.25.95.8 1.95 1.65 8.65 7.5 19.2 13.6 1.1.65 2.25 1.3 1.6.85 3.2 1.65 10.55 5.5 21.35 8.65 6.4 1.75 13.25 2.8 6.25.85 12.8 1.15 2.75.05 5.5.05 13.9 0 26.7-2.75.95-.2 1.95-.45l1.95-.5q.6-.15 1.1-.3 5.25-1.35 10.25-3.25 12.2-4.5 22.75-11.2.3-.2.65-.45.35-.2.65-.4 2.95-1.95 5.75-4.1 14.3-11 24.95-26.75 2.5-3.75 4.85-7.85 1.9-3.35 3.65-6.65h-.95V57.95q-8.3 19.25-24.45 35.25l-1.9 1.9-2.1 1.95q-.35.3-.65.6-.85.8-1.75 1.6-10.3 9.4-34 20.5-18.45 7.1-39.75 7.1-3.3 0-6.5-.15-20.35-1-38-8.65-4.35-1.85-8.55-4.2-5.05-2.75-9.75-6.1-6.75-4.6-12.95-10.25v-.05q-2.05-1.85-4-3.8l-.35-.35-.1-.1q-2.1-2-4-4.15-.85-.95-1.6-1.8-13.65-15.65-20.4-34-7.2-18.4-7.2-39.8 0-32.05 15.7-57.7-1.3-1.3-2.2-2.7-.05-.05-.05-.15-.75 1.2-1.4 2.35-4 7-7.05 14.05l-4.95 14.35z"/><path fill="url(#h)" d="M365.45-50.05l.2.2q7.15 7.35 26.25 14.7 71.8 14.45 132.9-3.4 9.65-6.15 8.1 7.3.45 2.35-.05 6.25v58.15h15.25q5.55-14.1 19.65-18.15V60.05h8.7q11.05-21.7 14.7-55.75-4.1-47.45-35.75-82.35Q519.1-118 467.8-118t-87.65 39.95q-10.25 11.35-17.6 24 .2.5.55 1.1 0 .05.1.05 0 .1.05.15.9 1.4 2.2 2.7z"/></g><path fill="#CE7F54" d="M545.55 75q-3.2 2.35-6.4 4.45-65.25 43.55-125 13.4-45.6-30-54.2-93 7.05 68.7 52.7 98.7 62.65 31.6 126.6-15.2.7-.65 1.4-1.4 2.7-3.05 4.9-6.95z" id="j"/></defs><use xlink:href="#i" transform="matrix(.27556 0 0 .2756 -76.2 32.5)"/><use xlink:href="#j" transform="matrix(.27556 0 0 .2756 -76.2 32.5)"/></svg>