<svg xmlns="http://www.w3.org/2000/svg" xmlns:xlink="http://www.w3.org/1999/xlink" preserveAspectRatio="none" width="98" height="123" viewBox="0 0 98 123"><defs><g id="a"><path fill="#A07001" d="M305.6 225.85q.15 1.35.6 2.35.45 1.05.55 2.95v.1q.1.15.2.4l.05.05-.25.15q0 2.9-.25 3.45-.55 1.25-3.45 2.65.5.8 1.25 1.15.85.2 1.2.35 1.25.4 1.25 3.1v.05q0 3.85-4.9 5.2-1.3.35-3 .5-1.2.1-2.55.1-.65 0-1.15-.05v6.8q1.5 1.2 2.5 1.2 2.2 0 6.65-3.05 5.25-3.65 5.25-7.35V235.9q.4.25.9.25 1.15 0 2.8-.7-.25-2.1-.65-4.85h-.55q-3.4 0-6.45-4.75m26.75 41.1v-5.25l5.85-1.55q-5.7-1.55-11.7-3.75-2.6-.65-9.45-4.35-1.65-4.4-2.8-10.35-.1.4-.2 1.1-.2 1.25-.2 1.9 0 7.2 4.3 14.4 4.95 8.3 11.75 8.3.6 0 1.25-.2.4-.1 1.2-.25m21.6-17.95v-.2q-2.55.2-6.15.2.05 1.1 1.3 1.85 1.05.6 2.05.6.4 0 2.3-.95.15-1.05.5-1.5m10.75-19.1l-.1-.1q-2.35 1.3-4.75 2.2-2.9 1.05-5.15 1.05-.4 0-1.75-.3-1.4-.3-1.8-.3-.5 0-.9.6-.3.5-.3.8 0 1.5 3.6 2.05 1.55.2 3.75.25l.1-.2q.15-.2.3-.35.9-1 3.5-2.8 2.5-1.8 3.5-2.9m-54.3-13.8q-.25-.85-1-1.35-.85-.55-2.35-.7l-1.5-.4v.1q-.2.15-.35.3-.35.3-.85.55-.65.55-.65 1.75 0 .95 1.75 3.35 1.7 2.35 3.45 4.15-.1-.95-.15-1.65-.15-1.3-.15-1.7.9-.4 1.75.15.25.15.5.35.25.2.55.4v-1.5q-.45-2-1-3.8m20.8-28.1q.15.1.35.3 1.25 1.15 1.25 2.15 0 1.65-2.55 3.2-2.7 1.65-5.45 1.4 0 .2.3.9t.3 1.55q0 2.1-2.25 3.4-1.6.9-2.65.9 3.95 3.35 4.1 3.55 1.45 1.8 1.45 5.65l.1.2-.15.15q-.2.8-1.4 2-.25.2-2.15 1.85 0 .05-.05.1l-.1.5q.55.85 1 1.9.5 1 .5 1.25 0 3.35-1.25 4.95-.9 1.2-2.15 1.2-3.2 0-4.25-3.75-.75-2.7-.2-5.65-.3-.55-.6-1.15-1.3-3.1-3.55-6.05-1.1.65-2.2.65-1.8 0-2.05-.2-.5-.35-.9-2.25H302q0 1.35-.5 3.55-.55 2.25-.55 2.9 0 .65.1 1.4.6-1.25 1-2 1.15-1.85 2.7-1.85 1.45 0 2 1.55.55 1.5 2 1.5.4 0 1.7-.55 1.2-.55 1.85-.35.2.65.65 3.85.4 3.4.95 5.45 1.7 6.95 5.65 6.95 1.7 0 3.35-1.7 1.8-2.1 2.7-2.9 1.55-1.45 3.35-2.6 2.35-1.6 4.1-2.45 1.75-.9 4.75-2.05t3.05-1.15q-1.05-1.3-1.05-3 0-2.05 1.5-3.55 1.4-1.4 3.5-1.4.4 0 .8.05.5.7.9 1.35.6.55.65 1.65.35 1.2.25 2.4 0 .6-.2 1.25 2.35-.2 4.65.55 1.7.65 5.2 3.75-2.35-3.15-3.55-5.15-1.3-2.4-2.75-7.05-1.45-4.7-5.8-4.7t-12.05 2.35q-3.05.9-6.7-.6-.3-.85-.3-1.4 0-.95 1.5-3.35 1.75-2.8 3.4-2.8 1.8 0 3.7-1.25 2.5-1.55 2.5-3.95 4 0 5.85-.3.6 1.25 1.15 1.8 1.1 1.25 2.85 1.25t5.05-1.5q3.85-1.7 4.2-3.7v-.3l.2-.1q-.75-1.9-1.6-2.7-.4-.4-.75-.6h.45q-.1-.2-.15-.35-.35-.15-.6-.25.15.35.2.65.45 1.65-1 2.9-1.45 1.35-3.55 1.35-2.3 0-2.9-.3-1.8-.85-.8-4-.8 2.2-2.6 2.8-.75.25-2.6.25t-3.9-.85q-.4-.15-6 0 .25.15.45.35.15.1.25.2m-4 22.55q-.15.1-.35.2.1-.2.25-.35v-.05l.1.2z"/><path fill="#630" d="M286 166.85q.75.35 1.45.65 3.9 1.8 5.45 1.8 1.7 0 2.75-.9 1.25-1.05 1.25-3.2 0-.8-.2-1.35-.35 1.2-.35 1.8-1.4-.45-3.35-.85-1.95-.4-3.1-.4-2.55 0-3.35 1.45-.25.35-.55 1m24.75-8.5q2.05 1.7 2.5 2.1l3-3.55q-1.25-.4-2.4-1.35-.95-.8-1.75-1.55-1.2 0-2.9 2.4.45.9 1.55 1.95m-4.3 1.2l-.2-.05q-.8 0-3.1-.6t-3.1-.6q-1.2 0-2.4 2.95 2.1 1.65 4.95 1.65 1.75 0 2.6-.65 1.2-.8 1.25-2.7m43.1 9.2l-.15-.15q-.8-.8-1.6-2.3-1.55-3.1-2.2-3.7-1.05-1.05-4.9-1.45-3.8-.45-4.95-1.65-2.35-2.45-4.7-3.45-1.4-.6-3.3-.75v.25q.25 1.85 3.45 5.55 3.45 3.95 5.5 3.95.35 0 1.6-.35 1.2-.3 1.6-.3 1.3 0 2 1.05.25.4.85 2.2 1.1 3.2 4.25 3.2.65 0 1.5-.65t1.05-1.45z"/><path fill="#432101" d="M306.45 159.5h-.2l.2.05v-.05z"/><path fill="#FFF" d="M346.5 209.7q-.65-.5-1.8-.45-2.45.2-2.45 2.45 0 .55.55 1.3.8 1.05 1.9 1.05 1.5 0 2.15-1.2.3-1.15.3-1.25v-.25q-.05-1.1-.65-1.65z"/><path d="M345.6 208.35q-.4-.05-.8-.05-2.1 0-3.5 1.4-1.5 1.5-1.5 3.55 0 1.7 1.05 3 .2.25.45.45 1.4 1.45 3.5 1.45.4 0 .8-.05 1.2-1.55 1.6-3.1.2-.65.2-1.25.1-1.2-.25-2.4v.25q0 .1-.3 1.25-.65 1.2-2.15 1.2-1.1 0-1.9-1.05-.55-.75-.55-1.3 0-2.25 2.45-2.45 1.15-.05 1.8.45-.4-.65-.9-1.35m-14.25-20.1l.2.05q-.2-.2-.35-.3.1.1.15.25z"/><path fill="#C90" d="M337 191.4q0 2.4-2.5 3.95-1.9 1.25-3.7 1.25-1.65 0-3.4 2.8-1.5 2.4-1.5 3.35 0 .55.3 1.4 3.65 1.5 6.7.6 7.7-2.35 12.05-2.35 4.35 0 5.8 4.7 1.45 4.65 2.75 7.05 1.2 2 3.55 5.15-3.5-3.1-5.2-3.75-2.3-.75-4.65-.55-.4 1.55-1.6 3.1-.4.05-.8.05-2.1 0-3.5-1.45-.25-.2-.45-.45-.05 0-3.05 1.15t-4.75 2.05q-1.75.85-4.1 2.45-1.8 1.15-3.35 2.6-.9.8-2.7 2.9-1.65 1.7-3.35 1.7-3.95 0-5.65-6.95-.55-2.05-.95-5.45-.45-3.2-.65-3.85-.65-.2-1.85.35-1.3.55-1.7.55-1.45 0-2-1.5-.55-1.55-2-1.55-1.55 0-2.7 1.85-.4.75-1 2 .35 2.65 1.9 6.25.5 1.15 1.2 2.5.35.75.75 1.4-.45.15.15.3.2.05.5.1 0 .35.05.75 3.05 4.75 6.45 4.75h.55q.4 2.75.65 4.85-1.65.7-2.8.7-.5 0-.9-.25v10.05q0 3.7-5.25 7.35-4.45 3.05-6.65 3.05-1 0-2.5-1.2v13.5q38.05 15.75 37.3 1.45-.05-.4-.1-.85v-2.3q-.8.15-1.2.25-.65.2-1.25.2-6.8 0-11.75-8.3-4.3-7.2-4.3-14.4 0-.65.2-1.9.1-.7.2-1.1 1.15 5.95 2.8 10.35 6.85 3.7 9.45 4.35 6 2.2 11.7 3.75 4.5 1.2 8.9 1.95 2.05-.55 3.8-1.8.1-.1.2-.15.45-.5.65-.7.05 0 1.1-1.6.15-.15.25-.3l.35-1.55q-.3-3.65 0-5.5-1.9.95-2.3.95-1 0-2.05-.6-1.25-.75-1.3-1.85 3.6 0 6.15-.2v.2q.05 0 .05-.05.1-.4.35-.55.45-.9.7-2.15.15-1 .15-2.65-1.25.35-3.45.15-2.25-.25-3.25-.5-.95-.3-3.15-.8t-4.1-3.8q1.9 3.3 4.1 3.8 2.2.5 3.15.8 1 .25 3.25.5 2.2.2 3.45-.15v-.1h.25q.05-.05.25-.15.2-.2.6-.7.75-.8.75-1.15 0-.35-.3-1.15-.35-.85-.5-1.75-.15-.95 1.05-2.45-2.2-.05-3.75-.25-3.6-.55-3.6-2.05 0-.3.3-.8.4-.6.9-.6.4 0 1.8.3 1.35.3 1.75.3 2.25 0 5.15-1.05 2.4-.9 4.75-2.2.15-.05.25-.1.15-.2.3-.45 1.15-1.6 1.15-3.55 0-1.2-1.65-2.75-2.3-1.85-3.6-3-5.25-4.5-5.25-10 0-3.2.7-4.45 1.35-2.3 2.1-4.25l.2-.7q.35-.85.25-1.55-.05-1.35-1.65-7.1-.5-2-1.1-3.35l-.2.1v.3q-.35 2-4.2 3.7-3.3 1.5-5.05 1.5T344 192.9q-.55-.55-1.15-1.8-1.85.3-5.85.3m-27.6 23.35q.75.5 1 1.35.55 1.8 1 3.8v1.5q-.3-.2-.55-.4-.25-.2-.5-.35-.85-.55-1.75-.15 0 .4.15 1.7.05.7.15 1.65-1.75-1.8-3.45-4.15-1.75-2.4-1.75-3.35 0-1.2.65-1.75.5-.25.85-.55.15-.15.35-.3v-.1l1.5.4q1.5.15 2.35.7m8.25 29.2h-.2l-.1-.05.75.05h-.45m9.45-33.55l.1.15-.1-.2v.05z"/><path fill="#1A0000" d="M331.55 188.3h-.2q.1.25.1.65 0 1.65-4 3.65-3.7 1.85-5.9 1.85-2.5 0-5.3-1.75-1.15-.7-2.2-1.55l-.05.05q.15.35.15.8 0 1.6-2.15 2.75-1.8.95-3.4.95-2.5 0-2.85-.25-.85-.55-1.15-3.45-.3 0-.3-.3h-.6q0 3.05-2.1 5-2.45 2.35-7.15 2.35-3.25 0-4.2-1.95-.7-2.8-1.4-4.45.05 3.9-1.45 6.9-1.85 3.8-5.3 3.8-.95 0-1.5-.3-.4-.25-1.6-.95-1.05 1.65-2.45 2.35-1.3.75-3.25.75-1.75 0-3.5-2.05.25 3.8 2.1 6.95 1.1 1.8 2.15 3.35 0 .9-.9 2.75-.95 1.85-.95 2.75 0 5.25 1.55 7.6 1.65 2.55 6.5 4.05-1.4 2.8 3.3 5.8 4.35 2.8 8.4 2.8-1.05.65-1.15.85-.05.2-.05 1.9 0 3 1.2 4.6 1.1 1.5 3.2 1.8.5.05 1.15.05 1.35 0 2.55-.1 1.7-.15 3-.5 4.9-1.35 4.9-5.2v-.05q0-2.7-1.25-3.1-.35-.15-1.2-.35-.75-.35-1.25-1.15 2.9-1.4 3.45-2.65.25-.55.25-3.45v-.2-.5q-.1-1.9-.55-2.95-.45-1-.6-2.35-.25-.4-.55-.85-.6-.15-.15-.3-.4-.65-.75-1.4-.7-1.35-1.2-2.5-1.55-3.6-1.9-6.25-.1-.75-.1-1.4 0-.65.55-2.9.5-2.2.5-3.55h4.65q.4 1.9.9 2.25.25.2 2.05.2 1.1 0 2.2-.65 2.25 2.95 3.55 6.05.3.6.6 1.15-.55 2.95.2 5.65 1.05 3.75 4.25 3.75 1.25 0 2.15-1.2 1.25-1.6 1.25-4.95 0-.25-.5-1.25-.45-1.05-1-1.9l.1-.5q.05-.05.05-.1 1.9-1.65 2.15-1.85 1.2-1.2 1.4-2 .05-.2.05-.35 0-3.85-1.45-5.65-.15-.2-4.1-3.55 1.05 0 2.65-.9 2.25-1.3 2.25-3.4 0-.85-.3-1.55-.3-.7-.3-.9 2.75.25 5.45-1.4 2.55-1.55 2.55-3.2 0-1-1.25-2.15m-19.7 20.15q2.3-2.1 1.95-1.7-.45.55-1.05 1.05-.45.4-.9.65z"/><path fill="#331A00" d="M331.35 188.25v.05h.2l-.2-.05z"/><path fill="#300" d="M350.55 169.3q-.5-.15-1-.55-.2.8-1.05 1.45-.85.65-1.5.65-3.15 0-4.25-3.2-.6-1.8-.85-2.2-.7-1.05-2-1.05-.4 0-1.6.3-1.25.35-1.6.35-2.05 0-5.5-3.95-3.2-3.7-3.45-5.55v-.25q-.7-.1-1.45-.1-2.65 0-5.7.95-1.55.45-2.95.9-.7 0-1.4-.15l-3 3.55q-.45-.4-2.5-2.1-1.1-1.05-1.55-1.95-.1.15-.2.35-1.6 2.45-2.55 2.75v.05q-.05 1.9-1.25 2.7-.85.65-2.6.65-2.85 0-4.95-1.65-.1.25-.25.55-.4 1.2-.7 2.05.2.55.2 1.35 0 2.15-1.25 3.2-1.05.9-2.75.9-1.55 0-5.45-1.8-.7-.3-1.45-.65-.55 1.05-1.25 2.7-1.05 2.6-3.05 2.6-2 .05-1.1 1.05.9 1 .35 1.65-.35.3-1.65 3.5-1.3 3.15-1.45 3.25-1.65 1.2-3.8 5.15-4.15 1.7-4.3 1.75-1.25.95-1.25 4.1 0 2.15.2 2.65.4 1.15 2.9 4.7-1.85 1.25-1.85 1.85 0 .7.05 1.35 1.75 2.05 3.5 2.05 1.95 0 3.25-.75 1.4-.7 2.45-2.35 1.2.7 1.6.95.55.3 1.5.3 3.45 0 5.3-3.8 1.5-3 1.45-6.9.7 1.65 1.4 4.45.95 1.95 4.2 1.95 4.7 0 7.15-2.35 2.1-1.95 2.1-5h.6q0 .3.3.3.3 2.9 1.15 3.45.35.25 2.85.25 1.6 0 3.4-.95 2.15-1.15 2.15-2.75 0-.45-.15-.8 0-.048-.05-.1-.2-.15-.4-.35h.3q0 .1.1.35.052.05.1.05 1.05.85 2.2 1.55 2.8 1.75 5.3 1.75 2.2 0 5.9-1.85 4-2 4-3.65 0-.4-.1-.65v-.05q-.05-.15-.15-.25-.1-.1-.25-.2-.2-.2-.45-.35 5.6-.15 6 0 2.05.85 3.9.85t2.6-.25q1.8-.6 2.6-2.8-1 3.15.8 4 .6.3 2.9.3 2.1 0 3.55-1.35 1.45-1.25 1-2.9-.05-.3-.2-.65.25.1.6.25.6.15 1.45.3 2.05-.25 1.65-1.15h1.25q-.2-.2-.25-.4-.05-.1-.1-.15-1.5-3.7-1.5-5.9 0-3.3-2.5-5.85-1.8-1.8-3.7-2.45M345 183.4q-.05 0-.25.05.2-.05.25-.05z"/></g><path fill="#630" d="M351.55 205.1v-4.45l-20.3.6v3.85h20.3z" id="f"/><path id="b" stroke="#99F" stroke-linejoin="round" stroke-linecap="round" fill="none" d="M349.55 168.75l-.15-.15"/><path id="c" stroke="#999" stroke-linejoin="round" stroke-linecap="round" fill="none" d="M355.7 243.35q-.2.1-.25.15-.1.05-.25.1M345 183.4q-.05 0-.25.05M327.1 210.4q-.15.15-.25.35.2-.1.35-.2m28.25 32.95h-.25v.1m-37.85.3l.1.05"/><path id="d" stroke="#CCC" stroke-linejoin="round" stroke-linecap="round" fill="none" d="M354.25 184.9q.05.15.15.35l.3.6m-3.8 74.45q-1.75 1.25-3.8 1.8m-14.75 7.15q.05.45.1.85m-37.3-1.45v.45m0-20.75v6.8"/><path id="e" stroke="#960" stroke-linejoin="round" stroke-linecap="round" fill="none" d="M355.2 243.6q-1.25.35-3.45.15-2.25-.25-3.25-.5-.95-.3-3.15-.8t-4.1-3.8"/></defs><g transform="translate(-268.5 -154)"><use xlink:href="#a"/><use xlink:href="#b"/><use xlink:href="#c"/><use xlink:href="#d"/><use xlink:href="#e"/></g><use xlink:href="#f" transform="translate(-268.5 -154)"/></svg>