<svg xmlns="http://www.w3.org/2000/svg" xmlns:xlink="http://www.w3.org/1999/xlink" preserveAspectRatio="none" width="195" height="267" viewBox="0 0 195 267"><defs><path fill="#9C0" d="M216 115L57 155 40 382h195l-19-267z" id="a"/><g id="c"><path fill="#BA8201" d="M-66.05 146.4q-1.35-3.1-2.3-7.05-.45-2.15-.75-4.45-.85-7-1-7.8-1.1-4.9-2.5-9.15.7 7.55 2.85 22.75 1 6.9 2 13.5h4.65l.1-.2q-.8-2.9-3.05-7.6z"/><path fill="#CCC" d="M-82.4 148.6q-.75.95-1.4 2.75-.65 1.8-.65 2.3v.55h5.05q-.65-1.7-1.25-3.1-.7-1.7-1.35-3-.2.2-.4.5m-25-61.95l-2.4 10.8q-4.8 1.25-8 1.95v-.05l-1.6.25q-.55.1-1.1.25.7.25 1.7.25 1.15.1 2.6-.1l1.25-.15-.05.1-1.15 4.35q-.2 4.4-1 8.35 2.5 6.55 3.7 14.85 8.55-.1 13.1-.95 2-.35 3.9-.95 2.8-.95 5.3-2.4 7.25-5.6 16.3-11.15.9-.6 1.9-1.2.25-3.95.5-7.25-2.3.5-6.8-1.5-2.95-1.3-6.8-3.65-3.15-1.95-6.5-5.3-6.55-6.65-13.7-18.85-.15.7-.25 1.45-.6 3-.8 5.2-.3 3.9-.1 5.7m-4.15-50.2q4.8 3.3 9.7 5.3 7.3 2.95 14.8 2.95h1.35q1.55-.1 2.5-.3-3.95-5.05-9.55-8.85-2.65 5.6-21.6-1.15 1.3 1 2.8 2.05m-9.2-8.2v-1.9q-.45.35-.9.75.45.55.9 1.15z"/><path fill="#EAEAEA" d="M-133.9 141.65q.05.05.15.1-2.35-5.45-3.9-10.4.35 4.65.45 9.05 2.05.5 3.3 1.25m20.45-14.15q.5 3.5.75 7.3.05.8-.15 7.85v.6q5.65-.45 13.9-1.2 6.35-.55 11.35-.95h.35q9.7-.75 13.95-.75 1.85.2 3.55.35-2.15-15.2-2.85-22.75-.4-3.9-.4-5.75.05-.7.05-1.35-1 .6-1.9 1.2-9.05 5.55-16.3 11.15-2.5 1.45-5.3 2.4-1.9.6-3.9.95-4.55.85-13.1.95m-.9-93.1q-3-1.1-6.35-2.45l-.05-.05v-3.65q-.45-.6-.9-1.15-3.5 3.15-6.95 10.05.05.05.05.1 2.5 3.65 7.5 6.9 6.75 4.35 13.35 5.8 3.35.75 6.65.75 7.8 0 15.35-1.95 1.15-.3 2.25-.6l2.4-.8q-.95-1.4-1.95-2.7-.05-.15-.2-.25-.95.2-2.5.3h-1.35q-7.5 0-14.8-2.95-4.9-2-9.7-5.3-1.5-1.05-2.8-2.05z"/><path fill="#A07001" d="M-131.8 145.3l-.2.35q1.5 3.1 4.1 8.55h16.2q-.85-3.1-1.1-6.85-3.65 2.45-7.45 2.55-3.6.05-7.3-2.15-2.05-1.25-4.25-2.45m15.65-41l1.15-4.35.05-.1-1.25.15q-1.45.2-2.6.1-1 0-1.7-.25-1.15.15-2.1.2-1.85.15-2.55-.3-2-.8-6.9.05-.95.2-2.1.4-2.1.45-4.05.3.3.2.6.35 2.85 2 4.75 2.95.4.2.75.35.75.3 1.35.45 1.15.3 6.45.05.95-.05 2.1-.1 3.6 0 6.05-.25m9.75-91.8q-.15.95-.15 1.45 0 5.4 3.35 10.85 3.7 6.15 8.85 6.15.5 0 1-.15.35-.05.9-.2v-3.9l4.4-1.2q-4.3-1.15-8.85-2.75-2-.5-7.15-3.3-1.3-3.25-2.15-7.75-.1.3-.2.8m-3.4-5.15q.3.25.7.25.85 0 2.1-.6-.15-1.55-.45-3.6h-.45q-2.6 0-4.9-3.6.1 1 .5 1.8.35.75.4 2.2v.05q.05.1.1.35h.05l-.15.1q0 2.2-.25 2.55-.35 1-2.55 2.05.3.6.95.85.6.2.85.2 1 .4 1 2.4v.05q0 2.85-3.8 3.85-.95.3-2.25.4-.9.1-1.95.1-.45 0-.85-.05v5.05q0 .05.05.05 1.05.9 1.85.9 1.65 0 5.1-2.35 3.95-2.7 3.95-5.5v-7.5m33.75 9.85V17q-1.85.2-4.6.2 0 .75.95 1.35.8.45 1.55.45.3 0 1.7-.7.2-.8.4-1.1m5.6-12.15q1.85-1.35 2.6-2.2l-.05-.05q-1.85.95-3.65 1.65-2.1.8-3.85.8-.35 0-1.35-.2-1.1-.25-1.4-.25-.35 0-.7.45-.25.35-.25.6 0 1.05 2.8 1.5 1.15.15 2.8.25.05-.15.1-.2.1-.15.25-.25.65-.75 2.7-2.1m-42.4-14.3q-.1.15-.25.25-.25.2-.65.4-.5.4-.5 1.3 0 .7 1.3 2.5 1.35 1.75 2.7 3.15-.15-.75-.2-1.2-.05-1-.05-1.35.7-.25 1.35.1.2.15.35.25.15.15.4.35v-1.15q-.35-1.5-.75-2.8-.2-.7-.8-1-.6-.45-1.75-.55l-1.15-.35v.1M-93.5-28.7l.2.2.3.15q.9.95.9 1.65 0 1.25-1.95 2.4-2.05 1.25-4.15 1.05 0 .15.3.7.15.5.15 1.15 0 1.55-1.7 2.55-1.25.65-2 .65 2.95 2.5 3.15 2.7 1.05 1.3 1.05 4.2l.05.15-.1.05q-.15.7-1.05 1.5-.2.25-1.6 1.45 0 .05-.05.15-.05.1-.1.3.45.7.85 1.45.3.65.3.95 0 2.5-.95 3.65-.75.9-1.65.9-2.4 0-3.25-2.75-.55-2.1-.1-4.25-.3-.45-.45-.95-.95-2.25-2.7-4.5-.85.5-1.7.5-1.35 0-1.6-.15-.35-.3-.65-1.65h-3.5q0 1-.4 2.65-.45 1.7-.45 2.15 0 .5.1 1.05.45-.95.8-1.5.8-1.35 2.05-1.35 1.1 0 1.5 1.1.35 1.15 1.5 1.15.25 0 1.3-.45.9-.4 1.45-.2.1.5.45 2.9.3 2.55.7 4.05 1.25 5.2 4.35 5.2 1.25 0 2.55-1.3 1.35-1.55 2-2.15 1.15-1.05 2.55-1.95 1.75-1.15 3.15-1.8 1.3-.7 3.55-1.55 2.35-.8 2.4-.85-.8-1-.8-2.3 0-1.5 1.1-2.6 1.1-1.05 2.65-1.05.35 0 .65.05.4.45.6 1 .5.4.5 1.15 0 .1.1.2.2.8.15 1.65 0 .45-.15.9 1.8-.05 3.55.45 1.3.5 4 2.8-1.8-2.3-2.8-3.85-.95-1.8-2.05-5.3-.25-.8-.6-1.4H-93.4v-.05q-1.75.1-3.75-.7-.2-.65-.2-1.1 0-.7 1.1-2.45 1.4-2.2 2.6-2.2 1.35 0 2.85-.85 1.9-1.2 1.9-2.95 3 0 4.4-.3.5.95.9 1.4.85.95 2.2.95 1.3 0 3.85-1.1 2.85-1.35 3.2-2.85v-.2l.1-.05q-.55-1.4-1.15-2-.35-.35-.65-.45h.35q-.05-.2-.05-.3-.3-.1-.5-.2.15.2.15.5v.05q.35 1.15-.75 2.1-1.1 1.05-2.7 1.05-1.75 0-2.2-.2-1.35-.7-.6-3-.65 1.6-2 2.05-.55.2-1.95.2t-3-.65q-.25-.15-4.55 0 .2.1.35.25m-2.95 16.9q0 .05.05.15l-.2.2q.1-.2.15-.35z"/><path fill="#FFF" d="M-132 145.65q-.1-.3-.25-.6-.8-1.7-1.5-3.3-.1-.05-.15-.1-1.25-.75-3.3-1.25.2 4.05.2 7.85 0 .65-.35 5.95h9.45q-2.6-5.45-4.1-8.55m19.15-2.4q-.1 2.1.05 4.1.25 3.75 1.1 6.85h27.25v-.55q0-.5.65-2.3.65-1.8 1.4-2.75.2-.3.4-.5.65 1.3 1.35 3 .6 1.4 1.25 3.1h11.65q-1-6.6-2-13.5-1.7-.15-3.55-.35-4.25 0-13.95.75h-.35q-5 .4-11.35.95-8.25.75-13.9 1.2m31.8-95.9l-2.4.8q-1.1.3-2.25.6-7.55 1.95-15.35 1.95-3.3 0-6.65-.75-6.6-1.45-13.35-5.8-5-3.25-7.5-6.9l-.25.25q-6.9 10.5-9.55 22.3-.15.25-.25.4-.5.7-1.9 3.5l-.7 3.6q-2.65 16.75 1.15 31.75.05.2.15.35-.15-.05-.2 0l-.1-.1q-.6-.25-1.15-.5.1.35.2.75.05.2.1.35.95.3 1.95.5l.9.1q1.95.15 4.05-.3 1.15-.2 2.1-.4.1-.45.25-.9.9-3.15 2.5-6.35 2.65-5.4 6.45-9.15-.15.3.65.4-1.4 6.35-1.15 10.85.15 1.7.6 4.3.05.5.15 1.1.95-.05 2.1-.2.55-.15 1.1-.25l1.6-.25v.05q3.2-.7 8-1.95l2.4-10.8q-.2-1.8.1-5.7.2-2.2.8-5.2.1-.75.25-1.45 7.15 12.2 13.7 18.85 3.35 3.35 6.5 5.3 3.85 2.35 6.8 3.65 4.5 2 6.8 1.5.9-14.3.9-15.75 0-25.9-9.5-40.5m-.2-58.45q0-.75-.5-1.15-.4-.4-1.35-.35-1.8.15-1.8 1.85 0 .35.4 1 .6.75 1.4.75 1.15 0 1.7-.9.25-.85.25-.9v-.1q-.1-.1-.1-.2z"/><path fill="#D0D0D0" d="M-139.9 99.4q-.1-.15-.15-.35l-.15.25.1.1q.05-.05.2 0m-1.3-32.1l.7-3.6q-.55 1.5-1.35 3.45l.65.15z"/><path fill="#C90" d="M-117.15 112.65q.8-3.95 1-8.35-2.45.25-6.05.25-1.15.05-2.1.1-5.3.25-6.45-.05-.6-.15-1.35-.45-.35-.15-.75-.35-1.9-.95-4.75-2.95-.3-.15-.6-.35l-.9-.1q-1-.2-1.95-.5-.1 0-.2.05-2.2 12.2-.3 20.75.6 2.7 2.25 4.4.6 3 1.65 6.25 1.55 4.95 3.9 10.4.7 1.6 1.5 3.3.15.3.25.6l.2-.35q2.2 1.2 4.25 2.45 3.7 2.2 7.3 2.15 3.8-.1 7.45-2.55-.15-2-.05-4.1v-.6q.2-7.05.15-7.85-.25-3.8-.75-7.3-1.2-8.3-3.7-14.85m32.65-138.9q-1.4.3-4.4.3 0 1.75-1.9 2.95-1.5.85-2.85.85-1.2 0-2.6 2.2-1.1 1.75-1.1 2.45 0 .45.2 1.1 2 .8 3.75.7v-2.8l15.45-.5v3.35h-1.1q.35.6.6 1.4 1.1 3.5 2.05 5.3 1 1.55 2.8 3.85-2.7-2.3-4-2.8-1.75-.5-3.55-.45-.3 1.2-1.2 2.4-.3.05-.65.05-1.55 0-2.65-1.1-.2-.2-.3-.35-.05.05-2.4.85-2.25.85-3.55 1.55-1.4.65-3.15 1.8-1.4.9-2.55 1.95-.65.6-2 2.15-1.3 1.3-2.55 1.3-3.1 0-4.35-5.2-.4-1.5-.7-4.05-.35-2.4-.45-2.9-.55-.2-1.45.2-1.05.45-1.3.45-1.15 0-1.5-1.15-.4-1.1-1.5-1.1-1.25 0-2.05 1.35-.35.55-.8 1.5.25 2 1.4 4.7.45.85.9 1.8.3.6.65 1.1-.35.15.1.25.15.05.35.05 0 .35.05.55 2.3 3.6 4.9 3.6h.45q.3 2.05.45 3.6-1.25.6-2.1.6-.4 0-.7-.25v7.5q0 2.8-3.95 5.5-3.45 2.35-5.1 2.35-.8 0-1.85-.9h-.05v10.1l.05.05q3.35 1.35 6.35 2.45 18.95 6.75 21.6 1.15.5-1.05.4-2.55-.05-.3-.1-.65V30.6q-.55.15-.9.2-.5.15-1 .15-5.15 0-8.85-6.15-3.35-5.45-3.35-10.85 0-.5.15-1.45.1-.5.2-.8.85 4.5 2.15 7.75 5.15 2.8 7.15 3.3 4.55 1.6 8.85 2.75 3.5.9 6.8 1.45 1.6-.4 2.9-1.35.1-.05.15-.1.35-.3.5-.5 0-.05.85-1.15l.2-.3.2-1.1q-.15-2.75 0-4.15-1.4.7-1.7.7-.75 0-1.55-.45-.95-.6-.95-1.35 2.75 0 4.6-.2v.2q.05 0 .05-.05.15-.3.25-.4.4-.7.55-1.6.15-.8.15-2.05-1 .3-2.7.15-1.6-.15-2.4-.4-.75-.15-2.45-.6-1.6-.4-3.05-2.85 1.45 2.45 3.05 2.85 1.7.45 2.45.6.8.25 2.4.4 1.7.15 2.7-.15h.2q.05-.1.15-.15.2-.15.45-.55.65-.6.65-.8 0-.3-.3-.9-.2-.7-.4-1.35-.05-.65.8-1.75-1.65-.1-2.8-.25-2.8-.45-2.8-1.5 0-.25.25-.6.35-.45.7-.45.3 0 1.4.25 1 .2 1.35.2 1.75 0 3.85-.8 1.8-.7 3.65-1.65.1-.05.2-.05.1-.2.25-.4.85-1.15.85-2.65 0-.9-1.25-2.05-1.75-1.4-2.8-2.25-4-3.35-4-7.55 0-2.35.6-3.25 1.05-1.75 1.55-3.25.1-.2.2-.5.2-.6.15-1.15-.05-1-1.25-5.3-.4-1.45-.85-2.5l-.1.05v.2q-.35 1.5-3.2 2.85-2.55 1.1-3.85 1.1-1.35 0-2.2-.95-.4-.45-.9-1.4M-113.1-9q.15-.1.25-.25v-.1l1.15.35q1.15.1 1.75.55.6.3.8 1 .4 1.3.75 2.8v1.15q-.25-.2-.4-.35-.15-.1-.35-.25-.65-.35-1.35-.1 0 .35.05 1.35.05.45.2 1.2-1.35-1.4-2.7-3.15-1.3-1.8-1.3-2.5 0-.9.5-1.3.4-.2.65-.4z"/><path fill="#E1E1E1" d="M-129.3 92.55q-1.6 3.2-2.5 6.35-.15.45-.25.9 4.9-.85 6.9-.05.7.45 2.55.3-.1-.6-.15-1.1-.45-2.6-.6-4.3-.25-4.5 1.15-10.85-.8-.1-.65-.4-3.8 3.75-6.45 9.15z"/><path fill="#F7F7F7" d="M-146.85 80.15q-.6 1.05-.7 1.05l-1.25 11.5q-.6-.4 1.8 1.5.05 0 .15.05l.15.15q.05.05 0 .1v.05q.45.25.7.5.95.85 1.95 1.75 1.25 1.1 2.7 2 .55.25 1.15.5l.15-.25q-3.8-15-1.15-31.75l-.65-.15q-2.45 5.8-3.4 8.6-.9 2.75-1.6 4.4z"/><path fill="#630" d="M-93.4-15.7v.05h15.45V-19l-15.45.5v2.8m-33.3-28.2q3.05 1.35 4.25 1.35 1.3 0 2.1-.65.95-.8.95-2.45 0-.55-.15-.95-.3.9-.3 1.3-1.05-.35-2.55-.6-1.45-.3-2.35-.3-1.95 0-2.6 1.05-.1.3-.4.8.6.25 1.05.45m30.75-9.15v.15q.15 1.4 2.65 4.25 2.6 2.95 4.2 2.95.25 0 1.15-.3.95-.2 1.25-.2 1 0 1.45.75.25.3.75 1.65.8 2.4 3.2 2.4.45 0 1.15-.5.6-.45.85-1.05-.05-.05-.2-.1-.6-.55-1.15-1.75-1.2-2.3-1.7-2.75-.8-.85-3.75-1.1-2.9-.35-3.75-1.2-1.75-1.85-3.55-2.65-1.1-.45-2.55-.55m-11.9-.95q-.9 0-2.25 1.8.4.65 1.25 1.4 1.5 1.3 1.85 1.65l2.25-2.75q-.9-.2-1.8-1-.75-.55-1.3-1.1m-4.45 4.15q-.6 0-2.35-.5-1.8-.5-2.4-.5-.9 0-1.85 2.25 1.65 1.2 3.85 1.2 1.3 0 1.95-.4.85-.65.9-2.05h-.1z"/><path d="M-82.35-13.25q-.3-.05-.65-.05-1.55 0-2.65 1.05-1.1 1.1-1.1 2.6 0 1.3.8 2.3.1.15.3.35 1.1 1.1 2.65 1.1.35 0 .65-.05.9-1.2 1.2-2.4.15-.45.15-.9.05-.85-.15-1.65v.1q0 .05-.25.9-.55.9-1.7.9-.8 0-1.4-.75-.4-.65-.4-1 0-1.7 1.8-1.85.95-.05 1.35.35-.2-.55-.6-1M-93.3-28.5q0 .05.05.15h.25l-.3-.15z"/><path fill="#331A00" d="M-93.2-28.3l.2-.05h-.25q.05.002.05.05z"/><path fill="#1A0000" d="M-126.7-19.85q-1.4 2.85-4 2.85-.7 0-1.15-.3-.3-.1-1.15-.65-.85 1.25-1.9 1.75-.95.55-2.5.55-1.3 0-2.65-1.55.2 2.9 1.6 5.25.85 1.3 1.6 2.5 0 .7-.65 2.1-.75 1.35-.75 2.05 0 3.9 1.2 5.6 1.25 1.95 4.95 3.1-1.05 2.05 2.55 4.35 3.25 2.1 6.35 2.1-.85.5-.9.6-.05.2-.05 1.45 0 2.25.95 3.45.85 1.1 2.45 1.35.4.05.85.05 1.05 0 1.95-.1 1.3-.1 2.25-.4 3.8-1 3.8-3.85v-.05q0-2-1-2.4-.25 0-.85-.2-.65-.25-.95-.85 2.2-1.05 2.55-2.05.25-.35.25-2.55v-.1V3.8q-.05-1.45-.4-2.2-.4-.8-.5-1.8-.15-.25-.4-.6-.45-.1-.1-.25-.35-.5-.65-1.1-.45-.95-.9-1.8-1.15-2.7-1.4-4.7-.1-.55-.1-1.05 0-.45.45-2.15.4-1.65.4-2.65h3.5q.3 1.35.65 1.65.25.15 1.6.15.85 0 1.7-.5 1.75-1.6 1.45-1.25-.3.4-.75.75-.3.3-.7.5 1.75 2.25 2.7 4.5.15.5.45.95-.45 2.15.1 4.25.85 2.75 3.25 2.75.9 0 1.65-.9.95-1.15.95-3.65 0-.3-.3-.95-.4-.75-.85-1.45.05-.2.1-.3.05-.1.05-.15 1.4-1.2 1.6-1.45.9-.8 1.05-1.5.05-.1.05-.2 0-2.9-1.05-4.2-.2-.2-3.15-2.7.75 0 2-.65 1.7-1 1.7-2.55 0-.65-.15-1.15-.3-.55-.3-.7 2.1.2 4.15-1.05 1.95-1.15 1.95-2.4 0-.7-.9-1.65l-.2.05q.05.25.05.45 0 1.3-3 2.8-2.85 1.35-4.55 1.35-1.85 0-4-1.3-.9-.55-1.7-1.2v.1q.1.25.1.55 0 1.25-1.65 2.1-1.35.65-2.55.65-1.9 0-2.2-.1-.6-.45-.9-2.65-.15 0-.15-.2h-.5q0 2.25-1.6 3.75-1.85 1.75-5.45 1.75-2.45 0-3.2-1.5-.5-2.1-1.05-3.3.05 2.85-1.15 5.2z"/><path fill="#300" d="M-112.2-49.9v.05q-.05 1.4-.9 2.05-.65.4-1.95.4-2.2 0-3.85-1.2-.05.2-.1.5-.35.8-.55 1.5.15.4.15.95 0 1.65-.95 2.45-.8.65-2.1.65-1.2 0-4.25-1.35-.45-.2-1.05-.45-.4.75-.9 2-.85 1.9-2.3 1.95-1.6 0-.9.8.7.75.25 1.2-.2.3-1.2 2.65t-1.1 2.4q-1.25.9-2.95 3.9-3.15 1.25-3.2 1.35-1 .65-1 3.05 0 1.55.15 1.95.3.85 2.25 3.55-1.4.9-1.4 1.35v1q1.35 1.55 2.65 1.55 1.55 0 2.5-.55 1.05-.5 1.9-1.75.85.55 1.15.65.45.3 1.15.3 2.6 0 4-2.85 1.2-2.35 1.15-5.2.55 1.2 1.05 3.3.75 1.5 3.2 1.5 3.6 0 5.45-1.75 1.6-1.5 1.6-3.75h.5q0 .2.15.2.3 2.2.9 2.65.3.1 2.2.1 1.2 0 2.55-.65 1.65-.85 1.65-2.1 0-.3-.1-.55-.05-.1-.05-.15l-.3-.2h.2q0 .1.1.2l.05.05q.8.65 1.7 1.2 2.15 1.3 4 1.3 1.7 0 4.55-1.35 3-1.5 3-2.8 0-.2-.05-.45 0-.048-.05-.05-.05-.1-.05-.15l-.2-.2q-.15-.15-.35-.25 4.3-.15 4.55 0 1.6.65 3 .65t1.95-.2q1.35-.45 2-2.05-.75 2.3.6 3 .45.2 2.2.2 1.6 0 2.7-1.05 1.1-.95.75-2.1v-.05q0-.3-.15-.5.2.1.5.2.4.1 1.05.25 1.6-.25 1.25-.9h.95q-.1-.1-.15-.35-.05 0-.05-.05-1.2-2.75-1.2-4.45 0-2.45-1.85-4.3-1.4-1.4-2.85-1.9-.35-.05-.7-.4-.25.6-.85 1.05-.7.5-1.15.5-2.4 0-3.2-2.4-.5-1.35-.75-1.65-.45-.75-1.45-.75-.3 0-1.25.2-.9.3-1.15.3-1.6 0-4.2-2.95-2.5-2.85-2.65-4.25v-.15q-.5-.05-1.1-.05-2 0-4.3.7-1.25.35-2.25.7-.6 0-1.15-.2l-2.25 2.75q-.35-.35-1.85-1.65-.85-.75-1.25-1.4-.05.15-.1.25-1.25 1.85-2 2.05z"/><path fill="#432101" d="M-112.2-49.85v-.05q-.048.048-.1.05h.1z"/></g><path id="b" stroke="#8CA8B8" stroke-opacity=".149" stroke-linejoin="round" stroke-linecap="round" fill="none" d="M216 115l19 267H40l17-227 159-40z"/><path id="d" stroke="#999" stroke-linejoin="round" stroke-linecap="round" fill="none" d="M-74.7 12.95q-.1.05-.15.15h-.2m-21.4-24.9q-.05.15-.15.35l.2-.2"/><path id="e" stroke="#99F" stroke-linejoin="round" stroke-linecap="round" fill="none" d="M-79.5-43.05q.15.05.2.1"/><path id="f" stroke="#CCC" stroke-linejoin="round" stroke-linecap="round" fill="none" d="M-75.75-30.85q0 .1.05.3.15.15.3.45m-2.95 55.7q-1.3.95-2.9 1.35m-11.2 5.4q.05.35.1.65m-28.4-11.2v-5.1m.05 15.25l-.05-.05"/><path id="g" stroke="#960" stroke-linejoin="round" stroke-linecap="round" fill="none" d="M-75.05 13.1q-1 .3-2.7.15-1.6-.15-2.4-.4-.75-.15-2.45-.6-1.6-.4-3.05-2.85"/></defs><g transform="translate(-40 -115)"><use xlink:href="#a"/><use xlink:href="#b"/></g><g transform="translate(207.2 112.8)"><use xlink:href="#c"/><use xlink:href="#d"/><use xlink:href="#e"/><use xlink:href="#f"/><use xlink:href="#g"/></g></svg>