<svg xmlns="http://www.w3.org/2000/svg" xmlns:xlink="http://www.w3.org/1999/xlink" preserveAspectRatio="none" width="105" height="121" viewBox="0 0 105 121"><defs><g id="a"><path fill="#FF9" d="M447.4 240.15l.2-.35h-.2v.35m30.35 25.5l-.25 5.85q3.2 8.3 28.05-6.4l.55-13.4q-1.95 1.9-3.05 2.1-1.15.25-.85-.05v-.1l.25-.15q2-3.4 2.5-5.15.55-1.8.8-4.25t-1.15-6.1q-.35-.9-.75-1.45-9.8 24.3-26.1 29.1M457.6 199.5q0 .85-.25 2.6-.25 1.65-.3 2.55-2.2.25-4-.95-1.9-1.6-3.1-2.5-.6 1.65-1.5 5-.6 2-1 3.2v.05l-.1.4q.25 1.05.65 2.1.8 2.35-.1 4.75t-2.3 5.35l-.1.2q-.25.55-.55 1.05-.1.2-.15.4-1.25 2.2-2.6 3.75-1.4 1.6-2.75 3.55-.25.9.45 1.7l.2-.15q1.1.35 6.4.8 3.4.1 5.55 0 0 1.15-1.25 2.8-.4.95-1.35 2.1-.75 1.1-1.45 1.45-.7 1.85-1.1 2.3-.4.4-.25 1.2.1.9 4.95 2.15.75-.45 1.8-.65.6-.05 2.05-.2 1.35-.15 5.8-1.05 4.45-.95 5.1-4.35-.65 3.4-5.1 4.35-4.45.9-5.8 1.05-1.45.15-2.05.2-1.05.2-1.8.65-.1 0-.1.05-.75 1.1-.95 2-.3 1.45 1.1 3.05 1.1-.05 2.35-.2 1.9-.15 2.85-.5 0 .15.1.35.2.15.2.7-.05.8-.95 1.6-.25.2-.6.4-.95.55-1.9.55 1.15 2.95 2 4.45.75 1.4 2.15 2.25 1.45.85 2.9 1.3 1.5.55 11.6-3.7 1-.3 1.8-.7.1-.05.15-.05 1.65-.8 3.25-1.55.55-.25 1.05-.45 2.05-1.1 3.85-2.1 3.2-1.9 5.45-3.75 5.4-4.4 7.5-9.5.95-2.15 1.8-8.15.95.4 2.5.4.4 0 .75-.05 3.75-.4 6.7-4.75 3.05-4.55 3.35-10.05.1-3.4-.45-6.15-.3-1-.55-1.8l-.1.1q-.4 0-1.05-.2-.7-.15-1.15-.15-2.7 0-4.3 1.35-1.25 1.15-2.1 3.55-.2.35-1.25 4.2-.75 2.6-1.6 3.95-6.25 9.65-10.3 12.7l-1.8.65q.4-.6.65-1.05.5-.9.5-1.6v-.05h-.3q-2 2.1-3.6 2.95-2.4 1.25-3.15 1.85l-4 .65 1.5-1.05q2.05-1 3.75-4.85 1.45-3.2 1.45-5.7v-1.05l.25-.15-.05-.05q-2.35-3.15-5.65-5.05-5.3-3.05-13.25-3.05-7 0-11.1 1.75-2.95 1.2-5.25 3.65 7.45-12.7 9.5-15.75 2-3.15 5.6-3.6-3.3-1.05-5.1-3.5m50.9 13.35q.1 1-.5 1.9-.35.5-1.45 1.5-2.05 2.05-1.95 3.8.1 3.7-.2 5.05-.6 2.2-2.85 2.2-3.75 0-3.7-2.25v-.85q.2.15.45.45.25.2.8.2 1.05 0 1.7-.3 1-.6 1.15-2.25 0-.5-.85-1.85-.8-1.4-.8-1.75.05-1.35 1.6-3.8 1.8-2.75 3.3-2.75.55 0 1.15.2.65.15 1.05.2h.7q0 .2.2.25.05.05.2.05m-41.25-18.2v1.4q-.15 2.3 1.5 4.7 1.05 1.35 1.25 1.65.25.6.45 1.15 4.5.7 7.3 1.3-1.8-1.05-3.7-2.5-5.55-4.3-6.8-7.7z"/><path fill="#FC6" d="M456.95 250.1q-.1-.2-.1-.35-.95.35-2.85.5-1.25.15-2.35.2.95 1.05 1.75 2.25.15.4.3.65.95 0 1.9-.55.35-.2.6-.4.9-.8.95-1.6 0-.55-.2-.7m21.65 4.8q-.5.2-1.05.45-1.6.75-3.25 1.55v.05q.7.2 1.3.3 1.15.35 1.85.55.65.15.8.3v1.6l-.25.2-.25 5.75q16.3-4.8 26.1-29.1-.3-.7-.7-1.15-1.35-1.5-2.3-3.15 0-.05-.4-.5-.35.05-.75.05-1.55 0-2.5-.4-.85 6-1.8 8.15-2.1 5.1-7.5 9.5-2.25 1.85-5.45 3.75-1.8 1-3.85 2.1m-26.55-21.55q-2.15.1-5.55 0-5.3-.45-6.4-.8l-.2.15v.05q.7.7 2.25 1.35.85.3 1.55.65 2.7 1.1 3.4 1.6.8.65 1.2 1.85.9 0 2.05-1.45.25-.35.45-.6 1.25-1.65 1.25-2.8m55.95-18.6q.6-.9.5-1.9-.15 0-.2-.05-.2-.05-.2-.25h-1.75v-.2q-.6-.2-1.15-.2-1.5 0-3.3 2.75-1.55 2.45-1.6 3.8 0 .35.8 1.75.85 1.35.85 1.85-.15 1.65-1.15 2.25-.65.3-1.7.3-.55 0-.8-.2-.25-.3-.45-.45v.85q-.05 2.25 3.7 2.25 2.25 0 2.85-2.2.3-1.35.2-5.05-.1-1.75 1.95-3.8 1.1-1 1.45-1.5m-51.8-19.25l-.2.15q-.7 4.6-.3 7.65-4.9-5.25-5.3-8.35-2.8 9.05-3.2 11.8.1.35.2.65h-.05l-.2.1q0 .95.3 1.9.4-1.2 1-3.2.9-3.35 1.5-5 1.2.9 3.1 2.5 1.8 1.2 4 .95.05-.9.3-2.55.25-1.75.25-2.6 1.8 2.45 5.1 3.5-3.6.45-5.6 3.6-2.05 3.05-9.5 15.75 2.3-2.45 5.25-3.65 4.1-1.75 11.1-1.75 7.95 0 13.25 3.05 3.3 1.9 5.65 5.05l.05.05-.25.15q.1.25.3.95l-.3.1q0 2.5-1.45 5.7-1.7 3.85-3.75 4.85l-1.5 1.05 4-.65q.75-.6 3.15-1.85 1.6-.85 3.6-2.95h.3v.05q0 .7-.5 1.6-.25.45-.65 1.05l1.8-.65q4.05-3.05 10.3-12.7.85-1.35 1.6-3.95 1.05-3.85 1.25-4.2.85-2.4 2.1-3.55 1.6-1.35 4.3-1.35.45 0 1.15.15.65.2 1.05.2l.1-.1q-1.2-3-3.65-3-4.75 0-6.15 3-.45 1.1-.95 3.4-.6 3.1-.9 4.25-.95 3.25-3.55 6.95-1.4 1.95-2.15 3-1.35 1.8-2.15 3.1l.1-1.05q0-.2 1.5-3.55 1.25-2.75 1.05-4h-.05q-1.6 4.8-4 7.95-2.9 3.7-6.35 4.4.95-1.45 2.8-4.15 1.65-2.3 2.5-4 2.45-4.55 2.7-9.55 0-.85-.6-6.6h-.2q-2.2-1.5-4.95-5.7-4.1-6.1-4.3-6.35.1.25 2.8 5.3 2 3.8 2.9 4.65h-.9q-1.45 0-3.05-.4-2-.6-4.15-1.8h-.05q-2.8-.6-7.3-1.3.05.4 0 .8v1q-2.25-.9-4.8-2.45-1.35-.8-2.8-1.85-4.75-3.35-6.45-6 0 .15-.2.45m28.5 32.5h.35-.35z"/><path d="M512.15 168.85q2.25-2.25 3.9-3.55 2.2-1.65 5-1.95-5-.6-7.1-.65-2.2-.05-3.9.25-1.75.3-4.3.75-2.65.4-5.55 1.5-2.85 1-5.25-3-2.45-4.05-5.95-5.65-6.9-3.15-15.65-2.5 1.15.35 4.1 2.35 2.1 1.4 4.15 3.25 2.05 1.95 2 4.65-4.95-3.1-9.5-5.8-4.6-2.6-12.65-2.5-7.95.1-9.7.7h-.1q-.7 0-.15.2.1 0 .15.1 1.35.45 5.7 2.05 5.4 2.05 9.9 4.45.1.1-.15.2h-.25v-.05q-1.65-.15-3.4-.3-2.8-.35-4.1-.35-7.6 0-9.75.15-3.8.2-6.3 1.1-2.5.9-5.9 3.1-1.75 1.2-7.2 3.55 4 1.8 4.2 1.75.2-.1 1.85.1 1.65.2 1.9.25.6.1 3.8.2-3.25.8-5.15 1.5-1.85.65-11.15-2.5 2.85 5.05 6.4 6.7 3.5 1.65 4 1.75-.7-.1-1.55-.2-.1 0-.2-.05-1.8-.2-2.4-.2-3.55 0-7.6.8 7.6 2.65 8.6 3.55 1.05 1 2.4 2.35 1.25 1.4 1.45 1.6l-.3.1.05-.05q-2.5.9-4.9 3.35-2.35 2.95-5.8 4.15 3.65 3.15 7.8 3.9 4.2.8 4.45.15 1.7 2.35 2.25 3.4.55 1 3.65 3.4 3.15 2.35 3.5 2.55v-.05q-.3-.95-.3-1.9v-.1q0-.25.05-.65.4-2.75 3.2-11.8.4 3.1 5.3 8.35-.4-3.05.3-7.65l.2-.15q.2-.3.2-.45 1.7 2.65 6.45 6 1.45 1.05 2.8 1.85 2.55 1.55 4.8 2.45v-1q.05-.4 0-.8-.2-.55-.45-1.15-.2-.3-1.25-1.65-1.65-2.4-1.5-4.7v-1.4q1.25 3.4 6.8 7.7 1.9 1.45 3.7 2.5h.05q2.15 1.2 4.15 1.8 1.6.4 3.05.4h.9q-.9-.85-2.9-4.65-2.7-5.05-2.8-5.3.2.25 4.3 6.35 2.75 4.2 4.95 5.7h.2q.6 5.75.6 6.6-.25 5-2.7 9.55-.85 1.7-2.5 4-1.85 2.7-2.8 4.15 3.45-.7 6.35-4.4 2.4-3.15 4-7.95v-.35q.05.15.05.35.2 1.25-1.05 4-1.5 3.35-1.5 3.55l-.1 1.05q.8-1.3 2.15-3.1.75-1.05 2.15-3 2.6-3.7 3.55-6.95.3-1.15.9-4.25.5-2.3.95-3.4 1.4-3 6.15-3 2.45 0 3.65 3 .25.8.55 1.8.55 2.75.45 6.15-.3 5.5-3.35 10.05-2.95 4.35-6.7 4.75.4.45.4.5.95 1.65 2.3 3.15.4.45.7 1.15.4.55.75 1.45 1.4 3.65 1.15 6.1-.25 2.45-.8 4.25-.5 1.75-2.5 5.15l-.25.15v.1q-.3.3.85.05 1.1-.2 3.05-2.1l.2-.2q2.15-2.05 2.95-5.25-.1.9-.05 1.85.05 2.55 1.55 5.25 1.9 3.65 4.85 5.25-.7-2.5-.3-9.8v-.85l.05-.35q.2-6.3-.4-8.6 1.5.35 2.35 3.9.6 2.9.55 5.4l.15.05q.65-1.4 1.45-5 .9-3.9 1-6.1-.6-5.85-.9-6.6-.4-.8-.9-2.2-.6-1.4-1.05-3.05-.5-2.1-.45-4.15.2-3.05 1.85-8.4 1.95-6.15 2.6-7.55.55-1.4 1.65-7.5 1.05-6.1 5.2-12.25-5.9 3.9-6.85 4.55-.15.05-.2.1 1.1-2.8 3-7.5 1.75-3.85 3.15-5.95h-5.25q2-1.7 2.7-3.3 1.05-2.4 1.35-2.5-2 .4-2.2.45-1.1.2-1.65.2h-1.05q-.65.05-2.45 1.55 1.8-2.5 3.1-3.65 1.1-.9 2-.95-5.6-2.2-12.2.6h-.15l.4-.3m-25.45-.45h.05q1.15.7 4.55 3.2 3.65 2.7 4.4 3.15l-.05 2h-.45q0-.7-.65-1.05-1.05-.65-1.4-.95h-2.05l-.05.45q1.6.75 1.85 2.55v3.05q-3-3.2-4.95-3.2-.05 1.15.8 2.8.7 1.3.3 2.8H489q-3.35-4.45-7.9-6.4-4.55-2-12.75-2.35.7-1 2.75-1.25.7-.05 2.75-.05.45 0 2.25.25 1.85.15 2.8.15v-.4q-1.35-1.05-3.05-2.05-2.7-1.5-4.25-1.55h3.2q2 0 5.25.85 1.55.3 5.6 1.6h2.55q0-1.65-.7-2.7-.05-.15-.8-.9m14.75 10q2.05-.8 3.4-.8h4.3q-2.2.7-3.35 1.4-1.85 1-2.3 2.15 2.5-.5 6.55.9 3 1.05 5.05 2.35l-.05.35q-.9-.35-3.55-.35-2.7 0-3.95.35.75.8 1.7 3.15 1.05 2.55 1.35 3.35l-.2.1q-1.5-1.8-2.4-2.75-1.7-1.8-3.3-2.8-4.25-2.9-9.8-1.8.8-1.25 1.4-1.8 1.15-.95 3-1.8-.9 0-1.65-.25-.5-.2-1.3-.5v-.45q3.1 0 5.1-.8z"/><path fill="#FFF" d="M504.85 177.6q-1.35 0-3.4.8-2 .8-5.1.8v.45q.8.3 1.3.5.75.25 1.65.25-1.85.85-3 1.8-.6.55-1.4 1.8 5.55-1.1 9.8 1.8 1.6 1 3.3 2.8.9.95 2.4 2.75l.2-.1q-.3-.8-1.35-3.35-.95-2.35-1.7-3.15 1.25-.35 3.95-.35 2.65 0 3.55.35l.05-.35q-2.05-1.3-5.05-2.35-4.05-1.4-6.55-.9.45-1.15 2.3-2.15 1.15-.7 3.35-1.4h-4.3m-18.1-9.2h-.05q.75.75.8.9.7 1.05.7 2.7h-2.55q-4.05-1.3-5.6-1.6-3.25-.85-5.25-.85h-3.2q1.55.05 4.25 1.55 1.7 1 3.05 2.05v.4q-.95 0-2.8-.15-1.8-.25-2.25-.25-2.05 0-2.75.05-2.05.25-2.75 1.25 8.2.35 12.75 2.35 4.55 1.95 7.9 6.4h.05q.4-1.5-.3-2.8-.85-1.65-.8-2.8 1.95 0 4.95 3.2v-3.05q-.25-1.8-1.85-2.55l.05-.45h2.05q.35.3 1.4.95.65.35.65 1.05h.45l.05-2q-.75-.45-4.4-3.15-3.4-2.5-4.55-3.2z"/></g><g id="c"><path fill="#FFF" d="M465.65 213.8q-.2-.2-.6-.25-.5-.05-.75.35-.15.2-.15.75-.05 1.2.85 1.2.45 0 .7-.45.2-.3.25-.75 0-.6-.3-.85z"/><path d="M464.3 213.9h-1.25l-3.85 5.05 17.65-5.75-11.2.6q.3.25.3.85-.05.45-.25.75-.25.45-.7.45-.9 0-.85-1.2 0-.55.15-.75z"/></g><path d="M460.3 208.15q8.45-3.35 17.8-3.3-9.75-3-24.25 0-1.2 1.95 6.45 3.3z" id="d"/><path id="b" stroke="#F93" stroke-linejoin="round" stroke-linecap="round" fill="none" d="M451.6 245.35q.75-.45 1.8-.65.6-.05 2.05-.2 1.35-.15 5.8-1.05 4.45-.95 5.1-4.35M484.7 228h.35"/></defs><g transform="translate(-424.3 -153.95)"><use xlink:href="#a"/><use xlink:href="#b"/></g><use xlink:href="#c" transform="translate(-424.3 -153.95)"/><use xlink:href="#d" transform="translate(-424.3 -153.95)"/></svg>