
<svg xmlns="http://www.w3.org/2000/svg" version="1.1" xmlns:xlink="http://www.w3.org/1999/xlink" preserveAspectRatio="none" x="0px" y="0px" width="289px" height="187px" viewBox="0 0 289 187">
<defs>
<g id="Layer0_0_MEMBER_0_MEMBER_0_FILL">
<path fill="#CCFF00" stroke="none" d="
M 542.2 367.4
Q 542.35 366.6 542.35 365.8
L 542.2 365.8 542.2 367.4
M 508.5 305.45
L 508.5 307.45 511.4 307.45 511.4 305.45 508.5 305.45
M 521.35 308.25
L 516.5 308.25 516.5 310.25 521.35 310.25 521.35 308.25
M 545.15 337.95
L 545.15 336.1 542.2 336.1 542.2 337.95 545.15 337.95
M 535.9 308.1
L 535.9 310.15 539.25 310.15 539.25 308.1 535.9 308.1
M 528.4 310.25
L 528.4 308.25 524.95 308.25 524.95 310.25 528.4 310.25
M 547.3 310.15
L 547.3 308.1 543.15 308.1 543.15 310.15 547.3 310.15
M 511.4 276.8
L 511.4 275.05
Q 509.8 275.2 508.75 274.95
L 508.5 274.95 508.5 276.8 511.4 276.8
M 520.65 274.95
L 517.7 274.95 517.7 276.8 520.65 276.8 520.65 274.95
M 523.85 274.95
L 523.85 276.8 533.1 276.95
Q 534.45 275.85 535.5 274.95
L 523.85 274.95 Z"/>

<path fill="#FFFF99" stroke="none" d="
M 482.65 247.9
Q 482.65 248.05 482.65 248.15
L 482.8 247.9 482.65 247.9
M 499.4 217.4
Q 500.2 218.45 500.3 218.75 500.6 219.15 500.7 219.55 504.2 220.2 506.45 220.6 505 219.8 503.55 218.6 499.25 215.25 498.2 212.55
L 498.2 213.8
Q 498.2 215.5 499.4 217.4
M 527.5 246.55
Q 527.2 245.9 526.8 245.35 523.05 254.6 518.1 260.35 518 260.6 517.7 260.9 514.75 264.1 511.4 266.1 509.95 266.9 508.5 267.6 507.55 268 506.45 268.25
L 506.2 272.8
Q 506.85 274.4 508.5 274.95
L 508.75 274.95
Q 509.8 275.2 511.4 275.05 513.95 274.65 517.7 273.2
L 517.85 273.05
Q 519.2 272.55 520.65 271.85 522.15 271.05 523.85 270.1 524.65 269.7 525.5 269.2 526.8 268.5 528.15 267.7
L 528.55 258.6 528.7 257.25
Q 528 257.95 527.5 258.35 526.7 258.75 526.3 258.9 525.35 259.15 525.6 258.9
L 525.6 258.75 525.75 258.6
Q 525.9 258.5 525.9 258.2 527.35 255.8 527.75 254.6 528.15 253.25 528.3 251.25 528.55 249.4 527.5 246.55
M 456.4 331.7
Q 458.45 332.1 458.95 332.1
L 454.55 333.95 454.7 334.6 452.25 334.9
Q 449.75 335.3 445.2 334.75 444.65 336.35 444.9 339.55 445.3 342.65 445.85 343.85 446.65 345.75 449.85 347.75 451.2 348.65 452.8 349.2 454.15 349.5 455.35 349.75 464.85 350.8 471.95 348.95 472.75 346 473.15 342.9 473.3 339.85 473.15 339.05 473.3 339.15 473.4 339.15
L 473.55 339.15
Q 475.7 341.2 477.3 342.1 478.75 342.8 481.6 344.1 484.25 345.45 488.65 347.2 489.6 347.6 490.7 348 494.441796875 349.5466796875 499.8 352.2 499.6943359375 352.15 499.65 352.15 499.25 352.15 502.05 352.95 503.55 353.35 505.4 353.75 506.85 353.9 508.5 354.05 509.8 354.15 511.4 354.15 514.35 354.3 517.7 354.15 518.9 354.15 520.1 354.05 520.4 354.05 520.65 354.05 522.4 353.9 523.85 353.9 527.35 353.5 530.05 353.1 531.35 353.1 532.85 352.7 533.75 352.55 534.45 352.15 535.25 351.9 535.9 351.6 537.8 350.7 539.15 349.6 540.75 348.15 541.55 346.25 542.05 345.2 542.2 344.1 542.2 343.85 542.2 343.6 542.35 342.4 542.2 341.3 541.95 339.85 541.25 338.25 541.8 334.1 542.2 329.25 542.35 327 542.45 324.45 542.35 324.45 542.2 324.6 540.6 324.85 539.15 325.1 530.05 326.45 523.85 324.7 522.25 324.2 520.8 323.5 520.8 324.6 520.65 325.9 520.5 327.65 520.4 329.65 520.4 330.05 520.25 330.35 520.25 330.6 520.25 330.85 519.2 330.75 517.7 330.85 515.7 330.85 512.9 330.85 512.1 330.85 511.4 331 509.8 331 508.5 331.15 506.75 331.15 505.4 331.15 504.05 331.15 503.15 331.15 500.7 331.3 491.1 333.3 489.6 333.55 488 333.95 479.3 335.95 474.35 335.4 474.2 335.55 473.95 335.55 473.55 335.3 473.15 334.9 466.45 330.6 462.7 329.25 459.5 328.35 454.8 328.05
L 454.7 328.2
Q 454.55 328.45 454.3 329.15 453.75 330.35 453.9 330.6 454.15 331.3 456.4 331.7
M 484.65 217.8
Q 484.25 219 483.45 221.65 483.05 223.15 482.8 224.2 482.65 224.35 482.65 224.5 482.8 225.3 483.2 226.2 483.85 227.95 483.05 229.85 482.4 231.7 481.3 234 481.2 234.1 481.2 234.25 481.05 234.65 480.8 235.05 480.65 235.2 480.65 235.3 479.7 237.05 478.65 238.25 477.55 239.45 476.5 241.1 476.25 241.75 476.75 242.4
L 477.05 242.3
Q 477.85 242.55 482 242.8 484.65 242.95 486.25 242.8 486.25 243.75 485.35 245.1 485.05 245.9 484.25 246.7 484.1 246.95 483.85 247.25 483.6 247.75 483.2 247.9 483.2 248.05 483.05 248.05 483.05 248.3 482.9 248.55 482.5 249.4 482.25 249.65 482 249.9 482.1 250.6 482.25 251.25 486 252.3 486.55 251.9 487.35 251.8 487.85 251.65 488.95 251.65 490 251.5 493.5 250.85 496.95 250.05 497.5 247.35 496.95 250.05 493.5 250.85 490 251.5 488.95 251.65 487.85 251.65 487.35 251.8 486.55 251.9 486 252.3
L 485.85 252.3
Q 485.35 253.1 485.2 253.95 484.95 255 486 256.35 486.8 256.2 487.85 256.05 489.35 255.95 490 255.65 490 255.8 490.15 255.95 490.3 256.05 490.3 256.45 490.3 257.15 489.6 257.8 489.35 257.95 489.1 258.05 488.4 258.5 487.6 258.5 488.55 260.9 489.2 261.95 489.75 263.15 490.8 263.85 492 264.5 493.1 264.75 494.3 265.15 502.2 261.95 503 261.7 503.65 261.3
L 503.8 261.3
Q 505 260.75 506.35 260.1 506.75 259.95 507.15 259.7 508.75 258.9 510.1 258.05 512.65 256.6 514.35 255.15 518.65 251.65 520.25 247.75 521.05 246.05 521.6 241.35 522.4 241.6 523.6 241.6 523.85 241.6 524.25 241.6 527.1 241.35 529.5 237.85 531.9 234.4 532.05 230.1 532.15 227.45 531.65 225.3 531.5 224.5 531.25 223.8
L 531.25 223.95
Q 530.85 223.95 530.45 223.8 529.9 223.7 529.5 223.7 527.35 223.7 526.15 224.75 525.05 225.55 524.4 227.45 524.25 227.85 523.45 230.75 522.95 232.8 522.25 233.85 517.3 241.5 514.25 243.75
L 512.75 244.3
Q 513.05 243.9 513.3 243.5 513.7 242.8 513.7 242.3
L 513.7 242.15 513.45 242.15
Q 511.85 243.9 510.6 244.4 508.75 245.5 508.2 245.9
L 505 246.45 506.2 245.65
Q 507.8 244.85 509.15 241.9 510.2 239.35 510.2 237.35 510.2 236.95 510.2 236.55
L 510.5 236.4 510.35 236.4
Q 508.6 234 505.95 232.4 501.9 230.1 495.65 230.1 490.15 230.1 486.95 231.45 484.65 232.4 482.8 234.25 488.65 224.35 490.3 221.95 491.9 219.55 494.7 219.15 492 218.35 490.7 216.45 490.7 217.1 490.4 218.45 490.3 219.8 490.3 220.45 488.55 220.6 487.05 219.65 485.6 218.45 484.65 217.8
M 527.9 226.35
Q 528.3 226.35 528.8 226.5 529.27734375 226.5955078125 529.5 226.6
L 530.15 226.6
Q 530.15 226.75 530.3 226.75
L 530.45 226.9
Q 530.55 227.55 530.05 228.35 529.9 228.75 528.95 229.55 527.35 231.15 527.5 232.5 527.5 235.45 527.2 236.4 526.8 238.15 525.05 238.15 522.15 238.15 522.15 236.4
L 522.15 235.7
Q 522.25 235.85 522.55 236.15 522.65 236.25 523.2 236.25 524 236.25 524.4 236 525.2 235.6 525.35 234.25 525.35 233.85 524.65 232.8 524 231.7 524 231.45 524.15 230.35 525.35 228.5 526.7 226.35 527.9 226.35 Z"/>

<path fill="#999900" stroke="none" d="
M 490.3 360.05
Q 490.15 361.9 490 363.8
L 505.4 363.95 505.4 360.05 490.3 360.05
M 520.65 363.95
L 520.65 363.25 520.65 360.05 517.7 360.05 517.7 363.95 517.85 363.95 520.65 363.95
M 523.85 360.05
L 523.85 362.3
Q 526.95 361.25 529.9 360.05
L 523.85 360.05
M 508.5 363.95
L 511.4 363.95 511.4 360.05 508.5 360.05 508.5 363.95
M 511.4 331
L 511.4 330.35 508.5 330.35 508.5 331.15
Q 509.8 331 511.4 331
M 520.25 330.85
Q 520.25 330.6 520.25 330.35
L 517.7 330.35 517.7 330.85
Q 519.2 330.75 520.25 330.85
M 491.1 333.3
Q 500.7 331.3 503.15 331.15 504.05 331.15 505.4 331.15
L 505.4 330.35 491.1 330.2
Q 491.1 331.7 491.1 333.3
M 505.4 309.2
L 491.9 309.2
Q 491.75 310.95 491.6 313.1
L 505.4 313.1 505.4 309.2
M 505.4 303.55
L 505.4 299.85 492.8 299.7
Q 492.55 301.55 492.3 303.45
L 492.3 303.55 505.4 303.55
M 521.35 312
L 516.5 312 516.4 315.9 521.35 315.9 521.35 312
M 511.4 309.2
L 508.5 309.2 508.5 313.1 511.4 313.1 511.4 309.2
M 508.5 299.85
L 508.5 303.55 511.4 303.55 511.4 299.85 508.5 299.85
M 521.35 302.65
L 516.8 302.65 516.65 306.4 521.35 306.4 521.35 302.65
M 545.15 339.85
L 542.2 339.85 542.2 341.3
Q 542.35 342.4 542.2 343.6
L 545.15 343.6 545.15 339.85
M 545.15 330.35
L 542.2 330.35 542.2 334.2 545.15 334.2 545.15 330.35
M 528.4 315.9
L 528.4 312 524.95 312 524.95 315.9 528.4 315.9
M 535.9 311.85
L 535.9 315.75 539.25 315.75 539.25 311.85 535.9 311.85
M 528.4 306.4
L 528.4 302.65 524.95 302.65 524.95 306.4 528.4 306.4
M 539.25 306.25
L 539.25 302.5 535.9 302.5 535.9 306.25 539.25 306.25
M 547.4 315.75
L 547.3 311.85 543.15 311.85 543.15 315.75 547.4 315.75
M 547.15 306.25
L 547 302.5 543.15 302.5 543.15 306.25 547.15 306.25
M 539.15 282.55
L 539.15 278.7 537.4 278.7
Q 536.05 279.75 534.3 280.8 533.5 281.35 532.45 281.9 534.15 281.9 535.8 282.3
L 535.8 285.25 539.15 285.25 539.15 283.5
Q 537.9 282.95 536.7 282.55
L 539.15 282.55
M 524.8 283.5
L 524.8 285.35 528.3 285.35 528.3 282.3
Q 527.75 282.45 527.2 282.55 526 282.95 524.8 283.5
M 508.5 278.7
L 508.5 282.55 511.4 282.55 511.4 278.7 508.5 278.7
M 523.85 281.35
L 524 281.35
Q 527.35 280 529.9 278.7
L 523.85 278.7 523.85 281.35
M 520.65 278.7
L 517.7 278.7 517.7 282.55 520.65 282.55 520.65 278.7
M 517.85 273.05
L 520.65 273.05 520.65 271.85
Q 519.2 272.55 517.85 273.05
M 504.45 282.55
L 504.75 282.55
Q 504.75 282.3 504.75 282.15 504.6 282.3 504.45 282.55
M 500.2 282.55
L 500.45 282.55
Q 502.05 280.15 502.85 278.8 502.85 278.703125 503 278.7
L 500.45 278.7
Q 500.2 281.5 500.2 282.55
M 498.3 282.55
Q 498.3 282.45 498.3 282.3 498.3 279.75 498.7 278.7
L 498.6 278.7
Q 497.5 280.3 496.7 282.55
L 498.3 282.55
M 501.9 269.2
L 501.9 269.3
Q 501.8 269.45 501.8 269.7 501.4 271.05 501 273.05
L 505.4 273.05 505.4 269.2 501.9 269.2
M 525.5 269.2
Q 524.65 269.7 523.85 270.1
L 523.85 273.05 536.85 273.05
Q 536.85 272.95 537 272.95 537 272.8 537.1 272.65 537.25 272.15 537.25 271.45 537.25 270.65 536.85 269.3
L 525.5 269.2 Z"/>

<path fill="#FFCC00" stroke="none" d="
M 490 363.8
L 489.35 363.8 489.35 365.65 505.4 365.8 505.4 363.95 490 363.8
M 505.4 353.75
Q 503.55 353.35 502.05 352.95 499.25 352.15 499.65 352.15 493.65 350.8 490.55 350.3 490.4 355.25 490.3 360.05
L 505.4 360.05 505.4 353.75
M 523.85 353.9
L 523.85 360.05 529.9 360.05
Q 534.7 358.2 539.15 355.75
L 539.15 349.6
Q 537.8 350.7 535.9 351.6 535.25 351.9 534.45 352.15 533.75 352.55 532.85 352.7 531.35 353.1 530.05 353.1 527.35 353.5 523.85 353.9
M 517.85 363.95
L 517.7 363.95 517.7 364.05 517.85 363.95
M 511.4 363.95
L 508.5 363.95 508.5 365.8 511.4 365.8 511.4 365.4 511.4 363.95
M 511.4 354.15
Q 509.8 354.15 508.5 354.05
L 508.5 360.05 511.4 360.05 511.4 354.15
M 520.1 354.05
Q 518.9 354.15 517.7 354.15
L 517.7 360.05 520.65 360.05 520.65 354.05
Q 520.4 354.05 520.1 354.05
M 505.4 313.1
L 491.6 313.1
Q 491.2 320.05 491.1 330.2
L 505.4 330.35 505.4 313.1
M 505.4 305.45
L 505.4 303.55 492.3 303.55
Q 492.3 304.4 492.15 305.45
L 505.4 305.45
M 505.4 309.2
L 505.4 307.45 492 307.3
Q 491.9 308.25 491.9 309.2
L 505.4 309.2
M 521.35 319.1
L 521.35 315.9 516.4 315.9 516.25 318.05
Q 516.9 318.15 517.7 318.45
L 517.7 330.35 520.25 330.35
Q 520.4 330.05 520.4 329.65 520.5 327.65 520.65 325.9
L 520.65 318.95
Q 520.8 318.95 520.95 318.95 521.05 318.95 521.35 319.1
M 516.5 310.25
L 516.5 312 521.35 312 521.35 310.25 516.5 310.25
M 511.4 313.1
L 508.5 313.1 508.5 330.35 511.4 330.35 511.4 313.1
M 508.5 303.55
L 508.5 305.45 511.4 305.45 511.4 303.55 508.5 303.55
M 508.5 307.45
L 508.5 309.2 511.4 309.2 511.4 307.45 508.5 307.45
M 516.5 308.25
L 521.35 308.25 521.35 306.4 516.65 306.4 516.5 308.25
M 545.15 343.6
L 542.2 343.6
Q 542.2 343.85 542.2 344.1
L 542.2 354.05
Q 543.55 353.2 544.9 352.4 545 352 545.15 351.6
L 545.15 343.6
M 542.2 337.95
L 542.2 339.85 545.15 339.85 545.15 337.95 542.2 337.95
M 545.15 336.1
L 545.15 334.2 542.2 334.2 542.2 336.1 545.15 336.1
M 535.9 310.15
L 535.9 311.85 539.25 311.85 539.25 310.15 535.9 310.15
M 528.4 312
L 528.4 310.25 524.95 310.25 524.95 312 528.4 312
M 528.4 319.75
L 528.4 315.9 524.95 315.9 524.95 319.5
Q 526.7 319.65 528.4 319.75
M 535.9 315.75
L 535.9 319.5
Q 537.5 319.35 539.15 319.25
L 539.25 319.25 539.25 315.75 535.9 315.75
M 528.4 308.25
L 528.4 306.4 524.95 306.4 524.95 308.25 528.4 308.25
M 539.25 308.1
L 539.25 306.25 535.9 306.25 535.9 308.1 539.25 308.1
M 547.55 317.9
L 547.4 315.75 543.15 315.75 543.15 318.7
Q 542.75 318.85 542.45 318.85 542.6 321.65 542.45 324.45 542.35 327 542.2 329.25
L 542.2 330.35 545.15 330.35 545.15 318.45
Q 546.35 318.15 547.55 317.9
M 547.3 311.85
L 547.3 310.15 543.15 310.15 543.15 311.85 547.3 311.85
M 547.3 308.1
L 547.15 306.25 543.15 306.25 543.15 308.1 547.3 308.1
M 528.3 285.35
L 524.8 285.35 524.95 302.65 528.4 302.65 528.3 285.35
M 539.15 285.25
L 535.8 285.25 535.9 302.5 539.25 302.5 539.15 285.25
M 542.2 285.35
L 542.35 285.5
Q 542.6 285.9 543 286.2
L 543.15 302.5 547 302.5 546.9 299.85 546.75 294.45
Q 546.6 289.8 543.15 286.3 542.6 284.85 542.2 283.5
L 542.2 285.35
M 537.4 278.7
L 539.15 278.7 539.15 277.1
Q 538.3 277.9 537.4 278.7
M 539.15 283.5
L 539.15 282.55 536.7 282.55
Q 537.9 282.95 539.15 283.5
M 539.15 274.95
L 539.15 273.05 537.5 271.6
Q 538.6 274 539 274.95
L 539.15 274.95
M 536.85 269.3
Q 536.05 267.3 534.15 264.25 531.5 259.8 528.55 258.6
L 528.15 267.7
Q 526.8 268.5 525.5 269.2
L 536.85 269.3
M 521.2 285.65
Q 519.3 287.25 518.25 289.1 518.1 289.1 518 289.1 517.85 289.1 517.7 289.25
L 517.7 290.2
Q 516.9 292.2 516.9 294.6
L 516.8 302.65 521.35 302.65 521.2 285.65
M 509.7 291.4
Q 509 291.4 508.5 291.4
L 508.5 299.85 511.4 299.85 511.4 291.15
Q 510.35 291.4 509.7 291.4
M 511.4 282.55
L 508.5 282.55 508.5 287
Q 509.95 286.45 511.4 285.9
L 511.4 282.55
M 508.5 276.8
L 508.5 278.7 511.4 278.7 511.4 276.8 508.5 276.8
M 523.85 276.8
L 523.85 278.7 529.9 278.7
Q 531.65 277.75 533.1 276.95
L 523.85 276.8
M 517.7 283.75
Q 519.2 283.1 520.65 282.7
L 520.65 282.55 517.7 282.55 517.7 283.75
M 520.65 276.8
L 517.7 276.8 517.7 278.7 520.65 278.7 520.65 276.8
M 517.7 274.95
L 520.65 274.95 520.65 273.05 517.85 273.05 517.7 273.2 517.7 274.95
M 523.85 273.05
L 523.85 274.95 535.5 274.95
Q 536.45 274 536.85 273.05
L 523.85 273.05
M 503 278.7
Q 503.95 277.35 504.75 276.8
L 500.6 276.8
Q 500.45 277.9 500.45 278.7
L 503 278.7
M 498.6 278.7
L 498.7 278.7
Q 499 278.3 499 277.9 498.85 278.3 498.6 278.7
M 500.2 282.55
Q 500.05 282.95 500.05 283.1 500.3 282.7 500.45 282.55
L 500.2 282.55
M 498.3 282.55
L 496.7 282.55
Q 494.15 289 492.8 299.7
L 505.4 299.85 505.4 291.4 505.25 292.45
Q 505.15 290.45 505 290.35 504.45 289.5 504.45 285.5 504.45 284.7 504.6 283.9 504.75 283.35 504.75 282.55
L 504.45 282.55
Q 503.55 283.75 502.2 285.25 500.2 287.4 499.1 287.8 498.7 287 498.6 284.85 498.3 283.25 498.3 282.55
M 505.4 274.95
L 505.4 273.05 501 273.05
Q 500.85 273.75 500.7 274.55 500.7 274.65 500.7 274.95
L 505.4 274.95
M 505.4 269.2
L 505.4 266.75
Q 503.4 268 501.9 269.2
L 505.4 269.2 Z"/>

<path fill="#FFFF00" fill-opacity="0.5215686274509804" stroke="none" d="
M 511.4 363.95
L 511.4 365.4
Q 514.65 364.75 517.7 364.05
L 517.7 363.95 517.7 360.05 517.7 354.15
Q 514.35 354.3 511.4 354.15
L 511.4 360.05 511.4 363.95
M 546.9 299.85
L 547 302.5 547.15 306.25 547.3 308.1 547.3 310.15 547.3 311.85 547.4 315.75 547.55 317.9
Q 546.35 318.15 545.15 318.45
L 545.15 330.35 545.15 334.2 545.15 336.1 545.15 337.95 545.15 339.85 545.15 343.6 545.15 351.6
Q 545.4 350.3 545.7 349.1 549.95 333 549.95 320.15 549.95 312.4 546.9 299.85
M 531.75 281.9
Q 530.05 282.05 528.3 282.3
L 528.3 285.35 528.4 302.65 528.4 306.4 528.4 308.25 528.4 310.25 528.4 312 528.4 315.9 528.4 319.75
Q 532.05 319.75 535.9 319.5
L 535.9 315.75 535.9 311.85 535.9 310.15 535.9 308.1 535.9 306.25 535.9 302.5 535.8 285.25 535.8 282.3
Q 534.15 281.9 532.45 281.9 532.15 281.9 531.75 281.9
M 513.85 290.45
Q 512.5 290.85 511.4 291.15
L 511.4 299.85 511.4 303.55 511.4 305.45 511.4 307.45 511.4 309.2 511.4 313.1 511.4 330.35 511.4 331
Q 512.1 330.85 512.9 330.85 515.7 330.85 517.7 330.85
L 517.7 330.35 517.7 318.45
Q 516.9 318.15 516.25 318.05
L 516.4 315.9 516.5 312 516.5 310.25 516.5 308.25 516.65 306.4 516.8 302.65 516.9 294.6
Q 516.9 292.2 517.7 290.2
L 517.7 289.25
Q 516.65 289.5 513.85 290.45
M 517.7 276.8
L 517.7 274.95 517.7 273.2
Q 513.95 274.65 511.4 275.05
L 511.4 276.8 511.4 278.7 511.4 282.55 511.4 285.9
Q 514.75 284.85 517.7 283.75
L 517.7 282.55 517.7 278.7 517.7 276.8 Z"/>

<path fill="#FF6600" fill-opacity="0.5019607843137255" stroke="none" d="
M 508.5 365.8
L 508.5 363.95 508.5 360.05 508.5 354.05
Q 506.85 353.9 505.4 353.75
L 505.4 360.05 505.4 363.95 505.4 365.8 505.4 366.2
Q 507 366.05 508.5 365.8
M 523.85 353.9
Q 522.4 353.9 520.65 354.05
L 520.65 360.05 520.65 363.25
Q 522.25 362.75 523.85 362.3
L 523.85 360.05 523.85 353.9
M 520.95 319.1
L 521.35 319.1
Q 521.05 318.95 520.95 318.95 520.8 318.95 520.65 318.95
L 520.65 325.9
Q 520.8 324.6 520.8 323.5 520.8 320.85 520.95 319.1
M 542.2 344.1
Q 542.05 345.2 541.55 346.25 540.75 348.15 539.15 349.6
L 539.15 355.75
Q 540.75 354.95 542.2 354.05
L 542.2 344.1
M 542.2 330.35
L 542.2 329.25
Q 541.8 334.1 541.25 338.25 541.95 339.85 542.2 341.3
L 542.2 339.85 542.2 337.95 542.2 336.1 542.2 334.2 542.2 330.35
M 539.65 276.55
Q 539.4 275.75 539.15 275.05
L 539.15 277.1 539.15 278.7 539.15 282.55 539.15 283.5 539.15 285.25 539.25 302.5 539.25 306.25 539.25 308.1 539.25 310.15 539.25 311.85 539.25 315.75 539.25 319.25
Q 540.75 319.1 542.2 318.95 542.35 318.85 542.45 318.85 542.75 318.85 543.15 318.7
L 543.15 315.75 543.15 311.85 543.15 310.15 543.15 308.1 543.15 306.25 543.15 302.5 543 286.2
Q 542.6 285.9 542.35 285.5
L 542.2 285.35 542.2 283.5
Q 542.05 282.95 541.8 282.55 540.75 279.35 539.65 276.55
M 508.5 291.4
Q 505.65 292.75 505.4 291.4
L 505.4 299.85 505.4 303.55 505.4 305.45 505.4 307.45 505.4 309.2 505.4 313.1 505.4 330.35 505.4 331.15
Q 506.75 331.15 508.5 331.15
L 508.5 330.35 508.5 313.1 508.5 309.2 508.5 307.45 508.5 305.45 508.5 303.55 508.5 299.85 508.5 291.4
M 524.8 285.35
L 524.8 283.5
Q 522.95 284.3 521.2 285.65
L 521.35 302.65 521.35 306.4 521.35 308.25 521.35 310.25 521.35 312 521.35 315.9 521.35 319.1 521.45 319.1
Q 521.85 319.25 522.25 319.25 523.05 319.35 523.85 319.35 524.4 319.5 524.95 319.5
L 524.95 315.9 524.95 312 524.95 310.25 524.95 308.25 524.95 306.4 524.95 302.65 524.8 285.35
M 523.85 270.1
Q 522.15 271.05 520.65 271.85
L 520.65 273.05 520.65 274.95 520.65 276.8 520.65 278.7 520.65 282.55 520.65 282.7
Q 520.8 282.7 520.95 282.55 522.4 282.05 523.85 281.35
L 523.85 278.7 523.85 276.8 523.85 274.95 523.85 273.05 523.85 270.1
M 506.45 268.25
L 506.45 266.1
Q 505.95 266.35 505.4 266.75
L 505.4 269.2 505.4 273.05 505.4 274.95 505.4 276.55
Q 505.65 276.4 505.95 276.4 506.85 276.4 507 276.7 507 276.95 506.85 277.1 506.85 278.55 506.6 282.15 506.6 282.45 506.45 282.55 506.2 285.9 506.2 287.4
L 507.4 287.4
Q 507.95 287.1 508.5 287
L 508.5 282.55 508.5 278.7 508.5 276.8 508.5 274.95
Q 506.85 274.4 506.2 272.8
L 506.45 268.25 Z"/>

<path fill="#FFCC66" stroke="none" d="
M 535.9 319.5
Q 532.05 319.75 528.4 319.75 526.7 319.65 524.95 319.5 524.4 319.5 523.85 319.35 523.05 319.35 522.25 319.25 521.85 319.25 521.45 319.1
L 521.35 319.1 520.95 319.1
Q 520.8 320.85 520.8 323.5 522.25 324.2 523.85 324.7 530.05 326.45 539.15 325.1 540.6 324.85 542.2 324.6 542.35 324.45 542.45 324.45 542.6 321.65 542.45 318.85 542.35 318.85 542.2 318.95 540.75 319.1 539.25 319.25
L 539.15 319.25
Q 537.5 319.35 535.9 319.5
M 490.3 256.45
Q 490.3 256.05 490.15 255.95 490 255.8 490 255.65 489.35 255.95 487.85 256.05 486.8 256.2 486 256.35 486.8 257.15 487.35 258.05 487.45 258.35 487.6 258.5 488.4 258.5 489.1 258.05 489.35 257.95 489.6 257.8 490.3 257.15 490.3 256.45
M 524.55 242
L 524.25 241.6
Q 523.85 241.6 523.6 241.6 522.4 241.6 521.6 241.35 521.05 246.05 520.25 247.75 518.65 251.65 514.35 255.15 512.65 256.6 510.1 258.05 508.75 258.9 507.15 259.7 506.75 259.95 506.35 260.1 505 260.75 503.8 261.3 504.35 261.55 504.75 261.55 505.65 261.8 506.2 261.95 506.75 262.1 506.85 262.2
L 506.85 263.55 506.6 263.7 506.45 266.1 506.45 268.25
Q 507.55 268 508.5 267.6 509.95 266.9 511.4 266.1 514.75 264.1 517.7 260.9 518 260.6 518.1 260.35 523.05 254.6 526.8 245.35 526.7 244.85 526.3 244.4 525.2 243.35 524.55 242
M 439.55 333.8
Q 435.15 332.9 433.95 335.3 433.15 337.15 434.75 339.7 436.35 342.25 438.1 344.65 439.85 346.95 452.8 349.2 451.2 348.65 449.85 347.75 446.65 345.75 445.85 343.85 445.3 342.65 444.9 339.55 444.65 336.35 445.2 334.75 442.75 334.5 439.55 333.8
M 473.55 339.15
L 473.4 339.15
Q 473.3 339.15 473.15 339.05 473.3 339.85 473.15 342.9 472.75 346 471.95 348.95 473.4 348.55 474.75 348.15 482 348.65 488.8 349.9 489.5 350 490.55 350.3 493.65 350.8 499.65 352.15 499.6943359375 352.15 499.8 352.2 494.441796875 349.5466796875 490.7 348 489.6 347.6 488.65 347.2 484.25 345.45 481.6 344.1 478.75 342.8 477.3 342.1 475.7 341.2 473.55 339.15
M 458.95 332.1
Q 458.45 332.1 456.4 331.7 454.15 331.3 453.9 330.6 453.75 330.35 454.3 329.15 454.55 328.45 454.7 328.2 453.9 328.05 452.8 328.05 446.8 328.2 445.2 327.8
L 445.3 330.2
Q 447.7 331.8 449.35 332.2 451.05 332.6 454.4 331.95
L 454.55 333.95 458.95 332.1
M 476.75 242.4
Q 477.45 242.95 478.65 243.5 479.15 243.75 479.85 244 481.85 244.85 482.4 245.25 483.05 245.75 483.45 246.7 484.1 246.7 485.05 245.5 485.2 245.25 485.35 245.1 486.25 243.75 486.25 242.8 484.65 242.95 482 242.8 477.85 242.55 477.05 242.3
L 476.75 242.4
M 528.8 226.6
L 528.8 226.5
Q 528.3 226.35 527.9 226.35 526.7 226.35 525.35 228.5 524.15 230.35 524 231.45 524 231.7 524.65 232.8 525.35 233.85 525.35 234.25 525.2 235.6 524.4 236 524 236.25 523.2 236.25 522.65 236.25 522.55 236.15 522.25 235.85 522.15 235.7
L 522.15 236.4
Q 522.15 238.15 525.05 238.15 526.8 238.15 527.2 236.4 527.5 235.45 527.5 232.5 527.35 231.15 528.95 229.55 529.9 228.75 530.05 228.35 530.55 227.55 530.45 226.9
L 530.3 226.75
Q 530.15 226.75 530.15 226.6
L 529.5 226.6 528.8 226.6
M 482.65 222.6
L 482.5 222.6
Q 482.5 223.4 482.8 224.2 483.05 223.15 483.45 221.65 484.25 219 484.65 217.8 485.6 218.45 487.05 219.65 488.55 220.6 490.3 220.45 490.3 219.8 490.4 218.45 490.7 217.1 490.7 216.45 492 218.35 494.7 219.15 491.9 219.55 490.3 221.95 488.65 224.35 482.8 234.25 484.65 232.4 486.95 231.45 490.15 230.1 495.65 230.1 501.9 230.1 505.95 232.4 508.6 234 510.35 236.4
L 510.5 236.4 510.2 236.55
Q 510.35 236.8 510.5 237.35
L 510.2 237.35
Q 510.2 239.35 509.15 241.9 507.8 244.85 506.2 245.65
L 505 246.45 508.2 245.9
Q 508.75 245.5 510.6 244.4 511.85 243.9 513.45 242.15
L 513.7 242.15 513.7 242.3
Q 513.7 242.8 513.3 243.5 513.05 243.9 512.75 244.3
L 514.25 243.75
Q 517.3 241.5 522.25 233.85 522.95 232.8 523.45 230.75 524.25 227.85 524.4 227.45 525.05 225.55 526.15 224.75 527.35 223.7 529.5 223.7 529.9 223.7 530.45 223.8 530.85 223.95 531.25 223.95
L 531.25 223.8
Q 530.3 221.55 528.4 221.55 524.65 221.55 523.6 223.8 523.2 224.75 522.8 226.5 522.4 228.9 522.15 229.85 521.45 232.4 519.45 235.2 518.25 236.8 517.7 237.6 516.65 239.05 515.95 240
L 516.1 239.2
Q 516.1 239.05 517.3 236.4 518.25 234.25 518.1 233.3
L 518 233.3
Q 516.8 237.05 514.9 239.45 512.65 242.4 509.95 242.95 510.75 241.9 512.25 239.75 513.45 237.85 514.1 236.65 515.95 233.05 516.25 229.15 516.25 228.5 515.7 223.95
L 515.55 223.95
Q 513.85 222.75 511.7 219.55 508.5 214.7 508.35 214.6 508.5 214.7 510.6 218.75 512.1 221.65 512.75 222.35
L 512.1 222.35
Q 511 222.35 509.7 221.95 508.2 221.55 506.45 220.6 504.2 220.2 500.7 219.55 500.7 219.95 500.7 220.2
L 500.7 221
Q 499 220.35 496.95 219.15 495.9 218.45 494.85 217.65 491.1 215 489.75 212.95 489.75 213.1 489.6 213.25
L 489.5 213.4
Q 488.8 217 489.2 219.4 485.35 215.25 485.05 212.85 482.8 219.95 482.5 222.05 482.65 222.35 482.65 222.6 Z"/>

<path fill="#FF9900" stroke="none" d="
M 505.95 276.4
Q 505.65 276.4 505.4 276.55
L 505.4 276.8 504.75 276.8
Q 503.95 277.35 503 278.7 502.85 278.703125 502.85 278.8 502.05 280.15 500.45 282.55 500.3 282.7 500.05 283.1 500.05 282.95 500.2 282.55 500.2 281.5 500.45 278.7 500.45 277.9 500.6 276.8
L 499.8 276.8
Q 499.4 277.35 499 277.9 499 278.3 498.7 278.7 498.3 279.75 498.3 282.3 498.3 282.45 498.3 282.55 498.3 283.25 498.6 284.85 498.7 287 499.1 287.8 500.2 287.4 502.2 285.25 503.55 283.75 504.45 282.55 504.6 282.3 504.75 282.15 504.75 282.3 504.75 282.55 504.75 283.35 504.6 283.9 504.45 284.7 504.45 285.5 504.45 289.5 505 290.35 505.15 290.45 505.25 292.45
L 505.4 291.4
Q 505.65 292.75 508.5 291.4 509 291.4 509.7 291.4 510.35 291.4 511.4 291.15 512.5 290.85 513.85 290.45 516.65 289.5 517.7 289.25 517.85 289.1 518 289.1 518.1 289.1 518.25 289.1 519.3 287.25 521.2 285.65 522.95 284.3 524.8 283.5 526 282.95 527.2 282.55 527.75 282.45 528.3 282.3 530.05 282.05 531.75 281.9 532.15 281.9 532.45 281.9 533.5 281.35 534.3 280.8 536.05 279.75 537.4 278.7 538.3 277.9 539.15 277.1
L 539.15 275.05 539 274.95
Q 538.6 274 537.5 271.6
L 537.1 272.65
Q 537 272.8 537 272.95 536.85 272.95 536.85 273.05 536.45 274 535.5 274.95 534.45 275.85 533.1 276.95 531.65 277.75 529.9 278.7 527.35 280 524 281.35
L 523.85 281.35
Q 522.4 282.05 520.95 282.55 520.8 282.7 520.65 282.7 519.2 283.1 517.7 283.75 514.75 284.85 511.4 285.9 509.95 286.45 508.5 287 507.95 287.1 507.4 287.4
L 506.2 287.4
Q 506.2 285.9 506.45 282.55 506.6 282.45 506.6 282.15 506.85 278.55 506.85 277.1 507 276.95 507 276.7 506.85 276.4 505.95 276.4 Z"/>

<path fill="#000000" stroke="none" d="
M 503 180.85
Q 503.95 181.1 506.2 182.75 507.8 183.8 509.4 185.25 511 186.75 511 188.9 507.15 186.5 503.55 184.35 499.9 182.35 493.65 182.35 487.45 182.45 486.15 183
L 486 183
Q 485.45 183 485.85 183.15
L 486 183.15
Q 487.05 183.55 490.4 184.75 493.35 185.8 495.75 187 497.1 187.55 498.2 188.2 498.3 188.35 498.2 188.35
L 497.9 188.35
Q 496.55 188.2 495.25 188.1 493.1 187.8 492 187.8 486.15 187.8 484.4 187.95 481.45 188.1 479.45 188.75 477.55 189.55 474.9 191.3 473.55 192.25 469.25 193.95 472.35 195.45 472.5 195.45 472.6 195.3 473.95 195.45 475.3 195.7 475.45 195.7 475.95 195.7 478.35 195.85 475.85 196.5 474.35 197.05 473 197.45 465.65 195.05 467.95 199.05 470.75 200.25 471 200.4 471.15 200.55 473.4 201.6 473.8 201.75 473.3 201.6 472.6 201.45
L 472.5 201.45
Q 471.4 201.35 470.85 201.35 470.75 201.35 470.6 201.35 467.8 201.35 464.6 201.85 470.6 204 471.4 204.7 472.2 205.5 473.15 206.55 474.2 207.6 474.35 207.75
L 474.1 207.9 474.2 207.9
Q 472.2 208.55 470.35 210.45 468.45 212.7 465.8 213.8 468.6 216.2 471.95 216.7 475.15 217.4 475.45 216.85 476.75 218.75 477.15 219.55 477.55 220.35 480 222.2 482.4 224.1 482.8 224.2 482.5 223.4 482.5 222.6 482.5 222.35 482.5 222.05 482.8 219.95 485.05 212.85 485.35 215.25 489.2 219.4 488.8 217 489.5 213.4
L 489.6 213.25
Q 489.75 213.1 489.75 212.95 491.1 215 494.85 217.65 495.9 218.45 496.95 219.15 499 220.35 500.7 221
L 500.7 220.2
Q 500.7 219.95 500.7 219.55 500.6 219.15 500.3 218.75 500.2 218.45 499.4 217.4 498.2 215.5 498.2 213.8
L 498.2 212.55
Q 499.25 215.25 503.55 218.6 505 219.8 506.45 220.6 508.2 221.55 509.7 221.95 511 222.35 512.1 222.35
L 512.75 222.35
Q 512.1 221.65 510.6 218.75 508.5 214.7 508.35 214.6 508.5 214.7 511.7 219.55 513.85 222.75 515.55 223.95
L 515.7 223.95
Q 516.25 228.5 516.25 229.15 515.95 233.05 514.1 236.65 513.45 237.85 512.25 239.75 510.75 241.9 509.95 242.95 512.65 242.4 514.9 239.45 516.8 237.05 518 233.3
L 518 233.05
Q 518.1 233.2 518.1 233.3 518.25 234.25 517.3 236.4 516.1 239.05 516.1 239.2
L 515.95 240
Q 516.65 239.05 517.7 237.6 518.25 236.8 519.45 235.2 521.45 232.4 522.15 229.85 522.4 228.9 522.8 226.5 523.2 224.75 523.6 223.8 524.65 221.55 528.4 221.55 530.3 221.55 531.25 223.8 531.5 224.5 531.65 225.3 532.15 227.45 532.05 230.1 531.9 234.4 529.5 237.85 527.1 241.35 524.25 241.6
L 524.55 242
Q 525.2 243.35 526.3 244.4 526.7 244.85 526.8 245.35 527.2 245.9 527.5 246.55 528.55 249.4 528.3 251.25 528.15 253.25 527.75 254.6 527.35 255.8 525.9 258.2 525.9 258.5 525.75 258.6
L 525.6 258.75 525.6 258.9
Q 525.35 259.15 526.3 258.9 526.7 258.75 527.5 258.35 528 257.95 528.7 257.25 528.7 257.15 528.8 257.15 530.05 255.95 530.55 254.35 530.95 253.65 531.1 253.05 530.95 253.7 531.1 254.45 531.1 256.45 532.3 258.5 533.75 261.4 536.05 262.6 535.5 260.75 535.8 255 535.8 254.6 535.8 254.35
L 535.9 254.05
Q 536.05 249.1 535.5 247.25 536.7 247.65 537.4 250.3 537.9 252.6 537.8 254.6
L 537.9 254.6
Q 538.45 253.5 539.15 250.7 539.8 247.65 539.8 245.9 539.4 241.35 539.15 240.8 538.85 240.15 538.45 239.05 537.9 238 537.65 236.65 537.25 235.05 537.25 233.45 537.4 231.05 538.7 226.9 540.2 222.05 540.75 221 541.15 219.8 542.05 215.1 542.85 210.3 546.1 205.5 541.55 208.55 540.75 209.1
L 540.6 209.1
Q 541.4 206.95 542.85 203.35 544.35 200.25 545.4 198.65
L 541.25 198.65
Q 542.85 197.3 543.4 196.1 544.15 194.2 544.45 194.1 542.85 194.35 542.75 194.35 541.95 194.65 541.4 194.65 540.75 194.65 540.6 194.65 540.05 194.65 538.7 195.85 540.05 193.85 541.15 192.9 541.95 192.25 542.75 192.25 538.45 190.5 533.35 192.5 533.25 192.65 533.1 192.65
L 533.25 192.5 533.35 192.35
Q 535.1 190.65 536.45 189.7 538.05 188.35 540.35 188.1 536.45 187.7 534.7 187.55 533.1 187.55 531.65 187.8 530.3 188.1 528.3 188.35 526.3 188.75 524 189.55 521.75 190.35 519.85 187.15 518 184.05 515.15 182.75 509.8 180.3 503 180.85
M 501.25 195.85
Q 501.8 195.85 503.4 195.85 503.8 195.85 505.15 196 506.6 196.1 507.4 196.1
L 507.4 195.85
Q 506.35 195.05 505 194.25 503.05 193.1 501.7 193.05
L 504.2 193.05
Q 505.65 193.05 508.2 193.55 509.4 193.85 512.65 194.9
L 514.65 194.9
Q 514.65 193.55 514.1 192.75 513.95 192.65 513.45 192.1 514.35 192.65 517.05 194.65 519.85 196.65 520.5 197.05
L 520.4 198.65 520.1 198.65
Q 520.1 198.1 519.6 197.85 518.8 197.3 518.5 197.05
L 516.9 197.05 516.8 197.45
Q 518.1 198 518.25 199.45 518.25 201.05 518.25 201.75 515.95 199.3 514.35 199.3 514.35 200.15 515.05 201.45 515.55 202.55 515.3 203.75
L 515.15 203.75
Q 512.65 200.15 509 198.65 505.55 197.05 499.1 196.8 499.65 196.1 501.25 195.85
M 528.4 200.4
Q 526.95 201.2 526.55 202.15 528.55 201.75 531.65 202.8 534.05 203.6 535.65 204.55
L 535.65 204.95
Q 534.85 204.55 532.85 204.55 530.7 204.55 529.75 204.95 530.3 205.5 531.1 207.35 531.9 209.35 532.15 209.9
L 532.05 210.05
Q 530.85 208.7 530.05 207.9 528.8 206.55 527.5 205.75 524.25 203.45 519.85 204.3 520.5 203.35 520.95 202.95 521.85 202.15 523.35 201.45 522.65 201.45 522 201.35 521.6 201.05 521.05 200.95
L 521.05 200.55
Q 523.45 200.55 524.95 199.85 526.55 199.3 527.6 199.3
L 530.95 199.3
Q 529.2 199.85 528.4 200.4 Z"/>

<path fill="#FFFFFF" stroke="none" d="
M 526.55 202.15
Q 526.95 201.2 528.4 200.4 529.2 199.85 530.95 199.3
L 527.6 199.3
Q 526.55 199.3 524.95 199.85 523.45 200.55 521.05 200.55
L 521.05 200.95
Q 521.6 201.05 522 201.35 522.65 201.45 523.35 201.45 521.85 202.15 520.95 202.95 520.5 203.35 519.85 204.3 524.25 203.45 527.5 205.75 528.8 206.55 530.05 207.9 530.85 208.7 532.05 210.05
L 532.15 209.9
Q 531.9 209.35 531.1 207.35 530.3 205.5 529.75 204.95 530.7 204.55 532.85 204.55 534.85 204.55 535.65 204.95
L 535.65 204.55
Q 534.05 203.6 531.65 202.8 528.55 201.75 526.55 202.15
M 503.4 195.85
Q 501.8 195.85 501.25 195.85 499.65 196.1 499.1 196.8 505.55 197.05 509 198.65 512.65 200.15 515.15 203.75
L 515.3 203.75
Q 515.55 202.55 515.05 201.45 514.35 200.15 514.35 199.3 515.95 199.3 518.25 201.75 518.25 201.05 518.25 199.45 518.1 198 516.8 197.45
L 516.9 197.05 518.5 197.05
Q 518.8 197.3 519.6 197.85 520.1 198.1 520.1 198.65
L 520.4 198.65 520.5 197.05
Q 519.85 196.65 517.05 194.65 514.35 192.65 513.45 192.1 513.95 192.65 514.1 192.75 514.65 193.55 514.65 194.9
L 512.65 194.9
Q 509.4 193.85 508.2 193.55 505.65 193.05 504.2 193.05
L 501.7 193.05
Q 503.05 193.1 505 194.25 506.35 195.05 507.4 195.85
L 507.4 196.1
Q 506.6 196.1 505.15 196 503.8 195.85 503.4 195.85 Z"/>
</g>

<g id="Layer0_0_MEMBER_0_MEMBER_0_MEMBER_0_FILL">
<path fill="#FFFFFF" stroke="none" d="
M 497 227.55
Q 496.8 227.4 496.5 227.35 496.1 227.3 495.9 227.6 495.8 227.8 495.8 228.2 495.75 229.15 496.45 229.15 496.8 229.15 497 228.8 497.15 228.55 497.2 228.2 497.2 227.75 497 227.55 Z"/>

<path fill="#000000" stroke="none" d="
M 505.75 227.05
L 497 227.55
Q 497.2 227.75 497.2 228.2 497.15 228.55 497 228.8 496.8 229.15 496.45 229.15 495.75 229.15 495.8 228.2 495.8 227.8 495.9 227.6
L 494.9 227.65 491.9 231.6 505.75 227.05 Z"/>
</g>

<g id="Layer0_0_MEMBER_0_MEMBER_0_MEMBER_1_FILL">
<path fill="#000000" stroke="none" d="
M 492.75 223.2
Q 499.35 220.6 506.65 220.6 499.05 218.3 487.7 220.6 486.75 222.15 492.75 223.2 Z"/>
</g>

<g id="Layer0_0_MEMBER_1_MEMBER_0_FILL">
<path fill="#CCFF00" stroke="none" d="
M 280.75 360.6
Q 280.65 360.75 280.5 361.15 283.15 361.95 285.85 362.75 286.8 360.2 286.1 353.65
L 285.45 353.75 284.9 354.55
Q 283.85 356.05 281.3 358.85 281.15 359.65 280.75 360.6 Z"/>

<path fill="#FFCC66" stroke="none" d="
M 294.55 337.2
Q 296.7 332.1 298.45 327.8 298.95 326.85 299.35 325.8 292.95 324.85 287.05 322.6 283.55 321 280.25 318.95 277.3 316.95 274.6 314.55 273.95 316.3 273.25 318.15 271.8 322.6 270.05 327.65 268.7 331.95 267.4 336.5 266.45 339.85 265.25 343.75 264.85 344.95 264.45 346 263.75 346.95 263.35 348.4 263.1 349.5 262.95 350 262.95 349.9 262.85 349.9 262.55 350.55 261.9 351.65 261.5 352.15 261.1 352.85 270.3 358.05 280.5 361.15 280.65 360.75 280.75 360.6 281.15 359.65 281.3 358.85 283.85 356.05 284.9 354.55
L 285.45 353.75 285.3 353.75
Q 285.2 353.75 284.1 355.1 282.25 357 285.85 351.65 286.65 350.4 287.6 349.2 288.1 348.4 288.55 347.75 293.35 340.9 294.55 337.2
M 334.95 356.3
Q 335.25 357.65 335.5 359.25 335.9 360.85 336.3 362.35 337.75 361.95 339.1 361.55 338.3 360.2 337.9 359.25 337.1 358.3 334.95 356.3
M 325.75 285.8
Q 326.55 286.3 326.95 287.1 327.6 288.45 327.6 289.95 327.6 291.65 326.8 293.15
L 334.45 293.15
Q 329.9 287.25 326.15 282.85 322.1 277.9 319.45 275.5
L 319.85 271.6 304.85 265.3
Q 304.7 265.7 304.7 266 305 266.25 305.25 266.65 305.4 266.8 305.4 266.9 306.3 268 306.6 269.6 308.35 268.65 310.35 268.65 312.75 268.65 314.75 270 315.3 270.25 315.7 270.65 315.95 271.05 316.25 271.35 317.3 272.55 317.7 274.3 317.85 274.95 317.85 275.6 317.85 275.75 317.85 276 318.75 276.15 319.45 276.4 320.65 276.95 321.7 277.9 322.5 278.7 323.05 279.5 323.2 279.65 323.2 279.75 323.7 280.95 323.7 282.55 323.7 283 323.6 283.65 323.6 283.9 323.45 284.3 324.8 284.7 325.75 285.8
M 329.5 231.3
Q 330.4 231.7 331.1 232.5 334.05 234.95 334.7 242.05 333.9 240.7 332 239.75 330.7 238.95 328.4 238.8 328.15 239.6 327.6 240.15 327.6 240.3 327.45 240.3 326.65 241.2 325.35 241.2 324.1 241.2 323.2 240.4
L 323.2 240.3 323.2 240.15
Q 322.8 239.75 322.5 239.2 318.75 239.75 316.1 241.6
L 316.5 242.05
Q 315.95 241.75 315.85 241.35 315.15 243.35 314.75 244.3 314.35 244.95 313.55 247.8 312.5 250.7 312.5 251.4 312.5 254.2 313.7 255.95 315 257.95 317.45 257.95 317.94609375 257.95 317.95 257.8
L 317.95 257.95
Q 317.9548828125 257.8 318.1 257.8 318.25 257.4 318.35 257.15 318.75 256.35 318.75 255.4 318.75 253.95 318.1 253 317.55 252.45 316.75 252.45 316.1 252.45 315.85 253 315.55 253.55 315.55 254.05 315.55 254.45 315.85 254.75
L 315.55 254.85
Q 315.3 254.6 315.15 254.35 314.75 253.65 314.75 252.75 314.75 252.05 315.85 251.55 316.5 251.25 317.05 251.25 317.55 251.25 318.25 251.65
L 318.35 251.8 318.5 251.8
Q 319.55 251.55 321.05 253.15 322.65 254.85 322.65 256.5 322.65 257.3 320.8 260.35 320.5 261.45 317.55 261.55 316.75 261.85 315.85 261.85 313.3 261.85 311 259.55 309 257.4 307.95 254.45
L 307.95 254.35
Q 307.94765625 254.45 307.8 254.45 307.8 254.75 307.65 254.85 306.2 259.8 305.4 263.05
L 320.25 268.5 321.05 268.8
Q 323.7 269.2 324.8 269.45 326.25 269.75 327.85 270 329.2 270.15 330.3 270 330.7 269.6 331.35 269.2 331.75 268.9 332.15 268.8 332.3 268.65 332.55 268.4 333.1 268 333.2 267.7 333.35 264.5 336.05 262.75
L 336.15 262.75 336.05 262.65
Q 331.6 261.55 332.3 258.35 332.15 258.2 330.7 257.8 332.3 258.2 332.4 258.2 335.9 256.1 338.85 257
L 339 256.9
Q 338.85 256.6 338.6 255.95 338.45 255.4 338.3 254.45
L 338.3 254.35
Q 337.9 254.45 336.55 253.4 335.25 252.35 335.25 251.8 335.25 251 335.75 250.85 336.15 250.85 336.95 250.6 338.45 250.45 339.1 250.2 340.05 249.9 341.65 249.4 344.05 248.7 344.2 248.7
L 344.35 248.7
Q 344.6 248.45 345 248.05 345.25 247.8 345.25 247 345.25 246.15 344.2 246.05 343.25 245.75 341.65 244.55 340.05 243.25 339.8 242.85
L 339.5 242.55
Q 339 242.05 338.6 241.9 337.9 240 338.05 237.9 338.05 236.55 338.15 235.45
L 338.15 235.35
Q 333.75 231.6 331.5 229.45 327.45 225.3 326.65 221.4 326.25 223.55 324.4 225.55 321.85 228.25 321.6 228.65 321.3 229.05 321.05 229.45 321.2 229.45 321.45 229.3 324.5 228.25 324.1 230.1
L 332.15 230.65 332.15 231.45 329.5 231.3
M 302.85 261.7
Q 302.7046875 261.7 302.45 261.7 302.7046875 261.7046875 302.85 261.85
L 302.85 261.7 Z"/>

<path fill="#E30202" stroke="none" d="
M 313.7 273.2
Q 313 272.8 312.75 272.65
L 312.5 272.65
Q 312.6 272.8 313 273.2
L 313.15 273.2
Q 313.4 273.2 313.7 273.2
M 321.7 277.9
Q 320.65 276.95 319.45 276.4 318.75 276.15 317.85 276 317.3 275.9 316.75 275.9 316.1 275.9 315.55 276 315.3 276.15 314.9 276.15 314.6 277.75 316.75 279.1 316.9 279.25 317.05 279.25 317.3 279.35 317.45 279.5 318.25 279.65 318.5 279.9 318.35 279.5 318.25 278.55 319.15 278.7 320.4 280.15 320.5 280.45 320.8 280.7 321.05 280.7 321.2 280.7 322.4 280.7 322.5 280.7 322.9 280.45 323.2 279.75 323.2 279.65 323.05 279.5 322.5 278.7 321.7 277.9
M 306.6 269.6
Q 306.75 270 306.75 270.55 308.35 272 309.4 272.55 309.4 272.25 309.4 272.15 309.25 271.6 309 271.35
L 310.2 271.35
Q 310.2 271.45 310.6 271.45 311 271.6 311.15 271.6
L 311.3 271.6
Q 311.1470703125 271.5970703125 310.75 271.2 310.204296875 270.654296875 309.95 270.65 310.205078125 270.648046875 310.85 270.4
L 311 270.4 311.8 270.8
Q 312.6 271.2 313.55 272 314.1 272.65 314.5 273.05 315.15 272.95 315.4 272.8 316.25 272.4 316.25 271.35 315.95 271.05 315.7 270.65 315.3 270.25 314.75 270 312.75 268.65 310.35 268.65 308.35 268.65 306.6 269.6
M 304.7 266
Q 304.6 265.85 304.6 265.7 303.5 264.8 302.45 264.25 300.85 263.7 298.95 263.7
L 298.7 263.7
Q 297.9 263.7 297.35 263.85
L 296.95 263.95
Q 297.1 264.8 297.75 265.7 297.65 265.2 297.5 264.9 298.05 264.8 298.7 265.3 298.95 265.6 299.25 266 299.5 266.1 299.75 266.25 300.45 266.65 301.35 267.3 302.2 267.7 302.7 268.25 303.25 268.4 303.8 268.4 304.05 268.4 304.6 268.1 305.1 267.85 305.4 267.85
L 305.4 266.9
Q 305.4 266.8 305.25 266.65 305 266.25 304.7 266
M 324.8 315.35
Q 324.5 314.7 324 314.55 323.7 314.4 321.7 314.4 319.7 314.4 319.45 314.55 319.15 314.7 318.75 315.1 318.65 315.35 318.65 315.5 318.65 315.9 318.5 316.15 318.75 316.15 319.15 315.9 319.7 315.65 319.85 315.65 320.65 315.65 322.4 316.55 324 317.75 324.1 318.7 324.25 318.7 324.4 318.55 324.5 318.45 324.5 318.15
L 324.5 318.05
Q 324.95 317.25 324.95 316.15 324.95 315.9 324.8 315.35
M 326.55 312
Q 326.55 311.9 326.55 311.75 326.55 310.4 325.75 309.35 324.8 310.15 323.3 310.3 323.3 310.7 324.1 311.2
L 324.25 311.2
Q 324.65 311.5 324.95 311.6 325.75 312 326.55 312
M 326.25 302.5
Q 326.25 302.4 326.15 302.4 325.2 303.05 324 303.2 324.1 303.7 324.8 304.4 324.95 304.5 324.95 304.65 325.35 304.9 325.75 305.05 326 305.2 326.25 305.2 326.4 305.2 326.65 305.05
L 326.95 305.05 326.95 304.8 327.45 304.8
Q 327.2 303.45 326.25 302.5
M 324.65 296.2
Q 325.35 296.75 326 296.75
L 326.25 296.65
Q 326.55 296.65 326.8 296.5 326.95 296.5 326.95 296.35 327.75 296.1 328 295.95 327.75 295.15 326.95 294.35 326.65 293.95 326.25 293.8 326 293.95 325.75 294.1 324.95 295 323.85 295.4 324.1 295.8 324.65 296.2
M 325.05 286.7
L 325.2 286.6
Q 325.75 286.85 326 287.95 326.55 287.65 326.95 287.1 326.55 286.3 325.75 285.8 324.8 284.7 323.45 284.3 323.05 285.9 321.7 287 321.3 287.4 320.8 287.8 321.05 288.6 321.45 288.75 321.6 288.75 321.85 288.75 322.1 288.6 322.4 288.45 324.5 287.1 325.05 286.7
M 332.3 210.05
L 332.4 209.9
Q 335.75 215.4 339.25 219.8 339.5 220.35 339.8 220.75 340.3 221 341 221.15 341.5 221.3 341.9 221.55 341.9 221.3 341.9 221.15 341.4 218.45 340.05 214.85 338.45 210.85 334.3 207.1 330 203.35 327.45 201.9 325.05 200.55 320.5 199.35 315.95 198.15 313.4 198.25 310.85 198.4 306.75 199.75
L 306.85 199.85 306.75 199.85 306.75 199.75
Q 305.8 199.6 304.7 199.85 303.65 198.8 303.1 198.65 302.7 198.65 300.95 198.8 299.35 198.95 297.5 199.2 295.9 199.6 291.35 202.3 286.9 204.95 284.5 207.9 282.1 210.7 279.7 214.3 279.55 214.45 279.4 214.85 277.4 218.35 275.8 225.95 275.4 227.85 275.15 229.7 276.2 232.1 278.1 234.65 282.25 240.55 286.65 240.55 291.45 240.55 296.7 235.2 298.05 233.85 300.3 231.05 302.05 228.9 302.7 228.35
L 302.7 227.85
Q 303.1 230.5 304.6 232.25 304.85 232.65 305.25 232.9 305.65 233.35 306.2 233.45 307.55 234 308.85 233.6 309 233.6 309.25 233.45 309.55 233.35 309.8 233.2 312.1 231.7 315.15 227.05 317.15 223.8 318.75 221.15 320.25 218.85 321.3 216.6 323.7 212.05 324.25 210.85 327.2 213.5 329.75 215.4 329.35 214.45 328.65 213.25
L 328.55 213.25
Q 327.85 212.05 327.45 211.4
L 327.85 211.65
Q 328.25 212.05 330.15 213.25
L 330.4 213.25
Q 327.6 209.35 326.8 208.05 333.9 214.05 335.1 216.75
L 335.1 215.15
Q 334.7 214.7 334.15 213.4 333.2 211.5 332.3 210.05
M 333.1 213.25
Q 332.95 213.4 332.7 213.4
L 332.7 213.25 333.1 213.25
M 316.1 202.8
L 315.95 202.8 315.95 202.4 316.1 202.8
M 305 206.45
L 304.2 206.45
Q 302.2 206.45 299.25 207.5 296.95 208.15 294.7 209.25 295.9 208.05 297.65 206.05 298.95 204.55 300.55 203.2 299.9 202.7 299.25 202.7 298.15 202.8 297.5 202.8 299.5 201.6 300.3 200.8 300.45 200.65 302.3 200.65 304.2 200.65 307.25 204.15 311.8 209.1 314.1 211.65 314.75 212.05 315.15 212.45 313.7 213.65 312.1 215.55 309.95 217.95 306.75 220.35
L 306.6 220.2
Q 306.75 218.85 307.8 216.75 308.75 215 308.75 214.85 308.75 214.2 308.6 213.8 306.2 214.2 305.25 214.05 303.5 214.05 303.5 211.9 303.5 211.4 304.3 210.6 304.7 210.05 305.9 208.95
L 302.05 208.95
Q 302.85 208.15 304.05 207.1 304.45 206.7 305 206.45
M 288.95 213.8
L 289.35 213.9 288.95 213.9 288.95 213.8
M 290.65 230
Q 290.55625 230.09375 290.55 230.2 290.5537109375 229.9888671875 290.65 229.7
L 290.65 230 Z"/>

<path fill="#CC0000" stroke="none" d="
M 317.95 282.15
L 317.85 281.9 317.85 282.05 317.95 282.15
M 309.25 233.45
Q 309 233.6 308.85 233.6 307.55 234 306.2 233.45 305.9 234.65 305.4 235.85 304.6 238 304.6 238.95 305 238.4 307.55 235.6 308.6 234.15 309.25 233.45
M 324 319.25
L 324 319.1
Q 324.25 318.85 324.4 318.55 324.25 318.7 324.1 318.7 324 317.75 322.4 316.55 320.65 315.65 319.85 315.65 319.7 315.65 319.15 315.9 318.75 316.15 318.5 316.15 318.35 316.55 318.1 316.95 317.7 317.9 317.85 320.2 317.95 322.45 319.05 324.35 319.95 326.85 322.4 326.85 322.8 326.85 323.2 326.75 320.9 326.85 320.9 324.05 320.9 321.65 322.8 320.05 323.2 319.8 324 319.25
M 329.9 215.4
L 329.75 215.4
Q 327.2 213.5 324.25 210.85 323.7 212.05 321.3 216.6 320.25 218.85 318.75 221.15 317.15 223.8 315.15 227.05 312.1 231.7 309.8 233.2 305.25 243.75 304.05 246.15 302.6 249.4 300.15 253.4 300.45 252.2 300.85 250.45 301.25 249.1 302.6 245.1
L 302.6 244.85
Q 302.45 244.95 302.05 245.5 301.25 246.3 300.05 249.25
L 299.9 249.25
Q 299.9 248.7 300.05 247.1 300.3 245.25 300.3 244.95
L 300.3 244.3
Q 300.3 244.45 298.7 246.85 297.1 249.25 296.95 249.9 296.95 248.7 298.05 244.55 298.55 242.45 299.35 240 299.1 240.55 298.45 241.35 297.65 242.15 297.35 242.55 297.1 242.15 297.1 241.6 296.95 241.1 296.95 240.7 296.95 239.75 297.2 238.95 297.5 238 297.5 237.9 298.7 235.6 299.75 233.35 300.55 231.6 301.75 229.7 301.75 230.5 301.65 231.2 301.35 232 300.85 233.35
L 300.85 234.4
Q 301.65 233.45 301.9 232.9 302.2 232.5 302.7 232
L 302.7 235.75
Q 303.9 235.05 305 233.45 305.1 233.2 305.25 232.9 304.85 232.65 304.6 232.25 303.1 230.5 302.7 227.85
L 302.7 228.35
Q 302.05 228.9 300.3 231.05 298.05 233.85 296.7 235.2 291.45 240.55 286.65 240.55 282.25 240.55 278.1 234.65 276.2 232.1 275.15 229.7 274.45 235.75 275.4 240.95 276.75 247.65 278.6 250.3 280.5 252.85 281.55 253.95 282.5 254.85 283.7 256.2 283.85 256.5 283.95 256.5
L 283.7 256.6
Q 281.95 259.55 283.15 262.25 284.25 265.05 286 266.65 287.7 268.1 291.35 269.2 291.35 269.6 291.2 270 291.2 270.4 291.2 270.8 291.2 272.55 292 274.15 292.55 275.1 293.35 275.9 295.75 278 298.95 278 301.1 278 303 277.1 303.4 278.95 305 280.55 307 282.55 309.65 282.55 309.8 285.25 311.95 287 313.3 288.45 315.4 288.85 315.3 289.4 315.3 289.95 315.3 292.5 317.05 294.1 317.85 294.9 318.75 295.3 317.95 296.5 317.95 297.85
L 317.95 297.95
Q 317.95 300.25 319.45 301.7 319.7 302 320.1 302.1 319.85 302.4 319.7 302.5 318.35 303.85 318.35 305.75 318.35 307.75 319.7 308.95 318.65 310.15 318.65 311.75 318.65 312.95 319.45 314 319.05 314.7 318.75 315.1 319.15 314.7 319.45 314.55 319.7 314.4 321.7 314.4 323.7 314.4 324 314.55 324.5 314.7 324.8 315.35 324.8 315.25 324.8 314.95 325.05 314.7 325.35 314.4 326.55 313.35 326.55 312 325.75 312 324.95 311.6 324.8 311.75 324.65 311.75 324 312 323.2 312 322.1 312 322 312 321.6 311.9 321.45 311.2 321.6 310.95 322 310.95 322.8 310.95 323.85 311.2 324 311.2 324.1 311.2 323.3 310.7 323.3 310.3 324.8 310.15 325.75 309.35 326 309.2 326.25 308.95 327.6 307.75 327.6 305.75 327.6 305.2 327.45 304.8
L 326.95 304.8 326.95 305.05 326.65 305.05
Q 326.4 305.2 326.25 305.2 326 305.2 325.75 305.05 325.45 305.45 324.65 306 323.6 306.65 323.2 306.65 322.9 306.65 322.5 306.4 322 306.15 322 305.85 322 305.2 323.6 304.9 324.4 304.8 324.95 304.65 324.95 304.5 324.8 304.4 324.1 303.7 324 303.2 325.2 303.05 326.15 302.4 326.55 302.1 326.95 301.7 328.25 300.5 328.4 298.65 328.55 298.35 328.55 297.95 328.55 297.05 328.15 296.1
L 328 295.95
Q 327.75 296.1 326.95 296.35 326.95 296.5 326.8 296.5 326.55 296.65 326.25 296.65
L 326 296.75
Q 325.35 296.75 324.65 296.2 324.1 295.8 323.85 295.4 324.95 295 325.75 294.1 326 293.95 326.25 293.8 326.55 293.55 326.8 293.15 327.6 291.65 327.6 289.95 327.6 288.45 326.95 287.1 326.55 287.65 326 287.95 326.15 288.35 326.15 288.85 326.15 289.4 324.5 290.2 323.05 291.25 322 291.25 321.05 291.25 320.8 291.15 320.5 291 320.5 290.45 320.5 289.65 321.85 288.75 321.6 288.75 321.45 288.75 321.05 288.6 320.8 287.8 321.3 287.4 321.7 287 323.05 285.9 323.45 284.3 323.6 283.9 323.6 283.65 323.7 283 323.7 282.55 323.7 280.95 323.2 279.75 322.9 280.45 322.5 280.7 322.4 280.7 321.2 280.7 321.05 280.7 320.8 280.7 321.6 281.65 322.25 282.85 321.7 282.45 321.05 282.15 320.1 281.9 319.7 281.75
L 321.2 284.2
Q 320.5 284.05 319.3 283 318.25 282.45 317.95 282.15
L 319.7 285.65 319.05 285.65
Q 317.55 284.7 316.1 283.1 314.6 281.35 314.35 280.05
L 314.35 279.25
Q 314.75 279.5 315.55 280.15 316.2490234375 280.69921875 317.05 280.7 316.898828125 280.696875 316.75 280.3 316.75 279.9 316.65 279.65 316.75 279.65 317.45 279.5 317.3 279.35 317.05 279.25 316.9 279.25 316.75 279.1 314.6 277.75 314.9 276.15 315.3 276.15 315.55 276 316.1 275.9 316.75 275.9 317.3 275.9 317.85 276 317.85 275.75 317.85 275.6 317.85 274.95 317.7 274.3 317.3 272.55 316.25 271.35 316.25 272.4 315.4 272.8 315.15 272.95 314.5 273.05 314.2 273.05 313.7 273.2 313.4 273.2 313.15 273.2
L 313 273.2
Q 313.15 273.45 313.4 273.9 313.8 274.15 314.35 274.7
L 314.35 274.8 313.15 274.8
Q 312.9 274.55 312.5 274.4 312.1 274.3 312.1 274
L 311.95 274
Q 312.75 275.75 313.15 276.15
L 311.3 276.15
Q 309.65 275.2 308.85 274.8 308.2 274.15 307.65 273.6 307.25 273.05 307.15 272.65
L 307.95 272.65
Q 308.6 273.2 309.55 273.2 309.55 272.8 309.4 272.55 308.35 272 306.75 270.55 306.75 270 306.6 269.6 306.3 268 305.4 266.9
L 305.4 267.85
Q 305.1 267.85 304.6 268.1 304.05 268.4 303.8 268.4 303.25 268.4 302.7 268.25 303.8 269.05 304.3 269.85 301.5 269.2 301.1 269.2
L 300.85 269.2
Q 301.5 269.75 302.2 271.05 303.1 272.65 303.65 273.35
L 303.65 273.6 302.85 273.6
Q 302.6 273.45 302.2 273.35 300.7 272.55 299.35 271.45 297.75 270.15 297.1 268.5 297.35 268.25 298.05 268.65 298.45 268.9 298.95 269.45
L 299.1 269.45
Q 297.2 267.6 296.95 266.4 297.35 266.5 298.6 267.4 298.3 267.15 298.15 266.4 297.9 266 297.75 265.7 297.1 264.8 296.95 263.95
L 297.35 263.85
Q 297.9 263.7 298.7 263.7
L 298.95 263.7
Q 300.85 263.7 302.45 264.25 303.5 264.8 304.6 265.7 304.6 265.85 304.7 266 304.7 265.7 304.85 265.3 305 264.25 305.4 263.05 306.2 259.8 307.65 254.85 307.8 254.75 307.8 254.45 307.94765625 254.45 307.95 254.35
L 307.95 254.45
Q 309 257.4 311 259.55 313.3 261.85 315.85 261.85 316.75 261.85 317.55 261.55 318.75 261.05 319.55 260.1 321.2 258.35 321.2 256.2 321.2 254.85 319.7 253 319.15 252.35 318.5 251.8
L 318.35 251.8 318.25 251.65
Q 317.55 251.25 317.05 251.25 316.5 251.25 315.85 251.55 314.75 252.05 314.75 252.75 314.75 253.65 315.15 254.35 315.3 254.6 315.55 254.85
L 315.85 254.75
Q 315.55 254.45 315.55 254.05 315.55 253.55 315.85 253 316.1 252.45 316.75 252.45 317.55 252.45 318.1 253 318.75 253.95 318.75 255.4 318.75 256.35 318.35 257.15 318.25 257.4 318.1 257.8 317.9548828125 257.8 317.95 257.95 317.3 258.9 316.5 258.9 313.95 258.9 312.6 257.15 311.55 255.55 311.55 252.75 311.55 250.2 311.7 249.65 311.7 249.1 312.6 245.65
L 312.5 245.5
Q 312.9 244.7 313.3 243.65 315 238.8 316.9 234.65 317.85 232.4 319.15 230.9 319.3 230.8 319.3 230.65
L 315 230.4 319.7 230
Q 320.25 229.2 320.8 228.5 323.85 224.35 325.35 221.15 325.85 220.2 326.15 219.25 326.65 220.1 327.2 221.15
L 327.2 221.3
Q 327.6 221.8 327.85 222.2 330.7 227.05 331.2 227.55 332.55 229.6 335.35 231.85 337.35 233.6 338.3 234.25 338.15 234.8 338.15 235.35
L 338.15 235.45
Q 338.05 236.55 338.05 237.9 337.9 240 338.6 241.9 339.8 238.7 341.25 235.45 342.2 232.9 342.3 227.15 342.45 224.25 341.9 221.55 341.5 221.3 341 221.15 340.3 221 339.8 220.75 339.9 221 339.9 221.15 341 223.55 341 227.05
L 341 230.5
Q 340.2 228.25 338.45 225.15 337.35 222.9 336.15 221.15 335.9 220.6 335.5 220.2
L 335.5 220.5
Q 335.65 220.9 335.75 221.15 336.3 223 336.85 224.35 337.75 227.3 338.15 228.35 336.3 226.65 333.35 221.4 333.2 221.3 333.2 221.15 331.35 217.95 330.15 215.8
L 330.3 215.65
Q 330.15 215.55 329.9 215.4
M 325.85 297.15
Q 325.6 297.55 325.05 297.7 324 298.65 322.9 298.65 322 298.65 321.85 298.65 321.6 298.5 321.6 297.7 323.05 297.7 324.4 297.55 325.35 297.45 325.85 297.15
M 302.45 261.7
Q 302.7046875 261.7 302.85 261.7
L 302.85 261.85
Q 302.7046875 261.7046875 302.45 261.7 Z"/>

<path fill="#FFFFFF" stroke="none" d="
M 318.25 278.55
Q 318.35 279.5 318.5 279.9 318.25 279.65 317.45 279.5 316.75 279.65 316.65 279.65 316.75 279.9 316.75 280.3 316.898828125 280.696875 317.05 280.7 316.2490234375 280.69921875 315.55 280.15 314.75 279.5 314.35 279.25
L 314.35 280.05
Q 314.6 281.35 316.1 283.1 317.55 284.7 319.05 285.65
L 319.7 285.65 317.95 282.15 317.85 282.05 317.85 281.9 317.95 282.15
Q 318.25 282.45 319.3 283 320.5 284.05 321.2 284.2
L 319.7 281.75
Q 320.1 281.9 321.05 282.15 321.7 282.45 322.25 282.85 321.6 281.65 320.8 280.7 320.5 280.45 320.4 280.15 319.15 278.7 318.25 278.55
M 299.25 266
Q 298.95 265.6 298.7 265.3 298.05 264.8 297.5 264.9 297.65 265.2 297.75 265.7 297.9 266 298.15 266.4 298.3 267.15 298.6 267.4 297.35 266.5 296.95 266.4 297.2 267.6 299.1 269.45
L 298.95 269.45
Q 298.45 268.9 298.05 268.65 297.35 268.25 297.1 268.5 297.75 270.15 299.35 271.45 300.7 272.55 302.2 273.35 302.6 273.45 302.85 273.6
L 303.65 273.6 303.65 273.35
Q 303.1 272.65 302.2 271.05 301.5 269.75 300.85 269.2
L 301.1 269.2
Q 301.5 269.2 304.3 269.85 303.8 269.05 302.7 268.25 302.2 267.7 301.35 267.3 300.45 266.65 299.75 266.25 299.5 266.1 299.25 266
M 311 270.4
L 310.85 270.4
Q 310.205078125 270.648046875 309.95 270.65 310.204296875 270.654296875 310.75 271.2 311.1470703125 271.5970703125 311.3 271.6
L 311.15 271.6
Q 311 271.6 310.6 271.45 310.2 271.45 310.2 271.35
L 309 271.35
Q 309.25 271.6 309.4 272.15 309.4 272.25 309.4 272.55 309.55 272.8 309.55 273.2 308.6 273.2 307.95 272.65
L 307.15 272.65
Q 307.25 273.05 307.65 273.6 308.2 274.15 308.85 274.8 309.65 275.2 311.3 276.15
L 313.15 276.15
Q 312.75 275.75 311.95 274
L 312.1 274
Q 312.1 274.3 312.5 274.4 312.9 274.55 313.15 274.8
L 314.35 274.8 314.35 274.7
Q 313.8 274.15 313.4 273.9 313.15 273.45 313 273.2 312.6 272.8 312.5 272.65
L 312.75 272.65
Q 313 272.8 313.7 273.2 314.2 273.05 314.5 273.05 314.1 272.65 313.55 272 312.6 271.2 311.8 270.8
L 311 270.4
M 302.7 232
Q 302.2 232.5 301.9 232.9 301.65 233.45 300.85 234.4
L 300.85 233.35
Q 301.35 232 301.65 231.2 301.75 230.5 301.75 229.7 300.55 231.6 299.75 233.35 298.7 235.6 297.5 237.9 297.5 238 297.2 238.95 296.95 239.75 296.95 240.7 296.95 241.1 297.1 241.6 297.1 242.15 297.35 242.55 297.65 242.15 298.45 241.35 299.1 240.55 299.35 240 298.55 242.45 298.05 244.55 296.95 248.7 296.95 249.9 297.1 249.25 298.7 246.85 300.3 244.45 300.3 244.3
L 300.3 244.95
Q 300.3 245.25 300.05 247.1 299.9 248.7 299.9 249.25
L 300.05 249.25
Q 301.25 246.3 302.05 245.5 302.45 244.95 302.6 244.85
L 302.6 245.1
Q 301.25 249.1 300.85 250.45 300.45 252.2 300.15 253.4 302.6 249.4 304.05 246.15 305.25 243.75 309.8 233.2 309.55 233.35 309.25 233.45 308.6 234.15 307.55 235.6 305 238.4 304.6 238.95 304.6 238 305.4 235.85 305.9 234.65 306.2 233.45 305.65 233.35 305.25 232.9 305.1 233.2 305 233.45 303.9 235.05 302.7 235.75
L 302.7 232
M 324.95 311.6
Q 324.65 311.5 324.25 311.2
L 324.1 311.2
Q 324 311.2 323.85 311.2 322.8 310.95 322 310.95 321.6 310.95 321.45 311.2 321.6 311.9 322 312 322.1 312 323.2 312 324 312 324.65 311.75 324.8 311.75 324.95 311.6
M 325.75 305.05
Q 325.35 304.9 324.95 304.65 324.4 304.8 323.6 304.9 322 305.2 322 305.85 322 306.15 322.5 306.4 322.9 306.65 323.2 306.65 323.6 306.65 324.65 306 325.45 305.45 325.75 305.05
M 325.2 286.6
L 325.05 286.7
Q 324.5 287.1 322.4 288.45 322.1 288.6 321.85 288.75 320.5 289.65 320.5 290.45 320.5 291 320.8 291.15 321.05 291.25 322 291.25 323.05 291.25 324.5 290.2 326.15 289.4 326.15 288.85 326.15 288.35 326 287.95 325.75 286.85 325.2 286.6
M 324.25 237.9
Q 324.3955078125 237.9 324.5 237.9 325.05 237.75 325.35 237.35 325.45 236.95 325.45 236.65 325.45 235.35 324.1 235.2 323.6 235.2 323.2 235.6 323.05 235.85 323.05 236.65 323.05 237.05 323.2 237.35 323.6 237.9 324.25 237.9
M 325.05 297.7
Q 325.6 297.55 325.85 297.15 325.35 297.45 324.4 297.55 323.05 297.7 321.6 297.7 321.6 298.5 321.85 298.65 322 298.65 322.9 298.65 324 298.65 325.05 297.7
M 304.2 206.45
L 305 206.45
Q 304.45 206.7 304.05 207.1 302.85 208.15 302.05 208.95
L 305.9 208.95
Q 304.7 210.05 304.3 210.6 303.5 211.4 303.5 211.9 303.5 214.05 305.25 214.05 306.2 214.2 308.6 213.8 308.75 214.2 308.75 214.85 308.75 215 307.8 216.75 306.75 218.85 306.6 220.2
L 306.75 220.35
Q 309.95 217.95 312.1 215.55 313.7 213.65 315.15 212.45 314.75 212.05 314.1 211.65 311.8 209.1 307.25 204.15 304.2 200.65 302.3 200.65 300.45 200.65 300.3 200.8 299.5 201.6 297.5 202.8 298.15 202.8 299.25 202.7 299.9 202.7 300.55 203.2 298.95 204.55 297.65 206.05 295.9 208.05 294.7 209.25 296.95 208.15 299.25 207.5 302.2 206.45 304.2 206.45
M 332.4 209.9
L 332.3 210.05
Q 333.2 211.5 334.15 213.4 334.7 214.7 335.1 215.15
L 335.1 216.75
Q 333.9 214.05 326.8 208.05 327.6 209.35 330.4 213.25
L 330.15 213.25
Q 328.25 212.05 327.85 211.65
L 327.45 211.4
Q 327.85 212.05 328.55 213.25
L 328.65 213.25
Q 329.35 214.45 329.75 215.4
L 329.9 215.4
Q 330.15 215.55 330.3 215.65
L 330.15 215.8
Q 331.35 217.95 333.2 221.15 333.2 221.3 333.35 221.4 336.3 226.65 338.15 228.35 337.75 227.3 336.85 224.35 336.3 223 335.75 221.15 335.65 220.9 335.5 220.5
L 335.5 220.2
Q 335.9 220.6 336.15 221.15 337.35 222.9 338.45 225.15 340.2 228.25 341 230.5
L 341 227.05
Q 341 223.55 339.9 221.15 339.9 221 339.8 220.75 339.5 220.35 339.25 219.8 335.75 215.4 332.4 209.9 Z"/>

<path fill="#000000" stroke="none" d="
M 292 274.15
Q 291.6 274.55 291.05 275.1 299.35 279.5 305.5 284.6 313.3 290.75 317.95 297.85 317.95 296.5 318.75 295.3 317.85 294.9 317.05 294.1 315.3 292.5 315.3 289.95 315.3 289.4 315.4 288.85 313.3 288.45 311.95 287 309.8 285.25 309.65 282.55 307 282.55 305 280.55 303.4 278.95 303 277.1 301.1 278 298.95 278 295.75 278 293.35 275.9 292.55 275.1 292 274.15
M 328 295.95
L 328.15 296.1
Q 328.55 297.05 328.55 297.95 328.55 298.35 328.4 298.65
L 339 298.65
Q 336.7 295.8 334.45 293.15
L 326.8 293.15
Q 326.55 293.55 326.25 293.8 326.65 293.95 326.95 294.35 327.75 295.15 328 295.95 Z"/>

<path fill="#FDA31C" stroke="none" d="
M 305.4 263.05
Q 305 264.25 304.85 265.3
L 319.85 271.6 320.25 268.65 320.25 268.5 305.4 263.05
M 319.7 253
Q 321.2 254.85 321.2 256.2 321.2 258.35 319.55 260.1 318.75 261.05 317.55 261.55 320.5 261.45 320.8 260.35 322.65 257.3 322.65 256.5 322.65 254.85 321.05 253.15 319.55 251.55 318.5 251.8 319.15 252.35 319.7 253
M 344.2 248.7
Q 344.05 248.7 341.65 249.4 340.05 249.9 339.1 250.2 338.45 250.45 336.95 250.6 336.15 250.85 335.75 250.85 335.25 251 335.25 251.8 335.25 252.35 336.55 253.4 337.9 254.45 338.3 254.35
L 338.3 254.05
Q 338.3 253.95 338.3 253.8 338.45 252.6 341.8 250.7 343.55 249.65 344.45 248.85
L 344.2 248.7
M 331.1 232.5
Q 330.4 231.7 329.5 231.3
L 319.3 230.65
Q 319.3 230.8 319.15 230.9 317.85 232.4 316.9 234.65 315 238.8 313.3 243.65 312.9 244.7 312.5 245.5
L 312.6 245.65
Q 311.7 249.1 311.7 249.65 311.55 250.2 311.55 252.75 311.55 255.55 312.6 257.15 313.95 258.9 316.5 258.9 317.3 258.9 317.95 257.95
L 317.95 257.8
Q 317.94609375 257.95 317.45 257.95 315 257.95 313.7 255.95 312.5 254.2 312.5 251.4 312.5 250.7 313.55 247.8 314.35 244.95 314.75 244.3 315.15 243.35 315.85 241.35 315.95 241.75 316.5 242.05
L 316.1 241.6
Q 318.75 239.75 322.5 239.2 322.25 238.55 322.25 237.9 322.25 236.4 323.2 235.35 324 234.4 325.35 234.4 326.8 234.4 327.6 235.35 328.55 236.4 328.55 237.9 328.55 238.3 328.4 238.8 330.7 238.95 332 239.75 333.9 240.7 334.7 242.05 334.05 234.95 331.1 232.5
M 326.15 219.25
Q 325.85 220.2 325.35 221.15 323.85 224.35 320.8 228.5 320.25 229.2 319.7 230
L 321.05 229.85 324.1 230.1
Q 324.5 228.25 321.45 229.3 321.2 229.45 321.05 229.45 321.3 229.05 321.6 228.65 321.85 228.25 324.4 225.55 326.25 223.55 326.65 221.4 327.45 225.3 331.5 229.45 333.75 231.6 338.15 235.35 338.15 234.8 338.3 234.25 337.35 233.6 335.35 231.85 332.55 229.6 331.2 227.55 330.7 227.05 327.85 222.2 327.6 221.8 327.2 221.3
L 327.2 221.15
Q 326.65 220.1 326.15 219.25 Z"/>

<path fill="#FDCC0B" stroke="none" d="
M 306.85 199.85
L 306.75 199.75 306.75 199.85 306.85 199.85
M 290.55 230.2
Q 290.55625 230.09375 290.65 230
L 290.65 229.7
Q 290.5537109375 229.9888671875 290.55 230.2
M 289.35 213.9
L 288.95 213.8 288.95 213.9 289.35 213.9
M 315.95 202.8
L 316.1 202.8 315.95 202.4 315.95 202.8
M 332.7 213.4
Q 332.95 213.4 333.1 213.25
L 332.7 213.25 332.7 213.4 Z"/>

<path fill="#8C478D" stroke="none" d="
M 335.5 359.25
Q 335.25 357.65 334.95 356.3 334.45 350.15 336.85 346.3 332.8 348.3 328.95 349.75 318.35 353.5 309.15 352.85 308.35 352.85 307.65 352.7 307 352.7 306.2 352.55 302.05 351.9 294.8 349.6 291.35 348.4 288.55 347.75 288.1 348.4 287.6 349.2 286.65 350.4 285.85 351.65 286 352.7 286.1 353.65 286.8 360.2 285.85 362.75 297.65 365.4 310.45 365.4 324 365.4 336.3 362.35 335.9 360.85 335.5 359.25 Z"/>

<path fill="#663366" stroke="none" d="
M 339.4 330.75
Q 333.9 331.95 330.4 332.5 328.55 332.6 327.35 332.6 326.95 332.6 323.85 331.8 325.85 332.6 325.45 332.6 319.85 332.1 316.1 330.1 312.6 328.05 308.35 323.5 306.45 321.4 305 318.55 303.9 316.15 303.1 315.1 302.6 317.35 301.25 320.3 300.45 322.85 299.35 325.8 298.95 326.85 298.45 327.8 296.7 332.1 294.55 337.2 293.35 340.9 288.55 347.75 291.35 348.4 294.8 349.6 302.05 351.9 306.2 352.55 307 352.7 307.65 352.7 308.35 352.85 309.15 352.85 318.35 353.5 328.95 349.75 332.8 348.3 336.85 346.3 336.95 346 337.25 345.6 340.7 340.65 344.2 335.05 346.75 330.75 348.35 327.95 345.25 329.4 339.4 330.75 Z"/>

<path fill="#AA55AA" stroke="none" d="
M 341.1 301.2
Q 340.05 299.85 339 298.65
L 328.4 298.65
Q 328.25 300.5 326.95 301.7 326.55 302.1 326.15 302.4 326.25 302.4 326.25 302.5 327.2 303.45 327.45 304.8 327.6 305.2 327.6 305.75 327.6 307.75 326.25 308.95 326 309.2 325.75 309.35 326.55 310.4 326.55 311.75 326.55 311.9 326.55 312 326.55 313.35 325.35 314.4 325.05 314.7 324.8 314.95 324.8 315.25 324.8 315.35 324.95 315.9 324.95 316.15 324.95 317.25 324.5 318.05
L 324.5 318.15
Q 324.5 318.45 324.4 318.55 324.25 318.85 324 319.1
L 324 319.25
Q 323.2 319.8 322.8 320.05 320.9 321.65 320.9 324.05 320.9 326.85 323.2 326.75 322.8 326.85 322.4 326.85 319.95 326.85 319.05 324.35 317.95 322.45 317.85 320.2 317.7 317.9 318.1 316.95 318.35 316.55 318.5 316.15 318.65 315.9 318.65 315.5 318.65 315.35 318.75 315.1 319.05 314.7 319.45 314 318.65 312.95 318.65 311.75 318.65 310.15 319.7 308.95 318.35 307.75 318.35 305.75 318.35 303.85 319.7 302.5 319.85 302.4 320.1 302.1 319.7 302 319.45 301.7 317.95 300.25 317.95 297.95
L 317.95 297.85
Q 313.3 290.75 305.5 284.6 299.35 279.5 291.05 275.1 288 278.45 283.95 287.25 280.5 295.4 279.15 301.6
L 279.15 301.7
Q 278.2 304.25 276.9 307.6 276.35 308.95 275.8 310.7 275.15 312.4 274.6 314.55 277.3 316.95 280.25 318.95 283.55 321 287.05 322.6 292.95 324.85 299.35 325.8 300.45 322.85 301.25 320.3 302.6 317.35 303.1 315.1 303.9 316.15 305 318.55 306.45 321.4 308.35 323.5 312.6 328.05 316.1 330.1 319.85 332.1 325.45 332.6 325.85 332.6 323.85 331.8 326.95 332.6 327.35 332.6 328.55 332.6 330.4 332.5 333.9 331.95 339.4 330.75 345.25 329.4 348.35 327.95 348.9 327 349.3 326.2 351 323.1 350.5 317.65 349.95 312.3 341.1 301.2 Z"/>

<path fill="#FE9F89" stroke="none" d="
M 336.85 259.55
L 336.7 259.55
Q 334.05 259.15 332.4 258.2
L 332.3 258.35
Q 331.6 261.55 336.05 262.65
L 336.15 262.75
Q 336.45 262.65 336.7 262.5 337.5 261.15 336.85 259.55 Z"/>

<path fill="#FF6633" stroke="none" d="
M 336.85 259.4
Q 337.5 258.35 338.85 257 335.9 256.1 332.4 258.2 334.05 259.15 336.7 259.55
L 336.85 259.4 Z"/>

<path fill="#99CC00" stroke="none" d="
M 324.5 237.9
Q 324.4 237.903125 324.4 238 323.85 238.3 323.45 239.1
L 323.45 239.2
Q 323.3 239.6 323.2 240.3
L 323.2 240.4
Q 324.1 241.2 325.35 241.2 326.65 241.2 327.45 240.3 327.35 239.35 326.95 238.8 326.4 237.9 324.95 237.9 324.8 237.9 324.5 237.9 Z"/>

<path fill="#CC9900" stroke="none" d="
M 324.5 237.9
Q 324.3955078125 237.9 324.25 237.9
L 324.4 238
Q 324.4 237.903125 324.5 237.9 Z"/>

<path fill="#999900" stroke="none" d="
M 328.55 237.9
Q 328.55 236.4 327.6 235.35 326.8 234.4 325.35 234.4 324 234.4 323.2 235.35 322.25 236.4 322.25 237.9 322.25 238.55 322.5 239.2 322.8 239.75 323.2 240.15
L 323.2 240.3
Q 323.3 239.6 323.45 239.2
L 323.45 239.1
Q 323.85 238.3 324.4 238
L 324.25 237.9
Q 323.6 237.9 323.2 237.35 323.05 237.05 323.05 236.65 323.05 235.85 323.2 235.6 323.6 235.2 324.1 235.2 325.45 235.35 325.45 236.65 325.45 236.95 325.35 237.35 325.05 237.75 324.5 237.9 324.8 237.9 324.95 237.9 326.4 237.9 326.95 238.8 327.35 239.35 327.45 240.3 327.6 240.3 327.6 240.15 328.15 239.6 328.4 238.8 328.55 238.3 328.55 237.9 Z"/>

<path fill="#990000" stroke="none" d="
M 329.5 231.3
L 332.15 231.45 332.15 230.65 324.1 230.1 321.05 229.85 319.7 230 315 230.4 319.3 230.65 329.5 231.3 Z"/>
</g>

<path id="Layer0_0_MEMBER_0_MEMBER_0_1_STROKES" stroke="#FF9933" stroke-width="1" stroke-linejoin="round" stroke-linecap="round" fill="none" d="
M 486 252.3
Q 486.55 251.9 487.35 251.8 487.85 251.65 488.95 251.65 490 251.5 493.5 250.85 496.95 250.05 497.5 247.35"/>

<path id="Layer0_0_MEMBER_1_MEMBER_0_1_STROKES" stroke="#FF0033" stroke-width="1" stroke-linejoin="round" stroke-linecap="round" fill="none" d="
M 338.15 235.35
L 338.15 235.45"/>

<path id="Layer0_0_MEMBER_1_MEMBER_0_2_STROKES" stroke="#FF0066" stroke-width="1" stroke-linejoin="round" stroke-linecap="round" fill="none" d="
M 336.85 259.4
L 336.85 259.55 336.7 259.55
Q 334.05 259.15 332.4 258.2 332.3 258.2 330.7 257.8 332.15 258.2 332.3 258.35"/>
</defs>

<g transform="matrix( 1, 0, 0, 1, -261,-180.55) ">
<use xlink:href="#Layer0_0_MEMBER_0_MEMBER_0_FILL"/>

<use xlink:href="#Layer0_0_MEMBER_0_MEMBER_0_1_STROKES"/>
</g>

<g transform="matrix( 1, 0, 0, 1, -261,-180.55) ">
<use xlink:href="#Layer0_0_MEMBER_0_MEMBER_0_MEMBER_0_FILL"/>
</g>

<g transform="matrix( 1, 0, 0, 1, -261,-180.55) ">
<use xlink:href="#Layer0_0_MEMBER_0_MEMBER_0_MEMBER_1_FILL"/>
</g>

<g transform="matrix( 1, 0, 0, 1, -261,-180.55) ">
<use xlink:href="#Layer0_0_MEMBER_1_MEMBER_0_FILL"/>

<use xlink:href="#Layer0_0_MEMBER_1_MEMBER_0_1_STROKES"/>

<use xlink:href="#Layer0_0_MEMBER_1_MEMBER_0_2_STROKES"/>
</g>
</svg>
