<svg xmlns="http://www.w3.org/2000/svg" xmlns:xlink="http://www.w3.org/1999/xlink" preserveAspectRatio="none" width="289" height="187" viewBox="0 0 289 187"><defs><g id="a"><path fill="#CF0" d="M542.2 367.4q.15-.8.15-1.6h-.15v1.6m-33.7-61.95v2h2.9v-2h-2.9m12.85 2.8h-4.85v2h4.85v-2m23.8 29.7v-1.85h-2.95v1.85h2.95m-9.25-29.85v2.05h3.35v-2.05h-3.35m-7.5 2.15v-2h-3.45v2h3.45m18.9-.1v-2.05h-4.15v2.05h4.15m-35.9-33.35v-1.75q-1.6.15-2.65-.1h-.25v1.85h2.9m9.25-1.85h-2.95v1.85h2.95v-1.85m3.2 0v1.85l9.25.15q1.35-1.1 2.4-2h-11.65z"/><path fill="#FF9" d="M482.65 247.9v.25l.15-.25h-.15m16.75-30.5q.8 1.05.9 1.35.3.4.4.8 3.5.65 5.75 1.05-1.45-.8-2.9-2-4.3-3.35-5.35-6.05v1.25q0 1.7 1.2 3.6m28.1 29.15q-.3-.65-.7-1.2-3.75 9.25-8.7 15-.1.25-.4.55-2.95 3.2-6.3 5.2-1.45.8-2.9 1.5-.95.4-2.05.65l-.25 4.55q.65 1.6 2.3 2.15h.25q1.05.25 2.65.1 2.55-.4 6.3-1.85l.15-.15q1.35-.5 2.8-1.2 1.5-.8 3.2-1.75.8-.4 1.65-.9 1.3-.7 2.65-1.5l.4-9.1.15-1.35q-.7.7-1.2 1.1-.8.4-1.2.55-.95.25-.7 0v-.15l.15-.15q.15-.1.15-.4 1.45-2.4 1.85-3.6.4-1.35.55-3.35.25-1.85-.8-4.7m-71.1 85.15q2.05.4 2.55.4l-4.4 1.85.15.65-2.45.3q-2.5.4-7.05-.15-.55 1.6-.3 4.8.4 3.1.95 4.3.8 1.9 4 3.9 1.35.9 2.95 1.45 1.35.3 2.55.55 9.5 1.05 16.6-.8.8-2.95 1.2-6.05.15-3.05 0-3.85.15.1.25.1h.15q2.15 2.05 3.75 2.95 1.45.7 4.3 2 2.65 1.35 7.05 3.1.95.4 2.05.8 3.742 1.547 9.1 4.2-.106-.05-.15-.05-.4 0 2.4.8 1.5.4 3.35.8 1.45.15 3.1.3 1.3.1 2.9.1 2.95.15 6.3 0 1.2 0 2.4-.1h.55q1.75-.15 3.2-.15 3.5-.4 6.2-.8 1.3 0 2.8-.4.9-.15 1.6-.55.8-.25 1.45-.55 1.9-.9 3.25-2 1.6-1.45 2.4-3.35.5-1.05.65-2.15v-.5q.15-1.2 0-2.3-.25-1.45-.95-3.05.55-4.15.95-9 .15-2.25.25-4.8-.1 0-.25.15-1.6.25-3.05.5-9.1 1.35-15.3-.4-1.6-.5-3.05-1.2 0 1.1-.15 2.4-.15 1.75-.25 3.75 0 .4-.15.7v.5q-1.05-.1-2.55 0h-4.8q-.8 0-1.5.15-1.6 0-2.9.15h-5.35q-2.45.15-12.05 2.15-1.5.25-3.1.65-8.7 2-13.65 1.45-.15.15-.4.15-.4-.25-.8-.65-6.7-4.3-10.45-5.65-3.2-.9-7.9-1.2l-.1.15q-.15.25-.4.95-.55 1.2-.4 1.45.25.7 2.5 1.1m28.25-113.9q-.4 1.2-1.2 3.85-.4 1.5-.65 2.55-.15.15-.15.3.15.8.55 1.7.65 1.75-.15 3.65-.65 1.85-1.75 4.15-.1.1-.1.25-.15.4-.4.8-.15.15-.15.25-.95 1.75-2 2.95-1.1 1.2-2.15 2.85-.25.65.25 1.3l.3-.1q.8.25 4.95.5 2.65.15 4.25 0 0 .95-.9 2.3-.3.8-1.1 1.6-.15.25-.4.55-.25.5-.65.65 0 .15-.15.15 0 .25-.15.5-.4.85-.65 1.1-.25.25-.15.95.15.65 3.9 1.7.55-.4 1.35-.5.5-.15 1.6-.15 1.05-.15 4.55-.8 3.45-.8 4-3.5-.55 2.7-4 3.5-3.5.65-4.55.8-1.1 0-1.6.15-.8.1-1.35.5h-.15q-.5.8-.65 1.65-.25 1.05.8 2.4.8-.15 1.85-.3 1.5-.1 2.15-.4 0 .15.15.3.15.1.15.5 0 .7-.7 1.35-.25.15-.5.25-.7.45-1.5.45.95 2.4 1.6 3.45.55 1.2 1.6 1.9 1.2.65 2.3.9 1.2.4 9.1-2.8.8-.25 1.45-.65h.15q1.2-.55 2.55-1.2.4-.15.8-.4 1.6-.8 2.95-1.65 2.55-1.45 4.25-2.9 4.3-3.5 5.9-7.4.8-1.7 1.35-6.4.8.25 2 .25h.65q2.85-.25 5.25-3.75 2.4-3.45 2.55-7.75.1-2.65-.4-4.8-.15-.8-.4-1.5v.15q-.4 0-.8-.15-.55-.1-.95-.1-2.15 0-3.35 1.05-1.1.8-1.75 2.7-.15.4-.95 3.3-.5 2.05-1.2 3.1-4.95 7.65-8 9.9l-1.5.55q.3-.4.55-.8.4-.7.4-1.2v-.15h-.25q-1.6 1.75-2.85 2.25-1.85 1.1-2.4 1.5l-3.2.55 1.2-.8q1.6-.8 2.95-3.75 1.05-2.55 1.05-4.55v-.8l.3-.15h-.15q-1.75-2.4-4.4-4-4.05-2.3-10.3-2.3-5.5 0-8.7 1.35-2.3.95-4.15 2.8 5.85-9.9 7.5-12.3 1.6-2.4 4.4-2.8-2.7-.8-4-2.7 0 .65-.3 2-.1 1.35-.1 2-1.75.15-3.25-.8-1.45-1.2-2.4-1.85m43.25 8.55q.4 0 .9.15.477.096.7.1h.65q0 .15.15.15l.15.15q.1.65-.4 1.45-.15.4-1.1 1.2-1.6 1.6-1.45 2.95 0 2.95-.3 3.9-.4 1.75-2.15 1.75-2.9 0-2.9-1.75v-.7q.1.15.4.45.1.1.65.1.8 0 1.2-.25.8-.4.95-1.75 0-.4-.7-1.45-.65-1.1-.65-1.35.15-1.1 1.35-2.95 1.35-2.15 2.55-2.15z"/><path fill="#990" d="M490.3 360.05q-.15 1.85-.3 3.75l15.4.15v-3.9h-15.1m30.35 3.9V360.05h-2.95v3.9H520.65m3.2-3.9v2.25q3.1-1.05 6.05-2.25h-6.05m-15.35 3.9h2.9v-3.9h-2.9v3.9m2.9-32.95v-.65h-2.9v.8q1.3-.15 2.9-.15m8.85-.15v-.5h-2.55v.5q1.5-.1 2.55 0m-29.15 2.45q9.6-2 12.05-2.15h2.25v-.8l-14.3-.15v3.1m14.3-24.1h-13.5q-.15 1.75-.3 3.9h13.8v-3.9m0-5.65v-3.7l-12.6-.15q-.25 1.85-.5 3.75v.1h13.1m15.95 8.45h-4.85l-.1 3.9h4.95V312m-9.95-2.8h-2.9v3.9h2.9v-3.9m-2.9-9.35v3.7h2.9v-3.7h-2.9m12.85 2.8h-4.55l-.15 3.75h4.7v-3.75m23.8 37.2h-2.95v1.45q.15 1.1 0 2.3h2.95v-3.75m0-9.5h-2.95v3.85h2.95v-3.85M528.4 315.9V312h-3.45v3.9h3.45m7.5-4.05v3.9h3.35v-3.9h-3.35m-7.5-5.45v-3.75h-3.45v3.75h3.45m10.85-.15v-3.75h-3.35v3.75h3.35m8.15 9.5l-.1-3.9h-4.15v3.9h4.25m-.25-9.5l-.15-3.75h-3.85v3.75h4m-8-23.7v-3.85h-1.75q-1.35 1.05-3.1 2.1-.8.55-1.85 1.1 1.7 0 3.35.4v2.95h3.35v-1.75q-1.25-.55-2.45-.95h2.45m-14.35.95v1.85h3.5v-3.05q-.55.15-1.1.25-1.2.4-2.4.95m-16.3-4.8v3.85h2.9v-3.85h-2.9m15.35 2.65h.15q3.35-1.35 5.9-2.65h-6.05v2.65m-3.2-2.65h-2.95v3.85h2.95v-3.85m-2.8-5.65h2.8v-1.2q-1.45.7-2.8 1.2m-13.4 9.5h.3v-.4q-.15.15-.3.4m-4.25 0h.25q1.6-2.4 2.4-3.75 0-.097.15-.1h-2.55q-.25 2.8-.25 3.85m-1.9 0v-.25q0-2.55.4-3.6h-.1q-1.1 1.6-1.9 3.85h1.6m3.6-13.35v.1q-.1.15-.1.4-.4 1.35-.8 3.35h4.4v-3.85h-3.5m23.6 0q-.85.5-1.65.9v2.95h13q0-.1.15-.1 0-.15.1-.3.15-.5.15-1.2 0-.8-.4-2.15l-11.35-.1z"/><path fill="#FC0" d="M490 363.8h-.65v1.85l16.05.15v-1.85l-15.4-.15m15.4-10.05q-1.85-.4-3.35-.8-2.8-.8-2.4-.8-6-1.35-9.1-1.85-.15 4.95-.25 9.75h15.1v-6.3m18.45.15v6.15h6.05q4.8-1.85 9.25-4.3v-6.15q-1.35 1.1-3.25 2-.65.3-1.45.55-.7.4-1.6.55-1.5.4-2.8.4-2.7.4-6.2.8m-6 10.05h-.15v.1l.15-.1m-6.45 0h-2.9v1.85h2.9v-1.85m0-9.8q-1.6 0-2.9-.1v6h2.9v-5.9m8.7-.1q-1.2.1-2.4.1v5.9h2.95v-6h-.55m-14.7-40.95h-13.8q-.4 6.95-.5 17.1l14.3.15V313.1m0-7.65v-1.9h-13.1q0 .85-.15 1.9h13.25m0 3.75v-1.75l-13.4-.15q-.1.95-.1 1.9h13.5m15.95 9.9v-3.2h-4.95l-.15 2.15q.65.1 1.45.4v11.9h2.55q.15-.3.15-.7.1-2 .25-3.75v-6.95h.3q.1 0 .4.15m-4.85-8.85V312h4.85v-1.75h-4.85m-5.1 2.85h-2.9v17.25h2.9V313.1m-2.9-9.55v1.9h2.9v-1.9h-2.9m0 3.9v1.75h2.9v-1.75h-2.9m8 .8h4.85v-1.85h-4.7l-.15 1.85m28.65 35.35h-2.95v10.45q1.35-.85 2.7-1.65.1-.4.25-.8v-8m-2.95-5.65v1.9h2.95v-1.9h-2.95m2.95-1.85v-1.9h-2.95v1.9h2.95m-9.25-25.95v1.7h3.35v-1.7h-3.35m-7.5 1.85v-1.75h-3.45V312h3.45m0 7.75v-3.85h-3.45v3.6q1.75.15 3.45.25m7.5-4v3.75q1.6-.15 3.25-.25h.1v-3.5h-3.35m-7.5-7.5v-1.85h-3.45v1.85h3.45m10.85-.15v-1.85h-3.35v1.85h3.35m8.3 9.8l-.15-2.15h-4.25v2.95q-.4.15-.7.15.15 2.8 0 5.6-.1 2.55-.25 4.8v1.1h2.95v-11.9q1.2-.3 2.4-.55m-.25-6.05v-1.7h-4.15v1.7h4.15m0-3.75l-.15-1.85h-4v1.85h4.15m-19-22.75h-3.5l.15 17.3h3.45l-.1-17.3m10.85-.1h-3.35l.1 17.25h3.35l-.1-17.25m3.05.1l.15.15q.25.4.65.7l.15 16.3H547l-.1-2.65-.15-5.4q-.15-4.65-3.6-8.15-.55-1.45-.95-2.8v1.85m-4.8-6.65h1.75v-1.6q-.85.8-1.75 1.6m1.75 4.8v-.95h-2.45q1.2.4 2.45.95m0-8.55v-1.9l-1.65-1.45q1.1 2.4 1.5 3.35h.15m-2.3-5.65q-.8-2-2.7-5.05-2.65-4.45-5.6-5.65l-.4 9.1q-1.35.8-2.65 1.5l11.35.1m-15.65 16.35q-1.9 1.6-2.95 3.45H518q-.15 0-.3.15v.95q-.8 2-.8 4.4l-.1 8.05h4.55l-.15-17m-11.5 5.75h-1.2v8.45h2.9v-8.7q-1.05.25-1.7.25m1.7-8.85h-2.9V287l2.9-1.1v-3.35m-2.9-5.75v1.9h2.9v-1.9h-2.9m15.35 0v1.9h6.05q1.75-.95 3.2-1.75l-9.25-.15m-6.15 6.95q1.5-.65 2.95-1.05v-.15h-2.95v1.2m2.95-6.95h-2.95v1.9h2.95v-1.9m-2.95-1.85h2.95v-1.9h-2.8l-.15.15v1.75m6.15-1.9v1.9h11.65q.95-.95 1.35-1.9h-13M503 278.7q.95-1.35 1.75-1.9h-4.15q-.15 1.1-.15 1.9H503m-4.4 0h.1q.3-.4.3-.8-.15.4-.4.8m1.6 3.85q-.15.4-.15.55.25-.4.4-.55h-.25m-1.9 0h-1.6q-2.55 6.45-3.9 17.15l12.6.15v-8.45l-.15 1.05q-.1-2-.25-2.1-.55-.85-.55-4.85 0-.8.15-1.6.15-.55.15-1.35h-.3q-.9 1.2-2.25 2.7-2 2.15-3.1 2.55-.4-.8-.5-2.95-.3-1.6-.3-2.3m7.1-7.6v-1.9H501q-.15.7-.3 1.5v.4h4.7m0-5.75v-2.45q-2 1.25-3.5 2.45h3.5z"/><path fill="#FF0" fill-opacity=".522" d="M511.4 363.95v1.45q3.25-.65 6.3-1.35v-9.9q-3.35.15-6.3 0v9.8m35.5-64.1l.1 2.65.15 3.75.15 1.85v3.75l.1 3.9.15 2.15q-1.2.25-2.4.55v33.15q.25-1.3.55-2.5 4.25-16.1 4.25-28.95 0-7.75-3.05-20.3m-15.15-17.95q-1.7.15-3.45.4v3.05l.1 17.3v17.1q3.65 0 7.5-.25v-17l-.1-17.25v-2.95q-1.65-.4-3.35-.4h-.7m-17.9 8.55q-1.35.4-2.45.7V331q.7-.15 1.5-.15h4.8v-12.4q-.8-.3-1.45-.4l.15-2.15.1-3.9v-3.75l.15-1.85.15-3.75.1-8.05q0-2.4.8-4.4v-.95q-1.05.25-3.85 1.2m3.85-13.65v-3.6q-3.75 1.45-6.3 1.85v10.85q3.35-1.05 6.3-2.15V276.8z"/><path fill="#F60" fill-opacity=".502" d="M508.5 365.8v-11.75q-1.65-.15-3.1-.3v12.45q1.6-.15 3.1-.4m15.35-11.9q-1.45 0-3.2.15v9.2q1.6-.5 3.2-.95v-8.4m-2.9-34.8h.4q-.3-.15-.4-.15h-.3v6.95q.15-1.3.15-2.4 0-2.65.15-4.4m21.25 25q-.15 1.1-.65 2.15-.8 1.9-2.4 3.35v6.15q1.6-.8 3.05-1.7v-9.95m0-13.75v-1.1q-.4 4.85-.95 9 .7 1.6.95 3.05v-10.95m-2.55-53.8q-.25-.8-.5-1.5v10.2l.1 17.25v16.75q1.5-.15 2.95-.3.15-.1.25-.1.3 0 .7-.15V302.5l-.15-16.3q-.4-.3-.65-.7l-.15-.15v-1.85q-.15-.55-.4-.95-1.05-3.2-2.15-6M508.5 291.4q-2.85 1.35-3.1 0V331.15h3.1V291.4m16.3-6.05v-1.85q-1.85.8-3.6 2.15l.15 17v16.45h.1q.4.15.8.15.8.1 1.6.1.55.15 1.1.15v-16.85l-.15-17.3m-.95-15.25q-1.7.95-3.2 1.75v10.85q.15 0 .3-.15 1.45-.5 2.9-1.2V270.1m-17.4-1.85v-2.15q-.5.25-1.05.65v9.8q.25-.15.55-.15.9 0 1.05.3 0 .25-.15.4 0 1.45-.25 5.05 0 .3-.15.4-.25 3.35-.25 4.85h1.2q.55-.3 1.1-.4v-12.05q-1.65-.55-2.3-2.15l.25-4.55z"/><path fill="#FC6" d="M535.9 319.5q-3.85.25-7.5.25-1.7-.1-3.45-.25-.55 0-1.1-.15-.8 0-1.6-.1-.4 0-.8-.15h-.5q-.15 1.75-.15 4.4 1.45.7 3.05 1.2 6.2 1.75 15.3.4 1.45-.25 3.05-.5.15-.15.25-.15.15-2.8 0-5.6-.1 0-.25.1-1.45.15-2.95.3h-.1q-1.65.1-3.25.25m-45.6-63.05q0-.4-.15-.5-.15-.15-.15-.3-.65.3-2.15.4-1.05.15-1.85.3.8.8 1.35 1.7.1.3.25.45.8 0 1.5-.45.25-.1.5-.25.7-.65.7-1.35M524.55 242l-.3-.4h-.65q-1.2 0-2-.25-.55 4.7-1.35 6.4-1.6 3.9-5.9 7.4-1.7 1.45-4.25 2.9-1.35.85-2.95 1.65-.4.25-.8.4-1.35.65-2.55 1.2.55.25.95.25.9.25 1.45.4.55.15.65.25v1.35l-.25.15-.15 2.4v2.15q1.1-.25 2.05-.65 1.45-.7 2.9-1.5 3.35-2 6.3-5.2.3-.3.4-.55 4.95-5.75 8.7-15-.1-.5-.5-.95-1.1-1.05-1.75-2.4m-85 91.8q-4.4-.9-5.6 1.5-.8 1.85.8 4.4 1.6 2.55 3.35 4.95 1.75 2.3 14.7 4.55-1.6-.55-2.95-1.45-3.2-2-4-3.9-.55-1.2-.95-4.3-.25-3.2.3-4.8-2.45-.25-5.65-.95m34 5.35h-.15q-.1 0-.25-.1.15.8 0 3.85-.4 3.1-1.2 6.05 1.45-.4 2.8-.8 7.25.5 14.05 1.75.7.1 1.75.4 3.1.5 9.1 1.85.044 0 .15.05-5.358-2.653-9.1-4.2-1.1-.4-2.05-.8-4.4-1.75-7.05-3.1-2.85-1.3-4.3-2-1.6-.9-3.75-2.95m-14.6-7.05q-.5 0-2.55-.4-2.25-.4-2.5-1.1-.15-.25.4-1.45.25-.7.4-.95-.8-.15-1.9-.15-6 .15-7.6-.25l.1 2.4q2.4 1.6 4.05 2 1.7.4 5.05-.25l.15 2 4.4-1.85m17.8-89.7q.7.55 1.9 1.1.5.25 1.2.5 2 .85 2.55 1.25.65.5 1.05 1.45.65 0 1.6-1.2.15-.25.3-.4.9-1.35.9-2.3-1.6.15-4.25 0-4.15-.25-4.95-.5l-.3.1m52.05-15.8v-.1q-.5-.15-.9-.15-1.2 0-2.55 2.15-1.2 1.85-1.35 2.95 0 .25.65 1.35.7 1.05.7 1.45-.15 1.35-.95 1.75-.4.25-1.2.25-.55 0-.65-.1-.3-.3-.4-.45v.7q0 1.75 2.9 1.75 1.75 0 2.15-1.75.3-.95.3-3.9-.15-1.35 1.45-2.95.95-.8 1.1-1.2.5-.8.4-1.45l-.15-.15q-.15 0-.15-.15h-1.35m-46.15-4h-.15q0 .8.3 1.6.25-1.05.65-2.55.8-2.65 1.2-3.85.95.65 2.4 1.85 1.5.95 3.25.8 0-.65.1-2 .3-1.35.3-2 1.3 1.9 4 2.7-2.8.4-4.4 2.8-1.65 2.4-7.5 12.3 1.85-1.85 4.15-2.8 3.2-1.35 8.7-1.35 6.25 0 10.3 2.3 2.65 1.6 4.4 4h.15l-.3.15q.15.25.3.8h-.3q0 2-1.05 4.55-1.35 2.95-2.95 3.75l-1.2.8 3.2-.55q.55-.4 2.4-1.5 1.25-.5 2.85-2.25h.25v.15q0 .5-.4 1.2-.25.4-.55.8l1.5-.55q3.05-2.25 8-9.9.7-1.05 1.2-3.1.8-2.9.95-3.3.65-1.9 1.75-2.7 1.2-1.05 3.35-1.05.4 0 .95.1.4.15.8.15v-.15q-.95-2.25-2.85-2.25-3.75 0-4.8 2.25-.4.95-.8 2.7-.4 2.4-.65 3.35-.7 2.55-2.7 5.35-1.2 1.6-1.75 2.4-1.05 1.45-1.75 2.4l.15-.8q0-.15 1.2-2.8.95-2.15.8-3.1h-.1q-1.2 3.75-3.1 6.15-2.25 2.95-4.95 3.5.8-1.05 2.3-3.2 1.2-1.9 1.85-3.1 1.85-3.6 2.15-7.5 0-.65-.55-5.2h-.15q-1.7-1.2-3.85-4.4-3.2-4.85-3.35-4.95.15.1 2.25 4.15 1.5 2.9 2.15 3.6h-.65q-1.1 0-2.4-.4-1.5-.4-3.25-1.35-2.25-.4-5.75-1.05V221q-1.7-.65-3.75-1.85-1.05-.7-2.1-1.5-3.75-2.65-5.1-4.7 0 .15-.15.3l-.1.15q-.7 3.6-.3 6-3.85-4.15-4.15-6.55-2.25 7.1-2.55 9.2.15.3.15.55z"/><path fill="#F90" d="M505.95 276.4q-.3 0-.55.15v.25h-.65q-.8.55-1.75 1.9-.15.003-.15.1-.8 1.35-2.4 3.75-.15.15-.4.55 0-.15.15-.55 0-1.05.25-3.85 0-.8.15-1.9h-.8l-.8 1.1q0 .4-.3.8-.4 1.05-.4 3.6v.25q0 .7.3 2.3.1 2.15.5 2.95 1.1-.4 3.1-2.55 1.35-1.5 2.25-2.7.15-.25.3-.4v.4q0 .8-.15 1.35-.15.8-.15 1.6 0 4 .55 4.85.15.1.25 2.1l.15-1.05q.25 1.35 3.1 0h1.2q.65 0 1.7-.25 1.1-.3 2.45-.7 2.8-.95 3.85-1.2.15-.15.3-.15h.25q1.05-1.85 2.95-3.45 1.75-1.35 3.6-2.15 1.2-.55 2.4-.95.55-.1 1.1-.25 1.75-.25 3.45-.4h.7q1.05-.55 1.85-1.1 1.75-1.05 3.1-2.1.9-.8 1.75-1.6v-2.05l-.15-.1q-.4-.95-1.5-3.35l-.4 1.05q-.1.15-.1.3-.15 0-.15.1-.4.95-1.35 1.9-1.05.9-2.4 2-1.45.8-3.2 1.75-2.55 1.3-5.9 2.65h-.15q-1.45.7-2.9 1.2-.15.15-.3.15-1.45.4-2.95 1.05-2.95 1.1-6.3 2.15l-2.9 1.1q-.55.1-1.1.4h-1.2q0-1.5.25-4.85.15-.1.15-.4.25-3.6.25-5.05.15-.15.15-.4-.15-.3-1.05-.3z"/><path d="M503 180.85q.95.25 3.2 1.9 1.6 1.05 3.2 2.5 1.6 1.5 1.6 3.65-3.85-2.4-7.45-4.55-3.65-2-9.9-2-6.2.1-7.5.65H486q-.55 0-.15.15h.15q1.05.4 4.4 1.6 2.95 1.05 5.35 2.25 1.35.55 2.45 1.2.1.15 0 .15h-.3q-1.35-.15-2.65-.25-2.15-.3-3.25-.3-5.85 0-7.6.15-2.95.15-4.95.8-1.9.8-4.55 2.55-1.35.95-5.65 2.65 3.1 1.5 3.25 1.5.1-.15 1.45 0 1.35.25 1.5.25.5 0 2.9.15-2.5.65-4 1.2-1.35.4-8.7-2 2.3 4 5.1 5.2.25.15.4.3 2.25 1.05 2.65 1.2-.5-.15-1.2-.3h-.1q-1.1-.1-1.65-.1h-.25q-2.8 0-6 .5 6 2.15 6.8 2.85.8.8 1.75 1.85l1.2 1.2-.25.15h.1q-2 .65-3.85 2.55-1.9 2.25-4.55 3.35 2.8 2.4 6.15 2.9 3.2.7 3.5.15 1.3 1.9 1.7 2.7.4.8 2.85 2.65 2.4 1.9 2.8 2-.3-.8-.3-1.6v-.55q.3-2.1 2.55-9.2.3 2.4 4.15 6.55-.4-2.4.3-6l.1-.15q.15-.15.15-.3 1.35 2.05 5.1 4.7 1.05.8 2.1 1.5 2.05 1.2 3.75 1.85v-.8-.65q-.1-.4-.4-.8-.1-.3-.9-1.35-1.2-1.9-1.2-3.6v-1.25q1.05 2.7 5.35 6.05 1.45 1.2 2.9 2 1.75.95 3.25 1.35 1.3.4 2.4.4h.65q-.65-.7-2.15-3.6-2.1-4.05-2.25-4.15.15.1 3.35 4.95 2.15 3.2 3.85 4.4h.15q.55 4.55.55 5.2-.3 3.9-2.15 7.5-.65 1.2-1.85 3.1-1.5 2.15-2.3 3.2 2.7-.55 4.95-3.5 1.9-2.4 3.1-6.15v-.25q.1.15.1.25.15.95-.8 3.1-1.2 2.65-1.2 2.8l-.15.8q.7-.95 1.75-2.4.55-.8 1.75-2.4 2-2.8 2.7-5.35.25-.95.65-3.35.4-1.75.8-2.7 1.05-2.25 4.8-2.25 1.9 0 2.85 2.25.25.7.4 1.5.5 2.15.4 4.8-.15 4.3-2.55 7.75-2.4 3.5-5.25 3.75l.3.4q.65 1.35 1.75 2.4.4.45.5.95.4.55.7 1.2 1.05 2.85.8 4.7-.15 2-.55 3.35-.4 1.2-1.85 3.6 0 .3-.15.4l-.15.15v.15q-.25.25.7 0 .4-.15 1.2-.55.5-.4 1.2-1.1 0-.1.1-.1 1.25-1.2 1.75-2.8.4-.7.55-1.3-.15.65 0 1.4 0 2 1.2 4.05 1.45 2.9 3.75 4.1-.55-1.85-.25-7.6v-.65l.1-.3q.15-4.95-.4-6.8 1.2.4 1.9 3.05.5 2.3.4 4.3h.1q.55-1.1 1.25-3.9.65-3.05.65-4.8-.4-4.55-.65-5.1-.3-.65-.7-1.75-.55-1.05-.8-2.4-.4-1.6-.4-3.2.15-2.4 1.45-6.55 1.5-4.85 2.05-5.9.4-1.2 1.3-5.9.8-4.8 4.05-9.6-4.55 3.05-5.35 3.6h-.15q.8-2.15 2.25-5.75 1.5-3.1 2.55-4.7h-4.15q1.6-1.35 2.15-2.55.75-1.9 1.05-2-1.6.25-1.7.25-.8.3-1.35.3h-.8q-.55 0-1.9 1.2 1.35-2 2.45-2.95.8-.65 1.6-.65-4.3-1.75-9.4.25-.1.15-.25.15l.15-.15.1-.15q1.75-1.7 3.1-2.65 1.6-1.35 3.9-1.6-3.9-.4-5.65-.55-1.6 0-3.05.25-1.35.3-3.35.55-2 .4-4.3 1.2-2.25.8-4.15-2.4-1.85-3.1-4.7-4.4-5.35-2.45-12.15-1.9m-1.75 15h2.15q.4 0 1.75.15 1.45.1 2.25.1v-.25q-1.05-.8-2.4-1.6-1.95-1.15-3.3-1.2h2.5q1.45 0 4 .5 1.2.3 4.45 1.35h2q0-1.35-.55-2.15-.15-.1-.65-.65.9.55 3.6 2.55 2.8 2 3.45 2.4l-.1 1.6h-.3q0-.55-.5-.8-.8-.55-1.1-.8h-1.6l-.1.4q1.3.55 1.45 2v2.3q-2.3-2.45-3.9-2.45 0 .85.7 2.15.5 1.1.25 2.3h-.15q-2.5-3.6-6.15-5.1-3.45-1.6-9.9-1.85.55-.7 2.15-.95m27.15 4.55q-1.45.8-1.85 1.75 2-.4 5.1.65 2.4.8 4 1.75v.4q-.8-.4-2.8-.4-2.15 0-3.1.4.55.55 1.35 2.4.8 2 1.05 2.55l-.1.15q-1.2-1.35-2-2.15-1.25-1.35-2.55-2.15-3.25-2.3-7.65-1.45.65-.95 1.1-1.35.9-.8 2.4-1.5-.7 0-1.35-.1-.4-.3-.95-.4v-.4q2.4 0 3.9-.7 1.6-.55 2.65-.55h3.35q-1.75.55-2.55 1.1z"/><path fill="#FFF" d="M526.55 202.15q.4-.95 1.85-1.75.8-.55 2.55-1.1h-3.35q-1.05 0-2.65.55-1.5.7-3.9.7v.4q.55.1.95.4.65.1 1.35.1-1.5.7-2.4 1.5-.45.4-1.1 1.35 4.4-.85 7.65 1.45 1.3.8 2.55 2.15.8.8 2 2.15l.1-.15q-.25-.55-1.05-2.55-.8-1.85-1.35-2.4.95-.4 3.1-.4 2 0 2.8.4v-.4q-1.6-.95-4-1.75-3.1-1.05-5.1-.65m-23.15-6.3h-2.15q-1.6.25-2.15.95 6.45.25 9.9 1.85 3.65 1.5 6.15 5.1h.15q.25-1.2-.25-2.3-.7-1.3-.7-2.15 1.6 0 3.9 2.45v-2.3q-.15-1.45-1.45-2l.1-.4h1.6q.3.25 1.1.8.5.25.5.8h.3l.1-1.6q-.65-.4-3.45-2.4-2.7-2-3.6-2.55.5.55.65.65.55.8.55 2.15h-2q-3.25-1.05-4.45-1.35-2.55-.5-4-.5h-2.5q1.35.05 3.3 1.2 1.35.8 2.4 1.6v.25q-.8 0-2.25-.1-1.35-.15-1.75-.15z"/></g><g id="c"><path fill="#FFF" d="M497 227.55q-.2-.15-.5-.2-.4-.05-.6.25-.1.2-.1.6-.05.95.65.95.35 0 .55-.35.15-.25.2-.6 0-.45-.2-.65z"/><path d="M505.75 227.05l-8.75.5q.2.2.2.65-.05.35-.2.6-.2.35-.55.35-.7 0-.65-.95 0-.4.1-.6l-1 .05-3 3.95 13.85-4.55z"/></g><path d="M492.75 223.2q6.6-2.6 13.9-2.6-7.6-2.3-18.95 0-.95 1.55 5.05 2.6z" id="d"/><g id="e"><path fill="#CF0" d="M280.75 360.6q-.1.15-.25.55 2.65.8 5.35 1.6.95-2.55.25-9.1l-.65.1-.55.8q-1.05 1.5-3.6 4.3-.15.8-.55 1.75z"/><path fill="#FC6" d="M294.55 337.2q2.15-5.1 3.9-9.4.5-.95.9-2-6.4-.95-12.3-3.2-3.5-1.6-6.8-3.65-2.95-2-5.65-4.4-.65 1.75-1.35 3.6-1.45 4.45-3.2 9.5-1.35 4.3-2.65 8.85-.95 3.35-2.15 7.25-.4 1.2-.8 2.25-.7.95-1.1 2.4-.25 1.1-.4 1.6 0-.1-.1-.1-.3.65-.95 1.75-.4.5-.8 1.2 9.2 5.2 19.4 8.3.15-.4.25-.55.4-.95.55-1.75 2.55-2.8 3.6-4.3l.55-.8h-.15q-.1 0-1.2 1.35-1.85 1.9 1.75-3.45.8-1.25 1.75-2.45.5-.8.95-1.45 4.8-6.85 6-10.55m40.4 19.1q.3 1.35.55 2.95.4 1.6.8 3.1 1.45-.4 2.8-.8-.8-1.35-1.2-2.3-.8-.95-2.95-2.95m-9.2-70.5q.8.5 1.2 1.3.65 1.35.65 2.85 0 1.7-.8 3.2h7.65q-4.55-5.9-8.3-10.3-4.05-4.95-6.7-7.35l.4-3.9-15-6.3q-.15.4-.15.7.3.25.55.65.15.15.15.25.9 1.1 1.2 2.7 1.75-.95 3.75-.95 2.4 0 4.4 1.35.55.25.95.65.25.4.55.7 1.05 1.2 1.45 2.95.15.65.15 1.3v.4q.9.15 1.6.4 1.2.55 2.25 1.5.8.8 1.35 1.6.15.15.15.25.5 1.2.5 2.8 0 .45-.1 1.1 0 .25-.15.65 1.35.4 2.3 1.5m3.75-54.5q.9.4 1.6 1.2 2.95 2.45 3.6 9.55-.8-1.35-2.7-2.3-1.3-.8-3.6-.95-.25.8-.8 1.35 0 .15-.15.15-.8.9-2.1.9-1.25 0-2.15-.8v-.25q-.4-.4-.7-.95-3.75.55-6.4 2.4l.4.45q-.55-.3-.65-.7-.7 2-1.1 2.95-.4.65-1.2 3.5-1.05 2.9-1.05 3.6 0 2.8 1.2 4.55 1.3 2 3.75 2 .496 0 .5-.15v.15q.005-.15.15-.15.15-.4.25-.65.4-.8.4-1.75 0-1.45-.65-2.4-.55-.55-1.35-.55-.65 0-.9.55-.3.55-.3 1.05 0 .4.3.7l-.3.1q-.25-.25-.4-.5-.4-.7-.4-1.6 0-.7 1.1-1.2.65-.3 1.2-.3.5 0 1.2.4l.1.15h.15q1.05-.25 2.55 1.35 1.6 1.7 1.6 3.35 0 .8-1.85 3.85-.3 1.1-3.25 1.2-.8.3-1.7.3-2.55 0-4.85-2.3-2-2.15-3.05-5.1v-.1q-.002.1-.15.1 0 .3-.15.4-1.45 4.95-2.25 8.2l14.85 5.45.8.3q2.65.4 3.75.65 1.45.3 3.05.55 1.35.15 2.45 0 .4-.4 1.05-.8.4-.3.8-.4l.4-.4q.55-.4.65-.7.15-3.2 2.85-4.95h.1l-.1-.1q-4.45-1.1-3.75-4.3-.15-.15-1.6-.55 1.6.4 1.7.4 3.5-2.1 6.45-1.2l.15-.1q-.15-.3-.4-.95-.15-.55-.3-1.5v-.1q-.4.1-1.75-.95-1.3-1.05-1.3-1.6 0-.8.5-.95.4 0 1.2-.25 1.5-.15 2.15-.4.95-.3 2.55-.8 2.4-.7 2.55-.7h.15l.65-.65q.25-.25.25-1.05 0-.85-1.05-.95-.95-.3-2.55-1.5-1.6-1.3-1.85-1.7l-.3-.3q-.5-.5-.9-.65-.7-1.9-.55-4 0-1.35.1-2.45v-.1q-4.4-3.75-6.65-5.9-4.05-4.15-4.85-8.05-.4 2.15-2.25 4.15-2.55 2.7-2.8 3.1-.3.4-.55.8.15 0 .4-.15 3.05-1.05 2.65.8l8.05.55v.8l-2.65-.15m-26.65 30.4h-.4q.255.005.4.15v-.15z"/><path fill="#E30202" d="M313.7 273.2q-.7-.4-.95-.55h-.25q.1.15.5.55H313.7m8 4.7q-1.05-.95-2.25-1.5-.7-.25-1.6-.4-.55-.1-1.1-.1-.65 0-1.2.1-.25.15-.65.15-.3 1.6 1.85 2.95.15.15.3.15.25.1.4.25.8.15 1.05.4-.15-.4-.25-1.35.9.15 2.15 1.6.1.3.4.55H322.5q.4-.25.7-.95 0-.1-.15-.25-.55-.8-1.35-1.6m-15.1-8.3q.15.4.15.95 1.6 1.45 2.65 2v-.4q-.15-.55-.4-.8h1.2q0 .1.4.1.4.15.55.15h.15q-.153-.003-.55-.4-.546-.546-.8-.55.255-.002.9-.25h.15l.8.4q.8.4 1.75 1.2.55.65.95 1.05.65-.1.9-.25.85-.4.85-1.45-.3-.3-.55-.7-.4-.4-.95-.65-2-1.35-4.4-1.35-2 0-3.75.95m-1.9-3.6q-.1-.15-.1-.3-1.1-.9-2.15-1.45-1.6-.55-3.5-.55h-.25q-.8 0-1.35.15l-.4.1q.15.85.8 1.75-.1-.5-.25-.8.55-.1 1.2.4.25.3.55.7.25.1.5.25.7.4 1.6 1.05.85.4 1.35.95.55.15 1.1.15.25 0 .8-.3.5-.25.8-.25v-.95q0-.1-.15-.25-.25-.4-.55-.65m20.1 49.35q-.3-.65-.8-.8-.3-.15-2.3-.15-2 0-2.25.15-.3.15-.7.55-.1.25-.1.4 0 .4-.15.65.25 0 .65-.25.55-.25.7-.25.8 0 2.55.9 1.6 1.2 1.7 2.15.15 0 .3-.15.1-.1.1-.4v-.1q.45-.8.45-1.9 0-.25-.15-.8m1.75-3.35v-.25q0-1.35-.8-2.4-.95.8-2.45.95 0 .4.8.9h.15q.4.3.7.4.8.4 1.6.4m-.3-9.5q0-.1-.1-.1-.95.65-2.15.8.1.5.8 1.2.15.1.15.25.4.25.8.4.25.15.5.15.15 0 .4-.15h.3v-.25h.5q-.25-1.35-1.2-2.3m-1.6-6.3q.7.55 1.35.55l.25-.1q.3 0 .55-.15.15 0 .15-.15.8-.25 1.05-.4-.25-.8-1.05-1.6-.3-.4-.7-.55l-.5.3q-.8.9-1.9 1.3.25.4.8.8m.4-9.5l.15-.1q.55.25.8 1.35.55-.3.95-.85-.4-.8-1.2-1.3-.95-1.1-2.3-1.5-.4 1.6-1.75 2.7-.4.4-.9.8.25.8.65.95h.4q.25-.15.55-.3 2.1-1.35 2.65-1.75m7.25-76.65l.1-.15q3.35 5.5 6.85 9.9.25.55.55.95.5.25 1.2.4.5.15.9.4v-.4q-.5-2.7-1.85-6.3-1.6-4-5.75-7.75-4.3-3.75-6.85-5.2-2.4-1.35-6.95-2.55-4.55-1.2-7.1-1.1-2.55.15-6.65 1.5l.1.1h-.1v-.1q-.95-.15-2.05.1-1.05-1.05-1.6-1.2-.4 0-2.15.15-1.6.15-3.45.4-1.6.4-6.15 3.1-4.45 2.65-6.85 5.6-2.4 2.8-4.8 6.4-.15.15-.3.55-2 3.5-3.6 11.1-.4 1.9-.65 3.75 1.05 2.4 2.95 4.95 4.15 5.9 8.55 5.9 4.8 0 10.05-5.35 1.35-1.35 3.6-4.15 1.75-2.15 2.4-2.7v-.5q.4 2.65 1.9 4.4.25.4.65.65.4.45.95.55 1.35.55 2.65.15.15 0 .4-.15.3-.1.55-.25 2.3-1.5 5.35-6.15 2-3.25 3.6-5.9 1.5-2.3 2.55-4.55 2.4-4.55 2.95-5.75 2.95 2.65 5.5 4.55-.4-.95-1.1-2.15h-.1q-.7-1.2-1.1-1.85l.4.25q.4.4 2.3 1.6h.25q-2.8-3.9-3.6-5.2 7.1 6 8.3 8.7v-1.6q-.4-.45-.95-1.75-.95-1.9-1.85-3.35m.8 3.2q-.15.15-.4.15v-.15h.4m-17-10.45h-.15v-.4l.15.4m-11.1 3.65h-.8q-2 0-4.95 1.05-2.3.65-4.55 1.75 1.2-1.2 2.95-3.2 1.3-1.5 2.9-2.85-.65-.5-1.3-.5-1.1.1-1.75.1 2-1.2 2.8-2 .15-.15 2-.15 1.9 0 4.95 3.5 4.55 4.95 6.85 7.5.65.4 1.05.8-1.45 1.2-3.05 3.1-2.15 2.4-5.35 4.8l-.15-.15q.15-1.35 1.2-3.45.95-1.75.95-1.9 0-.65-.15-1.05-2.4.4-3.35.25-1.75 0-1.75-2.15 0-.5.8-1.3.4-.55 1.6-1.65h-3.85q.8-.8 2-1.85.4-.4.95-.65m-16.05 7.35l.4.1h-.4v-.1m1.7 16.2q-.094.094-.1.2.004-.21.1-.5v.3z"/><path fill="#C00" d="M317.95 282.15l-.1-.25v.15l.1.1m-8.7-48.7q-.25.15-.4.15-1.3.4-2.65-.15-.3 1.2-.8 2.4-.8 2.15-.8 3.1.4-.55 2.95-3.35 1.05-1.45 1.7-2.15m14.75 85.8v-.15q.25-.25.4-.55-.15.15-.3.15-.1-.95-1.7-2.15-1.75-.9-2.55-.9-.15 0-.7.25-.4.25-.65.25-.15.4-.4.8-.4.95-.25 3.25.1 2.25 1.2 4.15.9 2.5 3.35 2.5.4 0 .8-.1-2.3.1-2.3-2.7 0-2.4 1.9-4 .4-.25 1.2-.8m5.9-103.85h-.15q-2.55-1.9-5.5-4.55-.55 1.2-2.95 5.75-1.05 2.25-2.55 4.55-1.6 2.65-3.6 5.9-3.05 4.65-5.35 6.15-4.55 10.55-5.75 12.95-1.45 3.25-3.9 7.25.3-1.2.7-2.95.4-1.35 1.75-5.35v-.25q-.15.1-.55.65-.8.8-2 3.75h-.15q0-.55.15-2.15.25-1.85.25-2.15v-.65q0 .15-1.6 2.55t-1.75 3.05q0-1.2 1.1-5.35.5-2.1 1.3-4.55-.25.55-.9 1.35-.8.8-1.1 1.2-.25-.4-.25-.95-.15-.5-.15-.9 0-.95.25-1.75.3-.95.3-1.05 1.2-2.3 2.25-4.55.8-1.75 2-3.65 0 .8-.1 1.5-.3.8-.8 2.15v1.05q.8-.95 1.05-1.5.3-.4.8-.9v3.75q1.2-.7 2.3-2.3.1-.25.25-.55-.4-.25-.65-.65-1.5-1.75-1.9-4.4v.5q-.65.55-2.4 2.7-2.25 2.8-3.6 4.15-5.25 5.35-10.05 5.35-4.4 0-8.55-5.9-1.9-2.55-2.95-4.95-.7 6.05.25 11.25 1.35 6.7 3.2 9.35 1.9 2.55 2.95 3.65.95.9 2.15 2.25.15.3.25.3l-.25.1q-1.75 2.95-.55 5.65 1.1 2.8 2.85 4.4 1.7 1.45 5.35 2.55 0 .4-.15.8v.8q0 1.75.8 3.35.55.95 1.35 1.75 2.4 2.1 5.6 2.1 2.15 0 4.05-.9.4 1.85 2 3.45 2 2 4.65 2 .15 2.7 2.3 4.45 1.35 1.45 3.45 1.85-.1.55-.1 1.1 0 2.55 1.75 4.15.8.8 1.7 1.2-.8 1.2-.8 2.55v.1q0 2.3 1.5 3.75.25.3.65.4-.25.3-.4.4-1.35 1.35-1.35 3.25 0 2 1.35 3.2-1.05 1.2-1.05 2.8 0 1.2.8 2.25-.4.7-.7 1.1.4-.4.7-.55.25-.15 2.25-.15t2.3.15q.5.15.8.8v-.4l.55-.55q1.2-1.05 1.2-2.4-.8 0-1.6-.4-.15.15-.3.15-.65.25-1.45.25H322q-.4-.1-.55-.8.15-.25.55-.25.8 0 1.85.25h.25q-.8-.5-.8-.9 1.5-.15 2.45-.95.25-.15.5-.4 1.35-1.2 1.35-3.2 0-.55-.15-.95h-.5v.25h-.3q-.25.15-.4.15-.25 0-.5-.15-.3.4-1.1.95-1.05.65-1.45.65-.3 0-.7-.25-.5-.25-.5-.55 0-.65 1.6-.95.8-.1 1.35-.25 0-.15-.15-.25-.7-.7-.8-1.2 1.2-.15 2.15-.8.4-.3.8-.7 1.3-1.2 1.45-3.05.15-.3.15-.7 0-.9-.4-1.85l-.15-.15q-.25.15-1.05.4 0 .15-.15.15-.25.15-.55.15l-.25.1q-.65 0-1.35-.55-.55-.4-.8-.8 1.1-.4 1.9-1.3l.5-.3q.3-.25.55-.65.8-1.5.8-3.2 0-1.5-.65-2.85-.4.55-.95.85.15.4.15.9 0 .55-1.65 1.35-1.45 1.05-2.5 1.05-.95 0-1.2-.1-.3-.15-.3-.7 0-.8 1.35-1.7h-.4q-.4-.15-.65-.95.5-.4.9-.8 1.35-1.1 1.75-2.7.15-.4.15-.65.1-.65.1-1.1 0-1.6-.5-2.8-.3.7-.7.95H320.8q.8.95 1.45 2.15-.55-.4-1.2-.7-.95-.25-1.35-.4l1.5 2.45q-.7-.15-1.9-1.2-1.05-.55-1.35-.85l1.75 3.5h-.65q-1.5-.95-2.95-2.55-1.5-1.75-1.75-3.05v-.8q.4.25 1.2.9.7.55 1.5.55-.15-.003-.3-.4 0-.4-.1-.65.1 0 .8-.15-.15-.15-.4-.25-.15 0-.3-.15-2.15-1.35-1.85-2.95.4 0 .65-.15.55-.1 1.2-.1.55 0 1.1.1v-.4q0-.65-.15-1.3-.4-1.75-1.45-2.95 0 1.05-.85 1.45-.25.15-.9.25-.3 0-.8.15H313q.15.25.4.7.4.25.95.8v.1h-1.2q-.25-.25-.65-.4-.4-.1-.4-.4h-.15q.8 1.75 1.2 2.15h-1.85q-1.65-.95-2.45-1.35l-1.2-1.2q-.4-.55-.5-.95h.8q.65.55 1.6.55 0-.4-.15-.65-1.05-.55-2.65-2 0-.55-.15-.95-.3-1.6-1.2-2.7v.95q-.3 0-.8.25-.55.3-.8.3-.55 0-1.1-.15 1.1.8 1.6 1.6-2.8-.65-3.2-.65h-.25q.65.55 1.35 1.85.9 1.6 1.45 2.3v.25h-.8q-.25-.15-.65-.25-1.5-.8-2.85-1.9-1.6-1.3-2.25-2.95.25-.25.95.15.4.25.9.8h.15q-1.9-1.85-2.15-3.05.4.1 1.65 1-.3-.25-.45-1-.25-.4-.4-.7-.65-.9-.8-1.75l.4-.1q.55-.15 1.35-.15h.25q1.9 0 3.5.55 1.05.55 2.15 1.45 0 .15.1.3 0-.3.15-.7.15-1.05.55-2.25.8-3.25 2.25-8.2.15-.1.15-.4.148 0 .15-.1v.1q1.05 2.95 3.05 5.1 2.3 2.3 4.85 2.3.9 0 1.7-.3 1.2-.5 2-1.45 1.65-1.75 1.65-3.9 0-1.35-1.5-3.2-.55-.65-1.2-1.2h-.15l-.1-.15q-.7-.4-1.2-.4-.55 0-1.2.3-1.1.5-1.1 1.2 0 .9.4 1.6.15.25.4.5l.3-.1q-.3-.3-.3-.7 0-.5.3-1.05.25-.55.9-.55.8 0 1.35.55.65.95.65 2.4 0 .95-.4 1.75-.1.25-.25.65-.145 0-.15.15-.65.95-1.45.95-2.55 0-3.9-1.75-1.05-1.6-1.05-4.4 0-2.55.15-3.1 0-.55.9-4l-.1-.15q.4-.8.8-1.85 1.7-4.85 3.6-9 .95-2.25 2.25-3.75.15-.1.15-.25l-4.3-.25 4.7-.4q.55-.8 1.1-1.5 3.05-4.15 4.55-7.35.5-.95.8-1.9.5.85 1.05 1.9v.15q.4.5.65.9 2.85 4.85 3.35 5.35 1.35 2.05 4.15 4.3 2 1.75 2.95 2.4-.15.55-.15 1.1v.1q-.1 1.1-.1 2.45-.15 2.1.55 4 1.2-3.2 2.65-6.45.95-2.55 1.05-8.3.15-2.9-.4-5.6-.4-.25-.9-.4-.7-.15-1.2-.4.1.25.1.4 1.1 2.4 1.1 5.9v3.45q-.8-2.25-2.55-5.35-1.1-2.25-2.3-4-.25-.55-.65-.95v.3q.15.4.25.65.55 1.85 1.1 3.2.9 2.95 1.3 4-1.85-1.7-4.8-6.95-.15-.1-.15-.25-1.85-3.2-3.05-5.35l.15-.15q-.15-.1-.4-.25m-4.05 81.75q-.25.4-.8.55-1.05.95-2.15.95h-1.05q-.25-.15-.25-.95 1.45 0 2.8-.15.95-.1 1.45-.4m-23.4-35.45h.4v.15q-.145-.145-.4-.15z"/><path fill="#FFF" d="M318.25 278.55q.1.95.25 1.35-.25-.25-1.05-.4-.7.15-.8.15.1.25.1.65.15.397.3.4-.8 0-1.5-.55-.8-.65-1.2-.9v.8q.25 1.3 1.75 3.05 1.45 1.6 2.95 2.55h.65l-1.75-3.5-.1-.1v-.15l.1.25q.3.3 1.35.85 1.2 1.05 1.9 1.2l-1.5-2.45q.4.15 1.35.4.65.3 1.2.7-.65-1.2-1.45-2.15-.3-.25-.4-.55-1.25-1.45-2.15-1.6m-19-12.55q-.3-.4-.55-.7-.65-.5-1.2-.4.15.3.25.8.15.3.4.7.15.75.45 1-1.25-.9-1.65-1 .25 1.2 2.15 3.05h-.15q-.5-.55-.9-.8-.7-.4-.95-.15.65 1.65 2.25 2.95 1.35 1.1 2.85 1.9.4.1.65.25h.8v-.25q-.55-.7-1.45-2.3-.7-1.3-1.35-1.85h.25q.4 0 3.2.65-.5-.8-1.6-1.6-.5-.55-1.35-.95-.9-.65-1.6-1.05-.25-.15-.5-.25m11.75 4.4h-.15q-.645.248-.9.25.254.004.8.55.397.397.55.4h-.15q-.15 0-.55-.15-.4 0-.4-.1H309q.25.25.4.8v.4q.15.25.15.65-.95 0-1.6-.55h-.8q.1.4.5.95l1.2 1.2q.8.4 2.45 1.35h1.85q-.4-.4-1.2-2.15h.15q0 .3.4.4.4.15.65.4h1.2v-.1q-.55-.55-.95-.8-.25-.45-.4-.7-.4-.4-.5-.55h.25q.25.15.95.55.5-.15.8-.15-.4-.4-.95-1.05-.95-.8-1.75-1.2l-.8-.4m-8.3-38.4q-.5.5-.8.9-.25.55-1.05 1.5v-1.05q.5-1.35.8-2.15.1-.7.1-1.5-1.2 1.9-2 3.65-1.05 2.25-2.25 4.55 0 .1-.3 1.05-.25.8-.25 1.75 0 .4.15.9 0 .55.25.95.3-.4 1.1-1.2.65-.8.9-1.35-.8 2.45-1.3 4.55-1.1 4.15-1.1 5.35.15-.65 1.75-3.05t1.6-2.55v.65q0 .3-.25 2.15-.15 1.6-.15 2.15h.15q1.2-2.95 2-3.75.4-.55.55-.65v.25q-1.35 4-1.75 5.35-.4 1.75-.7 2.95 2.45-4 3.9-7.25 1.2-2.4 5.75-12.95-.25.15-.55.25-.65.7-1.7 2.15-2.55 2.8-2.95 3.35 0-.95.8-3.1.5-1.2.8-2.4-.55-.1-.95-.55-.15.3-.25.55-1.1 1.6-2.3 2.3V232m22.25 79.6q-.3-.1-.7-.4h-.4q-1.05-.25-1.85-.25-.4 0-.55.25.15.7.55.8h1.2q.8 0 1.45-.25.15 0 .3-.15m.8-6.55q-.4-.15-.8-.4-.55.15-1.35.25-1.6.3-1.6.95 0 .3.5.55.4.25.7.25.4 0 1.45-.65.8-.55 1.1-.95m-.55-18.45l-.15.1q-.55.4-2.65 1.75-.3.15-.55.3-1.35.9-1.35 1.7 0 .55.3.7.25.1 1.2.1 1.05 0 2.5-1.05 1.65-.8 1.65-1.35 0-.5-.15-.9-.25-1.1-.8-1.35m-.95-48.7h.25q.55-.15.85-.55.1-.4.1-.7 0-1.3-1.35-1.45-.5 0-.9.4-.15.25-.15 1.05 0 .4.15.7.4.55 1.05.55m.8 59.8q.55-.15.8-.55-.5.3-1.45.4-1.35.15-2.8.15 0 .8.25.95h1.05q1.1 0 2.15-.95m-20.85-91.25h.8q-.55.25-.95.65-1.2 1.05-2 1.85h3.85q-1.2 1.1-1.6 1.65-.8.8-.8 1.3 0 2.15 1.75 2.15.95.15 3.35-.25.15.4.15 1.05 0 .15-.95 1.9-1.05 2.1-1.2 3.45l.15.15q3.2-2.4 5.35-4.8 1.6-1.9 3.05-3.1-.4-.4-1.05-.8-2.3-2.55-6.85-7.5-3.05-3.5-4.95-3.5-1.85 0-2 .15-.8.8-2.8 2 .65 0 1.75-.1.65 0 1.3.5-1.6 1.35-2.9 2.85-1.75 2-2.95 3.2 2.25-1.1 4.55-1.75 2.95-1.05 4.95-1.05m28.2 3.45l-.1.15q.9 1.45 1.85 3.35.55 1.3.95 1.75v1.6q-1.2-2.7-8.3-8.7.8 1.3 3.6 5.2h-.25q-1.9-1.2-2.3-1.6l-.4-.25q.4.65 1.1 1.85h.1q.7 1.2 1.1 2.15h.15q.25.15.4.25l-.15.15q1.2 2.15 3.05 5.35 0 .15.15.25 2.95 5.25 4.8 6.95-.4-1.05-1.3-4-.55-1.35-1.1-3.2-.1-.25-.25-.65v-.3q.4.4.65.95 1.2 1.75 2.3 4 1.75 3.1 2.55 5.35v-3.45q0-3.5-1.1-5.9 0-.15-.1-.4-.3-.4-.55-.95-3.5-4.4-6.85-9.9z"/><path d="M292 274.15l-.95.95q8.3 4.4 14.45 9.5 7.8 6.15 12.45 13.25 0-1.35.8-2.55-.9-.4-1.7-1.2-1.75-1.6-1.75-4.15 0-.55.1-1.1-2.1-.4-3.45-1.85-2.15-1.75-2.3-4.45-2.65 0-4.65-2-1.6-1.6-2-3.45-1.9.9-4.05.9-3.2 0-5.6-2.1-.8-.8-1.35-1.75m36 21.8l.15.15q.4.95.4 1.85 0 .4-.15.7H339q-2.3-2.85-4.55-5.5h-7.65q-.25.4-.55.65.4.15.7.55.8.8 1.05 1.6z"/><path fill="#FDA31C" d="M305.4 263.05q-.4 1.2-.55 2.25l15 6.3.4-2.95v-.15l-14.85-5.45M319.7 253q1.5 1.85 1.5 3.2 0 2.15-1.65 3.9-.8.95-2 1.45 2.95-.1 3.25-1.2 1.85-3.05 1.85-3.85 0-1.65-1.6-3.35-1.5-1.6-2.55-1.35.65.55 1.2 1.2m24.5-4.3q-.15 0-2.55.7-1.6.5-2.55.8-.65.25-2.15.4-.8.25-1.2.25-.5.15-.5.95 0 .55 1.3 1.6 1.35 1.05 1.75.95v-.3-.25q.15-1.2 3.5-3.1 1.75-1.05 2.65-1.85l-.25-.15m-13.1-16.2q-.7-.8-1.6-1.2l-10.2-.65q0 .15-.15.25-1.3 1.5-2.25 3.75-1.9 4.15-3.6 9-.4 1.05-.8 1.85l.1.15q-.9 3.45-.9 4-.15.55-.15 3.1 0 2.8 1.05 4.4 1.35 1.75 3.9 1.75.8 0 1.45-.95v-.15q-.004.15-.5.15-2.45 0-3.75-2-1.2-1.75-1.2-4.55 0-.7 1.05-3.6.8-2.85 1.2-3.5.4-.95 1.1-2.95.1.4.65.7l-.4-.45q2.65-1.85 6.4-2.4-.25-.65-.25-1.3 0-1.5.95-2.55.8-.95 2.15-.95 1.45 0 2.25.95.95 1.05.95 2.55 0 .4-.15.9 2.3.15 3.6.95 1.9.95 2.7 2.3-.65-7.1-3.6-9.55m-4.95-13.25q-.3.95-.8 1.9-1.5 3.2-4.55 7.35-.55.7-1.1 1.5l1.35-.15 3.05.25q.4-1.85-2.65-.8-.25.15-.4.15.25-.4.55-.8.25-.4 2.8-3.1 1.85-2 2.25-4.15.8 3.9 4.85 8.05 2.25 2.15 6.65 5.9 0-.55.15-1.1-.95-.65-2.95-2.4-2.8-2.25-4.15-4.3-.5-.5-3.35-5.35-.25-.4-.65-.9v-.15q-.55-1.05-1.05-1.9z"/><path fill="#FDCC0B" d="M306.85 199.85l-.1-.1v.1h.1m-16.3 30.35q.006-.106.1-.2v-.3q-.096.29-.1.5m-1.2-16.3l-.4-.1v.1h.4m26.6-11.1h.15l-.15-.4v.4m16.75 10.6q.25 0 .4-.15h-.4v.15z"/><path fill="#8C478D" d="M335.5 359.25q-.25-1.6-.55-2.95-.5-6.15 1.9-10-4.05 2-7.9 3.45-10.6 3.75-19.8 3.1-.8 0-1.5-.15-.65 0-1.45-.15-4.15-.65-11.4-2.95-3.45-1.2-6.25-1.85-.45.65-.95 1.45-.95 1.2-1.75 2.45.15 1.05.25 2 .7 6.55-.25 9.1 11.8 2.65 24.6 2.65 13.55 0 25.85-3.05-.4-1.5-.8-3.1z"/><path fill="#636" d="M339.4 330.75q-5.5 1.2-9 1.75-1.85.1-3.05.1-.4 0-3.5-.8 2 .8 1.6.8-5.6-.5-9.35-2.5-3.5-2.05-7.75-6.6-1.9-2.1-3.35-4.95-1.1-2.4-1.9-3.45-.5 2.25-1.85 5.2-.8 2.55-1.9 5.5-.4 1.05-.9 2-1.75 4.3-3.9 9.4-1.2 3.7-6 10.55 2.8.65 6.25 1.85 7.25 2.3 11.4 2.95.8.15 1.45.15.7.15 1.5.15 9.2.65 19.8-3.1 3.85-1.45 7.9-3.45.1-.3.4-.7 3.45-4.95 6.95-10.55 2.55-4.3 4.15-7.1-3.1 1.45-8.95 2.8z"/><path fill="#A5A" d="M341.1 301.2q-1.05-1.35-2.1-2.55h-10.6q-.15 1.85-1.45 3.05-.4.4-.8.7.1 0 .1.1.95.95 1.2 2.3.15.4.15.95 0 2-1.35 3.2-.25.25-.5.4.8 1.05.8 2.4v.25q0 1.35-1.2 2.4l-.55.55v.4q.15.55.15.8 0 1.1-.45 1.9v.1q0 .3-.1.4-.15.3-.4.55v.15q-.8.55-1.2.8-1.9 1.6-1.9 4 0 2.8 2.3 2.7-.4.1-.8.1-2.45 0-3.35-2.5-1.1-1.9-1.2-4.15-.15-2.3.25-3.25.25-.4.4-.8.15-.25.15-.65 0-.15.1-.4.3-.4.7-1.1-.8-1.05-.8-2.25 0-1.6 1.05-2.8-1.35-1.2-1.35-3.2 0-1.9 1.35-3.25.15-.1.4-.4-.4-.1-.65-.4-1.5-1.45-1.5-3.75v-.1q-4.65-7.1-12.45-13.25-6.15-5.1-14.45-9.5-3.05 3.35-7.1 12.15-3.45 8.15-4.8 14.35v.1q-.95 2.55-2.25 5.9-.55 1.35-1.1 3.1-.65 1.7-1.2 3.85 2.7 2.4 5.65 4.4 3.3 2.05 6.8 3.65 5.9 2.25 12.3 3.2 1.1-2.95 1.9-5.5 1.35-2.95 1.85-5.2.8 1.05 1.9 3.45 1.45 2.85 3.35 4.95 4.25 4.55 7.75 6.6 3.75 2 9.35 2.5.4 0-1.6-.8 3.1.8 3.5.8 1.2 0 3.05-.1 3.5-.55 9-1.75 5.85-1.35 8.95-2.8.55-.95.95-1.75 1.7-3.1 1.2-8.55-.55-5.35-9.4-16.45z"/><path fill="#FE9F89" d="M336.85 259.55h-.15q-2.65-.4-4.3-1.35l-.1.15q-.7 3.2 3.75 4.3l.1.1q.3-.1.55-.25.8-1.35.15-2.95z"/><path fill="#F63" d="M336.85 259.4q.65-1.05 2-2.4-2.95-.9-6.45 1.2 1.65.95 4.3 1.35l.15-.15z"/><path fill="#9C0" d="M324.5 237.9q-.1.003-.1.1-.55.3-.95 1.1v.1q-.15.4-.25 1.1v.1q.9.8 2.15.8 1.3 0 2.1-.9-.1-.95-.5-1.5-.55-.9-2-.9h-.45z"/><path fill="#C90" d="M324.5 237.9h-.25l.15.1q0-.097.1-.1z"/><path fill="#990" d="M328.55 237.9q0-1.5-.95-2.55-.8-.95-2.25-.95-1.35 0-2.15.95-.95 1.05-.95 2.55 0 .65.25 1.3.3.55.7.95v.15q.1-.7.25-1.1v-.1q.4-.8.95-1.1l-.15-.1q-.65 0-1.05-.55-.15-.3-.15-.7 0-.8.15-1.05.4-.4.9-.4 1.35.15 1.35 1.45 0 .3-.1.7-.3.4-.85.55h.45q1.45 0 2 .9.4.55.5 1.5.15 0 .15-.15.55-.55.8-1.35.15-.5.15-.9z"/><path fill="#900" d="M329.5 231.3l2.65.15v-.8l-8.05-.55-3.05-.25-1.35.15-4.7.4 4.3.25 10.2.65z"/></g><path id="b" stroke="#F93" stroke-linejoin="round" stroke-linecap="round" fill="none" d="M486 252.3q.55-.4 1.35-.5.5-.15 1.6-.15 1.05-.15 4.55-.8 3.45-.8 4-3.5"/><path id="f" stroke="#F03" stroke-linejoin="round" stroke-linecap="round" fill="none" d="M338.15 235.35v.1"/><path id="g" stroke="#F06" stroke-linejoin="round" stroke-linecap="round" fill="none" d="M336.85 259.4v.15h-.15q-2.65-.4-4.3-1.35-.1 0-1.7-.4 1.45.4 1.6.55"/></defs><g transform="translate(-261 -180.55)"><use xlink:href="#a"/><use xlink:href="#b"/></g><use xlink:href="#c" transform="translate(-261 -180.55)"/><use xlink:href="#d" transform="translate(-261 -180.55)"/><g transform="translate(-261 -180.55)"><use xlink:href="#e"/><use xlink:href="#f"/><use xlink:href="#g"/></g></svg>