<svg xmlns="http://www.w3.org/2000/svg" xmlns:xlink="http://www.w3.org/1999/xlink" preserveAspectRatio="none" width="100" height="145" viewBox="0 0 100 145"><defs><radialGradient id="a" gradientUnits="userSpaceOnUse" cx="0" cy="0" r="208.887" fx="0" fy="0" gradientTransform="translate(275.95 255.4)" spreadMethod="pad"><stop offset="0%" stop-color="#FFCD62"/><stop offset="63.137%" stop-color="#DC6900"/></radialGradient><radialGradient id="b" gradientUnits="userSpaceOnUse" cx="0" cy="0" r="223.45" fx="0" fy="0" gradientTransform="translate(259.3 262.2)" spreadMethod="pad"><stop offset="0%" stop-color="#FFCD62"/><stop offset="63.137%" stop-color="#DC6900"/></radialGradient><radialGradient id="c" gradientUnits="userSpaceOnUse" cx="0" cy="0" r="106.175" fx="0" fy="0" gradientTransform="translate(340.15 107.35)" spreadMethod="pad"><stop offset="0%" stop-color="#EAC79D"/><stop offset="100%" stop-color="#923B10"/></radialGradient><radialGradient id="d" gradientUnits="userSpaceOnUse" cx="0" cy="0" r="143.988" fx="0" fy="0" gradientTransform="translate(316.05 42.6)" spreadMethod="pad"><stop offset="2.353%" stop-color="#55504C"/><stop offset="67.843%" stop-color="#292522"/></radialGradient><g id="e"><path fill="url(#a)" d="M337.55 379.5q35.05-3.5 63.8-13.55l-102.2-80.8q-6.1-7.3-1.6-12.45l21.2-15.75q-10.95-.75-23.05.95-8.6-25.8-8.6-50.65-.05-4.9.3-9.7-3.95 1.85-7.6 3.95-43.05 24.05-54 76.1-11.95 58.45 4.85 74.35 24.15 32.7 106.9 27.55m85.85-187.65q-4.4-2-9-3.35 4.15 1.95 7.95 4.45 21.6 14.2 31.85 46.45-1.15-.1-2.3 0l1.7 2.45q-16 1.85-26.6 9l29.05 5.2-3.7 7.4 3.6-.9L404.1 365q1.1-.45 2.3-.9 28.45-10.85 50.45-28.5 23.2-13.45 21.4-38 2.5-48.25-28.5-85.45-11.95-13.75-26.35-20.3z"/><path fill="#A65B31" d="M332.5 209.9q12.25 6.6 22.85 15.8 24.3 21.05 39.7 55.65 7.8-50.35 8.8-72.55.4-9.3-.35-13.7-6.5 4.4-14 8.5-31.3 11.4-57 6.3z"/><path fill="#A15410" d="M455.95 262.55l-3.6.9-49.95 98.7-103-84.55 26.4-19.9q56.15 8.1 79.05 84.1l-5.25-47.5q-1.35 3.55-2.7 7.4-44-60.9-99.45-47.95-6.75-21.55-7.35-44.4-.25-9.05.45-18.3l-2.65 1.3q-.35 2.6-.5 5.2-.35 4.8-.3 9.7 0 24.85 8.6 50.65 12.1-1.7 23.05-.95l-21.2 15.75q-4.5 5.15 1.6 12.45l102.2 80.8q1.35-.45 2.75-.95l51.85-102.45m-2.35-20.7l-1.7-2.45q-17.05-.2-25.45 6.15-2.3 1.55-4.7 4.35l5.25.95q10.6-7.15 26.6-9z"/><path fill="url(#b)" d="M427 250.85l-5.25-.95q-10.05 11.6-22.15 44.4l5.25 47.5q-22.9-76-79.05-84.1l-26.4 19.9 103 84.55 49.95-98.7 3.7-7.4-29.05-5.2z"/><path fill="#CE7F54" d="M434.45 115.35q-6.85 47.65-43.1 70.35-47.5 22.8-99.35-10.15-2.55-1.6-5.1-3.35 1.75 2.95 3.9 5.25.55.55 1.1 1.05 50.85 35.4 100.65 11.5 36.3-22.7 41.9-74.65z"/><path fill="#EBE4EB" d="M422.35 192.95q-3.8-2.5-7.95-4.45-6.2 3.25-10.9 6.6.75 4.4.35 13.7-1 22.2-8.8 72.55-15.4-34.6-39.7-55.65-10.6-9.2-22.85-15.8-21.6-4.25-39.3-20.15l-2.65 1.3q-.7 9.25-.45 18.3.6 22.85 7.35 44.4 55.45-12.95 99.45 47.95 1.35-3.85 2.7-7.4 12.1-32.8 22.15-44.4 2.4-2.8 4.7-4.35 8.4-6.35 25.45-6.15 1.15-.1 2.3 0-10.25-32.25-31.85-46.45z"/><path fill="url(#c)" d="M410.95 185.7q2.25-1.95 4.25-3.9 21.8-20.85 24.95-50.1 2.1-22.7-8.1-42.8-39.8 15.55-106.1 3.05-11.95 6.5-14.8 22.2-3.35 14.25-14.2 21.6-8.75-17.85-16.05-5.55-2.25 8.65-1.3 17.35.35 3.65 1.3 7.3 1.9 10.45 6 17.35 2.55 1.75 5.1 3.35 51.85 32.95 99.35 10.15 36.25-22.7 43.1-70.35-5.6 51.95-41.9 74.65-49.8 23.9-100.65-11.5.9.9 1.95 1.65-1.2.45-2.45.75 3.1 3.4 6.4 6.3 16.8 15.05 37.3 19.05 24.4 4.85 54.15-6 7.1-3.8 13.25-8.05 4.45-3.15 8.45-6.5z"/><path fill="#5E2011" d="M434.4 87.9q-1.15.5-2.35 1 10.2 20.1 8.1 42.8-3.15 29.25-24.95 50.1-2 1.95-4.25 3.9-4 3.35-8.45 6.5-6.15 4.25-13.25 8.05-29.75 10.85-54.15 6-20.5-4-37.3-19.05-3.3-2.9-6.4-6.3-2.85.65-5.75.8 4.1 5.05 7.55 8.05 17.7 15.9 39.3 20.15 25.7 5.1 57-6.3 7.5-4.1 14-8.5 4.7-3.35 10.9-6.6 4.6 1.35 9 3.35 14.4 6.55 26.35 20.3 31 37.2 28.5 85.45 1.8 24.55-21.4 38-22 17.65-50.45 28.5-1.2.45-2.3.9-1.4.5-2.75.95-28.75 10.05-63.8 13.55-82.75 5.15-106.9-27.55-16.8-15.9-4.85-74.35 10.95-52.05 54-76.1 3.65-2.1 7.6-3.95.15-2.6.5-5.2l-1.5.7q-5.25 2.45-10.15 5.3-43.9 25.5-55.25 79.85-12.4 61.55 5 78.4 25.1 34.4 111.05 29 76.4-7.65 123.95-46.3 24.05-14.15 22.2-40.1 2.6-50.8-29.6-90.05-12.2-14.25-26.8-21.2-4.8-2.3-9.9-3.8 22.95-21.95 26.2-52.75 2.2-23.9-8.7-43.5z"/><path d="M433.9 84.4q-1.15.5-2.35 1-39.8 15.55-106.1 3.05-11.95 6.5-14.8 22.2-3.35 14.25-14.2 21.6-8.75-17.85-16.05-5.55-2.7 10.4-.8 20.85-.95-8.7 1.3-17.35 7.3-12.3 16.05 5.55 10.85-7.35 14.2-21.6 2.85-15.7 14.8-22.2 66.3 12.5 106.1-3.05 1.2-.5 2.35-1 6.95-2.95 13.2-6.75-.3-1.7-.65-3.4-6.2 3.75-13.05 6.65z"/><path fill="url(#d)" d="M431.55 85.4q1.2-.5 2.35-1 6.85-2.9 13.05-6.65-1.85-9.1-5.15-17.3-7.45-14.7-19.45-27.35Q390.95 0 346.55 0t-75.8 33.1Q254.7 50 246.9 70.5q-6.65 22.1-7.55 42.5 0 8.45 1.05 16.45 2.45 19.4 11 36.25 18.65 16.5 34.25 16 2.9-.15 5.75-.8 1.25-.3 2.45-.75-1.05-.75-1.95-1.65-.55-.5-1.1-1.05-2.15-2.3-3.9-5.25-4.1-6.9-6-17.35-.95-3.65-1.3-7.3-1.9-10.45.8-20.85 7.3-12.3 16.05 5.55 10.85-7.35 14.2-21.6 2.85-15.7 14.8-22.2 66.3 12.5 106.1-3.05z"/></g></defs><use xlink:href="#e" transform="matrix(.37383 0 0 .3736 -80.7 0)"/></svg>