<?xml version="1.0" encoding="utf-8"?>
<!-- Generator: Adobe Illustrator 16.0.0, SVG Export Plug-In . SVG Version: 6.00 Build 0)  -->
<!DOCTYPE svg PUBLIC "-//W3C//DTD SVG 1.1//EN" "http://www.w3.org/Graphics/SVG/1.1/DTD/svg11.dtd">
<svg version="1.1" id="Camada_1" xmlns="http://www.w3.org/2000/svg" xmlns:xlink="http://www.w3.org/1999/xlink" x="0px" y="0px"
	 width="175.244px" height="243.075px" viewBox="0.006 -0.006 175.244 243.075"
	 enable-background="new 0.006 -0.006 175.244 243.075" xml:space="preserve">
<filter  height="140%" width="140%" y="-20%" x="-20%" id="Filter_1" color-interpolation-filters="sRGB">
	
		<feColorMatrix  type="matrix" values="0 0 0 0 0.803921568627451 0 0 0 0 0.8 0 0 0 0 0.8 0 0 0 1 0" in="SourceGraphic" result="result1">
		</feColorMatrix>
</filter>
<g>
	<g transform="matrix( 1, 0, 0, 0.7050933837890625, 0,137.9) ">
		<g transform="matrix( 1, 0, 0, 1, 0,0) ">
			<g>
				<g id="S_mbolo_1_0_Layer0_0_FILL">
					<path fill="#C4C4C4" d="M30.65,11.399c0.133-0.233,0.317-0.482,0.55-0.749c0.6-0.434,1.333-0.666,2.2-0.699
						c2.367-0.468,3.65-1.717,3.85-3.751c-1.167-1.1-4.2-1.05-9.1,0.15L27.3,7.7c-0.8,0.633-1.4,0.65-1.8,0.051
						c-1.833-0.269-2.983-0.068-3.45,0.598c-0.066,0.1-0.1,0.184-0.1,0.251c-0.034,0.1-0.067,0.217-0.1,0.35
						c-0.167,1.133,0.133,3.05,0.9,5.751c-1.167,1.465-2,4.415-2.5,8.849l-1.5,36.001H16.9c-0.133-1-0.267-2.017-0.4-3.05
						c-1.733-12.234-2.833-23.717-3.3-34.451l-0.1-0.349c-0.2-3.033-1.033-6.184-2.5-9.451L10.5,8.6C9,7.768,8.117,6.917,7.85,6.05
						C7.817,5.951,7.8,5.851,7.8,5.75C7.4,5.05,5.8,4.834,3,5.1C0.567,5.333-0.383,5.967,0.15,7c2.4,2.399,3.583,4.432,3.55,6.1
						l0.2,0.349c-0.3,6.134,0.117,13.084,1.25,20.85l0.15,35.6V70.2v0.6c0,3.133,0.417,6.334,1.25,9.601
						c0.2,1.066,0.35,1.867,0.45,2.399c0.2,0.934,0.517,1.717,0.95,2.352c0.066,0.133,0.133,0.283,0.2,0.449l-1.3,1.35
						c-0.934,1.066-1.4,1.616-1.4,1.65c-0.1,0.133-0.15,0.551-0.15,1.249c0,0.335,0.117,1.017,0.35,2.051
						c0.2,0.967,0.3,1.467,0.3,1.5l-1.5,2.45c-0.567,0.965-0.967,1.849-1.2,2.65c-0.433,0.334-0.7,1.166-0.8,2.5v5.751
						c0,0.301,0.033,0.583,0.1,0.849c-0.033,0.133-0.066,0.284-0.1,0.452c0,0.565,0,0.866,0,0.9c0,3.532,1.2,6.149,3.6,7.849
						c2.1,1.566,4.017,2.884,5.75,3.95c1.067,0.699,1.934,1.184,2.6,1.45c0.067,0.399,0.2,0.9,0.4,1.5c0.333,1,0.5,1.733,0.5,2.201
						c0,0.366-0.167,1.033-0.5,2c-0.167,0.432-0.283,0.766-0.35,1c-0.467,0.1-0.767,0.465-0.9,1.1l-0.1,1.199
						c0,1.133,0.383,1.651,1.15,1.55c0.033,0,0.066-0.017,0.1-0.05v0.05c-0.333,0.801-0.25,1.9,0.25,3.3
						c0.466,1.399,1.633,2.316,3.5,2.751c1.867,0.465,3.6-0.033,5.2-1.501c1.233-1.133,1.85-2.183,1.85-3.15
						c0-0.467-0.05-1.05-0.15-1.751c-0.133-0.699-0.2-1.083-0.2-1.15c0-0.066,0.1-0.249,0.3-0.55c0.2-0.301,0.05-1.134-0.45-2.5
						c-0.5-2.566-1.3-4.066-2.4-4.5c-0.067-0.267-0.1-0.566-0.1-0.9c0-0.033,0-0.066,0-0.1c0-0.101,0-0.201,0-0.301
						c0.067-0.166,0.233-0.366,0.5-0.6c0.267-0.201,0.683-0.517,1.25-0.95c1.067-0.932,2.617-2.116,4.65-3.55
						c1.333-1.033,2.383-2.266,3.15-3.701c0.3-0.499,0.55-1,0.75-1.499c0.034-0.1,0.067-0.201,0.1-0.301
						c0.5-1.267,0.8-2.201,0.9-2.799c0.034-0.267,0.267-1.217,0.7-2.85c0.433-1.568,0.65-2.468,0.65-2.701l-1-6.55
						c-0.033-0.168-0.033-0.683,0-1.55c0.033-0.734-0.017-1.301-0.15-1.701c-0.2-0.565-1.05-1.083-2.55-1.548
						c-1.4-0.468-2.1-0.85-2.1-1.151c0-0.367,0.05-0.683,0.15-0.95c0.1-0.267,0.15-0.699,0.15-1.301
						c-0.367-1.199-0.733-2.116-1.1-2.749c0.034-0.134,0.067-0.284,0.1-0.45c0.033-0.332,0.167-0.834,0.4-1.5
						c0.267-0.666,0.417-1.201,0.45-1.6c0.067-0.734,0.45-2.834,1.15-6.3v-4.699c0.067-0.501,0.1-1.267,0.1-2.301
						c0.033-0.4,0.05-0.749,0.05-1.05c-0.033-0.5-0.083-0.884-0.15-1.151c-1.933-19.5-2.1-36.099-0.5-49.799V16.9
						c0.967-0.834,1.217-2.017,0.75-3.551C30.433,12.718,30.35,12.067,30.65,11.399 M62.55,111.051
						c-0.133-0.1-0.267-0.217-0.4-0.352c0.1,0.269,0.184,0.518,0.25,0.751l0.15-0.1c-0.1,0.4-0.15,0.701-0.15,0.9
						c-0.033,0.233-0.017,0.366,0.05,0.399c-0.067,0.734-0.3,1.451-0.7,2.151l-3.8-7.699c-0.067,0.299-0.167,0.482-0.3,0.548
						c-0.066-0.1-0.117-0.233-0.15-0.399l-2.1,8.651c-0.167-0.269-0.333-0.535-0.5-0.801c-0.2-0.334-0.4-0.651-0.6-0.95l-2.25-2
						c-0.4-0.133-0.783-0.199-1.15-0.199c0.667,0.1,1.117,1.648,1.35,4.648c-0.033-0.033-0.067-0.066-0.1-0.1
						c0.033,0.066,0.067,0.133,0.1,0.201c0.1,0.334,0.033,0.6-0.2,0.799c0.1,0.066,0.184,0.116,0.25,0.15
						c0,0.235,0.017,0.485,0.05,0.751c0,0.199,0,0.384,0,0.551c0.066,1.899,0.083,4.183,0.05,6.849
						c0.967,8.633,3.55,13.516,7.75,14.649c4.367,0.801,6.934-1.949,7.7-8.249c0.267-4.8-0.1-8.767-1.1-11.9h0.05l-0.05-0.1
						c-0.033-0.066-0.083-0.116-0.15-0.15c-0.1-0.066-0.15-0.133-0.15-0.201c0-0.033,0.05-0.1,0.15-0.199
						c-0.033-0.068-0.033-0.118,0-0.151c-0.033-0.299-0.067-0.582-0.1-0.85c-0.033-0.066-0.05-0.116-0.05-0.15v-0.15
						c-0.034-0.033-0.05-0.083-0.05-0.15c-0.066-0.4-0.15-0.801-0.25-1.199C65.55,114.901,64.35,112.918,62.55,111.051 M72.5,86.6
						c0.3-0.266,0.583-0.517,0.85-0.751L76,82.351c-0.1-0.066-0.2-0.133-0.3-0.201c-0.467-0.267-1.083-0.4-1.85-0.4
						c-1.067,0-1.867,0.217-2.4,0.651c-0.534,0.432-0.917,0.65-1.15,0.65c-0.167,0-0.367-0.1-0.6-0.301
						c-0.3-0.166-0.667-0.465-1.1-0.9c-0.833-0.799-1.267-1.199-1.3-1.199l-0.35,0.05v1.4c0.1,0.566,0.65,1.151,1.65,1.749
						c-0.6,0.033-0.9,0.118-0.9,0.251c-0.7,0.168-1.3-0.05-1.8-0.65c-0.5-0.634-0.85-0.95-1.05-0.95l-0.4,0.05v0.85
						c0.133,0.233,0.35,0.465,0.65,0.699l-0.05,0.151c0,0.233,0.317,0.632,0.95,1.199c0.6,0.5,1.167,0.734,1.7,0.701
						c-0.067,0.033-0.15,0.1-0.25,0.199c-0.767,0.066-1.233,0.1-1.4,0.1c-0.1,0-0.383-0.15-0.85-0.45
						c-0.467-0.267-0.767-0.4-0.9-0.4l-0.35,0.1v1c0.133,0.334,0.517,0.684,1.15,1.05c0.7,0.402,1.333,0.601,1.9,0.601
						c0.4,0,0.667-0.066,0.8-0.199l0.25,0.05c-0.7,0.934-1.283,1.399-1.75,1.399c-0.2,0-0.533-0.116-1-0.349
						c-0.4-0.234-0.617-0.35-0.65-0.35l-0.3,0.05L64.3,89.5c0,0.266,0.083,0.434,0.25,0.5c0.067,0.168,0.217,0.334,0.45,0.5
						c0.033,0.066,0.1,0.133,0.2,0.199c0.267,0.201,0.65,0.485,1.15,0.85c0.833-0.1,1.483-0.283,1.95-0.55l0.05-0.05
						c0.167-0.066,0.3-0.168,0.4-0.301c0.033-0.033,0.083-0.083,0.15-0.15c0.2-0.299,0.467-0.701,0.8-1.199
						c0.3-0.267,1.117-1.05,2.45-2.35c0.067,0.1,0.117,0.184,0.15,0.251l0.35-0.452C72.583,86.716,72.533,86.666,72.5,86.6
						 M82.25,20.45c0.933-5.234,3.25-9.217,6.95-11.951l2.8-1.05v-1.1h-7.9l-4.85,5.501l-0.55-3.3h-0.95l-1.5,4.899l0.8,2.751
						c0.633,1.199,0.25,4.066-1.15,8.601L75.85,25.1c-3.667,6.601-5.717,11.568-6.15,14.9L70,41.8l-5.8,11.5
						c-1.633,0.033-3.233,0.084-4.8,0.151L58.5,41.3c0.7-2.633,1.117-7.001,1.25-13.101l0.05-0.249c-0.3-4.701-0.117-7.5,0.55-8.4
						c1.433-1.699,2.066-3.101,1.9-4.201c-0.6-1.832-0.767-3.666-0.5-5.499h-1.9c-0.233,1.799-0.684,2.216-1.35,1.249l-0.85-2.95
						L50,7.851l-0.25,1.1c2.533,1.233,4.383,3.083,5.55,5.55c0.934,1.533,1.184,3.517,0.75,5.95l-2.95,14
						c-2.1-0.666-4.417-0.882-6.95-0.65c-5.767,1.533-8.816,6-9.15,13.399c-0.267,2.967-0.033,5.485,0.7,7.551
						c0.6,1.734,1.55,3.15,2.85,4.249l1.65,4.451l0.3,10.449l1.75,0.95l1.9-4.05h0.25l0.3-1.749l-0.1-2.101l0.25-0.9l-0.3-2.598
						l-0.1,0.249l-0.05-0.6l-3.6-0.35l-0.75-2.701c0.267,0.134,0.534,0.267,0.8,0.402c1.133,0.565,2.433,0.967,3.9,1.199l3.4-8.249
						L74.2,53.85V53.7l0.2-0.199c-0.1,0-0.217-0.017-0.35-0.05L82.25,20.45 M129.35,6.901c0.033-0.168,0.033-0.35,0-0.551
						c-0.333-0.766-1.9-1.316-4.7-1.65c-3.733-0.033-5.9,0.384-6.5,1.251c-0.667,1.1-1.833,1.8-3.5,2.1V6.3L110.8,6.05
						c-1.466,2.033-2.033,4.483-1.7,7.349c-1.867,1.734-1.55,4.667,0.95,8.8l0.1,0.85l0.6,30.85c-1.3,0.501-2.233-2.166-2.8-8
						c-0.633-5.8-0.95-8.717-0.95-8.75l0.05,0.301l-0.2-2.699c0.2-8.967-0.867-14.883-3.2-17.75c-0.133-0.166-0.233-0.332-0.3-0.5
						c-0.667-1.234-0.283-2.217,1.15-2.95c1.933-1.666,1.283-3.884-1.95-6.649l0.7-2.601c0.967-1.033,1.383-2.066,1.25-3.1
						c0.167-0.967-1.417-1.349-4.75-1.15c-3-0.1-5,0.116-6,0.65C93.383,1.834,93.467,3.084,94,4.449l0.9,3.601
						c-2.167,2.668-2.733,4.817-1.7,6.45l2.95,29.549l2.3,34.301c0,0.1,0,0.199,0,0.299c0,0.133,0.017,0.266,0.05,0.4
						c0.067,1.168,0.483,2.882,1.25,5.151c0.867,2.332,1.3,3.548,1.3,3.648c0,0.402-0.45,0.967-1.35,1.701
						c-0.167,0.133-0.317,0.266-0.45,0.4l0.95,5.9c0.333,0.932,0.533,1.866,0.6,2.799c0,0.133,0,0.284,0,0.452
						c0,1.665-0.633,4.116-1.9,7.349c-1.3,3.233-1.95,5.667-1.95,7.3c0,0.133,0,0.267,0,0.4c0.033,0.465,0.117,0.9,0.25,1.299
						c-0.4,7.834,2.483,12.066,8.65,12.701c1.667,0.033,2.833,0.784,3.5,2.249c0.033,0.201,0.05,0.385,0.05,0.551
						c0.133,1.666-0.25,3.249-1.15,4.749c-0.267-0.5-0.8-0.083-1.6,1.251l-0.5,1.9c0.033,0.233,0.1,0.432,0.2,0.598
						c0.133,3,0.417,4.884,0.85,5.651c0.433,0.801,0.667,1.283,0.7,1.45c0,0.168,0.35,0.533,1.05,1.101
						c0.7,0.598,1.483,1,2.35,1.199c0.867,0.233,1.684,0.332,2.45,0.299c0.767-0.033,1.683-0.366,2.75-1
						c1.033-0.633,1.767-1.249,2.2-1.85c0.433-0.598,0.783-1.349,1.05-2.249c0.233-0.867,0.333-1.417,0.3-1.651
						c-0.033-0.199-0.05-0.749-0.05-1.648c0-0.402-0.017-0.767-0.05-1.101c0.066-0.1,0.133-0.201,0.2-0.301
						c0.067-0.565,0.1-1.399,0.1-2.499c0-0.1-0.267-1.116-0.8-3.05c-0.833-2.168-1.4-3.217-1.7-3.151c-0.033,0-0.067,0.017-0.1,0.05
						l-0.75-1.4c0-0.6,0.133-1.017,0.4-1.249c0.567-0.467,1.067-1.033,1.5-1.701c0.133-0.199,0.55-0.366,1.25-0.499l1.35-0.051
						c0.8-0.066,1.533-0.199,2.2-0.4h0.05c1.467-0.133,2.25-0.216,2.35-0.249c0.1-0.033,0.35-0.133,0.75-0.299l0.7-0.651
						c0.4-0.4,0.767-0.867,1.1-1.4c0.167-0.334,0.434-0.816,0.8-1.45c0.433-0.699,0.9-1.616,1.4-2.751
						c0.467-1.199,0.917-2.15,1.35-2.849c1-1.699,1.533-2.633,1.6-2.799c0.5-1.035,0.767-1.983,0.8-2.85
						c0-0.468,0.083-1.35,0.25-2.651c0.167-1.332,0.25-2.266,0.25-2.8c0-0.766-0.033-1.382-0.1-1.849c0.067-0.168,0.1-0.367,0.1-0.6
						c0-0.767-0.483-1.501-1.45-2.201c-1.066-0.733-2.533-1.284-4.4-1.65h-2.3c-0.067-0.067-0.117-0.133-0.15-0.199
						c-0.1-0.1-0.2-0.201-0.3-0.301h-0.05c0-0.234,0-0.517,0-0.85c0.033-0.201,0.083-0.4,0.15-0.6l0.35-7.3c-0.1,0-0.2,0-0.3,0
						c-0.133,0-0.25,0-0.35,0c-0.8-0.566-1.3-1-1.5-1.3l0.45-8.85l1.25-5.899L124,55.8c-0.167-13.634-1.833-24.383-5-32.25l2.4-5.5
						l-1.4-3.1c0.767-1.834,2.317-3.551,4.65-5.149C127.25,9.067,128.817,8.1,129.35,6.901 M173.1,22.299v-9.95l2-2.548l0.15-2.101
						c-2.1-0.899-4.65-0.983-7.65-0.251l-1.8,2.201l0.7,5.35c-3.4,7.634-5.017,16.601-4.85,26.9l-5.9,24.3l-1.15-0.95
						c-1.067-7.633-3.05-15.25-5.95-22.85c-0.3-9.766-1.3-18.5-3-26.2c-0.033-0.066-0.05-0.133-0.05-0.199l-1.1-2.299l0.1-3.501
						l-1.1-3.65c-3.667-1.168-6-1.118-7,0.15l-0.15,1.85l2,3.649l0.15,6.85l0.65,1.651l-0.25,3.05c-0.133,7.8,0.867,15.599,3,23.398
						l0.25,18.85c-1.767-3.299-3.233-4.415-4.4-3.349c-2.333,2.299-3.267,5.417-2.8,9.349c-0.7,8.568,0.267,17.351,2.9,26.351
						l0.1,0.85c1.8,5.834,2.45,11.649,1.95,17.448c3.6,1.101,7.2,3.435,10.8,7.001c0.8,1.733,0.867,3.483,0.2,5.251l-2.15-0.352
						v8.252c0.967,4.399,3.15,6.548,6.55,6.449c2.333,0.568,4.284-1.465,5.85-6.1c1.1-5.266,0.417-8.45-2.05-9.55l-0.5-4.151
						c2.833-2.532,6.55-4.316,11.15-5.349c2.367-12,3-21.468,1.9-28.401l0.2-5.649c1.2-5.033,0.5-9.749-2.1-14.151l-1.85-21
						l3.5-22.299l0.45-0.302l-0.1-2.849L173.1,22.299 M164.8,92.55l0.05-4.349l1.5,1.349L164.8,92.55 M144.7,93.151l-2.95-6.701
						l3.4-1.551L144.7,93.151"/>
					<path fill="#C4C4C4" d="M66.65,119.549c-0.033,0.033-0.05,0.066-0.05,0.101c-0.1,0.1-0.15,0.166-0.15,0.199
						c0,0.068,0.05,0.134,0.15,0.201c0.066,0.033,0.117,0.083,0.15,0.15L66.65,119.549z"/>
					<path fill="#C4C4C4" d="M69.3,92.65c0-0.9,0.133-1.399,0.4-1.499c-0.167-0.234-0.317-0.385-0.45-0.451
						c-0.067-0.033-0.133-0.05-0.2-0.05l-0.2,0.05l-0.1,0.05H68.7V94.4c1.033,2.332,1.733,4.133,2.1,5.4
						c0.167,1.199,0.317,2.116,0.45,2.749c0.2,1.1,0.617,1.967,1.25,2.601l0.3-0.35v-0.051c0.333-0.133,0.9-0.783,1.7-1.949
						c1.367-2.035,2.05-3.267,2.05-3.699c0-0.168-0.083-0.452-0.25-0.85c0-0.033,0.1-0.183,0.3-0.452h0.65
						c0.267-0.199,0.417-0.399,0.45-0.598c0-0.168-0.067-0.402-0.2-0.701c0-0.066,0.15-0.283,0.45-0.65
						c-2.833-5.101-4.6-8.118-5.3-9.051v-0.05l-0.35,0.452c1,1.699,1.717,2.983,2.15,3.849c0.2,0.467,0.733,1.35,1.6,2.65
						c0.767,1.234,1.15,1.884,1.15,1.95c0,0.1-0.083,0.267-0.25,0.501c-0.167,0.199-0.25,0.316-0.25,0.349
						c0,0.233,0.1,0.417,0.3,0.551v0.1c-0.867,0-1.317,0.266-1.35,0.799c0.133,0.633,0.2,1.033,0.2,1.201
						c0,0.199-0.567,1.083-1.7,2.649c-0.8,1.066-1.316,1.799-1.55,2.201c-0.267-0.933-0.783-2.634-1.55-5.101
						C69.883,95.167,69.3,93.084,69.3,92.65 M41.55,75.05c-0.133,0.367-0.2,0.683-0.2,0.95c0,0.334,0.133,0.882,0.4,1.65
						c0.1,0.334,0.183,0.651,0.25,0.95c0-0.033,0.017-0.05,0.05-0.05l3.45,32.7l-0.05-0.05c0,0.199,0.033,0.366,0.1,0.499
						c0,0.134,0.017,0.252,0.05,0.352c0.033,0.199,0.066,0.382,0.1,0.548c0.267,1.033,0.667,1.717,1.2,2.05
						c0.367,0.269,1,0.551,1.9,0.85c0.867,0.267,1.4,0.518,1.6,0.751c0.267,0.299,0.6,0.583,1,0.85c0.033,0.033,0.067,0.05,0.1,0.05
						c0.1,0.1,0.2,0.183,0.3,0.249c0.1,0.066,0.184,0.1,0.25,0.1c0.233-0.199,0.3-0.465,0.2-0.799
						c-0.033-0.068-0.067-0.134-0.1-0.201c-0.133-0.033-0.25-0.1-0.35-0.199c-0.2-0.1-0.433-0.233-0.7-0.399l-0.05-0.051
						c-0.367-0.201-0.683-0.384-0.95-0.55c-0.633-0.332-1.067-0.533-1.3-0.6c-1.4-0.367-2.2-1.084-2.4-2.151
						c-0.066-0.266-0.117-0.532-0.15-0.799c0-0.068-0.017-0.151-0.05-0.251h-0.05l-3.5-33.199c0.033,0,0.067,0,0.1,0
						c0-0.168,0-0.352,0-0.551c0-0.066-0.017-0.183-0.05-0.349c-0.067-0.166-0.167-0.367-0.3-0.601c-0.267-0.432-0.4-0.716-0.4-0.85
						c0-0.199,0.083-0.399,0.25-0.598c0.167-0.234,0.25-0.418,0.25-0.551c0-0.133-0.117-0.299-0.35-0.499
						C41.917,74.401,41.717,74.65,41.55,75.05 M72.2,70.949l-0.8-0.05l2.8-17.049l-24.05-0.449l-3.4,8.249
						c0.1,0.033,0.217,0.05,0.35,0.05l-0.55,1.751l0.3,2.598l3.2-11.199c1.934-0.1,3.8-0.183,5.6-0.249
						c7.133-0.301,13.117-0.417,17.95-0.35l-3.45,16.599l-23.4-1.15l-0.05-0.65L46.4,70.8l9.65,0.9l0.95,33.9
						c-0.1,0.1-0.183,0.184-0.25,0.251c-0.367,0.467-0.817,1.1-1.35,1.9c-0.967,1.5-1.867,3.1-2.7,4.799
						c-0.233-0.166-0.45-0.299-0.65-0.399l2.25,2c-0.333-0.468-0.667-0.85-1-1.15c0.2-0.234,0.383-0.535,0.55-0.9
						c0.6-1.301,0.917-1.983,0.95-2.05c0.233-0.402,1.067-1.518,2.5-3.352c0.067,0.201,0.133,0.385,0.2,0.551
						c0.033,0.166,0.083,0.299,0.15,0.399c0.133-0.066,0.233-0.249,0.3-0.548c0-0.1,0-0.201,0-0.301
						c0.167,0.201,0.35,0.45,0.55,0.749c0.767,1,1.25,1.584,1.45,1.751c0.167,0.199,0.6,0.85,1.3,1.95
						c0.033,0.066,0.083,0.116,0.15,0.15c0.467,0.734,0.8,1.017,1,0.85c0-0.199,0.05-0.5,0.15-0.9l-0.15,0.1
						c-0.133-0.166-0.283-0.382-0.45-0.65c-0.3-0.4-0.667-0.884-1.1-1.45c-1.067-1.399-1.95-2.517-2.65-3.349
						c-0.067-0.068-0.133-0.134-0.2-0.201c0.133,0.033,0.3,0.05,0.5,0.05c0.767-0.033,1.15-0.384,1.15-1.05
						c0-0.267-0.083-0.5-0.25-0.699c-0.233-0.267-0.55-0.402-0.95-0.402H58.4c-0.367,0-0.633,0.084-0.8,0.251l-0.1-5.749
						c0.1,0.033,0.233,0.05,0.4,0.05c0.733,0,1.1-0.384,1.1-1.15c0-0.234-0.083-0.468-0.25-0.701c-0.2-0.299-0.483-0.45-0.85-0.45
						c-0.167,0-0.316,0.017-0.45,0.05l-0.1-6.6c0.133,0.066,0.316,0.1,0.55,0.1c0.733-0.033,1.1-0.4,1.1-1.1
						c0-0.199-0.083-0.417-0.25-0.651c-0.2-0.266-0.483-0.399-0.85-0.399c-0.233,0-0.433,0.033-0.6,0.1L57,72.2l14.8-0.35
						c-0.033,0.701-0.066,1.267-0.1,1.701c-0.067,1.066-0.2,1.917-0.4,2.55c-0.267,0.799-0.483,1.55-0.65,2.251
						c-0.3,1.166-0.45,2.15-0.45,2.95c-0.034,0.199-0.017,0.382,0.05,0.548c0.1,0.301,0.35,0.335,0.75,0.101l0.05-0.251
						c0-0.1-0.033-0.183-0.1-0.249c-0.1-0.066-0.15-0.133-0.15-0.199c0-0.067,0.217-0.934,0.65-2.601
						c0.066-0.332,0.15-0.701,0.25-1.1c0.566-2.332,0.85-4.417,0.85-6.249c0-0.267-0.117-0.402-0.35-0.402V70.949 M84.8,98.799h0.1
						v-1c-0.267-0.698-0.717-1.731-1.35-3.1c-1.167-2.633-1.816-4.149-1.95-4.548c-0.434-1.402-1.167-3.184-2.2-5.352
						c-1-2.166-1.6-3.249-1.8-3.249c-0.133,0-0.317,0.066-0.55,0.199c-0.2,0.133-0.417,0.284-0.65,0.451
						c-0.1,0.067-0.2,0.133-0.3,0.199c-0.033,0-0.067-0.017-0.1-0.05l-2.65,3.499c0.333-0.332,0.65-0.648,0.95-0.95
						c0.567-0.565,1.017-1.033,1.35-1.399c0.033,0,0.067,0,0.1,0c0.1,0,0.383-0.15,0.85-0.45c0.433-0.267,0.717-0.467,0.85-0.6
						c0.633,1.133,1.333,2.6,2.1,4.399c0.8,2,1.383,3.451,1.75,4.352c0.934,1.967,1.567,3.432,1.9,4.399
						c0.433,1.334,0.867,2.384,1.3,3.15c-0.033,0-0.083,0-0.15,0c-2.767,4.8-4.75,8.134-5.95,10.001l-6.35,9.749h-1.2
						c-0.533,0.368-0.75,0.734-0.65,1.1h-3.25l-0.2-0.1c-0.033,0.033-0.067,0.05-0.1,0.05l0.1,0.651l0.05,0.1h3.7
						c0.267-0.1,0.4-0.216,0.4-0.349c0.1-0.335,0.184-0.584,0.25-0.751c0.434,0,0.767,0.05,1,0.15c0.2,0,2.434-3.316,6.7-9.95
						c2.566-4.033,4.517-7.366,5.85-10v-0.299c0.033,0.066,0.066,0.1,0.1,0.1V98.799z"/>
				</g>
			</g>
			<g filter="url(#Filter_1)">
				<g id="S_mbolo_1_0_Layer0_0_1_STROKES_1_">
					
						<line opacity="0.3294" fill="none" stroke="#94D0D0" stroke-linecap="round" stroke-linejoin="round" x1="5.3" y1="69.899" x2="5.3" y2="70.2"/>
				</g>
			</g>
		</g>
	</g>
	<g transform="matrix( 1, 0, 0, 1, 5.7,-91.5) ">
		<g>
			<g id="Layer0_0_MEMBER_1_FILL">
				<path fill="#010101" d="M17.95,103.35c-1.6-1.467-3.333-1.967-5.2-1.5c-1.867,0.433-3.033,1.35-3.5,2.75
					c-0.5,1.4-0.583,2.5-0.25,3.3v0.05c-0.033-0.034-0.067-0.05-0.1-0.05c-0.767-0.1-1.15,0.417-1.15,1.55l0.1,1.2
					c0.133,0.633,0.433,1,0.9,1.1c0.067,0.233,0.183,0.567,0.35,1c0.333,0.967,0.5,1.633,0.5,2c0,0.467-0.167,1.2-0.5,2.2
					c-0.2,0.6-0.333,1.1-0.4,1.5c-0.667,0.267-1.534,0.75-2.6,1.45c-1.733,1.067-3.65,2.383-5.75,3.95c-2.4,1.7-3.6,4.316-3.6,7.85
					c0,0.033,0,0.333,0,0.9c0.033,0.167,0.067,0.316,0.1,0.45c-0.067,0.267-0.1,0.55-0.1,0.85v5.75c0.1,1.333,0.367,2.167,0.8,2.5
					c0.233,0.8,0.633,1.684,1.2,2.65l1.5,2.45c0,0.033-0.1,0.533-0.3,1.5c-0.233,1.033-0.35,1.717-0.35,2.05
					c0,0.7,0.05,1.117,0.15,1.25c0,0.034,0.467,0.583,1.4,1.65l1.3,1.35c-0.067,0.167-0.133,0.317-0.2,0.45
					c-0.433,0.633-0.75,1.417-0.95,2.35c-0.1,0.533-0.25,1.333-0.45,2.4c-0.833,3.267-1.25,6.467-1.25,9.6v0.6v0.3l-0.15,35.6
					c-1.133,7.767-1.55,14.716-1.25,20.85l-0.2,0.35c0.033,1.667-1.15,3.7-3.55,6.101c-0.534,1.033,0.417,1.666,2.85,1.899
					c2.8,0.267,4.4,0.05,4.8-0.649c0-0.101,0.017-0.2,0.05-0.301c0.267-0.866,1.15-1.717,2.65-2.55l0.1-3.649
					c1.467-3.268,2.3-6.417,2.5-9.45l0.1-0.351c0.467-10.733,1.567-22.216,3.3-34.45c0.133-1.033,0.267-2.05,0.4-3.05h1.85l1.5,36
					c0.5,4.434,1.333,7.384,2.5,8.851c-0.767,2.7-1.066,4.616-0.9,5.75c0.033,0.134,0.067,0.25,0.1,0.35
					c0,0.067,0.033,0.15,0.1,0.25c0.467,0.667,1.617,0.866,3.45,0.601c0.4-0.601,1-0.584,1.8,0.05l0.85,1.35
					c4.9,1.2,7.933,1.25,9.1,0.15c-0.2-2.034-1.483-3.284-3.85-3.75c-0.867-0.034-1.6-0.267-2.2-0.7
					c-0.233-0.267-0.417-0.517-0.55-0.75c-0.3-0.666-0.217-1.316,0.25-1.95c0.466-1.533,0.216-2.716-0.75-3.55v-0.2
					c-1.6-13.7-1.434-30.3,0.5-49.8c0.066-0.267,0.117-0.65,0.15-1.15c0-0.3-0.017-0.65-0.05-1.05c0-1.033-0.033-1.8-0.1-2.3v-4.7
					c-0.7-3.466-1.083-5.566-1.15-6.3c-0.033-0.4-0.183-0.933-0.45-1.6c-0.233-0.667-0.367-1.167-0.4-1.5
					c-0.034-0.167-0.067-0.316-0.1-0.45c0.367-0.633,0.733-1.55,1.1-2.75c0-0.6-0.05-1.034-0.15-1.3
					c-0.1-0.267-0.15-0.583-0.15-0.95c0-0.3,0.7-0.684,2.1-1.15c1.5-0.466,2.35-0.983,2.55-1.55c0.133-0.4,0.184-0.967,0.15-1.7
					c-0.034-0.867-0.034-1.383,0-1.55l1-6.55c0-0.233-0.217-1.133-0.65-2.7c-0.433-1.633-0.667-2.583-0.7-2.85
					c-0.1-0.6-0.4-1.533-0.9-2.8c-0.034-0.1-0.067-0.2-0.1-0.3c-0.2-0.5-0.45-1-0.75-1.5c-0.767-1.433-1.817-2.667-3.15-3.7
					c-2.034-1.434-3.583-2.617-4.65-3.55c-0.566-0.433-0.983-0.75-1.25-0.95c-0.267-0.233-0.433-0.434-0.5-0.6c0-0.1,0-0.2,0-0.3
					c0-0.034,0-0.067,0-0.1c0-0.333,0.034-0.633,0.1-0.9c1.1-0.434,1.9-1.934,2.4-4.5c0.5-1.367,0.65-2.2,0.45-2.5
					c-0.2-0.3-0.3-0.483-0.3-0.55c0-0.066,0.066-0.45,0.2-1.15c0.1-0.7,0.15-1.283,0.15-1.75
					C19.8,105.533,19.183,104.483,17.95,103.35 M66.6,153.45c-0.033,0.066-0.083,0.15-0.15,0.25c-1.333-1.3-2.15-2.083-2.45-2.35
					c-0.333-0.5-0.6-0.9-0.8-1.2c-0.067-0.066-0.117-0.117-0.15-0.15c-0.1-0.133-0.233-0.233-0.4-0.3l-0.05-0.05
					c-0.467-0.267-1.117-0.45-1.95-0.55c-0.5,0.367-0.883,0.65-1.15,0.85c-0.1,0.066-0.167,0.133-0.2,0.2
					c-0.233,0.167-0.383,0.333-0.45,0.5c-0.167,0.067-0.25,0.233-0.25,0.5l0.05,0.55l0.3,0.05c0.033,0,0.25-0.117,0.65-0.35
					c0.467-0.233,0.8-0.35,1-0.35c0.467,0,1.05,0.467,1.75,1.4l-0.25,0.05c-0.133-0.133-0.4-0.2-0.8-0.2c-0.566,0-1.2,0.2-1.9,0.6
					c-0.633,0.367-1.017,0.717-1.15,1.05v1l0.35,0.1c0.133,0,0.433-0.133,0.9-0.4c0.467-0.3,0.75-0.45,0.85-0.45
					c0.167,0,0.633,0.033,1.4,0.1c0.1,0.1,0.183,0.167,0.25,0.2c-0.533-0.033-1.1,0.2-1.7,0.7c-0.633,0.566-0.95,0.966-0.95,1.2
					l0.05,0.15c-0.3,0.233-0.517,0.467-0.65,0.7v0.85l0.4,0.05c0.2,0,0.55-0.316,1.05-0.95c0.5-0.6,1.1-0.817,1.8-0.65
					c0,0.133,0.3,0.217,0.9,0.25c-1,0.6-1.55,1.184-1.65,1.75v1.4L61.6,160c0.033,0,0.467-0.4,1.3-1.2
					c0.434-0.433,0.8-0.733,1.1-0.9c0.233-0.2,0.433-0.3,0.6-0.3c0.233,0,0.617,0.217,1.15,0.65s1.333,0.65,2.4,0.65
					c0.767,0,1.383-0.133,1.85-0.4c0.1-0.067,0.2-0.133,0.3-0.2l-2.65-3.5c-0.267-0.233-0.55-0.483-0.85-0.75
					c0.034-0.066,0.083-0.117,0.15-0.15L66.6,153.45 M38.55,165.8l-1.75,0.95l-0.3,10.45l-1.65,4.45c-1.3,1.1-2.25,2.517-2.85,4.25
					c-0.733,2.067-0.967,4.583-0.7,7.55c0.333,7.4,3.383,11.867,9.15,13.4c2.533,0.233,4.85,0.017,6.95-0.65l2.95,14
					c0.433,2.433,0.183,4.417-0.75,5.95c-1.167,2.467-3.017,4.316-5.55,5.55l0.25,1.1l7.65-0.3l0.85-2.95
					c0.667-0.966,1.117-0.55,1.35,1.25h1.9c-0.267-1.833-0.1-3.667,0.5-5.5c0.167-1.1-0.466-2.5-1.9-4.2
					c-0.667-0.899-0.85-3.699-0.55-8.399l-0.05-0.25c-0.133-6.1-0.55-10.467-1.25-13.1l0.9-12.15c1.566,0.066,3.167,0.117,4.8,0.15
					l5.8,11.5l-0.3,1.8c0.433,3.333,2.483,8.3,6.15,14.9l0.05,0.3c1.4,4.533,1.783,7.4,1.15,8.601l-0.8,2.75l1.5,4.899H73l0.55-3.3
					l4.85,5.5h7.9v-1.1l-2.8-1.05c-3.7-2.734-6.017-6.717-6.95-11.95l-8.2-33c0.133-0.034,0.25-0.05,0.35-0.05l-0.2-0.2v-0.15
					l-24.05,0.45l-3.4-8.25c-1.466,0.233-2.767,0.633-3.9,1.2c-0.267,0.133-0.533,0.267-0.8,0.4l0.75-2.7l3.6-0.35l0.05-0.6
					l0.1,0.25l0.3-2.6l-0.25-0.9l0.1-2.1l-0.3-1.75h-0.25L38.55,165.8 M60.9,120.6c0.067-0.033,0.117-0.083,0.15-0.15l0.05-0.1
					h-0.05c1-3.133,1.367-7.1,1.1-11.9c-0.767-6.3-3.333-9.05-7.7-8.25c-4.2,1.133-6.784,6.017-7.75,14.65
					c0.033,2.667,0.017,4.95-0.05,6.85c0,0.167,0,0.35,0,0.55c-0.033,0.267-0.05,0.517-0.05,0.75c-0.067,0.033-0.15,0.083-0.25,0.15
					c0.233,0.2,0.3,0.467,0.2,0.8c-0.033,0.066-0.066,0.133-0.1,0.2c0.033-0.033,0.066-0.066,0.1-0.1c-0.233,3-0.683,4.55-1.35,4.65
					c0.367,0,0.75-0.067,1.15-0.2l2.25-2c0.2-0.3,0.4-0.617,0.6-0.95c0.167-0.267,0.333-0.533,0.5-0.8l2.1,8.65
					c0.034-0.167,0.083-0.3,0.15-0.4c0.133,0.067,0.233,0.25,0.3,0.55l3.8-7.7c0.4,0.7,0.633,1.417,0.7,2.15
					c-0.067,0.033-0.083,0.167-0.05,0.4c0,0.2,0.05,0.5,0.15,0.9l-0.15-0.1c-0.067,0.233-0.15,0.483-0.25,0.75
					c0.133-0.133,0.267-0.25,0.4-0.35c1.8-1.867,3-3.85,3.6-5.95c0.1-0.4,0.183-0.8,0.25-1.2c0-0.067,0.017-0.117,0.05-0.15v-0.15
					c0-0.033,0.017-0.083,0.05-0.15c0.034-0.267,0.067-0.55,0.1-0.85c-0.033-0.033-0.033-0.083,0-0.15c-0.1-0.1-0.15-0.167-0.15-0.2
					C60.75,120.733,60.8,120.667,60.9,120.6 M108.05,91.5c-0.767-0.033-1.583,0.067-2.45,0.3c-0.867,0.2-1.65,0.6-2.35,1.2
					c-0.7,0.567-1.05,0.933-1.05,1.1c-0.034,0.167-0.267,0.65-0.7,1.45c-0.433,0.767-0.717,2.65-0.85,5.65
					c-0.1,0.167-0.167,0.367-0.2,0.6l0.5,1.9c0.8,1.333,1.333,1.75,1.6,1.25c0.9,1.5,1.284,3.083,1.15,4.75
					c0,0.167-0.017,0.35-0.05,0.55c-0.667,1.467-1.833,2.217-3.5,2.25c-6.167,0.633-9.05,4.867-8.65,12.7
					c-0.133,0.4-0.217,0.833-0.25,1.3c0,0.133,0,0.267,0,0.4c0,1.633,0.65,4.067,1.95,7.3c1.267,3.233,1.9,5.683,1.9,7.35
					c0,0.167,0,0.317,0,0.45c-0.067,0.933-0.267,1.867-0.6,2.8l-0.95,5.9c0.133,0.133,0.284,0.267,0.45,0.4
					c0.9,0.733,1.35,1.3,1.35,1.7c0,0.1-0.434,1.317-1.3,3.65c-0.767,2.267-1.183,3.983-1.25,5.15c-0.033,0.133-0.05,0.267-0.05,0.4
					c0,0.1,0,0.2,0,0.3l-2.3,34.3l-2.95,29.55c-1.033,1.633-0.467,3.783,1.7,6.449l-0.9,3.601c-0.533,1.366-0.617,2.616-0.25,3.75
					c1,0.533,3,0.75,6,0.649c3.333,0.2,4.917-0.184,4.75-1.149c0.133-1.034-0.283-2.067-1.25-3.101l-0.7-2.6
					c3.233-2.767,3.883-4.983,1.95-6.65c-1.433-0.732-1.816-1.717-1.15-2.949c0.067-0.167,0.167-0.334,0.3-0.5
					c2.333-2.867,3.4-8.783,3.2-17.75l0.2-2.7l-0.05,0.3c0-0.033,0.317-2.95,0.95-8.75c0.567-5.833,1.5-8.5,2.8-8l-0.6,30.85
					l-0.1,0.851c-2.5,4.134-2.817,7.066-0.95,8.8c-0.333,2.867,0.233,5.316,1.7,7.35l3.85-0.25v-1.75c1.667,0.301,2.833,1,3.5,2.101
					c0.6,0.866,2.767,1.283,6.5,1.25c2.8-0.333,4.367-0.884,4.7-1.65c0.033-0.2,0.033-0.384,0-0.55c-0.533-1.2-2.1-2.166-4.7-2.9
					c-2.333-1.6-3.883-3.316-4.65-5.149l1.4-3.101l-2.4-5.5c3.167-7.866,4.833-18.616,5-32.25l2.4-17.25l-1.25-5.9l-0.45-8.85
					c0.2-0.3,0.7-0.733,1.5-1.3c0.1,0,0.217,0,0.35,0c0.1,0,0.2,0,0.3,0l-0.35-7.3c-0.066-0.2-0.117-0.4-0.15-0.6
					c0-0.333,0-0.617,0-0.85h0.05c0.1-0.1,0.2-0.2,0.3-0.3c0.033-0.067,0.083-0.133,0.15-0.2h2.3c1.867-0.367,3.333-0.917,4.4-1.65
					c0.967-0.7,1.45-1.433,1.45-2.2c0-0.233-0.033-0.434-0.1-0.6c0.066-0.467,0.1-1.083,0.1-1.85c0-0.533-0.083-1.467-0.25-2.8
					c-0.167-1.3-0.25-2.184-0.25-2.65c-0.033-0.867-0.3-1.816-0.8-2.85c-0.067-0.167-0.6-1.1-1.6-2.8
					c-0.433-0.7-0.883-1.65-1.35-2.85c-0.5-1.133-0.966-2.05-1.4-2.75c-0.367-0.633-0.633-1.117-0.8-1.45
					c-0.333-0.533-0.7-1-1.1-1.4l-0.7-0.65c-0.4-0.167-0.65-0.267-0.75-0.3c-0.1-0.033-0.883-0.117-2.35-0.25h-0.05
					c-0.667-0.2-1.4-0.333-2.2-0.4l-1.35-0.05c-0.7-0.133-1.117-0.3-1.25-0.5c-0.434-0.667-0.934-1.233-1.5-1.7
					c-0.267-0.233-0.4-0.65-0.4-1.25l0.75-1.4c0.033,0.033,0.066,0.05,0.1,0.05c0.3,0.067,0.867-0.983,1.7-3.15
					c0.533-1.934,0.8-2.95,0.8-3.05c0-1.1-0.033-1.933-0.1-2.5c-0.067-0.1-0.133-0.2-0.2-0.3c0.033-0.333,0.05-0.7,0.05-1.1
					c0-0.9,0.017-1.45,0.05-1.65c0.033-0.233-0.067-0.783-0.3-1.65c-0.267-0.9-0.617-1.65-1.05-2.25s-1.167-1.217-2.2-1.85
					C109.733,91.867,108.817,91.533,108.05,91.5 M162.2,191.75l1.85-21c2.6-4.4,3.3-9.117,2.1-14.15l-0.2-5.65
					c1.1-6.934,0.466-16.4-1.9-28.4c-4.6-1.033-8.316-2.816-11.15-5.35l0.5-4.15c2.467-1.1,3.15-4.283,2.05-9.55
					c-1.567-4.633-3.517-6.667-5.85-6.1c-3.4-0.1-5.583,2.05-6.55,6.45v8.25l2.15-0.35c0.667,1.767,0.6,3.517-0.2,5.25
					c-3.6,3.567-7.2,5.9-10.8,7c0.5,5.8-0.15,11.617-1.95,17.45l-0.1,0.85c-2.633,9-3.6,17.784-2.9,26.35
					c-0.467,3.934,0.467,7.05,2.8,9.35c1.167,1.067,2.633-0.05,4.4-3.35l-0.25,18.85c-2.133,7.8-3.133,15.6-3,23.4l0.25,3.05
					l-0.65,1.649l-0.15,6.851l-2,3.649l0.15,1.851c1,1.267,3.333,1.316,7,0.149l1.1-3.649l-0.1-3.5l1.1-2.3
					c0-0.066,0.017-0.134,0.05-0.2c1.7-7.7,2.7-16.434,3-26.2c2.9-7.6,4.883-15.217,5.95-22.85l1.15-0.95l5.9,24.3
					c-0.167,10.3,1.45,19.267,4.85,26.9l-0.7,5.35l1.8,2.2c3,0.733,5.55,0.649,7.65-0.25l-0.15-2.101l-2-2.55v-9.95l-1.35-1.149
					l0.1-2.851l-0.45-0.3L162.2,191.75 M139.45,155.75l-3.4-1.55l2.95-6.7L139.45,155.75 M160.65,151.1l-1.5,1.35l-0.05-4.35
					L160.65,151.1"/>
				<path fill="#CCCCCC" d="M67.1,135.9v-0.05l-0.3-0.35c-0.633,0.633-1.05,1.5-1.25,2.6c-0.133,0.633-0.283,1.55-0.45,2.75
					c-0.367,1.267-1.067,3.066-2.1,5.4v3.65h0.05l0.1,0.05l0.2,0.05c0.066,0,0.133-0.017,0.2-0.05
					c0.133-0.067,0.284-0.217,0.45-0.45c-0.267-0.1-0.4-0.6-0.4-1.5c0-0.433,0.583-2.517,1.75-6.25
					c0.767-2.467,1.283-4.167,1.55-5.1c0.233,0.4,0.75,1.133,1.55,2.2c1.133,1.566,1.7,2.45,1.7,2.65c0,0.167-0.066,0.567-0.2,1.2
					c0.033,0.533,0.483,0.8,1.35,0.8v0.1c-0.2,0.133-0.3,0.316-0.3,0.55c0,0.033,0.083,0.15,0.25,0.35
					c0.167,0.233,0.25,0.4,0.25,0.5c0,0.067-0.383,0.717-1.15,1.95c-0.867,1.3-1.4,2.183-1.6,2.65c-0.433,0.867-1.15,2.15-2.15,3.85
					l0.35,0.45v-0.05c0.7-0.934,2.466-3.95,5.3-9.05c-0.3-0.367-0.45-0.583-0.45-0.65c0.133-0.3,0.2-0.533,0.2-0.7
					c-0.033-0.2-0.183-0.4-0.45-0.6H70.9c-0.2-0.267-0.3-0.417-0.3-0.45c0.167-0.4,0.25-0.683,0.25-0.85
					c0-0.433-0.684-1.667-2.05-3.7C68,136.683,67.433,136.033,67.1,135.9 M56.7,129.2l0.15,0.1c-0.1-0.4-0.15-0.7-0.15-0.9
					c-0.2-0.167-0.534,0.117-1,0.85c-0.067,0.033-0.117,0.083-0.15,0.15c-0.7,1.1-1.133,1.75-1.3,1.95
					c-0.2,0.167-0.683,0.75-1.45,1.75c-0.2,0.3-0.383,0.55-0.55,0.75c0-0.1,0-0.2,0-0.3c-0.067-0.3-0.167-0.483-0.3-0.55
					c-0.067,0.1-0.117,0.233-0.15,0.4c-0.066,0.167-0.133,0.35-0.2,0.55c-1.434-1.833-2.267-2.95-2.5-3.35
					c-0.033-0.067-0.35-0.75-0.95-2.05c-0.167-0.367-0.35-0.667-0.55-0.9c0.333-0.3,0.667-0.683,1-1.15l-2.25,2
					c0.2-0.1,0.417-0.233,0.65-0.4c0.833,1.7,1.733,3.3,2.7,4.8c0.533,0.8,0.983,1.434,1.35,1.9c0.067,0.067,0.15,0.15,0.25,0.25
					l-0.95,33.9l-9.65,0.9l0.3,1.75l0.05-0.65l23.4-1.15l3.45,16.6c-4.833,0.067-10.816-0.05-17.95-0.35
					c-1.8-0.066-3.667-0.15-5.6-0.25l-3.2-11.2l-0.3,2.6l0.55,1.75c-0.133,0-0.25,0.017-0.35,0.05l3.4,8.25l24.05-0.45l-2.8-17.05
					l0.8-0.05v0.05c0.233,0,0.35-0.133,0.35-0.4c0-1.833-0.283-3.917-0.85-6.25c-0.1-0.4-0.183-0.767-0.25-1.1
					c-0.433-1.667-0.65-2.533-0.65-2.6c0-0.066,0.05-0.133,0.15-0.2c0.067-0.067,0.1-0.15,0.1-0.25l-0.05-0.25
					c-0.4-0.233-0.65-0.2-0.75,0.1c-0.066,0.167-0.083,0.35-0.05,0.55c0,0.8,0.15,1.783,0.45,2.95c0.167,0.7,0.383,1.45,0.65,2.25
					c0.2,0.633,0.333,1.483,0.4,2.55c0.033,0.433,0.067,1,0.1,1.7l-14.8-0.35l0.3-15.25c0.167,0.066,0.367,0.1,0.6,0.1
					c0.367,0,0.65-0.133,0.85-0.4c0.167-0.233,0.25-0.45,0.25-0.65c0-0.7-0.367-1.067-1.1-1.1c-0.233,0-0.417,0.033-0.55,0.1
					l0.1-6.6c0.133,0.033,0.283,0.05,0.45,0.05c0.367,0,0.65-0.15,0.85-0.45c0.167-0.233,0.25-0.467,0.25-0.7
					c0-0.767-0.367-1.15-1.1-1.15c-0.167,0-0.3,0.017-0.4,0.05l0.1-5.75c0.167,0.167,0.434,0.25,0.8,0.25h0.05
					c0.4,0,0.717-0.133,0.95-0.4c0.167-0.2,0.25-0.433,0.25-0.7c0-0.667-0.383-1.017-1.15-1.05c-0.2,0-0.367,0.017-0.5,0.05
					c0.067-0.067,0.133-0.133,0.2-0.2c0.7-0.833,1.583-1.95,2.65-3.35c0.434-0.566,0.8-1.05,1.1-1.45
					C56.417,129.583,56.567,129.367,56.7,129.2 M46.1,123.25c-0.1,0.067-0.2,0.15-0.3,0.25c-0.033,0-0.066,0.017-0.1,0.05
					c-0.4,0.267-0.733,0.55-1,0.85c-0.2,0.233-0.733,0.483-1.6,0.75c-0.9,0.3-1.533,0.583-1.9,0.85
					c-0.534,0.333-0.934,1.017-1.2,2.05c-0.033,0.167-0.067,0.35-0.1,0.55c-0.033,0.1-0.05,0.217-0.05,0.35
					c-0.067,0.133-0.1,0.3-0.1,0.5l0.05-0.05l-3.45,32.7c-0.033,0-0.05-0.017-0.05-0.05c-0.066,0.3-0.15,0.617-0.25,0.95
					c-0.267,0.767-0.4,1.317-0.4,1.65c0,0.267,0.067,0.583,0.2,0.95c0.167,0.4,0.367,0.65,0.6,0.75c0.233-0.2,0.35-0.367,0.35-0.5
					s-0.083-0.317-0.25-0.55c-0.167-0.2-0.25-0.4-0.25-0.6c0-0.133,0.133-0.417,0.4-0.85c0.133-0.233,0.233-0.434,0.3-0.6
					c0.033-0.167,0.05-0.283,0.05-0.35c0-0.2,0-0.383,0-0.55c-0.033,0-0.066,0-0.1,0l3.5-33.2h0.05c0.033-0.1,0.05-0.183,0.05-0.25
					c0.034-0.267,0.083-0.533,0.15-0.8c0.2-1.067,1-1.783,2.4-2.15c0.233-0.067,0.667-0.267,1.3-0.6
					c0.267-0.167,0.583-0.35,0.95-0.55l0.05-0.05c0.267-0.167,0.5-0.3,0.7-0.4c0.1-0.1,0.217-0.167,0.35-0.2
					c0.033-0.066,0.066-0.133,0.1-0.2c0.1-0.333,0.034-0.6-0.2-0.8C46.283,123.15,46.2,123.183,46.1,123.25 M61.1,120.35l-0.05,0.1
					l-0.1,0.65c0.033,0,0.066,0.017,0.1,0.05l0.2-0.1h3.25c-0.1,0.367,0.117,0.733,0.65,1.1h1.2l6.35,9.75
					c1.2,1.867,3.183,5.2,5.95,10c0.067,0,0.117,0,0.15,0c-0.433,0.767-0.867,1.817-1.3,3.15c-0.333,0.967-0.967,2.434-1.9,4.4
					c-0.367,0.9-0.95,2.35-1.75,4.35c-0.767,1.8-1.467,3.267-2.1,4.4c-0.133-0.133-0.417-0.333-0.85-0.6
					c-0.467-0.3-0.75-0.45-0.85-0.45c-0.033,0-0.066,0-0.1,0c-0.333-0.367-0.784-0.833-1.35-1.4c-0.3-0.3-0.617-0.617-0.95-0.95
					l2.65,3.5c0.034-0.033,0.067-0.05,0.1-0.05c0.1,0.067,0.2,0.133,0.3,0.2c0.233,0.167,0.45,0.316,0.65,0.45
					c0.233,0.133,0.417,0.2,0.55,0.2c0.2,0,0.8-1.083,1.8-3.25c1.033-2.167,1.767-3.95,2.2-5.35c0.133-0.4,0.783-1.917,1.95-4.55
					c0.633-1.367,1.083-2.4,1.35-3.1v-1h-0.1v-0.4c-0.033,0-0.067,0.033-0.1,0.1v-0.3c-1.333-2.633-3.283-5.967-5.85-10
					c-4.267-6.633-6.5-9.95-6.7-9.95c-0.233,0.1-0.567,0.15-1,0.15c-0.067-0.167-0.15-0.417-0.25-0.75c0-0.133-0.133-0.25-0.4-0.35
					H61.1z"/>
				<path fill="#009999" d="M61.05,120.45c-0.033,0.066-0.083,0.117-0.15,0.15c-0.1,0.066-0.15,0.133-0.15,0.2
					c0,0.034,0.05,0.1,0.15,0.2c0,0.033,0.017,0.067,0.05,0.1L61.05,120.45z"/>
			</g>
		</g>
		<g>
			
				<path id="Layer0_0_MEMBER_1_1_STROKES" fill="none" stroke="#94D0D0" stroke-linecap="round" stroke-linejoin="round" stroke-opacity="0.3294" d="
				M-0.4,170.75v-0.3"/>
		</g>
	</g>
</g>
</svg>
