<svg xmlns="http://www.w3.org/2000/svg" width="175.244" height="243.075" viewBox="0.006 -0.006 175.244 243.075" enable-background="new 0.006 -0.006 175.244 243.075"><filter height="140%" width="140%" y="-20%" x="-20%" id="a" color-interpolation-filters="sRGB"><feColorMatrix values="0 0 0 0 0.803921568627451 0 0 0 0 0.8 0 0 0 0 0.8 0 0 0 1 0" in="SourceGraphic" result="result1"/></filter><g fill="#C4C4C4"><path d="M30.65 145.937a3.71 3.71 0 0 1 .55-.528c.6-.307 1.333-.47 2.2-.494 2.367-.33 3.65-1.21 3.85-2.644-1.167-.776-4.2-.74-9.1.105l-.85.952c-.8.446-1.4.458-1.8.035-1.833-.19-2.983-.048-3.45.422-.066.07-.1.13-.1.177-.034.07-.067.153-.1.247-.167.8.133 2.15.9 4.056-1.167 1.033-2 3.113-2.5 6.24l-1.5 25.383H16.9c-.133-.706-.267-1.423-.4-2.152-1.733-8.626-2.833-16.722-3.3-24.29l-.1-.247c-.2-2.137-1.033-4.36-2.5-6.663l-.1-2.573c-1.5-.587-2.383-1.187-2.65-1.798a.49.49 0 0 1-.05-.212c-.4-.493-2-.646-4.8-.458-2.433.164-3.383.61-2.85 1.34 2.4 1.69 3.583 3.125 3.55 4.3l.2.247c-.3 4.325.117 9.225 1.25 14.7l.15 25.102v.636c0 2.21.417 4.467 1.25 6.77l.45 1.692c.2.658.517 1.21.95 1.658.066.094.133.2.2.317l-1.3.952c-.934.75-1.4 1.138-1.4 1.162-.1.094-.15.388-.15.88 0 .237.117.718.35 1.447.2.68.3 1.033.3 1.056l-1.5 1.728c-.567.68-.967 1.304-1.2 1.868-.433.236-.7.823-.8 1.763v4.055c0 .212.033.41.1.6-.033.093-.066.2-.1.317v.635c0 2.49 1.2 4.336 3.6 5.534 2.1 1.104 4.017 2.034 5.75 2.785 1.067.494 1.934.836 2.6 1.024.067.28.2.634.4 1.057.333.707.5 1.223.5 1.553 0 .258-.167.73-.5 1.41a7.32 7.32 0 0 0-.35.706c-.467.07-.767.327-.9.774l-.1.846c0 .8.383 1.164 1.15 1.093a.177.177 0 0 0 .1-.036v.036c-.333.564-.25 1.34.25 2.326.466.986 1.633 1.632 3.5 1.94 1.867.327 3.6-.024 5.2-1.06 1.233-.798 1.85-1.538 1.85-2.22 0-.33-.05-.74-.15-1.235-.133-.493-.2-.764-.2-.81 0-.047.1-.176.3-.39.2-.21.05-.798-.45-1.76-.5-1.81-1.3-2.868-2.4-3.174a1.88 1.88 0 0 1-.1-.634v-.07-.213c.067-.117.233-.258.5-.423.267-.14.683-.364 1.25-.67 1.067-.657 2.617-1.49 4.65-2.503 1.333-.728 2.383-1.597 3.15-2.61.3-.35.55-.704.75-1.056l.1-.21c.5-.895.8-1.553.9-1.975.034-.188.267-.858.7-2.01.433-1.105.65-1.74.65-1.904l-1-4.617c-.033-.12-.033-.482 0-1.093.033-.518-.017-.917-.15-1.2-.2-.398-1.05-.763-2.55-1.09-1.4-.33-2.1-.6-2.1-.812 0-.26.05-.482.15-.67.1-.19.15-.493.15-.918-.367-.845-.733-1.492-1.1-1.938.034-.094.067-.2.1-.317.033-.234.167-.588.4-1.058.267-.47.417-.847.45-1.128.067-.52.45-2 1.15-4.443v-3.313c.067-.354.1-.894.1-1.623.033-.28.05-.527.05-.74-.033-.352-.083-.622-.15-.81-1.933-13.75-2.1-25.454-.5-35.114v-.14c.967-.588 1.217-1.422.75-2.504-.467-.445-.55-.904-.25-1.375m31.9 70.264a3.525 3.525 0 0 1-.4-.247c.1.19.184.365.25.53l.15-.07c-.1.28-.15.493-.15.634-.033.164-.017.258.05.28-.067.52-.3 1.024-.7 1.518l-3.8-5.43c-.067.212-.167.34-.3.388a.67.67 0 0 1-.15-.282l-2.1 6.1c-.167-.19-.333-.376-.5-.564-.2-.235-.4-.46-.6-.67l-2.25-1.41c-.4-.094-.783-.14-1.15-.14.667.07 1.117 1.162 1.35 3.277l-.1-.07.1.14c.1.237.033.424-.2.565.1.046.184.082.25.106 0 .165.017.342.05.53v.388c.066 1.34.083 2.95.05 4.83.967 6.086 3.55 9.53 7.75 10.328 4.367.564 6.934-1.375 7.7-5.817.267-3.384-.1-6.18-1.1-8.39h.05l-.05-.07a.3.3 0 0 0-.15-.107c-.1-.046-.15-.093-.15-.14 0-.025.05-.072.15-.142-.033-.048-.033-.083 0-.106-.033-.21-.067-.41-.1-.6-.033-.046-.05-.08-.05-.105v-.106c-.034-.023-.05-.058-.05-.106a7.855 7.855 0 0 0-.25-.844c-.6-1.48-1.8-2.878-3.6-4.195m9.95-17.24l.85-.528 2.65-2.467c-.1-.046-.2-.094-.3-.142-.467-.188-1.083-.282-1.85-.282-1.067 0-1.867.154-2.4.46-.534.305-.917.46-1.15.46-.167 0-.367-.072-.6-.214-.3-.117-.667-.327-1.1-.634-.833-.563-1.267-.846-1.3-.846l-.35.036v.987c.1.398.65.81 1.65 1.232-.6.023-.9.083-.9.177-.7.118-1.3-.036-1.8-.46-.5-.446-.85-.67-1.05-.67l-.4.036v.6c.133.164.35.327.65.492l-.05.107c0 .164.317.445.95.845.6.353 1.167.518 1.7.495-.067.023-.15.07-.25.14a36.03 36.03 0 0 1-1.4.07c-.1 0-.383-.105-.85-.317-.467-.188-.767-.282-.9-.282l-.35.07v.706c.133.235.517.482 1.15.74.7.283 1.333.424 1.9.424.4 0 .667-.047.8-.14l.25.035c-.7.66-1.283.987-1.75.987-.2 0-.533-.082-1-.246-.4-.164-.617-.246-.65-.246l-.3.035-.05.386c0 .187.083.306.25.352.067.12.217.236.45.353a.51.51 0 0 0 .2.14c.267.143.65.343 1.15.6.833-.07 1.483-.2 1.95-.387l.05-.035a.945.945 0 0 0 .4-.213l.15-.105c.2-.21.467-.495.8-.846.3-.188 1.117-.74 2.45-1.657.067.07.117.13.15.177l.35-.32a.29.29 0 0 1-.15-.103m9.75-46.64c.933-3.69 3.25-6.5 6.95-8.427l2.8-.74v-.776h-7.9l-4.85 3.878-.55-2.326h-.95l-1.5 3.453.8 1.94c.633.845.25 2.866-1.15 6.064l-.05.21c-3.667 4.655-5.717 8.157-6.15 10.507l.3 1.27-5.8 8.107c-1.633.025-3.233.06-4.8.108l-.9-8.568c.7-1.856 1.117-4.936 1.25-9.237l.05-.176c-.3-3.314-.117-5.288.55-5.922 1.433-1.198 2.066-2.187 1.9-2.963-.6-1.29-.767-2.584-.5-3.877h-1.9c-.233 1.27-.684 1.563-1.35.88l-.85-2.08-7.65-.21-.25.776c2.533.87 4.383 2.175 5.55 3.915.934 1.08 1.184 2.48.75 4.195l-2.95 9.87c-2.1-.468-4.417-.62-6.95-.457-5.767 1.08-8.816 4.23-9.15 9.447-.267 2.092-.033 3.868.7 5.325.6 1.222 1.55 2.22 2.85 2.996l1.65 3.14.3 7.366 1.75.67 1.9-2.855h.25l.3-1.233-.1-1.48.25-.636-.3-1.83-.1.175-.05-.423-3.6-.247-.75-1.904.8.284c1.133.4 2.433.682 3.9.846l3.4-5.817 24.05.316v-.106l.2-.14c-.1 0-.217-.013-.35-.036l8.2-23.27m47.1-9.552a.773.773 0 0 0 0-.39c-.333-.54-1.9-.927-4.7-1.162-3.733-.023-5.9.27-6.5.882-.667.776-1.833 1.27-3.5 1.48v-1.234l-3.85-.176c-1.466 1.433-2.033 3.16-1.7 5.182-1.867 1.222-1.55 3.29.95 6.204l.1.6.6 21.752c-1.3.353-2.233-1.527-2.8-5.64-.633-4.09-.95-6.147-.95-6.17l.05.212-.2-1.903c.2-6.323-.867-10.494-3.2-12.516a1.4 1.4 0 0 1-.3-.352c-.667-.87-.283-1.563 1.15-2.08 1.933-1.175 1.283-2.74-1.95-4.688l.7-1.834c.967-.73 1.383-1.457 1.25-2.186.167-.682-1.417-.95-4.75-.81-3-.072-5 .08-6 .457-.367.8-.283 1.68.25 2.643l.9 2.54c-2.167 1.88-2.733 3.395-1.7 4.547l2.95 20.835 2.3 24.184v.21a.85.85 0 0 0 .05.283c.067.823.483 2.032 1.25 3.632.867 1.643 1.3 2.5 1.3 2.57 0 .284-.45.683-1.35 1.2a5.035 5.035 0 0 0-.45.282l.95 4.16c.333.658.533 1.316.6 1.974v.32c0 1.173-.633 2.9-1.9 5.18-1.3 2.28-1.95 3.996-1.95 5.148v.282c.033.328.117.634.25.916-.4 5.523 2.483 8.507 8.65 8.955 1.667.023 2.833.553 3.5 1.586.033.14.05.27.05.388.133 1.176-.25 2.292-1.15 3.35-.267-.353-.8-.06-1.6.882l-.5 1.34c.033.164.1.304.2.42.133 2.116.417 3.445.85 3.986.433.564.667.904.7 1.022 0 .118.35.376 1.05.776a6.53 6.53 0 0 0 2.35.846 11.33 11.33 0 0 0 2.45.21c.767-.023 1.683-.258 2.75-.705 1.033-.446 1.767-.88 2.2-1.304.433-.422.783-.95 1.05-1.586.233-.61.333-1 .3-1.164-.033-.14-.05-.528-.05-1.162 0-.282-.017-.54-.05-.775l.2-.212c.067-.4.1-.987.1-1.762 0-.07-.267-.786-.8-2.15-.833-1.53-1.4-2.268-1.7-2.222a.174.174 0 0 0-.1.036l-.75-.988c0-.423.133-.717.4-.88a6.362 6.362 0 0 0 1.5-1.2c.133-.14.55-.258 1.25-.35l1.35-.037c.8-.048 1.533-.142 2.2-.283h.05c1.467-.094 2.25-.153 2.35-.176.1-.022.35-.093.75-.21l.7-.46c.4-.28.767-.61 1.1-.986.167-.235.434-.575.8-1.022.433-.493.9-1.14 1.4-1.94.467-.845.917-1.516 1.35-2.01 1-1.197 1.533-1.855 1.6-1.972.5-.73.767-1.4.8-2.01 0-.33.083-.952.25-1.87.167-.938.25-1.597.25-1.973 0-.54-.033-.975-.1-1.304.067-.12.1-.26.1-.423 0-.54-.483-1.06-1.45-1.552-1.066-.517-2.533-.905-4.4-1.163h-2.3a.618.618 0 0 1-.15-.14l-.3-.213h-.05v-.6c.033-.14.083-.28.15-.422l.35-5.148H126.2c-.8-.4-1.3-.705-1.5-.916l.45-6.24 1.25-4.16-2.4-12.162c-.167-9.613-1.833-17.192-5-22.74l2.4-3.877-1.4-2.186c.767-1.292 2.317-2.503 4.65-3.63 2.6-.517 4.167-1.2 4.7-2.044m43.75 10.857v-7.016l2-1.796.15-1.48c-2.1-.635-4.65-.694-7.65-.178l-1.8 1.552.7 3.772c-3.4 5.383-5.017 11.706-4.85 18.967l-5.9 17.134-1.15-.67c-1.067-5.382-3.05-10.752-5.95-16.11-.3-6.887-1.3-13.045-3-18.474a.243.243 0 0 1-.05-.14l-1.1-1.622.1-2.467-1.1-2.574c-3.667-.824-6-.79-7 .105l-.15 1.304 2 2.572.15 4.83.65 1.164-.25 2.15c-.133 5.5.867 11 3 16.498l.25 13.29c-1.767-2.325-3.233-3.112-4.4-2.36-2.333 1.62-3.267 3.82-2.8 6.592-.7 6.04.267 12.234 2.9 18.58l.1.6c1.8 4.113 2.45 8.213 1.95 12.302 3.6.776 7.2 2.422 10.8 4.936.8 1.222.867 2.456.2 3.703l-2.15-.25v5.82c.967 3.1 3.15 4.617 6.55 4.547 2.333.4 4.284-1.033 5.85-4.3 1.1-3.714.417-5.96-2.05-6.735l-.5-2.928c2.833-1.785 6.55-3.043 11.15-3.77 2.367-8.462 3-15.138 1.9-20.027l.2-3.983c1.2-3.548.5-6.874-2.1-9.977l-1.85-14.807 3.5-15.723.45-.213-.1-2.01 1.35-.81m-8.3 49.534l.05-3.066 1.5.95-1.55 2.116m-20.1.424l-2.95-4.725 3.4-1.093-.45 5.818"/><path d="M66.65 222.193c-.033.023-.05.047-.05.07-.1.072-.15.118-.15.142 0 .048.05.094.15.14.066.025.117.06.15.107l-.1-.46z"/><path d="M69.3 203.227c0-.635.133-.987.4-1.057-.167-.165-.317-.27-.45-.318a.604.604 0 0 0-.2-.035l-.2.035-.1.035h-.05v2.574c1.033 1.645 1.733 2.915 2.1 3.808.167.846.317 1.492.45 1.94.2.774.617 1.386 1.25 1.833l.3-.246v-.036c.333-.094.9-.552 1.7-1.374 1.367-1.435 2.05-2.304 2.05-2.61 0-.117-.083-.317-.25-.598 0-.023.1-.13.3-.32h.65c.267-.14.417-.28.45-.42 0-.12-.067-.284-.2-.494 0-.047.15-.2.45-.46-2.833-3.595-4.6-5.723-5.3-6.38v-.036l-.35.32c1 1.197 1.717 2.102 2.15 2.713.2.328.733.95 1.6 1.867.767.87 1.15 1.33 1.15 1.375 0 .07-.083.188-.25.353-.167.14-.25.223-.25.247 0 .164.1.294.3.388v.07c-.867 0-1.317.188-1.35.564.133.446.2.728.2.847 0 .14-.567.764-1.7 1.87-.8.75-1.316 1.267-1.55 1.55-.267-.657-.783-1.857-1.55-3.596-1.167-2.632-1.75-4.1-1.75-4.407m-27.75-12.41c-.133.26-.2.482-.2.67 0 .236.133.622.4 1.164.1.236.183.46.25.67 0-.023.017-.035.05-.035l3.45 23.057-.05-.036c0 .14.033.258.1.352 0 .095.017.178.05.248.033.14.066.27.1.387.267.728.667 1.21 1.2 1.445.367.19 1 .39 1.9.6.867.188 1.4.365 1.6.53.267.21.6.41 1 .598a.174.174 0 0 0 .1.036c.1.07.2.13.3.175.1.047.184.07.25.07.233-.14.3-.327.2-.563-.033-.048-.067-.094-.1-.14a.864.864 0 0 1-.35-.142c-.2-.07-.433-.164-.7-.28l-.05-.037c-.367-.142-.683-.27-.95-.388-.633-.234-1.067-.376-1.3-.423-1.4-.26-2.2-.764-2.4-1.516a3.538 3.538 0 0 1-.15-.564.438.438 0 0 0-.05-.177h-.05l-3.5-23.408h.1v-.39c0-.046-.017-.13-.05-.246a3.397 3.397 0 0 0-.3-.424c-.267-.304-.4-.504-.4-.6 0-.14.083-.28.25-.42.167-.166.25-.295.25-.39 0-.093-.117-.21-.35-.35-.233.07-.433.245-.6.527m30.65-2.89l-.8-.037 2.8-12.02-24.05-.317-3.4 5.816c.1.022.217.034.35.034l-.55 1.235.3 1.83 3.2-7.896c1.934-.07 3.8-.13 5.6-.175 7.133-.213 13.117-.295 17.95-.248l-3.45 11.704-23.4-.81-.05-.46-.3 1.235 9.65.635.95 23.903-.25.177c-.367.33-.817.775-1.35 1.34a32.526 32.526 0 0 0-2.7 3.383 5.64 5.64 0 0 0-.65-.28l2.25 1.41a6.01 6.01 0 0 0-1-.812c.2-.165.383-.377.55-.634.6-.918.917-1.4.95-1.446.233-.283 1.067-1.07 2.5-2.363.067.14.133.27.2.388a.66.66 0 0 0 .15.283c.133-.047.233-.176.3-.387v-.212c.167.142.35.317.55.528.767.705 1.25 1.117 1.45 1.235.167.14.6.6 1.3 1.375a.3.3 0 0 0 .15.105c.467.518.8.717 1 .6 0-.14.05-.353.15-.635l-.15.07a5.228 5.228 0 0 1-.45-.458c-.3-.282-.667-.623-1.1-1.022a76.31 76.31 0 0 0-2.65-2.36c-.067-.05-.133-.096-.2-.143.133.022.3.034.5.034.767-.023 1.15-.27 1.15-.74 0-.188-.083-.353-.25-.493-.233-.187-.55-.283-.95-.283h-.05c-.367 0-.633.06-.8.177l-.1-4.053c.1.024.233.036.4.036.733 0 1.1-.27 1.1-.81 0-.166-.083-.33-.25-.495-.2-.21-.483-.316-.85-.316-.167 0-.316.012-.45.035l-.1-4.655c.133.047.316.07.55.07.733-.022 1.1-.28 1.1-.775 0-.14-.083-.294-.25-.46-.2-.186-.483-.28-.85-.28-.233 0-.433.023-.6.07l-.3-10.752 14.8-.247c-.033.495-.066.894-.1 1.2-.067.752-.2 1.352-.4 1.798a14.76 14.76 0 0 0-.65 1.587c-.3.823-.45 1.516-.45 2.08a.51.51 0 0 0 .05.387c.1.212.35.236.75.07l.05-.176c0-.07-.033-.13-.1-.175-.1-.046-.15-.093-.15-.14 0-.047.217-.658.65-1.834.066-.234.15-.494.25-.775.566-1.644.85-3.114.85-4.405 0-.19-.117-.284-.35-.284v.036m12.6 19.637h.1v-.706c-.267-.492-.717-1.22-1.35-2.185-1.167-1.857-1.816-2.926-1.95-3.207-.434-.99-1.167-2.245-2.2-3.774-1-1.526-1.6-2.29-1.8-2.29-.133 0-.317.047-.55.14-.2.094-.417.2-.65.32-.1.046-.2.092-.3.14a.174.174 0 0 1-.1-.036l-2.65 2.467c.333-.233.65-.456.95-.67a37.08 37.08 0 0 0 1.35-.985h.1c.1 0 .383-.106.85-.318.433-.188.717-.33.85-.423.633.8 1.333 1.833 2.1 3.102.8 1.41 1.383 2.433 1.75 3.07.934 1.385 1.567 2.418 1.9 3.1.433.94.867 1.68 1.3 2.22h-.15c-2.767 3.386-4.75 5.736-5.95 7.053l-6.35 6.873h-1.2c-.533.26-.75.517-.65.775h-3.25l-.2-.07a.174.174 0 0 1-.1.035l.1.46.05.07h3.7c.267-.07.4-.153.4-.246.1-.237.184-.412.25-.53.434 0 .767.035 1 .106.2 0 2.434-2.338 6.7-7.016 2.566-2.843 4.517-5.194 5.85-7.05v-.212c.033.047.066.07.1.07v-.282z"/></g><path opacity=".329" fill="none" stroke="#94D0D0" stroke-linecap="round" stroke-linejoin="round" d="M5.3 69.9v.3" filter="url(#a)" transform="matrix(1 0 0 .7051 0 137.9)"/><g><path fill="#010101" d="M23.65 11.85c-1.6-1.467-3.333-1.967-5.2-1.5-1.867.433-3.033 1.35-3.5 2.75-.5 1.4-.583 2.5-.25 3.3v.05c-.033-.034-.067-.05-.1-.05-.767-.1-1.15.417-1.15 1.55l.1 1.2c.133.633.433 1 .9 1.1.067.233.183.567.35 1 .333.967.5 1.633.5 2 0 .467-.167 1.2-.5 2.2-.2.6-.333 1.1-.4 1.5-.667.267-1.534.75-2.6 1.45-1.733 1.067-3.65 2.383-5.75 3.95-2.4 1.7-3.6 4.316-3.6 7.85v.9c.033.167.067.316.1.45-.067.267-.1.55-.1.85v5.75c.1 1.333.367 2.167.8 2.5.233.8.633 1.684 1.2 2.65l1.5 2.45c0 .033-.1.533-.3 1.5-.233 1.033-.35 1.717-.35 2.05 0 .7.05 1.117.15 1.25 0 .034.467.583 1.4 1.65l1.3 1.35a5.843 5.843 0 0 1-.2.45c-.433.633-.75 1.417-.95 2.35l-.45 2.4c-.833 3.267-1.25 6.467-1.25 9.6V79.25l-.15 35.6c-1.133 7.767-1.55 14.716-1.25 20.85l-.2.35c.033 1.667-1.15 3.7-3.55 6.1-.534 1.034.417 1.667 2.85 1.9 2.8.267 4.4.05 4.8-.65 0-.1.017-.2.05-.3.267-.866 1.15-1.717 2.65-2.55l.1-3.65c1.467-3.267 2.3-6.416 2.5-9.45l.1-.35c.467-10.733 1.567-22.216 3.3-34.45a735 735 0 0 1 .4-3.05h1.85l1.5 36c.5 4.434 1.333 7.384 2.5 8.85-.767 2.7-1.066 4.617-.9 5.75.033.135.067.25.1.35 0 .068.033.15.1.25.467.668 1.617.867 3.45.602.4-.6 1-.584 1.8.05l.85 1.35c4.9 1.2 7.933 1.25 9.1.15-.2-2.034-1.483-3.284-3.85-3.75-.867-.034-1.6-.267-2.2-.7a4.75 4.75 0 0 1-.55-.75c-.3-.666-.217-1.316.25-1.95.466-1.533.216-2.716-.75-3.55v-.2c-1.6-13.7-1.434-30.3.5-49.8.066-.267.117-.65.15-1.15 0-.3-.017-.65-.05-1.05 0-1.033-.033-1.8-.1-2.3v-4.7c-.7-3.466-1.083-5.566-1.15-6.3-.033-.4-.183-.933-.45-1.6-.233-.667-.367-1.167-.4-1.5a11.426 11.426 0 0 0-.1-.45c.367-.633.733-1.55 1.1-2.75 0-.6-.05-1.034-.15-1.3-.1-.267-.15-.583-.15-.95 0-.3.7-.684 2.1-1.15 1.5-.466 2.35-.983 2.55-1.55.133-.4.184-.967.15-1.7-.034-.867-.034-1.383 0-1.55l1-6.55c0-.233-.217-1.133-.65-2.7-.433-1.633-.667-2.583-.7-2.85-.1-.6-.4-1.533-.9-2.8l-.1-.3c-.2-.5-.45-1-.75-1.5a11.53 11.53 0 0 0-3.15-3.7c-2.034-1.434-3.583-2.617-4.65-3.55a173.3 173.3 0 0 0-1.25-.95c-.267-.233-.433-.434-.5-.6v-.3-.1c0-.333.034-.633.1-.9 1.1-.434 1.9-1.934 2.4-4.5.5-1.367.65-2.2.45-2.5-.2-.3-.3-.483-.3-.55 0-.066.066-.45.2-1.15.1-.7.15-1.283.15-1.75 0-.97-.617-2.02-1.85-3.152m48.65 50.1c-.033.066-.083.15-.15.25-1.333-1.3-2.15-2.083-2.45-2.35l-.8-1.2-.15-.15a.913.913 0 0 0-.4-.3l-.05-.05c-.467-.267-1.117-.45-1.95-.55-.5.367-.883.65-1.15.85a.555.555 0 0 0-.2.2c-.233.167-.383.333-.45.5-.167.067-.25.233-.25.5l.05.55.3.05c.033 0 .25-.117.65-.35.467-.233.8-.35 1-.35.467 0 1.05.467 1.75 1.4l-.25.05c-.133-.133-.4-.2-.8-.2-.566 0-1.2.2-1.9.6-.633.367-1.017.717-1.15 1.05v1l.35.1c.133 0 .433-.133.9-.4.467-.3.75-.45.85-.45.167 0 .633.033 1.4.1.1.1.183.167.25.2-.533-.033-1.1.2-1.7.7-.633.566-.95.966-.95 1.2l.05.15c-.3.233-.517.467-.65.7v.85l.4.05c.2 0 .55-.316 1.05-.95.5-.6 1.1-.817 1.8-.65 0 .133.3.217.9.25-1 .6-1.55 1.184-1.65 1.75v1.4l.35.05c.033 0 .467-.4 1.3-1.2.434-.433.8-.733 1.1-.9.233-.2.433-.3.6-.3.233 0 .617.217 1.15.65s1.333.65 2.4.65c.767 0 1.383-.133 1.85-.4l.3-.2-2.65-3.5c-.267-.233-.55-.483-.85-.75a.33.33 0 0 1 .15-.15l-.35-.45M44.25 74.3l-1.75.95-.3 10.45-1.65 4.45c-1.3 1.1-2.25 2.517-2.85 4.25-.733 2.067-.967 4.583-.7 7.55.333 7.4 3.383 11.867 9.15 13.4 2.533.233 4.85.017 6.95-.65l2.95 14c.433 2.433.183 4.417-.75 5.95-1.167 2.467-3.017 4.316-5.55 5.55l.25 1.1 7.65-.3.85-2.95c.667-.966 1.117-.55 1.35 1.25h1.9c-.267-1.833-.1-3.667.5-5.5.167-1.1-.466-2.5-1.9-4.2-.667-.9-.85-3.7-.55-8.4l-.05-.25c-.133-6.1-.55-10.466-1.25-13.1l.9-12.15c1.566.067 3.167.118 4.8.15l5.8 11.5-.3 1.8c.433 3.334 2.483 8.3 6.15 14.9l.05.3c1.4 4.534 1.783 7.4 1.15 8.602l-.8 2.75 1.5 4.9h.95l.55-3.3 4.85 5.5H92v-1.1l-2.8-1.05c-3.7-2.735-6.017-6.718-6.95-11.95l-8.2-33c.133-.035.25-.05.35-.05l-.2-.2v-.15l-24.05.45-3.4-8.25c-1.466.232-2.767.632-3.9 1.2-.267.132-.533.266-.8.4l.75-2.7 3.6-.35.05-.6.1.25.3-2.6-.25-.9.1-2.1-.3-1.75h-.25l-1.9-4.052M66.6 29.1a.32.32 0 0 0 .15-.15l.05-.1h-.05c1-3.133 1.367-7.1 1.1-11.9-.767-6.3-3.333-9.05-7.7-8.25-4.2 1.133-6.784 6.017-7.75 14.65.033 2.667.017 4.95-.05 6.85v.55a6.14 6.14 0 0 0-.05.75c-.067.033-.15.083-.25.15.233.2.3.467.2.8l-.1.2.1-.1c-.233 3-.683 4.55-1.35 4.65.367 0 .75-.067 1.15-.2l2.25-2c.2-.3.4-.617.6-.95l.5-.8 2.1 8.65c.034-.167.083-.3.15-.4.133.067.233.25.3.55l3.8-7.7c.4.7.633 1.417.7 2.15-.067.033-.083.167-.05.4 0 .2.05.5.15.9l-.15-.1c-.067.233-.15.483-.25.75.133-.133.267-.25.4-.35 1.8-1.867 3-3.85 3.6-5.95.1-.4.183-.8.25-1.2 0-.067.017-.117.05-.15v-.15c0-.033.017-.083.05-.15.034-.267.067-.55.1-.85-.033-.033-.033-.083 0-.15-.1-.1-.15-.167-.15-.2 0-.067.05-.133.15-.2M113.75 0c-.767-.033-1.583.067-2.45.3-.867.2-1.65.6-2.35 1.2-.7.567-1.05.933-1.05 1.1-.034.167-.267.65-.7 1.45-.433.767-.717 2.65-.85 5.65a1.59 1.59 0 0 0-.2.6l.5 1.9c.8 1.333 1.333 1.75 1.6 1.25.9 1.5 1.284 3.083 1.15 4.75a3.4 3.4 0 0 1-.05.55c-.667 1.467-1.833 2.217-3.5 2.25-6.167.633-9.05 4.867-8.65 12.7-.133.4-.217.833-.25 1.3v.4c0 1.633.65 4.067 1.95 7.3 1.267 3.233 1.9 5.683 1.9 7.35v.45a10.556 10.556 0 0 1-.6 2.8l-.95 5.9c.133.133.284.267.45.4.9.733 1.35 1.3 1.35 1.7 0 .1-.434 1.317-1.3 3.65-.767 2.267-1.183 3.983-1.25 5.15a1.66 1.66 0 0 0-.05.4v.3l-2.3 34.3-2.95 29.55c-1.033 1.633-.467 3.783 1.7 6.45l-.9 3.6c-.533 1.366-.617 2.616-.25 3.75 1 .533 3 .75 6 .65 3.333.2 4.917-.185 4.75-1.15.133-1.034-.283-2.067-1.25-3.1l-.7-2.6c3.233-2.768 3.883-4.984 1.95-6.65-1.433-.733-1.816-1.718-1.15-2.95.067-.167.167-.334.3-.5 2.333-2.867 3.4-8.783 3.2-17.75l.2-2.7-.05.3c0-.033.317-2.95.95-8.75.567-5.833 1.5-8.5 2.8-8l-.6 30.85-.1.85c-2.5 4.135-2.817 7.067-.95 8.8-.333 2.868.233 5.317 1.7 7.35l3.85-.25v-1.75c1.667.302 2.833 1 3.5 2.102.6.866 2.767 1.283 6.5 1.25 2.8-.333 4.367-.884 4.7-1.65.033-.2.033-.384 0-.55-.533-1.2-2.1-2.166-4.7-2.9-2.333-1.6-3.883-3.316-4.65-5.15l1.4-3.1-2.4-5.5c3.167-7.866 4.833-18.616 5-32.25l2.4-17.25-1.25-5.9-.45-8.85c.2-.3.7-.733 1.5-1.3H126.85l-.35-7.3c-.066-.2-.117-.4-.15-.6v-.85h.05l.3-.3a.768.768 0 0 1 .15-.2h2.3c1.867-.367 3.333-.917 4.4-1.65.967-.7 1.45-1.433 1.45-2.2 0-.233-.033-.434-.1-.6.066-.467.1-1.083.1-1.85 0-.533-.083-1.467-.25-2.8-.167-1.3-.25-2.184-.25-2.65-.033-.867-.3-1.816-.8-2.85-.067-.167-.6-1.1-1.6-2.8-.433-.7-.883-1.65-1.35-2.85-.5-1.133-.966-2.05-1.4-2.75a29.482 29.482 0 0 1-.8-1.45c-.333-.533-.7-1-1.1-1.4l-.7-.65c-.4-.167-.65-.267-.75-.3-.1-.033-.883-.117-2.35-.25h-.05c-.667-.2-1.4-.333-2.2-.4l-1.35-.05c-.7-.133-1.117-.3-1.25-.5a7.448 7.448 0 0 0-1.5-1.7c-.267-.233-.4-.65-.4-1.25l.75-1.4c.033.033.066.05.1.05.3.067.867-.983 1.7-3.15.533-1.934.8-2.95.8-3.05 0-1.1-.033-1.933-.1-2.5l-.2-.3c.033-.333.05-.7.05-1.1 0-.9.017-1.45.05-1.65.033-.233-.067-.783-.3-1.65-.267-.9-.617-1.65-1.05-2.25s-1.167-1.217-2.2-1.85c-1.067-.635-1.983-.97-2.75-1.002m54.15 100.25l1.85-21c2.6-4.4 3.3-9.117 2.1-14.15l-.2-5.65c1.1-6.934.466-16.4-1.9-28.4-4.6-1.033-8.316-2.816-11.15-5.35l.5-4.15c2.467-1.1 3.15-4.283 2.05-9.55-1.567-4.633-3.517-6.667-5.85-6.1-3.4-.1-5.583 2.05-6.55 6.45v8.25l2.15-.35c.667 1.767.6 3.517-.2 5.25-3.6 3.567-7.2 5.9-10.8 7 .5 5.8-.15 11.617-1.95 17.45l-.1.85c-2.633 9-3.6 17.784-2.9 26.35-.467 3.934.467 7.05 2.8 9.35 1.167 1.067 2.633-.05 4.4-3.35L141.9 102c-2.133 7.8-3.133 15.6-3 23.4l.25 3.05-.65 1.65-.15 6.85-2 3.65.15 1.85c1 1.267 3.333 1.316 7 .15l1.1-3.65-.1-3.5 1.1-2.3c0-.066.017-.134.05-.2 1.7-7.7 2.7-16.434 3-26.2 2.9-7.6 4.883-15.217 5.95-22.85l1.15-.95 5.9 24.3c-.167 10.3 1.45 19.267 4.85 26.9l-.7 5.35 1.8 2.2c3 .733 5.55.65 7.65-.25l-.15-2.1-2-2.55v-9.95l-1.35-1.15.1-2.85-.45-.3-3.5-22.3m-22.75-36l-3.4-1.55 2.95-6.7.45 8.25m21.2-4.65l-1.5 1.35-.05-4.35 1.55 3"/><path fill="#CCC" d="M72.8 44.4v-.05l-.3-.35c-.633.633-1.05 1.5-1.25 2.6-.133.633-.283 1.55-.45 2.75-.367 1.267-1.067 3.066-2.1 5.4v3.65h.05l.1.05.2.05a.45.45 0 0 0 .2-.05c.133-.067.284-.217.45-.45-.267-.1-.4-.6-.4-1.5 0-.433.583-2.517 1.75-6.25a277.906 277.906 0 0 0 1.55-5.1c.233.4.75 1.133 1.55 2.2 1.133 1.566 1.7 2.45 1.7 2.65 0 .167-.066.567-.2 1.2.033.533.483.8 1.35.8v.1c-.2.133-.3.316-.3.55 0 .033.083.15.25.35.167.233.25.4.25.5 0 .067-.383.717-1.15 1.95-.867 1.3-1.4 2.183-1.6 2.65-.433.867-1.15 2.15-2.15 3.85l.35.45v-.05c.7-.934 2.466-3.95 5.3-9.05-.3-.367-.45-.583-.45-.65.133-.3.2-.533.2-.7-.033-.2-.183-.4-.45-.6h-.65c-.2-.267-.3-.417-.3-.45.167-.4.25-.683.25-.85 0-.433-.684-1.667-2.05-3.7-.8-1.167-1.367-1.817-1.7-1.95m-10.4-6.7l.15.1c-.1-.4-.15-.7-.15-.9-.2-.167-.534.117-1 .85a.32.32 0 0 0-.15.15c-.7 1.1-1.133 1.75-1.3 1.95-.2.167-.683.75-1.45 1.75-.2.3-.383.55-.55.75v-.3c-.067-.3-.167-.483-.3-.55a1.1 1.1 0 0 0-.15.4c-.066.167-.133.35-.2.55-1.434-1.833-2.267-2.95-2.5-3.35-.033-.067-.35-.75-.95-2.05a3.783 3.783 0 0 0-.55-.9c.333-.3.667-.683 1-1.15l-2.25 2c.2-.1.417-.233.65-.4.833 1.7 1.733 3.3 2.7 4.8.533.8.983 1.434 1.35 1.9l.25.25-.95 33.9-9.65.9.3 1.75.05-.65 23.4-1.15 3.45 16.6c-4.833.067-10.816-.05-17.95-.35a373.5 373.5 0 0 1-5.6-.25l-3.2-11.2-.3 2.6.55 1.75c-.133 0-.25.017-.35.05l3.4 8.25 24.05-.45-2.8-17.05.8-.05v.05c.233 0 .35-.133.35-.4 0-1.833-.283-3.917-.85-6.25-.1-.4-.183-.767-.25-1.1-.433-1.667-.65-2.533-.65-2.6 0-.066.05-.133.15-.2.067-.067.1-.15.1-.25L71 67.2c-.4-.233-.65-.2-.75.1a1.02 1.02 0 0 0-.05.55c0 .8.15 1.783.45 2.95.167.7.383 1.45.65 2.25.2.633.333 1.483.4 2.55.033.433.067 1 .1 1.7L57 76.95l.3-15.25c.167.066.367.1.6.1.367 0 .65-.133.85-.4.167-.233.25-.45.25-.65 0-.7-.367-1.067-1.1-1.1-.233 0-.417.033-.55.1l.1-6.6c.133.033.283.05.45.05.367 0 .65-.15.85-.45.167-.233.25-.467.25-.7 0-.767-.367-1.15-1.1-1.15-.167 0-.3.017-.4.05l.1-5.75c.167.167.434.25.8.25h.05c.4 0 .717-.133.95-.4.167-.2.25-.433.25-.7 0-.667-.383-1.017-1.15-1.05-.2 0-.367.017-.5.05l.2-.2c.7-.833 1.583-1.95 2.65-3.35.434-.566.8-1.05 1.1-1.45a7.13 7.13 0 0 1 .45-.65m-10.6-5.95c-.1.067-.2.15-.3.25-.033 0-.066.017-.1.05-.4.267-.733.55-1 .85-.2.233-.733.483-1.6.75-.9.3-1.533.583-1.9.85-.534.333-.934 1.017-1.2 2.05-.033.167-.067.35-.1.55-.033.1-.05.217-.05.35-.067.133-.1.3-.1.5l.05-.05-3.45 32.7c-.033 0-.05-.017-.05-.05-.066.3-.15.617-.25.95-.267.767-.4 1.317-.4 1.65 0 .267.067.583.2.95.167.4.367.65.6.75.233-.2.35-.367.35-.5s-.083-.317-.25-.55c-.167-.2-.25-.4-.25-.6 0-.133.133-.417.4-.85.133-.233.233-.434.3-.6.033-.167.05-.283.05-.35v-.55h-.1l3.5-33.2h.05a.83.83 0 0 0 .05-.25c.034-.267.083-.533.15-.8.2-1.067 1-1.783 2.4-2.15.233-.067.667-.267 1.3-.6.267-.167.583-.35.95-.55l.05-.05c.267-.167.5-.3.7-.4a.74.74 0 0 1 .35-.2l.1-.2c.1-.333.034-.6-.2-.8a.482.482 0 0 0-.25.1m15-2.9l-.05.1-.1.65c.033 0 .066.017.1.05l.2-.1h3.25c-.1.367.117.733.65 1.1h1.2l6.35 9.75c1.2 1.867 3.183 5.2 5.95 10h.15c-.433.767-.867 1.817-1.3 3.15-.333.967-.967 2.434-1.9 4.4-.367.9-.95 2.35-1.75 4.35-.767 1.8-1.467 3.267-2.1 4.4-.133-.133-.417-.333-.85-.6-.467-.3-.75-.45-.85-.45h-.1a43.032 43.032 0 0 0-1.35-1.4l-.95-.95L76 66.8c.034-.033.067-.05.1-.05l.3.2c.233.167.45.316.65.45.233.133.417.2.55.2.2 0 .8-1.083 1.8-3.25 1.033-2.167 1.767-3.95 2.2-5.35.133-.4.783-1.917 1.95-4.55.633-1.367 1.083-2.4 1.35-3.1v-1h-.1v-.4c-.033 0-.067.033-.1.1v-.3c-1.333-2.633-3.283-5.967-5.85-10-4.267-6.633-6.5-9.95-6.7-9.95-.233.1-.567.15-1 .15a9.588 9.588 0 0 1-.25-.75c0-.133-.133-.25-.4-.35h-3.7z"/><path fill="#099" d="M66.75 28.95a.325.325 0 0 1-.15.15c-.1.066-.15.133-.15.2 0 .034.05.1.15.2 0 .033.017.067.05.1l.1-.65z"/><g><path fill="none" stroke="#94D0D0" stroke-linecap="round" stroke-linejoin="round" stroke-opacity=".329" d="M5.3 79.25v-.3"/></g></g></svg>