
<svg xmlns="http://www.w3.org/2000/svg" version="1.1" xmlns:xlink="http://www.w3.org/1999/xlink" preserveAspectRatio="none" x="0px" y="0px" width="349px" height="243px" viewBox="0 0 349 243">
<defs>
<filter id="Filter_1" x="-20%" y="-20%" width="140%" height="140%" color-interpolation-filters="sRGB">
<feColorMatrix in="SourceGraphic" type="matrix" values="0 0 0 0 0.803921568627451 0 0 0 0 0.8 0 0 0 0 0.8 0 0 0 1 0" result="result1"/>
</filter>

<g id="S_mbolo_1_0_Layer0_0_FILL">
<path fill="#010101" stroke="none" d="
M 30.65 11.4
Q 30.85 11.05 31.2 10.65 32.1 10 33.4 9.95 36.95 9.25 37.25 6.2 35.5 4.55 28.15 6.35
L 27.3 7.7
Q 26.1 8.65 25.5 7.75 22.75 7.35 22.05 8.35 21.95 8.5 21.95 8.6 21.9 8.75 21.85 8.95 21.6 10.65 22.75 14.7 21 16.9 20.25 23.55
L 18.75 59.55 16.9 59.55
Q 16.7 58.05 16.5 56.5 13.9 38.15 13.2 22.05
L 13.1 21.7
Q 12.8 17.15 10.6 12.25
L 10.5 8.6
Q 8.25 7.35 7.85 6.05 7.8 5.9 7.8 5.75 7.2 4.7 3 5.1 -0.65 5.45 0.15 7 3.75 10.6 3.7 13.1
L 3.9 13.45
Q 3.45 22.65 5.15 34.3
L 5.3 69.9 5.3 70.2 5.3 70.8
Q 5.3 75.5 6.55 80.4 6.85 82 7 82.8 7.3 84.2 7.95 85.15 8.05 85.35 8.15 85.6
L 6.85 86.95
Q 5.45 88.55 5.45 88.6 5.3 88.8 5.3 89.85 5.3 90.35 5.65 91.9 5.95 93.35 5.95 93.4
L 4.45 95.85
Q 3.6 97.3 3.25 98.5 2.6 99 2.45 101
L 2.45 106.75
Q 2.45 107.2 2.55 107.6 2.5 107.8 2.45 108.05 2.45 108.9 2.45 108.95 2.45 114.25 6.05 116.8 9.2 119.15 11.8 120.75 13.4 121.8 14.4 122.2 14.5 122.8 14.8 123.7 15.3 125.2 15.3 125.9 15.3 126.45 14.8 127.9 14.55 128.55 14.45 128.9 13.75 129.05 13.55 130
L 13.45 131.2
Q 13.45 132.9 14.6 132.75 14.65 132.75 14.7 132.7
L 14.7 132.75
Q 14.2 133.95 14.95 136.05 15.65 138.15 18.45 138.8 21.25 139.5 23.65 137.3 25.5 135.6 25.5 134.15 25.5 133.45 25.35 132.4 25.15 131.35 25.15 131.25 25.15 131.15 25.45 130.7 25.75 130.25 25 128.2 24.25 124.35 22.6 123.7 22.5 123.3 22.5 122.8 22.5 122.75 22.5 122.7 22.5 122.55 22.5 122.4 22.6 122.15 23 121.8 23.4 121.5 24.25 120.85 25.85 119.45 28.9 117.3 30.9 115.75 32.05 113.6 32.5 112.85 32.8 112.1 32.85 111.95 32.9 111.8 33.65 109.9 33.8 109 33.85 108.6 34.5 106.15 35.15 103.8 35.15 103.45
L 34.15 96.9
Q 34.1 96.65 34.15 95.35 34.2 94.25 34 93.65 33.7 92.8 31.45 92.1 29.35 91.4 29.35 90.95 29.35 90.4 29.5 90 29.65 89.6 29.65 88.7 29.1 86.9 28.55 85.95 28.6 85.75 28.65 85.5 28.7 85 29.05 84 29.45 83 29.5 82.4 29.6 81.3 30.65 76.1
L 30.65 71.4
Q 30.75 70.65 30.75 69.1 30.8 68.5 30.8 68.05 30.75 67.3 30.65 66.9 27.75 37.65 30.15 17.1
L 30.15 16.9
Q 31.6 15.65 30.9 13.35 30.2 12.4 30.65 11.4
M 62.55 111.05
Q 62.35 110.9 62.15 110.7 62.3 111.1 62.4 111.45
L 62.55 111.35
Q 62.4 111.95 62.4 112.25 62.35 112.6 62.45 112.65 62.35 113.75 61.75 114.8
L 57.95 107.1
Q 57.85 107.55 57.65 107.65 57.55 107.5 57.5 107.25
L 55.4 115.9
Q 55.15 115.5 54.9 115.1 54.6 114.6 54.3 114.15
L 52.05 112.15
Q 51.45 111.95 50.9 111.95 51.9 112.1 52.25 116.6 52.2 116.55 52.15 116.5 52.2 116.6 52.25 116.7 52.4 117.2 52.05 117.5 52.2 117.6 52.3 117.65 52.3 118 52.35 118.4 52.35 118.7 52.35 118.95 52.45 121.8 52.4 125.8 53.85 138.75 60.15 140.45 66.7 141.65 67.85 132.2 68.25 125 66.75 120.3
L 66.8 120.3 66.75 120.2
Q 66.7 120.1 66.6 120.05 66.45 119.95 66.45 119.85 66.45 119.8 66.6 119.65 66.55 119.55 66.6 119.5 66.55 119.05 66.5 118.65 66.45 118.55 66.45 118.5
L 66.45 118.35
Q 66.4 118.3 66.4 118.2 66.3 117.6 66.15 117 65.25 113.85 62.55 111.05
M 72.5 86.6
Q 72.95 86.2 73.35 85.85
L 76 82.35
Q 75.85 82.25 75.7 82.15 75 81.75 73.85 81.75 72.25 81.75 71.45 82.4 70.65 83.05 70.3 83.05 70.05 83.05 69.7 82.75 69.25 82.5 68.6 81.85 67.35 80.65 67.3 80.65
L 66.95 80.7 66.95 82.1
Q 67.1 82.95 68.6 83.85 67.7 83.9 67.7 84.1 66.65 84.35 65.9 83.45 65.15 82.5 64.85 82.5
L 64.45 82.55 64.45 83.4
Q 64.65 83.75 65.1 84.1
L 65.05 84.25
Q 65.05 84.6 66 85.45 66.9 86.2 67.7 86.15 67.6 86.2 67.45 86.35 66.3 86.45 66.05 86.45 65.9 86.45 65.2 86 64.5 85.6 64.3 85.6
L 63.95 85.7 63.95 86.7
Q 64.15 87.2 65.1 87.75 66.15 88.35 67 88.35 67.6 88.35 67.8 88.15
L 68.05 88.2
Q 67 89.6 66.3 89.6 66 89.6 65.3 89.25 64.7 88.9 64.65 88.9
L 64.35 88.95 64.3 89.5
Q 64.3 89.9 64.55 90 64.65 90.25 65 90.5 65.05 90.6 65.2 90.7 65.6 91 66.35 91.55 67.6 91.4 68.3 91
L 68.35 90.95
Q 68.6 90.85 68.75 90.65 68.8 90.6 68.9 90.5 69.2 90.05 69.7 89.3 70.15 88.9 72.15 86.95 72.25 87.1 72.3 87.2
L 72.65 86.75
Q 72.55 86.7 72.5 86.6
M 82.25 20.45
Q 83.65 12.6 89.2 8.5
L 92 7.45 92 6.35 84.1 6.35 79.25 11.85 78.7 8.55 77.75 8.55 76.25 13.45 77.05 16.2
Q 78 18 75.9 24.8
L 75.85 25.1
Q 70.35 35 69.7 40
L 70 41.8 64.2 53.3
Q 61.75 53.35 59.4 53.45
L 58.5 41.3
Q 59.55 37.35 59.75 28.2
L 59.8 27.95
Q 59.35 20.9 60.35 19.55 62.5 17 62.25 15.35 61.35 12.6 61.75 9.85
L 59.85 9.85
Q 59.5 12.55 58.5 11.1
L 57.65 8.15 50 7.85 49.75 8.95
Q 53.55 10.8 55.3 14.5 56.7 16.8 56.05 20.45
L 53.1 34.45
Q 49.95 33.45 46.15 33.8 37.5 36.1 37 47.2 36.6 51.65 37.7 54.75 38.6 57.35 40.55 59
L 42.2 63.45 42.5 73.9 44.25 74.85 46.15 70.8 46.4 70.8 46.7 69.05 46.6 66.95 46.85 66.05 46.55 63.45 46.45 63.7 46.4 63.1 42.8 62.75 42.05 60.05
Q 42.45 60.25 42.85 60.45 44.55 61.3 46.75 61.65
L 50.15 53.4 74.2 53.85 74.2 53.7 74.4 53.5
Q 74.25 53.5 74.05 53.45
L 82.25 20.45
M 129.35 6.9
Q 129.4 6.65 129.35 6.35 128.85 5.2 124.65 4.7 119.05 4.65 118.15 5.95 117.15 7.6 114.65 8.05
L 114.65 6.3 110.8 6.05
Q 108.6 9.1 109.1 13.4 106.3 16 110.05 22.2
L 110.15 23.05 110.75 53.9
Q 108.8 54.65 107.95 45.9 107 37.2 107 37.15
L 107.05 37.45 106.85 34.75
Q 107.15 21.3 103.65 17 103.45 16.75 103.35 16.5 102.35 14.65 104.5 13.55 107.4 11.05 102.55 6.9
L 103.25 4.3
Q 104.7 2.75 104.5 1.2 104.75 -0.25 99.75 0.05 95.25 -0.1 93.75 0.7 93.2 2.4 94 4.45
L 94.9 8.05
Q 91.65 12.05 93.2 14.5
L 96.15 44.05 98.45 78.35
Q 98.45 78.5 98.45 78.65 98.45 78.85 98.5 79.05 98.6 80.8 99.75 84.2 101.05 87.7 101.05 87.85 101.05 88.45 99.7 89.55 99.45 89.75 99.25 89.95
L 100.2 95.85
Q 100.7 97.25 100.8 98.65 100.8 98.85 100.8 99.1 100.8 101.6 98.9 106.45 96.95 111.3 96.95 113.75 96.95 113.95 96.95 114.15 97 114.85 97.2 115.45 96.6 127.2 105.85 128.15 108.35 128.2 109.35 130.4 109.4 130.7 109.4 130.95 109.6 133.45 108.25 135.7 107.85 134.95 106.65 136.95
L 106.15 138.85
Q 106.2 139.2 106.35 139.45 106.55 143.95 107.2 145.1 107.85 146.3 107.9 146.55 107.9 146.8 108.95 147.65 110 148.55 111.3 148.85 112.6 149.2 113.75 149.15 114.9 149.1 116.5 148.15 118.05 147.2 118.7 146.3 119.35 145.4 119.75 144.05 120.1 142.75 120.05 142.4 120 142.1 120 140.75 120 140.15 119.95 139.65 120.05 139.5 120.15 139.35 120.25 138.5 120.25 136.85 120.25 136.7 119.45 133.8 118.2 130.55 117.75 130.65 117.7 130.65 117.65 130.7
L 116.9 129.3
Q 116.9 128.4 117.3 128.05 118.15 127.35 118.8 126.35 119 126.05 120.05 125.85
L 121.4 125.8
Q 122.6 125.7 123.6 125.4
L 123.65 125.4
Q 125.85 125.2 126 125.15 126.15 125.1 126.75 124.85
L 127.45 124.2
Q 128.05 123.6 128.55 122.8 128.8 122.3 129.35 121.35 130 120.3 130.75 118.6 131.45 116.8 132.1 115.75 133.6 113.2 133.7 112.95 134.45 111.4 134.5 110.1 134.5 109.4 134.75 107.45 135 105.45 135 104.65 135 103.5 134.9 102.8 135 102.55 135 102.2 135 101.05 133.55 100 131.95 98.9 129.15 98.35
L 126.85 98.35
Q 126.75 98.25 126.7 98.15 126.55 98 126.4 97.85
L 126.35 97.85
Q 126.35 97.5 126.35 97 126.4 96.7 126.5 96.4
L 126.85 89.1
Q 126.7 89.1 126.55 89.1 126.35 89.1 126.2 89.1 125 88.25 124.7 87.8
L 125.15 78.95 126.4 73.05 124 55.8
Q 123.75 35.35 119 23.55
L 121.4 18.05 120 14.95
Q 121.15 12.2 124.65 9.8 128.55 8.7 129.35 6.9
M 173.1 22.3
L 173.1 12.35 175.1 9.8 175.25 7.7
Q 172.1 6.35 167.6 7.45
L 165.8 9.65 166.5 15
Q 161.4 26.45 161.65 41.9
L 155.75 66.2 154.6 65.25
Q 153 53.8 148.65 42.4 148.2 27.75 145.65 16.2 145.6 16.1 145.6 16
L 144.5 13.7 144.6 10.2 143.5 6.55
Q 138 4.8 136.5 6.7
L 136.35 8.55 138.35 12.2 138.5 19.05 139.15 20.7 138.9 23.75
Q 138.7 35.45 141.9 47.15
L 142.15 66
Q 139.5 61.05 137.75 62.65 134.25 66.1 134.95 72 133.9 84.85 137.85 98.35
L 137.95 99.2
Q 140.65 107.95 139.9 116.65 145.3 118.3 150.7 123.65 151.9 126.25 150.9 128.9
L 148.75 128.55 148.75 136.8
Q 150.2 143.4 155.3 143.25 158.8 144.1 161.15 137.15 162.8 129.25 159.1 127.6
L 158.6 123.45
Q 162.85 119.65 169.75 118.1 173.3 100.1 171.65 89.7
L 171.85 84.05
Q 173.65 76.5 169.75 69.9
L 167.9 48.9 171.4 26.6 171.85 26.3 171.75 23.45 173.1 22.3
M 164.8 92.55
L 164.85 88.2 166.35 89.55 164.8 92.55
M 144.7 93.15
L 141.75 86.45 145.15 84.9 144.7 93.15
M 209.1 11.2
L 209.5 6.2 206 2.3
Q 201.35 0.3 198.75 1.8
L 198.75 3.6 201.9 8.95
Q 202.45 11.55 200.75 14.1
L 199.5 13.2
Q 200.5 10.65 199.35 8.95
L 196.35 8.45
Q 192.8 3.65 186.25 5.55
L 185.85 6.55
Q 189.65 9 191.6 12.7
L 191.6 16.45 190.1 17.3 191.45 18.9 190 21.55 187.55 61.85 182.5 64.7 182.85 80.8 175.1 93.95
Q 173.8 95.8 175.25 100.8 177.55 104.85 179.3 109.15 179.5 109.75 179.75 110.35 179.8 110.5 180 112 180.2 113.5 180.7 115.2 181.15 116.95 181 118.15 180.8 119.35 191.4 121.3
L 193.5 123.7
Q 194.35 125.15 193.35 127.55 192.7 127.2 192.25 128.75
L 191.6 132.75
Q 192.65 132.25 192.5 132.9 192.5 138.15 195.85 140.4 197.1 141.15 199.25 140.5 200.55 140.1 201.55 139 202.5 137.9 203.1 136 203.7 132.05 202.9 128.4
L 202.9 127.9 201.7 125.65
Q 201.45 122.85 203.15 122.65 208.55 122.05 211.7 121.2 215.9 120.1 216 118.55 216 118.5 216 118.4
L 216.1 115.8
Q 224.45 106.35 225.25 99.65
L 225.15 99.45
Q 223.2 92.75 219.7 89.05 218.2 87.5 217.4 86.2 216.35 84.45 216.6 83.15 217.05 80.95 217.5 63.75 214.3 62.1 211.1 64.3
L 211 14.05 209.1 11.2
M 198.85 23
L 200.5 21.55
Q 200.7 28.55 201.75 30.4 201.8 31.35 201.9 32.2 202.4 41.3 198.85 48.05
L 198.85 23
M 181.35 96.55
L 183.7 93.3 184.1 101.3 181.35 96.55
M 214.85 101.85
Q 214.35 102.2 213.85 102.45
L 214.25 95.35 217.3 99.05
Q 216.35 100.85 214.85 101.85
M 253.45 95.1
L 250.3 95.3 251.75 88.15
Q 249.85 88.5 247.15 88.4 242.45 88.35 235.4 87.25 233.2 86.9 230.75 86.45
L 232.85 97.7
Q 229.45 98.55 227.65 101.8 227.45 102.15 227.85 101.55
L 227 119.7 233 121.3 233.35 135.45
Q 234.35 141.35 236.75 142.65 239.15 143.95 238.6 143.5 239.5 144.05 239.85 143.7 241.95 143.45 243.45 142.35 243.85 142.05 244.2 141.7 245.65 140.15 246.35 137.55
L 247.1 121.3
Q 253.4 120.8 253.35 117.8 256 106.6 253.45 95.1
M 246.65 95.45
Q 247.7 95.45 248.75 95.3 249.3 99.65 246.5 102.45 246.35 102.45 246.2 102.4 244.5 102.25 242.85 100.45 243.8 97.7 243 94.95 244.75 95.45 246.65 95.45
M 234.75 97.95
L 239.75 97.45
Q 239.2 103.45 241.1 102.95 241.15 102.6 241.25 102.2 241.8 106.95 244.85 111.7 245.2 112.15 245.5 112.65 247.2 115.65 246.55 120.95 245.75 120.45 245 120 242.7 118.85 240.45 118.55 240.3 118.55 240.1 118.55 236.85 118.45 234.15 120.3 234.5 114.65 236.85 111.45 238 110.2 238.85 108.7 240.25 106.3 241.05 103.1
L 238.5 105.55
Q 238.45 105.6 238.35 105.6 234.6 106.2 234.75 97.95
M 255.85 12.2
L 257.65 9.2
Q 258.25 8.55 257.7 7.35 257.15 6.2 252.7 7.55 252.5 7.6 252.35 7.65
L 250.7 10.05 250.6 14.05 248.6 14.05 246.15 49.05 241.9 73.05 240 72.95 234.75 47.75 232.35 14.2
Q 231 13.9 229.75 13.75
L 229.6 13.95
Q 228.75 13.6 228.05 14.2
L 228.05 14.15
Q 228 14.2 227.95 14.15
L 227.85 10.45 226.2 8.05
Q 221.45 6.6 220.85 7.75 220.8 7.85 220.75 8 220.35 9 220.9 9.6
L 222.7 12.6
Q 223.2 13.6 223.05 14.55 222.95 14.55 222.85 14.6
L 223.35 14.6
Q 223.1 14.7 222.85 14.8 223.7 31.6 227.15 45.3
L 227.85 62.2
Q 227.3 76.75 230.6 84.55 232.75 83.95 234.8 83.55 241.65 82.25 247.45 83.6 250 84.2 252.3 85.25 254.95 75.45 253.9 53.55 253.85 53.3 253.85 53.05
L 253.75 51.05 257.25 15.05 255.7 14.8
Q 255.2 13.5 255.85 12.2
M 307.85 6.65
Q 307.1 6.4 306.6 6.4 304.25 6.4 303 6.95 301.75 7.55 298.55 9.1
L 298.5 9.05
Q 298.5 8.55 298.35 7.9 298.1 7.8 297.35 7.8 296.3 7.8 295.35 8.4 295.25 8.85 294.9 9.5 294.5 10.2 294.5 10.3
L 294.5 12.65
Q 294.55 14.3 294.55 15.25 294.55 15.7 294.5 16.1 294.45 16.25 294.45 16.35 290.15 21.5 287.95 54.4 287.05 55.05 286.35 54.5 284.8 54.45 284.2 43.9 284.15 43.75 284.15 43.55
L 284.65 21.95
Q 284.85 21.35 285.25 21.15 285.85 18.85 285.85 16.85 285.85 16.6 285.75 13.4 285.6 12.7 284.25 11.05 283.7 9.95 282.75 8.8 282.3 7.7 282.05 7.2 281.6 6.4 280.8 6.4 280.25 6.4 277.85 6.8 276.25 6.9 276 7 275.75 7.1 275.75 8.5 275.75 9.6 276.7 10.6 277.6 11.6 277.6 12 277.6 13.45 276.5 15.2 275.35 17 275.35 19 275.35 23.05 274.85 28.35 274.15 34.45 273.85 37.9
L 273.85 38.7
Q 270.65 48.1 270.8 73.4 270.8 73.5 270.8 73.6
L 273.4 76.9 272.15 79.15 268.65 74.65
Q 264.35 83.15 265.65 100.15
L 268.4 120.35
Q 275.8 122.75 280.05 125.9
L 284.35 113.15 285.5 120.55 284.8 123.95
Q 283 125.2 281.7 127 281.55 127.15 281.5 127.3
L 281.45 127.65 281.55 130.1 281.15 130.55 280.95 132.75 280.1 133.1 280 137.2 280.85 137.55
Q 281.15 143.65 286.25 144.65
L 288.1 144.45
Q 292.75 143 292.2 136.4
L 292.75 135.9 292.5 132.8 291.35 132.55 290.5 129.9 289.7 129.2 289.35 126.55 287.3 124.2 286.85 120.55 288.2 113.2
Q 290 118.85 290.1 124.55
L 301.4 119.65
Q 300.85 114.2 302.15 110.1
L 304.9 75.35
Q 302.1 78.5 299.2 75.7
L 297.15 81.4
Q 297.95 68.5 299.6 69.25
L 299.75 73.45
Q 301.95 75.45 303.9 73.6 304.7 68.6 303.9 63.9
L 305.75 59.05
Q 312 54.15 310.35 37.8 310.25 37.55 310.1 37.25 309 35.25 304 34.6
L 303.75 29.8 303.35 29.65
Q 302.5 19.85 305.65 18.55 305.85 18.2 305.85 17.95 305.85 17.75 305.6 17.4 305.3 17.05 305.1 17.05 304.6 17.05 302.9 18.85 301.15 20.7 300.75 20.8 300.5 19.95 300.5 19.35 300.5 18.3 301.05 17.8 301.45 17.4 302.85 16.3 303.2 15.85 303.2 14.7 303.2 13.3 303.5 12.4 303.7 11.8 306.3 9.85 308.75 7.95 308.75 7.45 308.75 7 307.85 6.65
M 303.1 60.2
Q 303.35 60.65 303.35 61.15 303.35 61.7 302.95 62.5 302.55 63.25 302.1 63.55 301.9 63.7 301.1 64.65 300.25 65.65 300.25 65.8 300.25 66.1 300.75 66.35 301.3 66.6 301.5 67.05 302.35 68.6 302.35 68.8
L 302.25 69.7 301.5 69.7
Q 301.5 69 301.2 68.35 301.05 68 300.6 67.3 300.2 66.55 299.4 66.5 298.85 66.5 298.85 65.65 298.85 64.9 299.15 63.9 299.4 63.05 299.7 62.7 299.8 62.6 299.9 62.5 300.65 61.75 300.9 60.75 301.15 59.7 302.35 59.7 302.8 59.7 303.1 60.2
M 331.15 6.25
Q 328.7 6.35 328.05 9.65
L 321.05 9.25 321.25 10.45
Q 326.4 12.6 328.1 15.85 329.3 23.75 328.3 28.5
L 328.2 28.95
Q 325.55 35.35 324.9 44.9 324.6 49.7 321.25 50 318.45 49.85 316.85 50.85 318.9 61.75 318.15 72.6
L 318.15 72.85
Q 317.45 78.45 318.15 84.6 315 88.3 313.05 94.15 312.2 96.6 311.6 99.4 311.15 102.05 311.9 104.75
L 312.05 105.15
Q 312.85 106.4 313.5 107.9 314.3 109.7 314.9 111.9 315.25 113.3 315.6 114.8 316.05 119 318.9 120.65 322.15 121.95 323.65 124.35 320.95 128.6 324 135.9 326.7 143.65 330.35 143.55 334.05 144.85 336.25 142.5 339.25 139.45 339.7 136.8 340.1 134.2 340.15 134 340.2 133.8 340.45 131.25 340.65 128.7 339.85 124.25 348.2 122.1 347.95 116.35
L 347.95 116.1
Q 348.85 110.35 348.85 104.35 348.85 99.3 348.2 94.1
L 348.2 93.85
Q 348.25 93.2 348.3 92.55 348.4 88.15 345.65 85.65 346.1 80.65 343.35 78.65 344.4 71.9 340.6 67.85 338.6 63.5 340 58.45 341.75 53.4 341.85 50.55 340.05 50.1 339.6 48.9 338.95 47.8 336.35 48.75 335.4 50.15 333.65 49.3 336.9 44.1 335.05 38.35
L 334.3 23.75
Q 339.2 20.3 336.95 17.5
L 334.15 14.75
Q 335.2 13.25 335.3 11.35 334.45 6.4 331.15 6.25
M 340.95 92.3
Q 341.4 91.4 341.6 91.4 342.25 91.4 342.6 93.5 342.6 94.05 342.05 95.05 341.9 95.25 341.85 95.4 341.45 96 341.4 96.1 341.35 96.35 341.25 96.55 341.05 96.95 340.65 97 340.2 97.1 340 97.3 339.9 97.05 339.7 96.35 339.55 96 339.4 95.5 339.4 95 339.8 94.35 340.05 93.95 340.5 93.25 340.55 93.2 340.95 92.3
M 317.85 95.5
Q 317.85 95.35 317.9 95.15 318.25 93.65 318.35 93.35 318.4 93.2 318.65 92.5 318.85 92.1 319.05 91.9 319.2 93.25 319.5 93.95 319.9 94.9 320 95.15 320.1 95.45 320.1 96.15
L 320.1 96.2
Q 320.1 97.05 320.05 97.15 319.75 97.5 319.3 98.15 318.8 98.95 318.6 99.15 318.3 99.5 317.8 99.5 317.35 99.5 317.35 99.05 317.35 97.7 317.85 95.5
M 319.05 102.45
Q 319.6 102.45 319.6 104.3 319.6 105.35 318.95 105.35 318.7 105.35 318.15 104.1
L 318.15 104.05
Q 317.65 103.05 317.6 102.7
L 317.55 102.7 317.6 102.65 317.6 102.7 318.35 102.7
Q 318.6 102.6 318.75 102.55 319 102.45 319.05 102.45 Z"/>

<path fill="#009999" stroke="none" d="
M 66.65 119.55
Q 66.6 119.6 66.6 119.65 66.45 119.8 66.45 119.85 66.45 119.95 66.6 120.05 66.7 120.1 66.75 120.2
L 66.65 119.55 Z"/>

<path fill="#CCCCCC" stroke="none" d="
M 69.3 92.65
Q 69.3 91.3 69.7 91.15 69.45 90.8 69.25 90.7 69.15 90.65 69.05 90.65
L 68.85 90.7 68.75 90.75 68.7 90.75 68.7 94.4
Q 70.25 97.9 70.8 99.8 71.05 101.6 71.25 102.55 71.55 104.2 72.5 105.15
L 72.8 104.8 72.8 104.75
Q 73.3 104.55 74.5 102.8 76.55 99.75 76.55 99.1 76.55 98.85 76.3 98.25 76.3 98.2 76.6 97.8
L 77.25 97.8
Q 77.65 97.5 77.7 97.2 77.7 96.95 77.5 96.5 77.5 96.4 77.95 95.85 73.7 88.2 72.65 86.8
L 72.65 86.75 72.3 87.2
Q 73.8 89.75 74.45 91.05 74.75 91.75 76.05 93.7 77.2 95.55 77.2 95.65 77.2 95.8 76.95 96.15 76.7 96.45 76.7 96.5 76.7 96.85 77 97.05
L 77 97.15
Q 75.7 97.15 75.65 97.95 75.85 98.9 75.85 99.15 75.85 99.45 74.15 101.8 72.95 103.4 72.6 104 72.2 102.6 71.05 98.9 69.3 93.3 69.3 92.65
M 41.55 75.05
Q 41.35 75.6 41.35 76 41.35 76.5 41.75 77.65 41.9 78.15 42 78.6 42 78.55 42.05 78.55
L 45.5 111.25 45.45 111.2
Q 45.45 111.5 45.55 111.7 45.55 111.9 45.6 112.05 45.65 112.35 45.7 112.6 46.1 114.15 46.9 114.65 47.45 115.05 48.8 115.5 50.1 115.9 50.4 116.25 50.8 116.7 51.4 117.1 51.45 117.15 51.5 117.15 51.65 117.3 51.8 117.4 51.95 117.5 52.05 117.5 52.4 117.2 52.25 116.7 52.2 116.6 52.15 116.5 51.95 116.45 51.8 116.3 51.5 116.15 51.1 115.9
L 51.05 115.85
Q 50.5 115.55 50.1 115.3 49.15 114.8 48.8 114.7 46.7 114.15 46.4 112.55 46.3 112.15 46.25 111.75 46.25 111.65 46.2 111.5
L 46.15 111.5 42.65 78.3
Q 42.7 78.3 42.75 78.3 42.75 78.05 42.75 77.75 42.75 77.65 42.7 77.4 42.6 77.15 42.4 76.8 42 76.15 42 75.95 42 75.65 42.25 75.35 42.5 75 42.5 74.8 42.5 74.6 42.15 74.3 41.8 74.45 41.55 75.05
M 72.2 70.95
L 71.4 70.9 74.2 53.85 50.15 53.4 46.75 61.65
Q 46.9 61.7 47.1 61.7
L 46.55 63.45 46.85 66.05 50.05 54.85
Q 52.95 54.7 55.65 54.6 66.35 54.15 73.6 54.25
L 70.15 70.85 46.75 69.7 46.7 69.05 46.4 70.8 56.05 71.7 57 105.6
Q 56.85 105.75 56.75 105.85 56.2 106.55 55.4 107.75 53.95 110 52.7 112.55 52.35 112.3 52.05 112.15
L 54.3 114.15
Q 53.8 113.45 53.3 113 53.6 112.65 53.85 112.1 54.75 110.15 54.8 110.05 55.15 109.45 57.3 106.7 57.4 107 57.5 107.25 57.55 107.5 57.65 107.65 57.85 107.55 57.95 107.1 57.95 106.95 57.95 106.8 58.2 107.1 58.5 107.55 59.65 109.05 59.95 109.3 60.2 109.6 61.25 111.25 61.3 111.35 61.4 111.4 62.1 112.5 62.4 112.25 62.4 111.95 62.55 111.35
L 62.4 111.45
Q 62.2 111.2 61.95 110.8 61.5 110.2 60.85 109.35 59.25 107.25 58.2 106 58.1 105.9 58 105.8 58.2 105.85 58.5 105.85 59.65 105.8 59.65 104.8 59.65 104.4 59.4 104.1 59.05 103.7 58.45 103.7
L 58.4 103.7
Q 57.85 103.7 57.6 103.95
L 57.5 98.2
Q 57.65 98.25 57.9 98.25 59 98.25 59 97.1 59 96.75 58.75 96.4 58.45 95.95 57.9 95.95 57.65 95.95 57.45 96
L 57.35 89.4
Q 57.55 89.5 57.9 89.5 59 89.45 59 88.4 59 88.1 58.75 87.75 58.45 87.35 57.9 87.35 57.55 87.35 57.3 87.45
L 57 72.2 71.8 71.85
Q 71.75 72.9 71.7 73.55 71.6 75.15 71.3 76.1 70.9 77.3 70.65 78.35 70.2 80.1 70.2 81.3 70.15 81.6 70.25 81.85 70.4 82.3 71 81.95
L 71.05 81.7
Q 71.05 81.55 70.95 81.45 70.8 81.35 70.8 81.25 70.8 81.15 71.45 78.65 71.55 78.15 71.7 77.55 72.55 74.05 72.55 71.3 72.55 70.9 72.2 70.9
L 72.2 70.95
M 84.8 98.8
L 84.9 98.8 84.9 97.8
Q 84.5 96.75 83.55 94.7 81.8 90.75 81.6 90.15 80.95 88.05 79.4 84.8 77.9 81.55 77.6 81.55 77.4 81.55 77.05 81.75 76.75 81.95 76.4 82.2 76.25 82.3 76.1 82.4 76.05 82.4 76 82.35
L 73.35 85.85
Q 73.85 85.35 74.3 84.9 75.15 84.05 75.65 83.5 75.7 83.5 75.75 83.5 75.9 83.5 76.6 83.05 77.25 82.65 77.45 82.45 78.4 84.15 79.55 86.85 80.75 89.85 81.3 91.2 82.7 94.15 83.2 95.6 83.85 97.6 84.5 98.75 84.45 98.75 84.35 98.75 80.2 105.95 78.4 108.75
L 72.05 118.5 70.85 118.5
Q 70.05 119.05 70.2 119.6
L 66.95 119.6 66.75 119.5
Q 66.7 119.55 66.65 119.55
L 66.75 120.2 66.8 120.3 70.5 120.3
Q 70.9 120.15 70.9 119.95 71.05 119.45 71.15 119.2 71.8 119.2 72.15 119.35 72.45 119.35 78.85 109.4 82.7 103.35 84.7 99.4
L 84.7 99.1
Q 84.75 99.2 84.8 99.2
L 84.8 98.8 Z"/>
</g>

<g id="Layer0_0_MEMBER_1_FILL">
<path fill="#010101" stroke="none" d="
M 17.95 103.35
Q 15.55 101.15 12.75 101.85 9.95 102.5 9.25 104.6 8.5 106.7 9 107.9
L 9 107.95
Q 8.95 107.9 8.9 107.9 7.75 107.75 7.75 109.45
L 7.85 110.65
Q 8.05 111.6 8.75 111.75 8.85 112.1 9.1 112.75 9.6 114.2 9.6 114.75 9.6 115.45 9.1 116.95 8.8 117.85 8.7 118.45 7.7 118.85 6.1 119.9 3.5 121.5 0.35 123.85 -3.25 126.4 -3.25 131.7 -3.25 131.75 -3.25 132.6 -3.2 132.85 -3.15 133.05 -3.25 133.45 -3.25 133.9
L -3.25 139.65
Q -3.1 141.65 -2.45 142.15 -2.1 143.35 -1.25 144.8
L 0.25 147.25
Q 0.25 147.3 -0.05 148.75 -0.4 150.3 -0.4 150.8 -0.4 151.85 -0.25 152.05 -0.25 152.1 1.15 153.7
L 2.45 155.05
Q 2.35 155.3 2.25 155.5 1.6 156.45 1.3 157.85 1.15 158.65 0.85 160.25 -0.4 165.15 -0.4 169.85
L -0.4 170.45 -0.4 170.75 -0.55 206.35
Q -2.25 218 -1.8 227.2
L -2 227.55
Q -1.95 230.05 -5.55 233.65 -6.35 235.2 -2.7 235.55 1.5 235.95 2.1 234.9 2.1 234.75 2.15 234.6 2.55 233.3 4.8 232.05
L 4.9 228.4
Q 7.1 223.5 7.4 218.95
L 7.5 218.6
Q 8.2 202.5 10.8 184.15 11 182.6 11.2 181.1
L 13.05 181.1 14.55 217.1
Q 15.3 223.75 17.05 225.95 15.9 230 16.15 231.7 16.2 231.9 16.25 232.05 16.25 232.15 16.35 232.3 17.05 233.3 19.8 232.9 20.4 232 21.6 232.95
L 22.45 234.3
Q 29.8 236.1 31.55 234.45 31.25 231.4 27.7 230.7 26.4 230.65 25.5 230 25.15 229.6 24.95 229.25 24.5 228.25 25.2 227.3 25.9 225 24.45 223.75
L 24.45 223.55
Q 22.05 203 24.95 173.75 25.05 173.35 25.1 172.6 25.1 172.15 25.05 171.55 25.05 170 24.95 169.25
L 24.95 164.55
Q 23.9 159.35 23.8 158.25 23.75 157.65 23.35 156.65 23 155.65 22.95 155.15 22.9 154.9 22.85 154.7 23.4 153.75 23.95 151.95 23.95 151.05 23.8 150.65 23.65 150.25 23.65 149.7 23.65 149.25 25.75 148.55 28 147.85 28.3 147 28.5 146.4 28.45 145.3 28.4 144 28.45 143.75
L 29.45 137.2
Q 29.45 136.85 28.8 134.5 28.15 132.05 28.1 131.65 27.95 130.75 27.2 128.85 27.15 128.7 27.1 128.55 26.8 127.8 26.35 127.05 25.2 124.9 23.2 123.35 20.15 121.2 18.55 119.8 17.7 119.15 17.3 118.85 16.9 118.5 16.8 118.25 16.8 118.1 16.8 117.95 16.8 117.9 16.8 117.85 16.8 117.35 16.9 116.95 18.55 116.3 19.3 112.45 20.05 110.4 19.75 109.95 19.45 109.5 19.45 109.4 19.45 109.3 19.65 108.25 19.8 107.2 19.8 106.5 19.8 105.05 17.95 103.35
M 66.6 153.45
Q 66.55 153.55 66.45 153.7 64.45 151.75 64 151.35 63.5 150.6 63.2 150.15 63.1 150.05 63.05 150 62.9 149.8 62.65 149.7
L 62.6 149.65
Q 61.9 149.25 60.65 149.1 59.9 149.65 59.5 149.95 59.35 150.05 59.3 150.15 58.95 150.4 58.85 150.65 58.6 150.75 58.6 151.15
L 58.65 151.7 58.95 151.75
Q 59 151.75 59.6 151.4 60.3 151.05 60.6 151.05 61.3 151.05 62.35 152.45
L 62.1 152.5
Q 61.9 152.3 61.3 152.3 60.45 152.3 59.4 152.9 58.45 153.45 58.25 153.95
L 58.25 154.95 58.6 155.05
Q 58.8 155.05 59.5 154.65 60.2 154.2 60.35 154.2 60.6 154.2 61.75 154.3 61.9 154.45 62 154.5 61.2 154.45 60.3 155.2 59.35 156.05 59.35 156.4
L 59.4 156.55
Q 58.95 156.9 58.75 157.25
L 58.75 158.1 59.15 158.15
Q 59.45 158.15 60.2 157.2 60.95 156.3 62 156.55 62 156.75 62.9 156.8 61.4 157.7 61.25 158.55
L 61.25 159.95 61.6 160
Q 61.65 160 62.9 158.8 63.55 158.15 64 157.9 64.35 157.6 64.6 157.6 64.95 157.6 65.75 158.25 66.55 158.9 68.15 158.9 69.3 158.9 70 158.5 70.15 158.4 70.3 158.3
L 67.65 154.8
Q 67.25 154.45 66.8 154.05 66.85 153.95 66.95 153.9
L 66.6 153.45
M 38.55 165.8
L 36.8 166.75 36.5 177.2 34.85 181.65
Q 32.9 183.3 32 185.9 30.9 189 31.3 193.45 31.8 204.55 40.45 206.85 44.25 207.2 47.4 206.2
L 50.35 220.2
Q 51 223.85 49.6 226.15 47.85 229.85 44.05 231.7
L 44.3 232.8 51.95 232.5 52.8 229.55
Q 53.8 228.1 54.15 230.8
L 56.05 230.8
Q 55.65 228.05 56.55 225.3 56.8 223.65 54.65 221.1 53.65 219.75 54.1 212.7
L 54.05 212.45
Q 53.85 203.3 52.8 199.35
L 53.7 187.2
Q 56.05 187.3 58.5 187.35
L 64.3 198.85 64 200.65
Q 64.65 205.65 70.15 215.55
L 70.2 215.85
Q 72.3 222.65 71.35 224.45
L 70.55 227.2 72.05 232.1 73 232.1 73.55 228.8 78.4 234.3 86.3 234.3 86.3 233.2 83.5 232.15
Q 77.95 228.05 76.55 220.2
L 68.35 187.2
Q 68.55 187.15 68.7 187.15
L 68.5 186.95 68.5 186.8 44.45 187.25 41.05 179
Q 38.85 179.35 37.15 180.2 36.75 180.4 36.35 180.6
L 37.1 177.9 40.7 177.55 40.75 176.95 40.85 177.2 41.15 174.6 40.9 173.7 41 171.6 40.7 169.85 40.45 169.85 38.55 165.8
M 60.9 120.6
Q 61 120.55 61.05 120.45
L 61.1 120.35 61.05 120.35
Q 62.55 115.65 62.15 108.45 61 99 54.45 100.2 48.15 101.9 46.7 114.85 46.75 118.85 46.65 121.7 46.65 121.95 46.65 122.25 46.6 122.65 46.6 123 46.5 123.05 46.35 123.15 46.7 123.45 46.55 123.95 46.5 124.05 46.45 124.15 46.5 124.1 46.55 124.05 46.2 128.55 45.2 128.7 45.75 128.7 46.35 128.5
L 48.6 126.5
Q 48.9 126.05 49.2 125.55 49.45 125.15 49.7 124.75
L 51.8 133.4
Q 51.85 133.15 51.95 133 52.15 133.1 52.25 133.55
L 56.05 125.85
Q 56.65 126.9 56.75 128 56.65 128.05 56.7 128.4 56.7 128.7 56.85 129.3
L 56.7 129.2
Q 56.6 129.55 56.45 129.95 56.65 129.75 56.85 129.6 59.55 126.8 60.45 123.65 60.6 123.05 60.7 122.45 60.7 122.35 60.75 122.3
L 60.75 122.15
Q 60.75 122.1 60.8 122 60.85 121.6 60.9 121.15 60.85 121.1 60.9 121 60.75 120.85 60.75 120.8 60.75 120.7 60.9 120.6
M 108.05 91.5
Q 106.9 91.45 105.6 91.8 104.3 92.1 103.25 93 102.2 93.85 102.2 94.1 102.15 94.35 101.5 95.55 100.85 96.7 100.65 101.2 100.5 101.45 100.45 101.8
L 100.95 103.7
Q 102.15 105.7 102.55 104.95 103.9 107.2 103.7 109.7 103.7 109.95 103.65 110.25 102.65 112.45 100.15 112.5 90.9 113.45 91.5 125.2 91.3 125.8 91.25 126.5 91.25 126.7 91.25 126.9 91.25 129.35 93.2 134.2 95.1 139.05 95.1 141.55 95.1 141.8 95.1 142 95 143.4 94.5 144.8
L 93.55 150.7
Q 93.75 150.9 94 151.1 95.35 152.2 95.35 152.8 95.35 152.95 94.05 156.45 92.9 159.85 92.8 161.6 92.75 161.8 92.75 162 92.75 162.15 92.75 162.3
L 90.45 196.6 87.5 226.15
Q 85.95 228.6 89.2 232.6
L 88.3 236.2
Q 87.5 238.25 88.05 239.95 89.55 240.75 94.05 240.6 99.05 240.9 98.8 239.45 99 237.9 97.55 236.35
L 96.85 233.75
Q 101.7 229.6 98.8 227.1 96.65 226 97.65 224.15 97.75 223.9 97.95 223.65 101.45 219.35 101.15 205.9
L 101.35 203.2 101.3 203.5
Q 101.3 203.45 102.25 194.75 103.1 186 105.05 186.75
L 104.45 217.6 104.35 218.45
Q 100.6 224.65 103.4 227.25 102.9 231.55 105.1 234.6
L 108.95 234.35 108.95 232.6
Q 111.45 233.05 112.45 234.7 113.35 236 118.95 235.95 123.15 235.45 123.65 234.3 123.7 234 123.65 233.75 122.85 231.95 118.95 230.85 115.45 228.45 114.3 225.7
L 115.7 222.6 113.3 217.1
Q 118.05 205.3 118.3 184.85
L 120.7 167.6 119.45 161.7 119 152.85
Q 119.3 152.4 120.5 151.55 120.65 151.55 120.85 151.55 121 151.55 121.15 151.55
L 120.8 144.25
Q 120.7 143.95 120.65 143.65 120.65 143.15 120.65 142.8
L 120.7 142.8
Q 120.85 142.65 121 142.5 121.05 142.4 121.15 142.3
L 123.45 142.3
Q 126.25 141.75 127.85 140.65 129.3 139.6 129.3 138.45 129.3 138.1 129.2 137.85 129.3 137.15 129.3 136 129.3 135.2 129.05 133.2 128.8 131.25 128.8 130.55 128.75 129.25 128 127.7 127.9 127.45 126.4 124.9 125.75 123.85 125.05 122.05 124.3 120.35 123.65 119.3 123.1 118.35 122.85 117.85 122.35 117.05 121.75 116.45
L 121.05 115.8
Q 120.45 115.55 120.3 115.5 120.15 115.45 117.95 115.25
L 117.9 115.25
Q 116.9 114.95 115.7 114.85
L 114.35 114.8
Q 113.3 114.6 113.1 114.3 112.45 113.3 111.6 112.6 111.2 112.25 111.2 111.35
L 111.95 109.95
Q 112 110 112.05 110 112.5 110.1 113.75 106.85 114.55 103.95 114.55 103.8 114.55 102.15 114.45 101.3 114.35 101.15 114.25 101 114.3 100.5 114.3 99.9 114.3 98.55 114.35 98.25 114.4 97.9 114.05 96.6 113.65 95.25 113 94.35 112.35 93.45 110.8 92.5 109.2 91.55 108.05 91.5
M 229.1 157.1
Q 227.05 156.7 224.9 156.1 221.6 163.9 222.15 178.45
L 221.45 195.35
Q 218 209.05 217.15 225.85 217.4 225.95 217.65 226.05
L 217.15 226.05
Q 217.25 226.1 217.35 226.1 217.5 227.05 217 228.05
L 215.2 231.05
Q 214.65 231.65 215.05 232.65 215.1 232.8 215.15 232.9 215.75 234.05 220.5 232.6
L 222.15 230.2 222.25 226.5
Q 222.3 226.45 222.35 226.5
L 222.35 226.45
Q 223.05 227.05 223.9 226.7
L 224.05 226.9
Q 225.3 226.75 226.65 226.45
L 229.05 192.9 234.3 167.7 236.2 167.6 240.45 191.6 242.9 226.6 244.9 226.6 245 230.6 246.65 233
Q 246.8 233.05 247 233.1 251.45 234.45 252 233.3 252.55 232.1 251.95 231.45
L 250.15 228.45
Q 249.5 227.15 250 225.85
L 251.55 225.6 248.05 189.6 248.15 187.6
Q 248.15 187.35 248.2 187.1 249.25 165.2 246.6 155.4 244.3 156.45 241.75 157.05 235.95 158.4 229.1 157.1
M 162.2 191.75
L 164.05 170.75
Q 167.95 164.15 166.15 156.6
L 165.95 150.95
Q 167.6 140.55 164.05 122.55 157.15 121 152.9 117.2
L 153.4 113.05
Q 157.1 111.4 155.45 103.5 153.1 96.55 149.6 97.4 144.5 97.25 143.05 103.85
L 143.05 112.1 145.2 111.75
Q 146.2 114.4 145 117 139.6 122.35 134.2 124 134.95 132.7 132.25 141.45
L 132.15 142.3
Q 128.2 155.8 129.25 168.65 128.55 174.55 132.05 178 133.8 179.6 136.45 174.65
L 136.2 193.5
Q 133 205.2 133.2 216.9
L 133.45 219.95 132.8 221.6 132.65 228.45 130.65 232.1 130.8 233.95
Q 132.3 235.85 137.8 234.1
L 138.9 230.45 138.8 226.95 139.9 224.65
Q 139.9 224.55 139.95 224.45 142.5 212.9 142.95 198.25 147.3 186.85 148.9 175.4
L 150.05 174.45 155.95 198.75
Q 155.7 214.2 160.8 225.65
L 160.1 231 161.9 233.2
Q 166.4 234.3 169.55 232.95
L 169.4 230.85 167.4 228.3 167.4 218.35 166.05 217.2 166.15 214.35 165.7 214.05 162.2 191.75
M 139.45 155.75
L 136.05 154.2 139 147.5 139.45 155.75
M 160.65 151.1
L 159.15 152.45 159.1 148.1 160.65 151.1
M 210.3 122.25
Q 210.3 122.15 210.3 122.1 210.2 120.55 206 119.45 202.85 118.6 197.45 118 195.75 117.8 196 115
L 197.2 112.75 197.2 112.25
Q 198 108.6 197.4 104.65 196.8 102.75 195.85 101.65 194.85 100.55 193.55 100.15 191.4 99.5 190.15 100.25 186.8 102.5 186.8 107.75 186.95 108.4 185.9 107.9
L 186.55 111.9
Q 187 113.45 187.65 113.1 188.65 115.5 187.8 116.95
L 185.7 119.35
Q 175.1 121.3 175.3 122.5 175.45 123.7 175 125.45 174.5 127.15 174.3 128.65 174.1 130.15 174.05 130.3 173.8 130.9 173.6 131.5 171.85 135.8 169.55 139.85 168.1 144.85 169.4 146.7
L 177.15 159.85 176.8 175.95 181.85 178.8 184.3 219.1 185.75 221.75 184.4 223.35 185.9 224.2 185.9 227.95
Q 183.95 231.65 180.15 234.1
L 180.55 235.1
Q 187.1 237 190.65 232.2
L 193.65 231.7
Q 194.8 230 193.8 227.45
L 195.05 226.55
Q 196.75 229.1 196.2 231.7
L 193.05 237.05 193.05 238.85
Q 195.65 240.35 200.3 238.35
L 203.8 234.45 203.4 229.45 205.3 226.6 205.4 176.35
Q 208.6 178.55 211.8 176.9 211.35 159.7 210.9 157.5 210.65 156.2 211.7 154.45 212.5 153.15 214 151.6 217.5 147.9 219.45 141.2
L 219.55 141
Q 218.75 134.3 210.4 124.85
L 210.3 122.25
M 208.15 138.2
Q 208.65 138.45 209.15 138.8 210.65 139.8 211.6 141.6
L 208.55 145.3 208.15 138.2
M 178 147.35
L 175.65 144.1 178.4 139.35 178 147.35
M 196.2 208.45
Q 196.1 209.3 196.05 210.25 195 212.1 194.8 219.1
L 193.15 217.65 193.15 192.6
Q 196.7 199.35 196.2 208.45
M 238.5 98.95
Q 238.15 98.6 237.75 98.3 236.25 97.2 234.15 96.95 233.8 96.6 232.9 97.15 233.45 96.7 231.05 98 228.65 99.3 227.65 105.2
L 227.3 119.35 221.3 120.95 222.15 139.1
Q 221.75 138.5 221.95 138.85 223.75 142.1 227.15 142.95
L 225.05 154.2
Q 227.5 153.75 229.7 153.4 236.75 152.3 241.45 152.25 244.15 152.15 246.05 152.5
L 244.6 145.35 247.75 145.55
Q 250.3 134.05 247.65 122.85 247.7 119.85 241.4 119.35
L 240.65 103.1
Q 239.95 100.5 238.5 98.95
M 234.4 122.1
Q 234.6 122.1 234.75 122.1 237 121.8 239.3 120.65 240.05 120.2 240.85 119.7 241.5 125 239.8 128 239.5 128.5 239.15 128.95 236.1 133.7 235.55 138.45 235.45 138.05 235.4 137.7 233.5 137.2 234.05 143.2
L 229.05 142.7
Q 228.9 134.45 232.65 135.05 232.75 135.05 232.8 135.1
L 235.35 137.55
Q 234.55 134.35 233.15 131.95 232.3 130.45 231.15 129.2 228.8 126 228.45 120.35 231.15 122.2 234.4 122.1
M 240.5 138.25
Q 240.65 138.2 240.8 138.2 243.6 141 243.05 145.35 242 145.2 240.95 145.2 239.05 145.2 237.3 145.7 238.1 142.95 237.15 140.2 238.8 138.4 240.5 138.25
M 282.4 96.2
L 280.55 96
Q 275.45 97 275.15 103.1
L 274.3 103.45 274.4 107.55 275.25 107.9 275.45 110.1 275.85 110.55 275.75 113 275.8 113.35
Q 275.85 113.5 276 113.65 277.3 115.45 279.1 116.7
L 279.8 120.1 278.65 127.5 274.35 114.75
Q 270.1 117.9 262.7 120.3
L 259.95 140.5
Q 258.65 157.5 262.95 166
L 266.45 161.5 267.7 163.75 265.1 167.05
Q 265.1 167.15 265.1 167.25 264.95 192.55 268.15 201.95
L 268.15 202.75
Q 268.45 206.2 269.15 212.3 269.65 217.6 269.65 221.65 269.65 223.65 270.8 225.45 271.9 227.2 271.9 228.65 271.9 229.05 271 230.05 270.05 231.05 270.05 232.15 270.05 233.55 270.3 233.65 270.55 233.75 272.15 233.85 274.55 234.25 275.1 234.25 275.9 234.25 276.35 233.45 276.6 232.95 277.05 231.85 278 230.7 278.55 229.6 279.9 227.95 280.05 227.25 280.15 224.05 280.15 223.8 280.15 221.8 279.55 219.5 279.15 219.3 278.95 218.7
L 278.45 197.1
Q 278.45 196.9 278.5 196.75 279.1 186.2 280.65 186.15 281.35 185.6 282.25 186.25 284.45 219.15 288.75 224.3 288.75 224.4 288.8 224.55 288.85 224.95 288.85 225.4 288.85 226.35 288.8 228
L 288.8 230.35
Q 288.8 230.45 289.2 231.15 289.55 231.8 289.65 232.25 290.6 232.85 291.65 232.85 292.4 232.85 292.65 232.75 292.8 232.1 292.8 231.6
L 292.85 231.55
Q 296.05 233.1 297.3 233.7 298.55 234.25 300.9 234.25 301.4 234.25 302.15 234 303.05 233.65 303.05 233.2 303.05 232.7 300.6 230.8 298 228.85 297.8 228.25 297.5 227.35 297.5 225.95 297.5 224.8 297.15 224.35 295.75 223.25 295.35 222.85 294.8 222.35 294.8 221.3 294.8 220.7 295.05 219.85 295.45 219.95 297.2 221.8 298.9 223.6 299.4 223.6 299.6 223.6 299.9 223.25 300.15 222.9 300.15 222.7 300.15 222.45 299.95 222.1 296.8 220.8 297.65 211
L 298.05 210.85 298.3 206.05
Q 303.3 205.4 304.4 203.4 304.55 203.1 304.65 202.85 306.3 186.5 300.05 181.6
L 298.2 176.75
Q 299 172.05 298.2 167.05 296.25 165.2 294.05 167.2
L 293.9 171.4
Q 292.25 172.15 291.45 159.25
L 293.5 164.95
Q 296.4 162.15 299.2 165.3
L 296.45 130.55
Q 295.15 126.45 295.7 121
L 284.4 116.1
Q 284.3 121.8 282.5 127.45
L 281.15 120.1 281.6 116.45 283.65 114.1 284 111.45 284.8 110.75 285.65 108.1 286.8 107.85 287.05 104.75 286.5 104.25
Q 287.05 97.65 282.4 96.2
M 296.55 170.95
L 296.65 171.85
Q 296.65 172.05 295.8 173.6 295.6 174.05 295.05 174.3 294.55 174.55 294.55 174.85 294.55 175 295.4 176 296.2 176.95 296.4 177.1 296.85 177.4 297.25 178.15 297.65 178.95 297.65 179.5 297.65 180 297.4 180.45 297.1 180.95 296.65 180.95 295.45 180.95 295.2 179.9 294.95 178.9 294.2 178.15 294.1 178.05 294 177.95 293.7 177.6 293.45 176.75 293.15 175.75 293.15 175 293.15 174.15 293.7 174.15 294.5 174.1 294.9 173.35 295.35 172.65 295.5 172.3 295.8 171.65 295.8 170.95
L 296.55 170.95
M 293.2 177.4
L 293.05 177.35 293.15 177.35 293.2 177.4
M 330.55 98.15
Q 328.35 95.8 324.65 97.1 321 97 318.3 104.75 315.25 112.05 317.95 116.3 316.45 118.7 313.2 120 310.35 121.65 309.9 125.85 309.55 127.35 309.2 128.75 308.6 130.95 307.8 132.75 307.15 134.25 306.35 135.5
L 306.2 135.9
Q 305.45 138.6 305.9 141.25 306.5 144.05 307.35 146.5 309.3 152.35 312.45 156.05 311.75 162.2 312.45 167.8
L 312.45 168.05
Q 313.2 178.9 311.15 189.8 312.75 190.8 315.55 190.65 318.9 190.95 319.2 195.75 319.85 205.3 322.5 211.7
L 322.6 212.15
Q 323.6 216.9 322.4 224.8 320.7 228.05 315.55 230.2
L 315.35 231.4 322.35 231
Q 323 234.3 325.45 234.4 328.75 234.25 329.6 229.3 329.5 227.4 328.45 225.9
L 331.25 223.15
Q 333.5 220.35 328.6 216.9
L 329.35 202.3
Q 331.2 196.55 327.95 191.35 329.7 190.5 330.65 191.9 333.25 192.85 333.9 191.75 334.35 190.55 336.15 190.1 336.05 187.25 334.3 182.2 332.9 177.15 334.9 172.8 338.7 168.75 337.65 162 340.4 160 339.95 155 342.7 152.5 342.6 148.1 342.55 147.45 342.5 146.8
L 342.5 146.55
Q 343.15 141.35 343.15 136.3 343.15 130.3 342.25 124.55
L 342.25 124.3
Q 342.5 118.55 334.15 116.4 334.95 111.95 334.75 109.4 334.5 106.85 334.45 106.65 334.4 106.45 334 103.85 333.55 101.2 330.55 98.15
M 334.1 146.3
Q 333.7 145.65 333.7 145.15 333.85 144.65 334 144.3 334.2 143.6 334.3 143.35 334.5 143.55 334.95 143.65 335.35 143.7 335.55 144.1 335.65 144.3 335.7 144.55 335.75 144.65 336.15 145.25 336.2 145.4 336.35 145.6 336.9 146.6 336.9 147.15 336.55 149.25 335.9 149.25 335.7 149.25 335.25 148.35 334.85 147.45 334.8 147.4 334.35 146.7 334.1 146.3
M 313.35 138.2
Q 313.3 138.2 313.05 138.1 312.9 138.05 312.65 137.95
L 311.9 137.95 311.9 138 311.85 137.95 311.9 137.95
Q 311.95 137.6 312.45 136.6
L 312.45 136.55
Q 313 135.3 313.25 135.3 313.9 135.3 313.9 136.35 313.9 138.2 313.35 138.2
M 311.65 141.6
Q 311.65 141.15 312.1 141.15 312.6 141.15 312.9 141.5 313.1 141.7 313.6 142.5 314.05 143.15 314.35 143.5 314.4 143.6 314.4 144.45
L 314.4 144.5
Q 314.4 145.2 314.3 145.5 314.2 145.75 313.8 146.7 313.5 147.4 313.35 148.75 313.15 148.55 312.95 148.15 312.7 147.45 312.65 147.3 312.55 147 312.2 145.5 312.15 145.3 312.15 145.15 311.65 142.95 311.65 141.6 Z"/>

<path fill="#CCCCCC" stroke="none" d="
M 67.1 135.9
L 67.1 135.85 66.8 135.5
Q 65.85 136.45 65.55 138.1 65.35 139.05 65.1 140.85 64.55 142.75 63 146.25
L 63 149.9 63.05 149.9 63.15 149.95 63.35 150
Q 63.45 150 63.55 149.95 63.75 149.85 64 149.5 63.6 149.35 63.6 148 63.6 147.35 65.35 141.75 66.5 138.05 66.9 136.65 67.25 137.25 68.45 138.85 70.15 141.2 70.15 141.5 70.15 141.75 69.95 142.7 70 143.5 71.3 143.5
L 71.3 143.6
Q 71 143.8 71 144.15 71 144.2 71.25 144.5 71.5 144.85 71.5 145 71.5 145.1 70.35 146.95 69.05 148.9 68.75 149.6 68.1 150.9 66.6 153.45
L 66.95 153.9 66.95 153.85
Q 68 152.45 72.25 144.8 71.8 144.25 71.8 144.15 72 143.7 72 143.45 71.95 143.15 71.55 142.85
L 70.9 142.85
Q 70.6 142.45 70.6 142.4 70.85 141.8 70.85 141.55 70.85 140.9 68.8 137.85 67.6 136.1 67.1 135.9
M 56.7 129.2
L 56.85 129.3
Q 56.7 128.7 56.7 128.4 56.4 128.15 55.7 129.25 55.6 129.3 55.55 129.4 54.5 131.05 54.25 131.35 53.95 131.6 52.8 133.1 52.5 133.55 52.25 133.85 52.25 133.7 52.25 133.55 52.15 133.1 51.95 133 51.85 133.15 51.8 133.4 51.7 133.65 51.6 133.95 49.45 131.2 49.1 130.6 49.05 130.5 48.15 128.55 47.9 128 47.6 127.65 48.1 127.2 48.6 126.5
L 46.35 128.5
Q 46.65 128.35 47 128.1 48.25 130.65 49.7 132.9 50.5 134.1 51.05 134.8 51.15 134.9 51.3 135.05
L 50.35 168.95 40.7 169.85 41 171.6 41.05 170.95 64.45 169.8 67.9 186.4
Q 60.65 186.5 49.95 186.05 47.25 185.95 44.35 185.8
L 41.15 174.6 40.85 177.2 41.4 178.95
Q 41.2 178.95 41.05 179
L 44.45 187.25 68.5 186.8 65.7 169.75 66.5 169.7 66.5 169.75
Q 66.85 169.75 66.85 169.35 66.85 166.6 66 163.1 65.85 162.5 65.75 162 65.1 159.5 65.1 159.4 65.1 159.3 65.25 159.2 65.35 159.1 65.35 158.95
L 65.3 158.7
Q 64.7 158.35 64.55 158.8 64.45 159.05 64.5 159.35 64.5 160.55 64.95 162.3 65.2 163.35 65.6 164.55 65.9 165.5 66 167.1 66.05 167.75 66.1 168.8
L 51.3 168.45 51.6 153.2
Q 51.85 153.3 52.2 153.3 52.75 153.3 53.05 152.9 53.3 152.55 53.3 152.25 53.3 151.2 52.2 151.15 51.85 151.15 51.65 151.25
L 51.75 144.65
Q 51.95 144.7 52.2 144.7 52.75 144.7 53.05 144.25 53.3 143.9 53.3 143.55 53.3 142.4 52.2 142.4 51.95 142.4 51.8 142.45
L 51.9 136.7
Q 52.15 136.95 52.7 136.95
L 52.75 136.95
Q 53.35 136.95 53.7 136.55 53.95 136.25 53.95 135.85 53.95 134.85 52.8 134.8 52.5 134.8 52.3 134.85 52.4 134.75 52.5 134.65 53.55 133.4 55.15 131.3 55.8 130.45 56.25 129.85 56.5 129.45 56.7 129.2
M 46.1 123.25
Q 45.95 123.35 45.8 123.5 45.75 123.5 45.7 123.55 45.1 123.95 44.7 124.4 44.4 124.75 43.1 125.15 41.75 125.6 41.2 126 40.4 126.5 40 128.05 39.95 128.3 39.9 128.6 39.85 128.75 39.85 128.95 39.75 129.15 39.75 129.45
L 39.8 129.4 36.35 162.1
Q 36.3 162.1 36.3 162.05 36.2 162.5 36.05 163 35.65 164.15 35.65 164.65 35.65 165.05 35.85 165.6 36.1 166.2 36.45 166.35 36.8 166.05 36.8 165.85 36.8 165.65 36.55 165.3 36.3 165 36.3 164.7 36.3 164.5 36.7 163.85 36.9 163.5 37 163.25 37.05 163 37.05 162.9 37.05 162.6 37.05 162.35 37 162.35 36.95 162.35
L 40.45 129.15 40.5 129.15
Q 40.55 129 40.55 128.9 40.6 128.5 40.7 128.1 41 126.5 43.1 125.95 43.45 125.85 44.4 125.35 44.8 125.1 45.35 124.8
L 45.4 124.75
Q 45.8 124.5 46.1 124.35 46.25 124.2 46.45 124.15 46.5 124.05 46.55 123.95 46.7 123.45 46.35 123.15 46.25 123.15 46.1 123.25
M 61.1 120.35
L 61.05 120.45 60.95 121.1
Q 61 121.1 61.05 121.15
L 61.25 121.05 64.5 121.05
Q 64.35 121.6 65.15 122.15
L 66.35 122.15 72.7 131.9
Q 74.5 134.7 78.65 141.9 78.75 141.9 78.8 141.9 78.15 143.05 77.5 145.05 77 146.5 75.6 149.45 75.05 150.8 73.85 153.8 72.7 156.5 71.75 158.2 71.55 158 70.9 157.6 70.2 157.15 70.05 157.15 70 157.15 69.95 157.15 69.45 156.6 68.6 155.75 68.15 155.3 67.65 154.8
L 70.3 158.3
Q 70.35 158.25 70.4 158.25 70.55 158.35 70.7 158.45 71.05 158.7 71.35 158.9 71.7 159.1 71.9 159.1 72.2 159.1 73.7 155.85 75.25 152.6 75.9 150.5 76.1 149.9 77.85 145.95 78.8 143.9 79.2 142.85
L 79.2 141.85 79.1 141.85 79.1 141.45
Q 79.05 141.45 79 141.55
L 79 141.25
Q 77 137.3 73.15 131.25 66.75 121.3 66.45 121.3 66.1 121.45 65.45 121.45 65.35 121.2 65.2 120.7 65.2 120.5 64.8 120.35
L 61.1 120.35 Z"/>

<path fill="#009999" stroke="none" d="
M 61.05 120.45
Q 61 120.55 60.9 120.6 60.75 120.7 60.75 120.8 60.75 120.85 60.9 121 60.9 121.05 60.95 121.1
L 61.05 120.45 Z"/>
</g>

<path id="S_mbolo_1_0_Layer0_0_1_STROKES" stroke="#94D0D0" stroke-opacity="0.32941176470588235" stroke-width="1" stroke-linejoin="round" stroke-linecap="round" fill="none" d="
M 5.3 69.9
L 5.3 70.2"/>

<path id="Layer0_0_MEMBER_1_1_STROKES" stroke="#94D0D0" stroke-opacity="0.32941176470588235" stroke-width="1" stroke-linejoin="round" stroke-linecap="round" fill="none" d="
M -0.4 170.75
L -0.4 170.45"/>
</defs>

<g transform="matrix( 1, 0, 0, 0.7050933837890625, 0,137.9) ">
<g transform="matrix( 1, 0, 0, 1, 0,0) ">
<use filter="url(#Filter_1)" xlink:href="#S_mbolo_1_0_Layer0_0_FILL"/>

<use filter="url(#Filter_1)" xlink:href="#S_mbolo_1_0_Layer0_0_1_STROKES"/>
</g>
</g>

<g transform="matrix( 1, 0, 0, 1, 5.7,-91.5) ">
<use xlink:href="#Layer0_0_MEMBER_1_FILL"/>

<use xlink:href="#Layer0_0_MEMBER_1_1_STROKES"/>
</g>
</svg>
