<svg xmlns="http://www.w3.org/2000/svg" xmlns:xlink="http://www.w3.org/1999/xlink" preserveAspectRatio="none" width="349" height="243" viewBox="0 0 349 243"><defs><filter id="a" x="-20%" y="-20%" width="140%" height="140%" color-interpolation-filters="sRGB"><feColorMatrix in="SourceGraphic" values="0 0 0 0 0.803921568627451 0 0 0 0 0.8 0 0 0 0 0.8 0 0 0 1 0" result="result1"/></filter><g id="b"><path fill="#010101" d="M30.65 11.4q.2-.35.55-.75.9-.65 2.2-.7 3.55-.7 3.85-3.75-1.75-1.65-9.1.15L27.3 7.7q-1.2.95-1.8.05-2.75-.4-3.45.6-.1.15-.1.25-.05.15-.1.35-.25 1.7.9 5.75-1.75 2.2-2.5 8.85l-1.5 36H16.9q-.2-1.5-.4-3.05-2.6-18.35-3.3-34.45l-.1-.35q-.3-4.55-2.5-9.45l-.1-3.65Q8.25 7.35 7.85 6.05q-.05-.15-.05-.3Q7.2 4.7 3 5.1-.65 5.45.15 7q3.6 3.6 3.55 6.1l.2.35q-.45 9.2 1.25 20.85l.15 35.6V70.8q0 4.7 1.25 9.6L7 82.8q.3 1.4.95 2.35.1.2.2.45l-1.3 1.35q-1.4 1.6-1.4 1.65-.15.2-.15 1.25 0 .5.35 2.05.3 1.45.3 1.5l-1.5 2.45q-.85 1.45-1.2 2.65-.65.5-.8 2.5v5.75q0 .45.1.85-.05.2-.1.45v.9q0 5.3 3.6 7.85 3.15 2.35 5.75 3.95 1.6 1.05 2.6 1.45.1.6.4 1.5.5 1.5.5 2.2 0 .55-.5 2-.25.65-.35 1-.7.15-.9 1.1l-.1 1.2q0 1.7 1.15 1.55.05 0 .1-.05v.05q-.5 1.2.25 3.3.7 2.1 3.5 2.75 2.8.7 5.2-1.5 1.85-1.7 1.85-3.15 0-.7-.15-1.75-.2-1.05-.2-1.15 0-.1.3-.55.3-.45-.45-2.5-.75-3.85-2.4-4.5-.1-.4-.1-.9v-.1-.3q.1-.25.5-.6.4-.3 1.25-.95 1.6-1.4 4.65-3.55 2-1.55 3.15-3.7.45-.75.75-1.5l.1-.3q.75-1.9.9-2.8.05-.4.7-2.85.65-2.35.65-2.7l-1-6.55q-.05-.25 0-1.55.05-1.1-.15-1.7-.3-.85-2.55-1.55-2.1-.7-2.1-1.15 0-.55.15-.95.15-.4.15-1.3-.55-1.8-1.1-2.75.05-.2.1-.45.05-.5.4-1.5.4-1 .45-1.6.1-1.1 1.15-6.3v-4.7q.1-.75.1-2.3.05-.6.05-1.05-.05-.75-.15-1.15-2.9-29.25-.5-49.8v-.2q1.45-1.25.75-3.55-.7-.95-.25-1.95m31.9 99.65q-.2-.15-.4-.35.15.4.25.75l.15-.1q-.15.6-.15.9-.05.35.05.4-.1 1.1-.7 2.15l-3.8-7.7q-.1.45-.3.55-.1-.15-.15-.4l-2.1 8.65-.5-.8q-.3-.5-.6-.95l-2.25-2q-.6-.2-1.15-.2 1 .15 1.35 4.65l-.1-.1.1.2q.15.5-.2.8.15.1.25.15 0 .35.05.75v.55q.1 2.85.05 6.85 1.45 12.95 7.75 14.65 6.55 1.2 7.7-8.25.4-7.2-1.1-11.9h.05l-.05-.1q-.05-.1-.15-.15-.15-.1-.15-.2 0-.05.15-.2-.05-.1 0-.15-.05-.45-.1-.85-.05-.1-.05-.15v-.15q-.05-.05-.05-.15-.1-.6-.25-1.2-.9-3.15-3.6-5.95M72.5 86.6q.45-.4.85-.75l2.65-3.5-.3-.2q-.7-.4-1.85-.4-1.6 0-2.4.65-.8.65-1.15.65-.25 0-.6-.3-.45-.25-1.1-.9-1.25-1.2-1.3-1.2l-.35.05v1.4q.15.85 1.65 1.75-.9.05-.9.25-1.05.25-1.8-.65-.75-.95-1.05-.95l-.4.05v.85q.2.35.65.7l-.05.15q0 .35.95 1.2.9.75 1.7.7-.1.05-.25.2-1.15.1-1.4.1-.15 0-.85-.45-.7-.4-.9-.4l-.35.1v1q.2.5 1.15 1.05 1.05.6 1.9.6.6 0 .8-.2l.25.05Q67 89.6 66.3 89.6q-.3 0-1-.35-.6-.35-.65-.35l-.3.05-.05.55q0 .4.25.5.1.25.45.5.05.1.2.2.4.3 1.15.85 1.25-.15 1.95-.55l.05-.05q.25-.1.4-.3l.15-.15.8-1.2q.45-.4 2.45-2.35.1.15.15.25l.35-.45q-.1-.05-.15-.15m9.75-66.15q1.4-7.85 6.95-11.95L92 7.45v-1.1h-7.9l-4.85 5.5-.55-3.3h-.95l-1.5 4.9.8 2.75Q78 18 75.9 24.8l-.05.3Q70.35 35 69.7 40l.3 1.8-5.8 11.5q-2.45.05-4.8.15l-.9-12.15q1.05-3.95 1.25-13.1l.05-.25q-.45-7.05.55-8.4 2.15-2.55 1.9-4.2-.9-2.75-.5-5.5h-1.9q-.35 2.7-1.35 1.25l-.85-2.95-7.65-.3-.25 1.1q3.8 1.85 5.55 5.55 1.4 2.3.75 5.95l-2.95 14q-3.15-1-6.95-.65Q37.5 36.1 37 47.2q-.4 4.45.7 7.55.9 2.6 2.85 4.25l1.65 4.45.3 10.45 1.75.95 1.9-4.05h.25l.3-1.75-.1-2.1.25-.9-.3-2.6-.1.25-.05-.6-3.6-.35-.75-2.7.8.4q1.7.85 3.9 1.2l3.4-8.25 24.05.45v-.15l.2-.2q-.15 0-.35-.05l8.2-33m47.1-13.55q.05-.25 0-.55-.5-1.15-4.7-1.65-5.6-.05-6.5 1.25-1 1.65-3.5 2.1V6.3l-3.85-.25q-2.2 3.05-1.7 7.35-2.8 2.6.95 8.8l.1.85.6 30.85q-1.95.75-2.8-8-.95-8.7-.95-8.75l.05.3-.2-2.7q.3-13.45-3.2-17.75-.2-.25-.3-.5-1-1.85 1.15-2.95 2.9-2.5-1.95-6.65l.7-2.6q1.45-1.55 1.25-3.1.25-1.45-4.75-1.15-4.5-.15-6 .65-.55 1.7.25 3.75l.9 3.6q-3.25 4-1.7 6.45l2.95 29.55 2.3 34.3v.3q0 .2.05.4.1 1.75 1.25 5.15 1.3 3.5 1.3 3.65 0 .6-1.35 1.7-.25.2-.45.4l.95 5.9q.5 1.4.6 2.8v.45q0 2.5-1.9 7.35-1.95 4.85-1.95 7.3v.4q.05.7.25 1.3-.6 11.75 8.65 12.7 2.5.05 3.5 2.25.05.3.05.55.2 2.5-1.15 4.75-.4-.75-1.6 1.25l-.5 1.9q.05.35.2.6.2 4.5.85 5.65.65 1.2.7 1.45 0 .25 1.05 1.1 1.05.9 2.35 1.2 1.3.35 2.45.3 1.15-.05 2.75-1 1.55-.95 2.2-1.85.65-.9 1.05-2.25.35-1.3.3-1.65-.05-.3-.05-1.65 0-.6-.05-1.1l.2-.3q.1-.85.1-2.5 0-.15-.8-3.05-1.25-3.25-1.7-3.15-.05 0-.1.05l-.75-1.4q0-.9.4-1.25.85-.7 1.5-1.7.2-.3 1.25-.5l1.35-.05q1.2-.1 2.2-.4h.05q2.2-.2 2.35-.25.15-.05.75-.3l.7-.65q.6-.6 1.1-1.4.25-.5.8-1.45.65-1.05 1.4-2.75.7-1.8 1.35-2.85 1.5-2.55 1.6-2.8.75-1.55.8-2.85 0-.7.25-2.65.25-2 .25-2.8 0-1.15-.1-1.85.1-.25.1-.6 0-1.15-1.45-2.2-1.6-1.1-4.4-1.65h-2.3q-.1-.1-.15-.2l-.3-.3h-.05V97q.05-.3.15-.6l.35-7.3H126.2q-1.2-.85-1.5-1.3l.45-8.85 1.25-5.9L124 55.8q-.25-20.45-5-32.25l2.4-5.5-1.4-3.1q1.15-2.75 4.65-5.15 3.9-1.1 4.7-2.9m43.75 15.4v-9.95l2-2.55.15-2.1q-3.15-1.35-7.65-.25l-1.8 2.2.7 5.35q-5.1 11.45-4.85 26.9l-5.9 24.3-1.15-.95Q153 53.8 148.65 42.4q-.45-14.65-3-26.2-.05-.1-.05-.2l-1.1-2.3.1-3.5-1.1-3.65q-5.5-1.75-7 .15l-.15 1.85 2 3.65.15 6.85.65 1.65-.25 3.05q-.2 11.7 3 23.4l.25 18.85q-2.65-4.95-4.4-3.35-3.5 3.45-2.8 9.35-1.05 12.85 2.9 26.35l.1.85q2.7 8.75 1.95 17.45 5.4 1.65 10.8 7 1.2 2.6.2 5.25l-2.15-.35v8.25q1.45 6.6 6.55 6.45 3.5.85 5.85-6.1 1.65-7.9-2.05-9.55l-.5-4.15q4.25-3.8 11.15-5.35 3.55-18 1.9-28.4l.2-5.65q1.8-7.55-2.1-14.15l-1.85-21 3.5-22.3.45-.3-.1-2.85 1.35-1.15m-8.3 70.25l.05-4.35 1.5 1.35-1.55 3m-20.1.6l-2.95-6.7 3.4-1.55-.45 8.25m64.4-81.95l.4-5-3.5-3.9q-4.65-2-7.25-.5v1.8l3.15 5.35q.55 2.6-1.15 5.15l-1.25-.9q1-2.55-.15-4.25l-3-.5q-3.55-4.8-10.1-2.9l-.4 1q3.8 2.45 5.75 6.15v3.75l-1.5.85 1.35 1.6-1.45 2.65-2.45 40.3-5.05 2.85.35 16.1-7.75 13.15q-1.3 1.85.15 6.85 2.3 4.05 4.05 8.35.2.6.45 1.2.05.15.25 1.65t.7 3.2q.45 1.75.3 2.95-.2 1.2 10.4 3.15l2.1 2.4q.85 1.45-.15 3.85-.65-.35-1.1 1.2l-.65 4q1.05-.5.9.15 0 5.25 3.35 7.5 1.25.75 3.4.1 1.3-.4 2.3-1.5.95-1.1 1.55-3 .6-3.95-.2-7.6v-.5l-1.2-2.25q-.25-2.8 1.45-3 5.4-.6 8.55-1.45 4.2-1.1 4.3-2.65v-.15l.1-2.6q8.35-9.45 9.15-16.15l-.1-.2q-1.95-6.7-5.45-10.4-1.5-1.55-2.3-2.85-1.05-1.75-.8-3.05.45-2.2.9-19.4-3.2-1.65-6.4.55l-.1-50.25-1.9-2.85M198.85 23l1.65-1.45q.2 7 1.25 8.85.05.95.15 1.8.5 9.1-3.05 15.85V23m-17.5 73.55l2.35-3.25.4 8-2.75-4.75m33.5 5.3q-.5.35-1 .6l.4-7.1 3.05 3.7q-.95 1.8-2.45 2.8m38.6-6.75l-3.15.2 1.45-7.15q-1.9.35-4.6.25-4.7-.05-11.75-1.15-2.2-.35-4.65-.8l2.1 11.25q-3.4.85-5.2 4.1-.2.35.2-.25L227 119.7l6 1.6.35 14.15q1 5.9 3.4 7.2 2.4 1.3 1.85.85.9.55 1.25.2 2.1-.25 3.6-1.35.4-.3.75-.65 1.45-1.55 2.15-4.15l.75-16.25q6.3-.5 6.25-3.5 2.65-11.2.1-22.7m-6.8.35q1.05 0 2.1-.15.55 4.35-2.25 7.15-.15 0-.3-.05-1.7-.15-3.35-1.95.95-2.75.15-5.5 1.75.5 3.65.5m-11.9 2.5l5-.5q-.55 6 1.35 5.5.05-.35.15-.75.55 4.75 3.6 9.5.35.45.65.95 1.7 3 1.05 8.3-.8-.5-1.55-.95-2.3-1.15-4.55-1.45h-.35q-3.25-.1-5.95 1.75.35-5.65 2.7-8.85 1.15-1.25 2-2.75 1.4-2.4 2.2-5.6l-2.55 2.45q-.05.05-.15.05-3.75.6-3.6-7.65m21.1-85.75l1.8-3q.6-.65.05-1.85-.55-1.15-5 .2-.2.05-.35.1l-1.65 2.4-.1 4h-2l-2.45 35-4.25 24-1.9-.1-5.25-25.2-2.4-33.55q-1.35-.3-2.6-.45l-.15.2q-.85-.35-1.55.25v-.05q-.05.05-.1 0l-.1-3.7-1.65-2.4q-4.75-1.45-5.35-.3-.05.1-.1.25-.4 1 .15 1.6l1.8 3q.5 1 .35 1.95-.1 0-.2.05h.5l-.5.2q.85 16.8 4.3 30.5l.7 16.9q-.55 14.55 2.75 22.35 2.15-.6 4.2-1 6.85-1.3 12.65.05 2.55.6 4.85 1.65 2.65-9.8 1.6-31.7-.05-.25-.05-.5l-.1-2 3.5-36-1.55-.25q-.5-1.3.15-2.6m52-5.55q-.75-.25-1.25-.25-2.35 0-3.6.55-1.25.6-4.45 2.15l-.05-.05q0-.5-.15-1.15-.25-.1-1-.1-1.05 0-2 .6-.1.45-.45 1.1-.4.7-.4.8v2.35q.05 1.65.05 2.6 0 .45-.05.85-.05.15-.05.25-4.3 5.15-6.5 38.05-.9.65-1.6.1-1.55-.05-2.15-10.6-.05-.15-.05-.35l.5-21.6q.2-.6.6-.8.6-2.3.6-4.3 0-.25-.1-3.45-.15-.7-1.5-2.35-.55-1.1-1.5-2.25-.45-1.1-.7-1.6-.45-.8-1.25-.8-.55 0-2.95.4-1.6.1-1.85.2t-.25 1.5q0 1.1.95 2.1.9 1 .9 1.4 0 1.45-1.1 3.2-1.15 1.8-1.15 3.8 0 4.05-.5 9.35-.7 6.1-1 9.55v.8q-3.2 9.4-3.05 34.7v.2l2.6 3.3-1.25 2.25-3.5-4.5q-4.3 8.5-3 25.5l2.75 20.2q7.4 2.4 11.65 5.55l4.3-12.75 1.15 7.4-.7 3.4q-1.8 1.25-3.1 3.05-.15.15-.2.3l-.05.35.1 2.45-.4.45-.2 2.2-.85.35-.1 4.1.85.35q.3 6.1 5.4 7.1l1.85-.2q4.65-1.45 4.1-8.05l.55-.5-.25-3.1-1.15-.25-.85-2.65-.8-.7-.35-2.65-2.05-2.35-.45-3.65 1.35-7.35q1.8 5.65 1.9 11.35l11.3-4.9q-.55-5.45.75-9.55l2.75-34.75q-2.8 3.15-5.7.35l-2.05 5.7q.8-12.9 2.45-12.15l.15 4.2q2.2 2 4.15.15.8-5 0-9.7l1.85-4.85q6.25-4.9 4.6-21.25-.1-.25-.25-.55-1.1-2-6.1-2.65l-.25-4.8-.4-.15q-.85-9.8 2.3-11.1.2-.35.2-.6 0-.2-.25-.55-.3-.35-.5-.35-.5 0-2.2 1.8-1.75 1.85-2.15 1.95-.25-.85-.25-1.45 0-1.05.55-1.55.4-.4 1.8-1.5.35-.45.35-1.6 0-1.4.3-2.3.2-.6 2.8-2.55 2.45-1.9 2.45-2.4 0-.45-.9-.8M303.1 60.2q.25.45.25.95 0 .55-.4 1.35-.4.75-.85 1.05-.2.15-1 1.1-.85 1-.85 1.15 0 .3.5.55.55.25.75.7.85 1.55.85 1.75l-.1.9h-.75q0-.7-.3-1.35-.15-.35-.6-1.05-.4-.75-1.2-.8-.55 0-.55-.85 0-.75.3-1.75.25-.85.55-1.2l.2-.2q.75-.75 1-1.75.25-1.05 1.45-1.05.45 0 .75.5m28.05-53.95q-2.45.1-3.1 3.4l-7-.4.2 1.2q5.15 2.15 6.85 5.4 1.2 7.9.2 12.65l-.1.45q-2.65 6.4-3.3 15.95-.3 4.8-3.65 5.1-2.8-.15-4.4.85 2.05 10.9 1.3 21.75v.25q-.7 5.6 0 11.75-3.15 3.7-5.1 9.55-.85 2.45-1.45 5.25-.45 2.65.3 5.35l.15.4q.8 1.25 1.45 2.75.8 1.8 1.4 4 .35 1.4.7 2.9.45 4.2 3.3 5.85 3.25 1.3 4.75 3.7-2.7 4.25.35 11.55 2.7 7.75 6.35 7.65 3.7 1.3 5.9-1.05 3-3.05 3.45-5.7.4-2.6.45-2.8.05-.2.3-2.75.2-2.55-.6-7 8.35-2.15 8.1-7.9v-.25q.9-5.75.9-11.75 0-5.05-.65-10.25v-.25l.1-1.3q.1-4.4-2.65-6.9.45-5-2.3-7 1.05-6.75-2.75-10.8-2-4.35-.6-9.4 1.75-5.05 1.85-7.9-1.8-.45-2.25-1.65-.65-1.1-3.25-.15-.95 1.4-2.7.55 3.25-5.2 1.4-10.95l-.75-14.6q4.9-3.45 2.65-6.25l-2.8-2.75q1.05-1.5 1.15-3.4-.85-4.95-4.15-5.1m9.8 86.05q.45-.9.65-.9.65 0 1 2.1 0 .55-.55 1.55-.15.2-.2.35-.4.6-.45.7-.05.25-.15.45-.2.4-.6.45-.45.1-.65.3-.1-.25-.3-.95-.15-.35-.3-.85 0-.5.4-1.15.25-.4.7-1.1.05-.05.45-.95m-23.1 3.2q0-.15.05-.35.35-1.5.45-1.8.05-.15.3-.85.2-.4.4-.6.15 1.35.45 2.05.4.95.5 1.2.1.3.1 1v.05q0 .85-.05.95-.3.35-.75 1-.5.8-.7 1-.3.35-.8.35-.45 0-.45-.45 0-1.35.5-3.55m1.2 6.95q.55 0 .55 1.85 0 1.05-.65 1.05-.25 0-.8-1.25v-.05q-.5-1-.55-1.35h-.05l.05-.05v.05h.75q.25-.1.4-.15.25-.1.3-.1z"/><path fill="#099" d="M66.65 119.55q-.05.05-.05.1-.15.15-.15.2 0 .1.15.2.1.05.15.15l-.1-.65z"/><path fill="#CCC" d="M69.3 92.65q0-1.35.4-1.5-.25-.35-.45-.45-.1-.05-.2-.05l-.2.05-.1.05h-.05v3.65q1.55 3.5 2.1 5.4.25 1.8.45 2.75.3 1.65 1.25 2.6l.3-.35v-.05q.5-.2 1.7-1.95 2.05-3.05 2.05-3.7 0-.25-.25-.85 0-.05.3-.45h.65q.4-.3.45-.6 0-.25-.2-.7 0-.1.45-.65-4.25-7.65-5.3-9.05v-.05l-.35.45q1.5 2.55 2.15 3.85.3.7 1.6 2.65 1.15 1.85 1.15 1.95 0 .15-.25.5-.25.3-.25.35 0 .35.3.55v.1q-1.3 0-1.35.8.2.95.2 1.2 0 .3-1.7 2.65-1.2 1.6-1.55 2.2-.4-1.4-1.55-5.1-1.75-5.6-1.75-6.25m-27.75-17.6q-.2.55-.2.95 0 .5.4 1.65.15.5.25.95 0-.05.05-.05l3.45 32.7-.05-.05q0 .3.1.5 0 .2.05.35.05.3.1.55.4 1.55 1.2 2.05.55.4 1.9.85 1.3.4 1.6.75.4.45 1 .85.05.05.1.05.15.15.3.25t.25.1q.35-.3.2-.8l-.1-.2q-.2-.05-.35-.2-.3-.15-.7-.4l-.05-.05q-.55-.3-.95-.55-.95-.5-1.3-.6-2.1-.55-2.4-2.15-.1-.4-.15-.8 0-.1-.05-.25h-.05l-3.5-33.2h.1v-.55q0-.1-.05-.35-.1-.25-.3-.6-.4-.65-.4-.85 0-.3.25-.6.25-.35.25-.55 0-.2-.35-.5-.35.15-.6.75m30.65-4.1l-.8-.05 2.8-17.05-24.05-.45-3.4 8.25q.15.05.35.05l-.55 1.75.3 2.6 3.2-11.2q2.9-.15 5.6-.25 10.7-.45 17.95-.35l-3.45 16.6-23.4-1.15-.05-.65-.3 1.75 9.65.9.95 33.9-.25.25q-.55.7-1.35 1.9-1.45 2.25-2.7 4.8-.35-.25-.65-.4l2.25 2q-.5-.7-1-1.15.3-.35.55-.9.9-1.95.95-2.05.35-.6 2.5-3.35.1.3.2.55.05.25.15.4.2-.1.3-.55v-.3q.25.3.55.75 1.15 1.5 1.45 1.75.25.3 1.3 1.95.05.1.15.15.7 1.1 1 .85 0-.3.15-.9l-.15.1q-.2-.25-.45-.65-.45-.6-1.1-1.45-1.6-2.1-2.65-3.35l-.2-.2q.2.05.5.05 1.15-.05 1.15-1.05 0-.4-.25-.7-.35-.4-.95-.4h-.05q-.55 0-.8.25l-.1-5.75q.15.05.4.05 1.1 0 1.1-1.15 0-.35-.25-.7-.3-.45-.85-.45-.25 0-.45.05l-.1-6.6q.2.1.55.1 1.1-.05 1.1-1.1 0-.3-.25-.65-.3-.4-.85-.4-.35 0-.6.1L57 72.2l14.8-.35q-.05 1.05-.1 1.7-.1 1.6-.4 2.55-.4 1.2-.65 2.25-.45 1.75-.45 2.95-.05.3.05.55.15.45.75.1l.05-.25q0-.15-.1-.25-.15-.1-.15-.2t.65-2.6q.1-.5.25-1.1.85-3.5.85-6.25 0-.4-.35-.4v.05M84.8 98.8h.1v-1q-.4-1.05-1.35-3.1-1.75-3.95-1.95-4.55-.65-2.1-2.2-5.35-1.5-3.25-1.8-3.25-.2 0-.55.2-.3.2-.65.45l-.3.2q-.05 0-.1-.05l-2.65 3.5.95-.95q.85-.85 1.35-1.4h.1q.15 0 .85-.45.65-.4.85-.6.95 1.7 2.1 4.4 1.2 3 1.75 4.35 1.4 2.95 1.9 4.4.65 2 1.3 3.15h-.15q-4.15 7.2-5.95 10l-6.35 9.75h-1.2q-.8.55-.65 1.1h-3.25l-.2-.1q-.05.05-.1.05l.1.65.05.1h3.7q.4-.15.4-.35.15-.5.25-.75.65 0 1 .15.3 0 6.7-9.95 3.85-6.05 5.85-10v-.3q.05.1.1.1v-.4z"/></g><g id="d"><path fill="#010101" d="M17.95 103.35q-2.4-2.2-5.2-1.5-2.8.65-3.5 2.75-.75 2.1-.25 3.3v.05q-.05-.05-.1-.05-1.15-.15-1.15 1.55l.1 1.2q.2.95.9 1.1.1.35.35 1 .5 1.45.5 2 0 .7-.5 2.2-.3.9-.4 1.5-1 .4-2.6 1.45-2.6 1.6-5.75 3.95-3.6 2.55-3.6 7.85v.9q.05.25.1.45-.1.4-.1.85v5.75q.15 2 .8 2.5.35 1.2 1.2 2.65l1.5 2.45q0 .05-.3 1.5-.35 1.55-.35 2.05 0 1.05.15 1.25 0 .05 1.4 1.65l1.3 1.35q-.1.25-.2.45-.65.95-.95 2.35l-.45 2.4q-1.25 4.9-1.25 9.6V170.75l-.15 35.6Q-2.25 218-1.8 227.2l-.2.35q.05 2.5-3.55 6.1-.8 1.55 2.85 1.9 4.2.4 4.8-.65 0-.15.05-.3.4-1.3 2.65-2.55l.1-3.65q2.2-4.9 2.5-9.45l.1-.35q.7-16.1 3.3-34.45.2-1.55.4-3.05h1.85l1.5 36q.75 6.65 2.5 8.85-1.15 4.05-.9 5.75.05.2.1.35 0 .1.1.25.7 1 3.45.6.6-.9 1.8.05l.85 1.35q7.35 1.8 9.1.15-.3-3.05-3.85-3.75-1.3-.05-2.2-.7-.35-.4-.55-.75-.45-1 .25-1.95.7-2.3-.75-3.55v-.2q-2.4-20.55.5-49.8.1-.4.15-1.15 0-.45-.05-1.05 0-1.55-.1-2.3v-4.7q-1.05-5.2-1.15-6.3-.05-.6-.45-1.6-.35-1-.4-1.5-.05-.25-.1-.45.55-.95 1.1-2.75 0-.9-.15-1.3t-.15-.95q0-.45 2.1-1.15 2.25-.7 2.55-1.55.2-.6.15-1.7-.05-1.3 0-1.55l1-6.55q0-.35-.65-2.7-.65-2.45-.7-2.85-.15-.9-.9-2.8l-.1-.3q-.3-.75-.75-1.5-1.15-2.15-3.15-3.7-3.05-2.15-4.65-3.55-.85-.65-1.25-.95-.4-.35-.5-.6v-.3-.1q0-.5.1-.9 1.65-.65 2.4-4.5.75-2.05.45-2.5-.3-.45-.3-.55 0-.1.2-1.15.15-1.05.15-1.75 0-1.45-1.85-3.15m48.65 50.1q-.05.1-.15.25-2-1.95-2.45-2.35l-.8-1.2-.15-.15q-.15-.2-.4-.3l-.05-.05q-.7-.4-1.95-.55-.75.55-1.15.85-.15.1-.2.2-.35.25-.45.5-.25.1-.25.5l.05.55.3.05q.05 0 .65-.35.7-.35 1-.35.7 0 1.75 1.4l-.25.05q-.2-.2-.8-.2-.85 0-1.9.6-.95.55-1.15 1.05v1l.35.1q.2 0 .9-.4.7-.45.85-.45.25 0 1.4.1.15.15.25.2-.8-.05-1.7.7-.95.85-.95 1.2l.05.15q-.45.35-.65.7v.85l.4.05q.3 0 1.05-.95.75-.9 1.8-.65 0 .2.9.25-1.5.9-1.65 1.75v1.4l.35.05q.05 0 1.3-1.2.65-.65 1.1-.9.35-.3.6-.3.35 0 1.15.65.8.65 2.4.65 1.15 0 1.85-.4l.3-.2-2.65-3.5q-.4-.35-.85-.75.05-.1.15-.15l-.35-.45M38.55 165.8l-1.75.95-.3 10.45-1.65 4.45Q32.9 183.3 32 185.9q-1.1 3.1-.7 7.55.5 11.1 9.15 13.4 3.8.35 6.95-.65l2.95 14q.65 3.65-.75 5.95-1.75 3.7-5.55 5.55l.25 1.1 7.65-.3.85-2.95q1-1.45 1.35 1.25h1.9q-.4-2.75.5-5.5.25-1.65-1.9-4.2-1-1.35-.55-8.4l-.05-.25q-.2-9.15-1.25-13.1l.9-12.15q2.35.1 4.8.15l5.8 11.5-.3 1.8q.65 5 6.15 14.9l.05.3q2.1 6.8 1.15 8.6l-.8 2.75 1.5 4.9H73l.55-3.3 4.85 5.5h7.9v-1.1l-2.8-1.05q-5.55-4.1-6.95-11.95l-8.2-33q.2-.05.35-.05l-.2-.2v-.15l-24.05.45-3.4-8.25q-2.2.35-3.9 1.2l-.8.4.75-2.7 3.6-.35.05-.6.1.25.3-2.6-.25-.9.1-2.1-.3-1.75h-.25l-1.9-4.05m22.35-45.2q.1-.05.15-.15l.05-.1h-.05q1.5-4.7 1.1-11.9Q61 99 54.45 100.2q-6.3 1.7-7.75 14.65.05 4-.05 6.85v.55q-.05.4-.05.75-.1.05-.25.15.35.3.2.8l-.1.2.1-.1q-.35 4.5-1.35 4.65.55 0 1.15-.2l2.25-2q.3-.45.6-.95l.5-.8 2.1 8.65q.05-.25.15-.4.2.1.3.55l3.8-7.7q.6 1.05.7 2.15-.1.05-.05.4 0 .3.15.9l-.15-.1q-.1.35-.25.75.2-.2.4-.35 2.7-2.8 3.6-5.95.15-.6.25-1.2 0-.1.05-.15v-.15q0-.05.05-.15.05-.4.1-.85-.05-.05 0-.15-.15-.15-.15-.2 0-.1.15-.2m47.15-29.1q-1.15-.05-2.45.3-1.3.3-2.35 1.2-1.05.85-1.05 1.1-.05.25-.7 1.45-.65 1.15-.85 5.65-.15.25-.2.6l.5 1.9q1.2 2 1.6 1.25 1.35 2.25 1.15 4.75 0 .25-.05.55-1 2.2-3.5 2.25-9.25.95-8.65 12.7-.2.6-.25 1.3v.4q0 2.45 1.95 7.3 1.9 4.85 1.9 7.35v.45q-.1 1.4-.6 2.8l-.95 5.9q.2.2.45.4 1.35 1.1 1.35 1.7 0 .15-1.3 3.65-1.15 3.4-1.25 5.15-.05.2-.05.4v.3l-2.3 34.3-2.95 29.55q-1.55 2.45 1.7 6.45l-.9 3.6q-.8 2.05-.25 3.75 1.5.8 6 .65 5 .3 4.75-1.15.2-1.55-1.25-3.1l-.7-2.6q4.85-4.15 1.95-6.65-2.15-1.1-1.15-2.95.1-.25.3-.5 3.5-4.3 3.2-17.75l.2-2.7-.05.3q0-.05.95-8.75.85-8.75 2.8-8l-.6 30.85-.1.85q-3.75 6.2-.95 8.8-.5 4.3 1.7 7.35l3.85-.25v-1.75q2.5.45 3.5 2.1.9 1.3 6.5 1.25 4.2-.5 4.7-1.65.05-.3 0-.55-.8-1.8-4.7-2.9-3.5-2.4-4.65-5.15l1.4-3.1-2.4-5.5q4.75-11.8 5-32.25l2.4-17.25-1.25-5.9-.45-8.85q.3-.45 1.5-1.3H121.15l-.35-7.3q-.1-.3-.15-.6v-.85h.05l.3-.3q.05-.1.15-.2h2.3q2.8-.55 4.4-1.65 1.45-1.05 1.45-2.2 0-.35-.1-.6.1-.7.1-1.85 0-.8-.25-2.8-.25-1.95-.25-2.65-.05-1.3-.8-2.85-.1-.25-1.6-2.8-.65-1.05-1.35-2.85-.75-1.7-1.4-2.75-.55-.95-.8-1.45-.5-.8-1.1-1.4l-.7-.65q-.6-.25-.75-.3-.15-.05-2.35-.25h-.05q-1-.3-2.2-.4l-1.35-.05q-1.05-.2-1.25-.5-.65-1-1.5-1.7-.4-.35-.4-1.25l.75-1.4q.05.05.1.05.45.1 1.7-3.15.8-2.9.8-3.05 0-1.65-.1-2.5l-.2-.3q.05-.5.05-1.1 0-1.35.05-1.65.05-.35-.3-1.65-.4-1.35-1.05-2.25-.65-.9-2.2-1.85-1.6-.95-2.75-1m121.05 65.6q-2.05-.4-4.2-1-3.3 7.8-2.75 22.35l-.7 16.9q-3.45 13.7-4.3 30.5l.5.2h-.5q.1.05.2.05.15.95-.35 1.95l-1.8 3q-.55.6-.15 1.6.05.15.1.25.6 1.15 5.35-.3l1.65-2.4.1-3.7q.05-.05.1 0v-.05q.7.6 1.55.25l.15.2q1.25-.15 2.6-.45l2.4-33.55 5.25-25.2 1.9-.1 4.25 24 2.45 35h2l.1 4 1.65 2.4q.15.05.35.1 4.45 1.35 5 .2.55-1.2-.05-1.85l-1.8-3q-.65-1.3-.15-2.6l1.55-.25-3.5-36 .1-2q0-.25.05-.5 1.05-21.9-1.6-31.7-2.3 1.05-4.85 1.65-5.8 1.35-12.65.05m-66.9 34.65l1.85-21q3.9-6.6 2.1-14.15l-.2-5.65q1.65-10.4-1.9-28.4-6.9-1.55-11.15-5.35l.5-4.15q3.7-1.65 2.05-9.55-2.35-6.95-5.85-6.1-5.1-.15-6.55 6.45v8.25l2.15-.35q1 2.65-.2 5.25-5.4 5.35-10.8 7 .75 8.7-1.95 17.45l-.1.85q-3.95 13.5-2.9 26.35-.7 5.9 2.8 9.35 1.75 1.6 4.4-3.35l-.25 18.85q-3.2 11.7-3 23.4l.25 3.05-.65 1.65-.15 6.85-2 3.65.15 1.85q1.5 1.9 7 .15l1.1-3.65-.1-3.5 1.1-2.3q0-.1.05-.2 2.55-11.55 3-26.2 4.35-11.4 5.95-22.85l1.15-.95 5.9 24.3q-.25 15.45 4.85 26.9l-.7 5.35 1.8 2.2q4.5 1.1 7.65-.25l-.15-2.1-2-2.55v-9.95l-1.35-1.15.1-2.85-.45-.3-3.5-22.3m-22.75-36l-3.4-1.55 2.95-6.7.45 8.25m21.2-4.65l-1.5 1.35-.05-4.35 1.55 3m49.65-28.85v-.15q-.1-1.55-4.3-2.65-3.15-.85-8.55-1.45-1.7-.2-1.45-3l1.2-2.25v-.5q.8-3.65.2-7.6-.6-1.9-1.55-3-1-1.1-2.3-1.5-2.15-.65-3.4.1-3.35 2.25-3.35 7.5.15.65-.9.15l.65 4q.45 1.55 1.1 1.2 1 2.4.15 3.85l-2.1 2.4q-10.6 1.95-10.4 3.15.15 1.2-.3 2.95-.5 1.7-.7 3.2-.2 1.5-.25 1.65-.25.6-.45 1.2-1.75 4.3-4.05 8.35-1.45 5-.15 6.85l7.75 13.15-.35 16.1 5.05 2.85 2.45 40.3 1.45 2.65-1.35 1.6 1.5.85v3.75q-1.95 3.7-5.75 6.15l.4 1q6.55 1.9 10.1-2.9l3-.5q1.15-1.7.15-4.25l1.25-.9q1.7 2.55 1.15 5.15l-3.15 5.35v1.8q2.6 1.5 7.25-.5l3.5-3.9-.4-5 1.9-2.85.1-50.25q3.2 2.2 6.4.55-.45-17.2-.9-19.4-.25-1.3.8-3.05.8-1.3 2.3-2.85 3.5-3.7 5.45-10.4l.1-.2q-.8-6.7-9.15-16.15l-.1-2.6m-2.15 15.95q.5.25 1 .6 1.5 1 2.45 2.8l-3.05 3.7-.4-7.1M178 147.35l-2.35-3.25 2.75-4.75-.4 8m18.2 61.1q-.1.85-.15 1.8-1.05 1.85-1.25 8.85l-1.65-1.45V192.6q3.55 6.75 3.05 15.85m42.3-109.5q-.35-.35-.75-.65-1.5-1.1-3.6-1.35-.35-.35-1.25.2.55-.45-1.85.85-2.4 1.3-3.4 7.2l-.35 14.15-6 1.6.85 18.15q-.4-.6-.2-.25 1.8 3.25 5.2 4.1l-2.1 11.25q2.45-.45 4.65-.8 7.05-1.1 11.75-1.15 2.7-.1 4.6.25l-1.45-7.15 3.15.2q2.55-11.5-.1-22.7.05-3-6.25-3.5l-.75-16.25q-.7-2.6-2.15-4.15m-4.1 23.15h.35q2.25-.3 4.55-1.45.75-.45 1.55-.95.65 5.3-1.05 8.3-.3.5-.65.95-3.05 4.75-3.6 9.5-.1-.4-.15-.75-1.9-.5-1.35 5.5l-5-.5q-.15-8.25 3.6-7.65.1 0 .15.05l2.55 2.45q-.8-3.2-2.2-5.6-.85-1.5-2-2.75-2.35-3.2-2.7-8.85 2.7 1.85 5.95 1.75m6.1 16.15q.15-.05.3-.05 2.8 2.8 2.25 7.15-1.05-.15-2.1-.15-1.9 0-3.65.5.8-2.75-.15-5.5 1.65-1.8 3.35-1.95m41.9-42.05l-1.85-.2q-5.1 1-5.4 7.1l-.85.35.1 4.1.85.35.2 2.2.4.45-.1 2.45.05.35q.05.15.2.3 1.3 1.8 3.1 3.05l.7 3.4-1.15 7.4-4.3-12.75q-4.25 3.15-11.65 5.55l-2.75 20.2q-1.3 17 3 25.5l3.5-4.5 1.25 2.25-2.6 3.3v.2q-.15 25.3 3.05 34.7v.8q.3 3.45 1 9.55.5 5.3.5 9.35 0 2 1.15 3.8 1.1 1.75 1.1 3.2 0 .4-.9 1.4-.95 1-.95 2.1 0 1.4.25 1.5.25.1 1.85.2 2.4.4 2.95.4.8 0 1.25-.8.25-.5.7-1.6.95-1.15 1.5-2.25 1.35-1.65 1.5-2.35.1-3.2.1-3.45 0-2-.6-4.3-.4-.2-.6-.8l-.5-21.6q0-.2.05-.35.6-10.55 2.15-10.6.7-.55 1.6.1 2.2 32.9 6.5 38.05 0 .1.05.25.05.4.05.85 0 .95-.05 2.6v2.35q0 .1.4.8.35.65.45 1.1.95.6 2 .6.75 0 1-.1.15-.65.15-1.15l.05-.05q3.2 1.55 4.45 2.15 1.25.55 3.6.55.5 0 1.25-.25.9-.35.9-.8 0-.5-2.45-2.4-2.6-1.95-2.8-2.55-.3-.9-.3-2.3 0-1.15-.35-1.6-1.4-1.1-1.8-1.5-.55-.5-.55-1.55 0-.6.25-1.45.4.1 2.15 1.95 1.7 1.8 2.2 1.8.2 0 .5-.35.25-.35.25-.55 0-.25-.2-.6-3.15-1.3-2.3-11.1l.4-.15.25-4.8q5-.65 6.1-2.65.15-.3.25-.55 1.65-16.35-4.6-21.25l-1.85-4.85q.8-4.7 0-9.7-1.95-1.85-4.15.15l-.15 4.2q-1.65.75-2.45-12.15l2.05 5.7q2.9-2.8 5.7.35l-2.75-34.75q-1.3-4.1-.75-9.55l-11.3-4.9q-.1 5.7-1.9 11.35l-1.35-7.35.45-3.65 2.05-2.35.35-2.65.8-.7.85-2.65 1.15-.25.25-3.1-.55-.5q.55-6.6-4.1-8.05m14.15 74.75l.1.9q0 .2-.85 1.75-.2.45-.75.7-.5.25-.5.55 0 .15.85 1.15.8.95 1 1.1.45.3.85 1.05.4.8.4 1.35 0 .5-.25.95-.3.5-.75.5-1.2 0-1.45-1.05-.25-1-1-1.75l-.2-.2q-.3-.35-.55-1.2-.3-1-.3-1.75 0-.85.55-.85.8-.05 1.2-.8.45-.7.6-1.05.3-.65.3-1.35h.75m-3.35 6.45l-.15-.05h.1l.05.05m37.35-79.25q-2.2-2.35-5.9-1.05-3.65-.1-6.35 7.65-3.05 7.3-.35 11.55-1.5 2.4-4.75 3.7-2.85 1.65-3.3 5.85-.35 1.5-.7 2.9-.6 2.2-1.4 4-.65 1.5-1.45 2.75l-.15.4q-.75 2.7-.3 5.35.6 2.8 1.45 5.25 1.95 5.85 5.1 9.55-.7 6.15 0 11.75v.25q.75 10.85-1.3 21.75 1.6 1 4.4.85 3.35.3 3.65 5.1.65 9.55 3.3 15.95l.1.45q1 4.75-.2 12.65-1.7 3.25-6.85 5.4l-.2 1.2 7-.4q.65 3.3 3.1 3.4 3.3-.15 4.15-5.1-.1-1.9-1.15-3.4l2.8-2.75q2.25-2.8-2.65-6.25l.75-14.6q1.85-5.75-1.4-10.95 1.75-.85 2.7.55 2.6.95 3.25-.15.45-1.2 2.25-1.65-.1-2.85-1.85-7.9-1.4-5.05.6-9.4 3.8-4.05 2.75-10.8 2.75-2 2.3-7 2.75-2.5 2.65-6.9l-.1-1.3v-.25q.65-5.2.65-10.25 0-6-.9-11.75v-.25q.25-5.75-8.1-7.9.8-4.45.6-7-.25-2.55-.3-2.75-.05-.2-.45-2.8-.45-2.65-3.45-5.7m3.55 48.15q-.4-.65-.4-1.15.15-.5.3-.85.2-.7.3-.95.2.2.65.3.4.05.6.45.1.2.15.45.05.1.45.7.05.15.2.35.55 1 .55 1.55-.35 2.1-1 2.1-.2 0-.65-.9-.4-.9-.45-.95-.45-.7-.7-1.1m-20.75-8.1q-.05 0-.3-.1-.15-.05-.4-.15h-.75v.05l-.05-.05h.05q.05-.35.55-1.35v-.05q.55-1.25.8-1.25.65 0 .65 1.05 0 1.85-.55 1.85m-1.7 3.4q0-.45.45-.45.5 0 .8.35.2.2.7 1 .45.65.75 1 .05.1.05.95v.05q0 .7-.1 1-.1.25-.5 1.2-.3.7-.45 2.05-.2-.2-.4-.6-.25-.7-.3-.85-.1-.3-.45-1.8-.05-.2-.05-.35-.5-2.2-.5-3.55z"/><path fill="#CCC" d="M67.1 135.9v-.05l-.3-.35q-.95.95-1.25 2.6-.2.95-.45 2.75-.55 1.9-2.1 5.4v3.65h.05l.1.05.2.05q.1 0 .2-.05.2-.1.45-.45-.4-.15-.4-1.5 0-.65 1.75-6.25 1.15-3.7 1.55-5.1.35.6 1.55 2.2 1.7 2.35 1.7 2.65 0 .25-.2 1.2.05.8 1.35.8v.1q-.3.2-.3.55 0 .05.25.35.25.35.25.5 0 .1-1.15 1.95-1.3 1.95-1.6 2.65-.65 1.3-2.15 3.85l.35.45v-.05q1.05-1.4 5.3-9.05-.45-.55-.45-.65.2-.45.2-.7-.05-.3-.45-.6h-.65q-.3-.4-.3-.45.25-.6.25-.85 0-.65-2.05-3.7-1.2-1.75-1.7-1.95m-10.4-6.7l.15.1q-.15-.6-.15-.9-.3-.25-1 .85-.1.05-.15.15-1.05 1.65-1.3 1.95-.3.25-1.45 1.75-.3.45-.55.75v-.3q-.1-.45-.3-.55-.1.15-.15.4-.1.25-.2.55-2.15-2.75-2.5-3.35-.05-.1-.95-2.05-.25-.55-.55-.9.5-.45 1-1.15l-2.25 2q.3-.15.65-.4 1.25 2.55 2.7 4.8.8 1.2 1.35 1.9l.25.25-.95 33.9-9.65.9.3 1.75.05-.65 23.4-1.15 3.45 16.6q-7.25.1-17.95-.35-2.7-.1-5.6-.25l-3.2-11.2-.3 2.6.55 1.75q-.2 0-.35.05l3.4 8.25 24.05-.45-2.8-17.05.8-.05v.05q.35 0 .35-.4 0-2.75-.85-6.25-.15-.6-.25-1.1-.65-2.5-.65-2.6 0-.1.15-.2.1-.1.1-.25l-.05-.25q-.6-.35-.75.1-.1.25-.05.55 0 1.2.45 2.95.25 1.05.65 2.25.3.95.4 2.55.05.65.1 1.7l-14.8-.35.3-15.25q.25.1.6.1.55 0 .85-.4.25-.35.25-.65 0-1.05-1.1-1.1-.35 0-.55.1l.1-6.6q.2.05.45.05.55 0 .85-.45.25-.35.25-.7 0-1.15-1.1-1.15-.25 0-.4.05l.1-5.75q.25.25.8.25h.05q.6 0 .95-.4.25-.3.25-.7 0-1-1.15-1.05-.3 0-.5.05l.2-.2q1.05-1.25 2.65-3.35.65-.85 1.1-1.45.25-.4.45-.65m-10.6-5.95q-.15.1-.3.25-.05 0-.1.05-.6.4-1 .85-.3.35-1.6.75-1.35.45-1.9.85-.8.5-1.2 2.05-.05.25-.1.55-.05.15-.05.35-.1.2-.1.5l.05-.05-3.45 32.7q-.05 0-.05-.05-.1.45-.25.95-.4 1.15-.4 1.65 0 .4.2.95.25.6.6.75.35-.3.35-.5t-.25-.55q-.25-.3-.25-.6 0-.2.4-.85.2-.35.3-.6.05-.25.05-.35v-.55h-.1l3.5-33.2h.05q.05-.15.05-.25.05-.4.15-.8.3-1.6 2.4-2.15.35-.1 1.3-.6.4-.25.95-.55l.05-.05q.4-.25.7-.4.15-.15.35-.2l.1-.2q.15-.5-.2-.8-.1 0-.25.1m15-2.9l-.05.1-.1.65q.05 0 .1.05l.2-.1h3.25q-.15.55.65 1.1h1.2l6.35 9.75q1.8 2.8 5.95 10h.15q-.65 1.15-1.3 3.15-.5 1.45-1.9 4.4-.55 1.35-1.75 4.35-1.15 2.7-2.1 4.4-.2-.2-.85-.6-.7-.45-.85-.45h-.1q-.5-.55-1.35-1.4l-.95-.95 2.65 3.5q.05-.05.1-.05l.3.2q.35.25.65.45.35.2.55.2.3 0 1.8-3.25 1.55-3.25 2.2-5.35.2-.6 1.95-4.55.95-2.05 1.35-3.1v-1h-.1v-.4q-.05 0-.1.1v-.3q-2-3.95-5.85-10-6.4-9.95-6.7-9.95-.35.15-1 .15-.1-.25-.25-.75 0-.2-.4-.35h-3.7z"/><path fill="#099" d="M61.05 120.45q-.05.1-.15.15-.15.1-.15.2 0 .05.15.2 0 .05.05.1l.1-.65z"/></g><path id="c" stroke="#94D0D0" stroke-opacity=".329" stroke-linejoin="round" stroke-linecap="round" fill="none" d="M5.3 69.9v.3"/><path id="e" stroke="#94D0D0" stroke-opacity=".329" stroke-linejoin="round" stroke-linecap="round" fill="none" d="M-.4 170.75v-.3"/></defs><g transform="matrix(1 0 0 .7051 0 137.9)"><use filter="url(#a)" xlink:href="#b"/><use filter="url(#a)" xlink:href="#c"/></g><g transform="translate(5.7 -91.5)"><use xlink:href="#d"/><use xlink:href="#e"/></g></svg>