<svg xmlns="http://www.w3.org/2000/svg" width="102" height="65" viewBox="0 0 379 239"><g fill-rule="evenodd" clip-rule="evenodd"><path fill="#846F5E" d="M373.3 1.6c1.1.5 2.167 1.133 3.2 1.9l.5.8c4.733 8.667.483 18.15-12.75 28.45l-140.85 77.8c-.5.1-.967.233-1.4.4-6.7 2.233-12.717 4.733-18.05 7.5-21.833 11.233-32.684 26.816-32.55 46.75l-1.55.7c-.1-22.8 11.267-39.9 34.1-51.3 4.466-2.267 9.4-4.3 14.8-6.1a15.7 15.7 0 0 1 1.35-.45L360.95 30.3c10.533-8.167 15.383-15.683 14.55-22.55-.267-2.067-1-4.117-2.2-6.15z"/><path fill="#C6B178" d="M127.8 113l-.9-1.5-.5-2.35 7.5-4.5c4.867 1.833 9.567 3.25 14.1 4.25 10.567 2.267 20.317 2.267 29.25 0 11-2.833 20.667-9.4 29-19.7l144.1-84.25c9-5.167 16.65-6.284 22.95-3.35 1.2 2.033 1.934 4.083 2.2 6.15-6.7-4.367-15.083-3.667-25.15 2.1l-143.8 84.1c-5.4 6.7-11.083 11.683-17.05 14.95-15.633 8.533-34.217 8.667-55.75.4l-5.95 3.7z"/><path fill="#BB9147" d="M169.85 165.9l-6.85 3.85L127.8 113l5.95-3.7c21.533 8.267 40.117 8.133 55.75-.4 5.967-3.267 11.65-8.25 17.05-14.95l143.8-84.1c10.066-5.767 18.45-6.467 25.15-2.1.833 6.867-4.017 14.383-14.55 22.55L220.1 108.05c-.467.133-.917.284-1.35.45-5.4 1.8-10.333 3.833-14.8 6.1-22.833 11.4-34.2 28.5-34.1 51.3zM350.9 28.1a4.01 4.01 0 0 0-.3-1.25c-.5-1.067-1.483-1.75-2.95-2.05-1.367-.267-2.816-.05-4.35.65-1.066.5-1.95 1.167-2.65 2-.3.267-.55.583-.75.95-.667 1.267-.75 2.45-.25 3.55.5 1.066 1.45 1.733 2.85 2 1.434.3 2.9.083 4.4-.65 1.534-.7 2.65-1.667 3.35-2.9.434-.833.65-1.6.65-2.3z"/><path fill="#542F12" d="M340.65 27.45c.034.433.133.833.3 1.2.5 1.1 1.45 1.783 2.85 2.05 1.434.267 2.917.05 4.45-.65 1.067-.5 1.95-1.15 2.65-1.95 0 .7-.216 1.467-.65 2.3-.7 1.233-1.816 2.2-3.35 2.9-1.5.733-2.966.95-4.4.65-1.4-.267-2.35-.934-2.85-2-.5-1.1-.417-2.284.25-3.55.2-.367.45-.683.75-.95z"/><path fill="#736950" d="M127.2 113.3l.6-.3 35.2 56.75-26.85 16.5-2.9-2.75-40.2-39.65-2.85-8.15 25.2-15.2 11.4 21.5-5.6 5.6-6.05-3.75-6.55 7.35 12.15 13.65 4.2-.3-3.3-8.45h9.8l17.1 18.8 4.9-4.1-31.8-54.15z"/><path fill="#A1938B" d="M121.65 116.65l-6.25 3.85-25.2 15.2-4.15 2.5-.35-5.05 40.7-24 .5 2.35.3 1.8z"/><path fill="#777163" d="M85.7 133.15l.35 5.05-5.65 3.45-.3-5.15z"/><path fill="#80756F" d="M80.1 136.5l.3 5.15-6.1 3.7v-5.5z"/><path fill="#98887B" d="M136.15 186.25l-16.75 9.25-2.05-2.15 5.15-6.2-41.7-40-.4-5.5 5.65-3.45v6.5l41.6 41.9 5.6-3.1z"/><path fill="#DBCEC8" d="M80.4 141.65l.4 5.5 41.7 40-5.15 6.2-43.05-45.4v-2.6z"/><path fill="#161511" d="M119.4 195.5l-33.85 22.15-37.4-52.55v-4l26.15-15.75v2.6l43.05 45.4z"/><path fill="#151314" d="M74.3 145.35L48.15 161.1v-5.8l26.15-15.45z"/><path fill="#B2A592" d="M115.4 120.5l6.25-3.85 31.8 54.15-4.9 4.1-17.1-18.8h-9.8l3.3 8.45-4.2.3-12.15-13.65 6.55-7.35 6.05 3.75 5.6-5.6z"/><path fill="#E4CABD" d="M86.05 138.2l4.15-2.5 2.85 8.15 40.2 39.65-5.6 3.1-41.6-41.9z"/><path d="M48.15 161.1L.2 188.7l-.2-4.5 48.15-28.9z"/><path fill="#27DDF5" d="M.2 188.7l47.95-27.6v4l37.4 52.55-38.65 21.7z"/></g></svg>