
<svg xmlns="http://www.w3.org/2000/svg" version="1.1" xmlns:xlink="http://www.w3.org/1999/xlink" preserveAspectRatio="none" x="0px" y="0px" width="71px" height="36px" viewBox="0 0 71 36">
<defs>
<linearGradient id="Gradient_1" gradientUnits="userSpaceOnUse" x1="58.325" y1="-9.825" x2="48.675" y2="-33.175" spreadMethod="pad">
<stop  offset="50.19607843137255%" stop-color="#909090"/>

<stop  offset="78.82352941176471%" stop-color="#C3C3C3"/>
</linearGradient>

<linearGradient id="Gradient_2" gradientUnits="userSpaceOnUse" x1="106" y1="-44.3125" x2="100.6" y2="-53.587500000000006" spreadMethod="pad">
<stop  offset="0%" stop-color="#6E6E6E"/>

<stop  offset="63.13725490196079%" stop-color="#EEEEEE"/>

<stop  offset="100%" stop-color="#CCCCCC"/>
</linearGradient>

<linearGradient id="Gradient_3" gradientUnits="userSpaceOnUse" x1="58.325" y1="-9.825" x2="48.675" y2="-33.175" spreadMethod="pad">
<stop  offset="4.313725490196078%" stop-color="#909090"/>

<stop  offset="41.1764705882353%" stop-color="#C3C3C3"/>

<stop  offset="100%" stop-color="#EEEEEE"/>
</linearGradient>

<linearGradient id="Gradient_4" gradientUnits="userSpaceOnUse" x1="106.325" y1="-42.175" x2="101.97500000000001" y2="-49.625" spreadMethod="pad">
<stop  offset="0%" stop-color="#885C35"/>

<stop  offset="100%" stop-color="#E2CBB6"/>
</linearGradient>

<linearGradient id="Gradient_5" gradientUnits="userSpaceOnUse" x1="27.2875" y1="9.162500000000001" x2="15.112499999999999" y2="-20.3625" spreadMethod="pad">
<stop  offset="0%" stop-color="#555555"/>

<stop  offset="47.450980392156865%" stop-color="#999999"/>

<stop  offset="100%" stop-color="#CCCCCC"/>
</linearGradient>

<g id="Graphic_shape_351_0_Layer0_0_FILL">
<path fill="url(#Gradient_1)" stroke="none" d="
M 64.1 -22.1
Q 63.45 -22 62.45 -22.75 61.4 -23.5 60.2 -25.25 63.35 -14.35 54.7 -6.5 58.75 -10 61 -14 64.15 -19.8 64.1 -22.1 Z"/>

<path fill="url(#Gradient_2)" stroke="none" d="
M 58.35 -32.75
L 58.3 -32.75 58.3 -32.7 58.35 -32.75
M 77.75 -42.8
L 76.45 -42.2
Q 66.8 -37.4 58.6 -32.9
L 58.45 -32.8 58.3 -32.7 58.25 -32.65
Q 58.1 -32.3 58.1 -31.65 58.05 -30.9 58.3 -29.7 58.7 -27.45 60.05 -25.5
L 60.2 -25.25
Q 61.4 -23.5 62.45 -22.75 63.45 -22 64.1 -22.1 73.4 -25.5 84.45 -30.3 83.55 -30.25 82.5 -30.85
L 81.95 -31.2
Q 80 -32.55 78.6 -35.2 77.15 -37.85 77.05 -40.15 76.95 -42.05 77.75 -42.8 Z"/>

<path fill="url(#Gradient_3)" stroke="none" d="
M 58.3 -32.7
L 58.25 -32.7 58.25 -32.65 58.3 -32.7
M 31.45 -30.3
Q 26.9 -27 25.6 -25.6 27.75 -27.05 29.1 -26.8 30.4 -26.6 29.3 -24.15 28.2 -21.75 28.9 -21.35
L 31.65 -21.4
Q 33.65 -21.85 38.95 -24.9 44.25 -27.95 46.6 -27.7 48.95 -27.45 48.35 -25.45 47.7 -23.45 44.2 -20.75 40.65 -18.1 40.75 -16.25 40.75 -14.45 44.6 -14.85 48.45 -15.25 48.8 -13.5 49.1 -11.8 44.8 -7.6 40.45 -3.5 44.4 -4.3 48.3 -5.1 46.5 -2.35 44.75 0.35 41.65 1.45 44 1.05 50.9 -3.6
L 53.5 -5.5 54.7 -6.5
Q 63.35 -14.35 60.2 -25.25
L 60.05 -25.5
Q 58.7 -27.45 58.3 -29.7 58.05 -30.9 58.1 -31.65 58.1 -32.3 58.25 -32.65
L 58.25 -32.7
Q 58.35 -32.95 54.75 -34.15
L 43.6 -34.5
Q 36 -33.6 31.45 -30.3 Z"/>

<path fill="url(#Gradient_4)" stroke="none" d="
M 78.9 -43.4
L 77.75 -42.8
Q 76.95 -42.05 77.05 -40.15 77.15 -37.85 78.6 -35.2 80 -32.55 81.95 -31.2
L 82.5 -30.85
Q 83.55 -30.25 84.45 -30.3
L 85.5 -30.75 96.5 -35.75
Q 106 -40.2 114.6 -44.5 123 -48.75 130.5 -52.9
L 138.55 -57.5
Q 156.7 -68.1 155 -71 153.25 -74 133.95 -67.1 129.2 -65.45 124.15 -63.45 116.15 -60.35 107.45 -56.55 99.35 -53.1 90.75 -49.05
L 82.15 -45 78.9 -43.4 Z"/>

<path fill="url(#Gradient_5)" stroke="none" d="
M 25.6 -25.6
L 22.2 -21.7 9.45 -8.15
Q 2.45 -0.85 -1.35 -0.6 7.9 2.95 17.85 4.05 28.6 5.15 39.1 2.25
L 41.65 1.45
Q 44.75 0.35 46.5 -2.35 48.3 -5.1 44.4 -4.3 40.45 -3.5 44.8 -7.6 49.1 -11.8 48.8 -13.5 48.45 -15.25 44.6 -14.85 40.75 -14.45 40.75 -16.25 40.65 -18.1 44.2 -20.75 47.7 -23.45 48.35 -25.45 48.95 -27.45 46.6 -27.7 44.25 -27.95 38.95 -24.9 33.65 -21.85 31.65 -21.4
L 28.9 -21.35
Q 28.2 -21.75 29.3 -24.15 30.4 -26.6 29.1 -26.8 27.75 -27.05 25.6 -25.6 Z"/>
</g>

<g id="Graphic_shape_352_0_Layer0_0_FILL">
<path fill="url(#Gradient_1)" stroke="none" d="
M 64.1 -22.1
Q 63.45 -22 62.45 -22.75 61.4 -23.5 60.2 -25.25 63.35 -14.35 54.7 -6.5 58.75 -10 61 -14 64.15 -19.8 64.1 -22.1 Z"/>

<path fill="url(#Gradient_3)" stroke="none" d="
M 58.25 -32.65
L 58.3 -32.7 58.25 -32.7 58.25 -32.65
M 31.65 -21.4
Q 33.65 -21.85 38.95 -24.9 44.25 -27.95 46.6 -27.7 48.95 -27.45 48.35 -25.45 47.7 -23.45 44.2 -20.75 40.65 -18.1 40.75 -16.25 40.75 -14.45 44.6 -14.85 48.45 -15.25 48.8 -13.5 49.1 -11.8 44.8 -7.6 40.45 -3.5 44.4 -4.3 48.3 -5.1 46.5 -2.35 44.75 0.35 41.65 1.45 44 1.05 50.9 -3.6
L 54.7 -6.5
Q 63.35 -14.35 60.2 -25.25
L 60.05 -25.5
Q 58.7 -27.45 58.3 -29.7 58.05 -30.9 58.1 -31.65 58.1 -32.3 58.25 -32.65
L 58.25 -32.7
Q 58.35 -32.95 54.75 -34.15
L 43.6 -34.5
Q 36 -33.6 31.45 -30.3 26.9 -27 25.6 -25.6 27.75 -27.05 29.1 -26.8 30.4 -26.6 29.3 -24.15 28.2 -21.75 28.9 -21.35
L 31.65 -21.4 Z"/>

<path fill="url(#Gradient_2)" stroke="none" d="
M 58.35 -32.75
L 58.3 -32.75 58.3 -32.7 58.35 -32.75
M 77.75 -42.8
L 76.45 -42.2
Q 66.8 -37.4 58.6 -32.9
L 58.3 -32.7 58.25 -32.65
Q 58.1 -32.3 58.1 -31.65 58.05 -30.9 58.3 -29.7 58.7 -27.45 60.05 -25.5
L 60.2 -25.25
Q 61.4 -23.5 62.45 -22.75 63.45 -22 64.1 -22.1 73.4 -25.5 84.45 -30.3 83.55 -30.25 82.5 -30.85
L 81.95 -31.2
Q 80 -32.55 78.6 -35.2 77.15 -37.85 77.05 -40.15 76.95 -42.05 77.75 -42.8 Z"/>

<path fill="url(#Gradient_4)" stroke="none" d="
M 77.05 -40.15
Q 77.15 -37.85 78.6 -35.2 80 -32.55 81.95 -31.2
L 82.5 -30.85
Q 83.55 -30.25 84.45 -30.3
L 96.5 -35.75
Q 106 -40.2 114.6 -44.5 123 -48.75 130.5 -52.9
L 138.55 -57.5
Q 156.7 -68.1 155 -71 153.25 -74 133.95 -67.1 129.2 -65.45 124.15 -63.45 116.15 -60.35 107.45 -56.55 99.35 -53.1 90.75 -49.05
L 77.75 -42.8
Q 76.95 -42.05 77.05 -40.15 Z"/>

<path fill="#DA3A36" stroke="none" d="
M 38.95 -24.9
Q 33.65 -21.85 31.65 -21.4
L 28.9 -21.35
Q 28.2 -21.75 29.3 -24.15 30.4 -26.6 29.1 -26.8 27.75 -27.05 25.6 -25.6
L 9.65 -8.15
Q 2.6 -0.7 -1.35 -0.6 7.9 2.95 17.85 4.05 28.6 5.15 39.1 2.25
L 41.65 1.45
Q 44.75 0.35 46.5 -2.35 48.3 -5.1 44.4 -4.3 40.45 -3.5 44.8 -7.6 49.1 -11.8 48.8 -13.5 48.45 -15.25 44.6 -14.85 40.75 -14.45 40.75 -16.25 40.65 -18.1 44.2 -20.75 47.7 -23.45 48.35 -25.45 48.95 -27.45 46.6 -27.7 44.25 -27.95 38.95 -24.9 Z"/>
</g>

<path id="Graphic_shape_351_0_Layer0_0_1_STROKES" stroke="#FFFFFF" stroke-width="1" stroke-linejoin="round" stroke-linecap="round" fill="none" d="
M 84.45 -30.3
Q 83.55 -30.25 82.5 -30.85
L 81.95 -31.2
Q 80 -32.55 78.6 -35.2 77.15 -37.85 77.05 -40.15 76.95 -42.05 77.75 -42.8"/>

<path id="Graphic_shape_351_0_Layer0_0_2_STROKES" stroke="#B6B6B6" stroke-width="1" stroke-linejoin="round" stroke-linecap="round" fill="none" d="
M 58.3 -32.7
L 58.3 -32.75
M 58.25 -32.65
Q 58.1 -32.3 58.1 -31.65 58.05 -30.9 58.3 -29.7 58.7 -27.45 60.05 -25.5
L 60.2 -25.25
Q 61.4 -23.5 62.45 -22.75 63.45 -22 64.1 -22.1
M 58.25 -32.65
L 58.25 -32.7"/>

<path id="Graphic_shape_352_0_Layer0_0_1_STROKES" stroke="#FFFFFF" stroke-width="1" stroke-linejoin="round" stroke-linecap="round" fill="none" d="
M 77.75 -42.8
Q 76.95 -42.05 77.05 -40.15 77.15 -37.85 78.6 -35.2 80 -32.55 81.95 -31.2
L 82.5 -30.85
Q 83.55 -30.25 84.45 -30.3"/>

<path id="Graphic_shape_352_0_Layer0_0_2_STROKES" stroke="#B6B6B6" stroke-width="1" stroke-linejoin="round" stroke-linecap="round" fill="none" d="
M 60.2 -25.25
L 60.05 -25.5
Q 58.7 -27.45 58.3 -29.7 58.05 -30.9 58.1 -31.65 58.1 -32.3 58.25 -32.65
L 58.25 -32.7
M 58.3 -32.75
L 58.3 -32.7
M 64.1 -22.1
Q 63.45 -22 62.45 -22.75 61.4 -23.5 60.2 -25.25"/>
</defs>

<g transform="matrix( 0.4504852294921875, 0, 0, -0.4504852294921875, 0.6,2.35) ">
<g transform="matrix( 1, 0, 0, 1, 0,0) ">
<use xlink:href="#Graphic_shape_351_0_Layer0_0_FILL"/>

<use xlink:href="#Graphic_shape_351_0_Layer0_0_1_STROKES"/>

<use xlink:href="#Graphic_shape_351_0_Layer0_0_2_STROKES"/>
</g>
</g>

<g transform="matrix( 0.4504852294921875, 0, 0, -0.4498291015625, -143.65,61.25) ">
<g transform="matrix( 1, 0, 0, 1, 0,0) ">
<use xlink:href="#Graphic_shape_352_0_Layer0_0_FILL"/>

<use xlink:href="#Graphic_shape_352_0_Layer0_0_1_STROKES"/>

<use xlink:href="#Graphic_shape_352_0_Layer0_0_2_STROKES"/>
</g>
</g>
</svg>
