<svg xmlns="http://www.w3.org/2000/svg" xmlns:xlink="http://www.w3.org/1999/xlink" preserveAspectRatio="none" width="71" height="36" viewBox="0 0 71 36"><defs><linearGradient id="a" gradientUnits="userSpaceOnUse" x1="58.325" y1="-9.825" x2="48.675" y2="-33.175"><stop offset="50.196%" stop-color="#909090"/><stop offset="78.824%" stop-color="#C3C3C3"/></linearGradient><linearGradient id="b" gradientUnits="userSpaceOnUse" x1="106" y1="-44.313" x2="100.6" y2="-53.588"><stop offset="0%" stop-color="#6E6E6E"/><stop offset="63.137%" stop-color="#EEE"/><stop offset="100%" stop-color="#CCC"/></linearGradient><linearGradient id="c" gradientUnits="userSpaceOnUse" x1="58.325" y1="-9.825" x2="48.675" y2="-33.175"><stop offset="4.314%" stop-color="#909090"/><stop offset="41.176%" stop-color="#C3C3C3"/><stop offset="100%" stop-color="#EEE"/></linearGradient><linearGradient id="d" gradientUnits="userSpaceOnUse" x1="106.325" y1="-42.175" x2="101.975" y2="-49.625"><stop offset="0%" stop-color="#885C35"/><stop offset="100%" stop-color="#E2CBB6"/></linearGradient><linearGradient id="e" gradientUnits="userSpaceOnUse" x1="27.288" y1="9.163" x2="15.112" y2="-20.363"><stop offset="0%" stop-color="#555"/><stop offset="47.451%" stop-color="#999"/><stop offset="100%" stop-color="#CCC"/></linearGradient><linearGradient id="f" gradientUnits="userSpaceOnUse" x1="27.288" y1="9.163" x2="15.112" y2="-20.363"><stop offset="0%" stop-color="#555"/><stop offset="82.353%" stop-color="#666"/></linearGradient><g id="g"><path fill="url(#a)" d="M64.1-22.1q-.65.1-1.65-.65-1.05-.75-2.25-2.5 3.15 10.9-5.5 18.75Q58.75-10 61-14q3.15-5.8 3.1-8.1z"/><path fill="url(#b)" d="M58.35-32.75h-.05v.05l.05-.05m19.4-10.05l-1.3.6q-9.65 4.8-17.85 9.3l-.15.1-.15.1-.05.05q-.15.35-.15 1-.05.75.2 1.95.4 2.25 1.75 4.2l.15.25q1.2 1.75 2.25 2.5 1 .75 1.65.65 9.3-3.4 20.35-8.2-.9.05-1.95-.55l-.55-.35q-1.95-1.35-3.35-4-1.45-2.65-1.55-4.95-.1-1.9.7-2.65z"/><path fill="url(#c)" d="M58.3-32.7h-.05v.05l.05-.05m-26.85 2.4Q26.9-27 25.6-25.6q2.15-1.45 3.5-1.2 1.3.2.2 2.65-1.1 2.4-.4 2.8l2.75-.05q2-.45 7.3-3.5t7.65-2.8q2.35.25 1.75 2.25-.65 2-4.15 4.7-3.55 2.65-3.45 4.5 0 1.8 3.85 1.4 3.85-.4 4.2 1.35.3 1.7-4 5.9-4.35 4.1-.4 3.3 3.9-.8 2.1 1.95-1.75 2.7-4.85 3.8Q44 1.05 50.9-3.6l2.6-1.9 1.2-1q8.65-7.85 5.5-18.75l-.15-.25q-1.35-1.95-1.75-4.2-.25-1.2-.2-1.95 0-.65.15-1v-.05q.1-.25-3.5-1.45L43.6-34.5q-7.6.9-12.15 4.2z"/><path fill="url(#d)" d="M78.9-43.4l-1.15.6q-.8.75-.7 2.65.1 2.3 1.55 4.95 1.4 2.65 3.35 4l.55.35q1.05.6 1.95.55l1.05-.45 11-5q9.5-4.45 18.1-8.75 8.4-4.25 15.9-8.4l8.05-4.6Q156.7-68.1 155-71q-1.75-3-21.05 3.9-4.75 1.65-9.8 3.65-8 3.1-16.7 6.9-8.1 3.45-16.7 7.5L82.15-45l-3.25 1.6z"/><path fill="url(#e)" d="M25.6-25.6l-3.4 3.9L9.45-8.15q-7 7.3-10.8 7.55 9.25 3.55 19.2 4.65 10.75 1.1 21.25-1.8l2.55-.8q3.1-1.1 4.85-3.8 1.8-2.75-2.1-1.95-3.95.8.4-3.3 4.3-4.2 4-5.9-.35-1.75-4.2-1.35-3.85.4-3.85-1.4-.1-1.85 3.45-4.5 3.5-2.7 4.15-4.7.6-2-1.75-2.25t-7.65 2.8q-5.3 3.05-7.3 3.5l-2.75.05q-.7-.4.4-2.8 1.1-2.45-.2-2.65-1.35-.25-3.5 1.2z"/></g><g id="j"><path fill="url(#a)" d="M64.1-22.1q-.65.1-1.65-.65-1.05-.75-2.25-2.5 3.15 10.9-5.5 18.75Q58.75-10 61-14q3.15-5.8 3.1-8.1z"/><path fill="url(#c)" d="M58.25-32.65l.05-.05h-.05v.05M31.65-21.4q2-.45 7.3-3.5t7.65-2.8q2.35.25 1.75 2.25-.65 2-4.15 4.7-3.55 2.65-3.45 4.5 0 1.8 3.85 1.4 3.85-.4 4.2 1.35.3 1.7-4 5.9-4.35 4.1-.4 3.3 3.9-.8 2.1 1.95-1.75 2.7-4.85 3.8Q44 1.05 50.9-3.6l3.8-2.9q8.65-7.85 5.5-18.75l-.15-.25q-1.35-1.95-1.75-4.2-.25-1.2-.2-1.95 0-.65.15-1v-.05q.1-.25-3.5-1.45L43.6-34.5q-7.6.9-12.15 4.2-4.55 3.3-5.85 4.7 2.15-1.45 3.5-1.2 1.3.2.2 2.65-1.1 2.4-.4 2.8l2.75-.05z"/><path fill="url(#b)" d="M58.35-32.75h-.05v.05l.05-.05m19.4-10.05l-1.3.6q-9.65 4.8-17.85 9.3l-.3.2-.05.05q-.15.35-.15 1-.05.75.2 1.95.4 2.25 1.75 4.2l.15.25q1.2 1.75 2.25 2.5 1 .75 1.65.65 9.3-3.4 20.35-8.2-.9.05-1.95-.55l-.55-.35q-1.95-1.35-3.35-4-1.45-2.65-1.55-4.95-.1-1.9.7-2.65z"/><path fill="url(#d)" d="M77.05-40.15q.1 2.3 1.55 4.95 1.4 2.65 3.35 4l.55.35q1.05.6 1.95.55l12.05-5.45q9.5-4.45 18.1-8.75 8.4-4.25 15.9-8.4l8.05-4.6Q156.7-68.1 155-71q-1.75-3-21.05 3.9-4.75 1.65-9.8 3.65-8 3.1-16.7 6.9-8.1 3.45-16.7 7.5l-13 6.25q-.8.75-.7 2.65z"/><path fill="#DA3A36" d="M38.95-24.9q-5.3 3.05-7.3 3.5l-2.75.05q-.7-.4.4-2.8 1.1-2.45-.2-2.65-1.35-.25-3.5 1.2L9.65-8.15Q2.6-.7-1.35-.6q9.25 3.55 19.2 4.65 10.75 1.1 21.25-1.8l2.55-.8q3.1-1.1 4.85-3.8 1.8-2.75-2.1-1.95-3.95.8.4-3.3 4.3-4.2 4-5.9-.35-1.75-4.2-1.35-3.85.4-3.85-1.4-.1-1.85 3.45-4.5 3.5-2.7 4.15-4.7.6-2-1.75-2.25t-7.65 2.8z"/></g><g id="m"><path fill="url(#a)" d="M64.1-22.1q-.65.1-1.65-.65-1.05-.75-2.25-2.5 3.15 10.9-5.5 18.75Q58.75-10 61-14q3.15-5.8 3.1-8.1z"/><path fill="url(#c)" d="M58.25-32.65l.05-.05h-.05v.05M31.65-21.4q2-.45 7.3-3.5t7.65-2.8q2.35.25 1.75 2.25-.65 2-4.15 4.7-3.55 2.65-3.45 4.5 0 1.8 3.85 1.4 3.85-.4 4.2 1.35.3 1.7-4 5.9-4.35 4.1-.4 3.3 3.9-.8 2.1 1.95-1.75 2.7-4.85 3.8Q44 1.05 50.9-3.6l3.8-2.9q8.65-7.85 5.5-18.75l-.15-.25q-1.35-1.95-1.75-4.2-.25-1.2-.2-1.95 0-.65.15-1v-.05q.1-.25-3.5-1.45L43.6-34.5q-7.6.9-12.15 4.2-4.55 3.3-5.85 4.7 2.15-1.45 3.5-1.2 1.3.2.2 2.65-1.1 2.4-.4 2.8l2.75-.05z"/><path fill="url(#b)" d="M58.35-32.75h-.05v.05l.05-.05m19.4-10.05l-1.3.6q-9.65 4.8-17.85 9.3l-.3.2-.05.05q-.15.35-.15 1-.05.75.2 1.95.4 2.25 1.75 4.2l.15.25q1.2 1.75 2.25 2.5 1 .75 1.65.65 9.3-3.4 20.35-8.2-.9.05-1.95-.55l-.55-.35q-1.95-1.35-3.35-4-1.45-2.65-1.55-4.95-.1-1.9.7-2.65z"/><path fill="url(#d)" d="M77.05-40.15q.1 2.3 1.55 4.95 1.4 2.65 3.35 4l.55.35q1.05.6 1.95.55l12.05-5.45q9.5-4.45 18.1-8.75 8.4-4.25 15.9-8.4l8.05-4.6Q156.7-68.1 155-71q-1.75-3-21.05 3.9-4.75 1.65-9.8 3.65-8 3.1-16.7 6.9-8.1 3.45-16.7 7.5l-13 6.25q-.8.75-.7 2.65z"/><path fill="#FAF753" d="M38.95-24.9q-5.3 3.05-7.3 3.5l-2.75.05q-.7-.4.4-2.8 1.1-2.45-.2-2.65-1.35-.25-3.5 1.2L9.95-8.15Q2.85-.45-1.35-.6q9.25 3.55 19.2 4.65 10.75 1.1 21.25-1.8l2.55-.8q3.1-1.1 4.85-3.8 1.8-2.75-2.1-1.95-3.95.8.4-3.3 4.3-4.2 4-5.9-.35-1.75-4.2-1.35-3.85.4-3.85-1.4-.1-1.85 3.45-4.5 3.5-2.7 4.15-4.7.6-2-1.75-2.25t-7.65 2.8z"/></g><g id="p"><path fill="url(#a)" d="M64.1-22.1q-.65.1-1.65-.65-1.05-.75-2.25-2.5 3.15 10.9-5.5 18.75Q58.75-10 61-14q3.15-5.8 3.1-8.1z"/><path fill="url(#c)" d="M58.25-32.65l.05-.05h-.05v.05M31.65-21.4q2-.45 7.3-3.5t7.65-2.8q2.35.25 1.75 2.25-.65 2-4.15 4.7-3.55 2.65-3.45 4.5 0 1.8 3.85 1.4 3.85-.4 4.2 1.35.3 1.7-4 5.9-4.35 4.1-.4 3.3 3.9-.8 2.1 1.95-1.75 2.7-4.85 3.8Q44 1.05 50.9-3.6l3.8-2.9q8.65-7.85 5.5-18.75l-.15-.25q-1.35-1.95-1.75-4.2-.25-1.2-.2-1.95 0-.65.15-1v-.05q.1-.25-3.5-1.45L43.6-34.5q-7.6.9-12.15 4.2-4.55 3.3-5.85 4.7 2.15-1.45 3.5-1.2 1.3.2.2 2.65-1.1 2.4-.4 2.8l2.75-.05z"/><path fill="url(#b)" d="M58.35-32.75h-.05v.05l.05-.05m19.4-10.05l-1.3.6q-9.65 4.8-17.85 9.3l-.3.2-.05.05q-.15.35-.15 1-.05.75.2 1.95.4 2.25 1.75 4.2l.15.25q1.2 1.75 2.25 2.5 1 .75 1.65.65 9.3-3.4 20.35-8.2-.9.05-1.95-.55l-.55-.35q-1.95-1.35-3.35-4-1.45-2.65-1.55-4.95-.1-1.9.7-2.65z"/><path fill="url(#d)" d="M77.05-40.15q.1 2.3 1.55 4.95 1.4 2.65 3.35 4l.55.35q1.05.6 1.95.55l12.05-5.45q9.5-4.45 18.1-8.75 8.4-4.25 15.9-8.4l8.05-4.6Q156.7-68.1 155-71q-1.75-3-21.05 3.9-4.75 1.65-9.8 3.65-8 3.1-16.7 6.9-8.1 3.45-16.7 7.5l-13 6.25q-.8.75-.7 2.65z"/><path fill="#4B4CFE" d="M38.95-24.9q-5.3 3.05-7.3 3.5l-2.75.05q-.7-.4.4-2.8 1.1-2.45-.2-2.65-1.35-.25-3.5 1.2L10.3-8.15Q3.2-.15-1.4-.6q9.3 3.55 19.25 4.65 10.75 1.1 21.25-1.8l2.55-.8q3.1-1.1 4.85-3.8 1.8-2.75-2.1-1.95-3.95.8.4-3.3 4.3-4.2 4-5.9-.35-1.75-4.2-1.35-3.85.4-3.85-1.4-.1-1.85 3.45-4.5 3.5-2.7 4.15-4.7.6-2-1.75-2.25t-7.65 2.8z"/></g><g id="s"><path fill="url(#a)" d="M64.1-22.1q-.65.1-1.65-.65-1.05-.75-2.25-2.5 3.15 10.9-5.5 18.75Q58.75-10 61-14q3.15-5.8 3.1-8.1z"/><path fill="url(#c)" d="M58.25-32.65l.05-.05h-.05v.05M31.65-21.4q2-.45 7.3-3.5t7.65-2.8q2.35.25 1.75 2.25-.65 2-4.15 4.7-3.55 2.65-3.45 4.5 0 1.8 3.85 1.4 3.85-.4 4.2 1.35.3 1.7-4 5.9-4.35 4.1-.4 3.3 3.9-.8 2.1 1.95-1.75 2.7-4.85 3.8Q44 1.05 50.9-3.6l3.8-2.9q8.65-7.85 5.5-18.75l-.15-.25q-1.35-1.95-1.75-4.2-.25-1.2-.2-1.95 0-.65.15-1v-.05q.1-.25-3.5-1.45L43.6-34.5q-7.6.9-12.15 4.2-4.55 3.3-5.85 4.7 2.15-1.45 3.5-1.2 1.3.2.2 2.65-1.1 2.4-.4 2.8l2.75-.05z"/><path fill="url(#b)" d="M58.35-32.75h-.05v.05l.05-.05m19.4-10.05l-1.3.6q-9.65 4.8-17.85 9.3l-.3.2-.05.05q-.15.35-.15 1-.05.75.2 1.95.4 2.25 1.75 4.2l.15.25q1.2 1.75 2.25 2.5 1 .75 1.65.65 9.3-3.4 20.35-8.2-.9.05-1.95-.55l-.55-.35q-1.95-1.35-3.35-4-1.45-2.65-1.55-4.95-.1-1.9.7-2.65z"/><path fill="url(#d)" d="M77.05-40.15q.1 2.3 1.55 4.95 1.4 2.65 3.35 4l.55.35q1.05.6 1.95.55l12.05-5.45q9.5-4.45 18.1-8.75 8.4-4.25 15.9-8.4l8.05-4.6Q156.7-68.1 155-71q-1.75-3-21.05 3.9-4.75 1.65-9.8 3.65-8 3.1-16.7 6.9-8.1 3.45-16.7 7.5l-13 6.25q-.8.75-.7 2.65z"/><path fill="#43F1F0" d="M38.95-24.9q-5.3 3.05-7.3 3.5l-2.75.05q-.7-.4.4-2.8 1.1-2.45-.2-2.65-1.35-.25-3.5 1.2L11.65-9.65Q3.35-.2-1.8-.75q9.45 3.7 19.65 4.8 10.75 1.1 21.25-1.8l2.55-.8q3.1-1.1 4.85-3.8 1.8-2.75-2.1-1.95-3.95.8.4-3.3 4.3-4.2 4-5.9-.35-1.75-4.2-1.35-3.85.4-3.85-1.4-.1-1.85 3.45-4.5 3.5-2.7 4.15-4.7.6-2-1.75-2.25t-7.65 2.8z"/></g><g id="v"><path fill="url(#a)" d="M64.1-22.1q-.65.1-1.65-.65-1.05-.75-2.25-2.5 3.15 10.9-5.5 18.75Q58.75-10 61-14q3.15-5.8 3.1-8.1z"/><path fill="url(#b)" d="M58.3-32.75v.05l.05-.05h-.05m18.75-7.4q-.1-1.9.7-2.65l-1.3.6q-9.65 4.8-17.85 9.3l-.3.2-.05.05q-.15.35-.15 1-.05.75.2 1.95.4 2.25 1.75 4.2l.15.25q1.2 1.75 2.25 2.5 1 .75 1.65.65 9.3-3.4 20.35-8.2-.9.05-1.95-.55l-.55-.35q-1.95-1.35-3.35-4-1.45-2.65-1.55-4.95z"/><path fill="url(#c)" d="M58.25-32.7v.05l.05-.05h-.05m-26.6 11.3q2-.45 7.3-3.5t7.65-2.8q2.35.25 1.75 2.25-.65 2-4.15 4.7-3.55 2.65-3.45 4.5 0 1.8 3.85 1.4 3.85-.4 4.2 1.35.3 1.7-4 5.9-4.35 4.1-.4 3.3 3.9-.8 2.1 1.95-1.75 2.7-4.85 3.8Q44 1.05 50.9-3.6l3.8-2.9q8.65-7.85 5.5-18.75l-.15-.25q-1.35-1.95-1.75-4.2-.25-1.2-.2-1.95 0-.65.15-1v-.05q.1-.25-3.5-1.45L43.6-34.5q-7.6.9-12.15 4.2-4.55 3.3-5.85 4.7 2.15-1.45 3.5-1.2 1.3.2.2 2.65-1.1 2.4-.4 2.8l2.75-.05z"/><path fill="url(#d)" d="M77.75-42.8q-.8.75-.7 2.65.1 2.3 1.55 4.95 1.4 2.65 3.35 4l.55.35q1.05.6 1.95.55l12.05-5.45q9.5-4.45 18.1-8.75 8.4-4.25 15.9-8.4l8.05-4.6Q156.7-68.1 155-71q-1.75-3-21.05 3.9-4.75 1.65-9.8 3.65-8 3.1-16.7 6.9-8.1 3.45-16.7 7.5l-13 6.25z"/><path fill="#5AC769" d="M38.95-24.9q-5.3 3.05-7.3 3.5l-2.75.05q-.7-.4.4-2.8 1.1-2.45-.2-2.65-1.35-.25-3.5 1.2L10.3-8.05Q3.45-.2-1.05-.5q9.1 3.45 18.9 4.55 10.75 1.1 21.25-1.8l2.55-.8q3.1-1.1 4.85-3.8 1.8-2.75-2.1-1.95-3.95.8.4-3.3 4.3-4.2 4-5.9-.35-1.75-4.2-1.35-3.85.4-3.85-1.4-.1-1.85 3.45-4.5 3.5-2.7 4.15-4.7.6-2-1.75-2.25t-7.65 2.8z"/><path fill="url(#f)" d="M-3.95-1.65l.1.05-.4-.35.3.3z"/></g><path id="h" stroke="#FFF" stroke-linejoin="round" stroke-linecap="round" fill="none" d="M84.45-30.3q-.9.05-1.95-.55l-.55-.35q-1.95-1.35-3.35-4-1.45-2.65-1.55-4.95-.1-1.9.7-2.65"/><path id="i" stroke="#B6B6B6" stroke-linejoin="round" stroke-linecap="round" fill="none" d="M58.3-32.7v-.05m-.05.1q-.15.35-.15 1-.05.75.2 1.95.4 2.25 1.75 4.2l.15.25q1.2 1.75 2.25 2.5 1 .75 1.65.65m-5.85-10.55v-.05"/><path id="k" stroke="#FFF" stroke-linejoin="round" stroke-linecap="round" fill="none" d="M77.75-42.8q-.8.75-.7 2.65.1 2.3 1.55 4.95 1.4 2.65 3.35 4l.55.35q1.05.6 1.95.55"/><path id="l" stroke="#B6B6B6" stroke-linejoin="round" stroke-linecap="round" fill="none" d="M60.2-25.25l-.15-.25q-1.35-1.95-1.75-4.2-.25-1.2-.2-1.95 0-.65.15-1v-.05m.05-.05v.05m5.8 10.6q-.65.1-1.65-.65-1.05-.75-2.25-2.5"/><path id="n" stroke="#FFF" stroke-linejoin="round" stroke-linecap="round" fill="none" d="M77.75-42.8q-.8.75-.7 2.65.1 2.3 1.55 4.95 1.4 2.65 3.35 4l.55.35q1.05.6 1.95.55"/><path id="o" stroke="#B6B6B6" stroke-linejoin="round" stroke-linecap="round" fill="none" d="M60.2-25.25l-.15-.25q-1.35-1.95-1.75-4.2-.25-1.2-.2-1.95 0-.65.15-1v-.05m.05-.05v.05m5.8 10.6q-.65.1-1.65-.65-1.05-.75-2.25-2.5"/><path id="q" stroke="#FFF" stroke-linejoin="round" stroke-linecap="round" fill="none" d="M77.75-42.8q-.8.75-.7 2.65.1 2.3 1.55 4.95 1.4 2.65 3.35 4l.55.35q1.05.6 1.95.55"/><path id="r" stroke="#B6B6B6" stroke-linejoin="round" stroke-linecap="round" fill="none" d="M60.2-25.25l-.15-.25q-1.35-1.95-1.75-4.2-.25-1.2-.2-1.95 0-.65.15-1v-.05m.05-.05v.05m5.8 10.6q-.65.1-1.65-.65-1.05-.75-2.25-2.5"/><path id="t" stroke="#FFF" stroke-linejoin="round" stroke-linecap="round" fill="none" d="M77.75-42.8q-.8.75-.7 2.65.1 2.3 1.55 4.95 1.4 2.65 3.35 4l.55.35q1.05.6 1.95.55"/><path id="u" stroke="#B6B6B6" stroke-linejoin="round" stroke-linecap="round" fill="none" d="M60.2-25.25l-.15-.25q-1.35-1.95-1.75-4.2-.25-1.2-.2-1.95 0-.65.15-1v-.05m.05-.05v.05m5.8 10.6q-.65.1-1.65-.65-1.05-.75-2.25-2.5"/><path id="w" stroke="#FFF" stroke-linejoin="round" stroke-linecap="round" fill="none" d="M77.75-42.8q-.8.75-.7 2.65.1 2.3 1.55 4.95 1.4 2.65 3.35 4l.55.35q1.05.6 1.95.55"/><path id="x" stroke="#B6B6B6" stroke-linejoin="round" stroke-linecap="round" fill="none" d="M60.2-25.25l-.15-.25q-1.35-1.95-1.75-4.2-.25-1.2-.2-1.95 0-.65.15-1v-.05m.05-.05v.05m5.8 10.6q-.65.1-1.65-.65-1.05-.75-2.25-2.5"/></defs><g transform="matrix(.4505 0 0 -.4505 97.65 101.05)"><use xlink:href="#g"/><use xlink:href="#h"/><use xlink:href="#i"/></g><g transform="matrix(.4505 0 0 -.44983 163.65 75.25)"><use xlink:href="#j"/><use xlink:href="#k"/><use xlink:href="#l"/></g><g transform="matrix(.4505 0 0 -.44983 132.45 27.7)"><use xlink:href="#m"/><use xlink:href="#n"/><use xlink:href="#o"/></g><g transform="matrix(.45033 0 0 -.44983 -23.1 94.5)"><use xlink:href="#p"/><use xlink:href="#q"/><use xlink:href="#r"/></g><g transform="matrix(.4492 0 0 -.44917 -102 111.7)"><use xlink:href="#s"/><use xlink:href="#t"/><use xlink:href="#u"/></g><g transform="matrix(.44228 0 0 -.44197 1.25 2.3)"><use xlink:href="#v"/><use xlink:href="#w"/><use xlink:href="#x"/></g></svg>