
<svg xmlns="http://www.w3.org/2000/svg" version="1.1" xmlns:xlink="http://www.w3.org/1999/xlink" preserveAspectRatio="none" x="0px" y="0px" width="459px" height="155px" viewBox="0 0 459 155">
<defs>
<g id="mc_podio_0_Layer0_0_MEMBER_0_FILL">
<path fill="#DADADA" stroke="none" d="
M 379 137.1
L 373 138 24 146 0 155 409 152 459 135
Q 425.9 133.15 396.15 135.4 386.85 136.1 379 137.1 Z"/>
</g>

<g id="mc_podio_0_Layer0_0_MEMBER_1_FILL">
<path fill="#FFB600" stroke="none" d="
M 342 146
L 351 64 254 64 280.55 1.95 70.65 0.55 118 68 11 68 24 146 342 146 Z"/>
</g>

<g id="mc_podio_0_Layer0_0_MEMBER_2_FILL">
<path fill="#956C00" stroke="none" d="
M 381 71
L 351 64 342 146 373 138 381 71 Z"/>
</g>

<g id="mc_podio_0_Layer0_0_MEMBER_3_FILL">
<path fill="#956C00" stroke="none" d="
M 254 64
L 282 64 308.05 8.05 280.25 1.35 254 64 Z"/>
</g>

<g id="mc_podio_0_Layer0_0_MEMBER_4_FILL">
<path fill="#E4A400" stroke="none" d="
M 342 146
L 349 79
Q 202.75 111.5 95.25 113 61.65 113.45 35.95 110.8 23.15 109.45 17 108
L 24 146 342 146 Z"/>
</g>

<g id="mc_podio_0_Layer0_0_MEMBER_5_FILL">
<path fill="#FF6A00" stroke="none" d="
M 219 45
Q 219 31.3 209.35 21.65 199.65 12 186 12 172.3 12 162.65 21.65 153 31.3 153 45 153 58.65 162.65 68.35 172.3 78 186 78 199.65 78 209.35 68.35 219 58.65 219 45 Z"/>
</g>

<g id="mc_podio_0_Layer0_0_MEMBER_6_FILL">
<path fill="#FFFFFF" stroke="none" d="
M 203.45 45.4
L 204 42.85 194.45 42.85 193.9 45.4 203.45 45.4
M 204 39.75
Q 205.75 38.35 206.3 35.9
L 206.45 34.55 206.45 34.5
Q 206.45 32.65 205.2 31.6 203.95 30.55 201.75 30.55 199.1 30.55 197.35 32 195.5 33.45 195 35.9
L 194.9 36.55 194.9 37.25
Q 194.9 39.05 196.15 40.1 197.45 41.15 199.55 41.15 202.15 41.15 204 39.75
M 203.3 35.25
L 203.2 35.7
Q 202.9 37.2 202.05 38.05 201.25 38.9 200.05 38.9 199.1 38.9 198.55 38.35 198 37.7 198 36.85
L 198.1 36
Q 198.5 34.4 199.3 33.65 200.15 32.75 201.3 32.75 202.25 32.75 202.75 33.35 203.3 33.9 203.3 34.85
L 203.3 35.25 Z"/>
</g>

<g id="mc_podio_0_Layer0_0_MEMBER_7_FILL">
<path fill="#FFFFFF" stroke="none" d="
M 172.8 39.25
Q 179.15 39.25 182.1 36.3
L 178.2 59.5 167.5 59.5 166.2 67.3 196.75 67.3 198.05 59.5 187.15 59.5 192.85 25.55 185.95 25.55
Q 181.9 31.7 172.15 31.7
L 170.85 39.25 172.8 39.25 Z"/>
</g>

<g id="mc_podio_0_Layer0_0_MEMBER_8_FILL">
<path fill="#795900" stroke="none" d="
M 71.45 107.85
L 70.9 110.4 80.45 110.4 81 107.85 71.45 107.85
M 78.75 95.55
Q 76.1 95.55 74.35 97 72.5 98.45 72 100.9
L 71.9 101.55 71.9 102.25
Q 71.9 104.05 73.15 105.1 74.45 106.15 76.55 106.15 79.15 106.15 81 104.75 82.75 103.35 83.3 100.9
L 83.45 99.55 83.45 99.5
Q 83.45 97.65 82.2 96.6 80.95 95.55 78.75 95.55
M 78.3 97.75
Q 79.25 97.75 79.75 98.35 80.3 98.9 80.3 99.85
L 80.3 100.25 80.2 100.7
Q 79.9 102.2 79.05 103.05 78.25 103.9 77.05 103.9 76.1 103.9 75.55 103.35 75 102.7 75 101.85
L 75.1 101
Q 75.5 99.4 76.3 98.65 77.15 97.75 78.3 97.75 Z"/>
</g>

<g id="mc_podio_0_Layer0_0_MEMBER_9_FILL">
<path fill="#795900" stroke="none" d="
M 57.35 95.7
Q 58.75 96.95 58.75 98.95 58.75 101.5 55.95 104.35 53.3 107 38.2 116.25
L 37.2 124 63.5 124 64.5 117.25 46.55 117.25
Q 54.3 113.35 58.9 110.7 63.1 108.15 65.1 105.45 67.15 102.65 67.15 98.9 67.15 94.05 63.5 90.85 59.95 87.65 54.35 87.65 49.3 87.65 45.5 90.75 41.8 93.85 40.35 99.25
L 47.65 101
Q 49.15 94.5 54 94.5 56 94.5 57.35 95.7 Z"/>
</g>

<g id="mc_podio_0_Layer0_0_MEMBER_10_FILL">
<path fill="#795900" stroke="none" d="
M 318 103.85
L 308.45 103.85 307.9 106.4 317.45 106.4 318 103.85
M 309 96.9
L 308.9 97.55 308.9 98.25
Q 308.9 100.05 310.15 101.1 311.45 102.15 313.55 102.15 316.15 102.15 318 100.75 319.75 99.35 320.3 96.9
L 320.45 95.55 320.45 95.5
Q 320.45 93.65 319.2 92.6 317.95 91.55 315.75 91.55 313.1 91.55 311.35 93 309.5 94.45 309 96.9
M 312.1 97
Q 312.5 95.4 313.3 94.65 314.15 93.75 315.3 93.75 316.25 93.75 316.75 94.35 317.3 94.9 317.3 95.85
L 317.3 96.25 317.2 96.7
Q 316.9 98.2 316.05 99.05 315.25 99.9 314.05 99.9 313.1 99.9 312.55 99.35 312 98.7 312 97.85
L 312.1 97 Z"/>
</g>

<g id="mc_podio_0_Layer0_0_MEMBER_11_FILL">
<path fill="#795900" stroke="none" d="
M 294.1 95.05
Q 295.5 96.15 295.5 98.1 295.5 102.6 289.1 102.6
L 285.3 102.6 284.5 108.65 287.1 108.65
Q 289.65 108.65 290.85 108.95 292.15 109.35 293.1 110.5 294.05 111.75 294.05 113.4 294.05 115.55 292.5 117 290.95 118.4 288.25 118.4 283.05 118.4 281.45 112.75
L 274.5 114.05
Q 275.4 118.8 279.2 121.8 283 124.85 288.75 124.85 295.05 124.85 298.75 121.6 302.4 118.4 302.4 113.9 302.4 111.4 300.95 109.1 299.45 106.85 296.65 105.8 300 105.2 301.8 102.85 303.7 100.4 303.7 97.4 303.7 92.95 300.1 90.3 296.65 87.65 290.9 87.65 281.35 87.65 277.6 96.2
L 284.6 98.15
Q 286.45 93.9 290.55 93.9 292.75 93.9 294.1 95.05 Z"/>
</g>
</defs>

<g transform="matrix( 1, 0, 0, 1, 0,0) ">
<g id="mc_podio" transform="matrix( 1, 0, 0, 1, 0,-0.55) ">
<g transform="matrix( 1, 0, 0, 1, 0,0) ">
<use xlink:href="#mc_podio_0_Layer0_0_MEMBER_0_FILL"/>
</g>

<g transform="matrix( 1, 0, 0, 1, 0,0) ">
<use xlink:href="#mc_podio_0_Layer0_0_MEMBER_1_FILL"/>
</g>

<g transform="matrix( 1, 0, 0, 1, 0,0) ">
<use xlink:href="#mc_podio_0_Layer0_0_MEMBER_2_FILL"/>
</g>

<g transform="matrix( 1, 0, 0, 1, 0,0) ">
<use xlink:href="#mc_podio_0_Layer0_0_MEMBER_3_FILL"/>
</g>

<g transform="matrix( 1, 0, 0, 1, 0,0) ">
<use xlink:href="#mc_podio_0_Layer0_0_MEMBER_4_FILL"/>
</g>

<g transform="matrix( 1, 0, 0, 1, 0,0) ">
<use xlink:href="#mc_podio_0_Layer0_0_MEMBER_5_FILL"/>
</g>

<g transform="matrix( 1, 0, 0, 1, 0,0) ">
<use xlink:href="#mc_podio_0_Layer0_0_MEMBER_6_FILL"/>
</g>

<g transform="matrix( 1, 0, 0, 1, 0,0) ">
<use xlink:href="#mc_podio_0_Layer0_0_MEMBER_7_FILL"/>
</g>

<g transform="matrix( 1, 0, 0, 1, 0,0) ">
<use xlink:href="#mc_podio_0_Layer0_0_MEMBER_8_FILL"/>
</g>

<g transform="matrix( 1, 0, 0, 1, 0,0) ">
<use xlink:href="#mc_podio_0_Layer0_0_MEMBER_9_FILL"/>
</g>

<g transform="matrix( 1, 0, 0, 1, 0,0) ">
<use xlink:href="#mc_podio_0_Layer0_0_MEMBER_10_FILL"/>
</g>

<g transform="matrix( 1, 0, 0, 1, 0,0) ">
<use xlink:href="#mc_podio_0_Layer0_0_MEMBER_11_FILL"/>
</g>
</g>
</g>
</svg>
