<svg xmlns="http://www.w3.org/2000/svg" xmlns:xlink="http://www.w3.org/1999/xlink" preserveAspectRatio="none" width="459" height="155" viewBox="0 0 459 155"><defs><path fill="#DADADA" d="M379 137.1l-6 .9-349 8-24 9 409-3 50-17q-33.1-1.85-62.85.4-9.3.7-17.15 1.7z" id="a"/><path fill="#FFB600" d="M342 146l9-82h-97l26.55-62.05L70.65.55 118 68H11l13 78h318z" id="b"/><path fill="#956C00" d="M381 71l-30-7-9 82 31-8 8-67z" id="c"/><path fill="#956C00" d="M254 64h28l26.05-55.95-27.8-6.7L254 64z" id="d"/><path fill="#E4A400" d="M342 146l7-67q-146.25 32.5-253.75 34-33.6.45-59.3-2.2-12.8-1.35-18.95-2.8l7 38h318z" id="e"/><path fill="#FF6A00" d="M219 45q0-13.7-9.65-23.35Q199.65 12 186 12q-13.7 0-23.35 9.65Q153 31.3 153 45q0 13.65 9.65 23.35Q172.3 78 186 78q13.65 0 23.35-9.65Q219 58.65 219 45z" id="f"/><path fill="#FFF" d="M203.45 45.4l.55-2.55h-9.55l-.55 2.55h9.55m.55-5.65q1.75-1.4 2.3-3.85l.15-1.35v-.05q0-1.85-1.25-2.9-1.25-1.05-3.45-1.05-2.65 0-4.4 1.45-1.85 1.45-2.35 3.9l-.1.65v.7q0 1.8 1.25 2.85 1.3 1.05 3.4 1.05 2.6 0 4.45-1.4m-.7-4.5l-.1.45q-.3 1.5-1.15 2.35-.8.85-2 .85-.95 0-1.5-.55-.55-.65-.55-1.5l.1-.85q.4-1.6 1.2-2.35.85-.9 2-.9.95 0 1.45.6.55.55.55 1.5v.4z" id="g"/><path fill="#FFF" d="M172.8 39.25q6.35 0 9.3-2.95l-3.9 23.2h-10.7l-1.3 7.8h30.55l1.3-7.8h-10.9l5.7-33.95h-6.9q-4.05 6.15-13.8 6.15l-1.3 7.55h1.95z" id="h"/><path fill="#795900" d="M71.45 107.85l-.55 2.55h9.55l.55-2.55h-9.55m7.3-12.3q-2.65 0-4.4 1.45-1.85 1.45-2.35 3.9l-.1.65v.7q0 1.8 1.25 2.85 1.3 1.05 3.4 1.05 2.6 0 4.45-1.4 1.75-1.4 2.3-3.85l.15-1.35v-.05q0-1.85-1.25-2.9-1.25-1.05-3.45-1.05m-.45 2.2q.95 0 1.45.6.55.55.55 1.5v.4l-.1.45q-.3 1.5-1.15 2.35-.8.85-2 .85-.95 0-1.5-.55-.55-.65-.55-1.5l.1-.85q.4-1.6 1.2-2.35.85-.9 2-.9z" id="i"/><path fill="#795900" d="M57.35 95.7q1.4 1.25 1.4 3.25 0 2.55-2.8 5.4-2.65 2.65-17.75 11.9l-1 7.75h26.3l1-6.75H46.55q7.75-3.9 12.35-6.55 4.2-2.55 6.2-5.25 2.05-2.8 2.05-6.55 0-4.85-3.65-8.05-3.55-3.2-9.15-3.2-5.05 0-8.85 3.1-3.7 3.1-5.15 8.5l7.3 1.75q1.5-6.5 6.35-6.5 2 0 3.35 1.2z" id="j"/><path fill="#795900" d="M318 103.85h-9.55l-.55 2.55h9.55l.55-2.55m-9-6.95l-.1.65v.7q0 1.8 1.25 2.85 1.3 1.05 3.4 1.05 2.6 0 4.45-1.4 1.75-1.4 2.3-3.85l.15-1.35v-.05q0-1.85-1.25-2.9-1.25-1.05-3.45-1.05-2.65 0-4.4 1.45-1.85 1.45-2.35 3.9m3.1.1q.4-1.6 1.2-2.35.85-.9 2-.9.95 0 1.45.6.55.55.55 1.5v.4l-.1.45q-.3 1.5-1.15 2.35-.8.85-2 .85-.95 0-1.5-.55-.55-.65-.55-1.5l.1-.85z" id="k"/><path fill="#795900" d="M294.1 95.05q1.4 1.1 1.4 3.05 0 4.5-6.4 4.5h-3.8l-.8 6.05h2.6q2.55 0 3.75.3 1.3.4 2.25 1.55.95 1.25.95 2.9 0 2.15-1.55 3.6-1.55 1.4-4.25 1.4-5.2 0-6.8-5.65l-6.95 1.3q.9 4.75 4.7 7.75 3.8 3.05 9.55 3.05 6.3 0 10-3.25 3.65-3.2 3.65-7.7 0-2.5-1.45-4.8-1.5-2.25-4.3-3.3 3.35-.6 5.15-2.95 1.9-2.45 1.9-5.45 0-4.45-3.6-7.1-3.45-2.65-9.2-2.65-9.55 0-13.3 8.55l7 1.95q1.85-4.25 5.95-4.25 2.2 0 3.55 1.15z" id="l"/></defs><use xlink:href="#a" transform="translate(0 -.55)"/><use xlink:href="#b" transform="translate(0 -.55)"/><use xlink:href="#c" transform="translate(0 -.55)"/><use xlink:href="#d" transform="translate(0 -.55)"/><use xlink:href="#e" transform="translate(0 -.55)"/><use xlink:href="#f" transform="translate(0 -.55)"/><use xlink:href="#g" transform="translate(0 -.55)"/><use xlink:href="#h" transform="translate(0 -.55)"/><use xlink:href="#i" transform="translate(0 -.55)"/><use xlink:href="#j" transform="translate(0 -.55)"/><use xlink:href="#k" transform="translate(0 -.55)"/><use xlink:href="#l" transform="translate(0 -.55)"/></svg>