<svg xmlns="http://www.w3.org/2000/svg" xmlns:xlink="http://www.w3.org/1999/xlink" preserveAspectRatio="none" width="467" height="173" viewBox="0 0 467 173"><defs><filter id="a" x="-20%" y="-20%" width="140%" height="140%" color-interpolation-filters="sRGB"><feColorMatrix in="SourceGraphic" values="0.34 0 0 0 0.2627450980392157 0 0.34 0 0 0.396078431372549 0 0 0.34 0 0.396078431372549 0 0 0 1 0" result="result1"/></filter><filter id="h" x="-20%" y="-20%" width="140%" height="140%" color-interpolation-filters="sRGB"><feColorMatrix in="SourceGraphic" values="0.34 0 0 0 0.396078431372549 0 0.34 0 0 0.5294117647058824 0 0 0.34 0 0.5294117647058824 0 0 0 1 0" result="result1"/></filter><g id="b"><path fill="#999" d="M86-38.65l-6.6-3.7v95.2l6.6 3.7v-95.2m-5 1.75l.95.5v5.8l-.95-.5v-5.8m2.1 1.15l.95.5-.05 5.9-.9-.55v-5.85m-2.1 6.9l.95.5v5.85l-.95-.55v-5.8m2.1 1.15l.95.55-.05 5.8-.9-.55v-5.8M81-20.6l.95.55v5.8L81-14.8v-5.8m2.1 1.15l.9.55.05 5.8-.95-.55v-5.8M81-4.2l.95.5v5.85l-.95-.5V-4.2m3.05-6.7v5.85l-.95-.55v-5.8l.95.5m-2.1-1.15v5.85L81-6.75v-5.8l.95.5M83.1-3l.95.5v5.8l-.95-.5V-3M81 3.85l.95.55v5.8L81 9.65v-5.8m2.1 1.2l.95.5V12l-.95-.55v-.6h.05l-.05-5.8m0 9l.95.5v5.8l-.95-.5v-5.8m-2.1-1.2l.95.5v5.85l-.95-.5v-5.85m2.1 9.25l.95.5v6.45l-.95-.55v-.65h.05l-.05-5.75M81 20.9l.95.55v5.8L81 26.7v-5.8m0 9l.95.5v5.85L81 35.7v-5.8m2.1 1.2l.95.45v5.85l-.95-.5v-5.8m.95 14.4l-.9-.55-.05-5.85.95.55v5.85m-2.1-7v5.8l-.95-.55v-5.8l.95.55z"/><path fill="#FFF" d="M81.95 44.3v-5.8l-.95-.55v5.8l.95.55m1.2.65l.9.55v-5.85l-.95-.55.05 5.85m.9-13.4l-.95-.45v5.8l.95.5v-5.85m-2.1-1.15l-.95-.5v5.8l.95.55V30.4m0-8.95L81 20.9v5.8l.95.55v-5.8m2.1 1.15l-.95-.5.05 5.75h-.05v.65l.95.55V22.6m-2.1-9.25l-.95-.5v5.85l.95.5v-5.85m2.1 1.2l-.95-.5v5.8l.95.5v-5.8m0-9l-.95-.5.05 5.8h-.05v.6l.95.55V5.55m-2.1-1.15L81 3.85v5.8l.95.55V4.4m2.1-6.9L83.1-3v5.8l.95.5v-5.8m-2.1-3.7v-5.85l-.95-.5v5.8l.95.55m2.1 1.15v-5.85l-.95-.5v5.8l.95.55m-2.1 1.35L81-4.2v5.85l.95.5V-3.7M84-18.9l-.9-.55v5.8l.95.55-.05-5.8m-2.05-1.15L81-20.6v5.8l.95.55v-5.8m2.1-7.1l-.95-.55v5.8l.9.55.05-5.8m-2.1-1.2l-.95-.5v5.8l.95.55v-5.85m2.1-6.9l-.95-.5v5.85l.9.55.05-5.9m-2.1-1.15l-.95-.5v5.8l.95.5v-5.8m-7.1 74.35H73.2v6.2h1.65v-6.2m-5.35 0v6.2h1.65v-6.2H69.5m-5.55 0H62.3v6.2h1.65v-6.2m3.6 0H65.9v6.2h1.65v-6.2m-3.6-8.55H62.3v6.2h1.65v-6.2m3.6 0H65.9v6.2h1.65v-6.2m7.3 6.2v-6.2H73.2v6.2h1.65m-3.7 0v-6.2H69.5v6.2h1.65M56.6 44.15v-6.2H55v6.2h1.6m-3.7-6.2h-1.65v6.2h1.65v-6.2m7.3 0h-1.65v6.2h1.65v-6.2M55 29.4v6.2h1.6v-6.2H55m-2.1 0h-1.65v6.2h1.65v-6.2m7.3 0h-1.65v6.2h1.65v-6.2m0-8.5h-1.65v6.2h1.65v-6.2m-7.3 0h-1.65v6.2h1.65v-6.2m3.7 0H55v6.2h1.6v-6.2M55 10.1h1.6V3.85H55v6.25m1.6 2.25H55v6.2h1.6v-6.2m3.6 0h-1.65v6.2h1.65v-6.2m-7.3 0h-1.65v6.2h1.65v-6.2m0-8.5h-1.65v6.25h1.65V3.85m7.3 0h-1.65v6.25h1.65V3.85M71.15 20.9H69.5v6.2h1.65v-6.2m-1.65-8.55v6.2h1.65v-6.2H69.5m5.35 8.55H73.2v6.2h1.65v-6.2m-10.9 0H62.3v6.2h1.65v-6.2m3.6 0H65.9v6.2h1.65v-6.2m0-8.55H65.9v6.2h1.65v-6.2m-3.6 0H62.3v6.2h1.65v-6.2m0-8.5H62.3v6.25h1.65V3.85m3.6 0H65.9v6.25h1.65V3.85m7.3 8.5H73.2v6.2h1.65v-6.2m-3.7-2.25V3.85H69.5v6.25h1.65m2.05-6.25v6.25h1.65V3.85H73.2M71.15-4.7H69.5v6.2h1.65v-6.2m-1.65-8.9v6.2h1.65v-6.2H69.5m5.35 8.9H73.2v6.2h1.65v-6.2m-7.3 0H65.9v6.2h1.65v-6.2m-3.6 0H62.3v6.2h1.65v-6.2m3.6-8.9H65.9v6.2h1.65v-6.2m-3.6 0H62.3v6.2h1.65v-6.2m0-8.6H62.3v6.2h1.65v-6.2m3.6 0H65.9v6.2h1.65v-6.2m3.6 6.2v-6.2H69.5v6.2h1.65m3.7 2.4H73.2v6.2h1.65v-6.2m0-8.6H73.2v6.2h1.65v-6.2M60.2-4.7h-1.65v6.2h1.65v-6.2m-7.3 0h-1.65v6.2h1.65v-6.2m3.7 0H55v6.2h1.6v-6.2m0-8.9H55v6.2h1.6v-6.2M55-22.2v6.2h1.6v-6.2H55m5.2 8.6h-1.65v6.2h1.65v-6.2m-7.3 0h-1.65v6.2h1.65v-6.2m0-8.6h-1.65v6.2h1.65v-6.2m7.3 0h-1.65v6.2h1.65v-6.2m-7.3-8.75h-1.65v6.25h1.65v-6.25m3.7 0H55v6.25h1.6v-6.25m3.6 0h-1.65v6.25h1.65v-6.25m-7.3-8.55h-1.65v6.2h1.65v-6.2m3.7 0H55v6.2h1.6v-6.2m3.6 0h-1.65v6.2h1.65v-6.2m10.95 8.55H69.5v6.25h1.65v-6.25M69.5-39.5v6.2h1.65v-6.2H69.5m5.35 8.55H73.2v6.25h1.65v-6.25m-10.9 0H62.3v6.25h1.65v-6.25m3.6 0H65.9v6.25h1.65v-6.25m0-8.55H65.9v6.2h1.65v-6.2m-3.6 0H62.3v6.2h1.65v-6.2m10.9 0H73.2v6.2h1.65v-6.2z"/><path fill="#B3B3B3" d="M79.4-42.35H48.05v95.2H79.4v-95.2m-6.2 2.85h1.65v6.2H73.2v-6.2m-10.9 0h1.65v6.2H62.3v-6.2m3.6 0h1.65v6.2H65.9v-6.2m0 8.55h1.65v6.25H65.9v-6.25m-3.6 0h1.65v6.25H62.3v-6.25m10.9 0h1.65v6.25H73.2v-6.25m-3.7-2.35v-6.2h1.65v6.2H69.5m0 2.35h1.65v6.25H69.5v-6.25M58.55-39.5h1.65v6.2h-1.65v-6.2m-3.55 0h1.6v6.2H55v-6.2m-3.75 0h1.65v6.2h-1.65v-6.2m7.3 8.55h1.65v6.25h-1.65v-6.25m-3.55 0h1.6v6.25H55v-6.25m-3.75 0h1.65v6.25h-1.65v-6.25m7.3 8.75h1.65v6.2h-1.65v-6.2m-7.3 0h1.65v6.2h-1.65v-6.2m0 8.6h1.65v6.2h-1.65v-6.2m7.3 0h1.65v6.2h-1.65v-6.2M55-16v-6.2h1.6v6.2H55m0 2.4h1.6v6.2H55v-6.2m0 8.9h1.6v6.2H55v-6.2m-3.75 0h1.65v6.2h-1.65v-6.2m7.3 0h1.65v6.2h-1.65v-6.2M73.2-22.2h1.65v6.2H73.2v-6.2m0 8.6h1.65v6.2H73.2v-6.2m-2.05-8.6v6.2H69.5v-6.2h1.65m-5.25 0h1.65v6.2H65.9v-6.2m-3.6 0h1.65v6.2H62.3v-6.2m0 8.6h1.65v6.2H62.3v-6.2m3.6 0h1.65v6.2H65.9v-6.2m-3.6 8.9h1.65v6.2H62.3v-6.2m3.6 0h1.65v6.2H65.9v-6.2m7.3 0h1.65v6.2H73.2v-6.2m-3.7-2.7v-6.2h1.65v6.2H69.5m0 2.7h1.65v6.2H69.5v-6.2m3.7 14.8V3.85h1.65v6.25H73.2m-2.05-6.25v6.25H69.5V3.85h1.65m2.05 8.5h1.65v6.2H73.2v-6.2m-7.3-8.5h1.65v6.25H65.9V3.85m-3.6 0h1.65v6.25H62.3V3.85m0 8.5h1.65v6.2H62.3v-6.2m3.6 0h1.65v6.2H65.9v-6.2m0 8.55h1.65v6.2H65.9v-6.2m-3.6 0h1.65v6.2H62.3v-6.2m10.9 0h1.65v6.2H73.2v-6.2m-3.7-2.35v-6.2h1.65v6.2H69.5m0 2.35h1.65v6.2H69.5v-6.2M58.55 3.85h1.65v6.25h-1.65V3.85m-7.3 0h1.65v6.25h-1.65V3.85m0 8.5h1.65v6.2h-1.65v-6.2m7.3 0h1.65v6.2h-1.65v-6.2m-3.55 0h1.6v6.2H55v-6.2m1.6-2.25H55V3.85h1.6v6.25M55 20.9h1.6v6.2H55v-6.2m-3.75 0h1.65v6.2h-1.65v-6.2m7.3 0h1.65v6.2h-1.65v-6.2m0 8.5h1.65v6.2h-1.65v-6.2m-7.3 0h1.65v6.2h-1.65v-6.2M55 35.6v-6.2h1.6v6.2H55m3.55 2.35h1.65v6.2h-1.65v-6.2m-7.3 0h1.65v6.2h-1.65v-6.2m5.35 0v6.2H55v-6.2h1.6m14.55-8.55v6.2H69.5v-6.2h1.65m3.7 0v6.2H73.2v-6.2h1.65m-8.95 0h1.65v6.2H65.9v-6.2m-3.6 0h1.65v6.2H62.3v-6.2m3.6 8.55h1.65v6.2H65.9v-6.2m-3.6 0h1.65v6.2H62.3v-6.2m7.2 6.2v-6.2h1.65v6.2H69.5m3.7-6.2h1.65v6.2H73.2v-6.2z"/></g><g id="c"><path fill="#CCC" d="M117.7-56.5h-16.65V-24h16.65v-32.5m-12.95 1.55h.85v3.3h-.85v-3.3m-2 0h.9v3.3h-.9v-3.3m0 4.55h.9v3.3h-.9v-3.3m2 0h.85v3.3h-.85v-3.3m1.9-4.55h.9v3.3h-.9v-3.3m0 4.55h.9v3.3h-.9v-3.3m1.95 0h.9v3.3h-.9v-3.3m.9-1.25h-.9v-3.3h.9v3.3m1.05 0v-3.3h.85v3.3h-.85m3.9-3.3h.85v3.3h-.85v-3.3m-2 0h.9v3.3h-.9v-3.3m0 4.55h.9v3.3h-.9v-3.3m2 0h.85v3.3h-.85v-3.3m-3.9 0h.85v3.3h-.85v-3.3m1.9 4.65h.9v3.3h-.9v-3.3m2 0h.85v3.3h-.85v-3.3m0 4.55h.85v3.3h-.85v-3.3m-2 0h.9v3.3h-.9v-3.3m-1.05 0v3.3h-.85v-3.3h.85m0-4.55v3.3h-.85v-3.3h.85m-4.75 0h.9v3.3h-.9v-3.3m1.95 0h.9v3.3h-.9v-3.3m-5.85 0h.9v3.3h-.9v-3.3m2 0h.85v3.3h-.85v-3.3m0 4.55h.85v3.3h-.85v-3.3m-2 0h.9v3.3h-.9v-3.3m3.9 0h.9v3.3h-.9v-3.3m1.95 0h.9v3.3h-.9v-3.3m-1.95 4.75h.9v3.3h-.9v-3.3m0 4.55h.9v3.3h-.9v-3.3m3.9-1.25v-3.3h.85v3.3h-.85m-1.05-3.3v3.3h-.9v-3.3h.9m-.9 4.55h.9v3.3h-.9v-3.3m-3.85-4.55h.85v3.3h-.85v-3.3m-2 0h.9v3.3h-.9v-3.3m0 4.55h.9v3.3h-.9v-3.3m2 0h.85v3.3h-.85v-3.3m5.8 3.3v-3.3h.85v3.3h-.85m3.9-7.85h.85v3.3h-.85v-3.3m-2 0h.9v3.3h-.9v-3.3m0 4.55h.9v3.3h-.9v-3.3m2 0h.85v3.3h-.85v-3.3z"/><path fill="#FFF" d="M115.3-31.9h-.85v3.3h.85v-3.3m-1.95 0h-.9v3.3h.9v-3.3m0-4.55h-.9v3.3h.9v-3.3m1.95 0h-.85v3.3h.85v-3.3m-4.75 4.55v3.3h.85v-3.3h-.85m-4.95 0h-.85v3.3h.85v-3.3m-1.95 0h-.9v3.3h.9v-3.3m0-4.55h-.9v3.3h.9v-3.3m1.95 0h-.85v3.3h.85v-3.3m3.9 4.55h-.9v3.3h.9v-3.3m0-1.25v-3.3h-.9v3.3h.9m1.05-3.3v3.3h.85v-3.3h-.85m-3 4.55h-.9v3.3h.9v-3.3m0-4.55h-.9v3.3h.9v-3.3m1.95-4.75h-.9v3.3h.9v-3.3m-1.95 0h-.9v3.3h.9v-3.3m-3.9 0h-.9v3.3h.9v-3.3m1.95 0h-.85v3.3h.85v-3.3m0-4.55h-.85v3.3h.85v-3.3m-1.95 0h-.9v3.3h.9v-3.3m5.85 0h-.9v3.3h.9v-3.3m-1.95 0h-.9v3.3h.9v-3.3m3.85 3.3v-3.3h-.85v3.3h.85m0 4.55v-3.3h-.85v3.3h.85m1.95-3.3h-.9v3.3h.9v-3.3m1.95 0h-.85v3.3h.85v-3.3m0-4.55h-.85v3.3h.85v-3.3m-1.95 0h-.9v3.3h.9v-3.3m-1.95-4.65h-.85v3.3h.85v-3.3m3.9 0h-.85v3.3h.85v-3.3m-1.95 0h-.9v3.3h.9v-3.3m0-4.55h-.9v3.3h.9v-3.3m1.95 0h-.85v3.3h.85v-3.3m-4.75 0v3.3h.85v-3.3h-.85m-1.95 3.3h.9v-3.3h-.9v3.3m.9 1.25h-.9v3.3h.9v-3.3m-1.95 0h-.9v3.3h.9v-3.3m0-4.55h-.9v3.3h.9v-3.3m-1.95 4.55h-.85v3.3h.85v-3.3m-1.95 0h-.9v3.3h.9v-3.3m0-4.55h-.9v3.3h.9v-3.3m1.95 0h-.85v3.3h.85v-3.3m13.45 23.3l-.5-.25v3.1l.5.25v-3.1m-.5-1.45l.5.25v-3.05l-.5-.3v3.1m1.65 2.1l-.5-.3v3.1l.5.3V-31m0-4.3l-.5-.25v3.05l.5.3v-3.1m0-4.45l-.5-.3v3.1l.5.3v-3.1m-1.15 2.45v-3.05l-.5-.3v3.1l.5.25m-.5-8.9l.5.25v-3.1l-.5-.25v3.1m.5 1.55l-.5-.3v3.1l.5.3v-3.1m1.15.65l-.5-.3v3.1l.5.25V-44m0-4.4l-.5-.3v3.1l.5.3v-3.1m-1.65-5.2v3.1l.5.3v-3.1l-.5-.3m1.15.65v3.05l.5.3v-3.1l-.5-.25z"/><path fill="#999" d="M121.25-54.5l-3.55-2V-24l3.55 1.95V-54.5m-1.55 4.6v-3.05l.5.25v3.1l-.5-.3m-1.15-.6v-3.1l.5.3v3.1l-.5-.3m1.15 1.8l.5.3v3.1l-.5-.3v-3.1m0 4.4l.5.3v3.05l-.5-.25v-3.1m-1.15-.65l.5.3v3.1l-.5-.3v-3.1m.5-1l-.5-.25v-3.1l.5.25v3.1m0 5.6v3.05l-.5-.25v-3.1l.5.3m.65.3l.5.3v3.1l-.5-.3v-3.1m0 4.5l.5.25v3.1l-.5-.3v-3.05m0 4.25l.5.3v3.1l-.5-.3v-3.1m-.65-1.55l-.5-.25v-3.1l.5.3v3.05m-.5.95l.5.25v3.1l-.5-.25v-3.1z"/></g><g id="d"><path fill="#999" d="M125.6-41.25l-5.05-2.85V2.6l5.05 2.8v-46.65m-2.25 2.2l.75.4v4.5l-.75-.45v-4.45m-1.6-.9l.7.4v4.45l-.7-.4v-4.45m0 6.15l.75.4-.05 4.45-.7-.4v-4.45m1.6.9l.75.4v4.45l-.75-.4v-4.45m-1.6 5.4l.7.45v4.4l-.7-.4v-4.45m1.6.9l.75.45v4.4l-.75-.4v-4.45m-1.6 5.25l.7.4v4.45l-.7-.4v-4.45m1.6.9l.75.4v4.45l-.75-.4v-4.45m0 6.4l.75.4v4.45l-.75-.4v-4.45m-1.6-.9l.75.4v4.45l-.75-.4v-4.45m1.6 7.05l.75.4v4.45l-.7-.4-.05-4.45m-1.6-.9l.75.4v4.45l-.75-.4V-8.8z"/><path fill="#FFF" d="M122.5-8.4l-.75-.4v4.45l.75.4V-8.4m1.6.9l-.75-.4.05 4.45.7.4V-7.5m-1.6-7.05l-.75-.4v4.45l.75.4v-4.45m1.6.9l-.75-.4v4.45l.75.4v-4.45m0-6.4l-.75-.4V-16l.75.4v-4.45m-1.65-.9l-.7-.4v4.45l.7.4v-4.45m1.65-5.2l-.75-.45v4.45l.75.4v-4.4m-1.65-.9l-.7-.45v4.45l.7.4v-4.4m1.65-5.45l-.75-.4v4.45l.75.4v-4.45m-1.6-.9l-.75-.4v4.45l.7.4.05-4.45m-.05-6.15l-.7-.4v4.45l.7.4v-4.45m1.65.9l-.75-.4v4.45l.75.45v-4.5m-12.6 28.1v-4.75h-1.25v4.75h1.25m5.6 1.8h-1.3v4.7h1.3v-4.7m-2.85 0H113v4.7h1.25v-4.7m-4 0v4.7h1.25v-4.7h-1.25m-7.1 0h-1.25v4.7h1.25v-4.7m2.75 0h-1.25v4.7h1.25v-4.7m2.85 0h-1.3v4.7h1.3v-4.7m0-6.55h-1.3v4.75h1.3v-4.75m-2.85 0h-1.25v4.75h1.25v-4.75m-2.75 0h-1.25v4.75h1.25v-4.75m0-6.8h-1.25v4.7h1.25v-4.7m2.75 0h-1.25v4.7h1.25v-4.7m2.85 0h-1.3v4.7h1.3v-4.7m8.35 6.8h-1.3v4.75h1.3v-4.75m0-6.8h-1.3v4.7h1.3v-4.7m-5.6 4.7v-4.7h-1.25v4.7h1.25m2.75 2.1H113v4.75h1.25v-4.75m0-6.8H113v4.7h1.25v-4.7M100.3-8.75h-1.25v4.7h1.25v-4.7m0-6.55h-1.25v4.75h1.25v-4.75m0-6.8h-1.25v4.7h1.25v-4.7m0-6.55h-1.25v4.7h1.25v-4.7m0-2v-4.7h-1.25v4.7h1.25M99.05-41.9v4.75h1.25v-4.75h-1.25m12.45 13.25h-1.25v4.7h1.25v-4.7m5.6 0h-1.3v4.7h1.3v-4.7m-1.3-2h1.3v-4.7h-1.3v4.7m-1.55 2H113v4.7h1.25v-4.7m0-6.7H113v4.7h1.25v-4.7m-4 0v4.7h1.25v-4.7h-1.25m-1.5 6.7h-1.3v4.7h1.3v-4.7m-5.6 0h-1.25v4.7h1.25v-4.7m2.75 0h-1.25v4.7h1.25v-4.7m-2.75-6.7h-1.25v4.7h1.25v-4.7m2.75 0h-1.25v4.7h1.25v-4.7m2.85 0h-1.3v4.7h1.3v-4.7m-1.3-1.8h1.3v-4.75h-1.3v4.75m-4.3-4.75h-1.25v4.75h1.25v-4.75m2.75 0h-1.25v4.75h1.25v-4.75m9.9 0v4.75h1.3v-4.75h-1.3m-4.3 4.75v-4.75h-1.25v4.75h1.25m2.75 0v-4.75H113v4.75h1.25z"/><path fill="#CCC" d="M120.55-44.1H96.6V2.6h23.95v-46.7m-6.3 2.2v4.75H113v-4.75h1.25m-2.75 0v4.75h-1.25v-4.75h1.25m4.3 4.75v-4.75h1.3v4.75h-1.3m-11.15-4.75h1.25v4.75h-1.25v-4.75m-2.75 0h1.25v4.75h-1.25v-4.75m6.85 4.75h-1.3v-4.75h1.3v4.75m-1.3 1.8h1.3v4.7h-1.3v-4.7m-2.8 0h1.25v4.7h-1.25v-4.7m-2.75 0h1.25v4.7h-1.25v-4.7m2.75 6.7h1.25v4.7h-1.25v-4.7m-2.75 0h1.25v4.7h-1.25v-4.7m5.55 0h1.3v4.7h-1.3v-4.7m2.8-2v-4.7h1.25v4.7h-1.25m2.75-4.7h1.25v4.7H113v-4.7m0 6.7h1.25v4.7H113v-4.7m4.1-2h-1.3v-4.7h1.3v4.7m-1.3 2h1.3v4.7h-1.3v-4.7m-5.55 0h1.25v4.7h-1.25v-4.7m-11.2-8.5v-4.75h1.25v4.75h-1.25m1.25 1.8v4.7h-1.25v-4.7h1.25m-1.25 6.7h1.25v4.7h-1.25v-4.7m0 6.55h1.25v4.7h-1.25v-4.7m0 6.8h1.25v4.75h-1.25v-4.75m0 6.55h1.25v4.7h-1.25v-4.7M113-22.1h1.25v4.7H113v-4.7m0 6.8h1.25v4.75H113v-4.75m-1.5-6.8v4.7h-1.25v-4.7h1.25m4.3 0h1.3v4.7h-1.3v-4.7m0 6.8h1.3v4.75h-1.3v-4.75m-8.35-6.8h1.3v4.7h-1.3v-4.7m-2.8 0h1.25v4.7h-1.25v-4.7m-2.75 0h1.25v4.7h-1.25v-4.7m0 6.8h1.25v4.75h-1.25v-4.75m2.75 0h1.25v4.75h-1.25v-4.75m2.8 0h1.3v4.75h-1.3v-4.75m0 6.55h1.3v4.7h-1.3v-4.7m-2.8 0h1.25v4.7h-1.25v-4.7m-2.75 0h1.25v4.7h-1.25v-4.7m8.35 4.7v-4.7h1.25v4.7h-1.25m2.75-4.7h1.25v4.7H113v-4.7m2.8 0h1.3v4.7h-1.3v-4.7m-4.3-6.55v4.75h-1.25v-4.75h1.25z"/></g><g id="e"><path fill="#CCC" d="M121.85-29.9h-28.3v55.25h28.3V-29.9m-18.8 2.65h1.5v5.55h-1.5v-5.55m9.85 0h1.5v5.55h-1.5v-5.55m-3.25 0h1.5v5.55h-1.5v-5.55m-3.25 0h1.5v5.55h-1.5v-5.55m9.85 0h1.5v5.55h-1.5v-5.55m-19.85 0h1.5v5.55h-1.5v-5.55m3.35 13.3v-5.6h1.5v5.6h-1.5m-3.35-5.6h1.5v5.6h-1.5v-5.6m0 15.7h1.5V1.7h-1.5v-5.55M97.9-6h-1.5v-5.6h1.5V-6m1.85 0v-5.6h1.5V-6h-1.5m13.15-13.55h1.5v5.6h-1.5v-5.6m4.85 5.6h-1.5v-5.6h1.5v5.6m-8.1-5.6h1.5v5.6h-1.5v-5.6m-3.25 0h1.5v5.6h-1.5v-5.6m-3.35 0h1.5v5.6h-1.5v-5.6m6.6 7.95h1.5V-6h-1.5v-5.6m-3.25 0h1.5V-6h-1.5v-5.6m-3.35 0h1.5V-6h-1.5v-5.6m0 7.75h1.5V1.7h-1.5v-5.55m6.6 0h1.5V1.7h-1.5v-5.55m-3.25 0h1.5V1.7h-1.5v-5.55m6.5-7.75h1.5V-6h-1.5v-5.6m0 7.75h1.5V1.7h-1.5v-5.55m3.35 0h1.5V1.7h-1.5v-5.55m0-7.75h1.5V-6h-1.5v-5.6m-15-15.65v5.55h-1.5v-5.55h1.5m-1.5 23.4h1.5V1.7h-1.5v-5.55M112.9 4.2h1.5v5.6h-1.5V4.2m0 7.75h1.5v5.55h-1.5v-5.55m3.35-7.75h1.5v5.6h-1.5V4.2m0 7.75h1.5v5.55h-1.5v-5.55m-6.6-7.75h1.5v5.6h-1.5V4.2m-3.25 0h1.5v5.6h-1.5V4.2m-3.35 0h1.5v5.6h-1.5V4.2m0 7.75h1.5v5.55h-1.5v-5.55m6.6 0h1.5v5.55h-1.5v-5.55m-3.25 0h1.5v5.55h-1.5v-5.55m-5.15-7.75v5.6h-1.5V4.2h1.5m0 7.75v5.55h-1.5v-5.55h1.5M96.4 4.2h1.5v5.6h-1.5V4.2m0 7.75h1.5v5.55h-1.5v-5.55z"/><path fill="#FFF" d="M97.9 11.95h-1.5v5.55h1.5v-5.55m0-7.75h-1.5v5.6h1.5V4.2m3.35 13.3v-5.55h-1.5v5.55h1.5m0-7.7V4.2h-1.5v5.6h1.5m6.65 2.15h-1.5v5.55h1.5v-5.55m3.25 0h-1.5v5.55h1.5v-5.55m-6.6 0h-1.5v5.55h1.5v-5.55m0-7.75h-1.5v5.6h1.5V4.2m3.35 0h-1.5v5.6h1.5V4.2m3.25 0h-1.5v5.6h1.5V4.2m6.6 7.75h-1.5v5.55h1.5v-5.55m0-7.75h-1.5v5.6h1.5V4.2m-3.35 7.75h-1.5v5.55h1.5v-5.55m0-7.75h-1.5v5.6h1.5V4.2m-13.15-8.05h-1.5V1.7h1.5v-5.55m0-17.85v-5.55h-1.5v5.55h1.5m16.5 10.1h-1.5V-6h1.5v-5.6m0 7.75h-1.5V1.7h1.5v-5.55m-3.35 0h-1.5V1.7h1.5v-5.55m0-7.75h-1.5V-6h1.5v-5.6m-6.5 7.75h-1.5V1.7h1.5v-5.55m3.25 0h-1.5V1.7h1.5v-5.55m-6.6 0h-1.5V1.7h1.5v-5.55m0-7.75h-1.5V-6h1.5v-5.6m3.35 0h-1.5V-6h1.5v-5.6m3.25 0h-1.5V-6h1.5v-5.6m-6.6-7.95h-1.5v5.6h1.5v-5.6m3.35 0h-1.5v5.6h1.5v-5.6m3.25 0h-1.5v5.6h1.5v-5.6m5.1 5.6h1.5v-5.6h-1.5v5.6m-1.85-5.6h-1.5v5.6h1.5v-5.6M99.75-11.6V-6h1.5v-5.6h-1.5M96.4-6h1.5v-5.6h-1.5V-6m1.5 2.15h-1.5V1.7h1.5v-5.55m0-15.7h-1.5v5.6h1.5v-5.6m1.85 0v5.6h1.5v-5.6h-1.5m-1.85-7.7h-1.5v5.55h1.5v-5.55m19.85 0h-1.5v5.55h1.5v-5.55m-9.85 0h-1.5v5.55h1.5v-5.55m3.25 0h-1.5v5.55h1.5v-5.55m3.25 0h-1.5v5.55h1.5v-5.55m-9.85 0h-1.5v5.55h1.5v-5.55m19.6 44.9V12.4l-.85-.5v5.25l.85.5m1.9-4.2l-.85-.5v5.3l.85.45v-5.25m0-7.3l-.85-.45v5.25l.85.5v-5.3m-1.9-1.05l-.85-.5v5.3l.85.45V5.1m0-7.55l-.85-.5V2.3l.85.5v-5.25m1.9 1.05l-.85-.5v5.25l.85.5V-1.4m-1.9-8.3l-.85-.5v5.25l.85.45v-5.2m1.9 1.05l-.85-.5v5.25l.85.5v-5.25m0-7.5l-.85-.45v5.25l.85.5v-5.3m-2.75-1.5v5.25l.85.45v-5.25l-.85-.45m.85-1.55v-5.25l-.85-.5v5.25l.85.5m1.05-4.7v5.25l.85.55v-5.3l-.85-.5z"/><path fill="#999" d="M127.8-26.5l-5.95-3.4v55.25l5.95 3.35v-55.2m-2.6 7.85v-5.25l.85.5v5.3l-.85-.55m-1.05-5.8v5.25l-.85-.5v-5.25l.85.5m-.85 12.05v-5.25l.85.45v5.25l-.85-.45m1.9-4.2l.85.45v5.3l-.85-.5v-5.25m0 7.45l.85.5v5.25l-.85-.5v-5.25m-1.9-1.05l.85.5v5.2l-.85-.45v-5.25m1.9 8.3l.85.5v5.25l-.85-.5V-1.9m-1.9-1.05l.85.5V2.8l-.85-.5v-5.25m0 7.55l.85.5v5.25l-.85-.45V4.6m1.9 1.1l.85.45v5.3l-.85-.5V5.7m0 7.25l.85.5v5.25l-.85-.45v-5.3m-1.05-.55v5.25l-.85-.5V11.9l.85.5z"/></g><g id="f"><path fill="#CCC" d="M58.1-22H26.75v61.1H58.1V-22m-20.85 2.85h1.65V-13h-1.65v-6.15m-3.55 0h1.65V-13H33.7v-6.15m-2.1 0V-13h-1.65v-6.15h1.65M29.95-4.4v-6.2h1.65v6.2h-1.65m7.3-6.2h1.65v6.2h-1.65v-6.2m-3.55 0h1.65v6.2H33.7v-6.2m0 8.75h1.65v6.2H33.7v-6.2m3.55 0h1.65v6.2h-1.65v-6.2m-7.3 0h1.65v6.2h-1.65v-6.2m23.6-17.3V-13h-1.6v-6.15h1.6m-5.3 0h1.6V-13h-1.6v-6.15m-7.25 0h1.65V-13H41v-6.15M46.25-13H44.6v-6.15h1.65V-13m2 2.4h1.6v6.2h-1.6v-6.2m-7.25 0h1.65v6.2H41v-6.2m0 8.75h1.65v6.2H41v-6.2m7.25 0h1.6v6.2h-1.6v-6.2M44.6-4.4v-6.2h1.65v6.2H44.6m0 2.55h1.65v6.2H44.6v-6.2m7.35-8.75h1.6v6.2h-1.6v-6.2m0 8.75h1.6v6.2h-1.6v-6.2m0 8.6h1.6v6.2h-1.6v-6.2m-3.7 0h1.6v6.2h-1.6v-6.2m-3.65 0h1.65v6.2H44.6v-6.2m-3.6 0h1.65v6.2H41v-6.2m7.25 8.9h1.6v6.2h-1.6v-6.2m-7.25 0h1.65v6.2H41v-6.2m0 8.55h1.65v6.2H41v-6.2m7.25 0h1.6v6.2h-1.6v-6.2m-3.65 0h1.65v6.2H44.6v-6.2m0-2.35v-6.2h1.65v6.2H44.6m7.35-6.2h1.6v6.2h-1.6v-6.2m0 8.55h1.6v6.2h-1.6v-6.2M33.7 6.75h1.65v6.2H33.7v-6.2m3.55 0h1.65v6.2h-1.65v-6.2m-7.3 15.1v-6.2h1.65v6.2h-1.65m7.3-6.2h1.65v6.2h-1.65v-6.2m-3.55 0h1.65v6.2H33.7v-6.2m0 8.55h1.65v6.2H33.7v-6.2m3.55 0h1.65v6.2h-1.65v-6.2m-7.3 0h1.65v6.2h-1.65v-6.2m0-17.45h1.65v6.2h-1.65v-6.2z"/><path fill="#FFF" d="M31.6 6.75h-1.65v6.2h1.65v-6.2m0 17.45h-1.65v6.2h1.65v-6.2m7.3 0h-1.65v6.2h1.65v-6.2m-3.55 0H33.7v6.2h1.65v-6.2m0-8.55H33.7v6.2h1.65v-6.2m3.55 0h-1.65v6.2h1.65v-6.2m-8.95 0v6.2h1.65v-6.2h-1.65m8.95-8.9h-1.65v6.2h1.65v-6.2m-3.55 0H33.7v6.2h1.65v-6.2m18.2 17.45h-1.6v6.2h1.6v-6.2m0-8.55h-1.6v6.2h1.6v-6.2m-8.95 0v6.2h1.65v-6.2H44.6m1.65 8.55H44.6v6.2h1.65v-6.2m3.6 0h-1.6v6.2h1.6v-6.2m-7.2 0H41v6.2h1.65v-6.2m0-8.55H41v6.2h1.65v-6.2m7.2 0h-1.6v6.2h1.6v-6.2m-7.2-8.9H41v6.2h1.65v-6.2m3.6 0H44.6v6.2h1.65v-6.2m3.6 0h-1.6v6.2h1.6v-6.2m3.7 0h-1.6v6.2h1.6v-6.2m0-8.6h-1.6v6.2h1.6v-6.2m0-8.75h-1.6v6.2h1.6v-6.2m-7.3 8.75H44.6v6.2h1.65v-6.2M44.6-10.6v6.2h1.65v-6.2H44.6m5.25 8.75h-1.6v6.2h1.6v-6.2m-7.2 0H41v6.2h1.65v-6.2m0-8.75H41v6.2h1.65v-6.2m7.2 0h-1.6v6.2h1.6v-6.2M44.6-13h1.65v-6.15H44.6V-13m-1.95-6.15H41V-13h1.65v-6.15m7.2 0h-1.6V-13h1.6v-6.15m3.7 6.15v-6.15h-1.6V-13h1.6M31.6-1.85h-1.65v6.2h1.65v-6.2m7.3 0h-1.65v6.2h1.65v-6.2m-3.55 0H33.7v6.2h1.65v-6.2m0-8.75H33.7v6.2h1.65v-6.2m3.55 0h-1.65v6.2h1.65v-6.2m-8.95 0v6.2h1.65v-6.2h-1.65M31.6-13v-6.15h-1.65V-13h1.65m3.75-6.15H33.7V-13h1.65v-6.15m3.55 0h-1.65V-13h1.65v-6.15M61.85 31.2l.9.55V25.9l-.95-.5.05 5.8M59.7 30l.95.55v-5.8l-.95-.55V30m.95-13.35l-.95-.5V22l.95.5v-5.85m0-8.35l-.95-.55v5.85l.95.55V8.3m-.95-2.75l.95.55V.3l-.95-.55v5.8m3.05 12.3l-.95-.5v5.8l.95.5v-5.8m0-8.4l-.95-.5v5.8l.95.55V9.45M61.8 6.7l.95.55v-5.8L61.8.9v5.8m0-14.05v5.8l.95.55v-5.8l-.95-.55m0-8.05v5.85l.95.55v-5.9l-.95-.5M60.65-8l-.95-.55v5.85l.95.55V-8m0-8.05l-.95-.5v5.8l.95.5v-5.8z"/><path fill="#999" d="M64.7-18.3L58.1-22v61.1l6.6 3.7v-61.1m-5 1.75l.95.5v5.8l-.95-.5v-5.8m0 8l.95.55v5.85l-.95-.55v-5.85m2.1-1v-5.85l.95.5V-9l-.95-.55m0 8v-5.8l.95.55V-1l-.95-.55m.95 8.8l-.95-.55V.9l.95.55v5.8m-.95 1.7l.95.5v5.85l-.95-.55v-5.8m0 8.4l.95.5v5.8l-.95-.5v-5.8M60.65 6.1l-.95-.55v-5.8l.95.55v5.8m-.95 1.65l.95.55v5.85l-.95-.55V7.75m0 8.4l.95.5v5.85l-.95-.5v-5.85m.95 14.4L59.7 30v-5.8l.95.55v5.8m2.1 1.2l-.9-.55-.05-5.8.95.5v5.85z"/></g><g id="g"><path fill="#FFF" d="M103.85 38h-1.4v6.2h1.4V38m0-8.55h-1.4v6.15h1.4v-6.15m0-8.95h-1.4v6.2h1.4v-6.2m0-11.15v-6.2h-1.4v6.2h1.4m0 2.6h-1.4v6.2h1.4v-6.2m0-17.35h-1.4V.8h1.4v-6.2M82.1 26.7v-6.2h-1.65v6.2h1.65m13 17.5h1.65V38H95.1v6.2M93.15 38H91.5v6.2h1.65V38m7.2 0H98.7v6.2h1.65V38M82.1 44.2V38h-1.65v6.2h1.65m3.75-6.2H84.2v6.2h1.65V38m3.6 0H87.8v6.2h1.65V38m-7.35-2.4v-6.15h-1.65v6.15h1.65m3.75-6.15H84.2v6.15h1.65v-6.15m3.6 0H87.8v6.15h1.65v-6.15m7.3 6.15v-6.15H95.1v6.15h1.65m-3.6-6.15H91.5v6.15h1.65v-6.15m7.2 0H98.7v6.15h1.65v-6.15M82.1 18.15v-6.2h-1.65v6.2h1.65m18.25 2.35H98.7v6.2h1.65v-6.2m-3.6 0H95.1v6.2h1.65v-6.2m-3.6 0H91.5v6.2h1.65v-6.2m-7.3 0H84.2v6.2h1.65v-6.2m3.6 0H87.8v6.2h1.65v-6.2M82.1 9.35v-6.2h-1.65v6.2h1.65m7.35 2.6H87.8v6.2h1.65v-6.2m-3.6 0H84.2v6.2h1.65v-6.2m0-8.8H84.2v6.2h1.65v-6.2m3.6 0H87.8v6.2h1.65v-6.2m7.3 8.8H95.1v6.2h1.65v-6.2m0-2.6v-6.2H95.1v6.2h1.65m3.6 2.6H98.7v6.2h1.65v-6.2m-7.2 0H91.5v6.2h1.65v-6.2m0-8.8H91.5v6.2h1.65v-6.2m7.2 0H98.7v6.2h1.65v-6.2M82.1-5.4h-1.65V.8h1.65v-6.2m18.25 0H98.7V.8h1.65v-6.2m-3.6 0H95.1V.8h1.65v-6.2m-7.3 0H87.8V.8h1.65v-6.2m3.7 0H91.5V.8h1.65v-6.2m-7.3 0H84.2V.8h1.65v-6.2z"/><path fill="#CCC" d="M102.45-5.4h1.4v-2.9h-26.6v61.15h26.6V44.2h-1.4V38h1.4v-2.4h-1.4v-6.15h1.4V26.7h-1.4v-6.2h1.4v-2.35h-1.4v-6.2h1.4v-2.6h-1.4v-6.2h1.4V.8h-1.4v-6.2m-18.25 0h1.65V.8H84.2v-6.2m7.3 0h1.65V.8H91.5v-6.2m-3.7 0h1.65V.8H87.8v-6.2m7.3 0h1.65V.8H95.1v-6.2m3.6 0h1.65V.8H98.7v-6.2m-18.25 0h1.65V.8h-1.65v-6.2M98.7 3.15h1.65v6.2H98.7v-6.2m-7.2 0h1.65v6.2H91.5v-6.2m0 8.8h1.65v6.2H91.5v-6.2m7.2 0h1.65v6.2H98.7v-6.2m-1.95-8.8v6.2H95.1v-6.2h1.65m-1.65 8.8h1.65v6.2H95.1v-6.2m-7.3-8.8h1.65v6.2H87.8v-6.2m-3.6 0h1.65v6.2H84.2v-6.2m0 8.8h1.65v6.2H84.2v-6.2m3.6 0h1.65v6.2H87.8v-6.2m-5.7-8.8v6.2h-1.65v-6.2h1.65m5.7 17.35h1.65v6.2H87.8v-6.2m-3.6 0h1.65v6.2H84.2v-6.2m7.3 0h1.65v6.2H91.5v-6.2m3.6 0h1.65v6.2H95.1v-6.2m3.6 0h1.65v6.2H98.7v-6.2m-16.6-8.55v6.2h-1.65v-6.2h1.65m16.6 17.5h1.65v6.15H98.7v-6.15m-7.2 0h1.65v6.15H91.5v-6.15m5.25 0v6.15H95.1v-6.15h1.65m-8.95 0h1.65v6.15H87.8v-6.15m-3.6 0h1.65v6.15H84.2v-6.15m-2.1 0v6.15h-1.65v-6.15h1.65M87.8 38h1.65v6.2H87.8V38m-3.6 0h1.65v6.2H84.2V38m-2.1 0v6.2h-1.65V38h1.65m16.6 0h1.65v6.2H98.7V38m-7.2 0h1.65v6.2H91.5V38m5.25 6.2H95.1V38h1.65v6.2M82.1 20.5v6.2h-1.65v-6.2h1.65z"/></g><g id="i"><path fill="#B3B3B3" d="M-476.8-52.2h-31.35V43h31.35v-95.2m-13.5 2.85h1.65v6.2h-1.65v-6.2m-3.6 0h1.65v6.2h-1.65v-6.2m0 8.55h1.65v6.25h-1.65v-6.25m3.6 0h1.65v6.25h-1.65v-6.25m-5.7-8.55v6.2h-1.65v-6.2h1.65m9.3 6.2v-6.2h1.65v6.2h-1.65m-18.25-6.2h1.65v6.2h-1.65v-6.2m0 8.55h1.65v6.25h-1.65v-6.25m5.35-8.55v6.2h-1.6v-6.2h1.6m-1.6 8.55h1.6v6.25h-1.6v-6.25m-3.75 8.75h1.65v6.2h-1.65v-6.2m3.75 6.2v-6.2h1.6v6.2h-1.6m3.55 0v-6.2h1.65v6.2h-1.65m7.35-6.2h1.65v6.2h-1.65v-6.2m-3.6 0h1.65v6.2h-1.65v-6.2m7.2 6.2v-6.2h1.65v6.2h-1.65M-496-40.8v6.25h-1.65v-6.25h1.65m9.3 6.25v-6.25h1.65v6.25h-1.65m-3.6 11.1h1.65v6.2h-1.65v-6.2m-3.6 0h1.65v6.2h-1.65v-6.2m0 8.9h1.65v6.2h-1.65v-6.2m3.6 0h1.65v6.2h-1.65v-6.2m3.6-2.7v-6.2h1.65v6.2h-1.65m-9.3-6.2v6.2h-1.65v-6.2h1.65m-8.95 0h1.65v6.2h-1.65v-6.2m0 8.9h1.65v6.2h-1.65v-6.2m3.75-8.9h1.6v6.2h-1.6v-6.2m0 8.9h1.6v6.2h-1.6v-6.2m0 8.55h1.6V.25h-1.6V-6m-3.75 0h1.65V.25h-1.65V-6m14.65 0h1.65V.25h-1.65V-6m-3.6 0h1.65V.25h-1.65V-6m7.2-2.35v-6.2h1.65v6.2h-1.65m-9.3-6.2v6.2h-1.65v-6.2h1.65M-497.65-6h1.65V.25h-1.65V-6M-483-43.15v-6.2h1.65v6.2H-483m0 2.35h1.65v6.25H-483v-6.25m0 14.95v-6.2h1.65v6.2H-483m1.65 2.4v6.2H-483v-6.2h1.65m-1.65 8.9h1.65v6.2H-483v-6.2m0 8.55h1.65V.25H-483V-6m-3.7 0h1.65V.25h-1.65V-6m1.65 8.5v6.2h-1.65V2.5h1.65m3.7 0v6.2H-483V2.5h1.65m-1.65 8.55h1.65v6.2H-483v-6.2m0 8.5h1.65v6.2H-483v-6.2m-2.05-8.5v6.2h-1.65v-6.2h1.65m3.7 17.05v6.2H-483v-6.2h1.65m-3.7 0v6.2h-1.65v-6.2h1.65m0-8.55v6.2h-1.65v-6.2h1.65M-490.3 2.5h1.65v6.2h-1.65V2.5m-3.6 0h1.65v6.2h-1.65V2.5m0 8.55h1.65v6.2h-1.65v-6.2m3.6 0h1.65v6.2h-1.65v-6.2M-496 2.5v6.2h-1.65V2.5h1.65m-8.95 0h1.65v6.2h-1.65V2.5m0 8.55h1.65v6.2h-1.65v-6.2m3.75-8.55h1.6v6.2h-1.6V2.5m0 8.55h1.6v6.2h-1.6v-6.2m-3.75 8.5h1.65v6.2h-1.65v-6.2m3.75 0h1.6v6.2h-1.6v-6.2m7.3 0h1.65v6.2h-1.65v-6.2m3.6 0h1.65v6.2h-1.65v-6.2m-7.35 0h1.65v6.2h-1.65v-6.2m0-2.3v-6.2h1.65v6.2h-1.65m7.35 10.85h1.65v6.2h-1.65v-6.2m-3.6 0h1.65v6.2h-1.65v-6.2m-2.1 0v6.2h-1.65v-6.2h1.65m-8.95 0h1.65v6.2h-1.65v-6.2m3.75 0h1.6v6.2h-1.6v-6.2z"/><path fill="#FFF" d="M-499.6 28.1h-1.6v6.2h1.6v-6.2m-3.7 0h-1.65v6.2h1.65v-6.2m7.3 6.2v-6.2h-1.65v6.2h1.65m3.75-6.2h-1.65v6.2h1.65v-6.2m3.6 0h-1.65v6.2h1.65v-6.2m-9-17.05v6.2h1.65v-6.2h-1.65m1.65 8.5h-1.65v6.2h1.65v-6.2m7.35 0h-1.65v6.2h1.65v-6.2m-3.6 0h-1.65v6.2h1.65v-6.2m-7.35 0h-1.6v6.2h1.6v-6.2m-3.7 0h-1.65v6.2h1.65v-6.2m3.7-8.5h-1.6v6.2h1.6v-6.2m0-8.55h-1.6v6.2h1.6V2.5m-3.7 8.55h-1.65v6.2h1.65v-6.2m0-8.55h-1.65v6.2h1.65V2.5m7.3 6.2V2.5h-1.65v6.2h1.65m7.35 2.35h-1.65v6.2h1.65v-6.2m-3.6 0h-1.65v6.2h1.65v-6.2m0-8.55h-1.65v6.2h1.65V2.5m3.6 0h-1.65v6.2h1.65V2.5m3.6 23.25v-6.2h-1.65v6.2h1.65m0 8.55v-6.2h-1.65v6.2h1.65m3.7 0v-6.2H-483v6.2h1.65m-3.7-17.05v-6.2h-1.65v6.2h1.65m3.7 2.3H-483v6.2h1.65v-6.2m0-8.5H-483v6.2h1.65v-6.2m0-2.35V2.5H-483v6.2h1.65m-3.7 0V2.5h-1.65v6.2h1.65m0-14.7h-1.65V.25h1.65V-6m3.7 0H-483V.25h1.65V-6m0-8.55H-483v6.2h1.65v-6.2m0-2.7v-6.2H-483v6.2h1.65m-1.65-14.8v6.2h1.65v-6.2H-483m1.65-8.75H-483v6.25h1.65v-6.25m-1.65-8.55v6.2h1.65v-6.2H-483M-496-6h-1.65V.25h1.65V-6m0-2.35v-6.2h-1.65v6.2h1.65m9.3-6.2v6.2h1.65v-6.2h-1.65M-492.25-6h-1.65V.25h1.65V-6m3.6 0h-1.65V.25h1.65V-6m-14.65 0h-1.65V.25h1.65V-6m3.7 0h-1.6V.25h1.6V-6m0-8.55h-1.6v6.2h1.6v-6.2m0-8.9h-1.6v6.2h1.6v-6.2m-3.7 8.9h-1.65v6.2h1.65v-6.2m0-8.9h-1.65v6.2h1.65v-6.2m7.3 6.2v-6.2h-1.65v6.2h1.65m9.3-6.2v6.2h1.65v-6.2h-1.65m-1.95 8.9h-1.65v6.2h1.65v-6.2m-3.6 0h-1.65v6.2h1.65v-6.2m0-8.9h-1.65v6.2h1.65v-6.2m3.6 0h-1.65v6.2h1.65v-6.2m1.95-17.35v6.25h1.65v-6.25h-1.65m-9.3 6.25v-6.25h-1.65v6.25h1.65m9.3 2.5v6.2h1.65v-6.2h-1.65m-5.55 0h-1.65v6.2h1.65v-6.2m3.6 0h-1.65v6.2h1.65v-6.2m-9 0v6.2h1.65v-6.2h-1.65m-3.55 0v6.2h1.6v-6.2h-1.6m-2.1 0h-1.65v6.2h1.65v-6.2m3.7-8.75h-1.6v6.25h1.6v-6.25m0-2.35v-6.2h-1.6v6.2h1.6m-3.7 2.35h-1.65v6.25h1.65v-6.25m0-8.55h-1.65v6.2h1.65v-6.2m16.6 0v6.2h1.65v-6.2h-1.65m-9.3 6.2v-6.2h-1.65v6.2h1.65m7.35 2.35h-1.65v6.25h1.65v-6.25m-3.6 0h-1.65v6.25h1.65v-6.25m0-8.55h-1.65v6.2h1.65v-6.2m3.6 0h-1.65v6.2h1.65v-6.2m16.5 79.15l-.95-.55.05 5.85.9.55V29.8m-2.1-1.15l-.95-.55v5.8l.95.55v-5.8m0-8.1l-.95-.5v5.8l.95.55v-5.85m1.15-1.9l.95.55v-6.45l-.95-.5.05 5.75h-.05v.65m.95 3.05l-.95-.45v5.8l.95.5V21.7m-2.1-10.1l-.95-.55v5.8l.95.55v-5.8m2.1-6.9l-.95-.5V10l.95.5V4.7m-2.1-1.2l-.95-.5v5.85l.95.5V3.5m2.1-7.8l-.95-.5.05 5.8h-.05v.6l.95.55V-4.3M-475.2-6v5.8l.95.55v-5.8l-.95-.55m3.05-.55v-5.8l-.95-.5v5.8l.95.5m-2.1-7l-.95-.5v5.85l.95.5v-5.85m2.1-7.2l-.95-.5v5.8l.95.55v-5.85m-2.1-1.15l-.95-.5v5.8l.95.55v-5.85m0-8l-.95-.55v5.8l.95.55v-5.8m2.05-1.3l.05-5.8-.95-.55v5.8l.9.55m0 2.45l-.9-.55v5.8l.95.55-.05-5.8m-2.05-9.45l-.95-.5v5.8l.95.55v-5.85m0-8.05l-.95-.5v5.8l.95.5v-5.8m2.1 1.15l-.95-.5v5.85l.9.55.05-5.9z"/><path fill="#999" d="M-470.2-48.5l-6.6-3.7V43l6.6 3.7v-95.2m-2.9 2.9l.95.5-.05 5.9-.9-.55v-5.85m-2.1-1.15l.95.5v5.8l-.95-.5v-5.8m0 8.05l.95.5v5.85l-.95-.55v-5.8m2.1 9.4l.9.55.05 5.8-.95-.55v-5.8m.95-7.7l-.05 5.8-.9-.55v-5.8l.95.55m-3.05 6.55l.95.55v5.8l-.95-.55v-5.8m0 8.05l.95.5v5.85l-.95-.55v-5.8m2.1 1.15l.95.5v5.85l-.95-.55v-5.8m-2.1 7.2l.95.5v5.85l-.95-.5v-5.85m3.05 1.7v5.8l-.95-.5v-5.8l.95.5M-475.2-.2V-6l.95.55v5.8l-.95-.55m2.1-4.6l.95.5v6.45l-.95-.55V1h.05l-.05-5.8m-2.1 7.8l.95.5v5.85l-.95-.5V3m2.1 1.2l.95.5v5.8l-.95-.5V4.2m-2.1 6.85l.95.55v5.8l-.95-.55v-5.8m2.1 10.2l.95.45v5.85l-.95-.5v-5.8m.95-2.05l-.95-.55V18h.05l-.05-5.75.95.5v6.45m-3.05.85l.95.5v5.85l-.95-.55v-5.8m0 8.05l.95.55v5.8l-.95-.55v-5.8m2.1 1.15l.95.55v5.85l-.9-.55-.05-5.85z"/></g><g id="j"><path fill="#CCC" d="M-635.9-33.85v-32.5h-16.65v32.5h16.65m-3.25-30.95h.85v3.3h-.85v-3.3m-5.85 0h.9v3.3h-.9v-3.3m3.85 0h.9v3.3h-.9v-3.3m-1.9 0h.85v3.3h-.85v-3.3m-3.9 0h.9v3.3h-.9v-3.3m7.8 4.55h.85v3.3h-.85v-3.3m-2 0h.9v3.3h-.9v-3.3m-1.05 0v3.3h-.85v-3.3h.85m-2.8 0h.9v3.3h-.9v-3.3m-1.95 0h.9v3.3h-.9v-3.3m-1.05 0v3.3h-.85v-3.3h.85m3 4.65h.9v3.3h-.9v-3.3m-1.95 0h.9v3.3h-.9v-3.3m0 4.55h.9v3.3h-.9v-3.3m1.95 0h.9v3.3h-.9v-3.3m-3-4.55v3.3h-.85v-3.3h.85m4.95 3.3v-3.3h.85v3.3h-.85m3.9-3.3h.85v3.3h-.85v-3.3m0 4.55h.85v3.3h-.85v-3.3m-2 0h.9v3.3h-.9v-3.3m.9-1.25h-.9v-3.3h.9v3.3m-2.8 1.25h.85v3.3h-.85v-3.3M-648-64.8v3.3h-.85v-3.3h.85m6.85 18.5h.9v3.3h-.9v-3.3m2 0h.85v3.3h-.85v-3.3m-7.8 0h.9v3.3h-.9v-3.3m1.95 0h.9v3.3h-.9v-3.3m0 4.55h.9v3.3h-.9v-3.3m-1.95 0h.9v3.3h-.9v-3.3m-1.05 0v3.3h-.85v-3.3h.85m4.95 3.3v-3.3h.85v3.3h-.85m3.9-3.3h.85v3.3h-.85v-3.3m-2 3.3v-3.3h.9v3.3h-.9m-1.05-7.85v3.3h-.85v-3.3h.85m-5.8 0v3.3h-.85v-3.3h.85m0-4.75v3.3h-.85v-3.3h.85m-2.85-13.75h.9v3.3h-.9v-3.3m0 4.55h.9v3.3h-.9v-3.3m0 9.2h.9v3.3h-.9v-3.3m.9-1.25h-.9v-3.3h.9v3.3m-.9 6h.9v3.3h-.9v-3.3m.9 4.55v3.3h-.9v-3.3h.9z"/><path fill="#FFF" d="M-649.95-38.45v-3.3h-.9v3.3h.9m0-7.85h-.9v3.3h.9v-3.3m-.9-6h.9v-3.3h-.9v3.3m.9 1.25h-.9v3.3h.9v-3.3m0-9.2h-.9v3.3h.9v-3.3m0-4.55h-.9v3.3h.9v-3.3m1.95 17.05v-3.3h-.85v3.3h.85m0 4.75v-3.3h-.85v3.3h.85m5.8 0v-3.3h-.85v3.3h.85m1.05 1.25v3.3h.9v-3.3h-.9m2.85 0h-.85v3.3h.85v-3.3m-4.75 0v3.3h.85v-3.3h-.85m-4.95 3.3v-3.3h-.85v3.3h.85m1.95-3.3h-.9v3.3h.9v-3.3m1.95 0h-.9v3.3h.9v-3.3m0-4.55h-.9v3.3h.9v-3.3m-1.95 0h-.9v3.3h.9v-3.3m7.75 0h-.85v3.3h.85v-3.3m-1.95 0h-.9v3.3h.9v-3.3M-648-61.5v-3.3h-.85v3.3h.85m5.8 10.45h-.85v3.3h.85v-3.3m1.05-1.25h.9v-3.3h-.9v3.3m.9 1.25h-.9v3.3h.9v-3.3m1.95 0h-.85v3.3h.85v-3.3m0-4.55h-.85v3.3h.85v-3.3m-4.75 0v3.3h.85v-3.3h-.85m-4.95 3.3v-3.3h-.85v3.3h.85m3.9 1.25h-.9v3.3h.9v-3.3m-1.95 0h-.9v3.3h.9v-3.3m0-4.55h-.9v3.3h.9v-3.3m1.95 0h-.9v3.3h.9v-3.3m-3.9-1.35v-3.3h-.85v3.3h.85m1.95-3.3h-.9v3.3h.9v-3.3m1.95 0h-.9v3.3h.9v-3.3m1.9 3.3v-3.3h-.85v3.3h.85m1.95-3.3h-.9v3.3h.9v-3.3m1.95 0h-.85v3.3h.85v-3.3m-7.75-4.55h-.9v3.3h.9v-3.3m3.85 0h-.85v3.3h.85v-3.3m1.95 0h-.9v3.3h.9v-3.3m-3.85 0h-.9v3.3h.9v-3.3m5.8 0h-.85v3.3h.85v-3.3m4.9 23.95l-.5-.3v3.1l.5.3v-3.1m-1.15-.65l-.5-.25v3.1l.5.25v-3.1m0-4.25l-.5-.3v3.1l.5.25v-3.05m1.15.6l-.5-.25v3.05l.5.3v-3.1m-1.15-5.05l-.5-.3v3.1l.5.25v-3.05m1.15.6l-.5-.3v3.1l.5.3v-3.1m-1.15-4.9l-.5-.3v3.1l.5.3v-3.1m1.15.65l-.5-.3v3.1l.5.25v-3.05m0-4.4l-.5-.3v3.1l.5.3v-3.1m-1.15-.65l-.5-.25v3.1l.5.25v-3.1m0-4.25l-.5-.3v3.1l.5.3v-3.1m1.15.6l-.5-.25v3.05l.5.3v-3.1z"/><path fill="#999" d="M-632.35-64.35l-3.55-2v32.5l3.55 1.95v-32.45m-1.55 1.55l.5.25v3.1l-.5-.3v-3.05m-1.15-.65l.5.3v3.1l-.5-.3v-3.1m0 4.3l.5.25v3.1l-.5-.25v-3.1m1.15.6l.5.3v3.1l-.5-.3v-3.1m0 4.4l.5.3v3.05l-.5-.25v-3.1m-1.15-.65l.5.3v3.1l-.5-.3v-3.1m1.15 4.9l.5.3v3.1l-.5-.3v-3.1m-1.15-.6l.5.3v3.05l-.5-.25v-3.1m1.15 5.1l.5.25v3.1l-.5-.3v-3.05m-1.15-.65l.5.3v3.05l-.5-.25v-3.1m0 4.3l.5.25v3.1l-.5-.25v-3.1m1.15.6l.5.3v3.1l-.5-.3v-3.1z"/></g><g id="k"><path fill="#CCC" d="M-633.05-7.25v-46.7H-657v46.7h23.95m-4.75-44.5h1.3V-47h-1.3v-4.75m-8.35 0h1.3V-47h-1.3v-4.75m2.8 0h1.25V-47h-1.25v-4.75m2.75 0h1.25V-47h-1.25v-4.75m2.8 6.55h1.3v4.7h-1.3v-4.7m0 6.7h1.3v4.7h-1.3v-4.7m-2.8-6.7h1.25v4.7h-1.25v-4.7m-5.55 0h1.3v4.7h-1.3v-4.7m0 6.7h1.3v4.7h-1.3v-4.7m5.55 0h1.25v4.7h-1.25v-4.7m-7.1-6.7v4.7h-1.25v-4.7h1.25m4.35 4.7v-4.7h1.25v4.7h-1.25m0 2h1.25v4.7h-1.25v-4.7m2.75 6.55h1.25v4.7h-1.25v-4.7m-5.55 0h1.3v4.7h-1.3v-4.7m0 6.8h1.3v4.75h-1.3v-4.75m5.55 0h1.25v4.75h-1.25v-4.75m-7.1-6.8v4.7h-1.25v-4.7h1.25m4.35 4.7v-4.7h1.25v4.7h-1.25m0 2.1h1.25v4.75h-1.25v-4.75m5.55-6.8h1.3v4.7h-1.3v-4.7m0 6.8h1.3v4.75h-1.3v-4.75m-9.9-13.35v4.7h-1.25v-4.7h1.25m9.9 19.9h1.3v4.7h-1.3v-4.7m-2.8 0h1.25v4.7h-1.25v-4.7m-5.55 0h1.3v4.7h-1.3v-4.7m4.05 0v4.7h-1.25v-4.7h1.25m-5.6 0v4.7h-1.25v-4.7h1.25m0-6.55v4.75h-1.25v-4.75h1.25m0-26.6V-47h-1.25v-4.75h1.25m-4 0h1.25V-47h-1.25v-4.75m-2.85 0h1.25V-47h-1.25v-4.75m2.85 6.55h1.25v4.7h-1.25v-4.7m-2.85 0h1.25v4.7h-1.25v-4.7m0 6.7h1.25v4.7h-1.25v-4.7m2.85 0h1.25v4.7h-1.25v-4.7m0 6.55h1.25v4.7h-1.25v-4.7m-2.85 0h1.25v4.7h-1.25v-4.7m0 6.8h1.25v4.75h-1.25v-4.75m2.85 0h1.25v4.75h-1.25v-4.75m0 6.55h1.25v4.7h-1.25v-4.7m-2.85 0h1.25v4.7h-1.25v-4.7z"/><path fill="#FFF" d="M-653.3-18.6h-1.25v4.7h1.25v-4.7m2.85 0h-1.25v4.7h1.25v-4.7m0-6.55h-1.25v4.75h1.25v-4.75m-2.85 0h-1.25v4.75h1.25v-4.75m0-6.8h-1.25v4.7h1.25v-4.7m2.85 0h-1.25v4.7h1.25v-4.7m0-6.55h-1.25v4.7h1.25v-4.7m-2.85 0h-1.25v4.7h1.25v-4.7m0-6.7h-1.25v4.7h1.25v-4.7m2.85 0h-1.25v4.7h1.25v-4.7m-2.85-6.55h-1.25V-47h1.25v-4.75m2.85 0h-1.25V-47h1.25v-4.75m2.75 4.75v-4.75h-1.25V-47h1.25m0 26.6v-4.75h-1.25v4.75h1.25m0 6.5v-4.7h-1.25v4.7h1.25m5.6 0v-4.7h-1.25v4.7h1.25m-2.75-4.7h-1.3v4.7h1.3v-4.7m5.5 0h-1.25v4.7h1.25v-4.7m2.85 0h-1.3v4.7h1.3v-4.7m-11.2-15.2v-4.7h-1.25v4.7h1.25m11.2 8.65h-1.3v4.75h1.3v-4.75m0-6.8h-1.3v4.7h1.3v-4.7m-5.6 6.8h-1.25v4.75h1.25v-4.75m-1.25-6.8v4.7h1.25v-4.7h-1.25m-4.35 4.7v-4.7h-1.25v4.7h1.25m8.35 2.1h-1.25v4.75h1.25v-4.75m-5.5 0h-1.3v4.75h1.3v-4.75m0-6.8h-1.3v4.7h1.3v-4.7m5.5 0h-1.25v4.7h1.25v-4.7m-2.75-6.55h-1.25v4.7h1.25v-4.7m-1.25-6.7v4.7h1.25v-4.7h-1.25m-4.35 4.7v-4.7h-1.25v4.7h1.25m8.35 2h-1.25v4.7h1.25v-4.7m-5.5 0h-1.3v4.7h1.3v-4.7m0-6.7h-1.3v4.7h1.3v-4.7m5.5 0h-1.25v4.7h1.25v-4.7m2.85 6.7h-1.3v4.7h1.3v-4.7m0-6.7h-1.3v4.7h1.3v-4.7m-2.85-6.55h-1.25V-47h1.25v-4.75m-2.75 0h-1.25V-47h1.25v-4.75m-2.75 0h-1.3V-47h1.3v-4.75m8.35 0h-1.3V-47h1.3v-4.75m5.4 37.95v-4.45l-.75-.4v4.45l.75.4m1.6.9v-4.45l-.75-.4.05 4.45.7.4m-1.6-7.05v-4.45l-.75-.4v4.45l.75.4m.85-3.95v4.45l.75.4v-4.45l-.75-.4m0-6.4v4.45l.75.4v-4.45l-.75-.4m-.9 3.95v-4.45l-.7-.4v4.45l.7.4m-.7-6.55l.7.4v-4.4l-.7-.45v4.45m2.35-3.1l-.75-.45V-32l.75.4V-36m-2.35-3.2l.7.4.05-4.45-.75-.4v4.45m2.35-3.15l-.75-.4v4.45l.75.4v-4.45m-2.35-3l.7.4v-4.45l-.7-.4v4.45m2.35-3.15l-.75-.4v4.45l.75.45v-4.5z"/><path fill="#999" d="M-628-51.1l-5.05-2.85v46.7l5.05 2.8V-51.1m-2.25 2.2l.75.4v4.5l-.75-.45v-4.45m-.9 3.95l-.7-.4v-4.45l.7.4v4.45m.9 2.2l.75.4v4.45l-.75-.4v-4.45m-.9 3.95l-.7-.4v-4.45l.75.4-.05 4.45m.9 2.35l.75.45v4.4l-.75-.4v-4.45m-.9 3.95l-.7-.4v-4.45l.7.45v4.4m0 1.7v4.45l-.7-.4v-4.45l.7.4m.9 4.95v-4.45l.75.4v4.45l-.75-.4m0 6.4v-4.45l.75.4v4.45l-.75-.4m-.85-4.95v4.45l-.75-.4v-4.45l.75.4m1.6 7.05v4.45l-.7-.4-.05-4.45.75.4m-1.6-.9v4.45l-.75-.4v-4.45l.75.4z"/></g><g id="l"><path fill="#CCC" d="M-631.75 15.5v-55.25h-28.3V15.5h28.3m-8.95-52.6h1.5v5.55h-1.5v-5.55m-1.75 0v5.55h-1.5v-5.55h1.5m-4.75 5.55v-5.55h1.5v5.55h-1.5m0 2.15h1.5v5.6h-1.5v-5.6m6.5 0h1.5v5.6h-1.5v-5.6m-3.25 0h1.5v5.6h-1.5v-5.6m6.6-7.7h1.5v5.55h-1.5v-5.55m0 7.7h1.5v5.6h-1.5v-5.6m0 7.95h1.5v5.6h-1.5v-5.6m0 7.75h1.5v5.55h-1.5v-5.55m-3.35-7.75h1.5v5.6h-1.5v-5.6m-6.5 0h1.5v5.6h-1.5v-5.6m0 7.75h1.5v5.55h-1.5v-5.55m6.5 0h1.5v5.55h-1.5v-5.55m-1.75-2.15h-1.5v-5.6h1.5v5.6m-1.5 2.15h1.5v5.55h-1.5v-5.55M-647.2-.05v-5.6h1.5v5.6h-1.5m3.25 0v-5.6h1.5v5.6h-1.5m4.75 0h-1.5v-5.6h1.5v5.6m3.35-5.6v5.6h-1.5v-5.6h1.5m-1.5 7.75h1.5v5.55h-1.5V2.1m-3.35 0h1.5v5.55h-1.5V2.1m-6.5 0h1.5v5.55h-1.5V2.1m4.75 0v5.55h-1.5V2.1h1.5m-8.1-39.2h1.5v5.55h-1.5v-5.55m-1.8 0v5.55h-1.5v-5.55h1.5m-4.85 0h1.5v5.55h-1.5v-5.55m0 7.7h1.5v5.6h-1.5v-5.6m6.65 0h1.5v5.6h-1.5v-5.6m-3.3 0h1.5v5.6h-1.5v-5.6m3.3 7.95h1.5v5.6h-1.5v-5.6m-6.65 0h1.5v5.6h-1.5v-5.6m0 7.75h1.5v5.55h-1.5v-5.55m6.65 0h1.5v5.55h-1.5v-5.55m-3.3 0h1.5v5.55h-1.5v-5.55m1.5-2.15h-1.5v-5.6h1.5v5.6m-1.5 15.8v-5.6h1.5v5.6h-1.5m-1.85-5.6v5.6h-1.5v-5.6h1.5m6.65 0v5.6h-1.5v-5.6h1.5m-1.5 7.75h1.5v5.55h-1.5V2.1m-6.65 0h1.5v5.55h-1.5V2.1m4.85 0v5.55h-1.5V2.1h1.5z"/><path fill="#FFF" d="M-652.35 7.65V2.1h-1.5v5.55h1.5m-3.35-5.55h-1.5v5.55h1.5V2.1m6.65 0h-1.5v5.55h1.5V2.1m0-2.15v-5.6h-1.5v5.6h1.5m-6.65 0v-5.6h-1.5v5.6h1.5m1.85-5.6v5.6h1.5v-5.6h-1.5m0-10.2h1.5v-5.6h-1.5v5.6m1.5 2.15h-1.5v5.55h1.5v-5.55m3.3 0h-1.5v5.55h1.5v-5.55m-6.65 0h-1.5v5.55h1.5v-5.55m0-7.75h-1.5v5.6h1.5v-5.6m6.65 0h-1.5v5.6h1.5v-5.6m-3.3-7.95h-1.5v5.6h1.5v-5.6m3.3 0h-1.5v5.6h1.5v-5.6m-6.65 0h-1.5v5.6h1.5v-5.6m0-7.7h-1.5v5.55h1.5v-5.55m3.35 5.55v-5.55h-1.5v5.55h1.5m3.3-5.55h-1.5v5.55h1.5v-5.55m6.6 44.75V2.1h-1.5v5.55h1.5m-3.25-5.55h-1.5v5.55h1.5V2.1m6.5 0h-1.5v5.55h1.5V2.1m3.35 0h-1.5v5.55h1.5V2.1m0-2.15v-5.6h-1.5v5.6h1.5m-4.85 0h1.5v-5.6h-1.5v5.6m-3.25-5.6v5.6h1.5v-5.6h-1.5m-3.25 0v5.6h1.5v-5.6h-1.5m4.75-8.05h-1.5v5.55h1.5v-5.55m-1.5-2.15h1.5v-5.6h-1.5v5.6m4.75 2.15h-1.5v5.55h1.5v-5.55m-6.5 0h-1.5v5.55h1.5v-5.55m0-7.75h-1.5v5.6h1.5v-5.6m6.5 0h-1.5v5.6h1.5v-5.6m3.35 7.75h-1.5v5.55h1.5v-5.55m0-7.75h-1.5v5.6h1.5v-5.6m0-7.95h-1.5v5.6h1.5v-5.6m0-7.7h-1.5v5.55h1.5v-5.55m-6.6 7.7h-1.5v5.6h1.5v-5.6m3.25 0h-1.5v5.6h1.5v-5.6m-6.5 0h-1.5v5.6h1.5v-5.6m-1.5-7.7v5.55h1.5v-5.55h-1.5m4.75 5.55v-5.55h-1.5v5.55h1.5m3.25-5.55h-1.5v5.55h1.5v-5.55m9.75 39.65l-.85-.5V7.3l.85.5V2.55m1.9 6.3V3.6l-.85-.5v5.3l.85.45m0-29.55V-26l-.85-.45v5.25l.85.5m0 17l-.85-.45V1.1l.85.5v-5.3m-1.9-1.05l-.85-.5v5.3l.85.45v-5.25m1.05-7v5.25l.85.5v-5.25l-.85-.5m-1.05 4.7v-5.25l-.85-.5v5.25l.85.5M-628.4-19v5.25l.85.5v-5.25l-.85-.5m-1.05-.55l-.85-.5v5.25l.85.45v-5.2m0-7.5l-.85-.45v5.25l.85.45v-5.25m0-7.25l-.85-.5v5.25l.85.5v-5.25m1.9 6.35v-5.3l-.85-.5v5.25l.85.55z"/><path fill="#999" d="M-625.8-36.35l-5.95-3.4V15.5l5.95 3.35v-55.2m-1.75 3.1v5.3l-.85-.55v-5.25l.85.5m-2.75-1.55l.85.5v5.25l-.85-.5v-5.25m0 7.3l.85.45v5.25l-.85-.45v-5.25m0 7.45l.85.5v5.2l-.85-.45v-5.25m1.9 6.3V-19l.85.5v5.25l-.85-.5m-1.05 1.45v5.25l-.85-.5v-5.25l.85.5m1.05 5.8v-5.25l.85.5V-6l-.85-.5m-1.9 1.25l.85.5V.5l-.85-.45v-5.3m1.9 1.1l.85.45v5.3l-.85-.5v-5.25m.85-21.85v5.3l-.85-.5v-5.25l.85.45m0 29.6v5.25l-.85-.45V3.1l.85.5m-2.75-1.55l.85.5V7.8l-.85-.5V2.05z"/></g><g id="m"><path fill="#CCC" d="M-498.1-31.85h-31.35v61.1h31.35v-61.1m-6.15 2.85h1.6v6.15h-1.6V-29m-3.7 0h1.6v6.15h-1.6V-29m-14.55 0h1.65v6.15h-1.65V-29m7.3 0h1.65v6.15h-1.65V-29m3.6 0h1.65v6.15h-1.65V-29m-7.35 0h1.65v6.15h-1.65V-29m-7.3 0h1.65v6.15h-1.65V-29m18.3 8.55h1.6v6.2h-1.6v-6.2m-7.25 0h1.65v6.2h-1.65v-6.2m3.6 6.2v-6.2h1.65v6.2h-1.65m-7.35-6.2h1.65v6.2h-1.65v-6.2m-7.3 0h1.65v6.2h-1.65v-6.2m3.75 6.2v-6.2h1.65v6.2h-1.65m3.55 2.55h1.65v6.2h-1.65v-6.2m-7.3 0h1.65v6.2h-1.65v-6.2m0 8.6h1.65v6.2h-1.65v-6.2m7.3 0h1.65v6.2h-1.65v-6.2m-3.55-2.4v-6.2h1.65v6.2h-1.65m0 2.4h1.65v6.2h-1.65v-6.2m14.55-8.6h1.6v6.2h-1.6v-6.2m-7.25 0h1.65v6.2h-1.65v-6.2m0 8.6h1.65v6.2h-1.65v-6.2m7.25 0h1.6v6.2h-1.6v-6.2m-3.65-2.4v-6.2h1.65v6.2h-1.65m0 2.4h1.65v6.2h-1.65v-6.2m7.35-17.35h1.6v6.2h-1.6v-6.2m1.6 14.95h-1.6v-6.2h1.6v6.2m-1.6 2.4h1.6v6.2h-1.6v-6.2m0 15.1V5.8h1.6V12h-1.6m1.6 8.55h-1.6v-6.2h1.6v6.2m-5.3-14.75h1.6V12h-1.6V5.8m-7.25 0h1.65V12h-1.65V5.8m5.25 6.2h-1.65V5.8h1.65V12m-9-6.2h1.65V12h-1.65V5.8m-7.3 0h1.65V12h-1.65V5.8m5.4 6.2h-1.65V5.8h1.65V12m1.9 2.35h1.65v6.2h-1.65v-6.2m-7.3 0h1.65v6.2h-1.65v-6.2m5.4 0v6.2h-1.65v-6.2h1.65m12.9 0h1.6v6.2h-1.6v-6.2m-7.25 0h1.65v6.2h-1.65v-6.2m3.6 0h1.65v6.2h-1.65v-6.2z"/><path fill="#FFF" d="M-509.95 14.35h-1.65v6.2h1.65v-6.2m-3.6 0h-1.65v6.2h1.65v-6.2m7.2 0h-1.6v6.2h1.6v-6.2m-14.5 6.2v-6.2h-1.65v6.2h1.65m-3.75-6.2h-1.65v6.2h1.65v-6.2m7.3 0h-1.65v6.2h1.65v-6.2m-5.2-2.35h1.65V5.8h-1.65V12m-2.1-6.2h-1.65V12h1.65V5.8m7.3 0h-1.65V12h1.65V5.8m5.7 6.2h1.65V5.8h-1.65V12m-1.95-6.2h-1.65V12h1.65V5.8m7.2 0h-1.6V12h1.6V5.8m2.1 14.75h1.6v-6.2h-1.6v6.2m0-14.75V12h1.6V5.8h-1.6m1.6-8.9h-1.6v6.2h1.6v-6.2m-1.6-2.4h1.6v-6.2h-1.6v6.2m1.6-14.95h-1.6v6.2h1.6v-6.2m-7.3 17.35h-1.65v6.2h1.65v-6.2m-1.65-8.6v6.2h1.65v-6.2h-1.65m5.25 8.6h-1.6v6.2h1.6v-6.2m-7.2 0h-1.65v6.2h1.65v-6.2m0-8.6h-1.65v6.2h1.65v-6.2m7.2 0h-1.6v6.2h1.6v-6.2m-14.5 8.6h-1.65v6.2h1.65v-6.2m-1.65-8.6v6.2h1.65v-6.2h-1.65m5.2 8.6h-1.65v6.2h1.65v-6.2m-7.3 0h-1.65v6.2h1.65v-6.2m0-8.6h-1.65v6.2h1.65v-6.2m7.3 0h-1.65v6.2h1.65v-6.2m-5.2-8.75v6.2h1.65v-6.2h-1.65m-2.1 0h-1.65v6.2h1.65v-6.2m7.3 0h-1.65v6.2h1.65v-6.2m5.7 0v6.2h1.65v-6.2h-1.65m-1.95 0h-1.65v6.2h1.65v-6.2m7.2 0h-1.6v6.2h1.6v-6.2M-524.6-29h-1.65v6.15h1.65V-29m7.3 0h-1.65v6.15h1.65V-29m7.35 0h-1.65v6.15h1.65V-29m-3.6 0h-1.65v6.15h1.65V-29m-7.3 0h-1.65v6.15h1.65V-29m14.5 0h-1.6v6.15h1.6V-29m3.7 0h-1.6v6.15h1.6V-29m9.2 50.9v-5.85l-.95-.5.05 5.8.9.55m-3.05-7.55v5.8l.95.55v-5.8l-.95-.55m0-8.05v5.85l.95.5V6.8l-.95-.5m3.05 1.7l-.95-.5v5.8l.95.5V8m-2.1-9.55l-.95-.55v5.85l.95.55v-5.85m1.15-1.6l.95.55v-5.8l-.95-.55v5.8m.95 2.75l-.95-.5v5.8l.95.55V-.4m-3.05-9.7v5.8l.95.55v-5.8l-.95-.55m0-8.3v5.85l.95.55v-5.85l-.95-.55m3.05 1.75l-.95-.55v5.8l.95.55v-5.8m0-2.2v-5.9l-.95-.5v5.85l.95.55m-2.1-7.05l-.95-.5v5.8l.95.5v-5.8z"/><path fill="#999" d="M-491.5-28.15l-6.6-3.7v61.1l6.6 3.7v-61.1m-5 1.75l.95.5v5.8l-.95-.5v-5.8m3.05 1.65v5.9l-.95-.55v-5.85l.95.5m-.95 7.55l.95.55v5.8l-.95-.55v-5.8m-2.1 4.65v-5.85l.95.55V-12l-.95-.55m0 8.25v-5.8l.95.55v5.8l-.95-.55m2.1 3.4l.95.5v5.85l-.95-.55V-.9m.95-1.7l-.95-.55v-5.8l.95.55v5.8m-3.05.5l.95.55V4.3l-.95-.55V-2.1m2.1 9.6l.95.5v5.8l-.95-.5V7.5m-2.1 4.65V6.3l.95.5v5.85l-.95-.5m0 8v-5.8l.95.55v5.8l-.95-.55m3.05-4.1v5.85l-.9-.55-.05-5.8.95.5z"/></g><g id="n"><path fill="#FFF" d="M-452.35 28.15h-1.4v6.2h1.4v-6.2m0-8.55h-1.4v6.15h1.4V19.6m0-8.95h-1.4v6.2h1.4v-6.2m0-2.35V2.1h-1.4v6.2h1.4m0-15h-1.4v6.2h1.4v-6.2m0-8.55h-1.4v6.2h1.4v-6.2m-8.75 49.6h1.65v-6.2h-1.65v6.2m-1.95-6.2h-1.65v6.2h1.65v-6.2m7.2 0h-1.65v6.2h1.65v-6.2m-14.5 6.2v-6.2H-472v6.2h1.65m-3.75-6.2h-1.65v6.2h1.65v-6.2m7.35 0h-1.65v6.2h1.65v-6.2m-3.6-8.55H-472v6.15h1.65V19.6m-3.75 0h-1.65v6.15h1.65V19.6m7.35 0h-1.65v6.15h1.65V19.6m-3.6-8.95H-472v6.2h1.65v-6.2m0-2.35V2.1H-472v6.2h1.65m3.6 2.35h-1.65v6.2h1.65v-6.2m-7.35 0h-1.65v6.2h1.65v-6.2m0-8.55h-1.65v6.2h1.65V2.1m7.35 0h-1.65v6.2h1.65V2.1m7.3 17.5h-1.65v6.15h1.65V19.6m-3.6 0h-1.65v6.15h1.65V19.6m7.2 0h-1.65v6.15h1.65V19.6m-5.25-17.5v6.2h1.65V2.1h-1.65m1.65 8.55h-1.65v6.2h1.65v-6.2m3.6 0h-1.65v6.2h1.65v-6.2m-7.2 0h-1.65v6.2h1.65v-6.2m0-8.55h-1.65v6.2h1.65V2.1m7.2 0h-1.65v6.2h1.65V2.1m-3.6-2.6v-6.2h-1.65v6.2h1.65m-3.6-6.2h-1.65v6.2h1.65v-6.2m7.2 0h-1.65v6.2h1.65v-6.2m-7.2-8.55h-1.65v6.2h1.65v-6.2m3.6 0h-1.65v6.2h1.65v-6.2m3.6 0h-1.65v6.2h1.65v-6.2m-14.5 8.55H-472v6.2h1.65v-6.2m-3.75 0h-1.65v6.2h1.65v-6.2m7.35 0h-1.65v6.2h1.65v-6.2m0-8.55h-1.65v6.2h1.65v-6.2m-7.35 0h-1.65v6.2h1.65v-6.2m3.75 0H-472v6.2h1.65v-6.2z"/><path fill="#CCC" d="M-452.35-15.25v-2.9h-26.6V43h26.6v-8.65h-1.4v-6.2h1.4v-2.4h-1.4V19.6h1.4v-2.75h-1.4v-6.2h1.4V8.3h-1.4V2.1h1.4V-.5h-1.4v-6.2h1.4v-2.35h-1.4v-6.2h1.4m-19.65 0h1.65v6.2H-472v-6.2m-3.75 0h1.65v6.2h-1.65v-6.2m7.35 0h1.65v6.2h-1.65v-6.2m0 8.55h1.65v6.2h-1.65v-6.2m-7.35 0h1.65v6.2h-1.65v-6.2m3.75 0h1.65v6.2H-472v-6.2m14.5-8.55h1.65v6.2h-1.65v-6.2m-3.6 0h1.65v6.2h-1.65v-6.2m-3.6 0h1.65v6.2h-1.65v-6.2m7.2 8.55h1.65v6.2h-1.65v-6.2m-7.2 0h1.65v6.2h-1.65v-6.2m5.25 0v6.2h-1.65v-6.2h1.65m1.95 8.8h1.65v6.2h-1.65V2.1m-7.2 0h1.65v6.2h-1.65V2.1m0 8.55h1.65v6.2h-1.65v-6.2m7.2 0h1.65v6.2h-1.65v-6.2m-3.6 0h1.65v6.2h-1.65v-6.2m0-2.35V2.1h1.65v6.2h-1.65m3.6 11.3h1.65v6.15h-1.65V19.6m-7.2 0h1.65v6.15h-1.65V19.6m3.6 0h1.65v6.15h-1.65V19.6m-7.3-17.5h1.65v6.2h-1.65V2.1m-7.35 0h1.65v6.2h-1.65V2.1m0 8.55h1.65v6.2h-1.65v-6.2m7.35 0h1.65v6.2h-1.65v-6.2m-1.95-8.55v6.2H-472V2.1h1.65m-1.65 8.55h1.65v6.2H-472v-6.2m3.6 8.95h1.65v6.15h-1.65V19.6m-7.35 0h1.65v6.15h-1.65V19.6m3.75 0h1.65v6.15H-472V19.6m3.6 8.55h1.65v6.2h-1.65v-6.2m-7.35 0h1.65v6.2h-1.65v-6.2m5.4 0v6.2H-472v-6.2h1.65m12.85 0h1.65v6.2h-1.65v-6.2m-7.2 0h1.65v6.2h-1.65v-6.2m5.25 6.2h-1.65v-6.2h1.65v6.2z"/></g><g id="o"><path fill="#B3B3B3" d="M-565.35-111.2h-41.9V16.15h41.9V-111.2M-598-99.1v-8.25h2.2v8.25h-2.2m-2.8-8.25v8.25h-2.2v-8.25h2.2m9.8 0v8.25h-2.2v-8.25h2.2m2.8 8.25v-8.25h2.2v8.25h-2.2m4.8-8.25h2.2v8.25h-2.2v-8.25m4.85 8.25v-8.25h2.2v8.25h-2.2m4.95-8.25h2.2v8.25h-2.2v-8.25m0 19.75v-8.3h2.2v8.3h-2.2m-2.75-8.3v8.3h-2.2v-8.3h2.2m-7.05 8.3v-8.3h2.2v8.3h-2.2m-2.6-8.3v8.3h-2.2v-8.3h2.2m7.45 20v-8.3h2.2v8.3h-2.2m-2.65-8.3v8.3h-2.2v-8.3h2.2m-4.8 0v8.3h-2.2v-8.3h2.2m14.6 0v8.3h-2.2v-8.3h2.2m-21.8-11.7h2.2v8.3h-2.2v-8.3m-2.6 0v8.3h-2.2v-8.3h2.2m-5 8.3h-2.2v-8.3h2.2v8.3m0 3.4v8.3h-2.2v-8.3h2.2m2.8 8.3v-8.3h2.2v8.3h-2.2m7-8.3v8.3h-2.2v-8.3h2.2m-2.2 11.5h2.2v8.25h-2.2v-8.25m-2.6 0v8.25h-2.2v-8.25h2.2m7.6 8.25v-8.25h2.2v8.25h-2.2m-12.6 0h-2.2v-8.25h2.2v8.25m2.8 11.95v-8.3h2.2v8.3h-2.2m-2.8 0h-2.2v-8.3h2.2v8.3m12.6 0v-8.3h2.2v8.3h-2.2m-2.8-8.3v8.3h-2.2v-8.3h2.2m17.4-11.9h2.2v8.25h-2.2v-8.25m-2.75 0v8.25h-2.2v-8.25h2.2m-7.05 8.25v-8.25h2.2v8.25h-2.2m2.2 3.65v8.3h-2.2v-8.3h2.2m2.65 8.3v-8.3h2.2v8.3h-2.2m4.95 0v-8.3h2.2v8.3h-2.2m0 11.45v-8.3h2.2v8.3h-2.2m-2.75-8.3v8.3h-2.2v-8.3h2.2M-573.6-38h2.2v8.3h-2.2V-38m-9.8-3.05v-8.3h2.2v8.3h-2.2m-2.6-8.3v8.3h-2.2v-8.3h2.2m2.6 11.35h2.2v8.3h-2.2V-38m0 11.45h2.2v8.3h-2.2v-8.3m9.8 0h2.2v8.3h-2.2v-8.3m-4.95-3.15V-38h2.2v8.3h-2.2M-586-38v8.3h-2.2V-38h2.2m7.45 11.45h2.2v8.3h-2.2v-8.3m-14.65-22.8h2.2v8.3h-2.2v-8.3m0 11.35h2.2v8.3h-2.2V-38m-2.6-11.35v8.3h-2.2v-8.3h2.2m-7.2 8.3v-8.3h2.2v8.3h-2.2m0 3.05h2.2v8.3h-2.2V-38m0 11.45h2.2v8.3h-2.2v-8.3m9.8 0h2.2v8.3h-2.2v-8.3m-4.8-3.15V-38h2.2v8.3h-2.2m0 3.15h2.2v8.3h-2.2v-8.3m4.8 11.35h2.2v8.3h-2.2v-8.3m-9.8 0h2.2v8.3h-2.2v-8.3m0 11.45h2.2v8.3h-2.2v-8.3m9.8 0h2.2v8.3h-2.2v-8.3m-2.6-3.15h-2.2v-8.3h2.2v8.3m-2.2 3.15h2.2v8.3h-2.2v-8.3m9.8-3.15v-8.3h2.2v8.3h-2.2m14.6-8.3h2.2v8.3h-2.2v-8.3m-9.8 0h2.2v8.3h-2.2v-8.3m0 11.45h2.2v8.3h-2.2v-8.3m9.8 0h2.2v8.3h-2.2v-8.3m-4.95-3.15v-8.3h2.2v8.3h-2.2m0 3.15h2.2v8.3h-2.2v-8.3m-9.65 0h2.2v8.3h-2.2v-8.3m0-14.5v-8.3h2.2v8.3h-2.2z"/><path fill="#FFF" d="M-588.2-26.55v8.3h2.2v-8.3h-2.2m2.2 22.8h-2.2v8.3h2.2v-8.3m9.65 0h-2.2v8.3h2.2v-8.3m-2.2-11.45v8.3h2.2v-8.3h-2.2m7.15 11.45h-2.2v8.3h2.2v-8.3m-9.8 0h-2.2v8.3h2.2v-8.3m0-11.45h-2.2v8.3h2.2v-8.3m9.8 0h-2.2v8.3h2.2v-8.3m-16.8 0v8.3h2.2v-8.3h-2.2m-7.6 11.45h-2.2v8.3h2.2v-8.3M-598-6.9h2.2v-8.3h-2.2v8.3m7 3.15h-2.2v8.3h2.2v-8.3m-9.8 0h-2.2v8.3h2.2v-8.3m0-11.45h-2.2v8.3h2.2v-8.3m9.8 0h-2.2v8.3h2.2v-8.3m-4.8-11.35h-2.2v8.3h2.2v-8.3M-598-38v8.3h2.2V-38h-2.2m7 11.45h-2.2v8.3h2.2v-8.3m-9.8 0h-2.2v8.3h2.2v-8.3m0-11.45h-2.2v8.3h2.2V-38m-2.2-11.35v8.3h2.2v-8.3h-2.2m7.2 8.3v-8.3h-2.2v8.3h2.2M-591-38h-2.2v8.3h2.2V-38m0-11.35h-2.2v8.3h2.2v-8.3m14.65 22.8h-2.2v8.3h2.2v-8.3M-586-29.7V-38h-2.2v8.3h2.2m7.45-8.3v8.3h2.2V-38h-2.2m7.15 11.45h-2.2v8.3h2.2v-8.3m-9.8 0h-2.2v8.3h2.2v-8.3m0-11.45h-2.2v8.3h2.2V-38m-4.8-3.05v-8.3h-2.2v8.3h2.2m2.6-8.3v8.3h2.2v-8.3h-2.2m12 11.35h-2.2v8.3h2.2V-38m-4.95-3.05v-8.3h-2.2v8.3h2.2m2.75-8.3v8.3h2.2v-8.3h-2.2m0-11.45v8.3h2.2v-8.3h-2.2m-4.95 0v8.3h2.2v-8.3h-2.2m-2.65 8.3v-8.3h-2.2v8.3h2.2m-2.2-20.2v8.25h2.2v-8.25h-2.2m7.05 8.25v-8.25h-2.2v8.25h2.2m4.95-8.25h-2.2v8.25h2.2v-8.25M-591-52.5v-8.3h-2.2v8.3h2.2m2.8-8.3v8.3h2.2v-8.3h-2.2m-14.8 8.3h2.2v-8.3h-2.2v8.3m5-8.3v8.3h2.2v-8.3h-2.2m-5-3.65h2.2v-8.25h-2.2v8.25m14.8-8.25v8.25h2.2v-8.25h-2.2m-7.6 8.25v-8.25h-2.2v8.25h2.2m4.8-8.25h-2.2v8.25h2.2v-8.25m0-3.2v-8.3h-2.2v8.3h2.2m-7-8.3v8.3h2.2v-8.3h-2.2m-2.8 8.3v-8.3h-2.2v8.3h2.2m-2.2-11.7h2.2v-8.3h-2.2v8.3m7.2 0v-8.3h-2.2v8.3h2.2m4.8-8.3h-2.2v8.3h2.2v-8.3m19.6 20v-8.3h-2.2v8.3h2.2m-14.6 0v-8.3h-2.2v8.3h2.2m4.8 0v-8.3h-2.2v8.3h2.2m2.65-8.3v8.3h2.2v-8.3h-2.2m-7.45-3.4v-8.3h-2.2v8.3h2.2m2.6-8.3v8.3h2.2v-8.3h-2.2m7.05 8.3v-8.3h-2.2v8.3h2.2m2.75-8.3v8.3h2.2v-8.3h-2.2m2.2-11.45h-2.2v8.25h2.2v-8.25m-7.15 0v8.25h2.2v-8.25h-2.2m-2.65 0h-2.2v8.25h2.2v-8.25m-7 0v8.25h2.2v-8.25h-2.2m-2.8 8.25v-8.25h-2.2v8.25h2.2m-9.8 0v-8.25h-2.2v8.25h2.2m2.8-8.25v8.25h2.2v-8.25h-2.2M-559.1-4.5v-7.8l-1.3-.65v7.75l1.3.7m0 3l-1.3-.7.05 7.8 1.25.7v-7.8m-2.8-1.55l-1.3-.75V4l1.25.7.05-7.75m1.5-13.35l1.3.7v-8.6l-1.3-.7.05 7.75h-.05v.85m-1.55 2.55l-1.25-.7v7.8l1.25.7v-7.8m.05-12l-1.3-.75v7.8l1.25.7.05-7.75m1.5-9.9V-28l1.3.7v-7.8l-1.3-.65m-2.8 6.2l1.25.7v-7.8l-1.25-.7v7.8m0-12.05l1.25.7.05-7.75-1.3-.75v7.8m4.1-5.5l-1.3-.7.05 7.75h-.05v.85l1.3.7v-8.6m-1.3-11.45v7.75l1.3.7v-7.8l-1.3-.65m-2.8 6.2l1.25.7v-7.8l-1.25-.7v7.8m4.1-16.75l-1.3-.7v7.8l1.3.7v-7.8m-2.85-1.55l-1.25-.7v7.8l1.25.7v-7.8m2.8-9.15l-1.25-.75v7.75l1.3.75-.05-7.75m-2.8-1.55l-1.25-.75v7.75l1.25.75v-7.75m0-11.1l-1.25-.7v7.8l1.25.7v-7.8m2.85 1.6l-1.3-.7v7.75l1.25.7.05-7.75m-2.85-12.35l-1.25-.7v7.8l1.25.65v-7.75m2.85 1.55l-1.3-.7v7.8l1.25.75.05-7.85z"/><path fill="#999" d="M-556.5-106.25l-8.85-4.95V16.15l8.85 4.95v-127.35m-3.9 3.9l1.3.7-.05 7.85-1.25-.75v-7.8m-2.8-1.55l1.25.7v7.75l-1.25-.65v-7.8m2.8 12.35l1.3.7-.05 7.75-1.25-.7v-7.75m-2.8-1.6l1.25.7v7.8l-1.25-.7v-7.8m0 11.05l1.25.75v7.75l-1.25-.75v-7.75m2.8 1.55l1.25.75.05 7.75-1.3-.75v-7.75m-2.8 9.2l1.25.7v7.8l-1.25-.7v-7.8m2.8 1.55l1.3.7v7.8l-1.3-.7v-7.8m-1.55 18.15l-1.25-.7v-7.8l1.25.7v7.8m1.55.85v-7.75l1.3.65v7.8l-1.3-.7m0 3l1.3.7v8.6l-1.3-.7v-.85h.05l-.05-7.75m-1.55 6.9l-1.25-.7v-7.8l1.3.75-.05 7.75m0 12.05l-1.25-.7v-7.8l1.25.7v7.8m1.55.85v-7.75l1.3.65v7.8l-1.3-.7m-2.8 1.4l1.3.75-.05 7.75-1.25-.7v-7.8m0 12.05l1.25.7v7.8l-1.25-.7v-7.8m4.1-1.15l-1.3-.7v-.85h.05l-.05-7.75 1.3.7v8.6m-4.1 11.9l1.3.75-.05 7.75-1.25-.7v-7.8m2.8 1.6l1.3.7v7.8l-1.25-.7-.05-7.8m1.3-10.1v7.8l-1.3-.7v-7.75l1.3.65z"/></g><g id="p"><path fill="#CCC" d="M-669.05-124.65h-29.15v56.9h29.15v-56.9m-22.75 2.7h1.55v5.75h-1.55v-5.75m-3.45 0h1.55v5.75h-1.55v-5.75m0 7.95h1.55v5.8h-1.55v-5.8m3.45 0h1.55v5.8h-1.55v-5.8m0 8.2h1.55v5.75h-1.55v-5.75m-3.45 0h1.55v5.75h-1.55v-5.75m17-16.15h1.55v5.75h-1.55v-5.75m0 7.95h1.55v5.8h-1.55v-5.8m3.45-7.95h1.55v5.75h-1.55v-5.75m0 7.95h1.55v5.8h-1.55v-5.8m-6.8-7.95h1.55v5.75h-1.55v-5.75m-6.85 0h1.55v5.75h-1.55v-5.75m3.5 0h1.5v5.75h-1.5v-5.75m-3.5 7.95h1.55v5.8h-1.55v-5.8m3.5 0h1.5v5.8h-1.5v-5.8m3.35 0h1.55v5.8h-1.55v-5.8m0 8.2h1.55v5.75h-1.55v-5.75m-6.85 0h1.55v5.75h-1.55v-5.75m3.5 0h1.5v5.75h-1.5v-5.75m6.7 0h1.55v5.75h-1.55v-5.75m3.45 0h1.55v5.75h-1.55v-5.75m-3.45 7.95h1.55v5.75h-1.55v-5.75m0 8.3h1.55v5.75h-1.55v-5.75m3.45-8.3h1.55v5.75h-1.55v-5.75m0 8.3h1.55v5.75h-1.55v-5.75m-6.8-8.3h1.55v5.75h-1.55v-5.75m-6.85 0h1.55v5.75h-1.55v-5.75m3.5 0h1.5v5.75h-1.5v-5.75m-3.5 8.3h1.55v5.75h-1.55v-5.75m3.5 0h1.5v5.75h-1.5v-5.75m3.35 0h1.55v5.75h-1.55v-5.75m0 7.95h1.55v5.8h-1.55v-5.8m-3.35 0h1.5v5.8h-1.5v-5.8m-3.5 0h1.55v5.8h-1.55v-5.8m10.2 0h1.55v5.8h-1.55v-5.8m5 0v5.8h-1.55v-5.8h1.55m-18.55-16.25h1.55v5.75h-1.55v-5.75m-3.45 0h1.55v5.75h-1.55v-5.75m0 8.3h1.55v5.75h-1.55v-5.75m3.45 0h1.55v5.75h-1.55v-5.75m0 7.95h1.55v5.8h-1.55v-5.8m-3.45 0h1.55v5.8h-1.55v-5.8z"/><path fill="#FFF" d="M-693.7-81.6h-1.55v5.8h1.55v-5.8m3.45 0h-1.55v5.8h1.55v-5.8m0-7.95h-1.55v5.75h1.55v-5.75m-3.45 0h-1.55v5.75h1.55v-5.75m0-8.3h-1.55v5.75h1.55v-5.75m3.45 0h-1.55v5.75h1.55v-5.75m17 22.05v-5.8h-1.55v5.8h1.55m-3.45-5.8h-1.55v5.8h1.55v-5.8m-10.2 0h-1.55v5.8h1.55v-5.8m3.45 0h-1.5v5.8h1.5v-5.8m3.4 0h-1.55v5.8h1.55v-5.8m0-7.95h-1.55v5.75h1.55v-5.75m-3.4 0h-1.5v5.75h1.5v-5.75m-3.45 0h-1.55v5.75h1.55v-5.75m3.45-8.3h-1.5v5.75h1.5v-5.75m-3.45 0h-1.55v5.75h1.55v-5.75m6.85 0h-1.55v5.75h1.55v-5.75m6.8 8.3h-1.55v5.75h1.55v-5.75m0-8.3h-1.55v5.75h1.55v-5.75m-3.45 8.3h-1.55v5.75h1.55v-5.75m0-8.3h-1.55v5.75h1.55v-5.75m3.45-7.95h-1.55v5.75h1.55v-5.75m-3.45 0h-1.55v5.75h1.55v-5.75m-6.75 0h-1.5v5.75h1.5v-5.75m-3.45 0h-1.55v5.75h1.55v-5.75m6.85 0h-1.55v5.75h1.55v-5.75m0-8.2h-1.55v5.8h1.55v-5.8m-3.4 0h-1.5v5.8h1.5v-5.8m-3.45 0h-1.55v5.8h1.55v-5.8m3.45-7.95h-1.5v5.75h1.5v-5.75m-3.45 0h-1.55v5.75h1.55v-5.75m6.85 0h-1.55v5.75h1.55v-5.75m6.8 7.95h-1.55v5.8h1.55v-5.8m0-7.95h-1.55v5.75h1.55v-5.75m-3.45 7.95h-1.55v5.8h1.55v-5.8m0-7.95h-1.55v5.75h1.55v-5.75m-17 16.15h-1.55v5.75h1.55v-5.75m3.45 0h-1.55v5.75h1.55v-5.75m0-8.2h-1.55v5.8h1.55v-5.8m-3.45 0h-1.55v5.8h1.55v-5.8m0-7.95h-1.55v5.75h1.55v-5.75m3.45 0h-1.55v5.75h1.55v-5.75m24.65 46.85l.9.5v-5.45l-.9-.45v5.4m-1.05-6l-.9-.5v5.4l.85.5.05-5.4m-.05-7.5l-.85-.5v5.4l.85.5v-5.4m2 1.05l-.9-.45v5.4l.9.5v-5.45m0-7.75l-.9-.5v5.4l.9.5v-5.4m-2-1.1l-.85-.5v5.4l.85.5v-5.4m0-7.5l-.85-.5v5.4l.85.5v-5.4m1.95 1.1l-.85-.5v5.4l.9.5-.05-5.4m.05-7.7l-.9-.45v5.4l.85.5.05-5.45m-2-1.1l-.85-.45v5.4l.85.5v-5.45m2-6.4l-.9-.45v5.4l.85.5.05-5.45m-2-1.05l-.85-.5v5.4l.85.5v-5.4z"/><path fill="#999" d="M-662.9-121.2l-6.15-3.45v56.9l6.15 3.45v-56.9m-4.65 1.65l.85.5v5.4l-.85-.5v-5.4m1.95 1.1l.9.45-.05 5.45-.85-.5v-5.4m-1.95 6.4l.85.45v5.45l-.85-.5v-5.4m1.95 1.1l.9.45-.05 5.45-.85-.5v-5.4m0 7.65l.85.5.05 5.4-.9-.5v-5.4m-1.95-1.1l.85.5v5.4l-.85-.5v-5.4m0 7.5l.85.5v5.4l-.85-.5v-5.4m1.95 1.1l.9.5v5.4l-.9-.5v-5.4m0 7.8l.9.45v5.45l-.9-.5V-88m-1.95-1.1l.85.5v5.4l-.85-.5v-5.4m0 7.5l.9.5-.05 5.4-.85-.5v-5.4m2.85 7l-.9-.5v-5.4l.9.45v5.45z"/></g><g id="q"><path fill="#999" d="M-664.1-21.25l8.85 4.95v-81.75l-8.85-4.95v81.75m2.15-66.65v-7.8l1.25.7v7.75l-1.25-.65m2.8 12.3v-7.75l1.3.7-.05 7.75-1.25-.7m-1.55-.85l-1.25-.7v-7.8l1.25.7v7.8m2.85-17l-.05 7.85-1.25-.75v-7.8l1.3.7m-.05 21.85l.05 7.75-1.3-.75v-7.75l1.25.75m-4.05-2.3l1.25.75v7.75l-1.25-.75v-7.75m0 10.75l1.25.7v7.8l-1.25-.7v-7.8m0 11.2l1.25.7v7.8l-1.25-.7v-7.8m2.8-1.85v-7.8l1.3.7v7.8l-1.3-.7m0 3.45l1.3.65v7.8l-1.3-.7v-7.75m-2.8 9.15l1.3.75-.05 7.75-1.25-.7v-7.8m2.8 1.6l1.3.7v7.8l-1.25-.7-.05-7.8z"/><path fill="#FFF" d="M-657.85-38.9l-1.3-.7.05 7.8 1.25.7v-7.8m-2.8-1.55l-1.3-.75v7.8l1.25.7.05-7.75m2.8-9.25l-1.3-.65v7.75l1.3.7v-7.8m-1.3-11.9v7.8l1.3.7v-7.8l-1.3-.7m-1.55 10.35l-1.25-.7v7.8l1.25.7v-7.8m0-11.2l-1.25-.7v7.8l1.25.7v-7.8m0-10.7l-1.25-.75v7.75l1.25.75v-7.75m2.85 9.3l-.05-7.75-1.25-.75v7.75l1.3.75m-.05-21.75l.05-7.85-1.3-.7v7.8l1.25.75m-4.05 8.45l1.25.7v-7.8l-1.25-.7v7.8m2.8-6.2v7.75l1.25.7.05-7.75-1.3-.7m-2.8-12.35v7.8l1.25.65V-95l-1.25-.7m-22.8 54.55h-2.2v8.3h2.2v-8.3m4.8 0h-2.2v8.3h2.2v-8.3m4.85 0h-2.2v8.3h2.2v-8.3m4.95 0h-2.2v8.3h2.2v-8.3m-29.4 0h-2.2v8.3h2.2v-8.3m9.8 0h-2.2v8.3h2.2v-8.3m-4.8 0h-2.2v8.3h2.2v-8.3m4.8-11.45h-2.2v8.3h2.2v-8.3m-4.8 0h-2.2v8.3h2.2v-8.3m-5 0h-2.2v8.3h2.2v-8.3m0-11.9h-2.2v8.25h2.2v-8.25m5 0h-2.2v8.25h2.2v-8.25m4.8 0h-2.2v8.25h2.2v-8.25m0-11.5h-2.2v8.3h2.2V-76m-4.8 0h-2.2v8.3h2.2V-76m-5 0h-2.2v8.3h2.2V-76m0-11.7h-2.2v8.3h2.2v-8.3m9.8 0h-2.2v8.3h2.2v-8.3m-4.8 0h-2.2v8.3h2.2v-8.3m19.45 35.1h-2.2v8.3h2.2v-8.3m4.95 0h-2.2v8.3h2.2v-8.3m-9.8 0h-2.2v8.3h2.2v-8.3m-4.8 0h-2.2v8.3h2.2v-8.3m0-11.9h-2.2v8.25h2.2v-8.25m4.8 0h-2.2v8.25h2.2v-8.25m9.8 0h-2.2v8.25h2.2v-8.25m-4.95 0h-2.2v8.25h2.2v-8.25m4.95-11.5h-2.2v8.3h2.2V-76m-4.95 0h-2.2v8.3h2.2V-76m-4.85 0h-2.2v8.3h2.2V-76m-4.8 0h-2.2v8.3h2.2V-76m0-11.7h-2.2v8.3h2.2v-8.3m4.8 0h-2.2v8.3h2.2v-8.3m4.85 0h-2.2v8.3h2.2v-8.3m4.95 0h-2.2v8.3h2.2v-8.3m-9.8-11.45h-2.2v8.25h2.2v-8.25m4.85 0h-2.2v8.25h2.2v-8.25m-9.65 0h-2.2v8.25h2.2v-8.25m14.6 0h-2.2v8.25h2.2v-8.25m-29.4 0h-2.2v8.25h2.2v-8.25m9.8 0h-2.2v8.25h2.2v-8.25m-4.8 0h-2.2v8.25h2.2v-8.25z"/><path fill="#CCC" d="M-664.1-103H-706v81.75h41.9V-103m-32.65 3.85h2.2v8.25h-2.2v-8.25m4.8 0h2.2v8.25h-2.2v-8.25m-9.8 0h2.2v8.25h-2.2v-8.25m29.4 0h2.2v8.25h-2.2v-8.25m-14.6 0h2.2v8.25h-2.2v-8.25m9.65 0h2.2v8.25h-2.2v-8.25m-4.85 0h2.2v8.25h-2.2v-8.25m9.8 11.45h2.2v8.3h-2.2v-8.3m-4.95 0h2.2v8.3h-2.2v-8.3m-4.85 0h2.2v8.3h-2.2v-8.3m-4.8 0h2.2v8.3h-2.2v-8.3m0 11.7h2.2v8.3h-2.2V-76m4.8 0h2.2v8.3h-2.2V-76m4.85 0h2.2v8.3h-2.2V-76m4.95 0h2.2v8.3h-2.2V-76m-4.95 11.5h2.2v8.25h-2.2v-8.25m4.95 0h2.2v8.25h-2.2v-8.25m-9.8 0h2.2v8.25h-2.2v-8.25m-4.8 0h2.2v8.25h-2.2v-8.25m0 11.9h2.2v8.3h-2.2v-8.3m4.8 0h2.2v8.3h-2.2v-8.3m9.8 0h2.2v8.3h-2.2v-8.3m-4.95 0h2.2v8.3h-2.2v-8.3m-19.45-35.1h2.2v8.3h-2.2v-8.3m4.8 0h2.2v8.3h-2.2v-8.3m-9.8 0h2.2v8.3h-2.2v-8.3m0 11.7h2.2v8.3h-2.2V-76m5 0h2.2v8.3h-2.2V-76m4.8 0h2.2v8.3h-2.2V-76m0 11.5h2.2v8.25h-2.2v-8.25m-4.8 0h2.2v8.25h-2.2v-8.25m-5 0h2.2v8.25h-2.2v-8.25m0 11.9h2.2v8.3h-2.2v-8.3m5 0h2.2v8.3h-2.2v-8.3m4.8 0h2.2v8.3h-2.2v-8.3m-4.8 11.45h2.2v8.3h-2.2v-8.3m4.8 0h2.2v8.3h-2.2v-8.3m-9.8 0h2.2v8.3h-2.2v-8.3m29.4 0h2.2v8.3h-2.2v-8.3m-4.95 0h2.2v8.3h-2.2v-8.3m-4.85 0h2.2v8.3h-2.2v-8.3m-4.8 0h2.2v8.3h-2.2v-8.3z"/></g><g id="r"><path fill="#CCC" d="M-661.85-78.1h-49.6v96.75h49.6V-78.1m-13 4.6v9.8h-2.65v-9.8h2.65m5.85 0v9.8h-2.6v-9.8h2.6m-11.6 0v9.8h-2.6v-9.8h2.6m-5.7 0v9.8h-2.6v-9.8h2.6m5.7 13.55v9.8h-2.6v-9.8h2.6m-5.7 0v9.8h-2.6v-9.8h2.6m11.45 0v9.8h-2.65v-9.8h2.65m5.85 0v9.8h-2.6v-9.8h2.6m-23.15-13.55v9.8h-2.65v-9.8h2.65m-5.75 0v9.8h-2.6v-9.8h2.6m-5.85 0v9.8h-2.65v-9.8h2.65m3.25 23.35v-9.8h2.6v9.8h-2.6m-3.25-9.8v9.8h-2.65v-9.8h2.65m11.6 0v9.8h-2.65v-9.8h2.65m-2.65 13.85h2.65v9.8h-2.65v-9.8m-11.6 0h2.65v9.8h-2.65v-9.8m0 13.55h2.65v9.8h-2.65v-9.8m11.6 0h2.65v9.8h-2.65v-9.8m-5.7 0h2.6v9.8h-2.6v-9.8m2.6-3.75h-2.6v-9.8h2.6v9.8m9 0v-9.8h2.6v9.8h-2.6m-5.9 17.9h2.65v9.75h-2.65v-9.75m-11.6 0h2.65v9.75h-2.65v-9.75m0 13.55h2.65V4.9h-2.65v-9.75m11.6 0h2.65V4.9h-2.65v-9.75m-5.7-3.8v-9.75h2.6v9.75h-2.6m0 3.8h2.6V4.9h-2.6v-9.75m11.6-3.8v-9.75h2.6v9.75h-2.6m0-14.1v-9.8h2.6v9.8h-2.6m17.3-23.35h2.6v9.8h-2.6v-9.8m-5.9 0h2.65v9.8h-2.65v-9.8m-5.7 0h2.6v9.8h-2.6v-9.8m0 13.55h2.6v9.8h-2.6v-9.8m5.7 0h2.65v9.8h-2.65v-9.8m5.9 0h2.6v9.8h-2.6v-9.8m-5.9 14.15h2.65v9.75h-2.65v-9.75m5.9 0h2.6v9.75h-2.6v-9.75m-11.6 0h2.6v9.75h-2.6v-9.75m0 13.55h2.6V4.9h-2.6v-9.75m5.7 0h2.65V4.9h-2.65v-9.75m5.9 0h2.6V4.9h-2.6v-9.75m-17.3 0h2.6V4.9h-2.6v-9.75z"/><path fill="#FFF" d="M-686.3-4.85h-2.6V4.9h2.6v-9.75m17.3 0h-2.6V4.9h2.6v-9.75m-5.85 0h-2.65V4.9h2.65v-9.75m-5.75 0h-2.6V4.9h2.6v-9.75m0-13.55h-2.6v9.75h2.6v-9.75m11.6 0h-2.6v9.75h2.6v-9.75m-5.85 0h-2.65v9.75h2.65v-9.75m5.85-14.15h-2.6v9.8h2.6v-9.8m-5.85 0h-2.65v9.8h2.65v-9.8m-5.75 0h-2.6v9.8h2.6v-9.8m0-13.55h-2.6v9.8h2.6v-9.8m5.75 0h-2.65v9.8h2.65v-9.8m5.85 0h-2.6v9.8h2.6v-9.8m-19.9 13.55v9.8h2.6v-9.8h-2.6m0 14.15v9.75h2.6v-9.75h-2.6m-9 13.55h-2.6V4.9h2.6v-9.75m-2.6-13.55v9.75h2.6v-9.75h-2.6m8.35 13.55h-2.65V4.9h2.65v-9.75m-11.6 0h-2.65V4.9h2.65v-9.75m0-13.55h-2.65v9.75h2.65v-9.75m11.6 0h-2.65v9.75h2.65v-9.75m3.25-27.7v9.8h2.6v-9.8h-2.6m-11.6 9.8h2.6v-9.8h-2.6v9.8m2.6 3.75h-2.6v9.8h2.6v-9.8m5.75 0h-2.65v9.8h2.65v-9.8m-11.6 0h-2.65v9.8h2.65v-9.8m0-13.55h-2.65v9.8h2.65v-9.8m11.6 0h-2.65v9.8h2.65v-9.8m0-4.05v-9.8h-2.65v9.8h2.65m-11.6 0v-9.8h-2.65v9.8h2.65m3.25-9.8v9.8h2.6v-9.8h-2.6m-3.25-3.75v-9.8h-2.65v9.8h2.65m5.85 0v-9.8h-2.6v9.8h2.6m5.75 0v-9.8h-2.65v9.8h2.65M-669-50.15v-9.8h-2.6v9.8h2.6m-5.85 0v-9.8h-2.65v9.8h2.65m-11.45 0v-9.8h-2.6v9.8h2.6m5.7 0v-9.8h-2.6v9.8h2.6m-5.7-13.55v-9.8h-2.6v9.8h2.6m5.7 0v-9.8h-2.6v9.8h2.6m11.6 0v-9.8h-2.6v9.8h2.6m-5.85 0v-9.8h-2.65v9.8h2.65m17.05 59.65l-1.5-.85v9.2l1.5.85v-9.2m0-3.55v-9.2l-1.5-.85v9.2l1.5.85m3.35 5.35l-1.5-.8V6.2l1.5.8v-9.25M-654.5-15l-1.5-.8.05 9.2 1.5.85-.05-9.25m-4.8-19.45l1.45.85v-9.15l-1.45-.9v9.2m1.45 4.4l-1.5-.85.05 9.2 1.45.8v-9.15m3.35 1.8l-1.5-.8v9.2l1.5.85v-9.25m0-12.7l-1.5-.85v9.2l1.5.85v-9.2m-3.3-14.95l-1.55-.8v9.25l1.5.8.05-9.25m-1.5-4.3l1.45.8v-9.2l-1.5-.85.05 9.25m4.8 6.2l-1.5-.85v9.2l1.5.85V-54m0-12.75l-1.5-.8v9.15l1.5.9v-9.25z"/><path fill="#999" d="M-651.4-72.2l-10.45-5.9v96.75l10.45 5.85v-96.7m-4.6 4.65l1.5.8v9.25l-1.5-.9v-9.15m0 12.7l1.5.85v9.2l-1.5-.85v-9.2m-1.85-4.55l-1.45-.8-.05-9.25 1.5.85v9.2m-1.5 2.7l1.55.8-.05 9.25-1.5-.8v-9.25m3.35 14.9l1.5.85v9.2l-1.5-.85v-9.2m0 12.75l1.5.8V-19l-1.5-.85v-9.2m-3.35-1.85l1.5.85v9.15l-1.45-.8-.05-9.2m1.5-2.7l-1.45-.85v-9.2l1.45.9v9.15m1.85 17.8l1.5.8.05 9.25-1.5-.85-.05-9.2m.05 12.75l1.5.8V7l-1.5-.8v-9.25m-1.85-13.75v9.2l-1.5-.85v-9.2l1.5.85m-1.5 11.9l1.5.85v9.2l-1.5-.85v-9.2z"/></g><g id="s"><path fill="#999" d="M-585-49.5l-8.85-4.95V27.3l8.85 4.95V-49.5m-5.45 3.05v7.75l-1.25-.65v-7.8l1.25.7m1.55 8.65v-7.8l1.3.7-.05 7.85-1.25-.75m1.3 3.7l-.05 7.75-1.25-.7v-7.75l1.3.7m-4.1 5.5v-7.8l1.25.7v7.8l-1.25-.7m1.25 11.75l-1.25-.75v-7.75l1.25.75v7.75m1.55-6.95l1.25.75.05 7.75-1.3-.75v-7.75m-2.8 9.2l1.25.7v7.8l-1.25-.7v-7.8m2.8 12.8l1.3.65v7.8l-1.3-.7V-1.8m1.3-2.75l-1.3-.7v-7.8l1.3.7v7.8m-4.1 1.15l1.25.7v7.8l-1.25-.7v-7.8m2.8 12.35l1.3.7v7.8l-1.25-.7-.05-7.8m-2.8-1.6l1.3.75-.05 7.75-1.25-.7v-7.8z"/><path fill="#FFF" d="M-590.4 8.1l-1.3-.75v7.8l1.25.7.05-7.75m2.8 1.55l-1.3-.7.05 7.8 1.25.7v-7.8m-2.85-12.35l-1.25-.7v7.8l1.25.7v-7.8m1.55-2.55l1.3.7v-7.8l-1.3-.7v7.8m1.3 4.1l-1.3-.65v7.75l1.3.7v-7.8m-2.85-12.75l-1.25-.7v7.8l1.25.7v-7.8m2.8-9.15l-1.25-.75v7.75l1.3.75-.05-7.75m-4.05 5.45l1.25.75v-7.75l-1.25-.75v7.75m0-18.8v7.8l1.25.7v-7.8l-1.25-.7m4.05 10.05l.05-7.75-1.3-.7v7.75l1.25.7m-1.25-19.25v7.8l1.25.75.05-7.85-1.3-.7m-1.55 6.9v-7.75l-1.25-.7v7.8l1.25.65m-38.85 54.4V7.4h-2.2v8.3h2.2m9.8-8.3h-2.2v8.3h2.2V7.4m-4.8 0h-2.2v8.3h2.2V7.4m9.8 0h-2.2v8.3h2.2V7.4m4.8 0h-2.2v8.3h2.2V7.4m4.85 0h-2.2v8.3h2.2V7.4m4.95 0h-2.2v8.3h2.2V7.4m-4.95-11.45h-2.2v8.3h2.2v-8.3m4.95 0h-2.2v8.3h2.2v-8.3m0-11.9h-2.2v8.25h2.2v-8.25m-4.95 0h-2.2v8.25h2.2v-8.25m4.95-11.5h-2.2v8.3h2.2v-8.3m-4.95 0h-2.2v8.3h2.2v-8.3m0-11.7h-2.2v8.3h2.2v-8.3m4.95 0h-2.2v8.3h2.2v-8.3m-9.8 35.1h-2.2v8.3h2.2v-8.3m-4.8 0h-2.2v8.3h2.2v-8.3m-5 0h-2.2v8.3h2.2v-8.3m-4.8 0h-2.2v8.3h2.2v-8.3m0-11.9h-2.2v8.25h2.2v-8.25m4.8 0h-2.2v8.25h2.2v-8.25m9.8 0h-2.2v8.25h2.2v-8.25m-4.8 0h-2.2v8.25h2.2v-8.25m-14.8 11.9h-2.2v8.3h2.2v-8.3m0-3.65v-8.25h-2.2v8.25h2.2m0-19.75h-2.2v8.3h2.2v-8.3m0-3.4v-8.3h-2.2v8.3h2.2m19.6 3.4h-2.2v8.3h2.2v-8.3m-4.8 0h-2.2v8.3h2.2v-8.3m-5 0h-2.2v8.3h2.2v-8.3m-4.8 0h-2.2v8.3h2.2v-8.3m4.8-11.7h-2.2v8.3h2.2v-8.3m-4.8 0h-2.2v8.3h2.2v-8.3m9.8 0h-2.2v8.3h2.2v-8.3m4.8 0h-2.2v8.3h2.2v-8.3m-19.6-11.45h-2.2v8.25h2.2v-8.25m14.8 0h-2.2v8.25h2.2v-8.25m-5 0h-2.2v8.25h2.2v-8.25m9.8 0h-2.2v8.25h2.2v-8.25m-14.6 0h-2.2v8.25h2.2v-8.25m19.45 0h-2.2v8.25h2.2v-8.25m4.95 0h-2.2v8.25h2.2v-8.25z"/><path fill="#CCC" d="M-593.85-54.45h-41.9V27.3h41.9v-81.75m-8.25 3.85h2.2v8.25h-2.2v-8.25m-4.95 0h2.2v8.25h-2.2v-8.25m-19.45 0h2.2v8.25h-2.2v-8.25m14.6 0h2.2v8.25h-2.2v-8.25m-9.8 0h2.2v8.25h-2.2v-8.25m5 0h2.2v8.25h-2.2v-8.25m-14.8 0h2.2v8.25h-2.2v-8.25m19.6 11.45h2.2v8.3h-2.2v-8.3m-4.8 0h2.2v8.3h-2.2v-8.3m-9.8 0h2.2v8.3h-2.2v-8.3m4.8 0h2.2v8.3h-2.2v-8.3m-4.8 11.7h2.2v8.3h-2.2v-8.3m4.8 0h2.2v8.3h-2.2v-8.3m5 0h2.2v8.3h-2.2v-8.3m4.8 0h2.2v8.3h-2.2v-8.3m-17.4-11.7v8.3h-2.2v-8.3h2.2m-2.2 11.7h2.2v8.3h-2.2v-8.3m2.2 11.5v8.25h-2.2v-8.25h2.2m-2.2 11.9h2.2v8.3h-2.2v-8.3m14.8-11.9h2.2v8.25h-2.2v-8.25m4.8 0h2.2v8.25h-2.2v-8.25m-9.8 0h2.2v8.25h-2.2v-8.25m-4.8 0h2.2v8.25h-2.2v-8.25m0 11.9h2.2v8.3h-2.2v-8.3m4.8 0h2.2v8.3h-2.2v-8.3m5 0h2.2v8.3h-2.2v-8.3m4.8 0h2.2v8.3h-2.2v-8.3m9.8-35.1h2.2v8.3h-2.2v-8.3m-4.95 0h2.2v8.3h-2.2v-8.3m0 11.7h2.2v8.3h-2.2v-8.3m4.95 0h2.2v8.3h-2.2v-8.3m-4.95 11.5h2.2v8.25h-2.2v-8.25m4.95 0h2.2v8.25h-2.2v-8.25m0 11.9h2.2v8.3h-2.2v-8.3m-4.95 0h2.2v8.3h-2.2v-8.3m4.95 11.45h2.2v8.3h-2.2V7.4m-4.95 0h2.2v8.3h-2.2V7.4m-4.85 0h2.2v8.3h-2.2V7.4m-4.8 0h2.2v8.3h-2.2V7.4m-9.8 0h2.2v8.3h-2.2V7.4m4.8 0h2.2v8.3h-2.2V7.4m-7.6 0v8.3h-2.2V7.4h2.2z"/></g><g id="t"><path fill="#CCC" d="M-526.3-65.6h-41.9v81.75h41.9V-65.6m-32.65 12.1v-8.25h2.2v8.25h-2.2m-2.8-8.25v8.25h-2.2v-8.25h2.2m-2.2 11.45h2.2v8.3h-2.2v-8.3m14.8-11.45h2.2v8.25h-2.2v-8.25m-5 0h2.2v8.25h-2.2v-8.25m0 11.45h2.2v8.3h-2.2v-8.3m5 0h2.2v8.3h-2.2v-8.3m-9.8 0h2.2v8.3h-2.2v-8.3m19.45-11.45h2.2v8.25h-2.2v-8.25m-4.85 0h2.2v8.25h-2.2v-8.25m0 11.45h2.2v8.3h-2.2v-8.3m4.85 0h2.2v8.3h-2.2v-8.3m4.95-3.2v-8.25h2.2v8.25h-2.2m0 3.2h2.2v8.3h-2.2v-8.3m0 11.7h2.2v8.3h-2.2v-8.3m-4.95 0h2.2v8.3h-2.2v-8.3m-4.85 0h2.2v8.3h-2.2v-8.3m0 11.5h2.2v8.25h-2.2v-8.25m4.85 0h2.2v8.25h-2.2v-8.25m4.95 0h2.2v8.25h-2.2v-8.25m-19.6-11.5h2.2v8.3h-2.2v-8.3m5 0h2.2v8.3h-2.2v-8.3m-14.8 0h2.2v8.3h-2.2v-8.3m0 11.5h2.2v8.25h-2.2v-8.25m14.8 0h2.2v8.25h-2.2v-8.25m-5 0h2.2v8.25h-2.2v-8.25m-4.8-3.2v-8.3h2.2v8.3h-2.2m0 3.2h2.2v8.25h-2.2v-8.25m4.8 11.9h2.2v8.3h-2.2v-8.3m5 0h2.2v8.3h-2.2v-8.3m-14.8 0h2.2v8.3h-2.2v-8.3m0 11.45h2.2v8.3h-2.2v-8.3m14.8 0h2.2v8.3h-2.2v-8.3m-5 0h2.2v8.3h-2.2v-8.3m-4.8-3.15v-8.3h2.2v8.3h-2.2m0 3.15h2.2v8.3h-2.2v-8.3m24.4-11.45h2.2v8.3h-2.2v-8.3m-4.95 0h2.2v8.3h-2.2v-8.3m-4.85 0h2.2v8.3h-2.2v-8.3m4.85 11.45h2.2v8.3h-2.2v-8.3m-4.85 0h2.2v8.3h-2.2v-8.3m9.8 0h2.2v8.3h-2.2v-8.3z"/><path fill="#FFF" d="M-532.35-3.75h-2.2v8.3h2.2v-8.3m-9.8 0h-2.2v8.3h2.2v-8.3m4.85 0h-2.2v8.3h2.2v-8.3m-4.85-11.45h-2.2v8.3h2.2v-8.3m4.85 0h-2.2v8.3h2.2v-8.3m4.95 0h-2.2v8.3h2.2v-8.3m-24.4 11.45h-2.2v8.3h2.2v-8.3m-2.2-11.45v8.3h2.2v-8.3h-2.2m7 11.45h-2.2v8.3h2.2v-8.3m5 0h-2.2v8.3h2.2v-8.3m-14.8 0h-2.2v8.3h2.2v-8.3m0-11.45h-2.2v8.3h2.2v-8.3m14.8 0h-2.2v8.3h2.2v-8.3m-5 0h-2.2v8.3h2.2v-8.3m-4.8-11.9h-2.2v8.25h2.2v-8.25m-2.2-11.5v8.3h2.2v-8.3h-2.2m7 11.5h-2.2v8.25h2.2v-8.25m5 0h-2.2v8.25h2.2v-8.25m-14.8 0h-2.2v8.25h2.2v-8.25m0-11.5h-2.2v8.3h2.2v-8.3m14.8 0h-2.2v8.3h2.2v-8.3m-5 0h-2.2v8.3h2.2v-8.3m19.6 11.5h-2.2v8.25h2.2v-8.25m-4.95 0h-2.2v8.25h2.2v-8.25m-4.85 0h-2.2v8.25h2.2v-8.25m0-11.5h-2.2v8.3h2.2v-8.3m4.85 0h-2.2v8.3h2.2v-8.3m4.95 0h-2.2v8.3h2.2v-8.3m0-11.7h-2.2v8.3h2.2v-8.3m-2.2-11.45v8.25h2.2v-8.25h-2.2m-2.75 11.45h-2.2v8.3h2.2v-8.3m-4.85 0h-2.2v8.3h2.2v-8.3m0-11.45h-2.2v8.25h2.2v-8.25m4.85 0h-2.2v8.25h2.2v-8.25m-19.45 11.45h-2.2v8.3h2.2v-8.3m9.8 0h-2.2v8.3h2.2v-8.3m-5 0h-2.2v8.3h2.2v-8.3m0-11.45h-2.2v8.25h2.2v-8.25m5 0h-2.2v8.25h2.2v-8.25m-14.8 11.45h-2.2v8.3h2.2v-8.3m0-3.2v-8.25h-2.2v8.25h2.2m2.8-8.25v8.25h2.2v-8.25h-2.2m36.1 58.7l-1.3-.75V4l1.25.7.05-7.75m2.8 1.55l-1.3-.7.05 7.8 1.25.7v-7.8m0-3v-7.8l-1.3-.65v7.75l1.3.7m-2.85-9.35l-1.25-.7v7.8l1.25.7v-7.8m2.85-9.65l-1.3-.7v7.8l1.3.7v-7.8m-2.85-1.55l-1.25-.7v7.8l1.25.7v-7.8m0-10.7l-1.25-.75v7.75l1.25.75v-7.75m2.8 1.55l-1.25-.75v7.75l1.3.75-.05-7.75m-2.8-12.65l-1.25-.7v7.8l1.25.7v-7.8m2.85 1.6l-1.3-.7v7.75l1.25.7.05-7.75m0-10.8l-1.3-.7v7.8l1.25.75.05-7.85m-4.1-2.25v7.8l1.25.65v-7.75l-1.25-.7z"/><path fill="#999" d="M-517.45-60.65l-8.85-4.95v81.75l8.85 4.95v-81.75m-6.7 10.15v-7.8l1.25.7v7.75l-1.25-.65m2.8-6.25l1.3.7-.05 7.85-1.25-.75v-7.8m0 10.8l1.3.7-.05 7.75-1.25-.7v-7.75m-2.8-1.6l1.25.7v7.8l-1.25-.7v-7.8m2.8 12.6l1.25.75.05 7.75-1.3-.75v-7.75m-2.8-1.55l1.25.75V-28l-1.25-.75v-7.75m0 10.75l1.25.7v7.8l-1.25-.7v-7.8m2.8 1.55l1.3.7v7.8l-1.3-.7v-7.8m-2.8 9.65l1.25.7v7.8l-1.25-.7v-7.8m4.1 2.25v7.8l-1.3-.7v-7.75l1.3.65m-1.3 10.1l1.3.7v7.8l-1.25-.7-.05-7.8m-2.8-1.6l1.3.75-.05 7.75-1.25-.7v-7.8z"/></g></defs><use filter="url(#a)" xlink:href="#b" transform="matrix(.535 0 0 .535 -13.3 128.95)"/><use filter="url(#a)" xlink:href="#c" transform="matrix(.535 0 0 .535 -13.3 128.95)"/><use filter="url(#a)" xlink:href="#d" transform="matrix(.535 0 0 .535 -13.3 128.95)"/><use filter="url(#a)" xlink:href="#e" transform="matrix(.535 0 0 .535 -13.3 128.95)"/><use filter="url(#a)" xlink:href="#f" transform="matrix(.535 0 0 .535 -13.3 128.95)"/><use filter="url(#a)" xlink:href="#g" transform="matrix(.535 0 0 .535 -13.3 128.95)"/><use filter="url(#h)" xlink:href="#b" transform="translate(25.9 119.6) scale(.7453)"/><use filter="url(#h)" xlink:href="#c" transform="translate(25.9 119.6) scale(.7453)"/><use filter="url(#h)" xlink:href="#d" transform="translate(25.9 119.6) scale(.7453)"/><use filter="url(#h)" xlink:href="#e" transform="translate(25.9 119.6) scale(.7453)"/><use filter="url(#h)" xlink:href="#f" transform="translate(25.9 119.6) scale(.7453)"/><use filter="url(#h)" xlink:href="#g" transform="translate(25.9 119.6) scale(.7453)"/><use filter="url(#a)" xlink:href="#b" transform="matrix(-.535 0 0 .535 479.75 128.95)"/><use filter="url(#a)" xlink:href="#c" transform="matrix(-.535 0 0 .535 479.75 128.95)"/><use filter="url(#a)" xlink:href="#d" transform="matrix(-.535 0 0 .535 479.75 128.95)"/><use filter="url(#a)" xlink:href="#e" transform="matrix(-.535 0 0 .535 479.75 128.95)"/><use filter="url(#a)" xlink:href="#f" transform="matrix(-.535 0 0 .535 479.75 128.95)"/><use filter="url(#a)" xlink:href="#g" transform="matrix(-.535 0 0 .535 479.75 128.95)"/><g><use filter="url(#h)" xlink:href="#b" transform="matrix(-.7453 0 0 .7453 440.55 119.6)"/><use filter="url(#h)" xlink:href="#c" transform="matrix(-.7453 0 0 .7453 440.55 119.6)"/><use filter="url(#h)" xlink:href="#d" transform="matrix(-.7453 0 0 .7453 440.55 119.6)"/><use filter="url(#h)" xlink:href="#e" transform="matrix(-.7453 0 0 .7453 440.55 119.6)"/><use filter="url(#h)" xlink:href="#f" transform="matrix(-.7453 0 0 .7453 440.55 119.6)"/><use filter="url(#h)" xlink:href="#g" transform="matrix(-.7453 0 0 .7453 440.55 119.6)"/></g><g transform="translate(817.15 125.65)"><use xlink:href="#i"/></g><g transform="translate(817.15 125.65)"><use xlink:href="#j"/></g><g transform="translate(817.15 125.65)"><use xlink:href="#k"/></g><g transform="translate(817.15 125.65)"><use xlink:href="#l"/></g><g transform="translate(817.15 125.65)"><use xlink:href="#m"/></g><g transform="translate(817.15 125.65)"><use xlink:href="#n"/></g><g transform="translate(817.15 125.65)"><use xlink:href="#o"/></g><g transform="translate(817.15 125.65)"><use xlink:href="#p"/></g><g transform="translate(817.15 125.65)"><use xlink:href="#q"/></g><g transform="translate(817.15 125.65)"><use xlink:href="#r"/></g><g transform="translate(817.15 125.65)"><use xlink:href="#s"/></g><g transform="translate(817.15 125.65)"><use xlink:href="#t"/></g></svg>