
<svg xmlns="http://www.w3.org/2000/svg" version="1.1" xmlns:xlink="http://www.w3.org/1999/xlink" preserveAspectRatio="none" x="0px" y="0px" width="206px" height="640px" viewBox="0 0 206 640">
<defs>
<g id="gr_foto1_0_Layer0_0_MEMBER_0_MEMBER_0_FILL">
<path fill="#CC9900" stroke="none" d="
M 9.95 248.25
Q 9.75 248.65 9.65 249 10.05 248.65 10.5 248.35
L 9.95 248.25 Z"/>

<path fill="#FDAD35" stroke="none" d="
M 16.75 247.05
Q 15.9 246.9 14.35 246.95 11.7 247.15 10.5 248.35 10.05 248.65 9.65 249 9.55 250.4 9.15 251.55 8.35 256.85 9.35 261.25 9.75 264.55 11 266.8 12 269.45 13.75 271.4 13.95 271.5 14.15 271.65 15.7 272.05 15.9 272.25 16.5 272.75 17.45 272.35 19 271.85 16.6 257.4 17.25 257.2 18.15 257.15 20.95 257.6 22.9 263.2 24.6 267.4 24.95 271.3 25.85 279.8 24.85 286.3 24.1 289.45 24.85 291.3 24.85 291.6 24.85 291.8 26.25 291.5 27.5 291 29.65 290.4 32.3 289.65 36.4 288.25 38.95 280.55 41.75 274.7 41.1 264.35 40.5 259.1 40 253.8 39.7 256.55 39.6 259.55 38.95 264.85 35.9 265.05 33.25 265.25 27.1 260.15 26.75 259.95 26.45 259.65 25.85 259.35 24.8 257.6 24.3 256.75 23.3 254.9
L 20.6 250.6 19.6 249.8
Q 18.45 248.35 17.45 248.75 16.95 249.1 16.75 247.05 Z"/>

<path fill="#FDCB82" stroke="none" d="
M 14.55 239.25
Q 11.9 242.4 11 244.75 10.4 246.6 9.95 248.25
L 10.5 248.35
Q 11.7 247.15 14.35 246.95 15.9 246.9 16.75 247.05 16.95 249.1 17.45 248.75 18.45 248.35 19.6 249.8
L 20.6 250.6 23.3 254.9
Q 24.3 256.75 24.8 257.6 25.85 259.35 26.45 259.65 26.75 259.95 27.1 260.15 33.25 265.25 35.9 265.05 38.95 264.85 39.6 259.55 39.7 256.55 40 253.8 38.85 242.5 37.65 237.4
L 18.15 234.85
Q 17.35 236.25 14.55 239.25 Z"/>

<path fill="#E1E1E1" stroke="none" d="
M 43.15 119.95
L 42.95 119.95
Q 43.25 121.05 43.35 122.1
L 42.95 122.1
Q 40.9 126 42.05 136.95 42.95 147.7 33.65 155.1 24.2 162.35 14.55 148.75 4.65 135.3 -0.8 104.9
L -0.5 109.6 8.2 149.65
Q 8.35 149.85 8.35 150.05 8.65 150.3 8.75 152.25 8.85 152.45 8.85 152.65 9.15 154.05 9.25 156.2 9.35 158.25 9.55 160.55
L 14.25 233.4 18.15 234.85 37.65 237.4
Q 46.55 237.6 50.75 231.15
L 44.4 128.95
Q 43.9 124.35 43.15 119.95 Z"/>

<path fill="#FFFFFF" stroke="none" d="
M 24.3 64.2
Q 16.95 58.85 5.85 54.75 -7.25 71.45 -6.45 83.75 -5.5 96.25 -0.8 104.9 4.65 135.3 14.55 148.75 24.2 162.35 33.65 155.1 42.95 147.7 42.05 136.95 40.9 126 42.95 122.1
L 43.35 122.1
Q 43.25 121.05 42.95 119.95 40.2 100.25 35.9 84.8 31.7 69.4 24.3 64.2 Z"/>
</g>

<g id="gr_foto1_0_Layer0_0_MEMBER_0_MEMBER_1_FILL">
<path fill="#333366" stroke="none" d="
M -64.4 500.3
L -64.5 500.05 -64.6 500.15 -64.6 500.4
Q -64.5 500.3 -64.4 500.3
M 13 294.95
Q 8.9 247.4 5.2 213.25 2.15 214.65 -1.15 215.7 -14.75 218.15 -18.15 218.9 -31.95 223.65 -39.15 225.3 -51.3 228.25 -64.2 226.4 -86.3 226.4 -99.8 224.25 -109.3 222.65 -116.25 219.95 -117.85 232.4 -118.5 240.1 -119.55 252.65 -119.55 257.75 -119.55 277.4 -120.5 300 -121.55 322.6 -121.45 341 -121.45 359.35 -121 380.6 -120.5 401.75 -120.7 413.15 -120.8 414.7 -120.8 416.2 -120.8 418.95 -121 423.05 -119.35 430.8 -114.9 442.4 -109.2 457 -106.15 462.15 -99.6 473.75 -84.7 477.7 -65.7 482.95 -59.95 490.8 -58.5 484.45 -58.2 474.95 -58.15 467.45 -59.35 442.4 -59.75 435.4 -59.75 429.5
L -60.4 429.5
Q -66.85 434.5 -71.3 434.5 -72.75 435 -74.15 434.5 -76.75 434.05 -76.75 430.35 -76.75 426.95 -68.2 414.3 -62.8 406.4 -58.6 401 -58.05 394.1 -57.55 386.7 -56.25 381 -55 373 -52.35 356 -51.85 343
L -50.45 322.6
Q -50.25 330.75 -49.75 338.15 -48.75 352.3 -45.9 365.6 -42.95 379.35 -39.15 382.9 -38 404.8 -36.85 413.25 -29.55 425.05 -16 434.15 -8.3 439.35 -2.1 443.35 -2.1 448.5 -12.95 451.15 -20.05 452.95 -26.15 452.95 -28.15 452.95 -34 450.45 -34.3 457 -34.6 466.35 -34.7 470.8 -34.85 475.8 -34.85 486.15 -32.5 492.65 -31.95 492.65 -31.45 492.8 -6.5 497.75 9.1 484.85 17.45 477.8 22 466.35 23.9 461.5 25.15 455.8 24.3 446.1 23.05 433.85 17.9 379.55 17.9 364.85 17.8 350.15 13 294.95 Z"/>

<path fill="#333333" stroke="none" d="
M -140.45 543.3
L -148.8 542.1
Q -149.15 549.6 -148.5 550.35 -147.65 551.2 -137.95 554.35 -128.3 557.35 -125.25 557 -122 556.5 -101.7 546.85 -81.4 537.05 -74.25 532.3 -67.15 527.75 -66.2 525.85 -65.7 524.55 -65.55 517.4 -73.6 525.85 -96.4 536.4 -120.1 547.5 -125.05 547.5 -128 547.5 -131.6 546.25 -137.8 544 -140.45 543.3
M 54.75 536.4
L 46.4 537.65
Q 43.65 538.4 37.55 540.55 34.05 541.9 31 541.9 26 541.9 2.35 530.8 -20.45 520.25 -28.5 511.8 -28.3 518.85 -27.75 520.25 -26.8 522.15 -19.85 526.7 -12.65 531.35 7.75 541.25 28.1 550.9 31.1 551.4 34.25 551.75 43.95 548.65 53.7 545.6 54.45 544.75 55.25 543.9 54.75 536.4 Z"/>

<path fill="#CC6600" stroke="none" d="
M -108.65 526.35
Q -92.5 518.25 -85.45 510.65 -87.85 510 -90.4 509.15 -101.25 505.35 -109 505.35 -115.95 505.9 -120.8 506.2 -121.85 507.7 -123.15 509.6 -123.25 509.7 -123.25 509.9 -124.3 511.05 -125.25 512.35 -130.95 520.25 -135.7 523 -141.2 526.15 -144.5 529.25
L -144.7 529.85
Q -141.6 530.7 -136.05 532.2 -130.1 533.9 -126.75 533.9 -126.5 533.9 -108.65 526.35
M 50.5 524.05
L 50.5 523.6
Q 47.15 520.55 41.65 517.4 36.9 514.65 31.1 506.75 30.25 505.45 29.3 504.2 29.3 504.1 29.1 503.9 28.85 503.65 28.75 503.35 23.25 506.5 20 508.1 9.55 513.6 0.35 513.6 -0.6 513.6 -1.75 513.6 2.15 516.1 9.35 521.4 20.6 528.4 28.35 528.4 30.15 528.4 30.9 528.15 33.6 526.9 50.5 524.05 Z"/>

<path fill="#993300" stroke="none" d="
M -85.45 510.65
Q -92.5 518.25 -108.65 526.35 -126.5 533.9 -126.75 533.9 -130.1 533.9 -136.05 532.2 -141.6 530.7 -144.7 529.85
L -144.5 529.25
Q -144.7 529.55 -144.9 529.85 -145.2 529.95 -145.45 530.2 -147.95 533.65 -148.6 540.95 -148.6 541.5 -148.8 542.1
L -140.45 543.3
Q -137.8 544 -131.6 546.25 -128 547.5 -125.05 547.5 -120.1 547.5 -96.4 536.4 -73.6 525.85 -65.55 517.4 -65.55 515.2 -65.55 512.35 -65.55 511.05 -65.55 509.9
L -65.55 509.7
Q -71.4 512.85 -74.25 512.85 -78.35 512.85 -85.45 510.65
M 54.75 536.4
Q 54.65 535.8 54.65 535.25 53.8 527.2 50.85 523.85 50.6 523.75 50.5 523.6
L 50.5 524.05
Q 33.6 526.9 30.9 528.15 30.15 528.4 28.35 528.4 20.6 528.4 9.35 521.4 2.15 516.1 -1.75 513.6 -6.85 513.25 -16.55 511.7 -24.35 510.4 -28.5 509.25 -28.5 510.45 -28.5 511.8 -20.45 520.25 2.35 530.8 26 541.9 31 541.9 34.05 541.9 37.55 540.55 43.65 538.4 46.4 537.65
L 54.75 536.4 Z"/>

<path fill="#5C2E01" stroke="none" d="
M -116.6 499.55
Q -116.5 499.75 -120.8 506.2 -115.95 505.9 -109 505.35 -101.25 505.35 -90.4 509.15 -87.85 510 -85.45 510.65 -78.35 512.85 -74.25 512.85 -71.4 512.85 -65.55 509.7
L -65.55 509.6
Q -65.55 503.65 -66.2 501.95
L -66.5 501
Q -66 500.6 -68.3 499.85 -70.75 499.2 -75.4 499.75 -119.1 492.9 -116.8 499.2 -116.7 499.25 -116.6 499.55
M 28.75 503.35
Q 26.35 500.15 25.15 497.95 21.8 500.05 15.45 501.65 1.95 505.35 -12 505.35 -22.9 505.35 -28.3 499.75 -28.5 501.35 -28.5 503.9 -28.5 504.1 -28.5 504.2 -28.5 505.45 -28.5 506.75 -28.5 508 -28.5 509.25 -24.35 510.4 -16.55 511.7 -6.85 513.25 -1.75 513.6 -0.6 513.6 0.35 513.6 9.55 513.6 20 508.1 23.25 506.5 28.75 503.35 Z"/>

<path fill="#1A1A33" stroke="none" d="
M -114.9 442.4
Q -119.35 430.8 -121 423.05 -121.15 435.4 -122 460.05 -123.25 492.65 -122.6 492.65 -122 492.55 -122 495.45 -122 497.95 -117.65 499.25
L -116.8 499.2
Q -119.1 492.9 -75.4 499.75 -70.75 499.2 -68.3 499.85 -66 500.6 -66.5 501 -65.55 500.6 -64.5 500.05
L -64.4 500.3
Q -61.45 497.45 -59.95 490.8 -65.7 482.95 -84.7 477.7 -99.6 473.75 -106.15 462.15 -109.2 457 -114.9 442.4
M -59.35 409.65
Q -59 405.45 -58.6 401 -62.8 406.4 -68.2 414.3 -76.75 426.95 -76.75 430.35 -76.75 434.05 -74.15 434.5 -72.75 435 -71.3 434.5 -66.85 434.5 -60.4 429.5 -60.2 429.2 -59.75 429 -60.05 417.25 -59.35 409.65
M -16 434.15
Q -29.55 425.05 -36.85 413.25 -36.65 415.45 -36.4 416.7 -33.65 428.65 -34 447.25 -34 448.75 -34 450.45 -28.15 452.95 -26.15 452.95 -20.05 452.95 -12.95 451.15 -2.1 448.5 -2.1 443.35 -8.3 439.35 -16 434.15
M 22 466.35
Q 17.45 477.8 9.1 484.85 -6.5 497.75 -31.45 492.8 -31.95 492.65 -32.5 492.65 -31.65 495.2 -30.4 497.1 -29.55 498.4 -28.3 499.75 -22.9 505.35 -12 505.35 1.95 505.35 15.45 501.65 21.8 500.05 25.15 497.95 28.65 495.55 28.45 493.1 28.25 489.8 26.1 466.35 25.6 461.5 25.15 455.8 23.9 461.5 22 466.35
M 5.2 213.25
Q 4.55 207.7 3.85 202.5
L -113.65 202.5
Q -115.2 212.1 -116.25 219.95 -109.3 222.65 -99.8 224.25 -86.3 226.4 -64.2 226.4 -51.3 228.25 -39.15 225.3 -31.95 223.65 -18.15 218.9 -14.75 218.15 -1.15 215.7 2.15 214.65 5.2 213.25 Z"/>

<path fill="#006699" stroke="none" d="
M -60.4 429.5
L -59.75 429.5
Q -59.75 429.2 -59.75 429 -60.2 429.2 -60.4 429.5 Z"/>
</g>

<g id="gr_foto1_0_Layer0_0_MEMBER_0_MEMBER_2_FILL">
<path fill="#CC9900" stroke="none" d="
M -109.85 250.1
Q -109.35 250.3 -109 250.7 -109.1 250.3 -109.15 249.9
L -109.85 250.1 Z"/>

<path fill="#A07001" stroke="none" d="
M -139.15 263.1
L -138.25 263.1
Q -138.45 259.95 -138.85 257.3 -139.05 260.15 -139.15 263.1 Z"/>

<path fill="#FDAD35" stroke="none" d="
M -134.05 268.35
Q -137.1 268.35 -138.25 263.1
L -139.15 263.1
Q -139.25 265.45 -139.35 267.85 -139.35 278.2 -136.2 284 -133.2 291.5 -129 292.55 -126.35 293.25 -124.1 293.65 -122.85 294.15 -121.45 294.3 -121.45 294.15 -121.45 293.85 -120.8 291.9 -121.65 288.85 -123.25 282.4 -122.85 273.8 -122.55 269.9 -121.3 265.7 -119.7 259.95 -116.9 259.25 -116 259.25 -115.3 259.55 -116.9 274 -115.3 274.5 -114.25 274.7 -113.75 274.3 -113.55 274 -112 273.65 -111.8 273.45 -111.6 273.15 -110.05 271.2 -109.15 268.55 -108.1 266.1 -107.8 262.8 -107.2 258.4 -108.3 253.1 -108.7 252.05 -109 250.7 -109.35 250.3 -109.85 250.1 -111.15 248.95 -113.75 248.95 -115.3 248.95 -116.2 249.2 -116.2 251.15 -116.7 251 -117.75 250.5 -118.85 252.05
L -119.7 252.95 -122.15 257.3
Q -123.05 259.25 -123.45 260.15 -124.3 261.9 -125 262.4 -125.3 262.6 -125.65 262.8 -131.45 268.35 -134.05 268.35 Z"/>

<path fill="#FDCB82" stroke="none" d="
M -110.45 246.6
Q -111.6 244.15 -114.45 241.2 -117.3 238.4 -118.15 237.1
L -137.6 240.8
Q -138.45 245.9 -138.85 257.3 -138.45 259.95 -138.25 263.1 -137.1 268.35 -134.05 268.35 -131.45 268.35 -125.65 262.8 -125.3 262.6 -125 262.4 -124.3 261.9 -123.45 260.15 -123.05 259.25 -122.15 257.3
L -119.7 252.95 -118.85 252.05
Q -117.75 250.5 -116.7 251 -116.2 251.15 -116.2 249.2 -115.3 248.95 -113.75 248.95 -111.15 248.95 -109.85 250.1
L -109.15 249.9
Q -109.75 248.35 -110.45 246.6 Z"/>

<path fill="#E1E1E1" stroke="none" d="
M -107.4 110.9
L -107.4 106.3
Q -110.95 136.85 -119.9 150.9 -128.8 165.05 -138.65 158.4 -148.3 151.6 -148.15 140.85 -147.75 129.8 -149.9 126.1
L -150.35 126.1
Q -150.35 124.95 -150.1 123.85
L -150.35 123.85
Q -150.75 128.25 -150.95 132.95
L -150.95 235.25
Q -146.35 241.5 -137.6 240.8
L -118.15 237.1 -114.45 235.25 -114.25 162.4
Q -114.25 160 -114.25 158.05 -114.25 155.8 -113.95 154.5 -113.95 154.2 -113.95 154.05 -113.95 152.1 -113.75 151.9 -113.75 151.6 -113.55 151.4
L -107.4 110.9 Z"/>

<path fill="#FFFFFF" stroke="none" d="
M -134.95 67.05
Q -142 72.8 -145.3 88.4 -148.6 104.05 -150.1 123.85 -150.35 124.95 -150.35 126.1
L -149.9 126.1
Q -147.75 129.8 -148.15 140.85 -148.3 151.6 -138.65 158.4 -128.8 165.05 -119.9 150.9 -110.95 136.85 -107.4 106.3 -103.2 97.2 -103 84.6 -103 72.3 -117.1 56.5 -127.9 61.3 -134.95 67.05 Z"/>
</g>

<g id="gr_foto1_0_Layer0_0_MEMBER_0_MEMBER_3_FILL">
<path fill="#EAEAEA" stroke="none" d="
M -102.7 44.4
L -102.95 44
Q -114.85 50.6 -123.4 56.1 -124.3 56.75 -124.95 57.2 -127.6 58.95 -130 60.95 -131.55 62.05 -133.35 65.15
L -121 149.7 -120.1 236.45 -136.85 363.75
Q -110.4 380.95 -84.2 381.4
L -84.2 248.8 -83.1 226.35 -105.15 132.5 -88.6 94 -102.95 68.65 -95.65 52.8
Q -102.7 49.05 -102.7 44.4
M 20.6 58.1
Q 19.75 57 18.85 56.1 12.7 50.15 -1.6 44.2 -2.05 50.6 -10.2 56.1 -10.65 56.55 -11.55 57 -12.4 57.4 -13.1 58.1
L -9.35 66.45 -23.65 91.8 -7.15 130.3 -25.85 210.05 -25.85 248.35 -25.85 381.4
Q 0.35 380.95 26.8 363.75
L 11.35 237.15 7.85 170.2 10.05 138.25 15.35 103.65
Q 18.4 87.15 19.1 81 22.4 71.75 21.5 59.85 20.2 58.3 20.6 58.1 Z"/>

<path fill="#E1E1E1" stroke="none" d="
M -88.2 36.3
Q -95.9 40.25 -102.7 44 -102.7 44.2 -102.7 44.4 -102.7 49.05 -95.65 52.8
L -88.2 36.3
M -4.05 43.3
Q -12.2 39.6 -18.8 36.95 -19 40.25 -19.9 43.1
L -13.1 58.1
Q -12.4 57.4 -11.55 57 -10.65 56.55 -10.2 56.1 -2.05 50.6 -1.6 44.2 -2.75 43.75 -4.05 43.3 Z"/>

<path fill="#CCCCFF" stroke="none" d="
M -102.7 44
L -102.95 44 -102.7 44.4
Q -102.7 44.2 -102.7 44 Z"/>

<path fill="#CCCCCC" stroke="none" d="
M -75.2 54.35
L -76.3 54.35
Q -75.85 54.55 -75.2 54.8
L -75.2 54.35
M -23.45 35.4
L -23.65 35.15 -19.9 43.1
Q -19 40.25 -18.8 36.95 -20.8 36.3 -23.45 35.4 Z"/>

<path fill="#BBBBBB" stroke="none" d="
M -73 59.4
Q -74.3 59.2 -75.4 58.95
L -83.1 226.35 -84.2 248.8
Q -56.25 254.3 -25.85 248.35
L -25.85 210.05 -25.85 62.7
Q -30.9 63.6 -36.65 63.6 -51.6 63.6 -73 59.4 Z"/>

<path fill="#FBFBFB" stroke="none" d="
M -75.4 58.95
L -75.2 54.8
Q -75.85 54.55 -76.3 54.35
L -75.2 54.35 -75.2 26.15
Q -84.45 34.3 -87.75 35.85 -87.95 36.05 -87.95 36.3
L -88.2 36.3 -95.65 52.8 -102.95 68.65 -88.6 94 -105.15 132.5 -83.1 226.35 -75.4 58.95
M -24.3 35.15
L -23.85 34.95 -30.25 21.3
Q -32.7 32.55 -25.85 52.35
L -25.85 62.7 -25.85 210.05 -7.15 130.3 -23.65 91.8 -9.35 66.45 -13.1 58.1 -19.9 43.1 -23.65 35.15
Q -24.1 35.15 -24.3 35.15 Z"/>

<path fill="#B7B7B7" stroke="none" d="
M -51.6 60.3
Q -63.3 60.05 -72.55 56.1 -74.1 55.45 -75.2 54.8
L -75.4 58.95
Q -74.3 59.2 -73 59.4 -51.6 63.6 -36.65 63.6 -30.9 63.6 -25.85 62.7
L -25.85 52.35
Q -27.6 53.9 -29.6 55.2 -30.05 55.65 -30.7 56.1 -38.85 60.7 -51.6 60.3 Z"/>

<path fill="#9D9D9D" stroke="none" d="
M -64.4 31.2
Q -69.9 31.85 -75.2 26.15
L -75.2 54.35 -75.2 54.8
Q -74.1 55.45 -72.55 56.1 -63.3 60.05 -51.6 60.3 -38.85 60.7 -30.7 56.1 -30.05 55.65 -29.6 55.2 -27.6 53.9 -25.85 52.35 -32.7 32.55 -30.25 21.3
L -53.6 33.65
Q -56.7 33.65 -57.35 34.75 -60.85 33.2 -64.4 31.2 Z"/>
</g>

<g id="gr_foto1_0_Layer0_0_MEMBER_0_MEMBER_4_FILL">
<path fill="#CC9900" stroke="none" d="
M -72.8 28.2
L -72.8 29.9
Q -72.1 29.55 -72.45 28.85 -72.6 28.25 -72.6 27.9 -72.79375 27.9 -72.8 28.15
L -72.8 28.2
M -88.1 -11.75
L -88.2 -11.75 -88.35 -11.45 -88.1 -11.35 -87.95 -11.35
Q -87.95 -11.55 -87.95 -11.7
L -88.1 -11.75
M -46.9 -77.15
Q -51.3 -78 -57.25 -76.6 -63.05 -75.3 -67.35 -72.7 -62.5 -73.5 -60.25 -72.7 -61.55 -72.6 -64.5 -71.15 -67.35 -69.65 -68.55 -68.7 -69.8 -67.8 -71.65 -65.9 -73.5 -64.3 -74.6 -62.9 -71.65 -64.9 -65.6 -67.1 -59.65 -69.2 -54.8 -69.1 -58.05 -68.25 -60.35 -65.45 -62.75 -62.7 -63.6 -61.15 -59 -64.4 -54 -65.85 -48.9 -67.2 -43.7 -66.4
L -38.35 -66.4
Q -41.5 -66.9 -41.95 -67.3 -40.65 -67.95 -41.1 -68.05 -44.95 -68.55 -46.2 -68.95 -46.2 -69.1 -45.8 -69.35 -45.25 -69.6 -45.25 -69.75
L -38.1 -70.85
Q -46.25 -71.9 -47.95 -71
L -47.95 -71.5
Q -47 -71.65 -42.95 -73.5 -39.7 -74.9 -37.7 -75.15
L -49.15 -75.15
Q -48.7 -76.6 -46.9 -77.15
M -28.7 -69.85
Q -28.55 -67.8 -27.95 -66.15 -27.35 -64.4 -26.85 -63.9
L -26.85 -63.4 -30.85 -65.7
Q -28.4 -63.05 -28.9 -61.35 -29.85 -61.35 -31.4 -62.05 -33.1 -62.8 -32.6 -62.45 -32.05 -62.1 -30.15 -58.05 -28.7 -55.1 -28.55 -53.3
L -28.55 -56.8
Q -25.6 -54.9 -23.4 -51.85 -21.1 -48.6 -21.35 -46.6
L -20.9 -46.6
Q -19.65 -49.4 -20.9 -54.1 -21.85 -55.4 -22.1 -56.05 -22.55 -56.85 -22.55 -58.05 -22.3 -57.8 -21.65 -57.25 -21 -56.8 -20.5 -55.4
L -20.4 -55.15
Q -20.4 -55.1 -20.15 -55.1
L -20.15 -57.6
Q -20.5 -58.9 -21.3 -59.9 -22.1 -60.9 -22.1 -60.65 -22.1 -60.45 -24.8 -63.9 -27.55 -67.3 -28.7 -69.85
M -87.4 -5.55
L -87.7 -5.55
Q -87.7 -5.15 -87.7 -5 -87.6 -5.15 -87.4 -5.55 Z"/>

<path fill="#FDAD35" stroke="none" d="
M -72.6 23.95
L -72.6 24.35 -71.65 25.2 -72.6 23.95
M -35.4 23.6
L -35.4 23.45
Q -35.403515625 23.551171875 -35.55 23.6
L -35.4 23.6
M -21.8 -10.6
Q -21.85 -10.35 -21.85 -9.85 -21.85 -9.4 -20.6 -4.6 -20.5 -4.4 -20.4 -4.2 -20.4 -3.9 -19.4 -3.9 -17.65 -3.9 -15.85 -9.65
L -16.05 -9.85
Q -16.7 -9.05 -18.15 -9.05 -18.3 -9.05 -19.9 -9.65 -20.4 -9.65 -20.6 -9.85
L -20.05 -12.8
Q -20.4 -12.2 -20.85 -11.55 -21.15 -10.85 -21.8 -9.95
L -21.8 -10.6
M -92.15 -8.05
L -92.25 -7.9
Q -90.65 -3.9 -89.05 -3.9
L -88.95 -3.9
Q -89.05 -4.65 -89.05 -5.15 -89.15 -7.05 -88.9 -9.15 -89.7 -7.9 -91.25 -7.9 -92.15 -7.9 -92.15 -8.05
M -44.95 -33.2
Q -45.5 -33 -45.6 -32.8 -49.15 -30.3 -49.15 -23.2
L -49.15 -20.35
Q -49.15 -20.25 -49.15 -20 -47 -20.5 -44.45 -22.75
L -32.6 -22.9
Q -25.9 -19.4 -24.1 -16 -23.3 -14.3 -22.6 -10.15 -22.3 -11.15 -21.8 -11.45
L -21.8 -12.1
Q -21.35 -12.8 -21.3 -13.2 -21.15 -13.65 -21 -14.4 -20.9 -15.4 -20.9 -15.75 -21.3 -15.6 -21.65 -15.4 -21.65 -17.2 -21.95 -20 -22.1 -22.75 -22.1 -24.65
L -22.1 -24.75 -24.6 -31
Q -24.65 -31.25 -24.8 -31.45 -26.25 -32.7 -26.9 -33.3 -28.85 -34.2 -31.1 -34.6 -33.2 -35.05 -35.95 -35.05 -42.45 -35.05 -44.95 -33.2
M -86.45 -27.95
Q -86.45 -26.8 -86.4 -25.9 -86.4 -25.7 -86.3 -25.45 -86.2 -24.4 -86 -23.45 -85.55 -21.45 -85.55 -21.35 -85.55 -20.5 -85.6 -19.25 -83.8 -22.2 -81.2 -23.2 -79.45 -23.9 -75.8 -23.95
L -75.5 -23.95 -66.8 -22.2
Q -65.9 -21.7 -63.95 -20.7 -62 -19.95 -59.5 -15.65 -59.3 -15.4 -59.15 -15.1 -59.05 -17.5 -59.5 -20.45 -59.95 -23.45 -61.8 -27.5 -63.85 -31.45 -66.25 -32.8 -68.8 -34.4 -71.6 -34.4 -73.4 -34.6 -76.9 -34.05 -80.55 -33.2 -83.1 -31.4 -85.9 -29.5 -86.45 -28.4 -86.9 -28 -86.45 -27.95 Z"/>

<path fill="#FDCB82" stroke="none" d="
M -35.55 23.6
L -36.2 24.3 -36.2 24.35
Q -37.4 25.75 -38.45 27.25 -38.7 27.3 -38.75 27.5 -39.7 28.7 -41.65 30.3 -43.35 31.8 -44.7 32.6 -46.7 33.8 -48.05 34.6 -48.05 33.8 -47.55 32.6
L -47.55 31.4
Q -48.5 31.7 -49.9 32.85 -51.3 34.3 -53.05 34.05 -53.1 34.3 -53.2 34.4 -53.55 35.8 -53.2 37.35 -53.55 37.6 -54.05 37.6 -55.25 37.6 -56.75 35.15
L -56.8 35.05
Q -57.05 34.9 -57.25 34.75 -57.95 34.6 -58.7 34.3 -60.6 33.25 -61.3 31.7 -61.3 32.2 -61.55 32.2 -61.75 33.25 -61.75 35.65 -61.85 35.4 -62.25 35.4
L -63.45 32.2
Q -64.25 33.15 -64.9 33.25 -68.25 29.3 -69.85 27.25 -70.5 26.5 -70.9 25.95
L -71.65 25.2 -72.6 24.35 -72.8 24.35 -72.8 28.15
Q -72.79375 27.9 -72.6 27.9 -72.6 28.25 -72.45 28.85 -72.1 29.55 -72.8 29.9
L -72.8 34.6
Q -50.25 49.55 -35.85 34.4 -35.4 34.05 -35.55 33.3
L -35.55 23.6
M -17.05 -27.2
L -17.05 -26.95 -17.05 -26.9
Q -17.05 -26.6 -17 -26.45 -17 -26 -17 -25.45 -17 -25.3 -17 -25.15
L -17 -24.9
Q -16.8 -20.85 -17.75 -17.65 -18.35 -15.65 -20.05 -12.8
L -20.6 -9.85
Q -20.4 -9.65 -19.9 -9.65 -18.3 -9.05 -18.15 -9.05 -16.7 -9.05 -16.05 -9.85
L -15.85 -9.65
Q -15.85 -9.85 -15.85 -9.9 -15.6 -10.6 -15.5 -11.15 -13.8 -17.2 -13.8 -20.9 -13.8 -21.45 -14 -23.9 -14.25 -25.9 -14.25 -27.2
L -16.25 -27.2 -17.05 -27.2
M -91.15 -25.15
Q -91.153125 -25.3046875 -91.25 -25.45 -91.7 -26.95 -91.7 -27.2
L -94.5 -27.2
Q -94.5 -25.9 -94.65 -23.9 -94.95 -21.45 -94.95 -20.9 -94.95 -17.2 -93.45 -11.15 -92.7 -9.45 -92.25 -8.05
L -92.25 -7.9 -92.15 -8.05
Q -92.15 -7.9 -91.25 -7.9 -89.7 -7.9 -88.9 -9.15 -88.75 -9.3 -88.7 -9.45
L -88.9 -9.65
Q -88.55 -10.65 -88.35 -11.45
L -88.35 -11.55
Q -88.35 -11.75 -88.35 -11.85 -88.35 -12.3 -88.35 -12.8 -88.45 -12.9 -88.35 -13.15 -88.75 -17.9 -89.2 -18.45 -90.6 -19.4 -91.15 -20.25
L -91.15 -23.7
Q -91.15 -24.35 -91.15 -25
L -91.15 -25.15
M -53.25 17.35
Q -53.85 17.4 -54.55 17.4 -54.6 17.4 -54.65 17.4 -54.5 17.65 -54.25 17.8 -54.05 18.15 -53.75 18.15 -53.55 17.95 -53.45 17.8 -53.35 17.55 -53.25 17.35
M -24.35 -3.9
Q -24.65 -3.6 -25.15 -3.3
L -25.15 -2.65 -24.6 -2.65
Q -24.55 -3.1 -24.6 -3.15 -24.55 -3.3 -24.35 -3.6
L -24.35 -3.9
M -20.9 -15.75
Q -21 -20.35 -22.1 -24.75
L -22.1 -24.65
Q -22.1 -22.75 -21.95 -20 -21.65 -17.2 -21.65 -15.4 -21.3 -15.6 -20.9 -15.75
M -84.7 -35.8
L -84.85 -35.75
Q -87.45 -33.3 -87.45 -29.5 -87.45 -28 -86.6 -26
L -86.4 -25.9
Q -86.45 -26.8 -86.45 -27.95 -86.9 -28 -86.45 -28.4 -85.9 -29.5 -83.1 -31.4 -80.55 -33.2 -76.9 -34.05 -73.4 -34.6 -71.6 -34.4 -68.8 -34.4 -66.25 -32.8 -63.85 -31.45 -61.8 -27.5 -59.95 -23.45 -59.5 -20.45 -59.05 -17.5 -59.15 -15.1 -59.3 -15.4 -59.5 -15.65 -62 -19.95 -63.95 -20.7 -65.9 -21.7 -66.8 -22.2
L -75.5 -23.95 -75.8 -23.65
Q -75.8 -23.9 -75.8 -23.95 -79.45 -23.9 -81.2 -23.2 -83.8 -22.2 -85.6 -19.25 -85.6 -19.1 -85.9 -18.7 -86 -17.2 -86 -16.45
L -86.4 -15.6
Q -85.55 -14.15 -84.9 -9.15 -84.65 -5.65 -84.45 -0.4
L -84.45 0.1
Q -83.8 -1.1 -83.8 -1.85
L -83.45 -1.85
Q -82.95 0.6 -82.95 1.1
L -82.85 1.45
Q -82.4 1.35 -81.2 0.6 -80.9 9.5 -80.1 11.7 -79.3 11.7 -78.3 8.9
L -78.05 8.9
Q -77.8 9.95 -77.8 12.7 -76.85 11.55 -75.65 11.1
L -75.65 13.3
Q -74.8 13.45 -74.15 14.65 -73.9 15.45 -73.25 18.45
L -72.05 18.45
Q -72.05 17.75 -71.35 16.75
L -71.1 16.75
Q -71.15 19.25 -69.2 21.15 -67.3 22.95 -65.4 22.75 -65.3 21 -64.25 20.45 -64.05 20.7 -64.05 21.8
L -63.95 22.05
Q -63.85 22.1 -63.55 22.1 -62.05 22.1 -61.55 20.35 -61 18.3 -60.85 17.95
L -60.15 17.95
Q -60.15 18.8 -59.5 20.75 -58.7 23 -58.2 23 -57.35 23 -56.75 20.25 -56.4 18.9 -56.15 17.8 -56.1 17.55 -56 17.35 -57.15 17.25 -58.1 17 -59.45 16.6 -59.45 16.05 -59.45 15.85 -59.1 15.65 -58.7 15.45 -58.1 15.25 -56.75 15.1 -55.2 15.05 -55.1 14.85 -55 14.7
L -55.2 14.5
Q -54.8 14.5 -54.4 14.5
L -55 14.7
Q -55 14.8 -55 15.05 -54.8 15.05 -54.55 15.05 -52.4 15.05 -51 15.25 -50.2 15.45 -49.8 15.65 -49.45 15.85 -49.45 16.05 -49.45 16.6 -51 17 -51.75 17.2 -52.65 17.3 -52.65 17.55 -52.65 17.8 -52.5 19.05 -52.15 21.35 -50.9 21.15 -50.4 21.55 -50.1 21.65 -49.55 22.25 -49.45 22.45 -49.15 22.75 -48.9 22.75 -48.7 22.1 -47.4 21.8 -45.4 21.3 -42.3 20.25 -41.1 19.3 -40 18.45 -39.45 18.15 -38.9 17.8 -37.45 17.5 -34.4 12.25 -33.45 11.7
L -33.45 13.55 -33 13.3
Q -32.6 11.55 -32.45 10.9 -32.05 9.45 -31.1 9.45
L -31.1 10.15
Q -30.6 8.5 -30.4 7.7 -29.9 6.5 -28.9 6.7 -28.9 6.75 -28.3 7.45 -28.15 7.8 -28.05 8.05
L -28.3 2.8
Q -28.3 1.9 -27.35 0.85 -26.6 -0.35 -26.15 -0.3 -26.1 -2.15 -25.15 -3.3 -25.15 -4.6 -25.3 -5.85 -25.6 -6.85 -25.6 -6.95 -25.6 -7.9 -25.15 -8.2 -24.6 -8.35 -23.4 -8.9 -23.3 -9.05 -22.75 -10.1
L -22.6 -10.1 -22.6 -10.15
Q -23.3 -14.3 -24.1 -16 -25.9 -19.4 -32.6 -22.9
L -44.45 -22.75
Q -47 -20.5 -49.15 -20 -49.15 -20.25 -49.15 -20.35
L -49.15 -23.2
Q -49.15 -30.3 -45.6 -32.8 -45.5 -33 -44.95 -33.2 -42.45 -35.05 -35.95 -35.05 -33.2 -35.05 -31.1 -34.6 -28.85 -34.2 -26.9 -33.3 -26.25 -32.7 -24.8 -31.45 -24.9 -31.95 -24.6 -32.3 -25.3 -33.95 -26.1 -35.5 -28.05 -39.2 -29.5 -42.1 -30.7 -44.6 -31.7 -46.5 -33.95 -50.85 -34.6 -52.25 -36.95 -50.8 -40.95 -49.25 -40.95 -49.340625 -40.95 -49.4 -40.9525390625 -49.2974609375 -41 -49.25 -43.25 -48.5 -45.9 -47.8 -46.75 -47.55 -47.65 -47.2 -49 -46.9 -50.2 -46.5 -50.25 -46.5 -50.4 -46.35 -53.05 -45.85 -55.25 -45.25 -61.3 -43.75 -64.3 -42.85
L -58.05 -50.8 -72.35 -41.25 -72.35 -50 -79.8 -39.05 -78.8 -46.35 -84.7 -35.8
M -37.6 12.25
L -37.95 12.2
Q -40.65 8.05 -42.95 7.15
L -42.95 7.9
Q -43.25 7.75 -43.65 7.35 -44.25 8.05 -45.3 8.55 -55.15 9.75 -64.2 8.55 -65.5 8.05 -65.95 7.25 -66.4 7.75 -66.8 7.9
L -66.8 7.15
Q -69.1 8.05 -71.85 12.2
L -72.1 12.25 -72.35 12.45 -72.35 11.15
Q -72.35 8.75 -71.15 6.9 -70 4.7 -67.75 3.9 -67.1 3.75 -66.1 2.6 -65.4 1.9 -63.8 2.15 -62.6 2.2 -61.75 1.45 -61 0.75 -59.8 0.75 -58.7 0.75 -58.05 0.85 -57.95 0.95 -57.25 1.35
L -57.25 4.9
Q -57.6 4.9 -58.35 5.25 -59.05 5.5 -59.3 5.5 -60.85 5.15 -61 5.15 -61.75 5.15 -62.05 5.65 -62.6 6.45 -63.3 6.7 -63.8 5.75 -64.25 5.75 -64.8 5.75 -65.5 6.7 -65.75 7 -65.95 7.25 -65.5 8.05 -64.2 8.55 -55.15 9.75 -45.3 8.55 -44.25 8.05 -43.65 7.35 -43.95 7.05 -44.2 6.7 -44.9 5.75 -45.5 5.75 -46 5.75 -46.5 6.7 -47.15 6.45 -47.65 5.65 -48.05 5.15 -48.8 5.15 -48.9 5.15 -50.4 5.5 -50.65 5.5 -51.3 5.25 -52.15 4.9 -52.65 4.9
L -52.65 1.45
Q -52.5 1.45 -52.5 1.35 -51.8 0.95 -51.7 0.85 -51.15 0.75 -49.9 0.75 -48.8 0.75 -48.05 1.45 -47.15 2.2 -46 2.15 -44.4 1.9 -43.7 2.6 -42.6 3.75 -41.95 3.9 -39.7 4.7 -38.55 6.9 -37.45 8.75 -37.45 11.15
L -37.45 12.45 -37.6 12.25 Z"/>

<path fill="#663300" stroke="none" d="
M -91.7 -60.35
Q -91.75 -59.35 -93.15 -51.55 -93.45 -49.05 -93.75 -46.5 -94 -41.5 -93.2 -36.75 -92.15 -29.9 -91.45 -27.2
L -91.4 -27.05
Q -90.85 -26.45 -91 -26.15 -91.14765625 -25.4607421875 -91.15 -25.15
L -91.15 -25
Q -91.15 -24.35 -91.15 -23.7
L -91.15 -20.25
Q -90.6 -19.4 -89.2 -18.45 -88.75 -17.9 -88.35 -13.15 -88.45 -12.9 -88.35 -12.8 -88.35 -12.3 -88.35 -11.85
L -88.2 -11.85 -88.2 -11.75 -88.1 -11.75 -87.95 -11.7
Q -87.95 -11.55 -87.95 -11.35
L -88.1 -11.35 -88.35 -11.45
Q -88.55 -10.65 -88.9 -9.65
L -88.7 -9.45
Q -88.75 -9.3 -88.9 -9.15 -89.15 -7.05 -89.05 -5.15 -89.05 -4.65 -88.95 -3.9 -88.95 -1.9 -89.05 -0.65 -89.45 1.2 -90.85 2.45
L -90.85 4.65
Q -90.5 3.65 -89.05 2.8
L -88.9 2.4
Q -88.9 3.5 -89.2 4.7 -89.7 6 -89.7 6.75 -89.7 9 -89.7 9.4 -89.65 9.7 -89.2 11.5 -89.05 8.9 -86.95 6.9
L -86.95 9.7
Q -87.4 10 -87.45 11.55 -87.45 13.05 -87.1 14.15 -86.7 15.2 -86.7 15.75
L -86.45 15.75
Q -86.4 14.65 -85.4 12.8 -85.35 12.7 -85.35 12.5 -85.25 12.8 -85.15 12.95
L -84.85 12.95
Q -84.6 12.2 -84.4 11.3
L -84.05 12.8 -81.65 14.45
Q -78.9 18.55 -75.95 22.5
L -75.9 22.5 -75.55 21
Q -76.9 19.75 -76.9 19.05
L -76.4 19.05
Q -75.95 19.75 -75.4 20.6 -74.8 21.45 -73.9 22.45
L -73.9 22.5
Q -73.8 22.75 -73.8 22.8
L -72.6 23.95 -71.65 25.2 -70.9 25.95
Q -70.5 26.5 -69.85 27.25 -68.25 29.3 -64.9 33.25 -64.25 33.15 -63.45 32.2
L -62.25 35.4
Q -61.85 35.4 -61.75 35.65 -61.75 33.25 -61.55 32.2 -61.3 32.2 -61.3 31.7 -60.6 33.25 -58.7 34.3 -57.95 34.6 -57.25 34.75 -57.05 34.9 -56.8 35.05
L -56.75 35.15
Q -55.25 37.6 -54.05 37.6 -53.55 37.6 -53.2 37.35 -53.55 35.8 -53.2 34.4 -53.1 34.3 -53.05 34.05 -51.3 34.3 -49.9 32.85 -48.5 31.7 -47.55 31.4
L -47.55 32.6
Q -48.05 33.8 -48.05 34.6 -46.7 33.8 -44.7 32.6 -43.35 31.8 -41.65 30.3 -39.7 28.7 -38.75 27.5 -38.7 27.3 -38.45 27.25 -37.4 25.75 -36.2 24.35
L -36.2 24.3 -35.55 23.6
Q -35.403515625 23.551171875 -35.4 23.45 -32.95 20.7 -31.9 18.9 -30.6 16.15 -29.85 15.25 -29.1 14.5 -27.35 13.8 -27.2 14.15 -26.15 15 -25.4 15.6 -25.95 16.55
L -25.45 16.55
Q -24.05 13.65 -22.95 11.45 -20.9 6.9 -20.9 5.85
L -21.1 3.25 -20.05 3.25 -19.55 3.75 -18.35 3.75
Q -18.8 2.45 -20.3 -3.3 -20.5 -3.9 -20.6 -4.6 -21.85 -9.4 -21.85 -9.85 -21.85 -10.35 -21.8 -10.6
L -21.8 -9.95
Q -21.15 -10.85 -20.85 -11.55 -20.4 -12.2 -20.05 -12.8 -18.35 -15.65 -17.75 -17.65 -16.8 -20.85 -17 -24.9
L -17 -25.15
Q -17 -25.3 -17 -25.45 -17 -26 -17 -26.45 -17.05 -26.6 -17.05 -26.9
L -17.05 -26.95 -17.05 -27.2 -16.25 -27.2
Q -15.85 -30.5 -14.65 -33.8 -13.05 -38.4 -13.05 -41.6 -13.05 -44.15 -13.1 -46.5 -13.65 -56.95 -16.7 -63.9 -20.3 -71.6 -21.3 -72.95 -24.4 -77.15 -30.15 -77.7
L -32.6 -77.7
Q -39.15 -82.15 -44.2 -81.9 -49.45 -81.75 -54.15 -82 -59.05 -82.3 -66.1 -80.15 -73.1 -78.2 -80.35 -73.05 -87.65 -67.9 -89.65 -64.6 -91.6 -61.35 -91.7 -60.35
M -84.85 -35.75
L -84.7 -35.8 -78.8 -46.35 -78.8 -46.75
Q -78.55 -46.75 -78.55 -46.5
L -78.8 -46.35 -79.8 -39.05 -72.35 -50 -72.35 -41.25 -58.05 -50.8 -64.3 -42.85
Q -61.3 -43.75 -55.25 -45.25 -53.05 -45.85 -50.4 -46.35 -50.25 -46.5 -50.2 -46.5 -49 -46.9 -47.65 -47.2 -46.75 -47.55 -45.9 -47.8 -43.25 -48.5 -41 -49.25 -40.9525390625 -49.2974609375 -40.95 -49.4 -40.95 -49.340625 -40.95 -49.25 -36.95 -50.8 -34.6 -52.25 -33.95 -50.85 -31.7 -46.5 -30.7 -44.6 -29.5 -42.1 -28.05 -39.2 -26.1 -35.5 -25.3 -33.95 -24.6 -32.3 -24.9 -31.95 -24.8 -31.45 -24.65 -31.25 -24.6 -31
L -22.1 -24.75
Q -21 -20.35 -20.9 -15.75 -20.9 -15.4 -21 -14.4 -21.15 -13.65 -21.3 -13.2 -21.35 -12.8 -21.8 -12.1
L -21.8 -11.45
Q -22.3 -11.15 -22.6 -10.15
L -22.6 -10.1 -22.75 -10.1
Q -23.3 -9.05 -23.4 -8.9 -24.6 -8.35 -25.15 -8.2 -25.6 -7.9 -25.6 -6.95 -25.6 -6.85 -25.3 -5.85 -25.15 -4.6 -25.15 -3.3 -24.65 -3.6 -24.35 -3.9
L -24.35 -3.6
Q -24.55 -3.3 -24.6 -3.15 -24.55 -3.1 -24.6 -2.65
L -25.15 -2.65 -25.15 -3.3
Q -26.1 -2.15 -26.15 -0.3 -26.6 -0.35 -27.35 0.85 -28.3 1.9 -28.3 2.8
L -28.05 8.05
Q -28.15 7.8 -28.3 7.45 -28.9 6.75 -28.9 6.7 -29.9 6.5 -30.4 7.7 -30.6 8.5 -31.1 10.15
L -31.1 9.45
Q -32.05 9.45 -32.45 10.9 -32.6 11.55 -33 13.3
L -33.45 13.55 -33.45 11.7
Q -34.4 12.25 -37.45 17.5 -38.9 17.8 -39.45 18.15 -40 18.45 -41.1 19.3 -42.3 20.25 -45.4 21.3 -47.4 21.8 -48.7 22.1 -48.9 22.75 -49.15 22.75 -49.45 22.45 -49.55 22.25 -50.1 21.65 -50.4 21.55 -50.9 21.15 -52.15 21.35 -52.5 19.05 -52.65 17.8 -52.65 17.55 -52.65 17.3 -52.95 17.35 -53.25 17.35 -53.35 17.55 -53.45 17.8 -53.55 17.95 -53.75 18.15 -54.05 18.15 -54.25 17.8 -54.5 17.65 -54.65 17.4 -55.35 17.4 -56 17.35 -56.1 17.55 -56.15 17.8 -56.4 18.9 -56.75 20.25 -57.35 23 -58.2 23 -58.7 23 -59.5 20.75 -60.15 18.8 -60.15 17.95
L -60.85 17.95
Q -61 18.3 -61.55 20.35 -62.05 22.1 -63.55 22.1 -63.85 22.1 -63.95 22.05
L -64.05 21.8
Q -64.05 20.7 -64.25 20.45 -65.3 21 -65.4 22.75 -67.3 22.95 -69.2 21.15 -71.15 19.25 -71.1 16.75
L -71.35 16.75
Q -72.05 17.75 -72.05 18.45
L -73.25 18.45
Q -73.9 15.45 -74.15 14.65 -74.8 13.45 -75.65 13.3
L -75.65 11.1
Q -76.85 11.55 -77.8 12.7 -77.8 9.95 -78.05 8.9
L -78.3 8.9
Q -79.3 11.7 -80.1 11.7 -80.9 9.5 -81.2 0.6 -82.4 1.35 -82.85 1.45
L -82.95 1.1
Q -82.95 0.6 -83.45 -1.85
L -83.8 -1.85
Q -83.8 -1.1 -84.45 0.1
L -84.45 -0.4
Q -84.65 -5.65 -84.9 -9.15 -85.55 -14.15 -86.4 -15.6
L -86 -16.45
Q -86 -17.2 -85.9 -18.7 -85.6 -19.1 -85.6 -19.25 -85.55 -20.5 -85.55 -21.35 -85.55 -21.45 -86 -23.45 -86.2 -24.4 -86.3 -25.45 -86.45 -25.7 -86.6 -26 -87.45 -28 -87.45 -29.5 -87.45 -33.3 -84.85 -35.75
M -87.95 -11.2
Q -87.95 -11.1 -87.95 -10.85 -87.95 -10.6 -87.95 -10.15
L -88.35 -10.1
Q -88.2 -10.8 -87.95 -11.2
M -87.7 -5.55
L -87.4 -5.55
Q -87.6 -5.15 -87.7 -5 -87.7 -5.15 -87.7 -5.55
M -27.95 -66.15
Q -28.55 -67.8 -28.7 -69.85 -27.55 -67.3 -24.8 -63.9 -22.1 -60.45 -22.1 -60.65 -22.1 -60.9 -21.3 -59.9 -20.5 -58.9 -20.15 -57.6
L -20.15 -55.1
Q -20.4 -55.1 -20.4 -55.15
L -20.5 -55.4
Q -21 -56.8 -21.65 -57.25 -22.3 -57.8 -22.55 -58.05 -22.55 -56.85 -22.1 -56.05 -21.85 -55.4 -20.9 -54.1 -19.65 -49.4 -20.9 -46.6
L -21.35 -46.6
Q -21.1 -48.6 -23.4 -51.85 -25.6 -54.9 -28.55 -56.8
L -28.55 -53.3
Q -28.7 -55.1 -30.15 -58.05 -32.05 -62.1 -32.6 -62.45 -33.1 -62.8 -31.4 -62.05 -29.85 -61.35 -28.9 -61.35 -28.4 -63.05 -30.85 -65.7
L -26.85 -63.4 -26.85 -63.9
Q -27.35 -64.4 -27.95 -66.15
M -46.2 -77.35
Q -46.55 -77.2 -46.9 -77.15 -48.7 -76.6 -49.15 -75.15
L -37.7 -75.15
Q -39.7 -74.9 -42.95 -73.5 -47 -71.65 -47.95 -71.5
L -47.95 -71
Q -46.25 -71.9 -38.1 -70.85
L -45.25 -69.75
Q -45.25 -69.6 -45.8 -69.35 -46.2 -69.1 -46.2 -68.95 -44.95 -68.55 -41.1 -68.05 -40.65 -67.95 -41.95 -67.3 -41.5 -66.9 -38.35 -66.4
L -43.7 -66.4
Q -48.9 -67.2 -54 -65.85 -59 -64.4 -63.6 -61.15 -62.75 -62.7 -60.35 -65.45 -58.05 -68.25 -54.8 -69.1 -59.65 -69.2 -65.6 -67.1 -71.65 -64.9 -74.6 -62.9 -73.5 -64.3 -71.65 -65.9 -69.8 -67.8 -68.55 -68.7 -67.35 -69.65 -64.5 -71.15 -61.55 -72.6 -60.25 -72.7 -62.5 -73.5 -67.35 -72.7 -63.05 -75.3 -57.25 -76.6 -51.3 -78 -46.9 -77.15 -46.55 -77.35 -46.25 -77.45
L -46.2 -77.35
M -55 14.7
Q -55.1 14.85 -55.2 15.05 -55.1 15.05 -55 15.05 -55 14.8 -55 14.7
M -58.05 0.85
Q -58.7 0.75 -59.8 0.75 -61 0.75 -61.75 1.45 -62.6 2.2 -63.8 2.15 -65.4 1.9 -66.1 2.6 -67.1 3.75 -67.75 3.9 -70 4.7 -71.15 6.9 -72.35 8.75 -72.35 11.15
L -72.35 12.45 -72.1 12.25 -71.85 12.2
Q -69.1 8.05 -66.8 7.15
L -66.8 7.9
Q -66.4 7.75 -65.95 7.25 -66.25 6.7 -66.15 6 -66.25 6.7 -65.95 7.25 -65.75 7 -65.5 6.7 -64.8 5.75 -64.25 5.75 -63.8 5.75 -63.3 6.7 -62.6 6.45 -62.05 5.65 -61.75 5.15 -61 5.15 -60.85 5.15 -59.3 5.5 -59.05 5.5 -58.35 5.25 -57.6 4.9 -57.25 4.9
L -57.25 1.35
Q -57.95 0.95 -58.05 0.85
M -37.95 12.2
L -37.6 12.25 -37.45 12.45 -37.45 11.15
Q -37.45 8.75 -38.55 6.9 -39.7 4.7 -41.95 3.9 -42.6 3.75 -43.7 2.6 -44.4 1.9 -46 2.15 -47.15 2.2 -48.05 1.45 -48.8 0.75 -49.9 0.75 -51.15 0.75 -51.7 0.85 -51.8 0.95 -52.5 1.35 -52.5 1.45 -52.65 1.45
L -52.65 4.9
Q -52.15 4.9 -51.3 5.25 -50.65 5.5 -50.4 5.5 -48.9 5.15 -48.8 5.15 -48.05 5.15 -47.65 5.65 -47.15 6.45 -46.5 6.7 -46 5.75 -45.5 5.75 -44.9 5.75 -44.2 6.7 -43.95 7.05 -43.65 7.35 -43.05 6.5 -42.95 5.4 -43.05 6.5 -43.65 7.35 -43.25 7.75 -42.95 7.9
L -42.95 7.15
Q -40.65 8.05 -37.95 12.2 Z"/>

<path fill="#A07001" stroke="none" d="
M -87.95 -10.85
Q -87.95 -11.1 -87.95 -11.2 -88.2 -10.8 -88.35 -10.1
L -87.95 -10.15
Q -87.95 -10.6 -87.95 -10.85
M -54.55 15.05
Q -54.8 15.05 -55 15.05 -55.1 15.05 -55.2 15.05 -56.75 15.1 -58.1 15.25 -58.7 15.45 -59.1 15.65 -59.45 15.85 -59.45 16.05 -59.45 16.6 -58.1 17 -57.15 17.25 -56 17.35 -55.35 17.4 -54.65 17.4 -54.6 17.4 -54.55 17.4 -53.85 17.4 -53.25 17.35 -52.95 17.35 -52.65 17.3 -51.75 17.2 -51 17 -49.45 16.6 -49.45 16.05 -49.45 15.85 -49.8 15.65 -50.2 15.45 -51 15.25 -52.4 15.05 -54.55 15.05 Z"/>

<path fill="#C08703" stroke="none" d="
M -78.55 -46.5
Q -78.55 -46.75 -78.8 -46.75
L -78.8 -46.35 -78.55 -46.5 Z"/>
</g>

<g id="olhospiscapisca_0_Layer0_0_FILL">
<path fill="#FFFFFF" stroke="none" d="
M 14.95 -1.35
Q 8.3306640625 -3.5380859375 6.35 -0.2
L 6.35 2
Q 11.25 2.65 14.95 0.9
L 14.95 -1.35 Z"/>
</g>

<g id="olhospiscapisca_0_Layer0_0_MEMBER_0_FILL">
<path fill="#000000" stroke="none" d="
M 12 -1.4
Q 11.4 -1.95 10.55 -1.95 9.7 -1.95 9.1 -1.4 8.5 -0.85 8.5 -0.1 8.5 0.1 8.55 0.3
L 8.55 0.35
Q 8.7 0.85 9.1 1.2 9.7 1.75 10.55 1.75 11.4 1.75 12 1.2 12.45 0.85 12.6 0.35 12.65 0.15 12.65 -0.1 12.65 -0.85 12 -1.4 Z"/>
</g>

<g id="olhospiscapisca_0_Layer0_0_MEMBER_0_MEMBER_0_FILL">
<path fill="#FFFFFF" stroke="none" d="
M 204.35 48.55
Q 203.35 48.65 203.35 49.4 203.35 50 203.5 50.15 203.55 50.15 203.85 50.4 204 50.5 204.35 50.5 204.8 50.5 205.1 50.1 205.35 49.75 205.35 49.4 205.35 48.4 204.35 48.55 Z"/>
</g>

<g id="olhospiscapisca_0_Layer0_1_FILL">
<path fill="#FFFFFF" stroke="none" d="
M -6.05 -0.2
Q -8.05 -3.55 -14.65 -1.35
L -14.65 0.9
Q -10.95 2.65 -6.05 2
L -6.05 -0.2 Z"/>
</g>

<g id="olhospiscapisca_0_Layer0_1_MEMBER_0_FILL">
<path fill="#000000" stroke="none" d="
M -8.9 -1.4
Q -9.5 -1.95 -10.35 -1.95 -11.2 -1.95 -11.8 -1.4 -12.4 -0.85 -12.4 -0.1 -12.4 0.1 -12.35 0.3
L -12.35 0.35
Q -12.2 0.85 -11.8 1.2 -11.2 1.75 -10.35 1.75 -9.5 1.75 -8.9 1.2 -8.45 0.85 -8.3 0.35 -8.25 0.15 -8.25 -0.1 -8.25 -0.85 -8.9 -1.4 Z"/>
</g>

<g id="olhospiscapisca_0_Layer0_1_MEMBER_0_MEMBER_0_FILL">
<path fill="#FFFFFF" stroke="none" d="
M 204.35 48.55
Q 203.35 48.65 203.35 49.4 203.35 50 203.5 50.15 203.55 50.15 203.85 50.4 204 50.5 204.35 50.5 204.8 50.5 205.1 50.1 205.35 49.75 205.35 49.4 205.35 48.4 204.35 48.55 Z"/>
</g>

<g id="gr_foto1_0_Layer0_0_MEMBER_0_MEMBER_4_MEMBER_1_FILL">
<path fill="#FDAD35" stroke="none" d="
M -61.4 -5.2
Q -61.5 -6.85 -61.4 -6.95
L -62.05 -6.35
Q -62.55 -5.45 -62.05 -3.75 -60.15 -2.4 -58.8 -0.8 -57.7 -0.05 -54.65 -0.05 -52.9 -0.05 -50.55 -1.9 -48.25 -3.9 -48.6 -5.25 -48.95 -6.8 -49.2 -6.85 -49.35 -4.4 -51.1 -3.5 -52.9 -2.65 -53.65 -2.4 -54.3 -2 -54.75 -2 -55.25 -1.75 -58.1 -2.65 -61.25 -3.65 -61.4 -5.2 Z"/>
</g>

<g id="gr_foto1_0_Layer0_0_MEMBER_0_MEMBER_4_MEMBER_2_FILL">
<path fill="#321A01" stroke="none" d="
M -49.85 -35
Q -50.9 -33 -43.45 -31.65 -18.15 -32.35 -26.5 -35 -35.95 -37.95 -49.85 -35 Z"/>
</g>

<g id="gr_foto1_0_Layer0_0_MEMBER_0_MEMBER_4_MEMBER_3_FILL">
<path fill="#321A01" stroke="none" d="
M -67.4 -30.75
Q -59.95 -32.1 -61 -34.1 -74.9 -37.05 -84.35 -34.1 -92.7 -31.45 -67.4 -30.75 Z"/>
</g>

<g id="gr_foto1_0_Layer0_0_MEMBER_1_MEMBER_0_FILL">
<path fill="#FFFFFF" fill-opacity="0.3411764705882353" stroke="none" d="
M 92.9 116.55
Q 92.8 116.9 92.8 117.35 92.8 118.65 93.65 119.6 94.2 120.25 94.95 120.45 95.35 120.5 95.7 120.5
L 96 120.5 100.05 114.15 95.7 114.15
Q 94.5 114.15 93.65 115.1 93.05 115.7 92.9 116.55
M 102.05 120.5
Q 103.05 120.5 103.8 120 104 119.8 104.2 119.6 104.95 118.8 105.05 117.75 105.05 117.5 105.05 117.35 105.05 116 104.2 115.1 103.5 114.35 102.6 114.2 102.35 114.15 102.05 114.15
L 100.5 114.15 96.55 120.5 102.05 120.5 Z"/>

<path fill="#FFFFFF" stroke="none" d="
M 100.5 114.15
L 100.05 114.15 96 120.5 96.55 120.5 100.5 114.15 Z"/>
</g>

<g id="gr_foto1_0_Layer0_0_MEMBER_1_MEMBER_1_FILL">
<path fill="#FFFFFF" fill-opacity="0.3411764705882353" stroke="none" d="
M 114.65 114.15
Q 113.45 114.15 112.6 115.1 111.75 116 111.75 117.35 111.75 117.65 111.8 117.95 111.95 118.9 112.6 119.6 113 120.05 113.55 120.3 114.1 120.5 114.65 120.5
L 116.7 120.5 118.75 114.15 114.65 114.15
M 123.15 119.6
Q 123.8 118.9 123.95 118.05 124 117.7 124 117.35 124 116 123.15 115.1 122.25 114.15 121 114.15
L 119.25 114.15 118 120.5 121 120.5
Q 121.25 120.5 121.4 120.5 122 120.4 122.45 120.15 122.85 119.95 123.15 119.6 Z"/>

<path fill="#FFFFFF" stroke="none" d="
M 119.25 114.15
L 118.75 114.15 116.7 120.5 118 120.5 119.25 114.15 Z"/>
</g>

<path id="gr_foto1_0_Layer0_0_MEMBER_0_MEMBER_4_1_STROKES" stroke="#999999" stroke-width="1" stroke-linejoin="round" stroke-linecap="round" fill="none" d="
M -72.8 28.2
L -72.8 28.175
M -78.8 -46.35
L -78.8 -46.75
M -72.8 28.175
Q -72.79375 27.9 -72.6 27.9 -72.6 28.25 -72.45 28.85 -72.1 29.55 -72.8 29.9"/>

<path id="gr_foto1_0_Layer0_0_MEMBER_0_MEMBER_4_2_STROKES" stroke="#FF9966" stroke-width="1" stroke-linejoin="round" stroke-linecap="round" fill="none" d="
M -17.05 -26.95
L -17.05 -27.2
M -17 -25.45
Q -17 -26 -17 -26.45 -17.05 -26.6 -17.05 -26.9"/>

<path id="gr_foto1_0_Layer0_0_MEMBER_0_MEMBER_4_3_STROKES" stroke="#996600" stroke-width="1" stroke-linejoin="round" stroke-linecap="round" fill="none" d="
M -43.65 7.35
Q -44.25 8.05 -45.3 8.55 -55.15 9.75 -64.2 8.55 -65.5 8.05 -65.95 7.25 -66.25 6.7 -66.15 6
M -42.95 5.4
Q -43.05 6.5 -43.65 7.35"/>

<path id="olhospiscapisca_0_Layer0_0_1_STROKES" stroke="#000000" stroke-width="1" stroke-linejoin="round" stroke-linecap="round" fill="none" d="
M 6.35 -0.2
Q 8.3306640625 -3.5380859375 14.95 -1.35
L 14.95 0.9"/>

<path id="olhospiscapisca_0_Layer0_1_1_STROKES" stroke="#000000" stroke-width="1" stroke-linejoin="round" stroke-linecap="round" fill="none" d="
M -6.05 -0.2
Q -8.05 -3.55 -14.65 -1.35
L -14.65 0.9"/>

<path id="gr_foto1_0_Layer0_0_MEMBER_1_1_STROKES" stroke="#666666" stroke-width="1" stroke-linejoin="round" stroke-linecap="round" fill="none" d="
M -60.7 -23.25
Q -55.1 -34 -47.6 -23.25
M -23.7 -21.5
L -17.9 -38.2"/>

<path id="gr_foto1_0_Layer0_0_MEMBER_1_MEMBER_0_1_STROKES" stroke="#666666" stroke-width="1" stroke-linejoin="round" stroke-linecap="round" fill="none" d="
M -60.62711563110352 -19.40509796142578
Q -60.62711563110352 -20.122390747070312 -60.62711563110352 -20.552766418457054 -60.62711563110352 -24.4261474609375 -62.28684387207031 -27.008401489257835 -63.65367889404297 -29.16027984619143 -65.41103820800782 -29.590655517578114 -65.89919357299806 -29.73411407470701 -66.48498001098633 -29.73411407470701
L -69.51154327392578 -29.73411407470701
M -84.3514663696289 -22.848103332519543
Q -84.546728515625 -21.843893432617165 -84.546728515625 -20.552766418457054
M -84.3514663696289 -22.848103332519543
L -89.23302001953124 -39.63275451660155
M -69.51154327392578 -29.73411407470701
L -70.39022293090821 -29.73411407470701 -78.88412628173828 -29.73411407470701
Q -81.2272720336914 -29.73411407470701 -82.88700027465819 -27.008401489257835 -84.05857315063477 -25.286898803710926 -84.3514663696289 -22.848103332519543"/>

<path id="gr_foto1_0_Layer0_0_MEMBER_1_MEMBER_1_1_STROKES" stroke="#666666" stroke-width="1" stroke-linejoin="round" stroke-linecap="round" fill="none" d="
M -23.72257003784179 -18.544346618652355
Q -23.62493896484375 -19.548556518554676 -23.62493896484375 -20.552766418457054 -23.62493896484375 -24.4261474609375 -25.284667205810536 -27.008401489257835 -27.04202651977539 -29.73411407470701 -29.482803344726562 -29.73411407470701
L -32.8998908996582 -29.73411407470701
M -47.544551849365234 -20.552766418457054
Q -47.544551849365234 -19.69201507568357 -47.44692077636719 -18.831263732910145
M -45.88482360839845 -27.008401489257835
Q -47.544551849365234 -24.4261474609375 -47.544551849365234 -20.552766418457054
M -41.881949615478504 -29.73411407470701
Q -44.225095367431635 -29.73411407470701 -45.88482360839845 -27.008401489257835
M -33.87620162963867 -29.73411407470701
L -41.881949615478504 -29.73411407470701
M -32.8998908996582 -29.73411407470701
L -33.87620162963867 -29.73411407470701"/>
</defs>

<g id="btn_01" transform="matrix( 1, 0, 0, 1, 150.95,82.05) ">
<g transform="matrix( 1, 0, 0, 1, 0,0) ">
<g transform="matrix( 1, 0, 0, 1, 0,0) ">
<use xlink:href="#gr_foto1_0_Layer0_0_MEMBER_0_MEMBER_0_FILL"/>
</g>

<g transform="matrix( 1, 0, 0, 1, 0,0) ">
<use xlink:href="#gr_foto1_0_Layer0_0_MEMBER_0_MEMBER_1_FILL"/>
</g>

<g transform="matrix( 1, 0, 0, 1, 0,0) ">
<use xlink:href="#gr_foto1_0_Layer0_0_MEMBER_0_MEMBER_2_FILL"/>
</g>

<g transform="matrix( 1, 0, 0, 1, 0,0) ">
<use xlink:href="#gr_foto1_0_Layer0_0_MEMBER_0_MEMBER_3_FILL"/>
</g>

<g transform="matrix( 1, 0, 0, 1, 0,0) ">
<use xlink:href="#gr_foto1_0_Layer0_0_MEMBER_0_MEMBER_4_FILL"/>

<use xlink:href="#gr_foto1_0_Layer0_0_MEMBER_0_MEMBER_4_1_STROKES"/>

<use xlink:href="#gr_foto1_0_Layer0_0_MEMBER_0_MEMBER_4_2_STROKES"/>

<use xlink:href="#gr_foto1_0_Layer0_0_MEMBER_0_MEMBER_4_3_STROKES"/>
</g>

<g transform="matrix( 1.6014862060546875, 0, 0, 1.6014862060546875, -54.45,-23.15) ">
<g transform="matrix( 1, 0, 0, 1, 0,0) ">
<use xlink:href="#olhospiscapisca_0_Layer0_0_FILL"/>

<use xlink:href="#olhospiscapisca_0_Layer0_0_1_STROKES"/>
</g>

<g transform="matrix( 1, 0, 0, 1, 0,0) ">
<use xlink:href="#olhospiscapisca_0_Layer0_0_MEMBER_0_FILL"/>
</g>

<g transform="matrix( 0.6376800537109375, 0, 0, 0.6376800537109375, -119.15,-32.35) ">
<use xlink:href="#olhospiscapisca_0_Layer0_0_MEMBER_0_MEMBER_0_FILL"/>
</g>

<g transform="matrix( 1, 0, 0, 1, 0,0) ">
<use xlink:href="#olhospiscapisca_0_Layer0_1_FILL"/>

<use xlink:href="#olhospiscapisca_0_Layer0_1_1_STROKES"/>
</g>

<g transform="matrix( 1, 0, 0, 1, 0,0) ">
<use xlink:href="#olhospiscapisca_0_Layer0_1_MEMBER_0_FILL"/>
</g>

<g transform="matrix( 0.6376800537109375, 0, 0, 0.6376800537109375, -140.05,-32.35) ">
<use xlink:href="#olhospiscapisca_0_Layer0_1_MEMBER_0_MEMBER_0_FILL"/>
</g>
</g>

<g transform="matrix( 1, 0, 0, 1, 0,0) ">
<use xlink:href="#gr_foto1_0_Layer0_0_MEMBER_0_MEMBER_4_MEMBER_1_FILL"/>
</g>

<g transform="matrix( 1, 0, 0, 1, 0,0) ">
<use xlink:href="#gr_foto1_0_Layer0_0_MEMBER_0_MEMBER_4_MEMBER_2_FILL"/>
</g>

<g transform="matrix( 1, 0, 0, 1, 0,0) ">
<use xlink:href="#gr_foto1_0_Layer0_0_MEMBER_0_MEMBER_4_MEMBER_3_FILL"/>
</g>

<g transform="matrix( 1, 0, 0, 1, 0,0) ">
<use xlink:href="#gr_foto1_0_Layer0_0_MEMBER_1_1_STROKES"/>
</g>

<g transform="matrix( 1.9526214599609375, 0, 0, 2.869171142578125, -265.75,-357.25) ">
<use xlink:href="#gr_foto1_0_Layer0_0_MEMBER_1_MEMBER_0_FILL"/>

<use xlink:href="#gr_foto1_0_Layer0_0_MEMBER_1_MEMBER_0_1_STROKES" transform="matrix( 0.5121307373046875, 0, 0, 0.3485260009765625, 136.1,124.5) "/>
</g>

<g transform="matrix( 1.9526214599609375, 0, 0, 2.869171142578125, -265.75,-357.25) ">
<use xlink:href="#gr_foto1_0_Layer0_0_MEMBER_1_MEMBER_1_FILL"/>

<use xlink:href="#gr_foto1_0_Layer0_0_MEMBER_1_MEMBER_1_1_STROKES" transform="matrix( 0.5121307373046875, 0, 0, 0.3485260009765625, 136.1,124.5) "/>
</g>
</g>
</g>
</svg>
