
<svg xmlns="http://www.w3.org/2000/svg" version="1.1" xmlns:xlink="http://www.w3.org/1999/xlink" preserveAspectRatio="none" x="0px" y="0px" width="241px" height="173px" viewBox="0 0 241 173">
<defs>
<g id="Layer0_0_FILL">
<path fill="#FBA31E" stroke="none" d="
M 208.95 250.4
L 217.3 248.65 211.55 247.35 211.2 247.85 208.95 250.4
M 156.05 264.95
Q 155.9 267.05 155.25 268.9
L 168.7 273.55 169.85 273.9 170.05 273.8
Q 191.5 267.4 206.45 259.25
L 226.75 261.55 236.5 250.4
Q 232.2 252 229.65 253.7 227.623046875 255.00546875 225.95 256.6 225.18828125 257.3177734375 224.5 258.1 225.95 260.5 210.05 258.25 207.2 257.8 203.8 257.25 175.75 270.75 170.1 264.55 164.45 268.45 156.05 264.95
M 109.65 268.55
L 109.55 268.6
Q 108.432421875 273.7724609375 106.3 277.65 101.036328125 287.3234375 89.55 289
L 89.7 290 89.75 290.1
Q 101.25 293.1 109.3 289.15
L 109.65 268.55
M 136.2 231.45
L 136.2 231.05
Q 136.2 229.8 136.45 228.5
L 129.5 226.7
Q 127.8142578125 226.1173828125 126.25 225.45 124.0556640625 224.530078125 122.1 223.45
L 125.5 232.35 113.3 231.45 115.9 233.15 128.1 233.95
Q 127.027734375 231.676953125 126.25 229.15 126.1208984375 228.7267578125 126 228.3
L 129.5 229.65 136.2 231.45
M 151.25 208.5
L 151.65 205.8
Q 147.15 210.1 144.15 211.15 147.9 211.3 151.25 208.5
M 149.65 202.75
L 148.4 203.4 151.05 204.95 151.05 204.3 149.65 202.75
M 149.4 190.3
L 149.05 188.75 143.05 189.55 143 189.55 143.05 191.1 149.4 190.3
M 137.3 221.2
Q 137.3 221.7 137.85 222
L 139.3 222.35 140.7 222
Q 141.3 221.7 141.3 221.2 141.3 220.8 140.7 220.45
L 139.3 220.15 137.85 220.45
Q 137.3 220.8 137.3 221.2
M 137.85 196.45
L 137.45 196.7 137.2 196.75 137.15 196.8
Q 137 198.3 135.35 200.25
L 135.35 200.3 135.2 200.45
Q 132.8740234375 203.15859375 130.6 204.3 128.40078125 205.4716796875 126.25 205.15 123.071875 204.726953125 120 201.15 123.031640625 205.3984375 126.25 206.25 128.383984375 206.8076171875 130.6 205.85 133.145703125 204.796875 135.8 201.75
L 135.95 201.55
Q 137.55 199.6 137.7 198.05
L 137.8 198.05 138 197.9
Q 138.5 197.6 139.15 197.6
L 139.55 197.55 141.55 197.75 141.55 197.65 140.55 196.7
Q 139.85 196.3 139 196.3
L 137.85 196.45
M 127.6 182.95
L 128 181.5 128.15 180.05 127.6 182.95
M 120.5 189.25
L 120.3 190.8 125.5 191.05 127.2 191.05 128.7 191.25 129 191.25
Q 129.810546875 191.275 130.6 191.3 136.1421875 191.4064453125 140.65 191.1 141.45 187.4 140.35 185.45
L 140.15 189.7
Q 136.1263671875 189.8712890625 130.6 189.65 129.6712890625 189.600390625 128.7 189.55 127.65 185.85 128 181.5
L 127.6 182.95
Q 127 186.4 127.3 189.45
L 120.5 189.25 Z"/>

<path fill="#FED69A" stroke="none" d="
M 169.85 273.9
L 168.7 273.55 169.4 274.05 169.85 273.9
M 158.4 250.5
L 159.7 250.15
Q 156.2 248.9 153.3 246.3 152.3 247.8 150.7 250.5 156.02734375 258.1375 156.05 264.2 156.0671875 264.5875 156.05 264.95 164.45 268.45 170.1 264.55 175.75 270.75 203.8 257.25 207.2 257.8 210.05 258.25 225.95 260.5 224.5 258.1 225.18828125 257.3177734375 225.95 256.6 227.623046875 255.00546875 229.65 253.7 232.2 252 236.5 250.4
L 240.1 246.2
Q 231.5990234375 241.472265625 225.95 246.55 225.3857421875 247.04609375 224.85 247.65
L 223.05 250 217.3 248.65 208.95 250.4 211.2 247.85 211.55 247.35
Q 216.3 241.05 214.2 236.05
L 203.95 249.55 202.65 250.6 169.85 257.75 169.55 257.5
Q 168.2 257.6 166.7 257.6 166.5958984375 257.6 166.5 257.6 161.7759765625 257.57421875 158.4 256.4
L 157.5 256.05 157.4 256.05
Q 155 254.9 155 253.5 155 251.75 158.4 250.5
M 109.55 268.6
L 109.95 266.6 109.95 266.55
Q 101.75 252.5 88.6 259.4 87.513671875 267.4828125 88.2 277.3 88.5931640625 282.88046875 89.55 289 101.036328125 287.3234375 106.3 277.65 108.432421875 273.7724609375 109.55 268.6
M 109.95 266.6
L 109.55 268.6 109.65 268.55 109.95 266.6
M 136.3 233.3
L 136.2 231.45 129.5 229.65 126 228.3
Q 126.1208984375 228.7267578125 126.25 229.15 127.027734375 231.676953125 128.1 233.95
L 115.9 233.15
Q 119.3943359375 235.294140625 122.3 236.7 125.421875 238.1685546875 127.9 238.8 129.3548828125 239.213671875 130.6 239.3 135.019921875 239.7046875 136.8 236.55
L 136.55 235.7 136.3 233.3
M 151 201.45
L 149.65 202.75 151.05 204.3 151 201.45
M 141.65 197.75
L 141.55 197.65 141.55 197.75 141.65 197.75
M 139.15 197.6
Q 138.5 197.6 138 197.9
L 137.8 198.05 137.7 198.05
Q 137.55 199.6 135.95 201.55
L 135.8 201.75
Q 133.145703125 204.796875 130.6 205.85 128.383984375 206.8076171875 126.25 206.25 123.031640625 205.3984375 120 201.15
L 119.15 200.15
Q 118.75 209.4 120.65 218.15
L 122.1 223.45
Q 124.0556640625 224.530078125 126.25 225.45 127.8142578125 226.1173828125 129.5 226.7
L 136.45 228.5 137.05 228.65
Q 140.65 229.35 142.55 227.7 146.1380859375 223.71328125 148.35 218.75 148.923828125 217.47734375 149.4 216.15
L 150.7 211.8 151.25 208.5
Q 147.9 211.3 144.15 211.15 147.15 210.1 151.65 205.8 149 205.6 147.65 204.75
L 146.2 203.8 139.15 197.6
M 142.2 215.85
Q 142.35 216.6 143.4 216.5
L 141.85 217.95 141.2 218.25 137.5 218.25 134.35 216.5 137.5 216 142.2 215.85
M 137.85 222
Q 137.3 221.7 137.3 221.2 137.3 220.8 137.85 220.45
L 139.3 220.15 140.7 220.45
Q 141.3 220.8 141.3 221.2 141.3 221.7 140.7 222
L 139.3 222.35 137.85 222
M 139 174.4
L 139.8 177.6
Q 140.45 181.25 140.35 185.45 141.45 187.4 140.65 191.1 136.1421875 191.4064453125 130.6 191.3 129.810546875 191.275 129 191.25
L 129.35 191.3
Q 129.970703125 191.4431640625 130.6 191.6 132.6064453125 192.2341796875 134.7 193.3 136.65 194.3 137.05 195.75
L 137.2 195.55 137.45 195.4
Q 138.15 194.95 139 194.95 139.95 194.95 140.55 195.4 141.15 195.75 141.2 196.25
L 141.2 196.2 141.3 195.25 141.3 195.1
Q 141.55 193.9 142.7 193.1 145.2 191.3 147.5 191.1
L 147.6 191.1 149.65 191.3 149.4 190.3 143.05 191.1 143 189.55 143.05 189.55 143.05 187.95
Q 142.7 181.85 139 174.4
M 120.3 190.8
L 119.95 192.75
Q 121.8404296875 191.6798828125 123.85 191.25 124.66875 191.107421875 125.5 191.05
L 120.3 190.8 Z"/>

<path fill="#CC99CC" stroke="none" d="
M 173.7 250.15
L 174.95 250.5
Q 175.0984375 250.5537109375 175.25 250.6 177.0583984375 248.9853515625 178.75 247.3 176.3845703125 249.151953125 173.7 250.15
M 179.3 219
Q 180.25 219.75 180.95 220.85
L 181.15 221.15 183.05 224.15 183.75 225.5 183.75 225.85
Q 184.55 228.2 184.65 230.85
L 184.6 233.65
Q 184.05 239.4 180.1 243.75
L 181.05 244.9
Q 199.65 225.026953125 199.65 199 199.65 194.25 199 189.7 194.25 197.1 186.1 203.5 177.882421875 210.024609375 168.25 213.85 174.6513671875 214.3513671875 179.3 219
M 0 199
Q 0 213.6 5.85 226.3
L 5.85 171.75
Q 0 184.4 0 199
M 88.6 259.4
Q 89.23671875 254.905078125 90.45 251.65
L 41.35 262.95
Q 62.151171875 275.1353515625 88.2 277.3 87.513671875 267.4828125 88.6 259.4
M 109.95 266.55
L 109.95 266.6 109.65 268.55 110.45 267.05 109.95 266.55
M 145.35 235.8
Q 146.45 236.55 147.55 237.45 146.7 234.7 146.65 231.7 141.35 232 136.2 231.05 140.8 232.55 145.35 235.8
M 149.15 221.5
Q 149.45 220.9 149.85 220.35 150.5537109375 219.3095703125 151.4 218.35 150.27734375 218.5123046875 149.15 218.65 149.0681640625 220.1072265625 149.15 221.5
M 29.2 143.3
Q 27.6 144.6 26.05 145.9
L 70.95 154.9
Q 74.65 139.4 89.7 127.5 95 123.3 100.85 120.25
L 99.85 120.25
Q 58.45 120.25 29.2 143.3 Z"/>

<path fill="#ABEEFE" stroke="none" d="
M 181.15 221.15
L 182.1 223.15 183.05 224.15 181.15 221.15
M 179.45 227
L 179.2 227.2
Q 178.55 227.7 177.3 227.85 177.95 228.05 178.4 229.2
L 178.7 230.7 178.7 230.85 178.9 230.95
Q 181.35 231.05 182.9 232.45
L 183.4 232.95 184.65 230.85
Q 184.55 228.2 183.75 225.85
L 183.15 226.5
Q 182.4 227 181.3 227 180.6 227 180.15 226.6
L 179.45 227
M 164.1 213.95
L 163.7 214.1 164 214.15 164.1 213.95
M 160.7 225.35
L 159.75 225.6 159.4 226 159.4 226.2 159.2 226.85 159.1 226.95
Q 159.7 227.15 159.7 227.8
L 159.55 228.2 159.85 228.2
Q 160.75 228.15 160.9 228.85
L 161.35 229.15 162.25 230.15
Q 162.35 229.05 163.4 229.3 164.4 229.45 164.6 230.15
L 165.05 230.05
Q 165.85 230.15 166.1 230.5
L 166.75 230.55
Q 168.1 230.85 168.25 231.8 168.75 231.85 168.9 232.45 169.85 232.55 169.85 233.55
L 169.7 234.05 169.7 234.5 169.55 234.8
Q 171.2 235.55 172.75 235.9
L 173.6 236.15 175.8 236.4 175.55 236.3 174.05 235.85
Q 173.3 235.5 173.3 234.8 173.3 234.15 173.6 233.8
L 174.25 232.45
Q 174.45 231.7 176.25 231.2
L 176.2 231.05 176.4 230.15 175.8 229.3
Q 175.2 228.35 175.2 227.8
L 175.3 226.95
Q 174.25 226.7 173.7 226.1 173.2 225.6 173.2 224.8 173.2 223.2 175.05 221.3 175.25 221 175.95 220.45
L 176.55 219.6
Q 176.7 217.95 177.55 218 178.55 218.35 179.3 219 174.6513671875 214.3513671875 168.25 213.85 167.4845703125 213.8 166.7 213.8
L 165.95 213.85 166.4 214
Q 166.693359375 214.1544921875 166.95 214.35 167.581640625 214.7625 168.1 215.35 168.9 216.25 168.9 216.65
L 168.25 218.15 167.6 219.25 168.1 220
Q 168.7 220.8 168.7 221.3 168.7 221.8 167.75 222.65
L 167.45 222.95 167.35 223.45
Q 166.95 224.3 166.35 224.3
L 166.1 224.3
Q 165.75 224.95 165.1 224.95
L 164.6 224.8 164.1 224.95 164 225.1 161.7 225.45 160.7 225.35
M 161.75 214.5
L 161.75 214.45
Q 159.25 215.15 157.05 216.6 156.339453125 217.0521484375 155.65 217.55 154.7970703125 218.2744140625 154 219.1 152.65 220.45 151.65 222
L 157.7 227.2 157.75 227.15 157.4 226.7 157.35 226.2
Q 157.35 225.65 157.6 225.45
L 157.35 224.95 157.05 223.95 157.05 223.85 156.75 223.5 156.7 223.3 156.2 222.8 155.9 222.1 155.9 221.3
Q 155.9 220.35 156.25 220 156.25 219.15 156.55 218.65
L 156.55 218.15
Q 156.55 217.6 156.85 217.35
L 156.85 217.3 157.05 216.95
Q 157.25 216.25 158 216.3 158.75 215.6 160.55 214.95
L 161.75 214.5 Z"/>

<path fill="#669900" stroke="none" d="
M 175.55 236.3
L 175.8 236.4
Q 177.6 237.2 177.6 239.05 177.6 239.9 176.3 241.5 175.05 243.05 175.05 243.75
L 175.25 244.65 175.45 244.9 175.3 245.15 175.45 245.7
Q 175.75 246.25 176.55 246.25 177.9 246.25 181.05 242.15 184.15 237.85 184.15 235.55
L 184.05 234.85 184.15 234.7 184.05 234
Q 180.05 236.3 175.55 236.2
L 175.55 236.3
M 159.1 230
L 159.35 230.55 159.2 231.35
Q 158.9 231.55 158.9 232.3
L 159.1 233.35 159.2 233.5 159 234.5 159.05 235.35 159.25 235.85 159.4 236.65
Q 159.6 237.3 160.1 237.35
L 160.5 237.85 160.55 238.3 160.9 238.7 161.1 239.15 161.5 239.85 162.35 240.65 162.6 241.05 163.85 242.5 164.1 243.15
Q 164.6 244.15 165.2 244.4
L 165.25 244.7
Q 165.7 245.5 166.35 245.5
L 167.1 245.15 167.35 244.4
Q 167.35 243.55 166.75 243.2
L 166.6 242.75 166.85 242.15
Q 166.85 240.85 166.05 240.4 165.95 239.9 165.6 239.7
L 166.05 239.3 166.2 238.65 166.2 238.4 166.1 238 166.55 237.65 167.05 237.05
Q 168.4 237 168.55 236
L 169.35 235.05
Q 164.25 233.3 158.75 228.85
L 158.75 229.2 158.9 229.7 159.1 230
M 125.6 196.75
L 126.25 196.85 126.25 196.15
Q 125.9466796875 196.3482421875 125.55 196.45 125.5794921875 196.6228515625 125.6 196.75
M 126.25 192.3
Q 125.3767578125 192.4328125 124.5 192.65 125.2404296875 194.4177734375 125.55 196.45 125.9466796875 196.3482421875 126.25 196.15
L 126.25 192.3
M 99.2 183.8
Q 102.0357421875 174.1837890625 108.05 169.65
L 13.35 152.2 13.35 214.15
Q 51.15 196.3 76.2 188.8 89.4892578125 184.8462890625 99.2 183.8 Z"/>

<path fill="#99CC00" stroke="none" d="
M 179.3 219
Q 178.55 218.35 177.55 218 176.7 217.95 176.55 219.6
L 175.95 220.45
Q 175.25 221 175.05 221.3 173.2 223.2 173.2 224.8 173.2 225.6 173.7 226.1 174.25 226.7 175.3 226.95
L 175.2 227.8
Q 175.2 228.35 175.8 229.3
L 176.4 230.15 176.2 231.05 176.25 231.2
Q 174.45 231.7 174.25 232.45
L 173.6 233.8
Q 173.3 234.15 173.3 234.8 173.3 235.5 174.05 235.85
L 175.55 236.3 175.55 236.2
Q 180.05 236.3 184.05 234
L 183.4 232.95 182.9 232.45
Q 181.35 231.05 178.9 230.95
L 178.7 230.85 178.7 230.7 178.4 229.2
Q 177.95 228.05 177.3 227.85 178.55 227.7 179.2 227.2
L 179.45 227 180.15 226.6
Q 180.6 227 181.3 227 182.4 227 183.15 226.5
L 183.75 225.85 183.75 225.5 183.05 224.15 182.1 223.15 181.15 221.15 180.95 220.85
Q 180.25 219.75 179.3 219
M 161.75 214.45
L 161.75 214.5 160.55 214.95
Q 158.75 215.6 158 216.3 157.25 216.25 157.05 216.95
L 156.85 217.3 156.85 217.35
Q 156.55 217.6 156.55 218.15
L 156.55 218.65
Q 156.25 219.15 156.25 220 155.9 220.35 155.9 221.3
L 155.9 222.1 156.2 222.8 156.7 223.3 156.75 223.5 157.05 223.85 157.05 223.95 157.35 224.95 157.6 225.45
Q 157.35 225.65 157.35 226.2
L 157.4 226.7 157.75 227.15 157.7 227.2
Q 157.55 227.45 157.55 227.8
L 157.55 227.85 157.7 228.3
Q 158 228.85 158.6 228.85
L 158.75 228.85
Q 164.25 233.3 169.35 235.05
L 169.55 234.8 169.7 234.5 169.7 234.05 169.85 233.55
Q 169.85 232.55 168.9 232.45 168.75 231.85 168.25 231.8 168.1 230.85 166.75 230.55
L 166.1 230.5
Q 165.85 230.15 165.05 230.05
L 164.6 230.15
Q 164.4 229.45 163.4 229.3 162.35 229.05 162.25 230.15
L 161.35 229.15 160.9 228.85
Q 160.75 228.15 159.85 228.2
L 159.55 228.2 159.7 227.8
Q 159.7 227.15 159.1 226.95
L 159.2 226.85 159.4 226.2 159.4 226 159.75 225.6 160.7 225.35 161.7 225.45 164 225.1 164.1 224.95 164.6 224.8 165.1 224.95
Q 165.75 224.95 166.1 224.3
L 166.35 224.3
Q 166.95 224.3 167.35 223.45
L 167.45 222.95 167.75 222.65
Q 168.7 221.8 168.7 221.3 168.7 220.8 168.1 220
L 167.6 219.25 168.25 218.15 168.9 216.65
Q 168.9 216.25 168.1 215.35 167.581640625 214.7625 166.95 214.35 166.693359375 214.1544921875 166.4 214
L 165.95 213.85 164.1 213.95 164 214.15 163.7 214.1 163.1 213.85
Q 162 213.6 161.75 214.45 Z"/>

<path fill="#CC9900" stroke="none" d="
M 5.85 270.75
L 5.85 271.1 5.9 271.1 5.85 270.75
M 130.6 203.45
L 130.6 201.45
Q 129.75859375 201.8 128.8 201.8 127.45 201.8 126.25 201.1
L 126.25 203.55
Q 128.3884765625 204.4009765625 130.6 203.45
M 149.85 220.35
Q 149.45 220.9 149.15 221.5 146.65 225.9 146.65 231.3 146.65 231.5 146.65 231.7 146.7 234.7 147.55 237.45 148.95 241.9 152.5 245.5 152.9 245.9 153.3 246.3 156.2 248.9 159.7 250.15
L 158.4 250.5
Q 155 251.75 155 253.5 155 254.9 157.4 256.05
L 157.5 256.05 163.4 256.75 167.85 256 167.9 256
Q 168.63984375 255.7533203125 169.3 255.5 171.2171875 254.7904296875 172.55 254.05 174.3 253.05 174.3 252 174.3 251.7525390625 174.2 251.5 173.915234375 250.9076171875 172.9 250.4
L 173.7 250.15
Q 176.3845703125 249.151953125 178.75 247.3 179.802734375 246.497265625 180.8 245.5
L 181.25 245.15 181.05 244.9 180.1 243.75 179.4 244.55
Q 175.4 248.5 170.2 249.5
L 166.7 249.75 163.2 249.5
Q 161.25 249.1 159.45 248.35 156.65 247.1 154.3 244.85 154.15 244.7 154 244.55 151.9 242.45 150.6 240 148.7 236.3 148.7 231.8 148.7 231.65 148.7 231.5 148.75 228.4 149.75 225.75 150.45 223.75 151.65 222 152.65 220.45 154 219.1 154.7970703125 218.2744140625 155.65 217.55 156.339453125 217.0521484375 157.05 216.6
L 155.4 214.75 152.5 217.15
Q 151.91796875 217.73203125 151.4 218.35 150.5537109375 219.3095703125 149.85 220.35
M 129.7 197.05
L 130.6 196.95 130.6 195.1
Q 130.3 196.2 127.6 197.05
L 129.7 197.05
M 126.25 196.15
L 126.25 196.85 127.15 196.95 127.6 197.05
Q 130.3 196.2 130.6 195.1
L 130.6 192.6
Q 128.3396484375 192.0484375 126.25 192.3
L 126.25 196.15
Q 126.966796875 195.749609375 127.2 195.05 126.966796875 195.749609375 126.25 196.15
M 26.05 145.9
L 5.85 141.85 5.85 171.75 5.85 226.3 5.85 270.75 14.75 259.45 13.35 259.85 13.35 214.15 13.35 152.2 108.05 169.65
Q 109.23515625 168.7482421875 110.55 168.05 116.9400390625 164.5826171875 126.45 166
L 70.95 154.9 26.05 145.9 Z"/>

<path fill="#003333" stroke="none" d="
M 140.8 270.9
Q 140.8650390625 270.98828125 140.9 271.05 144.37890625 275.662109375 148.55 276.3
L 148.8 276.4
Q 151.05 274.8 152.55 273.1 146.508984375 275.0154296875 141 271.05 140.89921875 270.9734375 140.8 270.9
M 138.8 242.3
L 138.2 240
Q 135.6607421875 244.356640625 128.65 242.85 123.8193359375 241.7833984375 116.8 237.85 113.6677734375 236.119140625 110.1 233.8
L 99.65 241.5 99.1 241.9
Q 114.5 245.05 116.8 238.4 121.9494140625 241.745703125 125.95 243.45 135.7509765625 247.6890625 138.8 242.3
M 119.4 276.4
Q 117.1189453125 275.734375 114.9 274.1 116.0130859375 275.6162109375 117.2 276.7 122.81015625 281.8822265625 130.15 277.8 133.6078125 275.54375 135.5 272.85 136.8998046875 270.9318359375 137.5 268.8 134.368359375 272.0583984375 131.35 274 125.10546875 278.0775390625 119.4 276.4
M 136.2 231.45
L 136.3 233.3 137.05 235.65 145.35 235.8
Q 140.8 232.55 136.2 231.05
L 136.2 231.45 Z"/>

<path fill="#FDBB24" stroke="none" d="
M 157.5 256.05
L 158.4 256.4
Q 161.7759765625 257.57421875 166.5 257.6 166.5958984375 257.6 166.7 257.6 168.2 257.6 169.55 257.5 172.6 257.25 174.95 256.4 178.4 255.2 178.4 253.5 178.4 251.825390625 175.25 250.6 175.0984375 250.5537109375 174.95 250.5
L 173.7 250.15 172.9 250.4
Q 173.915234375 250.9076171875 174.2 251.5 174.3 251.7525390625 174.3 252 174.3 253.05 172.55 254.05 171.2171875 254.7904296875 169.3 255.5 168.63984375 255.7533203125 167.9 256
L 167.85 256 163.4 256.75 157.5 256.05 Z"/>

<path fill="#FDBE2D" stroke="none" d="
M 99.1 241.9
L 99.65 241.5 14.75 259.45 5.85 270.75 5.9 271.1 41.35 262.95 90.45 251.65
Q 92.4298828125 246.4380859375 95.9 244.35
L 99.1 241.9 Z"/>

<path fill="#33CCFF" stroke="none" d="
M 157.55 227.85
L 157.55 227.8
Q 157.55 227.45 157.7 227.2
L 151.65 222
Q 150.45 223.75 149.75 225.75 148.75 228.4 148.7 231.5 148.7 231.65 148.7 231.8 148.7 236.3 150.6 240 151.9 242.45 154 244.55 154.15 244.7 154.3 244.85 156.65 247.1 159.45 248.35 161.25 249.1 163.2 249.5
L 166.7 249.75 170.2 249.5
Q 175.4 248.5 179.4 244.55
L 180.1 243.75
Q 184.05 239.4 184.6 233.65
L 184.65 230.85 183.4 232.95 184.05 234 184.15 234.7 184.05 234.85 184.15 235.55
Q 184.15 237.85 181.05 242.15 177.9 246.25 176.55 246.25 175.75 246.25 175.45 245.7
L 175.3 245.15 175.45 244.9 175.25 244.65 175.05 243.75
Q 175.05 243.05 176.3 241.5 177.6 239.9 177.6 239.05 177.6 237.2 175.8 236.4
L 173.6 236.15 172.75 235.9
Q 171.2 235.55 169.55 234.8
L 169.35 235.05 168.55 236
Q 168.4 237 167.05 237.05
L 166.55 237.65 166.1 238 166.2 238.4 166.2 238.65 166.05 239.3 165.6 239.7
Q 165.95 239.9 166.05 240.4 166.85 240.85 166.85 242.15
L 166.6 242.75 166.75 243.2
Q 167.35 243.55 167.35 244.4
L 167.1 245.15 166.35 245.5
Q 165.7 245.5 165.25 244.7
L 165.2 244.4
Q 164.6 244.15 164.1 243.15
L 163.85 242.5 162.6 241.05 162.35 240.65 161.5 239.85 161.1 239.15 160.9 238.7 160.55 238.3 160.5 237.85 160.1 237.35
Q 159.6 237.3 159.4 236.65
L 159.25 235.85 159.05 235.35 159 234.5 159.2 233.5 159.1 233.35 158.9 232.3
Q 158.9 231.55 159.2 231.35
L 159.35 230.55 159.1 230 158.9 229.7 158.75 229.2 158.75 228.85 158.6 228.85
Q 158 228.85 157.7 228.3
L 157.55 227.85 Z"/>

<path fill="#003399" stroke="none" d="
M 136.55 235.7
L 137.05 235.65 136.3 233.3 136.55 235.7
M 130.6 239.3
Q 129.3548828125 239.213671875 127.9 238.8 125.421875 238.1685546875 122.3 236.7 119.3943359375 235.294140625 115.9 233.15
L 113.3 231.45 110.1 233.8
Q 113.6677734375 236.119140625 116.8 237.85 123.8193359375 241.7833984375 128.65 242.85 135.6607421875 244.356640625 138.2 240
L 138.8 242.3
Q 135.7509765625 247.6890625 125.95 243.45 121.9494140625 241.745703125 116.8 238.4 114.5 245.05 99.1 241.9
L 95.9 244.35
Q 92.4298828125 246.4380859375 90.45 251.65 89.23671875 254.905078125 88.6 259.4 101.75 252.5 109.95 266.55
L 110.45 267.05 109.65 268.55 109.3 289.15
Q 132.65 297.3 148.85 287.3
L 148.55 276.45 148.8 276.4 148.55 276.3
Q 144.37890625 275.662109375 140.9 271.05 140.8650390625 270.98828125 140.8 270.9 140.89921875 270.9734375 141 271.05 146.508984375 275.0154296875 152.55 273.1 154.35 271.1 155.25 268.9 155.9 267.05 156.05 264.95 156.0671875 264.5875 156.05 264.2 156.02734375 258.1375 150.7 250.5 152.3 247.8 153.3 246.3 152.9 245.9 152.5 245.5 148.95 241.9 147.55 237.45 146.45 236.55 145.35 235.8
L 137.05 235.65 136.55 235.7 136.8 236.55
Q 135.019921875 239.7046875 130.6 239.3
M 114.9 274.1
Q 117.1189453125 275.734375 119.4 276.4 125.10546875 278.0775390625 131.35 274 134.368359375 272.0583984375 137.5 268.8 136.8998046875 270.9318359375 135.5 272.85 133.6078125 275.54375 130.15 277.8 122.81015625 281.8822265625 117.2 276.7 116.0130859375 275.6162109375 114.9 274.1 Z"/>

<path fill="#990000" stroke="none" d="
M 135.35 200.3
L 134.95 200.05
Q 132.740625 202.5771484375 130.6 203.45 128.3884765625 204.4009765625 126.25 203.55 123.6197265625 202.58515625 121.1 198.95
L 121 198.8
Q 119.75 200.15 118.4 198.95
L 119.15 200.15 120 201.15
Q 123.071875 204.726953125 126.25 205.15 128.40078125 205.4716796875 130.6 204.3 132.8740234375 203.15859375 135.2 200.45
L 135.35 200.3
M 153.25 197.45
Q 153.4 195.7 152.2 196.2 149.65 202.15 147 202.45
L 148.4 203.4 149.65 202.75 151 201.45
Q 152.15 199.95 153.25 197.55
L 153.25 197.45 Z"/>

<path fill="#E8D1E9" stroke="none" d="
M 135.35 200.25
L 134.95 200.05 135.35 200.3 135.35 200.25
M 141.7 197.05
L 141.35 197.1 141.2 196.4
Q 141.2 197.05 140.55 196.7
L 141.55 197.65 141.65 197.75 142.3 198.45 142.2 198.15 141.7 197.05
M 135.45 194.75
L 135.3 194.6
Q 134.635546875 196.11875 133.7 196.6
L 133.8 196.6 133.8 196.75
Q 133.8 198.25 133.1 199.4
L 132.35 200.25 131.35 201.1
Q 130.9875 201.320703125 130.6 201.45
L 130.6 203.45
Q 132.740625 202.5771484375 134.95 200.05 137.8 196.7 135.45 194.75
M 130.6 196.95
L 130.8 196.95
Q 132.6 196.3 132.95 194.8 132.6 196.3 130.8 196.95
L 132.6 196.8 133.35 196.7 133.45 196.7 133.6 196.65
Q 133.65078125 196.6271484375 133.7 196.6 134.635546875 196.11875 135.3 194.6
L 134.5 194.1
Q 132.490234375 193.0642578125 130.6 192.6
L 130.6 195.1 130.6 196.95
M 199 189.7
Q 195.4 162.95 170.4 143.3 141.55 120.55 100.85 120.25 95 123.3 89.7 127.5 74.65 139.4 70.95 154.9
L 126.45 166
Q 126.56015625 166.0361328125 126.65 166.05 134.45 165.85 140 169.55
L 140.45 169.7
Q 144.35 170.55 147.85 174.65 151.7 180.7 151.9 188.2
L 149.05 188.75 149.4 190.3 149.65 191.3
Q 152.2 192.1 154.35 194.95
L 153.25 197.45 153.25 197.55
Q 152.15 199.95 151 201.45
L 151.05 204.3 151.05 204.95
Q 151.55 205.15 152.05 205.4
L 151.65 205.8 151.25 208.5 150.7 211.8 149.4 216.15
Q 149.2185546875 217.4205078125 149.15 218.65 150.27734375 218.5123046875 151.4 218.35 151.91796875 217.73203125 152.5 217.15
L 155.4 214.75 157.05 216.6
Q 159.25 215.15 161.75 214.45 162 213.6 163.1 213.85
L 163.7 214.1 164.1 213.95 165.95 213.85 166.7 213.8
Q 167.4845703125 213.8 168.25 213.85 177.882421875 210.024609375 186.1 203.5 194.25 197.1 199 189.7 Z"/>

<path fill="#000000" stroke="none" d="
M 149.15 221.5
Q 149.0681640625 220.1072265625 149.15 218.65 149.2185546875 217.4205078125 149.4 216.15 148.923828125 217.47734375 148.35 218.75 146.1380859375 223.71328125 142.55 227.7 140.65 229.35 137.05 228.65
L 136.45 228.5
Q 136.2 229.8 136.2 231.05 141.35 232 146.65 231.7 146.65 231.5 146.65 231.3 146.65 225.9 149.15 221.5
M 144.85 196.3
Q 144.9 197.1 145.5 197.65
L 146.2 198.25 147.2 198.45 148.2 198.25 149.3 197.3 149.7 196.25 149.7 196.1 149.05 196.2 149.05 196.3 148.8 196.95
Q 148.5 197.45 147.9 197.45 147.2 197.45 146.9 196.9
L 146.85 196.4 145.15 196.4 144.85 196.3
M 127.6 197.05
L 127.15 196.95
Q 127.3 197.95 128 198.75
L 128.95 199.4 130.2 199.65 131.5 199.4 132.45 198.75 132.85 198.25
Q 133.3 197.6 133.35 196.9
L 133.35 196.7 132.6 196.8 132.6 196.95 132.2 197.75
Q 131.85 198.4 131.15 198.4 130.84375 198.4 130.6 198.3 130.087109375 198.158203125 129.85 197.65
L 129.7 197.05 127.6 197.05
M 110.55 168.05
Q 109.23515625 168.7482421875 108.05 169.65 102.0357421875 174.1837890625 99.2 183.8 97.80625 188.6626953125 97.2 194.8 96.6 200.55 96.75 207.4 97.95 213.75 93.6 225.8 104.1 229.95 113.3 231.45
L 125.5 232.35 122.1 223.45 120.65 218.15
Q 118.75 209.4 119.15 200.15
L 118.4 198.95 117.9 198.3 116.25 195.45 119.35 193.05
Q 119.45 192.95 119.6 192.9
L 119.95 192.75 120.3 190.8 120.5 189.25 127.3 189.45
Q 127 186.4 127.6 182.95
L 127.6 177 123.5 180.9 126.8 172 127.15 174.35 129 171.55 130.2 175 131.95 172.75 132.2 183.2 129.2 177.5 128 181.5
Q 127.65 185.85 128.7 189.55 129.6712890625 189.600390625 130.6 189.65 136.1263671875 189.8712890625 140.15 189.7
L 140.35 185.45
Q 140.45 181.25 139.8 177.6
L 139 174.4
Q 142.7 181.85 143.05 187.95
L 143.05 189.55 149.05 188.75 151.9 188.2
Q 151.7 180.7 147.85 174.65 144.35 170.55 140.45 169.7
L 140 169.55
Q 134.45 165.85 126.65 166.05 126.56015625 166.0361328125 126.45 166 116.9400390625 164.5826171875 110.55 168.05
M 112.65 176.05
Q 111.8453125 180.0994140625 111.55 183.85 111.2556640625 187.354296875 111.4 190.6
L 109.45 183.2 106.15 196.05 105.65 185.4 103.05 192.1 104.95 176.75 105.45 181.7 106.95 175.25 107.65 180 109.65 173.05 109.65 180.2 112.65 176.05 Z"/>

<path fill="#CC0000" stroke="none" d="
M 149.65 191.3
L 147.6 191.1
Q 148.54765625 191.2171875 148.4 192.3
L 148.55 192.3
Q 150.65 192.9 152.5 195.4
L 152.2 196.2
Q 153.4 195.7 153.25 197.45
L 154.35 194.95
Q 152.2 192.1 149.65 191.3
M 119.35 193.05
L 116.25 195.45 117.9 198.3 118.4 198.95
Q 119.75 200.15 121 198.8
L 119.25 195.9 119.6 195.6
Q 121.1 194.2 122.75 193.4 120 194.45 119.35 193.05 Z"/>

<path fill="#FEEACD" stroke="none" d="
M 141.65 196.45
L 141.7 197.05 142.2 198.15 142.3 198.45 147 202.45
Q 149.65 202.15 152.2 196.2
L 152.5 195.4
Q 150.65 192.9 148.55 192.3
L 148.4 192.3
Q 145.85 191.7 142.85 193.8 141.45 194.8 141.65 196.45
M 142.9 196.1
L 144.85 196.3 145.15 196.4
Q 147.3 195.7 147.4 194.9 147.3 195.7 145.15 196.4
L 146.85 196.4 147.7 196.3
Q 149.05 195.8 149.35 194.7 149.05 195.8 147.7 196.3
L 149.05 196.2 149.7 196.1 149.85 196.05
Q 150.7 195.7 151.2 194.45 150.7 195.7 149.85 196.05
L 150 196.05 150 196.2
Q 150 197.3 149.5 198.25
L 148.15 199.55
Q 147.2 200.1 146.15 200.1 145.05 200.1 144.15 199.55
L 143.35 198.9 142.9 198.45 142.8 198.25 142.7 198.15
Q 142.2 197.25 142.2 196.2
L 142.2 196.05 142.8 196.1
Q 144.5 195.9 144.9 194.8 144.5 195.9 142.8 196.1
L 142.9 196.1 Z"/>

<path fill="#FFFFFF" stroke="none" d="
M 148.8 196.95
L 149.05 196.3 149.05 196.2 147.7 196.3 146.85 196.4 146.9 196.9
Q 147.2 197.45 147.9 197.45 148.5 197.45 148.8 196.95
M 144.85 196.3
L 142.9 196.1 142.8 196.1 142.2 196.05 142.2 196.2
Q 142.2 197.25 142.7 198.15
L 142.8 198.25 142.9 198.45 143.35 198.9 144.15 199.55
Q 145.05 200.1 146.15 200.1 147.2 200.1 148.15 199.55
L 149.5 198.25
Q 150 197.3 150 196.2
L 150 196.05 149.85 196.05 149.7 196.1 149.7 196.25 149.3 197.3 148.2 198.25 147.2 198.45 146.2 198.25 145.5 197.65
Q 144.9 197.1 144.85 196.3
M 141.65 197.75
L 141.55 197.75 139.55 197.55 139.15 197.6 146.2 203.8 147.65 204.75
Q 149 205.6 151.65 205.8
L 152.05 205.4
Q 151.55 205.15 151.05 204.95
L 148.4 203.4 147 202.45 142.3 198.45 141.65 197.75
M 143.4 216.5
Q 142.35 216.6 142.2 215.85
L 137.5 216 134.35 216.5 137.5 218.25 141.2 218.25 141.85 217.95 143.4 216.5
M 130.6 196.95
L 129.7 197.05 129.85 197.65
Q 130.087109375 198.158203125 130.6 198.3 130.84375 198.4 131.15 198.4 131.85 198.4 132.2 197.75
L 132.6 196.95 132.6 196.8 130.8 196.95 130.6 196.95
M 123.8 196.6
L 123.8 196.75
Q 123.8 198.15 124.45 199.3
L 124.5 199.4 126.25 201.1
Q 127.45 201.8 128.8 201.8 129.75859375 201.8 130.6 201.45 130.9875 201.320703125 131.35 201.1
L 132.35 200.25 133.1 199.4
Q 133.8 198.25 133.8 196.75
L 133.8 196.6 133.7 196.6
Q 133.65078125 196.6271484375 133.6 196.65
L 133.45 196.7 133.35 196.7 133.35 196.9
Q 133.3 197.6 132.85 198.25
L 132.45 198.75 131.5 199.4 130.2 199.65 128.95 199.4 128 198.75
Q 127.3 197.95 127.15 196.95
L 126.25 196.85 125.6 196.75 124.75 196.7 124.5 196.7 123.8 196.6
M 127.6 182.95
L 128.15 180.05 128 181.5 129.2 177.5 132.2 183.2 131.95 172.75 130.2 175 129 171.55 127.15 174.35 126.8 172 123.5 180.9 127.6 177 127.6 182.95
M 111.55 183.85
Q 111.8453125 180.0994140625 112.65 176.05
L 109.65 180.2 109.65 173.05 107.65 180 106.95 175.25 105.45 181.7 104.95 176.75 103.05 192.1 105.65 185.4 106.15 196.05 109.45 183.2 111.4 190.6
Q 111.2556640625 187.354296875 111.55 183.85 Z"/>

<path fill="#9ADB02" stroke="none" d="
M 124.5 196.7
L 124.75 196.7 125.6 196.75
Q 125.5794921875 196.6228515625 125.55 196.45 125.090234375 196.6212890625 124.5 196.7
M 119.6 195.6
L 119.25 195.9 121 198.8 121.1 198.95
Q 123.6197265625 202.58515625 126.25 203.55
L 126.25 201.1 124.5 199.4 124.45 199.3
Q 123.8 198.15 123.8 196.75
L 123.8 196.6 124.5 196.7
Q 125.090234375 196.6212890625 125.55 196.45 125.2404296875 194.4177734375 124.5 192.65 123.6244140625 192.95859375 122.75 193.4 121.1 194.2 119.6 195.6
M 97.2 194.8
Q 97.80625 188.6626953125 99.2 183.8 89.4892578125 184.8462890625 76.2 188.8 51.15 196.3 13.35 214.15
L 13.35 259.85 14.75 259.45 99.65 241.5 110.1 233.8 113.3 231.45
Q 104.1 229.95 93.6 225.8 97.95 213.75 96.75 207.4 96.6 200.55 97.2 194.8 Z"/>

<path fill="#FF0000" stroke="none" d="
M 119.6 192.9
Q 119.45 192.95 119.35 193.05 120 194.45 122.75 193.4 123.6244140625 192.95859375 124.5 192.65 125.3767578125 192.4328125 126.25 192.3 128.3396484375 192.0484375 130.6 192.6 132.490234375 193.0642578125 134.5 194.1
L 135.3 194.6 135.45 194.75
Q 137.8 196.7 134.95 200.05
L 135.35 200.25
Q 137 198.3 137.15 196.8
L 137.2 196.75 137.45 196.7 137.85 196.45 139 196.3
Q 139.85 196.3 140.55 196.7 141.2 197.05 141.2 196.4
L 141.35 197.1 141.7 197.05 141.65 196.45
Q 141.45 194.8 142.85 193.8 145.85 191.7 148.4 192.3 148.54765625 191.2171875 147.6 191.1
L 147.5 191.1
Q 145.2 191.3 142.7 193.1 141.55 193.9 141.3 195.1
L 141.3 195.25 141.2 196.2 141.2 196.25
Q 141.15 195.75 140.55 195.4 139.95 194.95 139 194.95 138.15 194.95 137.45 195.4
L 137.2 195.55 137.05 195.75
Q 136.65 194.3 134.7 193.3 132.6064453125 192.2341796875 130.6 191.6 129.970703125 191.4431640625 129.35 191.3
L 129 191.25 128.7 191.25 127.2 191.05 125.5 191.05
Q 124.66875 191.107421875 123.85 191.25 121.8404296875 191.6798828125 119.95 192.75
L 119.6 192.9 Z"/>
</g>

<path id="Layer0_0_1_STROKES" stroke="#663300" stroke-width="1" stroke-linejoin="round" stroke-linecap="round" fill="none" d="
M 127.6 177
L 123.5 180.9 126.8 172 127.15 174.35 129 171.55 130.2 175 131.95 172.75 132.2 183.2 129.2 177.5 128 181.5
M 109.65 180.2
L 112.65 176.05
Q 111.8453125 180.0994140625 111.55 183.875 111.2556640625 187.354296875 111.4 190.6
L 109.45 183.2 106.15 196.05 105.65 185.4 103.05 192.1 104.95 176.75 105.45 181.7 106.95 175.25 107.65 180 109.65 173.05 109.65 180.2 Z
M 127.6 182.95
L 128 181.5
M 136.55 235.7
L 137.05 235.65
M 109.55 268.6
L 109.95 266.6 109.95 266.55
M 148.8 276.4
L 148.55 276.3"/>

<path id="Layer0_0_2_STROKES" stroke="#000000" stroke-width="1" stroke-linejoin="round" stroke-linecap="round" fill="none" d="
M 124.45 199.3
Q 123.8 198.15 123.8 196.75
L 123.8 196.6 124.5 196.7
Q 125.090234375 196.6212890625 125.55 196.475
M 124.5 196.7
L 124.75 196.7 125.6 196.775
M 125.55 196.475
Q 125.9466796875 196.3482421875 126.25 196.175
M 125.6 196.775
L 126.25 196.85
M 126.25 196.175
Q 126.966796875 195.749609375 127.2 195.05
M 127.6 197.05
Q 130.3 196.2 130.6 195.1
M 130.6 196.975
L 129.7 197.05
M 132.6 196.8
L 130.8 196.95 130.6 196.975
M 129.7 197.05
L 127.6 197.05
M 126.25 196.85
L 127.15 196.95
M 133.35 196.7
L 132.6 196.8
M 133.45 196.7
L 133.6 196.65
Q 133.65078125 196.6271484375 133.7 196.6 134.635546875 196.11875 135.3 194.6
M 133.7 196.6
L 133.8 196.6 133.8 196.75
M 130.8 196.95
Q 132.6 196.3 132.95 194.8
M 144.85 196.3
L 142.9 196.1 142.8 196.1 142.2 196.05 142.2 196.2
Q 142.2 197.25 142.7 198.15
M 150 196.05
L 150 196.2
M 149.7 196.1
L 149.85 196.05
M 145.15 196.4
Q 147.3 195.7 147.4 194.9
M 142.8 196.1
Q 144.5 195.9 144.9 194.8
M 146.85 196.4
L 145.15 196.4
M 149.05 196.2
L 147.7 196.3 146.85 196.4
M 147.7 196.3
Q 149.05 195.8 149.35 194.7
M 149.05 196.2
L 149.7 196.1
M 149.85 196.05
Q 150.7 195.7 151.2 194.45"/>

<path id="Layer0_0_3_STROKES" stroke="#000000" stroke-width="1" stroke-linejoin="round" stroke-linecap="round" fill="none" d="
M 127.15 196.95
L 127.6 197.05
M 133.35 196.7
L 133.45 196.7"/>
</defs>

<g transform="matrix( 1, 0, 0, 1, 0,-120.25) ">
<use xlink:href="#Layer0_0_FILL"/>

<use xlink:href="#Layer0_0_1_STROKES"/>

<use xlink:href="#Layer0_0_2_STROKES"/>

<use xlink:href="#Layer0_0_3_STROKES"/>
</g>
</svg>
