<svg xmlns="http://www.w3.org/2000/svg" width="73.75" height="266.15" viewBox="0 0 73.75 266.15"><g fill-rule="evenodd" clip-rule="evenodd"><path fill="#FD9F13" d="M55.1 58.822c.1.466.167.933.2 1.4l-11.4-1.4h11.2z"/><path fill="#FC6" d="M55.3 60.222c.334 2.433.5 4.85.5 7.25-1.7.333-3.366.617-5 .85-10.1 1.533-19.3 1.283-27.6-.75.167-4.7.7-9.434 1.6-14.2 0-.033.017-.05.05-.05 4.5-1.667 10.167-2.5 17-2.5 2.934-.1 5.916.283 8.95 1.15.966.233 1.916.533 2.85.9a44.12 44.12 0 0 1 1.45 5.95H43.9l11.4 1.4zm18 88.4a14.29 14.29 0 0 1-1.25 1.1c-1.966 1.667-3.333 2.5-4.1 2.5-.4 0-.816-.05-1.25-.15.267-1.9.434-3.633.5-5.2.233-6.3.233-10.966 0-14-.233-3-.883-6.032-1.95-9.1.233-.232.45-.466.65-.7l-1.25-.95a7.883 7.883 0 0 1-.15-.5c-.066-.2-.15-.366-.25-.5a43.21 43.21 0 0 0-1.35-2.85 12.567 12.567 0 0 1-.6-1.4 34.794 34.794 0 0 1-1.8-3.4 9.79 9.79 0 0 0-.35-.65h.2c-.435-2.533-.65-4.466-.65-5.8 0-5.2.383-8.7 1.15-10.5 1.665-2.7 3.398-6.05 5.2-10.05h6.25c-.368 2.6-.9 5.95-1.602 10.05-.267 1.7-.566 3.5-.9 5.4 0 1.668.65 5.3 1.95 10.9 1.334 5.5 2 9.334 2 11.5 0 3.1-.05 4.868-.15 5.3-.133.9-.4 3.718-.8 8.45a8.94 8.94 0 0 0-.05.9v.15c-.066.2-.1.483-.1.85v.3c0 .367.116 1.384.35 3.05.3 1.7.45 2.718.45 3.05.002.767-.048 1.517-.147 2.25zM9 146.372c-.233.4-.55.783-.95 1.15-1.1 1.133-2.233 1.7-3.4 1.7-.433 0-1.55-.567-3.35-1.7l-.2.15c-.1-.1-.184-.218-.25-.35-.6-1.534-.883-2.468-.85-2.8.1-.668.3-1.9.6-3.7.333-1.835.45-2.852.35-3.05-.133-.268-.133-.45 0-.552.1-.133.15-.233.15-.3l.4-1.25c.1-3.2.1-5.3 0-6.3 0-.433.117-2.183.35-5.25.167-2.167 1.1-5.967 2.8-11.4 1.7-5.434 2.6-8.983 2.7-10.65a161.122 161.122 0 0 0-.45-5.4c-.267-3.433-.5-6.35-.7-8.75-.033-.733-.1-1.4-.2-2 .467.1 1.467.184 3 .25v1.75c.167.934 1.367 3.567 3.6 7.9 2.466 5.733 3.7 11.7 3.7 17.9l.1.1a.337.337 0 0 0-.1.25c-.033.1-.083.2-.15.3-.033.2-.1.367-.2.5l-.2.5-.2.3c-.066.067-.117.184-.15.35v.15c-.067.034-.117.1-.15.2l-.15.15c-.6 1.167-1.117 2.3-1.55 3.4a31.91 31.91 0 0 0-1.2 3.05c-.3.9-.567 1.8-.8 2.7a.32.32 0 0 0 .15.15A63.095 63.095 0 0 0 9 146.372zm31.2 95.35c4.434 3.567 8.85 4.3 13.25 2.2v.15c.1.4.15.666.15.8 0 1.033.566 2.5 1.7 4.4.133.233.283.433.45.6.366.6.816 1.25 1.35 1.95.1.166.166.316.2.45.3.7.483 1.866.55 3.5-1.066-.667-2.767-1-5.1-1-1.434 0-2.7.183-3.8.55-1.067.4-1.984.6-2.75.6-.468 0-.968-.366-1.5-1.1-.8-1.1-1.634-2.917-2.5-5.45-1.333-3.8-2-6.35-2-7.65zm-22.75 1.1c3.167 2.166 7.434 2.25 12.8.25-.333 1.333-.883 3.1-1.65 5.3-.133.5-.267.95-.4 1.35-1.333 3.5-2.5 5.25-3.5 5.25-.767 0-1.716-.216-2.85-.65-1.067-.366-2.3-.55-3.7-.55-2.3 0-4 .35-5.1 1.05.033-.333.05-.666.05-1 .066-1.133.216-1.966.45-2.5.1-.166.167-.333.2-.5.533-.7.983-1.333 1.35-1.9.133-.2.283-.382.45-.55 1.133-1.966 1.7-3.466 1.7-4.5 0-.134.067-.483.2-1.05z"/><path fill="#639" d="M56.95 54.272c1.767 5.567 2.566 11.15 2.4 16.75a89.87 89.87 0 0 1-8.55 1.45c-11.367 1.433-21.75.95-31.15-1.45.1-5.333.75-10.767 1.95-16.3 1.033-.5 2.1-.95 3.2-1.35a94.55 94.55 0 0 0-1.6 14.2c8.3 2.033 17.5 2.283 27.6.75 1.634-.233 3.3-.517 5-.85 0-2.4-.166-4.817-.5-7.25a10.35 10.35 0 0 0-.2-1.4 44.12 44.12 0 0 0-1.45-5.95c1.1.4 2.2.867 3.3 1.4z"/><path fill="#333" d="M5.65 81.422c-.133-1.133-.2-1.816-.2-2.05.034-.7.034-2.267 0-4.7-.1-2.433.583-5.4 2.05-8.9.1-.2.217-.417.35-.65a.592.592 0 0 1 .3-.4c.067-.233.183-.4.35-.5.8-1.1 1.933-2.217 3.4-3.35 3.133-2.533 6.367-4.583 9.7-6.15-1.2 5.533-1.85 10.967-1.95 16.3 9.4 2.4 19.783 2.883 31.15 1.45 2.8-.333 5.65-.817 8.55-1.45.166-5.6-.634-11.183-2.4-16.75 2.134.934 4.316 2.083 6.55 3.45 3.934 2.467 6.534 4.683 7.8 6.65.067.233.167.4.3.5a5.488 5.488 0 0 1-.3.25c1.134 3.933 1.784 7.117 1.95 9.55.134 2.434.184 4.017.15 4.75 0 .167-.05.534-.15 1.1a8.47 8.47 0 0 0-.8.5 17.33 17.33 0 0 1-3.55 1.55c-.566-.567-1.283-1.367-2.15-2.4-1.333-1.533-2.3-2.617-2.9-3.25.1.833.284 2.1.55 3.8.234 1.5.435 2.783.6 3.85-.198.6-.398 1.233-.6 1.9-5.6 2.1-9.766 2.917-12.5 2.45-2-.4-3.5-.733-4.5-1-.433-.1-.732-.2-.9-.3-.766-.233-2.282-.583-4.55-1.05-.5.233-1.032.35-1.6.35s-1.083-.1-1.55-.3c-1.533.333-3.6.767-6.2 1.3a175.17 175.17 0 0 1-3.6.7c-3.966.767-7.866.533-11.7-.7a27.988 27.988 0 0 1-3.75-1.6c-.132-.333-.282-.7-.45-1.1h.25c0-.2-.033-.45-.1-.75a1.12 1.12 0 0 1-.05-.35c-.1-.467-.15-.817-.15-1.05 0-1.567.1-2.8.3-3.7.234-1.1.65-2 1.25-2.7-.832.9-1.8 1.983-2.9 3.25a55.16 55.16 0 0 1-3.05 3.35c-.966-.433-1.966-1.05-3-1.85zm7.9 38.5c.434-1.1.95-2.233 1.55-3.4l.15-.15c.033-.1.083-.167.15-.2v-.15c.033-.167.083-.283.15-.35l.2-.3.2-.5c.1-.133.167-.3.2-.5.067-.1.117-.2.15-.3 1-1.934 1.733-3.467 2.2-4.6.1-.333.233-.7.4-1.1.933 1.067 2.133 2.333 3.6 3.8.3.267.733.55 1.3.85 2.367 1.767 5.05 3 8.05 3.7 2.167.533 3.55.483 4.15-.15.933.066 2.083-.1 3.45-.5 2.967-.9 6.35-1.65 10.15-2.25 3.8-.667 7.083-1.567 9.85-2.7.167.5.4 1.067.7 1.7.1.167.217.383.35.65a34.578 34.578 0 0 0 1.8 3.4c.167.467.367.933.6 1.4a9.41 9.41 0 0 1-1.75 1.45c-1.9 1.367-4.35 2.5-7.35 3.4a71.497 71.497 0 0 1-12.6 2.5c-4.366.533-9.5.1-15.4-1.3-4.933-1.233-8.617-2.434-11.05-3.6a36.15 36.15 0 0 0-1.2-.8z"/><path d="M68.9 82.572c-1.2.333-2.417.55-3.65.65-.066.433-.15.883-.25 1.35l-.6-3.85c-.267-1.7-.45-2.967-.55-3.8.6.633 1.566 1.717 2.9 3.25.867 1.034 1.584 1.833 2.15 2.4zm-50 25.8c.633-2.2.95-4.5.95-6.9 0-1.6-.2-3.133-.6-4.6a3.53 3.53 0 0 1-.35-.85 7.132 7.132 0 0 0-.25-.45c-.433-1.034-1.3-2.567-2.6-4.6a19.708 19.708 0 0 1-1.8-3.05l-.7-1.6a28.118 28.118 0 0 0 3.75 1.6c3.833 1.233 7.733 1.467 11.7.7a175.17 175.17 0 0 0 3.6-.7c2.6-.533 4.666-.966 6.2-1.3.466.2.983.3 1.55.3s1.1-.117 1.6-.35c2.267.466 3.783.816 4.55 1.05.167.1.467.2.9.3 1 .267 2.5.6 4.5 1 2.733.467 6.9-.35 12.5-2.45-.7 1.767-1.616 3.55-2.75 5.35-1.366 2-2.267 3.533-2.7 4.6-.166.3-.316.633-.45 1-.133.434-.25.867-.35 1.3-.267 1.2-.4 2.433-.4 3.7 0 2.1.25 4.133.75 6.1.2.633.417 1.233.65 1.8.033.233.134.5.3.8-2.767 1.133-6.05 2.033-9.85 2.7-3.8.6-7.184 1.35-10.15 2.25-1.366.4-2.517.566-3.45.5-.6.633-1.983.683-4.15.15-3-.7-5.684-1.934-8.05-3.7-.566-.3-1-.583-1.3-.85-1.466-1.466-2.667-2.733-3.6-3.8zm20.45-15.25l.1-.1h-.1c-.366 0-.716.033-1.05.1h1.05zm-26.45-8.65c-.767-.033-1.4-.117-1.9-.25-.767-.2-1.55-.517-2.35-.95a55.16 55.16 0 0 0 3.05-3.35 139.31 139.31 0 0 1 2.9-3.25c-.6.7-1.017 1.6-1.25 2.7-.2.9-.3 2.133-.3 3.7 0 .233.05.583.15 1.05 0 .133.017.25.05.35h-.35z"/><path fill="#FDA31C" d="M72.3 86.472h-6.25c-1.8 4-3.533 7.35-5.2 10.05-.766 1.8-1.15 5.3-1.15 10.5 0 1.333.218 3.267.65 5.8h-.2c-.3-.633-.532-1.2-.7-1.7-.165-.3-.266-.567-.3-.8a22.84 22.84 0 0 1-.65-1.8v-11.1c.135-.367.285-.7.45-1 .435-1.066 1.335-2.6 2.7-4.6 1.135-1.8 2.05-3.583 2.75-5.35.2-.667.4-1.3.6-1.9.102-.467.185-.917.25-1.35 1.234-.1 2.45-.317 3.65-.65 1.2-.367 2.385-.883 3.55-1.55.234-.167.5-.333.8-.5-.166 1.167-.483 3.15-.95 5.95zm-5.6 65.6c.434.1.85.15 1.25.15.767 0 2.134-.834 4.1-2.5.467-.367.884-.734 1.25-1.1-.5 2.466-1.833 5.166-4 8.1-2.033 2.7-3.633 4.433-4.8 5.2 1-3.633 1.733-6.916 2.2-9.85zm-65.6-4.4l.2-.15c1.8 1.134 2.918 1.7 3.35 1.7 1.168 0 2.3-.566 3.4-1.7.4-.366.718-.75.95-1.15.134 4.1.634 8.284 1.5 12.55-1.166 1.034-1.75 1.418-1.75 1.15-.066-.633-.466-1.065-1.2-1.3-.766-.133-2.232-2.383-4.4-6.75-.9-1.766-1.583-3.216-2.05-4.35zm12.45-61.35l.7 1.6a19.63 19.63 0 0 0 1.8 3.05c1.3 2.033 2.167 3.566 2.6 4.6.1.167.183.316.25.45-.2.267-.35.617-.45 1.05-.133 1.466-.283 4.25-.45 8.35-.033.6-.1 1.217-.2 1.85-.233 2.3-.7 4.483-1.4 6.55l-.1-.1c0-6.2-1.233-12.167-3.7-17.9-2.233-4.333-3.434-6.967-3.6-7.9v-1.75c-1.533-.066-2.533-.15-3-.25v-.2c-.133-1.833-.25-3.267-.35-4.3 1.033.8 2.033 1.417 3 1.85.8.434 1.583.75 2.35.95.5.133 1.133.217 1.9.25.033.233.1.483.2.75.167.4.317.767.45 1.1zm39.9 157.6c-4.4 2.1-8.816 1.367-13.25-2.2 0-.1.033-.183.1-.25.034-.233.1-.517.2-.85l.1-.1c4.435 2.366 8.584 2.883 12.45 1.55.167.833.3 1.45.4 1.85zm-23.2-.85c-5.367 2-9.633 1.916-12.8-.25.1-.533.267-1.2.5-2h.15v-.1c4.4 2.533 8.55 2.45 12.45-.25.033.1.05.216.05.35 0 .5-.116 1.25-.35 2.25z"/><path fill="#8C478D" d="M39.35 93.022h.1l-.1.1z"/><path fill="#999" d="M44.7 254.822c.533.733 1.033 1.1 1.5 1.1.767 0 1.684-.2 2.75-.6 1.1-.367 2.367-.55 3.8-.55 2.334 0 4.034.333 5.1 1-.065-1.634-.25-2.8-.55-3.5l.05-.05c.1.133.234.266.4.4.9 1.133 1.65 2.25 2.25 3.35v1.35a12.84 12.84 0 0 1-1.05 1.65c-.566.833-1.05 1.366-1.45 1.6-1.333.666-2.7 1-4.1 1-3.134 0-5.267-.5-6.4-1.5-.866-.733-1.633-2.483-2.3-5.25zm-31.6-1c0 .333-.016.666-.05 1 1.1-.7 2.8-1.05 5.1-1.05 1.4 0 2.634.183 3.7.55 1.134.434 2.084.65 2.85.65 1 0 2.168-1.75 3.5-5.25.1 2.9-.632 5.383-2.2 7.45-2 2.7-4.05 4.166-6.15 4.4-2.066.232-4.2.032-6.4-.602-2.232-.666-3.2-1.6-2.9-2.8.3-1.233.618-2.184.95-2.85.134-.43.667-.93 1.6-1.498z"/><path fill="#636" d="M12.9 84.472h.35c.066.3.1.55.1.75h-.25a3.62 3.62 0 0 1-.2-.75z"/></g><g clip-rule="evenodd"><path fill-rule="evenodd" fill="#C60" d="M22.45 18.372c-1.8-.6-2.7-1.45-2.7-2.55 0-.567.033-1.133.1-1.7 1.667-3.133 3.316-5.533 4.95-7.2 1.6-1.6 3.2-2.9 4.8-3.9 1.566-.9 2.833-1.517 3.8-1.85.233-.133.533-.3.9-.5 1.133-.466 2.517-.683 4.15-.65 1.467 0 2.75.267 3.85.8.167 0 .384.017.65.05a7.66 7.66 0 0 1 1.75 1.45c.566.4 1.834.816 3.8 1.25.6.167 1.084.383 1.45.65.9.566 2.1 1.517 3.6 2.85 2.268 2.233 3.95 4.4 5.05 6.5a46.51 46.51 0 0 1 2.45 5.9c-.133.733-.416 1.267-.85 1.6-.566.433-1.483.65-2.75.65-2.9 0-5.7-.833-8.4-2.5-3-1.934-4.383-4.083-4.15-6.45-3.166 2.167-6 3.733-8.5 4.7-2.3.9-4.632 1.417-7 1.55l3.15-2.15c1.468-.967 2.435-1.767 2.9-2.4.535-.6.935-1.033 1.2-1.3.4-.466.734-1.033 1-1.7.534-.934 1.317-2.35 2.35-4.25a46.6 46.6 0 0 0-1.75 2c-.832 1-1.365 1.583-1.6 1.75-1.066 1.2-2.3 2.066-3.7 2.6l-.15-.15c.6-.633 1.768-2.283 3.5-4.95-1 .333-2.232 1.267-3.7 2.8-1.933 2.033-3.4 3.417-4.4 4.15.368-.733 1.05-1.85 2.05-3.35a35.487 35.487 0 0 1 1.65-2.45l-1.9 1.2c-1 .733-1.65 1.15-1.95 1.25l-.05-.1a136.36 136.36 0 0 0 2.05-2.85l-.05-.15c-1.533 1.3-3.267 3.3-5.2 6-.9 1.2-1.683 2.333-2.35 3.4zm27-11.65c.334.1.783.217 1.35.35.4.133.717.316.95.55-.767-1.033-1.316-1.733-1.65-2.1-.5-.533-1.065-.8-1.7-.8-.133 0-.532.9-1.2 2.7-.665 1.8-1.065 2.867-1.2 3.2l.052.1h.2c.066.167.316.583.75 1.25.5.733.9 1.217 1.2 1.45v-1.3c-.134-.1-.234-.367-.3-.8-.1-.4-.168-.633-.2-.7h.05c.232.067.433.133.6.2.1.066.217.15.35.25h.7c-.134-.167-.283-.45-.45-.85-.166-.5-.366-.95-.6-1.35 1.066.5 1.916 1.083 2.55 1.75.366.3.7.617 1 .95v-.3c-.1-.3-.5-1.066-1.2-2.3-.566-1.033-1-1.767-1.3-2.2l.048-.05z"/><path fill-rule="evenodd" fill="#FFF" d="M29.4 19.022a52.25 52.25 0 0 1-2.35 1.7c-1.6 1.133-2.517 1.8-2.75 2a34.786 34.786 0 0 0 2.45-3.15c.167-.167.316-.35.45-.55.434-.533.717-.967.85-1.3l.15-.1c-1.1.5-1.833.85-2.2 1.05-.1.1-.25.167-.45.2-.367.333-.983.783-1.85 1.35l-.05-.05c.333-.533.633-.983.9-1.35.333-.567.55-.967.65-1.2-.6.367-1.117.7-1.55 1a9.96 9.96 0 0 0-.65.6c-.6.533-1.55 1.65-2.85 3.35.567-1.267 1.333-2.667 2.3-4.2.667-1.067 1.45-2.2 2.35-3.4 1.934-2.7 3.667-4.7 5.2-6l.05.15a136.36 136.36 0 0 1-2.05 2.85l-.15.15H28c.033 0 .05-.017.05-.05.3-.1.95-.517 1.95-1.25l1.9-1.2a35.487 35.487 0 0 0-1.65 2.45c-1 1.5-1.684 2.617-2.05 3.35 1-.733 2.467-2.117 4.4-4.15 1.466-1.533 2.7-2.467 3.7-2.8-1.733 2.667-2.9 4.316-3.5 4.95v.15h.15c1.4-.534 2.633-1.4 3.7-2.6.233-.167.767-.75 1.6-1.75a46.6 46.6 0 0 1 1.75-2 248.443 248.443 0 0 1-2.35 4.25c-.267.667-.6 1.233-1 1.7a33.2 33.2 0 0 0-1.2 1.3c-.466.633-1.433 1.433-2.9 2.4-1.467 1-2.516 1.717-3.15 2.15zm20-12.25c.3.434.733 1.167 1.3 2.2.7 1.233 1.1 2 1.2 2.3v.3a9.15 9.15 0 0 0-1-.95c-.634-.667-1.483-1.25-2.55-1.75.233.4.434.85.6 1.35.167.4.316.683.45.85h-.7a7.22 7.22 0 0 0-.35-.25 6.29 6.29 0 0 0-.6-.2h-.05c.033.067.1.3.2.7.066.433.167.7.3.8v1.3c-.3-.233-.7-.716-1.2-1.45-.433-.667-.683-1.083-.75-1.25h-.2l-.05-.1c.134-.333.534-1.4 1.2-3.2.667-1.8 1.066-2.7 1.2-2.7.634 0 1.2.267 1.7.8.333.367.883 1.067 1.65 2.1-.234-.233-.55-.417-.95-.55a24.128 24.128 0 0 1-1.35-.35h-.05v.05zm-23.9 10.7h-.1c-.033 0-.067.05-.1.15.066-.1.133-.148.2-.15z"/><path fill-rule="evenodd" fill="#F40202" d="M49.45 6.722l-.05.05v-.05z"/><path fill-rule="evenodd" fill="#FDA31C" d="M53.15 28.372v.05c.434.767.75 1.284.95 1.55.133.3.267.617.4.95 0 .1.083.217.25.35 0 .6.016 1.483.05 2.65 0 .7-.067 1.4-.2 2.1-.3-2.566-1.15-5.117-2.55-7.65-.334-.067-.75-.1-1.25-.1-2.034 0-4.25.517-6.65 1.55-.8.333-2.033 1.267-3.7 2.8.834-3.6 2.017-6.05 3.55-7.35 1.167-.933 2.8-1.517 4.9-1.75a51.64 51.64 0 0 0-2.35-2.7 1037.9 1037.9 0 0 1-2.75-3c-1 .8-2.784 1.966-5.35 3.5a137.774 137.774 0 0 0-5.35 3.45c1.666.967 3.065 4.467 4.2 10.5-2.468-3.3-4.5-5.283-6.102-5.95-.966-.467-1.917-.767-2.85-.9-1.1 1-1.867 1.717-2.3 2.15-.233.267-.867.716-1.9 1.35l-.148-.75c.367-.333.933-.85 1.7-1.55.4-.367.883-.783 1.45-1.25.167-.2.35-.4.55-.6 2.034-2 3.367-3.183 4-3.55.034-.033.083-.05.15-.05.833-.533 1.9-1.283 3.2-2.25a35.535 35.535 0 0 1 3.6-2.1c1.1-.534 2.15-1.184 3.15-1.95 1.033-.7 1.833-1.4 2.4-2.1.7 1.3 1.833 2.817 3.4 4.55 1.065 1.167 1.933 2.2 2.6 3.1.4.534.732 1.017 1 1.45a174.316 174.316 0 0 1 1.95 3.5zm-22.4 20.55v-2.2c1.566 1 2.833 1.733 3.8 2.2 1.8.934 3.367 1.4 4.7 1.4 1.367 0 2.9-.45 4.6-1.35a22.49 22.49 0 0 0 2.8-1.75c.567-.434 1.185-.917 1.85-1.45v2.45c-.1.033-.198.1-.3.2-5.165 4.3-10.832 4.55-17 .75a.388.388 0 0 0-.15-.05c-.1-.1-.2-.166-.3-.2z"/><path fill-rule="evenodd" fill="#FC6" d="M30.75 49.172v-.25c.1.034.2.1.3.2.033 0 .083.017.15.05 6.167 3.8 11.834 3.55 17-.75.1-.1.2-.167.3-.2V52.422c-5.433 4.633-11.35 4.833-17.75.6v-3.85zm0-2.45a2.81 2.81 0 0 0-.5-.35c.566.4.167.15-1.2-.75-1.433-.933-2.933-2.617-4.5-5.05-1.6-2.5-1.733-5.383-.4-8.65 1.033-.633 1.667-1.083 1.9-1.35.434-.434 1.2-1.15 2.3-2.15.933.133 1.883.434 2.85.9 1.6.667 3.633 2.65 6.1 5.95-1.133-6.033-2.533-9.533-4.2-10.5a138.194 138.194 0 0 1 5.35-3.45c2.567-1.534 4.352-2.7 5.352-3.5a1037.9 1037.9 0 0 0 2.75 3 52.6 52.6 0 0 1 2.35 2.7c-2.1.233-3.733.817-4.9 1.75-1.533 1.3-2.716 3.75-3.55 7.35 1.667-1.533 2.9-2.467 3.7-2.8 2.4-1.034 4.616-1.55 6.65-1.55.5 0 .916.033 1.25.1 1.4 2.533 2.25 5.083 2.55 7.65a11.08 11.08 0 0 1-.7 2.35c-.3.633-.583 1.133-.85 1.5a3.5 3.5 0 0 1-.5 1.35c-.167.3-.334.583-.5.85.033 0 .1-.017.2-.05-.334.367-.667.767-1 1.2-.234.133-.45.3-.65.5-.167.2-.35.417-.55.65l-.1.05c-.167.2-.4.417-.7.65-.268.267-.518.5-.75.7-.667.533-1.284 1.017-1.85 1.45-.968.7-1.9 1.283-2.8 1.75-1.7.9-3.234 1.35-4.602 1.35-1.333 0-2.9-.467-4.7-1.4-.967-.466-2.233-1.2-3.8-2.2zm22.4-18.35h.1l-.1.05v-.05zm-11 15.85l.15-.1v-.05l-.15.15a4.998 4.998 0 0 0-.6-.8.303.303 0 0 0-.2-.2 1.597 1.597 0 0 0-.55-.5l-.15-.05-.15-.1c-.433-.233-.85-.333-1.25-.3-.833.1-1.6.317-2.3.65-.033.067-.1.117-.2.15-.5.233-.766.55-.8.95v.2c0 .033.017.083.05.15v.05c0 .233.1.467.3.7.2.2.433.417.7.65.067 0 .1.033.1.1.6.333 1.15.5 1.65.5.6 0 1.233-.133 1.9-.4.767-.233 1.233-.583 1.4-1.05h.15l-.05-.05a.622.622 0 0 1 .15-.25v-.1a.34.34 0 0 0-.1-.25l-.05-.05zm-5.85.9h-.05l.05.05v-.05zm-.35-1.1h-.2.2zm4.85 2.1l-.15-.15.05.15h.1z"/><path fill-rule="evenodd" fill="#984B01" d="M24.15 31.922c-1.333 3.267-1.2 6.15.4 8.65 1.567 2.433 3.067 4.117 4.5 5.05 1.367.9 1.767 1.15 1.2.75.133.067.3.183.5.35v2.45l-.4.15v2c-.633.633-1.184 1.583-1.65 2.85-.333 1-.55 1.934-.65 2.8-2.4 6.2-3.483 11.933-3.25 17.2a5.18 5.18 0 0 0-.25 1.55c.167.233.267.483.3.75.867 2.267 1.833 3.783 2.9 4.55.4.267.833.434 1.3.5H28c0-.066-.117-.15-.35-.25a8.66 8.66 0 0 1-1-.2c-1.233-.333-2.267-.684-3.1-1.05-1.467-.767-2.55-1.833-3.25-3.2-.767.466-1.983-1.8-3.65-6.8-1.633-5-2.167-9.333-1.6-13 .5-3.667.967-7.933 1.4-12.8.434-4.9.434-8.5 0-10.8-.1-.633-.1-1 0-1.1-.133-.6-.2-1.184-.2-1.75-.1-1.667.033-3.8.4-6.4.4-2.733 1-5.033 1.8-6.9.767-1.967 1.233-3.017 1.4-3.15-.067.567-.1 1.133-.1 1.7 0 1.1.9 1.95 2.7 2.55-.966 1.533-1.733 2.933-2.3 4.2 1.3-1.7 2.25-2.817 2.85-3.35.233-.233.45-.434.65-.6.267.067.567.133.9.2-.267.367-.566.816-.9 1.35l.05.05c.867-.567 1.483-1.017 1.85-1.35.533.1 1.083.15 1.65.15-.133.2-.283.383-.45.55a34.926 34.926 0 0 1-2.45 3.15c.233-.2 1.15-.867 2.75-2a52.25 52.25 0 0 0 2.35-1.7c2.367-.133 4.7-.65 7-1.55 2.5-.967 5.333-2.533 8.5-4.7-.233 2.367 1.15 4.517 4.15 6.45 2.7 1.667 5.5 2.5 8.4 2.5 1.266 0 2.183-.217 2.75-.65.433-.333.716-.867.85-1.6.1.267.2.55.3.85.767 2.367 1.083 4.667.95 6.9-.167 2.167-.483 4.2-.95 6.1-.2.767-.417 1.5-.65 2.2-.166.4-.35.8-.55 1.2l-4.55 16.95-7.1-2.65v-5.25c.232-.2.482-.433.75-.7.3-.233.533-.45.7-.65h.1v-.05c.2-.233.383-.45.55-.65.2-.2.416-.367.65-.5.333-.434.666-.833 1-1.2a.835.835 0 0 1-.2.05c.166-.267.333-.55.5-.85.267-.434.433-.883.5-1.35.267-.367.55-.867.85-1.5.333-.8.566-1.583.7-2.35.133-.7.2-1.4.2-2.1a98.832 98.832 0 0 1-.05-2.65c-.167-.133-.25-.25-.25-.35-.134-.333-.268-.65-.4-.95-.2-.267-.517-.783-.95-1.55l.1-.05h-.1a184 184 0 0 0-1.95-3.5 19.54 19.54 0 0 0-1-1.45c-.666-.9-1.533-1.933-2.6-3.1-1.566-1.733-2.7-3.25-3.4-4.55-.566.7-1.366 1.4-2.4 2.1-1 .767-2.05 1.417-3.15 1.95a35.348 35.348 0 0 0-3.6 2.1c-1.3.967-2.366 1.717-3.2 2.25-.066 0-.116.017-.15.05-.632.367-1.965 1.55-4 3.55-.2.2-.382.4-.55.6-.566.467-1.05.883-1.45 1.25-.766.7-1.332 1.217-1.7 1.55l.15.75zM56 46.572v.05l.15-.05H56z"/><path fill-rule="evenodd" fill="#F60" d="M49.95 44.422l.1-.05v.05h-.1zm6.05 2.15h.15l-.15.05v-.05z"/><path fill-rule="evenodd" fill="#F63" d="M39.15 44.522c-1.033-.033-2.1-.2-3.2-.5.034-.4.3-.717.8-.95.1-.034.167-.083.2-.15a7.36 7.36 0 0 1 2.3-.65c.4-.033.817.067 1.25.3l.15.1.15.05c.233.133.416.3.55.5a.3.3 0 0 1 .2.2c.267.3.466.567.6.8l-3 .3z"/><path fill-rule="evenodd" fill="#F96" d="M35.95 44.072c1.1.3 2.167.45 3.2.45l3-.3.05.05c.066.067.1.15.1.25v.1a.622.622 0 0 0-.15.25c-.065 0-.1.017-.1.05-.166.467-.633.817-1.4 1.05-.666.267-1.3.4-1.9.4-.5 0-1.05-.167-1.648-.5 0-.067-.033-.1-.1-.1-.268-.233-.5-.45-.7-.65-.2-.233-.3-.467-.3-.7v-.05a.393.393 0 0 1-.05-.15v-.15z"/><path fill-rule="evenodd" fill="#E30202" d="M32.8 13.422l.15.15h-.15v-.15z"/><path fill-rule="evenodd" fill="#F00" d="M28 11.972l.05.1c0 .033-.017.05-.05.05v-.15z"/><path fill-rule="evenodd" fill="#F90" d="M28 11.972v.15h-.15l.15-.15zm-3.45 6.85a19.738 19.738 0 0 1-.9-.2c.433-.3.95-.633 1.55-1-.1.233-.316.633-.65 1.2zm2.65.2c-.566 0-1.117-.05-1.65-.15.2-.033.35-.1.45-.2.367-.2 1.1-.55 2.2-1.05l-.15.1c-.133.333-.416.767-.85 1.3zm-1.7-1.55c-.068 0-.134.05-.2.15.033-.1.067-.15.1-.15h.1z"/><path fill="none" stroke="#F03" stroke-linecap="round" stroke-linejoin="round" stroke-miterlimit="3" d="M42.3 44.122c.567-.133 1.134-.3 1.7-.5m-8.05.4h-.2a8.4 8.4 0 0 1-1.2-.4m7.75.5l-.15.1m-3 .3l3-.3m-3 .3c-1.033-.033-2.1-.2-3.2-.5"/></g><path fill-rule="evenodd" clip-rule="evenodd" fill="#653201" d="M50.45 23.772l4.15.55-11.95.7v-.55zM34.9 25.222l-11.95-.7 4.15-.55 7.8.7z"/><path fill-rule="evenodd" clip-rule="evenodd" fill="#FFF" d="M44.65 28.222c1.833-.5 3.917-.5 6.25 0l-1.3 2.45-4.95-.05c-.3-.133-.55-.25-.75-.35-.634-.3-.75-.7-.35-1.2.2-.233.567-.517 1.1-.85z"/><g fill-rule="evenodd" clip-rule="evenodd"><path fill="#990" d="M47.2 29.172h-.15c-.666 0-1.05.333-1.15 1-.266-.3-.4-.65-.4-1.05s.135-.75.4-1.05c.268-.267.6-.4 1-.4.367 0 .685.133.95.4.268.3.4.65.4 1.05s-.133.75-.4 1.05h-.05a1.844 1.844 0 0 0-.15-.45c-.1-.233-.216-.4-.35-.5l.05-.05c.2 0 .35-.083.45-.25.067-.1.1-.2.1-.3 0-.2-.032-.35-.1-.45a.542.542 0 0 0-.4-.15c-.365 0-.55.2-.55.6 0 .067.018.15.05.25a.63.63 0 0 0 .35.25l-.05.05z"/><path fill="#FFF" d="M47.35 29.172c-.032 0-.065-.017-.1-.05a.63.63 0 0 1-.35-.25.83.83 0 0 1-.05-.25c0-.4.184-.6.55-.6.167 0 .3.05.4.15.066.1.1.25.1.45 0 .1-.033.2-.1.3a.49.49 0 0 1-.45.25z"/><path fill="#9C0" d="M45.9 30.172c.1-.667.483-1 1.15-1h.15c.032.034.065.05.1.05.133.1.25.267.35.5.066.133.116.283.15.45v.05c-.267.267-.567.4-.9.4-.4 0-.733-.15-1-.45z"/><path fill="#C90" d="M47.8 30.172h.05l-.05.05v-.05zm-.5-.95c-.033 0-.066-.017-.1-.05l.05-.05c.034.033.067.05.1.05l-.05.05z"/></g><path clip-rule="evenodd" fill="none" stroke="#000" stroke-linecap="round" stroke-linejoin="round" stroke-miterlimit="3" d="M43.55 29.072c.2-.267.55-.55 1.05-.85 1.834-.5 3.917-.5 6.25 0"/><g><path fill-rule="evenodd" clip-rule="evenodd" fill="#FFF" d="M33.35 30.422c-.166.1-.4.2-.7.3l-4.95.1-1.3-2.45c2.334-.5 4.418-.5 6.25 0 .534.3.9.583 1.1.85.4.5.267.9-.4 1.2z"/><g fill-rule="evenodd" clip-rule="evenodd"><path fill="#990" d="M30.65 29.372l-.05.05h-.15c-.667 0-1.05.333-1.15 1-.267-.3-.4-.65-.4-1.05s.133-.75.4-1.05c.267-.267.6-.4 1-.4.367 0 .684.133.95.4.267.3.4.65.4 1.05s-.133.75-.4 1.05h-.05a1.763 1.763 0 0 0-.15-.45c-.1-.233-.217-.4-.35-.5l.05-.05c.2 0 .35-.083.45-.25.067-.1.1-.2.1-.3 0-.2-.033-.35-.1-.45a.54.54 0 0 0-.4-.15c-.367 0-.55.2-.55.6 0 .067.017.15.05.25a.63.63 0 0 0 .35.25z"/><path fill="#FFF" d="M30.75 29.422c-.033 0-.067-.017-.1-.05a.63.63 0 0 1-.35-.25.83.83 0 0 1-.05-.25c0-.4.183-.6.55-.6.167 0 .3.05.4.15.067.1.1.25.1.45 0 .1-.033.2-.1.3a.49.49 0 0 1-.45.25z"/><path fill="#C90" d="M30.7 29.472c-.033 0-.066-.017-.1-.05l.05-.05c.033.033.067.05.1.05l-.05.05zm.5 1v-.05h.05l-.05.05z"/><path fill="#9C0" d="M31.2 30.472c-.267.267-.566.4-.9.4-.4 0-.733-.15-1-.45.1-.667.483-1 1.15-1h.15c.033.034.066.05.1.05.133.1.25.267.35.5.067.133.117.283.15.45v.05z"/></g><path clip-rule="evenodd" fill="none" stroke="#000" stroke-linecap="round" stroke-linejoin="round" stroke-miterlimit="3" d="M33.75 29.222c-.2-.267-.567-.55-1.1-.85-1.833-.5-3.917-.5-6.25 0"/></g><g><path fill-rule="evenodd" clip-rule="evenodd" fill="#FDA31C" d="M40.3 38.972c.2-.133.518-.35.95-.65h.3v.7c-.466.434-.85.767-1.15 1-.1.133-.25.25-.45.35-.332.267-.648.4-.95.4-.232 0-.55-.117-.948-.35-.334-.2-.733-.45-1.2-.75-.733-.667-1.233-1.083-1.5-1.25-.034-.066-.067-.1-.1-.1v-.2c.867.067 1.6.283 2.2.65.6.267 1.15.4 1.65.4.432 0 .832-.067 1.2-.2z"/></g><g><path fill-rule="evenodd" clip-rule="evenodd" d="M64.45 121.672c.033.133.084.284.15.45.233.567.434 1.133.6 1.7 1.033 3.033 1.684 6.066 1.95 9.1.233 3 .233 7.667 0 14-.066 1.6-.25 3.334-.55 5.2-.467 2.934-1.184 6.2-2.15 9.8-.033.134-.066.25-.1.35-.733 2.667-1.65 5.534-2.75 8.6-.233.6-.45 1.2-.65 1.8a89.845 89.845 0 0 0-.75 2.5c-.366 1.435-.666 3.935-.9 7.5l1.7 15.65c.534 3.434.35 7.75-.55 12.95-.967 5.233-2.4 11.183-4.3 17.85a103.477 103.477 0 0 0-2.7 12.85l-.2.1c-.1.034-.2.05-.3.05-3.833 1.3-7.967.784-12.4-1.55-.066 0-.1.018-.1.05a3.82 3.82 0 0 0-.25.85v.302c0 1.3.667 3.833 2 7.6.834 2.566 1.634 4.384 2.4 5.45.7 2.8 1.483 4.566 2.35 5.3 1.1.967 3.217 1.45 6.35 1.45a9.035 9.035 0 0 0 4.1-.95c.4-.233.9-.767 1.5-1.6.334-.5.685-1.05 1.05-1.65v-1.35c1.2 2.1 1.8 3.933 1.8 5.5 0 1.8-1.432 3.15-4.3 4.05-1.898.6-4.148.733-6.75.4-2.6-.3-4.216-.768-4.85-1.4a22.256 22.256 0 0 1-1.9-2.05 32.7 32.7 0 0 1-1.75-2.35c-.565-.8-1.05-2.185-1.45-4.15-.365-1.967-.698-4.384-1-7.25-.266-2.867-.398-4.417-.398-4.65 0-1.467.116-2.5.35-3.1v-.05c.1-.2.283-.384.55-.55a19.297 19.297 0 0 0-1.2-.7c.234-6.8.234-11.984 0-15.55-.6-4.334-.9-7.484-.9-9.45 0-6.768-.433-15.034-1.3-24.8-.032.232-.05.466-.05.7-.666 14.865-2.483 30.782-5.45 47.75a.435.435 0 0 0-.05.2c-.1.065-.282.132-.55.2.168.032.334.082.5.148-.066.367-.132.733-.2 1.1-.032.034-.05.084-.05.15l.05-.05c.234.6.35 1.616.35 3.05 0 .233-.132 1.767-.4 4.6-.3 2.867-.616 5.3-.95 7.3-.432 1.935-.916 3.317-1.45 4.15-.632.8-1.232 1.567-1.8 2.3-.632.768-1.266 1.467-1.9 2.1s-2.25 1.1-4.85 1.4c-2.6.3-4.866.15-6.8-.45-2.866-.9-4.3-2.25-4.3-4.05 0-2.333 1.4-5.3 4.2-8.9.068-.1.15-.216.25-.35l.1.1c-.232.534-.382 1.367-.45 2.5-.966.567-1.532 1.05-1.7 1.45-.266.7-.55 1.65-.85 2.85-.3 1.2.65 2.15 2.85 2.852 2.234.633 4.4.833 6.5.6 2.067-.233 4.1-1.7 6.1-4.4 1.535-2.1 2.268-4.6 2.2-7.5.134-.4.284-.833.45-1.3.768-2.233 1.317-4.017 1.65-5.35.2-1 .3-1.767.3-2.3a.83.83 0 0 0-.05-.25c-3.933 2.7-8.082 2.783-12.45.25-.032 0-.05-.017-.05-.05h-.05l-.05-.05v.15c-.132.032-.25.065-.35.1-2.532-9.134-4.2-16.834-5-23.1-.9-6.567-1.016-11.218-.35-13.95.7-2.734 1.468-6 2.3-9.8.9-3.835 1.35-6.95 1.35-9.352 0-2.433-.016-3.9-.05-4.4a77.47 77.47 0 0 1-.4-4.35l-.9-3.6c-1.766-4.566-3.116-9.066-4.05-13.5-.9-4.2-1.416-8.366-1.55-12.5-.2-7 .7-13.85 2.7-20.55l-.1-.1c.2-.9.45-1.8.75-2.7.334-1 .734-2.017 1.2-3.05.368.2.785.433 1.25.7 2.4 1.233 6.084 2.45 11.05 3.65 5.9 1.4 11.035 1.85 15.4 1.35 4.334-.5 8.534-1.35 12.6-2.55 3-.9 5.45-2.033 7.352-3.4a9.482 9.482 0 0 0 1.75-1.45c.5.967.95 1.934 1.35 2.9.097.167.18.333.246.5zm-45.95 119.3l-.1-.3c-.033-.033-.133 0-.3.1l.4.2z"/></g><g><g clip-rule="evenodd"><path fill-rule="evenodd" fill="#FFF" fill-opacity=".361" d="M40.65 31.9c2.866-6.467 7.633-7.867 14.3-4.2-3.566 6.167-8.334 7.567-14.3 4.2zm-4.2 0c-5.934 3.366-10.7 1.967-14.3-4.2 6.667-3.667 11.433-2.267 14.3 4.2z"/><path fill="none" stroke="#333" stroke-linecap="round" stroke-linejoin="round" stroke-miterlimit="3" d="M40.65 31.9c2.866-6.467 7.633-7.867 14.3-4.2-3.566 6.167-8.334 7.567-14.3 4.2-1.233-1.7-2.634-1.7-4.2 0-5.934 3.366-10.7 1.967-14.3-4.2 6.667-3.667 11.434-2.267 14.3 4.2"/></g></g></svg>