<svg xmlns="http://www.w3.org/2000/svg" xmlns:xlink="http://www.w3.org/1999/xlink" preserveAspectRatio="none" width="206" height="640" viewBox="0 0 206 640"><defs><g id="a"><path fill="#C90" d="M9.95 248.25q-.2.4-.3.75.4-.35.85-.65l-.55-.1z"/><path fill="#FDAD35" d="M16.75 247.05q-.85-.15-2.4-.1-2.65.2-3.85 1.4-.45.3-.85.65-.1 1.4-.5 2.55-.8 5.3.2 9.7.4 3.3 1.65 5.55 1 2.65 2.75 4.6.2.1.4.25 1.55.4 1.75.6.6.5 1.55.1 1.55-.5-.85-14.95.65-.2 1.55-.25 2.8.45 4.75 6.05 1.7 4.2 2.05 8.1.9 8.5-.1 15-.75 3.15 0 5v.5q1.4-.3 2.65-.8 2.15-.6 4.8-1.35 4.1-1.4 6.65-9.1 2.8-5.85 2.15-16.2-.6-5.25-1.1-10.55-.3 2.75-.4 5.75-.65 5.3-3.7 5.5-2.65.2-8.8-4.9-.35-.2-.65-.5-.6-.3-1.65-2.05-.5-.85-1.5-2.7l-2.7-4.3-1-.8q-1.15-1.45-2.15-1.05-.5.35-.7-1.7z"/><path fill="#FDCB82" d="M14.55 239.25q-2.65 3.15-3.55 5.5-.6 1.85-1.05 3.5l.55.1q1.2-1.2 3.85-1.4 1.55-.05 2.4.1.2 2.05.7 1.7 1-.4 2.15 1.05l1 .8 2.7 4.3q1 1.85 1.5 2.7 1.05 1.75 1.65 2.05.3.3.65.5 6.15 5.1 8.8 4.9 3.05-.2 3.7-5.5.1-3 .4-5.75-1.15-11.3-2.35-16.4l-19.5-2.55q-.8 1.4-3.6 4.4z"/><path fill="#E1E1E1" d="M43.15 119.95h-.2q.3 1.1.4 2.15h-.4q-2.05 3.9-.9 14.85.9 10.75-8.4 18.15-9.45 7.25-19.1-6.35Q4.65 135.3-.8 104.9l.3 4.7 8.7 40.05q.15.2.15.4.3.25.4 2.2.1.2.1.4.3 1.4.4 3.55.1 2.05.3 4.35l4.7 72.85 3.9 1.45 19.5 2.55q8.9.2 13.1-6.25l-6.35-102.2q-.5-4.6-1.25-9z"/><path fill="#FFF" d="M24.3 64.2q-7.35-5.35-18.45-9.45-13.1 16.7-12.3 29 .95 12.5 5.65 21.15 5.45 30.4 15.35 43.85 9.65 13.6 19.1 6.35 9.3-7.4 8.4-18.15-1.15-10.95.9-14.85h.4q-.1-1.05-.4-2.15-2.75-19.7-7.05-35.15-4.2-15.4-11.6-20.6z"/></g><g id="b"><path fill="#336" d="M-64.4 500.3l-.1-.25-.1.1v.25q.1-.1.2-.1M13 294.95q-4.1-47.55-7.8-81.7-3.05 1.4-6.35 2.45-13.6 2.45-17 3.2-13.8 4.75-21 6.4-12.15 2.95-25.05 1.1-22.1 0-35.6-2.15-9.5-1.6-16.45-4.3-1.6 12.45-2.25 20.15-1.05 12.55-1.05 17.65 0 19.65-.95 42.25-1.05 22.6-.95 41 0 18.35.45 39.6.5 21.15.3 32.55-.1 1.55-.1 3.05 0 2.75-.2 6.85 1.65 7.75 6.1 19.35 5.7 14.6 8.75 19.75 6.55 11.6 21.45 15.55 19 5.25 24.75 13.1 1.45-6.35 1.75-15.85.05-7.5-1.15-32.55-.4-7-.4-12.9h-.65q-6.45 5-10.9 5-1.45.5-2.85 0-2.6-.45-2.6-4.15 0-3.4 8.55-16.05 5.4-7.9 9.6-13.3.55-6.9 1.05-14.3 1.3-5.7 2.55-13.7 2.65-17 3.15-30l1.4-20.4q.2 8.15.7 15.55 1 14.15 3.85 27.45 2.95 13.75 6.75 17.3 1.15 21.9 2.3 30.35 7.3 11.8 20.85 20.9 7.7 5.2 13.9 9.2 0 5.15-10.85 7.8-7.1 1.8-13.2 1.8-2 0-7.85-2.5-.3 6.55-.6 15.9-.1 4.45-.25 9.45 0 10.35 2.35 16.85.55 0 1.05.15 24.95 4.95 40.55-7.95 8.35-7.05 12.9-18.5 1.9-4.85 3.15-10.55-.85-9.7-2.1-21.95-5.15-54.3-5.15-69-.1-14.7-4.9-69.9z"/><path fill="#333" d="M-140.45 543.3l-8.35-1.2q-.35 7.5.3 8.25.85.85 10.55 4 9.65 3 12.7 2.65 3.25-.5 23.55-10.15 20.3-9.8 27.45-14.55 7.1-4.55 8.05-6.45.5-1.3.65-8.45-8.05 8.45-30.85 19-23.7 11.1-28.65 11.1-2.95 0-6.55-1.25-6.2-2.25-8.85-2.95m195.2-6.9l-8.35 1.25q-2.75.75-8.85 2.9-3.5 1.35-6.55 1.35-5 0-28.65-11.1-22.8-10.55-30.85-19 .2 7.05.75 8.45.95 1.9 7.9 6.45 7.2 4.65 27.6 14.55Q28.1 550.9 31.1 551.4q3.15.35 12.85-2.75 9.75-3.05 10.5-3.9.8-.85.3-8.35z"/><path fill="#C60" d="M-108.65 526.35q16.15-8.1 23.2-15.7-2.4-.65-4.95-1.5-10.85-3.8-18.6-3.8-6.95.55-11.8.85-1.05 1.5-2.35 3.4-.1.1-.1.3-1.05 1.15-2 2.45-5.7 7.9-10.45 10.65-5.5 3.15-8.8 6.25l-.2.6q3.1.85 8.65 2.35 5.95 1.7 9.3 1.7.25 0 18.1-7.55m159.15-2.3v-.45q-3.35-3.05-8.85-6.2-4.75-2.75-10.55-10.65-.85-1.3-1.8-2.55 0-.1-.2-.3-.25-.25-.35-.55-5.5 3.15-8.75 4.75-10.45 5.5-19.65 5.5h-2.1q3.9 2.5 11.1 7.8 11.25 7 19 7 1.8 0 2.55-.25 2.7-1.25 19.6-4.1z"/><path fill="#930" d="M-85.45 510.65q-7.05 7.6-23.2 15.7-17.85 7.55-18.1 7.55-3.35 0-9.3-1.7-5.55-1.5-8.65-2.35l.2-.6-.4.6q-.3.1-.55.35-2.5 3.45-3.15 10.75 0 .55-.2 1.15l8.35 1.2q2.65.7 8.85 2.95 3.6 1.25 6.55 1.25 4.95 0 28.65-11.1 22.8-10.55 30.85-19v-5.05V509.7q-5.85 3.15-8.7 3.15-4.1 0-11.2-2.2m140.2 25.75q-.1-.6-.1-1.15-.85-8.05-3.8-11.4-.25-.1-.35-.25v.45q-16.9 2.85-19.6 4.1-.75.25-2.55.25-7.75 0-19-7-7.2-5.3-11.1-7.8-5.1-.35-14.8-1.9-7.8-1.3-11.95-2.45v2.55q8.05 8.45 30.85 19Q26 541.9 31 541.9q3.05 0 6.55-1.35 6.1-2.15 8.85-2.9l8.35-1.25z"/><path fill="#5C2E01" d="M-116.6 499.55q.1.2-4.2 6.65 4.85-.3 11.8-.85 7.75 0 18.6 3.8 2.55.85 4.95 1.5 7.1 2.2 11.2 2.2 2.85 0 8.7-3.15v-.1q0-5.95-.65-7.65l-.3-.95q.5-.4-1.8-1.15-2.45-.65-7.1-.1-43.7-6.85-41.4-.55.1.05.2.35m145.35 3.8q-2.4-3.2-3.6-5.4-3.35 2.1-9.7 3.7-13.5 3.7-27.45 3.7-10.9 0-16.3-5.6-.2 1.6-.2 4.15v5.35q4.15 1.15 11.95 2.45 9.7 1.55 14.8 1.9h2.1q9.2 0 19.65-5.5 3.25-1.6 8.75-4.75z"/><path fill="#1A1A33" d="M-114.9 442.4q-4.45-11.6-6.1-19.35-.15 12.35-1 37-1.25 32.6-.6 32.6.6-.1.6 2.8 0 2.5 4.35 3.8l.85-.05q-2.3-6.3 41.4.55 4.65-.55 7.1.1 2.3.75 1.8 1.15.95-.4 2-.95l.1.25q2.95-2.85 4.45-9.5-5.75-7.85-24.75-13.1-14.9-3.95-21.45-15.55-3.05-5.15-8.75-19.75m55.55-32.75q.35-4.2.75-8.65-4.2 5.4-9.6 13.3-8.55 12.65-8.55 16.05 0 3.7 2.6 4.15 1.4.5 2.85 0 4.45 0 10.9-5 .2-.3.65-.5-.3-11.75.4-19.35m43.35 24.5q-13.55-9.1-20.85-20.9.2 2.2.45 3.45 2.75 11.95 2.4 30.55v3.2q5.85 2.5 7.85 2.5 6.1 0 13.2-1.8 10.85-2.65 10.85-7.8-6.2-4-13.9-9.2m38 32.2q-4.55 11.45-12.9 18.5-15.6 12.9-40.55 7.95-.5-.15-1.05-.15.85 2.55 2.1 4.45.85 1.3 2.1 2.65 5.4 5.6 16.3 5.6 13.95 0 27.45-3.7 6.35-1.6 9.7-3.7 3.5-2.4 3.3-4.85-.2-3.3-2.35-26.75-.5-4.85-.95-10.55-1.25 5.7-3.15 10.55M5.2 213.25q-.65-5.55-1.35-10.75h-117.5q-1.55 9.6-2.6 17.45 6.95 2.7 16.45 4.3 13.5 2.15 35.6 2.15 12.9 1.85 25.05-1.1 7.2-1.65 21-6.4 3.4-.75 17-3.2 3.3-1.05 6.35-2.45z"/><path fill="#069" d="M-60.4 429.5h.65v-.5q-.45.2-.65.5z"/></g><g id="c"><path fill="#C90" d="M-109.85 250.1q.5.2.85.6-.1-.4-.15-.8l-.7.2z"/><path fill="#A07001" d="M-139.15 263.1h.9q-.2-3.15-.6-5.8-.2 2.85-.3 5.8z"/><path fill="#FDAD35" d="M-134.05 268.35q-3.05 0-4.2-5.25h-.9q-.1 2.35-.2 4.75 0 10.35 3.15 16.15 3 7.5 7.2 8.55 2.65.7 4.9 1.1 1.25.5 2.65.65v-.45q.65-1.95-.2-5-1.6-6.45-1.2-15.05.3-3.9 1.55-8.1 1.6-5.75 4.4-6.45.9 0 1.6.3-1.6 14.45 0 14.95 1.05.2 1.55-.2.2-.3 1.75-.65.2-.2.4-.5 1.55-1.95 2.45-4.6 1.05-2.45 1.35-5.75.6-4.4-.5-9.7-.4-1.05-.7-2.4-.35-.4-.85-.6-1.3-1.15-3.9-1.15-1.55 0-2.45.25 0 1.95-.5 1.8-1.05-.5-2.15 1.05l-.85.9-2.45 4.35q-.9 1.95-1.3 2.85-.85 1.75-1.55 2.25-.3.2-.65.4-5.8 5.55-8.4 5.55z"/><path fill="#FDCB82" d="M-110.45 246.6q-1.15-2.45-4-5.4-2.85-2.8-3.7-4.1l-19.45 3.7q-.85 5.1-1.25 16.5.4 2.65.6 5.8 1.15 5.25 4.2 5.25 2.6 0 8.4-5.55.35-.2.65-.4.7-.5 1.55-2.25.4-.9 1.3-2.85l2.45-4.35.85-.9q1.1-1.55 2.15-1.05.5.15.5-1.8.9-.25 2.45-.25 2.6 0 3.9 1.15l.7-.2q-.6-1.55-1.3-3.3z"/><path fill="#E1E1E1" d="M-107.4 110.9v-4.6q-3.55 30.55-12.5 44.6-8.9 14.15-18.75 7.5-9.65-6.8-9.5-17.55.4-11.05-1.75-14.75h-.45q0-1.15.25-2.25h-.25q-.4 4.4-.6 9.1v102.3q4.6 6.25 13.35 5.55l19.45-3.7 3.7-1.85.2-72.85v-4.35q0-2.25.3-3.55v-.45q0-1.95.2-2.15 0-.3.2-.5l6.15-40.5z"/><path fill="#FFF" d="M-134.95 67.05Q-142 72.8-145.3 88.4q-3.3 15.65-4.8 35.45-.25 1.1-.25 2.25h.45q2.15 3.7 1.75 14.75-.15 10.75 9.5 17.55 9.85 6.65 18.75-7.5 8.95-14.05 12.5-44.6 4.2-9.1 4.4-21.7 0-12.3-14.1-28.1-10.8 4.8-17.85 10.55z"/></g><g id="d"><path fill="#EAEAEA" d="M-102.7 44.4l-.25-.4q-11.9 6.6-20.45 12.1-.9.65-1.55 1.1-2.65 1.75-5.05 3.75-1.55 1.1-3.35 4.2L-121 149.7l.9 86.75-16.75 127.3q26.45 17.2 52.65 17.65V248.8l1.1-22.45-22.05-93.85L-88.6 94l-14.35-25.35 7.3-15.85q-7.05-3.75-7.05-8.4M20.6 58.1q-.85-1.1-1.75-2Q12.7 50.15-1.6 44.2q-.45 6.4-8.6 11.9-.45.45-1.35.9-.85.4-1.55 1.1l3.75 8.35-14.3 25.35 16.5 38.5-18.7 79.75V381.4q26.2-.45 52.65-17.65l-15.45-126.6-3.5-66.95 2.2-31.95 5.3-34.6Q18.4 87.15 19.1 81q3.3-9.25 2.4-21.15-1.3-1.55-.9-1.75z"/><path fill="#E1E1E1" d="M-88.2 36.3q-7.7 3.95-14.5 7.7v.4q0 4.65 7.05 8.4l7.45-16.5m84.15 7q-8.15-3.7-14.75-6.35-.2 3.3-1.1 6.15l6.8 15q.7-.7 1.55-1.1.9-.45 1.35-.9 8.15-5.5 8.6-11.9-1.15-.45-2.45-.9z"/><path fill="#CCF" d="M-102.7 44h-.25l.25.4V44z"/><path fill="#CCC" d="M-75.2 54.35h-1.1q.45.2 1.1.45v-.45m51.75-18.95l-.2-.25 3.75 7.95q.9-2.85 1.1-6.15-2-.65-4.65-1.55z"/><path fill="#BBB" d="M-73 59.4q-1.3-.2-2.4-.45l-7.7 167.4-1.1 22.45q27.95 5.5 58.35-.45V62.7q-5.05.9-10.8.9-14.95 0-36.35-4.2z"/><path fill="#FBFBFB" d="M-75.4 58.95l.2-4.15q-.65-.25-1.1-.45h1.1v-28.2q-9.25 8.15-12.55 9.7-.2.2-.2.45h-.25l-7.45 16.5-7.3 15.85L-88.6 94l-16.55 38.5 22.05 93.85 7.7-167.4m51.1-23.8l.45-.2-6.4-13.65q-2.45 11.25 4.4 31.05v157.7l18.7-79.75-16.5-38.5 14.3-25.35-3.75-8.35-6.8-15-3.75-7.95h-.65z"/><path fill="#B7B7B7" d="M-51.6 60.3q-11.7-.25-20.95-4.2-1.55-.65-2.65-1.3l-.2 4.15q1.1.25 2.4.45 21.4 4.2 36.35 4.2 5.75 0 10.8-.9V52.35q-1.75 1.55-3.75 2.85-.45.45-1.1.9-8.15 4.6-20.9 4.2z"/><path fill="#9D9D9D" d="M-64.4 31.2q-5.5.65-10.8-5.05V54.8q1.1.65 2.65 1.3 9.25 3.95 20.95 4.2 12.75.4 20.9-4.2.65-.45 1.1-.9 2-1.3 3.75-2.85-6.85-19.8-4.4-31.05L-53.6 33.65q-3.1 0-3.75 1.1-3.5-1.55-7.05-3.55z"/></g><g id="e"><path fill="#C90" d="M-72.8 28.2v1.7q.7-.35.35-1.05-.15-.6-.15-.95-.194 0-.2.25v.05m-15.3-39.95h-.1l-.15.3.25.1h.15v-.35l-.15-.05m41.2-65.4q-4.4-.85-10.35.55-5.8 1.3-10.1 3.9 4.85-.8 7.1 0-1.3.1-4.25 1.55-2.85 1.5-4.05 2.45-1.25.9-3.1 2.8-1.85 1.6-2.95 3 2.95-2 9-4.2 5.95-2.1 10.8-2-3.25.85-5.55 3.65-2.4 2.75-3.25 4.3 4.6-3.25 9.6-4.7 5.1-1.35 10.3-.55h5.35q-3.15-.5-3.6-.9 1.3-.65.85-.75-3.85-.5-5.1-.9 0-.15.4-.4.55-.25.55-.4l7.15-1.1q-8.15-1.05-9.85-.15v-.5q.95-.15 5-2 3.25-1.4 5.25-1.65h-11.45q.45-1.45 2.25-2m18.2 7.3q.15 2.05.75 3.7.6 1.75 1.1 2.25v.5l-4-2.3q2.45 2.65 1.95 4.35-.95 0-2.5-.7-1.7-.75-1.2-.4.55.35 2.45 4.4 1.45 2.95 1.6 4.75v-3.5q2.95 1.9 5.15 4.95 2.3 3.25 2.05 5.25h.45q1.25-2.8 0-7.5-.95-1.3-1.2-1.95-.45-.8-.45-2 .25.25.9.8.65.45 1.15 1.85l.1.25q0 .05.25.05v-2.5q-.35-1.3-1.15-2.3-.8-1-.8-.75 0 .2-2.7-3.25-2.75-3.4-3.9-5.95m-58.7 64.3h-.3V-5q.1-.15.3-.55z"/><path fill="#FDAD35" d="M-72.6 23.95v.4l.95.85-.95-1.25m37.2-.35v-.15q-.004.1-.15.15h.15m13.6-34.2q-.05.25-.05.75 0 .45 1.25 5.25l.2.4q0 .3 1 .3 1.75 0 3.55-5.75l-.2-.2q-.65.8-2.1.8-.15 0-1.75-.6-.5 0-.7-.2l.55-2.95q-.35.6-.8 1.25-.3.7-.95 1.6v-.65m-70.35 2.55l-.1.15q1.6 4 3.2 4h.1q-.1-.75-.1-1.25-.1-1.9.15-4-.8 1.25-2.35 1.25-.9 0-.9-.15m47.2-25.15q-.55.2-.65.4-3.55 2.5-3.55 9.6v3.2q2.15-.5 4.7-2.75l11.85-.15q6.7 3.5 8.5 6.9.8 1.7 1.5 5.85.3-1 .8-1.3v-.65q.45-.7.5-1.1.15-.45.3-1.2.1-1 .1-1.35-.4.15-.75.35 0-1.8-.3-4.6-.15-2.75-.15-4.65v-.1L-24.6-31q-.05-.25-.2-.45-1.45-1.25-2.1-1.85-1.95-.9-4.2-1.3-2.1-.45-4.85-.45-6.5 0-9 1.85m-41.5 5.25q0 1.15.05 2.05 0 .2.1.45.1 1.05.3 2 .45 2 .45 2.1 0 .85-.05 2.1 1.8-2.95 4.4-3.95 1.75-.7 5.4-.75h.3l8.7 1.75q.9.5 2.85 1.5 1.95.75 4.45 5.05.2.25.35.55.1-2.4-.35-5.35-.45-3-2.3-7.05-2.05-3.95-4.45-5.3-2.55-1.6-5.35-1.6-1.8-.2-5.3.35-3.65.85-6.2 2.65-2.8 1.9-3.35 3-.45.4 0 .45z"/><path fill="#FDCB82" d="M-35.55 23.6l-.65.7v.05q-1.2 1.4-2.25 2.9-.25.05-.3.25-.95 1.2-2.9 2.8-1.7 1.5-3.05 2.3-2 1.2-3.35 2 0-.8.5-2v-1.2q-.95.3-2.35 1.45-1.4 1.45-3.15 1.2-.05.25-.15.35-.35 1.4 0 2.95-.35.25-.85.25-1.2 0-2.7-2.45l-.05-.1q-.25-.15-.45-.3-.7-.15-1.45-.45-1.9-1.05-2.6-2.6 0 .5-.25.5-.2 1.05-.2 3.45-.1-.25-.5-.25l-1.2-3.2q-.8.95-1.45 1.05-3.35-3.95-4.95-6-.65-.75-1.05-1.3l-.75-.75-.95-.85h-.2v3.8q.006-.25.2-.25 0 .35.15.95.35.7-.35 1.05v4.7q22.55 14.95 36.95-.2.45-.35.3-1.1v-9.7m18.5-50.8v.3q0 .3.05.45v1.55q.2 4.05-.75 7.25-.6 2-2.3 4.85l-.55 2.95q.2.2.7.2 1.6.6 1.75.6 1.45 0 2.1-.8l.2.2v-.25q.25-.7.35-1.25 1.7-6.05 1.7-9.75 0-.55-.2-3-.25-2-.25-3.3h-2.8m-74.1 2.05q-.003-.155-.1-.3-.45-1.5-.45-1.75h-2.8q0 1.3-.15 3.3-.3 2.45-.3 3 0 3.7 1.5 9.75.75 1.7 1.2 3.1v.15l.1-.15q0 .15.9.15 1.55 0 2.35-1.25.15-.15.2-.3l-.2-.2q.35-1 .55-1.8v-.1-.3-.95q-.1-.1 0-.35-.4-4.75-.85-5.3-1.4-.95-1.95-1.8v-3.45-1.45m37.9 42.5q-.6.05-1.3.05h-.1q.15.25.4.4.2.35.5.35.2-.2.3-.35.1-.25.2-.45m28.9-21.25q-.3.3-.8.6v.65h.55q.05-.45 0-.5.05-.15.25-.45v-.3m3.45-11.85q-.1-4.6-1.2-9v.1q0 1.9.15 4.65.3 2.8.3 4.6.35-.2.75-.35M-84.7-35.8l-.15.05q-2.6 2.45-2.6 6.25 0 1.5.85 3.5l.2.1q-.05-.9-.05-2.05-.45-.05 0-.45.55-1.1 3.35-3 2.55-1.8 6.2-2.65 3.5-.55 5.3-.35 2.8 0 5.35 1.6 2.4 1.35 4.45 5.3 1.85 4.05 2.3 7.05.45 2.95.35 5.35-.15-.3-.35-.55-2.5-4.3-4.45-5.05-1.95-1-2.85-1.5l-8.7-1.75-.3.3v-.3q-3.65.05-5.4.75-2.6 1-4.4 3.95 0 .15-.3.55-.1 1.5-.1 2.25l-.4.85q.85 1.45 1.5 6.45.25 3.5.45 8.75v.5q.65-1.2.65-1.95h.35q.5 2.45.5 2.95l.1.35q.45-.1 1.65-.85.3 8.9 1.1 11.1.8 0 1.8-2.8h.25q.25 1.05.25 3.8.95-1.15 2.15-1.6v2.2q.85.15 1.5 1.35.25.8.9 3.8h1.2q0-.7.7-1.7h.25q-.05 2.5 1.9 4.4 1.9 1.8 3.8 1.6.1-1.75 1.15-2.3.2.25.2 1.35l.1.25q.1.05.4.05 1.5 0 2-1.75.55-2.05.7-2.4h.7q0 .85.65 2.8.8 2.25 1.3 2.25.85 0 1.45-2.75.35-1.35.6-2.45.05-.25.15-.45-1.15-.1-2.1-.35-1.35-.4-1.35-.95 0-.2.35-.4.4-.2 1-.4 1.35-.15 2.9-.2.1-.2.2-.35l-.2-.2h.8l-.6.2v.35h.45q2.15 0 3.55.2.8.2 1.2.4.35.2.35.4 0 .55-1.55.95-.75.2-1.65.3v.5q.15 1.25.5 3.55 1.25-.2 1.75.2.3.1.85.7.1.2.4.5.25 0 .45-.65 1.3-.3 3.3-.8 3.1-1.05 4.3-2 1.1-.85 1.65-1.15.55-.35 2-.65 3.05-5.25 4-5.8v1.85l.45-.25q.4-1.75.55-2.4.4-1.45 1.35-1.45v.7q.5-1.65.7-2.45.5-1.2 1.5-1 0 .05.6.75.15.35.25.6l-.25-5.25q0-.9.95-1.95.75-1.2 1.2-1.15.05-1.85 1-3 0-1.3-.15-2.55-.3-1-.3-1.1 0-.95.45-1.25.55-.15 1.75-.7.1-.15.65-1.2h.15v-.05q-.7-4.15-1.5-5.85-1.8-3.4-8.5-6.9l-11.85.15Q-47-20.5-49.15-20v-3.2q0-7.1 3.55-9.6.1-.2.65-.4 2.5-1.85 9-1.85 2.75 0 4.85.45 2.25.4 4.2 1.3.65.6 2.1 1.85-.1-.5.2-.85-.7-1.65-1.5-3.2-1.95-3.7-3.4-6.6-1.2-2.5-2.2-4.4-2.25-4.35-2.9-5.75-2.35 1.45-6.35 3v-.15q-.003.103-.05.15-2.25.75-4.9 1.45-.85.25-1.75.6-1.35.3-2.55.7-.05 0-.2.15-2.65.5-4.85 1.1-6.05 1.5-9.05 2.4l6.25-7.95-14.3 9.55V-50l-7.45 10.95 1-7.3-5.9 10.55m47.1 48.05l-.35-.05q-2.7-4.15-5-5.05v.75q-.3-.15-.7-.55-.6.7-1.65 1.2-9.85 1.2-18.9 0-1.3-.5-1.75-1.3-.45.5-.85.65v-.75q-2.3.9-5.05 5.05l-.25.05-.25.2v-1.3q0-2.4 1.2-4.25 1.15-2.2 3.4-3 .65-.15 1.65-1.3.7-.7 2.3-.45 1.2.05 2.05-.7.75-.7 1.95-.7 1.1 0 1.75.1.1.1.8.5V4.9q-.35 0-1.1.35-.7.25-.95.25-1.55-.35-1.7-.35-.75 0-1.05.5-.55.8-1.25 1.05-.5-.95-.95-.95-.55 0-1.25.95-.25.3-.45.55.45.8 1.75 1.3 9.05 1.2 18.9 0 1.05-.5 1.65-1.2-.3-.3-.55-.65-.7-.95-1.3-.95-.5 0-1 .95-.65-.25-1.15-1.05-.4-.5-1.15-.5-.1 0-1.6.35-.25 0-.9-.25-.85-.35-1.35-.35V1.45q.15 0 .15-.1.7-.4.8-.5.55-.1 1.8-.1 1.1 0 1.85.7.9.75 2.05.7 1.6-.25 2.3.45 1.1 1.15 1.75 1.3 2.25.8 3.4 3 1.1 1.85 1.1 4.25v1.3l-.15-.2z"/><path fill="#630" d="M-91.7-60.35q-.05 1-1.45 8.8-.3 2.5-.6 5.05-.25 5 .55 9.75 1.05 6.85 1.75 9.55l.05.15q.55.6.4.9-.148.69-.15 1v4.9q.55.85 1.95 1.8.45.55.85 5.3-.1.25 0 .35v.95h.15v.1h.1l.15.05v.35h-.15l-.25-.1q-.2.8-.55 1.8l.2.2q-.05.15-.2.3-.25 2.1-.15 4 0 .5.1 1.25 0 2-.1 3.25-.4 1.85-1.8 3.1v2.2q.35-1 1.8-1.85l.15-.4q0 1.1-.3 2.3-.5 1.3-.5 2.05V9.4q.05.3.5 2.1.15-2.6 2.25-4.6v2.8q-.45.3-.5 1.85 0 1.5.35 2.6.4 1.05.4 1.6h.25q.05-1.1 1.05-2.95.05-.1.05-.3.1.3.2.45h.3q.25-.75.45-1.65l.35 1.5 2.4 1.65q2.75 4.1 5.7 8.05h.05l.35-1.5q-1.35-1.25-1.35-1.95h.5q.45.7 1 1.55.6.85 1.5 1.85v.05q.1.25.1.3l1.2 1.15.95 1.25.75.75q.4.55 1.05 1.3 1.6 2.05 4.95 6 .65-.1 1.45-1.05l1.2 3.2q.4 0 .5.25 0-2.4.2-3.45.25 0 .25-.5.7 1.55 2.6 2.6.75.3 1.45.45.2.15.45.3l.05.1q1.5 2.45 2.7 2.45.5 0 .85-.25-.35-1.55 0-2.95.1-.1.15-.35 1.75.25 3.15-1.2 1.4-1.15 2.35-1.45v1.2q-.5 1.2-.5 2 1.35-.8 3.35-2 1.35-.8 3.05-2.3 1.95-1.6 2.9-2.8.05-.2.3-.25 1.05-1.5 2.25-2.9v-.05l.65-.7q.146-.05.15-.15 2.45-2.75 3.5-4.55 1.3-2.75 2.05-3.65.75-.75 2.5-1.45.15.35 1.2 1.2.75.6.2 1.55h.5q1.4-2.9 2.5-5.1 2.05-4.55 2.05-5.6l-.2-2.6h1.05l.5.5h1.2q-.45-1.3-1.95-7.05-.2-.6-.3-1.3-1.25-4.8-1.25-5.25 0-.5.05-.75v.65q.65-.9.95-1.6.45-.65.8-1.25 1.7-2.85 2.3-4.85.95-3.2.75-7.25v-.25-.3-1q-.05-.15-.05-.45v-.3h.8q.4-3.3 1.6-6.6 1.6-4.6 1.6-7.8 0-2.55-.05-4.9-.55-10.45-3.6-17.4-3.6-7.7-4.6-9.05-3.1-4.2-8.85-4.75h-2.45q-6.55-4.45-11.6-4.2-5.25.15-9.95-.1-4.9-.3-11.95 1.85-7 1.95-14.25 7.1-7.3 5.15-9.3 8.45-1.95 3.25-2.05 4.25m6.85 24.6l.15-.05 5.9-10.55v-.4q.25 0 .25.25l-.25.15-1 7.3L-72.35-50v8.75l14.3-9.55-6.25 7.95q3-.9 9.05-2.4 2.2-.6 4.85-1.1.15-.15.2-.15 1.2-.4 2.55-.7.9-.35 1.75-.6 2.65-.7 4.9-1.45.047-.047.05-.15v.15q4-1.55 6.35-3 .65 1.4 2.9 5.75 1 1.9 2.2 4.4 1.45 2.9 3.4 6.6.8 1.55 1.5 3.2-.3.35-.2.85.15.2.2.45l2.5 6.25q1.1 4.4 1.2 9 0 .35-.1 1.35-.15.75-.3 1.2-.05.4-.5 1.1v.65q-.5.3-.8 1.3v.05h-.15q-.55 1.05-.65 1.2-1.2.55-1.75.7-.45.3-.45 1.25 0 .1.3 1.1.15 1.25.15 2.55.5-.3.8-.6v.3q-.2.3-.25.45.05.05 0 .5h-.55v-.65q-.95 1.15-1 3-.45-.05-1.2 1.15-.95 1.05-.95 1.95l.25 5.25q-.1-.25-.25-.6-.6-.7-.6-.75-1-.2-1.5 1-.2.8-.7 2.45v-.7q-.95 0-1.35 1.45-.15.65-.55 2.4l-.45.25V11.7q-.95.55-4 5.8-1.45.3-2 .65-.55.3-1.65 1.15-1.2.95-4.3 2-2 .5-3.3.8-.2.65-.45.65-.3-.3-.4-.5-.55-.6-.85-.7-.5-.4-1.75-.2-.35-2.3-.5-3.55v-.5q-.3.05-.6.05-.1.2-.2.45-.1.15-.3.35-.3 0-.5-.35-.25-.15-.4-.4-.7 0-1.35-.05-.1.2-.15.45-.25 1.1-.6 2.45-.6 2.75-1.45 2.75-.5 0-1.3-2.25-.65-1.95-.65-2.8h-.7q-.15.35-.7 2.4-.5 1.75-2 1.75-.3 0-.4-.05l-.1-.25q0-1.1-.2-1.35-1.05.55-1.15 2.3-1.9.2-3.8-1.6-1.95-1.9-1.9-4.4h-.25q-.7 1-.7 1.7h-1.2q-.65-3-.9-3.8-.65-1.2-1.5-1.35v-2.2q-1.2.45-2.15 1.6 0-2.75-.25-3.8h-.25q-1 2.8-1.8 2.8-.8-2.2-1.1-11.1-1.2.75-1.65.85l-.1-.35q0-.5-.5-2.95h-.35q0 .75-.65 1.95v-.5q-.2-5.25-.45-8.75-.65-5-1.5-6.45l.4-.85q0-.75.1-2.25.3-.4.3-.55.05-1.25.05-2.1 0-.1-.45-2.1-.2-.95-.3-2-.15-.25-.3-.55-.85-2-.85-3.5 0-3.8 2.6-6.25m-3.1 24.55V-10.15l-.4.05q.15-.7.4-1.1m.25 5.65h.3q-.2.4-.3.55v-.55m59.75-60.6q-.6-1.65-.75-3.7 1.15 2.55 3.9 5.95 2.7 3.45 2.7 3.25 0-.25.8.75t1.15 2.3v2.5q-.25 0-.25-.05l-.1-.25q-.5-1.4-1.15-1.85-.65-.55-.9-.8 0 1.2.45 2 .25.65 1.2 1.95 1.25 4.7 0 7.5h-.45q.25-2-2.05-5.25-2.2-3.05-5.15-4.95v3.5q-.15-1.8-1.6-4.75-1.9-4.05-2.45-4.4-.5-.35 1.2.4 1.55.7 2.5.7.5-1.7-1.95-4.35l4 2.3v-.5q-.5-.5-1.1-2.25m-18.25-11.2q-.35.15-.7.2-1.8.55-2.25 2h11.45q-2 .25-5.25 1.65-4.05 1.85-5 2v.5q1.7-.9 9.85.15l-7.15 1.1q0 .15-.55.4-.4.25-.4.4 1.25.4 5.1.9.45.1-.85.75.45.4 3.6.9h-5.35q-5.2-.8-10.3.55-5 1.45-9.6 4.7.85-1.55 3.25-4.3 2.3-2.8 5.55-3.65-4.85-.1-10.8 2-6.05 2.2-9 4.2 1.1-1.4 2.95-3 1.85-1.9 3.1-2.8 1.2-.95 4.05-2.45 2.95-1.45 4.25-1.55-2.25-.8-7.1 0 4.3-2.6 10.1-3.9 5.95-1.4 10.35-.55.35-.2.65-.3l.05.1M-55 14.7q-.1.15-.2.35h.2v-.35M-58.05.85q-.65-.1-1.75-.1-1.2 0-1.95.7-.85.75-2.05.7-1.6-.25-2.3.45-1 1.15-1.65 1.3-2.25.8-3.4 3-1.2 1.85-1.2 4.25v1.3l.25-.2.25-.05q2.75-4.15 5.05-5.05v.75q.4-.15.85-.65-.3-.55-.2-1.25-.1.7.2 1.25.2-.25.45-.55.7-.95 1.25-.95.45 0 .95.95.7-.25 1.25-1.05.3-.5 1.05-.5.15 0 1.7.35.25 0 .95-.25.75-.35 1.1-.35V1.35q-.7-.4-.8-.5m20.1 11.35l.35.05.15.2v-1.3q0-2.4-1.1-4.25-1.15-2.2-3.4-3-.65-.15-1.75-1.3-.7-.7-2.3-.45-1.15.05-2.05-.7-.75-.7-1.85-.7-1.25 0-1.8.1-.1.1-.8.5 0 .1-.15.1V4.9q.5 0 1.35.35.65.25.9.25 1.5-.35 1.6-.35.75 0 1.15.5.5.8 1.15 1.05.5-.95 1-.95.6 0 1.3.95.25.35.55.65.6-.85.7-1.95-.1 1.1-.7 1.95.4.4.7.55v-.75q2.3.9 5 5.05z"/><path fill="#A07001" d="M-87.95-10.85v-.35q-.25.4-.4 1.1l.4-.05v-.7m33.4 25.9h-.65q-1.55.05-2.9.2-.6.2-1 .4-.35.2-.35.4 0 .55 1.35.95.95.25 2.1.35.65.05 1.35.05h.1q.7 0 1.3-.05.3 0 .6-.05.9-.1 1.65-.3 1.55-.4 1.55-.95 0-.2-.35-.4-.4-.2-1.2-.4-1.4-.2-3.55-.2z"/><path fill="#C08703" d="M-78.55-46.5q0-.25-.25-.25v.4l.25-.15z"/></g><path fill="#FFF" d="M14.95-1.35Q8.33-3.538 6.35-.2V2q4.9.65 8.6-1.1v-2.25z" id="i"/><path d="M12-1.4q-.6-.55-1.45-.55T9.1-1.4q-.6.55-.6 1.3 0 .2.05.4v.05q.15.5.55.85.6.55 1.45.55T12 1.2q.45-.35.6-.85.05-.2.05-.45 0-.75-.65-1.3z" id="k"/><path fill="#FFF" d="M204.35 48.55q-1 .1-1 .85 0 .6.15.75.05 0 .35.25.15.1.5.1.45 0 .75-.4.25-.35.25-.7 0-1-1-.85z" id="l"/><path fill="#FFF" d="M-6.05-.2q-2-3.35-8.6-1.15V.9q3.7 1.75 8.6 1.1V-.2z" id="m"/><path d="M-8.9-1.4q-.6-.55-1.45-.55t-1.45.55q-.6.55-.6 1.3 0 .2.05.4v.05q.15.5.55.85.6.55 1.45.55t1.45-.55q.45-.35.6-.85.05-.2.05-.45 0-.75-.65-1.3z" id="o"/><path fill="#FFF" d="M204.35 48.55q-1 .1-1 .85 0 .6.15.75.05 0 .35.25.15.1.5.1.45 0 .75-.4.25-.35.25-.7 0-1-1-.85z" id="p"/><path fill="#FDAD35" d="M-61.4-5.2q-.1-1.65 0-1.75l-.65.6q-.5.9 0 2.6 1.9 1.35 3.25 2.95 1.1.75 4.15.75 1.75 0 4.1-1.85 2.3-2 1.95-3.35-.35-1.55-.6-1.6-.15 2.45-1.9 3.35-1.8.85-2.55 1.1-.65.4-1.1.4-.5.25-3.35-.65-3.15-1-3.3-2.55z" id="q"/><path fill="#321A01" d="M-49.85-35q-1.05 2 6.4 3.35 25.3-.7 16.95-3.35-9.45-2.95-23.35 0z" id="r"/><path fill="#321A01" d="M-67.4-30.75q7.45-1.35 6.4-3.35-13.9-2.95-23.35 0-8.35 2.65 16.95 3.35z" id="s"/><g id="u" fill="#FFF"><path fill-opacity=".341" d="M92.9 116.55q-.1.35-.1.8 0 1.3.85 2.25.55.65 1.3.85.4.05.75.05h.3l4.05-6.35H95.7q-1.2 0-2.05.95-.6.6-.75 1.45m9.15 3.95q1 0 1.75-.5l.4-.4q.75-.8.85-1.85v-.4q0-1.35-.85-2.25-.7-.75-1.6-.9-.25-.05-.55-.05h-1.55l-3.95 6.35h5.5z"/><path d="M100.5 114.15h-.45L96 120.5h.55l3.95-6.35z"/></g><g id="w" fill="#FFF"><path fill-opacity=".341" d="M114.65 114.15q-1.2 0-2.05.95-.85.9-.85 2.25 0 .3.05.6.15.95.8 1.65.4.45.95.7.55.2 1.1.2h2.05l2.05-6.35h-4.1m8.5 5.45q.65-.7.8-1.55.05-.35.05-.7 0-1.35-.85-2.25-.9-.95-2.15-.95h-1.75L118 120.5h3.4q.6-.1 1.05-.35.4-.2.7-.55z"/><path d="M119.25 114.15h-.5l-2.05 6.35h1.3l1.25-6.35z"/></g><path id="f" stroke="#999" stroke-linejoin="round" stroke-linecap="round" fill="none" d="M-72.8 28.2v-.025m-6-74.525v-.4m6 74.925q.006-.275.2-.275 0 .35.15.95.35.7-.35 1.05"/><path id="g" stroke="#F96" stroke-linejoin="round" stroke-linecap="round" fill="none" d="M-17.05-26.95v-.25m.05 1.75v-1q-.05-.15-.05-.45"/><path id="h" stroke="#960" stroke-linejoin="round" stroke-linecap="round" fill="none" d="M-43.65 7.35q-.6.7-1.65 1.2-9.85 1.2-18.9 0-1.3-.5-1.75-1.3-.3-.55-.2-1.25m23.2-.6q-.1 1.1-.7 1.95"/><path id="j" stroke="#000" stroke-linejoin="round" stroke-linecap="round" fill="none" d="M6.35-.2q1.98-3.338 8.6-1.15V.9"/><path id="n" stroke="#000" stroke-linejoin="round" stroke-linecap="round" fill="none" d="M-6.05-.2q-2-3.35-8.6-1.15V.9"/><path id="t" stroke="#666" stroke-linejoin="round" stroke-linecap="round" fill="none" d="M-60.7-23.25q5.6-10.75 13.1 0m23.9 1.75l5.8-16.7"/><path id="v" stroke="#666" stroke-linejoin="round" stroke-linecap="round" fill="none" d="M-60.627-19.405v-1.148q0-3.873-1.66-6.455-1.367-2.152-3.124-2.583-.49-.144-1.075-.144h-3.027m-14.84 6.886q-.195 1.004-.195 2.295m.196-2.295l-4.883-16.785m19.72 9.9h-9.371q-2.343 0-4.003 2.725-1.172 1.72-1.464 4.16"/><path id="x" stroke="#666" stroke-linejoin="round" stroke-linecap="round" fill="none" d="M-23.723-18.544q.098-1.005.098-2.01 0-3.872-1.66-6.454-1.757-2.726-4.198-2.726H-32.9m-14.645 9.18q0 .862.098 1.723m1.562-8.178q-1.66 2.582-1.66 6.455m5.663-9.18q-2.343 0-4.003 2.725m12.01-2.726h-8.007m8.982 0h-.976"/></defs><use xlink:href="#a" transform="translate(150.95 82.05)"/><use xlink:href="#b" transform="translate(150.95 82.05)"/><use xlink:href="#c" transform="translate(150.95 82.05)"/><use xlink:href="#d" transform="translate(150.95 82.05)"/><g transform="translate(150.95 82.05)"><use xlink:href="#e"/><use xlink:href="#f"/><use xlink:href="#g"/><use xlink:href="#h"/></g><g transform="matrix(1.6015 0 0 1.6015 96.5 58.9)"><use xlink:href="#i"/><use xlink:href="#j"/></g><use xlink:href="#k" transform="matrix(1.6015 0 0 1.6015 96.5 58.9)"/><use xlink:href="#l" transform="matrix(1.02124 0 0 1.02124 -94.317 7.092)"/><g transform="matrix(1.6015 0 0 1.6015 96.5 58.9)"><use xlink:href="#m"/><use xlink:href="#n"/></g><use xlink:href="#o" transform="matrix(1.6015 0 0 1.6015 96.5 58.9)"/><use xlink:href="#p" transform="matrix(1.02124 0 0 1.02124 -127.788 7.092)"/><use xlink:href="#q" transform="translate(150.95 82.05)"/><g transform="translate(150.95 82.05)"><use xlink:href="#r"/></g><g transform="translate(150.95 82.05)"><use xlink:href="#s"/></g><g transform="translate(150.95 82.05)"><use xlink:href="#t"/></g><g transform="matrix(1.95262 0 0 2.86917 -114.8 -275.2)"><use xlink:href="#u"/><use xlink:href="#v" transform="matrix(.51213 0 0 .34853 136.1 124.5)"/></g><g transform="matrix(1.95262 0 0 2.86917 -114.8 -275.2)"><use xlink:href="#w"/><use xlink:href="#x" transform="matrix(.51213 0 0 .34853 136.1 124.5)"/></g></svg>