<svg xmlns="http://www.w3.org/2000/svg" xmlns:xlink="http://www.w3.org/1999/xlink" preserveAspectRatio="none" width="241" height="173" viewBox="0 0 241 173"><defs><g id="a"><path fill="#FBA31E" d="M208.95 250.4l8.35-1.75-5.75-1.3-.35.5-2.25 2.55m-52.9 14.55q-.15 2.1-.8 3.95l13.45 4.65 1.15.35.2-.1q21.45-6.4 36.4-14.55l20.3 2.3 9.75-11.15q-4.3 1.6-6.85 3.3-2.027 1.305-3.7 2.9-.762.718-1.45 1.5 1.45 2.4-14.45.15-2.85-.45-6.25-1-28.05 13.5-33.7 7.3-5.65 3.9-14.05.4m-46.4 3.6l-.1.05q-1.118 5.172-3.25 9.05-5.264 9.673-16.75 11.35l.15 1 .05.1q11.5 3 19.55-.95l.35-20.6m26.55-37.1v-.4q0-1.25.25-2.55l-6.95-1.8q-1.686-.583-3.25-1.25-2.194-.92-4.15-2l3.4 8.9-12.2-.9 2.6 1.7 12.2.8q-1.072-2.273-1.85-4.8-.13-.423-.25-.85l3.5 1.35 6.7 1.8m15.05-22.95l.4-2.7q-4.5 4.3-7.5 5.35 3.75.15 7.1-2.65m-1.6-5.75l-1.25.65 2.65 1.55v-.65l-1.4-1.55m-.25-12.45l-.35-1.55-6 .8H143l.05 1.55 6.35-.8m-12.1 30.9q0 .5.55.8l1.45.35 1.4-.35q.6-.3.6-.8 0-.4-.6-.75l-1.4-.3-1.45.3q-.55.35-.55.75m.55-24.75l-.4.25-.25.05-.05.05q-.15 1.5-1.8 3.45v.05l-.15.15q-2.326 2.71-4.6 3.85-2.2 1.172-4.35.85-3.178-.423-6.25-4 3.032 4.248 6.25 5.1 2.134.558 4.35-.4 2.546-1.053 5.2-4.1l.15-.2q1.6-1.95 1.75-3.5h.1l.2-.15q.5-.3 1.15-.3l.4-.05 2 .2v-.1l-1-.95q-.7-.4-1.55-.4l-1.15.15m-10.25-13.5l.4-1.45.15-1.45-.55 2.9m-7.1 6.3l-.2 1.55 5.2.25h1.7l1.5.2h.3l1.6.05q5.542.106 10.05-.2.8-3.7-.3-5.65l-.2 4.25q-4.024.17-9.55-.05-.93-.05-1.9-.1-1.05-3.7-.7-8.05l-.4 1.45q-.6 3.45-.3 6.5l-6.8-.2z"/><path fill="#FED69A" d="M169.85 273.9l-1.15-.35.7.5.45-.15m-11.45-23.4l1.3-.35q-3.5-1.25-6.4-3.85-1 1.5-2.6 4.2 5.327 7.637 5.35 13.7.017.387 0 .75 8.4 3.5 14.05-.4 5.65 6.2 33.7-7.3 3.4.55 6.25 1 15.9 2.25 14.45-.15.688-.782 1.45-1.5 1.673-1.595 3.7-2.9 2.55-1.7 6.85-3.3l3.6-4.2q-8.5-4.728-14.15.35-.564.496-1.1 1.1l-1.8 2.35-5.75-1.35-8.35 1.75 2.25-2.55.35-.5q4.75-6.3 2.65-11.3l-10.25 13.5-1.3 1.05-32.8 7.15-.3-.25q-1.35.1-2.85.1h-.2q-4.724-.026-8.1-1.2l-.9-.35h-.1q-2.4-1.15-2.4-2.55 0-1.75 3.4-3m-48.85 18.1l.4-2v-.05q-8.2-14.05-21.35-7.15-1.086 8.083-.4 17.9.393 5.58 1.35 11.7 11.486-1.677 16.75-11.35 2.132-3.878 3.25-9.05m.4-2l-.4 2 .1-.05.3-1.95m26.35-33.3l-.1-1.85-6.7-1.8-3.5-1.35q.12.427.25.85.778 2.527 1.85 4.8l-12.2-.8q3.494 2.144 6.4 3.55 3.122 1.47 5.6 2.1 1.455.414 2.7.5 4.42.405 6.2-2.75l-.25-.85-.25-2.4m14.7-31.85l-1.35 1.3 1.4 1.55-.05-2.85m-9.35-3.7l-.1-.1v.1h.1m-2.5-.15q-.65 0-1.15.3l-.2.15h-.1q-.15 1.55-1.75 3.5l-.15.2q-2.654 3.047-5.2 4.1-2.216.958-4.35.4-3.218-.852-6.25-5.1l-.85-1q-.4 9.25 1.5 18l1.45 5.3q1.956 1.08 4.15 2 1.564.667 3.25 1.25l6.95 1.8.6.15q3.6.7 5.5-.95 3.588-3.987 5.8-8.95.574-1.273 1.05-2.6l1.3-4.35.55-3.3q-3.35 2.8-7.1 2.65 3-1.05 7.5-5.35-2.65-.2-4-1.05l-1.45-.95-7.05-6.2m3.05 18.25q.15.75 1.2.65l-1.55 1.45-.65.3h-3.7l-3.15-1.75 3.15-.5 4.7-.15m-4.35 6.15q-.55-.3-.55-.8 0-.4.55-.75l1.45-.3 1.4.3q.6.35.6.75 0 .5-.6.8l-1.4.35-1.45-.35m1.15-47.6l.8 3.2q.65 3.65.55 7.85 1.1 1.95.3 5.65-4.508.306-10.05.2l-1.6-.05.35.05q.62.143 1.25.3 2.006.634 4.1 1.7 1.95 1 2.35 2.45l.15-.2.25-.15q.7-.45 1.55-.45.95 0 1.55.45.6.35.65.85v-.05l.1-.95v-.15q.25-1.2 1.4-2 2.5-1.8 4.8-2h.1l2.05.2-.25-1-6.35.8-.05-1.55h.05v-1.6q-.35-6.1-4.05-13.55m-18.7 16.4l-.35 1.95q1.89-1.07 3.9-1.5.82-.143 1.65-.2l-5.2-.25z"/><path fill="#C9C" d="M173.7 250.15l1.25.35q.148.054.3.1 1.808-1.615 3.5-3.3-2.365 1.852-5.05 2.85m5.6-31.15q.95.75 1.65 1.85l.2.3 1.9 3 .7 1.35v.35q.8 2.35.9 5l-.05 2.8q-.55 5.75-4.5 10.1l.95 1.15q18.6-19.873 18.6-45.9 0-4.75-.65-9.3-4.75 7.4-12.9 13.8-8.218 6.525-17.85 10.35 6.4.5 11.05 5.15M0 199q0 14.6 5.85 27.3v-54.55Q0 184.4 0 199m88.6 60.4q.637-4.495 1.85-7.75l-49.1 11.3q20.8 12.185 46.85 14.35-.686-9.817.4-17.9m21.35 7.15v.05l-.3 1.95.8-1.5-.5-.5m35.4-30.75q1.1.75 2.2 1.65-.85-2.75-.9-5.75-5.3.3-10.45-.65 4.6 1.5 9.15 4.75m3.8-14.3q.3-.6.7-1.15.704-1.04 1.55-2-1.123.162-2.25.3-.082 1.457 0 2.85M29.2 143.3q-1.6 1.3-3.15 2.6l44.9 9q3.7-15.5 18.75-27.4 5.3-4.2 11.15-7.25h-1q-41.4 0-70.65 23.05z"/><path fill="#ABEEFE" d="M181.15 221.15l.95 2 .95 1-1.9-3m-1.7 5.85l-.25.2q-.65.5-1.9.65.65.2 1.1 1.35l.3 1.5v.15l.2.1q2.45.1 4 1.5l.5.5 1.25-2.1q-.1-2.65-.9-5l-.6.65q-.75.5-1.85.5-.7 0-1.15-.4l-.7.4m-15.35-13.05l-.4.15.3.05.1-.2m-3.4 11.4l-.95.25-.35.4v.2l-.2.65-.1.1q.6.2.6.85l-.15.4h.3q.9-.05 1.05.65l.45.3.9 1q.1-1.1 1.15-.85 1 .15 1.2.85l.45-.1q.8.1 1.05.45l.65.05q1.35.3 1.5 1.25.5.05.65.65.95.1.95 1.1l-.15.5v.45l-.15.3q1.65.75 3.2 1.1l.85.25 2.2.25-.25-.1-1.5-.45q-.75-.35-.75-1.05 0-.65.3-1l.65-1.35q.2-.75 2-1.25l-.05-.15.2-.9-.6-.85q-.6-.95-.6-1.5l.1-.85q-1.05-.25-1.6-.85-.5-.5-.5-1.3 0-1.6 1.85-3.5.2-.3.9-.85l.6-.85q.15-1.65 1-1.6 1 .35 1.75 1-4.65-4.65-11.05-5.15-.765-.05-1.55-.05l-.75.05.45.15q.293.154.55.35.632.412 1.15 1 .8.9.8 1.3l-.65 1.5-.65 1.1.5.75q.6.8.6 1.3t-.95 1.35l-.3.3-.1.5q-.4.85-1 .85h-.25q-.35.65-1 .65l-.5-.15-.5.15-.1.15-2.3.35-1-.1m1.05-10.85v-.05q-2.5.7-4.7 2.15-.71.452-1.4.95-.853.724-1.65 1.55-1.35 1.35-2.35 2.9l6.05 5.2.05-.05-.35-.45-.05-.5q0-.55.25-.75l-.25-.5-.3-1v-.1l-.3-.35-.05-.2-.5-.5-.3-.7v-.8q0-.95.35-1.3 0-.85.3-1.35v-.5q0-.55.3-.8v-.05l.2-.35q.2-.7.95-.65.75-.7 2.55-1.35l1.2-.45z"/><path fill="#690" d="M175.55 236.3l.25.1q1.8.8 1.8 2.65 0 .85-1.3 2.45-1.25 1.55-1.25 2.25l.2.9.2.25-.15.25.15.55q.3.55 1.1.55 1.35 0 4.5-4.1 3.1-4.3 3.1-6.6l-.1-.7.1-.15-.1-.7q-4 2.3-8.5 2.2v.1M159.1 230l.25.55-.15.8q-.3.2-.3.95l.2 1.05.1.15-.2 1 .05.85.2.5.15.8q.2.65.7.7l.4.5.05.45.35.4.2.45.4.7.85.8.25.4 1.25 1.45.25.65q.5 1 1.1 1.25l.05.3q.45.8 1.1.8l.75-.35.25-.75q0-.85-.6-1.2l-.15-.45.25-.6q0-1.3-.8-1.75-.1-.5-.45-.7l.45-.4.15-.65v-.25l-.1-.4.45-.35.5-.6q1.35-.05 1.5-1.05l.8-.95q-5.1-1.75-10.6-6.2v.35l.15.5.2.3m-33.5-33.25l.65.1v-.7q-.303.198-.7.3.03.173.05.3m.65-4.45q-.873.133-1.75.35.74 1.768 1.05 3.8.397-.102.7-.3v-3.85m-27.05-8.5q2.836-9.616 8.85-14.15l-94.7-17.45v61.95q37.8-17.85 62.85-25.35 13.29-3.954 23-5z"/><path fill="#9C0" d="M179.3 219q-.75-.65-1.75-1-.85-.05-1 1.6l-.6.85q-.7.55-.9.85-1.85 1.9-1.85 3.5 0 .8.5 1.3.55.6 1.6.85l-.1.85q0 .55.6 1.5l.6.85-.2.9.05.15q-1.8.5-2 1.25l-.65 1.35q-.3.35-.3 1 0 .7.75 1.05l1.5.45v-.1q4.5.1 8.5-2.2l-.65-1.05-.5-.5q-1.55-1.4-4-1.5l-.2-.1v-.15l-.3-1.5q-.45-1.15-1.1-1.35 1.25-.15 1.9-.65l.25-.2.7-.4q.45.4 1.15.4 1.1 0 1.85-.5l.6-.65v-.35l-.7-1.35-.95-1-.95-2-.2-.3q-.7-1.1-1.65-1.85m-17.55-4.55v.05l-1.2.45q-1.8.65-2.55 1.35-.75-.05-.95.65l-.2.35v.05q-.3.25-.3.8v.5q-.3.5-.3 1.35-.35.35-.35 1.3v.8l.3.7.5.5.05.2.3.35v.1l.3 1 .25.5q-.25.2-.25.75l.05.5.35.45-.05.05q-.15.25-.15.6v.05l.15.45q.3.55.9.55h.15q5.5 4.45 10.6 6.2l.2-.25.15-.3v-.45l.15-.5q0-1-.95-1.1-.15-.6-.65-.65-.15-.95-1.5-1.25l-.65-.05q-.25-.35-1.05-.45l-.45.1q-.2-.7-1.2-.85-1.05-.25-1.15.85l-.9-1-.45-.3q-.15-.7-1.05-.65h-.3l.15-.4q0-.65-.6-.85l.1-.1.2-.65v-.2l.35-.4.95-.25 1 .1 2.3-.35.1-.15.5-.15.5.15q.65 0 1-.65h.25q.6 0 1-.85l.1-.5.3-.3q.95-.85.95-1.35 0-.5-.6-1.3l-.5-.75.65-1.1.65-1.5q0-.4-.8-1.3-.518-.588-1.15-1-.257-.196-.55-.35l-.45-.15-1.85.1-.1.2-.3-.05-.6-.25q-1.1-.25-1.35.6z"/><path fill="#C90" d="M5.85 270.75v.35h.05l-.05-.35m124.75-67.3v-2q-.84.35-1.8.35-1.35 0-2.55-.7v2.45q2.138.85 4.35-.1m19.25 16.9q-.4.55-.7 1.15-2.5 4.4-2.5 9.8v.4q.05 3 .9 5.75 1.4 4.45 4.95 8.05l.8.8q2.9 2.6 6.4 3.85l-1.3.35q-3.4 1.25-3.4 3 0 1.4 2.4 2.55h.1l5.9.7 4.45-.75h.05q.74-.247 1.4-.5 1.917-.71 3.25-1.45 1.75-1 1.75-2.05 0-.247-.1-.5-.285-.592-1.3-1.1l.8-.25q2.685-.998 5.05-2.85 1.053-.803 2.05-1.8l.45-.35-.2-.25-.95-1.15-.7.8q-4 3.95-9.2 4.95l-3.5.25-3.5-.25q-1.95-.4-3.75-1.15-2.8-1.25-5.15-3.5l-.3-.3q-2.1-2.1-3.4-4.55-1.9-3.7-1.9-8.2v-.3q.05-3.1 1.05-5.75.7-2 1.9-3.75 1-1.55 2.35-2.9.797-.826 1.65-1.55.69-.498 1.4-.95l-1.65-1.85-2.9 2.4q-.582.582-1.1 1.2-.846.96-1.55 2m-20.15-23.3l.9-.1v-1.85q-.3 1.1-3 1.95h2.1m-3.45-.9v.7l.9.1.45.1q2.7-.85 3-1.95v-2.5q-2.26-.552-4.35-.3v3.85q.717-.4.95-1.1-.233.7-.95 1.1M26.05 145.9l-20.2-4.05V270.75l8.9-11.3-1.4.4V152.2l94.7 17.45q1.185-.902 2.5-1.6 6.39-3.467 15.9-2.05l-55.5-11.1-44.9-9z"/><path fill="#033" d="M140.8 270.9q.065.088.1.15 3.48 4.612 7.65 5.25l.25.1q2.25-1.6 3.75-3.3-6.04 1.915-11.55-2.05-.1-.077-.2-.15m-2-28.6l-.6-2.3q-2.54 4.357-9.55 2.85-4.83-1.067-11.85-5-3.132-1.73-6.7-4.05l-10.45 7.7-.55.4q15.4 3.15 17.7-3.5 5.15 3.346 9.15 5.05 9.8 4.24 12.85-1.15m-19.4 34.1q-2.28-.666-4.5-2.3 1.113 1.516 2.3 2.6 5.61 5.182 12.95 1.1 3.458-2.256 5.35-4.95 1.4-1.918 2-4.05-3.132 3.258-6.15 5.2-6.245 4.078-11.95 2.4m16.8-44.95l.1 1.85.75 2.35 8.3.15q-4.55-3.25-9.15-4.75v.4z"/><path fill="#FDBB24" d="M157.5 256.05l.9.35q3.376 1.174 8.1 1.2h.2q1.5 0 2.85-.1 3.05-.25 5.4-1.1 3.45-1.2 3.45-2.9 0-1.675-3.15-2.9-.152-.046-.3-.1l-1.25-.35-.8.25q1.015.508 1.3 1.1.1.253.1.5 0 1.05-1.75 2.05-1.333.74-3.25 1.45-.66.253-1.4.5h-.05l-4.45.75-5.9-.7z"/><path fill="#FDBE2D" d="M99.1 241.9l.55-.4-84.9 17.95-8.9 11.3.05.35 35.45-8.15 49.1-11.3q1.98-5.212 5.45-7.3l3.2-2.45z"/><path fill="#3CF" d="M157.55 227.85v-.05q0-.35.15-.6l-6.05-5.2q-1.2 1.75-1.9 3.75-1 2.65-1.05 5.75v.3q0 4.5 1.9 8.2 1.3 2.45 3.4 4.55l.3.3q2.35 2.25 5.15 3.5 1.8.75 3.75 1.15l3.5.25 3.5-.25q5.2-1 9.2-4.95l.7-.8q3.95-4.35 4.5-10.1l.05-2.8-1.25 2.1.65 1.05.1.7-.1.15.1.7q0 2.3-3.1 6.6-3.15 4.1-4.5 4.1-.8 0-1.1-.55l-.15-.55.15-.25-.2-.25-.2-.9q0-.7 1.25-2.25 1.3-1.6 1.3-2.45 0-1.85-1.8-2.65l-2.2-.25-.85-.25q-1.55-.35-3.2-1.1l-.2.25-.8.95q-.15 1-1.5 1.05l-.5.6-.45.35.1.4v.25l-.15.65-.45.4q.35.2.45.7.8.45.8 1.75l-.25.6.15.45q.6.35.6 1.2l-.25.75-.75.35q-.65 0-1.1-.8l-.05-.3q-.6-.25-1.1-1.25l-.25-.65-1.25-1.45-.25-.4-.85-.8-.4-.7-.2-.45-.35-.4-.05-.45-.4-.5q-.5-.05-.7-.7l-.15-.8-.2-.5-.05-.85.2-1-.1-.15-.2-1.05q0-.75.3-.95l.15-.8-.25-.55-.2-.3-.15-.5v-.35h-.15q-.6 0-.9-.55l-.15-.45z"/><path fill="#039" d="M136.55 235.7l.5-.05-.75-2.35.25 2.4m-5.95 3.6q-1.245-.086-2.7-.5-2.478-.63-5.6-2.1-2.906-1.406-6.4-3.55l-2.6-1.7-3.2 2.35q3.568 2.32 6.7 4.05 7.02 3.933 11.85 5 7.01 1.507 9.55-2.85l.6 2.3q-3.05 5.39-12.85 1.15-4-1.704-9.15-5.05-2.3 6.65-17.7 3.5l-3.2 2.45q-3.47 2.088-5.45 7.3-1.213 3.255-1.85 7.75 13.15-6.9 21.35 7.15l.5.5-.8 1.5-.35 20.6q23.35 8.15 39.55-1.85l-.3-10.85.25-.05-.25-.1q-4.17-.638-7.65-5.25-.035-.062-.1-.15.1.073.2.15 5.51 3.965 11.55 2.05 1.8-2 2.7-4.2.65-1.85.8-3.95.017-.363 0-.75-.023-6.063-5.35-13.7 1.6-2.7 2.6-4.2l-.8-.8q-3.55-3.6-4.95-8.05-1.1-.9-2.2-1.65l-8.3-.15-.5.05.25.85q-1.78 3.155-6.2 2.75m-15.7 34.8q2.22 1.634 4.5 2.3 5.705 1.678 11.95-2.4 3.018-1.942 6.15-5.2-.6 2.132-2 4.05-1.892 2.694-5.35 4.95-7.34 4.082-12.95-1.1-1.187-1.084-2.3-2.6z"/><path fill="#900" d="M135.35 200.3l-.4-.25q-2.21 2.527-4.35 3.4-2.212.95-4.35.1-2.63-.965-5.15-4.6l-.1-.15q-1.25 1.35-2.6.15l.75 1.2.85 1q3.072 3.577 6.25 4 2.15.322 4.35-.85 2.274-1.14 4.6-3.85l.15-.15m17.9-2.85q.15-1.75-1.05-1.25-2.55 5.95-5.2 6.25l1.4.95 1.25-.65 1.35-1.3q1.15-1.5 2.25-3.9v-.1z"/><path fill="#E8D1E9" d="M135.35 200.25l-.4-.2.4.25v-.05m6.35-3.2l-.35.05-.15-.7q0 .65-.65.3l1 .95.1.1.65.7-.1-.3-.5-1.1m-6.25-2.3l-.15-.15q-.664 1.52-1.6 2h.1v.15q0 1.5-.7 2.65l-.75.85-1 .85q-.362.22-.75.35v2q2.14-.873 4.35-3.4 2.85-3.35.5-5.3m-4.85 2.2h.2q1.8-.65 2.15-2.15-.35 1.5-2.15 2.15l1.8-.15.75-.1h.1l.15-.05q.05-.023.1-.05.936-.48 1.6-2l-.8-.5q-2.01-1.036-3.9-1.5v4.35m68.4-7.25q-3.6-26.75-28.6-46.4-28.85-22.75-69.55-23.05Q95 123.3 89.7 127.5q-15.05 11.9-18.75 27.4l55.5 11.1q.11.036.2.05 7.8-.2 13.35 3.5l.45.15q3.9.85 7.4 4.95 3.85 6.05 4.05 13.55l-2.85.55.35 1.55.25 1q2.55.8 4.7 3.65l-1.1 2.5v.1q-1.1 2.4-2.25 3.9l.05 2.85v.65q.5.2 1 .45l-.4.4-.4 2.7-.55 3.3-1.3 4.35q-.18 1.27-.25 2.5 1.127-.138 2.25-.3.518-.618 1.1-1.2l2.9-2.4 1.65 1.85q2.2-1.45 4.7-2.15.25-.85 1.35-.6l.6.25.4-.15 1.85-.1.75-.05q.785 0 1.55.05 9.632-3.825 17.85-10.35 8.15-6.4 12.9-13.8z"/><path d="M149.15 221.5q-.082-1.393 0-2.85.07-1.23.25-2.5-.476 1.327-1.05 2.6-2.212 4.963-5.8 8.95-1.9 1.65-5.5.95l-.6-.15q-.25 1.3-.25 2.55 5.15.95 10.45.65v-.4q0-5.4 2.5-9.8m-4.3-25.2q.05.8.65 1.35l.7.6 1 .2 1-.2 1.1-.95.4-1.05v-.15l-.65.1v.1l-.25.65q-.3.5-.9.5-.7 0-1-.55l-.05-.5h-1.7l-.3-.1m-17.25.75l-.45-.1q.15 1 .85 1.8l.95.65 1.25.25 1.3-.25.95-.65.4-.5q.45-.65.5-1.35v-.2l-.75.1v.15l-.4.8q-.35.65-1.05.65-.306 0-.55-.1-.513-.142-.75-.65l-.15-.6h-2.1m-17.05-29q-1.315.698-2.5 1.6-6.014 4.534-8.85 14.15-1.394 4.863-2 11-.6 5.75-.45 12.6 1.2 6.35-3.15 18.4 10.5 4.15 19.7 5.65l12.2.9-3.4-8.9-1.45-5.3q-1.9-8.75-1.5-18l-.75-1.2-.5-.65-1.65-2.85 3.1-2.4q.1-.1.25-.15l.35-.15.35-1.95.2-1.55 6.8.2q-.3-3.05.3-6.5V177l-4.1 3.9 3.3-8.9.35 2.35 1.85-2.8 1.2 3.45 1.75-2.25.25 10.45-3-5.7-1.2 4q-.35 4.35.7 8.05.97.05 1.9.1 5.526.22 9.55.05l.2-4.25q.1-4.2-.55-7.85l-.8-3.2q3.7 7.45 4.05 13.55v1.6l6-.8 2.85-.55q-.2-7.5-4.05-13.55-3.5-4.1-7.4-4.95l-.45-.15q-5.55-3.7-13.35-3.5-.09-.014-.2-.05-9.51-1.417-15.9 2.05m2.1 8q-.805 4.05-1.1 7.8-.294 3.504-.15 6.75l-1.95-7.4-3.3 12.85-.5-10.65-2.6 6.7 1.9-15.35.5 4.95 1.5-6.45.7 4.75 2-6.95v7.15l3-4.15z"/><path fill="#C00" d="M149.65 191.3l-2.05-.2q.948.117.8 1.2h.15q2.1.6 3.95 3.1l-.3.8q1.2-.5 1.05 1.25l1.1-2.5q-2.15-2.85-4.7-3.65m-30.3 1.75l-3.1 2.4 1.65 2.85.5.65q1.35 1.2 2.6-.15l-1.75-2.9.35-.3q1.5-1.4 3.15-2.2-2.75 1.05-3.4-.35z"/><path fill="#FEEACD" d="M141.65 196.45l.05.6.5 1.1.1.3 4.7 4q2.65-.3 5.2-6.25l.3-.8q-1.85-2.5-3.95-3.1h-.15q-2.55-.6-5.55 1.5-1.4 1-1.2 2.65m1.25-.35l1.95.2.3.1q2.15-.7 2.25-1.5-.1.8-2.25 1.5h1.7l.85-.1q1.35-.5 1.65-1.6-.3 1.1-1.65 1.6l1.35-.1.65-.1.15-.05q.85-.35 1.35-1.6-.5 1.25-1.35 1.6h.15v.15q0 1.1-.5 2.05l-1.35 1.3q-.95.55-2 .55-1.1 0-2-.55l-.8-.65-.45-.45-.1-.2-.1-.1q-.5-.9-.5-1.95v-.15l.6.05q1.7-.2 2.1-1.3-.4 1.1-2.1 1.3h.1z"/><path fill="#FFF" d="M148.8 196.95l.25-.65v-.1l-1.35.1-.85.1.05.5q.3.55 1 .55.6 0 .9-.5m-3.95-.65l-1.95-.2h-.1l-.6-.05v.15q0 1.05.5 1.95l.1.1.1.2.45.45.8.65q.9.55 2 .55 1.05 0 2-.55l1.35-1.3q.5-.95.5-2.05v-.15h-.15l-.15.05v.15l-.4 1.05-1.1.95-1 .2-1-.2-.7-.6q-.6-.55-.65-1.35m-3.2 1.45h-.1l-2-.2-.4.05 7.05 6.2 1.45.95q1.35.85 4 1.05l.4-.4q-.5-.25-1-.45l-2.65-1.55-1.4-.95-4.7-4-.65-.7m1.75 18.75q-1.05.1-1.2-.65l-4.7.15-3.15.5 3.15 1.75h3.7l.65-.3 1.55-1.45m-12.8-19.55l-.9.1.15.6q.237.508.75.65.244.1.55.1.7 0 1.05-.65l.4-.8v-.15l-1.8.15h-.2m-6.8-.35v.15q0 1.4.65 2.55l.05.1 1.75 1.7q1.2.7 2.55.7.96 0 1.8-.35.388-.13.75-.35l1-.85.75-.85q.7-1.15.7-2.65v-.15h-.1q-.05.027-.1.05l-.15.05h-.1v.2q-.05.7-.5 1.35l-.4.5-.95.65-1.3.25-1.25-.25-.95-.65q-.7-.8-.85-1.8l-.9-.1-.65-.1-.85-.05h-.25l-.7-.1m3.8-13.65l.55-2.9-.15 1.45 1.2-4 3 5.7-.25-10.45-1.75 2.25-1.2-3.45-1.85 2.8-.35-2.35-3.3 8.9 4.1-3.9v5.95m-16.05.9q.295-3.75 1.1-7.8l-3 4.15v-7.15l-2 6.95-.7-4.75-1.5 6.45-.5-4.95-1.9 15.35 2.6-6.7.5 10.65 3.3-12.85 1.95 7.4q-.144-3.246.15-6.75z"/><path fill="#9ADB02" d="M124.5 196.7h.25l.85.05q-.02-.127-.05-.3-.46.17-1.05.25m-4.9-1.1l-.35.3 1.75 2.9.1.15q2.52 3.635 5.15 4.6v-2.45l-1.75-1.7-.05-.1q-.65-1.15-.65-2.55v-.15l.7.1q.59-.08 1.05-.25-.31-2.032-1.05-3.8-.876.31-1.75.75-1.65.8-3.15 2.2m-22.4-.8q.606-6.137 2-11-9.71 1.046-23 5-25.05 7.5-62.85 25.35v45.7l1.4-.4 84.9-17.95 10.45-7.7 3.2-2.35q-9.2-1.5-19.7-5.65 4.35-12.05 3.15-18.4-.15-6.85.45-12.6z"/><path fill="#F00" d="M119.6 192.9q-.15.05-.25.15.65 1.4 3.4.35.874-.44 1.75-.75.877-.217 1.75-.35 2.09-.252 4.35.3 1.89.464 3.9 1.5l.8.5.15.15q2.35 1.95-.5 5.3l.4.2q1.65-1.95 1.8-3.45l.05-.05.25-.05.4-.25 1.15-.15q.85 0 1.55.4.65.35.65-.3l.15.7.35-.05-.05-.6q-.2-1.65 1.2-2.65 3-2.1 5.55-1.5.148-1.083-.8-1.2h-.1q-2.3.2-4.8 2-1.15.8-1.4 2v.15l-.1.95v.05q-.05-.5-.65-.85-.6-.45-1.55-.45-.85 0-1.55.45l-.25.15-.15.2q-.4-1.45-2.35-2.45-2.094-1.066-4.1-1.7-.63-.157-1.25-.3l-.35-.05h-.3l-1.5-.2h-1.7q-.83.057-1.65.2-2.01.43-3.9 1.5l-.35.15z"/></g><path id="b" stroke="#630" stroke-linejoin="round" stroke-linecap="round" fill="none" d="M127.6 177l-4.1 3.9 3.3-8.9.35 2.35 1.85-2.8 1.2 3.45 1.75-2.25.25 10.45-3-5.7-1.2 4m-18.35-1.3l3-4.15q-.805 4.05-1.1 7.825-.294 3.48-.15 6.725l-1.95-7.4-3.3 12.85-.5-10.65-2.6 6.7 1.9-15.35.5 4.95 1.5-6.45.7 4.75 2-6.95v7.15zm17.95 2.75l.4-1.45m8.55 54.2l.5-.05m-27.5 32.95l.4-2v-.05m38.85 9.85l-.25-.1"/><path id="c" stroke="#000" stroke-linejoin="round" stroke-linecap="round" fill="none" d="M124.45 199.3q-.65-1.15-.65-2.55v-.15l.7.1q.59-.08 1.05-.225m-1.05.225h.25l.85.075m-.05-.3q.397-.127.7-.3m-.65.6l.65.075m0-.675q.717-.425.95-1.125m.4 2q2.7-.85 3-1.95m0 1.875l-.9.075m2.9-.25l-1.8.15-.2.025m-.9.075h-2.1m-1.35-.2l.9.1m6.2-.25l-.75.1m.85-.1l.15-.05q.05-.023.1-.05.936-.48 1.6-2m-1.6 2h.1v.15m-3 .2q1.8-.65 2.15-2.15m11.9 1.5l-1.95-.2h-.1l-.6-.05v.15q0 1.05.5 1.95m7.3-2.1v.15m-.3-.1l.15-.05m-4.7.35q2.15-.7 2.25-1.5m-4.6 1.2q1.7-.2 2.1-1.3m1.95 1.6h-1.7m3.9-.2l-1.35.1-.85.1m.85-.1q1.35-.5 1.65-1.6m-.3 1.5l.65-.1m.15-.05q.85-.35 1.35-1.6"/><path id="d" stroke="#000" stroke-linejoin="round" stroke-linecap="round" fill="none" d="M127.15 196.95l.45.1m5.75-.35h.1"/></defs><g transform="translate(0 -120.25)"><use xlink:href="#a"/><use xlink:href="#b"/><use xlink:href="#c"/><use xlink:href="#d"/></g></svg>