<svg xmlns="http://www.w3.org/2000/svg" xmlns:xlink="http://www.w3.org/1999/xlink" preserveAspectRatio="none" width="236" height="184" viewBox="0 0 236 184"><defs><path fill="#FFF" d="M81.9 11.65l-.75-.15q-.45-.35-1.2-.5-.8-.15-1.9-.15-.5 0-2.15.45-1.65.5-1.9.75-.25.2-.4.35-.2.15-.35.25-.45.2-.8.4-.3.15-.55.25-.85.75-1.4 1.25-.6.5-1 .75-.45.45-.75.85-.3.35-.5.6-1 1-1.75 1.9-.75.9-1.25 1.75-.55 1.15-1.1 2.35-.55 1.2-1.1 2.35-.15.3-.2.6-.1.2-.1.4l.05.55q-.15.6-.35 1.05-.2.5-.35.8-.2 1.75-.35 2.75-.1 1-.1 1.15 0 .2.1.55.1.4.3.95l-.25 1.05q-.05.2.15.85.15.65.5 1.7l.65 2.05q.15.55.65 1.15.4.65 1.15 1.4.7.75 1.35 1.2.65.4 1.1.45l.7.1.25.25q.3.05.75.15.4.15 1.05.3.5.15.95.25.45.1.8.1 1.15 0 2.25-.2t2.05-.65q.7-.25 1.7-.8l2.25-1.3q1.45-.85 2.55-1.55 1.05-.75 1.75-1.3 0-.1-.95-2.2-.55.65-1.15 1.1-.6.5-1.3.75-.3.3-.5.55-.15.25-.3.4-.4 0-.85.2-.5.2-1 .7-.55.15-.9.35-.4.15-.65.3-1.35.3-2.15.4-.8.15-.9.15-1.3 0-2.45-.55-1.2-.6-2.2-1.7-.35-.25-.7-.55-.15-.1-.3-.3-.15-.2-.2-.35-.1-.7-.3-1.25-.25-.55-.5-.95-.45-.75-.65-1.1-.25-.4-.25-.5l.25-2.2q-.15-.55-.4-1.3.3-1.15.45-2 .1-.85.2-1.4.25-1.9.95-3.75.65-1.9 1.75-3.8 1.35-2.15 2.8-3.35 1.5-1.2 3.1-1.5.25-.05.7-.15.35-.1.85-.3.65.2 1.3.35.6.1 1.25.25.6.25.95.8.3.5.3 1.15 0 .5-.3 1.1-.35.55-1 1.2-.2.25-.55 1.2-.3.95-.65 2.65-.4 1.55-.6 2.5-.2 1-.2 1.35.1.9.15 1.8 0 .15-.1.5-.05.4-.05.55 0 .2.2.3.2.05.75.05 1.1-.3 2.05-.5.2-.1.6-.8.35-.75.85-2.15.45-1.3.8-2.15.25-.9.3-1.3.3-1.4.45-2.5.2-1.1.35-1.8.05-.25.05-.9.05-.65.05-1.75 0-2.35-.5-3.6-.45-1.25-1.4-1.45z" id="a"/><path fill="#FFF" d="M82.15 37.35q0-1.5-1-2.6T78.1 32.9q-.3-.2-.55-.35-.25-.15-.45-.2-1.75-.75-3.25-1.3-1.55-.55-2.75-.95-.85-.3-1.25-.7-.4-.35-.4-.85 0-.2.8-.8.75-.55 2.3-1.4 1.8-1.1 3.8-2.25.4-.3.65-.55.3-.25.5-.4 2-1.4 3.05-2.2 1.05-.75 1.15-.85 1.1-.95 1.65-2.1.5-1.15.5-2.4 0-.65-.2-1.25-.15-.6-.5-1.25-.4-.65-.9-1t-1.15-.35q-.3 0-.65-.05-.25-.4-.7-.6-.5-.2-1.15-.2-.35.05-.6.1-1.25-.25-1.95-.35-.7-.15-.8-.15-.55.1-1.05.15-.1.05-.45 0t-.5-.05q-1.05 0-2.25.15-1.25.15-2.55.5-.2.05-1.35.4-1.15.3-3.35.95-.55.15-.8.3-.25.2-.25.35 0 .25-.25.55-.2.3-.6.6-.1.15-.15.5-.05.35-.05.85 0 .15.15.25.1.05.4.05.85 0 2.6-.55 1.7-.55 2.6-.55.3 0 .45.1.15.1.15.3 0 .2-.2.45-.2.3-.55.65-.5.45-.85.85-.3.4-.55.75-.3.6-.5 1.3-.2.7-.2 1.55 0 .15.05.35.05.2.15.55-.25 1.65-.45 3.05t-.35 2.55q-1.3.7-2 1.15-.65.5-.65.85 0 1.1 1.15 1.45 1.15.4 1.15 1.7v.8l.15.15.05.75q-.2.3-.3 1.6-.15 1.3-.15 3.6 0 .15.05.45v1.45q0 .3-.25.6-.2.3-.7.6-.6.45-1 .8-.4.3-.6.5l-.45.3q-.2.15-.2.35 0 .25.15.45t.4.35q.25.1.5.25.2.1.45.2l1.35-.35q.15 0 .35.15.1.7.35 1.05.25.3.7.3.4 0 .75-.15.3-.15.45-.45.1-.3.3-.6.15-.35.25-.7 7.65-1.7 11.5-3.65 3.85-1.9 3.85-4M70.2 18.5q.05-.6.1-1.15.25-.95.5-1.5.15-.55.35-.75.25-.3.8-.45.55-.1 1.5-.1.1 0 .55.1.45.15 1.25.35.95.2 1.6.4.6.2.8.25.75.35 1.1.8.35.45.35 1.05 0 .3-.2.7-.2.4-.6.9-.25.35-.55.7-.3.4-.65.8-.15.05-1.05.65T73.4 23q-1.6 1.05-2.5 1.6-.9.5-1.15.5-.25 0-.4-.1-.15-.15-.15-.5 0-.25.15-1 .1-.7.4-1.9l-.1-.6q.25-.45.55-1.05-.05-.8 0-1.45m.9 14.85q1.6.5 3 1.05 1.35.6 2.45 1.3.45.3.65.55.25.2.25.5 0 .4-.8 1T74.25 39q-3.7 1.65-3.85 1.8-.15.15-.95.15-1.2.3-2.15.55l-.2-.1-.05-.2q.1-.7.25-1.3l.2-2.4.2-2.4q.15-1.3.45-1.95.25-.65.65-.65.1 0 .4.15.25.15.8.35l.6.2q.25.1.5.15z" id="b"/><path fill="#FFF" d="M75.85 11.65q.55-1 .55-1.55 0-.4-.25-.65-.3-.3-.95-.3-.2 0-.55.2-.35.2-.85.6-.6.45-.95.7-.4.25-.55.3-.75.75-1.05 1.35-.3.65-.65.7l-1.2.25-.95 1.05.75 1.2v.1q-.25.4-.7 1.05-.5.65-1.25 2.65-.2.45-.45 1.1-.2.65-.45 1.55-.85 2.9-1.35 4.4-.5 1.55-.55 1.65-.3.5-.55.95-.2.45-.25.75-.05.45-.3.75-.3.3-.75.5-.65.3-1 .45-.45.2-.5.3-.4.4-.6.95-.2.55-.2 1.35 0 .1.05.3 0 .15.05.4-.1.3-.15.5-.05.2-.05.4 0 .3.15.5.1.15.35.2l.8-.1.1.15q-.2.8-.4 1.4l-.35 1.05q-.15.4-.2.6-.05.35-.25 1.15-.25.8-.6 2.05-.3.95-.45 1.8-.15.75-.15 1.4 0 .55.25.85.2.25.6.25.6 0 .95-.15.35-.2.55-.55.3-.65.55-1.15.15-.5.3-.85.1-.55.2-1 .05-.4.05-.7.2-.6.4-1.1.2-.45.35-.75.2-.8.4-1.35.15-.55.25-.8.45-1.05.75-1.7.25-.65.3-1.05.15-.4.35-.6.15-.25.45-.25.35 0 .9-.2.55-.15 1.2-.45 1.1-.45 1.95-.75.8-.3 1.35-.4.4-.2.85-.4 1 0 1.6-.15.6-.1.9-.2l.7-.35q.25-.1.4-.1l.15.1.35 2.2-.4.65q.05.4.05.85-.05.5-.1.95.1.45.25.85 0 .75-.15 2.2-.15 1.5-.15 2.15 0 .2.05.5t.05.45q0 .25-.05.7-.1.45-.1.7 0 .55.15.8.15.3.5.3.55 0 .95-.4.45-.4.7-1.25.15-.6.35-1.25.1-.65.25-1.3-.1-.45-.2-.85 0-.15.1-.6.15-.4.4-1.05.1-.9.2-1.55.05-.7.05-1.1l.45-3.4-.3-1.5q.05-.1.25-.25.15-.1.5-.3.2-.15.35-.4.15-.25.15-.7 0-.35-.2-.5-.25-.2-.65-.25-.1 0-.15-.15-.05-.05-.05-.2.15-1.5.3-2.9-.3-1.45-.55-2.8.2-1.05.35-2.1 0-.4-.1-1-.05-.65-.2-1.6-.15-1.15-.35-1.8-.15-.65-.4-.75l-2.9-1.55q-.1-.05-.2-.25-.15-.1-.15-.35 0-.55.55-1.55m-6.35 12.4q.6-.95.95-1.55.3-.6.4-.75.4-1.6.9-2.35t1-.75q.4 0 .8.2.35.2.7.7.25.35.5.75.25.35.5.75.15.25.25.45.1.25.15.3-.05.35.05.8.05.45.15 1l-.1.95.3 1.1q-.15.6-.2 1.15-.05.55-.05 1.05 0 .25.05.95 0 .2-.15.35-.1.15-.35.2-.6.15-1.15.25-.6.2-1.2.3-.3-.05-.65-.1-.55 0-1.65.25-1.05.25-1.6.25-.25 0-.75.05-.55.05-.8.05-.2 0-.25-.1-.1-.05-.1-.2 0-.15.05-.3 0-.1.1-.25 1-1.85 1.55-3.2t.6-2.3z" id="c"/><path fill="#FFF" d="M81.9 11.65l-.75-.15q-.45-.35-1.2-.5-.8-.15-1.9-.15-.5 0-2.15.45-1.65.5-1.9.75-.25.2-.4.35-.2.15-.35.25-.45.2-.8.4-.3.15-.55.25-.85.75-1.4 1.25-.6.5-1 .75-.45.45-.75.85-.3.35-.5.6-1 1-1.75 1.9-.75.9-1.25 1.75-.55 1.15-1.1 2.35-.55 1.2-1.1 2.35-.15.3-.2.6-.1.2-.1.4l.05.55q-.15.6-.35 1.05-.2.5-.35.8-.2 1.75-.35 2.75-.1 1-.1 1.15 0 .2.1.55.1.4.3.95l-.25 1.05q-.05.2.15.85.15.65.5 1.7l.65 2.05q.15.55.65 1.15.4.65 1.15 1.4.7.75 1.35 1.2.65.4 1.1.45l.7.1.25.25q.3.05.75.15.4.15 1.05.3.5.15.95.25.45.1.8.1 1.15 0 2.25-.2t2.05-.65q.7-.25 1.7-.8l2.25-1.3q1.45-.85 2.55-1.55 1.05-.75 1.75-1.3 0-.1-.95-2.2-.55.65-1.15 1.1-.6.5-1.3.75-.3.3-.5.55-.15.25-.3.4-.4 0-.85.2-.5.2-1 .7-.55.15-.9.35-.4.15-.65.3-1.35.3-2.15.4-.8.15-.9.15-1.3 0-2.45-.55-1.2-.6-2.2-1.7-.35-.25-.7-.55-.15-.1-.3-.3-.15-.2-.2-.35-.1-.7-.3-1.25-.25-.55-.5-.95-.45-.75-.65-1.1-.25-.4-.25-.5l.25-2.2q-.15-.55-.4-1.3.3-1.15.45-2 .1-.85.2-1.4.25-1.9.95-3.75.65-1.9 1.75-3.8 1.35-2.15 2.8-3.35 1.5-1.2 3.1-1.5.25-.05.7-.15.35-.1.85-.3.65.2 1.3.35.6.1 1.25.25.6.25.95.8.3.5.3 1.15 0 .5-.3 1.1-.35.55-1 1.2-.2.25-.55 1.2-.3.95-.65 2.65-.4 1.55-.6 2.5-.2 1-.2 1.35.1.9.15 1.8 0 .15-.1.5-.05.4-.05.55 0 .2.2.3.2.05.75.05 1.1-.3 2.05-.5.2-.1.6-.8.35-.75.85-2.15.45-1.3.8-2.15.25-.9.3-1.3.3-1.4.45-2.5.2-1.1.35-1.8.05-.25.05-.9.05-.65.05-1.75 0-2.35-.5-3.6-.45-1.25-1.4-1.45z" id="d"/><path fill="#FFF" d="M82.15 37.35q0-1.5-1-2.6T78.1 32.9q-.3-.2-.55-.35-.25-.15-.45-.2-1.75-.75-3.25-1.3-1.55-.55-2.75-.95-.85-.3-1.25-.7-.4-.35-.4-.85 0-.2.8-.8.75-.55 2.3-1.4 1.8-1.1 3.8-2.25.4-.3.65-.55.3-.25.5-.4 2-1.4 3.05-2.2 1.05-.75 1.15-.85 1.1-.95 1.65-2.1.5-1.15.5-2.4 0-.65-.2-1.25-.15-.6-.5-1.25-.4-.65-.9-1t-1.15-.35q-.3 0-.65-.05-.25-.4-.7-.6-.5-.2-1.15-.2-.35.05-.6.1-1.25-.25-1.95-.35-.7-.15-.8-.15-.55.1-1.05.15-.1.05-.45 0t-.5-.05q-1.05 0-2.25.15-1.25.15-2.55.5-.2.05-1.35.4-1.15.3-3.35.95-.55.15-.8.3-.25.2-.25.35 0 .25-.25.55-.2.3-.6.6-.1.15-.15.5-.05.35-.05.85 0 .15.15.25.1.05.4.05.85 0 2.6-.55 1.7-.55 2.6-.55.3 0 .45.1.15.1.15.3 0 .2-.2.45-.2.3-.55.65-.5.45-.85.85-.3.4-.55.75-.3.6-.5 1.3-.2.7-.2 1.55 0 .15.05.35.05.2.15.55-.25 1.65-.45 3.05t-.35 2.55q-1.3.7-2 1.15-.65.5-.65.85 0 1.1 1.15 1.45 1.15.4 1.15 1.7v.8l.15.15.05.75q-.2.3-.3 1.6-.15 1.3-.15 3.6 0 .15.05.45v1.45q0 .3-.25.6-.2.3-.7.6-.6.45-1 .8-.4.3-.6.5l-.45.3q-.2.15-.2.35 0 .25.15.45t.4.35q.25.1.5.25.2.1.45.2l1.35-.35q.15 0 .35.15.1.7.35 1.05.25.3.7.3.4 0 .75-.15.3-.15.45-.45.1-.3.3-.6.15-.35.25-.7 7.65-1.7 11.5-3.65 3.85-1.9 3.85-4M70.2 18.5q.05-.6.1-1.15.25-.95.5-1.5.15-.55.35-.75.25-.3.8-.45.55-.1 1.5-.1.1 0 .55.1.45.15 1.25.35.95.2 1.6.4.6.2.8.25.75.35 1.1.8.35.45.35 1.05 0 .3-.2.7-.2.4-.6.9-.25.35-.55.7-.3.4-.65.8-.15.05-1.05.65T73.4 23q-1.6 1.05-2.5 1.6-.9.5-1.15.5-.25 0-.4-.1-.15-.15-.15-.5 0-.25.15-1 .1-.7.4-1.9l-.1-.6q.25-.45.55-1.05-.05-.8 0-1.45m.9 14.85q1.6.5 3 1.05 1.35.6 2.45 1.3.45.3.65.55.25.2.25.5 0 .4-.8 1T74.25 39q-3.7 1.65-3.85 1.8-.15.15-.95.15-1.2.3-2.15.55l-.2-.1-.05-.2q.1-.7.25-1.3l.2-2.4.2-2.4q.15-1.3.45-1.95.25-.65.65-.65.1 0 .4.15.25.15.8.35l.6.2q.25.1.5.15z" id="e"/><path fill="#FFF" d="M75.85 11.65q.55-1 .55-1.55 0-.4-.25-.65-.3-.3-.95-.3-.2 0-.55.2-.35.2-.85.6-.6.45-.95.7-.4.25-.55.3-.75.75-1.05 1.35-.3.65-.65.7l-1.2.25-.95 1.05.75 1.2v.1q-.25.4-.7 1.05-.5.65-1.25 2.65-.2.45-.45 1.1-.2.65-.45 1.55-.85 2.9-1.35 4.4-.5 1.55-.55 1.65-.3.5-.55.95-.2.45-.25.75-.05.45-.3.75-.3.3-.75.5-.65.3-1 .45-.45.2-.5.3-.4.4-.6.95-.2.55-.2 1.35 0 .1.05.3 0 .15.05.4-.1.3-.15.5-.05.2-.05.4 0 .3.15.5.1.15.35.2l.8-.1.1.15q-.2.8-.4 1.4l-.35 1.05q-.15.4-.2.6-.05.35-.25 1.15-.25.8-.6 2.05-.3.95-.45 1.8-.15.75-.15 1.4 0 .55.25.85.2.25.6.25.6 0 .95-.15.35-.2.55-.55.3-.65.55-1.15.15-.5.3-.85.1-.55.2-1 .05-.4.05-.7.2-.6.4-1.1.2-.45.35-.75.2-.8.4-1.35.15-.55.25-.8.45-1.05.75-1.7.25-.65.3-1.05.15-.4.35-.6.15-.25.45-.25.35 0 .9-.2.55-.15 1.2-.45 1.1-.45 1.95-.75.8-.3 1.35-.4.4-.2.85-.4 1 0 1.6-.15.6-.1.9-.2l.7-.35q.25-.1.4-.1l.15.1.35 2.2-.4.65q.05.4.05.85-.05.5-.1.95.1.45.25.85 0 .75-.15 2.2-.15 1.5-.15 2.15 0 .2.05.5t.05.45q0 .25-.05.7-.1.45-.1.7 0 .55.15.8.15.3.5.3.55 0 .95-.4.45-.4.7-1.25.15-.6.35-1.25.1-.65.25-1.3-.1-.45-.2-.85 0-.15.1-.6.15-.4.4-1.05.1-.9.2-1.55.05-.7.05-1.1l.45-3.4-.3-1.5q.05-.1.25-.25.15-.1.5-.3.2-.15.35-.4.15-.25.15-.7 0-.35-.2-.5-.25-.2-.65-.25-.1 0-.15-.15-.05-.05-.05-.2.15-1.5.3-2.9-.3-1.45-.55-2.8.2-1.05.35-2.1 0-.4-.1-1-.05-.65-.2-1.6-.15-1.15-.35-1.8-.15-.65-.4-.75l-2.9-1.55q-.1-.05-.2-.25-.15-.1-.15-.35 0-.55.55-1.55m-6.35 12.4q.6-.95.95-1.55.3-.6.4-.75.4-1.6.9-2.35t1-.75q.4 0 .8.2.35.2.7.7.25.35.5.75.25.35.5.75.15.25.25.45.1.25.15.3-.05.35.05.8.05.45.15 1l-.1.95.3 1.1q-.15.6-.2 1.15-.05.55-.05 1.05 0 .25.05.95 0 .2-.15.35-.1.15-.35.2-.6.15-1.15.25-.6.2-1.2.3-.3-.05-.65-.1-.55 0-1.65.25-1.05.25-1.6.25-.25 0-.75.05-.55.05-.8.05-.2 0-.25-.1-.1-.05-.1-.2 0-.15.05-.3 0-.1.1-.25 1-1.85 1.55-3.2t.6-2.3z" id="f"/><g id="g"><path fill="#E8D1E9" d="M186.1 83.25q8.15-6.4 12.9-13.8-3.6-26.75-28.6-46.4Q141.55.3 100.85 0 95 3.05 89.7 7.25q-20 15.8-20 38.05 0 22.25 20 37.95 20 15.8 48.25 15.8t48.15-15.8z"/><path fill="#C9C" d="M199.65 78.75q0-4.75-.65-9.3-4.75 7.4-12.9 13.8-19.9 15.8-48.15 15.8T89.7 83.25q-20-15.7-20-37.95 0-22.25 20-38.05Q95 3.05 100.85 0h-1Q58.45 0 29.2 23.05 0 46.15 0 78.75q0 32.65 29.2 55.65 29.25 23.15 70.65 23.15 41.35 0 70.55-23.15 29.25-23 29.25-55.65z"/></g><g id="h"><path fill="#FDBE2D" d="M5.85 150.5l.05.35 124.25-28.6-4.05-6.6L14.75 139.2l-8.9 11.3z"/><path fill="#C90" d="M5.85 150.5v.35h.05l-.05-.35m120.4-97.75v62.85l-.15.05 4.05 6.6.45-.15V46.6L5.85 21.6v128.9l8.9-11.3-1.4.4V31.95l112.9 20.8z"/><path fill="#9ADB02" d="M126.25 80.35h-.45q.95-40.1-112.45 13.55v45.7l1.4-.4 111.35-23.55.15-.05V80.35z"/><path fill="#690" d="M126.25 80.35v-27.6l-112.9-20.8V93.9q113.4-53.65 112.45-13.55h.45z"/></g><g id="i"><path fill="#033" d="M144.3 167.35q2.25-1.6 3.75-3.3-6.15 1.95-11.75-2.2 3.5 4.75 7.75 5.4l.25.1m-10-34.1l-.6-2.3q-5.1 8.75-28.1-6.2l-11 8.1q15.4 3.15 17.7-3.5 17.7 11.5 22 3.9m-8.65 35.5q5.9-3.85 7.35-9-12.35 12.85-22.6 5.3 6.35 8.65 15.25 3.7M131.7 122v.4l.1 1.85.75 2.35 8.3.15q-4.55-3.25-9.15-4.75z"/><path fill="#FBA31E" d="M105.15 159.5l-.1.05q-3.9 18.05-20 20.4l.15 1 .05.1q11.5 3 19.55-.95l.35-20.6m34.5-57.4q3.75.15 7.1-2.65l.4-2.7q-4.5 4.3-7.5 5.35m-18.15 17.15l3.5 1.35 6.7 1.8v-.4q0-1.25.25-2.55l-6.95-1.8q-4.05-1.4-7.4-3.25l3.4 8.9-12.2-.9 2.6 1.7 12.2.8q-1.25-2.65-2.1-5.65m22.4-24.9l2.65 1.55v-.65l-1.4-1.55-1.25.65m-5.35-13.85h-.05l.05 1.55 6.35-.8-.35-1.55-6 .8m-15.05-8.05l.15-1.45-.55 2.9.4-1.45m-8 19.65q.25.35.5.65 7.15 9.35 15.3-.05l.15-.2q1.6-1.95 1.75-3.5h.1l.2-.15q.5-.3 1.15-.3l.4-.05 2 .2v-.1l-1-.95q-.7-.4-1.55-.4l-1.15.15-.4.25-.2.05h-.05l-.05.05v.15q-.2 1.35-1.6 3.1l-.2.2v.05l-.15.15q-.1.1-.15.2l-.05.05q-.8.9-1.55 1.6l-.05.05q-.2.35-.75.65-4.75 3.8-9.25 1.15-.1-.05-.15-.1-.1-.1-.2-.15-.15-.05-.2-.1-.15-.15-.3-.25-.7-.5-1.35-1.1-.6-.6-1.2-1.3m4.5-10.15l1.3.1h.35q1.45.05 2.85.15 6.5.2 11.65-.15.8-3.7-.3-5.65l-.2 4.25q-4.7.2-11.45-.15-1.05-3.7-.7-8.05l-.4 1.45q-.6 3.45-.3 6.5l-6.8-.2-.2 1.5 4.2.25m13.35 29.45q-.55.35-.55.75 0 .5.55.8l1.45.35 1.4-.35q.6-.3.6-.8 0-.4-.6-.75l-1.4-.3-1.45.3M232 141.35q-4.3 1.6-6.85 3.3-2.95 1.9-5.15 4.4 1.45 2.4-14.45.15-2.85-.45-6.25-1-28.05 13.5-33.7 7.3-5.65 3.9-14.05.4-.15 2.1-.8 3.95l13.45 4.65 1.15.35.2-.1q21.45-6.4 36.4-14.55l20.3 2.3 9.75-11.15m-19.2-1.75l-5.75-1.3-.35.5-2.25 2.55 8.35-1.75z"/><path fill="#FED69A" d="M105.15 159.5l.3-1.95-.4 2 .1-.05m.3-1.95v-.05q-8.2-14.05-21.35-7.15-1.7 12.65.95 29.6 16.1-2.35 20-20.4l.4-2M125 120.6l-3.5-1.35q.85 3 2.1 5.65l-12.2-.8q16.95 10.4 20.9 3.4l-.25-.85-.25-2.4-.1-1.85-6.7-1.8m20.15-26.9l1.4 1.55-.05-2.85-1.35 1.3m-8.1-5.1v.1h.1l-.1-.1m-24-3.15l-1.3.95 3.55 5.4.05-.05q0 .1.05.25l-.75-.9q-.4 9.25 1.5 18l1.45 5.3q3.35 1.85 7.4 3.25l6.95 1.8.6.15q3.6.7 5.5-.95 4.5-5 6.85-11.55l1.3-4.35.55-3.3q-3.35 2.8-7.1 2.65 3-1.05 7.5-5.35-2.65-.2-4-1.05l-1.45-.95-7.05-6.2q-.65 0-1.15.3l-.2.15h-.1q-.15 1.55-1.75 3.5l-.15.2q-8.15 9.4-15.3.05-.25-.3-.5-.65.6.7 1.2 1.3l.6.5q1.85 1.2.75.6.15.1.3.25l.05-.05q.05.1.15.15.1.05.2.15.05.05.15.1.55.25 2.65.85 2.6.75 6.6-2 .55-.3.75-.65l.05-.05q.7-.95 1.3-1.75.1.05.25.15l.05-.05q.05-.1.15-.2l.15-.15v-.05l.2-.2q.2-.45.55-1.05.8-1.6 1.05-2.05v-.15l.05-.05h.05q.45-.95.1-1.3l.1-.05q.7-.45 1.55-.45.95 0 1.55.45.6.35.65.85v-.05l.1-.95v-.15q.25-1.2 1.4-2 2.5-1.8 4.8-2h.15l2 .2-.25-1-6.35.8-.05-1.55h.05v-1.6q-.35-6.1-4.05-13.55l.8 3.2q.65 3.65.55 7.85 1.1 1.95.3 5.65-5.15.35-11.65.15l.35.05q.4.1.85.25l-1.2-.3q-1.4-.1-2.85-.15h-.7l-.95-.1-4.2-.25-.35 1.95v.05l-.35.15q-.15.05-.2.15h-.05l-.35.3q-.4.4-1.45 1.15m4.4-2.3h-.15q.05-.05.15-.1v.1m7.05-.15q-.862.075-1.8.15h-.35l-.15-.05 2.3-.1m4.35 4.85q0 .35-.15.7v-.85l.15-.05v.2m8.5 21.05l-.65.3H133l-3.15-1.75 3.15-.5 4.7-.15q.15.75 1.2.65l-1.55 1.45m-4.55 3.25q0-.4.55-.75l1.45-.3 1.4.3q.6.35.6.75 0 .5-.6.8l-1.4.35-1.45-.35q-.55-.3-.55-.8m32.55 52.7l-1.15-.35.7.5.45-.15m47.45-25.25l-8.35 1.75 2.25-2.55.35-.5q4.75-6.3 2.65-11.3l-10.25 13.5-1.3 1.05-32.8 7.15-.3-.25-1.65-1.5-8.4-7.65-4.6-4.15q-.2.1-.6.65-.4.5-1 1.45-1 1.5-2.6 4.2 5.65 8.1 5.35 14.45 8.4 3.5 14.05-.4 5.65 6.2 33.7-7.3 3.4.55 6.25 1 15.9 2.25 14.45-.15 2.2-2.5 5.15-4.4 2.55-1.7 6.85-3.3l3.6-4.2q-9.35-5.2-15.25 1.45l-1.8 2.35-5.75-1.35z"/><path fill="#039" d="M132.55 126.6l-.75-2.35.25 2.4.5-.05m8.3.15l-8.3-.15-.5.05.25.85q-3.95 7-20.9-3.4l-2.6-1.7-3.2 2.35q23 14.95 28.1 6.2l.6 2.3q-4.3 7.6-22-3.9-2.3 6.65-17.7 3.5l-3.2 2.45q-5.65 3.4-7.3 15.05 13.15-6.9 21.35 7.15l.5.5-.8 1.5-.35 20.6q23.35 8.15 39.55-1.85l-.3-10.85.25-.05-.25-.1q-4.25-.65-7.75-5.4 5.6 4.15 11.75 2.2 1.8-2 2.7-4.2.65-1.85.8-3.95.3-6.35-5.35-14.45 1.6-2.7 2.6-4.2.6-.95 1-1.45.4-.55.6-.65-2.15-2.3-4.3-4.2-1.55-1.4-3.05-2.55-1.1-.9-2.2-1.65m-7.85 33q-1.45 5.15-7.35 9-8.9 4.95-15.25-3.7 10.25 7.55 22.6-5.3z"/><path d="M142.15 122.65q1-.05 2.05-.15 1.55-.2 3.15-.5-1.45-2.5-2.1-5.3-.5-2.05-.6-4.2-.15-2.6.25-5.4-2.35 6.55-6.85 11.55-1.9 1.65-5.5.95l-.6-.15q-.25 1.3-.25 2.55 5.15.95 10.45.65M141 88.6l.7.6 1 .2 1-.2 1.1-.95.4-1.05v-.15l-.65.1v.1l-.25.65q-.3.5-.9.5-.7 0-1-.55l-.05-.5h-1.7l-.3-.1q.05.8.65 1.35m-12.3-.05q.15-.35.15-.7v-.2l-.15.05v.85m-36-2.8q-.6 5.75-.45 12.6 1.2 6.35-3.15 18.4 10.5 4.15 19.7 5.65l12.2.9-3.4-8.9-1.45-5.3q-1.9-8.75-1.5-18l-2.9-4.7 1.3-.95 1.8-1.45h.05q.05-.1.2-.15l.35-.15v-.05l.35-1.95.2-1.5 6.8.2q-.3-3.05.3-6.5v-5.95l-4.1 3.9 3.3-8.9.35 2.35 1.85-2.8 1.2 3.45 1.75-2.25.25 10.45-3-5.7-1.2 4q-.35 4.35.7 8.05 6.75.35 11.45.15l.2-4.25q.1-4.2-.55-7.85l-.8-3.2q3.7 7.45 4.05 13.55v1.6l6-.8 2.85-.55q-.2-7.5-4.05-13.55-3.5-4.1-7.4-4.95l-.45-.15q-5.55-3.7-13.35-3.5-9.65-1.5-16.1 2-11.3 6-13.35 26.75m9.75-19.55l.7 4.75 2-6.95v7.15l3-4.15q-1.55 7.8-1.25 14.55l-1.95-7.4-3.3 12.85-.5-10.65-2.6 6.7 1.9-15.35.5 4.95 1.5-6.45z"/><path fill="#C90" d="M144.2 122.5q-1.05.1-2.05.15.05 3 .9 5.75 1.5 1.15 3.05 2.55-1.9-3.7-1.9-8.2v-.25m6.7-16.8l-2.9 2.4q-1.5 1.5-2.65 3.2-.4.55-.7 1.2.1 2.15.6 4.2.7-2 1.9-3.75 1-1.55 2.35-2.9 1.4-1.45 3.05-2.5l-1.65-1.85m24.7 29l-.7.8q-4 3.95-9.2 4.95l-3.5.25-3.5-.25q-1.95-.4-3.7-1.15l8.4 7.65q2.85-.95 4.65-1.95 1.75-1 1.75-2.05 0-.9-1.4-1.6l.8-.25q3.9-1.45 7.1-4.65l.45-.35-1.15-1.4z"/><path fill="#ABEEFE" d="M152.55 107.9q.2-.7.95-.65.75-.7 2.55-1.35l1.2-.45v-.05q-2.5.7-4.7 2.15-1.65 1.05-3.05 2.5-1.35 1.35-2.35 2.9l6.05 5.2.05-.05-.35-.45-.05-.5q0-.55.25-.75l-.25-.5-.3-1v-.1l-.3-.35-.05-.2-.5-.5-.3-.7v-.8q0-.95.35-1.3 0-.85.3-1.35v-.5q0-.55.3-.8l.2-.4m6.95-2.8l.1-.2-.4.15.3.05m19.75 11.7l-.6.65q-.75.5-1.85.5-.7 0-1.15-.4l-.7.4-.25.2q-.65.5-1.9.65.65.2 1.1 1.35l.3 1.5v.15l.2.1q2.45.1 4 1.5l.5.5 1.25-2.1q-.1-2.65-.9-5m-1.65-2.7l.95 1-1.9-3 .95 2m-4.55-5.15q1 .35 1.75 1-5.2-5.2-12.6-5.2l-.75.05.45.15q.95.5 1.7 1.35.8.9.8 1.3l-.65 1.5-.65 1.1.5.75q.6.8.6 1.3t-.95 1.35l-.3.3-.1.5q-.4.85-1 .85h-.25q-.35.65-1 .65l-.5-.15-.5.15-.1.15-2.3.35-1-.1-.95.25-.35.4v.2l-.2.65-.1.1q.6.2.6.85l-.15.4h.3q.9-.05 1.05.65l.45.3.9 1q.1-1.1 1.15-.85 1 .15 1.2.85l.45-.1q.8.1 1.05.45l.65.05q1.35.3 1.5 1.25.5.05.65.65.95.1.95 1.1l-.15.5v.45l-.15.3q1.65.75 3.2 1.1l.85.25 2.2.25-.25-.1-1.5-.45q-.75-.35-.75-1.05 0-.65.3-1l.65-1.35q.2-.75 2-1.25l-.05-.15.2-.9-.6-.85q-.6-.95-.6-1.5l.1-.85q-1.05-.25-1.6-.85-.5-.5-.5-1.3 0-1.6 1.85-3.5.2-.3.9-.85l.6-.85q.15-1.65 1-1.6z"/><path fill="#FFF" d="M137.8 89.4l-.65-.7h-.1l-2-.2-.4.05 7.05 6.2 1.45.95q1.35.85 4 1.05l.4-.4q-.5-.25-1-.45l-2.65-1.55-1.4-.95-4.7-4m6.5-1.5l.25-.65v-.1l-1.35.1-.85.1.05.5q.3.55 1 .55.6 0 .9-.5m-2.6 1.3l-.7-.6q-.6-.55-.65-1.35l-1.95-.2h-.1l-.6-.05v.15q0 1.05.5 1.95l.1.1.1.2.45.45.8.65q.9.55 2 .55 1.05 0 2-.55l1.35-1.3q.5-.95.5-2.05V87h-.15l-.15.05v.15l-.4 1.05-1.1.95-1 .2-1-.2m-19.05-23.9l-.35-2.35-3.3 8.9 4.1-3.9v5.95l.55-2.9-.15 1.45 1.2-4 3 5.7-.25-10.45-1.75 2.25-1.2-3.45-1.85 2.8m14.05 43.9l.65-.3 1.55-1.45q-1.05.1-1.2-.65l-4.7.15-3.15.5 3.15 1.75h3.7m-33.55-38.25l-.7-4.75-1.5 6.45-.5-4.95-1.9 15.35 2.6-6.7.5 10.65 3.3-12.85 1.95 7.4q-.3-6.75 1.25-14.55l-3 4.15V64l-2 6.95z"/><path fill="#FEEACD" d="M137.15 87.4l.05.6.5 1.1.1.3 4.7 4q2.65-.3 5.2-6.25l.3-.8q-1.85-2.5-3.95-3.1h-.15q-2.55-.6-5.55 1.5-1.4 1-1.2 2.65m3.2-.15l.3.1q2.15-.7 2.25-1.5-.1.8-2.25 1.5h1.7l.85-.1q1.35-.5 1.65-1.6-.3 1.1-1.65 1.6l1.35-.1.65-.1.15-.05q.85-.35 1.35-1.6-.5 1.25-1.35 1.6h.15v.15q0 1.1-.5 2.05l-1.35 1.3q-.95.55-2 .55-1.1 0-2-.55l-.8-.65-.45-.45-.1-.2-.1-.1q-.5-.9-.5-1.95V87l.6.05q1.7-.2 2.1-1.3-.4 1.1-2.1 1.3h.1l1.95.2z"/><path fill="#FDBB24" d="M169.2 141.1l-.8.25q1.4.7 1.4 1.6 0 1.05-1.75 2.05-1.8 1-4.65 1.95l1.65 1.5q3.05-.25 5.4-1.1 3.45-1.2 3.45-2.9 0-1.75-3.45-3l-1.25-.35z"/><path fill="#690" d="M162.05 128.6l.5-.6q1.35-.05 1.5-1.05l.8-.95q-5.1-1.75-10.6-6.2v.35l.15.5.2.3.25.55-.15.8q-.3.2-.3.95l.2 1.05.1.15-.2 1 .05.85.2.5.15.8q.2.65.7.7l.4.5.05.45.35.4.2.45.4.7.85.8.25.4 1.25 1.45.25.65q.5 1 1.1 1.25l.05.3q.45.8 1.1.8l.75-.35.25-.75q0-.85-.6-1.2l-.15-.45.25-.6q0-1.3-.8-1.75-.1-.5-.45-.7l.45-.4.15-.65v-.25l-.1-.4.45-.35m17.6-2.1l-.1-.7.1-.15-.1-.7q-4 2.3-8.5 2.2v.1l.25.1q1.8.8 1.8 2.65 0 .85-1.3 2.45-1.25 1.55-1.25 2.25l.2.9.2.25-.15.25.15.55q.3.55 1.1.55 1.35 0 4.5-4.1 3.1-4.3 3.1-6.6z"/><path fill="#3CF" d="M178.9 123.9l.65 1.05.1.7-.1.15.1.7q0 2.3-3.1 6.6-3.15 4.1-4.5 4.1-.8 0-1.1-.55l-.15-.55.15-.25-.2-.25-.2-.9q0-.7 1.25-2.25 1.3-1.6 1.3-2.45 0-1.85-1.8-2.65l-2.2-.25-.85-.25q-1.55-.35-3.2-1.1l-.2.25-.8.95q-.15 1-1.5 1.05l-.5.6-.45.35.1.4v.25l-.15.65-.45.4q.35.2.45.7.8.45.8 1.75l-.25.6.15.45q.6.35.6 1.2l-.25.75-.75.35q-.65 0-1.1-.8l-.05-.3q-.6-.25-1.1-1.25l-.25-.65-1.25-1.45-.25-.4-.85-.8-.4-.7-.2-.45-.35-.4-.05-.45-.4-.5q-.5-.05-.7-.7l-.15-.8-.2-.5-.05-.85.2-1-.1-.15-.2-1.05q0-.75.3-.95l.15-.8-.25-.55-.2-.3-.15-.5v-.35h-.15q-.6 0-.9-.55l-.15-.45v-.05q0-.35.15-.6l-6.05-5.2q-1.2 1.75-1.9 3.75.65 2.8 2.1 5.3-1.6.3-3.15.5v.25q0 4.5 1.9 8.2 2.15 1.9 4.3 4.2l4.6 4.15q1.75.75 3.7 1.15l3.5.25 3.5-.25q5.2-1 9.2-4.95l.7-.8q3.95-4.35 4.5-10.1l.05-2.8-1.25 2.1z"/><path fill="#9C0" d="M164.4 107.6q0-.4-.8-1.3-.75-.85-1.7-1.35l-.45-.15-1.85.1-.1.2-.3-.05-.6-.25q-1.1-.25-1.35.6v.05l-1.2.45q-1.8.65-2.55 1.35-.75-.05-.95.65l-.2.4q-.3.25-.3.8v.5q-.3.5-.3 1.35-.35.35-.35 1.3v.8l.3.7.5.5.05.2.3.35v.1l.3 1 .25.5q-.25.2-.25.75l.05.5.35.45-.05.05q-.15.25-.15.6v.05l.15.45q.3.55.9.55h.15q5.5 4.45 10.6 6.2l.2-.25.15-.3V125l.15-.5q0-1-.95-1.1-.15-.6-.65-.65-.15-.95-1.5-1.25l-.65-.05q-.25-.35-1.05-.45l-.45.1q-.2-.7-1.2-.85-1.05-.25-1.15.85l-.9-1-.45-.3q-.15-.7-1.05-.65h-.3l.15-.4q0-.65-.6-.85l.1-.1.2-.65v-.2l.35-.4.95-.25 1 .1 2.3-.35.1-.15.5-.15.5.15q.65 0 1-.65h.25q.6 0 1-.85l.1-.5.3-.3q.95-.85.95-1.35 0-.5-.6-1.3l-.5-.75.65-1.1.65-1.5m10.4 2.35q-.75-.65-1.75-1-.85-.05-1 1.6l-.6.85q-.7.55-.9.85-1.85 1.9-1.85 3.5 0 .8.5 1.3.55.6 1.6.85l-.1.85q0 .55.6 1.5l.6.85-.2.9.05.15q-1.8.5-2 1.25l-.65 1.35q-.3.35-.3 1 0 .7.75 1.05l1.5.45v-.1q4.5.1 8.5-2.2l-.65-1.05-.5-.5q-1.55-1.4-4-1.5l-.2-.1v-.15l-.3-1.5q-.45-1.15-1.1-1.35 1.25-.15 1.9-.65l.25-.2.7-.4q.45.4 1.15.4 1.1 0 1.85-.5l.6-.65v-.35l-.7-1.35-.95-1-.95-2-.2-.3q-.7-1.1-1.65-1.85z"/></g><g id="m"><path fill="#FFF" d="M128.1 87.9v-.15l-1.8.15-1.1.1.15.6q.35.75 1.3.75.7 0 1.05-.65l.4-.8m-7.85-.25H120l-.7-.1v.15q0 1.4.65 2.55l.05.1 1.75 1.7q.05.05.1.05 1.15.65 2.45.65 1.35 0 2.5-.65l.05-.05 1-.85.75-.85q.05-.1.1-.15.6-1.1.6-2.5v-.15h-.1q-.05.05-.1.05l-.15.05h-.1v.2q0 .35-.15.7-.1.35-.35.65l-.4.5-.95.65-1.3.25-1.25-.25-.95-.65q-.7-.8-.85-1.8l-2.4-.25z"/><path d="M128.7 87.7l-.6.05v.15l-.4.8q-.35.65-1.05.65-.95 0-1.3-.75l-.15-.6h-2.1l-.45-.1q.15 1 .85 1.8l.95.65 1.25.25 1.3-.25.95-.65.4-.5q.25-.3.35-.65v-.85z"/></g><g id="p"><path fill="#900" d="M146.95 92.5q1.15-1.5 2.25-3.9v-.1q.15-1.75-1.05-1.25-2.55 5.95-5.2 6.25l1.4.95 1.25-.65 1.35-1.3m-31.85-1.3l.85 1q7.3 8.5 15.2-.7l.15-.15-.4-.25q-7.3 8.35-13.85-1.1l-.1-.15q-1.25 1.35-2.6.15l.75 1.2z"/><path fill="#C00" d="M145.6 82.35l-1.95-.2q.85.11.7 1.2h.15q2.1.6 3.95 3.1l-.3.8q1.2-.5 1.05 1.25l1.1-2.5q-2.15-2.85-4.7-3.65m-26.9 2.1q-2.75 1.05-3.4-.35l-3.1 2.4 1.65 2.85.5.65q1.35 1.2 2.6-.15l-1.75-2.9.35-.3q1.5-1.4 3.15-2.2z"/><path fill="#F00" d="M121.45 82.1q-2.9.2-5.55 1.7l-.35.15q-.15.05-.25.15.65 1.4 3.4.35 5.25-2.65 11.75.7l.8.5.15.15q2.35 1.95-.5 5.3l.4.2q1.65-1.95 1.8-3.45l.05-.05.25-.05.4-.25 1.15-.15q.85 0 1.55.4.65.35.65-.3l.15.7.35-.05-.05-.6q-.2-1.65 1.2-2.65 3-2.1 5.55-1.5.15-1.09-.7-1.2h-.2q-2.3.2-4.8 2-1.15.8-1.4 2v.15l-.1.95v.05q-.05-.5-.65-.85-.6-.45-1.55-.45-.85 0-1.55.45l-.25.15-.15.2q-.4-1.45-2.35-2.45-2.75-1.4-5.35-2l-.35-.05h-.3l-1.5-.2h-1.7z"/></g><path id="j" stroke="#630" stroke-linejoin="round" stroke-linecap="round" fill="none" d="M101.65 87l-.5-10.65-2.6 6.7 1.9-15.35.5 4.95 1.5-6.45.7 4.75 2-6.95v7.15l3-4.15q-1.55 7.8-1.25 14.55l-1.95-7.4-3.3 12.85zm21.45-19.05l-4.1 3.9 3.3-8.9.35 2.35 1.85-2.8 1.2 3.45 1.75-2.25.25 10.45-3-5.7-1.2 4-.4 1.45m8.95 52.75l.5-.05m11.75 40.75l-.25-.1"/><path id="k" stroke="#000" stroke-linejoin="round" stroke-linecap="round" fill="none" d="M128.85 87.65l-.15.05m16.5-.65l-.65.1m-2.2.2h-1.7m-.3-.1l-1.95-.2h-.1l-.6-.05v.15q0 1.05.5 1.95m7.3-2.1v.15m-.3-.1l.15-.05m-7.05.05q1.7-.2 2.1-1.3m1.95 1.6l.85-.1q1.35-.5 1.65-1.6m-1.65 1.6l1.35-.1m.8-.15q.85-.35 1.35-1.6m-6.05 1.95q2.15-.7 2.25-1.5"/><path id="l" stroke="#630" stroke-linejoin="round" stroke-linecap="round" fill="none" d="M105.45 157.5v.05l-.4 2"/><path id="n" stroke="#000" stroke-linejoin="round" stroke-linecap="round" fill="none" d="M120 87.65h.25l2.4.25m.45.1q2.05-.65 2.7-1.45.15-.25.2-.5m-6.05 4.2q-.65-1.15-.65-2.55v-.15l.7.1q1.75-.25 2.4-1.1.2-.25.3-.55m3.6 1.9q1.3-.45 1.85-1.35.15-.3.25-.6m.8 1.6q.15-.05.25-.15.8-.55 1.35-1.85m-2.1 2.15l-.6.05m-5 .25h2.1l1.1-.1 1.8-.15"/><path id="o" stroke="#000" stroke-linejoin="round" stroke-linecap="round" fill="none" d="M122.65 87.9l.45.1"/></defs><use xlink:href="#a"/><use xlink:href="#b"/><use xlink:href="#c"/><use xlink:href="#d"/><use xlink:href="#e"/><use xlink:href="#f"/><use xlink:href="#g"/><use xlink:href="#h"/><g><use xlink:href="#i"/><use xlink:href="#j"/><use xlink:href="#k"/><use xlink:href="#l"/></g><g><use xlink:href="#m"/><use xlink:href="#n"/><use xlink:href="#o"/></g><use xlink:href="#p"/><g transform="matrix(.75568 0 0 .75568 -20.05 47.3)"><clipPath id="q"><path fill="#FFF" d="M57.3-2.15h59v123.4h-59z"/></clipPath><text clip-path="url(#q)" writing-mode="lr"><tspan x="61.1" y="44.05" baseline-shift="0%" kerning="0" font-family="Mistral_Regular" font-size="49" fill="#FFF">A</tspan></text></g><g transform="matrix(.75568 0 0 .75568 1 68.05)"><clipPath id="r"><path fill="#FFF" d="M58.8-2.15h57.9v123.4H58.8z"/></clipPath><text clip-path="url(#r)" writing-mode="lr"><tspan x="60.8" y="44.05" baseline-shift="0%" kerning="0" font-family="Mistral_Regular" font-size="49" fill="#FFF">B</tspan></text></g><g transform="matrix(.75568 0 0 .75568 22.65 50.85)"><clipPath id="s"><path fill="#FFF" d="M59-2.15h58.15v123.4H59z"/></clipPath><text clip-path="url(#s)" writing-mode="lr"><tspan x="61" y="44.05" baseline-shift="0%" kerning="0" font-family="Mistral_Regular" font-size="49" fill="#FFF">C</tspan></text></g></svg>