<?xml version="1.0" encoding="utf-8"?>
<!-- Generator: Adobe Illustrator 16.0.0, SVG Export Plug-In . SVG Version: 6.00 Build 0)  -->
<!DOCTYPE svg PUBLIC "-//W3C//DTD SVG 1.1//EN" "http://www.w3.org/Graphics/SVG/1.1/DTD/svg11.dtd">
<svg version="1.1" id="Layer_1" xmlns="http://www.w3.org/2000/svg" xmlns:xlink="http://www.w3.org/1999/xlink" x="0px" y="0px"
	 width="73.75px" height="266.15px" viewBox="0 0 73.75 266.15" enable-background="new 0 0 73.75 266.15" xml:space="preserve">
<g>
	<g>
		<path fill-rule="evenodd" clip-rule="evenodd" fill="#FD9F13" d="M55.101,58.822c0.1,0.466,0.166,0.933,0.2,1.4l-11.4-1.4H55.101z
			"/>
		<path fill-rule="evenodd" clip-rule="evenodd" fill="#FFCC66" d="M55.301,60.222c0.333,2.433,0.5,4.85,0.5,7.25
			c-1.7,0.333-3.367,0.617-5,0.85C40.7,69.855,31.5,69.605,23.2,67.572c0.167-4.7,0.7-9.434,1.6-14.2c0-0.033,0.017-0.05,0.05-0.05
			c4.5-1.667,10.167-2.5,17-2.5c2.934-0.1,5.916,0.283,8.95,1.15c0.966,0.233,1.916,0.533,2.85,0.9c0.634,2,1.116,3.983,1.45,5.95
			H43.9L55.301,60.222z M73.301,148.622c-0.367,0.366-0.784,0.733-1.25,1.1c-1.967,1.667-3.334,2.5-4.101,2.5
			c-0.399,0-0.816-0.05-1.25-0.149c0.267-1.9,0.434-3.634,0.5-5.2c0.233-6.3,0.233-10.967,0-14c-0.233-3-0.883-6.033-1.95-9.1
			c0.233-0.233,0.45-0.467,0.65-0.7l-1.25-0.95c-0.066-0.2-0.116-0.367-0.15-0.5c-0.066-0.2-0.149-0.367-0.25-0.5
			c-0.399-0.933-0.85-1.883-1.35-2.85c-0.233-0.467-0.434-0.933-0.6-1.4c-0.733-1.233-1.334-2.367-1.801-3.4
			c-0.133-0.267-0.25-0.483-0.35-0.65h0.2c-0.434-2.534-0.65-4.467-0.65-5.8c0-5.2,0.384-8.7,1.15-10.5
			c1.666-2.7,3.399-6.05,5.2-10.05c3.267,0,5.35,0,6.25,0c-0.367,2.6-0.9,5.95-1.601,10.05c-0.267,1.7-0.566,3.5-0.899,5.4
			c0,1.667,0.649,5.3,1.949,10.9c1.334,5.5,2,9.333,2,11.5c0,3.1-0.05,4.867-0.149,5.3c-0.134,0.9-0.4,3.717-0.8,8.45
			c-0.034,0.333-0.051,0.633-0.051,0.899c0,0.067,0,0.117,0,0.15c-0.066,0.2-0.1,0.483-0.1,0.85c0,0.067,0,0.167,0,0.301
			c0,0.366,0.116,1.383,0.35,3.05c0.301,1.7,0.45,2.717,0.45,3.05C73.45,147.139,73.4,147.889,73.301,148.622z M9,146.372
			c-0.233,0.4-0.55,0.783-0.95,1.15c-1.1,1.133-2.233,1.699-3.4,1.699c-0.433,0-1.55-0.566-3.35-1.699l-0.2,0.149
			c-0.1-0.1-0.184-0.217-0.25-0.35c-0.6-1.533-0.883-2.467-0.85-2.8c0.1-0.667,0.3-1.9,0.6-3.7c0.333-1.834,0.45-2.851,0.35-3.05
			c-0.133-0.267-0.133-0.45,0-0.551c0.1-0.133,0.15-0.233,0.15-0.3l0.4-1.25c0.1-3.2,0.1-5.3,0-6.3c0-0.433,0.117-2.183,0.35-5.25
			c0.167-2.167,1.1-5.967,2.8-11.4c1.7-5.434,2.6-8.983,2.7-10.65c-0.133-1.967-0.284-3.767-0.45-5.4
			c-0.267-3.433-0.5-6.35-0.7-8.75c-0.033-0.733-0.1-1.4-0.2-2c0.467,0.1,1.467,0.184,3,0.25v1.5c0,0.067,0,0.15,0,0.25
			c0.167,0.934,1.367,3.567,3.6,7.9c2.466,5.733,3.7,11.7,3.7,17.9l0.1,0.1c-0.067,0.066-0.1,0.15-0.1,0.25
			c-0.033,0.1-0.083,0.2-0.15,0.3c-0.033,0.2-0.1,0.367-0.2,0.5l-0.2,0.5l-0.2,0.3c-0.066,0.067-0.117,0.184-0.15,0.35v0.15
			c-0.067,0.034-0.117,0.1-0.15,0.2l-0.15,0.15c-0.6,1.167-1.117,2.3-1.55,3.4c-0.467,1.034-0.867,2.05-1.2,3.05
			c-0.3,0.9-0.567,1.8-0.8,2.7c0.033,0.067,0.083,0.117,0.15,0.15C9.667,132.522,8.767,139.372,9,146.372z M40.2,241.722
			c4.434,3.567,8.851,4.301,13.25,2.2c0,0.066,0,0.117,0,0.15c0.101,0.399,0.15,0.666,0.15,0.8c0,1.033,0.566,2.5,1.7,4.4
			c0.133,0.233,0.283,0.433,0.449,0.6c0.367,0.6,0.817,1.25,1.351,1.95c0.1,0.166,0.166,0.316,0.2,0.45
			c0.3,0.699,0.483,1.866,0.55,3.5c-1.066-0.667-2.767-1-5.101-1c-1.433,0-2.699,0.183-3.8,0.55c-1.066,0.399-1.983,0.6-2.75,0.6
			c-0.467,0-0.967-0.366-1.5-1.1c-0.8-1.101-1.633-2.917-2.5-5.45C40.867,245.572,40.2,243.022,40.2,241.722z M17.45,242.822
			c3.167,2.166,7.434,2.25,12.8,0.25c-0.333,1.333-0.883,3.1-1.65,5.3c-0.133,0.5-0.267,0.95-0.4,1.35c-1.333,3.5-2.5,5.25-3.5,5.25
			c-0.767,0-1.716-0.216-2.85-0.649c-1.067-0.367-2.3-0.55-3.7-0.55c-2.3,0-4,0.35-5.1,1.05c0.033-0.334,0.05-0.667,0.05-1
			c0.066-1.134,0.216-1.967,0.45-2.5c0.1-0.167,0.167-0.334,0.2-0.5c0.533-0.7,0.983-1.334,1.35-1.9
			c0.133-0.2,0.283-0.383,0.45-0.55c1.133-1.967,1.7-3.467,1.7-4.5C17.25,243.738,17.317,243.389,17.45,242.822z"/>
		<path fill-rule="evenodd" clip-rule="evenodd" fill="#663399" d="M56.95,54.272c1.767,5.567,2.566,11.15,2.4,16.75
			c-2.9,0.633-5.75,1.117-8.55,1.45c-11.367,1.433-21.75,0.95-31.15-1.45c0.1-5.333,0.75-10.767,1.95-16.3
			c1.033-0.5,2.1-0.95,3.2-1.35c-0.9,4.767-1.433,9.5-1.6,14.2c8.3,2.033,17.5,2.283,27.601,0.75c1.633-0.233,3.3-0.517,5-0.85
			c0-2.4-0.167-4.817-0.5-7.25c-0.034-0.467-0.101-0.934-0.2-1.4c-0.334-1.967-0.816-3.95-1.45-5.95
			C54.75,53.272,55.851,53.739,56.95,54.272z"/>
		<path fill-rule="evenodd" clip-rule="evenodd" fill="#333333" d="M5.65,81.422c-0.133-1.133-0.2-1.816-0.2-2.05
			c0.034-0.7,0.034-2.267,0-4.7c-0.1-2.433,0.583-5.4,2.05-8.9c0.1-0.2,0.217-0.417,0.35-0.65c0.033-0.167,0.133-0.3,0.3-0.4
			c0.067-0.233,0.183-0.4,0.35-0.5c0.8-1.1,1.933-2.217,3.4-3.35c3.133-2.533,6.367-4.583,9.7-6.15
			c-1.2,5.533-1.85,10.967-1.95,16.3c9.4,2.4,19.783,2.883,31.15,1.45c2.8-0.333,5.649-0.817,8.55-1.45
			c0.166-5.6-0.634-11.183-2.4-16.75c2.134,0.934,4.316,2.083,6.55,3.45c3.934,2.467,6.534,4.683,7.801,6.65
			c0.066,0.233,0.166,0.4,0.3,0.5c-0.033,0.033-0.134,0.117-0.3,0.25c1.133,3.933,1.783,7.117,1.949,9.55
			c0.134,2.434,0.184,4.017,0.15,4.75c0,0.167-0.05,0.534-0.15,1.1c-0.3,0.167-0.566,0.333-0.8,0.5
			c-1.166,0.667-2.35,1.184-3.55,1.55c-0.566-0.567-1.283-1.367-2.15-2.4c-1.333-1.533-2.3-2.617-2.899-3.25
			c0.1,0.833,0.283,2.1,0.55,3.8c0.233,1.5,0.434,2.783,0.6,3.85c-0.199,0.6-0.399,1.233-0.6,1.9c-5.6,2.1-9.767,2.917-12.5,2.45
			c-2-0.4-3.5-0.733-4.5-1c-0.434-0.1-0.733-0.2-0.9-0.3c-0.767-0.233-2.283-0.583-4.55-1.05c-0.5,0.233-1.033,0.35-1.6,0.35
			s-1.084-0.1-1.55-0.3c-1.534,0.333-3.601,0.767-6.2,1.3c-1.133,0.233-2.333,0.467-3.6,0.7c-3.967,0.767-7.867,0.533-11.7-0.7
			c-1.267-0.433-2.517-0.966-3.75-1.6c-0.133-0.333-0.283-0.7-0.45-1.1h0.25c0-0.2-0.034-0.45-0.1-0.75
			c-0.033-0.1-0.05-0.217-0.05-0.35c-0.1-0.467-0.15-0.817-0.15-1.05c0-1.567,0.1-2.8,0.3-3.7c0.233-1.1,0.65-2,1.25-2.7
			c-0.833,0.9-1.8,1.983-2.9,3.25c-1.1,1.3-2.117,2.417-3.05,3.35C7.684,82.839,6.684,82.222,5.65,81.422z M13.55,119.922
			c0.434-1.1,0.95-2.233,1.55-3.4l0.15-0.15c0.033-0.1,0.083-0.167,0.15-0.2v-0.15c0.033-0.167,0.083-0.283,0.15-0.35l0.2-0.3
			l0.2-0.5c0.1-0.133,0.167-0.3,0.2-0.5c0.067-0.1,0.117-0.2,0.15-0.3c1-1.934,1.733-3.467,2.2-4.6c0.1-0.333,0.233-0.7,0.4-1.1
			c0.933,1.067,2.133,2.333,3.6,3.8c0.3,0.267,0.733,0.55,1.3,0.85c2.367,1.767,5.05,3,8.05,3.7c2.167,0.533,3.55,0.483,4.15-0.15
			c0.933,0.066,2.083-0.1,3.45-0.5c2.967-0.9,6.351-1.65,10.15-2.25c3.8-0.667,7.083-1.567,9.85-2.7c0.167,0.5,0.4,1.067,0.7,1.7
			c0.1,0.167,0.217,0.383,0.35,0.65c0.467,1.033,1.067,2.167,1.801,3.4c0.166,0.467,0.366,0.933,0.6,1.4
			c-0.5,0.533-1.083,1.017-1.75,1.45c-1.9,1.367-4.35,2.5-7.35,3.4c-4.067,1.2-8.267,2.033-12.601,2.5
			c-4.366,0.533-9.5,0.1-15.4-1.3c-4.933-1.233-8.617-2.434-11.05-3.6C14.317,120.422,13.917,120.155,13.55,119.922z"/>
		<path fill-rule="evenodd" clip-rule="evenodd" d="M68.9,82.572c-1.2,0.333-2.417,0.55-3.65,0.65
			c-0.066,0.433-0.149,0.883-0.25,1.35c-0.166-1.067-0.366-2.35-0.6-3.85c-0.267-1.7-0.45-2.967-0.55-3.8
			c0.6,0.633,1.566,1.717,2.899,3.25C67.617,81.206,68.334,82.005,68.9,82.572z M18.9,108.372c0.633-2.2,0.95-4.5,0.95-6.9
			c0-1.6-0.2-3.133-0.6-4.6c-0.167-0.3-0.283-0.583-0.35-0.85c-0.067-0.133-0.15-0.283-0.25-0.45c-0.433-1.034-1.3-2.567-2.6-4.6
			c-0.733-1.033-1.333-2.05-1.8-3.05c-0.233-0.533-0.467-1.066-0.7-1.6c1.233,0.633,2.483,1.167,3.75,1.6
			c3.833,1.233,7.733,1.467,11.7,0.7c1.267-0.233,2.467-0.467,3.6-0.7c2.6-0.533,4.666-0.966,6.2-1.3c0.466,0.2,0.983,0.3,1.55,0.3
			s1.1-0.117,1.6-0.35c2.267,0.466,3.783,0.816,4.55,1.05c0.167,0.1,0.467,0.2,0.9,0.3c1,0.267,2.5,0.6,4.5,1
			c2.733,0.467,6.9-0.35,12.5-2.45c-0.7,1.767-1.616,3.55-2.75,5.35c-1.366,2-2.267,3.533-2.7,4.6c-0.166,0.3-0.316,0.633-0.45,1
			c-0.133,0.434-0.25,0.867-0.35,1.3c-0.267,1.2-0.4,2.433-0.4,3.7c0,2.1,0.25,4.133,0.75,6.1c0.2,0.633,0.417,1.233,0.65,1.8
			c0.033,0.233,0.134,0.5,0.3,0.8c-2.767,1.133-6.05,2.033-9.85,2.7c-3.8,0.6-7.184,1.35-10.15,2.25
			c-1.366,0.4-2.517,0.566-3.45,0.5c-0.6,0.633-1.983,0.683-4.15,0.15c-3-0.7-5.684-1.934-8.05-3.7c-0.566-0.3-1-0.583-1.3-0.85
			C21.034,110.706,19.833,109.439,18.9,108.372z M39.351,93.122l0.1-0.1h-0.1c-0.367,0-0.717,0.033-1.05,0.1H39.351z M12.9,84.472
			c-0.767-0.033-1.4-0.117-1.9-0.25c-0.767-0.2-1.55-0.517-2.35-0.95c0.933-0.933,1.95-2.05,3.05-3.35
			c1.1-1.267,2.067-2.35,2.9-3.25c-0.6,0.7-1.017,1.6-1.25,2.7c-0.2,0.9-0.3,2.133-0.3,3.7c0,0.233,0.05,0.583,0.15,1.05
			c0,0.133,0.017,0.25,0.05,0.35H12.9z"/>
		<path fill-rule="evenodd" clip-rule="evenodd" fill="#FDA31C" d="M72.301,86.472c-0.9,0-2.983,0-6.25,0
			c-1.801,4-3.534,7.35-5.2,10.05c-0.767,1.8-1.15,5.3-1.15,10.5c0,1.333,0.217,3.267,0.65,5.8h-0.2c-0.3-0.633-0.533-1.2-0.7-1.7
			c-0.166-0.3-0.267-0.567-0.3-0.8c-0.233-0.567-0.45-1.167-0.65-1.8v-11.1c0.134-0.367,0.284-0.7,0.45-1
			c0.434-1.066,1.334-2.6,2.7-4.6c1.134-1.8,2.05-3.583,2.75-5.35c0.2-0.667,0.4-1.3,0.6-1.9c0.101-0.467,0.184-0.917,0.25-1.35
			c1.233-0.1,2.45-0.317,3.65-0.65c1.2-0.367,2.384-0.883,3.55-1.55c0.233-0.167,0.5-0.333,0.8-0.5
			C73.084,81.689,72.767,83.672,72.301,86.472z M66.7,152.072c0.434,0.1,0.851,0.149,1.25,0.149c0.767,0,2.134-0.833,4.101-2.5
			c0.466-0.366,0.883-0.733,1.25-1.1c-0.5,2.467-1.834,5.167-4,8.1c-2.034,2.7-3.634,4.434-4.801,5.2
			C65.5,158.289,66.233,155.006,66.7,152.072z M1.101,147.672l0.2-0.149c1.8,1.133,2.917,1.699,3.35,1.699
			c1.167,0,2.3-0.566,3.4-1.699c0.4-0.367,0.717-0.75,0.95-1.15c0.133,4.1,0.633,8.283,1.5,12.55c-1.167,1.033-1.75,1.417-1.75,1.15
			c-0.067-0.634-0.467-1.066-1.2-1.3c-0.767-0.134-2.233-2.384-4.4-6.75C2.25,150.256,1.567,148.806,1.101,147.672z M13.55,86.322
			c0.233,0.533,0.467,1.066,0.7,1.6c0.467,1,1.066,2.017,1.8,3.05c1.3,2.033,2.167,3.566,2.6,4.6c0.1,0.167,0.183,0.316,0.25,0.45
			c-0.2,0.267-0.35,0.617-0.45,1.05c-0.133,1.466-0.283,4.25-0.45,8.35c-0.033,0.6-0.1,1.217-0.2,1.85
			c-0.233,2.3-0.7,4.483-1.4,6.55l-0.1-0.1c0-6.2-1.233-12.167-3.7-17.9c-2.233-4.333-3.434-6.967-3.6-7.9c0-0.1,0-0.183,0-0.25
			v-1.5c-1.533-0.066-2.533-0.15-3-0.25c0-0.066,0-0.133,0-0.2c-0.133-1.833-0.25-3.267-0.35-4.3c1.033,0.8,2.033,1.417,3,1.85
			c0.8,0.434,1.583,0.75,2.35,0.95c0.5,0.133,1.133,0.217,1.9,0.25c0.033,0.233,0.1,0.483,0.2,0.75
			C13.267,85.622,13.417,85.989,13.55,86.322z M53.45,243.922c-4.399,2.101-8.816,1.367-13.25-2.2c0-0.1,0.033-0.183,0.101-0.25
			c0.033-0.233,0.1-0.517,0.199-0.85l0.101-0.1c4.434,2.366,8.583,2.883,12.45,1.55C53.217,242.905,53.351,243.522,53.45,243.922z
			 M30.25,243.072c-5.367,2-9.633,1.916-12.8-0.25c0.1-0.533,0.267-1.2,0.5-2c0.034,0,0.083,0,0.15,0v-0.101
			c4.4,2.534,8.55,2.45,12.45-0.25c0.033,0.101,0.05,0.217,0.05,0.351C30.601,241.322,30.484,242.072,30.25,243.072z"/>
		<polygon fill-rule="evenodd" clip-rule="evenodd" fill="#8C478D" points="39.351,93.022 39.45,93.022 39.351,93.122 		"/>
		<path fill-rule="evenodd" clip-rule="evenodd" fill="#999999" d="M44.7,254.822c0.533,0.733,1.033,1.1,1.5,1.1
			c0.767,0,1.684-0.2,2.75-0.6c1.101-0.367,2.367-0.55,3.8-0.55c2.334,0,4.034,0.333,5.101,1c-0.066-1.634-0.25-2.801-0.55-3.5
			l0.05-0.051c0.1,0.134,0.233,0.267,0.399,0.4c0.9,1.134,1.65,2.25,2.25,3.35v1.351c-0.366,0.666-0.716,1.217-1.05,1.649
			c-0.566,0.834-1.05,1.367-1.45,1.601c-1.333,0.666-2.699,1-4.1,1c-3.134,0-5.267-0.5-6.4-1.5
			C46.134,259.339,45.367,257.589,44.7,254.822z M13.101,253.822c0,0.333-0.017,0.666-0.05,1c1.1-0.7,2.8-1.05,5.1-1.05
			c1.4,0,2.633,0.183,3.7,0.55c1.133,0.434,2.083,0.649,2.85,0.649c1,0,2.167-1.75,3.5-5.25c0.1,2.9-0.633,5.384-2.2,7.45
			c-2,2.7-4.05,4.167-6.15,4.4c-2.067,0.233-4.2,0.033-6.4-0.601c-2.233-0.666-3.2-1.6-2.9-2.8c0.3-1.233,0.617-2.184,0.95-2.85
			C11.634,254.889,12.167,254.389,13.101,253.822z"/>
		<path fill-rule="evenodd" clip-rule="evenodd" fill="#663366" d="M12.9,84.472h0.35c0.066,0.3,0.1,0.55,0.1,0.75h-0.25
			C13,84.956,12.934,84.706,12.9,84.472z"/>
	</g>
	<g>
		<g>
			<path fill-rule="evenodd" clip-rule="evenodd" fill="#CC6600" d="M22.45,18.372c-1.8-0.6-2.7-1.45-2.7-2.55
				c0-0.567,0.033-1.133,0.1-1.7c1.667-3.133,3.316-5.533,4.95-7.2c1.6-1.6,3.2-2.9,4.8-3.9c1.566-0.9,2.833-1.517,3.8-1.85
				c0.233-0.133,0.533-0.3,0.9-0.5c1.133-0.466,2.517-0.683,4.15-0.65c1.467,0,2.75,0.267,3.851,0.8c0.166,0,0.383,0.017,0.649,0.05
				c0.7,0.433,1.283,0.917,1.75,1.45c0.566,0.4,1.834,0.816,3.8,1.25c0.601,0.167,1.084,0.383,1.45,0.65
				c0.9,0.566,2.101,1.517,3.601,2.85c2.267,2.233,3.949,4.4,5.05,6.5c0.934,1.867,1.75,3.833,2.45,5.9
				c-0.134,0.733-0.417,1.267-0.851,1.6c-0.566,0.433-1.483,0.65-2.75,0.65c-2.899,0-5.7-0.833-8.399-2.5
				c-3-1.934-4.384-4.083-4.15-6.45c-3.167,2.167-6,3.733-8.5,4.7c-2.3,0.9-4.633,1.417-7,1.55c0.633-0.433,1.683-1.15,3.15-2.15
				c1.467-0.967,2.434-1.767,2.9-2.4c0.534-0.6,0.934-1.033,1.2-1.3c0.4-0.466,0.733-1.033,1-1.7c0.533-0.934,1.316-2.35,2.35-4.25
				c-0.5,0.533-1.083,1.2-1.75,2c-0.833,1-1.366,1.583-1.6,1.75c-1.067,1.2-2.3,2.066-3.7,2.6l-0.15-0.15
				c0.6-0.633,1.767-2.283,3.5-4.95c-1,0.333-2.233,1.267-3.7,2.8c-1.934,2.033-3.4,3.417-4.4,4.15c0.367-0.733,1.05-1.85,2.05-3.35
				c0.467-0.767,1.017-1.583,1.65-2.45c-0.633,0.4-1.267,0.8-1.9,1.2c-1,0.733-1.65,1.15-1.95,1.25l-0.05-0.1
				c0.833-1.133,1.517-2.083,2.05-2.85L30,8.972c-1.533,1.3-3.267,3.3-5.2,6C23.9,16.172,23.117,17.305,22.45,18.372z M49.45,6.722
				c0.334,0.1,0.783,0.217,1.351,0.35c0.399,0.133,0.716,0.316,0.949,0.55c-0.767-1.033-1.316-1.733-1.649-2.1
				c-0.5-0.533-1.066-0.8-1.7-0.8c-0.134,0-0.533,0.9-1.2,2.7c-0.666,1.8-1.066,2.867-1.2,3.2l0.051,0.1c0.1,0,0.166,0,0.199,0
				c0.067,0.167,0.317,0.583,0.75,1.25c0.5,0.733,0.9,1.217,1.2,1.45v-1.3c-0.133-0.1-0.233-0.367-0.3-0.8
				c-0.1-0.4-0.167-0.633-0.2-0.7h0.05c0.233,0.067,0.434,0.133,0.601,0.2c0.1,0.066,0.217,0.15,0.35,0.25h0.7
				c-0.134-0.167-0.283-0.45-0.45-0.85c-0.166-0.5-0.366-0.95-0.6-1.35c1.066,0.5,1.916,1.083,2.55,1.75c0.366,0.3,0.7,0.617,1,0.95
				v-0.3c-0.1-0.3-0.5-1.066-1.2-2.3c-0.566-1.033-1-1.767-1.3-2.2L49.45,6.722z"/>
			<path fill-rule="evenodd" clip-rule="evenodd" fill="#FFFFFF" d="M29.4,19.022c-0.6,0.467-1.383,1.033-2.35,1.7
				c-1.6,1.133-2.517,1.8-2.75,2c0.9-1.033,1.717-2.083,2.45-3.15c0.167-0.167,0.316-0.35,0.45-0.55
				c0.434-0.533,0.717-0.967,0.85-1.3l0.15-0.1c-1.1,0.5-1.833,0.85-2.2,1.05c-0.1,0.1-0.25,0.167-0.45,0.2
				c-0.367,0.333-0.983,0.783-1.85,1.35l-0.05-0.05c0.333-0.533,0.633-0.983,0.9-1.35c0.333-0.567,0.55-0.967,0.65-1.2
				c-0.6,0.367-1.117,0.7-1.55,1c-0.2,0.167-0.417,0.367-0.65,0.6c-0.6,0.533-1.55,1.65-2.85,3.35c0.567-1.267,1.333-2.667,2.3-4.2
				c0.667-1.067,1.45-2.2,2.35-3.4c1.934-2.7,3.667-4.7,5.2-6l0.05,0.15c-0.533,0.767-1.217,1.717-2.05,2.85l-0.15,0.15
				c0.033,0,0.083,0,0.15,0c0.033,0,0.05-0.017,0.05-0.05c0.3-0.1,0.95-0.517,1.95-1.25c0.633-0.4,1.267-0.8,1.9-1.2
				c-0.633,0.867-1.183,1.683-1.65,2.45c-1,1.5-1.684,2.617-2.05,3.35c1-0.733,2.467-2.117,4.4-4.15c1.466-1.533,2.7-2.467,3.7-2.8
				c-1.733,2.667-2.9,4.316-3.5,4.95v0.15c0.067,0,0.117,0,0.15,0c1.4-0.534,2.633-1.4,3.7-2.6c0.233-0.167,0.767-0.75,1.6-1.75
				c0.667-0.8,1.25-1.467,1.75-2c-1.033,1.9-1.816,3.316-2.35,4.25c-0.267,0.667-0.6,1.233-1,1.7c-0.267,0.267-0.667,0.7-1.2,1.3
				c-0.466,0.633-1.433,1.433-2.9,2.4C31.083,17.872,30.034,18.589,29.4,19.022z M49.4,6.772c0.3,0.434,0.733,1.167,1.3,2.2
				c0.7,1.233,1.101,2,1.2,2.3v0.3c-0.3-0.333-0.634-0.65-1-0.95c-0.634-0.667-1.483-1.25-2.55-1.75c0.233,0.4,0.434,0.85,0.6,1.35
				c0.167,0.4,0.316,0.683,0.45,0.85h-0.7c-0.133-0.1-0.25-0.184-0.35-0.25c-0.167-0.067-0.367-0.133-0.601-0.2H47.7
				c0.033,0.067,0.101,0.3,0.2,0.7c0.066,0.433,0.167,0.7,0.3,0.8v1.3c-0.3-0.233-0.7-0.716-1.2-1.45
				c-0.433-0.667-0.683-1.083-0.75-1.25c-0.033,0-0.1,0-0.199,0L46,10.622c0.134-0.333,0.534-1.4,1.2-3.2
				c0.667-1.8,1.066-2.7,1.2-2.7c0.634,0,1.2,0.267,1.7,0.8c0.333,0.367,0.883,1.067,1.649,2.1c-0.233-0.233-0.55-0.417-0.949-0.55
				c-0.567-0.133-1.017-0.25-1.351-0.35H49.4V6.772z M25.5,17.472h-0.1c-0.033,0-0.067,0.05-0.1,0.15
				C25.366,17.523,25.433,17.474,25.5,17.472z"/>
			<polygon fill-rule="evenodd" clip-rule="evenodd" fill="#F40202" points="49.45,6.722 49.4,6.772 49.4,6.722 			"/>
			<path fill-rule="evenodd" clip-rule="evenodd" fill="#FDA31C" d="M53.15,28.372v0.05c0.434,0.767,0.75,1.284,0.95,1.55
				c0.133,0.3,0.267,0.617,0.399,0.95c0,0.1,0.084,0.217,0.25,0.35c0,0.6,0.017,1.483,0.051,2.65c0,0.7-0.067,1.4-0.2,2.1
				c-0.3-2.566-1.15-5.117-2.55-7.65c-0.334-0.067-0.75-0.1-1.25-0.1c-2.034,0-4.25,0.517-6.65,1.55c-0.8,0.333-2.033,1.267-3.7,2.8
				c0.834-3.6,2.017-6.05,3.55-7.35c1.167-0.933,2.801-1.517,4.9-1.75c-0.7-0.867-1.483-1.767-2.35-2.7
				c-0.767-0.833-1.684-1.833-2.75-3c-1,0.8-2.784,1.966-5.351,3.5c-1.899,1.167-3.683,2.316-5.35,3.45
				c1.667,0.967,3.066,4.467,4.2,10.5c-2.467-3.3-4.5-5.283-6.101-5.95c-0.966-0.467-1.917-0.767-2.85-0.9
				c-1.1,1-1.867,1.717-2.3,2.15c-0.233,0.267-0.867,0.716-1.9,1.35L24,31.172c0.367-0.333,0.933-0.85,1.7-1.55
				c0.4-0.367,0.883-0.783,1.45-1.25c0.167-0.2,0.35-0.4,0.55-0.6c2.034-2,3.367-3.183,4-3.55c0.034-0.033,0.083-0.05,0.15-0.05
				c0.833-0.533,1.9-1.283,3.2-2.25c1.267-0.833,2.466-1.533,3.6-2.1c1.1-0.534,2.15-1.184,3.15-1.95c1.033-0.7,1.833-1.4,2.399-2.1
				c0.7,1.3,1.834,2.817,3.4,4.55c1.066,1.167,1.934,2.2,2.6,3.1c0.4,0.534,0.733,1.017,1,1.45
				C52.034,26.339,52.684,27.505,53.15,28.372z M30.75,48.922v-2.2c1.566,1,2.833,1.733,3.8,2.2c1.8,0.934,3.367,1.4,4.7,1.4
				c1.367,0,2.9-0.45,4.601-1.35c0.899-0.467,1.833-1.05,2.8-1.75c0.566-0.434,1.184-0.917,1.85-1.45v2.45
				c-0.1,0.033-0.199,0.1-0.3,0.2c-5.166,4.3-10.833,4.55-17,0.75c-0.066-0.033-0.117-0.05-0.15-0.05
				C30.95,49.022,30.851,48.956,30.75,48.922z"/>
			<path fill-rule="evenodd" clip-rule="evenodd" fill="#FFCC66" d="M30.75,49.172v-0.25c0.1,0.034,0.2,0.1,0.3,0.2
				c0.033,0,0.083,0.017,0.15,0.05c6.167,3.8,11.834,3.55,17-0.75c0.101-0.1,0.2-0.167,0.3-0.2v2.8v1.4
				c-5.433,4.633-11.35,4.833-17.75,0.6V49.172z M30.75,46.722c-0.2-0.167-0.367-0.283-0.5-0.35c0.566,0.4,0.167,0.15-1.2-0.75
				c-1.433-0.933-2.933-2.617-4.5-5.05c-1.6-2.5-1.733-5.383-0.4-8.65c1.033-0.633,1.667-1.083,1.9-1.35
				c0.434-0.434,1.2-1.15,2.3-2.15c0.933,0.133,1.883,0.434,2.85,0.9c1.6,0.667,3.633,2.65,6.101,5.95
				c-1.134-6.033-2.534-9.533-4.2-10.5c1.667-1.133,3.45-2.283,5.35-3.45c2.566-1.534,4.351-2.7,5.351-3.5
				c1.066,1.167,1.983,2.167,2.75,3c0.866,0.933,1.649,1.833,2.35,2.7c-2.1,0.233-3.733,0.817-4.9,1.75
				c-1.533,1.3-2.716,3.75-3.55,7.35c1.667-1.533,2.9-2.467,3.7-2.8c2.4-1.034,4.616-1.55,6.65-1.55c0.5,0,0.916,0.033,1.25,0.1
				c1.399,2.533,2.25,5.083,2.55,7.65c-0.134,0.767-0.367,1.55-0.7,2.35c-0.3,0.633-0.583,1.133-0.85,1.5
				c-0.067,0.467-0.233,0.917-0.5,1.35c-0.167,0.3-0.334,0.583-0.5,0.85c0.033,0,0.1-0.017,0.199-0.05
				c-0.333,0.367-0.666,0.767-1,1.2c-0.233,0.133-0.449,0.3-0.649,0.5c-0.167,0.2-0.351,0.417-0.55,0.65l-0.101,0.05
				c-0.166,0.2-0.399,0.417-0.7,0.65c-0.267,0.267-0.517,0.5-0.75,0.7c-0.666,0.533-1.283,1.017-1.85,1.45
				c-0.967,0.7-1.9,1.283-2.8,1.75c-1.7,0.9-3.233,1.35-4.601,1.35c-1.333,0-2.899-0.467-4.7-1.4
				C33.583,48.456,32.317,47.722,30.75,46.722z M53.15,28.372h0.1l-0.1,0.05V28.372z M42.15,44.222l0.15-0.1
				c0.566-0.133,1.133-0.3,1.699-0.5c-0.566,0.2-1.133,0.367-1.699,0.5v-0.05L42.15,44.222c-0.134-0.233-0.333-0.5-0.6-0.8
				c-0.034-0.1-0.101-0.167-0.2-0.2c-0.134-0.2-0.316-0.367-0.55-0.5l-0.15-0.05l-0.15-0.1c-0.433-0.233-0.85-0.333-1.25-0.3
				c-0.833,0.1-1.6,0.317-2.3,0.65c-0.033,0.067-0.1,0.117-0.2,0.15c-0.5,0.233-0.766,0.55-0.8,0.95v0.05v0.15
				c0,0.033,0.017,0.083,0.05,0.15v0.05c0,0.233,0.1,0.467,0.3,0.7c0.2,0.2,0.433,0.417,0.7,0.65c0.067,0,0.101,0.033,0.101,0.1
				c0.6,0.333,1.149,0.5,1.649,0.5c0.601,0,1.233-0.133,1.9-0.4c0.767-0.233,1.233-0.583,1.4-1.05H42.2l-0.05-0.05
				c0.033-0.1,0.083-0.183,0.15-0.25v-0.1c0-0.1-0.034-0.183-0.101-0.25L42.15,44.222z M36.3,45.122h-0.05l0.05,0.05V45.122z
				 M35.95,44.022c-0.033,0-0.1,0-0.2,0c-0.4-0.1-0.8-0.233-1.2-0.4c0.4,0.167,0.8,0.3,1.2,0.4
				C35.851,44.022,35.917,44.022,35.95,44.022z M40.801,46.122l-0.15-0.15l0.05,0.15H40.801z"/>
			<path fill-rule="evenodd" clip-rule="evenodd" fill="#984B01" d="M24.15,31.922c-1.333,3.267-1.2,6.15,0.4,8.65
				c1.567,2.433,3.067,4.117,4.5,5.05c1.367,0.9,1.767,1.15,1.2,0.75c0.133,0.067,0.3,0.183,0.5,0.35v2.2v0.25l-0.4,0.15v2
				c-0.633,0.633-1.184,1.583-1.65,2.85c-0.333,1-0.55,1.934-0.65,2.8c-2.4,6.2-3.483,11.933-3.25,17.2
				c-0.167,0.534-0.25,1.05-0.25,1.55c0.167,0.233,0.267,0.483,0.3,0.75c0.867,2.267,1.833,3.783,2.9,4.55
				c0.4,0.267,0.833,0.434,1.3,0.5H28c0-0.066-0.117-0.15-0.35-0.25c-0.267-0.033-0.6-0.1-1-0.2c-1.233-0.333-2.267-0.684-3.1-1.05
				c-1.467-0.767-2.55-1.833-3.25-3.2c-0.767,0.466-1.983-1.8-3.65-6.8c-1.633-5-2.167-9.333-1.6-13c0.5-3.667,0.967-7.933,1.4-12.8
				c0.434-4.9,0.434-8.5,0-10.8c-0.1-0.633-0.1-1,0-1.1c-0.133-0.6-0.2-1.184-0.2-1.75c-0.1-1.667,0.033-3.8,0.4-6.4
				c0.4-2.733,1-5.033,1.8-6.9c0.767-1.967,1.233-3.017,1.4-3.15c-0.067,0.567-0.1,1.133-0.1,1.7c0,1.1,0.9,1.95,2.7,2.55
				c-0.966,1.533-1.733,2.933-2.3,4.2c1.3-1.7,2.25-2.817,2.85-3.35c0.233-0.233,0.45-0.434,0.65-0.6
				c0.267,0.067,0.567,0.133,0.9,0.2c-0.267,0.367-0.566,0.816-0.9,1.35l0.05,0.05c0.867-0.567,1.483-1.017,1.85-1.35
				c0.533,0.1,1.083,0.15,1.65,0.15c-0.133,0.2-0.283,0.383-0.45,0.55c-0.733,1.066-1.55,2.117-2.45,3.15
				c0.233-0.2,1.15-0.867,2.75-2c0.967-0.667,1.75-1.233,2.35-1.7c2.367-0.133,4.7-0.65,7-1.55c2.5-0.967,5.333-2.533,8.5-4.7
				c-0.233,2.367,1.15,4.517,4.15,6.45c2.699,1.667,5.5,2.5,8.399,2.5c1.267,0,2.184-0.217,2.75-0.65
				c0.434-0.333,0.717-0.867,0.851-1.6c0.1,0.267,0.199,0.55,0.3,0.85c0.767,2.367,1.083,4.667,0.95,6.9
				c-0.167,2.167-0.483,4.2-0.95,6.1c-0.2,0.767-0.417,1.5-0.65,2.2c-0.166,0.4-0.35,0.8-0.55,1.2l-4.55,16.95l-7.101-2.65v-2.8
				v-2.45c0.233-0.2,0.483-0.433,0.75-0.7c0.301-0.233,0.534-0.45,0.7-0.65h0.101v-0.05c0.199-0.233,0.383-0.45,0.55-0.65
				c0.2-0.2,0.416-0.367,0.649-0.5c0.334-0.434,0.667-0.833,1-1.2c-0.1,0.033-0.166,0.05-0.199,0.05
				c0.166-0.267,0.333-0.55,0.5-0.85c0.267-0.434,0.433-0.883,0.5-1.35c0.267-0.367,0.55-0.867,0.85-1.5
				c0.333-0.8,0.566-1.583,0.7-2.35c0.133-0.7,0.2-1.4,0.2-2.1c-0.034-1.167-0.051-2.05-0.051-2.65
				c-0.166-0.133-0.25-0.25-0.25-0.35c-0.133-0.333-0.267-0.65-0.399-0.95c-0.2-0.267-0.517-0.783-0.95-1.55l0.1-0.05h-0.1
				c-0.467-0.867-1.116-2.033-1.95-3.5c-0.267-0.433-0.6-0.917-1-1.45c-0.666-0.9-1.533-1.933-2.6-3.1
				c-1.566-1.733-2.7-3.25-3.4-4.55c-0.566,0.7-1.366,1.4-2.399,2.1c-1,0.767-2.051,1.417-3.15,1.95
				c-1.134,0.566-2.333,1.267-3.6,2.1c-1.3,0.967-2.367,1.717-3.2,2.25c-0.067,0-0.117,0.017-0.15,0.05
				c-0.633,0.367-1.966,1.55-4,3.55c-0.2,0.2-0.383,0.4-0.55,0.6c-0.567,0.467-1.05,0.883-1.45,1.25
				c-0.767,0.7-1.333,1.217-1.7,1.55L24.15,31.922z M56,46.572v0.05l0.15-0.05H56z"/>
			<path fill-rule="evenodd" clip-rule="evenodd" fill="#FF6600" d="M49.95,44.422l0.101-0.05v0.05H49.95z M56,46.572h0.15
				L56,46.622V46.572z"/>
			<path fill-rule="evenodd" clip-rule="evenodd" fill="#FF6633" d="M39.15,44.522c-1.033-0.033-2.1-0.2-3.2-0.5
				c0.034-0.4,0.3-0.717,0.8-0.95c0.101-0.034,0.167-0.083,0.2-0.15c0.7-0.333,1.467-0.55,2.3-0.65c0.4-0.033,0.817,0.067,1.25,0.3
				l0.15,0.1l0.15,0.05c0.233,0.133,0.416,0.3,0.55,0.5c0.1,0.033,0.166,0.1,0.2,0.2c0.267,0.3,0.466,0.567,0.6,0.8L39.15,44.522z"
				/>
			<path fill-rule="evenodd" clip-rule="evenodd" fill="#FF9966" d="M35.95,44.072c1.101,0.3,2.167,0.45,3.2,0.45l3-0.3l0.05,0.05
				c0.066,0.067,0.101,0.15,0.101,0.25v0.1c-0.067,0.067-0.117,0.15-0.15,0.25c-0.066,0-0.1,0.017-0.1,0.05
				c-0.167,0.467-0.634,0.817-1.4,1.05c-0.667,0.267-1.3,0.4-1.9,0.4c-0.5,0-1.05-0.167-1.649-0.5c0-0.067-0.033-0.1-0.101-0.1
				c-0.267-0.233-0.5-0.45-0.7-0.65c-0.2-0.233-0.3-0.467-0.3-0.7v-0.05c-0.033-0.067-0.05-0.117-0.05-0.15V44.072z"/>
			<path fill-rule="evenodd" clip-rule="evenodd" fill="#E30202" d="M32.8,13.422l0.15,0.15c-0.033,0-0.083,0-0.15,0V13.422z"/>
			<path fill-rule="evenodd" clip-rule="evenodd" fill="#FF0000" d="M28,11.972l0.05,0.1c0,0.033-0.017,0.05-0.05,0.05V11.972z"/>
			<path fill-rule="evenodd" clip-rule="evenodd" fill="#FF9900" d="M28,11.972v0.15c-0.067,0-0.117,0-0.15,0L28,11.972z
				 M24.55,18.822c-0.333-0.067-0.633-0.133-0.9-0.2c0.433-0.3,0.95-0.633,1.55-1C25.101,17.855,24.884,18.255,24.55,18.822z
				 M27.2,19.022c-0.566,0-1.117-0.05-1.65-0.15c0.2-0.033,0.35-0.1,0.45-0.2c0.367-0.2,1.1-0.55,2.2-1.05l-0.15,0.1
				C27.917,18.055,27.634,18.489,27.2,19.022z M25.5,17.472c-0.068,0.001-0.134,0.051-0.2,0.15c0.033-0.1,0.067-0.15,0.1-0.15H25.5z
				"/>
			
				<path fill-rule="evenodd" clip-rule="evenodd" fill="none" stroke="#FF0033" stroke-linecap="round" stroke-linejoin="round" stroke-miterlimit="3" d="
				M42.301,44.122c0.566-0.133,1.133-0.3,1.699-0.5 M35.95,44.022c-0.033,0-0.1,0-0.2,0c-0.4-0.1-0.8-0.233-1.2-0.4 M42.301,44.122
				l-0.15,0.1 M39.15,44.522l3-0.3 M39.15,44.522c-1.033-0.033-2.1-0.2-3.2-0.5"/>
		</g>
		<g>
			<polygon fill-rule="evenodd" clip-rule="evenodd" fill="#653201" points="50.45,23.772 54.601,24.322 42.65,25.022 42.65,24.472 
							"/>
		</g>
		<g>
			<polygon fill-rule="evenodd" clip-rule="evenodd" fill="#653201" points="34.9,25.222 22.95,24.522 27.101,23.972 34.9,24.672 
							"/>
		</g>
		<g>
			<path fill-rule="evenodd" clip-rule="evenodd" fill="#FFFFFF" d="M44.65,28.222c1.833-0.5,3.917-0.5,6.25,0l-1.3,2.45l-4.95-0.05
				c-0.3-0.133-0.55-0.25-0.75-0.35c-0.634-0.3-0.75-0.7-0.35-1.2C43.75,28.839,44.117,28.555,44.65,28.222z"/>
			<g>
				<g>
					<path fill-rule="evenodd" clip-rule="evenodd" fill="#999900" d="M47.2,29.172c-0.033,0-0.083,0-0.149,0
						c-0.667,0-1.051,0.333-1.15,1c-0.267-0.3-0.4-0.65-0.4-1.05s0.134-0.75,0.4-1.05c0.267-0.267,0.6-0.4,1-0.4
						c0.366,0,0.684,0.133,0.95,0.4c0.267,0.3,0.399,0.65,0.399,1.05s-0.133,0.75-0.399,1.05h-0.05
						c-0.034-0.167-0.084-0.316-0.15-0.45c-0.1-0.233-0.217-0.4-0.35-0.5l0.05-0.05c0.2,0,0.35-0.083,0.45-0.25
						c0.066-0.1,0.1-0.2,0.1-0.3c0-0.2-0.033-0.35-0.1-0.45c-0.101-0.1-0.233-0.15-0.4-0.15c-0.366,0-0.55,0.2-0.55,0.6
						c0,0.067,0.017,0.15,0.05,0.25c0.1,0.133,0.217,0.217,0.35,0.25L47.2,29.172z"/>
					<path fill-rule="evenodd" clip-rule="evenodd" fill="#FFFFFF" d="M47.351,29.172c-0.033,0-0.066-0.017-0.101-0.05
						c-0.133-0.033-0.25-0.117-0.35-0.25c-0.033-0.1-0.05-0.183-0.05-0.25c0-0.4,0.184-0.6,0.55-0.6c0.167,0,0.3,0.05,0.4,0.15
						c0.066,0.1,0.1,0.25,0.1,0.45c0,0.1-0.033,0.2-0.1,0.3C47.7,29.089,47.551,29.172,47.351,29.172z"/>
					<path fill-rule="evenodd" clip-rule="evenodd" fill="#99CC00" d="M45.9,30.172c0.1-0.667,0.483-1,1.15-1
						c0.066,0,0.116,0,0.149,0c0.033,0.034,0.066,0.05,0.101,0.05c0.133,0.1,0.25,0.267,0.35,0.5c0.066,0.133,0.116,0.283,0.15,0.45
						v0.05c-0.267,0.267-0.567,0.4-0.9,0.4C46.5,30.622,46.167,30.472,45.9,30.172z"/>
					<path fill-rule="evenodd" clip-rule="evenodd" fill="#CC9900" d="M47.801,30.172h0.05l-0.05,0.05V30.172z M47.301,29.222
						c-0.034,0-0.067-0.017-0.101-0.05l0.05-0.05c0.034,0.033,0.067,0.05,0.101,0.05L47.301,29.222z"/>
				</g>
			</g>
			<g>
				
					<path fill-rule="evenodd" clip-rule="evenodd" fill="none" stroke="#000000" stroke-linecap="round" stroke-linejoin="round" stroke-miterlimit="3" d="
					M43.551,29.072c0.199-0.267,0.55-0.55,1.05-0.85c1.833-0.5,3.916-0.5,6.25,0"/>
			</g>
		</g>
		<g>
			<path fill-rule="evenodd" clip-rule="evenodd" fill="#FFFFFF" d="M33.351,30.422c-0.167,0.1-0.4,0.2-0.7,0.3l-4.95,0.1l-1.3-2.45
				c2.333-0.5,4.417-0.5,6.25,0c0.533,0.3,0.9,0.583,1.1,0.85C34.15,29.722,34.017,30.122,33.351,30.422z"/>
			<g>
				<g>
					<path fill-rule="evenodd" clip-rule="evenodd" fill="#999900" d="M30.65,29.372l-0.05,0.05c-0.034,0-0.083,0-0.15,0
						c-0.667,0-1.05,0.333-1.15,1c-0.267-0.3-0.4-0.65-0.4-1.05s0.133-0.75,0.4-1.05c0.267-0.267,0.6-0.4,1-0.4
						c0.367,0,0.684,0.133,0.95,0.4c0.267,0.3,0.4,0.65,0.4,1.05s-0.133,0.75-0.4,1.05H31.2c-0.033-0.167-0.083-0.316-0.15-0.45
						c-0.1-0.233-0.217-0.4-0.35-0.5l0.05-0.05c0.2,0,0.35-0.083,0.45-0.25c0.067-0.1,0.1-0.2,0.1-0.3c0-0.2-0.033-0.35-0.1-0.45
						c-0.1-0.1-0.233-0.15-0.4-0.15c-0.367,0-0.55,0.2-0.55,0.6c0,0.067,0.017,0.15,0.05,0.25
						C30.4,29.255,30.517,29.339,30.65,29.372z"/>
					<path fill-rule="evenodd" clip-rule="evenodd" fill="#FFFFFF" d="M30.75,29.422c-0.033,0-0.067-0.017-0.1-0.05
						c-0.133-0.033-0.25-0.117-0.35-0.25c-0.033-0.1-0.05-0.183-0.05-0.25c0-0.4,0.183-0.6,0.55-0.6c0.167,0,0.3,0.05,0.4,0.15
						c0.067,0.1,0.1,0.25,0.1,0.45c0,0.1-0.033,0.2-0.1,0.3C31.101,29.339,30.95,29.422,30.75,29.422z"/>
					<path fill-rule="evenodd" clip-rule="evenodd" fill="#CC9900" d="M30.7,29.472c-0.033,0-0.066-0.017-0.1-0.05l0.05-0.05
						c0.033,0.033,0.067,0.05,0.1,0.05L30.7,29.472z M31.2,30.472v-0.05h0.05L31.2,30.472z"/>
					<path fill-rule="evenodd" clip-rule="evenodd" fill="#99CC00" d="M31.2,30.472c-0.267,0.267-0.566,0.4-0.9,0.4
						c-0.4,0-0.733-0.15-1-0.45c0.1-0.667,0.483-1,1.15-1c0.067,0,0.117,0,0.15,0c0.033,0.034,0.066,0.05,0.1,0.05
						c0.133,0.1,0.25,0.267,0.35,0.5c0.067,0.133,0.117,0.283,0.15,0.45V30.472z"/>
				</g>
			</g>
			<g>
				
					<path fill-rule="evenodd" clip-rule="evenodd" fill="none" stroke="#000000" stroke-linecap="round" stroke-linejoin="round" stroke-miterlimit="3" d="
					M33.75,29.222c-0.2-0.267-0.567-0.55-1.1-0.85c-1.833-0.5-3.917-0.5-6.25,0"/>
			</g>
		</g>
		<g>
			<path fill-rule="evenodd" clip-rule="evenodd" fill="#FDA31C" d="M40.301,38.972c0.199-0.133,0.517-0.35,0.949-0.65h0.301v0.7
				c-0.467,0.434-0.851,0.767-1.15,1c-0.1,0.133-0.25,0.25-0.45,0.35c-0.333,0.267-0.649,0.4-0.95,0.4
				c-0.233,0-0.55-0.117-0.949-0.35c-0.334-0.2-0.733-0.45-1.2-0.75c-0.733-0.667-1.233-1.083-1.5-1.25
				c-0.034-0.066-0.067-0.1-0.1-0.1v-0.2c0.867,0.067,1.6,0.283,2.2,0.65c0.601,0.267,1.15,0.4,1.65,0.4
				C39.534,39.172,39.934,39.105,40.301,38.972z"/>
		</g>
	</g>
	<g>
		<g>
			<path fill-rule="evenodd" clip-rule="evenodd" d="M64.45,121.672c0.033,0.133,0.084,0.284,0.15,0.45
				c0.233,0.567,0.434,1.133,0.6,1.7c1.033,3.033,1.684,6.066,1.95,9.1c0.233,3,0.233,7.667,0,14c-0.066,1.601-0.25,3.334-0.55,5.2
				c-0.467,2.934-1.184,6.2-2.15,9.8c-0.033,0.134-0.066,0.25-0.1,0.351c-0.733,2.666-1.65,5.533-2.75,8.6
				c-0.233,0.6-0.45,1.2-0.65,1.8c-0.233,0.733-0.483,1.566-0.75,2.5c-0.366,1.434-0.666,3.934-0.899,7.5L61,198.322
				c0.534,3.434,0.351,7.75-0.55,12.95c-0.967,5.233-2.399,11.183-4.3,17.85c-1.167,4.2-2.066,8.483-2.7,12.85
				c-0.066,0.034-0.133,0.067-0.2,0.101c-0.1,0.033-0.199,0.05-0.3,0.05c-3.833,1.3-7.967,0.783-12.399-1.55
				c-0.067,0-0.101,0.017-0.101,0.05c-0.133,0.333-0.217,0.616-0.25,0.85c0,0.101,0,0.184,0,0.25v0.051c0,1.3,0.667,3.833,2,7.6
				c0.834,2.566,1.634,4.384,2.4,5.45c0.7,2.8,1.483,4.566,2.35,5.3c1.101,0.967,3.217,1.45,6.351,1.45
				c1.466,0,2.833-0.316,4.1-0.95c0.4-0.233,0.9-0.767,1.5-1.6c0.333-0.5,0.684-1.051,1.05-1.65v-1.35c1.2,2.1,1.8,3.933,1.8,5.5
				c0,1.8-1.433,3.149-4.3,4.05c-1.899,0.6-4.149,0.733-6.75,0.399c-2.6-0.3-4.217-0.767-4.85-1.399
				c-0.667-0.634-1.3-1.316-1.9-2.05c-0.6-0.733-1.184-1.517-1.75-2.351c-0.566-0.8-1.05-2.184-1.45-4.149
				c-0.366-1.967-0.699-4.384-1-7.25c-0.267-2.867-0.399-4.417-0.399-4.65c0-1.467,0.116-2.5,0.35-3.1v-0.051
				c0.101-0.199,0.283-0.383,0.55-0.55c-0.366-0.233-0.767-0.467-1.199-0.7c0.233-6.8,0.233-11.983,0-15.55
				c-0.601-4.333-0.9-7.483-0.9-9.45c0-6.767-0.434-15.033-1.3-24.8c-0.033,0.233-0.05,0.467-0.05,0.7
				c-0.667,14.866-2.484,30.783-5.45,47.75c-0.034,0.066-0.05,0.134-0.05,0.2c-0.1,0.066-0.283,0.133-0.55,0.2
				c0.167,0.033,0.333,0.083,0.5,0.149c-0.067,0.367-0.133,0.733-0.2,1.101c-0.033,0.033-0.05,0.083-0.05,0.149l0.05-0.05
				c0.233,0.6,0.35,1.616,0.35,3.05c0,0.233-0.133,1.767-0.4,4.601c-0.3,2.866-0.617,5.3-0.95,7.3
				c-0.433,1.934-0.917,3.316-1.45,4.149c-0.633,0.801-1.233,1.567-1.8,2.301c-0.633,0.767-1.267,1.466-1.9,2.1s-2.25,1.1-4.85,1.4
				c-2.6,0.3-4.867,0.149-6.8-0.45c-2.867-0.9-4.3-2.25-4.3-4.05c0-2.334,1.4-5.301,4.2-8.9c0.067-0.1,0.15-0.217,0.25-0.35l0.1,0.1
				c-0.233,0.533-0.383,1.366-0.45,2.5c-0.967,0.566-1.533,1.05-1.7,1.45c-0.267,0.7-0.55,1.649-0.85,2.85
				c-0.3,1.2,0.65,2.15,2.85,2.851c2.233,0.633,4.4,0.833,6.5,0.6c2.066-0.233,4.1-1.7,6.1-4.4c1.534-2.1,2.267-4.6,2.2-7.5
				c0.133-0.399,0.283-0.833,0.45-1.3c0.767-2.233,1.316-4.017,1.65-5.35c0.2-1,0.3-1.767,0.3-2.3c0-0.067-0.017-0.15-0.05-0.25
				c-3.934,2.699-8.083,2.783-12.45,0.25c-0.033,0-0.05-0.017-0.05-0.051h-0.05l-0.05-0.05c0,0.066,0,0.117,0,0.15
				c-0.133,0.033-0.25,0.066-0.35,0.1c-2.533-9.133-4.2-16.833-5-23.1c-0.9-6.566-1.017-11.217-0.35-13.95
				c0.7-2.733,1.467-6,2.3-9.8c0.9-3.834,1.35-6.95,1.35-9.351c0-2.433-0.017-3.899-0.05-4.399c-0.167-1.367-0.3-2.816-0.4-4.351
				l-0.9-3.6c-1.767-4.566-3.117-9.066-4.05-13.5c-0.9-4.2-1.417-8.366-1.55-12.5c-0.2-7,0.7-13.85,2.7-20.55
				c-0.034-0.034-0.067-0.067-0.1-0.1c0.2-0.9,0.45-1.8,0.75-2.7c0.333-1,0.733-2.017,1.2-3.05c0.367,0.2,0.784,0.433,1.25,0.7
				c2.4,1.233,6.083,2.45,11.05,3.65c5.9,1.4,11.034,1.85,15.4,1.35c4.333-0.5,8.533-1.35,12.6-2.55c3-0.9,5.45-2.033,7.351-3.4
				c0.666-0.434,1.25-0.917,1.75-1.45c0.5,0.967,0.95,1.934,1.35,2.9C64.301,121.339,64.384,121.505,64.45,121.672z M18.5,240.972
				c-0.033-0.1-0.067-0.199-0.1-0.3c-0.033-0.033-0.133,0-0.3,0.101L18.5,240.972z"/>
		</g>
	</g>
</g>
<g>
	<g>
		<path fill-rule="evenodd" clip-rule="evenodd" fill="#FFFFFF" fill-opacity="0.3608" d="M40.65,31.9
			c2.866-6.467,7.633-7.867,14.3-4.2C51.384,33.867,46.616,35.267,40.65,31.9z M36.45,31.9c-5.934,3.366-10.7,1.967-14.3-4.2
			C28.817,24.033,33.583,25.433,36.45,31.9z"/>
		
			<path fill-rule="evenodd" clip-rule="evenodd" fill="none" stroke="#333333" stroke-linecap="round" stroke-linejoin="round" stroke-miterlimit="3" d="
			M40.65,31.9c2.866-6.467,7.633-7.867,14.3-4.2C51.384,33.867,46.616,35.267,40.65,31.9c-1.233-1.7-2.634-1.7-4.2,0
			c-5.934,3.366-10.7,1.967-14.3-4.2c6.667-3.667,11.434-2.267,14.3,4.2"/>
	</g>
</g>
</svg>
