
<svg xmlns="http://www.w3.org/2000/svg" version="1.1" xmlns:xlink="http://www.w3.org/1999/xlink" preserveAspectRatio="none" x="0px" y="0px" width="187px" height="137px" viewBox="0 0 187 137">
<defs>
<g id="Layer0_0_MEMBER_0_FILL">
<path fill="#CCCCCC" stroke="none" d="
M 643.15 324.15
L 594.5 328.5 641 365.55 652.8 364.25 627.1 344.2
Q 618.65 335.6 652.1 332.6
L 643.15 324.15
M 767.15 336.35
L 759.9 337.2
Q 777.05 348.9 759.9 351.55
L 781.4 349 767.15 336.35
M 672.15 290.1
L 649.8 292.5 639.15 283.2 633.6 283.7 633.5 283.7 633.5 283.8 633.85 287.9 666.8 316.55 666.95 316.55
Q 673.1 317.25 673.35 317.85
L 768.6 306.5 767.65 303.6 726.1 276.7 721.5 275.1 660.65 281.15 672.15 290.1 Z"/>

<path fill="#838383" stroke="none" d="
M 594.5 328.5
L 594.5 337.45 640.25 375.45 641 375.45 641 365.55 594.5 328.5
M 652.1 332.6
L 668.85 348.4 668.85 328.5
Q 651.6 332 628.05 299.65
L 627.6 305.3 628.8 310.6 643.15 324.15 652.1 332.6 Z"/>

<path fill="#666666" stroke="none" d="
M 633.5 283.8
L 629.4 287.9 633.85 287.9 633.5 283.8
M 767.65 303.6
L 768.6 306.5 771.5 309.4 767.65 303.6
M 759.9 337.2
L 760.5 344.65
Q 760.5 346.35 759.9 351.55 777.05 348.9 759.9 337.2
M 720.65 348.4
Q 720.9 348.65 720.9 349 726 352.5 730.45 355.05
L 757.6 351.9
Q 758.8 346.35 757.85 337.45
L 756.3 337.65
Q 757.85 339.95 753.25 343
L 719.8 347.35 720.05 347.95
Q 720.45 348.05 720.65 348.4
M 714.15 348.55
L 713.8 348.15 704.6 349.4 705.45 351.2
Q 705.8 351.3 706.2 351.8 706.4 352.05 706.55 352.3 709.55 354.7 712.6 357.1
L 726.35 355.55
Q 722.6 353.35 718.6 350.6
L 714.15 348.55
M 680.8 352.65
Q 675.5 353 674.55 347.8
L 668.85 348.4 652.1 332.6
Q 618.65 335.6 627.1 344.2
L 652.8 364.25 708.25 357.6
Q 706.2 356 704.15 354.55 704 354.45 703.75 354.45
L 698.45 352.05 696.65 350.45 680.8 352.65
M 673.35 317.85
Q 673.1 317.25 666.95 316.55
L 668.85 321.25 673.35 317.85 Z"/>

<path fill="#3F3F3F" stroke="none" d="
M 759.9 351.55
Q 758.35 360.1 752.8 362.55
L 781.4 359.3 781.4 349 759.9 351.55
M 730.45 355.05
Q 753.85 368.2 757.6 351.9
L 730.45 355.05
M 719.1 366.5
Q 714.05 362.05 708.25 357.6
L 652.8 364.25 641 365.55 641 375.45 719.1 366.5
M 712.6 357.1
Q 718 361.55 722.85 366.05
L 745.65 363.4
Q 737.95 362.55 726.35 355.55
L 712.6 357.1
M 701.85 334.9
Q 702.55 333.1 705.8 333.45
L 716.3 342.6 756.3 337.65 757.85 337.45 759.9 337.2 767.15 336.35 771.5 335.75 771.5 309.4 768.6 306.5 673.35 317.85 668.85 321.25 668.85 328.5 668.85 348.4 674.55 347.8 691.1 345.75 683.6 339.25
Q 683.25 337.8 683.35 336.7 683.35 336 683.6 335.6 684.35 333.3 688.3 333.8
L 700.75 344.55 708.45 343.6 701.95 337.9
Q 701.6 336.6 701.6 335.75 701.7 335.25 701.85 334.9 Z"/>

<path fill="#333333" stroke="none" d="
M 674.55 347.8
Q 675.5 353 680.8 352.65
L 696.65 350.45 691.1 345.75 674.55 347.8
M 717.9 343.95
L 718 343.95 719.8 347.35 753.25 343
Q 757.85 339.95 756.3 337.65
L 716.3 342.6 717.75 343.8 717.9 343.95
M 702.7 346.25
L 702.9 346.35 703.05 346.5 704.6 349.4 713.8 348.15 708.45 343.6 700.75 344.55 702.7 346.25
M 649.8 292.5
Q 659.8 283.7 672.15 290.1
L 660.65 281.15
Q 648.7 276.2 639.15 283.2
L 649.8 292.5 Z"/>

<path fill="#999999" stroke="none" d="
M 666.95 316.55
L 666.8 316.55 633.85 287.9 629.4 287.9 629.15 287.9 628.05 299.65
Q 651.6 332 668.85 328.5
L 668.85 321.25 666.95 316.55 Z"/>

<path fill="#000000" stroke="none" d="
M 649.8 292.5
L 672.15 290.1
Q 659.8 283.7 649.8 292.5 Z"/>
</g>

<g id="Layer0_0_MEMBER_0_MEMBER_0_FILL">
<path fill="#000000" stroke="none" d="
M 342.5 290.35
Q 341.3 290.5 340.4 291.4 339.55 292.4 339.55 293.6 339.55 293.8609375 339.6 294.1 339.734765625 294.9630859375 340.4 295.55 341.3 296.35 342.5 296.2
L 350.6 295.25
Q 351.8 295.15 352.65 294.15 353.55 293.15 353.55 291.95 353.55 291.48203125 353.4 291.05 353.1990234375 290.457421875 352.65 290 351.8 289.3 350.6 289.4
L 342.5 290.35 Z"/>

<path fill="#CCCCCC" stroke="none" d="
M 340.4 291.4
Q 341.3 290.5 342.5 290.35
L 350.6 289.4
Q 351.8 289.3 352.65 290 353.1990234375 290.457421875 353.4 291.05 353.2677734375 290.198046875 352.55 289.6 351.7 288.9 350.5 289
L 342.4 289.95
Q 341.2 290.1 340.3 291 339.45 292 339.45 293.2 339.45 293.6873046875 339.6 294.1 339.55 293.8609375 339.55 293.6 339.55 292.4 340.4 291.4 Z"/>
</g>

<g id="Layer0_0_MEMBER_0_MEMBER_1_MEMBER_0_FILL">
<path fill="#999999" stroke="none" d="
M 727.3 285.25
Q 728.05 285.65 728.15 286 728.15 285.75 728.15 285.65 728.05 285.25 727.3 284.9 726.7 284.65 726 284.55 725.25 284.55 724.75 284.8 724.4 285.15 724.55 285.5 724.65 285.4 724.75 285.15 725.25 284.9 726 284.9 726.7 285 727.3 285.25
M 718.25 279.35
Q 718.15 279 717.4 278.65 716.95 278.25 716.2 278.25 715.5 278.25 714.85 278.5 714.5 278.75 714.65 279.1 714.75 279 714.85 278.75 715.5 278.65 716.2 278.65 716.95 278.65 717.4 279 718.15 279.35 718.25 279.7 718.35 279.45 718.25 279.35
M 726.95 281.3
Q 726.85 281.15 726.7 281.05 726.1 280.8 725.4 280.8 724.65 280.7 724.15 280.9 723.8 281.3 723.95 281.65 723.95 281.5 724.15 281.3 724.65 281.05 725.4 281.15 726.1 281.15 726.7 281.4 726.85 281.5 726.95 281.65 727.45 281.9 727.55 282.15 727.55 281.9 727.55 281.75 727.45 281.5 726.95 281.3
M 720.55 281.4
Q 719.8 281.3 719.35 281.5 719 281.9 719.1 282.35 719.2 282.25 719.35 281.9 719.8 281.65 720.55 281.65 721.25 281.75 721.9 282 722.6 282.5 722.7 282.85 722.7 282.6 722.7 282.5 722.6 282 721.9 281.65 721.25 281.4 720.55 281.4
M 722.35 278.25
Q 721.75 277.9 721.05 277.9 720.2 277.9 719.8 278.15 719.45 278.4 719.6 278.75 719.6 278.65 719.8 278.5 720.2 278.25 721.05 278.25 721.75 278.25 722.35 278.65 722.95 279 723.1 279.35 723.1 279.25 723.1 279 722.95 278.65 722.35 278.25
M 729.25 288.15
Q 729.7 288.05 730.45 288.05 731.15 288.05 731.8 288.3 732.5 288.75 732.6 289.15 732.6 288.9 732.6 288.75 732.5 288.4 731.8 287.9 731.15 287.7 730.45 287.7 729.7 287.7 729.25 287.8 728.9 288.15 729 288.55 729 288.4 729.25 288.15
M 736.5 287.45
Q 736 287.1 735.3 287.1 734.55 287.1 733.95 287.2 733.6 287.55 733.7 287.9 733.85 287.8 733.95 287.55 734.55 287.45 735.3 287.45 736 287.45 736.5 287.7 736.75 287.9 736.85 288.05 737.35 288.3 737.35 288.55 737.45 288.3 737.35 288.15 737.35 287.9 736.85 287.7 736.75 287.55 736.5 287.45
M 732.15 284.55
Q 731.65 284.3 730.95 284.3 730.1 284.2 729.6 284.4 729.25 284.8 729.35 285.15 729.5 285 729.6 284.8 730.1 284.55 730.95 284.55 731.65 284.65 732.15 284.9 732.75 285.25 732.85 285.65 733 285.5 732.85 285.25 732.75 284.9 732.15 284.55 Z"/>

<path fill="#000000" stroke="none" d="
M 727.8 286.25
Q 728.05 286.1 728.15 286 728.05 285.65 727.3 285.25 726.7 285 726 284.9 725.25 284.9 724.75 285.15 724.65 285.4 724.55 285.5 724.65 285.85 725.25 286.1 725.85 286.35 726.6 286.35 727.3 286.45 727.8 286.25
M 717.9 279.95
Q 718.25 279.85 718.25 279.7 718.15 279.35 717.4 279 716.95 278.65 716.2 278.65 715.5 278.65 714.85 278.75 714.75 279 714.65 279.1 714.75 279.45 715.35 279.85 716.1 280.05 716.8 280.05 717.55 280.05 717.9 279.95
M 725.4 281.15
Q 724.65 281.05 724.15 281.3 723.95 281.5 723.95 281.65 724.05 282 724.55 282.35 725.25 282.6 726 282.75 726.7 282.75 727.05 282.5 727.2 282.5 727.3 282.25 727.45 282.15 727.55 282.15 727.45 281.9 726.95 281.65 726.85 281.5 726.7 281.4 726.1 281.15 725.4 281.15
M 719.35 281.9
Q 719.2 282.25 719.1 282.35 719.2 282.75 719.8 282.95 720.45 283.2 721.15 283.35 721.9 283.35 722.35 283.1 722.6 282.95 722.7 282.85 722.6 282.5 721.9 282 721.25 281.75 720.55 281.65 719.8 281.65 719.35 281.9
M 723.1 279.35
Q 722.95 279 722.35 278.65 721.75 278.25 721.05 278.25 720.2 278.25 719.8 278.5 719.6 278.65 719.6 278.75 719.7 279.1 720.2 279.45 720.8 279.7 721.65 279.7 722.35 279.7 722.7 279.6 722.95 279.45 723.1 279.35
M 729.6 289.15
Q 730.35 289.5 731.05 289.5 731.8 289.5 732.15 289.25 732.5 289.25 732.6 289.15 732.5 288.75 731.8 288.3 731.15 288.05 730.45 288.05 729.7 288.05 729.25 288.15 729 288.4 729 288.55 729.1 288.9 729.6 289.15
M 736.5 287.7
Q 736 287.45 735.3 287.45 734.55 287.45 733.95 287.55 733.85 287.8 733.7 287.9 733.85 288.3 734.45 288.55 735.15 288.9 735.9 288.9 736.6 288.9 736.95 288.75 737.1 288.75 737.2 288.65 737.2 288.55 737.35 288.55 737.35 288.3 736.85 288.05 736.75 287.9 736.5 287.7
M 732.6 285.85
Q 732.85 285.75 732.85 285.65 732.75 285.25 732.15 284.9 731.65 284.65 730.95 284.55 730.1 284.55 729.6 284.8 729.5 285 729.35 285.15 729.5 285.5 730.1 285.75 730.7 286 731.55 286.1 732.25 286.1 732.6 285.85 Z"/>
</g>

<g id="Layer0_0_MEMBER_0_MEMBER_1_MEMBER_1_FILL">
<path fill="#000000" stroke="none" d="
M 722.25 286.6
Q 722.1 286.25 721.5 285.85 721.05 285.65 720.3 285.65 719.45 285.5 719 285.75 718.85 286 718.75 286.1 718.85 286.45 719.45 286.7 720.05 287.1 720.9 287.1 721.65 287.1 722 286.85 722.25 286.7 722.25 286.6
M 726.2 289
Q 726.1 288.9 725.85 288.75 725.4 288.55 724.65 288.4 723.95 288.4 723.3 288.65 723.2 288.9 723.1 289 723.2 289.35 723.8 289.6 724.55 289.85 725.25 289.95 726 289.95 726.35 289.75 726.45 289.75 726.6 289.6 726.6 289.5 726.7 289.5 726.7 289.25 726.2 289
M 718.6 289.25
Q 718.35 289.5 718.35 289.6 718.5 289.95 719 290.2 719.7 290.45 720.45 290.6 721.15 290.6 721.5 290.35 721.9 290.2 722 290.1 721.9 289.75 721.15 289.35 720.55 289.15 719.8 289 719.1 289 718.6 289.25
M 717.55 286.95
Q 717.4 286.6 716.7 286.25 716.1 286 715.35 286 714.65 285.85 714.15 286.1 714.05 286.35 713.9 286.45 714.05 286.85 714.65 287.1 715.25 287.45 715.95 287.45 716.7 287.45 717.15 287.2 717.4 287.1 717.55 286.95
M 713.55 282.35
Q 713.3 282.6 713.3 282.75 713.4 283.1 713.9 283.35 714.65 283.6 715.35 283.7 716.1 283.7 716.45 283.45 716.55 283.45 716.7 283.35 716.8 283.2 716.95 283.2 716.8 282.95 716.3 282.75 716.2 282.6 716.1 282.5 715.5 282.25 714.75 282.15 714.05 282.15 713.55 282.35
M 712.1 280.55
Q 712.35 280.45 712.45 280.3 712.35 279.95 711.75 279.6 711.15 279.35 710.4 279.25 709.55 279.25 709.2 279.45 708.95 279.7 708.95 279.85 709.1 280.2 709.55 280.45 710.15 280.7 711 280.8 711.75 280.8 712.1 280.55
M 708.7 282.95
Q 708.6 283.2 708.45 283.35 708.6 283.7 709.2 283.95 709.8 284.2 710.55 284.3 711.25 284.3 711.75 284.05 712 283.95 712.1 283.8 712 283.45 711.25 283.1 710.65 282.85 709.9 282.75 709.2 282.75 708.7 282.95
M 707.65 280.7
Q 707.5 280.3 706.8 279.95 706.3 279.7 705.6 279.6 704.85 279.6 704.25 279.85 704.15 280.05 704 280.2 704.15 280.55 704.75 280.8 705.45 281.05 706.2 281.15 706.9 281.15 707.25 280.9 707.65 280.8 707.65 280.7 Z"/>

<path fill="#999999" stroke="none" d="
M 721.5 285.85
Q 722.1 286.25 722.25 286.6 722.35 286.6 722.25 286.25 722.1 285.85 721.5 285.5 721.05 285.25 720.3 285.25 719.45 285.15 719 285.4 718.6 285.75 718.75 286.1 718.85 286 719 285.75 719.45 285.5 720.3 285.65 721.05 285.65 721.5 285.85
M 725.85 288.75
Q 726.1 288.9 726.2 289 726.7 289.25 726.7 289.5 726.85 289.25 726.7 289.15 726.7 288.9 726.2 288.65 726.1 288.55 725.85 288.4 725.4 288.15 724.65 288.05 723.95 288.05 723.3 288.3 722.95 288.65 723.1 289 723.2 288.9 723.3 288.65 723.95 288.4 724.65 288.4 725.4 288.55 725.85 288.75
M 718.6 288.9
Q 718.25 289.25 718.35 289.6 718.35 289.5 718.6 289.25 719.1 289 719.8 289 720.55 289.15 721.15 289.35 721.9 289.75 722 290.1 722 289.85 722 289.75 721.9 289.35 721.15 289 720.55 288.75 719.8 288.65 719.1 288.65 718.6 288.9
M 716.7 286.25
Q 717.4 286.6 717.55 286.95 717.55 286.7 717.55 286.6 717.4 286.25 716.7 285.85 716.1 285.65 715.35 285.65 714.65 285.5 714.15 285.75 713.8 286.1 713.9 286.45 714.05 286.35 714.15 286.1 714.65 285.85 715.35 286 716.1 286 716.7 286.25
M 713.3 282.75
Q 713.3 282.6 713.55 282.35 714.05 282.15 714.75 282.15 715.5 282.25 716.1 282.5 716.2 282.6 716.3 282.75 716.8 282.95 716.95 283.2 716.95 282.95 716.95 282.85 716.8 282.6 716.3 282.35 716.2 282.25 716.1 282.15 715.5 281.9 714.75 281.75 714.05 281.75 713.55 282 713.2 282.35 713.3 282.75
M 712.45 280.3
Q 712.45 280.2 712.45 279.95 712.35 279.6 711.75 279.25 711.15 279 710.4 278.85 709.55 278.85 709.2 279.1 708.85 279.45 708.95 279.85 708.95 279.7 709.2 279.45 709.55 279.25 710.4 279.25 711.15 279.35 711.75 279.6 712.35 279.95 712.45 280.3
M 708.7 282.6
Q 708.35 282.95 708.45 283.35 708.6 283.2 708.7 282.95 709.2 282.75 709.9 282.75 710.65 282.85 711.25 283.1 712 283.45 712.1 283.8 712.1 283.6 712.1 283.45 712 283.1 711.25 282.75 710.65 282.5 709.9 282.35 709.2 282.35 708.7 282.6
M 707.65 280.7
Q 707.75 280.45 707.65 280.3 707.5 279.95 706.8 279.6 706.3 279.35 705.6 279.25 704.85 279.25 704.25 279.45 703.9 279.85 704 280.2 704.15 280.05 704.25 279.85 704.85 279.6 705.6 279.6 706.3 279.7 706.8 279.95 707.5 280.3 707.65 280.7 Z"/>
</g>

<g id="Layer0_0_MEMBER_0_MEMBER_2_MEMBER_0_FILL">
<path fill="#000000" stroke="none" d="
M 744.95 299
Q 745.65 299.1 746.15 298.9 746.4 298.75 746.5 298.65 746.4 298.3 745.65 297.9 745.05 297.65 744.35 297.55 743.6 297.55 743.1 297.8 743 298.05 742.9 298.15 743 298.5 743.6 298.75 744.2 299 744.95 299
M 750.95 301.8
Q 750.85 301.4 750.15 300.95 749.5 300.7 748.8 300.7 748.05 300.7 747.6 300.8 747.35 301.05 747.35 301.2 747.45 301.55 747.95 301.8 748.7 302.15 749.4 302.15 750.15 302.15 750.5 301.9 750.85 301.9 750.95 301.8
M 749.9 298.75
Q 750.6 298.75 750.95 298.5 751.2 298.4 751.2 298.3 751.1 297.9 750.5 297.55 750 297.3 749.3 297.2 748.45 297.2 747.95 297.45 747.85 297.65 747.7 297.8 747.85 298.15 748.45 298.4 749.05 298.65 749.9 298.75
M 755.7 301.2
Q 755.7 300.95 755.2 300.7 755.1 300.55 754.85 300.35 754.35 300.1 753.65 300.1 752.9 300.1 752.3 300.2 752.2 300.45 752.05 300.55 752.2 300.95 752.8 301.2 753.5 301.55 754.25 301.55 754.95 301.55 755.3 301.4 755.45 301.4 755.55 301.3 755.55 301.2 755.7 301.2
M 742.5 293.95
Q 742.3 294.15 742.3 294.3 742.4 294.65 742.9 295 743.6 295.25 744.35 295.4 745.05 295.4 745.4 295.15 745.55 295.15 745.65 294.9 745.8 294.8 745.9 294.8 745.8 294.55 745.3 294.3 745.2 294.15 745.05 294.05 744.45 293.8 743.75 293.8 743 293.7 742.5 293.95
M 738.9 294.3
Q 738.15 294.3 737.7 294.55 737.55 294.9 737.45 295 737.55 295.4 738.15 295.6 738.8 295.85 739.5 296 740.25 296 740.7 295.75 740.95 295.6 741.05 295.5 740.95 295.15 740.25 294.65 739.6 294.4 738.9 294.3
M 738.15 291.15
Q 737.95 291.3 737.95 291.4 738.05 291.75 738.55 292.1 739.15 292.35 740 292.35 740.7 292.35 741.05 292.25 741.3 292.1 741.45 292 741.3 291.65 740.7 291.3 740.1 290.9 739.4 290.9 738.55 290.9 738.15 291.15
M 733.2 291.4
Q 733.1 291.65 733 291.75 733.1 292.1 733.7 292.5 734.45 292.7 735.15 292.7 735.9 292.7 736.25 292.6 736.6 292.5 736.6 292.35 736.5 292 735.75 291.65 735.3 291.3 734.55 291.3 733.85 291.3 733.2 291.4 Z"/>

<path fill="#999999" stroke="none" d="
M 745.65 297.55
Q 745.05 297.3 744.35 297.2 743.6 297.2 743.1 297.45 742.75 297.8 742.9 298.15 743 298.05 743.1 297.8 743.6 297.55 744.35 297.55 745.05 297.65 745.65 297.9 746.4 298.3 746.5 298.65 746.5 298.4 746.5 298.3 746.4 297.9 745.65 297.55
M 750.15 300.95
Q 750.85 301.4 750.95 301.8 750.95 301.55 750.95 301.4 750.85 301.05 750.15 300.55 749.5 300.35 748.8 300.35 748.05 300.35 747.6 300.45 747.25 300.8 747.35 301.2 747.35 301.05 747.6 300.8 748.05 300.7 748.8 300.7 749.5 300.7 750.15 300.95
M 751.2 297.9
Q 751.1 297.55 750.5 297.2 750 296.95 749.3 296.95 748.45 296.85 747.95 297.05 747.6 297.45 747.7 297.8 747.85 297.65 747.95 297.45 748.45 297.2 749.3 297.2 750 297.3 750.5 297.55 751.1 297.9 751.2 298.3 751.35 298.15 751.2 297.9
M 755.2 300.7
Q 755.7 300.95 755.7 301.2 755.8 300.95 755.7 300.8 755.7 300.55 755.2 300.35 755.1 300.2 754.85 300.1 754.35 299.75 753.65 299.75 752.9 299.75 752.3 299.85 751.95 300.2 752.05 300.55 752.2 300.45 752.3 300.2 752.9 300.1 753.65 300.1 754.35 300.1 754.85 300.35 755.1 300.55 755.2 300.7
M 743.75 293.45
Q 743 293.35 742.5 293.55 742.15 293.95 742.3 294.3 742.3 294.15 742.5 293.95 743 293.7 743.75 293.8 744.45 293.8 745.05 294.05 745.2 294.15 745.3 294.3 745.8 294.55 745.9 294.8 745.9 294.55 745.9 294.4 745.8 294.15 745.3 293.95 745.2 293.8 745.05 293.7 744.45 293.45 743.75 293.45
M 737.7 294.15
Q 737.35 294.55 737.45 295 737.55 294.9 737.7 294.55 738.15 294.3 738.9 294.3 739.6 294.4 740.25 294.65 740.95 295.15 741.05 295.5 741.05 295.25 741.05 295.15 740.95 294.65 740.25 294.3 739.6 294.05 738.9 294.05 738.15 293.95 737.7 294.15
M 737.95 291.4
Q 737.95 291.3 738.15 291.15 738.55 290.9 739.4 290.9 740.1 290.9 740.7 291.3 741.3 291.65 741.45 292 741.45 291.9 741.45 291.65 741.3 291.3 740.7 290.9 740.1 290.55 739.4 290.55 738.55 290.55 738.15 290.8 737.8 291.05 737.95 291.4
M 733 291.75
Q 733.1 291.65 733.2 291.4 733.85 291.3 734.55 291.3 735.3 291.3 735.75 291.65 736.5 292 736.6 292.35 736.7 292.1 736.6 292 736.5 291.65 735.75 291.3 735.3 290.9 734.55 290.9 733.85 290.9 733.2 291.15 732.85 291.4 733 291.75 Z"/>
</g>

<g id="Layer0_0_MEMBER_0_MEMBER_2_MEMBER_1_FILL">
<path fill="#000000" stroke="none" d="
M 735.5 299.85
Q 735.75 299.75 735.9 299.6 735.75 299.25 735.05 298.9 734.45 298.65 733.7 298.65 733 298.5 732.5 298.75 732.4 299 732.25 299.1 732.4 299.5 733 299.75 733.6 300.1 734.3 300.1 735.05 300.1 735.5 299.85
M 740.35 302.75
Q 740.25 302.4 739.5 302 738.9 301.8 738.15 301.65 737.45 301.65 736.95 301.9 736.7 302.15 736.7 302.25 736.85 302.6 737.35 302.85 738.05 303.1 738.8 303.25 739.5 303.25 739.85 303 740.25 302.85 740.35 302.75
M 740.35 299.5
Q 740.6 299.35 740.6 299.25 740.45 298.9 739.85 298.5 739.4 298.3 738.65 298.3 737.8 298.15 737.35 298.4 737.2 298.65 737.1 298.75 737.2 299.1 737.8 299.35 738.4 299.75 739.25 299.75 740 299.75 740.35 299.5
M 745.05 302.15
Q 745.05 301.9 744.55 301.65 744.45 301.55 744.2 301.4 743.75 301.2 743 301.05 742.3 301.05 741.65 301.3 741.55 301.55 741.45 301.65 741.55 302 742.15 302.25 742.9 302.5 743.6 302.6 744.35 302.6 744.7 302.4 744.8 302.4 744.95 302.25 744.95 302.15 745.05 302.15
M 722.6 292.5
Q 722.5 292.7 722.35 292.85 722.5 293.2 723.1 293.45 723.8 293.7 724.55 293.8 725.25 293.8 725.6 293.55 726 293.45 726 293.35 725.85 292.95 725.15 292.6 724.65 292.35 723.95 292.25 723.2 292.25 722.6 292.5
M 731.9 295
Q 731.65 295.25 731.65 295.4 731.75 295.75 732.25 296 733 296.25 733.7 296.35 734.45 296.35 734.8 296.1 734.9 296.1 735.05 296 735.15 295.85 735.3 295.85 735.15 295.6 734.65 295.4 734.55 295.25 734.45 295.15 733.85 294.9 733.1 294.8 732.4 294.8 731.9 295
M 730.45 296.45
Q 730.35 296.1 729.6 295.75 729 295.5 728.25 295.4 727.55 295.4 727.05 295.6 726.95 295.85 726.8 296 726.95 296.35 727.55 296.6 728.15 296.85 728.9 296.95 729.6 296.95 730.1 296.7 730.35 296.6 730.45 296.45
M 730.8 292.95
Q 730.7 292.6 730.1 292.25 729.5 292 728.75 291.9 727.9 291.9 727.55 292.1 727.3 292.35 727.3 292.5 727.45 292.85 727.9 293.1 728.5 293.35 729.35 293.45 730.1 293.45 730.45 293.2 730.7 293.1 730.8 292.95 Z"/>

<path fill="#999999" stroke="none" d="
M 735.9 299.25
Q 735.75 298.9 735.05 298.5 734.45 298.3 733.7 298.3 733 298.15 732.5 298.4 732.15 298.75 732.25 299.1 732.4 299 732.5 298.75 733 298.5 733.7 298.65 734.45 298.65 735.05 298.9 735.75 299.25 735.9 299.6 735.9 299.35 735.9 299.25
M 739.5 302
Q 740.25 302.4 740.35 302.75 740.35 302.5 740.35 302.4 740.25 302 739.5 301.65 738.9 301.4 738.15 301.3 737.45 301.3 736.95 301.55 736.6 301.9 736.7 302.25 736.7 302.15 736.95 301.9 737.45 301.65 738.15 301.65 738.9 301.8 739.5 302
M 740.6 299.25
Q 740.7 299.25 740.6 298.9 740.45 298.5 739.85 298.15 739.4 297.9 738.65 297.9 737.8 297.8 737.35 298.05 736.95 298.4 737.1 298.75 737.2 298.65 737.35 298.4 737.8 298.15 738.65 298.3 739.4 298.3 739.85 298.5 740.45 298.9 740.6 299.25
M 744.55 301.65
Q 745.05 301.9 745.05 302.15 745.2 301.9 745.05 301.8 745.05 301.55 744.55 301.3 744.45 301.2 744.2 301.05 743.75 300.8 743 300.7 742.3 300.7 741.65 300.95 741.3 301.3 741.45 301.65 741.55 301.55 741.65 301.3 742.3 301.05 743 301.05 743.75 301.2 744.2 301.4 744.45 301.55 744.55 301.65
M 722.35 292.85
Q 722.5 292.7 722.6 292.5 723.2 292.25 723.95 292.25 724.65 292.35 725.15 292.6 725.85 292.95 726 293.35 726.1 293.1 726 292.95 725.85 292.6 725.15 292.25 724.65 292 723.95 291.9 723.2 291.9 722.6 292.1 722.25 292.5 722.35 292.85
M 731.65 295.4
Q 731.65 295.25 731.9 295 732.4 294.8 733.1 294.8 733.85 294.9 734.45 295.15 734.55 295.25 734.65 295.4 735.15 295.6 735.3 295.85 735.3 295.6 735.3 295.5 735.15 295.25 734.65 295 734.55 294.9 734.45 294.8 733.85 294.55 733.1 294.4 732.4 294.4 731.9 294.65 731.55 295 731.65 295.4
M 729.6 295.75
Q 730.35 296.1 730.45 296.45 730.45 296.25 730.45 296.1 730.35 295.75 729.6 295.4 729 295.15 728.25 295 727.55 295 727.05 295.25 726.7 295.6 726.8 296 726.95 295.85 727.05 295.6 727.55 295.4 728.25 295.4 729 295.5 729.6 295.75
M 730.1 292.25
Q 730.7 292.6 730.8 292.95 730.8 292.85 730.8 292.6 730.7 292.25 730.1 291.9 729.5 291.65 728.75 291.5 727.9 291.5 727.55 291.75 727.2 292.1 727.3 292.5 727.3 292.35 727.55 292.1 727.9 291.9 728.75 291.9 729.5 292 730.1 292.25 Z"/>
</g>

<g id="Layer0_0_MEMBER_0_MEMBER_3_FILL">
<path fill="#666666" stroke="none" d="
M 699.05 348.65
Q 700.05 347.1 703.4 346.6
L 703.2 346.5 688.8 334.05
Q 684.85 333.55 684.1 335.85
L 699.05 348.65
M 706.3 333.7
Q 703.05 333.35 702.35 335.15
L 712.1 343.45 714.9 345.75
Q 715.75 344.55 718.4 344.2
L 718.25 344.05 706.3 333.7 Z"/>

<path fill="#4A4A4A" stroke="none" d="
M 705.6 351.3
Q 705.85 351.3 705.95 351.45
L 703.55 346.75 703.4 346.6
Q 700.05 347.1 699.05 348.65 698.85 349 698.6 349.5 698.6 349.85 698.45 350.1
L 703.4 353.15
Q 703.4 352.9 703.4 352.75 703.55 352.05 704.25 351.55 704.85 351.2 705.6 351.3
M 718.5 344.2
L 718.4 344.2
Q 715.75 344.55 714.9 345.75 714.65 346.15 714.55 346.6 714.4 346.85 714.4 347.1
L 718.4 349.5
Q 718.5 349.4 718.5 349.25 718.65 348.65 719 348.2 719.6 347.95 720.2 348.05 720.45 348.05 720.55 348.2
L 718.5 344.2 Z"/>

<path fill="#2C2C2C" stroke="none" d="
M 684.1 335.85
Q 683.85 336.25 683.85 336.95
L 698.6 349.5
Q 698.85 349 699.05 348.65
L 684.1 335.85
M 702.35 335.15
Q 702.2 335.5 702.1 336
L 711.05 343.6 712.1 343.45 702.35 335.15 Z"/>

<path fill="#000000" stroke="none" d="
M 683.85 336.95
Q 683.75 338.05 684.1 339.5
L 698.95 352.3 704.25 354.7
Q 704.5 354.7 704.65 354.8 706.7 356.25 708.75 357.85 714.55 362.3 719.6 366.75 728.487890625 374.50390625 735 381.95 735.878125 382.9529296875 736.7 383.95
L 740.1 383.95
Q 739.31640625 382.953125 738.45 381.95 732.07109375 374.3056640625 723.35 366.3 718.5 361.8 713.1 357.35 710.05 354.95 707.05 352.55 706.9 352.3 706.7 352.05 706.3 351.55 705.95 351.45 705.85 351.3 705.6 351.3 704.85 351.2 704.25 351.55 703.55 352.05 703.4 352.75 703.4 352.9 703.4 353.15
L 698.45 350.1
Q 698.6 349.85 698.6 349.5
L 683.85 336.95
M 702.1 336
Q 702.1 336.85 702.45 338.15
L 714.3 348.4 714.55 348.4
Q 714.65 348.55 714.65 348.8
L 719.1 350.85
Q 723.1 353.6 726.85 355.8 738.45 362.8 746.15 363.65 750.25 364.1 753.3 362.8 758.85 360.35 760.4 351.8 761 346.6 761 344.9
L 760.4 337.45 758.35 337.7
Q 759.3 346.6 758.1 352.15 754.35 368.45 730.95 355.3 726.5 352.75 721.4 349.25 721.4 348.9 721.15 348.65 720.95 348.3 720.55 348.2 720.45 348.05 720.2 348.05 719.6 347.95 719 348.2 718.65 348.65 718.5 349.25 718.5 349.4 718.4 349.5
L 714.4 347.1
Q 714.4 346.85 714.55 346.6 714.65 346.15 714.9 345.75
L 712.1 343.45 711.05 343.6 702.1 336 Z"/>
</g>

<g id="Layer0_0_MEMBER_0_MEMBER_4_FILL">
<path fill="#666666" stroke="none" d="
M 360.2 291.35
Q 360.2 292.6 361.45 292.45
L 375.2 290.75
Q 376.45 290.6 376.45 289.35
L 376.45 285.3
Q 376.45 284.1 375.2 284.25
L 361.45 285.95
Q 360.2 286.1 360.2 287.3
L 360.2 291.35 Z"/>
</g>
</defs>

<g transform="matrix( 1, 0, 0, 1, -594.5,-247) ">
<use xlink:href="#Layer0_0_MEMBER_0_FILL"/>
</g>

<g transform="matrix( 2.414794921875, 0, 0, 2.414794921875, -737,-618.8) ">
<use xlink:href="#Layer0_0_MEMBER_0_MEMBER_0_FILL"/>
</g>

<g transform="matrix( 1, 0, 0, 1, -594.5,-247) ">
<use xlink:href="#Layer0_0_MEMBER_0_MEMBER_1_MEMBER_0_FILL"/>
</g>

<g transform="matrix( 1, 0, 0, 1, -594.5,-247) ">
<use xlink:href="#Layer0_0_MEMBER_0_MEMBER_1_MEMBER_1_FILL"/>
</g>

<g transform="matrix( 1, 0, 0, 1, -594.5,-247) ">
<use xlink:href="#Layer0_0_MEMBER_0_MEMBER_2_MEMBER_0_FILL"/>
</g>

<g transform="matrix( 1, 0, 0, 1, -594.5,-247) ">
<use xlink:href="#Layer0_0_MEMBER_0_MEMBER_2_MEMBER_1_FILL"/>
</g>

<g transform="matrix( 1, 0, 0, 1, -594.5,-247) ">
<use xlink:href="#Layer0_0_MEMBER_0_MEMBER_3_FILL"/>
</g>

<g transform="matrix( 2.414794921875, 0, 0, 2.414794921875, -737,-618.8) ">
<use xlink:href="#Layer0_0_MEMBER_0_MEMBER_4_FILL"/>
</g>
</svg>
