<svg xmlns="http://www.w3.org/2000/svg" xmlns:xlink="http://www.w3.org/1999/xlink" preserveAspectRatio="none" width="187" height="137" viewBox="0 0 187 137"><defs><g id="a"><path fill="#CCC" d="M643.15 324.15l-48.65 4.35 46.5 37.05 11.8-1.3-25.7-20.05q-8.45-8.6 25-11.6l-8.95-8.45m124 12.2l-7.25.85q17.15 11.7 0 14.35l21.5-2.55-14.25-12.65m-95-46.25l-22.35 2.4-10.65-9.3-5.55.5h-.1v.1l.35 4.1 32.95 28.65h.15q6.15.7 6.4 1.3l95.25-11.35-.95-2.9-41.55-26.9-4.6-1.6-60.85 6.05 11.5 8.95z"/><path fill="#838383" d="M594.5 328.5v8.95l45.75 38h.75v-9.9l-46.5-37.05m57.6 4.1l16.75 15.8v-19.9q-17.25 3.5-40.8-28.85l-.45 5.65 1.2 5.3 14.35 13.55 8.95 8.45z"/><path fill="#666" d="M633.5 283.8l-4.1 4.1h4.45l-.35-4.1m134.15 19.8l.95 2.9 2.9 2.9-3.85-5.8m-7.75 33.6l.6 7.45q0 1.7-.6 6.9 17.15-2.65 0-14.35m-39.25 11.2q.25.25.25.6 5.1 3.5 9.55 6.05l27.15-3.15q1.2-5.55.25-14.45l-1.55.2q1.55 2.3-3.05 5.35l-33.45 4.35.25.6q.4.1.6.45m-6.5.15l-.35-.4-9.2 1.25.85 1.8q.35.1.75.6.2.25.35.5 3 2.4 6.05 4.8l13.75-1.55q-3.75-2.2-7.75-4.95l-4.45-2.05m-33.35 4.1q-5.3.35-6.25-4.85l-5.7.6-16.75-15.8q-33.45 3-25 11.6l25.7 20.05 55.45-6.65q-2.05-1.6-4.1-3.05-.15-.1-.4-.1l-5.3-2.4-1.8-1.6-15.85 2.2m-7.45-34.8q-.25-.6-6.4-1.3l1.9 4.7 4.5-3.4z"/><path fill="#3F3F3F" d="M759.9 351.55q-1.55 8.55-7.1 11l28.6-3.25V349l-21.5 2.55m-29.45 3.5q23.4 13.15 27.15-3.15l-27.15 3.15M719.1 366.5q-5.05-4.45-10.85-8.9l-55.45 6.65-11.8 1.3v9.9l78.1-8.95m-6.5-9.4q5.4 4.45 10.25 8.95l22.8-2.65q-7.7-.85-19.3-7.85l-13.75 1.55m-10.75-22.2q.7-1.8 3.95-1.45l10.5 9.15 40-4.95 1.55-.2 2.05-.25 7.25-.85 4.35-.6V309.4l-2.9-2.9-95.25 11.35-4.5 3.4v27.15l5.7-.6 16.55-2.05-7.5-6.5q-.35-1.45-.25-2.55 0-.7.25-1.1.75-2.3 4.7-1.8l12.45 10.75 7.7-.95-6.5-5.7q-.35-1.3-.35-2.15.1-.5.25-.85z"/><path fill="#333" d="M674.55 347.8q.95 5.2 6.25 4.85l15.85-2.2-5.55-4.7-16.55 2.05m43.35-3.85h.1l1.8 3.4 33.45-4.35q4.6-3.05 3.05-5.35l-40 4.95 1.45 1.2.15.15m-15.2 2.3l.2.1.15.15 1.55 2.9 9.2-1.25-5.35-4.55-7.7.95 1.95 1.7m-52.9-53.75q10-8.8 22.35-2.4l-11.5-8.95q-11.95-4.95-21.5 2.05l10.65 9.3z"/><path fill="#999" d="M666.95 316.55h-.15l-32.95-28.65h-4.7l-1.1 11.75q23.55 32.35 40.8 28.85v-7.25l-1.9-4.7z"/><path d="M649.8 292.5l22.35-2.4q-12.35-6.4-22.35 2.4z"/></g><g id="b"><path d="M342.5 290.35q-1.2.15-2.1 1.05-.85 1-.85 2.2 0 .26.05.5.135.863.8 1.45.9.8 2.1.65l8.1-.95q1.2-.1 2.05-1.1.9-1 .9-2.2 0-.468-.15-.9-.2-.593-.75-1.05-.85-.7-2.05-.6l-8.1.95z"/><path fill="#CCC" d="M340.4 291.4q.9-.9 2.1-1.05l8.1-.95q1.2-.1 2.05.6.55.457.75 1.05-.132-.852-.85-1.45-.85-.7-2.05-.6l-8.1.95q-1.2.15-2.1 1.05-.85 1-.85 2.2 0 .487.15.9-.05-.24-.05-.5 0-1.2.85-2.2z"/></g><g id="c"><path fill="#999" d="M727.3 285.25q.75.4.85.75v-.35q-.1-.4-.85-.75-.6-.25-1.3-.35-.75 0-1.25.25-.35.35-.2.7.1-.1.2-.35.5-.25 1.25-.25.7.1 1.3.35m-9.05-5.9q-.1-.35-.85-.7-.45-.4-1.2-.4-.7 0-1.35.25-.35.25-.2.6.1-.1.2-.35.65-.1 1.35-.1.75 0 1.2.35.75.35.85.7.1-.25 0-.35m8.7 1.95q-.1-.15-.25-.25-.6-.25-1.3-.25-.75-.1-1.25.1-.35.4-.2.75 0-.15.2-.35.5-.25 1.25-.15.7 0 1.3.25.15.1.25.25.5.25.6.5v-.4q-.1-.25-.6-.45m-6.4.1q-.75-.1-1.2.1-.35.4-.25.85.1-.1.25-.45.45-.25 1.2-.25.7.1 1.35.35.7.5.8.85v-.35q-.1-.5-.8-.85-.65-.25-1.35-.25m1.8-3.15q-.6-.35-1.3-.35-.85 0-1.25.25-.35.25-.2.6 0-.1.2-.25.4-.25 1.25-.25.7 0 1.3.4.6.35.75.7V279q-.15-.35-.75-.75m6.9 9.9q.45-.1 1.2-.1.7 0 1.35.25.7.45.8.85v-.4q-.1-.35-.8-.85-.65-.2-1.35-.2-.75 0-1.2.1-.35.35-.25.75 0-.15.25-.4m7.25-.7q-.5-.35-1.2-.35-.75 0-1.35.1-.35.35-.25.7.15-.1.25-.35.6-.1 1.35-.1.7 0 1.2.25.25.2.35.35.5.25.5.5.1-.25 0-.4 0-.25-.5-.45-.1-.15-.35-.25m-4.35-2.9q-.5-.25-1.2-.25-.85-.1-1.35.1-.35.4-.25.75.15-.15.25-.35.5-.25 1.35-.25.7.1 1.2.35.6.35.7.75.15-.15 0-.4-.1-.35-.7-.7z"/><path d="M727.8 286.25q.25-.15.35-.25-.1-.35-.85-.75-.6-.25-1.3-.35-.75 0-1.25.25-.1.25-.2.35.1.35.7.6t1.35.25q.7.1 1.2-.1m-9.9-6.3q.35-.1.35-.25-.1-.35-.85-.7-.45-.35-1.2-.35-.7 0-1.35.1-.1.25-.2.35.1.35.7.75.75.2 1.45.2.75 0 1.1-.1m7.5 1.2q-.75-.1-1.25.15-.2.2-.2.35.1.35.6.7.7.25 1.45.4.7 0 1.05-.25.15 0 .25-.25.15-.1.25-.1-.1-.25-.6-.5-.1-.15-.25-.25-.6-.25-1.3-.25m-6.05.75q-.15.35-.25.45.1.4.7.6.65.25 1.35.4.75 0 1.2-.25.25-.15.35-.25-.1-.35-.8-.85-.65-.25-1.35-.35-.75 0-1.2.25m3.75-2.55q-.15-.35-.75-.7-.6-.4-1.3-.4-.85 0-1.25.25-.2.15-.2.25.1.35.6.7.6.25 1.45.25.7 0 1.05-.1.25-.15.4-.25m6.5 9.8q.75.35 1.45.35.75 0 1.1-.25.35 0 .45-.1-.1-.4-.8-.85-.65-.25-1.35-.25-.75 0-1.2.1-.25.25-.25.4.1.35.6.6m6.9-1.45q-.5-.25-1.2-.25-.75 0-1.35.1-.1.25-.25.35.15.4.75.65.7.35 1.45.35.7 0 1.05-.15.15 0 .25-.1 0-.1.15-.1 0-.25-.5-.5-.1-.15-.35-.35m-3.9-1.85q.25-.1.25-.2-.1-.4-.7-.75-.5-.25-1.2-.35-.85 0-1.35.25-.1.2-.25.35.15.35.75.6t1.45.35q.7 0 1.05-.25z"/></g><g id="d"><path d="M722.25 286.6q-.15-.35-.75-.75-.45-.2-1.2-.2-.85-.15-1.3.1-.15.25-.25.35.1.35.7.6.6.4 1.45.4.75 0 1.1-.25.25-.15.25-.25m3.95 2.4q-.1-.1-.35-.25-.45-.2-1.2-.35-.7 0-1.35.25-.1.25-.2.35.1.35.7.6.75.25 1.45.35.75 0 1.1-.2.1 0 .25-.15 0-.1.1-.1 0-.25-.5-.5m-7.6.25q-.25.25-.25.35.15.35.65.6.7.25 1.45.4.7 0 1.05-.25.4-.15.5-.25-.1-.35-.85-.75-.6-.2-1.35-.35-.7 0-1.2.25m-1.05-2.3q-.15-.35-.85-.7-.6-.25-1.35-.25-.7-.15-1.2.1-.1.25-.25.35.15.4.75.65.6.35 1.3.35.75 0 1.2-.25.25-.1.4-.25m-4-4.6q-.25.25-.25.4.1.35.6.6.75.25 1.45.35.75 0 1.1-.25.1 0 .25-.1.1-.15.25-.15-.15-.25-.65-.45-.1-.15-.2-.25-.6-.25-1.35-.35-.7 0-1.2.2m-1.45-1.8q.25-.1.35-.25-.1-.35-.7-.7-.6-.25-1.35-.35-.85 0-1.2.2-.25.25-.25.4.15.35.6.6.6.25 1.45.35.75 0 1.1-.25m-3.4 2.4q-.1.25-.25.4.15.35.75.6t1.35.35q.7 0 1.2-.25.25-.1.35-.25-.1-.35-.85-.7-.6-.25-1.35-.35-.7 0-1.2.2m-1.05-2.25q-.15-.4-.85-.75-.5-.25-1.2-.35-.75 0-1.35.25-.1.2-.25.35.15.35.75.6.7.25 1.45.35.7 0 1.05-.25.4-.1.4-.2z"/><path fill="#999" d="M721.5 285.85q.6.4.75.75.1 0 0-.35-.15-.4-.75-.75-.45-.25-1.2-.25-.85-.1-1.3.15-.4.35-.25.7.1-.1.25-.35.45-.25 1.3-.1.75 0 1.2.2m4.35 2.9q.25.15.35.25.5.25.5.5.15-.25 0-.35 0-.25-.5-.5-.1-.1-.35-.25-.45-.25-1.2-.35-.7 0-1.35.25-.35.35-.2.7.1-.1.2-.35.65-.25 1.35-.25.75.15 1.2.35m-7.25.15q-.35.35-.25.7 0-.1.25-.35.5-.25 1.2-.25.75.15 1.35.35.75.4.85.75v-.35q-.1-.4-.85-.75-.6-.25-1.35-.35-.7 0-1.2.25m-1.9-2.65q.7.35.85.7v-.35q-.15-.35-.85-.75-.6-.2-1.35-.2-.7-.15-1.2.1-.35.35-.25.7.15-.1.25-.35.5-.25 1.2-.1.75 0 1.35.25m-3.4-3.5q0-.15.25-.4.5-.2 1.2-.2.75.1 1.35.35.1.1.2.25.5.2.65.45v-.35q-.15-.25-.65-.5l-.2-.2q-.6-.25-1.35-.4-.7 0-1.2.25-.35.35-.25.75m-.85-2.45v-.35q-.1-.35-.7-.7-.6-.25-1.35-.4-.85 0-1.2.25-.35.35-.25.75 0-.15.25-.4.35-.2 1.2-.2.75.1 1.35.35.6.35.7.7m-3.75 2.3q-.35.35-.25.75.15-.15.25-.4.5-.2 1.2-.2.75.1 1.35.35.75.35.85.7v-.35q-.1-.35-.85-.7-.6-.25-1.35-.4-.7 0-1.2.25m-1.05-1.9q.1-.25 0-.4-.15-.35-.85-.7-.5-.25-1.2-.35-.75 0-1.35.2-.35.4-.25.75.15-.15.25-.35.6-.25 1.35-.25.7.1 1.2.35.7.35.85.75z"/></g><g id="e"><path d="M744.95 299q.7.1 1.2-.1.25-.15.35-.25-.1-.35-.85-.75-.6-.25-1.3-.35-.75 0-1.25.25-.1.25-.2.35.1.35.7.6t1.35.25m6 2.8q-.1-.4-.8-.85-.65-.25-1.35-.25-.75 0-1.2.1-.25.25-.25.4.1.35.6.6.75.35 1.45.35.75 0 1.1-.25.35 0 .45-.1m-1.05-3.05q.7 0 1.05-.25.25-.1.25-.2-.1-.4-.7-.75-.5-.25-1.2-.35-.85 0-1.35.25-.1.2-.25.35.15.35.75.6t1.45.35m5.8 2.45q0-.25-.5-.5-.1-.15-.35-.35-.5-.25-1.2-.25-.75 0-1.35.1-.1.25-.25.35.15.4.75.65.7.35 1.45.35.7 0 1.05-.15.15 0 .25-.1 0-.1.15-.1m-13.2-7.25q-.2.2-.2.35.1.35.6.7.7.25 1.45.4.7 0 1.05-.25.15 0 .25-.25.15-.1.25-.1-.1-.25-.6-.5-.1-.15-.25-.25-.6-.25-1.3-.25-.75-.1-1.25.15m-3.6.35q-.75 0-1.2.25-.15.35-.25.45.1.4.7.6.65.25 1.35.4.75 0 1.2-.25.25-.15.35-.25-.1-.35-.8-.85-.65-.25-1.35-.35m-.75-3.15q-.2.15-.2.25.1.35.6.7.6.25 1.45.25.7 0 1.05-.1.25-.15.4-.25-.15-.35-.75-.7-.6-.4-1.3-.4-.85 0-1.25.25m-4.95.25q-.1.25-.2.35.1.35.7.75.75.2 1.45.2.75 0 1.1-.1.35-.1.35-.25-.1-.35-.85-.7-.45-.35-1.2-.35-.7 0-1.35.1z"/><path fill="#999" d="M745.65 297.55q-.6-.25-1.3-.35-.75 0-1.25.25-.35.35-.2.7.1-.1.2-.35.5-.25 1.25-.25.7.1 1.3.35.75.4.85.75v-.35q-.1-.4-.85-.75m4.5 3.4q.7.45.8.85v-.4q-.1-.35-.8-.85-.65-.2-1.35-.2-.75 0-1.2.1-.35.35-.25.75 0-.15.25-.4.45-.1 1.2-.1.7 0 1.35.25m1.05-3.05q-.1-.35-.7-.7-.5-.25-1.2-.25-.85-.1-1.35.1-.35.4-.25.75.15-.15.25-.35.5-.25 1.35-.25.7.1 1.2.35.6.35.7.75.15-.15 0-.4m4 2.8q.5.25.5.5.1-.25 0-.4 0-.25-.5-.45-.1-.15-.35-.25-.5-.35-1.2-.35-.75 0-1.35.1-.35.35-.25.7.15-.1.25-.35.6-.1 1.35-.1.7 0 1.2.25.25.2.35.35m-11.45-7.25q-.75-.1-1.25.1-.35.4-.2.75 0-.15.2-.35.5-.25 1.25-.15.7 0 1.3.25.15.1.25.25.5.25.6.5v-.4q-.1-.25-.6-.45-.1-.15-.25-.25-.6-.25-1.3-.25m-6.05.7q-.35.4-.25.85.1-.1.25-.45.45-.25 1.2-.25.7.1 1.35.35.7.5.8.85v-.35q-.1-.5-.8-.85-.65-.25-1.35-.25-.75-.1-1.2.1m.25-2.75q0-.1.2-.25.4-.25 1.25-.25.7 0 1.3.4.6.35.75.7v-.35q-.15-.35-.75-.75-.6-.35-1.3-.35-.85 0-1.25.25-.35.25-.2.6m-4.95.35q.1-.1.2-.35.65-.1 1.35-.1.75 0 1.2.35.75.35.85.7.1-.25 0-.35-.1-.35-.85-.7-.45-.4-1.2-.4-.7 0-1.35.25-.35.25-.2.6z"/></g><g id="f"><path d="M735.5 299.85q.25-.1.4-.25-.15-.35-.85-.7-.6-.25-1.35-.25-.7-.15-1.2.1-.1.25-.25.35.15.4.75.65.6.35 1.3.35.75 0 1.2-.25m4.85 2.9q-.1-.35-.85-.75-.6-.2-1.35-.35-.7 0-1.2.25-.25.25-.25.35.15.35.65.6.7.25 1.45.4.7 0 1.05-.25.4-.15.5-.25m0-3.25q.25-.15.25-.25-.15-.35-.75-.75-.45-.2-1.2-.2-.85-.15-1.3.1-.15.25-.25.35.1.35.7.6.6.4 1.45.4.75 0 1.1-.25m4.7 2.65q0-.25-.5-.5-.1-.1-.35-.25-.45-.2-1.2-.35-.7 0-1.35.25-.1.25-.2.35.1.35.7.6.75.25 1.45.35.75 0 1.1-.2.1 0 .25-.15 0-.1.1-.1m-22.45-9.65q-.1.2-.25.35.15.35.75.6.7.25 1.45.35.7 0 1.05-.25.4-.1.4-.2-.15-.4-.85-.75-.5-.25-1.2-.35-.75 0-1.35.25m9.3 2.5q-.25.25-.25.4.1.35.6.6.75.25 1.45.35.75 0 1.1-.25.1 0 .25-.1.1-.15.25-.15-.15-.25-.65-.45-.1-.15-.2-.25-.6-.25-1.35-.35-.7 0-1.2.2m-1.45 1.45q-.1-.35-.85-.7-.6-.25-1.35-.35-.7 0-1.2.2-.1.25-.25.4.15.35.75.6t1.35.35q.7 0 1.2-.25.25-.1.35-.25m.35-3.5q-.1-.35-.7-.7-.6-.25-1.35-.35-.85 0-1.2.2-.25.25-.25.4.15.35.6.6.6.25 1.45.35.75 0 1.1-.25.25-.1.35-.25z"/><path fill="#999" d="M735.9 299.25q-.15-.35-.85-.75-.6-.2-1.35-.2-.7-.15-1.2.1-.35.35-.25.7.15-.1.25-.35.5-.25 1.2-.1.75 0 1.35.25.7.35.85.7v-.35m3.6 2.75q.75.4.85.75v-.35q-.1-.4-.85-.75-.6-.25-1.35-.35-.7 0-1.2.25-.35.35-.25.7 0-.1.25-.35.5-.25 1.2-.25.75.15 1.35.35m1.1-2.75q.1 0 0-.35-.15-.4-.75-.75-.45-.25-1.2-.25-.85-.1-1.3.15-.4.35-.25.7.1-.1.25-.35.45-.25 1.3-.1.75 0 1.2.2.6.4.75.75m3.95 2.4q.5.25.5.5.15-.25 0-.35 0-.25-.5-.5-.1-.1-.35-.25-.45-.25-1.2-.35-.7 0-1.35.25-.35.35-.2.7.1-.1.2-.35.65-.25 1.35-.25.75.15 1.2.35.25.15.35.25m-22.2-8.8q.15-.15.25-.35.6-.25 1.35-.25.7.1 1.2.35.7.35.85.75.1-.25 0-.4-.15-.35-.85-.7-.5-.25-1.2-.35-.75 0-1.35.2-.35.4-.25.75m9.3 2.55q0-.15.25-.4.5-.2 1.2-.2.75.1 1.35.35.1.1.2.25.5.2.65.45v-.35q-.15-.25-.65-.5l-.2-.2q-.6-.25-1.35-.4-.7 0-1.2.25-.35.35-.25.75m-2.05.35q.75.35.85.7v-.35q-.1-.35-.85-.7-.6-.25-1.35-.4-.7 0-1.2.25-.35.35-.25.75.15-.15.25-.4.5-.2 1.2-.2.75.1 1.35.35m.5-3.5q.6.35.7.7v-.35q-.1-.35-.7-.7-.6-.25-1.35-.4-.85 0-1.2.25-.35.35-.25.75 0-.15.25-.4.35-.2 1.2-.2.75.1 1.35.35z"/></g><g id="g"><path fill="#666" d="M699.05 348.65q1-1.55 4.35-2.05l-.2-.1-14.4-12.45q-3.95-.5-4.7 1.8l14.95 12.8m7.25-14.95q-3.25-.35-3.95 1.45l9.75 8.3 2.8 2.3q.85-1.2 3.5-1.55l-.15-.15-11.95-10.35z"/><path fill="#4A4A4A" d="M705.6 351.3q.25 0 .35.15l-2.4-4.7-.15-.15q-3.35.5-4.35 2.05-.2.35-.45.85 0 .35-.15.6l4.95 3.05v-.4q.15-.7.85-1.2.6-.35 1.35-.25m12.9-7.1h-.1q-2.65.35-3.5 1.55-.25.4-.35.85-.15.25-.15.5l4 2.4q.1-.1.1-.25.15-.6.5-1.05.6-.25 1.2-.15.25 0 .35.15l-2.05-4z"/><path fill="#2C2C2C" d="M684.1 335.85q-.25.4-.25 1.1l14.75 12.55q.25-.5.45-.85l-14.95-12.8m18.25-.7q-.15.35-.25.85l8.95 7.6 1.05-.15-9.75-8.3z"/><path d="M683.85 336.95q-.1 1.1.25 2.55l14.85 12.8 5.3 2.4q.25 0 .4.1 2.05 1.45 4.1 3.05 5.8 4.45 10.85 8.9 8.888 7.754 15.4 15.2.878 1.003 1.7 2h3.4q-.784-.997-1.65-2-6.38-7.644-15.1-15.65-4.85-4.5-10.25-8.95-3.05-2.4-6.05-4.8-.15-.25-.35-.5-.4-.5-.75-.6-.1-.15-.35-.15-.75-.1-1.35.25-.7.5-.85 1.2v.4l-4.95-3.05q.15-.25.15-.6l-14.75-12.55m18.25-.95q0 .85.35 2.15l11.85 10.25h.25q.1.15.1.4l4.45 2.05q4 2.75 7.75 4.95 11.6 7 19.3 7.85 4.1.45 7.15-.85 5.55-2.45 7.1-11 .6-5.2.6-6.9l-.6-7.45-2.05.25q.95 8.9-.25 14.45-3.75 16.3-27.15 3.15-4.45-2.55-9.55-6.05 0-.35-.25-.6-.2-.35-.6-.45-.1-.15-.35-.15-.6-.1-1.2.15-.35.45-.5 1.05 0 .15-.1.25l-4-2.4q0-.25.15-.5.1-.45.35-.85l-2.8-2.3-1.05.15-8.95-7.6z"/></g><path fill="#666" d="M360.2 291.35q0 1.25 1.25 1.1l13.75-1.7q1.25-.15 1.25-1.4v-4.05q0-1.2-1.25-1.05l-13.75 1.7q-1.25.15-1.25 1.35v4.05z" id="h"/></defs><use xlink:href="#a" transform="translate(-594.5 -247)"/><use xlink:href="#b" transform="matrix(2.4148 0 0 2.4148 -737 -618.8)"/><use xlink:href="#c" transform="translate(-594.5 -247)"/><use xlink:href="#d" transform="translate(-594.5 -247)"/><use xlink:href="#e" transform="translate(-594.5 -247)"/><use xlink:href="#f" transform="translate(-594.5 -247)"/><use xlink:href="#g" transform="translate(-594.5 -247)"/><use xlink:href="#h" transform="matrix(2.4148 0 0 2.4148 -737 -618.8)"/></svg>