<svg xmlns="http://www.w3.org/2000/svg" xmlns:xlink="http://www.w3.org/1999/xlink" preserveAspectRatio="none" width="500" height="500" viewBox="0 0 500 500"><defs><radialGradient id="a" gradientUnits="userSpaceOnUse" cx="0" cy="0" r="308.613" fx="0" fy="0" gradientTransform="translate(-2)" spreadMethod="pad"><stop offset="0%" stop-color="#FFF"/><stop offset="62.353%" stop-color="#FFF" stop-opacity=".598"/><stop offset="100%" stop-color="#FFF" stop-opacity="0"/></radialGradient><filter id="b" x="-20%" y="-20%" width="140%" height="140%" color-interpolation-filters="sRGB"><feColorMatrix in="SourceGraphic" values="1 0 0 0 0 0 1 0 0 0 0 0 1 0 0 0 0 0 0.47 0" result="result1"/></filter><path fill="url(#a)" d="M703.45 176V99.9L0 0l703.45 176z" id="c"/></defs><use filter="url(#b)" xlink:href="#c" transform="matrix(.91173 0 0 .91173 249.772 253.085)"/><use filter="url(#b)" xlink:href="#c" transform="matrix(.87074 -.27028 .27028 .87074 249.772 253.085)"/><use filter="url(#b)" xlink:href="#c" transform="matrix(.7583 -.50617 .50617 .7583 249.772 253.085)"/><use filter="url(#b)" xlink:href="#c" transform="rotate(-50.93 390.6 -135.692) scale(.91172)"/><use filter="url(#b)" xlink:href="#c" transform="scale(.91172) rotate(-67.872 343.25 -64.775)"/><use filter="url(#b)" xlink:href="#c" transform="scale(.9117) rotate(-84.856 288.832 -11.068)"/><use filter="url(#b)" xlink:href="#c" transform="scale(.9117) rotate(-102.3 248.776 28.466)"/><use filter="url(#b)" xlink:href="#c" transform="rotate(-122.3 194.6 57.742) scale(.9117)"/><use filter="url(#b)" xlink:href="#c" transform="scale(.9117) rotate(-139.265 188.513 87.946)"/><use filter="url(#b)" xlink:href="#c" transform="rotate(-155.983 151.803 99.978) scale(.91168)"/><use filter="url(#b)" xlink:href="#c" transform="scale(.9117) rotate(-173.215 145.21 130.68)"/><use filter="url(#b)" xlink:href="#c" transform="scale(.91167) rotate(169.793 124.59 151.037)"/><use filter="url(#b)" xlink:href="#c" transform="rotate(152.807 94.28 156.748) scale(.91166)"/><use filter="url(#b)" xlink:href="#c" transform="rotate(135.85 73.567 177.19) scale(.91165)"/><use filter="url(#b)" xlink:href="#c" transform="scale(.91165) rotate(118.903 55.068 219.654)"/><use filter="url(#b)" xlink:href="#c" transform="scale(.91165) rotate(101.715 24.014 250.303)"/><use filter="url(#b)" xlink:href="#c" transform="scale(.91165) rotate(84.992 -14.512 288.325)"/><use filter="url(#b)" xlink:href="#c" transform="scale(.91164) rotate(67.998 -68.81 341.913)"/><use filter="url(#b)" xlink:href="#c" transform="rotate(51.05 -140.124 388.083) scale(.91165)"/><use filter="url(#b)" xlink:href="#c" transform="matrix(.7551 .5108 -.5108 .7551 249.772 253.085)"/><use filter="url(#b)" xlink:href="#c" transform="matrix(.87133 .2681 -.2681 .87133 249.772 253.085)"/></svg>