
<svg xmlns="http://www.w3.org/2000/svg" version="1.1" xmlns:xlink="http://www.w3.org/1999/xlink" preserveAspectRatio="none" x="0px" y="0px" width="240px" height="45px" viewBox="0 0 240 45">
<defs>
<g id="S_mbolo_1_0_Layer0_0_MEMBER_0_FILL">
<path fill="#8CA8B8" fill-opacity="0.10196078431372549" stroke="none" d="
M 209.3 38.2
L 209.3 0.05 0 0.05 0 38.2 209.3 38.2 Z"/>
</g>

<g id="S_mbolo_1_0_Layer0_0_MEMBER_1_FILL">
<path fill="#8CA8B8" fill-opacity="0.4980392156862745" stroke="none" d="
M 239.05 45
L 210.7 37.9 0.05 38 29.4 45 239.05 45 Z"/>
</g>

<g id="S_mbolo_1_0_Layer0_0_MEMBER_2_FILL">
<path fill="#8CA8B8" fill-opacity="0.30196078431372547" stroke="none" d="
M 209 0
L 209.45 33.35 209.95 33.35 210 38 239 45 239 16 209 0 Z"/>
</g>
</defs>

<g transform="matrix( 1, 0, 0, 1, 0,0) ">
<g transform="matrix( 1, 0, 0, 1, 0,0) ">
<use xlink:href="#S_mbolo_1_0_Layer0_0_MEMBER_0_FILL"/>
</g>

<g transform="matrix( 1, 0, 0, 1, 0,0) ">
<use xlink:href="#S_mbolo_1_0_Layer0_0_MEMBER_1_FILL"/>
</g>

<g transform="matrix( 1, 0, 0, 1, 0,0) ">
<use xlink:href="#S_mbolo_1_0_Layer0_0_MEMBER_2_FILL"/>
</g>
</g>
</svg>
