<svg xmlns="http://www.w3.org/2000/svg" xmlns:xlink="http://www.w3.org/1999/xlink" preserveAspectRatio="none" width="112" height="373" viewBox="0 0 112 373"><defs><g id="a"><path fill="#900" d="M471.35 318.4q-.143.38-.3.75-2.575 6.786-4.85 11.1-3.05 5.9-8.3 8.75-2.8 1.55-5.9 2v.05l.05.35q.2 0 .45.1 1.45.25 2.9.65 3.85 1.05 7.35 2.85.95.5 1.95 1.05.65.4 1.35.85 1.15.75 2.3 1.6.95.7 1.9 1.5.7.6 1.4 1.3.2.15.4.35l.25.25.3-.3 1.85-45.7q-1.95 1.6-2.3 5.1-.3 2.65-.8 7.4m35.5-118.1v-.15q-.35.1-.65.2l.65-.05M484 327.2l1.8 22.4q.1-.1.2-.15.25-.2.5-.35 4.2-3.05 8.35-4.7 8.35-3.25 16.6-.8 2.6.8 5.25 2.2.65.35 1.3.75l-1.25-13q-1 1.75-1.35 2.15-3.4 4.35-8.45 4.35-6.95 0-14-5.3-5.25-4.6-8.95-7.55m-2.95-86.2q-.4-.25-3.5-.25h-.5v.15l2.35 29.05q.6-3.7 1.2-9.1 1.2-10.7 1.2-14.35v-1-1.5q0-2.55-.75-3m-8.2 3.45q-.3.55-.3 1.3 0 .05 1.8 7.7 1.2 5.35 1.8 8.6 0 .15.05.3l.85-21.45-.1-.15q-2.25.05-2.9.25-1.5.45-1.5 2.25l.3 1.2M451.9 208.6q.05.05.15.1.25.1.55.25 4.1 1.85 11.4 3.35 8.6 1.7 12.05 1.7 6.7 0 19.3-2.7 5.05-1.1 8.6-1.8.5-1.5 1.1-3.1.85-2.25 1.15-6.05-26.55 7.5-53.4 2.05l-.85 5.85-.05.35z"/><path fill="#C00" d="M452.05 208.7q-.1-.05-.15-.1l-.3 2.1-1.35 9.75L444 263.9q1.207 32.33-1.8 55.25-1.57 12.21-4.35 21.75 3.2-.3 6.2-.25.15-.05.35 0 3.2.05 6.2.5.6.05 1.2.2.1 0 .25.05l-.05-.35V341q3.1-.45 5.9-2 5.25-2.85 8.3-8.75 2.275-4.314 4.85-11.1.157-.37.3-.75.5-4.75.8-7.4.35-3.5 2.3-5.1l1.75-43.55q-.05-.15-.05-.3-.6-3.25-1.8-8.6-1.8-7.65-1.8-7.7 0-.75.3-1.3l-.3-1.2q0-1.8 1.5-2.25.65-.2 2.9-.25l.1.15v-.15h.5q3.1 0 3.5.25.75.45.75 3v2.5q0 3.65-1.2 14.35-.6 5.4-1.2 9.1l4.6 57.25q3.7 2.95 8.95 7.55 7.05 5.3 14 5.3 5.05 0 8.45-4.35.35-.4 1.35-2.15l-6.4-65.8-1.5-28.75q-.7 0-1.8-.25-1.05-.3-1.65-.3 0-4.6.9-8.4.7-3.2.85-5.7v-.95l.9-.05-.45-8.15-1.65.05q0 .25.05.65 0 1-.05 2-.25 4.35-1.8 7.7-1.9 4.1-2.85-4-.2-1.55.4-4.3.15-.8.4-1.75.7-2.8 1.85-6.05-3.55.7-8.6 1.8-12.6 2.7-19.3 2.7-3.45 0-12.05-1.7-7.3-1.5-11.4-3.35-.3-.15-.55-.25z"/><path fill="#FEFE4E" d="M500.65 380.1q-4.95-2.45-6.35-4.3-1.4-1.85-5.05-6.1-3.75-4.4-5.05-5.6 1.05 9.05 9.9 15.9 8.6 6.75 16.75 6.75l7.2-1q2.3-.3 4.15-2.25 1.8-3.3 2.65-6.3-.8 1.4-5.1 3.4t-9.25 1.95q-4.95-.05-9.85-2.45m-30.4-30.1q-.95-.8-1.9-1.5-1.35 1.15-3.3 2.35-.35.2-.65.35 3.45 1.6 7.25.75v-.65q-.7-.7-1.4-1.3m-55.9 15.4q.05.9.25 2.5.3 2.55 8.35 3.8 8.05 1.2 16.1-1 8-2.2 12.95-3.85 4.9-1.7 12.95-5.1 5.75-3 6.7-9v-.8q-6 4.35-15.1 8.75-12.75 6.15-20.5 6.15-8.15 1.95-11 1.15-2.9-.85-7.5-1.35-2.45-.25-3.2-1.25z"/><path fill="#9C0" d="M490.3 356q-1.05-1.9-2.25-3.25-.65.6-.95 1l-.25.5q-.1.45-.25 1.15 0 3.3 4.85 9.45 3.15 4 4.9 5.55 0-.9.05-2 .1-2.05-1.15-3.45-1.75-2-1.95-2.45-.65-1.55-1.2-2.75-1.15-2.65-1.8-3.75m-29.75-7.2l-.1.2.3.2-.2-.4m-16.6 9.3q-4.15 2.4-8.65 5.25 1.6-.45 3.45-1 4.85-1.45 7.9-2.15h.05q5.95-3.1 8.3-4.8 3.05-2.25 5.45-6.4-1.4-.75-2.4-1.25l.1-.25-.2.2q-4.2 3.65-6.9 5.8-2.5 2-7.1 4.6z"/><path fill="#CCC" d="M525.4 370.25q-.55-3.9-2.5-9.6-.9 3.3-4.95 5.4-3.6 1.85-7.5 1.85-3.55 0-5.05-.4-.5-.15-5.1-1.95-2.95-1.1-4.55-2.1-2.6-1.65-3.65-3.7.55 1.2 1.2 2.75.2.45 1.95 2.45 1.25 1.4 1.15 3.45-.05 1.1-.05 2 0 1.25.1 2.1.15 1 .45 1.9 4.95 4.1 8.9 4.1.1 0 3.9-2.45 3.8-2.5 8.35-2.5 1 0 2.8 1.05 1.8 1.05 1.85 1.05.7 0 1.7-1.25.45-.55 1.15-1.45v-.4q0-1.2-.15-2.3m-8.7-24.45q-2.65-1.4-5.25-2.2.4 1.4.95 3.55 2.6.6 5.8 1.7-.85-1.85-1.5-3.05m-31.05 5.2l.15.15q.25 0 .25-.3 1.05.8 2 1.85 2.75-1.45 7.2-3.95.75-.4 1.55-.75-1.05-2.3-1.95-3.6-4.15 1.65-8.35 4.7-.25.15-.5.35-.15.6-.35 1.55m-33.85-9.65q-1.05 1.75-3.45 3.9 5.2.85 7.55 1.5.45.15 1.55.65-8.75 4.75-13.55 7.3-8.85 4.7-16.25 4.7-2.6 0-4.55-.65-2.7-.9-3.15-3.45-2.7 2.2-4.25 4.35-1.25 1.75-1.45 3.3 1.05-2.3 3.6-2.3.85 0 3.35 2.1 2.55 2.05 5.85 2.05 2.65 0 8.25-1.45 4.5-2.85 8.65-5.25 4.6-2.6 7.1-4.6 2.7-2.15 6.9-5.8l.2-.2q2.15-1.55 4.6-2.5-3.5-1.8-7.35-2.85-1.45-.4-2.9-.65-.25-.1-.45-.1-.15-.05-.25-.05z"/><path fill="#666" d="M514.2 356.15q0-1.4-1.15-6.3-.35-1.5-.65-2.7-3.75-.9-6.45-.9-5.2 0-9.15 1.75 1.4 3 3.15 7.75 3.55 6.75 10.5 6.75 1.95 0 2.95-2.1.8-1.7.8-4.25M449.15 141q.5-.15 1-.25l.35-13.85 1.45-11.3q-7.25 16.15-13.1 17.15-1.6.25-3.2.25-2.4 0-3.9-.7l-1.1 3.75q3.35 2.3 6.6 3.6l1.1.4q5.5 1.95 10.8.95m56.6 27.9q-.3-3.9-.45-7.95-9.1 5.15-10.55 5.75-5.6 2.3-15.1 2.3-9 0-23.45-6.85-2.55-1.3-4.6-2.3-.35-.15-.6-.3.15 10.9-.4 21.3-.2 3.1-.4 6.15.9.75 1.9 1.55 5 3.45 11.05 3.45 11.55 0 31.5-11 5.4-2.95 10.9-9.8.15-.2.35-.4-.1-.95-.15-1.9m19.6-36.2l-1.4-3.85q-5.15 3.15-10.8 3.15-4.55 0-8.5-9.45l.95 15.6q.8.15 1.55.3 7.55 1.2 13.6-2.25 2.4-1.35 4.6-3.5z"/><path fill="#FFF" d="M520.5 354.25q-1.3-3.2-2.3-5.4-3.2-1.1-5.8-1.7.3 1.2.65 2.7 1.15 4.9 1.15 6.3 0 2.55-.8 4.25-1 2.1-2.95 2.1-6.95 0-10.5-6.75-1.75-4.75-3.15-7.75-.8.35-1.55.75-4.45 2.5-7.2 3.95v.05q1.2 1.35 2.25 3.25.65 1.1 1.8 3.75 1.05 2.05 3.65 3.7 1.6 1 4.55 2.1 4.6 1.8 5.1 1.95 1.5.4 5.05.4 3.9 0 7.5-1.85 4.05-2.1 4.95-5.4-.05-.1-.05-.2-1-2.9-2.35-6.2m-92.85 5.15q7.4 0 16.25-4.7 4.8-2.55 13.55-7.3-1.1-.5-1.55-.65-2.35-.65-7.55-1.5-2.7 2.35-7.05 5.2-9.4 6.1-15.05 6.1-1.35 0-2.2-.6-.95-.65-1.9-2.35 0-.05-.05-.05-.7.55-1.55 1.25l-.6.5q.45 2.55 3.15 3.45 1.95.65 4.55.65z"/><path fill="#4D4D4D" d="M511.45 343.6q-8.25-2.45-16.6.8.9 1.3 1.95 3.6 3.95-1.75 9.15-1.75 2.7 0 6.45.9-.55-2.15-.95-3.55m-63.1 1.65q2.4-2.15 3.45-3.9-.6-.15-1.2-.2-3-.45-6.2-.5-.2-.05-.35 0-3-.05-6.2.25-2.05 2.35-5.85 5.15-4.55 3.25-6.55 4.8-1.3 1.05-3.35 2.7.05 0 .05.05.95 1.7 1.9 2.35.85.6 2.2.6 5.65 0 15.05-6.1 4.35-2.85 7.05-5.2z"/><path fill="#FEC792" d="M514.8 233.55l.3-.8q2.6-3.3 3.65-8.4v-1.95q-1.3 1.2-3.45 1.65-.7.15-8.15.3-.15 2.5-.85 5.7-.9 3.8-.9 8.4.6 0 1.65.3 1.1.25 1.8.25 2.9 0 4.4-2.35.7-1.1 1.55-3.1m-12.45-15.85q-.35-.15-.65-.4-.6 2.75-.4 4.3.95 8.1 2.85 4 1.55-3.35 1.8-7.7l-.55-.05q-1.3.7-3.05-.15m-54.75 15.35q.3-4.6-.35-8.4-.2-1.25-.3-2.35-.8.4-1.1.5-1.1.4-2.65.4-4.35-.7-7.15-1.25.8 2.75 2.25 4.85.1.35.25.7.7 2.1 1.35 3.25 1.3 2.45 4.2 2.65.7.05 1.8-.15t1.7-.2m4-22.35q-.3.35-.65.65-1.2.95-2.55.7-.15 4.65 1.25 8.3l.6.1 1.35-9.75m-1.1-64.65l-.3-5.1-1.05.05q-5.3 1-10.8-.95l-.4 6.15q.7.05 1.5.15 2.9.35 4 .35 4.1 0 5.15-.15 1-.15 1.9-.5m56.65-7.6v3.95q.6.2 1 .35 1.9.55 4.45.55 4.25 0 5.15-.15 1.6-.25 3-1.05v-5.9q-6.05 3.45-13.6 2.25z"/><path fill="#FF9" d="M484.05 361.55q0 1.3.15 2.55 1.3 1.2 5.05 5.6 3.65 4.25 5.05 6.1 1.4 1.85 6.35 4.3 4.9 2.4 9.85 2.45 4.95.05 9.25-1.95t5.1-3.4q.6-2.25.7-4.25-.7.9-1.15 1.45-1 1.25-1.7 1.25-.05 0-1.85-1.05t-2.8-1.05q-4.55 0-8.35 2.5-3.8 2.45-3.9 2.45-3.95 0-8.9-4.1-2.55-2.15-5.4-5.35-6.3-8.3-7.25-9.65-.2 1.45-.2 2.15m-48.75 1.8q-5.6 1.45-8.25 1.45-3.3 0-5.85-2.05-2.5-2.1-3.35-2.1-2.55 0-3.6 2.3-.05.15 0 .3-.05.35 0 1.25 0 .3.1.9.75 1 3.2 1.25 4.6.5 7.5 1.35 2.85.8 11-1.15 7.75 0 20.5-6.15 9.1-4.4 15.1-8.75-3.8.85-7.25-.75-2.85 1.55-4.6 2.55-.3.15-3.7 3.2-2.4 2.15-5.55 2.45-1.3.15-3.85.8h-.05q-3.05.7-7.9 2.15-1.85.55-3.45 1z"/><path fill="#667E01" d="M485.8 351.15l-.3.45q-.2 1.1-.45 2.6-.05.1-.05.3l-.1.4q-.45 2.6-.65 4.3v.2q.95 1.35 7.25 9.65 2.85 3.2 5.4 5.35-.3-.9-.45-1.9-.1-.85-.1-2.1-1.75-1.55-4.9-5.55-4.85-6.15-4.85-9.45.15-.7.25-1.15l.25-.5q.3-.4.95-1v-.05q-.95-1.05-2-1.85 0 .3-.25.3m-21.1-5.1q-1-.55-1.95-1.05-2.45.95-4.6 2.5l-.1.25q1 .5 2.4 1.25l.1-.2.2.4-.3-.2q-2.4 4.15-5.45 6.4-2.35 1.7-8.3 4.8 2.55-.65 3.85-.8 3.15-.3 5.55-2.45 3.4-3.05 3.7-3.2 1.75-1 4.6-2.55.3-.15.65-.35 1.95-1.2 3.3-2.35-1.15-.85-2.3-1.6-.7-.45-1.35-.85z"/><path fill="#FFEAD5" d="M450.5 146.05q-.9.35-1.9.5-1.05.15-5.15.15-1.1 0-4-.35-.8-.1-1.5-.15l-.1 1.55q-.45 6.25.15 18.9.6 12.65.8 17.8.15 5.05-.05 7.95-.1 2.85-.5 7.35-.3 4.45-2.3 7.2l-.75 11.2q.3 2.05.85 3.8 2.8.55 7.15 1.25 1.55 0 2.65-.4.3-.1 1.1-.5-.25-2.4-.15-4.35.1-1.6.9-4.3.25-.95.45-1.65.2-.9.3-1.45-.25-.4-.55-.7l.65.05q0 .25-.1.65-.05.75-.05 1.5 1.35.25 2.55-.7.35-.3.65-.65l.3-2.1.05-.35q-.65-2.95-1.65-6.35-.75-.2-1.5-.35-.1-.05-.15-.05l.1-.7.6-4.7q-.2-5.25 1-13.65.1-.8.25-1.6.55-10.4.4-21.3-.15-6.65-.5-13.5m57.65-3.3q-.4-.15-1-.35-.2 18.4-1.15 24.4-.15 1-.25 2.1.05.95.15 1.9v.4h-.35q-.4 6.6.4 16.5.6 7.55.25 12.5l.65-.05v.15l-.65.05q-.3 3.8-1.15 6.05-.6 1.6-1.1 3.1-1.15 3.25-1.85 6.05-.25.95-.4 1.75.3.25.65.4 1.75.85 3.05.15l.55.05q.05-1 .05-2-.05-.4-.05-.65l1.65-.05.45 8.15-.9.05v.95q7.45-.15 8.15-.3 2.15-.45 3.45-1.65v-9.25q-1.8-2.9-1.85-7.35-.1-4.5 0-7.35 0-2.9.5-8t1.95-17.65q1.4-12.6 1.4-18.85V142.1q-1.4.8-3 1.05-.9.15-5.15.15-2.55 0-4.45-.55z"/><path fill="#333" d="M505.55 171.2q-5.5 6.85-10.9 9.8-19.95 11-31.5 11-6.05 0-11.05-3.45-1-.8-1.9-1.55-.4 4.6-.85 9.1l-.6 4.7-.1.7q.05 0 .15.05.75.15 1.5.35 1.2.25 2.45.5h.05q26.85 5.45 53.4-2.05.3-.1.65-.2l-.65.05q.35-4.95-.25-12.5-.8-9.9-.4-16.5m0 0h.35v-.4q-.2.2-.35.4z"/><path fill="#999" d="M486.4 88.45v3.85q-7.8 9.65-17.95 2.5v-7Q451.5 93.15 440.7 102l-8.95 30.3q1.5.7 3.9.7 1.6 0 3.2-.25 5.85-1 13.1-17.15l-1.45 11.3-.35 13.85q0 .1.05.2l.3 5.1q.35 6.85.5 13.5.25.15.6.3 2.05 1 4.6 2.3 14.45 6.85 23.45 6.85 9.5 0 15.1-2.3 1.45-.6 10.55-5.75-.3-9.3.15-19.25.05-1.8.15-3.55l-.95-15.6q3.95 9.45 8.5 9.45 5.65 0 10.8-3.15l-10.3-28.35q-12.9-9.4-27.25-12.05z"/></g><g id="b"><path fill="#FEC792" d="M486.4 84.1v-6.3q-11.35-12.35-17.8 2.1-.1.15-.15.3v5.2q.4.3.9.65 3.9 2.5 6.15 2.5 1.15 0 6.05-2.15 2.6-1.15 4.85-2.3z"/><path fill="#FFEAD5" d="M486.4 92.3v-8.2q-2.25 1.15-4.85 2.3-4.9 2.15-6.05 2.15-2.25 0-6.15-2.5-.5-.35-.9-.65v9.4q10.15 7.15 17.95-2.5z"/></g><g id="c"><path fill="#F46302" d="M453.8 56.15q-.2 1.55-.35 3.2-.2 2.9-.2 5.75 0 2.45 1 7.2.65 2.6 1.3 4.85.85 1.5 2 2.45-1.05-3.15-2-7.3-1.05-4.75-1.05-7.2 0-2.85.25-5.75.15-1.65.35-3.2.4-3 .9-4.55-.9.85-1.7 1.65-.25 1.2-.5 2.9m-18.85-4.5v.1q3.85-.2 7.15-2 3.1-1.6 6.4-5.1-1.65 1.25-5.3 3.3-5.85 3.45-8.25 3.7m14.15-3q2.1-1.45 6-5.65-6.35 5.45-15.45 8.9.05.15.15.25 5.85-1.1 9.3-3.5m1.4-12.9q-.5.3-1 .5-8.55 4.3-13.1 4.45v.2q2.1 1.05 4.25 1.05 1.65 0 3.8-1.1 2.05-1 3.85-2.65 1.35-1.2 2.2-2.45m46.8 23.4q-.1-2.8-.8-4.95-.6.15-1 .5-.05.85-.15 1.75-.05 1.15-.1 1.85-.05.65-.05.9 0 3.1.45 5.65.25 1.75.75 3.25l.15-.05q.2.8.4 1.55l.15-.05q-.2-1.95 0-5.25.2-3.95.2-5.15m.35-16.7q-.6 0-.9.25-.25.25-.25.65 0 3.45 8.5 5.9 2.35.7 5.05 1.25-1.7-1-4-2.35-1.25-.75-2.3-1.4-3.7-2.3-4.95-3.25.6-.05 1.25-.15-.45-.15-1-.4-1-.5-1.4-.5M496 46h-1.3q-.05 0-.15.05-.1.1-.1.5 0 2.4 6.35 5.9.7.4 1.35.75v-.1q-1.4-1.2-2.25-2-2.1-2.15-3.15-4.05-.65-.85-.75-1.05m4.1-10.5q-1.1-3.2-2-6.3-.95-3.05-5.1-8.65-4.3-5.55-7.5-5.55t-7.2 1.1q-2.8.75-3.95 1.2-1.25-.7-2.85-1.7-2.5-1.6-4.2-1.6-2.85 0-5.85 2.75-2.6 2.35-5.05 6.55-2.15 3.7-3.7 7.95-.05.05-.05.15.1.6.3 1.05.5.95 1.45 1.2.35.1.75.1 1.25 0 2.4-.15 2.55-1.75 4.15-3.2-.35.7-1 1.7-.45.75-.7 1.2l.7-.2q.9-.2 1.8-.65.75-.35 1.5-.85.25-.15.5-.35 1-.65 2.75-1.8 2.25-1.35 5.2-2.4.7 1.6 2.6 3.65 2.25 2.35 5.2 4.3.9.6 1.8 1.1-.6-.8-1.25-1.65-1.65-2.4-1.95-2.8l2.1 2.1q.75.6 3.3 1.8-.45-1.65-.95-3.05-.25-.55-.7-1.5.35.5 1.05 1.2 1.3 1.25 2.1 1.75h.3q-.35-.95-.35-1.05-.2-.55-.2-.95v-.8q.4 1.4 3.3 3.6 2.45 1.85 5.65 3.6-.3-.15-3.85-1-2.55-.6-4.35-1.6 1.05.75 4.2 3.65 3.2.75 6.7.75 4.9 0 7.6-.95.6-.15 1.1-.4-.65-.2-1.3-.45-2.4-1-4.45-2.85M487 17.85l.05.1q-.8.2-1.45.65-.7.5-.85.5l1.6 1.6q.5.55 2.7 3-1 0-2.7-1-1.7-1.1-2.1-1.3 0 1.05.35 2.45.25.85.9 3.2l-.1.15q-.6-.55-1.6-1.7-1.65-2-1.9-2.25-2.35-2.7-3.55-2.6.35-.45 1.25-.65.8-.25 1.55-.1-.4-.45-.7-.85-.3-.45-.3-.7h.5q1.1-.1 3.3-.25 2-.15 3.05-.25m-19.8-1.55q.75 0 2.75 1.05 1.1.6 3.45 2.05.1.05.2.15.3.15.45.35.4.4 1.2 1.5-2.35-.9-3.35-1.2-1.65-.6-3.05-.6-2.05 0-3.4 1.1-1.05 1.05-1.9 1.55.45-.8 1.25-2.05 1.05-1.65 1.75-2.35h-.25q-.4.3-.85.4l-.65.25q-.9.45-2.65 2.4.8-1.65 2.15-3 1.65-1.6 2.9-1.6z"/><path fill="#FFEAD5" d="M448.95 59.8q.35 1.05 1 1.95.85 1.25 2.1 1.95-.45-2.55-.9-3.85v-2.6q-.35.45-.95 1.15-.65.85-1.25 1.4m.2-6.2q-.35.15-.7.2v.4q-.05.6-.05 1.35h.15q.4-.5 1.4-1.65.35-.35.65-.7-.55.15-1.45.4m41.35.1v.7q-.05.8-.55 1.45-.15.25-.35.45-.9.9-2.1.9-1.25 0-2.1-.9-.45-.45-.7-1.05-.2-.5-.2-1.1v-.4l.1-.5q-2.1.15-3.15.65-1.55.85-3.35 3.95.55-1.9 1-3.15.25-.8.75-2 1.45-4.1 3.35-6.2.6-.6 1.2-1.05-2.15-1.7-5.85-4.95-4.8-4.25-6.75-6.4-.05-.05-.1-.15l-.15-.1q-2.1 2.35-4.9 5.65-1.85 2.25-3.4 4h.4q2.65-.4 6.25 4.8 3.65 5.2 3.8 7.7.2 2.45.2 5.5-.45-2.5-2.9-4.8-1.4-1.35-2.9-2.15-.2.65-.8 1.2 0 .1-.1.15-.85.75-2 .75-1.25 0-2.15-.9-.25-.25-.45-.55-.45-.7-.45-1.55v-.1q-2.45.35-4.1 1.65-1.95 1.6-2.95 4.95.7 1.95 1.8 4.65 3.45 8.35 4.65 9.9 1.2 1.55 6.25 6.25.15.15.35.3 4.8 4.3 6.9 4.25 2.2-.05 9.55-5.75.85-.65 1.55-1.25 5.9-4.8 7.05-7.55 1.05-2.6 2.45-6.1-.45-2.55-.45-5.65 0-.25.05-.9-.4-.9-.9-1.45-1.75-1.8-2.65-2.45-.95-.65-1.2-.7m-4.3 5.3q.75.05.75.65 0 .75-.75.75-.45 0-.65-.35l-.1-.4q0-.65.75-.65m2.85 1.65q.1-.15.25-.25.25.1.35.35-.1.25-.35.3-.2-.05-.35-.2 0-.1.1-.2m2.95.2q-.15-.1-.25-.15 0-.05-.05-.15-.05-.15-.05-.4 0-.5.7-.55.65-.05.65.6 0 .25-.15.45-.2.25-.5.25-.25 0-.35-.05m.5 5.15q0-.05-.05-.25-.1-.15-.1-.25.2-.2.65-.25.4-.1.7-.1h.1q.05 0 .05.3 0 .45-.9.65l-.45-.1m-16-11.15q-.45 0-.6-.35-.05-.1-.05-.45 0-.7.7-.7.65 0 .65.7 0 .8-.7.8m3.8 6.55q-.05-.15-.05-.4 0-.7.85-.6.85.05.85.65 0 .7-.85.7-.6 0-.8-.35m-13.5-3q0-.7.75-.8.75-.15.75.65 0 .25-.1.5-.25.45-.75.45-.25 0-.35-.05-.1-.1-.2-.15l-.05-.15q-.05-.2-.05-.45m-.4 2.6q.05 0 .05.25 0 .05-.2.35-.3.25-.45.3-.15-.05-.25-.1-.1 0-.1-.3 0-.4.4-.5h.55m8.45-.8q-.15-.05-.25-.05-.05-.05-.05-.3 0-.35.2-.45.25-.05.5.1l.05-.05q.05 0 .05.25 0 .15-.5.5m-2 6.5q.25.4.85 1.15 1.1 1.25 1.3 1.25.3 0 1.8-1.05 1.3-.8 1.8-1.3 0 .1.1.3.15.15.15.55-.5 1-1.3 2-1.45 2.05-2.55 2.05-.8 0-1.6-2.4-.5-1.45-.55-2.55-.15-.25-.15-.3 0-.35.15-.7l.05-.05q-.1.45-.05 1.05m12.3-3.4q.1-.05.45-.05.3.1.35.35-.05.15-.1.2-.1.15-.4.15l-.35-.15q-.05.05-.1.05t-.05-.25q0-.3.2-.3m-8.3-1.05l-.15.05q-.05.1-.2.1l-.2-.1q-.1-.1-.1-.35 0-.45.3-.55.35.25.35.85M466.3 72.7q8.85 3 18.7 0-9.85 3-18.7 0m-6.6-13q-.05.3-.3.3h-.25q-.1 0-.1-.3 0-.25.15-.3.15-.05.2-.05.3.15.3.35m3.1 1.85q-.3 0-.4-.05-.1-.05-.25-.15-.05-.2-.05-.6 0-.9.7-.9.65 0 .65.9 0 .25-.1.5-.2.3-.55.3m-1.9 3.05q-.2-.1-.3-.25.25-.4.5-.4.25.05.3.3 0 .1-.2.2-.2.15-.3.15m-1.85-2.25q0 .7-.7.7-.55 0-.75-.3-.05-.15-.05-.4 0-.7.8-.6.7.05.7.6M476.7 78.3q.85.3.85.65 0 .35-.85.65-.85.25-2.1.25-1.2 0-2.05-.25-.85-.3-.85-.65 0-.35.85-.65.85-.25 2.05-.25 1.25 0 2.1.25m26-20.8q-.55-.3-1.35-1.4-.5 2-1.05 4.1-.35 1.85-.45 4.3 1.45-.7 2.5-2.15 1.25-1.8 1.55-4.35-.75-.15-1.2-.5m.95-5.6q-.5-.15-1.05-.4-.35 1.05-.45 1.6.1.1.2.15.7.65 1.55 1.3 0-.25-.05-.5-.1-1.15-.2-2.15z"/><path fill="#FEC792" d="M448.5 57.7q.1 1.15.45 2.1.6-.55 1.25-1.4.6-.7.95-1.15V55.9q-.25.25-.5.45-1.15.8-2.15 1.35m4.25-7.25q-.9.3-2 .7-1.15.35-2.15.65v.2q-.1.6-.15 1.8.35-.05.7-.2.9-.25 1.45-.4.8-.95 1.85-2.3.15-.2.3-.45m10.5-6.95q-3.1 3.7-4.7 5.45-1.35 1.4-2.55 2.65-.5 1.55-.9 4.55-.2 1.55-.35 3.2.15.4.35.8 1-3.35 2.95-4.95 1.65-1.3 4.1-1.65.05-1.2.9-2.05.9-.9 2.15-.9t2.1.9q.9.9.9 2.15 0 .45-.1.9 1.5.8 2.9 2.15 2.45 2.3 2.9 4.8 0-3.05-.2-5.5-.15-2.5-3.8-7.7-3.6-5.2-6.25-4.8h-.4m14.3 35.45q0-.35-.85-.65-.85-.25-2.1-.25-1.2 0-2.05.25-.85.3-.85.65 0 .35.85.65.85.25 2.05.25 1.25 0 2.1-.25.85-.3.85-.65m-3.85-11.1q-.6-.75-.85-1.15.05 1.1.55 2.55.8 2.4 1.6 2.4 1.1 0 2.55-2.05.8-1 1.3-2 0-.4-.15-.55-.1-.2-.1-.3-.5.5-1.8 1.3-1.5 1.05-1.8 1.05-.2 0-1.3-1.25m22.1-15.6q-.3-.1-.35-.15-3.5-1.2-9.95-5.8-.5-.35-1.1-.85-.6.45-1.2 1.05-1.9 2.1-3.35 6.2-.5 1.2-.75 2-.45 1.25-1 3.15 1.8-3.1 3.35-3.95 1.05-.5 3.15-.65.25-.7.8-1.2.85-.9 2.1-.9 1.2 0 2.1.9.75.7.9 1.65.25.05 1.2.7.9.65 2.65 2.45.5.55.9 1.45.05-.7.1-1.85.1-.9.15-1.75.1-1.3.2-2.3l.1-.15m7.85 2.5l-1.8-.7q-.25 1-.5 2.05.8 1.1 1.35 1.4.45.35 1.2.5v-1.2-1.95l-.25-.1z"/><path fill="#9F0" d="M467.2 55.9q0-.65-.65-1.4-.65-.75-1.35-.75-1.05 0-1.7.35-.75.45-.9 1.1.2.3.45.55.9.9 2.15.9 1.15 0 2-.75m22-1.5q-.6-.55-2-.55-1.2 0-1.8.35-.55.35-.7 1.05.25.6.7 1.05.85.9 2.1.9 1.2 0 2.1-.9.2-.2.35-.45-.1-1-.75-1.45z"/><path fill="#9C3" d="M468.2 53.65q0-1.25-.9-2.15-.85-.9-2.1-.9t-2.15.9q-.85.85-.9 2.05v.1q0 .85.45 1.55.15-.65.9-1.1.65-.35 1.7-.35.7 0 1.35.75.65.75.65 1.4.1-.05.1-.15.6-.55.8-1.2.1-.45.1-.9m-2.05-2.45q1.05.05 1.05 1 0 .2-.25.55-.35.45-.8.45-.6 0-.85-.5l-.15-.5q0-1.1 1-1m24.35 2.95v-.45q-.15-.95-.9-1.65-.9-.9-2.1-.9-1.25 0-2.1.9-.55.5-.8 1.2l-.1.5v.4q0 .6.2 1.1.15-.7.7-1.05.6-.35 1.8-.35 1.4 0 2 .55.65.45.75 1.45.5-.65.55-1.45v-.25m-3.45-1.75q0-1 1-.95 1.05.1 1.05 1 0 .25-.25.6-.3.4-.8.4-.6 0-.85-.5-.15-.5-.15-.55z"/><path fill="#FFF" d="M467.2 52.2q0-.95-1.05-1-1-.1-1 1l.15.5q.25.5.85.5.45 0 .8-.45.25-.35.25-.55m-9.65-18.6q-.2.15-.45.35-1.35.95-2.5 1.65-1.65 1.1-1.85 1.15-.15.1-.25.15-1.1.5-1.85.65h3.3q1.75-.05 3.1-.25v.25q-1.55 1.6-4.35 3.55v.1q2.95-1.5 4.05-2 2.9-1.35 4.15-1.65-.7 1.8-1.35 2.95-.7 1.35-1.65 2.3l.05.05q1.25-1.2 4.05-3.95 3.55-3.65 4.35-4.95-.75.65-1.4 1.05-1.5.8-3.25.75.55-.85 1.9-3.1.35-.55.6-.95l-.2-.1q-.75.5-1.5.85-.65.55-1.6 1.5h-1.25v-.2q.1-.15.35-.45.25-.45.7-1.2.65-1 1-1.7-1.6 1.45-4.15 3.2m30.5 17.85q-1-.05-1 .95 0 .05.15.55.25.5.85.5.5 0 .8-.4.25-.35.25-.6 0-.9-1.05-1m2.35-8.9q-1.85-3.4-1.85-3.45l.05-.2q.9.3 1.85.5-3.15-2.9-4.2-3.65 1.8 1 4.35 1.6 3.55.85 3.85 1-3.2-1.75-5.65-3.6-2.9-2.2-3.3-3.6v.8q0 .4.2.95 0 .1.35 1.05h-.3q-.8-.5-2.1-1.75-.7-.7-1.05-1.2.45.95.7 1.5.5 1.4.95 3.05-2.55-1.2-3.3-1.8l-2.1-2.1q.3.4 1.95 2.8.65.85 1.25 1.65.8 1.1 1.55 1.95 4.05 4.8 9.25 7.8l.05-.05q-1.35-1.15-2.5-3.25m-20.45-25.2q-2-1.05-2.75-1.05-1.25 0-2.9 1.6-1.35 1.35-2.15 3 1.75-1.95 2.65-2.4l.65-.25q.45-.1.85-.4h.25q-.7.7-1.75 2.35-.8 1.25-1.25 2.05.85-.5 1.9-1.55 1.35-1.1 3.4-1.1 1.4 0 3.05.6 1 .3 3.35 1.2-.8-1.1-1.2-1.5-.15-.2-.45-.35-.1-.1-.2-.15-2.35-1.45-3.45-2.05m17.1.6l-.05-.1q-1.05.1-3.05.25-2.2.15-3.3.25h-.5q0 .25.3.7.3.4.7.85-.75-.15-1.55.1-.9.2-1.25.65 1.2-.1 3.55 2.6.25.25 1.9 2.25 1 1.15 1.6 1.7l.1-.15q-.65-2.35-.9-3.2-.35-1.4-.35-2.45.4.2 2.1 1.3 1.7 1 2.7 1-2.2-2.45-2.7-3l-1.6-1.6q.15 0 .85-.5.65-.45 1.45-.65z"/><path fill="#CA5202" d="M434.95 51.75v-.1h-.45q.25.05.45.1M460 33.3q-.25.3-.35.45v.2h1.25q.95-.95 1.6-1.5-.9.45-1.8.65l-.7.2m28.55 5.8q0 .05 1.85 3.45 1.15 2.1 2.5 3.25l-.05.05q-5.2-3-9.25-7.8-.75-.85-1.55-1.95-.9-.5-1.8-1.1-2.95-1.95-5.2-4.3-1.9-2.05-2.6-3.65-2.95 1.05-5.2 2.4-1.75 1.15-2.75 1.8-.25.2-.5.35l.2.1q-.25.4-.6.95-1.35 2.25-1.9 3.1 1.75.05 3.25-.75.65-.4 1.4-1.05-.8 1.3-4.35 4.95-2.8 2.75-4.05 3.95l-.05-.05q.95-.95 1.65-2.3.65-1.15 1.35-2.95-1.25.3-4.15 1.65-1.1.5-4.05 2v-.1q2.8-1.95 4.35-3.55v-.25q-1.35.2-3.1.25h-3.3q.75-.15 1.85-.65.1-.05.25-.15.2-.05 1.85-1.15 1.15-.7 2.5-1.65.25-.2.45-.35-1.15.15-2.4.15-.4 0-.75-.1-1.45.85-2.95 1.65-.35.15-.75.35-.05.1-.2.1-.85 1.25-2.2 2.45-1.8 1.65-3.85 2.65-2.15 1.1-3.8 1.1-2.15 0-4.25-1.05v-.2h-.45q-.35 0-.65-.05.8.85 2.5 1.7 1.75.8 5.9 1.15h6.2q-.3.4-1.4 1.15-3.3 3.5-6.4 5.1-3.3 1.8-7.15 2 1.15.1 2.2.15h2.5q9.1-3.45 15.45-8.9-3.9 4.2-6 5.65-3.45 2.4-9.3 3.5 1.4 1.7 8.3-.2.2-.05.5-.15 1-.3 2.15-.65 1.1-.4 2-.7-.15.25-.3.45-1.05 1.35-1.85 2.3-.3.35-.65.7-1 1.15-1.4 1.65-.05.1-.2.2-.45.5-1.75 1.6h-.05Q445.3 59 443.5 59.1q1.5.05 3.25-.6.8-.3 1.75-.8 1-.55 2.15-1.35.25-.2.5-.45v3.95q.45 1.3.9 3.85.05.35.1.75.15 1.05.3 1.9-.15 1-.6 2.35-.9 2.85-2.65 6-1.8 3.25-3.7 5.5-2.05 2.4-3.55 2.7h1q.95-.4 4-2.3 3.2-2 3.7-2.55h.25q.5 2.3-2.85 6.95-3.35 4.7-6.85 5.35h2.8q3.7-.1 9.7-3.5 6-3.45 6.15-4.45l.3-.25q-.1.1-.15.3v.05q-.65 1.05-2.3 3.15-1.65 2.15-3.95 3.45 4.95.25 9.8-3.4 1.9-1.35 3.4-2.95.75-.9 1.2-1.5-.2-.15-.35-.3-5.05-4.7-6.25-6.25-1.2-1.55-4.65-9.9-1.1-2.7-1.8-4.65-.2-.4-.35-.8-.25 2.9-.25 5.75 0 2.45 1.05 7.2.95 4.15 2 7.3-1.15-.95-2-2.45-.65-2.25-1.3-4.85-1-4.75-1-7.2 0-2.85.2-5.75.15-1.65.35-3.2.25-1.7.5-2.9.8-.8 1.7-1.65 1.2-1.25 2.55-2.65 1.6-1.75 4.7-5.45 1.55-1.75 3.4-4 2.8-3.3 4.9-5.65l.15.1q.05.1.1.15 1.95 2.15 6.75 6.4 3.7 3.25 5.85 4.95.6.5 1.1.85 6.45 4.6 9.95 5.8.05.05.35.15l-.1.15q-.1 1-.2 2.3.4-.35 1-.5.7 2.15.8 4.95 0 1.2-.2 5.15-.2 3.3 0 5.25l-.15.05.1.3q-.4-1-.65-1.8-.5-1.5-.75-3.25-1.4 3.5-2.45 6.1-1.15 2.75-7.05 7.55 3.95 2.6 5.8 4.6 1.7 1.9 2.45 3.95h.1l-.55-3.85q2.2.85 5.95 2.65 2.7 1.15 5.05 1.35.2-.3 2.15-.3 1.1.05 2.7.15l.05-.25q-3.8-.6-7.2-2.9-3.45-2.45-5.4-6.1v-1.5h.25q.35.2 1.7 1.35 1.5 1.35 2.5 2.1 3.35 2.5 5.3 2.2-4.1-1.1-6.95-5.65-.05 0-.05-.05-.05-.05-.05-.1-.5-.75-.9-1.55-1.1-2.05-1.85-4.2-.05-.1-.05-.15 0-.145-.05-.2.052.053.1.15 1.05 2.45 2.9 5.8h.25q-.2-2.6-.35-6.4-.2-3.35-.2-4 0-.55.05-1.1.1-2.45.45-4.3.55-2.1 1.05-4.1.25-1.05.5-2.05l1.8.7.25-.05v-.15q-.85-.65-1.55-1.3-.1-.05-.2-.15v.1q-.65-.35-1.35-.75-6.35-3.5-6.35-5.9 0-.4.1-.5.1-.05.15-.05h1.3q.1.2.75 1.05 1.05 1.9 3.15 4.05.85.8 2.25 2 .1-.55.45-1.6.55.25 1.05.4 3.6 1.4 6.95 1.05h3.55l.05-.15q.1-.1.25-.1-1.5-.6-4.4-2.2-2.7-.55-5.05-1.25-8.5-2.45-8.5-5.9 0-.4.25-.65.3-.25.9-.25.4 0 1.4.5.55.25 1 .4-.65.1-1.25.15 1.25.95 4.95 3.25.45-2.45.45-3.05 0-.55-.3-1.3.5-.2 1.05-.4 3.75-1.3 6.45-3-2.7.7-5.55-.2-.5.25-1.1.4-2.7.95-7.6.95-3.5 0-6.7-.75-.95-.2-1.85-.5l-.05.2z"/><path fill="#C60" d="M452.95 32.45q-.2-.45-.3-1.05-.75 2.05-1.2 3.9 1.5-.8 2.95-1.65-.95-.25-1.45-1.2z"/><path fill="#FCC" d="M458.35 63.05q.7 0 .7-.7 0-.55-.7-.6-.8-.1-.8.6 0 .25.05.4.2.3.75.3m4.05-1.55q.1.05.4.05.35 0 .55-.3.1-.25.1-.5 0-.9-.65-.9-.7 0-.7.9 0 .4.05.6.15.1.25.15m5.15-3.9q-.75.1-.75.8 0 .25.05.45l.05.15q.1.05.2.15.1.05.35.05.5 0 .75-.45.1-.25.1-.5 0-.8-.75-.65m12.7 3.4q0 .25.05.4.2.35.8.35.85 0 .85-.7 0-.6-.85-.65-.85-.1-.85.6m-4.35-6.5q.15.35.6.35.7 0 .7-.8 0-.7-.65-.7-.7 0-.7.7 0 .35.05.45m15.85 6.2q.1.05.25.15.1.05.35.05.3 0 .5-.25.15-.2.15-.45 0-.65-.65-.6-.7.05-.7.55 0 .25.05.4.05.1.05.15m-4.8-1.05q0-.6-.75-.65-.75 0-.75.65l.1.4q.2.35.65.35.75 0 .75-.75z"/><path fill="#FED8B4" d="M460.6 64.35q.1.15.3.25.1 0 .3-.15.2-.1.2-.2-.05-.25-.3-.3-.25 0-.5.4M459.4 60q.25 0 .3-.3 0-.2-.3-.35-.05 0-.2.05-.15.05-.15.3 0 .3.1.3h.25m17.3 2.3l.15-.05q0-.6-.35-.85-.3.1-.3.55 0 .25.1.35l.2.1q.15 0 .2-.1m8.9.95q-.35 0-.45.05-.2 0-.2.3 0 .25.05.25t.1-.05l.35.15q.3 0 .4-.15.05-.05.1-.2-.05-.25-.35-.35m-11-3.1q.1 0 .25.05.5-.35.5-.5 0-.25-.05-.25l-.05.05q-.25-.15-.5-.1-.2.1-.2.45 0 .25.05.3m-8.15 1.1q0-.25-.05-.25h-.55q-.4.1-.4.5 0 .3.1.3.1.05.25.1.15-.05.45-.3.2-.3.2-.35m26 4.5q.05.2.05.25l.45.1q.9-.2.9-.65 0-.3-.05-.3h-.1q-.3 0-.7.1-.45.05-.65.25 0 .1.1.25m-3.15-5.35q-.15.1-.25.25-.1.1-.1.2.15.15.35.2.25-.05.35-.3-.1-.25-.35-.35z"/></g><path id="d" stroke="#F66" stroke-linejoin="round" stroke-linecap="round" fill="none" d="M466.3 72.7q8.85 3 18.7 0"/></defs><use xlink:href="#a" transform="translate(-414.2 -14)"/><use xlink:href="#b" transform="translate(-414.2 -14)"/><g transform="translate(-414.2 -14)"><use xlink:href="#c"/><use xlink:href="#d"/></g></svg>