
<svg xmlns="http://www.w3.org/2000/svg" version="1.1" xmlns:xlink="http://www.w3.org/1999/xlink" preserveAspectRatio="none" x="0px" y="0px" width="112px" height="373px" viewBox="0 0 112 373">
<defs>
<g id="Layer0_0_FILL">
<path fill="#990000" stroke="none" d="
M 471.35 318.4
Q 471.2072265625 318.77890625 471.05 319.15 468.475390625 325.9361328125 466.2 330.25 463.15 336.15 457.9 339 455.1 340.55 452 341
L 452 341.05 452.05 341.4
Q 452.25 341.4 452.5 341.5 453.95 341.75 455.4 342.15 459.25 343.2 462.75 345 463.7 345.5 464.7 346.05 465.35 346.45 466.05 346.9 467.2 347.65 468.35 348.5 469.3 349.2 470.25 350 470.95 350.6 471.65 351.3 471.85 351.45 472.05 351.65 472.2 351.8 472.3 351.9
L 472.6 351.6 474.45 305.9
Q 472.5 307.5 472.15 311 471.85 313.65 471.35 318.4
M 506.85 200.3
L 506.85 200.15
Q 506.5 200.25 506.2 200.35
L 506.85 200.3
M 484 327.2
L 485.8 349.6
Q 485.9 349.5 486 349.45 486.25 349.25 486.5 349.1 490.7 346.05 494.85 344.4 503.2 341.15 511.45 343.6 514.05 344.4 516.7 345.8 517.35 346.15 518 346.55
L 516.75 333.55
Q 515.75 335.3 515.4 335.7 512 340.05 506.95 340.05 500 340.05 492.95 334.75 487.7 330.15 484 327.2
M 481.05 241
Q 480.65 240.75 477.55 240.75 477.4 240.75 477.25 240.75 477.15 240.75 477.05 240.75
L 477.05 240.9 479.4 269.95
Q 480 266.25 480.6 260.85 481.8 250.15 481.8 246.5 481.8 245.95 481.8 245.5 481.8 244.65 481.8 244 481.8 241.45 481.05 241
M 472.85 244.45
Q 472.55 245 472.55 245.75 472.55 245.8 474.35 253.45 475.55 258.8 476.15 262.05 476.15 262.2 476.2 262.35
L 477.05 240.9 476.95 240.75
Q 474.7 240.8 474.05 241 472.55 241.45 472.55 243.25
L 472.85 244.45
M 451.9 208.6
Q 451.95 208.65 452.05 208.7 452.3 208.8 452.6 208.95 456.7 210.8 464 212.3 472.6 214 476.05 214 482.75 214 495.35 211.3 500.4 210.2 503.95 209.5 504.45 208 505.05 206.4 505.9 204.15 506.2 200.35 479.65 207.85 452.8 202.4
L 451.95 208.25 451.9 208.6 Z"/>

<path fill="#CC0000" stroke="none" d="
M 452.05 208.7
Q 451.95 208.65 451.9 208.6
L 451.6 210.7 450.25 220.45 444 263.9
Q 445.20703125 296.22890625 442.2 319.15 440.63046875 331.359765625 437.85 340.9 441.05 340.6 444.05 340.65 444.2 340.6 444.4 340.65 447.6 340.7 450.6 341.15 451.2 341.2 451.8 341.35 451.9 341.35 452.05 341.4
L 452 341.05 452 341
Q 455.1 340.55 457.9 339 463.15 336.15 466.2 330.25 468.475390625 325.9361328125 471.05 319.15 471.2072265625 318.77890625 471.35 318.4 471.85 313.65 472.15 311 472.5 307.5 474.45 305.9
L 476.2 262.35
Q 476.15 262.2 476.15 262.05 475.55 258.8 474.35 253.45 472.55 245.8 472.55 245.75 472.55 245 472.85 244.45
L 472.55 243.25
Q 472.55 241.45 474.05 241 474.7 240.8 476.95 240.75
L 477.05 240.9 477.05 240.75
Q 477.15 240.75 477.25 240.75 477.4 240.75 477.55 240.75 480.65 240.75 481.05 241 481.8 241.45 481.8 244 481.8 244.65 481.8 245.5 481.8 245.95 481.8 246.5 481.8 250.15 480.6 260.85 480 266.25 479.4 269.95
L 484 327.2
Q 487.7 330.15 492.95 334.75 500 340.05 506.95 340.05 512 340.05 515.4 335.7 515.75 335.3 516.75 333.55
L 510.35 267.75 508.85 239
Q 508.15 239 507.05 238.75 506 238.45 505.4 238.45 505.4 233.85 506.3 230.05 507 226.85 507.15 224.35 507.15 223.85 507.15 223.4
L 508.05 223.35 507.6 215.2 505.95 215.25
Q 505.95 215.5 506 215.9 506 216.9 505.95 217.9 505.7 222.25 504.15 225.6 502.25 229.7 501.3 221.6 501.1 220.05 501.7 217.3 501.85 216.5 502.1 215.55 502.8 212.75 503.95 209.5 500.4 210.2 495.35 211.3 482.75 214 476.05 214 472.6 214 464 212.3 456.7 210.8 452.6 208.95 452.3 208.8 452.05 208.7 Z"/>

<path fill="#FEFE4E" stroke="none" d="
M 500.65 380.1
Q 495.7 377.65 494.3 375.8 492.9 373.95 489.25 369.7 485.5 365.3 484.2 364.1 485.25 373.15 494.1 380 502.7 386.75 510.85 386.75
L 518.05 385.75
Q 520.35 385.45 522.2 383.5 524 380.2 524.85 377.2 524.05 378.6 519.75 380.6 515.45 382.6 510.5 382.55 505.55 382.5 500.65 380.1
M 470.25 350
Q 469.3 349.2 468.35 348.5 467 349.65 465.05 350.85 464.7 351.05 464.4 351.2 467.85 352.8 471.65 351.95
L 471.65 351.3
Q 470.95 350.6 470.25 350
M 414.35 365.4
Q 414.4 366.3 414.6 367.9 414.9 370.45 422.95 371.7 431 372.9 439.05 370.7 447.05 368.5 452 366.85 456.9 365.15 464.95 361.75 470.7 358.75 471.65 352.75
L 471.65 351.95
Q 465.65 356.3 456.55 360.7 443.8 366.85 436.05 366.85 427.9 368.8 425.05 368 422.15 367.15 417.55 366.65 415.1 366.4 414.35 365.4 Z"/>

<path fill="#99CC00" stroke="none" d="
M 490.3 356
Q 489.25 354.1 488.05 352.75 487.4 353.35 487.1 353.75
L 486.85 354.25
Q 486.75 354.7 486.6 355.4 486.6 358.7 491.45 364.85 494.6 368.85 496.35 370.4 496.35 369.5 496.4 368.4 496.5 366.35 495.25 364.95 493.5 362.95 493.3 362.5 492.65 360.95 492.1 359.75 490.95 357.1 490.3 356
M 460.55 348.8
Q 460.5 348.9 460.45 349 460.6 349.1 460.75 349.2
L 460.55 348.8
M 443.95 358.1
Q 439.8 360.5 435.3 363.35 436.9 362.9 438.75 362.35 443.6 360.9 446.65 360.2
L 446.7 360.2
Q 452.65 357.1 455 355.4 458.05 353.15 460.45 349 459.05 348.25 458.05 347.75
L 458.15 347.5
Q 458.05 347.6 457.95 347.7 453.75 351.35 451.05 353.5 448.55 355.5 443.95 358.1 Z"/>

<path fill="#CCCCCC" stroke="none" d="
M 525.4 370.25
Q 524.85 366.35 522.9 360.65 522 363.95 517.95 366.05 514.35 367.9 510.45 367.9 506.9 367.9 505.4 367.5 504.9 367.35 500.3 365.55 497.35 364.45 495.75 363.45 493.15 361.8 492.1 359.75 492.65 360.95 493.3 362.5 493.5 362.95 495.25 364.95 496.5 366.35 496.4 368.4 496.35 369.5 496.35 370.4 496.35 371.65 496.45 372.5 496.6 373.5 496.9 374.4 501.85 378.5 505.8 378.5 505.9 378.5 509.7 376.05 513.5 373.55 518.05 373.55 519.05 373.55 520.85 374.6 522.65 375.65 522.7 375.65 523.4 375.65 524.4 374.4 524.85 373.85 525.55 372.95 525.55 372.75 525.55 372.55 525.55 371.35 525.4 370.25
M 516.7 345.8
Q 514.05 344.4 511.45 343.6 511.85 345 512.4 347.15 515 347.75 518.2 348.85 517.35 347 516.7 345.8
M 485.65 351
L 485.8 351.15
Q 486.05 351.15 486.05 350.85 487.1 351.65 488.05 352.7 490.8 351.25 495.25 348.75 496 348.35 496.8 348 495.75 345.7 494.85 344.4 490.7 346.05 486.5 349.1 486.25 349.25 486 349.45 485.85 350.05 485.65 351
M 451.8 341.35
Q 450.75 343.1 448.35 345.25 453.55 346.1 455.9 346.75 456.35 346.9 457.45 347.4 448.7 352.15 443.9 354.7 435.05 359.4 427.65 359.4 425.05 359.4 423.1 358.75 420.4 357.85 419.95 355.3 417.25 357.5 415.7 359.65 414.45 361.4 414.25 362.95 415.3 360.65 417.85 360.65 418.7 360.65 421.2 362.75 423.75 364.8 427.05 364.8 429.7 364.8 435.3 363.35 439.8 360.5 443.95 358.1 448.55 355.5 451.05 353.5 453.75 351.35 457.95 347.7 458.05 347.6 458.15 347.5 460.3 345.95 462.75 345 459.25 343.2 455.4 342.15 453.95 341.75 452.5 341.5 452.25 341.4 452.05 341.4 451.9 341.35 451.8 341.35 Z"/>

<path fill="#666666" stroke="none" d="
M 514.2 356.15
Q 514.2 354.75 513.05 349.85 512.7 348.35 512.4 347.15 508.65 346.25 505.95 346.25 500.75 346.25 496.8 348 498.2 351 499.95 355.75 503.5 362.5 510.45 362.5 512.4 362.5 513.4 360.4 514.2 358.7 514.2 356.15
M 449.15 141
Q 449.65 140.85 450.15 140.75
L 450.5 126.9 451.95 115.6
Q 444.7 131.75 438.85 132.75 437.25 133 435.65 133 433.25 133 431.75 132.3
L 430.65 136.05
Q 434 138.35 437.25 139.65 437.8 139.85 438.35 140.05 443.85 142 449.15 141
M 505.75 168.9
Q 505.45 165 505.3 160.95 496.2 166.1 494.75 166.7 489.15 169 479.65 169 470.65 169 456.2 162.15 453.65 160.85 451.6 159.85 451.25 159.7 451 159.55 451.15 170.45 450.6 180.85 450.4 183.95 450.2 187 451.1 187.75 452.1 188.55 457.1 192 463.15 192 474.7 192 494.65 181 500.05 178.05 505.55 171.2 505.7 171 505.9 170.8 505.8 169.85 505.75 168.9
M 525.35 132.7
L 523.95 128.85
Q 518.8 132 513.15 132 508.6 132 504.65 122.55
L 505.6 138.15
Q 506.4 138.3 507.15 138.45 514.7 139.65 520.75 136.2 523.15 134.85 525.35 132.7 Z"/>

<path fill="#FFFFFF" stroke="none" d="
M 520.5 354.25
Q 519.2 351.05 518.2 348.85 515 347.75 512.4 347.15 512.7 348.35 513.05 349.85 514.2 354.75 514.2 356.15 514.2 358.7 513.4 360.4 512.4 362.5 510.45 362.5 503.5 362.5 499.95 355.75 498.2 351 496.8 348 496 348.35 495.25 348.75 490.8 351.25 488.05 352.7
L 488.05 352.75
Q 489.25 354.1 490.3 356 490.95 357.1 492.1 359.75 493.15 361.8 495.75 363.45 497.35 364.45 500.3 365.55 504.9 367.35 505.4 367.5 506.9 367.9 510.45 367.9 514.35 367.9 517.95 366.05 522 363.95 522.9 360.65 522.85 360.55 522.85 360.45 521.85 357.55 520.5 354.25
M 427.65 359.4
Q 435.05 359.4 443.9 354.7 448.7 352.15 457.45 347.4 456.35 346.9 455.9 346.75 453.55 346.1 448.35 345.25 445.65 347.6 441.3 350.45 431.9 356.55 426.25 356.55 424.9 356.55 424.05 355.95 423.1 355.3 422.15 353.6 422.15 353.55 422.1 353.55 421.4 354.1 420.55 354.8 420.25 355.05 419.95 355.3 420.4 357.85 423.1 358.75 425.05 359.4 427.65 359.4 Z"/>

<path fill="#4D4D4D" stroke="none" d="
M 511.45 343.6
Q 503.2 341.15 494.85 344.4 495.75 345.7 496.8 348 500.75 346.25 505.95 346.25 508.65 346.25 512.4 347.15 511.85 345 511.45 343.6
M 448.35 345.25
Q 450.75 343.1 451.8 341.35 451.2 341.2 450.6 341.15 447.6 340.7 444.4 340.65 444.2 340.6 444.05 340.65 441.05 340.6 437.85 340.9 435.8 343.25 432 346.05 427.45 349.3 425.45 350.85 424.15 351.9 422.1 353.55 422.15 353.55 422.15 353.6 423.1 355.3 424.05 355.95 424.9 356.55 426.25 356.55 431.9 356.55 441.3 350.45 445.65 347.6 448.35 345.25 Z"/>

<path fill="#FEC792" stroke="none" d="
M 514.8 233.55
Q 514.95 233.15 515.1 232.75 517.7 229.45 518.75 224.35
L 518.75 222.4
Q 517.45 223.6 515.3 224.05 514.6 224.2 507.15 224.35 507 226.85 506.3 230.05 505.4 233.85 505.4 238.45 506 238.45 507.05 238.75 508.15 239 508.85 239 511.75 239 513.25 236.65 513.95 235.55 514.8 233.55
M 502.35 217.7
Q 502 217.55 501.7 217.3 501.1 220.05 501.3 221.6 502.25 229.7 504.15 225.6 505.7 222.25 505.95 217.9
L 505.4 217.85
Q 504.1 218.55 502.35 217.7
M 447.6 233.05
Q 447.9 228.45 447.25 224.65 447.05 223.4 446.95 222.3 446.15 222.7 445.85 222.8 444.75 223.2 443.2 223.2 438.85 222.5 436.05 221.95 436.85 224.7 438.3 226.8 438.4 227.15 438.55 227.5 439.25 229.6 439.9 230.75 441.2 233.2 444.1 233.4 444.8 233.45 445.9 233.25 447 233.05 447.6 233.05
M 451.6 210.7
Q 451.3 211.05 450.95 211.35 449.75 212.3 448.4 212.05 448.25 216.7 449.65 220.35
L 450.25 220.45 451.6 210.7
M 450.5 146.05
Q 450.35 143.5 450.2 140.95
L 449.15 141
Q 443.85 142 438.35 140.05
L 437.95 146.2
Q 438.65 146.25 439.45 146.35 442.35 146.7 443.45 146.7 447.55 146.7 448.6 146.55 449.6 146.4 450.5 146.05
M 507.15 138.45
Q 507.15 140.5 507.15 142.4 507.75 142.6 508.15 142.75 510.05 143.3 512.6 143.3 516.85 143.3 517.75 143.15 519.35 142.9 520.75 142.1
L 520.75 136.2
Q 514.7 139.65 507.15 138.45 Z"/>

<path fill="#FFFF99" stroke="none" d="
M 484.05 361.55
Q 484.05 362.85 484.2 364.1 485.5 365.3 489.25 369.7 492.9 373.95 494.3 375.8 495.7 377.65 500.65 380.1 505.55 382.5 510.5 382.55 515.45 382.6 519.75 380.6 524.05 378.6 524.85 377.2 525.45 374.95 525.55 372.95 524.85 373.85 524.4 374.4 523.4 375.65 522.7 375.65 522.65 375.65 520.85 374.6 519.05 373.55 518.05 373.55 513.5 373.55 509.7 376.05 505.9 378.5 505.8 378.5 501.85 378.5 496.9 374.4 494.35 372.25 491.5 369.05 485.2 360.75 484.25 359.4 484.05 360.85 484.05 361.55
M 435.3 363.35
Q 429.7 364.8 427.05 364.8 423.75 364.8 421.2 362.75 418.7 360.65 417.85 360.65 415.3 360.65 414.25 362.95 414.2 363.1 414.25 363.25 414.2 363.6 414.25 364.5 414.25 364.8 414.35 365.4 415.1 366.4 417.55 366.65 422.15 367.15 425.05 368 427.9 368.8 436.05 366.85 443.8 366.85 456.55 360.7 465.65 356.3 471.65 351.95 467.85 352.8 464.4 351.2 461.55 352.75 459.8 353.75 459.5 353.9 456.1 356.95 453.7 359.1 450.55 359.4 449.25 359.55 446.7 360.2
L 446.65 360.2
Q 443.6 360.9 438.75 362.35 436.9 362.9 435.3 363.35 Z"/>

<path fill="#667E01" stroke="none" d="
M 485.8 351.15
L 485.5 351.6
Q 485.3 352.7 485.05 354.2 485 354.3 485 354.5 484.95 354.7 484.9 354.9 484.45 357.5 484.25 359.2 484.25 359.3 484.25 359.4 485.2 360.75 491.5 369.05 494.35 372.25 496.9 374.4 496.6 373.5 496.45 372.5 496.35 371.65 496.35 370.4 494.6 368.85 491.45 364.85 486.6 358.7 486.6 355.4 486.75 354.7 486.85 354.25
L 487.1 353.75
Q 487.4 353.35 488.05 352.75
L 488.05 352.7
Q 487.1 351.65 486.05 350.85 486.05 351.15 485.8 351.15
M 464.7 346.05
Q 463.7 345.5 462.75 345 460.3 345.95 458.15 347.5
L 458.05 347.75
Q 459.05 348.25 460.45 349 460.5 348.9 460.55 348.8
L 460.75 349.2
Q 460.6 349.1 460.45 349 458.05 353.15 455 355.4 452.65 357.1 446.7 360.2 449.25 359.55 450.55 359.4 453.7 359.1 456.1 356.95 459.5 353.9 459.8 353.75 461.55 352.75 464.4 351.2 464.7 351.05 465.05 350.85 467 349.65 468.35 348.5 467.2 347.65 466.05 346.9 465.35 346.45 464.7 346.05 Z"/>

<path fill="#FFEAD5" stroke="none" d="
M 450.5 146.05
Q 449.6 146.4 448.6 146.55 447.55 146.7 443.45 146.7 442.35 146.7 439.45 146.35 438.65 146.25 437.95 146.2
L 437.85 147.75
Q 437.4 154 438 166.65 438.6 179.3 438.8 184.45 438.95 189.5 438.75 192.4 438.65 195.25 438.25 199.75 437.95 204.2 435.95 206.95
L 435.2 218.15
Q 435.5 220.2 436.05 221.95 438.85 222.5 443.2 223.2 444.75 223.2 445.85 222.8 446.15 222.7 446.95 222.3 446.7 219.9 446.8 217.95 446.9 216.35 447.7 213.65 447.95 212.7 448.15 212 448.35 211.1 448.45 210.55 448.2 210.15 447.9 209.85
L 448.55 209.9
Q 448.55 210.15 448.45 210.55 448.4 211.3 448.4 212.05 449.75 212.3 450.95 211.35 451.3 211.05 451.6 210.7
L 451.9 208.6 451.95 208.25
Q 451.3 205.3 450.3 201.9 449.55 201.7 448.8 201.55 448.7 201.5 448.65 201.5 448.7 201.15 448.75 200.8 449.05 198.45 449.35 196.1 449.15 190.85 450.35 182.45 450.45 181.65 450.6 180.85 451.15 170.45 451 159.55 450.85 152.9 450.5 146.05
M 508.15 142.75
Q 507.75 142.6 507.15 142.4 506.95 160.8 506 166.8 505.85 167.8 505.75 168.9 505.8 169.85 505.9 170.8 505.9 171 505.9 171.2
L 505.55 171.2
Q 505.15 177.8 505.95 187.7 506.55 195.25 506.2 200.2
L 506.85 200.15 506.85 200.3 506.2 200.35
Q 505.9 204.15 505.05 206.4 504.45 208 503.95 209.5 502.8 212.75 502.1 215.55 501.85 216.5 501.7 217.3 502 217.55 502.35 217.7 504.1 218.55 505.4 217.85
L 505.95 217.9
Q 506 216.9 506 215.9 505.95 215.5 505.95 215.25
L 507.6 215.2 508.05 223.35 507.15 223.4
Q 507.15 223.85 507.15 224.35 514.6 224.2 515.3 224.05 517.45 223.6 518.75 222.4
L 518.75 213.15
Q 516.95 210.25 516.9 205.8 516.8 201.3 516.9 198.45 516.9 195.55 517.4 190.45 517.9 185.35 519.35 172.8 520.75 160.2 520.75 153.95
L 520.75 142.1
Q 519.35 142.9 517.75 143.15 516.85 143.3 512.6 143.3 510.05 143.3 508.15 142.75 Z"/>

<path fill="#333333" stroke="none" d="
M 505.55 171.2
Q 500.05 178.05 494.65 181 474.7 192 463.15 192 457.1 192 452.1 188.55 451.1 187.75 450.2 187 449.8 191.6 449.35 196.1 449.05 198.45 448.75 200.8 448.7 201.15 448.65 201.5 448.7 201.5 448.8 201.55 449.55 201.7 450.3 201.9 451.5 202.15 452.75 202.4
L 452.8 202.4
Q 479.65 207.85 506.2 200.35 506.5 200.25 506.85 200.15
L 506.2 200.2
Q 506.55 195.25 505.95 187.7 505.15 177.8 505.55 171.2
M 505.55 171.2
L 505.9 171.2
Q 505.9 171 505.9 170.8 505.7 171 505.55 171.2 Z"/>

<path fill="#999999" stroke="none" d="
M 486.4 88.45
L 486.4 92.3
Q 478.6 101.95 468.45 94.8
L 468.45 87.8
Q 451.5 93.15 440.7 102
L 431.75 132.3
Q 433.25 133 435.65 133 437.25 133 438.85 132.75 444.7 131.75 451.95 115.6
L 450.5 126.9 450.15 140.75
Q 450.15 140.85 450.2 140.95 450.35 143.5 450.5 146.05 450.85 152.9 451 159.55 451.25 159.7 451.6 159.85 453.65 160.85 456.2 162.15 470.65 169 479.65 169 489.15 169 494.75 166.7 496.2 166.1 505.3 160.95 505 151.65 505.45 141.7 505.5 139.9 505.6 138.15
L 504.65 122.55
Q 508.6 132 513.15 132 518.8 132 523.95 128.85
L 513.65 100.5
Q 500.75 91.1 486.4 88.45 Z"/>
</g>

<g id="Layer0_0_MEMBER_0_FILL">
<path fill="#FEC792" stroke="none" d="
M 486.4 84.1
L 486.4 77.8
Q 475.05 65.45 468.6 79.9 468.5 80.05 468.45 80.2
L 468.45 85.4
Q 468.85 85.7 469.35 86.05 473.25 88.55 475.5 88.55 476.65 88.55 481.55 86.4 484.15 85.25 486.4 84.1 Z"/>

<path fill="#FFEAD5" stroke="none" d="
M 486.4 92.3
L 486.4 84.1
Q 484.15 85.25 481.55 86.4 476.65 88.55 475.5 88.55 473.25 88.55 469.35 86.05 468.85 85.7 468.45 85.4
L 468.45 94.8
Q 478.6 101.95 486.4 92.3 Z"/>
</g>

<g id="Layer0_0_MEMBER_0_MEMBER_0_FILL">
<path fill="#F46302" stroke="none" d="
M 453.8 56.15
Q 453.6 57.7 453.45 59.35 453.25 62.25 453.25 65.1 453.25 67.55 454.25 72.3 454.9 74.9 455.55 77.15 456.4 78.65 457.55 79.6 456.5 76.45 455.55 72.3 454.5 67.55 454.5 65.1 454.5 62.25 454.75 59.35 454.9 57.7 455.1 56.15 455.5 53.15 456 51.6 455.1 52.45 454.3 53.25 454.05 54.45 453.8 56.15
M 434.95 51.65
L 434.95 51.75
Q 438.8 51.55 442.1 49.75 445.2 48.15 448.5 44.65 446.85 45.9 443.2 47.95 437.35 51.4 434.95 51.65
M 449.1 48.65
Q 451.2 47.2 455.1 43 448.75 48.45 439.65 51.9 439.7 52.05 439.8 52.15 445.65 51.05 449.1 48.65
M 450.5 35.75
Q 450 36.05 449.5 36.25 440.95 40.55 436.4 40.7
L 436.4 40.9
Q 438.5 41.95 440.65 41.95 442.3 41.95 444.45 40.85 446.5 39.85 448.3 38.2 449.65 37 450.5 35.75
M 497.3 59.15
Q 497.2 56.35 496.5 54.2 495.9 54.35 495.5 54.7 495.45 55.55 495.35 56.45 495.3 57.6 495.25 58.3 495.2 58.95 495.2 59.2 495.2 62.3 495.65 64.85 495.9 66.6 496.4 68.1
L 496.55 68.05
Q 496.75 68.85 496.95 69.6
L 497.1 69.55
Q 496.9 67.6 497.1 64.3 497.3 60.35 497.3 59.15
M 497.65 42.45
Q 497.05 42.45 496.75 42.7 496.5 42.95 496.5 43.35 496.5 46.8 505 49.25 507.35 49.95 510.05 50.5 508.35 49.5 506.05 48.15 504.8 47.4 503.75 46.75 500.05 44.45 498.8 43.5 499.4 43.45 500.05 43.35 499.6 43.2 499.05 42.95 498.05 42.45 497.65 42.45
M 496 46
L 494.7 46
Q 494.65 46 494.55 46.05 494.45 46.15 494.45 46.55 494.45 48.95 500.8 52.45 501.5 52.85 502.15 53.2
L 502.15 53.1
Q 500.75 51.9 499.9 51.1 497.8 48.95 496.75 47.05 496.1 46.2 496 46
M 500.1 35.5
Q 499 32.3 498.1 29.2 497.15 26.15 493 20.55 488.7 15 485.5 15 482.3 15 478.3 16.1 475.5 16.85 474.35 17.3 473.1 16.6 471.5 15.6 469 14 467.3 14 464.45 14 461.45 16.75 458.85 19.1 456.4 23.3 454.25 27 452.7 31.25 452.65 31.3 452.65 31.4 452.75 32 452.95 32.45 453.45 33.4 454.4 33.65 454.75 33.75 455.15 33.75 456.4 33.75 457.55 33.6 460.1 31.85 461.7 30.4 461.35 31.1 460.7 32.1 460.25 32.85 460 33.3 460.35 33.2 460.7 33.1 461.6 32.9 462.5 32.45 463.25 32.1 464 31.6 464.25 31.45 464.5 31.25 465.5 30.6 467.25 29.45 469.5 28.1 472.45 27.05 473.15 28.65 475.05 30.7 477.3 33.05 480.25 35 481.15 35.6 482.05 36.1 481.45 35.3 480.8 34.45 479.15 32.05 478.85 31.65 480 32.8 480.95 33.75 481.7 34.35 484.25 35.55 483.8 33.9 483.3 32.5 483.05 31.95 482.6 31 482.95 31.5 483.65 32.2 484.95 33.45 485.75 33.95
L 486.05 33.95
Q 485.7 33 485.7 32.9 485.5 32.35 485.5 31.95
L 485.5 31.15
Q 485.9 32.55 488.8 34.75 491.25 36.6 494.45 38.35 494.15 38.2 490.6 37.35 488.05 36.75 486.25 35.75 487.3 36.5 490.45 39.4 493.65 40.15 497.15 40.15 502.05 40.15 504.75 39.2 505.35 39.05 505.85 38.8 505.2 38.6 504.55 38.35 502.15 37.35 500.1 35.5
M 487 17.85
L 487.05 17.95
Q 486.25 18.15 485.6 18.6 484.9 19.1 484.75 19.1 484.9 19.25 486.35 20.7 486.85 21.25 489.05 23.7 488.05 23.7 486.35 22.7 484.65 21.6 484.25 21.4 484.25 22.45 484.6 23.85 484.85 24.7 485.5 27.05
L 485.4 27.2
Q 484.8 26.65 483.8 25.5 482.15 23.5 481.9 23.25 479.55 20.55 478.35 20.65 478.7 20.2 479.6 20 480.4 19.75 481.15 19.9 480.75 19.45 480.45 19.05 480.15 18.6 480.15 18.35 480.4 18.35 480.65 18.35 481.75 18.25 483.95 18.1 485.95 17.95 487 17.85
M 467.2 16.3
Q 467.95 16.3 469.95 17.35 471.05 17.95 473.4 19.4 473.5 19.45 473.6 19.55 473.9 19.7 474.05 19.9 474.45 20.3 475.25 21.4 472.9 20.5 471.9 20.2 470.25 19.6 468.85 19.6 466.8 19.6 465.45 20.7 464.4 21.75 463.55 22.25 464 21.45 464.8 20.2 465.85 18.55 466.55 17.85
L 466.3 17.85
Q 465.9 18.15 465.45 18.25
L 464.8 18.5
Q 463.9 18.95 462.15 20.9 462.95 19.25 464.3 17.9 465.95 16.3 467.2 16.3 Z"/>

<path fill="#FFEAD5" stroke="none" d="
M 448.95 59.8
Q 449.3 60.85 449.95 61.75 450.8 63 452.05 63.7 451.6 61.15 451.15 59.85
L 451.15 57.25
Q 450.8 57.7 450.2 58.4 449.55 59.25 448.95 59.8
M 449.15 53.6
Q 448.8 53.75 448.45 53.8 448.45 54 448.45 54.2 448.4 54.8 448.4 55.55
L 448.55 55.55
Q 448.95 55.05 449.95 53.9 450.3 53.55 450.6 53.2 450.05 53.35 449.15 53.6
M 490.5 53.7
Q 490.5 53.9 490.5 54.15 490.5 54.25 490.5 54.4 490.45 55.2 489.95 55.85 489.8 56.1 489.6 56.3 488.7 57.2 487.5 57.2 486.25 57.2 485.4 56.3 484.95 55.85 484.7 55.25 484.5 54.75 484.5 54.15 484.5 53.95 484.5 53.75 484.55 53.5 484.6 53.25 482.5 53.4 481.45 53.9 479.9 54.75 478.1 57.85 478.65 55.95 479.1 54.7 479.35 53.9 479.85 52.7 481.3 48.6 483.2 46.5 483.8 45.9 484.4 45.45 482.25 43.75 478.55 40.5 473.75 36.25 471.8 34.1 471.75 34.05 471.7 33.95
L 471.55 33.85
Q 469.45 36.2 466.65 39.5 464.8 41.75 463.25 43.5 463.45 43.5 463.65 43.5 466.3 43.1 469.9 48.3 473.55 53.5 473.7 56 473.9 58.45 473.9 61.5 473.45 59 471 56.7 469.6 55.35 468.1 54.55 467.9 55.2 467.3 55.75 467.3 55.85 467.2 55.9 466.35 56.65 465.2 56.65 463.95 56.65 463.05 55.75 462.8 55.5 462.6 55.2 462.15 54.5 462.15 53.65
L 462.15 53.55
Q 459.7 53.9 458.05 55.2 456.1 56.8 455.1 60.15 455.8 62.1 456.9 64.8 460.35 73.15 461.55 74.7 462.75 76.25 467.8 80.95 467.95 81.1 468.15 81.25 472.95 85.55 475.05 85.5 477.25 85.45 484.6 79.75 485.45 79.1 486.15 78.5 492.05 73.7 493.2 70.95 494.25 68.35 495.65 64.85 495.2 62.3 495.2 59.2 495.2 58.95 495.25 58.3 494.85 57.4 494.35 56.85 492.6 55.05 491.7 54.4 490.75 53.75 490.5 53.7
M 486.2 59
Q 486.95 59.05 486.95 59.65 486.95 60.4 486.2 60.4 485.75 60.4 485.55 60.05
L 485.45 59.65
Q 485.45 59 486.2 59
M 489.05 60.65
Q 489.15 60.5 489.3 60.4 489.55 60.5 489.65 60.75 489.55 61 489.3 61.05 489.1 61 488.95 60.85 488.95 60.75 489.05 60.65
M 492 60.85
Q 491.85 60.75 491.75 60.7 491.75 60.65 491.7 60.55 491.65 60.4 491.65 60.15 491.65 59.65 492.35 59.6 493 59.55 493 60.2 493 60.45 492.85 60.65 492.65 60.9 492.35 60.9 492.1 60.9 492 60.85
M 492.5 66
Q 492.5 65.95 492.45 65.75 492.35 65.6 492.35 65.5 492.55 65.3 493 65.25 493.4 65.15 493.7 65.15
L 493.8 65.15
Q 493.85 65.15 493.85 65.45 493.85 65.9 492.95 66.1
L 492.5 66
M 476.5 54.85
Q 476.05 54.85 475.9 54.5 475.85 54.4 475.85 54.05 475.85 53.35 476.55 53.35 477.2 53.35 477.2 54.05 477.2 54.85 476.5 54.85
M 480.3 61.4
Q 480.25 61.25 480.25 61 480.25 60.3 481.1 60.4 481.95 60.45 481.95 61.05 481.95 61.75 481.1 61.75 480.5 61.75 480.3 61.4
M 466.8 58.4
Q 466.8 57.7 467.55 57.6 468.3 57.45 468.3 58.25 468.3 58.5 468.2 58.75 467.95 59.2 467.45 59.2 467.2 59.2 467.1 59.15 467 59.05 466.9 59
L 466.85 58.85
Q 466.8 58.65 466.8 58.4
M 466.4 61
Q 466.45 61 466.45 61.25 466.45 61.3 466.25 61.6 465.95 61.85 465.8 61.9 465.65 61.85 465.55 61.8 465.45 61.8 465.45 61.5 465.45 61.1 465.85 61 465.95 61 466.3 61
L 466.4 61
M 474.85 60.2
Q 474.7 60.15 474.6 60.15 474.55 60.1 474.55 59.85 474.55 59.5 474.75 59.4 475 59.35 475.25 59.5
L 475.3 59.45
Q 475.35 59.45 475.35 59.7 475.35 59.85 474.85 60.2
M 472.85 66.7
Q 473.1 67.1 473.7 67.85 474.8 69.1 475 69.1 475.3 69.1 476.8 68.05 478.1 67.25 478.6 66.75 478.6 66.85 478.7 67.05 478.85 67.2 478.85 67.6 478.35 68.6 477.55 69.6 476.1 71.65 475 71.65 474.2 71.65 473.4 69.25 472.9 67.8 472.85 66.7 472.7 66.45 472.7 66.4 472.7 66.05 472.85 65.7
L 472.9 65.65
Q 472.8 66.1 472.85 66.7
M 485.15 63.3
Q 485.25 63.25 485.6 63.25 485.9 63.35 485.95 63.6 485.9 63.75 485.85 63.8 485.75 63.95 485.45 63.95
L 485.1 63.8
Q 485.05 63.85 485 63.85 484.95 63.85 484.95 63.6 484.95 63.3 485.15 63.3
M 476.85 62.25
L 476.7 62.3
Q 476.65 62.4 476.5 62.4
L 476.3 62.3
Q 476.2 62.2 476.2 61.95 476.2 61.5 476.5 61.4 476.85 61.65 476.85 62.25
M 466.3 72.7
Q 475.15 75.7 485 72.7 475.15 75.7 466.3 72.7
M 459.7 59.7
Q 459.65 60 459.4 60 459.2 60 459.15 60 459.05 60 459.05 59.7 459.05 59.45 459.2 59.4 459.35 59.35 459.4 59.35 459.7 59.5 459.7 59.7
M 462.8 61.55
Q 462.5 61.55 462.4 61.5 462.3 61.45 462.15 61.35 462.1 61.15 462.1 60.75 462.1 59.85 462.8 59.85 463.45 59.85 463.45 60.75 463.45 61 463.35 61.25 463.15 61.55 462.8 61.55
M 460.9 64.6
Q 460.7 64.5 460.6 64.35 460.85 63.95 461.1 63.95 461.35 64 461.4 64.25 461.4 64.35 461.2 64.45 461 64.6 460.9 64.6
M 459.05 62.35
Q 459.05 63.05 458.35 63.05 457.8 63.05 457.6 62.75 457.55 62.6 457.55 62.35 457.55 61.65 458.35 61.75 459.05 61.8 459.05 62.35
M 476.7 78.3
Q 477.55 78.6 477.55 78.95 477.55 79.3 476.7 79.6 475.85 79.85 474.6 79.85 473.4 79.85 472.55 79.6 471.7 79.3 471.7 78.95 471.7 78.6 472.55 78.3 473.4 78.05 474.6 78.05 475.85 78.05 476.7 78.3
M 502.7 57.5
Q 502.15 57.2 501.35 56.1 500.85 58.1 500.3 60.2 499.95 62.05 499.85 64.5 501.3 63.8 502.35 62.35 503.6 60.55 503.9 58 503.15 57.85 502.7 57.5
M 503.65 51.9
Q 503.15 51.75 502.6 51.5 502.25 52.55 502.15 53.1 502.25 53.2 502.35 53.25 503.05 53.9 503.9 54.55 503.9 54.3 503.85 54.05 503.75 52.9 503.65 51.9 Z"/>

<path fill="#FEC792" stroke="none" d="
M 448.5 57.7
Q 448.6 58.85 448.95 59.8 449.55 59.25 450.2 58.4 450.8 57.7 451.15 57.25
L 451.15 55.9
Q 450.9 56.15 450.65 56.35 449.5 57.15 448.5 57.7
M 452.75 50.45
Q 451.85 50.75 450.75 51.15 449.6 51.5 448.6 51.8 448.6 51.9 448.6 52 448.5 52.6 448.45 53.8 448.8 53.75 449.15 53.6 450.05 53.35 450.6 53.2 451.4 52.25 452.45 50.9 452.6 50.7 452.75 50.45
M 463.25 43.5
Q 460.15 47.2 458.55 48.95 457.2 50.35 456 51.6 455.5 53.15 455.1 56.15 454.9 57.7 454.75 59.35 454.9 59.75 455.1 60.15 456.1 56.8 458.05 55.2 459.7 53.9 462.15 53.55 462.2 52.35 463.05 51.5 463.95 50.6 465.2 50.6 466.45 50.6 467.3 51.5 468.2 52.4 468.2 53.65 468.2 54.1 468.1 54.55 469.6 55.35 471 56.7 473.45 59 473.9 61.5 473.9 58.45 473.7 56 473.55 53.5 469.9 48.3 466.3 43.1 463.65 43.5 463.45 43.5 463.25 43.5
M 477.55 78.95
Q 477.55 78.6 476.7 78.3 475.85 78.05 474.6 78.05 473.4 78.05 472.55 78.3 471.7 78.6 471.7 78.95 471.7 79.3 472.55 79.6 473.4 79.85 474.6 79.85 475.85 79.85 476.7 79.6 477.55 79.3 477.55 78.95
M 473.7 67.85
Q 473.1 67.1 472.85 66.7 472.9 67.8 473.4 69.25 474.2 71.65 475 71.65 476.1 71.65 477.55 69.6 478.35 68.6 478.85 67.6 478.85 67.2 478.7 67.05 478.6 66.85 478.6 66.75 478.1 67.25 476.8 68.05 475.3 69.1 475 69.1 474.8 69.1 473.7 67.85
M 495.8 52.25
Q 495.5 52.15 495.45 52.1 491.95 50.9 485.5 46.3 485 45.95 484.4 45.45 483.8 45.9 483.2 46.5 481.3 48.6 479.85 52.7 479.35 53.9 479.1 54.7 478.65 55.95 478.1 57.85 479.9 54.75 481.45 53.9 482.5 53.4 484.6 53.25 484.85 52.55 485.4 52.05 486.25 51.15 487.5 51.15 488.7 51.15 489.6 52.05 490.35 52.75 490.5 53.7 490.75 53.75 491.7 54.4 492.6 55.05 494.35 56.85 494.85 57.4 495.25 58.3 495.3 57.6 495.35 56.45 495.45 55.55 495.5 54.7 495.6 53.4 495.7 52.4
L 495.8 52.25
M 503.65 54.75
Q 502.75 54.4 501.85 54.05 501.6 55.05 501.35 56.1 502.15 57.2 502.7 57.5 503.15 57.85 503.9 58 503.9 57.4 503.9 56.8 503.9 55.75 503.9 54.85
L 503.65 54.75 Z"/>

<path fill="#99FF00" stroke="none" d="
M 467.2 55.9
Q 467.2 55.25 466.55 54.5 465.9 53.75 465.2 53.75 464.15 53.75 463.5 54.1 462.75 54.55 462.6 55.2 462.8 55.5 463.05 55.75 463.95 56.65 465.2 56.65 466.35 56.65 467.2 55.9
M 489.2 54.4
Q 488.6 53.85 487.2 53.85 486 53.85 485.4 54.2 484.85 54.55 484.7 55.25 484.95 55.85 485.4 56.3 486.25 57.2 487.5 57.2 488.7 57.2 489.6 56.3 489.8 56.1 489.95 55.85 489.85 54.85 489.2 54.4 Z"/>

<path fill="#99CC33" stroke="none" d="
M 468.2 53.65
Q 468.2 52.4 467.3 51.5 466.45 50.6 465.2 50.6 463.95 50.6 463.05 51.5 462.2 52.35 462.15 53.55
L 462.15 53.65
Q 462.15 54.5 462.6 55.2 462.75 54.55 463.5 54.1 464.15 53.75 465.2 53.75 465.9 53.75 466.55 54.5 467.2 55.25 467.2 55.9 467.3 55.85 467.3 55.75 467.9 55.2 468.1 54.55 468.2 54.1 468.2 53.65
M 466.15 51.2
Q 467.2 51.25 467.2 52.2 467.2 52.4 466.95 52.75 466.6 53.2 466.15 53.2 465.55 53.2 465.3 52.7
L 465.15 52.2
Q 465.15 51.1 466.15 51.2
M 490.5 54.15
Q 490.5 53.9 490.5 53.7 490.35 52.75 489.6 52.05 488.7 51.15 487.5 51.15 486.25 51.15 485.4 52.05 484.85 52.55 484.6 53.25 484.55 53.5 484.5 53.75 484.5 53.95 484.5 54.15 484.5 54.75 484.7 55.25 484.85 54.55 485.4 54.2 486 53.85 487.2 53.85 488.6 53.85 489.2 54.4 489.85 54.85 489.95 55.85 490.45 55.2 490.5 54.4 490.5 54.25 490.5 54.15
M 487.05 52.4
Q 487.05 51.4 488.05 51.45 489.1 51.55 489.1 52.45 489.1 52.7 488.85 53.05 488.55 53.45 488.05 53.45 487.45 53.45 487.2 52.95 487.05 52.45 487.05 52.4 Z"/>

<path fill="#FFFFFF" stroke="none" d="
M 467.2 52.2
Q 467.2 51.25 466.15 51.2 465.15 51.1 465.15 52.2
L 465.3 52.7
Q 465.55 53.2 466.15 53.2 466.6 53.2 466.95 52.75 467.2 52.4 467.2 52.2
M 457.55 33.6
Q 457.35 33.75 457.1 33.95 455.75 34.9 454.6 35.6 452.95 36.7 452.75 36.75 452.6 36.85 452.5 36.9 451.4 37.4 450.65 37.55 452.9 37.55 453.95 37.55 455.7 37.5 457.05 37.3
L 457.05 37.55
Q 455.5 39.15 452.7 41.1
L 452.7 41.2
Q 455.65 39.7 456.75 39.2 459.65 37.85 460.9 37.55 460.2 39.35 459.55 40.5 458.85 41.85 457.9 42.8
L 457.95 42.85
Q 459.2 41.65 462 38.9 465.55 35.25 466.35 33.95 465.6 34.6 464.95 35 463.45 35.8 461.7 35.75 462.25 34.9 463.6 32.65 463.95 32.1 464.2 31.7
L 464 31.6
Q 463.25 32.1 462.5 32.45 461.85 33 460.9 33.95
L 459.65 33.95 459.65 33.75
Q 459.75 33.6 460 33.3 460.25 32.85 460.7 32.1 461.35 31.1 461.7 30.4 460.1 31.85 457.55 33.6
M 488.05 51.45
Q 487.05 51.4 487.05 52.4 487.05 52.45 487.2 52.95 487.45 53.45 488.05 53.45 488.55 53.45 488.85 53.05 489.1 52.7 489.1 52.45 489.1 51.55 488.05 51.45
M 490.4 42.55
Q 488.55 39.15 488.55 39.1
L 488.6 38.9
Q 489.5 39.2 490.45 39.4 487.3 36.5 486.25 35.75 488.05 36.75 490.6 37.35 494.15 38.2 494.45 38.35 491.25 36.6 488.8 34.75 485.9 32.55 485.5 31.15
L 485.5 31.95
Q 485.5 32.35 485.7 32.9 485.7 33 486.05 33.95
L 485.75 33.95
Q 484.95 33.45 483.65 32.2 482.95 31.5 482.6 31 483.05 31.95 483.3 32.5 483.8 33.9 484.25 35.55 481.7 34.35 480.95 33.75 480 32.8 478.85 31.65 479.15 32.05 480.8 34.45 481.45 35.3 482.05 36.1 482.85 37.2 483.6 38.05 487.65 42.85 492.85 45.85
L 492.9 45.8
Q 491.55 44.65 490.4 42.55
M 469.95 17.35
Q 467.95 16.3 467.2 16.3 465.95 16.3 464.3 17.9 462.95 19.25 462.15 20.9 463.9 18.95 464.8 18.5
L 465.45 18.25
Q 465.9 18.15 466.3 17.85
L 466.55 17.85
Q 465.85 18.55 464.8 20.2 464 21.45 463.55 22.25 464.4 21.75 465.45 20.7 466.8 19.6 468.85 19.6 470.25 19.6 471.9 20.2 472.9 20.5 475.25 21.4 474.45 20.3 474.05 19.9 473.9 19.7 473.6 19.55 473.5 19.45 473.4 19.4 471.05 17.95 469.95 17.35
M 487.05 17.95
L 487 17.85
Q 485.95 17.95 483.95 18.1 481.75 18.25 480.65 18.35 480.4 18.35 480.15 18.35 480.15 18.6 480.45 19.05 480.75 19.45 481.15 19.9 480.4 19.75 479.6 20 478.7 20.2 478.35 20.65 479.55 20.55 481.9 23.25 482.15 23.5 483.8 25.5 484.8 26.65 485.4 27.2
L 485.5 27.05
Q 484.85 24.7 484.6 23.85 484.25 22.45 484.25 21.4 484.65 21.6 486.35 22.7 488.05 23.7 489.05 23.7 486.85 21.25 486.35 20.7 484.9 19.25 484.75 19.1 484.9 19.1 485.6 18.6 486.25 18.15 487.05 17.95 Z"/>

<path fill="#CA5202" stroke="none" d="
M 434.95 51.75
L 434.95 51.65
Q 434.7 51.65 434.5 51.65 434.75 51.7 434.95 51.75
M 460 33.3
Q 459.75 33.6 459.65 33.75
L 459.65 33.95 460.9 33.95
Q 461.85 33 462.5 32.45 461.6 32.9 460.7 33.1 460.35 33.2 460 33.3
M 488.55 39.1
Q 488.55 39.15 490.4 42.55 491.55 44.65 492.9 45.8
L 492.85 45.85
Q 487.65 42.85 483.6 38.05 482.85 37.2 482.05 36.1 481.15 35.6 480.25 35 477.3 33.05 475.05 30.7 473.15 28.65 472.45 27.05 469.5 28.1 467.25 29.45 465.5 30.6 464.5 31.25 464.25 31.45 464 31.6
L 464.2 31.7
Q 463.95 32.1 463.6 32.65 462.25 34.9 461.7 35.75 463.45 35.8 464.95 35 465.6 34.6 466.35 33.95 465.55 35.25 462 38.9 459.2 41.65 457.95 42.85
L 457.9 42.8
Q 458.85 41.85 459.55 40.5 460.2 39.35 460.9 37.55 459.65 37.85 456.75 39.2 455.65 39.7 452.7 41.2
L 452.7 41.1
Q 455.5 39.15 457.05 37.55
L 457.05 37.3
Q 455.7 37.5 453.95 37.55 452.9 37.55 450.65 37.55 451.4 37.4 452.5 36.9 452.6 36.85 452.75 36.75 452.95 36.7 454.6 35.6 455.75 34.9 457.1 33.95 457.35 33.75 457.55 33.6 456.4 33.75 455.15 33.75 454.75 33.75 454.4 33.65 452.95 34.5 451.45 35.3 451.1 35.45 450.7 35.65 450.65 35.75 450.5 35.75 449.65 37 448.3 38.2 446.5 39.85 444.45 40.85 442.3 41.95 440.65 41.95 438.5 41.95 436.4 40.9
L 436.4 40.7
Q 436.15 40.7 435.95 40.7 435.6 40.7 435.3 40.65 436.1 41.5 437.8 42.35 439.55 43.15 443.7 43.5
L 449.9 43.5
Q 449.6 43.9 448.5 44.65 445.2 48.15 442.1 49.75 438.8 51.55 434.95 51.75 436.1 51.85 437.15 51.9 437.9 51.9 439.65 51.9 448.75 48.45 455.1 43 451.2 47.2 449.1 48.65 445.65 51.05 439.8 52.15 441.2 53.85 448.1 51.95 448.3 51.9 448.6 51.8 449.6 51.5 450.75 51.15 451.85 50.75 452.75 50.45 452.6 50.7 452.45 50.9 451.4 52.25 450.6 53.2 450.3 53.55 449.95 53.9 448.95 55.05 448.55 55.55 448.5 55.65 448.35 55.75 447.9 56.25 446.6 57.35
L 446.55 57.35
Q 445.3 59 443.5 59.1 445 59.15 446.75 58.5 447.55 58.2 448.5 57.7 449.5 57.15 450.65 56.35 450.9 56.15 451.15 55.9
L 451.15 57.25 451.15 59.85
Q 451.6 61.15 452.05 63.7 452.1 64.05 452.15 64.45 452.3 65.5 452.45 66.35 452.3 67.35 451.85 68.7 450.95 71.55 449.2 74.7 447.4 77.95 445.5 80.2 443.45 82.6 441.95 82.9
L 442.7 82.9
Q 442.8 82.9 442.95 82.9 443.9 82.5 446.95 80.6 450.15 78.6 450.65 78.05
L 450.9 78.05
Q 451.4 80.35 448.05 85 444.7 89.7 441.2 90.35
L 444 90.35
Q 447.7 90.25 453.7 86.85 459.7 83.4 459.85 82.4
L 460.15 82.15
Q 460.05 82.25 460 82.45
L 460 82.5
Q 459.35 83.55 457.7 85.65 456.05 87.8 453.75 89.1 458.7 89.35 463.55 85.7 465.45 84.35 466.95 82.75 467.7 81.85 468.15 81.25 467.95 81.1 467.8 80.95 462.75 76.25 461.55 74.7 460.35 73.15 456.9 64.8 455.8 62.1 455.1 60.15 454.9 59.75 454.75 59.35 454.5 62.25 454.5 65.1 454.5 67.55 455.55 72.3 456.5 76.45 457.55 79.6 456.4 78.65 455.55 77.15 454.9 74.9 454.25 72.3 453.25 67.55 453.25 65.1 453.25 62.25 453.45 59.35 453.6 57.7 453.8 56.15 454.05 54.45 454.3 53.25 455.1 52.45 456 51.6 457.2 50.35 458.55 48.95 460.15 47.2 463.25 43.5 464.8 41.75 466.65 39.5 469.45 36.2 471.55 33.85
L 471.7 33.95
Q 471.75 34.05 471.8 34.1 473.75 36.25 478.55 40.5 482.25 43.75 484.4 45.45 485 45.95 485.5 46.3 491.95 50.9 495.45 52.1 495.5 52.15 495.8 52.25
L 495.7 52.4
Q 495.6 53.4 495.5 54.7 495.9 54.35 496.5 54.2 497.2 56.35 497.3 59.15 497.3 60.35 497.1 64.3 496.9 67.6 497.1 69.55
L 496.95 69.6
Q 497 69.75 497.05 69.9 496.65 68.9 496.4 68.1 495.9 66.6 495.65 64.85 494.25 68.35 493.2 70.95 492.05 73.7 486.15 78.5 490.1 81.1 491.95 83.1 493.65 85 494.4 87.05
L 494.5 87.05
Q 494 83.55 493.95 83.2 496.15 84.05 499.9 85.85 502.6 87 504.95 87.2 505.15 86.9 507.1 86.9 508.2 86.95 509.8 87.05
L 509.85 86.8
Q 506.05 86.2 502.65 83.9 499.2 81.45 497.25 77.8
L 497.25 76.3 497.5 76.3
Q 497.85 76.5 499.2 77.65 500.7 79 501.7 79.75 505.05 82.25 507 81.95 502.9 80.85 500.05 76.3 500 76.3 500 76.25 499.95 76.2 499.95 76.15 499.45 75.4 499.05 74.6 497.95 72.55 497.2 70.4 497.15 70.3 497.15 70.25 497.15 70.1046875 497.1 70.05 497.1515625 70.103125 497.2 70.2 498.25 72.65 500.1 76
L 500.35 76
Q 500.15 73.4 500 69.6 499.8 66.25 499.8 65.6 499.8 65.05 499.85 64.5 499.95 62.05 500.3 60.2 500.85 58.1 501.35 56.1 501.6 55.05 501.85 54.05 502.75 54.4 503.65 54.75
L 503.9 54.7
Q 503.9 54.65 503.9 54.55 503.05 53.9 502.35 53.25 502.25 53.2 502.15 53.1
L 502.15 53.2
Q 501.5 52.85 500.8 52.45 494.45 48.95 494.45 46.55 494.45 46.15 494.55 46.05 494.65 46 494.7 46
L 496 46
Q 496.1 46.2 496.75 47.05 497.8 48.95 499.9 51.1 500.75 51.9 502.15 53.1 502.25 52.55 502.6 51.5 503.15 51.75 503.65 51.9 507.25 53.3 510.6 52.95
L 514.15 52.95 514.2 52.8
Q 514.3 52.7 514.45 52.7 512.95 52.1 510.05 50.5 507.35 49.95 505 49.25 496.5 46.8 496.5 43.35 496.5 42.95 496.75 42.7 497.05 42.45 497.65 42.45 498.05 42.45 499.05 42.95 499.6 43.2 500.05 43.35 499.4 43.45 498.8 43.5 500.05 44.45 503.75 46.75 504.2 44.3 504.2 43.7 504.2 43.15 503.9 42.4 504.4 42.2 504.95 42 508.7 40.7 511.4 39 508.7 39.7 505.85 38.8 505.35 39.05 504.75 39.2 502.05 40.15 497.15 40.15 493.65 40.15 490.45 39.4 489.5 39.2 488.6 38.9
L 488.55 39.1 Z"/>

<path fill="#CC6600" stroke="none" d="
M 452.95 32.45
Q 452.75 32 452.65 31.4 451.9 33.45 451.45 35.3 452.95 34.5 454.4 33.65 453.45 33.4 452.95 32.45 Z"/>

<path fill="#FFCCCC" stroke="none" d="
M 458.35 63.05
Q 459.05 63.05 459.05 62.35 459.05 61.8 458.35 61.75 457.55 61.65 457.55 62.35 457.55 62.6 457.6 62.75 457.8 63.05 458.35 63.05
M 462.4 61.5
Q 462.5 61.55 462.8 61.55 463.15 61.55 463.35 61.25 463.45 61 463.45 60.75 463.45 59.85 462.8 59.85 462.1 59.85 462.1 60.75 462.1 61.15 462.15 61.35 462.3 61.45 462.4 61.5
M 467.55 57.6
Q 466.8 57.7 466.8 58.4 466.8 58.65 466.85 58.85
L 466.9 59
Q 467 59.05 467.1 59.15 467.2 59.2 467.45 59.2 467.95 59.2 468.2 58.75 468.3 58.5 468.3 58.25 468.3 57.45 467.55 57.6
M 480.25 61
Q 480.25 61.25 480.3 61.4 480.5 61.75 481.1 61.75 481.95 61.75 481.95 61.05 481.95 60.45 481.1 60.4 480.25 60.3 480.25 61
M 475.9 54.5
Q 476.05 54.85 476.5 54.85 477.2 54.85 477.2 54.05 477.2 53.35 476.55 53.35 475.85 53.35 475.85 54.05 475.85 54.4 475.9 54.5
M 491.75 60.7
Q 491.85 60.75 492 60.85 492.1 60.9 492.35 60.9 492.65 60.9 492.85 60.65 493 60.45 493 60.2 493 59.55 492.35 59.6 491.65 59.65 491.65 60.15 491.65 60.4 491.7 60.55 491.75 60.65 491.75 60.7
M 486.95 59.65
Q 486.95 59.05 486.2 59 485.45 59 485.45 59.65
L 485.55 60.05
Q 485.75 60.4 486.2 60.4 486.95 60.4 486.95 59.65 Z"/>

<path fill="#FED8B4" stroke="none" d="
M 460.6 64.35
Q 460.7 64.5 460.9 64.6 461 64.6 461.2 64.45 461.4 64.35 461.4 64.25 461.35 64 461.1 63.95 460.85 63.95 460.6 64.35
M 459.4 60
Q 459.65 60 459.7 59.7 459.7 59.5 459.4 59.35 459.35 59.35 459.2 59.4 459.05 59.45 459.05 59.7 459.05 60 459.15 60 459.2 60 459.4 60
M 476.7 62.3
L 476.85 62.25
Q 476.85 61.65 476.5 61.4 476.2 61.5 476.2 61.95 476.2 62.2 476.3 62.3
L 476.5 62.4
Q 476.65 62.4 476.7 62.3
M 485.6 63.25
Q 485.25 63.25 485.15 63.3 484.95 63.3 484.95 63.6 484.95 63.85 485 63.85 485.05 63.85 485.1 63.8
L 485.45 63.95
Q 485.75 63.95 485.85 63.8 485.9 63.75 485.95 63.6 485.9 63.35 485.6 63.25
M 474.6 60.15
Q 474.7 60.15 474.85 60.2 475.35 59.85 475.35 59.7 475.35 59.45 475.3 59.45
L 475.25 59.5
Q 475 59.35 474.75 59.4 474.55 59.5 474.55 59.85 474.55 60.1 474.6 60.15
M 466.45 61.25
Q 466.45 61 466.4 61
L 466.3 61
Q 465.95 61 465.85 61 465.45 61.1 465.45 61.5 465.45 61.8 465.55 61.8 465.65 61.85 465.8 61.9 465.95 61.85 466.25 61.6 466.45 61.3 466.45 61.25
M 492.45 65.75
Q 492.5 65.95 492.5 66
L 492.95 66.1
Q 493.85 65.9 493.85 65.45 493.85 65.15 493.8 65.15
L 493.7 65.15
Q 493.4 65.15 493 65.25 492.55 65.3 492.35 65.5 492.35 65.6 492.45 65.75
M 489.3 60.4
Q 489.15 60.5 489.05 60.65 488.95 60.75 488.95 60.85 489.1 61 489.3 61.05 489.55 61 489.65 60.75 489.55 60.5 489.3 60.4 Z"/>
</g>

<path id="Layer0_0_MEMBER_0_MEMBER_0_1_STROKES" stroke="#FF6666" stroke-width="1" stroke-linejoin="round" stroke-linecap="round" fill="none" d="
M 466.3 72.7
Q 475.15 75.7 485 72.7"/>
</defs>

<g transform="matrix( 1, 0, 0, 1, -414.2,-14) ">
<use xlink:href="#Layer0_0_FILL"/>
</g>

<g transform="matrix( 1, 0, 0, 1, -414.2,-14) ">
<use xlink:href="#Layer0_0_MEMBER_0_FILL"/>
</g>

<g transform="matrix( 1, 0, 0, 1, -414.2,-14) ">
<use xlink:href="#Layer0_0_MEMBER_0_MEMBER_0_FILL"/>

<use xlink:href="#Layer0_0_MEMBER_0_MEMBER_0_1_STROKES"/>
</g>
</svg>
