<svg xmlns="http://www.w3.org/2000/svg" xmlns:xlink="http://www.w3.org/1999/xlink" preserveAspectRatio="none" width="225" height="215" viewBox="0 0 225 215"><defs><path fill="#CCC" d="M95.2 204.05q-9.95 59.8-7.4 92.7 2.55 32.85 34.95 53.3 32.5 20.45 78.4 20.45 45.95 0 78.35-20.45 32.5-20.45 32.5-49.4t-20.25-67.5q-20.25-38.55-103.4-63.7-83.15-25.15-93.15 34.6z" id="a"/><g id="b"><path fill="#FC6" d="M267.25 330.7q-2.75 0-12.55.05-5.5 12-10.5 20.3-1.75 4.1-2.15 14.45 10.15-2.4 20.55-5.8.75-4.65 1.4-8.65 2.05-12.45 3.25-20.35m-95.85-66.75q-2.75 14.35-3.15 28.45 29.25 7.3 65.7-.1.15-14.65-4.25-29.35-12.25-4.45-23.8-4.3-20.8.1-34.3 5.25-.15 0-.2.05m-31.9 66.15q-4.45-.25-5.95-.55.65 8.25 1.8 21.65.25 2.9.6 6.1 7.6 3.35 15.5 5.85-1.75-6.95-4.6-13.65-7.35-14.1-7.35-16.35v-3.05z"/><path fill="#636" d="M256.1 317.85q-3.95-4.65-5.9-6.4.3 2.4 1.15 7.5.75 4.55 1.15 7.8.3-1.4.6-2.7 3.6-.2 7.2-1.2-1.65-1.85-4.2-5m-107.35 12.6q1.85 4.5 4.95 9.25 4 6.1 5.35 9.25.25.4.5.95.25.85.6 1.7 3.65 4.35 20.3.7 16.15-3.75 20.3-8.35h-2.05q1.1-.15 2.15-.15 0-.05.1 0 6.35 1.25 14.95 5.35 8.5 4.15 12.15 5.15 3.6 1 8.35 1h2.35q.3-1.25.75-2.6.35-1.05.75-2.05 1.45-3.1 5.4-9.2 3.6-5.5 5.65-10.7-16.9 6.25-25.2 4.75-8.3-1.65-11-2.5-2.2-.75-9.15-2.2-1.4.75-3.1.75-1.75 0-3.05-.6-6.6 1.35-19.95 4-15.7 3.05-31.1-4.5m2.2-19.5q-2.65 2.6-5.95 6.5-3.4 3.85-6.2 6.8 2.45 1.25 4.7 1.75 1.75.45 3.85.55.25.75.55 1.55l.4-.1q0-.6-.25-2.05-.3-1.5-.3-2.15 0-4.85.55-7.55.75-3.3 2.65-5.3z"/><path fill="#FDA31C" d="M239.5 352.7V366q1.25-.25 2.55-.5.4-10.35 2.15-14.45 5-8.3 10.5-20.3 9.8-.05 12.55-.05 1.4-8.55 1.9-12.05-.8.55-1.55.95-3.6 2.05-7.3 3.25-3.6 1-7.2 1.2-.3 1.3-.6 2.7-.55 1.95-1.2 4-2.05 5.2-5.65 10.7-3.95 6.1-5.4 9.2-.4 1-.75 2.05m-105.95-23.15q1.5.3 5.95.55v3.05q0 2.25 7.35 16.35 2.85 6.7 4.6 13.65 3.2 1 6.4 1.9.45-9.25.8-12.9.15-1.5.9-2.25-.25-.55-.5-.95-1.35-3.15-5.35-9.25-3.1-4.75-4.95-9.25-.5-1.2-.85-2.35-.3-.8-.55-1.55-2.1-.1-3.85-.55-2.25-.5-4.7-1.75-2.85-1.35-6.05-3.7.3 3.05.75 8.5 0 .2.05.5z"/><path d="M168.25 292.4q.4-14.1 3.15-28.45-3.3 1.15-6.4 2.7-3.65 16.65-4.05 32.9 35.6 8.95 80.1 0 .5-16.95-4.8-33.9-3.3-1.55-6.55-2.7 4.4 14.7 4.25 29.35-36.45 7.4-65.7.1z"/><path fill="#8C478D" d="M160.15 351.6q1.4 4.45 1.4 9.4 0 2.5-.25 4.95 36.2 8.9 76.65.45-.15-1.85-.15-3.65 0-3.85.95-7.45h-2.35q-4.75 0-8.35-1-3.65-1-12.15-5.15-8.6-4.1-14.95-5.35v.15h-.2q-4.15 4.6-20.3 8.35-16.65 3.65-20.3-.7z"/><path fill="#A5A" d="M145.4 278.95q-4.4 3.5-6.9 6.75-.45.45-.75 1-.35.4-.55.9-.45.65-.75 1.35-1.9 10.6-2.95 17.85-.95 7.3-1.05 9.6 0 .6.3 4.15 3.2 2.35 6.05 3.7 2.8-2.95 6.2-6.8 3.3-3.9 5.95-6.5-1.9 2-2.65 5.3-.55 2.7-.55 7.55 0 .65.3 2.15.25 1.45.25 2.05l-.4.1q.35 1.15.85 2.35 15.4 7.55 31.1 4.5 13.35-2.65 19.95-4 1.3.6 3.05.6 1.7 0 3.1-.75 6.95 1.45 9.15 2.2 2.7.85 11 2.5 8.3 1.5 25.2-4.75.65-2.05 1.2-4-.4-3.25-1.15-7.8-.85-5.1-1.15-7.5 1.95 1.75 5.9 6.4 2.55 3.15 4.2 5 3.7-1.2 7.3-3.25.75-.4 1.55-.95.2-1.85.3-2.15.15-2.35-.3-9.65-.5-7.25-3.9-19.2l.6-.6q-.35-.4-.6-.95-3.95-6-15.8-13.4-6.7-4.15-13.2-7.05 5.3 16.95 4.8 33.9-44.5 8.95-80.1 0 .4-16.25 4.05-32.9-10.15 4.7-19.6 12.3z"/></g><g id="c"><path fill="#F60" d="M234.25 313.2v.15h.15q-.05-.1-.15-.15m2.8-10.7v.2h.1q0-.05-.1-.2m2.95-11.15l-.05-.15v.15h.05m-.15-12.25q-.05-.15-.05-.2 0 .05-.1.1l.15.1m-2.55-15.8v.2l.15-.05-.15-.15m-3.45-5.8h.3q-.25-.15-.3-.15v.15m.65-7.35q-.15-.05-.25-.15v.2l.25-.05m-12.4-4.4h.15v-.15q-.004.1-.15.15z"/><path fill="#E30202" d="M231.5 321.35q-1.4.45-2.95.05-1.3-.35-2.2-1.2-1.2 3.8 1 5.1 1.05.7 2.4.2 1.35-.4 2.25-2 .1-.6-.05-1.25-.15-.5-.45-.9m-.6-6.8q.05-1.15.1-1.35 1.15 2.1 1.15 2.55 0 .05.05.15v-.15q.1-.35.1-.95.05-.95 0-1.55l.05-.2q.3.15.65.7.15.45.5 1.05l.2-.1q0 .25.1.6.1-.35.25-.9t.2-1.05v-.15q-.2-.5-.55-.95-1.7.65-3.55.1-1.4-.35-2.4-1.3-.25.1-.5.25-1.25.85-1.95 2.1.15.35.2.7.8 2 2.75 2.55.95.3 1.8.35-.3-2.05-.25-2.1l.15-.8q.15.6.35 1 .1.2.45.8.15-.45.15-1.35m3.75-11.95l.05-.15q.35.05.75.85.3.4.65 1.1l.15-.05q.15.35.15.8.2-.5.4-1.15.15-.7.25-1.3v-.2q-.35-.65-.85-1.2-1.65.5-3.35 0-1.7-.5-2.75-1.7-.7.3-1.4.7-1.55.95-2.4 2.55.1.35.25.7.95 2.5 3.35 3.2 1.1.3 2.05.35-.3-2.4-.3-2.45l.2-1q.25.7.35 1.1.15.4.65 1 .1-.5.15-1.55 0-1.4.15-1.7 1.35 2.65 1.4 3.05h.1q0-.4.05-1.15.15-1.1-.05-1.8m-2.45-12.9q-.7-.2-1.3-.55-1.3 1-2 2.3.15.45.3.8.9 2.55 3.3 3.25 1.2.35 2.2.45-.3-2.55-.3-2.65l.25-.9q.1.7.35 1.1.2.4.6 1 .1-.5.15-1.6 0-1.45.15-1.65 1.35 2.65 1.4 3l.1.05q.05-.4.05-1.15.15-1.1 0-1.9l.1-.2q.4.2.85.9.2.5.55 1.2l.2-.1q.05.35.05.75.3-.5.45-1.05l.3-1.4v-.15q-.95-1.55-2.35-2.35-.15.05-.2.15-2.5 1.5-5.2.7m4.95-13.5q-.05 0-.1-.1-2.2 2.15-5.35 2.15-1.45 0-2.8-.45-.55.6-1 1.35.15.45.3.85 1 2.75 3.65 3.5 1.2.35 2.3.4-.3-2.7-.35-2.75l.25-1.05q.15.75.45 1.25.15.35.7 1.05.05-.5.05-1.7 0-1.55.15-1.8 1.5 2.8 1.55 3.3h.1q0-.4.1-1.2.1-1.25 0-2.05v-.2q.45.15.85 1 .3.45.75 1.25l.1-.15q.15.35.15.8.3-.5.45-1.2.2-.7.25-1.45.1-.05.1-.1-1-1.8-2.65-2.7m.3-10.9q0-1-.15-1.8v-.2q-.6-.65-1.25-1.05-.6 1-1.4 1.9.4.15.95.7.45.45 1.1 1.2l.2-.2q.2.45.35.95.2-.75.2-1.5m-3.1-.85q-.55.65-1.3 1.2 1.85 2 2 2.4h.05q-.05-.55-.2-1.5-.2-1.25-.55-2.1m-3.2 2.25q.35.8.8 1.2.25.35 1.1 1-.05-.65-.4-2-.15-.5-.15-.9-.7.4-1.35.7m-7.05-.15l-.3 1q.2.45.55.95 1.95 2.75 5.2 2.75 1.55 0 2.75-.3-1.15-2.95-1.2-3.1v-1.15q-1.55.55-3.35.55-1.95 0-3.65-.7m3.95-11.15q.35.35 1.25 1.05-.1-.65-.5-2.25-.6.25-1.25.5.3.35.5.7m-1-.6q-1.5.4-3.05.4-2.7 0-4.95-1v1.4q.1.2.2.35 2.3 3.2 5.95 3.2 1.85 0 3.2-.2-1.25-3.55-1.35-3.7v-.45m4.2-2.1q-.6.4-1.15.8 1.4 1.6 1.55 1.95h.05q-.05-.55-.25-1.6-.1-.65-.2-1.15m3-2.7l-.35-.25q-.5.85-1.25 1.6-.15.2-.35.45.5.55 1.25 1.4l.25-.2q.2.4.4 1.05.2-.85.2-1.8 0-1.05-.15-2.05v-.2m-35.5-93.8q-4.8-.15-8.25 1.35-1.1.5-1.85 1.05-2.75.85-7.6 3.7-4.95 2.95-9.75 7.9-4.9 4.95-10.05 14.5-.3 1.8-.3 3.4 0 3.35 5.7 5.1 1.95-3.2 4.5-6.8 5.95-8.25 10.6-12l.15.2q-1.6 2.35-4.15 5.7l.05.15q.95-.25 3.95-2.4 2-1.25 3.9-2.55-1.8 2.65-3.4 4.95-2.95 4.6-4 6.75 2.9-2.05 8.85-8.2 4.45-4.6 7.4-5.7-5.3 8.1-6.9 9.85v.3q4.3-1.45 7.7-5.1.6-.65 3.1-3.6 2-2.4 3.6-4-3.1 5.8-4.65 8.6-1.05 1.9-2.05 3.45-.95.7-2.5 2.55-1.45 1.9-5.95 4.9-4.35 3-6.3 4.35 7.3-.5 14.1-3.1 7.65-2.9 17.2-9.5-.65 7.1 8.4 12.9 8.15 5.25 16.9 5.25 3.9 0 5.6-1.45 1.3-1.05 1.7-3.3-2.1-6.1-5-11.8-3.25-6.45-10.15-13.05-4.5-4.1-7.25-5.7-1.2-1.1-3-1.5-5.8-1.2-7.55-2.55-1.4-1.5-3.6-2.85-.75-.15-1.45-.2-3.15-1.55-7.7-1.55m26.95 15.4q-.7-.7-2.05-1.1-1.6-.5-2.55-.8l-.2.1q.85 1.3 2.6 4.45 2.15 3.8 2.4 4.75v.55q-.85-1.05-1.9-2-1.95-1.9-5.2-3.55.85 1.3 1.25 2.8.5 1.2.8 1.6h-1.3q-.5-.25-.75-.4-.45-.25-1.1-.35h-.2q.15.1.35 1.4.2 1.25.65 1.55v2.55q-.85-.65-2.4-2.85-1.45-1.95-1.5-2.45-.15-.15-.4-.15l-.25-.05q.45-.95 2.5-6.55 1.95-5.5 2.4-5.5 1.9 0 3.55 1.7 1.05 1.15 3.3 4.3z"/><path fill="#F90" d="M230.8 315.9h-.05v.1l.05-.1m1.4 0v.2l.1-.15q-.098 0-.1-.05m.65-10.15v.1l.1-.1h-.1m1.7-.2q-.05.15 0 .3 0-.15.1-.3h-.1m0 .5l.1-.2h-.1v.2m2.85-11.75l-.1-.05q0 .2.1.25v-.2m-.35-11.75v-.15q-.1.25-.1.3l.1-.15m0-.35h-.1q0 .15.1.2v-.2m-1.8-13.8l-.05-.05.05.25v-.2m-.15-.35h-.05q0 .15.15.3 0-.15-.1-.3m-3.4-12.6h-.05q0 .2.15.35 0-.15-.1-.35m.1.35q0 .352.05.45v-.35q-.047 0-.05-.1m-58.95-61.4q1.65.2 3.25.2 1.3-1.6 1.85-2.6l.3-.3q-3.4 1.55-4.55 2.2-.2.15-.85.5m-3.95-.65q.9.25 1.9.35 1-1.7 1.4-2.4-1.9 1.05-3.3 2.05m8.85-13.15v-.3l-.3.3h.3m-5.45 11.1q.3-.25.5-.35h-.2q-.1.1-.3.35z"/><path fill="#C00" d="M225.5 314.1q-.05-.35-.2-.7-.3.65-.45 1.3-.55 2.15.6 4.15.25.65.7 1.15-.7.4-1.15 1.25-.75 1.5-.35 3.1 0 .25.05.35.1.65.3 1.6.35 1.6-.3 2.65-.6 1.2-1.9 1.65-1.35.4-2.75-.2 2.9 1.95 5.95 1.2 3.1-.85 4.75-3.9.35-.65.85-2.2l-.1-.2q.2-.35.35-.7.15-.6.15-1.1-.9 1.6-2.25 2-1.35.5-2.4-.2-2.2-1.3-1-5.1.9.85 2.2 1.2 1.55.4 2.95-.05.5-.15 1-.45 1.85-1.2 2.4-3.4.55-2.2-.5-4.15h-.15q-.05.5-.2 1.05-.15.55-.25.9v.45q0 .7-.1 1.35l-.15.7-.15-.1q-.05-.25-.05-.4-.05 0-.15-.15-.05-.15-.15-.15l-.5 2.15q.1 0 .1.25t.05.3l-.05.05q-.5-.4-.65-.55-.3-.35-.55-1.25-.3.25-.55 1.7l-.15.05q-.5-.9-.65-2.1 0-.3-.05-.6-.85-.05-1.8-.35-1.95-.55-2.75-2.55m11.65-11.4h-.1q-.1.6-.25 1.3-.2.65-.4 1.15 0 .1.05.4 0 .9-.05 1.7l-.2.8-.15-.1q-.1-.3-.15-.5-.05 0-.15-.15-.05-.1-.15-.1l-.6 2.4q.05.05.1.35 0 .35.1.35l-.15.15q-.5-.5-.7-.75-.3-.4-.7-1.45-.3.25-.7 1.95l-.15.1q-.6-1.05-.7-2.55-.1-.3-.15-.65-.95-.05-2.05-.35-2.4-.7-3.35-3.2-.15-.35-.25-.7-.3.65-.5 1.45-.75 2.65.6 5 .6 1 1.35 1.75 1 .95 2.4 1.3 1.85.55 3.55-.1.55-.1 1.2-.55 2.25-1.35 2.9-3.95.65-2.7-.65-5.05m-4.65-7.2q-2.4-.7-3.3-3.25-.15-.35-.3-.8-.3.75-.55 1.6-.75 2.65.6 5.05.5.85 1.15 1.5 1.05 1.2 2.75 1.7t3.35 0q.75-.2 1.45-.7 2.35-1.4 3-4.1.7-2.7-.65-5.15h-.05l-.3 1.4q-.15.55-.45 1.05.1.2.1.5 0 .9-.1 1.75l-.2.8h-.15q-.05-.45-.05-.65-.15 0-.2-.15-.1-.05-.15-.1l-.65 2.5q.1.1.15.4 0 .25.05.35l-.05.05q-.65-.5-.8-.7-.35-.45-.75-1.5-.3.3-.7 2.05l-.15.1q-.55-1.1-.7-2.65-.1-.35-.15-.6-1-.1-2.2-.45m1.7-10.9q0-.35-.05-.7-1.1-.05-2.3-.4-2.65-.75-3.65-3.5-.15-.4-.3-.85-.35.8-.55 1.65-.7 2.9.6 5.5 1.15 2 2.95 2.85.6.35 1.3.55 2.7.8 5.2-.7.05-.1.2-.15 2.25-1.55 2.95-4.25.75-2.95-.7-5.5l-.15-.1q-.05.75-.25 1.45-.15.7-.45 1.2 0 .25.1.55 0 .9-.15 1.9l-.15.8-.15-.1q-.15-.25-.15-.55-.05 0-.1-.15-.15-.15-.25-.15l-.7 2.7q.15 0 .15.35t.15.45l-.15.05q-.65-.55-.85-.75-.35-.45-.8-1.65-.25.35-.75 2.25l-.15.1q-.55-1.2-.85-2.85m-10.4-17.05q-.2 1-.2 2.05 0 3.6 2.4 6.1 1.25 1.4 2.9 2.1 1.35.45 2.8.45 3.15 0 5.35-2.15.2-.1.4-.4 2.4-2.5 2.4-6.1 0-3.6-2.4-6.15l-.15.05q.15.8.15 1.8 0 .75-.2 1.5.15.25.2.55.3 1.15.5 2.2v1.05h-.2q-.15-.45-.3-.65-.15 0-.3-.15-.1-.1-.2-.1v3.3q.1 0 .2.45.15.35.3.35l-.15.2q-.85-.45-1.2-.65-.5-.35-1.35-1.6-.2.55-.2 2.8l-.15.15q-1.05-1.15-1.75-2.95-.15-.45-.35-.8-1.2.3-2.75.3-3.25 0-5.2-2.75-.35-.5-.55-.95m10.7-17.4l-.25.05q.15 1 .15 2.05 0 .95-.2 1.8.05.3.2.7.45 1.2.5 2.5v1.2h-.05q-.3-.5-.45-.8-.15 0-.25-.15h-.3v3.75q.05 0 .3.5.1.45.25.45l-.15.2q-.95-.55-1.4-.8-.3-.2-.7-.6-.35-.5-.85-1.25-.15.3-.2 1.25-.1.75-.1 2.05l-.1.2q-.75-.95-1.35-2-.45-.7-.75-1.5-.2-.45-.4-.8-1.35.2-3.2.2-3.65 0-5.95-3.2-.1-.15-.2-.35v5.45q.1.35.2.65.75 1.4 1.85 2.65 1.35 1.45 3 2.2 1.7.7 3.65.7 1.8 0 3.35-.55h.05q.65-.3 1.35-.7.3-.2.55-.35.75-.55 1.3-1.2.05 0 .15-.1.05-.1.15-.2.8-.9 1.4-1.9 1.1-2.25 1.1-4.95 0-4.2-2.65-7.15M169.1 197l-.15-.2q1.1-1.55 1.85-2.7-1-.1-1.9-.35-.55.6-1.2 1.15-1.85 1.7-5.75 6.85 1.8-3.95 4.7-8.55-5.7-1.75-5.7-5.1 0-1.6.3-3.4-.4.35-2.8 6.25-2.35 5.8-3.55 13.85-1.05 7.95-.85 13 .25 7.85 5.3 16.1 1.05 1.8 7.15 3.6 1.95 5.3 5.85 5.3 3.05-.1 4.95-2.9 1.5-2.25 1.5-4.6 0-1.85-1.2-3.7-1.35-1.8-2.9-1.8-.35 0-1.55.35v.25h.65q1.45 0 1.9.3.65.5.65 2.2 0 1.4-.95 2.9-1.25 1.9-3.2 1.9-3.65 0-5.05-4.15-1-2.55-1-6.55.2-2.05.25-3.4.1-.7.1-1.2 0-.1-.1-.35 1.2-1.4 2.2-2.1 1-.7 4.45-3.9 1.3-1.25 3-2.75.5-.55 1.05-1 6.3-6 8.15-7.3l.2-.2q2.55-1.55 6.5-4.25 3.9-2.75 7.25-4.4 3.3-1.55 6.35-3.85 3.1-2.2 4.9-4.4 2.15 4.1 6.9 9.25 3.2 3.55 5.2 6.3 1.1 1.55 1.95 2.9 2.55 4.4 4.05 6.95l.05.05h.1l-.1.1q1.2 2.25 1.8 3.15.5.95.85 1.85.1.45.35.8.05 1.9.25 5.2 0 2.2-.4 4.4-.5 2.35-1.5 4.7-2.2 5.05-5.25 5.05-1.75 0-2.65-1.25-.95-1.2-.95-3.35 0-1.4.3-2.05.55-1.25 2.4-1.25.45 0 .8.2.25.3.6.45v2.55q-.15 0-.5.05-.25.05-.45-.05h-.3q.7.7.85.75.2.15.4.15.85 0 1.3-.9.25-.75.25-1.65 0-1.2-1.25-2.2-1.2-.9-2.55-.9-1.85 0-3.45 1.9-1.55 1.85-1.55 3.75 0 2.5 2.15 4.45 2.15 1.9 4.6 1.9 1.3 0 1.85-.2h.1q-1 1.05-2.05 2.35-.6.5-1.15 1.1-.55.6-1.2 1.2v.15h-.15q-.65.65-1.4 1.35-.95.8-1.65 1.4v5.7q2.25 1 4.95 1 1.55 0 3.05-.4.3-.05.5-.1.65-.25 1.25-.5.65-.3 1.3-.7.55-.4 1.15-.8.55-.45 1.05-.9.2-.25.35-.45.75-.75 1.25-1.6 2.35-3.3 2.35-7.65 0-1.5-.2-2.85 2.4-2.6 4.6-5.7 2.95-4.35 4.45-10.05 1.35-5.8 1.75-12.45.45-6.65-1.8-13.8-.4-.95-.6-1.85-.4 2.25-1.7 3.3-1.7 1.45-5.6 1.45-8.75 0-16.9-5.25-9.05-5.8-8.4-12.9-9.55 6.6-17.2 9.5-6.8 2.6-14.1 3.1-1.9 1.35-4.65 3.4-4.9 3.5-5.6 4.05 2.7-3.25 4.95-6.3.5-.65.85-1.15-1.6 0-3.25-.2-1.2.85-3.75 2.6m57.2 50.4q-.45-.8-.8-1.7 3.2-.5 6.35-2.75v4.35q.25 0 .35.6.25.55.35.55l-.1.35q-1.35-.7-1.8-1.05-.05 0-.15-.05-.75-.6-1.9-2.35-.25.5-.35 1.95-.05 1-.05 2.35l-.15.2q-1-1.05-1.75-2.45m6.25-4.75q-.05 0-.2-.05.5-.45.95-.8.05.05.05.2v1.65h-.3q-.25-.65-.5-1z"/><path fill="#FFF" d="M231 313.2q-.05.2-.1 1.35 0 .9-.15 1.35h.05l-.05.1v-.1q-.35-.6-.45-.8-.2-.4-.35-1l-.15.8q-.05.05.25 2.1.05.3.05.6.15 1.2.65 2.1l.15-.05q.25-1.45.55-1.7.25.9.55 1.25.15.15.65.55l.05-.05q-.05-.05-.05-.3t-.1-.25l.5-2.15q.1 0 .15.15.1.15.15.15 0 .15.05.4l.15.1.15-.7q.1-.65.1-1.35v-.45q-.1-.35-.1-.6l-.2.1q-.35-.6-.5-1.05-.35-.55-.65-.7l-.05.2q.05.6 0 1.55 0 .6-.1.95v.15q.002.05.1.05l-.1.15v-.2q-.05-.1-.05-.15 0-.45-1.15-2.55m3.7-10.75l-.05.15q.2.7.05 1.8-.05.75-.05 1.15-.1.15-.1.3h.1l-.1.2v-.2q-.05-.15 0-.3-.05-.4-1.4-3.05-.15.3-.15 1.7-.05 1.05-.15 1.55h.1l-.1.1v-.1q-.5-.6-.65-1-.1-.4-.35-1.1l-.2 1q0 .05.3 2.45.05.35.15.65.1 1.5.7 2.55l.15-.1q.4-1.7.7-1.95.4 1.05.7 1.45.2.25.7.75l.15-.15q-.1 0-.1-.35-.05-.3-.1-.35l.6-2.4q.1 0 .15.1.1.15.15.15.05.2.15.5l.15.1.2-.8q.05-.8.05-1.7-.05-.3-.05-.4 0-.45-.15-.8l-.15.05q-.35-.7-.65-1.1-.4-.8-.75-.85m2.85-11.4l-.1.2q.15.8 0 1.9 0 .75-.05 1.15v.2q-.1-.05-.1-.25-.05-.35-1.4-3-.15.2-.15 1.65-.05 1.1-.15 1.6h.1l-.1.15v-.15q-.4-.6-.6-1-.25-.4-.35-1.1l-.25.9q0 .1.3 2.65.05.25.15.6.15 1.55.7 2.65l.15-.1q.4-1.75.7-2.05.4 1.05.75 1.5.15.2.8.7l.05-.05q-.05-.1-.05-.35-.05-.3-.15-.4l.65-2.5q.05.05.15.1.05.15.2.15 0 .2.05.65h.15l.2-.8q.1-.85.1-1.75 0-.3-.1-.5 0-.4-.05-.75l-.2.1q-.35-.7-.55-1.2-.45-.7-.85-.9m-.4-12.3v.2q.1.8 0 2.05-.1.8-.1 1.2v.35l-.1.15q0-.05.1-.3-.1-.05-.1-.2-.05-.5-1.55-3.3-.15.25-.15 1.8 0 1.2-.05 1.7-.55-.7-.7-1.05-.3-.5-.45-1.25l-.25 1.05q.05.05.35 2.75.05.35.05.7.3 1.65.85 2.85l.15-.1q.5-1.9.75-2.25.45 1.2.8 1.65.2.2.85.75l.15-.05q-.15-.1-.15-.45t-.15-.35l.7-2.7q.1 0 .25.15.05.15.1.15 0 .3.15.55l.15.1.15-.8q.15-1 .15-1.9-.1-.3-.1-.55 0-.45-.15-.8l-.1.15q-.45-.8-.75-1.25-.4-.85-.85-1m-4.85-7.8q.2.35.35.8.7 1.8 1.75 2.95l.15-.15q0-2.25.2-2.8.85 1.25 1.35 1.6.35.2 1.2.65l.15-.2q-.15 0-.3-.35-.1-.45-.2-.45v-3.3q.1 0 .2.1.15.15.3.15.15.2.3.65h.2v-1.05q-.2-1.05-.5-2.2-.05-.3-.2-.55-.15-.5-.35-.95l-.2.2q-.65-.75-1.1-1.2-.55-.55-.95-.7-.1.1-.15.2-.1.1-.15.1.35.85.55 2.1.15.95.2 1.5.1.15.1.3l.05.05v.2l-.05-.25q-.15-.15-.15-.3-.15-.4-2-2.4-.25.15-.55.35 0 .4.15.9.35 1.35.4 2-.85-.65-1.1-1-.45-.4-.8-1.2h-.05v1.15q.05.15 1.2 3.1m1.5-17.95l-.25.2q-.75-.85-1.25-1.4-.5.45-1.05.9.1.5.2 1.15.2 1.05.25 1.6.1.2.1.35.003.1.05.1v.35q-.05-.098-.05-.45-.15-.15-.15-.35-.15-.35-1.55-1.95-.65.4-1.3.7.4 1.6.5 2.25-.9-.7-1.25-1.05-.2-.35-.5-.7-.2.05-.5.1v.45q.1.15 1.35 3.7.2.35.4.8.3.8.75 1.5.6 1.05 1.35 2l.1-.2q0-1.3.1-2.05.05-.95.2-1.25.5.75.85 1.25.4.4.7.6.45.25 1.4.8l.15-.2q-.15 0-.25-.45-.25-.5-.3-.5v-3.9q.05 0 .3.15.1.15.25.15.15.3.45.8h.05v-1.2q-.05-1.3-.5-2.5-.15-.4-.2-.7-.2-.65-.4-1.05m-1.45-10.4q.15.05.2.05.25.35.5 1h.3V242q0-.15-.05-.2-.45.35-.95.8m-6.85 3.1q.35.9.8 1.7.75 1.4 1.75 2.45l.15-.2q0-1.35.05-2.35.1-1.45.35-1.95 1.15 1.75 1.9 2.35.1.05.15.05.45.35 1.8 1.05l.1-.35q-.1 0-.35-.55-.1-.6-.35-.6v-4.35q-3.15 2.25-6.35 2.75m-47.7-65.25q0 .15-.05.15h-.3l.3-.3q2.55-3.35 4.15-5.7l-.15-.2q-4.65 3.75-10.6 12-2.55 3.6-4.5 6.8-2.9 4.6-4.7 8.55 3.9-5.15 5.75-6.85.65-.55 1.2-1.15 1.4-1 3.3-2.05-.4.7-1.4 2.4-.75 1.15-1.85 2.7l.15.2q2.55-1.75 3.75-2.6.65-.35.85-.5 1.15-.65 4.55-2.2l-.3.3q-.55 1-1.85 2.6-.35.5-.85 1.15-2.25 3.05-4.95 6.3.7-.55 5.6-4.05 2.75-2.05 4.65-3.4 1.95-1.35 6.3-4.35 4.5-3 5.95-4.9 1.55-1.85 2.5-2.55 1-1.55 2.05-3.45 1.55-2.8 4.65-8.6-1.6 1.6-3.6 4-2.5 2.95-3.1 3.6-3.4 3.65-7.7 5.1v-.3q1.6-1.75 6.9-9.85-2.95 1.1-7.4 5.7-5.95 6.15-8.85 8.2 1.05-2.15 4-6.75 1.6-2.3 3.4-4.95-1.9 1.3-3.9 2.55-3 2.15-3.95 2.4m-5 10.9q-.2.1-.5.35.2-.25.3-.35h.2m50.85-20.85q1.35.4 2.05 1.1-2.25-3.15-3.3-4.3-1.65-1.7-3.55-1.7-.45 0-2.4 5.5-2.05 5.6-2.5 6.55l.25.05q.25 0 .4.15.05.5 1.5 2.45 1.55 2.2 2.4 2.85v-2.55q-.45-.3-.65-1.55-.2-1.3-.35-1.4h.2q.65.1 1.1.35.25.15.75.4h1.3q-.3-.4-.8-1.6-.4-1.5-1.25-2.8 3.25 1.65 5.2 3.55 1.05.95 1.9 2V179q-.25-.95-2.4-4.75-1.75-3.15-2.6-4.45l-.05-.1h.25q.95.3 2.55.8z"/><path fill="#FC6" d="M183.25 254.8v8.45q19.45 12.65 35.8-1.5V253.4q-.25.2-.55.5-16.15 13.45-35.25.9m43.05-41.5q-1.1-.1-2.5-.1-6.1 0-13.5 3.15-2.4 1.05-7.5 5.55 2.6-10.85 7.3-14.7 3.6-2.8 9.8-3.55-2.1-2.65-4.65-5.5-2.35-2.5-5.6-5.95-3.2 2.4-10.75 6.95-5.8 3.6-10.9 7 5.15 2.9 8.5 21.15-7.35-9.9-12.2-11.95-2.9-1.35-5.85-1.85-3.35 2.95-4.6 4.3-.8.85-5 3.4-1.35 1.1-2.45 2.4-.05 1.35-.25 3.4 0 4 1 6.55 1.4 4.15 5.05 4.15 1.95 0 3.2-1.9.95-1.5.95-2.9 0-1.7-.65-2.2-.45-.3-1.9-.3h-.65v-.25q1.2-.35 1.55-.35 1.55 0 2.9 1.8 1.2 1.85 1.2 3.7 0 2.35-1.5 4.6-1.9 2.8-4.95 2.9.8.55 1.65 1.2 3.6 2.45 6.55 4.45 1.35 1 2.7 1.85 4.75 3.1 7.65 4.5 5.4 2.85 9.5 2.85 4.25 0 9.3-2.6 2.8-1.5 5.7-3.6 1.75-1.35 3.65-2.95.7-.6 1.65-1.4.75-.7 1.4-1.35.146-.05.15-.15.65-.6 1.2-1.2.55-.6 1.15-1.1 1.05-1.3 2.05-2.35h-.1q-.55.2-1.85.2-2.45 0-4.6-1.9-2.15-1.95-2.15-4.45 0-1.9 1.55-3.75 1.6-1.9 3.45-1.9 1.35 0 2.55.9 1.25 1 1.25 2.2 0 .9-.25 1.65-.45.9-1.3.9-.2 0-.4-.15-.15-.05-.85-.75h.3q.2.1.45.05.35-.05.5-.05v-2.55q-.35-.15-.6-.45-.35-.2-.8-.2-1.85 0-2.4 1.25-.3.65-.3 2.05 0 2.15.95 3.35.9 1.25 2.65 1.25 3.05 0 5.25-5.05 1-2.35 1.5-4.7-.85-7.7-5.15-15.55m-22.15 19.65v1.55q-1.1 1.5-1.7 2.4-.3.45-.65.8-.8.9-1.5.9-.5 0-1.4-.75-.8-.7-1.75-1.85-1.7-2.25-2.3-2.9-.15-.15-.2-.15v-.55q2 .2 3.4 1.55 1.25 1 2.4 1 1 0 1.75-.5.5-.45 1.5-1.5h.45m1.1 10.7l-.05.15q.7.75 1.05 1.45h.15v-.05l.15-.05v.05q1.7-.4 3.4-1.05-1.7.65-3.4 1.05.2.3.35.55-.3 0-.5.1.05.25.05.55-.05.2-.2.5-.5 1.55-2.9 2.4-2.05.7-3.8.7-1.55 0-3.5-1.2-1.95-1.25-2.1-2.75-.1-.05-.1-.3v-.15q-.25-.05-.6-.2.05-.2.15-.5-1.2-.35-2.45-.75 1.25.4 2.45.75.25 0 .45.1.15-1.2 1.6-2 .2-.15.4-.2 2.2-1 4.55-1.2 1.4-.2 2.65.5l.25.15q.85.35 1.55.95.2.25.4.45m23.3-30.35l.05.15.1-.1h-.1l-.05-.05z"/><path fill="#FDA31C" d="M190.9 254.8q-2.9-1.4-7.65-4.5v4.5q19.1 12.55 35.25-.9.3-.3.55-.5v-4.9q-1.9 1.6-3.65 2.95-2.9 2.1-5.7 3.6-5.05 2.6-9.3 2.6-4.1 0-9.5-2.85m13.25-20.3v-1.55h-.45q-1 1.05-1.5 1.5-.75.5-1.75.5-1.15 0-2.4-1-1.4-1.35-3.4-1.55v.55q.05 0 .2.15.6.65 2.3 2.9.95 1.15 1.75 1.85.9.75 1.4.75.7 0 1.5-.9.35-.35.65-.8.6-.9 1.7-2.4m6.3-46.6q-1.8 2.2-4.9 4.4-3.05 2.3-6.35 3.85-3.35 1.65-7.25 4.4-3.95 2.7-6.5 4.25l-.2.2q-1.85 1.3-8.15 7.3-.55.45-1.05 1-1.7 1.5-3 2.75-3.45 3.2-4.45 3.9-1 .7-2.2 2.1.1.25.1.35 0 .5-.1 1.2 1.1-1.3 2.45-2.4 4.2-2.55 5-3.4 1.25-1.35 4.6-4.3 2.95.5 5.85 1.85 4.85 2.05 12.2 11.95-3.35-18.25-8.5-21.15 5.1-3.4 10.9-7 7.55-4.55 10.75-6.95 3.25 3.45 5.6 5.95 2.55 2.85 4.65 5.5-6.2.75-9.8 3.55-4.7 3.85-7.3 14.7 5.1-4.5 7.5-5.55 7.4-3.15 13.5-3.15 1.4 0 2.5.1 4.3 7.85 5.15 15.55.4-2.2.4-4.4-.2-3.3-.25-5.2-.25-.35-.35-.8-.35-.9-.85-1.85-.6-.9-1.8-3.15l-.05-.15q-1.5-2.55-4.05-6.95-.85-1.35-1.95-2.9-2-2.75-5.2-6.3-4.75-5.15-6.9-9.25z"/><path fill="#F96" d="M206.4 245.85l-.05-.1q-5.9 1.35-12.5-.35v.35q0 .25.1.3.15 1.5 2.1 2.75 1.95 1.2 3.5 1.2 1.75 0 3.8-.7 2.4-.85 2.9-2.4.15-.3.2-.5 0-.3-.05-.55z"/><path fill="#F63" d="M203.3 242.25l-.25-.15q-1.25-.7-2.65-.5-2.35.2-4.55 1.2-.2.05-.4.2-1.45.8-1.6 2 6.55 1.55 12.4.25-.35-.7-1.05-1.45-.2-.25-.45-.45-.7-.7-1.45-1.1z"/><path fill="#F00" d="M177.75 180.6q.05 0 .05-.15l-.05-.15v.3z"/><path fill="#F40202" d="M220.9 169.8l.2-.1h-.25l.05.1z"/></g><g id="e"><path fill="#F96" d="M177.9 218.95l.1.1V219l-.1-.05z"/><path fill="#C90" d="M184.8 219.2l.25-.25-.3.1q0 .05.05.15m-2.1-3.8q.2.05.35.15l.25-.25q-.3 0-.55-.05l-.05.15m2.35-4l-.05-.05-.25.3.3-.25z"/><path fill="#990" d="M183.3 215.3l-.25.25q.75.5 1.25 1.85.3.75.45 1.65l.3-.1q1.45-1.55 1.45-3.75 0-2.25-1.45-3.8l-.3.25q.5.55.5 1.65 0 .55-.4 1.15-.55.85-1.55.85m0-4.15q.95-.05 1.45.5l.25-.3q-1.45-1.5-3.5-1.5-2.1 0-3.6 1.55-1.45 1.55-1.45 3.8 0 2.2 1.45 3.75l.1.05q.5-3.7 4.05-3.7.35 0 .65.1l.05-.15q-.75-.2-1.1-.95-.3-.55-.3-1.05 0-2.05 1.95-2.1z"/><path fill="#9C0" d="M183.05 215.55q-.15-.1-.35-.15-.3-.1-.65-.1-3.55 0-4.05 3.7v.05q1.45 1.5 3.5 1.5 1.9 0 3.3-1.35-.05-.1-.05-.15-.15-.9-.45-1.65-.5-1.35-1.25-1.85z"/><path fill="#FFF" d="M184.75 211.65q-.5-.55-1.45-.5-1.95.05-1.95 2.1 0 .5.3 1.05.35.75 1.1.95.25.05.55.05 1 0 1.55-.85.4-.6.4-1.15 0-1.1-.5-1.65z"/></g><path fill="#900" d="M223.55 205.2l8-.15-8.4-1-15.85 1.35v1.2l16.25-1.4z" id="f"/><g id="g"><path fill="#C90" d="M219.65 219.2l.25-.25-.3.1q0 .05.05.15m-1.75-3.65l.25-.25q-.3 0-.55-.05l-.05.15q.2.05.35.15m1.95-4.2l-.25.3.3-.25-.05-.05z"/><path fill="#F96" d="M212.85 219l-.1-.05.1.1V219z"/><path fill="#9C0" d="M217.55 215.4q-.3-.1-.65-.1-3.55 0-4.05 3.7v.05q1.45 1.5 3.5 1.5 1.9 0 3.3-1.35-.05-.1-.05-.15-.15-.9-.45-1.65-.5-1.35-1.25-1.85-.15-.1-.35-.15z"/><path fill="#990" d="M219.9 211.4l-.3.25q.5.55.5 1.65 0 .55-.4 1.15-.55.85-1.55.85l-.25.25q.75.5 1.25 1.85.3.75.45 1.65l.3-.1q1.45-1.55 1.45-3.75 0-2.25-1.45-3.8m-1.75-.25q.95-.05 1.45.5l.25-.3q-1.45-1.5-3.5-1.5-2.1 0-3.6 1.55-1.45 1.55-1.45 3.8 0 2.2 1.45 3.75l.1.05q.5-3.7 4.05-3.7.35 0 .65.1l.05-.15q-.75-.2-1.1-.95-.3-.55-.3-1.05 0-2.05 1.95-2.1z"/><path fill="#FFF" d="M219.6 211.65q-.5-.55-1.45-.5-1.95.05-1.95 2.1 0 .5.3 1.05.35.75 1.1.95.25.05.55.05 1 0 1.55-.85.4-.6.4-1.15 0-1.1-.5-1.65z"/></g><path fill="#900" d="M167.7 205.6l8 .15 16.25 1.4v-1.2l-15.85-1.35-8.4 1z" id="h"/><path id="d" stroke="#F03" stroke-linejoin="round" stroke-linecap="round" fill="none" d="M206.25 245.25h.15l.025-.025m.125-.025q1.7-.4 3.4-1.05m-19 0q1.25.4 2.45.75m13.025.325q.056-.025.125-.025m-13.15-.3q.25 0 .45.1 6.55 1.55 12.4.25"/></defs><use xlink:href="#a" transform="translate(-87 -156.2)"/><use xlink:href="#b" transform="translate(-87 -156.2)"/><g transform="translate(-87 -156.2)"><use xlink:href="#c"/><use xlink:href="#d"/></g><use xlink:href="#e" transform="translate(-87 -156.2)"/><use xlink:href="#f" transform="translate(-87 -156.2)"/><use xlink:href="#g" transform="translate(-87 -156.2)"/><use xlink:href="#h" transform="translate(-87 -156.2)"/></svg>