
<svg xmlns="http://www.w3.org/2000/svg" version="1.1" xmlns:xlink="http://www.w3.org/1999/xlink" preserveAspectRatio="none" x="0px" y="0px" width="225px" height="215px" viewBox="0 0 225 215">
<defs>
<g id="Layer0_0_MEMBER_0_FILL">
<path fill="#CCCCCC" stroke="none" d="
M 95.2 204.05
Q 85.25 263.85 87.8 296.75 90.35 329.6 122.75 350.05 155.25 370.5 201.15 370.5 247.1 370.5 279.5 350.05 312 329.6 312 300.65 312 271.7 291.75 233.15 271.5 194.6 188.35 169.45 105.2 144.3 95.2 204.05 Z"/>
</g>

<g id="Layer0_0_MEMBER_1_FILL">
<path fill="#FFCC66" stroke="none" d="
M 267.25 330.7
Q 264.5 330.7 254.7 330.75 249.2 342.75 244.2 351.05 242.45 355.15 242.05 365.5 252.2 363.1 262.6 359.7 263.35 355.05 264 351.05 266.05 338.6 267.25 330.7
M 171.4 263.95
Q 168.65 278.3 168.25 292.4 197.5 299.7 233.95 292.3 234.1 277.65 229.7 262.95 217.45 258.5 205.9 258.65 185.1 258.75 171.6 263.9 171.45 263.9 171.4 263.95
M 139.5 330.1
Q 135.05 329.85 133.55 329.55 134.2 337.8 135.35 351.2 135.6 354.1 135.95 357.3 143.55 360.65 151.45 363.15 149.7 356.2 146.85 349.5 139.5 335.4 139.5 333.15
L 139.5 330.1 Z"/>

<path fill="#663366" stroke="none" d="
M 256.1 317.85
Q 252.15 313.2 250.2 311.45 250.5 313.85 251.35 318.95 252.1 323.5 252.5 326.75 252.8 325.35 253.1 324.05 256.7 323.85 260.3 322.85 258.65 321 256.1 317.85
M 148.75 330.45
Q 150.6 334.95 153.7 339.7 157.7 345.8 159.05 348.95 159.3 349.35 159.55 349.9 159.8 350.75 160.15 351.6 163.8 355.95 180.45 352.3 196.6 348.55 200.75 343.95
L 198.7 343.95
Q 199.8 343.8 200.85 343.8 200.85 343.75 200.95 343.8 207.3 345.05 215.9 349.15 224.4 353.3 228.05 354.3 231.65 355.3 236.4 355.3 237.75 355.3 238.75 355.3 239.05 354.05 239.5 352.7 239.85 351.65 240.25 350.65 241.7 347.55 245.65 341.45 249.25 335.95 251.3 330.75 234.4 337 226.1 335.5 217.8 333.85 215.1 333 212.9 332.25 205.95 330.8 204.55 331.55 202.85 331.55 201.1 331.55 199.8 330.95 193.2 332.3 179.85 334.95 164.15 338 148.75 330.45
M 150.95 310.95
Q 148.3 313.55 145 317.45 141.6 321.3 138.8 324.25 141.25 325.5 143.5 326 145.25 326.45 147.35 326.55 147.6 327.3 147.9 328.1
L 148.3 328
Q 148.3 327.4 148.05 325.95 147.75 324.45 147.75 323.8 147.75 318.95 148.3 316.25 149.05 312.95 150.95 310.95 Z"/>

<path fill="#FDA31C" stroke="none" d="
M 239.5 352.7
L 239.5 366
Q 240.75 365.75 242.05 365.5 242.45 355.15 244.2 351.05 249.2 342.75 254.7 330.75 264.5 330.7 267.25 330.7 268.65 322.15 269.15 318.65 268.35 319.2 267.6 319.6 264 321.65 260.3 322.85 256.7 323.85 253.1 324.05 252.8 325.35 252.5 326.75 251.95 328.7 251.3 330.75 249.25 335.95 245.65 341.45 241.7 347.55 240.25 350.65 239.85 351.65 239.5 352.7
M 133.55 329.55
Q 135.05 329.85 139.5 330.1
L 139.5 333.15
Q 139.5 335.4 146.85 349.5 149.7 356.2 151.45 363.15 154.65 364.15 157.85 365.05 158.3 355.8 158.65 352.15 158.8 350.65 159.55 349.9 159.3 349.35 159.05 348.95 157.7 345.8 153.7 339.7 150.6 334.95 148.75 330.45 148.25 329.25 147.9 328.1 147.6 327.3 147.35 326.55 145.25 326.45 143.5 326 141.25 325.5 138.8 324.25 135.95 322.9 132.75 320.55 133.05 323.6 133.5 329.05 133.5 329.25 133.55 329.55 Z"/>

<path fill="#000000" stroke="none" d="
M 168.25 292.4
Q 168.65 278.3 171.4 263.95 168.1 265.1 165 266.65 161.35 283.3 160.95 299.55 196.55 308.5 241.05 299.55 241.55 282.6 236.25 265.65 232.95 264.1 229.7 262.95 234.1 277.65 233.95 292.3 197.5 299.7 168.25 292.4 Z"/>

<path fill="#8C478D" stroke="none" d="
M 160.15 351.6
Q 161.55 356.05 161.55 361 161.55 363.5 161.3 365.95 197.5 374.85 237.95 366.4 237.8 364.55 237.8 362.75 237.8 358.9 238.75 355.3 237.75 355.3 236.4 355.3 231.65 355.3 228.05 354.3 224.4 353.3 215.9 349.15 207.3 345.05 200.95 343.8
L 200.95 343.95 200.75 343.95
Q 196.6 348.55 180.45 352.3 163.8 355.95 160.15 351.6 Z"/>

<path fill="#AA55AA" stroke="none" d="
M 145.4 278.95
Q 141 282.45 138.5 285.7 138.05 286.15 137.75 286.7 137.4 287.1 137.2 287.6 136.75 288.25 136.45 288.95 134.55 299.55 133.5 306.8 132.55 314.1 132.45 316.4 132.45 317 132.75 320.55 135.95 322.9 138.8 324.25 141.6 321.3 145 317.45 148.3 313.55 150.95 310.95 149.05 312.95 148.3 316.25 147.75 318.95 147.75 323.8 147.75 324.45 148.05 325.95 148.3 327.4 148.3 328
L 147.9 328.1
Q 148.25 329.25 148.75 330.45 164.15 338 179.85 334.95 193.2 332.3 199.8 330.95 201.1 331.55 202.85 331.55 204.55 331.55 205.95 330.8 212.9 332.25 215.1 333 217.8 333.85 226.1 335.5 234.4 337 251.3 330.75 251.95 328.7 252.5 326.75 252.1 323.5 251.35 318.95 250.5 313.85 250.2 311.45 252.15 313.2 256.1 317.85 258.65 321 260.3 322.85 264 321.65 267.6 319.6 268.35 319.2 269.15 318.65 269.35 316.8 269.45 316.5 269.6 314.15 269.15 306.85 268.65 299.6 265.25 287.65 265.65 287.25 265.85 287.05 265.5 286.65 265.25 286.1 261.3 280.1 249.45 272.7 242.75 268.55 236.25 265.65 241.55 282.6 241.05 299.55 196.55 308.5 160.95 299.55 161.35 283.3 165 266.65 154.85 271.35 145.4 278.95 Z"/>
</g>

<g id="Layer0_0_MEMBER_1_MEMBER_0_FILL">
<path fill="#FF6600" stroke="none" d="
M 234.25 313.2
Q 234.25 313.25 234.25 313.35
L 234.4 313.35
Q 234.35 313.25 234.25 313.2
M 237.05 302.5
Q 237.05 302.65 237.05 302.7
L 237.15 302.7
Q 237.15 302.65 237.05 302.5
M 240 291.35
L 239.95 291.2
Q 239.95 291.25 239.95 291.35
L 240 291.35
M 239.85 279.1
Q 239.800390625 278.951171875 239.8 278.9 239.79921875 278.950390625 239.7 279
L 239.85 279.1
M 237.3 263.3
Q 237.3 263.4 237.3 263.5
L 237.45 263.45
Q 237.4 263.4 237.3 263.3
M 233.85 257.5
L 234.15 257.5
Q 233.9 257.35 233.85 257.35
L 233.85 257.5
M 234.5 250.15
Q 234.35 250.1 234.25 250 234.25 250.1 234.25 250.2
L 234.5 250.15
M 222.1 245.75
L 222.25 245.75 222.25 245.6
Q 222.246484375 245.701171875 222.1 245.75 Z"/>

<path fill="#E30202" stroke="none" d="
M 231.5 321.35
Q 230.1 321.8 228.55 321.4 227.25 321.05 226.35 320.2 225.15 324 227.35 325.3 228.4 326 229.75 325.5 231.1 325.1 232 323.5 232.1 322.9 231.95 322.25 231.8 321.75 231.5 321.35
M 230.9 314.55
Q 230.95 313.4 231 313.2 232.15 315.3 232.15 315.75 232.15 315.8 232.2 315.9 232.2 315.8 232.2 315.75 232.3 315.4 232.3 314.8 232.35 313.85 232.3 313.25
L 232.35 313.05
Q 232.65 313.2 233 313.75 233.15 314.2 233.5 314.8
L 233.7 314.7
Q 233.7 314.95 233.8 315.3 233.9 314.95 234.05 314.4 234.2 313.85 234.25 313.35 234.25 313.25 234.25 313.2 234.05 312.7 233.7 312.25 232 312.9 230.15 312.35 228.75 312 227.75 311.05 227.5 311.15 227.25 311.3 226 312.15 225.3 313.4 225.45 313.75 225.5 314.1 226.3 316.1 228.25 316.65 229.2 316.95 230.05 317 229.75 314.95 229.8 314.9
L 229.95 314.1
Q 230.1 314.7 230.3 315.1 230.4 315.3 230.75 315.9 230.9 315.45 230.9 314.55
M 234.65 302.6
L 234.7 302.45
Q 235.05 302.5 235.45 303.3 235.75 303.7 236.1 304.4
L 236.25 304.35
Q 236.4 304.7 236.4 305.15 236.6 304.65 236.8 304 236.95 303.3 237.05 302.7 237.05 302.65 237.05 302.5 236.7 301.85 236.2 301.3 234.55 301.8 232.85 301.3 231.15 300.8 230.1 299.6 229.4 299.9 228.7 300.3 227.15 301.25 226.3 302.85 226.4 303.2 226.55 303.55 227.5 306.05 229.9 306.75 231 307.05 231.95 307.1 231.65 304.7 231.65 304.65
L 231.85 303.65
Q 232.1 304.35 232.2 304.75 232.35 305.15 232.85 305.75 232.95 305.25 233 304.2 233 302.8 233.15 302.5 234.5 305.15 234.55 305.55
L 234.65 305.55
Q 234.65 305.15 234.7 304.4 234.85 303.3 234.65 302.6
M 232.2 289.7
Q 231.5 289.5 230.9 289.15 229.6 290.15 228.9 291.45 229.05 291.9 229.2 292.25 230.1 294.8 232.5 295.5 233.7 295.85 234.7 295.95 234.4 293.4 234.4 293.3
L 234.65 292.4
Q 234.75 293.1 235 293.5 235.2 293.9 235.6 294.5 235.7 294 235.75 292.9 235.75 291.45 235.9 291.25 237.25 293.9 237.3 294.25
L 237.4 294.3
Q 237.45 293.9 237.45 293.15 237.6 292.05 237.45 291.25
L 237.55 291.05
Q 237.95 291.25 238.4 291.95 238.6 292.45 238.95 293.15
L 239.15 293.05
Q 239.2 293.4 239.2 293.8 239.5 293.3 239.65 292.75 239.8 292.05 239.95 291.35 239.95 291.25 239.95 291.2 239 289.65 237.6 288.85 237.45 288.9 237.4 289 234.9 290.5 232.2 289.7
M 237.15 276.2
Q 237.1 276.2 237.05 276.1 234.85 278.25 231.7 278.25 230.25 278.25 228.9 277.8 228.35 278.4 227.9 279.15 228.05 279.6 228.2 280 229.2 282.75 231.85 283.5 233.05 283.85 234.15 283.9 233.85 281.2 233.8 281.15
L 234.05 280.1
Q 234.2 280.85 234.5 281.35 234.65 281.7 235.2 282.4 235.25 281.9 235.25 280.7 235.25 279.15 235.4 278.9 236.9 281.7 236.95 282.2
L 237.05 282.2
Q 237.05 281.8 237.15 281 237.25 279.75 237.15 278.95
L 237.15 278.75
Q 237.6 278.9 238 279.75 238.3 280.2 238.75 281
L 238.85 280.85
Q 239 281.2 239 281.65 239.3 281.15 239.45 280.45 239.65 279.75 239.7 279 239.79921875 278.950390625 239.8 278.9 238.8 277.1 237.15 276.2
M 237.45 265.3
Q 237.45 264.3 237.3 263.5 237.3 263.4 237.3 263.3 236.7 262.65 236.05 262.25 235.45 263.25 234.65 264.15 235.05 264.3 235.6 264.85 236.05 265.3 236.7 266.05
L 236.9 265.85
Q 237.1 266.3 237.25 266.8 237.45 266.05 237.45 265.3
M 234.35 264.45
Q 233.8 265.1 233.05 265.65 234.9 267.65 235.05 268.05
L 235.1 268.05
Q 235.05 267.5 234.9 266.55 234.7 265.3 234.35 264.45
M 231.15 266.7
Q 231.5 267.5 231.95 267.9 232.2 268.25 233.05 268.9 233 268.25 232.65 266.9 232.5 266.4 232.5 266 231.8 266.4 231.15 266.7
M 224.1 266.55
Q 223.95 267.05 223.8 267.55 224 268 224.35 268.5 226.3 271.25 229.55 271.25 231.1 271.25 232.3 270.95 231.15 268 231.1 267.85
L 231.1 266.7
Q 229.55 267.25 227.75 267.25 225.8 267.25 224.1 266.55
M 228.05 255.4
Q 228.4 255.75 229.3 256.45 229.2 255.8 228.8 254.2 228.2 254.45 227.55 254.7 227.85 255.05 228.05 255.4
M 227.05 254.8
Q 225.55 255.2 224 255.2 221.3 255.2 219.05 254.2
L 219.05 255.6
Q 219.15 255.8 219.25 255.95 221.55 259.15 225.2 259.15 227.05 259.15 228.4 258.95 227.15 255.4 227.05 255.25
L 227.05 254.8
M 231.25 252.7
Q 230.65 253.1 230.1 253.5 231.5 255.1 231.65 255.45
L 231.7 255.45
Q 231.65 254.9 231.45 253.85 231.35 253.2 231.25 252.7
M 234.25 250
L 233.9 249.75
Q 233.4 250.6 232.65 251.35 232.5 251.55 232.3 251.8 232.8 252.35 233.55 253.2
L 233.8 253
Q 234 253.4 234.2 254.05 234.4 253.2 234.4 252.25 234.4 251.2 234.25 250.2 234.25 250.1 234.25 250
M 198.75 156.2
Q 193.95 156.05 190.5 157.55 189.4 158.05 188.65 158.6 185.9 159.45 181.05 162.3 176.1 165.25 171.3 170.2 166.4 175.15 161.25 184.7 160.95 186.5 160.95 188.1 160.95 191.45 166.65 193.2 168.6 190 171.15 186.4 177.1 178.15 181.75 174.4
L 181.9 174.6
Q 180.3 176.95 177.75 180.3
L 177.8 180.45
Q 178.75 180.2 181.75 178.05 183.75 176.8 185.65 175.5 183.85 178.15 182.25 180.45 179.3 185.05 178.25 187.2 181.15 185.15 187.1 179 191.55 174.4 194.5 173.3 189.2 181.4 187.6 183.15
L 187.6 183.45
Q 191.9 182 195.3 178.35 195.9 177.7 198.4 174.75 200.4 172.35 202 170.75 198.9 176.55 197.35 179.35 196.3 181.25 195.3 182.8 194.35 183.5 192.8 185.35 191.35 187.25 186.85 190.25 182.5 193.25 180.55 194.6 187.85 194.1 194.65 191.5 202.3 188.6 211.85 182 211.2 189.1 220.25 194.9 228.4 200.15 237.15 200.15 241.05 200.15 242.75 198.7 244.05 197.65 244.45 195.4 242.35 189.3 239.45 183.6 236.2 177.15 229.3 170.55 224.8 166.45 222.05 164.85 220.85 163.75 219.05 163.35 213.25 162.15 211.5 160.8 210.1 159.3 207.9 157.95 207.15 157.8 206.45 157.75 203.3 156.2 198.75 156.2
M 225.7 171.6
Q 225 170.9 223.65 170.5 222.05 170 221.1 169.7
L 220.9 169.8
Q 221.75 171.1 223.5 174.25 225.65 178.05 225.9 179
L 225.9 179.55
Q 225.05 178.5 224 177.55 222.05 175.65 218.8 174 219.65 175.3 220.05 176.8 220.55 178 220.85 178.4
L 219.55 178.4
Q 219.05 178.15 218.8 178 218.35 177.75 217.7 177.65
L 217.5 177.65
Q 217.65 177.75 217.85 179.05 218.05 180.3 218.5 180.6
L 218.5 183.15
Q 217.65 182.5 216.1 180.3 214.65 178.35 214.6 177.85 214.45 177.7 214.2 177.7
L 213.95 177.65
Q 214.4 176.7 216.45 171.1 218.4 165.6 218.85 165.6 220.75 165.6 222.4 167.3 223.45 168.45 225.7 171.6 Z"/>

<path fill="#FF9900" stroke="none" d="
M 230.8 315.9
L 230.75 315.9 230.75 316 230.8 315.9
M 232.2 315.9
L 232.2 316.1 232.3 315.95
Q 232.2015625 315.95 232.2 315.9
M 232.85 305.75
L 232.85 305.85 232.95 305.75 232.85 305.75
M 234.55 305.55
Q 234.5 305.7 234.55 305.85 234.55 305.7 234.65 305.55
L 234.55 305.55
M 234.55 306.05
L 234.65 305.85 234.55 305.85
Q 234.55 305.95 234.55 306.05
M 237.4 294.3
L 237.3 294.25
Q 237.3 294.45 237.4 294.5 237.4 294.45 237.4 294.3
M 237.05 282.55
Q 237.05 282.5 237.05 282.4 236.95 282.65 236.95 282.7
L 237.05 282.55
M 237.05 282.2
L 236.95 282.2
Q 236.95 282.35 237.05 282.4 237.05 282.35 237.05 282.2
M 235.25 268.4
L 235.2 268.35 235.25 268.6 235.25 268.4
M 235.1 268.05
L 235.05 268.05
Q 235.05 268.2 235.2 268.35 235.2 268.2 235.1 268.05
M 231.7 255.45
L 231.65 255.45
Q 231.65 255.65 231.8 255.8 231.8 255.65 231.7 255.45
M 231.8 255.8
Q 231.8009765625 256.1517578125 231.85 256.25
L 231.85 255.9
Q 231.803125 255.9 231.8 255.8
M 172.85 194.4
Q 174.5 194.6 176.1 194.6 177.4 193 177.95 192
L 178.25 191.7
Q 174.85 193.25 173.7 193.9 173.5 194.05 172.85 194.4
M 168.9 193.75
Q 169.8 194 170.8 194.1 171.8 192.4 172.2 191.7 170.3 192.75 168.9 193.75
M 177.75 180.6
L 177.75 180.3 177.45 180.6
Q 177.55 180.6 177.75 180.6
M 172.3 191.7
Q 172.6 191.45 172.8 191.35
L 172.6 191.35
Q 172.5 191.45 172.3 191.7 Z"/>

<path fill="#CC0000" stroke="none" d="
M 225.5 314.1
Q 225.45 313.75 225.3 313.4 225 314.05 224.85 314.7 224.3 316.85 225.45 318.85 225.7 319.5 226.15 320 225.45 320.4 225 321.25 224.25 322.75 224.65 324.35 224.65 324.6 224.7 324.7 224.8 325.35 225 326.3 225.35 327.9 224.7 328.95 224.1 330.15 222.8 330.6 221.45 331 220.05 330.4 222.95 332.35 226 331.6 229.1 330.75 230.75 327.7 231.1 327.05 231.6 325.5
L 231.5 325.3
Q 231.7 324.95 231.85 324.6 232 324 232 323.5 231.1 325.1 229.75 325.5 228.4 326 227.35 325.3 225.15 324 226.35 320.2 227.25 321.05 228.55 321.4 230.1 321.8 231.5 321.35 232 321.2 232.5 320.9 234.35 319.7 234.9 317.5 235.45 315.3 234.4 313.35
L 234.25 313.35
Q 234.2 313.85 234.05 314.4 233.9 314.95 233.8 315.3 233.8 315.45 233.8 315.75 233.8 316.45 233.7 317.1
L 233.55 317.8 233.4 317.7
Q 233.35 317.45 233.35 317.3 233.3 317.3 233.2 317.15 233.15 317 233.05 317
L 232.55 319.15
Q 232.65 319.15 232.65 319.4 232.65 319.65 232.7 319.7
L 232.65 319.75
Q 232.15 319.35 232 319.2 231.7 318.85 231.45 317.95 231.15 318.2 230.9 319.65
L 230.75 319.7
Q 230.25 318.8 230.1 317.6 230.1 317.3 230.05 317 229.2 316.95 228.25 316.65 226.3 316.1 225.5 314.1
M 237.15 302.7
L 237.05 302.7
Q 236.95 303.3 236.8 304 236.6 304.65 236.4 305.15 236.4 305.25 236.45 305.55 236.45 306.45 236.4 307.25
L 236.2 308.05 236.05 307.95
Q 235.95 307.65 235.9 307.45 235.85 307.45 235.75 307.3 235.7 307.2 235.6 307.2
L 235 309.6
Q 235.05 309.65 235.1 309.95 235.1 310.3 235.2 310.3
L 235.05 310.45
Q 234.55 309.95 234.35 309.7 234.05 309.3 233.65 308.25 233.35 308.5 232.95 310.2
L 232.8 310.3
Q 232.2 309.25 232.1 307.75 232 307.45 231.95 307.1 231 307.05 229.9 306.75 227.5 306.05 226.55 303.55 226.4 303.2 226.3 302.85 226 303.5 225.8 304.3 225.05 306.95 226.4 309.3 227 310.3 227.75 311.05 228.75 312 230.15 312.35 232 312.9 233.7 312.25 234.25 312.15 234.9 311.7 237.15 310.35 237.8 307.75 238.45 305.05 237.15 302.7
M 232.5 295.5
Q 230.1 294.8 229.2 292.25 229.05 291.9 228.9 291.45 228.6 292.2 228.35 293.05 227.6 295.7 228.95 298.1 229.45 298.95 230.1 299.6 231.15 300.8 232.85 301.3 234.55 301.8 236.2 301.3 236.95 301.1 237.65 300.6 240 299.2 240.65 296.5 241.35 293.8 240 291.35
L 239.95 291.35
Q 239.8 292.05 239.65 292.75 239.5 293.3 239.2 293.8 239.3 294 239.3 294.3 239.3 295.2 239.2 296.05
L 239 296.85 238.85 296.85
Q 238.8 296.4 238.8 296.2 238.65 296.2 238.6 296.05 238.5 296 238.45 295.95
L 237.8 298.45
Q 237.9 298.55 237.95 298.85 237.95 299.1 238 299.2
L 237.95 299.25
Q 237.3 298.75 237.15 298.55 236.8 298.1 236.4 297.05 236.1 297.35 235.7 299.1
L 235.55 299.2
Q 235 298.1 234.85 296.55 234.75 296.2 234.7 295.95 233.7 295.85 232.5 295.5
M 234.2 284.6
Q 234.2 284.25 234.15 283.9 233.05 283.85 231.85 283.5 229.2 282.75 228.2 280 228.05 279.6 227.9 279.15 227.55 279.95 227.35 280.8 226.65 283.7 227.95 286.3 229.1 288.3 230.9 289.15 231.5 289.5 232.2 289.7 234.9 290.5 237.4 289 237.45 288.9 237.6 288.85 239.85 287.3 240.55 284.6 241.3 281.65 239.85 279.1
L 239.7 279
Q 239.65 279.75 239.45 280.45 239.3 281.15 239 281.65 239 281.9 239.1 282.2 239.1 283.1 238.95 284.1
L 238.8 284.9 238.65 284.8
Q 238.5 284.55 238.5 284.25 238.45 284.25 238.4 284.1 238.25 283.95 238.15 283.95
L 237.45 286.65
Q 237.6 286.65 237.6 287 237.6 287.35 237.75 287.45
L 237.6 287.5
Q 236.95 286.95 236.75 286.75 236.4 286.3 235.95 285.1 235.7 285.45 235.2 287.35
L 235.05 287.45
Q 234.5 286.25 234.2 284.6
M 223.8 267.55
Q 223.6 268.55 223.6 269.6 223.6 273.2 226 275.7 227.25 277.1 228.9 277.8 230.25 278.25 231.7 278.25 234.85 278.25 237.05 276.1 237.25 276 237.45 275.7 239.85 273.2 239.85 269.6 239.85 266 237.45 263.45
L 237.3 263.5
Q 237.45 264.3 237.45 265.3 237.45 266.05 237.25 266.8 237.4 267.05 237.45 267.35 237.75 268.5 237.95 269.55
L 237.95 270.6 237.75 270.6
Q 237.6 270.15 237.45 269.95 237.3 269.95 237.15 269.8 237.05 269.7 236.95 269.7
L 236.95 273
Q 237.05 273 237.15 273.45 237.3 273.8 237.45 273.8
L 237.3 274
Q 236.45 273.55 236.1 273.35 235.6 273 234.75 271.75 234.55 272.3 234.55 274.55
L 234.4 274.7
Q 233.35 273.55 232.65 271.75 232.5 271.3 232.3 270.95 231.1 271.25 229.55 271.25 226.3 271.25 224.35 268.5 224 268 223.8 267.55
M 234.5 250.15
L 234.25 250.2
Q 234.4 251.2 234.4 252.25 234.4 253.2 234.2 254.05 234.25 254.35 234.4 254.75 234.85 255.95 234.9 257.25
L 234.9 258.45 234.85 258.45
Q 234.55 257.95 234.4 257.65 234.25 257.65 234.15 257.5
L 233.85 257.5 233.85 261.25
Q 233.9 261.25 234.15 261.75 234.25 262.2 234.4 262.2
L 234.25 262.4
Q 233.3 261.85 232.85 261.6 232.55 261.4 232.15 261 231.8 260.5 231.3 259.75 231.15 260.05 231.1 261 231 261.75 231 263.05
L 230.9 263.25
Q 230.15 262.3 229.55 261.25 229.1 260.55 228.8 259.75 228.6 259.3 228.4 258.95 227.05 259.15 225.2 259.15 221.55 259.15 219.25 255.95 219.15 255.8 219.05 255.6
L 219.05 261.05
Q 219.15 261.4 219.25 261.7 220 263.1 221.1 264.35 222.45 265.8 224.1 266.55 225.8 267.25 227.75 267.25 229.55 267.25 231.1 266.7
L 231.15 266.7
Q 231.8 266.4 232.5 266 232.8 265.8 233.05 265.65 233.8 265.1 234.35 264.45 234.4 264.45 234.5 264.35 234.55 264.25 234.65 264.15 235.45 263.25 236.05 262.25 237.15 260 237.15 257.3 237.15 253.1 234.5 250.15
M 169.1 197
L 168.95 196.8
Q 170.05 195.25 170.8 194.1 169.8 194 168.9 193.75 168.35 194.35 167.7 194.9 165.85 196.6 161.95 201.75 163.75 197.8 166.65 193.2 160.95 191.45 160.95 188.1 160.95 186.5 161.25 184.7 160.85 185.05 158.45 190.95 156.1 196.75 154.9 204.8 153.85 212.75 154.05 217.8 154.3 225.65 159.35 233.9 160.4 235.7 166.5 237.5 168.45 242.8 172.35 242.8 175.4 242.7 177.3 239.9 178.8 237.65 178.8 235.3 178.8 233.45 177.6 231.6 176.25 229.8 174.7 229.8 174.35 229.8 173.15 230.15
L 173.15 230.4
Q 173.45 230.4 173.8 230.4 175.25 230.4 175.7 230.7 176.35 231.2 176.35 232.9 176.35 234.3 175.4 235.8 174.15 237.7 172.2 237.7 168.55 237.7 167.15 233.55 166.15 231 166.15 227 166.35 224.95 166.4 223.6 166.5 222.9 166.5 222.4 166.5 222.3 166.4 222.05 167.6 220.65 168.6 219.95 169.6 219.25 173.05 216.05 174.35 214.8 176.05 213.3 176.55 212.75 177.1 212.3 183.4 206.3 185.25 205 185.4 204.85 185.45 204.8 188 203.25 191.95 200.55 195.85 197.8 199.2 196.15 202.5 194.6 205.55 192.3 208.65 190.1 210.45 187.9 212.6 192 217.35 197.15 220.55 200.7 222.55 203.45 223.65 205 224.5 206.35 227.05 210.75 228.55 213.3
L 228.6 213.35 228.7 213.35 228.6 213.45
Q 229.8 215.7 230.4 216.6 230.9 217.55 231.25 218.45 231.35 218.9 231.6 219.25 231.65 221.15 231.85 224.45 231.85 226.65 231.45 228.85 230.95 231.2 229.95 233.55 227.75 238.6 224.7 238.6 222.95 238.6 222.05 237.35 221.1 236.15 221.1 234 221.1 232.6 221.4 231.95 221.95 230.7 223.8 230.7 224.25 230.7 224.6 230.9 224.85 231.2 225.2 231.35
L 225.2 233.9
Q 225.05 233.9 224.7 233.95 224.45 234 224.25 233.9
L 223.95 233.9
Q 224.65 234.6 224.8 234.65 225 234.8 225.2 234.8 226.05 234.8 226.5 233.9 226.75 233.15 226.75 232.25 226.75 231.05 225.5 230.05 224.3 229.15 222.95 229.15 221.1 229.15 219.5 231.05 217.95 232.9 217.95 234.8 217.95 237.3 220.1 239.25 222.25 241.15 224.7 241.15 226 241.15 226.55 240.95
L 226.65 240.95
Q 225.65 242 224.6 243.3 224 243.8 223.45 244.4 222.9 245 222.25 245.6
L 222.25 245.75 222.1 245.75
Q 221.45 246.4 220.7 247.1 219.75 247.9 219.05 248.5
L 219.05 253.4 219.05 254.2
Q 221.3 255.2 224 255.2 225.55 255.2 227.05 254.8 227.35 254.75 227.55 254.7 228.2 254.45 228.8 254.2 229.45 253.9 230.1 253.5 230.65 253.1 231.25 252.7 231.8 252.25 232.3 251.8 232.5 251.55 232.65 251.35 233.4 250.6 233.9 249.75 236.25 246.45 236.25 242.1 236.25 240.6 236.05 239.25 238.45 236.65 240.65 233.55 243.6 229.2 245.1 223.5 246.45 217.7 246.85 211.05 247.3 204.4 245.05 197.25 244.65 196.3 244.45 195.4 244.05 197.65 242.75 198.7 241.05 200.15 237.15 200.15 228.4 200.15 220.25 194.9 211.2 189.1 211.85 182 202.3 188.6 194.65 191.5 187.85 194.1 180.55 194.6 178.65 195.95 175.9 198 171 201.5 170.3 202.05 173 198.8 175.25 195.75 175.75 195.1 176.1 194.6 174.5 194.6 172.85 194.4 171.65 195.25 169.1 197
M 226.3 247.4
Q 225.85 246.6 225.5 245.7 228.7 245.2 231.85 242.95
L 231.85 247.3
Q 232.1 247.3 232.2 247.9 232.45 248.45 232.55 248.45
L 232.45 248.8
Q 231.1 248.1 230.65 247.75 230.6 247.75 230.5 247.7 229.75 247.1 228.6 245.35 228.35 245.85 228.25 247.3 228.2 248.3 228.2 249.65
L 228.05 249.85
Q 227.05 248.8 226.3 247.4
M 232.55 242.65
Q 232.5 242.65 232.35 242.6 232.85 242.15 233.3 241.8 233.35 241.85 233.35 242
L 233.35 243.65 233.05 243.65
Q 232.8 243 232.55 242.65 Z"/>

<path fill="#FFFFFF" stroke="none" d="
M 231 313.2
Q 230.95 313.4 230.9 314.55 230.9 315.45 230.75 315.9
L 230.8 315.9 230.75 316 230.75 315.9
Q 230.4 315.3 230.3 315.1 230.1 314.7 229.95 314.1
L 229.8 314.9
Q 229.75 314.95 230.05 317 230.1 317.3 230.1 317.6 230.25 318.8 230.75 319.7
L 230.9 319.65
Q 231.15 318.2 231.45 317.95 231.7 318.85 232 319.2 232.15 319.35 232.65 319.75
L 232.7 319.7
Q 232.65 319.65 232.65 319.4 232.65 319.15 232.55 319.15
L 233.05 317
Q 233.15 317 233.2 317.15 233.3 317.3 233.35 317.3 233.35 317.45 233.4 317.7
L 233.55 317.8 233.7 317.1
Q 233.8 316.45 233.8 315.75 233.8 315.45 233.8 315.3 233.7 314.95 233.7 314.7
L 233.5 314.8
Q 233.15 314.2 233 313.75 232.65 313.2 232.35 313.05
L 232.3 313.25
Q 232.35 313.85 232.3 314.8 232.3 315.4 232.2 315.75 232.2 315.8 232.2 315.9 232.2015625 315.95 232.3 315.95
L 232.2 316.1 232.2 315.9
Q 232.15 315.8 232.15 315.75 232.15 315.3 231 313.2
M 234.7 302.45
L 234.65 302.6
Q 234.85 303.3 234.7 304.4 234.65 305.15 234.65 305.55 234.55 305.7 234.55 305.85
L 234.65 305.85 234.55 306.05
Q 234.55 305.95 234.55 305.85 234.5 305.7 234.55 305.55 234.5 305.15 233.15 302.5 233 302.8 233 304.2 232.95 305.25 232.85 305.75
L 232.95 305.75 232.85 305.85 232.85 305.75
Q 232.35 305.15 232.2 304.75 232.1 304.35 231.85 303.65
L 231.65 304.65
Q 231.65 304.7 231.95 307.1 232 307.45 232.1 307.75 232.2 309.25 232.8 310.3
L 232.95 310.2
Q 233.35 308.5 233.65 308.25 234.05 309.3 234.35 309.7 234.55 309.95 235.05 310.45
L 235.2 310.3
Q 235.1 310.3 235.1 309.95 235.05 309.65 235 309.6
L 235.6 307.2
Q 235.7 307.2 235.75 307.3 235.85 307.45 235.9 307.45 235.95 307.65 236.05 307.95
L 236.2 308.05 236.4 307.25
Q 236.45 306.45 236.45 305.55 236.4 305.25 236.4 305.15 236.4 304.7 236.25 304.35
L 236.1 304.4
Q 235.75 303.7 235.45 303.3 235.05 302.5 234.7 302.45
M 237.55 291.05
L 237.45 291.25
Q 237.6 292.05 237.45 293.15 237.45 293.9 237.4 294.3 237.4 294.45 237.4 294.5 237.3 294.45 237.3 294.25 237.25 293.9 235.9 291.25 235.75 291.45 235.75 292.9 235.7 294 235.6 294.5
L 235.7 294.5 235.6 294.65
Q 235.6 294.6 235.6 294.5 235.2 293.9 235 293.5 234.75 293.1 234.65 292.4
L 234.4 293.3
Q 234.4 293.4 234.7 295.95 234.75 296.2 234.85 296.55 235 298.1 235.55 299.2
L 235.7 299.1
Q 236.1 297.35 236.4 297.05 236.8 298.1 237.15 298.55 237.3 298.75 237.95 299.25
L 238 299.2
Q 237.95 299.1 237.95 298.85 237.9 298.55 237.8 298.45
L 238.45 295.95
Q 238.5 296 238.6 296.05 238.65 296.2 238.8 296.2 238.8 296.4 238.85 296.85
L 239 296.85 239.2 296.05
Q 239.3 295.2 239.3 294.3 239.3 294 239.2 293.8 239.2 293.4 239.15 293.05
L 238.95 293.15
Q 238.6 292.45 238.4 291.95 237.95 291.25 237.55 291.05
M 237.15 278.75
L 237.15 278.95
Q 237.25 279.75 237.15 281 237.05 281.8 237.05 282.2 237.05 282.35 237.05 282.4 237.05 282.5 237.05 282.55
L 236.95 282.7
Q 236.95 282.65 237.05 282.4 236.95 282.35 236.95 282.2 236.9 281.7 235.4 278.9 235.25 279.15 235.25 280.7 235.25 281.9 235.2 282.4 234.65 281.7 234.5 281.35 234.2 280.85 234.05 280.1
L 233.8 281.15
Q 233.85 281.2 234.15 283.9 234.2 284.25 234.2 284.6 234.5 286.25 235.05 287.45
L 235.2 287.35
Q 235.7 285.45 235.95 285.1 236.4 286.3 236.75 286.75 236.95 286.95 237.6 287.5
L 237.75 287.45
Q 237.6 287.35 237.6 287 237.6 286.65 237.45 286.65
L 238.15 283.95
Q 238.25 283.95 238.4 284.1 238.45 284.25 238.5 284.25 238.5 284.55 238.65 284.8
L 238.8 284.9 238.95 284.1
Q 239.1 283.1 239.1 282.2 239 281.9 239 281.65 239 281.2 238.85 280.85
L 238.75 281
Q 238.3 280.2 238 279.75 237.6 278.9 237.15 278.75
M 232.3 270.95
Q 232.5 271.3 232.65 271.75 233.35 273.55 234.4 274.7
L 234.55 274.55
Q 234.55 272.3 234.75 271.75 235.6 273 236.1 273.35 236.45 273.55 237.3 274
L 237.45 273.8
Q 237.3 273.8 237.15 273.45 237.05 273 236.95 273
L 236.95 269.7
Q 237.05 269.7 237.15 269.8 237.3 269.95 237.45 269.95 237.6 270.15 237.75 270.6
L 237.95 270.6 237.95 269.55
Q 237.75 268.5 237.45 267.35 237.4 267.05 237.25 266.8 237.1 266.3 236.9 265.85
L 236.7 266.05
Q 236.05 265.3 235.6 264.85 235.05 264.3 234.65 264.15 234.55 264.25 234.5 264.35 234.4 264.45 234.35 264.45 234.7 265.3 234.9 266.55 235.05 267.5 235.1 268.05 235.2 268.2 235.2 268.35
L 235.25 268.4 235.25 268.6 235.2 268.35
Q 235.05 268.2 235.05 268.05 234.9 267.65 233.05 265.65 232.8 265.8 232.5 266 232.5 266.4 232.65 266.9 233 268.25 233.05 268.9 232.2 268.25 231.95 267.9 231.5 267.5 231.15 266.7
L 231.1 266.7 231.1 267.85
Q 231.15 268 232.3 270.95
M 233.8 253
L 233.55 253.2
Q 232.8 252.35 232.3 251.8 231.8 252.25 231.25 252.7 231.35 253.2 231.45 253.85 231.65 254.9 231.7 255.45 231.8 255.65 231.8 255.8 231.803125 255.9 231.85 255.9
L 231.85 256.25
Q 231.8009765625 256.1517578125 231.8 255.8 231.65 255.65 231.65 255.45 231.5 255.1 230.1 253.5 229.45 253.9 228.8 254.2 229.2 255.8 229.3 256.45 228.4 255.75 228.05 255.4 227.85 255.05 227.55 254.7 227.35 254.75 227.05 254.8
L 227.05 255.25
Q 227.15 255.4 228.4 258.95 228.6 259.3 228.8 259.75 229.1 260.55 229.55 261.25 230.15 262.3 230.9 263.25
L 231 263.05
Q 231 261.75 231.1 261 231.15 260.05 231.3 259.75 231.8 260.5 232.15 261 232.55 261.4 232.85 261.6 233.3 261.85 234.25 262.4
L 234.4 262.2
Q 234.25 262.2 234.15 261.75 233.9 261.25 233.85 261.25
L 233.85 257.5 233.85 257.35
Q 233.9 257.35 234.15 257.5 234.25 257.65 234.4 257.65 234.55 257.95 234.85 258.45
L 234.9 258.45 234.9 257.25
Q 234.85 255.95 234.4 254.75 234.25 254.35 234.2 254.05 234 253.4 233.8 253
M 232.35 242.6
Q 232.5 242.65 232.55 242.65 232.8 243 233.05 243.65
L 233.35 243.65 233.35 242
Q 233.35 241.85 233.3 241.8 232.85 242.15 232.35 242.6
M 225.5 245.7
Q 225.85 246.6 226.3 247.4 227.05 248.8 228.05 249.85
L 228.2 249.65
Q 228.2 248.3 228.25 247.3 228.35 245.85 228.6 245.35 229.75 247.1 230.5 247.7 230.6 247.75 230.65 247.75 231.1 248.1 232.45 248.8
L 232.55 248.45
Q 232.45 248.45 232.2 247.9 232.1 247.3 231.85 247.3
L 231.85 242.95
Q 228.7 245.2 225.5 245.7
M 177.8 180.45
Q 177.8 180.6 177.75 180.6 177.55 180.6 177.45 180.6
L 177.75 180.3
Q 180.3 176.95 181.9 174.6
L 181.75 174.4
Q 177.1 178.15 171.15 186.4 168.6 190 166.65 193.2 163.75 197.8 161.95 201.75 165.85 196.6 167.7 194.9 168.35 194.35 168.9 193.75 170.3 192.75 172.2 191.7 171.8 192.4 170.8 194.1 170.05 195.25 168.95 196.8
L 169.1 197
Q 171.65 195.25 172.85 194.4 173.5 194.05 173.7 193.9 174.85 193.25 178.25 191.7
L 177.95 192
Q 177.4 193 176.1 194.6 175.75 195.1 175.25 195.75 173 198.8 170.3 202.05 171 201.5 175.9 198 178.65 195.95 180.55 194.6 182.5 193.25 186.85 190.25 191.35 187.25 192.8 185.35 194.35 183.5 195.3 182.8 196.3 181.25 197.35 179.35 198.9 176.55 202 170.75 200.4 172.35 198.4 174.75 195.9 177.7 195.3 178.35 191.9 182 187.6 183.45
L 187.6 183.15
Q 189.2 181.4 194.5 173.3 191.55 174.4 187.1 179 181.15 185.15 178.25 187.2 179.3 185.05 182.25 180.45 183.85 178.15 185.65 175.5 183.75 176.8 181.75 178.05 178.75 180.2 177.8 180.45
M 172.8 191.35
Q 172.6 191.45 172.3 191.7 172.5 191.45 172.6 191.35
L 172.8 191.35
M 223.65 170.5
Q 225 170.9 225.7 171.6 223.45 168.45 222.4 167.3 220.75 165.6 218.85 165.6 218.4 165.6 216.45 171.1 214.4 176.7 213.95 177.65
L 214.2 177.7
Q 214.45 177.7 214.6 177.85 214.65 178.35 216.1 180.3 217.65 182.5 218.5 183.15
L 218.5 180.6
Q 218.05 180.3 217.85 179.05 217.65 177.75 217.5 177.65
L 217.7 177.65
Q 218.35 177.75 218.8 178 219.05 178.15 219.55 178.4
L 220.85 178.4
Q 220.55 178 220.05 176.8 219.65 175.3 218.8 174 222.05 175.65 224 177.55 225.05 178.5 225.9 179.55
L 225.9 179
Q 225.65 178.05 223.5 174.25 221.75 171.1 220.9 169.8
L 220.85 169.7 221.1 169.7
Q 222.05 170 223.65 170.5 Z"/>

<path fill="#FFCC66" stroke="none" d="
M 183.25 254.8
L 183.25 263.25
Q 202.7 275.9 219.05 261.75
L 219.05 261.05 219.05 255.6 219.05 254.2 219.05 253.4
Q 218.8 253.6 218.5 253.9 202.35 267.35 183.25 254.8
M 226.3 213.3
Q 225.2 213.2 223.8 213.2 217.7 213.2 210.3 216.35 207.9 217.4 202.8 221.9 205.4 211.05 210.1 207.2 213.7 204.4 219.9 203.65 217.8 201 215.25 198.15 212.9 195.65 209.65 192.2 206.45 194.6 198.9 199.15 193.1 202.75 188 206.15 193.15 209.05 196.5 227.3 189.15 217.4 184.3 215.35 181.4 214 178.45 213.5 175.1 216.45 173.85 217.8 173.05 218.65 168.85 221.2 167.5 222.3 166.4 223.6 166.35 224.95 166.15 227 166.15 231 167.15 233.55 168.55 237.7 172.2 237.7 174.15 237.7 175.4 235.8 176.35 234.3 176.35 232.9 176.35 231.2 175.7 230.7 175.25 230.4 173.8 230.4 173.45 230.4 173.15 230.4
L 173.15 230.15
Q 174.35 229.8 174.7 229.8 176.25 229.8 177.6 231.6 178.8 233.45 178.8 235.3 178.8 237.65 177.3 239.9 175.4 242.7 172.35 242.8 173.15 243.35 174 244 177.6 246.45 180.55 248.45 181.9 249.45 183.25 250.3 188 253.4 190.9 254.8 196.3 257.65 200.4 257.65 204.65 257.65 209.7 255.05 212.5 253.55 215.4 251.45 217.15 250.1 219.05 248.5 219.75 247.9 220.7 247.1 221.45 246.4 222.1 245.75 222.246484375 245.701171875 222.25 245.6 222.9 245 223.45 244.4 224 243.8 224.6 243.3 225.65 242 226.65 240.95
L 226.55 240.95
Q 226 241.15 224.7 241.15 222.25 241.15 220.1 239.25 217.95 237.3 217.95 234.8 217.95 232.9 219.5 231.05 221.1 229.15 222.95 229.15 224.3 229.15 225.5 230.05 226.75 231.05 226.75 232.25 226.75 233.15 226.5 233.9 226.05 234.8 225.2 234.8 225 234.8 224.8 234.65 224.65 234.6 223.95 233.9
L 224.25 233.9
Q 224.45 234 224.7 233.95 225.05 233.9 225.2 233.9
L 225.2 231.35
Q 224.85 231.2 224.6 230.9 224.25 230.7 223.8 230.7 221.95 230.7 221.4 231.95 221.1 232.6 221.1 234 221.1 236.15 222.05 237.35 222.95 238.6 224.7 238.6 227.75 238.6 229.95 233.55 230.95 231.2 231.45 228.85 230.6 221.15 226.3 213.3
M 204.15 232.95
L 204.15 234.5
Q 203.05 236 202.45 236.9 202.15 237.35 201.8 237.7 201 238.6 200.3 238.6 199.8 238.6 198.9 237.85 198.1 237.15 197.15 236 195.45 233.75 194.85 233.1 194.7 232.95 194.65 232.95
L 194.65 232.4
Q 196.65 232.6 198.05 233.95 199.3 234.95 200.45 234.95 201.45 234.95 202.2 234.45 202.7 234 203.7 232.95
L 204.15 232.95
M 205.25 243.65
L 205.2 243.8
Q 205.9 244.55 206.25 245.25
L 206.4 245.25 206.4 245.2 206.55 245.15 206.55 245.2
Q 208.25 244.8 209.95 244.15 208.25 244.8 206.55 245.2 206.75 245.5 206.9 245.75 206.6 245.75 206.4 245.85 206.45 246.1 206.45 246.4 206.4 246.6 206.25 246.9 205.75 248.45 203.35 249.3 201.3 250 199.55 250 198 250 196.05 248.8 194.1 247.55 193.95 246.05 193.85 246 193.85 245.75 193.85 245.7 193.85 245.6 193.6 245.55 193.25 245.4 193.3 245.2 193.4 244.9 192.2 244.55 190.95 244.15 192.2 244.55 193.4 244.9 193.65 244.9 193.85 245 194 243.8 195.45 243 195.65 242.85 195.85 242.8 198.05 241.8 200.4 241.6 201.8 241.4 203.05 242.1
L 203.3 242.25
Q 204.15 242.6 204.85 243.2 205.05 243.45 205.25 243.65
M 228.55 213.3
L 228.6 213.45 228.7 213.35 228.6 213.35 228.55 213.3 Z"/>

<path fill="#FDA31C" stroke="none" d="
M 190.9 254.8
Q 188 253.4 183.25 250.3
L 183.25 254.8
Q 202.35 267.35 218.5 253.9 218.8 253.6 219.05 253.4
L 219.05 248.5
Q 217.15 250.1 215.4 251.45 212.5 253.55 209.7 255.05 204.65 257.65 200.4 257.65 196.3 257.65 190.9 254.8
M 204.15 234.5
L 204.15 232.95 203.7 232.95
Q 202.7 234 202.2 234.45 201.45 234.95 200.45 234.95 199.3 234.95 198.05 233.95 196.65 232.6 194.65 232.4
L 194.65 232.95
Q 194.7 232.95 194.85 233.1 195.45 233.75 197.15 236 198.1 237.15 198.9 237.85 199.8 238.6 200.3 238.6 201 238.6 201.8 237.7 202.15 237.35 202.45 236.9 203.05 236 204.15 234.5
M 210.45 187.9
Q 208.65 190.1 205.55 192.3 202.5 194.6 199.2 196.15 195.85 197.8 191.95 200.55 188 203.25 185.45 204.8 185.4 204.85 185.25 205 183.4 206.3 177.1 212.3 176.55 212.75 176.05 213.3 174.35 214.8 173.05 216.05 169.6 219.25 168.6 219.95 167.6 220.65 166.4 222.05 166.5 222.3 166.5 222.4 166.5 222.9 166.4 223.6 167.5 222.3 168.85 221.2 173.05 218.65 173.85 217.8 175.1 216.45 178.45 213.5 181.4 214 184.3 215.35 189.15 217.4 196.5 227.3 193.15 209.05 188 206.15 193.1 202.75 198.9 199.15 206.45 194.6 209.65 192.2 212.9 195.65 215.25 198.15 217.8 201 219.9 203.65 213.7 204.4 210.1 207.2 205.4 211.05 202.8 221.9 207.9 217.4 210.3 216.35 217.7 213.2 223.8 213.2 225.2 213.2 226.3 213.3 230.6 221.15 231.45 228.85 231.85 226.65 231.85 224.45 231.65 221.15 231.6 219.25 231.35 218.9 231.25 218.45 230.9 217.55 230.4 216.6 229.8 215.7 228.6 213.45
L 228.55 213.3
Q 227.05 210.75 224.5 206.35 223.65 205 222.55 203.45 220.55 200.7 217.35 197.15 212.6 192 210.45 187.9 Z"/>

<path fill="#FF9966" stroke="none" d="
M 206.4 245.85
L 206.35 245.75
Q 200.45 247.1 193.85 245.4 193.85 245.5 193.85 245.6 193.85 245.7 193.85 245.75 193.85 246 193.95 246.05 194.1 247.55 196.05 248.8 198 250 199.55 250 201.3 250 203.35 249.3 205.75 248.45 206.25 246.9 206.4 246.6 206.45 246.4 206.45 246.1 206.4 245.85 Z"/>

<path fill="#FF6633" stroke="none" d="
M 203.3 242.25
L 203.05 242.1
Q 201.8 241.4 200.4 241.6 198.05 241.8 195.85 242.8 195.65 242.85 195.45 243 194 243.8 193.85 245 200.4 246.55 206.25 245.25 205.9 244.55 205.2 243.8 205 243.55 204.75 243.35 204.05 242.65 203.3 242.25 Z"/>

<path fill="#FF0000" stroke="none" d="
M 177.75 180.6
Q 177.8 180.6 177.8 180.45
L 177.75 180.3 177.75 180.6 Z"/>

<path fill="#F40202" stroke="none" d="
M 220.9 169.8
L 221.1 169.7 220.85 169.7 220.9 169.8 Z"/>
</g>

<g id="Layer0_0_MEMBER_1_MEMBER_0_MEMBER_0_FILL">
<path fill="#FF9966" stroke="none" d="
M 177.9 218.95
Q 177.95 219 178 219.05
L 178 219 177.9 218.95 Z"/>

<path fill="#CC9900" stroke="none" d="
M 184.8 219.2
Q 184.9 219.1 185.05 218.95
L 184.75 219.05
Q 184.75 219.1 184.8 219.2
M 182.7 215.4
Q 182.9 215.45 183.05 215.55
L 183.3 215.3
Q 183 215.3 182.75 215.25
L 182.7 215.4
M 185.05 211.4
L 185 211.35 184.75 211.65 185.05 211.4 Z"/>

<path fill="#999900" stroke="none" d="
M 183.3 215.3
L 183.05 215.55
Q 183.8 216.05 184.3 217.4 184.6 218.15 184.75 219.05
L 185.05 218.95
Q 186.5 217.4 186.5 215.2 186.5 212.95 185.05 211.4
L 184.75 211.65
Q 185.25 212.2 185.25 213.3 185.25 213.85 184.85 214.45 184.3 215.3 183.3 215.3
M 183.3 211.15
Q 184.25 211.1 184.75 211.65
L 185 211.35
Q 183.55 209.85 181.5 209.85 179.4 209.85 177.9 211.4 176.45 212.95 176.45 215.2 176.45 217.4 177.9 218.95
L 178 219
Q 178.5 215.3 182.05 215.3 182.4 215.3 182.7 215.4
L 182.75 215.25
Q 182 215.05 181.65 214.3 181.35 213.75 181.35 213.25 181.35 211.2 183.3 211.15 Z"/>

<path fill="#99CC00" stroke="none" d="
M 183.05 215.55
Q 182.9 215.45 182.7 215.4 182.4 215.3 182.05 215.3 178.5 215.3 178 219
L 178 219.05
Q 179.45 220.55 181.5 220.55 183.4 220.55 184.8 219.2 184.75 219.1 184.75 219.05 184.6 218.15 184.3 217.4 183.8 216.05 183.05 215.55 Z"/>

<path fill="#FFFFFF" stroke="none" d="
M 184.75 211.65
Q 184.25 211.1 183.3 211.15 181.35 211.2 181.35 213.25 181.35 213.75 181.65 214.3 182 215.05 182.75 215.25 183 215.3 183.3 215.3 184.3 215.3 184.85 214.45 185.25 213.85 185.25 213.3 185.25 212.2 184.75 211.65 Z"/>
</g>

<g id="Layer0_0_MEMBER_1_MEMBER_0_MEMBER_1_FILL">
<path fill="#990000" stroke="none" d="
M 223.55 205.2
L 231.55 205.05 223.15 204.05 207.3 205.4 207.3 206.6 223.55 205.2 Z"/>
</g>

<g id="Layer0_0_MEMBER_1_MEMBER_0_MEMBER_2_FILL">
<path fill="#CC9900" stroke="none" d="
M 219.65 219.2
Q 219.75 219.1 219.9 218.95
L 219.6 219.05
Q 219.6 219.1 219.65 219.2
M 217.9 215.55
L 218.15 215.3
Q 217.85 215.3 217.6 215.25
L 217.55 215.4
Q 217.75 215.45 217.9 215.55
M 219.85 211.35
L 219.6 211.65 219.9 211.4 219.85 211.35 Z"/>

<path fill="#FF9966" stroke="none" d="
M 212.85 219
L 212.75 218.95
Q 212.8 219 212.85 219.05
L 212.85 219 Z"/>

<path fill="#99CC00" stroke="none" d="
M 217.55 215.4
Q 217.25 215.3 216.9 215.3 213.35 215.3 212.85 219
L 212.85 219.05
Q 214.3 220.55 216.35 220.55 218.25 220.55 219.65 219.2 219.6 219.1 219.6 219.05 219.45 218.15 219.15 217.4 218.65 216.05 217.9 215.55 217.75 215.45 217.55 215.4 Z"/>

<path fill="#999900" stroke="none" d="
M 219.9 211.4
L 219.6 211.65
Q 220.1 212.2 220.1 213.3 220.1 213.85 219.7 214.45 219.15 215.3 218.15 215.3
L 217.9 215.55
Q 218.65 216.05 219.15 217.4 219.45 218.15 219.6 219.05
L 219.9 218.95
Q 221.35 217.4 221.35 215.2 221.35 212.95 219.9 211.4
M 218.15 211.15
Q 219.1 211.1 219.6 211.65
L 219.85 211.35
Q 218.4 209.85 216.35 209.85 214.25 209.85 212.75 211.4 211.3 212.95 211.3 215.2 211.3 217.4 212.75 218.95
L 212.85 219
Q 213.35 215.3 216.9 215.3 217.25 215.3 217.55 215.4
L 217.6 215.25
Q 216.85 215.05 216.5 214.3 216.2 213.75 216.2 213.25 216.2 211.2 218.15 211.15 Z"/>

<path fill="#FFFFFF" stroke="none" d="
M 219.6 211.65
Q 219.1 211.1 218.15 211.15 216.2 211.2 216.2 213.25 216.2 213.75 216.5 214.3 216.85 215.05 217.6 215.25 217.85 215.3 218.15 215.3 219.15 215.3 219.7 214.45 220.1 213.85 220.1 213.3 220.1 212.2 219.6 211.65 Z"/>
</g>

<g id="Layer0_0_MEMBER_1_MEMBER_0_MEMBER_3_FILL">
<path fill="#990000" stroke="none" d="
M 167.7 205.6
L 175.7 205.75 191.95 207.15 191.95 205.95 176.1 204.6 167.7 205.6 Z"/>
</g>

<path id="Layer0_0_MEMBER_1_MEMBER_0_1_STROKES" stroke="#FF0033" stroke-width="1" stroke-linejoin="round" stroke-linecap="round" fill="none" d="
M 206.25 245.25
L 206.4 245.25 206.425 245.225
M 206.55 245.2
Q 208.25 244.8 209.95 244.15
M 190.95 244.15
Q 192.2 244.55 193.4 244.9
M 206.425 245.225
Q 206.4806640625 245.2 206.55 245.2
M 193.4 244.9
Q 193.65 244.9 193.85 245 200.4 246.55 206.25 245.25"/>
</defs>

<g transform="matrix( 1, 0, 0, 1, -87,-156.2) ">
<use xlink:href="#Layer0_0_MEMBER_0_FILL"/>
</g>

<g transform="matrix( 1, 0, 0, 1, -87,-156.2) ">
<use xlink:href="#Layer0_0_MEMBER_1_FILL"/>
</g>

<g transform="matrix( 1, 0, 0, 1, -87,-156.2) ">
<use xlink:href="#Layer0_0_MEMBER_1_MEMBER_0_FILL"/>

<use xlink:href="#Layer0_0_MEMBER_1_MEMBER_0_1_STROKES"/>
</g>

<g transform="matrix( 1, 0, 0, 1, -87,-156.2) ">
<use xlink:href="#Layer0_0_MEMBER_1_MEMBER_0_MEMBER_0_FILL"/>
</g>

<g transform="matrix( 1, 0, 0, 1, -87,-156.2) ">
<use xlink:href="#Layer0_0_MEMBER_1_MEMBER_0_MEMBER_1_FILL"/>
</g>

<g transform="matrix( 1, 0, 0, 1, -87,-156.2) ">
<use xlink:href="#Layer0_0_MEMBER_1_MEMBER_0_MEMBER_2_FILL"/>
</g>

<g transform="matrix( 1, 0, 0, 1, -87,-156.2) ">
<use xlink:href="#Layer0_0_MEMBER_1_MEMBER_0_MEMBER_3_FILL"/>
</g>
</svg>
