<svg xmlns="http://www.w3.org/2000/svg" xmlns:xlink="http://www.w3.org/1999/xlink" preserveAspectRatio="none" width="167" height="128" viewBox="0 0 167 128"><defs><g id="a"><path fill="#B28158" d="M176.3 285.2q0 .3.1.65.4-.45.85-.8 0-.55.05-1.1-.5.65-1 1.25m14.15-24.4l-3.75-3.8 4.55.35-.8-2.6q.1.5.25 1.05l-6.1.3 4.6 5.3q-4.35 12.35-10.85 21.15.05.6.05 1.3 4.15-4.35 6.5-9.65l.15-.35q3.65-6.55 5.4-13.05m-36.2-1.7l-10.45 1.7q-2.117-4.678-3.3-9.45 1.322 7.45 2.7 10.3.1.25.25.5l8.65-1.25-3.5 10.3q12.25 4.1 19.45 10.45-7.8-7.9-17.75-12.8l3.95-9.75z"/><path fill="#CF7A43" d="M174.6 269q-.35-1.05-.8-2.05-1.45-3.2-3.35-6.4 1.05 4.85 2.7 9.6.55 1.55 1.1 3.05.2-2.1.35-4.2m-21.15-37.6l-.2-.4q-.75.9-1.55 1.8 2 2.85 4.55 4.4l-2.8-5.8m26.2-46.8q-1.75.55-3.3 1.4-5.05 2.7-7.95 8.35-.3.5-.55 1.05-1.15 2.45-2.25 4.4 1.8-1.7 4.95-2.4.85-.15 4.4 1.2 1.35.45 3.1 1.2.85.35 1.8.7l-.8 1.8q-2.4-1.35-4.7-1.95-.45-.1-1-.2-4.25-1-8.1.35v.1h-.1q-.6 1.05-1.2 1.95-2.75 3.9-5.65 4.9-.05 2.25-1.25 3.8-.6.9-1.35 1.35 1.05 1.35 2.15 2.7l.1.05q4.8 5.9 11 11.25l6 .85-.05 2.1-6.55-1.15q-4.85-4.2-9-8.85v-.05h-.05v-.05q-.65-.7-1.25-1.35-.45-.5-.8-.95.15 6.45-2.4 11.3-.35.65-.75 1.3l4.85 9.7q4.95 3.45 8.95 3l.15.65q.25 5.95 1.25 11.75.1.7.25 1.4.35.6.7 1.25 2.15 3.85 3.9 7.8.3.75.65 1.55.15-3.15.35-6.2 0-2 .1-3.9v-4.45q0-2.2-.1-4.35v-1.85q-.1-.15-.1-.25-1-4-1-8.05v-.15q-.05-2.45.3-5-1.45 2.8-3.1 3.8-1.95 1.1-4.2-.15-2-1.5-3.45-3.6-3.25-4.8-4.25-13.1l2.25 3.25 6.45 6.1q2.5 1.9 5.05 2.6.8.3 1.5.5 4.1.9 6.95-2.65.45-.6.9-1.25l.05-.1 2.7-4.5q4.8-7.1 4.5-10.55l.3-1.25.55-3.75.25-1.25q-.1-.1-.15-.1-.35 1.05-1.7 1.6-.3.1-.55.1-.4.25-.85.25-.35 0-.65-.15-.5-.1-.95-.2-.7-.3-1.25-.75l.05-.6q.55-.9 1.15-1.4.3-.2.7-.35.6-.25 1.35-.25 1.2 0 2.05.6.3.25.5.5.05.1.15.2v.05q1.6-2.55 1.15-5.1-.35-.35-1.15-.35-1.15.05-3.35.85-.6.2-1.25.5v.05q-3.15 2.2-2.45 14.3 0 .2.1.5l-1.35 2.1-1.45-2.1 1.9-.8v-.05q-.9-12.8 2.55-14.9l.8-.4q.05-.05.15-.05.7-.45 1.35-.75.1 0 .25-.1 3.1-1.3 4.2.2-.1-.9-.2-1.85-.75-4.3-2.4-7.25-1.3-2.25-3.15-3.65-2-1.5-4.65-2.05l-8.9-12.15 6.85 11.4m-5.7 23.55q-.15.1-.25 0-1.45.2-2.55-.25-.95-.45-3.8-1.85-.5-.25-1.1-.5 0-.05-.1-.05.1-.05.1-.1l-1-.35q1.9-1.35 3.25-1.6t4.05-.05q2.75.15 4.6 3.8-1.55.8-3.2.95m6.85 13.2l1.25-.3 1.85.9q-.45 1.1-1.3 2.3-.05.05-.05.1-.4.55-.85 1.2-.1.05-.2.15-1.3 1-3.35.55-2.65-1-4.8-4.95l6.5-.4.95.45z"/><path fill="#C1B7AE" d="M169.55 256.25q.1.65.25 1.3.25 1.55.65 3 1.9 3.2 3.35 6.4.45 1 .8 2.05 1.15 2.85 1.85 5.75.35 1.9.55 3.8.3 2.65.3 5.4-.05.55-.05 1.1-.05 2.8-.45 5.7 0 .85.05 1.75-.15-.25-.25-.35-.05.15-.05.35-.2 1.25-.5 2.55h1.6q.15-1.2.35-2.45.5-4.35.4-8.75 0-.7-.05-1.3-.1-3.25-.55-6.5-.15-.9-.3-1.75-1.15-3.75-2.7-7.45-.35-.8-.65-1.55-1.75-3.95-3.9-7.8-.35-.65-.7-1.25m-18-43.25q-.95 4.6-.5 9.15.25 2.4.9 4.85.5 1.85 1.25 3.7v.1q.05.1.1.15.05.2.15.45l2.8 5.8.15.35q1.3 1.05 2.55 1.9l-4.85-9.7q-.05.05-.1.15-.45-1.15-.75-2.25-.95-3.2-1.2-6.5-.25-3.8.4-7.8.05-.45.15-.9-.4-.25-.8-.65-.15.6-.25 1.2m9.65-31.55q-4.15 2.6-6.6 8.9-1.95 5-2.75 12.3 1.05-1.15 2.4-1.15h.3q.25-5.55 1.95-10.6 1.65-4.95 4.7-9.45z"/><path fill="#FDFAC7" d="M162.15 258.75l.05.1q2 2.45 2.95 3.35l.1.4q4.5 4.95 7.25 10.6 2.1 4.3 3.2 8.95.7-1.8 1.3-3.6-.2-1.9-.55-3.8-.7-2.9-1.85-5.75-.15 2.1-.35 4.2-.55-1.5-1.1-3.05-1.65-4.75-2.7-9.6-.4-1.45-.65-3-.15-.65-.25-1.3-.15-.7-.25-1.4-6-2.5-8.5 2.1.7 1.05 1.35 1.8m18.5-5.4q-2.25-1.55-3.65-1.7-1.15-.2-1.75.65v4.45q-.1 1.9-.1 3.9-.2 3.05-.35 6.2 1.55 3.7 2.7 7.45.15.85.3 1.75 3.05-10.5 2.95-20.15l-.1-2.55m-6.6-15.7v.15q0 4.05 1 8.05 0 .1.1.25v1.85l.25-3.25 4.25 7.9-.2-7.8-.05-.6-1.3-2.55-1.95-3.9-2.1-.1m-25.3-4.4l-.15.2q2.4 7.5 6.4 14 2.5 4 5.55 7.65 2.15-6.25 7.5-12l-.15-.65q-4 .45-8.95-3-1.25-.85-2.55-1.9l-.15-.35q-2.55-1.55-4.55-4.4-.35-.95-.45-2.05l-2.5 2.5z"/><path fill="#D9DDA2" d="M175.15 247.95q.1 2.15.1 4.35.6-.85 1.75-.65 1.4.15 3.65 1.7-.3-4.4-1.2-8.55l.2 7.8-4.25-7.9-.25 3.25m-14.6 7.15q-3.05-3.65-5.55-7.65 3.5 6.25 5.8 9.5 2.5-4.6 8.5-2.1-1-5.8-1.25-11.75-5.35 5.75-7.5 12z"/><path fill="#070200" d="M181.55 242.55q.05.023.05.1 2 .8 3.6 2.35.65-.6 1.2-1.15 2.45-2.8 1.15-5.25-.65 3.7-3.2 4.2-1.192.2-2.8-.25m0-13.15q-2.85 3.55-6.95 2.65-.1.15-.15.35-.05.1-.1.25-.35 2.55-.3 5l2.1.1 1.95 3.9q.45 0 .95.1 1.25.35 2.45.8h.05q-.3-.7-.5-1.35-1.65-5.3 1.45-13.15l-.05.1q-.45.65-.9 1.25m-28.95-16.95q-.1.45-.15.9-.65 4-.4 7.8.25 3.3 1.2 6.5.3 1.1.75 2.25.05-.1.1-.15.4-.65.75-1.3 2.55-4.85 2.4-11.3-.2-.35-.5-.65-.95-1.15-1.8-2.25-.5-.65-.95-1.3-.75-.05-1.4-.5m20.15-39.3l-.25-.4q-1.8 0-3.5.1-17.4 1.1-20.05 15.9-.45 2.75-.45 6v.3l-.15.3q-4.65 2.85-7.25 13.8-.05.2-.15.35-1 4.5-1.7 10.25 0 .5-.05 1.05-1.05 18.95-9.9 19.7 2.2.2 4.35-1.2 1.6-1.1 3.2-3.15 1.75-2.35 3.45-5.85 0 1.35-.2 2.6-.85 5.5-4.75 8.9l3.9-1.45v-1.1l9.15-7.15.35 1.15 2.5-2.5q.1 1.1.45 2.05.8-.9 1.55-1.8l-.05-.2v-.1q-.75-1.85-1.25-3.7-.65-2.45-.9-4.85-.45-4.55.5-9.15.1-.6.25-1.2-.2-.25-.4-.55-1.15-1.65-1.15-4.05 0-.45.05-.85.1-1.8 1.1-3.2.2-.3.45-.5.8-7.3 2.75-12.3 2.45-6.3 6.6-8.9-3.05 4.5-4.7 9.45-1.7 5.05-1.95 10.6 1.45.15 2.5 1.65.35.5.65 1 .6 1.35.6 3.05v.25q2.9-1 5.65-4.9.6-.9 1.2-1.95h.1v-.1q.15-.35.35-.7 1.1-1.95 2.25-4.4.25-.55.55-1.05 2.9-5.65 7.95-8.35 1.55-.85 3.3-1.4l-6.85-11.4 8.9 12.15q2.65.55 4.65 2.05 1.85 1.4 3.15 3.65 1.65 2.95 2.4 7.25.1.95.2 1.85-1.1-1.5-4.2-.2-.15.1-.25.1-.65.3-1.35.75-.1 0-.15.05l-.1 1.3q.65-.3 1.25-.5 2.2-.8 3.35-.85.8 0 1.15.35.45 2.55-1.15 5.1.25.35.25.8 0 .55-.35.95l-.55 3.75q3.5-5.3 3.75-10.05v-1.3q0-1.05-.05-2.2-.4-5.7-3.45-10.8l-.2-.6q-.65-.95-1.3-1.8-3.7-4.8-7.7-7.8-3.3-2.6-6.9-3.9l-1.4-.15z"/><path fill="#DDB087" d="M178.1 241.65l1.3 2.55.05.6q.9 4.15 1.2 8.55l.1 2.55q.1 9.65-2.95 20.15.45 3.25.55 6.5 6.5-8.8 10.85-21.15l-4.6-5.3 6.1-.3q-.15-.55-.25-1.05l.8 2.6-4.55-.35 3.75 3.8q-1.75 6.5-5.4 13.05l-.15.35q-2.35 5.3-6.5 9.65.1 4.4-.4 8.75-.2 1.25-.35 2.45h7.65l11.45-43.3-10.1-5.15q-.7-.9-1.45-1.6-1.6-1.55-3.6-2.35-.05-.098-.1-.1-1.2-.45-2.45-.8-.5-.1-.95-.1m-53.9 4.25l-.2.1q-.55.25-1.05.55 0 1.1.05 2.15 0 .5.05 1.05.35 7.4 1.25 14.8 1.65 12.4 5.05 24.55-5.15-7.9-7.55-16.15l4 22.1h50.25q.3-1.3.5-2.55 0-.2.05-.35.1-.75.2-1.4.4-2.9.45-5.7-.45.35-.85.8-.1-.35-.1-.65.5-.6 1-1.25 0-2.75-.3-5.4-.6 1.8-1.3 3.6-1.1-4.65-3.2-8.95-2.75-5.65-7.25-10.6l-.1-.4q-.95-.9-2.95-3.35l-.05-.1q-.65-.75-1.35-1.8-2.3-3.25-5.8-9.5-4-6.5-6.4-14l.15-.2-.35-1.15-9.15 7.15v1.1l-3.9 1.45-11.15 4.1m19.6 14.9l10.45-1.7-3.95 9.75q9.95 4.9 17.75 12.8-7.2-6.35-19.45-10.45l3.5-10.3-8.65 1.25q-.15-.25-.25-.5-1.378-2.85-2.7-10.3 1.183 4.772 3.3 9.45m2.8 29.35l.05.4q-.1-.15-.05-.25v-.15z"/><path fill="#180700" d="M179.05 202.3l.8-1.8q-.95-.35-1.8-.7-1.75-.75-3.1-1.2-3.55-1.35-4.4-1.2-3.15.7-4.95 2.4-.2.35-.35.7 3.85-1.35 8.1-.35.55.1 1 .2 2.3.6 4.7 1.95m7 4.05q-.1.25-.1.55 0 .35.15.65.1.35.35.5.2.3.45.4.7.05 1.5-.1.15-.1.3-.3.45-.45.45-1.15 0-.5-.25-.95.85.2 1.75.7.05 0 .15.1l-.25 1.25q.35-.4.35-.95 0-.45-.25-.8v-.05q-.1-.1-.15-.2-.2-.25-.5-.5-.85-.6-2.05-.6-.75 0-1.35.25-.4.15-.7.35-.6.5-1.15 1.4l-.05.6q.65-.75 1.35-1.15m1.6.2q.5 0 .5.5t-.5.5q-.5 0-.5-.5t.5-.5m-13.7-1.4q.1 0 .3.1 1.55.65 2.9 1.95-1.85-3.65-4.6-3.8-2.7-.2-4.05.05-1.35.25-3.25 1.6l1 .35q0 .05-.1.1.1 0 .1.05 1.25-.5 2.4-.75 1.35-.3 2.6-.2-.6.75-.6 1.45t.5 1.15q.45.5 1.15.5t1.2-.5q.45-.45.45-1.15v-.9m-1.55.2q.5 0 .5.5t-.5.5q-.5 0-.5-.5t.5-.5z"/><path fill="#B3713D" d="M183.6 216.5l-.8-.3-1.9.8 1.45 2.1 1.35-2.1q-.1-.3-.1-.5z"/><path fill="#FEC" d="M188.9 205.95q.25.45.25.95 0 .7-.45 1.15-.15.2-.3.3.25 0 .55-.1 1.35-.55 1.7-1.6-.9-.5-1.75-.7m-2.95.95q0-.3.1-.55-.7.4-1.35 1.15.55.45 1.25.75.45.1.95.2-.25-.1-.45-.4-.25-.15-.35-.5-.15-.3-.15-.65m-11.7-1.65q-.2-.1-.3-.1v.9q0 .7-.45 1.15-.5.5-1.2.5t-1.15-.5q-.5-.45-.5-1.15t.6-1.45q-1.25-.1-2.6.2-1.15.25-2.4.75.6.25 1.1.5 2.85 1.4 3.8 1.85 1.1.45 2.55.25.1.1.25 0 1.65-.15 3.2-.95-1.35-1.3-2.9-1.95z"/><path fill="#FFF" d="M188.15 207.05q0-.5-.5-.5t-.5.5q0 .5.5.5t.5-.5m-15.25-1.2q0-.5-.5-.5t-.5.5q0 .5.5.5t.5-.5z"/><path fill="#AB5A2D" d="M186.05 202.15l.1-1.3-.8.4q-3.45 2.1-2.55 14.9v.05l.8.3q-.7-12.1 2.45-14.3v-.05z"/><path fill="#1A1A1A" d="M220.2 245.95l-2.9-4.75-.3-.1-13.75 53.95h3.6l13.35-49.1z"/><path fill="#030000" d="M259.85 244.8l3.8 4.25-43.4-3.05-.05-.05-13.35 49.1h49.55l15.9-60.3-65.4-7.05-16.9 67.35h13.25L217 241.1l.3.1 42.55 3.6z"/><path fill="#3B3B3B" d="M263.65 249.05l-3.8-4.25-42.55-3.6 2.9 4.75.05.05 43.4 3.05z"/><path fill="#45444A" d="M272.3 234.65l-3.45-1.5-65.05-8.25-7.05 26.85-11.45 43.3h4.7l16.9-67.35 65.4 7.05v-.1z"/><path fill="#8ED4DC" d="M268.85 233.15l3.45 1.5v.1l-15.9 60.3h19.2V220.8q-38.35-24.6-81.9-22.6.05 1.15.05 2.2v1.3q-.25 4.75-3.75 10.05l-.3 1.25q.3 3.45-4.5 10.55l-2.7 4.5q-3.1 7.85-1.45 13.15.2.65.5 1.35 1.608.45 2.8.25 2.55-.5 3.2-4.2 1.3 2.45-1.15 5.25-.55.55-1.2 1.15.75.7 1.45 1.6l10.1 5.15 7.05-26.85 65.05 8.25m-127.9-23.65q-6.65 2.5-13.5 5.55-9.55 4.25-19.45 9.5v70.5h11.9l-3.8-17.85q-.65-6.25-.55-11.35.1-5.75 1.25-9.9 1.2-4.5 3.6-7.25 1.1-1.3 2.55-2.15.5-.3 1.05-.55l.2-.1 11.15-4.1q3.9-3.4 4.75-8.9l-3.25 3.25q-1.6 2.05-3.2 3.15-2.15 1.4-4.35 1.2 8.85-.75 9.9-19.7.05-.55.05-1.05.7-5.75 1.7-10.25z"/><path fill="#D4A37B" d="M120.4 248.7q-2.4 2.75-3.6 7.25-1.15 4.15-1.25 9.9-.1 5.1.55 11.35l3.8 17.85h5.9l-4-22.1q2.4 8.25 7.55 16.15-3.4-12.15-5.05-24.55-.9-7.4-1.25-14.8-.05-.55-.05-1.05-.05-1.05-.05-2.15-1.45.85-2.55 2.15z"/><path fill="#8F552D" d="M161.6 222.85l-2.25-3.25q1 8.3 4.25 13.1 1.45 2.1 3.45 3.6 2.25 1.25 4.2.15 1.65-1 3.1-3.8.05-.15.1-.25.05-.2.15-.35-.7-.2-1.5-.5-2.55-.7-5.05-2.6l-6.45-6.1z"/><path fill="#EEC79E" d="M157.95 215.35l-.1-.05q-1.1-1.35-2.15-2.7-.65.35-1.45.35H154q.45.65.95 1.3.85 1.1 1.8 2.25.3.3.5.65.35.45.8.95.6.65 1.25 1.35v.05h.05v.05q4.15 4.65 9 8.85l6.55 1.15.05-2.1-6-.85q-6.2-5.35-11-11.25z"/><path fill="#FFF1D6" d="M157.05 203.15q-1.05-1.5-2.5-1.65h-.3q-1.35 0-2.4 1.15-.25.2-.45.5-1 1.4-1.1 3.2-.05.4-.05.85 0 2.4 1.15 4.05.2.3.4.55.4.4.8.65.65.45 1.4.5h.25q.8 0 1.45-.35.75-.45 1.35-1.35 1.2-1.55 1.25-3.8v-.25q0-1.7-.6-3.05-.3-.5-.65-1m26.45 19.05q-.25 0-.5.05-1.8.3-4.45.05l-4.95-.75q2.8 2.65 6.25 3.2 1.05-.05 1.95-.65.55-.45 1.1-1.05.25-.4.6-.85z"/><path fill="#BC5F4E" d="M182.05 221.05l-1.25.3-.95-.45-6.5.4q2.15 3.95 4.8 4.95 2.05.45 3.35-.55.1-.1.2-.15.45-.65.85-1.2 0-.05.05-.1.85-1.2 1.3-2.3l-1.85-.9m.95 1.2q.25-.05.5-.05-.35.45-.6.85-.55.6-1.1 1.05-.9.6-1.95.65-3.45-.55-6.25-3.2l4.95.75q2.65.25 4.45-.05z"/><path fill="#7DBCC5" d="M172.5 172.75l.25.4 1.4.15q3.6 1.3 6.9 3.9 4 3 7.7 7.8.65.85 1.3 1.8l.2.6q3.05 5.1 3.45 10.8 43.55-2 81.9 22.6v-54.6H108v58.35q9.9-5.25 19.45-9.5 6.85-3.05 13.5-5.55.1-.15.15-.35 2.6-10.95 7.25-13.8l.15-.3v-.3q0-3.25.45-6 2.65-14.8 20.05-15.9 1.7-.1 3.5-.1z"/></g><path fill="#F66" fill-opacity=".247" d="M373 142.75q.5-.75.5-1.55 0-2.5-2.5-2.5t-2.5 2.55q0 .05.35 1.3.7 1.2 2.15 1.2 1.3 0 2-1z" id="b"/><path fill="#F66" fill-opacity=".247" d="M389.6 147.05q.457-1.028.9-2.15 1.5-3.8 1.5-6.35 0-.414.05-.8-4.05.64-4.05 5.4 0 .1.75 2.75.376.675.85 1.15z" id="c"/></defs><use xlink:href="#a" transform="translate(-108 -166.2)"/><use xlink:href="#b" transform="matrix(2.15208 0 0 2.15208 -737.25 -255.5)"/><use xlink:href="#c" transform="matrix(1.00632 0 0 1.00632 -312.5 -94.1)"/></svg>