<svg xmlns="http://www.w3.org/2000/svg" xmlns:xlink="http://www.w3.org/1999/xlink" preserveAspectRatio="none" width="192" height="146" viewBox="0 0 192 146"><defs><g id="a"><path fill="#292838" d="M557.15 264.9v-6.55l-1.25.3.05 6.85 1.2-.6m-2.8-5.85l-2.3.6.1 7.2 1.95-.65.25-.05v-7.1m9-18.55v.05q0 1.35.9 2.3h.65l3.5-5.75h-1.65q-1.4 0-2.4 1t-1 2.4m-7.6 5.15v.25l.05 4.65q-3 1-3.4 3.55l4.75-1.9v-.3h.65l2.1-.85.6-1h-3.35v-2.15q-.05-1.6.55-2.35.1-.2.3-.3.55-.45 1.5-.35l4.15.05v-.05l1-1.65-.3-.3-.1-.1-5.75.05q-.6-.05-1.1.1l-1.65 2.65m40.9-8.55q.25.5.5.95.85 1.6 1.75 3.15.4.75.85 1.5l6.4-.05q.7-.9.7-2.1v-.05-.15q-.05-1.3-1-2.25-1-1-2.4-1h-6.8m-10.75 5.65q.4.65.9 1.2h13.75q-.4-.65-.8-1.25l-13.85.05m-10.05-5.65l-3.55 5.7 13.6-.05-.15-.15q-1.45-2.25-2.35-5.5h-7.55m52.05-17.85q.15-.15.4-.25l.05.05q1.9-1.65 1-3.25l-10.8-4.8q-.55.3-.85.65l-3.3-.25q-2.9.45-4.4 3.85-.8 1.7-1.2 4.1-.45 2.55-.5 5.95l-.2 3.65-.7 13.7h-1.25l-.3.3q-1 1-2.4 1h-2.9q.35.55.75 1.1h5.95l.35.05h2.75l.4-16.55v-.75-.25q.05-8.95 2.3-12.05.9-1.3 2.15-1.6l2.25.25.05.1q.1.4.3.95l1.8.75 8.3 3.3z"/><path fill="#5F5635" d="M551.15 267.2l1-.35-.1-7.2-13 3.35-8.5 11.3 5.55 5.45-10.35 3.05 3.1 12.25h18.5l-.45-5.15-1.9-21.5 6.15-1.2m6.85-21.95q-.2.1-.3.3-.6.75-.55 2.35v2.15h3.35l3.15-5.1-4.15-.05q-.95-.1-1.5.35m64.35 28.65q-2.2.05-4.25.45l1.1 5.9 3.15-6.35m4.8 9.9l-.1-9.8H627l-6.7 12.2 1.65 8.85h.25l5.1-3-.15-8.25m-20.3-43.3v.05q0 1.2-.7 2.1h1.25l.7-13.7-14.2 2.1q1.3 3.15 2.75 6.05h6.8q1.4 0 2.4 1 .95.95 1 2.25v.15m-38.45-3.4l1.5-2.4-10.8 1.6-16.3 21.7 9.6-3.9q.4-2.55 3.4-3.55l-.05-4.65v-.15-.1l1.65-2.65q.5-.15 1.1-.1l5.75-.05q-.9-.95-.9-2.3v-.05q0-1.4 1-2.4t2.4-1h1.65m5.7 9q1-1 2.4-1h11.4l-.1-.1-16.85-.05-3.2 5.1h5.7q-.35-.7-.35-1.5v-.05q0-1.4 1-2.4m5.15-12.8l-1.1.15-2.3 3.65h7.55q-.45-1.6-.75-3.4l-3.4-.4m38.8 0q.05-3.4.5-5.95l-7.8 1.2-.4 16.55h2.85q1.4 0 2.4 1t1 2.4v.05q0 1.2-.7 2.1h1.25l.9-17.35z"/><path fill="#F0AB68" d="M547.15 268.5l4-1.3-6.15 1.2 1.9 21.5 4.85 1.65-.35-1.7-4.25-21.35z"/><path fill="#FFBD8D" d="M554.15 266.4l-.05-.2-1.95.65-1 .35-4 1.3 4.25 21.35 9.35 3.05q-.25-5.25-2.25-10.45-.5-1.35-1.15-2.7-2.2-3.45-3.05-6.6-.15-.55-.25-1.1-.6-2.95.1-5.65z"/><path fill="#0D0866" d="M556 272.05l-.05-6.55-1.6.8-.05 6.85q.85 3.15 3.05 6.6.6.95 1.35 1.95.5.7 1.1 1.4l2.15.15-.2-20.7-4.6 2.35v7.15H556m30.85-19.1l-13.4 5.1 38.6-.1-3.05-4.9-22.15-.1z"/><path fill="#2B2A32" d="M563.7 256.55l.05.1h-.1l-6.5 1.7v6.55l4.6-2.35.35-.3q.2-1.4 1.15-2.35.5-.5 1.2-.85.1-.1.2-.1.4-.25.9-.4l-.05-4.65v-.25l-1.8 2.9m23.15-3.6l-17.6-.05q-2.45-.25-2.35 3v2.15h6.55l13.4-5.1z"/><path fill="#4E5A68" d="M506.7 249.2q-2.1 2.5 2.05 4.1l20.5 6.5 14.8-11.25-.25.1q-1.6.75-2.95.15l-.2-.1-11.15 8.6-22.8-8.1z"/><path fill="#F3CB8E" d="M514.5 259.55v.25l5.1 1.65-11.25.85.95.95h.3l8-.2-4.25 1.1-3.1 3.5 1.75-.25 2.6-2.1 3.3-.7-.55.45-2.35 1.35-.9 4 1-.35 1.25-3 3.65-.85-3.25 5.2 1.1.15 3-3.75q1.7.5 3.4.4 2.5-.2 5.15-1.75.8-.45 1.6-1.05l8.05-2.4 13-3.35 2.3-.6 1.55-.4 1.25-.3 6.5-1.7.05-.1q-.5-2.45-2.8-4.65h-3.1l-.65.3-4.75 1.9-9.6 3.9-12.7 5.15-10.5-2.85-5.1-.75z"/><path fill="#2C302F" d="M491.25 243.15q0 1.1 3.25 1.85 3.3.8 7.9.8 4.6 0 7.85-.8 3.3-.75 3.3-1.85 0-.35-.3-.6-.7.65-3 1.2-3.25.8-7.85.8t-7.9-.8q-2.3-.55-2.95-1.2-.3.25-.3.6m3.35-40.7l-4.6 3.85 5.7 24.15 2.15 9.05.4 1.8q3.1 1.25 5.25-.25l-.45-1.8-2.7-10.65-4.85-18.8 1.75-.1-2.65-7.25z"/><path fill="#515B5D" d="M491.25 241.9q0 .35.3.65.65.65 2.95 1.2 3.3.8 7.9.8 4.6 0 7.85-.8 2.3-.55 3-1.2.3-.3.3-.65 0-1.1-3.3-1.9-3-.7-7.2-.75l.45 1.8q-2.15 1.5-5.25.25l-.4-1.8q-1.85.15-3.35.5-3.25.8-3.25 1.9m-1.65-64.4l-.35.05-2.25 3.75 7.6 21.15 2.65 7.25 6.35 17.6 2.15 6 5.65.7-21.8-56.5z"/><path fill="#E4E4E4" d="M497.25 209.7l-1.75.1 4.85 18.8 3.25-1.3-6.35-17.6m-8-32.15l.35-.05 41.15-7.95 14.4 40.95 4.2.4 10.2-61.5h-.1l-93.7 7.9 2.5 120.9 26.6-47.4.85-.35-5.7-24.15 4.6-3.85-7.6-21.15 2.25-3.75z"/><path fill="#AAB6CE" d="M538.85 244.1q2.25-3.2 5.05-4.85l5.5-10.35-5.7-1.85-37.05 22.05.05.1 22.8 8.1 11.15-8.6q-.85-.55-1.35-1.2-1.05-1.4-.45-3.4z"/><path fill="#F6C398" d="M558 211.55v1.2l-8.6 16.15-5.5 10.35-1.7 3.25q-2.15 2.85.35 4.6.05 0 .1.05 1.8.6 3.3-.35 1.5-1 2.7-3.65l3.65-9.3 1.4-3.65 6.05-15.45 1.5-3 .45-.95.05-2.85q-5.75-6.4-7.35-13.75l-1.8 4.85 5.35 11.25.05 1.25z"/><path fill="#C3CBC0" d="M632 291.85l-1.45 3.2h13.4q-.25-2.6-.75-4.9-.4-1.85-1-3.5l-10.2 5.2m2.4-5.15l1.25.45L641 284q-1.35-2.55-3.25-4.45l-3.35 7.15m-7.35-12.7l.1 9.8 3.9 1.55 4.75-9.15q-4.15-1.75-8.75-2.2m-51.7-68.6q-3.15 1.6-6.3 1.05l.25.4q-1.05 2.5-3.85 2.4-1.25-.1-2.8-.65-.25-.1-.45-.15-.25-.25-.45-.5l-.05 2.85-.45.95 16.9 1.25.1-.1-2.9-7.5m42.15 8.85l-.05-.1-2.25-.25q-1.25.3-2.15 1.6l6.55.45-1.8-.75q-.2-.55-.3-.95m35 69.8l5.5-121-98.45-13.65-10.2 61.5 8.65.65-.05-1.25-5.35-11.25 1.8-4.85q-.45-2.05-.55-4.1l-.1-.2q.3-1.6 1.15-2.35.35-.35.85-.5.1-.05.25-.05-.2-2.1.25-4.15.7-3.2 2.8-6.45.1-.2.15-.4 3.4-8.8 15.1-9.1 8.75.6 12.95 5.2 2 2.2 2.95 5.3 3.2 12.85 9.7 19.35l-.5.5q-1.35 1.3-3.3 2.3-.7.35-1.45.7-.65.25-1.35.5-1.85.6-3.95 1.05-1.1.2-2.25.4-.7.1-1.45.2-.7.1-1.4.15-2.35.25-5.05.35h-.45l3.95 8.95 1.4-.35-.25.4.45-.65q4.7-1.45 4.75 2.5l20.95 1.5q1.5-3.4 4.4-3.85l3.3.25q.3-.35.85-.65l10.8 4.8q.9 1.6-1 3.25l10.75 4.75q1 1.75-1.35 3.5l-10.2-4.1q.05.15.15.35-.1-.2-.15-.35-.2-.55-.3-.95l-.05-.1-.95-.1.6 39.95q4.5 1.6 8.5 4.6 2.3 1.8 4.45 4.05.35.4.75.8 3.45 2.25 6.6 5.55 3.15 3.3 5.35 7.05m0 11v-2.25q-1.55-3.4-3.9-6.4.75 3 1.05 6.3.05 1.15.1 2.35h2.75z"/><path fill="#2D2D2D" d="M611.1 295.05h4.3l2.7-4.85-.4-2.3h-2.25l-2.25 4.5-.8-4.5h-2.7l1.4 7.15m.4-12h-2.75l.45 2.3 2.7.05-.4-2.35m-1.4-5.95q-1.15.55-2.25 1.25l.35 1.7h2.75l-.6-3.1q-.15.05-.25.15m13.75-3.25q-.75 0-1.5.05l-3.15 6.35 1.1 5.95L627 274q-.45-.05-.9-.05-1.1-.1-2.25-.1m9.75-5.85q3.65 1.25 6.95 3.45-.4-.4-.75-.8-2.15-2.25-4.45-4.05-4-3-8.5-4.6-3.35-1.2-6.95-1.6l-.15 5.65q1.05-.05 2.1-.05 2.6 0 5.1.35 3.45.45 6.65 1.65m16.05 24.7q-.3-3.3-1.05-6.3-1.05-1.35-2.2-2.6-3.6-3.85-7.75-6.2l-.9 1.95q1.9 1.9 3.25 4.45l-5.35 3.15-2 1.15-1.65 3.55 10.2-5.2q.6 1.65 1 3.5.5 2.3.75 4.9h5.8q-.05-1.2-.1-2.35z"/><path fill="#B2BCD7" d="M599.45 285.95l2.45 1.95h15.8l-.4-2.5h-5.4l-2.7-.05-9.2-.05q-.3.3-.55.65m5.95-5.9q-1.75 1.35-3.4 3.05l6.75-.05h8.15l-.5-3h-11m22.05-60.4l-3.3-.25q-4.35.65-5.6 7.95-.45 2.55-.5 5.95l-.9 17.35h-1.25l-.3.3q-1 1-2.4 1h-36.7q-.3 0-.6-.05-1-.15-1.8-.95l-.1-.1-5.75.05q-.6-.05-1.1.1l-1.65 2.65v.25l.05 4.65.05 2.9.15 18.6h1.15V259.9h49.75l-.35 6.5q1.7-.25 3.45-.35l.15-5.65.6-24.6v-.25q.1-12.6 4.45-13.65l1.3.15.95.1q-.4-1.75.25-2.5m-58.2 33.25l17.6.05 22.15.1h8l-.25 4.85-4.7.05-38.6.1h-6.55v-2.15q-.1-3.25 2.35-3z"/><path fill="#404241" d="M593.95 280.05q1.2-1.55 2.6-3.05 1.95-2.05 4.05-3.65 7-5.6 15.7-6.95l.35-6.5H566.9v20.15h27.05z"/><path fill="#5B4436" d="M597.7 279q2.55-2.65 5.35-4.7Q611.8 268 623 268q2 0 3.95.2 2.65.3 5.2.95 5.7 1.5 10.65 5.05-1.05-1.45-2.25-2.75-3.3-2.2-6.95-3.45-3.2-1.2-6.65-1.65-2.5-.35-5.1-.35-1.05 0-2.1.05-1.75.1-3.45.35-8.7 1.35-15.7 6.95-2.1 1.6-4.05 3.65-1.4 1.5-2.6 3.05-1.2 1.5-2.15 3.05-.7 1.05-1.25 2.15-.7 1.25-1.3 2.6-1.5 3.45-2.3 7.2h1.65q1-3.75 2.8-7.2.65-1.3 1.45-2.6.7-1.1 1.45-2.15 1.15-1.55 2.45-3.05.45-.55.95-1.05z"/><path fill="#A7C1C2" d="M576.35 287.85h12.9q.6-1.35 1.3-2.6l-26.5-.2v-1.9l27.75-.05q.95-1.55 2.15-3.05h-29.9l.05-16.9q.05-.25.15-.45.45-1.45 1.35-1.25l-.05-2.9q-.5.15-.9.4-.1 0-.2.1-.7.35-1.2.85-.95.95-1.15 2.35l-.35.3.2 20.7.15 11.8h1.8l.15-7.25 12.3.05z"/><path fill="#282A29" d="M581.75 295.05q.1-3.75.85-7.2h-6.25q-1.35 2.9-1.3 5.3.05 1 .3 1.9h6.4z"/><path fill="#0C0080" d="M587.8 245l.1.1h13.4v-.05q-.4-.55-.75-1.1H586.8q.45.55 1 1.05m1.1-29.65q-.4 2.1-1.6 5.25l-9 12.55.95.15 3.4.4q.3 1.8.75 3.4.9 3.25 2.35 5.5l.15.15 13.85-.05q-.45-.75-.85-1.5-.9-1.55-1.75-3.15-.25-.45-.5-.95-1.45-2.9-2.75-6.05-2.95-7.15-5-15.7z"/><path fill="#230452" d="M578.5 220.7q-1.4-3.3-1.45-7.15L555.9 230.9l-3.6 2.95-3.65 9.3q-1.2 2.65-2.7 3.65-1.5.95-3.3.35-.05-.05-.1-.05-2.5-1.75-.35-4.6l1.7-3.25q-2.8 1.65-5.05 4.85-.6 2 .45 3.4.5.65 1.35 1.2l.2.1q1.35.6 2.95-.15l.25-.1 32.55-27.45.1 2.5 1.8-2.9z"/><path fill="#C47D49" d="M577.05 213.55q.05.25.05.05l1.05-.6-16.9-1.25-1.5 3-6.05 15.45 2.2.7 21.15-17.35m47.1 5.85l3.3.25q.15-.2.45-.4l-8.3-3.3-6.55-.45q-2.25 3.1-2.3 12.05v1l7.8-1.2q1.25-7.3 5.6-7.95m-15.35-.05q.4-2.4 1.2-4.1l-20.95-1.5q-.05.7-.15 1.6 2.05 8.55 5 15.7l14.2-2.1.2-3.65q.05-3.4.5-5.95m-140.55 75.7h13.35l-11.6-19.5 39.6-12.3h-.3l-.95-.95 11.25-.85-5.1-1.65v-.25l5.1.75 10.5 2.85 12.7-5.15 16.3-21.7 10.8-1.6 6.8-11.1-.1-2.5-32.55 27.45-14.8 11.25-20.5-6.5q-4.15-1.6-2.05-4.1l-.15-.05.1-.05 37.05-22.05 5.7 1.85 8.6-16.15v-1.2l-8.65-.65-4.2-.4 1.85 5.3-35 18.25-.5.25-.1-.3-5.65-.7-2.15-6-3.25 1.3 2.7 10.65q4.2.05 7.2.75 3.3.8 3.3 1.9 0 .35-.3.65.3.25.3.6 0 1.1-3.3 1.85-3.25.8-7.85.8t-7.9-.8q-3.25-.75-3.25-1.85 0-.35.3-.6-.3-.3-.3-.65 0-1.1 3.25-1.9 1.5-.35 3.35-.5l-2.15-9.05-.85.35-26.6 47.4v16.85z"/><path fill="#FFBC90" d="M578.75 202.9h-.25q-.8.8-1.7 1.65-.75.5-1.45.85l2.9 7.5-.1.1-1.05.6q0 .2-.05-.05.05 3.85 1.45 7.15l5.35-8.8.25-.4-1.4.35v.1l-.3.1.3-.2-3.95-8.95z"/><path fill="#140077" d="M588.9 215.35q.1-.9.15-1.6-.05-3.95-4.75-2.5l-.45.65-5.15 9.2-.2-.4-1.8 2.9-6.8 11.1-1.5 2.4-3.5 5.75-.25.4-1 1.65v.05l-3.15 5.1-.6 1q.15.1.25.2.4.35.75.65 2.3 2.2 2.8 4.65l1.8-2.9 1.65-2.65.6-.95 3.2-5.1 1.35-2.15 3.55-5.7 2.3-3.65.15-.3 9-12.55q1.2-3.15 1.6-5.25z"/><path fill="#090000" d="M615.6 246.1q-1-1-2.4-1H576.5q-1.4 0-2.4 1t-1 2.4v.05q0 .8.35 1.5.2.4.55.8l.1.1q.8.8 1.8.95.3.05.6.05h36.7q1.4 0 2.4-1l.3-.3q.7-.9.7-2.1v-.05q0-1.4-1-2.4z"/><path fill="#644F3A" d="M626.25 222.05l-1.3-.15q-4.35 1.05-4.45 13.65v.25l-.6 24.6q3.6.4 6.95 1.6l-.6-39.95z"/><path d="M628.3 219q-.25.1-.4.25-.3.2-.45.4-.65.75-.25 2.5l.05.1q.1.4.3.95l10.2 4.1q2.35-1.75 1.35-3.5l-10.75-4.75-.05-.05m24.2 65.2q-1.85-2.7-4.2-5.2-2.6-2.75-5.5-4.8-4.95-3.55-10.65-5.05-2.55-.65-5.2-.95-1.95-.2-3.95-.2-11.2 0-19.95 6.3-2.8 2.05-5.35 4.7-.5.5-.95 1.05-1.3 1.5-2.45 3.05-.75 1.05-1.45 2.15-.8 1.3-1.45 2.6-1.8 3.45-2.8 7.2h5.6q1.25-3.25 3.15-6.2l7.85 6.2h5.55l-8.85-7.15-2.45-1.95q.25-.35.55-.65.6-.75 1.3-1.5l.7-.7q1.65-1.7 3.4-3.05 1.2-.95 2.45-1.7 1.1-.7 2.25-1.25.1-.1.25-.15 2.5-1.3 5.2-2l.85 5.1.5 3 .4 2.35.4 2.5.4 2.3.8 4.85h3.05l-1.65-8.85-1.1-5.95-1.1-5.9q2.05-.4 4.25-.45.75-.05 1.5-.05 1.15 0 2.25.1.45 0 .9.05h.05q4.6.45 8.75 2.2l-4.75 9.15-5 9.7h4.5l1.45-3.2 1.65-3.55.75-1.6 3.35-7.15.9-1.95q4.15 2.35 7.75 6.2 1.15 1.25 2.2 2.6 2.35 3 3.9 6.4v-8.6z"/><path fill="#FCFFD0" d="M481.6 295.05h2.55l41.6-12.25 10.35-3.05-5.55-5.45-6.3-6.1q-1.7.1-3.4-.4l-3 3.75-1.1-.15 3.25-5.2-3.65.85-1.25 3-1 .35.9-4 2.35-1.35.55-.45-3.3.7-2.6 2.1-1.75.25 3.1-3.5 4.25-1.1-8 .2-39.6 12.3 11.6 19.5z"/><path fill="#502407" d="M599.4 197.25q-4.9-5.1-7.9-13.85l3.15 16.85q.75-.35 1.45-.7 1.95-1 3.3-2.3m-12.55-4.75q-.05.05-.1.05l-1.1 9.85q.75-.1 1.45-.2l1.15-11.55q-.4 1.35-1.4 1.85m-1.15.25q-.6.05-1.25-.1-.5 2.9-2.5 6-1.05 1.55-2.45 3.15l-.8.9.05.2h.45q2.7-.1 5.05-.35l1.45-9.8m-11.25-20.05q3.6 4.3 9.75 8.1-2.85-6.2-9.75-8.1m-1.45-.35q-1.1-.25-2.3-.35 4.85 5.75 13.8 10.65.25.1.55.25-.2-.5-.35-1-.1-.2-.15-.4-7.25-4.1-11.55-9.15m-11.05 2.7q-1.15 1.75-1.7 3.4l6.85-6.4q-3.6 1.3-5.15 3M559 176.8q-.05.2-.15.4-1.85 2.85-2.6 5.65-.45 2.05-.25 4.15.55-.15 1.3 0 .6.55 1.15 1.1l.25-6.45q.1-4 3.5-8 2.45-1.8 4.95-1.65.15 0 .3.05-.1.03-.2.05-.15 0-.2.05-2.7 3.65-7.2 7.65-.05.15-.05.3-.1.6-.15 1.2l.05.25-.2 7.8q.85 1.25 1.25 2.65-.4-2.55.55-5.1l-.15-1.35-.05-.1-.05-.45-.4-3.15-.15-1.1q4.7-4 7.5-7.6 5.8 6.6 16.25 10.5.55.2 1.15.45-.1-.3-.15-.55l-.9-.4q-10.5-5.05-14.4-11.25h-.35q-.7-.1-1.4-.1l-.25.05q2.882-1.227 5.25-.55 5 .45 9.05 3.7l.2.4q1.8 1.75 2.9 4 1.5 3.1 1.7 7.2.5 0 .85.3.15-4.3-1.05-8.6-.35-.9-.8-1.7-2.3-4-7.85-6.3-4.9-1.45-10.6-.1.95-1.2 5.25-1.6 3.1-.5 7.1 1.2 3.85 1.7 5.9 4.1.35.5.65 1 2.2 3.45 2.45 7.15l.4 19.75q2.1-.45 3.95-1.05l-3.55-23.3q-.05-.15-.1-.25-.95-2.5-2.6-4.3-4.2-4.6-12.95-5.2-11.7.3-15.1 9.1z"/><path fill="#241000" d="M586.75 192.55q-.5.2-1.05.2l-1.45 9.8q.7-.05 1.4-.15l1.1-9.85m-13.9-23.95q-4.3.4-5.25 1.6 5.7-1.35 10.6.1 5.55 2.3 7.85 6.3.45.8.8 1.7 1.2 4.3 1.05 8.6.8.75.6 3.15l-.15.1-.1.5-1.15 11.55q1.15-.2 2.25-.4l-.4-19.75q-.25-3.7-2.45-7.15-.3-.5-.65-1-2.05-2.4-5.9-4.1-4-1.7-7.1-1.2m-3.25 3.3h.35q3.9 6.2 14.4 11.25l.9.4q.05.25.15.55l.4.1-.05.9.5 1.6q.4-.15.8-.1-.2-4.1-1.7-7.2-1.1-2.25-2.9-4l-.2-.4q-4.05-3.25-9.05-3.7-2.368-.677-5.25.55l.25-.05q.7 0 1.4.1m1.1.1q1.2.1 2.3.35 4.3 5.05 11.55 9.15.05.2.15.4.15.5.35 1-.3-.15-.55-.25-8.95-4.9-13.8-10.65m13.5 8.8q-6.15-3.8-9.75-8.1 6.9 1.9 9.75 8.1m-24.55.5q.05-.6.15-1.2 0-.15.05-.3 4.5-4 7.2-7.65.05-.05.2-.05.1-.02.2-.05-.15-.05-.3-.05-2.5-.15-4.95 1.65-3.4 4-3.5 8l-.25 6.45q.1.1.15.2.05.05.15.1.4.45.75.95l.2-7.8-.05-.25m.6-2.85q.55-1.65 1.7-3.4 1.55-1.7 5.15-3l-6.85 6.4m-1.4-1.25q.1-.2.15-.4 3.4-8.8 15.1-9.1 8.75.6 12.95 5.2 1.65 1.8 2.6 4.3.05.1.1.25l3.55 23.3q.7-.25 1.35-.5l-3.15-16.85q3 8.75 7.9 13.85l.5-.5q-6.5-6.5-9.7-19.35-.95-3.1-2.95-5.3-4.2-4.6-12.95-5.2-11.7.3-15.1 9.1-.05.2-.15.4-2.1 3.25-2.8 6.45.75-2.8 2.6-5.65z"/><path fill="#7D5227" d="M570.35 184.45l.5-.6.15-.2q-4.45-5.9-8.85-2.35 5.2-1.6 8.2 3.15m13.55.45q.6.25 1.2.6-.55-.55-1.1-.95-4.4-3.55-8.2 0l.55 1.05q2.35-3.3 7.55-.7z"/><path fill="#A9C1CB" d="M530.75 169.55l-41.15 7.95 21.8 56.5.6.05 35-18.25-1.85-5.3-14.4-40.95m-34.3 13l33.8-6.75L542 212.3l-28.5 13.25-17.05-43z"/><path fill="#0380B8" d="M530.25 175.8l-33.8 6.75 17.05 43L542 212.3l-11.75-36.5z"/><path fill="#FFFDED" d="M565.05 187.55q-.15.2-.35.35 1.45.3 2.85.1.75-.15 1.5-.4-1.8-1.05-3.8-1.6.15.35.15.7 0 .5-.35.85m-1.8-1.95q-.65-.1-1.25-.1.15 1.1 1.25 1.85-.15-.3-.25-.55-.15-.25.25-1.2M584 189q-.55-.15-1.1-.25-1.95-.4-4-.2.15.3.15.65 0 .5-.35.85-.25.35-.65.4l2.2.35q1.3-.1 2.3-.55.9-.5 1.45-1.25z"/><path fill="#6E3D8C" d="M556 187q-.15 0-.25.05-.5.15-.85.5 1.05 5.25 2.8 9.55 2.9 7.4 7.75 12.15 2.8.1 3.85-2.4l-.25-.4q-.1-.1-.2-.15-4.15-4.2-6.3-8.85-.8-1.8-1.35-3.65l-.2-.7q-.2-.55-.25-1.1-.4-1.4-1.25-2.65-.35-.5-.75-.95-.1-.05-.15-.1-.05-.1-.15-.2-.55-.55-1.15-1.1-.75-.15-1.3 0z"/><path fill="#551D64" d="M554.9 187.55q-.85.75-1.15 2.35l.1.2q.1 2.05.55 4.1 1.6 7.35 7.35 13.75.2.25.45.5.2.05.45.15 1.55.55 2.8.65-4.85-4.75-7.75-12.15-1.75-4.3-2.8-9.55z"/><path fill="#9F6C51" d="M565.65 184.35q-3.2-.15-3.35.55 4.6-.3 7.05 2.8 0-1.75-3.7-3.35m9.75 4.7q.7-.4 1.6-.65.65-.2 1.35-.35 2.1-.4 4.8-.2l1.2.1q-.55-.3-1.1-.45-1.75-.65-3.85-.6-3.05.6-4 2.15z"/><path fill="#401C10" d="M561.05 185l.05.45.05.1q.95 2.05 2.55 2.25-.15-.1-.3-.25-.1-.1-.15-.2-1.1-.75-1.25-1.85.6 0 1.25.1-.4.95-.25 1.2.1.25.25.55.4.25.95.5l.15.15q.2-.05.35-.1.2-.15.35-.35.35-.35.35-.85 0-.35-.15-.7 2 .55 3.8 1.6l.4.2-.1-.1q-2.45-3.1-7.05-2.8-.35 0-.7.05-.3 0-.55.05m15.7 4.2q0 .5.3.85t.7.4h.3q.4-.05.65-.4.35-.35.35-.85 0-.35-.15-.65 2.05-.2 4 .2.55.1 1.1.25-.55.75-1.45 1.25-1 .45-2.3.55h-.3q1.35.15 2.45-.05 1.65-.3 2.65-1.45l.75-1.15q-.75-.1-1.45-.2l-1.2-.1q-2.7-.2-4.8.2-.7.15-1.35.35-.9.25-1.6.65l-.2.1-.2.25q.9-.3 1.8-.5-.05.15-.05.3z"/><path fill="#FFCA9B" d="M560.5 180.75l.15 1.1q1.4-.45 1.5-.55 4.4-3.55 8.85 2.35l-.15.2q.5 4.6-1.7 9.85.8-4.85-1.6-5.7-1.4.2-2.85-.1-.15.05-.35.1l-.15-.15h-.1q-.2 0-.4-.05-1.6-.2-2.55-2.25l.15 1.35q-.95 2.55-.55 5.1.05.55.25 1.1l.2.7q.55 1.85 1.35 3.65 2.15 4.65 6.3 8.85.1.05.2.15 3.15.55 6.3-1.05.7-.35 1.45-.85.9-.85 1.7-1.65l.2-.2.8-.9q1.4-1.6 2.45-3.15 2-3.1 2.5-6 .65.15 1.25.1.55 0 1.05-.2.05 0 .1-.05 1-.5 1.4-1.85l.1-.5.15-.1q.2-2.4-.6-3.15-.35-.3-.85-.3-.4-.05-.8.1-.25.1-.55.2l.05-1.8.05-.9-.4-.1q-.6-.25-1.15-.45-10.45-3.9-16.25-10.5-2.8 3.6-7.5 7.6m5.25 16.9h.05q4.65-1.6 10.15.65.4.15.85.35-2.25 4.1-4.6 5.1-2.6.65-4.15-1.65l-2.3-4.45m19.35-12.15q-.6-.35-1.2-.6-5.2-2.6-7.55.7l-.55-1.05q3.8-3.55 8.2 0 .55.4 1.1.95m-8.05 4.55q-.3-.35-.3-.85 0-.15.05-.3-.9.2-1.8.5l.2-.25.2-.1q.95-1.55 4-2.15 2.1-.05 3.85.6.55.15 1.1.45.7.1 1.45.2l-.75 1.15q-1 1.15-2.65 1.45-1.1.2-2.45.05h.3l-2.2-.35h-.3q-.4-.05-.7-.4z"/><path fill="#823116" d="M565.8 197.65h-.05l2.3 4.45q1.55 2.3 4.15 1.65 2.35-1 4.6-5.1-.45-.2-.85-.35-5.5-2.25-10.15-.65m10.2 1.45q-2.25 3.8-4.9 3.65-2.95-.65-4.75-4.65 5.2-.4 9.65 1z"/><path fill="#FFF0FC" d="M571.1 202.75q2.65.15 4.9-3.65-4.45-1.4-9.65-1 1.8 4 4.75 4.65z"/><path fill="#EAAA87" d="M560.65 181.85l.4 3.15q.25-.05.55-.05.35-.05.7-.05.15-.7 3.35-.55 3.7 1.6 3.7 3.35l.1.1-.4-.2q-.75.25-1.5.4 2.4.85 1.6 5.7 2.2-5.25 1.7-9.85l-.5.6q-3-4.75-8.2-3.15-.1.1-1.5.55z"/></g><path fill="#7F9097" d="M528.1 252v.75h2v-.7l-2-.05m.75 1.3l-2-.05v.75h2v-.7m-.05-3.25l-2-.05v.75h2v-.7m1.5-.3v-.7l-2-.05v.75h2m1.4 2v-.7l-2-.05v.75h2m.25-2.85v-.7l-2-.05v.75h2m1.25 1.85v-.7l-2-.05v.75h2m1.65-1.55l-2-.05v.75h2v-.7m-22.85-.15h2v-.7l-2-.05v.75m8.05 1.3l-2-.05v.75h2v-.7m-3.15-.3v-.7l-2-.05v.75h2m1.25-1.25v-.7l-2-.05v.75h2m1.15 1h2v-.7l-2-.05v.75m4.9.3l-2-.05v.75h2v-.7m1 .9v.75h2v-.7l-2-.05m-2.25 1.05v-.7l-2-.05v.75h2m1 .2v.75h2v-.7l-2-.05m-1.05-3.45v-.7l-2-.05v.75h2m2.9 1v-.7l-2-.05v.75h2m-.5-1.75v.75h2v-.7l-2-.05m.75-1.1v-.7l-2-.05v.75h2m-1.65.15l-2-.05v.75h2v-.7m-4.65 0l-2-.05v.75h2v-.7m.25-2.15v-.7l-2-.05v.75h2m.9.25v.75h2v-.7l-2-.05m.35.9l-2-.05v.75h2v-.7m-4.9-1.05v.75h2v-.7l-2-.05m-1.1 2.05l-2-.05v.75h2v-.7m-.4-1.05v.75h2v-.7l-2-.05m22.7 1.2l-2-.05v.75h2v-.7m1.25-1.25l-2-.05v.75h2v-.7m-3.3-2.05v.75h2v-.7l-2-.05m-1.6 1v.75h2v-.7l-2-.05m-1.25 1.25v.75h2v-.7l-2-.05m-3.7 1.05l-2-.05v.75h2v-.7m-1.8-4.3v-.7l-2-.05v.75h2m1.4 1.3l-2-.05v.75h2v-.7m.25-2.15v-.7l-2-.05v.75h2m.9.25v.75h2v-.7l-2-.05m.35 1.6v-.7l-2-.05v.75h2z" id="c"/><path fill="#7F9097" d="M547.55 230.55v.75h.65q0-.45.2-.7l-.85-.05m-6.15 8.65l-2-.05v.75h2v-.7m-3.6.95v.75h2v-.7l-2-.05m3.85-3.8l-2-.05v.75h2v-.7M540 237.9v-.7l-2-.05v.75h2m2.9 1v-.7l-2-.05v.75h2m2.35-2.1q.05-.45.35-.7l-1.65-.05v.75h1.3m-.7 1.25v-.7l-2-.05v.75h2m-8 3.35v.75h2v-.7l-2-.05m-8.95-3v.75h2v-.7l-2-.05m3.25-.5v-.7l-2-.05v.75h2m5.65.25v.75h2v-.7l-2-.05m-1.6 1v.75h2v-.7l-2-.05m-2.4 1v-.7l-2-.05v.75h2m1.15.25v.75h2v-.7l-2-.05m-1.2-3.5v-.7l-2-.05v.75h2m-.5-1h2v-.7l-2-.05v.75m1.8 2.3l-2-.05v.75h2v-.7m2.75-2.9v.75h2v-.7l-2-.05m-1.65.85v.75h2v-.7l-2-.05m.5 1.75v-.7l-2-.05v.75h2m.25-2.85v-.7l-2-.05v.75h2m8.05.05l-2-.05v.75h2v-.7m2.35-3.3v.75h1.5q.1-.45.5-.7l-2-.05m.35 3.05l-1.15-.05v.75h.8q.05-.45.35-.7m.15-2l-2-.05v.75h2v-.7m-3.6.95v.75h2v-.7l-2-.05m3.65-3.55l-2-.05v.75h2v-.7m-1.65 1.55v-.7l-2-.05v.75h2m-3.5.25v.75h2v-.7l-2-.05m-1.6 1v.75h2v-.7l-2-.05m-2.15 1v-.7l-2-.05v.75h2m.9.25v.75h2v-.7l-2-.05m-1.65-1.5h2v-.7l-2-.05v.75m3.1-2.75v.75h2v-.7l-2-.05m.5 1.75v-.7l-2-.05v.75h2m1.15-2.6v.75h2v-.7l-2-.05z" id="d"/><path id="b" stroke="#606" stroke-linejoin="round" stroke-linecap="round" fill="none" d="M627.55 223.2q.05.15.15.35m-40.85 29.4l-13.4 5.1m35.55-5l3.05 4.9"/></defs><g transform="translate(-465.75 -149.4)"><use xlink:href="#a"/><use xlink:href="#b"/></g><use xlink:href="#c" transform="translate(-465.75 -149.4)"/><use xlink:href="#d" transform="translate(-465.75 -149.4)"/></svg>