
<svg xmlns="http://www.w3.org/2000/svg" version="1.1" xmlns:xlink="http://www.w3.org/1999/xlink" preserveAspectRatio="none" x="0px" y="0px" width="167px" height="128px" viewBox="0 0 167 128">
<defs>
<g id="Layer0_0_FILL">
<path fill="#B28158" stroke="none" d="
M 176.3 285.2
Q 176.3 285.5 176.4 285.85 176.8 285.4 177.25 285.05 177.25 284.5 177.3 283.95 176.8 284.6 176.3 285.2
M 190.45 260.8
L 186.7 257 191.25 257.35 190.45 254.75
Q 190.55 255.25 190.7 255.8
L 184.6 256.1 189.2 261.4
Q 184.85 273.75 178.35 282.55 178.4 283.15 178.4 283.85 182.55 279.5 184.9 274.2
L 185.05 273.85
Q 188.7 267.3 190.45 260.8
M 154.25 259.1
L 143.8 260.8
Q 141.6826171875 256.1220703125 140.5 251.35 141.8224609375 258.8 143.2 261.65 143.3 261.9 143.45 262.15
L 152.1 260.9 148.6 271.2
Q 160.85 275.3 168.05 281.65 160.25 273.75 150.3 268.85
L 154.25 259.1 Z"/>

<path fill="#CF7A43" stroke="none" d="
M 174.6 269
Q 174.25 267.95 173.8 266.95 172.35 263.75 170.45 260.55 171.5 265.4 173.15 270.15 173.7 271.7 174.25 273.2 174.45 271.1 174.6 269
M 153.45 231.4
L 153.25 231
Q 152.5 231.9 151.7 232.8 153.7 235.65 156.25 237.2
L 153.45 231.4
M 179.65 184.6
Q 177.9 185.15 176.35 186 171.3 188.7 168.4 194.35 168.1 194.85 167.85 195.4 166.7 197.85 165.6 199.8 167.4 198.1 170.55 197.4 171.4 197.25 174.95 198.6 176.3 199.05 178.05 199.8 178.9 200.15 179.85 200.5
L 179.05 202.3
Q 176.65 200.95 174.35 200.35 173.9 200.25 173.35 200.15 169.1 199.15 165.25 200.5
L 165.25 200.6 165.15 200.6
Q 164.55 201.65 163.95 202.55 161.2 206.45 158.3 207.45 158.25 209.7 157.05 211.25 156.45 212.15 155.7 212.6 156.75 213.95 157.85 215.3
L 157.95 215.35
Q 162.75 221.25 168.95 226.6
L 174.95 227.45 174.9 229.55 168.35 228.4
Q 163.5 224.2 159.35 219.55
L 159.35 219.5 159.3 219.5 159.3 219.45
Q 158.65 218.75 158.05 218.1 157.6 217.6 157.25 217.15 157.4 223.6 154.85 228.45 154.5 229.1 154.1 229.75
L 158.95 239.45
Q 163.9 242.9 167.9 242.45
L 168.05 243.1
Q 168.3 249.05 169.3 254.85 169.4 255.55 169.55 256.25 169.9 256.85 170.25 257.5 172.4 261.35 174.15 265.3 174.45 266.05 174.8 266.85 174.95 263.7 175.15 260.65 175.15 258.65 175.25 256.75 175.25 254.5 175.25 252.3 175.25 250.1 175.15 247.95 175.15 247 175.15 246.1 175.05 245.95 175.05 245.85 174.05 241.85 174.05 237.8 174.05 237.7 174.05 237.65 174 235.2 174.35 232.65 172.9 235.45 171.25 236.45 169.3 237.55 167.05 236.3 165.05 234.8 163.6 232.7 160.35 227.9 159.35 219.6
L 161.6 222.85 168.05 228.95
Q 170.55 230.85 173.1 231.55 173.9 231.85 174.6 232.05 178.7 232.95 181.55 229.4 182 228.8 182.45 228.15
L 182.5 228.05 185.2 223.55
Q 190 216.45 189.7 213
L 190 211.75 190.55 208 190.8 206.75
Q 190.7 206.65 190.65 206.65 190.3 207.7 188.95 208.25 188.65 208.35 188.4 208.35 188 208.6 187.55 208.6 187.2 208.6 186.9 208.45 186.4 208.35 185.95 208.25 185.25 207.95 184.7 207.5
L 184.75 206.9
Q 185.3 206 185.9 205.5 186.2 205.3 186.6 205.15 187.2 204.9 187.95 204.9 189.15 204.9 190 205.5 190.3 205.75 190.5 206 190.55 206.1 190.65 206.2
L 190.65 206.25
Q 192.25 203.7 191.8 201.15 191.45 200.8 190.65 200.8 189.5 200.85 187.3 201.65 186.7 201.85 186.05 202.15
L 186.05 202.2
Q 182.9 204.4 183.6 216.5 183.6 216.7 183.7 217
L 182.35 219.1 180.9 217 182.8 216.2 182.8 216.15
Q 181.9 203.35 185.35 201.25
L 186.15 200.85
Q 186.2 200.8 186.3 200.8 187 200.35 187.65 200.05 187.75 200.05 187.9 199.95 191 198.65 192.1 200.15 192 199.25 191.9 198.3 191.15 194 189.5 191.05 188.2 188.8 186.35 187.4 184.35 185.9 181.7 185.35
L 172.8 173.2 179.65 184.6
M 173.95 208.15
Q 173.8 208.25 173.7 208.15 172.25 208.35 171.15 207.9 170.2 207.45 167.35 206.05 166.85 205.8 166.25 205.55 166.25 205.5 166.15 205.5 166.25 205.45 166.25 205.4
L 165.25 205.05
Q 167.15 203.7 168.5 203.45 169.85 203.2 172.55 203.4 175.3 203.55 177.15 207.2 175.6 208 173.95 208.15
M 180.8 221.35
L 182.05 221.05 183.9 221.95
Q 183.45 223.05 182.6 224.25 182.55 224.3 182.55 224.35 182.15 224.9 181.7 225.55 181.6 225.6 181.5 225.7 180.2 226.7 178.15 226.25 175.5 225.25 173.35 221.3
L 179.85 220.9 180.8 221.35 Z"/>

<path fill="#C1B7AE" stroke="none" d="
M 169.55 256.25
Q 169.65 256.9 169.8 257.55 170.05 259.1 170.45 260.55 172.35 263.75 173.8 266.95 174.25 267.95 174.6 269 175.75 271.85 176.45 274.75 176.8 276.65 177 278.55 177.3 281.2 177.3 283.95 177.25 284.5 177.25 285.05 177.2 287.85 176.8 290.75 176.8 291.6 176.85 292.5 176.7 292.25 176.6 292.15 176.55 292.3 176.55 292.5 176.35 293.75 176.05 295.05
L 177.65 295.05
Q 177.8 293.85 178 292.6 178.5 288.25 178.4 283.85 178.4 283.15 178.35 282.55 178.25 279.3 177.8 276.05 177.65 275.15 177.5 274.3 176.35 270.55 174.8 266.85 174.45 266.05 174.15 265.3 172.4 261.35 170.25 257.5 169.9 256.85 169.55 256.25
M 151.55 213
Q 150.6 217.6 151.05 222.15 151.3 224.55 151.95 227 152.45 228.85 153.2 230.7
L 153.2 230.8
Q 153.25 230.9 153.3 230.95 153.35 231.15 153.45 231.4
L 156.25 237.2 156.4 237.55
Q 157.7 238.6 158.95 239.45
L 154.1 229.75
Q 154.05 229.8 154 229.9 153.55 228.75 153.25 227.65 152.3 224.45 152.05 221.15 151.8 217.35 152.45 213.35 152.5 212.9 152.6 212.45 152.2 212.2 151.8 211.8 151.65 212.4 151.55 213
M 161.2 181.45
Q 157.05 184.05 154.6 190.35 152.65 195.35 151.85 202.65 152.9 201.5 154.25 201.5 154.4 201.5 154.55 201.5 154.8 195.95 156.5 190.9 158.15 185.95 161.2 181.45 Z"/>

<path fill="#FDFAC7" stroke="none" d="
M 162.15 258.75
L 162.2 258.85
Q 164.2 261.3 165.15 262.2
L 165.25 262.6
Q 169.75 267.55 172.5 273.2 174.6 277.5 175.7 282.15 176.4 280.35 177 278.55 176.8 276.65 176.45 274.75 175.75 271.85 174.6 269 174.45 271.1 174.25 273.2 173.7 271.7 173.15 270.15 171.5 265.4 170.45 260.55 170.05 259.1 169.8 257.55 169.65 256.9 169.55 256.25 169.4 255.55 169.3 254.85 163.3 252.35 160.8 256.95 161.5 258 162.15 258.75
M 180.65 253.35
Q 178.4 251.8 177 251.65 175.85 251.45 175.25 252.3 175.25 254.5 175.25 256.75 175.15 258.65 175.15 260.65 174.95 263.7 174.8 266.85 176.35 270.55 177.5 274.3 177.65 275.15 177.8 276.05 180.85 265.55 180.75 255.9 180.7 254.6 180.65 253.35
M 174.05 237.65
Q 174.05 237.7 174.05 237.8 174.05 241.85 175.05 245.85 175.05 245.95 175.15 246.1 175.15 247 175.15 247.95
L 175.4 244.7 179.65 252.6 179.45 244.8 179.4 244.2 178.1 241.65 176.15 237.75 174.05 237.65
M 148.75 233.25
L 148.6 233.45
Q 151 240.95 155 247.45 157.5 251.45 160.55 255.1 162.7 248.85 168.05 243.1
L 167.9 242.45
Q 163.9 242.9 158.95 239.45 157.7 238.6 156.4 237.55
L 156.25 237.2
Q 153.7 235.65 151.7 232.8 151.35 231.85 151.25 230.75
L 148.75 233.25 Z"/>

<path fill="#D9DDA2" stroke="none" d="
M 175.15 247.95
Q 175.25 250.1 175.25 252.3 175.85 251.45 177 251.65 178.4 251.8 180.65 253.35 180.35 248.95 179.45 244.8
L 179.65 252.6 175.4 244.7 175.15 247.95
M 160.55 255.1
Q 157.5 251.45 155 247.45 158.5 253.7 160.8 256.95 163.3 252.35 169.3 254.85 168.3 249.05 168.05 243.1 162.7 248.85 160.55 255.1 Z"/>

<path fill="#070200" stroke="none" d="
M 181.55 242.55
Q 181.6 242.5732421875 181.6 242.65 183.6 243.45 185.2 245 185.85 244.4 186.4 243.85 188.85 241.05 187.55 238.6 186.9 242.3 184.35 242.8 183.1578125 242.9986328125 181.55 242.55
M 181.55 229.4
Q 178.7 232.95 174.6 232.05 174.5 232.2 174.45 232.4 174.4 232.5 174.35 232.65 174 235.2 174.05 237.65
L 176.15 237.75 178.1 241.65
Q 178.55 241.65 179.05 241.75 180.3 242.1 181.5 242.55
L 181.55 242.55
Q 181.25 241.85 181.05 241.2 179.4 235.9 182.5 228.05
L 182.45 228.15
Q 182 228.8 181.55 229.4
M 152.6 212.45
Q 152.5 212.9 152.45 213.35 151.8 217.35 152.05 221.15 152.3 224.45 153.25 227.65 153.55 228.75 154 229.9 154.05 229.8 154.1 229.75 154.5 229.1 154.85 228.45 157.4 223.6 157.25 217.15 157.05 216.8 156.75 216.5 155.8 215.35 154.95 214.25 154.45 213.6 154 212.95 153.25 212.9 152.6 212.45
M 172.75 173.15
L 172.5 172.75
Q 170.7 172.75 169 172.85 151.6 173.95 148.95 188.75 148.5 191.5 148.5 194.75 148.5 194.9 148.5 195.05
L 148.35 195.35
Q 143.7 198.2 141.1 209.15 141.05 209.35 140.95 209.5 139.95 214 139.25 219.75 139.25 220.25 139.2 220.8 138.15 239.75 129.3 240.5 131.5 240.7 133.65 239.3 135.25 238.2 136.85 236.15 138.6 233.8 140.3 230.3 140.3 231.65 140.1 232.9 139.25 238.4 135.35 241.8
L 139.25 240.35
Q 139.25 239.8 139.25 239.25
L 148.4 232.1 148.75 233.25 151.25 230.75
Q 151.35 231.85 151.7 232.8 152.5 231.9 153.25 231
L 153.2 230.8 153.2 230.7
Q 152.45 228.85 151.95 227 151.3 224.55 151.05 222.15 150.6 217.6 151.55 213 151.65 212.4 151.8 211.8 151.6 211.55 151.4 211.25 150.25 209.6 150.25 207.2 150.25 206.75 150.3 206.35 150.4 204.55 151.4 203.15 151.6 202.85 151.85 202.65 152.65 195.35 154.6 190.35 157.05 184.05 161.2 181.45 158.15 185.95 156.5 190.9 154.8 195.95 154.55 201.5 156 201.65 157.05 203.15 157.4 203.65 157.7 204.15 158.3 205.5 158.3 207.2 158.3 207.35 158.3 207.45 161.2 206.45 163.95 202.55 164.55 201.65 165.15 200.6
L 165.25 200.6 165.25 200.5
Q 165.4 200.15 165.6 199.8 166.7 197.85 167.85 195.4 168.1 194.85 168.4 194.35 171.3 188.7 176.35 186 177.9 185.15 179.65 184.6
L 172.8 173.2 181.7 185.35
Q 184.35 185.9 186.35 187.4 188.2 188.8 189.5 191.05 191.15 194 191.9 198.3 192 199.25 192.1 200.15 191 198.65 187.9 199.95 187.75 200.05 187.65 200.05 187 200.35 186.3 200.8 186.2 200.8 186.15 200.85
L 186.05 202.15
Q 186.7 201.85 187.3 201.65 189.5 200.85 190.65 200.8 191.45 200.8 191.8 201.15 192.25 203.7 190.65 206.25 190.9 206.6 190.9 207.05 190.9 207.6 190.55 208
L 190 211.75
Q 193.5 206.45 193.75 201.7 193.75 201.05 193.75 200.4 193.75 199.35 193.7 198.2 193.3 192.5 190.25 187.4
L 190.05 186.8
Q 189.4 185.85 188.75 185 185.05 180.2 181.05 177.2 177.75 174.6 174.15 173.3
L 172.75 173.15 Z"/>

<path fill="#DDB087" stroke="none" d="
M 178.1 241.65
L 179.4 244.2 179.45 244.8
Q 180.35 248.95 180.65 253.35 180.7 254.6 180.75 255.9 180.85 265.55 177.8 276.05 178.25 279.3 178.35 282.55 184.85 273.75 189.2 261.4
L 184.6 256.1 190.7 255.8
Q 190.55 255.25 190.45 254.75
L 191.25 257.35 186.7 257 190.45 260.8
Q 188.7 267.3 185.05 273.85
L 184.9 274.2
Q 182.55 279.5 178.4 283.85 178.5 288.25 178 292.6 177.8 293.85 177.65 295.05
L 185.3 295.05 196.75 251.75 186.65 246.6
Q 185.95 245.7 185.2 245 183.6 243.45 181.6 242.65 181.55078125 242.5515625 181.5 242.55 180.3 242.1 179.05 241.75 178.55 241.65 178.1 241.65
M 124.2 245.9
Q 124.1 245.95 124 246 123.45 246.25 122.95 246.55 122.95 247.65 123 248.7 123 249.2 123.05 249.75 123.4 257.15 124.3 264.55 125.95 276.95 129.35 289.1 124.2 281.2 121.8 272.95
L 125.8 295.05 176.05 295.05
Q 176.35 293.75 176.55 292.5 176.55 292.3 176.6 292.15 176.7 291.4 176.8 290.75 177.2 287.85 177.25 285.05 176.8 285.4 176.4 285.85 176.3 285.5 176.3 285.2 176.8 284.6 177.3 283.95 177.3 281.2 177 278.55 176.4 280.35 175.7 282.15 174.6 277.5 172.5 273.2 169.75 267.55 165.25 262.6
L 165.15 262.2
Q 164.2 261.3 162.2 258.85
L 162.15 258.75
Q 161.5 258 160.8 256.95 158.5 253.7 155 247.45 151 240.95 148.6 233.45
L 148.75 233.25 148.4 232.1 139.25 239.25
Q 139.25 239.8 139.25 240.35
L 135.35 241.8 124.2 245.9
M 143.8 260.8
L 154.25 259.1 150.3 268.85
Q 160.25 273.75 168.05 281.65 160.85 275.3 148.6 271.2
L 152.1 260.9 143.45 262.15
Q 143.3 261.9 143.2 261.65 141.8224609375 258.8 140.5 251.35 141.6826171875 256.1220703125 143.8 260.8
M 146.6 290.15
L 146.65 290.55
Q 146.55 290.4 146.6 290.3 146.6 290.2 146.6 290.15 Z"/>

<path fill="#180700" stroke="none" d="
M 179.05 202.3
L 179.85 200.5
Q 178.9 200.15 178.05 199.8 176.3 199.05 174.95 198.6 171.4 197.25 170.55 197.4 167.4 198.1 165.6 199.8 165.4 200.15 165.25 200.5 169.1 199.15 173.35 200.15 173.9 200.25 174.35 200.35 176.65 200.95 179.05 202.3
M 186.05 206.35
Q 185.95 206.6 185.95 206.9 185.95 207.25 186.1 207.55 186.2 207.9 186.45 208.05 186.65 208.35 186.9 208.45 187.6 208.5 188.4 208.35 188.55 208.25 188.7 208.05 189.15 207.6 189.15 206.9 189.15 206.4 188.9 205.95 189.75 206.15 190.65 206.65 190.7 206.65 190.8 206.75
L 190.55 208
Q 190.9 207.6 190.9 207.05 190.9 206.6 190.65 206.25
L 190.65 206.2
Q 190.55 206.1 190.5 206 190.3 205.75 190 205.5 189.15 204.9 187.95 204.9 187.2 204.9 186.6 205.15 186.2 205.3 185.9 205.5 185.3 206 184.75 206.9
L 184.7 207.5
Q 185.35 206.75 186.05 206.35
M 187.65 206.55
Q 188.15 206.55 188.15 207.05 188.15 207.55 187.65 207.55 187.15 207.55 187.15 207.05 187.15 206.55 187.65 206.55
M 173.95 205.15
Q 174.05 205.15 174.25 205.25 175.8 205.9 177.15 207.2 175.3 203.55 172.55 203.4 169.85 203.2 168.5 203.45 167.15 203.7 165.25 205.05
L 166.25 205.4
Q 166.25 205.45 166.15 205.5 166.25 205.5 166.25 205.55 167.5 205.05 168.65 204.8 170 204.5 171.25 204.6 170.65 205.35 170.65 206.05 170.65 206.75 171.15 207.2 171.6 207.7 172.3 207.7 173 207.7 173.5 207.2 173.95 206.75 173.95 206.05 173.95 205.65 173.95 205.15
M 172.4 205.35
Q 172.9 205.35 172.9 205.85 172.9 206.35 172.4 206.35 171.9 206.35 171.9 205.85 171.9 205.35 172.4 205.35 Z"/>

<path fill="#B3713D" stroke="none" d="
M 183.6 216.5
L 182.8 216.2 180.9 217 182.35 219.1 183.7 217
Q 183.6 216.7 183.6 216.5 Z"/>

<path fill="#FFEECC" stroke="none" d="
M 188.9 205.95
Q 189.15 206.4 189.15 206.9 189.15 207.6 188.7 208.05 188.55 208.25 188.4 208.35 188.65 208.35 188.95 208.25 190.3 207.7 190.65 206.65 189.75 206.15 188.9 205.95
M 185.95 206.9
Q 185.95 206.6 186.05 206.35 185.35 206.75 184.7 207.5 185.25 207.95 185.95 208.25 186.4 208.35 186.9 208.45 186.65 208.35 186.45 208.05 186.2 207.9 186.1 207.55 185.95 207.25 185.95 206.9
M 174.25 205.25
Q 174.05 205.15 173.95 205.15 173.95 205.65 173.95 206.05 173.95 206.75 173.5 207.2 173 207.7 172.3 207.7 171.6 207.7 171.15 207.2 170.65 206.75 170.65 206.05 170.65 205.35 171.25 204.6 170 204.5 168.65 204.8 167.5 205.05 166.25 205.55 166.85 205.8 167.35 206.05 170.2 207.45 171.15 207.9 172.25 208.35 173.7 208.15 173.8 208.25 173.95 208.15 175.6 208 177.15 207.2 175.8 205.9 174.25 205.25 Z"/>

<path fill="#FFFFFF" stroke="none" d="
M 188.15 207.05
Q 188.15 206.55 187.65 206.55 187.15 206.55 187.15 207.05 187.15 207.55 187.65 207.55 188.15 207.55 188.15 207.05
M 172.9 205.85
Q 172.9 205.35 172.4 205.35 171.9 205.35 171.9 205.85 171.9 206.35 172.4 206.35 172.9 206.35 172.9 205.85 Z"/>

<path fill="#AB5A2D" stroke="none" d="
M 186.05 202.15
L 186.15 200.85 185.35 201.25
Q 181.9 203.35 182.8 216.15
L 182.8 216.2 183.6 216.5
Q 182.9 204.4 186.05 202.2
L 186.05 202.15 Z"/>

<path fill="#1A1A1A" stroke="none" d="
M 220.2 245.95
L 217.3 241.2 217 241.1 203.25 295.05 206.85 295.05 220.2 245.95 Z"/>

<path fill="#030000" stroke="none" d="
M 259.85 244.8
L 263.65 249.05 220.25 246 220.2 245.95 206.85 295.05 256.4 295.05 272.3 234.75 206.9 227.7 190 295.05 203.25 295.05 217 241.1 217.3 241.2 259.85 244.8 Z"/>

<path fill="#3B3B3B" stroke="none" d="
M 263.65 249.05
L 259.85 244.8 217.3 241.2 220.2 245.95 220.25 246 263.65 249.05 Z"/>

<path fill="#45444A" stroke="none" d="
M 272.3 234.65
L 268.85 233.15 203.8 224.9 196.75 251.75 185.3 295.05 190 295.05 206.9 227.7 272.3 234.75 272.3 234.65 Z"/>

<path fill="#8ED4DC" stroke="none" d="
M 268.85 233.15
L 272.3 234.65 272.3 234.75 256.4 295.05 275.6 295.05 275.6 220.8
Q 237.25 196.2 193.7 198.2 193.75 199.35 193.75 200.4 193.75 201.05 193.75 201.7 193.5 206.45 190 211.75
L 189.7 213
Q 190 216.45 185.2 223.55
L 182.5 228.05
Q 179.4 235.9 181.05 241.2 181.25 241.85 181.55 242.55
L 181.55 242.55
Q 183.1578125 242.9986328125 184.35 242.8 186.9 242.3 187.55 238.6 188.85 241.05 186.4 243.85 185.85 244.4 185.2 245 185.95 245.7 186.65 246.6
L 196.75 251.75 203.8 224.9 268.85 233.15
M 140.95 209.5
Q 134.3 212 127.45 215.05 117.9 219.3 108 224.55
L 108 295.05 119.9 295.05 116.1 277.2
Q 115.45 270.95 115.55 265.85 115.65 260.1 116.8 255.95 118 251.45 120.4 248.7 121.5 247.4 122.95 246.55 123.45 246.25 124 246 124.1 245.95 124.2 245.9
L 135.35 241.8
Q 139.25 238.4 140.1 232.9
L 136.85 236.15
Q 135.25 238.2 133.65 239.3 131.5 240.7 129.3 240.5 138.15 239.75 139.2 220.8 139.25 220.25 139.25 219.75 139.95 214 140.95 209.5 Z"/>

<path fill="#D4A37B" stroke="none" d="
M 120.4 248.7
Q 118 251.45 116.8 255.95 115.65 260.1 115.55 265.85 115.45 270.95 116.1 277.2
L 119.9 295.05 125.8 295.05 121.8 272.95
Q 124.2 281.2 129.35 289.1 125.95 276.95 124.3 264.55 123.4 257.15 123.05 249.75 123 249.2 123 248.7 122.95 247.65 122.95 246.55 121.5 247.4 120.4 248.7 Z"/>

<path fill="#8F552D" stroke="none" d="
M 161.6 222.85
L 159.35 219.6
Q 160.35 227.9 163.6 232.7 165.05 234.8 167.05 236.3 169.3 237.55 171.25 236.45 172.9 235.45 174.35 232.65 174.4 232.5 174.45 232.4 174.5 232.2 174.6 232.05 173.9 231.85 173.1 231.55 170.55 230.85 168.05 228.95
L 161.6 222.85 Z"/>

<path fill="#EEC79E" stroke="none" d="
M 157.95 215.35
L 157.85 215.3
Q 156.75 213.95 155.7 212.6 155.05 212.95 154.25 212.95 154.1 212.95 154 212.95 154.45 213.6 154.95 214.25 155.8 215.35 156.75 216.5 157.05 216.8 157.25 217.15 157.6 217.6 158.05 218.1 158.65 218.75 159.3 219.45
L 159.3 219.5 159.35 219.5 159.35 219.55
Q 163.5 224.2 168.35 228.4
L 174.9 229.55 174.95 227.45 168.95 226.6
Q 162.75 221.25 157.95 215.35 Z"/>

<path fill="#FFF1D6" stroke="none" d="
M 157.05 203.15
Q 156 201.65 154.55 201.5 154.4 201.5 154.25 201.5 152.9 201.5 151.85 202.65 151.6 202.85 151.4 203.15 150.4 204.55 150.3 206.35 150.25 206.75 150.25 207.2 150.25 209.6 151.4 211.25 151.6 211.55 151.8 211.8 152.2 212.2 152.6 212.45 153.25 212.9 154 212.95 154.1 212.95 154.25 212.95 155.05 212.95 155.7 212.6 156.45 212.15 157.05 211.25 158.25 209.7 158.3 207.45 158.3 207.35 158.3 207.2 158.3 205.5 157.7 204.15 157.4 203.65 157.05 203.15
M 183.5 222.2
Q 183.25 222.2 183 222.25 181.2 222.55 178.55 222.3
L 173.6 221.55
Q 176.4 224.2 179.85 224.75 180.9 224.7 181.8 224.1 182.35 223.65 182.9 223.05 183.15 222.65 183.5 222.2 Z"/>

<path fill="#BC5F4E" stroke="none" d="
M 182.05 221.05
L 180.8 221.35 179.85 220.9 173.35 221.3
Q 175.5 225.25 178.15 226.25 180.2 226.7 181.5 225.7 181.6 225.6 181.7 225.55 182.15 224.9 182.55 224.35 182.55 224.3 182.6 224.25 183.45 223.05 183.9 221.95
L 182.05 221.05
M 183 222.25
Q 183.25 222.2 183.5 222.2 183.15 222.65 182.9 223.05 182.35 223.65 181.8 224.1 180.9 224.7 179.85 224.75 176.4 224.2 173.6 221.55
L 178.55 222.3
Q 181.2 222.55 183 222.25 Z"/>

<path fill="#7DBCC5" stroke="none" d="
M 172.5 172.75
L 172.75 173.15 174.15 173.3
Q 177.75 174.6 181.05 177.2 185.05 180.2 188.75 185 189.4 185.85 190.05 186.8
L 190.25 187.4
Q 193.3 192.5 193.7 198.2 237.25 196.2 275.6 220.8
L 275.6 166.2 108 166.2 108 224.55
Q 117.9 219.3 127.45 215.05 134.3 212 140.95 209.5 141.05 209.35 141.1 209.15 143.7 198.2 148.35 195.35
L 148.5 195.05
Q 148.5 194.9 148.5 194.75 148.5 191.5 148.95 188.75 151.6 173.95 169 172.85 170.7 172.75 172.5 172.75 Z"/>
</g>

<g id="Layer0_0_MEMBER_0_FILL">
<path fill="#FF6666" fill-opacity="0.24705882352941178" stroke="none" d="
M 373 142.75
Q 373.5 142 373.5 141.2 373.5 138.7 371 138.7 368.5 138.7 368.5 141.25 368.5 141.3 368.85 142.55 369.55 143.75 371 143.75 372.3 143.75 373 142.75 Z"/>
</g>

<g id="Layer0_0_MEMBER_1_FILL">
<path fill="#FF6666" fill-opacity="0.24705882352941178" stroke="none" d="
M 389.6 147.05
Q 390.05703125 146.0220703125 390.5 144.9 392 141.1 392 138.55 392 138.135546875 392.05 137.75 388 138.3890625 388 143.15 388 143.25 388.75 145.9 389.1263671875 146.575 389.6 147.05 Z"/>
</g>
</defs>

<g transform="matrix( 1, 0, 0, 1, -108,-166.2) ">
<use xlink:href="#Layer0_0_FILL"/>
</g>

<g transform="matrix( 2.1520843505859375, 0, 0, 2.1520843505859375, -737.25,-255.5) ">
<use xlink:href="#Layer0_0_MEMBER_0_FILL"/>
</g>

<g transform="matrix( 1.006317138671875, 0, 0, 1.006317138671875, -312.5,-94.1) ">
<use xlink:href="#Layer0_0_MEMBER_1_FILL"/>
</g>
</svg>
