
<svg xmlns="http://www.w3.org/2000/svg" version="1.1" xmlns:xlink="http://www.w3.org/1999/xlink" preserveAspectRatio="none" x="0px" y="0px" width="192px" height="146px" viewBox="0 0 192 146">
<defs>
<g id="Layer0_0_FILL">
<path fill="#292838" stroke="none" d="
M 557.15 264.9
L 557.15 258.35 555.9 258.65 555.95 265.5 557.15 264.9
M 554.35 259.05
L 552.05 259.65 552.15 266.85 554.1 266.2 554.35 266.15 554.35 259.05
M 563.35 240.5
L 563.35 240.55
Q 563.35 241.9 564.25 242.85
L 564.9 242.85 568.4 237.1 566.75 237.1
Q 565.35 237.1 564.35 238.1 563.35 239.1 563.35 240.5
M 555.75 245.65
Q 555.75 245.7 555.75 245.75 555.75 245.8 555.75 245.9
L 555.8 250.55
Q 552.8 251.55 552.4 254.1
L 557.15 252.2 557.15 251.9 557.8 251.9 559.9 251.05 560.5 250.05 557.15 250.05 557.15 247.9
Q 557.1 246.3 557.7 245.55 557.8 245.35 558 245.25 558.55 244.8 559.5 244.9
L 563.65 244.95 563.65 244.9 564.65 243.25
Q 564.5 243.1 564.35 242.95 564.3 242.9 564.25 242.85
L 558.5 242.9
Q 557.9 242.85 557.4 243
L 555.75 245.65
M 596.65 237.1
Q 596.9 237.6 597.15 238.05 598 239.65 598.9 241.2 599.3 241.95 599.75 242.7
L 606.15 242.65
Q 606.85 241.75 606.85 240.55
L 606.85 240.5
Q 606.85 240.45 606.85 240.35 606.8 239.05 605.85 238.1 604.85 237.1 603.45 237.1
L 596.65 237.1
M 585.9 242.75
Q 586.3 243.4 586.8 243.95
L 600.55 243.95
Q 600.15 243.3 599.75 242.7
L 585.9 242.75
M 575.85 237.1
L 572.3 242.8 585.9 242.75
Q 585.8 242.65 585.75 242.6 584.3 240.35 583.4 237.1
L 575.85 237.1
M 627.9 219.25
Q 628.05 219.1 628.3 219
L 628.35 219.05
Q 630.25 217.4 629.35 215.8
L 618.55 211
Q 618 211.3 617.7 211.65
L 614.4 211.4
Q 611.5 211.85 610 215.25 609.2 216.95 608.8 219.35 608.35 221.9 608.3 225.3
L 608.1 228.95 607.4 242.65 606.15 242.65
Q 606 242.8 605.85 242.95 604.85 243.95 603.45 243.95
L 600.55 243.95
Q 600.9 244.5 601.3 245.05
L 607.25 245.05 607.6 245.1 610.35 245.1 610.75 228.55 610.75 227.8
Q 610.75 227.65 610.75 227.55 610.8 218.6 613.05 215.5 613.95 214.2 615.2 213.9
L 617.45 214.15 617.5 214.25
Q 617.6 214.65 617.8 215.2
L 619.6 215.95 627.9 219.25 Z"/>

<path fill="#5F5635" stroke="none" d="
M 551.15 267.2
L 552.15 266.85 552.05 259.65 539.05 263 530.55 274.3 536.1 279.75 525.75 282.8 528.85 295.05 547.35 295.05 546.9 289.9 545 268.4 551.15 267.2
M 558 245.25
Q 557.8 245.35 557.7 245.55 557.1 246.3 557.15 247.9
L 557.15 250.05 560.5 250.05 563.65 244.95 559.5 244.9
Q 558.55 244.8 558 245.25
M 622.35 273.9
Q 620.15 273.95 618.1 274.35
L 619.2 280.25 622.35 273.9
M 627.15 283.8
L 627.05 274 627 274 620.3 286.2 621.95 295.05 622.2 295.05 627.3 292.05 627.15 283.8
M 606.85 240.5
L 606.85 240.55
Q 606.85 241.75 606.15 242.65
L 607.4 242.65 608.1 228.95 593.9 231.05
Q 595.2 234.2 596.65 237.1
L 603.45 237.1
Q 604.85 237.1 605.85 238.1 606.8 239.05 606.85 240.35 606.85 240.45 606.85 240.5
M 568.4 237.1
L 569.9 234.7 559.1 236.3 542.8 258 552.4 254.1
Q 552.8 251.55 555.8 250.55
L 555.75 245.9
Q 555.75 245.8 555.75 245.75 555.75 245.7 555.75 245.65
L 557.4 243
Q 557.9 242.85 558.5 242.9
L 564.25 242.85
Q 563.35 241.9 563.35 240.55
L 563.35 240.5
Q 563.35 239.1 564.35 238.1 565.35 237.1 566.75 237.1
L 568.4 237.1
M 574.1 246.1
Q 575.1 245.1 576.5 245.1
L 587.9 245.1
Q 587.85 245.05 587.8 245
L 570.95 244.95 567.75 250.05 573.45 250.05
Q 573.1 249.35 573.1 248.55
L 573.1 248.5
Q 573.1 247.1 574.1 246.1
M 579.25 233.3
L 578.15 233.45 575.85 237.1 583.4 237.1
Q 582.95 235.5 582.65 233.7
L 579.25 233.3
M 618.05 233.3
Q 618.1 229.9 618.55 227.35
L 610.75 228.55 610.35 245.1 613.2 245.1
Q 614.6 245.1 615.6 246.1 616.6 247.1 616.6 248.5
L 616.6 248.55
Q 616.6 249.75 615.9 250.65
L 617.15 250.65 618.05 233.3 Z"/>

<path fill="#F0AB68" stroke="none" d="
M 547.15 268.5
L 551.15 267.2 545 268.4 546.9 289.9 551.75 291.55 551.4 289.85 547.15 268.5 Z"/>

<path fill="#FFBD8D" stroke="none" d="
M 554.15 266.4
L 554.1 266.2 552.15 266.85 551.15 267.2 547.15 268.5 551.4 289.85 560.75 292.9
Q 560.5 287.65 558.5 282.45 558 281.1 557.35 279.75 555.15 276.3 554.3 273.15 554.15 272.6 554.05 272.05 553.45 269.1 554.15 266.4 Z"/>

<path fill="#0D0866" stroke="none" d="
M 556 272.05
L 555.95 265.5 554.35 266.3 554.3 273.15
Q 555.15 276.3 557.35 279.75 557.95 280.7 558.7 281.7 559.2 282.4 559.8 283.1
L 561.95 283.25 561.75 262.55 557.15 264.9 557.15 272.05 556 272.05
M 586.85 252.95
L 573.45 258.05 612.05 257.95 609 253.05 586.85 252.95 Z"/>

<path fill="#2B2A32" stroke="none" d="
M 563.7 256.55
L 563.75 256.65 563.65 256.65 557.15 258.35 557.15 264.9 561.75 262.55 562.1 262.25
Q 562.3 260.85 563.25 259.9 563.75 259.4 564.45 259.05 564.55 258.95 564.65 258.95 565.05 258.7 565.55 258.55
L 565.5 253.9
Q 565.5 253.75 565.5 253.65
L 563.7 256.55
M 586.85 252.95
L 569.25 252.9
Q 566.8 252.65 566.9 255.9
L 566.9 258.05 573.45 258.05 586.85 252.95 Z"/>

<path fill="#4E5A68" stroke="none" d="
M 506.7 249.2
Q 504.6 251.7 508.75 253.3
L 529.25 259.8 544.05 248.55 543.8 248.65
Q 542.2 249.4 540.85 248.8 540.75 248.75 540.65 248.7
L 529.5 257.3 506.7 249.2 Z"/>

<path fill="#F3CB8E" stroke="none" d="
M 514.5 259.55
L 514.5 259.8 519.6 261.45 508.35 262.3 509.3 263.25 509.6 263.25 517.6 263.05 513.35 264.15 510.25 267.65 512 267.4 514.6 265.3 517.9 264.6 517.35 265.05 515 266.4 514.1 270.4 515.1 270.05 516.35 267.05 520 266.2 516.75 271.4 517.85 271.55 520.85 267.8
Q 522.55 268.3 524.25 268.2 526.75 268 529.4 266.45 530.2 266 531 265.4
L 539.05 263 552.05 259.65 554.35 259.05 555.9 258.65 557.15 258.35 563.65 256.65 563.7 256.55
Q 563.2 254.1 560.9 251.9
L 557.8 251.9 557.15 252.2 552.4 254.1 542.8 258 530.1 263.15 519.6 260.3 514.5 259.55 Z"/>

<path fill="#2C302F" stroke="none" d="
M 491.25 243.15
Q 491.25 244.25 494.5 245 497.8 245.8 502.4 245.8 507 245.8 510.25 245 513.55 244.25 513.55 243.15 513.55 242.8 513.25 242.55 512.55 243.2 510.25 243.75 507 244.55 502.4 244.55 497.8 244.55 494.5 243.75 492.2 243.2 491.55 242.55 491.25 242.8 491.25 243.15
M 494.6 202.45
L 490 206.3 495.7 230.45 497.85 239.5 498.25 241.3
Q 501.35 242.55 503.5 241.05
L 503.05 239.25 500.35 228.6 495.5 209.8 497.25 209.7 494.6 202.45 Z"/>

<path fill="#515B5D" stroke="none" d="
M 491.25 241.9
Q 491.25 242.25 491.55 242.55 492.2 243.2 494.5 243.75 497.8 244.55 502.4 244.55 507 244.55 510.25 243.75 512.55 243.2 513.25 242.55 513.55 242.25 513.55 241.9 513.55 240.8 510.25 240 507.25 239.3 503.05 239.25
L 503.5 241.05
Q 501.35 242.55 498.25 241.3
L 497.85 239.5
Q 496 239.65 494.5 240 491.25 240.8 491.25 241.9
M 489.6 177.5
L 489.25 177.55 487 181.3 494.6 202.45 497.25 209.7 503.6 227.3 505.75 233.3 511.4 234 489.6 177.5 Z"/>

<path fill="#E4E4E4" stroke="none" d="
M 497.25 209.7
L 495.5 209.8 500.35 228.6 503.6 227.3 497.25 209.7
M 489.25 177.55
L 489.6 177.5 530.75 169.55 545.15 210.5 549.35 210.9 559.55 149.4 559.45 149.4 465.75 157.3 468.25 278.2 494.85 230.8 495.7 230.45 490 206.3 494.6 202.45 487 181.3 489.25 177.55 Z"/>

<path fill="#AAB6CE" stroke="none" d="
M 538.85 244.1
Q 541.1 240.9 543.9 239.25
L 549.4 228.9 543.7 227.05 506.65 249.1 506.7 249.2 529.5 257.3 540.65 248.7
Q 539.8 248.15 539.3 247.5 538.25 246.1 538.85 244.1 Z"/>

<path fill="#F6C398" stroke="none" d="
M 558 211.55
L 558 212.75 549.4 228.9 543.9 239.25 542.2 242.5
Q 540.05 245.35 542.55 247.1 542.6 247.1 542.65 247.15 544.45 247.75 545.95 246.8 547.45 245.8 548.65 243.15
L 552.3 233.85 553.7 230.2 559.75 214.75 561.25 211.75 561.7 210.8 561.75 207.95
Q 556 201.55 554.4 194.2
L 552.6 199.05 557.95 210.3 558 211.55 Z"/>

<path fill="#C3CBC0" stroke="none" d="
M 632 291.85
L 630.55 295.05 643.95 295.05
Q 643.7 292.45 643.2 290.15 642.8 288.3 642.2 286.65
L 632 291.85
M 634.4 286.7
L 635.65 287.15 641 284
Q 639.65 281.45 637.75 279.55
L 634.4 286.7
M 627.05 274
L 627.15 283.8 631.05 285.35 635.8 276.2
Q 631.65 274.45 627.05 274
M 575.35 205.4
Q 572.2 207 569.05 206.45
L 569.3 206.85
Q 568.25 209.35 565.45 209.25 564.2 209.15 562.65 208.6 562.4 208.5 562.2 208.45 561.95 208.2 561.75 207.95
L 561.7 210.8 561.25 211.75 578.15 213 578.25 212.9 575.35 205.4
M 617.5 214.25
L 617.45 214.15 615.2 213.9
Q 613.95 214.2 613.05 215.5
L 619.6 215.95 617.8 215.2
Q 617.6 214.65 617.5 214.25
M 652.5 284.05
L 658 163.05 559.55 149.4 549.35 210.9 558 211.55 557.95 210.3 552.6 199.05 554.4 194.2
Q 553.95 192.15 553.85 190.1
L 553.75 189.9
Q 554.05 188.3 554.9 187.55 555.25 187.2 555.75 187.05 555.85 187 556 187 555.8 184.9 556.25 182.85 556.95 179.65 559.05 176.4 559.15 176.2 559.2 176 562.6 167.2 574.3 166.9 583.05 167.5 587.25 172.1 589.25 174.3 590.2 177.4 593.4 190.25 599.9 196.75 599.65 197 599.4 197.25 598.05 198.55 596.1 199.55 595.4 199.9 594.65 200.25 594 200.5 593.3 200.75 591.45 201.35 589.35 201.8 588.25 202 587.1 202.2 586.4 202.3 585.65 202.4 584.95 202.5 584.25 202.55 581.9 202.8 579.2 202.9 579 202.9 578.75 202.9
L 582.7 211.85 584.1 211.5 583.85 211.9 584.3 211.25
Q 589 209.8 589.05 213.75
L 610 215.25
Q 611.5 211.85 614.4 211.4
L 617.7 211.65
Q 618 211.3 618.55 211
L 629.35 215.8
Q 630.25 217.4 628.35 219.05
L 639.1 223.8
Q 640.1 225.55 637.75 227.3
L 627.55 223.2
Q 627.6 223.35 627.7 223.55 627.6 223.35 627.55 223.2 627.35 222.65 627.25 222.25
L 627.2 222.15 626.25 222.05 626.85 262
Q 631.35 263.6 635.35 266.6 637.65 268.4 639.8 270.65 640.15 271.05 640.55 271.45 644 273.7 647.15 277 650.3 280.3 652.5 284.05
M 652.5 295.05
L 652.5 292.8
Q 650.95 289.4 648.6 286.4 649.35 289.4 649.65 292.7 649.7 293.85 649.75 295.05
L 652.5 295.05 Z"/>

<path fill="#2D2D2D" stroke="none" d="
M 611.1 295.05
L 615.4 295.05 618.1 290.2 617.7 287.9 615.45 287.9 613.2 292.4 612.4 287.9 609.7 287.9 611.1 295.05
M 611.5 283.05
L 608.75 283.05 609.2 285.35 611.9 285.4 611.5 283.05
M 610.1 277.1
Q 608.95 277.65 607.85 278.35
L 608.2 280.05 610.95 280.05 610.35 276.95
Q 610.2 277 610.1 277.1
M 623.85 273.85
Q 623.1 273.85 622.35 273.9
L 619.2 280.25 620.3 286.2 627 274
Q 626.55 273.95 626.1 273.95 625 273.85 623.85 273.85
M 633.6 268
Q 637.25 269.25 640.55 271.45 640.15 271.05 639.8 270.65 637.65 268.4 635.35 266.6 631.35 263.6 626.85 262 623.5 260.8 619.9 260.4
L 619.75 266.05
Q 620.8 266 621.85 266 624.45 266 626.95 266.35 630.4 266.8 633.6 268
M 649.65 292.7
Q 649.35 289.4 648.6 286.4 647.55 285.05 646.4 283.8 642.8 279.95 638.65 277.6
L 637.75 279.55
Q 639.65 281.45 641 284
L 635.65 287.15 633.65 288.3 632 291.85 642.2 286.65
Q 642.8 288.3 643.2 290.15 643.7 292.45 643.95 295.05
L 649.75 295.05
Q 649.7 293.85 649.65 292.7 Z"/>

<path fill="#B2BCD7" stroke="none" d="
M 599.45 285.95
L 601.9 287.9 609.7 287.9 612.4 287.9 615.45 287.9 617.7 287.9 617.3 285.4 611.9 285.4 609.2 285.35 600 285.3
Q 599.7 285.6 599.45 285.95
M 605.4 280.05
Q 603.65 281.4 602 283.1
L 608.75 283.05 611.5 283.05 616.9 283.05 616.4 280.05 610.95 280.05 608.2 280.05 605.4 280.05
M 627.45 219.65
L 624.15 219.4
Q 619.8 220.05 618.55 227.35 618.1 229.9 618.05 233.3
L 617.15 250.65 615.9 250.65
Q 615.75 250.8 615.6 250.95 614.6 251.95 613.2 251.95
L 576.5 251.95
Q 576.2 251.95 575.9 251.9 574.9 251.75 574.1 250.95 574.05 250.9 574 250.85
L 568.25 250.9
Q 567.65 250.85 567.15 251
L 565.5 253.65
Q 565.5 253.75 565.5 253.9
L 565.55 258.55 565.6 261.45 565.75 280.05 566.9 280.05 566.9 259.9 616.65 259.9 616.3 266.4
Q 618 266.15 619.75 266.05
L 619.9 260.4 620.5 235.8
Q 620.5 235.65 620.5 235.55 620.6 222.95 624.95 221.9
L 626.25 222.05 627.2 222.15
Q 626.8 220.4 627.45 219.65
M 569.25 252.9
L 586.85 252.95 609 253.05 617 253.05 616.75 257.9 612.05 257.95 573.45 258.05 566.9 258.05 566.9 255.9
Q 566.8 252.65 569.25 252.9 Z"/>

<path fill="#404241" stroke="none" d="
M 593.95 280.05
Q 595.15 278.5 596.55 277 598.5 274.95 600.6 273.35 607.6 267.75 616.3 266.4
L 616.65 259.9 566.9 259.9 566.9 280.05 593.95 280.05 Z"/>

<path fill="#5B4436" stroke="none" d="
M 597.7 279
Q 600.25 276.35 603.05 274.3 611.8 268 623 268 625 268 626.95 268.2 629.6 268.5 632.15 269.15 637.85 270.65 642.8 274.2 641.75 272.75 640.55 271.45 637.25 269.25 633.6 268 630.4 266.8 626.95 266.35 624.45 266 621.85 266 620.8 266 619.75 266.05 618 266.15 616.3 266.4 607.6 267.75 600.6 273.35 598.5 274.95 596.55 277 595.15 278.5 593.95 280.05 592.75 281.55 591.8 283.1 591.1 284.15 590.55 285.25 589.85 286.5 589.25 287.85 587.75 291.3 586.95 295.05
L 588.6 295.05
Q 589.6 291.3 591.4 287.85 592.05 286.55 592.85 285.25 593.55 284.15 594.3 283.1 595.45 281.55 596.75 280.05 597.2 279.5 597.7 279 Z"/>

<path fill="#A7C1C2" stroke="none" d="
M 576.35 287.85
L 582.6 287.85 589.25 287.85
Q 589.85 286.5 590.55 285.25
L 564.05 285.05 564.05 283.15 591.8 283.1
Q 592.75 281.55 593.95 280.05
L 566.9 280.05 565.75 280.05 564.05 280.05 564.1 263.15
Q 564.15 262.9 564.25 262.7 564.7 261.25 565.6 261.45
L 565.55 258.55
Q 565.05 258.7 564.65 258.95 564.55 258.95 564.45 259.05 563.75 259.4 563.25 259.9 562.3 260.85 562.1 262.25
L 561.75 262.55 561.95 283.25 562.1 295.05 563.9 295.05 564.05 287.8 576.35 287.85 Z"/>

<path fill="#282A29" stroke="none" d="
M 581.75 295.05
Q 581.85 291.3 582.6 287.85
L 576.35 287.85
Q 575 290.75 575.05 293.15 575.1 294.15 575.35 295.05
L 581.75 295.05 Z"/>

<path fill="#0C0080" stroke="none" d="
M 587.8 245
Q 587.85 245.05 587.9 245.1
L 601.3 245.1 601.3 245.05
Q 600.9 244.5 600.55 243.95
L 586.8 243.95
Q 587.25 244.5 587.8 245
M 588.9 215.35
Q 588.5 217.45 587.3 220.6
L 578.3 233.15 579.25 233.3 582.65 233.7
Q 582.95 235.5 583.4 237.1 584.3 240.35 585.75 242.6 585.8 242.65 585.9 242.75
L 599.75 242.7
Q 599.3 241.95 598.9 241.2 598 239.65 597.15 238.05 596.9 237.6 596.65 237.1 595.2 234.2 593.9 231.05 590.95 223.9 588.9 215.35 Z"/>

<path fill="#230452" stroke="none" d="
M 578.5 220.7
Q 577.1 217.4 577.05 213.55
L 555.9 230.9 552.3 233.85 548.65 243.15
Q 547.45 245.8 545.95 246.8 544.45 247.75 542.65 247.15 542.6 247.1 542.55 247.1 540.05 245.35 542.2 242.5
L 543.9 239.25
Q 541.1 240.9 538.85 244.1 538.25 246.1 539.3 247.5 539.8 248.15 540.65 248.7 540.75 248.75 540.85 248.8 542.2 249.4 543.8 248.65
L 544.05 248.55 576.6 221.1 576.7 223.6 578.5 220.7 Z"/>

<path fill="#C47D49" stroke="none" d="
M 577.05 213.55
Q 577.1 213.8 577.1 213.6
L 578.15 213 561.25 211.75 559.75 214.75 553.7 230.2 555.9 230.9 577.05 213.55
M 624.15 219.4
L 627.45 219.65
Q 627.6 219.45 627.9 219.25
L 619.6 215.95 613.05 215.5
Q 610.8 218.6 610.75 227.55 610.75 227.65 610.75 227.8
L 610.75 228.55 618.55 227.35
Q 619.8 220.05 624.15 219.4
M 608.8 219.35
Q 609.2 216.95 610 215.25
L 589.05 213.75
Q 589 214.45 588.9 215.35 590.95 223.9 593.9 231.05
L 608.1 228.95 608.3 225.3
Q 608.35 221.9 608.8 219.35
M 468.25 295.05
L 481.6 295.05 470 275.55 509.6 263.25 509.3 263.25 508.35 262.3 519.6 261.45 514.5 259.8 514.5 259.55 519.6 260.3 530.1 263.15 542.8 258 559.1 236.3 569.9 234.7 576.7 223.6 576.6 221.1 544.05 248.55 529.25 259.8 508.75 253.3
Q 504.6 251.7 506.7 249.2
L 506.55 249.15 506.65 249.1 543.7 227.05 549.4 228.9 558 212.75 558 211.55 549.35 210.9 545.15 210.5 547 215.8 512 234.05 511.5 234.3 511.4 234 505.75 233.3 503.6 227.3 500.35 228.6 503.05 239.25
Q 507.25 239.3 510.25 240 513.55 240.8 513.55 241.9 513.55 242.25 513.25 242.55 513.55 242.8 513.55 243.15 513.55 244.25 510.25 245 507 245.8 502.4 245.8 497.8 245.8 494.5 245 491.25 244.25 491.25 243.15 491.25 242.8 491.55 242.55 491.25 242.25 491.25 241.9 491.25 240.8 494.5 240 496 239.65 497.85 239.5
L 495.7 230.45 494.85 230.8 468.25 278.2 468.25 295.05 Z"/>

<path fill="#FFBC90" stroke="none" d="
M 578.75 202.9
Q 578.6 202.9 578.5 202.9 577.7 203.7 576.8 204.55 576.05 205.05 575.35 205.4
L 578.25 212.9 578.15 213 577.1 213.6
Q 577.1 213.8 577.05 213.55 577.1 217.4 578.5 220.7
L 583.85 211.9 584.1 211.5 582.7 211.85 582.7 211.95 582.4 212.05 582.7 211.85 578.75 202.9 Z"/>

<path fill="#140077" stroke="none" d="
M 588.9 215.35
Q 589 214.45 589.05 213.75 589 209.8 584.3 211.25
L 583.85 211.9 578.7 221.1
Q 578.6 220.9 578.5 220.7
L 576.7 223.6 569.9 234.7 568.4 237.1 564.9 242.85 564.65 243.25 563.65 244.9 563.65 244.95 560.5 250.05 559.9 251.05
Q 560.05 251.15 560.15 251.25 560.55 251.6 560.9 251.9 563.2 254.1 563.7 256.55
L 565.5 253.65 567.15 251 567.75 250.05 570.95 244.95 572.3 242.8 575.85 237.1 578.15 233.45 578.3 233.15 587.3 220.6
Q 588.5 217.45 588.9 215.35 Z"/>

<path fill="#090000" stroke="none" d="
M 615.6 246.1
Q 614.6 245.1 613.2 245.1
L 610.35 245.1 607.6 245.1 601.3 245.1 587.9 245.1 576.5 245.1
Q 575.1 245.1 574.1 246.1 573.1 247.1 573.1 248.5
L 573.1 248.55
Q 573.1 249.35 573.45 250.05 573.65 250.45 574 250.85 574.05 250.9 574.1 250.95 574.9 251.75 575.9 251.9 576.2 251.95 576.5 251.95
L 613.2 251.95
Q 614.6 251.95 615.6 250.95 615.75 250.8 615.9 250.65 616.6 249.75 616.6 248.55
L 616.6 248.5
Q 616.6 247.1 615.6 246.1 Z"/>

<path fill="#644F3A" stroke="none" d="
M 626.25 222.05
L 624.95 221.9
Q 620.6 222.95 620.5 235.55 620.5 235.65 620.5 235.8
L 619.9 260.4
Q 623.5 260.8 626.85 262
L 626.25 222.05 Z"/>

<path fill="#000000" stroke="none" d="
M 628.3 219
Q 628.05 219.1 627.9 219.25 627.6 219.45 627.45 219.65 626.8 220.4 627.2 222.15
L 627.25 222.25
Q 627.35 222.65 627.55 223.2
L 637.75 227.3
Q 640.1 225.55 639.1 223.8
L 628.35 219.05 628.3 219
M 652.5 284.2
Q 650.65 281.5 648.3 279 645.7 276.25 642.8 274.2 637.85 270.65 632.15 269.15 629.6 268.5 626.95 268.2 625 268 623 268 611.8 268 603.05 274.3 600.25 276.35 597.7 279 597.2 279.5 596.75 280.05 595.45 281.55 594.3 283.1 593.55 284.15 592.85 285.25 592.05 286.55 591.4 287.85 589.6 291.3 588.6 295.05
L 594.2 295.05
Q 595.45 291.8 597.35 288.85
L 605.2 295.05 610.75 295.05 601.9 287.9 599.45 285.95
Q 599.7 285.6 600 285.3 600.6 284.55 601.3 283.8 601.65 283.45 602 283.1 603.65 281.4 605.4 280.05 606.6 279.1 607.85 278.35 608.95 277.65 610.1 277.1 610.2 277 610.35 276.95 612.85 275.65 615.55 274.95
L 616.4 280.05 616.9 283.05 617.3 285.4 617.7 287.9 618.1 290.2 618.9 295.05 621.95 295.05 620.3 286.2 619.2 280.25 618.1 274.35
Q 620.15 273.95 622.35 273.9 623.1 273.85 623.85 273.85 625 273.85 626.1 273.95 626.55 273.95 627 274
L 627.05 274
Q 631.65 274.45 635.8 276.2
L 631.05 285.35 626.05 295.05 630.55 295.05 632 291.85 633.65 288.3 634.4 286.7 637.75 279.55 638.65 277.6
Q 642.8 279.95 646.4 283.8 647.55 285.05 648.6 286.4 650.95 289.4 652.5 292.8
L 652.5 284.2 Z"/>

<path fill="#FCFFD0" stroke="none" d="
M 481.6 295.05
L 484.15 295.05 525.75 282.8 536.1 279.75 530.55 274.3 524.25 268.2
Q 522.55 268.3 520.85 267.8
L 517.85 271.55 516.75 271.4 520 266.2 516.35 267.05 515.1 270.05 514.1 270.4 515 266.4 517.35 265.05 517.9 264.6 514.6 265.3 512 267.4 510.25 267.65 513.35 264.15 517.6 263.05 509.6 263.25 470 275.55 481.6 295.05 Z"/>

<path fill="#502407" stroke="none" d="
M 599.4 197.25
Q 594.5 192.15 591.5 183.4
L 594.65 200.25
Q 595.4 199.9 596.1 199.55 598.05 198.55 599.4 197.25
M 586.85 192.5
Q 586.8 192.55 586.75 192.55
L 585.65 202.4
Q 586.4 202.3 587.1 202.2
L 588.25 190.65
Q 587.85 192 586.85 192.5
M 585.7 192.75
Q 585.1 192.8 584.45 192.65 583.95 195.55 581.95 198.65 580.9 200.2 579.5 201.8 579.1 202.25 578.7 202.7
L 578.75 202.9
Q 579 202.9 579.2 202.9 581.9 202.8 584.25 202.55
L 585.7 192.75
M 574.45 172.7
Q 578.05 177 584.2 180.8 581.35 174.6 574.45 172.7
M 573 172.35
Q 571.9 172.1 570.7 172 575.55 177.75 584.5 182.65 584.75 182.75 585.05 182.9 584.85 182.4 584.7 181.9 584.6 181.7 584.55 181.5 577.3 177.4 573 172.35
M 561.95 175.05
Q 560.8 176.8 560.25 178.45
L 567.1 172.05
Q 563.5 173.35 561.95 175.05
M 559 176.8
Q 558.95 177 558.85 177.2 557 180.05 556.25 182.85 555.8 184.9 556 187 556.55 186.85 557.3 187 557.9 187.55 558.45 188.1
L 558.7 181.65
Q 558.8 177.65 562.2 173.65 564.65 171.85 567.15 172 567.3 172 567.45 172.05 567.3501953125 172.0798828125 567.25 172.1 567.1 172.1 567.05 172.15 564.35 175.8 559.85 179.8 559.8 179.95 559.8 180.1 559.7 180.7 559.65 181.3
L 559.7 181.55 559.5 189.35
Q 560.35 190.6 560.75 192 560.35 189.45 561.3 186.9
L 561.15 185.55 561.1 185.45 561.05 185 560.65 181.85 560.5 180.75
Q 565.2 176.75 568 173.15 573.8 179.75 584.25 183.65 584.8 183.85 585.4 184.1 585.3 183.8 585.25 183.55 584.8 183.35 584.35 183.15 573.85 178.1 569.95 171.9 569.75 171.9 569.6 171.9 568.9 171.8 568.2 171.8 568.0685546875 171.8263671875 567.95 171.85 570.8318359375 170.6232421875 573.2 171.3 578.2 171.75 582.25 175
L 582.45 175.4
Q 584.25 177.15 585.35 179.4 586.85 182.5 587.05 186.6 587.55 186.6 587.9 186.9 588.05 182.6 586.85 178.3 586.5 177.4 586.05 176.6 583.75 172.6 578.2 170.3 573.3 168.85 567.6 170.2 568.55 169 572.85 168.6 575.95 168.1 579.95 169.8 583.8 171.5 585.85 173.9 586.2 174.4 586.5 174.9 588.7 178.35 588.95 182.05
L 589.35 201.8
Q 591.45 201.35 593.3 200.75
L 589.75 177.45
Q 589.7 177.3 589.65 177.2 588.7 174.7 587.05 172.9 582.85 168.3 574.1 167.7 562.4 168 559 176.8 Z"/>

<path fill="#241000" stroke="none" d="
M 586.75 192.55
Q 586.25 192.75 585.7 192.75
L 584.25 202.55
Q 584.95 202.5 585.65 202.4
L 586.75 192.55
M 572.85 168.6
Q 568.55 169 567.6 170.2 573.3 168.85 578.2 170.3 583.75 172.6 586.05 176.6 586.5 177.4 586.85 178.3 588.05 182.6 587.9 186.9 588.7 187.65 588.5 190.05
L 588.35 190.15
Q 588.3 190.4 588.25 190.65
L 587.1 202.2
Q 588.25 202 589.35 201.8
L 588.95 182.05
Q 588.7 178.35 586.5 174.9 586.2 174.4 585.85 173.9 583.8 171.5 579.95 169.8 575.95 168.1 572.85 168.6
M 569.6 171.9
Q 569.75 171.9 569.95 171.9 573.85 178.1 584.35 183.15 584.8 183.35 585.25 183.55 585.3 183.8 585.4 184.1 585.6 184.15 585.8 184.2
L 585.75 185.1
Q 586 185.9 586.25 186.7 586.65 186.55 587.05 186.6 586.85 182.5 585.35 179.4 584.25 177.15 582.45 175.4
L 582.25 175
Q 578.2 171.75 573.2 171.3 570.8318359375 170.6232421875 567.95 171.85 568.0685546875 171.8263671875 568.2 171.8 568.9 171.8 569.6 171.9
M 570.7 172
Q 571.9 172.1 573 172.35 577.3 177.4 584.55 181.5 584.6 181.7 584.7 181.9 584.85 182.4 585.05 182.9 584.75 182.75 584.5 182.65 575.55 177.75 570.7 172
M 584.2 180.8
Q 578.05 177 574.45 172.7 581.35 174.6 584.2 180.8
M 559.65 181.3
Q 559.7 180.7 559.8 180.1 559.8 179.95 559.85 179.8 564.35 175.8 567.05 172.15 567.1 172.1 567.25 172.1 567.3501953125 172.0798828125 567.45 172.05 567.3 172 567.15 172 564.65 171.85 562.2 173.65 558.8 177.65 558.7 181.65
L 558.45 188.1
Q 558.55 188.2 558.6 188.3 558.65 188.35 558.75 188.4 559.15 188.85 559.5 189.35
L 559.7 181.55 559.65 181.3
M 560.25 178.45
Q 560.8 176.8 561.95 175.05 563.5 173.35 567.1 172.05
L 560.25 178.45
M 558.85 177.2
Q 558.95 177 559 176.8 562.4 168 574.1 167.7 582.85 168.3 587.05 172.9 588.7 174.7 589.65 177.2 589.7 177.3 589.75 177.45
L 593.3 200.75
Q 594 200.5 594.65 200.25
L 591.5 183.4
Q 594.5 192.15 599.4 197.25 599.65 197 599.9 196.75 593.4 190.25 590.2 177.4 589.25 174.3 587.25 172.1 583.05 167.5 574.3 166.9 562.6 167.2 559.2 176 559.15 176.2 559.05 176.4 556.95 179.65 556.25 182.85 557 180.05 558.85 177.2 Z"/>

<path fill="#7D5227" stroke="none" d="
M 570.35 184.45
L 570.85 183.85 571 183.65
Q 566.55 177.75 562.15 181.3 567.35 179.7 570.35 184.45
M 583.9 184.9
Q 584.5 185.15 585.1 185.5 584.55 184.95 584 184.55 579.6 181 575.8 184.55
L 576.35 185.6
Q 578.7 182.3 583.9 184.9 Z"/>

<path fill="#A9C1CB" stroke="none" d="
M 530.75 169.55
L 489.6 177.5 511.4 234 512 234.05 547 215.8 545.15 210.5 530.75 169.55
M 496.45 182.55
L 530.25 175.8 542 212.3 513.5 225.55 496.45 182.55 Z"/>

<path fill="#0380B8" stroke="none" d="
M 530.25 175.8
L 496.45 182.55 513.5 225.55 542 212.3 530.25 175.8 Z"/>

<path fill="#FFFDED" stroke="none" d="
M 565.05 187.55
Q 564.9 187.75 564.7 187.9 566.15 188.2 567.55 188 568.3 187.85 569.05 187.6 567.25 186.55 565.25 186 565.4 186.35 565.4 186.7 565.4 187.2 565.05 187.55
M 563.25 185.6
Q 562.6 185.5 562 185.5 562.15 186.6 563.25 187.35 563.1 187.05 563 186.8 562.85 186.55 563.25 185.6
M 584 189
Q 583.45 188.85 582.9 188.75 580.95 188.35 578.9 188.55 579.05 188.85 579.05 189.2 579.05 189.7 578.7 190.05 578.45 190.4 578.05 190.45
L 580.25 190.8
Q 581.55 190.7 582.55 190.25 583.45 189.75 584 189 Z"/>

<path fill="#6E3D8C" stroke="none" d="
M 556 187
Q 555.85 187 555.75 187.05 555.25 187.2 554.9 187.55 555.95 192.8 557.7 197.1 560.6 204.5 565.45 209.25 568.25 209.35 569.3 206.85
L 569.05 206.45
Q 568.95 206.35 568.85 206.3 564.7 202.1 562.55 197.45 561.75 195.65 561.2 193.8 561.1 193.45 561 193.1 560.8 192.55 560.75 192 560.35 190.6 559.5 189.35 559.15 188.85 558.75 188.4 558.65 188.35 558.6 188.3 558.55 188.2 558.45 188.1 557.9 187.55 557.3 187 556.55 186.85 556 187 Z"/>

<path fill="#551D64" stroke="none" d="
M 554.9 187.55
Q 554.05 188.3 553.75 189.9
L 553.85 190.1
Q 553.95 192.15 554.4 194.2 556 201.55 561.75 207.95 561.95 208.2 562.2 208.45 562.4 208.5 562.65 208.6 564.2 209.15 565.45 209.25 560.6 204.5 557.7 197.1 555.95 192.8 554.9 187.55 Z"/>

<path fill="#9F6C51" stroke="none" d="
M 565.65 184.35
Q 562.45 184.2 562.3 184.9 566.9 184.6 569.35 187.7 569.35 185.95 565.65 184.35
M 575.4 189.05
Q 576.1 188.65 577 188.4 577.65 188.2 578.35 188.05 580.45 187.65 583.15 187.85 583.75 187.9 584.35 187.95 583.8 187.65 583.25 187.5 581.5 186.85 579.4 186.9 576.35 187.5 575.4 189.05 Z"/>

<path fill="#401C10" stroke="none" d="
M 561.05 185
L 561.1 185.45 561.15 185.55
Q 562.1 187.6 563.7 187.8 563.55 187.7 563.4 187.55 563.3 187.45 563.25 187.35 562.15 186.6 562 185.5 562.6 185.5 563.25 185.6 562.85 186.55 563 186.8 563.1 187.05 563.25 187.35 563.65 187.6 564.2 187.85
L 564.35 188
Q 564.55 187.95 564.7 187.9 564.9 187.75 565.05 187.55 565.4 187.2 565.4 186.7 565.4 186.35 565.25 186 567.25 186.55 569.05 187.6 569.25 187.7 569.45 187.8 569.4 187.75 569.35 187.7 566.9 184.6 562.3 184.9 561.95 184.9 561.6 184.95 561.3 184.95 561.05 185
M 576.75 189.2
Q 576.75 189.7 577.05 190.05 577.35 190.4 577.75 190.45 577.8 190.45 577.9 190.45
L 578.05 190.45
Q 578.45 190.4 578.7 190.05 579.05 189.7 579.05 189.2 579.05 188.85 578.9 188.55 580.95 188.35 582.9 188.75 583.45 188.85 584 189 583.45 189.75 582.55 190.25 581.55 190.7 580.25 190.8 580.1 190.8 579.95 190.8 581.3 190.95 582.4 190.75 584.05 190.45 585.05 189.3
L 585.8 188.15
Q 585.05 188.05 584.35 187.95 583.75 187.9 583.15 187.85 580.45 187.65 578.35 188.05 577.65 188.2 577 188.4 576.1 188.65 575.4 189.05 575.3 189.1 575.2 189.15
L 575 189.4
Q 575.9 189.1 576.8 188.9 576.75 189.05 576.75 189.2 Z"/>

<path fill="#FFCA9B" stroke="none" d="
M 560.5 180.75
L 560.65 181.85
Q 562.05 181.4 562.15 181.3 566.55 177.75 571 183.65
L 570.85 183.85
Q 571.35 188.45 569.15 193.7 569.95 188.85 567.55 188 566.15 188.2 564.7 187.9 564.55 187.95 564.35 188
L 564.2 187.85
Q 564.15 187.85 564.1 187.85 563.9 187.85 563.7 187.8 562.1 187.6 561.15 185.55
L 561.3 186.9
Q 560.35 189.45 560.75 192 560.8 192.55 561 193.1 561.1 193.45 561.2 193.8 561.75 195.65 562.55 197.45 564.7 202.1 568.85 206.3 568.95 206.35 569.05 206.45 572.2 207 575.35 205.4 576.05 205.05 576.8 204.55 577.7 203.7 578.5 202.9 578.6 202.8 578.7 202.7 579.1 202.25 579.5 201.8 580.9 200.2 581.95 198.65 583.95 195.55 584.45 192.65 585.1 192.8 585.7 192.75 586.25 192.75 586.75 192.55 586.8 192.55 586.85 192.5 587.85 192 588.25 190.65 588.3 190.4 588.35 190.15
L 588.5 190.05
Q 588.7 187.65 587.9 186.9 587.55 186.6 587.05 186.6 586.65 186.55 586.25 186.7 586 186.8 585.7 186.9
L 585.75 185.1 585.8 184.2
Q 585.6 184.15 585.4 184.1 584.8 183.85 584.25 183.65 573.8 179.75 568 173.15 565.2 176.75 560.5 180.75
M 565.75 197.65
L 565.8 197.65
Q 570.45 196.05 575.95 198.3 576.35 198.45 576.8 198.65 574.55 202.75 572.2 203.75 569.6 204.4 568.05 202.1
L 565.75 197.65
M 585.1 185.5
Q 584.5 185.15 583.9 184.9 578.7 182.3 576.35 185.6
L 575.8 184.55
Q 579.6 181 584 184.55 584.55 184.95 585.1 185.5
M 577.05 190.05
Q 576.75 189.7 576.75 189.2 576.75 189.05 576.8 188.9 575.9 189.1 575 189.4
L 575.2 189.15
Q 575.3 189.1 575.4 189.05 576.35 187.5 579.4 186.9 581.5 186.85 583.25 187.5 583.8 187.65 584.35 187.95 585.05 188.05 585.8 188.15
L 585.05 189.3
Q 584.05 190.45 582.4 190.75 581.3 190.95 579.95 190.8 580.1 190.8 580.25 190.8
L 578.05 190.45 577.9 190.45
Q 577.8 190.45 577.75 190.45 577.35 190.4 577.05 190.05 Z"/>

<path fill="#823116" stroke="none" d="
M 565.8 197.65
L 565.75 197.65 568.05 202.1
Q 569.6 204.4 572.2 203.75 574.55 202.75 576.8 198.65 576.35 198.45 575.95 198.3 570.45 196.05 565.8 197.65
M 576 199.1
Q 573.75 202.9 571.1 202.75 568.15 202.1 566.35 198.1 571.55 197.7 576 199.1 Z"/>

<path fill="#FFF0FC" stroke="none" d="
M 571.1 202.75
Q 573.75 202.9 576 199.1 571.55 197.7 566.35 198.1 568.15 202.1 571.1 202.75 Z"/>

<path fill="#EAAA87" stroke="none" d="
M 560.65 181.85
L 561.05 185
Q 561.3 184.95 561.6 184.95 561.95 184.9 562.3 184.9 562.45 184.2 565.65 184.35 569.35 185.95 569.35 187.7 569.4 187.75 569.45 187.8 569.25 187.7 569.05 187.6 568.3 187.85 567.55 188 569.95 188.85 569.15 193.7 571.35 188.45 570.85 183.85
L 570.35 184.45
Q 567.35 179.7 562.15 181.3 562.05 181.4 560.65 181.85 Z"/>
</g>

<g id="Layer0_0_MEMBER_0_FILL">
<path fill="#7F9097" stroke="none" d="
M 528.1 252
L 528.1 252.75 530.1 252.75 530.1 252.05 528.1 252
M 528.85 253.3
L 526.85 253.25 526.85 254 528.85 254 528.85 253.3
M 528.8 250.05
L 526.8 250 526.8 250.75 528.8 250.75 528.8 250.05
M 530.3 249.75
L 530.3 249.05 528.3 249 528.3 249.75 530.3 249.75
M 531.7 251.75
L 531.7 251.05 529.7 251 529.7 251.75 531.7 251.75
M 531.95 248.9
L 531.95 248.2 529.95 248.15 529.95 248.9 531.95 248.9
M 533.2 250.75
L 533.2 250.05 531.2 250 531.2 250.75 533.2 250.75
M 534.85 249.2
L 532.85 249.15 532.85 249.9 534.85 249.9 534.85 249.2
M 512 249.05
L 514 249.05 514 248.35 512 248.3 512 249.05
M 520.05 250.35
L 518.05 250.3 518.05 251.05 520.05 251.05 520.05 250.35
M 516.9 250.05
L 516.9 249.35 514.9 249.3 514.9 250.05 516.9 250.05
M 518.15 248.8
L 518.15 248.1 516.15 248.05 516.15 248.8 518.15 248.8
M 519.3 249.8
L 521.3 249.8 521.3 249.1 519.3 249.05 519.3 249.8
M 524.2 250.1
L 522.2 250.05 522.2 250.8 524.2 250.8 524.2 250.1
M 525.2 251
L 525.2 251.75 527.2 251.75 527.2 251.05 525.2 251
M 522.95 252.05
L 522.95 251.35 520.95 251.3 520.95 252.05 522.95 252.05
M 523.95 252.25
L 523.95 253 525.95 253 525.95 252.3 523.95 252.25
M 522.9 248.8
L 522.9 248.1 520.9 248.05 520.9 248.8 522.9 248.8
M 525.8 249.8
L 525.8 249.1 523.8 249.05 523.8 249.8 525.8 249.8
M 525.3 248.05
L 525.3 248.8 527.3 248.8 527.3 248.1 525.3 248.05
M 526.05 246.95
L 526.05 246.25 524.05 246.2 524.05 246.95 526.05 246.95
M 524.4 247.1
L 522.4 247.05 522.4 247.8 524.4 247.8 524.4 247.1
M 519.75 247.1
L 517.75 247.05 517.75 247.8 519.75 247.8 519.75 247.1
M 520 244.95
L 520 244.25 518 244.2 518 244.95 520 244.95
M 520.9 245.2
L 520.9 245.95 522.9 245.95 522.9 245.25 520.9 245.2
M 521.25 246.1
L 519.25 246.05 519.25 246.8 521.25 246.8 521.25 246.1
M 516.35 245.05
L 516.35 245.8 518.35 245.8 518.35 245.1 516.35 245.05
M 515.25 247.1
L 513.25 247.05 513.25 247.8 515.25 247.8 515.25 247.1
M 514.85 246.05
L 514.85 246.8 516.85 246.8 516.85 246.1 514.85 246.05
M 537.55 247.25
L 535.55 247.2 535.55 247.95 537.55 247.95 537.55 247.25
M 538.8 246
L 536.8 245.95 536.8 246.7 538.8 246.7 538.8 246
M 535.5 243.95
L 535.5 244.7 537.5 244.7 537.5 244 535.5 243.95
M 533.9 244.95
L 533.9 245.7 535.9 245.7 535.9 245 533.9 244.95
M 532.65 246.2
L 532.65 246.95 534.65 246.95 534.65 246.25 532.65 246.2
M 528.95 247.25
L 526.95 247.2 526.95 247.95 528.95 247.95 528.95 247.25
M 527.15 242.95
L 527.15 242.25 525.15 242.2 525.15 242.95 527.15 242.95
M 528.55 244.25
L 526.55 244.2 526.55 244.95 528.55 244.95 528.55 244.25
M 528.8 242.1
L 528.8 241.4 526.8 241.35 526.8 242.1 528.8 242.1
M 529.7 242.35
L 529.7 243.1 531.7 243.1 531.7 242.4 529.7 242.35
M 530.05 243.95
L 530.05 243.25 528.05 243.2 528.05 243.95 530.05 243.95 Z"/>
</g>

<g id="Layer0_0_MEMBER_1_FILL">
<path fill="#7F9097" stroke="none" d="
M 547.55 230.55
L 547.55 231.3 548.2 231.3
Q 548.2 230.85 548.4 230.6
L 547.55 230.55
M 541.4 239.2
L 539.4 239.15 539.4 239.9 541.4 239.9 541.4 239.2
M 537.8 240.15
L 537.8 240.9 539.8 240.9 539.8 240.2 537.8 240.15
M 541.65 236.35
L 539.65 236.3 539.65 237.05 541.65 237.05 541.65 236.35
M 540 237.9
L 540 237.2 538 237.15 538 237.9 540 237.9
M 542.9 238.9
L 542.9 238.2 540.9 238.15 540.9 238.9 542.9 238.9
M 545.25 236.8
Q 545.3 236.35 545.6 236.1
L 543.95 236.05 543.95 236.8 545.25 236.8
M 544.55 238.05
L 544.55 237.35 542.55 237.3 542.55 238.05 544.55 238.05
M 536.55 241.4
L 536.55 242.15 538.55 242.15 538.55 241.45 536.55 241.4
M 527.6 238.4
L 527.6 239.15 529.6 239.15 529.6 238.45 527.6 238.4
M 530.85 237.9
L 530.85 237.2 528.85 237.15 528.85 237.9 530.85 237.9
M 536.5 238.15
L 536.5 238.9 538.5 238.9 538.5 238.2 536.5 238.15
M 534.9 239.15
L 534.9 239.9 536.9 239.9 536.9 239.2 534.9 239.15
M 532.5 240.15
L 532.5 239.45 530.5 239.4 530.5 240.15 532.5 240.15
M 533.65 240.4
L 533.65 241.15 535.65 241.15 535.65 240.45 533.65 240.4
M 532.45 236.9
L 532.45 236.2 530.45 236.15 530.45 236.9 532.45 236.9
M 531.95 235.9
L 533.95 235.9 533.95 235.2 531.95 235.15 531.95 235.9
M 533.75 238.2
L 531.75 238.15 531.75 238.9 533.75 238.9 533.75 238.2
M 536.5 235.3
L 536.5 236.05 538.5 236.05 538.5 235.35 536.5 235.3
M 534.85 236.15
L 534.85 236.9 536.85 236.9 536.85 236.2 534.85 236.15
M 535.35 237.9
L 535.35 237.2 533.35 237.15 533.35 237.9 535.35 237.9
M 535.6 235.05
L 535.6 234.35 533.6 234.3 533.6 235.05 535.6 235.05
M 543.65 235.1
L 541.65 235.05 541.65 235.8 543.65 235.8 543.65 235.1
M 546 231.8
L 546 232.55 547.5 232.55
Q 547.6 232.1 548 231.85
L 546 231.8
M 546.35 234.85
L 545.2 234.8 545.2 235.55 546 235.55
Q 546.05 235.1 546.35 234.85
M 546.5 232.85
L 544.5 232.8 544.5 233.55 546.5 233.55 546.5 232.85
M 542.9 233.8
L 542.9 234.55 544.9 234.55 544.9 233.85 542.9 233.8
M 546.55 230.25
L 544.55 230.2 544.55 230.95 546.55 230.95 546.55 230.25
M 544.9 231.8
L 544.9 231.1 542.9 231.05 542.9 231.8 544.9 231.8
M 541.4 232.05
L 541.4 232.8 543.4 232.8 543.4 232.1 541.4 232.05
M 539.8 233.05
L 539.8 233.8 541.8 233.8 541.8 233.1 539.8 233.05
M 537.65 234.05
L 537.65 233.35 535.65 233.3 535.65 234.05 537.65 234.05
M 538.55 234.3
L 538.55 235.05 540.55 235.05 540.55 234.35 538.55 234.3
M 536.9 232.8
L 538.9 232.8 538.9 232.1 536.9 232.05 536.9 232.8
M 540 230.05
L 540 230.8 542 230.8 542 230.1 540 230.05
M 540.5 231.8
L 540.5 231.1 538.5 231.05 538.5 231.8 540.5 231.8
M 541.65 229.2
L 541.65 229.95 543.65 229.95 543.65 229.25 541.65 229.2 Z"/>
</g>

<path id="Layer0_0_1_STROKES" stroke="#660066" stroke-width="1" stroke-linejoin="round" stroke-linecap="round" fill="none" d="
M 627.55 223.2
Q 627.6 223.35 627.7 223.55
M 586.85 252.95
L 573.45 258.05
M 609 253.05
L 612.05 257.95"/>
</defs>

<g transform="matrix( 1, 0, 0, 1, -465.75,-149.4) ">
<use xlink:href="#Layer0_0_FILL"/>

<use xlink:href="#Layer0_0_1_STROKES"/>
</g>

<g transform="matrix( 1, 0, 0, 1, -465.75,-149.4) ">
<use xlink:href="#Layer0_0_MEMBER_0_FILL"/>
</g>

<g transform="matrix( 1, 0, 0, 1, -465.75,-149.4) ">
<use xlink:href="#Layer0_0_MEMBER_1_FILL"/>
</g>
</svg>
