
<svg xmlns="http://www.w3.org/2000/svg" version="1.1" xmlns:xlink="http://www.w3.org/1999/xlink" preserveAspectRatio="none" x="0px" y="0px" width="40px" height="40px" viewBox="0 0 40 40">
<defs>
<filter id="Filter_1" x="-20%" y="-20%" width="140%" height="140%" color-interpolation-filters="sRGB">
<feFlood flood-color="#000000" flood-opacity="1" in="SourceGraphic" result="result1"/>

<feComposite in2="SourceGraphic" in="result1" operator="in" result="result2"/>

<feGaussianBlur in="result2" stdDeviation="0.6666666666666666,0.6666666666666666" result="result3"/>

<feOffset dx="-1.4142135623730947" dy="1.4142135623730954" in="result3" result="result4"/>

<feComposite in2="result4" in="SourceGraphic" operator="over" result="result5"/>
</filter>

<filter id="Filter_2" x="-100%" y="-100%" width="300%" height="300%" color-interpolation-filters="sRGB">
<feFlood flood-color="#780000" flood-opacity="1" in="SourceGraphic" result="result1"/>

<feComposite in2="SourceGraphic" in="result1" operator="in" result="result2"/>

<feGaussianBlur in="result2" stdDeviation="1.6666666666666667,1.6666666666666667" result="result3"/>

<feOffset dx="-4.592411795994157" dy="5.282968284592831" in="result3" result="result4"/>

<feComposite in2="result4" in="SourceGraphic" operator="over" result="result5"/>

<feFlood flood-color="#780000" flood-opacity="1" in="result5" result="result6"/>

<feComposite in2="result5" in="result6" operator="in" result="result7"/>

<feGaussianBlur in="result7" stdDeviation="0.3333333333333333,0.3333333333333333" result="result8"/>

<feOffset dx="-2.972578589108432" dy="2.6765232170810926" in="result8" result="result9"/>

<feComposite in2="result9" in="result5" operator="over" result="result10"/>
</filter>

<g id="S_mbolo_3_0_Layer0_0_FILL">
<path fill="#FF0000" stroke="none" d="
M 42.4 -42.35
Q 24.8 -60 0 -60 -24.85 -60 -42.45 -42.35 -60 -24.8 -60 0.05 -60 24.9 -42.45 42.5 -24.85 60.05 0 60.05 24.8 60.05 42.4 42.5 60.05 24.9 60.05 0.05 60.05 -24.8 42.4 -42.35 Z"/>
</g>

<g id="S_mbolo_2_0_Layer0_0_FILL">
<path fill="#FF0000" stroke="none" d="
M 33.25 -33.2
Q 19.45 -47 0 -47 -19.45 -47 -33.25 -33.2 -47 -19.45 -47 0.05 -47 19.5 -33.25 33.3 -19.45 47.05 0 47.05 19.45 47.05 33.25 33.3 47.05 19.5 47.05 0.05 47.05 -19.45 33.25 -33.2 Z"/>
</g>
</defs>

<g filter="url(#Filter_1)" transform="matrix( 1, 0, 0, 1, 0,0) ">
<g transform="matrix( 0.59814453125, 0, 0, 0.59814453125, 2,1.3) ">
<g transform="matrix( 1, 0, 0, 1, 4.85,40.2) "/>

<g transform="matrix( 0.420166015625, 0, 0, 0.420166015625, 27.55,33.95) ">
<g transform="matrix( 1, 0, 0, 1, 0,0) ">
<use xlink:href="#S_mbolo_3_0_Layer0_0_FILL"/>
</g>
</g>

<g filter="url(#Filter_2)" transform="matrix( 1.6718292236328125, 0, 0, 1.6718292236328125, -3.35,-2.15) ">
<g transform="matrix( 0.2364044189453125, 0, 0, 0.2364044189453125, 27.5,12.45) ">
<g transform="matrix( 1, 0, 0, 1, 0,0) ">
<use xlink:href="#S_mbolo_2_0_Layer0_0_FILL"/>
</g>
</g>
</g>
</g>
</g>
</svg>
