<svg xmlns="http://www.w3.org/2000/svg" xmlns:xlink="http://www.w3.org/1999/xlink" preserveAspectRatio="none" width="40" height="40" viewBox="0 0 40 40"><defs><filter id="a" x="-20%" y="-20%" width="140%" height="140%" color-interpolation-filters="sRGB"><feFlood flood-color="#000" flood-opacity="1" result="result1"/><feComposite in2="SourceGraphic" in="result1" operator="in" result="result2"/><feGaussianBlur in="result2" stdDeviation="0.6666666666666666,0.6666666666666666" result="result3"/><feOffset dx="-1.414" dy="1.414" in="result3" result="result4"/><feComposite in2="result4" in="SourceGraphic" result="result5"/></filter><filter id="c" x="-100%" y="-100%" width="300%" height="300%" color-interpolation-filters="sRGB"><feFlood flood-color="#780000" flood-opacity="1" result="result1"/><feComposite in2="SourceGraphic" in="result1" operator="in" result="result2"/><feGaussianBlur in="result2" stdDeviation="1.6666666666666667,1.6666666666666667" result="result3"/><feOffset dx="-4.592" dy="5.283" in="result3" result="result4"/><feComposite in2="result4" in="SourceGraphic" result="result5"/><feFlood flood-color="#780000" flood-opacity="1" result="result6"/><feComposite in2="result5" in="result6" operator="in" result="result7"/><feGaussianBlur in="result7" stdDeviation="0.3333333333333333,0.3333333333333333" result="result8"/><feOffset dx="-2.973" dy="2.677" in="result8" result="result9"/><feComposite in2="result9" in="result5" result="result10"/></filter><path fill="#F00" d="M42.4-42.35Q24.8-60 0-60q-24.85 0-42.45 17.65Q-60-24.8-60 .05q0 24.85 17.55 42.45Q-24.85 60.05 0 60.05q24.8 0 42.4-17.55Q60.05 24.9 60.05.05T42.4-42.35z" id="b"/><path fill="#F00" d="M33.25-33.2Q19.45-47 0-47t-33.25 13.8Q-47-19.45-47 .05q0 19.45 13.75 33.25Q-19.45 47.05 0 47.05T33.25 33.3Q47.05 19.5 47.05.05q0-19.5-13.8-33.25z" id="d"/></defs><g filter="url(#a)"><use xlink:href="#b" transform="translate(18.48 21.607) scale(.25132)"/><use xlink:href="#d" transform="matrix(.2364 0 0 .2364 27.496 12.464)" filter="url(#c)"/></g></svg>