<svg xmlns="http://www.w3.org/2000/svg" xmlns:xlink="http://www.w3.org/1999/xlink" preserveAspectRatio="none" width="58" height="58" viewBox="0 0 58 58"><defs><linearGradient id="a" gradientUnits="userSpaceOnUse" x1="20.6" y1="11.25" x2="-21.2" y2="11.25"><stop offset="0%" stop-color="#AB9C5A"/><stop offset="100%" stop-color="#E0CC76"/></linearGradient><linearGradient id="b" gradientUnits="userSpaceOnUse" x1="20.425" y1="-11.25" x2="-21.025" y2="-11.25"><stop offset="0%" stop-color="#AB9C5A"/><stop offset="100%" stop-color="#E0CC76"/></linearGradient><linearGradient id="c" gradientUnits="userSpaceOnUse" x1="22.3" x2="15.4"><stop offset="0%" stop-color="#807242"/><stop offset="100%" stop-color="#AB9C5A"/><stop offset="100%" stop-color="#AB9C5A"/></linearGradient><linearGradient id="d" gradientUnits="userSpaceOnUse" x1="-25.712" y1=".388" x2="14.412" y2="-5.788"><stop offset="0%" stop-color="#AB9C5A"/><stop offset="100%" stop-color="#E0CC76"/></linearGradient><g id="e"><path fill-opacity=".09" d="M25.3-25.45q-.218-.248-.5-.5-3.143-2.82-7.5-2.85h-35.1q-4.656.023-8 3.35-3.315 3.32-3.35 8 .025 17.55 0 35.1.044 4.292 2.85 7.4.223.33.45.6h.05q3.344 3.34 8 3.35h35.1q4.706-.01 8-3.35 3.353-3.32 3.35-8v-35.1q.003-4.68-3.35-8m-.6.1l-.2-.15.45.4q3.175 3.188 3.15 7.65v35.1q.025 4.474-3.15 7.65-3.163 3.175-7.65 3.15h-35.1q-4.45.025-7.65-3.15-.19-.216-.4-.45l.15.15q-2.89-3.063-2.9-7.35v-35.1q0-4.462 3.15-7.65 3.2-3.15 7.65-3.15h35.1q4.312-.003 7.4 2.9z"/><path fill-opacity=".196" d="M24.5-25.5l.2.15q-3.088-2.903-7.4-2.9h-35.1q-4.45 0-7.65 3.15-3.15 3.188-3.15 7.65v35.1q.01 4.287 2.9 7.35l-.15-.15q.21.234.4.45 3.2 3.175 7.65 3.15h35.1q4.487.025 7.65-3.15 3.175-3.176 3.15-7.65v-35.1q.025-4.462-3.15-7.65l-.45-.4m.05.75q3.048 3.045 3.05 7.3v35.1q-.002 4.255-3.05 7.25-2.982 3.048-7.25 3.05h-35.1q-4.23-.002-7.25-3.05-.25-.218-.5-.5-2.514-2.845-2.55-6.75.025-17.55 0-35.1.027-4.255 3.05-7.3 3.02-2.986 7.25-3h35.1q4.027.033 6.9 2.7.208.16.35.3z"/><path fill-opacity=".294" d="M27.6-17.45q-.002-4.255-3.05-7.3-.142-.14-.35-.3-2.873-2.667-6.9-2.7h-35.1q-4.23.014-7.25 3-3.023 3.045-3.05 7.3.025 17.55 0 35.1.036 3.905 2.55 6.75.25.282.5.5 3.02 3.048 7.25 3.05h35.1q4.268-.002 7.25-3.05 3.048-2.995 3.05-7.25v-35.1m-3.8-7.3q.22.19.4.4 2.883 2.864 2.85 6.9v35.1q.033 4.037-2.85 6.9-2.838 2.87-6.9 2.85h-35.1q-4.01.02-6.9-2.85-.108-.12-.25-.25-.044-.085-.1-.2-.078-.06-.15-.15-2.342-2.667-2.35-6.3v-35.1q.004-4.036 2.85-6.9 2.89-2.858 6.9-2.85h35.1q3.768-.007 6.5 2.45z"/><path fill-opacity=".396" d="M24.2-24.35q-.18-.21-.4-.4-2.732-2.457-6.5-2.45h-35.1q-4.01-.008-6.9 2.85-2.846 2.864-2.85 6.9v35.1q.008 3.633 2.35 6.3.072.09.15.15.056.115.1.2.142.13.25.25 2.89 2.87 6.9 2.85h35.1q4.062.02 6.9-2.85 2.883-2.863 2.85-6.9v-35.1q.033-4.036-2.85-6.9m-.9-.1q.294.215.55.45 2.706 2.733 2.7 6.55v35.1q.006 3.818-2.7 6.5-2.707 2.744-6.55 2.75h-35.1q-3.805-.006-6.55-2.75-.234-.233-.45-.55-2.222-2.505-2.25-5.95.025-17.55 0-35.1.02-3.817 2.7-6.55 2.745-2.68 6.55-2.7h35.1q3.47.028 6 2.25z"/><path fill-opacity=".498" d="M23.85-24q-.256-.235-.55-.45-2.53-2.222-6-2.25h-35.1q-3.805.02-6.55 2.7-2.68 2.733-2.7 6.55.025 17.55 0 35.1.028 3.445 2.25 5.95.216.317.45.55 2.745 2.744 6.55 2.75h35.1q3.843-.006 6.55-2.75 2.706-2.682 2.7-6.5v-35.1q.006-3.817-2.7-6.55m-.6.15l.2.2q2.58 2.59 2.55 6.2v35.1q.03 3.61-2.55 6.15-2.527 2.58-6.15 2.55h-35.1q-3.586.03-6.15-2.55-.106-.095-.2-.25-2.344-2.455-2.35-5.9v-35.1q-.004-3.61 2.55-6.2 2.564-2.517 6.15-2.5h35.1q3.432-.005 5.9 2.25.027.047.05.05z"/><path fill-opacity=".596" d="M23.45-23.65l-.2-.2q-.023-.003-.05-.05-2.468-2.255-5.9-2.25h-35.1q-3.586-.017-6.15 2.5-2.554 2.59-2.55 6.2v35.1q.006 3.445 2.35 5.9.094.155.2.25 2.564 2.58 6.15 2.55h35.1q3.623.03 6.15-2.55 2.58-2.54 2.55-6.15v-35.1q.03-3.61-2.55-6.2m-.8 0q.264.195.45.4 2.414 2.408 2.4 5.8v35.1q.014 3.392-2.4 5.8-2.383 2.402-5.8 2.4h-35.1q-3.367.002-5.8-2.4-.18-.212-.35-.45-2.02-2.258-2.05-5.35.025-17.55 0-35.1.023-3.392 2.4-5.8 2.433-2.39 5.8-2.4h35.1q3.117.018 5.35 2z"/><path fill-opacity=".694" d="M23.1-23.25q-.186-.205-.45-.4-2.233-1.982-5.35-2h-35.1q-3.367.01-5.8 2.4-2.377 2.408-2.4 5.8.025 17.55 0 35.1.03 3.092 2.05 5.35.17.238.35.45 2.433 2.402 5.8 2.4h35.1q3.417.002 5.8-2.4 2.414-2.408 2.4-5.8v-35.1q.014-3.392-2.4-5.8m-.6.15l-.15-.1q.2.173.35.35 2.275 2.24 2.25 5.4v35.1q.025 3.16-2.25 5.4-2.215 2.262-5.4 2.25h-35.1q-3.148.012-5.4-2.25-.164-.163-.3-.35l.1.15q-2.052-2.176-2.05-5.2v-35.1q0-3.16 2.25-5.4 2.252-2.25 5.4-2.25h35.1q3.037-.015 5.2 2z"/><path fill-opacity=".796" d="M22.35-23.2l.15.1q-2.163-2.015-5.2-2h-35.1q-3.148 0-5.4 2.25-2.25 2.24-2.25 5.4v35.1q-.002 3.024 2.05 5.2l-.1-.15q.136.187.3.35 2.252 2.262 5.4 2.25h35.1q3.185.012 5.4-2.25 2.275-2.24 2.25-5.4v-35.1q.025-3.16-2.25-5.4-.15-.177-.35-.35m-.3.45q.173.125.3.25 2.098 2.11 2.1 5.05v35.1q-.002 2.954-2.1 5.05-2.084 2.098-5.05 2.1h-35.1q-2.93-.002-5.05-2.1-.112-.14-.25-.3-1.817-1.997-1.85-4.75.025-17.55 0-35.1.027-2.94 2.1-5.05 2.12-2.073 5.05-2.1h35.1q2.778.02 4.75 1.85z"/><path fill-opacity=".898" d="M22.35-22.5q-.127-.125-.3-.25-1.972-1.83-4.75-1.85h-35.1q-2.93.027-5.05 2.1-2.073 2.11-2.1 5.05.025 17.55 0 35.1.033 2.753 1.85 4.75.138.16.25.3 2.12 2.098 5.05 2.1h35.1q2.966-.002 5.05-2.1 2.098-2.096 2.1-5.05v-35.1q-.002-2.94-2.1-5.05m-.6.15q.12.115.2.2 1.97 1.966 1.95 4.7v35.1q.02 2.735-1.95 4.65-1.903 1.97-4.65 1.95h-35.1q-2.71.02-4.65-1.95-.122-.092-.25-.25l.05.1q-1.748-1.884-1.75-4.5v-35.1q.005-2.734 1.95-4.7 1.94-1.908 4.65-1.9h35.1q2.628-.01 4.5 1.75l-.05-.05z"/><path d="M21.95-22.15q-.08-.085-.2-.2l.05.05q-1.872-1.76-4.5-1.75h-35.1q-2.71-.008-4.65 1.9-1.945 1.966-1.95 4.7v35.1q.002 2.616 1.75 4.5l-.05-.1q.128.158.25.25 1.94 1.97 4.65 1.95h35.1q2.747.02 4.65-1.95 1.97-1.915 1.95-4.65v-35.1q.02-2.734-1.95-4.7z"/></g><g id="f"><path fill="url(#a)" d="M-21.2 20.7q.093.118.15.2 1.727 1.7 4.1 1.7H16.5q2.398 0 4.1-1.7l-21-21-20.8 20.8z"/><path fill="#E0CC76" d="M-.4-.1l-20.65-20.65q-1.676 1.727-1.7 4.1.025 16.737 0 33.45.024 2.283 1.55 3.9L-.4-.1z"/><path fill="url(#b)" d="M.55-1.05q.238-.216.45-.45l14.9-14.85q1.07-1.335 4.4-4.5l.05.05.05-.1q-1.617-1.526-3.9-1.55h-33.45q-2.373.024-4.1 1.7L-.4-.1q.204-.2.4-.4.102-.1.2-.2v-.05q.2-.14.35-.3M.2-.7q-.09.13-.2.2-.2.215-.4.4h.05l.15-.2q.046 0 .05-.05L.2-.7z"/><path fill="url(#c)" d="M0-.5q.11-.07.2-.2h.05q.18-.166.35-.35-.16.182-.35.35-.17.182-.4.35-.004.05-.05.05l-.15.2H-.4l21 21q1.7-1.702 1.7-4.1v-33.45q0-2.373-1.7-4.1-.082-.057-.2-.15l-.05.1-.05-.05q-3.33 3.165-4.4 4.5L1-1.5q-.212.234-.45.45-.15.16-.35.3v.05q-.098.1-.2.2-.196.2-.4.4.2-.185.4-.4z"/></g><path fill="url(#d)" d="M14.7-15.4q-1.21-1.23-2.95-1.25H-12.6q-1.716.02-2.95 1.25-1.244 1.247-1.25 3v24.3q.006 1.74 1.25 2.95 1.234 1.27 2.95 1.25h24.35q1.74.02 2.95-1.25 1.256-1.21 1.25-2.95v-24.3q.006-1.753-1.25-3z" id="g"/><path fill="#FFF" fill-opacity=".298" d="M-15.6-12.35q-.006-1.74 1.2-3 .063-.013.1-.05l-.6-.6q-.644.276-1.2.75-.544.453-.8 1.9v2.6q.032.267 0 .6V11.3q-.003.455.05 1.35.063.894.15 1.6.123.75.55 1.4.433.708.55.8.16.145.55.45.4.296 1.85.55h2.6q.267-.032.6 0h21.45q1.44.067 2.6-.4 1.198-.46 1.8-2.5.667-2.05-.9-.75-1.578 1.353-1.65 1.6-.058.307-.3.5-.197.248-.9.25h-24.3q-1.74.006-3-1.25-.012-.012-.4-1.45.01-.213 0-.45-.004-.344 0-1.05v-24.3z" id="h"/><g id="j"><path fill="#FFF" d="M-16.8-13.9q-.087.572-.1 1.2v.5q-.703 10.313 0 21.95.047.77.1 1.55 0-24.17 1.95-27.25.02-.035.05-.1.205-.295.45-.35-.7-.5-1.6.5-.055.07-.1.15-.542.738-.75 1.85m31.75-2.2q-1.08-1.153-3.3-.55.022.012.05 0 .82.485 1.55.85 1.355.678 2.65 3.9.05.12.1.25.018-1.752-.3-2.9-.158-.682-.45-1.15-.137-.225-.3-.4z"/><path fill="#FFF" fill-opacity=".298" d="M-16.9-13.35v.65q.013-.628.1-1.2-.05.265-.1.55z"/><path fill="#AB9C5A" d="M12.1 16.15q.68-.002.9-.2-.582.173-1.25.15H-12.6q-.054.025-.15 0 .278.05.55.05h24.3m8.3-37.05q-.028.053-.05.1l.05-.1z"/></g><g id="k" fill="#FFF"><path fill-opacity=".145" d="M20.3 17.7h.05q-1.05-1.15-2.15-2.25-.9-.9-1.7-.7-.8 0-1.4 1.1v-.05q-.6 1.05 0 2.05h-.05q.4.65.9 1.25l.05.05q1.15 1.35 2.6 1.95.2.1.4.1.75 0 1.3-.55 1.45-1.4 0-2.95m-4.8-.1q-.45-.75 0-1.5.5-.8 1.1-.85.6-.1 1.25.55 1.05 1.1 2.1 2.25 1.1 1.15 0 2.25-.4.4-.95.4-.1 0-.2-.05-1.35-.6-2.45-1.85-.45-.55-.85-1.2z"/><path fill-opacity=".298" d="M15.5 16.1q-.45.75 0 1.5.4.65.85 1.2 1.1 1.25 2.45 1.85.1.05.2.05.55 0 .95-.4 1.1-1.1 0-2.25-1.05-1.15-2.1-2.25-.65-.65-1.25-.55-.6.05-1.1.85z"/></g><g id="l" fill="#FFF"><path fill-opacity=".145" d="M-21.05-18.05h-.05q.4.65.9 1.25l.05.05q1.15 1.35 2.6 1.95.2.1.4.1.75 0 1.3-.55 1.45-1.4 0-2.95h.05q-1.05-1.15-2.15-2.25-.9-.9-1.7-.7-.8 0-1.4 1.1v-.05q-.6 1.05 0 2.05m.4-.25q-.45-.75 0-1.5.5-.8 1.1-.85.6-.1 1.25.55 1.05 1.1 2.1 2.25 1.1 1.15 0 2.25-.4.4-.95.4-.1 0-.2-.05-1.35-.6-2.45-1.85-.45-.55-.85-1.2z"/><path fill-opacity=".298" d="M-20.65-19.8q-.45.75 0 1.5.4.65.85 1.2 1.1 1.25 2.45 1.85.1.05.2.05.55 0 .95-.4 1.1-1.1 0-2.25-1.05-1.15-2.1-2.25-.65-.65-1.25-.55-.6.05-1.1.85z"/></g><g id="m" fill="#FFF"><path fill-opacity=".145" d="M-18.6 15v-.05q-1.15 1.05-2.25 2.15-.9.9-.7 1.7 0 .8 1.1 1.4h-.05q1.05.6 2.05 0v.05q.65-.4 1.25-.9l.05-.05q1.35-1.15 1.95-2.6.1-.2.1-.4 0-.75-.55-1.3-1.4-1.45-2.95 0m3 1.3q0 .1-.05.2-.6 1.35-1.85 2.45-.55.45-1.2.85-.75.45-1.5 0-.8-.5-.85-1.1-.1-.6.55-1.25 1.1-1.05 2.25-2.1 1.15-1.1 2.25 0 .4.4.4.95z"/><path fill-opacity=".298" d="M-15.65 16.5q.05-.1.05-.2 0-.55-.4-.95-1.1-1.1-2.25 0-1.15 1.05-2.25 2.1-.65.65-.55 1.25.05.6.85 1.1.75.45 1.5 0 .65-.4 1.2-.85 1.25-1.1 1.85-2.45z"/></g><path d="M4.9-2.2v1.9h-8.25q-.4 0-.7.3-.25.25-.25.65t.25.7q.3.25.7.25H4.9v1.9L13.1 1q1.25-.25 0-.65L4.9-2.2z" id="n"/><path fill-opacity=".2" d="M17.3-11.65q0-.45.05-.9-.14-.172-.2-.45-.252-1.078 3.35-7.9-6.547 6.128-4.55 5.45-.197.846-.15 1.7.005.065 0 .1.203.647.2 1.35V12q.006 1.74-1.25 2.95-.012.063-.05.1l.6.6q.644-.276 1.2-.75.544-.453.8-1.9v-2.6q-.032-.267 0-.6v-21.45z" id="o"/><path id="i" stroke="#FFF" stroke-opacity=".2" stroke-linejoin="round" stroke-linecap="round" fill="none" d="M11.25-16.2H-14"/></defs><use xlink:href="#e" transform="translate(29.25 28.9)"/><use xlink:href="#f" transform="translate(29.25 28.9)"/><use xlink:href="#g" transform="translate(29.25 28.9)"/><g transform="translate(29.25 28.9)"><use xlink:href="#h"/><use xlink:href="#i"/></g><use xlink:href="#j" transform="translate(29.25 28.9)"/><use xlink:href="#k" transform="translate(29.25 28.9)"/><use xlink:href="#l" transform="translate(29.25 28.9)"/><use xlink:href="#m" transform="translate(29.25 28.9)"/><use xlink:href="#n" transform="translate(29.25 28.9)"/><use xlink:href="#o" transform="translate(29.25 28.9)"/></svg>