
<svg xmlns="http://www.w3.org/2000/svg" version="1.1" xmlns:xlink="http://www.w3.org/1999/xlink" preserveAspectRatio="none" x="0px" y="0px" width="58px" height="58px" viewBox="0 0 58 58">
<defs>
<linearGradient id="Gradient_1" gradientUnits="userSpaceOnUse" x1="20.6" y1="11.25" x2="-21.200000000000003" y2="11.25" spreadMethod="pad">
<stop  offset="0%" stop-color="#AB9C5A"/>

<stop  offset="100%" stop-color="#E0CC76"/>
</linearGradient>

<linearGradient id="Gradient_2" gradientUnits="userSpaceOnUse" x1="20.425" y1="-11.25" x2="-21.025000000000002" y2="-11.25" spreadMethod="pad">
<stop  offset="0%" stop-color="#AB9C5A"/>

<stop  offset="100%" stop-color="#E0CC76"/>
</linearGradient>

<linearGradient id="Gradient_3" gradientUnits="userSpaceOnUse" x1="22.3" y1="0" x2="15.400000000000002" y2="0" spreadMethod="pad">
<stop  offset="0%" stop-color="#807242"/>

<stop  offset="100%" stop-color="#AB9C5A"/>

<stop  offset="100%" stop-color="#AB9C5A"/>
</linearGradient>

<linearGradient id="Gradient_4" gradientUnits="userSpaceOnUse" x1="-25.7125" y1="0.3875000000000002" x2="14.4125" y2="-5.7875000000000005" spreadMethod="pad">
<stop  offset="0%" stop-color="#AB9C5A"/>

<stop  offset="100%" stop-color="#E0CC76"/>
</linearGradient>

<g id="classic_buttons__Key_Buttons_key___left_0_Layer8_0_FILL">
<path fill="#000000" fill-opacity="0.09019607843137255" stroke="none" d="
M 25.3 -25.45
Q 25.0822265625 -25.6984375 24.8 -25.95 21.657421875 -28.7693359375 17.3 -28.8
L -17.8 -28.8
Q -22.4560546875 -28.77734375 -25.8 -25.45 -29.11484375 -22.1310546875 -29.15 -17.45 -29.125 0.1 -29.15 17.65 -29.1056640625 21.9421875 -26.3 25.05 -26.076953125 25.3796875 -25.85 25.65
L -25.8 25.65
Q -22.4560546875 28.9900390625 -17.8 29
L 17.3 29
Q 22.0060546875 28.9900390625 25.3 25.65 28.6525390625 22.33125 28.65 17.65
L 28.65 -17.45
Q 28.6525390625 -22.1310546875 25.3 -25.45
M 24.5 -25.5
Q 24.743359375 -25.283984375 24.95 -25.1 28.1251953125 -21.9119140625 28.1 -17.45
L 28.1 17.65
Q 28.1251953125 22.1244140625 24.95 25.3 21.7869140625 28.4751953125 17.3 28.45
L -17.8 28.45
Q -22.2494140625 28.4751953125 -25.45 25.3 -25.641015625 25.0837890625 -25.85 24.85
L -25.7 25
Q -28.590625 21.9373046875 -28.6 17.65 -28.6 0.1 -28.6 -17.45 -28.6001953125 -21.9119140625 -25.45 -25.1 -22.2494140625 -28.2501953125 -17.8 -28.25
L 17.3 -28.25
Q 21.6123046875 -28.253125 24.7 -25.35
L 24.5 -25.5 Z"/>

<path fill="#000000" fill-opacity="0.19607843137254902" stroke="none" d="
M 24.95 -25.1
Q 24.743359375 -25.283984375 24.5 -25.5
L 24.7 -25.35
Q 21.6123046875 -28.253125 17.3 -28.25
L -17.8 -28.25
Q -22.2494140625 -28.2501953125 -25.45 -25.1 -28.6001953125 -21.9119140625 -28.6 -17.45 -28.6 0.1 -28.6 17.65 -28.590625 21.9373046875 -25.7 25
L -25.85 24.85
Q -25.641015625 25.0837890625 -25.45 25.3 -22.2494140625 28.4751953125 -17.8 28.45
L 17.3 28.45
Q 21.7869140625 28.4751953125 24.95 25.3 28.1251953125 22.1244140625 28.1 17.65
L 28.1 -17.45
Q 28.1251953125 -21.9119140625 24.95 -25.1
M 24.55 -24.75
Q 27.5982421875 -21.70546875 27.6 -17.45
L 27.6 17.65
Q 27.5982421875 21.90546875 24.55 24.9 21.56796875 27.9482421875 17.3 27.95
L -17.8 27.95
Q -22.03046875 27.9482421875 -25.05 24.9 -25.299609375 24.6818359375 -25.55 24.4 -28.0642578125 21.5546875 -28.1 17.65 -28.075 0.1 -28.1 -17.45 -28.073046875 -21.70546875 -25.05 -24.75 -22.03046875 -27.735546875 -17.8 -27.75
L 17.3 -27.75
Q 21.32734375 -27.7171875 24.2 -25.05 24.4083984375 -24.891015625 24.55 -24.75 Z"/>

<path fill="#000000" fill-opacity="0.29411764705882354" stroke="none" d="
M 27.6 -17.45
Q 27.5982421875 -21.70546875 24.55 -24.75 24.4083984375 -24.891015625 24.2 -25.05 21.32734375 -27.7171875 17.3 -27.75
L -17.8 -27.75
Q -22.03046875 -27.735546875 -25.05 -24.75 -28.073046875 -21.70546875 -28.1 -17.45 -28.075 0.1 -28.1 17.65 -28.0642578125 21.5546875 -25.55 24.4 -25.299609375 24.6818359375 -25.05 24.9 -22.03046875 27.9482421875 -17.8 27.95
L 17.3 27.95
Q 21.56796875 27.9482421875 24.55 24.9 27.5982421875 21.90546875 27.6 17.65
L 27.6 -17.45
M 23.8 -24.75
Q 24.0193359375 -24.5607421875 24.2 -24.35 27.0833984375 -21.4861328125 27.05 -17.45
L 27.05 17.65
Q 27.0833984375 21.6865234375 24.2 24.55 21.3615234375 27.4208984375 17.3 27.4
L -17.8 27.4
Q -21.8111328125 27.4208984375 -24.7 24.55 -24.808203125 24.4310546875 -24.95 24.3 -24.9935546875 24.2154296875 -25.05 24.1 -25.128125 24.0396484375 -25.2 23.95 -27.541796875 21.2828125 -27.55 17.65 -27.55 0.1 -27.55 -17.45 -27.545703125 -21.4861328125 -24.7 -24.35 -21.8111328125 -27.208203125 -17.8 -27.2
L 17.3 -27.2
Q 21.0677734375 -27.207421875 23.8 -24.75 Z"/>

<path fill="#000000" fill-opacity="0.396078431372549" stroke="none" d="
M 24.2 -24.35
Q 24.0193359375 -24.5607421875 23.8 -24.75 21.0677734375 -27.207421875 17.3 -27.2
L -17.8 -27.2
Q -21.8111328125 -27.208203125 -24.7 -24.35 -27.545703125 -21.4861328125 -27.55 -17.45 -27.55 0.1 -27.55 17.65 -27.541796875 21.2828125 -25.2 23.95 -25.128125 24.0396484375 -25.05 24.1 -24.9935546875 24.2154296875 -24.95 24.3 -24.808203125 24.4310546875 -24.7 24.55 -21.8111328125 27.4208984375 -17.8 27.4
L 17.3 27.4
Q 21.3615234375 27.4208984375 24.2 24.55 27.0833984375 21.6865234375 27.05 17.65
L 27.05 -17.45
Q 27.0833984375 -21.4861328125 24.2 -24.35
M 23.3 -24.45
Q 23.59375 -24.234765625 23.85 -24 26.5564453125 -21.2671875 26.55 -17.45
L 26.55 17.65
Q 26.5564453125 21.467578125 23.85 24.15 21.142578125 26.8939453125 17.3 26.9
L -17.8 26.9
Q -21.6046875 26.8939453125 -24.35 24.15 -24.58359375 23.9169921875 -24.8 23.6 -27.0220703125 21.0953125 -27.05 17.65 -27.025 0.1 -27.05 -17.45 -27.0310546875 -21.2671875 -24.35 -24 -21.6046875 -26.6810546875 -17.8 -26.7
L 17.3 -26.7
Q 20.7705078125 -26.6720703125 23.3 -24.45 Z"/>

<path fill="#000000" fill-opacity="0.4980392156862745" stroke="none" d="
M 23.85 -24
Q 23.59375 -24.234765625 23.3 -24.45 20.7705078125 -26.6720703125 17.3 -26.7
L -17.8 -26.7
Q -21.6046875 -26.6810546875 -24.35 -24 -27.0310546875 -21.2671875 -27.05 -17.45 -27.025 0.1 -27.05 17.65 -27.0220703125 21.0953125 -24.8 23.6 -24.58359375 23.9169921875 -24.35 24.15 -21.6046875 26.8939453125 -17.8 26.9
L 17.3 26.9
Q 21.142578125 26.8939453125 23.85 24.15 26.5564453125 21.467578125 26.55 17.65
L 26.55 -17.45
Q 26.5564453125 -21.2671875 23.85 -24
M 23.2 -23.9
Q 23.2271484375 -23.8525390625 23.25 -23.85 23.3671875 -23.7322265625 23.45 -23.65 26.0291015625 -21.060546875 26 -17.45
L 26 17.65
Q 26.0291015625 21.2607421875 23.45 23.8 20.9232421875 26.3791015625 17.3 26.35
L -17.8 26.35
Q -21.385546875 26.3791015625 -23.95 23.8 -24.0556640625 23.7048828125 -24.15 23.55 -26.494140625 21.094921875 -26.5 17.65 -26.5 0.1 -26.5 -17.45 -26.5041015625 -21.060546875 -23.95 -23.65 -21.385546875 -26.1666015625 -17.8 -26.15
L 17.3 -26.15
Q 20.73203125 -26.1552734375 23.2 -23.9 Z"/>

<path fill="#000000" fill-opacity="0.596078431372549" stroke="none" d="
M 23.25 -23.85
Q 23.2271484375 -23.8525390625 23.2 -23.9 20.73203125 -26.1552734375 17.3 -26.15
L -17.8 -26.15
Q -21.385546875 -26.1666015625 -23.95 -23.65 -26.5041015625 -21.060546875 -26.5 -17.45 -26.5 0.1 -26.5 17.65 -26.494140625 21.094921875 -24.15 23.55 -24.0556640625 23.7048828125 -23.95 23.8 -21.385546875 26.3791015625 -17.8 26.35
L 17.3 26.35
Q 20.9232421875 26.3791015625 23.45 23.8 26.0291015625 21.2607421875 26 17.65
L 26 -17.45
Q 26.0291015625 -21.060546875 23.45 -23.65 23.3671875 -23.7322265625 23.25 -23.85
M 22.65 -23.65
Q 22.914453125 -23.4548828125 23.1 -23.25 25.514453125 -20.8416015625 25.5 -17.45
L 25.5 17.65
Q 25.514453125 21.041796875 23.1 23.45 20.716796875 25.851953125 17.3 25.85
L -17.8 25.85
Q -21.1666015625 25.851953125 -23.6 23.45 -23.77890625 23.2384765625 -23.95 23 -25.969140625 20.7416015625 -26 17.65 -25.975 0.1 -26 -17.45 -25.9767578125 -20.8416015625 -23.6 -23.25 -21.1666015625 -25.6392578125 -17.8 -25.65
L 17.3 -25.65
Q 20.4166015625 -25.631640625 22.65 -23.65 Z"/>

<path fill="#000000" fill-opacity="0.6941176470588235" stroke="none" d="
M 23.1 -23.25
Q 22.914453125 -23.4548828125 22.65 -23.65 20.4166015625 -25.631640625 17.3 -25.65
L -17.8 -25.65
Q -21.1666015625 -25.6392578125 -23.6 -23.25 -25.9767578125 -20.8416015625 -26 -17.45 -25.975 0.1 -26 17.65 -25.969140625 20.7416015625 -23.95 23 -23.77890625 23.2384765625 -23.6 23.45 -21.1666015625 25.851953125 -17.8 25.85
L 17.3 25.85
Q 20.716796875 25.851953125 23.1 23.45 25.514453125 21.041796875 25.5 17.65
L 25.5 -17.45
Q 25.514453125 -20.8416015625 23.1 -23.25
M 22.35 -23.2
Q 22.5498046875 -23.0271484375 22.7 -22.85 24.975 -20.61015625 24.95 -17.45
L 24.95 17.65
Q 24.975 20.81015625 22.7 23.05 20.48515625 25.3125 17.3 25.3
L -17.8 25.3
Q -20.94765625 25.3125 -23.2 23.05 -23.3640625 22.8865234375 -23.5 22.7
L -23.4 22.85
Q -25.45234375 20.67421875 -25.45 17.65 -25.45 0.1 -25.45 -17.45 -25.4498046875 -20.61015625 -23.2 -22.85 -20.94765625 -25.0998046875 -17.8 -25.1
L 17.3 -25.1
Q 20.33671875 -25.11484375 22.5 -23.1
L 22.35 -23.2 Z"/>

<path fill="#000000" fill-opacity="0.796078431372549" stroke="none" d="
M 22.7 -22.85
Q 22.5498046875 -23.0271484375 22.35 -23.2
L 22.5 -23.1
Q 20.33671875 -25.11484375 17.3 -25.1
L -17.8 -25.1
Q -20.94765625 -25.0998046875 -23.2 -22.85 -25.4498046875 -20.61015625 -25.45 -17.45 -25.45 0.1 -25.45 17.65 -25.45234375 20.67421875 -23.4 22.85
L -23.5 22.7
Q -23.3640625 22.8865234375 -23.2 23.05 -20.94765625 25.3125 -17.8 25.3
L 17.3 25.3
Q 20.48515625 25.3125 22.7 23.05 24.975 20.81015625 24.95 17.65
L 24.95 -17.45
Q 24.975 -20.61015625 22.7 -22.85
M 22.05 -22.75
Q 22.2228515625 -22.6248046875 22.35 -22.5 24.4478515625 -20.391015625 24.45 -17.45
L 24.45 17.65
Q 24.4478515625 20.603515625 22.35 22.7 20.266015625 24.7978515625 17.3 24.8
L -17.8 24.8
Q -20.728515625 24.7978515625 -22.85 22.7 -22.96171875 22.5595703125 -23.1 22.4 -24.9169921875 20.4025390625 -24.95 17.65 -24.925 0.1 -24.95 -17.45 -24.9228515625 -20.391015625 -22.85 -22.5 -20.728515625 -24.5728515625 -17.8 -24.6
L 17.3 -24.6
Q 20.0775390625 -24.5794921875 22.05 -22.75 Z"/>

<path fill="#000000" fill-opacity="0.8980392156862745" stroke="none" d="
M 22.35 -22.5
Q 22.2228515625 -22.6248046875 22.05 -22.75 20.0775390625 -24.5794921875 17.3 -24.6
L -17.8 -24.6
Q -20.728515625 -24.5728515625 -22.85 -22.5 -24.9228515625 -20.391015625 -24.95 -17.45 -24.925 0.1 -24.95 17.65 -24.9169921875 20.4025390625 -23.1 22.4 -22.96171875 22.5595703125 -22.85 22.7 -20.728515625 24.7978515625 -17.8 24.8
L 17.3 24.8
Q 20.266015625 24.7978515625 22.35 22.7 24.4478515625 20.603515625 24.45 17.65
L 24.45 -17.45
Q 24.4478515625 -20.391015625 22.35 -22.5
M 21.8 -22.3
L 21.75 -22.35
Q 21.870703125 -22.2345703125 21.95 -22.15 23.920703125 -20.1841796875 23.9 -17.45
L 23.9 17.65
Q 23.920703125 20.3845703125 21.95 22.3 20.0470703125 24.270703125 17.3 24.25
L -17.8 24.25
Q -20.5091796875 24.270703125 -22.45 22.3 -22.571875 22.2078125 -22.7 22.05
L -22.65 22.15
Q -24.3978515625 20.265625 -24.4 17.65 -24.4 0.1 -24.4 -17.45 -24.3953125 -20.1841796875 -22.45 -22.15 -20.5091796875 -24.0578125 -17.8 -24.05
L 17.3 -24.05
Q 19.928125 -24.0603515625 21.8 -22.3 Z"/>

<path fill="#000000" stroke="none" d="
M 21.75 -22.35
L 21.8 -22.3
Q 19.928125 -24.0603515625 17.3 -24.05
L -17.8 -24.05
Q -20.5091796875 -24.0578125 -22.45 -22.15 -24.3953125 -20.1841796875 -24.4 -17.45 -24.4 0.1 -24.4 17.65 -24.3978515625 20.265625 -22.65 22.15
L -22.7 22.05
Q -22.571875 22.2078125 -22.45 22.3 -20.5091796875 24.270703125 -17.8 24.25
L 17.3 24.25
Q 20.0470703125 24.270703125 21.95 22.3 23.920703125 20.3845703125 23.9 17.65
L 23.9 -17.45
Q 23.920703125 -20.1841796875 21.95 -22.15 21.870703125 -22.2345703125 21.75 -22.35 Z"/>
</g>

<g id="classic_buttons__Key_Buttons_key___left_0_Layer7_0_FILL">
<path fill="url(#Gradient_1)" stroke="none" d="
M -21.2 20.7
Q -21.1068359375 20.81796875 -21.05 20.9 -19.323046875 22.60078125 -16.95 22.6
L 16.5 22.6
Q 18.898046875 22.60078125 20.6 20.9
L -0.4 -0.1 -21.2 20.7 Z"/>

<path fill="#E0CC76" stroke="none" d="
M -0.4 -0.1
L -21.05 -20.75
Q -22.72578125 -19.023046875 -22.75 -16.65 -22.725 0.0875 -22.75 16.8 -22.72578125 19.0826171875 -21.2 20.7
L -0.4 -0.1 -0.4 -0.1 Z"/>

<path fill="url(#Gradient_2)" stroke="none" d="
M 0.55 -1.05
Q 0.7876953125 -1.2662109375 1 -1.5
L 15.9 -16.35
Q 16.969140625 -17.684765625 20.3 -20.85
L 20.35 -20.8 20.4 -20.9
Q 18.7826171875 -22.42578125 16.5 -22.45
L -16.95 -22.45
Q -19.323046875 -22.42578125 -21.05 -20.75
L -0.4 -0.1
Q -0.1958984375 -0.3001953125 0 -0.5 0.1015625 -0.599609375 0.2 -0.7
L 0.2 -0.75
Q 0.3990234375 -0.8908203125 0.55 -1.05
M 0.2 -0.7
Q 0.111328125 -0.5705078125 0 -0.5 -0.1994140625 -0.284765625 -0.4 -0.1
L -0.35 -0.1 -0.2 -0.3
Q -0.1537109375 -0.3013671875 -0.15 -0.35
L 0.2 -0.7 Z"/>

<path fill="url(#Gradient_3)" stroke="none" d="
M 0 -0.5
Q 0.111328125 -0.5705078125 0.2 -0.7
L 0.25 -0.7
Q 0.4314453125 -0.8658203125 0.6 -1.05 0.44140625 -0.86796875 0.25 -0.7 0.0798828125 -0.51796875 -0.15 -0.35 -0.1537109375 -0.3013671875 -0.2 -0.3
L -0.35 -0.1 -0.4 -0.1 -0.4 -0.1 20.6 20.9
Q 22.30078125 19.198046875 22.3 16.8 22.3 0.0875 22.3 -16.65 22.30078125 -19.023046875 20.6 -20.75 20.5181640625 -20.8068359375 20.4 -20.9
L 20.35 -20.8 20.3 -20.85
Q 16.969140625 -17.684765625 15.9 -16.35
L 1 -1.5
Q 0.7876953125 -1.2662109375 0.55 -1.05 0.3990234375 -0.8908203125 0.2 -0.75
L 0.2 -0.7
Q 0.1015625 -0.599609375 0 -0.5 -0.1958984375 -0.3001953125 -0.4 -0.1 -0.1994140625 -0.284765625 0 -0.5 Z"/>
</g>

<g id="classic_buttons__Key_Buttons_key___left_0_Layer6_0_FILL">
<path fill="url(#Gradient_4)" stroke="none" d="
M 14.7 -15.4
Q 13.490625 -16.63125 11.75 -16.65
L -12.6 -16.65
Q -14.315625 -16.63125 -15.55 -15.4 -16.79375 -14.153125 -16.8 -12.4
L -16.8 11.9
Q -16.79375 13.640625 -15.55 14.85 -14.315625 16.11875 -12.6 16.1
L 11.75 16.1
Q 13.490625 16.11875 14.7 14.85 15.95625 13.640625 15.95 11.9
L 15.95 -12.4
Q 15.95625 -14.153125 14.7 -15.4 Z"/>
</g>

<g id="classic_buttons__Key_Buttons_key___left_0_Layer5_0_FILL">
<path fill="#FFFFFF" fill-opacity="0.2980392156862745" stroke="none" d="
M -15.6 -12.35
Q -15.60625 -14.090625 -14.4 -15.35 -14.3375 -15.362890625 -14.3 -15.4
L -14.9 -16
Q -15.54375 -15.723828125 -16.1 -15.25 -16.644140625 -14.7966796875 -16.9 -13.35
L -16.9 -10.75
Q -16.8677734375 -10.4826171875 -16.9 -10.15
L -16.9 11.3
Q -16.9025390625 11.7552734375 -16.85 12.65 -16.78671875 13.54375 -16.7 14.25 -16.5767578125 15.000390625 -16.15 15.65 -15.7171875 16.3580078125 -15.6 16.45 -15.4392578125 16.594921875 -15.05 16.9 -14.6501953125 17.1962890625 -13.2 17.45
L -10.6 17.45
Q -10.3326171875 17.4177734375 -10 17.45
L 11.45 17.45
Q 12.8904296875 17.5173828125 14.05 17.05 15.2478515625 16.5900390625 15.85 14.55 16.5173828125 12.498828125 14.95 13.8 13.371875 15.152734375 13.3 15.4 13.2416015625 15.70703125 13 15.9 12.802734375 16.14765625 12.1 16.15
L -12.2 16.15
Q -13.940625 16.15625 -15.2 14.9 -15.2119140625 14.8884765625 -15.6 13.45 -15.590234375 13.237109375 -15.6 13 -15.6044921875 12.655859375 -15.6 11.95
L -15.6 -12.35 Z"/>
</g>

<g id="classic_buttons__Key_Buttons_key___left_0_Layer4_0_FILL">
<path fill="#FFFFFF" stroke="none" d="
M -14.85 -15.95
Q -14.829296875 -15.9849609375 -14.8 -16.05 -14.5947265625 -16.3451171875 -14.35 -16.4 -15.05 -16.9 -15.95 -15.9 -16.00546875 -15.830859375 -16.05 -15.75 -16.5921875 -15.01171875 -16.8 -13.9 -16.8869140625 -13.328125 -16.9 -12.7
L -16.9 -12.2
Q -17.603125 -1.8875 -16.9 9.75 -16.853125 10.51875 -16.8 11.3 -16.8 -12.8689453125 -14.85 -15.95
M 11.65 -16.65
Q 11.6724609375 -16.6375 11.7 -16.65 12.520703125 -16.1646484375 13.25 -15.8 14.6048828125 -15.1224609375 15.9 -11.9 15.95 -11.778515625 16 -11.65 16.01796875 -13.4021484375 15.7 -14.55 15.5421875 -15.23203125 15.25 -15.7 15.1126953125 -15.9248046875 14.95 -16.1 13.8708984375 -17.2533203125 11.65 -16.65 Z"/>

<path fill="#FFFFFF" fill-opacity="0.2980392156862745" stroke="none" d="
M -16.8 -13.9
Q -16.849609375 -13.6353515625 -16.9 -13.35
L -16.9 -12.7
Q -16.8869140625 -13.328125 -16.8 -13.9 Z"/>

<path fill="#AB9C5A" stroke="none" d="
M 12.1 16.15
Q 12.7810546875 16.14765625 13 15.95 12.417578125 16.12265625 11.75 16.1
L -12.6 16.1
Q -12.6537109375 16.1248046875 -12.75 16.1 -12.471875 16.1509765625 -12.2 16.15
L 12.1 16.15
M 20.4 -20.9
L 20.4 -20.9
Q 20.372265625 -20.847265625 20.35 -20.8
L 20.4 -20.9 Z"/>
</g>

<g id="classic_buttons__Key_Buttons_key___left_0_Layer4_1_FILL">
<path fill="#FFFFFF" fill-opacity="0.1450980392156863" stroke="none" d="
M 20.3 20.65
Q 21.75 19.25 20.3 17.7
L 20.35 17.7
Q 19.3 16.55 18.2 15.45 17.3 14.55 16.5 14.75 15.7 14.75 15.1 15.85
L 15.1 15.8
Q 14.5 16.85 15.1 17.85
L 15.05 17.85
Q 15.45 18.5 15.95 19.1
L 16 19.15
Q 17.15 20.5 18.6 21.1 18.8 21.2 19 21.2 19.75 21.2 20.3 20.65
M 17.85 15.8
Q 18.9 16.9 19.95 18.05 21.05 19.2 19.95 20.3 19.55 20.7 19 20.7 18.9 20.7 18.8 20.65 17.45 20.05 16.35 18.8 15.9 18.25 15.5 17.6 15.05 16.85 15.5 16.1 16 15.3 16.6 15.25 17.2 15.15 17.85 15.8 Z"/>

<path fill="#FFFFFF" fill-opacity="0.2980392156862745" stroke="none" d="
M 19.95 18.05
Q 18.9 16.9 17.85 15.8 17.2 15.15 16.6 15.25 16 15.3 15.5 16.1 15.05 16.85 15.5 17.6 15.9 18.25 16.35 18.8 17.45 20.05 18.8 20.65 18.9 20.7 19 20.7 19.55 20.7 19.95 20.3 21.05 19.2 19.95 18.05 Z"/>
</g>

<g id="classic_buttons__Key_Buttons_key___left_0_Layer4_2_FILL">
<path fill="#FFFFFF" fill-opacity="0.1450980392156863" stroke="none" d="
M -21.05 -18.05
L -21.1 -18.05
Q -20.7 -17.4 -20.2 -16.8
L -20.15 -16.75
Q -19 -15.4 -17.55 -14.8 -17.35 -14.7 -17.15 -14.7 -16.4 -14.7 -15.85 -15.25 -14.4 -16.65 -15.85 -18.2
L -15.8 -18.2
Q -16.85 -19.35 -17.95 -20.45 -18.85 -21.35 -19.65 -21.15 -20.45 -21.15 -21.05 -20.05
L -21.05 -20.1
Q -21.65 -19.05 -21.05 -18.05
M -20.65 -18.3
Q -21.1 -19.05 -20.65 -19.8 -20.15 -20.6 -19.55 -20.65 -18.95 -20.75 -18.3 -20.1 -17.25 -19 -16.2 -17.85 -15.1 -16.7 -16.2 -15.6 -16.6 -15.2 -17.15 -15.2 -17.25 -15.2 -17.35 -15.25 -18.7 -15.85 -19.8 -17.1 -20.25 -17.65 -20.65 -18.3 Z"/>

<path fill="#FFFFFF" fill-opacity="0.2980392156862745" stroke="none" d="
M -20.65 -19.8
Q -21.1 -19.05 -20.65 -18.3 -20.25 -17.65 -19.8 -17.1 -18.7 -15.85 -17.35 -15.25 -17.25 -15.2 -17.15 -15.2 -16.6 -15.2 -16.2 -15.6 -15.1 -16.7 -16.2 -17.85 -17.25 -19 -18.3 -20.1 -18.95 -20.75 -19.55 -20.65 -20.15 -20.6 -20.65 -19.8 Z"/>
</g>

<g id="classic_buttons__Key_Buttons_key___left_0_Layer4_3_FILL">
<path fill="#FFFFFF" fill-opacity="0.1450980392156863" stroke="none" d="
M -15.65 15
Q -17.05 13.55 -18.6 15
L -18.6 14.95
Q -19.75 16 -20.85 17.1 -21.75 18 -21.55 18.8 -21.55 19.6 -20.45 20.2
L -20.5 20.2
Q -19.45 20.8 -18.45 20.2
L -18.45 20.25
Q -17.8 19.85 -17.2 19.35
L -17.15 19.3
Q -15.8 18.15 -15.2 16.7 -15.1 16.5 -15.1 16.3 -15.1 15.55 -15.65 15
M -15.6 16.3
Q -15.6 16.4 -15.65 16.5 -16.25 17.85 -17.5 18.95 -18.05 19.4 -18.7 19.8 -19.45 20.25 -20.2 19.8 -21 19.3 -21.05 18.7 -21.15 18.1 -20.5 17.45 -19.4 16.4 -18.25 15.35 -17.1 14.25 -16 15.35 -15.6 15.75 -15.6 16.3 Z"/>

<path fill="#FFFFFF" fill-opacity="0.2980392156862745" stroke="none" d="
M -15.65 16.5
Q -15.6 16.4 -15.6 16.3 -15.6 15.75 -16 15.35 -17.1 14.25 -18.25 15.35 -19.4 16.4 -20.5 17.45 -21.15 18.1 -21.05 18.7 -21 19.3 -20.2 19.8 -19.45 20.25 -18.7 19.8 -18.05 19.4 -17.5 18.95 -16.25 17.85 -15.65 16.5 Z"/>
</g>

<g id="classic_buttons__Key_Buttons_key___left_0_Layer3_0_FILL">
<path fill="#000000" stroke="none" d="
M -5.35 -0.3
L -5.35 -2.2 -13.6 0.35
Q -14.85 0.75 -13.6 1
L -5.35 3.5 -5.35 1.6 2.9 1.6
Q 3.25 1.6 3.55 1.35 3.8 1.05 3.8 0.65 3.8 0.25 3.55 0 3.25 -0.3 2.9 -0.3
L -5.35 -0.3 Z"/>
</g>

<g id="classic_buttons__Key_Buttons_key___left_0_Layer2_0_FILL">
<path fill="#000000" fill-opacity="0.2" stroke="none" d="
M 17.3 -11.65
Q 17.3 -12.0990234375 17.35 -12.55 17.2095703125 -12.722265625 17.15 -13 16.8984375 -14.077734375 20.5 -20.9 13.952734375 -14.7716796875 15.95 -15.45 15.7525390625 -14.6041015625 15.8 -13.75 15.805078125 -13.6845703125 15.8 -13.65 16.0025390625 -13.0025390625 16 -12.3
L 16 12
Q 16.00625 13.740625 14.75 14.95 14.7375 15.012890625 14.7 15.05
L 15.3 15.65
Q 15.94375 15.373828125 16.5 14.9 17.044140625 14.4466796875 17.3 13
L 17.3 10.4
Q 17.2677734375 10.1326171875 17.3 9.8
L 17.3 -11.65 Z"/>
</g>

<path id="classic_buttons__Key_Buttons_key___left_0_Layer5_0_1_STROKES" stroke="#FFFFFF" stroke-opacity="0.2" stroke-width="1" stroke-linejoin="round" stroke-linecap="round" fill="none" d="
M 11.25 -16.2
L -14 -16.2"/>
</defs>

<g id="bt_antes" transform="matrix( 1, 0, 0, 1, 29.1,28.75) ">
<g transform="matrix( 1, 0, 0, 1, 0,0) ">
<use xlink:href="#classic_buttons__Key_Buttons_key___left_0_Layer8_0_FILL"/>
</g>

<g transform="matrix( 1, 0, 0, 1, 0,0) ">
<use xlink:href="#classic_buttons__Key_Buttons_key___left_0_Layer7_0_FILL"/>
</g>

<g transform="matrix( 1, 0, 0, 1, 0,0) ">
<use xlink:href="#classic_buttons__Key_Buttons_key___left_0_Layer6_0_FILL"/>
</g>

<g transform="matrix( 1, 0, 0, 1, 0,0) ">
<use xlink:href="#classic_buttons__Key_Buttons_key___left_0_Layer5_0_FILL"/>

<use xlink:href="#classic_buttons__Key_Buttons_key___left_0_Layer5_0_1_STROKES"/>
</g>

<g transform="matrix( 1, 0, 0, 1, 0,0) ">
<use xlink:href="#classic_buttons__Key_Buttons_key___left_0_Layer4_0_FILL"/>
</g>

<g transform="matrix( 1, 0, 0, 1, 0,0) ">
<use xlink:href="#classic_buttons__Key_Buttons_key___left_0_Layer4_1_FILL"/>
</g>

<g transform="matrix( 1, 0, 0, 1, 0,0) ">
<use xlink:href="#classic_buttons__Key_Buttons_key___left_0_Layer4_2_FILL"/>
</g>

<g transform="matrix( 1, 0, 0, 1, 0,0) ">
<use xlink:href="#classic_buttons__Key_Buttons_key___left_0_Layer4_3_FILL"/>
</g>

<g transform="matrix( 1, 0, 0, 1, 0,0) ">
<use xlink:href="#classic_buttons__Key_Buttons_key___left_0_Layer3_0_FILL"/>
</g>

<g transform="matrix( 1, 0, 0, 1, 0,0) ">
<use xlink:href="#classic_buttons__Key_Buttons_key___left_0_Layer2_0_FILL"/>
</g>
</g>
</svg>
