<svg xmlns="http://www.w3.org/2000/svg" xmlns:xlink="http://www.w3.org/1999/xlink" preserveAspectRatio="none" width="397" height="385" viewBox="0 0 397 385"><defs><linearGradient id="a" gradientUnits="userSpaceOnUse" x1="341.9" y1="112.7" x2="351.5" y2="112.7"><stop offset="1.176%"/><stop offset="100%" stop-color="#777"/></linearGradient><linearGradient id="b" gradientUnits="userSpaceOnUse" x1="344.65" y1="-30.137" x2="344.65" y2="-42.862"><stop offset="1.176%" stop-color="#C3C3C3"/><stop offset="100%" stop-color="#FFF"/></linearGradient><linearGradient id="c" gradientUnits="userSpaceOnUse" x1="344.05" y1="204.563" x2="344.05" y2="200.137"><stop offset="1.176%" stop-color="#C3C3C3"/><stop offset="100%" stop-color="#FFF"/></linearGradient><linearGradient id="d" gradientUnits="userSpaceOnUse" x1="153.6" y1="207.213" x2="153.6" y2="197.888"><stop offset="1.176%"/><stop offset="100%" stop-color="#777"/></linearGradient><linearGradient id="e" gradientUnits="userSpaceOnUse" x1="534.5" y1="207.162" x2="534.5" y2="197.838"><stop offset="1.176%"/><stop offset="100%" stop-color="#777"/></linearGradient><path fill="url(#a)" d="M351.45-84.8h-9.55v383.95h9.55V-84.8z" id="g"/><path fill="#FFF" d="M526.95-28.35l-365.65 1.7V203l365.65-1.7V-28.35z" id="h"/><path fill="url(#b)" d="M160-47.35v20.9l369.3-.05v-20.9l-369.3.05z" id="j"/><path fill="url(#c)" d="M526.95 205.85v-7.3h-365.7v7.3h365.7z" id="m"/><path fill="url(#d)" d="M161.25 197.9l-15.25-.05v9.3l15.25.05v-9.3z" id="o"/><path fill="url(#e)" d="M542.2 197.85l-15.3.05v9.3l15.3-.05v-9.3z" id="p"/><path id="f" stroke="#666" stroke-linejoin="round" stroke-linecap="round" fill="none" d="M159.65-48.1L310.2-84.9m72.55 0L528-46.25"/><path id="i" stroke="#FFF" stroke-linejoin="round" stroke-linecap="round" fill="none" d="M526.95 201.3L161.3 203V-26.65l365.65-1.7V201.3z"/><path id="k" stroke="#FFF" stroke-linejoin="round" stroke-linecap="round" fill="none" d="M160-47.35l369.3-.05"/><path id="l" stroke="#999" stroke-linejoin="round" stroke-linecap="round" fill="none" d="M529.3-26.5l-369.3.05"/><path id="n" stroke="#DEDEDE" stroke-linejoin="round" stroke-linecap="round" fill="none" d="M526.95 205.85h-365.7v-7.3h365.7v7.3z"/></defs><use xlink:href="#f" transform="translate(-145.6 85.4)"/><use xlink:href="#g" transform="translate(-145.6 85.4)"/><g transform="translate(-145.6 85.4)"><use xlink:href="#h"/><use xlink:href="#i"/></g><g transform="translate(-145.6 85.4)"><use xlink:href="#j"/><use xlink:href="#k"/><use xlink:href="#l"/></g><g transform="translate(-145.6 85.4)"><use xlink:href="#m"/><use xlink:href="#n"/></g><use xlink:href="#o" transform="translate(-145.6 85.4)"/><use xlink:href="#p" transform="translate(-145.6 85.4)"/></svg>