<svg xmlns="http://www.w3.org/2000/svg" width="459" height="70" viewBox="0 0 459 70"><path fill-rule="evenodd" clip-rule="evenodd" fill="#FF2615" d="M284.025 5.03c-.724-.103-1.033-.26-.93-.464.104-.208.517-.26 1.24-.156 18.498 1.447 37.718 3.203 57.663 5.27.723.104 1.084.258 1.084.466-.103.207-.567.26-1.394.154-20.253-2.067-39.475-3.823-57.663-5.27zm-3.72.31a5.778 5.778 0 0 1-1.395.154c-23.458.31-41.025.62-52.703.93 9.714.413 24.49 1.188 44.332 2.325h5.735c1.55 0 3.462.155 5.735.465 5.787.31 15.19.878 28.212 1.705 12.09.724 21.597 1.24 28.52 1.55 7.028.31 14.21.672 21.548 1.085 8.577.414 17.413.878 26.506 1.395 13.745.724 25.06 1.5 33.947 2.325 11.987 1.137 23.148 2.584 33.48 4.34 1.448.104 2.74.414 3.876.93 1.033.516 1.55.982 1.55 1.396 0 .414-.517.723-1.55.93-1.138.103-2.43.103-3.876 0-19.428-2.17-43.3-4.29-71.614-6.354-30.174-2.068-53.478-3.72-69.908-4.96a268.302 268.302 0 0 1-2.945-.31c-8.68-.622-14.003-.983-15.966-1.086v.31c0 .414-.36.776-1.085 1.086h-.31c5.478.414 11.42.98 17.827 1.705 10.127.104 18.652.363 25.576.776 9.3.413 17.93 1.188 25.886 2.325 8.68 1.138 19.894 3.204 33.637 6.202 18.086 1.653 32.398 3.15 42.94 4.496.62 0 1.033.154 1.24.465.206.208-.053.31-.776.31-7.13-.413-17.36-1.085-30.69-2.015 1.446.827 2.014 1.602 1.704 2.325-.414.722-1.705 1.188-3.876 1.394 2.274.31 4.548.672 6.82 1.085.622.103 1.19.26 1.705.465.414.208.57.413.467.62-.104.104-.413.207-.93.31-.518.104-1.087.104-1.706 0-7.647-1.136-16.896-2.428-27.747-3.874-11.986-.93-23.25-1.81-33.79-2.635 1.446.723 2.376 1.5 2.79 2.325l5.114.465c33.793 1.137 65.983 4.547 96.57 10.23.724.104 1.085.31 1.085.62-.104.21-.517.26-1.24.155-10.127-1.963-19.738-3.513-28.83-4.65.412.207.36.362-.157.466-.62 0-1.137-.105-1.55-.312-.413-.208-.362-.362.155-.465a676.53 676.53 0 0 0-54.408-4.96c18.6 1.86 35.032 4.03 49.294 6.51l5.58.155c.62 0 1.033.103 1.24.31.102.207-.207.31-.93.31h-1.55c1.55.207 2.79.57 3.718 1.085.932.518 1.293.982 1.086 1.396-.31.515-1.086.826-2.325.93-1.343.103-2.79.052-4.34-.155l-25.73-3.41-5.736-.155c12.71 2.066 25.782 4.39 39.217 6.975a5.48 5.48 0 0 1 1.396.465c.31.103.465.26.465.465-.103.207-.36.31-.774.31h-1.55c-26.972-2.687-50.585-4.857-70.84-6.51-6.82.518-14.933 1.188-24.336 2.015l2.946.31c5.58.518 11.78.93 18.6 1.24 3.617.104 9.663.26 18.138.466 7.75.206 13.795.413 18.135.62 6.613.31 12.71.774 18.292 1.394.722 0 1.084.104 1.084.31s-.363.31-1.085.31c-5.063-.516-11.007-.93-17.826-1.24l-17.982-.463c-11.47-.517-21.184-.672-29.142-.465 5.27.31 14.623.877 28.056 1.705 11.782.62 21.134 1.24 28.058 1.86.826 0 1.5.154 2.015.465.104-.104.31-.154.62-.154 1.964-.104 4.547-.104 7.75 0 .62 0 1.033.154 1.24.465.207.103 0 .154-.62.154-3.203-.104-5.683-.104-7.44 0-.413 0-.774-.052-1.085-.154 0 .31-.516.465-1.55.465-7.13-.104-16.586-.414-28.366-.93-15.5-.725-25.163-1.137-28.987-1.24-.206.206-.516.414-.93.62-1.652.62-3.978.723-6.975.31l-2.015-.465a11216.7 11216.7 0 0 0-24.647-3.1c-1.963.206-3.98.257-6.046.154-10.54.518-17.877.877-22.01 1.085.413.208.62.413.62.62-.105.31-.518.568-1.24.775a21.13 21.13 0 0 1-2.637.154l-3.1-.153c4.547.516 7.39.826 8.525.93.31 0 .724.05 1.24.154 1.24.105 4.393.312 9.456.622 11.677.412 25.524.774 41.542 1.085 8.99.206 22.527.465 40.612.774.517-.102.98 0 1.395.312.31.206.207.31-.31.31-4.134.207-12.556.93-25.267 2.17-10.438 1.034-19.22 1.603-26.352 1.705-13.95.31-31.104.774-51.462 1.396a881.48 881.48 0 0 0-15.656.465c-10.644-.31-22.115-.258-34.413.156-8.473.31-19.944.93-34.41 1.858-20.152 1.345-35.706 2.48-46.66 3.41-16.74 1.345-31.88 2.79-45.417 4.34-5.684.83-10.902 1.034-15.655.62-4.858-.62-7.906-1.756-9.146-3.41-.828-1.03-.828-2.065 0-3.1.825-1.137 2.324-2.223 4.495-3.254l-2.792.465-4.65.154c-4.546.104-8.164-.258-10.85-1.084l-3.72-.932c-1.55-.722-4.547-1.65-8.99-2.788-4.03-1.137-6.873-2.118-8.525-2.946l.31-1.084-.93-.31c-3.204-.31-5.375-.932-6.51-1.86l-.312-1.397c-.206-1.653.518-3.357 2.17-5.115-.31-.516-.31-1.085 0-1.705-2.892-1.24-3.978-2.584-3.254-4.03-.724-.104-1.085-.31-1.085-.62s.31-.57.93-.775c.412-.208.93-.362 1.55-.465a48.328 48.328 0 0 0-2.016-.62l-8.06.93-3.1-.31-1.24-.156c-1.963-.93-3.1-1.5-3.41-1.706-.312-.208-.517-.57-.62-1.085.103-.104.257-.26.465-.466l-4.65.155c-.208-.312-.362-.466-.465-.466-.104-.103-.31-.154-.62-.154l-.31-.314c.724-.62 1.085-1.034 1.085-1.24l2.79-1.24-.62-.155h.93l.465-.31c.93-.206 2.17-.31 3.72-.31.104.207 0 .362-.31.466-.413.206-.982.31-1.705.31l-2.17-.155-.31.155 3.874.775.31-.62 1.084.466-.62-.465h1.55l-1.86-.155c2.48-.31 4.185-.568 5.116-.775.93-.103 1.912-.31 2.944-.62l-.31-.31c2.17-.31 4.754-.567 7.75-.775.31 0 .67.05 1.084.154.31-.31.878-.466 1.706-.466l2.015-.31.31-.154 1.86-.62c.62-.31 2.842-1.085 6.666-2.326 1.137-.206 2.22-.31 3.254-.31l-.93-.155c-.31 0-.465-.104-.465-.312-.103-.31-.206-.413-.31-.31-4.65 0-10.85.414-18.6 1.24-.518.207-.93.414-1.242.62h.775l-.775.466c2.895-.104 6.563-.156 11.007-.156.516-.103.93-.052 1.24.156.207 0 .207.103 0 .31-.414.413-1.24.67-2.48.774-2.686.104-5.942.36-9.766.775-2.272.208-4.237.413-5.89.62-1.033.31-2.118.568-3.255.776-2.274.413-4.29.567-6.047.464-1.756-.206-2.687-.568-2.79-1.085-.62-.517-1.034-.88-1.24-1.085-.414-.413-.465-.828-.156-1.24 1.55-1.654 4.65-3.152 9.3-4.495h-1.24c-4.752.103-7.956-.362-9.61-1.396-1.653-1.137-1.137-2.53 1.55-4.186 2.48-1.756 6.305-3.255 11.47-4.495C24.022 6.216 28.88 5.7 33.53 5.803l-1.24-.463c1.76-.31 4.394-.518 7.908-.62l-5.425-.312c9.506-.516 17.516-.257 24.026.775h2.79c2.17-.31 4.082-.31 5.735 0l.154.156c.31-.105.67-.157 1.084-.157C79 4.358 88.044 4.41 95.69 5.34c3.72-.31 6.975-.26 9.765.154h.156l-2.324-.62c.93-.104 2.066-.052 3.41.155 1.343.205 2.377.31 3.1.31-.517-.414-.88-.724-1.085-.93 4.34-.207 10.903-.466 19.686-.776 7.544-.31 13.796-.257 18.757.156.516-.104.98-.104 1.394 0 6.408-1.344 11.73-2.12 15.967-2.325l-6.046-.156c4.857-.828 9.3-1.24 13.33-1.24 6.51-.21 12.867.05 19.067.774 6.406.724 11.264 1.81 14.57 3.255 19.222-.415 43.505-.415 72.854 0 1.446 0 2.324.258 2.635.774 0 .105-.207.26-.62.466zm142.453 31.467l-.31.154c-.62 0-1.138-.102-1.55-.31-.414-.205-.362-.36.155-.464.517-.103 1.032 0 1.55.31.104 0 .155.103.155.31zM26.4 21.617c-.205.102-.31.205-.31.308l.775-.31c-.205-.103-.36-.103-.464 0zm.466-.467l-.775.156c-.308 0-.566.103-.774.31.31-.103.672-.103 1.085 0 .104-.207.26-.362.466-.466zm33.172-11.005a92.484 92.484 0 0 1-5.735 2.015 184.384 184.384 0 0 1 22.632-1.085l15.034-.93-.776-.153h4.34L92.28 9.37l-2.015-.154c-4.237.31-9.868.516-16.896.62-5.58.102-10.024.206-13.332.31zm8.526 10.696A304.65 304.65 0 0 1 83.6 19.6c-.31-.207-.31-.363 0-.465.206-.103.567-.155 1.085-.155l1.86-.31c-4.34.103-9.766.362-16.277.775-6.82.414-11.78.672-14.88.775 2.376.208 4.91.724 7.596 1.55 1.86-.413 3.72-.723 5.58-.93zM39.112 48.434l.31.154c.31-1.343.672-2.636 1.085-3.875a30.897 30.897 0 0 0-1.395 3.72z"/></svg>