<?xml version="1.0" encoding="utf-8"?>
<!-- Generator: Adobe Illustrator 16.0.0, SVG Export Plug-In . SVG Version: 6.00 Build 0)  -->
<!DOCTYPE svg PUBLIC "-//W3C//DTD SVG 1.1//EN" "http://www.w3.org/Graphics/SVG/1.1/DTD/svg11.dtd">
<svg version="1.1" id="Camada_1" xmlns="http://www.w3.org/2000/svg" xmlns:xlink="http://www.w3.org/1999/xlink" x="0px" y="0px"
	 width="459px" height="70px" viewBox="0 0 459 70" enable-background="new 0 0 459 70" xml:space="preserve">
<g>
	<path id="corTinta" fill-rule="evenodd" clip-rule="evenodd" fill="#FF2615" d="M284.025,5.03c-0.724-0.103-1.033-0.259-0.93-0.464
		c0.104-0.208,0.517-0.259,1.24-0.156c18.498,1.447,37.718,3.203,57.663,5.271c0.723,0.103,1.084,0.257,1.084,0.465
		c-0.103,0.207-0.567,0.259-1.394,0.154C321.435,8.233,302.213,6.477,284.025,5.03z M280.305,5.34
		c-0.413,0.103-0.878,0.154-1.395,0.154c-23.458,0.311-41.025,0.621-52.703,0.93c9.714,0.413,24.491,1.188,44.332,2.325h5.736
		c1.55,0,3.462,0.156,5.735,0.466c5.787,0.309,15.19,0.878,28.212,1.705c12.09,0.724,21.597,1.24,28.521,1.55
		c7.027,0.31,14.21,0.672,21.547,1.085c8.577,0.414,17.413,0.878,26.506,1.395c13.745,0.724,25.061,1.499,33.947,2.325
		c11.987,1.137,23.148,2.584,33.481,4.341c1.447,0.103,2.738,0.413,3.875,0.929c1.034,0.516,1.551,0.982,1.551,1.396
		c0,0.413-0.517,0.722-1.551,0.929c-1.137,0.103-2.428,0.103-3.875,0c-19.428-2.17-43.3-4.289-71.614-6.354
		c-30.174-2.068-53.478-3.721-69.908-4.961c-1.034-0.103-2.015-0.207-2.945-0.31c-8.681-0.621-14.003-0.982-15.966-1.085
		c0,0.103,0,0.208,0,0.311c0,0.413-0.362,0.775-1.086,1.085c-0.103,0-0.205,0-0.309,0c5.477,0.414,11.418,0.981,17.826,1.705
		c10.127,0.103,18.652,0.362,25.576,0.775c9.301,0.413,17.929,1.188,25.886,2.325c8.681,1.137,19.894,3.203,33.637,6.201
		c18.085,1.653,32.397,3.151,42.938,4.496c0.621,0,1.034,0.154,1.24,0.465c0.207,0.208-0.052,0.31-0.775,0.31
		c-7.13-0.413-17.361-1.085-30.691-2.015c1.447,0.827,2.015,1.602,1.705,2.325c-0.414,0.722-1.705,1.188-3.876,1.394
		c2.274,0.311,4.548,0.672,6.821,1.085c0.621,0.103,1.188,0.259,1.704,0.465c0.414,0.208,0.569,0.413,0.467,0.621
		c-0.104,0.103-0.413,0.206-0.931,0.31c-0.517,0.103-1.086,0.103-1.705,0c-7.647-1.137-16.896-2.429-27.747-3.875
		c-11.987-0.931-23.251-1.809-33.791-2.635c1.446,0.723,2.376,1.499,2.789,2.325l5.115,0.465
		c33.793,1.137,65.983,4.547,96.571,10.23c0.723,0.104,1.084,0.311,1.084,0.621c-0.103,0.208-0.516,0.259-1.239,0.154
		c-10.127-1.963-19.738-3.513-28.831-4.65c0.413,0.207,0.361,0.362-0.156,0.466c-0.619,0-1.137-0.104-1.55-0.311
		c-0.413-0.208-0.362-0.362,0.155-0.465c-17.981-2.378-36.116-4.031-54.408-4.96c18.601,1.86,35.032,4.03,49.294,6.511l5.579,0.154
		c0.621,0,1.034,0.103,1.24,0.311c0.103,0.206-0.206,0.31-0.93,0.31h-1.55c1.55,0.206,2.79,0.568,3.719,1.084
		c0.932,0.518,1.293,0.982,1.086,1.396c-0.311,0.516-1.086,0.827-2.325,0.93c-1.343,0.104-2.79,0.053-4.34-0.154l-25.731-3.411
		l-5.735-0.154c12.711,2.066,25.782,4.391,39.217,6.975c0.517,0.103,0.982,0.257,1.396,0.465c0.31,0.103,0.465,0.259,0.465,0.465
		c-0.103,0.207-0.361,0.31-0.774,0.31c-0.519,0-1.034,0-1.551,0c-26.972-2.687-50.585-4.857-70.839-6.51
		c-6.821,0.518-14.934,1.188-24.337,2.015l2.946,0.31c5.579,0.518,11.779,0.931,18.601,1.24c3.616,0.104,9.662,0.259,18.137,0.466
		c7.75,0.206,13.795,0.413,18.135,0.619c6.613,0.311,12.711,0.775,18.292,1.395c0.722,0,1.084,0.104,1.084,0.311
		s-0.362,0.309-1.084,0.309c-5.063-0.516-11.007-0.929-17.826-1.239c-7.958-0.206-13.95-0.362-17.981-0.464
		c-11.47-0.517-21.184-0.672-29.142-0.465c5.271,0.31,14.623,0.877,28.056,1.705c11.782,0.62,21.134,1.239,28.058,1.86
		c0.826,0,1.499,0.154,2.015,0.465c0.104-0.104,0.311-0.154,0.621-0.154c1.963-0.104,4.546-0.104,7.75,0
		c0.619,0,1.032,0.154,1.24,0.465c0.206,0.103,0,0.154-0.621,0.154c-3.203-0.104-5.683-0.104-7.439,0
		c-0.414,0-0.775-0.052-1.086-0.154c0,0.311-0.516,0.465-1.55,0.465c-7.13-0.104-16.586-0.414-28.366-0.93
		c-15.501-0.725-25.163-1.137-28.987-1.24c-0.206,0.206-0.516,0.414-0.93,0.619c-1.652,0.621-3.978,0.724-6.975,0.311l-2.015-0.465
		c-4.858-0.621-13.073-1.652-24.647-3.1c-1.963,0.206-3.979,0.257-6.046,0.154c-10.54,0.518-17.877,0.877-22.01,1.085
		c0.413,0.208,0.619,0.413,0.619,0.62c-0.104,0.309-0.517,0.568-1.24,0.775c-0.826,0.104-1.704,0.154-2.636,0.154l-3.1-0.154
		c4.547,0.516,7.389,0.826,8.525,0.93c0.311,0,0.724,0.051,1.24,0.154c1.241,0.104,4.393,0.311,9.456,0.621
		c11.677,0.412,25.524,0.774,41.542,1.085c8.99,0.206,22.527,0.465,40.612,0.774c0.517-0.103,0.981,0,1.395,0.311
		c0.311,0.206,0.207,0.309-0.309,0.309c-4.135,0.208-12.557,0.932-25.268,2.172c-10.438,1.033-19.221,1.602-26.352,1.704
		c-13.951,0.31-31.104,0.774-51.462,1.396c-5.063,0.104-10.283,0.259-15.656,0.465c-10.644-0.311-22.115-0.258-34.413,0.156
		c-8.473,0.309-19.944,0.93-34.411,1.858c-20.151,1.345-35.705,2.481-46.659,3.411c-16.741,1.344-31.879,2.789-45.417,4.34
		c-5.684,0.828-10.902,1.033-15.655,0.62c-4.858-0.62-7.906-1.757-9.146-3.411c-0.827-1.031-0.827-2.065,0-3.1
		c0.826-1.137,2.325-2.223,4.496-3.254l-2.792,0.465l-4.65,0.154c-4.546,0.104-8.164-0.258-10.851-1.084l-3.719-0.932
		c-1.55-0.723-4.547-1.652-8.99-2.789c-4.031-1.137-6.873-2.118-8.525-2.946l0.309-1.084l-0.93-0.31
		c-3.203-0.311-5.374-0.932-6.51-1.861l-0.311-1.396c-0.206-1.653,0.518-3.357,2.171-5.115c-0.311-0.516-0.311-1.085,0-1.705
		c-2.893-1.24-3.979-2.584-3.255-4.031c-0.724-0.103-1.085-0.309-1.085-0.619c0-0.31,0.31-0.569,0.929-0.775
		c0.413-0.208,0.931-0.362,1.55-0.465c-0.619-0.208-1.292-0.413-2.015-0.621l-8.061,0.93c-1.032-0.103-2.066-0.206-3.1-0.309
		l-1.24-0.156c-1.963-0.93-3.1-1.499-3.411-1.705c-0.311-0.208-0.516-0.569-0.619-1.085c0.103-0.103,0.257-0.259,0.465-0.465
		l-4.65,0.155c-0.208-0.311-0.362-0.465-0.465-0.465c-0.104-0.103-0.31-0.154-0.621-0.154L7.8,29.056
		c0.724-0.621,1.085-1.034,1.085-1.24l2.79-1.241l-0.619-0.154h0.93l0.464-0.311c0.931-0.206,2.171-0.31,3.721-0.31
		c0.103,0.207,0,0.362-0.311,0.466c-0.413,0.206-0.982,0.309-1.705,0.309l-2.17-0.154l-0.311,0.154l3.875,0.775l0.31-0.619
		l1.085,0.465l-0.621-0.465c0.827,0,1.344,0,1.55,0l-1.86-0.156c2.481-0.309,4.186-0.568,5.117-0.775
		c0.929-0.103,1.912-0.309,2.944-0.619l-0.311-0.311c2.171-0.31,4.755-0.567,7.75-0.775c0.311,0,0.672,0.051,1.085,0.154
		c0.31-0.309,0.878-0.465,1.706-0.465l2.015-0.31l0.311-0.154l1.859-0.621c0.621-0.309,2.843-1.084,6.667-2.325
		c1.137-0.206,2.221-0.309,3.254-0.309l-0.929-0.156c-0.311,0-0.466-0.103-0.466-0.311c-0.103-0.309-0.206-0.413-0.309-0.309
		c-4.65,0-10.851,0.413-18.601,1.24c-0.518,0.206-0.931,0.413-1.242,0.619h0.775l-0.775,0.466c2.895-0.104,6.563-0.156,11.007-0.156
		c0.516-0.103,0.929-0.052,1.24,0.156c0.207,0,0.207,0.103,0,0.309c-0.414,0.414-1.24,0.672-2.479,0.775
		c-2.687,0.104-5.943,0.361-9.767,0.775c-2.272,0.208-4.237,0.413-5.89,0.621c-1.033,0.31-2.118,0.567-3.255,0.775
		c-2.273,0.414-4.289,0.568-6.046,0.465c-1.756-0.206-2.687-0.568-2.79-1.085c-0.621-0.516-1.034-0.878-1.24-1.084
		c-0.414-0.413-0.465-0.828-0.156-1.241c1.55-1.653,4.65-3.151,9.301-4.494h-1.24c-4.753,0.103-7.957-0.362-9.611-1.396
		c-1.653-1.137-1.137-2.531,1.55-4.186c2.481-1.756,6.305-3.255,11.471-4.495c5.063-1.137,9.921-1.653,14.572-1.55L32.291,5.34
		c1.758-0.311,4.393-0.518,7.907-0.621l-5.425-0.311c9.506-0.516,17.516-0.257,24.026,0.775c0.414,0,1.343,0,2.79,0
		c2.171-0.31,4.083-0.31,5.736,0l0.154,0.156c0.31-0.104,0.672-0.156,1.085-0.156C79.001,4.358,88.043,4.409,95.69,5.34
		c3.721-0.311,6.975-0.259,9.765,0.154h0.156l-2.325-0.621c0.93-0.103,2.066-0.051,3.409,0.156c1.344,0.206,2.378,0.311,3.1,0.311
		c-0.516-0.414-0.878-0.724-1.084-0.931c4.34-0.206,10.902-0.465,19.685-0.775c7.544-0.311,13.796-0.257,18.757,0.156
		c0.516-0.104,0.981-0.104,1.394,0c6.408-1.344,11.73-2.119,15.967-2.325l-6.046-0.156c4.857-0.827,9.3-1.24,13.33-1.24
		c6.511-0.208,12.867,0.051,19.067,0.775c6.406,0.724,11.264,1.809,14.57,3.255c19.222-0.414,43.505-0.414,72.854,0
		c1.447,0,2.325,0.259,2.636,0.775C280.926,4.979,280.718,5.133,280.305,5.34z M422.758,36.807l-0.31,0.154
		c-0.619,0-1.138-0.103-1.551-0.31c-0.413-0.206-0.361-0.362,0.156-0.465c0.517-0.103,1.032,0,1.55,0.31
		C422.707,36.496,422.758,36.599,422.758,36.807z M26.401,21.616c-0.206,0.103-0.311,0.206-0.311,0.309l0.775-0.309
		C26.66,21.512,26.504,21.512,26.401,21.616z M26.866,21.15l-0.775,0.156c-0.309,0-0.567,0.103-0.775,0.311
		c0.31-0.104,0.672-0.104,1.085,0C26.504,21.409,26.66,21.254,26.866,21.15z M60.038,10.145c-1.86,0.724-3.772,1.396-5.735,2.015
		c7.544-0.827,15.087-1.188,22.632-1.085l15.034-0.929l-0.775-0.154h4.341L92.28,9.37l-2.015-0.154
		c-4.237,0.309-9.868,0.516-16.896,0.619C67.789,9.938,63.346,10.042,60.038,10.145z M68.564,20.841
		c4.753-0.518,9.765-0.931,15.036-1.242c-0.311-0.206-0.311-0.362,0-0.464c0.206-0.103,0.567-0.155,1.085-0.155l1.859-0.31
		c-4.34,0.103-9.765,0.362-16.276,0.775c-6.819,0.414-11.78,0.672-14.88,0.775c2.376,0.208,4.909,0.724,7.596,1.55
		C64.843,21.357,66.704,21.047,68.564,20.841z M39.112,48.433l0.31,0.154c0.311-1.343,0.672-2.636,1.085-3.875
		C39.99,45.849,39.525,47.088,39.112,48.433z"/>
</g>
</svg>
