<svg xmlns="http://www.w3.org/2000/svg" xmlns:xlink="http://www.w3.org/1999/xlink" width="788" height="78" viewBox="0 0 788 78"><path fill="#354A59" d="M0 0v78l788-12.196V0z"/><defs><path id="a" d="M0 0v78l788-12.196V0z"/></defs><clipPath id="b"><use xlink:href="#a" overflow="visible"/></clipPath><g clip-path="url(#b)"><path fill="#BE947E" d="M26.627 78.847c.127.632.117 1.383-.026 2.253-8.155 8.732-11.08 15.562-8.77 20.487-3.66-5.973-.727-13.554 8.797-22.74z"/><path fill="#E2B096" d="M31.204 109.282c.345.088.695.168 1.05.24 1.237.243 2.553.456 3.945.64.386.057.776.11 1.166.16l-.705 5.585c-2.7-.434-5.185-.932-7.456-1.493a58.273 58.273 0 0 1-4.125-1.215c-17.947-6.02-18.916-18.28-2.91-36.773 2.586-.115 4.072.693 4.457 2.42-9.525 9.187-12.457 16.767-8.8 22.74 1.695 3.583 6.155 6.15 13.377 7.695z"/><path fill="#BE947E" d="M62.566 117.437l.813-.5-.41-.145c-.133.21-.268.423-.404.645m-8.526-1.932c-.025.883.256 1.753.844 2.61 1.08 1.518 2.648 2.578 4.708 3.178.647.184 1.345.325 2.09.423 3.114.405 5.105.523 5.974.35.75-.156 1.45-.34 2.1-.548a2.15 2.15 0 0 0 .312-.097c.38-.118.716-.455 1.01-1.01-2.254.517-4.553.536-6.894.06-1.395-.283-2.81-.75-4.247-1.402-1.923-.87-3.888-2.057-5.897-3.563m1.01-43.255c.23.674.634 1.403 1.21 2.188 11.705 5.002 17.883 10.4 18.536 16.194-.078-7.402-6.66-13.53-19.745-18.382z"/><path fill="#AB8573" d="M67.33 113.114c-.65.063-1.038-.04-1.157-.314a8.82 8.82 0 0 0-.92.864c-.138.15-.278.31-.423.48-.563.698-1.183 1.58-1.86 2.648l.408.146 5.642-3.402c-.72-.316-1.284-.456-1.69-.422z"/><path fill="#C49A82" d="M70.382 114.252a31.17 31.17 0 0 0-.845-.473 6.25 6.25 0 0 0-.518-.244l-5.642 3.402 4.905 1.216 2.43-3.698a1.197 1.197 0 0 0-.33-.204z"/><path fill="#E2B096" d="M57.565 67.984c-2.277.994-3.116 2.416-2.514 4.266 13.087 4.853 19.668 10.98 19.745 18.382.478 4.217-1.962 8.634-7.317 13.252-.247.234-.505.463-.774.685-2.87 2.36-6.48 4.78-10.828 7.258-1.177 1.25-1.79 2.475-1.836 3.677 2.01 1.506 3.974 2.693 5.897 3.563 1.437.652 2.853 1.12 4.247 1.4 2.34.478 4.64.46 6.895-.057.28-.536.526-1.253.735-2.148.294-1.274.177-2.298-.352-3.07a2.935 2.935 0 0 0-.748-.735l-2.43 3.697-4.906-1.216-.814.5c.137-.223.27-.437.404-.647.677-1.065 1.297-1.948 1.86-2.647.146-.17.287-.33.423-.48.32-.34.627-.63.92-.863 3.506-2.622 6.39-5.202 8.655-7.74 12.134-13.588 6.38-25.947-17.263-37.076z"/><path fill="#C78E49" d="M25.924 81.768l.377.133v-.132h-.376m16.578-.697l-.07-1.656.038 1.86.032-.203m.96-2.923h-.045c.008.02.015.043.02.064 1.338.888 2.208 1.965 2.61 3.23.408 1.267.613 1.992.613 2.176.008.61-.02 1.266-.083 1.97-.047.464-.11.95-.186 1.458a41.66 41.66 0 0 1-.497 2.7 80.44 80.44 0 0 1-.48 1.995c-.124.45-.25.916-.384 1.394-.82.268-1.17-.048-1.05-.948a27.704 27.704 0 0 0-.134-2.443c-.09-.9-.226-1.8-.41-2.7-.093-.485-.2-.97-.32-1.456a.153.153 0 0 1-.018-.052l.73 16.8c6.224-.314 11.02.228 14.39 1.627l.256-.85-.934-22.873 3.486.92a47.054 47.054 0 0 0 2.597-3.48c.068-.102.137-.206.205-.313 1.606-2.442 2.638-4.67 3.094-6.677l-1.036-.43c-.02.07-.043.137-.063.206-.213.682-.764 1.142-1.65 1.38-.18.052-.363.09-.55.116-.738.098-1.518.02-2.34-.237-1.042-.332-1.852-.855-2.432-1.567a4.004 4.004 0 0 1-.184-.25 2.78 2.78 0 0 1-.332-.626.296.296 0 0 1-.033-.102c-.34-.047-.7-.117-1.08-.212-.397-.088-.813-.2-1.247-.33l1.337 10.218-1.382-6.062-.083-4.196c-1.113-.345-2.35-.82-3.71-1.426a29.74 29.74 0 0 1-1.58.728l-.166.966-.167 2.29-2.667 1.465c-.107.222-.224.446-.352.673-.055.085-.11.167-.166.25-.763 1.13-1.955 2.258-3.575 3.39v1.214m11.58 1.663l-.255 7.483-3.844 1.868-4.055-2.128-.052-7.222h8.206m-13.33-2.827c.07.043.138.082.206.115l-.205-.134v.02m-19.86-4.024c-.144.137-.274.258-.39.364l.353.103-.352.16h-.25l-.357.576c.018.034.038.066.056.095 1.485 2.608 4.084 4.424 7.797 5.45v.006l.294.205.064-.09.007-.006-1.446 24.635c.202-.042.402-.08.602-.115 5.19-.967 9.818-1.6 13.886-1.893.034-.004.073-.006.115-.006l-.748-13.98c-.188.442-.326.868-.416 1.277-.176.763-.193 1.473-.052 2.13.222 1.25-.11 1.665-.998 1.247a28.307 28.307 0 0 1-.933-2.462c-.098-.312-.19-.617-.275-.915-.18-.67-.318-1.32-.416-1.95l-2.834 1.37-4.055-2.13-.05-7.223h8.212l-.027.666a10.507 10.507 0 0 1 2.047-2.36v-.007l.025-1.127c-1.974-1.087-3.13-2.285-3.472-3.593-.026-.12-.05-.24-.07-.366l-3.014-2.39.837-3.43a16.76 16.76 0 0 1-.818-.67c-.18.058-.362.12-.545.184a32.656 32.656 0 0 1-2.878.8c-.11.02-.216.042-.314.064-.137.025-1.023.27-2.66.735-1.632.47-3.68 1.786-6.147 3.946-.298.264-.558.496-.78.697m-.038.627c.078-.03.16-.06.243-.095l.327.095h-.57m8.54-1.573L31.75 67.6l-.613 4.83-1.663 6.868.883-7.284z"/><path fill="#E9C06B" d="M58.473 103.11l-.256.852c.102.04.202.083.3.12l-.044-.97z"/><path fill="#956B35" d="M42.234 102.446c-.043 0-.08.002-.116.005-4.067.295-8.696.927-13.885 1.895l1.554 2.712 27.433.21.998-3.306c-3.37-1.397-8.167-1.94-14.392-1.624-.528.03-1.06.067-1.592.11m5.59-30.54a5.22 5.22 0 0 1-.263.703l-.004.012 2.667-1.465.166-2.29-.257 1.414-2.31 1.625M31.75 67.6l-1.393 4.414-.883 7.284 1.663-6.87.614-4.827m4.893-2.775l-3.492-.07c-2.788.473-5.47 1.71-8.044 3.715l-3.25 4.49c.222-.2.482-.433.78-.697 2.467-2.16 4.516-3.475 6.147-3.946 1.637-.465 2.524-.71 2.66-.735l.315-.065a32.7 32.7 0 0 0 2.878-.8 28.4 28.4 0 0 1 .544-.184c.268.234.54.458.818.67l-.838 3.43 3.013 2.39a2.726 2.726 0 0 1-.032-.414c0-.188.014-.38.04-.57L35.6 69.846l.44-2.61a11.46 11.46 0 0 0 4.216 2.015l-1.964-4.393 10.374.186-3.07 4.355c1.53-.247 3.15-.73 4.854-1.445a.65.65 0 0 1 .103-.052c.52-.22 1.047-.463 1.58-.727 1.36.605 2.597 1.08 3.71 1.426l.083 4.195 1.38 6.062-1.336-10.22c.435.132.85.243 1.248.332.38.093.74.163 1.08.21a1.772 1.772 0 0 1 0-1.112.233.233 0 0 1 .033-.095 1.53 1.53 0 0 1 .256-.455l.082-.102-6.038-2.297-1.35-.026c-5.897-2.91-10.778-2.998-14.64-.27z"/><path fill="#1A2365" d="M42.234 83.616c-.077.248-.15.493-.218.735a94.617 94.617 0 0 1-.85 2.694c-.42 1.198-.794 2.097-1.127 2.698-.376.667-.693.97-.953.915.255.79.567 1.61.933 2.462.887.417 1.22.002.998-1.248-.14-.656-.124-1.366.05-2.13.09-.41.23-.835.417-1.278.2-.482.38-.956.538-1.42.153-.495.283-.98.39-1.457.137-.67.22-1.328.25-1.97a9.38 9.38 0 0 0-.045-1.38l-.237.855c-.05.176-.1.35-.146.526m.198-5.488l-.05-.198.005.198.025.736c.004.18.01.362.02.55l.07 1.657.595 4.465c.004.02.01.038.02.052.12.485.225.97.32 1.457a26.807 26.807 0 0 1 .542 5.142c-.12.9.23 1.216 1.048.948.133-.478.26-.943.384-1.395.09-.65.118-1.314.084-1.997a12.343 12.343 0 0 0-.448-2.7c-.137-.476-.3-.962-.487-1.456a52.173 52.173 0 0 0-.26-.62l-1.868-6.84m.032-2.462l-.166-.133.153 1.42h.23l.404-1.72-.62.433M38.18 72.04c-.027.19-.04.382-.04.57 0 .14.01.278.032.414.022.124.045.246.07.365l3.992 2.13.032-.02-4.087-3.46m9.38.57c.108-.237.195-.47.263-.705l-4.356 3.05 3.736-1.66a11.6 11.6 0 0 0 .352-.673l.006-.013z"/><path fill="#B07E3F" d="M39.643 80.476l.026-.666h-8.214l.05 7.222 4.056 2.13 2.834-1.37c-.04-.255-.073-.505-.103-.748-.124-1.22-.08-2.362.128-3.428a9.19 9.19 0 0 1 1.222-3.14m2.86.596l-.032.205a9.747 9.747 0 0 1 .192 2.34c-.03.644-.112 1.302-.25 1.972-.106.476-.236.962-.39 1.457-.157.464-.336.938-.537 1.42l.75 13.982c.53-.043 1.063-.08 1.59-.11l-.728-16.8-.595-4.465m24.42-10.38c-.456 2.008-1.49 4.234-3.095 6.677a15.65 15.65 0 0 1-.205.313 47.255 47.255 0 0 1-2.597 3.48l1.9.498a17.844 17.844 0 0 0 .902-.92c.908-1.006 1.763-2.213 2.564-3.62.926-1.608 1.78-3.478 2.56-5.61l-2.028-.818M54.788 87.294l.256-7.484h-8.206l.05 7.222 4.056 2.13 3.844-1.868M36.042 67.236l-.44 2.61 2.577 2.194 4.086 3.46.032.032.166.133.62-.434.384-.275 4.355-3.05 2.31-1.624.255-1.413.167-.966a.65.65 0 0 0-.103.053c-1.706.715-3.324 1.198-4.854 1.445-.904 1.074-1.633 2.145-2.188 3.21-.166.313-.315.623-.447.935-.252.606-.45 1.204-.596 1.797a16.96 16.96 0 0 0-.35-1.65 37.84 37.84 0 0 0-.314-1.08 23.354 23.354 0 0 0-1.446-3.36 11.475 11.475 0 0 1-4.215-2.014m-15.126 7.022a5.036 5.036 0 0 1-.057-.095l-1.35 2.22c1.99 2.545 4.732 4.345 8.23 5.397a.327.327 0 0 1-.032-.032l1.3-1.83-.295-.204v-.006c-3.713-1.026-6.312-2.843-7.797-5.45z"/><path fill="#356331" d="M63.928 70.113l.16-.562-4.042-1.598 1.496 2.16.62-.83 1.766.83z"/><path fill="#C1C124" d="M65.42 70.16a.267.267 0 0 1 .03-.077l-1.36-.532-.162.564-1.764-.83-.62.83-1.497-2.16-.915-.366c-.11.145-.194.305-.25.48a1.5 1.5 0 0 0 0 .966c.082.285.242.57.48.85.004.008.01.017.02.025.498.6 1.197 1.047 2.098 1.337.762.243 1.477.308 2.142.198.123-.022.245-.05.364-.083.767-.214 1.245-.615 1.433-1.203z"/><path fill="#FFF" d="M58.3 68.068c-.12.366-.12.737 0 1.112a.296.296 0 0 0 .033.103c.076.21.187.418.332.626.055.08.117.164.185.25.58.71 1.39 1.233 2.43 1.566.824.256 1.604.335 2.342.236a3.85 3.85 0 0 0 .55-.115c.886-.238 1.437-.7 1.65-1.38.02-.07.043-.137.063-.206l-.435-.177a.273.273 0 0 0-.032.076c-.187.588-.665.988-1.433 1.202-.12.034-.24.06-.364.083-.664.11-1.38.045-2.14-.198-.902-.29-1.6-.736-2.1-1.338a.106.106 0 0 1-.02-.026 2.305 2.305 0 0 1-.478-.85 1.5 1.5 0 0 1 0-.966c.056-.175.14-.335.25-.48l-.46-.172a2.916 2.916 0 0 1-.084.102 1.53 1.53 0 0 0-.256.455.235.235 0 0 0-.032.095m-14.89 4.54c.555-1.066 1.284-2.136 2.188-3.21-1.91.31-3.69.262-5.34-.148a23.407 23.407 0 0 1 1.445 3.36c.11.36.215.722.313 1.08.145.545.262 1.096.35 1.65.147-.594.345-1.192.597-1.798.132-.31.28-.622.447-.933z"/><path fill="#E2B096" d="M40.257 69.25c1.65.41 3.43.46 5.34.148l3.07-4.356-10.374-.185 1.964 4.393z"/><path fill="#3A408D" d="M43.436 78.21a.367.367 0 0 0-.02-.063l-.984-.02 1.867 6.84c.09.208.177.415.26.62.19.494.35.98.488 1.457.255.92.405 1.82.448 2.7a10.63 10.63 0 0 1-.084 1.995c.176-.69.335-1.357.48-1.997a41.34 41.34 0 0 0 .498-2.7c.077-.506.14-.993.186-1.456.064-.705.09-1.36.083-1.97 0-.185-.206-.91-.615-2.176-.4-1.265-1.27-2.342-2.61-3.23m.033-3.255l-.384.276-.403 1.722.782-.02c1.62-1.13 2.812-2.26 3.575-3.39.055-.08.11-.164.166-.25l-3.735 1.663m-1.055 3.91l-.026-.737-.697-.02v.007a10.497 10.497 0 0 0-2.047 2.36 9.162 9.162 0 0 0-1.22 3.14c-.21 1.067-.253 2.21-.13 3.43a18.493 18.493 0 0 0 .52 2.698c.085.298.177.602.275.914.26.055.577-.25.952-.915.333-.6.708-1.5 1.126-2.7.26-.775.543-1.672.85-2.692.07-.242.14-.487.218-.735.047-.175.096-.35.147-.524l.238-.856a9.89 9.89 0 0 0-.147-.96l-.038-1.86c-.01-.188-.016-.372-.02-.55m-.115-3.332l-.032-.033-.032.02-3.99-2.13c.34 1.308 1.498 2.506 3.472 3.593v-.02l.735-.01-.153-1.42z"/><path fill="#666565" d="M41.92 77.098a2.16 2.16 0 0 1-.204-.115l-.026 1.126.697.018-.006-.198.052.198.985.02h.045V76.93l-.78.02h-.23l-.737.012.206.134z"/><path fill="none" stroke="#168CB9" stroke-linecap="round" stroke-linejoin="round" d="M-68.242 1021.942c-.25-.79-.25-1.57 0-2.34a.557.557 0 0 1 .068-.2c.125-.35.306-.67.538-.955.062-.072.12-.144.175-.216"/><path fill="#984E1C" d="M42.566 21.704c-1.01-.87-2.313-1.305-3.908-1.305-1.786 0-4.432.77-7.937 2.314-3.21 1.42-5.097 2.486-5.66 3.198a77.494 77.494 0 0 0-4.796 5.795c-2.683 3.65-4.023 6.56-4.023 8.73 0 .303.122 1.13.365 2.482.243 1.346.364 2.173.364 2.48 0 1.472-.05 2.346-.147 2.623-.29.85-1.098 1.324-2.425 1.427v1.828c.23.236 1.237.598 3.02 1.088 1.662.725 2.493 1.83 2.493 3.32 0 1.684-.524 3.01-1.573 3.978-.682.627-1.658 1.16-2.93 1.6.06.417.09.87.09 1.355 0 .515-.244.992-.734 1.432-.487.443-.73 1.13-.73 2.058 0 1.438.973 2.61 2.917 3.512 1.557.724 3.096 1.087 4.618 1.087 1.847 0 3.19-.755 4.03-2.265.742-1.305.93-2.754.562-4.35.38 0 1.05-.123 2.01-.37.94-.243 1.56-.365 1.854-.365.76 0 1.494.488 2.206 1.465.7.98 1.435 1.47 2.207 1.47 1.556 0 2.83-.88 3.825-2.647.7-1.228 1.072-2.343 1.12-3.344 4.707-1.344 7.63-1.164 8.768.537.96 1.43 1.657 2.143 2.092 2.143.69 0 1.06-.014 1.106-.044.124-.074.167-.423.128-1.05h1.842c.465 2.166 1.064 3.964 1.797 5.398.627 1.206 1.26 1.942 1.9 2.206 1.06-.843 1.9-1.67 2.513-2.48.315-.436.823-1.152 1.523-2.15a27.636 27.636 0 0 1 2.56-2.93c.097-1.646.157-2.517.178-2.615.252-1.468.806-2.553 1.663-3.256.205-.17 1.198-.727 2.975-1.67 1.69-1.01 2.533-1.865 2.533-2.564 0-.46-.67-1.567-2.014-3.32-1.352-1.757-2.028-2.67-2.028-2.744 0-.993.552-2.475 1.656-4.445 1.105-1.973 1.657-3.25 1.657-3.83 0-1.38-.67-2.324-2.01-2.828-.878-.28-1.58-.524-2.11-.728a10.23 10.23 0 0 1-2.5-1.407c-.896-.687-1.924-1.78-3.084-3.28-.998-1.28-1.93-2.144-2.8-2.592-1.067-.567-2.91-1.023-5.527-1.368-2.922-.388-4.634-.668-5.137-.838-1.57-.57-3.068-1.484-4.497-2.746z"/><path fill="#C16315" d="M40.32 6.43c-.408 0-1.2.54-2.372 1.618a276.822 276.822 0 0 1-3.728 3.524c-3.727 3.433-6.66 5.15-8.794 5.15-.256 0-.8-.062-1.63-.186-.824-.12-1.507-.18-2.048-.18V15.27c-.005.23-.126.345-.365.345-.302.153-1.233.92-2.79 2.302-1.324 1.16-2.294 1.74-2.91 1.74-1 0-1.577-.036-1.725-.11a2.538 2.538 0 0 1-.557-.4l-.005.146c-.017-.013-.026-.026-.026-.04-.15.372-.37.698-.66.98-.71.66-1.356 1.07-1.93 1.228-.593.163-1.728 1.088-3.403 2.777-1.693 1.697-2.54 4.586-2.54 8.666 0 .585.615 1.992 1.842 4.22 1.223 2.245 1.835 3.656 1.835 4.235 0 .965-.286 1.912-.857 2.847-.298.49-.93 1.292-1.9 2.405C3.92 48.746 3 50.775 3 52.698c0 .976.607 2.207 1.818 3.69 1.207 1.46 2.196 2.188 2.967 2.188.303 0 .975-.122 2.015-.365 1.045-.246 1.72-.37 2.028-.37 1.06 0 1.92.368 2.57 1.1.517.58.854 1.355 1.012 2.323 1.27-.44 2.247-.972 2.93-1.6 1.048-.967 1.572-2.293 1.572-3.977 0-1.49-.83-2.595-2.494-3.32-1.782-.49-2.788-.852-3.018-1.088V49.45c1.326-.103 2.134-.578 2.424-1.427.098-.277.147-1.15.147-2.622 0-.307-.12-1.133-.363-2.48-.243-1.353-.365-2.18-.365-2.482 0-2.17 1.34-5.08 4.023-8.73a77.398 77.398 0 0 1 4.797-5.796c.563-.712 2.45-1.778 5.66-3.198 3.506-1.543 6.15-2.315 7.938-2.315 1.594 0 2.897.434 3.908 1.304 1.428 1.262 2.927 2.176 4.496 2.743.503.17 2.215.45 5.136.838 2.618.345 4.46.8 5.525 1.37.87.447 1.804 1.31 2.802 2.59 1.16 1.5 2.187 2.594 3.083 3.28a10.212 10.212 0 0 0 2.5 1.407c.53.205 1.233.448 2.112.73 1.34.503 2.008 1.446 2.008 2.826 0 .58-.552 1.858-1.657 3.83-1.104 1.97-1.656 3.454-1.656 4.447 0 .073.676.987 2.028 2.744 1.343 1.75 2.014 2.857 2.014 3.318 0 .7-.846 1.554-2.534 2.565-1.777.942-2.77 1.5-2.974 1.67-.857.703-1.41 1.787-1.663 3.254-.022.1-.082.97-.18 2.617-.98.984-1.834 1.96-2.558 2.928-.7.998-1.207 1.715-1.523 2.15-.615.81-1.453 1.637-2.514 2.48.17.078.345.116.524.116 1.425 0 2.6-.552 3.53-1.656.495-.576.865-.955 1.108-1.14.486-.345 1.085-.518 1.796-.518.332 0 .704.193 1.114.577.485.534.874.956 1.164 1.267 1.214 1.224 2.602 1.835 4.163 1.835.87 0 1.912-.238 3.127-.715 1.714-.687 2.572-1.61 2.572-2.77 0-3.152.357-5.292 1.074-6.422.482-.738 1.285-1.148 2.41-1.235 1.23-.097 2.032-.34 2.406-.728.725-.746 1.087-2.367 1.087-4.86 0-1.396-.428-2.792-1.284-4.19a8.628 8.628 0 0 1-1.286-4.574c0-.44.288-.942.863-1.51.21-.2.843-.72 1.9-1.56 1.838-1.458 2.757-2.765 2.757-3.92 0-2.853-1.473-5.623-4.42-8.31a31.664 31.664 0 0 0-.972-.856c-.196.23-.343.37-.44.422-.133.073-.947.11-2.445.11-.76 0-1.694-.29-2.807-.87a13.517 13.517 0 0 1-3.096-2.163c-2.34-2.17-3.13-4.1-2.366-5.794h-2.207c-5.048.405-10.79-1.73-17.224-6.408-.968-.712-3.036-2.354-6.204-4.925C42 7.185 40.82 6.43 40.32 6.43z"/><path fill="#CF732E" d="M65.797.89C64.727.688 63.304.57 61.53.547a259.82 259.82 0 0 0-4.534 0c-1.796-.034-3.23-.4-4.305-1.1-.762-.495-1.447-1.25-2.052-2.264-.785-1.3-1.265-2.05-1.44-2.246-.626-.673-1.442-1.01-2.45-1.01-1.16 0-3.022.513-5.59 1.54-2.61 1.06-4.45 2.366-5.525 3.922-.6.17-1.258-.288-1.97-1.375-.7-1.11-2.383-1.294-5.052-.557-2.66.725-3.824 2.202-3.49 4.433.33 2.21-.087 3.196-1.254 2.953-1.16-.256-2.638-.057-4.433.596-1.786.63-3.255 1.793-4.407 3.49-1.156 1.676-1.733 3.597-1.733 5.763 0 .767.08 1.714.237 2.84l.038.415c.07.396.013.795-.166 1.196.2.183.385.318.557.403.147.072.723.11 1.725.11.614 0 1.584-.58 2.91-1.74 1.556-1.382 2.487-2.15 2.79-2.304.238 0 .36-.114.364-.345v1.087c.54 0 1.222.06 2.046.18.83.123 1.375.185 1.63.185 2.137 0 5.068-1.716 8.795-5.15.93-.856 2.173-2.03 3.73-3.523 1.172-1.08 1.963-1.618 2.372-1.618.5 0 1.678.754 3.537 2.263 3.167 2.57 5.235 4.213 6.203 4.925 6.435 4.678 12.176 6.813 17.224 6.408h2.207c-.763 1.694.026 3.625 2.367 5.795a13.527 13.527 0 0 0 3.096 2.163c1.113.58 2.05.87 2.808.87 1.497 0 2.31-.036 2.443-.11.1-.05.245-.19.442-.42a71.612 71.612 0 0 0-2.054-1.695c-.926-.798-1.388-1.403-1.388-1.817 0-.48.368-1.21 1.107-2.187.733-.98 1.1-1.846 1.1-2.597 0-2.072-2.02-4.07-6.063-5.992a478.697 478.697 0 0 1-4.17-2.002c-1.262-.7-1.894-1.34-1.894-1.925 0-.346.49-1.143 1.465-2.393.985-1.253 1.477-1.99 1.477-2.206C70.228 3.01 68.75 1.47 65.797.89z"/><path fill="#E2B096" d="M47.684 59.182c-2.758 1.5-5.638 1.426-8.64-.22v7.208c2.88 3.284 5.76 3.284 8.64 0v-6.988z"/><path fill="#AC8675" d="M39.043 53.226v5.736c3.003 1.647 5.883 1.72 8.64.22v-5.956h-8.64z"/><path fill="#E2B096" d="M42.355 12.053c.047.976-1.172 2.905-3.658 5.788-2.268 2.61-8.426 6.704-18.47 12.28l-2.118 8.475c1.2 4.11 3.44 7.8 6.715 11.072 5.18 5.18 11.437 7.77 18.77 7.77 7.327 0 13.587-2.59 18.78-7.77 2.34-2.354 4.152-4.93 5.436-7.727.973-4.225-.26-8.45-3.702-12.67-11.35-6.076-18.602-11.816-21.753-17.217z"/><path fill="#C16315" d="M41.498 7.16c.23.455-.934 1.94-3.492 4.45-2.563 2.512-4.396 4.19-5.5 5.035-1.105.835-2.16 1.36-3.16 1.58-1.02.212-1.89.568-2.616 1.067-.742.49-2.505.277-5.29-.64l.308-2.94c-3.143 4.4-4.714 9.454-4.714 15.163 0 .315.006.642.02.98.016.702.06 1.404.133 2.103.175 1.595.482 3.14.92 4.637l2.118-8.475c10.046-5.577 16.203-9.67 18.472-12.28 2.486-2.882 3.705-4.812 3.658-5.788 3.15 5.402 10.402 11.142 21.753 17.217 3.44 4.22 4.674 8.445 3.703 12.67a25.392 25.392 0 0 0 2.1-7.477c.084-.7.148-1.405.19-2.117.026-.495.04-.985.04-1.47 0-3.924-.743-7.54-2.228-10.85h-.627c-5.048.406-10.79-1.73-17.224-6.407-.966-.713-2.693-2.082-5.18-4.107-2.493-2.016-3.62-2.8-3.382-2.354z"/><path fill="#CF732E" d="M38.006 11.61c2.558-2.51 3.722-3.995 3.492-4.45-.24-.448.89.337 3.383 2.353 2.487 2.026 4.214 3.394 5.18 4.106 6.436 4.677 12.177 6.813 17.225 6.408h.627c-1.287-2.878-3.134-5.526-5.538-7.944-5.193-5.18-11.453-7.77-18.778-7.77-7.334 0-13.592 2.59-18.772 7.77a28.216 28.216 0 0 0-3.076 3.627l-.307 2.943c2.785.917 4.548 1.13 5.29.64.725-.5 1.597-.856 2.616-1.07 1-.217 2.055-.743 3.16-1.578 1.104-.845 2.937-2.522 5.5-5.034z"/><path fill="#AC8675" d="M76.196 33.83c0-1.38-.4-2.56-1.202-3.537-.794-.967-1.75-1.456-2.866-1.465l3.12 8.2c.632-.91.948-1.974.948-3.198z"/><path fill="#E2B096" d="M72.486 25.906c-.486 0-.95.066-1.394.198l1.036 2.725c1.116.007 2.072.496 2.866 1.464.8.976 1.202 2.155 1.202 3.536 0 1.224-.316 2.29-.948 3.198l.62 1.62c.236-.22.464-.462.686-.73 1.126-1.373 1.69-3.032 1.69-4.976 0-1.945-.564-3.603-1.69-4.976-1.122-1.374-2.477-2.06-4.068-2.06z"/><path fill="#AC8675" d="M11.66 30.293c-.8.977-1.2 2.156-1.2 3.537 0 1.224.314 2.29.945 3.198l3.122-8.2c-1.118.01-2.072.498-2.866 1.465z"/><path fill="#E2B096" d="M15.563 26.104a4.873 4.873 0 0 0-1.395-.198c-1.59 0-2.946.686-4.068 2.06-1.125 1.372-1.688 3.03-1.688 4.975 0 1.946.563 3.604 1.688 4.977.222.27.45.512.685.73l.62-1.62c-.63-.908-.946-1.973-.946-3.197 0-1.38.4-2.56 1.2-3.537.795-.967 1.75-1.456 2.867-1.465l1.036-2.724z"/><path fill="#E3B39A" d="M33.302 38.114c-.062-.025-.092-.055-.092-.092-.92-.232-1.544-.27-1.875-.11-.183.084-.355.336-.515.754l.09.552c.21.208.327.32.35.33.16.086.443.128.847.128.368 0 .662-.042.883-.128l.313-.147c.062.148.092-.085.092-.698-.002-.356-.032-.55-.093-.588zM27.05 39.29c-.06-.074-.09-.13-.09-.166-1.103-.295-1.655-.007-1.655.864 0 .197.306.582.918 1.158a2.57 2.57 0 0 0 .515-.22c.184-.098.287-.147.313-.147.063.06.093-.215.093-.83 0-.354-.032-.575-.092-.66zM37.586 38.756c.147-.197.22-.38.22-.552a1.956 1.956 0 0 0-.92-.735c-.183.048-.38.164-.588.35-.22.182-.33.342-.33.476l.09.552c.185.184.46.336.828.46.295-.123.527-.306.7-.552z"/><g><path fill="#E3B39A" d="M49.94 41.147a1.956 1.956 0 0 0-.92-.735c-.183.05-.38.165-.587.35-.22.184-.33.343-.33.476l.09.553c.185.184.46.337.828.46.294-.123.528-.306.7-.552.147-.196.22-.38.22-.55z"/></g><g><path fill="#E3B39A" d="M46.63 39.676a1.963 1.963 0 0 0-.92-.735c-.183.05-.38.166-.586.35-.22.184-.33.344-.33.478l.09.552c.185.184.46.336.83.46a1.57 1.57 0 0 0 .697-.552c.147-.196.22-.38.22-.552z"/></g><g><path fill="#E3B39A" d="M42.587 33.793a1.955 1.955 0 0 0-.92-.735c-.183.05-.38.165-.588.348-.22.184-.332.344-.332.48l.093.55c.185.184.46.337.828.46a1.56 1.56 0 0 0 .7-.552c.145-.195.22-.38.22-.55z"/></g><g><path fill="#E3B39A" d="M57.294 41.515a1.958 1.958 0 0 0-.92-.736c-.183.048-.38.165-.586.35-.22.182-.33.342-.33.476l.09.552c.185.183.46.337.83.46a1.56 1.56 0 0 0 .697-.55c.147-.198.22-.383.22-.553z"/></g><g><path fill="#BF9580" d="M66.12 40.78a1.958 1.958 0 0 0-.92-.736c-.183.05-.38.165-.588.348-.22.184-.33.343-.33.48l.09.55c.185.184.46.337.83.46a1.57 1.57 0 0 0 .698-.552c.146-.195.22-.38.22-.55z"/></g><g><path fill="#BF9580" d="M47 36a1.95 1.95 0 0 0-.92-.736c-.184.05-.38.165-.587.35-.22.183-.33.343-.33.477l.092.553c.183.183.46.336.827.46.294-.122.526-.307.698-.55.145-.198.22-.383.22-.554z"/></g><g><path fill="#BF9580" d="M42.954 32.32a1.948 1.948 0 0 0-.92-.734c-.183.05-.38.165-.587.35-.22.183-.33.343-.33.477l.09.552c.184.183.46.338.828.46a1.56 1.56 0 0 0 .698-.552c.148-.196.22-.38.22-.552z"/></g><g><path fill="#BF9580" d="M28.246 39.308a1.966 1.966 0 0 0-.92-.736c-.183.05-.38.165-.588.35-.22.183-.33.343-.33.478l.09.55c.186.185.462.34.828.462.294-.122.528-.307.7-.553.146-.196.22-.38.22-.552z"/></g><g><path fill="#BF9580" d="M60.604 38.94a1.966 1.966 0 0 0-.918-.735c-.185.05-.38.166-.59.35-.22.184-.33.343-.33.48l.093.55c.182.183.458.336.826.46a1.57 1.57 0 0 0 .698-.552c.147-.197.22-.38.22-.552z"/></g><g><path fill="#BF9580" d="M37.07 37.838a1.95 1.95 0 0 0-.92-.737c-.183.05-.38.166-.587.35-.22.184-.33.344-.33.48l.09.55c.184.185.46.338.827.46.294-.12.528-.305.7-.55.146-.197.22-.38.22-.552z"/></g><g><path fill="#BF9580" d="M39.83 36.183c.243-.122.396-.275.458-.46a1.6 1.6 0 0 0-.588-.202 7.438 7.438 0 0 1-.33.02c0 .306.152.52.46.643z"/></g><g><path fill="#BF9580" d="M47.55 30.667c.244-.123.4-.276.46-.46a1.595 1.595 0 0 0-.59-.203 7.438 7.438 0 0 1-.33.018c0 .308.154.522.46.645z"/></g><g><path fill="#BF9580" d="M23.834 37.286c.183-.184.276-.46.276-.826a1.63 1.63 0 0 0-.59-.204c-.182.013-.293.02-.33.02 0 .49.062.826.185 1.01h.46z"/></g><g><path fill="#BF9580" d="M54.537 41.33c.245-.122.4-.275.46-.46a1.604 1.604 0 0 0-.587-.202 8.65 8.65 0 0 1-.33.02c-.004.306.15.52.457.642z"/></g><g><path fill="#BF9580" d="M62.995 37.286c.245-.122.398-.275.46-.46a1.604 1.604 0 0 0-.588-.202c-.185.012-.296.02-.33.02-.003.305.15.52.458.642z"/></g><g><path fill="#FFF" d="M53.542 44.87c.37-.37.556-.81.556-1.318V42.51c-.933-.35-2.183-.395-3.747-.135v1.177c0 .507.186.947.557 1.318.367.37.805.557 1.318.557.506 0 .945-.186 1.317-.558m-10.093.326c.314-.316.498-.684.55-1.107-1.26.314-2.42.558-3.48.73.072.13.168.256.287.376.37.367.813.55 1.324.55a1.81 1.81 0 0 0 1.32-.55m4.457-2.182v-.05c-.14.033-.275.07-.403.114-1.173.367-2.282.688-3.326.96.02.435.2.82.537 1.158.132.128.273.236.422.326.273.15.57.224.896.224.51 0 .952-.183 1.323-.55.367-.37.55-.81.55-1.318v-.864z"/><path fill="#631719" d="M44.178 44.037c-.064.014-.124.03-.18.052-.05.422-.234.79-.55 1.106-.37.367-.81.55-1.317.55a1.82 1.82 0 0 1-1.323-.55 1.676 1.676 0 0 1-.288-.377c-.623.096-1.21.18-1.76.248-2.366.225-3.55.915-3.55 2.065s.977 2.128 2.93 2.93c1.018.423 2.157.738 3.415.946.61-1.838 1.803-3.668 3.58-5.488-.148-.09-.29-.198-.42-.326-.337-.337-.516-.723-.537-1.16m3.73-1.022a.456.456 0 0 1 .114-.082.258.258 0 0 0-.115.032v.05z"/><path fill="#BE1E16" d="M48.022 42.932a.47.47 0 0 0-.115.082v.864c0 .507-.184.946-.55 1.318-.37.367-.812.55-1.324.55-.324 0-.622-.075-.895-.224-1.78 1.82-2.972 3.65-3.582 5.487 1.13.183 2.352.274 3.665.274 2.768 0 5.13-.407 7.088-1.22 1.953-.803 3.206-1.975 3.76-3.52.542-1.538.117-2.77-1.273-3.696a3.18 3.18 0 0 0-.697-.338v1.04a1.8 1.8 0 0 1-.556 1.32c-.37.37-.81.556-1.318.556-.512 0-.95-.186-1.318-.557-.37-.372-.556-.812-.556-1.32v-1.175a19 19 0 0 0-2.328.557z"/></g><g><path fill="#B48041" d="M58.236 147.587c1.765-.716 3.328-1.614 4.688-2.692l-6.965-21.83 2.276 24.522m-31.48-.218c1.167.26 2.315.5 3.44.716l.697-25.788-4.138 25.07z"/><path fill="#C78E49" d="M24.09 146.756c.898.217 1.787.422 2.666.614l4.138-25.072-.697 25.788c12.14 2.333 21.486 2.166 28.04-.498l-2.277-24.522 6.965 21.83c.166-.134.33-.27.492-.41l-6.044-34.174h-27.74l-5.544 36.444z"/><path fill="#633319" d="M57.373 110.312v-3.422H29.557l.076 3.422h27.74z"/></g><g><path fill="#AD753C" d="M43.5 104.727c-1.203 0-2.23.424-3.077 1.273-.85.85-1.273 1.874-1.273 3.076 0 1.203.424 2.228 1.273 3.076.85.848 1.874 1.273 3.076 1.273 1.2 0 2.227-.425 3.075-1.273.85-.848 1.273-1.873 1.273-3.076 0-1.202-.424-2.228-1.273-3.076-.848-.85-1.874-1.273-3.076-1.273m-2.573 1.778a3.33 3.33 0 0 1 2.444-1.01c.957 0 1.77.336 2.444 1.01a3.33 3.33 0 0 1 .998 2.7c-.052.845-.385 1.574-.998 2.186a3.328 3.328 0 0 1-2.443 1.012 3.33 3.33 0 0 1-2.443-1.01c-.612-.614-.947-1.342-1.003-2.188a5.02 5.02 0 0 1-.007-.256c0-.955.337-1.77 1.01-2.443z"/><path fill="#946433" d="M43.37 106.005a3.33 3.33 0 0 0-2.443 1.01c-.612.615-.947 1.343-1.003 2.19.056.845.39 1.574 1.003 2.186a3.33 3.33 0 0 0 2.444 1.012 3.33 3.33 0 0 0 2.444-1.01c.613-.614.946-1.342.998-2.188-.052-.846-.385-1.574-.998-2.188a3.33 3.33 0 0 0-2.443-1.01z"/><path fill="#724C25" d="M40.927 107.016a3.33 3.33 0 0 1 2.444-1.01c.957 0 1.77.337 2.444 1.01.613.614.946 1.342.998 2.188a3.332 3.332 0 0 0-.998-2.7 3.328 3.328 0 0 0-2.443-1.01 3.33 3.33 0 0 0-2.443 1.01 3.33 3.33 0 0 0-1.01 2.444c0 .087.002.172.006.256.057-.846.392-1.574 1.004-2.188z"/></g><g><path fill="#010002" d="M33.425 35.17c.654-.74.982-1.633.982-2.676 0-1.043-.328-1.936-.982-2.675-.648-.742-1.43-1.112-2.347-1.112s-1.702.37-2.357 1.11c-.647.74-.97 1.633-.97 2.676 0 1.044.323 1.936.97 2.676.656.74 1.44 1.11 2.358 1.11.916 0 1.7-.37 2.347-1.11z"/></g><g><path fill="#FFF" d="M33.215 32.78c.327-.31.49-.685.49-1.128 0-.443-.163-.822-.49-1.136-.32-.308-.712-.462-1.174-.462s-.854.154-1.18.462c-.322.314-.483.693-.483 1.136 0 .443.16.82.482 1.128.326.314.72.47 1.18.47s.854-.156 1.175-.47z"/></g><g><path fill="#010002" d="M52.852 29.72c.652-.74 1.436-1.11 2.352-1.11.917 0 1.7.37 2.352 1.11.65.74.976 1.63.976 2.668 0 1.046-.325 1.938-.976 2.678-.652.74-1.436 1.11-2.352 1.11-.916 0-1.7-.37-2.352-1.11-.65-.74-.977-1.632-.977-2.678 0-1.038.326-1.927.977-2.668z"/></g><g><path fill="#FFF" d="M57.388 32.78c.328-.31.492-.685.492-1.128 0-.443-.164-.822-.492-1.136-.32-.308-.71-.462-1.173-.462s-.856.154-1.183.462a1.53 1.53 0 0 0-.48 1.136c0 .443.16.82.48 1.128.327.314.722.47 1.183.47s.852-.156 1.173-.47z"/></g></g></svg>