<svg xmlns="http://www.w3.org/2000/svg" xmlns:xlink="http://www.w3.org/1999/xlink" width="150" height="382.999" viewBox="-30.75 -161.003 150 382.999"><path fill="#354A59" d="M-30.75-161.002v382.997l150-14.495v-368.503z"/><defs><path id="a" d="M-30.75-161.002v382.997l150-14.495v-368.503z"/></defs><clipPath id="b"><use xlink:href="#a" overflow="visible"/></clipPath><g clip-path="url(#b)"><path fill="#BE947E" d="M26.17 194.702c.144.715.132 1.567-.03 2.552-9.246 9.9-12.56 17.643-9.945 23.227-4.146-6.772-.822-15.365 9.975-25.778z"/><path fill="#E2B096" d="M31.357 229.202c.392.1.787.19 1.192.275 1.4.274 2.89.515 4.47.726.44.062.882.122 1.323.18l-.8 6.33c-3.06-.492-5.877-1.054-8.452-1.692a66.765 66.765 0 0 1-4.676-1.376C4.07 226.82 2.97 212.922 21.116 191.958c2.933-.13 4.616.785 5.052 2.744-10.797 10.413-14.12 19.006-9.974 25.78 1.92 4.06 6.976 6.97 15.163 8.72z"/><path fill="#BE947E" d="M66.912 238.45l.92-.565-.463-.166c-.152.233-.304.476-.458.73m-9.666-2.19c-.03 1 .29 1.984.957 2.957 1.222 1.72 3 2.922 5.336 3.602.733.208 1.524.367 2.37.48 3.53.458 5.786.59 6.772.398.85-.18 1.643-.387 2.38-.624a2.52 2.52 0 0 0 .354-.11c.43-.133.812-.517 1.145-1.143-2.555.585-5.16.607-7.815.065-1.58-.32-3.185-.85-4.814-1.588-2.18-.985-4.407-2.33-6.684-4.038m1.145-49.038c.262.765.72 1.59 1.373 2.48 13.268 5.67 20.273 11.79 21.012 18.36-.088-8.392-7.548-15.337-22.384-20.84z"/><path fill="#AB8573" d="M72.313 233.547c-.74.073-1.178-.046-1.312-.355a10.15 10.15 0 0 0-1.044.98c-.156.17-.314.35-.478.542-.638.793-1.342 1.793-2.11 3.005l.464.162 6.396-3.855c-.817-.36-1.456-.518-1.915-.48z"/><path fill="#C49A82" d="M75.772 234.838a38.268 38.268 0 0 0-.96-.537 7.215 7.215 0 0 0-.585-.275l-6.395 3.856 5.56 1.38 2.756-4.19a1.327 1.327 0 0 0-.376-.232z"/><path fill="#E2B096" d="M61.242 182.387c-2.582 1.127-3.533 2.74-2.85 4.835 14.835 5.503 22.295 12.448 22.383 20.84.54 4.78-2.224 9.786-8.295 15.022-.28.266-.573.526-.878.776-3.253 2.68-7.346 5.422-12.275 8.23-1.334 1.416-2.03 2.805-2.08 4.17 2.275 1.706 4.504 3.052 6.684 4.037 1.63.74 3.235 1.27 4.815 1.588 2.654.542 5.26.52 7.816-.064.32-.61.6-1.42.836-2.437.333-1.444.2-2.604-.4-3.48a3.324 3.324 0 0 0-.848-.833l-2.756 4.19-5.56-1.38-.92.568c.155-.253.305-.495.456-.733.767-1.21 1.47-2.21 2.11-3.002.163-.192.324-.374.478-.542a9.944 9.944 0 0 1 1.045-.978c3.973-2.974 7.244-5.9 9.81-8.774 13.758-15.404 7.233-29.415-19.568-42.03z"/><path fill="#C78E49" d="M25.372 198.012l.43.153v-.153h-.43m18.793-.79l-.08-1.878.045 2.11.035-.233m1.09-3.313h-.052c.01.024.017.048.022.073 1.518 1.004 2.504 2.227 2.958 3.662.465 1.435.696 2.257.696 2.465.01.692-.023 1.436-.095 2.233a33.36 33.36 0 0 1-.21 1.655c-.14.947-.33 1.965-.566 3.057a86.016 86.016 0 0 1-.545 2.263l-.435 1.583c-.927.304-1.324-.055-1.19-1.073a30.157 30.157 0 0 0-.616-5.83 32.168 32.168 0 0 0-.36-1.655.19.19 0 0 1-.023-.057l.828 19.046c7.057-.358 12.495.256 16.315 1.84l.29-.963-1.06-25.928 3.953 1.044a53.992 53.992 0 0 0 2.944-3.946c.077-.114.155-.233.232-.354 1.82-2.77 2.99-5.294 3.508-7.57l-1.175-.486c-.022.078-.048.156-.07.233-.242.774-.867 1.296-1.872 1.566a4.39 4.39 0 0 1-.623.13c-.836.112-1.72.02-2.654-.267-1.18-.38-2.098-.97-2.755-1.78a4.5 4.5 0 0 1-.21-.28 3.158 3.158 0 0 1-.377-.71.34.34 0 0 1-.036-.118 11.655 11.655 0 0 1-1.225-.24c-.45-.1-.923-.227-1.415-.375l1.517 11.586-1.567-6.873-.095-4.758c-1.26-.39-2.663-.93-4.205-1.616-.604.3-1.2.574-1.79.825l-.19 1.095-.187 2.597-3.024 1.66c-.122.25-.254.505-.4.762-.06.098-.124.19-.187.283-.866 1.28-2.218 2.56-4.054 3.842v1.377m13.128 1.886l-.29 8.483-4.358 2.12-4.597-2.417-.06-8.187h9.304m-15.11-3.206c.078.05.156.093.232.13l-.232-.15v.02M20.76 188.03l-.44.41.398.118a22.35 22.35 0 0 0-.398.182h-.284l-.406.65.065.11c1.684 2.955 4.63 5.014 8.84 6.176v.01l.332.23.073-.1.007-.007-1.638 27.926c.226-.047.452-.09.68-.13 5.882-1.097 11.13-1.812 15.74-2.146.04-.004.083-.004.13-.004l-.847-15.852c-.213.503-.37.985-.472 1.45-.197.865-.217 1.67-.057 2.414.252 1.417-.125 1.886-1.13 1.413a31.594 31.594 0 0 1-1.06-2.79c-.11-.353-.214-.7-.31-1.037a21.33 21.33 0 0 1-.472-2.21l-3.21 1.552-4.597-2.414-.058-8.186h9.31l-.03.755c.61-.973 1.383-1.866 2.32-2.676v-.01l.03-1.274c-2.238-1.234-3.55-2.59-3.937-4.073a9.657 9.657 0 0 1-.08-.414l-3.415-2.713.95-3.886a20.26 20.26 0 0 1-.927-.762c-.205.067-.41.138-.62.212-1.183.382-2.27.683-3.26.905-.127.023-.245.048-.357.072-.156.03-1.16.308-3.017.832-1.85.537-4.172 2.027-6.968 4.475-.338.297-.632.56-.884.79m-.042.71c.088-.033.18-.072.275-.11l.37.11h-.645m9.678-1.786l1.58-5-.695 5.472-1.884 7.787 1-8.26z"/><path fill="#E9C06B" d="M62.272 222.207l-.29.964c.114.05.23.096.34.138l-.05-1.1z"/><path fill="#956B35" d="M43.862 221.453c-.05 0-.093.003-.132.007-4.61.334-9.857 1.05-15.74 2.147l1.762 3.073 31.098.24 1.13-3.75c-3.818-1.584-9.256-2.198-16.314-1.84-.598.035-1.2.074-1.804.123m6.336-34.622a5.92 5.92 0 0 1-.297.8l-.005.013 3.023-1.66.188-2.594-.29 1.6-2.618 1.84m-18.22-4.877l-1.58 5-1.002 8.26 1.886-7.787.696-5.473m5.546-3.15l-3.96-.078c-3.16.54-6.2 1.942-9.12 4.213l-3.683 5.09c.253-.228.548-.49.886-.79 2.795-2.45 5.12-3.94 6.968-4.475 1.856-.527 2.862-.804 3.016-.832.11-.024.23-.048.356-.073.99-.22 2.078-.522 3.263-.905.207-.073.412-.144.616-.21.304.265.614.518.927.76l-.95 3.887 3.416 2.71a3.176 3.176 0 0 1-.038-.47c0-.214.016-.428.044-.645l-2.923-2.49.5-2.957a13.007 13.007 0 0 0 4.78 2.285l-2.227-4.98 11.76.21-3.48 4.937c1.735-.28 3.57-.825 5.502-1.64a.852.852 0 0 1 .118-.058c.588-.25 1.185-.525 1.79-.825 1.542.685 2.945 1.226 4.206 1.618l.094 4.756 1.566 6.874-1.515-11.585c.492.147.964.273 1.413.373.43.107.84.187 1.226.242a2.026 2.026 0 0 1 0-1.263.274.274 0 0 1 .036-.108c.068-.188.164-.36.29-.516.035-.038.065-.077.096-.115l-6.847-2.603-1.527-.03c-6.687-3.297-12.22-3.4-16.6-.306z"/><path fill="#1A2365" d="M43.862 200.107c-.088.28-.17.56-.247.834-.35 1.157-.67 2.174-.964 3.055-.473 1.357-.898 2.376-1.275 3.057-.425.755-.785 1.1-1.08 1.038a32.5 32.5 0 0 0 1.057 2.79c1.005.474 1.383.005 1.13-1.412-.158-.744-.14-1.55.06-2.416.1-.463.258-.945.47-1.448a26.7 26.7 0 0 0 .61-1.61c.173-.562.322-1.113.442-1.654.156-.76.25-1.503.283-2.234a10.667 10.667 0 0 0-.05-1.566 362.8 362.8 0 0 1-.435 1.567m.223-6.22l-.057-.225.008.225c.008.274.02.554.028.832.004.203.013.41.02.624l.08 1.877.675 5.062a.17.17 0 0 0 .02.058c.137.55.257 1.103.364 1.654a30.702 30.702 0 0 1 .616 5.83c-.136 1.02.26 1.377 1.19 1.073.15-.542.294-1.07.434-1.583.102-.735.133-1.487.095-2.262a13.968 13.968 0 0 0-.51-3.058 20.997 20.997 0 0 0-.55-1.654 57.046 57.046 0 0 0-.297-.704l-2.118-7.75m.037-2.79l-.188-.154.174 1.61h.26l.457-1.95-.703.493m-4.858-4.11c-.03.216-.042.432-.042.645 0 .16.012.317.036.47.024.14.05.28.08.413l4.524 2.416.037-.023-4.636-3.923m10.637.646c.122-.268.22-.53.298-.8l-4.938 3.46 4.235-1.885c.145-.257.277-.51.398-.762l.008-.013z"/><path fill="#B07E3F" d="M40.925 196.548l.03-.755h-9.31l.057 8.186 4.596 2.415 3.212-1.553c-.043-.29-.082-.574-.116-.848-.14-1.384-.092-2.68.145-3.888a10.418 10.418 0 0 1 1.386-3.558m3.24.673l-.036.234a11.246 11.246 0 0 1 .217 2.653c-.033.73-.127 1.475-.282 2.234-.122.542-.27 1.093-.442 1.655-.18.525-.383 1.062-.61 1.61l.85 15.848c.602-.05 1.204-.088 1.803-.124l-.826-19.047-.675-5.062m27.684-11.766c-.518 2.276-1.688 4.8-3.51 7.57-.077.12-.155.24-.232.354a53.89 53.89 0 0 1-2.943 3.946l2.153.564a17.48 17.48 0 0 0 1.023-1.043c1.03-1.14 2-2.51 2.908-4.102 1.05-1.824 2.015-3.944 2.9-6.362l-2.3-.926m-13.754 18.822l.29-8.483H49.08l.06 8.188 4.596 2.415 4.358-2.12m-21.25-22.737l-.5 2.958 2.92 2.488 4.634 3.923.036.035.188.153.703-.494.435-.31 4.938-3.46 2.618-1.84.29-1.6.188-1.097a.865.865 0 0 0-.116.06c-1.934.81-3.77 1.357-5.503 1.638-1.024 1.218-1.85 2.432-2.48 3.64a13.96 13.96 0 0 0-.507 1.058c-.286.687-.51 1.367-.674 2.037a19.95 19.95 0 0 0-.4-1.87c-.11-.405-.23-.813-.354-1.224a26.494 26.494 0 0 0-1.64-3.806 13.007 13.007 0 0 1-4.776-2.286m-17.15 7.96l-.065-.108-1.53 2.518c2.255 2.885 5.365 4.927 9.33 6.117a.273.273 0 0 1-.034-.035l1.47-2.072-.33-.233v-.008c-4.21-1.163-7.157-3.222-8.84-6.178z"/><path fill="#356331" d="M68.455 184.8l.182-.637-4.582-1.812 1.696 2.45.704-.94 2 .94z"/><path fill="#C1C124" d="M70.145 184.85a.34.34 0 0 1 .037-.085l-1.545-.602-.182.637-2-.94-.704.94-1.695-2.45-1.037-.412c-.125.163-.22.346-.282.544-.12.36-.12.726 0 1.093.092.324.273.647.543.966.004.01.012.02.02.03.567.683 1.36 1.187 2.38 1.514.864.276 1.674.35 2.428.226.14-.025.28-.055.413-.095.87-.24 1.412-.695 1.625-1.364z"/><path fill="#FFF" d="M62.075 182.482a2.015 2.015 0 0 0 0 1.26.33.33 0 0 0 .037.116c.086.238.212.475.377.71.06.092.13.188.21.282.656.81 1.574 1.4 2.755 1.78.933.29 1.817.378 2.653.266.213-.028.42-.073.623-.13 1.006-.27 1.63-.793 1.872-1.566.023-.077.05-.154.07-.232l-.49-.203a.317.317 0 0 0-.038.086c-.213.67-.754 1.124-1.624 1.365-.135.04-.273.07-.413.095-.754.124-1.564.05-2.43-.226-1.02-.327-1.81-.832-2.377-1.514a.13.13 0 0 1-.022-.03c-.27-.318-.452-.64-.544-.965a1.696 1.696 0 0 1 0-1.093c.063-.2.158-.378.283-.544l-.52-.196c-.03.038-.06.077-.095.115a1.74 1.74 0 0 0-.29.516.27.27 0 0 0-.037.11m-16.88 5.147c.63-1.21 1.456-2.422 2.48-3.64-2.165.352-4.183.297-6.053-.168a26.53 26.53 0 0 1 1.638 3.81c.126.408.244.818.356 1.222.164.62.296 1.242.4 1.87.162-.67.387-1.35.673-2.036.148-.353.317-.706.505-1.058z"/><path fill="#E2B096" d="M41.62 183.822c1.872.465 3.89.52 6.055.168l3.48-4.938-11.76-.21 2.226 4.98z"/><path fill="#3A408D" d="M45.225 193.98a.61.61 0 0 0-.022-.073l-1.118-.02 2.118 7.75c.103.24.2.47.297.704.213.56.397 1.113.55 1.655.29 1.043.46 2.064.51 3.058.038.775.006 1.527-.096 2.262.2-.78.38-1.536.545-2.262a47.2 47.2 0 0 0 .564-3.058c.087-.576.157-1.127.21-1.654.072-.796.104-1.54.094-2.233 0-.207-.232-1.03-.696-2.465-.454-1.435-1.44-2.657-2.957-3.662m.035-3.69l-.435.31-.456 1.952.884-.023c1.837-1.28 3.188-2.562 4.053-3.843.063-.092.126-.185.188-.283l-4.235 1.885m-1.195 4.43l-.03-.833-.79-.022v.006c-.938.812-1.71 1.706-2.32 2.678a10.42 10.42 0 0 0-1.385 3.558c-.237 1.21-.285 2.504-.145 3.888a21.237 21.237 0 0 0 .588 3.058c.097.34.202.685.312 1.036.295.064.655-.28 1.08-1.036.377-.68.802-1.7 1.276-3.06.294-.878.617-1.897.964-3.053.077-.273.16-.552.247-.833.054-.2.11-.397.168-.594l.268-.972a11.29 11.29 0 0 0-.167-1.087l-.044-2.11c-.01-.212-.017-.42-.02-.624m-.132-3.778l-.036-.035-.037.022-4.523-2.417c.386 1.484 1.7 2.843 3.936 4.074v-.02l.834-.015-.173-1.61z"/><path fill="#666565" d="M43.507 192.718a2.552 2.552 0 0 1-.233-.13l-.03 1.277.792.022-.006-.225.057.225 1.116.02h.05v-1.378l-.884.022h-.262l-.834.016.233.15z"/><path fill="#984E1C" d="M44.24 129.923c-1.147-.987-2.624-1.48-4.432-1.48-2.024 0-5.024.875-8.997 2.625-3.64 1.61-5.778 2.818-6.417 3.625-2.04 2.248-3.852 4.438-5.437 6.57-3.04 4.137-4.56 7.436-4.56 9.896 0 .343.137 1.28.413 2.812.273 1.527.412 2.466.412 2.813 0 1.668-.055 2.66-.166 2.974-.33.96-1.246 1.5-2.75 1.615v2.075c.262.266 1.403.678 3.423 1.234 1.884.82 2.827 2.074 2.827 3.76 0 1.91-.595 3.415-1.784 4.51-.774.712-1.88 1.316-3.32 1.814.068.474.1.986.1 1.538 0 .584-.277 1.127-.833 1.624-.55.503-.826 1.28-.826 2.333 0 1.63 1.103 2.956 3.306 3.98 1.765.823 3.51 1.233 5.235 1.233 2.093 0 3.616-.855 4.568-2.566.84-1.48 1.054-3.122.638-4.93.43 0 1.19-.14 2.278-.422 1.068-.274 1.77-.414 2.102-.414.86 0 1.694.554 2.502 1.663.793 1.11 1.627 1.667 2.502 1.667 1.765 0 3.21-1 4.336-3.002.794-1.393 1.216-2.657 1.27-3.79 5.336-1.524 8.65-1.32 9.94.608 1.087 1.62 1.877 2.43 2.37 2.43.784 0 1.202-.02 1.255-.052.14-.08.188-.477.145-1.19h2.088c.527 2.456 1.206 4.496 2.037 6.12.71 1.367 1.428 2.2 2.153 2.5 1.204-.956 2.154-1.892 2.85-2.81.358-.495.933-1.308 1.726-2.438a31.335 31.335 0 0 1 2.9-3.32c.11-1.866.18-2.853.203-2.967.286-1.663.913-2.89 1.885-3.688.232-.193 1.357-.826 3.373-1.893 1.914-1.147 2.87-2.114 2.87-2.908 0-.522-.76-1.775-2.283-3.763-1.532-1.99-2.298-3.026-2.298-3.11 0-1.124.624-2.805 1.876-5.04 1.254-2.236 1.878-3.684 1.878-4.34 0-1.567-.76-2.636-2.276-3.207a43.33 43.33 0 0 1-2.393-.827 11.577 11.577 0 0 1-2.836-1.594c-1.015-.778-2.18-2.018-3.495-3.72-1.132-1.45-2.19-2.428-3.177-2.935-1.208-.645-3.296-1.16-6.264-1.553-3.312-.44-5.253-.757-5.823-.95-1.78-.644-3.48-1.68-5.098-3.11z"/><path fill="#C16315" d="M41.694 112.61c-.464 0-1.36.61-2.69 1.832a299.287 299.287 0 0 1-4.227 3.994c-4.225 3.892-7.548 5.84-9.97 5.84-.29 0-.906-.07-1.848-.21-.935-.138-1.708-.205-2.322-.205v-1.232c-.004.26-.143.392-.414.392-.342.174-1.397 1.045-3.16 2.61-1.504 1.316-2.603 1.974-3.3 1.974-1.136 0-1.79-.042-1.957-.125a2.882 2.882 0 0 1-.63-.457l-.01.166c-.018-.015-.028-.03-.028-.044-.17.42-.418.79-.747 1.11-.807.75-1.538 1.213-2.19 1.393-.672.18-1.957 1.23-3.857 3.144-1.92 1.925-2.878 5.2-2.878 9.825 0 .66.696 2.257 2.088 4.784 1.387 2.544 2.08 4.143 2.08 4.798 0 1.094-.323 2.168-.97 3.23-.34.555-1.056 1.463-2.154 2.724-2.084 2.422-3.125 4.723-3.125 6.902 0 1.107.685 2.502 2.058 4.185 1.368 1.654 2.49 2.48 3.364 2.48.343 0 1.104-.138 2.283-.415 1.185-.278 1.95-.42 2.3-.42 1.202 0 2.175.416 2.914 1.248.585.658.967 1.535 1.146 2.633 1.44-.5 2.547-1.104 3.32-1.815 1.19-1.095 1.784-2.6 1.784-4.51 0-1.687-.942-2.94-2.827-3.76-2.02-.557-3.16-.97-3.42-1.234v-2.074c1.5-.115 2.417-.656 2.746-1.617.11-.315.166-1.306.166-2.974 0-.348-.137-1.285-.413-2.814-.276-1.532-.414-2.47-.414-2.812 0-2.46 1.52-5.76 4.56-9.897 1.586-2.132 3.398-4.32 5.44-6.57.637-.806 2.776-2.015 6.416-3.624 3.973-1.75 6.972-2.628 8.998-2.628 1.808 0 3.285.494 4.43 1.48 1.62 1.433 3.318 2.47 5.097 3.11.57.195 2.51.512 5.823.95 2.967.392 5.055.91 6.263 1.552.987.507 2.045 1.487 3.177 2.937 1.314 1.703 2.48 2.943 3.494 3.722.832.64 1.776 1.175 2.835 1.594.598.23 1.396.508 2.392.827 1.518.57 2.276 1.64 2.276 3.204 0 .657-.624 2.106-1.877 4.344-1.252 2.233-1.876 3.913-1.876 5.04 0 .082.765 1.12 2.298 3.11 1.523 1.988 2.285 3.24 2.285 3.763 0 .793-.958 1.763-2.872 2.907-2.016 1.07-3.14 1.7-3.373 1.893-.97.798-1.6 2.028-1.885 3.69-.024.11-.092 1.098-.202 2.966a31.08 31.08 0 0 0-2.9 3.32c-.794 1.13-1.37 1.94-1.727 2.435-.696.92-1.646 1.856-2.85 2.814.194.086.393.128.595.128 1.615 0 2.95-.625 4.003-1.876.56-.655.98-1.084 1.254-1.293.55-.393 1.23-.587 2.037-.587.377 0 .797.217 1.263.653.55.604.99 1.083 1.32 1.435 1.377 1.39 2.95 2.082 4.72 2.082.985 0 2.167-.27 3.545-.81 1.94-.78 2.915-1.827 2.915-3.142 0-3.57.405-5.998 1.217-7.28.546-.835 1.457-1.302 2.734-1.4 1.394-.11 2.303-.384 2.727-.826.822-.846 1.233-2.684 1.233-5.51 0-1.58-.487-3.162-1.457-4.75a9.778 9.778 0 0 1-1.46-5.183c0-.497.33-1.067.98-1.71.238-.226.955-.817 2.156-1.77 2.08-1.65 3.123-3.133 3.123-4.443 0-3.234-1.67-6.375-5.01-9.42a38.34 38.34 0 0 0-1.103-.972c-.222.262-.388.42-.5.48-.15.082-1.073.123-2.77.123-.86 0-1.92-.33-3.183-.985a15.32 15.32 0 0 1-3.51-2.452c-2.653-2.46-3.547-4.648-2.682-6.568h-2.502c-5.722.46-12.23-1.963-19.525-7.266-1.097-.806-3.442-2.668-7.033-5.582-2.11-1.71-3.446-2.565-4.01-2.565z"/><path fill="#CF732E" d="M70.573 106.33c-1.213-.233-2.826-.364-4.836-.392a273.18 273.18 0 0 0-5.14 0c-2.036-.04-3.663-.454-4.88-1.248-.866-.56-1.642-1.417-2.328-2.568-.89-1.474-1.434-2.322-1.632-2.544-.71-.763-1.637-1.146-2.778-1.146-1.314 0-3.426.582-6.337 1.747-2.958 1.198-5.046 2.68-6.263 4.444-.683.194-1.426-.327-2.233-1.558-.793-1.258-2.703-1.468-5.728-.63-3.018.82-4.338 2.494-3.96 5.022.376 2.51-.097 3.626-1.42 3.35-1.315-.29-2.99-.065-5.025.676-2.027.715-3.69 2.034-4.996 3.958-1.312 1.9-1.966 4.077-1.966 6.533 0 .87.09 1.943.27 3.22l.042.47c.077.45.014.902-.188 1.356.226.21.437.362.63.457.17.082.822.124 1.958.124.697 0 1.796-.657 3.3-1.972 1.763-1.565 2.818-2.435 3.16-2.61.27 0 .41-.13.414-.392v1.233c.614 0 1.387.067 2.32.203.943.138 1.56.21 1.85.21 2.42 0 5.744-1.946 9.97-5.838 1.052-.97 2.462-2.304 4.225-3.995 1.33-1.223 2.227-1.833 2.69-1.833.566 0 1.903.854 4.01 2.565 3.592 2.915 5.937 4.777 7.034 5.583 7.293 5.303 13.8 7.724 19.524 7.266h2.503c-.866 1.92.028 4.11 2.68 6.57a15.38 15.38 0 0 0 3.51 2.45c1.263.657 2.323.986 3.183.986 1.697 0 2.62-.04 2.77-.124.112-.057.278-.217.5-.478a82.048 82.048 0 0 0-2.327-1.92c-1.05-.905-1.572-1.59-1.572-2.06 0-.546.417-1.374 1.255-2.48.83-1.112 1.247-2.093 1.247-2.943 0-2.348-2.29-4.614-6.873-6.793-3.138-1.497-4.715-2.255-4.73-2.27-1.43-.792-2.145-1.52-2.145-2.18 0-.393.555-1.296 1.66-2.713 1.117-1.422 1.675-2.256 1.675-2.502-.003-2.83-1.678-4.576-5.027-5.233z"/><path fill="#E2B096" d="M50.04 172.407c-3.125 1.7-6.39 1.616-9.794-.247v8.17c3.264 3.724 6.53 3.724 9.795 0v-7.923z"/><path fill="#AC8675" d="M40.245 165.656v6.504c3.405 1.867 6.67 1.947 9.795.247v-6.75h-9.795z"/><path fill="#E2B096" d="M44 118.98c.053 1.108-1.33 3.296-4.147 6.563-2.572 2.958-9.552 7.598-20.94 13.92l-2.4 9.608c1.362 4.66 3.9 8.844 7.614 12.55 5.87 5.875 12.966 8.81 21.28 8.81 8.304 0 15.4-2.936 21.287-8.81 2.654-2.668 4.708-5.586 6.163-8.758 1.102-4.788-.298-9.577-4.198-14.362-12.87-6.89-21.09-13.395-24.66-19.52z"/><path fill="#C16315" d="M43.027 113.435c.262.515-1.058 2.198-3.958 5.046-2.906 2.848-4.984 4.75-6.236 5.707-1.253.947-2.447 1.544-3.583 1.79-1.154.242-2.142.647-2.963 1.212-.84.555-2.84.313-5.997-.727l.35-3.335c-3.564 4.99-5.345 10.72-5.345 17.19 0 .36.006.73.02 1.11.02.8.07 1.594.152 2.387.2 1.807.547 3.558 1.045 5.256l2.4-9.606c11.39-6.324 18.37-10.964 20.94-13.922 2.818-3.266 4.2-5.454 4.146-6.56 3.573 6.123 11.793 12.63 24.66 19.517 3.9 4.785 5.3 9.573 4.198 14.362 1.214-2.652 2.006-5.478 2.38-8.475.095-.794.168-1.593.216-2.4.03-.562.044-1.118.044-1.668 0-4.45-.84-8.547-2.524-12.3h-.712c-5.722.46-12.23-1.96-19.525-7.263-1.097-.807-3.054-2.36-5.873-4.654-2.826-2.286-4.105-3.176-3.835-2.668z"/><path fill="#CF732E" d="M39.07 118.48c2.9-2.847 4.22-4.53 3.957-5.045-.27-.51 1.01.382 3.835 2.668 2.82 2.295 4.776 3.847 5.873 4.654 7.294 5.303 13.803 7.724 19.525 7.265h.712c-1.46-3.262-3.554-6.265-6.28-9.006-5.886-5.87-12.982-8.81-21.287-8.81-8.314 0-15.407 2.94-21.28 8.81a32.094 32.094 0 0 0-3.487 4.112l-.35 3.335c3.157 1.04 5.157 1.282 5.998.726.82-.565 1.81-.97 2.965-1.212 1.136-.247 2.33-.844 3.583-1.79 1.253-.958 3.33-2.86 6.236-5.707z"/><path fill="#AC8675" d="M82.363 143.67c0-1.567-.454-2.903-1.363-4.01-.9-1.097-1.983-1.65-3.248-1.66l3.537 9.295c.715-1.03 1.073-2.238 1.073-3.626z"/><path fill="#E2B096" d="M78.157 134.686c-.55 0-1.077.075-1.58.225l1.175 3.09c1.264.01 2.348.563 3.248 1.66.91 1.108 1.363 2.443 1.363 4.01 0 1.387-.358 2.596-1.074 3.624l.703 1.835c.266-.247.524-.522.776-.827 1.276-1.557 1.913-3.437 1.913-5.64 0-2.205-.637-4.085-1.914-5.642-1.273-1.556-2.81-2.334-4.613-2.334z"/><path fill="#AC8675" d="M9.203 139.66c-.908 1.107-1.363 2.443-1.363 4.01 0 1.387.358 2.595 1.073 3.625l3.54-9.296c-1.268.01-2.35.563-3.25 1.66z"/><path fill="#E2B096" d="M13.627 134.91a5.532 5.532 0 0 0-1.58-.224c-1.805 0-3.34.778-4.613 2.335-1.275 1.558-1.914 3.44-1.914 5.642 0 2.204.64 4.085 1.914 5.642.252.304.51.58.776.825l.704-1.835c-.716-1.03-1.073-2.237-1.073-3.626 0-1.567.456-2.903 1.364-4.01.9-1.097 1.98-1.65 3.25-1.66l1.173-3.09z"/><path fill="#E3B39A" d="M33.737 148.524c-.07-.027-.103-.06-.103-.102-1.043-.264-1.75-.306-2.127-.126-.206.094-.403.38-.583.854l.102.628c.238.235.37.36.398.374.18.097.5.144.96.144.416 0 .75-.047 1-.144l.355-.165c.07.165.103-.097.103-.794-.003-.405-.038-.626-.106-.67zM26.65 149.857c-.07-.084-.103-.145-.103-.186-1.25-.335-1.877-.007-1.877.98 0 .224.348.658 1.042 1.312.153-.043.347-.125.583-.25.21-.11.326-.166.356-.166.07.07.105-.243.105-.94 0-.402-.037-.65-.104-.75zM38.593 149.253c.167-.223.25-.43.25-.625a2.218 2.218 0 0 0-1.044-.835c-.208.056-.432.19-.667.398-.25.207-.374.39-.374.54l.1.627c.21.21.523.38.94.522.334-.14.597-.348.793-.627zM52.598 151.962a2.22 2.22 0 0 0-1.043-.833c-.207.055-.43.185-.666.396-.25.208-.376.39-.376.54l.103.627c.21.208.522.38.938.52.333-.14.598-.348.794-.627.164-.22.248-.43.248-.624z"/><g><path fill="#E3B39A" d="M48.847 150.294c-.25-.372-.6-.653-1.043-.832-.21.055-.43.186-.667.395-.25.21-.376.39-.376.54l.105.627c.21.208.522.38.94.522a1.76 1.76 0 0 0 .79-.626c.167-.22.252-.43.252-.626z"/></g><g><path fill="#E3B39A" d="M44.263 143.627c-.25-.375-.6-.655-1.043-.833-.207.055-.43.186-.667.394-.25.208-.375.39-.375.543l.105.625c.207.21.52.383.938.522.333-.14.6-.347.792-.624.167-.223.25-.432.25-.626z"/></g><g><path fill="#E3B39A" d="M60.934 152.38c-.25-.376-.6-.653-1.042-.834-.21.056-.43.19-.665.397-.25.207-.376.39-.376.54l.105.627c.21.208.522.38.94.52.332-.137.596-.345.79-.624.167-.223.25-.433.25-.625z"/></g><g><path fill="#BF9580" d="M70.94 151.546a2.22 2.22 0 0 0-1.042-.832c-.21.055-.43.186-.667.394-.25.207-.375.39-.375.542l.104.625c.208.208.52.383.938.522.333-.14.597-.347.79-.627.168-.22.25-.428.25-.624z"/></g><g><path fill="#BF9580" d="M49.264 146.128a2.214 2.214 0 0 0-1.04-.834c-.21.056-.43.188-.667.397-.25.207-.376.39-.376.543l.106.625c.208.206.522.38.938.522.333-.138.597-.347.79-.624.166-.225.25-.435.25-.628z"/></g><g><path fill="#BF9580" d="M44.68 141.96a2.21 2.21 0 0 0-1.043-.836c-.21.056-.43.19-.667.397-.25.208-.376.39-.376.542l.104.626c.206.208.52.383.937.522.334-.138.597-.347.792-.625.168-.224.252-.432.252-.626z"/></g><g><path fill="#BF9580" d="M28.004 149.88a2.226 2.226 0 0 0-1.043-.836c-.205.056-.43.188-.666.396-.25.208-.374.39-.374.543l.102.624c.21.208.522.383.938.522.333-.14.598-.348.794-.628.168-.22.25-.43.25-.623z"/></g><g><path fill="#BF9580" d="M64.687 149.463c-.25-.376-.598-.653-1.04-.834-.21.055-.432.187-.67.396-.248.206-.374.388-.374.542l.105.624c.206.21.52.384.938.523.333-.14.596-.347.79-.624.168-.225.25-.434.25-.627z"/></g><g><path fill="#BF9580" d="M38.008 148.21a2.21 2.21 0 0 0-1.043-.834c-.206.055-.43.19-.667.396-.25.208-.375.39-.375.543l.103.625c.208.21.522.382.938.522.333-.138.598-.347.79-.628.17-.22.254-.427.254-.623z"/></g><g><path fill="#BF9580" d="M41.135 146.336c.278-.138.45-.312.52-.522a1.808 1.808 0 0 0-.666-.227c-.21.012-.335.02-.377.02 0 .348.175.59.522.73z"/></g><g><path fill="#BF9580" d="M49.888 140.083c.278-.138.453-.313.523-.523a1.828 1.828 0 0 0-.666-.228c-.21.014-.334.02-.376.02 0 .348.173.593.52.73z"/></g><g><path fill="#BF9580" d="M23.003 147.585c.21-.206.313-.522.313-.935a1.86 1.86 0 0 0-.667-.23 7.79 7.79 0 0 1-.377.02c0 .557.07.94.21 1.147h.52z"/></g><g><path fill="#BF9580" d="M57.81 152.17c.277-.137.452-.312.52-.52a1.81 1.81 0 0 0-.666-.23c-.21.014-.333.02-.374.02-.003.35.172.593.52.73z"/></g><g><path fill="#BF9580" d="M67.398 147.585c.277-.138.45-.31.52-.522a1.793 1.793 0 0 0-.665-.227c-.21.012-.335.02-.376.02 0 .348.172.59.52.73z"/></g><g><path fill="#FFF" d="M56.68 156.183c.42-.42.632-.92.632-1.492v-1.18c-1.058-.398-2.475-.45-4.25-.155v1.337c0 .573.21 1.07.632 1.494.415.418.913.63 1.495.63a2.056 2.056 0 0 0 1.49-.633m-11.44.37c.357-.357.565-.775.622-1.254-1.426.356-2.74.633-3.944.825.082.15.19.292.327.427.42.417.92.625 1.5.625a2.05 2.05 0 0 0 1.494-.625m5.053-2.472v-.058c-.16.04-.312.082-.457.13-1.33.417-2.586.78-3.77 1.088.023.493.227.93.61 1.312.148.147.308.27.477.37.31.17.648.255 1.016.255.58 0 1.077-.208 1.5-.625.415-.42.623-.92.623-1.492v-.98z"/><path fill="#631719" d="M46.066 155.24c-.074.015-.14.035-.203.06a2.084 2.084 0 0 1-.623 1.252 2.05 2.05 0 0 1-1.494.625c-.58 0-1.08-.208-1.5-.625a1.844 1.844 0 0 1-.327-.427c-.707.11-1.372.206-1.995.284-2.683.253-4.025 1.035-4.025 2.338 0 1.307 1.106 2.415 3.32 3.322 1.155.48 2.447.837 3.872 1.074.692-2.084 2.045-4.158 4.06-6.222a2.57 2.57 0 0 1-.477-.37c-.382-.38-.585-.82-.61-1.312m4.228-1.16a.524.524 0 0 1 .13-.093.29.29 0 0 0-.13.037v.056z"/><path fill="#BE1E16" d="M50.424 153.987a.504.504 0 0 0-.13.093v.98c0 .573-.21 1.072-.624 1.492-.42.417-.92.625-1.5.625-.37 0-.706-.084-1.016-.255-2.016 2.064-3.37 4.138-4.06 6.222 1.28.208 2.666.312 4.153.312 3.138 0 5.817-.463 8.034-1.386 2.216-.907 3.637-2.236 4.265-3.988.615-1.745.132-3.14-1.442-4.19a3.68 3.68 0 0 0-.79-.384v1.18a2.04 2.04 0 0 1-.632 1.495c-.42.42-.917.63-1.493.63-.58 0-1.078-.21-1.494-.63-.42-.42-.63-.92-.63-1.495v-1.333a21.34 21.34 0 0 0-2.64.632z"/></g><g><path fill="#B48041" d="M62.003 272.628c2-.812 3.77-1.83 5.315-3.053L59.42 244.83l2.583 27.798m-35.69-.248c1.327.296 2.627.567 3.904.813l.79-29.234-4.693 28.42z"/><path fill="#C78E49" d="M23.292 271.685c1.02.245 2.028.477 3.023.695l4.692-28.42-.79 29.233c13.76 2.645 24.357 2.455 31.786-.565l-2.58-27.798 7.895 24.745c.187-.15.374-.304.557-.465l-6.85-38.738H29.577l-6.286 41.313z"/><path fill="#633319" d="M61.024 230.372v-3.88H29.49l.088 3.88h31.446z"/></g><g><path fill="#AD753C" d="M45.295 224.04c-1.363 0-2.525.478-3.487 1.442-.962.963-1.442 2.123-1.442 3.487 0 1.363.48 2.526 1.442 3.487.962.96 2.124 1.443 3.487 1.443s2.526-.482 3.487-1.443c.962-.96 1.443-2.124 1.443-3.488 0-1.365-.48-2.527-1.443-3.488-.96-.964-2.124-1.44-3.487-1.44m-2.914 2.013a3.774 3.774 0 0 1 2.77-1.146c1.085 0 2.007.382 2.77 1.145a3.774 3.774 0 0 1 1.132 3.06c-.06.96-.436 1.785-1.13 2.48a3.78 3.78 0 0 1-2.77 1.145 3.782 3.782 0 0 1-2.77-1.145c-.695-.698-1.075-1.523-1.14-2.48a6.46 6.46 0 0 1-.006-.29c0-1.082.38-2.006 1.145-2.77z"/><path fill="#946433" d="M45.15 225.49a3.782 3.782 0 0 0-2.77 1.144c-.694.697-1.074 1.523-1.138 2.48.064.96.444 1.786 1.138 2.48a3.772 3.772 0 0 0 2.77 1.146c1.084 0 2.007-.383 2.77-1.147.696-.696 1.072-1.52 1.132-2.478-.06-.958-.436-1.784-1.132-2.48a3.78 3.78 0 0 0-2.77-1.146z"/><path fill="#724C25" d="M42.38 226.636a3.774 3.774 0 0 1 2.77-1.147c1.085 0 2.007.382 2.77 1.146.696.695 1.073 1.52 1.132 2.48a3.774 3.774 0 0 0-1.13-3.06c-.765-.764-1.687-1.146-2.77-1.146a3.777 3.777 0 0 0-2.77 1.146c-.765.764-1.147 1.687-1.147 2.77 0 .097.002.195.008.29.064-.96.444-1.785 1.138-2.48z"/></g><g><path fill="#010002" d="M33.876 145.186c.74-.838 1.113-1.85 1.113-3.033 0-1.182-.373-2.194-1.114-3.033-.735-.84-1.62-1.26-2.66-1.26s-1.93.42-2.672 1.26c-.735.84-1.102 1.85-1.102 3.033 0 1.185.367 2.196 1.102 3.033.74.84 1.632 1.26 2.67 1.26s1.927-.42 2.662-1.26z"/></g><g><path fill="#FFF" d="M33.64 142.48c.37-.35.555-.778.555-1.28s-.185-.93-.556-1.287a1.855 1.855 0 0 0-1.332-.524c-.524 0-.97.174-1.34.523a1.737 1.737 0 0 0-.546 1.286c0 .502.18.93.545 1.28.372.355.82.533 1.34.533s.968-.178 1.332-.533z"/></g><g><path fill="#010002" d="M55.9 139.01c.738-.837 1.627-1.258 2.666-1.258 1.04 0 1.927.42 2.665 1.258.74.84 1.11 1.846 1.11 3.024 0 1.185-.37 2.197-1.11 3.035-.737.837-1.626 1.257-2.664 1.257-1.04 0-1.928-.42-2.666-1.258-.738-.84-1.108-1.85-1.108-3.036 0-1.178.37-2.185 1.108-3.024z"/></g><g><path fill="#FFF" d="M61.042 142.48c.37-.35.557-.778.557-1.28s-.187-.93-.558-1.287a1.852 1.852 0 0 0-1.33-.524c-.524 0-.97.174-1.342.523a1.737 1.737 0 0 0-.545 1.286c0 .502.18.93.545 1.28.37.355.818.533 1.342.533.523 0 .966-.178 1.33-.533z"/></g></g></svg>