<svg xmlns="http://www.w3.org/2000/svg" xmlns:xlink="http://www.w3.org/1999/xlink" width="788" height="78" viewBox="0 0 788 78"><path fill="#354A59" d="M0 0v78l788-12.196V0z"/><defs><path id="a" d="M0 0v78l788-12.196V0z"/></defs><clipPath id="b"><use xlink:href="#a" overflow="visible"/></clipPath><g clip-path="url(#b)"><path fill="#BE947E" d="M60.15 82.37c-.956-.005-1.763.085-2.42.268 11.26 7.56 19.82 9.27 25.685 5.133-4.945 2.773-12.7.97-23.266-5.4z"/><path fill="#E2B096" d="M89.897 69.775c.017 1.3-.02 2.543-.11 3.724-.013.327-.04.658-.09.988-.605 6.83-2.7 11.256-6.283 13.282-5.864 4.137-14.425 2.427-25.684-5.133-1.815.595-2.464 2.07-1.947 4.425 22.202 12.293 35.203 9.808 39.006-7.46.278-1.252.51-2.566.702-3.94.267-2.17.436-4.526.507-7.06l-6.09.078c.004.366 0 .73-.013 1.095z"/><path fill="#EDD0C1" d="M84.483 55.896a2.082 2.082 0 0 0-.513-.21l2.465 5.573c2.746.52 4.732 2.354 5.957 5.508.17-2.655-1.557-4.968-5.183-6.94-.047.255-.095.494-.144.72l-1.417-3.33a2.666 2.666 0 0 0-1.167-1.322m12.045-7.694a1.68 1.68 0 0 0-.24-.624 1.57 1.57 0 0 0-1.01-.76 1.668 1.668 0 0 0-1.27.174 1.64 1.64 0 0 0-.75 1.027l-.164.674c.758-1.59 1.902-1.756 3.434-.492m-7.482-.262a1.63 1.63 0 0 0-.58 1.122l-.076.845c.734-1.712 1.817-2.165 3.25-1.36a1.713 1.713 0 0 0-.247-.368 1.605 1.605 0 0 0-1.112-.605 1.67 1.67 0 0 0-1.234.365m14.31 4.64a1.4 1.4 0 0 0-.167-.06c-.336-.09-.702-.017-1.094.225-.37.24-.676.575-.914 1a6.8 6.8 0 0 0-.163.32 2.64 2.64 0 0 1 .22-.313c.453-.575 1.094-.908 1.922-1.004.135-.018.27-.028.41-.034a1.024 1.024 0 0 0-.217-.135m-8.6 4.05c-1.85-1.07-3.495-1.373-4.93-.908 3.386 1.036 6.716 2.53 9.993 4.482-.638-1.313-2.113-2.424-4.428-3.334-.205-.08-.415-.16-.634-.24m4.04-7.943a1.6 1.6 0 0 0-.74.747c.77-.498 1.65-.644 2.64-.44a1.66 1.66 0 0 0-.632-.38 1.632 1.632 0 0 0-1.268.073z"/><path fill="#E2B096" d="M101.128 50.728c.146-.436.11-.865-.103-1.288-.09-.17-.2-.32-.33-.445-.99-.204-1.87-.06-2.64.44a1.55 1.55 0 0 0-.092.22L95.89 55.93a6.666 6.666 0 0 0-.37-.152c-.106-.04-.21-.078-.317-.11a3.18 3.18 0 0 0-.382-.12l1.675-6.696c.053-.22.063-.435.034-.648-1.533-1.264-2.677-1.1-3.436.492l-1.685 6.718-.19.045.565-6.066a1.54 1.54 0 0 0-.146-.846c-1.434-.804-2.517-.35-3.25 1.36l-.63 6.745a.176.176 0 0 1-.022-.078l-.176 1.188a58.53 58.53 0 0 1-.353 2.067c3.625 1.972 5.353 4.284 5.182 6.94-1.225-3.154-3.21-4.99-5.957-5.51l-2.465-5.573a1.62 1.62 0 0 0-.964.043c-.473.17-.793.524-.963 1.062-.028.1-.05.202-.07.305-.063.45.002.91.2 1.38l3.534 8.283c.043.1.09.193.14.282.15.386.337.77.568 1.15.996 1.637 2.416 2.69 4.258 3.163 1.857.48 3.593.238 5.21-.73 1.635-.95 2.68-2.342 3.135-4.167l.295-1.166.046-.103 4.44-9.86c.256-.58.343-1.143.258-1.688-.066-.423-.228-.73-.486-.927-.14.006-.274.017-.41.034-.827.095-1.468.428-1.92 1.003-.08.096-.154.2-.222.313l-2.092 4.65-.048-.08a8.4 8.4 0 0 0-.244-.386 2.89 2.89 0 0 0 .062-.166l2.43-7.356m-11.303 4.994c1.436-.465 3.08-.162 4.93.91.22.08.43.16.635.238 2.315.91 3.79 2.02 4.428 3.334-3.277-1.953-6.607-3.446-9.993-4.482zM23.756 79.494c2.367.452 3.458 1.627 3.275 3.522-11.38 7.37-16.327 14.566-14.832 21.587.45 4.092 3.702 7.763 9.756 11.017.286.173.576.33.875.473a41.71 41.71 0 0 0 3.38 1.566c.313.148.648.295 1 .44l-2.326 5.63c-2.318-1.07-4.415-2.154-6.29-3.247a46.422 46.422 0 0 1-3.345-2.2c-14.392-10.3-11.555-23.23 8.506-38.79z"/><path fill="#BE947E" d="M27.03 83.017c-.074.683-.31 1.46-.707 2.328-10 7.208-14.71 13.627-14.126 19.26-1.494-7.022 3.45-14.217 14.834-21.588z"/><path fill="#BF9580" d="M24.777 136.052l-.178.772-2.79-4.703c.05-.26.105-.527.163-.805l2.804 4.737m9.347-10.08c.5 1.52.077 2.36-1.266 2.52l-3.266-2.252c1.298-.872 2.073-2.064 2.32-3.574l2.212 3.305z"/><path fill="#E2B096" d="M23.86 139.84l-.176.153c-1.735 1.424-2.69.984-2.86-1.322.117-1.286.287-2.583.51-3.9.14-.88.298-1.765.477-2.648l2.79 4.703-.74 3.016m3.068-1.63a5.637 5.637 0 0 1-.94-.11l-1.21-2.048-2.804-4.736.01-.022c.27-1.24.526-2.338.768-3.29.266-.96.428-2.122.485-3.488.09-1.354 1.04-3.54 2.854-6.566.805-.268 1.57-.348 2.294-.235 1.345.2 2.52 1.078 3.53 2.64.12.84.12 1.61 0 2.313-.25 1.51-1.023 2.702-2.32 3.574a3.79 3.79 0 0 0-.303.185 9.83 9.83 0 0 1-1.773.816c-.212.063-.427.125-.64.187l-.81 3.326 2.478 5.588c.004 1.127-.466 1.74-1.408 1.84a.886.886 0 0 1-.182-.102l-.027.127z"/><path fill="#D2A48B" d="M25.986 138.1c.347.068.662.104.94.11l-.13.93c-.965 1.516-2.002 1.8-3.113.854.06-.05.117-.102.175-.152l.74-3.017.178-.772 1.21 2.048z"/><path fill="#7297BC" d="M33.976 87.1l-.625 4.712 1.615-6.143-10.386-.34.624 3.15 8.772-1.38m23.22 0l5.31 6.82 1.38-2.576-8.826-6.378 2.786 6.454-.65-4.32z"/><path fill="#95BFE6" d="M36.136 72.47l-13.198 4.87 1.64 7.99 10.387.34-1.614 6.142-4.11 30.717c18.707 1.04 29.57.632 32.59-1.225L57.846 91.42l-2.786-6.454 8.826 6.378 4.165-7.603-13.015-10.905-18.9-.364z"/><path fill="#00122A" d="M60.553 124.273v-3.123l-30.04.545c-.14.833-.277 1.676-.417 2.525-2.256 14.3-2.985 28.4-2.187 42.3.034.45.06.912.078 1.38.156 2.257.607 5.484 1.353 9.685v.026a5.81 5.81 0 0 0 2.5.47c.92-.052 1.832-.34 2.734-.86a.71.71 0 0 0 .156-.077c-.347-4.896-.564-8.147-.65-9.763a7.297 7.297 0 0 1-.053-.86c-.59-11.277.52-22.983 3.333-35.113l16.347-.81 3.645 34.753 1.327 10.7c1.44 1.3 3.097 1.135 4.97-.495l-3.097-51.282z"/><g><path fill="#CBCBCB" d="M21.325 189.325c.33.087.607.19.833.312.156.068.286.146.39.235.018 0 .053.024.104.076.122.09.32.27.6.547.294.278.484.45.57.52l.053.028c.157 0 .25-.07.286-.21v-.13c0-.12-.18-.348-.546-.677a1.75 1.75 0 0 0-.26-.21 14.92 14.92 0 0 0-.625-.44c-.122-.07-.235-.14-.34-.21a6.814 6.814 0 0 0-.598-.31c-.798-.383-1.197-.34-1.197.13 0 .034.13.103.39.208.087.035.2.08.34.13m2.863-.78c.07.034.14.078.208.13.19.12.364.234.52.34.61.38.93.57.964.57.26 0 .39-.085.39-.26s-.338-.433-1.014-.78a9.206 9.206 0 0 0-.573-.313c-.4-.19-.72-.32-.964-.39-.4-.12-.6-.078-.6.13 0-.032.088-.007.26.08.175.086.443.25.808.494m4.113-.65a.808.808 0 0 0-.207-.34c-.226-.208-.573-.39-1.042-.546a2.86 2.86 0 0 0-.52-.155c-.486-.122-.91-.174-1.275-.158h-.026c-.348.036-.522.13-.522.288 0 .018.018.05.052.103.052.036.122.08.208.13.294.018.6.07.91.158.21.05.418.13.626.232.156.07.32.148.494.235.382.21.66.356.833.442l.183.13c.19 0 .295-.068.313-.207l.025-.052a.554.554 0 0 0-.05-.26m-1.223-3.124a.292.292 0 0 1-.13-.027c-.294-.034-.442.072-.442.314 0 .068.01.113.026.13 0 .034.02.06.053.076.035.037.104.062.21.08.346.05.666.103.962.155.104.017.2.026.286.026.157.052.382.225.678.52.035.053.182.218.442.495.087.087.173.164.26.233.122.105.234.157.34.157.172 0 .26-.105.26-.313-.018-.19-.062-.33-.13-.416-.053-.086-.122-.13-.21-.13-.172 0-.372-.095-.598-.286a5.722 5.722 0 0 0-.65-.52c-.14-.053-.27-.105-.39-.156a8.384 8.384 0 0 0-.965-.34m2.37-1.612l-.417-.053a3.305 3.305 0 0 0-.833 0 .836.836 0 0 0-.313.053c-.173.034-.26.095-.26.18 0 .037.025.08.078.132v.026c.035.018.096.052.182.104.348-.034.66-.052.938-.052.625.018 1.076.13 1.354.34.104.068.226.17.365.312a.66.66 0 0 0 .443.154.366.366 0 0 0 .234-.077.318.318 0 0 0 .052-.184.503.503 0 0 0-.053-.23c-.192-.332-.78-.566-1.77-.704m1.587-1.25c.053.05.122.14.208.26.07.07.173.104.312.104a.286.286 0 0 0 .208-.077.288.288 0 0 0 .08-.208c0-.018-.01-.035-.027-.053-.035-.09-.157-.184-.364-.287-.156-.07-.58-.216-1.275-.442H28.38a.31.31 0 0 0-.21.155c-.034.054-.05.09-.05.105 0 .053.017.095.05.13.02 0 .045.02.08.052.034.018.078.044.13.08h.05c.452-.036.86-.054 1.224-.054.677.02 1.137.097 1.38.235m1.224-2.082c0-.14-.096-.243-.286-.313h-.026c-.33-.068-.59-.182-.78-.34-.382.02-.704.046-.964.08-.52.017-.86.052-1.016.104-.104.018-.173.07-.208.156a.344.344 0 0 0-.027.155v.157c0 .052.028.087.08.104.035.034.095.052.182.052.018 0 .06-.018.13-.052a1.5 1.5 0 0 0 .338-.13c.19-.07.4-.105.625-.105.19 0 .4.01.625.027.052.052.173.12.364.208.018.017.035.026.052.026.226.105.39.156.495.156h.157c.122-.034.2-.096.234-.182a.2.2 0 0 0 .028-.1z"/><path fill="#00254D" d="M22.157 189.637a3.833 3.833 0 0 0-.833-.312c-.14-.052-.252-.096-.34-.13-.71.276-1.474.51-2.29.7l2.5 2.346c.92-.364 1.795-.77 2.628-1.224-.087-.07-.277-.243-.572-.52a6.474 6.474 0 0 0-.6-.548c-.05-.052-.085-.076-.103-.076a1.545 1.545 0 0 0-.39-.235M27 187.84a13.948 13.948 0 0 0-.495-.234 2.935 2.935 0 0 0-.625-.232 4.278 4.278 0 0 0-.91-.157 3.886 3.886 0 0 1-.21-.13c-.33.26-.675.513-1.04.755.242.068.564.2.963.39.208.105.4.21.573.313.676.348 1.015.607 1.015.78s-.13.26-.39.26c-.035 0-.355-.19-.963-.57-.156-.105-.33-.22-.52-.34a1.316 1.316 0 0 0-.21-.13 8.142 8.142 0 0 0-.806-.493c-.502.293-1.03.563-1.587.806.19.087.39.19.6.312.103.07.216.14.337.21.208.138.417.286.625.44.104.07.19.14.26.21.365.328.547.555.547.676v.13a19.565 19.565 0 0 0 3.67-2.552c-.173-.088-.45-.233-.833-.443m-.208-2.498c-.105-.018-.174-.042-.21-.08-.416.522-.867 1-1.353 1.433h.025c.364-.016.79.036 1.275.158.173.034.347.085.52.155.47.156.816.338 1.043.546.104.105.173.22.208.34.4-.363.773-.737 1.12-1.12a2.888 2.888 0 0 1-.26-.234 7.23 7.23 0 0 1-.442-.494c-.296-.296-.52-.47-.677-.52-.086 0-.18-.01-.285-.027a32.148 32.148 0 0 0-.963-.158m1.092-1.744a3.308 3.308 0 0 0-.182-.104c-.225.435-.478.85-.755 1.248.035.018.08.026.13.026.208.053.53.165.963.34.12.05.25.103.39.154.14.088.356.262.65.52.227.192.427.288.6.288.087 0 .156.043.208.13.434-.625.798-1.24 1.093-1.85a.665.665 0 0 1-.44-.154c-.14-.14-.26-.243-.366-.313-.278-.208-.73-.32-1.354-.34-.277.003-.59.02-.936.055m3.358-1.432a2.31 2.31 0 0 0-.208-.26c-.243-.14-.703-.217-1.38-.234-.363 0-.77.018-1.223.053a14.04 14.04 0 0 1-.545 1.432.836.836 0 0 1 .313-.053c.243-.035.52-.035.833 0l.417.053c.99.138 1.58.372 1.77.703a8.928 8.928 0 0 0 .547-1.666.29.29 0 0 1-.208.077c-.14 0-.244-.035-.314-.104m.703-2.655h.026a8.548 8.548 0 0 0-.233-1.456 5.558 5.558 0 0 1-2.5-.442h-.078a13.09 13.09 0 0 1-.157 1.69.876.876 0 0 0-.025.21c.034-.088.103-.14.208-.157.156-.052.495-.087 1.016-.104.26-.033.582-.06.963-.078.19.157.45.27.78.34m.052.597h-.156c-.103 0-.27-.053-.494-.156-.017 0-.034-.01-.052-.026-.19-.087-.312-.156-.364-.208a7.88 7.88 0 0 0-.625-.026c-.226 0-.434.034-.625.104a1.5 1.5 0 0 1-.338.13.467.467 0 0 1-.13.053c-.087 0-.147-.017-.182-.05-.052-.02-.08-.054-.08-.105v-.13a.63.63 0 0 0-.05.234c-.088.433-.19.857-.314 1.274h1.588c.694.227 1.12.373 1.276.442.208.104.33.198.364.287a9.19 9.19 0 0 0 .183-1.824z"/><path fill="#FFF" d="M37.542 191.9l-.494-2.29-1.666.47c-7.48 2.827-11.567 4.164-12.26 4.008l.442.442c-.556-.33-.72-.477-.495-.442l-1.875-1.847-2.5-2.344-4.66 1.536c-.797 1.267-1.005 2.42-.624 3.463.088 0 .183.008.288.026-.607.557-.66 1.205-.156 1.952 9.075.695 17.075-.96 24-4.97z"/><path fill="#003162" d="M34.47 177.194c-.902.538-1.813.824-2.732.86.12.484.2.97.234 1.456.19.07.286.174.286.313 0 .035-.01.07-.026.104-.035.086-.113.147-.234.182a9.33 9.33 0 0 1-.182 1.822c.018.018.026.035.026.053a.284.284 0 0 1-.08.208 9.002 9.002 0 0 1-.545 1.666c.035.068.052.145.052.23a.32.32 0 0 1-.053.184.368.368 0 0 1-.234.077c-.295.61-.66 1.226-1.093 1.85.07.087.113.227.13.417 0 .208-.087.313-.26.313-.104 0-.217-.052-.34-.157-.346.383-.72.757-1.118 1.12a.58.58 0 0 1 .052.26l-.025.052c-.02.14-.123.208-.314.208l-.182-.13a19.565 19.565 0 0 1-3.67 2.55c-.035.14-.13.21-.286.21l-.052-.026c-.833.452-1.71.86-2.63 1.225l1.875 1.847h.053c.694.155 4.78-1.182 12.26-4.01.52-.19 1.06-.398 1.614-.624h.052l-2.396-11.896-.183-.366z"/></g><g><path fill="#00254D" d="M72.397 186.748a3.9 3.9 0 0 0-.338.13 6.59 6.59 0 0 0-.834.364 2.757 2.757 0 0 0-.39.26l-.105.08c-.103.103-.286.293-.546.57a8.903 8.903 0 0 1-.573.547c.87.416 1.772.79 2.71 1.118l2.367-2.473a16.995 16.995 0 0 1-2.29-.597m-5.596-1.354l-.467.26a27.9 27.9 0 0 0-.833.522 22.066 22.066 0 0 0 3.774 2.368.312.312 0 0 0-.025-.13c0-.14.18-.374.545-.703a.76.76 0 0 1 .26-.208 8.4 8.4 0 0 1 .6-.494c.12-.07.233-.14.337-.208.208-.14.4-.25.573-.338-.573-.227-1.11-.48-1.614-.756-.172.104-.44.277-.806.52l-.208.156c-.174.14-.33.262-.47.365-.59.416-.91.625-.962.625-.26 0-.39-.087-.39-.26 0-.176.33-.46.988-.86.157-.087.34-.182.547-.286.398-.208.718-.356.96-.442-.38-.225-.744-.46-1.092-.703a1.018 1.018 0 0 1-.183.13 5.862 5.862 0 0 0-.938.184c-.19.087-.388.173-.596.26m-.182-2.317a.348.348 0 0 1-.182.08c-.364.067-.694.137-.99.206a8.67 8.67 0 0 1-.286.053c-.14.052-.356.234-.65.546-.035.053-.174.225-.417.52-.086.09-.156.157-.208.21.348.383.73.738 1.146 1.067a.926.926 0 0 1 .183-.34c.226-.226.564-.426 1.016-.6.155-.052.32-.112.494-.182h.025c.467-.14.884-.208 1.25-.208h.05c-.52-.398-.998-.85-1.432-1.353m-4.008-.884a.528.528 0 0 1-.417.18c.313.59.695 1.182 1.146 1.772.068-.09.138-.13.207-.13.174 0 .373-.105.6-.314.293-.293.502-.467.624-.52.14-.068.27-.138.392-.207.417-.19.73-.313.938-.365a.282.282 0 0 1 .13-.026 13.672 13.672 0 0 1-.808-1.224c-.035.017-.095.054-.182.105a8.626 8.626 0 0 0-.938 0c-.625.053-1.075.182-1.353.39-.09.07-.2.183-.34.34m2.004-2.58c-.468 0-.875.01-1.223.027-.676.035-1.127.12-1.353.26a3.01 3.01 0 0 0-.234.288c-.052.07-.14.112-.26.13-.105 0-.183-.026-.234-.078a9.02 9.02 0 0 0 .623 1.614c.174-.313.747-.564 1.718-.757a5.22 5.22 0 0 1 .443-.077c.296-.035.573-.053.833-.053.122.018.226.036.313.053a16.94 16.94 0 0 1-.626-1.406m-.99-1.743a3.35 3.35 0 0 0-.312-.13 2.674 2.674 0 0 0-1.276 0 10.99 10.99 0 0 1-.34.21c-.017 0-.034.01-.05.024-.243.122-.417.184-.52.184h-.13c.017.607.103 1.204.26 1.796.018-.088.13-.183.338-.288.156-.07.582-.233 1.276-.494l1.56-.078a9.47 9.47 0 0 1-.337-1.248.946.946 0 0 1-.077-.234v.13a.176.176 0 0 1-.053.13c-.05.018-.12.034-.207.053l-.13-.054m.077-2.315l-.078-.025c-.816.38-1.64.57-2.474.57a6.955 6.955 0 0 0-.154 1.46h.025c.33-.087.582-.21.756-.365h.963c.52.018.858.044 1.014.078.104.018.173.07.207.156 0-.07-.008-.14-.024-.21-.103-.538-.18-1.093-.233-1.665z"/><path fill="#FFF" d="M80.207 192.11c.33-1.06.07-2.204-.78-3.437l-4.738-1.328-2.37 2.473-1.796 1.927c.208-.052.052.104-.47.47l.418-.47c-.694.19-4.833-.96-12.416-3.463l-1.692-.39-.39 2.292c7.08 3.695 15.14 5.007 24.182 3.93.452-.764.374-1.415-.234-1.952.085-.017.18-.034.285-.052z"/><path fill="#CBCBCB" d="M72.762 186.54c-.017-.47-.416-.495-1.197-.078a5.55 5.55 0 0 0-.573.338c-.104.07-.217.138-.338.208a8.4 8.4 0 0 0-.6.494.76.76 0 0 0-.26.21c-.364.328-.545.562-.545.7a.297.297 0 0 1 .024.132c.053.12.148.182.287.182.02 0 .037-.01.053-.026.088-.07.278-.25.573-.546.26-.278.443-.47.547-.57l.104-.08c.104-.086.234-.174.39-.26a6.59 6.59 0 0 1 .834-.364 3.9 3.9 0 0 1 .34-.13c.24-.105.362-.175.362-.21m-2.552-.912c0-.208-.2-.242-.6-.104a8.027 8.027 0 0 0-.96.442c-.21.104-.392.2-.548.286-.66.4-.99.685-.99.86 0 .173.13.26.392.26.05 0 .373-.21.963-.625.14-.104.295-.227.47-.365.068-.052.137-.104.207-.155.364-.244.633-.417.807-.52.173-.103.26-.13.26-.08m-5.23.47c.05.12.164.174.337.156l.183-.077a27.9 27.9 0 0 1 .833-.52c.157-.09.312-.175.468-.262.21-.087.41-.173.6-.26.312-.088.624-.147.937-.183.087-.05.148-.095.183-.13a.258.258 0 0 0 .052-.13c0-.154-.173-.242-.52-.26h-.053c-.366 0-.782.07-1.25.208h-.026c-.175.07-.34.13-.495.183-.452.174-.79.374-1.017.6a.918.918 0 0 0-.182.34.754.754 0 0 0-.05.285v.052m1.457-2.94c.086-.02.148-.045.182-.08.034-.018.052-.044.052-.078.017-.02.017-.07 0-.157 0-.227-.148-.313-.442-.26a.29.29 0 0 0-.13.025c-.208.052-.52.174-.938.365-.122.07-.252.14-.39.208-.123.053-.33.227-.626.52-.226.21-.424.314-.6.314-.068 0-.138.042-.207.13a1.223 1.223 0 0 0-.105.415c.018.208.113.312.286.312.105 0 .227-.06.365-.183.052-.053.122-.12.208-.21.243-.295.382-.467.417-.52.294-.312.512-.494.65-.546.104-.018.2-.035.287-.053.296-.066.625-.135.99-.204m-4.244-.782a.528.528 0 0 0 .417-.18c.14-.158.25-.272.338-.34.278-.21.73-.338 1.353-.39.296-.018.608-.018.94 0 .086-.053.146-.09.18-.106 0-.018.01-.024.027-.024a.178.178 0 0 0 .052-.13c0-.09-.088-.148-.262-.184a6.87 6.87 0 0 0-.313-.053c-.26 0-.538.018-.833.053-.14.018-.286.044-.442.077-.972.192-1.544.444-1.718.757a.677.677 0 0 0-.052.26c0 .07.026.13.078.182.053.052.13.078.235.078m2.603-2.863c.034 0 .052-.008.052-.024.052-.053.078-.096.078-.13 0-.035-.018-.07-.052-.105a.41.41 0 0 0-.208-.156h-.234l-1.56.078c-.695.26-1.12.425-1.277.494-.208.105-.32.2-.338.288a.207.207 0 0 0-.027.077c0 .105.027.175.08.21.05.052.128.077.233.077.12-.017.208-.06.26-.13.104-.14.182-.233.234-.287.226-.14.677-.225 1.354-.26.35-.017.755-.026 1.224-.026h.08a.294.294 0 0 0 .102-.103m-.78-1.95a.175.175 0 0 0-.053-.13c-.034-.088-.103-.14-.207-.157-.156-.034-.494-.06-1.015-.078h-.962c-.174.156-.426.278-.755.364h-.025c-.19.068-.288.173-.288.312.02.053.027.096.027.13.05.086.14.14.26.157h.13c.103 0 .277-.063.52-.185.017-.016.034-.025.05-.025.175-.104.287-.173.34-.208a2.674 2.674 0 0 1 1.276 0c.14.052.243.095.313.13l.13.053c.087-.02.156-.035.207-.053a.173.173 0 0 0 .053-.13v-.183z"/><path fill="#003162" d="M58.366 175.37l-.13.367-1.874 11.974.026.026c.573.19 1.128.373 1.667.546 7.583 2.502 11.722 3.654 12.416 3.463h.053l1.797-1.927a26.5 26.5 0 0 1-2.708-1.12.07.07 0 0 1-.052.027c-.14 0-.234-.06-.287-.182a22.105 22.105 0 0 1-3.774-2.368l-.184.077c-.174.018-.286-.035-.338-.156v-.052c0-.104.018-.2.052-.286a9.467 9.467 0 0 1-1.146-1.068c-.138.124-.26.183-.364.183-.173 0-.27-.104-.286-.313.018-.172.052-.31.104-.414-.45-.59-.833-1.182-1.146-1.77-.104 0-.182-.027-.234-.08a.25.25 0 0 1-.078-.182c0-.087.018-.174.052-.26-.26-.52-.47-1.058-.624-1.613-.052-.034-.08-.104-.08-.208a.2.2 0 0 1 .028-.077 7.82 7.82 0 0 1-.26-1.796c-.122-.02-.21-.072-.26-.158a.423.423 0 0 0-.027-.13c0-.14.095-.243.287-.313 0-.486.05-.973.155-1.46-.92 0-1.848-.243-2.786-.73z"/></g><g><path fill="#7297BC" d="M44.596 71.508c-1.683 0-3.116.355-4.294 1.066-1.18.73-1.77 1.6-1.77 2.603 0 1.01.59 1.874 1.77 2.604 1.18.712 2.61 1.067 4.294 1.067 1.684 0 3.115-.355 4.295-1.066 1.18-.73 1.77-1.595 1.77-2.603 0-1.004-.59-1.872-1.77-2.603-1.18-.71-2.61-1.066-4.294-1.066z"/></g><g><path fill="#E2B096" d="M48.89 68.002c-2.68 1.456-5.477 1.385-8.392-.213v6.998c2.797 3.188 5.593 3.188 8.39 0v-6.786z"/><path fill="#AC8675" d="M40.498 67.79c2.915 1.597 5.712 1.67 8.39.212v-5.784H40.5v5.57z"/></g><g><path fill="#010002" d="M19.997 46.1c0-.016.01-.033.026-.05h-.026v.05m-2.265-6.454h-.104l.13.18a.77.77 0 0 1-.026-.18m48.313-27.02l-7.965-.886 6.065 7.81-14.76-6.508L54.8 19.55l-17.128-5 .417 2.397-4.557-1.302.208 3.253-6.507-4.765-7.16 5.208 1.043-3.878a98.404 98.404 0 0 0-2.81 2.447 50.2 50.2 0 0 0-1.667 1.64c-.834.866-1.546 1.7-2.136 2.5-1.024 1.37-1.7 2.653-2.03 3.85.294-.12 1.136-.374 2.524-.754.92-.243 1.63-.53 2.135-.858.12-.087.225-.174.312-.262a.27.27 0 0 0 .078-.052 3.16 3.16 0 0 0-.104.234 2.185 2.185 0 0 0-.13.313l.05.08 2.97 4.084 1.3-4.58 3.255 3.28.442-4.348 1.484 6.56h.026v.157c0 1.042.018 1.822.052 2.342 0 .45.018.86.052 1.224.052.347.096.65.13.91.486-.554 1.146-1.717 1.98-3.487.9-1.944 1.465-3.55 1.69-4.817h.26c.453 1.894 1.346 4.417 2.683 7.576 0-.208.043-.347.13-.417.035-.052.07-.078.104-.078 0-.347.14-1.63.417-3.854.26-2.1.374-3.34.338-3.72 1.18.553 2.1 1.03 2.76 1.43 1.474.902 2.507 1.813 3.096 2.732V24.44c.07.07.156.15.26.235.8.64 2.36 1.778 4.687 3.41 3.072 2.135 4.677 3.29 4.815 3.462l2.212 1.953a14.202 14.202 0 0 0-1.223-3.67c.034-.157-.4-.85-1.302-2.082-.243-.33-.478-.625-.703-.886l-.104-.157c.087.052.19.096.313.13 2.742 1.024 5.154 2.056 7.236 3.1a30.397 30.397 0 0 0-2.682-2.97c-.885-.85-1.622-1.44-2.212-1.768.797.19 2.074.667 3.826 1.43 1.754.748 2.846 1.302 3.28 1.668.434.38 1.207.988 2.316 1.822 1.06.816 1.65 1.292 1.77 1.43l.496.547c-.8-2.83-1.78-4.885-2.942-6.17.747.66 1.7 1.485 2.863 2.474.92.797 1.65 1.484 2.187 2.057.052.033.096.08.13.13.278.293.538.605.78.937a.823.823 0 0 0 .026-.208c.243-1.804.017-3.773-.677-5.908l3.463 7.157a17.926 17.926 0 0 0 1.12-6.222v-.39c.068.053.13.105.182.157l.104.08c.52.19 1.11.598 1.77 1.223a7.468 7.468 0 0 1 1.51 2.186l.26 1.042c.295-.26.338-1.11.13-2.552-.21-1.475-.426-2.63-.652-3.46-.243-.85-.79-2.094-1.64-3.724a8.34 8.34 0 0 0-.86-1.354c-.867-1.11-2.055-2.135-3.565-3.07-1.613-1.025-2.83-1.71-3.644-2.058l4.737 1.354a24.057 24.057 0 0 0-2.732-3.15z"/><path fill="#C69A85" d="M15.702 37.433a1.386 1.386 0 0 1-.08-.26 2.382 2.382 0 0 1-.233-.105 5.844 5.844 0 0 0-.522-.18.57.57 0 0 0-.182-.08.164.164 0 0 1-.078.08c-.78-.314-1.562-.28-2.343.104-.555.277-.998.77-1.328 1.484-.52 1.197-.53 2.637-.026 4.32a9.54 9.54 0 0 0 2.605 4.322c.4.38.807.703 1.224.963.832.538 1.673.807 2.524.807.434 0 .833-.067 1.197-.208.313-.138.6-.338.86-.6.242-.26.45-.58.624-.962.14-.296.234-.6.287-.912a.333.333 0 0 1-.13.078l-.103.052h-.026a.49.49 0 0 1 .027-.155c-.157.278-.46.348-.91.21a.29.29 0 0 1 .052.077.417.417 0 0 0-.132-.026c-.624-.086-1.24-.434-1.848-1.04a5.293 5.293 0 0 1-1.51-2.473c-.295-.972-.287-1.805.026-2.5.156-.346.364-.606.624-.78h.053c.556-.346.98-.346 1.275 0-.45-1.13-1.093-1.867-1.926-2.214m63.23 5.362c.502-1.684.485-3.124-.053-4.32a2.316 2.316 0 0 0-.21-.417c-.554-.92-1.386-1.38-2.498-1.38-.884 0-1.77.304-2.655.912-.313.225-.633.485-.964.78a.81.81 0 0 1-.13.105c-.416.4-.788.833-1.118 1.3.434-.24.868-.363 1.302-.363.73 0 1.25.338 1.562 1.015.312.694.32 1.527.025 2.5a5.574 5.574 0 0 1-1.51 2.47c-.71.714-1.432 1.07-2.16 1.07-.26 0-.495-.045-.704-.132a1.272 1.272 0 0 0-.207-.13c.053.313.148.616.287.912.104.242.226.46.364.65.312.417.686.72 1.12.91.365.14.763.208 1.198.208.988 0 1.987-.373 2.993-1.118.243-.19.494-.408.754-.65a9.706 9.706 0 0 0 2.34-3.542c.087-.26.175-.52.26-.78z"/><path fill="#323232" d="M20.31 28.686L17.34 24.6a32.336 32.336 0 0 0-.57 9.66c.016.05.025.11.025.18.173 1.736.486 3.47.937 5.208 0 .05.01.113.026.18a37.82 37.82 0 0 0 2.24 6.223h1.613c-.103-4.094.66-8.242 2.292-12.44 1.024-2.153 1.987-3.49 2.89-4.01l-1.484-6.56-.442 4.347-3.254-3.28-1.303 4.58m45.554-3.28c.694 2.135.92 4.105.677 5.91 0 .068-.008.138-.025.207-.017.034.166.408.546 1.12.383.71.678 2.038.887 3.983a33.41 33.41 0 0 1-.365 7.887l1.433.052 1.197-7.913c.14-.26.33-.512.573-.755.243-.26.547-.504.912-.73a20.08 20.08 0 0 0-.338-6.352c-.435-2.152-.618-2.83-.548-2.03l-.078-.6-.104-.078a1.747 1.747 0 0 0-.183-.156v.39c0 2.117-.374 4.192-1.12 6.222l-3.463-7.156z"/><path fill="#E2B096" d="M49.96 27.75c.9 1.23 1.335 1.925 1.3 2.08.59 1.216 1 2.44 1.223 3.672L50.27 31.55c-.138-.173-1.742-1.328-4.814-3.463-2.326-1.63-3.887-2.77-4.686-3.41a4.057 4.057 0 0 1-.26-.234v5.154c-.59-.92-1.623-1.83-3.098-2.732-.66-.4-1.58-.877-2.76-1.43.036.38-.077 1.62-.337 3.72-.277 2.223-.417 3.506-.417 3.854-.035 0-.07.025-.104.077-.087.07-.13.208-.13.417-1.337-3.16-2.23-5.683-2.682-7.576h-.26c-.226 1.268-.79 2.873-1.692 4.817-.833 1.77-1.492 2.934-1.98 3.487-.033-.26-.078-.563-.13-.91a13.24 13.24 0 0 1-.05-1.225 38.21 38.21 0 0 1-.053-2.342v-.157h-.025c-.903.52-1.866 1.857-2.89 4.01-1.632 4.2-2.396 8.347-2.29 12.442h-1.59a.083.083 0 0 0-.025.052v-.052a37.787 37.787 0 0 1-2.24-6.222l-.13-.18c-.294-.348-.72-.348-1.274 0H16.3c-.26.172-.468.433-.624.78-.313.693-.32 1.526-.027 2.498a5.285 5.285 0 0 0 1.51 2.472c.607.607 1.224.955 1.848 1.042.035 0 .078.01.13.026a.275.275 0 0 0-.052-.078c.45.14.754.07.91-.208a.5.5 0 0 0-.025.155h.027a5.04 5.04 0 0 0 .104-.052.345.345 0 0 0 .13-.078 3.475 3.475 0 0 1-.286.912c-.173.38-.382.703-.625.963-.26.26-.547.46-.86.598-.364.14-.763.208-1.196.208-.85 0-1.692-.27-2.525-.806a7.625 7.625 0 0 1-1.225-.963 9.554 9.554 0 0 1-2.604-4.322c-.502-1.684-.494-3.124.027-4.32.33-.712.773-1.207 1.328-1.484.78-.38 1.562-.417 2.343-.103a.168.168 0 0 0 .078-.08c.07.02.13.043.182.08.174.05.348.11.52.18.07.037.148.07.235.105.017.087.043.175.08.26.832.347 1.474 1.084 1.925 2.214h.104a34.185 34.185 0 0 1-.937-5.208 3.517 3.517 0 0 0-.364-.18c-1.058-.42-2.082-.567-3.07-.446v-.024a3.823 3.823 0 0 0-.47.078 4.26 4.26 0 0 0-1.04.39c-.713.434-1.286 1.11-1.72 2.03-.745 1.7-.763 3.748-.05 6.142.624 2.17 1.69 4.054 3.2 5.65.157.156.322.313.496.468 1.77 1.7 3.55 2.552 5.336 2.552.798 0 1.492-.165 2.083-.494.156.38.33.762.52 1.145.088.19.183.372.287.546 1.197 2.308 2.795 4.468 4.79 6.48 5.033 5.033 11.107 7.55 18.222 7.55 7.116 0 13.198-2.517 18.25-7.55a32.265 32.265 0 0 0 2.21-2.498 25.188 25.188 0 0 0 3.28-5.49 4.385 4.385 0 0 0 1.692.31c1.805 0 3.583-.85 5.336-2.55.278-.245.54-.505.782-.78a13.7 13.7 0 0 0 2.108-3.15c.33-.695.6-1.414.808-2.16.018 0 .026-.01.026-.028.694-2.343.686-4.346-.026-6.01a.87.87 0 0 1-.052-.132c-.764-1.702-2.047-2.55-3.852-2.55-1.267 0-2.526.433-3.775 1.3-.016.017-.025.043-.025.078-.035 0-.06.018-.078.052a4.43 4.43 0 0 0-.912.73 3.256 3.256 0 0 0-.573.755l-1.197 7.913-1.433-.052c.435-2.62.556-5.25.365-7.887-.208-1.945-.503-3.273-.886-3.984-.38-.71-.562-1.084-.545-1.12a9.807 9.807 0 0 0-.78-.936.46.46 0 0 0-.13-.13c-.538-.573-1.268-1.26-2.187-2.057a192.88 192.88 0 0 1-2.863-2.474c1.162 1.285 2.143 3.34 2.942 6.17L63 31.55c-.122-.14-.712-.615-1.77-1.43-1.11-.834-1.883-1.442-2.317-1.823-.434-.365-1.526-.92-3.28-1.667-1.752-.764-3.028-1.24-3.826-1.43.59.327 1.327.918 2.212 1.768a30.397 30.397 0 0 1 2.68 2.968c-2.082-1.042-4.495-2.074-7.236-3.1a1.252 1.252 0 0 1-.312-.13l.104.158c.225.26.46.555.703.886m28.92 10.725c.537 1.197.554 2.637.05 4.32-.085.26-.172.52-.26.78a9.72 9.72 0 0 1-2.34 3.542c-.262.242-.513.46-.755.65-1.006.745-2.005 1.118-2.993 1.118-.435 0-.833-.067-1.198-.208a2.78 2.78 0 0 1-1.12-.91 3.397 3.397 0 0 1-.364-.65c-.14-.296-.234-.6-.287-.912.07.034.14.078.208.13.21.087.444.13.704.13.73 0 1.45-.354 2.16-1.067a5.583 5.583 0 0 0 1.51-2.472c.296-.972.287-1.805-.025-2.5-.313-.676-.834-1.014-1.563-1.014-.434 0-.868.122-1.302.363.33-.467.703-.9 1.12-1.3a.81.81 0 0 0 .128-.104c.33-.295.65-.555.964-.78.885-.608 1.77-.912 2.655-.912 1.112 0 1.944.46 2.5 1.38.085.14.156.278.207.417z"/><path fill="#633319" d="M60.242 5.492c-.834-.71-2.24-1.353-4.218-1.925-1.995-.574-3.826-.816-5.492-.73-1.667.07-3.81.304-6.43.703-2.48.625-4.398 1.33-5.752 2.108a6.317 6.317 0 0 0-1.223.886c-.018.018-.026.043-.026.078h-.26c.105-.035.2-.06.288-.078.138-.278.32-.573.546-.886.452-.693 1.067-1.518 1.848-2.473A80.936 80.936 0 0 1 42.202 0h-.233a28.873 28.873 0 0 0-10.856 5.647 25.824 25.824 0 0 0-3.54 3.62c-.833.59-.91.025-.234-1.693.295-.747.564-1.39.807-1.927.312-.693.582-1.19.807-1.483-.173 0-.33-.018-.468-.052-.66.52-1.26 1.032-1.797 1.535-2.69 2.585-3.897 5.164-3.62 7.732.053.103.08.207.08.312 0 .068-.495.51-1.484 1.327-.19.156-.373.303-.546.442l-1.042 3.88 7.16-5.21 6.507 4.766-.208-3.253 4.556 1.302-.417-2.396 17.13 5-5.417-6.508 14.76 6.508-6.066-7.81 7.965.885a.98.98 0 0 1-.183-.182c-1.042-.972-2.57-1.952-4.582-2.94-2.03-.99-4.556-1.468-7.575-1.434 1.024-.748 2.02-1.267 2.994-1.563 1.093-.347 1.9-.495 2.42-.442.54.035 1.198.052 1.98.052l-.862-.625z"/></g><g><path fill="#010002" d="M54.067 43.62c-.602-.683-.902-1.503-.902-2.463 0-.96.3-1.78.902-2.463.597-.68 1.317-1.02 2.16-1.02.844 0 1.567.34 2.168 1.02.598.682.896 1.502.896 2.463 0 .96-.297 1.78-.895 2.462-.6.682-1.324 1.02-2.168 1.02-.843 0-1.563-.338-2.16-1.02z"/><path fill="#FFF" d="M54.26 41.42a1.37 1.37 0 0 1-.45-1.037c0-.408.15-.755.45-1.045a1.5 1.5 0 0 1 1.08-.427c.424 0 .788.144 1.09.428.294.29.443.637.443 1.045 0 .407-.15.754-.444 1.037-.302.29-.666.434-1.09.434-.424 0-.784-.144-1.08-.434z"/><path fill="#010002" d="M31.966 43.62c-.602-.683-.903-1.503-.903-2.463 0-.96.3-1.78.903-2.463.596-.68 1.317-1.02 2.16-1.02.844 0 1.568.34 2.17 1.02.596.682.893 1.502.893 2.463 0 .96-.298 1.78-.894 2.462-.602.682-1.326 1.02-2.17 1.02-.843 0-1.564-.338-2.16-1.02z"/><path fill="#FFF" d="M32.16 41.42c-.3-.283-.452-.63-.452-1.037 0-.408.15-.755.45-1.045.298-.284.657-.427 1.082-.427s.786.144 1.088.428c.295.29.443.637.443 1.045 0 .407-.147.754-.442 1.037-.302.29-.663.434-1.088.434s-.784-.144-1.08-.434z"/></g><g><path fill="#000232" d="M40.38 91.03a5.93 5.93 0 0 1-.47.027c-.19.018-.39.018-.598 0l.182-4.035h-2.968c.104 1.458.165 2.594.183 3.41l.13 3.124h2.394l.026-2.108c.104.21.182.363.234.47l.208.52c.086-.052.226-.114.417-.183.154-.07.25-.11.285-.13l.052 1.432h2.187c.052-1.338.086-2.38.104-3.125.086-1.578.147-2.716.182-3.41h-2.76l.21 4.01m8.59-1.25l.103-2.76h-2.108c.087 1.128.138 2.014.155 2.654.035 1.285.052 2.212.052 2.786a.822.822 0 0 1-.338.077c-.347 0-.573-.122-.677-.363-.12-.227-.183-.67-.183-1.33a38.467 38.467 0 0 1 0-2.002c.018-.834.036-1.44.053-1.823h-2.76c.036.78.087 1.64.157 2.577.086 1.022.182 1.727.286 2.108.173.66.468 1.145.885 1.457.486.38 1.19.573 2.11.573.762 0 1.5-.13 2.212-.392 0-1.594.02-2.783.052-3.565m4.763-.05l.183-2.708h-4.45c.085 1.37.138 2.438.154 3.2l.13 3.334h3.8c.053-.26.105-.48.157-.65.07-.33.122-.538.157-.626-.26.052-.443.077-.547.077-.573.035-.963.062-1.17.08l.05-.963h.678c.33.034.538.06.625.076.018-.224.052-.424.104-.597.07-.278.113-.47.13-.574-.694.017-1.197.025-1.51.025l.053-.834c.277.02.538.036.78.054.346.053.572.087.676.105z"/></g><g><path fill="#551314" d="M35.49 51.083c.535-.578 1.458-.545 2.77.1 2.21 1.07 4.686 1.522 7.42 1.36 2.74-.16 4.96-.697 6.655-1.604 1.7-.914 2.55-.194 2.55 2.156 0 2.362-.97 4.372-2.918 6.03-.202.174-.407.34-.617.49-1.755-4.465-7.04-7.31-15.86-8.533z"/><path fill="#BE1E16" d="M34.95 53.096c0-.947.18-1.618.54-2.013 8.82 1.223 14.105 4.068 15.86 8.534-1.825 1.342-3.97 2.012-6.437 2.012-2.75 0-5.097-.836-7.042-2.505-1.947-1.657-2.92-3.667-2.92-6.03z"/></g></g></svg>