<svg xmlns="http://www.w3.org/2000/svg" xmlns:xlink="http://www.w3.org/1999/xlink" width="150" height="382.999" viewBox="-30.75 -161.003 150 382.999"><path fill="#354A59" d="M-30.75-161.002v382.997l150-14.495v-368.503z"/><defs><path id="a" d="M-30.75-161.002v382.997l150-14.495v-368.503z"/></defs><clipPath id="b"><use xlink:href="#a" overflow="visible"/></clipPath><g clip-path="url(#b)"><path fill="#BE947E" d="M54.14 193.907c-1.003-.006-1.85.09-2.54.28 11.817 7.936 20.802 9.73 26.958 5.388-5.19 2.91-13.33 1.02-24.42-5.668z"/><path fill="#E2B096" d="M85.363 180.687c.018 1.364-.02 2.67-.115 3.908-.014.344-.044.69-.094 1.038-.636 7.17-2.834 11.814-6.596 13.94-6.155 4.342-15.14 2.548-26.957-5.388-1.905.625-2.585 2.173-2.043 4.645 23.303 12.903 36.95 10.294 40.94-7.83.293-1.314.537-2.693.738-4.134.28-2.28.458-4.75.532-7.412l-6.392.082c.005.386 0 .767-.012 1.15z"/><path fill="#EDD0C1" d="M79.68 166.12a2.222 2.222 0 0 0-.54-.222l2.588 5.85c2.882.547 4.966 2.472 6.252 5.782.18-2.786-1.635-5.214-5.44-7.282a22.54 22.54 0 0 1-.15.755l-1.487-3.496a2.79 2.79 0 0 0-1.223-1.387m12.643-8.076a1.46 1.46 0 0 0-.078-.295 1.71 1.71 0 0 0-.174-.36 1.65 1.65 0 0 0-1.06-.797 1.75 1.75 0 0 0-1.333.183c-.407.252-.668.61-.787 1.077l-.17.707c.794-1.667 1.994-1.842 3.603-.516m-7.854-.274c-.362.31-.566.702-.61 1.178l-.08.886c.77-1.796 1.908-2.27 3.412-1.428a1.794 1.794 0 0 0-.26-.385 1.69 1.69 0 0 0-1.166-.633c-.48-.046-.913.08-1.297.383m15.018 4.87a1.228 1.228 0 0 0-.174-.064c-.352-.095-.736-.018-1.147.236-.39.253-.71.604-.96 1.05-.06.11-.115.22-.17.335.07-.118.15-.228.23-.328.477-.604 1.15-.954 2.018-1.055.142-.02.285-.028.43-.036a1.124 1.124 0 0 0-.227-.14m-9.026 4.25c-1.943-1.122-3.668-1.44-5.175-.952 3.554 1.087 7.05 2.654 10.49 4.704-.67-1.38-2.22-2.545-4.648-3.5a38.937 38.937 0 0 0-.668-.25m4.24-8.338a1.668 1.668 0 0 0-.776.783c.807-.522 1.73-.676 2.77-.46a1.74 1.74 0 0 0-.662-.4c-.46-.155-.9-.128-1.332.077z"/><path fill="#E2B096" d="M97.15 160.696c.154-.46.116-.908-.108-1.354a1.85 1.85 0 0 0-.345-.466c-1.04-.215-1.964-.063-2.77.46-.04.078-.073.153-.1.23l-2.174 6.588a7.034 7.034 0 0 0-.39-.16c-.11-.04-.22-.082-.333-.116a3.505 3.505 0 0 0-.4-.126l1.756-7.027a1.8 1.8 0 0 0 .036-.68c-1.608-1.326-2.81-1.153-3.605.516l-1.77 7.053c-.065.017-.13.03-.196.048l.592-6.364a1.617 1.617 0 0 0-.153-.89c-1.505-.842-2.642-.367-3.412 1.43l-.66 7.077a.17.17 0 0 1-.023-.082c-.065.442-.125.856-.185 1.25-.125.806-.248 1.53-.37 2.17 3.805 2.068 5.62 4.494 5.44 7.282-1.287-3.31-3.37-5.237-6.252-5.783l-2.587-5.85a1.68 1.68 0 0 0-1.01.046c-.498.178-.833.55-1.012 1.113-.03.103-.053.212-.073.32-.067.473.002.954.21 1.45l3.71 8.69c.044.105.093.203.146.297.157.404.355.81.597 1.208 1.045 1.717 2.536 2.822 4.47 3.32 1.95.502 3.77.248 5.467-.767 1.717-1 2.813-2.46 3.292-4.375l.31-1.224.048-.108 4.66-10.348c.27-.61.362-1.2.272-1.77-.07-.446-.24-.77-.51-.976-.146.007-.287.02-.43.036-.87.1-1.542.45-2.017 1.054-.083.102-.162.21-.232.33l-2.196 4.88c-.02-.032-.036-.062-.05-.085a8.373 8.373 0 0 0-.256-.405c.022-.055.044-.112.064-.174l2.55-7.718m-11.863 5.24c1.508-.488 3.232-.17 5.175.954.23.084.45.168.666.25 2.43.956 3.978 2.122 4.647 3.5-3.44-2.048-6.934-3.616-10.488-4.703zM15.94 190.888c2.486.474 3.63 1.708 3.44 3.696-11.947 7.736-17.14 15.29-15.57 22.658.472 4.295 3.887 8.147 10.24 11.563.3.18.605.347.92.497a44.445 44.445 0 0 0 3.548 1.643c.33.157.68.31 1.05.462l-2.442 5.91c-2.432-1.124-4.634-2.26-6.602-3.41a48.222 48.222 0 0 1-3.51-2.306C-8.092 220.79-5.114 207.22 15.94 190.89z"/><path fill="#BE947E" d="M19.38 194.586c-.08.717-.327 1.53-.744 2.443C8.14 204.592 3.198 211.33 3.81 217.24c-1.57-7.368 3.622-14.92 15.57-22.656z"/><path fill="#BF9580" d="M17.013 250.25l-.187.81-2.926-4.936c.052-.272.11-.554.17-.847l2.943 4.974m9.81-10.58c.524 1.596.08 2.477-1.328 2.645l-3.43-2.362c1.364-.915 2.177-2.167 2.438-3.752l2.32 3.47z"/><path fill="#E2B096" d="M16.05 254.227l-.184.16c-1.82 1.494-2.823 1.032-3.003-1.388.124-1.35.302-2.713.537-4.096.146-.925.312-1.853.5-2.78l2.926 4.938-.776 3.165m3.222-1.713a6.002 6.002 0 0 1-.988-.112l-1.27-2.15-2.94-4.97.01-.025a98.03 98.03 0 0 1 .805-3.453c.28-1.007.45-2.227.508-3.66.093-1.422 1.093-3.718 2.995-6.892.844-.282 1.647-.366 2.406-.247 1.412.21 2.645 1.132 3.704 2.77.128.883.128 1.69 0 2.428-.26 1.585-1.072 2.837-2.435 3.752a4.17 4.17 0 0 0-.318.194c-.547.325-1.168.61-1.862.855-.222.066-.45.13-.672.195l-.85 3.49 2.6 5.866c.005 1.183-.488 1.827-1.476 1.933a.934.934 0 0 1-.192-.11l-.028.134z"/><path fill="#D2A48B" d="M18.282 252.4c.364.07.695.108.987.113l-.138.98c-1.013 1.59-2.1 1.89-3.267.895l.184-.16.776-3.166.187-.81 1.27 2.15z"/><path fill="#7297BC" d="M26.67 198.872l-.657 4.945 1.693-6.448-10.9-.356.655 3.306 9.21-1.448m24.37 0l5.573 7.158 1.447-2.705-9.262-6.694 2.924 6.775-.683-4.533z"/><path fill="#95BFE6" d="M28.936 183.517l-13.853 5.11 1.722 8.387 10.9.355-1.692 6.447-4.316 32.24c19.636 1.092 31.038.663 34.206-1.286l-4.18-31.365-2.923-6.774 9.263 6.695 4.37-7.98-13.66-11.446-19.837-.383z"/><path fill="#00122A" d="M54.564 237.888v-3.278l-31.53.572c-.145.873-.29 1.76-.437 2.65-2.37 15.008-3.133 29.808-2.296 44.396.038.474.067.957.084 1.45.164 2.368.638 5.755 1.42 10.164v.027a6.11 6.11 0 0 0 2.624.49c.964-.055 1.92-.354 2.87-.9a.74.74 0 0 0 .163-.083c-.364-5.138-.59-8.55-.683-10.246a7.603 7.603 0 0 1-.054-.9c-.62-11.838.545-24.124 3.498-36.856l17.158-.85 3.826 36.477 1.393 11.23c1.512 1.367 3.25 1.193 5.218-.52l-3.25-53.822z"/><g><path fill="#CBCBCB" d="M13.39 306.165c.345.09.637.2.874.327.164.07.3.153.41.247.02 0 .055.024.108.078.128.094.337.284.628.574.31.293.51.473.6.547l.056.027c.165 0 .263-.073.3-.22v-.137c0-.127-.19-.365-.574-.71a1.99 1.99 0 0 0-.272-.22c-.218-.162-.438-.318-.656-.463a5.77 5.77 0 0 1-.354-.22 6.827 6.827 0 0 0-.63-.327c-.836-.4-1.254-.354-1.254.136 0 .036.136.11.41.22.09.037.21.084.354.14m3.005-.82c.072.035.146.08.22.136.2.127.38.246.545.356.64.4.976.6 1.01.6.275 0 .412-.09.412-.272 0-.184-.355-.456-1.066-.82-.183-.11-.382-.218-.6-.33a7.07 7.07 0 0 0-1.013-.407c-.418-.13-.628-.084-.628.135 0-.034.09-.008.272.084.184.088.465.26.848.515m4.317-.684a.824.824 0 0 0-.218-.353c-.237-.22-.6-.41-1.094-.574a2.974 2.974 0 0 0-.546-.162c-.51-.128-.956-.18-1.338-.165h-.027c-.366.037-.548.138-.548.302 0 .02.02.055.056.108.054.038.127.083.217.138.31.02.63.074.956.165.22.055.44.135.657.243.164.076.337.156.52.248.4.22.692.372.873.463l.192.14c.2 0 .31-.074.328-.22l.026-.056c0-.107-.017-.2-.054-.273m-1.285-3.276c-.054 0-.1-.01-.136-.028-.308-.035-.463.075-.463.33 0 .07.01.118.027.137 0 .035.02.063.055.08.036.038.108.064.218.082.365.055.7.108 1.01.164.11.018.21.025.3.025.165.056.4.236.71.547.038.056.193.228.465.52.09.092.182.173.273.245.128.11.246.164.355.164.184 0 .275-.108.275-.327-.02-.198-.065-.346-.137-.437-.055-.09-.127-.136-.218-.136-.182 0-.392-.102-.63-.302-.307-.273-.535-.456-.682-.546a12.49 12.49 0 0 1-.41-.164c-.455-.182-.79-.3-1.01-.354m2.486-1.694c-.146-.02-.29-.037-.437-.056a3.44 3.44 0 0 0-.874 0 .877.877 0 0 0-.33.056c-.18.034-.272.1-.272.19 0 .037.028.082.083.138v.026c.037.02.1.055.19.108.367-.035.694-.054.986-.054.655.02 1.128.138 1.42.355.11.072.237.18.383.328.128.11.283.162.464.162.09 0 .173-.023.245-.08a.336.336 0 0 0 .056-.193c0-.09-.02-.17-.056-.244-.2-.346-.82-.59-1.858-.736m1.667-1.314c.056.056.13.147.22.274.073.072.18.11.327.11.09 0 .164-.03.22-.08a.307.307 0 0 0 .08-.22c0-.02-.008-.036-.026-.056-.036-.094-.164-.193-.38-.302-.166-.07-.612-.226-1.34-.463h-1.886a.323.323 0 0 0-.218.16.328.328 0 0 0-.054.11c0 .056.02.102.054.138.02 0 .046.02.082.054.037.02.083.047.136.084h.054a16.7 16.7 0 0 1 1.284-.057c.71.02 1.193.102 1.45.246m1.283-2.186c0-.146-.1-.254-.3-.327h-.027c-.346-.072-.62-.19-.82-.356-.4.02-.738.048-1.01.083-.547.02-.903.056-1.067.11-.11.02-.18.07-.217.163a.342.342 0 0 0-.03.162v.165c0 .055.03.092.084.11.037.034.1.054.19.054.02 0 .065-.02.137-.055.09-.02.21-.065.355-.14.2-.07.417-.107.655-.107.2 0 .418.01.656.026.055.055.183.126.382.22.02.016.037.025.055.025.237.108.41.162.52.162h.163c.128-.035.21-.1.246-.19a.2.2 0 0 0 .03-.107z"/><path fill="#00254D" d="M14.263 306.492a4.01 4.01 0 0 0-.874-.327c-.147-.055-.266-.102-.357-.137-.746.29-1.55.535-2.405.736l2.623 2.46c.967-.382 1.886-.81 2.76-1.285-.09-.075-.29-.255-.6-.548-.292-.29-.502-.48-.63-.574-.052-.054-.09-.08-.108-.08a1.57 1.57 0 0 0-.41-.246m5.083-1.885a13.678 13.678 0 0 0-.52-.247 3.06 3.06 0 0 0-.655-.243 4.503 4.503 0 0 0-.955-.165 3.67 3.67 0 0 1-.218-.138c-.347.275-.71.54-1.094.794.254.07.592.21 1.012.41.218.11.418.22.6.327.71.365 1.067.638 1.067.82s-.136.272-.41.272c-.037 0-.373-.198-1.012-.6-.163-.11-.346-.23-.546-.355a1.364 1.364 0 0 0-.22-.138c-.382-.254-.663-.428-.847-.517a15.76 15.76 0 0 1-1.667.845c.2.093.41.2.63.328.108.073.227.147.353.22.218.146.438.3.656.463.107.074.2.146.27.22.384.344.575.583.575.71v.137a20.485 20.485 0 0 0 3.852-2.68 35.91 35.91 0 0 1-.872-.463m-.217-2.623c-.11-.02-.183-.044-.22-.082a12.51 12.51 0 0 1-1.42 1.502h.027c.382-.016.83.037 1.338.166.182.035.364.09.546.162.492.164.855.354 1.093.574.11.11.183.23.218.354.42-.38.812-.772 1.176-1.175a2.855 2.855 0 0 1-.273-.244 7.485 7.485 0 0 1-.464-.52c-.312-.31-.547-.49-.71-.545-.092 0-.192-.01-.3-.027-.313-.055-.648-.11-1.012-.164m1.146-1.83a2.912 2.912 0 0 0-.19-.11c-.237.458-.502.895-.793 1.31.038.02.084.028.137.028a9.01 9.01 0 0 1 1.01.356c.128.054.264.108.41.162.147.092.374.274.684.547.24.2.448.302.63.302.09 0 .163.044.218.135.455-.655.837-1.302 1.147-1.942a.7.7 0 0 1-.464-.16 2.454 2.454 0 0 0-.382-.33c-.29-.218-.765-.336-1.42-.355-.292.002-.62.018-.984.055m3.525-1.503a2.503 2.503 0 0 0-.22-.274c-.254-.146-.737-.226-1.446-.244-.382 0-.81.02-1.285.056a14.8 14.8 0 0 1-.574 1.504c.09-.037.2-.057.328-.057.255-.037.547-.037.874 0l.437.057c1.04.145 1.66.39 1.858.736a9.346 9.346 0 0 0 .574-1.748.305.305 0 0 1-.218.082c-.15-.002-.257-.04-.33-.112m.737-2.785h.028a8.966 8.966 0 0 0-.246-1.53c-.876.052-1.75-.1-2.624-.465h-.083a13.79 13.79 0 0 1-.164 1.775.97.97 0 0 0-.026.22c.036-.093.107-.146.218-.164.163-.055.52-.092 1.066-.11.272-.034.61-.063 1.01-.082.2.165.473.283.82.357m.053.627h-.163c-.11 0-.283-.056-.52-.163-.017 0-.035-.012-.054-.028-.2-.092-.327-.164-.38-.218a7.815 7.815 0 0 0-.657-.028c-.238 0-.457.037-.656.11-.146.072-.264.118-.355.138a.497.497 0 0 1-.136.054c-.092 0-.155-.02-.192-.054-.054-.02-.083-.057-.083-.11v-.136a.65.65 0 0 0-.054.246c-.09.455-.2.9-.328 1.338h1.667c.728.238 1.174.392 1.34.464.217.108.345.207.38.302.13-.642.19-1.278.19-1.916z"/><path fill="#FFF" d="M30.41 308.868l-.518-2.403-1.75.49c-7.85 2.97-12.14 4.373-12.868 4.21l.465.462c-.585-.344-.757-.5-.52-.463l-1.968-1.938-2.623-2.46-4.893 1.61c-.837 1.33-1.056 2.542-.656 3.635.092 0 .19.01.302.028-.638.583-.693 1.264-.164 2.048 9.528.728 17.925-1.008 25.193-5.218z"/><path fill="#003162" d="M27.19 293.432c-.95.565-1.906.865-2.87.902.127.51.21 1.02.246 1.53.2.07.3.18.3.326 0 .037-.01.074-.028.11-.037.09-.12.154-.246.19 0 .638-.063 1.274-.19 1.914.02.02.027.036.027.055 0 .09-.028.16-.083.22a9.444 9.444 0 0 1-.574 1.747.523.523 0 0 1 .056.242c0 .075-.02.137-.057.19a.378.378 0 0 1-.245.083 14.53 14.53 0 0 1-1.147 1.94c.074.092.12.24.138.438 0 .22-.09.33-.274.33-.108 0-.228-.055-.355-.165-.365.402-.756.794-1.176 1.175a.6.6 0 0 1 .055.272l-.027.056c-.02.146-.128.22-.328.22l-.19-.14a20.63 20.63 0 0 1-3.853 2.68c-.037.146-.135.22-.3.22l-.054-.027c-.875.475-1.794.902-2.76 1.286l1.968 1.938h.054c.73.164 5.02-1.24 12.87-4.208a48.84 48.84 0 0 0 1.692-.654h.054l-2.513-12.485-.194-.385z"/></g><g><path fill="#00254D" d="M66.995 303.46a3.97 3.97 0 0 0-.354.138 6.878 6.878 0 0 0-.874.38c-.164.093-.3.185-.41.273l-.11.085c-.11.11-.3.308-.573.6-.308.31-.51.5-.602.573.912.438 1.86.83 2.843 1.175l2.486-2.596a17.854 17.854 0 0 1-2.405-.627m-5.874-1.42l-.49.272c-.418.256-.71.438-.874.547a23.162 23.162 0 0 0 3.96 2.484.304.304 0 0 0-.026-.137c0-.146.192-.392.573-.737a.83.83 0 0 1 .273-.22c.2-.18.41-.354.628-.52a6.32 6.32 0 0 0 .354-.217c.22-.146.42-.264.602-.354a14.965 14.965 0 0 1-1.694-.795c-.182.11-.464.29-.847.547l-.22.163c-.182.146-.347.275-.492.383-.62.437-.957.656-1.01.656-.273 0-.41-.092-.41-.273 0-.184.345-.483 1.037-.9.164-.092.355-.19.574-.302a8.382 8.382 0 0 1 1.008-.464c-.4-.235-.782-.483-1.147-.738-.036.037-.1.082-.19.138-.33.037-.657.1-.985.19a18.33 18.33 0 0 1-.624.275m-.19-2.433a.388.388 0 0 1-.19.083c-.383.07-.73.145-1.04.217-.09.02-.19.037-.3.056-.147.056-.374.246-.684.573-.036.056-.183.236-.438.546-.09.093-.163.164-.218.22.366.402.766.774 1.203 1.12.037-.128.1-.245.19-.355.24-.238.593-.447 1.068-.63.165-.055.336-.117.52-.19h.027c.49-.146.928-.22 1.312-.22h.054a9.946 9.946 0 0 1-1.505-1.42m-4.208-.927a.553.553 0 0 1-.438.19c.328.618.73 1.238 1.202 1.857.073-.093.146-.138.218-.138.184 0 .392-.11.63-.33.308-.308.527-.49.655-.544.145-.074.28-.146.41-.22.437-.2.765-.327.984-.383a.292.292 0 0 1 .136-.026c-.31-.42-.592-.85-.85-1.286l-.19.112a8.512 8.512 0 0 0-.985 0c-.656.055-1.127.19-1.42.41a3.32 3.32 0 0 0-.353.358m2.104-2.708c-.49 0-.918.01-1.283.028-.71.036-1.184.127-1.422.272a3.28 3.28 0 0 0-.244.302c-.055.073-.146.118-.273.136-.11 0-.192-.026-.245-.08.162.583.38 1.147.655 1.693.182-.328.784-.592 1.803-.794.164-.035.318-.064.463-.083.31-.037.6-.055.873-.055.128.018.238.037.33.055a17.83 17.83 0 0 1-.657-1.475m-1.04-1.83a3.5 3.5 0 0 0-.327-.135 2.792 2.792 0 0 0-1.34 0c-.056.036-.174.11-.356.218-.02 0-.037.01-.054.027-.255.127-.438.192-.547.192h-.135c.02.638.11 1.263.273 1.885.02-.094.138-.192.356-.303.163-.072.61-.244 1.34-.52l1.638-.082a9.822 9.822 0 0 1-.355-1.31.96.96 0 0 1-.08-.246v.137c0 .054-.02.1-.057.136-.054.02-.125.036-.217.056l-.14-.057m.083-2.43l-.083-.028c-.856.4-1.722.602-2.596.602-.11.51-.162 1.02-.162 1.53h.027c.345-.092.61-.22.792-.383h1.01c.546.02.902.046 1.065.082.11.02.183.072.217.164 0-.074-.01-.146-.026-.22a18.118 18.118 0 0 1-.245-1.748z"/><path fill="#FFF" d="M75.192 309.087c.348-1.11.074-2.313-.82-3.606l-4.97-1.393-2.487 2.596-1.886 2.022c.217-.055.053.11-.493.493l.438-.493c-.73.2-5.073-1.01-13.032-3.636l-1.776-.41-.41 2.406c7.432 3.878 15.893 5.256 25.382 4.124.474-.802.392-1.484-.247-2.048.09-.018.19-.036.3-.055z"/><path fill="#CBCBCB" d="M67.378 303.24c-.02-.49-.437-.52-1.256-.08-.182.09-.382.21-.602.354a6.705 6.705 0 0 1-.354.218 9.01 9.01 0 0 0-.628.52.82.82 0 0 0-.273.22c-.382.345-.573.59-.573.736.02.036.027.082.027.137.054.127.154.192.3.192.02 0 .038-.01.054-.028.092-.073.292-.264.602-.573.272-.293.464-.492.574-.6l.11-.085c.108-.09.245-.18.41-.272.237-.127.528-.254.875-.38.128-.058.245-.102.354-.14.25-.108.378-.182.378-.22m-2.68-.956c0-.218-.21-.253-.627-.11-.254.09-.59.247-1.008.465-.22.11-.41.21-.574.3-.692.418-1.038.72-1.038.902 0 .182.136.273.41.273.054 0 .392-.22 1.01-.656.147-.11.312-.24.494-.384.072-.055.145-.11.218-.163.38-.257.664-.437.847-.547.178-.107.27-.136.27-.082m-5.49.493c.053.127.172.183.353.163l.192-.08c.164-.11.456-.292.874-.548.164-.093.327-.183.49-.273.218-.093.428-.183.628-.273.328-.093.656-.155.984-.192.09-.056.156-.1.192-.138a.265.265 0 0 0 .055-.137c0-.16-.183-.255-.548-.273h-.055c-.383 0-.82.073-1.312.22h-.026c-.186.07-.356.136-.52.19-.475.183-.83.392-1.068.63a.968.968 0 0 0-.19.355.79.79 0 0 0-.053.355m1.53-3.087a.388.388 0 0 0 .19-.083c.037-.02.056-.047.056-.082.018-.02.018-.073 0-.164 0-.237-.155-.328-.463-.272a.31.31 0 0 0-.136.026c-.218.056-.547.184-.985.383a9.454 9.454 0 0 1-.41.22c-.128.054-.347.236-.656.545-.238.22-.445.328-.63.328-.07 0-.145.045-.217.138-.055.11-.09.254-.11.435.02.22.12.33.3.33.11 0 .238-.064.382-.192.055-.055.128-.127.218-.22.255-.31.402-.49.438-.545.31-.327.538-.52.683-.573.11-.02.21-.037.302-.056.31-.07.654-.144 1.038-.216m-4.455-.82a.554.554 0 0 0 .438-.19 3 3 0 0 1 .355-.356c.292-.22.766-.355 1.42-.41.31-.02.637-.02.984 0 .09-.055.155-.094.19-.11 0-.02.01-.025.028-.025a.186.186 0 0 0 .055-.138c0-.093-.09-.154-.274-.193a6.04 6.04 0 0 0-.328-.056 7.4 7.4 0 0 0-.874.055c-.146.02-.3.047-.463.08-1.02.202-1.62.467-1.803.795a.707.707 0 0 0-.055.272c0 .073.028.136.082.19.054.055.135.082.245.082m2.73-3.005c.037 0 .057-.01.057-.027.054-.055.08-.1.08-.137s-.017-.072-.053-.11a.44.44 0 0 0-.22-.164h-.244l-1.64.082a38.21 38.21 0 0 0-1.338.52c-.218.11-.336.21-.355.302a.213.213 0 0 0-.028.08c0 .11.028.184.083.22.053.055.135.08.245.08.127-.017.218-.062.273-.135.11-.146.19-.245.245-.302.24-.146.71-.236 1.423-.272.365-.018.79-.027 1.283-.027h.083a.318.318 0 0 0 .106-.108m-.818-2.05c0-.055-.02-.1-.056-.136-.035-.093-.108-.147-.217-.165-.163-.037-.518-.064-1.065-.082h-1.01c-.184.164-.448.29-.793.382h-.026c-.2.072-.302.182-.302.328a.4.4 0 0 1 .03.137c.052.09.145.146.27.165h.137c.11 0 .292-.064.547-.193.018-.017.036-.026.054-.026.182-.11.3-.18.355-.218a2.744 2.744 0 0 1 1.34 0c.147.054.256.1.33.136l.136.057c.09-.02.164-.036.217-.056a.18.18 0 0 0 .056-.136v-.193z"/><path fill="#003162" d="M52.268 291.52l-.136.383-1.967 12.568.027.027c.6.2 1.184.392 1.75.572 7.96 2.626 12.303 3.835 13.032 3.635h.054l1.886-2.022a28.074 28.074 0 0 1-2.842-1.175.07.07 0 0 1-.054.026c-.146 0-.246-.063-.3-.19a23.123 23.123 0 0 1-3.962-2.485l-.192.08c-.183.02-.3-.037-.354-.164v-.055c0-.108.02-.21.054-.3-.438-.344-.837-.72-1.203-1.12-.144.13-.272.192-.38.192-.182 0-.283-.108-.3-.328a1.27 1.27 0 0 1 .108-.435 13.61 13.61 0 0 1-1.202-1.86c-.11 0-.19-.026-.246-.082a.265.265 0 0 1-.082-.192c0-.09.02-.183.055-.27a9.498 9.498 0 0 1-.655-1.696c-.055-.036-.083-.11-.083-.22a.2.2 0 0 1 .028-.08 8.305 8.305 0 0 1-.273-1.885c-.128-.02-.22-.075-.272-.165a.42.42 0 0 0-.03-.137c0-.146.103-.255.303-.328 0-.51.055-1.02.164-1.53-.967 0-1.94-.256-2.926-.766z"/></g><g><path fill="#7297BC" d="M37.816 182.506c-1.767 0-3.27.373-4.508 1.12-1.24.766-1.858 1.677-1.858 2.73 0 1.06.62 1.967 1.858 2.733 1.238.745 2.74 1.118 4.508 1.118s3.27-.373 4.508-1.12c1.238-.766 1.857-1.674 1.857-2.73s-.618-1.967-1.856-2.733c-1.24-.746-2.74-1.12-4.508-1.12z"/></g><g><path fill="#E2B096" d="M42.32 178.826c-2.81 1.53-5.746 1.453-8.805-.223v7.344c2.934 3.348 5.87 3.348 8.805 0v-7.12z"/><path fill="#AC8675" d="M33.515 178.603c3.06 1.676 5.994 1.752 8.805.223v-6.072h-8.805v5.85z"/></g><g><path fill="#010002" d="M11.996 155.84c0-.018.01-.036.027-.055h-.027v.056m-2.377-6.774h-.11l.135.19a.877.877 0 0 1-.026-.19m50.707-28.36l-8.36-.93 6.366 8.197-15.492-6.83 5.685 6.83-17.978-5.247.438 2.514-4.782-1.366.22 3.414-6.832-5-7.513 5.466 1.093-4.07c-1.166.98-2.15 1.838-2.95 2.567a51.352 51.352 0 0 0-1.75 1.722 27.078 27.078 0 0 0-2.24 2.624c-1.075 1.438-1.786 2.786-2.13 4.042.308-.124 1.19-.393 2.647-.79.966-.257 1.712-.556 2.24-.9.128-.092.238-.184.33-.276a.277.277 0 0 0 .08-.055 3.483 3.483 0 0 0-.11.246c-.054.11-.1.22-.135.328l.054.083 3.116 4.287 1.367-4.807 3.414 3.442.464-4.563 1.557 6.885h.026v.165c0 1.094.02 1.912.056 2.458 0 .473.02.902.054 1.284.055.365.102.683.136.956.51-.58 1.203-1.802 2.078-3.66.947-2.04 1.54-3.725 1.776-5.056h.272c.475 1.987 1.412 4.637 2.815 7.952 0-.22.045-.365.136-.438.037-.055.073-.082.11-.082 0-.364.145-1.71.437-4.046.273-2.202.393-3.505.354-3.905 1.238.58 2.204 1.083 2.896 1.502 1.55.947 2.632 1.903 3.25 2.868v-5.41a4.5 4.5 0 0 0 .274.246c.837.673 2.477 1.867 4.918 3.58 3.225 2.24 4.91 3.453 5.054 3.634l2.322 2.05a14.953 14.953 0 0 0-1.283-3.854c.036-.163-.42-.893-1.367-2.184-.255-.348-.5-.656-.738-.93-.036-.057-.072-.11-.11-.165.09.055.2.102.328.137 2.878 1.074 5.41 2.158 7.595 3.253a32.023 32.023 0 0 0-2.813-3.115c-.93-.892-1.703-1.513-2.322-1.857.836.2 2.176.7 4.015 1.503 1.842.785 2.988 1.366 3.443 1.75.456.4 1.267 1.038 2.43 1.913 1.112.856 1.73 1.356 1.86 1.502l.52.572c-.84-2.97-1.87-5.127-3.088-6.476.783.695 1.785 1.56 3.004 2.598.964.836 1.73 1.558 2.296 2.16.054.033.1.082.136.136.292.308.565.635.82.982a.896.896 0 0 0 .025-.218c.254-1.894.018-3.96-.71-6.2l3.633 7.51a18.81 18.81 0 0 0 1.175-6.53v-.407c.073.055.136.11.19.163l.11.083c.547.2 1.167.63 1.858 1.286a7.836 7.836 0 0 1 1.586 2.294l.272 1.094c.31-.273.356-1.167.136-2.68-.218-1.548-.446-2.76-.684-3.632-.255-.893-.83-2.196-1.72-3.908a8.802 8.802 0 0 0-.903-1.42c-.912-1.166-2.158-2.24-3.743-3.225-1.693-1.073-2.97-1.794-3.825-2.158l4.974 1.42a24.766 24.766 0 0 0-2.863-3.302z"/><path fill="#C69A85" d="M7.49 146.743a1.473 1.473 0 0 1-.084-.273 2.283 2.283 0 0 1-.245-.11 6.323 6.323 0 0 0-.546-.188.616.616 0 0 0-.19-.084.172.172 0 0 1-.083.084c-.82-.33-1.64-.293-2.458.11-.583.29-1.048.808-1.394 1.557-.547 1.255-.556 2.767-.028 4.532a10.008 10.008 0 0 0 2.734 4.536c.418.4.846.737 1.284 1.01.874.563 1.757.846 2.65.846.455 0 .875-.07 1.256-.217.328-.145.628-.355.9-.63.256-.27.476-.608.657-1.01.147-.31.247-.63.303-.956a.35.35 0 0 1-.137.083c-.037.02-.074.036-.11.055h-.026a.5.5 0 0 1 .027-.162c-.165.29-.483.362-.957.217.02.02.037.045.057.082a.44.44 0 0 0-.14-.026c-.654-.094-1.3-.458-1.938-1.096a5.56 5.56 0 0 1-1.587-2.593c-.31-1.02-.3-1.894.028-2.622.165-.364.383-.638.656-.818h.057c.583-.365 1.028-.365 1.337 0-.473-1.19-1.147-1.964-2.02-2.327m66.363 5.627c.528-1.767.51-3.278-.056-4.534a2.413 2.413 0 0 0-.218-.438c-.583-.965-1.457-1.448-2.624-1.448-.927 0-1.857.32-2.786.958-.33.235-.665.51-1.012.82a.85.85 0 0 1-.136.107c-.438.42-.827.875-1.174 1.365.455-.253.91-.38 1.366-.38.765 0 1.312.353 1.64 1.065.328.728.336 1.602.027 2.62a5.85 5.85 0 0 1-1.585 2.596c-.745.75-1.502 1.12-2.267 1.12a1.91 1.91 0 0 1-.738-.136 1.274 1.274 0 0 0-.22-.137c.057.328.157.646.303.957.108.255.236.482.382.683.327.436.72.756 1.174.954a3.46 3.46 0 0 0 1.257.22c1.037 0 2.086-.393 3.142-1.173.254-.2.518-.428.79-.683a10.176 10.176 0 0 0 2.458-3.718c.092-.27.185-.543.275-.816z"/><path fill="#323232" d="M12.324 137.562l-3.116-4.287c-.71 3.37-.91 6.748-.6 10.137a.6.6 0 0 1 .027.19c.18 1.822.51 3.644.984 5.467 0 .053.008.118.025.188a39.66 39.66 0 0 0 2.35 6.53h1.695c-.11-4.298.692-8.65 2.404-13.06 1.074-2.258 2.086-3.66 3.033-4.208l-1.557-6.885-.464 4.563-3.415-3.442-1.366 4.806m47.814-3.44c.73 2.24.964 4.307.71 6.2a.97.97 0 0 1-.026.22c-.02.034.174.427.573 1.173.4.746.71 2.14.93 4.183a34.99 34.99 0 0 1-.383 8.276l1.505.056 1.255-8.306a3.44 3.44 0 0 1 .602-.792c.255-.274.574-.53.958-.766.237-2.223.12-4.443-.354-6.668-.456-2.258-.648-2.97-.574-2.13l-.082-.63-.11-.083a1.81 1.81 0 0 0-.19-.162v.408c0 2.224-.394 4.4-1.176 6.53l-3.638-7.508z"/><path fill="#E2B096" d="M43.444 136.58c.947 1.29 1.402 2.02 1.366 2.185a14.924 14.924 0 0 1 1.284 3.853l-2.322-2.05c-.146-.18-1.83-1.394-5.054-3.634-2.44-1.712-4.08-2.907-4.918-3.58-.11-.09-.2-.173-.274-.245v5.41c-.618-.967-1.702-1.922-3.25-2.868-.692-.42-1.658-.922-2.896-1.503.037.4-.082 1.702-.354 3.904-.29 2.334-.438 3.68-.438 4.046-.037 0-.073.027-.11.082-.09.073-.135.218-.135.438-1.403-3.315-2.34-5.966-2.815-7.952h-.272c-.238 1.33-.83 3.016-1.776 5.057-.874 1.857-1.566 3.08-2.078 3.66-.035-.273-.082-.592-.136-.957-.035-.382-.054-.81-.054-1.284-.037-.547-.055-1.364-.055-2.458v-.165h-.026c-.946.548-1.958 1.95-3.032 4.21-1.712 4.407-2.515 8.76-2.404 13.06h-1.667c-.018.018-.026.035-.027.053v-.054a39.76 39.76 0 0 1-2.35-6.53l-.137-.19c-.31-.365-.755-.365-1.337 0H8.12c-.273.182-.492.455-.656.82-.328.727-.336 1.6-.028 2.62.29 1.02.82 1.886 1.586 2.595.637.637 1.284 1.002 1.94 1.093.036 0 .08.01.138.027a.297.297 0 0 0-.057-.08c.474.145.792.07.957-.22a.52.52 0 0 0-.027.163H12a3.7 3.7 0 0 0 .11-.055c.054-.02.1-.047.136-.082a3.67 3.67 0 0 1-.302.958c-.18.4-.4.738-.656 1.01a2.92 2.92 0 0 1-.9.627c-.383.148-.803.22-1.257.22-.893 0-1.775-.283-2.65-.847a7.78 7.78 0 0 1-1.283-1.01 10.04 10.04 0 0 1-2.734-4.536c-.528-1.767-.52-3.278.028-4.534.348-.747.812-1.267 1.395-1.557.82-.4 1.64-.437 2.46-.108a.18.18 0 0 0 .08-.084c.073.02.138.045.192.084.183.053.365.117.547.188.073.04.154.074.245.11.017.092.044.184.082.273.874.363 1.548 1.138 2.02 2.324h.11a35.733 35.733 0 0 1-.983-5.468 3.847 3.847 0 0 0-.382-.19c-1.112-.44-2.187-.594-3.225-.467v-.024c-.164.015-.33.043-.492.08-.38.09-.745.226-1.092.41-.747.454-1.35 1.166-1.804 2.13-.783 1.785-.802 3.935-.054 6.445.656 2.277 1.776 4.256 3.36 5.93.165.164.338.328.52.49 1.858 1.786 3.726 2.68 5.602 2.68.837 0 1.566-.173 2.186-.52.164.4.346.8.546 1.202.092.2.192.392.3.574 1.257 2.423 2.934 4.69 5.03 6.804 5.28 5.28 11.656 7.924 19.124 7.924 7.468 0 13.852-2.643 19.154-7.924a33.86 33.86 0 0 0 2.32-2.624 26.403 26.403 0 0 0 3.443-5.762c.528.218 1.12.327 1.775.327 1.894 0 3.76-.894 5.6-2.68a9.31 9.31 0 0 0 .822-.816 14.357 14.357 0 0 0 2.212-3.307c.347-.73.63-1.483.85-2.267.018 0 .026-.012.026-.03.73-2.458.72-4.56-.027-6.308a.918.918 0 0 1-.055-.138c-.8-1.786-2.148-2.678-4.042-2.678-1.33 0-2.652.456-3.962 1.366-.018.018-.027.045-.027.082-.037 0-.064.02-.082.055-.383.236-.7.49-.958.766-.255.256-.454.52-.602.793l-1.255 8.306-1.505-.057c.457-2.748.584-5.51.383-8.276-.218-2.042-.528-3.437-.93-4.183-.4-.746-.59-1.138-.573-1.174a10.11 10.11 0 0 0-.82-.983.483.483 0 0 0-.136-.137c-.565-.602-1.332-1.32-2.297-2.16a183.14 183.14 0 0 1-3.004-2.596c1.218 1.35 2.248 3.507 3.086 6.477l-.52-.572c-.13-.146-.748-.646-1.86-1.502-1.165-.874-1.974-1.513-2.43-1.912-.455-.384-1.6-.966-3.443-1.75-1.84-.802-3.178-1.302-4.015-1.502.62.344 1.392.965 2.322 1.856.946.91 1.884 1.948 2.813 3.115-2.185-1.094-4.718-2.177-7.595-3.252a1.303 1.303 0 0 1-.327-.136c.037.055.074.108.11.164.233.276.48.584.734.932m30.354 11.256c.565 1.257.583 2.768.056 4.534-.09.272-.183.547-.274.818a10.19 10.19 0 0 1-2.458 3.718c-.273.255-.537.482-.79.683-1.057.78-2.105 1.17-3.143 1.17a3.44 3.44 0 0 1-1.26-.217 2.923 2.923 0 0 1-1.173-.954 3.41 3.41 0 0 1-.382-.684 3.72 3.72 0 0 1-.302-.957c.074.034.146.08.22.136.218.09.464.137.737.137.765 0 1.522-.372 2.267-1.12a5.854 5.854 0 0 0 1.586-2.596c.31-1.02.3-1.893-.028-2.62-.327-.712-.875-1.066-1.64-1.066-.455 0-.91.13-1.365.382a9.51 9.51 0 0 1 1.174-1.365.76.76 0 0 0 .136-.108c.347-.312.683-.585 1.012-.82.93-.64 1.858-.958 2.786-.958 1.167 0 2.04.482 2.623 1.448.09.144.164.29.218.436z"/><path fill="#633319" d="M54.237 113.22c-.875-.746-2.35-1.422-4.427-2.022-2.094-.602-4.016-.855-5.764-.766-1.75.073-3.998.318-6.748.738-2.605.655-4.618 1.395-6.038 2.212-.51.292-.94.602-1.285.93-.018.02-.026.046-.026.082h-.275c.11-.036.21-.064.3-.08.147-.293.338-.603.574-.932.474-.728 1.12-1.593 1.94-2.596a84.082 84.082 0 0 1 2.812-3.333h-.245a30.258 30.258 0 0 0-11.393 5.928 27.116 27.116 0 0 0-3.716 3.8c-.874.618-.956.027-.246-1.776a48.2 48.2 0 0 1 .848-2.022c.327-.728.61-1.248.847-1.557a2.1 2.1 0 0 1-.49-.055 29.836 29.836 0 0 0-1.887 1.61c-2.824 2.714-4.09 5.42-3.797 8.116.054.108.083.22.083.328 0 .072-.52.537-1.558 1.393-.2.165-.392.32-.573.466l-1.094 4.07 7.515-5.466 6.83 5-.217-3.413 4.783 1.366-.438-2.514 17.98 5.247-5.686-6.83 15.492 6.83-6.366-8.198 8.36.93a1.108 1.108 0 0 1-.19-.19c-1.095-1.022-2.698-2.05-4.81-3.088-2.132-1.04-4.782-1.54-7.95-1.504 1.074-.784 2.12-1.33 3.142-1.64 1.147-.363 1.995-.52 2.54-.464.566.036 1.258.054 2.078.054l-.905-.655z"/></g><g><path fill="#010002" d="M47.756 153.235c-.63-.716-.947-1.576-.947-2.583 0-1.01.315-1.87.946-2.585.626-.715 1.383-1.072 2.267-1.072.886 0 1.644.357 2.276 1.072.626.715.94 1.576.94 2.585 0 1.007-.314 1.867-.94 2.583-.633.716-1.39 1.07-2.277 1.07-.884 0-1.64-.354-2.267-1.07z"/><path fill="#FFF" d="M47.96 150.928c-.317-.297-.474-.662-.474-1.09s.157-.79.473-1.096c.308-.298.687-.448 1.133-.448.444 0 .826.15 1.14.448.312.305.468.67.468 1.097s-.155.79-.466 1.088a1.585 1.585 0 0 1-1.14.456c-.447 0-.826-.152-1.135-.456z"/><path fill="#010002" d="M24.56 153.235c-.633-.716-.948-1.576-.948-2.583 0-1.01.315-1.87.947-2.585.625-.715 1.38-1.072 2.267-1.072.886 0 1.644.357 2.277 1.072.624.715.938 1.576.938 2.585 0 1.007-.312 1.867-.938 2.583-.633.716-1.39 1.07-2.277 1.07-.886 0-1.642-.354-2.268-1.07z"/><path fill="#FFF" d="M24.76 150.928c-.314-.297-.472-.662-.472-1.09s.158-.79.473-1.096c.313-.298.69-.448 1.136-.448.445 0 .825.15 1.142.448.31.305.465.67.465 1.097s-.156.79-.465 1.088a1.585 1.585 0 0 1-1.142.456 1.56 1.56 0 0 1-1.135-.456z"/></g><g><path fill="#000232" d="M33.39 202.997c-.2.017-.364.026-.492.026-.2.02-.41.02-.628 0l.19-4.235h-3.114c.11 1.53.173 2.724.192 3.58l.136 3.28h2.514l.028-2.215.245.493.22.546c.09-.053.237-.118.437-.19.163-.073.264-.116.3-.137l.055 1.502h2.296c.054-1.404.09-2.497.108-3.28.09-1.656.155-2.85.192-3.577H33.17l.22 4.207m9.016-1.31l.11-2.898H40.3c.092 1.185.146 2.114.163 2.785.037 1.35.054 2.323.054 2.925a.872.872 0 0 1-.355.08c-.364 0-.6-.127-.71-.38-.127-.237-.19-.702-.19-1.395-.02-.91-.02-1.61 0-2.102.018-.875.036-1.513.054-1.915h-2.897c.038.82.09 1.724.164 2.706.09 1.073.19 1.813.3 2.213.18.692.492 1.203.93 1.53.51.4 1.248.6 2.213.6.8 0 1.575-.136 2.323-.41-.002-1.673.018-2.922.053-3.74m5-.057l.19-2.842h-4.67c.09 1.44.145 2.56.162 3.36l.136 3.5h3.99c.055-.275.11-.504.163-.686.073-.346.128-.563.165-.656a3.314 3.314 0 0 1-.574.082c-.602.037-1.01.064-1.228.082l.053-1.008h.71c.346.034.564.06.656.078.02-.234.054-.444.11-.626.07-.292.117-.492.135-.603-.73.02-1.257.027-1.584.027l.056-.875c.29.02.565.037.82.057.363.056.6.09.71.11z"/></g><g><path fill="#551314" d="M28.258 161.068c.56-.607 1.53-.572 2.905.104 2.323 1.123 4.92 1.598 7.79 1.428 2.876-.17 5.205-.732 6.985-1.683 1.785-.958 2.678-.204 2.678 2.263 0 2.48-1.02 4.59-3.064 6.33a9.532 9.532 0 0 1-.65.515c-1.84-4.687-7.388-7.673-16.644-8.957z"/><path fill="#BE1E16" d="M27.69 163.18c0-.993.19-1.697.568-2.113 9.257 1.285 14.804 4.27 16.645 8.958-1.915 1.408-4.165 2.11-6.756 2.11-2.885 0-5.35-.874-7.39-2.626-2.045-1.74-3.066-3.85-3.066-6.33z"/></g></g></svg>