
<svg xmlns="http://www.w3.org/2000/svg" version="1.1" xmlns:xlink="http://www.w3.org/1999/xlink" preserveAspectRatio="none" x="0px" y="0px" width="226px" height="291px" viewBox="0 0 226 291">
<defs>
<g id="S_mbolo_1_0_Layer0_0_FILL">
<path fill="#AAAAAA" stroke="none" d="
M 54.4 164.25
Q 48.85 163.3 43.7 162.8 48.95 243.6 34.7 288.35
L 54.4 288.35 54.4 168.75 54.4 164.25 Z"/>

<path fill="#B7B7B7" stroke="none" d="
M 11.4 164.25
L 11.4 168.4 11.4 288.35 34.7 288.35
Q 48.95 243.6 43.7 162.8 25.2 160.85 11.4 164.25
M 180.45 117.75
Q 177.25 107.6 175.4 102.2 168.1 81.25 162.45 87.25 156.8 93.25 135.9 97.25 114.95 101.25 103.05 102.15 91.1 103 70.9 96.25 59.45 89.25 59.25 89.25 51.3 89.25 47.9 113.55 46.2 125.9 45.75 140.15 45.75 140.2 45.75 140.25
L 44.9 140.25 44.95 140.7
Q 45.1 140.7 45.25 140.7 52.4 141.1 58.2 142.1
L 58.85 142.15
Q 58.85 126.65 65.2 119.35 71.3 112.3 83.4 112.85 114.5 119.65 147.85 112.85 169.05 112.55 170.85 128.65 170.85 127.6 178.5 126.85 181.1 126.6 184.1 126.45 182.6 124.15 180.45 117.75
M 173.4 13.35
Q 172.1 18.1 167.25 21.75 160.65 26.7 151.25 26.7 150.1 26.7 148.95 26.65 146.15 26.15 143.4 25.65 132.8 24.1 122.25 23.55 91.05 24.25 80.75 25.85 78.7 26.35 76.4 26.55 74.95 26.7 73.4 26.7 64.05 26.7 57.45 21.75 52.55 18.1 51.25 13.35 50.8 15.05 50.8 16.85 50.8 23.8 57.45 28.75 64.05 33.7 73.4 33.7 74.95 33.7 76.4 33.55 78.7 33.35 80.75 32.85 91.05 31.25 101.35 30.65 109.7 24.55 122.25 30.55 132.8 31.1 143.4 32.65 146.15 33.15 148.95 33.65 150.1 33.7 151.25 33.7 160.65 33.7 167.25 28.75 173.85 23.8 173.85 16.85 173.85 15.05 173.4 13.35 Z"/>

<path fill="#666666" stroke="none" d="
M 9.95 159.8
Q 0.5 161.45 0 163.7
L 0 163.95
Q 0 164 0 164.05 0.15 166.4 9.95 168.15 10.65 168.25 11.4 168.4
L 11.4 164.25
Q 25.2 160.85 43.7 162.8 48.85 163.3 54.4 164.25
L 54.4 168.75
Q 56.35 168.45 58.2 168.15 68.2 166.4 68.2 163.95
L 68.2 163.9
Q 68.1 161.5 58.2 159.8 48.2 158.05 34.1 158.05 19.95 158.05 9.95 159.8
M 120.8 55.4
Q 117.1 55.15 113 55.15 107.7 55.15 102.95 55.55 95.25 56.3 89.15 58.1 87.2 58.7 85.65 59.35 80.35 61.5 79.45 64.2 91.75 63.55 103.6 63.05 116.05 62.5 133.3 63.4 140.1 63.75 146.65 64.3 145.8 61.5 140.4 59.35 138.85 58.7 136.9 58.1 129.9 56 120.8 55.4 Z"/>

<path fill="#CCCCCC" stroke="none" d="
M 58.85 142.25
Q 58.85 142.2 58.85 142.15
L 58.2 142.1
Q 58.5 142.15 58.85 142.25
M 190.7 72.55
Q 180.95 68.95 165.75 66.6 156.55 65.15 146.65 64.3 140.1 63.75 133.3 63.4 116.05 62.5 103.6 63.05 91.75 63.55 79.45 64.2 78.8 64.25 78.15 64.3 65.15 65.05 52.05 68.15 16.25 76.55 11.4 106.05
L 11.4 141.9
Q 13.2 141.6 15.1 141.4 20.75 140.75 27.4 140.5 30.65 140.4 34.1 140.4 39.8 140.4 44.95 140.7
L 44.9 140.25 45.75 140.25
Q 45.75 140.2 45.75 140.15 46.2 125.9 47.9 113.55 51.3 89.25 59.25 89.25 59.45 89.25 70.9 96.25 91.1 103 103.05 102.15 114.95 101.25 135.9 97.25 156.8 93.25 162.45 87.25 168.1 81.25 175.4 102.2 177.25 107.6 180.45 117.75 182.6 124.15 184.1 126.45 184.45 126.4 184.75 126.4 190.25 126.1 197 126.1 207.85 126.1 215.5 126.85 221.25 127.4 222.7 128.15 221.25 83.95 190.7 72.55
M 173.4 13.35
Q 172.1 8.6 167.25 4.9 160.65 0 151.25 0 150.1 0 148.95 0.1 146.1 0.3 143.45 1 112 5.65 80.6 0.85 78.65 0.35 76.45 0.15 74.95 0 73.4 0 64.05 0 57.45 4.9 52.55 8.6 51.25 13.35 52.55 18.1 57.45 21.75 64.05 26.7 73.4 26.7 74.95 26.7 76.4 26.55 78.7 26.35 80.75 25.85 91.05 24.25 122.25 23.55 132.8 24.1 143.4 25.65 146.15 26.15 148.95 26.65 150.1 26.7 151.25 26.7 160.65 26.7 167.25 21.75 172.1 18.1 173.4 13.35 Z"/>

<path fill="#999999" stroke="none" d="
M 58.2 142.1
Q 52.4 141.1 45.25 140.7 45.1 140.7 44.95 140.7 39.8 140.4 34.1 140.4 30.65 140.4 27.4 140.5 20.75 140.75 15.1 141.4 13.2 141.6 11.4 141.9 10.65 142 9.95 142.1 0.75 143.7 0.05 145.95
L 0 163.7
Q 0.5 161.45 9.95 159.8 19.95 158.05 34.1 158.05 48.2 158.05 58.2 159.8 68.1 161.5 68.2 163.9
L 68.15 146.05
Q 67.65 143.85 58.85 142.25 58.5 142.15 58.2 142.1 Z"/>

<path fill="#333333" stroke="none" d="
M 223.2 128.65
Q 223.2 128.4 222.7 128.15 221.25 127.4 215.5 126.85 207.85 126.1 197 126.1 190.25 126.1 184.75 126.4 184.45 126.4 184.1 126.45 181.1 126.6 178.5 126.85 170.85 127.6 170.85 128.65 170.85 129.75 178.5 130.5 186.15 131.25 197 131.25 207.85 131.25 215.5 130.5 223.2 129.75 223.2 128.65
M 101.35 55.55
Q 106.9 55.1 113.15 55.1 117.95 55.1 122.25 55.4
L 122.25 30.55
Q 109.7 24.55 101.35 30.65
L 101.35 55.55 Z"/>
</g>
</defs>

<g transform="matrix( 1, 0, 0, 1, 1.4,1.35) ">
<g transform="matrix( 1, 0, 0, 1, 0,0) ">
<use xlink:href="#S_mbolo_1_0_Layer0_0_FILL"/>
</g>
</g>
</svg>
