<svg xmlns="http://www.w3.org/2000/svg" xmlns:xlink="http://www.w3.org/1999/xlink" preserveAspectRatio="none" width="226" height="291" viewBox="0 0 226 291"><defs><g id="a"><path fill="#AAA" d="M54.4 164.25q-5.55-.95-10.7-1.45 5.25 80.8-9 125.55h19.7v-124.1z"/><path fill="#B7B7B7" d="M11.4 164.25V288.35h23.3q14.25-44.75 9-125.55-18.5-1.95-32.3 1.45m169.05-46.5q-3.2-10.15-5.05-15.55-7.3-20.95-12.95-14.95-5.65 6-26.55 10-20.95 4-32.85 4.9-11.95.85-32.15-5.9-11.45-7-11.65-7-7.95 0-11.35 24.3-1.7 12.35-2.15 26.6v.1h-.85l.05.45h.3q7.15.4 12.95 1.4l.65.05q0-15.5 6.35-22.8 6.1-7.05 18.2-6.5 31.1 6.8 64.45 0 21.2-.3 23 15.8 0-1.05 7.65-1.8 2.6-.25 5.6-.4-1.5-2.3-3.65-8.7m-7.05-104.4q-1.3 4.75-6.15 8.4-6.6 4.95-16 4.95-1.15 0-2.3-.05-2.8-.5-5.55-1-10.6-1.55-21.15-2.1-31.2.7-41.5 2.3-2.05.5-4.35.7-1.45.15-3 .15-9.35 0-15.95-4.95-4.9-3.65-6.2-8.4-.45 1.7-.45 3.5 0 6.95 6.65 11.9 6.6 4.95 15.95 4.95 1.55 0 3-.15 2.3-.2 4.35-.7 10.3-1.6 20.6-2.2 8.35-6.1 20.9-.1 10.55.55 21.15 2.1 2.75.5 5.55 1 1.15.05 2.3.05 9.4 0 16-4.95t6.6-11.9q0-1.8-.45-3.5z"/><path fill="#666" d="M9.95 159.8Q.5 161.45 0 163.7v.35q.15 2.35 9.95 4.1.7.1 1.45.25v-4.15q13.8-3.4 32.3-1.45 5.15.5 10.7 1.45v4.5q1.95-.3 3.8-.6 10-1.75 10-4.2v-.05q-.1-2.4-10-4.1-10-1.75-24.1-1.75-14.15 0-24.15 1.75M120.8 55.4q-3.7-.25-7.8-.25-5.3 0-10.05.4-7.7.75-13.8 2.55-1.95.6-3.5 1.25-5.3 2.15-6.2 4.85 12.3-.65 24.15-1.15 12.45-.55 29.7.35 6.8.35 13.35.9-.85-2.8-6.25-4.95-1.55-.65-3.5-1.25-7-2.1-16.1-2.7z"/><path fill="#CCC" d="M58.85 142.25v-.1l-.65-.05q.3.05.65.15m131.85-69.7q-9.75-3.6-24.95-5.95-9.2-1.45-19.1-2.3-6.55-.55-13.35-.9-17.25-.9-29.7-.35-11.85.5-24.15 1.15l-1.3.1q-13 .75-26.1 3.85-35.8 8.4-40.65 37.9v35.85q1.8-.3 3.7-.5 5.65-.65 12.3-.9 3.25-.1 6.7-.1 5.7 0 10.85.3l-.05-.45h.85v-.1q.45-14.25 2.15-26.6 3.4-24.3 11.35-24.3.2 0 11.65 7 20.2 6.75 32.15 5.9 11.9-.9 32.85-4.9 20.9-4 26.55-10 5.65-6 12.95 14.95 1.85 5.4 5.05 15.55 2.15 6.4 3.65 8.7.35-.05.65-.05 5.5-.3 12.25-.3 10.85 0 18.5.75 5.75.55 7.2 1.3-1.45-44.2-32-55.6m-17.3-59.2q-1.3-4.75-6.15-8.45-6.6-4.9-16-4.9-1.15 0-2.3.1-2.85.2-5.5.9Q112 5.65 80.6.85q-1.95-.5-4.15-.7Q74.95 0 73.4 0q-9.35 0-15.95 4.9-4.9 3.7-6.2 8.45 1.3 4.75 6.2 8.4 6.6 4.95 15.95 4.95 1.55 0 3-.15 2.3-.2 4.35-.7 10.3-1.6 41.5-2.3 10.55.55 21.15 2.1 2.75.5 5.55 1 1.15.05 2.3.05 9.4 0 16-4.95 4.85-3.65 6.15-8.4z"/><path fill="#999" d="M58.2 142.1q-5.8-1-12.95-1.4h-.3q-5.15-.3-10.85-.3-3.45 0-6.7.1-6.65.25-12.3.9-1.9.2-3.7.5-.75.1-1.45.2-9.2 1.6-9.9 3.85L0 163.7q.5-2.25 9.95-3.9 10-1.75 24.15-1.75 14.1 0 24.1 1.75 9.9 1.7 10 4.1l-.05-17.85q-.5-2.2-9.3-3.8-.35-.1-.65-.15z"/><path fill="#333" d="M223.2 128.65q0-.25-.5-.5-1.45-.75-7.2-1.3-7.65-.75-18.5-.75-6.75 0-12.25.3-.3 0-.65.05-3 .15-5.6.4-7.65.75-7.65 1.8 0 1.1 7.65 1.85t18.5.75q10.85 0 18.5-.75 7.7-.75 7.7-1.85m-121.85-73.1q5.55-.45 11.8-.45 4.8 0 9.1.3V30.55q-12.55-6-20.9.1v24.9z"/></g></defs><use xlink:href="#a" transform="translate(1.4 1.35)"/></svg>