
<svg xmlns="http://www.w3.org/2000/svg" version="1.1" xmlns:xlink="http://www.w3.org/1999/xlink" preserveAspectRatio="none" x="0px" y="0px" width="102px" height="29px" viewBox="0 0 102 29">
<defs>
<g id="Layer0_0_FILL">
<path fill="#065626" stroke="none" d="
M -20.1 6.5
L -20.1 6.45 -20.25 6.4 -20.3 6.5 -20.1 6.5
M -19.55 6.55
Q -19.55 6.5 -19.6 6.4 -19.75 6.45 -19.75 6.6
L -19.6 6.6 -19.55 6.55
M -0.35 -2
L -0.55 -2.05 -0.5 -1.7 -0.35 -1.7
Q -0.35 -1.75 -0.35 -1.8
L -0.35 -2
M -14.15 -8.05
Q -14.1 -7.95 -14 -7.9 -13.95 -7.85 -13.95 -7.8
L -14 -7.65 -14.1 -7.65 -14 -7.2 -13.95 -7.15 -13.95 -6.7 -14.05 -6.75
Q -14 -6.75 -14 -6.8
L -14.1 -6.9 -14.25 -7.4 -14.25 -7.5
Q -14.4 -7.45 -14.45 -7.4
L -14.5 -7.1 -14.45 -6.85
Q -14.45 -6.7 -14.6 -6.65
L -14.65 -6.7 -14.65 -6.95
Q -14.7 -7.1 -14.8 -7.1 -14.95 -7.05 -14.95 -6.9
L -15 -6.85 -14.9 -6.45
Q -15 -6.35 -15.1 -6.3 -15.15 -6.45 -15.15 -6.55
L -15.25 -6.95
Q -15.35 -6.9 -15.4 -6.85
L -15.45 -6.8 -15.5 -4.85 -15.55 -4.55 -15.55 -4.2
Q -15.5 -4.1 -15.45 -4.05 -15.3 -4 -15.3 -3.9
L -15.3 -3.85 -15.1 -3.8 -15.05 -3.9 -15.15 -4.4
Q -15.1 -4.55 -15.05 -4.65
L -15 -4.65 -15 -4
Q -14.95 -3.85 -14.85 -3.8
L -14.9 -3.5 -14.95 -3.4 -15.1 -3.5
Q -15.2 -3.6 -15.25 -3.75
L -15.45 -3.8 -15.55 -3.75
Q -15.55 -3.6 -15.5 -3.45 -15.4 -3.5 -15.3 -3.55 -15.25 -3.4 -15.25 -3.25
L -15.25 -2.95
Q -15.3 -2.9 -15.35 -2.85
L -15.35 -3 -15.4 -3.3
Q -15.45 -3.35 -15.5 -3.4
L -15.55 -2.25 -15.3 -2.2 -15.35 -2
Q -15.45 -2.05 -15.55 -2.15 -15.6 -2.05 -15.6 -1.9
L -15.85 6.1 -15.8 6.4 -8 6.65 -8.05 3.3 -8.25 3.3 -8.25 3.2 -8.5 3.25 -8.55 3.3 -10.1 3.25 -10.15 4.3
Q -10.2 4.2 -10.2 4.05
L -10.25 3.4
Q -10.25 3.25 -10.35 3.25
L -10.4 3.2 -10.7 3.15 -12.2 3.2 -12.3 3.15 -12.25 2.9 -12.2 2.3 -12.2 2.2 -12.15 1.5 -12.45 1.45 -12.5 1.45 -12.45 1.25 -12.2 1.2 -12.2 0.2
Q -12.05 0.2 -11.95 0.15
L -10.15 0.2 -10.15 -0.05
Q -10.1 -0.2 -10.05 -0.3 -9.95 -0.4 -9.9 -0.5
L -9.85 -0.8
Q -9.85 -1 -9.85 -1.15
L -9.65 -1.15 -9.8 -0.45
Q -9.85 -0.3 -9.85 -0.2
L -9.9 0.1 -9.75 0.25 -9.4 0.3 -9.05 0.3 -8.8 0.25
Q -8.65 0.25 -8.5 0.15
L -8.4 0.1 -8.4 -0.1
Q -8.4 -0.25 -8.35 -0.4
L -8.35 -2.5
Q -8.45 -2.55 -8.55 -2.6
L -8.8 -2.7 -8.85 -2.8 -9.1 -2.75 -9.35 -2.65 -9.65 -2.6 -9.85 -2.45 -9.95 -2.4 -9.9 -1.9
Q -9.9 -1.75 -10.05 -1.75 -10.1 -1.85 -10.1 -2
L -10.1 -2.3 -10.05 -2.4 -10.05 -2.6
Q -10.15 -2.7 -10.25 -2.75 -10.4 -2.8 -10.55 -2.9
L -12.05 -2.8 -12.05 -3.15 -12.1 -3.45 -12.25 -3.65 -12.75 -3.55 -12.8 -3.55
Q -12.8 -3.7 -12.65 -3.75 -12.55 -3.8 -12.45 -3.9 -12.25 -3.9 -12.1 -3.85
L -12.05 -4.1 -12.05 -4.45
Q -12.2 -4.4 -12.3 -4.35
L -12.35 -4.35 -12.3 -4.55 -12.1 -4.7
Q -12.05 -4.8 -11.95 -4.9
L -12 -5.2
Q -12 -5.35 -11.85 -5.35
L -11.55 -5.35
Q -11.35 -5.35 -11.2 -5.35
L -11.15 -5.3 -10.2 -5.25
Q -10.05 -5.25 -9.95 -5.35
L -9.9 -5.65 -9.8 -5.9
Q -9.65 -5.85 -9.55 -5.8
L -9.55 -5.6 -9.65 -5.65 -9.7 -5.75 -9.85 -5.7 -9.85 -5.25 -7.9 -5.25
Q -7.8 -5.35 -7.8 -5.5
L -7.6 -7.45 -7.65 -8.05
Q -7.7 -8.15 -7.8 -8.25
L -7.85 -8.3 -9.15 -8.35
Q -9.3 -8.35 -9.45 -8.35
L -13.95 -8.5
Q -14.1 -8.45 -14.2 -8.35
L -14.15 -8.05
M -14.65 -6.2
L -14.6 -6.5
Q -14.55 -6.35 -14.5 -6.3
L -14.35 -5.1 -14.2 -4.95
Q -14.3 -4.8 -14.35 -4.65 -14.35 -4.5 -14.35 -4.4 -14.4 -4.35 -14.45 -4.3
L -14.45 -4.5 -14.65 -6.2
M -13.85 -6.2
L -13.9 -6.2
Q -13.95 -6.35 -13.95 -6.5
L -13.85 -6.5 -13.85 -6.2
M -11.15 -8.25
L -11.15 -8.15 -11.25 -8.2 -11.2 -8.25 -11.15 -8.25
M -11.7 -7.3
L -11.65 -7.3 -11.7 -7 -11.75 -7 -11.75 -7.1 -11.7 -7.3
M -12.05 -6.75
Q -12.1 -6.85 -12.1 -6.95 -12.05 -6.9 -12 -6.85 -11.9 -6.8 -11.85 -6.7
L -12.05 -6.75
M -11.15 -7.05
L -11.1 -7.3
Q -11.05 -7.15 -11.05 -7.05
L -11.15 -7.05
M -15.4 -2.6
L -15.35 -2.7
Q -15.3 -2.65 -15.3 -2.6
L -15.4 -2.6
M -15.4 -1.6
L -15.3 -1.65
Q -15.3 -1.5 -15.35 -1.5
L -15.4 -1.6
M -15.35 -0.75
Q -15.25 -0.8 -15.2 -0.8
L -14.9 -0.9 -14.85 -0.85 -14.9 -0.65 -15.2 -0.75 -15.35 -0.75
M -15.45 -1.1
L -15.3 -1.15
Q -15.2 -1.2 -15.1 -1.25 -15 -1.3 -14.9 -1.3
L -14.45 -1.45 -14.4 -1.65
Q -14.35 -1.6 -14.35 -1.55
L -14.4 -1.3
Q -14.45 -1.25 -14.55 -1.2
L -14.8 -1.15 -15.15 -1 -15.4 -1 -15.45 -0.95
Q -15.45 -0.85 -15.45 -0.8
L -15.5 -0.75 -15.5 -0.9 -15.45 -1.1
M -10.65 -6.1
L -10.7 -6.1 -10.65 -6.2 -10.65 -6.1
M -10.55 -5.7
L -10.65 -5.7 -10.65 -5.8 -10.45 -5.9
Q -10.35 -5.9 -10.35 -5.8 -10.45 -5.7 -10.55 -5.7
M -11.15 -5.8
Q -11.1 -5.75 -11.1 -5.7
L -11.25 -5.7 -11.15 -5.8
M -13.25 -5.35
L -13.25 -5.15
Q -13.3 -5.2 -13.3 -5.3
L -13.25 -5.35
M -13.8 -4.95
L -13.8 -4.8 -13.85 -4.55 -13.75 -3.8
Q -13.8 -3.6 -13.9 -3.55
L -14 -3.55
Q -14 -3.7 -14.05 -3.85
L -13.85 -3.9 -14.25 -5.7 -14.25 -6.1
Q -14.05 -6.1 -14.05 -5.95
L -13.8 -4.95
M -15.15 -5.45
Q -15.15 -5.7 -15.1 -5.9 -14.95 -5.75 -14.95 -5.6
L -14.9 -5.3
Q -14.9 -5.25 -14.95 -5.25
L -15.1 -5.2 -15.15 -5.45
M -14.3 -3.85
Q -14.25 -3.65 -14.25 -3.5
L -14.25 -2.75
Q -14.15 -2.85 -14.05 -2.9
L -14.05 -2.8
Q -14.05 -2.6 -14 -2.45
L -13.9 -1.75
Q -13.9 -1.55 -13.9 -1.45
L -13.8 -1.1
Q -13.8 -0.9 -13.75 -0.8 -13.65 -0.65 -13.6 -0.65
L -13.55 -0.75 -13.45 -0.45 -13.45 0.65
Q -13.5 0.75 -13.6 0.8 -13.65 0.65 -13.65 0.5
L -13.7 -0.2 -13.8 -0.55 -13.95 -0.8
Q -14 -0.95 -14 -1.1
L -14 -1.85 -14.05 -1.95 -14.3 -1.95 -14.4 -2 -14.4 -2.25
Q -14.45 -2.45 -14.45 -2.6
L -14.5 -3.3 -14.45 -4.05
Q -14.3 -4 -14.3 -3.85
M -13.6 -3.2
L -13.4 -3.15 -13.5 -3 -13.55 -2.75 -13.35 -1.8 -13.4 -1.55
Q -13.4 -1.45 -13.5 -1.45 -13.55 -1.55 -13.5 -1.65
L -13.65 -2.9 -13.6 -3.2
M -13.2 -3.65
L -13.2 -3.85
Q -13.1 -3.8 -13.05 -3.7
L -13.2 -3.65
M -13.1 -3.25
L -13.15 -3.3 -13.1 -3.5 -12.85 -3.45 -13 -3.3 -13.1 -3.25
M -14.95 -2.9
Q -14.9 -2.85 -14.9 -2.8
L -14.95 -2.65
Q -15 -2.65 -15 -2.7 -15 -2.8 -14.95 -2.9
M -15.1 -1.65
L -15 -1.8
Q -14.9 -1.75 -14.8 -1.7
L -14.9 -1.4
Q -15 -1.5 -15.05 -1.55
L -15.1 -1.65
M -14.4 -1
Q -14.35 -0.9 -14.3 -0.8
L -14.1 -0.4 -14.15 -0.15 -14.25 0.15 -14.15 0.85 -14.15 0.9
Q -14.25 0.85 -14.25 0.7
L -14.55 -0.8
Q -14.5 -0.9 -14.4 -1
M -14.9 -0.4
L -14.75 -0.4 -14.8 -0.25 -14.9 -0.2 -14.9 -0.4
M -13.15 -1.1
L -13.05 -1.1 -13.1 -0.95 -13.15 -0.95 -13.15 -1.1
M -10.45 -2.75
Q -10.45 -2.55 -10.55 -2.45 -10.75 -2.35 -10.9 -2.3
L -10.95 -2.35 -10.95 -2.45 -10.75 -2.55
Q -10.6 -2.7 -10.45 -2.75
M -12.15 -1.75
L -12.05 -1.7 -12.1 -1.55
Q -12.15 -1.65 -12.15 -1.75
M -12.15 -2
L -12.1 -2.3 -12.05 -2.25 -12.05 -1.9
Q -12.1 -2 -12.15 -2
M -12.45 -1.4
Q -12.4 -1.35 -12.4 -1.3 -12.4 -1.25 -12.45 -1.25
L -12.45 -1.4
M -12.1 -1.15
L -12.1 -1.3
Q -12.05 -1.2 -12 -1.1
L -12.1 -1.15
M -11.95 -0.2
L -11.85 -0.2 -11.95 -0.1 -11.95 -0.2
M -10.7 -0.1
L -10.7 -0.3
Q -10.6 -0.25 -10.6 -0.1
L -10.7 -0.1
M -15.2 -0.05
L -15.15 -0.2
Q -15.15 -0.1 -15.2 0 -15.25 0 -15.2 -0.05
M -8.4 -8.15
L -8.45 -8.05 -8.45 -8.15 -8.4 -8.15
M -8.5 -7.8
L -8.35 -7.8 -8.35 -7.6 -8.4 -7.55 -8.4 -7.25 -8.5 -7.25 -8.5 -7.8
M -10.05 -7.45
L -9.95 -7.45 -10 -7.3 -10.05 -7.3 -10.1 -7.4 -10.05 -7.45
M -9.55 -7.2
L -9.5 -7.15 -9.55 -6.65
Q -9.55 -6.6 -9.6 -6.6
L -9.75 -6.65 -10 -6.7 -10.05 -6.6
Q -10.1 -6.65 -10.1 -6.7 -10.05 -6.8 -9.95 -6.85
L -9.55 -7.2
M -8.5 -6.85
L -8.45 -7 -8.35 -7 -8.35 -6.85 -8.5 -6.85
M -8.5 -5.75
L -8.5 -5.85 -8.4 -5.8 -8.5 -5.75
M -9.85 -6
L -10.05 -6
Q -10.05 -6.2 -9.9 -6.3 -9.85 -6.15 -9.85 -6
M -8.6 -2.25
L -8.6 -2.15 -8.7 -2.1 -8.7 -1.85
Q -8.75 -1.95 -8.75 -2.05 -8.75 -2.15 -8.65 -2.25
L -8.6 -2.25
M -9.3 -2.4
L -9.25 -2.4 -9.25 -2.3
Q -9.3 -2.25 -9.35 -2.2 -9.4 -2.25 -9.4 -2.3
L -9.3 -2.4
M -9 -1
Q -9 -0.85 -9.05 -0.8 -9.15 -0.7 -9.25 -0.7 -9.25 -0.75 -9.15 -0.85
L -9 -1
M -9.5 -1.4
L -9.7 -1.4 -9.6 -1.55
Q -9.45 -1.5 -9.5 -1.4
M -10 -1.15
Q -10.1 -1.25 -10.1 -1.35 -10.05 -1.45 -9.95 -1.55 -9.9 -1.55 -9.85 -1.5
L -9.95 -1.35 -10 -1.15
M -8.35 3.65
L -8.3 3.65 -8.35 3.9 -8.4 3.9 -8.35 3.65
M -8.65 4.55
L -8.45 4.55 -8.5 4.65 -8.65 4.7 -8.65 4.55
M -8.7 4.35
L -8.7 4.2 -8.65 4.2 -8.7 4.35
M -9.15 4
L -9.1 3.85 -9 3.85
Q -9 3.95 -9.05 4.05 -9.1 4 -9.15 4
M -9.45 4.1
L -9.55 4.1 -9.5 4.05 -9.45 4.1
M -9.05 4.85
L -8.9 4.9 -9 5.1
Q -9.05 4.95 -9.05 4.85
M -9.3 4.8
Q -9.35 4.75 -9.4 4.65
L -9.3 4.65 -9.3 4.8
M -9.1 5.3
L -9.1 5.2 -8.9 5.3 -9.1 5.3
M -8.2 6.05
L -8.2 5.9
Q -8.1 6 -8.1 6.05
L -8.2 6.05
M -13.6 0.95
Q -13.5 1.05 -13.45 1.1
L -13.4 1.35 -13.5 1.95
Q -13.6 1.9 -13.65 1.8
L -13.6 1.55 -13.6 0.95
M -14.8 0.3
Q -14.85 0.25 -14.85 0.15
L -14.8 0.2 -14.8 0.3
M -14.85 1.3
L -14.85 1.05 -14.7 1.05 -14.75 1.25 -14.85 1.3
M -14.3 1.2
Q -14.25 1.3 -14.25 1.4
L -14.35 1.4 -14.3 1.2
M -14.1 1.4
L -14 1.1 -13.9 1.1 -13.95 1.3 -14.1 1.65
Q -14 1.85 -13.9 1.9
L -13.9 2.1 -14.1 2.1
Q -14.25 2.1 -14.35 2.05 -14.35 1.85 -14.3 1.7
L -14.1 1.4
M -14.75 2
Q -14.85 1.95 -14.85 1.85 -14.85 1.75 -14.8 1.65 -14.75 1.7 -14.7 1.8
L -14.75 2
M -14.6 3
L -14.6 2.9
Q -14.55 2.9 -14.5 3
L -14.6 3
M -14.1 2.75
L -14.2 2.8 -14.4 2.55
Q -14.3 2.45 -14.2 2.3 -14.1 2.45 -14.1 2.55
L -14.1 2.75
M -13.7 2.8
L -13.7 2.95
Q -13.85 2.85 -13.85 2.75
L -13.7 2.8
M -13.3 2.65
Q -13.35 2.75 -13.4 2.8
L -13.4 2.65
Q -13.4 2.35 -13.4 2.15
L -13.1 2.2 -13.1 2.35
Q -13.3 2.5 -13.3 2.65
M -13.8 3.75
L -13.8 3.4
Q -13.75 3.45 -13.75 3.5
L -13.75 3.95
Q -13.8 3.85 -13.8 3.75
M -13.35 3.1
Q -13.3 3.25 -13.3 3.4
L -13.2 3.75 -13.2 3.95 -13.25 4.15
Q -13.25 4.35 -13.25 4.5 -13.4 4.5 -13.4 4.35
L -13.45 3.5
Q -13.45 3.25 -13.35 3.1
M -13.95 4.55
Q -14.05 4.45 -14.15 4.35
L -14.3 3.35 -14.2 3.05
Q -14.15 3.15 -14.15 3.3
L -14.05 3.55 -13.95 4.25
Q -13.8 4.35 -13.75 4.45
L -13.75 4.8 -13.85 5.15
Q -13.95 5.2 -14.05 5.25
L -14.1 5.3 -14.15 5.25 -14.15 5.15 -14 5.1 -14 4.9 -13.95 4.55
M -15.15 4.2
Q -15.05 4.2 -14.95 4.25
L -15.25 4.25
Q -15.35 4.25 -15.4 4.1
L -15.15 4.2
M -14.05 5.6
L -14.1 5.75 -14.1 5.55 -14.05 5.6
M -13.1 4.75
L -13 4.75 -13.1 4.8
Q -13.15 4.9 -13.25 5
L -13.3 5.45 -13.35 5.4 -13.4 4.95 -13.3 4.7 -13.1 4.75
M -12.7 5.6
L -12.7 5.65 -12.75 5.65 -12.7 5.6
M -10.5 4.3
Q -10.6 4.4 -10.7 4.4
L -10.8 4.45 -10.75 4.3
Q -10.7 4.2 -10.6 4.15
L -10.5 4.15 -10.5 4.3
M -10.25 4.6
L -10.15 4.6 -10.1 4.65 -10.15 4.8 -10.2 4.85 -10.25 4.75 -10.25 4.6
M -11.55 3.65
L -11.4 3.65
Q -11.45 3.75 -11.55 3.85
L -11.55 3.65
M -12.45 4.55
L -12.35 4.55
Q -12.4 4.65 -12.45 4.7
L -12.45 4.55
M -12.55 4.1
L -12.45 4.05 -12.4 4.1 -12.45 4.2
Q -12.5 4.15 -12.55 4.1
M -11.85 4.55
L -11.8 4.6 -11.8 4.8
Q -11.95 4.65 -11.95 4.5
L -11.85 4.55
M -11.55 4.55
Q -11.55 4.45 -11.5 4.4 -11.45 4.4 -11.4 4.45 -11.45 4.55 -11.55 4.6
L -11.55 4.55
M -12.55 5.05
L -12.5 4.95 -12.35 4.95 -12.4 5.05 -12.55 5.05
M -14.1 -2.4
Q -14.15 -2.6 -14.2 -2.75 -14.3 -2.55 -14.3 -2.4 -14.3 -2.2 -14.15 -2.05
L -14.1 -2.05
Q -14.1 -2.25 -14.1 -2.4
M -14.7 -8.15
L -14.65 -8.35 -14.55 -8.25
Q -14.5 -8.1 -14.5 -7.9
L -14.5 -7.65 -14.25 -7.65
Q -14.3 -7.75 -14.35 -7.9
L -14.3 -8.25 -14.35 -8.45 -15.4 -8.55 -15.45 -7.05 -14.7 -7.4 -14.65 -7.45 -14.7 -8.15
M -15.05 -7.65
L -15.1 -7.45 -15.25 -7.45 -15.35 -7.7 -15.3 -7.9 -15.05 -7.65
M -15.3 -8.05
L -15.3 -8.3 -15.2 -8.3 -15.25 -8.1 -15.3 -8.05
M -28 -5.6
L -28 -5.35 -27.85 -5.4 -27.85 -5.6 -28 -5.6
M -27.05 -6.3
L -27.15 -6.35 -27.15 -6.2 -27.1 -6.1 -27.05 -6.3
M -27.45 -7.3
L -27.6 -7 -27.8 -6.45 -27.8 -6.3 -27.85 -6.25 -27.8 -6.15
Q -27.8 -6.1 -27.75 -6.05
L -27.45 -6.2 -27.35 -7.3 -27.45 -7.3
M -22.95 -6.55
Q -23 -6.45 -23 -6.4
L -22.85 -6.35 -22.85 -6.45 -22.95 -6.55
M -20.35 -9.5
L -20.4 -9.55 -21.95 -9.6
Q -21.9 -9.4 -21.75 -9.35
L -21.5 -9.25 -20.4 -8.5
Q -20.35 -8.4 -20.3 -8.3
L -20.6 -8.35
Q -20.7 -8.5 -20.85 -8.55 -21.05 -8.6 -21.2 -8.65
L -21.45 -8.85 -22.2 -9.35
Q -22.35 -9.45 -22.45 -9.55
L -24.85 -9.45 -25.45 -9.2 -25.6 -8.95 -25.6 -8.6
Q -25.7 -8.55 -25.8 -8.55
L -25.85 -8.65 -25.85 -8.9 -26.25 -8.75 -26.3 -8.6 -26.25 -8.5 -26.6 -8.45
Q -26.6 -8.35 -26.55 -8.2 -26.8 -8.2 -26.9 -8.15
L -26.95 -8.05 -27 -7.75
Q -27.05 -7.65 -27.15 -7.65
L -27.15 -7.75 -27.25 -7.7 -27.25 -7.55 -27.05 -7.3 -27 -7.1 -27.15 -7.05 -27.25 -6.65
Q -27.2 -6.55 -27.1 -6.45
L -27.05 -6.6
Q -27.05 -6.75 -26.9 -6.9
L -26.85 -6.95 -26.9 -7.25 -26.8 -7.35 -26.8 -7.1 -26.9 -6.3 -27.05 -5.8 -26.9 -5.75
Q -26.8 -5.6 -26.75 -5.45 -26.7 -5.3 -26.7 -5.15 -26.75 -4.95 -26.9 -4.9
L -27.1 -5.15 -27.25 -5.2
Q -27.25 -5.15 -27.25 -5.05
L -27.25 -4.85 -27.45 -4.8 -27.55 -4.8 -27.85 -4.85 -28.05 -4.95 -28.1 -4.85
Q -28.1 -4.65 -28.05 -4.5
L -28 -4.1
Q -28.05 -3.95 -28.1 -3.8
L -28.15 -3.4
Q -28.1 -3.3 -28 -3.3
L -27.95 -3.4
Q -27.85 -3.5 -27.8 -3.6
L -27.9 -3.65
Q -27.95 -3.7 -27.9 -3.75
L -27.8 -3.9
Q -27.8 -4 -27.75 -4.1
L -27.85 -4.2
Q -27.85 -4.3 -27.75 -4.45
L -27.45 -4.6 -27.35 -4.6
Q -27.4 -4.45 -27.45 -4.35 -27.45 -4.25 -27.45 -4.15
L -27.4 -4.05 -27.65 -3.65 -27.45 -3.6 -27.4 -3.6 -27.5 -3.35
Q -27.5 -3.2 -27.45 -3.05
L -27.5 -2.35 -27.4 -2.35 -27.35 -2.3 -27.5 -2.15 -27.55 -2.05 -27.75 -2.15
Q -27.9 -2.25 -27.95 -2.45 -27.9 -2.5 -27.8 -2.6 -27.9 -2.8 -27.9 -2.95 -27.85 -3 -27.8 -3.1
L -27.95 -3.15
Q -28.1 -3.1 -28.15 -2.95 -28.1 -2.75 -28.1 -2.6
L -28.1 -2.15 -28.15 -1.8 -28.2 -1.75 -28.2 -0.85 -27.95 -0.8
Q -28 -0.7 -28.15 -0.7
L -28.2 -0.6 -28.3 -0.3 -28.25 0.1 -28.1 0.3 -28.25 0.6 -28.15 2.15
Q -28.15 2.35 -28.1 2.55
L -28.1 2.9 -27.9 3.6 -27.55 4.45 -26.95 5.15 -26.2 5.75 -24.65 6.3 -24.6 6.3 -24.35 6.35 -24.3 6.35 -23.8 5.9 -23.4 5.7
Q -23.35 5.75 -23.35 5.8
L -23.55 6 -24.1 6.2 -24 6.25 -23.95 6.3
Q -23.8 6.3 -23.6 6.25
L -23.4 6.2 -23.35 6.3 -23.3 6.45 -22.6 6.45
Q -22.5 6.5 -22.35 6.5
L -22.25 6.45
Q -22.1 6.35 -22 6.2 -21.9 6.1 -21.75 6.05
L -21.4 6
Q -21.3 6.05 -21.2 6.15
L -20.85 6.1
Q -20.85 6.2 -20.8 6.3
L -20.7 6.2 -20.5 6.15 -20.45 6.2 -20.2 6.05 -20.05 5.85 -19.75 5.3 -19.65 5.15 -19.5 5.25 -19.45 5.3 -19.45 5.6
Q -19.5 5.75 -19.65 5.8 -19.8 5.9 -19.9 5.95 -20 6.1 -20.05 6.2
L -20.1 6.3 -19.85 6.35 -19.7 6.3 -19.6 6.05
Q -19.5 6.05 -19.45 6.1
L -19.45 6.25
Q -19.5 6.25 -19.5 6.3
L -19.5 6.4 -19.3 6.4
Q -19.15 6.25 -19.15 6.1
L -19.15 5.25
Q -19.2 5.05 -19.25 4.95
L -19.5 4.8 -19.4 4.45
Q -19.35 4.3 -19.2 4.25
L -19.25 4.4 -19.25 4.6 -19.3 4.6
Q -19.35 4.8 -19.25 4.85
L -19.15 4.8 -19.1 4.05
Q -19.1 3.85 -19.1 3.7
L -19.25 3.8 -19.3 3.7
Q -19.2 3.6 -19.1 3.5 -19.15 3.5 -19.15 3.45
L -21 3.45 -21.05 3.6
Q -21.1 3.75 -21.25 3.75 -21.5 3.75 -21.65 3.7 -21.75 3.6 -21.8 3.5
L -21.85 3.4 -21.9 3.4 -23.35 3.25
Q -23.55 3.25 -23.65 3.15
L -23.65 3 -23.9 2.95 -25.1 2.95
Q -25.3 3 -25.45 3.05
L -26.55 3.05 -26.55 2.95 -25.95 2.75 -24.35 2.7
Q -24.15 2.7 -24 2.65
L -24.15 2.35
Q -24.2 2.15 -24.2 2
L -24.2 0.35
Q -24.2 0.2 -24.25 0.05
L -24.35 -0.1 -24.4 0.1 -24.45 0.2 -24.65 0.1 -24.65 -0.2 -24.4 -0.4 -24.35 -0.35 -24.15 -0.4 -24.15 -1.9 -24.1 -2.2 -24.2 -2.95 -24.25 -3.1 -24.15 -3.35 -24.1 -3.7
Q -24.15 -3.85 -24.3 -3.95 -24.45 -4.05 -24.55 -4.1 -24.7 -4.2 -24.85 -4.3
L -24.85 -4.45 -24.65 -4.45 -24.15 -4.2
Q -24.1 -4.2 -24.05 -4.25
L -24 -4.65
Q -24 -4.85 -23.95 -5
L -23.75 -5.7
Q -23.7 -5.85 -23.6 -5.95
L -23.45 -6.25 -23.35 -6.35 -23.4 -6.5
Q -23.45 -6.6 -23.45 -6.65
L -23.25 -6.7 -23 -6.7 -22.65 -6.5 -22.6 -6.45 -22.3 -6.4
Q -22.2 -6.5 -22.1 -6.65
L -22.05 -6.8
Q -22 -6.75 -21.95 -6.7 -21.95 -6.5 -21.8 -6.45 -21.65 -6.35 -21.45 -6.35 -21.25 -6.25 -21.05 -6.25
L -19.6 -6.25 -19.7 -6.45
Q -19.65 -6.45 -19.55 -6.5
L -19 -6.3 -18.85 -6.35 -18.8 -6.5 -18.75 -6.85 -19.15 -6.85
Q -19.2 -6.95 -19.2 -7
L -19 -7.05 -18.75 -7.05 -18.75 -7.65 -19.05 -7.65
Q -19.1 -7.7 -19.1 -7.8
L -19 -7.9
Q -18.8 -7.9 -18.75 -8.05
L -18.7 -9.45
Q -18.8 -9.4 -18.9 -9.35
L -18.9 -9.25
Q -19.05 -9.25 -19.15 -9.3 -19.3 -9.45 -19.45 -9.45
L -20.35 -9.5
M -23.75 -9.15
L -23.65 -9.2 -23.4 -9.15
Q -23.4 -9.05 -23.45 -8.95 -23.6 -9 -23.65 -9.05 -23.75 -9.1 -23.75 -9.15
M -23.3 -7.9
L -23.3 -7.75 -23.5 -7.7 -24.95 -8.7 -25.1 -8.75 -25.05 -8.95
Q -24.9 -9 -24.8 -9.1
L -24.65 -9.1
Q -24.65 -9 -24.65 -8.9 -24.6 -8.8 -24.45 -8.75
L -24.15 -8.6 -24.05 -8.4 -23.5 -8.1
Q -23.4 -8 -23.3 -7.9
M -25.25 -8.65
L -25.3 -8.55 -25.45 -8.5 -25.45 -8.65 -25.25 -8.65
M -24.1 -6.2
L -24.05 -6.35 -23.65 -6.35 -23.75 -6.1 -23.8 -6.05 -24 -6.1 -24.1 -6.15 -24.1 -6.2
M -24.6 -6.4
Q -24.75 -6.55 -24.8 -6.7
L -24.4 -6.55
Q -24.35 -6.55 -24.35 -6.5
L -24.35 -6.15
Q -24.55 -6.2 -24.6 -6.4
M -25.3 -7.15
Q -25.3 -7.05 -25.3 -6.95
L -25.4 -6.95 -25.4 -7.15 -25.3 -7.15
M -24.95 -7.65
L -25.15 -7.65 -25.1 -7.8
Q -25 -7.75 -24.85 -7.65 -24.7 -7.65 -24.65 -7.5 -24.8 -7.55 -24.95 -7.65
M -23.35 -7.15
Q -23.2 -7.15 -23.15 -7.05 -23.15 -6.95 -23.2 -6.85 -23.35 -6.85 -23.4 -6.95 -23.4 -7.05 -23.35 -7.15
M -21.65 -7.05
L -21.65 -7.2
Q -21.5 -7.2 -21.45 -7.1
L -21.65 -7.05
M -20.45 -7.4
L -20.45 -7.6
Q -20.3 -7.75 -20.15 -7.75 -20 -7.7 -19.95 -7.55 -20.1 -7.45 -20.2 -7.4
L -20.45 -7.4
M -20.85 -7.35
L -20.85 -7.3 -20.9 -7.15 -21.1 -7.15 -21.15 -7.2
Q -21.15 -7.3 -21.1 -7.35
L -20.85 -7.35
M -20.4 -6.5
L -20.65 -6.55 -20.7 -6.55 -20.6 -6.75 -20.05 -6.75 -20.2 -6.6 -20.05 -6.5
Q -20.1 -6.45 -20.2 -6.4 -20.3 -6.5 -20.4 -6.5
M -20.7 -6.8
Q -20.8 -6.8 -20.85 -6.8
L -20.9 -6.95
Q -20.7 -6.95 -20.7 -6.8
M -26.25 -7.8
L -26.25 -8
Q -26.25 -8.15 -26.2 -8.25
L -25.95 -8.25
Q -25.85 -8.25 -25.75 -8.2
L -25.75 -7.9 -25.85 -7.15 -25.9 -6.95 -26.15 -6.95 -26.3 -7.1 -26.35 -7.25 -26.3 -7.3 -26.1 -7.35 -25.95 -7.5
Q -25.95 -7.6 -26 -7.7
L -26.25 -7.8
M -25.45 -7.75
L -25.45 -7.9
Q -25.35 -7.85 -25.3 -7.8
L -25.45 -7.75
M -26.8 -7.55
L -26.65 -7.55
Q -26.7 -7.5 -26.75 -7.5
L -26.8 -7.55
M -25.95 -6.2
L -25.95 -6.3 -26.2 -6.4
Q -26.4 -6.3 -26.45 -6.2
L -26.55 -6.15 -26.55 -6.4 -26.6 -6.75
Q -26.45 -6.7 -26.3 -6.65
L -26.15 -6.6 -26 -6.65 -25.9 -6.3
Q -25.9 -6.25 -25.95 -6.2
M -25.6 -5.8
Q -25.7 -5.85 -25.75 -5.95 -25.7 -6.05 -25.65 -6.15 -25.55 -6.15 -25.5 -6.05 -25.55 -5.9 -25.6 -5.8
M -26.35 -5.85
Q -26.25 -5.7 -26.2 -5.55 -26.4 -5.55 -26.5 -5.65 -26.65 -5.8 -26.65 -5.95 -26.5 -5.9 -26.35 -5.85
M -26.3 -5.15
Q -26.2 -5.3 -26.1 -5.4 -26 -5.25 -26.05 -5.15
L -25.95 -4.8
Q -25.9 -4.6 -25.85 -4.45 -25.9 -4.4 -25.95 -4.35
L -26.3 -4.6
Q -26.45 -4.75 -26.45 -4.9 -26.3 -5 -26.3 -5.15
M -27.25 -4.05
L -27.25 -4.25 -26.65 -4.1 -26.1 -3.8
Q -26 -3.75 -25.9 -3.65 -25.8 -3.6 -25.7 -3.55
L -25.4 -3.45 -25.4 -3.35 -25.45 -3.15
Q -25.6 -3.15 -25.7 -3.25
L -26.6 -3.8 -26.9 -3.85 -27.25 -4.05
M -26.85 -3.15
L -26.85 -3.25
Q -26.7 -3.2 -26.6 -3.15
L -26.85 -3.15
M -27.15 -3.5
Q -27.1 -3.3 -27.05 -3.15
L -26.95 -2.85 -26.8 -2.6
Q -26.7 -2.5 -26.6 -2.4
L -26.65 -2.15 -26.8 -2.15 -26.8 -1.4
Q -26.9 -1.3 -26.95 -1.3
L -27 -1.4 -27 -1.75
Q -27.05 -1.95 -27.1 -2.05 -27.15 -2.05 -27.15 -2.1
L -27.3 -3.45
Q -27.3 -3.65 -27.15 -3.8 -27.15 -3.6 -27.15 -3.5
M -25.85 -2.35
L -25.55 -2.35
Q -25.5 -2.3 -25.5 -2.25 -25.6 -2.1 -25.7 -2.05
L -26.15 -1.95
Q -26.25 -1.8 -26.4 -1.8
L -26.45 -1.8
Q -26.4 -1.95 -26.35 -2.1
L -26.4 -2.45
Q -26.2 -2.4 -26.15 -2.25
L -25.85 -2.35
M -25.45 -2.65
Q -25.55 -2.75 -25.55 -2.85
L -25.45 -2.85 -25.45 -2.65
M -26.1 -1.55
Q -26.1 -1.7 -26.1 -1.85 -26 -1.8 -25.9 -1.75
L -25.85 -1.7 -25.85 -1.5 -25.95 -1.5 -26.1 -1.55
M -25.45 -1.55
L -25.4 -1.65
Q -25.35 -1.6 -25.35 -1.55
L -25.4 -1.5 -25.45 -1.55
M -26.75 -0.25
L -26.75 -0.6 -26.65 -0.6 -26.7 -0.3 -26.65 -0.25 -26.7 0.05
Q -26.75 -0.1 -26.75 -0.25
M -25.95 -1.2
Q -26 -1.25 -26.05 -1.4
L -25.75 -1.4 -25.8 -1.25 -25.95 -1.2
M -26.4 -1.4
L -26.45 -1.45 -26.4 -1.45 -26.4 -1.4
M -24.3 -5.8
L -24.05 -5.75
Q -24 -5.6 -24 -5.5
L -24.2 -5.5 -24.4 -5.7 -24.6 -5.85
Q -24.7 -5.95 -24.75 -6.05
L -24.45 -6
Q -24.35 -5.9 -24.3 -5.8
M -25.3 -5.7
L -24.8 -5.55 -24.7 -5.55 -24.7 -5.35 -24.95 -5.1 -25 -5.2
Q -25 -5.35 -25.15 -5.35 -25.3 -5.35 -25.35 -5.45 -25.35 -5.6 -25.3 -5.7
M -24.4 -5.2
Q -24.55 -5.2 -24.6 -5.2
L -24.55 -5.65
Q -24.45 -5.55 -24.45 -5.4
L -24.35 -5.4 -24.4 -5.2
M -24.65 -4.55
L -24.75 -4.55 -24.7 -4.7
Q -24.65 -4.6 -24.65 -4.55
M -24.4 -2.6
L -24.5 -2.6
Q -24.7 -2.7 -24.8 -2.75
L -24.9 -2.85
Q -24.9 -2.95 -24.8 -3 -24.65 -2.9 -24.5 -2.8 -24.45 -2.7 -24.4 -2.6
M -25 -2.5
L -24.9 -2.5 -24.95 -2.2
Q -25.05 -2.25 -25.05 -2.3
L -25 -2.5
M -25.15 -2
Q -25.2 -1.9 -25.3 -1.85 -25.4 -1.9 -25.45 -1.9
L -25.3 -2.05
Q -25.2 -2.05 -25.15 -2
M -25 -1.3
L -24.95 -1.4
Q -24.95 -1.35 -24.95 -1.25
L -25 -1.3
M -19.8 -7.55
L -19.85 -7.6 -19.8 -7.7 -19.7 -7.7 -19.7 -7.55 -19.8 -7.55
M -19.35 -6.75
L -19.5 -6.75
Q -19.6 -6.75 -19.65 -6.9
L -19.45 -6.95 -19.3 -6.95 -19.35 -6.8 -19.35 -6.75
M -19.85 3.75
L -20.05 3.75
Q -20.15 3.65 -20.15 3.55
L -19.85 3.6 -19.8 3.6 -19.85 3.75
M -20.1 4.55
L -20.05 4.35 -19.95 4.4 -20 4.55 -20.1 4.55
M -20.15 4.75
L -20.1 4.65 -20.05 4.75 -20.15 4.75
M -20.2 5.35
L -20.2 5.15 -20 5.2 -20 5.35 -20.2 5.35
M -22.95 3.55
L -23 3.6 -23 3.55 -22.95 3.55
M -23.8 3.5
L -24 3.55 -24 3.3
Q -23.8 3.3 -23.8 3.5
M -23.15 4.55
L -23.05 4.55 -23.05 4.6 -23.1 4.85
Q -23.15 4.85 -23.2 4.8
L -23.15 4.55
M -23.05 4.25
Q -23.05 4.1 -23 4
L -22.9 4 -22.95 4.3 -23.05 4.25
M -25.05 5.65
L -24.95 5.6 -24.8 5.65
Q -24.8 5.75 -24.85 5.85 -25 5.75 -25.05 5.65
M -23.1 5.2
L -22.85 5.15 -22.65 5.2
Q -22.55 5.25 -22.5 5.3 -22.55 5.45 -22.6 5.5
L -22.65 5.55 -23.05 5.45
Q -23.15 5.4 -23.25 5.35 -23.2 5.25 -23.1 5.2
M -21.9 4.25
L -21.9 4.45 -22.05 4.45 -22.05 4.25 -21.9 4.25
M -21.55 4.2
Q -21.7 4.15 -21.85 4.1 -21.9 3.95 -21.9 3.8 -21.8 3.85 -21.7 3.9
L -21.55 4.2
M -21.95 5.3
L -21.85 5.25
Q -21.9 5.35 -21.9 5.45
L -21.95 5.4 -21.95 5.3
M -22.4 6.05
L -22.2 6.1
Q -22.15 6.15 -22.1 6.15
L -22.2 6.3 -22.45 6.3
Q -22.5 6.3 -22.5 6.25
L -22.4 6.05
M -22.6 6
L -22.65 6.15 -22.75 6.2 -22.85 6.2 -23 6.1
Q -23.1 6.2 -23.2 6.25
L -23.25 6.25 -23.05 5.95 -22.75 5.95 -22.6 6
M -22.3 5.25
L -22.1 5.25 -22.1 5.45 -22.3 5.5 -22.3 5.25
M -20.9 5.2
Q -20.95 5.1 -20.95 5.05
L -20.9 5.1 -20.9 5.2
M -25.85 0.3
Q -25.75 0.35 -25.7 0.4 -25.75 0.5 -25.8 0.55 -25.9 0.55 -25.9 0.5 -25.9 0.4 -25.85 0.3
M -25.9 0.65
L -25.9 0.75 -26 0.75
Q -26 0.7 -25.95 0.65
L -25.9 0.65
M -26.3 0.95
L -26.35 1.1 -26.6 0.95 -26.85 0.85
Q -26.95 0.8 -27 0.7 -27 0.55 -26.95 0.45 -26.85 0.5 -26.8 0.6
L -26.4 0.85 -26.3 0.95
M -27.6 0.35
Q -27.6 0.45 -27.65 0.5
L -27.85 0.5 -27.8 0.35 -27.6 0.35
M -26.65 1.75
L -26.6 1.75 -26.65 1.85 -26.65 1.75
M -27.1 2.2
L -26.9 2.25
Q -26.95 2.3 -27 2.35 -27.1 2.35 -27.15 2.3 -27.15 2.2 -27.1 2.2
M -27.75 2.65
Q -27.6 2.65 -27.55 2.8 -27.5 3 -27.45 3.1
L -27.3 3.45
Q -27.25 3.6 -27.25 3.8 -27.4 3.75 -27.45 3.55
L -27.75 3 -27.85 2.95 -27.75 2.65
M -26.75 2.65
Q -26.75 2.55 -26.65 2.45 -26.55 2.45 -26.45 2.5 -26.5 2.6 -26.55 2.7 -26.65 2.7 -26.75 2.65
M -25.95 1.55
L -25.85 1.55 -25.85 1.7 -25.95 1.75 -25.95 1.55
M -27.9 1.3
L -27.85 1.1
Q -27.65 1.15 -27.7 1.3
L -27.9 1.3
M -26.5 4.1
Q -26.35 4.15 -26.35 4.3
L -26.4 4.95 -26.45 5.2
Q -26.55 5.1 -26.55 5
L -26.55 4.35 -26.5 4.1
M -26.55 3.4
Q -26.45 3.5 -26.4 3.6 -26.4 3.75 -26.5 3.8
L -26.6 3.85 -26.6 3.65 -26.55 3.4
M 3.05 5.15
Q 3.05 5.3 3.15 5.35
L 3.15 5.15 3.05 5.15
M 12.6 6.9
L 12.6 7 12.85 7
Q 12.75 6.9 12.6 6.9
M 12.4 6.7
Q 12.4 6.65 12.35 6.65
L 12.3 6.65 12.3 6.8 12.4 6.7
M 13.9 6.85
L 13.75 6.85 13.75 7.25 13.85 7.2 13.9 7 13.9 6.85
M 13.85 5.9
L 13.9 6.1 13.95 5.9 13.85 5.9
M 14.55 0.5
L 14.4 0.5 14.3 0.7
Q 14.35 0.85 14.4 0.9 14.55 0.8 14.55 0.65
L 14.55 0.5
M 20.95 4.5
Q 20.9 4.35 20.9 4.2 20.75 4.1 20.6 4.05
L 20.65 4.8 20.8 5.1
Q 20.85 5.25 20.95 5.3
L 20.95 4.5
M 20.55 3.55
L 20.6 3.35 20.45 3.35 20.45 3.6 20.55 3.55
M 30.55 -3.5
L 30.45 -3.5 30.4 -3.3 30.5 -3.35 30.55 -3.5
M 30.2 -5
Q 30.2 -5.2 30.1 -5.3
L 30 -4.9 30.1 -4.25
Q 30.2 -4.05 30.35 -4.05
L 30.4 -4.1 30.4 -4.4 30.2 -5
M 26 -7.75
Q 25.85 -7.8 25.75 -7.85
L 25.5 -7.85 25.5 -7.75
Q 25.45 -7.7 25.4 -7.7
L 25.2 -7.8 24.95 -7.85 24.9 -7.8
Q 25 -7.65 25.15 -7.6
L 25.4 -7.5
Q 25.45 -7.35 25.5 -7.2
L 25.25 -7.45 24.75 -7.65 24.6 -7.9
Q 24.45 -7.85 24.35 -7.85
L 22.85 -7.5 22.65 -7.3 21.8 -6.65 21.35 -6 21.1 -5.45 20.85 -4.55
Q 20.8 -4.35 20.75 -4.25
L 20.65 -3.2 20.6 -3.15 20.6 -2.5 20.7 -2.2
Q 20.65 -2.1 20.55 -2
L 20.5 -1.95 20.5 -1.65
Q 20.5 -1.5 20.55 -1.35 20.65 -1.2 20.75 -1.2
L 20.55 -1 20.55 -0.65 20.45 -0.3 20.5 0.45 20.6 0.75 20.5 1.05
Q 20.55 1.2 20.7 1.2
L 20.75 1.2 20.75 0.9 20.8 0.65 20.7 0.6 20.7 0.45
Q 20.8 0.35 20.9 0.25
L 21.05 0.2 21.1 0.25
Q 21.15 0.4 21.15 0.55
L 21.1 0.85
Q 21.1 1 21.1 1.15
L 21.05 1.45
Q 21.1 1.55 21.2 1.6
L 21.3 1.3 21.45 0.25
Q 21.5 0.15 21.6 0.05
L 21.6 -0.35
Q 21.6 -0.5 21.8 -0.55
L 21.85 -0.55 21.8 -0.2
Q 21.75 -0.05 21.7 0.1 21.8 0.2 21.9 0.3
L 21.9 0.45 21.95 0.5 21.9 0.65
Q 21.8 0.7 21.7 0.75
L 21.55 1 21.45 1.3 21.4 1.65 21.4 1.8 21.1 1.75 20.9 1.75 21.05 2 21 2.35
Q 21.1 2.45 21.15 2.6
L 20.95 2.65 20.7 2.4 20.65 2.3 20.75 2.1
Q 20.7 1.95 20.65 1.85
L 20.65 1.7 20.75 1.65
Q 20.75 1.5 20.65 1.4
L 20.45 1.35 20.4 1.5 20.45 1.9 20.55 2.1 20.5 2.45
Q 20.5 2.6 20.4 2.75
L 20.4 2.9 20.6 2.9 21.15 2.85 21.15 3
Q 21.2 3.15 21.3 3.25
L 21.45 3 21.65 3 21.7 3.1 21.75 3.15
Q 21.7 3.3 21.65 3.35
L 21.55 3.65
Q 21.45 3.75 21.4 3.85
L 21.5 4.1 21.5 4.15 21.4 4.45 21.4 4.9
Q 21.35 4.85 21.3 4.75 21.25 4.6 21.15 4.5 21.1 4.7 21.1 4.85 21.15 4.95 21.25 5.1 21.4 5.1 21.55 5.15 21.45 5.25 21.35 5.3 21.2 5.35 21.1 5.45
L 21.1 5.65 21.2 5.65
Q 21.25 5.6 21.3 5.6
L 21.3 5.8
Q 21.3 5.95 21.3 6.1
L 21.35 6.2 21.65 6.2
Q 21.7 6.2 21.7 6.3 21.65 6.35 21.65 6.45
L 21.9 6.6
Q 21.85 6.65 21.85 6.75
L 22.2 6.95
Q 22.25 6.95 22.25 6.9
L 22.25 6.6 22.45 6.6 22.5 6.7 22.45 7
Q 22.5 7.15 22.6 7.25
L 23.45 7.55
Q 23.65 7.55 23.8 7.6
L 24.1 7.65
Q 24.25 7.7 24.4 7.7
L 25.1 7.8 25.35 7.9
Q 25.45 7.85 25.55 7.75
L 25.85 7.8 26.1 7.8 26.1 7.7 25.85 7.6
Q 25.7 7.5 25.6 7.45
L 25.5 7.3 25.5 7.25 25.6 7.25
Q 25.7 7.4 25.85 7.45 25.95 7.45 26.1 7.55
L 26.3 7.7
Q 26.35 7.85 26.45 7.85
L 27.15 7.85 28.25 7.4 29.1 6.8 29.6 6.1 30.2 4.45
Q 30.25 4.25 30.25 4.1
L 30.4 2.7 30.35 2.35 30.35 2.3 30.4 2.05
Q 30.4 1.85 30.45 1.75
L 30.45 1.35
Q 30.35 1.25 30.25 1.25 30.35 1.15 30.45 1.1
L 30.5 -0.75 30.4 -1.15
Q 30.3 -1.15 30.2 -1.1
L 30.3 -0.75
Q 30.25 -0.65 30.2 -0.55
L 30.3 -0.55
Q 30.3 -0.45 30.25 -0.35
L 30 -0.15
Q 29.9 -0.3 29.9 -0.35
L 29.85 -0.7 29.85 -1.05
Q 29.9 -1.25 29.95 -1.4 29.9 -1.55 29.75 -1.6 29.65 -1.45 29.65 -1.3
L 29.55 -0.3
Q 29.45 -0.15 29.4 -0.05
L 29.35 0.3 29.35 0.5 29.2 0.55
Q 29.2 0.5 29.2 0.45
L 29.2 -0.15 29.1 -0.35
Q 29.1 -0.5 29.15 -0.6
L 29.4 -0.8
Q 29.45 -0.95 29.45 -1.1
L 29.6 -1.75 29.65 -1.8
Q 29.75 -1.8 29.8 -1.75 29.95 -1.75 30.05 -1.75
L 29.95 -2.4 29.9 -2.45 29.85 -2.6
Q 29.9 -2.6 29.9 -2.65 30.05 -2.6 30.2 -2.5
L 30.35 -2.3 30.3 -2
Q 30.3 -1.85 30.35 -1.75 30.3 -1.6 30.25 -1.5 30.3 -1.4 30.4 -1.35
L 30.5 -1.35 30.55 -1.95
Q 30.45 -2.1 30.45 -2.25
L 30.55 -2.85
Q 30.45 -2.85 30.3 -2.8
L 30 -2.9 29.75 -2.85 29.75 -3.25 29.65 -3.2
Q 29.55 -3.15 29.5 -3.05
L 29.45 -2.95
Q 29.35 -3 29.3 -3.05
L 29.25 -3.2 29.25 -3.35 29.5 -3.55 29.6 -3.8 29.65 -3.8 29.55 -4.4 29.55 -4.9
Q 29.6 -4.9 29.65 -4.8 29.65 -4.65 29.75 -4.55
L 29.8 -4.5 29.85 -4.9
Q 29.85 -5 29.8 -5.05
L 29.5 -5.1
Q 29.5 -5.15 29.5 -5.25
L 29.9 -5.4 29.95 -5.65 29.75 -5.65 29.7 -5.85
Q 29.7 -6.05 29.6 -6.15 29.5 -6.2 29.4 -6.2
L 29.3 -6.2 29.35 -6.4
Q 29.2 -6.45 29.1 -6.45
L 29.1 -6.7
Q 29.05 -6.8 28.95 -6.85
L 28.75 -6.9 28.7 -6.75
Q 28.7 -6.6 28.55 -6.6
L 28.5 -6.65 28.55 -6.85
Q 28.5 -7.05 28.45 -7.15
L 28.3 -7.35 27.75 -7.55 26 -7.75
M 25.6 -7.75
L 25.7 -7.75 25.65 -7.65 25.6 -7.75
M 26.4 -7.15
Q 26.45 -7.3 26.5 -7.4
L 26.75 -7.35
Q 26.75 -7.25 26.65 -7.15
L 26.4 -7.15
M 25.65 -6.85
L 25.65 -6.7 25.6 -6.7
Q 25.5 -6.8 25.55 -6.9
L 25.65 -6.9
Q 25.7 -6.9 25.65 -6.85
M 25.55 -6.35
L 25.65 -6.35 25.65 -6 25.6 -6 25.55 -6.05 25.55 -6.35
M 27.65 -6.95
Q 27.65 -7.05 27.65 -7.15
L 28.05 -7 28 -6.9 27.75 -6.7 27.05 -6.25
Q 26.9 -6.2 26.8 -6.15 26.7 -6.05 26.55 -6 26.4 -5.95 26.25 -5.95
L 26.25 -6.1 26.35 -6.2 27.05 -6.6
Q 27.2 -6.7 27.3 -6.75 27.5 -6.85 27.65 -6.9
L 27.65 -6.95
M 28.85 -6.25
L 29.05 -6.25 29.05 -5.8 28.95 -5.8
Q 28.85 -5.75 28.75 -5.7
L 28.8 -5.5 28.95 -5.35 29.1 -5.25
Q 29 -5.15 28.95 -5.05 28.9 -5 28.8 -4.95 28.7 -5 28.65 -5.05
L 28.6 -5.25 28.55 -6.3 28.85 -6.25
M 22.1 -6.25
L 22 -6.3
Q 22.05 -6.35 22.05 -6.4
L 22.15 -6.35 22.1 -6.25
M 22.4 -6.6
L 22.45 -6.9
Q 22.55 -6.8 22.6 -6.7
L 22.55 -6.45 22.55 -6.4 22.6 -6.35 22.6 -6.1 22.5 -6 22.55 -5.9
Q 22.5 -5.85 22.4 -5.8
L 22.4 -6.6
M 23.9 -7.2
Q 23.95 -7.3 24 -7.4
L 24.15 -7.4 24.15 -7.2 23.9 -7.2
M 24.9 -5.1
L 24.9 -4.9 24.7 -4.9 24.7 -5.15 24.9 -5.1
M 25.05 -4.7
Q 25.1 -4.8 25.2 -4.85
L 26.1 -4.9
Q 26.25 -4.85 26.3 -4.8
L 26.2 -4.6 26.4 -4.45 26.55 -4 26.7 -3.8
Q 26.75 -3.7 26.7 -3.55
L 26.8 -2.7 26.8 -2.5 26.95 -2.45 27.4 -2.6 27.5 -2.6
Q 27.5 -2.5 27.5 -2.45 27.4 -2.35 27.3 -2.3
L 27.1 -2.25 26.9 -2.1 26.85 -2.1 26.85 -1.25 26.75 -1.05 26.7 1.3 26.9 1.35
Q 26.95 1.45 27 1.55 27.05 1.65 27.05 1.75 26.95 1.8 26.8 1.85 26.7 1.85 26.65 2
L 26.55 3.5 26.35 4.3 28.5 4.5
Q 28.55 4.6 28.6 4.7 28.7 4.75 28.7 4.85
L 28.6 4.85 26.25 4.55 26 4.6 25.85 4.75
Q 25.7 4.8 25.6 4.85
L 25.3 4.85 25.1 5 25 5 24.8 4.95
Q 24.7 4.85 24.65 4.8
L 24.75 4.6
Q 24.7 4.5 24.6 4.45
L 24.55 4.25 24.35 3.8
Q 24.25 3.7 24.25 3.55
L 24.25 2.65
Q 24.2 2.55 24.15 2.45
L 23.85 2.55 23.65 2.65 23.5 2.65 23.5 2.55
Q 23.5 2.45 23.65 2.4
L 24.05 2.2
Q 24.1 2.05 24.15 1.95
L 24.15 1.65
Q 24.15 1.5 24.05 1.4
L 24.2 1.15
Q 24.25 1 24.25 0.85
L 24.3 -1.1
Q 24.3 -1.25 24.2 -1.3 24.1 -1.35 24 -1.45 23.9 -1.55 23.85 -1.65 23.9 -1.75 24 -1.8
L 24.25 -1.85 24.4 -2.45 24.45 -3.7 24.65 -4.15 24.65 -4.35 22.45 -4.5 22.45 -4.55 22.3 -4.75 22.3 -4.8 23.3 -4.65 24.85 -4.6
Q 24.95 -4.65 25.05 -4.7
M 22.8 -3.25
L 22.8 -3.5 22.9 -3.45 22.9 -3.3 22.8 -3.25
M 22.3 -5.55
Q 22.45 -5.55 22.5 -5.45
L 22.45 -5.2 22.4 -5.15 22.3 -5.15 22.3 -5.55
M 21.6 -5.6
L 21.75 -5.6 21.7 -5.35
Q 21.6 -5.2 21.55 -5.1
L 21.4 -4.75
Q 21.35 -4.6 21.3 -4.45 21.1 -4.5 21.1 -4.7 21.15 -4.85 21.3 -4.95 21.4 -5.1 21.4 -5.2 21.55 -5.4 21.6 -5.6
M 21.05 -4.25
L 21.1 -4.15 21.05 -4.15 21.05 -4.25
M 20.95 -3.15
L 21.15 -3.15 21.15 -3 21 -2.95 20.95 -3.15
M 21 -3.5
L 21 -3.55 21.05 -3.55 21 -3.5
M 22.2 -4.5
Q 22.3 -4.5 22.35 -4.4 22.35 -4.25 22.25 -4.2 22.15 -4.25 22.1 -4.3 22.15 -4.4 22.2 -4.5
M 21.75 -4.15
L 21.95 -4.15 21.9 -4 21.75 -4 21.7 -4.05 21.75 -4.15
M 22.4 -2.85
L 22.4 -2.7 22.15 -2.55 22 -2.4 21.8 -2.35
Q 21.75 -2.35 21.75 -2.4
L 21.75 -2.55
Q 21.8 -2.65 21.9 -2.7
L 22.4 -2.85
M 21.95 -1.55
L 21.95 -1.65 22.05 -1.65
Q 22 -1.6 21.95 -1.55
M 22.75 -2.05
L 22.75 -2.15 22.8 -2.3 23 -2.25 22.9 -2.1 22.75 -2.05
M 21 -2.2
Q 21 -2.3 21.05 -2.3
L 21.2 -2.3 21.15 -2.2
Q 21.05 -2.2 21 -2.2
M 22 -1.2
L 21.95 -1.2
Q 21.95 -1.25 21.9 -1.3
L 21.95 -1.35 22 -1.35 22 -1.2
M 22.4 -0.1
Q 22.45 -0.2 22.5 -0.3 22.65 -0.25 22.7 -0.2 22.7 -0.1 22.65 -0.05
L 22.5 0.1
Q 22.55 0.15 22.6 0.15
L 22.8 0.25
Q 22.9 0.3 22.95 0.35 22.95 0.45 22.9 0.55
L 22.85 0.55 22.45 0.5
Q 22.35 0.55 22.25 0.6
L 22.15 0.65 22.15 0 22.35 -0.05 22.35 0.05 22.4 -0.1
M 22.5 -0.4
Q 22.6 -0.5 22.7 -0.55 22.8 -0.55 22.8 -0.4
L 22.5 -0.4
M 23.1 -0.25
L 23.15 -0.25 23.15 -0.15 23.1 -0.15 23.1 -0.25
M 29.45 -5.6
L 29.55 -5.55 29.45 -5.5 29.45 -5.6
M 29.15 -4.75
L 29.3 -4.7 29.25 -4.45 29.25 -4.25
Q 29.1 -4.25 28.95 -4.35
L 28.8 -4.4
Q 28.7 -4.4 28.65 -4.35
L 28.6 -4.3 28.65 -4.6 28.7 -4.7 28.9 -4.7
Q 29.05 -4.7 29.15 -4.75
M 28.15 -5.85
L 28.15 -6
Q 28.25 -5.95 28.3 -5.9
L 28.15 -5.85
M 27.95 -5.9
L 27.9 -5.75 27.55 -5.6 27.6 -5.75
Q 27.75 -5.8 27.8 -5.9
L 27.95 -5.9
M 28.1 -5.05
L 28.15 -5.25 28.25 -5.25 28.2 -5.05 28.1 -5.05
M 28.4 -4
L 28.3 -3.95
Q 28.3 -4 28.25 -4.05
L 28.25 -4.3 28.45 -4.25
Q 28.45 -4.1 28.4 -4
M 28.1 -3.75
L 28 -3.5 27.75 -3.45 27.6 -3.25
Q 27.5 -3.35 27.45 -3.45 27.4 -3.55 27.45 -3.7
L 27.7 -3.7
Q 27.85 -3.75 27.9 -3.85 28 -3.8 28.1 -3.75
M 28.65 -3.3
L 28.7 -3.5
Q 28.85 -3.45 28.85 -3.3 28.9 -3.1 29 -3 29 -2.95 29 -2.9 29 -2.8 28.95 -2.75 28.8 -2.6 28.7 -2.55
L 28.55 -2.5
Q 28.5 -2.5 28.5 -2.55
L 28.6 -2.85
Q 28.65 -3 28.7 -3.15 28.65 -3.25 28.65 -3.3
M 28.9 -3.6
L 28.95 -3.7
Q 29 -3.85 29.1 -4
L 29.3 -4 29.3 -3.85
Q 29.2 -3.75 29.1 -3.65 29 -3.6 28.9 -3.6
M 27.45 -4.75
L 27.55 -4.75 27.45 -4.55
Q 27.35 -4.45 27.2 -4.4 27.15 -4.5 27.15 -4.65 27.3 -4.75 27.45 -4.75
M 26.35 -5.65
L 26.3 -5.65 26.35 -5.7 26.35 -5.65
M 25.75 -5.2
L 25.8 -5.3 25.85 -5.25 25.75 -5.2
M 26.05 -5.1
L 26.05 -5.25 26.1 -5.35 26.4 -5.35
Q 26.3 -5.2 26.3 -5.1
L 26.15 -5.1 26.1 -5.05 26.05 -5.1
M 26.55 -4.4
L 26.55 -4.55 26.65 -4.55
Q 26.8 -4.55 26.9 -4.45 26.85 -4.35 26.75 -4.35 26.65 -4.35 26.55 -4.4
M 27.35 -4.15
L 27.65 -4.15
Q 27.55 -4.05 27.45 -4.05
L 26.9 -3.7 26.85 -3.75
Q 26.85 -3.9 26.9 -4
L 27.35 -4.15
M 26.95 -3.2
L 27.05 -3.2
Q 27 -3.15 26.95 -3.1
L 26.95 -3.2
M 27.2 -3.35
Q 27.15 -3.4 27.1 -3.45 27.15 -3.55 27.25 -3.65
L 27.35 -3.6 27.3 -3.35 27.2 -3.35
M 27.35 -1.15
L 27.5 -1.15
Q 27.45 -1.05 27.4 -1
L 27.1 -0.85 27.05 -0.85 27.05 -1.05
Q 27.2 -1.15 27.35 -1.15
M 27.65 -0.2
L 27.7 -0.3
Q 27.85 -0.2 27.9 -0.1
L 27.7 -0.05 27.65 -0.2
M 27.5 -0.75
L 27.6 -0.65 27.55 -0.4 27.45 -0.45 27.5 -0.75
M 29.25 -2.2
L 29.55 -2.3 29.75 -2.3 29.75 -2.15
Q 29.65 -2.05 29.55 -2
L 28.15 -1.35 28 -1.35 27.95 -1.45
Q 27.95 -1.6 28.1 -1.65
L 29.25 -2.2
M 29.05 -1.25
L 29.05 -1.35 29.3 -1.35 29.3 -1.25 29.05 -1.25
M 28.05 -0.9
L 28 -0.85 28 -1.05 28.1 -1.05 28.05 -0.9
M 28.05 -0.55
L 28.15 -0.55
Q 28.35 -0.55 28.5 -0.5
L 28.65 -0.4
Q 28.7 -0.5 28.7 -0.6
L 28.85 -0.6 28.75 -0.15
Q 28.8 -0.1 28.85 0
L 28.8 0.1
Q 28.7 0.05 28.6 0 28.5 -0.1 28.3 -0.2
L 28.05 -0.3
Q 28.05 -0.4 28.05 -0.55
M 28.55 0
L 28.55 0.2
Q 28.45 0.3 28.3 0.3
L 28.25 0.15
Q 28.25 0.1 28.3 0.05
L 28.5 -0.05
Q 28.55 -0.05 28.55 0
M 27.85 0.15
Q 27.9 0.2 27.9 0.25
L 27.8 0.25 27.85 0.15
M 28.15 0.5
L 28.15 0.4 28.4 0.45 28.45 0.5 28.4 0.6 28.35 0.6 28.15 0.5
M 28.25 1.4
L 28.25 1.3 28.3 1.3 28.25 1.4
M 29 1.35
L 29.05 1.25 29.1 1.25 29.05 1.4 28.95 1.35 29 1.35
M 28.95 1.75
L 28.9 1.7 29 1.55 29.05 1.6 28.95 1.75
M 28.15 2.3
L 28.05 2.25
Q 28.1 2.15 28.15 2.05
L 28.25 2.1 28.15 2.3
M 28.6 2.75
L 29.05 2.45
Q 29.15 2.35 29.25 2.35 29.3 2.35 29.3 2.4
L 29.25 2.5
Q 29.2 2.65 29.1 2.7
L 28.65 2.85 28.6 2.75
M 29.85 2.95
L 30 3 30 3.2 29.8 3.15 29.85 2.95
M 29.85 2.35
L 29.85 2.2
Q 29.9 2.2 30 2.35 29.9 2.3 29.85 2.35
M 27.5 0.45
L 27.4 0.5 27.4 0.4 27.5 0.45
M 26.05 5.1
L 26.05 4.9 26.25 4.9 26.25 5.1 26.05 5.1
M 30 4.25
L 29.9 4.25 29.95 4.15
Q 30 4.2 30 4.25
M 29.3 4
L 29.3 4.15 29.1 4.15 29.05 4 29.3 4
M 28.05 3.45
L 28.05 3.25 28.2 3.25 28.2 3.45 28.05 3.45
M 28.85 4.5
Q 28.75 4.5 28.65 4.45 28.65 4.35 28.75 4.25 28.85 4.25 28.9 4.3 28.9 4.4 28.85 4.5
M 28.55 5.2
Q 28.65 5.25 28.7 5.35
L 28.65 5.6 28.55 5.65 28.5 5.6 28.5 5.5 28.55 5.2
M 28.5 6.1
L 28.5 5.85
Q 28.6 5.95 28.6 6.1
L 28.6 6.45 28.55 6.8
Q 28.5 6.85 28.45 6.9 28.4 6.8 28.35 6.7
L 28.45 6.65 28.35 6.35
Q 28.4 6.2 28.5 6.1
M 29.3 5.6
L 29.3 5.35 29.5 4.7 29.75 4.45
Q 29.9 4.6 29.85 4.75
L 29.65 4.95 29.5 5.25
Q 29.45 5.4 29.4 5.55
L 29.3 5.6
M 23.55 0.4
L 23.55 0.75 23.45 0.7
Q 23.4 0.55 23.4 0.45
L 23.5 0.4 23.55 0.4
M 23.2 0.25
L 23.05 0.1 23.35 0.1 23.3 0.25
Q 23.25 0.25 23.2 0.25
M 23.05 1.35
L 23 1.5
Q 22.9 1.6 22.8 1.7
L 22.4 1.95 21.3 2.3
Q 21.25 2.15 21.25 2.1
L 22.45 1.6
Q 22.6 1.55 22.65 1.45 22.8 1.4 22.9 1.35
L 23.05 1.35
M 22.9 0.9
L 23 0.85 23.05 0.9 22.95 1.05 22.9 1 22.9 0.9
M 23.55 1.4
L 23.6 1.45 23.55 1.55 23.5 1.55 23.5 1.4 23.55 1.4
M 23.65 1.05
Q 23.75 0.95 23.9 0.9
L 24 0.9
Q 23.95 1 23.9 1.1 23.75 1.2 23.55 1.2 23.55 1.15 23.55 1.1
L 23.65 1.05
M 21.65 1.3
L 21.65 1.2 21.9 1.25 21.9 1.35 21.65 1.3
M 22.15 2.7
L 22.45 2.55 22.55 2.55 22.45 2.75
Q 22.35 2.9 22.3 3
L 22.3 3.55
Q 22.25 3.55 22.2 3.5
L 22.1 3.2 21.95 2.95
Q 22 2.75 22.15 2.7
M 21.8 3.8
L 22.05 3.65
Q 22.1 3.65 22.1 3.7
L 22.05 3.9
Q 21.9 4 21.75 4
L 21.7 3.95 21.8 3.8
M 21.9 4.3
Q 21.95 4.4 22.1 4.45
L 22.3 4.45 22.35 4.2 22.45 4.2 22.25 4.75
Q 22.2 4.7 22.15 4.65
L 21.95 4.7
Q 21.85 4.75 21.7 4.7
L 21.7 4.4 21.75 4.2 21.9 4.3
M 22.6 3.95
Q 22.7 4 22.75 4.05
L 22.75 4.25
Q 22.65 4.25 22.55 4.2 22.55 4.1 22.6 3.95
M 22.2 5
Q 22.3 5.05 22.35 5.1
L 22.45 5.55 22.4 6.1 22.45 6.15 22.4 6.3 22.15 6.35 21.95 6.3 21.95 6.05 22.05 5.8
Q 22.15 5.8 22.25 5.8
L 22.25 5.5
Q 22.2 5.45 22.1 5.4 22 5.35 21.9 5.3 21.95 5.2 22.05 5.1 22.1 5 22.2 5
M 24.05 3.75
L 24.15 3.75 24.15 3.95
Q 24.05 4 23.9 4 23.85 4.15 23.75 4.2
L 23.7 4.25 23.65 4.25 23.5 4.2 23.35 4.05 23.65 4 23.8 3.85 24.05 3.75
M 24.15 4.6
L 24.05 4.55 24.1 4.35 24.2 4.3
Q 24.35 4.3 24.45 4.35
L 24.45 4.5 24.15 4.6
M 23.65 3.4
L 23.8 3.4 23.85 3.45
Q 23.85 3.55 23.8 3.65
L 23.7 3.7
Q 23.7 3.55 23.65 3.4
M 23.5 3.4
Q 23.55 3.55 23.55 3.7 23.45 3.75 23.3 3.7
L 23.05 3.85 22.9 3.8 22.9 3.65 22.95 3.5 23.2 3.45
Q 23.3 3.35 23.35 3.25 23.45 3.35 23.5 3.4
M 23.65 4.45
L 23.8 4.45 23.8 4.8 23.4 4.8 23.65 4.45
M 22.85 5.05
L 22.9 5.25
Q 22.75 5.2 22.75 5.05
L 22.85 5.05
M 23.1 5.9
Q 23.05 5.8 23.05 5.75
L 23.4 5.6
Q 23.45 5.65 23.5 5.7 23.4 5.75 23.35 5.75 23.2 5.85 23.1 5.9
M 24.9 5.15
L 24.95 5.3 24.65 5.35 24.6 5.3
Q 24.65 5.15 24.7 5.05 24.8 5.1 24.9 5.15
M 25.15 5.35
L 25.15 5.2 25.2 5.25 25.2 5.35 25.15 5.35
M 24.25 6.05
Q 24.45 6 24.6 5.95
L 24.8 5.95 24.7 6.05 24 6.55 23.8 6.75 23.35 6.95 23.4 7.05 23.4 7.2 23.25 7.15
Q 23.15 7.05 23 7 22.95 6.95 22.95 6.9 23 6.85 23.1 6.8
L 24.25 6.05
M 24.65 5.7
L 24.65 5.6 24.7 5.6 24.65 5.7
M 24.25 7.25
Q 24.35 7.2 24.45 7.15 24.55 7.15 24.6 7.25 24.5 7.3 24.4 7.35
L 24.35 7.4 24.25 7.35 24.25 7.25
M 25.3 6.95
L 25.3 6.7 25.45 6.7 25.45 6.9 25.3 6.95
M 27.05 7.4
L 26.9 7.45 26.85 7.3 26.9 7.25 27.1 7.25 27.05 7.4
M 25.4 6.2
L 25.4 6.35 25.3 6.35 25.4 6.05
Q 25.4 6.1 25.4 6.2
M 22.25 6.1
L 22.2 6
Q 22.15 6.05 22.1 6.15
L 22.25 6.1
M 25.2 4.65
L 25.05 4.65 25.05 4.75 25.15 4.8 25.2 4.75 25.2 4.65
M 25.75 -4.65
L 25.9 -4.65
Q 25.95 -4.7 25.95 -4.75
L 25.8 -4.75 25.75 -4.65
M 28.75 -6.1
L 28.75 -5.95 28.85 -6.05
Q 28.8 -6.1 28.75 -6.1
M 11 -0.6
Q 11.05 -0.65 11.1 -0.75
L 11 -0.75 11 -0.6
M 13.25 -7.45
L 13.05 -7.45 13.05 -7.35 13.25 -7.4 13.25 -7.45
M 13.9 -7.45
L 13.75 -7.5
Q 13.8 -7.4 13.85 -7.35
L 13.9 -7.45
M 11.8 -7.55
L 11.9 -7.4 11.95 -7.55 11.8 -7.55
M 12.45 -7.5
L 12.5 -7.3 12.7 -7.3 12.75 -7.5 12.45 -7.5
M 1.75 -0.6
L 1.7 -0.4 1.7 -0.2 2.05 -0.15
Q 2 -0.3 2 -0.45
L 2.05 -0.6 1.75 -0.6
M 2.25 -1.2
Q 2.1 -1.15 2 -1.1
L 2.2 -1.05 2.25 -1.2
M 2.2 -0.95
L 2.2 -0.8 2.35 -0.8 2.4 -0.95 2.2 -0.95
M 0.4 -1.25
Q 0.35 -1.15 0.25 -1.05
L 0.45 -1.1
Q 0.55 -1.15 0.65 -1.25
L 0.4 -1.25
M 0.3 -1.6
L 0.1 -1.7
Q 0 -1.6 -0.05 -1.55
L 0.05 -1.3 0.1 -1.25 0.25 -1.35 0.65 -1.55
Q 0.7 -1.6 0.75 -1.65
L 0.55 -1.65 0.3 -1.6
M 2.35 -1.95
Q 2.4 -1.75 2.5 -1.6
L 2.65 -1.95
Q 2.75 -1.95 2.8 -2.05
L 2.65 -2.05
Q 2.45 -2.05 2.35 -1.95
M 1.85 -2.1
L 1.75 -2.15 1.55 -2.05 1.55 -1.9 1.65 -1.9
Q 1.55 -1.85 1.5 -1.8
L 1.5 -1.9 1.4 -1.75
Q 1.35 -1.65 1.3 -1.6
L 1.1 -1.75 1 -1.55 1 -1.4 1.1 -1.45 1.35 -1.45 2.15 -1.8
Q 2.1 -1.95 1.95 -1.95
L 1.8 -2
Q 1.8 -2.05 1.85 -2.1
M 1.4 -6.4
L 1.35 -6.2 1.15 -6.05
Q 1.15 -5.9 1.25 -5.85 1.35 -5.75 1.4 -5.65
L 1.45 -5.6 1 -5.6 1 -4.75
Q 1.1 -4.7 1.2 -4.65 1.35 -4.6 1.45 -4.55
L 1.6 -4.4 1.65 -4.2 1.75 -4
Q 1.8 -3.85 1.8 -3.75
L 1.95 -3.3
Q 2 -3.2 2.1 -3.15 2.15 -3.05 2.2 -2.95
L 2.15 -2.9
Q 2.15 -2.8 2.15 -2.75
L 2.15 -2.5
Q 2.25 -2.4 2.35 -2.35
L 3.2 -2.25
Q 3.3 -2.35 3.4 -2.35 3.5 -2.3 3.6 -2.25
L 3.6 -2.05
Q 3.55 -2.1 3.45 -2.15 3.35 -2.1 3.25 -2.05
L 3.15 -1.85 2.95 -1.8
Q 2.85 -1.75 2.8 -1.7 2.7 -1.6 2.6 -1.6 2.55 -1.55 2.5 -1.5
L 2.7 -1.4 2.65 -1.15 2.65 -0.8
Q 2.7 -0.8 2.75 -0.8
L 2.9 -0.8
Q 2.95 -0.85 3.05 -0.9 3.15 -1 3.25 -1.1 3.35 -1.15 3.4 -1.2
L 3.8 -1.4 3.9 -1.6 4.2 -1.55
Q 4.15 -1.45 4.1 -1.4
L 4.1 -1.35 4.05 -1.35 3.85 -1.4
Q 3.8 -1.25 3.8 -1.15 3.65 -1.05 3.55 -1.05
L 3.35 -1
Q 3.2 -0.95 3.15 -0.9 3.1 -0.75 3.05 -0.65 2.95 -0.6 2.85 -0.55 2.75 -0.55 2.65 -0.5
L 2.5 -0.35
Q 2.45 -0.3 2.4 -0.2
L 2.35 0.05 2.4 0.3 2.3 0.55
Q 2.2 0.6 2.1 0.65 2.05 0.55 2.05 0.45
L 2.05 0.15
Q 1.95 0.1 1.85 0.05 1.75 0.15 1.75 0.2 1.7 0.3 1.65 0.3
L 1.4 0.35 1.4 0.15 1.5 0
Q 1.5 -0.1 1.45 -0.25 1.45 -0.3 1.55 -0.35 1.5 -0.45 1.4 -0.45
L 1.35 -0.5 1.3 -0.3 1.4 -0.15 1.3 -0.15
Q 1.25 -0.15 1.2 -0.3 1.1 -0.2 1 -0.2
L 0.85 -0.25 1 -0.35 1.3 -0.75
Q 1.35 -0.75 1.45 -0.7
L 1.6 -0.7 1.85 -0.85 1.75 -1.3 1.75 -1.35 1.7 -1.3 1.5 -1.3
Q 1.4 -1.25 1.3 -1.2 1.15 -1.15 1.05 -1.1
L 0.85 -1.05
Q 0.75 -1 0.7 -0.9
L 0.8 -0.7
Q 0.8 -0.6 0.75 -0.5
L 0.55 -0.6 0.5 -0.85 0.25 -0.8
Q 0.15 -0.85 0.15 -0.95 0.05 -1.05 -0.05 -1.05 -0.15 -1.1 -0.15 -1.2
L -0.4 -1.6
Q -0.55 -1.65 -0.65 -1.65
L -0.7 -1.9 -0.65 -2.1 -0.45 -2.2
Q -0.35 -2.25 -0.3 -2.35 -0.3 -2.45 -0.35 -2.55
L -0.55 -2.5 -0.5 -2.4
Q -0.55 -2.3 -0.65 -2.25 -0.7 -2.25 -0.7 -2.3
L -0.8 -2.2
Q -0.9 -2.15 -1 -2.15
L -1.05 -2.1 -1.05 -2.25 -1 -2.3 -0.9 -2.35 -0.95 -2.45
Q -1.05 -2.5 -1.1 -2.6
L -1.2 -2.55 -1.15 -2.85
Q -1.25 -2.85 -1.35 -2.8
L -1.5 -2.7 -1.55 -2.75
Q -1.6 -2.85 -1.6 -2.95 -1.75 -2.9 -1.8 -2.9 -1.85 -2.9 -1.85 -2.95
L -1.8 -3.1 -2 -3.3 -1.95 -3.35 -1.7 -3.4
Q -1.65 -3.4 -1.55 -3.35
L -0.95 -3.35 -0.75 -3.45 -0.75 -3.7
Q -0.85 -3.75 -0.9 -3.85 -0.95 -3.95 -1.05 -4 -1.15 -4.1 -1.2 -4.2 -1.3 -4.25 -1.35 -4.35
L -1.55 -4.65 -1.85 -4.95
Q -1.9 -5 -1.95 -5.1 -2.05 -5.25 -2.05 -5.35
L -1.9 -5.45
Q -1.85 -5.5 -1.75 -5.5
L -1.5 -5.25 -1.55 -5.25
Q -1.65 -5.15 -1.7 -5.05
L -1.45 -5.1
Q -1.35 -5.2 -1.3 -5.3 -1.25 -5.35 -1.1 -5.4 -1.05 -5.4 -1 -5.5
L -1.05 -5.75
Q -1.15 -5.85 -1.2 -5.9
L -1.2 -6 -1.4 -6
Q -1.55 -5.95 -1.65 -5.9
L -1.7 -5.7
Q -1.8 -5.7 -1.8 -5.8
L -1.75 -6.05
Q -1.65 -6.1 -1.55 -6.1 -1.4 -6.15 -1.3 -6.15
L -1.25 -7
Q -1.3 -7.1 -1.35 -7.2
L -1.4 -7.45
Q -1.4 -7.55 -1.5 -7.65
L -2.65 -7.7 -2.9 -7.65 -3.15 -7.7 -3.3 -7.7 -3.25 -7.55 -3.15 -7.35 -2.8 -7.1
Q -2.75 -7 -2.7 -6.9
L -2.7 -6.8 -2.25 -6.9 -2.35 -6.65
Q -2.4 -6.55 -2.45 -6.5 -2.55 -6.45 -2.6 -6.45 -2.65 -6.55 -2.75 -6.6 -2.8 -6.7 -2.85 -6.8
L -3.15 -7.1
Q -3.25 -7.15 -3.3 -7.25 -3.35 -7.35 -3.4 -7.45 -3.45 -7.5 -3.55 -7.6
L -3.6 -3.15
Q -3.65 -3 -3.7 -2.9
L -3.85 2.5
Q -3.8 2.5 -3.75 2.55
L -3.7 2.45
Q -3.6 2.4 -3.5 2.3
L -3.45 2.2
Q -3.4 2.25 -3.4 2.3 -3.45 2.4 -3.5 2.45
L -3.7 2.55
Q -3.75 2.7 -3.8 2.75
L -3.8 3.3 -3.9 3.55 -3.95 5.95 -3.85 6.2 -3.8 6.15 -3.8 6.3
Q -3.9 6.35 -3.9 6.4
L -3.9 6.7 -4 6.8 -0.65 6.95 -0.4 1.55 -0.35 1.3
Q -0.3 1.25 -0.15 1.2
L 1.1 1.05 1.15 1.15 1.2 1.2 1.35 1.2
Q 1.45 1.3 1.5 1.35
L 1.65 1.5
Q 1.75 1.6 1.75 1.7 1.75 1.85 1.8 1.95 1.85 2.05 1.85 2.15
L 1.85 2.45
Q 1.95 2.55 2 2.6
L 2.05 2.85 2.05 3.15
Q 2 3.25 2 3.35
L 1.95 5.1
Q 2 5.15 2.05 5.15
L 2.1 5
Q 2.1 5.05 2.15 5.05
L 2.1 5.2
Q 2 5.3 1.9 5.35
L 2 5.55 2 5.85
Q 2.1 5.95 2.1 6.05
L 2.15 6.35
Q 2.25 6.4 2.45 7
L 5.25 7.1
Q 5.4 7.1 5.5 7.1
L 5.4 6.95 5.25 6.5
Q 5.2 6.45 5.15 6.3
L 4.95 5.65 4.95 5.4 4.7 5.3
Q 4.7 5.15 4.55 5.15 4.45 5.2 4.45 5.3
L 4.6 5.45 4.6 5.7
Q 4.5 5.75 4.45 5.75 4.4 5.65 4.3 5.65 4.25 5.8 4.15 5.8 4.2 5.95 4.3 6
L 4.35 6 4.3 6.05 4.15 6 4.05 5.5 3.85 5.55 3.8 5.35 3.5 5.4 3.4 5.3 3.25 5.5
Q 3.15 5.6 3.05 5.6 2.95 5.6 2.85 5.65 2.8 5.75 2.65 5.75 2.6 5.6 2.55 5.5
L 2.75 5.4
Q 2.7 5.3 2.65 5.15 2.55 5.1 2.45 5.05
L 2.5 4.75 2.85 4.55 3 4.3 3.1 4.35 3.15 4.6
Q 3.15 4.75 3.2 4.85
L 3.25 4.95 3.4 4.65 3.4 4.35
Q 3.4 4.3 3.45 4.3
L 3.55 4.35 3.85 4.35
Q 3.95 4.4 4 4.4
L 4.05 4.4 4.1 4.35 4.15 4.35 4.05 4.25 3.8 4.2
Q 3.75 4.2 3.75 4.15
L 3.8 4 4.3 4
Q 4.45 4.05 4.45 4.15
L 4.45 4.7
Q 4.45 4.8 4.45 4.85
L 4.95 4.6
Q 4.95 4.5 5 4.4
L 4.8 4.3 4.7 4.2 4.95 4.05 5 1.8 4.8 1.95 4.65 1.9
Q 4.65 1.85 4.75 1.8
L 4.9 1.65 4.95 1.65 4.95 1.45
Q 4.85 1.35 4.85 1.25
L 4.85 0.95
Q 4.8 0.85 4.7 0.8
L 4.65 0.6 4.4 0.25 3.6 -0.15
Q 3.55 -0.3 3.55 -0.4
L 3.8 -0.4 4.25 -0.55 4.4 -0.7 4.55 -0.8
Q 4.6 -0.9 4.7 -0.95
L 5.25 -1.65 5.4 -2.1 5.45 -3.75
Q 5.4 -3.85 5.4 -3.95
L 5.5 -3.95 5.55 -4.7
Q 5.45 -4.85 5.4 -4.9
L 5.4 -5.2 5.25 -5.65 5.15 -5.85
Q 5.15 -5.9 5.1 -6
L 5 -6.2 4.55 -6.75 4 -7.1 3.35 -7.35 1.9 -7.65 -1.1 -7.75 -1.15 -6.6 -1.1 -6.35
Q -1.05 -6.25 -1 -6.15 -0.95 -6.1 -0.85 -6.05 -0.8 -5.95 -0.75 -5.9
L -0.7 -5.65 -0.65 -5.6 -0.5 -5.6 -0.45 -5.75 -0.35 -5.7
Q -0.25 -5.6 -0.25 -5.5
L -0.2 -5.2
Q -0.25 -5.15 -0.3 -5.2
L -0.3 -5.3
Q -0.3 -5.4 -0.4 -5.45 -0.45 -5.35 -0.5 -5.25 -0.45 -5.15 -0.35 -5.1
L -0.6 -5.1
Q -0.75 -5.1 -0.8 -5 -0.85 -5 -0.9 -5.05
L -0.9 -4.35 -0.85 -4.1
Q -0.8 -4 -0.7 -3.95
L -0.55 -3.8
Q -0.45 -3.75 -0.4 -3.65 -0.4 -3.55 -0.55 -3.55
L -0.6 -3.5
Q -0.6 -3.4 -0.55 -3.35
L -0.3 -3.35
Q -0.25 -3.45 -0.2 -3.55
L -0.3 -3.75 -0.1 -4.5
Q -0.15 -4.6 -0.2 -4.7
L -0.55 -4.7 -0.6 -4.4 -0.65 -4.35 -0.75 -4.4 -0.7 -4.65
Q -0.65 -4.75 -0.6 -4.8 -0.5 -4.8 -0.4 -4.85 -0.3 -4.9 -0.2 -4.9
L -0.2 -4.8
Q -0.15 -4.85 -0.15 -4.9
L -0.05 -5.1
Q 0.05 -5.05 0.1 -4.95
L 0.25 -4.85
Q 0.3 -4.8 0.4 -4.8
L 0.35 -5.05 0.45 -5 0.6 -4.85
Q 0.75 -4.8 0.85 -4.8
L 0.85 -5.05
Q 0.85 -5.2 0.8 -5.3
L 0.75 -5.3 1.1 -6.15 1.3 -6.2
Q 1.35 -6.3 1.4 -6.4
M 0.95 -7.1
L 1.1 -7.1 1.05 -6.95 0.95 -6.95 0.9 -7.05 0.95 -7.1
M 0.1 -6.45
Q 0.05 -6.35 0 -6.25
L -0.1 -6.25
Q -0.1 -6.35 -0.05 -6.45
L 0.1 -6.45
M 1.05 -6.6
L 1.05 -6.45
Q 1 -6.35 0.95 -6.3 0.85 -6.3 0.85 -6.4 0.85 -6.5 0.9 -6.6
L 1.05 -6.6
M 4.9 -3.45
L 4.95 -3.45 4.95 -3.35 4.85 -3.3
Q 4.75 -3.35 4.75 -3.4
L 4.9 -3.45
M 3.55 -3.55
L 3.6 -3.5 3.6 -3.45 3.55 -3.55
M 1.45 -5.35
Q 1.5 -5.3 1.6 -5.25
L 1.7 -5.05 1.55 -4.9
Q 1.5 -4.8 1.4 -4.75
L 1.45 -5.05
Q 1.4 -5.2 1.3 -5.3 1.2 -5.4 1.2 -5.5 1.35 -5.45 1.45 -5.35
M 0.55 -5.65
L 0.6 -5.65 0.55 -5.55 0.55 -5.65
M 0.2 -5.95
L 0.4 -5.95 0.4 -5.75 0.2 -5.75 0.2 -5.95
M 0.55 -5.25
Q 0.55 -5.35 0.6 -5.4
L 0.65 -5.35 0.6 -5.2
Q 0.55 -5.2 0.55 -5.25
M 0.25 -5.3
L 0.1 -5.3 0.1 -5.5
Q 0.2 -5.4 0.25 -5.3
M 4.7 -2.7
Q 4.75 -2.8 4.85 -2.9
L 4.95 -2.9
Q 4.9 -2.8 4.8 -2.75
L 4.7 -2.7
M 4.55 -2.4
L 4.55 -2.35 4.5 -2.2 4.4 -2.3 4.4 -2.5 4.55 -2.4
M 5 -2.35
Q 4.95 -2.35 4.9 -2.4
L 4.95 -2.65
Q 5.05 -2.6 5.1 -2.55
L 5 -2.35
M 3.9 -2.65
L 4.25 -2.7 4.35 -2.7
Q 4.25 -2.65 4.2 -2.65
L 4.15 -2.6 4.05 -2.6 4.1 -2.45
Q 4.1 -2.3 4.2 -2.2
L 4.1 -2.15 4.05 -2.25 3.7 -2.35 3.75 -2.5 3.9 -2.65
M 3.5 -1.55
L 3.5 -1.65 3.65 -1.75
Q 3.75 -1.75 3.8 -1.65
L 3.6 -1.55 3.5 -1.55
M 2.6 -0.2
Q 2.75 -0.3 2.85 -0.4
L 2.95 -0.4 2.9 -0.15
Q 2.95 0 3.1 0.05 3.2 -0.05 3.3 -0.15
L 3.4 -0.1 3.4 0.2 3.1 0.25
Q 3 0.1 2.9 0 2.7 -0.1 2.6 -0.2
M 3.45 -0.6
L 3.45 -0.75 3.6 -0.7 3.45 -0.6
M 4.05 -0.95
Q 4.25 -0.95 4.3 -0.8
L 4 -0.8 4.05 -0.95
M 5.2 -3.05
Q 5.15 -2.95 5.1 -2.95
L 5.05 -3 5.15 -3.1 5.2 -3.05
M 4.15 0.35
L 4.2 0.35
Q 4.15 0.55 4.1 0.65
L 3.95 0.65 3.95 0.15
Q 4.05 0.25 4.15 0.35
M 4.4 1.2
L 4.4 1.15 4.45 1.2 4.4 1.2
M 4.1 1.25
L 3.9 1.25
Q 3.8 1.2 3.65 1.15
L 3.65 1.2 3.75 1.5 3.55 1.45
Q 3.45 1.35 3.35 1.25 3.3 1.15 3.2 1.1
L 3.1 1.05 3.15 0.95 3.25 0.6
Q 3.35 0.5 3.45 0.45 3.5 0.3 3.6 0.2 3.7 0.3 3.75 0.4 3.7 0.55 3.5 0.6 3.45 0.65 3.4 0.75
L 3.9 1
Q 4 1.05 4.1 1.15
L 4.1 1.25
M 2.75 0.25
L 2.65 0.25 2.7 0.15 2.75 0.25
M 2.6 0.65
L 3 0.75
Q 2.95 0.85 2.95 0.9
L 2.6 0.85 2.5 0.7 2.6 0.65
M 3.7 0.8
L 3.7 0.7
Q 3.85 0.7 3.85 0.8
L 3.7 0.8
M 3.35 2.25
L 3.35 2.15 3.4 2.15 3.4 2.25 3.35 2.25
M 4 1.75
L 4.05 1.6 4.3 1.65 4.25 1.8 4.1 1.8 4 1.75
M 4.45 1.65
L 4.35 1.6 4.3 1.35
Q 4.45 1.5 4.45 1.65
M 1.95 1.05
L 1.95 1.2 1.85 1.05 1.95 1.05
M 1.2 0.7
Q 1.1 0.65 1.05 0.55
L 1 0.35
Q 1.1 0.4 1.15 0.45 1.2 0.6 1.2 0.7
M 0.8 0.85
L 0.75 0.85 0.6 0.8 0.6 0.7 0.8 0.7 0.8 0.85
M 2.05 2.05
Q 2.066015625 2.116015625 2.1 2.15 2.05 2.2 2 2.2
L 2.05 2.05
M 2.45 4.15
Q 2.25 4.25 2.1 4.25 2.15 4.15 2.25 4.05 2.45 4 2.6 3.95 2.55 4.05 2.45 4.15
M 4.7 3.25
L 4.6 3.25
Q 4.7 3.15 4.8 3.05
L 4.85 3.1 4.85 3.2 4.7 3.25
M 3.4 3.1
L 3.2 3.1
Q 3.25 3 3.3 2.95 3.35 3 3.4 3.1
M 3.55 3.4
L 3.65 3.4 3.65 3.5 3.45 3.55
Q 3.35 3.7 3.2 3.8
L 3.1 3.75
Q 3.15 3.65 3.2 3.55 3.35 3.45 3.55 3.4
M 3.05 3.35
Q 2.9 3.3 2.85 3.2
L 2.85 3.1 2.8 3.1 2.85 2.95
Q 2.95 3.05 3 3.1
L 3.05 3.35
M 3.15 4.2
L 3.15 4 3.25 4 3.25 4.2 3.15 4.2
M 3.55 4
L 3.55 3.95 3.6 3.95 3.55 4
M 4.05 6.4
L 4.1 6.3
Q 4.15 6.35 4.15 6.4
L 4.05 6.4
M -2.65 -7.25
L -2.6 -7.5 -2.5 -7.45
Q -2.5 -7.35 -2.55 -7.25
L -2.65 -7.25
M -3.3 -6.2
L -3.2 -6.2 -3.3 -5.95 -3.3 -5.9 -3.4 -6 -3.3 -6.2
M -1.65 -7.05
Q -1.7 -7.1 -1.7 -7.15
L -1.6 -7.15 -1.65 -7.05
M -0.2 -7.3
L -0.1 -7.3
Q -0.1 -7.15 -0.15 -7
L -0.25 -7 -0.2 -7.3
M -1 -7.4
Q -0.85 -7.3 -0.8 -7.15
L -1 -7.15 -1 -7.4
M -0.8 -6.35
L -0.8 -6.65
Q -0.7 -6.75 -0.6 -6.75 -0.55 -6.65 -0.5 -6.6 -0.5 -6.5 -0.4 -6.4 -0.45 -6.3 -0.55 -6.25
L -0.8 -6.15
Q -0.75 -6.25 -0.65 -6.3
L -0.65 -6.4 -0.8 -6.35
M -0.5 -6.15
L -0.3 -6.15 -0.4 -6.05 -0.55 -6 -0.5 -6.15
M -2.15 -5.75
L -2.15 -5.55 -2.25 -5.55 -2.2 -5.75 -2.15 -5.75
M -2.2 -6.05
L -2.2 -6.1
Q -2.1 -6.25 -1.95 -6.25 -1.85 -6.2 -1.8 -6.1
L -2.05 -6.1 -2.2 -6.05
M -2.45 -4.85
L -2.45 -4.65 -2.55 -4.65 -2.6 -4.85 -2.45 -4.85
M -2.5 -3.2
Q -2.45 -3.15 -2.45 -3.1
L -2.55 -3.1 -2.5 -3.2
M -2 -3.65
L -2.2 -3.65 -2.2 -3.8
Q -2.05 -3.8 -2 -3.65
M -1.4 -3.8
L -1.45 -3.65
Q -1.5 -3.7 -1.55 -3.8
L -1.6 -3.85 -1.55 -4
Q -1.4 -3.95 -1.4 -3.85
L -1.4 -3.8
M -1.75 -3.65
Q -1.8 -3.75 -1.85 -3.8 -1.95 -3.85 -2 -4
L -1.8 -3.9 -1.75 -3.65
M -1.2 -4
L -1.15 -3.95 -1.15 -3.85 -1.2 -3.9 -1.2 -4
M -1 -3.7
Q -1.05 -3.6 -1.1 -3.55
L -1.2 -3.5 -1.1 -3.7 -1 -3.7
M -3 -5.95
L -2.75 -6.05 -2.75 -5.8
Q -2.95 -5.75 -3.05 -5.75
L -3.1 -5.9
Q -3.05 -5.95 -3 -5.95
M -2.95 -4.9
Q -3 -4.9 -3 -4.95
L -2.75 -4.95 -2.95 -4.9
M -3.25 -3.1
L -3.4 -3.15 -3.25 -3.15 -3.25 -3.1
M -2.9 -3.25
L -2.75 -3.15 -2.85 -3 -2.95 -3
Q -2.95 -3.1 -2.9 -3.25
M -3.45 -2.8
L -3.45 -2.9 -3.35 -2.85 -3.45 -2.8
M -3.55 -1.95
Q -3.4 -1.85 -3.3 -1.75
L -3.1 -1.7 -3.15 -1.5
Q -3.25 -1.5 -3.35 -1.55
L -3.3 -1.45
Q -3.2 -1.35 -3.1 -1.3 -3.25 -1.15 -3.4 -1.15
L -3.5 -1.1 -3.5 -1.4
Q -3.55 -1.5 -3.6 -1.55
L -3.45 -1.6
Q -3.5 -1.8 -3.55 -1.95
M -3.1 -2.05
L -3.1 -1.9
Q -3.2 -1.95 -3.2 -2.05
L -3.1 -2.05
M -3.35 -0.75
Q -3.45 -0.75 -3.5 -0.85 -3.6 -0.9 -3.6 -1 -3.5 -0.95 -3.45 -0.95
L -3.35 -0.75
M -2.55 -1.45
Q -2.6 -1.5 -2.6 -1.55
L -2.5 -1.55 -2.55 -1.45
M -2.4 -0.2
L -2.45 -0.35
Q -2.35 -0.3 -2.3 -0.25
L -2.4 -0.2
M -1.3 -0.35
L -1.3 -0.45
Q -1.25 -0.4 -1.2 -0.35
L -1.3 -0.35
M -0.4 -0.85
L -0.4 -0.9 -0.35 -1 -0.25 -1
Q -0.3 -0.9 -0.3 -0.85
L -0.4 -0.85
M -0.7 -1.3
L -0.8 -1.25 -0.8 -1.4
Q -0.7 -1.4 -0.7 -1.3
M -1.1 -1.05
L -1.2 -1.05 -1.15 -1.15 -1.1 -1.05
M -0.7 -0.55
L -0.75 -0.65
Q -0.8 -0.75 -0.85 -0.9 -0.7 -0.85 -0.6 -0.8 -0.55 -0.7 -0.55 -0.6
L -0.7 -0.55
M -0.55 0.35
L -0.6 0.4 -0.6 0.65
Q -0.65 0.85 -0.65 1 -0.7 1.15 -0.8 1.2
L -0.9 1.25 -0.85 1
Q -0.85 0.85 -0.8 0.75
L -0.65 0.1
Q -0.6 0.2 -0.55 0.35
M -0.9 1.4
L -0.8 1.4 -0.8 1.95 -0.9 2.25 -0.95 2.55
Q -1 2.45 -1 2.35
L -0.9 1.7 -0.9 1.4
M -1.15 0.95
L -1.2 1.05 -1.3 1.05 -1.3 0.8 -1.2 0.8 -1.15 0.95
M -1.45 0.25
Q -1.45 0.1 -1.4 0
L -1.1 -0.1
Q -1.15 0 -1.2 0.1 -1.3 0.2 -1.45 0.25
M -1.8 0.6
L -1.95 0.6 -1.9 0.45
Q -1.85 0.5 -1.8 0.6
M -2.25 0.7
Q -2.15 0.75 -2.15 0.8
L -2.25 0.85 -2.25 0.7
M -1.75 2.1
L -1.85 2.1
Q -1.9 2 -1.9 1.9
L -1.95 1.9 -1.95 1.85 -1.9 1.85 -1.9 1.9
Q -1.75 2 -1.75 2.1
M -2.05 2.25
L -1.95 2.25 -1.95 2.9
Q -2 3.05 -2.05 3.15
L -2.15 3.5
Q -2.2 3.4 -2.25 3.35
L -2.15 3.3 -2.05 2.65 -2.05 2.25
M -0.75 2.55
L -0.75 2.35 -0.65 2.35 -0.65 2.5 -0.75 2.55
M -3.55 0.15
L -3.6 0.25 -3.6 0.15 -3.55 0.15
M -3.25 0.85
L -3.25 1.05
Q -3.3 0.95 -3.3 0.85
L -3.25 0.85
M -2.6 1
Q -2.6 1.1 -2.65 1.1
L -2.65 1 -2.6 1
M -3 2.25
L -2.9 2.3 -2.9 2.5 -2.95 2.8 -3.05 2.8 -3 2.25
M -2.8 1.75
L -2.75 1.75 -2.75 1.8 -2.8 1.75
M -3.05 1.55
L -2.9 1.55 -3.15 1.75 -3.2 1.75 -3.05 1.55
M -3.1 3.05
L -3.05 3.05 -3.05 3.1 -3.1 3.3 -3.1 3.05
M -2.65 3.85
Q -2.65 3.75 -2.6 3.7
L -2.4 3.65
Q -2.3 3.6 -2.15 3.6
L -1.95 3.6 -2.05 3.8 -2.45 3.85 -2.5 3.85 -2.6 3.9 -2.65 3.85
M -3.6 3.3
L -3.65 3.45 -3.75 3.45 -3.75 3.3 -3.6 3.3
M -3.5 3.2
L -3.6 3.15 -3.45 2.9 -3.4 3.15 -3.5 3.2
M -3.6 4.05
L -3.35 4 -3.25 3.8
Q -3.2 3.9 -3.15 4
L -3.35 4.1 -3.55 4.15
Q -3.65 4.2 -3.7 4.25 -3.75 4.2 -3.75 4.1
L -3.6 4.05
M -2.95 4.55
L -2.9 4.2
Q -2.9 4.25 -2.85 4.25
L -2.85 4.6 -2.95 4.55
M -3.05 4
Q -3.1 3.95 -3.1 3.9
L -2.95 3.85 -2.95 4 -3.05 4
M -3.45 5.05
L -3.55 5.45 -3.7 5.45 -3.55 5.15
Q -3.55 4.95 -3.65 4.75 -3.5 4.9 -3.45 5.05
M -1.2 3.35
L -1.05 3.35 -1.1 3.45
Q -1.2 3.45 -1.2 3.35
M -1.15 3.6
L -1.25 3.85 -1.3 3.85 -1.3 3.6 -1.15 3.6
M -0.95 4.15
Q -1 4.05 -1 3.95
L -0.75 3.95 -0.75 4.1 -0.95 4.15
M -1.65 3.7
Q -1.65 3.6 -1.7 3.5
L -1.55 3.45 -1.45 3.45 -1.65 3.7
M -2.2 4.05
L -2.15 3.95 -2.15 4.2 -2.2 4.05
M -1.75 4.2
L -1.8 4
Q -1.75 3.9 -1.7 3.85
L -1.65 4.1
Q -1.7 4.15 -1.75 4.2
M -1.4 4.95
L -1.4 4.8
Q -1.3 4.8 -1.25 4.9
L -1.4 4.95
M -2.15 5
Q -2 5.05 -1.9 5.1 -1.8 5.15 -1.75 5.25
L -2 5.25 -2.05 5.2 -2.15 5
M -2.5 5.5
L -2.4 5.5 -2.45 5.65 -2.5 5.65 -2.5 5.5
M -2.25 5.55
L -2.2 5.45 -2.2 5.55 -2.25 5.55
M 8.85 -7
Q 8.75 -7.05 8.65 -7.05
L 8.6 -5.25
Q 8.65 -5.1 8.7 -5
L 8.65 -4.7
Q 8.65 -4.6 8.6 -4.55
L 10.6 -4.6 11 -4.55 10.95 -3.7
Q 11 -3.55 11.05 -3.45 11.05 -3.3 11 -3.2
L 10.95 -3.15 11 -2.9 11.15 -2.7
Q 11 -2.65 10.95 -2.55 10.95 -2.45 11.05 -2.35
L 11.25 -2.25
Q 11.25 -2.4 11.4 -2.4
L 11.5 -2.35 11.45 -2.25
Q 11.35 -2.2 11.3 -2.1
L 11.1 -2.2
Q 11 -2.1 11 -1.95 10.95 -1.8 10.9 -1.65
L 11 -1.45
Q 11.15 -1.45 11.25 -1.3
L 11.25 -1.2 10.9 -1.2 10.9 -1.05 11.15 -0.95 11.25 -0.95 11.2 -0.75 11.2 -0.5 11 -0.4 10.95 -0.2 11.1 -0.2
Q 11.15 -0.1 11.2 0
L 10.9 0.05 10.95 0.3
Q 11.05 0.4 11.15 0.45 11.1 0.5 11 0.5
L 10.85 0.5
Q 10.85 0.6 10.9 0.7 11 0.7 11.05 0.8 11 0.9 10.9 1
L 10.85 1.2 10.9 1.25 11 1.3
Q 10.85 1.35 10.8 1.5 10.9 1.6 11 1.65 11.1 1.7 11.2 1.75
L 11.2 1.8 11.05 1.8 11.05 1.75 11 1.7 10.8 1.75 10.8 1.8 10.85 2.1 10.9 2.15 11.05 2.1
Q 11.1 2.1 11.15 2.1
L 11.1 2.3 11 2.45 11.1 2.45 11.1 2.6 11 2.55
Q 10.85 2.45 10.75 2.4
L 10.75 5.65
Q 10.7 5.8 10.65 5.95
L 10.9 7
Q 11 7.1 11.1 7.15
L 11.45 7.15 11.45 6.85
Q 11.45 6.75 11.45 6.65
L 11.55 6.7 11.55 7.15 11.8 7.2
Q 11.95 7.2 12 7.1
L 12.15 6.55 12.25 6.35
Q 12.3 6.2 12.3 6.1
L 12.3 6 12 6
Q 12.05 5.95 12.15 5.9
L 12.35 6
Q 12.45 6.1 12.5 6.2 12.6 6.25 12.7 6.3
L 12.95 6.25 13.05 6.2 13 6.05 13 5.95 13.1 5.9
Q 13.15 5.9 13.15 5.95
L 13.15 6.25
Q 13.2 6.3 13.25 6.3
L 13.4 5.9 13.4 5.7
Q 13.25 5.65 13.15 5.7
L 13.05 5.75
Q 13 5.7 13 5.65
L 13.15 5.55
Q 13.25 5.45 13.35 5.4
L 13.45 5.55 13.45 5.4 13.4 5.2 13.45 4.9
Q 13.55 4.95 13.6 5
L 13.75 4.8 13.95 4.7 14.05 4.45 14.1 4.15 14.05 3.9 14.3 3.85
Q 14.25 3.7 14.2 3.6
L 14.05 3.65 13.95 3.4 13.85 3.4 13.85 3.25 13.8 3.2
Q 13.9 3.2 13.95 3.25 14 3.2 14.05 3.15
L 14.1 1.55
Q 14.15 1.4 14.2 1.35
L 14.35 1.4 14.35 1.25 14.3 1.15 14.15 1.15 14.1 1 14.15 0.95
Q 14.2 0.8 14.15 0.7
L 14.25 0.5 14.25 0.25 14.5 0.35 14.55 0.05 14.5 -0.55 14.5 -0.7
Q 14.4 -0.7 14.4 -0.65 14.35 -0.5 14.25 -0.4
L 14.25 -0.15
Q 14.35 -0.1 14.4 0.05 14.3 0.1 14.25 0.1
L 14 -0.45 14.3 -0.85 14.35 -0.9 14.35 -1
Q 14.35 -1.05 14.3 -1.1 14.25 -1.2 14.25 -1.25
L 14.45 -1.5 14.55 -1.75 14.6 -2.25 14.6 -2.3
Q 14.55 -2.35 14.5 -2.45 14.5 -2.5 14.55 -2.55 14.5 -2.6 14.4 -2.6
L 13.6 -2.85
Q 13.5 -2.8 13.45 -2.75
L 13.1 -2.75
Q 13 -2.7 12.9 -2.65
L 12.4 -2.7 12.35 -2.65 12.1 -2.65 11.85 -2.8
Q 11.9 -2.9 12 -3 12.1 -2.9 12.2 -2.85
L 12.4 -2.85 12.4 -3.05 12.35 -3.15
Q 12.45 -3.15 12.5 -3.1
L 12.7 -2.95
Q 12.8 -2.9 12.95 -2.85 13.05 -2.95 13.15 -3
L 13.35 -3.1 13.55 -3.05 13.65 -3
Q 13.75 -3.1 13.75 -3.25 13.8 -3.3 13.85 -3.3
L 13.9 -2.9 14.5 -3
Q 14.6 -3.1 14.6 -3.2
L 14.7 -4.15
Q 14.7 -4.3 14.75 -4.4
L 16.65 -4.4
Q 16.8 -4.4 16.9 -4.45
L 16.9 -5.45 16.85 -5.6 16.65 -5.45
Q 16.5 -5.4 16.4 -5.4 16.45 -5.5 16.6 -5.6
L 16.8 -5.7
Q 16.9 -5.8 16.95 -5.9
L 17 -7.35 15.85 -7.4
Q 15.75 -7.3 15.65 -7.3 15.5 -7.25 15.45 -7.1 15.3 -7.1 15.2 -7.1
L 14.9 -7.1 14.7 -7
Q 14.55 -7 14.5 -7.1
L 14.25 -7.05
Q 14.15 -7 14.15 -6.9 14 -6.9 13.9 -6.95
L 13.5 -7.25 13.35 -7.25 13.35 -7.15
Q 13.2 -7.15 13.05 -7.15
L 12.95 -6.95
Q 12.9 -7.05 12.85 -7.15 12.8 -7.2 12.75 -7.2
L 12.7 -7.1 12.65 -7.05 12.4 -7.05
Q 12.3 -7.05 12.2 -6.95
L 12.1 -6.9 12.05 -7 11.9 -7.2 11.8 -7.3 11.65 -6.95
Q 11.55 -7 11.45 -7.05
L 11.45 -7.15 11.5 -7.2 11.6 -7.15
Q 11.55 -7.3 11.45 -7.3
L 11.15 -7.3 10.85 -7.2 10.7 -7.1
Q 10.55 -7 10.5 -6.9 10.45 -6.85 10.35 -6.8
L 10.25 -6.7 10.25 -6.8 10.15 -7.05 10.9 -7.35 11.15 -7.4
Q 11.2 -7.5 11.2 -7.55
L 8.7 -7.6 8.65 -7.25 8.85 -7.2
Q 8.95 -7.15 9.05 -7.05 9 -6.95 8.95 -6.8
L 8.9 -6.65 8.85 -7
M 9.2 -6.6
Q 9.15 -6.65 9.15 -6.7
L 9.45 -6.8
Q 9.6 -6.85 9.7 -6.85
L 9.9 -6.95
Q 9.9 -6.85 9.9 -6.75
L 9.2 -6.6
M 9.3 -4.9
L 9.1 -4.85 8.95 -4.9 8.8 -5.3
Q 9 -5.25 9.2 -5.15 9.25 -5.3 9.3 -5.45 9.4 -5.3 9.5 -5.15
L 10.15 -5.15
Q 10.15 -5.35 10.15 -5.45
L 10.35 -5.45 10.35 -5.15 11.6 -5.05 11.6 -4.95
Q 11.4 -4.85 11.25 -4.85
L 9.3 -4.9
M 16.05 -7.05
Q 16.1 -7 16.15 -7
L 16.1 -6.95 16.1 -6.6 15.85 -5.3 15.8 -5.35 16.05 -7.05
M 15.25 -6.6
L 15.25 -6.4 15.1 -6.35 15.05 -6.45 15.05 -6.65
Q 15.15 -6.65 15.25 -6.6
M 10.95 -6.55
L 11 -6.7 11.05 -6.7 11.05 -6.65 11 -6.55 10.95 -6.55
M 11.4 -6.4
L 11.55 -6.5
Q 11.6 -6.5 11.65 -6.45
L 11.65 -6.25 11.5 -6.25
Q 11.4 -6.35 11.4 -6.4
M 11.4 -6.75
L 11.4 -6.65
Q 11.3 -6.7 11.3 -6.75
L 11.4 -6.75
M 13.5 -6.7
L 13.55 -6.85 13.55 -6.7 13.5 -6.7
M 13.4 -6.35
L 13.45 -6.55 13.45 -6 13.4 -6 13.4 -6.35
M 14 -6.45
L 14.15 -6.45 14.1 -6.3 14 -6.25 14 -6.45
M 14.9 -6.85
L 14.9 -6.9 14.95 -6.9 14.9 -6.85
M 12.75 -6.35
Q 12.7 -6.55 12.65 -6.7 12.8 -6.6 12.9 -6.5
L 12.9 -6.15 12.8 -6.1 12.75 -6.35
M 14.1 -6.05
L 14 -5.9 14 -6.1
Q 14.05 -6.05 14.1 -6.05
M 12.95 -5.6
Q 12.8 -5.65 12.75 -5.7
L 12.75 -5.8 12.95 -5.8 12.95 -5.6
M 12.95 -5.3
L 12.85 -5.25 12.8 -5.4
Q 12.95 -5.4 12.95 -5.3
M 12.85 -4.75
L 12.95 -5 13.05 -5 12.95 -4.5
Q 12.85 -4.4 12.75 -4.35 12.65 -4.25 12.55 -4.15
L 12.5 -4.1 12.55 -4.3 12.85 -4.75
M 13.35 -5.1
L 13.35 -5.35
Q 13.4 -5.25 13.45 -5.15
L 13.35 -5.1
M 13.35 -4.1
L 13.4 -4.05 13.4 -3.75
Q 13.4 -3.5 13.35 -3.35 13.25 -3.5 13.2 -3.7 13.25 -3.9 13.35 -4.1
M 12.8 -3.9
Q 12.85 -4.05 12.95 -4.1
L 13.05 -4.1
Q 12.95 -4 12.9 -3.9
L 12.8 -3.9
M 13.75 -3.6
L 13.8 -3.75
Q 13.85 -3.65 13.85 -3.6
L 13.75 -3.6
M 14.3 -3.7
L 14.35 -3.75
Q 14.4 -3.75 14.45 -3.7
L 14.3 -3.7
M 10.9 -5.95
Q 10.9 -5.85 10.8 -5.8 10.7 -5.85 10.7 -5.95
L 10.9 -5.95
M 11.35 -5.45
L 11.25 -5.45 11.25 -5.65
Q 11.35 -5.55 11.35 -5.45
M 11.05 -6.1
Q 11.15 -6.05 11.15 -5.95
L 11.05 -5.95 11.05 -6.1
M 10.45 -5.55
L 10.45 -5.7
Q 10.5 -5.65 10.55 -5.55
L 10.45 -5.55
M 10.85 -5.3
L 10.8 -5.3 10.8 -5.5
Q 10.85 -5.4 10.85 -5.3
M 11.25 -3.4
Q 11.15 -3.5 11.15 -3.6
L 11.4 -3.6 11.4 -3.45 11.25 -3.4
M 11.95 -4.05
Q 11.9 -4 11.8 -3.95
L 11.85 -4.3
Q 12 -4.3 12.15 -4.2 12.1 -4.05 11.95 -4.05
M 11.6 -3.25
Q 11.65 -3.25 11.7 -3.2
L 11.55 -3.15 11.6 -3.25
M 11.8 -3.3
L 11.85 -3.45 12.15 -3.4 12.1 -3.25 12.05 -3.25 11.8 -3.3
M 12.55 -3.6
L 12.55 -3.7 12.75 -3.65 12.55 -3.6
M 11.55 -2.7
L 11.55 -2.9
Q 11.65 -2.8 11.65 -2.7
L 11.55 -2.7
M 11.5 -1.75
L 11.55 -1.9
Q 11.6 -1.85 11.6 -1.75
L 11.5 -1.75
M 12 -2
L 12 -2.3
Q 12.1 -2.15 12.1 -2
L 12 -2
M 12.05 -1.7
L 12.05 -1.85 12.1 -1.75 12.05 -1.7
M 12.15 -1
L 12.25 -1 12.2 -0.85
Q 12.15 -0.95 12.15 -1
M 11.55 -1.45
Q 11.65 -1.4 11.7 -1.35
L 11.5 -1.35 11.55 -1.45
M 11.7 -0.75
L 11.8 -0.5
Q 11.65 -0.5 11.55 -0.6
L 11.5 -0.75 11.55 -1
Q 11.7 -0.9 11.7 -0.75
M 12.25 -0.1
L 12.25 -0.25
Q 12.3 -0.2 12.35 -0.1
L 12.25 -0.1
M 12.2 -0.45
L 12.2 -0.6
Q 12.3 -0.55 12.35 -0.45
L 12.2 -0.45
M 13.7 -2.35
Q 13.6 -2.45 13.55 -2.6
L 13.75 -2.55 13.7 -2.35
M 12.75 -2
L 12.75 -2.1
Q 12.8 -2.05 12.8 -2
L 12.75 -2
M 13.3 -1.75
L 13.3 -2.1 13.4 -2.1
Q 13.4 -1.75 13.4 -1.6 13.35 -1.65 13.3 -1.75
M 13.25 -0.8
L 13.1 -0.8 13.2 -0.95 13.3 -0.95 13.25 -0.8
M 13.35 -0.45
L 13.3 -0.45 13.3 -0.7 13.4 -0.7 13.35 -0.45
M 16.05 -4.65
Q 16.1 -4.75 16.2 -4.8 16.3 -4.75 16.35 -4.7 16.35 -4.55 16.25 -4.5 16.15 -4.55 16.05 -4.65
M 15.25 -5.15
L 15.3 -5.3
Q 15.4 -5.2 15.4 -5.1
L 15.25 -5.15
M 13.9 0.05
L 13.75 0.1 13.75 -0.05
Q 13.85 0 13.9 0.05
M 13.35 0
Q 13.4 0.1 13.4 0.2
L 13.35 0.75 13.3 1
Q 13.25 0.85 13.3 0.75
L 13.25 0.2 13.35 0
M 13.2 1.45
L 13.25 1.15
Q 13.3 1.3 13.35 1.4
L 13.3 2.3
Q 13.25 2.2 13.2 2.05
L 13.2 1.45
M 13.7 1.15
L 13.7 1.5 13.6 1.5
Q 13.6 1.25 13.65 1.1
L 13.7 1.15
M 13.6 1.95
L 13.65 1.8 13.75 1.8 13.7 1.9 13.6 1.95
M 13.65 2.1
L 13.7 2.2 13.65 2.3
Q 13.5 2.25 13.5 2.1
L 13.65 2.1
M 13.3 2.85
Q 13.35 3 13.5 3.05
L 13.6 3.05
Q 13.6 3.1 13.5 3.15
L 13.35 3.1 13.3 3.2
Q 13.25 3.35 13.2 3.45
L 13.1 3.45 13.2 2.6 13.3 2.6 13.3 2.85
M 13.8 2.85
L 13.85 2.75 13.9 2.8 13.85 2.95 13.8 2.85
M 13.45 2.85
L 13.55 2.65 13.65 2.65 13.65 2.85 13.45 2.85
M 12.05 1.2
Q 12.1 1.25 12.15 1.35 12.1 1.45 12.05 1.5 11.95 1.45 11.95 1.35
L 12.05 1.2
M 11.45 0.8
Q 11.45 0.9 11.4 0.95 11.35 0.95 11.35 0.9
L 11.45 0.8
M 12.55 1.7
Q 12.6 1.8 12.65 1.9
L 12.5 1.9
Q 12.5 1.8 12.55 1.7
M 12.1 2
L 12.1 1.7 12.2 1.7 12.25 2.05 12.25 2.35
Q 12.15 2.2 12.15 2.05
L 12.1 2
M 11.45 2.4
L 11.6 2.35 11.75 2.35 11.65 2.55 11.45 2.4
M 12.1 3.05
L 12.15 3
Q 12.3 3.05 12.3 3.15
L 12.15 3.15 12.1 3.05
M 12.35 3.75
Q 12.4 3.75 12.45 3.85
L 12.35 3.85
Q 12.25 3.8 12.25 3.75
L 12.35 3.75
M 11.85 3.8
Q 11.8 3.6 11.8 3.55
L 11.9 3.5 11.95 3.5 11.9 3.6
Q 11.9 3.7 11.85 3.8
M 11.55 3.8
L 11.55 3.7 11.6 3.7 11.55 3.8
M 11 3.7
L 11.05 3.5
Q 11.15 3.55 11.2 3.6
L 11.3 3.85 11.25 4.45
Q 11.15 4.4 11.1 4.3
L 11.1 4
Q 11.1 3.9 11.05 3.8
L 11 3.7
M 11.2 5.85
L 11.35 5.65 11.45 5.65 11.35 5.8
Q 11.4 5.95 11.45 6.05
L 11.55 6.25
Q 11.45 6.3 11.35 6.35
L 11.3 6.4 11.3 6.3
Q 11.3 6.2 11.25 6.1
L 11.2 6.05 11.2 5.85
M 11 5.05
L 11.1 4.75
Q 11.15 4.65 11.2 4.5 11.3 4.65 11.3 4.8
L 11.3 5.15
Q 11.4 5.25 11.45 5.35 11.4 5.4 11.3 5.4
L 11.2 5.15 11 5.05
M 12.3 5
L 12.3 5.1 12.15 5.05 11.85 5.1
Q 11.95 5 12.05 4.95
L 12.3 5
M 11.6 5.3
L 11.7 5.15 11.75 5.2 11.65 5.3 11.6 5.3
M 12.15 5.8
Q 12.1 5.75 12.05 5.7
L 12.2 5.7 12.15 5.8
M 12.5 5.7
L 12.55 5.6 12.6 5.65 12.5 5.7
M 13.8 3.75
L 13.85 3.65
Q 13.9 3.65 13.9 3.75
L 13.8 3.75
M 13.5 3.4
Q 13.6 3.45 13.65 3.5 13.6 3.6 13.6 3.7
L 13.6 4.15
Q 13.5 4.15 13.5 4.05
L 13.45 3.6
Q 13.45 3.45 13.5 3.4
M 13.2 3.85
L 13.25 3.85 13.2 4.2
Q 13.2 4.15 13.2 4.1
L 13.2 3.85
M 12.8 4.6
L 12.85 4.6 12.8 4.75 12.75 4.75 12.8 4.6
M 13.1 4.55
L 13.15 4.45 13.2 4.55 13.1 4.55
M 12.95 5.2
L 13 5.2 13 5.35 12.95 5.4 12.95 5.2 Z"/>
</g>

<g id="Layer0_0_MEMBER_1_FILL">
<path fill="#FFFFFF" stroke="none" d="
M -45 8.55
Q -45.2 8.5 -45.1 8.1 -44.8 7.35 -44.95 6.9 -45.55 6.8 -45.5 7.7 -45.5 8.8 -45.75 8.85
L -45 8.85 -45 8.55 Z"/>
</g>

<g id="Layer0_0_MEMBER_2_FILL">
<path fill="#FFFFFE" stroke="none" d="
M 20.85 11.75
Q 16.9 11.2 10.25 11.05 0.9 10.95 -0.7 10.85 -15.7 10 -19.7 10.3
L -19.7 10.6 20.85 11.75 Z"/>
</g>

<g id="Layer0_0_MEMBER_3_FILL">
<path fill="#FFFFFF" stroke="none" d="
M 15.3 9.75
L 15.25 10.4
Q 15.3 10.4 16.55 10.5 17.45 10.6 17.35 9.85
L 15.3 9.75 Z"/>
</g>

<g id="Layer0_0_MEMBER_4_FILL">
<path fill="#FFFFFF" stroke="none" d="
M 25.55 10
L 25.5 10.65
Q 25.6 10.65 26.85 10.75 27.7 10.85 27.6 10.1
L 25.55 10 Z"/>
</g>

<g id="Layer0_0_MEMBER_5_FILL">
<path fill="#FFFFFE" stroke="none" d="
M -10.35 -10.55
L -10.35 -10.15
Q -12.75 -10.45 -12.95 -9 -12.15 -9.45 -10.8 -8.85 -9.65 -8.3 -8.8 -9.2
L -10.85 -9.3
Q -11 -10.05 -10 -9.95 -8.9 -9.7 -8.8 -10.2 -9.75 -10.35 -9.8 -10.55
L -10.35 -10.55 Z"/>
</g>

<g id="Layer0_0_MEMBER_6_FILL">
<path fill="#FFFFFE" stroke="none" d="
M 2.35 -7.3
Q 2.35 -7.65 1.9 -7.6 2.4 -9.4 2.7 -9.55 2.45 -9.8 2.2 -9.9 2 -9.05 1.1 -7.3 1.85 -7.5 1.9 -7.3
L 2.35 -7.3 Z"/>
</g>

<g id="Layer0_0_MEMBER_7_FILL">
<path fill="#FFFFFE" stroke="none" d="
M 46.15 12.35
L 48.2 12.4
Q 48.25 12.05 47.9 11.9 47.5 11.75 47.45 11.4 47.2 11.75 46.9 11.75 46.5 12.05 46.15 12.05
L 46.15 12.35 Z"/>
</g>

<g id="Layer0_0_MEMBER_8_FILL">
<path fill="#FFFFFF" stroke="none" d="
M 13.35 7.35
L 14.1 7.35 14.25 3.85 13.95 3.8
Q 14.05 4.35 13.65 4.45
L 13.65 4.75
Q 13.35 5.4 12.6 6.35 12.65 6.6 13.05 6.75 13.4 6.95 13.35 7.35 Z"/>
</g>

<g id="Layer0_0_MEMBER_9_FILL">
<path fill="#FFFFFF" stroke="none" d="
M -43.05 8.85
Q -42.05 8.9 -42.45 9.15 -42.5 9.15 -43.25 9.1 -43.75 9 -43.75 9.45 -43.2 9.25 -41.7 9.4 -40.6 9.55 -40.15 8.85 -40.5 8.45 -41.3 8.75 -42 8.95 -42.15 8.15
L -43.45 8.15
Q -44.1 8.75 -43.05 8.85 Z"/>
</g>

<g id="Layer0_0_MEMBER_10_FILL">
<path fill="#FFFFFF" stroke="none" d="
M 48.4 -12.1
Q 46.7 -10.3 43.5 -4.7 40 1.65 38.3 3.85 38.65 4.15 38.85 3.85 42.45 -1.05 48.4 -12.1 Z"/>
</g>

<g id="Layer0_0_MEMBER_11_FILL">
<path fill="#FFFFFE" stroke="none" d="
M 37.45 11.4
Q 36.55 10.85 34.9 11.2 32.85 11.6 33.5 13.9 34.7 14 35.25 12.8 35.8 11.7 36.35 11.95 36.8 12.1 40.55 13.85 40.85 13.8 37.45 11.4 Z"/>
</g>

<g id="Layer0_0_MEMBER_12_FILL">
<path fill="#FFFFFF" stroke="none" d="
M 46.6 2.6
Q 45.95 2.75 45.8 2.25
L 45.65 1.65
Q 45.2 2.1 44.85 2.25 44.75 1.65 45.2 1.55 45.65 1.35 45.6 0.95
L 40.55 0.8
Q 41.5 1.75 41.5 1.8 42.2 1.65 43.7 2.4 45.05 3.1 46.6 2.6 Z"/>
</g>

<g id="Layer0_0_MEMBER_13_FILL">
<path fill="#FFFFFF" stroke="none" d="
M 43 2.85
Q 42.8 2.4 41.3 2.05 40.1 1.7 40 0.75
L 37.45 0.7
Q 37.5 1.25 38.45 1.15 39.45 1 39.5 1.45 38.85 1.3 39.05 1.65 39.3 2.1 38.95 2.05 38.9 1.5 37.9 1.3 36.85 1.15 36.85 2 36.95 1.95 38.4 2.05 38.65 2.65 38.15 2.65 37.6 2.7 37.65 2.95 38.4 3.25 39.15 2.3 39.85 1.4 40.2 1.8 42.75 3.25 43 2.85 Z"/>
</g>

<g id="Layer0_0_MEMBER_14_FILL">
<path fill="#FFFFFF" stroke="none" d="
M 35 1.5
Q 35.1 1 34.85 0.65
L 34.4 0.65
Q 34.2 1.3 34.6 1.3 34.6 1.1 34.9 1.3 34.8 1.55 34.25 1.55 33.8 1.65 33.8 1.95 33.85 2.05 34.1 2.95 34.3 3.6 34.8 3.55 34.9 2.8 35.55 2.6 35.35 2 35.1 2 34.35 2.1 34.3 1.95 34.85 2 35 1.5 Z"/>
</g>

<g id="Layer0_0_MEMBER_15_FILL">
<path fill="#FFFFFF" stroke="none" d="
M -47.95 -5.85
Q -47.95 -4.8 -47.3 -5.05 -47.25 -4.95 -46.7 -4.8 -46.4 -6.95 -47.7 -7.1 -46.65 -6.3 -47.45 -6.15 -47.45 -6.45 -47.9 -6.75 -47.85 -6.1 -48.5 -5.85
L -48.5 -5.45
Q -48.2 -5.5 -47.95 -5.85 Z"/>
</g>

<g id="Layer0_0_MEMBER_16_FILL">
<path fill="#FFFFFF" stroke="none" d="
M 45.55 4.5
Q 45.95 4.4 45.8 3.85 44.05 3.35 43.8 3.35 43.15 3.3 45.55 4.5 Z"/>
</g>

<g id="Layer0_0_MEMBER_17_FILL">
<path fill="#FFFFFE" stroke="none" d="
M -49.75 -5.85
Q -49.55 -5.65 -49.35 -4.75 -49.2 -4 -48.75 -3.9
L -48.75 -4.2
Q -49.25 -6.5 -49.65 -7.45
L -49.95 -7.45 -50 -6.5
Q -49.8 -6.5 -49.75 -5.85 Z"/>
</g>

<g id="Layer0_0_MEMBER_18_FILL">
<path fill="#FFFFFE" stroke="none" d="
M -34.25 -9.3
Q -34.5 -9.8 -34.8 -9.75 -35.75 -9.65 -35.8 -9.65 -34.6 -10.95 -36.25 -10.65 -36.55 -9 -37.6 -9.05 -37.4 -10.15 -36 -11.25
L -37.5 -11.3 -37.55 -10.6
Q -37.8 -10.05 -38.6 -10.25 -39.35 -10.55 -39.35 -11.05 -39.8 -9.95 -39.15 -9.95 -38.7 -9.95 -38.1 -10 -38.05 -9.1 -38.9 -8.45
L -36.85 -8.4
Q -36.75 -9.7 -35.85 -8.65 -36.05 -9.25 -35.6 -9.15 -34.75 -8.95 -34.25 -9.3 Z"/>
</g>

<g id="Layer0_0_MEMBER_19_FILL">
<path fill="#FFFFFE" stroke="none" d="
M -20.15 3.75
Q -20.05 2.45 -19.1 3.4 -19.25 2.95 -18.9 3 -18 3.25 -17.55 2.85 -17.8 2.3 -18.1 2.35 -18.6 2.55 -19.1 2.5 -17.8 1.15 -19.55 1.5 -19.9 3.1 -20.85 3.1 -20.75 2.1 -19.3 0.9
L -20.8 0.85 -20.85 1.5
Q -21.15 2.25 -22.6 1.1 -23.1 2.2 -22.35 2.2 -22 2.15 -21.3 2.1 -21.35 3 -22.15 3.7
L -20.15 3.75 Z"/>
</g>

<g id="Layer0_0_MEMBER_20_FILL">
<path fill="#FFFFFE" stroke="none" d="
M -4.65 -0.65
L -2.8 -0.55 -2.55 -0.6
Q -2.45 -1.9 -1.55 -0.85 -1.75 -1.45 -1.3 -1.35 -0.5 -1.15 0.05 -1.5 -0.2 -2.05 -0.55 -2 -1.45 -1.85 -1.5 -1.85 -0.3 -3.15 -1.95 -2.85 -2.25 -1.2 -3.3 -1.3 -3.1 -2.35 -1.7 -3.45
L -3.2 -3.5 -3.25 -2.85
Q -3.5 -2.25 -4.3 -2.5 -5.05 -2.75 -5.05 -3.25 -5.5 -2.2 -4.85 -2.15 -4.4 -2.15 -3.85 -2.2 -3.75 -1.25 -4.65 -0.65 Z"/>
</g>

<g id="Layer0_0_MEMBER_21_FILL">
<path fill="#FFFFFE" stroke="none" d="
M -17.55 -10.75
L -17.55 -9.75
Q -17.9 -9.6 -18.2 -10.15 -18.4 -10.6 -18.55 -10.1 -18.1 -10.05 -18.35 -9.4 -18.65 -8.8 -18.3 -8.85 -17.05 -9.4 -17.25 -10.75
L -17.55 -10.75 Z"/>
</g>

<g id="Layer0_0_MEMBER_22_FILL">
<path fill="#FFFFFF" stroke="none" d="
M 37.1 3
Q 37.95 2.75 36.4 2.65 36.65 1.95 36.6 1.35 36.35 1.7 36.1 1.55 35.55 1.35 35.35 1.3 35.75 3.05 37.1 3 Z"/>
</g>

<g id="Layer0_0_MEMBER_23_FILL">
<path fill="#FFFFFE" stroke="none" d="
M 48.05 -0.25
Q 48 -0.55 48.5 -0.6 49 -0.55 48.8 -1.2
L 46.95 -1.2
Q 46.95 -1.1 46.5 -0.95
L 46.5 -0.65
Q 47.9 -0.3 48.9 2.05 48.9 0.7 48.05 -0.25 Z"/>
</g>

<g id="Layer0_0_MEMBER_24_FILL">
<path fill="#FFFFFF" stroke="none" d="
M -49.6 -10.65
Q -49.6 -11.7 -49.05 -12.5 -48.7 -13 -48 -13.8
L -49.75 -13.85 -49.95 -7.45 -49.65 -7.45 -49.6 -10.65 Z"/>
</g>

<g id="Layer0_0_MEMBER_25_FILL">
<path fill="#FFFFFE" stroke="none" d="
M -31.8 -13.05
L -31.8 -13.4 -36.2 -13.55 -36.2 -13.15
Q -35.75 -13.3 -35.65 -12.8
L -35.75 -11.25 -35.2 -11.2 -35.2 -11.55
Q -34.8 -12.2 -35.2 -12.8 -34.5 -13.55 -31.8 -13.05 Z"/>
</g>

<g id="Layer0_0_MEMBER_26_FILL">
<path fill="#FFFFFE" stroke="none" d="
M 0 -12.2
L 0 -12.5 -2.1 -12.55 -2.1 -12.25
Q -0.5 -12.15 -1.35 -11.9 -1.4 -11.45 -1.85 -10.95 -1.65 -10.95 -1.3 -11.5 -1 -12 -0.55 -11.9 -0.5 -12.05 0 -12.2 Z"/>
</g>

<g id="Layer0_0_MEMBER_27_FILL">
<path fill="#FFFFFF" stroke="none" d="
M 10.15 -12
Q 25.05 -11.65 33.95 -11 34.05 -10.15 34.1 -10.15 34.2 -10 34.45 -10.95 39.15 -11.75 43.95 -10.7
L 44.15 -10.7
Q 44.55 -11.4 46.75 -10.95 47.25 -11.1 47.3 -11.25
L -14 -12.95 -14 -12.6
Q -9.2 -12.4 10.15 -12 Z"/>
</g>

<g id="Layer0_0_MEMBER_28_FILL">
<path fill="#FFFFFF" stroke="none" d="
M -50.3 6.55
L -50.35 8.75 -48.85 8.75
Q -48.85 8.15 -49.6 7.7 -50.3 7.2 -50.3 6.55 Z"/>
</g>

<g id="Layer0_0_MEMBER_29_FILL">
<path fill="#FFFFFF" stroke="none" d="
M 48.8 -1.2
Q 49 -0.55 48.5 -0.6 48 -0.55 48.05 -0.25 48.9 0.7 48.9 2.05
L 48.95 2.65 49.2 2.7
Q 49.85 -1 48.8 -1.2 Z"/>
</g>

<g id="Layer0_0_MEMBER_30_FILL">
<path fill="#FFFFFE" stroke="none" d="
M 4.35 -0.05
Q 5.45 -0.45 5.95 -1 3.9 -0.4 2.5 0.65
L 2.75 0.75
Q 3.2 0.35 4.35 -0.05 Z"/>
</g>

<g id="Layer0_0_MEMBER_31_FILL">
<path fill="#FFFFFF" stroke="none" d="
M 6.45 -4.2
Q 6.8 -4.1 6.6 -4.5 6.6 -4.6 7.2 -4.6
L 7.7 -5.8
Q 6.9 -4.8 6.25 -5 6.65 -4.6 6.45 -4.2 Z"/>
</g>

<g id="Layer0_0_MEMBER_32_FILL">
<path fill="#FFFFFE" stroke="none" d="
M 13.1 -4.8
Q 13.5 -4.9 13.6 -4.25 13.65 -3.75 13.9 -4.15 13.2 -4.95 13.15 -5.5
L 13.25 -5.8
Q 12.55 -4.95 12.05 -4.9
L 12.7 -4.6
Q 12.95 -5 13.1 -4.8 Z"/>
</g>

<g id="Layer0_0_MEMBER_33_FILL">
<path fill="#FFFFFE" stroke="none" d="
M 28.65 5.55
Q 31.35 2.05 32.7 0.7
L 24.2 7.9
Q 26.15 8.95 28.65 5.55 Z"/>
</g>

<path id="Layer0_0_MEMBER_0_1_STROKES" stroke="#065626" stroke-width="1" stroke-linejoin="round" stroke-linecap="round" fill="none" d="
M 49.75 9.95
Q 49.7 12.9 46.7 12.85
L -47.25 9.9
Q -50.25 9.85 -50.2 6.8
L -49.65 -10.6
Q -49.5 -13.55 -46.55 -13.55
L 47.4 -10.6
Q 50.45 -10.45 50.35 -7.5
L 49.75 9.95 Z"/>
</defs>

<g transform="matrix( 1, 0, 0, 1, 51,14.5) ">
<use xlink:href="#Layer0_0_FILL"/>
</g>

<g transform="matrix( 1, 0, 0, 1, 51,14.5) ">
<use xlink:href="#Layer0_0_MEMBER_0_1_STROKES"/>
</g>

<g transform="matrix( 1, 0, 0, 1, 51,14.5) ">
<use xlink:href="#Layer0_0_MEMBER_1_FILL"/>
</g>

<g transform="matrix( 1, 0, 0, 1, 51,14.5) ">
<use xlink:href="#Layer0_0_MEMBER_2_FILL"/>
</g>

<g transform="matrix( 1, 0, 0, 1, 51,14.5) ">
<use xlink:href="#Layer0_0_MEMBER_3_FILL"/>
</g>

<g transform="matrix( 1, 0, 0, 1, 51,14.5) ">
<use xlink:href="#Layer0_0_MEMBER_4_FILL"/>
</g>

<g transform="matrix( 1, 0, 0, 1, 51,14.5) ">
<use xlink:href="#Layer0_0_MEMBER_5_FILL"/>
</g>

<g transform="matrix( 1, 0, 0, 1, 51,14.5) ">
<use xlink:href="#Layer0_0_MEMBER_6_FILL"/>
</g>

<g transform="matrix( 1, 0, 0, 1, 51,14.5) ">
<use xlink:href="#Layer0_0_MEMBER_7_FILL"/>
</g>

<g transform="matrix( 1, 0, 0, 1, 51,14.5) ">
<use xlink:href="#Layer0_0_MEMBER_8_FILL"/>
</g>

<g transform="matrix( 1, 0, 0, 1, 51,14.5) ">
<use xlink:href="#Layer0_0_MEMBER_9_FILL"/>
</g>

<g transform="matrix( 1, 0, 0, 1, 51,14.5) ">
<use xlink:href="#Layer0_0_MEMBER_10_FILL"/>
</g>

<g transform="matrix( 1, 0, 0, 1, 51,14.5) ">
<use xlink:href="#Layer0_0_MEMBER_11_FILL"/>
</g>

<g transform="matrix( 1, 0, 0, 1, 51,14.5) ">
<use xlink:href="#Layer0_0_MEMBER_12_FILL"/>
</g>

<g transform="matrix( 1, 0, 0, 1, 51,14.5) ">
<use xlink:href="#Layer0_0_MEMBER_13_FILL"/>
</g>

<g transform="matrix( 1, 0, 0, 1, 51,14.5) ">
<use xlink:href="#Layer0_0_MEMBER_14_FILL"/>
</g>

<g transform="matrix( 1, 0, 0, 1, 51,14.5) ">
<use xlink:href="#Layer0_0_MEMBER_15_FILL"/>
</g>

<g transform="matrix( 1, 0, 0, 1, 51,14.5) ">
<use xlink:href="#Layer0_0_MEMBER_16_FILL"/>
</g>

<g transform="matrix( 1, 0, 0, 1, 51,14.5) ">
<use xlink:href="#Layer0_0_MEMBER_17_FILL"/>
</g>

<g transform="matrix( 1, 0, 0, 1, 51,14.5) ">
<use xlink:href="#Layer0_0_MEMBER_18_FILL"/>
</g>

<g transform="matrix( 1, 0, 0, 1, 51,14.5) ">
<use xlink:href="#Layer0_0_MEMBER_19_FILL"/>
</g>

<g transform="matrix( 1, 0, 0, 1, 51,14.5) ">
<use xlink:href="#Layer0_0_MEMBER_20_FILL"/>
</g>

<g transform="matrix( 1, 0, 0, 1, 51,14.5) ">
<use xlink:href="#Layer0_0_MEMBER_21_FILL"/>
</g>

<g transform="matrix( 1, 0, 0, 1, 51,14.5) ">
<use xlink:href="#Layer0_0_MEMBER_22_FILL"/>
</g>

<g transform="matrix( 1, 0, 0, 1, 51,14.5) ">
<use xlink:href="#Layer0_0_MEMBER_23_FILL"/>
</g>

<g transform="matrix( 1, 0, 0, 1, 51,14.5) ">
<use xlink:href="#Layer0_0_MEMBER_24_FILL"/>
</g>

<g transform="matrix( 1, 0, 0, 1, 51,14.5) ">
<use xlink:href="#Layer0_0_MEMBER_25_FILL"/>
</g>

<g transform="matrix( 1, 0, 0, 1, 51,14.5) ">
<use xlink:href="#Layer0_0_MEMBER_26_FILL"/>
</g>

<g transform="matrix( 1, 0, 0, 1, 51,14.5) ">
<use xlink:href="#Layer0_0_MEMBER_27_FILL"/>
</g>

<g transform="matrix( 1, 0, 0, 1, 51,14.5) ">
<use xlink:href="#Layer0_0_MEMBER_28_FILL"/>
</g>

<g transform="matrix( 1, 0, 0, 1, 51,14.5) ">
<use xlink:href="#Layer0_0_MEMBER_29_FILL"/>
</g>

<g transform="matrix( 1, 0, 0, 1, 51,14.5) ">
<use xlink:href="#Layer0_0_MEMBER_30_FILL"/>
</g>

<g transform="matrix( 1, 0, 0, 1, 51,14.5) ">
<use xlink:href="#Layer0_0_MEMBER_31_FILL"/>
</g>

<g transform="matrix( 1, 0, 0, 1, 51,14.5) ">
<use xlink:href="#Layer0_0_MEMBER_32_FILL"/>
</g>

<g transform="matrix( 1, 0, 0, 1, 51,14.5) ">
<use xlink:href="#Layer0_0_MEMBER_33_FILL"/>
</g>
</svg>
