<svg xmlns="http://www.w3.org/2000/svg" xmlns:xlink="http://www.w3.org/1999/xlink" preserveAspectRatio="none" width="103" height="52" viewBox="0 0 103 52"><defs><path fill="#C00" d="M28.6 19.75l.75-2.6-10.55-3.2-4.25 14.1 10.7 3.25.8-2.6-7.6-2.3 1.05-3.45L26.35 25l.7-2.4-6.85-2.1.95-3 7.45 2.25z" id="b"/><path fill="#C00" d="M39.7 20.25l-7.6-2.3-4.25 14.1 3.1.95 1.65-5.5 3.15.95q2 .6 1.7 2.85-.55 3.3-.55 3.5l3.1.95q-.25-.85.45-3.55.6-2.85-1.1-3.9l.05-.05q2.5-.2 3.3-2.85 1.1-3.95-3-5.15m-5.2 1.05l3.4 1.05q2.1.65 1.55 2.6-.65 2-2.75 1.35l-3.4-1 1.2-4z" id="c"/><path fill="#C00" d="M54.5 24.7l-7.6-2.3-4.25 14.15 3.1.9 1.65-5.5 3.1.95q2.05.6 1.7 2.85-.55 3.15-.5 3.5l3.1.95q-.2-.6.4-3.55.7-2.85-1.05-3.9v-.05q2.5-.2 3.3-2.85 1.2-3.9-2.95-5.15m-.3 4.7q-.65 2.05-2.75 1.35l-3.4-1 1.2-4 3.4 1.05q2.1.6 1.55 2.6z" id="d"/><path fill="#C00" d="M55.9 40.55l3.15.9 2.05-2.8 5.25 1.6.15 3.45 3.2 1-1-15.7-3.2-.95-9.6 12.5m10.1-8.6l.05.05.2 5.7-3.65-1.1 3.4-4.65z" id="e"/><path fill="#C00" d="M86.05 41.85q2.15-7-4.3-8.9L75.7 31.1l-4.25 14.1 6.05 1.85q6.45 1.95 8.55-5.2M78 34.65l2.2.65q4.1 1.25 2.7 5.9-1.25 4.25-4.8 3.15l-2.8-.8 2.7-8.9z" id="f"/><path fill="#C00" d="M101.7 40.95q-1.25-2.75-4.45-3.7-3.2-1-5.75.6-2.45 1.5-3.45 4.75-.95 3.15.3 5.75 1.25 2.7 4.45 3.65 3.15 1 5.75-.55 2.45-1.5 3.4-4.65.95-3.25-.25-5.85m-8.1 8.45q-3.85-1.15-2.45-5.85 1.45-4.9 5.3-3.7 3.9 1.2 2.4 6-1.4 4.75-5.25 3.55z" id="g"/><path fill="#FFF" d="M12.45 30.45q-.25-.1.05-.5.45-.6.4-1.05-.5-.3-.75.6-.3 1.05-.55 1.05l.75.2.1-.3z" id="h"/><path fill="#FFFFFE" d="M65.1 47.15q-8.95-2.55-10.5-3.05-14.25-4.65-18.2-5.45l-.05.3 38.85 11.6q-3.65-1.55-10.1-3.4z" id="i"/><path fill="#FFF" d="M70.35 47.2l-.2.6q.05 0 1.25.45.8.3.9-.45l-1.95-.6z" id="j"/><path fill="#FFF" d="M81.25 51.15q.8.3.9-.45l-1.95-.6-.2.65q.1 0 1.25.4z" id="k"/><path fill="#FFFFFE" d="M47.95 21.8q.85-.25 2 .65 1 .85 2 .2l-1.95-.6q.1-.8 1-.4 1.05.5 1.25.05-.9-.4-.9-.6l-.5-.15-.1.35q-2.25-.85-2.8.5z" id="l"/><path fill="#FFFFFE" d="M62.3 27.4q.1-.35-.4-.45.95-1.6 1.3-1.65-.2-.3-.4-.45-.4.75-1.7 2.2.75 0 .75.2l.45.15z" id="m"/><path fill="#FFFFFE" d="M99.5 57.7l1.95.6q.15-.35-.15-.6-.35-.25-.3-.55-.35.25-.6.15-.5.2-.85.1l-.05.3z" id="n"/><path fill="#FFF" d="M69.1 44.35l.75.2 1-3.35-.25-.1q-.05.55-.45.55l-.1.3q-.4.55-1.4 1.25-.05.3.3.55.3.25.15.6z" id="o"/><path fill="#FFF" d="M14 31.4q-.5-.2-.6.2.6-.05 2 .5 1 .45 1.65-.1-.2-.5-1.1-.45-.75 0-.7-.75l-1.2-.35q-.8.4.2.75.95.3.5.45-.05 0-.75-.25z" id="p"/><path fill="#FFF" d="M94.1 47.45q.25.4.55.15Q99.4 43.8 108 34.7q-2.15 1.25-6.65 5.85-5 5.2-7.25 6.9z" id="q"/><path fill="#FFFFFE" d="M90.15 54.75q.4.25 3.55 2.95.3 0-2.4-3.2-.7-.7-2.35-.85-2.1-.15-2.1 2.25 1.15.4 2-.55.8-.95 1.3-.6z" id="r"/><path fill="#FFF" d="M97.75 46.3q.7.05 1.95 1.15 1.15 1.05 2.75.95-.7-.05-.7-.55v-.65q-.55.35-.9.4.05-.6.5-.6.55-.05.6-.45l-4.9-1.45q.7 1.15.7 1.2z" id="s"/><path fill="#FFF" d="M94.1 44.2q-.1.5.85.65 1 .15.9.6-.55-.3-.45.1.1.45-.2.35.1-.55-.85-1-.95-.45-1.15.4.1 0 1.5.45.05.65-.45.5-.5-.1-.55.2.65.45 1.65-.3.9-.65 1.15-.2 2.05 2.1 2.45 1.75-.15-.5-1.45-1.2-1.1-.65-.95-1.55l-2.45-.75z" id="t"/><path fill="#FFF" d="M90.8 44.2q-.45-.05-.55.25.05.1.05 1.05.05.65.5.75.3-.7 1-.7-.05-.6-.3-.75-.75-.1-.75-.25.5.2.75-.25.25-.4.1-.8l-.45-.15q-.35.6.05.7.05-.2.25.05-.15.2-.65.1z" id="u"/><path fill="#FFF" d="M13.3 15.8q-.25.95.4.9.05.1.55.4.8-2-.35-2.45.75 1.05 0 1 .05-.35-.35-.75-.1.65-.75.75l-.1.35q.25.05.6-.2z" id="v"/><path fill="#FFF" d="M101.35 49.4q-1.55-.95-1.8-1-.6-.2 1.4 1.55.4 0 .4-.55z" id="w"/><path fill="#FFFFFE" d="M11.55 15.3q.15.25.1 1.15-.05.8.35 1l.1-.3q.1-2.35-.05-3.4l-.25-.05-.3.9q.2.05.05.7z" id="x"/><path fill="#FFFFFE" d="M26.05 15.25q1.5-.95-.2-1.05-.75 1.5-1.7 1.15.45-1 2.1-1.7l-1.45-.45-.2.65q-.4.5-1.1.05-.65-.45-.55-.9-.7.9-.05 1.1.4.1 1 .2-.2.85-1.15 1.3l1.2.4.5.1.25.1q.4-1.25 1.05 0-.05-.6.35-.4.75.4 1.35.2-.1-.6-.45-.65-.9-.1-.95-.1z" id="y"/><path fill="#FFFFFE" d="M35.95 30.15q.35.1 1 .2-.25.85-1.2 1.3l1.95.6q.4-1.25 1.1-.05-.05-.55.3-.35.75.45 1.35.2-.1-.6-.45-.65-.5.05-.95-.1 1.55-.95-.2-1.05-.75 1.4-1.7 1.15.4-.9 2.1-1.7l-1.45-.45-.2.6q-.55.7-1.6-.8-.75.9-.05 1.1z" id="z"/><path fill="#FFFFFE" d="M55.9 29.6l-.2.65q-.4.5-1.1.05-.65-.45-.55-.9-.7.9-.05 1.1.4.1 1 .2-.2.9-1.2 1.3l1.75.55.25.05q.4-1.25 1.05 0-.05-.6.35-.4.75.4 1.35.2-.1-.6-.45-.65-.9-.1-.95-.1 1.5-.95-.2-1.05-.75 1.5-1.7 1.15.45-1 2.1-1.7l-1.45-.45z" id="A"/><path fill="#FFFFFE" d="M43.95 18.9l-.25.95q-.4.1-.55-.55-.1-.45-.35-.05.45.2 0 .75-.45.5-.1.55 1.35-.2 1.5-1.55l-.25-.1z" id="B"/><path fill="#FFF" d="M93.2 46.3q.85 0-.65-.5.5-.6.6-1.2-.4.25-.6.05-.45-.35-.6-.4-.1 1.75 1.25 2.05z" id="C"/><path fill="#FFFFFE" d="M104.85 48.45q.3-1.3-.3-2.45.05-.3.55-.2.5.15.45-.5l-1.75-.5q-.05.15-.55.15l-.1.3q1.3.65 1.7 3.2z" id="D"/><path fill="#FFF" d="M12.95 10.7q.25-1 1.05-1.65.45-.35 1.35-1l-1.75-.5-1.8 6.15.25.05.9-3.05z" id="E"/><path fill="#FFFFFE" d="M26.65 11.4l-.1.35q.5 0 .4.45l-.45 1.5.5.15.1-.3q.55-.5.35-1.2.8-.55 3.3.65l.1-.35-4.2-1.25z" id="F"/><path fill="#FFFFFE" d="M59.9 22q-.15.4-.75.75.25.05.7-.35.4-.4.8-.2.05-.15.6-.15l.1-.3-2-.6-.1.3q1.5.5.65.55z" id="G"/><path fill="#FFF" d="M93.75 32q-.1.8-.05.85.05.15.5-.7 4.8.45 9.1 2.7l.25.1q.55-.6 2.55.4.55 0 .6-.15L47.95 17.7l-.1.3q4.6 1.45 23.15 6.85 14.3 4.2 22.75 7.15z" id="H"/><path fill="#FFF" d="M7.8 27.1l-.6 2.15 1.45.4q.15-.6-.4-1.25-.6-.65-.45-1.3z" id="I"/><path fill="#FFF" d="M104.95 49.15q1.6-3.4.6-3.85.05.65-.45.5-.5-.1-.55.2.6 1.15.3 2.45l-.15.6.25.1z" id="J"/><path fill="#FFFFFE" d="M60.55 35.25q.55-.25 1.8-.35 1.1-.1 1.75-.5-2.15 0-3.75.7l.2.15z" id="K"/><path fill="#FFF" d="M65.45 31.45q.3.15.2-.25.05-.1.6.05l.8-1q-1.05.7-1.6.4.3.45 0 .8z" id="L"/><path fill="#FFFFFE" d="M72 32.55q.4.05.3.7-.05.5.3.2-.45-1-.4-1.55l.2-.25q-.9.65-1.4.55l.6.45q.3-.3.4-.1z" id="M"/><path fill="#FFFFFE" d="M84.35 46.6q3.5-2.7 5.15-3.65L79.45 47.7q1.6 1.5 4.9-1.1z" id="N"/><path id="a" stroke="#C00" stroke-linejoin="round" stroke-linecap="round" fill="none" d="M103.6 56.3q-.8 2.85-3.7 2l-90-27.15q-2.9-.8-2.05-3.75l5.05-16.7q.9-2.8 3.75-2l90 27.15q2.9.95 2 3.75l-5.05 16.7z"/></defs><use xlink:href="#a" transform="translate(-6.5 -7.4)"/><use xlink:href="#b" transform="translate(-6.5 -7.4)"/><use xlink:href="#c" transform="translate(-6.5 -7.4)"/><use xlink:href="#d" transform="translate(-6.5 -7.4)"/><use xlink:href="#e" transform="translate(-6.5 -7.4)"/><use xlink:href="#f" transform="translate(-6.5 -7.4)"/><use xlink:href="#g" transform="translate(-6.5 -7.4)"/><use xlink:href="#h" transform="translate(-6.5 -7.4)"/><use xlink:href="#i" transform="translate(-6.5 -7.4)"/><use xlink:href="#j" transform="translate(-6.5 -7.4)"/><use xlink:href="#k" transform="translate(-6.5 -7.4)"/><use xlink:href="#l" transform="translate(-6.5 -7.4)"/><use xlink:href="#m" transform="translate(-6.5 -7.4)"/><use xlink:href="#n" transform="translate(-6.5 -7.4)"/><use xlink:href="#o" transform="translate(-6.5 -7.4)"/><use xlink:href="#p" transform="translate(-6.5 -7.4)"/><use xlink:href="#q" transform="translate(-6.5 -7.4)"/><use xlink:href="#r" transform="translate(-6.5 -7.4)"/><use xlink:href="#s" transform="translate(-6.5 -7.4)"/><use xlink:href="#t" transform="translate(-6.5 -7.4)"/><use xlink:href="#u" transform="translate(-6.5 -7.4)"/><use xlink:href="#v" transform="translate(-6.5 -7.4)"/><use xlink:href="#w" transform="translate(-6.5 -7.4)"/><use xlink:href="#x" transform="translate(-6.5 -7.4)"/><use xlink:href="#y" transform="translate(-6.5 -7.4)"/><use xlink:href="#z" transform="translate(-6.5 -7.4)"/><use xlink:href="#A" transform="translate(-6.5 -7.4)"/><use xlink:href="#B" transform="translate(-6.5 -7.4)"/><use xlink:href="#C" transform="translate(-6.5 -7.4)"/><use xlink:href="#D" transform="translate(-6.5 -7.4)"/><use xlink:href="#E" transform="translate(-6.5 -7.4)"/><use xlink:href="#F" transform="translate(-6.5 -7.4)"/><use xlink:href="#G" transform="translate(-6.5 -7.4)"/><use xlink:href="#H" transform="translate(-6.5 -7.4)"/><use xlink:href="#I" transform="translate(-6.5 -7.4)"/><use xlink:href="#J" transform="translate(-6.5 -7.4)"/><use xlink:href="#K" transform="translate(-6.5 -7.4)"/><use xlink:href="#L" transform="translate(-6.5 -7.4)"/><use xlink:href="#M" transform="translate(-6.5 -7.4)"/><use xlink:href="#N" transform="translate(-6.5 -7.4)"/></svg>