
<svg xmlns="http://www.w3.org/2000/svg" version="1.1" xmlns:xlink="http://www.w3.org/1999/xlink" preserveAspectRatio="none" x="0px" y="0px" width="103px" height="52px" viewBox="0 0 103 52">
<defs>
<g id="Gr_ficos_gr_errado_Carimbo_0_Layer0_0_MEMBER_1_FILL">
<path fill="#CC0000" stroke="none" d="
M 28.6 19.75
L 29.35 17.15 18.8 13.95 14.55 28.05 25.25 31.3 26.05 28.7 18.45 26.4 19.5 22.95 26.35 25 27.05 22.6 20.2 20.5 21.15 17.5 28.6 19.75 Z"/>
</g>

<g id="Gr_ficos_gr_errado_Carimbo_0_Layer0_0_MEMBER_2_FILL">
<path fill="#CC0000" stroke="none" d="
M 39.7 20.25
L 32.1 17.95 27.85 32.05 30.95 33 32.6 27.5 35.75 28.45
Q 37.75 29.05 37.45 31.3 36.9 34.6 36.9 34.8
L 40 35.75
Q 39.75 34.9 40.45 32.2 41.05 29.35 39.35 28.3
L 39.4 28.25
Q 41.9 28.05 42.7 25.4 43.8 21.45 39.7 20.25
M 34.5 21.3
L 37.9 22.35
Q 40 23 39.45 24.95 38.8 26.95 36.7 26.3
L 33.3 25.3 34.5 21.3 Z"/>
</g>

<g id="Gr_ficos_gr_errado_Carimbo_0_Layer0_0_MEMBER_3_FILL">
<path fill="#CC0000" stroke="none" d="
M 54.5 24.7
L 46.9 22.4 42.65 36.55 45.75 37.45 47.4 31.95 50.5 32.9
Q 52.55 33.5 52.2 35.75 51.65 38.9 51.7 39.25
L 54.8 40.2
Q 54.6 39.6 55.2 36.65 55.9 33.8 54.15 32.75
L 54.15 32.7
Q 56.65 32.5 57.45 29.85 58.65 25.95 54.5 24.7
M 54.2 29.4
Q 53.55 31.45 51.45 30.75
L 48.05 29.75 49.25 25.75 52.65 26.8
Q 54.75 27.4 54.2 29.4 Z"/>
</g>

<g id="Gr_ficos_gr_errado_Carimbo_0_Layer0_0_MEMBER_4_FILL">
<path fill="#CC0000" stroke="none" d="
M 55.9 40.55
L 59.05 41.45 61.1 38.65 66.35 40.25 66.5 43.7 69.7 44.7 68.7 29 65.5 28.05 55.9 40.55
M 66 31.95
L 66.05 32 66.25 37.7 62.6 36.6 66 31.95 Z"/>
</g>

<g id="Gr_ficos_gr_errado_Carimbo_0_Layer0_0_MEMBER_5_FILL">
<path fill="#CC0000" stroke="none" d="
M 86.05 41.85
Q 88.2 34.85 81.75 32.95
L 75.7 31.1 71.45 45.2 77.5 47.05
Q 83.95 49 86.05 41.85
M 78 34.65
L 80.2 35.3
Q 84.3 36.55 82.9 41.2 81.65 45.45 78.1 44.35
L 75.3 43.55 78 34.65 Z"/>
</g>

<g id="Gr_ficos_gr_errado_Carimbo_0_Layer0_0_MEMBER_6_FILL">
<path fill="#CC0000" stroke="none" d="
M 101.7 40.95
Q 100.45 38.2 97.25 37.25 94.05 36.25 91.5 37.85 89.05 39.35 88.05 42.6 87.1 45.75 88.35 48.35 89.6 51.05 92.8 52 95.95 53 98.55 51.45 101 49.95 101.95 46.8 102.9 43.55 101.7 40.95
M 93.6 49.4
Q 89.75 48.25 91.15 43.55 92.6 38.65 96.45 39.85 100.35 41.05 98.85 45.85 97.45 50.6 93.6 49.4 Z"/>
</g>

<g id="Gr_ficos_gr_errado_Carimbo_0_Layer0_0_MEMBER_7_FILL">
<path fill="#FFFFFF" stroke="none" d="
M 12.45 30.45
Q 12.2 30.35 12.5 29.95 12.95 29.35 12.9 28.9 12.4 28.6 12.15 29.5 11.85 30.55 11.6 30.55
L 12.35 30.75 12.45 30.45 Z"/>
</g>

<g id="Gr_ficos_gr_errado_Carimbo_0_Layer0_0_MEMBER_8_FILL">
<path fill="#FFFFFE" stroke="none" d="
M 65.1 47.15
Q 56.15 44.6 54.6 44.1 40.35 39.45 36.4 38.65
L 36.35 38.95 75.2 50.55
Q 71.55 49 65.1 47.15 Z"/>
</g>

<g id="Gr_ficos_gr_errado_Carimbo_0_Layer0_0_MEMBER_9_FILL">
<path fill="#FFFFFF" stroke="none" d="
M 70.35 47.2
L 70.15 47.8
Q 70.2 47.8 71.4 48.25 72.2 48.55 72.3 47.8
L 70.35 47.2 Z"/>
</g>

<g id="Gr_ficos_gr_errado_Carimbo_0_Layer0_0_MEMBER_10_FILL">
<path fill="#FFFFFF" stroke="none" d="
M 81.25 51.15
Q 82.05 51.45 82.15 50.7
L 80.2 50.1 80 50.75
Q 80.1 50.75 81.25 51.15 Z"/>
</g>

<g id="Gr_ficos_gr_errado_Carimbo_0_Layer0_0_MEMBER_11_FILL">
<path fill="#FFFFFE" stroke="none" d="
M 47.95 21.8
Q 48.8 21.55 49.95 22.45 50.95 23.3 51.95 22.65
L 50 22.05
Q 50.1 21.25 51 21.65 52.05 22.15 52.25 21.7 51.35 21.3 51.35 21.1
L 50.85 20.95 50.75 21.3
Q 48.5 20.45 47.95 21.8 Z"/>
</g>

<g id="Gr_ficos_gr_errado_Carimbo_0_Layer0_0_MEMBER_12_FILL">
<path fill="#FFFFFE" stroke="none" d="
M 62.3 27.4
Q 62.4 27.05 61.9 26.95 62.85 25.35 63.2 25.3 63 25 62.8 24.85 62.4 25.6 61.1 27.05 61.85 27.05 61.85 27.25
L 62.3 27.4 Z"/>
</g>

<g id="Gr_ficos_gr_errado_Carimbo_0_Layer0_0_MEMBER_13_FILL">
<path fill="#FFFFFE" stroke="none" d="
M 99.5 57.7
L 101.45 58.3
Q 101.6 57.95 101.3 57.7 100.95 57.45 101 57.15 100.65 57.4 100.4 57.3 99.9 57.5 99.55 57.4
L 99.5 57.7 Z"/>
</g>

<g id="Gr_ficos_gr_errado_Carimbo_0_Layer0_0_MEMBER_14_FILL">
<path fill="#FFFFFF" stroke="none" d="
M 69.1 44.35
L 69.85 44.55 70.85 41.2 70.6 41.1
Q 70.55 41.65 70.15 41.65
L 70.05 41.95
Q 69.65 42.5 68.65 43.2 68.6 43.5 68.95 43.75 69.25 44 69.1 44.35 Z"/>
</g>

<g id="Gr_ficos_gr_errado_Carimbo_0_Layer0_0_MEMBER_15_FILL">
<path fill="#FFFFFF" stroke="none" d="
M 14 31.4
Q 13.5 31.2 13.4 31.6 14 31.55 15.4 32.1 16.4 32.55 17.05 32 16.85 31.5 15.95 31.55 15.2 31.55 15.25 30.8
L 14.05 30.45
Q 13.25 30.85 14.25 31.2 15.2 31.5 14.75 31.65 14.7 31.65 14 31.4 Z"/>
</g>

<g id="Gr_ficos_gr_errado_Carimbo_0_Layer0_0_MEMBER_16_FILL">
<path fill="#FFFFFF" stroke="none" d="
M 94.1 47.45
Q 94.35 47.85 94.65 47.6 99.4 43.8 108 34.7 105.85 35.95 101.35 40.55 96.35 45.75 94.1 47.45 Z"/>
</g>

<g id="Gr_ficos_gr_errado_Carimbo_0_Layer0_0_MEMBER_17_FILL">
<path fill="#FFFFFE" stroke="none" d="
M 90.15 54.75
Q 90.55 55 93.7 57.7 94 57.7 91.3 54.5 90.6 53.8 88.95 53.65 86.85 53.5 86.85 55.9 88 56.3 88.85 55.35 89.65 54.4 90.15 54.75 Z"/>
</g>

<g id="Gr_ficos_gr_errado_Carimbo_0_Layer0_0_MEMBER_18_FILL">
<path fill="#FFFFFF" stroke="none" d="
M 97.75 46.3
Q 98.45 46.35 99.7 47.45 100.85 48.5 102.45 48.4 101.75 48.35 101.75 47.85
L 101.75 47.2
Q 101.2 47.55 100.85 47.6 100.9 47 101.35 47 101.9 46.95 101.95 46.55
L 97.05 45.1
Q 97.75 46.25 97.75 46.3 Z"/>
</g>

<g id="Gr_ficos_gr_errado_Carimbo_0_Layer0_0_MEMBER_19_FILL">
<path fill="#FFFFFF" stroke="none" d="
M 94.1 44.2
Q 94 44.7 94.95 44.85 95.95 45 95.85 45.45 95.3 45.15 95.4 45.55 95.5 46 95.2 45.9 95.3 45.35 94.35 44.9 93.4 44.45 93.2 45.3 93.3 45.3 94.7 45.75 94.75 46.4 94.25 46.25 93.75 46.15 93.7 46.45 94.35 46.9 95.35 46.15 96.25 45.5 96.5 45.95 98.55 48.05 98.95 47.7 98.8 47.2 97.5 46.5 96.4 45.85 96.55 44.95
L 94.1 44.2 Z"/>
</g>

<g id="Gr_ficos_gr_errado_Carimbo_0_Layer0_0_MEMBER_20_FILL">
<path fill="#FFFFFF" stroke="none" d="
M 90.8 44.2
Q 90.35 44.15 90.25 44.45 90.3 44.55 90.3 45.5 90.35 46.15 90.8 46.25 91.1 45.55 91.8 45.55 91.75 44.95 91.5 44.8 90.75 44.7 90.75 44.55 91.25 44.75 91.5 44.3 91.75 43.9 91.6 43.5
L 91.15 43.35
Q 90.8 43.95 91.2 44.05 91.25 43.85 91.45 44.1 91.3 44.3 90.8 44.2 Z"/>
</g>

<g id="Gr_ficos_gr_errado_Carimbo_0_Layer0_0_MEMBER_21_FILL">
<path fill="#FFFFFF" stroke="none" d="
M 13.3 15.8
Q 13.05 16.75 13.7 16.7 13.75 16.8 14.25 17.1 15.05 15.1 13.9 14.65 14.65 15.7 13.9 15.65 13.95 15.3 13.55 14.9 13.45 15.55 12.8 15.65
L 12.7 16
Q 12.95 16.05 13.3 15.8 Z"/>
</g>

<g id="Gr_ficos_gr_errado_Carimbo_0_Layer0_0_MEMBER_22_FILL">
<path fill="#FFFFFF" stroke="none" d="
M 101.35 49.4
Q 99.8 48.45 99.55 48.4 98.95 48.2 100.95 49.95 101.35 49.95 101.35 49.4 Z"/>
</g>

<g id="Gr_ficos_gr_errado_Carimbo_0_Layer0_0_MEMBER_23_FILL">
<path fill="#FFFFFE" stroke="none" d="
M 11.55 15.3
Q 11.7 15.55 11.65 16.45 11.6 17.25 12 17.45
L 12.1 17.15
Q 12.2 14.8 12.05 13.75
L 11.8 13.7 11.5 14.6
Q 11.7 14.65 11.55 15.3 Z"/>
</g>

<g id="Gr_ficos_gr_errado_Carimbo_0_Layer0_0_MEMBER_24_FILL">
<path fill="#FFFFFE" stroke="none" d="
M 26.05 15.25
Q 27.55 14.3 25.85 14.2 25.1 15.7 24.15 15.35 24.6 14.35 26.25 13.65
L 24.8 13.2 24.6 13.85
Q 24.2 14.35 23.5 13.9 22.85 13.45 22.95 13 22.25 13.9 22.9 14.1 23.3 14.2 23.9 14.3 23.7 15.15 22.75 15.6
L 23.95 16 24.45 16.1 24.7 16.2
Q 25.1 14.95 25.75 16.2 25.7 15.6 26.1 15.8 26.85 16.2 27.45 16 27.35 15.4 27 15.35 26.1 15.25 26.05 15.25 Z"/>
</g>

<g id="Gr_ficos_gr_errado_Carimbo_0_Layer0_0_MEMBER_25_FILL">
<path fill="#FFFFFE" stroke="none" d="
M 35.95 30.15
Q 36.3 30.25 36.95 30.35 36.7 31.2 35.75 31.65
L 37.7 32.25
Q 38.1 31 38.8 32.2 38.75 31.65 39.1 31.85 39.85 32.3 40.45 32.05 40.35 31.45 40 31.4 39.5 31.45 39.05 31.3 40.6 30.35 38.85 30.25 38.1 31.65 37.15 31.4 37.55 30.5 39.25 29.7
L 37.8 29.25 37.6 29.85
Q 37.05 30.55 36 29.05 35.25 29.95 35.95 30.15 Z"/>
</g>

<g id="Gr_ficos_gr_errado_Carimbo_0_Layer0_0_MEMBER_26_FILL">
<path fill="#FFFFFE" stroke="none" d="
M 55.9 29.6
L 55.7 30.25
Q 55.3 30.75 54.6 30.3 53.95 29.85 54.05 29.4 53.35 30.3 54 30.5 54.4 30.6 55 30.7 54.8 31.6 53.8 32
L 55.55 32.55 55.8 32.6
Q 56.2 31.35 56.85 32.6 56.8 32 57.2 32.2 57.95 32.6 58.55 32.4 58.45 31.8 58.1 31.75 57.2 31.65 57.15 31.65 58.65 30.7 56.95 30.6 56.2 32.1 55.25 31.75 55.7 30.75 57.35 30.05
L 55.9 29.6 Z"/>
</g>

<g id="Gr_ficos_gr_errado_Carimbo_0_Layer0_0_MEMBER_27_FILL">
<path fill="#FFFFFE" stroke="none" d="
M 43.95 18.9
L 43.7 19.85
Q 43.3 19.95 43.15 19.3 43.05 18.85 42.8 19.25 43.25 19.45 42.8 20 42.35 20.5 42.7 20.55 44.05 20.35 44.2 19
L 43.95 18.9 Z"/>
</g>

<g id="Gr_ficos_gr_errado_Carimbo_0_Layer0_0_MEMBER_28_FILL">
<path fill="#FFFFFF" stroke="none" d="
M 93.2 46.3
Q 94.05 46.3 92.55 45.8 93.05 45.2 93.15 44.6 92.75 44.85 92.55 44.65 92.1 44.3 91.95 44.25 91.85 46 93.2 46.3 Z"/>
</g>

<g id="Gr_ficos_gr_errado_Carimbo_0_Layer0_0_MEMBER_29_FILL">
<path fill="#FFFFFE" stroke="none" d="
M 104.85 48.45
Q 105.15 47.15 104.55 46 104.6 45.7 105.1 45.8 105.6 45.95 105.55 45.3
L 103.8 44.8
Q 103.75 44.95 103.25 44.95
L 103.15 45.25
Q 104.45 45.9 104.85 48.45 Z"/>
</g>

<g id="Gr_ficos_gr_errado_Carimbo_0_Layer0_0_MEMBER_30_FILL">
<path fill="#FFFFFF" stroke="none" d="
M 12.95 10.7
Q 13.2 9.7 14 9.05 14.45 8.7 15.35 8.05
L 13.6 7.55 11.8 13.7 12.05 13.75 12.95 10.7 Z"/>
</g>

<g id="Gr_ficos_gr_errado_Carimbo_0_Layer0_0_MEMBER_31_FILL">
<path fill="#FFFFFE" stroke="none" d="
M 26.65 11.4
L 26.55 11.75
Q 27.05 11.75 26.95 12.2
L 26.5 13.7 27 13.85 27.1 13.55
Q 27.65 13.05 27.45 12.35 28.25 11.8 30.75 13
L 30.85 12.65 26.65 11.4 Z"/>
</g>

<g id="Gr_ficos_gr_errado_Carimbo_0_Layer0_0_MEMBER_32_FILL">
<path fill="#FFFFFE" stroke="none" d="
M 59.9 22
Q 59.75 22.4 59.15 22.75 59.4 22.8 59.85 22.4 60.25 22 60.65 22.2 60.7 22.05 61.25 22.05
L 61.35 21.75 59.35 21.15 59.25 21.45
Q 60.75 21.95 59.9 22 Z"/>
</g>

<g id="Gr_ficos_gr_errado_Carimbo_0_Layer0_0_MEMBER_33_FILL">
<path fill="#FFFFFF" stroke="none" d="
M 93.75 32
Q 93.65 32.8 93.7 32.85 93.75 33 94.2 32.15 99 32.6 103.3 34.85
L 103.55 34.95
Q 104.1 34.35 106.1 35.35 106.65 35.35 106.7 35.2
L 47.95 17.7 47.85 18
Q 52.45 19.45 71 24.85 85.3 29.05 93.75 32 Z"/>
</g>

<g id="Gr_ficos_gr_errado_Carimbo_0_Layer0_0_MEMBER_34_FILL">
<path fill="#FFFFFF" stroke="none" d="
M 7.8 27.1
L 7.2 29.25 8.65 29.65
Q 8.8 29.05 8.25 28.4 7.65 27.75 7.8 27.1 Z"/>
</g>

<g id="Gr_ficos_gr_errado_Carimbo_0_Layer0_0_MEMBER_35_FILL">
<path fill="#FFFFFF" stroke="none" d="
M 104.95 49.15
Q 106.55 45.75 105.55 45.3 105.6 45.95 105.1 45.8 104.6 45.7 104.55 46 105.15 47.15 104.85 48.45
L 104.7 49.05 104.95 49.15 Z"/>
</g>

<g id="Gr_ficos_gr_errado_Carimbo_0_Layer0_0_MEMBER_36_FILL">
<path fill="#FFFFFE" stroke="none" d="
M 60.55 35.25
Q 61.1 35 62.35 34.9 63.45 34.8 64.1 34.4 61.95 34.4 60.35 35.1
L 60.55 35.25 Z"/>
</g>

<g id="Gr_ficos_gr_errado_Carimbo_0_Layer0_0_MEMBER_37_FILL">
<path fill="#FFFFFF" stroke="none" d="
M 65.45 31.45
Q 65.75 31.6 65.65 31.2 65.7 31.1 66.25 31.25
L 67.05 30.25
Q 66 30.95 65.45 30.65 65.75 31.1 65.45 31.45 Z"/>
</g>

<g id="Gr_ficos_gr_errado_Carimbo_0_Layer0_0_MEMBER_38_FILL">
<path fill="#FFFFFE" stroke="none" d="
M 72 32.55
Q 72.4 32.6 72.3 33.25 72.25 33.75 72.6 33.45 72.15 32.45 72.2 31.9
L 72.4 31.65
Q 71.5 32.3 71 32.2
L 71.6 32.65
Q 71.9 32.35 72 32.55 Z"/>
</g>

<g id="Gr_ficos_gr_errado_Carimbo_0_Layer0_0_MEMBER_39_FILL">
<path fill="#FFFFFE" stroke="none" d="
M 84.35 46.6
Q 87.85 43.9 89.5 42.95
L 79.45 47.7
Q 81.05 49.2 84.35 46.6 Z"/>
</g>

<path id="Gr_ficos_gr_errado_Carimbo_0_Layer0_0_MEMBER_0_1_STROKES" stroke="#CC0000" stroke-width="1" stroke-linejoin="round" stroke-linecap="round" fill="none" d="
M 103.6 56.3
Q 102.8 59.15 99.9 58.3
L 9.9 31.15
Q 7 30.35 7.85 27.4
L 12.9 10.7
Q 13.8 7.9 16.65 8.7
L 106.65 35.85
Q 109.55 36.8 108.65 39.6
L 103.6 56.3 Z"/>
</defs>

<g transform="matrix( 1, 0, 0, 1, -6.5,-7.4) ">
<g transform="matrix( 1, 0, 0, 1, 0,0) ">
<use xlink:href="#Gr_ficos_gr_errado_Carimbo_0_Layer0_0_MEMBER_0_1_STROKES"/>
</g>

<g transform="matrix( 1, 0, 0, 1, 0,0) ">
<use xlink:href="#Gr_ficos_gr_errado_Carimbo_0_Layer0_0_MEMBER_1_FILL"/>
</g>

<g transform="matrix( 1, 0, 0, 1, 0,0) ">
<use xlink:href="#Gr_ficos_gr_errado_Carimbo_0_Layer0_0_MEMBER_2_FILL"/>
</g>

<g transform="matrix( 1, 0, 0, 1, 0,0) ">
<use xlink:href="#Gr_ficos_gr_errado_Carimbo_0_Layer0_0_MEMBER_3_FILL"/>
</g>

<g transform="matrix( 1, 0, 0, 1, 0,0) ">
<use xlink:href="#Gr_ficos_gr_errado_Carimbo_0_Layer0_0_MEMBER_4_FILL"/>
</g>

<g transform="matrix( 1, 0, 0, 1, 0,0) ">
<use xlink:href="#Gr_ficos_gr_errado_Carimbo_0_Layer0_0_MEMBER_5_FILL"/>
</g>

<g transform="matrix( 1, 0, 0, 1, 0,0) ">
<use xlink:href="#Gr_ficos_gr_errado_Carimbo_0_Layer0_0_MEMBER_6_FILL"/>
</g>

<g transform="matrix( 1, 0, 0, 1, 0,0) ">
<use xlink:href="#Gr_ficos_gr_errado_Carimbo_0_Layer0_0_MEMBER_7_FILL"/>
</g>

<g transform="matrix( 1, 0, 0, 1, 0,0) ">
<use xlink:href="#Gr_ficos_gr_errado_Carimbo_0_Layer0_0_MEMBER_8_FILL"/>
</g>

<g transform="matrix( 1, 0, 0, 1, 0,0) ">
<use xlink:href="#Gr_ficos_gr_errado_Carimbo_0_Layer0_0_MEMBER_9_FILL"/>
</g>

<g transform="matrix( 1, 0, 0, 1, 0,0) ">
<use xlink:href="#Gr_ficos_gr_errado_Carimbo_0_Layer0_0_MEMBER_10_FILL"/>
</g>

<g transform="matrix( 1, 0, 0, 1, 0,0) ">
<use xlink:href="#Gr_ficos_gr_errado_Carimbo_0_Layer0_0_MEMBER_11_FILL"/>
</g>

<g transform="matrix( 1, 0, 0, 1, 0,0) ">
<use xlink:href="#Gr_ficos_gr_errado_Carimbo_0_Layer0_0_MEMBER_12_FILL"/>
</g>

<g transform="matrix( 1, 0, 0, 1, 0,0) ">
<use xlink:href="#Gr_ficos_gr_errado_Carimbo_0_Layer0_0_MEMBER_13_FILL"/>
</g>

<g transform="matrix( 1, 0, 0, 1, 0,0) ">
<use xlink:href="#Gr_ficos_gr_errado_Carimbo_0_Layer0_0_MEMBER_14_FILL"/>
</g>

<g transform="matrix( 1, 0, 0, 1, 0,0) ">
<use xlink:href="#Gr_ficos_gr_errado_Carimbo_0_Layer0_0_MEMBER_15_FILL"/>
</g>

<g transform="matrix( 1, 0, 0, 1, 0,0) ">
<use xlink:href="#Gr_ficos_gr_errado_Carimbo_0_Layer0_0_MEMBER_16_FILL"/>
</g>

<g transform="matrix( 1, 0, 0, 1, 0,0) ">
<use xlink:href="#Gr_ficos_gr_errado_Carimbo_0_Layer0_0_MEMBER_17_FILL"/>
</g>

<g transform="matrix( 1, 0, 0, 1, 0,0) ">
<use xlink:href="#Gr_ficos_gr_errado_Carimbo_0_Layer0_0_MEMBER_18_FILL"/>
</g>

<g transform="matrix( 1, 0, 0, 1, 0,0) ">
<use xlink:href="#Gr_ficos_gr_errado_Carimbo_0_Layer0_0_MEMBER_19_FILL"/>
</g>

<g transform="matrix( 1, 0, 0, 1, 0,0) ">
<use xlink:href="#Gr_ficos_gr_errado_Carimbo_0_Layer0_0_MEMBER_20_FILL"/>
</g>

<g transform="matrix( 1, 0, 0, 1, 0,0) ">
<use xlink:href="#Gr_ficos_gr_errado_Carimbo_0_Layer0_0_MEMBER_21_FILL"/>
</g>

<g transform="matrix( 1, 0, 0, 1, 0,0) ">
<use xlink:href="#Gr_ficos_gr_errado_Carimbo_0_Layer0_0_MEMBER_22_FILL"/>
</g>

<g transform="matrix( 1, 0, 0, 1, 0,0) ">
<use xlink:href="#Gr_ficos_gr_errado_Carimbo_0_Layer0_0_MEMBER_23_FILL"/>
</g>

<g transform="matrix( 1, 0, 0, 1, 0,0) ">
<use xlink:href="#Gr_ficos_gr_errado_Carimbo_0_Layer0_0_MEMBER_24_FILL"/>
</g>

<g transform="matrix( 1, 0, 0, 1, 0,0) ">
<use xlink:href="#Gr_ficos_gr_errado_Carimbo_0_Layer0_0_MEMBER_25_FILL"/>
</g>

<g transform="matrix( 1, 0, 0, 1, 0,0) ">
<use xlink:href="#Gr_ficos_gr_errado_Carimbo_0_Layer0_0_MEMBER_26_FILL"/>
</g>

<g transform="matrix( 1, 0, 0, 1, 0,0) ">
<use xlink:href="#Gr_ficos_gr_errado_Carimbo_0_Layer0_0_MEMBER_27_FILL"/>
</g>

<g transform="matrix( 1, 0, 0, 1, 0,0) ">
<use xlink:href="#Gr_ficos_gr_errado_Carimbo_0_Layer0_0_MEMBER_28_FILL"/>
</g>

<g transform="matrix( 1, 0, 0, 1, 0,0) ">
<use xlink:href="#Gr_ficos_gr_errado_Carimbo_0_Layer0_0_MEMBER_29_FILL"/>
</g>

<g transform="matrix( 1, 0, 0, 1, 0,0) ">
<use xlink:href="#Gr_ficos_gr_errado_Carimbo_0_Layer0_0_MEMBER_30_FILL"/>
</g>

<g transform="matrix( 1, 0, 0, 1, 0,0) ">
<use xlink:href="#Gr_ficos_gr_errado_Carimbo_0_Layer0_0_MEMBER_31_FILL"/>
</g>

<g transform="matrix( 1, 0, 0, 1, 0,0) ">
<use xlink:href="#Gr_ficos_gr_errado_Carimbo_0_Layer0_0_MEMBER_32_FILL"/>
</g>

<g transform="matrix( 1, 0, 0, 1, 0,0) ">
<use xlink:href="#Gr_ficos_gr_errado_Carimbo_0_Layer0_0_MEMBER_33_FILL"/>
</g>

<g transform="matrix( 1, 0, 0, 1, 0,0) ">
<use xlink:href="#Gr_ficos_gr_errado_Carimbo_0_Layer0_0_MEMBER_34_FILL"/>
</g>

<g transform="matrix( 1, 0, 0, 1, 0,0) ">
<use xlink:href="#Gr_ficos_gr_errado_Carimbo_0_Layer0_0_MEMBER_35_FILL"/>
</g>

<g transform="matrix( 1, 0, 0, 1, 0,0) ">
<use xlink:href="#Gr_ficos_gr_errado_Carimbo_0_Layer0_0_MEMBER_36_FILL"/>
</g>

<g transform="matrix( 1, 0, 0, 1, 0,0) ">
<use xlink:href="#Gr_ficos_gr_errado_Carimbo_0_Layer0_0_MEMBER_37_FILL"/>
</g>

<g transform="matrix( 1, 0, 0, 1, 0,0) ">
<use xlink:href="#Gr_ficos_gr_errado_Carimbo_0_Layer0_0_MEMBER_38_FILL"/>
</g>

<g transform="matrix( 1, 0, 0, 1, 0,0) ">
<use xlink:href="#Gr_ficos_gr_errado_Carimbo_0_Layer0_0_MEMBER_39_FILL"/>
</g>
</g>
</svg>
