<svg xmlns="http://www.w3.org/2000/svg" xmlns:xlink="http://www.w3.org/1999/xlink" preserveAspectRatio="none" width="102" height="29" viewBox="0 0 102 29"><defs><path fill="#065626" d="M-20.1 6.5v-.05l-.15-.05-.05.1h.2m.55.05q0-.05-.05-.15-.15.05-.15.2h.15l.05-.05M-.35-2l-.2-.05.05.35h.15V-2m-13.8-6.05q.05.1.15.15.05.05.05.1l-.05.15h-.1l.1.45.05.05v.45l-.1-.05q.05 0 .05-.05l-.1-.1-.15-.5v-.1q-.15.05-.2.1l-.05.3.05.25q0 .15-.15.2l-.05-.05v-.25q-.05-.15-.15-.15-.15.05-.15.2l-.05.05.1.4q-.1.1-.2.15-.05-.15-.05-.25l-.1-.4q-.1.05-.15.1l-.05.05-.05 1.95-.05.3v.35q.05.1.1.15.15.05.15.15v.05l.2.05.05-.1-.1-.5q.05-.15.1-.25h.05V-4q.05.15.15.2l-.05.3-.05.1-.15-.1q-.1-.1-.15-.25l-.2-.05-.1.05q0 .15.05.3l.2-.1q.05.15.05.3v.3l-.1.1V-3l-.05-.3-.1-.1-.05 1.15.25.05-.05.2q-.1-.05-.2-.15-.05.1-.05.25l-.25 8 .05.3 7.8.25-.05-3.35h-.2v-.1l-.25.05-.05.05-1.55-.05-.05 1.05q-.05-.1-.05-.25l-.05-.65q0-.15-.1-.15l-.05-.05-.3-.05-1.5.05-.1-.05.05-.25.05-.6v-.1l.05-.7-.3-.05h-.05l.05-.2.25-.05v-1q.15 0 .25-.05l1.8.05v-.25q.05-.15.1-.25.1-.1.15-.2l.05-.3v-.35h.2l-.15.7q-.05.15-.05.25l-.05.3.15.15.35.05h.35l.25-.05q.15 0 .3-.1l.1-.05v-.2q0-.15.05-.3v-2.1l-.2-.1-.25-.1-.05-.1-.25.05-.25.1-.3.05-.2.15-.1.05.05.5q0 .15-.15.15-.05-.1-.05-.25v-.3l.05-.1v-.2q-.1-.1-.2-.15-.15-.05-.3-.15l-1.5.1v-.35l-.05-.3-.15-.2-.5.1h-.05q0-.15.15-.2.1-.05.2-.15.2 0 .35.05l.05-.25v-.35q-.15.05-.25.1h-.05l.05-.2.2-.15q.05-.1.15-.2l-.05-.3q0-.15.15-.15H-11.2l.05.05.95.05q.15 0 .25-.1l.05-.3.1-.25q.15.05.25.1v.2l-.1-.05-.05-.1-.15.05v.45h1.95q.1-.1.1-.25l.2-1.95-.05-.6q-.05-.1-.15-.2l-.05-.05-1.3-.05h-.3l-4.5-.15q-.15.05-.25.15l.05.3m-.5 1.85l.05-.3q.05.15.1.2l.15 1.2.15.15q-.1.15-.15.3v.25l-.1.1v-.2l-.2-1.7m.8 0h-.05q-.05-.15-.05-.3h.1v.3m2.7-2.05v.1l-.1-.05.05-.05h.05m-.55.95h.05l-.05.3h-.05v-.1l.05-.2m-.35.55q-.05-.1-.05-.2l.1.1q.1.05.15.15l-.2-.05m.9-.3l.05-.25q.05.15.05.25h-.1M-15.4-2.6l.05-.1q.05.05.05.1h-.1m0 1l.1-.05q0 .15-.05.15l-.05-.1m.05.85q.1-.05.15-.05l.3-.1.05.05-.05.2-.3-.1h-.15m-.1-.35l.15-.05.2-.1q.1-.05.2-.05l.45-.15.05-.2q.05.05.05.1l-.05.25q-.05.05-.15.1l-.25.05-.35.15h-.25l-.05.05v.15l-.05.05V-.9l.05-.2m4.8-5h-.05l.05-.1v.1m.1.4h-.1v-.1l.2-.1q.1 0 .1.1-.1.1-.2.1m-.6-.1q.05.05.05.1h-.15l.1-.1m-2.1.45v.2q-.05-.05-.05-.15l.05-.05m-.55.4v.15l-.05.25.1.75q-.05.2-.15.25h-.1q0-.15-.05-.3l.2-.05-.4-1.8v-.4q.2 0 .2.15l.25 1m-1.35-.5q0-.25.05-.45.15.15.15.3l.05.3q0 .05-.05.05l-.15.05-.05-.25m.85 1.6q.05.2.05.35v.75q.1-.1.2-.15v.1q0 .2.05.35l.1.7v.3l.1.35q0 .2.05.3.1.15.15.15l.05-.1.1.3v1.1q-.05.1-.15.15-.05-.15-.05-.3l-.05-.7-.1-.35-.15-.25Q-14-.95-14-1.1v-.75l-.05-.1h-.25l-.1-.05v-.25q-.05-.2-.05-.35l-.05-.7.05-.75q.15.05.15.2m.7.65l.2.05-.1.15-.05.25.2.95-.05.25q0 .1-.1.1-.05-.1 0-.2l-.15-1.25.05-.3m.4-.45v-.2q.1.05.15.15l-.15.05m.1.4l-.05-.05.05-.2.25.05-.15.15-.1.05m-1.85.35q.05.05.05.1l-.05.15q-.05 0-.05-.05 0-.1.05-.2m-.15 1.25l.1-.15.2.1-.1.3-.15-.15-.05-.1m.7.65l.1.2.2.4-.05.25-.1.3.1.7V.9q-.1-.05-.1-.2l-.3-1.5q.05-.1.15-.2m-.5.6h.15l-.05.15-.1.05v-.2m1.75-.7h.1l-.05.15h-.05v-.15m2.7-1.65q0 .2-.1.3-.2.1-.35.15l-.05-.05v-.1l.2-.1q.15-.15.3-.2m-1.7 1l.1.05-.05.15q-.05-.1-.05-.2m0-.25l.05-.3.05.05v.35q-.05-.1-.1-.1m-.3.6q.05.05.05.1t-.05.05v-.15m.35.25v-.15l.1.2-.1-.05m.15.95h.1l-.1.1v-.1m1.25.1v-.2q.1.05.1.2h-.1m-4.5.05l.05-.15q0 .1-.05.2-.05 0 0-.05m6.8-8.1l-.05.1v-.1h.05m-.1.35h.15v.2l-.05.05v.3h-.1v-.55m-1.55.35h.1l-.05.15h-.05l-.05-.1.05-.05m.5.25l.05.05-.05.5q0 .05-.05.05l-.15-.05-.25-.05-.05.1q-.05-.05-.05-.1.05-.1.15-.15l.4-.35m1.05.35l.05-.15h.1v.15h-.15m0 1.1v-.1l.1.05-.1.05M-9.85-6h-.2q0-.2.15-.3.05.15.05.3m1.25 3.75v.1l-.1.05v.25q-.05-.1-.05-.2t.1-.2h.05m-.7-.15h.05v.1l-.1.1q-.05-.05-.05-.1l.1-.1M-9-1q0 .15-.05.2-.1.1-.2.1 0-.05.1-.15L-9-1m-.5-.4h-.2l.1-.15q.15.05.1.15m-.5.25q-.1-.1-.1-.2.05-.1.15-.2.05 0 .1.05l-.1.15-.05.2m1.65 4.8h.05l-.05.25h-.05l.05-.25m-.3.9h.2l-.05.1-.15.05v-.15m-.05-.2V4.2h.05l-.05.15M-9.15 4l.05-.15h.1q0 .1-.05.2Q-9.1 4-9.15 4m-.3.1h-.1l.05-.05.05.05m.4.75l.15.05-.1.2q-.05-.15-.05-.25m-.25-.05q-.05-.05-.1-.15h.1v.15m.2.5v-.1l.2.1h-.2m.9.75V5.9q.1.1.1.15h-.1m-5.4-5.1l.15.15.05.25-.1.6q-.1-.05-.15-.15l.05-.25v-.6M-14.8.3q-.05-.05-.05-.15l.05.05v.1m-.05 1v-.25h.15l-.05.2-.1.05m.55-.1q.05.1.05.2h-.1l.05-.2m.2.2l.1-.3h.1l-.05.2-.15.35q.1.2.2.25v.2h-.2q-.15 0-.25-.05 0-.2.05-.35l.2-.3m-.65.6q-.1-.05-.1-.15 0-.1.05-.2.05.05.1.15l-.05.2m.15 1v-.1q.05 0 .1.1h-.1m.5-.25l-.1.05-.2-.25q.1-.1.2-.25.1.15.1.25v.2m.4.05v.15q-.15-.1-.15-.2l.15.05m.4-.15q-.05.1-.1.15v-.15-.5l.3.05v.15q-.2.15-.2.3m-.5 1.1V3.4q.05.05.05.1v.45q-.05-.1-.05-.2m.45-.65q.05.15.05.3l.1.35v.2l-.05.2v.35q-.15 0-.15-.15l-.05-.85q0-.25.1-.4m-.6 1.45l-.2-.2-.15-1 .1-.3q.05.1.05.25l.1.25.1.7q.15.1.2.2v.35l-.1.35-.2.1-.05.05-.05-.05v-.1l.15-.05v-.2l.05-.35m-1.2-.35q.1 0 .2.05h-.3q-.1 0-.15-.15l.25.1m1.1 1.4l-.05.15v-.2l.05.05m.95-.85h.1l-.1.05q-.05.1-.15.2l-.05.45-.05-.05-.05-.45.1-.25.2.05m.4.85v.05h-.05l.05-.05m2.2-1.3q-.1.1-.2.1l-.1.05.05-.15q.05-.1.15-.15h.1v.15m.25.3h.1l.05.05-.05.15-.05.05-.05-.1V4.6m-1.3-.95h.15q-.05.1-.15.2v-.2m-.9.9h.1q-.05.1-.1.15v-.15m-.1-.45l.1-.05.05.05-.05.1-.1-.1m.7.45l.05.05v.2q-.15-.15-.15-.3l.1.05m.3 0q0-.1.05-.15.05 0 .1.05-.05.1-.15.15v-.05m-1 .5l.05-.1h.15l-.05.1h-.15M-14.1-2.4q-.05-.2-.1-.35-.1.2-.1.35 0 .2.15.35h.05v-.35m-.6-5.75l.05-.2.1.1q.05.15.05.35v.25h.25q-.05-.1-.1-.25l.05-.35-.05-.2-1.05-.1-.05 1.5.75-.35.05-.05-.05-.7m-.35.5l-.05.2h-.15l-.1-.25.05-.2.25.25m-.25-.4v-.25h.1l-.05.2-.05.05M-28-5.6v.25l.15-.05v-.2H-28m.95-.7l-.1-.05v.15l.05.1.05-.2m-.4-1l-.15.3-.2.55v.15l-.05.05.05.1q0 .05.05.1l.3-.15.1-1.1h-.1m4.5.75q-.05.1-.05.15l.15.05v-.1l-.1-.1m2.6-2.95l-.05-.05-1.55-.05q.05.2.2.25l.25.1 1.1.75.1.2-.3-.05q-.1-.15-.25-.2-.2-.05-.35-.1l-.25-.2-.75-.5q-.15-.1-.25-.2l-2.4.1-.6.25-.15.25v.35q-.1.05-.2.05l-.05-.1v-.25l-.4.15-.05.15.05.1-.35.05q0 .1.05.25-.25 0-.35.05l-.05.1-.05.3q-.05.1-.15.1v-.1l-.1.05v.15l.2.25.05.2-.15.05-.1.4q.05.1.15.2l.05-.15q0-.15.15-.3l.05-.05-.05-.3.1-.1v.25l-.1.8-.15.5.15.05q.1.15.15.3.05.15.05.3-.05.2-.2.25l-.2-.25-.15-.05v.35l-.2.05h-.1l-.3-.05-.2-.1-.05.1q0 .2.05.35l.05.4-.1.3-.05.4q.05.1.15.1l.05-.1q.1-.1.15-.2l-.1-.05q-.05-.05 0-.1l.1-.15q0-.1.05-.2l-.1-.1q0-.1.1-.25l.3-.15h.1q-.05.15-.1.25v.2l.05.1-.25.4.2.05h.05l-.1.25q0 .15.05.3l-.05.7h.1l.05.05-.15.15-.05.1-.2-.1q-.15-.1-.2-.3l.15-.15q-.1-.2-.1-.35.05-.05.1-.15l-.15-.05q-.15.05-.2.2.05.2.05.35v.45l-.05.35-.05.05v.9l.25.05q-.05.1-.2.1l-.05.1-.1.3.05.4.15.2-.15.3.1 1.55q0 .2.05.4v.35l.2.7.35.85.6.7.75.6 1.55.55h.05l.25.05h.05l.5-.45.4-.2q.05.05.05.1l-.2.2-.55.2.1.05.05.05q.15 0 .35-.05l.2-.05.05.1.05.15h.7q.1.05.25.05l.1-.05q.15-.1.25-.25.1-.1.25-.15l.35-.05q.1.05.2.15l.35-.05q0 .1.05.2l.1-.1.2-.05.05.05.25-.15.15-.2.3-.55.1-.15.15.1.05.05v.3q-.05.15-.2.2-.15.1-.25.15-.1.15-.15.25l-.05.1.25.05.15-.05.1-.25q.1 0 .15.05v.15q-.05 0-.05.05v.1h.2q.15-.15.15-.3v-.85q-.05-.2-.1-.3l-.25-.15.1-.35q.05-.15.2-.2l-.05.15v.2h-.05q-.05.2.05.25l.1-.05.05-.75V3.7l-.15.1-.05-.1.2-.2q-.05 0-.05-.05H-21l-.05.15q-.05.15-.2.15-.25 0-.4-.05-.1-.1-.15-.2l-.05-.1h-.05l-1.45-.15q-.2 0-.3-.1V3l-.25-.05h-1.2q-.2.05-.35.1h-1.1v-.1l.6-.2 1.6-.05q.2 0 .35-.05l-.15-.3q-.05-.2-.05-.35V.35q0-.15-.05-.3l-.1-.15-.05.2-.05.1-.2-.1v-.3l.25-.2.05.05.2-.05v-1.5l.05-.3-.1-.75-.05-.15.1-.25.05-.35q-.05-.15-.2-.25-.15-.1-.25-.15l-.3-.2v-.15h.2l.5.25q.05 0 .1-.05l.05-.4q0-.2.05-.35l.2-.7q.05-.15.15-.25l.15-.3.1-.1-.05-.15q-.05-.1-.05-.15l.2-.05h.25l.35.2.05.05.3.05q.1-.1.2-.25l.05-.15.1.1q0 .2.15.25.15.1.35.1.2.1.4.1h1.45l-.1-.2q.05 0 .15-.05l.55.2.15-.05.05-.15.05-.35h-.4q-.05-.1-.05-.15l.2-.05h.25v-.6h-.3q-.05-.05-.05-.15l.1-.1q.2 0 .25-.15l.05-1.4-.2.1v.1q-.15 0-.25-.05-.15-.15-.3-.15l-.9-.05m-3.4.35l.1-.05.25.05q0 .1-.05.2-.15-.05-.2-.1-.1-.05-.1-.1m.45 1.25v.15l-.2.05-1.45-1-.15-.05.05-.2q.15-.05.25-.15h.15v.2q.05.1.2.15l.3.15.1.2.55.3.2.2m-1.95-.75l-.05.1-.15.05v-.15h.2m1.15 2.45l.05-.15h.4l-.1.25-.05.05-.2-.05-.1-.05v-.05m-.5-.2q-.15-.15-.2-.3l.4.15q.05 0 .05.05v.35q-.2-.05-.25-.25m-.7-.75v.2h-.1v-.2h.1m.35-.5h-.2l.05-.15q.1.05.25.15.15 0 .2.15-.15-.05-.3-.15m1.6.5q.15 0 .2.1 0 .1-.05.2-.15 0-.2-.1 0-.1.05-.2m1.7.1v-.15q.15 0 .2.1l-.2.05m1.2-.35v-.2q.15-.15.3-.15.15.05.2.2-.15.1-.25.15h-.25m-.4.05v.05l-.05.15h-.2l-.05-.05q0-.1.05-.15h.25m.45.85l-.25-.05h-.05l.1-.2h.55l-.15.15.15.1q-.05.05-.15.1-.1-.1-.2-.1m-.3-.3h-.15l-.05-.15q.2 0 .2.15m-5.55-1V-8q0-.15.05-.25h.25q.1 0 .2.05v.3l-.1.75-.05.2h-.25l-.15-.15-.05-.15.05-.05.2-.05.15-.15q0-.1-.05-.2l-.25-.1m.8.05v-.15q.1.05.15.1l-.15.05m-1.35.2h.15q-.05.05-.1.05l-.05-.05m.85 1.35v-.1l-.25-.1q-.2.1-.25.2l-.1.05v-.25l-.05-.35.3.1.15.05.15-.05.1.35q0 .05-.05.1m.35.4q-.1-.05-.15-.15l.1-.2q.1 0 .15.1-.05.15-.1.25m-.75-.05q.1.15.15.3-.2 0-.3-.1-.15-.15-.15-.3l.3.1m.05.7q.1-.15.2-.25.1.15.05.25l.1.35q.05.2.1.35l-.1.1-.35-.25q-.15-.15-.15-.3.15-.1.15-.25m-.95 1.1v-.2l.6.15.55.3q.1.05.2.15l.2.1.3.1v.1l-.05.2q-.15 0-.25-.1l-.9-.55-.3-.05-.35-.2m.4.9v-.1q.15.05.25.1h-.25m-.3-.35q.05.2.1.35l.1.3.15.25.2.2-.05.25h-.15v.75q-.1.1-.15.1l-.05-.1v-.35q-.05-.2-.1-.3-.05 0-.05-.05l-.15-1.35q0-.2.15-.35v.3m1.3 1.15h.3q.05.05.05.1-.1.15-.2.2l-.45.1q-.1.15-.25.15h-.05l.1-.3-.05-.35q.2.05.25.2l.3-.1m.4-.3q-.1-.1-.1-.2h.1v.2m-.65 1.1v-.3l.2.1.05.05v.2h-.1l-.15-.05m.65 0l.05-.1q.05.05.05.1l-.05.05-.05-.05m-1.3 1.3V-.6h.1l-.05.3.05.05-.05.3q-.05-.15-.05-.3m.8-.95q-.05-.05-.1-.2h.3l-.05.15-.15.05m-.45-.2l-.05-.05h.05v.05m2.1-4.4l.25.05q.05.15.05.25h-.2l-.2-.2-.2-.15q-.1-.1-.15-.2l.3.05q.1.1.15.2m-1 .1l.5.15h.1v.2l-.25.25-.05-.1q0-.15-.15-.15t-.2-.1q0-.15.05-.25m.9.5h-.2l.05-.45q.1.1.1.25h.1l-.05.2m-.25.65h-.1l.05-.15q.05.1.05.15m.25 1.95h-.1l-.3-.15-.1-.1q0-.1.1-.15l.3.2.1.2m-.6.1h.1l-.05.3q-.1-.05-.1-.1l.05-.2m-.15.5q-.05.1-.15.15-.1-.05-.15-.05l.15-.15q.1 0 .15.05m.15.7l.05-.1v.15L-25-1.3m5.2-6.25l-.05-.05.05-.1h.1v.15h-.1m.45.8h-.15q-.1 0-.15-.15l.2-.05h.15l-.05.15v.05m-.5 10.5h-.2q-.1-.1-.1-.2l.3.05h.05l-.05.15m-.25.8l.05-.2.1.05-.05.15h-.1m-.05.2l.05-.1.05.1h-.1m-.05.6v-.2l.2.05v.15h-.2m-2.75-1.8l-.05.05v-.05h.05m-.85-.05l-.2.05V3.3q.2 0 .2.2m.65 1.05h.1v.05l-.05.25q-.05 0-.1-.05l.05-.25m.1-.3q0-.15.05-.25h.1l-.05.3-.1-.05m-2 1.4l.1-.05.15.05q0 .1-.05.2-.15-.1-.2-.2m1.95-.45l.25-.05.2.05q.1.05.15.1-.05.15-.1.2l-.05.05-.4-.1-.2-.1q.05-.1.15-.15m1.2-.95v.2h-.15v-.2h.15m.35-.05l-.3-.1q-.05-.15-.05-.3l.2.1.15.3m-.4 1.1l.1-.05q-.05.1-.05.2l-.05-.05v-.1m-.45.75l.2.05q.05.05.1.05l-.1.15h-.25q-.05 0-.05-.05l.1-.2m-.2-.05l-.05.15-.1.05h-.1l-.15-.1q-.1.1-.2.15h-.05l.2-.3h.3l.15.05m.3-.75h.2v.2l-.2.05v-.25m1.4-.05q-.05-.1-.05-.15l.05.05v.1M-25.85.3q.1.05.15.1-.05.1-.1.15-.1 0-.1-.05 0-.1.05-.2m-.05.35v.1h-.1q0-.05.05-.1h.05m-.4.3l-.05.15-.25-.15-.25-.1Q-26.95.8-27 .7q0-.15.05-.25.1.05.15.15l.4.25.1.1m-1.3-.6q0 .1-.05.15h-.2l.05-.15h.2m.95 1.4h.05l-.05.1v-.1m-.45.45l.2.05-.1.1q-.1 0-.15-.05 0-.1.05-.1m-.65.45q.15 0 .2.15.05.2.1.3l.15.35q.05.15.05.35-.15-.05-.2-.25l-.3-.55-.1-.05.1-.3m1 0q0-.1.1-.2.1 0 .2.05l-.1.2q-.1 0-.2-.05m.8-1.1h.1v.15l-.1.05v-.2m-1.95-.25l.05-.2q.2.05.15.2h-.2m1.4 2.8q.15.05.15.2l-.05.65-.05.25q-.1-.1-.1-.2v-.65l.05-.25m-.05-.7q.1.1.15.2 0 .15-.1.2l-.1.05v-.2l.05-.25m29.6 1.75q0 .15.1.2v-.2h-.1M12.6 6.9V7h.25q-.1-.1-.25-.1m-.2-.2q0-.05-.05-.05h-.05v.15l.1-.1m1.5.15h-.15v.4l.1-.05.05-.2v-.15m-.05-.95l.05.2.05-.2h-.1m.7-5.4h-.15l-.1.2q.05.15.1.2.15-.1.15-.25V.5m6.4 4q-.05-.15-.05-.3-.15-.1-.3-.15l.05.75.15.3q.05.15.15.2v-.8m-.4-.95l.05-.2h-.15v.25l.1-.05m10-7.05h-.1l-.05.2.1-.05.05-.15M30.2-5q0-.2-.1-.3l-.1.4.1.65q.1.2.25.2l.05-.05v-.3l-.2-.6M26-7.75q-.15-.05-.25-.1h-.25v.1q-.05.05-.1.05l-.2-.1-.25-.05-.05.05q.1.15.25.2l.25.1.1.3-.25-.25-.5-.2-.15-.25q-.15.05-.25.05l-1.5.35-.2.2-.85.65-.45.65-.25.55-.25.9q-.05.2-.1.3l-.1 1.05-.05.05v.65l.1.3q-.05.1-.15.2l-.05.05v.3q0 .15.05.3.1.15.2.15l-.2.2v.35l-.1.35.05.75.1.3-.1.3q.05.15.2.15h.05V.9l.05-.25-.1-.05V.45l.2-.2.15-.05.05.05q.05.15.05.3l-.05.3v.3l-.05.3q.05.1.15.15l.1-.3.15-1.05q.05-.1.15-.2v-.4q0-.15.2-.2h.05l-.05.35-.1.3.2.2v.15l.05.05-.05.15-.2.1-.15.25-.1.3-.05.35v.15l-.3-.05h-.2l.15.25-.05.35q.1.1.15.25l-.2.05-.25-.25-.05-.1.1-.2q-.05-.15-.1-.25V1.7l.1-.05q0-.15-.1-.25l-.2-.05-.05.15.05.4.1.2-.05.35q0 .15-.1.3v.15h.2l.55-.05V3q.05.15.15.25l.15-.25h.2l.05.1.05.05q-.05.15-.1.2l-.1.3q-.1.1-.15.2l.1.25v.05l-.1.3v.45q-.05-.05-.1-.15-.05-.15-.15-.25-.05.2-.05.35.05.1.15.25.15 0 .3.05-.1.1-.2.15-.15.05-.25.15v.2h.1q.05-.05.1-.05v.5l.05.1h.3q.05 0 .05.1-.05.05-.05.15l.25.15q-.05.05-.05.15l.35.2q.05 0 .05-.05v-.3h.2l.05.1-.05.3q.05.15.15.25l.85.3q.2 0 .35.05l.3.05q.15.05.3.05l.7.1.25.1q.1-.05.2-.15l.3.05h.25v-.1l-.25-.1q-.15-.1-.25-.15l-.1-.15v-.05h.1q.1.15.25.2.1 0 .25.1l.2.15q.05.15.15.15h.7l1.1-.45.85-.6.5-.7.6-1.65q.05-.2.05-.35l.15-1.4-.05-.35V2.3l.05-.25q0-.2.05-.3v-.4q-.1-.1-.2-.1.1-.1.2-.15l.05-1.85-.1-.4q-.1 0-.2.05l.1.35-.1.2h.1q0 .1-.05.2l-.25.2q-.1-.15-.1-.2l-.05-.35v-.35q.05-.2.1-.35-.05-.15-.2-.2-.1.15-.1.3l-.1 1q-.1.15-.15.25l-.05.35v.2l-.15.05v-.7l-.1-.2q0-.15.05-.25l.25-.2q.05-.15.05-.3l.15-.65.05-.05q.1 0 .15.05h.25l-.1-.65-.05-.05-.05-.15q.05 0 .05-.05.15.05.3.15l.15.2-.05.3q0 .15.05.25-.05.15-.1.25.05.1.15.15h.1l.05-.6q-.1-.15-.1-.3l.1-.6q-.1 0-.25.05l-.3-.1-.25.05v-.4l-.1.05q-.1.05-.15.15l-.05.1q-.1-.05-.15-.1l-.05-.15v-.15l.25-.2.1-.25h.05l-.1-.6v-.5q.05 0 .1.1 0 .15.1.25l.05.05.05-.4q0-.1-.05-.15l-.3-.05v-.15l.4-.15.05-.25h-.2l-.05-.2q0-.2-.1-.3-.1-.05-.2-.05h-.1l.05-.2q-.15-.05-.25-.05v-.25q-.05-.1-.15-.15l-.2-.05-.05.15q0 .15-.15.15l-.05-.05.05-.2q-.05-.2-.1-.3l-.15-.2-.55-.2-1.75-.2m-.4 0h.1l-.05.1-.05-.1m.8.6q.05-.15.1-.25l.25.05q0 .1-.1.2h-.25m-.75.3v.15h-.05q-.1-.1-.05-.2h.1q.05 0 0 .05m-.1.5h.1V-6h-.05l-.05-.05v-.3m2.1-.6v-.2l.4.15-.05.1-.25.2-.7.45q-.15.05-.25.1-.1.1-.25.15-.15.05-.3.05v-.15l.1-.1.7-.4q.15-.1.25-.15.2-.1.35-.15v-.05m1.2.7h.2v.45h-.1l-.2.1.05.2.15.15.15.1q-.1.1-.15.2-.05.05-.15.1-.1-.05-.15-.1l-.05-.2-.05-1.05.3.05m-6.75 0L22-6.3q.05-.05.05-.1l.1.05-.05.1m.3-.35l.05-.3q.1.1.15.2l-.05.25v.05l.05.05v.25l-.1.1.05.1q-.05.05-.15.1v-.8m1.5-.6l.1-.2h.15v.2h-.25m1 2.1v.2h-.2v-.25l.2.05m.15.4q.05-.1.15-.15l.9-.05q.15.05.2.1l-.1.2.2.15.15.45.15.2q.05.1 0 .25l.1.85v.2l.15.05.45-.15h.1v.15q-.1.1-.2.15l-.2.05-.2.15h-.05v.85l-.1.2-.05 2.35.2.05.1.2q.05.1.05.2-.1.05-.25.1-.1 0-.15.15l-.1 1.5-.2.8 2.15.2.1.2q.1.05.1.15h-.1l-2.35-.3-.25.05-.15.15q-.15.05-.25.1h-.3l-.2.15H25l-.2-.05-.15-.15.1-.2q-.05-.1-.15-.15l-.05-.2-.2-.45q-.1-.1-.1-.25v-.9l-.1-.2-.3.1-.2.1h-.15v-.1q0-.1.15-.15l.4-.2q.05-.15.1-.25v-.3q0-.15-.1-.25l.15-.25q.05-.15.05-.3l.05-1.95q0-.15-.1-.2-.1-.05-.2-.15-.1-.1-.15-.2.05-.1.15-.15l.25-.05.15-.6.05-1.25.2-.45v-.2l-2.2-.15v-.05l-.15-.2v-.05l1 .15 1.55.05.2-.1M22.8-3.25v-.25l.1.05v.15l-.1.05m-.5-2.3q.15 0 .2.1l-.05.25-.05.05h-.1v-.4m-.7-.05h.15l-.05.25q-.1.15-.15.25l-.15.35-.1.3q-.2-.05-.2-.25.05-.15.2-.25.1-.15.1-.25.15-.2.2-.4m-.55 1.35l.05.1h-.05v-.1m-.1 1.1h.2V-3l-.15.05-.05-.2M21-3.5v-.05h.05L21-3.5m1.2-1q.1 0 .15.1 0 .15-.1.2-.1-.05-.15-.1l.1-.2m-.45.35h.2L21.9-4h-.15l-.05-.05.05-.1m.65 1.3v.15l-.25.15-.15.15-.2.05q-.05 0-.05-.05v-.15q.05-.1.15-.15l.5-.15m-.45 1.3v-.1h.1l-.1.1m.8-.5v-.1l.05-.15.2.05-.1.15-.15.05M21-2.2q0-.1.05-.1h.15l-.05.1H21m1 1h-.05q0-.05-.05-.1l.05-.05H22v.15m.4 1.1l.1-.2q.15.05.2.1 0 .1-.05.15L22.5.1q.05.05.1.05l.2.1q.1.05.15.1 0 .1-.05.2h-.05l-.4-.05-.2.1-.1.05V0l.2-.05v.1l.05-.15m.1-.3q.1-.1.2-.15.1 0 .1.15h-.3m.6.15h.05v.1h-.05v-.1m6.35-5.35l.1.05-.1.05v-.1m-.3.85l.15.05-.05.25v.2q-.15 0-.3-.1l-.15-.05q-.1 0-.15.05l-.05.05.05-.3.05-.1h.2q.15 0 .25-.05m-1-1.1V-6q.1.05.15.1l-.15.05m-.2-.05l-.05.15-.35.15.05-.15q.15-.05.2-.15h.15m.15.85l.05-.2h.1l-.05.2h-.1M28.4-4l-.1.05q0-.05-.05-.1v-.25l.2.05q0 .15-.05.25m-.3.25l-.1.25-.25.05-.15.2q-.1-.1-.15-.2-.05-.1 0-.25h.25q.15-.05.2-.15l.2.1m.55.45l.05-.2q.15.05.15.2.05.2.15.3v.1q0 .1-.05.15-.15.15-.25.2l-.15.05q-.05 0-.05-.05l.1-.3.1-.3q-.05-.1-.05-.15m.25-.3l.05-.1q.05-.15.15-.3h.2v.15l-.2.2q-.1.05-.2.05m-1.45-1.15h.1l-.1.2q-.1.1-.25.15-.05-.1-.05-.25.15-.1.3-.1m-1.1-.9h-.05l.05-.05v.05m-.6.45l.05-.1.05.05-.1.05m.3.1v-.15l.05-.1h.3q-.1.15-.1.25h-.15l-.05.05-.05-.05m.5.7v-.15h.1q.15 0 .25.1-.05.1-.15.1-.1 0-.2-.05m.8.25h.3q-.1.1-.2.1l-.55.35-.05-.05q0-.15.05-.25l.45-.15m-.4.95h.1l-.1.1v-.1m.25-.15l-.1-.1q.05-.1.15-.2l.1.05-.05.25h-.1m.15 2.2h.15q-.05.1-.1.15l-.3.15h-.05v-.2q.15-.1.3-.1m.3.95l.05-.1q.15.1.2.2l-.2.05-.05-.15m-.15-.55l.1.1-.05.25-.1-.05.05-.3m1.75-1.45l.3-.1h.2v.15q-.1.1-.2.15l-1.4.65H28l-.05-.1q0-.15.15-.2l1.15-.55m-.2.95v-.1h.25v.1h-.25m-1 .35L28-.85v-.2h.1l-.05.15m0 .35h.1q.2 0 .35.05l.15.1q.05-.1.05-.2h.15l-.1.45q.05.05.1.15l-.05.1-.2-.1q-.1-.1-.3-.2l-.25-.1v-.25m.5.55v.2q-.1.1-.25.1l-.05-.15q0-.05.05-.1l.2-.1q.05 0 .05.05m-.7.15q.05.05.05.1h-.1l.05-.1m.3.35V.4l.25.05.05.05-.05.1h-.05l-.2-.1m.1.9v-.1h.05l-.05.1m.75-.05l.05-.1h.05l-.05.15-.1-.05H29m-.05.4l-.05-.05.1-.15.05.05-.1.15m-.8.55l-.1-.05.1-.2.1.05-.1.2m.45.45l.45-.3q.1-.1.2-.1.05 0 .05.05l-.05.1q-.05.15-.15.2l-.45.15-.05-.1m1.25.2L30 3v.2l-.2-.05.05-.2m0-.6V2.2q.05 0 .15.15-.1-.05-.15 0M27.5.45l-.1.05V.4l.1.05M26.05 5.1v-.2h.2v.2h-.2M30 4.25h-.1l.05-.1q.05.05.05.1M29.3 4v.15h-.2L29.05 4h.25m-1.25-.55v-.2h.15v.2h-.15m.8 1.05q-.1 0-.2-.05 0-.1.1-.2.1 0 .15.05 0 .1-.05.2m-.3.7q.1.05.15.15l-.05.25-.1.05-.05-.05v-.1l.05-.3m-.05.9v-.25q.1.1.1.25v.35l-.05.35-.1.1-.1-.2.1-.05-.1-.3q.05-.15.15-.25m.8-.5v-.25l.2-.65.25-.25q.15.15.1.3l-.2.2-.15.3-.1.3-.1.05M23.55.4v.35l-.1-.05Q23.4.55 23.4.45l.1-.05h.05M23.2.25L23.05.1h.3l-.05.15h-.1m-.15 1.1L23 1.5l-.2.2-.4.25-1.1.35q-.05-.15-.05-.2l1.2-.5q.15-.05.2-.15.15-.05.25-.1h.15M22.9.9l.1-.05.05.05-.1.15L22.9 1V.9m.65.5l.05.05-.05.1h-.05V1.4h.05m.1-.35q.1-.1.25-.15h.1l-.1.2q-.15.1-.35.1v-.1l.1-.05m-2 .25v-.1l.25.05v.1l-.25-.05m.5 1.4l.3-.15h.1l-.1.2q-.1.15-.15.25v.55q-.05 0-.1-.05l-.1-.3-.15-.25q.05-.2.2-.25m-.35 1.1l.25-.15q.05 0 .05.05l-.05.2q-.15.1-.3.1l-.05-.05.1-.15m.1.5q.05.1.2.15h.2l.05-.25h.1l-.2.55-.1-.1-.2.05q-.1.05-.25 0v-.3l.05-.2.15.1m.7-.35q.1.05.15.1v.2q-.1 0-.2-.05 0-.1.05-.25M22.2 5q.1.05.15.1l.1.45-.05.55.05.05-.05.15-.25.05-.2-.05v-.25l.1-.25h.2v-.3q-.05-.05-.15-.1l-.2-.1q.05-.1.15-.2.05-.1.15-.1m1.85-1.25h.1v.2q-.1.05-.25.05-.05.15-.15.2l-.05.05h-.05l-.15-.05-.15-.15.3-.05.15-.15.25-.1m.1.85l-.1-.05.05-.2.1-.05q.15 0 .25.05v.15l-.3.1m-.5-1.2h.15l.05.05q0 .1-.05.2l-.1.05q0-.15-.05-.3m-.15 0q.05.15.05.3-.1.05-.25 0l-.25.15-.15-.05v-.15l.05-.15.25-.05q.1-.1.15-.2l.15.15m.15 1.05h.15v.35h-.4l.25-.35m-.8.6l.05.2q-.15-.05-.15-.2h.1m.25.85q-.05-.1-.05-.15l.35-.15.1.1q-.1.05-.15.05-.15.1-.25.15m1.8-.75l.05.15-.3.05-.05-.05q.05-.15.1-.25l.2.1m.25.2V5.2l.05.05v.1h-.05m-.9.7q.2-.05.35-.1h.2l-.1.1-.7.5-.2.2-.45.2.05.1v.15l-.15-.05q-.1-.1-.25-.15-.05-.05-.05-.1.05-.05.15-.1l1.15-.75m.4-.35v-.1h.05l-.05.1m-.4 1.55l.2-.1q.1 0 .15.1l-.2.1-.05.05-.1-.05v-.1m1.05-.3V6.7h.15v.2l-.15.05m1.75.45l-.15.05-.05-.15.05-.05h.2l-.05.15M25.4 6.2v.15h-.1l.1-.3v.15m-3.15-.1L22.2 6q-.05.05-.1.15l.15-.05m2.95-1.45h-.15v.1l.1.05.05-.05v-.1m.55-9.3h.15q.05-.05.05-.1h-.15l-.05.1m3-1.45v.15l.1-.1q-.05-.05-.1-.05M11-.6q.05-.05.1-.15H11v.15m2.25-6.85h-.2v.1l.2-.05v-.05m.65 0l-.15-.05q.05.1.1.15l.05-.1m-2.1-.1l.1.15.05-.15h-.15m.65.05l.05.2h.2l.05-.2h-.3M1.75-.6l-.05.2v.2l.35.05Q2-.3 2-.45l.05-.15h-.3m.5-.6q-.15.05-.25.1l.2.05.05-.15m-.05.25v.15h.15l.05-.15h-.2m-1.8-.3q-.05.1-.15.2l.2-.05q.1-.05.2-.15H.4M.3-1.6l-.2-.1-.15.15.1.25.05.05.15-.1.4-.2.1-.1h-.2L.3-1.6m2.05-.35q.05.2.15.35l.15-.35q.1 0 .15-.1h-.15q-.2 0-.3.1m-.5-.15l-.1-.05-.2.1v.15h.1q-.1.05-.15.1v-.1l-.1.15q-.05.1-.1.15l-.2-.15-.1.2v.15l.1-.05h.25l.8-.35q-.05-.15-.2-.15L1.8-2q0-.05.05-.1M1.4-6.4l-.05.2-.2.15q0 .15.1.2.1.1.15.2l.05.05H1v.85l.2.1q.15.05.25.1l.15.15.05.2.1.2q.05.15.05.25l.15.45q.05.1.15.15l.1.2-.05.05v.4q.1.1.2.15l.85.1q.1-.1.2-.1l.2.1v.2q-.05-.05-.15-.1l-.2.1-.1.2-.2.05q-.1.05-.15.1-.1.1-.2.1l-.1.1.2.1-.05.25v.35h.25q.05-.05.15-.1l.2-.2q.1-.05.15-.1l.4-.2.1-.2.3.05q-.05.1-.1.15v.05h-.05l-.2-.05q-.05.15-.05.25-.15.1-.25.1l-.2.05q-.15.05-.2.1-.05.15-.1.25l-.2.1q-.1 0-.2.05l-.15.15q-.05.05-.1.15l-.05.25.05.25-.1.25-.2.1q-.05-.1-.05-.2v-.3l-.2-.1q-.1.1-.1.15-.05.1-.1.1L1.4.35v-.2L1.5 0q0-.1-.05-.25 0-.05.1-.1-.05-.1-.15-.1L1.35-.5l-.05.2.1.15h-.1q-.05 0-.1-.15-.1.1-.2.1L.85-.25 1-.35l.3-.4q.05 0 .15.05h.15l.25-.15-.1-.45v-.05l-.05.05h-.2l-.2.1q-.15.05-.25.1l-.2.05Q.75-1 .7-.9l.1.2q0 .1-.05.2l-.2-.1L.5-.85.25-.8q-.1-.05-.1-.15-.1-.1-.2-.1-.1-.05-.1-.15l-.25-.4q-.15-.05-.25-.05L-.7-1.9l.05-.2.2-.1q.1-.05.15-.15 0-.1-.05-.2l-.2.05.05.1q-.05.1-.15.15-.05 0-.05-.05l-.1.1q-.1.05-.2.05l-.05.05v-.15L-1-2.3l.1-.05-.05-.1q-.1-.05-.15-.15l-.1.05.05-.3q-.1 0-.2.05l-.15.1-.05-.05q-.05-.1-.05-.2-.15.05-.2.05-.05 0-.05-.05l.05-.15-.2-.2.05-.05.25-.05q.05 0 .15.05h.6l.2-.1v-.25q-.1-.05-.15-.15-.05-.1-.15-.15-.1-.1-.15-.2-.1-.05-.15-.15l-.2-.3-.3-.3q-.05-.05-.1-.15-.1-.15-.1-.25l.15-.1q.05-.05.15-.05l.25.25h-.05q-.1.1-.15.2l.25-.05q.1-.1.15-.2.05-.05.2-.1.05 0 .1-.1l-.05-.25-.15-.15V-6h-.2q-.15.05-.25.1l-.05.2q-.1 0-.1-.1l.05-.25q.1-.05.2-.05.15-.05.25-.05l.05-.85-.1-.2-.05-.25q0-.1-.1-.2l-1.15-.05-.25.05-.25-.05h-.15l.05.15.1.2.35.25.1.2v.1l.45-.1-.1.25q-.05.1-.1.15-.1.05-.15.05-.05-.1-.15-.15l-.1-.2-.3-.3q-.1-.05-.15-.15l-.1-.2-.15-.15-.05 4.45q-.05.15-.1.25l-.15 5.4q.05 0 .1.05l.05-.1q.1-.05.2-.15l.05-.1q.05.05.05.1-.05.1-.1.15l-.2.1q-.05.15-.1.2v.55l-.1.25-.05 2.4.1.25.05-.05v.15q-.1.05-.1.1v.3l-.1.1 3.35.15.25-5.4.05-.25q.05-.05.2-.1l1.25-.15.05.1.05.05h.15l.15.15.15.15q.1.1.1.2 0 .15.05.25t.05.2v.3L2 2.6l.05.25v.3q-.05.1-.05.2L1.95 5.1q.05.05.1.05L2.1 5q0 .05.05.05l-.05.15q-.1.1-.2.15l.1.2v.3q.1.1.1.2l.05.3q.1.05.3.65l2.8.1h.25l-.1-.15-.15-.45q-.05-.05-.1-.2l-.2-.65V5.4l-.25-.1q0-.15-.15-.15-.1.05-.1.15l.15.15v.25q-.1.05-.15.05-.05-.1-.15-.1-.05.15-.15.15.05.15.15.2h.05l-.05.05L4.15 6l-.1-.5-.2.05-.05-.2-.3.05-.1-.1-.15.2q-.1.1-.2.1t-.2.05q-.05.1-.2.1-.05-.15-.1-.25l.2-.1q-.05-.1-.1-.25l-.2-.1.05-.3.35-.2L3 4.3l.1.05.05.25q0 .15.05.25l.05.1.15-.3v-.3q0-.05.05-.05l.1.05h.3q.1.05.15.05h.05l.05-.05h.05l-.1-.1-.25-.05q-.05 0-.05-.05L3.8 4h.5q.15.05.15.15V4.85l.5-.25q0-.1.05-.2l-.2-.1-.1-.1.25-.15L5 1.8l-.2.15-.15-.05q0-.05.1-.1l.15-.15h.05v-.2q-.1-.1-.1-.2v-.3Q4.8.85 4.7.8L4.65.6 4.4.25l-.8-.4Q3.55-.3 3.55-.4h.25l.45-.15.15-.15.15-.1q.05-.1.15-.15l.55-.7.15-.45.05-1.65q-.05-.1-.05-.2h.1l.05-.75q-.1-.15-.15-.2v-.3l-.15-.45-.1-.2q0-.05-.05-.15L5-6.2l-.45-.55L4-7.1l-.65-.25-1.45-.3-3-.1-.05 1.15.05.25.1.2q.05.05.15.1.05.1.1.15l.05.25.05.05h.15l.05-.15.1.05q.1.1.1.2l.05.3q-.05.05-.1 0v-.1q0-.1-.1-.15l-.1.2q.05.1.15.15H-.6q-.15 0-.2.1-.05 0-.1-.05v.7l.05.25q.05.1.15.15l.15.15q.1.05.15.15 0 .1-.15.1l-.05.05q0 .1.05.15h.25l.1-.2-.1-.2.2-.75-.1-.2h-.35l-.05.3-.05.05-.1-.05.05-.25q.05-.1.1-.15.1 0 .2-.05t.2-.05v.1q.05-.05.05-.1l.1-.2q.1.05.15.15l.15.1q.05.05.15.05l-.05-.25.1.05.15.15q.15.05.25.05v-.25q0-.15-.05-.25H.75l.35-.85.2-.05.1-.2m-.45-.7h.15l-.05.15h-.1l-.05-.1.05-.05m-.85.65l-.1.2h-.1q0-.1.05-.2H.1m.95-.15v.15q-.05.1-.1.15-.1 0-.1-.1t.05-.2h.15M4.9-3.45h.05v.1l-.1.05q-.1-.05-.1-.1l.15-.05m-1.35-.1l.05.05v.05l-.05-.1m-2.1-1.8q.05.05.15.1l.1.2-.15.15q-.05.1-.15.15l.05-.3Q1.4-5.2 1.3-5.3q-.1-.1-.1-.2.15.05.25.15m-.9-.3H.6l-.05.1v-.1m-.35-.3h.2v.2H.2v-.2m.35.7q0-.1.05-.15l.05.05-.05.15q-.05 0-.05-.05m-.3-.05H.1v-.2q.1.1.15.2M4.7-2.7q.05-.1.15-.2h.1q-.05.1-.15.15l-.1.05m-.15.3v.05l-.05.15-.1-.1v-.2l.15.1m.45.05q-.05 0-.1-.05l.05-.25q.1.05.15.1l-.1.2m-1.1-.3l.35-.05h.1q-.1.05-.15.05l-.05.05h-.1l.05.15q0 .15.1.25l-.1.05-.05-.1-.35-.1.05-.15.15-.15m-.4 1.1v-.1l.15-.1q.1 0 .15.1l-.2.1h-.1M2.6-.2q.15-.1.25-.2h.1l-.05.25q.05.15.2.2l.2-.2.1.05v.3l-.3.05Q3 .1 2.9 0q-.2-.1-.3-.2m.85-.4v-.15l.15.05-.15.1m.6-.35q.2 0 .25.15H4l.05-.15m1.15-2.1q-.05.1-.1.1L5.05-3l.1-.1.05.05M4.15.35h.05q-.05.2-.1.3h-.15v-.5l.2.2m.25.85v-.05l.05.05H4.4m-.3.05h-.2q-.1-.05-.25-.1v.05l.1.3-.2-.05-.2-.2q-.05-.1-.15-.15l-.1-.05.05-.1.1-.35q.1-.1.2-.15Q3.5.3 3.6.2q.1.1.15.2-.05.15-.25.2-.05.05-.1.15l.5.25q.1.05.2.15v.1m-1.35-1h-.1l.05-.1.05.1m-.15.4l.4.1q-.05.1-.05.15L2.6.85 2.5.7l.1-.05M3.7.8V.7q.15 0 .15.1H3.7m-.35 1.45v-.1h.05v.1h-.05m.65-.5l.05-.15.25.05-.05.15H4.1L4 1.75m.45-.1l-.1-.05-.05-.25q.15.15.15.3m-2.5-.6v.15l-.1-.15h.1M1.2.7Q1.1.65 1.05.55L1 .35q.1.05.15.1.05.15.05.25M.8.85H.75L.6.8V.7h.2v.15m1.25 1.2q.016.066.05.1-.05.05-.1.05l.05-.15m.4 2.1q-.2.1-.35.1.05-.1.15-.2.2-.05.35-.1-.05.1-.15.2m2.25-.9h-.1l.2-.2.05.05v.1l-.15.05M3.4 3.1h-.2q.05-.1.1-.15.05.05.1.15m.15.3h.1v.1l-.2.05q-.1.15-.25.25l-.1-.05.1-.2q.15-.1.35-.15m-.5-.05q-.15-.05-.2-.15v-.1H2.8l.05-.15.15.15.05.25m.1.85V4h.1v.2h-.1m.4-.2v-.05h.05L3.55 4m.5 2.4l.05-.1q.05.05.05.1h-.1m-6.7-13.65l.05-.25.1.05q0 .1-.05.2h-.1M-3.3-6.2h.1l-.1.25v.05l-.1-.1.1-.2m1.65-.85q-.05-.05-.05-.1h.1l-.05.1M-.2-7.3h.1q0 .15-.05.3h-.1l.05-.3m-.8-.1q.15.1.2.25H-1v-.25m.2 1.05v-.3q.1-.1.2-.1.05.1.1.15 0 .1.1.2-.05.1-.15.15l-.25.1q.05-.1.15-.15v-.1l-.15.05m.3.2h.2l-.1.1-.15.05.05-.15m-1.65.4v.2h-.1l.05-.2h.05m-.05-.3v-.05q.1-.15.25-.15.1.05.15.15h-.25l-.15.05m-.25 1.2v.2h-.1l-.05-.2h.15M-2.5-3.2q.05.05.05.1h-.1l.05-.1m.5-.45h-.2v-.15q.15 0 .2.15m.6-.15l-.05.15q-.05-.05-.1-.15l-.05-.05.05-.15q.15.05.15.15v.05m-.35.15q-.05-.1-.1-.15-.1-.05-.15-.2l.2.1.05.25M-1.2-4l.05.05v.1l-.05-.05V-4m.2.3q-.05.1-.1.15l-.1.05.1-.2h.1m-2-2.25l.25-.1v.25q-.2.05-.3.05l-.05-.15q.05-.05.1-.05m.05 1.05Q-3-4.9-3-4.95h.25l-.2.05m-.3 1.8l-.15-.05h.15v.05m.35-.15l.15.1-.1.15h-.1q0-.1.05-.25m-.55.45v-.1l.1.05-.1.05m-.1.85q.15.1.25.2l.2.05-.05.2q-.1 0-.2-.05l.05.1q.1.1.2.15-.15.15-.3.15l-.1.05v-.3q-.05-.1-.1-.15l.15-.05q-.05-.2-.1-.35m.45-.1v.15q-.1-.05-.1-.15h.1m-.25 1.3q-.1 0-.15-.1-.1-.05-.1-.15.1.05.15.05l.1.2m.8-.7q-.05-.05-.05-.1h.1l-.05.1M-2.4-.2l-.05-.15q.1.05.15.1l-.1.05m1.1-.15v-.1l.1.1h-.1m.9-.5V-.9l.05-.1h.1q-.05.1-.05.15h-.1m-.3-.45l-.1.05v-.15q.1 0 .1.1m-.4.25h-.1l.05-.1.05.1m.4.5l-.05-.1q-.05-.1-.1-.25.15.05.25.1.05.1.05.2l-.15.05m.15.9L-.6.4v.25q-.05.2-.05.35-.05.15-.15.2l-.1.05.05-.25q0-.15.05-.25L-.65.1q.05.1.1.25M-.9 1.4h.1v.55l-.1.3-.05.3q-.05-.1-.05-.2l.1-.65v-.3m-.25-.45l-.05.1h-.1V.8h.1l.05.15m-.3-.7q0-.15.05-.25l.3-.1-.1.2q-.1.1-.25.15M-1.8.6h-.15l.05-.15q.05.05.1.15m-.45.1q.1.05.1.1l-.1.05V.7m.5 1.4h-.1q-.05-.1-.05-.2h-.05v-.05h.05v.05q.15.1.15.2m-.3.15h.1v.65q-.05.15-.1.25l-.1.35q-.05-.1-.1-.15l.1-.05.1-.65v-.4m1.3.3v-.2h.1v.15l-.1.05m-2.8-2.4l-.05.1v-.1h.05m.3.7v.2q-.05-.1-.05-.2h.05m.65.15q0 .1-.05.1V1h.05M-3 2.25l.1.05v.2l-.05.3h-.1l.05-.55m.2-.5h.05v.05l-.05-.05m-.25-.2h.15l-.25.2h-.05l.15-.2m-.05 1.5h.05v.05l-.05.2v-.25m.45.8q0-.1.05-.15l.2-.05q.1-.05.25-.05h.2l-.1.2-.4.05h-.05l-.1.05-.05-.05m-.95-.55l-.05.15h-.1V3.3h.15m.1-.1l-.1-.05.15-.25.05.25-.1.05m-.1.85l.25-.05.1-.2.1.2-.2.1-.2.05q-.1.05-.15.1-.05-.05-.05-.15l.15-.05m.65.5l.05-.35q0 .05.05.05v.35l-.1-.05m-.1-.55q-.05-.05-.05-.1l.15-.05V4h-.1m-.4 1.05l-.1.4h-.15l.15-.3q0-.2-.1-.4.15.15.2.3m2.25-1.7h.15l-.05.1q-.1 0-.1-.1m.05.25l-.1.25h-.05V3.6h.15m.2.55q-.05-.1-.05-.2h.25v.15l-.2.05m-.7-.45q0-.1-.05-.2l.15-.05h.1l-.2.25m-.55.35l.05-.1v.25l-.05-.15m.45.15L-1.8 4q.05-.1.1-.15l.05.25-.1.1m.35.75V4.8q.1 0 .15.1l-.15.05m-.75.05q.15.05.25.1t.15.15H-2l-.05-.05-.1-.2m-.35.5h.1l-.05.15h-.05V5.5m.25.05l.05-.1v.1h-.05M8.85-7q-.1-.05-.2-.05l-.05 1.8q.05.15.1.25l-.05.3q0 .1-.05.15l2-.05.4.05-.05.85q.05.15.1.25 0 .15-.05.25l-.05.05.05.25.15.2q-.15.05-.2.15 0 .1.1.2l.2.1q0-.15.15-.15l.1.05-.05.1q-.1.05-.15.15l-.2-.1q-.1.1-.1.25l-.1.3.1.2q.15 0 .25.15v.1h-.35v.15l.25.1h.1l-.05.2v.25l-.2.1-.05.2h.15l.1.2-.3.05.05.25q.1.1.2.15Q11.1.5 11 .5h-.15q0 .1.05.2.1 0 .15.1-.05.1-.15.2l-.05.2.05.05.1.05q-.15.05-.2.2.1.1.2.15l.2.1v.05h-.15v-.05L11 1.7l-.2.05v.05l.05.3.05.05.15-.05h.1l-.05.2-.1.15h.1v.15l-.1-.05q-.15-.1-.25-.15v3.25l-.1.3L10.9 7q.1.1.2.15h.35v-.3-.2l.1.05v.45l.25.05q.15 0 .2-.1l.15-.55.1-.2q.05-.15.05-.25V6H12q.05-.05.15-.1l.2.1q.1.1.15.2l.2.1.25-.05.1-.05-.05-.15v-.1l.1-.05q.05 0 .05.05v.3q.05.05.1.05l.15-.4v-.2q-.15-.05-.25 0l-.1.05Q13 5.7 13 5.65l.15-.1q.1-.1.2-.15l.1.15V5.4l-.05-.2.05-.3q.1.05.15.1l.15-.2.2-.1.1-.25.05-.3-.05-.25.25-.05q-.05-.15-.1-.25l-.15.05-.1-.25h-.1v-.15l-.05-.05q.1 0 .15.05l.1-.1.05-1.6q.05-.15.1-.2l.15.05v-.15l-.05-.1h-.15L14.1 1l.05-.05q.05-.15 0-.25l.1-.2V.25l.25.1.05-.3-.05-.6V-.7q-.1 0-.1.05-.05.15-.15.25v.25q.1.05.15.2-.1.05-.15.05L14-.45l.3-.4.05-.05V-1q0-.05-.05-.1-.05-.1-.05-.15l.2-.25.1-.25.05-.5v-.05q-.05-.05-.1-.15 0-.05.05-.1-.05-.05-.15-.05l-.8-.25q-.1.05-.15.1h-.35l-.2.1-.5-.05-.05.05h-.25l-.25-.15q.05-.1.15-.2.1.1.2.15h.2v-.2l-.05-.1q.1 0 .15.05l.2.15q.1.05.25.1.1-.1.2-.15l.2-.1.2.05.1.05q.1-.1.1-.25.05-.05.1-.05l.05.4.6-.1q.1-.1.1-.2l.1-.95q0-.15.05-.25h1.9q.15 0 .25-.05v-1l-.05-.15-.2.15q-.15.05-.25.05.05-.1.2-.2l.2-.1q.1-.1.15-.2L17-7.35l-1.15-.05q-.1.1-.2.1-.15.05-.2.2h-.55l-.2.1q-.15 0-.2-.1l-.25.05q-.1.05-.1.15-.15 0-.25-.05l-.4-.3h-.15v.1h-.3l-.1.2-.1-.2q-.05-.05-.1-.05l-.05.1-.05.05h-.25q-.1 0-.2.1l-.1.05-.05-.1-.15-.2-.1-.1-.15.35-.2-.1v-.1l.05-.05.1.05q-.05-.15-.15-.15h-.3l-.3.1-.15.1q-.15.1-.2.2-.05.05-.15.1l-.1.1v-.1l-.1-.25.75-.3.25-.05q.05-.1.05-.15L8.7-7.6l-.05.35.2.05q.1.05.2.15-.05.1-.1.25l-.05.15L8.85-7m.35.4q-.05-.05-.05-.1l.3-.1q.15-.05.25-.05l.2-.1v.2l-.7.15m.1 1.7l-.2.05-.15-.05-.15-.4q.2.05.4.15l.1-.3.2.3h.65v-.3h.2v.3l1.25.1v.1q-.2.1-.35.1L9.3-4.9m6.75-2.15q.05.05.1.05l-.05.05v.35l-.25 1.3-.05-.05.25-1.7m-.8.45v.2l-.15.05-.05-.1v-.2q.1 0 .2.05m-4.3.05L11-6.7h.05v.05l-.05.1h-.05m.45.15l.15-.1q.05 0 .1.05v.2h-.15q-.1-.1-.1-.15m0-.35v.1q-.1-.05-.1-.1h.1m2.1.05l.05-.15v.15h-.05m-.1.35l.05-.2V-6h-.05v-.35m.6-.1h.15l-.05.15-.1.05v-.2m.9-.4v-.05h.05l-.05.05m-2.15.5q-.05-.2-.1-.35.15.1.25.2v.35l-.1.05-.05-.25m1.35.3l-.1.15v-.2q.05.05.1.05m-1.15.45q-.15-.05-.2-.1v-.1h.2v.2m0 .3l-.1.05-.05-.15q.15 0 .15.1m-.1.55l.1-.25h.1l-.1.5q-.1.1-.2.15l-.2.2-.05.05.05-.2.3-.45m.5-.35v-.25l.1.2-.1.05m0 1l.05.05v.3q0 .25-.05.4-.1-.15-.15-.35.05-.2.15-.4m-.55.2q.05-.15.15-.2h.1q-.1.1-.15.2h-.1m.95.3l.05-.15q.05.1.05.15h-.1m.55-.1l.05-.05q.05 0 .1.05h-.15m-3.4-2.25q0 .1-.1.15-.1-.05-.1-.15h.2m.45.5h-.1v-.2q.1.1.1.2m-.3-.65q.1.05.1.15h-.1v-.15m-.6.55v-.15q.05.05.1.15h-.1m.4.25h-.05v-.2q.05.1.05.2m.4 1.9q-.1-.1-.1-.2h.25v.15l-.15.05m.7-.65q-.05.05-.15.1l.05-.35q.15 0 .3.1-.05.15-.2.15m-.35.8q.05 0 .1.05l-.15.05.05-.1m.2-.05l.05-.15.3.05-.05.15h-.05l-.25-.05m.75-.3v-.1l.2.05-.2.05m-1 .9v-.2q.1.1.1.2h-.1m-.05.95l.05-.15q.05.05.05.15h-.1M12-2v-.3q.1.15.1.3H12m.05.3v-.15l.05.1-.05.05m.1.7h.1l-.05.15q-.05-.1-.05-.15m-.6-.45q.1.05.15.1h-.2l.05-.1m.15.7l.1.25q-.15 0-.25-.1l-.05-.15.05-.25q.15.1.15.25m.55.65v-.15q.05.05.1.15h-.1m-.05-.35V-.6q.1.05.15.15h-.15m1.5-1.9q-.1-.1-.15-.25l.2.05-.05.2m-.95.35v-.1q.05.05.05.1h-.05m.55.25v-.35h.1v.5q-.05-.05-.1-.15m-.05.95h-.15l.1-.15h.1l-.05.15m.1.35h-.05V-.7h.1l-.05.25m2.7-4.2q.05-.1.15-.15.1.05.15.1 0 .15-.1.2-.1-.05-.2-.15m-.8-.5l.05-.15q.1.1.1.2l-.15-.05M13.9.05l-.15.05v-.15q.1.05.15.1M13.35 0q.05.1.05.2l-.05.55-.05.25q-.05-.15 0-.25L13.25.2l.1-.2m-.15 1.45l.05-.3q.05.15.1.25l-.05.9q-.05-.1-.1-.25v-.6m.5-.3v.35h-.1q0-.25.05-.4l.05.05m-.1.8l.05-.15h.1l-.05.1-.1.05m.05.15l.05.1-.05.1q-.15-.05-.15-.2h.15m-.35.75q.05.15.2.2h.1q0 .05-.1.1l-.15-.05-.05.1q-.05.15-.1.25h-.1l.1-.85h.1v.25m.5 0l.05-.1.05.05-.05.15-.05-.1m-.35 0l.1-.2h.1v.2h-.2m-1.4-1.65q.05.05.1.15-.05.1-.1.15-.1-.05-.1-.15l.1-.15m-.6-.4q0 .1-.05.15-.05 0-.05-.05l.1-.1m1.1.9l.1.2h-.15q0-.1.05-.2m-.45.3v-.3h.1l.05.35v.3q-.1-.15-.1-.3L12.1 2m-.65.4l.15-.05h.15l-.1.2-.2-.15m.65.65l.05-.05q.15.05.15.15h-.15l-.05-.1m.25.7q.05 0 .1.1h-.1q-.1-.05-.1-.1h.1m-.5.05q-.05-.2-.05-.25l.1-.05h.05l-.05.1q0 .1-.05.2m-.3 0v-.1h.05l-.05.1M11 3.7l.05-.2q.1.05.15.1l.1.25-.05.6q-.1-.05-.15-.15V4q0-.1-.05-.2L11 3.7m.2 2.15l.15-.2h.1l-.1.15q.05.15.1.25l.1.2-.2.1-.05.05v-.1q0-.1-.05-.2l-.05-.05v-.2m-.2-.8l.1-.3q.05-.1.1-.25.1.15.1.3v.35q.1.1.15.2-.05.05-.15.05l-.1-.25-.2-.1M12.3 5v.1l-.15-.05-.3.05q.1-.1.2-.15l.25.05m-.7.3l.1-.15.05.05-.1.1h-.05m.55.5l-.1-.1h.15l-.05.1m.35-.1l.05-.1.05.05-.1.05m1.3-1.95l.05-.1q.05 0 .05.1h-.1m-.3-.35q.1.05.15.1-.05.1-.05.2v.45q-.1 0-.1-.1l-.05-.45q0-.15.05-.2m-.3.45h.05l-.05.35v-.35m-.4.75h.05l-.05.15h-.05l.05-.15m.3-.05l.05-.1.05.1h-.1m-.15.65H13v.15l-.05.05v-.2z" id="a"/><path fill="#FFF" d="M-45 8.55q-.2-.05-.1-.45.3-.75.15-1.2-.6-.1-.55.8 0 1.1-.25 1.15h.75v-.3z" id="c"/><path fill="#FFFFFE" d="M20.85 11.75q-3.95-.55-10.6-.7-9.35-.1-10.95-.2-15-.85-19-.55v.3l40.55 1.15z" id="d"/><path fill="#FFF" d="M15.3 9.75l-.05.65q.05 0 1.3.1.9.1.8-.65l-2.05-.1z" id="e"/><path fill="#FFF" d="M25.55 10l-.05.65q.1 0 1.35.1.85.1.75-.65l-2.05-.1z" id="f"/><path fill="#FFFFFE" d="M-10.35-10.55v.4q-2.4-.3-2.6 1.15.8-.45 2.15.15 1.15.55 2-.35l-2.05-.1q-.15-.75.85-.65 1.1.25 1.2-.25-.95-.15-1-.35h-.55z" id="g"/><path fill="#FFFFFE" d="M2.35-7.3q0-.35-.45-.3.5-1.8.8-1.95-.25-.25-.5-.35-.2.85-1.1 2.6.75-.2.8 0h.45z" id="h"/><path fill="#FFFFFE" d="M46.15 12.35l2.05.05q.05-.35-.3-.5-.4-.15-.45-.5-.25.35-.55.35-.4.3-.75.3v.3z" id="i"/><path fill="#FFF" d="M13.35 7.35h.75l.15-3.5-.3-.05q.1.55-.3.65v.3q-.3.65-1.05 1.6.05.25.45.4.35.2.3.6z" id="j"/><path fill="#FFF" d="M-43.05 8.85q1 .05.6.3-.05 0-.8-.05-.5-.1-.5.35.55-.2 2.05-.05 1.1.15 1.55-.55-.35-.4-1.15-.1-.7.2-.85-.6h-1.3q-.65.6.4.7z" id="k"/><path fill="#FFF" d="M48.4-12.1q-1.7 1.8-4.9 7.4-3.5 6.35-5.2 8.55.35.3.55 0 3.6-4.9 9.55-15.95z" id="l"/><path fill="#FFFFFE" d="M37.45 11.4q-.9-.55-2.55-.2-2.05.4-1.4 2.7 1.2.1 1.75-1.1.55-1.1 1.1-.85.45.15 4.2 1.9.3-.05-3.1-2.45z" id="m"/><path fill="#FFF" d="M46.6 2.6q-.65.15-.8-.35l-.15-.6q-.45.45-.8.6-.1-.6.35-.7.45-.2.4-.6L40.55.8q.95.95.95 1 .7-.15 2.2.6 1.35.7 2.9.2z" id="n"/><path fill="#FFF" d="M43 2.85q-.2-.45-1.7-.8-1.2-.35-1.3-1.3L37.45.7q.05.55 1 .45 1-.15 1.05.3-.65-.15-.45.2.25.45-.1.4-.05-.55-1.05-.75-1.05-.15-1.05.7.1-.05 1.55.05.25.6-.25.6-.55.05-.5.3.75.3 1.5-.65.7-.9 1.05-.5 2.55 1.45 2.8 1.05z" id="o"/><path fill="#FFF" d="M35 1.5q.1-.5-.15-.85h-.45q-.2.65.2.65 0-.2.3 0-.1.25-.65.25-.45.1-.45.4.05.1.3 1 .2.65.7.6.1-.75.75-.95-.2-.6-.45-.6-.75.1-.8-.05.55.05.7-.45z" id="p"/><path fill="#FFF" d="M-47.95-5.85q0 1.05.65.8.05.1.6.25.3-2.15-1-2.3 1.05.8.25.95 0-.3-.45-.6.05.65-.6.9v.4q.3-.05.55-.4z" id="q"/><path fill="#FFF" d="M45.55 4.5q.4-.1.25-.65-1.75-.5-2-.5-.65-.05 1.75 1.15z" id="r"/><path fill="#FFFFFE" d="M-49.75-5.85q.2.2.4 1.1.15.75.6.85v-.3q-.5-2.3-.9-3.25h-.3l-.05.95q.2 0 .25.65z" id="s"/><path fill="#FFFFFE" d="M-34.25-9.3q-.25-.5-.55-.45-.95.1-1 .1 1.2-1.3-.45-1-.3 1.65-1.35 1.6.2-1.1 1.6-2.2l-1.5-.05-.05.7q-.25.55-1.05.35-.75-.3-.75-.8-.45 1.1.2 1.1.45 0 1.05-.05.05.9-.8 1.55l2.05.05q.1-1.3 1-.25-.2-.6.25-.5.85.2 1.35-.15z" id="t"/><path fill="#FFFFFE" d="M-20.15 3.75q.1-1.3 1.05-.35-.15-.45.2-.4.9.25 1.35-.15-.25-.55-.55-.5-.5.2-1 .15 1.3-1.35-.45-1-.35 1.6-1.3 1.6.1-1 1.55-2.2l-1.5-.05-.05.65q-.3.75-1.75-.4-.5 1.1.25 1.1.35-.05 1.05-.1-.05.9-.85 1.6l2 .05z" id="u"/><path fill="#FFFFFE" d="M-4.65-.65l1.85.1.25-.05q.1-1.3 1-.25-.2-.6.25-.5.8.2 1.35-.15-.25-.55-.6-.5-.9.15-.95.15 1.2-1.3-.45-1-.3 1.65-1.35 1.55.2-1.05 1.6-2.15l-1.5-.05-.05.65q-.25.6-1.05.35-.75-.25-.75-.75-.45 1.05.2 1.1.45 0 1-.05.1.95-.8 1.55z" id="v"/><path fill="#FFFFFE" d="M-17.55-10.75v1q-.35.15-.65-.4-.2-.45-.35.05.45.05.2.7-.3.6.05.55 1.25-.55 1.05-1.9h-.3z" id="w"/><path fill="#FFF" d="M37.1 3q.85-.25-.7-.35.25-.7.2-1.3-.25.35-.5.2-.55-.2-.75-.25.4 1.75 1.75 1.7z" id="x"/><path fill="#FFFFFE" d="M48.05-.25q-.05-.3.45-.35.5.05.3-.6h-1.85q0 .1-.45.25v.3q1.4.35 2.4 2.7 0-1.35-.85-2.3z" id="y"/><path fill="#FFF" d="M-49.6-10.65q0-1.05.55-1.85.35-.5 1.05-1.3l-1.75-.05-.2 6.4h.3l.05-3.2z" id="z"/><path fill="#FFFFFE" d="M-31.8-13.05v-.35l-4.4-.15v.4q.45-.15.55.35l-.1 1.55.55.05v-.35q.4-.65 0-1.25.7-.75 3.4-.25z" id="A"/><path fill="#FFFFFE" d="M0-12.2v-.3l-2.1-.05v.3q1.6.1.75.35-.05.45-.5.95.2 0 .55-.55.3-.5.75-.4.05-.15.55-.3z" id="B"/><path fill="#FFF" d="M10.15-12q14.9.35 23.8 1 .1.85.15.85.1.15.35-.8 4.7-.8 9.5.25h.2q.4-.7 2.6-.25.5-.15.55-.3l-61.3-1.7v.35q4.8.2 24.15.6z" id="C"/><path fill="#FFF" d="M-50.3 6.55l-.05 2.2h1.5q0-.6-.75-1.05-.7-.5-.7-1.15z" id="D"/><path fill="#FFF" d="M48.8-1.2q.2.65-.3.6-.5.05-.45.35.85.95.85 2.3l.05.6.25.05q.65-3.7-.4-3.9z" id="E"/><path fill="#FFFFFE" d="M4.35-.05q1.1-.4 1.6-.95Q3.9-.4 2.5.65l.25.1q.45-.4 1.6-.8z" id="F"/><path fill="#FFF" d="M6.45-4.2q.35.1.15-.3 0-.1.6-.1l.5-1.2q-.8 1-1.45.8.4.4.2.8z" id="G"/><path fill="#FFFFFE" d="M13.1-4.8q.4-.1.5.55.05.5.3.1-.7-.8-.75-1.35l.1-.3q-.7.85-1.2.9l.65.3q.25-.4.4-.2z" id="H"/><path fill="#FFFFFE" d="M28.65 5.55q2.7-3.5 4.05-4.85l-8.5 7.2q1.95 1.05 4.45-2.35z" id="I"/><path id="b" stroke="#065626" stroke-linejoin="round" stroke-linecap="round" fill="none" d="M49.75 9.95q-.05 2.95-3.05 2.9L-47.25 9.9q-3-.05-2.95-3.1l.55-17.4q.15-2.95 3.1-2.95L47.4-10.6q3.05.15 2.95 3.1l-.6 17.45z"/></defs><use xlink:href="#a" transform="translate(51 14.5)"/><use xlink:href="#b" transform="translate(51 14.5)"/><use xlink:href="#c" transform="translate(51 14.5)"/><use xlink:href="#d" transform="translate(51 14.5)"/><use xlink:href="#e" transform="translate(51 14.5)"/><use xlink:href="#f" transform="translate(51 14.5)"/><use xlink:href="#g" transform="translate(51 14.5)"/><use xlink:href="#h" transform="translate(51 14.5)"/><use xlink:href="#i" transform="translate(51 14.5)"/><use xlink:href="#j" transform="translate(51 14.5)"/><use xlink:href="#k" transform="translate(51 14.5)"/><use xlink:href="#l" transform="translate(51 14.5)"/><use xlink:href="#m" transform="translate(51 14.5)"/><use xlink:href="#n" transform="translate(51 14.5)"/><use xlink:href="#o" transform="translate(51 14.5)"/><use xlink:href="#p" transform="translate(51 14.5)"/><use xlink:href="#q" transform="translate(51 14.5)"/><use xlink:href="#r" transform="translate(51 14.5)"/><use xlink:href="#s" transform="translate(51 14.5)"/><use xlink:href="#t" transform="translate(51 14.5)"/><use xlink:href="#u" transform="translate(51 14.5)"/><use xlink:href="#v" transform="translate(51 14.5)"/><use xlink:href="#w" transform="translate(51 14.5)"/><use xlink:href="#x" transform="translate(51 14.5)"/><use xlink:href="#y" transform="translate(51 14.5)"/><use xlink:href="#z" transform="translate(51 14.5)"/><use xlink:href="#A" transform="translate(51 14.5)"/><use xlink:href="#B" transform="translate(51 14.5)"/><use xlink:href="#C" transform="translate(51 14.5)"/><use xlink:href="#D" transform="translate(51 14.5)"/><use xlink:href="#E" transform="translate(51 14.5)"/><use xlink:href="#F" transform="translate(51 14.5)"/><use xlink:href="#G" transform="translate(51 14.5)"/><use xlink:href="#H" transform="translate(51 14.5)"/><use xlink:href="#I" transform="translate(51 14.5)"/></svg>