<svg xmlns="http://www.w3.org/2000/svg" xmlns:xlink="http://www.w3.org/1999/xlink" preserveAspectRatio="none" width="788" height="383" viewBox="0 0 788 383"><defs><linearGradient id="a" gradientUnits="userSpaceOnUse" x1="559.513" y1="767.8" x2="1173.787" y2="197.6"><stop offset="1.176%" stop-color="#1F55FF"/><stop offset="88.627%" stop-color="#3C99FF"/></linearGradient><linearGradient id="b" gradientUnits="userSpaceOnUse" x1="319.662" y1="441.3" x2="685.638" y2="441.3"><stop offset="0%" stop-color="#1F55FF" stop-opacity="0"/><stop offset="100%" stop-color="#9CB4FF" stop-opacity=".271"/></linearGradient><linearGradient id="c" gradientUnits="userSpaceOnUse" x1="898" y1="850.737" x2="1005.3" y2="500.862"><stop offset="0%" stop-color="#1F55FF" stop-opacity="0"/><stop offset="100%" stop-color="#9CB4FF" stop-opacity=".502"/></linearGradient><linearGradient id="d" gradientUnits="userSpaceOnUse" x1="1097.588" y1="657.525" x2="457.813" y2="523.975"><stop offset="0%" stop-color="#1F55FF" stop-opacity="0"/><stop offset="100%" stop-color="#51E7FF" stop-opacity=".498"/></linearGradient><linearGradient id="e" gradientUnits="userSpaceOnUse" x1="998.138" y1="770.95" x2="757.162" y2="372.75"><stop offset="0%" stop-color="#1F55FF" stop-opacity="0"/><stop offset="100%" stop-color="#9CB4FF" stop-opacity=".322"/></linearGradient><linearGradient id="f" gradientUnits="userSpaceOnUse" x1="1364.138" y1="826.85" x2="1123.163" y2="428.65"><stop offset="0%" stop-color="#1F55FF" stop-opacity="0"/><stop offset="100%" stop-color="#9CB4FF" stop-opacity=".502"/></linearGradient><linearGradient id="g" gradientUnits="userSpaceOnUse" x1="1289.775" y1="46.712" x2="993.525" y2="405.688"><stop offset="0%" stop-color="#1F55FF" stop-opacity="0"/><stop offset="100%" stop-color="#9AD5FF" stop-opacity=".329"/></linearGradient><linearGradient id="h" gradientUnits="userSpaceOnUse" x1="373.713" y1="484.8" x2="739.688" y2="484.8"><stop offset="0%" stop-color="#1F55FF" stop-opacity="0"/><stop offset="100%" stop-color="#9CB4FF" stop-opacity=".271"/></linearGradient><linearGradient id="i" gradientUnits="userSpaceOnUse" x1="1094.862" y1="791.975" x2="446.237" y2="582.025"><stop offset="0%" stop-color="#1F55FF" stop-opacity="0"/><stop offset="100%" stop-color="#51E7FF" stop-opacity=".498"/></linearGradient><linearGradient id="j" gradientUnits="userSpaceOnUse" x1="413.562" y1="508.25" x2="779.537" y2="508.25"><stop offset="0%" stop-color="#1F55FF"/><stop offset="100%" stop-color="#9CB4FF" stop-opacity=".271"/></linearGradient><path fill="url(#a)" d="M1260.7 674.2V291.25h-788V674.2h788z" id="k"/><path fill="url(#b)" d="M740.45 676.25q7.43-97.71-54.8-234.95-37.79-83.277-88.05-152H472.7v381.45q2.653 2.777 5.3 5.5h262.45z" id="l"/><path fill="url(#c)" d="M1261.65 524.05q-5.96-2.838-12.5-5.5-91.8-37.35-243.85-17.7-152 19.6-275.2 84.7-82.748 43.707-119.95 90.75h651.5V524.05z" id="m"/><path fill="url(#d)" d="M989.4 676.25q54.23-8.747 108.2-18.7 90.638-16.712 164.05-33.8V444q-92.33.17-210.75 7.5-293.414 18.11-579.2 69.95v154.8h517.7z" id="n"/><path fill="url(#e)" d="M820.45 289.35q-31.766 37.387-63.3 83.4Q656.684 519.392 612.4 675.3h444.75q63.74-115.8 93.8-237.2 21.18-85.41 19.5-148.75h-350z" id="o"/><path fill="url(#f)" d="M1262.65 289.35h-23.5q-58.404 55.257-116 139.3-82.357 120.21-126.95 246.65h266.45V289.35z" id="p"/><path fill="url(#g)" d="M993.55 405.7q137.7 37.25 269.1 38.35V297.7H752.1q87.95 66.5 241.45 108z" id="q"/><path fill="url(#h)" d="M794.45 675.3q-6.077-83.16-54.75-190.5-49.887-109.932-121.5-194.5H472.7v317h-2.05v41.4q10.335 13.612 21.15 26.6h302.65z" id="r"/><path fill="url(#i)" d="M1261.65 674.3v-77.8q-84.742-8.767-189.25-14.65-302.64-17.27-601.7-1.2v93.65h790.95z" id="s"/><path fill="url(#j)" d="M831.8 675.3q-10.305-74.545-52.25-167.05-56.63-124.79-141.25-216.9H471.65V675.3H831.8z" id="t"/></defs><use xlink:href="#k" transform="matrix(1.024 0 0 1.05168 -494.85 -316.25)"/><use xlink:href="#l" transform="matrix(1.024 0 0 1.05168 -494.85 -316.25)"/><use xlink:href="#m" transform="matrix(1.024 0 0 1.05168 -494.85 -316.25)"/><use xlink:href="#n" transform="matrix(1.024 0 0 1.05168 -494.85 -316.25)"/><use xlink:href="#o" transform="matrix(1.024 0 0 1.05168 -494.85 -316.25)"/><use xlink:href="#p" transform="matrix(1.024 0 0 1.05168 -494.85 -316.25)"/><use xlink:href="#q" transform="matrix(1.024 0 0 1.05168 -494.85 -323.612)"/><use xlink:href="#r" transform="matrix(1.024 0 0 1.05168 -494.85 -316.25)"/><use xlink:href="#s" transform="matrix(1.024 0 0 1.05168 -494.85 -316.25)"/><use xlink:href="#t" transform="matrix(1.024 0 0 1.05168 -494.85 -316.25)"/></svg>