<svg xmlns="http://www.w3.org/2000/svg" xmlns:xlink="http://www.w3.org/1999/xlink" preserveAspectRatio="none" width="788" height="383" viewBox="0 0 788 383"><defs><path d="M790 28V0H0v28h790z" id="a"/><path d="M49.8 70.65q-4.6 0-7.4 2.2-2.7 2.25-2.7 5.95v33.4q0 3.75 2.7 5.9 2.7 2.2 7.4 2.2t7.35-2.2q2.75-2.15 2.75-5.9v-11.55h-8.15V112q0 1.6-.45 1.95-.5.45-1.5.45-1.05 0-1.5-.45-.45-.35-.45-1.95V96.6H59.9V78.8q0-3.7-2.75-5.95-2.75-2.2-7.35-2.2M51.3 77q.45.45.45 1.95V90.9h-3.9V78.95q0-1.5.45-1.95.5-.4 1.5-.4.95 0 1.5.4z" id="c"/><path d="M171.85 70.65q-4.65 0-7.4 2.2-2.7 2.25-2.7 5.95v6.5q0 2.55 1.5 4.85 1.25 1.95 4.5 5.7 3.05 3.35 4.5 5.6 1.55 2.4 1.55 4.95v5q0 1.7-.55 2.35-.45.65-1.4.65t-1.45-.65q-.5-.55-.5-2.35v-10.55h-8.15v11.35q0 3.75 2.7 5.9 2.65 2.2 7.4 2.2 4.7 0 7.35-2.2 2.7-2.15 2.7-5.9v-9.85q0-2.65-1.7-5.1-1.75-2.45-5.15-6.1-2.7-2.8-3.9-4.4-1.25-1.6-1.25-3.2v-4q0-1.8.5-2.35.55-.6 1.45-.6.95 0 1.4.6.55.65.55 2.35v9.25h8.1v-10q0-3.7-2.7-5.95-2.75-2.2-7.35-2.2z" id="d"/><path d="M115.25 62.4H103.4q-5.75 0-8.7 2.35-2.9 2.4-2.9 8v8.55q0 3.9 1.8 6.15 1.8 2.3 7.1 2.9v.15q-3.65.45-6 2.05-2.3 1.65-2.6 5.35-.2 3.7-.25 8.45-.2 10.65-1.15 16.4h8.95q.65-2.9.95-6.65.25-4 .25-8.3l-.1-8.1q0-2.7 1.2-3.85 1.25-1.1 4.3-1.1v28h9V62.4m-11.1 7.2h2.1v17.8h-1.65q-2.2 0-3.05-1.05-.8-1.05-.8-2.85V72.55q0-1.6.9-2.3.85-.65 2.5-.65z" id="e"/><path d="M75.15 62.4q-5.7 0-8.65 2.35-2.95 2.4-2.95 8v8.55q0 3.95 1.85 6.15 1.8 2.3 7.05 2.9v.15q-3.6.45-5.95 2.05-2.4 1.7-2.6 5.35-.2 3.7-.25 8.45-.3 11.35-1.2 16.4h9q.7-3.1.9-6.65.3-3.6.3-8.3l-.1-8.1q0-2.7 1.2-3.85 1.2-1.1 4.3-1.1v28h9V62.4h-11.9m.8 7.2h2.1v17.8h-1.7q-2.15 0-3-1.05-.8-.95-.8-2.85V72.55q0-1.6.9-2.3.85-.65 2.5-.65z" id="f"/><path d="M58.55 33.35H56.5V57.2q0 4.6-1.7 6.35-1.65 1.85-5.5 1.85-3.8 0-5.45-1.85-1.75-1.9-1.75-6.55v-1.15h-1.95v1.2q0 10.1 9.2 10.1 4.6 0 6.8-2.15 2.4-2.4 2.4-7.95v-23.7z" id="g"/><path d="M94.05 39.85q0-7.7-4.35-12.45-4.35-4.8-11.4-4.8-7.05 0-11.4 4.8-4.3 4.75-4.3 12.45 0 7.7 4.3 12.45 4.35 4.75 11.4 4.75 7.05 0 11.4-4.8 4.35-4.8 4.35-12.4M88.2 28.7Q92 33.05 92 39.85 92 46.6 88.2 51q-3.85 4.3-9.9 4.3-6 0-9.85-4.35-3.85-4.4-3.85-11.1 0-6.75 3.85-11.15 3.85-4.35 9.85-4.35 6.1 0 9.9 4.35z" id="h"/><path d="M124.2 34.55h1.95q-.75-4.8-4.4-7.75-3.8-3.2-9.4-3.2-6.85 0-11.2 4.85-4.35 4.9-4.35 12.5 0 7.7 4.3 12.4 4.25 4.7 11.4 4.7 4.15 0 7.3-1.9 3.6-2 5.1-5.95v7.15h1.75V41.2H112.8v1.75h12.1v1.1q0 5.4-3.4 8.85-3.45 3.4-9 3.4-6.3 0-10-4.15-3.65-4.25-3.65-11.3 0-6.85 3.8-11.15 3.75-4.35 9.75-4.35 4.35 0 7.5 2.4 3 2.25 4.3 6.8z" id="i"/><path d="M156.6 37.4q-4.35-4.8-11.35-4.8-7.05 0-11.4 4.8-4.35 4.8-4.35 12.45 0 7.65 4.35 12.45 4.35 4.75 11.4 4.75 7 0 11.35-4.8t4.35-12.4q0-7.7-4.35-12.45m-21.2 1.3q3.85-4.35 9.85-4.35 6.05 0 9.85 4.35 3.8 4.25 3.8 11.15 0 6.85-3.8 11.15-3.85 4.3-9.85 4.3t-9.85-4.35q-3.85-4.3-3.85-11.1 0-6.85 3.85-11.15z" id="j"/><path d="M177.95 60.3q0-2.25-1.55-3.6t-4.2-1.35q-2.65 0-4.25 1.3-1.55 1.35-1.55 3.5v4.75h11.55v-4.6m-5.75-3.35q2.05 0 3.25.95 1.15.85 1.15 2.6v2.85h-8.9v-3q0-1.6 1.2-2.5 1.15-.9 3.3-.9z" id="k"/><path d="M178.25 48.75q0-2.5-1.65-4.1-1.7-1.55-4.4-1.55-2.75 0-4.45 1.55-1.7 1.6-1.7 4.1 0 2.45 1.7 4.05 1.7 1.55 4.45 1.55 2.7 0 4.4-1.55 1.65-1.55 1.65-4.05m-2.65-2.95q1.3 1.15 1.3 2.95 0 1.75-1.3 2.9-1.3 1.1-3.4 1.1-2.15 0-3.45-1.1-1.3-1.15-1.3-2.9 0-1.8 1.3-2.95 1.3-1.1 3.45-1.1 2.1 0 3.4 1.1z" id="l"/><path d="M172.95 36.8q.4-1.55.75-1.95.35-.5 1.25-.5.95 0 1.45.75.5.85.5 2.2 0 1.55-.7 2.4-.65.9-1.95.95v1.45h.1q1.75 0 2.85-1.25 1.05-1.25 1.05-3.55 0-2.05-.9-3.25-.9-1.2-2.5-1.2-1.3 0-2.1.7-.8.8-1.15 2.35l-.5 2q-.3 1.4-.65 1.8-.3.5-1 .5-.95 0-1.5-.7-.5-.75-.5-2 0-1.3.6-2.05.6-.8 1.7-.85v-1.45q-1.75.1-2.7 1.25-1 1.15-1 3.1 0 1.9 1 3.05.95 1.1 2.6 1.1 1.2 0 1.8-.65.7-.6 1-2.15l.5-2.05z" id="m"/><path fill="#CCC" d="M149.75 73.5l-.1.05q-7.25.15-14.85 8.85-3.35-5.05-4.1-10.1l-.9-6.2-5 3.8q-8.6 6.6-8.85 12.5.15 6.35 7.15 14.1-5.75 6.95-9.55 6.85h-.1l-7.9-.55 3.65 6.1q2.95 4.95 5.95 7.4 3.5 3 7.55 3h.05q3.8-.05 7.7-3.7 2.55-2.3 5.35-6.2 8.15 7.25 13.6 7.45l.7.05.05-.05q3.55-.3 6.45-3.2 2.75-2.7 5.15-7.55l2.65-5.35h-5.95q-6-.1-11.8-5.15 2.3-2.85 5.4-5.15 1.45-1.1 2.8-1.75l.85-.4.25-.05 6.55.8-1.95-5.65q-1.5-4.45-4-6.95-2.8-2.85-6.8-2.95z" id="n"/><path fill="#FFF" d="M128.3 66.35l-3.3 2.5q-8.2 6.2-8.4 11.6.15 6 7.45 13.8l.1.2q-6.65 8.3-11.35 8.1l-5.55-.35 2.45 4.05q2.65 4.6 5.65 7.05 3.3 2.75 6.8 2.75 3.3-.05 6.9-3.4 2.8-2.6 5.95-7.15v.05q8.75 7.85 13.85 8.05 3.35 0 6.35-2.85 2.65-2.75 4.85-7.25l1.8-3.55h-4q-6.85 0-13.45-6.25l.1-.15q2.45-3.35 6.2-6.1 3.45-2.7 4.7-2.5l4.7.6-1.3-3.75q-1.45-4.3-3.7-6.5-2.45-2.65-6-2.55-7.1.05-14.95 9.6-4.35-5.8-5.25-11.9l-.6-4.1z" id="o"/><path fill="#F92828" d="M127.45 94.3l-1.25 1.55q-7.4 9.2-13.4 9.2l-1-.05q5.1 8.55 10.35 8.55 4.55 0 11.75-10.8l.7-1 2.1 1.95q7.9 7.4 12.15 7.4 4.75 0 9-8.7-8.1 0-15.4-7.15l-1.3-1.25 1.35-1.9q2.85-3.8 6.75-6.65 4-2.95 6.15-2.95.6 0 1.05.1-2.45-7.4-7.35-7.4-6.25 0-13.9 9.75l-1.1 1.45-1.35-1.75q-5.25-6.75-6.3-13.85-7.35 5.55-7.35 9.65 0 5 6.75 12.1l1.6 1.75z" id="p"/><path fill="#DB0000" d="M120.55 75.7q-1.95 2.6-1.95 4.75 0 5.15 6.85 12.45l1.3 1.45-.95 1.2q-3.65 4.6-6.9 6.75-3.3 2.25-6.1 2.25l-1.9-.15.5.85q2.45 4.2 5.2 6.55 2.8 2.25 5.55 2.25 2.45 0 5.6-2.85 2.94-2.742 6.5-8.2l.05.05.35-.55 1.7 1.55q3.95 3.75 7.1 5.65 3.2 1.9 5.4 1.9 2.55 0 4.95-2.3 2.3-2.2 4.5-6.65l.35-.75h-.8q-7.85 0-15.05-7l-1-.95 1.1-1.55q2.65-3.6 6.65-6.55 3.9-2.95 5.85-2.85.55 0 1 .1l.8.1-.25-.8q-1.3-3.8-3.25-5.7-2-2-4.6-2-3.3 0-6.85 2.55-3.45 2.4-7.4 7.4l-.75.9-.95-1.2q-5.15-6.65-6.2-13.6l-.1-.85-.7.5q-3.85 3-5.6 5.3m-.95 4.75q0-1.9 1.75-4.15 1.632-2.086 4.75-4.6 1.3 6.79 6.25 13.25l1.8 2.25 1.45-1.9q3.8-4.8 7.2-7.25 3.3-2.35 6.3-2.35 2.2 0 3.9 1.7 1.655 1.655 2.75 4.6h-.35q-2.35 0-6.45 3.05t-6.85 6.75l-1.65 2.25 1.65 1.6q7.185 6.9 14.95 7.2-1.93 3.82-3.95 5.75-2.05 2-4.25 2-1.85.1-4.9-1.75-3.05-1.9-6.9-5.5l-2.55-2.3-1 1.4h-.05q-3.4 5.2-6.4 8.05-2.75 2.55-4.9 2.55-2.4 0-4.9-2.05-2.286-1.882-4.5-5.45h.05q3.1 0 6.65-2.4 3.25-2.2 7.15-6.95l1.5-1.9-1.9-2.05v-.05q-6.6-6.95-6.6-11.75z" id="q"/><path fill="#FFF" fill-opacity=".302" d="M401.65 183.6q-.45.8-.45 3.05 0 5.05 6.75 12.15l5.55 3.25 2.5-3.75q1.15-1.55 7.4-6.15 4.65-3.45 7.95-3.45 1.75 0 3.2.95 0-1.9-1.8-3.65-1.9-1.85-4.25-1.85-6.25 0-13.9 9.75l-1.1 1.4-1.35-1.7q-2.85-3.7-4.55-7.65-1.25-2.75-2-6-3.25 2.45-3.95 3.65z" id="r"/><path fill="#E64D4D" d="M128.2 78.25q-1.2-2.9-1.75-6.2l-.25.2q.75 3.25 2 6z" id="s"/><path d="M790 28V0H0v28h790z" id="t"/></defs><use xlink:href="#a" transform="matrix(1 0 0 .85715 -1 0)"/><g transform="translate(144.35 74.05) scale(1.83142)"><clipPath id="b"><path fill="#FFF" d="M42.4-2h59.2v119.5H42.4z"/></clipPath><text clip-path="url(#b)" writing-mode="lr"><tspan x="44.45" y="94.1" baseline-shift="0%" font-family="Perpetua_Titling_MT_Bold" font-weight="bold" font-size="96" fill="#999">5</tspan></text></g><use xlink:href="#c" transform="matrix(1.56796 0 0 1.56796 240.65 46.25)"/><use xlink:href="#d" transform="matrix(1.56796 0 0 1.56796 240.65 46.25)"/><use xlink:href="#e" transform="matrix(1.56796 0 0 1.56796 240.65 46.25)"/><use xlink:href="#f" transform="matrix(1.56796 0 0 1.56796 240.65 46.25)"/><use xlink:href="#g" transform="matrix(1.56796 0 0 1.56796 240.65 46.25)"/><use xlink:href="#h" transform="matrix(1.56796 0 0 1.56796 240.65 46.25)"/><use xlink:href="#i" transform="matrix(1.56796 0 0 1.56796 240.65 46.25)"/><use xlink:href="#j" transform="matrix(1.56796 0 0 1.56796 240.65 46.25)"/><use xlink:href="#k" transform="matrix(1.56796 0 0 1.56796 240.65 46.25)"/><use xlink:href="#l" transform="matrix(1.56796 0 0 1.56796 240.65 46.25)"/><use xlink:href="#m" transform="matrix(1.56796 0 0 1.56796 240.65 46.25)"/><use xlink:href="#n" transform="matrix(1.56796 0 0 1.56796 240.65 46.25)"/><use xlink:href="#o" transform="matrix(1.56796 0 0 1.56796 240.65 46.25)"/><use xlink:href="#p" transform="matrix(1.56796 0 0 1.56796 240.65 46.25)"/><use xlink:href="#q" transform="matrix(1.56796 0 0 1.56796 240.65 46.25)"/><use xlink:href="#r" transform="matrix(1.56796 0 0 1.56796 -197.45 -122.6)"/><use xlink:href="#s" transform="matrix(1.56796 0 0 1.56796 240.65 46.25)"/><use xlink:href="#t" transform="matrix(1 0 0 .57222 -1 366.95)"/><g writing-mode="lr"><text transform="translate(301.5 327.4)"><tspan x="-110.1" y="13.8" baseline-shift="0%" font-family="Trebuchet_MS_Regular" font-size="12.5" fill="#666">Existem erros comuns nas ruas das cidades que colocam nossas vidas em risco.</tspan></text><text transform="translate(301.5 327.4)"><tspan x="-50.1" y="26.8" baseline-shift="0%" font-family="Trebuchet_MS_Regular" font-size="12.5" fill="#666">Ache os erros na imagem e melhore o trânsito da cidade.</tspan></text></g></svg>