<svg xmlns="http://www.w3.org/2000/svg" xmlns:xlink="http://www.w3.org/1999/xlink" preserveAspectRatio="none" width="777" height="346" viewBox="0 0 777 346"><defs><path fill="#FFF" d="M627.3-149.05q0-11.3-9.25-13.3-2.05-.45-4.55-.45h-749.05q-2.7 0-4.9.55-8.9 2.1-8.9 13.2V169q0 13.8 13.8 13.8H613.5q13.8 0 13.8-13.8v-318.05z" id="a"/><g id="d"><path fill="#8355A3" d="M-27.2 189.1L-131.8 76.7l-35.75-38.4v150.8H-27.2z"/><path fill="#793A70" d="M-89.9-38l2.1-5.75 46.3-126.9h-126.05V38.3l35.75 38.4L-89.9-38z"/><path fill="#8A5C8A" d="M61.75 81.1l57.85-92.8-207.4-32.05-2.1 5.75L61.75 81.1m573.6-251.75H172.5V189.1h462.85v-359.75z"/><path fill="#795179" d="M172.45 189.1l-3.05-23.5L61.75 81.1-89.9-38l-41.9 114.7 104.6 112.4h199.65z"/><path fill="#CB87CB" d="M125.65-170.65l16.05 123.4 27.7 212.85 3.05 23.5h.05v-359.75h-46.85z"/><path fill="#694669" d="M141.7-47.25L119.6-11.7 61.75 81.1l107.65 84.5-27.7-212.85z"/><path fill="#AF74AF" d="M119.6-11.7l22.1-35.55-16.05-123.4H-41.5l-46.3 126.9L119.6-11.7z"/></g><path id="c" stroke="#000" stroke-linejoin="round" stroke-linecap="round" fill="none" d="M176.95 209.45H-170V67.5h346.95v141.95z"/></defs><g transform="translate(149.55 163)"><mask id="b"><use xlink:href="#a"/></mask><g mask="url(#b)"><use xlink:href="#c"/><use xlink:href="#d"/></g></g></svg>