<svg xmlns="http://www.w3.org/2000/svg" xmlns:xlink="http://www.w3.org/1999/xlink" preserveAspectRatio="none" width="788" height="383" viewBox="0 0 788 383"><defs><path fill="#FFF" d="M491.5 382.95v-.4q0-.335-.05-.6-.2-1.316-1.45-.9-1.03.344-1.35.9-.15.253-.15.55 0 .244.1.45h2.9M24.6 350.1q.75-.3 1-1l-.4-.75q-.6.2-.7.25-.45.25-.9.9.35.35 1 .6m6.5-22.4l-.4-.75q-.55.1-.7.2-.45.25-.9.9.35.4 1 .65.7-.3 1-1m-.3 7.5q-.05 0-.05.05.048-.048.1-.05h-.05m21.5 5.05h-.75v.6l.5.35.5-.5-.25-.45m642.25 10.85l-.4-.75q-.6.2-.7.25-.45.25-.9.9.35.35 1 .6.75-.3 1-1m31.7 19.75l-.25-.4h-.75v.55q.1.2.5.35l.5-.5m-1.25-1l-.25-.4H724v.55q.15.2.5.35.3-.15.5-.5m-2.5-.85q.15.2.5.35.3-.15.5-.5l-.25-.4h-.75v.55m-1-26.3l-.25-.45h-.75v.6l.5.35.5-.5m-21.75-5.5q-.03.01-.05 0 .04.017.05 0m-.1-8.25q-.55.1-.7.2-.45.25-.9.9.35.4 1 .65.7-.3 1-1l-.4-.75M33.3 169.9q0 .25.1.45h2.9v-.4q0-.35-.05-.6-.2-1.3-1.45-.9-1.05.35-1.35.9-.15.25-.15.55m22.15-4.05q.15.25.5.35.2-.05.5-.5l-.15-.35q-.55.1-.85.5m1.25-5.7q.15.2.5.3.3-.1.5-.5l-.15-.35q-.55.1-.85.55m-5.5-4.7q-.5.25-.5.7.2.2.5.3.4-.1.5-.5-.1-.3-.5-.5M40.8 139.9q0 .15 1.5 1.35.25-.05.5-.15.35-.15.75-.35l.25-1q0-.75-.2-.95-.25-.25-.25-.3-.3-.1-.55-.15-2-.45-2 1.55m471.95 232.3q-.55.1-.85.55.15.2.5.3.3-.1.5-.5l-.15-.35m-1.6 6.6q.2-.05.5-.5l-.15-.35q-.55.1-.85.5.15.25.5.35M496 352.5q0 .15 1.5 1.35.236-.064.5-.2.35-.1.75-.3l.25-1q0-.75-.2-.95-.25-.25-.25-.3-.292-.097-.55-.15-2-.443-2 1.55m10.9 16.05q-.1-.3-.5-.5-.5.25-.5.7.2.2.5.3.4-.1.5-.5M151.8 69.6v.5h.9l.1-.1-.25-.4h-.75M116.7 5.1h-2.8q-.15.3-.15.75l.25.25q.4.4 1.25 1.05.6-.05 1.25-.5l.25-.9q0-.4-.05-.65M43.1 60.95l.5.25.5-.25q-.05-.55-.5-.75-.5.25-.5.75m6.25-7q-.25-.35-.5-.5-.1.05-.25.05-.25.1-.25.5t.1.4q.1.05.4.05.35-.1.5-.5m5.15 0q-.5.3-.5.75l.5.25q.5-.15.5-.5 0-.25-.5-.5m6.55 7.25l.5.25q.2 0 .45-.15t.3-.35q-.05-.3-.5-.5-.3 0-.75.75m.9-8.3q.1.05.35.05.45-.15.5-.5-.1-.3-.5-.5-.1.05-.25.05-.25.1-.25.5 0 .35.15.4M36.1 61.2l.5-.25q-.05-.55-.5-.75-.5.25-.5.75l.5.25M69.55 49l-.2-.4h-.8v.6l.5.3q.45-.2.5-.5m87.6 15.35v.6l.5.3.5-.3-.2-.6h-.8m-5.85 4.25h-.75v.55q.15.2.5.35.3-.15.5-.5l-.25-.4m-1.5-1h-.75v.55q.15.2.5.35.3-.15.5-.5l-.25-.4m10.75-13.25q0-.75-.2-1t-.2-.35q-2.6-.85-2.6 1.4 0 .15 1.5 1.35.6-.1 1.25-.5l.25-.9m-55.45.9q.7-.1 1.25-.5l.25-.9q0-.75-.15-1t-.15-.35q-1.55-.55-2.25.2-.4.45-.4 1.2 0 .1 1.45 1.35M121 57.2q-.4.45-.4 1.2 0 .1 1.5 1.35.6-.15 1.25-.5l.25-.9q0-.75-.2-1t-.2-.35q-1.55-.55-2.2.2m.1-6.95l-.4-.75q-.6.2-.7.25-.45.25-.9.9.35.35 1 .6.75-.3 1-1m-27.75-2.9l-.15-.45h-.85v.55l.5.4q.35-.2.5-.5m54.45-5.95h-.75v.6l.5.35.5-.5-.25-.45m-15.5 3.7q-.1.25-.2.35-.05.05-.05.75 0 .4.45 1.1.6.95 1.55.95.75 0 1.1-.3l.3-.3.1-1.05q-.25-1.05-1.35-1.35-.55-.15-1.9-.15m-2.5-12l-.2-.4q-.55.2-.8.55.15.2.5.35.25-.1.5-.5m-3.85 3.55q-.15.25-.15.35l.5.35q.3-.15.5-.35 0-.5-.5-.65-.15.05-.35.3m-1.35-7.45q.35.4 1 .65.7-.3 1-1l-.4-.75q-.55.1-.7.2-.45.25-.9.9m26.2 202.25v.55q.1.2.5.35l.5-.5-.25-.4h-.75m-35.1-64.5q-.058-.208-.15-.3-.2-.25-.2-.35-1.55-.5-2.2.25-.17.17-.3.4-.1.317-.1.75l.25.25q.4.4 1.25 1.05.6-.05 1.25-.5l.25-.9q0-.405-.05-.65M35.6 222.8q-.05-.55-.5-.75-.5.25-.5.75l.5.25.5-.25m6.5 0l.5.25.5-.25q-.05-.55-.5-.75-.5.25-.5.75m17.95.25l.5.25q.2 0 .45-.15t.3-.35q-.05-.3-.5-.5-.3 0-.75.75M54 216.3q0-.25-.5-.5-.5.3-.5.75l.5.25q.5-.15.5-.5m-5.65-.5q-.25-.35-.5-.5-.1.05-.25.05-.25.1-.25.5t.1.4q.1.05.4.05.35-.1.5-.5m12.95-2q-.1.05-.25.05-.25.1-.25.5 0 .35.15.4.1.05.35.05.45-.15.5-.5-.1-.3-.5-.5m6.75-2.45q.45-.2.5-.5l-.2-.4h-.8v.6l.5.3m24.3-2.15l-.15-.45h-.85v.55l.5.4q.35-.2.5-.5m26.75 3.9q.75-.3 1-1l-.4-.75q-.6.2-.7.25-.45.25-.9.9.35.35 1 .6m-15 4q.7-.1 1.25-.5l.25-.9q0-.75-.15-1t-.15-.35q-1.55-.55-2.25.2-.4.45-.4 1.2 0 .1 1.45 1.35m44.45 13.25q.3-.15.5-.5l-.25-.4h-.75v.55q.15.2.5.35m1.75.1h-.75v.55q.15.2.5.35.3-.15.5-.5l-.25-.4m5.85-4.25v.6l.5.3.5-.3-.2-.6h-.8m-33.8-5.1l.25-.9q0-.75-.2-1t-.2-.35q-1.55-.55-2.2.2-.4.45-.4 1.2 0 .1 1.5 1.35.6-.15 1.25-.5m3.45-22.25q0-.5-.5-.65-.15.05-.35.3-.15.25-.15.35l.5.35q.3-.15.5-.35m8.65 10.65l.1-1.05q-.25-1.05-1.35-1.35-.55-.15-1.9-.15-.1.25-.2.35-.05.05-.05.75 0 .4.45 1.1.6.95 1.55.95.75 0 1.1-.3l.3-.3m24.7 5.35q-2.6-.85-2.6 1.4 0 .15 1.5 1.35.6-.1 1.25-.5l.25-.9q0-.75-.2-1t-.2-.35m-13.1-11.6v.6l.5.35.5-.5-.25-.45h-.75m-17.25-8.3l-.2-.4q-.55.2-.8.55.15.2.5.35.25-.1.5-.5m-4.2-3.25q.7-.3 1-1l-.4-.75q-.55.1-.7.2-.45.25-.9.9.35.4 1 .65m52.35 41.65q.25-.1.5-.5l-.15-.4h-.85v.55q.15.2.5.35m0-27.4q.15-.1.5-.6-.25-.25-.25-.6-.4-.15-1 .45l.75.75m75.95 165.5v.55q.15.2.5.35.25-.1.5-.5l-.15-.4h-.85m-.25-27.25l.75.75q.15-.1.5-.6-.25-.25-.25-.6-.4-.15-1 .45m-20.05 21v.6l.5.3.5-.3-.2-.6h-.8m1.9-8.6q.6-.1 1.25-.5l.25-.9q0-.75-.2-1t-.2-.35q-2.6-.85-2.6 1.4 0 .15 1.5 1.35m-65.7-8.4l-.15-.45h-.85v.55l.5.4q.35-.2.5-.5m11.75 7.9q.7-.1 1.25-.5l.25-.9q0-.75-.15-1t-.15-.35q-1.55-.55-2.25.2-.4.45-.4 1.2 0 .1 1.45 1.35m14.9-5.5q-.45.25-.9.9.35.35 1 .6.75-.3 1-1l-.4-.75q-.6.2-.7.25m3.2 7.25q-1.55-.55-2.2.2-.4.45-.4 1.2 0 .1 1.5 1.35.6-.15 1.25-.5l.25-.9q0-.75-.2-1t-.2-.35m3.1-20.65q-.15.05-.35.3-.15.25-.15.35l.5.35q.3-.15.5-.35 0-.5-.5-.65m-.8-8.05q-.45.25-.9.9.35.4 1 .65.7-.3 1-1l-.4-.75q-.55.1-.7.2m21.55 13.1v.6l.5.35.5-.5-.25-.45h-.75m-14.75 3.7q-.1.25-.2.35-.05.05-.05.75 0 .4.45 1.1.6.95 1.55.95.75 0 1.1-.3l.3-.3.1-1.05q-.25-1.05-1.35-1.35-.55-.15-1.9-.15m-2.5-12l-.2-.4q-.55.2-.8.55.15.2.5.35.25-.1.5-.5m52.15-17.25q0 1.25.4.75l1.1.25h.1q.722-.022 1.05-.35.15-.15.35-.65-.25-.7-1-1h-.4q-.675.01-.95.05-.65.15-.65.95m-3-2l-.35-.75q-1.05.15-1.65 1.1.4.4 1 .65.8-.3 1-1m31.6-14.95q-.25.35-.25.7.3.35 1 .6.6-.3 1-.95-.35-.7-1-1-.45.15-.75.65m-53.65-13.05q.05-.2.15-.4v-.75q0-2-1.5-1.5t-1.5 1.45q0 .4.25.7.2.3 1.25 1.05.75-.25 1.35-.55m7.45-32.3q-.25-.25-.25-.3-2.55-.85-2.55 1.4 0 .15 1.5 1.35.55-.15 1.25-.5l.25-1q0-.75-.2-.95m-44.75 29.85q.8-.3 1-1l-.4-.75q-1.05.25-1.6 1.2.35.3 1 .55m-16.8-22.7q-1.6-.5-2.25.25-.4.4-.4 1.15 0 .1 1.5 1.35.65-.1 1.25-.5l.25-.95q0-.75-.15-.95-.2-.25-.2-.35m21.3 4.75q.75-.3 1-1l-.4-.75q-.6.2-.7.25-.45.25-.9.9.35.35 1 .6m28.95-38.35q.65-.25 1-1l-.4-.75q-.6.1-.8.2-.35.2-.8.85.35.45 1 .7m-12-2.5q.6-.2 1.25-.5l.25-.95q0-.75-.2-1t-.2-.3q-2.6-.9-2.6 1.35 0 .1 1.5 1.4m24.75-4.85q-.25.35-.25.7.3.4 1 .65.6-.25 1-1-.35-.7-1-1-.45.15-.75.65m-10.75-2.15q.7-.3 1-1l-.4-.75q-.55.1-.75.2-.4.25-.85.9.35.4 1 .65m88.75 34q-1 .2-1.65 1.1.4.4 1 .65.8-.3 1-1l-.35-.75M254.3 293.2q-.45.25-.9.9.4.4 1 .65.8-.3 1-1l-.35-.75q-.55.1-.75.2m-2.65-11.75q.15.25.5.35.2-.05.5-.5l-.15-.35q-.55.1-.85.5m2.25-5.9l-.15-.35q-.55.1-.85.55.15.2.5.3.3-.1.5-.5m-7-3.8q.2.2.5.3.4-.1.5-.5-.1-.3-.5-.5-.5.25-.5.7m4.5-51.7q0 .1 1.5 1.4.65-.15 1.25-.5l.25-.95q0-.75-.15-1-.2-.25-.2-.3-1.55-.55-2.25.15-.4.45-.4 1.2m-6.9-2.25q.3.4 1 .65.6-.25 1-1-.35-.7-1-1-.45.15-.75.65-.25.35-.25.7m14.9-8.85l-.35-.75q-1 .2-1.65 1.1.4.4 1 .65.7-.25 1-1m-5.5-6.5l-.35-.75q-1 .2-1.65 1.1.4.4 1 .65.8-.3 1-1M128.75 369.1q-.45.15-.75.65-.25.35-.25.7.3.35 1 .6.6-.3 1-.95-.35-.7-1-1m30.85-45.55q.4.4 1 .65.8-.3 1-1l-.35-.75q-1 .2-1.65 1.1m-102.3-26.4q-.5.25-.5.65.2.25.5.35.4-.1.5-.5-.05-.3-.5-.5m4.3 12.45l-.35-.75q-1 .25-1.65 1.2.4.3 1 .55.85-.35 1-1m6.45-13.95q-.05-.3-.5-.5-.5.25-.5.7.2.2.5.3.4-.15.5-.5m3.5-14.35q0 .1 1.5 1.35.7-.1 1.25-.5l.25-.95q0-.75-.15-.95-.15-.25-.15-.35-1.5-.5-2.25.25-.45.45-.45 1.15M56.6 291.7q0-.75-.15-.95-.2-.25-.2-.35-1.6-.5-2.25.25-.4.4-.4 1.15 0 .1 1.5 1.35.65-.1 1.25-.5l.25-.95m-5-39.9q0-.75-.15-1-.2-.2-.2-.25-1.6-.6-2.25.1-.4.45-.4 1.25 0 .1 1.5 1.4.65-.2 1.25-.5l.25-1m24.45 18.75q-.05-.45-.15-.85l-.15-.25q-.65.15-.85.25-.4.2-.85.85.45.4 1 .65.7-.25 1-.65m2.5-32.4q.35.4 1 .65.7-.3 1-1l-.4-.75q-.95.2-1.6 1.1m-17.95 2.7q0-.75-.15-1-.2-.25-.2-.3-1.55-.55-2.25.15-.4.45-.4 1.2 0 .1 1.5 1.4.65-.15 1.25-.5l.25-.95m-14.6-1.9q.5-.4.6-.65-.15-.7-1-1-.6 0-1.5 1.35.4.4 1 .65.35 0 .9-.35m35.05 22.25q.75-.3 1-1l-.4-.75q-.6.2-.7.25-.45.25-.9.9.35.35 1 .6m3.9-6q-.4.4-.4 1.15 0 .1 1.5 1.35.6-.1 1.25-.5l.25-.9q0-.75-.2-1-.2-.2-.2-.25-1.55-.6-2.2.15m29.9-114.35q-.65.15-.8.25-.35.2-.8.85.35.4 1 .65.7-.3 1-1l-.4-.75m5-4.5q-.65.15-.8.25-.35.2-.8.85.35.4 1 .65.7-.3 1-1l-.4-.75m-15.35-36.4l-.25-.4h-1v.55q.15.2.5.35.4 0 .75-.5m18.75 32.55q.3.35 1 .6.65-.3 1-1-.4-.75-1-1-1 .35-1 1.4m3.5-26.8q.55-.15 1.25-.5l.25-.95q0-.75-.2-1-.25-.25-.25-.3-2.55-.8-2.55 1.35 0 .1 1.5 1.4m33.85-.5q-.15-.7-1-1-.6 0-1.5 1.35.4.4 1 .65.35 0 .9-.35.5-.4.6-.65m-81.3 3.05q0-.75-.2-1t-.2-.3q-1.4-.55-2.1.15-.5.5-.5 1.2 0 .1 1.5 1.4.6-.15 1.25-.5l.25-.95M68.05 88q-.25.1-.25.45 0 .4.15.45.1.05.35.05.45-.15.5-.5-.05-.3-.5-.5 0 .05-.25.05m-3-6.25q-.25.1-.25.5 0 .35.15.4.1.05.35.05.45-.15.5-.5-.1-.3-.5-.5 0 .05-.25.05m12.45.45q0-.3-.5-.5-.5.3-.5.75l.5.25q.5-.15.5-.5m79.1 7.75l.5-.25q-.05-.55-.5-.75-.5.25-.5.75l.5.25m-7.5-1q-.5.25-.5.75l.5.25.5-.25q-.05-.55-.5-.75m12.75-6.75q-.1.05-.25.05-.25.1-.25.5t.1.4q.1.05.4.05.35-.1.5-.5-.25-.35-.5-.5m-22.95 6.25q0 .4.1.45.1.05.4.05.35-.1.5-.5-.2-.35-.5-.5-.1 0-.25.05-.25.1-.25.45m-2.25-2q-.2-.35-.5-.5-.1 0-.25.05-.25.1-.25.45 0 .4.1.45.1.05.4.05.35-.1.5-.5m-2.35-3.8q.1.05.35.05.45-.1.5-.5-.1-.35-.5-.5-.1.05-.25.05-.25.1-.25.5 0 .35.15.4m-.55-5.55h-.85v.6l.5.3q.4-.2.5-.5l-.15-.4M110 98.7l.25-.95q0-.75-.2-1t-.2-.3q-2.6-.9-2.6 1.35 0 .1 1.5 1.4.6-.15 1.25-.5m-28.5-17q0-.25-.5-.5-.5.3-.5.75l.5.25q.5-.15.5-.5m.5-3l-.2-.6q-.55.2-.8.6l.5.3.5-.3m163.65 103l.5.3q.4-.2.5-.5-.05-.25-.5-.5-.5.35-.5.7m10.9-.75q.2.25.5.3.4-.05.5-.5-.05-.2-.5-.5-.5.35-.5.7m-6.75-52.35q-.45.25-.9.9.4.35 1 .6.85-.3 1-1l-.35-.75-.75.25m-1.75-22.15q-2.55-.8-2.55 1.35 0 .1 1.5 1.4.55-.15 1.15-.5l.25-.95q0-.75-.15-1-.2-.25-.2-.3m-30.3 74q.15.25.5.3.3-.05.5-.5-.1-.15-.5-.5-.5.3-.5.7m1.85-31.65l-.75.25q-.45.25-.85.9.35.35 1 .6.75-.3 1-1l-.4-.75m8.9 3.25l-.4-.75-.75.25q-.45.25-.85.9.35.35 1 .6.75-.3 1-1m-53.9 25.45q.85-.35 1-1l-.35-.75q-1 .25-1.65 1.2.4.3 1 .55m6.95-14.45q.4-.15.5-.5-.05-.3-.5-.5-.5.25-.5.7.2.2.5.3m-10.25 2q.4-.1.5-.5-.05-.3-.5-.5-.5.25-.5.65.2.25.5.35m-3.3-7.5q-.4.4-.4 1.15 0 .1 1.5 1.35.65-.1 1.25-.5l.25-.95q0-.75-.15-.95-.2-.25-.2-.35-1.6-.5-2.25.25m18-10.5q-.45.45-.45 1.15 0 .1 1.5 1.35.7-.1 1.25-.5l.25-.95q0-.75-.15-.95-.15-.25-.15-.35-1.5-.5-2.25.25m4.05-9.6q-.05-.45-.15-.85l-.15-.25q-.65.15-.85.25-.4.2-.85.85.45.4 1 .65.7-.25 1-.65m5-9.35q.75-.3 1-1l-.4-.75q-.6.2-.7.25-.45.25-.9.9.35.35 1 .6m-29.8-10.65q-1.6-.6-2.25.1-.4.45-.4 1.25 0 .1 1.5 1.4.65-.2 1.25-.5l.25-1q0-.75-.15-1-.2-.2-.2-.25m7.85-8.25q.65-.15 1.25-.5l.25-.95q0-.75-.15-1-.2-.25-.2-.3-1.55-.55-2.25.15-.4.45-.4 1.2 0 .1 1.5 1.4m28.25 13q-.2-.2-.2-.25-1.55-.6-2.2.15-.4.4-.4 1.15 0 .1 1.5 1.35.6-.1 1.25-.5l.25-.9q0-.75-.2-1m-8.8-17.15q.35.4 1 .65.7-.3 1-1l-.4-.75q-.95.2-1.6 1.1m14.1 38.8q-.65.15-.8.25-.4.2-.85.85.4.4 1 .65.65-.25 1-.65-.05-.45-.2-.85l-.15-.25m2.15-5.25l-.15-.25q-.65.15-.8.25-.4.2-.85.85.4.4 1 .65.65-.25 1-.65-.05-.45-.2-.85m3.55-2q-.4.2-.85.85.4.4 1 .65.65-.25 1-.65-.05-.45-.2-.85l-.15-.25q-.65.15-.8.25m6.65-14.9q.65-.25 1-1l-.4-.75q-.6.1-.8.2-.35.2-.8.85.35.45 1 .7m1.5-17.5q.35 0 .9-.35.5-.35.6-.65-.25-.7-1-1-.65 0-1.5 1.35.35.4 1 .65m13 15.3q.35.45 1 .7.65-.25 1-1l-.4-.75q-.6.1-.8.2-.35.2-.8.85M220 94.95l-.25-.4H219v.65l.5.25q.4-.25.5-.5m2-8.25q.15.15.5.25.35-.15.5-.5-.15-.3-.5-.5-.5.2-.5.75m-47.45 3.5q.2 0 .45-.15t.3-.35q-.05-.3-.5-.5-.3 0-.75.75l.5.25m-7.05-6.5q.5-.15.5-.5 0-.25-.5-.5-.5.3-.5.75l.5.25m7.8-3q-.1.05-.25.05-.25.1-.25.5 0 .35.15.4.1.05.35.05.45-.15.5-.5-.1-.3-.5-.5m6.25-3.35v.6l.5.3q.45-.2.5-.5l-.2-.4h-.8m89.6 19.2q-.187.187-.3.45-.1.3-.1.7l.25.25q.4.4 1.25 1.05.6-.05 1.25-.5l.25-.9q0-.365-.05-.6-.047-.247-.15-.35-.2-.25-.2-.35-1.55-.5-2.2.25m-27.5-7.6q.45-.1.5-.5-.1-.3-.5-.5-.1 0-.25.05-.25.1-.25.45 0 .4.15.45.1.05.35.05m7.75-.25q.35-.1.5-.5-.2-.35-.5-.5-.1 0-.25.05-.25.1-.25.45 0 .4.1.45.1.05.4.05m-6.25-3.2q-.25.1-.25.5 0 .35.15.4.1.05.35.05.45-.1.5-.5-.1-.35-.5-.5-.1.05-.25.05m31.9-18.9q-.35.2-.8.85.35.4 1 .65.7-.3 1-1l-.4-.75q-.65.15-.8.25m4.2-4.1q.3.35 1 .6.65-.3 1-1-.4-.75-1-1-1 .35-1 1.4m-9 10.1q.7-.3 1-1l-.4-.75q-.65.15-.8.25-.35.2-.8.85.35.4 1 .65m-4.2-45.85q-.2-.25-.2-.3-2.6-.9-2.6 1.35 0 .1 1.5 1.4.6-.15 1.25-.5l.25-.95q0-.75-.2-1m55.4 20.95q-.2-.2-.2-.25-1.6-.6-2.25.1-.4.45-.4 1.25 0 .1 1.5 1.4.65-.2 1.25-.5l.25-1q0-.75-.15-1m-7.35-12.15q.4.4 1 .65.35 0 .9-.35.5-.4.6-.65-.15-.7-1-1-.6 0-1.5 1.35m-30.05-2.3q-.25-.25-.25-.3-2.55-.8-2.55 1.35 0 .1 1.5 1.4.55-.15 1.25-.5l.25-.95q0-.75-.2-1m28.55-14.3q-.5.25-.5.75l.5.25.5-.25q-.05-.55-.5-.75M626 369.75q-.25.35-.25.7.3.35 1 .6.6-.3 1-.95-.35-.7-1-1-.45.15-.75.65m-10.4-65.95l.5.3.5-.3-.2-.6h-.8v.6m-5.35 5.2q.1.2.5.35l.5-.5-.25-.4h-.75v.55m-1.75-2.15l-.25-.4h-.75v.55q.15.2.5.35.3-.15.5-.5m1.25.6H609v.55q.15.2.5.35.3-.15.5-.5l-.25-.4m27 2h-.85v.55q.15.2.5.35.25-.1.5-.5l-.15-.4M487.3 323.4q-.35.2-.8.85.35.45 1 .7.65-.25 1-1l-.4-.75q-.6.1-.8.2m12.95-5.8q-.25.35-.25.7.3.4 1 .65.6-.25 1-1-.35-.7-1-1-.45.15-.75.65m4.25-4.15q-.45.15-.75.65-.25.35-.25.7.3.4 1 .65.6-.25 1-1-.35-.7-1-1m-16 1.35q.35.4 1 .65.7-.3 1-1l-.4-.75q-.55.1-.75.2-.4.25-.85.9m22.3 1.05q-.4.45-.4 1.2 0 .1 1.5 1.4.65-.15 1.25-.5l.25-.95q0-.75-.15-1-.2-.25-.2-.3-1.55-.55-2.25.15m1.75-17.15q-1 .2-1.65 1.1.4.4 1 .65.8-.3 1-1l-.35-.75m5.85 7.25l-.35-.75q-1 .2-1.65 1.1.4.4 1 .65.7-.25 1-1m46.4-12.35l.25-.9q0-.75-.15-1t-.15-.35q-1.55-.55-2.25.2-.4.45-.4 1.2 0 .1 1.45 1.35.7-.1 1.25-.5m-13-7.4l-.15-.45h-.85v.55l.5.4q.35-.2.5-.5m-7.55-25.75q-1 .2-1.65 1.1.4.4 1 .65.8-.3 1-1l-.35-.75m-28.7 17.5q.2.25.5.3.4-.05.5-.5-.05-.2-.5-.5-.5.35-.5.7m-10.9.75l.5.3q.4-.2.5-.5-.05-.25-.5-.5-.5.35-.5.7m-18.15-28.65q.75-.3 1-1l-.4-.75-.75.25q-.45.25-.85.9.35.35 1 .6m22.3-24.45q-.45.25-.9.9.4.35 1 .6.85-.3 1-1l-.35-.75-.75.25m-15.3-8.4q.65-.25 1-1l-.4-.75q-.6.1-.8.2-.35.2-.8.85.35.45 1 .7m13.75-13.45q-.2-.25-.2-.3-2.55-.8-2.55 1.35 0 .1 1.5 1.4.55-.15 1.15-.5l.25-.95q0-.75-.15-1m54-4.2q-1.6-.5-2.25.25-.4.4-.4 1.15 0 .1 1.5 1.35.65-.1 1.25-.5l.25-.95q0-.75-.15-.95-.2-.25-.2-.35m75.15 83.4q.15-.1.5-.6-.25-.25-.25-.6-.4-.15-1 .45l.75.75m-20.4 10.3q0 .15 1.5 1.35.6-.1 1.25-.5l.25-.9q0-.75-.2-1t-.2-.35q-2.6-.85-2.6 1.4m20.4-39.55q.8-.3 1-1l-.35-.75q-1.05.15-1.65 1.1.4.4 1 .65m-43.75 30.4q-.55-.15-1.9-.15-.1.25-.2.35-.05.05-.05.75 0 .4.45 1.1.6.95 1.55.95.75 0 1.1-.3l.3-.3.1-1.05q-.25-1.05-1.35-1.35m12.85-3.25l.5.35.5-.5-.25-.45h-.75v.6m-20.75-4.65q.3-.15.5-.35 0-.5-.5-.65-.15.05-.35.3-.15.25-.15.35l.5.35m-1.7-8.15q.35.4 1 .65.7-.3 1-1l-.4-.75q-.55.1-.7.2-.45.25-.9.9m5 3.5q-.55.2-.8.55.15.2.5.35.25-.1.5-.5l-.2-.4m-9-50.3l-.4-.75q-1.05.25-1.6 1.2.35.3 1 .55.8-.3 1-1m4.1-18.7q-.6.2-.7.25-.45.25-.9.9.35.35 1 .6.75-.3 1-1l-.4-.75m55.25 29.2l-.35-.75q-.55.1-.75.2-.45.25-.9.9.4.4 1 .65.8-.3 1-1m-24.4-6.5q.75-.25 1.35-.55.05-.2.15-.4v-.75q0-2-1.5-1.5t-1.5 1.45q0 .4.25.7.2.3 1.25 1.05m21.5-6.3q-.55.1-.85.5.15.25.5.35.2-.05.5-.5l-.15-.35m.9-4.9q.3-.1.5-.5l-.15-.35q-.55.1-.85.55.15.2.5.3m-5.5-4.5q-.1-.3-.5-.5-.5.25-.5.7.2.2.5.3.4-.1.5-.5M454.65 379.5q-1.05.25-1.6 1.2.35.3 1 .55.8-.3 1-1l-.4-.75m4.5-17.95q-.6.2-.7.25-.45.25-.9.9.35.35 1 .6.75-.3 1-1l-.4-.75m-24.55-1.6q0 .1 1.5 1.35.65-.1 1.25-.5l.25-.95q0-.75-.15-.95-.2-.25-.2-.35-1.6-.5-2.25.25-.4.4-.4 1.15m-23.7-58.5v.55q.15.2.5.35.25-.1.5-.5l-.15-.4h-.85M477 321v-.05q-.007-.708-.2-.95-.2-.25-.2-.3-2.54-.88-2.6 1.25v.1q0 .1 1.5 1.4.6-.2 1.25-.5l.25-.95m-94.5-22q.15.2.5.35.3-.15.5-.5l-.25-.4h-.75v.55m2.5.85l-.25-.4H384v.55q.15.2.5.35.3-.15.5-.5m1.25 1l-.25-.4h-.75v.55q.1.2.5.35l.5-.5m4.35-5.05l.5.3.5-.3-.2-.6h-.8v.6m3.2-11.6q-.2-.25-.2-.35-2.6-.85-2.6 1.4 0 .15 1.5 1.35.6-.1 1.25-.5l.25-.9q0-.75-.2-1m-28.25-7.9q-.05.05-.05.75 0 .4.45 1.1.6.95 1.55.95.75 0 1.1-.3l.3-.3.1-1.05q-.25-1.05-1.35-1.35-.55-.15-1.9-.15-.1.25-.2.35m14.95-4.05v.6l.5.35.5-.5-.25-.45h-.75m-23.85 15.6q-1.55-.55-2.2.2-.4.45-.4 1.2 0 .1 1.5 1.35.6-.15 1.25-.5l.25-.9q0-.75-.2-1t-.2-.35m-3.2-7.25q-.45.25-.9.9.35.35 1 .6.75-.3 1-1l-.4-.75q-.6.2-.7.25m-27.65-2.85v.55l.5.4q.35-.2.5-.5l-.15-.45h-.85m13.95 5.6q-1.55-.55-2.25.2-.4.45-.4 1.2 0 .1 1.45 1.35.7-.1 1.25-.5l.25-.9q0-.75-.15-1t-.15-.35m19.65-15.85q-.15.25-.15.35l.5.35q.3-.15.5-.35 0-.5-.5-.65-.15.05-.35.3m2.85-3.4q.15.2.5.35.25-.1.5-.5l-.2-.4q-.55.2-.8.55m-2.6-5.15q-.55.1-.7.2-.45.25-.9.9.35.4 1 .65.7-.3 1-1l-.4-.75m-7.6-45.25q.35.3 1 .55.8-.3 1-1l-.4-.75q-1.05.25-1.6 1.2m38.45 1.85q0-2-1.5-1.5t-1.5 1.45q0 .4.25.7.2.3 1.25 1.05.75-.25 1.35-.55.05-.2.15-.4v-.75m86.75 61.2q-.5.3-.5.7.15.25.5.3.3-.05.5-.5-.1-.15-.5-.5m-44.65-2.8q.4.3 1 .55.85-.35 1-1l-.35-.75q-1 .25-1.65 1.2m-21.2 1q.15-.1.5-.6-.25-.25-.25-.6-.4-.15-1 .45l.75.75m18.9-12.9q.4-.1.5-.5-.05-.3-.5-.5-.5.25-.5.65.2.25.5.35m-.85-7.4q-.2-.25-.2-.35-1.6-.5-2.25.25-.4.4-.4 1.15 0 .1 1.5 1.35.65-.1 1.25-.5l.25-.95q0-.75-.15-.95m11.1 4.4q-.5.25-.5.7.2.2.5.3.4-.15.5-.5-.05-.3-.5-.5m-22.5-11.7q.15-.15.35-.65-.25-.7-1-1-1 0-1.35.05-.65.15-.65.95 0 1.25.4.75l1.1.25q.8 0 1.15-.35m-7.65-2.3q.4.4 1 .65.8-.3 1-1l-.35-.75q-1.05.15-1.65 1.1m2.65-22.05q-.55.1-.75.2-.45.25-.9.9.4.4 1 .65.8-.3 1-1l-.35-.75m11.55-7.3q0-.75-.15-1-.2-.2-.2-.25-1.6-.6-2.25.1-.4.45-.4 1.25 0 .1 1.5 1.4.65-.2 1.25-.5l.25-1m7.5-9.5q.65-.15 1.25-.5l.25-.95q0-.75-.15-1-.2-.25-.2-.3-1.55-.55-2.25.15-.4.45-.4 1.2 0 .1 1.5 1.4m45.75 39.85q-.45.25-.85.9.35.35 1 .6.75-.3 1-1l-.4-.75-.75.25m-9.85-9.6q-.05-.45-.2-.85l-.15-.25q-.65.15-.8.25-.4.2-.85.85.4.4 1 .65.65-.25 1-.65m4.15-3.1q-.65.15-.8.25-.4.2-.85.85.4.4 1 .65.65-.25 1-.65-.05-.45-.2-.85l-.15-.25m-6.5 7.5q-.65.15-.8.25-.4.2-.85.85.4.4 1 .65.65-.25 1-.65-.05-.45-.2-.85l-.15-.25m-18.25 3.3q-.15-.25-.15-.35-1.5-.5-2.25.25-.45.45-.45 1.15 0 .1 1.5 1.35.7-.1 1.25-.5l.25-.95q0-.75-.15-.95m.5-10.55q-.4.2-.85.85.45.4 1 .65.7-.25 1-.65-.05-.45-.15-.85l-.15-.25q-.65.15-.85.25m6.75-10.25q-.6.2-.7.25-.45.25-.9.9.35.35 1 .6.75-.3 1-1l-.4-.75m5.7-4.15q-.2-.2-.2-.25-1.55-.6-2.2.15-.4.4-.4 1.15 0 .1 1.5 1.35.6-.1 1.25-.5l.25-.9q0-.75-.2-1m-7.8-16.5q.7-.3 1-1l-.4-.75q-.95.2-1.6 1.1.35.4 1 .65m25.25 14.45q-.35.2-.8.85.35.45 1 .7.65-.25 1-1l-.4-.75q-.6.1-.8.2m1.7-15.95q.35 0 .9-.35.5-.35.6-.65-.25-.7-1-1-.65 0-1.5 1.35.35.4 1 .65m2-17.25q.35-.15.5-.5-.15-.3-.5-.5-.5.2-.5.75.15.15.5.25m-47.95 3.25q.2 0 .45-.15t.3-.35q-.05-.3-.5-.5-.3 0-.75.75l.5.25m-7.05-7.5q-.5.3-.5.75l.5.25q.5-.15.5-.5 0-.25-.5-.5M412.25 149q-.2-.25-.2-.3-1.55-.55-2.25.15-.4.45-.4 1.2 0 .1 1.5 1.4.65-.15 1.25-.5l.25-.95q0-.75-.15-1m4.8-10.8q-1 .2-1.65 1.1.4.4 1 .65.7-.25 1-1l-.35-.75m-5.15-5.75l-.35-.75q-1 .2-1.65 1.1.4.4 1 .65.8-.3 1-1m3.15-22.2q-.5.35-.5.7.2.25.5.3.4-.05.5-.5-.05-.2-.5-.5M398 185.1q-.033-.533-.2-.7-.25-.25-.25-.3-2.55-.85-2.55 1.4 0 .15 1.5 1.35.55-.15 1.25-.5l.25-1v-.25M375.8 153q-.2-.25-.2-.3-2.6-.9-2.6 1.35 0 .1 1.5 1.4.6-.2 1.25-.5l.25-.95q0-.75-.2-1m11.3 3.2q-.6.1-.8.2-.35.2-.8.85.35.45 1 .7.65-.25 1-1l-.4-.75m13.9-5.25q-.35-.7-1-1-.45.15-.75.65-.25.35-.25.7.3.4 1 .65.6-.25 1-1m-42.45 44.35l-.4-.75q-.6.2-.7.25-.45.25-.9.9.35.35 1 .6.75-.3 1-1M334 191.8q-.4.4-.4 1.15 0 .1 1.5 1.35.65-.1 1.25-.5l.25-.95q0-.75-.15-.95-.2-.25-.2-.35-1.6-.5-2.25.25m-2.4-84.85q.4.3 1 .55.85-.35 1-1l-.35-.75q-1 .25-1.65 1.2m15.65 2.55q.3-.05.5-.5-.1-.15-.5-.5-.5.3-.5.7.15.25.5.3m-.4-3h.4q.3-.05.5-.5l-.5-.5q-.1.05-.25.05-.25.1-.25.45 0 .4.1.5m55.65 41.3q.3.4 1 .65.6-.25 1-1-.35-.7-1-1-.45.15-.75.65-.25.35-.25.7m-14 .65q.7-.3 1-1l-.4-.75q-.55.1-.75.2-.4.25-.85.9.35.4 1 .65m-12.25-38.7q-.5.3-.5.7.15.25.5.3.3-.05.5-.5-.1-.15-.5-.5m27.9 1.25q-.5.35-.5.7l.5.3q.4-.2.5-.5-.05-.25-.5-.5M386.5 82.05l-.4-.75-.75.25q-.45.25-.85.9.35.35 1 .6.75-.3 1-1m-10.5-2.1q.35.35 1 .6.75-.3 1-1l-.4-.75-.75.25q-.45.25-.85.9m-11-10.5q.4.4 1 .65.65-.25 1-.65-.05-.45-.2-.85l-.15-.25q-.65.15-.8.25-.4.2-.85.85m6.5-2q-.05-.45-.2-.85l-.15-.25q-.65.15-.8.25-.4.2-.85.85.4.4 1 .65.65-.25 1-.65M377 51.7q.65-.25 1-1l-.4-.75q-.6.1-.8.2-.35.2-.8.85.35.45 1 .7m-14 23.25q.4.4 1 .65.65-.25 1-.65-.05-.45-.2-.85l-.15-.25q-.65.15-.8.25-.4.2-.85.85m-23.95 17.8q.2.2.5.3.4-.15.5-.5-.05-.3-.5-.5-.5.25-.5.7m-9.25 1.8q-.05-.3-.5-.5-.5.25-.5.65.2.25.5.35.4-.1.5-.5m-1.35-6.9q-.2-.25-.2-.35-1.6-.5-2.25.25-.4.4-.4 1.15 0 .1 1.5 1.35.65-.1 1.25-.5l.25-.95q0-.75-.15-.95M344 77.05q-.45.45-.45 1.15 0 .1 1.5 1.35.7-.1 1.25-.5l.25-.95q0-.75-.15-.95-.15-.25-.15-.35-1.5-.5-2.25.25m3.75-10.7q-.65.15-.85.25-.4.2-.85.85.45.4 1 .65.7-.25 1-.65-.05-.45-.15-.85l-.15-.25m6.3-9.25l-.4-.75q-.6.2-.7.25-.45.25-.9.9.35.35 1 .6.75-.3 1-1m5.1-5.15q-1.55-.6-2.2.15-.4.4-.4 1.15 0 .1 1.5 1.35.6-.1 1.25-.5l.25-.9q0-.75-.2-1-.2-.2-.2-.25m-8.6-16.9q.35.4 1 .65.7-.3 1-1l-.4-.75q-.95.2-1.6 1.1m-18.1 1.7q-.2-.25-.2-.3-1.55-.55-2.25.15-.4.45-.4 1.2 0 .1 1.5 1.4.65-.15 1.25-.5l.25-.95q0-.75-.15-1m-.4-16.8l.5.25q.2 0 .45-.15t.3-.35q-.05-.3-.5-.5-.3 0-.75.75m61.05 28.5q-.6.1-.8.2-.35.2-.8.85.35.45 1 .7.65-.25 1-1l-.4-.75m-13.7-14.6q.5-.35.6-.65-.25-.7-1-1-.65 0-1.5 1.35.35.4 1 .65.35 0 .9-.35m-1.65-9.3H377v.65l.5.25q.4-.25.5-.5l-.25-.4m2.75-8.6q-.5.2-.5.75.15.15.5.25.35-.15.5-.5-.15-.3-.5-.5m22.4.05q0 .35.15.4.1.05.35.05.45-.1.5-.5-.1-.35-.5-.5-.1.05-.25.05-.25.1-.25.5m-1.5 2q-.25.1-.25.45 0 .4.15.45.1.05.35.05.45-.1.5-.5-.1-.3-.5-.5-.1 0-.25.05m7.15 40.35l-.75.25q-.45.25-.9.9.4.35 1 .6.85-.3 1-1l-.35-.75m-2.4-19.65l.25-.95q0-.75-.15-1-.2-.25-.2-.3-2.55-.8-2.55 1.35 0 .1 1.5 1.4.55-.15 1.15-.5m3.75-20.5q-.2-.35-.5-.5-.1 0-.25.05-.25.1-.25.45 0 .4.1.45.1.05.4.05.35-.1.5-.5m49.9 26.9q-.5.5-.5 1.2 0 .1 1.5 1.4.6-.15 1.25-.5l.25-.95q0-.75-.2-1t-.2-.3q-1.4-.55-2.1.15m-8.5-18.15q.45-.15.5-.5-.05-.3-.5-.5 0 .05-.25.05-.25.1-.25.45 0 .4.15.45.1.05.35.05m-3.25-7.2q-.25.1-.25.5 0 .35.15.4.1.05.35.05.45-.15.5-.5-.1-.3-.5-.5 0 .05-.25.05m174.5 172.35q-2.55-.85-2.55 1.4 0 .15 1.5 1.35.55-.15 1.25-.5l.25-1q0-.75-.2-.95-.25-.25-.25-.3m-11.25-27.7q-.35.2-.8.85.35.45 1 .7.65-.25 1-1l-.4-.75q-.6.1-.8.2m2.2-7.95q.7-.3 1-1l-.4-.75q-.55.1-.75.2-.4.25-.85.9.35.4 1 .65m12.5 2.5q-.35-.7-1-1-.45.15-.75.65-.25.35-.25.7.3.4 1 .65.6-.25 1-1m11.25-1.95q-.2-.25-.2-.3-1.55-.55-2.25.15-.4.45-.4 1.2 0 .1 1.5 1.4.65-.15 1.25-.5l.25-.95q0-.75-.15-1m-8.75-.55q.6-.25 1-1-.35-.7-1-1-.45.15-.75.65-.25.35-.25.7.3.4 1 .65m-27.75 6.5l.25-.95q0-.75-.2-1t-.2-.3q-2.6-.9-2.6 1.35 0 .1 1.5 1.4.6-.2 1.25-.5m-28.5-45.45q.3-.05.5-.5-.1-.15-.5-.5-.5.3-.5.7.15.25.5.3m.5-3.5l-.5-.5q-.1.05-.25.05-.25.1-.25.45 0 .4.1.5h.4q.3-.05.5-.5m28.5 3.75q-.5.3-.5.7.15.25.5.3.3-.05.5-.5-.1-.15-.5-.5m39.15 29.55q.4.4 1 .65.7-.25 1-1l-.35-.75q-1 .2-1.65 1.1m-3.85-7.6q-1 .2-1.65 1.1.4.4 1 .65.8-.3 1-1l-.35-.75m4-20.95q-.05-.2-.5-.5-.5.35-.5.7.2.25.5.3.4-.05.5-.5m-11.9.95l.5.3q.4-.2.5-.5-.05-.25-.5-.5-.5.35-.5.7m-118.25 65q-.1 0-.25.05-.25.1-.25.45 0 .4.1.45.1.05.4.05.35-.1.5-.5-.2-.35-.5-.5m-7.75.25q-.1 0-.25.05-.25.1-.25.45 0 .4.15.45.1.05.35.05.45-.1.5-.5-.1-.3-.5-.5m55.95-70.45l-.35-.75q-1 .25-1.65 1.2.4.3 1 .55.85-.35 1-1m-4.8-11.8q.2.25.5.35.4-.1.5-.5-.05-.3-.5-.5-.5.25-.5.65m10.75-2.65q-.5.25-.5.7.2.2.5.3.4-.15.5-.5-.05-.3-.5-.5m-11.1-4.4q-.2-.25-.2-.35-1.6-.5-2.25.25-.4.4-.4 1.15 0 .1 1.5 1.35.65-.1 1.25-.5l.25-.95q0-.75-.15-.95m-5.1-37.95l.25-1q0-.75-.15-1-.2-.2-.2-.25-1.6-.6-2.25.1-.4.45-.4 1.25 0 .1 1.5 1.4.65-.2 1.25-.5m-51.3 21.4q-.35.2-.8.85.35.4 1 .65.462-.198.75-.6.148-.162.25-.4l-.4-.75q-.65.15-.8.25m5.8-4.75q-.65.15-.8.25-.35.2-.8.85.35.4 1 .65.7-.3 1-1l-.4-.75m4.4-3.25q.65-.3 1-1-.4-.75-1-1-1 .35-1 1.4.3.35 1 .6m47.35-25.3q0 .1 1.5 1.4.65-.15 1.25-.5l.25-.95q0-.75-.15-1-.2-.25-.2-.3-1.55-.55-2.25.15-.4.45-.4 1.2m3.7-18.1q-.05-.3-.5-.5-.3 0-.75.75l.5.25q.2 0 .45-.15t.3-.35m-14.7 15.5q-.15-.7-1-1-.6 0-1.5 1.35.4.4 1 .65.35 0 .9-.35.5-.4.6-.65m-12-15.5l.5.25.5-.25q-.05-.55-.5-.75-.5.25-.5.75m13-7.45q-.25.1-.25.5t.1.4q.1.05.4.05.35-.1.5-.5-.25-.35-.5-.5-.1.05-.25.05m20.75-4.9h-.8v.6l.5.3q.45-.2.5-.5l-.2-.4M611.1 89.3l-.75.25q-.45.25-.85.9.35.35 1 .6.75-.3 1-1l-.4-.75M633.15 67l.05-.15h-.55q.245.064.5.15M603 87.55l-.4-.75-.75.25q-.45.25-.85.9.35.35 1 .6.75-.3 1-1m-13-4.6q-.05-.45-.2-.85l-.15-.25q-.65.15-.8.25-.4.2-.85.85.4.4 1 .65.65-.25 1-.65m1.65-6.6q-.65.15-.8.25-.4.2-.85.85.4.4 1 .65.65-.25 1-.65-.05-.45-.2-.85l-.15-.25m4.85-.9q-.05-.45-.2-.85l-.15-.25q-.65.15-.8.25-.4.2-.85.85.4.4 1 .65.65-.25 1-.65m-25.25 9.35q-1.5-.5-2.25.25-.45.45-.45 1.15 0 .1 1.5 1.35.7-.1 1.25-.5l.25-.95q0-.75-.15-.95-.15-.25-.15-.35m1.65-10.2l-.15-.25q-.65.15-.85.25-.4.2-.85.85.45.4 1 .65.7-.25 1-.65-.05-.45-.15-.85m6.15-9.5l-.4-.75q-.6.2-.7.25-.45.25-.9.9.35.35 1 .6.75-.3 1-1m5.5-3.9q0-.75-.2-1-.2-.2-.2-.25-1.55-.6-2.2.15-.4.4-.4 1.15 0 .1 1.5 1.35.6-.1 1.25-.5l.25-.9m18.05-3.25q-.6.1-.8.2-.35.2-.8.85.35.45 1 .7.65-.25 1-1l-.4-.75M605 41.2q-.25-.7-1-1-.65 0-1.5 1.35.35.4 1 .65.35 0 .9-.35.5-.35.6-.65m-3-8.65v.65l.5.25q.4-.25.5-.5l-.25-.4H602M577.55 42.7l-.4-.75q-.95.2-1.6 1.1.35.4 1 .65.7-.3 1-1m27.95-18.75q-.5.2-.5.75.15.15.5.25.35-.15.5-.5-.15-.3-.5-.5m25.55 20.5q-2.55-.8-2.55 1.35 0 .1 1.5 1.4.55-.15 1.15-.5l.25-.95q0-.75-.15-1-.2-.25-.2-.3m3.35-18.75q-.1 0-.25.05-.25.1-.25.45 0 .4.1.45.1.05.4.05.35-.1.5-.5-.2-.35-.5-.5m-8 .3q-.25.1-.25.45 0 .4.15.45.1.05.35.05.45-.1.5-.5-.1-.3-.5-.5-.1 0-.25.05m1.5-2q0 .35.15.4.1.05.35.05.45-.1.5-.5-.1-.35-.5-.5-.1.05-.25.05-.25.1-.25.5m103.5 341.2h-.8v.6l.5.3.5-.3-.2-.6m-64.75-17.45h-.85v.55l.5.4q.35-.2.5-.5l-.15-.45m13.15 7.85l.25-.9q0-.75-.15-1t-.15-.35q-1.55-.55-2.25.2-.4.45-.4 1.2 0 .1 1.45 1.35.7-.1 1.25-.5m-20.55-33.15q-1 .2-1.65 1.1.4.4 1 .65.8-.3 1-1l-.35-.75m34.8-39.2l-.4-.75q-1.05.25-1.6 1.2.35.3 1 .55.8-.3 1-1m4.1-18.7q-.6.2-.7.25-.45.25-.9.9.35.35 1 .6.75-.3 1-1l-.4-.75m-24.55-1.6q0 .1 1.5 1.35.65-.1 1.25-.5l.25-.95q0-.75-.15-.95-.2-.25-.2-.35-1.6-.5-2.25.25-.4.4-.4 1.15m42.15-38l.25-.95q0-.75-.2-1t-.2-.3q-2.6-.9-2.6 1.35 0 .1 1.5 1.4.6-.2 1.25-.5m11.35 1.25q-.6.1-.8.2-.35.2-.8.85.35.45 1 .7.65-.25 1-1l-.4-.75m3.4 59.35q0-2-1.5-1.5t-1.5 1.45q0 .4.25.7.2.3 1.25 1.05.75-.25 1.35-.55.05-.2.15-.4v-.75m9.5-63.6q.6-.25 1-1-.35-.7-1-1-.45.15-.75.65-.25.35-.25.7.3.4 1 .65m2.75-4.85q-.25.35-.25.7.3.4 1 .65.6-.25 1-1-.35-.7-1-1-.45.15-.75.65m-13.25.35l-.4-.75q-.55.1-.75.2-.4.25-.85.9.35.4 1 .65.7-.3 1-1m2-97.95q.35.45 1 .7.65-.25 1-1l-.4-.75q-.6.1-.8.2-.35.2-.8.85m-15.25 60.25q-.5.3-.5.7.15.25.5.3.3-.05.5-.5-.1-.15-.5-.5m1.35-30.95l-.75.25q-.45.25-.85.9.35.35 1 .6.75-.3 1-1l-.4-.75m8.9 3.25l-.4-.75-.75.25q-.45.25-.85.9.35.35 1 .6.75-.3 1-1m-53.25 23.7q-1 .25-1.65 1.2.4.3 1 .55.85-.35 1-1l-.35-.75m14.5 3.25q-.1-.15-.5-.5-.5.3-.5.7.15.25.5.3.3-.05.5-.5m-.5-3.5q-.1.05-.25.05-.25.1-.25.45 0 .4.1.5h.4q.3-.05.5-.5l-.5-.5m-7.7-13.45q-.5.25-.5.7.2.2.5.3.4-.15.5-.5-.05-.3-.5-.5m-10.25 2q-.5.25-.5.65.2.25.5.35.4-.1.5-.5-.05-.3-.5-.5m-.7-5.45q0-.75-.15-.95-.2-.25-.2-.35-1.6-.5-2.25.25-.4.4-.4 1.15 0 .1 1.5 1.35.65-.1 1.25-.5l.25-.95m17.95-10.5q0-.75-.15-.95-.15-.25-.15-.35-1.5-.5-2.25.25-.45.45-.45 1.15 0 .1 1.5 1.35.7-.1 1.25-.5l.25-.95m1.35-11.5l-.15-.25q-.65.15-.85.25-.4.2-.85.85.45.4 1 .65.7-.25 1-.65-.05-.45-.15-.85m-27.3-17.8q0 .1 1.5 1.4.65-.2 1.25-.5l.25-1q0-.75-.15-1-.2-.2-.2-.25-1.6-.6-2.25.1-.4.45-.4 1.25m-3-14.6q-.6 0-1.5 1.35.4.4 1 .65.35 0 .9-.35.5-.4.6-.65-.15-.7-1-1m12.4 2.4q-.4.45-.4 1.2 0 .1 1.5 1.4.65-.15 1.25-.5l.25-.95q0-.75-.15-1-.2-.25-.2-.3-1.55-.55-2.25.15m39.5 30.85q.4.4 1 .65.65-.25 1-.65-.05-.45-.2-.85l-.15-.25q-.65.15-.8.25-.4.2-.85.85m-4.5 7.5q-.05-.45-.2-.85l-.15-.25q-.65.15-.8.25-.4.2-.85.85.4.4 1 .65.65-.25 1-.65m1.8-6.35l-.15-.25q-.65.15-.8.25-.4.2-.85.85.4.4 1 .65.65-.25 1-.65-.05-.45-.2-.85m-12.75-11.5l-.4-.75q-.6.2-.7.25-.45.25-.9.9.35.35 1 .6.75-.3 1-1m2.9-5q-.4.4-.4 1.15 0 .1 1.5 1.35.6-.1 1.25-.5l.25-.9q0-.75-.2-1-.2-.2-.2-.25-1.55-.6-2.2.15m-4.4-17.4l-.4-.75q-.95.2-1.6 1.1.35.4 1 .65.7-.3 1-1m25.45 16l-.4-.75q-.6.1-.8.2-.35.2-.8.85.35.45 1 .7.65-.25 1-1m1.4-16.85q.5-.35.6-.65-.25-.7-1-1-.65 0-1.5 1.35.35.4 1 .65.35 0 .9-.35M717 95.2l.5.25q.4-.25.5-.5l-.25-.4H717v.65m4-8.75q-.15-.3-.5-.5-.5.2-.5.75.15.15.5.25.35-.15.5-.5m-48.2 2.75q-.3 0-.75.75l.5.25q.2 0 .45-.15t.3-.35q-.05-.3-.5-.5z" id="a"/><path d="M761.45 382.95V0H0v382.95h488.6q-.1-.206-.1-.45 0-.297.15-.55.32-.556 1.35-.9 1.25-.416 1.45.9.05.265.05.6v.4h269.95m-89.4-293q.45-.75.75-.75.45.2.5.5-.05.2-.3.35-.25.15-.45.15l-.5-.25m48.45-4q.35.2.5.5-.15.35-.5.5-.35-.1-.5-.25 0-.55.5-.75m-3 9.5l-.5-.25v-.65h.75l.25.4q-.1.25-.5.5m2.5 7.75q-.1.3-.6.65-.55.35-.9.35-.65-.25-1-.65.85-1.35 1.5-1.35.75.3 1 1m-2.4 16.75l.4.75q-.35.75-1 1-.65-.25-1-.7.45-.65.8-.85.2-.1.8-.2m-25.45-16l.4.75q-.3.7-1 1-.65-.25-1-.65.65-.9 1.6-1.1m4.4 19.3q0-.75.4-1.15.65-.75 2.2-.15 0 .05.2.25.2.25.2 1l-.25.9q-.65.4-1.25.5-1.5-1.25-1.5-1.35m-2.9 3.1l.4.75q-.25.7-1 1-.65-.25-1-.6.45-.65.9-.9.1-.05.7-.25m13 12l.15.25q.15.4.2.85-.35.4-1 .65-.6-.25-1-.65.45-.65.85-.85.15-.1.8-.25m-2.8 5.75q.15-.1.8-.25l.15.25q.15.4.2.85-.35.4-1 .65-.6-.25-1-.65.45-.65.85-.85m6.65-6q-.6-.25-1-.65.45-.65.85-.85.15-.1.8-.25l.15.25q.15.4.2.85-.35.4-1 .65m-40.9-30.3q0-.75.4-1.2.7-.7 2.25-.15 0 .05.2.3.15.25.15 1l-.25.95q-.6.35-1.25.5-1.5-1.3-1.5-1.4m-13.5-2.25q.9-1.35 1.5-1.35.85.3 1 1-.1.25-.6.65-.55.35-.9.35-.6-.25-1-.65m4.9 12q.65-.7 2.25-.1 0 .05.2.25.15.25.15 1l-.25 1q-.6.3-1.25.5-1.5-1.3-1.5-1.4 0-.8.4-1.25m26.75 18.8l.15.25q.1.4.15.85-.3.4-1 .65-.55-.25-1-.65.45-.65.85-.85.2-.1.85-.25m-1.35 10.8q.15.2.15.95l-.25.95q-.55.4-1.25.5-1.5-1.25-1.5-1.35 0-.7.45-1.15.75-.75 2.25-.25 0 .1.15.35m-17.95 10.5q.15.2.15.95l-.25.95q-.6.4-1.25.5-1.5-1.25-1.5-1.35 0-.75.4-1.15.65-.75 2.25-.25 0 .1.2.35m.35 7.05q0-.4.5-.65.45.2.5.5-.1.4-.5.5-.3-.1-.5-.35m10.25-1.95q0-.45.5-.7.45.2.5.5-.1.35-.5.5-.3-.1-.5-.3m7.95 12.8q.15 0 .25-.05l.5.5q-.2.45-.5.5h-.4q-.1-.1-.1-.5 0-.35.25-.45m.25 2.95q.4.35.5.5-.2.45-.5.5-.35-.05-.5-.3 0-.4.5-.7m-15.65-1.55q.65-.95 1.65-1.2l.35.75q-.15.65-1 1-.6-.25-1-.55m54.5-25.65l.4.75q-.25.7-1 1-.65-.25-1-.6.4-.65.85-.9l.75-.25m-9.25-2.25l.75-.25.4.75q-.25.7-1 1-.65-.25-1-.6.4-.65.85-.9m-1.1 31.4q0-.4.5-.7.4.35.5.5-.2.45-.5.5-.35-.05-.5-.3m16.75-60.25q-.65-.25-1-.7.45-.65.8-.85.2-.1.8-.2l.4.75q-.35.75-1 1m-3.4 96.5l.4.75q-.3.7-1 1-.65-.25-1-.65.45-.65.85-.9.2-.1.75-.2m13.4 1.1q0-.35.25-.7.3-.5.75-.65.65.3 1 1-.4.75-1 1-.7-.25-1-.65m-1.5 3.15q-.4.75-1 1-.7-.25-1-.65 0-.35.25-.7.3-.5.75-.65.65.3 1 1m-12 63.1q1.5-.5 1.5 1.5v.75q-.1.2-.15.4-.6.3-1.35.55-1.05-.75-1.25-1.05-.25-.3-.25-.7 0-.95 1.5-1.45m-2.7-57.65q.2-.1.8-.2l.4.75q-.35.75-1 1-.65-.25-1-.7.45-.65.8-.85M716 224l-.25.95q-.65.3-1.25.5-1.5-1.3-1.5-1.4 0-2.25 2.6-1.35 0 .05.2.3t.2 1m-40.9 40.3q-1.5-1.25-1.5-1.35 0-.75.4-1.15.65-.75 2.25-.25 0 .1.2.35.15.2.15.95l-.25.95q-.6.4-1.25.5m22.35.5q.1-.05.7-.25l.4.75q-.25.7-1 1-.65-.25-1-.6.45-.65.9-.9m-3.8 17.7l.4.75q-.2.7-1 1-.65-.25-1-.55.55-.95 1.6-1.2m5.3 46.65q.15-.1.7-.2l.4.75q-.3.7-1 1-.65-.25-1-.65.45-.65.9-.9m.8 8.05q-.01.017-.05 0 .02.01.05 0m21.5 5.05l.25.45-.5.5-.5-.35v-.6h.75m-63.65-18.7q.65-.9 1.65-1.1l.35.75q-.2.7-1 1-.6-.25-1-.65m22.45 31.15l-.25.9q-.55.4-1.25.5-1.45-1.25-1.45-1.35 0-.75.4-1.2.7-.75 2.25-.2 0 .1.15.35.15.25.15 1m-13.4-6.95l.15.45q-.15.3-.5.5l-.5-.4v-.55h.85m56.35 21.6q-.35-.15-.5-.35v-.55h.75l.25.4q-.2.35-.5.5m2.25 1.1h.75l.25.4-.5.5q-.4-.15-.5-.35v-.55m-.5-1l.25.4q-.2.35-.5.5-.35-.15-.5-.35v-.55h.75m-30.6-19.1l.4.75q-.25.7-1 1-.65-.25-1-.6.45-.65.9-.9.1-.05.7-.25m36.45 14.85h.8l.2.6-.5.3-.5-.3v-.6M628.05 24.4q-.15-.05-.15-.4 0-.4.25-.5.15 0 .25-.05.4.15.5.5-.05.4-.5.5-.25 0-.35-.05m-1.4 2.55q-.25 0-.35-.05-.15-.05-.15-.45 0-.35.25-.45.15-.05.25-.05.4.2.5.5-.05.4-.5.5m7.5-1.2q.15-.05.25-.05.3.15.5.5-.15.4-.5.5-.3 0-.4-.05-.1-.05-.1-.45 0-.35.25-.45m-3 20.95q-.6.35-1.15.5-1.5-1.3-1.5-1.4 0-2.15 2.55-1.35 0 .05.2.3.15.25.15 1l-.25.95M605 24.7q0-.55.5-.75.35.2.5.5-.15.35-.5.5-.35-.1-.5-.25m-27.85 17.25l.4.75q-.3.7-1 1-.65-.25-1-.65.65-.9 1.6-1.1M602 33.2v-.65h.75l.25.4q-.1.25-.5.5l-.5-.25m1.5 9q-.65-.25-1-.65.85-1.35 1.5-1.35.75.3 1 1-.1.3-.6.65-.55.35-.9.35m-1.7 15.95q.2-.1.8-.2l.4.75q-.35.75-1 1-.65-.25-1-.7.45-.65.8-.85m-17.45 2.05q.2.25.2 1l-.25.9q-.65.4-1.25.5-1.5-1.25-1.5-1.35 0-.75.4-1.15.65-.75 2.2-.15 0 .05.2.25m-5.7 4.15l.4.75q-.25.7-1 1-.65-.25-1-.6.45-.65.9-.9.1-.05.7-.25m-5.9 10l.15.25q.1.4.15.85-.3.4-1 .65-.55-.25-1-.65.45-.65.85-.85.2-.1.85-.25M569 85.05q.75-.75 2.25-.25 0 .1.15.35.15.2.15.95l-.25.95q-.55.4-1.25.5-1.5-1.25-1.5-1.35 0-.7.45-1.15m27.3-10.45q.15.4.2.85-.35.4-1 .65-.6-.25-1-.65.45-.65.85-.85.15-.1.8-.25l.15.25m-5.45 2q.15-.1.8-.25l.15.25q.15.4.2.85-.35.4-1 .65-.6-.25-1-.65.45-.65.85-.85m-1.05 5.5q.15.4.2.85-.35.4-1 .65-.6-.25-1-.65.45-.65.85-.85.15-.1.8-.25l.15.25m12.8 4.7l.4.75q-.25.7-1 1-.65-.25-1-.6.4-.65.85-.9l.75-.25m30.6-19.95l-.05.15q-.255-.086-.5-.15h.55m-22.85 22.7l.75-.25.4.75q-.25.7-1 1-.65-.25-1-.6.4-.65.85-.9m-45.8-74.2h.8l.2.4q-.05.3-.5.5l-.5-.3v-.6m-19.95 4.9q.15 0 .25-.05.25.15.5.5-.15.4-.5.5-.3 0-.4-.05-.1 0-.1-.4t.25-.5m-12.5 7.7l-.5-.25q0-.5.5-.75.45.2.5.75l-.5.25m10.5 14.25q.85.3 1 1-.1.25-.6.65-.55.35-.9.35-.6-.25-1-.65.9-1.35 1.5-1.35m15.2-15q.45.2.5.5-.05.2-.3.35-.25.15-.45.15l-.5-.25q.45-.75.75-.75m-1.7 20q-1.5-1.3-1.5-1.4 0-.75.4-1.2.7-.7 2.25-.15 0 .05.2.3.15.25.15 1l-.25.95q-.6.35-1.25.5m-47.85 22.9q-.35.7-1 1-.7-.25-1-.6 0-1.05 1-1.4.6.25 1 1m-6.2 4.5q.15-.1.8-.25l.4.75q-.3.7-1 1-.65-.25-1-.65.45-.65.8-.85m-5.8 5.35q.45-.65.8-.85.15-.1.8-.25l.4.75q-.102.238-.25.4-.288.402-.75.6-.65-.25-1-.65M548.6 56.7l-.25 1q-.6.3-1.25.5-1.5-1.3-1.5-1.4 0-.8.4-1.25.65-.7 2.25-.1 0 .05.2.25.15.25.15 1m3.5 41.35q-1.5-1.25-1.5-1.35 0-.75.4-1.15.65-.75 2.25-.25 0 .1.2.35.15.2.15.95l-.25.95q-.6.4-1.25.5m11.95 2.7q0-.45.5-.7.45.2.5.5-.1.35-.5.5-.3-.1-.5-.3m-9.75 2.3q-.3-.1-.5-.35 0-.4.5-.65.45.2.5.5-.1.4-.5.5m3.95 10.7l.35.75q-.15.65-1 1-.6-.25-1-.55.65-.95 1.65-1.2M502.4 185q.15-.05.25-.05.4.2.5.5-.05.4-.5.5-.25 0-.35-.05-.15-.05-.15-.45 0-.35.25-.45m8-.3q.3.15.5.5-.15.4-.5.5-.3 0-.4-.05-.1-.05-.1-.45 0-.35.25-.45.15-.05.25-.05M629.15 120l-.5-.3q0-.35.5-.7.45.25.5.5-.1.3-.5.5m10.9-1.75q.45.3.5.5-.1.45-.5.5-.3-.05-.5-.3 0-.35.5-.7m-5.15 22.55q.65-.9 1.65-1.1l.35.75q-.2.7-1 1-.6-.25-1-.65m6.5 7.15q-.6-.25-1-.65.65-.9 1.65-1.1l.35.75q-.3.75-1 1m-40.65-29.5q0-.4.5-.7.4.35.5.5-.2.45-.5.5-.35-.05-.5-.3m-28.5-4.95l.5.5q-.2.45-.5.5h-.4q-.1-.1-.1-.5 0-.35.25-.45.15 0 .25-.05m.5 3.5q-.2.45-.5.5-.35-.05-.5-.3 0-.4.5-.7.4.35.5.5M601 162l-.25.95q-.65.3-1.25.5-1.5-1.3-1.5-1.4 0-2.25 2.6-1.35 0 .05.2.3t.2 1m28.5-6.55q-.4.75-1 1-.7-.25-1-.65 0-.35.25-.7.3-.5.75-.65.65.3 1 1m7.55 1.25q0 .05.2.3.15.25.15 1l-.25.95q-.6.35-1.25.5-1.5-1.3-1.5-1.4 0-.75.4-1.2.7-.7 2.25-.15M625 157.95q.65.3 1 1-.4.75-1 1-.7-.25-1-.65 0-.35.25-.7.3-.5.75-.65m-11.5-1.5q-.65-.25-1-.65.45-.65.85-.9.2-.1.75-.2l.4.75q-.3.7-1 1m-3 8.8q.45-.65.8-.85.2-.1.8-.2l.4.75q-.35.75-1 1-.65-.25-1-.7m9.5 28.25q0-2.25 2.55-1.4 0 .05.25.3.2.2.2.95l-.25 1q-.7.35-1.25.5-1.5-1.2-1.5-1.35M447.8 20.25q0-.4.25-.5.25 0 .25-.05.4.2.5.5-.05.35-.5.5-.25 0-.35-.05-.15-.05-.15-.4m4 6.2q-.05.35-.5.5-.25 0-.35-.05-.15-.05-.15-.45 0-.35.25-.45.25 0 .25-.05.45.2.5.5m10.1 18.5q0 .05.2.3t.2 1l-.25.95q-.65.35-1.25.5-1.5-1.3-1.5-1.4 0-.7.5-1.2.7-.7 2.1-.15M409.4 17.7q.3.15.5.5-.15.4-.5.5-.3 0-.4-.05-.1-.05-.1-.45 0-.35.25-.45.15-.05.25-.05m-3.35 18.75q0 .05.2.3.15.25.15 1l-.25.95q-.6.35-1.15.5-1.5-1.3-1.5-1.4 0-2.15 2.55-1.35m1.75 22.15l.75-.25.35.75q-.15.7-1 1-.6-.25-1-.6.45-.65.9-.9m-6.65-40.15q0-.35.25-.45.15-.05.25-.05.4.2.5.5-.05.4-.5.5-.25 0-.35-.05-.15-.05-.15-.45m1.9-2.05q-.15-.05-.15-.4 0-.4.25-.5.15 0 .25-.05.4.15.5.5-.05.4-.5.5-.25 0-.35-.05m-23.05.3q0-.55.5-.75.35.2.5.5-.15.35-.5.5-.35-.1-.5-.25m-3 7.85h.75l.25.4q-.1.25-.5.5l-.5-.25v-.65m3 8.65q-.1.3-.6.65-.55.35-.9.35-.65-.25-1-.65.85-1.35 1.5-1.35.75.3 1 1m12.3 15.45q.2-.1.8-.2l.4.75q-.35.75-1 1-.65-.25-1-.7.45-.65.8-.85M332.55 20.2l-.5-.25q.45-.75.75-.75.45.2.5.5-.05.2-.3.35-.25.15-.45.15m-.2 18.5q-.6.35-1.25.5-1.5-1.3-1.5-1.4 0-.75.4-1.2.7-.7 2.25-.15 0 .05.2.3.15.25.15 1l-.25.95m19.2-3q-.65-.25-1-.65.65-.9 1.6-1.1l.4.75q-.3.7-1 1m5.4 16.4q.65-.75 2.2-.15 0 .05.2.25.2.25.2 1l-.25.9q-.65.4-1.25.5-1.5-1.25-1.5-1.35 0-.75.4-1.15m-3.3 4.25l.4.75q-.25.7-1 1-.65-.25-1-.6.45-.65.9-.9.1-.05.7-.25M346.9 66.6q.2-.1.85-.25l.15.25q.1.4.15.85-.3.4-1 .65-.55-.25-1-.65.45-.65.85-.85m-3.35 11.6q0-.7.45-1.15.75-.75 2.25-.25 0 .1.15.35.15.2.15.95l-.25.95q-.55.4-1.25.5-1.5-1.25-1.5-1.35m-15.3 9.1q0 .1.2.35.15.2.15.95l-.25.95q-.6.4-1.25.5-1.5-1.25-1.5-1.35 0-.75.4-1.15.65-.75 2.25-.25m1.05 6.75q.45.2.5.5-.1.4-.5.5-.3-.1-.5-.35 0-.4.5-.65m10.25-1q-.3-.1-.5-.3 0-.45.5-.7.45.2.5.5-.1.35-.5.5M364 75.6q-.6-.25-1-.65.45-.65.85-.85.15-.1.8-.25l.15.25q.15.4.2.85-.35.4-1 .65m14-24.9q-.35.75-1 1-.65-.25-1-.7.45-.65.8-.85.2-.1.8-.2l.4.75m-6.7 15.9q.15.4.2.85-.35.4-1 .65-.6-.25-1-.65.45-.65.85-.85.15-.1.8-.25l.15.25m-5.45 2q.15-.1.8-.25l.15.25q.15.4.2.85-.35.4-1 .65-.6-.25-1-.65.45-.65.85-.85M377 80.55q-.65-.25-1-.6.4-.65.85-.9l.75-.25.4.75q-.25.7-1 1m9.1.75l.4.75q-.25.7-1 1-.65-.25-1-.6.4-.65.85-.9l.75-.25m17.55 30.4q0-.35.5-.7.45.25.5.5-.1.3-.5.5l-.5-.3m-27.9-1.25q0-.4.5-.7.4.35.5.5-.2.45-.5.5-.35-.05-.5-.3m13.75 37q-.3.7-1 1-.65-.25-1-.65.45-.65.85-.9.2-.1.75-.2l.4.75m14-1q.65.3 1 1-.4.75-1 1-.7-.25-1-.65 0-.35.25-.7.3-.5.75-.65m-56.25-39.95h-.4q-.1-.1-.1-.5 0-.35.25-.45.15 0 .25-.05l.5.5q-.2.45-.5.5m.5 2.5q-.2.45-.5.5-.35-.05-.5-.3 0-.4.5-.7.4.35.5.5m-15.15-1.5q-.6-.25-1-.55.65-.95 1.65-1.2l.35.75q-.15.65-1 1m1 85.45q0-.75.4-1.15.65-.75 2.25-.25 0 .1.2.35.15.2.15.95l-.25.95q-.6.4-1.25.5-1.5-1.25-1.5-1.35m24.95 2.35q-.25.7-1 1-.65-.25-1-.6.45-.65.9-.9.1-.05.7-.25l.4.75M400 149.95q.65.3 1 1-.4.75-1 1-.7-.25-1-.65 0-.35.25-.7.3-.5.75-.65m-13.7 6.45q.2-.1.8-.2l.4.75q-.35.75-1 1-.65-.25-1-.7.45-.65.8-.85m-10.7-3.7q0 .05.2.3t.2 1l-.25.95q-.65.3-1.25.5-1.5-1.3-1.5-1.4 0-2.25 2.6-1.35m22.2 31.7q.167.167.2.7v.25l-.25 1q-.7.35-1.25.5-1.5-1.2-1.5-1.35 0-2.25 2.55-1.4 0 .05.25.3m16.75-73.45q0-.35.5-.7.45.3.5.5-.1.45-.5.5-.3-.05-.5-.3m.85 28.35q.65-.9 1.65-1.1l.35.75q-.3.75-1 1-.6-.25-1-.65m-3.5-6.85q-.2.7-1 1-.6-.25-1-.65.65-.9 1.65-1.1l.35.75m.15 16.25q0 .05.2.3.15.25.15 1l-.25.95q-.6.35-1.25.5-1.5-1.3-1.5-1.4 0-.75.4-1.2.7-.7 2.25-.15M426 180.45q0-.45.5-.75.5.25.5.5 0 .35-.5.5l-.5-.25m8 6.6q-.25.15-.45.15l-.5-.25q.45-.75.75-.75.45.2.5.5-.05.2-.3.35m48-3.6q-.15.35-.5.5-.35-.1-.5-.25 0-.55.5-.75.35.2.5.5m-1.6 17.4q-.55.35-.9.35-.65-.25-1-.65.85-1.35 1.5-1.35.75.3 1 1-.1.3-.6.65M477 218q.45-.65.8-.85.2-.1.8-.2l.4.75q-.35.75-1 1-.65-.25-1-.7m-23.45-16.3q-.3.7-1 1-.65-.25-1-.65.65-.9 1.6-1.1l.4.75m6.75 19.4q-.65.4-1.25.5-1.5-1.25-1.5-1.35 0-.75.4-1.15.65-.75 2.2-.15 0 .05.2.25.2.25.2 1l-.25.9m-6.35 2.5q.1-.05.7-.25l.4.75q-.25.7-1 1-.65-.25-1-.6.45-.65.9-.9m-6.9 10.85q.45-.65.85-.85.2-.1.85-.25l.15.25q.1.4.15.85-.3.4-1 .65-.55-.25-1-.65m.2 9.35q0 .1.15.35.15.2.15.95l-.25.95q-.55.4-1.25.5-1.5-1.25-1.5-1.35 0-.7.45-1.15.75-.75 2.25-.25m17.6-2.7q.15-.1.8-.25l.15.25q.15.4.2.85-.35.4-1 .65-.6-.25-1-.65.45-.65.85-.85m6.5-7.5q.15-.1.8-.25l.15.25q.15.4.2.85-.35.4-1 .65-.6-.25-1-.65.45-.65.85-.85m-4.5 2q.15-.1.8-.25l.15.25q.15.4.2.85-.35.4-1 .65-.6-.25-1-.65.45-.65.85-.85M477 246.95q.4-.65.85-.9l.75-.25.4.75q-.25.7-1 1-.65-.25-1-.6m-43.65-41.25q-.6.35-1.25.5-1.5-1.3-1.5-1.4 0-.75.4-1.2.7-.7 2.25-.15 0 .05.2.3.15.25.15 1l-.25.95m-9.1 8.75q0 .05.2.25.15.25.15 1l-.25 1q-.6.3-1.25.5-1.5-1.3-1.5-1.4 0-.8.4-1.25.65-.7 2.25-.1m-11.95 8.75q.2-.1.75-.2l.35.75q-.2.7-1 1-.6-.25-1-.65.45-.65.9-.9m-.9 22.5q-.6-.25-1-.65.6-.95 1.65-1.1l.35.75q-.2.7-1 1m7 1q-.2.5-.35.65-.35.35-1.15.35l-1.1-.25q-.4.5-.4-.75 0-.8.65-.95.35-.05 1.35-.05.75.3 1 1m21.65 13.05q0-.45.5-.7.45.2.5.5-.1.35-.5.5-.3-.1-.5-.3m-10.8-5.45q0 .1.2.35.15.2.15.95l-.25.95q-.6.4-1.25.5-1.5-1.25-1.5-1.35 0-.75.4-1.15.65-.75 2.25-.25m1.55 7.25q-.1.4-.5.5-.3-.1-.5-.35 0-.4.5-.65.45.2.5.5m-18.9 12.8q-.35.5-.5.6l-.75-.75q.6-.6 1-.45 0 .35.25.6m21.7.15q-.6-.25-1-.55.65-.95 1.65-1.2l.35.75q-.15.65-1 1m43.15 2.95q0-.4.5-.7.4.35.5.5-.2.45-.5.5-.35-.05-.5-.3M389 214.05q1.5-.5 1.5 1.5v.75q-.1.2-.15.4-.6.3-1.35.55-1.05-.75-1.25-1.05-.25-.3-.25-.7 0-.95 1.5-1.45m-35.95.2q-.65-.25-1-.55.55-.95 1.6-1.2l.4.75q-.2.7-1 1m5.9 44.9q.15-.1.7-.2l.4.75q-.3.7-1 1-.65-.25-1-.65.45-.65.9-.9m3.8 5.3q-.35-.15-.5-.35.25-.35.8-.55l.2.4q-.25.4-.5.5m-3.5 3.4q0-.1.15-.35.2-.25.35-.3.5.15.5.65-.2.2-.5.35l-.5-.35m-21.75 15.7q.7-.75 2.25-.2 0 .1.15.35.15.25.15 1l-.25.9q-.55.4-1.25.5-1.45-1.25-1.45-1.35 0-.75.4-1.2m-11.7-5.25v-.55h.85l.15.45q-.15.3-.5.5l-.5-.4m26.75 3.2q.45-.65.9-.9.1-.05.7-.25l.4.75q-.25.7-1 1-.65-.25-1-.6m1.9 6.55q.65-.75 2.2-.2 0 .1.2.35.2.25.2 1l-.25.9q-.65.35-1.25.5-1.5-1.25-1.5-1.35 0-.75.4-1.2m26.05-15.2v-.6h.75l.25.45-.5.5-.5-.35m-15 4.2q0-.7.05-.75.1-.1.2-.35 1.35 0 1.9.15 1.1.3 1.35 1.35l-.1 1.05-.3.3q-.35.3-1.1.3-.95 0-1.55-.95-.45-.7-.45-1.1m28.1 6.8q0 .1.2.35.2.25.2 1l-.25.9q-.65.4-1.25.5-1.5-1.2-1.5-1.35 0-2.25 2.6-1.4m-2.5 12.25l-.5-.3v-.6h.8l.2.6-.5.3m-5.1 4.35l.25.4-.5.5q-.4-.15-.5-.35v-.55h.75m-1.25-1l.25.4q-.2.35-.5.5-.35-.15-.5-.35v-.55h.75m-1.75-.1q-.35-.15-.5-.35v-.55h.75l.25.4q-.2.35-.5.5m94 21.6v.05l-.25.95q-.65.3-1.25.5-1.5-1.3-1.5-1.4v-.1q.06-2.13 2.6-1.25 0 .05.2.3.193.242.2.95M410.9 302v-.55h.85l.15.4q-.25.4-.5.5-.35-.15-.5-.35m25.2 59.3q-1.5-1.25-1.5-1.35 0-.75.4-1.15.65-.75 2.25-.25 0 .1.2.35.15.2.15.95l-.25.95q-.6.4-1.25.5m22.35.5q.1-.05.7-.25l.4.75q-.25.7-1 1-.65-.25-1-.6.45-.65.9-.9m-5.4 18.9q.55-.95 1.6-1.2l.4.75q-.2.7-1 1-.65-.25-1-.55M630.4 209.05q.4.2.5.5-.1.4-.5.5-.3-.1-.5-.3 0-.45.5-.7m6.5 4.5q-.2.4-.5.5-.35-.1-.5-.3.3-.45.85-.55l.15.35m-2.25 5.9q.3-.4.85-.5l.15.35q-.3.45-.5.5-.35-.1-.5-.35m-19.3 5.25q-.6.3-1.35.55-1.05-.75-1.25-1.05-.25-.3-.25-.7 0-.95 1.5-1.45t1.5 1.5v.75q-.1.2-.15.4m22.7 6.3l.35.75q-.2.7-1 1-.6-.25-1-.65.45-.65.9-.9.2-.1.75-.2m-55.6-28.2q.1-.05.7-.25l.4.75q-.25.7-1 1-.65-.25-1-.6.45-.65.9-.9m-3.8 17.7l.4.75q-.2.7-1 1-.65-.25-1-.55.55-.95 1.6-1.2m8.6 51.6q.25-.35.8-.55l.2.4q-.25.4-.5.5-.35-.15-.5-.35m-3.2-3.4q-.65-.25-1-.65.45-.65.9-.9.15-.1.7-.2l.4.75q-.3.7-1 1m.7 7.5l-.5-.35q0-.1.15-.35.2-.25.35-.3.5.15.5.65-.2.2-.5.35m21.25 5l-.5-.35v-.6h.75l.25.45-.5.5m-15.25 2.75q1.35 0 1.9.15 1.1.3 1.35 1.35l-.1 1.05-.3.3q-.35.3-1.1.3-.95 0-1.55-.95-.45-.7-.45-1.1 0-.7.05-.75.1-.1.2-.35m46.65-31.25q-.2.7-1 1-.6-.25-1-.65.6-.95 1.65-1.1l.35.75M616 293.25q0-2.25 2.6-1.4 0 .1.2.35.2.25.2 1l-.25.9q-.65.4-1.25.5-1.5-1.2-1.5-1.35m20.9-10.9q-.35.5-.5.6l-.75-.75q.6-.6 1-.45 0 .35.25.6M559 199.8q.65-.75 2.25-.25 0 .1.2.35.15.2.15.95l-.25.95q-.6.4-1.25.5-1.5-1.25-1.5-1.35 0-.75.4-1.15m-51.95 3.65q0 .05.2.3.15.25.15 1l-.25.95q-.6.35-1.15.5-1.5-1.3-1.5-1.4 0-2.15 2.55-1.35M494.5 216.2q-.35.75-1 1-.65-.25-1-.7.45-.65.8-.85.2-.1.8-.2l.4.75m13.4 10.3q.45-.65.9-.9l.75-.25.35.75q-.15.7-1 1-.6-.25-1-.6m-20.4 22.55q-.25.7-1 1-.65-.25-1-.6.4-.65.85-.9l.75-.25.4.75M505.15 279l-.5-.3q0-.35.5-.7.45.25.5.5-.1.3-.5.5m11.4-1.25q-.1.45-.5.5-.3-.05-.5-.3 0-.35.5-.7.45.3.5.5m26.05-16.2q.65-.9 1.65-1.1l.35.75q-.2.7-1 1-.6-.25-1-.65m9.05 24.2l.15.45q-.15.3-.5.5l-.5-.4v-.55h.85m10.85 5.8q.7-.75 2.25-.2 0 .1.15.35.15.25.15 1l-.25.9q-.55.4-1.25.5-1.45-1.25-1.45-1.35 0-.75.4-1.2m-44.45 13.65l.35.75q-.3.75-1 1-.6-.25-1-.65.65-.9 1.65-1.1m-7.15-5.4q.65-.9 1.65-1.1l.35.75q-.2.7-1 1-.6-.25-1-.65m-.5 17.25q0-.75.4-1.2.7-.7 2.25-.15 0 .05.2.3.15.25.15 1l-.25.95q-.6.35-1.25.5-1.5-1.3-1.5-1.4m-20.9-1.6q-.65-.25-1-.65.45-.65.85-.9.2-.1.75-.2l.4.75q-.3.7-1 1m14.25-1.35q.3-.5.75-.65.65.3 1 1-.4.75-1 1-.7-.25-1-.65 0-.35.25-.7m-3.75 4.2q0-.35.25-.7.3-.5.75-.65.65.3 1 1-.4.75-1 1-.7-.25-1-.65m-13.5 5.95q.45-.65.8-.85.2-.1.8-.2l.4.75q-.35.75-1 1-.65-.25-1-.7m19.9 43.8q.4.2.5.5-.1.4-.5.5-.3-.1-.5-.3 0-.45.5-.7m-8.4-14.4q-.264.136-.5.2-1.5-1.2-1.5-1.35 0-1.993 2-1.55.258.053.55.15 0 .05.25.3.2.2.2.95l-.25 1q-.4.2-.75.3m13.65 24.65q-.3.45-.5.5-.35-.1-.5-.35.3-.4.85-.5l.15.35m.25-5.55q.3-.45.85-.55l.15.35q-.2.4-.5.5-.35-.1-.5-.3m124-63.3h.85l.15.4q-.25.4-.5.5-.35-.15-.5-.35v-.55m-26.9-2h.75l.25.4q-.2.35-.5.5-.35-.15-.5-.35v-.55m-.5-.6q-.2.35-.5.5-.35-.15-.5-.35v-.55h.75l.25.4m2.25 2.5q-.4-.15-.5-.35v-.55h.75l.25.4-.5.5m5.35-5.25l-.5-.3v-.6h.8l.2.6-.5.3m9.65 66.35q0-.35.25-.7.3-.5.75-.65.65.3 1 1-.4.65-1 .95-.7-.25-1-.6M314.1 19.7q0-.5.5-.75.45.2.5.75l-.5.25-.5-.25m-28.3 13.25q0 .05.25.3.2.25.2 1l-.25.95q-.7.35-1.25.5-1.5-1.3-1.5-1.4 0-2.15 2.55-1.35m31.3 3.25q-.6-.25-1-.65.9-1.35 1.5-1.35.85.3 1 1-.1.25-.6.65-.55.35-.9.35m6.15 11.25q0 .05.2.25.15.25.15 1l-.25 1q-.6.3-1.25.5-1.5-1.3-1.5-1.4 0-.8.4-1.25.65-.7 2.25-.1m-55.4-21q0 .05.2.3t.2 1l-.25.95q-.65.35-1.25.5-1.5-1.3-1.5-1.4 0-2.25 2.6-1.35m5.4 45.15q-.3.7-1 1-.65-.25-1-.65.45-.65.8-.85.15-.1.8-.25l.4.75m9-8.5q-.7-.25-1-.6 0-1.05 1-1.4.6.25 1 1-.35.7-1 1m-6 4.35q.45-.65.8-.85.15-.1.8-.25l.4.75q-.3.7-1 1-.65-.25-1-.65M244.9 86q0-.4.25-.5.15 0 .25-.05.4.15.5.5-.05.4-.5.5-.25 0-.35-.05-.15-.05-.15-.4m7 2.2q-.15.4-.5.5-.3 0-.4-.05-.1-.05-.1-.45 0-.35.25-.45.15-.05.25-.05.3.15.5.5m-8.5-.2q.15-.05.25-.05.4.2.5.5-.05.4-.5.5-.25 0-.35-.05-.15-.05-.15-.45 0-.35.25-.45m27.45 9q.113-.263.3-.45.65-.75 2.2-.25 0 .1.2.35.103.103.15.35.05.235.05.6l-.25.9q-.65.45-1.25.5-.85-.65-1.25-1.05l-.25-.25q0-.4.1-.7m-89.3-19.05v-.6h.8l.2.4q-.05.3-.5.5l-.5-.3m-6.5 2.8q.15 0 .25-.05.4.2.5.5-.05.35-.5.5-.25 0-.35-.05-.15-.05-.15-.4 0-.4.25-.5M168 83.2q0 .35-.5.5l-.5-.25q0-.45.5-.75.5.25.5.5m7 6.85q-.25.15-.45.15l-.5-.25q.45-.75.75-.75.45.2.5.5-.05.2-.3.35m47.5-3.1q-.35-.1-.5-.25 0-.55.5-.75.35.2.5.5-.15.35-.5.5m-2.75 7.6l.25.4q-.1.25-.5.5l-.5-.25v-.65h.75m14.75 25.65q-.65-.25-1-.7.45-.65.8-.85.2-.1.8-.2l.4.75q-.35.75-1 1m-13.1-16.35q-.55.35-.9.35-.65-.25-1-.65.85-1.35 1.5-1.35.75.3 1 1-.1.3-.6.65m-2.6 16.3q.2-.1.8-.2l.4.75q-.35.75-1 1-.65-.25-1-.7.45-.65.8-.85m-7.3 17.3q.45-.65.85-.85.15-.1.8-.25l.15.25q.15.4.2.85-.35.4-1 .65-.6-.25-1-.65m-2.85.9l.15.25q.15.4.2.85-.35.4-1 .65-.6-.25-1-.65.45-.65.85-.85.15-.1.8-.25m-2.8 5.75q.15-.1.8-.25l.15.25q.15.4.2.85-.35.4-1 .65-.6-.25-1-.65.45-.65.85-.85m-12.3-38.4q-.65-.25-1-.65.65-.9 1.6-1.1l.4.75q-.3.7-1 1m7.6 16.25q0 .05.2.25.2.25.2 1l-.25.9q-.65.4-1.25.5-1.5-1.25-1.5-1.35 0-.75.4-1.15.65-.75 2.2-.15m-26.8-13.25q-.6.35-1.25.5-1.5-1.3-1.5-1.4 0-.75.4-1.2.7-.7 2.25-.15 0 .05.2.3.15.25.15 1l-.25.95m-8.75 10l-.25 1q-.6.3-1.25.5-1.5-1.3-1.5-1.4 0-.8.4-1.25.65-.7 2.25-.1 0 .05.2.25.15.25.15 1m30.45 8.4q-.25.7-1 1-.65-.25-1-.6.45-.65.9-.9.1-.05.7-.25l.4.75m-6.15 9.5q.1.4.15.85-.3.4-1 .65-.55-.25-1-.65.45-.65.85-.85.2-.1.85-.25l.15.25m-4.35 11.6q0-.7.45-1.15.75-.75 2.25-.25 0 .1.15.35.15.2.15.95l-.25.95q-.55.4-1.25.5-1.5-1.25-1.5-1.35m-17.95 10.5q0-.75.4-1.15.65-.75 2.25-.25 0 .1.2.35.15.2.15.95l-.25.95q-.6.4-1.25.5-1.5-1.25-1.5-1.35m3.7 5.35q.45.2.5.5-.1.4-.5.5-.3-.1-.5-.35 0-.4.5-.65m10.75-1.5q-.1.35-.5.5-.3-.1-.5-.3 0-.45.5-.7.45.2.5.5m-6.45 13.95q-.15.65-1 1-.6-.25-1-.55.65-.95 1.65-1.2l.35.75m52.5-25.2l.4.75q-.25.7-1 1-.65-.25-1-.6.4-.65.85-.9l.75-.25m-9.1-.75q-.65-.25-1-.6.4-.65.85-.9l.75-.25.4.75q-.25.7-1 1m-.75 30.2q-.35-.05-.5-.3 0-.4.5-.7.4.35.5.5-.2.45-.5.5m27.25-72.95q0-2.15 2.55-1.35 0 .05.2.3.15.25.15 1l-.25.95q-.6.35-1.15.5-1.5-1.3-1.5-1.4m5.05 20.55l.35.75q-.15.7-1 1-.6-.25-1-.6.45-.65.9-.9l.75-.25m6.5 52.9q-.3-.05-.5-.3 0-.35.5-.7.45.3.5.5-.1.45-.5.5m-10.9.75l-.5-.3q0-.35.5-.7.45.25.5.5-.1.3-.5.5M125.6 29.85q-.65-.25-1-.65.45-.65.9-.9.15-.1.7-.2l.4.75q-.3.7-1 1m.2 7.15q0-.1.15-.35.2-.25.35-.3.5.15.5.65-.2.2-.5.35l-.5-.35m3.8-4.3l.2.4q-.25.4-.5.5-.35-.15-.5-.35.25-.35.8-.55m2.5 12.75q.1-.1.2-.35 1.35 0 1.9.15 1.1.3 1.35 1.35l-.1 1.05-.3.3q-.35.3-1.1.3-.95 0-1.55-.95-.45-.7-.45-1.1 0-.7.05-.75m14.95-4.05h.75l.25.45-.5.5-.5-.35v-.6M113.9 5.1h2.8q.05.25.05.65l-.25.9q-.65.45-1.25.5-.85-.65-1.25-1.05l-.25-.25q0-.45.15-.75M92.35 46.9h.85l.15.45q-.15.3-.5.5l-.5-.4v-.55m28.35 2.6l.4.75q-.25.7-1 1-.65-.25-1-.6.45-.65.9-.9.1-.05.7-.25m-.1 8.9q0-.75.4-1.2.65-.75 2.2-.2 0 .1.2.35.2.25.2 1l-.25.9q-.65.35-1.25.5-1.5-1.25-1.5-1.35m-14.25-3.65q-.55.4-1.25.5-1.45-1.25-1.45-1.35 0-.75.4-1.2.7-.75 2.25-.2 0 .1.15.35.15.25.15 1l-.25.9M81.8 78.1l.2.6-.5.3-.5-.3q.25-.4.8-.6m-.8 3.1q.5.25.5.5 0 .35-.5.5l-.5-.25q0-.45.5-.75m29.25 16.55l-.25.95q-.65.35-1.25.5-1.5-1.3-1.5-1.4 0-2.25 2.6-1.35 0 .05.2.3t.2 1m50.1-44.4q.2.25.2 1l-.25.9q-.65.4-1.25.5-1.5-1.2-1.5-1.35 0-2.25 2.6-1.4 0 .1.2.35m-11.3 14.25h.75l.25.4q-.2.35-.5.5-.35-.15-.5-.35v-.55m1.5 1h.75l.25.4q-.2.35-.5.5-.35-.15-.5-.35v-.55m1.25 1.5v-.5h.75l.25.4-.1.1h-.9m5.35-5.15v-.6h.8l.2.6-.5.3-.5-.3M132.9 77.1h.85l.15.4q-.1.3-.5.5l-.5-.3v-.6m1.75 5.6q-.25 0-.35-.05-.15-.05-.15-.4 0-.4.25-.5.15 0 .25-.05.4.15.5.5-.05.4-.5.5m1.5 3.25q.3.15.5.5-.15.4-.5.5-.3 0-.4-.05-.1-.05-.1-.45 0-.35.25-.45.15-.05.25-.05M139 88.9q-.1-.05-.1-.45 0-.35.25-.45.15-.05.25-.05.3.15.5.5-.15.4-.5.5-.3 0-.4-.05m22.6-6.65q.15 0 .25-.05.25.15.5.5-.15.4-.5.5-.3 0-.4-.05-.1 0-.1-.4t.25-.5m-13 7.45q0-.5.5-.75.45.2.5.75l-.5.25-.5-.25m8.5 0l-.5.25-.5-.25q0-.5.5-.75.45.2.5.75M69.35 48.6l.2.4q-.05.3-.5.5l-.5-.3v-.6h.8M36.6 60.95l-.5.25-.5-.25q0-.5.5-.75.45.2.5.75m25.7-8q-.25 0-.35-.05-.15-.05-.15-.4 0-.4.25-.5.15 0 .25-.05.4.2.5.5-.05.35-.5.5m-.5 7.5q.45.2.5.5-.05.2-.3.35-.25.15-.45.15l-.5-.25q.45-.75.75-.75M54 54.7q0-.45.5-.75.5.25.5.5 0 .35-.5.5l-.5-.25m-5.15-1.25q.25.15.5.5-.15.4-.5.5-.3 0-.4-.05-.1 0-.1-.4t.25-.5q.15 0 .25-.05m-5.75 7.5q0-.5.5-.75.45.2.5.75l-.5.25-.5-.25M77 81.7q.5.2.5.5 0 .35-.5.5l-.5-.25q0-.45.5-.75m-11.7 0q.4.2.5.5-.05.35-.5.5-.25 0-.35-.05-.15-.05-.15-.4 0-.4.25-.5.25 0 .25-.05m2.5 6.75q0-.35.25-.45.25 0 .25-.05.45.2.5.5-.05.35-.5.5-.25 0-.35-.05-.15-.05-.15-.45m11.3 18.8q.2.25.2 1l-.25.95q-.65.35-1.25.5-1.5-1.3-1.5-1.4 0-.7.5-1.2.7-.7 2.1-.15 0 .05.2.3M42.8 141.1q-.25.1-.5.15-1.5-1.2-1.5-1.35 0-2 2-1.55.25.05.55.15 0 .05.25.3.2.2.2.95l-.25 1q-.4.2-.75.35m-9.4 29.25q-.1-.2-.1-.45 0-.3.15-.55.3-.55 1.35-.9 1.25-.4 1.45.9.05.25.05.6v.4h-2.9m17.3-14.2q0-.45.5-.7.4.2.5.5-.1.4-.5.5-.3-.1-.5-.3m6.5 4.3q-.35-.1-.5-.3.3-.45.85-.55l.15.35q-.2.4-.5.5m-1.25 5.75q-.35-.1-.5-.35.3-.4.85-.5l.15.35q-.3.45-.5.5m103.65-62q.85.3 1 1-.1.25-.6.65-.55.35-.9.35-.6-.25-1-.65.9-1.35 1.5-1.35m-32.85 1.5q-1.5-1.3-1.5-1.4 0-2.15 2.55-1.35 0 .05.25.3.2.25.2 1l-.25.95q-.7.35-1.25.5m-2.5 27.4q-.7-.25-1-.6 0-1.05 1-1.4.6.25 1 1-.35.7-1 1m-20-33.55l.25.4q-.35.5-.75.5-.35-.15-.5-.35v-.55h1m15 38.55q-.65-.25-1-.65.45-.65.8-.85.15-.1.8-.25l.4.75q-.3.7-1 1m-5.2 3q.15-.1.8-.25l.4.75q-.3.7-1 1-.65-.25-1-.65.45-.65.8-.85m1.5 25.55q.092.092.15.3.05.245.05.65l-.25.9q-.65.45-1.25.5-.85-.65-1.25-1.05l-.25-.25q0-.433.1-.75.13-.23.3-.4.65-.75 2.2-.25 0 .1.2.35m10.05 24.05q-.3.7-1 1-.65-.25-1-.65.45-.65.9-.9.15-.1.7-.2l.4.75m3 3.85l.2.4q-.25.4-.5.5-.35-.15-.5-.35.25-.35.8-.55m17.45 9.3v-.6h.75l.25.45-.5.5-.5-.35m10.5 12.4q0-2.25 2.6-1.4 0 .1.2.35.2.25.2 1l-.25.9q-.65.4-1.25.5-1.5-1.2-1.5-1.35m-22-7.8l-.1 1.05-.3.3q-.35.3-1.1.3-.95 0-1.55-.95-.45-.7-.45-1.1 0-.7.05-.75.1-.1.2-.35 1.35 0 1.9.15 1.1.3 1.35 1.35m-9.75-9.6q0-.1.15-.35.2-.25.35-.3.5.15.5.65-.2.2-.5.35l-.5-.35m-2.2 21.35l-.25.9q-.65.35-1.25.5-1.5-1.25-1.5-1.35 0-.75.4-1.2.65-.75 2.2-.2 0 .1.2.35.2.25.2 1m33.55 6.6v-.6h.8l.2.6-.5.3-.5-.3m-5.35 5.2v-.55h.75l.25.4-.5.5q-.4-.15-.5-.35m-.25-1.15q-.2.35-.5.5-.35-.15-.5-.35v-.55h.75l.25.4m-1.5-1q-.2.35-.5.5-.35-.15-.5-.35v-.55h.75l.25.4m-43.7-13.25q-.55.4-1.25.5-1.45-1.25-1.45-1.35 0-.75.4-1.2.7-.75 2.25-.2 0 .1.15.35.15.25.15 1l-.25.9m14.75-4.5q-.25.7-1 1-.65-.25-1-.6.45-.65.9-.9.1-.05.7-.25l.4.75m-27.9-3.35l.15.45q-.15.3-.5.5l-.5-.4v-.55h.85m-7.65 47.6q0-.75.4-1.15.65-.75 2.2-.15 0 .05.2.25.2.25.2 1l-.25.9q-.65.4-1.25.5-1.5-1.25-1.5-1.35m-2.5 3.85q-.25.7-1 1-.65-.25-1-.6.45-.65.9-.9.1-.05.7-.25l.4.75m-13.5-49.35q-.05.3-.5.5l-.5-.3v-.6h.8l.2.4m-7.75 3.5q0-.4.25-.5.15 0 .25-.05.4.2.5.5-.05.35-.5.5-.25 0-.35-.05-.15-.05-.15-.4m-12.95.95q.25.15.5.5-.15.4-.5.5-.3 0-.4-.05-.1 0-.1-.4t.25-.5q.15 0 .25-.05m5.65 1.5l-.5-.25q0-.45.5-.75.5.25.5.5 0 .35-.5.5m7.05 6.5l-.5-.25q.45-.75.75-.75.45.2.5.5-.05.2-.3.35-.25.15-.45.15m-17.95-.25l-.5-.25q0-.5.5-.75.45.2.5.75l-.5.25m4 15.25q-.1.25-.6.65-.55.35-.9.35-.6-.25-1-.65.9-1.35 1.5-1.35.85.3 1 1m13.85 1.55q.15.25.15 1l-.25.95q-.6.35-1.25.5-1.5-1.3-1.5-1.4 0-.75.4-1.2.7-.7 2.25-.15 0 .05.2.3m19.1-1.05q-.65-.25-1-.65.65-.9 1.6-1.1l.4.75q-.3.7-1 1M35.1 222.05q.45.2.5.75l-.5.25-.5-.25q0-.5.5-.75m40.8 47.65q.1.4.15.85-.3.4-1 .65-.55-.25-1-.65.45-.65.85-.85.2-.1.85-.25l.15.25m-24.65-19.15q0 .05.2.25.15.25.15 1l-.25 1q-.6.3-1.25.5-1.5-1.3-1.5-1.4 0-.8.4-1.25.65-.7 2.25-.1m5.2 40.2q.15.2.15.95l-.25.95q-.6.4-1.25.5-1.5-1.25-1.5-1.35 0-.75.4-1.15.65-.75 2.25-.25 0 .1.2.35m16.6-8.1q-1.5-1.25-1.5-1.35 0-.7.45-1.15.75-.75 2.25-.25 0 .1.15.35.15.2.15.95l-.25.95q-.55.4-1.25.5m-6 13.2q0-.45.5-.7.45.2.5.5-.1.35-.5.5-.3-.1-.5-.3m-5.8 13l.35.75q-.15.65-1 1-.6-.25-1-.55.65-.95 1.65-1.2M56.8 297.8q0-.4.5-.65.45.2.5.5-.1.4-.5.5-.3-.1-.5-.35m-4.25 42.9l-.5.5-.5-.35v-.6h.75l.25.45m-21.8-5.45q0-.05.05-.05h.05q-.052.002-.1.05m-.05-8.3l.4.75q-.3.7-1 1-.65-.25-1-.65.45-.65.9-.9.15-.1.7-.2m-5.1 22.15q-.25.7-1 1-.65-.25-1-.6.45-.65.9-.9.1-.05.7-.25l.4.75m135-24.9q-.6-.25-1-.65.65-.9 1.65-1.1l.35.75q-.2.7-1 1M128 369.75q.3-.5.75-.65.65.3 1 1-.4.65-1 .95-.7-.25-1-.6 0-.35.25-.7M253.55 201.7l.35.75q-.2.7-1 1-.6-.25-1-.65.65-.9 1.65-1.1m5.5 6.5l.35.75q-.3.75-1 1-.6-.25-1-.65.65-.9 1.65-1.1m-13.55 10.25q-.7-.25-1-.65 0-.35.25-.7.3-.5.75-.65.65.3 1 1-.4.75-1 1m7.4 3q-1.5-1.3-1.5-1.4 0-.75.4-1.2.7-.7 2.25-.15 0 .05.2.3.15.25.15 1l-.25.95q-.6.35-1.25.5m-5.5 50.6q-.3-.1-.5-.3 0-.45.5-.7.4.2.5.5-.1.4-.5.5m6.35 3.15l.15.35q-.2.4-.5.5-.35-.1-.5-.3.3-.45.85-.55m-1.6 6.6q-.35-.1-.5-.35.3-.4.85-.5l.15.35q-.3.45-.5.5m2.9 11.2l.35.75q-.2.7-1 1-.6-.25-1-.65.45-.65.9-.9.2-.1.75-.2m62.55-39.45q.65-.9 1.65-1.1l.35.75q-.2.7-1 1-.6-.25-1-.65m-86.1-36.1q-.3.7-1 1-.65-.25-1-.65.45-.65.85-.9.2-.1.75-.2l.4.75m9.5 3.85q0-.35.25-.7.3-.5.75-.65.65.3 1 1-.4.75-1 1-.7-.25-1-.65m-23.25 3.65q-.65.3-1.25.5-1.5-1.3-1.5-1.4 0-2.25 2.6-1.35 0 .05.2.3t.2 1l-.25.95m11.75 2q-.35.75-1 1-.65-.25-1-.7.45-.65.8-.85.2-.1.8-.2l.4.75m-52.05-21.6q-.35.5-.5.6l-.75-.75q.6-.6 1-.45 0 .35.25.6m0 27.5q-.25.4-.5.5-.35-.15-.5-.35v-.55h.85l.15.4m23.1 32.45q-.25.7-1 1-.65-.25-1-.6.45-.65.9-.9.1-.05.7-.25l.4.75m-22.2-1.5q-.6.4-1.25.5-1.5-1.25-1.5-1.35 0-.75.4-1.15.65-.75 2.25-.25 0 .1.2.35.15.2.15.95l-.25.95m17.7 19.45q-.2.7-1 1-.65-.25-1-.55.55-.95 1.6-1.2l.4.75m43.5-29.15q0 .05.25.3.2.2.2.95l-.25 1q-.7.35-1.25.5-1.5-1.2-1.5-1.35 0-2.25 2.55-1.4m-9.8 32.1q-.25-.3-.25-.7 0-.95 1.5-1.45t1.5 1.5v.75q-.1.2-.15.4-.6.3-1.35.55-1.05-.75-1.25-1.05m-24.7 47.35l.2.4q-.25.4-.5.5-.35-.15-.5-.35.25-.35.8-.55m2.5 12.75q.1-.1.2-.35 1.35 0 1.9.15 1.1.3 1.35 1.35l-.1 1.05-.3.3q-.35.3-1.1.3-.95 0-1.55-.95-.45-.7-.45-1.1 0-.7.05-.75m14.95-3.45v-.6h.75l.25.45-.5.5-.5-.35m-22.45-12.8q.45-.65.9-.9.15-.1.7-.2l.4.75q-.3.7-1 1-.65-.25-1-.65m1.35 7.45q.2-.25.35-.3.5.15.5.65-.2.2-.5.35l-.5-.35q0-.1.15-.35m-4.95 20.55q.65-.75 2.2-.2 0 .1.2.35.2.25.2 1l-.25.9q-.65.35-1.25.5-1.5-1.25-1.5-1.35 0-.75.4-1.2m-1.9-6.55q.45-.65.9-.9.1-.05.7-.25l.4.75q-.25.7-1 1-.65-.25-1-.6m-12.75 4.1q-.55.4-1.25.5-1.45-1.25-1.45-1.35 0-.75.4-1.2.7-.75 2.25-.2 0 .1.15.35.15.25.15 1l-.25.9m-14-7.85h.85l.15.45q-.15.3-.5.5l-.5-.4v-.55m67.95 8.35q-.65.4-1.25.5-1.5-1.2-1.5-1.35 0-2.25 2.6-1.4 0 .1.2.35.2.25.2 1l-.25.9m-3.15 9.7v-.6h.8l.2.6-.5.3-.5-.3m53.15-65.35q0-.35.25-.7.3-.5.75-.65.65.3 1 1-.4.65-1 .95-.7-.25-1-.6m-31.7 13.5l.35.75q-.2.7-1 1-.6-.25-1-.65.6-.95 1.65-1.1m3.75 3.5q-.4.5-.4-.75 0-.8.65-.95.275-.04.95-.05h.4q.75.3 1 1-.2.5-.35.65-.328.328-1.05.35h-.1l-1.1-.25m-4.4 27.5l-.75-.75q.6-.6 1-.45 0 .35.25.6-.35.5-.5.6m-.5 27.05v-.55h.85l.15.4q-.25.4-.5.5-.35-.15-.5-.35z" id="b"/></defs><use xlink:href="#a"/><use xlink:href="#b" transform="scale(1.03485 1.00014)"/></svg>