<svg id="Layer_1" data-name="Layer 1" xmlns="http://www.w3.org/2000/svg" viewBox="0 0 886.29 496.46"><defs><style>.cls-1{fill:#fff;}</style></defs><title>sapien</title><path class="cls-1" d="M423.37,303.58c-14.93-14.39-1.83-35.61-28.32-46-10.27-4-19.48-2-28.32-10.48-15-14.46-9.28-41,10.66-47.48,10.79-3.48,23.87,2.13,32.54-7.17,8.93-9.59,2-23.83,14.5-33.37C445.72,142.79,472,171,454.56,191c-7.89,9-15.09,5.74-24.7,9.07-21.84,7.55-25.21,37.14-6.21,50,14.31,9.68,33.28-1.5,44.34,18.64,16.12,29.35-21.52,57.21-44.63,34.94"/><path class="cls-1" d="M815.86,256.53H801.24l-.06-39a7.43,7.43,0,0,0-7.61-7.38c-6.6-.11-9.68,4.36-9.68,7.71v38.72H769.27V200.05c6.81.85,14.8-3.5,14.15,6.37,5.33-8.46,21-10.36,27.86-3.17,1.19,1.25,4.35,4.56,4.58,9.1v44.18Z"/><path class="cls-1" d="M530.72,203.83c.54.93-3.14,10.62-4,10.8-4.73-4.82-19.34-8-19.71-.47-.31,6.23,11,8.29,15.57,11,8.4,5,12.29,11.67,8.71,21.33-4.57,12.33-23.88,13.2-34.24,8.68a17.61,17.61,0,0,1-5.37-3.53s2.14-6.31,3.56-11.51c3.88,5.32,27.56,10.32,22.36-.9-2.59-5.6-23-8.66-24.9-18.9-4.24-22.62,23.81-25.73,38-16.51"/><path class="cls-1" d="M400,304.1c9-.9,19,6.58,20.29,15.74,2.68,18.35-16.83,29.46-31.08,17.33-12.45-10.6-5.47-31.46,10.79-33.07"/><path class="cls-1" d="M688,201v55.57H673.34V201A16.35,16.35,0,0,0,688,201"/><path class="cls-1" d="M89.62,209.16c1.94,0,5,.05,5,.05s8.61,14,12.82,20c.14-4.35,0-19.72,0-19.72l6,.05,0,30.17-4.94,0S98.33,226,95.1,220.08v19.13H89.62V209.15Z"/><path class="cls-1" d="M678.61,168.36c12.15-2,17.7,14.46,7.25,20-15.12,8.06-23.1-17.45-7.25-20"/><path class="cls-1" d="M241.26,209.16v22.32c0,5.19,11.88,5.19,11.88,0V209.16h5.48v23.23c-.06,2.57-2,4.56-4.22,5.81-4.12,2.32-11.1,2.57-14.94-.37-.88-.67-3.28-2.48-3.67-5.45V209.15h5.47Z"/><path class="cls-1" d="M144.42,211c.23.31-1.7,4.37-1.9,4.51-.46.35-9.1-4.92-10,.51-1.2,7,13.49,5.28,12.65,15.25s-12.89,10.05-19.9,6.11c1.53-9.65,6.77.27,12.14-3.59,7.48-5.37-8.43-7.82-10.54-13-4.46-11,9.19-15.39,17.57-9.78"/><polygon class="cls-1" points="175.49 209.16 175.49 213.72 168.18 213.71 168.18 239.22 161.78 239.22 161.78 213.71 154.47 213.72 154.48 209.16 175.49 209.16"/><polygon class="cls-1" points="290.59 209.16 290.59 213.72 282.37 213.71 282.37 239.22 276.89 239.22 276.89 213.71 269.57 213.72 269.58 209.16 290.59 209.16"/><polygon class="cls-1" points="224.81 209.16 224.76 213.77 216.59 213.71 216.59 239.22 211.11 239.22 211.11 213.71 203.8 213.72 203.8 209.16 224.81 209.16"/><rect class="cls-1" x="70.43" y="209.16" width="5.48" height="30.06"/><rect class="cls-1" x="187.36" y="209.16" width="5.48" height="30.06"/><path class="cls-1" d="M647.32,201.86c-5.68-4-15.56-3.72-21.52-.5-2.47,1.34-2.85,2.69-5.5,3l.07-4.37h-13.7v81.08h13.24c.64,0,1.37-23.5-.46-31a32.38,32.38,0,0,0,7.37,5.85c9.55,5.57,21.42,0,26.27-9.21,6.18-11.78,6.21-36.58-5.77-44.94M630,246.49c-11.47-1.49-11-27.41-4.79-33.37,2.57-2.45,6.47-2.78,9.78-1.73,10.26,3.26,10.1,37.07-5,35.1"/><path class="cls-1" d="M586.07,206.46c-7.26-11.78-30.29-7.76-40.62-1.85l5.08,10.91c9.19-6.24,25.58-8.66,24.16,7.3-10.73-.49-29.17,3.28-31,16-2.51,17.7,16.11,25.37,28.74,14.09,1.43-1.28,1.95-2.7,3.14-3.69,0,.87-.28,7.29.09,7.29H589.3V217.8a18.59,18.59,0,0,0-3.23-11.35M566,246.55c-6.31.56-8.64-3.37-8.27-7.84.54-6.52,11.94-6.92,17-6.79,1.3,6.42-1.34,14-8.68,14.62"/><path class="cls-1" d="M748.43,206.71a27.51,27.51,0,0,0-22.56-7.57c-28.77,3.31-31.15,59.25,3.71,59.25,4.7,0,11.68-.63,21.31-6.7-2.35-4.79-2.4-4.91-4.91-9.71-10.08,8.26-27,6.48-27-9.13h33.8s1.61-20.14-4.39-26.14m-10.23,17.94H719c-.19-18.5,22-21.18,19.18,0"/><path class="cls-1" d="M309.53,209.38c-9.35,1.56-10.83,12.26-9.73,20.19,2,14.65,23.39,13.69,25.42-.91,1.61-11.6-2.34-21.51-15.69-19.28m1.82,26c-8-1.66-7.16-19.93-1.86-21.53,1.81-.55,6-.32,7.35,1,3.63,3.4,4.23,22.57-5.49,20.55"/></svg>