<svg id="Layer_1" data-name="Layer 1" xmlns="http://www.w3.org/2000/svg" viewBox="0 0 886.29 496.46"><defs><style>.cls-1{fill:#fff;}</style></defs><title>see</title><path class="cls-1" d="M355.46,232.18q0-8.15-5.76-12.53T329,210.46a147.92,147.92,0,0,1-23.68-9.52q-23.74-12.85-23.74-34.63A33.78,33.78,0,0,1,288,146.13q6.33-8.88,18.28-13.87a69.27,69.27,0,0,1,26.78-5,62.47,62.47,0,0,1,26.62,5.43A42.29,42.29,0,0,1,377.82,148a40.32,40.32,0,0,1,6.44,22.43H355.55c0-6.38-2-11.31-6.05-14.88s-9.68-5.3-17-5.3-12.46,1.47-16.38,4.45a14.1,14.1,0,0,0-5.82,11.77c0,4.51,2.29,8.34,6.83,11.41s11.28,5.92,20.18,8.6q24.53,7.41,35.74,18.31T384.26,232c0,12.07-4.54,21.55-13.7,28.42s-21.42,10.3-36.86,10.3a71.37,71.37,0,0,1-29.33-5.88q-13.2-5.88-20.18-16.16a41.54,41.54,0,0,1-6.93-23.77H306.1q0,23.06,27.6,23c6.8,0,12.17-1.37,16-4.15a13.59,13.59,0,0,0,5.76-11.64"/><polygon class="cls-1" points="487.61 208.14 432.44 208.14 432.44 245.62 497.19 245.62 497.19 268.77 403.7 268.77 403.7 129.27 497 129.27 497 152.62 432.44 152.62 432.44 185.77 487.61 185.77 487.61 208.14"/><polygon class="cls-1" points="597.98 208.14 542.81 208.14 542.81 245.62 607.56 245.62 607.56 268.77 514.06 268.77 514.06 129.27 607.36 129.27 607.36 152.62 542.81 152.62 542.81 185.77 597.98 185.77 597.98 208.14"/><path class="cls-1" d="M248,341a4.47,4.47,0,0,0-.29-1.66,3.35,3.35,0,0,0-1-1.32,8,8,0,0,0-2-1.12,29.08,29.08,0,0,0-3.13-1.08,26.77,26.77,0,0,1-3.6-1.3,11.18,11.18,0,0,1-2.74-1.68,6.72,6.72,0,0,1-1.74-2.16,6.05,6.05,0,0,1-.61-2.78,6.64,6.64,0,0,1,.65-2.91,7,7,0,0,1,1.85-2.32,8.61,8.61,0,0,1,2.88-1.53,11.81,11.81,0,0,1,3.74-.55,11.33,11.33,0,0,1,4,.68,9.11,9.11,0,0,1,3,1.81,7.76,7.76,0,0,1,1.84,2.6,7.87,7.87,0,0,1,.62,3h-3.55a5.82,5.82,0,0,0-.36-2.08,4.43,4.43,0,0,0-1.1-1.66,5,5,0,0,0-1.84-1.09,7.91,7.91,0,0,0-2.62-.38,8.3,8.3,0,0,0-2.47.33,5.14,5.14,0,0,0-1.73.91,3.68,3.68,0,0,0-1,1.38,4.44,4.44,0,0,0-.33,1.73,3.37,3.37,0,0,0,.36,1.55,3.91,3.91,0,0,0,1.11,1.29,8,8,0,0,0,1.95,1.09,24.78,24.78,0,0,0,2.85,1,24.62,24.62,0,0,1,3.94,1.43,11.48,11.48,0,0,1,2.74,1.78,6.54,6.54,0,0,1,1.6,2.23,7.06,7.06,0,0,1,.52,2.8,6.33,6.33,0,0,1-2.55,5.23,8.94,8.94,0,0,1-3,1.45,13.4,13.4,0,0,1-3.83.51,13.76,13.76,0,0,1-2.47-.23,12,12,0,0,1-2.37-.69,10.36,10.36,0,0,1-2.1-1.14,8,8,0,0,1-1.69-1.58,7.31,7.31,0,0,1-1.13-2A7.21,7.21,0,0,1,232,340h3.56a4.81,4.81,0,0,0,.54,2.36A4.76,4.76,0,0,0,237.6,344a6,6,0,0,0,2.1.95,9.73,9.73,0,0,0,2.5.31,7,7,0,0,0,4.29-1.15A3.7,3.7,0,0,0,248,341"/><polygon class="cls-1" points="271.21 335.33 259.59 335.33 259.59 344.84 273.09 344.84 273.09 347.74 256.04 347.74 256.04 320.91 272.9 320.91 272.9 323.82 259.59 323.82 259.59 332.44 271.21 332.44 271.21 335.33"/><path class="cls-1" d="M297.22,339.22a12.47,12.47,0,0,1-.93,3.53,8.36,8.36,0,0,1-2,2.82,9,9,0,0,1-3.06,1.86,12.06,12.06,0,0,1-4.22.67,10.16,10.16,0,0,1-4.31-.89,9.39,9.39,0,0,1-3.31-2.52,11.76,11.76,0,0,1-2.12-3.91,16.38,16.38,0,0,1-.74-5.11V333a16.08,16.08,0,0,1,.76-5.11,11.33,11.33,0,0,1,2.15-3.92,9.45,9.45,0,0,1,3.4-2.52,10.8,10.8,0,0,1,4.48-.9,11.33,11.33,0,0,1,4,.66,8.41,8.41,0,0,1,4.92,4.69,12,12,0,0,1,.92,3.63h-3.56A11.92,11.92,0,0,0,293,327a5.63,5.63,0,0,0-1.17-1.92,4.88,4.88,0,0,0-1.86-1.21,7.26,7.26,0,0,0-2.65-.42,7,7,0,0,0-3.14.68,6.22,6.22,0,0,0-2.26,1.94,8.79,8.79,0,0,0-1.38,3,15.1,15.1,0,0,0-.46,3.87v2.73a15.79,15.79,0,0,0,.42,3.71,9.86,9.86,0,0,0,1.26,3,6.29,6.29,0,0,0,2.15,2,6.16,6.16,0,0,0,3.1.75,8.78,8.78,0,0,0,2.86-.41,5,5,0,0,0,1.92-1.17,5.26,5.26,0,0,0,1.19-1.88,12.23,12.23,0,0,0,.64-2.54h3.56Z"/><path class="cls-1" d="M305.59,334H311a7.07,7.07,0,0,0,2.51-.4,5.41,5.41,0,0,0,1.79-1.06A4.37,4.37,0,0,0,316.4,331a5.29,5.29,0,0,0,.36-2,6.15,6.15,0,0,0-.34-2.11,4.27,4.27,0,0,0-1.06-1.63,5,5,0,0,0-1.82-1.05,8.29,8.29,0,0,0-2.64-.37h-5.32V334Zm6.3,2.89h-6.3v10.85H302V320.9h8.88c3,0,5.35.69,7,2.06a7.43,7.43,0,0,1,2.44,6,7.2,7.2,0,0,1-1.35,4.36,8,8,0,0,1-3.77,2.78l6.3,11.39v.22h-3.8l-5.82-10.85Z"/><polygon class="cls-1" points="340.44 335.33 328.82 335.33 328.82 344.84 342.32 344.84 342.32 347.74 325.28 347.74 325.28 320.91 342.14 320.91 342.14 323.82 328.82 323.82 328.82 332.44 340.44 332.44 340.44 335.33"/><polygon class="cls-1" points="365.62 323.82 357 323.82 357 347.73 353.49 347.73 353.49 323.82 344.88 323.82 344.88 320.91 365.62 320.91 365.62 323.82"/><path class="cls-1" d="M372.79,337.82h9.13l-4.57-12.55-4.55,12.55ZM383,340.74H371.73l-2.53,7h-3.65l10.24-26.83h3.09l10.26,26.83h-3.63l-2.56-7Z"/><path class="cls-1" d="M396.3,334h5.43a7.17,7.17,0,0,0,2.52-.4,5.41,5.41,0,0,0,1.79-1.06,4.37,4.37,0,0,0,1.08-1.58,5.29,5.29,0,0,0,.36-2,6.15,6.15,0,0,0-.34-2.11,4.15,4.15,0,0,0-1.06-1.63,5,5,0,0,0-1.82-1.05,8.29,8.29,0,0,0-2.64-.37H396.3V334Zm6.31,2.89h-6.3v10.85h-3.56V320.9h8.88q4.55,0,7,2.06a7.43,7.43,0,0,1,2.44,6,7.2,7.2,0,0,1-1.35,4.36,8,8,0,0,1-3.77,2.78l6.3,11.39v.22h-3.8l-5.82-10.85Z"/><rect class="cls-1" x="416.25" y="320.91" width="3.54" height="26.83"/><path class="cls-1" d="M431.23,337.82h9.13l-4.57-12.55-4.55,12.55Zm10.18,2.92H430.17l-2.53,7H424l10.24-26.83h3.09l10.26,26.83H444l-2.56-7Z"/><path class="cls-1" d="M464.08,323.82v21h3.72a9.52,9.52,0,0,0,3.76-.69,7.17,7.17,0,0,0,2.71-2,8.63,8.63,0,0,0,1.63-3.06,13.54,13.54,0,0,0,.54-4v-1.64a14.28,14.28,0,0,0-.55-4.1,8.42,8.42,0,0,0-1.62-3,7,7,0,0,0-2.62-1.89,9.12,9.12,0,0,0-3.54-.65h-4Zm-3.54,23.92V320.91h7.57a12.74,12.74,0,0,1,4.83.89,10.61,10.61,0,0,1,3.73,2.52,11.55,11.55,0,0,1,2.42,4,15.22,15.22,0,0,1,.85,5.25v1.59a15.22,15.22,0,0,1-.85,5.25,10.94,10.94,0,0,1-2.44,4,10.47,10.47,0,0,1-3.82,2.51,13.62,13.62,0,0,1-5,.88h-7.26Z"/><polygon class="cls-1" points="500.45 335.33 488.83 335.33 488.83 344.84 502.33 344.84 502.33 347.74 485.29 347.74 485.29 320.91 502.15 320.91 502.15 323.82 488.83 323.82 488.83 332.44 500.45 332.44 500.45 335.33"/><polygon class="cls-1" points="531.23 335.33 519.61 335.33 519.61 344.84 533.11 344.84 533.11 347.74 516.07 347.74 516.07 320.91 532.93 320.91 532.93 323.82 519.61 323.82 519.61 332.44 531.23 332.44 531.23 335.33"/><path class="cls-1" d="M551.81,341a4.47,4.47,0,0,0-.29-1.66,3.35,3.35,0,0,0-1-1.32,8,8,0,0,0-2-1.12,29.08,29.08,0,0,0-3.13-1.08,26.77,26.77,0,0,1-3.6-1.3,11.18,11.18,0,0,1-2.74-1.68,6.72,6.72,0,0,1-1.74-2.16,6.05,6.05,0,0,1-.61-2.78,6.64,6.64,0,0,1,.65-2.91,7,7,0,0,1,1.85-2.32,8.61,8.61,0,0,1,2.88-1.53,11.85,11.85,0,0,1,3.74-.55,11.33,11.33,0,0,1,4,.68,9.11,9.11,0,0,1,3,1.81,7.76,7.76,0,0,1,1.84,2.6,7.87,7.87,0,0,1,.62,3h-3.55a5.82,5.82,0,0,0-.36-2.08,4.43,4.43,0,0,0-1.1-1.66,5,5,0,0,0-1.84-1.09,7.91,7.91,0,0,0-2.62-.38,8.3,8.3,0,0,0-2.47.33,5.14,5.14,0,0,0-1.73.91,3.68,3.68,0,0,0-1,1.38,4.44,4.44,0,0,0-.33,1.73,3.37,3.37,0,0,0,.36,1.55,3.91,3.91,0,0,0,1.11,1.29,8.12,8.12,0,0,0,1.94,1.09,24.78,24.78,0,0,0,2.85,1,24.62,24.62,0,0,1,3.94,1.43,11.48,11.48,0,0,1,2.74,1.78,6.71,6.71,0,0,1,1.61,2.23,7.06,7.06,0,0,1,.52,2.8,6.33,6.33,0,0,1-2.55,5.23,8.94,8.94,0,0,1-3,1.45,13.4,13.4,0,0,1-3.83.51,13.76,13.76,0,0,1-2.47-.23,12,12,0,0,1-2.37-.69,10.36,10.36,0,0,1-2.1-1.14,8,8,0,0,1-1.69-1.58,7.31,7.31,0,0,1-1.13-2,7.21,7.21,0,0,1-.41-2.46h3.56a4.81,4.81,0,0,0,.54,2.36,4.87,4.87,0,0,0,1.46,1.63,6,6,0,0,0,2.1.95,9.73,9.73,0,0,0,2.5.31,7,7,0,0,0,4.29-1.15,3.73,3.73,0,0,0,1.5-3.11"/><polygon class="cls-1" points="578.43 323.82 569.81 323.82 569.81 347.73 566.3 347.73 566.3 323.82 557.69 323.82 557.69 320.91 578.43 320.91 578.43 323.82"/><path class="cls-1" d="M585.6,337.82h9.13l-4.57-12.55-4.55,12.55Zm10.18,2.92H584.54l-2.53,7h-3.65l10.25-26.83h3.09L602,347.74h-3.63l-2.56-7Z"/><path class="cls-1" d="M609.11,323.82v21h3.72a9.52,9.52,0,0,0,3.76-.69,7.17,7.17,0,0,0,2.71-2,8.63,8.63,0,0,0,1.63-3.06,13.54,13.54,0,0,0,.54-4v-1.64a14.28,14.28,0,0,0-.55-4.1,8.42,8.42,0,0,0-1.62-3,7,7,0,0,0-2.62-1.89,9.12,9.12,0,0,0-3.54-.65h-4Zm-3.54,23.92V320.91h7.57a12.74,12.74,0,0,1,4.83.89,10.61,10.61,0,0,1,3.73,2.52,11.55,11.55,0,0,1,2.42,4,15.22,15.22,0,0,1,.85,5.25v1.59a15.22,15.22,0,0,1-.85,5.25,10.94,10.94,0,0,1-2.44,4,10.47,10.47,0,0,1-3.82,2.51,13.62,13.62,0,0,1-5,.88h-7.26Z"/><path class="cls-1" d="M647.44,333.45a16.84,16.84,0,0,0-.49-4.23,9,9,0,0,0-1.43-3.1,6,6,0,0,0-2.29-1.89,7,7,0,0,0-3.06-.65,6.6,6.6,0,0,0-3,.65,6.32,6.32,0,0,0-2.3,1.89,9.39,9.39,0,0,0-1.47,3.1,15.92,15.92,0,0,0-.51,4.23v1.74a15.27,15.27,0,0,0,.53,4.26,9.21,9.21,0,0,0,1.48,3.1,6.28,6.28,0,0,0,2.3,1.91,6.78,6.78,0,0,0,3,.64,7,7,0,0,0,3.08-.64,6.22,6.22,0,0,0,2.28-1.91,9,9,0,0,0,1.41-3.1,17.48,17.48,0,0,0,.48-4.26v-1.74Zm3.51,1.74a17.72,17.72,0,0,1-.76,5.41,12,12,0,0,1-2.16,4.06,9.46,9.46,0,0,1-3.39,2.56,10.85,10.85,0,0,1-4.45.89,10.39,10.39,0,0,1-4.36-.89,9.78,9.78,0,0,1-3.43-2.56,12,12,0,0,1-2.23-4.06,17.06,17.06,0,0,1-.79-5.41v-1.7a17.48,17.48,0,0,1,.79-5.41,12.1,12.1,0,0,1,2.21-4.08,9.56,9.56,0,0,1,3.41-2.57,10.51,10.51,0,0,1,4.37-.9,10.92,10.92,0,0,1,4.45.9A9.47,9.47,0,0,1,648,324a11.79,11.79,0,0,1,2.18,4.08,17.81,17.81,0,0,1,.76,5.41v1.7Z"/><path class="cls-1" d="M223.86,369.1v21h3.72a9.52,9.52,0,0,0,3.76-.69,7.17,7.17,0,0,0,2.71-2,8.63,8.63,0,0,0,1.63-3.06,13.54,13.54,0,0,0,.54-4v-1.64a14.29,14.29,0,0,0-.54-4.1,8.42,8.42,0,0,0-1.62-3,7,7,0,0,0-2.62-1.89,9.12,9.12,0,0,0-3.54-.65h-4ZM220.32,393V366.19h7.57a12.71,12.71,0,0,1,4.83.89,10.61,10.61,0,0,1,3.73,2.52,11.38,11.38,0,0,1,2.41,4,15.21,15.21,0,0,1,.86,5.25v1.59a15,15,0,0,1-.86,5.25,11.06,11.06,0,0,1-2.43,4,10.47,10.47,0,0,1-3.82,2.51,13.82,13.82,0,0,1-5,.87Z"/><polygon class="cls-1" points="260.23 380.62 248.61 380.62 248.61 390.13 262.11 390.13 262.11 393.02 245.07 393.02 245.07 366.19 261.93 366.19 261.93 369.11 248.61 369.11 248.61 377.73 260.23 377.73 260.23 380.62"/><polygon class="cls-1" points="291.01 380.62 279.39 380.62 279.39 390.13 292.89 390.13 292.89 393.02 275.85 393.02 275.85 366.19 292.71 366.19 292.71 369.11 279.39 369.11 279.39 377.73 291.01 377.73 291.01 380.62"/><path class="cls-1" d="M300.83,369.1v21h3.72a9.52,9.52,0,0,0,3.76-.69,7.17,7.17,0,0,0,2.71-2,8.63,8.63,0,0,0,1.63-3.06,13.54,13.54,0,0,0,.54-4v-1.64a14.28,14.28,0,0,0-.55-4.1,8.42,8.42,0,0,0-1.62-3,7,7,0,0,0-2.62-1.89,9.12,9.12,0,0,0-3.54-.65h-4ZM297.29,393V366.19h7.57a12.74,12.74,0,0,1,4.83.89,10.61,10.61,0,0,1,3.73,2.52,11.55,11.55,0,0,1,2.42,4,15.22,15.22,0,0,1,.85,5.25v1.59a15.22,15.22,0,0,1-.85,5.25,10.94,10.94,0,0,1-2.44,4,10.47,10.47,0,0,1-3.82,2.51,13.82,13.82,0,0,1-5,.87Z"/><path class="cls-1" d="M340.92,366.19v18.17a9.39,9.39,0,0,1-.79,4,8.16,8.16,0,0,1-2.13,2.82,8.82,8.82,0,0,1-3.11,1.68,12.06,12.06,0,0,1-3.72.57,12.59,12.59,0,0,1-3.81-.57,8.71,8.71,0,0,1-3.07-1.68,7.71,7.71,0,0,1-2-2.82,9.71,9.71,0,0,1-.75-4V366.19H325v18.17a7.49,7.49,0,0,0,.45,2.72,5,5,0,0,0,3.2,3.05,8,8,0,0,0,2.52.37,8.58,8.58,0,0,0,2.55-.37,5.11,5.11,0,0,0,1.95-1.13,5,5,0,0,0,1.25-1.92,7.45,7.45,0,0,0,.45-2.72V366.19Z"/><path class="cls-1" d="M366.24,384.5a12.47,12.47,0,0,1-.93,3.53,8.36,8.36,0,0,1-2,2.82,9,9,0,0,1-3.06,1.86,12.06,12.06,0,0,1-4.22.67,10.16,10.16,0,0,1-4.31-.89,9.39,9.39,0,0,1-3.31-2.52,11.76,11.76,0,0,1-2.12-3.91,16.38,16.38,0,0,1-.74-5.11v-2.69a16.08,16.08,0,0,1,.76-5.11,11.47,11.47,0,0,1,2.15-3.93,9.57,9.57,0,0,1,3.4-2.52,10.8,10.8,0,0,1,4.48-.9,11.33,11.33,0,0,1,4,.66,8.74,8.74,0,0,1,3,1.85,8.63,8.63,0,0,1,1.94,2.84,12,12,0,0,1,.92,3.64h-3.56a11.92,11.92,0,0,0-.62-2.52,5.63,5.63,0,0,0-1.17-1.92,4.88,4.88,0,0,0-1.86-1.21,7.26,7.26,0,0,0-2.65-.42,7,7,0,0,0-3.14.68,6.22,6.22,0,0,0-2.26,1.94,8.79,8.79,0,0,0-1.38,3,15.1,15.1,0,0,0-.46,3.87V381a15.65,15.65,0,0,0,.42,3.7,9.86,9.86,0,0,0,1.26,3,6.29,6.29,0,0,0,2.15,2.05,6.16,6.16,0,0,0,3.1.75,8.78,8.78,0,0,0,2.86-.41,5,5,0,0,0,1.92-1.17A5.26,5.26,0,0,0,362,387a12.13,12.13,0,0,0,.64-2.53h3.56Z"/><path class="cls-1" d="M375.71,383.11h9.13l-4.57-12.55-4.55,12.55ZM385.88,386H374.64l-2.53,7h-3.65l10.24-26.83h3.09L392.05,393h-3.63l-2.56-7Z"/><path class="cls-1" d="M406.22,393.17l-.22,1a4.27,4.27,0,0,1,1,.31,3,3,0,0,1,.91.58,2.68,2.68,0,0,1,.65.94,3.4,3.4,0,0,1,.24,1.35,3.3,3.3,0,0,1-1.43,2.8,5,5,0,0,1-1.75.79,9.25,9.25,0,0,1-2.41.27l-.13-2a6.59,6.59,0,0,0,1.19-.1,3.56,3.56,0,0,0,1-.32,1.73,1.73,0,0,0,.65-.57,1.36,1.36,0,0,0,.24-.83,1.49,1.49,0,0,0-.17-.77,1.32,1.32,0,0,0-.54-.5,3.08,3.08,0,0,0-.93-.3,12.54,12.54,0,0,0-1.34-.18l.59-2.47h2.46Zm9-8.67a12.47,12.47,0,0,1-.93,3.53,8.36,8.36,0,0,1-2,2.82,9,9,0,0,1-3.06,1.86,12.06,12.06,0,0,1-4.22.67,10.16,10.16,0,0,1-4.31-.89,9.39,9.39,0,0,1-3.31-2.52,11.76,11.76,0,0,1-2.12-3.91,16.38,16.38,0,0,1-.74-5.11v-2.69a16.08,16.08,0,0,1,.76-5.11,11.32,11.32,0,0,1,2.16-3.93,9.53,9.53,0,0,1,3.39-2.52,10.8,10.8,0,0,1,4.48-.9,11.33,11.33,0,0,1,4,.66,8.74,8.74,0,0,1,3,1.85,8.63,8.63,0,0,1,1.94,2.84,12,12,0,0,1,.92,3.64h-3.56a11.92,11.92,0,0,0-.62-2.52,5.63,5.63,0,0,0-1.17-1.92,4.88,4.88,0,0,0-1.86-1.21,7.26,7.26,0,0,0-2.65-.42,7,7,0,0,0-3.14.68,6.22,6.22,0,0,0-2.26,1.94,8.6,8.6,0,0,0-1.37,3,15.1,15.1,0,0,0-.46,3.87V381a16.2,16.2,0,0,0,.41,3.7,9.86,9.86,0,0,0,1.26,3,6.29,6.29,0,0,0,2.15,2.05,6.16,6.16,0,0,0,3.1.75,8.78,8.78,0,0,0,2.86-.41,5,5,0,0,0,1.92-1.17A5.26,5.26,0,0,0,411,387a12.13,12.13,0,0,0,.64-2.53h3.56Z"/><path class="cls-1" d="M435.84,359.61a5.11,5.11,0,0,1-.31,1.84,4.13,4.13,0,0,1-.84,1.41,4.07,4.07,0,0,1-1.26.89,3.83,3.83,0,0,1-1.55.31,3.67,3.67,0,0,1-1.55-.28,7.76,7.76,0,0,1-1.11-.6c-.34-.22-.67-.41-1-.6a2.77,2.77,0,0,0-1.29-.28,1.58,1.58,0,0,0-.72.16,1.91,1.91,0,0,0-.58.43,2,2,0,0,0-.39.65,2.39,2.39,0,0,0-.14.82l-2.29-.13a5.2,5.2,0,0,1,.31-1.85,4.27,4.27,0,0,1,.83-1.43,3.68,3.68,0,0,1,2.8-1.26,3.13,3.13,0,0,1,1.39.28,10.3,10.3,0,0,1,1.14.61q.56.33,1.11.6a2.93,2.93,0,0,0,1.31.28,1.58,1.58,0,0,0,.72-.16,1.66,1.66,0,0,0,.58-.44,2.22,2.22,0,0,0,.55-1.48l2.29.22Zm-11.16,23.5h9.13l-4.57-12.55-4.55,12.55ZM434.85,386H423.61l-2.53,7h-3.65l10.24-26.83h3.09L441,393h-3.63l-2.56-7Z"/><path class="cls-1" d="M461.56,378.74a16.39,16.39,0,0,0-.49-4.23,9,9,0,0,0-1.43-3.1,6,6,0,0,0-2.29-1.89,7,7,0,0,0-3.06-.65,6.6,6.6,0,0,0-3,.65,6.32,6.32,0,0,0-2.3,1.89,9.39,9.39,0,0,0-1.47,3.1,15.92,15.92,0,0,0-.51,4.23v1.74a15.27,15.27,0,0,0,.53,4.26,9.21,9.21,0,0,0,1.48,3.1,6.28,6.28,0,0,0,2.3,1.91,6.78,6.78,0,0,0,3,.64,7,7,0,0,0,3.08-.64,6.22,6.22,0,0,0,2.28-1.91,9,9,0,0,0,1.41-3.1,17.48,17.48,0,0,0,.48-4.26v-1.74Zm3.52,1.73a17.72,17.72,0,0,1-.76,5.41,12,12,0,0,1-2.16,4.06,9.46,9.46,0,0,1-3.39,2.56,10.85,10.85,0,0,1-4.45.89,10.39,10.39,0,0,1-4.36-.89,9.78,9.78,0,0,1-3.43-2.56,12,12,0,0,1-2.23-4.06,17.1,17.1,0,0,1-.79-5.41v-1.7a17.48,17.48,0,0,1,.79-5.41,12.05,12.05,0,0,1,2.21-4.07,9.56,9.56,0,0,1,3.41-2.57,10.48,10.48,0,0,1,4.37-.9,10.89,10.89,0,0,1,4.45.9,9.47,9.47,0,0,1,3.41,2.57,11.83,11.83,0,0,1,2.18,4.07,17.86,17.86,0,0,1,.76,5.41v1.7Z"/><path class="cls-1" d="M530.24,384.5a12.47,12.47,0,0,1-.93,3.53,8.36,8.36,0,0,1-2,2.82,9,9,0,0,1-3.06,1.86,12.06,12.06,0,0,1-4.22.67,10.16,10.16,0,0,1-4.31-.89,9.39,9.39,0,0,1-3.31-2.52,11.76,11.76,0,0,1-2.12-3.91,16.38,16.38,0,0,1-.74-5.11v-2.69a16.08,16.08,0,0,1,.76-5.11,11.32,11.32,0,0,1,2.16-3.93,9.53,9.53,0,0,1,3.39-2.52,10.8,10.8,0,0,1,4.48-.9,11.33,11.33,0,0,1,4,.66,8.74,8.74,0,0,1,3,1.85,8.63,8.63,0,0,1,1.94,2.84,12,12,0,0,1,.92,3.64h-3.56a11.92,11.92,0,0,0-.62-2.52,5.63,5.63,0,0,0-1.17-1.92,4.92,4.92,0,0,0-1.85-1.21,7.28,7.28,0,0,0-2.66-.42,7,7,0,0,0-3.14.68,6.22,6.22,0,0,0-2.26,1.94,8.79,8.79,0,0,0-1.38,3,15.1,15.1,0,0,0-.46,3.87V381a16.2,16.2,0,0,0,.41,3.7,9.86,9.86,0,0,0,1.26,3,6.29,6.29,0,0,0,2.15,2.05,6.16,6.16,0,0,0,3.1.75,8.78,8.78,0,0,0,2.86-.41,5,5,0,0,0,1.92-1.17A5.26,5.26,0,0,0,526,387a12.13,12.13,0,0,0,.64-2.53h3.57Z"/><path class="cls-1" d="M554,366.19v18.17a9.39,9.39,0,0,1-.79,4,8.16,8.16,0,0,1-2.13,2.82,8.82,8.82,0,0,1-3.11,1.68,12.06,12.06,0,0,1-3.72.57,12.59,12.59,0,0,1-3.81-.57,8.71,8.71,0,0,1-3.07-1.68,7.71,7.71,0,0,1-2-2.82,9.71,9.71,0,0,1-.75-4V366.19H538v18.17a7.49,7.49,0,0,0,.45,2.72,5,5,0,0,0,3.2,3.05,8,8,0,0,0,2.52.37,8.58,8.58,0,0,0,2.55-.37,5.11,5.11,0,0,0,2-1.13,5,5,0,0,0,1.25-1.92,7.45,7.45,0,0,0,.45-2.72V366.19Z"/><polygon class="cls-1" points="563.09 390.13 575.8 390.13 575.8 393.02 559.53 393.02 559.53 366.19 563.09 366.19 563.09 390.13"/><polygon class="cls-1" points="593.3 369.1 584.68 369.1 584.68 393.02 581.17 393.02 581.17 369.1 572.56 369.1 572.56 366.19 593.3 366.19 593.3 369.1"/><path class="cls-1" d="M616.17,366.19v18.17a9.39,9.39,0,0,1-.79,4,8.16,8.16,0,0,1-2.13,2.82,8.82,8.82,0,0,1-3.11,1.68,12.06,12.06,0,0,1-3.72.57,12.59,12.59,0,0,1-3.81-.57,8.71,8.71,0,0,1-3.07-1.68,7.71,7.71,0,0,1-2-2.82,9.71,9.71,0,0,1-.75-4V366.19h3.5v18.17a7.49,7.49,0,0,0,.45,2.72A5.06,5.06,0,0,0,602,389a5.15,5.15,0,0,0,1.94,1.13,8,8,0,0,0,2.52.37,8.58,8.58,0,0,0,2.55-.37,5.11,5.11,0,0,0,1.95-1.13,5,5,0,0,0,1.25-1.92,7.45,7.45,0,0,0,.45-2.72V366.19Z"/><path class="cls-1" d="M625.29,379.27h5.43a7.17,7.17,0,0,0,2.52-.4,5.41,5.41,0,0,0,1.79-1.06,4.37,4.37,0,0,0,1.08-1.58,5.29,5.29,0,0,0,.36-2,6.15,6.15,0,0,0-.34-2.11,4.15,4.15,0,0,0-1.06-1.63,5,5,0,0,0-1.82-1,8.29,8.29,0,0,0-2.64-.37h-5.32v10.17Zm6.31,2.9h-6.3V393h-3.56V366.19h8.88q4.54,0,7,2.06a7.43,7.43,0,0,1,2.44,6,7.2,7.2,0,0,1-1.35,4.36,8,8,0,0,1-3.77,2.78l6.3,11.39V393h-3.8l-5.82-10.85Z"/><path class="cls-1" d="M649.62,383.11h9.13l-4.57-12.55-4.55,12.55ZM659.8,386H648.56L646,393h-3.65l10.24-26.83h3.09L666,393h-3.63l-2.56-7Z"/><polygon class="cls-1" points="494.89 380.62 483.27 380.62 483.27 390.13 496.77 390.13 496.77 393.02 479.73 393.02 479.73 366.19 496.58 366.19 496.58 369.11 483.27 369.11 483.27 377.73 494.89 377.73 494.89 380.62"/><rect class="cls-1" x="272.77" y="290.49" width="332.1" height="8.38"/></svg>