<svg id="Layer_1" data-name="Layer 1" xmlns="http://www.w3.org/2000/svg" viewBox="0 0 886.29 496.46"><defs><style>.cls-1{fill:#fff;}</style></defs><title>sesacre</title><path class="cls-1" d="M168.11,243.68q0-6.6-4.66-10.14t-16.78-7.46a119.05,119.05,0,0,1-19.19-7.73q-19.28-10.41-19.27-28a27.32,27.32,0,0,1,5.17-16.36q5.18-7.19,14.84-11.23a55.94,55.94,0,0,1,21.72-4,51,51,0,0,1,21.6,4.39,34.48,34.48,0,0,1,14.73,12.39,32.4,32.4,0,0,1,5.25,18.18H168.21q0-7.77-4.9-12.08t-13.75-4.31c-5.9,0-10.13,1.2-13.29,3.61a11.4,11.4,0,0,0-4.74,9.52q0,5.52,5.56,9.25t16.36,7q19.89,6,29,14.84a29.57,29.57,0,0,1,9.09,22.07q0,14.68-11.11,23t-29.92,8.35a57.73,57.73,0,0,1-23.78-4.78Q116,265.36,110.35,257a33.5,33.5,0,0,1-5.63-19.27h23.39q0,18.73,22.38,18.73,8.31,0,13-3.38a11,11,0,0,0,4.66-9.44"/><polygon class="cls-1" points="275.35 224.34 230.59 224.34 230.59 254.64 283.12 254.64 283.12 273.37 207.28 273.37 207.28 160.23 282.96 160.23 282.96 179.11 230.59 179.11 230.59 206.08 275.35 206.08 275.35 224.34"/><path class="cls-1" d="M355.45,243.68q0-6.6-4.66-10.14T334,226.08a119.05,119.05,0,0,1-19.19-7.73q-19.28-10.41-19.27-28a27.32,27.32,0,0,1,5.17-16.36q5.19-7.19,14.84-11.23a56,56,0,0,1,21.72-4,51,51,0,0,1,21.6,4.39,34.28,34.28,0,0,1,14.72,12.39,32.4,32.4,0,0,1,5.25,18.18H355.53q0-7.77-4.89-12.08t-13.75-4.31c-5.9,0-10.13,1.2-13.29,3.61a11.4,11.4,0,0,0-4.74,9.52q0,5.52,5.56,9.25t16.36,7q19.89,6,29,14.84a29.57,29.57,0,0,1,9.09,22.07q0,14.68-11.11,23t-29.92,8.35A57.73,57.73,0,0,1,314,270.13q-10.73-4.77-16.36-13.09a33.5,33.5,0,0,1-5.63-19.27h23.4q0,18.73,22.38,18.73,8.31,0,13-3.38a11,11,0,0,0,4.66-9.44"/><path class="cls-1" d="M458.49,250.05H417.62l-7.76,23.31h-24.8l42.11-113.14h21.6l42.35,113.14H466.33l-7.85-23.31Zm-34.57-18.88H452.2L438,188.82l-14.06,42.35Z"/><path class="cls-1" d="M588.86,235.68q-1.32,18.25-13.47,28.75t-32,10.49q-21.75,0-34.23-14.65t-12.47-40.21v-6.92q0-16.32,5.75-28.75a43.06,43.06,0,0,1,16.42-19.08q10.68-6.65,24.84-6.64,19.58,0,31.55,10.49T589,198.61H565.72q-.86-11-6.1-15.89t-16-4.93q-11.65,0-17.44,8.35t-5.94,25.91v8.55q0,18.35,5.55,26.81t17.52,8.47q10.8,0,16.12-4.94t6.1-15.27h23.3Z"/><path class="cls-1" d="M646.05,232H627.48v41.42H604.17V160.23h42q20.06,0,30.93,8.94T688,194.42q0,11.58-5,19.31t-15.19,12.32l24.48,46.23v1.09h-25L646.06,232Zm-18.57-18.88h18.8q8.79,0,13.6-4.47t4.82-12.32c0-5.23-1.52-9.53-4.54-12.59s-7.68-4.59-13.95-4.59H627.48v34Z"/><polygon class="cls-1" points="773.79 224.34 729.03 224.34 729.03 254.64 781.57 254.64 781.57 273.37 705.73 273.37 705.73 160.23 781.41 160.23 781.41 179.11 729.03 179.11 729.03 206.08 773.79 206.08 773.79 224.34"/><path class="cls-1" d="M174.35,330.37l2.73-.24a6.11,6.11,0,0,0,.9,2.7,5,5,0,0,0,2.2,1.7,8.42,8.42,0,0,0,3.36.65,8,8,0,0,0,2.93-.49,4.05,4.05,0,0,0,1.89-1.35,3.16,3.16,0,0,0,.62-1.88,2.85,2.85,0,0,0-.6-1.8,4.5,4.5,0,0,0-2-1.29c-.59-.23-1.89-.58-3.9-1.07a19.74,19.74,0,0,1-4.23-1.37,5.92,5.92,0,0,1-2.34-2,5,5,0,0,1-.77-2.73,5.61,5.61,0,0,1,.94-3.1,5.84,5.84,0,0,1,2.75-2.19,10.39,10.39,0,0,1,4-.75,10.92,10.92,0,0,1,4.3.79,6.18,6.18,0,0,1,2.86,2.31,6.63,6.63,0,0,1,1.08,3.45l-2.78.21a4.52,4.52,0,0,0-1.52-3.14,5.88,5.88,0,0,0-3.82-1.06,6.26,6.26,0,0,0-3.83,1A2.89,2.89,0,0,0,178,321a2.51,2.51,0,0,0,.85,1.94c.56.51,2,1,4.37,1.56a28.41,28.41,0,0,1,4.85,1.4,6.63,6.63,0,0,1,2.82,2.23,5.42,5.42,0,0,1,.91,3.12,5.88,5.88,0,0,1-1,3.29,6.59,6.59,0,0,1-2.88,2.4,10.07,10.07,0,0,1-4.22.86,12.55,12.55,0,0,1-5-.87,7,7,0,0,1-3.15-2.61,7.4,7.4,0,0,1-1.2-3.94"/><polygon class="cls-1" points="195.81 337.41 195.81 315.51 211.66 315.51 211.66 318.09 198.72 318.09 198.72 324.8 210.82 324.8 210.82 327.37 198.72 327.37 198.72 334.83 212.16 334.83 212.16 337.41 195.81 337.41"/><path class="cls-1" d="M231.79,329.73l2.9.73a9.78,9.78,0,0,1-3.28,5.45,9,9,0,0,1-5.79,1.88,10.55,10.55,0,0,1-5.75-1.44,9,9,0,0,1-3.39-4.18,14.92,14.92,0,0,1-1.16-5.87,12.81,12.81,0,0,1,1.31-6,8.92,8.92,0,0,1,3.72-3.87,10.89,10.89,0,0,1,5.31-1.32,9,9,0,0,1,5.53,1.67,8.72,8.72,0,0,1,3.12,4.71l-2.85.67a6.8,6.8,0,0,0-2.21-3.48,5.85,5.85,0,0,0-3.64-1.09,7.06,7.06,0,0,0-4.22,1.21,6.41,6.41,0,0,0-2.38,3.25,13,13,0,0,0-.69,4.21,13.23,13.23,0,0,0,.82,4.88,6.1,6.1,0,0,0,2.53,3.12,7.07,7.07,0,0,0,3.72,1,6.2,6.2,0,0,0,4.12-1.41,7.17,7.17,0,0,0,2.29-4.17"/><path class="cls-1" d="M238.3,337.41v-21.9H248a13,13,0,0,1,4.45.59,4.93,4.93,0,0,1,2.44,2.08,6.21,6.21,0,0,1,.91,3.3,5.54,5.54,0,0,1-1.5,3.93,7.69,7.69,0,0,1-4.66,2,7.51,7.51,0,0,1,1.75,1.09,15.68,15.68,0,0,1,2.41,2.91l3.81,6H254l-2.9-4.56c-.85-1.31-1.54-2.32-2.09-3a6.4,6.4,0,0,0-1.47-1.46,4.37,4.37,0,0,0-1.32-.58,8.58,8.58,0,0,0-1.61-.11h-3.36v9.73H238.3Zm2.9-12.24h6.23a9.46,9.46,0,0,0,3.11-.41,3.2,3.2,0,0,0,1.7-1.31,3.54,3.54,0,0,0,.58-2,3.28,3.28,0,0,0-1.13-2.56,5.26,5.26,0,0,0-3.56-1H241.2v7.25Z"/><polygon class="cls-1" points="260.43 337.41 260.43 315.51 276.25 315.51 276.25 318.09 263.31 318.09 263.31 324.8 275.44 324.8 275.44 327.37 263.31 327.37 263.31 334.83 276.76 334.83 276.76 337.41 260.43 337.41"/><polygon class="cls-1" points="286.35 337.41 286.35 318.09 279.13 318.09 279.13 315.51 296.49 315.51 296.49 318.09 289.25 318.09 289.25 337.41 286.35 337.41"/><path class="cls-1" d="M294.79,337.41l8.41-21.9h3.12l9,21.9H312l-2.54-6.63h-9.17l-2.41,6.63h-3.08Zm6.32-9h7.43l-2.28-6.07c-.7-1.84-1.22-3.36-1.56-4.54a27.44,27.44,0,0,1-1.18,4.18l-2.41,6.42Z"/><path class="cls-1" d="M317.65,337.41v-21.9h9.71a13,13,0,0,1,4.45.59,5,5,0,0,1,2.45,2.08,6.3,6.3,0,0,1,.91,3.3,5.47,5.47,0,0,1-1.52,3.93,7.69,7.69,0,0,1-4.66,2,7.51,7.51,0,0,1,1.75,1.09,15.29,15.29,0,0,1,2.41,2.91l3.81,6h-3.65l-2.89-4.56c-.86-1.31-1.55-2.32-2.09-3a6.61,6.61,0,0,0-1.47-1.46,4.31,4.31,0,0,0-1.33-.58,8.39,8.39,0,0,0-1.6-.11h-3.36v9.73h-2.92Zm2.89-12.24h6.23a9.46,9.46,0,0,0,3.11-.41,3.24,3.24,0,0,0,1.7-1.31,3.46,3.46,0,0,0,.58-2,3.28,3.28,0,0,0-1.13-2.56,5.26,5.26,0,0,0-3.56-1h-6.93v7.25Z"/><rect class="cls-1" x="340.2" y="315.51" width="2.9" height="21.9"/><path class="cls-1" d="M345.8,337.41l8.41-21.9h3.12l9,21.9H363l-2.55-6.63H351.3l-2.41,6.63H345.8Zm6.32-9h7.43l-2.29-6.07c-.69-1.84-1.21-3.36-1.55-4.54a27.44,27.44,0,0,1-1.18,4.18l-2.41,6.42Z"/><path class="cls-1" d="M375.43,337.41v-21.9H383a18,18,0,0,1,3.89.32,7.28,7.28,0,0,1,3.21,1.57,8.91,8.91,0,0,1,2.59,3.74,14.78,14.78,0,0,1,.86,5.21,15.18,15.18,0,0,1-.58,4.42,10.88,10.88,0,0,1-1.49,3.19,7.8,7.8,0,0,1-2,2,8.18,8.18,0,0,1-2.61,1.1,14.86,14.86,0,0,1-3.52.37h-7.92Zm2.9-2.59H383a11.3,11.3,0,0,0,3.4-.4,4.8,4.8,0,0,0,2-1.14,7,7,0,0,0,1.61-2.77,13.67,13.67,0,0,0,.57-4.22,10.11,10.11,0,0,0-1.13-5.28,5.69,5.69,0,0,0-2.74-2.47,11.31,11.31,0,0,0-3.75-.45h-4.6v16.73Z"/><polygon class="cls-1" points="397.58 337.41 397.58 315.51 413.43 315.51 413.43 318.09 400.49 318.09 400.49 324.8 412.61 324.8 412.61 327.37 400.49 327.37 400.49 334.83 413.94 334.83 413.94 337.41 397.58 337.41"/><polygon class="cls-1" points="426.5 337.41 426.5 315.51 442.35 315.51 442.35 318.09 429.39 318.09 429.39 324.8 441.51 324.8 441.51 327.37 429.39 327.37 429.39 334.83 442.85 334.83 442.85 337.41 426.5 337.41"/><path class="cls-1" d="M445.86,330.37l2.73-.24a6.24,6.24,0,0,0,.9,2.7,5,5,0,0,0,2.21,1.7,8.38,8.38,0,0,0,3.35.65,8.07,8.07,0,0,0,2.93-.49,4.05,4.05,0,0,0,1.89-1.35,3.16,3.16,0,0,0,.62-1.88,2.85,2.85,0,0,0-.6-1.8,4.5,4.5,0,0,0-2-1.29c-.59-.23-1.89-.58-3.9-1.07a19.74,19.74,0,0,1-4.23-1.37,5.92,5.92,0,0,1-2.34-2,5,5,0,0,1-.77-2.73,5.69,5.69,0,0,1,.94-3.1,5.94,5.94,0,0,1,2.75-2.19,10.43,10.43,0,0,1,4-.75,10.89,10.89,0,0,1,4.3.79,6.23,6.23,0,0,1,2.86,2.31,6.63,6.63,0,0,1,1.08,3.45l-2.78.21a4.52,4.52,0,0,0-1.52-3.14,5.88,5.88,0,0,0-3.82-1.06,6.26,6.26,0,0,0-3.83,1,2.89,2.89,0,0,0-1.2,2.32,2.51,2.51,0,0,0,.85,1.94c.56.51,2,1,4.37,1.56a28.7,28.7,0,0,1,4.85,1.4,6.63,6.63,0,0,1,2.82,2.23,5.42,5.42,0,0,1,.91,3.12,5.88,5.88,0,0,1-1,3.29,6.59,6.59,0,0,1-2.88,2.4,10.07,10.07,0,0,1-4.22.86,12.55,12.55,0,0,1-5-.87,7,7,0,0,1-3.15-2.61,7.4,7.4,0,0,1-1.2-3.94"/><polygon class="cls-1" points="472.83 337.41 472.83 318.09 465.62 318.09 465.62 315.51 482.98 315.51 482.98 318.09 475.74 318.09 475.74 337.41 472.83 337.41"/><path class="cls-1" d="M481.28,337.41l8.42-21.9h3.11l9,21.9h-3.29l-2.55-6.63h-9.16l-2.41,6.63h-3.09Zm6.32-9H495l-2.29-6.07c-.69-1.84-1.21-3.36-1.55-4.54A27.44,27.44,0,0,1,490,322l-2.41,6.42Z"/><path class="cls-1" d="M504.09,337.41v-21.9h7.55a18.22,18.22,0,0,1,3.9.32,7.33,7.33,0,0,1,3.21,1.57,8.91,8.91,0,0,1,2.59,3.74,14.78,14.78,0,0,1,.86,5.21,15.18,15.18,0,0,1-.58,4.42,10.88,10.88,0,0,1-1.49,3.19,8,8,0,0,1-2,2,8.18,8.18,0,0,1-2.61,1.1,14.86,14.86,0,0,1-3.52.37h-7.92Zm2.9-2.59h4.68a11.38,11.38,0,0,0,3.41-.4,4.86,4.86,0,0,0,2-1.14,7,7,0,0,0,1.61-2.77,13.67,13.67,0,0,0,.57-4.22,10.11,10.11,0,0,0-1.13-5.28,5.69,5.69,0,0,0-2.74-2.47,11.4,11.4,0,0,0-3.75-.45H507v16.73Z"/><path class="cls-1" d="M525.31,326.74q0-5.44,2.93-8.54a10,10,0,0,1,7.56-3.08,10.43,10.43,0,0,1,5.47,1.45,9.48,9.48,0,0,1,3.71,4,14,14,0,0,1-.07,11.84,9.22,9.22,0,0,1-3.81,4,10.9,10.9,0,0,1-5.32,1.35,10.44,10.44,0,0,1-5.53-1.49,9.7,9.7,0,0,1-3.69-4.08,12.33,12.33,0,0,1-1.26-5.47m3,.05a8.82,8.82,0,0,0,2.13,6.24,7.44,7.44,0,0,0,10.74,0,9.29,9.29,0,0,0,2.11-6.53,11.12,11.12,0,0,0-.91-4.67,6.84,6.84,0,0,0-2.64-3.09,7.15,7.15,0,0,0-3.9-1.1,7.42,7.42,0,0,0-5.3,2.11q-2.22,2.11-2.22,7.06"/><path class="cls-1" d="M558.49,337.41v-21.9H566a18.22,18.22,0,0,1,3.9.32,7.31,7.31,0,0,1,3.22,1.57,9,9,0,0,1,2.59,3.74,14.78,14.78,0,0,1,.86,5.21,15.18,15.18,0,0,1-.58,4.42,11.41,11.41,0,0,1-1.49,3.19,8,8,0,0,1-2,2,8.18,8.18,0,0,1-2.61,1.1,14.86,14.86,0,0,1-3.52.37h-7.92Zm2.91-2.59h4.68a11.3,11.3,0,0,0,3.4-.4,4.8,4.8,0,0,0,2-1.14,7,7,0,0,0,1.61-2.77,13.67,13.67,0,0,0,.57-4.22,10.11,10.11,0,0,0-1.13-5.28,5.69,5.69,0,0,0-2.74-2.47,11.31,11.31,0,0,0-3.75-.45h-4.6v16.73Z"/><polygon class="cls-1" points="580.65 337.41 580.65 315.51 596.5 315.51 596.5 318.09 583.55 318.09 583.55 324.8 595.67 324.8 595.67 327.37 583.55 327.37 583.55 334.83 597 334.83 597 337.41 580.65 337.41"/><path class="cls-1" d="M608.53,330.37l2.73-.24a6,6,0,0,0,.9,2.7,5,5,0,0,0,2.2,1.7,8.42,8.42,0,0,0,3.36.65,8.11,8.11,0,0,0,2.93-.49,4.16,4.16,0,0,0,1.89-1.35,3.16,3.16,0,0,0,.62-1.88,2.85,2.85,0,0,0-.6-1.8,4.5,4.5,0,0,0-2-1.29c-.59-.23-1.89-.58-3.9-1.07a19.74,19.74,0,0,1-4.23-1.37,5.92,5.92,0,0,1-2.34-2,5,5,0,0,1-.77-2.73,5.61,5.61,0,0,1,.94-3.1,5.84,5.84,0,0,1,2.75-2.19,10.36,10.36,0,0,1,4-.75,10.89,10.89,0,0,1,4.3.79,6.23,6.23,0,0,1,2.86,2.31,6.63,6.63,0,0,1,1.08,3.45l-2.78.21a4.52,4.52,0,0,0-1.53-3.14,5.86,5.86,0,0,0-3.82-1.06,6.26,6.26,0,0,0-3.83,1,2.89,2.89,0,0,0-1.2,2.32,2.51,2.51,0,0,0,.85,1.94c.56.51,2,1,4.37,1.56a28.7,28.7,0,0,1,4.85,1.4,6.63,6.63,0,0,1,2.82,2.23,5.42,5.42,0,0,1,.91,3.12,5.88,5.88,0,0,1-1,3.29,6.59,6.59,0,0,1-2.88,2.4,10.07,10.07,0,0,1-4.22.86,12.55,12.55,0,0,1-5-.87,7,7,0,0,1-3.15-2.61,7.4,7.4,0,0,1-1.2-3.94"/><path class="cls-1" d="M627.52,337.41l8.4-21.9H639l9,21.9h-3.3l-2.55-6.63H633l-2.41,6.63Zm6.32-9h7.43L639,322.35c-.69-1.84-1.21-3.36-1.55-4.54a27.44,27.44,0,0,1-1.18,4.18l-2.41,6.42Z"/><path class="cls-1" d="M664.7,315.51h2.9v12.66a14.88,14.88,0,0,1-.75,5.24,6.38,6.38,0,0,1-2.7,3.16,9.58,9.58,0,0,1-5.12,1.22,10.36,10.36,0,0,1-5-1.06,6,6,0,0,1-2.79-3.07,14.58,14.58,0,0,1-.84-5.49V315.51h2.9v12.64a12.45,12.45,0,0,0,.53,4.21,4,4,0,0,0,1.82,2.09,6.31,6.31,0,0,0,3.16.73q3.19,0,4.56-1.45c.9-1,1.36-2.82,1.36-5.57V315.52Zm-7.56-1.35,2-4.18h3.54l-3.29,4.18Z"/><path class="cls-1" d="M672.42,337.41v-21.9H680a18.22,18.22,0,0,1,3.9.32,7.37,7.37,0,0,1,3.22,1.57,9,9,0,0,1,2.59,3.74,14.78,14.78,0,0,1,.86,5.21,15.18,15.18,0,0,1-.58,4.42,11.41,11.41,0,0,1-1.49,3.19,8.16,8.16,0,0,1-2,2,8.28,8.28,0,0,1-2.61,1.1,14.86,14.86,0,0,1-3.52.37h-7.92Zm2.91-2.59H680a11.3,11.3,0,0,0,3.4-.4,4.8,4.8,0,0,0,2-1.14,7,7,0,0,0,1.61-2.77,13.67,13.67,0,0,0,.57-4.22,10.11,10.11,0,0,0-1.13-5.28,5.69,5.69,0,0,0-2.74-2.47,11.31,11.31,0,0,0-3.75-.45h-4.6v16.73Z"/><polygon class="cls-1" points="694.59 337.41 694.59 315.51 710.42 315.51 710.42 318.09 697.49 318.09 697.49 324.8 709.6 324.8 709.6 327.37 697.49 327.37 697.49 334.83 710.92 334.83 710.92 337.41 694.59 337.41"/><rect class="cls-1" x="108.2" y="290.98" width="668.99" height="6.8"/></svg>