<?xml version="1.0" encoding="utf-8"?><svg xmlns:xlink="http://www.w3.org/1999/xlink" id="Cena_1" image-rendering="auto" baseProfile="basic" version="1.1" x="0px" y="0px" width="52" height="29" viewBox="0 0 52 29" xmlns="http://www.w3.org/2000/svg"><g transform="matrix(0.5 0 0 0.5 26 14.5)" id="mc_04"><path fill="#AE017E" d="M37.2,-1.25Q21.85,-7.6 0.7,-7.6 -20.65,-7.6 -36.55,-1.25 -51.9,5 -51.9,12.6 -51.9,19.8 -33.5,24.5 -16.35,28.95 6.65,28.95 26.7,28.95 40.15,23.1 51.9,18.15 51.9,12.6 51.9,4.85 37.2,-1.25"/><path fill="none" stroke="#FFF" stroke-width="0.7" stroke-linecap="round" stroke-linejoin="round" d="M37.2,-1.25Q51.9,4.85 51.9,12.6 51.9,18.15 40.15,23.1 26.7,28.95 6.65,28.95 -16.35,28.95 -33.5,24.5 -51.9,19.8 -51.9,12.6 -51.9,5 -36.55,-1.25 -20.65,-7.6 0.7,-7.6 21.85,-7.6 37.2,-1.25"/><path fill="#AE017E" d="M-1,-28.95Q-13.7,-28.95 -22.45,-22.55 -33.1,-14.95 -33.1,-0.3 -30.6,5.95 -19.95,10.25 -8.45,14.8 7.3,14.8 31.55,14.8 33.05,1.1 33.05,-13.55 21.6,-21.9 11.9,-28.95 -1,-28.95"/><path fill="none" stroke="#FFF" stroke-width="0.7" stroke-linecap="round" stroke-linejoin="round" d="M-1,-28.95Q11.9,-28.95 21.6,-21.9 33.05,-13.55 33.05,1.1 31.55,14.8 7.3,14.8 -8.45,14.8 -19.95,10.25 -30.6,5.95 -33.1,-0.3 -33.1,-14.95 -22.45,-22.55 -13.7,-28.95 -1,-28.95"/><path fill="#FFF" d="M5.65,-6.5Q3.45,-6.35 1.35,-2.5 -0.45,0.95 -0.7,4 -0.7,7.2 0.8,8.7 2.35,10.65 4.7,10.4 9.25,10.1 10.8,4L10.8,3.6 6.9,4.15 7.45,5.25 9.1,5Q7.45,8.45 4.85,8.7 3.45,8.85 2.05,7.75 0.7,6.1 0.8,3.85 0.95,1.4 2.5,-1.55 4.3,-4.7 5.8,-4.85 8.55,-5.15 9.95,0.95L10.1,1.25 10.8,1.1 10.65,0.85Q9.7,-3.6 8.15,-5.25 6.9,-6.5 5.65,-6.5"/><path fill="#FFF" d="M6.35,-8.05L8,-13.15 5.95,-12.9 6.35,-8.05"/><path fill="#FFF" d="M10.1,-6.1L13.55,-10.1 11.6,-10.8 10.1,-6.1"/><path fill="#FFF" d="M11.2,-1.8L16.05,-4.15 14.5,-5.55 11.2,-1.8"/><path fill="#FFF" d="M2.75,-6.8L0.15,-10.95 -1.65,-9.85 2.75,-6.8"/><path fill="#FFF" d="M-4.05,-5.55L-5.25,-3.75 0,-2.75 -4.05,-5.55"/><path fill="#FFF" d="M-23.8,-2.5Q-23.8,-5 -24.95,-5 -26.05,-5 -26.05,-2.5 -26.05,0.15 -24.95,0.15 -23.8,0.15 -23.8,-2.5"/><path fill="#FFF" d="M-5.85,-23.95Q-5.85,-21.75 -0.45,-21.75 4.95,-21.75 4.95,-23.95 4.95,-26.15 -0.45,-26.15 -5.85,-26.15 -5.85,-23.95"/><path fill="#FFF" d="M-27.3,-4.55Q-27.3,-6.95 -28.55,-6.95 -29.65,-6.95 -29.65,-4.55 -29.65,-2.2 -28.55,-2.2 -27.3,-2.2 -27.3,-4.55"/></g><defs/></svg>