<svg baseProfile="basic" width="52" height="29" viewBox="0 0 52 29" xmlns="http://www.w3.org/2000/svg"><path fill="#AE017E" d="M44.6 13.875Q36.925 10.7 26.35 10.7q-10.675 0-18.625 3.175Q.05 17 .05 20.8q0 3.6 9.2 5.95 8.575 2.225 20.075 2.225 10.025 0 16.75-2.925 5.875-2.475 5.875-5.25 0-3.875-7.35-6.925"/><path fill="none" stroke="#FFF" stroke-width=".35" stroke-linecap="round" stroke-linejoin="round" d="M44.6 13.875q7.35 3.05 7.35 6.925 0 2.775-5.875 5.25-6.725 2.925-16.75 2.925-11.5 0-20.075-2.225Q.05 24.4.05 20.8q0-3.8 7.675-6.925Q15.675 10.7 26.35 10.7q10.575 0 18.25 3.175"/><path fill="#AE017E" d="M25.5.025q-6.35 0-10.725 3.2Q9.45 7.025 9.45 14.35q1.25 3.125 6.575 5.275Q21.775 21.9 29.65 21.9q12.125 0 12.875-6.85 0-7.325-5.725-11.5Q31.95.025 25.5.025"/><path fill="none" stroke="#FFF" stroke-width=".35" stroke-linecap="round" stroke-linejoin="round" d="M25.5.025q6.45 0 11.3 3.525 5.725 4.175 5.725 11.5-.75 6.85-12.875 6.85-7.875 0-13.625-2.275-5.325-2.15-6.575-5.275 0-7.325 5.325-11.125Q19.15.025 25.5.025"/><path fill="#FFF" d="M28.825 11.25q-1.1.075-2.15 2-.9 1.725-1.025 3.25 0 1.6.75 2.35.775.975 1.95.85 2.275-.15 3.05-3.2v-.2l-1.95.275.275.55.825-.125q-.825 1.725-2.125 1.85-.7.075-1.4-.475-.675-.825-.625-1.95.075-1.225.85-2.7.9-1.575 1.65-1.65 1.375-.15 2.075 2.9l.075.15.35-.075-.075-.125q-.475-2.225-1.25-3.05-.625-.625-1.25-.625M29.175 10.475L30 7.925l-1.025.125.2 2.425M31.05 11.45l1.725-2-.975-.35-.75 2.35M31.6 13.6l2.425-1.175-.775-.7L31.6 13.6M27.375 11.1l-1.3-2.075-.9.55 2.2 1.525M23.975 11.725l-.6.9 2.625.5-2.025-1.4M14.1 13.25q0-1.25-.575-1.25-.55 0-.55 1.25 0 1.325.55 1.325.575 0 .575-1.325M23.075 2.525q0 1.1 2.7 1.1t2.7-1.1q0-1.1-2.7-1.1t-2.7 1.1M12.35 12.225q0-1.2-.625-1.2-.55 0-.55 1.2 0 1.175.55 1.175.625 0 .625-1.175"/></svg>