<svg baseProfile="basic" width="119" height="187" viewBox="0 0 119 187" xmlns="http://www.w3.org/2000/svg"><path fill="none" d="M19 39.3Q3.2 75 3.65 106.45 3.9 134.4 20.1 154.1q3.73 4.535 7.8 8.025-2.484-.175-5.05-.175-9.55 0-16.2 3.35Q0 168.75 0 173.6q0 4.85 6.65 8.3 1.155.6 2.4 1.1 6.705 3.2 15.9 3.2 9.8 0 19.5-3.9.242-.1.475-.2 1.16-.497 2.175-1l.2-.1.4-.2q.05-.027.1-.05l.1-.05 5.525-4.325q.944-1.338 1.025-2.725 2.163.2 4.4.2 2.83 0 5.55-.3v.2q.053 4.722 9.95 8.85 9.55 3.85 19.4 3.85h.3q8.175-.045 14.3-2.525.898-.36 1.75-.775l.425-.225q.827-.364 1.625-.775 6.65-3.45 6.65-8.3 0-4.85-6.65-8.3-6.65-3.3-16.2-3.3h-1.025q-3 .047-5.875.325 4.28-3.636 8.15-8.475 15.65-19.7 15.4-47.65-.45-31.85-16.5-67.15Q78.25.15 57.5 0 45.15 0 34.1 13.45 26.25 22.95 19 39.3"/><path fill="none" stroke="#999" stroke-width=".85" stroke-linecap="round" stroke-linejoin="round" d="M3.65 106.45Q3.2 75 19 39.3m1.1 114.8Q3.9 134.4 3.65 106.45m24.25 55.675q-4.07-3.49-7.8-8.025m38.75 19.75q-2.237 0-4.4-.2m9.95-.1q-2.72.3-5.55.3M97.2 154.1q-3.87 4.84-8.15 8.475m23.55-56.125q.25 27.95-15.4 47.65M96.1 39.3q16.05 35.3 16.5 67.15M57.5 0q20.75.15 38.6 39.3m-62-25.85Q45.15 0 57.5 0M19 39.3q7.25-16.35 15.1-25.85"/><path fill="none" stroke="#999" stroke-width="1.1" stroke-linecap="round" stroke-linejoin="round" d="M22.85 161.95q2.566 0 5.05.175M6.65 165.3q6.65-3.35 16.2-3.35M0 173.6q0-4.85 6.65-8.3m0 16.6Q0 178.45 0 173.6m9.05 9.4q-1.245-.5-2.4-1.1m18.3 4.3q-9.195 0-15.9-3.2m35.4-.7q-9.7 3.9-19.5 3.9m19.975-4.1q-.233.1-.475.2m2.65-1.2q-1.015.503-2.175 1M47.3 181l-.2.1m.6-.3l-.4.2m.5-.25q-.05.023-.1.05m.2-.1l-.1.05m5.625-4.375L47.9 180.7m6.55-7.05q-.08 1.387-1.025 2.725M64.4 173.75v-.05m9.95 8.9q-9.897-4.128-9.95-8.85m29.35 12.7q-9.85 0-19.4-3.85m19.7 3.85h-.3m14.6-2.525q-6.125 2.48-14.3 2.525m16.05-3.3q-.852.414-1.75.775m2.175-1l-.425.225m2.05-1q-.798.41-1.625.775m8.275-9.075q0 4.85-6.65 8.3m0-16.6q6.65 3.45 6.65 8.3m-22.85-11.6q9.55 0 16.2 3.3m-16.5-3.3h.3m-.575 0h.275m-.525 0h.25m-.45 0h.2m-6.075.325q2.874-.278 5.875-.325"/><path fill="#FFF" d="M67.225 169.225q-.683.495-1.2 1.025 2.126-2.094 6.95-3.8l.55-.225q-4.045 1.38-6.3 3m0 0q-.683.495-1.2 1.025l-1.625 3.3q-2.72.3-5.55.3-2.237 0-4.4-.2v-.2q-.016-1.457-1.05-2.775-1.024-1.303-3.05-2.475 5.35 1.38 11.15 1.4 2.927-.007 5.725-.375M34.1 26.7Q46.35 8.15 60.25 8.2 79.5 8.15 96.1 44.6q14.8 32.9 15.25 62.4.25 26.05-14.3 44.3-6.035 7.57-13.175 12-.374.07-.75.15l-5.1 1.25q-.553.154-1.1.325-.183.063-.375.125-1.644.52-3.025 1.075-4.045 1.38-6.3 3-2.798.368-5.725.375-5.8-.02-11.15-1.4-.026-.01-.05-.025-1.902-1.107-4.7-2.1-1.506-.632-3.35-1.225-.652-.21-1.3-.4-3.548-1.917-6.85-4.55-4.55-3.6-8.6-8.6-15.1-18.4-15.35-44.3-.3-29.2 14.4-62.4 4.65-10.45 9.55-17.9"/><path fill="none" stroke="#999" stroke-width="1.1" stroke-linecap="round" stroke-linejoin="round" d="M66.025 170.25q2.126-2.094 6.95-3.8l.55-.225"/><path fill="#FFF" d="M78.025 164.7q-.553.154-1.1.325-.183.063-.375.125-1.644.52-3.025 1.075l-.55.225q-6.375 2.736-6.375 6.3 0 4.7 9.95 8.85 9.55 4.05 19.4 4.05 8.297 0 14.575-2.725.827-.364 1.625-.775 6.65-3.45 6.65-8.3 0-4.85-6.65-8.3-6.65-3.3-16.2-3.3h-1.025q-3 .047-5.875.325-.195.02-.4.05l-4.175.575q-.683.12-1.35.25l-5.1 1.25M34.1 26.7Q46.35 8.15 60.25 8.2 79.5 8.15 96.1 44.6q14.8 32.9 15.25 62.4.25 26.05-14.3 44.3-6.035 7.57-13.175 12-.374.07-.75.15l-5.1 1.25q-.553.154-1.1.325-.183.063-.375.125-1.644.52-3.025 1.075-4.045 1.38-6.3 3-2.798.368-5.725.375-5.8-.02-11.15-1.4-.026-.01-.05-.025-1.902-1.107-4.7-2.1-1.506-.632-3.35-1.225-.652-.21-1.3-.4-3.548-1.917-6.85-4.55-4.55-3.6-8.6-8.6-15.1-18.4-15.35-44.3-.3-29.2 14.4-62.4 4.65-10.45 9.55-17.9"/><path fill="none" stroke="#999" stroke-width="1.1" stroke-linecap="round" stroke-linejoin="round" d="M78.025 164.7q-.553.154-1.1.325-.183.063-.375.125-1.644.52-3.025 1.075l-.55.225q-6.375 2.736-6.375 6.3 0 4.7 9.95 8.85 9.55 4.05 19.4 4.05 8.297 0 14.575-2.725.827-.364 1.625-.775 6.65-3.45 6.65-8.3 0-4.85-6.65-8.3-6.65-3.3-16.2-3.3h-1.025q-3 .047-5.875.325-.195.02-.4.05l-4.175.575q-.683.12-1.35.25l-5.1 1.25"/><path fill="#999" d="M72.975 166.45q-4.824 1.706-6.95 3.8l-1.625 3.3v.2q.053 4.722 9.95 8.85 9.55 3.85 19.4 3.85h.3q8.175-.045 14.3-2.525.898-.36 1.75-.775l.425-.225q-6.278 2.725-14.575 2.725-9.85 0-19.4-4.05-9.95-4.15-9.95-8.85 0-3.564 6.375-6.3M34.1 26.7Q46.35 8.15 60.25 8.2 79.5 8.15 96.1 44.6q14.8 32.9 15.25 62.4.25 26.05-14.3 44.3-6.035 7.57-13.175 12-.374.07-.75.15l-5.1 1.25q-.553.154-1.1.325-.183.063-.375.125-1.644.52-3.025 1.075-4.045 1.38-6.3 3-2.798.368-5.725.375-5.8-.02-11.15-1.4-.026-.01-.05-.025-1.902-1.107-4.7-2.1-1.506-.632-3.35-1.225-.652-.21-1.3-.4-3.548-1.917-6.85-4.55-4.55-3.6-8.6-8.6-15.1-18.4-15.35-44.3-.3-29.2 14.4-62.4 4.65-10.45 9.55-17.9"/><path fill="none" stroke="#999" stroke-width="1.1" stroke-linecap="round" stroke-linejoin="round" d="M72.975 166.45q-4.824 1.706-6.95 3.8l-1.625 3.3m0 .15v.05q.053 4.722 9.95 8.85 9.55 3.85 19.4 3.85h.3q8.175-.045 14.3-2.525.898-.36 1.75-.775l.425-.225q-6.278 2.725-14.575 2.725-9.85 0-19.4-4.05-9.95-4.15-9.95-8.85 0-3.564 6.375-6.3"/><path fill="#FFF" d="M83.125 163.45q.667-.13 1.35-.25-.306.047-.6.1-.374.07-.75.15"/><path fill="none" stroke="#999" stroke-width="1.1" stroke-linecap="round" stroke-linejoin="round" d="M83.125 163.45q.667-.13 1.35-.25"/><path fill="none" stroke="#999" stroke-width=".85" stroke-linecap="round" stroke-linejoin="round" d="M58.85 173.85q2.83 0 5.55-.3m-9.95.1q2.163.2 4.4.2m2.65-4.25q-5.8-.02-11.15-1.4m16.875 1.025q-2.798.368-5.725.375"/><path fill="none" stroke="#999" stroke-width="1.1" stroke-linecap="round" stroke-linejoin="round" d="M64.4 173.55l1.625-3.3m-11.575 3.2v.2m-1.05-2.975q1.034 1.318 1.05 2.775m-4.1-5.25q2.026 1.172 3.05 2.475"/><path fill="none" stroke="#999" stroke-width=".85" stroke-linecap="round" stroke-linejoin="round" d="M10.15 107q-.3-29.2 14.4-62.4m.95 106.7Q10.4 132.9 10.15 107m23.95 52.9q-4.55-3.6-8.6-8.6m15.45 13.15q-3.548-1.917-6.85-4.55m-14-5.8q3.73 4.535 7.8 8.025M3.65 106.45Q3.9 134.4 20.1 154.1M19 39.3Q3.2 75 3.65 106.45m30.45-93Q26.25 22.95 19 39.3M57.5 0Q45.15 0 34.1 13.45m62 25.85Q78.25.15 57.5 0m55.1 106.45q-.45-31.85-16.5-67.15m1.1 114.8q15.65-19.7 15.4-47.65m-23.55 56.125q4.28-3.636 8.15-8.475m-.15-2.8q-6.035 7.57-13.175 12M111.35 107q.25 26.05-14.3 44.3M96.1 44.6q14.8 32.9 15.25 62.4M60.25 8.2Q79.5 8.15 96.1 44.6m-62-17.9Q46.35 8.15 60.25 8.2m-35.7 36.4q4.65-10.45 9.55-17.9"/><path fill="none" stroke="#999" stroke-width="1.1" stroke-linecap="round" stroke-linejoin="round" d="M27.9 162.125q6.843.49 13.05 2.325m47.7-1.825q.205-.03.4-.05m-4.575.625l4.175-.575"/><path fill="none" stroke="#999" stroke-width=".85" stroke-linecap="round" stroke-linejoin="round" d="M60.25 8.2q-13.9-.05-26.15 18.5m62 17.9Q79.5 8.15 60.25 8.2m51.1 98.8q-.45-29.5-15.25-62.4m.95 106.7q14.55-18.25 14.3-44.3m-27.475 56.3q7.14-4.43 13.175-12M61.5 169.6q2.927-.007 5.725-.375M50.35 168.2q5.35 1.38 11.15 1.4m-27.4-9.7q3.302 2.633 6.85 4.55M25.5 151.3q4.05 5 8.6 8.6M10.15 107q.25 25.9 15.35 44.3m-.95-106.7Q9.85 77.8 10.15 107M34.1 26.7q-4.9 7.45-9.55 17.9"/><path fill="none" stroke="#999" stroke-width="1.1" stroke-linecap="round" stroke-linejoin="round" d="M78.025 164.7l5.1-1.25m-6.2 1.575q.547-.17 1.1-.325m-1.475.45q.192-.062.375-.125m-3.4 1.2q1.38-.554 3.025-1.075m-26.25 3.025q.024.014.05.025m-4.75-2.125q2.798.993 4.7 2.1m-8.05-3.325q1.844.593 3.35 1.225m-4.65-1.625q.648.19 1.3.4"/><path fill="#FFF" stroke="#999" stroke-width="1.1" stroke-linecap="round" stroke-linejoin="round" d="M27.9 162.125q-2.484-.175-5.05-.175-9.55 0-16.2 3.35Q0 168.75 0 173.6q0 4.85 6.65 8.3 1.155.6 2.4 1.1 5.91 2.35 13.8 2.35 9.85 0 19.4-4 9.95-4.15 9.95-8.85 0-3.625-6.6-6.425-1.506-.632-3.35-1.225-.652-.21-1.3-.4-6.207-1.836-13.05-2.325"/><path fill="#999" stroke="#999" stroke-width="1.1" stroke-linecap="round" stroke-linejoin="round" d="M22.85 185.35q-7.89 0-13.8-2.35 6.705 3.2 15.9 3.2 9.8 0 19.5-3.9.242-.1.475-.2 1.16-.497 2.175-1l.2-.1.4-.2q.05-.027.1-.05l.1-.05 5.525-4.325q.944-1.338 1.025-2.725v-.2q-.016-1.457-1.05-2.775-1.024-1.303-3.05-2.475-.026-.01-.05-.025-1.902-1.107-4.7-2.1 6.6 2.8 6.6 6.425 0 4.7-9.95 8.85-9.55 4-19.4 4"/><path fill="#999" d="M57.45 0Q36.45 0 19 39.3 3.2 75.05 3.6 106.45q.3 27.95 16.5 47.6 16.2 19.8 38.75 19.8t38.35-19.8q15.65-19.65 15.35-47.6-.4-31.85-16.45-67.15Q78.25.15 57.45 0"/><path fill="#FFF" d="M60.25 8.15q-19.55 0-35.75 36.4Q9.85 77.8 10.15 107q.25 25.9 15.35 44.3 14.95 18.25 36 18.25 21 0 35.55-18.25 14.55-18.25 14.25-44.3-.4-29.5-15.2-62.45-16.6-36.4-35.85-36.4"/></svg>