<svg baseProfile="basic" width="63" height="40" viewBox="0 0 63 40" xmlns="http://www.w3.org/2000/svg"><path fill="#FFF" d="M9.05 5.65L0 .05 1.15 10.3q1.55 10.6 3.1 12.2Q6.9 25 9.95 33.45l2.85-3.2Q10.1 22.3 8.7 19.8q-.6-1.1-.2-7.75l.55-6.4"/><path fill="none" stroke="#999" stroke-width=".75" stroke-linecap="round" stroke-linejoin="round" d="M0 .05L1.15 10.3q1.55 10.6 3.1 12.2Q6.9 25 9.95 33.45l2.85-3.2Q10.1 22.3 8.7 19.8q-.6-1.1-.2-7.75l.55-6.4-.55 6.4q-.4 6.65.2 7.75 1.4 2.5 4.1 10.45l-2.85 3.2Q6.9 25 4.25 22.5q-1.55-1.6-3.1-12.2L0 .05"/><path fill="#FFF" d="M19.8 27.2l-.25.15q-4.4-3.95-9.9-2.25-2.7.9-3.35 3.15-.8 2.2.95 4.35.9 1.15 2.65 2.2.25.9.9 1.75.9 1.15 2.75 1.7 1.95.7 5.65 0 3.15-.55 4.1-1.1 1.1-.7.4-1.9-1.3-2.05-2.2-2.4l.2-1q1.4.9 2.1.45 1.45-.8-.55-3.35-2-2.6-3.45-1.75"/><path fill="none" stroke="#999" stroke-width=".75" stroke-linecap="round" stroke-linejoin="round" d="M19.8 27.2q1.45-.85 3.45 1.75 2 2.55.55 3.35-.7.45-2.1-.45l-.2 1q.9.35 2.2 2.4.7 1.2-.4 1.9-.95.55-4.1 1.1-3.7.7-5.65 0-1.85-.55-2.75-1.7-.65-.85-.9-1.75-1.75-1.05-2.65-2.2-1.75-2.15-.95-4.35.65-2.25 3.35-3.15 5.5-1.7 9.9 2.25l.25-.15"/><path fill="#217FB8" d="M43.85 30.25l-.9-4L21.1 31.3q-.5.1 0 2.15.35 2 .9 1.85l21.85-5.05"/><path fill="#91017E" d="M20.95 33.45q.5 1.9.95 1.9l.7-.2q-.45-.15-.8-1.85-.5-1.75-.1-2.15l-.75.15q-.35.1 0 2.15M43.8 30.3q.5-.1 0-2.15-.35-2-.9-1.85-.5.15 0 2.1.4 2.05.9 1.9"/><path fill="#48003F" d="M56 15.85q-4.4-2.75-9.45-1.6-5.05 1.2-7.75 5.55t-1.6 9.4q1.2 5.05 5.55 7.85 4.35 2.7 9.4 1.5Q57.2 37.45 60 33q2.75-4.35 1.6-9.4-1.2-5.05-5.6-7.75"/><path fill="#91017E" d="M56.3 16.55q-4.35-2.7-9.4-1.55-5.05 1.2-7.8 5.55-2.7 4.3-1.6 9.3 1.15 4.9 5.55 7.6 4.35 2.7 9.4 1.5 5.05-1.1 7.8-5.45 2.8-4.35 1.6-9.3-1.1-4.95-5.55-7.65"/><path fill="#48003F" d="M55.85 17.85q-3.9-2.4-8.3-1.4-4.45 1.05-6.85 4.95-2.45 3.85-1.4 8.3.95 4.4 4.85 6.85Q48 38.95 52.5 38q4.45-1.05 6.85-4.9 2.45-3.9 1.4-8.3-1.05-4.5-4.9-6.95"/><path fill="#92CDDA" d="M55.5 17.5q-3.8-2.4-8.3-1.45-4.45 1.05-6.85 4.9-2.45 3.9-1.45 8.35 1 4.45 4.9 6.9 3.85 2.4 8.3 1.4 4.5-1.05 6.9-4.95 2.45-3.85 1.4-8.3-1.05-4.4-4.9-6.85"/><path fill="#65AECC" d="M49.7 37.05q1.35 0 2.45-.3 4.1-1.05 6.2-4.65 2.1-3.5 1.1-7.55-.85-3.3-3.6-5.45 2.15 2 2.85 4.85 1 4-1.15 7.55-2.05 3.6-6.15 4.65-1.1.25-2.4.25-3.4 0-6.15-2.05 2.9 2.7 6.85 2.7"/><path fill="none" stroke="#999" stroke-width=".85" stroke-linecap="round" stroke-linejoin="round" d="M23.65 30.4q-.9-.2-1.75 0-1.65.45-1 2.45 1.1 3.55 3.25 3.7-2.15-.15-3.25-3.7-.65-2 1-2.45.85-.2 1.75 0"/></svg>