<?xml version="1.0" encoding="utf-8"?><svg xmlns:xlink="http://www.w3.org/1999/xlink" id="Cena_1" image-rendering="auto" baseProfile="basic" version="1.1" x="0px" y="0px" width="63" height="40" viewBox="0 0 63 40" xmlns="http://www.w3.org/2000/svg"><g transform="matrix(1 0 0 1 31.1 19.65)" id="mc_02"><path fill="#FFF" d="M-22.05,-14L-31.1,-19.6 -29.95,-9.35Q-28.4,1.25 -26.85,2.85 -24.2,5.35 -21.15,13.8L-18.3,10.6Q-21,2.65 -22.4,0.15 -23,-0.95 -22.6,-7.6L-22.05,-14"/><path fill="none" stroke="#999" stroke-width="0.75" stroke-linecap="round" stroke-linejoin="round" d="M-31.1,-19.6L-29.95,-9.35Q-28.4,1.25 -26.85,2.85 -24.2,5.35 -21.15,13.8L-18.3,10.6Q-21,2.65 -22.4,0.15 -23,-0.95 -22.6,-7.6L-22.05,-14 -22.6,-7.6Q-23,-0.95 -22.4,0.15 -21,2.65 -18.3,10.6L-21.15,13.8Q-24.2,5.35 -26.85,2.85 -28.4,1.25 -29.95,-9.35L-31.1,-19.6"/><path fill="#FFF" d="M-11.3,7.55L-11.55,7.7Q-15.95,3.75 -21.45,5.45 -24.15,6.35 -24.8,8.6 -25.6,10.8 -23.85,12.95 -22.95,14.1 -21.2,15.15 -20.95,16.05 -20.3,16.9 -19.4,18.05 -17.55,18.6 -15.6,19.3 -11.9,18.6 -8.75,18.05 -7.8,17.5 -6.7,16.8 -7.4,15.6 -8.7,13.55 -9.6,13.2L-9.4,12.2Q-8,13.1 -7.3,12.65 -5.85,11.85 -7.85,9.3 -9.85,6.7 -11.3,7.55"/><path fill="none" stroke="#999" stroke-width="0.75" stroke-linecap="round" stroke-linejoin="round" d="M-11.3,7.55Q-9.85,6.7 -7.85,9.3 -5.85,11.85 -7.3,12.65 -8,13.1 -9.4,12.2L-9.6,13.2Q-8.7,13.55 -7.4,15.6 -6.7,16.8 -7.8,17.5 -8.75,18.05 -11.9,18.6 -15.6,19.3 -17.55,18.6 -19.4,18.05 -20.3,16.9 -20.95,16.05 -21.2,15.15 -22.95,14.1 -23.85,12.95 -25.6,10.8 -24.8,8.6 -24.15,6.35 -21.45,5.45 -15.95,3.75 -11.55,7.7L-11.3,7.55"/><path fill="#217FB8" d="M12.75,10.6L11.85,6.6 -10,11.65Q-10.5,11.75 -10,13.8 -9.65,15.8 -9.1,15.65L12.75,10.6"/><path fill="#91017E" d="M-10.15,13.8Q-9.65,15.7 -9.2,15.7L-8.5,15.5Q-8.95,15.35 -9.3,13.65 -9.8,11.9 -9.4,11.5L-10.15,11.65Q-10.5,11.75 -10.15,13.8"/><path fill="#91017E" d="M12.7,10.65Q13.2,10.55 12.7,8.5 12.35,6.5 11.8,6.65 11.3,6.8 11.8,8.75 12.2,10.8 12.7,10.65"/><path fill="#48003F" d="M24.9,-3.8Q20.5,-6.55 15.45,-5.4 10.4,-4.2 7.7,0.15 5,4.5 6.1,9.55 7.3,14.6 11.65,17.4 16,20.1 21.05,18.9 26.1,17.8 28.9,13.35 31.65,9 30.5,3.95 29.3,-1.1 24.9,-3.8"/><path fill="#91017E" d="M25.2,-3.1Q20.85,-5.8 15.8,-4.65 10.75,-3.45 8,0.9 5.3,5.2 6.4,10.2 7.55,15.1 11.95,17.8 16.3,20.5 21.35,19.3 26.4,18.2 29.15,13.85 31.95,9.5 30.75,4.55 29.65,-0.4 25.2,-3.1"/><path fill="#48003F" d="M24.75,-1.8Q20.85,-4.2 16.45,-3.2 12,-2.15 9.6,1.75 7.15,5.6 8.2,10.05 9.15,14.45 13.05,16.9 16.9,19.3 21.4,18.35 25.85,17.3 28.25,13.45 30.7,9.55 29.65,5.15 28.6,0.65 24.75,-1.8"/><path fill="#92CDDA" d="M24.4,-2.15Q20.6,-4.55 16.1,-3.6 11.65,-2.55 9.25,1.3 6.8,5.2 7.8,9.65 8.8,14.1 12.7,16.55 16.55,18.95 21,17.95 25.5,16.9 27.9,13 30.35,9.15 29.3,4.7 28.25,0.3 24.4,-2.15"/><path fill="#65AECC" d="M18.6,17.4Q19.95,17.4 21.05,17.1 25.15,16.05 27.25,12.45 29.35,8.95 28.35,4.9 27.5,1.6 24.75,-0.55 26.9,1.45 27.6,4.3 28.6,8.3 26.45,11.85 24.4,15.45 20.3,16.5 19.2,16.75 17.9,16.75 14.5,16.75 11.75,14.7 14.65,17.4 18.6,17.4"/><path fill="none" stroke="#999" stroke-width="0.85" stroke-linecap="round" stroke-linejoin="round" d="M-7.45,10.75Q-8.35,10.55 -9.2,10.75 -10.85,11.2 -10.2,13.2 -9.1,16.75 -6.95,16.9 -9.1,16.75 -10.2,13.2 -10.85,11.2 -9.2,10.75 -8.35,10.55 -7.45,10.75"/></g><defs/></svg>