<?xml version="1.0" encoding="utf-8"?><svg xmlns:xlink="http://www.w3.org/1999/xlink" id="Cena_1" image-rendering="auto" baseProfile="basic" version="1.1" x="0px" y="0px" width="92" height="83" viewBox="0 0 92 83" xmlns="http://www.w3.org/2000/svg"><g transform="matrix(1 0 0 1 -16.699 0.1)" id="mc_01"><path fill="#FFF" d="M36.7,42.7Q28.9,48.25 25.75,48.25 23.2,48.25 17.25,42.95L17.25,50.45Q24.8,53.45 27.2,53.45 30.55,53.45 37.4,47.1L36.7,42.7"/><path fill="none" stroke="#999" stroke-width="0.75" stroke-linecap="round" stroke-linejoin="round" d="M37.4,47.1L36.7,42.7Q28.9,48.25 25.75,48.25 23.1,48.25 16.8,42.55 23.1,48.25 25.75,48.25 28.9,48.25 36.7,42.7L37.4,47.1Q30.55,53.45 27.2,53.45 24.7,53.45 16.8,50.25 24.7,53.45 27.2,53.45 30.55,53.45 37.4,47.1"/><path fill="#7738A7" d="M74.85,22.65L46.55,0 39.5,55.7 77.55,82.15 108.6,37.7 74.85,22.65"/><path fill="none" stroke="#7738A7" stroke-width="0.9" stroke-linecap="round" stroke-linejoin="round" d="M74.85,22.65L108.6,37.7 77.55,82.15 39.5,55.7 46.55,0 74.85,22.65"/><path fill="none" stroke="#FFF" stroke-width="0.65" stroke-linecap="round" stroke-linejoin="round" d="M81.9,64Q84.8,61.2 85,52.55 85.25,43.4 80.4,43.4 76.9,43.4 71.45,51 66,58.55 62.05,58.55 57.2,58.55 56.35,48.95L56.45,39.25 56.35,48.95Q57.2,58.55 62.05,58.55 66,58.55 71.45,51 76.9,43.4 80.4,43.4 85.25,43.4 85,52.55 84.8,61.2 81.9,64 79,66.8 78.3,72.35 78.05,75.1 78.25,77.3 78.05,75.1 78.3,72.35 79,66.8 81.9,64"/><path fill="#FFF" d="M56.65,20.3Q54.9,20.35 53.25,24.35 51.8,27.95 51.6,31.05 51.4,34.1 52.65,36 53.8,37.85 55.6,37.7 59.2,37.5 60.4,31.3L60.45,30.85 57.4,31.3 57.8,32.4 59.15,32.25Q57.7,35.85 55.75,36.05 54.45,36.05 53.65,34.9 52.55,33.35 52.7,30.85 52.85,28.25 54.1,25.25 55.45,22 56.7,21.95 58.8,21.8 59.85,28.1L59.9,28.4 60.45,28.3 60.4,27.95Q59.7,23.55 58.45,21.5 57.6,20.15 56.65,20.3"/><path fill="#FFF" d="M57.2,18.6L58.5,13.45 56.85,13.55 57.2,18.6"/><path fill="#FFF" d="M59.95,20.75L62.8,16.7 61.3,15.9 59.95,20.75"/><path fill="#FFF" d="M60.8,25.1L64.6,22.9 63.45,21.4 60.8,25.1"/><path fill="#FFF" d="M51.05,16.7L54.35,19.95 52.4,15.5 51.05,16.7"/><path fill="#FFF" d="M48.15,22.85L52.15,24 49.05,21.05 48.15,22.85"/><path fill="#9E83BC" d="M63.9,35.35Q63.1,38.85 62.45,42.1L61.35,47.25Q60.45,52.45 61.75,52.45 63.35,52.45 66.95,49.75 70.5,47.15 72.65,44.3 73.95,42.55 77.75,39.8 80.95,37.6 81.2,36.15 81.65,33.5 80.25,30.25 78.5,26.35 75.2,25.1 69.85,23.1 66.75,27 65.65,28.3 63.9,35.35"/><path fill="none" stroke="#9E83BC" stroke-width="0.9" stroke-linecap="round" stroke-linejoin="round" d="M63.9,35.35Q65.65,28.3 66.75,27 69.85,23.1 75.2,25.1 78.5,26.35 80.25,30.25 81.65,33.5 81.2,36.15 80.95,37.6 77.75,39.8 73.95,42.55 72.65,44.3 70.5,47.15 66.95,49.75 63.35,52.45 61.75,52.45 60.45,52.45 61.35,47.25L62.45,42.1Q63.1,38.85 63.9,35.35"/><path fill="#9E83BC" d="M57.2,65.25L75.35,78.05 74.1,71.9Q73.75,70.45 76.15,67.35 79.35,63.1 80.45,60.3 82.3,55.35 81.35,51.65 80.45,48.4 78.45,48.6 77.2,48.65 75.7,50.6L71.55,57.05Q69.15,59.3 67.35,61.25 65.5,63.25 57.2,65.25"/><path fill="none" stroke="#9E83BC" stroke-width="0.9" stroke-linecap="round" stroke-linejoin="round" d="M57.2,65.25Q65.5,63.25 67.35,61.25 69.15,59.3 71.55,57.05L75.7,50.6Q77.2,48.65 78.45,48.6 80.45,48.4 81.35,51.65 82.3,55.35 80.45,60.3 79.35,63.1 76.15,67.35 73.75,70.45 74.1,71.9L75.35,78.05 57.2,65.25"/><path fill="#9E83BC" d="M49.7,34.45Q49.3,32.25 47.5,31.15 45.55,30.05 44.6,32.8 43.75,35.5 42.6,43.95 41.55,51.5 41.55,53.1 41.55,54.8 53.6,62.65L53.8,62.75 51.3,52.45Q50.2,36.9 49.7,34.45"/><path fill="none" stroke="#9E83BC" stroke-width="0.9" stroke-linecap="round" stroke-linejoin="round" d="M49.7,34.45Q50.2,36.9 51.3,52.45L53.8,62.75 53.6,62.65Q41.55,54.8 41.55,53.1 41.55,51.5 42.6,43.95 43.75,35.5 44.6,32.8 45.55,30.05 47.5,31.15 49.3,32.25 49.7,34.45"/><path fill="#FFF" d="M41.15,39.15Q44.4,40.7 45.3,39.1 45.5,38.55 45.45,38.05L45.35,37.65Q44.8,36 42.4,34.35 39.95,32.8 38.3,33.15 37.45,33.3 37.15,33.85 36.9,34.4 37,34.9 37.05,35.5 37.7,36.35 36.85,38.25 36.5,41.55L36.45,42.2 35.75,42.85 36.65,48.5 36.9,48.25Q37.25,49.3 38.1,49.5 40.5,50.1 41.05,42.7 41.3,41.05 41.15,39.15"/><path fill="none" stroke="#999" stroke-width="0.75" stroke-linecap="round" stroke-linejoin="round" d="M41.15,39.15Q41.3,41.05 41.05,42.7 40.5,50.1 38.1,49.5 37.25,49.3 36.9,48.25L36.65,48.5 35.75,42.85 36.45,42.2 36.5,41.55Q36.85,38.25 37.7,36.35 37.05,35.5 37,34.9 36.9,34.4 37.15,33.85 37.45,33.3 38.3,33.15 39.95,32.8 42.4,34.35 44.8,36 45.35,37.65L45.45,38.05Q45.5,38.55 45.3,39.1 44.4,40.7 41.15,39.15"/></g><defs/></svg>