<svg baseProfile="basic" width="92" height="83" viewBox="0 0 92 83" xmlns="http://www.w3.org/2000/svg"><path fill="#FFF" d="M20 42.8q-7.8 5.55-10.95 5.55-2.55 0-8.5-5.3v7.5q7.55 3 9.95 3 3.35 0 10.2-6.35l-.7-4.4"/><path fill="none" stroke="#999" stroke-width=".75" stroke-linecap="round" stroke-linejoin="round" d="M20.7 47.2l-.7-4.4q-7.8 5.55-10.95 5.55-2.65 0-8.95-5.7 6.3 5.7 8.95 5.7 3.15 0 10.95-5.55l.7 4.4q-6.85 6.35-10.2 6.35-2.5 0-10.4-3.2 7.9 3.2 10.4 3.2 3.35 0 10.2-6.35"/><path fill="#7738A7" d="M58.15 22.75L29.85.1 22.8 55.8l38.05 26.45L91.9 37.8 58.15 22.75"/><path fill="none" stroke="#7738A7" stroke-width=".9" stroke-linecap="round" stroke-linejoin="round" d="M58.15 22.75L91.9 37.8 60.85 82.25 22.8 55.8 29.85.1l28.3 22.65"/><path fill="none" stroke="#FFF" stroke-width=".65" stroke-linecap="round" stroke-linejoin="round" d="M65.2 64.1q2.9-2.8 3.1-11.45.25-9.15-4.6-9.15-3.5 0-8.95 7.6-5.45 7.55-9.4 7.55-4.85 0-5.7-9.6l.1-9.7-.1 9.7q.85 9.6 5.7 9.6 3.95 0 9.4-7.55 5.45-7.6 8.95-7.6 4.85 0 4.6 9.15-.2 8.65-3.1 11.45-2.9 2.8-3.6 8.35-.25 2.75-.05 4.95-.2-2.2.05-4.95.7-5.55 3.6-8.35"/><path fill="#FFF" d="M39.95 20.4q-1.75.05-3.4 4.05-1.45 3.6-1.65 6.7-.2 3.05 1.05 4.95 1.15 1.85 2.95 1.7 3.6-.2 4.8-6.4l.05-.45-3.05.45.4 1.1 1.35-.15q-1.45 3.6-3.4 3.8-1.3 0-2.1-1.15-1.1-1.55-.95-4.05.15-2.6 1.4-5.6 1.35-3.25 2.6-3.3 2.1-.15 3.15 6.15l.05.3.55-.1-.05-.35q-.7-4.4-1.95-6.45-.85-1.35-1.8-1.2M40.5 18.7l1.3-5.15-1.65.1.35 5.05M43.25 20.85l2.85-4.05-1.5-.8-1.35 4.85M44.1 25.2l3.8-2.2-1.15-1.5-2.65 3.7M34.35 16.8l3.3 3.25-1.95-4.45-1.35 1.2M31.45 22.95l4 1.15-3.1-2.95-.9 1.8"/><path fill="#9E83BC" d="M47.2 35.45q-.8 3.5-1.45 6.75l-1.1 5.15q-.9 5.2.4 5.2 1.6 0 5.2-2.7 3.55-2.6 5.7-5.45 1.3-1.75 5.1-4.5 3.2-2.2 3.45-3.65.45-2.65-.95-5.9-1.75-3.9-5.05-5.15-5.35-2-8.45 1.9-1.1 1.3-2.85 8.35"/><path fill="none" stroke="#9E83BC" stroke-width=".9" stroke-linecap="round" stroke-linejoin="round" d="M47.2 35.45q1.75-7.05 2.85-8.35 3.1-3.9 8.45-1.9 3.3 1.25 5.05 5.15 1.4 3.25.95 5.9-.25 1.45-3.45 3.65-3.8 2.75-5.1 4.5-2.15 2.85-5.7 5.45-3.6 2.7-5.2 2.7-1.3 0-.4-5.2l1.1-5.15q.65-3.25 1.45-6.75"/><path fill="#9E83BC" d="M40.5 65.35l18.15 12.8L57.4 72q-.35-1.45 2.05-4.55 3.2-4.25 4.3-7.05 1.85-4.95.9-8.65-.9-3.25-2.9-3.05-1.25.05-2.75 2l-4.15 6.45q-2.4 2.25-4.2 4.2-1.85 2-10.15 4"/><path fill="none" stroke="#9E83BC" stroke-width=".9" stroke-linecap="round" stroke-linejoin="round" d="M40.5 65.35q8.3-2 10.15-4 1.8-1.95 4.2-4.2L59 50.7q1.5-1.95 2.75-2 2-.2 2.9 3.05.95 3.7-.9 8.65-1.1 2.8-4.3 7.05-2.4 3.1-2.05 4.55l1.25 6.15-18.15-12.8"/><path fill="#9E83BC" d="M33 34.55q-.4-2.2-2.2-3.3-1.95-1.1-2.9 1.65-.85 2.7-2 11.15-1.05 7.55-1.05 9.15 0 1.7 12.05 9.55l.2.1-2.5-10.3Q33.5 37 33 34.55"/><path fill="none" stroke="#9E83BC" stroke-width=".9" stroke-linecap="round" stroke-linejoin="round" d="M33 34.55q.5 2.45 1.6 18l2.5 10.3-.2-.1Q24.85 54.9 24.85 53.2q0-1.6 1.05-9.15 1.15-8.45 2-11.15.95-2.75 2.9-1.65 1.8 1.1 2.2 3.3"/><path fill="#FFF" d="M24.45 39.25q3.25 1.55 4.15-.05.2-.55.15-1.05l-.1-.4q-.55-1.65-2.95-3.3-2.45-1.55-4.1-1.2-.85.15-1.15.7-.25.55-.15 1.05.05.6.7 1.45-.85 1.9-1.2 5.2l-.05.65-.7.65.9 5.65.25-.25q.35 1.05 1.2 1.25 2.4.6 2.95-6.8.25-1.65.1-3.55"/><path fill="none" stroke="#999" stroke-width=".75" stroke-linecap="round" stroke-linejoin="round" d="M24.45 39.25q.15 1.9-.1 3.55-.55 7.4-2.95 6.8-.85-.2-1.2-1.25l-.25.25-.9-5.65.7-.65.05-.65q.35-3.3 1.2-5.2-.65-.85-.7-1.45-.1-.5.15-1.05.3-.55 1.15-.7 1.65-.35 4.1 1.2 2.4 1.65 2.95 3.3l.1.4q.05.5-.15 1.05-.9 1.6-4.15.05"/></svg>