<svg baseProfile="basic" width="43" height="26" viewBox="0 0 43 26" xmlns="http://www.w3.org/2000/svg"><path d="M16.35 11.1l-.15-2.975L1.825 2.45l-1.8 4.025L16.35 11.1"/><path fill="none" stroke="#FFF" stroke-width=".375" stroke-linecap="round" stroke-linejoin="round" d="M16.35 11.1L.025 6.475l1.8-4.025L16.2 8.125l.15 2.975"/><path d="M30.525 11.1H28.25l.275 1.675h2.3l-.3-1.675M14.75 1.275l.975 2.775 6.65-1.6-7.625-1.175M39.75.025l-6.725 2.5 7.125.35-.4-2.85"/><path fill="none" stroke="#999" stroke-width=".45" stroke-linecap="round" stroke-linejoin="round" d="M41.2 25.025Q27.825 27.3 15.175 24.05q12.65 3.25 26.025.975"/><path fill="#FFF" d="M40.375 7.225q-2.025-1.8-4.5-1.8-2.5 0-3.95 1.8-1.45 1.75-1.05 4.225.35 2.425 2.425 4.225 2 1.725 4.5 1.725 2.425 0 3.95-1.725 1.45-1.8 1.025-4.225-.4-2.475-2.4-4.225"/><path fill="none" stroke="#000" stroke-width=".475" stroke-linecap="round" stroke-linejoin="round" d="M40.375 7.225q2 1.75 2.4 4.225.425 2.425-1.025 4.225Q40.225 17.4 37.8 17.4q-2.5 0-4.5-1.725-2.075-1.8-2.425-4.225-.4-2.475 1.05-4.225 1.45-1.8 3.95-1.8 2.475 0 4.5 1.8"/><path d="M37.45 8.55q-2.75 0-2.275 2.7.35 2.775 3.175 2.775 2.775 0 2.3-2.775-.35-2.7-3.2-2.7"/><path fill="#FFF" d="M38 8.825q-1.8 0-1.45 1.725.275 1.725 2.025 1.725 1.725 0 1.45-1.725Q39.75 8.825 38 8.825"/><path fill="none" stroke="#000" stroke-width=".075" stroke-linecap="round" stroke-linejoin="round" d="M38 8.825q1.75 0 2.025 1.725.275 1.725-1.45 1.725-1.75 0-2.025-1.725Q36.2 8.825 38 8.825"/><path fill="#FFF" d="M27.775 11.525q-.35-2.5-2.425-4.225-2-1.8-4.5-1.8-2.425 0-3.95 1.8-1.45 1.725-1.025 4.225.4 2.425 2.4 4.225 2.1 1.725 4.5 1.725 2.5 0 3.95-1.725 1.45-1.8 1.05-4.225"/><path fill="none" stroke="#000" stroke-width=".475" stroke-linecap="round" stroke-linejoin="round" d="M27.775 11.525q.4 2.425-1.05 4.225-1.45 1.725-3.95 1.725-2.4 0-4.5-1.725-2-1.8-2.4-4.225-.425-2.5 1.025-4.225 1.525-1.8 3.95-1.8 2.5 0 4.5 1.8 2.075 1.725 2.425 4.225"/><path d="M25.475 11.25Q25 8.55 22.3 8.55q-2.7 0-2.35 2.7.475 2.775 3.175 2.775 2.7 0 2.35-2.775"/><path fill="#FFF" d="M23.35 12.275q1.8 0 1.5-1.725-.325-1.725-2.075-1.725-1.725 0-1.45 1.725.275 1.725 2.025 1.725"/><path fill="none" stroke="#000" stroke-width=".075" stroke-linecap="round" stroke-linejoin="round" d="M23.35 12.275q-1.75 0-2.025-1.725-.275-1.725 1.45-1.725 1.75 0 2.075 1.725.3 1.725-1.5 1.725"/></svg>