<?xml version="1.0" encoding="utf-8"?><svg xmlns:xlink="http://www.w3.org/1999/xlink" id="Cena_1" image-rendering="auto" baseProfile="basic" version="1.1" x="0px" y="0px" width="43" height="26" viewBox="0 0 43 26" xmlns="http://www.w3.org/2000/svg"><g transform="matrix(0.5 0 0 0.5 21.45 13)" id="mc_03"><path fill="#000" d="M-10.2,-3.8L-10.5,-9.75 -39.25,-21.1 -42.85,-13.05 -10.2,-3.8"/><path fill="none" stroke="#FFF" stroke-width="0.75" stroke-linecap="round" stroke-linejoin="round" d="M-10.2,-3.8L-42.85,-13.05 -39.25,-21.1 -10.5,-9.75 -10.2,-3.8"/><path fill="#000" d="M18.15,-3.8L13.6,-3.8 14.15,-0.45 18.75,-0.45 18.15,-3.8"/><path fill="#000" d="M-13.4,-23.45L-11.45,-17.9 1.85,-21.1 -13.4,-23.45"/><path fill="#000" d="M36.6,-25.95L23.15,-20.95 37.4,-20.25 36.6,-25.95"/><path fill="none" stroke="#999" stroke-width="0.9" stroke-linecap="round" stroke-linejoin="round" d="M39.5,24.05Q12.75,28.6 -12.55,22.1 12.75,28.6 39.5,24.05"/><path fill="#FFF" d="M37.85,-11.55Q33.8,-15.15 28.85,-15.15 23.85,-15.15 20.95,-11.55 18.05,-8.05 18.85,-3.1 19.55,1.75 23.7,5.35 27.7,8.8 32.7,8.8 37.55,8.8 40.6,5.35 43.5,1.75 42.65,-3.1 41.85,-8.05 37.85,-11.55"/><path fill="none" stroke="#000" stroke-width="0.95" stroke-linecap="round" stroke-linejoin="round" d="M37.85,-11.55Q41.85,-8.05 42.65,-3.1 43.5,1.75 40.6,5.35 37.55,8.8 32.7,8.8 27.7,8.8 23.7,5.35 19.55,1.75 18.85,-3.1 18.05,-8.05 20.95,-11.55 23.85,-15.15 28.85,-15.15 33.8,-15.15 37.85,-11.55"/><path fill="#000" d="M32,-8.9Q26.5,-8.9 27.45,-3.5 28.15,2.05 33.8,2.05 39.35,2.05 38.4,-3.5 37.7,-8.9 32,-8.9"/><path fill="#FFF" d="M33.1,-8.35Q29.5,-8.35 30.2,-4.9 30.75,-1.45 34.25,-1.45 37.7,-1.45 37.15,-4.9 36.6,-8.35 33.1,-8.35"/><path fill="none" stroke="#000" stroke-width="0.15" stroke-linecap="round" stroke-linejoin="round" d="M33.1,-8.35Q36.6,-8.35 37.15,-4.9 37.7,-1.45 34.25,-1.45 30.75,-1.45 30.2,-4.9 29.5,-8.35 33.1,-8.35"/><path fill="#FFF" d="M12.65,-2.95Q11.95,-7.95 7.8,-11.4 3.8,-15 -1.2,-15 -6.05,-15 -9.1,-11.4 -12,-7.95 -11.15,-2.95 -10.35,1.9 -6.35,5.5 -2.15,8.95 2.65,8.95 7.65,8.95 10.55,5.5 13.45,1.9 12.65,-2.95"/><path fill="none" stroke="#000" stroke-width="0.95" stroke-linecap="round" stroke-linejoin="round" d="M12.65,-2.95Q13.45,1.9 10.55,5.5 7.65,8.95 2.65,8.95 -2.15,8.95 -6.35,5.5 -10.35,1.9 -11.15,-2.95 -12,-7.95 -9.1,-11.4 -6.05,-15 -1.2,-15 3.8,-15 7.8,-11.4 11.95,-7.95 12.65,-2.95"/><path fill="#000" d="M8.05,-3.5Q7.1,-8.9 1.7,-8.9 -3.7,-8.9 -3,-3.5 -2.05,2.05 3.35,2.05 8.75,2.05 8.05,-3.5"/><path fill="#FFF" d="M3.8,-1.45Q7.4,-1.45 6.8,-4.9 6.15,-8.35 2.65,-8.35 -0.8,-8.35 -0.25,-4.9 0.3,-1.45 3.8,-1.45"/><path fill="none" stroke="#000" stroke-width="0.15" stroke-linecap="round" stroke-linejoin="round" d="M3.8,-1.45Q0.3,-1.45 -0.25,-4.9 -0.8,-8.35 2.65,-8.35 6.15,-8.35 6.8,-4.9 7.4,-1.45 3.8,-1.45"/></g><defs/></svg>