
<svg xmlns="http://www.w3.org/2000/svg" version="1.1" xmlns:xlink="http://www.w3.org/1999/xlink" preserveAspectRatio="none" x="0px" y="0px" width="201px" height="348px" viewBox="0 0 201 348">
<defs>
<g id="Interpola__o_1_0_Layer0_0_FILL">
<path fill="#B47657" stroke="none" d="
M 45.05 -60.8
Q 43.2 -65.8 41.5 -67.9 39.65 -70 38.05 -70.85 36.45 -71.55 34.6 -70.95 32.95 -70.4 32.95 -68.9 33.15 -67.35 35.5 -62.1 38 -56.75 36.95 -48.1 38.3 -44.6 35.7 -38.9 34.35 -35.45 32.35 -29.85
L -99.55 58.65 -90.45 72.25 41.2 -16.05 41.15 -16.15 42.15 -16.7 41.2 -16.05
Q 50.9 -13.3 62.9 -12.85 87 -12.35 88.25 -12.2
L 92.4 -15.05
Q 91.35 -16.65 88.2 -18.6 84.9 -20.6 82.3 -21.1 78.6 -21.15 76.15 -21.55 71.6 -22.15 70.8 -24.7
L 73.4 -26.45
Q 75.75 -27 85.55 -28.65 94.75 -30.25 96.5 -31.4 98.3 -32.6 99.55 -35.7 95.45 -38.35 84.1 -37.3 72.75 -35.8 70.8 -36.05
L 69.8 -37.6 72.85 -39.6
Q 74.15 -39.35 78.4 -40.9 82.5 -42.3 85.15 -43.55 87.85 -44.8 93.4 -48.35 99.1 -51.65 94.7 -54.3
L 94.35 -54.8
Q 89.1 -54.35 81.45 -51.6 70.15 -47.5 69.4 -47.15
L 68 -49.15
Q 71.45 -54.5 75.85 -59.95 80.25 -65.3 82.15 -68.45
L 79.65 -72.1
Q 77.1 -73.35 65.85 -61.35 62.55 -58 61.7 -56.6 61 -55.05 54.7 -49.5 48.35 -44 47.7 -49.9 47.1 -55.7 45.05 -60.8 Z"/>
</g>
</defs>

<g transform="matrix( 0.8828125, 0, 0, 0.8828125, 13,205.2) ">
<g transform="matrix( 1, 0, 0, 1, 99.55,72.2) ">
<g transform="matrix( 1, 0, 0, 1, 0,0) ">
<use xlink:href="#Interpola__o_1_0_Layer0_0_FILL"/>
</g>
</g>
</g>

<g transform="matrix( -0.8828125, 0, 0, 0.8828125, 187.55,28.5) ">
<g transform="matrix( 1, 0, 0, 1, 99.55,72.2) ">
<g transform="matrix( 1, 0, 0, 1, 0,0) ">
<use xlink:href="#Interpola__o_1_0_Layer0_0_FILL"/>
</g>
</g>
</g>
</svg>
