
<svg xmlns="http://www.w3.org/2000/svg" version="1.1" xmlns:xlink="http://www.w3.org/1999/xlink" preserveAspectRatio="none" x="0px" y="0px" width="201px" height="348px" viewBox="0 0 201 348">
<defs>
<linearGradient id="Gradient_1" gradientUnits="userSpaceOnUse" x1="110.89999999999999" y1="360.65000000000003" x2="95.3" y2="165.55" spreadMethod="pad">
<stop  offset="0%" stop-color="#D1BB90"/>

<stop  offset="100%" stop-color="#FFFFFF"/>
</linearGradient>

<g id="Interpolar_1_0_Layer0_0_FILL">
<path fill="#996600" stroke="none" d="
M 93.05 347.4
L 84.55 344.75 45.9 546.5
Q 45.1 554.55 51.8 550.05
L 93.05 347.4 Z"/>

<path fill="#774F00" stroke="none" d="
M 94.7 339.3
L 85.95 337.55 84.55 344.75 93.05 347.4 94.7 339.3 Z"/>

<path fill="url(#Gradient_1)" stroke="none" d="
M 85.95 337.55
L 94.7 339.3 175.75 355.4 205.6 205.6 30.45 170.7 0.55 320.5 85.95 337.55 Z"/>
</g>

<g id="Interpolar_1_0_Layer0_1_FILL">
<path fill="#000000" stroke="none" d="
M 114.6 213.3
Q 112.85 206.5 103.4 218.3 96.65 224.15 104.75 257.1 104.65 257.2 104.4 257.4 104.4 257.55 104.25 257.65 104 257.8 103.95 258 102.5 259.85 101 261.7 100.5 262.15 100.15 262.5
L 100.05 262.65
Q 99.5 262.05 98.75 261.7
L 98.55 261.7
Q 98.2 260.9 98 260.1 97.85 259.05 97.55 258.25 96.6 254.65 95.5 251.3 93.1 249.8 92.65 251.3 92.35 253.75 91.9 256.6 90.75 255.4 89.75 254.5 88.45 254.25 87.85 255.05 87.55 255.5 87.4 256.1 87.15 256.35 87 256.6 86.2 257.45 85.6 258.3 82.6 261.95 79.9 264.7 79.25 264.7 78.65 264.8 76.4 265.15 74.1 264.8 75 266.7 76.2 268.25 75.9 268.45 75.6 268.7 73.9 270.05 72.35 271.3 72.35 271.45 72.1 271.7
L 71.9 271.75
Q 70.45 271.25 69.7 270.7 68.5 270 68.95 271.25 69.5 272.1 70.6 272.55 70.6 272.7 70.4 272.7 66.7 274.85 63.65 275.3 62.85 275.4 62.05 275.35 59.9 275.3 58 274.25 57.45 274 56.85 273.65 54.1 271.55 52 267.35 52.1 267.2 51.95 267.2 50.95 265.65 51.7 269.4 51.65 269.7 51.7 269.85 53.15 273.75 55.65 275.7 56.3 276.15 56.95 276.6 57.45 276.9 57.95 277.15 59.45 278.05 61.3 278.1 61.4 278.1 61.8 278.2 62.6 278.05 63.4 277.85
L 63.85 278
Q 67.4 277.3 71.35 274.7 72.05 274.25 72.75 273.65 73.65 274.1 74.75 274.3 75.3 274.55 76 274.75 77.1 275 78.3 275.3 79.85 275.5 81.3 275.6 80.3 275.75 79.3 275.85 76.3 276.25 73.3 276.7 72.75 277.05 72.65 277.55
L 72.55 277.55 72.55 277.65
Q 72.45 277.9 72.45 278.35 72.55 278.75 72.7 279.05 72.85 279.55 72.8 280.1 73.15 281.2 73.2 282.25 73.7 286.75 74 290.65 74 291.45 73.8 292.25 73.75 293.05 73.9 293.75 73.35 293.7 73 294 68.8 294.85 66.95 294.5 65.65 294.85 66.7 295.95 67.65 296.25 68.8 296.3 69.55 296.3 70.35 296.35 71.55 296.25 73.3 295.75 73.6 295.7 73.85 295.75 73.95 295.9 73.95 296.2 73.7 298.45 73.45 300.3 73.35 300.45 73.25 300.75 73.05 301.65 72.8 302.75 71.9 306.85 69.85 309.5 69.25 310.1 68.8 310.75 67 312.4 64.75 313.35 64 313.6 63.35 313.75 59.6 314.7 54.6 313.65 54.5 313.45 54.35 313.6 52.45 313.45 56 315.2 56.05 315.35 56.4 315.45 60.6 316.7 64 315.7 64.9 315.7 65.7 315.45 66.3 315.25 66.9 315.15 68.85 314.35 70.15 313.1 70.5 312.95 70.55 312.7 71.3 312.05 71.9 311.3 72.1 311.25 72.2 310.9 74.3 308.05 75.25 303.25 75.45 302.1 75.55 300.85 75.85 298.15 76 294.95 76.4 294.7 76.9 294.55 78.7 293.85 80.2 292.95 80.4 292.8 80.75 292.6
L 80.9 292.45
Q 81.5 292.05 81.8 291.8 84.55 289.95 86.8 287.05 86.95 286.55 87.4 286.1 87.8 285.55 88.25 285 88.45 284.65 88.75 284.2 89 283.65 89.2 283.2
L 90.05 278.6
Q 90.55 278.5 91.1 278.5 92.25 278.5 93.45 278.5 96.6 278.55 99.45 278.7 100.1 278.75 100.45 278.65 101.35 278.9 101.85 278.9 102.95 279.05 104.3 279.35 104.65 278.9 104.8 278.3 105 278.55 105.3 278.55 106.05 278.65 106.9 278.1 107.05 277.85 107.3 277.55 109.8 278.65 112.6 278.55
L 112.55 283.95
Q 114.15 290.05 117.05 293.55 118 297.45 119.95 300.65 123.45 306.35 126.1 307.1 127.25 306.95 126.5 306 124.6 304.9 120.9 299.85 120.05 297.75 119.5 295.9 123.2 298.75 125.25 297.6 126.15 296.65 125.4 296.35 123.7 296.6 119.75 294.2 119.2 293.55 118.6 292.75 117.95 289.6 118 286.7 119.35 281.95 121.05 277.4 121.75 278.75 123.25 279.5 124.7 280.3 126.15 280.2 126.7 280.35 127 280.25 127.6 280.3 127.95 280.1 128.2 280.15 128.4 279.85
L 138.65 304.3 139 304.25 130.1 278.95
Q 131 278.15 131.55 277.1 131.75 276.65 131.9 276.05 132.05 276.05 132.2 276.3 132.25 276 132.35 275.7 132.15 275.6 132.05 275.6 132.25 275.4 132.1 275.25 132.25 275.25 132.45 275.35 132.45 275.05 132.55 274.9 132.25 274.8 132.25 274.7 132.3 274.55 132.35 274.35 141.9 274.5 154.6 270.1
L 149.95 271.15
Q 141.9 273.8 132.35 273.7 132.3 273.4 132.2 273.1 140.8 271.75 148.65 268.25
L 153.25 266.15
Q 143.05 270.4 136.5 271.7 133.65 272.1 131.9 272.35 131.8 271.85 131.6 271.3 130.75 269.95 129.1 268.9 126.95 267.9 124.45 268.45 124.3 268.6 123.95 268.6 125.35 265.2 126.75 261.9
L 124.75 260.2
Q 122.5 262.5 120.2 264.7 120.2 264.6 120.05 264.35 118.7 261.3 116.05 259.7
L 131.7 222.7
Q 132.3 216.25 120.5 223.7 116.3 225.3 113.1 234.35
L 114.6 213.3
M 101.7 263.85
Q 101.6 263.7 101.45 263.65
L 105.2 259.35
Q 105.6 260.8 105.95 262.3 104.6 263.85 103.5 265.95 103.35 266.2 103.25 266.45 102.8 265.3 102 264.3
L 101.8 264.2
Q 101.85 263.85 101.7 263.85
M 120.8 271.4
Q 121.45 269.05 120.8 266.9
L 124.6 263.05 122.1 269.8
Q 121.4 270.35 120.8 271.4
M 93.65 258.2
L 94.15 254.45 95.85 260.3
Q 95.4 259.75 94.9 259.35 94.35 258.7 93.8 258.25
L 93.65 258.2
M 88.05 258.05
Q 88.15 257.75 88.4 257.45 89.85 258.9 91.35 260.4
L 91.25 260.55
Q 91.2 260.95 91.15 261.5
L 91.05 261.45
Q 89.05 262.05 88.85 262.2 86.65 263 84.75 263.65 84.45 263.75 84.25 263.8 83.65 263.85 83.2 264.1 82.9 264.15 82.7 264.3 84.1 262.55 85.7 260.95 85.95 260.4 86.4 260.1 87.15 259.15 88.05 258.05
M 81.75 273.1
L 81.85 273.1
Q 82.6 273.4 83.1 273.9 82.75 273.8 82.3 273.8 80.55 273.95 78.55 273.9 77.4 273.7 76.25 273.2 75.8 273.05 75.3 272.95 74.55 272.85 74.1 272.75 75.65 271.2 77.6 269.6 77.5 269.75 77.7 269.8 79.55 271.65 81.75 273.1
M 82.9 278.7
Q 83.9 278.65 84.8 278.6 86.4 278.55 87.95 278.55
L 87.95 278.6
Q 87.5 280.55 87.05 282.5 86.75 283.1 86.25 283.75 85.9 284.2 85.3 285 84.95 285.5 84.65 286 83.8 287.1 82.65 288.25 81.7 289.1 80.6 289.8 80.15 290.25 79.55 290.75 78.15 291.95 76.25 293 76.1 293.1 76 293.1 76.1 292.8 76.05 292.4 75.85 291.6 75.95 290.75 75.7 287.5 75.3 283.75 75.25 283.3 75.15 282.65 75.1 281.5 74.85 280.25 74.75 280 74.65 279.7 78.85 279.1 82.9 278.7
M 120.1 273.65
Q 120.101171875 274.406640625 120.25 275.2
L 116.2 285.95
Q 116.15 287.5 116.3 289.05 114.95 286.2 114.15 283.3 114.05 280.8 113.95 278.35 116.05 277.95 118.3 276.65 119.05 275.9 119.7 274.75 120.09375 274.0609375 120.1 273.65 Z"/>
</g>

<g id="Interpolar_1_0_Layer0_2_MEMBER_0_FILL">
<path fill="#990000" fill-opacity="0.5686274509803921" stroke="none" d="
M 305.45 218.5
Q 247.9 160.95 166.5 160.95 85.1 160.95 27.55 218.5 -30 276.05 -30 357.45 -30 438.85 27.55 496.4 85.1 553.95 166.5 553.95 247.9 553.95 305.45 496.4 363 438.85 363 357.45 363 276.05 305.45 218.5
M 166.45 189
Q 236.25 189 285.55 238.3 334.9 287.65 334.9 357.45 334.9 427.25 285.55 476.55 236.25 525.9 166.45 525.9 96.65 525.9 47.3 476.55 -2 427.25 -2 357.45 -2 287.65 47.3 238.3 96.65 189 166.45 189 Z"/>
</g>

<g id="Interpolar_1_0_Layer0_2_MEMBER_1_FILL">
<path fill="#990000" fill-opacity="0.5686274509803921" stroke="none" d="
M 374 376.95
Q 374 313.15 328.9 268.05 283.8 222.95 220 222.95 156.2 222.95 111.1 268.05 66 313.15 66 376.95 66 440.75 111.1 485.85 156.2 530.95 220 530.95 283.8 530.95 328.9 485.85 374 440.75 374 376.95
M 78.45 376.95
Q 78.45 318.35 119.9 276.9 161.35 235.45 219.95 235.45 278.55 235.45 320 276.9 361.45 318.35 361.45 376.95 361.45 435.55 320 477 278.55 518.45 219.95 518.45 161.35 518.45 119.9 477 78.45 435.55 78.45 376.95 Z"/>
</g>

<g id="Interpolar_1_0_Layer0_2_MEMBER_2_FILL">
<path fill="#990000" fill-opacity="0.5686274509803921" stroke="none" d="
M 143.9 79.05
Q 140.85 76 136.5 76 132.15 76 129.05 79.05 126 82.15 126 86.5
L 126 252.5
Q 126 256.85 129.05 259.9 132.15 263 136.5 263 140.85 263 143.9 259.9 147 256.85 147 252.5
L 147 86.5
Q 147 82.15 143.9 79.05 Z"/>
</g>

<g id="Interpolar_1_0_Layer0_2_MEMBER_3_FILL">
<path fill="#990000" fill-opacity="0.5686274509803921" stroke="none" d="
M 143.9 79.05
Q 140.85 76 136.5 76 132.15 76 129.05 79.05 126 82.15 126 86.5
L 126 252.5
Q 126 256.85 129.05 259.9 132.15 263 136.5 263 140.85 263 143.9 259.9 147 256.85 147 252.5
L 147 86.5
Q 147 82.15 143.9 79.05 Z"/>
</g>

<g id="Interpolar_1_0_Layer0_2_MEMBER_4_FILL">
<path fill="#990000" fill-opacity="0.5686274509803921" stroke="none" d="
M 143.9 79.05
Q 140.85 76 136.5 76 132.15 76 129.05 79.05 126 82.15 126 86.5
L 126 252.5
Q 126 256.85 129.05 259.9 132.15 263 136.5 263 140.85 263 143.9 259.9 147 256.85 147 252.5
L 147 86.5
Q 147 82.15 143.9 79.05 Z"/>
</g>

<g id="Interpolar_1_0_Layer0_2_MEMBER_5_FILL">
<path fill="#990000" fill-opacity="0.5686274509803921" stroke="none" d="
M 143.9 79.05
Q 140.85 76 136.5 76 132.15 76 129.05 79.05 126 82.15 126 86.5
L 126 252.5
Q 126 256.85 129.05 259.9 132.15 263 136.5 263 140.85 263 143.9 259.9 147 256.85 147 252.5
L 147 86.5
Q 147 82.15 143.9 79.05 Z"/>
</g>

<g id="Interpolar_1_0_Layer0_3_MEMBER_0_FILL">
<path fill="#B47657" stroke="none" d="
M 36.9 193.05
L 43.1 179.05
Q -18.2 206.2 -43.9 108.95
L -49.8 124.1
Q -27.25 205.75 36.9 193.05 Z"/>
</g>

<g id="Interpolar_1_0_Layer0_3_MEMBER_1_FILL">
<path fill="#B47657" stroke="none" d="
M -30.35 109.25
Q -31.35 108.55 -32.3 108 -38.1 104.7 -41.1 108.85 -41.3 108.8 -41.5 108.65 -41.85 108.5 -42.3 108.25 -49.05 105.15 -54.75 106.25 -61.05 107.35 -61.3 120.6 -61.45 120.5 -66.1 123.2 -71.1 126.05 -64.45 135.9 -67.5 137.35 -68.15 142.6 -68.6 146.35 -54.85 153.55 -43.65 157.8 -35.25 154.75 -26.2 151.45 -21.8 142.6 -20.55 140.1 -19.8 137.5 -18.15 131.05 -20.25 124.1 -21.2 121 -22.55 118.4 -25.45 112.8 -30.35 109.25
M -41.05 136.65
Q -50.25 142.4 -53.65 131.8 -53.4 120.75 -48.4 114.95 -51.35 120.3 -51.5 128.75 -48.15 139.15 -39.1 133.65
L -41.05 136.65 Z"/>

<path fill="#80543E" stroke="none" d="
M -53.65 131.8
Q -50.25 142.4 -41.05 136.65
L -39.1 133.65
Q -48.15 139.15 -51.5 128.75 -51.35 120.3 -48.4 114.95 -53.4 120.75 -53.65 131.8 Z"/>
</g>
</defs>

<g transform="matrix( 0.83831787109375, 0, 0, 0.83831787109375, 16.9,13.95) ">
<g transform="matrix( 1, 0, 0, 1, 102.5,194.75) ">
<g transform="matrix( 1, 0, 0, 1, -103.05,-365.45) ">
<use xlink:href="#Interpolar_1_0_Layer0_0_FILL"/>
</g>

<g transform="matrix( 1, 0, 0, 1, -103.05,-365.45) ">
<use xlink:href="#Interpolar_1_0_Layer0_1_FILL"/>
</g>

<g transform="matrix( 0.2320556640625, 0.0532989501953125, -0.0532989501953125, 0.2320556640625, -16.85,-193) ">
<use xlink:href="#Interpolar_1_0_Layer0_2_MEMBER_0_FILL"/>
</g>

<g transform="matrix( 0.2320556640625, 0.0532989501953125, -0.0532989501953125, 0.2320556640625, -27.8,-201.45) ">
<use xlink:href="#Interpolar_1_0_Layer0_2_MEMBER_1_FILL"/>
</g>

<g transform="matrix( 0.2320556640625, 0.0532989501953125, -0.0532989501953125, 0.2320556640625, -8.6,-195.1) ">
<use xlink:href="#Interpolar_1_0_Layer0_2_MEMBER_2_FILL"/>
</g>

<g transform="matrix( 0.2320556640625, 0.0532989501953125, -0.0532989501953125, 0.2320556640625, -30.45,-104.7) ">
<use xlink:href="#Interpolar_1_0_Layer0_2_MEMBER_3_FILL"/>
</g>

<g transform="matrix( -0.0532989501953125, 0.2320556640625, -0.2320556640625, -0.0532989501953125, 95.75,-112.9) ">
<use xlink:href="#Interpolar_1_0_Layer0_2_MEMBER_4_FILL"/>
</g>

<g transform="matrix( -0.0532989501953125, 0.2320556640625, -0.2320556640625, -0.0532989501953125, 3.15,-135.15) ">
<use xlink:href="#Interpolar_1_0_Layer0_2_MEMBER_5_FILL"/>
</g>

<g transform="matrix( 1, 0, 0, 1, 0,0) ">
<use xlink:href="#Interpolar_1_0_Layer0_3_MEMBER_0_FILL"/>
</g>

<g transform="matrix( 1, 0, 0, 1, 0,0) ">
<use xlink:href="#Interpolar_1_0_Layer0_3_MEMBER_1_FILL"/>
</g>
</g>
</g>
</svg>
