
<svg xmlns="http://www.w3.org/2000/svg" version="1.1" xmlns:xlink="http://www.w3.org/1999/xlink" preserveAspectRatio="none" x="0px" y="0px" width="453px" height="488px" viewBox="0 0 453 488">
<defs>
<linearGradient id="Gradient_1" gradientUnits="userSpaceOnUse" x1="66.0625" y1="122.925" x2="70.13749999999999" y2="90.27499999999999" spreadMethod="pad">
<stop  offset="1.1764705882352942%" stop-color="#790000"/>

<stop  offset="98.82352941176471%" stop-color="#CC0000"/>
</linearGradient>

<linearGradient id="Gradient_2" gradientUnits="userSpaceOnUse" x1="805.2125000000001" y1="445.875" x2="837.6875" y2="473.725" spreadMethod="pad">
<stop  offset="1.1764705882352942%" stop-color="#790000"/>

<stop  offset="98.82352941176471%" stop-color="#CC0000"/>
</linearGradient>

<g id="Layer0_0_MEMBER_0_FILL">
<path fill="#FFFFFF" stroke="none" d="
M 237.4 285.9
Q 231.8 294.7 219.15 287.15
L 222.8 316.1
Q 229.9 322.55 239.1 314.4
L 237.4 285.9 Z"/>

<path fill="#EEEEEE" stroke="none" d="
M 219.15 287.15
Q 231.8 294.7 237.4 285.9
L 236.95 278.6
Q 231.3 287.9 218.3 280
L 219.15 287.15 Z"/>

<path fill="#B47657" stroke="none" d="
M 233.3 218.35
L 211.8 218.35 218.3 280
Q 231.3 287.9 236.95 278.6
L 233.3 218.35 Z"/>
</g>

<g id="Layer0_0_MEMBER_0_MEMBER_0_FILL">
<path fill="#000000" stroke="none" d="
M 891.95 809.45
Q 892.793359375 808.904296875 892.8 809.15 892.79609375 808.151171875 890.8 808.75 888.9 807.65 887.2 806.45 887.35 806.3 887.35 806.1 887.35 805.35 885.65 805.25 883.1 803.25 881 800.8 881.15 800.65 881.15 800.5 881.2 800.45 881.15 800.05 881.15 798.95 879.7 799.1 878.2 797.2 877 795.15 877 795 877.05 795 877.25 794.8 877.25 794.6 877.25 794.15 876.4 794.05 875.55 792.3 874.8 790.45 871.15 800.75 851.4 788.85
L 847.15 816.05
Q 847.2 816.05 847.3 816.1 850.15 817.05 852.75 817.9
L 847.2 816.6 845.9 824.1
Q 859.35 831.2 874.3 834.7 898.15 840.4 925.55 837.05 927.8 833.3 924.75 830.65 925.2 830.6 925.7 830.55 927.35 825.25 923.15 819.15
L 907.5 814.85
Q 903.5 814.05 900 812.85 901.2 812.3 901.2 812.15 901.1 809.85 897.25 811.85 894.45 810.8 891.95 809.45
M 893.8 829.3
Q 894.8 829 892.25 830.85
L 893.65 829.3
Q 893.7 829.3 893.8 829.3 Z"/>

<path fill="#FFFFFF" stroke="none" d="
M 853.35 776.6
L 851.4 788.85
Q 871.15 800.75 874.8 790.45 874.7 790.3 874.7 790.15 874.55 789.8 874.4 789.4 874.5 789.4 874.6 789.4 874.85 789.25 875 789.1 875.15 789 875.15 788.95 875.2 788.9 875.25 788.85 875.4 788.7 875.4 788.5 875.4 788.4 875.25 788.1 874.9 787.75 874.55 787.7
L 873.75 787.7
Q 873.4 786.75 873.15 785.7 873.1 785.4 873 785.05 872.8 784.35 872.65 783.5 872.55 783.15 872.45 782.75
L 872.45 782.65
Q 872.45 782.35 872.25 782.15 872.2 781.9 872.1 781.55 871.6 778.9 871.4 775.95
L 871.1 775.9
Q 867.15 777.85 862.95 777.85 858.4 777.75 853.8 758.85
L 853.35 776.6 Z"/>
</g>

<g id="Layer0_0_MEMBER_1_FILL">
<path fill="#B47657" stroke="none" d="
M 183.6 218.35
L 162.1 218.35 161.85 278.6
Q 168 287.9 180.55 280
L 183.6 218.35 Z"/>

<path fill="#FFFFFF" stroke="none" d="
M 161.85 285.9
L 161.7 314.4
Q 171.4 322.55 178.1 316.1
L 180.1 287.15
Q 167.95 294.7 161.85 285.9 Z"/>

<path fill="#EEEEEE" stroke="none" d="
M 161.85 278.6
L 161.85 285.9
Q 167.95 294.7 180.1 287.15
L 180.55 280
Q 168 287.9 161.85 278.6 Z"/>
</g>

<g id="Layer0_0_MEMBER_1_MEMBER_0_FILL">
<path fill="#000000" stroke="none" d="
M 822.1 824.1
L 820.35 816.6 814.85 817.9
Q 817.5 817.05 820.2 816.1 820.3 816.05 820.35 816.05
L 814.6 788.85
Q 795.55 800.75 791.25 790.45 790.65 792.3 789.85 794.05 789 794.15 789.05 794.6 789.1 794.8 789.25 795 789.3 795 789.3 795.15 788.2 797.2 786.9 799.1 785.45 798.95 785.5 800.05 785.5 800.45 785.5 800.5 785.55 800.65 785.65 800.8 783.7 803.25 781.3 805.25 779.5 805.35 779.6 806.1 779.6 806.3 779.75 806.45 778.15 807.65 776.35 808.75 774.3 808.15 774.3 809.15 774.35 808.9 775.2 809.45 772.8 810.8 770.05 811.85 766.05 809.85 766.1 812.15 766.1 812.3 767.35 812.85 763.9 814.05 759.95 814.85
L 744.6 819.15
Q 740.7 825.25 742.65 830.55 743.15 830.6 743.6 830.65 740.7 833.3 743.2 837.05 770.8 840.4 794.25 834.7 809 831.2 822.1 824.1
M 774.5 829.3
L 774.6 829.3 776.1 830.85
Q 773.4 829 774.5 829.3 Z"/>

<path fill="#FFFFFF" stroke="none" d="
M 794.15 775.9
L 793.9 775.95
Q 793.8 778.9 793.5 781.55 793.4 781.9 793.4 782.15 793.25 782.35 793.25 782.65
L 793.25 782.75
Q 793.15 783.15 793.1 783.5 792.95 784.35 792.8 785.05 792.75 785.4 792.65 785.7 792.4 786.75 792.2 787.7
L 791.4 787.7
Q 791.05 787.75 790.7 788.1 790.55 788.4 790.55 788.5 790.55 788.7 790.75 788.85 790.8 788.9 790.85 788.95 790.85 789 791.05 789.1 791.15 789.25 791.4 789.4 791.55 789.4 791.65 789.4 791.55 789.8 791.4 790.15 791.35 790.3 791.25 790.45 795.55 800.75 814.6 788.85
L 811.9 776.6 810.55 758.85
Q 806.9 777.75 802.4 777.85 798.3 777.85 794.15 775.9 Z"/>
</g>

<g id="Layer0_0_MEMBER_2_MEMBER_0_MEMBER_0_MEMBER_0_FILL">
<path fill="#BB8440" stroke="none" d="
M 879.1 692.95
L 861.75 638.65 867.4 699.65
Q 874 697 879.1 692.95
M 789.05 699.1
Q 793.45 700.1 797.65 700.9
L 799.4 636.75 789.05 699.1 Z"/>

<path fill="#D09348" stroke="none" d="
M 782.45 697.6
Q 785.8 698.45 789.05 699.1
L 799.4 636.75 797.65 700.9
Q 842.95 709.6 867.4 699.65
L 861.75 638.65 879.1 692.95
Q 879.75 692.45 880.3 691.95
L 865.3 598.4 796 598.4 782.45 697.6 Z"/>
</g>

<g id="Layer0_0_MEMBER_2_MEMBER_0_MEMBER_0_MEMBER_1_FILL">
<path fill="#B8823F" stroke="none" d="
M 781.7 515.25
Q 783.85 509.75 787.85 502.05 785.5 500.4 785.05 497.2
L 784.4 496.35
Q 777.45 505.5 774.95 515.25 774.4 517.5 774 519.8 773.55 521.05 773.4 522.15 773.35 523.15 773.4 524.05 773.55 525.1 774.05 526.05
L 779.9 528.1
Q 777.75 525.3 781.7 515.25
M 818 542.7
Q 818.15 542.05 818.3 541.35 819.2 537.9 821.05 534.9
L 821.15 533.2 800.7 533.2 800.8 551.15 810.95 556.5 817.95 553.1
Q 817.85 552.15 817.7 551.2 817.25 546.7 818 542.7
M 848.25 503.55
Q 848.1 503.6 848 503.7 841.6 506.4 835.9 507.3 832.5 511.3 830.45 515.25 829.85 516.45 829.35 517.6 828.35 519.9 827.85 522.1 827.5 520 827 518 826.6 516.65 826.2 515.25 824.8 511.15 822.6 506.95 816.95 505.55 812.1 501.9
L 811 508.4 817.4 513.85 827.6 522.45 827.65 522.55 828.1 522.9 829.6 521.8 830.6 521.15 841.4 513.55 847.15 509.5 847.8 505.95 848.25 503.55
M 839.15 551.15
L 849.2 556.5 858.75 551.85 859.35 533.2 839 533.2 839.15 551.15
M 889.65 495.35
L 884.3 496.25
Q 886.85 503.5 886.7 514.45 886.7 514.95 886.65 515.4 886.55 520.45 885.9 526.1
L 890.5 524.65
Q 890.8 523.5 891 522.3 891.1 521.9 891.15 521.5 892 516.55 891.7 510.5 891.45 503.6 889.65 495.35 Z"/>

<path fill="#FFCC66" stroke="none" d="
M 867.95 591.2
L 867.3 593.3
Q 867.7 593.5 868.05 593.65
L 867.95 591.2 Z"/>

<path fill="#9A6D35" stroke="none" d="
M 827.5 589.55
Q 827.35 589.55 827.2 589.55 812.05 590.65 792.65 594.3
L 796.55 601.05 864.8 601.55 867.3 593.3
Q 854.75 588.15 831.45 589.3 829.45 589.4 827.5 589.55
M 841.4 513.55
Q 841.15 514.4 840.8 515.25
L 840.75 515.3 847.4 511.65 847.8 505.95 847.15 509.5 841.4 513.55
M 862.5 500.4
L 863 500.35 853.4 496.65 850.05 496.55
Q 828.05 485.75 813.6 495.9
L 804.9 495.7 785.05 497.2
Q 785.5 500.4 787.85 502.05 791.5 504.45 799.6 502.95 800.15 502.85 800.7 502.8 801 502.7 801.4 502.6 804.7 501.9 808.6 500.6 809.3 500.4 809.95 500.15 810.95 501.05 812 501.8
L 809.95 510.35 817.35 516.3
Q 817.3 515.8 817.3 515.25 817.3 514.55 817.4 513.85
L 811 508.4 812.1 501.9
Q 816.95 505.55 822.6 506.95
L 817.7 496 843.5 496.45 835.9 507.3
Q 841.6 506.4 848 503.7 848.1 503.6 848.25 503.55 850.15 502.75 852.15 501.75 857.25 504 861.4 505.3
L 861.65 515.75 865 530.85 861.75 505.4
Q 861.95 505.45 862.2 505.55
L 862.15 505.5
Q 863.2 505.1 864.1 504.65 863 503.7 862.6 502.3 862.55 502.15 862.55 502.05 862.4 501.45 862.5 500.7 862.5 500.55 862.5 500.4
M 801.4 502.85
L 797.95 513.85 795.75 531.95 799.9 514.85 801.4 502.85 Z"/>

<path fill="#3333CC" stroke="none" d="
M 830.5 529.25
Q 830.5 529.1 830.45 529.05
L 828 529.05 832.65 546.05
Q 833 546.8 833.3 547.6 834 549.45 834.5 551.2 835.5 554.65 835.65 557.9 835.75 560.5 835.45 562.9 836.1 560.3 836.65 557.9 837.4 554.35 837.9 551.2 838.15 549.35 838.3 547.6 838.6 544.95 838.55 542.7 838.55 542 837 537.3 835.55 532.55 830.5 529.25
M 827.95 530.85
Q 827.9 529.95 827.9 529.05
L 826.15 529
Q 823.05 531.65 821.05 534.9 819.2 537.9 818.3 541.35 818.15 542.05 818 542.7 817.25 546.7 817.7 551.2 817.85 552.15 817.95 553.1 818.35 555.4 819 557.9 819.3 559.05 819.7 560.2 820.65 560.45 822.05 557.9 823.3 555.7 824.85 551.2 825.8 548.35 827 544.5 827.2 543.6 827.5 542.7 827.65 542.05 827.9 541.35 828.2 540.35 828.5 539.25 828.35 538 828.1 536.85
L 828 532.2
Q 827.95 531.5 827.95 530.85
M 827.6 522.45
L 827.5 522.5 817.55 517.2
Q 818.85 522.1 826.25 526.15
L 826.25 526.1 828.05 526.05 827.65 522.55 827.6 522.45
M 839.45 517.6
Q 839.7 517.35 839.85 516.95
L 830.6 521.15 829.6 521.8 828.65 526.05 830.6 526
Q 836.65 521.8 839.45 517.6 Z"/>

<path fill="#19196B" stroke="none" d="
M 828.6 541.35
Q 828.6 540.3 828.5 539.25 828.2 540.35 827.9 541.35 827.65 542.05 827.5 542.7 827.2 543.6 827 544.5 825.8 548.35 824.85 551.2 823.3 555.7 822.05 557.9 820.65 560.45 819.7 560.2 820.6 563.15 822.05 566.35 825.3 567.9 824.5 563.25 823.95 560.75 824.6 557.9 824.95 556.4 825.7 554.75 826.4 552.95 827 551.2 827.6 549.35 827.95 547.6 828.5 545.1 828.6 542.7 828.6 542.05 828.6 541.35
M 829.6 521.8
L 828.1 522.9 827.65 522.55 828.05 526.05 828.65 526.05 829.6 521.8
M 817.35 516.3
Q 817.5 516.8 817.55 517.2
L 827.5 522.5 827.6 522.45 817.4 513.85
Q 817.3 514.55 817.3 515.25 817.3 515.8 817.35 516.3
M 840.8 515.25
Q 841.15 514.4 841.4 513.55
L 830.6 521.15 839.85 516.95
Q 840.4 516.15 840.75 515.3
L 840.8 515.25 Z"/>

<path fill="#D09348" stroke="none" d="
M 826.75 526.45
L 826.25 526.1 826.25 526.15
Q 826.45 526.3 826.75 526.45
M 884.3 496.25
L 881.5 496.75
Q 881.6 497 881.6 497.3 882.35 499.85 880.05 502.4 879.5 502.85 879 503.4 876.9 505.2 873.8 505.95 869.8 507.05 866.6 505.95 866.25 505.8 865.85 505.65 865.6 505.55 865.4 505.45 864.8 505.2 864.3 504.8 864.2 504.7 864.1 504.65 863.2 505.1 862.15 505.5
L 862.2 505.55
Q 861.95 505.45 861.75 505.4
L 865 530.85 861.65 515.75 861.4 505.3
Q 857.25 504 852.15 501.75 850.15 502.75 848.25 503.55
L 847.8 505.95 847.4 511.65 840.75 515.3
Q 840.4 516.15 839.85 516.95 839.7 517.35 839.45 517.6 836.65 521.8 830.6 526
L 830.6 529.05 830.45 529.05
Q 830.5 529.1 830.5 529.25 835.55 532.55 837 537.3 838.55 542 838.55 542.7 838.6 544.95 838.3 547.6 838.15 549.35 837.9 551.2 837.4 554.35 836.65 557.9 836.1 560.3 835.45 562.9 835.75 560.5 835.65 557.9 835.5 554.65 834.5 551.2 834 549.45 833.3 547.6 833 546.8 832.65 546.05
L 828 529.05 827.9 528.5 827.9 529.05
Q 827.9 529.95 827.95 530.85 827.95 531.5 828 532.2
L 828.1 536.85
Q 828.35 538 828.5 539.25 828.6 540.3 828.6 541.35 828.6 542.05 828.6 542.7 828.5 545.1 827.95 547.6 827.6 549.35 827 551.2 826.4 552.95 825.7 554.75 824.95 556.4 824.6 557.9 823.95 560.75 824.5 563.25 825.3 567.9 822.05 566.35 820.6 563.15 819.7 560.2 819.3 559.05 819 557.9 818.35 555.4 817.95 553.1
L 810.95 556.5 800.8 551.15 800.7 533.2 821.15 533.2 821.05 534.9
Q 823.05 531.65 826.15 529
L 826.25 526.15
Q 818.85 522.1 817.55 517.2 817.5 516.8 817.35 516.3
L 809.95 510.35 812 501.8
Q 810.95 501.05 809.95 500.15 809.3 500.4 808.6 500.6 804.7 501.9 801.4 502.6 801 502.7 800.7 502.8 800.15 502.85 799.6 502.95 791.5 504.45 787.85 502.05 783.85 509.75 781.7 515.25 777.75 525.3 779.9 528.1
L 794.75 533.25 791.15 594.6
Q 791.9 594.4 792.65 594.3 812.05 590.65 827.2 589.55 827.35 589.55 827.5 589.55 829.45 589.4 831.45 589.3 854.75 588.15 867.3 593.3
L 867.95 591.2 865.85 539.25 865.4 539.25 865.5 524.5 865.6 532.75 867.9 534.15 885.9 526.1
Q 886.55 520.45 886.65 515.4 886.7 514.95 886.7 514.45 886.85 503.5 884.3 496.25
M 849.2 556.5
L 839.15 551.15 839 533.2 859.35 533.2 858.75 551.85 849.2 556.5
M 797.95 513.85
L 801.4 502.85 799.9 514.85 795.75 531.95 797.95 513.85 Z"/>

<path fill="#666666" stroke="none" d="
M 828.65 526.05
L 828.05 526.05 826.25 526.1 826.75 526.45
Q 826.45 526.3 826.25 526.15
L 826.15 529 827.9 529.05 827.9 528.5 828 529.05 830.45 529.05 830.6 529.05 830.6 526 828.65 526.05 Z"/>

<path fill="#FFFFFF" stroke="none" d="
M 830.45 515.25
Q 832.5 511.3 835.9 507.3 828.8 508.45 822.6 506.95 824.8 511.15 826.2 515.25 826.6 516.65 827 518 827.5 520 827.85 522.1 828.35 519.9 829.35 517.6 829.85 516.45 830.45 515.25
M 881.6 497.3
Q 881.6 497 881.5 496.75
L 880.35 497
Q 880.35 497.1 880.4 497.2 880.95 499.4 878.95 501.6 878.7 501.95 878.3 502.25 876.45 504 873.55 504.7 870.15 505.65 867.3 504.7
L 867.25 504.7
Q 866.15 504.35 865.4 503.75 865.25 503.65 865.15 503.55 864.15 502.8 863.85 501.55 863.75 501.05 863.7 500.6 863.7 500.4 863.7 500.2
L 863 500.35 862.5 500.4
Q 862.5 500.55 862.5 500.7 862.4 501.45 862.55 502.05 862.55 502.15 862.6 502.3 863 503.7 864.1 504.65 864.2 504.7 864.3 504.8 864.8 505.2 865.4 505.45 865.6 505.55 865.85 505.65 866.25 505.8 866.6 505.95 869.8 507.05 873.8 505.95 876.9 505.2 879 503.4 879.5 502.85 880.05 502.4 882.35 499.85 881.6 497.3 Z"/>

<path fill="#E9B59A" stroke="none" d="
M 835.9 507.3
L 843.5 496.45 817.7 496 822.6 506.95
Q 828.8 508.45 835.9 507.3 Z"/>

<path fill="#336600" stroke="none" d="
M 877.15 499.1
L 876.8 497.65 866.15 499.75 872.15 502.25 872.35 499.7 877.15 499.1 Z"/>

<path fill="#CCCC00" stroke="none" d="
M 880.4 497.2
Q 880.35 497.1 880.35 497
L 876.8 497.65 877.15 499.1 872.35 499.7 872.15 502.25 866.15 499.75 863.7 500.2
Q 863.7 500.4 863.7 500.6 863.75 501.05 863.85 501.55 864.15 502.8 865.15 503.55 865.25 503.65 865.4 503.75 866.15 504.35 867.25 504.7
L 867.3 504.7
Q 870.15 505.65 873.55 504.7 876.45 504 878.3 502.25 878.7 501.95 878.95 501.6 880.95 499.4 880.4 497.2 Z"/>
</g>

<g id="Layer0_0_MEMBER_2_MEMBER_0_MEMBER_1_MEMBER_0_STROKES_1_FILL">
<path fill="#CB8562" stroke="none" d="
M 222.35 -56.45
L 221.5 -56 220.3 -55.1 219.05 -53.85 218.75 -53.4
Q 218.6 -53.25 218.8 -53.25
L 218.95 -53.1 219.2 -52.9 219.25 -52.85 219.3 -52.85 219.35 -52.8 219.5 -52.7 220.75 -52 222.1 -51.5 222.4 -51.45 223.05 -51.25 223.2 -51.25 223.35 -51.2 223.7 -51.15 224 -51.15 224.35 -51.1 225.7 -51.1 227.05 -51.3 227.2 -51.35 227.35 -51.35 228.65 -51.75 228.75 -51.8 228.8 -51.8 228.95 -51.9 229.25 -52 229.4 -52.1 229.55 -52.15 230.4 -52.6 231.6 -53.5 232.85 -54.75 233.15 -55.2
Q 233.3 -55.35 233.1 -55.35
L 232.95 -55.5 232.7 -55.7 232.65 -55.75 232.6 -55.75 232.55 -55.8 232.4 -55.9 231.15 -56.6 229.8 -57.1 229.5 -57.15 228.85 -57.35 228.7 -57.35 228.55 -57.4 228.2 -57.45 227.9 -57.45 227.55 -57.5 226.2 -57.5 224.85 -57.3 224.7 -57.25 224.55 -57.25 223.25 -56.85 223.15 -56.8 223.1 -56.8 222.95 -56.7 222.65 -56.6 222.5 -56.5 222.35 -56.45 Z"/>
</g>

<g id="Layer0_0_MEMBER_2_MEMBER_0_MEMBER_1_MEMBER_0_MEMBER_0_MEMBER_0_MEMBER_0_FILL">
<path fill="#000000" stroke="none" d="
M 686.4 283.95
Q 686.25 283.95 686.1 284 685.85 283.95 685.55 283.95 665.05 282.5 658.1 302.15 658.1 302.25 658.05 302.4 654.5 318.5 656.45 334.6 656.85 338 657.55 341.45 672.6 344.3 687.7 343.4 688 343.35 688.3 343.35
L 688.9 343.3
Q 689.8 343.3 690.7 343.35 693.85 343.4 696.9 343.2 705.85 342.85 714.6 340.95 714.45 314.45 710.3 300.1 710.3 300.05 710.25 300 702.6 283.15 686.4 283.95
M 689.3 309.2
L 689.3 303.35 689.3 301.55 690.1 309.35
Q 693.45 309.65 696.9 310.3 698.3 310.6 699.65 310.9 701.3 311.3 702.9 311.75 703.1 314.9 703.25 318.1 703.4 325.25 702.85 332.4 702.7 332.55 702.55 332.7
L 702.5 332.75
Q 699.9 335.35 696.9 337.05 691.2 340.3 684.2 340.3 674.85 340.3 667.9 334.6 666.8 333.75 665.8 332.7 664.9 331.8 664.15 330.9 663.95 330.7 663.75 330.5 663.4 324.6 663.7 318.15 663.8 315.5 664.1 312.75 666.3 312 668.35 311.4 670.55 310.75 672.6 310.3 673.75 310.05 675.05 309.9 675.55 304.35 677.75 298.8
L 677.75 299.85 677.55 309.65
Q 677.6 309.6 677.7 309.6 682.6 308.85 689.15 309.2 689.25 309.2 689.3 309.2 Z"/>

<path fill="#7E523C" stroke="none" d="
M 677.75 299.85
L 677.75 298.8
Q 675.55 304.35 675.05 309.9 673.75 310.05 672.6 310.3 670.55 310.75 668.35 311.4 666.3 312 664.1 312.75 663.8 315.5 663.7 318.15 663.4 324.6 663.75 330.5 663.95 330.7 664.15 330.9 663.75 324.9 664.1 318.2 664.2 315.9 664.4 313.45 667.8 312.2 670.95 311.45 671.9 311.2 672.8 311 673.95 310.8 675.2 310.6 675.65 305.2 677.75 299.85
M 689.15 309.9
L 689.15 309.2
Q 682.6 308.85 677.7 309.6
L 677.65 310.3
Q 682.55 309.55 689.15 309.9
M 689.3 301.55
L 689.3 303.35 689.95 310.05
Q 693.3 310.35 696.65 311 696.7 311.05 696.8 311.05 699.65 311.6 702.55 312.45 702.75 315.3 702.85 318.1 703.05 325.45 702.5 332.75
L 702.55 332.7
Q 702.7 332.55 702.85 332.4 703.4 325.25 703.25 318.1 703.1 314.9 702.9 311.75 701.3 311.3 699.65 310.9 698.3 310.6 696.9 310.3 693.45 309.65 690.1 309.35
L 689.3 301.55 Z"/>

<path fill="#B47657" stroke="none" d="
M 689.3 303.35
L 689.3 309.2
Q 689.25 309.2 689.15 309.2
L 689.15 309.9
Q 682.55 309.55 677.65 310.3
L 677.7 309.6
Q 677.6 309.6 677.55 309.65
L 677.75 299.85
Q 675.65 305.2 675.2 310.6 673.95 310.8 672.8 311 671.9 311.2 670.95 311.45 667.8 312.2 664.4 313.45 664.2 315.9 664.1 318.2 663.75 324.9 664.15 330.9 664.9 331.8 665.8 332.7 666.8 333.75 667.9 334.6 674.85 340.3 684.2 340.3 691.2 340.3 696.9 337.05 699.9 335.35 702.5 332.75 703.05 325.45 702.85 318.1 702.75 315.3 702.55 312.45 699.65 311.6 696.8 311.05 696.7 311.05 696.65 311 693.3 310.35 689.95 310.05
L 689.3 303.35 Z"/>
</g>

<g id="Layer0_0_MEMBER_2_MEMBER_0_MEMBER_1_MEMBER_0_MEMBER_0_MEMBER_0_MEMBER_0_MEMBER_0_STROKES_1_FILL">
<path fill="#666666" stroke="none" d="
M 286.8 44.75
L 286.65 44.75 279.6 48.55
Q 276.7 50.4 275 51.65
L 270.1 55.5 269.95 55.6 263.9 61.4 263.75 61.6 262.4 63.05 262.25 63.25 262.15 63.35 262.1 63.45 261.75 63.8 257.4 69.45 251.85 78.75 248.35 87.15 245.8 96.6 244.7 104.5 244.65 104.7 244.6 114.9 244.7 115.85 244.8 115.95 244.85 115.9 249.55 97.55 252.1 90.55 256.25 81.55 256.5 81.15 257.15 79.85 262.8 70.75 262.9 70.55 265.85 66.55 265.95 66.45 266 66.35 272.7 58.5 272.85 58.3 278.05 53
Q 278.35 52.65 279.05 52.05
L 286.8 44.9 286.8 44.75 Z"/>
</g>

<g id="Layer0_0_MEMBER_2_MEMBER_0_MEMBER_1_MEMBER_0_MEMBER_0_MEMBER_0_MEMBER_0_MEMBER_1_STROKES_1_FILL">
<path fill="#666666" stroke="none" d="
M 299.7 88.2
L 299.95 64.25 299.65 61.05
Q 299.65 60.95 299.55 60.95
L 299.5 61 296.8 82.35 296.3 99.2 296.75 108.95 296.85 109.5
Q 296.85 109.6 296.95 109.6
L 297 109.55 297.15 109 297.65 106.35 299.7 88.2 Z"/>
</g>

<g id="Layer0_0_MEMBER_2_MEMBER_0_MEMBER_1_MEMBER_0_MEMBER_0_MEMBER_0_MEMBER_0_MEMBER_2_STROKES_1_FILL">
<path fill="#666666" stroke="none" d="
M 337.8 64.1
L 337.75 64.2 337.75 65.35 337.8 65.7 337.8 66.15 339.7 89.9 339.75 90.15 339.75 90.4 341.05 108.75 341.15 109.25 341.25 109.35 341.3 109.3 341.45 108.8 342.35 103.75 342.95 95.9 342.5 84.35 341.2 75.75 338.95 67 337.9 64.15 337.8 64.1 Z"/>
</g>

<g id="Layer0_0_MEMBER_2_MEMBER_0_MEMBER_1_MEMBER_0_MEMBER_0_MEMBER_0_MEMBER_0_MEMBER_3_STROKES_1_FILL">
<path fill="#666666" stroke="none" d="
M 362.3 52.55
Q 362.25 52.5 362.15 52.6
L 362.15 52.7 369.55 62.75 373.05 68.15 373.2 68.45 373.4 68.75 374.05 69.95 374.25 70.25 375.75 73 375.95 73.3 376.1 73.65 376.45 74.25 381.45 85.55 383.3 90.85 383.4 91 387.55 105.2 387.7 105.6
Q 387.8 106.15 388.1 107.05
L 388.9 109.8 389 109.85 389.05 109.75 389.2 109.05 389.65 105.45 389.75 98.2 389.1 91.95 389.05 91.75 389.05 91.6 388.8 90.15 388.7 89.8 388.7 89.65 388.25 87.65 388.2 87.3 386.95 82.85
Q 386 79.95 384.7 76.95
L 384.2 75.85 384.1 75.7 383.3 74.1
Q 383.25 73.9 382.55 72.7
L 378.4 66.2 372.25 59.45 372.1 59.35 370.55 57.95 366.1 54.7 362.3 52.55 Z"/>
</g>

<g id="Layer0_0_MEMBER_2_MEMBER_0_MEMBER_1_MEMBER_0_MEMBER_0_MEMBER_0_MEMBER_0_MEMBER_4_STROKES_1_FILL">
<path fill="#666666" stroke="none" d="
M 241.5 149.6
L 240.5 165.2 240.5 198.25 242.85 224.6 242.95 224.65 243 224.55 243.8 131.8
Q 243.8 131.7 243.7 131.7
L 243.65 131.75 241.5 149.6 Z"/>
</g>

<g id="Layer0_0_MEMBER_2_MEMBER_0_MEMBER_1_MEMBER_0_MEMBER_0_MEMBER_0_MEMBER_0_MEMBER_5_STROKES_1_FILL">
<path fill="#666666" stroke="none" d="
M 388.25 123.65
L 388.15 123.6 388.1 123.7 387.3 223.5
Q 387.3 223.6 387.4 223.6
L 387.45 223.55 388.3 217 390.7 173.6 390.4 152 388.25 123.65 Z"/>
</g>

<g id="Layer0_0_MEMBER_2_MEMBER_0_MEMBER_1_MEMBER_0_MEMBER_0_MEMBER_0_MEMBER_0_MEMBER_6_STROKES_1_FILL">
<path fill="#999999" stroke="none" d="
M 378.75 43.1
Q 376.6 41.35 374.3 39.95 371.85 38.5 370.2 37.75
L 366.8 36.35
Q 365.85 36 364.2 35.5
L 362 34.95
Q 361.9 34.85 361.9 35 361.8 35.1 361.95 35.1
L 364.05 35.95
Q 366.2 36.95 366.5 37.1
L 369.65 38.8
Q 371.5 39.9 373.35 41.35
L 379.45 46.75 381.45 49
Q 382.65 50.35 383.5 51.55
L 387.4 57.2
Q 387.8 57.85 389.25 60.35
L 392.75 67.25
Q 396.1 74.75 398.6 82.8 401.1 90.75 403.15 100.1 405.15 109.2 406.55 118.35 407.95 127.3 408.95 136.75 409.9 145.2 410.65 154.7 411.05 159.55 411.85 171.55
L 413.9 218
Q 413.9 218.1 414 218.1
L 414.05 218.05 414.15 217.45 415.8 171.4
Q 415.75 163.25 415.35 154.4 414.85 144.3 414.05 136.25 413.1 126.3 411.75 117.5 410.25 108.05 408.15 98.95 405.75 88.85 403.05 81.35 400.05 72.65 396.3 65.45 395.35 63.5 394.35 61.9 393.05 59.6 392.35 58.55 390.25 55.25 388 52.4 386.75 50.8 385.7 49.7 384.2 48 383.4 47.25 380.95 44.8 378.75 43.1 Z"/>
</g>

<g id="Layer0_0_MEMBER_2_MEMBER_0_MEMBER_1_MEMBER_0_MEMBER_0_MEMBER_0_MEMBER_0_MEMBER_7_STROKES_1_FILL">
<path fill="#999999" stroke="none" d="
M 398.95 93.95
Q 398.8 93.95 398.9 94.05
L 400.85 104.75 400.95 105.1 403.5 121.7
Q 404.3 128.45 404.4 129.6
L 405.95 150.05
Q 406.1 153.9 406.1 154
L 405.9 182
Q 405.8 182.1 405.95 182.1
L 406.05 182.05 406.75 176.8 406.75 176.5 406.8 176.25 407.9 154.45 407.85 154 407.2 137.9 407.15 137.65 406.05 126.85 402.1 105.2 399.05 94
Q 399.05 93.85 398.95 93.95 Z"/>
</g>

<g id="Layer0_0_MEMBER_2_MEMBER_0_MEMBER_1_MEMBER_0_MEMBER_1_FILL">
<path fill="#915E46" stroke="none" d="
M 175 68.35
Q 173.45 65.15 170.4 64.45
L 172.55 80.7
Q 174.85 78.65 175.6 75.3 176.55 71.55 175 68.35 Z"/>

<path fill="#CC8663" stroke="none" d="
M 169.7 59.05
L 170.4 64.45
Q 173.45 65.15 175 68.35 176.55 71.55 175.6 75.3 174.85 78.65 172.55 80.7
L 173 83.95
Q 173.75 83.45 174.5 82.9 178.45 79.9 179.75 74.6 181 69.3 178.8 64.75 176.7 60.3 172.35 59.25 171.05 58.95 169.7 59.05 Z"/>
</g>

<g id="Layer0_0_MEMBER_2_MEMBER_0_MEMBER_1_MEMBER_0_MEMBER_2_FILL">
<path fill="#A16A4E" stroke="none" d="
M 68.7 64.15
Q 65.7 65.15 64.4 68.4 63.15 71.7 64.35 75.4 65.4 78.65 67.9 80.55
L 68.7 64.15 Z"/>

<path fill="#CC8663" stroke="none" d="
M 68.7 64.15
L 69 58.7
Q 67.65 58.7 66.4 59.15 62.15 60.5 60.3 65.15 58.55 69.8 60.25 75 61.95 80.2 66.1 82.9 66.9 83.35 67.7 83.75
L 67.9 80.55
Q 65.4 78.65 64.35 75.4 63.15 71.7 64.4 68.4 65.7 65.15 68.7 64.15 Z"/>
</g>

<g id="Layer0_0_MEMBER_2_MEMBER_0_MEMBER_1_MEMBER_0_MEMBER_3_STROKES_1_FILL">
<path fill="#666666" stroke="none" d="
M 300.3 44.9
L 296.15 48
Q 294.6 49.25 293.45 50.35
L 285.1 59.1 279.8 66.55 276.15 73.05 276.05 73.35 275 75.6 274.8 76.15
Q 274.45 76.85 273.9 78.3
L 272.85 81.4 272.75 81.6 271.55 86.2 271.5 86.6 271.4 86.95 270.85 90.95
Q 270.75 91.05 270.9 91.05
L 271 91 274.75 83.2 275 82.8 275.1 82.55 282.1 70.3 282.3 70.05 289.55 59.45 299.35 46.55 299.6 46.15 300.45 45.05
Q 300.5 45 300.4 44.9
L 300.3 44.9 Z"/>
</g>

<g id="Layer0_0_MEMBER_2_MEMBER_0_MEMBER_1_MEMBER_0_MEMBER_4_FILL">
<path fill="#B47657" stroke="none" d="
M 209.55 37.95
L 209.1 19.9
Q 198.55 26 186.75 19.9
L 187.25 38.5
Q 198.7 50.9 209.55 37.95 Z"/>

<path fill="#915F46" stroke="none" d="
M 209.1 19.9
L 208.95 14.7
Q 197.85 17.3 186.65 15.25
L 186.75 19.9
Q 198.55 26 209.1 19.9 Z"/>
</g>

<g id="Layer0_0_MEMBER_2_MEMBER_0_MEMBER_1_MEMBER_0_MEMBER_5_FILL">
<path fill="url(#Gradient_1)" stroke="none" d="
M 71.55 85.6
L 70.2 85.8 64.5 126.8
Q 64.45 126.95 64.45 127.1
L 64.15 128.35
Q 81.05 106.8 71.55 85.6
M 70.2 85.8
L 69.3 85.9
Q 56.15 108.15 64 128.85
L 64.2 128.05 64.45 127.1
Q 64.45 126.95 64.5 126.8
L 70.2 85.8 Z"/>
</g>

<g id="Layer0_0_MEMBER_2_MEMBER_0_MEMBER_1_MEMBER_0_MEMBER_5_STROKES_1_FILL">
<path fill="#FF6666" stroke="none" d="
M 72.45 85.15
Q 72.1 84.45 71.4 84.6
L 71 84.65
Q 70.8056640625 84.4263671875 70.5 84.35 70.15 84.25 69.75 84.45 69.48671875 84.600390625 69.35 84.85
L 69.15 84.9
Q 68.65 84.9 68.4 85.35
L 66.1 89.6 66.05 89.75 64.25 93.6 61.8 101.05 60.7 106.65 60.45 115.2 60.5 115.55 60.5 115.9 61.25 120.8 61.35 121.15 61.4 121.5 63.85 128.85 63.85 128.9
Q 63.95 129 64.05 128.95
L 64.1 128.85 64.2 128.35 64.2 128.35 64.25 128.35 64.5 128 64.65 128 64.8 128 64.85 127.95 64.95 127.95 65.15 127.85 65.25 127.75 65.3 127.65 65.35 127.6 65.35 127.55 65.3 127.5 65.25 127.4 65.25 127.3 65.2 127.25 65.2 127.2 69 122.05 69.15 121.75 69.95 120.55 73.7 112.7 75.3 106.7 75.85 99.35 75.4 95 75.4 94.8 74.25 89.95 72.45 85.15
M 63.8 127.8
L 63.85 127.8 64.15 128 64 128.3
Q 64 128.3443359375 64 128.35
L 64 128.4 63.8 127.8
M 65.75 95
L 65.9 94.7 65.95 94.55 67.8 90.6 67.9 90.45 67.95 90.3 68.85 88.7 64.4 126.75 63.9 126.85 63.8 126.95 63.65 127.05 63.65 126.9 63.6 126.9 62.8 124.05 62.75 123.75 62.65 123.4 61.7 115.5 61.85 110.3 62.8 104.2 63.15 102.85 63.2 102.5 65.75 95
M 73.2 93.75
L 73.5 95.15 73.5 95.3 73.95 98.75 73.95 99.1 74 99.45 74.05 101.55 73.3 108.5 73.15 109.2 73.05 109.5 73 109.85 72.7 110.9 72.65 111.2 69.85 118.45
Q 69.85 118.55 69.55 119.1
L 68.6 121 68.4 121.3 68.25 121.65 67.7 122.55 67.55 122.85 64.9 126.95 64.55 126.8 70.95 86.9 73.1 93.25 73.15 93.6 73.2 93.75 Z"/>
</g>

<g id="Layer0_0_MEMBER_2_MEMBER_0_MEMBER_1_MEMBER_0_MEMBER_6_FILL">
<path fill="#000000" stroke="none" d="
M 174.3 156.25
L 163.75 155.8 165.85 235.35 178.8 235 174.3 156.25 Z"/>
</g>

<g id="C_pia_de_olhos_0_Layer0_0_MEMBER_0_MEMBER_0_FILL">
<path fill="#000000" stroke="none" d="
M 208.35 543.35
Q 213.95 536.75 213.95 527.45 213.95 518.15 208.35 511.55 202.8 504.95 194.95 504.95 187.1 504.95 181.5 511.55 175.95 518.15 175.95 527.45 175.95 536.75 181.5 543.35 187.1 549.95 194.95 549.95 202.8 549.95 208.35 543.35 Z"/>
</g>

<g id="C_pia_de_olhos_0_Layer0_0_MEMBER_0_MEMBER_1_FILL">
<path fill="#FFFFFF" stroke="none" d="
M 207.15 529.15
Q 209.95 526.4 209.95 522.45 209.95 518.5 207.15 515.7 204.4 512.95 200.45 512.95 196.5 512.95 193.7 515.7 190.95 518.5 190.95 522.45 190.95 526.4 193.7 529.15 196.5 531.95 200.45 531.95 204.4 531.95 207.15 529.15 Z"/>
</g>

<g id="C_pia_de_olhos_0_Layer0_0_MEMBER_1_MEMBER_0_FILL">
<path fill="#000000" stroke="none" d="
M 208.35 543.35
Q 213.95 536.75 213.95 527.45 213.95 518.15 208.35 511.55 202.8 504.95 194.95 504.95 187.1 504.95 181.5 511.55 175.95 518.15 175.95 527.45 175.95 536.75 181.5 543.35 187.1 549.95 194.95 549.95 202.8 549.95 208.35 543.35 Z"/>
</g>

<g id="C_pia_de_olhos_0_Layer0_0_MEMBER_1_MEMBER_1_FILL">
<path fill="#FFFFFF" stroke="none" d="
M 207.15 529.15
Q 209.95 526.4 209.95 522.45 209.95 518.5 207.15 515.7 204.4 512.95 200.45 512.95 196.5 512.95 193.7 515.7 190.95 518.5 190.95 522.45 190.95 526.4 193.7 529.15 196.5 531.95 200.45 531.95 204.4 531.95 207.15 529.15 Z"/>
</g>

<g id="Layer0_0_MEMBER_2_MEMBER_0_MEMBER_3_FILL">
<path fill="#C69A83" stroke="none" d="
M 391.85 117
Q 392.85 116.5 393.1 115.75 392.3 115.3 391.5 115.2 390.75 115.25 390.6 115.25 390.6 116.5 391.85 117 Z"/>
</g>

<g id="Layer0_0_MEMBER_2_MEMBER_0_MEMBER_4_FILL">
<path fill="#663300" stroke="none" d="
M 796 598
L 796.15 606.5 865.25 606.5 865.25 598 796 598 Z"/>
</g>

<g id="Layer0_0_MEMBER_2_MEMBER_0_MEMBER_4_MEMBER_0_FILL">
<path fill="#B4783B" stroke="none" d="
M -177.95 -219.95
Q -192.05 -219.95 -202 -210 -211.95 -200.05 -211.95 -185.95 -211.95 -171.85 -202 -161.9 -192.05 -151.95 -177.95 -151.95 -163.85 -151.95 -153.9 -161.9 -143.95 -171.85 -143.95 -185.95 -143.95 -200.05 -153.9 -210 -163.85 -219.95 -177.95 -219.95
M -198.05 -206.05
Q -190.15 -213.95 -178.95 -213.95 -167.75 -213.95 -159.85 -206.05 -151.95 -198.15 -151.95 -186.95 -151.95 -185.936328125 -152.05 -184.95 -152.6650390625 -175.0349609375 -159.85 -167.85 -167.75 -159.95 -178.95 -159.95 -190.15 -159.95 -198.05 -167.85 -205.2349609375 -175.0349609375 -205.9 -184.95 -205.95 -185.936328125 -205.95 -186.95 -205.95 -198.15 -198.05 -206.05 Z"/>

<path fill="#996633" stroke="none" d="
M -178.95 -209.95
Q -190.15 -209.95 -198.05 -202.05 -205.2349609375 -194.8650390625 -205.9 -184.95 -205.2349609375 -175.0349609375 -198.05 -167.85 -190.15 -159.95 -178.95 -159.95 -167.75 -159.95 -159.85 -167.85 -152.6650390625 -175.0349609375 -152.05 -184.95 -152.6650390625 -194.8650390625 -159.85 -202.05 -167.75 -209.95 -178.95 -209.95 Z"/>

<path fill="#744D26" stroke="none" d="
M -178.95 -213.95
Q -190.15 -213.95 -198.05 -206.05 -205.95 -198.15 -205.95 -186.95 -205.95 -185.936328125 -205.9 -184.95 -205.2349609375 -194.8650390625 -198.05 -202.05 -190.15 -209.95 -178.95 -209.95 -167.75 -209.95 -159.85 -202.05 -152.6650390625 -194.8650390625 -152.05 -184.95 -151.95 -185.936328125 -151.95 -186.95 -151.95 -198.15 -159.85 -206.05 -167.75 -213.95 -178.95 -213.95 Z"/>
</g>

<g id="Layer0_0_MEMBER_2_MEMBER_1_FILL">
<path fill="#FFFFFF" stroke="none" d="
M 811.1 447
Q 810.6 446.75 810.1 446.5 810 446.45 809.9 446.35 807.55 445 806.2 445.4
L 806.05 447.5
Q 806 449.3 807.15 450.65 808.4 451.95 810.25 452.05 811.95 452.15 813.2 451.1 813.35 451 813.35 450.95 814.45 449.95 814.75 448.6 814.05 448.35 813.45 448.15 812.2 447.65 811.1 447
M 824.45 450.75
Q 822.65 450.55 821.15 450.25 818.3 449.75 815.9 448.95
L 815.9 449.15
Q 815.8 450.95 817 452.3 818.25 453.65 820.05 453.75 821.9 453.8 823.25 452.55 824.1 451.8 824.45 450.75
M 847.65 450.55
L 847.8 447.4
Q 846.3 447.25 844.1 448.15 843.8 448.25 843.45 448.45 841.45 449.25 839.4 449.85 839.15 449.95 838.9 450 834.75 451.05 830.3 451.1 830.15 451.1 830.05 451.1 830.15 452.6 831.15 453.8 832.4 455.1 834.25 455.15 834.45 455.15 834.65 455.15 836.25 455.1 837.4 454.1 838.75 452.85 838.85 451.05
L 838.9 450.3
Q 838.85 452 840 453.35 841.25 454.7 843.1 454.75 844.9 454.85 846.3 453.6 847.55 452.35 847.65 450.55 Z"/>

<path fill="url(#Gradient_2)" stroke="none" d="
M 834.65 455.15
Q 834.45 455.15 834.25 455.15 832.4 455.1 831.15 453.8 830.15 452.6 830.05 451.1 829.95 451.1 829.9 451.1 827.7 451.1 825.6 450.9 825 450.8 824.45 450.75 824.1 451.8 823.25 452.55 821.9 453.8 820.05 453.75 818.25 453.65 817 452.3 815.8 450.95 815.9 449.15
L 815.9 448.95
Q 815.3 448.75 814.75 448.6 814.45 449.95 813.35 450.95 813.35 451 813.2 451.1 811.95 452.15 810.25 452.05 808.4 451.95 807.15 450.65 806 449.3 806.05 447.5
L 806.2 445.4
Q 805.15 445.7 804.55 446.75 803.7 448.2 803.55 451.2 803.2 459.65 809.9 465.95 810.6 466.55 811.3 467.2 817.6 472.2 826.4 472.6 826.9 472.6 827.5 472.6 835.85 472.75 842.3 468.35 840.6 461.45 834.65 455.15 Z"/>

<path fill="#580000" stroke="none" d="
M 847.8 447.4
L 847.65 450.55
Q 847.55 452.35 846.3 453.6 844.9 454.85 843.1 454.75 841.25 454.7 840 453.35 838.85 452 838.9 450.3
L 838.85 451.05
Q 838.75 452.85 837.4 454.1 836.25 455.1 834.65 455.15 840.6 461.45 842.3 468.35 842.9 467.9 843.5 467.45 850.8 461.8 851.15 453.35 851.3 449.95 850.05 448.5 850 448.4 850 448.35 849.55 447.95 848.9 447.65 848.4 447.45 847.8 447.4 Z"/>
</g>

<g id="Layer0_1_MEMBER_0_MEMBER_0_MEMBER_0_FILL">
<path fill="#C49881" stroke="none" d="
M -392.2 201.8
L -393.25 201.45
Q -393.7 202.05 -394.25 203
L -392.2 201.8 Z"/>

<path fill="#80543E" stroke="none" d="
M -381.9 215.3
Q -379.05 214.8 -376.5 214.15 -376.1 214.05 -375.7 213.95 -374.3 213.45 -373.05 211.45 -381.75 213.1 -390.55 210.85 -395.8 209.55 -401.15 206.85 -408.3 203.25 -415.7 197.2 -415.95 200.55 -413.85 203.85 -410 209.9 -402.35 212.45 -399.9 213.25 -397.05 213.7 -385.15 215.8 -381.9 215.3
M -384.7 191.65
Q -385.8 192.45 -387.1 193.75 -387.65 194.25 -388.2 194.85 -390.45 197.5 -393.25 201.45
L -392.2 201.8 -379.9 205.4 -373.3 196.25
Q -373.75 196 -374.15 195.7 -375.25 195 -376.25 194.5 -376.9 194.15 -377.55 193.9 -380.2 192.45 -381.75 192.6 -384.25 192.75 -384.7 191.65
M -408.45 87.55
Q -407.6 90.15 -405.5 93.3 -361.95 114.2 -360.4 136.35 -359.4 108.25 -408.45 87.55 Z"/>

<path fill="#B47657" stroke="none" d="
M -410.6 188.05
Q -415.3 192.65 -415.7 197.2 -408.3 203.25 -401.15 206.85 -395.8 209.55 -390.55 210.85 -381.75 213.1 -373.05 211.45 -371.9 209.5 -370.95 206.1 -369.6 201.35 -371.5 198.3 -372.2 197.2 -373.3 196.25
L -379.9 205.4 -392.2 201.8 -394.25 203
Q -393.7 202.05 -393.25 201.45 -390.45 197.5 -388.2 194.85 -387.65 194.25 -387.1 193.75 -385.8 192.45 -384.7 191.65 -370.9 182.25 -361.9 172.95 -313.5 123.3 -401.6 77.05 -410.4 80.45 -408.45 87.55 -359.4 108.25 -360.4 136.35 -359.2 152.4 -380.35 169.2 -381.35 170 -382.45 170.8 -393.7 179.3 -410.6 188.05 Z"/>
</g>

<g id="Layer0_1_MEMBER_0_MEMBER_0_MEMBER_1_FILL">
<path fill="#77A0C9" stroke="none" d="
M -470.95 106.4
L -472.5 118.6 -468.25 102.6 -495.55 101.75 -493.8 110 -470.95 106.4
M -415.8 100.8
L -408.55 117.6 -410.3 106.4 -389.75 111.05 -387.25 102.55 -415.8 100.8 Z"/>

<path fill="#99CCFF" stroke="none" d="
M -415.85 69.05
L -465.3 68.1 -499.75 80.8 -495.55 101.75 -468.25 102.6 -472.5 118.6 -483.3 198.95
Q -409.9 203.05 -398.1 195.75
L -408.55 117.6 -415.8 100.8 -387.25 102.55 -381.35 82.1 -415.85 69.05 Z"/>
</g>

<g id="Layer0_1_MEMBER_0_MEMBER_1_FILL">
<path fill="#00152C" stroke="none" d="
M 152.7 658.25
Q 152.15 661.5 151.6 664.85 142.75 720.95 145.85 775.35 146 777.15 146.15 778.95 146.7 787.8 149.65 804.3 149.65 804.35 149.65 804.4 152.9 805.75 156.15 805.55 159.8 805.4 163.35 803.3 163.5 803.25 163.7 803.2 162.35 784 162 777.65 161.9 776.45 161.85 775.35 159.5 731.15 170.6 683.6
L 213.3 681.5 217.65 722.7 234.75 722.7 231.25 664.95 231.25 656.8 152.7 658.25 Z"/>
</g>

<g id="Layer0_1_MEMBER_0_MEMBER_1_MEMBER_0_FILL">
<path fill="#CCCCCC" stroke="none" d="
M 145.55 824.95
Q 145.95 825.1 146.3 825.1 146.85 825.2 148.05 826.4 148.2 826.6 149.15 827.7 149.5 828.05 149.85 828.35 150.35 828.75 150.75 828.75 151.45 828.75 151.45 827.95 151.35 827.2 151.1 826.9 150.9 826.4 150.6 826.4 149.95 826.4 149 825.7 147.8 824.7 147.3 824.4 146.75 824.15 146.25 823.95 144.55 823.3 143.75 823.1 143.6 823.1 143.4 823 142.2 822.9 142.2 823.85 142.2 824.1 142.3 824.15 142.3 824.3 142.4 824.4 142.6 824.5 142.95 824.6 144.4 824.8 145.55 824.95
M 151.9 820.75
Q 152.35 821 152.85 821.55 153.3 822 154 822 154.3 822 154.55 821.85 154.7 821.55 154.7 821.3 154.7 820.95 154.55 820.75 153.85 819.45 149.95 818.9 149.45 818.75 148.85 818.75 147.65 818.6 146.65 818.75 146.2 818.75 145.85 818.9 145.2 819.05 145.2 819.35 145.2 819.5 145.4 819.7
L 145.45 819.7
Q 145.55 819.8 145.85 820 147.25 819.85 148.3 819.85 150.75 819.85 151.9 820.75
M 136.75 833.25
Q 137.5 833.75 138.1 834.2 140.45 835.65 140.65 835.65 141.6 835.65 141.6 834.95 141.6 834.35 139 832.95 138.35 832.5 137.5 832.1 135.95 831.35 134.9 831.15 133.4 830.65 133.4 831.4 133.4 831.3 134.1 831.65 134.8 832 136.15 832.95 136.45 833.1 136.75 833.25
M 127.8 834.65
Q 128.15 834.8 128.75 834.95 129.95 835.35 130.95 835.8 131.55 836.1 131.95 836.4 131.95 836.45 132.2 836.6 132.65 836.95 133.75 838 134.9 839.15 135.3 839.4
L 135.4 839.45
Q 136.05 839.45 136.1 838.95 136.15 838.75 136.15 838.6 136.15 838.05 134.75 836.85 134.45 836.5 134 836.25 133.2 835.65 132.4 835.1 131.95 834.85 131.55 834.55 130.65 834.05 129.95 833.75 126.8 832.25 126.8 834.1 126.8 834.25 127.8 834.65
M 139 828.15
L 138.9 828.15
Q 137.55 828.25 137.55 828.85 137.55 828.9 137.75 829.15 137.85 829.3 138.2 829.45 139.4 829.55 140.65 829.9 141.5 830.1 142.2 830.55 142.9 830.75 143.55 831.15 145.05 831.9 145.75 832.25
L 146.2 832.55
Q 147 832.55 147 832.1 147.1 831.95 147.1 831.9 147.1 831.55 147 831.3 146.8 830.75 146.4 830.4 145.55 829.5 143.7 828.9 143.05 828.75 142.3 828.5 140.4 828.05 139 828.15
M 146.65 814.8
Q 146.7 814.85 146.8 814.9 146.95 814.95 147.1 815.1 147.25 815.1 147.3 815.1 149.1 814.95 150.5 815 153.15 815 154.05 815.6 154.3 815.8 154.7 816.2 154.95 816.6 155.45 816.6 155.8 816.6 156 816.35 156.15 816.15 156.15 815.8 156.15 815.7 156.15 815.65 156 815.35 155.25 814.95 154.55 814.7 151.9 813.75
L 147.7 813.75 147.1 813.75
Q 146.8 813.85 146.55 814.2 146.45 814.35 146.45 814.45 146.45 814.65 146.65 814.8
M 148.85 810.5
Q 149 810.55 149.3 810.55 149.45 810.55 149.65 810.5 150 810.35 150.55 810.1 151.3 809.85 152.2 809.8 153 809.8 153.8 809.9 154 810.1 154.75 810.5 154.8 810.5 154.95 810.55 155.8 810.9 156.2 810.9 156.45 810.9 156.6 810.9 157.1 810.8 157.25 810.5 157.3 810.3 157.3 810.2 157.3 809.6 156.55 809.35
L 156.5 809.35
Q 155.1 809.05 154.4 808.5 153 808.5 151.95 808.65 149.95 808.75 149.25 808.9 148.85 809.05 148.75 809.3 148.6 809.45 148.6 809.8 148.6 809.95 148.6 810.2 148.65 810.35 148.85 810.5 Z"/>

<path fill="#00274F" stroke="none" d="
M 152.85 821.55
Q 152.35 821 151.9 820.75 150.75 819.85 148.3 819.85 147.25 819.85 145.85 820 145.55 819.8 145.45 819.7 144.55 821.45 143.4 823 143.6 823.1 143.75 823.1 144.55 823.3 146.25 823.95 146.75 824.15 147.3 824.4 147.8 824.7 149 825.7 149.95 826.4 150.6 826.4 150.9 826.4 151.1 826.9 152.75 824.4 154 822 153.3 822 152.85 821.55
M 129.95 833.75
Q 130.65 834.05 131.55 834.55 131.95 834.85 132.4 835.1 133.2 835.65 134 836.25 134.45 836.5 134.75 836.85 136.15 838.05 136.15 838.6 136.15 838.75 136.1 838.95 141.5 836.05 145.75 832.25 145.05 831.9 143.55 831.15 142.9 830.75 142.2 830.55 141.5 830.1 140.65 829.9 139.4 829.55 138.2 829.45 137.85 829.3 137.75 829.15 136.4 830.15 134.9 831.15 135.95 831.35 137.5 832.1 138.35 832.5 139 832.95 141.6 834.35 141.6 834.95 141.6 835.65 140.65 835.65 140.45 835.65 138.1 834.2 137.5 833.75 136.75 833.25 136.45 833.1 136.15 832.95 134.8 832 134.1 831.65 132.15 832.8 129.95 833.75
M 128.75 834.95
Q 128.15 834.8 127.8 834.65 125.05 835.7 121.85 836.45
L 128.35 842.65
Q 131.95 841.15 135.3 839.4 134.9 839.15 133.75 838 132.65 836.95 132.2 836.6 131.95 836.45 131.95 836.4 131.55 836.1 130.95 835.8 129.95 835.35 128.75 834.95
M 138.9 828.15
L 139 828.15
Q 140.4 828.05 142.3 828.5 143.05 828.75 143.7 828.9 145.55 829.5 146.4 830.4 146.8 830.75 147 831.3 148.5 829.85 149.85 828.35 149.5 828.05 149.15 827.7 148.2 826.6 148.05 826.4 146.85 825.2 146.3 825.1 145.95 825.1 145.55 824.95 144.4 824.8 142.95 824.6 142.6 824.5 142.4 824.4 140.85 826.4 138.9 828.15
M 150.5 815
Q 149.1 814.95 147.3 815.1 146.65 817.1 145.85 818.9 146.2 818.75 146.65 818.75 147.65 818.6 148.85 818.75 149.45 818.75 149.95 818.9 153.85 819.45 154.55 820.75 155.5 818.55 156 816.35 155.8 816.6 155.45 816.6 154.95 816.6 154.7 816.2 154.3 815.8 154.05 815.6 153.15 815 150.5 815
M 148.75 809.3
Q 148.85 809.05 149.25 808.9 149.95 808.75 151.95 808.65 153 808.5 154.4 808.5 155.1 809.05 156.5 809.35
L 156.55 809.35
Q 156.4 807.45 156 805.55 152.7 805.7 149.45 804.35
L 149.25 804.4
Q 149.1 806.7 148.8 808.8 148.8 809.1 148.75 809.3
M 149.3 810.55
Q 149 810.55 148.85 810.5 148.65 810.35 148.6 810.2 148.6 809.95 148.6 809.8 148.5 810.15 148.5 810.5 148.15 812.15 147.7 813.75
L 151.9 813.75
Q 154.55 814.7 155.25 814.95 156 815.35 156.15 815.65 156.65 813.3 156.6 810.9 156.45 810.9 156.2 810.9 155.8 810.9 154.95 810.55 154.8 810.5 154.75 810.5 154 810.1 153.8 809.9 153 809.8 152.2 809.8 151.3 809.85 150.55 810.1 150 810.35 149.65 810.5 149.45 810.55 149.3 810.55 Z"/>

<path fill="#003366" stroke="none" d="
M 163.55 804.3
L 163.1 803.3
Q 159.55 805.4 156 805.55 156.4 807.45 156.55 809.35 157.3 809.6 157.3 810.2 157.3 810.3 157.25 810.5 157.1 810.8 156.6 810.9 156.65 813.3 156.15 815.65 156.15 815.7 156.15 815.8 156.15 816.15 156 816.35 155.5 818.55 154.55 820.75 154.7 820.95 154.7 821.3 154.7 821.55 154.55 821.85 154.3 822 154 822 152.75 824.4 151.1 826.9 151.35 827.2 151.45 827.95 151.45 828.75 150.75 828.75 150.35 828.75 149.85 828.35 148.5 829.85 147 831.3 147.1 831.55 147.1 831.9 147.1 831.95 147 832.1 147 832.55 146.2 832.55
L 145.75 832.25
Q 141.5 836.05 136.1 838.95 136.05 839.45 135.4 839.45
L 135.3 839.4
Q 131.95 841.15 128.35 842.65
L 133.3 847.45 133.45 847.45
Q 136.15 848.1 165.45 836.95 167.5 836.15 169.65 835.35
L 169.8 835.35 163.55 804.3 Z"/>

<path fill="#FFFFFF" stroke="none" d="
M 169.8 835.75
L 165.45 836.95
Q 136.15 848.1 133.45 847.45
L 134.55 848.6
Q 132.4 847.3 133.3 847.45
L 128.35 842.65 121.85 836.45 109.7 840.45
Q 106.55 845.45 108 849.55 108.4 849.55 108.75 849.6 106.4 851.8 108.35 854.75 143.95 857.4 171.1 841.7
L 169.8 835.75 Z"/>
</g>

<g id="Layer0_1_MEMBER_0_MEMBER_1_MEMBER_1_FILL">
<path fill="#00152C" stroke="none" d="
M 234.75 722.7
L 217.65 722.7 222.8 772.25 226.3 800.3
Q 231.95 805.4 239.3 799
L 234.75 722.7 Z"/>
</g>

<g id="Layer0_1_MEMBER_0_MEMBER_1_MEMBER_1_MEMBER_0_FILL">
<path fill="#00274F" stroke="none" d="
M 241.85 809.6
Q 240.05 809.6 238.7 809.65 236 809.8 235.15 810.35 234.9 810.55 234.55 811.1 234.35 811.35 233.8 811.45 233.45 811.45 233.2 811.25 233.8 813.4 234.9 815.45 235.5 814.2 239.4 813.5 239.95 813.4 240.5 813.3 241.65 813.15 242.65 813.15 243.2 813.2 243.5 813.3 242.6 811.45 241.85 809.6
M 232.75 805.8
Q 232.55 805.8 232.35 805.8 232.45 808.15 233.05 810.55 233.2 810.2 234 809.8 234.55 809.45 237.3 808.45
L 241.4 808.25
Q 240.85 806.7 240.45 804.95 240.35 804.7 240.3 804.35 240.3 804.45 240.3 804.7 240.25 804.9 240.2 805.05 239.95 805.1 239.6 805.15
L 239.25 805.1
Q 239 804.9 238.4 804.7 237.65 804.5 236.7 804.5 235.95 804.5 235.2 804.7 234.9 804.85 234.2 805.25 234.15 805.25 234.1 805.25 233.2 805.8 232.75 805.8
M 237 803.3
Q 239 803.3 239.6 803.45 240.05 803.6 240.25 803.85 240.2 803.65 240.1 803.35 239.65 801.25 239.5 799
L 239.25 798.95
Q 236.05 800.45 232.8 800.45 232.35 802.3 232.35 804.3
L 232.45 804.3
Q 233.75 803.85 234.5 803.25 235.95 803.25 237 803.3
M 250.65 822.2
Q 250.75 822.2 250.8 822.2 248.8 820.6 247.1 818.6 246.95 818.75 246.6 818.9 245.15 819.15 244 819.4 243.7 819.45 243.3 819.6 242.75 819.7 241.65 820.9 241.45 821.15 240.55 822.3 240.25 822.7 239.95 822.9 241.35 824.4 242.9 825.65 243.05 825.2 243.45 824.8 244.3 823.95 246.1 823.25 246.7 822.95 247.4 822.75
L 247.5 822.75
Q 249.35 822.2 250.65 822.2
M 262.15 828.25
Q 261.8 828.4 261.35 828.6 260.05 829.1 259.15 829.55 258.5 829.9 258.15 830.2 258.1 830.25 257.9 830.4 257.45 830.85 256.4 831.9 255.3 833.1 254.9 833.35 258.3 834.95 262.05 836.25
L 268.2 829.85
Q 265 829.2 262.15 828.25
M 253.7 826.9
Q 253.45 827.05 253.15 827.35 252.45 827.8 251.9 828.25 249.6 829.85 249.35 829.85 248.4 829.9 248.4 829.15 248.4 828.5 250.95 827 251.65 826.6 252.4 826.2 253.95 825.4 254.85 825.1 253.45 824.1 252.05 823.15
L 252.05 823.25
Q 251.9 823.35 251.6 823.55 250.35 823.65 249.15 824.1 248.4 824.4 247.55 824.75 246.95 825.1 246.3 825.45 244.8 826.35 244.2 826.75 248.6 830.2 254.1 832.95 254 832.75 254 832.55 254 832.1 255.4 830.75 255.7 830.45 256.05 830.2 256.8 829.5 257.7 828.9 258.1 828.6 258.5 828.35 259.35 827.85 260.05 827.5 257.8 826.6 255.8 825.55 255.15 825.9 253.7 826.9
M 243.95 814.2
Q 243.85 814.2 243.5 814.45 242.2 814.35 241.05 814.45 238.6 814.65 237.5 815.45 237.15 815.7 236.65 816.35 236.2 816.8 235.5 816.8 236.75 819.1 238.55 821.5 238.8 821.15 239 821.1 239.7 821.1 240.65 820.25 241.8 819.15 242.3 818.9 242.8 818.6 243.3 818.4 244.95 817.65 245.7 817.45 245.85 817.35 246.1 817.35 244.95 815.8 243.95 814.2 Z"/>

<path fill="#CCCCCC" stroke="none" d="
M 242.35 809.35
L 242.5 809.3
Q 242.65 809.1 242.65 808.9 242.65 808.8 242.55 808.65 242.3 808.35 241.95 808.25
L 241.4 808.25 237.3 808.45
Q 234.55 809.45 234 809.8 233.2 810.2 233.05 810.55 233.05 810.6 233.05 810.7 233.05 811.1 233.2 811.25 233.45 811.45 233.8 811.45 234.35 811.35 234.55 811.1 234.9 810.55 235.15 810.35 236 809.8 238.7 809.65 240.05 809.6 241.85 809.6 241.95 809.6 242.05 809.6 242.2 809.45 242.35 809.35
M 239.6 803.45
Q 239 803.3 237 803.3 235.95 803.25 234.5 803.25 233.75 803.85 232.45 804.3
L 232.35 804.3
Q 231.7 804.45 231.7 805.1 231.7 805.25 231.7 805.4 231.9 805.7 232.35 805.8 232.55 805.8 232.75 805.8 233.2 805.8 234.1 805.25 234.15 805.25 234.2 805.25 234.9 804.85 235.2 804.7 235.95 804.5 236.7 804.5 237.65 804.5 238.4 804.7 239 804.9 239.25 805.1
L 239.6 805.15
Q 239.95 805.1 240.2 805.05 240.25 804.9 240.3 804.7 240.3 804.45 240.3 804.35
L 240.3 804.3
Q 240.3 804 240.25 803.85 240.05 803.6 239.6 803.45
M 246.1 817.35
Q 245.85 817.35 245.7 817.45 244.95 817.65 243.3 818.4 242.8 818.6 242.3 818.9 241.8 819.15 240.65 820.25 239.7 821.1 239 821.1 238.8 821.15 238.55 821.5 238.4 821.85 238.3 822.55 238.3 823.35 239 823.35 239.4 823.35 239.95 822.9 240.25 822.7 240.55 822.3 241.45 821.15 241.65 820.9 242.75 819.7 243.3 819.6 243.7 819.45 244 819.4 245.15 819.15 246.6 818.9 246.95 818.75 247.1 818.6 247.25 818.55 247.25 818.45 247.25 818.4 247.25 818.1 247.25 817.2 246.1 817.35
M 252.2 822.85
Q 252.2 822.25 250.8 822.2 250.75 822.2 250.65 822.2 249.35 822.2 247.5 822.75
L 247.4 822.75
Q 246.7 822.95 246.1 823.25 244.3 823.95 243.45 824.8 243.05 825.2 242.9 825.65 242.8 826 242.8 826.4 242.85 826.4 242.85 826.55 243 827 243.7 827
L 244.2 826.75
Q 244.8 826.35 246.3 825.45 246.95 825.1 247.55 824.75 248.4 824.4 249.15 824.1 250.35 823.65 251.6 823.55 251.9 823.35 252.05 823.25
L 252.05 823.15
Q 252.2 823 252.2 822.85
M 263.15 827.7
Q 263.1 825.85 260.05 827.5 259.35 827.85 258.5 828.35 258.1 828.6 257.7 828.9 256.8 829.5 256.05 830.2 255.7 830.45 255.4 830.75 254 832.1 254 832.55 254 832.75 254.1 832.95 254.25 833.45 254.85 833.45
L 254.9 833.35
Q 255.3 833.1 256.4 831.9 257.45 830.85 257.9 830.4 258.1 830.25 258.15 830.2 258.5 829.9 259.15 829.55 260.05 829.1 261.35 828.6 261.8 828.4 262.15 828.25 263.15 827.8 263.15 827.7
M 253.15 827.35
Q 253.45 827.05 253.7 826.9 255.15 825.9 255.8 825.55 256.5 825.15 256.55 825.3 256.5 824.5 254.85 825.1 253.95 825.4 252.4 826.2 251.65 826.6 250.95 827 248.4 828.5 248.4 829.15 248.4 829.9 249.35 829.85 249.6 829.85 251.9 828.25 252.45 827.8 253.15 827.35
M 243.5 814.45
Q 243.85 814.2 243.95 814.2 243.95 814.15 244 814.15 244.15 813.95 244.15 813.75 244.15 813.45 243.5 813.3 243.2 813.2 242.65 813.15 241.65 813.15 240.5 813.3 239.95 813.4 239.4 813.5 235.5 814.2 234.9 815.45 234.75 815.8 234.75 816.1 234.75 816.4 234.9 816.6 235.2 816.8 235.5 816.8 236.2 816.8 236.65 816.35 237.15 815.7 237.5 815.45 238.6 814.65 241.05 814.45 242.2 814.35 243.5 814.45 Z"/>

<path fill="#FFFFFF" stroke="none" d="
M 262.05 836.25
L 257.25 841.25
Q 258.1 841.05 256.05 842.55
L 257.2 841.25
Q 254.4 842.05 224.75 832.25
L 220.3 831.3 219.25 837.2
Q 247.1 851.7 282.5 847.45 284.3 844.5 281.85 842.35 282.25 842.35 282.6 842.25 283.9 838.1 280.55 833.25
L 268.2 829.85 262.05 836.25 Z"/>

<path fill="#003366" stroke="none" d="
M 244.2 826.75
L 243.7 827
Q 243 827 242.85 826.55 242.85 826.4 242.8 826.4 242.8 826 242.9 825.65 241.35 824.4 239.95 822.9 239.4 823.35 239 823.35 238.3 823.35 238.3 822.55 238.4 821.85 238.55 821.5 236.75 819.1 235.5 816.8 235.2 816.8 234.9 816.6 234.75 816.4 234.75 816.1 234.75 815.8 234.9 815.45 233.8 813.4 233.2 811.25 233.05 811.1 233.05 810.7 233.05 810.6 233.05 810.55 232.45 808.15 232.35 805.8 231.9 805.7 231.7 805.4 231.7 805.25 231.7 805.1 231.7 804.45 232.35 804.3 232.35 802.3 232.8 800.45 229.2 800.35 225.55 798.5
L 225.15 799.45 220.25 830.75
Q 220.3 830.75 220.35 830.85 222.55 831.55 224.75 832.25 254.4 842.05 257.2 841.25
L 257.25 841.25 262.05 836.25
Q 258.3 834.95 254.9 833.35
L 254.85 833.45
Q 254.25 833.45 254.1 832.95 248.6 830.2 244.2 826.75 Z"/>
</g>

<g id="Layer0_1_MEMBER_0_MEMBER_2_FILL">
<path fill="#77A0C9" stroke="none" d="
M 189.55 527.05
Q 182.95 527.05 178.3 529.85 173.7 532.7 173.7 536.7 173.7 540.65 178.3 543.45 182.95 546.25 189.55 546.25 196.15 546.25 200.75 543.45 205.45 540.65 205.45 536.7 205.45 532.7 200.75 529.85 196.15 527.05 189.55 527.05 Z"/>
</g>

<g id="Layer0_1_MEMBER_0_MEMBER_3_MEMBER_0_MEMBER_0_MEMBER_0_MEMBER_0_FILL">
<path fill="#80543E" stroke="none" d="
M -453.4 55.7
Q -441.95 61.95 -431.45 56.25
L -431.45 41.15 -453.4 41.15 -453.4 55.7 Z"/>

<path fill="#B47657" stroke="none" d="
M -453.4 55.7
L -453.4 73.95
Q -442.4 86.5 -431.45 73.95
L -431.45 56.25
Q -441.95 61.95 -453.4 55.7 Z"/>
</g>

<g id="Layer0_1_MEMBER_0_MEMBER_3_MEMBER_0_MEMBER_0_MEMBER_1_MEMBER_0_FILL">
<path fill="#333333" stroke="none" d="
M -374.45 -53
Q -374.5 -53.05 -374.8 -53.25 -374.95 -53.4 -375.25 -53.65 -375.25 -53.15 -375.25 -52.6 -375.3 -48.45 -376 -44.35 -376.75 -40.3 -378.15 -36.3
L -387.2 -55.05
Q -384.55 -46.7 -385.4 -39.6 -385.45 -39.4 -385.5 -39.1 -385.65 -39 -384.1 -36.15 -382.65 -33.35 -381.75 -25.7 -381.05 -15.4 -382.75 -5.1
L -379 -5 -375.85 -25.7
Q -375.35 -26.7 -374.4 -27.65 -373.45 -28.65 -371.95 -29.55 -371.25 -37 -372.5 -44.35 -372.65 -45.3 -372.9 -46.15 -374.45 -53.9 -374.35 -51.85
L -374.45 -53
M -493.25 -61.3
L -494.35 -49.95 -502.9 -58.45 -506.3 -46.5 -514.05 -57.15
Q -516.7 -44.6 -515.55 -31.9 -515.5 -31.7 -515.5 -31.45 -514.8 -24.65 -513.1 -17.85 -513.05 -17.65 -512.9 -17.4 -510.85 -9.25 -507.15 -1.05
L -507.05 -1.05 -502.9 -1.05
Q -503.25 -17.15 -496.9 -33.65 -492.9 -42.1 -489.4 -44.05
L -493.25 -61.3 Z"/>

<path fill="#000000" stroke="none" d="
M -507.1 -1
L -507.05 -1.05 -507.15 -1.05
Q -507.1 -1.0484375 -507.1 -1
M -513.3 -17.85
L -512.9 -17.4
Q -513.05 -17.65 -513.1 -17.85
L -513.3 -17.85
M -499.05 -86.5
Q -498.85 -86.15 -498.85 -85.65 -498.85 -85.4 -502.75 -82.25 -503.5 -81.55 -504.2 -81.05 -508.55 -77.4 -511.5 -74.6 -513.9 -72.45 -515.9 -70.3 -519.1 -67 -521.45 -63.85 -525.45 -58.45 -526.8 -53.8 -525.55 -54.25 -520.2 -55.7 -516.6 -56.7 -514.6 -57.95 -514.1 -58.25 -513.8 -58.65 -513.65 -58.75 -513.55 -58.8 -513.75 -58.5 -513.85 -58.15 -514.05 -57.8 -514.2 -57.4
L -514.05 -57.15 -506.3 -46.5 -502.9 -58.45 -494.35 -49.95 -493.25 -61.3 -489.4 -44.05
Q -489.35 -44.1 -489.3 -44.1 -489.3 -43.95 -489.3 -43.75 -489.3 -39.55 -489.15 -37.55 -489.1 -35.8 -488.95 -34.35 -488.85 -33.1 -488.65 -31.95 -486.75 -34.15 -483.5 -41.1 -479.95 -48.75 -479.1 -53.75
L -478.4 -53.75
Q -476.6 -46.3 -471.35 -33.9 -471.35 -34.7 -471.1 -34.95 -470.9 -35.2 -470.75 -35.2 -470.75 -36.55 -469.7 -45.3 -468.65 -53.45 -468.8 -55.05 -464.2 -52.75 -461.6 -51.2 -455.85 -47.75 -453.55 -44.1
L -453.55 -57.6
Q -453.25 -57.35 -452.8 -56.95 -449.75 -54.45 -440.6 -48.05 -428.6 -39.7 -427.95 -39.05
L -422.2 -33.9
Q -423.05 -38.7 -425.45 -43.5 -425.3 -44.05 -428.8 -48.95 -429.8 -50.2 -430.65 -51.25 -430.8 -51.45 -430.95 -51.6 -430.55 -51.45 -430.1 -51.35 -419.4 -47.3 -411.2 -43.2 -414.6 -47.6 -418.2 -50.9 -421.7 -54.35 -423.95 -55.6 -420.8 -54.85 -413.95 -51.9 -407.15 -48.95 -405.4 -47.5 -403.65 -46 -399.35 -42.8 -395.2 -39.55 -394.75 -39.05
L -393.4 -37.6
Q -396.5 -48.7 -401.15 -53.75 -398.2 -51.15 -393.65 -47.25 -390.05 -44.1 -387.9 -41.85 -387.75 -41.65 -387.55 -41.5 -386.55 -40.4 -385.5 -39.1 -385.45 -39.4 -385.4 -39.6 -384.55 -46.7 -387.2 -55.05
L -378.15 -36.3
Q -376.75 -40.3 -376 -44.35 -375.3 -48.45 -375.25 -52.6 -375.25 -53.15 -375.25 -53.65 -374.95 -53.4 -374.8 -53.25 -374.5 -53.05 -374.45 -53 -372.5 -52.25 -369.95 -49.8 -367.55 -47.4 -366.1 -44.35 -366.05 -44.25 -366 -44.1
L -365.25 -41.4
Q -364.55 -42 -364.6 -44.35 -364.6 -45.9 -364.9 -48.05 -365.75 -53.85 -366.6 -57.1 -367.6 -60.4 -370.9 -66.8 -371.85 -68.6 -373.15 -70.3 -376.55 -74.65 -382.45 -78.4 -388.8 -82.4 -392 -83.7
L -379.6 -80.2
Q -382.9 -84.8 -386.75 -88.45 -387.05 -88.7 -387.2 -88.9 -391.35 -92.8 -399.25 -96.65 -407.2 -100.5 -418.95 -100.35 -415 -103.3 -411.25 -104.4 -406.9 -105.7 -404.8 -105.6 -402.7 -105.45 -399.65 -105.45
L -401.95 -107.05
Q -405.15 -109.9 -413 -112.15 -420.8 -114.4 -427.35 -114.05 -433.85 -113.75 -444.1 -112.2 -453.9 -109.75 -459.1 -106.7 -461.05 -105.6 -462.35 -104.4 -462.4 -104.3 -462.45 -104.15
L -463.1 -104.15
Q -462.7 -104.3 -462.35 -104.4 -461.8 -105.45 -460.9 -106.7 -459.15 -109.35 -456.05 -113.15 -452.5 -117.65 -449.05 -121.45
L -449.65 -121.45
Q -461.1 -118.35 -471.05 -111.85 -474.75 -109.45 -478.05 -106.7 -483.25 -102.35 -487.3 -97.2 -490.6 -94.9 -487.95 -101.65 -486.8 -104.55 -485.85 -106.7 -484.6 -109.35 -483.7 -110.6 -484.4 -110.6 -484.95 -110.65 -487.55 -108.7 -489.55 -106.7 -500.2 -96.55 -499.05 -86.5 Z"/>

<path fill="#80543E" stroke="none" d="
M -530.75 -20.95
Q -532.8 -16.2 -530.9 -9.65 -528.95 -3.05 -524.05 1.65 -522.5 3.15 -520.9 4.15 -517.55 6.3 -514.3 6.3 -512.55 6.3 -511.15 5.75 -509.85 5.2 -508.9 4.15 -507.9 3.15 -507.2 1.65 -506.7 0.5 -506.5 -0.8 -506.65 -0.6 -506.9 -0.5 -506.95 -0.45 -507.1 -0.4 -507.15 -0.35 -507.2 -0.3 -507.15 -0.55 -507.15 -0.8 -507.75 0.35 -509.5 -0.25 -509.45 -0.2 -509.35 -0.1 -509.55 -0.1 -509.7 -0.1 -512.1 -0.45 -514.5 -2.75 -517.35 -5.45 -518.45 -9.3 -519.65 -13.1 -518.4 -15.8 -517.8 -17.2 -516.75 -17.85 -516.7 -17.9 -516.6 -17.9
L -516.6 -17.85
Q -514.45 -19.15 -513.3 -17.85 -515.05 -22.25 -518.3 -23.6 -518.45 -24 -518.55 -24.3 -518.85 -24.45 -519.15 -24.6 -519.85 -24.85 -520.5 -25.05 -520.75 -25.2 -521 -25.2 -521.1 -25.2 -521.2 -25.05 -524.25 -26.25 -527.3 -24.75 -529.55 -23.7 -530.75 -20.95
M -369.7 -21.2
Q -369.9 -21 -370.1 -20.95 -371.75 -19.3 -373.05 -17.55 -371.3 -18.5 -369.6 -18.5 -366.75 -18.5 -365.55 -15.8 -364.35 -13.1 -365.45 -9.3 -366.6 -5.45 -369.4 -2.75 -372.2 -0.1 -375.05 -0.1 -376.15 -0.1 -376.85 -0.4 -377.2 -0.55 -377.5 -0.8 -377.25 0.5 -376.7 1.65 -376.25 2.6 -375.7 3.35 -374.5 5 -372.8 5.75 -371.4 6.3 -369.65 6.3 -365.75 6.3 -361.9 3.35 -360.9 2.6 -359.85 1.65 -355.75 -2.25 -353.8 -7.55 -353.4 -8.55 -353.05 -9.65 -351.15 -16.2 -353.2 -20.95 -353.5 -21.45 -353.8 -22 -355.95 -25.6 -360.3 -25.6 -363.8 -25.6 -367.2 -23.25 -368.5 -22.35 -369.7 -21.2 Z"/>

<path fill="#B47657" stroke="none" d="
M -530.9 -9.65
Q -532.8 -16.2 -530.75 -20.95 -529.55 -23.7 -527.3 -24.75 -524.25 -26.25 -521.2 -25.05 -521.1 -25.2 -521 -25.2 -520.75 -25.2 -520.5 -25.05 -519.85 -24.85 -519.15 -24.6 -518.85 -24.45 -518.55 -24.3 -518.45 -24 -518.3 -23.6 -515.05 -22.25 -513.3 -17.85
L -513.1 -17.85
Q -514.8 -24.65 -515.5 -31.45 -516 -31.7 -516.4 -31.9 -520.6 -33.55 -524.45 -33.1
L -524.45 -33.2
Q -525.05 -33.1 -525.65 -32.95 -527.15 -32.65 -528.4 -31.9 -531.2 -30.2 -532.85 -26.6 -535.8 -20 -533.05 -10.6 -530.55 -2.05 -524.65 4.15 -524.05 4.8 -523.35 5.4 -516.4 12.05 -509.45 12.05 -506.3 12.05 -503.95 10.8 -503.4 12.3 -502.65 13.8 -502.3 14.5 -501.9 15.2 -497.2 24.3 -489.35 32.1 -469.65 51.85 -441.7 51.85 -413.85 51.85 -394.05 32.1 -390.9 28.95 -388.3 25.6 -383.2 19.15 -379.95 11.95 -379.85 11.6 -379.7 11.3 -377.7 12.05 -375.25 12.05 -368.25 12.05 -361.3 5.4 -360.25 4.45 -359.25 3.35 -355.95 -0.35 -353.8 -4.85 -352.5 -7.55 -351.7 -10.5 -351.65 -10.5 -351.65 -10.6 -348.85 -19.7 -351.7 -26.3 -351.7 -26.45 -351.8 -26.6 -354.8 -33.25 -361.85 -33.25 -366.8 -33.25 -371.8 -29.95 -371.8 -29.8 -371.8 -29.75 -371.9 -29.65 -371.95 -29.55 -373.45 -28.65 -374.4 -27.65 -375.35 -26.7 -375.85 -25.7
L -379 -5 -382.75 -5.1
Q -381.05 -15.4 -381.75 -25.7 -382.65 -33.35 -384.1 -36.15 -385.65 -39 -385.5 -39.1 -386.55 -40.4 -387.55 -41.5 -387.75 -41.65 -387.9 -41.85 -390.05 -44.1 -393.65 -47.25 -398.2 -51.15 -401.15 -53.75 -396.5 -48.7 -393.4 -37.6
L -394.75 -39.05
Q -395.2 -39.55 -399.35 -42.8 -403.65 -46 -405.4 -47.5 -407.15 -48.95 -413.95 -51.9 -420.8 -54.85 -423.95 -55.6 -421.7 -54.35 -418.2 -50.9 -414.6 -47.6 -411.2 -43.2 -419.4 -47.3 -430.1 -51.35 -430.55 -51.45 -430.95 -51.6 -430.8 -51.45 -430.65 -51.25 -429.8 -50.2 -428.8 -48.95 -425.3 -44.05 -425.45 -43.5 -423.05 -38.7 -422.2 -33.9
L -427.95 -39.05
Q -428.6 -39.7 -440.6 -48.05 -449.75 -54.45 -452.8 -56.95 -453.25 -57.35 -453.55 -57.6
L -453.55 -44.1
Q -455.85 -47.75 -461.6 -51.2 -464.2 -52.75 -468.8 -55.05 -468.65 -53.45 -469.7 -45.3 -470.75 -36.55 -470.75 -35.2 -470.9 -35.2 -471.1 -34.95 -471.35 -34.7 -471.35 -33.9 -476.6 -46.3 -478.4 -53.75
L -479.1 -53.75
Q -479.95 -48.75 -483.5 -41.1 -486.75 -34.15 -488.65 -31.95 -488.85 -33.1 -488.95 -34.35 -489.1 -35.8 -489.15 -37.55 -489.3 -39.55 -489.3 -43.75 -489.3 -43.95 -489.3 -44.1 -489.35 -44.1 -489.4 -44.05 -492.9 -42.1 -496.9 -33.65 -503.25 -17.15 -502.9 -1.05
L -507.05 -1.05 -507.1 -1
Q -507.1 -1.0484375 -507.15 -1.05 -510.85 -9.25 -512.9 -17.4
L -513.3 -17.85
Q -514.45 -19.15 -516.6 -17.85
L -516.6 -17.9
Q -516.7 -17.9 -516.75 -17.85 -517.8 -17.2 -518.4 -15.8 -519.65 -13.1 -518.45 -9.3 -517.35 -5.45 -514.5 -2.75 -512.1 -0.45 -509.7 -0.1 -509.55 -0.1 -509.35 -0.1 -509.45 -0.2 -509.5 -0.25 -507.75 0.35 -507.15 -0.8 -507.15 -0.55 -507.2 -0.3 -507.15 -0.35 -507.1 -0.4 -506.95 -0.45 -506.9 -0.5 -506.65 -0.6 -506.5 -0.8 -506.7 0.5 -507.2 1.65 -507.9 3.15 -508.9 4.15 -509.85 5.2 -511.15 5.75 -512.55 6.3 -514.3 6.3 -517.55 6.3 -520.9 4.15 -522.5 3.15 -524.05 1.65 -528.95 -3.05 -530.9 -9.65
M -370.1 -20.95
Q -369.9 -21 -369.7 -21.2 -368.5 -22.35 -367.2 -23.25 -363.8 -25.6 -360.3 -25.6 -355.95 -25.6 -353.8 -22 -353.5 -21.45 -353.2 -20.95 -351.15 -16.2 -353.05 -9.65 -353.4 -8.55 -353.8 -7.55 -355.75 -2.25 -359.85 1.65 -360.9 2.6 -361.9 3.35 -365.75 6.3 -369.65 6.3 -371.4 6.3 -372.8 5.75 -374.5 5 -375.7 3.35 -376.25 2.6 -376.7 1.65 -377.25 0.5 -377.5 -0.8 -377.2 -0.55 -376.85 -0.4 -376.15 -0.1 -375.05 -0.1 -372.2 -0.1 -369.4 -2.75 -366.6 -5.45 -365.45 -9.3 -364.35 -13.1 -365.55 -15.8 -366.75 -18.5 -369.6 -18.5 -371.3 -18.5 -373.05 -17.55 -371.75 -19.3 -370.1 -20.95 Z"/>
</g>

<g id="olhos_0_Layer0_0_MEMBER_0_MEMBER_0_FILL">
<path fill="#000000" stroke="none" d="
M 208.35 543.35
Q 213.95 536.75 213.95 527.45 213.95 518.15 208.35 511.55 202.8 504.95 194.95 504.95 187.1 504.95 181.5 511.55 175.95 518.15 175.95 527.45 175.95 536.75 181.5 543.35 187.1 549.95 194.95 549.95 202.8 549.95 208.35 543.35 Z"/>
</g>

<g id="olhos_0_Layer0_0_MEMBER_0_MEMBER_1_FILL">
<path fill="#FFFFFF" stroke="none" d="
M 207.15 529.15
Q 209.95 526.4 209.95 522.45 209.95 518.5 207.15 515.7 204.4 512.95 200.45 512.95 196.5 512.95 193.7 515.7 190.95 518.5 190.95 522.45 190.95 526.4 193.7 529.15 196.5 531.95 200.45 531.95 204.4 531.95 207.15 529.15 Z"/>
</g>

<g id="olhos_0_Layer0_0_MEMBER_1_MEMBER_0_FILL">
<path fill="#000000" stroke="none" d="
M 208.35 543.35
Q 213.95 536.75 213.95 527.45 213.95 518.15 208.35 511.55 202.8 504.95 194.95 504.95 187.1 504.95 181.5 511.55 175.95 518.15 175.95 527.45 175.95 536.75 181.5 543.35 187.1 549.95 194.95 549.95 202.8 549.95 208.35 543.35 Z"/>
</g>

<g id="olhos_0_Layer0_0_MEMBER_1_MEMBER_1_FILL">
<path fill="#FFFFFF" stroke="none" d="
M 207.15 529.15
Q 209.95 526.4 209.95 522.45 209.95 518.5 207.15 515.7 204.4 512.95 200.45 512.95 196.5 512.95 193.7 515.7 190.95 518.5 190.95 522.45 190.95 526.4 193.7 529.15 196.5 531.95 200.45 531.95 204.4 531.95 207.15 529.15 Z"/>
</g>

<g id="Layer0_1_MEMBER_0_MEMBER_4_MEMBER_0_FILL">
<path fill="#000033" stroke="none" d="
M 201.3 583.15
L 201.65 591.6 211.3 591.6
Q 211.5 590.6 211.65 589.95 212 588.65 212.05 588.35 211.15 588.55 210.7 588.6 208.55 588.7 207.75 588.75
L 207.85 586.3
Q 209 586.3 209.55 586.35 210.85 586.45 211.15 586.55 211.25 585.65 211.4 585 211.65 583.9 211.8 583.5 209.1 583.6 207.9 583.55
L 208.05 581.5
Q 209.15 581.55 210.05 581.6 211.4 581.8 211.8 581.85
L 212.25 575 200.9 575
Q 201.25 580.2 201.3 583.15
M 192.5 579.65
Q 192.55 576.45 192.65 575
L 185.65 575
Q 185.75 577.95 186.05 581.55 186.4 585.45 186.75 586.9 187.4 589.45 189 590.65 190.85 592.05 194.4 592.05 197.25 592.05 200 591.05 200 585 200.15 582
L 200.4 575 195.05 575
Q 195.35 579.3 195.45 581.75 195.55 586.6 195.55 588.85 195.1 589.05 194.7 589.05 193.4 589.05 192.95 588.1 192.55 587.25 192.5 584.75 192.45 581.45 192.5 579.65
M 168.65 583.65
L 168.95 591.6 175.05 591.6 175.15 586.2
Q 175.55 587 175.7 587.45
L 176.25 588.75
Q 176.55 588.6 177.25 588.3 177.85 588.05 178.05 587.95
L 178.15 591.6 183.7 591.6
Q 183.9 586.5 184 583.65 184.3 577.65 184.45 575
L 177.45 575 178 585.2
Q 177.2 585.25 176.75 585.25 176 585.3 175.2 585.2
L 175.75 575 168.15 575
Q 168.55 580.55 168.65 583.65 Z"/>
</g>

<g id="Layer0_1_MEMBER_1_FILL">
<path fill="#580000" stroke="none" d="
M 184.3 220.2
Q 184.3 219.4 184.4 218.7 183.05 219.15 182 220.2 181.9 220.3 181.75 220.45 183 220.6 184.3 220.8
L 184.3 220.6
Q 184.3 220.4 184.3 220.2
M 227.7 228.5
Q 227.6 228.5 227.5 228.5
L 227.5 230.55
Q 227.5 231.05 227.45 231.6 227.6 231.65 227.7 231.7
L 227.7 228.5
M 287.45 231.4
Q 287.45 224.65 285.75 221.2 282.75 215.2 274.7 219.1
L 274.7 230.65
Q 274.7 235.4 271.35 238.75 267.95 242.15 263.2 242.15 258.45 242.15 255.1 238.75 251.7 235.4 251.7 230.65
L 251.7 226.75
Q 251.2 226.8 250.7 226.9
L 250.7 232.65
Q 250.7 235.8 249.2 238.35 248.45 239.65 247.35 240.75 247 241.1 246.65 241.4 262.3 251.9 268.15 266.95 269.9 265.7 271.55 264.25 284.25 253.45 286.8 238.95 287.45 235.3 287.45 231.4 Z"/>

<path fill="#FFFFFF" stroke="none" d="
M 209.05 238.15
Q 212.2 241.35 216.65 241.35 221.15 241.35 224.35 238.15 227.1 235.35 227.45 231.6 227.5 231.05 227.5 230.55
L 227.5 228.5
Q 216.1 228 205.9 224.65 201.2 223.1 196.85 220.95 196.1 220.6 195.4 220.3 188.45 217.2 184.4 218.7 184.3 219.4 184.3 220.2 184.3 220.4 184.3 220.6
L 184.3 220.8 184.3 227.8
Q 184.3 232.25 187.45 235.4 190.6 238.6 195.05 238.6 199.55 238.6 202.75 235.4 205.75 232.35 205.9 228.15
L 205.9 230.55
Q 205.9 235 209.05 238.15
M 247.7 227.4
Q 247.6 227.4 247.45 227.4 242.65 228.05 237.3 228.4 232.4 228.65 227.7 228.5
L 227.7 231.7 227.7 232.65
Q 227.7 237.4 231.1 240.75 234.45 244.15 239.2 244.15 243.45 244.15 246.65 241.4 247 241.1 247.35 240.75 248.45 239.65 249.2 238.35 250.7 235.8 250.7 232.65
L 250.7 226.9
Q 249.2 227.15 247.7 227.4
M 274.7 219.1
Q 274.15 219.35 273.55 219.65 273.25 219.8 272.95 219.95 271.9 220.5 270.7 221.1 270.45 221.2 270.2 221.35 262.2 224.9 251.7 226.75
L 251.7 230.65
Q 251.7 235.4 255.1 238.75 258.45 242.15 263.2 242.15 267.95 242.15 271.35 238.75 274.7 235.4 274.7 230.65
L 274.7 219.1 Z"/>

<path fill="#CC0000" stroke="none" d="
M 268.15 266.95
Q 262.3 251.9 246.65 241.4 243.45 244.15 239.2 244.15 234.45 244.15 231.1 240.75 227.7 237.4 227.7 232.65
L 227.7 231.7
Q 227.6 231.65 227.45 231.6 227.1 235.35 224.35 238.15 221.15 241.35 216.65 241.35 212.2 241.35 209.05 238.15 205.9 235 205.9 230.55
L 205.9 228.15
Q 205.75 232.35 202.75 235.4 199.55 238.6 195.05 238.6 190.6 238.6 187.45 235.4 184.3 232.25 184.3 227.8
L 184.3 220.8
Q 183 220.6 181.75 220.45 178.85 223.65 178.85 231.4 178.85 250.7 194.75 264.25 210.65 277.9 233.1 277.9 253.25 277.9 268.15 266.95 Z"/>
</g>
</defs>

<g transform="matrix( 0.9553070068359375, 0, 0, 0.9553070068359375, 172.85,128.05) ">
<use xlink:href="#Layer0_0_MEMBER_0_FILL"/>
</g>

<g transform="matrix( 0.955291748046875, 0, 0, 0.955291748046875, -431.15,-312.65) ">
<use xlink:href="#Layer0_0_MEMBER_0_MEMBER_0_FILL"/>
</g>

<g transform="matrix( 0.9553070068359375, 0, 0, 0.9553070068359375, 172.85,128.05) ">
<use xlink:href="#Layer0_0_MEMBER_1_FILL"/>
</g>

<g transform="matrix( 0.955291748046875, 0, 0, 0.955291748046875, -431.15,-312.65) ">
<use xlink:href="#Layer0_0_MEMBER_1_MEMBER_0_FILL"/>
</g>

<g transform="matrix( 0.9552459716796875, 0, 0, 0.9552459716796875, -431.1,-312.55) ">
<use xlink:href="#Layer0_0_MEMBER_2_MEMBER_0_MEMBER_0_MEMBER_0_FILL"/>
</g>

<g transform="matrix( 0.9552459716796875, 0, 0, 0.9552459716796875, -431.1,-312.55) ">
<use xlink:href="#Layer0_0_MEMBER_2_MEMBER_0_MEMBER_0_MEMBER_1_FILL"/>
</g>

<g transform="matrix( 0.9552459716796875, 0, 0, 0.9552459716796875, 172.85,128.05) ">
<use xlink:href="#Layer0_0_MEMBER_2_MEMBER_0_MEMBER_1_MEMBER_0_STROKES_1_FILL"/>
</g>

<g transform="matrix( 2.5157928466796875, -0.066375732421875, 0.066375732421875, 2.5157928466796875, -1381.3,-666.95) ">
<use xlink:href="#Layer0_0_MEMBER_2_MEMBER_0_MEMBER_1_MEMBER_0_MEMBER_0_MEMBER_0_MEMBER_0_FILL"/>
</g>

<g transform="matrix( 0.704315185546875, -0.018341064453125, 0.018341064453125, 0.704315185546875, 124.7,-15.45) ">
<use xlink:href="#Layer0_0_MEMBER_2_MEMBER_0_MEMBER_1_MEMBER_0_MEMBER_0_MEMBER_0_MEMBER_0_MEMBER_0_STROKES_1_FILL"/>
</g>

<g transform="matrix( 0.704315185546875, -0.018341064453125, 0.018341064453125, 0.704315185546875, 124.7,-15.45) ">
<use xlink:href="#Layer0_0_MEMBER_2_MEMBER_0_MEMBER_1_MEMBER_0_MEMBER_0_MEMBER_0_MEMBER_0_MEMBER_1_STROKES_1_FILL"/>
</g>

<g transform="matrix( 0.704315185546875, -0.018341064453125, 0.018341064453125, 0.704315185546875, 124.7,-15.45) ">
<use xlink:href="#Layer0_0_MEMBER_2_MEMBER_0_MEMBER_1_MEMBER_0_MEMBER_0_MEMBER_0_MEMBER_0_MEMBER_2_STROKES_1_FILL"/>
</g>

<g transform="matrix( 0.704315185546875, -0.018341064453125, 0.018341064453125, 0.704315185546875, 122.2,-15.1) ">
<use xlink:href="#Layer0_0_MEMBER_2_MEMBER_0_MEMBER_1_MEMBER_0_MEMBER_0_MEMBER_0_MEMBER_0_MEMBER_3_STROKES_1_FILL"/>
</g>

<g transform="matrix( 0.704315185546875, -0.018341064453125, 0.018341064453125, 0.704315185546875, 124.7,-15.45) ">
<use xlink:href="#Layer0_0_MEMBER_2_MEMBER_0_MEMBER_1_MEMBER_0_MEMBER_0_MEMBER_0_MEMBER_0_MEMBER_4_STROKES_1_FILL"/>
</g>

<g transform="matrix( 0.704315185546875, -0.018341064453125, 0.018341064453125, 0.704315185546875, 124.7,-15.45) ">
<use xlink:href="#Layer0_0_MEMBER_2_MEMBER_0_MEMBER_1_MEMBER_0_MEMBER_0_MEMBER_0_MEMBER_0_MEMBER_5_STROKES_1_FILL"/>
</g>

<g transform="matrix( 0.704315185546875, -0.018341064453125, 0.018341064453125, 0.704315185546875, 124.7,-15.45) ">
<use xlink:href="#Layer0_0_MEMBER_2_MEMBER_0_MEMBER_1_MEMBER_0_MEMBER_0_MEMBER_0_MEMBER_0_MEMBER_6_STROKES_1_FILL"/>
</g>

<g transform="matrix( 0.704315185546875, -0.018341064453125, 0.018341064453125, 0.704315185546875, 124.7,-15.45) ">
<use xlink:href="#Layer0_0_MEMBER_2_MEMBER_0_MEMBER_1_MEMBER_0_MEMBER_0_MEMBER_0_MEMBER_0_MEMBER_7_STROKES_1_FILL"/>
</g>

<g transform="matrix( 1.3175048828125, -0.03424072265625, 0.03424072265625, 1.3175048828125, 199.05,-9.9) ">
<use xlink:href="#Layer0_0_MEMBER_2_MEMBER_0_MEMBER_1_MEMBER_0_MEMBER_1_FILL"/>
</g>

<g transform="matrix( 1.3175048828125, -0.03424072265625, 0.03424072265625, 1.3175048828125, 199.05,-9.9) ">
<use xlink:href="#Layer0_0_MEMBER_2_MEMBER_0_MEMBER_1_MEMBER_0_MEMBER_2_FILL"/>
</g>

<g transform="matrix( 0.7064361572265625, -0.018280029296875, 0.018280029296875, 0.7064361572265625, 121.35,-8.75) ">
<use xlink:href="#Layer0_0_MEMBER_2_MEMBER_0_MEMBER_1_MEMBER_0_MEMBER_3_STROKES_1_FILL"/>
</g>

<g transform="matrix( 0.9552154541015625, 0, 0, 0.9552154541015625, 172.85,128.05) ">
<use xlink:href="#Layer0_0_MEMBER_2_MEMBER_0_MEMBER_1_MEMBER_0_MEMBER_4_FILL"/>
</g>

<g transform="matrix( 1.3175048828125, -0.03424072265625, 0.03424072265625, 1.3175048828125, 197.4,-9.9) ">
<use xlink:href="#Layer0_0_MEMBER_2_MEMBER_0_MEMBER_1_MEMBER_0_MEMBER_5_FILL"/>

<use xlink:href="#Layer0_0_MEMBER_2_MEMBER_0_MEMBER_1_MEMBER_0_MEMBER_5_STROKES_1_FILL"/>
</g>

<g transform="matrix( 0.71002197265625, 0, 0, 0.71002197265625, 175.2,-18.7) ">
<use xlink:href="#Layer0_0_MEMBER_2_MEMBER_0_MEMBER_1_MEMBER_0_MEMBER_6_FILL"/>
</g>

<g transform="matrix( 0.6103668212890625, 0, 0, 0.6103668212890625, 324.65,75.5) ">
<g transform="matrix( -0.659423828125, 0, 0, 0.63336181640625, 231.5,-319.8) ">
<use xlink:href="#C_pia_de_olhos_0_Layer0_0_MEMBER_0_MEMBER_0_FILL"/>
</g>

<g transform="matrix( -0.659423828125, 0, 0, 0.63336181640625, 231.5,-319.8) ">
<use xlink:href="#C_pia_de_olhos_0_Layer0_0_MEMBER_0_MEMBER_1_FILL"/>
</g>

<g transform="matrix( -0.659423828125, 0, 0, 0.63336181640625, 141.1,-319.8) ">
<use xlink:href="#C_pia_de_olhos_0_Layer0_0_MEMBER_1_MEMBER_0_FILL"/>
</g>

<g transform="matrix( -0.659423828125, 0, 0, 0.63336181640625, 141.1,-319.8) ">
<use xlink:href="#C_pia_de_olhos_0_Layer0_0_MEMBER_1_MEMBER_1_FILL"/>
</g>
</g>

<g transform="matrix( 0.87445068359375, 0, 0, 0.87445068359375, 29.45,-22.8) ">
<use xlink:href="#Layer0_0_MEMBER_2_MEMBER_0_MEMBER_3_FILL"/>
</g>

<g transform="matrix( 0.9552764892578125, 0, 0, 0.9552764892578125, -431.1,-312.55) ">
<use xlink:href="#Layer0_0_MEMBER_2_MEMBER_0_MEMBER_4_FILL"/>
</g>

<g transform="matrix( 0.304107666015625, 0, 0, 0.304107666015625, 416.45,319.95) ">
<use xlink:href="#Layer0_0_MEMBER_2_MEMBER_0_MEMBER_4_MEMBER_0_FILL"/>
</g>

<g transform="matrix( 0.882843017578125, 0, 0, 0.882843017578125, -369.95,-286) ">
<use xlink:href="#Layer0_0_MEMBER_2_MEMBER_1_FILL"/>
</g>

<g transform="matrix( 0.83831787109375, 0, 0, 0.83831787109375, 447.95,158) ">
<use xlink:href="#Layer0_1_MEMBER_0_MEMBER_0_MEMBER_0_FILL"/>
</g>

<g transform="matrix( 0.83831787109375, 0, 0, 0.83831787109375, 447.95,158) ">
<use xlink:href="#Layer0_1_MEMBER_0_MEMBER_0_MEMBER_1_FILL"/>
</g>

<g transform="matrix( 0.838348388671875, 0, 0, 0.838348388671875, -82.2,-228.95) ">
<use xlink:href="#Layer0_1_MEMBER_0_MEMBER_1_FILL"/>
</g>

<g transform="matrix( 0.83831787109375, 0, 0, 0.83831787109375, -82.2,-228.95) ">
<use xlink:href="#Layer0_1_MEMBER_0_MEMBER_1_MEMBER_0_FILL"/>
</g>

<g transform="matrix( 0.83831787109375, 0, 0, 0.83831787109375, -82.2,-228.95) ">
<use xlink:href="#Layer0_1_MEMBER_0_MEMBER_1_MEMBER_1_FILL"/>
</g>

<g transform="matrix( 0.838287353515625, 0, 0, 0.838287353515625, -82.2,-228.95) ">
<use xlink:href="#Layer0_1_MEMBER_0_MEMBER_1_MEMBER_1_MEMBER_0_FILL"/>
</g>

<g transform="matrix( 0.838348388671875, 0, 0, 0.838348388671875, -82.2,-228.95) ">
<use xlink:href="#Layer0_1_MEMBER_0_MEMBER_2_FILL"/>
</g>

<g transform="matrix( 0.8382415771484375, 0, 0, 0.8382415771484375, 447.95,158) ">
<use xlink:href="#Layer0_1_MEMBER_0_MEMBER_3_MEMBER_0_MEMBER_0_MEMBER_0_MEMBER_0_FILL"/>
</g>

<g transform="matrix( 0.8382415771484375, 0, 0, 0.8382415771484375, 447.95,158) ">
<use xlink:href="#Layer0_1_MEMBER_0_MEMBER_3_MEMBER_0_MEMBER_0_MEMBER_1_MEMBER_0_FILL"/>
</g>

<g transform="matrix( 0.5356597900390625, 0, 0, 0.5356597900390625, 46.7,138.5) ">
<g transform="matrix( -0.659423828125, 0, 0, 0.63336181640625, 231.5,-319.8) ">
<use xlink:href="#olhos_0_Layer0_0_MEMBER_0_MEMBER_0_FILL"/>
</g>

<g transform="matrix( -0.659423828125, 0, 0, 0.63336181640625, 231.5,-319.8) ">
<use xlink:href="#olhos_0_Layer0_0_MEMBER_0_MEMBER_1_FILL"/>
</g>

<g transform="matrix( -0.659423828125, 0, 0, 0.63336181640625, 141.1,-319.8) ">
<use xlink:href="#olhos_0_Layer0_0_MEMBER_1_MEMBER_0_FILL"/>
</g>

<g transform="matrix( -0.659423828125, 0, 0, 0.63336181640625, 141.1,-319.8) ">
<use xlink:href="#olhos_0_Layer0_0_MEMBER_1_MEMBER_1_FILL"/>
</g>
</g>

<g transform="matrix( 0.83831787109375, 0, 0, 0.83831787109375, -82.2,-228.95) ">
<use xlink:href="#Layer0_1_MEMBER_0_MEMBER_4_MEMBER_0_FILL"/>
</g>

<g transform="matrix( 0.4987335205078125, 0, 0, 0.4987335205078125, -39.15,53.3) ">
<use xlink:href="#Layer0_1_MEMBER_1_FILL"/>
</g>
</svg>
