<?xml version="1.0" encoding="utf-8"?>
<!-- Generator: Adobe Illustrator 16.0.0, SVG Export Plug-In . SVG Version: 6.00 Build 0)  -->
<!DOCTYPE svg PUBLIC "-//W3C//DTD SVG 1.1//EN" "http://www.w3.org/Graphics/SVG/1.1/DTD/svg11.dtd">
<svg version="1.1" id="Camada_1" xmlns="http://www.w3.org/2000/svg" xmlns:xlink="http://www.w3.org/1999/xlink" x="0px" y="0px"
	 width="131.839px" height="61.478px" viewBox="0 0 131.839 61.478" enable-background="new 0 0 131.839 61.478"
	 xml:space="preserve">
<g>
	<g>
		<path fill="#FFFFFF" d="M6.813,35h6.679l-0.411,4.692H6.813v5.515h8.392v5.069H0.202V24.588h15.002v4.966H6.813V35z"/>
		<path fill="#FFFFFF" d="M33.871,39.589v10.688H28.22V38.562c0-1.13-0.548-1.814-1.61-2.055c-0.343-0.034-0.719-0.068-1.096-0.034
			c-0.651,0.103-1.473,0.24-2.397,0.788v13.016h-5.618V31.985h4.658l0.171,0.344c0.103,0.239,0.24,0.479,0.343,0.855
			c0.377-0.172,2.192-1.302,4.967-1.404c2.192-0.103,4.145,0.171,5.549,2.5C33.7,35.239,33.871,36.747,33.871,39.589z"/>
		<path fill="#FFFFFF" d="M43.495,50.517c-2.706,0-5.583-0.343-6.987-0.617l-0.514-4.897c1.267,0.273,8.529,1.712,9.248,0
			c0.685-1.815-5.377-1.438-8.083-4.008c-1.371-1.199-1.404-2.774-1.302-3.973c0.548-4.762,5.069-5.139,7.707-5.241
			c2.466-0.103,4.898,0.205,6.303,0.445l0.513,4.83c-1.747-0.377-7.878-1.336-8.529,0.205c-0.787,1.85,5.652,1.712,8.084,4.008
			c1.302,1.302,1.336,2.773,1.233,4.041C50.62,50.002,46.167,50.414,43.495,50.517z"/>
		<path fill="#FFFFFF" d="M58.805,27.431c0,0.685-0.068,1.507-0.719,2.021c-0.514,0.514-1.576,0.582-2.227,0.582
			c-0.685,0-1.678-0.068-2.329-0.582c-0.548-0.514-0.617-1.37-0.617-2.021c0-0.582,0.068-1.542,0.617-2.056
			c0.651-0.514,1.542-0.583,2.329-0.583c0.788,0,1.713,0.069,2.227,0.583C58.737,25.889,58.805,26.78,58.805,27.431z M53.017,50.276
			h5.651V32.055h-5.651V50.276z"/>
		<path fill="#FFFFFF" d="M77.233,39.589v10.688h-5.652V38.562c0-1.13-0.548-1.814-1.61-2.055c-0.342-0.034-0.719-0.068-1.096-0.034
			c-0.65,0.103-1.473,0.24-2.397,0.788v13.016H60.86V31.985h4.659l0.171,0.344c0.103,0.239,0.24,0.479,0.343,0.855
			c0.377-0.172,2.192-1.302,4.966-1.404c2.192-0.103,4.145,0.171,5.549,2.5C77.061,35.239,77.233,36.747,77.233,39.589z"/>
	</g>
	<g>
		<path fill="#FFFFFF" d="M88.437,24.395l0.034,0.018c0.035-0.012,0.069-0.018,0.104-0.018c0.103,0.206,0.166,0.406,0.188,0.601
			c0.045,0.034,0.097,0.132,0.154,0.292v0.018l-0.034,0.051c0.022,0,0.057,0.034,0.103,0.103v0.018c0,0.012-0.011,0.017-0.034,0.017
			c0,0.047,0.034,0.104,0.103,0.172l-0.017,0.052c0.057,0.034,0.086,0.074,0.086,0.12c0.114,0,0.177-0.022,0.188-0.068
			c0.115,0,0.172,0.108,0.172,0.326c0.022,0,0.057,0.04,0.103,0.119v0.104c-0.058,0.046-0.097,0.166-0.12,0.361
			c0.091,0.022,0.154,0.068,0.188,0.137c0.091,0,0.166,0.051,0.223,0.154v0.018c0,0.08-0.028,0.132-0.086,0.154
			c0.023,0.022,0.035,0.063,0.035,0.12c0.091-0.092,0.217-0.172,0.378-0.24v-0.034l0.24,0.154c0,0.148-0.098,0.4-0.292,0.755
			c-0.046,0-0.068,0.092-0.068,0.274v0.017h0.103c0-0.045,0.04-0.068,0.12-0.068l-0.034-0.102l0.051-0.087h-0.051v-0.051
			c0.08-0.126,0.131-0.189,0.154-0.189l0.069,0.052l0.017-0.052c-0.023,0-0.035-0.018-0.035-0.052v-0.017
			c0-0.046,0.011-0.12,0.035-0.223c-0.011,0-0.017-0.007-0.017-0.018c0.034-0.011,0.074-0.086,0.12-0.224h0.017
			c0.011,0.035,0.028,0.052,0.051,0.052c0.069-0.183,0.12-0.274,0.154-0.274h0.086c0.011,0,0.034,0.028,0.068,0.086
			c0.034-0.022,0.063-0.034,0.085-0.034l0.018,0.051v0.069l-0.258,0.601c-0.183,0.332-0.28,0.544-0.292,0.635
			c-0.126,0.149-0.189,0.32-0.189,0.515c-0.022,0-0.034,0.017-0.034,0.052c0.069,0,0.103,0.051,0.103,0.154v0.12
			c0.045,0,0.075,0.063,0.086,0.189c0.068,0.068,0.177,0.308,0.326,0.721c0.206,0.365,0.309,0.623,0.309,0.771v0.068
			c0.08,0,0.125,0.081,0.138,0.24c0.034,0,0.068,0.081,0.103,0.241c0.057,0.034,0.086,0.08,0.086,0.137v0.068
			c0.034,0.013,0.052,0.029,0.052,0.052v0.035l-0.018,0.033c0.069,0,0.16,0.189,0.274,0.566c-0.022,0-0.034,0.012-0.034,0.034v0.035
			h0.034v0.017l-0.017,0.052l0.121,0.018v0.051c0,0.035-0.035,0.053-0.104,0.053l0.052,0.068l0.052-0.018
			c0.022,0,0.057,0.028,0.103,0.086v0.103l-0.034,0.052c0.08,0.092,0.137,0.137,0.171,0.137v0.052l-0.069,0.104v0.018
			c0.034,0,0.092,0.017,0.171,0.051v0.086l-0.034,0.052c0.069,0,0.12,0.074,0.154,0.223c0.011,0,0.017,0.006,0.017,0.017v0.035
			l-0.051,0.068v0.017c0.011,0.035,0.028,0.053,0.051,0.053c0.034-0.012,0.058-0.018,0.069-0.018l0.189,0.446
			c-0.023,0.011-0.034,0.028-0.034,0.051v0.052l0.034-0.035c0.068,0.047,0.137,0.195,0.206,0.447h0.018l-0.018,0.034
			c0.046,0.058,0.097,0.166,0.155,0.326c0.022,0,0.034,0.006,0.034,0.018v0.172l-0.051,0.068c0.045,0.079,0.068,0.137,0.068,0.171
			c0.034,0,0.052-0.022,0.052-0.068h0.017c0.183,0.252,0.274,0.44,0.274,0.566c0.207,0.435,0.309,0.738,0.309,0.909h-0.017v0.104
			l0.068-0.052h0.018c0.08,0.24,0.154,0.384,0.223,0.43c-0.023,0.034-0.034,0.068-0.034,0.103c0.022,0,0.051,0.023,0.085,0.068
			v0.138c0.046,0,0.068,0.017,0.068,0.052h-0.034c0.069,0.091,0.103,0.194,0.103,0.309c-0.012,0-0.017,0.011-0.017,0.034
			c0.045,0.068,0.108,0.132,0.189,0.188c-0.034,0.012-0.052,0.029-0.052,0.052c0.057,0.115,0.114,0.172,0.171,0.172
			c0.309-0.034,0.532-0.069,0.669-0.104c0.092,0.013,0.166,0.018,0.223,0.018c0.687-0.126,1.173-0.206,1.458-0.24
			c0.126,0,0.241,0.075,0.344,0.223c0,0.16-0.12,0.241-0.361,0.241c0,0.045-0.068,0.079-0.206,0.103
			c-0.045-0.034-0.091-0.052-0.138-0.052c0,0.035-0.085,0.08-0.257,0.138c-0.034-0.011-0.063-0.018-0.085-0.018
			c-0.046,0.058-0.286,0.103-0.721,0.137c-0.011,0.024-0.143,0.064-0.395,0.121v0.034l-0.12-0.034h-0.034
			c-0.126,0.091-0.188,0.148-0.188,0.172c0.057,0.034,0.103,0.051,0.137,0.051c0.194-0.034,0.309-0.051,0.343-0.051
			c0,0.011,0.006,0.017,0.018,0.017c0.011-0.022,0.028-0.034,0.051-0.034h0.292l0.138-0.034c0.057,0.022,0.137,0.097,0.24,0.223
			v0.086c-0.046,0.263-0.155,0.395-0.326,0.395c0,0.012-0.017,0.018-0.052,0.018l-0.051-0.018l-0.086,0.052
			c-0.023,0-0.034-0.012-0.034-0.034l-0.258,0.068c0,0.012,0.006,0.046,0.018,0.104v0.068c0.034,0,0.051,0.023,0.051,0.068h0.309
			c0.217-0.092,0.492-0.137,0.824-0.137c0.035,0.011,0.057,0.018,0.069,0.018l0.137-0.069h0.12v-0.018h0.103l0.051,0.018
			c0.023-0.058,0.092-0.086,0.206-0.086h0.034c0.172,0.092,0.258,0.2,0.258,0.326v0.051c0,0.104-0.24,0.189-0.721,0.258v0.086
			c0.011,0.023,0.028,0.035,0.052,0.035c0,0.263-0.223,0.394-0.669,0.394c-0.206,0.058-0.309,0.138-0.309,0.241
			c0.023,0,0.052,0.079,0.086,0.239c0.045,0.034,0.12,0.219,0.223,0.55v0.068c0.091,0.068,0.137,0.188,0.137,0.36
			c0.034,0,0.075,0.052,0.12,0.155v0.068c0.023,0,0.057,0.068,0.103,0.205c0.023,0,0.091,0.172,0.206,0.516
			c0.023,0.034,0.057,0.137,0.103,0.309l-0.018,0.052c0.16,0.206,0.292,0.515,0.395,0.927l-0.017,0.12
			c0.08,0,0.137,0.119,0.171,0.36c0.138,0.16,0.207,0.35,0.207,0.566c0.16,0.172,0.24,0.36,0.24,0.565
			c0.092,0.115,0.2,0.476,0.327,1.082c0,0.058,0.028,0.132,0.085,0.223l-0.069,0.138v0.052c0,0.034,0.006,0.068,0.017,0.103
			c0,0.069-0.051,0.12-0.154,0.155c-0.023,0.034-0.034,0.068-0.034,0.103c0.022,0,0.046,0.023,0.068,0.068l-0.017,0.052
			c0.057,0.023,0.114,0.143,0.171,0.36v0.018L97.91,48.8c0.092,0,0.172,0.194,0.24,0.583c0.114,0.274,0.183,0.48,0.207,0.618
			l-0.172,0.12h-0.051l-0.463-0.413c-0.012-0.022-0.018-0.051-0.018-0.086v-0.102c-0.046,0-0.126-0.098-0.24-0.292
			c-0.034-0.022-0.058-0.035-0.069-0.035H97.31c0,0.035-0.029,0.115-0.086,0.241v0.017h-0.051l-0.12-0.017v0.137L97,49.64
			c-0.229-0.114-0.35-0.199-0.36-0.257v-0.069c-0.058,0-0.138-0.074-0.241-0.223c-0.034,0-0.091-0.063-0.171-0.188
			c-0.114,0.08-0.206,0.119-0.275,0.119c-0.309-0.182-0.463-0.297-0.463-0.343c-0.08-0.114-0.2-0.332-0.36-0.651
			c-0.126-0.173-0.263-0.481-0.412-0.928c-0.171-0.194-0.36-0.595-0.566-1.201c0.011,0,0.017-0.011,0.017-0.034
			c-0.171-0.24-0.298-0.526-0.378-0.858c-0.274-0.561-0.452-0.978-0.532-1.253v-0.086c-0.068,0-0.103-0.027-0.103-0.086l0.034-0.033
			c-0.023,0-0.052-0.028-0.086-0.086l0.034-0.12c-0.091,0-0.188-0.184-0.292-0.549c-0.023,0-0.057-0.081-0.103-0.241
			c-0.137-0.229-0.206-0.429-0.206-0.601h-0.069l-0.909,0.172c0-0.012-0.012-0.017-0.034-0.017c0,0.034-0.206,0.079-0.618,0.137
			c-0.045,0.058-0.367,0.143-0.961,0.257c0,0.013-0.051,0.04-0.155,0.087c-0.022-0.023-0.046-0.035-0.068-0.035
			c0,0.023-0.069,0.063-0.206,0.12h-0.034l-0.12-0.017c0,0.022-0.023,0.045-0.068,0.068h-0.224c-0.023,0.035-0.149,0.075-0.377,0.12
			c-0.092,0.046-0.234,0.086-0.429,0.12v-0.018c-0.138,0.034-0.281,0.081-0.429,0.138c-0.035-0.012-0.069-0.018-0.103-0.018
			l-0.052,0.018l-0.051-0.018c-0.206,0.034-0.326,0.074-0.36,0.121c-0.012,0-0.017-0.012-0.017-0.035
			c-0.321,0.104-0.521,0.155-0.601,0.155c0-0.023-0.005-0.035-0.017-0.035c0,0.035-0.051,0.069-0.154,0.104l-0.052-0.034
			c-0.16,0.045-0.269,0.086-0.326,0.12l-0.052-0.018l-0.188,0.052c0-0.023-0.012-0.034-0.035-0.034c0,0.022-0.16,0.08-0.48,0.171
			h-0.085c0,0.034-0.132,0.075-0.395,0.12v-0.017c-0.034,0-0.097,0.063-0.189,0.188l0.035,0.052v0.017
			c-0.046,0-0.098,0.052-0.154,0.155c-0.034,0-0.052,0.011-0.052,0.034c0.069,0.011,0.103,0.04,0.103,0.085
			c-0.069,0.012-0.103,0.024-0.103,0.034l0.034,0.052c-0.023,0.069-0.063,0.12-0.12,0.155c0.011,0.022,0.017,0.046,0.017,0.068
			l-0.085,0.068l0.017,0.172v0.052h-0.103v0.017l0.051,0.068c0,0.068-0.04,0.104-0.12,0.104l0.035,0.052v0.034h-0.104l0.018,0.12
			h-0.034v0.12c0,0.023-0.052,0.052-0.155,0.086c0,0.022-0.028,0.034-0.085,0.034v0.052h0.017c0.034-0.012,0.057-0.018,0.068-0.018
			l0.051,0.068v0.104c-0.046,0.08-0.091,0.126-0.137,0.138l0.017,0.172v0.017c-0.103,0.104-0.178,0.234-0.224,0.395h-0.017
			l0.017,0.034v0.034c0,0.058-0.063,0.184-0.188,0.378c-0.046,0.229-0.091,0.343-0.138,0.343l0.018,0.052
			c0,0.022-0.04,0.052-0.12,0.086c0.023,0.034,0.034,0.057,0.034,0.068c-0.034,0.012-0.114,0.188-0.24,0.532
			c-0.08,0.046-0.12,0.08-0.12,0.104l0.018,0.051c0,0.092-0.115,0.298-0.343,0.618c0,0.079-0.046,0.138-0.138,0.172
			c0,0.045-0.023,0.068-0.069,0.068v0.138c-0.114,0.067-0.171,0.108-0.171,0.12l-0.171-0.018h-0.018
			c-0.103,0.126-0.223,0.189-0.36,0.189c-0.022,0-0.034-0.007-0.034-0.018c-0.171,0.034-0.257,0.212-0.257,0.531
			c-0.149,0.241-0.234,0.36-0.258,0.36c-0.034,0.012-0.069,0.018-0.103,0.018h-0.018c-0.114-0.148-0.183-0.223-0.206-0.223
			c0.022-0.138,0.063-0.264,0.12-0.378v-0.069c-0.08-0.091-0.12-0.153-0.12-0.188c0-0.023,0.011-0.052,0.034-0.086l-0.034-0.12
			c0.08-0.173,0.137-0.344,0.171-0.516l-0.446,0.67h-0.052l-0.189-0.172c-0.137,0.022-0.206,0.12-0.206,0.292
			c0.068,0,0.103,0.018,0.103,0.051l-0.069,0.086c0.011,0.034,0.017,0.058,0.017,0.068c-0.114,0.058-0.171,0.098-0.171,0.121v0.034
			c0,0.034,0.028,0.051,0.085,0.051v0.087h-0.051c-0.023,0-0.046-0.023-0.068-0.069c-0.058,0-0.126,0.022-0.206,0.069l0.034,0.051
			c0,0.16-0.092,0.24-0.274,0.24c0-0.045-0.012-0.068-0.035-0.068c0,0.034-0.017,0.051-0.051,0.051
			c-0.081,0-0.132-0.148-0.154-0.445l0.206-0.67l0.018-0.051l-0.069-0.138v-0.018l0.549-1.527l0.189-0.395
			c0.069-0.183,0.103-0.28,0.103-0.291l-0.034-0.052c0.137-0.504,0.286-0.962,0.446-1.373l-0.034-0.052
			c0.034-0.069,0.069-0.108,0.103-0.12l-0.034-0.034c0.034-0.057,0.051-0.109,0.051-0.155v-0.068l-0.188,0.052
			c-0.172-0.022-0.258-0.086-0.258-0.188c0-0.115,0.126-0.246,0.377-0.396c-0.091,0-0.148-0.005-0.171-0.017
			c-0.103,0.034-0.464,0.074-1.082,0.12c-0.012,0-0.017-0.012-0.017-0.034c-0.023,0-0.046,0.012-0.069,0.034
			c-0.034,0-0.126-0.012-0.274-0.034l-0.206,0.034c-0.114,0-0.189-0.097-0.223-0.292v-0.017c0.057-0.068,0.154-0.109,0.292-0.12
			v-0.035c-0.046,0-0.069-0.017-0.069-0.051v-0.018c0.011,0,0.074-0.017,0.189-0.052h0.12v-0.051h0.12
			c0.103,0,0.229-0.04,0.377-0.121c0,0.058,0.04,0.087,0.12,0.087c0-0.023,0.04-0.063,0.121-0.121h0.103
			c0.011,0,0.017,0.007,0.017,0.018c0.08,0,0.16-0.04,0.24-0.12v-0.052c-0.091,0-0.16-0.137-0.206-0.412v-0.034l0.018-0.052
			c-0.012,0-0.018-0.011-0.018-0.034c0.148-0.125,0.675-0.314,1.579-0.566c0.332-0.777,0.589-1.48,0.772-2.11
			c0-0.068,0.006-0.104,0.018-0.104h0.034v-0.137c0.035-0.058,0.104-0.229,0.206-0.515c0.045-0.068,0.108-0.234,0.189-0.498
			c0.057,0,0.085-0.018,0.085-0.052l-0.034-0.137c0.034-0.034,0.086-0.172,0.154-0.412c0.068-0.217,0.137-0.389,0.206-0.515v-0.138
			h0.034l0.034,0.018c0.023-0.022,0.034-0.046,0.034-0.068l-0.034-0.052c0.092-0.229,0.166-0.464,0.224-0.704
			c0.034-0.113,0.074-0.188,0.12-0.223l-0.017-0.051c0.08-0.229,0.148-0.379,0.206-0.447c0.023-0.057,0.046-0.086,0.069-0.086
			v-0.017L83.872,36.1c0-0.034,0.022-0.052,0.068-0.052l-0.034-0.12c0.068-0.012,0.103-0.046,0.103-0.103
			c-0.011-0.023-0.017-0.047-0.017-0.069c0.022,0,0.063-0.028,0.12-0.086l-0.035-0.12c0-0.126,0.063-0.264,0.189-0.412
			c0-0.057,0.011-0.114,0.034-0.172l-0.034-0.051c0.092-0.298,0.148-0.446,0.171-0.446l-0.017-0.052
			c0.104-0.332,0.183-0.509,0.24-0.531c0-0.035,0.005-0.053,0.017-0.053c-0.012-0.034-0.017-0.057-0.017-0.067l0.068-0.121
			l-0.017-0.103c0.034-0.16,0.085-0.24,0.154-0.24v-0.137c0.057,0,0.086-0.018,0.086-0.053v-0.12c0.011,0,0.034-0.028,0.068-0.086
			l-0.034-0.119c0.069-0.034,0.103-0.063,0.103-0.086c-0.011-0.023-0.017-0.046-0.017-0.068c0.022,0,0.034-0.018,0.034-0.052
			l-0.018-0.034c0.104-0.207,0.178-0.327,0.224-0.361c-0.034,0-0.051-0.017-0.051-0.051c0.103-0.218,0.183-0.331,0.24-0.344v-0.017
			l-0.052-0.068c0.057-0.08,0.104-0.121,0.138-0.121v-0.034c-0.023-0.034-0.034-0.063-0.034-0.086c0-0.068,0.039-0.103,0.12-0.103
			l-0.051-0.068v-0.051l0.326-0.618h0.034l-0.034-0.052v-0.034c0.103-0.184,0.2-0.384,0.292-0.601
			c0.091-0.081,0.183-0.246,0.275-0.498c0.034,0,0.08-0.103,0.137-0.309c0.023,0,0.063-0.052,0.12-0.155v-0.018l-0.017-0.051
			c0.023,0,0.063-0.069,0.121-0.206l0.034-0.051c-0.058-0.149-0.109-0.372-0.155-0.67c-0.035,0-0.051-0.017-0.051-0.052l0.051-0.068
			h-0.051v-0.12c0-0.022-0.023-0.052-0.069-0.086l0.017-0.154v-0.035c-0.08-0.091-0.12-0.188-0.12-0.291l0.052-0.068v-0.018
			c-0.046,0-0.08-0.04-0.103-0.12l0.051-0.034c-0.046-0.252-0.108-0.412-0.188-0.48l0.051-0.018c0,0.012,0.006,0.018,0.017,0.018
			c0-0.16,0.035-0.241,0.104-0.241c0.114,0,0.194,0.109,0.24,0.327l0.121,0.206l-0.035,0.119c0.057,0,0.131,0.093,0.223,0.275
			c-0.023,0.022-0.035,0.046-0.035,0.068c0.081,0.08,0.149,0.206,0.207,0.378c0.034,0,0.063,0.063,0.085,0.188h0.068v-0.018
			l0.035-0.24l-0.035-0.137h0.035c-0.045-0.138-0.069-0.258-0.069-0.36v-0.052c0-0.172,0.069-0.309,0.206-0.411h0.052l0.137,0.017
			l0.052-0.017c0.091,0.079,0.148,0.12,0.172,0.12c0,0.011,0.006,0.017,0.017,0.017c0.068-0.012,0.183-0.172,0.343-0.481
			c0.114-0.137,0.251-0.222,0.412-0.256v-0.069h-0.051l0.017-0.052v-0.017c0-0.034-0.023-0.052-0.068-0.052v-0.034l0.068-0.086
			v-0.035c0-0.011-0.046-0.051-0.137-0.12l0.017-0.137c-0.046,0-0.068-0.017-0.068-0.051v-0.018c0-0.023,0.034-0.046,0.103-0.068
			h0.068c0-0.023,0.006-0.052,0.017-0.086c-0.034-0.022-0.063-0.035-0.085-0.035v-0.085l0.051-0.069
			c-0.058-0.045-0.086-0.086-0.086-0.12c-0.023,0.012-0.034,0.029-0.034,0.052v0.017l0.034,0.086l-0.034,0.018h-0.034
			c0-0.068-0.041-0.126-0.121-0.172c0-0.034-0.005-0.063-0.017-0.086c0.023,0,0.046-0.027,0.069-0.085
			c-0.069,0-0.103-0.023-0.103-0.069v-0.085C88.385,24.429,88.414,24.395,88.437,24.395z M82.378,48.062l-0.034,0.12
			c0.023,0,0.034,0.006,0.034,0.017c-0.034,0.011-0.051,0.028-0.051,0.052s0.035,0.046,0.103,0.068
			c0.011-0.092,0.052-0.137,0.12-0.137V48.13C82.55,48.106,82.493,48.084,82.378,48.062z M82.327,48.387h0.017
			c0.034,0,0.052-0.011,0.052-0.034h-0.018C82.344,48.353,82.327,48.364,82.327,48.387z M84.506,43.942
			c0,0.012-0.006,0.046-0.017,0.103h0.051v-0.103H84.506z M85.313,40.612c0.091-0.159,0.16-0.24,0.206-0.24
			c-0.034-0.045-0.052-0.086-0.052-0.12C85.398,40.252,85.347,40.372,85.313,40.612z M85.622,39.737c0,0.034-0.041,0.063-0.12,0.086
			c-0.035-0.022-0.069-0.034-0.104-0.034h-0.017v0.034c0.091,0.012,0.137,0.034,0.137,0.068v0.052l-0.017,0.155
			c0.022-0.012,0.045-0.018,0.068-0.018v-0.104l-0.017-0.034c0.045-0.012,0.085-0.069,0.12-0.172L85.622,39.737z M85.467,42.003
			v0.068c0.046,0,0.183-0.04,0.412-0.12v-0.018h-0.069C85.765,41.934,85.65,41.957,85.467,42.003z M85.622,39.651
			c0,0.034,0.017,0.052,0.051,0.052h0.017c0.034,0,0.052-0.028,0.052-0.086l-0.035-0.034l0.051-0.12h-0.017
			C85.708,39.463,85.667,39.525,85.622,39.651z M85.69,39.309v0.034c0.034,0.035,0.052,0.063,0.052,0.086h0.017
			c0.058-0.023,0.121-0.148,0.189-0.378l0.051,0.018h0.035v-0.018c-0.081-0.011-0.12-0.034-0.12-0.069
			c0.022-0.022,0.051-0.034,0.085-0.034l-0.017-0.051v-0.018h0.051c-0.023-0.057-0.035-0.092-0.035-0.103
			c0.023-0.023,0.035-0.046,0.035-0.068h-0.035c-0.046,0-0.131,0.2-0.257,0.601H85.69z M86.119,38.278
			c-0.022,0.126-0.063,0.189-0.12,0.189l0.035,0.12c-0.035,0.011-0.051,0.028-0.051,0.052l0.051,0.017
			c0-0.023,0.022-0.034,0.069-0.034c0-0.034-0.012-0.069-0.035-0.104c0-0.011,0.035-0.057,0.103-0.138v-0.103H86.119z
			 M88.505,32.924c0,0.058-0.041,0.104-0.121,0.138c-0.034,0.217-0.126,0.405-0.274,0.566c0.035,0,0.051,0.012,0.051,0.034
			c-0.046,0.08-0.074,0.12-0.085,0.12c0,0.022,0.005,0.034,0.017,0.034c-0.081,0.366-0.16,0.549-0.24,0.549l0.017,0.052
			c0,0.069-0.028,0.166-0.086,0.292l0.017,0.034c-0.057,0.24-0.115,0.36-0.171,0.36h-0.017v0.034l0.051,0.069
			c-0.092,0.298-0.154,0.457-0.188,0.48c-0.035,0-0.052,0.017-0.052,0.051c0.034,0,0.052,0.018,0.052,0.052
			c0,0.012-0.029,0.035-0.086,0.068c0,0.012,0.012,0.074,0.035,0.189c-0.069,0.114-0.132,0.297-0.188,0.549
			c-0.024,0-0.058,0.058-0.103,0.172l0.017,0.051c0,0.127-0.04,0.224-0.12,0.292c0.023,0.023,0.035,0.046,0.035,0.069
			c0,0.022-0.035,0.091-0.103,0.206c0.022,0.034,0.034,0.057,0.034,0.068c-0.08,0.068-0.137,0.103-0.171,0.103v0.068l0.052,0.069
			v0.034c-0.069,0.058-0.126,0.246-0.172,0.566c-0.092,0.229-0.154,0.36-0.188,0.395v0.052l0.034,0.068h-0.086v0.018l0.052,0.068
			v0.034c-0.069,0.012-0.104,0.034-0.104,0.068c0.035,0.013,0.052,0.029,0.052,0.052v0.052c-0.069,0.08-0.126,0.246-0.172,0.497
			c-0.023,0-0.063,0.075-0.12,0.224c0.012,0.023,0.017,0.046,0.017,0.068c-0.023,0-0.045,0.086-0.069,0.258L86.051,40.2l0.017,0.12
			c0,0.023-0.012,0.069-0.034,0.138l1.939-0.48h0.017l0.051,0.034c0-0.022,0.155-0.063,0.464-0.12c0-0.022,0.005-0.034,0.017-0.034
			c0.022,0,0.034,0.012,0.034,0.034c0.137-0.08,0.52-0.172,1.149-0.274v0.034c0.138-0.113,0.355-0.171,0.652-0.171h0.12
			c0-0.058,0.172-0.098,0.515-0.12c0.091-0.058,0.2-0.092,0.326-0.104v-0.034c-0.069,0-0.103-0.029-0.103-0.086
			c0-0.022,0.022-0.034,0.069-0.034c-0.207-0.343-0.326-0.595-0.36-0.755c0.034-0.012,0.068-0.018,0.103-0.018v-0.034
			c-0.183-0.011-0.274-0.12-0.274-0.326c-0.012,0-0.052-0.063-0.12-0.188l0.034-0.052c-0.068,0-0.109-0.074-0.12-0.224h-0.034
			l0.034-0.051c-0.206-0.309-0.309-0.538-0.309-0.687c-0.045-0.034-0.114-0.188-0.206-0.464c-0.011,0-0.017-0.005-0.017-0.017
			c0.012-0.035,0.017-0.069,0.017-0.104c-0.023,0-0.068-0.045-0.137-0.137c0-0.012,0.005-0.018,0.017-0.018l-0.24-0.583h0.034
			c-0.045-0.126-0.137-0.252-0.274-0.378c-0.092-0.251-0.137-0.4-0.137-0.446c0.011-0.022,0.017-0.046,0.017-0.068
			c-0.011,0-0.057-0.058-0.137-0.172c0.034-0.012,0.057-0.018,0.068-0.018v-0.017c-0.035,0-0.075-0.018-0.12-0.052l0.034-0.052
			v-0.119c-0.034-0.035-0.051-0.068-0.051-0.104l-0.052,0.035c-0.035,0-0.051-0.024-0.051-0.069l0.034-0.052
			c-0.023-0.034-0.034-0.068-0.034-0.104c0.022,0,0.034-0.005,0.034-0.017h-0.034c-0.023,0.012-0.052,0.017-0.086,0.017
			c0-0.011-0.012-0.034-0.034-0.067l0.034-0.053c-0.023-0.034-0.034-0.057-0.034-0.068c0.034,0,0.052-0.017,0.052-0.052
			l-0.104-0.017l0.035-0.052c-0.069,0-0.121-0.063-0.155-0.188l-0.068-0.051l0.034-0.053v-0.017
			c-0.034-0.034-0.086-0.132-0.154-0.292H88.505z M86.051,41.866V41.9c0.08-0.023,0.183-0.052,0.309-0.087
			c0-0.034-0.017-0.051-0.051-0.051h-0.034C86.183,41.831,86.108,41.866,86.051,41.866z M86.119,38.158v0.018h0.035
			c0.022,0,0.045-0.028,0.068-0.086h-0.035C86.165,38.09,86.143,38.113,86.119,38.158z M86.188,37.85h0.052v0.068
			c-0.034,0-0.057,0.034-0.069,0.104l0.052,0.018c0.022,0,0.063-0.087,0.12-0.258c0.011,0,0.017-0.012,0.017-0.034v-0.018h-0.051
			C86.285,37.729,86.245,37.77,86.188,37.85z M86.274,38.227v0.069h0.034v-0.018C86.308,38.244,86.296,38.227,86.274,38.227z
			 M86.411,37.455l-0.068,0.154h0.085l0.052-0.034C86.457,37.495,86.434,37.455,86.411,37.455z M86.411,37.077l0.017,0.12h0.035
			c0.091-0.046,0.137-0.074,0.137-0.086v-0.154C86.543,37.003,86.48,37.043,86.411,37.077z M86.549,36.871
			c0.022,0.023,0.034,0.046,0.034,0.068c0.045-0.079,0.091-0.12,0.137-0.12v-0.033c0-0.023-0.017-0.034-0.051-0.034
			C86.634,36.752,86.594,36.791,86.549,36.871z M86.84,36.065c-0.057,0.068-0.097,0.148-0.121,0.239h-0.051
			c0.012,0.034,0.029,0.052,0.051,0.052h0.035c0.092-0.08,0.138-0.16,0.138-0.24C86.892,36.082,86.875,36.065,86.84,36.065z
			 M86.84,41.642h0.069v-0.051h-0.017C86.857,41.603,86.84,41.619,86.84,41.642z M86.909,35.928c0,0.011-0.006,0.018-0.017,0.018
			c0.011,0.034,0.017,0.068,0.017,0.103h0.034l0.017-0.103L86.909,35.928z M86.96,35.756v0.103c0.034,0,0.052-0.017,0.052-0.051
			v-0.052H86.96z M87.115,35.207v0.052h0.085v-0.052H87.115z M87.184,35.087v0.017h0.068v-0.068h-0.017
			C87.201,35.047,87.184,35.063,87.184,35.087z M87.63,34.108l-0.017,0.034c0.045,0.034,0.085,0.052,0.12,0.052v-0.052
			C87.71,34.143,87.676,34.132,87.63,34.108z M88.437,24.927h0.034l0.035,0.12v0.017C88.459,25.052,88.437,25.007,88.437,24.927z
			 M88.505,24.583v0.052h0.069c0-0.034-0.018-0.052-0.052-0.052H88.505z M88.574,25.253l-0.018,0.052h0.069
			C88.625,25.271,88.608,25.253,88.574,25.253z M89.037,33.713c0,0.023-0.012,0.047-0.034,0.069h0.034
			c0.023,0,0.045-0.022,0.069-0.069H89.037z M90.084,28.238v0.018h0.068v-0.034C90.13,28.233,90.106,28.238,90.084,28.238z
			 M90.788,32.581v0.034c0,0.034,0.017,0.052,0.051,0.052v-0.034C90.839,32.599,90.822,32.581,90.788,32.581z M91.028,33.147
			c0.034,0.034,0.051,0.063,0.051,0.085h0.035v-0.12l-0.086-0.017V33.147z M91.166,33.354v0.052
			c0.022,0.034,0.034,0.057,0.034,0.068h0.035v-0.018C91.21,33.388,91.188,33.354,91.166,33.354z M91.337,33.713v0.069l0.051,0.034
			v-0.034c-0.022-0.022-0.034-0.046-0.034-0.069H91.337z M91.526,34.126l-0.018,0.119c0.023,0,0.069,0.081,0.138,0.241l0.051,0.017
			h0.017v-0.017c0-0.047-0.052-0.166-0.154-0.36H91.526z M91.783,34.743l0.035,0.172v0.051c0.045,0,0.091,0.081,0.138,0.241
			l0.051-0.018C91.903,34.893,91.829,34.743,91.783,34.743z M92.058,35.207l-0.034,0.052v0.12c0.114,0.205,0.183,0.309,0.206,0.309
			v-0.052l-0.154-0.377c0.022,0,0.034-0.012,0.034-0.035L92.058,35.207z M92.247,35.756v0.069l0.051,0.033v-0.033
			c-0.023-0.023-0.034-0.047-0.034-0.069H92.247z M92.315,35.945v0.034c0.011,0.034,0.028,0.051,0.051,0.051h0.018v-0.034
			c0-0.034-0.012-0.051-0.034-0.051H92.315z M93.568,36.888v0.052h0.018c0.034,0,0.051-0.017,0.051-0.052H93.568z M95.713,42.467
			L95.679,42.5v0.052c0.023,0,0.045-0.022,0.069-0.068L95.713,42.467z M95.73,42.655v0.052c0.012,0.022,0.029,0.034,0.051,0.034
			l0.018-0.034v-0.035C95.787,42.672,95.765,42.666,95.73,42.655z M95.833,42.896v0.017c0,0.034,0.012,0.052,0.035,0.052h0.034
			c-0.023-0.034-0.034-0.058-0.034-0.068H95.833z M96.022,47.941v0.017c0,0.022,0.023,0.046,0.068,0.069h0.018v-0.086H96.022z
			 M96.142,48.079l0.017,0.119c-0.012,0-0.017,0.011-0.017,0.034h0.017c0.034-0.023,0.057-0.034,0.069-0.034
			c-0.012-0.08-0.035-0.119-0.069-0.119H96.142z M98.064,48.508h0.017v0.034c0,0.033-0.017,0.051-0.051,0.051l-0.018-0.051
			L98.064,48.508z"/>
		<path fill="#FFFFFF" d="M101.31,27.2c0.073,0.053,0.136,0.142,0.188,0.267c-0.021,0.054-0.053,0.079-0.094,0.079
			c0.063,0.168,0.115,0.272,0.157,0.313v0.048c0,0.01-0.005,0.016-0.015,0.016l0.015,0.032l-0.047,0.062
			c0.073,0,0.11,0.037,0.11,0.11h0.031c0.01-0.167,0.089-0.351,0.236-0.55c0.136,0.011,0.251,0.094,0.345,0.251l0.125-0.03
			c0.021,0,0.094,0.047,0.22,0.141l0.896-0.094v0.015c0.074-0.021,0.23-0.025,0.472-0.015h0.016l0.173-0.079l0.141,0.016
			c0.262-0.021,0.409-0.031,0.44-0.031l0.11,0.031c0.052-0.01,0.104-0.016,0.157-0.016h0.031l0.047,0.032l0.094,0.015
			c0.063,0,0.094-0.015,0.094-0.047l0.11,0.032h0.282c0.094,0.03,0.147,0.047,0.157,0.047h0.204c0.032,0,0.042,0.021,0.032,0.063
			c0.01,0,0.042-0.005,0.094-0.016c0.063,0.031,0.209,0.078,0.44,0.142c0.01,0,0.015-0.011,0.015-0.031
			c0.293,0.094,0.545,0.157,0.754,0.188c0.01,0.021,0.293,0.131,0.848,0.329c0.021,0.032,0.141,0.079,0.361,0.142
			c0.083,0.084,0.205,0.162,0.361,0.236v0.03l0.047-0.03c0.104,0.083,0.319,0.215,0.645,0.393c0,0.021,0.083,0.083,0.251,0.188
			c0.356,0.252,0.591,0.456,0.707,0.613c0.199,0.179,0.34,0.356,0.424,0.534c0.031,0,0.11,0.126,0.236,0.377
			c0.178,0.188,0.335,0.471,0.471,0.849c0.199,0.282,0.319,0.55,0.362,0.801c0.052,0.063,0.115,0.262,0.188,0.597l-0.016,0.031
			c0,0.031,0.01,0.079,0.031,0.142l-0.016,0.126v0.125c-0.031,0.032-0.047,0.058-0.047,0.079c0,0.01,0.005,0.031,0.016,0.063
			c-0.052,0.199-0.089,0.299-0.11,0.299l0.016,0.047c-0.032,0.105-0.063,0.157-0.094,0.157c-0.042,0-0.063,0.016-0.063,0.048
			l-0.017,0.219c-0.021,0-0.047,0.011-0.078,0.031c0-0.01-0.006-0.015-0.016-0.015c-0.032,0.072-0.147,0.203-0.346,0.393
			c0,0.042-0.031,0.063-0.094,0.063l0.016,0.11c-0.032,0-0.137,0.146-0.314,0.439c-0.053,0-0.09,0.031-0.111,0.095
			c0.021,0,0.042,0.021,0.063,0.062c-0.032,0.032-0.048,0.059-0.048,0.079h-0.031v-0.063l0.016-0.031h-0.016
			c-0.083,0.104-0.172,0.188-0.267,0.251c-0.011,0.063-0.147,0.173-0.408,0.33c-0.011,0.011-0.037,0.047-0.079,0.11V36.5
			c0.052,0,0.188-0.083,0.408-0.251h0.11v0.031c-0.031,0-0.131,0.072-0.298,0.22c-0.094,0.021-0.141,0.063-0.141,0.125l-0.079,0.079
			h-0.032l-0.032-0.031c-0.136,0.157-0.34,0.288-0.612,0.393c0,0.031-0.136,0.089-0.408,0.173c-0.042,0.063-0.293,0.173-0.754,0.329
			c0,0.021-0.104,0.059-0.314,0.11l-0.188,0.126h-0.016c-0.011,0-0.016-0.005-0.016-0.016c-0.074,0.021-0.173,0.042-0.299,0.063
			v0.047c0.084,0.031,0.131,0.047,0.141,0.047v0.031l-0.141,0.016h-0.032l-0.063-0.032l-0.188-0.015
			c-0.063,0-0.194,0.057-0.393,0.172c-0.032,0-0.183,0.059-0.456,0.174c-0.314,0.094-0.472,0.173-0.472,0.235
			c0.011,0.136,0.058,0.226,0.142,0.268c0,0.052,0.052,0.12,0.157,0.204c0,0.062,0.104,0.183,0.314,0.361
			c0.041,0.104,0.193,0.292,0.456,0.564c0,0.021,0.188,0.263,0.565,0.724c0.429,0.533,0.644,0.807,0.644,0.816
			c0.042,0,0.068,0.031,0.079,0.094c0.105,0.054,0.199,0.179,0.283,0.378c0.063,0.021,0.215,0.204,0.456,0.55
			c0.335,0.366,0.607,0.701,0.817,1.005c0.041,0.011,0.099,0.073,0.172,0.188l0.456,0.597c0,0.032,0.068,0.126,0.204,0.282
			c0.042,0.054,0.058,0.105,0.047,0.157c0.063,0.011,0.131,0.074,0.204,0.188c0.011,0,0.016,0.012,0.016,0.032
			c0,0.011-0.005,0.016-0.016,0.016c0,0.031,0.068,0.12,0.205,0.267c0.177,0.263,0.283,0.393,0.314,0.393l0.094-0.015l0.141,0.188
			v0.015c0,0.032-0.026,0.047-0.079,0.047v0.048h0.016l0.063-0.048h0.016v0.048l-0.016,0.031c0.105,0.021,0.158,0.058,0.158,0.11
			l-0.048,0.016c0,0.042,0.048,0.12,0.142,0.235c0,0.021-0.006,0.031-0.017,0.031c-0.042,0-0.062,0.017-0.062,0.047
			c0.104,0,0.157,0.021,0.157,0.063c0.209,0.408,0.366,0.628,0.471,0.66c0,0.115,0.105,0.293,0.314,0.533
			c0,0.042,0.031,0.084,0.094,0.127v0.062c0.042,0,0.073,0.042,0.094,0.126c0.251,0.325,0.377,0.519,0.377,0.581
			c-0.011,0-0.016,0.006-0.016,0.017c0.063,0.011,0.094,0.041,0.094,0.094c-0.021,0-0.031,0.011-0.031,0.031
			c0.073,0.094,0.131,0.199,0.173,0.314l-0.017,0.142c-0.031,0.063-0.083,0.095-0.157,0.095h-0.079
			c-0.136-0.105-0.298-0.272-0.487-0.504c-0.021,0-0.052-0.01-0.094-0.031v0.031c0.104,0.115,0.157,0.2,0.157,0.252h-0.016
			c0.104,0.188,0.188,0.313,0.251,0.377c0.01,0.114,0.021,0.188,0.031,0.22c-0.042,0.104-0.068,0.157-0.078,0.157
			c0.052,0.137,0.073,0.241,0.063,0.314c-0.021,0.052-0.052,0.089-0.094,0.109h-0.126c-0.241-0.198-0.409-0.377-0.502-0.534
			l-0.502-0.565h-0.032l-0.094,0.016c0,0.032,0.005,0.059,0.016,0.079c-0.032,0.042-0.047,0.083-0.047,0.126
			c0.136,0.188,0.241,0.313,0.314,0.377c0,0.063,0.042,0.115,0.125,0.157c0,0.03,0.058,0.089,0.173,0.172v0.047l-0.016,0.096
			c0.083,0,0.125,0.067,0.125,0.203c0,0.073-0.031,0.126-0.094,0.157h-0.173c-0.042-0.021-0.094-0.104-0.157-0.251
			c-0.105-0.095-0.168-0.194-0.188-0.299c-0.147-0.136-0.372-0.424-0.676-0.864l-0.393-0.534c0-0.021-0.094-0.1-0.283-0.235h0.016
			c-0.188-0.262-0.298-0.393-0.33-0.393l-0.204-0.188v-0.016l0.031-0.047c-0.146-0.115-0.351-0.351-0.612-0.707l-0.189-0.268
			l0.016-0.047l0.016-0.031c-0.042,0-0.083-0.036-0.126-0.11c-0.073-0.072-0.162-0.209-0.267-0.408
			c-0.094-0.073-0.141-0.173-0.141-0.299l-0.032,0.031h-0.031c0-0.031-0.105-0.178-0.314-0.439c-0.178-0.282-0.34-0.513-0.487-0.691
			c0-0.083-0.256-0.424-0.77-1.021c0-0.021-0.099-0.162-0.298-0.425c0-0.03-0.063-0.114-0.188-0.251
			c0-0.104-0.048-0.168-0.142-0.188c-0.042-0.083-0.115-0.193-0.22-0.33c-0.021-0.084-0.052-0.125-0.094-0.125
			c-0.304-0.346-0.508-0.618-0.612-0.817c-0.021,0-0.063-0.063-0.125-0.188c-0.126-0.104-0.188-0.204-0.188-0.299
			c-0.032-0.072-0.058-0.109-0.079-0.109c-0.032-0.126-0.105-0.256-0.22-0.393c0-0.084-0.115-0.304-0.346-0.66
			c-0.147-0.262-0.346-0.555-0.597-0.88l-0.377,0.031c0-0.01-0.011-0.015-0.031-0.015c0,0.042-0.095,0.072-0.283,0.094h-0.141
			l-0.094-0.032c-0.011,0.043-0.068,0.068-0.173,0.079h-0.252c-0.01,0-0.016-0.005-0.016-0.016l-0.031,0.016h-0.11l0.016,0.078
			l-0.016,0.096c0.042,0.261,0.063,0.407,0.063,0.438v0.032c0,0.021-0.005,0.031-0.015,0.031l0.015,0.031
			c0.021,0.388,0.026,0.707,0.016,0.958l-0.016,0.047c0.021,0,0.047,0.2,0.079,0.598c-0.021,0.053-0.031,0.089-0.031,0.109
			l0.016,0.047c0,0.012-0.011,0.037-0.032,0.079c0.011,0.084,0.032,0.146,0.063,0.188c-0.01,0.073-0.021,0.115-0.031,0.126
			l0.047,0.078l-0.017,0.031c0.011,0.032,0.017,0.054,0.017,0.063c-0.032,0.011-0.047,0.026-0.047,0.047v0.016l0.015,0.204
			l-0.047,0.016c0.042,0.137,0.068,0.33,0.079,0.582h-0.032l0.047,0.141c-0.032,0.042-0.047,0.085-0.047,0.126
			c0,0.021,0.016,0.031,0.047,0.031l-0.032,0.047v0.017c0,0.052,0.005,0.114,0.017,0.188c0,0.01-0.006,0.016-0.017,0.016
			l0.017,0.109l-0.032,0.142c0.021,0.021,0.032,0.042,0.032,0.063h-0.032c0.032,0.063,0.047,0.115,0.047,0.157l-0.032,0.047
			l0.017,0.11v0.032c0,0.01-0.021,0.025-0.063,0.047l0.031,0.047c-0.021,0.031-0.031,0.052-0.031,0.063l0.047,0.016
			c-0.021,0.031-0.031,0.053-0.031,0.063c0.031,0.094,0.047,0.156,0.047,0.188l-0.047,0.063v0.016c0,0.031,0.01,0.047,0.031,0.047
			l-0.016,0.236c-0.01,0.125,0,0.229,0.032,0.313c-0.032,0.137-0.047,0.22-0.047,0.251l0.015,0.157
			c-0.031,0.115-0.047,0.179-0.047,0.189l0.047,0.031l-0.031,0.094v0.235c0,0.011-0.01,0.017-0.031,0.017l0.031,0.03l-0.031,0.11
			c0.01,0.115,0.016,0.215,0.016,0.299c-0.052,0.073-0.079,0.115-0.079,0.126v0.015h0.016v-0.03h0.047l-0.016,0.016l-0.015,0.047
			l0.063,0.031l-0.016,0.094c-0.01,0.021,0,0.1,0.032,0.236c-0.032,0.01-0.047,0.026-0.047,0.047
			c0.01,0.021,0.016,0.042,0.016,0.063h-0.032l-0.015-0.109h-0.047l0.016,0.047c-0.021,0.031-0.037,0.059-0.047,0.079
			c0.021,0.052,0.042,0.078,0.063,0.078h0.031l0.032-0.017l0.047,0.064v0.015l-0.094,0.157c0.01,0.042,0.083,0.184,0.22,0.424
			c0,0.054-0.032,0.179-0.094,0.378l0.015,0.047c0,0.031-0.021,0.1-0.063,0.204c0.01,0.021,0.015,0.042,0.015,0.063
			c-0.031-0.011-0.083,0.041-0.157,0.156l-0.016,0.016l0.047,0.063l-0.031,0.141c0.031,0,0.047,0.016,0.047,0.047l-0.016,0.095
			c0.032,0,0.047,0.063,0.047,0.188c-0.01,0.011-0.015,0.042-0.015,0.095h0.079v0.063l-0.063,0.126
			c0.032,0.031,0.063,0.047,0.094,0.047v0.016l-0.078,0.094v0.032l0.016,0.094c-0.021,0-0.052,0.026-0.094,0.079
			c0.032,0.01,0.047,0.025,0.047,0.047v0.063c0,0.021-0.021,0.032-0.063,0.032l0.016,0.047c0,0.125-0.058,0.204-0.173,0.235h-0.016
			c-0.01,0-0.016-0.006-0.016-0.016c-0.031,0.01-0.053,0.016-0.063,0.016c-0.074,0-0.11-0.073-0.11-0.221l0.016-0.188
			c-0.011-0.031-0.016-0.053-0.016-0.063c0.01-0.021,0.016-0.047,0.016-0.079c-0.042,0-0.063-0.115-0.063-0.346
			c0-0.011,0.005-0.053,0.016-0.126c-0.021-0.114-0.031-0.183-0.031-0.203c0.01,0,0.016-0.006,0.016-0.017
			c-0.031,0-0.047-0.036-0.047-0.11l0.032-0.078l-0.032-0.016h-0.031c-0.063,0.168-0.147,0.277-0.251,0.33h-0.079l-0.204-0.142
			c-0.021,0.032-0.047,0.115-0.079,0.251l-0.047,0.032c-0.021-0.021-0.042-0.032-0.063-0.032l0.031,0.047l-0.063,0.032h-0.11
			c-0.116-0.063-0.199-0.204-0.251-0.425c0-0.062-0.011-0.126-0.032-0.188l0.016-0.048c0-0.041-0.052-0.089-0.157-0.141
			c0-0.053-0.016-0.079-0.047-0.079h-0.016v0.173l-0.047,0.063c0,0.032,0.005,0.059,0.016,0.079
			c-0.031,0.115-0.084,0.183-0.157,0.204h-0.11c-0.105,0-0.157-0.068-0.157-0.204c0-0.011,0.01-0.053,0.032-0.126
			c-0.021-0.095-0.026-0.167-0.016-0.22l0.063-0.11c-0.021,0-0.042-0.021-0.063-0.063l0.016-0.126l-0.016-0.031
			c0.01-0.021,0.021-0.047,0.032-0.078v-0.032c0-0.01-0.021-0.031-0.063-0.063c-0.032,0-0.084,0.074-0.158,0.221
			c-0.063,0.031-0.11,0.047-0.141,0.047c0-0.011-0.037-0.053-0.11-0.126v-0.016l0.016-0.047c-0.032,0-0.047-0.017-0.047-0.048
			l0.016-0.142l-0.016-0.125l0.032-0.11l-0.016-0.126h0.032l-0.063-0.188l0.047-0.078c-0.032,0-0.053-0.036-0.063-0.109
			c0-0.011,0.005-0.017,0.016-0.017c-0.01-0.114-0.021-0.188-0.031-0.219c0.01-0.021,0.021-0.048,0.031-0.079
			c0-0.01-0.01-0.053-0.031-0.126h0.047c0.021,0.063,0.032,0.1,0.032,0.109c0.083-0.021,0.125-0.041,0.125-0.062
			c-0.01-0.042-0.021-0.063-0.031-0.063l0.016-0.11c0-0.011-0.006-0.031-0.016-0.062l0.031-0.111v-0.047
			c0-0.188-0.063-0.46-0.188-0.816c0-0.011,0.005-0.032,0.016-0.063c-0.021-0.125-0.031-0.209-0.031-0.251
			c0-0.021,0.026-0.115,0.079-0.282c-0.032,0-0.047-0.021-0.047-0.063c0-0.011,0.005-0.016,0.016-0.016
			c-0.021-0.146-0.031-0.288-0.031-0.424h0.031c0-0.011-0.011-0.017-0.031-0.017c0.01-0.01,0.021-0.052,0.031-0.125
			c0-0.042-0.011-0.126-0.031-0.251c0-0.021,0.021-0.126,0.063-0.314c-0.021,0-0.032-0.016-0.032-0.047l0.016-0.048l-0.016-0.109
			v-0.048c0-0.01,0.005-0.016,0.016-0.016l-0.016-0.047c0.021-0.115,0.032-0.188,0.032-0.22c-0.021-0.168-0.032-0.262-0.032-0.283
			c0-0.01,0.005-0.052,0.016-0.125c-0.01-0.021-0.016-0.058-0.016-0.11l0.047-0.016L99.739,42.5
			c0.021-0.052,0.031-0.104,0.031-0.156v-0.016c0-0.031-0.005-0.058-0.016-0.078c0.01-0.032,0.016-0.053,0.016-0.063l-0.016-0.11
			h0.016c-0.01-0.01-0.021-0.125-0.031-0.346c0.021-0.041,0.037-0.063,0.047-0.063c-0.011-0.104-0.032-0.157-0.063-0.157l0.031-0.11
			l-0.016-0.031c0.021,0,0.031-0.016,0.031-0.047l-0.031-0.063v-0.03c0-0.021,0.005-0.031,0.016-0.031
			c-0.011-0.021-0.016-0.037-0.016-0.047c0-0.011,0.01-0.053,0.031-0.127c-0.021-0.03-0.031-0.052-0.031-0.062h0.031l-0.047-0.079
			l0.031-0.047l-0.031-0.079l0.047-0.204c-0.021,0-0.042-0.021-0.063-0.063c0.031,0,0.047-0.017,0.047-0.047l-0.016-0.095h0.016
			l-0.016-0.047V40.27c0-0.021,0.005-0.031,0.016-0.031l-0.016-0.03v-0.142l0.031-0.126c-0.01-0.032-0.016-0.053-0.016-0.063h0.016
			l-0.016-0.031v-0.063l0.047-0.063l-0.047-0.031l0.016-0.031l-0.031-0.063c0.01-0.032,0.016-0.053,0.016-0.063
			c-0.021,0-0.031-0.016-0.031-0.047l0.079-0.078c-0.053-0.021-0.079-0.042-0.079-0.063c0.031,0,0.047-0.011,0.047-0.031
			l-0.079-0.174c0-0.011,0.005-0.016,0.016-0.016l-0.016-0.047V39.06l0.047-0.062v-0.017c-0.021,0-0.042-0.005-0.063-0.016
			c0.01-0.125,0.032-0.204,0.063-0.235v-0.031l-0.063-0.079v-0.047c0.01-0.031,0.026-0.047,0.047-0.047
			c-0.021-0.053-0.042-0.078-0.063-0.078h-0.125c-0.021,0-0.047,0.005-0.079,0.016c-0.188-0.021-0.283-0.042-0.283-0.063
			l-0.032,0.016h-0.031c-0.01,0-0.016-0.006-0.016-0.016l-0.047,0.016c-0.157-0.032-0.235-0.115-0.235-0.252
			c-0.011-0.031-0.016-0.052-0.016-0.063c0.073-0.114,0.151-0.172,0.235-0.172v0.016c0.01,0,0.016-0.005,0.016-0.016
			c0.032,0,0.058,0.005,0.079,0.016c0.042,0,0.162-0.011,0.362-0.032c0.063,0.032,0.104,0.047,0.125,0.047l0.031-0.047v-0.031
			c-0.094,0-0.141-0.089-0.141-0.267c0.031,0,0.068-0.063,0.11-0.188c0.042,0,0.063-0.021,0.063-0.063
			c-0.021-0.021-0.026-0.047-0.016-0.078h0.031l-0.016-0.031l0.016-0.048h-0.031c0-0.062,0.01-0.094,0.031-0.094l-0.031-0.156
			c0-0.011,0.005-0.017,0.016-0.017l-0.016-0.094v-0.11c0-0.011,0.01-0.016,0.031-0.016l-0.063-0.125v-0.048l0.047-0.047
			l-0.016-0.095l0.016-0.109l-0.031-0.032c0-0.01,0.005-0.015,0.016-0.015l-0.016-0.095v-0.063c0-0.021,0.005-0.031,0.016-0.031
			l-0.016-0.032c0-0.021,0.005-0.031,0.016-0.031l-0.047-0.204l0.063-0.11l-0.063-0.109l0.031-0.078
			c-0.031-0.179-0.042-0.341-0.031-0.487V34.96c0-0.031,0.005-0.057,0.016-0.078c-0.053-0.179-0.074-0.282-0.063-0.314
			c0.021,0.011,0.031,0,0.031-0.031c0-0.063-0.01-0.12-0.031-0.172c0.01-0.021,0.015-0.037,0.015-0.048l-0.015-0.048
			c0.01-0.021,0.015-0.047,0.015-0.078l-0.015-0.078c0.01-0.063,0.025-0.089,0.047-0.079l-0.016-0.047v-0.047l0.016-0.094
			c-0.021,0-0.032-0.017-0.032-0.048l0.016-0.094c0-0.032-0.01-0.079-0.031-0.142l0.015-0.126l0.016-0.126
			c0-0.01,0.005-0.015,0.016-0.015l-0.016-0.048c0-0.011,0.005-0.016,0.016-0.016l-0.016-0.11v-0.235l0.032-0.11
			c-0.032,0-0.047-0.01-0.047-0.03c0-0.084,0.01-0.188,0.032-0.314c-0.011-0.053-0.016-0.1-0.016-0.142l0.016-0.032
			c-0.011-0.031-0.016-0.062-0.016-0.094v-0.016c0-0.041,0.01-0.063,0.032-0.063l-0.032-0.095l0.016-0.329
			c0-0.032-0.006-0.058-0.016-0.079c0.032-0.084,0.047-0.142,0.047-0.173c-0.021-0.021-0.031-0.048-0.031-0.078
			c0.031-0.042,0.047-0.073,0.047-0.095c-0.021,0-0.031-0.016-0.031-0.047c0-0.032,0.005-0.058,0.016-0.078
			c-0.011-0.021-0.016-0.048-0.016-0.079v-0.047c0-0.021,0.016-0.031,0.047-0.031l-0.031-0.095c0.01-0.01,0.021-0.026,0.031-0.047
			l-0.031-0.267c0.01-0.021,0.016-0.059,0.016-0.11l-0.016-0.031c0.01-0.063,0.026-0.095,0.047-0.095l-0.031-0.031l0.016-0.173
			c0-0.021-0.005-0.047-0.016-0.079c0.01-0.021,0.016-0.047,0.016-0.078v-0.063c0-0.031-0.01-0.073-0.031-0.126
			c0-0.01,0.005-0.047,0.016-0.109c0-0.063-0.063-0.168-0.188-0.314c0,0.011-0.011,0.016-0.031,0.016
			c0-0.063-0.105-0.11-0.314-0.142c-0.094-0.073-0.141-0.115-0.141-0.126v-0.03c0-0.127,0.105-0.273,0.314-0.44
			c0-0.052,0.058-0.104,0.173-0.157c0.042,0,0.063,0.006,0.063,0.016l0.549-0.047v0.031l0.032-0.016h0.063
			c0.063,0,0.173-0.011,0.331-0.031c0,0.01,0.005,0.016,0.016,0.016c0-0.031,0.104-0.078,0.314-0.142l0.079-0.142l-0.016-0.031
			c0.021-0.052,0.042-0.1,0.063-0.142c-0.01-0.031-0.016-0.053-0.016-0.063c0.031,0,0.047-0.016,0.047-0.048
			c0-0.021-0.016-0.031-0.047-0.031l0.078-0.345c-0.021-0.031-0.031-0.053-0.031-0.063c0.021,0,0.052-0.052,0.094-0.156l0.047-0.032
			h0.031l0.047,0.032C101.216,27.231,101.247,27.211,101.31,27.2z M100.147,48.077c0.021,0.084,0.042,0.125,0.063,0.125l0.047-0.015
			c-0.011-0.021-0.016-0.063-0.016-0.126h-0.047L100.147,48.077z M100.619,48.093c0.021,0.031,0.032,0.053,0.032,0.063
			c-0.032,0-0.047,0.021-0.047,0.063s0.015,0.142,0.047,0.298h0.047l0.016-0.094c0-0.053-0.01-0.152-0.031-0.299
			c0.021-0.031,0.031-0.063,0.031-0.094h-0.031C100.661,48.03,100.64,48.052,100.619,48.093z M101.31,30.373v0.047
			c0.031,0.095,0.047,0.147,0.047,0.157c-0.032,0.053-0.047,0.095-0.047,0.127v0.062l0.016,0.11c-0.031,0-0.047,0.011-0.047,0.032
			c0,0.136,0.052,0.235,0.157,0.298v0.031c-0.063,0.105-0.121,0.293-0.173,0.566l0.063,0.109l-0.031,0.031
			c0.01,0.031,0.016,0.063,0.016,0.095l-0.031,0.016l0.031,0.094c-0.031,0.063-0.047,0.104-0.047,0.126
			c0.031,0,0.047,0.016,0.047,0.047s-0.011,0.058-0.031,0.079c0.021,0.021,0.031,0.047,0.031,0.078s-0.011,0.047-0.031,0.047
			l0.016,0.094v0.205c0,0.011-0.005,0.016-0.016,0.016c0.01,0.104,0.026,0.173,0.047,0.204v0.063l-0.047,0.063
			c0.031,0.011,0.047,0.027,0.047,0.048v0.079c0,0.03-0.01,0.058-0.031,0.078c0.031,0.283,0.063,0.43,0.094,0.439l-0.016,0.079
			c0.01,0.094,0.021,0.151,0.031,0.172l-0.016,0.048c0.01,0.031,0.016,0.052,0.016,0.063h-0.016l0.031,0.079l-0.016,0.125
			c0,0.021,0.021,0.136,0.063,0.346h-0.031v0.047l0.031-0.031c0,0.021-0.005,0.042-0.016,0.063l0.016,0.205h-0.031
			c0.021,0.053,0.042,0.078,0.063,0.078l-0.016,0.11v0.094c0.021,0.042,0.031,0.073,0.031,0.095c0,0.011-0.005,0.016-0.016,0.016
			c0.021,0.125,0.032,0.21,0.032,0.251l-0.016,0.031c-0.01,0.105,0.016,0.163,0.079,0.173c-0.01,0.042-0.021,0.101-0.032,0.173
			c0.01,0.032,0.016,0.053,0.016,0.063c-0.021,0-0.037,0.016-0.047,0.047c0.021,0,0.041,0.021,0.063,0.063
			c0,0.01-0.005,0.015-0.016,0.015c0.01,0.147,0.042,0.304,0.094,0.472c-0.032,0.011-0.053,0.016-0.063,0.016
			c0.052,0.063,0.079,0.12,0.079,0.173h-0.032l0.032,0.032v0.015c0,0.021-0.01,0.032-0.032,0.032
			c0.042,0.104,0.063,0.167,0.063,0.188h0.032v-0.032c0.01-0.084,0.01-0.22,0-0.408c0.01-0.073,0.016-0.126,0.016-0.157
			c-0.021,0-0.032-0.016-0.032-0.047c0-0.011,0.005-0.048,0.016-0.11l-0.016-0.109h0.032c0-0.01-0.01-0.017-0.032-0.017l0.032-0.078
			c-0.032-0.125-0.042-0.215-0.032-0.268v-0.03c0-0.032,0.005-0.059,0.016-0.079c-0.011-0.031-0.021-0.089-0.032-0.173
			c0.011-0.072,0.016-0.141,0.016-0.204l-0.031-0.157h0.015l-0.015-0.031c0.021-0.115,0.031-0.209,0.031-0.283l-0.047-0.031
			l0.031-0.094c-0.031-0.556-0.053-0.874-0.063-0.959l0.016-0.047c-0.011-0.072-0.016-0.131-0.016-0.172h0.032l-0.032-0.048
			l0.016-0.078c0-0.053-0.016-0.146-0.047-0.283h0.031c-0.021-0.031-0.031-0.142-0.031-0.33h0.015
			c-0.01-0.031-0.026-0.203-0.047-0.518h0.016c-0.021-0.053-0.031-0.126-0.031-0.221v-0.188l0.031-0.204
			c-0.021,0-0.052-0.136-0.094-0.408c0.01-0.053,0.021-0.1,0.032-0.142l-0.032-0.031l0.032-0.048
			c-0.021-0.021-0.026-0.046-0.016-0.078c0-0.011,0.005-0.016,0.016-0.016c-0.01-0.031-0.016-0.052-0.016-0.063l0.016-0.047
			c-0.01-0.021-0.016-0.042-0.016-0.063l0.016-0.031c-0.01-0.031-0.032-0.162-0.063-0.393c0-0.01,0.005-0.063,0.016-0.157
			c-0.01-0.063-0.016-0.115-0.016-0.156c-0.042,0-0.084,0.072-0.125,0.219H101.31z M101.436,29.98l-0.016,0.032
			c0.01,0.031,0.026,0.047,0.047,0.047v-0.047C101.467,29.991,101.457,29.98,101.436,29.98z M101.907,27.688l-0.015,0.031
			l0.047,0.031l0.016-0.047L101.907,27.688z M102.787,29.415c-0.021-0.01-0.047-0.016-0.079-0.016h-0.11
			c0,0.031-0.031,0.058-0.094,0.078c0,0.011-0.053,0.089-0.157,0.236c0.01,0.021,0.026,0.105,0.047,0.251
			c-0.021,0-0.042,0.016-0.063,0.048l-0.016,0.047c0.042,0,0.063,0.016,0.063,0.047l-0.063,0.078l0.016,0.126
			c-0.01,0.021-0.016,0.047-0.016,0.079l0.031,0.016c-0.021,0.146-0.037,0.24-0.047,0.282l0.031,0.047
			c-0.01,0.116-0.026,0.174-0.047,0.174l0.016,0.047l-0.016,0.047l0.016,0.031l-0.047,0.079l0.015,0.203h-0.015l0.015,0.047v0.063
			c0,0.053-0.01,0.104-0.031,0.157l0.047,0.268c-0.031,0.063-0.058,0.136-0.079,0.219l0.016,0.127v0.015
			c0,0.021-0.005,0.032-0.016,0.032c0.01,0.021,0.021,0.089,0.031,0.204c-0.021,0.031-0.042,0.115-0.063,0.251h0.047v0.048
			c0,0.01-0.01,0.016-0.032,0.016l0.016,0.047c-0.011,0.021-0.016,0.047-0.016,0.078c0.021,0,0.042,0.037,0.063,0.11
			c-0.021,0.115-0.037,0.172-0.047,0.172l0.016,0.048v0.016c0,0.021-0.005,0.026-0.016,0.016l0.016,0.048v0.015
			c0,0.021-0.005,0.032-0.016,0.032l0.016,0.031l-0.032,0.109c0.032,0.053,0.047,0.105,0.047,0.157c0,0.011-0.01,0.017-0.031,0.017
			c0.031,0.062,0.042,0.172,0.031,0.329v0.031c0,0.032-0.01,0.09-0.031,0.173c0.031,0,0.047,0.058,0.047,0.174l-0.016,0.031
			c0.01,0.021,0.016,0.047,0.016,0.078c0,0.021-0.006,0.031-0.016,0.031l0.016,0.095l-0.016,0.172l-0.016,0.188
			c0.021,0.011,0.042,0.032,0.063,0.063c-0.031,0.052-0.047,0.095-0.047,0.126v0.078c0.021,0.021,0.042,0.157,0.063,0.408
			c-0.011,0.021-0.026,0.121-0.047,0.299c0.031,0,0.047,0.011,0.047,0.031v0.016c0,0.021-0.011,0.032-0.032,0.032
			c0.032,0.167,0.058,0.267,0.079,0.298v0.126c0,0.03-0.01,0.058-0.031,0.078c0.021,0.031,0.037,0.094,0.047,0.188
			c-0.021,0.021-0.031,0.042-0.031,0.063c0.031,0,0.047,0.015,0.047,0.047l-0.016,0.031c0.021,0.146,0.042,0.22,0.063,0.22
			l0.11,0.016l0.77-0.094h0.032c0.021,0.01,0.047,0.021,0.079,0.03c0.021-0.01,0.047-0.015,0.079-0.015
			c0.031,0,0.058,0.005,0.078,0.015c0.199-0.021,0.372-0.067,0.519-0.141h0.016c0.01,0,0.016,0.005,0.016,0.016l0.047-0.016h0.016
			l0.063,0.032c0.021,0,0.047-0.027,0.078-0.079c0.199,0.021,0.293,0.047,0.283,0.079c0.042-0.043,0.256-0.079,0.644-0.11
			c0,0.011,0.005,0.016,0.016,0.016c0-0.032,0.193-0.073,0.581-0.126l0.094-0.016c0,0.011,0.005,0.016,0.015,0.016
			c0.011-0.032,0.246-0.073,0.707-0.126c0-0.021,0.178-0.084,0.535-0.188c0-0.042,0.099-0.084,0.298-0.125
			c0.125-0.063,0.199-0.11,0.219-0.142c0.419-0.179,0.765-0.408,1.038-0.691c0.094-0.041,0.241-0.209,0.439-0.503l0.251-0.408
			c0.021,0,0.057-0.047,0.11-0.141v-0.063c0-0.032-0.005-0.058-0.016-0.079l0.079-0.141c-0.011-0.252-0.027-0.466-0.047-0.645h0.016
			c-0.084-0.597-0.163-0.896-0.236-0.896l0.016-0.047c-0.094-0.251-0.298-0.597-0.612-1.037c-0.084-0.063-0.142-0.095-0.173-0.095
			c0,0.012-0.006,0.017-0.016,0.017c-0.356-0.43-0.65-0.723-0.88-0.88c-0.125-0.104-0.246-0.173-0.361-0.204v0.031
			c-0.021,0-0.09-0.016-0.204-0.047c-0.042,0.031-0.084,0.047-0.126,0.047l0.032-0.047c-0.011,0-0.037-0.026-0.079-0.078
			l-0.047,0.015c-0.052-0.114-0.104-0.178-0.157-0.188h-0.016c0,0.032-0.016,0.042-0.047,0.032h-0.031v-0.047l0.015-0.048
			l-0.047-0.016h-0.047c-0.032,0.021-0.074,0.031-0.126,0.031c0-0.063-0.094-0.12-0.282-0.172c0-0.021-0.1-0.058-0.299-0.11h-0.063
			c0-0.063-0.21-0.115-0.628-0.157l-0.047,0.016c-0.125-0.011-0.241-0.041-0.345-0.095c-0.021,0.021-0.042,0.032-0.063,0.032
			c-0.031,0-0.084-0.011-0.157-0.032l-0.11,0.016c-0.032,0-0.11-0.016-0.236-0.047l-0.047,0.017
			c-0.063-0.011-0.094-0.021-0.094-0.032l-0.047,0.016h-0.063c-0.031,0-0.058-0.011-0.079-0.031
			c-0.052,0.042-0.105,0.063-0.157,0.063v-0.047h-0.047v0.032l0.016,0.03c-0.042,0-0.063,0.017-0.063,0.048h-0.032v-0.031
			c0-0.021,0.021-0.032,0.063-0.032c0-0.021-0.042-0.042-0.125-0.063c-0.021,0.011-0.089,0.021-0.205,0.031l-0.047-0.016
			c-0.052,0.011-0.1,0.016-0.141,0.016l-0.031-0.031c-0.021,0.021-0.047,0.031-0.079,0.031s-0.047-0.016-0.047-0.047
			C102.875,29.395,102.808,29.405,102.787,29.415z M102.473,46.569v0.173c0.021,0.031,0.031,0.058,0.031,0.078h0.047v-0.015
			c-0.011-0.032-0.016-0.053-0.016-0.063c0.011,0,0.016-0.011,0.016-0.031h-0.032v-0.142H102.473z M103.148,38.464
			c-0.021-0.021-0.053-0.032-0.094-0.032h-0.031c-0.053,0.063-0.147,0.095-0.283,0.095h-0.094c-0.032,0.021-0.084,0.031-0.157,0.031
			c0.021,0.053,0.031,0.1,0.031,0.142l0.141,0.016l0.032,0.016c0-0.042,0.151-0.073,0.455-0.094c0.021,0.021,0.047,0.03,0.079,0.03
			c0.146-0.041,0.251-0.062,0.314-0.062c0.021,0.021,0.036,0.031,0.047,0.031c0-0.031,0.042-0.053,0.126-0.063
			c0-0.053-0.037-0.109-0.11-0.172C103.478,38.432,103.326,38.453,103.148,38.464z M102.504,46.946v0.016l-0.016,0.188
			c0.01,0.021,0.016,0.037,0.016,0.048h0.016c0.032,0.01,0.047-0.006,0.047-0.048l-0.047-0.142c0.021-0.031,0.032-0.053,0.032-0.063
			H102.504z M103.871,28.41v0.016c0.042,0,0.079,0.011,0.11,0.031l0.016-0.047c-0.031,0-0.047-0.005-0.047-0.016
			C103.928,28.405,103.902,28.41,103.871,28.41z M104.043,28.41c0.01,0.031,0.016,0.053,0.016,0.063l0.079-0.047
			c0.01,0.011,0.031,0.021,0.063,0.031l0.675-0.047v-0.063h-0.063c-0.052,0-0.115-0.011-0.188-0.031
			c-0.021,0.021-0.063,0.031-0.125,0.031v-0.031l-0.031,0.031c-0.031-0.021-0.053-0.031-0.063-0.031
			C104.353,28.357,104.231,28.389,104.043,28.41z M109.526,31.206c0,0.073,0.047,0.115,0.141,0.126
			c-0.011-0.105-0.037-0.157-0.079-0.157C109.567,31.195,109.546,31.206,109.526,31.206z M109.683,31.348v0.063
			c0.031,0.073,0.073,0.115,0.125,0.126v-0.032C109.777,31.421,109.735,31.369,109.683,31.348z M109.761,36.468v0.017h0.047
			c0-0.021,0.01-0.047,0.032-0.079h-0.016C109.803,36.405,109.783,36.427,109.761,36.468z M110.578,31.851l0.016,0.109v0.157
			c0.063,0.073,0.089,0.199,0.079,0.377v0.063c0.136,0.167,0.199,0.424,0.188,0.769l-0.016,0.048c0.01,0.031,0.021,0.1,0.031,0.204
			c-0.021,0.063-0.037,0.094-0.047,0.094c0.011,0.032,0.016,0.054,0.016,0.063c0,0.094-0.079,0.309-0.236,0.644
			c-0.104,0.221-0.183,0.351-0.235,0.393h0.063v0.031c-0.052,0-0.115,0.043-0.188,0.126l0.016,0.031
			c-0.115,0.21-0.184,0.32-0.205,0.33l0.016,0.048v0.047h-0.047v0.047l0.063-0.047l0.047,0.031c0-0.041,0.142-0.194,0.424-0.456
			c0-0.031,0.104-0.225,0.314-0.581c0.084-0.178,0.157-0.355,0.22-0.533h0.032c0.032,0.01,0.047,0.026,0.047,0.047l-0.016,0.031
			v0.031h0.016c0.01-0.095,0.026-0.142,0.047-0.142l-0.031-0.047v-0.063c0.063-0.063,0.099-0.236,0.11-0.519
			c0-0.042-0.011-0.1-0.031-0.173c0.021-0.021,0.031-0.048,0.031-0.079c-0.011-0.021-0.016-0.047-0.016-0.078h0.016
			c-0.021-0.104-0.084-0.236-0.188-0.394v-0.109c-0.021,0-0.095-0.095-0.22-0.283c-0.011,0-0.089-0.067-0.236-0.203L110.578,31.851z
			 M110.06,36.202v0.03c0,0.021,0.011,0.031,0.032,0.031h0.031v-0.062H110.06z M110.123,32.572c-0.01,0.032-0.016,0.053-0.016,0.063
			c0.031,0.063,0.068,0.188,0.11,0.377c-0.032,0.272-0.058,0.408-0.079,0.408l0.031,0.032v0.03c0,0.011-0.01,0.017-0.031,0.017
			l0.031,0.031c0,0.021-0.01,0.031-0.031,0.031c0.021,0.178,0.047,0.267,0.079,0.267c0.042-0.167,0.073-0.324,0.094-0.471
			l-0.016-0.142c0-0.01,0.005-0.017,0.016-0.017c0-0.24-0.032-0.392-0.094-0.454C110.227,32.651,110.196,32.594,110.123,32.572z
			 M110.154,43.647l0.032,0.063h-0.032c-0.031,0-0.047-0.016-0.047-0.047L110.154,43.647z"/>
		<path fill="#FFFFFF" d="M121.825,23.691c0.012,0.035,0.03,0.054,0.054,0.054c0.036-0.012,0.06-0.019,0.071-0.019
			c0.072,0.072,0.108,0.156,0.108,0.251l-0.018,0.107l-0.018,0.144l0.018,0.054l-0.018,0.053c0.012,0.024,0.018,0.055,0.018,0.09
			l-0.071,0.054l0.018,0.054l-0.018,0.269c0.035,0.084,0.101,0.137,0.196,0.161c0.191-0.013,0.286-0.036,0.286-0.072l0.125,0.036
			h0.053c0.096-0.167,0.161-0.25,0.198-0.25c0.011-0.119,0.101-0.18,0.268-0.18l0.071,0.09v0.161
			c-0.012,0.012-0.023,0.018-0.036,0.018c0.023,0.072,0.065,0.125,0.125,0.161h0.053c0.037,0,0.066-0.006,0.09-0.018
			c0.036,0.012,0.072,0.018,0.108,0.018l0.178-0.036c0.071,0,0.144,0.024,0.215,0.072c0.047,0,0.107-0.024,0.179-0.072
			c0.023,0,0.036,0.012,0.036,0.036l0.125-0.072l0.144,0.019l0.053-0.019c0.012,0,0.019,0.013,0.019,0.036l0.554-0.036l0.054,0.019
			l0.054-0.019c0.118,0.024,0.19,0.042,0.214,0.055c0.036-0.013,0.072-0.019,0.108-0.019h0.018c0.024,0,0.036,0.006,0.036,0.019
			c0.012,0,0.018-0.007,0.018-0.019l0.125,0.036c0.107-0.036,0.185-0.054,0.232-0.054c0.071,0,0.108,0.013,0.108,0.036l0.16-0.019
			h0.25c0.286,0.012,0.429,0,0.429-0.036c0.024,0,0.054,0.007,0.089,0.019c0.263,0,0.418,0,0.466,0c0.095,0,0.197,0.018,0.304,0.054
			c0.023-0.012,0.06-0.018,0.108-0.018v0.018l0.036-0.018h0.054c0.036,0,0.071,0.012,0.107,0.035
			c0.023-0.023,0.107-0.042,0.25-0.054v0.036l0.053-0.036c0.012,0,0.018,0.012,0.018,0.036l0.053-0.036l0.144,0.036l0.054-0.018
			l0.053,0.018l0.144-0.036c0.071,0.012,0.107,0.03,0.107,0.054c0.06-0.035,0.125-0.054,0.197-0.054
			c0.023,0,0.036,0.012,0.036,0.036l0.037-0.036c0.107,0.012,0.244,0.012,0.411,0c0.024,0.012,0.054,0.019,0.09,0.019
			c0.011-0.036,0.029-0.055,0.054-0.055l0.125,0.036c0.143-0.012,0.262-0.018,0.357-0.018c0.179,0.013,0.287,0.084,0.322,0.215
			v0.143l-0.144,0.18c-0.048,0-0.119,0.029-0.214,0.089c-0.096,0-0.168,0.024-0.215,0.072c-0.036,0-0.089-0.024-0.161-0.072h-0.036
			v0.019c0.119,0.083,0.172,0.202,0.161,0.357c-0.037,0.083-0.054,0.144-0.054,0.179c0.167,0.036,0.328,0.054,0.483,0.054
			l0.089-0.018v0.018l0.054-0.018h0.036c0.011,0,0.017,0.012,0.017,0.035l0.054-0.035l0.304,0.035c0-0.035,0.024-0.048,0.072-0.035
			c0.083,0.048,0.143,0.071,0.178,0.071c0-0.036,0.019-0.054,0.054-0.054l0.036,0.036c0.036-0.024,0.071-0.03,0.107-0.019
			c0.119,0.084,0.173,0.185,0.161,0.304l-0.054,0.019c0,0.036,0.083,0.119,0.251,0.251v0.179c-0.083,0.131-0.138,0.196-0.161,0.196
			h-0.143c-0.047,0-0.125,0.012-0.232,0.036c-0.06-0.036-0.102-0.054-0.125-0.054c0,0.036-0.018,0.054-0.054,0.054
			c0-0.036-0.107-0.065-0.322-0.09l0.018,0.054l-0.053,0.036c0-0.036-0.012-0.054-0.036-0.054c-0.083,0.06-0.144,0.09-0.179,0.09
			c0-0.013-0.011-0.019-0.036-0.019c-0.107,0.19-0.227,0.286-0.358,0.286c0,0.036-0.036,0.048-0.107,0.036l-0.108-0.018
			c-0.143,0.071-0.257,0.107-0.339,0.107l-0.09-0.055l-0.143,0.071l-0.144-0.071h-0.018l-0.108,0.071h-0.107
			c-0.143-0.011-0.245,0.007-0.304,0.055h-0.089c-0.024,0-0.037-0.007-0.037-0.018l-0.036,0.018h-0.053
			c-0.024,0-0.037-0.007-0.037-0.018l-0.25,0.089c-0.227-0.023-0.352-0.047-0.376-0.071c-0.096,0.048-0.161,0.071-0.197,0.071
			l-0.018-0.054c-0.072,0.036-0.125,0.054-0.162,0.054c-0.047-0.036-0.089-0.054-0.125-0.054c-0.095,0-0.185,0.03-0.268,0.09
			l-0.089-0.054h-0.035l-0.089,0.054l-0.036-0.036c-0.06,0.036-0.108,0.054-0.144,0.054c0.012-0.036,0-0.054-0.036-0.054
			l-0.09,0.054l-0.036-0.018l-0.071-0.036c-0.012,0.024-0.042,0.048-0.09,0.071h-0.018c-0.036-0.012-0.071-0.023-0.107-0.035
			c-0.072,0.035-0.155,0.047-0.251,0.035c0-0.012-0.006-0.018-0.017-0.018c0,0.024-0.079,0.054-0.232,0.09l-0.054-0.019
			l-0.125,0.019c-0.036-0.024-0.06-0.036-0.072-0.036c0,0.036-0.018,0.054-0.054,0.054h-0.018v-0.054
			c-0.108,0-0.191,0.03-0.25,0.089h-0.036l-0.071-0.053h-0.055l-0.071,0.053v-0.018c-0.024,0.013-0.162,0.023-0.412,0.036
			c0.012-0.023,0.005-0.036-0.018-0.036c0,0.023-0.042,0.065-0.125,0.126c0-0.036-0.017-0.055-0.054-0.055l-0.053,0.036
			l-0.036-0.036c-0.06,0-0.09,0.042-0.09,0.126c-0.036,0-0.054-0.023-0.054-0.071l-0.25,0.018v-0.036l-0.125,0.071
			c-0.024-0.012-0.054-0.018-0.09-0.018c-0.071,0.061-0.108,0.107-0.108,0.143l0.019,0.055c-0.036,0.083-0.053,0.143-0.053,0.179
			c0.035,0.047,0.053,0.095,0.053,0.143l-0.036,0.054c0,0.012,0.006,0.018,0.018,0.018c-0.011,0.096-0.018,0.15-0.018,0.161
			c0.036,0.608,0.065,0.925,0.09,0.948c-0.036,0-0.054,0.024-0.054,0.072c0.048,0.106,0.083,0.435,0.107,0.983
			c0.037,0.012,0.048,0.03,0.037,0.054l-0.019,0.143l0.036,0.091c0,0.012-0.006,0.017-0.017,0.017l0.017,0.055
			c0,0.012-0.006,0.018-0.017,0.018l0.017,0.054c0,0.035-0.006,0.071-0.017,0.106c0.023,0,0.041,0.232,0.053,0.698
			c-0.023,0.071-0.036,0.138-0.036,0.196c0.036,0.013,0.054,0.03,0.054,0.055l-0.054,0.106l0.108,1.021
			c-0.012,0.035-0.03,0.16-0.054,0.376c0.036,0.059,0.054,0.112,0.054,0.16l-0.018,0.107l-0.018,0.036
			c0.036,0,0.06,0.077,0.072,0.232l-0.036,0.179c0.023,0.25,0.036,0.436,0.036,0.555c-0.036,0-0.054,0.018-0.054,0.054
			c0.036,0,0.054,0.024,0.054,0.071l-0.036,0.18c0.036,0,0.053,0.011,0.053,0.034l-0.036,0.055c0.023,0.131,0.053,0.328,0.089,0.591
			c-0.06,0.106-0.089,0.172-0.089,0.196c0.036,0,0.053,0.019,0.053,0.053v0.019c0,0.013-0.006,0.018-0.018,0.018
			c-0.012,0.024-0.006,0.036,0.018,0.036c0,0.013-0.012,0.036-0.035,0.071c0.023,0.096,0.029,0.161,0.018,0.197l-0.018,0.106
			c0.012,0.036,0.018,0.061,0.018,0.072c-0.036,0-0.059,0.036-0.071,0.107c0.023,0.048,0.047,0.119,0.071,0.215
			c-0.024,0.095-0.036,0.173-0.036,0.232v0.071l0.036,0.071l-0.018,0.161l0.018,0.054l-0.036,0.143v0.019
			c0,0.048,0.011,0.084,0.036,0.107c-0.024,0.035-0.036,0.06-0.036,0.072c0.036,0,0.053,0.029,0.053,0.089l-0.035,0.089
			c0,0.024,0.012,0.036,0.035,0.036l-0.035,0.125v0.036c0,0.167,0.012,0.25,0.035,0.25c0,0.023-0.006,0.055-0.018,0.09
			c0.011,0.167,0.011,0.292,0,0.375h-0.018l0.018,0.054c-0.012,0.048-0.03,0.072-0.053,0.072l0.036,0.036v0.053
			c0,0.024-0.012,0.036-0.036,0.036c0.036,0.048,0.053,0.096,0.053,0.144c0,0.023-0.012,0.047-0.036,0.071
			c0.023,0.035,0.03,0.071,0.018,0.107v0.018c0,0.024-0.007,0.036-0.018,0.036l0.018,0.054v0.036c0,0.059-0.007,0.089-0.018,0.089
			l0.018,0.126v0.07c0,0.061-0.012,0.102-0.036,0.126l0.018,0.143v0.071l-0.054,0.09c0.036,0.036,0.06,0.161,0.072,0.376
			l-0.036,0.053c0.023,0.024,0.036,0.055,0.036,0.09c-0.012,0.036-0.024,0.054-0.036,0.054l0.018,0.126v0.071
			c0,0.071-0.018,0.137-0.054,0.196c0.012,0.036,0.024,0.114,0.036,0.232c-0.012,0.048-0.024,0.071-0.036,0.071
			c0.012,0.239,0.024,0.383,0.036,0.43l-0.054,0.179c0.011,0.024,0.018,0.054,0.018,0.09c0,0.024-0.012,0.054-0.036,0.09
			c0,0.012,0.012,0.018,0.036,0.018l-0.036,0.126v0.053l0.019,0.125c-0.024,0-0.048,0.024-0.071,0.071l0.071,0.055
			c-0.024,0.238-0.048,0.369-0.071,0.393l0.053,0.036c-0.023,0.096-0.047,0.167-0.071,0.215l0.019,0.125
			c-0.024,0-0.037,0.012-0.037,0.036l0.054,0.019c-0.011,0.047-0.029,0.071-0.054,0.071c0.037,0.095,0.054,0.154,0.054,0.178
			l-0.054,0.036l0.018,0.125c-0.012,0.286-0.048,0.46-0.107,0.519c0.023,0,0.042,0.066,0.053,0.198
			c-0.036,0.071-0.053,0.125-0.053,0.16c0.023,0.048,0.042,0.072,0.053,0.072c-0.036,0.215-0.053,0.346-0.053,0.393l0.018,0.055
			c-0.024,0.035-0.036,0.059-0.036,0.071c0.012,0.154,0.018,0.25,0.018,0.286c-0.012,0.023-0.018,0.047-0.018,0.071
			c0.012,0.024,0.018,0.065,0.018,0.125h-0.018l0.018,0.054v0.018l-0.037,0.161l0.019,0.036l-0.019,0.125l0.037,0.125
			c-0.024,0.155-0.042,0.251-0.054,0.287l0.054,0.215c-0.024,0.059-0.042,0.089-0.054,0.089l0.018,0.036
			c0,0.083-0.018,0.124-0.053,0.124c0.036,0.061,0.053,0.114,0.053,0.161c-0.023,0.084-0.035,0.132-0.035,0.144
			c0.011,0.036,0.017,0.065,0.017,0.09c-0.012,0.023-0.017,0.048-0.017,0.071c0.023,0.061,0.035,0.119,0.035,0.18
			c0,0.082-0.011,0.22-0.035,0.41c0.023,0.275,0.035,0.437,0.035,0.484l-0.035,0.124c0,0.024,0.047,0.126,0.143,0.305l-0.071,0.071
			l0.018,0.107c-0.036,0.048-0.054,0.096-0.054,0.143c0.024,0,0.066,0.043,0.125,0.126c-0.036,0.06-0.053,0.113-0.053,0.161h0.053
			v0.071c0,0.012-0.053,0.06-0.16,0.143v0.071c0.059,0.013,0.089,0.042,0.089,0.09v0.019c0,0.023-0.006,0.035-0.018,0.035
			l0.018,0.036v0.035l-0.054,0.071c0.024,0,0.037,0.007,0.037,0.019c-0.048,0-0.102,0.054-0.161,0.161
			c-0.048,0-0.114,0.006-0.197,0.019c-0.059,0-0.113-0.215-0.16-0.646c-0.072-0.095-0.114-0.143-0.125-0.143
			c-0.048,0-0.078-0.071-0.089-0.215c0.011-0.023,0.017-0.048,0.017-0.071h-0.017c-0.036,0-0.072,0.006-0.107,0.018
			c-0.144,0-0.239-0.148-0.287-0.446c0-0.119-0.042-0.18-0.125-0.18c-0.012,0.024-0.03,0.102-0.054,0.233l0.018,0.143
			c-0.024-0.011-0.042,0.013-0.054,0.071c0.024,0.024,0.036,0.048,0.036,0.071c-0.024,0-0.078,0.126-0.161,0.376l-0.179,0.161
			c-0.155-0.012-0.233-0.065-0.233-0.161c-0.024,0-0.06-0.101-0.107-0.305h-0.036c0,0.097-0.06,0.174-0.179,0.233l-0.018,0.036
			c-0.25,0-0.375-0.126-0.375-0.376c-0.024-0.118-0.048-0.203-0.071-0.25c0.023-0.06,0.042-0.084,0.054-0.072
			c-0.06-0.083-0.102-0.22-0.125-0.411c0-0.023,0.006-0.036,0.018-0.036l-0.018-0.161v-0.232c0-0.011,0.012-0.018,0.036-0.018
			c0-0.023-0.012-0.036-0.036-0.036c0-0.012,0.012-0.036,0.036-0.071l-0.018-0.125c0.024-0.144,0.036-0.232,0.036-0.269
			c0-0.048-0.024-0.107-0.072-0.179v-0.054l0.054-0.072c-0.036,0-0.054-0.018-0.054-0.053l0.018-0.716
			c0.036-0.036,0.054-0.064,0.054-0.089c0-0.048-0.024-0.108-0.072-0.18c0.024-0.119,0.042-0.196,0.054-0.232l-0.036-0.019
			l0.018-0.106l-0.018-0.161c0-0.024,0.012-0.036,0.036-0.036c-0.036-0.215-0.054-0.363-0.054-0.447
			c0.024-0.035,0.036-0.059,0.036-0.071l-0.018-0.054l0.018-0.053c-0.012-0.096-0.018-0.162-0.018-0.198
			c0-0.023,0.012-0.047,0.036-0.071c-0.036-0.059-0.054-0.112-0.054-0.16c0-0.012,0.012-0.018,0.036-0.018
			c-0.024-0.156-0.042-0.257-0.054-0.305c0-0.023,0.012-0.03,0.036-0.018l-0.036-0.608l0.018-0.054
			c-0.012-0.061-0.018-0.096-0.018-0.108l0.036-0.249c-0.012-0.144-0.018-0.27-0.018-0.376l0.036-0.036
			c-0.024-0.035-0.036-0.065-0.036-0.09h0.036l-0.036-0.053l0.018-0.019c0-0.011,0.006-0.018,0.018-0.018l-0.054-0.107l0.036-0.143
			c0-0.048-0.006-0.084-0.018-0.108c0.012-0.023,0.018-0.059,0.018-0.106c0-0.013-0.006-0.036-0.018-0.071l0.036-0.055l-0.018-0.25
			h0.018c-0.036-0.071-0.048-0.179-0.036-0.322c0.036-0.047,0.054-0.09,0.054-0.125l-0.036-0.054
			c0.06-0.096,0.089-0.167,0.089-0.215c-0.023,0-0.047-0.054-0.071-0.161c0-0.012,0.005-0.018,0.018-0.018
			c0-0.19-0.018-0.346-0.054-0.465l0.036-0.161c0-0.012-0.006-0.065-0.018-0.161c0.012-0.023,0.018-0.047,0.018-0.071
			c-0.036,0-0.054-0.019-0.054-0.054c0.024-0.143,0.036-0.232,0.036-0.269l-0.036-0.106c0.012-0.037,0.018-0.061,0.018-0.072
			l-0.053-0.107c0.023-0.048,0.042-0.071,0.053-0.071c0-0.227-0.018-0.353-0.053-0.376v-0.019l0.036-0.16
			c-0.024-0.036-0.036-0.06-0.036-0.072c0.036,0,0.053-0.017,0.053-0.054v-0.071l-0.036-0.071l0.018-0.053
			c-0.024-0.108-0.036-0.186-0.036-0.233v-0.143c0-0.024,0.005-0.037,0.018-0.037l-0.036-0.089c0-0.023,0.006-0.048,0.018-0.071
			l-0.018-0.161v-0.018c0-0.036,0.012-0.071,0.036-0.108c-0.024-0.023-0.036-0.053-0.036-0.089c0.012-0.047,0.023-0.083,0.036-0.107
			l-0.054-0.125c0.024-0.096,0.036-0.16,0.036-0.197c0-0.023-0.006-0.106-0.018-0.25c0.036-0.06,0.054-0.131,0.054-0.215
			c-0.048-0.071-0.072-0.137-0.072-0.196c0.024-0.036,0.036-0.061,0.036-0.071l-0.018-0.054c0.012-0.036,0.018-0.06,0.018-0.071
			l-0.054-0.036c0.047-0.119,0.071-0.203,0.071-0.251c-0.024-0.107-0.048-0.16-0.071-0.16c0.011-0.12,0.029-0.197,0.054-0.232
			l-0.018-0.144v-0.179c0-0.023,0.012-0.036,0.036-0.036l-0.107-0.305l0.018-0.196c0-0.035-0.012-0.071-0.036-0.107l0.036-0.036
			c-0.036-0.083-0.054-0.143-0.054-0.179c0.023,0,0.054-0.023,0.089-0.071c-0.024-0.036-0.048-0.161-0.072-0.376
			c0.036,0,0.054-0.018,0.054-0.054V34.3c0-0.036-0.006-0.065-0.018-0.089c0.012-0.037,0.018-0.072,0.018-0.108l-0.018-0.125
			l0.036-0.054c-0.024-0.023-0.03-0.054-0.018-0.089l0.036-0.071l-0.054-0.162c0-0.012,0.006-0.036,0.018-0.071
			c-0.012-0.155-0.024-0.251-0.036-0.286l0.018-0.036c-0.024-0.118-0.036-0.196-0.036-0.232v-0.018c0-0.024,0.006-0.036,0.018-0.036
			l-0.018-0.053c0.024-0.084,0.036-0.156,0.036-0.216c-0.036,0-0.054-0.017-0.054-0.054c0.036-0.106,0.054-0.166,0.054-0.179
			c-0.012-0.071-0.018-0.131-0.018-0.179h0.018l-0.018-0.053v-0.037c0-0.047,0.012-0.083,0.036-0.106
			c-0.036-0.06-0.054-0.107-0.054-0.144v-0.107l0.054-0.071c-0.024-0.048-0.036-0.083-0.036-0.107c0-0.19-0.012-0.376-0.036-0.554
			h0.018l-0.018-0.055c0-0.012,0.006-0.018,0.018-0.018l-0.018-0.054c0-0.036,0.012-0.102,0.036-0.197l-0.018-0.179l0.018-0.125
			c-0.024-0.227-0.042-0.483-0.053-0.77l0.035-0.054c-0.011-0.095-0.018-0.172-0.018-0.232v-0.018c0-0.06,0.012-0.138,0.036-0.232
			c-0.036-0.083-0.053-0.144-0.053-0.179c0.024-0.084,0.035-0.149,0.035-0.197s-0.018-0.113-0.054-0.196
			c0.024-0.036,0.036-0.072,0.036-0.107c-0.155-0.048-0.232-0.083-0.232-0.107c-0.012,0-0.137,0.048-0.376,0.143v-0.071h-0.054
			c-0.083,0.071-0.149,0.107-0.197,0.107c-0.119-0.048-0.191-0.071-0.214-0.071c-0.024,0-0.036,0.006-0.036,0.018l-0.125-0.018
			l-0.071-0.018c-0.06,0.071-0.155,0.106-0.286,0.106c0-0.035-0.012-0.054-0.036-0.054l-0.233,0.054l-0.161-0.018h-0.036
			c0,0.048-0.018,0.071-0.053,0.071l-0.036-0.054l-0.036,0.019h-0.036c-0.012,0-0.018-0.006-0.018-0.019
			c-0.06,0.036-0.131,0.048-0.214,0.036c0.012-0.023,0-0.042-0.036-0.054l-0.108,0.071h-0.053l-0.071-0.054h-0.019
			c0,0.071-0.322,0.096-0.965,0.071c-0.024-0.011-0.048-0.018-0.072-0.018c0,0.024-0.024,0.048-0.071,0.072l-0.072-0.055h-0.054
			l-0.072,0.055h-0.036c-0.012,0-0.018-0.013-0.018-0.036c-0.083,0.06-0.179,0.09-0.286,0.09V28.7
			c-0.061,0.036-0.108,0.048-0.144,0.036c0-0.023-0.018-0.036-0.054-0.036h-0.018c-0.012,0.048-0.042,0.071-0.09,0.071
			c-0.083-0.011-0.125-0.029-0.125-0.053l-0.304,0.053v-0.018l-0.036,0.018h-0.107c-0.06,0-0.137,0.006-0.232,0.019l-0.054-0.019
			l-0.143,0.019c-0.143-0.013-0.25-0.077-0.322-0.197v-0.035c0-0.024,0.012-0.036,0.036-0.036c-0.024-0.036-0.036-0.06-0.036-0.071
			l0.036-0.126l-0.054-0.018l-0.304-0.018c-0.036,0-0.066,0.006-0.09,0.018c-0.047-0.012-0.071-0.029-0.071-0.054l-0.053,0.036
			h-0.054l-0.071-0.054h-0.036c-0.036-0.012-0.066-0.006-0.09,0.018l-0.053-0.035c-0.012,0-0.019,0.012-0.019,0.035l-0.125-0.035
			l-0.125,0.018c0-0.012-0.012-0.018-0.036-0.018c0,0.035-0.018,0.054-0.054,0.054l-0.054-0.019l-0.125-0.018
			c0,0.036-0.012,0.054-0.036,0.054c-0.024,0-0.065-0.048-0.125-0.144l0.179-0.143h0.072c0-0.024,0.065-0.048,0.197-0.072
			c0.036,0.024,0.065,0.036,0.089,0.036c0-0.036,0.012-0.054,0.036-0.054h0.089l0.125,0.036l0.196-0.161l0.054,0.018
			c0.06-0.047,0.108-0.071,0.144-0.071l0.018-0.018c-0.238-0.024-0.382-0.036-0.429-0.036l-0.054,0.018
			c-0.298-0.048-0.447-0.096-0.447-0.144v-0.017l0.018-0.126c-0.06-0.035-0.089-0.077-0.089-0.125l0.071-0.125l0.018-0.036
			c-0.083,0-0.155-0.018-0.215-0.054c-0.012,0-0.018,0.006-0.018,0.019l-0.107-0.019c-0.012,0-0.06,0.006-0.143,0.019
			c-0.072-0.013-0.107-0.03-0.107-0.055l-0.125,0.019h-0.09c-0.333-0.06-0.5-0.148-0.5-0.269c-0.024,0-0.048-0.023-0.072-0.071
			v-0.107c0-0.06,0.036-0.132,0.107-0.215l-0.018-0.107c0.083-0.167,0.197-0.244,0.34-0.232c0-0.024,0.012-0.035,0.036-0.035
			l0.107,0.053c0-0.035,0.244-0.095,0.733-0.179c0-0.012,0.006-0.018,0.018-0.018h0.233l0.179-0.018v0.035l0.054-0.035h0.053
			l0.072,0.053c0-0.011,0.072-0.041,0.214-0.089l0.125,0.036c0.036-0.024,0.065-0.036,0.089-0.036
			c0.024,0.024,0.047,0.036,0.072,0.036c0-0.024,0.19-0.077,0.572-0.161c0-0.012,0.012-0.019,0.036-0.019h0.018l0.125,0.019
			c0-0.036,0.095-0.072,0.287-0.107h0.018l0.054,0.018c0-0.023,0.054-0.048,0.161-0.071v-0.018h0.072
			c0.011,0,0.018,0.012,0.018,0.035c0.107-0.023,0.208-0.06,0.304-0.107l0.054,0.036l0.054-0.019
			c0.06,0.036,0.107,0.055,0.143,0.055c0-0.036,0.054-0.061,0.162-0.072l0.143,0.018l0.107-0.071c0.012,0,0.019,0.013,0.019,0.036
			c0.023,0,0.036-0.012,0.036-0.036c0.012,0.013,0.035,0.024,0.071,0.036c0.214-0.012,0.357-0.036,0.429-0.071l0.143,0.035
			c0.107-0.023,0.256-0.042,0.448-0.054c0.036,0.012,0.065,0.019,0.089,0.019c0.203-0.06,0.418-0.096,0.644-0.107
			c0.024,0,0.036,0.012,0.036,0.036l0.465-0.036c0.036,0.012,0.065,0.018,0.089,0.018c0.096-0.023,0.167-0.054,0.215-0.09h0.107
			l0.072,0.054h0.036c0-0.071,0.101-0.106,0.304-0.106c0-0.024,0.005-0.036,0.018-0.036c0.036,0,0.161,0.023,0.375,0.071
			c0-0.023,0.024-0.048,0.072-0.071h0.232l0.143-0.018l0.054,0.018c0.072-0.024,0.125-0.036,0.161-0.036v0.019
			c0.06,0,0.19-0.054,0.394-0.161h0.035l0.251,0.089l0.107-0.375c0-0.024-0.006-0.036-0.018-0.036
			c0.012-0.262,0.047-0.417,0.107-0.465c-0.012-0.096-0.018-0.173-0.018-0.233v-0.053C121.676,23.739,121.742,23.691,121.825,23.691
			z M114.169,28.324c0.024,0,0.036,0.013,0.036,0.036l-0.054,0.036L114.169,28.324z M116.298,26.518
			c0,0.036,0.018,0.054,0.054,0.054l0.018-0.054H116.298z M116.405,26.554l0.071,0.054h0.018l0.036-0.107h-0.072
			C116.423,26.5,116.405,26.518,116.405,26.554z M116.87,26.482v0.054l0.179,0.035c0.465,0,0.698-0.018,0.698-0.054
			c-0.012-0.035-0.018-0.059-0.018-0.071l-0.054,0.018h-0.089c-0.06,0-0.102-0.012-0.125-0.036c-0.131,0.013-0.214,0.031-0.25,0.055
			c-0.06-0.036-0.114-0.06-0.161-0.071C117.001,26.47,116.942,26.494,116.87,26.482z M117.783,26.482v0.054h0.071l0.125-0.019
			v-0.054h-0.018L117.783,26.482z M118.23,26.446v0.036c0.012,0.035,0.029,0.054,0.054,0.054l0.018-0.054l0.018-0.107
			C118.295,26.375,118.266,26.398,118.23,26.446z M118.945,26.482c0.096-0.023,0.144-0.048,0.144-0.071v-0.055
			C118.993,26.369,118.945,26.411,118.945,26.482z M119.142,26.464v0.019h0.054c0.143-0.013,0.215-0.036,0.215-0.071h-0.162
			C119.202,26.446,119.166,26.464,119.142,26.464z M119.625,26.339v0.036c0.012,0,0.036,0.006,0.071,0.018v-0.054H119.625z
			 M119.75,26.393l-0.035,0.054h0.125v-0.019L119.75,26.393z M120.501,26.304c0,0.047-0.018,0.071-0.054,0.071
			c-0.06-0.036-0.107-0.054-0.143-0.054h-0.036c-0.25-0.013-0.376,0.024-0.376,0.106v0.019c0.047,0.013,0.072,0.023,0.072,0.036
			c0.382-0.036,0.578-0.09,0.59-0.161L120.501,26.304z M121.092,28.378c0,0.048-0.06,0.084-0.179,0.107
			c0.012,0.524,0.018,0.835,0.018,0.931c0.036,0.012,0.054,0.03,0.054,0.054l-0.054,0.107c0.023,0.202,0.036,0.375,0.036,0.519
			v0.089c0,0.036,0.006,0.066,0.018,0.09c-0.024,0.036-0.036,0.071-0.036,0.107s0.012,0.065,0.036,0.09l-0.036,0.16v0.09
			l0.018,0.125c0.024,0.013,0.06-0.035,0.107-0.143v-0.018l-0.054-0.072c0.012-0.083,0.03-0.125,0.054-0.125
			c-0.012-0.096-0.042-0.196-0.089-0.305c0.036-0.202,0.06-0.345,0.071-0.429l-0.035-0.054c0-0.012,0.012-0.018,0.035-0.018
			c0-0.024-0.011-0.054-0.035-0.09c0.024-0.19,0.047-0.286,0.071-0.286c-0.024-0.036-0.03-0.065-0.018-0.09
			c0.036-0.226,0.053-0.375,0.053-0.447c-0.012-0.047-0.029-0.071-0.053-0.071c0.048-0.154,0.071-0.257,0.071-0.304L121.092,28.378z
			 M122.112,48.7c0,0.144-0.012,0.244-0.036,0.304c0.036,0.097,0.072,0.144,0.107,0.144h0.018c0-0.013,0.012-0.036,0.036-0.071
			c-0.024-0.024-0.036-0.061-0.036-0.107c0-0.012,0.012-0.019,0.036-0.019l-0.018-0.054c0-0.012,0.006-0.018,0.018-0.018
			C122.213,48.771,122.171,48.712,122.112,48.7z M130.77,24.586h0.054c0.036,0.012,0.054,0.029,0.054,0.054l-0.054,0.036h-0.054
			V24.586z"/>
	</g>
	<g>
		<path fill="#FFFFFF" d="M47.384,57.235h-3.815v3.529h4.411v0.59h-5.112v-8.506h5.083v0.596h-4.382v3.196h3.815V57.235z"/>
		<path fill="#FFFFFF" d="M49.224,61.354v-8.506h2.594c1.041,0,1.9,0.346,2.58,1.039s1.02,1.584,1.02,2.671v1.093
			c0,1.086-0.34,1.975-1.02,2.667c-0.68,0.69-1.539,1.036-2.58,1.036H49.224z M49.925,53.444v7.32h1.893
			c0.841,0,1.535-0.294,2.08-0.882c0.545-0.589,0.818-1.333,0.818-2.231v-1.11c0-0.889-0.274-1.626-0.821-2.215
			c-0.547-0.588-1.239-0.882-2.077-0.882H49.925z"/>
		<path fill="#FFFFFF" d="M57.918,61.354h-0.701v-8.506h0.701V61.354z"/>
		<path fill="#FFFFFF" d="M65.648,53.444H62.75v7.91h-0.695v-7.91h-2.998v-0.596h6.591V53.444z"/>
		<path fill="#FFFFFF" d="M72.852,57.797c0,1.098-0.301,1.986-0.903,2.664c-0.601,0.678-1.409,1.017-2.421,1.017
			c-0.997,0-1.793-0.339-2.387-1.017c-0.594-0.678-0.891-1.566-0.891-2.664v-1.385c0-1.095,0.296-1.982,0.888-2.664
			s1.387-1.022,2.384-1.022c1.012,0,1.82,0.341,2.424,1.022s0.906,1.569,0.906,2.664V57.797z M72.156,56.4
			c0-0.919-0.232-1.659-0.697-2.22c-0.466-0.562-1.112-0.842-1.937-0.842c-0.811,0-1.441,0.28-1.893,0.842
			c-0.452,0.561-0.678,1.301-0.678,2.22v1.396c0,0.927,0.227,1.671,0.681,2.231c0.454,0.562,1.086,0.842,1.896,0.842
			c0.829,0,1.475-0.279,1.936-0.839c0.461-0.559,0.692-1.304,0.692-2.234V56.4z"/>
		<path fill="#FFFFFF" d="M75.107,57.511v3.844h-0.702v-8.501h2.834c0.911,0,1.61,0.2,2.097,0.6s0.73,0.982,0.73,1.749
			c0,0.452-0.129,0.856-0.389,1.213c-0.259,0.356-0.626,0.616-1.101,0.78c0.525,0.132,0.905,0.369,1.136,0.709
			c0.231,0.341,0.348,0.769,0.348,1.283v0.8c0,0.266,0.031,0.503,0.093,0.713c0.063,0.21,0.166,0.382,0.31,0.515v0.14h-0.713
			c-0.144-0.14-0.246-0.336-0.304-0.59c-0.059-0.253-0.088-0.516-0.088-0.788v-0.777c0-0.522-0.168-0.934-0.505-1.235
			c-0.337-0.303-0.807-0.453-1.411-0.453H75.107z M75.107,56.915h2.05c0.768,0,1.328-0.155,1.683-0.465s0.532-0.728,0.532-1.253
			c0-0.562-0.177-0.992-0.528-1.295c-0.353-0.302-0.888-0.452-1.604-0.452h-2.132V56.915z"/>
		<path fill="#FFFFFF" d="M86.441,58.983h-3.733l-0.859,2.371h-0.724l3.125-8.506h0.66l3.102,8.506h-0.724L86.441,58.983z
			 M82.931,58.358h3.283l-1.613-4.511h-0.035L82.931,58.358z"/>
	</g>
	<path fill="#FFFFFF" d="M2.452,18.163c0,0,16.279-11.841,33.427-11.305c17.15,0.538,27.845,10.336,29.698,11.473
		c0.716,0.479,0.716,0.479,0.716,0.479s15.894-16.373,38-10.995c15.773,3.705,25.966,11.785,26.307,12.047
		c0.786,0.678,1.604-0.335,1.064-1.186c-1.231-2.07-24.26-17.313-45.533-13.549c0,0,17.266-9.084,38.958,5.794
		c0.806,0.55,1.647-0.263,1.134-0.835c-0.218-0.438-13.326-10.877-29.755-10.038C77.887,0.824,64.981,15.999,64.981,15.999
		s-24.755-26.511-64.073-0.34C-1.168,16.849,0.732,19.186,2.452,18.163z"/>
</g>
</svg>
