<?xml version="1.0" encoding="UTF-8"?>
<svg id="Camada_1" data-name="Camada 1" xmlns="http://www.w3.org/2000/svg" viewBox="0 0 175.78 127.55">
  <defs>
    <style>
      .cls-1 {
        fill: #b47657;
        stroke-width: 0px;
      }
    </style>
  </defs>
  <g id="Interpola_o_1_0_Layer0_0_FILL" data-name="Interpola  o 1 0 Layer0 0 FILL">
    <path class="cls-1" d="m127.67,10.08c-1.09-2.94-2.13-5.03-3.13-6.27-1.09-1.24-2.1-2.1-3.05-2.6-.94-.41-1.96-.44-3.05-.09-.97.32-1.46.93-1.46,1.81.12.91.87,2.91,2.25,6,1.47,3.15,1.9,7.27,1.28,12.36.79,2.06.43,4.77-1.1,8.12-.79,2.03-1.78,4.69-2.96,7.99L0,115.54l8.03,12.01L124.27,49.59l-.04-.09.88-.49-.84.57c5.71,1.62,12.1,2.56,19.16,2.83,14.19.29,21.65.49,22.38.57l3.66-2.52c-.62-.94-1.85-1.99-3.71-3.13-1.94-1.18-3.68-1.91-5.21-2.21-2.18-.03-3.99-.16-5.43-.4-2.68-.35-4.25-1.28-4.72-2.78l2.3-1.55c1.38-.32,4.96-.97,10.73-1.94,5.42-.94,8.64-1.75,9.67-2.43,1.06-.71,1.96-1.97,2.69-3.8-2.41-1.56-6.96-2.03-13.64-1.41-6.68.88-10.59,1.25-11.74,1.1l-.88-1.37,2.69-1.77c.77.15,2.4-.24,4.9-1.15,2.41-.82,4.4-1.6,5.96-2.34,1.59-.74,4.02-2.15,7.28-4.24,3.35-1.94,3.74-3.69,1.15-5.25l-.31-.44c-3.09.26-6.89,1.21-11.39,2.83-6.65,2.41-10.2,3.72-10.64,3.93l-1.24-1.77c2.03-3.15,4.34-6.33,6.93-9.54,2.59-3.15,4.44-5.65,5.56-7.5l-2.21-3.22c-1.5-.74-5.56,2.43-12.18,9.49-1.94,1.97-3.16,3.37-3.66,4.19-.41.91-2.47,3-6.18,6.27-3.74,3.24-5.8,3.12-6.18-.35-.35-3.41-1.13-6.62-2.34-9.62Z"/>
  </g>
</svg>