<?xml version="1.0" encoding="UTF-8"?>
<svg id="Camada_1" data-name="Camada 1" xmlns="http://www.w3.org/2000/svg" viewBox="0 0 195.85 439.26">
  <defs>
    <style>
      .cls-1 {
        fill: #b47657;
      }

      .cls-1, .cls-2, .cls-3, .cls-4, .cls-5, .cls-6, .cls-7, .cls-8, .cls-9, .cls-10, .cls-11, .cls-12, .cls-13, .cls-14, .cls-15 {
        stroke-width: 0px;
      }

      .cls-2 {
        fill: #036;
      }

      .cls-4 {
        fill: #003;
      }

      .cls-5 {
        fill: #333;
      }

      .cls-6 {
        fill: #c49881;
      }

      .cls-7 {
        fill: #ccc;
      }

      .cls-8 {
        fill: #00152c;
      }

      .cls-9 {
        fill: #fff;
      }

      .cls-10 {
        fill: #77a0c9;
      }

      .cls-11 {
        fill: #00274f;
      }

      .cls-12 {
        fill: #580000;
      }

      .cls-13 {
        fill: #c00;
      }

      .cls-14 {
        fill: #80543e;
      }

      .cls-15 {
        fill: #9cf;
      }
    </style>
  </defs>
  <g id="Layer0_1_MEMBER_0_MEMBER_0_MEMBER_0_FILL" data-name="Layer0 1 MEMBER 0 MEMBER 0 MEMBER 0 FILL">
    <path class="cls-6" d="m130.55,278.15c-.25.34-.53.77-.84,1.3l1.72-1.01-.88-.29Z"/>
    <path class="cls-14" d="m140.07,289.77c1.59-.28,3.1-.6,4.53-.96.22-.06.45-.11.67-.17.78-.28,1.52-.98,2.22-2.1-4.86.92-9.75.75-14.67-.5-2.93-.73-5.9-1.84-8.89-3.35-4-2.01-8.06-4.71-12.2-8.09-.14,1.87.38,3.73,1.55,5.58,2.15,3.38,5.37,5.78,9.64,7.21,1.37.45,2.85.8,4.44,1.05,6.65,1.17,10.89,1.62,12.7,1.34m-4.36-18.07c-.31.28-.61.59-.92.92-1.26,1.48-2.67,3.33-4.23,5.53l.88.29,10.31,3.02,5.53-7.67c-.25-.14-.49-.29-.71-.46-.61-.39-1.2-.73-1.76-1.01-.36-.2-.73-.36-1.09-.5-1.48-.81-2.65-1.17-3.52-1.09-1.4.08-2.22-.18-2.47-.8-.61.45-1.29,1.03-2.01,1.76m-17.9-89.04c.48,1.45,1.3,3.06,2.47,4.82,24.34,11.68,36.95,23.71,37.81,36.09.56-15.71-12.87-29.34-40.28-40.91Z"/>
    <path class="cls-1" d="m116.01,266.92c-2.63,2.57-4.05,5.13-4.28,7.67,4.14,3.38,8.2,6.08,12.2,8.09,2.99,1.51,5.95,2.63,8.89,3.35,4.92,1.26,9.81,1.43,14.67.5.64-1.09,1.23-2.59,1.76-4.49.75-2.65.6-4.83-.46-6.54-.39-.61-.89-1.19-1.51-1.72l-5.53,7.67-10.31-3.02-1.72,1.01c.31-.53.59-.96.84-1.3,1.57-2.21,2.98-4.05,4.23-5.53.31-.34.61-.64.92-.92.73-.73,1.4-1.31,2.01-1.76,7.71-5.25,14.09-10.48,19.12-15.68,27.05-27.75,15.96-54.55-33.28-80.4-4.92,1.9-6.83,4.83-5.74,8.8,27.42,11.57,40.84,25.21,40.28,40.91.67,8.97-4.9,18.15-16.73,27.54-.56.45-1.15.89-1.76,1.34-6.29,4.75-14.15,9.57-23.6,14.46Z"/>
  </g>
  <g id="Layer0_1_MEMBER_0_MEMBER_0_MEMBER_2_FILL" data-name="Layer0 1 MEMBER 0 MEMBER 0 MEMBER 2 FILL">
    <path class="cls-10" d="m65.41,198.47l-1.3,10.23,3.56-13.41-22.89-.71,1.47,6.92,19.16-3.02m46.24-4.7l6.08,14.09-1.47-9.39,17.23,3.9,2.1-7.13-23.94-1.47Z"/>
    <path class="cls-15" d="m111.6,167.15l-41.46-.8-28.88,10.65,3.52,17.56,22.89.71-3.56,13.41-9.05,67.36c41.03,2.29,64.84,1.4,71.43-2.68l-8.76-65.52-6.08-14.09,23.94,1.47,4.95-17.15-28.92-10.94Z"/>
  </g>
  <g id="Layer0_1_MEMBER_0_MEMBER_1_FILL" data-name="Layer0 1 MEMBER 0 MEMBER 1 FILL">
    <path class="cls-8" d="m58.12,274.18c-.31,1.82-.61,3.66-.92,5.53-4.95,31.36-6.55,62.24-4.82,92.64.08,1.01.17,2.01.25,3.02.31,4.95,1.29,12.03,2.93,21.25v.08c1.82.75,3.63,1.08,5.45.96,2.04-.08,4.05-.71,6.04-1.89.08-.03.18-.06.29-.08-.75-10.73-1.23-17.87-1.43-21.42-.06-.67-.1-1.31-.13-1.93-1.31-24.7,1.13-50.35,7.34-76.92l35.8-1.76,3.65,34.54h14.34l-2.93-48.42v-6.83l-65.86,1.22Z"/>
  </g>
  <g id="Layer0_1_MEMBER_0_MEMBER_1_MEMBER_0_FILL" data-name="Layer0 1 MEMBER 0 MEMBER 1 MEMBER 0 FILL">
    <path class="cls-7" d="m52.13,413.94c.22.08.43.13.63.13.31.06.8.42,1.47,1.09.08.11.39.48.92,1.09.2.2.39.38.59.54.28.22.53.34.75.34.39,0,.59-.22.59-.67-.06-.42-.15-.71-.29-.88-.11-.28-.25-.42-.42-.42-.36,0-.81-.2-1.34-.59-.67-.56-1.15-.92-1.43-1.09-.31-.14-.6-.27-.88-.38-.95-.36-1.65-.6-2.1-.71-.08,0-.18-.03-.29-.08-.67-.06-1.01.18-1.01.71,0,.14.03.22.08.25,0,.08.03.15.08.21.11.06.27.11.46.17.81.11,1.54.21,2.18.29m7.08-2.47c.17,0,.32-.04.46-.13.08-.17.13-.32.13-.46,0-.2-.04-.35-.13-.46-.39-.73-1.68-1.24-3.86-1.55-.28-.08-.59-.13-.92-.13-.67-.08-1.29-.08-1.84,0-.25,0-.48.04-.67.13-.36.08-.54.21-.54.38,0,.08.06.18.17.29h.04c.06.06.17.14.34.25.78-.08,1.47-.13,2.05-.13,1.37,0,2.38.25,3.02.75.25.14.52.36.8.67.25.25.57.38.96.38m-14.46,9.43c.42.28.8.54,1.13.8,1.31.81,2.03,1.22,2.14,1.22.53,0,.8-.2.8-.59,0-.34-.73-.89-2.18-1.68-.36-.25-.78-.49-1.26-.71-.87-.42-1.59-.68-2.18-.8-.84-.28-1.26-.21-1.26.21,0-.06.2.01.59.21.39.2.96.56,1.72,1.09.17.08.34.17.5.25m-4.36,1.09c-.5-.28-.95-.5-1.34-.67-1.76-.84-2.64-.74-2.64.29,0,.08.28.24.84.46.2.08.46.17.8.25.67.22,1.29.46,1.84.71.34.17.61.34.84.5,0,.03.07.08.21.17.25.2.68.59,1.3,1.17.64.64,1.08,1.03,1.3,1.17l.08.04c.36,0,.56-.14.59-.42.03-.11.04-.21.04-.29,0-.31-.39-.8-1.17-1.47-.17-.2-.38-.36-.63-.5-.45-.34-.89-.66-1.34-.96-.25-.14-.49-.29-.71-.46m6.25-5.37h-.08c-.75.06-1.13.25-1.13.59,0,.03.06.11.17.25.06.08.18.17.38.25.67.06,1.36.18,2.05.38.48.11.91.29,1.3.54.39.11.77.28,1.13.5.84.42,1.45.73,1.84.92l.38.25c.45,0,.67-.13.67-.38.06-.08.08-.14.08-.17,0-.2-.03-.36-.08-.5-.11-.31-.28-.56-.5-.75-.48-.5-1.23-.92-2.26-1.26-.36-.08-.75-.2-1.17-.34-1.06-.25-1.98-.35-2.77-.29m6.41-11.19s.07.06.13.08c.08.03.17.08.25.17.08,0,.14,0,.17,0,1.01-.08,1.9-.11,2.68-.08,1.48,0,2.47.17,2.98.5.14.11.32.28.54.5.14.22.35.34.63.34.2,0,.35-.07.46-.21.08-.11.13-.27.13-.46v-.13c-.08-.17-.34-.36-.75-.59-.39-.14-1.33-.48-2.81-1.01h-4.02c-.17.06-.32.18-.46.38-.06.08-.08.15-.08.21,0,.11.06.21.17.29m1.84-3.61c.08.03.21.04.38.04.08,0,.18-.01.29-.04.2-.08.45-.2.75-.34.42-.14.88-.22,1.38-.25.45,0,.89.03,1.34.08.11.11.38.28.8.5.03,0,.08.01.17.04.48.2.82.29,1.05.29.14,0,.25,0,.34,0,.28-.06.46-.17.54-.34.03-.11.04-.2.04-.25,0-.34-.21-.57-.63-.71h-.04c-.78-.17-1.37-.41-1.76-.71-.78,0-1.47.04-2.05.13-1.12.06-1.87.13-2.26.21-.22.08-.36.2-.42.34-.08.08-.13.22-.13.42v.34c.03.08.1.17.21.25Z"/>
    <path class="cls-11" d="m59.21,411.47c-.39,0-.71-.13-.96-.38-.28-.31-.54-.53-.8-.67-.64-.5-1.65-.75-3.02-.75-.59,0-1.27.04-2.05.13-.17-.11-.28-.2-.34-.25-.5.98-1.08,1.9-1.72,2.77.11.06.21.08.29.08.45.11,1.15.35,2.1.71.28.11.57.24.88.38.28.17.75.53,1.43,1.09.53.39.98.59,1.34.59.17,0,.31.14.42.42.92-1.4,1.73-2.77,2.43-4.11m-21.97,10.61c-1.54.59-3.2,1.09-4.99,1.51l5.45,5.2c2.01-.84,3.95-1.75,5.83-2.72-.22-.14-.66-.53-1.3-1.17-.61-.59-1.05-.98-1.3-1.17-.14-.08-.21-.14-.21-.17-.22-.17-.5-.34-.84-.5-.56-.25-1.17-.49-1.84-.71-.34-.08-.6-.17-.8-.25m1.8-.75c.39.17.84.39,1.34.67.22.17.46.32.71.46.45.31.89.63,1.34.96.25.14.46.31.63.5.78.67,1.17,1.16,1.17,1.47,0,.08-.01.18-.04.29,3.02-1.62,5.72-3.49,8.09-5.62-.39-.2-1.01-.5-1.84-.92-.36-.22-.74-.39-1.13-.5-.39-.25-.82-.43-1.3-.54-.7-.2-1.38-.32-2.05-.38-.2-.08-.32-.17-.38-.25-.75.56-1.55,1.12-2.39,1.68.59.11,1.31.38,2.18.8.48.22.89.46,1.26.71,1.45.78,2.18,1.34,2.18,1.68,0,.39-.27.59-.8.59-.11,0-.82-.41-2.14-1.22-.34-.25-.71-.52-1.13-.8-.17-.08-.34-.17-.5-.25-.75-.53-1.33-.89-1.72-1.09-1.09.64-2.25,1.23-3.48,1.76m7.5-4.69h.08c.78-.06,1.7.04,2.77.29.42.14.81.25,1.17.34,1.03.34,1.79.75,2.26,1.26.22.2.39.45.5.75.84-.81,1.63-1.63,2.39-2.47-.2-.17-.39-.35-.59-.54-.53-.61-.84-.98-.92-1.09-.67-.67-1.16-1.03-1.47-1.09-.2,0-.41-.04-.63-.13-.64-.08-1.37-.18-2.18-.29-.2-.06-.35-.11-.46-.17-.87,1.12-1.84,2.17-2.93,3.14m9.73-11.02c-.78-.03-1.68,0-2.68.08-.36,1.12-.77,2.18-1.22,3.19.2-.08.42-.13.67-.13.56-.08,1.17-.08,1.84,0,.34,0,.64.04.92.13,2.18.31,3.47.82,3.86,1.55.53-1.23.94-2.46,1.22-3.69-.11.14-.27.21-.46.21-.28,0-.49-.11-.63-.34-.22-.22-.41-.39-.54-.5-.5-.34-1.5-.5-2.98-.5m-1.47-4.78c.06-.14.2-.25.42-.34.39-.08,1.15-.15,2.26-.21.59-.08,1.27-.13,2.05-.13.39.31.98.54,1.76.71h.04c-.08-1.06-.24-2.12-.46-3.19-1.84.08-3.67-.25-5.49-1.01l-.17.04c-.08,1.29-.21,2.52-.38,3.69,0,.17-.01.31-.04.42m.46,1.05c-.17,0-.29-.01-.38-.04-.11-.08-.18-.17-.21-.25v-.34c-.06.2-.08.39-.08.59-.2.92-.42,1.83-.67,2.72h3.52c1.48.53,2.42.87,2.81,1.01.42.22.67.42.75.59.28-1.31.41-2.64.38-3.98-.08,0-.2,0-.34,0-.22,0-.57-.1-1.05-.29-.08-.03-.14-.04-.17-.04-.42-.22-.68-.39-.8-.5-.45-.06-.89-.08-1.34-.08-.5.03-.96.11-1.38.25-.31.14-.56.25-.75.34-.11.03-.21.04-.29.04Z"/>
    <path class="cls-2" d="m67.22,396.63l-.38-.84c-1.98,1.17-3.97,1.8-5.95,1.89.22,1.06.38,2.12.46,3.19.42.14.63.38.63.71,0,.06-.01.14-.04.25-.08.17-.27.28-.54.34.03,1.34-.1,2.67-.38,3.98v.13c0,.2-.04.35-.13.46-.28,1.23-.68,2.46-1.22,3.69.08.11.13.27.13.46,0,.14-.04.29-.13.46-.14.08-.29.13-.46.13-.7,1.34-1.51,2.71-2.43,4.11.14.17.24.46.29.88,0,.45-.2.67-.59.67-.22,0-.48-.11-.75-.34-.75.84-1.55,1.66-2.39,2.47.06.14.08.31.08.5,0,.03-.03.08-.08.17,0,.25-.22.38-.67.38l-.38-.25c-2.38,2.12-5.07,4-8.09,5.62-.03.28-.22.42-.59.42l-.08-.04c-1.87.98-3.81,1.89-5.83,2.72l4.15,4.02h.13c1.51.36,10.45-2.57,26.83-8.8,1.15-.45,2.32-.89,3.52-1.34h.13l-5.24-26.03Z"/>
    <path class="cls-9" d="m72.46,423l-3.65,1.01c-16.38,6.23-25.32,9.17-26.83,8.8l.92.96c-1.2-.73-1.55-1.05-1.05-.96l-4.15-4.02-5.45-5.2-10.19,3.35c-1.76,2.79-2.24,5.34-1.43,7.63.22,0,.43.01.63.04-1.31,1.23-1.43,2.67-.34,4.32,19.9,1.48,37.43-2.17,52.61-10.94l-1.09-4.99Z"/>
  </g>
  <g id="Layer0_1_MEMBER_0_MEMBER_1_MEMBER_1_FILL" data-name="Layer0 1 MEMBER 0 MEMBER 1 MEMBER 1 FILL">
    <path class="cls-8" d="m126.91,328.22h-14.34l4.32,41.54,2.93,23.52c3.16,2.85,6.79,2.49,10.9-1.09l-3.81-63.97Z"/>
  </g>
  <g id="Layer0_1_MEMBER_0_MEMBER_1_MEMBER_1_MEMBER_0_FILL" data-name="Layer0 1 MEMBER 0 MEMBER 1 MEMBER 1 MEMBER 0 FILL">
    <path class="cls-11" d="m132.87,401.07c-1.01,0-1.89.01-2.64.04-1.51.08-2.5.28-2.98.59-.14.11-.31.32-.5.63-.11.14-.32.24-.63.29-.2,0-.36-.06-.5-.17.34,1.2.81,2.38,1.43,3.52.34-.7,1.59-1.24,3.77-1.63.31-.06.61-.11.92-.17.64-.08,1.24-.13,1.8-.13.31.03.54.07.71.13-.5-1.03-.96-2.07-1.38-3.1m-7.63-3.19h-.34c.06,1.31.25,2.64.59,3.98.08-.2.35-.41.8-.63.31-.2,1.23-.57,2.77-1.13l3.44-.17c-.31-.87-.57-1.79-.8-2.77-.06-.14-.1-.31-.13-.5v.29c-.03.11-.06.21-.08.29-.14.03-.31.06-.5.08l-.29-.04c-.14-.11-.38-.22-.71-.34-.42-.11-.89-.17-1.43-.17-.42,0-.84.06-1.26.17-.17.08-.45.24-.84.46h-.08c-.5.31-.88.46-1.13.46m1.47-2.14c.81,0,1.51.01,2.1.04,1.12,0,1.84.04,2.18.13.25.08.43.2.54.34-.03-.11-.07-.25-.13-.42-.25-1.17-.42-2.39-.5-3.65l-.21-.04c-1.79.84-3.59,1.26-5.41,1.26-.25,1.03-.38,2.11-.38,3.23h.08c.73-.25,1.3-.54,1.72-.88m13.54,15.89h.13c-1.12-.89-2.15-1.9-3.1-3.02-.08.08-.22.17-.42.25-.81.14-1.54.28-2.18.42-.17.03-.36.08-.59.17-.31.06-.77.42-1.38,1.09-.11.14-.42.53-.92,1.17-.17.22-.34.39-.5.5.78.84,1.61,1.61,2.47,2.31.08-.25.24-.49.46-.71.48-.48,1.22-.91,2.22-1.3.34-.17.7-.31,1.09-.42h.08c1.03-.31,1.91-.46,2.64-.46m9.64,5.07c-.2.08-.42.18-.67.29-.73.28-1.34.54-1.84.8-.36.2-.64.38-.84.54-.03.03-.1.08-.21.17l-1.26,1.26c-.61.67-1.03,1.08-1.26,1.22,1.9.89,3.9,1.7,5.99,2.43l5.16-5.37c-1.79-.36-3.48-.81-5.07-1.34m-5.32-2.26c-.36.2-.95.57-1.76,1.13-.14.08-.29.21-.46.38-.39.25-.74.5-1.05.75-1.29.89-2,1.34-2.14,1.34-.53.03-.8-.17-.8-.59,0-.36.71-.96,2.14-1.8.39-.22.8-.45,1.22-.67.87-.45,1.55-.75,2.05-.92-.78-.56-1.57-1.1-2.35-1.63v.08c-.08.06-.21.14-.38.25-.7.06-1.38.21-2.05.46-.42.17-.87.35-1.34.54-.34.2-.68.39-1.05.59-.84.5-1.43.87-1.76,1.09,2.46,1.93,5.23,3.66,8.3,5.2-.06-.11-.08-.22-.08-.34,0-.25.39-.75,1.17-1.51.17-.17.35-.32.54-.46.42-.39.88-.75,1.38-1.09.22-.17.45-.32.67-.46.48-.28.91-.52,1.3-.71-1.26-.5-2.45-1.05-3.56-1.63m-9.93-9.52c-.06,0-.18.07-.38.21-.73-.06-1.41-.06-2.05,0-1.37.11-2.36.39-2.98.84-.2.14-.43.39-.71.75-.25.25-.57.38-.96.38.7,1.29,1.55,2.6,2.56,3.94.14-.2.27-.31.38-.34.39,0,.85-.24,1.38-.71.64-.61,1.1-.99,1.38-1.13.28-.17.56-.31.84-.42.92-.42,1.59-.68,2.01-.8.08-.06.2-.08.34-.08-.64-.87-1.24-1.75-1.8-2.64Z"/>
    <path class="cls-7" d="m133.28,400.86l.13-.04c.08-.11.13-.22.13-.34,0-.06-.03-.13-.08-.21-.14-.17-.31-.28-.5-.34h-.46l-3.44.17c-1.54.56-2.46.94-2.77,1.13-.45.22-.71.43-.8.63v.13c0,.22.04.38.13.46.14.11.31.17.5.17.31-.06.52-.15.63-.29.2-.31.36-.52.5-.63.48-.31,1.47-.5,2.98-.59.75-.03,1.63-.04,2.64-.04.06,0,.11,0,.17,0,.08-.08.17-.15.25-.21m-4.49-5.07c-.59-.03-1.29-.04-2.1-.04-.42.34-.99.63-1.72.88h-.08c-.36.08-.54.31-.54.67v.25c.11.17.29.28.54.34h.34c.25,0,.63-.15,1.13-.46h.08c.39-.22.67-.38.84-.46.42-.11.84-.17,1.26-.17.53,0,1.01.06,1.43.17.34.11.57.22.71.34l.29.04c.2-.03.36-.06.5-.08.03-.08.06-.18.08-.29v-.34c0-.17-.01-.29-.04-.38-.11-.14-.29-.25-.54-.34-.34-.08-1.06-.13-2.18-.13m8.47,12.83c.08-.03.13-.07.13-.13v-.29c0-.5-.32-.71-.96-.63-.14,0-.25.03-.34.08-.42.11-1.09.38-2.01.8-.28.11-.56.25-.84.42-.28.14-.74.52-1.38,1.13-.53.48-.99.71-1.38.71-.11.03-.24.14-.38.34-.08.2-.15.49-.21.88,0,.45.2.67.59.67.22,0,.49-.13.8-.38.17-.11.34-.28.5-.5.5-.64.81-1.03.92-1.17.61-.67,1.08-1.03,1.38-1.09.22-.08.42-.14.59-.17.64-.14,1.37-.28,2.18-.42.2-.08.34-.17.42-.25m4.28,3.56c0-.34-.39-.52-1.17-.54h-.13c-.73,0-1.61.15-2.64.46h-.08c-.39.11-.75.25-1.09.42-1.01.39-1.75.82-2.22,1.3-.22.22-.38.46-.46.71-.06.2-.08.41-.08.63.03,0,.04.04.04.13.08.25.32.38.71.38l.42-.21c.34-.22.92-.59,1.76-1.09.36-.2.71-.39,1.05-.59.48-.2.92-.38,1.34-.54.67-.25,1.36-.41,2.05-.46.17-.11.29-.2.38-.25v-.08c.08-.08.13-.17.13-.25m6.58,3.9c-.39.2-.82.43-1.3.71-.22.14-.45.29-.67.46-.5.34-.96.7-1.38,1.09-.2.14-.38.29-.54.46-.78.75-1.17,1.26-1.17,1.51,0,.11.03.22.08.34.08.28.29.42.63.42l.04-.08c.22-.14.64-.54,1.26-1.22l1.26-1.26c.11-.08.18-.14.21-.17.2-.17.48-.35.84-.54.5-.25,1.12-.52,1.84-.8.25-.11.48-.21.67-.29.56-.25.84-.41.84-.46-.03-1.03-.89-1.09-2.6-.17m-3.56-1.63c.39-.22.6-.29.63-.21-.03-.45-.5-.5-1.43-.17-.5.17-1.19.48-2.05.92-.42.22-.82.45-1.22.67-1.43.84-2.14,1.44-2.14,1.8,0,.42.27.61.8.59.14,0,.85-.45,2.14-1.34.31-.25.66-.5,1.05-.75.17-.17.32-.29.46-.38.81-.56,1.4-.94,1.76-1.13m-10.31-9.31c.2-.14.32-.21.38-.21,0-.03.01-.04.04-.04.08-.11.13-.22.13-.34,0-.17-.18-.29-.54-.38-.17-.06-.41-.1-.71-.13-.56,0-1.16.04-1.8.13-.31.06-.61.11-.92.17-2.18.39-3.44.94-3.77,1.63-.08.2-.13.38-.13.54s.04.31.13.42c.17.11.34.17.5.17.39,0,.71-.13.96-.38.28-.36.52-.61.71-.75.61-.45,1.61-.73,2.98-.84.64-.06,1.33-.06,2.05,0Z"/>
    <path class="cls-9" d="m149.8,423.42l-4.02,4.19c.48-.11.14.25-1.01,1.09l.96-1.09c-1.57.45-10.63-2.07-27.21-7.55l-3.73-.8-.88,4.95c15.57,8.1,33.24,10.97,53.03,8.59,1.01-1.65.82-3.07-.54-4.28.22,0,.43-.03.63-.08.73-2.32.15-4.83-1.72-7.55l-10.35-2.85-5.16,5.37Z"/>
    <path class="cls-2" d="m134.84,415.45l-.42.21c-.39,0-.63-.13-.71-.38,0-.08-.01-.13-.04-.13,0-.22.03-.43.08-.63-.87-.7-1.69-1.47-2.47-2.31-.31.25-.57.38-.8.38-.39,0-.59-.22-.59-.67.06-.39.13-.68.21-.88-1.01-1.34-1.86-2.65-2.56-3.94-.17,0-.34-.06-.5-.17-.08-.11-.13-.25-.13-.42s.04-.35.13-.54c-.61-1.15-1.09-2.32-1.43-3.52-.08-.08-.13-.24-.13-.46v-.13c-.34-1.34-.53-2.67-.59-3.98-.25-.06-.43-.17-.54-.34v-.25c0-.36.18-.59.54-.67,0-1.12.13-2.19.38-3.23-2.01-.06-4.04-.6-6.08-1.63l-.34.8-4.11,26.24s.06.03.08.08c1.23.39,2.46.78,3.69,1.17,16.57,5.48,25.64,7.99,27.21,7.55h.04l4.02-4.19c-2.1-.73-4.09-1.54-5.99-2.43l-.04.08c-.34,0-.54-.14-.63-.42-3.07-1.54-5.84-3.27-8.3-5.2Z"/>
  </g>
  <g id="Layer0_1_MEMBER_0_MEMBER_2_FILL" data-name="Layer0 1 MEMBER 0 MEMBER 2 FILL">
    <path class="cls-10" d="m89.02,164.19c-3.69,0-6.83.78-9.43,2.35-2.57,1.59-3.86,3.51-3.86,5.74s1.29,4.09,3.86,5.66c2.6,1.56,5.74,2.35,9.43,2.35s6.82-.78,9.39-2.35c2.63-1.57,3.94-3.45,3.94-5.66s-1.31-4.15-3.94-5.74c-2.57-1.56-5.7-2.35-9.39-2.35Z"/>
  </g>
  <g id="Layer0_1_MEMBER_0_MEMBER_3_MEMBER_0_MEMBER_0_MEMBER_0_MEMBER_0_FILL" data-name="Layer0 1 MEMBER 0 MEMBER 3 MEMBER 0 MEMBER 0 MEMBER 0 MEMBER 0 FILL">
    <path class="cls-14" d="m80.12,143.76v12.2c6.4,3.49,12.53,3.65,18.4.46v-12.66h-18.4Z"/>
    <path class="cls-1" d="m80.12,155.96v15.3c6.15,7.01,12.28,7.01,18.4,0v-14.84c-5.87,3.19-12,3.03-18.4-.46Z"/>
  </g>
  <g id="Layer0_1_MEMBER_0_MEMBER_3_MEMBER_0_MEMBER_0_MEMBER_1_MEMBER_0_FILL" data-name="Layer0 1 MEMBER 0 MEMBER 3 MEMBER 0 MEMBER 0 MEMBER 1 MEMBER 0 FILL">
    <path class="cls-5" d="m146.4,65.79l-.08-.96s-.13-.1-.29-.21c-.08-.08-.21-.2-.38-.34v.88c-.03,2.32-.24,4.63-.63,6.92-.42,2.26-1.02,4.51-1.8,6.75l-7.59-15.72c1.48,4.67,1.98,8.98,1.51,12.95-.03.11-.06.25-.08.42-.08.06.31.88,1.17,2.47.81,1.57,1.47,4.49,1.97,8.76.39,5.76.11,11.51-.84,17.27l3.14.08,2.64-17.35c.28-.56.68-1.1,1.22-1.63.53-.56,1.22-1.09,2.05-1.59.39-4.16.24-8.3-.46-12.41-.08-.53-.2-1.03-.34-1.51-.87-4.33-1.27-5.92-1.22-4.78m-99.69-7.92l-.92,9.52-7.17-7.13-2.85,10.02-6.5-8.93c-1.48,7.01-1.9,14.07-1.26,21.17.03.11.04.24.04.38.39,3.8,1.06,7.6,2.01,11.4.03.11.08.24.17.38,1.15,4.56,2.75,9.12,4.82,13.71h3.56c-.2-9,1.48-18.11,5.03-27.33,2.24-4.72,4.33-7.63,6.29-8.72l-3.23-14.46Z"/>
    <path class="cls-3" d="m35.06,108.38s.04.01.04.04l.04-.04h-.08m-4.82-13.71c-.08-.14-.14-.27-.17-.38h-.17l.34.38m11.61-57.93c.11.2.17.43.17.71,0,.14-1.09,1.09-3.27,2.85-.42.39-.82.73-1.22,1.01-2.43,2.04-4.47,3.84-6.12,5.41-1.34,1.2-2.57,2.4-3.69,3.61-1.79,1.84-3.34,3.65-4.65,5.41-2.24,3.02-3.73,5.83-4.49,8.43.7-.25,2.54-.78,5.53-1.59,2.01-.56,3.58-1.19,4.7-1.89.28-.17.5-.36.67-.59.08-.06.15-.1.21-.13-.11.17-.2.35-.25.54-.11.2-.21.41-.29.63l.13.21,6.5,8.93,2.85-10.02,7.17,7.13.92-9.52,3.23,14.46s.06-.04.08-.04c0,.08,0,.18,0,.29,0,2.35.04,4.08.13,5.2.03.98.08,1.87.17,2.68.06.7.14,1.37.25,2.01,1.06-1.23,2.5-3.79,4.32-7.67,1.98-4.28,3.21-7.81,3.69-10.61h.59c1.01,4.16,2.98,9.71,5.91,16.64,0-.45.07-.74.21-.88.11-.14.21-.21.29-.21,0-.75.29-3.58.88-8.47.59-4.56.84-7.28.75-8.17,2.57,1.29,4.58,2.36,6.04,3.23,3.21,1.93,5.46,3.91,6.75,5.95v-11.32c.17.14.38.32.63.54,1.7,1.4,5.11,3.88,10.23,7.46,6.71,4.67,10.24,7.18,10.61,7.55l4.82,4.32c-.48-2.68-1.38-5.37-2.72-8.05.08-.31-.85-1.83-2.81-4.57-.56-.7-1.08-1.34-1.55-1.93-.08-.11-.17-.21-.25-.29.22.08.46.15.71.21,5.98,2.26,11.26,4.54,15.85,6.83-1.9-2.46-3.86-4.61-5.87-6.46-1.96-1.93-3.56-3.24-4.82-3.94,1.76.42,4.56,1.45,8.38,3.1,3.8,1.65,6.19,2.88,7.17,3.69.98.84,2.67,2.15,5.07,3.94,2.32,1.82,3.61,2.86,3.86,3.14l1.13,1.22c-1.73-6.2-3.9-10.72-6.5-13.54,1.65,1.45,3.74,3.27,6.29,5.45,2.01,1.76,3.62,3.27,4.82,4.53.08.11.18.21.29.29.56.61,1.13,1.29,1.72,2.01.03-.17.06-.31.08-.42.48-3.97-.03-8.29-1.51-12.95l7.59,15.72c.78-2.24,1.38-4.49,1.8-6.75.39-2.29.6-4.6.63-6.92v-.88c.17.14.29.25.38.34.17.11.27.18.29.21,1.09.42,2.35,1.31,3.77,2.68,1.34,1.34,2.42,2.86,3.23,4.57.03.06.06.13.08.21l.63,2.26c.39-.34.57-1.16.54-2.47,0-.87-.08-1.9-.25-3.1-.48-3.24-.95-5.77-1.43-7.59-.56-1.84-1.76-4.56-3.61-8.13-.53-1.01-1.16-1.98-1.89-2.93-1.9-2.43-4.5-4.7-7.8-6.79-3.55-2.24-6.22-3.72-8.01-4.44l10.4,2.93c-1.84-2.57-3.84-4.88-5.99-6.92-.17-.14-.29-.27-.38-.38-2.32-2.18-5.69-4.35-10.1-6.5-4.44-2.15-9.95-3.19-16.52-3.1,2.21-1.65,4.36-2.78,6.46-3.4,2.43-.73,4.23-1.06,5.41-1.01,1.17.08,2.61.13,4.32.13l-1.93-1.34c-1.79-1.59-4.88-3.02-9.26-4.28-4.36-1.26-8.37-1.79-12.03-1.59-3.63.17-8.31.68-14.04,1.55-5.48,1.37-9.67,2.91-12.58,4.61-1.09.61-2,1.26-2.72,1.93-.03.06-.06.13-.08.21h-.54c.22-.08.43-.15.63-.21.31-.59.71-1.23,1.22-1.93.98-1.48,2.33-3.28,4.07-5.41,1.98-2.52,3.94-4.83,5.87-6.96h-.5c-6.4,1.73-12.38,4.42-17.94,8.05-2.07,1.34-4.02,2.78-5.87,4.32-2.91,2.43-5.49,5.09-7.76,7.96-1.84,1.29-2.03.04-.54-3.73.64-1.62,1.23-3.03,1.76-4.23.7-1.48,1.3-2.57,1.8-3.27-.39,0-.74-.01-1.05-.04-1.45,1.09-2.74,2.19-3.86,3.31-5.95,5.67-8.61,11.32-7.96,16.94Z"/>
    <path class="cls-14" d="m15.27,91.7c-1.15,2.65-1.19,5.81-.13,9.47,1.09,3.69,3,6.85,5.74,9.47.87.84,1.75,1.54,2.64,2.1,1.87,1.2,3.72,1.8,5.53,1.8.98,0,1.86-.15,2.64-.46.73-.31,1.36-.75,1.89-1.34.56-.56,1.03-1.26,1.43-2.1.28-.64.48-1.33.59-2.05-.08.11-.2.2-.34.25-.03.03-.08.06-.17.08-.03.03-.06.06-.08.08.03-.14.04-.28.04-.42-.34.64-.99.8-1.97.46.03.03.07.07.13.13h-.29c-1.34-.2-2.68-.94-4.02-2.22-1.59-1.51-2.7-3.34-3.31-5.49-.67-2.12-.66-3.94.04-5.45.34-.78.8-1.36,1.38-1.72.03-.03.07-.04.13-.04v.04c1.2-.73,2.12-.73,2.77,0-.98-2.46-2.38-4.07-4.19-4.82-.08-.22-.15-.42-.21-.59l-.5-.25c-.39-.14-.77-.27-1.13-.38-.14-.08-.28-.13-.42-.13-.06,0-.11.04-.17.13-1.7-.67-3.41-.59-5.11.25-1.26.59-2.22,1.65-2.89,3.19m135.02-.21c-.11.11-.22.18-.34.21-.92.92-1.75,1.87-2.47,2.85.98-.53,1.94-.8,2.89-.8,1.59,0,2.72.75,3.4,2.26.67,1.51.7,3.33.08,5.45-.64,2.15-1.75,3.98-3.31,5.49-1.57,1.48-3.14,2.22-4.74,2.22-.61,0-1.12-.08-1.51-.25-.2-.08-.38-.2-.54-.34.14.73.36,1.41.67,2.05.25.53.53,1.01.84,1.43.67.92,1.48,1.59,2.43,2.01.78.31,1.66.46,2.64.46,2.18,0,4.35-.82,6.5-2.47.56-.42,1.13-.89,1.72-1.43,2.29-2.18,3.98-4.75,5.07-7.71.22-.56.43-1.15.63-1.76,1.06-3.66,1.02-6.82-.13-9.47-.17-.28-.34-.57-.5-.88-1.2-2.01-3.02-3.02-5.45-3.02-1.96,0-3.88.66-5.78,1.97-.73.5-1.43,1.08-2.1,1.72Z"/>
    <path class="cls-1" d="m15.15,101.17c-1.06-3.66-1.02-6.82.13-9.47.67-1.54,1.63-2.6,2.89-3.19,1.7-.84,3.41-.92,5.11-.25.06-.08.11-.13.17-.13.14,0,.28.04.42.13.36.11.74.24,1.13.38l.5.25c.06.17.13.36.21.59,1.82.75,3.21,2.36,4.19,4.82h.17c-.95-3.8-1.62-7.6-2.01-11.4-.28-.14-.53-.27-.75-.38-2.35-.92-4.6-1.26-6.75-1.01v-.08c-.34.06-.67.13-1.01.21-.84.17-1.61.46-2.31.88-1.56.95-2.81,2.43-3.73,4.44-1.65,3.69-1.7,8.16-.17,13.41,1.4,4.78,3.74,8.9,7.04,12.37.34.36.7.71,1.09,1.05,3.88,3.72,7.77,5.58,11.65,5.58,1.76,0,3.3-.35,4.61-1.05.31.84.67,1.68,1.09,2.52.2.39.41.78.63,1.17,2.63,5.09,6.13,9.81,10.52,14.17,11.01,11.04,24.33,16.56,39.95,16.56,15.57,0,28.88-5.52,39.95-16.56,1.76-1.76,3.37-3.58,4.82-5.45,2.85-3.61,5.18-7.42,7-11.44.06-.2.13-.38.21-.54,1.12.42,2.36.63,3.73.63,3.91,0,7.81-1.86,11.7-5.58.59-.53,1.16-1.1,1.72-1.72,1.84-2.07,3.37-4.36,4.57-6.87.73-1.51,1.31-3.09,1.76-4.74.03,0,.04-.03.04-.08,1.57-5.09,1.55-9.47-.04-13.16,0-.08-.03-.17-.08-.25-1.68-3.72-4.49-5.58-8.43-5.58-2.77,0-5.55.92-8.34,2.77,0,.08,0,.14,0,.17-.06.06-.1.11-.13.17-.84.5-1.52,1.03-2.05,1.59-.53.53-.94,1.08-1.22,1.63l-2.64,17.35-3.14-.08c.95-5.76,1.23-11.51.84-17.27-.5-4.28-1.16-7.2-1.97-8.76-.87-1.59-1.26-2.42-1.17-2.47-.59-.73-1.16-1.4-1.72-2.01-.11-.08-.21-.18-.29-.29-1.2-1.26-2.81-2.77-4.82-4.53-2.54-2.18-4.64-4-6.29-5.45,2.6,2.82,4.76,7.34,6.5,13.54l-1.13-1.22c-.25-.28-1.54-1.33-3.86-3.14-2.4-1.79-4.09-3.1-5.07-3.94-.98-.81-3.37-2.04-7.17-3.69-3.83-1.65-6.62-2.68-8.38-3.1,1.26.7,2.86,2.01,4.82,3.94,2.01,1.84,3.97,4,5.87,6.46-4.58-2.29-9.87-4.57-15.85-6.83-.25-.06-.49-.13-.71-.21.08.08.17.18.25.29.48.59.99,1.23,1.55,1.93,1.96,2.74,2.89,4.26,2.81,4.57,1.34,2.68,2.25,5.37,2.72,8.05l-4.82-4.32c-.36-.36-3.9-2.88-10.61-7.55-5.11-3.58-8.52-6.06-10.23-7.46-.25-.22-.46-.41-.63-.54v11.32c-1.29-2.04-3.54-4.02-6.75-5.95-1.45-.87-3.47-1.94-6.04-3.23.08.89-.17,3.62-.75,8.17-.59,4.89-.88,7.71-.88,8.47-.08,0-.18.07-.29.21-.14.14-.21.43-.21.88-2.93-6.93-4.9-12.48-5.91-16.64h-.59c-.48,2.79-1.7,6.33-3.69,10.61-1.82,3.88-3.26,6.44-4.32,7.67-.11-.64-.2-1.31-.25-2.01-.08-.81-.14-1.7-.17-2.68-.08-1.12-.13-2.85-.13-5.2,0-.11,0-.21,0-.29-.03,0-.06.01-.08.04-1.96,1.09-4.05,4-6.29,8.72-3.55,9.22-5.23,18.33-5.03,27.33h-3.48l-.04.04s-.01-.04-.04-.04c-2.07-4.58-3.67-9.15-4.82-13.71l-.34-.38c-.64-.73-1.57-.73-2.77,0v-.04c-.06,0-.1.01-.13.04-.59.36-1.05.94-1.38,1.72-.7,1.51-.71,3.33-.04,5.45.61,2.15,1.72,3.98,3.31,5.49,1.34,1.29,2.68,2.03,4.02,2.22h.29c-.06-.06-.1-.1-.13-.13.98.34,1.63.18,1.97-.46,0,.14-.01.28-.04.42.03-.03.06-.06.08-.08.08-.03.14-.06.17-.08.14-.06.25-.14.34-.25-.11.73-.31,1.41-.59,2.05-.39.84-.87,1.54-1.43,2.1-.53.59-1.16,1.03-1.89,1.34-.78.31-1.66.46-2.64.46-1.82,0-3.66-.6-5.53-1.8-.89-.56-1.77-1.26-2.64-2.1-2.74-2.63-4.65-5.78-5.74-9.47m134.81-9.47c.11-.03.22-.1.34-.21.67-.64,1.37-1.22,2.1-1.72,1.9-1.31,3.83-1.97,5.78-1.97,2.43,0,4.25,1.01,5.45,3.02.17.31.34.6.5.88,1.15,2.65,1.19,5.81.13,9.47-.2.61-.41,1.2-.63,1.76-1.09,2.96-2.78,5.53-5.07,7.71-.59.53-1.16,1.01-1.72,1.43-2.15,1.65-4.32,2.47-6.5,2.47-.98,0-1.86-.15-2.64-.46-.95-.42-1.76-1.09-2.43-2.01-.31-.42-.59-.89-.84-1.43-.31-.64-.53-1.33-.67-2.05.17.14.35.25.54.34.39.17.89.25,1.51.25,1.59,0,3.17-.74,4.74-2.22,1.57-1.51,2.67-3.34,3.31-5.49.61-2.12.59-3.94-.08-5.45-.67-1.51-1.8-2.26-3.4-2.26-.95,0-1.91.27-2.89.8.73-.98,1.55-1.93,2.47-2.85Z"/>
  </g>
  <g>
    <g id="olhos_0_Layer0_0_MEMBER_0_MEMBER_0_FILL" data-name="olhos 0 Layer0 0 MEMBER 0 MEMBER 0 FILL">
      <path class="cls-3" d="m109.42,102.75c-1.32-1.49-1.98-3.29-1.98-5.4s.66-3.9,1.98-5.4c1.31-1.49,2.89-2.24,4.73-2.24,1.85,0,3.43.75,4.75,2.24,1.31,1.49,1.96,3.29,1.96,5.4s-.65,3.9-1.96,5.4c-1.32,1.49-2.9,2.24-4.75,2.24s-3.43-.75-4.73-2.24Z"/>
    </g>
    <g id="olhos_0_Layer0_0_MEMBER_0_MEMBER_1_FILL" data-name="olhos 0 Layer0 0 MEMBER 0 MEMBER 1 FILL">
      <path class="cls-9" d="m109.85,97.94c-.66-.62-.99-1.38-.99-2.27s.33-1.66.99-2.29c.65-.62,1.44-.93,2.37-.93s1.73.31,2.38.93c.65.63.97,1.4.97,2.29s-.32,1.65-.97,2.27c-.66.63-1.45.95-2.38.95s-1.72-.32-2.37-.95Z"/>
    </g>
    <g id="olhos_0_Layer0_0_MEMBER_1_MEMBER_0_FILL" data-name="olhos 0 Layer0 0 MEMBER 1 MEMBER 0 FILL">
      <path class="cls-3" d="m60.99,102.75c-1.32-1.49-1.98-3.29-1.98-5.4s.66-3.9,1.98-5.4c1.31-1.49,2.89-2.24,4.73-2.24,1.85,0,3.43.75,4.75,2.24,1.31,1.49,1.96,3.29,1.96,5.4s-.65,3.9-1.96,5.4c-1.32,1.49-2.9,2.24-4.75,2.24s-3.43-.75-4.73-2.24Z"/>
    </g>
    <g id="olhos_0_Layer0_0_MEMBER_1_MEMBER_1_FILL" data-name="olhos 0 Layer0 0 MEMBER 1 MEMBER 1 FILL">
      <path class="cls-9" d="m61.41,97.94c-.66-.62-.99-1.38-.99-2.27s.33-1.66.99-2.29c.65-.62,1.44-.93,2.37-.93s1.73.31,2.38.93c.65.63.97,1.4.97,2.29s-.32,1.65-.97,2.27c-.66.63-1.45.95-2.38.95s-1.72-.32-2.37-.95Z"/>
    </g>
  </g>
  <g id="Layer0_1_MEMBER_0_MEMBER_4_MEMBER_0_FILL" data-name="Layer0 1 MEMBER 0 MEMBER 4 MEMBER 0 FILL">
    <path class="cls-4" d="m98.87,211.22l.29,7.08h8.09c.11-.56.21-1.02.29-1.38.2-.73.31-1.17.34-1.34-.5.11-.88.18-1.13.21-1.2.06-2.03.1-2.47.13l.08-2.05c.64,0,1.12.01,1.43.04.73.06,1.17.11,1.34.17.06-.5.13-.94.21-1.3.14-.61.25-1.03.34-1.26-1.51.06-2.6.07-3.27.04l.13-1.72c.61.03,1.17.06,1.68.08.75.11,1.24.18,1.47.21l.38-5.74h-9.52c.2,2.91.31,5.18.34,6.83m-7.38-2.93c.03-1.79.07-3.09.13-3.9h-5.87c.06,1.65.17,3.48.34,5.49.2,2.18.39,3.67.59,4.49.36,1.43.99,2.47,1.89,3.14,1.03.78,2.54,1.17,4.53,1.17,1.59,0,3.16-.28,4.7-.84,0-3.38.04-5.91.13-7.59l.21-5.87h-4.49c.17,2.4.28,4.29.34,5.66.06,2.71.08,4.69.08,5.95-.25.11-.49.17-.71.17-.73,0-1.22-.27-1.47-.8-.22-.48-.35-1.41-.38-2.81-.03-1.84-.03-3.27,0-4.28m-20,3.35l.25,6.67h5.11l.08-4.53c.22.45.38.8.46,1.05l.46,1.09c.17-.08.45-.21.84-.38.34-.14.56-.24.67-.29l.08,3.06h4.65c.11-2.85.2-5.07.25-6.67.17-3.35.29-5.77.38-7.25h-5.87l.46,8.55c-.45.03-.8.04-1.05.04-.42.03-.85.01-1.3-.04l.46-8.55h-6.37c.22,3.1.36,5.52.42,7.25Z"/>
  </g>
  <g id="Layer0_1_MEMBER_1_FILL" data-name="Layer0 1 MEMBER 1 FILL">
    <path class="cls-12" d="m65.07,114.39c0-.27.02-.52.05-.75-.45.15-.85.4-1.2.75-.03.03-.07.07-.12.12.42.05.84.11,1.27.17v-.3m21.65,5.74v-1.6h-.1v1.02c0,.17,0,.34-.02.52.05.02.09.03.12.05m29.8-.15c0-2.24-.28-3.94-.85-5.09-1-2-2.83-2.34-5.51-1.05v5.76c0,1.58-.56,2.93-1.67,4.04s-2.49,1.7-4.06,1.7c-1.58,0-2.93-.57-4.04-1.7-1.13-1.11-1.7-2.46-1.7-4.04v-1.95c-.17.02-.33.04-.5.07v2.87c0,1.05-.25,2-.75,2.84-.25.43-.56.83-.92,1.2-.12.12-.23.22-.35.32,5.2,3.49,8.78,7.74,10.72,12.74.58-.42,1.15-.86,1.7-1.35,4.22-3.59,6.76-7.8,7.61-12.62.22-1.21.32-2.47.32-3.77Z"/>
    <path class="cls-9" d="m77.42,123.34c1.05,1.06,2.31,1.6,3.79,1.6,1.5,0,2.78-.53,3.84-1.6.91-.93,1.43-2.02,1.55-3.27.02-.18.02-.36.02-.52v-1.02c-3.79-.17-7.38-.81-10.77-1.92-1.56-.52-3.07-1.13-4.51-1.85-.25-.12-.49-.22-.72-.32-2.31-1.03-4.14-1.3-5.49-.8-.03.23-.05.48-.05.75v3.79c0,1.48.52,2.74,1.57,3.79,1.05,1.06,2.31,1.6,3.79,1.6,1.5,0,2.78-.53,3.84-1.6,1-1.01,1.52-2.22,1.57-3.62v1.2c0,1.48.52,2.74,1.57,3.79m19.28-5.36s-.07,0-.12,0c-1.6.22-3.28.38-5.06.5-1.63.08-3.23.1-4.79.05v2.07c0,1.58.57,2.93,1.7,4.04,1.11,1.13,2.46,1.7,4.04,1.7,1.41,0,2.65-.46,3.72-1.37.12-.1.23-.21.35-.32.37-.37.67-.76.92-1.2.5-.85.75-1.8.75-2.84v-2.87c-.5.08-1,.17-1.5.25m13.47-4.14c-.18.08-.37.17-.57.27-.1.05-.2.1-.3.15-.35.18-.72.37-1.12.57-.08.03-.17.07-.25.12-2.66,1.18-5.74,2.08-9.23,2.69v1.95c0,1.58.57,2.93,1.7,4.04,1.11,1.13,2.46,1.7,4.04,1.7,1.58,0,2.93-.57,4.06-1.7s1.67-2.46,1.67-4.04v-5.76Z"/>
    <path class="cls-13" d="m106.89,137.71c-1.95-5-5.52-9.25-10.72-12.74-1.06.91-2.3,1.37-3.72,1.37-1.58,0-2.93-.57-4.04-1.7-1.13-1.11-1.7-2.46-1.7-4.04v-.47s-.07-.03-.12-.05c-.12,1.25-.63,2.34-1.55,3.27-1.06,1.06-2.34,1.6-3.84,1.6-1.48,0-2.74-.53-3.79-1.6-1.05-1.05-1.57-2.31-1.57-3.79v-1.2c-.05,1.4-.57,2.6-1.57,3.62-1.06,1.06-2.34,1.6-3.84,1.6-1.48,0-2.74-.53-3.79-1.6-1.05-1.05-1.57-2.31-1.57-3.79v-3.49c-.43-.07-.86-.12-1.27-.17-.96,1.06-1.45,2.88-1.45,5.46,0,6.42,2.64,11.88,7.93,16.38,5.29,4.54,11.66,6.81,19.13,6.81,6.7,0,12.53-1.82,17.48-5.46Z"/>
  </g>
</svg>