<?xml version="1.0" encoding="UTF-8"?>
<svg id="Camada_1" data-name="Camada 1" xmlns="http://www.w3.org/2000/svg" xmlns:xlink="http://www.w3.org/1999/xlink" viewBox="0 0 218 345.18">
  <defs>
    <style>
      .cls-1 {
        fill: #b47657;
      }

      .cls-1, .cls-2, .cls-3, .cls-4, .cls-5, .cls-6, .cls-7 {
        stroke-width: 0px;
      }

      .cls-2 {
        fill: #960;
      }

      .cls-4 {
        fill: url(#Gradiente_sem_nome_6);
      }

      .cls-5 {
        fill: #774f00;
      }

      .cls-6 {
        fill: #80543e;
      }

      .cls-7 {
        fill: rgba(153, 0, 0, .57);
      }
    </style>
    <linearGradient id="Gradiente_sem_nome_6" data-name="Gradiente sem nome 6" x1="5.41" y1="336.19" x2="-10.18" y2="531.26" gradientTransform="translate(116.68 450.06) scale(.84 -.84)" gradientUnits="userSpaceOnUse">
      <stop offset="0" stop-color="#d1bb90"/>
      <stop offset="1" stop-color="#fff"/>
    </linearGradient>
  </defs>
  <g id="Interpolar_1_0_Layer0_0_FILL" data-name="Interpolar 1 0 Layer0 0 FILL">
    <path class="cls-2" d="m106.28,157.14l-7.13-2.22-32.4,169.15c-.45,4.5,1.2,5.49,4.95,2.98l34.58-169.9Z"/>
    <path class="cls-5" d="m107.66,150.35l-7.34-1.47-1.17,6.04,7.13,2.22,1.38-6.79Z"/>
    <path class="cls-4" d="m100.32,148.89l7.34,1.47,67.95,13.5,25.03-125.59L53.79,9l-25.07,125.59,71.6,14.29Z"/>
  </g>
  <g id="Interpolar_1_0_Layer0_1_FILL" data-name="Interpolar 1 0 Layer0 1 FILL">
    <path class="cls-3" d="m124.34,44.72c-.98-3.8-4.11-2.4-9.39,4.19-3.77,3.27-3.4,14.11,1.13,32.53-.06.06-.15.14-.29.25,0,.08-.04.15-.13.21-.14.08-.22.18-.25.29-.81,1.03-1.63,2.07-2.47,3.1-.28.25-.52.48-.71.67l-.08.13c-.31-.34-.67-.6-1.09-.8h-.17c-.2-.45-.35-.89-.46-1.34-.08-.59-.21-1.1-.38-1.55-.53-2.01-1.1-3.95-1.72-5.83-1.34-.84-2.14-.84-2.39,0-.17,1.37-.38,2.85-.63,4.44-.64-.67-1.24-1.26-1.8-1.76-.73-.14-1.26.01-1.59.46-.17.25-.29.54-.38.88-.14.14-.25.28-.34.42-.45.48-.84.95-1.17,1.43-1.68,2.04-3.27,3.83-4.78,5.37-.36,0-.71.03-1.05.08-1.26.2-2.53.2-3.81,0,.5,1.06,1.09,2.03,1.76,2.89-.17.11-.34.24-.5.38-.95.75-1.86,1.48-2.72,2.18,0,.08-.07.2-.21.34l-.17.04c-.81-.28-1.43-.57-1.84-.88-.67-.39-.88-.24-.63.46.31.48.77.84,1.38,1.09,0,.08-.06.13-.17.13-2.07,1.2-3.95,1.93-5.66,2.18-.45.06-.89.07-1.34.04-1.2-.03-2.33-.34-3.4-.92-.31-.14-.63-.31-.96-.5-1.54-1.17-2.89-2.93-4.07-5.28.06-.08.04-.13-.04-.13-.56-.87-.63-.25-.21,1.84-.03.17-.03.29,0,.38.81,2.18,1.91,3.81,3.31,4.9.36.25.73.5,1.09.75.28.17.56.32.84.46.84.5,1.77.77,2.81.8.06,0,.2.03.42.08.45-.08.89-.18,1.34-.29l.38.13c1.98-.39,4.08-1.31,6.29-2.77.39-.25.78-.54,1.17-.88.5.25,1.06.43,1.68.54.31.14.66.27,1.05.38.61.14,1.26.29,1.93.46.87.11,1.7.2,2.52.25-.56.08-1.12.15-1.68.21-1.68.22-3.35.46-5.03.71-.31.2-.49.43-.54.71h-.08v.08c-.06.14-.08.34-.08.59.06.22.13.42.21.59.08.28.11.57.08.88.2.61.31,1.22.34,1.8.28,2.52.5,4.86.67,7.04,0,.45-.06.89-.17,1.34-.03.45,0,.87.08,1.26-.31-.03-.56.04-.75.21-2.35.48-4.04.61-5.07.42-.73.2-.8.6-.21,1.22.53.17,1.12.27,1.76.29.42,0,.85.01,1.3.04.67-.06,1.5-.22,2.47-.5.17-.03.32-.03.46,0,.06.08.08.21.08.38-.14,1.26-.28,2.4-.42,3.44-.06.08-.11.21-.17.38-.11.5-.24,1.06-.38,1.68-.5,2.29-1.33,4.18-2.47,5.66-.34.34-.63.68-.88,1.05-1.01.92-2.14,1.65-3.4,2.18-.42.14-.81.25-1.17.34-2.1.53-4.54.5-7.34-.08-.06-.11-.13-.13-.21-.04-1.06-.08-.6.36,1.38,1.34.03.08.14.15.34.21,2.35.7,4.47.77,6.37.21.5,0,.98-.07,1.43-.21.34-.11.67-.2,1.01-.25,1.09-.45,2-1.02,2.72-1.72.2-.08.31-.2.34-.34.42-.36.8-.75,1.13-1.17.11-.03.2-.14.25-.34,1.17-1.59,2.03-3.73,2.56-6.41.11-.64.2-1.31.25-2.01.17-1.51.29-3.16.38-4.95.22-.14.48-.25.75-.34,1.01-.39,1.93-.84,2.77-1.34.11-.08.27-.18.46-.29l.13-.13c.34-.22.59-.41.75-.54,1.54-1.03,2.93-2.36,4.19-3.98.08-.28.25-.54.5-.8.22-.31.46-.61.71-.92.11-.2.25-.42.42-.67.14-.31.27-.59.38-.84l.71-3.86c.28-.06.57-.08.88-.08h1.97c1.76.03,3.44.08,5.03.17.36.03.64.01.84-.04.5.14.89.21,1.17.21.61.08,1.3.21,2.05.38.2-.25.34-.54.42-.88.11.14.25.21.42.21.42.06.87-.07,1.34-.38.08-.14.2-.29.34-.46,1.4.61,2.88.89,4.44.84l-.04,4.53c.89,3.41,2.15,6.09,3.77,8.05.53,2.18,1.34,4.16,2.43,5.95,1.96,3.19,3.67,4.99,5.16,5.41.64-.08.75-.39.34-.92-1.06-.61-2.63-2.33-4.7-5.16-.48-1.17-.87-2.28-1.17-3.31,2.07,1.59,3.67,2.07,4.82,1.43.5-.53.54-.88.13-1.05-.95.14-2.53-.46-4.74-1.8-.31-.36-.63-.77-.96-1.22-.36-1.76-.53-3.45-.5-5.07.75-2.65,1.61-5.25,2.56-7.8.39.75,1.01,1.34,1.84,1.76.81.45,1.62.64,2.43.59.31.08.54.1.71.04.34.03.6-.01.8-.13.14.03.27-.04.38-.21l8.59,20.5.29-.04-7.46-21.21c.5-.45.91-.96,1.22-1.55.11-.25.21-.54.29-.88.08,0,.17.07.25.21.03-.17.07-.34.13-.5-.11-.06-.2-.08-.25-.08.11-.11.13-.21.04-.29.08,0,.18.03.29.08,0-.17.03-.29.08-.38-.17-.06-.25-.11-.25-.17.03-.08.06-.18.08-.29,5.34.08,11.56-1.1,18.65-3.56l-3.9.88c-4.5,1.48-9.42,2.19-14.76,2.14-.03-.17-.07-.34-.13-.5,4.81-.75,9.4-2.11,13.79-4.07l3.86-1.76c-5.7,2.38-10.38,3.93-14.04,4.65-1.59.22-2.88.41-3.86.54-.06-.28-.14-.57-.25-.88-.48-.75-1.17-1.43-2.1-2.01-1.2-.56-2.5-.68-3.9-.38-.08.08-.22.13-.42.13.78-1.9,1.57-3.77,2.35-5.62l-1.68-1.43c-1.26,1.29-2.53,2.54-3.81,3.77,0-.06-.04-.15-.13-.29-.75-1.7-1.87-3-3.35-3.9l13.12-31.02c.34-3.61-2.79-3.33-9.39.84-2.35.89-4.42,3.87-6.2,8.93l1.26-17.65m-10.82,42.38c-.06-.08-.13-.14-.21-.17l3.14-3.61c.22.81.43,1.63.63,2.47-.75.87-1.44,1.89-2.05,3.06-.08.14-.15.28-.21.42-.25-.64-.6-1.24-1.05-1.8l-.17-.08c.03-.2,0-.29-.08-.29m16.01,6.33c.36-1.31.36-2.57,0-3.77l3.19-3.23-2.1,5.66c-.39.31-.75.75-1.09,1.34m-22.76-11.07l.42-3.14,1.43,4.9c-.25-.31-.52-.57-.8-.8-.31-.36-.61-.67-.92-.92l-.13-.04m-4.7-.13c.06-.17.15-.34.29-.5.81.81,1.63,1.63,2.47,2.47l-.08.13c-.03.22-.06.49-.08.8l-.08-.04c-1.12.34-1.73.54-1.84.63-1.23.45-2.38.85-3.44,1.22-.17.06-.31.1-.42.13-.34.03-.63.11-.88.25-.17.03-.31.08-.42.17.78-.98,1.62-1.91,2.52-2.81.14-.31.34-.54.59-.71.42-.53.88-1.1,1.38-1.72m-5.28,12.62h.08c.42.17.77.39,1.05.67-.2-.06-.42-.08-.67-.08-.98.08-2.03.11-3.14.08-.64-.11-1.29-.31-1.93-.59-.25-.08-.52-.15-.8-.21-.42-.06-.75-.11-1.01-.17.87-.87,1.84-1.75,2.93-2.64-.06.08-.03.14.08.17,1.03,1.03,2.17,1.96,3.4,2.77m.96,4.7c.56-.03,1.09-.06,1.59-.08.89-.03,1.77-.04,2.64-.04v.04c-.25,1.09-.5,2.18-.75,3.27-.17.34-.39.68-.67,1.05-.2.25-.46.6-.8,1.05-.2.28-.38.56-.54.84-.48.61-1.03,1.24-1.68,1.89-.53.48-1.1.91-1.72,1.3-.25.25-.54.52-.88.8-.78.67-1.7,1.3-2.77,1.89-.08.06-.15.08-.21.08.06-.17.07-.36.04-.59-.11-.45-.14-.91-.08-1.38-.14-1.82-.32-3.77-.54-5.87-.03-.25-.07-.56-.13-.92-.03-.64-.11-1.31-.25-2.01-.06-.14-.11-.29-.17-.46,2.35-.34,4.65-.61,6.92-.84m31.19-4.23c0,.42.04.86.13,1.3l-3.4,9.01c-.03.87,0,1.73.08,2.6-.75-1.59-1.36-3.2-1.8-4.82-.06-1.4-.11-2.78-.17-4.15,1.17-.22,2.39-.7,3.65-1.43.42-.42.81-.95,1.17-1.59.22-.39.33-.69.34-.92Z"/>
  </g>
  <g id="Interpolar_1_0_Layer0_2_MEMBER_0_FILL" data-name="Interpolar 1 0 Layer0 2 MEMBER 0 FILL">
    <path class="cls-7" d="m150.2,66.63c-5.75-9.18-13.9-14.98-24.46-17.41s-20.43-.76-29.61,4.99c-9.18,5.75-14.98,13.9-17.41,24.46s-.76,20.43,4.99,29.61c5.75,9.18,13.9,14.98,24.46,17.41s20.43.76,29.61-4.99c9.18-5.75,14.98-13.9,17.41-24.46s.76-20.43-4.99-29.61m-25.73-11.95c9.05,2.08,16.04,7.05,20.97,14.91,4.93,7.87,6.36,16.33,4.28,25.39s-7.05,16.04-14.92,20.97c-7.86,4.93-16.32,6.36-25.38,4.28s-16.05-7.05-20.98-14.93c-4.93-7.86-6.35-16.32-4.27-25.38s7.05-16.05,14.92-20.98c7.87-4.92,16.33-6.35,25.39-4.27Z"/>
  </g>
  <g id="Interpolar_1_0_Layer0_2_MEMBER_1_FILL" data-name="Interpolar 1 0 Layer0 2 MEMBER 1 FILL">
    <path class="cls-7" d="m147.28,93.44c1.9-8.28.6-16.01-3.91-23.2-4.51-7.19-10.9-11.74-19.17-13.64s-16.01-.6-23.2,3.91c-7.19,4.51-11.74,10.9-13.64,19.17s-.6,16.01,3.91,23.2c4.51,7.19,10.9,11.74,19.17,13.64s16.01.6,23.2-3.91c7.19-4.51,11.74-10.9,13.64-19.17m-57.5-13.21c1.75-7.6,5.92-13.47,12.54-17.61s13.72-5.34,21.32-3.59,13.47,5.92,17.61,12.54,5.34,13.72,3.59,21.32c-1.75,7.6-5.92,13.47-12.54,17.61s-13.72,5.34-21.32,3.59-13.47-5.92-17.61-12.54-5.34-13.72-3.59-21.32Z"/>
  </g>
  <g id="Interpolar_1_0_Layer0_2_MEMBER_2_FILL" data-name="Interpolar 1 0 Layer0 2 MEMBER 2 FILL">
    <path class="cls-7" d="m131.92,30.52c-.3-.49-.74-.79-1.3-.92s-1.09-.04-1.59.26c-.49.31-.8.75-.93,1.31l-7.42,32.3c-.13.56-.04,1.09.26,1.58.31.49.75.81,1.31.94s1.09.04,1.58-.27c.49-.3.8-.74.93-1.3l7.42-32.3c.13-.56.04-1.09-.27-1.59Z"/>
  </g>
  <g id="Interpolar_1_0_Layer0_2_MEMBER_3_FILL" data-name="Interpolar 1 0 Layer0 2 MEMBER 3 FILL">
    <path class="cls-7" d="m113.6,106.31c-.3-.49-.74-.79-1.3-.92s-1.09-.04-1.59.26c-.49.31-.8.75-.93,1.31l-7.42,32.3c-.13.56-.04,1.09.26,1.58.31.49.75.81,1.31.94s1.09.04,1.58-.27c.49-.3.8-.74.93-1.3l7.42-32.3c.13-.56.04-1.09-.27-1.59Z"/>
  </g>
  <g id="Interpolar_1_0_Layer0_2_MEMBER_4_FILL" data-name="Interpolar 1 0 Layer0 2 MEMBER 4 FILL">
    <path class="cls-7" d="m173.13,102.09c.49-.3.79-.74.92-1.3s.04-1.09-.26-1.59c-.31-.49-.75-.8-1.31-.93l-32.3-7.42c-.56-.13-1.09-.04-1.58.26-.49.31-.81.75-.94,1.31s-.04,1.09.27,1.58c.3.49.74.8,1.3.93l32.3,7.42c.56.13,1.09.04,1.59-.27Z"/>
  </g>
  <g id="Interpolar_1_0_Layer0_2_MEMBER_5_FILL" data-name="Interpolar 1 0 Layer0 2 MEMBER 5 FILL">
    <path class="cls-7" d="m95.49,83.43c.49-.3.79-.74.92-1.3s.04-1.09-.26-1.59c-.31-.49-.75-.8-1.31-.93l-32.3-7.42c-.56-.13-1.09-.04-1.58.26-.49.31-.81.75-.94,1.31s-.04,1.09.27,1.58c.3.49.74.8,1.3.93l32.3,7.42c.56.13,1.09.04,1.59-.27Z"/>
  </g>
  <g id="Interpolar_1_0_Layer0_3_MEMBER_0_FILL" data-name="Interpolar 1 0 Layer0 3 MEMBER 0 FILL">
    <path class="cls-1" d="m145.6,334.13l5.2-11.74c-34.26,15.17-58.58-4.42-72.94-58.77l-4.95,12.7c12.6,45.64,36.83,64.91,72.69,57.81Z"/>
  </g>
  <g id="Interpolar_1_0_Layer0_3_MEMBER_1_FILL" data-name="Interpolar 1 0 Layer0 3 MEMBER 1 FILL">
    <path class="cls-1" d="m89.22,263.87c-.56-.39-1.1-.74-1.63-1.05-3.24-1.84-5.7-1.61-7.38.71-.11-.03-.22-.08-.34-.17-.2-.08-.42-.2-.67-.34-3.77-1.73-7.25-2.29-10.44-1.68-3.52.61-5.35,4.63-5.49,12.03-.08-.06-1.43.67-4.02,2.18-2.79,1.59-2.33,5.14,1.38,10.65-1.7.81-2.74,2.68-3.1,5.62-.25,2.1,3.47,5.16,11.15,9.18,6.26,2.38,11.74,2.71,16.43,1.01,5.06-1.84,8.82-5.24,11.28-10.19.7-1.4,1.26-2.82,1.68-4.28.92-3.61.8-7.35-.38-11.23-.53-1.73-1.17-3.33-1.93-4.78-1.62-3.13-3.8-5.69-6.54-7.67m-8.97,22.97c-5.14,3.21-8.66,1.86-10.56-4.07.14-6.18,1.61-10.89,4.4-14.13-1.65,2.99-2.52,6.85-2.6,11.57,1.87,5.81,5.34,7.18,10.4,4.11l-1.63,2.52Z"/>
    <path class="cls-6" d="m69.68,282.78c1.9,5.92,5.42,7.28,10.56,4.07l1.63-2.52c-5.06,3.07-8.52,1.7-10.4-4.11.08-4.72.95-8.58,2.6-11.57-2.79,3.24-4.26,7.95-4.4,14.13Z"/>
  </g>
</svg>