<?xml version="1.0" encoding="UTF-8"?>
<svg id="Camada_1" data-name="Camada 1" xmlns="http://www.w3.org/2000/svg" xmlns:xlink="http://www.w3.org/1999/xlink" viewBox="0 0 198 501.12">
  <defs>
    <style>
      .cls-1 {
        fill: #f66;
      }

      .cls-1, .cls-2, .cls-3, .cls-4, .cls-5, .cls-6, .cls-7, .cls-8, .cls-9, .cls-10, .cls-11, .cls-12, .cls-13, .cls-14, .cls-15, .cls-16, .cls-17, .cls-18, .cls-19, .cls-20, .cls-21, .cls-22, .cls-23, .cls-24, .cls-25, .cls-26, .cls-27, .cls-28, .cls-29, .cls-30, .cls-31 {
        stroke-width: 0px;
      }

      .cls-2 {
        fill: #999;
      }

      .cls-3 {
        fill: #b47657;
      }

      .cls-4 {
        fill: #9a6d35;
      }

      .cls-5 {
        fill: #915e46;
      }

      .cls-6 {
        fill: #666;
      }

      .cls-7 {
        fill: #915f46;
      }

      .cls-8 {
        fill: #744d26;
      }

      .cls-10 {
        fill: #33c;
      }

      .cls-11 {
        fill: #fc6;
      }

      .cls-12 {
        fill: #7e523c;
      }

      .cls-13 {
        fill: #e9b59a;
      }

      .cls-14 {
        fill: #fff;
      }

      .cls-15 {
        fill: #963;
      }

      .cls-16 {
        fill: #bb8440;
      }

      .cls-17 {
        fill: #a16a4e;
      }

      .cls-18 {
        fill: #19196b;
      }

      .cls-19 {
        fill: #cb8562;
      }

      .cls-20 {
        fill: #c69a83;
      }

      .cls-21 {
        fill: #eee;
      }

      .cls-22 {
        fill: url(#Gradiente_sem_nome_4);
      }

      .cls-23 {
        fill: #580000;
      }

      .cls-24 {
        fill: #360;
      }

      .cls-25 {
        fill: #cc8663;
      }

      .cls-26 {
        fill: url(#Gradiente_sem_nome_5);
      }

      .cls-27 {
        fill: #630;
      }

      .cls-28 {
        fill: #d09348;
      }

      .cls-29 {
        fill: #cc0;
      }

      .cls-30 {
        fill: #b4783b;
      }

      .cls-31 {
        fill: #b8823f;
      }
    </style>
    <linearGradient id="Gradiente_sem_nome_4" data-name="Gradiente sem nome 4" x1="-364.01" y1="427.03" x2="-359.91" y2="459.7" gradientTransform="translate(521.04 704.41) rotate(-1.49) scale(1.32 -1.32)" gradientUnits="userSpaceOnUse">
      <stop offset=".01" stop-color="#790000"/>
      <stop offset=".99" stop-color="#c00"/>
    </linearGradient>
    <linearGradient id="Gradiente_sem_nome_5" data-name="Gradiente sem nome 5" x1="424.12" y1="93.51" x2="456.59" y2="65.66" gradientTransform="translate(-295.47 194.47) scale(.88 -.88)" gradientUnits="userSpaceOnUse">
      <stop offset=".01" stop-color="#790000"/>
      <stop offset=".99" stop-color="#c00"/>
    </linearGradient>
  </defs>
  <g id="Layer0_0_MEMBER_0_FILL" data-name="Layer0 0 MEMBER 0 FILL">
    <path class="cls-14" d="m137.77,405.62c-3.57,5.6-9.38,6-17.43,1.19l3.49,27.66c4.52,4.11,9.71,3.57,15.57-1.62l-1.62-27.23Z"/>
    <path class="cls-21" d="m120.34,406.82c8.06,4.81,13.87,4.41,17.43-1.19l-.43-6.97c-3.6,5.92-9.54,6.37-17.82,1.34l.81,6.83Z"/>
    <path class="cls-3" d="m133.85,341.09h-20.54l6.21,58.9c8.28,5.03,14.22,4.59,17.82-1.34l-3.49-57.56Z"/>
  </g>
  <g id="Layer0_0_MEMBER_0_MEMBER_0_FILL" data-name="Layer0 0 MEMBER 0 MEMBER 0 FILL">
    <path class="cls-9" d="m158.99,464.89c.54-.35.81-.44.81-.29,0-.64-.64-.76-1.91-.38-1.21-.7-2.36-1.43-3.44-2.2.1-.1.14-.21.14-.33,0-.48-.54-.75-1.62-.81-1.62-1.27-3.1-2.69-4.44-4.25.1-.1.14-.19.14-.29.03-.03.03-.18,0-.43,0-.7-.46-1-1.39-.91-.96-1.21-1.82-2.47-2.58-3.77,0-.1.02-.14.05-.14.13-.13.19-.25.19-.38,0-.29-.27-.46-.81-.53-.54-1.11-1.05-2.26-1.53-3.44-2.32,6.56-9.78,6.05-22.35-1.53l-4.06,25.99s.08.02.14.05c1.82.61,3.55,1.18,5.21,1.72l-5.3-1.24-1.24,7.17c8.57,4.52,17.61,7.9,27.13,10.13,15.19,3.63,31.51,4.38,48.96,2.25,1.43-2.39,1.18-4.43-.76-6.11.29-.03.59-.06.91-.1,1.05-3.38.24-7.01-2.44-10.89l-14.95-4.11c-2.55-.51-4.94-1.15-7.17-1.91.76-.35,1.15-.57,1.15-.67-.06-1.46-1.32-1.56-3.77-.29-1.78-.67-3.47-1.43-5.06-2.29m1.77,18.96c.64-.19.14.3-1.48,1.48l1.34-1.48h.14Z"/>
    <path class="cls-14" d="m122.11,433.51l-1.86,11.7c12.58,7.58,20.03,8.09,22.35,1.53-.06-.1-.1-.19-.1-.29-.1-.22-.19-.46-.29-.72.06,0,.13,0,.19,0,.16-.1.29-.19.38-.29.1-.06.14-.11.14-.14.03-.03.06-.06.1-.1.1-.1.14-.21.14-.33,0-.06-.05-.19-.14-.38-.22-.22-.45-.35-.67-.38h-.76c-.22-.61-.41-1.24-.57-1.91-.03-.19-.08-.4-.14-.62-.13-.45-.24-.94-.33-1.48-.06-.22-.13-.46-.19-.72v-.1c0-.19-.06-.35-.19-.48-.03-.16-.08-.35-.14-.57-.32-1.69-.54-3.47-.67-5.35l-.29-.05c-2.52,1.24-5.11,1.86-7.79,1.86-2.9-.06-5.81-6.11-8.74-18.15l-.43,16.96Z"/>
  </g>
  <g id="Layer0_0_MEMBER_1_FILL" data-name="Layer0 0 MEMBER 1 FILL">
    <path class="cls-3" d="m86.37,341.09h-20.54l-.24,57.56c3.92,5.92,9.87,6.37,17.86,1.34l2.91-58.9Z"/>
    <path class="cls-14" d="m65.6,405.62l-.14,27.23c6.18,5.19,11.4,5.73,15.67,1.62l1.91-27.66c-7.74,4.81-13.55,4.41-17.43-1.19Z"/>
    <path class="cls-21" d="m65.6,398.65v6.97c3.89,5.6,9.7,6,17.43,1.19l.43-6.83c-7.99,5.03-13.95,4.59-17.86-1.34Z"/>
  </g>
  <g id="Layer0_0_MEMBER_1_MEMBER_0_FILL" data-name="Layer0 0 MEMBER 1 MEMBER 0 FILL">
    <path class="cls-9" d="m92.26,478.89l-1.67-7.17-5.25,1.24c1.69-.54,3.39-1.11,5.11-1.72.06-.03.11-.05.14-.05l-5.49-25.99c-12.13,7.58-19.57,8.09-22.31,1.53-.38,1.18-.83,2.32-1.34,3.44-.54.06-.8.24-.76.53.03.13.1.25.19.38.03,0,.05.05.05.14-.7,1.31-1.46,2.56-2.29,3.77-.92-.1-1.37.21-1.34.91v.43c.03.1.08.19.14.29-1.24,1.56-2.63,2.98-4.16,4.25-1.15.06-1.69.33-1.62.81,0,.13.05.24.14.33-1.02.76-2.1,1.5-3.25,2.2-1.31-.38-1.96-.25-1.96.38.03-.16.32-.06.86.29-1.53.86-3.17,1.62-4.92,2.29-2.55-1.27-3.81-1.18-3.77.29,0,.1.4.32,1.19.67-2.2.76-4.55,1.4-7.07,1.91l-14.66,4.11c-2.48,3.88-3.1,7.52-1.86,10.89.32.03.62.06.91.1-1.85,1.69-1.97,3.73-.38,6.11,17.58,2.13,33.83,1.39,48.77-2.25,9.39-2.23,18.26-5.6,26.61-10.13m-45.47,4.97h.1l1.43,1.48c-1.72-1.18-2.23-1.67-1.53-1.48Z"/>
    <path class="cls-14" d="m65.55,432.84l-.24.05c-.06,1.88-.19,3.66-.38,5.35-.06.22-.1.41-.1.57-.1.13-.14.29-.14.48v.1c-.06.25-.11.49-.14.72-.1.54-.19,1.03-.29,1.48-.03.22-.08.43-.14.62-.16.67-.3,1.31-.43,1.91h-.76c-.22.03-.45.16-.67.38-.1.19-.14.32-.14.38,0,.13.06.24.19.33.03.03.06.06.1.1,0,.03.06.08.19.14.06.1.18.19.33.29.1,0,.18,0,.24,0-.06.25-.14.49-.24.72-.03.1-.08.19-.14.29,2.74,6.56,10.17,6.05,22.31-1.53l-2.58-11.7-1.29-16.96c-2.32,12.04-4.92,18.09-7.79,18.15-2.61,0-5.24-.62-7.88-1.86Z"/>
  </g>
  <g id="Layer0_0_MEMBER_2_MEMBER_0_MEMBER_2_MEMBER_0_FILL" data-name="Layer0 0 MEMBER 2 MEMBER 0 MEMBER 2 MEMBER 0 FILL">
    <path class="cls-16" d="m146.71,353.59l-16.58-51.87,5.4,58.28c4.2-1.69,7.93-3.82,11.18-6.4m-86.03,5.88c2.8.64,5.54,1.21,8.22,1.72l1.67-61.28-9.89,59.57Z"/>
    <path class="cls-28" d="m54.38,358.04c2.13.54,4.24,1.02,6.31,1.43l9.89-59.57-1.67,61.28c28.85,5.54,51.06,5.14,66.63-1.19l-5.4-58.28,16.58,51.87c.41-.32.8-.64,1.15-.96l-14.33-89.37h-66.2l-12.94,94.77Z"/>
  </g>
  <g id="Layer0_0_MEMBER_2_MEMBER_0_MEMBER_2_MEMBER_1_FILL" data-name="Layer0 0 MEMBER 2 MEMBER 0 MEMBER 2 MEMBER 1 FILL">
    <path class="cls-31" d="m53.66,183.83c1.37-3.5,3.33-7.71,5.88-12.61-1.5-1.05-2.39-2.6-2.67-4.63l-.62-.81c-4.43,5.83-7.44,11.85-9.03,18.06-.35,1.43-.65,2.88-.91,4.35-.29.8-.48,1.54-.57,2.25-.03.64-.03,1.24,0,1.82.1.67.3,1.31.62,1.91l5.59,1.96c-1.37-1.78-.8-5.88,1.72-12.28m34.68,26.22c.1-.41.19-.84.29-1.29.57-2.2,1.45-4.25,2.63-6.16l.1-1.62h-19.54l.1,17.15,9.7,5.11,6.69-3.25c-.06-.61-.14-1.21-.24-1.82-.29-2.87-.19-5.57.29-8.12m28.9-37.4c-.1.03-.18.08-.24.14-4.08,1.72-7.93,2.87-11.56,3.44-2.17,2.55-3.9,5.08-5.21,7.59-.38.76-.73,1.51-1.05,2.25-.64,1.46-1.11,2.9-1.43,4.3-.22-1.34-.49-2.64-.81-3.92-.25-.86-.51-1.74-.76-2.63-.89-2.61-2.04-5.25-3.44-7.93-3.6-.89-6.94-2.5-10.03-4.82l-1.05,6.21,6.11,5.21,9.74,8.22.05.1.43.33,1.43-1.05.96-.62,10.32-7.26,5.49-3.87.62-3.39.43-2.29m-8.69,45.47l9.6,5.11,9.12-4.44.57-17.82h-19.44l.14,17.15m48.24-53.31l-5.11.86c1.62,4.62,2.39,10.41,2.29,17.39,0,.32-.02.62-.05.91-.06,3.22-.3,6.62-.72,10.22l4.39-1.39c.19-.73.35-1.48.48-2.25.06-.25.11-.51.14-.76.54-3.15.72-6.66.53-10.51-.16-4.39-.81-9.22-1.96-14.47Z"/>
    <path class="cls-11" d="m136.06,256.39l-.62,2.01c.25.13.49.24.72.33l-.1-2.34Z"/>
    <path class="cls-4" d="m97.42,254.81h-.29c-9.65.7-20.65,2.21-33.01,4.54l3.73,6.45,65.2.48,2.39-7.88c-7.99-3.28-19.41-4.55-34.25-3.82-1.27.06-2.53.14-3.77.24m13.28-72.61c-.16.54-.35,1.08-.57,1.62l-.05.05,6.35-3.49.38-5.45-.62,3.39-5.49,3.87m20.16-12.56l.48-.05-9.17-3.53-3.2-.1c-14.01-6.88-25.62-7.09-34.82-.62l-8.31-.19-18.96,1.43c.29,2.04,1.18,3.58,2.67,4.63,2.32,1.53,6.07,1.82,11.23.86.35-.06.7-.11,1.05-.14.19-.06.41-.13.67-.19,2.1-.45,4.39-1.08,6.88-1.91.45-.13.88-.27,1.29-.43.64.57,1.29,1.1,1.96,1.58l-1.96,8.17,7.07,5.68c-.03-.32-.05-.65-.05-1,0-.45.03-.89.1-1.34l-6.11-5.21,1.05-6.21c3.09,2.32,6.43,3.93,10.03,4.82l-4.68-10.46,24.65.43-7.26,10.37c3.63-.57,7.48-1.72,11.56-3.44.06-.06.14-.11.24-.14,1.21-.51,2.45-1.08,3.73-1.72,3.25,1.43,6.19,2.56,8.84,3.39l.24,9.98,3.2,14.43-3.1-24.31c.13.03.27.08.43.14l-.05-.05c.67-.25,1.29-.53,1.86-.81-.7-.61-1.18-1.35-1.43-2.25-.03-.1-.05-.18-.05-.24-.1-.38-.11-.81-.05-1.29v-.29m-58.37,2.34l-3.3,10.51-2.1,17.29,3.96-16.34,1.43-11.46Z"/>
    <path class="cls-10" d="m100.28,197.21c0-.1-.02-.16-.05-.19h-2.34l4.44,16.24c.22.48.43.97.62,1.48.45,1.18.83,2.32,1.15,3.44.64,2.2,1,4.33,1.1,6.4.06,1.66,0,3.25-.19,4.78.41-1.66.8-3.25,1.15-4.78.48-2.26.88-4.39,1.19-6.4.16-1.18.29-2.32.38-3.44.19-1.69.27-3.25.24-4.68,0-.45-.49-2.17-1.48-5.16-.92-3.03-2.99-5.59-6.21-7.69m-2.44,1.53c-.03-.57-.05-1.15-.05-1.72l-1.67-.05c-1.97,1.69-3.6,3.57-4.87,5.64-1.18,1.91-2.05,3.96-2.63,6.16-.1.45-.19.88-.29,1.29-.48,2.55-.57,5.25-.29,8.12.1.61.18,1.21.24,1.82.25,1.46.59,2.99,1,4.59.19.73.41,1.46.67,2.2.61.16,1.35-.57,2.25-2.2.8-1.4,1.69-3.53,2.67-6.4.61-1.82,1.29-3.95,2.05-6.4.13-.57.29-1.15.48-1.72.1-.41.22-.84.38-1.29.19-.64.38-1.31.57-2.01-.1-.8-.22-1.56-.38-2.29l-.1-4.44c-.03-.45-.05-.88-.05-1.29m-.33-8.02l-.1.05-9.51-5.06c.83,3.12,3.6,5.97,8.31,8.55v-.05l1.72-.05-.38-3.34-.05-.1m11.32-4.63c.16-.16.29-.37.38-.62l-8.84,4.01-.96.62-.91,4.06,1.86-.05c3.85-2.67,6.67-5.35,8.45-8.02Z"/>
    <path class="cls-18" d="m98.47,208.77c0-.67-.03-1.34-.1-2.01-.19.7-.38,1.37-.57,2.01-.16.45-.29.88-.38,1.29-.19.57-.35,1.15-.48,1.72-.76,2.45-1.45,4.59-2.05,6.4-.99,2.87-1.88,5-2.67,6.4-.89,1.62-1.64,2.36-2.25,2.2.57,1.88,1.32,3.84,2.25,5.88,2.07.99,2.85,0,2.34-2.96-.35-1.59-.32-3.3.1-5.11.22-.96.57-1.96,1.05-3.01.45-1.15.86-2.28,1.24-3.39.38-1.18.68-2.32.91-3.44.35-1.59.56-3.15.62-4.68,0-.41,0-.84,0-1.29m.96-18.68l-1.43,1.05-.43-.33.38,3.34h.57l.91-4.06m-11.7-5.25c.1.32.16.61.19.86l9.51,5.06.1-.05-9.74-8.22c-.06.45-.1.89-.1,1.34,0,.35.02.68.05,1m22.4-1c.22-.54.41-1.08.57-1.62l-10.32,7.26,8.84-4.01c.35-.51.64-1.03.86-1.58l.05-.05Z"/>
    <path class="cls-28" d="m96.7,194.53l-.48-.33v.05c.13.1.29.19.48.29m54.98-28.85l-2.67.48c.06.16.1.33.1.53.48,1.62-.02,3.25-1.48,4.87-.35.29-.68.61-1,.96-1.34,1.15-2.99,1.96-4.97,2.44-2.55.7-4.84.7-6.88,0-.22-.1-.46-.19-.72-.29-.16-.06-.3-.13-.43-.19-.38-.16-.73-.37-1.05-.62-.06-.06-.13-.11-.19-.14-.57.29-1.19.56-1.86.81l.05.05c-.16-.06-.3-.11-.43-.14l3.1,24.31-3.2-14.43-.24-9.98c-2.64-.83-5.59-1.96-8.84-3.39-1.27.64-2.52,1.21-3.73,1.72l-.43,2.29-.38,5.45-6.35,3.49c-.22.54-.51,1.07-.86,1.58-.1.25-.22.46-.38.62-1.78,2.67-4.6,5.35-8.45,8.02v2.91h-.14s.05.1.05.19c3.22,2.1,5.29,4.67,6.21,7.69.99,2.99,1.48,4.71,1.48,5.16.03,1.43-.05,2.99-.24,4.68-.1,1.11-.22,2.26-.38,3.44-.32,2.01-.72,4.14-1.19,6.4-.35,1.53-.73,3.12-1.15,4.78.19-1.53.25-3.12.19-4.78-.1-2.07-.46-4.2-1.1-6.4-.32-1.11-.7-2.26-1.15-3.44-.19-.51-.4-1-.62-1.48l-4.44-16.24-.1-.53v.53c0,.57.02,1.15.05,1.72,0,.41.02.84.05,1.29l.1,4.44c.16.73.29,1.5.38,2.29.06.67.1,1.34.1,2.01,0,.45,0,.88,0,1.29-.06,1.53-.27,3.09-.62,4.68-.22,1.11-.53,2.26-.91,3.44-.38,1.11-.8,2.25-1.24,3.39-.48,1.05-.83,2.05-1.05,3.01-.41,1.82-.45,3.52-.1,5.11.51,2.96-.27,3.95-2.34,2.96-.92-2.04-1.67-4-2.25-5.88-.25-.73-.48-1.46-.67-2.2-.41-1.59-.75-3.12-1-4.59l-6.69,3.25-9.7-5.11-.1-17.15h19.54l-.1,1.62c1.27-2.07,2.9-3.95,4.87-5.64l.1-2.72c-4.71-2.58-7.48-5.43-8.31-8.55-.03-.25-.1-.54-.19-.86l-7.07-5.68,1.96-8.17c-.67-.48-1.32-1-1.96-1.58-.41.16-.84.3-1.29.43-2.48.83-4.78,1.46-6.88,1.91-.25.06-.48.13-.67.19-.35.03-.7.08-1.05.14-5.16.96-8.9.67-11.23-.86-2.55,4.9-4.51,9.11-5.88,12.61-2.52,6.4-3.09,10.49-1.72,12.28l14.19,4.92-3.44,58.61c.48-.13.96-.22,1.43-.29,12.36-2.32,23.36-3.84,33.01-4.54h.29c1.24-.1,2.5-.18,3.77-.24,14.84-.73,26.26.54,34.25,3.82l.62-2.01-2.01-49.63h-.43l.05-14.14.14,7.93,2.2,1.34,17.2-7.69c.41-3.6.65-7.01.72-10.22.03-.29.05-.59.05-.91.1-6.97-.67-12.77-2.29-17.39m-33.53,57.56l-9.6-5.11-.14-17.15h19.44l-.57,17.82-9.12,4.44m-48.96-40.75l3.3-10.51-1.43,11.46-3.96,16.34,2.1-17.29Z"/>
    <path class="cls-6" d="m98.51,194.15h-.57l-1.72.05.48.33c-.19-.1-.35-.19-.48-.29l-.1,2.72,1.67.05v-.53l.1.53h2.48v-2.91l-1.86.05Z"/>
    <path class="cls-14" d="m100.23,183.83c1.31-2.52,3.04-5.05,5.21-7.59-4.52.73-8.76.62-12.71-.33,1.4,2.67,2.55,5.32,3.44,7.93.25.89.51,1.77.76,2.63.32,1.27.59,2.58.81,3.92.32-1.4.8-2.83,1.43-4.3.32-.73.67-1.48,1.05-2.25m48.87-17.15c0-.19-.03-.37-.1-.53l-1.1.24c0,.06.02.13.05.19.35,1.4-.11,2.8-1.39,4.2-.16.22-.37.43-.62.62-1.18,1.11-2.69,1.89-4.54,2.34-2.17.61-4.16.61-5.97,0h-.05c-.7-.22-1.29-.53-1.77-.91-.1-.06-.18-.13-.24-.19-.64-.48-1.05-1.11-1.24-1.91-.06-.32-.11-.62-.14-.91v-.38l-.67.14-.48.05v.29c-.06.48-.05.91.05,1.29,0,.06.02.14.05.24.25.89.73,1.64,1.43,2.25.06.03.13.08.19.14.32.25.67.46,1.05.62.13.06.27.13.43.19.25.1.49.19.72.29,2.04.7,4.33.7,6.88,0,1.97-.48,3.63-1.29,4.97-2.44.32-.35.65-.67,1-.96,1.46-1.62,1.96-3.25,1.48-4.87Z"/>
    <path class="cls-13" d="m105.44,176.24l7.26-10.37-24.65-.43,4.68,10.46c3.95.96,8.18,1.07,12.71.33Z"/>
    <path class="cls-24" d="m144.85,168.4l-.33-1.39-10.17,2.01,5.73,2.39.19-2.44,4.59-.57Z"/>
    <path class="cls-29" d="m147.95,166.59c-.03-.06-.05-.13-.05-.19l-3.39.62.33,1.39-4.59.57-.19,2.44-5.73-2.39-2.34.43v.38c.03.29.08.59.14.91.19.8.61,1.43,1.24,1.91.06.06.14.13.24.19.48.38,1.07.68,1.77.91h.05c1.82.61,3.81.61,5.97,0,1.85-.45,3.36-1.23,4.54-2.34.25-.19.46-.4.62-.62,1.27-1.4,1.74-2.8,1.39-4.2Z"/>
  </g>
  <g id="Layer0_0_MEMBER_2_MEMBER_0_MEMBER_3_MEMBER_0_STROKES_1_FILL" data-name="Layer0 0 MEMBER 2 MEMBER 0 MEMBER 3 MEMBER 0 STROKES 1 FILL">
    <path class="cls-19" d="m123.39,78.56l-.81.43-1.15.86-1.19,1.19-.29.43c-.1.1-.08.14.05.14l.14.14.24.19.05.05h.05l.05.05.14.1,1.19.67,1.29.48.29.05.62.19h.14l.14.05.33.05h.29l.33.05h1.29l1.29-.19.14-.05h.14l1.24-.38.1-.05h.05l.14-.1.29-.1.14-.1.14-.05.81-.43,1.15-.86,1.19-1.19.29-.43c.1-.1.08-.14-.05-.14l-.14-.14-.24-.19-.05-.05h-.05l-.05-.05-.14-.1-1.19-.67-1.29-.48-.29-.05-.62-.19h-.14l-.14-.05-.33-.05h-.29l-.33-.05h-1.29l-1.29.19-.14.05h-.14l-1.24.38-.1.05h-.05l-.14.1-.29.1-.14.1-.14.05Z"/>
  </g>
  <g id="Layer0_0_MEMBER_2_MEMBER_0_MEMBER_3_MEMBER_0_MEMBER_0_MEMBER_0_MEMBER_0_FILL" data-name="Layer0 0 MEMBER 2 MEMBER 0 MEMBER 3 MEMBER 0 MEMBER 0 MEMBER 0 MEMBER 0 FILL">
    <path class="cls-9" d="m102.5,5.97c-.25,0-.5.06-.75.15-.42-.07-.88-.1-1.39-.09-34.45-1.52-57.07,14.35-67.86,47.62,0,.17-.03.38-.11.63-5.24,27.17-5.87,54.21-1.89,81.13.82,5.69,1.9,11.41,3.22,17.16,25.37,4.11,50.7,5.08,75.99,2.9.5-.1,1-.15,1.51-.17l1.51-.17c1.51-.04,3.02-.04,4.53,0,5.29-.06,10.48-.32,15.59-.79,15-.98,29.79-3.26,44.39-6.84-1.43-44.45-5.94-78.61-13.53-102.5,0-.08-.05-.17-.13-.25-13.58-27.93-33.94-40.86-61.08-38.8m8.59,48.62l-.12-4.53,2.53,19.57c5.63.35,11.36,1,17.17,1.94,2.36.44,4.68.88,6.96,1.33,2.79.6,5.53,1.24,8.23,1.92.48,5.28.91,10.59,1.3,15.95.57,11.99.55,23.99-.06,36.01-.24.26-.49.52-.73.77l-.12.13c-4.25,4.48-8.85,8.21-13.81,11.19-9.42,5.7-20,8.71-31.74,9.02-15.68.41-29.48-4.01-41.39-13.26-1.88-1.38-3.69-2.92-5.41-4.64-1.55-1.47-2.97-2.94-4.27-4.42-.34-.33-.69-.65-1.03-.98-.85-9.88-1.16-20.24-.95-31.07.05-4.45.27-8.99.65-13.61,3.66-1.36,7.19-2.58,10.6-3.68,3.66-1.19,7.2-2.2,10.62-3.05,1.92-.47,3.96-.86,6.14-1.17.59-9.33,2.61-18.7,6.06-28.11l.07,2.64.15,24.67c.08-.09.21-.13.37-.14,8.19-1.48,17.78-2.06,28.78-1.77h.38s-.39-14.73-.39-14.73Z"/>
    <path class="cls-12" d="m81.79,46.55l-.07-2.64c-3.44,9.41-5.46,18.78-6.06,28.11-2.17.31-4.22.7-6.14,1.17-3.42.85-6.96,1.86-10.62,3.05-3.41,1.1-6.95,2.32-10.6,3.68-.38,4.63-.6,9.16-.65,13.61-.22,10.83.1,21.19.95,31.07.34.33.69.65,1.03.98-.94-10.05-1.26-20.7-.97-31.95.07-3.86.21-7.85.44-11.97,5.65-2.25,11.1-4.07,16.35-5.47,1.58-.46,3.12-.88,4.63-1.26,1.92-.39,3.92-.78,6.01-1.17.52-9.08,2.42-18.15,5.7-27.22m29.35,24.53l-.05-1.76c-11-.3-20.6.29-28.78,1.77l-.08,1.76c8.19-1.48,17.82-2.07,28.91-1.77m-.18-21.02l.12,4.53,2.08,16.82c5.63.35,11.27,1,16.92,1.95.09.08.21.12.38.12,4.81.8,9.66,1.84,14.56,3.14.46,4.77.84,9.5,1.13,14.2.66,12.32.69,24.62.09,36.89l.12-.13c.24-.26.49-.52.73-.77.61-12.02.62-24.02.06-36.01-.39-5.36-.83-10.68-1.3-15.95-2.7-.68-5.45-1.32-8.23-1.92-2.28-.44-4.6-.89-6.96-1.33-5.82-.94-11.54-1.58-17.17-1.94l-2.53-19.57Z"/>
    <path class="cls-3" d="m111.47,69.31h-.38s.05,1.77.05,1.77c-11.09-.29-20.72.3-28.91,1.77l.08-1.76c-.17,0-.29.05-.37.14l-.15-24.67c-3.29,9.07-5.19,18.14-5.7,27.22-2.09.39-4.09.78-6.01,1.17-1.5.38-3.04.79-4.63,1.26-5.25,1.4-10.7,3.22-16.35,5.47-.23,4.12-.37,8.11-.44,11.97-.29,11.25.03,21.91.97,31.95,1.3,1.48,2.72,2.95,4.27,4.42,1.72,1.72,3.53,3.26,5.41,4.64,11.91,9.25,25.71,13.67,41.39,13.26,11.74-.31,22.32-3.32,31.74-9.02,4.96-2.98,9.56-6.72,13.81-11.19.6-12.27.57-24.57-.09-36.89-.29-4.69-.67-9.42-1.13-14.2-4.9-1.3-9.76-2.34-14.56-3.14-.17,0-.29-.03-.38-.12-5.65-.94-11.29-1.59-16.92-1.95l-2.08-16.82.39,14.72Z"/>
  </g>
  <g id="Layer0_0_MEMBER_2_MEMBER_0_MEMBER_3_MEMBER_0_MEMBER_0_MEMBER_0_MEMBER_0_MEMBER_0_STROKES_1_FILL" data-name="Layer0 0 MEMBER 2 MEMBER 0 MEMBER 3 MEMBER 0 MEMBER 0 MEMBER 0 MEMBER 0 MEMBER 0 STROKES 1 FILL">
    <path class="cls-6" d="m66.15,15.48h-.11s-4.9,2.81-4.9,2.81c-1.34.9-2.4,1.66-3.18,2.27l-3.38,2.8-.1.07-4.16,4.2-.1.14-.92,1.05-.1.14-.07.07-.03.07-.24.25-2.96,4.06-3.74,6.65-2.31,5.98-1.62,6.7-.63,5.59-.03.14.15,7.19.09.67.07.07.03-.04,2.97-13.01,1.67-4.98,2.76-6.42.17-.29.43-.93,3.81-6.52.07-.14,2-2.87.07-.07.03-.07,4.58-5.65.1-.14,3.57-3.83c.14-.17.37-.4.69-.69l5.33-5.18v-.11Z"/>
  </g>
  <g id="Layer0_0_MEMBER_2_MEMBER_0_MEMBER_3_MEMBER_0_MEMBER_0_MEMBER_0_MEMBER_0_MEMBER_1_STROKES_1_FILL" data-name="Layer0 0 MEMBER 2 MEMBER 0 MEMBER 3 MEMBER 0 MEMBER 0 MEMBER 0 MEMBER 0 MEMBER 1 STROKES 1 FILL">
    <path class="cls-6" d="m76.04,45.85l-.27-16.88-.27-2.25s-.03-.07-.07-.07l-.03.04-1.51,15.09-.04,11.88.5,6.86.08.39s.03.07.07.07l.03-.04.1-.39.3-1.88,1.11-12.82Z"/>
  </g>
  <g id="Layer0_0_MEMBER_2_MEMBER_0_MEMBER_3_MEMBER_0_MEMBER_0_MEMBER_0_MEMBER_0_MEMBER_2_STROKES_1_FILL" data-name="Layer0 0 MEMBER 2 MEMBER 0 MEMBER 3 MEMBER 0 MEMBER 0 MEMBER 0 MEMBER 0 MEMBER 2 STROKES 1 FILL">
    <path class="cls-6" d="m102.44,28.17l-.03.07.02.81.04.25v.32s1.79,16.7,1.79,16.7l.04.18v.18s1.26,12.9,1.26,12.9l.08.35.07.07.03-.04.1-.36.54-3.57.28-5.54-.53-8.13-1.07-6.03-1.75-6.12-.79-1.99-.07-.03Z"/>
  </g>
  <g id="Layer0_0_MEMBER_2_MEMBER_0_MEMBER_3_MEMBER_0_MEMBER_0_MEMBER_0_MEMBER_0_MEMBER_3_STROKES_1_FILL" data-name="Layer0 0 MEMBER 2 MEMBER 0 MEMBER 3 MEMBER 0 MEMBER 0 MEMBER 0 MEMBER 0 MEMBER 3 STROKES 1 FILL">
    <path class="cls-6" d="m116.94,20.08s-.06-.01-.1.04v.07s5.4,6.94,5.4,6.94l2.57,3.74.11.21.15.21.48.83.15.21,1.11,1.91.15.21.11.24.26.42,3.73,7.87,1.4,3.7.07.1,3.19,9.93.11.28c.05.26.16.6.31,1.01l.61,1.92.07.03.03-.07.09-.5.25-2.54-.06-5.11-.57-4.39-.04-.14v-.11s-.21-1.02-.21-1.02l-.08-.24v-.11s-.36-1.4-.36-1.4l-.04-.25-.96-3.11c-.48-1.35-1.05-2.72-1.69-4.12l-.37-.77-.07-.1-.59-1.11c-.03-.09-.21-.42-.55-.97l-3.04-4.5-4.46-4.64-.11-.07-1.12-.96-3.2-2.21-2.72-1.44Z"/>
  </g>
  <g id="Layer0_0_MEMBER_2_MEMBER_0_MEMBER_3_MEMBER_0_MEMBER_0_MEMBER_0_MEMBER_0_MEMBER_4_STROKES_1_FILL" data-name="Layer0 0 MEMBER 2 MEMBER 0 MEMBER 3 MEMBER 0 MEMBER 0 MEMBER 0 MEMBER 0 MEMBER 4 STROKES 1 FILL">
    <path class="cls-6" d="m36.17,90.18l-.42,11.01.61,23.28,2.14,18.52.07.03.03-.07-1.15-65.36s-.03-.07-.07-.07l-.03.04-1.19,12.62Z"/>
  </g>
  <g id="Layer0_0_MEMBER_2_MEMBER_0_MEMBER_3_MEMBER_0_MEMBER_0_MEMBER_0_MEMBER_0_MEMBER_5_STROKES_1_FILL" data-name="Layer0 0 MEMBER 2 MEMBER 0 MEMBER 3 MEMBER 0 MEMBER 0 MEMBER 0 MEMBER 0 MEMBER 5 STROKES 1 FILL">
    <path class="cls-6" d="m139.08,69.19l-.07-.03-.03.07,1.28,70.33s.03.07.07.07l.03-.04.48-4.63.89-30.62-.61-15.21-2.04-19.93Z"/>
  </g>
  <g id="Layer0_0_MEMBER_2_MEMBER_0_MEMBER_3_MEMBER_0_MEMBER_0_MEMBER_0_MEMBER_0_MEMBER_6_STROKES_1_FILL" data-name="Layer0 0 MEMBER 2 MEMBER 0 MEMBER 3 MEMBER 0 MEMBER 0 MEMBER 0 MEMBER 0 MEMBER 6 STROKES 1 FILL">
    <path class="cls-2" d="m130.9,12.62c-1.03-.8-2.1-1.51-3.19-2.14-1.17-.65-2.14-1.14-2.93-1.47l-2.42-.92c-.45-.15-1.07-.34-1.85-.55l-1.56-.35s-.07-.03-.07.04c-.05.05-.03.07.04.07l1.5.56c1.02.44,1.6.7,1.75.76l2.25,1.14c.88.49,1.77,1.07,2.65,1.73l4.4,3.69,1.45,1.55c.58.62,1.08,1.21,1.49,1.76l2.85,3.91c.2.3.65,1.03,1.36,2.19l2.59,4.8c1.67,3.48,3.14,7.1,4.41,10.85,1.27,3.7,2.45,7.74,3.52,12.1,1.05,4.25,1.96,8.51,2.73,12.79.77,4.19,1.44,8.49,2.03,12.92.55,3.96,1.06,8.16,1.53,12.61.25,2.27.63,6.22,1.16,11.85l2.3,32.69s.03.07.07.07l.03-.04.06-.42.31-32.47c-.12-3.83-.33-7.82-.63-11.97-.36-4.74-.78-8.99-1.25-12.76-.57-4.66-1.22-9.05-1.97-13.17-.82-4.42-1.78-8.75-2.88-13-1.25-4.71-2.56-8.82-3.92-12.31-1.52-4.05-3.2-7.74-5.05-11.08-.47-.9-.95-1.73-1.44-2.47-.64-1.06-1.13-1.84-1.47-2.32-1.03-1.52-2.09-2.94-3.18-4.25-.61-.74-1.16-1.36-1.67-1.86-.73-.78-1.28-1.34-1.67-1.68-1.18-1.12-2.3-2.07-3.35-2.84Z"/>
  </g>
  <g id="Layer0_0_MEMBER_2_MEMBER_0_MEMBER_3_MEMBER_0_MEMBER_0_MEMBER_0_MEMBER_0_MEMBER_7_STROKES_1_FILL" data-name="Layer0 0 MEMBER 2 MEMBER 0 MEMBER 3 MEMBER 0 MEMBER 0 MEMBER 0 MEMBER 0 MEMBER 7 STROKES 1 FILL">
    <path class="cls-2" d="m146.07,48.07c-.07,0-.08.03-.03.07l1.57,7.5.08.24,2.1,11.65c.46,3.16.72,5.01.78,5.55l1.47,14.38c.12,1.81.18,2.73.18,2.78l.38,19.73s-.03.07.04.07l.07-.04.4-3.71v-.21s.03-.18.03-.18l.37-15.38-.04-.32-.75-11.33-.04-.18-.97-7.59-3.18-15.18-2.36-7.83c0-.07-.03-.08-.07-.03Z"/>
  </g>
  <g id="Layer0_0_MEMBER_2_MEMBER_0_MEMBER_3_MEMBER_0_MEMBER_1_FILL" data-name="Layer0 0 MEMBER 2 MEMBER 0 MEMBER 3 MEMBER 0 MEMBER 1 FILL">
    <path class="cls-5" d="m170.36,78.5c-1.43-2.78-3.5-4.44-6.2-4.98l3.39,21.34c1.97-1.85,3.25-4.26,3.83-7.22.75-3.32.41-6.36-1.03-9.14Z"/>
    <path class="cls-25" d="m163.06,66.43l1.11,7.09c2.7.55,4.76,2.21,6.2,4.98,1.43,2.78,1.78,5.82,1.03,9.14-.58,2.96-1.86,5.37-3.83,7.22l.7,4.27c.65-.46,1.29-.93,1.94-1.44,3.4-2.73,5.61-6.43,6.63-11.12.98-4.68.45-9-1.59-12.95-1.95-3.86-4.84-6.2-8.69-7.03-1.15-.23-2.32-.29-3.5-.17Z"/>
  </g>
  <g id="Layer0_0_MEMBER_2_MEMBER_0_MEMBER_3_MEMBER_0_MEMBER_2_FILL" data-name="Layer0 0 MEMBER 2 MEMBER 0 MEMBER 3 MEMBER 0 MEMBER 2 FILL">
    <path class="cls-17" d="m30.15,76.61c-2.61.95-4.45,2.86-5.52,5.75-1.02,2.93-.96,6,.17,9.23,1,2.83,2.61,5.05,4.85,6.66l.49-21.64Z"/>
    <path class="cls-25" d="m30.15,76.61l.21-7.19c-1.19.03-2.32.26-3.41.68-3.7,1.28-6.31,3.99-7.83,8.12-1.43,4.12-1.34,8.45.27,12.98s4.27,7.93,7.98,10.21c.71.38,1.43.73,2.14,1.07l.15-4.22c-2.24-1.61-3.86-3.83-4.85-6.66-1.14-3.22-1.2-6.3-.17-9.23,1.07-2.88,2.91-4.8,5.52-5.75Z"/>
  </g>
  <g id="Layer0_0_MEMBER_2_MEMBER_0_MEMBER_3_MEMBER_0_MEMBER_3_STROKES_1_FILL" data-name="Layer0 0 MEMBER 2 MEMBER 0 MEMBER 3 MEMBER 0 MEMBER 3 STROKES 1 FILL">
    <path class="cls-6" d="m72.49,21.91l-2.88,2.27c-.71.61-1.34,1.18-1.86,1.71l-5.74,6.34-3.61,5.36-2.46,4.66-.07.21-.7,1.61-.13.39c-.16.33-.36.85-.6,1.54l-.69,2.21-.07.14-.76,3.27-.03.28-.06.25-.32,2.84s-.03.07.04.07l.07-.04,2.51-5.58.17-.29.07-.18,4.72-8.78.14-.18,4.93-7.62,6.69-9.29.17-.29.58-.79s.01-.06-.04-.11h-.07Z"/>
  </g>
  <g id="Layer0_0_MEMBER_2_MEMBER_0_MEMBER_3_MEMBER_0_MEMBER_4_FILL" data-name="Layer0 0 MEMBER 2 MEMBER 0 MEMBER 3 MEMBER 0 MEMBER 4 FILL">
    <path class="cls-7" d="m110.73,151.5l-.14-4.97c-7.07,1.66-14.17,1.83-21.3.53l.1,4.44c7.52,3.89,14.63,3.89,21.35,0Z"/>
    <path class="cls-3" d="m111.16,168.75l-.43-17.24c-6.72,3.89-13.84,3.89-21.35,0l.48,17.77c7.29,7.9,14.39,7.72,21.3-.53Z"/>
  </g>
  <g>
    <g id="Layer0_0_MEMBER_2_MEMBER_0_MEMBER_3_MEMBER_0_MEMBER_5_FILL" data-name="Layer0 0 MEMBER 2 MEMBER 0 MEMBER 3 MEMBER 0 MEMBER 5 FILL">
      <path class="cls-22" d="m32.79,104.78l-1.77.31-6.1,54.22c-.04.13-.06.27-.06.4l-.35,1.66c14.35-19.32,17.11-38.18,8.28-56.58m-1.77.31l-1.18.16c-11.04,19.85-12.88,38.77-5.51,56.78l.24-1.06.3-1.26c0-.13.02-.26.06-.4l6.1-54.22Z"/>
    </g>
    <g id="Layer0_0_MEMBER_2_MEMBER_0_MEMBER_3_MEMBER_0_MEMBER_5_STROKES_1_FILL" data-name="Layer0 0 MEMBER 2 MEMBER 0 MEMBER 3 MEMBER 0 MEMBER 5 STROKES 1 FILL">
      <path class="cls-1" d="m33.96,104.16c-.32-.61-.79-.84-1.4-.69l-.53.08c-.18-.19-.4-.32-.67-.38-.31-.08-.64-.03-.98.16-.23.14-.4.32-.51.54l-.26.07c-.44.01-.76.22-.97.62l-2.88,5.68-.06.2-2.24,5.13-2.97,9.9-1.26,7.42-.04,11.27.08.46v.46s1.17,6.43,1.17,6.43l.14.46.08.46,3.48,9.6v.07c.09.09.18.11.27.06l.06-.13.11-.66h.07s.32-.47.32-.47h.2s.2-.01.2-.01l.06-.07h.13s.26-.14.26-.14l.13-.14.06-.13.06-.07v-.07s-.07-.06-.07-.06l-.07-.13v-.13s-.07-.06-.07-.06v-.07s4.83-6.92,4.83-6.92l.19-.4,1.01-1.61,4.67-10.47,1.9-7.96.47-9.7-.74-5.72v-.26s-1.69-6.35-1.69-6.35l-2.54-6.26m-9.93,56.5h.07s.4.25.4.25l-.19.4v.07s0,.07,0,.07l-.28-.78m1.44-43.29l.19-.4.06-.2,2.3-5.27.13-.2.06-.2,1.13-2.14-4.56,50.29-.66.15-.13.14-.19.14v-.2s-.07,0-.07,0l-1.15-3.73-.08-.39-.14-.46-1.52-10.38.02-6.86,1.04-8.07.41-1.79.05-.46,3.1-9.97m9.77-1.9l.44,1.83v.2s.72,4.53.72,4.53v.46s.09.46.09.46l.14,2.77-.75,9.18-.17.93-.12.4-.05.46-.36,1.39-.06.4-3.44,9.65c0,.09-.12.38-.37.87l-1.19,2.54-.25.4-.19.47-.69,1.2-.19.4-3.35,5.49-.47-.19,7.06-52.79,3.05,8.29.08.46.07.2Z"/>
    </g>
  </g>
  <g id="Layer0_0_MEMBER_2_MEMBER_0_MEMBER_3_MEMBER_0_MEMBER_6_FILL" data-name="Layer0 0 MEMBER 2 MEMBER 0 MEMBER 3 MEMBER 0 MEMBER 6 FILL">
    <path class="cls-9" d="m37.36,96.46l-7.49-.32,1.49,56.49,9.2-.25-3.2-55.93Z"/>
  </g>
  <g>
    <g id="C_pia_de_olhos_0_Layer0_0_MEMBER_0_MEMBER_0_FILL" data-name="C pia de olhos 0 Layer0 0 MEMBER 0 MEMBER 0 FILL">
      <path class="cls-9" d="m120.58,94.41c-1.5-1.7-2.25-3.75-2.25-6.15s.75-4.45,2.25-6.15c1.49-1.7,3.29-2.55,5.39-2.55,2.11,0,3.91.85,5.42,2.55,1.49,1.7,2.23,3.75,2.23,6.15s-.74,4.45-2.23,6.15c-1.5,1.7-3.31,2.55-5.42,2.55s-3.91-.85-5.39-2.55Z"/>
    </g>
    <g id="C_pia_de_olhos_0_Layer0_0_MEMBER_0_MEMBER_1_FILL" data-name="C pia de olhos 0 Layer0 0 MEMBER 0 MEMBER 1 FILL">
      <path class="cls-14" d="m121.06,88.92c-.75-.71-1.13-1.57-1.13-2.59s.38-1.89,1.13-2.61c.74-.71,1.64-1.06,2.7-1.06s1.97.35,2.72,1.06c.74.72,1.11,1.59,1.11,2.61s-.37,1.88-1.11,2.59c-.75.72-1.66,1.08-2.72,1.08s-1.96-.36-2.7-1.08Z"/>
    </g>
    <g id="C_pia_de_olhos_0_Layer0_0_MEMBER_1_MEMBER_0_FILL" data-name="C pia de olhos 0 Layer0 0 MEMBER 1 MEMBER 0 FILL">
      <path class="cls-9" d="m65.39,94.41c-1.5-1.7-2.25-3.75-2.25-6.15s.75-4.45,2.25-6.15c1.49-1.7,3.29-2.55,5.39-2.55,2.11,0,3.91.85,5.42,2.55,1.49,1.7,2.23,3.75,2.23,6.15s-.74,4.45-2.23,6.15c-1.5,1.7-3.31,2.55-5.42,2.55s-3.91-.85-5.39-2.55Z"/>
    </g>
    <g id="C_pia_de_olhos_0_Layer0_0_MEMBER_1_MEMBER_1_FILL" data-name="C pia de olhos 0 Layer0 0 MEMBER 1 MEMBER 1 FILL">
      <path class="cls-14" d="m65.87,88.92c-.75-.71-1.13-1.57-1.13-2.59s.38-1.89,1.13-2.61c.74-.71,1.64-1.06,2.7-1.06s1.97.35,2.72,1.06c.74.72,1.11,1.59,1.11,2.61s-.37,1.88-1.11,2.59c-.75.72-1.66,1.08-2.72,1.08s-1.96-.36-2.7-1.08Z"/>
    </g>
  </g>
  <g id="Layer0_0_MEMBER_2_MEMBER_0_MEMBER_5_FILL" data-name="Layer0 0 MEMBER 2 MEMBER 0 MEMBER 5 FILL">
    <path class="cls-20" d="m110.26,83.81c.58-.29.95-.66,1.09-1.09-.47-.26-.93-.42-1.4-.48-.44.03-.7.04-.79.04,0,.73.36,1.24,1.09,1.53Z"/>
  </g>
  <g id="Layer0_0_MEMBER_2_MEMBER_0_MEMBER_6_FILL" data-name="Layer0 0 MEMBER 2 MEMBER 0 MEMBER 6 FILL">
    <path class="cls-27" d="m67.32,262.89l.14,8.12h66.01v-8.12h-66.16Z"/>
  </g>
  <g id="Layer0_0_MEMBER_2_MEMBER_0_MEMBER_6_MEMBER_0_FILL" data-name="Layer0 0 MEMBER 2 MEMBER 0 MEMBER 6 MEMBER 0 FILL">
    <path class="cls-30" d="m100.69,257.53c-2.86,0-5.3,1.01-7.32,3.03s-3.03,4.46-3.03,7.32,1.01,5.3,3.03,7.32c2.02,2.02,4.46,3.03,7.32,3.03s5.3-1.01,7.32-3.03c2.02-2.02,3.03-4.46,3.03-7.32s-1.01-5.3-3.03-7.32c-2.02-2.02-4.46-3.03-7.32-3.03m-6.11,4.23c1.6-1.6,3.54-2.4,5.81-2.4s4.21.8,5.81,2.4,2.4,3.54,2.4,5.81c0,.21-.01.41-.03.61-.12,2.01-.92,3.74-2.37,5.2-1.6,1.6-3.54,2.4-5.81,2.4s-4.21-.8-5.81-2.4c-1.46-1.46-2.25-3.19-2.39-5.2-.01-.2-.02-.4-.02-.61,0-2.27.8-4.21,2.4-5.81Z"/>
    <path class="cls-15" d="m100.39,260.58c-2.27,0-4.21.8-5.81,2.4-1.46,1.46-2.25,3.19-2.39,5.2.13,2.01.93,3.74,2.39,5.2,1.6,1.6,3.54,2.4,5.81,2.4s4.21-.8,5.81-2.4c1.46-1.46,2.25-3.19,2.37-5.2-.12-2.01-.92-3.74-2.37-5.2-1.6-1.6-3.54-2.4-5.81-2.4Z"/>
    <path class="cls-8" d="m94.58,262.98c1.6-1.6,3.54-2.4,5.81-2.4s4.21.8,5.81,2.4c1.46,1.46,2.25,3.19,2.37,5.2.02-.2.03-.4.03-.61,0-2.27-.8-4.21-2.4-5.81s-3.54-2.4-5.81-2.4-4.21.8-5.81,2.4c-1.6,1.6-2.4,3.54-2.4,5.81,0,.21,0,.41.02.61.13-2.01.93-3.74,2.39-5.2Z"/>
  </g>
  <g id="Layer0_0_MEMBER_2_MEMBER_1_FILL" data-name="Layer0 0 MEMBER 2 MEMBER 1 FILL">
    <path class="cls-14" d="m84.18,112.89c-.29-.15-.59-.29-.88-.44-.06-.03-.12-.07-.18-.13-1.38-.79-2.47-1.07-3.27-.84l-.13,1.85c-.03,1.06.29,1.99.97,2.78.74.77,1.65,1.18,2.74,1.24,1,.06,1.87-.22,2.6-.84.09-.06.13-.1.13-.13.65-.59,1.06-1.28,1.24-2.07-.41-.15-.79-.28-1.15-.4-.74-.29-1.43-.63-2.07-1.02m11.79,3.31c-1.06-.12-2.03-.26-2.91-.44-1.68-.29-3.22-.68-4.64-1.15v.18c-.06,1.06.26,1.99.97,2.78.74.79,1.63,1.22,2.69,1.28,1.09.03,2.03-.32,2.83-1.06.5-.44.85-.97,1.06-1.59m20.62-2.96c-.88-.09-1.97.13-3.27.66-.18.06-.37.15-.57.26-1.18.47-2.37.88-3.58,1.24-.15.06-.29.1-.44.13-2.44.62-4.97.94-7.59.97h-.22c.06.88.38,1.68.97,2.38.74.77,1.65,1.16,2.74,1.19h.35c.94-.03,1.75-.34,2.43-.93.79-.74,1.22-1.63,1.28-2.69l.04-.66c-.03,1,.29,1.9.97,2.69.74.79,1.65,1.21,2.74,1.24,1.06.06,2-.28,2.83-1.02.74-.74,1.13-1.63,1.19-2.69l.13-2.78Z"/>
    <path class="cls-26" d="m104.98,120.09h-.35c-1.09-.03-2-.43-2.74-1.19-.59-.71-.91-1.5-.97-2.38h-.13c-1.29,0-2.56-.06-3.8-.18-.35-.06-.69-.1-1.02-.13-.21.62-.56,1.15-1.06,1.59-.79.74-1.74,1.09-2.83,1.06-1.06-.06-1.96-.49-2.69-1.28-.71-.79-1.03-1.72-.97-2.78v-.18c-.35-.12-.69-.22-1.02-.31-.18.79-.59,1.49-1.24,2.07,0,.03-.04.07-.13.13-.74.62-1.6.9-2.6.84-1.09-.06-2-.47-2.74-1.24-.68-.79-1-1.72-.97-2.78l.13-1.85c-.62.18-1.1.57-1.46,1.19-.5.85-.79,2.16-.88,3.93-.21,4.97,1.66,9.31,5.61,13.02.41.35.82.72,1.24,1.1,3.71,2.94,8.15,4.53,13.33,4.77h.97c4.91.09,9.27-1.16,13.07-3.75-1-4.06-3.25-7.95-6.75-11.65Z"/>
    <path class="cls-23" d="m118.57,114.22c-.03-.06-.04-.1-.04-.13-.26-.24-.59-.44-.97-.62-.29-.12-.62-.19-.97-.22l-.13,2.78c-.06,1.06-.46,1.96-1.19,2.69-.82.74-1.77,1.07-2.83,1.02-1.09-.03-2-.44-2.74-1.24-.68-.79-1-1.69-.97-2.69l-.04.66c-.06,1.06-.49,1.96-1.28,2.69-.68.59-1.49.9-2.43.93,3.5,3.71,5.75,7.59,6.75,11.65.35-.26.71-.53,1.06-.79,4.3-3.33,6.55-7.48,6.75-12.45.09-2-.24-3.43-.97-4.28Z"/>
  </g>
</svg>