<?xml version="1.0" encoding="utf-8"?>
<!-- Generator: Adobe Illustrator 16.0.0, SVG Export Plug-In . SVG Version: 6.00 Build 0)  -->
<!DOCTYPE svg PUBLIC "-//W3C//DTD SVG 1.1//EN" "http://www.w3.org/Graphics/SVG/1.1/DTD/svg11.dtd">
<svg version="1.1" id="Camada_1" xmlns="http://www.w3.org/2000/svg" xmlns:xlink="http://www.w3.org/1999/xlink" x="0px" y="0px"
	 width="546.279px" height="116.033px" viewBox="0 0 546.279 116.033" enable-background="new 0 0 546.279 116.033"
	 xml:space="preserve">
<g>
	<path fill="#3D4E5A" d="M12.36,11.798H0.633C0.211,9.786,0,7.936,0,6.25c0-1.545,0.211-3.347,0.633-5.407h35.885
		c0.187,1.03,0.327,1.99,0.421,2.879c0.093,0.891,0.14,1.733,0.14,2.528c0,1.545-0.188,3.395-0.562,5.548H24.79v39.326
		c-2.482,0.421-4.542,0.632-6.18,0.632c-1.733,0-3.816-0.21-6.25-0.632V11.798z"/>
	<path fill="#3D4E5A" d="M37.5,26.265c0-3.745,0.433-7.222,1.3-10.429c0.865-3.207,2.199-5.98,4.002-8.322
		c1.802-2.341,4.097-4.178,6.882-5.513C52.469,0.667,55.783,0,59.622,0c3.838,0,7.139,0.667,9.901,2.001
		c2.763,1.334,5.044,3.172,6.847,5.513c1.802,2.342,3.137,5.115,4.003,8.322c0.866,3.207,1.299,6.684,1.299,10.429
		c0,3.746-0.433,7.198-1.299,10.358c-0.866,3.16-2.201,5.899-4.003,8.216c-1.803,2.318-4.084,4.121-6.847,5.408
		c-2.763,1.287-6.063,1.931-9.901,1.931c-3.839,0-7.152-0.644-9.937-1.931c-2.786-1.287-5.08-3.09-6.882-5.408
		C41,42.521,39.666,39.783,38.8,36.623C37.933,33.463,37.5,30.01,37.5,26.265z M68.61,26.265c0-10.206-2.974-15.31-8.918-15.31
		c-6.087,0-9.129,5.104-9.129,15.31c0,5.104,0.737,8.907,2.212,11.411c1.475,2.505,3.757,3.757,6.847,3.757
		C65.614,41.433,68.61,36.377,68.61,26.265z"/>
	<path fill="#3D4E5A" d="M101.335,0c8.849,0,15.566,2.212,20.154,6.636s6.882,11.014,6.882,19.769
		c0,8.896-2.341,15.415-7.022,19.558c-4.682,4.143-11.611,6.214-20.787,6.214c-2.342,0-4.6-0.105-6.776-0.316
		c-2.177-0.21-4.319-0.456-6.426-0.737V0.983c0.702-0.094,1.591-0.199,2.668-0.316c1.077-0.117,2.247-0.222,3.511-0.316
		c1.264-0.093,2.563-0.175,3.898-0.246C98.772,0.035,100.071,0,101.335,0z M99.79,41.152c0.327,0.047,0.702,0.07,1.124,0.07
		c0.421,0,0.865,0,1.334,0c1.826,0,3.546-0.222,5.162-0.667s3.007-1.23,4.178-2.353c1.17-1.124,2.095-2.645,2.774-4.565
		c0.679-1.919,1.019-4.376,1.019-7.373c0-2.95-0.352-5.408-1.054-7.374c-0.702-1.966-1.627-3.522-2.773-4.67
		c-1.148-1.146-2.494-1.966-4.039-2.458c-1.545-0.491-3.16-0.737-4.845-0.737c-0.937,0-1.615,0.012-2.037,0.035
		c-0.421,0.024-0.702,0.035-0.843,0.035V41.152z"/>
	<path fill="#3D4E5A" d="M132.726,26.265c0-3.745,0.433-7.222,1.299-10.429c0.866-3.207,2.2-5.98,4.002-8.322
		c1.802-2.341,4.096-4.178,6.882-5.513C147.694,0.667,151.008,0,154.847,0c3.838,0,7.139,0.667,9.902,2.001
		c2.762,1.334,5.044,3.172,6.847,5.513c1.802,2.342,3.136,5.115,4.003,8.322c0.865,3.207,1.298,6.684,1.298,10.429
		c0,3.746-0.433,7.198-1.298,10.358c-0.867,3.16-2.201,5.899-4.003,8.216c-1.803,2.318-4.085,4.121-6.847,5.408
		c-2.763,1.287-6.063,1.931-9.902,1.931c-3.839,0-7.152-0.644-9.937-1.931c-2.786-1.287-5.08-3.09-6.882-5.408
		c-1.803-2.317-3.137-5.056-4.002-8.216C133.159,33.463,132.726,30.01,132.726,26.265z M163.835,26.265
		c0-10.206-2.974-15.31-8.919-15.31c-6.086,0-9.129,5.104-9.129,15.31c0,5.104,0.738,8.907,2.212,11.411
		c1.475,2.505,3.756,3.757,6.847,3.757C160.839,41.433,163.835,36.377,163.835,26.265z"/>
	<path fill="#3D4E5A" d="M202.249,20.506c1.966,0.796,3.733,1.604,5.301,2.423c1.568,0.819,2.915,1.803,4.039,2.95
		c1.124,1.147,1.989,2.527,2.598,4.143c0.608,1.615,0.913,3.57,0.913,5.863c0,2.482-0.433,4.718-1.299,6.707
		c-0.867,1.99-2.142,3.698-3.828,5.126c-1.686,1.429-3.757,2.528-6.215,3.3c-2.458,0.772-5.279,1.159-8.462,1.159
		c-2.904,0-5.467-0.234-7.689-0.702c-2.225-0.467-4.624-1.194-7.199-2.177c0.187-1.638,0.515-3.382,0.983-5.232
		c0.467-1.849,1.029-3.733,1.685-5.653c4.307,1.873,8.052,2.809,11.236,2.809c2.388,0,4.249-0.362,5.583-1.088
		c1.334-0.726,2.001-1.977,2.001-3.757c0-0.749-0.141-1.393-0.422-1.932c-0.281-0.537-0.655-0.994-1.123-1.369
		c-0.469-0.374-0.995-0.69-1.58-0.948c-0.586-0.257-1.184-0.502-1.792-0.737l-3.933-1.475c-1.686-0.608-3.219-1.334-4.6-2.177
		c-1.381-0.843-2.563-1.837-3.547-2.985c-0.982-1.146-1.744-2.469-2.282-3.968c-0.539-1.498-0.808-3.253-0.808-5.267
		c0-2.481,0.421-4.681,1.264-6.602c0.843-1.919,2.025-3.546,3.546-4.88c1.521-1.334,3.359-2.341,5.513-3.02
		C194.289,0.34,196.701,0,199.369,0c2.388,0,4.693,0.235,6.917,0.702c2.223,0.469,4.6,1.148,7.128,2.037
		c-0.188,1.499-0.527,3.149-1.019,4.951c-0.492,1.803-1.113,3.5-1.861,5.091c-1.218-0.515-2.646-1.053-4.284-1.615
		s-3.675-0.843-6.109-0.843c-0.75,0-1.463,0.07-2.142,0.21c-0.679,0.14-1.289,0.363-1.826,0.667
		c-0.539,0.305-0.972,0.727-1.299,1.264c-0.328,0.539-0.492,1.207-0.492,2.001c0,1.358,0.445,2.365,1.335,3.02
		c0.889,0.656,1.942,1.218,3.16,1.685L202.249,20.506z"/>
	<path fill="#3D4E5A" d="M246.629,26.194c0,9.925,4.167,14.888,12.5,14.888c1.498,0,2.914-0.141,4.249-0.421
		c1.334-0.281,2.959-0.749,4.88-1.405c1.545,3.371,2.574,6.836,3.089,10.394c-1.358,0.516-2.622,0.937-3.792,1.264
		c-1.17,0.328-2.294,0.573-3.371,0.737c-1.078,0.163-2.142,0.281-3.195,0.351c-1.053,0.07-2.142,0.105-3.266,0.105
		c-3.979,0-7.479-0.644-10.499-1.931c-3.021-1.288-5.548-3.078-7.584-5.373c-2.037-2.293-3.571-5.032-4.6-8.216
		c-1.031-3.183-1.545-6.647-1.545-10.393c0-3.745,0.538-7.221,1.615-10.429c1.076-3.207,2.633-5.98,4.67-8.322
		c2.036-2.341,4.552-4.167,7.549-5.478C250.328,0.656,253.722,0,257.514,0c2.248,0,4.377,0.165,6.391,0.491
		c2.013,0.329,4.26,0.984,6.742,1.967c-0.094,1.92-0.445,3.781-1.053,5.583c-0.609,1.803-1.241,3.382-1.896,4.74
		c-0.937-0.327-1.791-0.608-2.563-0.842c-0.772-0.233-1.51-0.421-2.212-0.562c-0.703-0.14-1.404-0.246-2.106-0.316
		s-1.452-0.105-2.248-0.105c-3.792,0-6.731,1.276-8.814,3.828C247.671,17.335,246.629,21.138,246.629,26.194z"/>
	<path fill="#3D4E5A" d="M271.349,26.265c0-3.745,0.433-7.222,1.299-10.429c0.866-3.207,2.2-5.98,4.003-8.322
		c1.802-2.341,4.097-4.178,6.882-5.513C286.318,0.667,289.631,0,293.47,0s7.139,0.667,9.902,2.001
		c2.762,1.334,5.043,3.172,6.847,5.513c1.802,2.342,3.136,5.115,4.003,8.322c0.866,3.207,1.299,6.684,1.299,10.429
		c0,3.746-0.433,7.198-1.299,10.358c-0.867,3.16-2.201,5.899-4.003,8.216c-1.804,2.318-4.085,4.121-6.847,5.408
		c-2.764,1.287-6.063,1.931-9.902,1.931s-7.151-0.644-9.937-1.931c-2.785-1.287-5.08-3.09-6.882-5.408
		c-1.803-2.317-3.137-5.056-4.003-8.216C271.782,33.463,271.349,30.01,271.349,26.265z M302.459,26.265
		c0-10.206-2.974-15.31-8.919-15.31c-6.087,0-9.129,5.104-9.129,15.31c0,5.104,0.738,8.907,2.212,11.411
		c1.476,2.505,3.757,3.757,6.847,3.757C299.463,41.433,302.459,36.377,302.459,26.265z"/>
	<path fill="#3D4E5A" d="M321.209,0.983c1.028-0.187,1.967-0.327,2.81-0.421c0.843-0.094,1.66-0.141,2.457-0.141
		c0.843,0,1.721,0.06,2.634,0.176c0.913,0.117,1.696,0.246,2.353,0.386l16.292,27.528V0.983c1.218-0.187,2.317-0.327,3.302-0.421
		c0.982-0.094,1.871-0.141,2.668-0.141c0.795,0,1.638,0.047,2.528,0.141c0.889,0.094,1.825,0.235,2.809,0.421l-0.07,50.141
		c-0.469,0.141-1.148,0.281-2.037,0.421s-1.85,0.21-2.879,0.21c-1.17,0-2.224-0.082-3.16-0.246
		c-0.938-0.165-1.614-0.292-2.036-0.386l-16.363-27.388v27.388c-2.06,0.421-3.933,0.632-5.617,0.632
		c-1.687,0-3.582-0.21-5.688-0.632V0.983z"/>
	<path fill="#3D4E5A" d="M375.281,11.798h-11.727c-0.421-2.012-0.632-3.862-0.632-5.548c0-1.545,0.211-3.347,0.632-5.407h35.885
		c0.188,1.03,0.327,1.99,0.422,2.879c0.093,0.891,0.14,1.733,0.14,2.528c0,1.545-0.188,3.395-0.562,5.548h-11.728v39.326
		c-2.482,0.421-4.542,0.632-6.18,0.632c-1.732,0-3.815-0.21-6.251-0.632V11.798z"/>
	<path fill="#3D4E5A" d="M403.863,0.983c2.295-0.234,4.413-0.457,6.356-0.667C412.161,0.105,414.21,0,416.364,0
		c2.573,0,5.149,0.246,7.725,0.737c2.574,0.492,4.868,1.347,6.882,2.563c2.013,1.218,3.652,2.879,4.916,4.986
		s1.896,4.775,1.896,8.005c0,1.733-0.2,3.29-0.598,4.67c-0.398,1.381-0.913,2.61-1.545,3.687c-0.632,1.078-1.334,2.013-2.106,2.809
		c-0.773,0.797-1.534,1.475-2.282,2.037l10.955,21.629c-1.123,0.188-2.353,0.327-3.687,0.421c-1.335,0.093-2.541,0.14-3.616,0.14
		c-0.938,0-2.026-0.047-3.267-0.14c-1.24-0.094-2.33-0.234-3.266-0.421L418.4,28.16l0.632-0.351
		c0.563-0.281,1.182-0.749,1.861-1.405c0.678-0.655,1.31-1.44,1.896-2.353c0.584-0.913,1.076-1.931,1.475-3.055
		c0.397-1.124,0.597-2.293,0.597-3.511c0-2.34-0.656-4.049-1.966-5.127c-1.313-1.076-2.927-1.615-4.847-1.615
		c-0.468,0-0.865,0.024-1.192,0.07c-0.329,0.047-0.539,0.095-0.633,0.141v40.169c-2.481,0.421-4.519,0.632-6.109,0.632
		c-1.733,0-3.816-0.21-6.251-0.632V0.983z"/>
	<path fill="#3D4E5A" d="M454.004,51.194c-1.076,0.187-2.06,0.327-2.949,0.421c-0.89,0.093-1.756,0.14-2.598,0.14
		c-0.843,0-1.815-0.059-2.914-0.176c-1.102-0.117-2.331-0.292-3.688-0.526l15.729-50.141c1.217-0.141,2.354-0.257,3.406-0.351
		c1.054-0.093,2.118-0.141,3.195-0.141c0.889,0,1.861,0.047,2.915,0.141c1.053,0.094,2.258,0.21,3.616,0.351l15.52,50.211
		c-2.668,0.421-5.01,0.632-7.022,0.632c-0.937,0-1.872-0.047-2.809-0.14c-0.938-0.094-1.943-0.235-3.021-0.421l-2.668-9.762
		c-1.311,0.376-2.563,0.657-3.757,0.843c-1.194,0.187-2.377,0.281-3.546,0.281c-1.078,0-2.178-0.082-3.301-0.246
		c-1.124-0.163-2.295-0.409-3.511-0.737L454.004,51.194z M463.836,14.115l-4.705,18.048c0.796,0.235,1.544,0.421,2.247,0.562
		c0.702,0.141,1.428,0.21,2.177,0.21c0.795,0,1.581-0.058,2.354-0.175c0.772-0.117,1.579-0.292,2.422-0.527L463.836,14.115z"/>
	<path fill="#3D4E5A" d="M502.108,26.265c0-3.745,0.432-7.222,1.298-10.429c0.866-3.206,2.201-5.979,4.003-8.321
		c1.803-2.341,4.096-4.179,6.882-5.513S520.39,0,524.229,0c3.838,0,7.139,0.667,9.901,2.001c2.762,1.334,5.043,3.172,6.847,5.513
		c1.802,2.342,3.136,5.115,4.003,8.321c0.866,3.208,1.299,6.684,1.299,10.429c0,3.746-0.433,7.198-1.299,10.358
		c-0.867,3.16-2.201,5.899-4.003,8.216c-1.804,2.318-4.085,4.121-6.847,5.408c-2.763,1.287-6.063,1.931-9.901,1.931
		c-3.84,0-7.152-0.644-9.938-1.931c-2.786-1.287-5.079-3.09-6.882-5.408c-1.802-2.317-3.137-5.056-4.003-8.216
		S502.108,30.01,502.108,26.265z M533.218,26.265c0-10.206-2.974-15.31-8.918-15.31c-6.088,0-9.13,5.104-9.13,15.31
		c0,5.104,0.737,8.907,2.212,11.411c1.475,2.505,3.757,3.757,6.848,3.757C530.221,41.433,533.218,36.377,533.218,26.265z"/>
	<path fill="#3D4E5A" d="M49.404,115.05c-1.078,0.188-2.061,0.327-2.95,0.422c-0.89,0.093-1.755,0.141-2.598,0.141
		c-0.843,0-1.815-0.06-2.915-0.176c-1.1-0.117-2.329-0.292-3.687-0.526l15.73-50.142c1.217-0.141,2.353-0.257,3.406-0.351
		c1.053-0.093,2.118-0.14,3.195-0.14c0.889,0,1.861,0.047,2.914,0.14c1.054,0.094,2.258,0.21,3.617,0.351l15.52,50.211
		c-2.668,0.422-5.011,0.633-7.022,0.633c-0.937,0-1.873-0.048-2.809-0.141c-0.937-0.095-1.943-0.234-3.02-0.422l-2.669-9.761
		c-1.312,0.376-2.563,0.656-3.757,0.843s-2.377,0.28-3.546,0.28c-1.078,0-2.177-0.081-3.301-0.245
		c-1.124-0.163-2.294-0.409-3.511-0.737L49.404,115.05z M59.236,77.971l-4.705,18.048c0.795,0.235,1.545,0.421,2.247,0.562
		c0.703,0.141,1.428,0.211,2.177,0.211c0.796,0,1.58-0.058,2.353-0.175c0.772-0.116,1.58-0.293,2.422-0.527L59.236,77.971z"/>
	<path fill="#3D4E5A" d="M111.413,88.856c0,1.64-0.211,3.465-0.632,5.478H97.228v9.972h17.627c0.421,1.967,0.631,3.746,0.631,5.338
		c0,1.731-0.21,3.581-0.631,5.547H84.797V64.698h29.636c0.186,1.031,0.327,1.992,0.421,2.879c0.093,0.891,0.14,1.733,0.14,2.528
		c0,1.545-0.188,3.396-0.562,5.548H97.228v7.726h13.554C111.202,85.439,111.413,87.266,111.413,88.856z"/>
	<path fill="#3D4E5A" d="M134.376,63.856c8.848,0,15.565,2.212,20.155,6.637c4.587,4.423,6.882,11.013,6.882,19.768
		c0,8.896-2.342,15.414-7.023,19.558c-4.682,4.143-11.611,6.215-20.787,6.215c-2.341,0-4.6-0.104-6.777-0.315
		c-2.177-0.211-4.319-0.457-6.426-0.738V64.839c0.702-0.093,1.591-0.198,2.668-0.315c1.077-0.117,2.248-0.222,3.512-0.316
		s2.563-0.176,3.897-0.247C131.813,63.891,133.112,63.856,134.376,63.856z M132.831,105.008c0.327,0.048,0.702,0.07,1.123,0.07
		c0.422,0,0.866,0,1.335,0c1.825,0,3.546-0.222,5.161-0.667c1.615-0.444,3.008-1.229,4.179-2.353
		c1.17-1.124,2.094-2.645,2.774-4.564c0.678-1.919,1.018-4.378,1.018-7.374c0-2.949-0.352-5.406-1.053-7.374
		c-0.702-1.965-1.627-3.521-2.774-4.67c-1.147-1.146-2.493-1.966-4.038-2.457c-1.545-0.492-3.16-0.738-4.846-0.738
		c-0.937,0-1.615,0.013-2.036,0.035c-0.422,0.024-0.702,0.035-0.843,0.035V105.008z"/>
	<path fill="#3D4E5A" d="M193.717,88.856c0,1.64-0.211,3.465-0.632,5.478h-13.553v9.972h17.626c0.421,1.966,0.632,3.746,0.632,5.338
		c0,1.731-0.211,3.581-0.632,5.547h-30.056V64.698h29.635c0.187,1.031,0.327,1.991,0.421,2.879c0.094,0.891,0.141,1.733,0.141,2.528
		c0,1.545-0.188,3.396-0.562,5.548h-17.205v7.726h13.553C193.506,85.439,193.717,87.266,193.717,88.856z"/>
	<path fill="#3D4E5A" d="M222.368,84.361c1.966,0.797,3.732,1.604,5.301,2.423c1.568,0.82,2.915,1.803,4.038,2.949
		c1.124,1.148,1.989,2.528,2.599,4.144c0.608,1.615,0.912,3.571,0.912,5.864c0,2.482-0.433,4.718-1.298,6.706
		c-0.867,1.991-2.142,3.699-3.828,5.127c-1.686,1.429-3.757,2.527-6.215,3.301c-2.458,0.772-5.279,1.158-8.462,1.158
		c-2.903,0-5.466-0.234-7.689-0.702c-2.225-0.467-4.625-1.193-7.199-2.177c0.187-1.639,0.515-3.383,0.983-5.232
		c0.467-1.849,1.029-3.732,1.685-5.652c4.308,1.872,8.053,2.809,11.237,2.809c2.388,0,4.249-0.362,5.583-1.089
		c1.334-0.726,2.001-1.977,2.001-3.757c0-0.749-0.141-1.392-0.422-1.931c-0.281-0.538-0.656-0.994-1.123-1.37
		c-0.469-0.374-0.996-0.689-1.58-0.948c-0.586-0.257-1.184-0.502-1.791-0.736l-3.933-1.476c-1.685-0.607-3.219-1.335-4.6-2.176
		c-1.381-0.843-2.563-1.837-3.546-2.985c-0.982-1.146-1.744-2.469-2.282-3.968c-0.539-1.498-0.808-3.254-0.808-5.267
		c0-2.48,0.422-4.682,1.264-6.602c0.844-1.919,2.025-3.546,3.546-4.881c1.521-1.334,3.36-2.34,5.513-3.019
		c2.153-0.678,4.565-1.019,7.233-1.019c2.388,0,4.693,0.235,6.917,0.702c2.223,0.469,4.6,1.148,7.128,2.037
		c-0.188,1.499-0.527,3.149-1.019,4.95c-0.492,1.804-1.113,3.501-1.861,5.093c-1.218-0.516-2.646-1.055-4.284-1.616
		c-1.639-0.563-3.676-0.842-6.109-0.842c-0.75,0-1.463,0.069-2.142,0.21c-0.679,0.14-1.288,0.363-1.826,0.667
		c-0.539,0.306-0.972,0.728-1.299,1.264c-0.328,0.539-0.492,1.207-0.492,2.002c0,1.358,0.445,2.365,1.334,3.02
		c0.889,0.656,1.942,1.218,3.16,1.686L222.368,84.361z"/>
	<path fill="#3D4E5A" d="M263.238,115.05c-1.078,0.188-2.062,0.327-2.95,0.422c-0.89,0.093-1.756,0.141-2.598,0.141
		c-0.843,0-1.815-0.06-2.915-0.176c-1.101-0.117-2.33-0.292-3.687-0.526l15.73-50.142c1.217-0.141,2.353-0.257,3.406-0.351
		s2.118-0.14,3.195-0.14c0.889,0,1.862,0.046,2.915,0.14c1.054,0.094,2.259,0.21,3.617,0.351l15.52,50.211
		c-2.668,0.422-5.011,0.633-7.022,0.633c-0.938,0-1.873-0.048-2.809-0.141c-0.938-0.095-1.943-0.234-3.021-0.422l-2.668-9.761
		c-1.312,0.376-2.563,0.656-3.758,0.843c-1.192,0.187-2.376,0.28-3.546,0.28c-1.078,0-2.176-0.081-3.301-0.245
		c-1.124-0.163-2.293-0.409-3.511-0.737L263.238,115.05z M273.069,77.971l-4.705,18.049c0.795,0.234,1.545,0.42,2.247,0.561
		s1.428,0.211,2.177,0.211c0.795,0,1.58-0.058,2.353-0.175c0.771-0.116,1.58-0.293,2.423-0.527L273.069,77.971z"/>
	<path fill="#3D4E5A" d="M325.246,88.856c0,1.64-0.211,3.465-0.632,5.478h-13.554v9.972h17.627c0.421,1.966,0.632,3.746,0.632,5.338
		c0,1.731-0.211,3.581-0.632,5.547h-30.057V64.698h29.636c0.187,1.031,0.327,1.991,0.421,2.879c0.094,0.891,0.14,1.733,0.14,2.528
		c0,1.545-0.188,3.396-0.561,5.548h-17.206v7.726h13.554C325.035,85.439,325.246,87.266,325.246,88.856z"/>
	<path fill="#3D4E5A" d="M358.743,87.874c1.264-0.188,2.388-0.327,3.371-0.422c0.983-0.094,1.896-0.141,2.738-0.141
		c0.796,0,1.756,0.047,2.88,0.141c1.123,0.095,2.223,0.234,3.3,0.422v25.561c-2.763,1.03-5.49,1.71-8.181,2.037
		c-2.692,0.327-4.998,0.492-6.917,0.492c-4.12,0-7.726-0.645-10.814-1.933c-3.09-1.286-5.678-3.078-7.761-5.371
		c-2.083-2.294-3.641-5.032-4.67-8.217c-1.03-3.184-1.544-6.647-1.544-10.394c0-3.745,0.537-7.221,1.614-10.429
		c1.076-3.206,2.634-5.979,4.67-8.321c2.037-2.341,4.553-4.166,7.549-5.478c2.996-1.311,6.391-1.966,10.184-1.966
		c2.246,0,4.389,0.165,6.426,0.492c2.036,0.328,4.271,1.007,6.706,2.036c-0.095,1.921-0.445,3.793-1.053,5.618
		c-0.609,1.826-1.242,3.371-1.897,4.636c-0.937-0.327-1.79-0.608-2.563-0.844c-0.773-0.233-1.511-0.421-2.212-0.562
		c-0.702-0.141-1.404-0.246-2.107-0.316c-0.702-0.069-1.451-0.105-2.246-0.105c-3.793,0-6.719,1.276-8.779,3.827
		c-2.061,2.553-3.09,6.356-3.09,11.412c0,5.011,1.007,8.743,3.02,11.201c2.014,2.457,5.01,3.687,8.989,3.687
		c0.89,0,1.686-0.07,2.388-0.21V87.874z"/>
	<path fill="#3D4E5A" d="M401.019,64.839c1.077-0.187,2.201-0.327,3.371-0.421s2.364-0.14,3.581-0.14
		c0.796,0,1.826,0.059,3.09,0.175c1.265,0.117,2.341,0.245,3.23,0.386l-15.659,32.233v17.907c-2.482,0.422-4.542,0.633-6.181,0.633
		c-1.732,0-3.815-0.211-6.25-0.633V97.072c-1.218-2.527-2.492-5.161-3.827-7.9c-1.334-2.738-2.668-5.478-4.002-8.216
		c-1.335-2.739-2.658-5.479-3.968-8.217c-1.313-2.738-2.576-5.373-3.792-7.9c0.795-0.141,1.871-0.269,3.23-0.386
		c1.356-0.117,2.644-0.175,3.861-0.175c0.983,0,2.072,0.059,3.266,0.175c1.194,0.117,2.235,0.245,3.125,0.386l8.638,19.522
		L401.019,64.839z"/>
	<path fill="#3D4E5A" d="M417.101,64.839c1.076-0.141,2.727-0.339,4.951-0.596c2.224-0.257,5.021-0.387,8.392-0.387
		c2.48,0,4.986,0.235,7.514,0.702c2.528,0.469,4.811,1.347,6.848,2.634c2.036,1.288,3.686,3.104,4.95,5.443
		c1.265,2.341,1.896,5.383,1.896,9.129c0,3.323-0.503,6.087-1.51,8.286c-1.006,2.201-2.341,3.957-4.002,5.268
		c-1.663,1.311-3.559,2.247-5.688,2.809c-2.131,0.563-4.319,0.843-6.566,0.843c-0.89,0-1.79-0.035-2.703-0.105
		s-1.558-0.151-1.932-0.245v16.361c-1.217,0.234-2.317,0.397-3.3,0.492c-0.984,0.093-1.896,0.141-2.739,0.141
		c-1.64,0-3.677-0.211-6.109-0.633V64.839z M429.249,88.574c0.234,0.095,0.633,0.165,1.194,0.211
		c0.562,0.048,1.146,0.071,1.755,0.071c2.013,0,3.651-0.585,4.916-1.756c1.265-1.17,1.896-2.949,1.896-5.337
		c0-1.404-0.199-2.586-0.597-3.547c-0.398-0.958-0.948-1.731-1.65-2.317c-0.703-0.585-1.521-0.994-2.458-1.229
		c-0.938-0.234-1.921-0.352-2.949-0.352c-0.281,0-0.609,0-0.983,0c-0.375,0-0.75,0.024-1.124,0.07V88.574z"/>
	<path fill="#3D4E5A" d="M465.977,75.653h-11.729c-0.421-2.012-0.631-3.862-0.631-5.548c0-1.545,0.21-3.346,0.631-5.407h35.886
		c0.187,1.031,0.327,1.991,0.421,2.879c0.094,0.891,0.142,1.733,0.142,2.528c0,1.545-0.188,3.396-0.563,5.548h-11.728v39.326
		c-2.482,0.422-4.542,0.633-6.18,0.633c-1.732,0-3.816-0.211-6.25-0.633V75.653z"/>
	<path fill="#3D4E5A" d="M500.808,115.612c-1.732,0-3.816-0.211-6.249-0.633V64.839c1.264-0.187,2.41-0.327,3.44-0.421
		c1.029-0.094,1.942-0.14,2.739-0.14c0.842,0,1.791,0.046,2.844,0.14s2.188,0.234,3.406,0.421v50.141
		C504.506,115.401,502.446,115.612,500.808,115.612z"/>
</g>
</svg>
