<svg xmlns="http://www.w3.org/2000/svg" xmlns:xlink="http://www.w3.org/1999/xlink" preserveAspectRatio="none" width="73" height="88" viewBox="0 0 73 88"><defs><g id="a"><path fill="#1A5066" d="M-190.4-249.6q.35-.4.7-.65l-.1-.1q-11.25 3.5-14.9 3.5-14.8 0-23.3-1.2-11.45-1.65-17.9-5.35 1.6 1.95 3.55 3.8 10.8 9.75 26 9.75 15.25 0 25.95-9.75m-20.05-70.95q0-.85-.6-1.2-.45-.3-1.65-.3-5.55 1.9-6 2.2 1-.2 2.2.2 1.05.2 1.35 1 .3.25.3.8 0 1.1-.3 1.6v.15q-.15 1.75-.45 3.9-.25 1.7-.4 2.75v.25q-.2.85-.2 1v1.15h.35q.3-1.05.7-2.15 0-.15.1-.25.7-1.9 1.5-3.95 1.65-3.95 2.5-5.85v-.6q.35.4.5-.15.1-.15.1-.55m-10.7-1.9q-.35-1.6-.4-2.3l-.1-.15q-.4-.3-.7-.65 0 .1.05.5 0 .55-.7 1.2v2.1h.15q1.15-.3 1.7-.7z"/><path fill="#39C" d="M-189.7-250.25l.05-.1h-.15l.1.1m-32.1-54.7l.15-.7q-5.2 3.1-16.5 10.05-14.25 8.8-14.65 22.45v.95q.95 2.55 3.4 5.85 3.75 4.85 7.25 6.25 2.6 1.05 9.75 3.25 2.9.95 7.5.9 2.05 0 3.1-.1 1.05-.05 1.05-.2 5.15-.2 10.45-1.75 7.9-2.15 13.05-6.65 1.75-1.45 5.25-3.75 4.45-2.95 5.6-3.8 4-2.95 5.5-5.8-3.65-10.55-18.8-21.05-6.75-4.7-11.4-6.75.25.65.15 1.35-.1.45-.65 1.05 2.85 1.15 4.45 1.9 3.35 1.55 4.5 3.3v1.3q-1.1.6-2.1.6-2 0-5-4.1-1.05-1.3-2.25-2.85-.2.15-.6.4-1.45.55-3.5.6h-.4q-1.25 0-2.3-.15-.048.097-.05.15-1.2 4.3-2 6.1-2.3 4.95-6.25 4.95-.65 0-2.05-1.05-1.35-1.05-1.35-1.35 0-1.6 2.1-3 .9-.55 4.6-2.4 3.1-1.4 4.35-2.6.35-.3.6-.65v-.15q-.75-.05-1.35-.25-1.45-.45-1.35-1.15 0-.75-.25-1.15m6.35 7.8q-.1-.4-.25-.75l.15-.05q.1.3.1.8m2.3 7.3h-.9q0-.1-.05-.25h-.2q-.35-1.45-1-6.8 1.25 2.75 2.15 4v3.05m-4.55-37.2q-2.3.25-4.65 1.5.3.35.7.65l.1.15q.05.1.2.15.6.75.6 1.2 0 .55-.4.95.15 1.05.4 2.4.45 2.15.3 4.4 1 .2 2.05.2 2.3 0 3-.65.1-.1.25-.15v-2.4q-.3-.8-1.35-1-1.2-.4-2.2-.2.45-.3 6-2.2 1.2 0 1.65.3.6.35.6 1.2 0 .4-.1.55-.15.55-.5.15v1.35h3.75q.3-.55 1.1-1.95 1.1-1.9 1.45-2.3v-1.1q-.35 0-.9-.35-.45-.2-.7-.2-1.05 0-2 .55h-.55q.5-.4.75-.9.15-.45.3-.8v-1.1q-1.2 0-4.75-.45-4.2 0-5.1.05z"/><path fill="#2880A4" d="M-252.8-272.2q.1 10.55 6.9 18.8 6.45 3.7 17.9 5.35 8.5 1.2 23.3 1.2 3.65 0 14.9-3.5h.15q10-9.55 9.45-22.55-.1-2.55-.7-5.1-1.5 2.85-5.5 5.8-1.15.85-5.6 3.8-3.5 2.3-5.25 3.75-5.15 4.5-13.05 6.65-5.3 1.55-10.45 1.75 0 .15-1.05.2-1.05.1-3.1.1-4.6.05-7.5-.9-7.15-2.2-9.75-3.25-3.5-1.4-7.25-6.25-2.45-3.3-3.4-5.85m41.2-31.2q-.15 0-.4.15 1.2 1.55 2.25 2.85 3 4.1 5 4.1 1 0 2.1-.6v-1.3q-1.15-1.75-4.5-3.3-1.6-.75-4.45-1.9m-7.25 1.15q-.25.35-.6.65-1.25 1.2-4.35 2.6-3.7 1.85-4.6 2.4-2.1 1.4-2.1 3 0 .3 1.35 1.35 1.4 1.05 2.05 1.05 3.95 0 6.25-4.95.8-1.8 2-6.1m4.8 12.4h.9v-3.05q-.9-1.25-2.15-4 .65 5.35 1 6.8h.2q.05.15.05.25m7.85-30.6q-.8 1.4-1.1 1.95h-3.75v-.75q-.85 1.9-2.5 5.85-.8 2.05-1.5 3.95-.1.1-.1.25-.4 1.1-.7 2.15 1.55-.35 3.25-1.6 1.65-1.25 3.4-3.35 4.05-5.05 4.45-10.75-.35.4-1.45 2.3m-25.35 1.9q0 .65.85 1.75 1.75 2.05 6.5 5.7 1.15.85 2.1 1.5.75.65 1.5 1.1.15.1.3.15 2.2 1.5 2.95 1.5.6 0 1.15-.15v-1.2q0-.15.2-1v-.25q.15-1.05.4-2.75.3-2.15.45-3.9h-.25q-.7.65-3 .65-1.05 0-2.05-.2-3.2-.2-5.45-1.55-1.7-.9-5-3.25h-.25q-.4 1.35-.4 1.9z"/><path fill="#333" d="M-216.25-303.6h.4q1.65-.2 3-.85h.1q1.1-.65 1.5-1.35.05-.15.15-.15.05-.4.05-.7v-.2q-.05.5-.85.75-.55.15-1.2.15-1.55.15-3.4.15h-.8q-2.15-.15-2.85-.7-.05-.1-.15-.15-.65-.75-.15-1.6.05-.1.15-.1-.15-.05-.3-.15-.75.65-1.05 2.2v.65l-.15.7q.45.35.8.5 1.1.55 2.55.7.15 0 .35.1.6.05 1.2.05h.65z"/><path d="M-215.85-303.6h-1.05q-.6 0-1.2-.05-.2-.1-.35-.1-1.45-.15-2.55-.7-.35-.15-.8-.5.25.4.25 1.15-.1.7 1.35 1.15.6.2 1.35.25h.05q1.05.15 2.3.15h.4q2.05-.05 3.5-.6.4-.25.6-.4.25-.15.4-.15.55-.6.65-1.05.1-.7-.15-1.35v-.15q-.1 0-.15.15-.4.7-1.5 1.35h-.1q-1.35.65-3 .85m-.35-3.45v.05q-.55.15-1.15.15-.75 0-2.95-1.5-.1 0-.15.1-.5.85.15 1.6.1.05.15.15.7.55 2.85.7h.8q1.85 0 3.4-.15.65 0 1.2-.15.8-.25.85-.75v-.2q0-.9-1.4-1.5l-.15-.1q-1.7 1.25-3.25 1.6h-.35z"/><path fill="#55AED5" d="M-223-321.65q-1.2.25-4.45.55-2.05.25-3.45.65 3.3 2.35 5 3.25 2.25 1.35 5.45 1.55.15-2.25-.3-4.4-.25-1.35-.4-2.4-.55.4-1.7.7-.05 0-.15.1z"/></g></defs><use xlink:href="#a" transform="translate(252.8 327.1)"/></svg>