<svg xmlns="http://www.w3.org/2000/svg" xmlns:xlink="http://www.w3.org/1999/xlink" preserveAspectRatio="none" width="73" height="39" viewBox="0 0 73 39"><defs><filter id="b" x="-20%" y="-20%" width="140%" height="140%" color-interpolation-filters="sRGB"><feColorMatrix in="SourceGraphic" values="0.49 0 0 0 0.20392156862745098 0 0.49 0 0 0.10196078431372549 0 0 0.49 0 0 0 0 0 1 0" result="result1"/></filter><filter id="d" x="-20%" y="-20%" width="140%" height="140%" color-interpolation-filters="sRGB"><feColorMatrix in="SourceGraphic" values="0.73 0 0 0 0.10980392156862745 0 0.73 0 0 0.054901960784313725 0 0 0.73 0 0 0 0 0 1 0" result="result1"/></filter><g id="a"><path fill="#900" d="M100.1-321.85h.05q.45.2 2.2.4 1.65.15 2.4.7 1 .65 3.8 2.6l-.05-.35q-.1-.05-.4-.3-.6-.65-1.95-1.55-.1-.05-.2-.2-.1 0-.15-.05-1.05-.75-2.15-1-.75-.25-1.45-.25l-2.75-.45h-.1q.6.3.75.45m-1.75-.2q-.15-.1-.3-.15l-.05-.1q-.25.15-.4.25l-.05.05q-.9.5-1.6.65-.6.05-1.5.3-.9.35-1.3.35-.25 0-.6-.05l-.55.05.05.15q.7.3.9.3.1 0 .95-.15.7-.15 2-.65 1.5-.5 1.95-.8.35.35.4.5.1.35-.3 1.35-.4.9-.3 1.2l.1.35q0-.35.3-.5.15-.15.25-.2v-.05q0-.1.05-.15h.05v-.1h.05l.05-.05q.1-.15.2-.25.25-.25.4-.65.2-.55.15-.7-.2-.35-.45-.6-.1-.15-.45-.35m-6.3-.35q-.55.2-.75.25.8.35 1.7.5.65.1 1.2.1.1-.05.15-.05.25-.1.5-.15h.1l.15-.2q-.1.1-.25.1-1 .15-2.1-.2-.45-.15-.7-.35m10.9-.2h.05l1.4-.3q.55-.25.85-.4.3-.15.45-.3H105.55q-.2-.05-.35 0-.75.2-1.7.45-.05 0-1.3.05-1.35.05-1.7.15 1-.05 2.15.25.1.05.15.05.1.05.15.05z"/><path fill="#093" d="M98.05-322.2q.15.05.3.15.35.2.45.35.25.25.45.6.05.15-.15.7-.15.4-.4.65-.1.1-.2.25l.25-.15q.15-.1.25-.25.1-.1.15-.25.3-.25.35-.4 0-.05-.05-.35v-.45q-.15-.3-.55-.65-.5-.4-.85-.4v.2m.35-3q.05-.65-.2-1.15 0 .15-.15.2-.1.05-.75.15-.75.2-1.1-.1-.3-.25-.5-.35.25.3.7.75.55.65.85 1.4-.1.65 0 .8-.05 0-.1.05.05 0 .05.05l.2.3 1.1-.2q.15-.1.2-.35v-.2q-.15-.05-.2-.2-.1-.25-.1-1.15m-6.9 1.35v-.1q-.35.55-.2.8.1.45.75.75.25.2.7.35 1.1.35 2.1.2l.25-.15h.05q.35 0 .65-.15 0-.05-.6-.05h-.7q-.3.05-.65-.1-.4-.1-.6-.1-.6 0-1.15-.4-.45-.35-.6-.75v-.3m12 1.85q-.05 0-.5-.1-1.25-.3-3.65-.35l-.05.05.05.05q0 .047.1.05l2.75.45q.7 0 1.45.25 1.1.25 2.15 1-.15-.15-.2-.15-.1-.2-.35-.3-.1-.05-.2-.25-.15-.05-.35-.15-.2-.05-.45-.15-.2-.1-.35-.15-.15-.1-.4-.25m2.8-6.25q-.3 0-1.2.05.5 0 1.05.35.7.45.85.85.25.45-.2 1.15-.45.8-1.15 1.1-.1 0-.5.35 1.35-.45 1.95-.95.85-.7.4-1.95-.2-.45-.65-.7-.25-.2-.55-.25z"/><path fill="#9C0" d="M95.2-326.95l.5.5q.2.1.5.35.35.3 1.1.1.65-.1.75-.15.15-.05.15-.2-.15-.15-.2-.4-.45-.55-.7-.7-.25-.15-1.2.05l-.35.2q-.3.2-.55.25m7.8 4.35h-.05q-.05 0-.15-.05-.05 0-.15-.05-1.15-.3-2.15-.25.35-.1 1.7-.15 1.25-.05 1.3-.05.95-.25 1.7-.45 1.2-.5 2.1-1.25 1.4-1.2 1-2.25-.2-.45-1.1-.85-.5-.25-.9-.3.3.05.55.25.45.25.65.7.45 1.25-.4 1.95-.6.5-1.95.95h-.05q-.4.25-2.3.5-1.85.3-2.85.15h-.45q-.55 0-.8-.1v.2q-.05.25-.2.35l-1.1.2-.2-.3q0-.05-.05-.05-2 .8-3.3.75-.2-.1-.3-.1-1.45-.15-1.05-1.1.4-1 .45-1.35.05-.25.15-.45-.5.25-1.25 1.3-.2.2-.35.45v.4q.15.4.6.75.55.4 1.15.4.2 0 .6.1.35.15.65.1h.7q.6 0 .6.05-.3.15-.65.15l-.05.05-.15.2h-.1q-.25.05-.5.15-.05 0-.15.05-.7.25-1.1.35-.2 0-.6.1h-.7q.5.25.75.35.35.05.6.05.4 0 1.3-.35.9-.25 1.5-.3.7-.15 1.6-.65l.05-.05q.15-.1.4-.25l.05.1v-.2q.35 0 .85.4.4.35.55.65v.45q.05.3.05.35-.05.15-.35.4-.05.15-.15.25-.1.15-.25.25l-.25.15-.05.05h-.05v.1h-.05q-.05.05-.05.15v.05q-.05.15.05.7.05-.2.45-.6.5-.45.75-.7 1-1.1.7-1.85 0-.1-.1-.25h-.05q-.15-.15-.75-.45h.1q-.1-.003-.1-.05l-.05-.05.05-.05q2.4.05 3.65.35.45.1.5.1.25.15.4.25.15.05.35.15.25.1.45.15.2.1.35.15.1.2.2.25.25.1.35.3.05 0 .2.15.05.05.15.05.1.15.2.2 1.35.9 1.95 1.55.3.25.4.3l-.05-.1q-.25-.6-.4-.75-.2-.15-1.05-1.05-.7-.75-1.65-1.25-.9-.55-1.7-.75-.5-.2-.65-.2m2.1-5.6q.9-.05 1.2-.05-.55-.2-1.05-.05-.5.1-.65.15l-.05.05q-.1.1-.1.25.002-.052.1-.15 0-.05.05-.1.1-.05.2-.05.1-.05.25-.05h.05z"/><path fill="#CD0000" d="M103-322.6q.15 0 .65.2.8.2 1.7.75.95.5 1.65 1.25.85.9 1.05 1.05.15.15.4.75l.05.1.05.35q-2.8-1.95-3.8-2.6-.75-.55-2.4-.7-1.75-.2-2.2-.4.1.15.1.25.3.75-.7 1.85-.25.25-.75.7-.4.4-.45.6-.1-.55-.05-.7-.1.05-.25.2-.3.15-.3.5l-.1-.35q-.1-.3.3-1.2.4-1 .3-1.35-.05-.15-.4-.5-.45.3-1.95.8-1.3.5-2 .65-.85.15-.95.15-.2 0-.9-.3l-.05-.15.55-.05q-.25-.1-.75-.35h.7q.4-.1.6-.1.4-.1 1.1-.35-.55 0-1.2-.1-.9-.15-1.7-.5-.25.1-.65.3-.45.15-1.35.5-.85.45-1.85 1.7-.95 1.15-1.05 2.35 0 1 .35 2.45 1.6.45 3.25.6 3.75.25 9-.75 2.6-.5 3.95-.85 2.35-.6 4-1.25 2.6-1.1 3.7-2.7-1.2-2.05-2.8-2.9-1.35-.7-2.15-.9-.15.15-.45.3-.3.15-.85.4l-1.4.3m-12.15 3.65q0-.05.15-.1v.05q-.05 0-.15.05-.2.1-.4.3 0-.15.05-.15.05-.1.35-.15z"/></g><g id="c"><path fill="#DEB100" d="M38.2 12.05l.2-6.75q-.6.05-1.15.2-4.85 1.2-5.3 8.15l-2.05 12.3Q16.75 42.65 1.5 31.6H0q1.8 5.85 9.8 9.9 15.25 4.25 24.4-8.85Q38.7 48.2 56.15 49.8q6.2-1.1 7.9-3.75-19.4 3.5-24.5-10.7-3.65-11.15-1.35-23.3m3.15-6.55l3 6.8 3.05 19q13.65.4 13.85-13.6.45-3.55-1.9-2.45-6.3 7.5-12.6 8.3V13.9q-1.65-7.2-5.4-8.4z"/><path fill="#600" d="M40.85 5.35q.25.05.5.15l-.5-5.5h-2.4l-1.2 5.5q.55-.15 1.15-.2 1.15-.1 2.45.05z"/><path fill="#FC0" d="M44.35 12.3l-3-6.8q-.25-.1-.5-.15-1.3-.15-2.45-.05l-.2 6.75q-2.3 12.15 1.35 23.3 5.1 14.2 24.5 10.7.8-1.2.65-2.7Q52.45 49 47.4 31.3l-3.05-19z"/></g><g id="e"><path fill="#DEB100" d="M57.75 10.1q-2.4-4.6-9.05-3.3l-12.2 1Q25.15 2.65 11.6 0q8.35 9.3 19.8 13.85Q21.95 19.8 0 43.5q25.35-20 30.3-23.55 9.5-6.5 21.55-7.25l6.4-1.5q-.2-.6-.5-1.1z"/><path fill="#FC0" d="M53.3 18.95l5.55-4.75q.05-.25.05-.55-.2-1.3-.65-2.45l-6.4 1.5q-12.05.75-21.55 7.25Q25.35 23.5 0 43.5q20.35-9.9 14.75-5.75 13.1-5.7 21.45-10.95l17.1-7.85z"/><path fill="#600" d="M63.95 12.3l-.65-2.4-5.55.2q.3.5.5 1.1.45 1.15.65 2.45 0 .3-.05.55l5.1-1.9z"/></g></defs><use xlink:href="#a" transform="translate(-40.8 352.35)"/><use filter="url(#b)" xlink:href="#c" transform="rotate(.453) scale(.5862)"/><use filter="url(#d)" xlink:href="#e" transform="matrix(.5862 0 0 .5862 25.6 2.3)"/></svg>