<svg xmlns="http://www.w3.org/2000/svg" xmlns:xlink="http://www.w3.org/1999/xlink" preserveAspectRatio="none" width="132" height="75" viewBox="0 0 132 75"><defs><linearGradient id="a" gradientUnits="userSpaceOnUse" x1="41.625" y1="32.088" x2="39.775" y2="47.313"><stop offset="9.804%" stop-color="#626262"/><stop offset="88.235%"/></linearGradient><linearGradient id="b" gradientUnits="userSpaceOnUse" x1="42.563" y1="24.95" x2="40.438" y2="42.35"><stop offset="9.804%" stop-color="#626262"/><stop offset="88.235%"/></linearGradient><linearGradient id="c" gradientUnits="userSpaceOnUse" x1="43.112" y1="19.438" x2="40.987" y2="36.763"><stop offset="9.804%" stop-color="#626262"/><stop offset="88.235%"/></linearGradient><linearGradient id="d" gradientUnits="userSpaceOnUse" x1="44.05" y1="6.725" x2="42.95" y2="23.675"><stop offset="0%" stop-color="#626262"/><stop offset="100%"/></linearGradient><linearGradient id="e" gradientUnits="userSpaceOnUse" x1="42.9" y1="21.475" x2="44.4" y2="9.225"><stop offset="9.804%" stop-color="#626262"/><stop offset="88.235%"/></linearGradient><linearGradient id="f" gradientUnits="userSpaceOnUse" x1="44.513" y1="7.412" x2="41.688" y2="30.587"><stop offset="9.804%" stop-color="#626262"/><stop offset="88.235%"/></linearGradient><filter id="g" x="-20%" y="-20%" width="140%" height="140%" color-interpolation-filters="sRGB"><feColorMatrix in="SourceGraphic" values="0.64 0 0 0 0.07058823529411765 0 0.64 0 0 0.21568627450980393 0 0 0.64 0 0.28627450980392155 0 0 0 1 0" result="result1"/></filter><g id="h"><path fill="url(#a)" d="M82.75 37.15q-.25.2-.45.5-.2.25-.45.55-2.55 3.55-12.25 5.35-12.5 2.3-29.5.2-17-2.05-28.5-7.3-5.1-2.35-7.85-4.65-2.15-1.75-2.8-3.6l-.3-.5q-.05-.15-.1-.25.45 2.1 1.4 4 .1.25.25.55.65 1.8 2.7 3.6 2.6 2.3 7.45 4.55 11.1 5.15 27.4 7.15 16.3 2 28.25-.35 9.3-1.8 11.8-5.4.2-.3.45-.55 1.45-1.75 2.5-3.85z"/><path d="M82.5 36.25q-.25.25-.5.55-2.55 3.55-12.25 5.35-12.45 2.3-29.45.2-17-2.05-28.55-7.3-5.1-2.3-7.8-4.6-2.2-1.8-2.8-3.65-.2-.25-.3-.5-.45-.85-.75-1.7.1 1.45.45 2.85.05.1.1.25l.3.5q.65 1.85 2.8 3.6 2.75 2.3 7.85 4.65 11.5 5.25 28.5 7.3 17 2.1 29.5-.2 9.7-1.8 12.25-5.35.25-.3.45-.55.2-.3.45-.5.6-1.25 1.05-2.65-.6.9-1.3 1.75m2.35-6.1l.1-.9.1-.5q-.75 1-1.55 2-.2.2-.5.45-2.6 3.6-12.5 5.35-12.75 2.25-30.1.15-17.35-2.15-29.2-7.4-5.15-2.3-7.95-4.6Q1.1 22.9.4 21.05q-.15-.25-.35-.5-.05.75-.05 1.5.05.25.25.4.7 1.8 2.85 3.65 2.75 2.3 7.95 4.6 11.85 5.25 29.2 7.4 17.35 2.1 30.1-.15 9.85-1.75 12.5-5.35.25-.25.45-.55.25-.2.45-.5.6-.65 1.1-1.4m.35-5.55q-.05-.6-.15-1.1-.35.5-.8 1.05-.2.25-.5.5-2.6 3.55-12.45 5.3-12.8 2.3-30.15.2Q23.8 28.4 12 23.1q-5.2-2.3-8-4.6-2.15-1.8-2.85-3.6-.1-.1-.1-.2-.2.5-.35 1.1.1.3.3.5.7 1.8 2.85 3.6 2.75 2.3 7.95 4.6 11.85 5.3 29.2 7.45 17.35 2.1 30.1-.2Q80.95 30 83.6 26.4q.25-.2.45-.5.25-.25.45-.55.35-.35.7-.75m-33.15-1.5q1.45-.05 2.85-.15-5.2-1.7-11.9-2.55-6.7-.8-12.1-.35 1.25.4 2.55.75.05.05.15.05h.3q4.3.2 8.95.75 4.85.6 9.2 1.5z"/><path fill="url(#b)" d="M83.75 31.55q-.2.3-.45.5-.2.3-.45.55-2.65 3.6-12.5 5.35-12.75 2.25-30.1.15-17.35-2.15-29.2-7.4-5.2-2.3-7.95-4.6Q.95 24.25.25 22.45q-.2-.15-.25-.4 0 1.35.1 2.55.3.85.75 1.7.1.25.3.5.6 1.85 2.8 3.65 2.7 2.3 7.8 4.6 11.55 5.25 28.55 7.3 17 2.1 29.45-.2 9.7-1.8 12.25-5.35.25-.3.5-.55.7-.85 1.3-1.75.65-2.05 1.05-4.35-.5.75-1.1 1.4z"/><path fill="url(#c)" d="M84.05 25.9q-.2.3-.45.5-2.65 3.6-12.5 5.35-12.75 2.3-30.1.2-17.35-2.15-29.2-7.45-5.2-2.3-7.95-4.6Q1.7 18.1 1 16.3q-.2-.2-.3-.5-.35 1.5-.55 3.1-.1.8-.1 1.55v.1q.2.25.35.5.7 1.85 2.85 3.65 2.8 2.3 7.95 4.6 11.85 5.25 29.2 7.4 17.35 2.1 30.1-.15Q80.4 34.8 83 31.2q.3-.25.5-.45.8-1 1.55-2 .2-2.2.15-4.15-.35.4-.7.75-.2.3-.45.55z"/><path fill="#333" d="M83.2 18.55q.15-1.55-.6-3-.4-.75-.85-1.35-1.25-1.7-2.8-2.6-2.4-1.75-6.2-3.55Q61.7 2.9 45.4.9t-28.3.35q-4.15.85-6.9 2-3.8 1.6-5.1 3.85-.5.85-.6 1.85-.65 5.3 10.35 10.45 2.15 1.05 4.4 1.85 1.15.45 2.3.85.1 0 .2.1.3.05.55.15 8.7 2.9 19.95 4.25 11.25 1.4 20.45.7.3-.05.55-.05l2.6-.3q2.45-.25 4.65-.75 12.05-2.35 12.7-7.65m-15.9-2.1q.35.8.25 1.6-.05.45-.25.85-.5 1.35-2.25 2.35-.3.2-.6.35-1.85.9-4.7 1.5-2.1.45-4.45.7-1.45.1-3 .2-.1-.05-.2 0-4.45.1-9.6-.5-5.3-.65-9.65-1.9h-.2q-1.35-.45-2.65-.9-2.25-.8-4.2-1.75-3.1-1.5-4.65-3.05-.3-.25-.55-.55-.95-1.15-1.1-2.2-.05-.5 0-.95.05-.5.3-.95.1-.3.3-.55 1.55-2.3 7.1-3.5 7.35-1.55 17.3-.35 9.95 1.2 16.65 4.5 4.7 2.25 5.95 4.65.1.2.2.45z"/><path fill="url(#d)" d="M67.55 18.05q.1-.8-.25-1.6-.1-.25-.2-.45-1.25-2.4-5.95-4.65-6.7-3.3-16.65-4.5-9.95-1.2-17.3.35-5.55 1.2-7.1 3.5-.2.25-.3.55-.25.45-.3.95-.05.45 0 .95.15 1.05 1.1 2.2.25.3.55.55 1.55 1.55 4.65 3.05 1.95.95 4.2 1.75 1.3.45 2.65.9h.2q4.35 1.25 9.65 1.9 5.15.6 9.6.5.1-.05.2 0 1.55-.1 3-.2 2.35-.25 4.45-.7 2.85-.6 4.7-1.5.3-.15.6-.35 1.75-1 2.25-2.35.2-.4.25-.85m-1.3-1.6q.3.75.2 1.5-.05.35-.2.75-.5 1.15-2.1 2.05l-.6.3q-1.75.8-4.45 1.3-2 .4-4.2.6-1.4.1-2.85.15h-.2q-4.2.05-9.1-.55-5-.6-9.15-1.7-.1 0-.15-.05-1.3-.35-2.55-.75-2.1-.75-4-1.6-2.9-1.4-4.4-2.8-.3-.2-.55-.5-.85-1-1.05-2-.1-.35-.05-.75.05-.5.3-.95.1-.25.35-.45 1.4-2.05 6.7-3.1 6.95-1.35 16.35-.2Q54 8.85 60.4 11.8q4.4 2.1 5.65 4.2.1.25.2.45z"/><path fill="url(#e)" d="M66.05 18q-.1-.2-.2-.45-1.2-2.1-5.65-4.2-6.4-2.95-15.85-4.1-9.4-1.15-16.35.2-5.3 1.05-6.7 3.1-.25.2-.3.45-.1.1-.1.15.2 1 1.05 2 .25.3.55.5 1.5 1.4 4.4 2.8 1.9.85 4 1.6 5.4-.45 12.1.35 6.7.85 11.9 2.55 2.2-.2 4.2-.6 2.7-.5 4.45-1.3l.6-.3q1.6-.9 2.1-2.05-.05-.4-.2-.7z"/><path fill="#666" d="M65.85 17.55q.1.25.2.45.15.3.2.7.15-.4.2-.75.1-.75-.2-1.5-.1-.2-.2-.45-1.25-2.1-5.65-4.2Q54 8.85 44.55 7.7q-9.4-1.15-16.35.2-5.3 1.05-6.7 3.1-.25.2-.35.45-.25.45-.3.95-.05.4.05.75 0-.05.1-.15.05-.25.3-.45 1.4-2.05 6.7-3.1 6.95-1.35 16.35-.2 9.45 1.15 15.85 4.1 4.45 2.1 5.65 4.2z"/><path fill="url(#f)" d="M82.6 15.55q.75 1.45.6 3-.65 5.3-12.7 7.65-2.2.5-4.65.75l-2.6.3q-.25 0-.55.05-9.2.7-20.45-.7Q31 25.25 22.3 22.35q-.25-.1-.55-.15-.1-.1-.2-.1-1.15-.4-2.3-.85-2.25-.8-4.4-1.85-11-5.15-10.35-10.45.1-1 .6-1.85 1.3-2.25 5.1-3.85-2.8.85-5.3 3.85-2.65 3.15-3.85 7.6 0 .1.1.2.7 1.8 2.85 3.6 2.8 2.3 8 4.6 11.8 5.3 29.15 7.45 17.35 2.1 30.15-.2 9.85-1.75 12.45-5.3.3-.25.5-.5.45-.55.8-1.05-.3-3.75-1.85-6.85-.3-.6-.6-1.1z"/></g></defs><use filter="url(#g)" xlink:href="#h" transform="scale(1.5394)"/></svg>