<svg xmlns="http://www.w3.org/2000/svg" xmlns:xlink="http://www.w3.org/1999/xlink" preserveAspectRatio="none" width="86" height="36" viewBox="0 0 86 36"><defs><g id="a"><path fill="#7B8EB8" d="M347.35-75.45q-.95-4.5-4.5-7.4L322.5-84.7q1.25 3.4 1.75 6.9l23.1 2.35m-1.4 15.6l.95-10.65-22.35-2.05q-.2 8.15-4.3 16.95l19.8 1.8q4.15-1.15 5.9-6.05M270-80.25l-1.6-.15q.1.35.1.7.1 1.05.1 2.05.05.35.05.65.05 2.9-.5 5.55l-.3 1.1-.2.8q-.1.4-.3.85l1.6.15q1.55-5.4 1.05-11.7m24.35 21.5v-.05q1.9-6 2.65-12.3l-19.15-1.75q-.7 6.95-3.45 13.2l19.15 1.8.8-.9m2.5-27.45q-.1-.45-.6-.9l-19.5-1.8q1.1 5.2 1.25 10.05l19.35 1.75q.05-4.35-.5-8.9-.05-.1 0-.2z"/><path fill="#8EA4D4" d="M324.5-75.7v.25q.05 1.5.05 2.9l22.35 2.05.3-3.1-22.7-2.1M297-71.1q.15-1.8.3-3.55l-19.25-1.85q-.1 1.8-.2 3.65L297-71.1z"/><path fill="#C0C6D4" d="M324.25-77.8q.15 1.05.25 2.1l22.7 2.1.15-1.85-23.1-2.35m-51.4-5.9q-.25.65-.55 2-.65 2.85-1.05 6.95-.35 4.15-.25 7.1.1 2.95.6 3 .5.05 1.1-2.85.7-2.85 1.05-7 .4-4.1.25-7.05-.05-2.7-.45-2.95l-.7.8m24.45 9.05q.05-1.2.05-2.45L278-78.85q.05 1.2.05 2.35l19.25 1.85z"/><path fill="#C00" d="M262.6-71.35q-.1.25-.15.5l5.4.5.3-1.1-5.45-.5q-.1.3-.1.6m.65-6.8q.05.35.05.7l5.35.45q0-.3-.05-.65l-5.35-.5z"/><path fill="#F00" d="M268.65-77l-5.35-.45q-.05 1.05-.15 2.35-.2 1.8-.45 3.15l5.45.5q.55-2.65.5-5.55z"/><path fill="#900" d="M263.3-77.45q0-.35-.05-.7l5.35.5q0-1-.1-2.05l-5.8-.5q-.2.3-.45 1.35-.3 1.5-.5 3.65-.2 2.2-.15 3.75.05 1.55.35 1.55.1 0 .2-.2l5.5.55.2-.8-5.4-.5q.05-.25.15-.5 0-.3.1-.6.25-1.35.45-3.15.1-1.3.15-2.35z"/><path fill="#AFBAD4" d="M272.3-81.7q.3-1.35.55-2L270-80.25q.5 6.3-1.05 11.7l5.45 8.9q2.75-6.25 3.45-13.2.1-1.85.2-3.65 0-1.15-.05-2.35-.15-4.85-1.25-10.05l-3.2 4.4q.4.25.45 2.95.15 2.95-.25 7.05-.35 4.15-1.05 7-.6 2.9-1.1 2.85-.5-.05-.6-3-.1-2.95.25-7.1.4-4.1 1.05-6.95z"/><path fill="#86546F" d="M323.2-75.55q-.3-4.15-1.45-8.35l-1.25-.15-23.65-2.15q-.05.1 0 .2.55 4.55.5 8.9 0 1.25-.05 2.45-.15 1.75-.3 3.55-.75 6.3-2.65 12.3l24.35 2.25.5.05q3.9-7.9 4.05-16.2 0-1.4-.05-2.85z"/><path fill="#70769A" d="M322.5-84.7l-2 .65 1.25.15q1.15 4.2 1.45 8.35.05 1.45.05 2.85-.15 8.3-4.05 16.2l-.5-.05 1.55.95q4.1-8.8 4.3-16.95 0-1.4-.05-2.9v-.25q-.1-1.05-.25-2.1-.5-3.5-1.75-6.9z"/></g></defs><use xlink:href="#a" transform="translate(-261.6 88.9)"/></svg>