<svg xmlns="http://www.w3.org/2000/svg" xmlns:xlink="http://www.w3.org/1999/xlink" preserveAspectRatio="none" width="106" height="53" viewBox="0 0 106 53"><defs><g id="a"><path fill="#7C9FC5" d="M-27.95 69.95q.05-.15 0-.3l-.7-7.45q-1.2-2.7-4.3-.75-3.65 4.25-4.85 11.25l2.7 13.45q6.55 8.6 8.85 7.8 2.25.25 1-8.8-2.45-7.4-2.7-15.2z"/><path fill="#406EA9" d="M50.6 52.3q.1-.5.25-1.05-8.6-4.75-19.6-5.05L-29.4 58.35q-9.35 4.3-8.4 14.35 1.2-7 4.85-11.25 3.1-1.95 4.3.75l.7 7.45q-.1-4.3.5-8.8l44.6-8.9 10.5-4.4q14.45.4 22.95 4.75z"/><path fill="#EAD8E6" d="M66.35 66.05Q64.3 61.9 63.6 55l-5.05 1q-.65 4.45 1.6 9.95.35.75.7 1.55l5.5-1.45z"/><path fill="#FFF" d="M66.35 66.05Q66.8 58.6 63.6 55q.7 6.9 2.75 11.05z"/><path fill="#1E599B" d="M24.1 86.8Q23 84.25 22 81.75 16 66 17.15 51.95l-44.6 8.9q-.6 4.5-.5 8.8.05.15 0 .3.25 7.8 2.7 15.2 1.8 5.4 4.75 10.55l44.6-8.9m-9.9-33.35q.25.65.1.95.15.85-.65 1.6-1.1.75-2.7 1.05-1.05.15-1.65-1.85-.05-.4-.15-.75l5.05-1m-3.55 4.95q-.25.05-.4.1l.2 1.8-.35.05q-.1-1.25-.35-2.45l4.7-.95q.1 1.3.15 2.55-.35.05-1.05.3-.05-.95-.15-1.85-.9.15-1.85.3.1.6.05 1.35-.55.1-.8.1-.05-.65-.15-1.3m3.05 2.9q0-.7-.1-1.3.65-.15 1-.2.15 1.55.35 3.25-.3.05-1 .25-.1-.75-.15-1.4-3.1.55-3.5.65v-.6q-.5-.15 3.4-.65m-9.75 8.4Q2.85 71.3 1 71.65q-1.9.4-3.45-.65-1.6-1.1-2-2.95-.4-1.9.7-3.45 1.05-1.6 2.95-2 1.85-.35 3.45.7 1.55 1.05 1.95 2.95.4 1.85-.65 3.45m11.5-2.95q.1.15.1.4.05.4.15.7.55 1.3-1.85 1.95-.55.15-1.45-.05-.55-.25-.65-.45 0 .55-.35 1.4-.05-.4-.15-.85.35-.7.35-1.3-.05-.3-.1-.45-.05.1-.5.25 0-.4-.1-.7-.7-.1 4.55-.9m-4.5-1.65q.1.8.2 1.75l-.3.1q-.2-1.3-.3-2.5-.7-.05 4.45-.9.25 1.2.35 2.6-.3.05-1.05.2-.1-1-.25-1.9-.9.25-1.9.4l.2 1.3q-.75.05-1 .1 0-.65-.1-1.35-.25-.05-.3.2m1.45 9q-.1-.25-.3-.55-.2-.55-.35-.8 0-1 .1-1.5-.2-.7.3-.7 2.15-.15 3.25.1 1.1.2 1.1 1.35.25.5-.3 1.15-.35-.05-1 0 .25-.3.35-.5.1-.45 0-.55.1-.65-1-.7-.85-.15-2.3-.15-.35-.05-.2.5-.05.3.15 1 0 .3.15.6 0-.1.15-.15-.15-.35-.2-.6h.65q.15.65.35 1.25-.95 0-.9.25m5.2 2.25q-.25.1-.9.25-.3-1-.5-1.85-.9.3-1.95.4.25.65.45 1.35-.85.1-1.25.05-.15-.7-.35-1.4-.2 0-.2.2.25.9.55 1.9.05.05-.25.2-.4-1.4-.8-2.6-.8-.25 4.55-.95.3 1.15.65 2.45m1 2.9q.1.25.2.65-4 .55-4.5 1-.65-1.7 1.05-2.6-1.65-.05-1.75.3-.1-.3-.2-.5-.9-.25 4.4-1.15.15.15.1.35-1.55 1.65-3.4 2.7 2.1 0 4.1-.75m-7.4 2.25q1.25-.25 2.35.5t1.35 2q.25 1.3-.45 2.45-.75 1.05-2 1.3-1.3.3-2.4-.45-1.15-.75-1.4-2.05-.25-1.25.5-2.4.75-1.05 2.05-1.35m3.95 1.8q-.05-.2-.1-.35-1.25-.6 3.55-1.05-.2-.6-.5-1.3.65-.1.85-.2.65 1.6 1.25 3.25-.3.05-.9.25-.2-.7-.45-1.35-3.2.3-3.7.75m1.35 2.3q-.25.05-.2.45.3.9.5 1.9.1.15-.35.2-.2-1.3-.6-2.6-1.1-.6 4.55-1.4.45 1.2 1 2.55-.35.1-.95.3-.35-1.05-.7-1.95-.7.3-1.85.55.25.6.45 1.3-.8.15-1.5.1-.2-.75-.35-1.4M1.25 78.4q.2.9-.3 1.7-.5.75-1.4.95-.95.15-1.7-.35t-.95-1.4q-.15-.9.35-1.7.45-.8 1.4-.95.9-.2 1.7.35.75.5.9 1.4m-17.55 3.25q1.55-.3 2.9.5 1.3.95 1.6 2.5.3 1.55-.5 2.85-.95 1.35-2.5 1.65-1.55.3-2.85-.55-1.4-.9-1.7-2.45-.3-1.55.6-2.9.9-1.3 2.45-1.6m30.95-13.7q.15-.3 0-.25-1.15.2-2.35.4.15.1 0 .25.2.4.35.65.45.15 1.05.05.85-.2.9-.4.35-.4.05-.7M13.2 54.6q.1-.2 0-.3l-3.4.65q0 .15.05.4l.2.8q.15.2.75.2 2.5-.5 2.4-1.75z"/><path fill="#69C" d="M-13.4 82.15q-1.35-.8-2.9-.5-1.55.3-2.45 1.6-.9 1.35-.6 2.9.3 1.55 1.7 2.45 1.3.85 2.85.55 1.55-.3 2.5-1.65.8-1.3.5-2.85-.3-1.55-1.6-2.5M.95 80.1q.5-.8.3-1.7-.15-.9-.9-1.4-.8-.55-1.7-.35-.95.15-1.4.95-.5.8-.35 1.7.2.9.95 1.4.75.5 1.7.35.9-.2 1.4-.95m12.6 1.9q-1.1-.75-2.35-.5-1.3.3-2.05 1.35-.75 1.15-.5 2.4.25 1.3 1.4 2.05 1.1.75 2.4.45 1.25-.25 2-1.3.7-1.15.45-2.45-.25-1.25-1.35-2M1 71.65q1.85-.35 2.95-1.95 1.05-1.6.65-3.45-.4-1.9-1.95-2.95-1.6-1.05-3.45-.7-1.9.4-2.95 2-1.1 1.55-.7 3.45.4 1.85 2 2.95 1.55 1.05 3.45.65z"/><path d="M16.3 86.05q-.05-.4.2-.45.15.65.35 1.4.7.05 1.5-.1-.2-.7-.45-1.3 1.15-.25 1.85-.55.35.9.7 1.95.6-.2.95-.3-.55-1.35-1-2.55-5.65.8-4.55 1.4.4 1.3.6 2.6.45-.05.35-.2-.2-1-.5-1.9m-1.25-3.1q.05.15.1.35.5-.45 3.7-.75.25.65.45 1.35.6-.2.9-.25-.6-1.65-1.25-3.25-.2.1-.85.2.3.7.5 1.3-4.8.45-3.55 1.05m3.75-3.05q-.1-.4-.2-.65-2 .75-4.1.75 1.85-1.05 3.4-2.7.05-.2-.1-.35-5.3.9-4.4 1.15.1.2.2.5.1-.35 1.75-.3-1.7.9-1.05 2.6.5-.45 4.5-1m-2.1-3.3q.65-.15.9-.25-.35-1.3-.65-2.45-5.35.7-4.55.95.4 1.2.8 2.6.3-.15.25-.2-.3-1-.55-1.9 0-.2.2-.2.2.7.35 1.4.4.05 1.25-.05-.2-.7-.45-1.35 1.05-.1 1.95-.4.2.85.5 1.85m-4.6-3.05q.2.3.3.55-.05-.25.9-.25-.2-.6-.35-1.25h-.65q.05.25.2.6-.15.05-.15.15-.15-.3-.15-.6-.2-.7-.15-1-.15-.55.2-.5 1.45 0 2.3.15 1.1.05 1 .7.1.1 0 .55-.1.2-.35.5.65-.05 1 0 .55-.65.3-1.15 0-1.15-1.1-1.35-1.1-.25-3.25-.1-.5 0-.3.7-.1.5-.1 1.5.15.25.35.8m-.95-6.7q-.1-.95-.2-1.75.05-.25.3-.2.1.7.1 1.35.25-.05 1-.1l-.2-1.3q1-.15 1.9-.4.15.9.25 1.9.75-.15 1.05-.2-.1-1.4-.35-2.6-5.15.85-4.45.9.1 1.2.3 2.5l.3-.1m4.4.3q0-.25-.1-.4-5.25.8-4.55.9.1.3.1.7.45-.15.5-.25.05.15.1.45 0 .6-.35 1.3.1.45.15.85.35-.85.35-1.4.1.2.65.45.9.2 1.45.05 2.4-.65 1.85-1.95-.1-.3-.15-.7m-.9.55q.15-.05 0 .25.3.3-.05.7-.05.2-.9.4-.6.1-1.05-.05-.15-.25-.35-.65.15-.15 0-.25 1.2-.2 2.35-.4M13.6 60q.1.6.1 1.3-3.9.5-3.4.65v.6q.4-.1 3.5-.65.05.65.15 1.4.7-.2 1-.25-.2-1.7-.35-3.25-.35.05-1 .2m-3.35-1.5q.15-.05.4-.1.1.65.15 1.3.25 0 .8-.1.05-.75-.05-1.35.95-.15 1.85-.3.1.9.15 1.85.7-.25 1.05-.3-.05-1.25-.15-2.55l-4.7.95q.25 1.2.35 2.45l.35-.05-.2-1.8m4.05-4.1q.15-.3-.1-.95l-5.05 1q.1.35.15.75.6 2 1.65 1.85 1.6-.3 2.7-1.05.8-.75.65-1.6m-1.1-.1q.1.1 0 .3.1 1.25-2.4 1.75-.6 0-.75-.2l-.2-.8q-.05-.25-.05-.4l3.4-.65z"/><path fill="#73819C" d="M34.6 86.5q-3.6-2.3-.85-5.05-5.55-1.1-2.6-8.8-5.75 2.3-9.15 9.1 1 2.5 2.1 5.05l-44.6 8.9q-2.95-5.15-4.75-10.55 1.25 9.05-1 8.8-2.3.8-8.85-7.8l.15.85q3.9 11.6 12.35 10.95L34.6 86.5z"/><path fill="#D8D7E5" d="M33.75 81.45Q31 84.2 34.6 86.5l6.25-1.25Q52.4 81 60.85 67.5q-.35-.8-.7-1.55l-6.1 7.3-1.7-2.65q-6.9 9.35-16.6 10.95-1.1 0-2-.1m-2.6-8.8q.3-.65.55-1.3 7.5-5.35 19.9-5.3-2.25-6.75-1-13.75-8.5-4.35-22.95-4.75l-10.5 4.4Q16 66 22 81.75q3.4-6.8 9.15-9.1z"/><path fill="#A8AFCB" d="M31.7 71.35q-.25.65-.55 1.3-2.95 7.7 2.6 8.8.9.1 2 .1-3-5.1 1.9-10.5 5.7-3.9 12.55-2.5l2.15 2.05 1.7 2.65 6.1-7.3q-2.25-5.5-1.6-9.95-4.25-2.8-7.7-4.75-.15.55-.25 1.05-1.25 7 1 13.75-12.4-.05-19.9 5.3z"/></g></defs><use xlink:href="#a" transform="translate(37.9 -46.2)"/></svg>