<svg xmlns="http://www.w3.org/2000/svg" xmlns:xlink="http://www.w3.org/1999/xlink" preserveAspectRatio="none" width="60" height="46" viewBox="0 0 60 46"><defs><g id="a"><path fill="#EEF7F5" d="M257.3 199.85q3.4 17.95-13.9 15.4 40.2 20.85 13.9-15.4m-18.15-5.7q-.15 0-.35-.05l-8.05-3.8q8.7 6.4.95 8.7l2.35 2q.05 0 .15.1.15.1.2.15.55.25 1.5-.4 1.15-.7 2.2-2.25 1-1.45 1.35-2.75.2-1.2-.15-1.6-.05-.05-.15-.1m-14.7-4.85q-.55.95-.75 1.75-.2.8.1 1.1-.1.1 0 .15l.1.05q.25.2.75-.05.2-.1.4-.25.7-.45 1.3-1.4.65-.9.85-1.75.05 0 .05-.25.05-.5-.2-.85l-.2-.15q-.35-.05-1 .3-.75.45-1.4 1.35z"/><path fill="#CCE6E6" d="M280.7 219.05q.75-3.2-.6-4.25l-25.05-17.45q1.2 1.25 2.25 2.5 26.3 36.25-13.9 15.4l24 16.6q.1.2.4.4 1.45 1 4.2-.85 2.75-1.95 5.3-5.5 2.55-3.65 3.4-6.85m-10.3 2.2q2.15-2.95 4.3-4.6 2.2-1.7 3.3-.9.95.65.2 3.3-.65 2.65-2.8 5.65-2.2 3.1-4.25 4.55-2.25 1.6-3.25.9-1.1-.65-.25-3.3.75-2.55 2.75-5.6m-31.1-27q.35.4.15 1.6-.35 1.3-1.35 2.75-1.05 1.55-2.2 2.25-.95.65-1.5.4l-.05.1q-.35-.25 1.15 5.05 1.7 5.35 3.85 5.9.05.1.15.15l.1.05.05.05q1.367.907 4.15-.9 2.75-1.8 5.25-5.45 2.5-3.7 3.35-6.85.7-3.2-.55-4.25l-.35-.3q-3.2-1.75-12.2-.55m-10.7-4.4l.1-.2-.1-.1q.2-.5-.05-.9l-1.5-.85q.25.35.2.85 0 .25-.05.25-.2.85-.85 1.75-.6.95-1.3 1.4-.2.15-.4.25-.5.25-.75.05l-.1-.05 1 .95q0 .1.15.2l.05.05q.4.3 1.05-.1l.1-.15h.1q.75-.55 1.4-1.55.7-1 .95-1.85z"/><path fill="#83C0C0" d="M274.7 216.65q-2.15 1.65-4.3 4.6-2 3.05-2.75 5.6-.85 2.65.25 3.3 1 .7 3.25-.9 2.05-1.45 4.25-4.55 2.15-3 2.8-5.65.75-2.65-.2-3.3-1.1-.8-3.3.9z"/><path fill="#FFF" d="M255.05 197.35l-3.2-2.25q1.25 1.05.55 4.25-.85 3.15-3.35 6.85-2.5 3.65-5.25 5.45-2.783 1.807-4.15.9l3.75 2.7q17.3 2.55 13.9-15.4-1.05-1.25-2.25-2.5m-26.35-7.7l-.1.2q-.25.85-.95 1.85-.65 1-1.4 1.55h-.1l-.1.15 5.65 5.6q7.75-2.3-.95-8.7l-2.15-.75.1.1z"/></g></defs><use xlink:href="#a" transform="translate(-223.6 -187.65)"/></svg>