
<svg xmlns="http://www.w3.org/2000/svg" version="1.1" xmlns:xlink="http://www.w3.org/1999/xlink" preserveAspectRatio="none" x="0px" y="0px" width="249px" height="178px" viewBox="0 0 249 178">
<defs>
<g id="Layer0_0_FILL">
<path fill="#999999" stroke="none" d="
M 249.25 71
Q 249.25 69.6 249.1 68.15 249.25 66.8 249.25 65.3 249.25 38.2 212.65 19.15 176.2 0 124.7 0 73.05 0 36.55 19.15 0 38.2 0 65.3 0 66.8 0.2 68.15 0 69.6 0 71 0 93.7 25.9 110.85
L 28.85 120.85
Q 30.6 131.45 37 140.7 42.4 148.4 51.15 155.2 53.9 157.4 56.9 159.3 59.25 160.9 61.8 162.4 64.5 164 67.3 165.45 92.65 178.45 125.85 178.45 133.2 178.45 140.25 177.8 152.6 176.6 163.65 173.55 174.1 170.6 183.45 165.95 189.25 163 194.7 159.3 196.95 157.85 198.9 156.4 199.25 156.25 199.5 155.95 208.05 149.45 213.5 142.15 220.3 133 222.35 122.65
L 226.15 108.95
Q 249.25 92.45 249.25 71
M 125.4 5.65
Q 127.85 5.65 130.3 5.7 127.5 5.7 124.7 5.7 123.65 5.7 122.75 5.7 124.1 5.65 125.4 5.65 Z"/>
</g>
</defs>

<g transform="matrix( 1, 0, 0, 1, 0,0) ">
<use xlink:href="#Layer0_0_FILL"/>
</g>
</svg>
