
<svg xmlns="http://www.w3.org/2000/svg" version="1.1" xmlns:xlink="http://www.w3.org/1999/xlink" preserveAspectRatio="none" x="0px" y="0px" width="249px" height="178px" viewBox="0 0 249 178">
<defs>
<linearGradient id="Gradient_1" gradientUnits="userSpaceOnUse" x1="69.95" y1="440.45" x2="51.55" y2="440.45" spreadMethod="pad">
<stop  offset="65.09803921568627%" stop-color="#94B849"/>

<stop  offset="95.29411764705883%" stop-color="#74982B"/>
</linearGradient>

<linearGradient id="Gradient_2" gradientUnits="userSpaceOnUse" x1="55.875" y1="431.1" x2="44.724999999999994" y2="431.1" spreadMethod="pad">
<stop  offset="65.09803921568627%" stop-color="#94B849"/>

<stop  offset="95.29411764705883%" stop-color="#74982B"/>
</linearGradient>

<linearGradient id="Gradient_3" gradientUnits="userSpaceOnUse" x1="86.15" y1="449.05" x2="65.85" y2="449.05" spreadMethod="pad">
<stop  offset="65.09803921568627%" stop-color="#94B849"/>

<stop  offset="95.29411764705883%" stop-color="#74982B"/>
</linearGradient>

<linearGradient id="Gradient_4" gradientUnits="userSpaceOnUse" x1="157.8125" y1="460.75" x2="182.4875" y2="460.75" spreadMethod="pad">
<stop  offset="65.09803921568627%" stop-color="#94B849"/>

<stop  offset="95.29411764705883%" stop-color="#74982B"/>
</linearGradient>

<linearGradient id="Gradient_5" gradientUnits="userSpaceOnUse" x1="182.5" y1="455.95" x2="205.5" y2="455.95" spreadMethod="pad">
<stop  offset="65.09803921568627%" stop-color="#94B849"/>

<stop  offset="95.29411764705883%" stop-color="#74982B"/>
</linearGradient>

<linearGradient id="Gradient_6" gradientUnits="userSpaceOnUse" x1="218.36249999999998" y1="440.25" x2="237.0375" y2="440.25" spreadMethod="pad">
<stop  offset="65.09803921568627%" stop-color="#94B849"/>

<stop  offset="95.29411764705883%" stop-color="#74982B"/>
</linearGradient>

<linearGradient id="Gradient_7" gradientUnits="userSpaceOnUse" x1="202.21249999999998" y1="448.95" x2="222.6875" y2="448.95" spreadMethod="pad">
<stop  offset="65.09803921568627%" stop-color="#94B849"/>

<stop  offset="95.29411764705883%" stop-color="#74982B"/>
</linearGradient>

<linearGradient id="Gradient_8" gradientUnits="userSpaceOnUse" x1="232.3375" y1="430.85" x2="244.9625" y2="430.85" spreadMethod="pad">
<stop  offset="65.09803921568627%" stop-color="#94B849"/>

<stop  offset="95.29411764705883%" stop-color="#74982B"/>
</linearGradient>

<linearGradient id="Gradient_9" gradientUnits="userSpaceOnUse" x1="18.96249999999999" y1="370.6" x2="268.0375" y2="370.6" spreadMethod="pad">
<stop  offset="0.7843137254901961%" stop-color="#72932E"/>

<stop  offset="37.254901960784316%" stop-color="#A3CB51"/>

<stop  offset="65.09803921568627%" stop-color="#94B849"/>

<stop  offset="95.29411764705883%" stop-color="#74982B"/>
</linearGradient>

<linearGradient id="Gradient_10" gradientUnits="userSpaceOnUse" x1="35.02499999999998" y1="356.55" x2="253.375" y2="356.55" spreadMethod="pad">
<stop  offset="0.7843137254901961%" stop-color="#81A634"/>

<stop  offset="37.254901960784316%" stop-color="#A3CB51"/>

<stop  offset="65.09803921568627%" stop-color="#A3CB51"/>

<stop  offset="95.29411764705883%" stop-color="#85AD32"/>
</linearGradient>

<g id="Layer0_0_FILL">
<path fill="url(#Gradient_1)" stroke="none" d="
M 55.4 422.45
Q 53.45 421.4 51.65 420.45
L 55.85 446
Q 61.25 453.7 70 460.5
L 65.85 427.4
Q 60.4 425.1 55.4 422.45 Z"/>

<path fill="url(#Gradient_2)" stroke="none" d="
M 51.65 420.45
L 51.55 420.45
Q 49.25 419.05 47.2 417.7 45.9 416.95 44.75 416.15
L 47.7 426.15
Q 49.45 436.75 55.85 446
L 51.65 420.45 Z"/>

<path fill="url(#Gradient_3)" stroke="none" d="
M 86.15 470.75
L 83 433.55
Q 81.85 433.2 80.65 432.85 72.95 430.4 65.85 427.4
L 70 460.5
Q 72.75 462.7 75.75 464.6 78.1 466.2 80.65 467.7 83.35 469.3 86.15 470.75 Z"/>

<path fill="#94B849" stroke="none" d="
M 157.85 441.2
Q 150.8 441.55 143.55 441.55 110.05 441.55 83 433.55
L 86.15 470.75
Q 111.5 483.75 144.7 483.75 152.05 483.75 159.1 483.1
L 157.85 441.2 Z"/>

<path fill="url(#Gradient_4)" stroke="none" d="
M 182.5 478.85
L 182.5 438.45
Q 170.7 440.45 157.85 441.2
L 159.1 483.1
Q 171.45 481.9 182.5 478.85 Z"/>

<path fill="url(#Gradient_5)" stroke="none" d="
M 182.5 478.85
Q 192.95 475.9 202.3 471.25
L 205.55 433.1
Q 194.55 436.5 182.5 438.45
L 182.5 478.85 Z"/>

<path fill="url(#Gradient_6)" stroke="none" d="
M 231.5 422.45
Q 227.25 424.7 222.7 426.65
L 218.35 461.25
Q 226.9 454.75 232.35 447.45
L 237.05 419.4
Q 234.4 420.95 231.5 422.45 Z"/>

<path fill="url(#Gradient_7)" stroke="none" d="
M 222.7 426.65
Q 220.25 427.8 217.75 428.75 211.8 431.1 205.55 433.1
L 202.3 471.25
Q 208.1 468.3 213.55 464.6 215.8 463.15 217.75 461.7 218.1 461.55 218.35 461.25
L 222.7 426.65 Z"/>

<path fill="url(#Gradient_8)" stroke="none" d="
M 242.1 416.25
Q 239.65 417.8 237.05 419.4
L 232.35 447.45
Q 239.15 438.3 241.2 427.95
L 245 414.25
Q 243.6 415.25 242.1 416.25 Z"/>

<path fill="url(#Gradient_9)" stroke="none" d="
M 18.85 370.6
Q 18.85 372.1 19.05 373.45 20.4 393.5 42.55 409 44.9 410.7 47.55 412.35 50.8 414.35 54.45 416.25 55 416.5 55.4 416.8 60.05 419.25 65.05 421.4 71.95 424.3 79.2 426.65 80.8 427.25 82.45 427.7 82.75 427.8 82.9 427.85 110.05 435.85 143.55 435.85 164.2 435.85 182.5 432.75 193.7 430.85 203.95 427.85 205 427.5 206.05 427.25 208.4 426.5 210.65 425.8 217.3 423.5 223.5 420.7 227.6 418.9 231.5 416.8 232.8 416.1 234.15 415.4 238.05 413.2 241.6 410.9 244.5 409 247 407.1 266.6 392.3 267.95 373.45 268.1 372.1 268.1 370.6 268.1 343.5 231.5 324.45 195.05 305.3 143.55 305.3 91.9 305.3 55.4 324.45 18.85 343.5 18.85 370.6
M 35.1 368.15
Q 35.1 344.5 67.05 327.75 88.9 316.25 116.85 312.55
L 141.6 311
Q 142.95 310.95 144.25 310.95 146.7 310.95 149.15 311 156.3 311.1 163.1 311.75 171.45 312.4 179.25 313.65 202.65 317.8 221.45 327.75 253.45 344.5 253.45 368.15 253.45 379.85 245.75 389.75 242.4 394.1 237.6 398.1 235.4 400 232.85 401.85 229.15 404.4 224.8 406.8 223.15 407.7 221.45 408.6 189.5 425.4 144.25 425.4 99.05 425.4 67.05 408.6 65.55 407.9 64.15 407.1 59.85 404.65 56.15 402.1 53.7 400.4 51.55 398.55 45.45 393.65 41.75 388.3 35.1 379 35.1 368.15 Z"/>

<path fill="#96BD4A" stroke="none" d="
M 224.8 406.8
Q 219.9 403.2 213.55 399.85 185.1 384.75 144.7 384.75 104.3 384.75 75.75 399.85 69.2 403.25 64.15 407.1 65.55 407.9 67.05 408.6 99.05 425.4 144.25 425.4 189.5 425.4 221.45 408.6 223.15 407.7 224.8 406.8 Z"/>

<path fill="#A8D24F" stroke="none" d="
M 144.7 372.6
Q 104.3 372.6 75.75 387.65 63.25 394.2 56.15 402.1 59.85 404.65 64.15 407.1 69.2 403.25 75.75 399.85 104.3 384.75 144.7 384.75 185.1 384.75 213.55 399.85 219.9 403.2 224.8 406.8 229.15 404.4 232.85 401.85 225.8 394.1 213.55 387.65 185.1 372.6 144.7 372.6 Z"/>

<path fill="url(#Gradient_10)" stroke="none" d="
M 67.05 327.75
Q 35.1 344.5 35.1 368.15 35.1 379 41.75 388.3 45.45 393.65 51.55 398.55 53.7 400.4 56.15 402.1 63.25 394.2 75.75 387.65 104.3 372.6 144.7 372.6 185.1 372.6 213.55 387.65 225.8 394.1 232.85 401.85 235.4 400 237.6 398.1 242.4 394.1 245.75 389.75 253.45 379.85 253.45 368.15 253.45 344.5 221.45 327.75 202.65 317.8 179.25 313.65 171.45 312.4 163.1 311.75 156.3 311.1 149.15 311 146.35 311 143.55 311 142.5 311 141.6 311
L 116.85 312.55
Q 88.9 316.25 67.05 327.75 Z"/>

<path fill="#C7E078" stroke="none" d="
M 19.05 373.45
Q 18.85 374.9 18.85 376.3 18.85 399 44.75 416.15 45.9 416.95 47.2 417.7 49.25 419.05 51.55 420.45
L 51.65 420.45
Q 53.45 421.4 55.4 422.45 60.4 425.1 65.85 427.4 72.95 430.4 80.65 432.85 81.85 433.2 83 433.55 110.05 441.55 143.55 441.55 150.8 441.55 157.85 441.2 170.7 440.45 182.5 438.45 194.55 436.5 205.55 433.1 211.8 431.1 217.75 428.75 220.25 427.8 222.7 426.65 227.25 424.7 231.5 422.45 234.4 420.95 237.05 419.4 239.65 417.8 242.1 416.25 243.6 415.25 245 414.25 268.1 397.75 268.1 376.3 268.1 374.9 267.95 373.45 266.6 392.3 247 407.1 244.5 409 241.6 410.9 238.05 413.2 234.15 415.4 232.8 416.1 231.5 416.8 227.6 418.9 223.5 420.7 217.3 423.5 210.65 425.8 208.4 426.5 206.05 427.25 205 427.5 203.95 427.85 193.7 430.85 182.5 432.75 164.2 435.85 143.55 435.85 110.05 435.85 82.9 427.85 82.75 427.8 82.45 427.7 80.8 427.25 79.2 426.65 71.95 424.3 65.05 421.4 60.05 419.25 55.4 416.8 55 416.5 54.45 416.25 50.8 414.35 47.55 412.35 44.9 410.7 42.55 409 20.4 393.5 19.05 373.45 Z"/>
</g>
</defs>

<g transform="matrix( 1, 0, 0, 1, -18.85,-305.3) ">
<use xlink:href="#Layer0_0_FILL"/>
</g>
</svg>
