
<svg xmlns="http://www.w3.org/2000/svg" version="1.1" xmlns:xlink="http://www.w3.org/1999/xlink" preserveAspectRatio="none" x="0px" y="0px" width="234px" height="295px" viewBox="0 0 234 295">
<defs>
<g id="Layer0_0_FILL">
<path fill="#CC8B4A" stroke="none" d="
M 633.05 588.55
L 633.05 529.4 471.5 529.4 471.5 588.55 633.05 588.55
M 625.85 516.05
L 625.85 515.95 625.85 403.9 564.2 406.8 553.55 516.05 625.85 516.05
M 633.05 353.35
L 625.85 368.85 625.85 403.9 633.05 413.5 633.05 353.35
M 472.75 292.6
L 472.75 353.05 633.05 353.05 633.05 292.6 472.75 292.6 Z"/>

<path fill="#E79D54" stroke="none" d="
M 553.55 516.05
L 491.05 516.05 471.5 529.4 633.05 529.4 626.55 517.25 625.85 516.05 553.55 516.05
M 671.3 535.6
L 671.3 343.2 633.05 353.35 633.05 413.5 633.05 529.4 671.3 535.6 Z"/>

<path fill="#FCB978" stroke="none" d="
M 633.05 413.5
L 625.85 403.9 625.85 515.95 626.55 517.25 633.05 529.4 633.05 413.5 Z"/>

<path fill="#A16D3A" stroke="none" d="
M 625.85 368.85
L 491.05 368.85 491.05 516.05 553.55 516.05 564.2 406.8 625.85 403.9 625.85 368.85 Z"/>

<path fill="#77502B" stroke="none" d="
M 633.05 353.35
L 633.05 353.05 472.75 353.05 491.05 368.85 625.85 368.85 633.05 353.35 Z"/>

<path fill="#956534" stroke="none" d="
M 471.5 353.25
L 436.95 344.4 436.95 534.35 471.5 529.4 471.5 353.25 Z"/>

<path fill="#855A30" stroke="none" d="
M 472.75 353.05
L 471.5 353.25 471.5 529.4 491.05 516.05 491.05 368.85 472.75 353.05 Z"/>
</g>
</defs>

<g transform="matrix( 1, 0, 0, 1, -436.95,-292.6) ">
<use xlink:href="#Layer0_0_FILL"/>
</g>
</svg>
