<?xml version="1.0" encoding="utf-8"?>
<!-- Generator: Adobe Illustrator 21.1.0, SVG Export Plug-In . SVG Version: 6.00 Build 0)  -->
<svg version="1.1" id="Camada_1" xmlns="http://www.w3.org/2000/svg" xmlns:xlink="http://www.w3.org/1999/xlink" x="0px" y="0px"
	 viewBox="0 0 296 234.4" style="enable-background:new 0 0 296 234.4;" xml:space="preserve">
<style type="text/css">
	.st0{fill:#CC8B4A;}
	.st1{fill:#E79D54;}
	.st2{fill:#FCB978;}
	.st3{fill:#A16D3A;}
	.st4{fill:#77502B;}
	.st5{fill:#956534;}
	.st6{fill:#855A30;}
</style>
<g transform="matrix( 1, 0, 0, 1, -436.95,-292.6) ">
	<g>
		<g id="Layer0_0_FILL">
			<path class="st0" d="M732.9,488.7l0-161.5l-59.1,0l0,161.6L732.9,488.7 M660.4,481.5l0-72.3l-109.3,10.7l-2.9,61.6L660.4,481.5
				L660.4,481.5 M497.7,488.7l60.1,0l-9.6-7.2h-35.1L497.7,488.7 M437,488.7l60.5,0l0-160.3l-60.5,0L437,488.7z"/>
			<path class="st1" d="M660.4,409.2l0,72.3l1.2,0.7l12.2,6.5l0-161.6l-13.4,19.6L660.4,409.2 M673.8,488.7l-115.9,0l-60.1,0
				L487.6,527l192.4,0L673.8,488.7z"/>
			<path class="st2" d="M673.8,488.7l-12.2-6.5l-1.3-0.7l-112.1,0l9.6,7.2L673.8,488.7z"/>
			<path class="st3" d="M548.3,481.5l2.9-61.6l109.3-10.7l0-62.5l-147.2,0l0,134.8H548.3z"/>
			<path class="st4" d="M513.2,481.5l0-134.8l-15.8-18.3l0,160.3h0.3L513.2,481.5z"/>
			<path class="st5" d="M673.8,327.1l4.9-34.5l-190,0l8.9,34.5L673.8,327.1z"/>
			<path class="st6" d="M513.2,346.7l147.2,0l13.4-19.6l-176.2,0l-0.2,1.3L513.2,346.7z"/>
		</g>
	</g>
</g>
</svg>
