
<svg xmlns="http://www.w3.org/2000/svg" version="1.1" xmlns:xlink="http://www.w3.org/1999/xlink" preserveAspectRatio="none" x="0px" y="0px" width="134px" height="174px" viewBox="0 0 134 174">
<defs>
<g id="Layer0_0_FILL">
<path fill="#999999" stroke="none" d="
M 109.95 98.5
L 106.05 95.7 77.3 51.4
Q 77.95 50.6 78 49.2
L 54.3 12.65 39.8 13.05 30 12.75 28.1 9.8
Q 27.5 10.4 26.9 10.8
L 19.9 0
Q 19 0.15 16.9 1.1 13.8 2.5 9.65 5.2 5.65 7.8 2.95 10.1 0.35 12.25 0.75 12.85 0.85 13.05 1.45 13.05
L 8.05 23.2
Q 7.15 23.6 6.1 24.05
L 8 27 0 48.8 23.25 84.65 25.85 84.85 55.45 130.55 56.05 134.3 80.2 171.5
Q 87.9 177.2 98.85 173.4
L 128.1 154.45
Q 134.5 146.7 134.7 136.6
L 109.95 98.5 Z"/>
</g>
</defs>

<g transform="matrix( 1, 0, 0, 1, 0,0) ">
<use xlink:href="#Layer0_0_FILL"/>
</g>
</svg>
