
<svg xmlns="http://www.w3.org/2000/svg" version="1.1" xmlns:xlink="http://www.w3.org/1999/xlink" preserveAspectRatio="none" x="0px" y="0px" width="83px" height="217px" viewBox="0 0 83 217">
<defs>
<g id="Layer0_0_MEMBER_0_FILL">
<path fill="#7C9FC5" stroke="none" d="
M 383.15 235.95
Q 384.6 231.3 365.45 230.3 349.4 232.3 333.3 229.55 333 229.4 332.55 229.4
L 317.05 227.95
Q 311.1 229.1 314 236.35 321.1 245.5 335.05 250.55
L 363.45 250.55
Q 383.75 241.15 383.15 235.95 Z"/>

<path fill="#1E599B" stroke="none" d="
M 389.1 129.95
Q 383.45 131.3 378.1 132.3 343.3 138.1 315.05 129.95
L 315.05 224.9
Q 323.85 227.95 332.55 229.4 333 229.4 333.3 229.55 349.4 232.3 365.45 230.3 377.2 228.95 389.1 224.9
L 389.1 129.95
M 345.75 164.45
Q 348.8 167.25 348.8 171.3 348.8 175.05 345.75 177.95 343 180.7 338.95 180.7 335.05 180.7 332.15 177.95 329.4 175.05 329.4 171.3 329.4 167.25 332.15 164.45 335.05 161.7 338.95 161.7 343 161.7 345.75 164.45
M 362.55 182.75
Q 360.7 182.75 359.4 181.15 357.95 180 357.95 177.95 357.95 176.05 359.4 174.6 360.7 173.3 362.55 173.3 364.45 173.3 365.9 174.6 367.2 176.05 367.2 177.95 367.2 180 365.9 181.15 364.45 182.75 362.55 182.75
M 386.35 154.2
Q 386.35 156.95 384.45 158.95 382.3 161 379.8 161 377.05 161 374.9 158.95 373 156.95 373 154.2 373 151.7 374.9 149.55 377.05 147.65 379.8 147.65 382.3 147.65 384.45 149.55 386.35 151.7 386.35 154.2
M 375.75 216.2
Q 373.45 218.55 369.95 218.55 366.8 218.55 364.3 216.2 362.15 213.9 362.15 210.55 362.15 207.4 364.3 204.75 366.8 202.6 369.95 202.6 373.45 202.6 375.75 204.75 378.1 207.4 378.1 210.55 378.1 213.9 375.75 216.2 Z"/>

<path fill="#6699CC" stroke="none" d="
M 369.95 218.55
Q 373.45 218.55 375.75 216.2 378.1 213.9 378.1 210.55 378.1 207.4 375.75 204.75 373.45 202.6 369.95 202.6 366.8 202.6 364.3 204.75 362.15 207.4 362.15 210.55 362.15 213.9 364.3 216.2 366.8 218.55 369.95 218.55
M 384.45 158.95
Q 386.35 156.95 386.35 154.2 386.35 151.7 384.45 149.55 382.3 147.65 379.8 147.65 377.05 147.65 374.9 149.55 373 151.7 373 154.2 373 156.95 374.9 158.95 377.05 161 379.8 161 382.3 161 384.45 158.95
M 359.4 181.15
Q 360.7 182.75 362.55 182.75 364.45 182.75 365.9 181.15 367.2 180 367.2 177.95 367.2 176.05 365.9 174.6 364.45 173.3 362.55 173.3 360.7 173.3 359.4 174.6 357.95 176.05 357.95 177.95 357.95 180 359.4 181.15
M 348.8 171.3
Q 348.8 167.25 345.75 164.45 343 161.7 338.95 161.7 335.05 161.7 332.15 164.45 329.4 167.25 329.4 171.3 329.4 175.05 332.15 177.95 335.05 180.7 338.95 180.7 343 180.7 345.75 177.95 348.8 175.05 348.8 171.3 Z"/>

<path fill="#73819C" stroke="none" d="
M 392.7 108.5
Q 386.5 114.9 381.85 108.1 377.65 118.95 363 109.85 365.35 122.45 378.1 132.3 383.45 131.3 389.1 129.95
L 389.1 224.9
Q 377.2 228.95 365.45 230.3 384.6 231.3 383.15 235.95 383.75 241.15 363.45 250.55
L 365.35 250.55
Q 390.55 247.65 392.7 230
L 392.7 108.5 Z"/>

<path fill="#D8D7E5" stroke="none" d="
M 373.45 63.3
L 367.5 65.75
Q 383.75 83.75 383.15 104.15 382.7 106.5 381.85 108.1 386.5 114.9 392.7 108.5
L 392.7 95.2
Q 388.65 69.65 364.75 47.2 362.7 47.5 361.25 47.8
L 373.45 63.3
M 357.95 65.45
Q 343.3 67.2 329.4 61.85 317.05 77.35 310.4 106.95
L 315.05 129.95
Q 343.3 138.1 378.1 132.3 365.35 122.45 363 109.85 361.7 109.25 360.4 108.1 352.85 90.7 357.95 65.45 Z"/>

<path fill="#406EA9" stroke="none" d="
M 329.4 61.85
Q 328.35 61.4 327.35 61 314.15 76.5 309.1 98.8
L 309.1 227.95
Q 314 248.7 335.05 250.55 321.1 245.5 314 236.35 311.1 229.1 317.05 227.95
L 332.55 229.4
Q 323.85 227.95 315.05 224.9
L 315.05 129.95 310.4 106.95
Q 317.05 77.35 329.4 61.85 Z"/>

<path fill="#A8AFCB" stroke="none" d="
M 361.25 47.8
Q 348.95 50.25 340.25 47.2 332.55 54.6 327.35 61 328.35 61.4 329.4 61.85 343.3 67.2 357.95 65.45 352.85 90.7 360.4 108.1 361.7 109.25 363 109.85 377.65 118.95 381.85 108.1 382.7 106.5 383.15 104.15 371.4 108.1 362.3 96.05 356.8 82.7 362.3 69.25
L 367.5 65.75 373.45 63.3 361.25 47.8 Z"/>

<path fill="#FFFFFF" stroke="none" d="
M 340.25 36.35
Q 354.75 37.95 363.9 35.3 348.95 31.25 340.25 36.35 Z"/>

<path fill="#EAD8E6" stroke="none" d="
M 340.25 36.35
L 340.25 47.2
Q 348.95 50.25 361.25 47.8 362.7 47.5 364.75 47.2
L 363.9 35.3
Q 354.75 37.95 340.25 36.35 Z"/>
</g>
</defs>

<g transform="matrix( 1, 0, 0, 1, -309.1,-33.5) ">
<use xlink:href="#Layer0_0_MEMBER_0_FILL"/>
</g>
</svg>
