
<svg xmlns="http://www.w3.org/2000/svg" version="1.1" xmlns:xlink="http://www.w3.org/1999/xlink" preserveAspectRatio="none" x="0px" y="0px" width="150px" height="182px" viewBox="0 0 150 182">
<defs>
<g id="Layer0_0_MEMBER_0_FILL">
<path fill="#DF7D1C" stroke="none" d="
M 592.7 73.1
L 603 73
Q 606.75 78.6 622.6 78.1
L 622.8 71.2
Q 616.25 70.35 609.75 70.15 604.55 69.2 601.85 66.9 597 62.2 590.05 62.25
L 517.9 57.7
Q 516.15 57.7 514.7 57.7 514.85 62.8 514.45 68.05
L 592.7 73.1 Z"/>

<path fill="#994D0F" stroke="none" d="
M 588.15 95.15
Q 593.75 95.25 598.3 93.3
L 554.75 90.9
Q 554.3 90.95 553.8 91.15
L 513.25 88.4
Q 512.9 89.7 512.9 91.3 514.15 91.35 515.95 91.25
L 588.15 95.15 Z"/>

<path fill="#F0B069" stroke="none" d="
M 601.1 77
Q 593.8 85.6 576.3 84.1 576.1 84.05 576 84.05
L 513.9 80.2
Q 513.55 84 513.25 88.4
L 553.8 91.15
Q 554.3 90.95 554.75 90.9
L 598.3 93.3
Q 599.45 92.85 600.3 92.35 603.35 89.4 608.65 89.05 615.35 89.45 621.95 89.3
L 622.45 82.5
Q 608.35 83.05 601.1 77
M 650.05 84.65
Q 649.95 83.85 650.05 83.05
L 648.75 83 623.6 82.1 623.45 89.3
Q 633.95 88.85 644.95 87.2 645.1 87.1 645.35 87.15 647.2 86.8 648.85 87.65 649 87.7 649.15 87.75 649.2 87.75 649.3 87.75 649.45 87.8 649.65 87.85
L 650.05 87.95
Q 650.75 88.15 651.6 88.25
L 654.45 87.25 654.65 81.05 650.05 84.65 Z"/>

<path fill="#8C4609" stroke="none" d="
M 649.15 87.75
Q 649 87.7 648.85 87.65 647.2 86.8 645.35 87.15 645.1 87.1 644.95 87.2 633.95 88.85 623.45 89.3 622.85 89.4 621.95 89.3 615.35 89.45 608.65 89.05 603.35 89.4 600.3 92.35 599.45 92.85 598.3 93.3 593.75 95.25 588.15 95.15
L 515.95 91.25
Q 514.15 91.35 512.9 91.3 512.9 89.7 513.25 88.4 513.55 84 513.9 80.2 514.65 74 514.45 68.05 514.85 62.8 514.7 57.7 516.15 57.7 517.9 57.7
L 590.05 62.25
Q 597 62.2 601.85 66.9 604.55 69.2 609.75 70.15 616.25 70.35 622.8 71.2 623.45 71.4 624.35 71.3 635.05 73.1 645.55 75.85
L 645.7 75.85
Q 647.6 76.35 649.75 75.85 648.75 75.75 647.15 75.2
L 646.75 75.1
Q 629.1 69.8 611.1 69.05 605.4 68.15 602.75 65.55 598.15 60.5 590.75 60.55
L 518.05 55.85
Q 516.1 55.75 514.75 55.85 510.15 55.8 508.65 58.9 505.3 74.5 507 89.1 508.4 92.5 512.5 93.1 514.15 93.2 515.95 93.1
L 588.7 97.05
Q 595.8 97.4 600.9 93.95 604.3 90.7 609.95 90.25 627.85 91.15 646.2 87.8 646.55 87.6 646.7 87.65 647.95 87.5 649.15 87.75 Z"/>

<path fill="#271403" stroke="none" d="
M 655.3 87.85
Q 654.9 87.75 654.35 87.75
L 654.45 87.25 651.6 88.25
Q 650.75 88.15 650.05 87.95 650 88.25 650.15 88.25 651.6 89.2 653.05 88.75
L 655.3 87.85
M 654.9 75.5
L 655.25 75.3 653.85 74.95
Q 652.35 74.1 650.95 75.05 651.4 75.15 652.4 75.7
L 654.95 76.4 654.9 75.5 Z"/>

<path fill="#EC8F0C" stroke="none" d="
M 648.75 83
L 648.95 80 623.9 77.5 624.35 71.3
Q 623.45 71.4 622.8 71.2
L 622.6 78.1
Q 606.75 78.6 603 73
L 592.7 73.1 514.45 68.05
Q 514.65 74 513.9 80.2
L 576 84.05
Q 576.1 84.05 576.3 84.1 593.8 85.6 601.1 77 608.35 83.05 622.45 82.5
L 621.95 89.3
Q 622.85 89.4 623.45 89.3
L 623.6 82.1 648.75 83 Z"/>

<path fill="#C05E03" stroke="none" d="
M 650.05 83.05
Q 649.95 83.85 650.05 84.65
L 654.65 81.05 654.8 78.65 650.2 79.75
Q 650.2 80.75 650.05 81.9 650.15 82.5 650.05 83.05 Z"/>

<path fill="#693C15" stroke="none" d="
M 650.2 79.75
L 649.35 80.15 648.95 80 648.75 83 650.05 83.05
Q 650.15 82.5 650.05 81.9 650.2 80.75 650.2 79.75 Z"/>

<path fill="#EB9D05" stroke="none" d="
M 650.85 76.75
Q 650.65 76.25 650.6 75.85
L 650.65 75.25
Q 650.35 75.2 650.2 75.25
L 650.25 75.6
Q 650.1 75.55 649.75 75.85 647.6 76.35 645.7 75.85
L 645.55 75.85
Q 635.05 73.1 624.35 71.3
L 623.9 77.5 648.95 80 648.8 79.55 649.35 80.15 650.2 79.75
Q 650.4 78.4 650.85 76.75 Z"/>

<path fill="#664323" stroke="none" d="
M 654.8 78.65
L 654.95 76.4 652.4 75.7
Q 651.4 75.15 650.95 75.05
L 650.75 75.3 650.65 75.25 650.6 75.85
Q 650.65 76.25 650.85 76.75 650.4 78.4 650.2 79.75
L 654.8 78.65 Z"/>

<path fill="#692700" stroke="none" d="
M 654.95 76.4
L 654.8 78.65 654.65 81.05 654.45 87.25 654.35 87.75
Q 654.9 87.75 655.3 87.85
L 656 88.05 656.6 75.65 655.25 75.3 654.9 75.5 654.95 76.4 Z"/>
</g>

<g id="Layer0_0_MEMBER_1_FILL">
<path fill="#BA9135" stroke="none" d="
M 626.05 226.55
Q 621.45 227.9 617.85 227.3 616.65 227.15 616.55 226.1
L 615.95 226.1
Q 615.6 228.35 617.4 228.6 621.45 229.1 626.65 228 628.45 227.15 627.95 225.35
L 627.25 225.35
Q 626.85 226.1 626.05 226.55 Z"/>

<path fill="#F5D7A5" stroke="none" d="
M 617.85 227.3
Q 621.45 227.9 626.05 226.55 626.85 226.1 627.25 225.35
L 627 225.35 616.55 226.1
Q 616.65 227.15 617.85 227.3 Z"/>

<path fill="#692700" stroke="none" d="
M 626.4 224.15
L 624.35 224.15 622.3 224.3 616.8 224.65 616.3 224.65
Q 616.55 225.25 616.55 225.75
L 616.55 226.1 627 225.35 627.25 224.15 626.4 224.15 Z"/>

<path fill="#271403" stroke="none" d="
M 626.85 220.7
L 626.65 220.45
Q 626.85 221.05 626.5 221.9
L 626.4 224.15 627.25 224.15 627.35 222.95
Q 627.95 221.9 626.85 220.7
M 615.95 222.35
Q 615.6 221.9 615.8 221.15 615.6 221.15 615.6 221.3 615.1 222.35 615.6 223.55
L 616.55 225.75
Q 616.55 225.25 616.3 224.65
L 616.8 224.65 615.95 222.35 Z"/>

<path fill="#664323" stroke="none" d="
M 623.05 220.7
L 623.15 221.3 624.35 224.15 626.4 224.15 626.5 221.9
Q 626.85 221.05 626.65 220.45
L 626.65 220.35 626.4 220.45
Q 626.05 220.7 625.65 220.7 624.25 220.45 623.05 220.7 Z"/>

<path fill="#C05E03" stroke="none" d="
M 621.25 220.8
Q 620.75 220.8 620.05 220.8 619.4 220.8 618.8 220.8
L 622.3 224.3 624.35 224.15 623.15 221.3 623.05 220.7
Q 622.05 220.7 621.25 220.8 Z"/>

<path fill="#693C15" stroke="none" d="
M 622.65 219.6
L 622.65 219.25 620.05 219.35 620.05 220.8
Q 620.75 220.8 621.25 220.8 622.05 220.7 623.05 220.7
L 622.65 219.6 Z"/>

<path fill="#EB9D05" stroke="none" d="
M 625.8 216.25
L 626.05 216.1
Q 627.35 206.75 627.6 197.6
L 622.3 198 622.65 219.25 622.8 219.25 622.65 219.6 623.05 220.7
Q 624.25 220.45 625.65 220.7 626.05 220.7 626.4 220.45
L 626.65 220.35 626.65 220.1 626.5 220.1
Q 626.5 219.95 626.4 219.75
L 626.4 219.7
Q 626.35 219.6 626.15 219.6 625.65 218.05 625.8 216.25 Z"/>

<path fill="#F0B069" stroke="none" d="
M 616.2 216.7
Q 616.65 218.5 616.2 220.1 615.95 220.7 615.8 221.15 615.6 221.9 615.95 222.35
L 616.8 224.65 622.3 224.3 618.8 220.8
Q 619.4 220.8 620.05 220.8
L 620.05 219.35 618.45 198 612.2 198.45
Q 613.65 207.45 616.2 216.6
L 616.2 216.7
M 602.6 104.3
L 604.15 139.1
Q 604.15 139.5 604.3 139.85
L 606.35 177.3
Q 606.8 178.3 607.3 178.9 610.3 181.15 611.25 185.95 611.4 191.6 612.2 197.25
L 617.85 196.9
Q 616.2 184.9 620.75 178.3 612.6 172.75 612.2 157.6
L 609.8 104.15
Q 606.1 104.15 602.6 104.3 Z"/>

<path fill="#994D0F" stroke="none" d="
M 604.15 139.1
L 602.6 104.3
Q 601.4 104.15 599.95 104.15 600.1 105.35 600.45 106.9
L 603.8 168.9
Q 604.15 173.85 606.35 177.3
L 604.3 139.85
Q 604.15 139.5 604.15 139.1 Z"/>

<path fill="#DF7D1C" stroke="none" d="
M 629.15 105.25
Q 629.15 103.8 629.05 102.6 624.6 103.3 620.05 103.45
L 623.15 170.85 624.25 179.25
Q 619.8 183.35 621.7 196.65
L 627.7 196.2
Q 627.7 190.55 627.35 185.15 627.7 180.3 629.3 177.7 632.9 173.35 632.15 167.1
L 629.15 105.25 Z"/>

<path fill="#8C4609" stroke="none" d="
M 609.8 104.15
Q 615.1 104.15 620.05 103.45 624.6 103.3 629.05 102.6 629.15 103.8 629.15 105.25
L 632.15 167.1
Q 632.9 173.35 629.3 177.7 627.7 180.3 627.35 185.15 627.7 190.55 627.7 196.2 627.6 196.9 627.6 197.6 627.35 206.75 626.05 216.1
L 625.8 216.25
Q 625.65 218.05 626.15 219.6 626.35 219.6 626.4 219.7 626.15 218.6 626.5 217.45 626.5 217.3 626.65 217.1 629.3 201.45 628.45 185.95 628.65 181.15 630.6 178.5 634.55 173.95 633.7 167.7
L 630.7 105.25
Q 630.7 103.55 630.6 102.35 630 98.5 627.35 97.45 613.65 96.25 601.4 99 598.75 100.45 598.4 104.15 598.5 105.6 598.9 106.9
L 602.25 169.4
Q 602.75 175.65 606.1 179.6 609.2 182.25 610.15 186.8 611.25 202.3 615.6 217.8
L 615.8 218.05
Q 616.2 219.6 615.8 221.15 615.95 220.7 616.2 220.1 616.65 218.5 616.2 216.7
L 616.2 216.6
Q 613.65 207.45 612.2 198.45 612.2 198 612.2 197.25 611.4 191.6 611.25 185.95 610.3 181.15 607.3 178.9 606.8 178.3 606.35 177.3 604.15 173.85 603.8 168.9
L 600.45 106.9
Q 600.1 105.35 599.95 104.15 601.4 104.15 602.6 104.3 606.1 104.15 609.8 104.15 Z"/>

<path fill="#EC8F0C" stroke="none" d="
M 620.05 103.45
Q 615.1 104.15 609.8 104.15
L 612.2 157.6
Q 612.6 172.75 620.75 178.3 616.2 184.9 617.85 196.9
L 612.2 197.25
Q 612.2 198 612.2 198.45
L 618.45 198 620.05 219.35 622.65 219.25 622.3 198 627.6 197.6
Q 627.6 196.9 627.7 196.2
L 621.7 196.65
Q 619.8 183.35 624.25 179.25
L 623.15 170.85 620.05 103.45 Z"/>
</g>

<g id="Layer0_0_MEMBER_2_FILL">
<path fill="#271403" stroke="none" d="
M 604.9 231.15
Q 604.65 231.15 604.65 231.4 604.15 232.6 605 233.65
L 606.35 235.6
Q 606.1 235.2 605.95 234.75
L 606.45 234.75 605.25 232.6
Q 604.9 231.85 604.9 231.15
M 616.55 231.4
Q 616.8 230.2 615.8 229.1
L 615.6 228.85
Q 615.8 229.45 615.6 230.3
L 615.8 232.8 616.3 232.6 616.55 232.6 616.55 231.4 Z"/>

<path fill="#BA9135" stroke="none" d="
M 617.4 233.65
L 616.65 233.8
Q 616.55 234.5 615.8 235.2 611.25 237 607.65 237 606.45 237 606.35 235.95
L 605.75 236.2
Q 605.75 238.45 607.3 238.45 611.4 238.45 616.55 236.4 618.1 235.45 617.4 233.65 Z"/>

<path fill="#692700" stroke="none" d="
M 616.55 232.6
L 616.3 232.6 615.8 232.8 613.65 233.2 611.75 233.55 606.45 234.75 605.95 234.75
Q 606.1 235.2 606.35 235.6
L 606.35 235.95 616.55 233.8 616.55 232.6 Z"/>

<path fill="#F5D7A5" stroke="none" d="
M 616.65 233.8
L 616.55 233.8 606.35 235.95
Q 606.45 237 607.65 237 611.25 237 615.8 235.2 616.55 234.5 616.65 233.8 Z"/>

<path fill="#F0B069" stroke="none" d="
M 611.75 233.55
L 607.9 230.55
Q 608.35 230.3 609.1 230.2
L 608.75 229.1 604.05 207.95 598.05 209.15
Q 600.7 218.05 604.55 226.8
L 604.55 226.95
Q 605.25 228.6 605 230.2 604.90625 230.575 604.9 231.05
L 604.9 231.15
Q 604.9 231.85 605.25 232.6
L 606.45 234.75 611.75 233.55
M 582.2 116.3
Q 578.7 116.75 575 117.5
L 581.6 151.6
Q 581.6 152.2 581.8 152.55
L 589.15 189.35
Q 589.85 190.15 590.45 190.75 593.6 192.45 595.05 197 596.25 202.65 597.8 207.95
L 603.45 206.85
Q 599.95 195.35 603.45 188.15 594.7 183.8 592.4 168.9
L 592.4 168.65 582.2 116.3 Z"/>

<path fill="#C05E03" stroke="none" d="
M 607.9 230.55
L 611.75 233.55 613.65 233.2 612.1 230.3 611.85 229.6
Q 610.9 229.8 610.15 229.95 609.45 230.2 609.1 230.2 608.35 230.3 607.9 230.55 Z"/>

<path fill="#693C15" stroke="none" d="
M 611.25 228.75
L 611.25 228.6 608.75 229.1 609.1 230.2
Q 609.45 230.2 610.15 229.95 610.9 229.8 611.85 229.6
L 611.25 228.75 Z"/>

<path fill="#664323" stroke="none" d="
M 615.6 228.85
L 615.6 228.75 615.2 229.1
Q 614.75 229.2 614.4 229.2 612.95 229.2 611.85 229.6
L 612.1 230.3 613.65 233.2 615.8 232.8 615.6 230.3
Q 615.8 229.45 615.6 228.85 Z"/>

<path fill="#EB9D05" stroke="none" d="
M 613.2 206.15
L 607.9 207.25 611.25 228.6 611.5 228.35 611.25 228.75 611.85 229.6
Q 612.95 229.2 614.4 229.2 614.75 229.2 615.2 229.1
L 615.6 228.75 615.45 228.6 615.2 228.75
Q 615.2 228.6 615.1 228.35
L 615.1 228.25 614.85 228.25
Q 614 226.55 614 225 614 224.9 614 224.65 614 215.4 613.2 206.15 Z"/>

<path fill="#EC8F0C" stroke="none" d="
M 592.4 114.15
Q 587.25 115.55 582.2 116.3
L 592.4 168.65 592.4 168.9
Q 594.7 183.8 603.45 188.15 599.95 195.35 603.45 206.85
L 597.8 207.95
Q 597.8 208.65 598.05 209.15
L 604.05 207.95 608.75 229.1 611.25 228.6 607.9 207.25 613.2 206.15
Q 612.95 205.55 612.95 204.85
L 607.3 206.15
Q 603.45 193.2 607.15 188.6
L 604.9 180.3 592.4 114.15 Z"/>

<path fill="#994D0F" stroke="none" d="
M 575 117.5
Q 573.9 117.5 572.45 117.75 572.8 118.95 573.4 120.4
L 585.65 181.15
Q 586.5 185.95 589.15 189.35
L 581.8 152.55
Q 581.6 152.2 581.6 151.6
L 575 117.5 Z"/>

<path fill="#8C4609" stroke="none" d="
M 592.4 114.15
Q 596.7 113.3 600.8 112.1 601.15 113.15 601.55 114.75
L 613.3 175.65
Q 615.1 181.5 611.85 186.45 610.65 189.1 611.25 193.9 612.2 199.3 612.95 204.85 612.95 205.55 613.2 206.15 614 215.4 614 224.65 614 224.9 614 225 614 226.55 614.85 228.25
L 615.1 228.25
Q 614.75 227.3 614.85 226.1 614.85 225.95 615.1 225.75 615.45 209.85 612.2 194.6 611.85 189.8 613.3 187.05 616.55 181.9 614.85 175.75
L 603.1 114.35
Q 602.95 112.8 602.35 111.5 601.4 107.9 598.5 107.3 584.85 107.9 573.05 112.45 570.55 114.15 570.9 117.85 571.15 119.3 571.6 120.75
L 584.1 181.9
Q 585.3 188.15 589.15 191.6 592.75 193.65 594.3 198.1 597.45 213.5 604.15 228 604.3 228 604.55 228.25 604.8919921875 229.715625 604.9 231.05 604.90625 230.575 605 230.2 605.25 228.6 604.55 226.95
L 604.55 226.8
Q 600.7 218.05 598.05 209.15 597.8 208.65 597.8 207.95 596.25 202.65 595.05 197 593.6 192.45 590.45 190.75 589.85 190.15 589.15 189.35 586.5 185.95 585.65 181.15
L 573.4 120.4
Q 572.8 118.95 572.45 117.75 573.9 117.5 575 117.5 578.7 116.75 582.2 116.3 587.25 115.55 592.4 114.15 Z"/>

<path fill="#DF7D1C" stroke="none" d="
M 600.8 112.1
Q 596.7 113.3 592.4 114.15
L 604.9 180.3 607.15 188.6
Q 603.45 193.2 607.3 206.15
L 612.95 204.85
Q 612.2 199.3 611.25 193.9 610.65 189.1 611.85 186.45 615.1 181.5 613.3 175.65
L 601.55 114.75
Q 601.15 113.15 600.8 112.1 Z"/>
</g>
</defs>

<g transform="matrix( 1, 0, 0, 1, -506.45,-55.8) ">
<use xlink:href="#Layer0_0_MEMBER_0_FILL"/>
</g>

<g transform="matrix( 1, 0, 0, 1, -506.45,-55.8) ">
<use xlink:href="#Layer0_0_MEMBER_1_FILL"/>
</g>

<g transform="matrix( 1, 0, 0, 1, -506.45,-55.8) ">
<use xlink:href="#Layer0_0_MEMBER_2_FILL"/>
</g>
</svg>
