
<svg xmlns="http://www.w3.org/2000/svg" version="1.1" xmlns:xlink="http://www.w3.org/1999/xlink" preserveAspectRatio="none" x="0px" y="0px" width="134px" height="174px" viewBox="0 0 134 174">
<defs>
<g id="Layer0_0_FILL">
<path fill="#7B8EB8" stroke="none" d="
M 136.5 152.1
Q 121.95 162.95 101.05 167.8
L 125.2 205
Q 132.9 210.7 143.85 206.9
L 163.7 194.05 136.5 152.1
M 72.85 70.1
Q 59.65 78.35 45 82.3
L 68.25 118.15 70.85 118.35
Q 84.15 113.3 96.15 106
L 72.85 70.1
M 47.95 43.6
Q 45.35 45.75 45.75 46.35 45.85 46.55 46.45 46.55
L 53.05 56.7
Q 52.15 57.1 51.1 57.55
L 53 60.5
Q 64.55 55.7 75 46.25
L 73.1 43.3
Q 72.5 43.9 71.9 44.3
L 64.9 33.5
Q 64 33.65 61.9 34.6 58.8 36 54.65 38.7 50.65 41.3 47.95 43.6
M 50.3 44.95
Q 53.05 43.45 56.35 41.3 58.9 39.65 60.75 38.3 61.45 37.85 61.95 37.35
L 68.45 47.35
Q 67.95 47.95 67.35 48.35 62.25 52.4 56.9 55.15 55.85 55.55 54.75 56.05
L 48.15 45.9
Q 48.65 45.75 49.15 45.4 49.85 45.2 50.3 44.95
M 83.5 62.2
L 106.9 98.3
Q 114.85 92.45 121.9 85.2 122 85.1 122.3 84.9 122.95 84.1 123 82.7
L 99.3 46.15
Q 91.7 55.15 83.5 62.2
M 173.1 187.95
Q 179.5 180.2 179.7 170.1
L 154.95 132
Q 150.75 138.75 145.2 144.5
L 173.1 187.95 Z"/>

<path fill="#70769A" stroke="none" d="
M 145.2 144.5
Q 150.75 138.75 154.95 132
L 151.05 129.2 152.6 131.65
Q 146.8 139.4 139.8 145.5 137.55 147.75 135 149.75 120.4 160.85 101.1 165.05
L 100.45 164.05 101.05 167.8
Q 121.95 162.95 136.5 152.1 139.15 150.25 141.45 148.05 141.75 147.85 141.85 147.75 143.55 146.15 145.2 144.5 Z"/>

<path fill="#8EA4D4" stroke="none" d="
M 79.3 65.45
Q 76 67.75 72.85 70.1
L 96.15 106
Q 99.4 103.85 102.65 101.45
L 79.3 65.45
M 67.35 48.35
Q 67.95 47.95 68.45 47.35
L 61.95 37.35
Q 61.45 37.85 60.75 38.3
L 67.35 48.35
M 50.3 44.95
Q 49.85 45.2 49.15 45.4 48.65 45.75 48.15 45.9
L 54.75 56.05
Q 55.85 55.55 56.9 55.15
L 50.3 44.95
M 163.7 194.05
L 169.45 190.3 141.85 147.75
Q 141.75 147.85 141.45 148.05 139.15 150.25 136.5 152.1
L 163.7 194.05 Z"/>

<path fill="#AFBAD4" stroke="none" d="
M 56.35 41.3
Q 53.05 43.45 50.3 44.95
L 56.9 55.15
Q 62.25 52.4 67.35 48.35
L 60.75 38.3
Q 58.9 39.65 56.35 41.3
M 99.3 46.15
L 87.25 46.5
Q 87.5 47.6 82.85 51.45 77.9 55.7 70.1 60.7 62.35 65.75 56.4 68.6 50.4 71.5 49.8 70.6 49.2 69.65 54.35 65.4 59.25 61 67 55.95 74.8 50.95 80.8 48.25 83.25 47.05 84.8 46.55
L 75 46.25
Q 64.55 55.7 53 60.5
L 45 82.3
Q 59.65 78.35 72.85 70.1 76 67.75 79.3 65.45 81.4 63.8 83.5 62.2 91.7 55.15 99.3 46.15 Z"/>

<path fill="#86546F" stroke="none" d="
M 122.3 84.9
Q 122 85.1 121.9 85.2 114.85 92.45 106.9 98.3 104.85 100 102.65 101.45 99.4 103.85 96.15 106 84.15 113.3 70.85 118.35
L 100.45 164.05 101.1 165.05
Q 120.4 160.85 135 149.75 137.55 147.75 139.8 145.5 146.8 139.4 152.6 131.65
L 151.05 129.2 122.3 84.9 Z"/>

<path fill="#C0C6D4" stroke="none" d="
M 106.9 98.3
L 83.5 62.2
Q 81.4 63.8 79.3 65.45
L 102.65 101.45
Q 104.85 100 106.9 98.3
M 87.25 46.5
L 84.8 46.55
Q 83.25 47.05 80.8 48.25 74.8 50.95 67 55.95 59.25 61 54.35 65.4 49.2 69.65 49.8 70.6 50.4 71.5 56.4 68.6 62.35 65.75 70.1 60.7 77.9 55.7 82.85 51.45 87.5 47.6 87.25 46.5
M 169.45 190.3
L 173.1 187.95 145.2 144.5
Q 143.55 146.15 141.85 147.75
L 169.45 190.3 Z"/>
</g>
</defs>

<g transform="matrix( 1, 0, 0, 1, -45,-33.5) ">
<use xlink:href="#Layer0_0_FILL"/>
</g>
</svg>
