
<svg xmlns="http://www.w3.org/2000/svg" version="1.1" xmlns:xlink="http://www.w3.org/1999/xlink" preserveAspectRatio="none" x="0px" y="0px" width="150px" height="182px" viewBox="0 0 150 182">
<defs>
<g id="Layer0_0_FILL">
<path fill="#999999" stroke="none" d="
M 124.25 49.45
Q 124.25 47.75 124.15 46.55 123.55 42.7 120.9 41.65 107.2 40.45 94.95 43.2 92.3 44.65 91.95 48.35 92.05 49.8 92.45 51.1
L 92.45 51.6
Q 92.269140625 51.5453125 92.05 51.5 78.4 52.1 66.6 56.65 64.1 58.35 64.45 62.05 64.7 63.5 65.15 64.95
L 77.65 126.1
Q 78.85 132.35 82.7 135.8 86.3 137.85 87.85 142.3 91 157.7 97.7 172.2 97.85 172.2 98.1 172.45 98.4427734375 173.869921875 98.45 175.2
L 98.45 175.35
Q 98.2 175.35 98.2 175.6 97.7 176.8 98.55 177.85
L 99.9 179.8 99.9 180.15 99.3 180.4
Q 99.3 182.65 100.85 182.65 104.95 182.65 110.1 180.6 111.65 179.65 110.95 177.85
L 110.2 178 110.1 178 110.1 175.6
Q 110.35 174.4 109.35 173.3
L 109.15 173.05 109.15 172.95 109 172.8 108.75 172.95
Q 108.75 172.8 108.65 172.55
L 108.65 172.45
Q 108.3 171.5 108.4 170.3 108.4 170.15 108.65 169.95 108.76484375 164.7314453125 108.5 159.55 108.8109375 160.7919921875 109.15 162
L 109.35 162.25
Q 109.75 163.8 109.35 165.35 109.15 165.35 109.15 165.5 108.65 166.55 109.15 167.75
L 110.1 169.95 110.1 170.3 109.5 170.3
Q 109.15 172.55 110.95 172.8 115 173.3 120.2 172.2 122 171.35 121.5 169.55
L 120.55 169.55 120.9 167.15
Q 121.5 166.1 120.4 164.9
L 120.2 164.65 120.2 164.3 120.05 164.3
Q 120.05 164.15 119.95 163.95
L 119.95 163.9
Q 119.7 162.8 120.05 161.65 120.05 161.5 120.2 161.3 122.85 145.65 122 130.15 122.2 125.35 124.15 122.7 128.1 118.15 127.25 111.9
L 124.25 49.45
M 104.8 172.95
L 104.8 172.8 105.05 172.55 104.8 172.95
M 116.35 163.45
L 116.2 163.8 116.2 163.45 116.35 163.45
M 144.5 19.25
L 144.3 19.5 144.2 19.45
Q 143.9 19.4 143.75 19.45
L 143.8 19.8
Q 143.65 19.75 143.3 20.05 142.3 19.95 140.7 19.4
L 140.3 19.3
Q 122.65 14 104.65 13.25 98.95 12.35 96.3 9.75 91.7 4.7 84.3 4.75
L 11.6 0.05
Q 9.65 -0.05 8.3 0.05 3.7 0 2.2 3.1 -1.15 18.7 0.55 33.3 1.95 36.7 6.05 37.3 7.7 37.4 9.5 37.3
L 82.25 41.25
Q 89.35 41.6 94.45 38.15 97.85 34.9 103.5 34.45 121.4 35.35 139.75 32 140.1 31.8 140.25 31.85 141.5 31.7 142.7 31.95 142.75 31.95 142.85 31.95 143 32 143.2 32.05
L 143.6 32.15
Q 143.55 32.45 143.7 32.45 145.15 33.4 146.6 32.95
L 148.85 32.05 149.55 32.25 150.15 19.85 147.4 19.15
Q 145.9 18.3 144.5 19.25
M 142.5 24.2
L 142.35 23.75 142.9 24.35 142.5 24.2 Z"/>
</g>
</defs>

<g transform="matrix( 1, 0, 0, 1, 0,0) ">
<use xlink:href="#Layer0_0_FILL"/>
</g>
</svg>
