
<svg xmlns="http://www.w3.org/2000/svg" version="1.1" xmlns:xlink="http://www.w3.org/1999/xlink" preserveAspectRatio="none" x="0px" y="0px" width="273px" height="157px" viewBox="0 0 273 157">
<defs>
<linearGradient id="Gradient_1" gradientUnits="userSpaceOnUse" x1="253.45" y1="658.6" x2="253.45" y2="707.8000000000001" spreadMethod="pad">
<stop  offset="9.803921568627452%" stop-color="#626262"/>

<stop  offset="88.23529411764706%" stop-color="#000000"/>
</linearGradient>

<linearGradient id="Gradient_2" gradientUnits="userSpaceOnUse" x1="253.55" y1="635.55" x2="253.55" y2="691.75" spreadMethod="pad">
<stop  offset="9.803921568627452%" stop-color="#626262"/>

<stop  offset="88.23529411764706%" stop-color="#000000"/>
</linearGradient>

<linearGradient id="Gradient_3" gradientUnits="userSpaceOnUse" x1="253.3" y1="617.75" x2="253.3" y2="673.75" spreadMethod="pad">
<stop  offset="9.803921568627452%" stop-color="#626262"/>

<stop  offset="88.23529411764706%" stop-color="#000000"/>
</linearGradient>

<linearGradient id="Gradient_4" gradientUnits="userSpaceOnUse" x1="252.85" y1="578.8499999999999" x2="252.85" y2="653.75" spreadMethod="pad">
<stop  offset="9.803921568627452%" stop-color="#626262"/>

<stop  offset="88.23529411764706%" stop-color="#000000"/>
</linearGradient>

<linearGradient id="Gradient_5" gradientUnits="userSpaceOnUse" x1="253.05" y1="624.35" x2="253.05" y2="611.0500000000001" spreadMethod="pad">
<stop  offset="28.235294117647058%" stop-color="#3F6C83"/>

<stop  offset="100%" stop-color="#61A5C9"/>
</linearGradient>

<linearGradient id="Gradient_6" gradientUnits="userSpaceOnUse" x1="253.3" y1="624.375" x2="253.3" y2="584.825" spreadMethod="pad">
<stop  offset="9.803921568627452%" stop-color="#626262"/>

<stop  offset="88.23529411764706%" stop-color="#000000"/>
</linearGradient>

<linearGradient id="Gradient_7" gradientUnits="userSpaceOnUse" x1="251.25" y1="576.8" x2="254.35000000000002" y2="631.2" spreadMethod="pad">
<stop  offset="0%" stop-color="#626262"/>

<stop  offset="100%" stop-color="#000000"/>
</linearGradient>

<g id="Layer0_0_FILL">
<path fill="url(#Gradient_1)" stroke="none" d="
M 121.2 660.4
Q 120.95 660.05 120.7 659.7 123.1 666.25 126.8 671.95 127.3 672.75 127.9 673.55 130.65 679.05 142.45 688.35 154.25 697.6 177.8 705.25 201.3 712.9 251.95 714.8 302.6 716.7 332.95 705.85 363.3 694.95 371.25 683.95 379.15 672.9 379.75 671.95 383.75 665.75 386.2 658.6 385.65 659.5 385.05 660.4 384.45 661.35 383.8 662.3 376.95 674.7 346.85 684.1 308 696.25 253.1 696.25 198.2 696.25 159.3 684.1 142.2 678.75 132.65 672.45 125.2 667.5 122.35 662 121.7 661.2 121.2 660.4 Z"/>

<path fill="url(#Gradient_2)" stroke="none" d="
M 118.15 650.9
Q 119.55 653.45 121.2 655.9 121.7 656.7 122.35 657.5 125.2 663 132.65 667.95 142.2 674.25 159.3 679.6 198.2 691.75 253.1 691.75 308 691.75 346.85 679.6 376.95 670.2 383.8 657.8 384.45 656.85 385.05 655.9 386.95 653.05 388.6 649.95 390 643.1 390.2 635.55 388.9 638.15 387.3 640.6 386.75 641.5 386.1 642.4 385.5 643.35 384.8 644.3 377.85 656.7 347.1 666.1 307.45 678.25 251.35 678.25 195.25 678.25 155.55 666.1 138.05 660.75 128.3 654.45 120.7 649.5 117.8 644 117.25 643.4 116.85 642.75 117.3 646.95 118.15 650.9 Z"/>

<path fill="#000000" stroke="none" d="
M 121.2 655.9
Q 119.55 653.45 118.15 650.9 119.2 655.45 120.7 659.7 120.95 660.05 121.2 660.4 121.7 661.2 122.35 662 125.2 667.5 132.65 672.45 142.2 678.75 159.3 684.1 198.2 696.25 253.1 696.25 308 696.25 346.85 684.1 376.95 674.7 383.8 662.3 384.45 661.35 385.05 660.4 385.65 659.5 386.2 658.6 387.6 654.45 388.6 649.95 386.95 653.05 385.05 655.9 384.45 656.85 383.8 657.8 376.95 670.2 346.85 679.6 308 691.75 253.1 691.75 198.2 691.75 159.3 679.6 142.2 674.25 132.65 667.95 125.2 663 122.35 657.5 121.7 656.7 121.2 655.9
M 116.45 637.65
Q 116.55 640.25 116.85 642.75 117.25 643.4 117.8 644 120.7 649.5 128.3 654.45 138.05 660.75 155.55 666.1 195.25 678.25 251.35 678.25 307.45 678.25 347.1 666.1 377.85 656.7 384.8 644.3 385.5 643.35 386.1 642.4 386.75 641.5 387.3 640.6 388.9 638.15 390.2 635.55 390.25 634.1 390.25 632.6 390.25 631.8 390.25 631 388.4 634.6 386.15 637.9 385.5 638.85 384.8 639.8 377.85 652.2 347.1 661.6 307.45 673.75 251.3 673.75 195.25 673.75 155.55 661.6 138.05 656.25 128.3 649.95 120.7 645 117.8 639.5 117.15 638.7 116.6 637.9 116.5 637.75 116.45 637.65
M 155.55 641.6
Q 138.05 636.25 128.3 629.95 120.7 625 117.8 619.5 117.55 619.2 117.3 618.9 117 620.75 116.8 622.7 117.25 623.35 117.8 624 120.7 629.5 128.3 634.45 138.05 640.75 155.55 646.1 171.6 651 190.35 653.95 217.95 658.25 251.35 658.25 287.45 658.25 316.75 653.25 332.95 650.45 347.1 646.1 377.85 636.7 384.8 624.3 385.5 623.35 386.1 622.4 386.75 621.5 387.3 620.6 388.25 619.2 389.05 617.75 388.75 616 388.4 614.35 387.3 616.15 386.15 617.9 385.5 618.85 384.8 619.8 377.85 632.2 347.1 641.6 337.15 644.65 326.2 646.95 293.35 653.75 251.3 653.75 211.6 653.75 180.15 647.65 167.15 645.15 155.55 641.6 Z"/>

<path fill="url(#Gradient_3)" stroke="none" d="
M 116.8 622.7
Q 116.3 627.5 116.3 632.6 116.3 635.15 116.45 637.65 116.5 637.75 116.6 637.9 117.15 638.7 117.8 639.5 120.7 645 128.3 649.95 138.05 656.25 155.55 661.6 195.25 673.75 251.3 673.75 307.45 673.75 347.1 661.6 377.85 652.2 384.8 639.8 385.5 638.85 386.15 637.9 388.4 634.6 390.25 631 390.1 624.05 389.05 617.75 388.25 619.2 387.3 620.6 386.75 621.5 386.1 622.4 385.5 623.35 384.8 624.3 377.85 636.7 347.1 646.1 332.95 650.45 316.75 653.25 287.45 658.25 251.35 658.25 217.95 658.25 190.35 653.95 171.6 651 155.55 646.1 138.05 640.75 128.3 634.45 120.7 629.5 117.8 624 117.25 623.35 116.8 622.7 Z"/>

<path fill="url(#Gradient_4)" stroke="none" d="
M 127.35 593.2
Q 130.55 585.5 142.1 578.95 133.5 582.7 126.8 593.15 119.55 604.4 117.3 618.9 117.55 619.2 117.8 619.5 120.7 625 128.3 629.95 138.05 636.25 155.55 641.6 167.15 645.15 180.15 647.65 211.6 653.75 251.3 653.75 293.35 653.75 326.2 646.95 337.15 644.65 347.1 641.6 377.85 632.2 384.8 619.8 385.5 618.85 386.15 617.9 387.3 616.15 388.4 614.35 385.85 602.6 379.75 593.15 372.95 582.55 364.25 578.85 380.4 587.95 380.4 599.3 380.4 616.5 343.15 628.65 336.3 630.9 329 632.7 328.75 632.75 328.55 632.8 324.5 633.8 320.3 634.7 319.45 634.85 318.6 635 289.6 640.8 253.25 640.8 216.95 640.8 187.95 635.05 187.1 634.85 186.25 634.7 185.85 634.6 185.5 634.55 181.6 633.7 177.9 632.8 177.3 632.65 176.75 632.5 169.8 630.75 163.3 628.65 126.1 616.5 126.1 599.3 126.1 596.15 127.35 593.2 Z"/>

<path fill="#333333" stroke="none" d="
M 253.25 557.8
Q 200.6 557.8 163.3 569.95 150.45 574.15 142.1 578.95 130.55 585.5 127.35 593.2 126.1 596.15 126.1 599.3 126.1 616.5 163.3 628.65 169.8 630.75 176.75 632.5 177.3 632.65 177.9 632.8 181.6 633.7 185.5 634.55 185.85 634.6 186.25 634.7 187.1 634.85 187.95 635.05 216.95 640.8 253.25 640.8 289.6 640.8 318.6 635 319.45 634.85 320.3 634.7 324.5 633.8 328.55 632.8 328.75 632.75 329 632.7 336.3 630.9 343.15 628.65 380.4 616.5 380.4 599.3 380.4 587.95 364.25 578.85 355.85 574.1 343.15 569.95 305.9 557.8 253.25 557.8
M 252.75 577.05
Q 284.9 577.05 307.6 584.9 323.3 590.3 328.2 597.35 328.7 598.1 329.05 598.85 330.4 601.25 330.4 603.9 330.4 605.3 330 606.7 328.8 611.15 323.75 615.05 322.85 615.65 321.9 616.35 318.25 618.75 312.95 620.95 310.45 621.95 307.6 622.95 301 625.25 293.6 626.9 289.05 627.85 284.2 628.65 283.95 628.65 283.65 628.7 269.45 630.85 252.75 630.85 235.7 630.85 221.35 628.65 221.05 628.6 220.75 628.55 216.2 627.8 211.95 626.9 204.5 625.25 197.9 622.95 195.05 621.95 192.6 620.95 185.95 618.15 181.85 615.05 180.8 614.25 179.9 613.45 176.55 610.25 175.6 606.75 175.15 605.35 175.15 603.9 175.15 602.25 175.75 600.6 176 599.7 176.55 598.85 180.6 590.9 197.9 584.9 220.65 577.05 252.75 577.05 Z"/>

<path fill="#4A4A4A" stroke="none" d="
M 253.25 624.8
Q 268.85 624.8 283.1 625.9 287.7 625.2 292 624.35 274.9 620.8 253.25 620.8 231.65 620.8 214.55 624.35 218.6 625.15 222.9 625.8 223.2 625.85 223.45 625.9 223.95 625.85 224.4 625.8 238.2 624.8 253.25 624.8 Z"/>

<path fill="#232323" stroke="none" d="
M 253.25 627.85
Q 269.1 627.85 282.55 625.95 282.85 625.9 283.1 625.9 268.85 624.8 253.25 624.8 238.2 624.8 224.4 625.8 223.95 625.85 223.45 625.9 237.1 627.85 253.25 627.85 Z"/>

<path fill="url(#Gradient_5)" stroke="none" d="
M 305.3 620.8
Q 307.35 620.15 309.2 619.45 308.4 619.15 307.6 618.9 284.9 611.05 252.75 611.05 220.65 611.05 197.9 618.9 197.4 619.1 196.9 619.25 198.9 620.05 201.2 620.8 207.5 622.85 214.55 624.35 231.65 620.8 253.25 620.8 274.9 620.8 292 624.35 299.05 622.85 305.3 620.8 Z"/>

<path fill="url(#Gradient_6)" stroke="none" d="
M 305.3 591.8
Q 283.75 584.8 253.25 584.8 222.8 584.8 201.2 591.8 184.8 597.15 180.95 604.25 180.45 605.05 180.2 605.85 180.1 606.1 180.05 606.35 180.95 609.45 184.15 612.3 185 613.05 186 613.75 190.1 616.65 196.9 619.25 197.4 619.1 197.9 618.9 220.65 611.05 252.75 611.05 284.9 611.05 307.6 618.9 308.4 619.15 309.2 619.45 315 617.3 318.85 614.9 319.75 614.3 320.6 613.75 325.4 610.25 326.55 606.3 326.2 605.25 325.65 604.25 325.3 603.6 324.85 602.95 320.2 596.65 305.3 591.8 Z"/>

<path fill="#666666" stroke="none" d="
M 305.3 586.8
Q 283.75 579.8 253.25 579.8 222.8 579.8 201.2 586.8 184.8 592.15 180.95 599.25 180.45 600.05 180.2 600.85 179.65 602.3 179.65 603.8 179.65 605.1 180.05 606.35 180.1 606.1 180.2 605.85 180.45 605.05 180.95 604.25 184.8 597.15 201.2 591.8 222.8 584.8 253.25 584.8 283.75 584.8 305.3 591.8 320.2 596.65 324.85 602.95 325.3 603.6 325.65 604.25 326.2 605.25 326.55 606.3 326.9 605.05 326.9 603.8 326.9 601.4 325.65 599.25 325.3 598.6 324.85 597.95 320.2 591.65 305.3 586.8 Z"/>
</g>

<g id="Layer0_0_MEMBER_0_FILL">
<path fill="url(#Gradient_7)" stroke="none" d="
M 307.6 584.9
Q 284.9 577.05 252.75 577.05 220.65 577.05 197.9 584.9 180.6 590.9 176.55 598.85 176 599.7 175.75 600.6 175.15 602.25 175.15 603.9 175.15 605.35 175.6 606.75 176.55 610.25 179.9 613.45 180.8 614.25 181.85 615.05 185.95 618.15 192.6 620.95 195.05 621.95 197.9 622.95 204.5 625.25 211.95 626.9 216.2 627.8 220.75 628.55 221.05 628.6 221.35 628.65 235.7 630.85 252.75 630.85 269.45 630.85 283.65 628.7 283.95 628.65 284.2 628.65 289.05 627.85 293.6 626.9 301 625.25 307.6 622.95 310.45 621.95 312.95 620.95 318.25 618.75 321.9 616.35 322.85 615.65 323.75 615.05 328.8 611.15 330 606.7 330.4 605.3 330.4 603.9 330.4 601.25 329.05 598.85 328.7 598.1 328.2 597.35 323.3 590.3 307.6 584.9
M 253.25 579.8
Q 283.75 579.8 305.3 586.8 320.2 591.65 324.85 597.95 325.3 598.6 325.65 599.25 326.9 601.4 326.9 603.8 326.9 605.05 326.55 606.3 325.4 610.25 320.6 613.75 319.75 614.3 318.85 614.9 315 617.3 309.2 619.45 307.35 620.15 305.3 620.8 299.05 622.85 292 624.35 287.7 625.2 283.1 625.9 282.85 625.9 282.55 625.95 269.1 627.85 253.25 627.85 237.1 627.85 223.45 625.9 223.2 625.85 222.9 625.8 218.6 625.15 214.55 624.35 207.5 622.85 201.2 620.8 198.9 620.05 196.9 619.25 190.1 616.65 186 613.75 185 613.05 184.15 612.3 180.95 609.45 180.05 606.35 179.65 605.1 179.65 603.8 179.65 602.3 180.2 600.85 180.45 600.05 180.95 599.25 184.8 592.15 201.2 586.8 222.8 579.8 253.25 579.8 Z"/>
</g>

<path id="Layer0_0_1_STROKES" stroke="#66CCCC" stroke-opacity="0.4392156862745098" stroke-width="4" stroke-linejoin="round" stroke-linecap="round" fill="none" d="
M 196.9 619.25
Q 197.4 619.1 197.9 618.9 220.65 611.05 252.75 611.05 284.9 611.05 307.6 618.9 308.4 619.15 309.2 619.45"/>
</defs>

<g transform="matrix( 1, 0, 0, 1, -116.3,-557.8) ">
<use xlink:href="#Layer0_0_FILL"/>

<use xlink:href="#Layer0_0_1_STROKES"/>
</g>

<g transform="matrix( 1, 0, 0, 1, -116.3,-557.8) ">
<use xlink:href="#Layer0_0_MEMBER_0_FILL"/>
</g>
</svg>
