
<svg xmlns="http://www.w3.org/2000/svg" version="1.1" xmlns:xlink="http://www.w3.org/1999/xlink" preserveAspectRatio="none" x="0px" y="0px" width="273px" height="157px" viewBox="0 0 273 157">
<defs>
<g id="Layer0_0_FILL">
<path fill="#999999" stroke="none" d="
M 263.45 35.35
Q 256.65 24.75 247.95 21.05 239.55 16.3 226.85 12.15 189.6 0 136.95 0 84.3 0 47 12.15 34.15 16.35 25.8 21.15 17.2 24.9 10.5 35.35 3.25 46.6 1 61.1 0.7 62.95 0.5 64.9 0 69.7 0 74.8 0 77.35 0.15 79.85 0.25 82.45 0.55 84.95 1 89.15 1.85 93.1 2.9 97.65 4.4 101.9 6.8 108.45 10.5 114.15 11 114.95 11.6 115.75 14.35 121.25 26.15 130.55 37.95 139.8 61.5 147.45 85 155.1 135.65 157 186.3 158.9 216.65 148.05 247 137.15 254.95 126.15 262.85 115.1 263.45 114.15 267.45 107.95 269.9 100.8 271.3 96.65 272.3 92.15 273.7 85.3 273.9 77.75 273.95 76.3 273.95 74.8 273.95 74 273.95 73.2 273.8 66.25 272.75 59.95 272.45 58.2 272.1 56.55 269.55 44.8 263.45 35.35
M 166.8 68.1
Q 166.55 68.1 166.25 68.15 152.8 70.05 136.95 70.05 120.8 70.05 107.15 68.1 106.9 68.05 106.6 68 102.3 67.35 98.25 66.55 115.35 63 136.95 63 158.6 63 175.7 66.55 171.4 67.4 166.8 68.1 Z"/>
</g>
</defs>

<g transform="matrix( 1, 0, 0, 1, 0,0) ">
<use xlink:href="#Layer0_0_FILL"/>
</g>
</svg>
