<svg xmlns="http://www.w3.org/2000/svg" xmlns:xlink="http://www.w3.org/1999/xlink" preserveAspectRatio="none" width="226" height="269" viewBox="0 0 226 269"><defs><linearGradient id="a" gradientUnits="userSpaceOnUse" x1="872.4" y1="319.05" x2="1028.1" y2="319.05"><stop offset="0%" stop-color="#930"/><stop offset="100%" stop-color="#EE7225"/></linearGradient><linearGradient id="b" gradientUnits="userSpaceOnUse" x1="110.75" y1="77.362" x2="128.05" y2="107.538"><stop offset="5.098%" stop-color="#FFF"/><stop offset="100%" stop-color="#CDCDCD"/></linearGradient><linearGradient id="c" gradientUnits="userSpaceOnUse" x1="183.363" y1="201.05" x2="310.738" y2="201.05"><stop offset="69.412%" stop-color="#FFF"/><stop offset="100%" stop-color="#FFF"/></linearGradient><path fill="#FFF" d="M525.1 188.55q0-22.15-15.7-37.85-15.65-15.65-37.8-15.65t-37.85 15.65q-15.65 15.7-15.65 37.85 0 22.15 15.65 37.8 15.7 15.7 37.85 15.7 22.15 0 37.8-15.7 15.7-15.65 15.7-37.8z" id="d"/><path fill="url(#a)" d="M1028.1 262.7q0-5.7-4-9.7-4-4-9.7-4H886.05q-5.65 0-9.65 4t-4 9.7v112.7q0 5.7 4 9.7 4 4 9.65 4h128.35q5.7 0 9.7-4 4-4 4-9.7V262.7z" id="f"/><g id="g"><path fill="#ECECEC" d="M95.75 128.05l-1.7.3-1.7.2q-2.1.3-4.25.35h-.6q4.4 1.45 8.85 2.7.55.15 1.2.3.4.1.85.25-.1-.1.3.05h.05q.85.25 3.6 1.15 2.7.9 3.95 1.1 1.25.15 2.95.3 1.6.05 3.3-.05 1.55-.1 3.05-.25 10.45-1.35 20.4-7.6-9.05-2.7-19.45-6.45-6.45 3.6-12.95 5.65-3.9 1.25-7.85 2m25.75 9q.15 0 .25-.05 11.4-.7 22.2-8-.1 0-.25-.05-1.9-.5-3.85-1.05-4.7 3.1-9.5 5-6.6 2.7-13.4 3.35-.7.05-1.4.05-1.3.1-2.5.1 3.8.9 8.45.65m59.75.85l6.95-8.5q-11.85 7.2-40.6.5-9.1 6.35-18.6 8.05 25.4 2.95 52.25-.05z"/><path fill="#E5E5E5" d="M121.75 137q-.1.05-.25.05-4.65.25-8.45-.65 1.2 0 2.5-.1.7 0 1.4-.05 6.8-.65 13.4-3.35 4.8-1.9 9.5-5-1.9-.5-3.85-1.05-9.95 6.25-20.4 7.6-1.5.15-3.05.25-1.7.1-3.3.05-1.7-.15-2.95-.3-1.25-.2-3.95-1.1-2.75-.9-3.6-1.15h-.05q-.4-.15-.3-.05.1.1.65.45.75.5 3.6 1.95t8.85 1.85q5.2 2.55 12.75 2.1 2.4-.1 4.75-.55 9.5-1.7 18.6-8.05-1.8-.4-3.65-.9-10.8 7.3-22.2 8z"/><path fill="#FFF" d="M158.75 98.85q.4-1.2.7-2.3 2.25-8.1 1.45-13.05l-3.75-8.05-3.55-7.2q-.05 6.05-2.45 13.05-1.7 5-4.25 9.65-6.95 12.6-20.15 22.7-.25.15-.45.35-4.85 3.6-9.75 6.4 10.4 3.75 19.45 6.45.4-.3.8-.55 1.95-1.25 3.85-2.7 5.95-4.5 10.2-9.85 5.45-6.8 7.9-14.9m-7.3-31.35v-.45q.05-2.35-.3-4.55-.9-7.2-5.35-13.05-9.45-12.5-29.2-11.5-19.7 1.05-38.15 15T53.6 85.6q-6.4 18.7 3.05 31.2 9.4 12.45 29 11.5h.15q2.7-.15 5.4-.55.3-.05.5-.05l1.8-.3q3.9-.75 7.8-1.95 6.65-2.15 13.15-5.85 4.85-2.7 9.55-6.3.2-.15.45-.3 13.15-10.1 20.1-22.6 2.6-4.7 4.3-9.75 2.4-7 2.6-13.15M83.05 96q4.75-13.75 18.35-24.05 13.6-10.25 28.1-11.1 10.15-.55 16.55 3.75 1 .45 1.95 1 .25.15.55.3-.3-.05-.55-.15v1q-.05 6.05-2.5 13.05-1.8 5.25-4.6 10.05-6.65 11.4-18.85 20.6-1.85 1.4-3.65 2.6-13.2 8.95-27 11.05l-.7.1q-1-.15-1.85-.3-.8-.1-1.5-.25-1.35-2.15-1.75-4.6-.3-1.45-.25-2.9-.9.2-1.7.4-4.8-8.55-.6-20.55m21.3-22.4Q90.75 83.9 86 97.6q-3.6 10.3-.6 18l.2.5q.3.7.65 1.35-.15-.7-.25-1.45-.2-1.15-.25-2.4-.2-5.5 2.05-11.95 5-14.45 19.35-25.3 14.35-10.8 29.6-11.65 5.95-.35 10.65.9-.65-.55-1.35-1-5.65-2.55-13.6-2.1-14.5.85-28.1 11.1m58.5 32.2q.6-1.8 1.05-3.5 1.35-5.9.05-10.7-.15 3.8-1.45 8.15-.25.7-.5 1.45-2.35 6.9-7 12.95-4.6 5.95-11.4 11.1-.55.45-1.15.9-1.3.9-2.6 1.75 1.95.55 3.85 1.05.15.05.25.05l.6-.4q1-.7 1.95-1.45.9-.65 1.75-1.35 6.4-5.2 10.35-11.3 2.65-4.15 4.25-8.7m25-10.9q-.25 0-.55-.05l-8 28.6-12-26q.15 4.55-1.7 9.85-.55 1.55-1.2 3-1 2.35-2.4 4.6-1 1.7-2.2 3.35-2.85 3.75-6.65 7.2-1.85 1.65-3.9 3.2-.85.65-1.65 1.25 28.75 6.7 40.6-.5l33.45-41q-1.7 1.15-3.85 2.25-9.4 4.65-22.6 4.65-3.8 0-7.35-.4m-14.6-28.35q-2.25 1.1-3.95 2.35-4.05 2.9-5.05 6.4-.35 1.2-.35 2.5 0 .8.15 1.6.9 4.7 6.9 8.35 1.05.65 2.3 1.25 6.7 3.3 15.3 4.3 3.5.35 7.3.35 13.25 0 22.6-4.65 3.65-1.8 5.85-3.85.15-.2.35-.35 1.4-1.4 2.15-2.9 1-2 1-4.1 0-6.65-9.35-11.25-9.35-4.7-22.6-4.7-13.25 0-22.6 4.7m5.35 5.5q1.1-.8 2.55-1.5 5.95-3 14.35-3 8.45 0 14.35 3 5.95 2.95 5.95 7.15 0 .6-.1 1.15-.75-3.5-5.85-6-5.9-3-14.35-3-8.4 0-14.35 3-1.45.7-2.55 1.5-2.75 2-3.25 4.5 0-.05-.05-.15-.1-.5-.1-1 0-3.2 3.4-5.65z"/><path fill="#CCC" d="M153.6 68.25q-1.05-.45-2.15-.75-.2 6.15-2.6 13.15-1.7 5.05-4.3 9.75-6.95 12.5-20.1 22.6-.25.15-.45.3-4.7 3.6-9.55 6.3-6.5 3.7-13.15 5.85-3.9 1.2-7.8 1.95l-1.8.3q-.2 0-.5.05-2.7.4-5.4.55h-.15q.85.25 1.7.55.1 0 .15.05h.6q2.15-.05 4.25-.35l1.7-.2 1.7-.3q3.95-.75 7.85-2 6.5-2.05 12.95-5.65 4.9-2.8 9.75-6.4.2-.2.45-.35 13.2-10.1 20.15-22.7 2.55-4.65 4.25-9.65 2.4-7 2.45-13.05m-2.45-5.75q.35 2.2.3 4.55 1.1.5 2.15 1.2l-2.45-5.75z"/><path fill="#9CF" d="M140.9 89.85q-9.1-1.05-19.65.85-16.4 2.95-26.8 11.25-2.2 1.75-3.85 3.5-3.8 4-4.85 8.15.05 1.25.25 2.4.1.75.25 1.45-.35-.65-.65-1.35-.1 0-.25.05-.05 1.45.25 2.9.4 2.45 1.75 4.6.7.15 1.5.25.85.15 1.85.3l.7-.1q13.8-2.1 27-11.05 1.8-1.2 3.65-2.6 12.2-9.2 18.85-20.6z"/><path fill="url(#b)" d="M145.5 79.8q2.45-7 2.5-13.05-3.6-.55-7.8-.35-15.3.85-29.6 11.7-14.35 10.85-19.35 25.3-.35 1.05-.65 2.05 1.65-1.75 3.85-3.5 10.4-8.3 26.8-11.25 10.55-1.9 19.65-.85 2.8-4.8 4.6-10.05z"/><path fill="#040404" fill-opacity=".2" d="M148 65.6v.15q.25.1.55.15-.3-.15-.55-.3z"/><path fill="#F3F3F3" d="M148 65.75q-.3-.05-.6-.15-4.7-1.25-10.65-.9-15.25.85-29.6 11.65Q92.8 87.2 87.8 101.65q-2.25 6.45-2.05 11.95 1.05-4.15 4.85-8.15.3-1 .65-2.05 5-14.45 19.35-25.3 14.3-10.85 29.6-11.7 4.2-.2 7.8.35v-1m-46.6 6.2Q87.8 82.25 83.05 96q-4.2 12 .6 20.55.8-.2 1.7-.4.15-.05.25-.05l-.2-.5q-3-7.7.6-18 4.75-13.7 18.35-24 13.6-10.25 28.1-11.1 7.95-.45 13.6 2.1-6.4-4.3-16.55-3.75-14.5.85-28.1 11.1m62.3 15.1q-.05-.05-.05-.1-.55-2.95-1.9-5.6-.75-1.5-1.85-2.95-1.25-1.65-2.75-2.95l3.75 8.05q.8 4.95-1.45 13.05-.3 1.1-.7 2.3-2.45 8.1-7.9 14.9-4.25 5.35-10.2 9.85-1.9 1.45-3.85 2.7-.4.25-.8.55 1.95.55 3.85 1.05 1.3-.85 2.6-1.75.6-.45 1.15-.9 6.8-5.15 11.4-11.1 4.65-6.05 7-12.95.25-.75.5-1.45 1.3-4.35 1.45-8.15 1.3 4.8-.05 10.7-.45 1.7-1.05 3.5-1.6 4.55-4.25 8.7-3.95 6.1-10.35 11.3-.85.7-1.75 1.35-.95.75-1.95 1.45l-.6.4q1.85.5 3.65.9.8-.6 1.65-1.25 2.05-1.55 3.9-3.2 3.8-3.45 6.65-7.2 1.2-1.65 2.2-3.35 1.4-2.25 2.4-4.6.65-1.45 1.2-3 1.85-5.3 1.7-9.85-.15-5.85-3.6-10.4m-.35-9.1q-.1.7-.1 1.45 0 .85.15 1.65.85 4.5 6.4 8.05l.5.3q1.05.65 2.3 1.25 6.45 3.2 14.7 4.2.3.05.55.05 3.55.4 7.35.4 13.2 0 22.6-4.65 2.15-1.1 3.85-2.25l2.65-3.25q-2.2 2.05-5.85 3.85-9.35 4.65-22.6 4.65-3.8 0-7.3-.35-8.6-1-15.3-4.3-1.25-.6-2.3-1.25-6-3.65-6.9-8.35-.15-.8-.15-1.6 0-1.3.35-2.5-.65 1.25-.9 2.65m17.8-7.4q-1.45.7-2.55 1.5-3.4 2.45-3.4 5.65 0 .5.1 1 .05.1.05.15.5-2.5 3.25-4.5 1.1-.8 2.55-1.5 5.95-3 14.35-3 8.45 0 14.35 3 5.1 2.5 5.85 6 .1-.55.1-1.15 0-4.2-5.95-7.15-5.9-3-14.35-3-8.4 0-14.35 3z"/><path fill="#DBDBDB" d="M163.25 79.4q0-.75.1-1.45l-1.6 3.4q1.35 2.65 1.9 5.6 0 .05.05.1 3.45 4.55 3.6 10.4l12 26 8-28.6q-8.25-1-14.7-4.2-1.25-.6-2.3-1.25l-.5-.3q-5.55-3.55-6.4-8.05-.15-.8-.15-1.65z"/></g><path fill="#FFF" fill-opacity=".698" d="M0 114.25l18.6 6.3q30.6-82.05 16.1-99.4Q17-10.2 10.25 4.9L0 114.25z" id="h"/><g id="i"><path d="M-37.15 90.35l-.45-.8-8.45 6.85-11.25 4.15.8.8 11.05-4.3 8.3-6.7m8.8-14.05l-.95-.8-6.9 12.05.55.75 7.3-12M-19 42.8l-1.3.3-8.2 30.5 1.15.4L-19 42.8m-8-29.6l-.1-1.9-23.5-6.85-.25 1.45 29.15 35.3 1.25-.8L-49 6.45l22 6.75z"/><path fill="#333" d="M-37.6 89.55l-.35-.9-7.75 6.3-11.8 5.45.2.15 11.25-4.15 8.45-6.85m8.3-14.05l-.65-.7-6.75 12.1.5.65 6.9-12.05m9-32.4l-1.4.35-.25-.15-7.45 29.8.9.5 8.2-30.5m-6.8-31.8l-.15-1.9-22.95-7.9-.15 1.1-.7 2.95-1.25.45q.1.1.15.1L-23 41.95l1.3-.75-29.15-35.3.25-1.45 23.5 6.85z"/><path fill="#CCC" d="M-36.2 87.55l-.85 1.5-.55.5.45.8.5-.45 1-1.6-.55-.75M-27.35 74l-1.15-.4-.2 1.1-.6.8.95.8.7-1.2.3-1.1M-52.3 6l1.25-.45.7-2.95-2.55 2.65q.15.35.6.75m31.85 34.4l-1.25.8 1.45 1.75-.05.15 1.3-.3.2-.45-1.65-1.95z"/><path fill="#FFF" d="M-37.55 88.25l-.4.4.35.9.55-.5.85-1.5-.5-.65-.85 1.35m9.05-14.65l-.9-.5-.3 1.3-.25.4.65.7.6-.8.2-1.1m-21.85-71l.15-1.1-.85-.4q-3.05 2.25-1.85 4.15l2.55-2.65m28.65 40.85l1.4-.35.05-.15-1.45-1.75-1.3.75 1.05 1.35.25.15z"/></g><g id="j"><path fill="#FFF" d="M65.05 135.65l.4-.2-4.15-4.2-.5.7 4.25 3.7m-12.9-11.05l5.55 4.85.65-1.15-5.4-5.55-.8 1.85M43 117.05l1.1-1.65-4.8-4-.9 1.65 4.6 4m-15.25-22.9l-3.3-5.1-.15-.4-1.2 1.2 3.55 5.55 1.1-1.25M8.8 46.9l-1.35 1.05 3.75 8.8 1.2-.05-3.6-9.8m3.8-64.2l-2.35 2.15q1 2.25 3.95 3.2l.4-.15.25-1.8q.5-2.6-2.25-3.4z"/><path fill="#CCC" d="M63.75 136.65l1.3-1-4.25-3.7-.95 1.4 3.9 3.3m-12.1-10.7l5.25 4.7.8-1.2-5.55-4.85-.55 1.4.05-.05m-9.5-7.6l.85-1.3-4.6-4-.95 1.65 4.7 3.65M21.9 91l3.65 5.6 1.1-1.2-3.55-5.55L21.9 91M7.45 47.95l-.1.05-1.2.8 3.05 8.1 1.7-.15h.3l-3.75-8.8m5.6-59.55l1.15-.35q-2.95-.95-3.95-3.2l-1 1.1q-.35.95.6 2.4l.85.45 1.35-1.4-.15 1.5 1.15-.5z"/><path fill="#333" d="M58.35 128.3l-.65 1.15 3.1 2.5.5-.7-2.95-2.95M44.1 115.4l-1.1 1.65 9.15 7.55.8-1.85-8.85-7.35M27.75 94.15l-1.1 1.25 10.75 16.85 1 .8.9-1.65-11.55-17.25M12.4 56.7l-1.2.05h-.3l12.2 33.1 1.2-1.2L12.4 56.7M9.85-11.65q-.95-1.45-.6-2.4l-28.7 28q-.65 3.4 1.2 3.35 13.8-15 28.1-28.95m4.35-.3l-1.15.35L7.35 48l.1-.05L8.8 46.9l-.05-.2 5.85-58.8-.4.15z"/><path d="M57.7 129.45l-.8 1.2 2.95 2.7.95-1.4-3.1-2.5M43 117.05l-.85 1.3L51.6 126l.55-1.4-9.15-7.55M26.65 95.4l-1.1 1.2 11.7 18 .2.1.95-1.65-1-.8L26.65 95.4M10.9 56.75l-1.7.15L21.9 91l1.2-1.15-12.2-33.1m-.2-67.95l-.85-.45Q-4.45 2.3-18.25 17.3q1.1.05 2.85-1.05L10.7-11.2m2.35-.4l-1.15.5-6.25 58.5.5 1.4 1.2-.8 5.7-59.6z"/></g><path d="M574 221.3q0 .6.6.85l2.65.1q-.3.4-1.3 1.1-.7.55-.7.95 0 .6.6.85l1.9.1-.15.25q-.6.55-.9 1.35-.2.5-.2.7 0 .1.35.8.35.75.65.9-.3.75-.3.9-.05.45.65.75l1.65.1-.75.7v.4q.5.3 2.1.4l-.5.25q-.95.55-1.2.95-.15.25-.15.85t.6.85l2.4.1q-.8.95-1.55 1.85-1.45 1.8-1.45 2.15 0 .5.6 1.15l2.9.1q-.6.25-1.1 1.05-.4.7-.4 1.25 0 .45.1.55.2.3 1.15.4-.1.25-.5 1 0 .7 2 1-.4.45-.8 1.25-.45.85-.45 1.3 0 .45.85 1.2l2.5.05q-.55.25-.95.8-.4.6-.4 1.1 0 .35.05.45.25.35 1.1.4l-.05.1q-.45.7-1.1 1.45-.25.25-.25.7v1.05l.85.15q.65 0 .9-.65l-.3-.2q-.2-.15-.2-.55 0-.15 1.9-1.65 1.85-1.5 1.85-1.65 0-.35-.05-.35-.1-.05-.1-.1-.5-.1-1.1-.1-1.15.25-1.25.25 0-.6.7-1.15.95-.7 1.05-.85-.3-.4-.65-.5l-3.6-.1q.05-1.5 1-1.95 1-.45 1-1.4 0-.35-.05-.4-.1-.05-.1-.15-.35-.05-1.3 0-.9 0-1.3.1l.15-.1q.3-.2 1.65-.85.7-.35.7-.9 0-.35-.05-.4-.1 0-.1-.1-.1-.1-.75-.1-1.6.35-2.45.35l.2-.15q.4-.55.9-1.15.25-.35.25-.8 0-.45-.15-.6-.05-.1-.5-.4l-2.7-.05q.3-.45 1.95-2.4 1.4-1.6 1.4-1.8 0-.45-.15-.6-.05-.1-.5-.4l-2.5-.05.65-.35q.85-.5 1.2-.8.55-.55.55-1.2 0-.4-.2-.5-.3-.05-.45-.1l-1.45-.15q.25-.15.45-.35.15-.15.15-.6 0-.35-.05-.4-.1-.05-.1-.15l-1.85-.15.5-.35q.75-.2 1-.9-.35-.6-.6-1-.5-.7-.8-.7l-1.45.2.2-.35q.65-.9.65-1.35 0-.45-.15-.65-.4-.55-1.85-.5.35-.15.6-.35.5-.55 1.2-1.05.45-.3.45-.55 0-.7-.65-.9l-2.95-.15q3.35-2.5 3.35-3 0-.35-.05-.4-.1 0-.1-.1-.5-.1-2.1-.1t-2 .1q-.5.15-.5.7v.4q.5.3 1.75.4l-1.7 1.4q-.55.55-.55 1.15z" id="k"/><path d="M590.2 257.7q-.1-.05-.1-.1-.4-.05-3.75.4-.25 0-.4.05-.2.1-.2.5v.35q.4.35 1.35.4l-.1.05q-.5.6-.5 1.25 0 .45.1.55.35.35 1.65.4l-.1.2q-.7.4-.85.85-.05.1-.05.8v.95q.6.15 2 .2v.05q-.7 1.55.35 2.15l2.15.05q-.3.35-.25.8.05.75 1 1.25-.3.35-1.45 1.4-.55.5-.55 1.3 0 .6.6 1.2l1.65.1q-1.5 1.5-1.5 3.45 0 .6.6 1.2l1.5.05-.1.2q-.5.7-1.3 1.35-.45.35-.45.95t.6 1.2l1.5.05-.1.05q-.05.35-.75 2.2v.75l.85.1q.55 0 .8-.25 0 .4 1.1 1.15-.5.4-.5 1.6 0 1.15.6 1.5 1.15-.45 1.15-1 0-.3-.25-.35-.25-.05-.25-.4 0-.15.4-.9.35-.75.35-.95 0-.3-1.05-1.2-1.1-.95-1.6-.95l.05-.15q.05-.2.75-1.15.6-.85.6-1.05 0-.4-.15-.45l-.5-.1-1.95.15.1-.15q.45-.25 1.1-1.3.65-1.05.65-1.45 0-.35-.05-.45-.1-.15-.1-.2l-1.95-.2v-.05q.1-.8 1-2.45.85-1.6.85-1.7v-.5q-.2-.45-1-.45-.3 0-.85.2t-1 .2l.1-.15q1.35-.85 1.65-1.4.1-.2.1-1.1 0-.65-.6-1.65-.7-1.1-.8-1.6l-1.85-.1v-.05q.45-.7.45-1.15 0-.95-1.95-1.05v-.3q.2-.3 1.05-1.1.6-.65.7-1-.3-.4-.65-.5l-1.7-.15q.4-.45 1.3-1.1.55-.4.55-.95 0-.35-.05-.35z" id="l"/><path d="M576.3 227.05l-.45-.15q-1.1.6-2.85 1.9-2.25 1.7-2.25 2.4 0 .4.15.5.15.1.45.2 3.1-2 3.3-2.15 1.85-1.35 1.85-2.2 0-.4-.2-.5z" id="m"/><path d="M588.95 221.85q-.1 0-.1-.1-.65 0-3.2 1.3-2.65 1.35-2.65 1.9v.4q.15.1.25.2t.5.1q5.25-2.85 5.25-3.4 0-.35-.05-.4z" id="n"/><path d="M591.7 228.35q-.1 0-.1-.1-1.3-.05-5.15 1.65-3.7 1.6-3.7 1.8v.4q.5.3 1 .3 8-3.25 8-3.65 0-.35-.05-.4z" id="o"/><path d="M585.7 243.65l-.1.1q-2.1-.45-4.95 3.15-2.4 3.75-2.4 3.8 0 .4.15.55.1.1.45.25 6.9-6.5 6.9-7.5 0-.35-.05-.35z" id="p"/><path d="M600.5 254.85q-.15-.55-.15-.75-2.4-.1-5.45 1.5-2.65 1.35-2.65 1.7v.35q.45.35 1.25.35.35 0 3.7-1.55 3.3-1.55 3.3-1.6z" id="q"/><path d="M588.45 263.95q-.1-.05-.1-.1-.9 0-4.6 1.65-3.75 1.7-3.75 2.1v.75l1 .15q7.5-3.95 7.5-4.2 0-.35-.05-.35z" id="r"/><path d="M588.85 272.6q-.05-.1-.5-.35-2.5 2.35-4.1 3.9-3 2.95-3 3.55 0 .4.15.55.1.1.45.25 7.15-6.5 7.15-7.3 0-.45-.15-.6z" id="s"/><path d="M606.55 277.35q-.3-.05-.45-.1-1.05.05-4.25.95-3.1.95-3.1 1.1 0 .6.05.35.35.35 1.05.35.05 0 1.8-.25 1.8-.45 2.35-1.15l2.1-.1q.15-.05.4-.15.25-.15.25-.55t-.2-.45z" id="t"/><path d="M599.85 287.6q.3.3 1.25.3 11.15-2.75 11.15-3.65 0-.35-.05-.35-.1-.05-.1-.1-1.2-.4-5.5 1-5.1 1.7-6.25 1.85-.25.05-.4.1-.2.1-.2.5 0 .25.1.35z" id="u"/><path d="M596.2 295.4q-.1-.05-.1-.1-1.5.45-4.85 4.35-3.25 3.8-3.25 4.9 0 .7.6.85.95-.2 1.65-1.25-.35-.35-.65-.5 1.05-1.4 4-4.8 2.65-3.05 2.65-3.1 0-.35-.05-.35z" id="v"/><path d="M600.55 302.8q-.3-.05-.45-.15-2.15 1.65-5.1 5.05-2.75 3.25-2.75 3.85 0 .7.6.85 1.15-1 4.5-4.85 3.4-3.9 3.4-4.3 0-.35-.2-.45z" id="w"/><path d="M613.2 300.65q-.1-.05-.1-.1-1.4-.1-4 1.4-2.35 1.3-2.35 1.55 0 .4.05.45.05 0 .2.1l.75.1q5.5-2.25 5.5-3.15 0-.35-.05-.35z" id="x"/><path d="M614.45 306.9l-.1.1q-.95-.75-2.05.1-1.1 1.1-1.45 1.3-.7.5-2.65 1.3-1.7.65-1.7.8 0 .6.05.35.3.3 1.2.3 1.15 0 3.85-1.4 2.9-1.5 2.9-2.5 0-.35-.05-.35z" id="y"/><path d="M563.4 243.45q.1-.1.35-.55-1.05-.7-1.95-1.15-1.65-.8-6.8 0 0 .65.6.9 4.95-.1 5.95.45 1.1.55 1.3.55.4 0 .55-.2z" id="z"/><path d="M546.85 275.1l.15-.2q-1.35-2.7-2.6-4.25-1.6-2-3.65-3.05l-.1.55q5.45 7.1 5.7 7.1.4 0 .5-.15z" id="A"/><g id="B"><path fill="#333" d="M-33 95l-.35-1-6.3 6.55-9.65 5.5.15.2 9.2-4.05L-33 95m6.65-15.1l-.55-.8-5.5 13.05.45.75 5.6-13m6-35.1l-.25-.25-5.9 32.7.9.55 6.45-33.25-1.2.25M-43.9-2.95l-.2 1.25-.55 3.3-1.1.3q.05.05.15.2L-21.4 43l1.1-.75L-44.5 1.9l.25-1.55 28.4 13.55q0-2.7-2.7-3.95L-43.9-2.95z"/><path d="M-32.7 95.85L-33 95l-6.95 7.2-9.2 4.05.6.95 9.05-4.25 6.8-7.1m7.2-15.1l-.85-.85-5.6 13 .5.75 5.95-12.9m7.45-36.55l-1.1.35-6.45 33.25.9.5 6.65-34.1m-1.7-28q3.15 0 3.9-2.3L-44.25.35l-.25 1.55 24.2 40.35 1-.8L-41.75 2.7l22 13.5z"/><path fill="#FFF" d="M-32.95 93.55l-.4.45.35 1 .4-.5.65-1.6-.45-.75-.55 1.4m6.45-16.3l-.4 1.85.55.8.45-.9.3-1.2-.9-.55M-21.4 43l.8 1.55.25.25 1.2-.25v-.25l-1.15-2.05-1.1.75M-44.1-1.7l.2-1.25-.8-.45q-4.55 1.2-1.5 4.5 1.3-1.05 2.1-2.8z"/><path fill="#CCC" d="M-32.25 95.4l.8-1.75-.5-.75-.65 1.6-.4.5.3.85.45-.45m7.3-15.9l.25-1.2-.9-.5-.3 1.2-.45.9.85.85.55-1.25M-46.2 1.1q.2.35.45.8l1.1-.3.55-3.3q-.8 1.75-2.1 2.8m27.05 43.2v.25l1.1-.35.05-.55-1.3-2.2-1 .8 1.15 2.05z"/></g><path d="M647.5 251.5q-1.8.2-2.3.45-.65.35-.65 1.2 0 .6.25 2.1h-1.75q-.45.05-.75.25l.85 1.25q-.7-.4-1.1-.05-.25.25-.25.65 1.45 2.2 1.5 2.4-.1-.05-.8-.45-.45-.25-1.15-.25-.55 0-.7.35-.1.25-.1.85 0 .35.6 1.3.6.95.6 1.1 0 .25-.7.8-.75.55-.75.9 0 .4.25.6.25.25.25.3-1.05.25-1.25.65v.75q0 1.1.5 3.1l-.05.25q-.2-.4-.45-.65-.45-.55-1.3-.55-.4 0-.7.1-.35.1-.4.1l-.05.5q0 .45 1.1 1.55t1.1 1.35v.4q-.002-.05-.05-.05-.85-.55-1.4-1.35-.25-.4-1.25-.4-.35 0-.55.15l-.2.1v1.25q.25.9 2 3.55-.1-.05-1-.9-.7-.65-1.25-.65-.75 0-.75.75 0 .55 1 2.1-1.2.15-1.4.35-.1.05-.1.6 0 1.3.55 2.3 1.2 2.1 1.45 2.7-.25-.05-1.2-.8-.9-.75-1.05-.75-.35 0-.6.15-.1.15-.15.15 0 .85.5 1.3.55.5.65.9l-1.6.1q-.05.6-.45 1.25-.35.65-.35.7 0 .35.75 1.7.75 1.4.8 1.75-.15-.05-1.2-.95-.9-.8-1.35-.8-.35 0-.55.15-.1.15-.2.2-.05.7 1.05 2.35 1.3 1.95 1.45 2.35l-.1.05q-1.95-1.35-2.15-1.35-.5 0-.6.25-.15.25-.15 1.05 0 .55 1.05 2.35 1.2 2 1.25 2.2-.6-.15-1.5-.9-.8-.7-1.65-.7-.4 0-.5.15l-.15.1q0 .6.5 1.7.5 1.15.5 1.4 0 .65-.1.15-.55-.35-1-.3-.4.05-1.15.6.05.45 1.05 1.6.95 1.15.95 1.35v.35q-.05-.05-.1 0-.9-.45-1.65-.1v1.25q.05.2.9 1.25H628q-.45-.15-1.6-.15l-.05.55q0 .35.35.9.35.6.4.8l-.6.05q-.75-.65-1.25-.65l-.85.1-.05.8q0 .5.55 1.05 1.1 1.05 1.2 1.2l-.1.1q-.25-.1-.65-.6-.3-.4-1-.4-.4 0-.55.15-.1.2-.2.25.15.4.6.9.45.5.55.8-.9.5-.9.95 0 .6.3 1.1-.95-.25-1.2.1-.1.1-.1.65 0 .2.75 1.4.75 1.25.9 1.3h-1.65q-.6 0-1 .15 1.4 2.5 1.65 3.5-.75-.15-1.3-.45-.45-.3-.95-.3-.75.15-.9.15.2 1.1 1.35 2.45 1.65 1.95 1.8 2.25-.7-.3-2.05-1.45-1.15-1.15-1.2-1.15-.4 0-.5.1l-.15.05v2.45q.6.85 1 1.5l-.2.05q-.4-.25-.85-1.15-.35-.75-1.05-.75-1 0-.9.65.45.95 1.4 3.25.9 2.05 1.75 3.1.45-.25.6-.5 0-.5-.35-1.45-.35-1-.4-1.4 1.85.65 2.35.15.15-.15.15-.9 0-.45-.75-1.5l.4.1q1.6.45 2-.05.1-.1.1-.85 0-.85-.4-1.2-.9-.75-1.45-1.6 1.4.15 1.75-.4.1-.15.1-.85 0-.8-.85-2.45 1.4-.15 1.75-.4.1-.1.1-.65 0-.75-.6-1.45.85-.05 1.05-.45.05-.15.05-.95 0-.85-.6-1.4 1.25-.95 1.4-1.15.45-.45.45-1.2 0-.5-.5-1.6 1.2-.2 1.25-.85-.15-.8 0-1.15 1.1-.05 1.4-.4.1-.1.1-.4 0-.75-.6-1.7.8.1 1.05-.65.05-.2.05-.95 0-1-.5-1.7.6-.35.7-.8.05-.15.05-.7l-.1-1.45.5.15q.15.1.4.6.4.4 1.2.4.7 0 .9-.25.1-.2.1-.9 0-.95-.7-1.95-.95-1.35-1.3-2.25l.05-.35q.1.25.5.5.55.45 1.2.45.65 0 .75-.5v-1q0-1.05-.6-1.7.85-.2 1.55-.35.3-.1.3-.4 0-.3-.25-1-.25-.65-.25-1 0-.2.4-.7.35-.55.35-.85 0-1.25 1-1.7 1-.5 1-1.7 0-.75-.75-2.25-.8-1.55-1-2.05.1.05.7.5.7.45 1.2.45.6 0 .75-.45.1-.2.1-.95 0-1-.6-1.5 1.3-.05 1.1-1.35 0-.3-.45-.85-.5-.65-.65-1.6l.25-.05q.05.05.4.25.45.25.85.25.3 0 1.05-1.7.75-1.65.75-2.25-.25-1.8-.3-2.8.3.4.85.8.7.5 1.25.5 1.45-2 1.45-2.3 0-.55-1.05-1.75.8-.55.8-.85 0-.7-.6-1.15-.8-.6-1.15-1.7l1.95-.05.05-4.25q1.2-.3 1.45-.7.05-.15.05-.9 0-.9-.15-1.65.6-.05 1.15-.6.5-.55.5-1-.05-.25-.05-.4z" id="C"/><path fill="#333" d="M653.5 258.05q.8-1.8.8-2.15 0-1.8-1.6-1.4-1.65.4-1.65 1.3t1.5.85l-.05.35q-.1.05-1.7 2.05 0 .6.1.7l1.5.15q0 .1-.1.15-.2.65-.55 1.35-.2.35-.2.9t.7 1.25l1.55.2v.15l-1 1.85q0 .65.1 1l1.5.15q.05.1-.15 1 0 .95.75 1.15l1.55.2q-.3.45-1.05 1.2-.45.45-.45.95 0 1.3 1.25 1.15 0 .1-1.5 2l.7.7 1.5.1-.35.2q-.95 1.2-1.25 1.6-.35.5-.35 1 0 .4.7 1.1 1.8.1 1.9.3l-.15.45q-.15.05-.9.9-.8.85-.8 1.1 0 .45.45.85.55.5 1.4.45-.05.3-.4 1.3.05.85 2.05 1v.4q-.05.3-.45 1.15-.3.7-.3 1.2 0 .55.15.75.35.5 1.6.5 0 .1-.3 1.8-.05 1.6 1.25 1.6.4 0 .5-.15l.05-.35q0-.2-.25-.7-.25-.45-.25-.8 0-.1.65-.9.6-.75.6-.95 0-.7-.55-.9l-2.2-.15q.6-.65.75-1.25v-1.2l-.05-1.3-1.7-.1v-.15q.3-.85.2-2l-1.5-.1.05-.65q1.05-.7 1.3-1.2.2-.3.2-.9 0-.6-.15-.75-.45-.45-2.5-.65l.1-.1q.4-.6 1.4-1.55.65-.6.65-1.3l-.05-.8-1.5-.1.15-.2q.95-1.55 1.15-2.05-.25-.7-1.65-.65l.15-.1q.15-.25 1-1.35.5-.65.5-1.25 0-.35-.2-.45-.2-.05-.35-.15l-2.2-.05q.3-.75.35-1.25.05-.85-1.4-1 .1-.4.85-1.55.7-1.05.7-1.25l-.05-.7q0-.2-.65-.2-.2 0-1.05.25-.8.2-1.5.2l.1-.1q.4-1.05 1-1.85.4-.5.4-1.15 0-.1-.8-1.1z" id="D"/><path fill="#333" d="M664 296.35q.35-.65.25-1.5-2.35-.25-3-.25-.95 0-.95.8 0 .45.1.55.35.3 1.6.35-.45.55-.3.95.25.6 1.95.55l-.1.05q-.2.4-1.25 2.15 0 .1.7.75l1.55.1q0 .5-.6 1.95-.65 1.5-.65 1.6 0 .45.15.55.35.3 1.85.35l-.15.2q-.85.5-.85 1.55 0 1.7 2.5 3-.5 1-.5 1.8 0 .3.4.85.35.6.35.85t-.6.85q-.65.55-.65.85 0 .5.45.85.65.5 1.8.45-.35 1.55 1.2 5.95l.5-.2.05-1.4q0-1.65-.5-3.45-.65-2.15-1.55-2.3l.05-.35q.5-.6.5-1.5 0-.3-.35-.8-.4-.5-.4-.55 0-.35.25-1.1.25-.75.25-1.05 0-.5-.05-.65-.25-.6-1.25-.55.4-1-1-1.75 1.05-1.3 1.05-1.95l-.05-.8-1.7-.1v-.15q.5-1 .6-1.4.15-.45.15-1.25 0-.75-.1-.9-.3-.45-1.65-.8v-.25q1-1.15 1-1.75 0-.6-1.05-1.15z" id="E"/><path fill="#333" d="M668.15 324.8q-.1.15-.1 1.15 0 1.2.7 1.55l2.55.1q-.25 2.65.1 7.3 0 .25-.55.45-.55.25-.55.6 0 .6 1.5 1.05 1.5.5 1.5 1.3 0 .7-1 1.4-1 .75-1 1.35 0 .2.65.85.6.7.6.8 0 .6-.25 3.3 0 .65.75 1.6.75.95.75 1.8 0 1.95.4 4.1.6 3 1.55 3 .6 0 .5-.25l.05-.7q0-.6-.6-2.55-.65-2-.65-2.75 0-1.65-.75-3.25t-.75-2.1q.25-1.05.25-1.8.05-1.4-1.25-2.1 1.65-1.1 1.9-1.5.1-.2.1-1.45 0-1-.1-1.25-.25-.85-1.45-1.4.35-.2.35-.25.2-.2.2-.6 0-.2-.65-1.2-.65-.95-.6-2.85.25-1.5.25-2.25.1-1.35-.8-2l-2-.15q.1-.85 0-1.5-1.3-.25-1.6.2z" id="F"/><path d="M595.45 246.45q.75-.25 1.75-.25 1.1 0 1.75-.2l4.5-.05q.3-.25.3-.35l-.3-.3h-4.35q-.6.2-1.7.15-1-.1-1.8.35h-4.15q-.15.1-.9.5-.25.1-.25.55 0 .15.3.45.2-.15.35-.4.1-.25.5-.4l4-.05z" id="G"/><path d="M532.5 324.05v-.5q-2.45-3.45-3.55-5.15-1.5-2-1.85-2.6-.45-.85-.7-1.3-.5-.8-1.15-.8 1.8 3.5 6.95 10.5.25 0 .3-.15z" id="H"/><path d="M528.25 298.2l-.3-.4q-2.75.3-4.65 1.35-2.05 1.35-3.5 2.05-1.25.55-3.95 1.85-3.45 1.6-3.45 1.8l.3.35q.3-.15 3.35-1.65 2.55-1.3 4.2-1.9.05-.05 3.55-2.05 2.05-1.15 4.4-1.1l.05-.3z" id="I"/><path d="M524.45 289.85q-2.75.65-5.25 1.05l-5.5.05q-.3.2-.3.3l.3.3h5.5q3.25-.75 6.25-1.2h3q.25 0 .3.15l1.55.2q.3 0 .3-.45l-.3-.3q-3.6-.45-5.85-.1z" id="J"/><path d="M336.2-118.05q.5-.2 3.3-.15.15-.15.15-.2l-.15-.15q-3.35.15-4.2.35-1.2.4-2.9.85-.15.05-.15.1 0 .1.05.15.05.15.2.15l1.2-.4q.5-.15 1.45-.45.25-.05 1.05-.25z" id="K"/><path d="M554.65 271.6q-.1-.15-.15-.25-3.7.25-6 .55-4.3.45-4.5 1.4.3.15.4.15 1.25 0 5.9-.75 1.3-.15 3.15-.35 1.2-.25 1.2-.75z" id="L"/><path fill="#414141" d="M645 303.3v-.15q-2.05-1.15-4.65-3.9-2.45-2.55-2.95-2.75 5.3 7 7.25 7 .65 0 .35-.2z" id="M"/><path fill="#414141" d="M648 297.35V297q-4.05-1.35-6.25-3.65-1.8-2.4-3-3.25l-.1.15q.7.9 2.6 3.5 2.35 2.45 6.5 3.65l.25-.05z" id="N"/><path fill="#414141" d="M618.6 281.7q-.2 0-.2.35 0 .65.15.3 1.75.25 6.3 1.8 4.25 1.5 5.15 1.5.35 0 .35-.1-.05-.15-.05-.3l-4.8-1.65q-2.7-.9-6.75-1.85-.1 0-.15-.05z" id="O"/><path fill="#414141" d="M628.05 275.2q-2.25-3-1.95-5.1h-.35q-.1.4-.1 1.05 0 .05 2.25 4.9 2.65 4.85 4.35 4.85.6 0 .3-.3-3.2-3.6-4.5-5.4z" id="P"/><path fill="#414141" d="M653.5 275.15q-.25-.4-.25-.55-5.1-.7-7.95-2.05-2.4-1.15-3.4-1.15 0 .5.1.7.8.15 4.5 1.75 4 1.5 6.55 1.5.6 0 .45-.2z" id="Q"/><path fill="#414141" d="M639.75 265.6q.5-.05.5-.25-.15-.2-2.65-3.8-1.75-2.55-3.1-3.7l-.1.3q3.15 4.95 5.35 7.45z" id="R"/><path fill="#414141" d="M653 265.2q-.05 0-.15-.1-2.5 1.85-4.25 3.2-3.35 2.6-3.95 3.7l.35.1q.4-.5 4.35-3.4 3.65-2.7 3.65-3.15v-.35z" id="S"/><path fill="#414141" d="M658.25 267.4q2 0 4.25-1.6-.8-.35-2.75.4-2.15.8-3.35.65 0 .3.1.5l1.75.05z" id="T"/><path fill="#414141" d="M659.35 274.5q4.65-1 6.15-2-.55-.25-2.75.6-2.8 1.15-6.25 1.15l-.35.3.1.3 2.5.05q.35 0 .45-.1.05-.05.15-.3z" id="U"/><path fill="#414141" d="M658.2 282.55l-.1.05q-1.5 1.05-4.9 4.35-3.3 3.15-3.3 3.35 0 .6.1.8l.5-.1q.1-.75 3.95-4 3.8-3.25 3.8-4.05 0-.4-.05-.4z" id="V"/><path fill="#414141" d="M659.25 293.5q-.5-.2-1.85 1.55-1.85 2.45-2.15 2.7-.05.05-3.55 2.3-3.05 1.95-3.05 2.6 0 .6.1.35 2.2-1.85 6.35-4.65 3.25-2.45 4.15-4.85z" id="W"/><path fill="#414141" d="M654.7 310.25q4.4-4.4 3.9-7-1.8 2.7-6.75 8.25-4.2 4.7-4.2 5.05v.4q.05 0 .1.05 1.65-1.95 6.95-6.75z" id="X"/><path fill="#414141" d="M671 287.75l-.2-.15q-1.15.45-2.15.8-1.8.6-5.4 1.35l-.35.3.1.3h2.65q.9-.35 3-1.05 1.8-.75 2.35-1.55z" id="Y"/><path fill="#414141" d="M667.4 300.25q3.35-1.25 4.35-2.25-.95-.2-4.1 1.15-2.2.9-4.25 2l.75.15q.4 0 3.25-1.05z" id="Z"/><path fill="#414141" d="M659.7 319.25q7.15-3.4 7.3-3.5-1.25-.1-3.55 1.2-2.55 1.55-3.7 2.05-1.95.8-3.6 1.55-3.25 1.6-3.25 2.3 0 .2.85.7l.2.1q.05 0 .05-.4 0-1.35 5.7-4z" id="aa"/><path fill="#414141" d="M670.8 321.25q4.25-2.8 6.7-3.5-1.45-.25-3.8 1.05-2.4 1.45-3.15 1.75l-1.8.2q-.15 0-.25.15l-.1.1.1.25h2.3z" id="ab"/><path fill="#414141" d="M661.75 335.35q1.45-2.5 7.25-6.35-1.75 0-4.95 2.9-2.9 2.6-2.9 3.15 0 .4.1.4.1-.05.5-.1z" id="ac"/><path fill="#414141" d="M600.15 291.85q0 .65.35.25 3-1.9 7.45-5.85.866-.647 1.8-1.25-.835.48-1.75 1-7.85 4.45-7.85 5.85z" id="ad"/><path fill="#414141" d="M613.5 294.55q5.1-3.7 6.3-4.05-3.45.25-6.85 2.95-3.55 3.25-5.55 4.45.2.25.85.25.35 0 5.25-3.6z" id="ae"/><path fill="#414141" d="M601.55 303.5q-.15-.15-1.2-.2-1.1-.05-1.1 0-5.95 1.25-8.65 2.15-2.95 1-5.7 2.85.1.15 1.85.2.9.05 1.75.05.25-.05.3-.3-.1-.15-1.2-.3l-1.05-.15.45-.15q2.9-1 5.5-2.3 2.5-.95 8.75-1.55.25-.05.3-.3z" id="af"/><path fill="#414141" d="M595.75 298.4q.4 0 .4-.1-.1-.15-.1-.3-1.45-.1-1.55-.2.15-.15.1-.2 0-.2-6.85-.35 0 .1-.35.4.1.15 3.25.25l3.1.1q.1 0 2 .4z" id="ag"/><path fill="#414141" d="M583.75 283q-3.4.75-5.15 1.15-3.25.7-3.95 1 .2.25.85.25.15 0 3.25-.8 3.3-.85 4.6-.85h9.5v.35q.45.05.8.2.2.05.55.05.6 0 .35-.2l-.05-.15q-.35-.3-.9-.5-.35-.15-.5-.4l-9.35-.1z" id="ah"/><path fill="#414141" d="M631.75 320.4q2.3.15 3 .15 1.1 0 3.65-.9 2.5-.9 3.35-.9v-.25q-1.05-.2-3.1.5-2.6.9-7.35.9-2.5-.4-2.65-.4 0 .4.35.55.2.15 2.75.35z" id="ai"/><path fill="#414141" d="M644.85 308l3.05-.2.1-.3q-2.85-.5-3.65-.05-.45.7-1.1.85-2.9.4-5 1.3-2.05.9-6 1.4-.2-.1-.25-.1-.1-.05-.1.35 0 .6.15.25l2.7.05q.05 0 3.8-.9 4.2-1.2 6.3-2.65z" id="aj"/><path fill="#414141" d="M625.35 301.95q-.05-.1-.05-.2-.65-.35-4.9-2.75-3.5-2-4-2.1.65.55 4.25 2.75 3.85 2.4 4.35 2.4.35 0 .35-.1z" id="ak"/><g id="al"><path fill="#FFF" d="M12.5 79.6l1.55 2.85.45-.4-1.55-2.95-.45.5M1.5 55L.05 51l-1.15.85L.45 56l.35-.3.7-.7M-9 21.45l-1.8.25.2 5.5.05.1v.05l1.85-.25h.1l-.4-5.65m-2.3-37.65l-.15-1.95-2.2-.75-.5 2.05 1.4 1 1.45-.35z"/><path fill="#CCC" d="M11.6 80.45l1.45 2.85 1-.85-1.55-2.85-.9.85M-.85 57.35l.7-.6.6-.75-1.55-4.15-1.35 1 1.6 4.5M-10.8 21.7l-1.6.3.05 5.45 1.3-.15h.5l-.05-.1-.2-5.5m-1.95-37.55l-1.4-1-.5 1.5.8 1.15.85 1.05.05-.25.05.35.75-.55.95-.65-.1-1.95-1.45.35z"/><path d="M1.15 57.7L.45 56l-.6.75 11.75 23.7.9-.85L1.15 57.7m-11.7-30.35v-.05h-.5l8.6 25.55 1.35-1-9.45-24.5m-1.6-40.95l-.75.55.5 35.05 1.6-.3-1.35-35.3m-.85.45l-.85-1.05-5.9 23.1 1.05 2.05 5.7-24.1z"/><path fill="#333" d="M.8 55.7l-.35.3.7 1.7L12.5 79.6l.45-.5L.8 55.7m-9.5-28.6l-1.85.25 9.45 24.5L.05 51-8.7 27.1m-2.5-41.35l-.95.65 1.35 35.3 1.8-.25-2.2-35.7m-2.65.05l-.8-1.15-6.25 22.2 1.15 2.05 5.9-23.1z"/></g><path fill="#414141" d="M585 430.65q-3.65 2.55-5.1 4.95l.35.15q3.4-3.4 5.25-4.65 2.15-1.5 3.5-2.25.1-.05 2.7-.95 2.1-.75 2.3-1.25-4.65.95-9 4z" id="am"/><path fill="#414141" d="M601.15 370.65l.1.35q3.85-.8 12.25-3.75 8.25-2.95 8.25-3.45v-.45q-.05 0-.15-.1-.3.2-.35.45-.05.2-.5.3-4.15.95-10.65 3.8-5.35 2.35-8.85 2.6l-.1.25z" id="an"/><g id="ao"><path fill="#FFF" d="M-11.1 34.5l-1.25.45 3 3.7 1.45-.7-3.2-3.75q-.05.15 0 .3m62.15 32.6l2.15-.35.4-.15-.85-1.1-2.05.45.35 1.15M10.6 59.2l1.25-1.45-4.9-2.35.05.1-1.2 1.15 4.8 2.55m29.2 9.45l.35.05 3.55-.55.25-1L39.9 67l-.1 1.65m-14.35-4.4l-.4-.2-.95 2.1 5.65 1.3.7-2.2-5-1M6.9-13.95q.35-.8.85-1.8Q7.5-18.45 5-17.8q-2.05 1.9 1.9 3.85z"/><path fill="#CCC" d="M-12.35 34.95l-2.15.8 3.65 3.75 1.5-.85-3-3.7m63.4 32.15l.15.75 2-1.1-2.15.35M5.8 56.65l-1.1 1.1.25.3L9.6 60.4l1-1.2-4.8-2.55m33.9 12.1v1.05l3.7.05.3-1.7-3.55.55-.45.05m-9.95-1.3l-5.65-1.3-.5 1.25 6 .95.15-.9M5-17.8l-.1-.05-1.85 1 1.05 2.9.3.65.25-.1-.15.35.2.6 2.05-1.25q0-.1.15-.25Q2.95-15.9 5-17.8z"/><path fill="#333" d="M43.75 69.85h-.35l-.05.05.4-.05m.55-2.8l-.35.1-.25 1 7.35-1.05-.35-1.15-6.4 1.1m-.35.1l.35-.1H44l-.05.1M5.8 56.65L7 55.5l-.05-.1L-7.9 37.95l-1.45.7-1.5.85L4.7 57.75l1.1-1.1m33.4 10.3l-.4-.1-8.35-1.6-.7 2.2 10.05 1.2.1-1.65-.7-.05m-15.1-.8l.95-2.1-13.2-6.3-1.25 1.45 12 6.5 1.5.45M4.7-12.45l-.2-.6L-9.9 20.7l-6.75 15.9 2.15-.85 2.15-.8 1.25-.45q-.05-.15 0-.3 1.25-12.6 17.25-46.7.3-.55.6-1.2L4.7-12.45m-.6-1.5l-1.05-2.9-23.75 13.4 1.1 1.5 23.7-12z"/><path d="M43.7 68.15l-.3 1.7h.35l.2-.05 7.25-1.95-.15-.75-7.35 1.05m-20.1-.75l.5-1.25-1.5-.45-12-6.5-1 1.2 14 7m6.15.05l-.15.9L39.65 70l.05-.2v-1.05l.1-.1-10.05-1.2M4.4-13.3l-.3-.65-23.7 12 .9 1.25L3.05-12.6-9.9 20.7 4.5-13.05l.15-.35-.25.1z"/></g><g id="aq"><path fill="#999" d="M-22-18q-.2-.1-.3-.1-9.95-.7-16.15 8.1-3.3 4.75-5.5 12.55.2.1.35.1.45.3.8.65 2-6.95 4.75-11.55 6.2-10.05 17.6-8.95-.85-.5-1.45-.7-.05-.1-.1-.1m-27.45 6.7q-.75 1.35-1.05 2.35-1 7.6 1.45 13.55.25-1.25 1.1-1.95V2.5q1.7-13.95 8.05-19.4.5-.5 1.1-.9 2.65-1.85 6.05-2.45l-.4-.05q-.2 0-.4-.05-.25.05-.35 0-.7.05-1.25.05Q-46.2-17.4-48.9-.15q-2.65-9 4.25-17.1-2.95 2.25-4.8 5.95m37.85.4l-2.8-1.2-15.8-1.55Q-23.75-1.25-41 5.2q.5.7.85 1.5Q-21.8.3-28.5-12.55l16.9 1.65z"/><path d="M-44.65-17.25q-6.9 8.1-4.25 17.1 2.7-17.25 13.75-20.15-1.5.05-2.85.25-3.7.65-6.65 2.8M8.6-5q-.35-2.05-2.05-3.9-1.75-.55-4.85-.8-3.95-.4-5.45-.75-5.4-1.05-11.8-2.1L-16.2-14q-1.3-1.05-2.2-1.85-1.2-.75-2.05-1.35-11.4-1.1-17.6 8.95-2.75 4.6-4.75 11.55-.35-.35-.8-.65-.15 0-.35-.1 2.2-7.8 5.5-12.55 6.2-8.8 16.15-8.1-.45-.15-.9-.4-2.6-.95-5.7-1.45-1.7-.2-3.5-.3h-.35q-3.4.6-6.05 2.45-.6.4-1.1.9-6.35 5.45-8.05 19.4.05.1.05.15h-.05q-.85.7-1.1 1.95l-.1.9q-.05.8.1 1.6.2 1.7 1.05 3.6 1.45 2.75 3.6 3.95 2.15 1.35 3.7.5.25-.1.5-.25 3.7 1.85 7.65 2.15 4.2.3 8.75-1.1 8-2.45 14.9-10.35l.05-1.15q.75-.85 1.3-1.7Q26.1 19.6 63.55 22.4q.75-.2 1.3-.4 5.6-1.8 11.05-6.15-7.3 1.25-10-1.1-1.1-1.3-3.1-2.45-1.6-.85-3.6-1.85-2.1-.85-4.75-1.75 1.35 1.65 1.5 2.85l-1.55-.5q-.7-2.2-2.2-3.95-2.9-1.5-13.3-4.65.9 1.05 1.6 3.55L38 5q-.15-2.3-1.95-4.25Q32.2-1.1 24.4-2.7q1.45 1.5 1.65 2.8v-.3l.35 1.85-2.25-.55q.05-2.8-1.45-5.05Q19.2-5.7 9.75-7.3 11-5.55 10.8-4.1L8.6-5m-23-7.1l2.8 1.2-16.9-1.65Q-21.8.3-40.15 6.7q-.35-.8-.85-1.5 17.25-6.45 10.8-18.85l15.8 1.55z"/><path fill="#D0D0D0" d="M36.05.75Q37.85 2.7 38 5l2.5 1q-.7-2.5-1.6-3.55-1-.9-2.85-1.7M52.2 7.1q1.5 1.75 2.2 3.95l1.55.5q-.15-1.2-1.5-2.85l-.15-.15q-.3-.35-1.55-1.2-.2-.2-.55-.25M24.4-2.7q-.5-.65-1.7-1.25 1.5 2.25 1.45 5.05l2.25.55-.35-1.85v.3q-.2-1.3-1.65-2.8M9.75-7.3l-.15-.15-.1-.2q-.1-.1-.4-.25-.45-.2-1.5-.6-.5-.25-1.05-.4Q8.25-7.05 8.6-5l2.2.9q.2-1.45-1.05-3.2z"/><path fill="#1C1C1C" d="M52.3 23.6l7.65-.5q1.75-.25 3.6-.7Q26.1 19.6-7.55 2.75q-.55.85-1.3 1.7Q-4.45 7.2.65 10q1 .7 2.1 1.25 2.3 1.4 4.8 2.45 1.5.75 3.05 1.4 5 2.1 10.5 3.6 13.75 4 31.2 4.9z"/></g><g id="ar"><path fill="#999" d="M-52.05 19.3q.15.05.2.05l3.15 1.2q-.5-.3-1-.65-.25-.2-.4-.35-1.85-1.7-2.45-4.45-.15-.55-.6-.95.25-.35 0-.65l-.15-.1-2.5-1.55q-.15.5-.1.9v.15q.05.75.2 1.55.55 2.5 2.35 4.05.65.5 1.3.8M-38.1 8.9q-.35-.55-.95-1 .2.3.3.65.05.2.05.45.1 1.35-.6 2.5-.9 1.45-2.55 1.8h-.05q-1.5.3-2.9-.6-.15-.05-.2-.05-.25.25-.6.65-.9 3.8.45 7.85.05 0 .15-.05.45-.1.95-.25l1.3-.3q2.7-1.35 3.65-2.65.95-.5 1.7-2.1 1-1.95.5-4.3-.35-1.5-1.2-2.6z"/><path fill="#CCC" d="M-53.8 12.2q-.1-.8.35-1.85.3-.55.4-.65-.75-.5-1.45-1.05-.5.55-.7 1.25-.45.9-.6 1.95l2.5 1.55q-.45-.45-.5-1.2m2.25-4.9q-.35-.05-.75.05-1.05.25-1.75.9.65.45 1.25 1 .3-1 .85-1.85l.4-.1m12.5.6l-.1-.1q-1.45-1.2-3.1-1.05l.8.05q-.6 1.75-1.35 3.1-.15.1-.2.2-.85 1.55-2 2.55.05 0 .2.05 1.4.9 2.9.6h.05q1.65-.35 2.55-1.8.7-1.15.6-2.5 0-.25-.05-.45-.1-.35-.3-.65z"/><path d="M-65.9-14.35l-.2.2q1.45 2.65 2.95 5.1l-1.6.85 1.9-.45q1.5 2.2 3.05 4.45l-1.8.95 2.2-.45q.6.85 1.25 1.65 1.95 2.5 4.05 4.8l-1.75 1.55 2.25-1.05q.65.7 1.4 1.5.75.8 1.55 1.6.45.4.85.8l-1.75.15-.4.1q-.55.85-.85 1.85-.6-.55-1.25-1-.65-.5-1.35-.85-.15-.2-.25-.25l1.4-.8-2.05.3q-.55-.4-1.1-.75-.9-.75-1.6-1.45l1.4-1.2-1.9.9q-.95-.75-1.8-1.55l1.05-2.05-1.55 1.7Q-63.7.65-65.35-1l1.6-2.15-2.15 1.75q-.9-.95-1.85-1.85L-67.3-5l-.95 1.2q-1.95-2-3.7-4.1l.8-1.55-1.15 1.2q-1.7-2.1-3.25-4.3l-.3.15q2.45 3.6 5.45 6.95l-1.45 1.5L-70-5q1.1 1.3 2.45 2.6L-69.4-.35l2.35-1.5q1.8 1.8 3.75 3.65l-1.75 1.6 2.3-1.25q2.15 2 4.6 3.9.05 0 .1.1l-.95 2 1.5-1.7q.65.6 1.35 1.1.8.55 1.65 1.1.7.55 1.45 1.05-.1.1-.4.65-.45 1.05-.35 1.85.05.75.5 1.2l.15.1q.25.3 0 .65.45.4.6.95.6 2.75 2.45 4.45.15.15.4.35.5.35 1 .65 1.2 15.75-.1 23.1l1.6-.35.65-22.1q.65.05 1.4-.05-1.35-4.05-.45-7.85.35-.4.6-.65 1.15-1 2-2.55.05-.1.2-.2.75-1.35 1.35-3.1l-.8-.05h-4.65q.4.1-.55.15-1.15-.05-1.6-.05h-.25q-.4-.25-.7-.6-.3-.3-.65-.6l1.6-2.65-2.2 2.05q-.2-.3-.45-.4-1.05-1.2-2.05-2.15-.95-1-1.65-2l1.2-2.3-1.75 1.85Q-57-1.2-57.9-2.45l1.15-1.85-1.6 1.35q-.6-.7-1.05-1.45-.8-.9-1.45-1.95l1.5-2.25-1.85 1.85q-1-1.6-2.05-3.1l1-1.75-1.4 1.05q-1.15-1.9-2.25-3.8z"/></g><path fill="#CCC" d="M688.75 309.15q0-1.95-.05-2.4-.1-1.5-.7-2.25-1.35 1.85-1.45 5.25h-.05q0-.1.05-2.35 0-1.65-.55-2.4-.75 1.2-1.45 3.15-.8 2.45-1 2.85l-.05-.1q0-4.9-.2-7.3h-.3q-.1.65-1.5 8.4.15-2.65.05-3.95-.1-2.35-1.05-3.8l-.35.25q0 .85-.5 2.35-.5 1.3-1 2.15l-.15-.1q0-1.9-.5-4.9-1.2 1.1-1.55 2.45-.2.8-.4 2.65H676q0-3-.2-4.5l-.3.05q-.1 1.35-.1 3.85t.1 3.85h.3q.7-2.25 1.1-3.45.7-2.25.65-3.5.1.1.1.35 0 .9-.1 2.6.15 1.4 1.45 2.3l.25-.15q0-1.05.6-2.55.65-1.65.7-2.35l.1.15q0 3.15.35 7.1h.55q.6-1.05.8-3.25.25-2.45.45-3.1l.1.1q.1 1 0 3.1-.05 1.85.6 2.95.95-1.15 1.45-3.1.45-2.25.85-3.4.15.85 0 2.55 0 1.45.95 2.2 1.05-3 1.3-5.55.25 7.05.45 8.75l.25-.1v-4.85z" id="as"/><path fill="#CCC" d="M690.3 308.6h-1.55q-.8.65-1.5.65.2-.1 1.2-1.05 1.05-.95 1.55-1.2-2.4.3-4.7 2.1-1.9 1.45-1.9 1.85 0 .4.15.45h.7q.45-.1 2.25-.9 1.9-.85 3.4-1.25l-.15.15q-.35.8-2.65 2.65-2.2 1.75-2.2 2.15 0 .6.1.4h2.3q1-.65 1.3-.75.35-.15 2.05-.35l-.65.35q-1 .65-1.6 1-1 .7-1 1.1 0 .6.1.4l1.5.05q.25 0 .5-.2.3-.2.9-.2v.1q0 1.5.35 2l.25-.1v-1.35q0-.9-.2-1.3l-1.55-.1q-.5.4-.75.4v-.15q1-.9 2.15-1.4.6-.25.6-.8 0-.65-.5-.8-1.2.75-2.25 1-1.4.3-2.5.5l.05-.1q1.2-.45 2.75-2.05 1.7-1.75 1.7-2.8v-.4q-.1.05-.2-.05z" id="at"/><path fill="#CCC" d="M674.35 308.55q0-2.85 1.4-4.8-1.4.7-1.75 2.5-.1.65-.1 3.25 0 2.5.1 3.85h.3q.05-.3.05-4.8z" id="au"/><path fill="#CCC" d="M672.75 302.9q-.1.05-.2-.05-1.4 1.3-1.4 6.85 0 .45.1.65h.3q.25-1.2.75-3.9.45-2.75.45-3.15v-.4z" id="av"/><path fill="#CCC" d="M671 303.35q0-2 .5-2.85-1.45.1-1.75 1.95-.1.45-.1 3.55l.35.1q1.05-1 1-2.75z" id="aw"/><path fill="#BBB" d="M670.95 304.25q-1.65-3.35-2.4-4.65h-.4v1.25q1.25 3.2 2.5 4.55 2.3 2.6 7.1 3.75.25-.1.25-.4-4.85-1.5-7.05-4.5z" id="ax"/><path fill="#CCC" d="M581.65 428.4q-.25.15-1.15 1.2-.7.85-1.45 1.05v.05q-.15.1.05.1.6 0 1.6-.95 1-.85 1.1-1.45h-.15z" id="ay"/><path fill="#CCC" d="M716.25 295.4v-1.95q-.25.55-.45 1.3-.5 2-.8 2.6-.4.95-2 3-1.4 1.85-1.4 1.95 0 .65.15.3l.5.05q.75-.95 2.65-4.5.845-1.61 1.35-2.75z" id="az"/><path fill="#CCC" d="M716.75 297.75l-.5-.25q-.15.05-1.4 2.75-.15.3-1.15 1.7-.85 1.15-.85 1.35 0 .65.15.3l.5.05q1.45-1.85 2.05-2.95.6-1.1 1.2-2.95z" id="aA"/><path fill="#CCC" d="M717.4 302.3l-.1.05q-1.15.3-2.35 1.45-1.4 1.6-2.35 2.6.2.25 1.65.25.3 0 3.25-3.95 0-.4-.1-.4z" id="aB"/><path fill="#CCC" d="M715.7 303.7q.3-.9.3-2.15 0-2.35-.85-4.2-.9-1.95-1.55-.1l.4.1q.1-.05.3-.45.8 1 1 2.25.05.4.05 2.35l-.75 4.55q0 .6.15.8l.5-.1q.1-1.95.45-3.05z" id="aC"/><path fill="#CCC" d="M713.3 305.85q.65-2.45.75-3.75-.8.2-.85 1.55-.05 1.9-.15 2.1 0 .15-.85 1.8-.85 1.7-.85 2.25 0 .4.15.4.1 0 .5-.05l.25-.15q.2-1.2 1.05-4.15z" id="aD"/><path fill="#333" d="M447.45 338.65q.1-.2.05-.4-.8 0-2.2 1.25-1.35 1.25-2.2 1.25-1.05 0-2.75.75-2 .85-2 1.9 0 .4.05.45.05.05.2.15l.5.1q.35 0 .85-.35.55-.4 1.15-.5l-.2.15q-.55.55-.9.95-.65.7-.65 1.05 0 .4.15.55.1.1.35.2-.7.5-2.6 1.4-1.15.55-1.15 1.1 0 .65.05.35 1.05.4 1.4.4.35 0 1.45-.4v.15q-.25.65-1.25 2.4-.65 1.1-.65 1.95 0 .75 1.15 3.1.85-.4 1.8-2.05.8-1.45.8-1.9 0-.1-.75-.65.65-1.5 1.8-2.6.7-.7.7-1.85 0-.3-.7-1.15.6-.75 3.65-3.65 2.55-2.45 2.55-2.85 0-.1-.75-.65 0-.3.1-.6z" id="aE"/><path fill="#333" d="M442.6 352.4q-.1-.25-.1-.4-1.1-.05-2.85 1.5-1.55 1.35-1.55 1.65 0 .65.05.35.6.75.7.8.1.05.9.3 2.85-3.45 2.85-4.2z" id="aF"/><path fill="#333" d="M444.1 351.4l-.1-.25q-1.7-.45-3.1 1.7l-1.05 2.3q0 .45.2.55.05.05.45.15.35-.1.65-.5.2-.15.45-.5.1.35.65.5l.35-.1q.45-.75.8-1.75.4-1.25.7-2.1z" id="aG"/><path fill="#333" d="M439.35 343.65q0-2.05-.6-2.3-1.35 3-1.15 8.75-.1.8-.3 4.2-.2 3.55-.2 4.6 0 2.7.05 3.4.1 1.95.6 3.3 1.65-2.3 1.85-5.9-.05-4.1.15-6.1h.1q.1.4-.05 1.4 0 .85.7 1.35 1.15.4 1.95 3.05 1.05 3.25 1.55 3.95.65-.1.8-.8.05-.2.05-1.05 0-1.9-2.2-5.5-.3-.5-.25-3 .05-1.95-1.05-2.4.4-2.5.4-4.45 0-2.8-1-2.8-.4 0-.5.15l-.15.1q-.25 1.85-.5 5.25-.35 2.95-1.25 4.75.2-1.5.6-5.2.4-4.1.4-4.75z" id="aH"/><path fill="#333" d="M481.25 315.35q-2.15 2.15-3.7 5.45-1.35 2.8-1.95 5.7v12.4q-.25.35-.25 1.4 0 1.25.65 1.55.25-.1.6-.35 0-1.65.75-2.9.75-.9.75-1.1-.25-.9-.5-1.95-.5-2.05-.5-3.9 0-1.1.75-7.55.1-.6 2.1-3.7 1.9-3 1.9-4.1 0-.45-.1-.6-.1-.1-.5-.35z" id="aI"/><path fill="#333" d="M479.45 316.5q-1.6 1.25-1.6 1.55l.75 1.25q.85 1.25 1.3 1.35l-.05.1q-.15.05-.3.15-.2.15-.2.5 0 .45.2.55.05.05.45.15.25-.1.5-.35v.15q-.5 1.05-2.2 2.45-1.45 1.3-1.45 1.55 0 .4.05.45.05.05.2.15l.65.1q.6 0 1.1-.5.05.1.1.4.1.4.55.85l.6-.2q0 .3.2.75t.2.75q0 .4-.8 1.15-.85.75-.85 1.1 0 1-2 5.5 0 .65.05.6l.7.1q.4 0 .65-.5.2-.5.65-.5.4 0 .7.25.35.25.4.25-.25.9-.4 1.25-.25.65-2.25.65-.3 0-.3-.3 0-.35-.3-.35-.35 0-.65.4-.25.35-.25.8 0 .65.65.8h2.25q2-1.1 6.25-4.9 4.1-3.6 4.1-3.95 0-.55-.6-.9-3.95 3.65-5.5 4.65l.1-.15q2.25-3.1 2.25-3.7-.1-.25-.1-.4-.15-.15-.75-.15-.8 0-2.05 1.25-1.35 1.4-1.8 1.75v-.1q.75-1.1 1.4-1.9.3-.45.3-1.25l.5-3.05q0-.3.25-1.05t.25-1.1q-.1-.25-.1-.4 0-.15-.65-.15-.3 0-.65.1-.3.1-.35.05l.35-.35q.15-.2.15-.6 0-.3-.25-.4-.25-.05-.25-.4 1-2.25 1-2.5 0-.55-.6-.9l-1.9-.1-.1-.5q.15-.25 1.15-1.45.95-1.1.95-1.3-.1-.6-.1-.75-.8-.05-2.55 1.25z" id="aJ"/><path fill="#333" d="M480.1 320.05q-.1-.4-.1-.55-.45-.1-.9-.05-.35.05-.45.05-.4 3.3-.5 7.5-.05 1.35-.05 7.3v9.2q.5 8.85 2.9 8.85.35 0 .4-.05.05-.05.1-.2l.1-.35q-1.65-2.3-2.1-9.75-.15-7.2-.15-7.7 0-2.25.4-7.15.35-4.9.35-7.1z" id="aK"/><path fill="#333" d="M480.1 338.4l-.1-.25q-1.4-.95-1.75.45-.15.45-.15 1.85 0 .05 1.9 6.5 2.2 6.4 3.75 6.4.4 0 .55-.2.1-.15.3-.55-.9-.9-3.05-5.95-2.2-5.05-2.2-6.2 0-.45.25-.85.35-.6.5-1.2z" id="aL"/><path fill="#333" d="M515.35 304.15q0-.35-.2-.45-.25 0-.4-.1-2.25 2.7-2.85 4.65-.3 1.1-.3 4.1 0 3.1 1 5.85 1 2.75 1 3.7 0 .35-.1.5-2-3.65-2.5-5.8-.4-1.7-.4-5.3 0-1.4 1-7.45 1-5.8 1-5.85 0-.55-.6-.9-1.3 1.85-2.1 8-.55 4.3-.55 6.2 0 5.4.75 7.15.65 1.55 4.15 9.65l.5-.2q.1-1.3.1-3.6 0-2.1-1-6.05-1-4-1-5.9 0-1.95 1.25-4.95 1.25-3.05 1.25-3.25z" id="aM"/><path fill="#333" d="M520.6 292.8q-.1-.4-.1-.55-.6 0-3.9 2.4-3.5 2.55-6.6 3-.05.15-.15.15v.35q0 .45.2.55.05.05.45.15l2.1.15q0 .4.25.7.15.15.5.45-.35.55-1 1-.5.4-.5.5 0 .45.2.55.05.05.45.15.494-.19.95-.5-.263.243-.55.5-3.05 2.75-3.05 3.45l.05.95 1.1.1q1.1 0 3.4-1.65 1.2-.8 2.6-1.95v.25l-4.65 7.6q.05.15.45.3.4.2.85.25l-.05.1q-.1.15-2.15 2.7-.6.75-.6 2.1 0 .65.65.8.45-.1 1.05-.65.65-.6 1.05-.7.05.1.05.7.2.6 1.35.55-.4.8-.65.9 0 .65.05.35.25.35 1.85.4v.1q-.15.15-.15.5-.5.15-1.55 1.3-.95 1.1-.95 1.35 0 .65.05.6l1.1.1q.65 0 .95-.2.15-.1.55-.5l.1.2q0 1.4.35 1.75.15.2.3.3 0 .35-.3.85-.3.55-.35.85.55.8 1.5 1.85.55.6.55 1.05l.95.1q.6 0 .8-.2.15-.15.2-.55-.8-.65-1.75-2.6-1-2-1-3 0-.3.25-1.1.25-.85.25-1.15 0-.35-.7-1 1.45-1.3 1.6-1.4.35-.4.35-.95.25-1.05-.75-1.05-.3 0-1.1.65-.9.7-1 .75-.15.45-.15-.2 0-.6.9-1.45.85-.9.85-1.95 0-.35-.2-.45-.25 0-.4-.1-.95.35-1.4 1.35-.35.9-1.25 1.05v-.15q2.75-3.85 2.75-4.5 0-.45-.1-.65-.2-.3-.9-.7.15-.2 1.85-2.2 1.65-2.05 1.65-2.9 0-.35-.2-.45-.25 0-.4-.1-1.45.9-2.8 2.9-1.45 2.15-2.3 2.75l.1-.1q.3-.4 2.25-3.35 1.85-2.95 1.85-4.05 0-.8-.6-1.15-.85.5-3.05 2.15-1.8 1.35-2.85 1.75l.15-.15q1.55-.8 3.85-3.25 2.5-2.6 2.5-3.8.05-.3 0-.5-.1-.45-.75-.45-.5 0-1.5.65.5-.5 2.5-2.3 1.75-1.65 1.75-2.4m-3.95 6.05l-.15.15q-.137.205-1.8 1.7.088-.073.15-.15 1.15-1.35 1.8-1.7m-2 13.65q.5-1.2 1.45-2 .05.4-1.35 2h-.1z" id="aN"/><path fill="#333" d="M553.35 275.15q-.1-.25-.1-.4-2.55-.3-4.5 4.7-1.65 4.35-1.65 8.55 0 .05.5 7.2.85 7.15 2.4 7.15.4 0 .7-.25.3-.25.15-.45-.6-1-1.55-6.6-.95-5.35-.95-7.25 0-4 2.5-8.55 2.5-3.8 2.5-4.1z" id="aO"/><path fill="#333" d="M557.85 278.15q-.1-.25-.1-.4-.5-.15-1.15-.15-.8 0-1.2.4-.55.45-.8.5 0-.05.9-.8.6-.55.6-1.05-.1-.25-.1-.4-.15-.15-.75-.15-1.25.25-1.4.25-1.9-3.2-3.75 4.25-1.5 6.2-1.5 10.3 0 1.95.1 2.65.15 1.7.8 2.55.6-.15.65-.75.75 0 1.05.25.5.5.65.55 0 .85.15 1.25.1.35.1.65 0 .8-1.5 1.65-1.5.85-1.5 1.6l.05.7.85.1q.35 0 1.35-.8.9-.7 1.15-1.05l.1.15q0 1.6.25 2.4.3 1.05 1.15 2.05l.5-.2q.1-.55.1-1.6 0-1.35-.4-1.8-.45-.5-.45-2.15 0-.1 1.95-1.9 1.9-1.9 1.9-2.65-.1-.4-.1-.55 0-.15-.65-.15-.35 0-1.05.5-.85.65-1.65.9.8-.9 2.15-2.65 1.55-1.95 1.55-2.2-.1-.25-.1-.4-.15-.15-.75-.15-.4 0-1 .55-.7.65-1.4.85.5-.5 1.75-1.7 1-1.05 1-1.5-.1-.4-.1-.55 0-.15-.65-.15-1.35 0-2.05.9-1.35 1.55-1.65 1.75.8-1.3 2.5-4.35 1.95-3.5 1.95-3.85-.1-.4-.1-.55-.15-.15-.75-.15-.69 0-1.1.3.35-.367 1.25-1.3 1.2-1.3 1.2-1.95m-5.25-.65q.05 0 .35.2.35.2.4.3-.2.2-.65.85-.3.5-.6.65v-.1q0-.3.2-.95.25-.7.3-.95m-.5 6.75q.25-.65.95-1.75.7-1.2 1.05-1.5l-1.95 3.35-.05-.1m1.5 1.6l.05-.1q-.35.9-1.2 2.5-.9 1.65-1.1 2.1v-2.1q.55-.55 2.25-2.4m-1.35 9q1.8-1.45 2-1.85-.15.75-.75 1.4-.5.6-.85.6-.4 0-.45-.05l.05-.1z" id="aP"/><path fill="#333" d="M559.6 271.05q-.1-.4-.1-.55-.95 0-4.35 2.2-3.3 2.15-3.3 2.55l.05.75 1.35.1q1 0 1.25-.35l2.25-.15-.15.15q-.2.35-.75.85-.5.45-.5.55 0 .4.05.45.05.05.2.15l.5.1q.3 0 2-1.85 1.75-1.9 1.75-2.25 0-.25-.6-.9-.45.1-1.65.65-1.25.55-2.1.75l.25-.15q.65-.85 2.45-1.6 1.4-.55 1.4-1.45z" id="aQ"/><path fill="#333" d="M484.35 338.5q0-.55-.6-.9-.75.5-3.45 2.6-2.95 2.3-2.95 2.55 0 .7.65.85.95-.1 1.65-1.1.7-1.05 1.25-1.1v.1q-.1.45-.95 1.95-.85 1.4-.85 1.6l.05.7 1.1.1q.6 0 2.1-1.4t1.5-1.9q0-.4-.2-.55-.25-.05-.4-.15-.6.1-.85.45-.25.45-.5.7l.1-.25q.25-.45 1.5-2.3.85-1.2.85-1.95z" id="aR"/><path fill="#333" d="M485.6 345.65q-.1-.25-.1-.4-1.2-.75-3.3 1.55-1.85 2.1-1.85 2.75 0 .65.65.8 1.65-.75 3.3-2.8.8-1 1.3-1.9z" id="aS"/><path fill="#FFF" d="M485.35 349.65q-.1-.25-.1-.4-.95-.35-2.35 1-1.3 1.2-1.3 1.75 0 .7.65.85.3-.2 1.75-1.25 1.35-1.15 1.35-1.95z" id="aT"/><path fill="#FFF" d="M519.1 332.75q-.1-.9-.6-1.4-.65.25-.65.9 0 .7.65.85.25-.1.6-.35z" id="aU"/><path fill="#FFF" d="M531.85 326.05q.1-.3 0-.5-.1-.45-.75-.45-.55 0-.65.35-.15.55-.85.95-1.4-4.65-2-1-.3 1.95-.6 5.6h-.15q0-2.95-.15-3.7-.55-3.2-2.85-3.2-1.1 0-1.35 2.4-.15 1.3-.25 3.75v-3.4q0-2.25-.75-2.25-.4 0-.55.15l-.05.15q-.1.65-.4 1.25-.1-.55-.25-.8-.25-.5-1-.5-1.05 0-1.2.95-.2 1.55-.95 2.45-.25 1.5-.25 4.35 0 2.7.65 3.5l.5-.25q.15-.65.2-.85.05-.4.3-.75.1.15.1 1.4-.05 1.1.65 1.45l.5-.2q.1-2.05.1-5.9.05.1.35 1.65.25 1.05.8 1.45.5-.2.5-.35.1.2.2.95.2.65 1.05.65.6 0 .75-.2.25-7.05.4-8.55.6 1.2.75 2.75.15.9.25 2.9l1.45.1q2.15 0 2.4-2.2-.15-2.35-.15-2.55h.15q0 .2.25.65.3.6.75.6.15 0 2.1-2.8z" id="aV"/><path fill="#FFF" d="M566.5 299.85q-2.55 1.05-3.75 1.3-.95-.8-1-.8-.4 0-.5.1l-.15.05q0 1.15.15 2.75-1.25-2.3-1.7-3.05-.7-1.2-.7.3 0 .6.5 3.85 0 1.15-.1 1.55-.3-.45-.5-2.35-.1-1.45-1-1.45-.75.15-.9.15v1.15q.5 1.9.5 2.7 0 .65-.1.8v-.05q-.1-1.35-.55-2.45-.85-2.05-3.2-2.05-.4 0-.55.15-.05.15-.1.15v2.85q.85 3.15 2.65 7.6l.5-.25q.1-.75.1-2.05 0-1.35-.35-2.85-.4-1.5-.4-1.9l.05-.65q.2.7.85 3.5.8 2.45 1.6 2.45.65 0 .65-.2.1-1.15.1-2.8l.35.25q.3.25.65.25 1.15 0 1.2-1.7-.2-1.95-.2-2.4h.05q.15.2.35.85.05.25.85.25.7 0 .75-.9-.05-1.1 0-1.6 1.3.7 1.55-.25.1-1.25.2-1.6l2.15-.15q.6-.15.6-.8 0-.45-.1-.55-.05 0-.5-.15z" id="aW"/><path fill="#FFF" d="M482.45 345.55q-.05 0-.1.3.25 1.65.05 3.4-.3 2.3-.3 2.7 0 .45.75 3.25.85 3.15 1.4 3.15.6 0 .5-.25.1-.35.1-1.05-.14-.93-.25-1.7.325 1.5 1.5 1.5.65 0 .65-.2.1-.75.1-1.9l.4.55q.25.3.5.3.6 0 .5-.25.1-1.1.1-2.8 0-1.9-.1-2.8h.1q.1.5.6 3.05.65 2.3 1.9 2.3.65 0 .65-.2.1-1.65.1-4.9h.05q.35 1.1 1.45 1.1.95 0 1.1-1.25-.1-1.25-.1-1.35 1.15.1 1.65 0 .1-.1.1-.7-.1-.4-.1-.55-1.45-.65-2.25-.65-.4 0-.5.15l-.15.1v2.05h-.1q-.25-.85-.5-1.4-.45-1.15-1.25-1.15-.4 0-.5.1l-.15.05v5.25h-.1q-1.5-4.35-2.5-6.35-1.4-2.75-1.4 0 0 .15.4 2.55.35 2.4.35 3.2h-.1q-.2-1.45-.45-2.35-.4-1.7-1.05-1.7-.4 0-.5.1l-.15.05q0 .75-.1.9v-.05l-.55-1.65q-.4-1.1-1.2-1.1-.4 0-.55.2m1.9 6.7l.15.35q.048.338.05 2.25-.2-1.652-.2-2.6z" id="aX"/><path fill="#FFF" d="M440.65 362l-.05 1.3q0 .05 1.35 6.2 1.65 6.1 3.4 6.1.5 0 .65-.45.1-.25.1-1.05 0-.95-1.75-7.35l.05.1q.3.6.55 1.85.45 1.1 2.05 1.65l.5-.2q.1-.55.1-1.5-.5-2.65-.5-3.65.3.5.75 2.7.55 1.9 1.75 1.9.9 0 .9-1.6-.15-1.6-.15-1.75 1.1 1.1 1.65 1.1.55 0 .9-.85.2-.55.2-1 .15.2.4.55.25.3.75.3 1.2 0 1.55-1.55.6-2.35.8-2.65l-.1-.25q-.2-.15-.3-.2-.2-.1-.6-.1-.75.15-.95.15-.05.9-.55 2.4h-.1q-.6-.5-.65-2.05-.05-1.25-.85-1.25-.4 0-.55.15-.05.15-.1.15v4.5h-.1q-.2-.25-1-1.95-.7-1.35-1-1.35-.4 0-.5.1l-.15.05q0 2.25-.1 3.15-.5-1.7-.8-2.6-.55-1.7-1.85-1.7-.35 0-.5.1-.15.05-.2.05l-.05 1.4q0 .05.1 1.65.1 1.35.05 2.05-.65-2.35-1.9-4.6-1.55-2.85-3.2-3.75l-.05.65q0 .3.65 1.5.6 1.25.6 1.75-.35-.15-1.2-.15m1.2.6v-.1q.45 2.05 2 7.45 0 .55-.1.65-1.4-3.2-1.9-8m2.9 10.75q-.35-.2-.65-1.1-.25-.75-.25-1.25.75 1.35.9 2.35z" id="aY"/><path fill="#FFF" d="M420.3 382.3q.05-.15.05-.75 0-1.3-1.25-.2-1.9 1.65-3 1.65-.45 0-.8-.7-.35-.7-.95-.7-.35 0-.55.1l-.2.05q0 2.15-1.1 3.1-.3-1.3-.5-2-.35-1.25-1-1.25-.4 0-.5.15l-.15.1v2.45q.05 1.3-.45 1.95-.45-1.2-.8-2.05-.65-1.6-1.25-1.6-.25 0-.75 1.15-.5 1.2-.5 1.75 0 1.3.65 1.6l.5-.2q.1-.75.1-1.9h.05q0 .05.45 1.3.7 1.3 1.65 1.3 1.35 0 1.45-.8-.1-.95.05-1.15.15.15.4.45.3.25.95.25.8 0 1.2-1.1.3-.7.3-1.35l.4-.05q1 .5 1.5.5 1.2 0 1.35-.4.1-.2.3-.7l1.6-.15q.65-.2.8-.8z" id="aZ"/><path fill="#666" d="M521.65 293.2q-.25 0-.4-.1-2.25-.05-4.95 1.85-2.45 1.65-2.45 2.35 0 .45.05.55.1.25.6.5.55-.4 2.7-2 1.95-1.45 2.2-1.85l1.85-.15q.15-.05.4-.15.2-.15.2-.55 0-.35-.2-.45z" id="ba"/><path fill="#666" d="M515.35 296.8q-.1-.4-.1-.55-2-.7-3 4.5-.65 3.45-.65 6.8 0 .15.65.8.5-.25.9-.9.3-.55.35-.95.1.25.1.85 0 1.15-.4 3.65-.2 2.15.8 3.35l.5-.25q.6-9.1.6-9.75 0-.7-.1-.9-.2-.5-1.15-.35v-.35q1.5-2.95 1.5-5.95z" id="bb"/><path fill="#666" d="M518.1 299.65q.25-.55.25-1.25 0-2.4-2.1.35-2.15 2.75-2.15 3.3 0 1.15-.5 2.2-.5 1.1-.5 2.65l.05 2.1.7.1q.4 0 .5-.05.1-.05.15-.2-.2-1.5-.2-2.25-.05-1.3.7-2.2l.1.2q-.1.3-.3.75-.2.45-.2.8 0 .55.65 1.2l.6-.35q.3-2.05 1.15-4.1.85-1.7.85-1.85 0-.9.25-1.4z" id="bc"/><path fill="#666" d="M561.85 274.15q-.1-.25-.1-.4-2.2-.15-4.6.85-2.2 1.1-2.55 1.25 0-1-.6-1-1.8 0-3.65 6.55-.9 3.3-1.5 6.75 0 .65.3 3.6l.7.1q.85 0 2.25-5.85.05-.55 0-1.7-.1-1.05 0-1.55.35-1.55 1.85-1.8 1.4-.25 1.4-1.05 0-.45-.1-.6-.1-.1-.5-.2-.758.426-1.65.6-.024-1.808 4.35-3.2 4.4-1.35 4.4-2.35z" id="bd"/><path fill="#666" d="M485.45 315.15q-1.05.35-1.8.35-.85 0-1.95 1t-2.35 1q-.7 0-1.5.8-.75.75-.75 1.5v6.15q.2 3.7 1.15 5.9l.5-.25q.2-3.55 1.7-6.25 1.4-2.5 1.4-4.15 0-.3-.25-.45-.25-.15-.25-.5 0-.8 2.9-2.8 2.85-2 2.85-2.3-.1-.25-.1-.4-.5 0-1.55.4m-6.05 4.5q.3-.25.85-.15-.75.35-.9.35l.05-.2m-.55 3.35l.15-.35q.4-.25.6-.15-.1.1-.35.3-.3.2-.4.2z" id="be"/><path fill="#666" d="M448.6 340q-.1-.6-.1-.75-8.3 4.8-9.7 6.6-1.2 1.6-1.2 7.15 0 1.6.65 2.1l.5-.25q.1-.25.05-2.25-.05-1.15 1.2-1.35l.1.25q0 .55-.35 1-.4.45-.4.65 0 .65.9 2.2l1-.4q.7-.35 1.1-.85-.2-.3-.8-.85-.2-.2-.2-.85 0-1.55 1.4-3.4 1.35-1.9 1.35-2.2 0-.4-.2-.55-.25-.05-.4-.15-.65.2-1.6.8-1 .6-1.3.7v-.1q.55-2.55 4.4-4.4 3.6-1.7 3.6-3.1z" id="bf"/><path fill="#333" d="M642.35 246.75q0-2.5-1.8-.3-2.05 2.95-2.55 3.55.95-1.9-.25-1.9-.6 0-1.8 1.1-1.7 1.6-1.8 1.65l-.05-.1q.2-.75.2-1.15.1-.65-.55-1-1.05.95-2.8 3-2.25 2.55-2.7 3.05v-.05q.95-1.9 2.25-3.45.6-.65.6-2.5.25-1.3-.75-1.3-.55 0-2.3 2.9-1.95 3.3-2.3 3.6.15-.85.5-1.35.35-.4.35-.9.25-1.25-.75-1.25-1.1 0-3.65 3.05-2.5 3.3-2.95 3.85.55-.95 1.95-3.05 1.15-1.85 1.15-3.1.3-1.25-.85-1.25-.35 0-2.2 2.25-1.85 2.3-1.95 2.4.15-.75.15-1.3-.05-1.1-.75-1.1-.75 0-1.95 1.5-1.1 1.6-1.2 1.65 0-.65-.75-.65-1 0-1.65.95l-1.05 1.6q-.35-.5-.65-.7-.4-.35-1.25-.35-.7 0-7 2.3-6.4 2.35-6.4 2.8 0 .35.1.45.05.05.2.1-2.1 1.1-2.9 1.65-1.4.95-1.4 2.15l.05.7.7.1q.5 0 .95-1.2.45-1.2 1.95-1.25l-.25.1q-.1.2-.55.6-.35.3-.35.55 0 .4.05.45.05.05.2.15l.5.1q.45 0 2.35-1.35 1.9-1.3 3.05-2.4-.25.55-1.15 2.2-.75 1.45-.75 1.75 0 .45.1.6.1.2.55.45 1.1-1.2 3-4.05 1.95-2.5 4.25-3.8l.1.1q-1.45 1.7-2.55 3.05-2.2 2.75-2.2 3.35 0 .7.65.85 1.7-1 3-2.95 1.8-2.7 2.5-3.4l.1.15q-.75 1.05-1.05 1.5-.45.7-.45 1.15 0 .45.1.6.1.2.55.45 1-.9 2.9-3.3 2.35-3.05 2.7-3.45l-1.9 3.15q-1.35 2.25-1.35 2.5 0 .7.65.85 1.25-1.85 4.4-6.2-.15.5-1.55 4.35 0 .7.65.85 2.4-2.95 7.4-9.75v.15q-1.1 1.85-2.2 3.75-2.1 3.75-2.1 4.65 0 .4.05.45.05.05.2.15l.5.1q.55 0 3.5-4 3.35-4.55 4.5-5.5v.15q-.3.7-1.2 2-.55.8-.55 1.65l.05 1.1.7.1q.1 0 3.05-3-1.1 1.6-2.1 3.1-1.95 3-1.95 3.45 0 .4.05.45.05.05.2.15l.5.1q1.05 0 4.15-3.95 1.65-2.1 3.65-4.9v.15q-2.2 3.1-3.55 5.1-2.5 3.7-2.5 5.4 0 .45.2.55.05.05.45.15 1.05-1.25 4.65-6.85 2.8-4.35 5.75-6.85v.1q-1.3 2.15-2.2 3.7-1.6 2.9-1.6 4.05l.05.75.7.1q.15 0 2.7-3.85 2.9-4.35 3.8-5.5-.55 1.15-2.65 4.95-1.85 3.7-1.85 5.7 0 .55.65 1.2l.5-.25q.5-3.35 3.35-7.15 2.75-3.6 2.75-4.05 0-.4-.1-.45-.25 0-.5-.1-.1.05-.75.4v-.1q.15-.4.85-1.85.5-1 .5-1.8m-27.25 8.65q-.03.772-.95 1.45l.1-.1.85-1.35m1.4.2l.5-.6q.25.25-.5.75v-.15z" id="bg"/><path fill="#333" d="M515.65-375.1q-1.45 1.25-2.9 3.6-1.45 2.5-2.05 3.3v-.2q.9-2.9.9-4.8.45-1.9-1.5-1.9-2.3 0-2.3 4.25 0 .55.5 1.3.35.85.35 1 0 1.6-.05 2.55 0 .6.6 3.05 1.1-.6 2.05-2.1.45-.8 1.35-2.35.1.15.4.95.15.55.75 1.25 1.45-2.2 5.65-8.9l.2.4q0 .05-1.4 2.7-.9 1.85-.9 2.65 0 .7.1.85.15.4.9.75 1.35-1.9 4.9-7.4 2.556-4.082 4.5-6.7h-2.35q-2.188 2.887-3.4 4.25l-.1-.15q.1-1.15.1-1.75 0-1-1-1.5-1 1.15-2.2 3.15-1.5 2.6-2.15 3.5l-.05-.15q0-1.05-.9-1.6m33.9.85q1.55 1.8 2.65 1.8 1.5-.05 1.5-1.4-.15-.4-.15-.6-.7-.1-2.75-1.9-2.05-1.75-4.7-1.75-.5 0-1.1.3-.55.35-.7.45-.55-1.15-1.35-1.15-.55 0-.8.45-.2.4-.65.4-.4-.45-.9-.7-1.15-.45-2.6 1l-.2-.4q0-.9-.1-1.2-.1-.3-.85-.7-.8.65-4.75 5 .2-1.1.2-2 0-1.85-1.35-1.85-.75 0-1.8 1-1 1.05-1.15 1.15 1.284-2.583 2.2-4.5h-2.25q-.633 1.43-2.4 5.1-2.2 4.55-2.2 4.9 0 .6.1.7.05.05.3.2l1 .2q.75 0 5.3-5.85l.15.15.05 2.85 1.7.15q1.05 0 1.5-.35.25-.25.4-.9.05.05.15.9.05.45.95.75.85-.45 2.35-2.1 1.25-1.4 2.35-1.6-.65 1.35-1.1 2.05l.05 1.1 1.05.15q6-3.7 6.15-3.7 2.15 0 3.75 1.9z" id="bh"/><path fill="#333" d="M655.1 222.15q-.1-.25-.1-.4-1.35.05-7.25 3.65t-5.9 4.25q0 .65.05.35.3.35.85.35.45 0 .65-.2.05-.1.35-.65.1.15.1.35l.05 1.15.95.1q.15 0 6.15-3.35 6.15-3.45 7.1-3.75l-.2.15q-1.65 1.75-3.05 3.2-2.75 2.9-2.75 3.2l.05.7.85.1q1.15 0 10.25-6.95l.1.2q-1.65 1.5-3.05 2.75-2.7 2.5-2.7 3.05 0 .65.05.35.3.35 1.2.35.25 0 6.3-3.6v.1q-1.15 1.2-2.15 2.2-1.9 1.95-1.9 2.1 0 .65.05.35.3.35.95.35 1.3 0 2.75-1.35 1.85-1.75 2-1.85l-.1.2q-.25.2-.8.9-.6.75-.6 1.05l.05.7 1.1.1q1.15 0 2-.95.05.2 0 .75.1.45.85.45.35 0 .65.15.3.1.85.1.65 0 3.25.4 0 .9.05 1.1.25.75 1.1.75.4 0 .5-.2.05-.1.1-.3-.15-.25-.5-1.45-.25-.85-.85-1.3-1.65-.1-2.75-.8-.75-.7-1-.7-.4 0-.5.1-.05.1-.15.15v-.6q-.1-.4-.75-.4-.35 0-.7.2-.5.35-.55.35V230q.1-.3.95-1.65.8-1.25.8-1.45-.1-.25-.1-.4 0-.15-.65-.15-.3 0-1.3.55-1.01.505-1.35 1 .308-.51.4-1.2.15-1.1-.85-1.1-.4 0-2.6 1.45-2.25 1.55-2.5 1.6l.2-.15q.65-.65 2.25-2 1.25-1.15 1.25-1.95 0-1.45-1.25-1.45-.45 0-3.45 2.05-2.95 2.05-3.05 2.1.35-.4 1.75-1.9 1.25-1.4 1.25-2.2 0-.35-.2-.45-.25 0-.4-.1h-2q-3.45 1.65-3.9 1.8v-.05q1.75-1.3 1.75-2.2m-7 4.1q2.4-1.7 3.75-2.25-3.4 3.4-7.35 5l.15-.1q.95-.65 3.45-2.65z" id="bi"/><path fill="#333" d="M692.1 290.35q.85 2.7 3.5 6.55 3.45 4.95 6.25 4.95 1 0 1-.85-1.35-1.65-3-4.65h.15q.1.05.65 1.05.6.95 1.2.95.4 0 .75-.85.35.3 1.65 1.5 1.25 1.1 1.5 1.1 1 0 1.25-.6.1-.25.1-1.45.2-1.7-.6-1.7-.4 0-.5.15l-.15.1v1.3h-.1q-1.3-4.8-2-4.8-.4 0-.5.15l-.15.1v1.5q.15.4.5 1.15h-.35q-.4-1.2-2.7-3.85-2.35-2.8-3.2-2.8-.45.15-1.45.15l-.05.55q0 .8 1.7 4.45.85 1.85 1.7 3.5-.4-.25-3.45-4.15-2.95-3.75-3.05-3.75-.4 0-.5.15l-.15.1m6.25 2.5v-.1q.3.35.8 1.35.45 1 .45 1.2 0 .65-.1.3-.5-.9-.8-1.35-.5-.9-.35-1.4z" id="bj"/><path fill="#333" d="M711.85 295.8q0-8.75-3.25-2.9 1.2 4.1-4.15 5.15-6.85.6-9.35 1.8.1.35.65.5 2.5-.4 2.65-.05.25.7.6.8l.5-.2.1-.5-.2-.4q2.55-.35 2.85-.25-1.2.15-1.4.5 0 .65.55.9-.25.3-1.6.9-1.8.7-3.5.7-.75 0-2.8-1.55-2.05-1.6-2.25-1.6-.75 0-1 .15-.15.15-.15.6 0 .65 1 1.35 1.5 1 1.75 1.3h-1.6q-1-.45-2.95-2.65-1.8-2-2.3-2-.4 0-.55.15-.05.15-.1.15v.6q1.35.95 2.3 3 1.55 1.7 6.95 2.25 0 .7.65.85h5q1.45-.6 3.75-2.1.25.45.75.85H707q1-1.4 4.25-5.1.6-.7.6-3.2m-3.25 1.7q-.55 2.1-2 1.9 1.1-1.3 2-1.9m-3.75 3.35v-.1q.45-.7 1.4-1-.1.35-1.4 1.1m3.3-.45q.1-.05.2 0-.6.7-.95 1-.55.55-1.75.85 1.05-1.1 2.5-1.85m-6.3 2.2q.65-.25 1.3-.45-.35.45-1.75 1.15-1.6.75-2.55.7l.65-.25q1.15-.7 2.35-1.15z" id="bk"/><path fill="#333" d="M716.45 293.25q-.05.15-.1.15 0 1.5-.35 4.1l-.25-.1q0-2.25-3.05-5.25-2.9-2.8-1.35 2.75-.7-.3-1.25-.15v4.35q.1.3.8 1.1.8.9 1.1.9.6 0 .5-.25.1-2.85.1-7.85.25.75 1.2 3.75 1.1 2.6 2.7 2.6 1 0 1.05-1.2-.2-1.25-.2-1.4.2.25.35.6.2.25.8.25.4 0 .8-.55.5-.7.85-.95.2 0 1.15.5t1.2.5q.4 0 .55-.2.1-.15.3-.55-1.8-2-3.1-3l-.5.15q-.7 1.85-1.25 2.6l-.1-.1q.1-1.05 0-1.7-.2-1.2-1.4-1.2-.4 0-.55.15z" id="bl"/><path fill="#333" d="M690.5 232.65q.1.15.1-.5 0-.75-3.1-4.15-3.1-3.45-4.5-4.15-2.05-1.55-9.1-3.55-7.05-1.95-7.05-1 0 1 4.8 2.25 6.6 1.75 7.6 2.2-1.5.05-1.8.3-.05 0-.1.55.2.35 3.55 1.35 3.35 1 3.7 1.55-.4.05-1.35.4-1.2.4-1.65.75 0 .55.65.7h2q.3-.15 1-.25.75-.05 1.1.05v.6q-.55.2-.7.25-.3.15-.3.55 0 .2 1.8 1 .95.45 2.85 1.3l.5-.2m-9.5-7.9v-.1q.6 0 1.1.35h-.7l-.4-.25z" id="bm"/><path fill="#333" d="M666.95 230.7q-2.25.85-3.3 1.05l-.05.75q0 .7.65.85 1.692-.686 6.75-2.1-2.077 1.09-3.5 1.85-2.9 1.55-2.9 2.45l.05.7.7.1q.1 0 10.4-4.7l-.1.2q-.6 1.15-3.15 2.95-2.4 1.55-2.4 1.6 0 .65.05.35.3.35.95.35.55 0 3.6-1.45 3-1.4 3.55-1.3l-.1.05q-1.2.65-4 2.3-3.05 1.8-3.05 1.95 0 .65.05.35.3.35 1.1.35.6 0 1.75-.5l-.1.05q-1.05.5-1.05 1.15 0 .65.65.8l1.6.05q0 .7.65.7.35 0 .75-.55.35-.55.35-.75 0-.8-1.6-.8l.25-.25q.65-.5 2.85-3.05 2.25-2.65 2.25-3.05-.1-.25-.1-.4-.5-.15-1.15-.15-.4 0-1.75.45l-1.5.45.15-.15q.25-.35 1.25-1.45.85-1.05.85-1.5-.1-.25-.1-.4-.15-.15-.75-.15-.35 0-1.6.5-1.4.6-2.5.8.1-.15.2-.15-.05-.7-.6-1.4-3.5.25-6.05 1.1z" id="bn"/><path fill="#666" d="M579.5-362.1q-.15-.4-.15-.6 0-.25-1-.25-3.35 1.9-6.85 3.65l.25-.25q.3-.35 1.95-2.25.85-.9.85-1.7 0-.35-.9-1.35-1.5.6-4.1 2.05-2.35 1.3-3.65 1.9 1.3-1.75 3.4-3.35 1.45-1.05 1.45-2.25 0-.45-.9-1.4-.9.35-3.85 1.75-2.6 1.3-3.75 1.55l.15-.25q2-2.5 2.15-2.65.9-1.3.9-2.05 0-1.75-.9-1.75-1.6 0-5.85 2.75-4.1 2.8-4.6 2.95 1.35-.9 4.85-3.95 3.45-3.05 3.45-3.2-.15-.35-.15-.6-.6-.2-1.5-.2-1.3 0-3.8.95.3-2.55-1.8-1.25-2.2 1.35-2.2 3 0 1 .05.55.4.55 2.45.6l-.4.15q-.2.45-3.55 3.85-3.1 3.2-3.1 3.6 0 .95.05.5.3.4.4.4.2.15.9.15 1.85 0 7.3-3.55 6.15-4.1 6.35-4.2l-.15.25Q551.8-357.4 551.8-357.2q0 .6.1.7.05.05.3.2l.75.2q.05 0 6.3-4.05 6.5-4.15 7.8-4.6l-.1.15q-2.2 1.65-6.2 5.9-4 4.15-4 4.8 0 .6.05.75.1.05.3.3l.75.15q.15 0 5.25-3.6 5.3-3.75 6.6-4.3l-.1.3q0 .85-.3 2.9l1.7.15q.65 0 1.9-.7 1.25-.75 1.9-.75.05 0 .9.9.9.9 1.35.9.9 0 .9-.5 0-1.25.75-2.5.8-1.3.8-2.2z" id="bo"/><path fill="#666" d="M615.6 240.7q0 .95-3.35 4.45-3.4 3.5-3.4 4.4 0 .65.65.8 4.1-4.6 6.6-6.1 4.8-2.9 15.15-5 5.55-.1 6-1.1.1-.25.2-.55.3-.15 1.8.15.1-.1.1-.7 0-.4-.2-.55-.25-.05-.4-.15l-2.15-.1q-.35-.25-6.35-.25-3.65.1-3.9.5-7 1.4-8.6 1.9-2.15.65-2.15 2.3m10.65-2.2l.15-.1q.7-.1 3.45-.9 2.85-.65 4.75 0h-2.05q-1.7.15-2.45.75-3.5.25-3.85.25m-1.75.6h.25q-2.35 1.2-3.05 1.45-1.15.4-3.7.7l.15-.1q.7-.25 6.35-2.05m-3.1-.7q.35-.25.85-.25l-.25.1q-.15.25-.75.25l.15-.1z" id="bp"/><path fill="#666" d="M652.2 226.6q3.9-.95 3.9-2.3 0-3.9-12.25-.3-4.65 1.35-8.4 3.1-3.85 1.8-3.85 2.7 0 .65.65.8 1.4-.6 4.65-2.7 10.2 0 15.3-1.3m-.7-1.15q-1.4.3-1.85.3-.65-.15-1.9-.25l.25-.25q1.9-.8 3.05-.85 1 0 2.3.6-.5.2-1.85.45z" id="bq"/><path fill="#333" d="M595.75 264.85q0 .8.35 1.1.05 0 .9.3l3.8.05-.25.25q-3 1.6-3.4 1.85-1.9 1.3-1.9 2.45 0 .8.35 1.1.05 0 .9.3-2.25.5-2.25 1.6 0 .8.35 1.1.05 0 .9.3l7 .25q-3.75 1.25-4.95 1.85-1.8.95-1.8 2.75 0 .85.35 1.2.2.2.9.45l3.75.25-.75.25q-1.35.2-1.65.95-.1.15-.1.9l.05 1.4q1.2.25 3.5.3l-.3.45q-1.4 1.5-3.65 2.8-1.1.65-1.1 2.05 0 .8.15 1.05.5.7 2.4.65-.15 2.55 1.25 5.6 1.55 3.35 3.45 3.35.75 0 1-.35l.25-.35q-1.15-2.85-1.55-3.9-.7-1.8-.7-3.35 0-.25 1.65-1.8 1.6-1.5 1.6-2.15 0-.75-.1-.8-.15 0-.15-.05-.5-.25-1.75-.25l-1.5.05.05-.25q.8-.7 2.55-2.25 1.4-1.3 1.4-2.2 0-.8-.4-1.05-.55-.15-.85-.3 1.1-.8 3.2-1.7 1.55-.8 1.55-2.2 0-.75-.1-.8-.15 0-.15-.05-1-.25-2.25-.25-.85 0-3.4.5-2.5.5-3.35.8l.3-.25q3.05-1.2 5.35-2.9 2.6-1.9 2.6-3.4 0-.95-.15-1.15-.5-.65-2.6-.8l.3-.25q2-.9 2.65-1.55.3-.3.3-.75t-.25-.75q-.25-.25-1.5-1.2.3-.55.25-.95-.05-.55-.75-1.35l-6.25-.2q-1.35-1.85-3.45-1.1-2.05.7-2.05 2.4z" id="br"/><path fill="#333" d="M606.85 287.9v3.25q.2 3.2 1.15 3.2.6 0 .5-.25l.1-.55q-.5-1.35-.5-5.85 0-1.55.75-11.05.75-9.2.75-9.25-.1-.5-.1-.65-1.9 2.8-2.45 9.65-.2 2.9-.2 11.5z" id="bs"/><path fill="#333" d="M614.6 266.9q-.1-.25-.1-.4-2.6 1.9-3.25 8.7-.35 3.5-.15 7.2 0 4.5.35 7.2.55 4 2.05 7.25l.5-.2.1-.6q-1.75-5.7-1.75-13.75 0-2.6 1.15-9.2 1.1-6.15 1.1-6.2z" id="bt"/><path fill="#333" d="M618 288.85q.6 0 .5-.25l.1-.55q-.75-.8-.75-8 .6-4.2.8-6.3.45-3.8-1.15-5.1-.65 2.15-.8 5.5-.1 1.5-.1 5.95v4.4q.25 4.35 1.4 4.35z" id="bu"/><path fill="#333" d="M623 278.2q-.15-2.55-.15-3.55.25-1.95.2-3.35-.05-2.6-1.45-2.55-.25 2.5-.25 7.05 0 2.2.05 2.8.1 1.65.6 2.5.95-.7 1-2.9z" id="bv"/><path fill="#333" d="M624.7 272.55q.3-1.1-.95-2.45-.9.4-.9 4.95V278q.2 2.85 1.15 2.85.6 0 .6-.35-.5-3.7-.5-5.45 0-.2.6-2.5z" id="bw"/><path fill="#333" d="M631.6 266.9q-.1-.25-.1-.4-6.45-.05-9.5.85-.8.2-5 2.3-3.4 1.65-5.25 2.55-3.4 1.7-3.4 1.95 0 .4.05.45.05.05.2.15l.5.1q8.05-3.85 8.65-4.2 3.6-2 5.5-2.4 3.4-.6 6.75-.8 1.6-.05 1.6-.55z" id="bx"/><path fill="#333" d="M625.35 263.75q-.1-.6-.1-.75-12.25 5.3-16.75 6.15-.05.15-.15.15v.35q0 .05.05.35.3.35 1.35.35 2.15 0 15.6-6.6z" id="by"/><path fill="#333" d="M607.05 274.9q-.2.2-.45.35.3.8.9 1.1h2.5q3.65-1.65 9.05-4.5 4.8-2.6 4.8-2.7-.1-.25-.1-.4-1.45-.55-7 2.35-5.8 3.3-6.9 3.9-2.4-.2-2.8-.1z" id="bz"/><path fill="#333" d="M604.85 281.8q0 .65.65.8 1.65-1.4 6.7-4.3 5.45-3.05 8.3-4.05.1-.1.1-.7-.1-.4-.1-.55-1.95.2-8.85 4.15-6.8 3.85-6.8 4.65z" id="bA"/><path fill="#333" d="M605.8 285.2q.05.05.45.15 4.75-2.35 13.6-6.7-.1-.25-.1-.4-1.7 0-8.05 3.15-6.1 3.05-6.1 3.25 0 .45.2.55z" id="bB"/><path fill="#333" d="M615.6 284.65q-.1-.25-.1-.4-.85-.2-2.65.5-1.75.7-1.75 1.15 0 .45.2.55.05.05.45.15 1.3-.25 2.55-.85 1.3-.65 1.3-1.1z" id="bC"/><path fill="#333" d="M617.35 287.4q-.1-.25-.1-.4-.8-.05-4.55 1.3l-3.6 1.35q0 .65.05.35.3.35 1.2.35 7-2.6 7-2.95z" id="bD"/><path fill="#333" d="M597 262.35q-1.3 2.2-2.1 4.8-.8 2.7-.8 4.9 0 2.75.5 6.7.3 2.3 1 7 .55 3.6 3.7 8.6 3.2 5 4.95 5 .75 0 .85-.5v-.95q0-1.8-.9-3.75-1.4-2.95-1.7-3.9-.2-.75-1.9-7.9-.15-.65-2.4-7.95-1.35-4.5-1.35-7.6 0-.35.4-1.9.35-1.5.35-1.6 0-.45-.1-.6-.1-.1-.5-.35m2.35 21.05q0 .6-.1.7v-.1q-3.55-6.7-2.9-11.25.2.75 1.65 5.5 1.35 4.55 1.35 5.15m-2.5-1.15q1.4 2.6 3.55 7.3 1.2 2.65 3.45 7.7-3.6-4.25-5.35-7-3.25-5-1.65-8z" id="bE"/><path fill="#FFF" fill-opacity=".698" d="M160.75 64.45q-15.55-86.3-43.35-57L-.95 267.7l25.3 13.2q155.9-164.8 136.4-216.45z" id="bF"/><path fill="#FC6" d="M767.5 186.7q-6.65-6.65-16.1-6.65H598.95q-9.45 0-16.15 6.65-6.65 6.7-6.65 16.15V355.3q0 9.45 6.65 16.1 6.7 6.7 16.15 6.7H751.4q9.45 0 16.1-6.7 6.7-6.65 6.7-16.1V202.85q0-9.45-6.7-16.15z" id="bG"/><path fill="url(#c)" d="M292.05 156q-18.6-18.6-45-18.6-26.35 0-45.05 18.6-18.6 18.7-18.6 45.05 0 26.35 18.6 45 18.7 18.7 45.05 18.7 26.4 0 45-18.7 18.7-18.65 18.7-45T292.05 156z" id="bI"/><path id="ap" stroke="#C00" stroke-linejoin="round" stroke-linecap="round" fill="none" d="M39.2 66.95l-.4-.1m4.95 3l.2-.05m0-2.65l.35-.1m-.9 2.8h.35"/><path id="bH" stroke="#0CC" stroke-opacity=".318" stroke-width="14.5" stroke-linejoin="round" stroke-linecap="round" fill="none" d="M598.95 180.05H751.4q9.45 0 16.1 6.65 6.7 6.7 6.7 16.15V355.3q0 9.45-6.7 16.1-6.65 6.7-16.1 6.7H598.95q-9.45 0-16.15-6.7-6.65-6.65-6.65-16.1V202.85q0-9.45 6.65-16.15 6.7-6.65 16.15-6.65z"/><path id="bJ" stroke="#0CC" stroke-opacity=".318" stroke-width="2.25" stroke-linejoin="round" stroke-linecap="round" fill="none" d="M155.293 25.437q17.98 17.98 17.98 43.314 0 25.335-17.98 43.266-17.883 17.98-43.265 17.98-25.335 0-43.314-17.98Q50.83 94.086 50.83 68.75q0-25.334 17.884-43.313 17.98-17.883 43.314-17.883 25.382 0 43.265 17.883z"/></defs><g transform="translate(-66.15 319.7) scale(1.12985)"><mask id="e"><use xlink:href="#d" transform="translate(-397.55 -120.6)"/></mask><g mask="url(#e)"><use xlink:href="#f" transform="translate(-872.4 -249)"/><use xlink:href="#g"/><use xlink:href="#h" transform="matrix(-.21737 -.04706 -.066 .3048 79.287 22.602)"/><use xlink:href="#i" transform="matrix(-.3119 0 0 .3119 65.268 62.103)"/><use xlink:href="#j" transform="matrix(-.3119 0 0 .3119 65.268 62.103)"/><use xlink:href="#k" transform="matrix(.1 -.0538 .0538 .1 -6.982 67.826)"/><use xlink:href="#l" transform="matrix(.1 -.0538 .0538 .1 -6.982 67.826)"/><use xlink:href="#m" transform="matrix(.1 -.0538 .0538 .1 -6.982 67.826)"/><use xlink:href="#n" transform="matrix(.1 -.0538 .0538 .1 -6.982 67.826)"/><use xlink:href="#o" transform="matrix(.1 -.0538 .0538 .1 -6.982 67.826)"/><use xlink:href="#p" transform="matrix(.1 -.0538 .0538 .1 -6.982 67.826)"/><use xlink:href="#q" transform="matrix(.1 -.0538 .0538 .1 -6.982 67.826)"/><use xlink:href="#r" transform="matrix(.1 -.0538 .0538 .1 -6.982 67.826)"/><use xlink:href="#s" transform="matrix(.1 -.0538 .0538 .1 -6.982 67.826)"/><use xlink:href="#t" transform="matrix(.1 -.0538 .0538 .1 -6.982 67.826)"/><use xlink:href="#u" transform="matrix(.1 -.0538 .0538 .1 -6.982 67.826)"/><use xlink:href="#v" transform="matrix(.1 -.0538 .0538 .1 -6.982 67.826)"/><use xlink:href="#w" transform="matrix(.1 -.0538 .0538 .1 -6.982 67.826)"/><use xlink:href="#x" transform="matrix(.1 -.0538 .0538 .1 -6.982 67.826)"/><use xlink:href="#y" transform="matrix(.1 -.0538 .0538 .1 -6.982 67.826)"/><use xlink:href="#z" transform="matrix(.1 -.0538 .0538 .1 -6.982 67.826)"/><use xlink:href="#A" transform="matrix(.1 -.0538 .0538 .1 -6.982 67.826)"/><use xlink:href="#B" transform="matrix(-.3119 0 0 .3119 65.268 62.103)"/><use xlink:href="#C" transform="matrix(.08105 .07955 -.07955 .08105 46.133 -9.538)"/><use xlink:href="#D" transform="matrix(.08105 .07955 -.07955 .08105 46.133 -9.538)"/><use xlink:href="#E" transform="matrix(.08105 .07955 -.07955 .08105 46.133 -9.538)"/><use xlink:href="#F" transform="matrix(.08105 .07955 -.07955 .08105 46.133 -9.538)"/><use xlink:href="#G" transform="rotate(12.2 -68.05 56.41) scale(.1136)"/><use xlink:href="#H" transform="rotate(12.2 -68.05 56.41) scale(.1136)"/><use xlink:href="#I" transform="rotate(12.2 -68.05 56.41) scale(.1136)"/><use xlink:href="#J" transform="rotate(12.2 -68.05 56.41) scale(.1136)"/><use xlink:href="#K" transform="matrix(.22745 .04927 -.04925 .22747 -20.315 70.025)"/><use xlink:href="#L" transform="rotate(12.2 -68.05 56.41) scale(.1136)"/><use xlink:href="#M" transform="rotate(12.2 -68.05 56.41) scale(.1136)"/><use xlink:href="#N" transform="rotate(12.2 -68.05 56.41) scale(.1136)"/><use xlink:href="#O" transform="rotate(12.2 -68.05 56.41) scale(.1136)"/><use xlink:href="#P" transform="rotate(12.2 -68.05 56.41) scale(.1136)"/><use xlink:href="#Q" transform="rotate(12.2 -68.05 56.41) scale(.1136)"/><use xlink:href="#R" transform="rotate(12.2 -68.05 56.41) scale(.1136)"/><use xlink:href="#S" transform="rotate(12.2 -68.05 56.41) scale(.1136)"/><use xlink:href="#T" transform="rotate(12.2 -68.05 56.41) scale(.1136)"/><use xlink:href="#U" transform="rotate(12.2 -68.05 56.41) scale(.1136)"/><use xlink:href="#V" transform="rotate(12.2 -68.05 56.41) scale(.1136)"/><use xlink:href="#W" transform="rotate(12.2 -68.05 56.41) scale(.1136)"/><use xlink:href="#X" transform="rotate(12.2 -68.05 56.41) scale(.1136)"/><use xlink:href="#Y" transform="rotate(12.2 -68.05 56.41) scale(.1136)"/><use xlink:href="#Z" transform="rotate(12.2 -68.05 56.41) scale(.1136)"/><use xlink:href="#aa" transform="rotate(12.2 -68.05 56.41) scale(.1136)"/><use xlink:href="#ab" transform="rotate(12.2 -68.05 56.41) scale(.1136)"/><use xlink:href="#ac" transform="rotate(12.2 -68.05 56.41) scale(.1136)"/><use xlink:href="#ad" transform="rotate(12.2 -68.05 56.41) scale(.1136)"/><use xlink:href="#ae" transform="rotate(12.2 -68.05 56.41) scale(.1136)"/><use xlink:href="#af" transform="rotate(12.2 -68.05 56.41) scale(.1136)"/><use xlink:href="#ag" transform="rotate(12.2 -68.05 56.41) scale(.1136)"/><use xlink:href="#ah" transform="rotate(12.2 -68.05 56.41) scale(.1136)"/><use xlink:href="#ai" transform="rotate(12.2 -68.05 56.41) scale(.1136)"/><use xlink:href="#aj" transform="rotate(12.2 -68.05 56.41) scale(.1136)"/><use xlink:href="#ak" transform="rotate(12.2 -68.05 56.41) scale(.1136)"/><use xlink:href="#al" transform="matrix(-.3119 0 0 .3119 65.268 62.103)"/><use xlink:href="#am" transform="rotate(12.2 -68.05 56.41) scale(.1136)"/><use xlink:href="#an" transform="rotate(12.2 -31.99 15.607) scale(.1136)"/><g transform="matrix(-.3119 0 0 .3119 65.268 62.103)"><use xlink:href="#ao"/><use xlink:href="#ap"/></g><use xlink:href="#aq" transform="matrix(-.3119 0 0 .3119 65.268 62.103)"/><use xlink:href="#ar" transform="matrix(-.3119 0 0 .3119 65.268 62.103)"/><use xlink:href="#as" transform="matrix(.111 .024 -.024 .111 10.39 15.662)"/><use xlink:href="#at" transform="matrix(.111 .024 -.024 .111 10.39 15.662)"/><use xlink:href="#au" transform="matrix(.111 .024 -.024 .111 10.39 15.662)"/><use xlink:href="#av" transform="matrix(.111 .024 -.024 .111 10.39 15.662)"/><use xlink:href="#aw" transform="matrix(.111 .024 -.024 .111 10.39 15.662)"/><use xlink:href="#ax" transform="matrix(.111 .024 -.024 .111 10.39 15.662)"/><use xlink:href="#ay" transform="matrix(-.3048 -.066 -.066 .3048 282.67 -26.63)"/><use xlink:href="#az" transform="matrix(.111 .024 -.024 .111 10.39 15.662)"/><use xlink:href="#aA" transform="matrix(.111 .024 -.024 .111 10.39 15.662)"/><use xlink:href="#aB" transform="matrix(.111 .024 -.024 .111 10.39 15.662)"/><use xlink:href="#aC" transform="matrix(.111 .024 -.024 .111 10.39 15.662)"/><use xlink:href="#aD" transform="matrix(.111 .024 -.024 .111 10.39 15.662)"/><use xlink:href="#aE" transform="matrix(.111 .024 -.024 .111 8.66 15.57)"/><use xlink:href="#aF" transform="matrix(.111 .024 -.024 .111 8.66 15.57)"/><use xlink:href="#aG" transform="matrix(.111 .024 -.024 .111 8.66 15.57)"/><use xlink:href="#aH" transform="matrix(.111 .024 -.024 .111 8.66 15.57)"/><use xlink:href="#aI" transform="matrix(.111 .024 -.024 .111 8.66 15.57)"/><use xlink:href="#aJ" transform="matrix(.111 .024 -.024 .111 8.66 15.57)"/><use xlink:href="#aK" transform="matrix(.111 .024 -.024 .111 8.66 15.57)"/><use xlink:href="#aL" transform="matrix(.111 .024 -.024 .111 8.66 15.57)"/><use xlink:href="#aM" transform="matrix(.111 .024 -.024 .111 8.66 15.57)"/><use xlink:href="#aN" transform="matrix(.111 .024 -.024 .111 8.66 15.57)"/><use xlink:href="#aO" transform="matrix(.111 .024 -.024 .111 8.66 15.57)"/><use xlink:href="#aP" transform="matrix(.111 .024 -.024 .111 8.66 15.57)"/><use xlink:href="#aQ" transform="matrix(.111 .024 -.024 .111 8.66 15.57)"/><use xlink:href="#aR" transform="matrix(.111 .024 -.024 .111 8.66 15.57)"/><use xlink:href="#aS" transform="matrix(.111 .024 -.024 .111 8.66 15.57)"/><use xlink:href="#aT" transform="matrix(.111 .024 -.024 .111 8.66 15.57)"/><use xlink:href="#aU" transform="matrix(.111 .024 -.024 .111 8.66 15.57)"/><use xlink:href="#aV" transform="matrix(.111 .024 -.024 .111 8.66 15.57)"/><use xlink:href="#aW" transform="matrix(.111 .024 -.024 .111 8.66 15.57)"/><use xlink:href="#aX" transform="matrix(.111 .024 -.024 .111 8.66 15.57)"/><use xlink:href="#aY" transform="matrix(.111 .024 -.024 .111 8.66 15.57)"/><use xlink:href="#aZ" transform="matrix(.111 .024 -.024 .111 8.66 15.57)"/><use xlink:href="#ba" transform="matrix(.111 .024 -.024 .111 8.66 15.57)"/><use xlink:href="#bb" transform="matrix(.111 .024 -.024 .111 8.66 15.57)"/><use xlink:href="#bc" transform="matrix(.111 .024 -.024 .111 8.66 15.57)"/><use xlink:href="#bd" transform="matrix(.111 .024 -.024 .111 8.66 15.57)"/><use xlink:href="#be" transform="matrix(.111 .024 -.024 .111 8.66 15.57)"/><use xlink:href="#bf" transform="matrix(.111 .024 -.024 .111 8.66 15.57)"/><use xlink:href="#bg" transform="rotate(12.21 -69.287 47.48) scale(.11357)"/><use xlink:href="#bh" transform="rotate(12.235 -342.023 170.22) scale(.07493)"/><use xlink:href="#bi" transform="matrix(.111 .024 -.024 .111 8.66 15.57)"/><use xlink:href="#bj" transform="matrix(.111 .024 -.024 .111 8.66 15.57)"/><use xlink:href="#bk" transform="matrix(.1026 .02222 -.024 .111 15.864 16.957)"/><use xlink:href="#bl" transform="matrix(.111 .024 -.024 .111 8.66 15.57)"/><use xlink:href="#bm" transform="matrix(.111 .024 -.024 .111 8.66 15.57)"/><use xlink:href="#bn" transform="matrix(.111 .024 -.024 .111 8.66 15.57)"/><use xlink:href="#bo" transform="rotate(12.235 -342.043 171.4) scale(.07493)"/><use xlink:href="#bp" transform="matrix(.111 .024 -.024 .111 8.66 15.57)"/><use xlink:href="#bq" transform="matrix(.111 .024 -.024 .111 8.66 15.444)"/><use xlink:href="#br" transform="matrix(.111 .024 -.024 .111 8.66 15.57)"/><use xlink:href="#bs" transform="matrix(.111 .024 -.024 .111 8.66 15.57)"/><use xlink:href="#bt" transform="matrix(.111 .024 -.024 .111 8.66 15.57)"/><use xlink:href="#bu" transform="matrix(.111 .024 -.024 .111 8.66 15.57)"/><use xlink:href="#bv" transform="matrix(.111 .024 -.024 .111 8.66 15.57)"/><use xlink:href="#bw" transform="matrix(.111 .024 -.024 .111 8.66 15.57)"/><use xlink:href="#bx" transform="matrix(.111 .024 -.024 .111 8.66 15.57)"/><use xlink:href="#by" transform="matrix(.111 .024 -.024 .111 8.66 15.57)"/><use xlink:href="#bz" transform="matrix(.111 .024 -.024 .111 8.66 15.57)"/><use xlink:href="#bA" transform="matrix(.111 .024 -.024 .111 8.66 15.57)"/><use xlink:href="#bB" transform="matrix(.111 .024 -.024 .111 8.66 15.57)"/><use xlink:href="#bC" transform="matrix(.111 .024 -.024 .111 8.66 15.57)"/><use xlink:href="#bD" transform="matrix(.111 .024 -.024 .111 8.66 15.57)"/><use xlink:href="#bE" transform="matrix(.111 .024 -.024 .111 8.66 15.57)"/><use xlink:href="#bF" transform="matrix(-.09566 -.02072 -.02906 .13418 77.244 22.852)"/></g></g><g transform="translate(-562.65 -126.75)"><use xlink:href="#bG"/><use xlink:href="#bH"/></g><g transform="matrix(.96146 0 0 .96146 -125.5 -124.55)"><use xlink:href="#bI"/><use xlink:href="#bJ" transform="matrix(1.04008 0 0 1.04008 130.55 129.55)"/></g></svg>