
<svg xmlns="http://www.w3.org/2000/svg" version="1.1" xmlns:xlink="http://www.w3.org/1999/xlink" preserveAspectRatio="none" x="0px" y="0px" width="138px" height="138px" viewBox="0 0 138 138">
<defs>
<linearGradient id="Gradient_1" gradientUnits="userSpaceOnUse" x1="969.4250000000001" y1="382.4125" x2="296.975" y2="438.2875" spreadMethod="pad">
<stop  offset="67.05882352941177%" stop-color="#FF93A5"/>

<stop  offset="100%" stop-color="#FFFFFF"/>
</linearGradient>

<g id="Mask_S_mbolo_1_0_1_MASK_0_FILL">
<path fill="#FFFFFF" stroke="none" d="
M 525.1 188.55
Q 525.1 166.4 509.4 150.7 493.75 135.05 471.6 135.05 449.45 135.05 433.75 150.7 418.1 166.4 418.1 188.55 418.1 210.7 433.75 226.35 449.45 242.05 471.6 242.05 493.75 242.05 509.4 226.35 525.1 210.7 525.1 188.55 Z"/>
</g>

<g id="S_mbolo_1_0_Layer1_0_MEMBER_0_FILL">
<path fill="url(#Gradient_1)" stroke="none" d="
M 935.85 139.7
Q 919.4 123.25 896.15 123.25
L 370.15 123.25
Q 346.9 123.25 330.45 139.7 314 156.15 314 179.4
L 314 641.4
Q 314 664.65 330.45 681.1 346.9 697.5 370.15 697.5
L 896.15 697.5
Q 919.4 697.5 935.85 681.1 952.3 664.65 952.3 641.4
L 952.3 179.4
Q 952.3 156.15 935.85 139.7 Z"/>
</g>

<g id="Pasta_Itens_duplicados_Interpolar_1_0_Layer0_0_MEMBER_0_FILL">
<path fill="#FFC38A" stroke="none" d="
M 765.9 63.05
Q 766.3130859375 69.5798828125 766.75 74.75
L 778.9 59.9
Q 775.1310546875 52.5986328125 772.2 47.5
L 765.9 63.05
M 454.5 271.35
Q 458.65 271.85 462.55 273.1 466.1521484375 273.9451171875 469.7 274.85 478.9720703125 277.272265625 487.9 280.2 498.55 283.35 509.45 287.45
L 509.65 287.45
Q 510.05 287.65 510.7 287.65 542.7103515625 296.60625 573.85 310.55
L 583.75 298.45
Q 569.148828125 296.853515625 554.3 293.5 517.070703125 284.7060546875 479.45 262.9 445.6861328125 243.3357421875 411.6 213.25 392.2 195.8 373.1 175.95 395.3 201.75 413.95 223.6 437.6 251.2 454.5 271.35 Z"/>

<path fill="#ECAC70" stroke="none" d="
M 214 384.65
Q 208.3677734375 383.280859375 202.35 381.2 183.88125 374.7916015625 135.35 370.25
L 266.85 477.85 324.75 493.95
Q 354.4326171875 518.2484375 384.95 541.35
L 434.4 480.9
Q 414.980078125 461.64375 391.8 438.7 382.65 429.55 359.05 413.75 358.08359375 413.0939453125 357.15 412.45 331.1580078125 394.7763671875 321.75 387.25 281.75 354 302.45 327.6
L 295.05 335.8
Q 273.3 371.65 266.55 377 247.1416015625 392.86015625 214 384.65 Z"/>

<path fill="#D2A77E" stroke="none" d="
M 569.55 315.75
L 573.85 310.55
Q 542.7103515625 296.60625 510.7 287.65 540.733984375 299.105859375 569.55 315.75 Z"/>

<path fill="#FFD6AF" stroke="none" d="
M 388.1 332.15
Q 379.8 317.55 386.85 301.55 396.95 277.2 425.45 273.1
L -188.45 88.05 -196.95 98.4 135.35 370.25
Q 183.88125 374.7916015625 202.35 381.2 208.3677734375 383.280859375 214 384.65 247.1416015625 392.86015625 266.55 377 273.3 371.65 295.05 335.8
L 302.45 327.6
Q 281.75 354 321.75 387.25 331.1580078125 394.7763671875 357.15 412.45 358.08359375 413.0939453125 359.05 413.75 382.65 429.55 391.8 438.7 414.980078125 461.64375 434.4 480.9
L 481.25 423.7
Q 479.6326171875 420.6564453125 478.15 415.7 476.4 410.25 474.45 407.2 473.4 404.8 464.9 398.75 456.45 393.1 456.25 390.25 452.15 380.15 441.9 376.25 425.05 369 417.65 363.15 411.0125 357.937890625 405.7 353.1 393.16171875 341.6056640625 388.1 332.15
M 413.95 223.6
L 423.3 266
Q 439.25 267.65 454.5 271.35 437.6 251.2 413.95 223.6
M 423.7 267.45
L 425.45 273.1
Q 439.95 272.9 451.45 272.9 437.15 269.9 423.7 267.45
M 636.35 170.5
Q 598.6939453125 163.1888671875 568.25 154.4 540.6537109375 146.4349609375 519 137.25 489.45 126.8 474.45 118.65 466.45 114.25 459.55 108.2 449.3 97.6 439.55 87.85 431.75 80.05 414.8 72.6 400.7 66.8 394.15 55.65 391.8 48.25 390.05 41.15 389.2 38.3 387.7 35.3
L 372 40.05 374.35 40.95 371.85 40.05 411.6 213.25
Q 445.6861328125 243.3357421875 479.45 262.9 517.070703125 284.7060546875 554.3 293.5 569.148828125 296.853515625 583.75 298.45
L 683.3 176.8
Q 663.4326171875 175.507421875 636.35 170.5
M 708.2 -47.65
Q 688.7 -43.45 666.25 -38.9 631.55 -33.05 614.4 -31.75
L 612.25 -27
Q 629.25 -23.3 643.05 -10.7 646.6 -7.2 663.95 12.7 665.959765625 15.1787109375 673.95 25.25 677.8697265625 30.233984375 683.25 37.05 694.75 51.95 704.1 61.1 721.45 77.4 732.95 108.2 733.9556640625 111.062890625 734.8 113.8
L 766.75 74.75
Q 766.3130859375 69.5798828125 765.9 63.05
L 772.2 47.5
Q 775.1310546875 52.5986328125 778.9 59.9
L 838.15 -12.5
Q 790.0076171875 -9.775 750.5 -26.3
L 708.2 -47.65 Z"/>

<path fill="#FFE1C6" stroke="none" d="
M 468 276.95
Q 462.7328125 275.654296875 457.5 274.4 454.5 273.8 451.45 272.9 439.95 272.9 425.45 273.1 396.95 277.2 386.85 301.55 379.8 317.55 388.1 332.15 393.16171875 341.6056640625 405.7 353.1 411.0125 357.937890625 417.65 363.15 425.05 369 441.9 376.25 452.15 380.15 456.25 390.25 456.45 393.1 464.9 398.75 473.4 404.8 474.45 407.2 476.4 410.25 478.15 415.7 479.6326171875 420.6564453125 481.25 423.7
L 569.55 315.75
Q 540.733984375 299.105859375 510.7 287.65 510.05 287.65 509.65 287.45
L 509.45 287.45
Q 488.3986328125 281.9291015625 468 276.95
M 374.35 40.95
L 372 40.05 -24.35 -112.5 -188.45 88.05 425.45 273.1 423.7 267.45
Q 416.55 266 409.85 264.65 416.55 265.1 423.3 266
L 413.95 223.6
Q 395.3 201.75 373.1 175.95 392.2 195.8 411.6 213.25
L 371.85 40.05 374.35 40.95
M 666.25 -38.9
Q 688.7 -43.45 708.2 -47.65
L 750.5 -26.3
Q 790.0076171875 -9.775 838.15 -12.5
L 862.85 -42.65
Q 845.5330078125 -40.8140625 827.1 -39.75
L 688.2 -84.5
Q 579.6 -55.35 455.65 -10.5
L 387.7 35.3
Q 389.2 38.3 390.05 41.15 391.8 48.25 394.15 55.65 400.7 66.8 414.8 72.6 431.75 80.05 439.55 87.85 449.3 97.6 459.55 108.2 466.45 114.25 474.45 118.65 489.45 126.8 519 137.25 540.6537109375 146.4349609375 568.25 154.4 598.6939453125 163.1888671875 636.35 170.5 663.4326171875 175.507421875 683.3 176.8
L 734.8 113.8
Q 733.9556640625 111.062890625 732.95 108.2 721.45 77.4 704.1 61.1 694.75 51.95 683.25 37.05 677.8697265625 30.233984375 673.95 25.25 665.959765625 15.1787109375 663.95 12.7 646.6 -7.2 643.05 -10.7 629.25 -23.3 612.25 -27
L 614.4 -31.75
Q 631.55 -33.05 666.25 -38.9 Z"/>
</g>

<g id="Shape_shape_4_0_Layer0_0_FILL">
<path fill="#000000" stroke="none" d="
M -411.9 173.35
L -413.95 174.9 -397.15 215.3 -394.55 213.2 -411.9 173.35
M -278.2 116.95
L -274.4 111.95 -276.2 110.65 -289.05 122 -285.7 124.6 -278.2 116.95
M -390.9 39.9
L -390.95 39.9 -391 40 -391.25 40.3 -393 41.6 -395.05 43.05
Q -388.15 43.35 -381.35 44.6
L -380.85 44.7 -374.5 42.4 -372.4 41.6 -372.65 41.6 -377.65 41.1 -389.3 40.25 -390.9 39.9
M -291.1 129.85
L -291.05 130.15 -290.45 129.55 -290.2 129.2 -285.9 124.8 -291.1 129.85
M -447.5 -3.5
L -448.55 -5.4 -448.8 -5.75 -450.45 -8.9
Q -453.65 -10.6 -455.1 -8.35
L -450.45 -5.4 -452.95 2.6 -457 1.75 -460.8 36.95 -461.25 36.95 -461.95 36.9 -462.6 36.75 -463.15 36.55 -463.8 36.5 -465.75 36.5
Q -468.4 36.35 -470.45 36.55
L -473.85 37.2 -478.05 7.95 -483.05 8.4 -484.2 0.4 -479.2 0 -479.3 -0.35
Q -483.4 -2.9 -485.35 -0.05
L -485.5 1.1 -480.6 39.65 -482.15 40.55
Q -485 42.55 -487.45 45.3
L -503.3 27.65 -507.75 30.15 -513.6 26.4 -509.95 21.9
Q -513.55 22.75 -514.3 24.85
L -514.5 26.25 -514.25 27.7 -514.05 28.05 -509.35 54.75 -510.9 56 -513.95 50.6 -512.2 47.95 -514.6 49.45 -517.85 42.95 -518.25 43.15 -513.8 52.15 -516.6 53.15 -513.4 52.65 -508.85 60.55 -511.85 61.9 -508.25 61.4 -508.1 61.7 -506.05 73.35 -509.4 74.5 -512.2 71.9 -510.25 68.4 -513 70.95 -518.6 65.3 -515.55 61.75 -519.35 64.45 -522.4 61.25 -521.1 58.3 -523 60.35 -528.75 52.9 -527.15 50.5 -529.1 52.45 -534.3 44.85 -534.7 44.95
Q -531.1 51.2 -526.35 57.25
L -529.2 59.65 -525.7 58 -522.1 62.8 -525.3 65.8 -521.25 63.7 -515.3 70.05 -518.4 72.75 -514.65 70.8
Q -511.15 74.4 -507.2 77.65
L -506.9 77.9 -508.85 81.15 -506.2 78.55 -504.9 79.7 -503.7 86.45 -503.75 86.55 -503.8 86.6 -503.75 86.7 -504.05 87.75 -504.25 89.25 -504.4 89.65 -504.1 92.2
Q -503.6 95.8 -501.55 98.3
L -500.05 106.95 -535.9 145.35 -534.55 147.3 -540.8 150.65 -541.15 148.85 -559.6 160.25 -560.5 160.25 -576.95 163.2 -598.5 161.7 -598.45 162.05 -598 163.85 -578.4 166.3 -560.8 163.3 -559.7 163.2 -534.45 148.85 -502.05 115.75 -505 114.9 -499.15 108.85 -495.3 108.85 -494.95 108.2 -496.1 101.9 -493.25 103.2
Q -492.95 129.65 -495.95 141.6
L -493.25 141.2 -489.75 104.55 -487.3 104.45 -486.9 104.45 -485.55 104.15 -483.2 103.8
Q -478.7 101.95 -476.8 99.75
L -475.05 98.45 -478.95 137.4 -476.75 139.35 -483.45 145.2 -485.75 144.3 -516.85 173.8 -515.95 174.9 -519.95 179 -520.95 177.75 -521.65 178.35 -544.3 191.85 -545.35 192.25 -560.25 194.85 -578.55 192.65 -578.7 193.25 -578.7 194.9 -562.35 198.1 -546.3 195.4 -542.3 193.6 -521.7 181.75 -519.55 180.75 -474.7 139.4 -470.35 98.2 -465.85 99.15
Q -458.8 100.1 -451.05 98.3
L -450.85 98.3 -450.05 100.25
Q -445.65 103.6 -442.5 101.05 -440.15 98.2 -441.35 94.8 -436.3 92.25 -431.4 88.35
L -432.95 119.1 -430.95 119.05 -417.35 170.55 -416.25 169.3 -415.5 171.8
Q -416.05 169 -414.05 167.5
L -413.1 166.75 -424.65 127.2 -427 127.2 -429.95 119 -429.8 119.45 -430.15 119 -429.95 119 -427 119.15 -427.05 119 -426.7 119.1 -426.65 84.15 -425.1 82.6 -424.9 80.75 -423.15 78.85 -411.9 55.35 -409.75 56.05 -410.3 55.35 -407.9 56 -411.3 99.6 -415.7 138.05 -412.35 134.15 -403.9 137 -366.3 153.05 -327.8 148.3 -327.25 148.3 -297.85 134.55 -297.95 134.25 -291.1 129.85 -293.5 125.45 -300.8 129.65 -316.95 136.5 -315.3 139.75 -327.05 144.8 -327.05 140.55 -353.35 144.1 -353.35 148.15 -365.05 149.8 -364.1 145.6 -364.15 145.6 -395.8 131.95 -399.4 136 -409.85 131.4 -407.2 125.85
Q -407.7 122.15 -407.85 117.35
L -407.8 104.75 -408.05 104.45 -404.25 57.85 -403.75 58 -403.65 57 -388.45 60.85 -387.1 61.15 -386.65 61.35 -380.2 62.9 -379.1 63.15 -357.5 67.55 -356.65 67.45 -356.75 67.5 -356.6 67.5 -356.1 67.6 -346.55 68.7
Q -339.1 69.3 -333.3 68.95 -319.1 68.05 -311.25 65.85
L -307.85 64.7 -307.15 64.35 -306.85 64.2
Q -294.65 56.4 -308.85 52.35
L -309.3 52.2 -310.6 51.8
Q -311.8 51.3 -313.4 51.05
L -314.2 50.8 -314.25 50.8
Q -314.45 50.8 -314.65 50.6
L -320.1 49.25 -302.65 31.55 -302.9 31.35 -299.15 26.25 -298.95 26.45 -298.8 25.85 -294.4 13.8 -293.65 9.4 -295.9 9.25 -302.3 22.8 -302.3 22.95 -303.25 24.15 -301.1 25.55 -304.45 30.05 -303.95 29.55 -304.2 30.05 -304.45 30.05 -307.3 29.15 -318.7 39.95 -316.15 42.7 -320.75 46.9 -324.3 45.2 -324.35 45.2 -328.6 47.5
Q -344.75 44.45 -366.85 42.15
L -372.4 41.6 -376.75 43.85
Q -377.9 44.65 -378.95 45.05
L -370.9 47 -369.4 47.35 -364.15 49 -358.3 50.45 -355.15 50.85 -351.8 49.8 -349.65 49.05 -345.15 48.1 -336.05 46.8
Q -324.8 48.8 -326.15 48.95 -327.55 49.05 -330.55 48
L -335.25 47.5 -335.9 47.6 -344.75 48.9 -348.45 49.85 -350.95 50.55 -351.9 51.1 -347.55 51.45 -340.4 52.05 -320.4 55.2 -313.75 56.2 -342.15 52.75 -353.65 51.65 -353.7 51.65 -357.35 51.4 -356.55 51.2
Q -363.5 50.1 -370.35 48.3
L -371.7 47.95 -381.25 45.7 -381.5 45.7 -381.7 45.6 -381.75 45.55 -382.9 45.35
Q -381.25 46.2 -378.65 48.2
L -374.4 51.4 -373.5 52.05
Q -371.85 53 -369.95 54.95
L -366.7 57.9 -364.6 59.5
Q -363.8 60 -356.5 60.75
L -364.25 60.15 -374.8 52.5 -375.05 52.35
Q -383.3 46.5 -383.5 45.45
L -383.5 45.25 -396.65 43.75 -398.65 44.75 -402.25 45.9 -402.15 45.15 -400.65 44.75
Q -399.8 44.15 -398.8 43.75
L -397.8 43.4 -397.9 43.3 -397.8 42.95 -396.5 43 -395.55 42.3 -394.7 41.95 -393.55 41.3 -392.95 40.7 -392.35 40.05 -392.2 39.8 -393.9 39.7 -401.35 39.3 -401.15 37.9 -398.5 19.2
Q -398.2 17.85 -398.15 16.35
L -398.05 15.8 -397.25 11.2
Q -398.7 7.55 -401.4 9.25
L -398.15 11.3 -403.15 18 -406.75 15.55 -422.25 38.2 -422.55 38.2 -429.25 27.7 -435.85 16.7 -436.85 15.05 -447.5 -3.5
M -298.3 131.75
L -297.5 131.4 -298.1 132 -298.3 131.75
M -427.55 46
L -429.15 48.3 -429.45 48.25
Q -435.75 47.5 -435.9 46.8
L -435.9 46.5 -439.8 44.45
Q -440.45 43.9 -427.55 46
M -418.85 49
L -419.25 48.8 -422.45 48.8 -421.2 47 -419.35 47.25 -408.8 46.7 -406.9 46.35 -406.35 46.25 -406.4 47.2 -406.85 47.2 -407 47.2 -408.75 47.5 -418.85 49
M -405.65 39.05
L -415.25 38.55 -404.15 22.7 -405.65 39.05
M -472.95 47.4
L -468.4 47.75 -468.8 60.85 -472.6 61.15 -472.95 47.4
M -450.55 37.25
L -455.2 37 -450.6 0.65 -426.4 38 -450.55 37.25
M -424.55 51.8
L -416.2 53.9 -414.6 56.5 -414.65 56.5 -425.85 53.65 -424.55 51.8
M -431.2 53.95
L -429.5 57.3 -434.1 62.7 -434.15 62.75 -437.05 60.25 -431.2 53.95
M -432.95 49.7
L -433.65 51.7 -433.85 51.65 -434.8 49.25 -432.95 49.7
M -491.15 50.4
L -492.95 53.7
Q -494.7 63 -493.2 71.15
L -492.5 74.4 -495.5 76.8 -496.35 76.05 -499.4 72.3 -502.2 69 -499.8 65 -502.65 67.75 -503.95 60.9 -503.85 60.75 -504 60.85 -509.7 31 -491.15 50.4
M -502.2 70.05
L -500.15 72.7 -501.5 73.7 -502.2 70.05
M -489.9 73.15
L -489.85 73.2 -489.9 73.3 -489.9 73.15
M -510.3 56.85
L -509.15 55.45 -508.35 60.2 -510.3 56.85
M -493.7 78.9
L -494.55 78 -492.4 74.75 -491.85 76.55 -492.2 78.1 -492.25 80.3 -492.55 80.3 -493.7 78.9
M -494.75 79.1
L -493.3 80.55 -497.1 80.65 -497.7 80.7
Q -499 80.95 -500 81.6
L -501.4 74.4 -499.5 73.7 -497.2 76.25 -494.75 79.1
M -505.15 78.15
L -505.95 77.5 -508.6 75.3 -506.05 73.4 -505.15 78.15 Z"/>
</g>

<g id="Shape_shape_5_0_Layer0_0_FILL">
<path fill="#000000" stroke="none" d="
M 40.2 -24.7
L 34.8 -24.95 31.75 -24.95 31.4 -25.25 28.35 -26.05 27.2 -26.25
Q 21.95 -26.9 3.7 -25.95 5.85 -24.95 8.25 -21.35
L 3.7 -21.35
Q 2.2 -24.95 -1.7 -27.05
L -18 -26.3 -22.05 -25.85
Q -23.2 -26.6 -25.5 -26.75
L -27.7 -26.95 -27.85 -26.95 -27.95 -26.9 -28.1 -26.9 -28.15 -26.85 -28.3 -26.9 -28.7 -26.95 -41.85 -26.05 -43.15 -25.35 -43.95 -25.2 -47.7 -24.6 -48 -24.8 -48.2 -25.2 -49.05 -25.3 -51.7 -25.45 -53.5 -25.4
Q -56.2 -25.45 -60.15 -24.35
L -60.3 -24.95 -64.05 -24.55 -63.65 -23.4 -64.4 -23.25 -66.6 -24.35 -68.8 -24.15 -69.65 1.9 -69.5 1.55 -69.4 1
Q -60.1 9.9 -50.6 15.85
L -50.45 16.15 -45.15 19.4 -45.45 18.85
Q -36.65 23.5 -27.75 25.55 7.2 33.6 43.9 1 48.9 -3.4 53.9 -8.65
L 55.9 -10 58.9 -12.6
Q 64.6 -17.9 69.7 -25.8 62.8 -22 58.1 -21.55 55.25 -21.25 53.25 -22.05 50.75 -23.25 47.1 -24
L 40.2 -24.7 Z"/>
</g>

<g id="Shape_shape_7_0_Layer0_0_FILL">
<path fill="#990000" stroke="none" d="
M 43.45 -4.95
L 43.8 -5.35
Q 48.9 -10.05 52.6 -15.6
L -52.55 -14.05 -48.8 -1.3
Q -36.65 11.9 -15.8 14.8
L -8.6 15.5
Q -4.2 15.7 0.6 15.55 28.2 8.9 43.45 -4.95 Z"/>
</g>

<g id="Shape_shape_9_0_Layer0_0_FILL">
<path fill="#000000" stroke="none" d="
M 24.05 11.7
Q 26.7 10.65 26.55 9.8
L 26.2 9.3 25.45 8.95 23.5 8.55 16.6 8.9
Q 12.6 9.45 9.9 10.5
L 8.25 11.3 7.6 11.85
Q 7.35 12.15 7.4 12.4 7.55 13.35 10.5 13.6
L 17.35 13.25
Q 21.35 12.7 24.05 11.7
M -26.55 -10.9
Q -26.45 -9.85 -23.9 -9.15
L -17.8 -8.6
Q -14.2 -8.65 -11.75 -9.5 -10.25 -9.95 -9.7 -10.5 -9.3 -10.9 -9.35 -11.3
L -9.35 -11.45
Q -9.65 -12.4 -12 -13
L -18.15 -13.6 -23.5 -12.95 -24.15 -12.75 -24.35 -12.65 -25.65 -12.05
Q -26.55 -11.55 -26.55 -10.9
M 2.2 -1.85
L 2.05 -1.95
Q 1.25 -2.45 -1.05 -1.25 -3.65 0.05 -6.5 2.5 -9 4.7 -10.45 6.65
L -10.9 7.25 -11 7.4 -11.7 8.7
Q -12.1 9.7 -11.65 10.1 -10.9 10.75 -8.35 9.45 -5.8 8.15 -2.95 5.7 -0.1 3.2 1.45 1 2.35 -0.35 2.45 -1.15 2.5 -1.65 2.2 -1.85 Z"/>
</g>

<g id="Shape_shape_10_0_Layer0_0_FILL">
<path fill="#000000" stroke="none" d="
M -0.65 8.6
L -2.3 9.4 -2.95 9.9 -3.15 10.5
Q -3 11.4 -0.05 11.65
L 6.85 11.35
Q 10.8 10.8 13.45 9.75 16.2 8.75 16.05 7.85
L 15.7 7.4
Q 15.4 7.15 15 7.05
L 12.95 6.7 6.05 7
Q 2.1 7.55 -0.65 8.6
M -5.6 -11.65
L -5.65 -11.65 -5.75 -11.7
Q -6.6 -12.1 -8.65 -10.3 -10.75 -8.5 -12.75 -5.45 -14.8 -2.4 -15.6 0.1
L -15.75 0.45 -16 1.8
Q -16.05 2.75 -15.55 3.05 -14.65 3.5 -12.55 1.7 -10.45 -0.15 -8.4 -3.15 -6.35 -6.2 -5.55 -8.75 -4.8 -11.15 -5.6 -11.65 Z"/>
</g>

<g id="Shape_shape_11_0_Layer0_0_FILL">
<path fill="#000000" stroke="none" d="
M 21.2 6.2
L 20.55 5.7 18.65 5.05
Q 15.8 4.35 11.8 4.2
L 4.9 4.7 3.1 5.2 2.35 5.6
Q 2.05 5.9 2.05 6.2 2 7.1 4.8 7.8
L 11.65 8.65 18.55 8.2
Q 21.4 7.65 21.4 6.7
L 21.2 6.2
M -13.35 -0.4
Q -11 -3.25 -9.95 -5.65 -9.3 -7.1 -9.35 -7.9 -9.4 -8.4 -9.75 -8.6
L -9.9 -8.65
Q -10.8 -9 -12.85 -7.45 -15.1 -5.85 -17.45 -2.95 -19.45 -0.45 -20.5 1.7
L -20.8 2.35 -20.9 2.55 -21.3 3.9
Q -21.55 4.95 -21.05 5.3 -20.15 5.8 -17.9 4.2 -15.65 2.5 -13.35 -0.4 Z"/>
</g>
</defs>

<g transform="matrix( 0.2756195068359375, 0, 0, 0.2756195068359375, -93.15,-37.8) ">
<mask id="Mask_Mask_1">
<g transform="matrix( 3.971099853515625, 0, 0, 3.971099853515625, -1286.3,-363.2) ">
<use xlink:href="#Mask_S_mbolo_1_0_1_MASK_0_FILL"/>
</g>
</mask>

<g mask="url(#Mask_Mask_1)">
<g transform="matrix( 1, 0, 0, 1, 0,0) ">
<use xlink:href="#S_mbolo_1_0_Layer1_0_MEMBER_0_FILL"/>
</g>

<g transform="matrix( 0.5893096923828125, 0.7202301025390625, -0.7202301025390625, 0.5893096923828125, 489.2,208.1) ">
<g transform="matrix( 1, 0, 0, 1, 0,0) ">
<use xlink:href="#Pasta_Itens_duplicados_Interpolar_1_0_Layer0_0_MEMBER_0_FILL"/>
</g>

<g transform="matrix( 1.061676025390625, 0.120391845703125, -0.120391845703125, 1.061676025390625, 686.6,2.9) ">
<g transform="matrix( 1, 0, 0, 1, 0,0) ">
<use xlink:href="#Shape_shape_4_0_Layer0_0_FILL"/>
</g>
</g>

<g transform="matrix( 0.9702911376953125, 0.450897216796875, -0.450897216796875, 0.9702911376953125, 242.55,11.45) ">
<g transform="matrix( 1, 0, 0, 0.6593017578125, 69.65,17.9) ">
<g transform="matrix( 1, 0, 0, 1, 0,0) ">
<use xlink:href="#Shape_shape_5_0_Layer0_0_FILL"/>
</g>
</g>
</g>

<g transform="matrix( 0.962615966796875, 0.463653564453125, -0.463653564453125, 0.962615966796875, 242.55,22.95) ">
<g transform="matrix( 1, 0, 0, 0.4070587158203125, 52.55,6.35) ">
<g transform="matrix( 1, 0, 0, 1, 0,0) ">
<use xlink:href="#Shape_shape_7_0_Layer0_0_FILL"/>
</g>
</g>
</g>

<g transform="matrix( 1.061676025390625, 0.120391845703125, -0.120391845703125, 1.061676025390625, 255.65,36.65) ">
<g transform="matrix( 1, 0, 0, 1, 26.55,13.6) ">
<g transform="matrix( 1, 0, 0, 1, 0,0) ">
<use xlink:href="#Shape_shape_9_0_Layer0_0_FILL"/>
</g>
</g>

<g transform="matrix( 1, 0, 0, 1, 44.6,19.1) ">
<g transform="matrix( 1, 0, 0, 1, 0,0) ">
<use xlink:href="#Shape_shape_10_0_Layer0_0_FILL"/>
</g>
</g>

<g transform="matrix( 1, 0, 0, 1, 35.7,11.3) ">
<g transform="matrix( 1, 0, 0, 1, 0,0) ">
<use xlink:href="#Shape_shape_11_0_Layer0_0_FILL"/>
</g>
</g>
</g>
</g>
</g>
</g>
</svg>
