
<svg xmlns="http://www.w3.org/2000/svg" version="1.1" xmlns:xlink="http://www.w3.org/1999/xlink" preserveAspectRatio="none" x="0px" y="0px" width="138px" height="138px" viewBox="0 0 138 138">
<defs>
<linearGradient id="Gradient_1" gradientUnits="userSpaceOnUse" x1="761.8125" y1="451.8" x2="587.9875" y2="366.8" spreadMethod="pad">
<stop  offset="15.686274509803921%" stop-color="#D0D0A6"/>

<stop  offset="100%" stop-color="#B45A00"/>

<stop  offset="100%" stop-color="#78957A"/>
</linearGradient>

<linearGradient id="Gradient_2" gradientUnits="userSpaceOnUse" x1="761.8125" y1="451.8" x2="587.9875" y2="366.8" spreadMethod="pad">
<stop  offset="15.686274509803921%" stop-color="#939375"/>

<stop  offset="100%" stop-color="#803F00"/>

<stop  offset="100%" stop-color="#78957A"/>
</linearGradient>

<linearGradient id="Gradient_3" gradientUnits="userSpaceOnUse" x1="761.8125" y1="451.8" x2="587.9875" y2="366.8" spreadMethod="pad">
<stop  offset="15.686274509803921%" stop-color="#ECECBB"/>

<stop  offset="100%" stop-color="#B45A00"/>

<stop  offset="100%" stop-color="#78957A"/>
</linearGradient>

<g id="Mask_Pasta_Itens_duplicados_S_mbolo_1_0_1_MASK_0_FILL">
<path fill="#FFFFFF" stroke="none" d="
M 525.1 188.55
Q 525.1 166.4 509.4 150.7 493.75 135.05 471.6 135.05 449.45 135.05 433.75 150.7 418.1 166.4 418.1 188.55 418.1 210.7 433.75 226.35 449.45 242.05 471.6 242.05 493.75 242.05 509.4 226.35 525.1 210.7 525.1 188.55 Z"/>
</g>

<g id="Pasta_Itens_duplicados_S_mbolo_1_0_Layer1_0_FILL">
<path fill="#66CCCC" stroke="none" d="
M 848.65 601.9
L 848.65 289.9 326 289.9 326 601.9 848.65 601.9 Z"/>
</g>

<g id="Pasta_Itens_duplicados_S_mbolo_1_0_Layer1_1_FILL">
<path fill="#295454" stroke="none" d="
M 482.7 518.05
L 474.8 514.5 482.15 518.6 470.7 518.85 482.05 519.45 471.85 526.95 482.45 520.25 478.3 528.6 483.15 520.3 482.7 518.05
M 472.35 477.9
L 472.25 475 463.3 469.05 471.5 475.6 457.35 473.6 471.2 476.6 457.1 483.75 471.55 477.7 464.7 487.1 472.35 477.9
M 468.8 455.55
L 468.7 452.65 459.75 446.7 467.9 453.25 453.8 451.2 467.65 454.25 453.55 461.4 467.95 455.35 461.15 464.75 468.8 455.55
M 504.25 515.25
L 504.15 515.3 504.2 515.2 504.25 515.2 508.35 507 504.05 514.25 503.45 515.25 503.95 517.5 504.3 517.65 511.8 521.05 504.5 516.95 515.9 516.7 504.6 516.15 514.8 508.65 504.25 515.25
M 477.4 499.4
L 477.3 497.1 477.25 497.05 470.1 492.3 476.7 497.55 465.4 495.9 476.45 498.35 465.15 504.05 476.7 499.25 471.25 506.75 477.35 499.5 477.4 499.4
M 501.5 498.6
L 501.9 498.85 508.7 503.4 502.1 498.1 513.4 499.75 502.35 497.35 513.65 491.65 502.05 496.45 507.55 488.9 501.8 495.85 501.4 496.3 501.5 498.6
M 498.75 451.75
L 498.9 454.6 507.85 460.6 499.65 454.05 513.75 456.05 499.95 453.05 514.05 445.9 499.6 451.9 506.45 442.55 498.75 451.75
M 499.65 474.2
L 500.15 473.55 506.45 464.8 499.9 472.75 498.8 474 498.9 476.9 500.55 478 507.85 482.85 500.6 477 499.7 476.3 500.6 476.45 513.8 478.35 500.5 475.45 499.95 475.3 500.45 475.05 514.05 468.2 500.25 473.95 499.65 474.2
M 449.15 427.95
L 465.55 431.5 467.8 432 465.85 433 448.75 441.65 466.25 434.4 468.25 433.55 466.8 435.6 459.05 446.2 467.25 436.4 469.4 433.8 469.25 429.9 465.55 427.45 457.15 421.85 465.45 428.5 468.15 430.7 465.45 430.3 449.15 427.95
M 500.15 428.65
L 497.6 429.7 499.9 426.55 506.8 417.05 499.7 425.65 496.5 429.45 496.65 433.35 499.1 435 508.7 441.4 499.45 434 497.7 432.55 499.8 432.85 516.7 435.3 500 431.65 498.05 431.2 500.15 430.15 517.1 421.6 500.15 428.65 Z"/>

<path fill="#FFFFCC" stroke="none" d="
M 501 526.2
L 493.65 527.4
Q 493.65 527.55 493.65 527.7
L 489.7 527.7
Q 486.85 538.9 493.45 549.35
L 493.7 549.05
Q 495.4 544.95 496.15 540.8 497.35 543.55 499.2 546.2 500.35 547.8 501.75 549.4
L 501.9 549
Q 503.1 542.45 502.7 536.2 506.45 541.2 512.8 544.45
L 512.85 544.1
Q 511.35 533.75 505.1 525.9 504.55 525.2 503.95 524.55
L 501.05 526.3
Q 501 526.25 501 526.2
M 504.3 517.65
L 503.95 517.5 503.45 515.25 504.05 514.25
Q 503.45 512.05 501.75 510.45 499.4 508.15 496.2 508.3
L 490.05 508.65
Q 487.25 508.8 485.3 510.75 485 511 484.75 511.3 482.65 513.8 482.8 517.25 483 520.65 485.35 522.95 487.75 525.3 490.9 525.15
L 497.05 524.8
Q 500.25 524.65 502.35 522.1 504 520.15 504.3 517.65
M 504.15 515.3
L 504.25 515.25 504.2 515.2 504.15 515.3
M 499.05 491.05
Q 496.35 488.6 492.65 488.75
L 485.6 489.15
Q 481.95 489.3 479.5 492.05 477.5 494.25 477.25 497.05
L 477.3 497.1 477.4 499.4 477.35 499.5
Q 477.8 502.45 480.15 504.55 482.9 507 486.55 506.85
L 493.6 506.45
Q 494.25 506.4 494.9 506.3 497.75 505.8 499.7 503.55 501.55 501.45 501.9 498.85
L 501.5 498.6 501.4 496.3 501.8 495.85
Q 501.3 493 499.05 491.05
M 490.4 464.65
Q 493.95 464.55 496.3 461.25 498.75 458 498.65 453.45 498.5 448.9 495.85 445.75 493.3 442.65 489.75 442.75
L 477.15 443.1
Q 476.5 443.15 475.9 443.25 473.15 443.85 471.2 446.5 468.8 449.8 468.95 454.35 469.05 458.9 471.65 462 474.25 465.15 477.8 465
L 490.4 464.65
M 500.6 477
Q 500.6 476.7 500.6 476.45
L 499.7 476.3 500.6 477
M 500.45 475.05
L 499.95 475.3 500.5 475.45
Q 500.45 475.25 500.45 475.05
M 500.15 473.55
L 499.65 474.2 500.25 473.95
Q 500.2 473.75 500.15 473.55
M 497.85 469.35
Q 495.45 466.6 492.25 466.8
L 479.65 467.55
Q 476.5 467.75 474.4 470.75 472.35 473.75 472.6 477.85 472.85 481.95 475.25 484.65 477.7 487.45 480.85 487.25
L 493.45 486.5
Q 496.65 486.3 498.7 483.25 500.3 480.95 500.55 478
L 498.9 476.9 498.8 474 499.9 472.75
Q 499.2 470.8 497.85 469.35
M 466.25 434.4
Q 466.5 435 466.8 435.6
L 468.25 433.55 466.25 434.4
M 465.85 433
L 467.8 432 465.55 431.5
Q 465.65 432.3 465.85 433
M 465.4 429.4
Q 465.4 429.85 465.45 430.3
L 468.15 430.7 465.45 428.5
Q 465.4 428.95 465.4 429.4
M 500 431.65
Q 500.1 430.9 500.15 430.15
L 498.05 431.2 500 431.65
M 499.8 432.85
L 497.7 432.55 499.45 434
Q 499.65 433.4 499.8 432.85
M 497.6 429.7
L 500.15 428.65
Q 500.1 427.55 499.9 426.55
L 497.6 429.7
M 499.7 425.65
Q 499 423.15 497.45 421.15 494.8 417.75 491.05 417.75
L 474.5 417.75
Q 470.75 417.75 468.1 421.15 466.15 423.65 465.6 426.9 465.55 427.15 465.55 427.45
L 469.25 429.9 469.4 433.8 467.25 436.4
Q 467.6 437.05 468.1 437.65 470.75 441.1 474.5 441.1
L 491.05 441.1
Q 494.25 441.1 496.65 438.6 497.05 438.15 497.45 437.65 498.45 436.4 499.1 435
L 496.65 433.35 496.5 429.45 499.7 425.65 Z"/>
</g>

<g id="Pasta_Itens_duplicados_S_mbolo_1_0_Layer1_1_MEMBER_0_FILL">
<path fill="#FFFFCC" stroke="none" d="
M 393.4 236.4
Q 371 258.8 371 290.5 371 322.2 393.4 344.6 415.8 367 447.5 367
L 499.45 367
Q 531.15 367 553.55 344.6 575.95 322.2 575.95 290.5 575.95 258.8 553.55 236.4 531.15 214 499.45 214
L 447.5 214
Q 415.8 214 393.4 236.4 Z"/>
</g>

<g id="Pasta_Itens_duplicados_S_mbolo_1_0_Layer1_1_MEMBER_1_FILL">
<path fill="#FFFFCC" stroke="none" d="
M 620.95 484.95
Q 620.95 470.45 610.7 460.2 600.45 449.95 585.95 449.95
L 512 449.95
Q 497.5 449.95 487.25 460.2 477 470.45 477 484.95 477 499.45 487.25 509.7 497.5 519.95 512 519.95
L 585.95 519.95
Q 600.45 519.95 610.7 509.7 620.95 499.45 620.95 484.95 Z"/>
</g>

<g id="Pasta_Itens_duplicados_S_mbolo_1_0_Layer1_1_MEMBER_2_FILL">
<path fill="#CDCDA4" stroke="none" d="
M 493.1 345.75
Q 498.8 340.1 498.8 332.05 498.8 324.05 493.1 318.4 492.45 317.75 491.75 317.15 488.9 332.3 492.3 346.55 492.7 346.15 493.1 345.75
M 464.95 318.4
Q 459.3 324.05 459.3 332.05 459.3 340.1 464.95 345.75 465.45 346.2 465.95 346.7 469.2 331.9 465.4 318 465.15 318.2 464.95 318.4 Z"/>

<path fill="#FFFFCC" stroke="none" d="
M 478.6 312.75
Q 472.1 312.75 467.15 316.5 471.85 331.8 467.85 348.15 472.6 351.4 478.6 351.4
L 479.45 351.4
Q 485.3 351.4 489.95 348.35 485.7 332.45 489.3 315.4 484.95 312.75 479.45 312.75
L 478.6 312.75 Z"/>
</g>

<g id="Pasta_Itens_duplicados_S_mbolo_1_0_Layer1_1_MEMBER_2_MEMBER_0_FILL">
<path fill="#295454" stroke="none" d="
M 488.45 315.8
L 495.5 299.55 495.1 299.35 486.7 314.75 488.45 315.8 Z"/>
</g>

<g id="Pasta_Itens_duplicados_S_mbolo_1_0_Layer1_1_MEMBER_2_MEMBER_1_FILL">
<path fill="#295454" stroke="none" d="
M 461.55 299.5
L 468.6 315.75 470.35 314.7 461.9 299.3 461.55 299.5 Z"/>
</g>

<g id="Pasta_Itens_duplicados_S_mbolo_1_0_Layer1_1_MEMBER_3_FILL">
<path fill="#295454" stroke="none" d="
M 505.5 364.65
L 505.85 373.4 548.6 390 508.2 371.6 560.55 372.25 509.05 368.65 546.45 340.2 508.1 365.2 528.75 336.8 505.5 364.65 Z"/>
</g>

<g id="Pasta_Itens_duplicados_S_mbolo_1_0_Layer1_1_MEMBER_4_FILL">
<path fill="#295454" stroke="none" d="
M 452.5 373.05
L 451.35 365.75 427.65 346.55 449.3 366.65 413.55 352.3 449.1 369.6 407.2 381.05 450.25 371.95 419.95 393.7 452.5 373.05 Z"/>
</g>

<g id="Pasta_Itens_duplicados_S_mbolo_1_0_Layer1_1_MEMBER_5_FILL">
<path fill="#295454" stroke="none" d="
M 517.55 419.15
L 501.85 406.6 528.9 410.5 502.4 404.7 529.45 391.05 501.75 402.55 514.85 384.55 500.15 402.15 500.35 407.75 517.55 419.15 Z"/>
</g>

<g id="Pasta_Itens_duplicados_S_mbolo_1_0_Layer1_1_MEMBER_6_FILL">
<path fill="#295454" stroke="none" d="
M 446.85 425.95
L 461.55 408.3 461.35 402.75 444.15 391.3 459.85 403.9 432.8 399.95 459.3 405.8 432.25 419.45 459.95 407.95 446.85 425.95 Z"/>
</g>

<g id="Pasta_Itens_duplicados_S_mbolo_1_0_Layer1_2_FILL">
<path fill="url(#Gradient_1)" stroke="none" d="
M 695.35 395.3
Q 692.45 395.3 691.85 393.2 691.75 392.8 691.75 389.7
L 675.55 389.7 675.55 397.1
Q 681.15 401.15 682.75 403.1 685.7 406.8 686.25 412.5 692.95 409.45 694.65 398.8 699.55 400.6 698.4 394.6 697 395.3 695.35 395.3 Z"/>

<path fill="#FFFFCC" stroke="none" d="
M 704.6 378.1
Q 706.05 378.45 707.4 378.9 761 395.45 723.8 480.15
L 727.25 483.1
Q 766.9 391.85 707.4 377.6 706 377.25 704.6 376.95 701.45 376.3 698.1 375.9 698.15 376.3 698.2 376.7 701.55 377.3 704.6 378.1
M 627.45 383.55
Q 624.3 383.55 622.05 385.75 619.85 388 619.85 391.1 619.85 394.25 622.05 396.45 624.3 398.7 627.45 398.7 630.6 398.7 632.8 396.45 635 394.25 635 391.1 635 388 632.8 385.75 630.6 383.55 627.45 383.55 Z"/>

<path fill="url(#Gradient_2)" stroke="none" d="
M 677.1 371.8
Q 660.95 374.5 660.95 387.9
L 655.55 387.9
Q 649.7 383.45 647.45 381.45 643.65 378.05 644.75 373.5 636.95 373.65 633.45 372.5 628.85 371 626.5 366.3 621.45 369.05 616.35 370.8 609.95 373 609.8 373.05 607.15 374.25 604.5 377.55 605.8 378 607.3 378.4 601.65 382.7 605.65 394.7
L 605.25 394.65
Q 605.4 395.5 607.8 400.1 618.35 420 653.55 408.3 661 405.8 657.1 403.95
L 681.6 413.65
Q 684.15 413.45 686.25 412.5 685.7 406.8 682.75 403.1 681.15 401.15 675.55 397.1
L 675.55 389.7 691.75 389.7
Q 691.75 392.8 691.85 393.2 692.45 395.3 695.35 395.3 697 395.3 698.4 394.6
L 698.4 394.55
Q 698.25 393.5 697.8 392.2 698.95 392.45 700 392.8 700.3 392.9 700.65 393 702.1 391.85 704.6 389.7
L 704.6 378.1
Q 701.55 377.3 698.2 376.7 698.15 376.3 698.1 375.9 701.45 376.3 704.6 376.95
L 704.6 373.5
Q 704.05 373.5 700.55 372.6 697.05 371.7 694.45 371.7 685.3 370.4 677.1 371.8
M 622.05 385.75
Q 624.3 383.55 627.45 383.55 630.6 383.55 632.8 385.75 635 388 635 391.1 635 394.25 632.8 396.45 630.6 398.7 627.45 398.7 624.3 398.7 622.05 396.45 619.85 394.25 619.85 391.1 619.85 388 622.05 385.75 Z"/>

<path fill="url(#Gradient_3)" stroke="none" d="
M 660.95 387.9
Q 660.95 374.5 677.1 371.8 685.3 370.4 694.45 371.7 697.05 371.7 700.55 372.6 704.05 373.5 704.6 373.5
L 704.6 376.95
Q 706 377.25 707.4 377.6 766.9 391.85 727.25 483.1
L 723.8 480.15
Q 761 395.45 707.4 378.9 706.05 378.45 704.6 378.1
L 704.6 389.7
Q 702.1 391.85 700.65 393 704.25 394.05 707.4 395.4 750.45 413.2 711.2 469.4
L 718.8 475.9 694.2 500.55 709.95 494.55 716.9 497.6 706.3 518.05
Q 706.85 517.8 707.4 517.5 719.95 511 730.7 490.5 730.75 490.35 730.8 490.25 731.55 488.85 732.3 487.35
L 733.5 485.8 742.8 470.3 748.55 470.3 742.65 464.05 753.9 467.5
Q 761.65 454.45 761.5 441.4 761.45 438.25 760.95 435.05
L 769.25 431.7 753.4 431.25 773.4 427.3
Q 771.95 411 753.4 394.75
L 762.5 387.95 744.55 396.65 761.9 383.4
Q 753.2 364.75 729.8 357.1
L 721.25 369.55 729.85 342.8
Q 718.6 337.95 707.4 336.9 694.7 335.65 682.05 339.25 669.95 327.6 647.1 322.9 622.45 317.75 609.15 331.15 595.85 344.6 594.1 358.9 592.65 370.4 593.9 369.1
L 594.7 367.65
Q 592 373.45 604.5 377.55 607.15 374.25 609.8 373.05 609.95 373 616.35 370.8 621.45 369.05 626.5 366.3 628.85 371 633.45 372.5 636.95 373.65 644.75 373.5 643.65 378.05 647.45 381.45 649.7 383.45 655.55 387.9
L 660.95 387.9 Z"/>
</g>

<g id="Pasta_Itens_duplicados_S_mbolo_1_0_Layer1_3_FILL">
<path fill="#ABE2E2" stroke="none" d="
M 852.25 286.25
L 852.25 75.8 289.7 75.8 289.7 286.25 852.25 286.25 Z"/>
</g>

<g id="Pasta_Itens_duplicados_S_mbolo_1_0_Layer1_4_FILL">
<path fill="#FFFFCC" stroke="none" d="
M 784.4 390.4
L 784.4 390.35 781.55 390.8
Q 781.55 390.9 781.55 390.95
L 780 390.95
Q 778.9 395.25 781.45 399.3
L 781.55 399.2
Q 782.25 397.6 782.5 396 783 397.05 783.7 398.1 784.15 398.7 784.7 399.35
L 784.75 399.2
Q 785.2 396.65 785.05 394.25 786.5 396.15 788.95 397.4
L 789 397.3
Q 788.4 393.3 786 390.25 785.75 389.95 785.55 389.7
L 784.4 390.4
M 782.55 383.45
L 780.15 383.55
Q 779.05 383.6 778.3 384.35 778.2 384.45 778.1 384.6 777.3 385.55 777.35 386.9 777.4 388.2 778.35 389.1 779.25 390 780.5 389.95
L 782.85 389.8
Q 784.1 389.75 784.9 388.75 785.55 388 785.65 387.05
L 785.55 387 785.35 386.1 785.55 385.75
Q 785.35 384.9 784.7 384.25 783.75 383.35 782.55 383.45
M 783.65 376.75
Q 782.6 375.8 781.15 375.85
L 778.45 376
Q 777 376.05 776.05 377.15 775.3 378 775.2 379.05
L 775.25 380
Q 775.4 381.15 776.3 381.95 777.4 382.9 778.8 382.85
L 781.55 382.7
Q 781.8 382.7 782.05 382.65 783.15 382.45 783.9 381.6 784.6 380.75 784.75 379.75
L 784.6 379.65 784.55 378.8 784.7 378.6
Q 784.5 377.5 783.65 376.75
M 784.25 371.1
L 783.9 371.05 784.25 371.3
Q 784.25 371.2 784.25 371.1
M 784.2 370.7
Q 784.2 370.65 784.2 370.55
L 784 370.65 784.2 370.7
M 784.1 370.1
Q 784.1 370.05 784.05 369.95
L 783.85 370.2 784.1 370.1
M 776.15 367.65
Q 774.9 367.7 774.1 368.9 773.3 370.05 773.4 371.65 773.5 373.2 774.4 374.25 775.35 375.35 776.6 375.25
L 781.45 375
Q 782.7 374.9 783.5 373.75 784.1 372.85 784.2 371.7
L 783.6 371.25 783.55 370.15 783.95 369.65
Q 783.7 368.9 783.15 368.35 782.25 367.3 781 367.35
L 776.15 367.65
M 775.15 358.2
Q 774.9 358.2 774.65 358.25 773.6 358.45 772.85 359.5 771.95 360.75 772 362.55 772 364.3 773.05 365.5 774.05 366.7 775.4 366.65
L 780.3 366.5
Q 781.65 366.5 782.55 365.2 783.5 363.95 783.5 362.2 783.45 360.4 782.4 359.2 781.4 358 780.05 358.05
L 775.15 358.2
M 770.65 353.2
L 771.65 353.4 770.65 352.5
Q 770.6 352.7 770.6 352.85 770.6 353.05 770.65 353.2
M 770.65 353.7
Q 770.7 354 770.8 354.25
L 771.55 353.9 770.65 353.7
M 771.15 355.25
L 771.7 354.5 770.95 354.8
Q 771.05 355.05 771.15 355.25
M 784 353.75
Q 784.05 353.45 784.05 353.15
L 783.25 353.55 784 353.75
M 783.1 354.1
L 783.8 354.65
Q 783.85 354.4 783.95 354.2
L 783.1 354.1
M 784.05 352.6
Q 784.05 352.15 783.95 351.75
L 783.1 353 784.05 352.6
M 783.9 351.4
Q 783.6 350.45 783 349.7 782 348.35 780.55 348.35
L 774.15 348.35
Q 772.7 348.35 771.65 349.7 770.9 350.65 770.7 351.9 770.65 352 770.65 352.1
L 772.1 353.05 772.15 354.6 771.3 355.6
Q 771.45 355.85 771.65 356.05 772.7 357.4 774.15 357.4
L 780.55 357.4
Q 781.8 357.4 782.7 356.45 782.85 356.25 783 356.05 783.4 355.6 783.65 355.05
L 782.7 354.4 782.65 352.9 783.9 351.4 Z"/>

<path fill="#295454" stroke="none" d="
M 777.5 388.05
L 777.3 387.2 774.25 385.85 777.1 387.4 772.65 387.5 777.05 387.75 773.1 390.65 777.2 388.05 775.6 391.3 777.5 388.05
M 785.55 385.75
L 785.35 386.1 785.55 387 785.65 387.05 788.6 388.35 785.75 386.75 790.15 386.7 785.8 386.45 789.75 383.55 785.65 386.1 787.25 382.9 785.55 385.75
M 775.25 380
L 775.2 379.05 772.45 377.25 775 379.25 770.6 378.6 774.9 379.55 770.5 381.8 775 379.9 772.85 382.8 775.25 380
M 784.55 378.8
L 784.6 379.65 784.75 379.75 787.4 381.55 784.8 379.5 789.2 380.1 784.9 379.2 789.3 377 784.8 378.85 786.95 375.9 784.7 378.6 784.55 378.8
M 783.5 361.55
L 783.6 362.65 787.05 364.95 783.85 362.4 789.35 363.2 784 362.05 789.45 359.25 783.85 361.6 786.5 357.95 783.5 361.55
M 771.95 363
L 771.9 361.9 768.4 359.55 771.6 362.1 766.1 361.3 771.5 362.5 766 365.25 771.6 362.9 768.95 366.55 771.95 363
M 769.8 368.25
L 772.95 370.75 767.5 370 772.85 371.15 767.4 373.9 773 371.6 770.35 375.2 773.3 371.65 773.25 370.55 769.8 368.25
M 783.85 370.2
L 784.05 369.95 786.5 366.6 783.95 369.65 783.55 370.15 783.6 371.25 784.2 371.7 787.05 373.55 784.25 371.3 783.9 371.05 784.25 371.1 789.35 371.85 784.2 370.7 784 370.65 784.2 370.55 789.45 367.9 784.1 370.1 783.85 370.2
M 772.15 354.6
L 772.1 353.05 770.65 352.1 767.4 349.95 770.65 352.5 771.65 353.4 770.65 353.2 764.3 352.3 770.65 353.7 771.55 353.9 770.8 354.25 764.15 357.6 770.95 354.8 771.7 354.5 771.15 355.25 768.15 359.4 771.3 355.6 772.15 354.6
M 782.65 352.9
L 782.7 354.4 783.65 355.05 787.4 357.5 783.8 354.65 783.1 354.1 783.95 354.2 790.45 355.15 784 353.75 783.25 353.55 784.05 353.15 790.65 349.85 784.05 352.6 783.1 353 783.95 351.75 786.65 348.1 783.9 351.4 782.65 352.9 Z"/>
</g>

<g id="Pasta_Itens_duplicados_S_mbolo_1_0_Layer1_4_MEMBER_0_FILL">
<path fill="#FFFFCC" stroke="none" d="
M 393.4 236.4
Q 371 258.8 371 290.5 371 322.2 393.4 344.6 415.8 367 447.5 367
L 499.45 367
Q 531.15 367 553.55 344.6 575.95 322.2 575.95 290.5 575.95 258.8 553.55 236.4 531.15 214 499.45 214
L 447.5 214
Q 415.8 214 393.4 236.4 Z"/>
</g>

<g id="Pasta_Itens_duplicados_S_mbolo_1_0_Layer1_4_MEMBER_1_FILL">
<path fill="#FFFFCC" stroke="none" d="
M 620.95 484.95
Q 620.95 470.45 610.7 460.2 600.45 449.95 585.95 449.95
L 512 449.95
Q 497.5 449.95 487.25 460.2 477 470.45 477 484.95 477 499.45 487.25 509.7 497.5 519.95 512 519.95
L 585.95 519.95
Q 600.45 519.95 610.7 509.7 620.95 499.45 620.95 484.95 Z"/>
</g>

<g id="Pasta_Itens_duplicados_S_mbolo_1_0_Layer1_4_MEMBER_2_FILL">
<path fill="#CDCDA4" stroke="none" d="
M 780.8 309.45
Q 779.7 315.3 781 320.85 781.2 320.7 781.35 320.55 783.55 318.35 783.55 315.25 783.55 312.15 781.35 309.95 781.1 309.7 780.8 309.45
M 770.45 320.55
Q 770.65 320.7 770.8 320.9 772.1 315.15 770.6 309.8 770.5 309.85 770.45 309.95 768.25 312.15 768.25 315.25 768.25 318.35 770.45 320.55 Z"/>

<path fill="#FFFFCC" stroke="none" d="
M 775.7 307.75
Q 773.2 307.75 771.3 309.2 773.1 315.15 771.55 321.45 773.4 322.7 775.7 322.7
L 776.05 322.7
Q 778.3 322.7 780.1 321.55 778.45 315.4 779.85 308.8 778.2 307.75 776.05 307.75
L 775.7 307.75 Z"/>
</g>

<g id="Pasta_Itens_duplicados_S_mbolo_1_0_Layer1_4_MEMBER_2_MEMBER_0_FILL">
<path fill="#295454" stroke="none" d="
M 778.85 308.55
L 779.55 308.95 782.25 302.65 782.1 302.55 778.85 308.55 Z"/>
</g>

<g id="Pasta_Itens_duplicados_S_mbolo_1_0_Layer1_4_MEMBER_2_MEMBER_1_FILL">
<path fill="#295454" stroke="none" d="
M 771.85 308.9
L 772.55 308.5 769.25 302.55 769.1 302.6 771.85 308.9 Z"/>
</g>

<g id="Pasta_Itens_duplicados_S_mbolo_1_0_Layer1_4_MEMBER_3_FILL">
<path fill="#295454" stroke="none" d="
M 786.15 327.85
L 786.25 331.25 802.85 337.65 787.2 330.55 807.45 330.8 787.5 329.4 802 318.4 787.15 328.05 795.15 317.05 786.15 327.85 Z"/>
</g>

<g id="Pasta_Itens_duplicados_S_mbolo_1_0_Layer1_4_MEMBER_4_FILL">
<path fill="#295454" stroke="none" d="
M 764.35 328.65
L 750.55 323.05 764.3 329.75 748.05 334.2 764.75 330.7 753 339.1 765.6 331.1 765.15 328.3 756 320.85 764.35 328.65 Z"/>
</g>

<g id="Pasta_Itens_duplicados_S_mbolo_1_0_Layer1_4_MEMBER_5_FILL">
<path fill="#295454" stroke="none" d="
M 789.75 335.55
L 784.05 342.35 784.15 344.55 790.8 348.95 784.7 344.1 795.2 345.6 784.95 343.35 795.4 338.05 784.7 342.55 789.75 335.55 Z"/>
</g>

<g id="Pasta_Itens_duplicados_S_mbolo_1_0_Layer1_4_MEMBER_6_FILL">
<path fill="#295454" stroke="none" d="
M 762.4 338.15
L 768.45 343.05 758 341.5 768.25 343.8 757.75 349.05 768.5 344.6 763.45 351.6 769.1 344.75 769.05 342.6 762.4 338.15 Z"/>
</g>

<g id="Pasta_Itens_duplicados_S_mbolo_1_0_Layer1_5_FILL">
<path fill="#B3E6E6" stroke="none" d="
M 586.75 486.5
Q 586.45 486.15 586.15 485.8
L 584.65 486.7 584.65 486.65 580.85 487.3
Q 580.85 487.35 580.85 487.45
L 578.8 487.45
Q 577.3 493.25 580.75 498.65
L 580.85 498.5
Q 581.75 496.35 582.1 494.2 582.75 495.65 583.7 497 584.3 497.85 585 498.65
L 585.1 498.45
Q 585.7 495.1 585.5 491.85 587.45 494.45 590.75 496.1
L 590.75 495.95
Q 590 490.55 586.75 486.5
M 575.15 482.45
L 571.05 480.6 574.9 482.75 568.95 482.85 574.8 483.15 569.55 487.05 575.05 483.6 572.9 487.9 575.4 483.6 575.15 482.45
M 585 478.5
Q 583.8 477.3 582.15 477.4
L 578.95 477.6
Q 577.5 477.65 576.5 478.65 576.35 478.8 576.2 478.95 575.15 480.25 575.2 482.05 575.3 483.8 576.55 485 577.75 486.2 579.4 486.1
L 582.6 485.95
Q 584.25 485.85 585.35 484.55 586.2 483.55 586.35 482.25
L 590.2 484 586.45 481.9 592.35 481.75 586.5 481.45 591.8 477.6 586.3 481 586.3 480.95 588.45 476.75 586.2 480.5
Q 585.9 479.35 585 478.5
M 569.8 461.65
L 569.75 460.15 565.1 457.1 569.35 460.45 562.05 459.45 569.2 461 561.9 464.7 569.4 461.55 565.85 466.45 569.8 461.65
M 576.65 467.5
Q 574.75 467.55 573.5 469 572.45 470.15 572.35 471.6
L 568.65 469.1 572.05 471.85 566.2 471 571.95 472.25 566.1 475.2 572.05 472.7 569.25 476.6 572.4 472.85
Q 572.6 474.35 573.85 475.45 575.25 476.75 577.15 476.65
L 580.8 476.45
Q 581.15 476.4 581.5 476.35 582.95 476.1 583.95 474.95 584.9 473.85 585.1 472.5
L 588.6 474.85 585.2 472.1 591.05 472.95 585.35 471.75 591.2 468.8 585.2 471.25 588 467.35 585.05 470.95
Q 584.8 469.5 583.6 468.45 582.25 467.2 580.3 467.3
L 576.65 467.5
M 567.95 450.1
L 567.9 448.6 563.3 445.5 567.5 448.9 560.2 447.85 567.35 449.4 560.05 453.1 567.55 450 564 454.85 567.95 450.1
M 583.45 448.15
L 583.55 449.6 588.2 452.7 583.95 449.3 591.25 450.35 584.1 448.8 591.4 445.1 583.9 448.2 587.45 443.35 583.45 448.15
M 583 457.25
Q 581.75 455.8 580.1 455.9
L 573.6 456.3
Q 571.95 456.4 570.85 457.95 569.8 459.5 569.95 461.65 570.05 463.75 571.3 465.15 572.55 466.6 574.2 466.5
L 580.75 466.1
Q 582.4 466 583.45 464.45 584.25 463.25 584.4 461.7
L 588.2 464.25 584.45 461.2
Q 584.45 461.05 584.45 460.9
L 591.25 461.9 584.35 460.4
Q 584.35 460.3 584.35 460.2
L 591.4 456.65 584.25 459.6
Q 584.2 459.5 584.2 459.4
L 587.45 454.9 584.05 459
Q 583.7 458 583 457.25
M 572.3 443.65
Q 571.95 443.7 571.65 443.75 570.2 444.05 569.2 445.4 567.95 447.1 568.05 449.5 568.1 451.85 569.45 453.45 570.8 455.05 572.6 455
L 579.15 454.8
Q 581 454.75 582.2 453.05 583.45 451.35 583.4 449 583.35 446.65 581.95 445 580.65 443.4 578.8 443.45
L 572.3 443.65
M 582.8 432.3
Q 581.4 430.55 579.5 430.55
L 570.9 430.55
Q 569 430.55 567.6 432.3 566.6 433.6 566.3 435.25 566.3 435.4 566.3 435.55
L 561.95 432.65 566.25 436.1
Q 566.2 436.35 566.2 436.55 566.2 436.8 566.25 437.05
L 557.8 435.8 566.3 437.65
Q 566.35 438.05 566.45 438.4
L 557.6 442.9 566.65 439.15
Q 566.8 439.45 566.95 439.75
L 562.9 445.25 567.15 440.2
Q 567.35 440.5 567.6 440.85 569 442.6 570.9 442.6
L 579.5 442.6
Q 581.15 442.6 582.4 441.3 582.6 441.1 582.8 440.85 583.3 440.2 583.65 439.45
L 588.6 442.75 583.85 438.95
Q 583.95 438.65 584 438.35
L 592.75 439.6 584.1 437.75
Q 584.15 437.35 584.2 436.95
L 592.95 432.5 584.2 436.15
Q 584.15 435.6 584.05 435.1
L 587.65 430.15 583.95 434.6
Q 583.6 433.35 582.8 432.3
M 579.95 417
L 569.25 417
Q 567.15 417 565.65 418.9 564.25 420.65 564.15 423.1
L 564.15 422.75 555.25 416.85 563.4 423.35 549.4 421.3 563.1 424.35 549.1 431.4 563.45 425.45 556.65 434.8 564.25 425.65 564.2 424.6
Q 564.45 426.6 565.65 428.1 567.15 430 569.25 430
L 579.95 430
Q 582.05 430 583.55 428.1 584.4 427 584.75 425.65
L 593.25 431.25 585.1 424.75 599.1 426.8 585.4 423.8 599.4 416.7 585.05 422.65 591.85 413.35 584.85 421.75
Q 584.5 420.15 583.55 418.9 582.05 417 579.95 417
M 580.6 379.1
Q 580.25 378.75 579.9 378.45 578.4 386.3 580.2 393.7 580.4 393.45 580.6 393.25 583.55 390.35 583.55 386.15 583.55 382.05 580.6 379.1
M 564.45 369.2
L 564.25 369.3 567.85 377.65
Q 567.5 377.85 567.15 378.1 569.6 386 567.55 394.4 564.35 395 561.9 397.45 559.35 400 558.8 403.45
L 546.7 393.7 557.9 404.1 539.4 396.65 557.8 405.6 536.15 411.55 558.4 406.8 542.75 418.1 558.95 407.85
Q 559.6 410.85 561.9 413.15 565.15 416.35 569.75 416.35
L 577.25 416.35
Q 581.85 416.35 585.1 413.15 587.4 410.85 588.05 407.95
L 609.3 416.15 588.4 406.65 615.5 407 588.85 405.1 608.2 390.4 588.35 403.35 599.05 388.65 587.9 402
Q 587.1 399.45 585.1 397.45 582.45 394.8 578.9 394.3 576.8 386.25 578.65 377.55 578.5 377.45 578.35 377.4
L 581.85 369.35 581.65 369.25 577.45 376.95
Q 575.65 376.2 573.55 376.2
L 573.1 376.2
Q 570.7 376.2 568.75 377.15
L 564.45 369.2
M 566 379.1
Q 563.1 382.05 563.1 386.15 563.1 390.35 566 393.25 566.3 393.5 566.55 393.75 568.2 386.1 566.25 378.9 566.15 379 566 379.1 Z"/>
</g>

<path id="Pasta_Itens_duplicados_S_mbolo_1_0_Layer1_0_1_STROKES" stroke="#00CCCC" stroke-opacity="0.3176470588235294" stroke-width="14.5" stroke-linejoin="round" stroke-linecap="round" fill="none" d="
M 848.65 601.9
L 326 601.9 326 289.9 848.65 289.9 848.65 601.9 Z"/>

<path id="Pasta_Itens_duplicados_S_mbolo_1_0_Layer1_3_1_STROKES" stroke="#00CCCC" stroke-opacity="0.3176470588235294" stroke-width="16" stroke-linejoin="round" stroke-linecap="round" fill="none" d="
M 852.25 286.25
L 289.7 286.25 289.7 75.8 852.25 75.8 852.25 286.25 Z"/>
</defs>

<g transform="matrix( 0.2756195068359375, 0, 0, 0.2756195068359375, -94.15,-37.8) ">
<mask id="Mask_Mask_1">
<g transform="matrix( 3.971099853515625, 0, 0, 3.971099853515625, -1286.3,-363.2) ">
<use xlink:href="#Mask_Pasta_Itens_duplicados_S_mbolo_1_0_1_MASK_0_FILL"/>
</g>
</mask>

<g mask="url(#Mask_Mask_1)">
<g transform="matrix( 1, 0, 0, 1, 0,0) ">
<use xlink:href="#Pasta_Itens_duplicados_S_mbolo_1_0_Layer1_0_FILL"/>

<use xlink:href="#Pasta_Itens_duplicados_S_mbolo_1_0_Layer1_0_1_STROKES"/>
</g>

<g transform="matrix( 1, 0, 0, 1, 0,0) ">
<use xlink:href="#Pasta_Itens_duplicados_S_mbolo_1_0_Layer1_1_FILL"/>
</g>

<g transform="matrix( 0.2798919677734375, 0, 0, 0.2798919677734375, 346.7,287.5) ">
<use xlink:href="#Pasta_Itens_duplicados_S_mbolo_1_0_Layer1_1_MEMBER_0_FILL"/>
</g>

<g transform="matrix( 0.2798919677734375, 0, 0, 0.358917236328125, 327.65,230.1) ">
<use xlink:href="#Pasta_Itens_duplicados_S_mbolo_1_0_Layer1_1_MEMBER_1_FILL"/>
</g>

<g transform="matrix( 1, 0, 0, 1, 0,0) ">
<use xlink:href="#Pasta_Itens_duplicados_S_mbolo_1_0_Layer1_1_MEMBER_2_FILL"/>
</g>

<g transform="matrix( 1, 0, 0, 1, 0,0) ">
<use xlink:href="#Pasta_Itens_duplicados_S_mbolo_1_0_Layer1_1_MEMBER_2_MEMBER_0_FILL"/>
</g>

<g transform="matrix( 1, 0, 0, 1, 0,0) ">
<use xlink:href="#Pasta_Itens_duplicados_S_mbolo_1_0_Layer1_1_MEMBER_2_MEMBER_1_FILL"/>
</g>

<g transform="matrix( 1, 0, 0, 1, 0,0) ">
<use xlink:href="#Pasta_Itens_duplicados_S_mbolo_1_0_Layer1_1_MEMBER_3_FILL"/>
</g>

<g transform="matrix( 1, 0, 0, 1, 0,0) ">
<use xlink:href="#Pasta_Itens_duplicados_S_mbolo_1_0_Layer1_1_MEMBER_4_FILL"/>
</g>

<g transform="matrix( 1, 0, 0, 1, 0,0) ">
<use xlink:href="#Pasta_Itens_duplicados_S_mbolo_1_0_Layer1_1_MEMBER_5_FILL"/>
</g>

<g transform="matrix( 1, 0, 0, 1, 0,0) ">
<use xlink:href="#Pasta_Itens_duplicados_S_mbolo_1_0_Layer1_1_MEMBER_6_FILL"/>
</g>

<g transform="matrix( 1, 0, 0, 1, 0,0) ">
<use xlink:href="#Pasta_Itens_duplicados_S_mbolo_1_0_Layer1_2_FILL"/>
</g>

<g transform="matrix( 1, 0, 0, 1, 0,0) ">
<use xlink:href="#Pasta_Itens_duplicados_S_mbolo_1_0_Layer1_3_FILL"/>

<use xlink:href="#Pasta_Itens_duplicados_S_mbolo_1_0_Layer1_3_1_STROKES"/>
</g>

<g transform="matrix( 1, 0, 0, 1, 0,0) ">
<use xlink:href="#Pasta_Itens_duplicados_S_mbolo_1_0_Layer1_4_FILL"/>
</g>

<g transform="matrix( 0.1083984375, 0, 0, 0.1083984375, 724.7,298) ">
<use xlink:href="#Pasta_Itens_duplicados_S_mbolo_1_0_Layer1_4_MEMBER_0_FILL"/>
</g>

<g transform="matrix( 0.1083984375, 0, 0, 0.1389617919921875, 717.2,275.75) ">
<use xlink:href="#Pasta_Itens_duplicados_S_mbolo_1_0_Layer1_4_MEMBER_1_FILL"/>
</g>

<g transform="matrix( 1, 0, 0, 1, 0,0) ">
<use xlink:href="#Pasta_Itens_duplicados_S_mbolo_1_0_Layer1_4_MEMBER_2_FILL"/>
</g>

<g transform="matrix( 1, 0, 0, 1, 0,0) ">
<use xlink:href="#Pasta_Itens_duplicados_S_mbolo_1_0_Layer1_4_MEMBER_2_MEMBER_0_FILL"/>
</g>

<g transform="matrix( 1, 0, 0, 1, 0,0) ">
<use xlink:href="#Pasta_Itens_duplicados_S_mbolo_1_0_Layer1_4_MEMBER_2_MEMBER_1_FILL"/>
</g>

<g transform="matrix( 1, 0, 0, 1, 0,0) ">
<use xlink:href="#Pasta_Itens_duplicados_S_mbolo_1_0_Layer1_4_MEMBER_3_FILL"/>
</g>

<g transform="matrix( 1, 0, 0, 1, 0,0) ">
<use xlink:href="#Pasta_Itens_duplicados_S_mbolo_1_0_Layer1_4_MEMBER_4_FILL"/>
</g>

<g transform="matrix( 1, 0, 0, 1, 0,0) ">
<use xlink:href="#Pasta_Itens_duplicados_S_mbolo_1_0_Layer1_4_MEMBER_5_FILL"/>
</g>

<g transform="matrix( 1, 0, 0, 1, 0,0) ">
<use xlink:href="#Pasta_Itens_duplicados_S_mbolo_1_0_Layer1_4_MEMBER_6_FILL"/>
</g>

<g transform="matrix( 1, 0, 0, 1, 0,0) ">
<use xlink:href="#Pasta_Itens_duplicados_S_mbolo_1_0_Layer1_5_FILL"/>
</g>
</g>
</g>
</svg>
