<svg xmlns="http://www.w3.org/2000/svg" xmlns:xlink="http://www.w3.org/1999/xlink" preserveAspectRatio="none" width="138" height="138" viewBox="0 0 138 138"><defs><linearGradient id="a" gradientUnits="userSpaceOnUse" x1="86" y1="48.963" x2="80.2" y2="79.438"><stop offset="0%" stop-color="#7E5023"/><stop offset="100%" stop-color="#DEB790"/></linearGradient><path fill="#FFF" d="M525.1 188.55q0-22.15-15.7-37.85-15.65-15.65-37.8-15.65t-37.85 15.65q-15.65 15.7-15.65 37.85 0 22.15 15.65 37.8 15.7 15.7 37.85 15.7 22.15 0 37.8-15.7 15.7-15.65 15.7-37.8z" id="b"/><g id="d"><path fill="#9CC" d="M-81.65 96.25q-6.275-1.85-9.15-.7-1.096.47-1.7 1.35-2.25 3.25 3.2 10.45 5.45 7.15 15.4 14 9.95 7 18.55 9.55 5.538 1.664 8.45.95 1.64-.4 2.45-1.55.74-1.07.65-2.6-.192-3.017-3.85-7.85-5.45-7.2-15.4-14.1-9.95-6.9-18.6-9.5M42.85-27.9q0-.05.05-.05V-28q.05-.05.05-.15l-.15.3.05-.05m-.45-17.95q-.037.12-.05.15l.15-.2q-.03.03-.1.05m-8.3 11.7l.15-.25-.1.1q-.05.1-.05.15m3.65-5.05q-.03.563.8 1.55 1 1.3 2.8 2.65 1.8 1.25 3.4 1.85 1.36.486 1.7.1l-8.7-6.15z"/><path fill="#A4DBDB" fill-opacity=".702" d="M10.05 51.45l-.45.05-1.4.2q-1.45.2-2.95.3-9.85 1.05-23 1.1h-.8q-9.2 0-16.75-.5-5.3-.35-9.8-.9-8.9-1.15-10.6-2.65-.056-.05-.1-.1l-35 46.6q2.875-1.15 9.15.7 8.65 2.6 18.6 9.5 9.95 6.9 15.4 14.1 3.658 4.833 3.85 7.85l58-77.05-4.15.8z"/><path fill="#63CCCC" fill-opacity=".969" d="M17.1 46.8q-1.923-.77-5.9-1.4-.678-.12-1.45-.25L8 44.95q-1.35-.15-2.75-.35-9.85-1-23-1.05h-.8q-9.2 0-16.75.55-5.3.25-9.8.85-6.2.8-8.9 1.75-.08.028-.15.05l-1.65 2.2q.044.05.1.1 1.7 1.5 10.6 2.65 4.5.55 9.8.9 7.55.5 16.75.5h.8q13.15-.05 23-1.1 1.4-.15 2.75-.3l1.6-.2.45-.05 4.15-.8 2.9-3.85z"/><path fill="#9CC" fill-opacity=".51" d="M51.25-39.75q.03-.054 0-.15-.07-.487-.7-1.35-1-1.2-2.8-2.5-1.85-1.4-3.45-1.95-1.25-.5-1.7-.25l-.1.05-.15.2v.05l-.05.05q-.085.52.8 1.6 1 1.3 2.85 2.65 1.8 1.3 3.3 1.85 1.5.55 1.8.1l.05-.05v-.05l.15-.25z"/><path fill="#81ADAD" d="M51.9-40.55q-.2-.15-.4-.45-1.2-1.6-3.45-3.2-2.15-1.6-4.05-2.3-.5-.15-.85-.2-1.2-.35-1.55.15-.054.035-.1.05l.9.65q.07-.02.1-.05l.1-.05q.45-.25 1.7.25 1.6.55 3.45 1.95 1.8 1.3 2.8 2.5.63.863.7 1.35l1.1.75q.107-.546-.45-1.4M37.85-39.5h.05l.05-.1.15-.05q.45-.25 1.7.25 1.6.55 3.45 1.95 1.8 1.3 2.8 2.5.775 1.06.7 1.55l-.15.25-.05.05q-.05 0-.05.05h-.05l1 .7q.063-.01.1-.05.1 0 .15-.05l.05-.05q.025-.038.05-.1.303-.572-.4-1.65-.2-.15-.4-.45-1.2-1.6-3.45-3.2-2.15-1.6-4.05-2.3-.5-.15-.85-.2-1.2-.35-1.55.15-.05.054-.1.1-.054.073-.1.15l-.05.05v.05l-.05.05.95.65q.02-.018 0-.05l.1-.1v-.15z"/></g><path fill="#FFF" d="M13.7-4.65q5-1 3.85-4.15-1.2-3.1-6.65-3.6-5.4-.45-11.85 1.95-6.45 2.4-10.2 6.35-3.8 3.9-2.6 7 1.2 3.2 5.95 2.85Q-3.05 5.4 2.8.9q5.9-4.5 10.9-5.55z" id="e"/><path fill="#FFF" d="M28.25-27.9q-3.05 3.8-4.6 6.95-1.55 3.15-.75 3.8.8.6 2.75-2.2 1.95-2.85 4.9-6.7 2.95-3.9 5.3-6.4 2.45-2.5 1.65-3.1-.8-.65-3.5 1.55-2.7 2.3-5.75 6.1z" id="f"/><path fill="#FFF" d="M-22.15 14.6q1.1 1.1 2.65 1.1 1.55 0 2.65-1.1 1.1-1.1 1.1-2.65 0-1.55-1.1-2.65-1.1-1.1-2.65-1.1-1.55 0-2.65 1.1-1.1 1.1-1.1 2.65 0 1.55 1.1 2.65z" id="g"/><g id="h"><path fill="#81ADAD" d="M51.1-39.45l-.05.05q-.3.45-1.8-.1t-3.3-1.85Q44.1-42.7 43.1-44q-.885-1.08-.8-1.6l.05-.05v-.05q.013-.03.05-.15l-.9-.65q-.057.082-.1.15-.35.5.35 1.55.15.3.45.7 1.25 1.6 3.45 3.2t4.1 2.25q.35.1.6.25 1.3.3 1.7-.2l.1-.1.1-.1q.103-.154.1-.35l-1.1-.75q.03.096 0 .15l-.15.25v.05m-14.3-.35q-.05.05-.05.1-.05.35 0 .45.25.55.4.8.05.05.05.1.2.35.45.65 1.3 1.65 3.5 3.25t4.05 2.25q.3.1.55.2.6.1 1 .1.306 0 .7-.45l-1-.7q-.34.386-1.7-.1-1.6-.6-3.4-1.85-1.8-1.35-2.8-2.65-.83-.987-.8-1.55l-.95-.65v.05z"/><path fill="#9CC" d="M36.85-39.95l.05-.05q.046-.077.1-.15.05-.046.1-.1.35-.5 1.55-.15.35.05.85.2 1.9.7 4.05 2.3 2.25 1.6 3.45 3.2.2.3.4.45.703 1.078.4 1.65 2.052-1.345 3.15-3.35.7-1.2 1.1-2.65-.4.5-1.7.2-.25-.15-.6-.25-1.9-.65-4.1-2.25-2.2-1.6-3.45-3.2-.3-.4-.45-.7-.7-1.05-.35-1.55-1.25.8-2.25 1.8-1.635 1.933-2.3 4.6m1.05.45h-.05v.15l-.1.1q.02.032 0 .05l8.7 6.15h.05q0-.05.05-.05l.05-.05.15-.25q.075-.49-.7-1.55-1-1.2-2.8-2.5-1.85-1.4-3.45-1.95-1.25-.5-1.7-.25l-.15.05-.05.1z"/><path fill="#C0CCC7" d="M37.65-37.7q-.25-.3-.45-.65 0-.05-.05-.1-.15-.25-.4-.8.15.55.05.65-12.25 7.9-16.95 18.85-2.9 4.8-6.7 4.3-.5.05-11.65 1.55-11.4 1.55-20.6 12.75-.1.05-.15.2-.5.6-1.05 1.3-.1.05-.15.15-.15.15-.2.4l-.05-.05L-54 46.7q2.7-.95 8.9-1.75 4.5-.6 9.8-.85 7.55-.55 16.75-.55h.8q13.15.05 23 1.05 1.5.15 2.95.35.825.1 1.55.2.772.13 1.45.25 3.977.63 5.9 1.4.092.026.15.05l8.8-12.1-.05-.05q.15-.1.25-.3.1-.1.15-.2.05-.1.1-.25v-.1Q37.35 25 31.7-2.8q-.6-5.7 5.15-10.85 5.75-5.2 9.9-18.25-.4 0-1-.1-.25-.1-.55-.2-1.85-.65-4.05-2.25-2.2-1.6-3.5-3.25m-3.4 3.3l-.15.25q0-.05.05-.15l.1-.1m8.65 6.45q-.05 0-.05.05l-.05.05.15-.3q0 .1-.05.15v.05z"/></g><path fill="#FFF" fill-opacity=".588" d="M612.9 449.25q-.2-1.7-.65-3h-1.5q-.25.75-.45.55-.05.15-.05 3.2 0 3.05.2 3.15.2.05 1.3.1l1-1q.35-1.05.15-3z" id="i"/><path fill="#FFF" fill-opacity=".588" d="M612.9 465.25q-.2-1.7-.65-3h-1.5q-.25.75-.45.55-.05.15-.05 3.2 0 3.05.2 3.15.2.05 1.3.1l1-1q.35-1.05.15-3z" id="j"/><path fill="#FFF" fill-opacity=".588" d="M626.9 457.25q-.2-1.7-.65-3h-1.5q-.25.75-.45.55-.05.15-.05 3.2 0 3.05.2 3.15.2.05 1.3.1l1-1q.35-1.05.15-3z" id="k"/><path fill="#FFF" fill-opacity=".588" d="M642.9 467.25q-.2-1.7-.65-3h-1.5q-.25.75-.45.55-.05.15-.05 3.2 0 3.05.2 3.15.2.05 1.3.1l1-1q.35-1.05.15-3z" id="l"/><path fill="#FFF" fill-opacity=".588" d="M666.9 461.25q-.2-1.7-.65-3h-1.5q-.25.75-.45.55-.05.15-.05 3.2 0 3.05.2 3.15.2.05 1.3.1l1-1q.35-1.05.15-3z" id="m"/><path fill="#FFF" fill-opacity=".588" d="M618.9 471.25q-.2-1.7-.65-3h-1.5q-.25.75-.45.55-.05.15-.05 3.2 0 3.05.2 3.15.2.05 1.3.1l1-1q.35-1.05.15-3z" id="n"/><path fill="#FFF" fill-opacity=".588" d="M626.9 467.25q-.2-1.7-.65-3h-1.5q-.25.75-.45.55-.05.15-.05 3.2 0 3.05.2 3.15.2.05 1.3.1l1-1q.35-1.05.15-3z" id="o"/><path fill="#FFF" fill-opacity=".588" d="M630.9 473.25q-.2-1.7-.65-3h-1.5q-.25.75-.45.55-.05.15-.05 3.2 0 3.05.2 3.15.2.05 1.3.1l1-1q.35-1.05.15-3z" id="p"/><path fill="#FFF" fill-opacity=".588" d="M652.9 477.25q-.2-1.7-.65-3h-1.5q-.25.75-.45.55-.05.15-.05 3.2 0 3.05.2 3.15.2.05 1.3.1l1-1q.35-1.05.15-3z" id="q"/><path fill="#FFF" fill-opacity=".588" d="M672.9 471.25q-.2-1.7-.65-3h-1.5q-.25.75-.45.55-.05.15-.05 3.2 0 3.05.2 3.15.2.05 1.3.1l1-1q.35-1.05.15-3z" id="r"/><path fill="#FFF" fill-opacity=".588" d="M700.9 465.25q-.2-1.7-.65-3h-1.5q-.25.75-.45.55-.05.15-.05 3.2 0 3.05.2 3.15.2.05 1.3.1l1-1q.35-1.05.15-3z" id="s"/><path fill="#FFF" fill-opacity=".588" d="M612.9 449.25q-.2-1.7-.65-3h-1.5q-.25.75-.45.55-.05.15-.05 3.2 0 3.05.2 3.15.2.05 1.3.1l1-1q.35-1.05.15-3z" id="t"/><path fill="#FFF" fill-opacity=".588" d="M612.9 449.25q-.2-1.7-.65-3h-1.5q-.25.75-.45.55-.05.15-.05 3.2 0 3.05.2 3.15.2.05 1.3.1l1-1q.35-1.05.15-3z" id="u"/><path fill="#FFF" fill-opacity=".588" d="M612.9 449.25q-.2-1.7-.65-3h-1.5q-.25.75-.45.55-.05.15-.05 3.2 0 3.05.2 3.15.2.05 1.3.1l1-1q.35-1.05.15-3z" id="v"/><path fill="#FFF" fill-opacity=".588" d="M612.9 449.25q-.2-1.7-.65-3h-1.5q-.25.75-.45.55-.05.15-.05 3.2 0 3.05.2 3.15.2.05 1.3.1l1-1q.35-1.05.15-3z" id="w"/><path fill="#FFF" d="M621.6 441.05q-.2-1.7-.65-3h-1.5q-.25.75-.45.55-.05.15-.05 3.2 0 3.05.2 3.15.2.05 1.3.1l1-1q.35-1.05.15-3z" id="x"/><g id="y"><path d="M62.2 85.95q.45.05.7.05 0-.05-.25-.05l-.7-.2q.11.06.25.2m.6-1.75l-.25-.1q.17.095.25.2v-.1m.1-1.95q-.1.2-.35 0 .1.2.25.2.1 0 .1-.2m-.35 0q0-.05-.1-.15-.25-.2-.35-.3h-.2q.3.1.55.4l.1.05m2.35-2.8q-.08-.114-.15-.25.054.125.1.25h.05m-.45-1q0-.1-.45-.65.3.55.3.75l.25.35q.06 0 .15.2-.05-.155-.05-.3-.1-.1-.2-.35m-2.9-2.5h-.3q.4.1.65 0h.2q-.3-.15-.55 0m4.75-.8q-.094-.094-.2-.4.1.306.1.4.1.25.3.35l.45.95q.05 0 0-.1-.1-.2-.1-.3 0-.1-.2-.25l-.1-.3q-.05-.15-.25-.35M56.35 98l.1.1q.35-.1.6-.4-.15 0-.7.3m5.1-2.3q.2.3.35.3-.15-.2-.7-.55.1.25.35.25m-1.2-.65q.2.1.45.4h.4q-.3-.1-.65-.4l-.9-.35.7.35m1.85-22.1v.1l1.55-.3h-1.1l-.45.2M65.85 68l.1-.05h-.65V68h.55m22.65 9.5l-.85.3q.3 0 .95-.3h-.1m-1.2-1.45l-.2.1q.475-.095.7-.1h-.5m-.75-1.65q-.05 0-.25.1 0 .2-.75.3-.05 0-.45.15v.1q.4-.1.45-.1.75-.25 1-.25v-.3m-1-1.45q-.05.1-.35.1.3.25.35 0 .1 0 0-.1M61.9 83.9q-.25-.05-.65-.25h-.15q.45.25.8.25m-.65-2.1h.4q-.4-.05-.45-.05 0 .05.05.05m2.3-2.45q.1 0 .65.1h.45v-.1q-.2 0-.65-.2h-.45l-.45.2h.45m.1-2v.1l.35.25q-.15-.25-.35-.35m-1.1 1.8v.2h.55q-.3-.2-.55-.2m2.75-2q0-.25-.3-.8 0-.2-.35-.55 0 .25.25.55.3.7.3 1h.1v-.2m-1.45-.25h-.2q-.1 0 0 .45l.2-.3v-.15m.6-1.75v.2q0 .05.2.45 0-.3-.1-.65h-.1m9.9-.2h.25v-.15h-.2q0 .15-.05.15m-15.2 22.2q-.05-.1-.35-.1l.3.3q.05 0 .45.2.25.15.35.25.25.2.35.35.2-.15-.15-.35-.2-.25-.4-.25-.55-.2-.55-.4m-.45-.1h.1q0-.25-.1-.25v.25m-.9.3l-.35.1-.1.1q.35-.1.45-.1v1.1l.65-.1v-1.4l-.65.1v.2m1.65-5.4l-.75.1h.75l2.1-.35h.55q-.2-.1-.3-.3-.15.2-.25.2l-2.1.35m-1.95-.55q-.05 0-.35.3.3-.1.35-.1.3-.2.4-.3-.1 0-.4.1m-.7.35v.2q.25-.2.35-.25l-.35.05m1.35-1.55l-.1 1.05-.15.05h.15v3.05q-.25.05-.6.45-.75.65-1.1 1v.2q.55-.55 1.1-.95.45-.45.6-.65v.2h.5l.15-2.55.1-1.85h-.65m1.65-2.55h.3q.45.2.6.2l-1-.35q-.15.05-.9.05l.1.1.55-.1q.1.1.25.1h.1m.45-2.1q.3-.1.45 0 .55.1.85.1-.3-.1-.75-.2-.25 0-.35-.15h-.35q0 .15.15.25m-2.8.45v.2h.35q.35-.2.75-.2.25-.05.55-.15-.3 0-.85.1-.75.05-.8.05m.05-1.7l.2.15 2-.35-.6 1.75-.95 2.2v.15l.65-.15v-.5l2.45-6.65h-.45l-.55 1.55-.7 1.65-2.05.2m2.75-1.85l-.15-.2q-.2.2-.3.2h-.25l-.75.3.75-.2q.25-.1.35-.1h.35m-1.7-2.65q.15 0 .35-.1.55 0 .8-.15h.45q.55-.1 1.1-.1h.2v-.1h-.2q-.55 0-1.1.1-.45 0-.7.1l-.75.15-.15.1m-5.4-22.3h-.1l-3.75 1.65.3.4 6.9-3.2.2-.2.8-.35.65-.1-.25-.3-2.1.95-2.65 1.15M77 69.6h-.3q-.35.05-.65.35l-.55.1q.85.15 1.5-.45m.05-.2l-.05.2q.05-.1.15-.2.2-.1.2-.2l-.3.2m-5.8 5.4q.114.114.25.15-.125-.038-.2-.15h-.05m1.45-5.15h.2q-.1-.003-.1-.05l-.1.05m.65-.45l.05-.25-.35-.2q.3.2.3.3h-.3l.3.15m2.1.45h-.4l-.1.1h.5v-.1m-1.85-.05v-.3h-.2l-.05.1v.2h.25m.2 0h.15q.1 0 .1-.2-.098.197-.25.2m1.9-.3q-.2 0-.2.1.286-.095.45-.1h-.25m-1 .3v-.2l-.1.2h.1m-2-.85v.2q.098-.197.25-.2h-.25m-1.4-6.5l.3.3q.1 0 0-.1-.2-.2-.3-.25v.05M78 64.9v-.05l-.3.05h.3m.35-.05h.1v-.2l-.1.2m-1.65.05h-.9q.55.1.65.3V65l.25-.1m2.2 0v-.05q-.2.05-.8.15-.394.197-.55.2.802 0 1.35-.3m-1.25 0h-.5q-.1 0-.15.1h.35q.094-.094.3-.1m-1.2-.25q-.098 0-.1.2h.15q-.05-.002-.05-.2m-.3 0l-.1.2h.3q-.003-.203-.2-.4v.2m-10.3 9.4v-.1h-.2q0 .1.2.2 0 .2.1.25 0-.25-.1-.35m.8-1.35l.2.05q.15.55.45.95.1 0-.1-.4-.2 0-.25-.35 0-.2-.1-.25h-.2m1.4-2.3l.15.2q.45.35.65.45-.25-.45-.8-.65m-.4-1.2q-.1-.15-.25 0-.45-.15-.55-.15 0-.1-.2-.1-.45.1-.8.25.65 0 .7-.15.1 0 .3.15.1 0 .35.1l.35-.1h.1m1.65 1.95q-.345-.098-.45-.1.104.004.35.25l.1-.15m-.35-2.2l.1.25q0 .1.15.1.2.347.2.45.002-.097.2-.15-.2.048-.2 0l-.1-.3-.25-.25v-.3l-.1.2m-3.65 3.8v-.05l-.1.05h-.9q.6.2.7.2l.3-.2M70.2 65l.4.2q.1-.35.15-.75l-.55.55m.4.65v-.1l-.65.1q-.65 0-1 .2v.05l1-.05.65-.2m-3.6 2.2l1.05-.2q.25 0 .35-.1h.45q-.2-.15-.25-.15-.3.15-.55.15l-1.5.1q.1.2.3.2H67m1.05.15h-.75l-.1.2v.1l.2-.1q.25 0 .55.1.25-.1.25.1l-.35.8h-.2l-1.15 1.95h-1.6q-.05 0-.6-.1v.1q.25 0 .6.15h1.4l-1 1.45-2 3.2h-.2q-.3 0-.45-.15-.098.148-.2.15h.1q.25.1.75.1l-.5.75-.15.1h-.45q.35.15.45.15l-1 1.5.55.15 2.25-3.55 4.5-7.15-.3-.35-.35.55q-.1 0-.25-.2M66.5 53.05q-.2 0-.2-.1.195 0 .2-.2l-2.6.75h-.05l-1.3.25v.4q-.1-.3-.1-.4l-3 .95.25.45 1-.3 7.15-2.15q-.006-.203-.2-.3l-1.15.35v.3m2.15-.65v-.25l-.8.25v.3l.75-.2.05-.1m11.05 7.2h-.25q-.098.195-.3.2h.4q.55 0 .9-.55-.35.3-.75.35m-.55-8.85l-.45.2q-.25 0-.35.1v.45h.1l.1-.2.15-.15q.1.15 0 .25v.1h.2q.25-.35.25-.75M78 43.65v.15h.1q.25-.15.25-.25h-.65v.1h.3m-5.75-5.4l.15-.45.2-.2-.9.2.05.45h.5M68.4 42.8l.25.1h.75q.2.1.25.1 0-.1.1-.1l-1.35-.1m-5.6-12.5l-.35.2.75.6 3.8 3.75v.2h.2l.1.1.75.9 2.15 1.85h.1l.45.55.2-.55-1.3-.85v-.15l-6.85-6.6m-6.75 3.4h-.35l1.75 2q0-.1.05-.2l1.65 2h.3l1.25 1.55v.1l2.2 2.1v.2l1.3 1.35.1-.45-2.5-2.8-.15.05-.55-.7-.3-.1-4.75-5.1m-3.1-5.05h-.25l1 1.85.1.15 1.35 2.4.35-.2-2.55-4.2m6.75-3.1h-.25l.45.8 1.2 2.05.8 1.35.3-.25-2.5-3.95m-7-4.65h-.55l-.55 3.45.7 3.4h.2l-.55-3.4.75-3.45m6.45-4.4l-.35.3-.55 4.1.55 2.65v.1l.3.9h.35l-.75-3.75.45-4.3m25.5 60l-.1.15q.103-.144.3-.15h-.2m0-1.55v.1q.196-.004.2-.25-.006.15-.2.15m3.95 4.95h-.1q-.2.25-.45.55-.1.25-.2.65-.2.1-.25.15v.55q.05-.35.25-.6.2-.4.35-.65.3-.3.4-.65m-2.1 0l.05-.35q0-.2.3-.45.1-.3.1-.4-.1.1-.3.2-.35.65-.15.9v.1m0-1.45v.1l.05-.1.4.25.65.65.25-.45-2.65-2.4-.35.3.25.1q-.25 0 0 .15l1.4 1.4m4.8 2.65l.1-.3-2.35-1.1-.4.4.2.05 1.2.4-.35.7q0 .2-.4.85l-.25.45v.2q.15 0 .25-.55.4-.75.55-.95 0-.05.4-.55l1.05.4m-6.75-8.05h-.35v.1q.243-.097.35-.1m-3.2-14.25q-.002.102-.15.25-.1.2-.45.5.25-.1.45-.3.15-.2.15-.45m.1-.3v.2l.35-.2q.1-.45.1-.7l-.35.1q.2.15-.1.6m-2 .65q-.094.094-.3.1h.4l.15-.2q-.15.1-.25.1m-1 .4h-.1q-.25 0-.35.05.1 0 .45.2.1-.2.25-.2 0-.05-.15 0l-.1-.05m3.65-2.4l.1-.1q-.005-.25-.3-.25l.2.25v.1m.75-7.4q-.1.2-.3.2l-.25.35h.25q.2-.2.2 0l.1-.55m-.3.2h-.1q-.25.1-.25.35.1-.2.35-.35m1.9.35h-.15q-.078 0-.3.25l.2-.15q.097-.097.25-.1m-.6.65l.05-.25q-.03.023-.05.05-.4.4-.4.55l.1-.15.3-.2m5.1 3.2l-.35-.4-2.75 1.6v.7l3.1-1.9m-2.4-.45q.1-.2.1-.55-.15.25-.15.35-.2.2-.3.35h.1q.2 0 .25-.15m1.4-1.2h-.1l-.25.55v-.3h-.3v.3q-.002-.104-.1-.3-.25.3-.55.4l1.65.35-.1-.2q-.15-.15-.25-.15v-.4-.25m-1.75-.75v-.45q-.1 0-.25.65v.35q.15-.15.15-.35l.1-.2m.9 0q.1-.25.1-.45l-.1.1q-.15 0-.45.65v.1h.2q.1-.1.25-.4m-.25-4.45l-.2-.3v-.1l2.55.3.3.1 1.45.1h.1l.65.15h.25l1.3.2h.7l-.55.2-.05.15-2.5 1.65-.15.2-1.4.8-.1.2-2 1.35-.7.2v.25l-.2-.25h-.2v-.2h-.15v.45q0 .2.15.4l8.35-5.2v-.2h-.1l.1-.1-8.35-1.35v.6h.45q.1.2.3.4m-.3 2.1l-.05-.65v.8q.05 0 .05-.15m.4-5.05L86.2 44l.3.2q.35.15.35.35.25.1.35.35h.1q-.1-.25-.35-.55M84.3 49.3q-.003.1-.1.1v.25h.1v-.35m0-.9h.15v-.1l-.15.1m-1.75.6h.2q0 .1-.45.55l-.2.5q.1 0 .2-.3.25-.2.45-.2.1 0 .1.1l.25-1q-.2 0-.55.1-.25.25-.25.35l.25-.1m-1.35.4h.15q.088-.087.3-.25-.23.162-.45.25m2.1-2.65h-.2q.1.15-.2.45-.15.2-.35.35.3-.15.3 0v.2l-.4.2h.1q.3 0 .3.05-.1.1-.3.4l.3-.1q.25 0 .25.1l.2-1.65m-4.4 6.55q-.2 0-.35-.15 0 .15-.1.25.65.3 1 0-.3 0-.55-.1m1.2-.25h.1l-.1-.55v.55m-.2.1v.25h.3v-.1q-.1-.15-.3-.15m-2.45-.2l-.1-.2v.2h.1m2.65-1.2q.1-.25.1-.35-.1.1-.1.25v.1m.65 0h-.2v.2h.2v-.2m-1.05.3v.6q.008-.264.2-.6v-.1q-.1 0-.2.1m-.55.25q.2 0 0-.15h-.05l.05.15m-.45.1l.1-.1H78.35v.1q.1 0 .1.1v.25q.1-.05.25-.35m.85-.9q-.2 0-.4.15l-.05.4q.05 0 .25-.1 0-.3.1-.3t.1-.15m-.4-.2h.4q.25-.25.25-.55h-.35q-.1.4-.3.55m.55.2l-.15.15.15.1h.2l-.1-.25h-.1m.5-.85h-.1q-.3.3-.3.65h.1q.2-.25.3-.65m1 2.3q.15-.2.25-.25l-.1-.2q-.15.25-.15.45m0 .2h.25v-.1h-.35l.1.1m.7-1.2q-.1.1-.15.35v.1q.05-.25.15-.45m-1.35-.3l.2-.15q0-.1-.2-.35 0 .15-.2.15v.1q-.15.25 0 .25h.2m1.55-1.35q-.55.3-.65.3h-.1l.45-.55q.3-.3.4-.5h-.4q-.35.1-.45.1h-.15q-.1.75-.3 1.3-.1.35-.15.55h.35v.15h.35q.3 0 .35-.15.4-.35.4-.45l-.75.45h-.1l.55-.55q-.1 0-.35.2-.1 0-.1-.1.3-.3.65-.75m-.3-6.5h-.05q.05.2-.2.4-.1 0-.1-.3l-.25.3h-.1l-.2-.2q-.1 0-.1.2h-.35v-.3l-.25.3V44l-.1-.2-.2.2q-.1 0-.1-.2l-.1-.15q0 .15-.15.15v.1q-.2.1-.2-.1l-.2.2-.25-.2-.2.1q0 .1-.15.1h-.1v-.35l-.1.15q-.25.2-.35.2v-.2q-.2 0-.3.1-.15 0-.15-.25h-.2l-.3.15v-.25l-.25.1q-.1 0-.1-.1l-.35-.2v.3h-.2v-.3q-.1.3-.15.3v-.3h-.2l-.3.2-.05-.2h-.4q-.1 0-.25-.1l-.1.1q-.1 0-.3-.1h-.6l-.4.1v-.1l-1.1-.05q.1.05 0 .05h-.25v-.05l-.75-.2h-.25q-.1 0-.1.2v.05L70.7 43l-.3-.1v.1q-.1.2-.2.2h-.6l-.3-.2h-.25q-.2 0-.65.2-.2-.2-.2-.3l-.15-.1-2.75-.25-.1.45h1l1.35.25h.1l2 .1h.3l1.75.3h.05l1.3.15q-.1.4-.1.85-.25 1.65.1 3.1l-.45.25q-.55 1 0 1.65l.1-.1q.1 0 .25.1h.45q0-.1-.05-.1l.35-.15v-.1h-.3v-.2l.2-.1v.1q.2.2.35.2l.1-.2q0-.1-.25-.1v-.25q.15.25.55.25v-.25h.35v-.1q.003.1.1.1l.15-.1h.2v-.1h.3v-.15q0-.1-.1-.3h.15v-.15l.3.05h.2q0-.05-.2-.25h.2l.35.25v-.25H76.8v-.1l-.1-.1-.25-.15h.25l.3.15h.35v-.15l-.2-.2.3.1q.25.1.35.1-.1-.1-.1-.2l.4-.2q.05 0 .25-.1v-.25l.1.1v.15l.1-.15-.2-.2q.1 0 .35.1.2.1.2 0h.2v-.1q.25.1.25 0 .2 0 .2-.15 0-.09-.1-.1.113.01.25.1l.2-.1q0-.1-.1-.3-.1 0-.25-.1h.15l.1.1.3.2h.1V46q0-.1-.1-.25H80.55v-.1h.2l.05-.3h.1q.2.3.3.2h.15v-.25h.45v-.4h.1q.2 0 .3-.1v-.45h.1l-.5-.55m.1.85q-.1 0-.1.15h-.05q-.2 0-.2.1l-.45.1v.3q-.2 0-.35-.1V45h.35l.8-.45v.1m-3.35 1.65h.25v.25l-.25-.25m1-.1q-.1 0-.2-.2h-.25l.35-.25V46l.1.2m.65-.55h-.3l.3-.1v.1m-2.75-1.3v-.15h.7q.4.7.75 1.15l-.55.4q-.35-.55-.9-1.4M77 47.3q0 .095.05 0l-.05.1-.2-.1h.2m.15-3.75v.1l.2-.1h-.2m1.4.1l.15.15v-.15h-.15m1.65.15h.15l-.15-.15v.15m.55.1q.05 0 .05-.1h-.05v.1m3.15 2.5q-.05-.1-.35-.1l-.7 5.65-.55.75.45-2.4-.2.35h-.25q.15.003.15.1.1.2-.15.4h-.1v.15q.1.1.1.2 0 .15-.1 1-.3.65-.4.8v.4q-.05.15-.35.15l-.1-.15h.1q.3 0 .3-.3-.002.1-.3.1v-.2h-.1q-.25.4-.6.4H78.1q-.1-.2-.1-.3h-.2q-.35 0-.75-.1-.35-.15-.35-.35v-.25q.1.05.3.05l.15-.05h.55l.1.05q.2-.05.2-.25v-.1l-.3-.1v-.15h.75q.1 0 .35-.1.1-.3.1-.4h-.75l.2.4h-.25q-.1-.1-.1-.3h.1q-.533-.097-.85-.25.317.145.85 0 .05-.446.25-.45-.25 0-.25-.1-.1-.2 0-.2.25.2 1.05-.1h.2v-.25h.1l-.1.2h.45q.1-.3.1-.5h.2v.3h.1v-.1q.25-.25.15-.25h-.65l-.35.05q-.25 0-.45.2 0-.246.2-.25-.2-.002-.2-.1v-.3q.65.1.9.1l.3-.1h.35q-.09.09-.2.25.11-.15.2-.15l.1-.1q.2-.35 0-.7 0-.3.2-.3.05.9 0 1.3.05.1-.2.45 0 .194.15 0l-.15.2v.05q0 .1-.1.4l.35-.1q0-.65.4-1.55h-.3l-.1.15v-.15q.3-.1.95-.75.45-.35.7-.9l-.35.35q-.35.3-.55.3h-.1l.35-.4q.485-.436.65-.6-.166.156-.65.35-.35.25-.6.25-.1.1-.3.1l.2-.1q.35-.25.8-.6.2-.1.3-.2-1.4.35-2.65-.3l-5.4 2.75q-.2.1-.2.4.1.25.4.6.25.4.35.85-.35 0-.75-.1.4.25 1 .55h.2v.1H73.6l-.2.1v-.1l-1.65-.3q0 .1-.05.2l-.3-.2.2.3h-.2l-.1-.3h-.7l.1.75 1.25-.1q.1-.1.3-.25 0 .15-.2.25l3.4.1v.25l.25-.25q.3.25.35.55.1 0 .1.1h.2v.15l.45.1q.25.3.65.45-2.3 3.95-4.05 7.8l.2.15q-.2.3-.25.65h-.2q-.1.45-.2.8-.25.55-.55.95 0 .35-.1.65l-.05.15v.2q-.55 1.35-.95 2.45v.3q-1.65 5.2-2.35 10.75.1.4.1.65.55 1.9 1.9 3.95-.25-2.5.75-3.5.35-.35.9-1.1.35-.35.55-1.25.45-.65.8-1.65-.6.55-1 .65l.1-.65q.9-.1 1.55-.75-.2 0-.55.1v.2h-.1v-.2h-.15l-.4.2h-.05q-.4.05-.65.15h-.95q.3-.35.65-.35h.55v-.1h.1q-.25-.25-.65-.25.2.15.3.15l-.1.1-.2-.1h-.1l-.25.2-.75-.1q-.9-.1-1-.25 0-.1.1-.1h.9q-.05-.2-.25-.3l-.1-.05h.35q-.05 0-.05-.4h.15q-.1-.15-.1-.25l.1-.1h.2l-.3-.2q0-.25.3-.25l.15-.1h.2l.1.1q-.3.15-.35.25h.25q.3 0 .3.2v.1l-.65.1.45.15q-.342.098-.45.1h.15q.5 0 .5.3l-.5.05h-.15q.152.003.35.3l.3-.3q.15 0 .7.3h.1q0-.2.3-.2.05 0 .05-.15.2.05.2.35.1 0 .2-.2l.25-.15h.1q0 .05-.1.35h.1q.2-.3.45-.75.1-.25.35-.25h.1q.1.1-.1.35-.15 0 0 .3.55-1.4 1.5-3.95-.4.35-1.3.55l.35-.9-1.15.15h-.3l.1-.15q.2 0 .2-.1v-.2h-.2q-.1.2-.2.2-1.25.1-1.35-.3h.1q-.1-.003-.1-.05v-.2h-.3q-.55 0-.55-.1h.3v-.1l-.1-.25h.1q0-.2.2-.2h.15q.29-.097.4-.1h-.4q-.15 0-.15-.25.05 0 .45-.1-.1 0-.1-.3l.2-.05h.15q0-.1-.15-.3h.25V68h-.1q.4.2.4.3l-.75.1v.15q.55.1.8.1.4.1 0 .3.2 0 0 .25l.2.1.2-.1.15.1q.1 0 .1-.25l.3-.1h.25q-.2.25-.25.45l-.2.2h.2q.25-.3.45-.85l.35-.55q.3 0 .3.1-.282.423-.5.7.212-.256.4-.35h.1v.1q0 .2-.3.3 0 .246-.1.25.104-.002.4-.1v-.25H76q.05-.2.15-.2v.2h.2v.25q.1-.15.1-.25.25-.2.35-.2l.2.2q0-.2.05-.4.1-.55.3-.55v.75h.1q0 .2-.1.45.75-1.35 1.35-3.9-.55.6-1 .6l-.65.1.3-.8q-.65.1-.9 0-.3 0-1.3-.3v-.05H75.8v-.4l-.3.1-.05-.1-.3.2q0-.1-.1-.1h-.1q-.15.1-.55.1-.25.2-.35.2v-.2q-.1 0-.25-.2h.15q.1 0 .65-.15h-.25l-.2-.1h-.1v-.3q.9-.1 1.1-.1-.2-.25-.45-.15l-.35-.1v-.1q-.2-.25.25-.25l.1-.2.25-.35.1-.1q.1 0 .1.1v.15q-.1.1-.1.2.65-.1.1.2-.088 0-.2.05.5 0 .5.4 0 .15-.3.15-.097.097-.2.1h.1q.4-.1.4 0v.1h-.1q.1.2.1.3v.15h.35l.2-.15q.05 0 .05.15l.3-.25q.15-.3.35 0l-.35.25q.1 0 .35-.15 0-.1.1-.1h.2v.1l-.2.15q.25-.15.35-.15l.2-.1v.1q.1 0 .35-.3.295-.197.3-.35v.15q0 .2-.3.4l-.15.25.25-.15.35-.2V64h.1l.1-.1h.1l.45-.1h.2q0 .094-.2.2l.2-.1q.05-.1.25-.25v-.2h.2l-.1.2q0 .15-.1.15v.2q-.103.233-.15.35-.01.05-.05.05V64.85q.2-.3.4-.65.35-1 .9-2.95 0-.35.1-.45v-.35q-.1 0-.35.1-.4.1-.75 0l.25-.4v-.25h-1q-.6.2-1 0v-.3q.1 0 .1-.05l.2-.1q-.298 0-.3.1h-.55q-.35 0-1-.3h.3q.243-.097.35-.1h-.1l-.25-.1v-.15h.25v-.2q0-.2.3-.2h.05v-.25h.3q-.2-.2 0-.2h.2v-.35q0-.2.15-.2v.2q0 .35-.15.35.15.1.15.2v.2h-.15l.15.05-.55.2h-.1l.4.1q.1 0 .1.1v.15h-.1q-.1-.15-.3-.15l.2.15q.1 0 .2.2h.55l.25-.35.2-.2h.15v.2q-.15.15-.15.25.15-.1.25-.35l.1-.1h.25q0 .1-.25.1.198.1.2.25.002-.152.25-.35v-.2h.1q.1 0 .1.2t-.1.35q-.3.1-.3.2.3-.1.55-.45l.5-.35v.05q0 .194.15.3-.142-.106.1-.3.1-.05.3-.05v.05q.05-.05.15-.05 0-.75.2-.75v.1q.1.1.1.25h.15v.2l-.15.2q.15 0 .25-.3-.1-.1.1-.25.2-.2.2-.4.05-.35 0-.7.05-.75.35-1.3.2-1.2.45-2.45 0-.3.3-.35h.35v-.3q.1-.25.25-.45l-.15.1-.4-.1q.2-.3.2-.45v-.1l.35-.1q-.15 0-.25-.15.55-.55.65-1.05.05-.05.05-.15h-.6q.15-.2.25-.3v-.1q.2-.25.35-.45h-.15l-.2-.1q.3-.05.65-.45v-.15l-.3.25h-.05v-.1q0-.15.35-.55h-.3v-.35-.25l.3-.1h-.35l.05-.65v-.25m-1.05 6v-.1h.25v.1h-.25m-12.8 25.65q.25 0 .15.1l-.25.4.25.25h.1q-.35.1-.35.3.1.05.25 0l.1.05v.2h-.35q-.2 0-.3.2.3-.1.3 0h.35l-.1.25-.25.1q-.3 0-.3-.1v-.1q-.05 0-.05-.25v-.1l.05-.2v-.05q0-.2.3-.2-.2-.1 0-.1l-.2-.35h.2v-.4h.1M83.55 45q0 .2.2.35.1 0 .15.3-.05.1-.35.1-.1 0-.1-.1l-.55.65h-.05v-.1q0-.2.25-.85 0-.05.1-.35l-.1.2-.65.7-.15.1v-.1l.25-.55-2.1 1.2q1.35.45 3.1-.35 0-.2.3-.2 0 .2.05.3.3 0 .3.35v.1h.1v.15h-.1l.1.1h.15v.4q0 .15.1.6l.1-.05V48l-.1.1h.1v.3h-.1q.1.25.1.35h-.1v1.3q.1-.1.3-.4v-.9q.1-.8 0-1.55-.2-.55-.55-1V46q-.1-.65-.75-1.1v-.1q-.003.1-.1.1 0 .1-.15.4l.25-.3m2.1.75h.2q-.2-.1 0-.4-.193 0-.2.35v.05M84.3 42h.15q-.25-.2-.55-.2v.1l.2.1-.2.25h.2l.2-.25m.15 0v.25q0 .1-.15.4h.25V43l.1.25.2-.05q0-.2.25-.2v.25q-.145.097-.25.1h.25q.1-.1.1 0 0 .2-.1.45v.2q.003-.103.1-.2l.3-.15q.05-.1.05 0 0 .15-.05.6-.2.3-.3.4.1 0 .3-.3.05-.1.15-.15h.2v.35q0 .098-.2.1.202.002.3.15.15.5 0 1.5.146-.293.15-.45v-.5-.55q-.25-.8-.6-1.55-.2-.25-.4-.45l-.25-.25v-.2q0-.1-.4-.35m.2 1.55h-.1v.1l.1-.1m-1.2-3.75q-.25-.2-.55-.25-1.8-.75-3.55-.3 1.55.3 2.85.75.35.25.65.45.25.15.6.35 0 .1.1 0 .35.2.75.75v-.4q.15 0 .15-.15v-.1h-.15q0 .1-.1.1v-.2q-.3-.2-.35-.25v-.1h.05l.65.15q.55.4.55.65.4.2.75 1 .094.28.1.4-.006-.656-.45-1.1 0-.3-.2-.4l-.1-.15q-.35-.45-1-.55v-.3q-.45-.15-.75-.35m-.9-.9l.2.15q.15-.15.35-.25-.25.1-.55.1m2.3.65l.65-.1v-.2l-.4.2-.25.1m1.25 3.65v.05q-.15 0-.45-.6-.35-.75-.55-1l.1.25h-.1l-.15-.35-.3-.4-.1.1q0 .2.1.3h-.35q.8.35 1.2 1 .05.25.05.45.3.35.55.8l.1.1q.1-.1.1-.25-.1-.3-.2-.45m0-.3v.3l1.5.45q0-.1-.1-.1-.2-.2-.4-.3-.15 0-.55-.05-.25-.2-.45-.3m.4-1.45h.15l-1.1-.45q-.05.15-.25 0v.15h.25q.55 0 .95.3m.8-1.45q-.1-.1-.45-.1h-.9l-1.5.25v.1l1.4-.25h.65q.15-.1.35 0h.45m-4.45-2.1v-.1q-.4.15-.65.35l.65-.25m-1.05-2.75l.4.25-.3-.35q.55-.25 1.2-.65l.45.4-.25-.55q.6-.4 1.35-.75-.8.25-1.8.9l-.3-.65.2.65q-.95.65-1.65 1l-.35-.6.05.7q-.25.3-.6.55l-.3.2-2.85.55v-.4h-.15q-.1.022-.1.1-.3.3-.35.4l-.3.15h.2q-.2.35-.35.35 0 .1-.2.2 0-.1-.1-.2l-.25-.15h-.5q-.15 0-.25.15h-.1v.1h-.65q-.9.3-1.25.65-.1 0-.3.3l-.15.05q0 .3-.2.3-5.75.25-8.2-.3v.4l.45.15.15-.15 7.25.7q0 .2.05.4 1.3-.2 2.6 0h.25q0 .448.1.45.35.35.75.7l.05.1q.55.4 1.2.55 0 .35-.55.85-.1.25-.35.25v.1l1.25.2Q77 43 77 42.9v-.1q-.3-.25-.3-.65.35-.15.65-.25.1.75.35 1.3l4.5.35h.1q-.1-.2-.4-.3-.15-.25-.45-.35-.1-.1-.35-.25-1.3-.75-3.1-1.2.1-.2.35-.3v-.25q2.4 1 3.85 2h.1q.15.1.25.35.3.1.55.3.45 0 .45.65l.05.05q.32.325.6.65.1.1.1.3.35.55.65 1.1v.1q.15.35.25.9v.1q0 .7-.1 1.7.1-.15.2-.35.2-.35.25-.75v-.05q.1 0 .1-.2-.1.2-.15.2 0-.3.05-.75-.05-.55-.05-1.2-.2.65-.3.65l-.1-.1v-.25l.2-.95q.25-.8.25-1-.05.3-.35.55l-.35.4v-.1l.65-1.4q-.2.1-.4.4l-.25.35v-.2l.25-.8q-.25.1-.25.45l-.3.2h-.25q0-.2.15-.4-.15.1-.15 0v-.55h-.1v.1q0 .45-.3.45l.3-1v-.25h-.1q0 .1-.2.25l-.05.4-.1-.2.15-1q-.05.15-.15.65l-.3.55q-.15-.2-.15-.3v-.1h-.2v-.25q-.2-.2 0-.2l.1-.1.1.3q0-.2.25-.4l.35-.35q-.35-.35-.8-.65-.35-.25-.8-.55-.1 0-.5-.05-1.35-.65-3.35-1h-.1q-.35-.3-.65-.4-.15-.1-.35 0-.3-.1-.55-.1v-.15q.2 0 .25-.3.1 0 .3-.1l.65.55.35.1-.25-.1-.55-.8.15-.1q.45-.35.85-.65.35-.25.8-.6l.75.5-.55-.5 3.2-.75.1-.1 4-.8H87.3l-.35.15-1 1.1-.3.3-1.35 1.35h-.1l-.3.35h-.05q-.3.1-.55.3h.15q.1 0 .4-.2l-.65.55.1.1q.25.2.25.3l1-1.05h.1l3.55-3.35-.35-.35-7.3 1.35v-.3q.25-.05.55-.15l.1-.3q.26-.008.6-.25m-5 1.65l.2.1h-.2v-.1m1.3.25l1-.15q-.3.25-.65.35l-.35-.2.05.45q-.15.1-.45.4-.35.25-.65.6-.25.3-.35.3v-.75q-.25-.25-.55-.45 0-.1.2-.2 0-.15.1-.15v.15l1.65-.35m3.1-5.95l.35.75q-.45.3-1 .8l-.75-.8.55.9q-.65.65-1.45 1.4l-.45-.65.35.75q-.7.8-1.45 1.55v.05l-.65-.45.45.65q-.1.1-.1.35h.3q-.2-.15 0-.35.35-.2.65-.35l.35.35-.25-.65q.25-.35.45-.6l.8.35-.55-.65q.55-.45 1.1-1.1l.85.75-.55-.95q.35-.35.6-.55l.65.2-.55-.35q.85-.55 1.55-1.3-.35.3-.7.55l-.55-.65m3.1-1v-.35q-.85.75-1.75 1.35l.55.4-.25-.4q.6-.6 1.45-1z"/><path fill="#414141" d="M60.25 56.05q.3-.25.3-.35l-.3.2q-.1.45-.35.9.2-.1.35-.75m-8.85.75q-.25-.1-.65-.1h-.1q.3.1.75.1m.55.25q.328 0 .75.15-.422-.16-.75-.3-.25-.1-.55-.1.35.1.55.25m4.5-2q0 .1.05.35.2.3.3.4h.1q-.1-.3-.2-.45-.2-.2-.25-.3m6-2.55h-.25q.25.25.25.45l.1.75q0-.75-.1-1.2m2.45-.75q-.7-.7-1.45-1v.2q.55.1 1.45.8m-.35-7.2q.1.1.1.25.328-.422.8-.75-.478.313-.9.5m28.7 5.4v-.3q-.2 0-.4.1.2 0 .4.2m-1.95-7.6l.1.65h-.1v.2q.1 0 .3-.2-.2-.2-.3-.65m.75-2.55q.3-.75.2-1h-.2q.2.25 0 1M54.8 59.05q.25-.35.7-1 .85-.8 1-1.35 0-.3.2-.55l-.2.2q-.05.05-.05.35-.4.75-1.05 1.2-.35.7-.6 1.15m-1.85-1.65l.1.1h.1q-.12-.03-.2-.1m1.1-2.55q.45.5.75.65.6.55 1 .85-.4-.55-.85-.95-.55-.35-.9-.55m6.65 0v.55q.1-.25 0-.55m3.2-1.35q.1-.35.1-.55l-.15.55h.05m-1.45.25q0 .1.1.4v-.4h-.1m.75.95h-.3q0 .35-.35.65-.1.35-.45.8.1 0 .1.2l.9-1.3q.1-.25.1-.35m5.45-1.65v-.1h-.05q-.55.75-1.05 1.2.65-.45 1.1-1.1m-2.35-.1q0 .1.2.1v-.3q-.005.2-.2.2m0 1.85v-.1l-.85 1.45h.1l.4-.65q.9-.65 1.6-1.35-1 .9-1.6 1.25.25-.25.35-.6m1.55-2.4q.1-.35.2-.75.15-1.05.15-1.6-.15.25-.25 1.1-.1.8-.3 1.25.194.097.2.3v-.3m7.2.65q-.1.1 0 .25-.35.55-.45.75.1 0 .55-.65 0-.25.2-.35.1-.1.1-.3v-.25q-.3.2-.4.55m-4 0h-.1q-.35.65-.9 1.25h.15q.1-.15.4-.45.15-.35.45-.8m.25.8q.1-.35.3-.55v-.25q-.003.1-.2.1-.15.35-.65 1v.15h.2l.35-.45m2.05-.15q-.65 1.15-.75 1.35.2 0 .8-1 .4-.65.55-1 .2-.3.4-.35h-.2l-.35.35q-.2.35-.45.65m-1.3-1.3q.2-.1.2-.25-.2.15-.3.25 0 .1-.2.3.3-.2.3-.3m1.75-2.1q-.003.11-.2.65-.2.55-.2.8v.4l.2-.1q0-.55.2-1v-.75m2.55 2.85h-.2l-.1.25v-.35q-.05.1-.05.25v.1l.15.3q0-.3.2-.55m-4.6-9.5h-.05q-.3.55-.45.7.05 0 .45-.35 0-.2.05-.35m-.45-2.2v1.1l.1.1v-.1-.65q0-.25-.1-.45m-.7 6.95l.15 1q.2.7.2 1.2.3.45.35 1.15l.1.3h.2l-.2-.3q-.1-.45-.45-2.2l-.35-1.15m-.95-5.05q0 .2-.05.45-.4 1-.55 1.2l.15.2.4-1.2q.05-.2.35-.65h-.3m-6.75-2.1q-.35.3-.45.3-.35.1-1.2.6v.1h.3l1-.6q.25-.1.35-.2v-.2m-.45-2.65q.1-.55.2-1.2-.2 1.1-.75 1.75h.2q.1-.1.35-.55m2.85 1.3l-.1.1q-.2.25-.65.9-.25.55-.25.75h.15q0-.2.2-.75.35-.45.65-1m-.85-1l-.15.15q-.3.1-.65.2-.55.55-1.1.55v.1q.25 0 .35-.1.3 0 .75-.25.35-.4.55-.4.1 0 .25-.25m4.6 3.45q0-.1.25-.45.082-.204.15-.45-.07.228-.15.35-.25.35-.35.55h.1m-1.1-.35l-.1.25h.1l.1-.25q0-.516-.1-.65.094.135 0 .65m-.55-1.55q-.2.15-.2.8v.5q.016-.643.2-1.15v-.15m.25 2.8h-.1q-.15.55-.35.95-.35 1-.65 1.1v.05h.1q.2 0 .65-1.15.25-.65.35-.95M66.2 43H66q-.15.35-.45.8.4-.45.65-.8m3.2-4.4q.55-.35.9-.7h-.1q-.25.25-.8.7m.65-2.1h.15q.2-.25.55-.7l-.7.7m-.85-.8h.1v-.2l-.1.2m-.55-.55v.1q.3-.4.75-1.1.55-.75.65-1.3-.3.55-.75 1.3-.35.65-.65 1M67 33.7h.2l.65-1.05-.85.85v.2m-2.35 2.55h.25q.3-.1 1.3-.55.75-.45.8-.65v-.2q-.35.3-.8.55-1.3.65-1.55.75v.1m-2.1-4.2q.55-.55.65-.95-.1.3-.3.4-.35.35-.35.55M60.8 36.8q.45-.65.45-.75-.35.45-1.1 1.35.4-.35.65-.6m2.85-6.85q.2-.55 0-.65-.198.445-.2 1 .006-.205.2-.35m-2.1-3.05q.35-.6.35-.8-.35.9-.7 1.2l.05.1q.2-.1.3-.5m-1.45 13q.35-.45.6-.75v-.1q-.55.5-.8.75-.2.2-.45.65-.55.15-.65.35.65-.2 1.3-.9m-1-1.4q.15-.6.35-1h-.3q-.25 1.1-1 2.05l.1.25q.55-.65.85-1.3m1.45-.7h.15l1.1-.55q1.1-.75 1-1 0 .15-1.15.8-.55.45-1.1.75m-1.85-2v.25q.45-.55.85-.9.55-.65 1-1.3-.4.4-1.1 1.2-.55.65-.75.75m-1.9 1q.25-.55.65-1.1-.1 0-.1.1-.45.6-.85 1-.35.45-.7.8.65-.35 1-.8m-1.45-5.7l-.3.4.1.15q.2-.15.2-.35.55-.65.7-1.2-.35.55-.7 1m-1.55-.45l-.1-.15q-.2.15-.75.25-.25.35-.9.55v.1h.25l.85-.35q.35-.3.65-.4m-1.3-4.55l.2.25.7-.7q.75-.65 1-1.1-.7.75-1.1 1.1-.35.25-.8.45m7.05 3.4q-.4.15-.45.25.6-.1 1.15-.45.45-.35.85-.9-.4.35-.95.7-.25.2-.6.4m-1.3-2.6q.45-.15.55-.15.65-.1.9-.1.1-.1.2-.3l-2.4.55h.75m1.2-4.2v.2q.1-.2.45-.55.35-.35.9-.8h-.1l-.6.45q-.4.35-.65.7m-3.1 1.2v.1h.45q.55-.1.65-.1l1.35-.25v-.1l-.55.1q-.1 0-1.9.25M87.3 56.4q-.1 1.05-.1 1.1h.1q0-.35.3-1.15.05-.55 0-.85 0 .4-.3.9m-1.65 1.65q.3.1.3.2l.15.65h.1v-.1q-.1-.65-.25-.75-.094-.14-.2-.15.088.01-.1.15m.2-1.35q.1-.35.1-.55l-.1.2v.35m3.35-5.75l.1-.2h-1.1v.2h.4q.05-.2.25 0h.35m1.5-.2l-.1.2.1.7q.15.1.25.65v.1l.1-.1q-.1-.65-.35-.8v-.75m0-.8l.15-.2q-.15 0-.45-.1-.35 0-.8-.1l-.1.1q.35 0 .9.3h.3m1.9-.3l.1.1q-.097-.1-.1-.2v.1m-.65-2.1h-.25l.15.1q.1 0 .1-.1m1.45.4q0-.197-.15-.2v.2q0 .05.1.15l.05-.15m-1.7-2.6h-.1q-.2.4-.3.85.3-.55.4-.85m.9.95l.35-.55q.4-.85.45-1.2-.15.65-.55 1.1-.15.35-.25.65m2.1-.65h.1q-.1-.3-.2-.3v.3q-.35.35-.55.75l.2.15v-.25q.2-.55.45-.65m-1.75-3.5q0-.15-.1-.25h-.25q.25.1.35.25M89.5 47.3l-.3-.1q-.25.45-.6.55.6-.1.9-.45m1.35.35q.2-.1.2-.25h-.1l-.25.15q-.45.45-.85.55h.2q.25 0 .8-.45m1.1.65v.1h.1l.55-.45q-.35.15-.65.35m-3.35-3.1q.25-.4.25-.65-.25.1-.35.45-.2.35-.3.65v.25h.1q.2-.55.3-.7m-4.5-7.15l.1.1h.1q-.098-.003-.2-.1m5.75 5.15q.2-.4.1-.95h-.1q0 .55-.15.75-.2.25-.5.35l.1.2q.55-.3.55-.35m-1.55-.65l-.1.1v.6q0 .1-.15.4-.1.25-.2.25v.1h.1q.1-.1.25-.2 0-.15.1-.8v-.45m-1.1-1.3q.1-.45 0-.65 0 .2-.1.65h.1m-.9-3.1h-.1q.75.35.9.35l-.15-.25-.65-.1m1.65-.9v-.1l-.45.1h.45m1.1 2.75q.15-.55.25-1.1-.65 1.7-.7 2.1h.25q0-.4.2-1m1.35-4.6l-1.45.3v.1l1.45-.1v-.3m-3.45-.15h-.1l.1.15v-.15m-.4-2.05q-.05 0-.25.65-.2.4-.2.95l.1-.1q.1-.3.1-.55l.25-.95m-.6 3.3H84.2l.75.3h.7l.3-.3m-3.65.65v.1q.242 0 .25-.35-.012.25-.25.25m.55-1.1l-.1.1q0 .25-.2.35v.3q.3-.3.3-.75z"/><path fill="#CCC" d="M61.45 79.35v.1l-.65 1.45h.45l.95-2.2-.55-.15-.2.8m-3 19.1l-.65.1-.3 1.8.65.1.3-2m0-1.4l.1-2.45h-.5l-.25 2.55.65-.1m-.3-6.85h.65v-2.15l-.65.15v2m-9.6-30.3l1.05-.35-.3-.4-1.1.4.35.35m9.25-4.75l.1.25.25.3 1.55-.55-.25-.45-1.65.45M70.3 65.9q.1-.05.3-.25l-.65.2-1.1 1.7h-.2v.1l.3.35.1.2 1.25-2.3m-.1-.9l-.25.65.65-.1v-.35l-.4-.2m-1.55-13.35v.75l2.05.1-.1-.75-1.95-.1m4.95-10.2h.2q.35-.3.55-.45l-.3.15q-.25.1-.45.3m.75-1.2h-.2v-.1l-.1.1.3.2h.25l-.25-.2m-1 .35l.05.3.2-.3q.196-.147.1-.15h.1v-.2l-.2.2-.2.15v-.15l-.05.15m-1.65-2.8l-.75.25v-.15l-.2.55.2.05.8-.25-.05-.45m1.35 2.8q.1 0 .3-.15 0-.2.05-.3v.1q.003-.102.2-.25h-.2q-.05.25-.35.45v.15m0-.45h-.25q0 .1.25.1v-.1m3 2.5h.1q.55-.5.55-.85-.65-.15-1.2-.55l-.05-.1q-.4-.35-.75-.7h-.1v.1q0 .25-.25.35h-.4q0-.1.1-.1v-.2h.3l-.4.3q.103-.003.2-.1.2-.2.45-.25-.197-.098-.25-.1h-.2l-.1-.2-.1.2v-.3q-.003.104-.15.3.15 0 0 .1v.35q-.1 0-.1.1h.65q.05.15 0 .25v.2l.05.1q-.047 0-.25.1.2-.106.2-.2l-.3.2h.1v.25q-.1 0-.35.1h.55v.15h-.4l-.15.1q.25.1.55.55.35.4.45.2 0-.1-.45-.35.25-.1.25-.3l.2.45h.65q.05-.15.35-.15h.25m-1.7-.75h.25v.1l-.25-.1m.35.1q0 .15.1.25h-.1q-.1 0-.1-.1l.1-.15m.1.35h.15l.1.2h-.1q-.15 0-.15-.2m-10.5 0l-.1.45.1.1.9.1.1-.45-.85-.2h-.15M62.45 30.5l.35-.2-.25-.25-.35-.55-.3.25.55.75m13.35 6.4q-.3-.3-.35-.4-.1.1-.3 0l.3-.1h-.4q0 .1-.1.4l-.25.6q.1-.15.25-.15h.5l.25.15q.1.1.1.2.2-.1.2-.2.15 0 .35-.35h-.2q-.1 0-.35-.15m-2 0v.15q-.4.2-.4.35.2 0 .4-.15l.6-.2q.2-.15.2-.25h.2q-.4.25-.45.45.25 0 .25-.2.2-.25.35-.25l-.15-.3h-.65q-.2.3-.2.4h-.15m.25 0l.3-.1-.2.1q-.096 0-.2.15l.1-.15m-18.9-3.85l.25.35.3.3h.35l-.55-.85-.35.2m-2.65-5.3h-.2l.4.9h.25l-.45-.55v-.35m6.95-3.2h-.35v.2l.35.8h.25l-.25-.65v-.35m24.45 50.5q-.05.3-.35.65l1.1.8h.2v.3l.35-.3-1.3-1.45m4.05 3.85h-.1l-.25.45.9.55h.1l.05.2.4-.4-1.1-.8m3.45 1.9l-.1.3.75.1-.65-.4m-9.95-21.65l-.25.4-.1.05q-.2.3-.3.5l-.05.05h-.2V60.8q-.1.1-.1.45l.1 2.2q.2-.25.2-.55l.05.1h.1q0 .2-.1.25-.05 0-.25.2v.1h.2l-.2.25h-.1l.1.1v.3h-.1q0 .1.1.25-.1.1-.1.2l-.1.2v.05h-.15q-.1.1 0 .3h.25l-.25.1v.25q0 .1.15 0-.15.3-.15.35v.1q0 .2-.1.2h-.2v.45q0 .2.2 0 0 .2.1.2v-.3l.25-.15q0-.1-.1 0h-.15l.35-.4v-.1h-.1l.1-.05v-.3h-.1q0-.15.1-.25.2-.1.2-.3l-.2-.1v-.25l.2-.2.05-.15v-.1q.1-.3.1-.4h-.15l.15-.15q.2-.1.2-.2h-.3l.1-.2q.3-.05.3-.35 0-.1-.1-.1-.186 0-.2.05.013-.06.2-.2.1-.1.1-.2v-.25q.25-.3.25-.4v-.15h-.1q0-.1.1-.2.1-.2.3-.3.05-.05 0-.05h-.3l-.1-.2q-.15 0-.25.2.25-1 .35-1.95m-.1 2.1l-.15.2q-.097.097-.1.2v-.4h.25m-.55 1.2h.1l-.15.2q.045-.18.05-.35v.15m3.1-11.75l-.05.25-.1.2q-.2.15-.3.5v.3q0 .35-.15.55-.1 1.2 0 2.3-.1 0-.1.05l.35 2.2v.2q0 .45.2.45.15.8.45 1.45.1.1.1.3h-.1l.1.15q-.1 1.55-.4 2.65-.05 0-1.35 1.95-1.45 2.2-1.75 2.2l-.05 2q.35-1.85.35-2 .25-.2.35-.5.35-.25.65-.7.2-.3.65-.65.1-.35.7-1.1.4-.45.45-.8v.15q-.05 1-.45 2.4-.35 1.35-.6 2.75-.3 1.65-.4 3.35l-.65 6.05.95-7.15q.1-.9.1-1.25.05.35.25.35l.1.45q0 .65.25.9l.3 1.95q-.2 0-.2.1.2.05 0 1-.25.65-.1.8l.4-2.1-.3-1.8q-.1-.2-.25-1 0-.2-.1-.4-.1-.45-.3-1v-.25q.2-.65.3-1.3.25-1.1.35-1.25.35-1.2.55-2.15.1.2.35.55-.25-.8-.35-1 .35-1.35.2-2.9.25.25.35.25.45.65.55.65l-.1-.25q0-.1-.15-.3-.1-.1-.1-.15-.3-.2-.3-.55l-.1.05v-.05h.1v-.3l-.25-.1q-.1-.25-.1-.45-.1-.45-.35-1.2l-.3-2.8q.65-3.55.65-4.3l-.2.15-.1.1v.05m5.4 1.8h-.45q-.25 0-.65.8l.1.2h.65l-.35.25.35.4.35.15q-.35-1 0-1.8m5.15-4.85l-.1.1h.1v.2l-.1.15H95.25q-.65-1.35.35-1.45l-.8-.1-.35 1.1m-1.6-7.2l.4 1.35.55-.15q-.45-.5-.1-1.2h-.85M80.35 69.6h-.45v.05q-.2.1-.2.4l.1.15h-.1q0 .2.1.4h-.1V71.05q0 .1.1.1v.6h.4v-.15q.35 0 .35-.2-.197-.098-.35-.1.15-.002.15-.15 0-.1-.15-.1h-.1l.1-.1v-.2q0-.1-.1-.1l-.3.1q.3-.15.4-.15v-.2q-.1 0-.1-.1l.1-.1v-.25q0-.2-.1 0l.1-.3h.15v-.05M80.1 68l.1-.05h-.1l-.2.05v.2l.3.1q-.1 0-.1.1l-.3.15q0 .2.3.1-.2.1-.3.3v.25h.4l-.3.1q-.1 0 0 .3l.3-.3q.15 0 .15-.1 0-.25-.15-.25l.25-.3q-.1-.1-.25-.1h-.1l.1-.15q.25-.2.25-.4h-.35m.25-.35h-.15q.15-.1.25-.25-.1-.2-.25-.4l-.1.4v.25l.1.3q.25 0 .15-.3m.75 9.4v-.15h-.35l-.2-.1.2-.1q.35-.25.15-.25 0-.1-.15 0h-.2q0-.1.2-.1.15-.3.05-.4h-.25v-.15q.2-.1.2-.3h-.2q-.097 0-.1.15v-.15q.1-.1 0-.35h.1q0-.1.2-.2-.2-.15-.3 0-.1 0-.1.1l-.15-.1q.15 0 .25-.15.3 0 .3-.1 0-.2-.2-.3l-.2.3q-.15-.3.2-.35l.2-.3-.2-.1q-.2 0-.35.1 0-.1.15-.1l.2-.25q0-.1-.1-.1t-.25.1v-.1q.25-.2.25-.3-.1-.15-.25 0l.15-.25q.1 0 .1-.3-.25 0-.35.2 0-.2.1-.2.25-.05.25-.15h-.35l.1-.2q.15 0 .15-.1 0-.15-.15-.15h-.3l-.1.15.1.1q-.1.2-.1.35l-.1.3q.1 0 .2.1-.1.15-.1.25 0 .2.1 0h.2q-.3.4-.2.4v.15h.2v.1q0 .3.1.3l.25-.2-.35.55q0 .1.1.1-.3.25-.3.35v.2h.2v.15h.1q-.1.2-.1.3v.15q.1 0 .25-.15l-.15.25q0 .1.25 0l-.25.3v.1l.15.05h.2l-.1.2q-.1.1.1.2 0 .25.2.25v.35l.05.2.3-.2q-.2.3-.3.4v.25h.1q0 .2-.1.2l.1.2h.2v.35q.1-.1.25-.1v.1q0 .2.1.25h.1q.25-.05.65-.05-.1-.2-.1-.3-.2 0-.3.1h-.05q0-.1.05-.1v-.25h-.05q.05-.1.05-.2-.05-.2-.35-.2 0 .2-.1.2.1-.2.1-.3l-.1-.15h-.25q0-.1.1-.2.25-.2.25-.25H80.8l.3-.1q.25-.2 0-.3m2-21v-.25q0-.1-.2-.3 0 .2-.15.4l.1.25q-.3.2-.1.25 0 .1-.45.65 0 .1.15.1-.1.1-.15.3v.35q-.1.25-.1.35l-.3.3.3.05-.4.2v.35h.1q-.1.1-.1.2v.3q-.05.05-.05.25 0 .1.05.1-.05.2-.05.25v.3q-.3.1-.4.1.1.25.2.1h.2l-.2.15q.2 0 .2.1.05 0 .05-.25.1-.1.4-.1-.3-.1-.4-.1l.1-.2q.2 0 .2-.1v-.05h-.2l.4-.5h-.4q0-.05.3-.05.1-.1.1-.3 0-.1-.1-.1t-.3.1l.3-.2q.1 0 .1-.15 0-.1-.1-.1h-.3l.3-.1q.1-.2 0-.25l.35-.4h-.1q0-.15.1-.25 0-.1-.1-.1.1-.2.1-.25 0-.3.2-.3l.1-.1q0-.248-.1-.15.1-.1 0-.2h.1q0-.2.05-.3.2-.05.2-.25h-.2q.2-.003.2-.1m2.75-8.85q0 .2-.2.35v.2q0 .2-.1.2V48q-.05.4-.25.75-.1.35-.1.9v.3q-.1 1-.1 1.8v1.4q0 .25-.15.55h.15q0 .45-.15.7 0 .4-.1.75l.1.2v.55q.15.15.15.25 0 .2-.25.2l.1.35q.15.1-.1.35.25.65.1 1.2.15 2 .6 2.65v-.35q.1-1.3.1-2.5.188-.14.1-.15h-.1v-.1q.2-.55.2-1.1v-.35-.3-.7q.1-.2 0-.3.1-.65 0-1.3.1-.35.25-.6-.15-.2-.15-.4v-.05-.4-.35q.15-1.9.15-4.2v-.1-.75-.6-.45q-.004.157-.15.45.15.25 0 .35v.55h-.1m-3.3-3.2v-.45h-.35l-.1.45.2.2v.15l.6.45q0-.15-.05-.25 0-.2-.3-.2V44m5.95-9.75h-.45l-.1.55.9.6-.35-1.15M76.35 37.4q-.2.1-.2.2.3.2.55.45v-.15q0-.3-.25-.5v-.15q-.1 0-.1.15z"/><path fill="#FFF" d="M62.8 78.7h-.6l-.95 2.2h.85l.45-1.55v-.2l.25-.45m-4.1 19.75h-.25l-.3 2 .3.1.25-2.1m.45-3.85l.1-.25-.7.25-.1 2.45h.25v-.25q.1 0 .1.25l.35-2.45m.55-6.55h-.9v2.15h.75l.15-2.15M48.65 60.1l1.1-.55h-.15l-1.05.35.1.2m11.45-4.6l-.4-.35-1.55.55.3.1.1.35 1.55-.65m11.85 17.9h-.25q.05-.1.35-.25l-.1-.1h-.2l-.15.1q-.3 0-.3.25l.3.2h-.2l-.1.1q0 .1.1.25h-.15q0 .4.05.4h-.35l.1.05q.2.1.25.3h-.9q-.1 0-.1.1.1.15 1 .25l.75.1.25-.2h.1l.2.1.1-.1q-.1 0-.3-.15 0-.1-.15-.1h-.3q-.198-.297-.35-.3h.15l.5-.05q0-.3-.5-.3h-.15q.108-.002.45-.1l-.45-.15.65-.1v-.1q0-.2-.3-.2m-.45 1.55q-.136-.036-.25-.15h.05q.075.112.2.15M72.95 68h.1v-.35h-.25q.15.2.15.3h-.15l-.2.05q0 .3.1.3-.4.1-.45.1 0 .25.15.25h.4q-.11.003-.4.1h-.15q-.2 0-.2.2h-.1l.1.25v.1h-.3q0 .1.55.1h.3v.2q0 .047.1.05l.1-.05v-.2q.15 0 .25-.1h.55l-.2-.1h-.05l-.3-.15h.3q0-.1-.3-.3l.35.2q.4-.2 0-.3-.25 0-.8-.1v-.15l.75-.1q0-.1-.4-.3m-.25.95v-.2h.25q-.152.003-.25.2m1.25-4.5h-.15q.15.2.25.2v.2q.1 0 .35-.2.4 0 .55-.1h.1l.1-.1h.3v-.15q0-.1-.1-.3h.1v-.1q0-.1-.4 0h-.1q.103-.003.2-.1-.2 0-1.1.1v.3h.1l.2.1h.25q-.55.15-.65.15m1.2-1.25q.55-.3-.1-.2 0-.1.1-.2v-.15q0-.1-.1-.1l-.1.1-.25.35-.1.2q-.45 0-.25.25v.1l.35.1q.25-.1.45.15.3 0 .3-.15 0-.4-.5-.4.112-.05.2-.05m-5.2 4.45q.25-.8.35-1.75l-1.25 2.3.25.35.65-.9m.75-15.15l-2.05-.1v.65h1.95l.1-.55m7 5q-.15 0-.15.2v.35q.15 0 .15-.35v-.2m-.7 1q-.3 0-.3.2v.2h-.25v.15l.25.1h.1q-.107.003-.35.1h-.3q.65.3 1 .3h.55v-.3h-.15q-.1-.2-.2-.2l-.2-.15q.2 0 .3.15h.1v-.15q0-.1-.1-.1l-.4-.1h.1l.55-.2-.15-.05h.15v-.2q0-.1-.15-.2h-.2q-.2 0 0 .2h-.3v.25H77m-6.05-20.45l.75-.25.05-.55-.5.15h-.3v.65m-6.65 4.3h.15l.85.2-.1-.55-.65-.1h-.1l-.15.45M62.2 29.5l.35.55.25.25.3-.35-.3-.45h-.6m-6.15 4.2l.3-.2-.45-.65h-.4l.55.85m-3.3-5.6v-.2l-.25-.15v.35l.45.55h.35l-.55-.55m6.95-3.45l-.25-.1v.35l.25.65.4-.2-.4-.45v-.25M84.55 74.7l-.65.35 1.3 1.45.65-.45-1-1h-.2v-.1l-.1-.15v-.1m3.3 4.2h.1l1.1.8.25-.25-1.1-.9-.35.35m3.55 1.9l.65.4h.3v-.4l-.75-.35-.2.35m-6.85-21.25h-.1v.05l.1-.05m-3.65 2.9h-.1v-.15q-.005.17-.05.35l.15-.2m.3-1l.15-.2h-.25v.4q.003-.103.1-.2m2.65-10.5l-.3.2q-.1.25-.1.5.1-.35.3-.5l.1-.2m5.65 3.45l.45-.25q.9-.45.45-1.45l-1.1-.2q-.35.8 0 1.8l.2.1m6.3-6.65q.55-.85-.2-1.1-1 .1-.35 1.45.35-.15.55-.35m-2-6.1h.25q.65-.85-.1-1.4l-.25.2q-.35.7.1 1.2m-8.5 7.1q-.1.2-.2.35v.3q-.248.15-.25.25-.2.3-.3.4-.1.05-.1.25-.153.003-.25.1 0 .75-.65 4.3l.3 2.8q.25.75.35 1.2 0 .2.1.45l.25.1v.3q0 .35.3.55 0 .05.1.15.15.2.15.3l.1.25q-.1 0-.55-.65-.1 0-.35-.25.15 1.55-.2 2.9.1.2.35 1-.25-.35-.35-.55-.2.95-.55 2.15-.1.15-.35 1.25-.1.65-.3 1.3v.25q.2.55.3 1 .1.2.1.4.15.8.25 1l.3 1.8-.4 2.1q-.15-.15.1-.8.2-.95 0-1 0-.1.2-.1l-.3-1.95q-.25-.25-.25-.9l-.1-.45q-.2 0-.25-.35 0 .35-.1 1.25l-.95 7.15.65-6.05q.1-1.7.4-3.35.25-1.4.6-2.75.4-1.4.45-2.4v-.15q-.05.35-.45.8-.6.75-.7 1.1-.45.35-.65.65-.3.45-.65.7-.1.3-.35.5 0 .15-.35 2l.05-2q.3 0 1.75-2.2 1.3-1.95 1.35-1.95.3-1.1.4-2.65l-.1-.15h.1q0-.2-.1-.3-.3-.65-.45-1.45-.2 0-.2-.45v-.2l-.35-2.2q0-.05.1-.05-.1-1.1 0-2.3.15-.2.15-.55-.15.2-.25.45v.3q0 .05-.1.25-.2.9-.55 2.4-.25.45-.25 1.05-.098.394-.1.65l-.1.1q0 .35-.2.65 0 .25-.1.7-.05.3-.35.65-.1.95-.35 1.95.1-.2.25-.2l.1.2h.3q.05 0 0 .05-.2.1-.3.3-.1.1-.1.2h.1v.15q0 .1-.25.4v.25q0 .1-.1.2-.187.14-.2.2.014-.05.2-.05.1 0 .1.1 0 .3-.3.35l-.1.2h.3q0 .1-.2.2l-.15.15h.15q0 .1-.1.4v.1l-.05.15-.2.2v.25l.2.1q0 .2-.2.3-.1.1-.1.25h.1v.3l-.1.05h.1v.1l-.35.4h.15q.1-.1.1 0l-.25.15v.3q-.1 0-.1-.2-.2.2-.2 0-.1.55-.1 1-.45 3.1-.25 5.1.15 3.2.65 4.75.25.55.35.95 1.75 2.75 2.55-.55.1-.1.1-.4.1-.05.1-.45.15-.15.15-.25.1-.65.1-1.1.3-.35.35-.65 0-.65.3-1.25v-.75q.75-4.1 1.1-9.6.2-1.25.25-2.55-.45-.65-.6-2.65.15-.55-.1-1.2.25-.25.1-.35l-.1-.35q.25 0 .25-.2 0-.1-.15-.25v-.55l-.1-.2q.1-.35.1-.75.15-.25.15-.7h-.15q.15-.3.15-.55v-.65-.2-.55q0-.8.1-1.8v-.3q0-.55.1-.9m-2.2 7.05v.25q0 .097-.2.1h.2q0 .2-.2.25-.05.1-.05.3h-.1q.1.1 0 .2.1-.098.1.15l-.1.1q-.2 0-.2.3 0 .05-.1.25.1 0 .1.1-.1.1-.1.25h.1l-.35.4q.1.05 0 .25l-.3.1h.3q.1 0 .1.1 0 .15-.1.15l-.3.2q.2-.1.3-.1.1 0 .1.1 0 .2-.1.3-.3 0-.3.05h.4l-.4.5h.2v.05q0 .1-.2.1l-.1.2q.1 0 .4.1-.3 0-.4.1 0 .25-.05.25 0-.1-.2-.1l.2-.15h-.2q-.1.15-.2-.1.1 0 .4-.1v-.3q0-.05.05-.25-.05 0-.05-.1 0-.2.05-.25v-.3q0-.1.1-.2h-.1v-.15-.2l.4-.2-.3-.05.3-.3q0-.1.1-.35v-.35q.05-.2.15-.3-.15 0-.15-.1.45-.55.45-.65-.2-.05.1-.25l-.1-.25q.15-.2.15-.4.2.2.2.3m-2 21.1v.15q.25.1 0 .3l-.3.1H81.45q0 .05-.25.25-.1.1-.1.2h.25l.1.15q0 .1-.1.3.1 0 .1-.2.3 0 .35.2 0 .1-.05.2h.05v.25q-.05 0-.05.1h.05q.1-.1.3-.1 0 .1.1.3-.4 0-.65.05h-.1q-.1-.05-.1-.25v-.1q-.15 0-.25.1v-.1-.25h-.2l-.1-.2q.1 0 .1-.2h-.1v-.25q.1-.1.3-.4l-.3.2-.05-.2v-.35q-.2 0-.2-.25-.2-.1-.1-.2l.1-.2h-.2l-.15-.05v-.1l.25-.3q-.25.1-.25 0l.15-.25q-.15.15-.25.15v-.15q0-.1.1-.3h-.1v-.15h-.2v-.2q0-.1.3-.35-.1 0-.1-.1l.35-.55-.25.2q-.1 0-.1-.3v-.1h-.2v-.15q-.1 0 .2-.4h-.2q-.1.2-.1 0 0-.1.1-.25-.1-.1-.2-.1l.1-.3q0-.15.1-.35l-.1-.1.1-.15h.3q.15 0 .15.15 0 .1-.15.1l-.1.2h.35q0 .1-.25.15-.1 0-.1.2.1-.2.35-.2 0 .3-.1.3l-.15.25q.15-.15.25 0 0 .1-.25.3v.1q.15-.1.25-.1t.1.1l-.2.25q-.15 0-.15.1.15-.1.35-.1l.2.1-.2.3q-.35.05-.2.35l.2-.3q.2.1.2.3 0 .1-.3.1-.1.15-.25.15l.15.1q0-.1.1-.1.1-.15.3 0-.2.1-.2.2h-.1q.1.25 0 .35v.15q.003-.15.1-.15h.2q0 .2-.2.3v.15h.25q.1.1-.05.4-.2 0-.2.1h.2q.15-.1.15 0 .2 0-.15.25l-.2.1.2.1h.35m-.9-9.25h.15q.1.3-.15.3l-.1.05h.35q0 .2-.25.4l-.1.15h.1q.15 0 .25.1l-.25.3q.15 0 .15.25 0 .1-.15.1l-.3.3h.45v.05h-.15l-.1.3q.1-.2.1 0v.25l-.1.1q0 .1.1.1v.2q-.1 0-.4.15l.3-.1q.1 0 .1.1v.2l-.1.1h.1q.15 0 .15.1 0 .148-.15.15.153.002.35.1 0 .2-.35.2v.15h-.4v-.15-.45q-.1 0-.1-.1v-.3-.15h.1q-.1-.2-.1-.4h.1l-.1-.15q0-.3.2-.4v-.05q-.1-.3 0-.3l.3-.1h-.4v-.25q.1-.2.3-.3-.3.1-.3-.1l.3-.15q0-.1.1-.1l-.3-.1V68l.2-.05h.1l-.1-.3v-.25l.1-.4q.15.2.25.4-.1.15-.25.25m-10 10.5q.1-.1-.15-.1h-.1v.4h-.2l.2.35q-.2 0 0 .1-.3 0-.3.2v.05l-.05.2v.1q0 .25.05.25v.1q0 .1.3.1l.25-.1.1-.25h-.35q0-.1-.3 0 .1-.2.3-.2h.35v-.2l-.1-.05q-.15.05-.25 0 0-.2.35-.3h-.1l-.25-.25.25-.4m13.4-33.9l-.05-.05q0-.65-.45-.65h-.55v.8q.3 0 .3.2.05.1.05.25l.3.2.25-.1q.097 0 .1-.1.17-.385.05-.55m5.35-8.55l.35-.2q-.25-1.25-.8-1.25l.35 1.15.1.3z"/><path fill="#333" d="M64.45 75.35v-.2L62.2 78.7h.6l.85-1.25v-.1q-.1-.45 0-.45h.2v.15l.8-1.25q-.2-.4-.2-.45m8.95-1q0 .15-.05.15-.3 0-.3.2h-.1q-.55-.3-.7-.3l-.3.3h.3q.15 0 .15.1.4 0 .65.25h-.1v.1h-.55q-.35 0-.65.35h.95q.25-.1.65-.15h.05l.4-.2h-.4q.2-.006.2-.2h-.2q0 .1-.05.1l-.3-.1v-.15h.35q.2 0 .2-.1 0-.3-.2-.35m-14.6 22.7h-.35v1.4h.25l.1-1.4m.65-5h-.75l-.15 2.55.7-.25.2-2.3m-.65-1.85l-.1 1.85.75-.1V90.4l.1-.2h-.75m.9-2.15v-.4q-.15 0-.25-.1l-.55.1-.1-.1v.5h.9m.4-2.75h.35l.65-1.65.55-1.85h-.4q-.05 0-.05-.05.05 0 .45.05l.45-.9h-.85l-2.45 6.65q.75 0 .9-.05l.55-1.95q-.15-.1-.15-.25m-3.65-28.6q0-.3.05-.35l-6.9 3.2h.15l6.7-2.85m1.7-1l-.65.1-.8.35q-.2.25-.2.55l1.95-.9-.3-.1m1.55-.55l.4.35.6-.1v-.25-.3l-1 .3m17 13.8v.1h.1l.2-.1-.2-.2q-.1 0-.35.2h.25m.65.25q.1-.25.1-.45H77.15q-.1.3 0 .45 0 .1-.1.2l.3-.2m-2.75 4.85v-.1q-.25.45-.45.75h-.1v.1q.35-.1.55-.75m.45-.35h-.1q-.25.7-.55 1.1h.2v.15h-.25v.1l-.4.1v.2h.1v-.2q.35-.1.55-.1h.1q0-.1.1-.1l-.1-.15q.1 0 .1-.1l.15-.35q-.15-.3 0-.3.2-.25.1-.35m-1.65-4.75l-.05.25h.05q.2-.25 0-.25m3.05.45l.05-.1h-.05v.1m-1-.65v-.1h-.1q-.188.094-.4.35.218-.277.5-.7 0-.1-.3-.1l-.35.55q-.2.55-.45.85h-.2l.2-.2q.05-.2.25-.45h-.25l-.3.1q0 .25-.1.25l-.15-.1-.2.1v.3h-.25v-.2l.05-.1h-.35q-.1.1-.25.1v.2q0 .047.1.05H72.6q.1.4 1.35.3.1 0 .2-.2h.2v.2q0 .1-.2.1l-.1.15h.3l1.15-.15.55-.1q.3-.3.65-.35-.55 0-.65.05h-.6v.1h-.5l.1-.1h.3v-.05q.15 0 .65-.3.05 0 .05-.1h.3v-.25h-.2v-.2q-.1 0-.15.2h-.55v.25q-.296.098-.4.1.1-.004.1-.25.3-.1.3-.3m-.75.65v.2h-.1l.1-.2m.8 0q0-.1.2-.1h.25q-.164.005-.45.1m-1.55.2h-.15q.152-.003.25-.2 0 .2-.1.2m1.55-5.05l.3-.1h-.35l.05.1m-.45 0q.1 0 .1.1l.3-.2h-.3l-.1.1m3.05-.35l.05-.1-.35.2q.2 0 .3-.1m-.55.25h.15l.1-.15-.25.15m.8-.55l-.1.1h.1l.1-.1h-.1m2.1-.1q.1-.002.1-.25v-.1l-.1-2.2q-.55 1.95-.9 2.95l.25 3.45q0-.45.1-1v-.45q.2-.3.3-.8v-.2q-.1-.2 0-.3h.15v-.05q0-.4.1-.65.098-.196.1-.3l-.1-.1m-1.3.5q.046.034.05.05.047-.117.15-.35-.2.2-.2.3m-.25.55v.05l.25-.05v-.3-.15q-.043.125-.45.25h-.25v.2H78v.05h-.3v-.25h-.15q-.1 0-.2.2h-.55v-.2l.25-.1q.3 0 .5-.1l.15-.25q.3-.2.3-.4v-.15q-.005.153-.3.35-.25.3-.35.3v-.1l-.2.1q-.1 0-.35.15l.2-.15v-.1h-.2q-.1 0-.1.1-.25.15-.35.15l.35-.25q-.2-.3-.35 0l-.3.25q0-.15-.05-.15l-.2.15v.4H75.15v.05q1 .3 1.3.3-.1-.2-.65-.3h.9l-.25.1v.2q.25.1.9 0h.2q.156-.003.55-.2.6-.1.8-.15m-2.85 0l.1-.2v-.2q.197.197.2.4.002-.2.1-.2 0 .198.05.2H76.05m1.1.05h.5q-.206.006-.3.1H77q.05-.1.15-.1m1.95-1.1h-.2q.193.005-.1.2-.1.2-.1.3.1-.1.2-.1.2 0 .2-.3l-.2.1q.2-.106.2-.2m.35-.35v.2l.1-.2h-.1m-10.4 5.75l-.1-.25.1-.2v.3l.25-.5-.25-.35-.1-.2-4.5 7.15h.1q.1.35.1.65l1.2-1.65q-.2-.1-.2-.2h.2v.1l.8-1.35h.2l1.2-2.3 1-1.2m-.4-16.7h-.05l-.75.2-7.15 2.15q.1.3 0 .55l2.2-.7h.3l5.4-1.75h.05v-.45m6.8.25q0 .2-.1.3h.7q-.05-.3-.35-.55l-.25.25m-4.4.3h2.75l.35-.35h.2q-.2.05-.4.35h1.1q.1-.35.4-.55l-3.4-.1q0 .1-.3.3.2-.2.2-.3l-1.25.1-.1.55H71.05m3.3-2.4q-.55.4-.4.75.4.1.75.1-.1-.45-.35-.85m5.1-.25h-.1v.2l.1-.2m.25-4.5h-.15q.15.1.25.1l-.1-.1m-4.9-2.65h-.4q.2.1.3.1l.1-.1m-2.2-5.65q0-.1.2-.35.15-.1.25-.2l-1.3.2-.05.55.9-.2m-4.55 5.2l.15.1q0 .1.2.3.45-.2.65-.2h.25l.3.2h.6q.1 0 .2-.2v-.1l.3.1.25.25v-.05q0-.2.1-.2h.25l.75.2v.05h.25q.1 0 0-.05l1.1.05v.1l.4-.1q-.2-.05-.4-.25-.05-.1-.35-.35H71.4l-.1-.1-2.25-.2h-.1l-1-.1h-.1L65.2 42l.1.55 2.75.25m.6.1l-.25-.1 1.35.1q-.1 0-.1.1-.05 0-.25-.1h-.75M63.1 29.95l-.3.35 6.85 6.6v.15l1.3.85v-.5h.3l-1.05-.9h-.15l-.75-.8h-.1l-.55-.45v-.1L67 33.7l-3.55-3.4-.35-.35m13.95 6.45v.4l2.85-.55.3-.2q.35-.25.6-.55l-2.45.55-1 .35h-.3m-1.6.1q.05.1.35.4.25.15.35.15l.3-.15q.05-.1.35-.4 0-.078.1-.1l-1.45.1m-19.1-3l-.3.2 4.75 5.1.3.1.55.7.15-.05 2.5 2.8.15-.45h.1l-.1-.25h-.15l-1.75-1.75v-.1l-.45-.65h-.2l-1.2-1.35h-.15l-.4-.4-1.45-1.35v-.25l-2.35-2.3m-3.05-4.85h-.35l2.55 4.2h.4l-.75-1.2-.1-.15-1.75-2.85m6.8-3.3l-.4.2 2.5 3.95h.45l-1.4-2.1-.05-.1-1.1-1.95m-7.35-4.45h-.05l-.75 3.45.55 3.4.25.15-.05-1.55-.2-.25-.2-1.35.45-3.85m6.7-4.4h-.3l-.45 4.3.75 3.75.25.1-.25-1.75v-.2l-.35-1.55.35-4.65M83.9 75.05l.65-.35-.35-.9q-.3.6-.3 1.25m4.75 5.05l-.05.05h.25l-.2-.05m-.6-1.65l-.1-.1-2.1-2.3-.65.45 2.65 2.4.35-.35-.15-.1m3.35 2.35l.2-.35-2-1h-.3l-.25.25 2.35 1.1m-9.95-22.1v-.2q.3-.45.1-.6-.2.15-.1.25-.1.3-.25.3l.15-.2v-.2h-.15q0 .1-.1.4v.35h.1q0 .25-.75.45-.35.55-.9.55h-.4q.202-.005.3-.2h-.35q0-.05.7-.35h.3l.1-.1q.15-.1.15-.25.1-.2.2-.2h.2q-.2.1-.2.35.2 0 .35-.6-.1 0-.15.05v-.05q-.2 0-.3.05-.242.194-.1.3-.15-.106-.15-.3v-.05l-.5.35q-.25.35-.55.45 0-.1.3-.2.1-.15.1-.35 0-.2-.1-.2h-.1v.2q-.248.198-.25.35-.002-.15-.2-.25.25 0 .25-.1h-.25l-.1.1q-.1.25-.25.35 0-.1.15-.25v-.2h-.15l-.2.2-.25.35h-.4v.3q.002-.1.3-.1l-.2.1q0 .05-.1.05v.3q.4.2 1 0h1q.2-.1.5-.1l.25-.2q.2 0 .3-.05.35-.3.45-.5.148-.148.15-.25 0 .25-.15.45v.3l.25-.4q.3-.35.35-.65l-.35.2m-3.1.85h.1l.1.05q.15-.05.15 0-.15 0-.25.2-.35-.2-.45-.2.1-.05.35-.05m.8-.3q.206-.006.3-.1.1 0 .25-.1l-.15.2h-.4m3.4-3.9l-.45.15q-.3.55-.35 1.3h.15q.3-.1.4-.4 0-.6.25-1.05m.65-2.65h-.35q-.3.05-.3.35l.55-.1q.1-.2.1-.25m.25-1.05l-.35-.15q0 .15-.2.45l.4.1.15-.1v-.3m6.05 2.75l-.2-.1-.35-.15-3.1 1.9v.3l.1-.2q0 .2-.1.55l1.75-1.2 1.9-1.1m-2.85-2.35l-.55-.1q0 .2-.15.35h.15v.2h.2l.2.25v-.25l.7-.2-.35-.15h-.2v-.1m8.15-3.65q.2 0 .25-.3h-.7l.1-.15-8.35 5.2q-.15.25-.25.6.35-.05.65-.25 0-.1.15-.35.3-.1.55-.4.098.196.1.3v-.3h.3v.3l.25-.55h.1v.65q.1 0 .25.15.4-.8.65-.8l-.65-.2q1.1-.65 2.4-1.35l.1-.2v-.1q.9-.35 1.9-1v-.1q1-.55 2.2-1.15m-8.25-2.65l-.45-.1v.65l8.35 1.35.35-1.1h-.55l-.2-.15-1.45-.1-1.3-.1-3-.3h-.1l-1.65-.15m-3 3.25l.2.1h.15q-.15.2-.35.45v.1q-.1.1-.25.3h.6v-.3l.2-.1q.1-.25 0-.55.1-.25.1-.45-.35.4-.65.45m.65-.6V48q-.35.4-.35.55v.1h.05l.3-.25m.35-.3l.1-.1v-.05l-.1.05v.1m.1 0h-.1v.3h.1v-.3m-.75-.7v.6h.3q0-.05-.1-.25l.1-.35v-.1l-.3.1m.4 2.25h-.1v.1l.1-.1m0-.55l-.1.3q.097 0 .1-.1v-.2m.15-.7h-.15v.35q.002-.104.15-.35m0-.1V48q0-.05-.15-.25v.65l.15-.1m-1.35-1.55h-.2q-.15.15-.35.25l-.25.2v-.3l-.1.3q-.1.1-.3.2-.45.35-.8.6l-.2.1q.2 0 .3-.1.25 0 .6-.25.484-.194.65-.35-.165.164-.65.6l-.35.4h.1q.2 0 .55-.3l.35-.35q-.25.55-.7.9-.65.65-.95.75v.15l.1-.15h.3q.22-.088.45-.25-.213.163-.3.25h-.15q-.4.9-.4 1.55l-.35.1q.1-.3.1-.4v-.05l.15-.2q-.15.194-.15 0 .25-.35.2-.45.05-.4 0-1.3-.2 0-.2.3.2.35 0 .7l-.1.1q-.09 0-.2.15.11-.16.2-.25h-.35l-.3.1q-.25 0-.9-.1v.3q0 .098.2.1-.2.004-.2.25.2-.2.45-.2l.35-.05h.65q.1 0-.15.25v.1h-.1v-.3h-.2q0 .2-.1.5h-.45v.05h-.2q-.8.3-1.05.1-.1 0 0 .2 0 .1.25.1.1-.1.35-.1l.45-.2q0 .4-.25.75h-.2v-.1q.1-.1 0-.25l-.15.15-.1.2h-.1v-.45q-.2.004-.25.45-.533.145-.85 0 .317.153.85.25H78q0 .2.1.3h.25l-.2-.4h.75q0 .1-.1.4-.25.1-.35.1h-.75v.15l.3.1v.1q0 .2-.2.25l-.1-.05h-.55l-.15.05q-.2 0-.3-.05v.25q0 .2.35.35.4.1.75.1h.2q0 .1.1.3h2.65q.35 0 .6-.4h.1v.2q.298 0 .3-.1 0 .3-.3.3h-.1l.1.15q.3 0 .35-.15v-.4q.1-.15.4-.8.1-.85.1-1 0-.1-.1-.2v-.15h.1q.25-.2.15-.4 0-.097-.15-.1h.25l.2-.35q0-.2-.2 0h-.25l.25-.35q-.25.15-.35.35 0-.25.25-.35h.1q.2 0 .3-.2v-.1q0-.1-.1-.1-.2 0-.45.2-.1.3-.2.3l.2-.5q.45-.45.45-.55h-.2l-.25.1q0-.1.25-.35.35-.1.55-.1v-.25q0-.1-.25-.1l-.3.1q.2-.3.3-.4 0-.05-.3-.05h-.1l.4-.2v-.2q0-.15-.3 0 .2-.15.35-.35.3-.3.2-.45m-1.65 3.85q.1 0 .65-.3-.35.45-.65.75 0 .1.1.1.25-.2.35-.2l-.55.55h.1l.75-.45q0 .1-.4.45-.05.15-.35.15h-.35v-.15h-.35l-.2.15h-.2q-.15 0 0-.25v-.1q.2 0 .2-.15.2.25.2.35.05-.2.15-.55.2-.55.3-1.3h.15q.1 0 .45-.1h.4q-.1.2-.4.5l-.45.55h.1m.3 1.7q.05-.25.15-.35-.1.2-.15.45v-.1m-.3.85h-.25l-.1-.1h.35v.1m0-.45q-.1.05-.25.25 0-.2.15-.45l.1.2m-1.35-2.05h.1q-.1.4-.3.65h-.1q0-.35.3-.65m-.55 1l.15-.15h.1l.1.25h-.2l-.15-.1m0-.35h-.4q.2-.15.3-.55h.35q0 .3-.25.55m-.4.35q.2-.15.4-.15 0 .15-.1.15t-.1.3q-.2.1-.25.1l.05-.4m-.35.65l-.1.1q-.15.3-.25.35v-.25q0-.1-.1-.1v-.1H78.8m.35-.15q.2.15 0 .15l-.05-.15h.05m.55.25v-.35q.1-.1.2-.1v.1q-.192.336-.2.6v-.25m.85-.65h.2v.2h-.2v-.2m-.35-.35q0 .1-.1.35v-.1q0-.15.1-.25m-2.85 1.35l.1.2h-.1v-.2m2.55.65v-.25q.2 0 .3.15v.1h-.3m.3-.35h-.1v-.55l.1.55m-1.65.1q.15.15.35.15.25.1.55.1-.35.3-1 0 .1-.1.1-.25m-1.5-5.85q-.05.095-.05 0h-.2l.2.1.05-.1m2.85-1.65h.3v-.1l-.3.1m-.55.35q.1.2.2.2l-.1-.2v-.25l-.35.25h.25m-.55.3h-.25l.25.25v-.25m2.3-1V45h-.35v.2q.15.1.35.1m.7-.5q0-.15.1-.15v-.1l-.8.45.45-.1q0-.1.2-.1h.05m1.1 0l-.6-.45h-.1v.45q-.1.1-.3.1h-.1v.4h-.45v.25h-.15q-.1.1-.3-.2h-.1l-.05.3h-.2v.1H80.1q.1.15.1.25v.2h-.1l-.3-.2q.1.2.1.3l-.2.1q-.137-.09-.25-.1.1.01.1.1 0 .15-.2.15 0 .1-.25 0v.1h-.2q0 .1-.2 0-.25-.1-.35-.1l.2.2-.1.15v-.15l-.1-.1v.25q-.2.1-.25.1l-.4.2q0 .1.1.2-.1 0-.35-.1l-.3-.1.2.2v.15H77l-.3-.15h-.25l.25.15.1.1v.1H76.35V48l-.35-.25h-.2q.2.2.2.25h-.2l-.3-.05v.15h-.15q.1.2.1.3v.15h-.3v.1h-.2l-.15.1q-.097 0-.1-.1v.1h-.35V49q-.4 0-.55-.25V49q.25 0 .25.1l-.1.2q-.15 0-.35-.2V49l-.2.1v.2h.3v.1l-.35.15q.05 0 .05.1h-.45q-.15-.1-.25-.1l-.1.1q.45.65 1.35.4 0-.3.2-.4l5.4-2.75.9-.35 2.1-1.2.55-.15.1-.2-.3-.2m-.6-.45v-.15l-.2-.2.1-.45-4.5-.35h-.65L75.8 43q-.35.2-1 .25.15.1.25.1h.4l.05.2.3-.2h.2v.3q.05 0 .15-.3v.3h.2v-.3l.35.2q0 .1.1.1l.25-.1v.25l.3-.15h.2q0 .25.15.25.1-.1.3-.1v-.15h-.3v-.1h.65q0 .1-.25.25H78v.2q.1 0 .35-.2l.1-.15V44h.1q.15 0 .15-.1l.2-.1.25.2.2-.2q0 .2.2.1v-.1q.15 0 .15-.15l.1.15q0 .2.1.2l.2-.2.1.2v.2l.25-.3v.3h.35q0-.2.1-.2l.2.2h.1l.25-.3q0 .3.1.3.25-.2.2-.4h.05l.5.55m-1.5-.55q0 .1-.05.1v-.1h.05m-.45 0h-.15v-.15l.15.15m-1.65 0l-.15-.15h.15v.15m-1.55-.15v-.1h.2l-.2.1m5.7 8.65v.1h.25v-.1h-.25m1.05-6q-.05-.1-.05-.3-.3 0-.3.2v.1q.3 0 .35.1v.25l-.05.65h.35V47h.1l-.1-.1h.1v-.15h-.1v-.1q0-.35-.3-.35m1.95-.95v-.05q0-.1-.2-.3v.7q.007-.35.2-.35m-2.75-3q-.2 0 0 .2v.25h.2v.1q0 .1.15.3l.3-.55q.1-.5.15-.65l-.15 1 .1.2.05-.4q.2-.15.2-.25h.1v.25l-.3 1q.3 0 .3-.45v-.1h.1v.55q0 .1.15 0-.15.2-.15.4h.25l.3-.2q0-.35.25-.45l-.25.8v.2l.25-.35q.2-.3.4-.4l-.65 1.4v.1l.35-.4q.3-.25.35-.55 0 .2-.25 1l-.2.95v.25l.1.1q.1 0 .3-.65v-.25l.05-.1q0-.3-.05-.45.05-.55.15-.55.2-.002.2-.1v-.35h-.2q-.1.05-.15.15-.2.3-.3.3.1-.1.3-.4.05-.45.05-.6 0-.1-.05 0l-.3.15q-.097.097-.1.2v-.2q.1-.25.1-.45 0-.1-.1 0h-.25q.105-.003.25-.1V43q-.25 0-.25.2l-.2.05-.1-.25v-.35h-.25q.15-.3.15-.4V42h-.15l-.2.25h-.2l.2-.25-.2-.1v-.1l-.35.35q-.25.2-.25.4l-.1-.3-.1.1m1.45 1.2h.1l-.1.1v-.1m2.55-2.3l-.45.2h-.15l-1 .1q.444.444.45 1.1-.006-.12-.1-.4-.35-.8-.75-1 0-.25-.55-.65l-.65-.15h-.05v.1q.05.05.35.25v.2q.1 0 .1-.1h.15v.1q0 .15-.15.15v.4h.35q-.1-.1-.1-.3l.1-.1.3.4.15.35h.1l-.1-.25q.2.25.55 1 .3.6.45.6v-.35l2.1-.25.1-.1 1.55-.3h.1l1.35-.1V42l1.3-.1h.25l.4-.1-.4-1.35-3 .35v.1l-1 .1h-.25l-1.4.25h-.1m-5.9-5.85l-.1.3q-.3.1-.55.15v.3l7.3-1.35.35.35-3.55 3.35h-.1l-1 1.05q.55.25.75.45l.55-.45.25-.1 1.1-1.3h.1l1-.9h.2l1.45-1.45v-.1l-.1-.3-.9-.6.1-.55-1.85.45-.1.1-3.9.6h-1M77 36.9l-.2-.1v.1h.2z"/><path fill="#D0D0D0" d="M74.4 75.35q.2 0 .2-.3-.65.65-1.55.75l-.1.65q.4-.1 1-.65.2 0 .45-.45m1.1-5.3l-.35.9q.9-.2 1.3-.55.35-.2.7-1-.1.1-.15.2-.65.6-1.5.45m3.65-5.2l-.25.05q-.548.3-1.35.3h-.2l-.3.8.65-.1q.45 0 1-.6l.45-.45m2.05-5.3v-.3q-.2.2-.45.3-.1.05-.3.05l-.25.2q-.3 0-.5.1v.25l-.25.4q.35.1.75 0 .25-.1.35-.1v-.3h.2l.05-.05q.1-.2.3-.5l.1-.05z"/><path fill="#666" d="M74.6 73.95v.1q-.2.65-.55.75v-.1q.1-.3.1-.35h-.1l-.25.15q-.1.2-.2.2 0 .1-.2.1h-.35v.15l.3.1q.05 0 .05-.1h.2q0 .194-.2.2h.55l.4-.1v-.1q.05 0 .05-.15.3-.4.55-1.1-.25 0-.35.25m.75-4.3h.7q.1-.05.65-.05h.3l.05-.2q.1-.1.1-.2-.1-.15 0-.45h.2V68q-.2 0-.3.55-.05.2-.05.4l-.2.1h-.1v-.1h-.25q0 .1-.1.25h-.3q0 .1-.05.1-.5.3-.65.3v.05m1.15-.35l-.05.1v-.1h.05m2.95-5.65v-.2h-.1v.2q-.2.15-.25.25 0 .3-.2.3-.1 0-.2.1 0-.1.1-.3.293-.195.1-.2l-.45.1-.1.1h-.2v.1l-.05.1q-.1.1-.3.1l-.1.15h-.15q-.2.1-.5.1l-.25.1v.2h.55q.1-.2.2-.2h.15v.25l.3-.05h.35l.1-.2h.25q.407-.125.45-.25.04 0 .05-.05-.004-.016-.05-.05 0-.1.2-.3v-.2q.1 0 .1-.15m1.65-5.85v-.1q-.2 0-.2.75-.15.6-.35.6 0-.25.2-.35h-.2q-.1 0-.2.2 0 .15-.15.25l-.1.1h-.3q-.7.3-.7.35h.6q.4-.05.75-.35.75-.2.75-.45h-.1v-.35q.1-.3.1-.4 0-.15-.1-.25M84.3 47h-.1v.4l-.1.35q.1.2.1.25v.55q0 .2-.1.45.1.3 0 .55l-.2.1v.3q0 .1-.05.15-.1.5-.65 1.05.1.15.25.15 0-.15.4-.55.02-.027.05-.05v-.05l.1-.1q.222-.25.3-.25h.15q0-.2.1-.25v-.1-1.2h.1q0-.1-.1-.35V48q-.1-.45-.1-.6V47h-.15m.15 1v.4q-.148.246-.15.35v-.35-.4-.25q.15.2.15.25m-.25 1.4l.1-.3v.55l-.1.1v-.1-.25m-1.9-3.5v.1l.15-.1.65-.7-.55.15-.25.55m1.45-.55q-.2-.15-.2-.35l-.25.3q.15-.3.15-.4l-.25.1q-.1.3-.1.35-.25.65-.25.85v.1h.05l.55-.65q0 .1.1.1.3 0 .35-.1-.05-.3-.15-.3m2.2-.55q-.098-.148-.3-.15-.1 0-.15.55.05.15.05.45l-.05.1V46q0 .65.05 1.2-.05.45-.05.75.05 0 .15-.2v-.2q.2-.15.2-.35h.1v-.55q.15-.1 0-.35.15-1 0-1.5m-.1.5v.05q-.2.3 0 .4h-.2v-.05-.7q.2.2.2.3z"/><path fill="url(#a)" d="M80.35 65.55q-.15.1-.15 0v-.15q-.1.5-.3.8h.2q.1 0 .1-.2v-.1q0-.05.15-.35m-.15-.35v.1l.25-.1h-.25m.25-1h.1v-.3q-.002.104-.1.3m0 .45q0-.1.1-.2-.1-.15-.1-.25-.1.25-.1.65l.1-.2m.1-1.1q0 .248-.1.25h.1l.2-.25h-.2m.25-.3q.1-.05.1-.25h-.1l-.05-.1q0 .3-.2.55.2-.2.25-.2z"/><path fill="#1C1C1C" d="M77.45 53.85q-.4-.15-.65-.45-1 1.45-2.2 3.3-.2.35-.45.75-.35.7-1.1 1.6-.25.55-.45 1.1-.55 1.1-1 2.3.1.1 0 .1-.3.65-.35 1.25-.3.2-.5.65-.05.4-.15.75V65.65q-.2.2-.3.25-.1.95-.35 1.75-.3.9-.35 1.95-.198.053-.2.15l-.1.2v1.2l-.1.15q-.25 1.75-.35 3.5v2.65q0 .7.1 1.25.7-5.55 2.35-10.75v-.3q.4-1.1.95-2.45V65l.05-.15q.1-.3.1-.65.3-.4.55-.95.1-.35.2-.8h.2q.05-.35.25-.65l-.2-.15q1.75-3.85 4.05-7.8z"/><path fill="#900" d="M74.35 41.25q.05-.1 0-.25-.2.15-.55.45.25 0 .55-.2m-.2.4q.203-.1.25-.1l-.05-.1q0 .094-.2.2m.2-1.05h-.3v.2q-.1 0-.1.1l.4-.3m-.3-.35l.1.2h.2l-.3-.2m-.65.2v.15l.2-.15h-.2m.55-.3V40h-.15v.45q.147-.196.15-.3m1 2.2h-.15q0 .2.15.2h.1l-.1-.2m-.15-.1q-.1-.1-.1-.25l-.1.15q0 .1.1.1h.1m-.2-.35h-.25l.25.1v-.1m.2-5.4l.15.3q.1-.3.1-.4l-.25.1m-.45.3l-.3.1-.1.15q.104-.15.2-.15l.2-.1z"/><path fill="#999" d="M74.35 40.9q.25-.1.25-.35-.25.05-.45.25-.097.097-.2.1h.4m.25-.35v-.1h-.25q.053.002.25.1m2.1 1.6q0 .4.3.65v.1q0 .1.05.3h.65q-.25-.55-.35-1.3-.3.1-.65.25m-.55.5h-.35q-.3 0-.35.15h-.65l-.2-.45q0 .2-.25.3.45.25.45.35-.1.2-.45-.2-.3-.45-.55-.55l.15-.1h.4V42h-.55q.25-.1.35-.1v-.25h-.1l.3-.2v-.2q-.3.2-.55.2h-.2q.2-.2.45-.3l.3-.15h-.65q0-.1.1-.1v-.35q.15-.1 0-.1h-.1q.096.003-.1.15l-.2.3-.05-.3.05-.15h.2l.2-.2V40h.15V40.45l.1-.2.1-.1v.1h.2l.25.2h.1q-.1-.002-.1-.45h-.25q-1.3-.2-2.6 0v.9q.5 1.1.95 1.45.1.2.25.3h.1q.3.25.35.35.2.2.4.25h1q.65-.05 1-.25v-.1q.25 0 .35-.25m-3.35-2.5h.25v.1q-.25 0-.25-.1m.55.3q-.2.15-.3.15v-.15q.3-.2.35-.45h.2q-.197.148-.2.25v-.1q-.05.1-.05.3m.45-3.4v-.15h.15q0-.1.2-.4-.55.1-1.1.55-.1.1-.25.2-.2.25-.2.35l-.2.2-.15.45-.2.55q.2 0 .2-.3l.15-.05q.2-.3.3-.3.35-.35 1.25-.65h.65v-.1h.1l.25-.6q-.15 0-.35.25 0 .2-.25.2.05-.2.45-.45h-.2q0 .1-.2.25l-.6.2q-.2.15-.4.15 0-.15.4-.35m3.65 7.15v.15q.55.85.9 1.4l.55-.4q-.35-.45-.75-1.15h-.7m6.1 2.1v-.1q-1.75.8-3.1.35l-.9.35q1.25.65 2.65.3l.1-.3v.3l.25-.2q.2-.1.35-.25h.4l-.2 1.65v.25l-.25 1v.1l-.1.55-.45 2.4.55-.75.7-5.65m.05-2.05q.12.165-.05.55v.1q.65.45.75 1.1v.2q.35.45.55 1 .1.75 0 1.55v.9q.002-.1.25-.25v-.3q.1-1 .1-1.7v-.1q-.1-.55-.25-.9v-.1q-.3-.55-.65-1.1 0-.2-.1-.3-.28-.325-.6-.65m-2.5-1.6q.25.15.35.25.3.1.45.35.3.1.4.3h.8q-.25-.2-.55-.3-.1-.25-.25-.35h-.1q-1.45-1-3.85-2v.25q-.25.1-.35.3 1.8.45 3.1 1.2M84.3 40q-.2-.2-.75-.45 0-.1-.25-.3l-.1-.1q-.1 0-.45-.1l-.2-.15q-.65-.3-1.2-.3h-.25q-1.55-.1-3 .45l.25.1-.35-.1q-.2.1-.3.1.3.1.65.4h.1q2 .35 3.35 1 .4.05.5.05.45.3.8.55.45.3.8.65.3 0 .55.2.4.25.4.35v.2l.25.25q.2.2.4.45.35.75.6 1.55v.55q.002-.05.2-.15l-.1-.3q-.1-.1.1-.35v-.3q-.1-.05-.1-.25l-.1-.1h.1l-.1-.1q-.25-.45-.55-.8 0-.2-.05-.45-.4-.65-1.2-1-.4-.55-.75-.75-.1.1-.1 0-.35-.2-.6-.35-.3-.2-.65-.45-1.3-.45-2.85-.75 1.75-.45 3.55.3.3.05.55.25.3.2.75.35v.3q.65.1 1 .55l.1.15V41q-.35-.4-.85-.75v-.1q0-.15-.15-.15z"/></g><path id="z" stroke="#C00" stroke-linejoin="round" stroke-linecap="round" fill="none" d="M87.95 78.35l.1.1"/></defs><g transform="translate(-15.15 -7.3) scale(1.12985)"><mask id="c"><use xlink:href="#b" transform="translate(-397.55 -120.6)"/></mask><g mask="url(#c)"><use xlink:href="#d" transform="rotate(-.754 -14152.426 -16237.287) scale(6.86473)"/><use xlink:href="#e" transform="rotate(-.754 -14152.426 -16237.287) scale(6.86473)"/><use xlink:href="#f" transform="rotate(-.754 -14152.426 -16237.287) scale(6.86473)"/><use xlink:href="#g" transform="rotate(-.754 -14152.426 -16237.287) scale(6.86473)"/><use xlink:href="#h" transform="rotate(-.754 -14152.426 -16237.287) scale(6.86473)"/><use xlink:href="#i" transform="matrix(.58003 -.15543 .1639 .6118 -350.65 -87.2)"/><use xlink:href="#j" transform="matrix(.58003 -.15543 .1639 .6118 -350.65 -87.2)"/><use xlink:href="#k" transform="matrix(.58003 -.15543 .1639 .6118 -350.65 -87.2)"/><use xlink:href="#l" transform="matrix(.58003 -.15543 .1639 .6118 -350.65 -87.2)"/><use xlink:href="#m" transform="matrix(.58003 -.15543 .1639 .6118 -350.65 -87.2)"/><use xlink:href="#n" transform="matrix(.58003 -.15543 .1639 .6118 -350.65 -87.2)"/><use xlink:href="#o" transform="matrix(.58003 -.15543 .1639 .6118 -350.65 -87.2)"/><use xlink:href="#p" transform="matrix(.58003 -.15543 .1639 .6118 -350.65 -87.2)"/><use xlink:href="#q" transform="matrix(.58003 -.15543 .1639 .6118 -350.65 -87.2)"/><use xlink:href="#r" transform="matrix(.58003 -.15543 .1639 .6118 -350.65 -87.2)"/><use xlink:href="#s" transform="matrix(.58003 -.15543 .1639 .6118 -350.65 -87.2)"/><use xlink:href="#t" transform="matrix(.58003 -.15543 .1639 .6118 -353.15 -81.7)"/><use xlink:href="#u" transform="matrix(.58003 -.15543 .1639 .6118 -357.1 -84.55)"/><g transform="matrix(.58003 -.15543 .1639 .6118 -358.2 -76.7)"><use xlink:href="#v"/></g><g transform="matrix(.58003 -.15543 .1639 .6118 -334.25 -85.75)"><use xlink:href="#w"/></g><g><use xlink:href="#x" transform="matrix(.58003 -.15543 .1639 .6118 -361.084 -88.968)"/></g><g><use xlink:href="#y"/><use xlink:href="#z"/></g></g></g></svg>