<svg xmlns="http://www.w3.org/2000/svg" xmlns:xlink="http://www.w3.org/1999/xlink" preserveAspectRatio="none" width="138" height="138" viewBox="0 0 138 138"><defs><linearGradient id="a" gradientUnits="userSpaceOnUse" x1="761.813" y1="451.8" x2="587.987" y2="366.8"><stop offset="15.686%" stop-color="#D0D0A6"/><stop offset="100%" stop-color="#B45A00"/><stop offset="100%" stop-color="#78957A"/></linearGradient><linearGradient id="b" gradientUnits="userSpaceOnUse" x1="761.813" y1="451.8" x2="587.987" y2="366.8"><stop offset="15.686%" stop-color="#939375"/><stop offset="100%" stop-color="#803F00"/><stop offset="100%" stop-color="#78957A"/></linearGradient><linearGradient id="c" gradientUnits="userSpaceOnUse" x1="761.813" y1="451.8" x2="587.987" y2="366.8"><stop offset="15.686%" stop-color="#ECECBB"/><stop offset="100%" stop-color="#B45A00"/><stop offset="100%" stop-color="#78957A"/></linearGradient><path fill="#FFF" d="M525.1 188.55q0-22.15-15.7-37.85-15.65-15.65-37.8-15.65t-37.85 15.65q-15.65 15.7-15.65 37.85 0 22.15 15.65 37.8 15.7 15.7 37.85 15.7 22.15 0 37.8-15.7 15.7-15.65 15.7-37.8z" id="d"/><path fill="#6CC" d="M848.65 601.9v-312H326v312h522.65z" id="f"/><g id="h"><path fill="#295454" d="M482.7 518.05l-7.9-3.55 7.35 4.1-11.45.25 11.35.6-10.2 7.5 10.6-6.7-4.15 8.35 4.85-8.3-.45-2.25m-10.35-40.15l-.1-2.9-8.95-5.95 8.2 6.55-14.15-2 13.85 3-14.1 7.15 14.45-6.05-6.85 9.4 7.65-9.2m-3.55-22.35l-.1-2.9-8.95-5.95 8.15 6.55-14.1-2.05 13.85 3.05-14.1 7.15 14.4-6.05-6.8 9.4 7.65-9.2m35.45 59.7l-.1.05.05-.1h.05l4.1-8.2-4.3 7.25-.6 1 .5 2.25.35.15 7.5 3.4-7.3-4.1 11.4-.25-11.3-.55 10.2-7.5-10.55 6.6M477.4 499.4l-.1-2.3-.05-.05-7.15-4.75 6.6 5.25-11.3-1.65 11.05 2.45-11.3 5.7 11.55-4.8-5.45 7.5 6.1-7.25.05-.1m24.1-.8l.4.25 6.8 4.55-6.6-5.3 11.3 1.65-11.05-2.4 11.3-5.7-11.6 4.8 5.5-7.55-5.75 6.95-.4.45.1 2.3m-2.75-46.85l.15 2.85 8.95 6-8.2-6.55 14.1 2-13.8-3 14.1-7.15-14.45 6 6.85-9.35-7.7 9.2m.9 22.45l.5-.65 6.3-8.75-6.55 7.95-1.1 1.25.1 2.9 1.65 1.1 7.3 4.85-7.25-5.85-.9-.7.9.15 13.2 1.9-13.3-2.9-.55-.15.5-.25 13.6-6.85-13.8 5.75-.6.25m-50.5-46.25l16.4 3.55 2.25.5-1.95 1-17.1 8.65 17.5-7.25 2-.85-1.45 2.05-7.75 10.6 8.2-9.8 2.15-2.6-.15-3.9-3.7-2.45-8.4-5.6 8.3 6.65 2.7 2.2-2.7-.4-16.3-2.35m51 .7l-2.55 1.05 2.3-3.15 6.9-9.5-7.1 8.6-3.2 3.8.15 3.9 2.45 1.65 9.6 6.4-9.25-7.4-1.75-1.45 2.1.3 16.9 2.45-16.7-3.65-1.95-.45 2.1-1.05 16.95-8.55-16.95 7.05z"/><path fill="#FFC" d="M501 526.2l-7.35 1.2v.3h-3.95q-2.85 11.2 3.75 21.65l.25-.3q1.7-4.1 2.45-8.25 1.2 2.75 3.05 5.4 1.15 1.6 2.55 3.2l.15-.4q1.2-6.55.8-12.8 3.75 5 10.1 8.25l.05-.35q-1.5-10.35-7.75-18.2-.55-.7-1.15-1.35l-2.9 1.75q-.05-.05-.05-.1m3.3-8.55l-.35-.15-.5-2.25.6-1q-.6-2.2-2.3-3.8-2.35-2.3-5.55-2.15l-6.15.35q-2.8.15-4.75 2.1-.3.25-.55.55-2.1 2.5-1.95 5.95.2 3.4 2.55 5.7 2.4 2.35 5.55 2.2l6.15-.35q3.2-.15 5.3-2.7 1.65-1.95 1.95-4.45m-.15-2.35l.1-.05-.05-.05-.05.1m-5.1-24.25q-2.7-2.45-6.4-2.3l-7.05.4q-3.65.15-6.1 2.9-2 2.2-2.25 5l.05.05.1 2.3-.05.1q.45 2.95 2.8 5.05 2.75 2.45 6.4 2.3l7.05-.4q.65-.05 1.3-.15 2.85-.5 4.8-2.75 1.85-2.1 2.2-4.7l-.4-.25-.1-2.3.4-.45q-.5-2.85-2.75-4.8m-8.65-26.4q3.55-.1 5.9-3.4 2.45-3.25 2.35-7.8-.15-4.55-2.8-7.7-2.55-3.1-6.1-3l-12.6.35q-.65.05-1.25.15-2.75.6-4.7 3.25-2.4 3.3-2.25 7.85.1 4.55 2.7 7.65 2.6 3.15 6.15 3l12.6-.35M500.6 477v-.55l-.9-.15.9.7m-.15-1.95l-.5.25.55.15q-.05-.2-.05-.4m-.3-1.5l-.5.65.6-.25-.1-.4m-2.3-4.2q-2.4-2.75-5.6-2.55l-12.6.75q-3.15.2-5.25 3.2-2.05 3-1.8 7.1.25 4.1 2.65 6.8 2.45 2.8 5.6 2.6l12.6-.75q3.2-.2 5.25-3.25 1.6-2.3 1.85-5.25l-1.65-1.1-.1-2.9 1.1-1.25q-.7-1.95-2.05-3.4m-31.6-34.95q.25.6.55 1.2l1.45-2.05-2 .85m-.4-1.4l1.95-1-2.25-.5q.1.8.3 1.5m-.45-3.6q0 .45.05.9l2.7.4-2.7-2.2q-.05.45-.05.9m34.6 2.25q.1-.75.15-1.5l-2.1 1.05 1.95.45m-.2 1.2l-2.1-.3 1.75 1.45q.2-.6.35-1.15m-2.2-3.15l2.55-1.05q-.05-1.1-.25-2.1l-2.3 3.15m2.1-4.05q-.7-2.5-2.25-4.5-2.65-3.4-6.4-3.4H474.5q-3.75 0-6.4 3.4-1.95 2.5-2.5 5.75-.05.25-.05.55l3.7 2.45.15 3.9-2.15 2.6q.35.65.85 1.25 2.65 3.45 6.4 3.45h16.55q3.2 0 5.6-2.5.4-.45.8-.95 1-1.25 1.65-2.65l-2.45-1.65-.15-3.9 3.2-3.8z"/></g><path fill="#FFC" d="M393.4 236.4Q371 258.8 371 290.5q0 31.7 22.4 54.1 22.4 22.4 54.1 22.4h51.95q31.7 0 54.1-22.4 22.4-22.4 22.4-54.1 0-31.7-22.4-54.1-22.4-22.4-54.1-22.4H447.5q-31.7 0-54.1 22.4z" id="i"/><path fill="#FFC" d="M620.95 484.95q0-14.5-10.25-24.75t-24.75-10.25H512q-14.5 0-24.75 10.25T477 484.95q0 14.5 10.25 24.75T512 519.95h73.95q14.5 0 24.75-10.25t10.25-24.75z" id="j"/><g id="k"><path fill="#CDCDA4" d="M493.1 345.75q5.7-5.65 5.7-13.7 0-8-5.7-13.65-.65-.65-1.35-1.25-2.85 15.15.55 29.4l.8-.8m-28.15-27.35q-5.65 5.65-5.65 13.65 0 8.05 5.65 13.7.5.45 1 .95 3.25-14.8-.55-28.7-.25.2-.45.4z"/><path fill="#FFC" d="M478.6 312.75q-6.5 0-11.45 3.75 4.7 15.3.7 31.65 4.75 3.25 10.75 3.25h.85q5.85 0 10.5-3.05-4.25-15.9-.65-32.95-4.35-2.65-9.85-2.65h-.85z"/></g><path fill="#295454" d="M488.45 315.8l7.05-16.25-.4-.2-8.4 15.4 1.75 1.05z" id="l"/><path fill="#295454" d="M461.55 299.5l7.05 16.25 1.75-1.05-8.45-15.4-.35.2z" id="m"/><path fill="#295454" d="M505.5 364.65l.35 8.75L548.6 390l-40.4-18.4 52.35.65-51.5-3.6 37.4-28.45-38.35 25 20.65-28.4-23.25 27.85z" id="n"/><path fill="#295454" d="M452.5 373.05l-1.15-7.3-23.7-19.2 21.65 20.1-35.75-14.35 35.55 17.3-41.9 11.45 43.05-9.1-30.3 21.75 32.55-20.65z" id="o"/><path fill="#295454" d="M517.55 419.15l-15.7-12.55 27.05 3.9-26.5-5.8 27.05-13.65-27.7 11.5 13.1-18-14.7 17.6.2 5.6 17.2 11.4z" id="p"/><path fill="#295454" d="M446.85 425.95l14.7-17.65-.2-5.55-17.2-11.45 15.7 12.6-27.05-3.95 26.5 5.85-27.05 13.65 27.7-11.5-13.1 18z" id="q"/><g id="r"><path fill="url(#a)" d="M695.35 395.3q-2.9 0-3.5-2.1-.1-.4-.1-3.5h-16.2v7.4q5.6 4.05 7.2 6 2.95 3.7 3.5 9.4 6.7-3.05 8.4-13.7 4.9 1.8 3.75-4.2-1.4.7-3.05.7z"/><path fill="#FFC" d="M704.6 378.1q1.45.35 2.8.8 53.6 16.55 16.4 101.25l3.45 2.95q39.65-91.25-19.85-105.5-1.4-.35-2.8-.65-3.15-.65-6.5-1.05l.1.8q3.35.6 6.4 1.4m-77.15 5.45q-3.15 0-5.4 2.2-2.2 2.25-2.2 5.35 0 3.15 2.2 5.35 2.25 2.25 5.4 2.25 3.15 0 5.35-2.25 2.2-2.2 2.2-5.35 0-3.1-2.2-5.35-2.2-2.2-5.35-2.2z"/><path fill="url(#b)" d="M677.1 371.8q-16.15 2.7-16.15 16.1h-5.4q-5.85-4.45-8.1-6.45-3.8-3.4-2.7-7.95-7.8.15-11.3-1-4.6-1.5-6.95-6.2-5.05 2.75-10.15 4.5-6.4 2.2-6.55 2.25-2.65 1.2-5.3 4.5 1.3.45 2.8.85-5.65 4.3-1.65 16.3l-.4-.05q.15.85 2.55 5.45 10.55 19.9 45.75 8.2 7.45-2.5 3.55-4.35l24.5 9.7q2.55-.2 4.65-1.15-.55-5.7-3.5-9.4-1.6-1.95-7.2-6v-7.4h16.2q0 3.1.1 3.5.6 2.1 3.5 2.1 1.65 0 3.05-.7v-.05q-.15-1.05-.6-2.35 1.15.25 2.2.6.3.1.65.2 1.45-1.15 3.95-3.3v-11.6q-3.05-.8-6.4-1.4l-.1-.8q3.35.4 6.5 1.05v-3.45q-.55 0-4.05-.9t-6.1-.9q-9.15-1.3-17.35.1m-55.05 13.95q2.25-2.2 5.4-2.2 3.15 0 5.35 2.2 2.2 2.25 2.2 5.35 0 3.15-2.2 5.35-2.2 2.25-5.35 2.25-3.15 0-5.4-2.25-2.2-2.2-2.2-5.35 0-3.1 2.2-5.35z"/><path fill="url(#c)" d="M660.95 387.9q0-13.4 16.15-16.1 8.2-1.4 17.35-.1 2.6 0 6.1.9 3.5.9 4.05.9v3.45q1.4.3 2.8.65 59.5 14.25 19.85 105.5l-3.45-2.95q37.2-84.7-16.4-101.25-1.35-.45-2.8-.8v11.6q-2.5 2.15-3.95 3.3 3.6 1.05 6.75 2.4 43.05 17.8 3.8 74l7.6 6.5-24.6 24.65 15.75-6 6.95 3.05-10.6 20.45q.55-.25 1.1-.55 12.55-6.5 23.3-27 .05-.15.1-.25.75-1.4 1.5-2.9l1.2-1.55 9.3-15.5h5.75l-5.9-6.25 11.25 3.45q7.75-13.05 7.6-26.1-.05-3.15-.55-6.35l8.3-3.35-15.85-.45 20-3.95q-1.45-16.3-20-32.55l9.1-6.8-17.95 8.7 17.35-13.25q-8.7-18.65-32.1-26.3l-8.55 12.45 8.6-26.75q-11.25-4.85-22.45-5.9-12.7-1.25-25.35 2.35-12.1-11.65-34.95-16.35-24.65-5.15-37.95 8.25-13.3 13.45-15.05 27.75-1.45 11.5-.2 10.2l.8-1.45q-2.7 5.8 9.8 9.9 2.65-3.3 5.3-4.5.15-.05 6.55-2.25 5.1-1.75 10.15-4.5 2.35 4.7 6.95 6.2 3.5 1.15 11.3 1-1.1 4.55 2.7 7.95 2.25 2 8.1 6.45h5.4z"/></g><path fill="#ABE2E2" d="M852.25 286.25V75.8H289.7v210.45h562.55z" id="s"/><g id="u"><path fill="#FFC" d="M784.4 390.4v-.05l-2.85.45v.15H780q-1.1 4.3 1.45 8.35l.1-.1q.7-1.6.95-3.2.5 1.05 1.2 2.1.45.6 1 1.25l.05-.15q.45-2.55.3-4.95 1.45 1.9 3.9 3.15l.05-.1q-.6-4-3-7.05-.25-.3-.45-.55l-1.15.7m-1.85-6.95l-2.4.1q-1.1.05-1.85.8-.1.1-.2.25-.8.95-.75 2.3.05 1.3 1 2.2.9.9 2.15.85l2.35-.15q1.25-.05 2.05-1.05.65-.75.75-1.7l-.1-.05-.2-.9.2-.35q-.2-.85-.85-1.5-.95-.9-2.15-.8m1.1-6.7q-1.05-.95-2.5-.9l-2.7.15q-1.45.05-2.4 1.15-.75.85-.85 1.9l.05.95q.15 1.15 1.05 1.95 1.1.95 2.5.9l2.75-.15q.25 0 .5-.05 1.1-.2 1.85-1.05.7-.85.85-1.85l-.15-.1-.05-.85.15-.2q-.2-1.1-1.05-1.85m.6-5.65l-.35-.05.35.25v-.2m-.05-.4v-.15l-.2.1.2.05m-.1-.6q0-.05-.05-.15l-.2.25.25-.1m-7.95-2.45q-1.25.05-2.05 1.25-.8 1.15-.7 2.75.1 1.55 1 2.6.95 1.1 2.2 1l4.85-.25q1.25-.1 2.05-1.25.6-.9.7-2.05l-.6-.45-.05-1.1.4-.5q-.25-.75-.8-1.3-.9-1.05-2.15-1l-4.85.3m-1-9.45q-.25 0-.5.05-1.05.2-1.8 1.25-.9 1.25-.85 3.05 0 1.75 1.05 2.95 1 1.2 2.35 1.15l4.9-.15q1.35 0 2.25-1.3.95-1.25.95-3-.05-1.8-1.1-3-1-1.2-2.35-1.15l-4.9.15m-4.5-5l1 .2-1-.9q-.05.2-.05.35 0 .2.05.35m0 .5q.05.3.15.55l.75-.35-.9-.2m.5 1.55l.55-.75-.75.3q.1.25.2.45m12.85-1.5q.05-.3.05-.6l-.8.4.75.2m-.9.35l.7.55q.05-.25.15-.45l-.85-.1m.95-1.5q0-.45-.1-.85l-.85 1.25.95-.4m-.15-1.2q-.3-.95-.9-1.7-1-1.35-2.45-1.35h-6.4q-1.45 0-2.5 1.35-.75.95-.95 2.2-.05.1-.05.2l1.45.95.05 1.55-.85 1q.15.25.35.45 1.05 1.35 2.5 1.35h6.4q1.25 0 2.15-.95l.3-.4q.4-.45.65-1l-.95-.65-.05-1.5 1.25-1.5z"/><path fill="#295454" d="M777.5 388.05l-.2-.85-3.05-1.35 2.85 1.55-4.45.1 4.4.25-3.95 2.9 4.1-2.6-1.6 3.25 1.9-3.25m8.05-2.3l-.2.35.2.9.1.05 2.95 1.3-2.85-1.6 4.4-.05-4.35-.25 3.95-2.9-4.1 2.55 1.6-3.2-1.7 2.85m-10.3-5.75l-.05-.95-2.75-1.8 2.55 2-4.4-.65 4.3.95-4.4 2.25 4.5-1.9-2.15 2.9 2.4-2.8m9.3-1.2l.05.85.15.1 2.65 1.8-2.6-2.05 4.4.6-4.3-.9 4.4-2.2-4.5 1.85 2.15-2.95-2.25 2.7-.15.2m-1.05-17.25l.1 1.1 3.45 2.3-3.2-2.55 5.5.8-5.35-1.15 5.45-2.8-5.6 2.35 2.65-3.65-3 3.6M771.95 363l-.05-1.1-3.5-2.35 3.2 2.55-5.5-.8 5.4 1.2-5.5 2.75 5.6-2.35-2.65 3.65 3-3.55m-2.15 5.25l3.15 2.5-5.45-.75 5.35 1.15-5.45 2.75 5.6-2.3-2.65 3.6 2.95-3.55-.05-1.1-3.45-2.3m14.05 1.95l.2-.25 2.45-3.35-2.55 3.05-.4.5.05 1.1.6.45 2.85 1.85-2.8-2.25-.35-.25.35.05 5.1.75-5.15-1.15-.2-.05.2-.1 5.25-2.65-5.35 2.2-.25.1m-11.7-15.6l-.05-1.55-1.45-.95-3.25-2.15 3.25 2.55 1 .9-1-.2-6.35-.9 6.35 1.4.9.2-.75.35-6.65 3.35 6.8-2.8.75-.3-.55.75-3 4.15 3.15-3.8.85-1m10.5-1.7l.05 1.5.95.65 3.75 2.45-3.6-2.85-.7-.55.85.1 6.5.95-6.45-1.4-.75-.2.8-.4 6.6-3.3-6.6 2.75-.95.4.85-1.25 2.7-3.65-2.75 3.3-1.25 1.5z"/></g><path fill="#FFC" d="M393.4 236.4Q371 258.8 371 290.5q0 31.7 22.4 54.1 22.4 22.4 54.1 22.4h51.95q31.7 0 54.1-22.4 22.4-22.4 22.4-54.1 0-31.7-22.4-54.1-22.4-22.4-54.1-22.4H447.5q-31.7 0-54.1 22.4z" id="v"/><path fill="#FFC" d="M620.95 484.95q0-14.5-10.25-24.75t-24.75-10.25H512q-14.5 0-24.75 10.25T477 484.95q0 14.5 10.25 24.75T512 519.95h73.95q14.5 0 24.75-10.25t10.25-24.75z" id="w"/><g id="x"><path fill="#CDCDA4" d="M780.8 309.45q-1.1 5.85.2 11.4.2-.15.35-.3 2.2-2.2 2.2-5.3 0-3.1-2.2-5.3-.25-.25-.55-.5m-10.35 11.1q.2.15.35.35 1.3-5.75-.2-11.1-.1.05-.15.15-2.2 2.2-2.2 5.3 0 3.1 2.2 5.3z"/><path fill="#FFC" d="M775.7 307.75q-2.5 0-4.4 1.45 1.8 5.95.25 12.25 1.85 1.25 4.15 1.25h.35q2.25 0 4.05-1.15-1.65-6.15-.25-12.75-1.65-1.05-3.8-1.05h-.35z"/></g><path fill="#295454" d="M778.85 308.55l.7.4 2.7-6.3-.15-.1-3.25 6z" id="y"/><path fill="#295454" d="M771.85 308.9l.7-.4-3.3-5.95-.15.05 2.75 6.3z" id="z"/><path fill="#295454" d="M786.15 327.85l.1 3.4 16.6 6.4-15.65-7.1 20.25.25-19.95-1.4 14.5-11-14.85 9.65 8-11-9 10.8z" id="A"/><path fill="#295454" d="M764.35 328.65l-13.8-5.6 13.75 6.7-16.25 4.45 16.7-3.5-11.75 8.4 12.6-8-.45-2.8-9.15-7.45 8.35 7.8z" id="B"/><path fill="#295454" d="M789.75 335.55l-5.7 6.8.1 2.2 6.65 4.4-6.1-4.85 10.5 1.5-10.25-2.25 10.45-5.3-10.7 4.5 5.05-7z" id="C"/><path fill="#295454" d="M762.4 338.15l6.05 4.9L758 341.5l10.25 2.3-10.5 5.25 10.75-4.45-5.05 7 5.65-6.85-.05-2.15-6.65-4.45z" id="D"/><path fill="#B3E6E6" d="M586.75 486.5l-.6-.7-1.5.9v-.05l-3.8.65v.15h-2.05q-1.5 5.8 1.95 11.2l.1-.15q.9-2.15 1.25-4.3.65 1.45 1.6 2.8.6.85 1.3 1.65l.1-.2q.6-3.35.4-6.6 1.95 2.6 5.25 4.25v-.15q-.75-5.4-4-9.45m-11.6-4.05l-4.1-1.85 3.85 2.15-5.95.1 5.85.3-5.25 3.9 5.5-3.45-2.15 4.3 2.5-4.3-.25-1.15m9.85-3.95q-1.2-1.2-2.85-1.1l-3.2.2q-1.45.05-2.45 1.05l-.3.3q-1.05 1.3-1 3.1.1 1.75 1.35 2.95 1.2 1.2 2.85 1.1l3.2-.15q1.65-.1 2.75-1.4.85-1 1-2.3l3.85 1.75-3.75-2.1 5.9-.15-5.85-.3 5.3-3.85-5.5 3.4v-.05l2.15-4.2-2.25 3.75q-.3-1.15-1.2-2m-15.2-16.85l-.05-1.5-4.65-3.05 4.25 3.35-7.3-1 7.15 1.55-7.3 3.7 7.5-3.15-3.55 4.9 3.95-4.8m6.85 5.85q-1.9.05-3.15 1.5-1.05 1.15-1.15 2.6l-3.7-2.5 3.4 2.75-5.85-.85 5.75 1.25-5.85 2.95 5.95-2.5-2.8 3.9 3.15-3.75q.2 1.5 1.45 2.6 1.4 1.3 3.3 1.2l3.65-.2.7-.1q1.45-.25 2.45-1.4.95-1.1 1.15-2.45l3.5 2.35-3.4-2.75 5.85.85-5.7-1.2 5.85-2.95-6 2.45 2.8-3.9-2.95 3.6q-.25-1.45-1.45-2.5-1.35-1.25-3.3-1.15l-3.65.2m-8.7-17.4l-.05-1.5-4.6-3.1 4.2 3.4-7.3-1.05 7.15 1.55-7.3 3.7 7.5-3.1-3.55 4.85 3.95-4.75m15.5-1.95l.1 1.45 4.65 3.1-4.25-3.4 7.3 1.05-7.15-1.55 7.3-3.7-7.5 3.1 3.55-4.85-4 4.8m-.45 9.1q-1.25-1.45-2.9-1.35l-6.5.4q-1.65.1-2.75 1.65-1.05 1.55-.9 3.7.1 2.1 1.35 3.5 1.25 1.45 2.9 1.35l6.55-.4q1.65-.1 2.7-1.65.8-1.2.95-2.75l3.8 2.55-3.75-3.05v-.3l6.8 1-6.9-1.5v-.2l7.05-3.55-7.15 2.95q-.05-.1-.05-.2l3.25-4.5-3.4 4.1q-.35-1-1.05-1.75m-10.7-13.6q-.35.05-.65.1-1.45.3-2.45 1.65-1.25 1.7-1.15 4.1.05 2.35 1.4 3.95 1.35 1.6 3.15 1.55l6.55-.2q1.85-.05 3.05-1.75 1.25-1.7 1.2-4.05-.05-2.35-1.45-4-1.3-1.6-3.15-1.55l-6.5.2m10.5-11.35q-1.4-1.75-3.3-1.75h-8.6q-1.9 0-3.3 1.75-1 1.3-1.3 2.95v.3l-4.35-2.9 4.3 3.45q-.05.25-.05.45 0 .25.05.5l-8.45-1.25 8.5 1.85q.05.4.15.75l-8.85 4.5 9.05-3.75.3.6-4.05 5.5 4.25-5.05q.2.3.45.65 1.4 1.75 3.3 1.75h8.6q1.65 0 2.9-1.3.2-.2.4-.45.5-.65.85-1.4l4.95 3.3-4.75-3.8q.1-.3.15-.6l8.75 1.25-8.65-1.85.1-.8 8.75-4.45-8.75 3.65q-.05-.55-.15-1.05l3.6-4.95-3.7 4.45q-.35-1.25-1.15-2.3m-2.85-15.3h-10.7q-2.1 0-3.6 1.9-1.4 1.75-1.5 4.2v-.35l-8.9-5.9 8.15 6.5-14-2.05 13.7 3.05-14 7.05 14.35-5.95-6.8 9.35 7.6-9.15-.05-1.05q.25 2 1.45 3.5 1.5 1.9 3.6 1.9h10.7q2.1 0 3.6-1.9.85-1.1 1.2-2.45l8.5 5.6-8.15-6.5 14 2.05-13.7-3 14-7.1-14.35 5.95 6.8-9.3-7 8.4q-.35-1.6-1.3-2.85-1.5-1.9-3.6-1.9m.65-37.9q-.35-.35-.7-.65-1.5 7.85.3 15.25.2-.25.4-.45 2.95-2.9 2.95-7.1 0-4.1-2.95-7.05m-16.15-9.9l-.2.1 3.6 8.35q-.35.2-.7.45 2.45 7.9.4 16.3-3.2.6-5.65 3.05-2.55 2.55-3.1 6l-12.1-9.75 11.2 10.4-18.5-7.45 18.4 8.95-21.65 5.95 22.25-4.75-15.65 11.3 16.2-10.25q.65 3 2.95 5.3 3.25 3.2 7.85 3.2h7.5q4.6 0 7.85-3.2 2.3-2.3 2.95-5.2l21.25 8.2-20.9-9.5 27.1.35-26.65-1.9 19.35-14.7-19.85 12.95 10.7-14.7L587.9 402q-.8-2.55-2.8-4.55-2.65-2.65-6.2-3.15-2.1-8.05-.25-16.75-.15-.1-.3-.15l3.5-8.05-.2-.1-4.2 7.7q-1.8-.75-3.9-.75h-.45q-2.4 0-4.35.95l-4.3-7.95m1.55 9.9q-2.9 2.95-2.9 7.05 0 4.2 2.9 7.1.3.25.55.5 1.65-7.65-.3-14.85-.1.1-.25.2z" id="E"/><path id="g" stroke="#0CC" stroke-opacity=".318" stroke-width="14.5" stroke-linejoin="round" stroke-linecap="round" fill="none" d="M848.65 601.9H326v-312h522.65v312z"/><path id="t" stroke="#0CC" stroke-opacity=".318" stroke-width="16" stroke-linejoin="round" stroke-linecap="round" fill="none" d="M852.25 286.25H289.7V75.8h562.55v210.45z"/></defs><g transform="matrix(.27562 0 0 .27562 -94.15 -37.8)"><mask id="e"><use xlink:href="#d" transform="matrix(3.9711 0 0 3.9711 -1286.3 -363.2)"/></mask><g mask="url(#e)"><g><use xlink:href="#f"/><use xlink:href="#g"/></g><use xlink:href="#h"/><use xlink:href="#i" transform="translate(346.7 287.5) scale(.2799)"/><use xlink:href="#j" transform="matrix(.2799 0 0 .35892 327.65 230.1)"/><use xlink:href="#k"/><use xlink:href="#l"/><use xlink:href="#m"/><use xlink:href="#n"/><use xlink:href="#o"/><use xlink:href="#p"/><use xlink:href="#q"/><use xlink:href="#r"/><g><use xlink:href="#s"/><use xlink:href="#t"/></g><use xlink:href="#u"/><use xlink:href="#v" transform="matrix(.1084 0 0 .1084 724.7 298)"/><use xlink:href="#w" transform="matrix(.1084 0 0 .13896 717.2 275.75)"/><use xlink:href="#x"/><use xlink:href="#y"/><use xlink:href="#z"/><use xlink:href="#A"/><use xlink:href="#B"/><use xlink:href="#C"/><use xlink:href="#D"/><use xlink:href="#E"/></g></g></svg>