<svg xmlns="http://www.w3.org/2000/svg" xmlns:xlink="http://www.w3.org/1999/xlink" preserveAspectRatio="none" width="138" height="138" viewBox="0 0 138 138"><defs><linearGradient id="a" gradientUnits="userSpaceOnUse" x1="32.988" y1="-19.712" x2="-22.588" y2="-9.088"><stop offset="0%" stop-color="#7E5023"/><stop offset="100%" stop-color="#DEB790"/></linearGradient><path fill="#FFF" d="M525.1 188.55q0-22.15-15.7-37.85-15.65-15.65-37.8-15.65t-37.85 15.65q-15.65 15.7-15.65 37.85 0 22.15 15.65 37.8 15.7 15.7 37.85 15.7 22.15 0 37.8-15.7 15.7-15.65 15.7-37.8z" id="b"/><path fill="#606D87" d="M203.7 135.95V-12.5H-33.1v148.45h236.8z" id="d"/><g id="e"><path fill="#9CF" d="M190.65 126.05V27.7H-187.3v98.35h377.95z"/><path fill="#D4E9FF" d="M190.65-3.8H-187.3v31.5h377.95V-3.8z"/></g><g id="f"><path fill="#AF8300" d="M-90.7 46.85l-3.2-3.3-8.35 2.95-3.6 3.6-1.8 3.1 7.2-5.25 9.75-1.1M-5.85 64.2q1.4-1.5 1.55-1.85h-.15q2.75-4.25 1.05-6.5.15-7.8-8.3-9.35-16.05-4.95-28.8 7.9.3.35 1.2.25-.55 5.65 3.5 7.15l10.45-1.25q-1.65.35.95 2.05 12.35 8.2 18.55 1.6m-4.05-7q.65 1.05.3 2.3-.3 1.2-1.4 1.8-1.1.65-2.35.3-1.2-.3-1.8-1.4-.6-1.1-.3-2.3.35-1.2 1.4-1.85 1.1-.6 2.3-.3 1.25.35 1.85 1.45m-52.7-23.85l.9 10.1 14.75-1.7V39.5l.4 1.15-.2-5.65-15.85-1.65m-14.6 2.95v9l14.6-1.7-3.65-7.3H-77.2m-.7 9.05l-2.5-5.15-.35.5H-93.9l3.25 6.15 12.75-1.5z"/><path fill="#AF8300" fill-opacity=".361" d="M-90.65 46.85l-3.25-6.15v2.85l3.2 3.3h.05M-9.6 59.5q.35-1.25-.3-2.3-.6-1.1-1.85-1.45-1.2-.3-2.3.3-1.05.65-1.4 1.85-.3 1.2.3 2.3.6 1.1 1.8 1.4 1.25.35 2.35-.3 1.1-.6 1.4-1.8m-70.8-19.3l2.5 5.15.7-.05v-9l-3.2 3.9m17.8-6.85l-1.5 2.95h-2.15l3.65 7.3.9-.15-.9-10.1z"/><path fill="#A17800" d="M-77.2 45.3l-.7.05-12.75 1.5h-.05l-9.75 1.1-7.2 5.25-1.85 3.1 6.2-4.35q28.15 4 56.35-1.1v-9.1l-14.75 1.7-.9.15-14.6 1.7m56.05-13.65l-2.95 4.25 9.5 4.75q4.3-5.7 11.25-2.2l.85-2.35q-1.8-.25-4.15-.2-8.85.35-12.3-2.9-1-.95-2.2-1.35z"/><path fill="#C90" d="M2.55 53.85q.1-.4.05-.8l.15.6q.15.3.35-.55.25-.95.65-3.4.8-5.75-.4-9.9-.9-3.1-5.85-3.7l-.85 2.35q-6.95-3.5-11.25 2.2l-9.5-4.75 2.95-4.25q-2.95-.95-7.15 1.3-4.5-2.65-9.5-3.5-4.35-.75-9.15-.05l.2 5.6.2 5.65-.4-1.15v13.2q1.4-.4 3.05-.6 1.5-.25 3.15-.25.45-.05.9-.05-.25.45-.45.85-.65 1.3-.2 1.75 12.75-12.85 28.8-7.9 8.45 1.55 8.3 9.35 5.4-.05 5.95-2z"/></g><g id="g"><path d="M-55.9 33.05q-.45.5-.7 1.15l.25.2q.45-1.1.45-1.35m4.05-7.3v.7q.5.45.75.65l.65 1.4-.65-1.6q-.5-.7-.75-1.15m31.1-6.2q-.5-.2-.7-.4-.45 0-1.15-.5v.25q.9.25.9.45l.7.45q.4 0 1.35.45-.95-.7-1.1-.7m-6.2 4.35q-.2-.2-.45-.7-.25-.2-.5-.2l.25.2q.5.5.7.95v-.25m-.95-.9q-.2-.45 0-.65-.2 0-.2.2 0 .25.2.45m-6.55.7q.35.55.45.8l-.45-1.7q0-.45-.25-.45 0 .45.25 1.35m3.4-.7l-.25-.45h-.2q.4.45.65 1.25l-.2-.8m29.45-6.15l-.25.25v.9h.25v-1.15m-8.9 4.1l-.45 2.95h.2l.25-.9v-1.15-.9m-5.75 2.95v.25q-.2.45 0 1.15v-.45q.25-.45 0-.95m1.4-7.55q.18 0 .85.2-.67-.22-.85-.4-.25-.25-.65-.45l-.5-.2q-.25-.25-.45-.25-.25 0-.45-.2-.2-.25-.2 0l1.6.85q.2.25.65.45m-1.6-39.3q-.01.478-.25 1.25l.25-.5v-.75m-3.2.1l.45-1.4v-.25q-.45 1.2-.45 1.65m8.9 3.85q-.2-.25-.2 0-.5.25 0 .7 0-.45.2-.7m-2.95-1.35q.25-.25.25-.45h-.5q0 .45-.45 1.8 0 .25-.2.95h.2q.25-.7.25-.95.2-1.35.45-1.35m54.1-1.85v.25q.45.25.65.65.25 0 .75.65l-.5-.8q-.45-.5-.9-.75m-95.85 54.55l.2-.65h.25l.2-1.2h-2.5l-.25 1.2h2.1q0 .2-.25.9l.25-.25m.2-2.95l.45.45q0-.45-.2-.65-.25 0-.7-.95 0-.45-.45-.7-.2-.65-.7-.45.5.25.7.7.25.25.45.7.45.7.45.9m.45.45v.25h.5q0-.25-.5-.25m9.85 2.95q-.25.25-.5.75h.25l.25-.75m.4-.65q.25-.45.25-.7-.25.25-.45.7 0 .2-.2.65.4-.45.4-.65m-1.1-2.05l-4.6.25v.9h.25q-.25.2-1.1 1.1-.75.95-1.65 2.05h.25q.65-.65 1.85-2.05.65-.65.85-1.1h5.5v.2l.25-.2 1.8-.25v-1.15l-3.4.25m1.1-5.7l-.4-.5v.95l-.7 3.85v1.4l.2-1.4.7-3.85q0-.25.2-.45m6.65 2.05q0 .25.25 1.1v.7q0 .25.25.45l-.25.95.25.2q0-1.35.15-1.6l-.65-1.8m3.65 2.95q-.2.45-.45.95 0 .65-.25 1.35v.65h.25q0-.2.25-1.6.2-.9.2-1.35m.45-2.95q.25.25 0 .65.25.45.45.45v-.65q-.2-.2-.2-.7-.25-.9-.45-1.35 0 .45.2 1.6m5.9 1.1l-.2-.45v.7q0 .25-.2.7l-.25 1.35.45-1.35v-.45q0-.25.2-.5m-2.45-1.8v-.45q-.25-.7-.5-1.15 0 .7.5 1.6m5 .45v-.9l-12.05 4.55h-.95L-38.6 31h.25l4.1-1.6 3.2-1.15-.7 3.65.25.25.45-3.65 2.95-1.4 2.75-.9m-1.6-.9q0 .2.25.2 0-.2-.25-.9v.7m4.55 0v-.25h-.2v.25q0 1.15-.2 2.05v.9q-.25.45-.25 1.4-.25.45-.25.7l.25-.25.25-1.4q.2-.45.2-1.35.2-.9.2-2.05m0-2.3h.25q0-.45-.25-.9v.9m-.2-3.85v.9q.2.9.2 1.15v.9l.25-.9v-.95q-.25-.7-.25-1.1h-.2m16.2-6.4l.25.2Q-6.4 12-7.3 11.6q.2.25.9 1.15m2.5.9v.2l-.2.7q.2.5.2.7.25.25.25.45-.25.2-.25 1.4.25-.75.5-1.6 0-.25-.25-.25 0-.2-.25-1.15.25-.25 0-.45m-10.95 5.9v-.2q-.65-.2-1.15-.2.7.4.9.4h.25m-3.45 1.15q0 .25-.45.25.7.25.7 0v-.25h-.25m-.45.25q-.2-.25-.65-.7l.45.7h.2m0-2.95v.2q.45 0 1.85.45.45.5.9.5-.7-.7-.9-.7-1.15-.45-1.6-.45h-.25m8.25.2l.25-.2h-.25l-.25.45q0 .2.25 1.35v-1.6m-2.3-1.1q-.25-.25-.65-.25.2.25.4.25.25.2.5.2v-.2h-.25m.7-2.8q.65.5 1.6.95l.25.25v-.25q-.25-.2-.5-.2-.7-.25-.7-.5-.65-.45-.65-.25m-2.05-7.05V7q-.19-.143-.25-.3.06.168.25.55m-.25-6.15v.4q.008-.2.25-.2v-.2h-.25M-.9 11.6v.65q-.25.25-.25.7l-.2 1.85v.45q0 .25.2.45l.25-2.75q0-.45.2-.95 0-.15-.2-.4m-.25.25l-.7-.5-13 8.2-6.4 4.15.25.9 2.7-1.8q0 .2.25.9v-.9l.25-.25 1.35-.95q0 .95.2 1.4v.2q.004-.203.25-.4-.25-.25-.25-.7v-.5l5.75-3.6 2.75-1.85v2.5q.2.7.2 1.15h.25q-.25-.9-.25-1.15v-2.3-.45l3.65-2.25v-.25l1.4-.65q.4 0 .25.45.15.45.15.9l-.15.45h.15l.25-.25v-1.35q-.25-.2-.25-.45l.95-.65M-4.6 10.3q-.204.148-.45.15.26.006.95.45 0 .25.2.25l.5.2.2-.2h-.45l-.45-.45-.45-.25q-.242 0-.05-.15m-2.95.4l-.2.2q.44.44.45.7-.005-.312-.25-.9m2.75-6.15l.25-.25q-.246 0-.25-.15v.4m1.15-.7V3.4q.25 0 .45.45l-.2-.7-.5.25.25.45m.45.3q-.003.154-.2.4h.2v-.4m-.9-1.25h-.45v.5h.2l.25-.25V2.9m-.7-3.4h-.25v.95L-4.8.2v-.7m.45 2.5q-.2 0-.2.25v.2q.006-.208.2-.45m-.2-1.1v.2l.2-.2h-.2m.45-1.85v-.4q-.005.16-.25.6.25 0 .25-.2M-14.4-17.4q0-.194.2-.2-.393.004-.4.2h.2m3.2.95h.25v-.65q-.004.158-.25.65m-6.25-.8l.1-.15v-.15q-.003.146-.1.3m-5.35-3.55l-.75.2h.25q.5.25 1.6-.45.25-.25.45-.4-.2 0-.65.15-.5.5-.9.5m-.75-3.45v-.25q-.65.25-1.1.75-.45.2-1.15.65-.45.25-1.15.45h.9q.25-.2.45-.45.75-.2 1.15-.45.45-.45.9-.7m1.85 1.15l-.7.45 1.15 1.2.5.65-.25.2h.25l2.45 2.55q.25.45.25 0l.25.45.45-.7-4.35-4.8m-5.7-2.75q1.15-.7 1.35-.7l1.4-.65.65 2.25.25.25.7-.65-2.05-4.35-.5.2.75 2.05q-.95.7-1.2.7-.2.2-1.6.9-.9.25-.9.5h.25l.9-.5m47.3 59.6l-.25.25-5.95 12.75.65.45 3-6.85v-.25l2.3-4.75 1.55-3.9-.45-.45-.2 1.15-.65 1.6M8.45 6.55q-.2-.2-.2 0L8.7 7h.2l-.45-.45m-6.2 3l-.2 1.8h.2q.25-.65.25-1.8l.25-1.15H2.5l-.25 1.15M3.4 8.4l.25.65 1.15-1.1q-.7.25-1.4.45m23.8 3.45h-.5l-.25.15-.2 1.4-4.15 13.05-.4 1.8.9.45 1.55-5.5q-.2 0-.65-.2h.65l.5-2.3v-.2l2.05-6.85q-.246-.246-.4-.25h.4l.5-1.55m-1.65 4.05H26q-.2.004-.2.25-.25 0-.25-.25m36.8 19.9l-.25.7 4.3 2.5.25.2 3.4 1.85v-.45l-7.7-4.8m-17.4-16l-.7.25 2.55 2.3h.2l3.9 4.1h.25l2.7 2.25v.5l3.65 2.95-.25.2 3.7 3.25v-.75L51.6 26.2l-.25-.45-1.4-1.15.25-.2-5.25-4.6m-.9-10q0 .2-.2.2 0 .2.2.45v1.4q.15.35.2.6l-.2-2.65m8.45-4.35v.65l.9.25.25-1.65-.25.25-.9.5M68.45 23.7l-.45.45 2.55 1.6 3.6 2.05 1.6.9v-.45l-7.3-4.55m-1.8-.5l.45-.65L55.05 10h-.25l-1.6-2.25-.95.2.95.9v.2l3.4 3.9 1.6 1.35.25.25v.25h.2l6.85 7.05 1.15 1.35m17.6 18.75v-.9l-6.4 1.35-6.2-1.1v.4l6.2 1.4 6.4-1.15m7.5-12.1l.45-.65-7.75.9-6.85-1.4v.7l1.55.45h.25l4.85.9 7.5-.9m-32.4-36.5L58.2-7.6l.7 1.4q-.45.45-1.15.9l-1.15-.45.65.7q-.4.4-.65 1.15-.45.2-.65 0v.45q.45 0 .65-.25l1.15.9-.9-1.1h.2l2.75-2.75 1.35.65-1.1-.85q1.35-1.4 2.45-2.55l1.65.9-1.4-1.4q.95-.85 1.4-1.8l1.35.7-1.15-.95Q66.2-14.4 68-16.7h-.65q-.7 1.6-1.85 2.75l-.7-.45.7.9q-1.35 1.4-2.5 2.95l-.65-.9.4 1.15-1.15 1.15-1.55-.95 1.35 1.4-2.05 2.05m-16.9 1.6h.2v.4h.25v-1.1q-.25 0-.45.45v.25M50.2-17.6l.25-.45.25-.7h-.25l-.25 1.15M42.65-3.7h.25v-.2l-.25.2m0-2.5v-.25h-.2l.2.25m-.2-2.95h.2l-.2-.25v.25m0-.95v-.2q-.25 0-.25.2h.25m2.75-6.15v.25l.45-.25.2.25h.25q0-.45-.45-.95v.25l-.45.45m-.85-3.4q.45.05.85.2 1.6.7 1.8 1.4.45 0 1.15.85l.45 1.2v.2h-.2q-.25-.2-.5-.65h-.45q0-.25.25-.25v-.25h-.25q-.2 0-.2.25h-.7q.9.7 1.35 1.35-.2.25 0 .25.25.7.7 1.15.25.45.7 1.1.9 2.3 1.4 5.25.9-3.15-.5-6.55-.25-.5-.45-.95-.45-.45-.65-1.35h-.5q-.2-1.15-1.15-1.85l-.2-.2q-.25-.25-.7-.25-.85-.85-2.2-.9m-1.7-.7q-.2 0-.45.2l.25.25q.65.45 1.4.9.4 0 .9.25 1.1.7 1.8 2.05v-.7q.25.2.45.2l.25-.2-.7-.45-.7-.2v-.25l.5.25q-.5-.45-1.85-1.2-1.15-.4-1.15-.65h.25q-.5-.25-.95-.45m.25-2.05q0-.25-.25-.25l.95 2.75h.45q-.2-.45-.45-.9-.25-.65-.25-.9-.25-.5-.45-.7m6.6 2.75v-1.65q0-.65-.2-.9v.9q.2.25 0 .7v1.15l-.45 2.5h.25l.4-2.7m-2.05.65l-.65-2.05v.45q.45.7.45 1.6v.5h.2q-.2-.25 0-.5m3.7 5.25l.2.25q0-.45.25-.9-.25.25-.45.65m2.25-.2h-.2l-.45 1.5q.232-.663.65-1.5M32.2-11q.15-.4.4-.8-.25.35-.4.6v.2m8.2-1.35v.25h-.7v.9h-.45v.2q-.25.25.25.45v.25l-.5.2v.2h-.25v.95q-.2-.2-.4-.2h-.25v.2l.25.45.2.25v.2q-.2-.2-.2-.45-.25-.2-.45-.2l-.25.45q.2.15.25.4-.05-.2-.25-.2t-.2.45q-.25 0 0 .5h-.25v.25q-.25 0 0 .4.25.45.25.7l-.5-.45-.25.2h.25l.25.25h-.5q-.15.2-.15.45l-.25.65q-.25 0-.5-.15 0 .15.25.65l.25.45-.5-.2h-.2v.65l.2.45v.45l-.2-.45-.25-.2h-.2v.9h-.45l.45.7v.2q-.25-.2-.45-.2v.2l.2.45h-.4v.45q-.25-.2-.5-.2h-.25v.45h-.2v.5l-.25.2q0 .244.25.25h-.25v.65h-.45q0 .7.45.95h-.45q0-.5-.2-.5l-.25.25q0 .25.25.65h.2l-.2.25h-.25V2.7h-.2l-.25.7q0-.25-.25-.25v.9q.25.25.25.5l-.25.15q1.15.95 3 0l.45-.85q2.75.7 5.7.2.95 0 1.6-.2l.2 2.25v.25l.45 3.2V10l.25 3.65v.2l.5 2.5v1.85l.9-.2-.5-5.05-.2-.2q-.2 0-.45-.5.25-.65.25-1.1v-.45l-.25-.5V9.05q0-.2.25-.45h.2l-.2-.4-.5-.45h.25q.25 0 .25-.25V7l-.25-1.35h-.25V5.2q0-.25.25 0l-.25-2.05h-.25l.25-.65V1.3q-.25-.2-.25-.4l.25-.25Q43.1.45 43.1.2v-.7l-.2-.25.2-.45v-.2h-.45q0-.25.45-.45h-.45v-.25h.45l-.2-.7q-.25 0-.25-.2l.25-.45h-.45l.2-.45v-.5q-.45 0-.45-.25.25-.15.25-.4H42q0-.25.45-.7l.2-.25H42v-.2q0-.25.2-.25l.25-.4-.45-.5.45-.25q-.45 0-.25-.45h.25q0-.2.2-.2l-.2-.25q-.45 0-.45-.2l.45-.25-.45-.2h-.2l.4-.5h-.4v-.65q.2 0 .2-.25l-.2-.2V-11l.4-.45q-.4 0-.4-.25.2-.4.65-.25v-.15l-1.15-.95v.2h-.7q-.2.25-.2.5m-.25 2.25h-.2q-.25-.45-.25-.65h.45l.25-.95q.2 0 .2-.25v-.15q.25 0 .25-.25h.2l-.9 1.6v.65m-2.7 3.45h.45v.45l-.45-.45M39-8.7v-.45h.25L39-8.7m-.9.65l.25.25h.4l-.4.7v-.5q-.25-.2-.25-.45m-2.05 4.7q-.2.1 0 .1V-3l-.25-.25.25-.1m2.7-2.4l.75-1.1q.9.65 2.3 1.3v1.4h-.5q-1.35-.9-2.55-1.6M29-6.45l-.25.25-.45.2v.25h.9q.2-.25.2-.7l.25-.9q-.65 0-1.35.5v.4h.2q.25-.2.5 0m-5.05-13.7q.45-.2.7-.45.25 0 .7-.45-.7 0-.95.25-.45.2-.45.45v.2m-2.5.7l2.7-5.05-.65-.65-3.45 5.7h1.4m6.15-.45q-.4 0-.65.25h.65q1.15-.25 1.15-.5h-.9l-.25.25M26-23.3h-.65q0-.25-.25-.45l-.45-.25.7 2.95q.2-.4.65-.9-.194-.243-.45-.25H26v-.45h-.45l.9-.45v-.2H26m2.75 1.35q-.45 0-.9.25-.5.25-.65.4v.25h.15q1.15-.4 1.15-.65l.25-.25m6.15 8.45v.2l.25-.65h.45q.2 0 0 .45.2-.25.7-.65.4-.5.65-.25v-.5l-2.95.5q.25 0 .25.45l-.25.45q.5-.25.7-.45.2 0 .2.45m-3.45.45q-.45.2-.45.45l.95-.45q.7-.7.9-.7v.25l-.2.45q.2 0 .65-.45.25-.65.25-.9l-1.85.45q.25 0 .25.2 0 .25-.5.7M26-3.9l-.2-.25v.25h.2m-.9-2.95q-.2-.5-.2-.95-.5.7 0 1.8.2-.2.45-.2-.25-.25-.25-.65m0-2.3h-.2v.45h.45q0-.25-.25-.45m2.75.9l.2.2.25-.2v-.25l-.45-.2v.45m0-.7h.2q.25 0 .45-.2-.2 0-.65.2m1.8 1.15v-.7q-.45 0-.9.45v.7q.25-.25.9-.45m.25-1.15v-.2q-.7.2-1.15.45v.2q.65 0 1.15-.45m-2.95 2.3l-.25.2q-.45.25-.7.45h.45q.25 0 .25.25h.25V-6v-.65m.65-.95q-.25.25-.25.5l.7-.25q.25-.25.25-.7-.25 0-.25.25 0 .2-.45.2m-.65.25l.25.25v-.25q-.25-.25-.25 0m-1.4-1.8v.2h.9l-.9-.2m2.05.45h-.25q-.586.44-1 .45h1q.25-.25.25-.45m-1.15-2.5l-.2-.25-.45.45q.2 0 .65-.2m-.9-.25h-.2v.45l.2.25V-11v-.45m2.05-.9q-.4.25-.9.4h.25q.4-.15.65-.4m.25 2.45v-.2h-.25v.2h.25m.65.5h.25q0-.5.25-.5-.5-.2-.7-.2l-.25.2v.5q0 .25.45 0m3.45-3.45l.25-.2q-.5.2-1.2.95l-.85.9v-.25q0-.25.45-1.15-.95.65-1.4 1.15-.2 0-.2-.25.4-.4.4-.65-.65.65-1.1 1.15v-.25l.45-.5.45-.9q-.2 0-.9.75-.25.15-.25.65v.7h.25v.65q.45-.2 1.1-.45.95-.2 2.3-.45v-.2q0-.25.25-.9v-.25-.5m-.7-.45v-.2l-.65.65q.4 0 .65-.45m-.65-3.4v-.2q-.004.204-.25.45l-.45.45-.5.2-.4.45-.25.25q.25 0 .9-.7.95-.65.95-.9m1.1.25h.5q0-.246.2-.25h-.7v.25m2.3-.5v.25l.25-.25H34m.7-.45h.2l-.2.2q.9.25 1.1.25h.75v.25l.15.25v-.25h.25v.25h.25q.7 0 .7.45.2.2.45.2 0 .45-.25.45-1.55 3.25-.65 5.7l2.05-3.85-.95.45h-.2l.2-.25 1.4-1.1.2-.25q-.45.25-.65.25-1.15.45-1.4.45h-.2v-.2l1.1-.95q-.25 0-.25-.25 0-.45.25-.65.5.2.5.45.45.2.65.2l-.45.45q.45-.2.7-.2 0-.246.2-.25h-.2q-.9-1.1-2.05-1.35h-.25q-.9-.7-1.8-.9-1.4-.25-3 0H31.7q-.45.2-.7.4h2.3v-.2q.25 0 .7.2v-.2h.5v.2l.2-.2m3.65-1.35q-1.15 0-2.05-.25-.95.25-1.4.25 0-.25.25-.5-.25 0-.25.25h-.2l-1.4.5q-.2.2-.65.45 1.85-.25 3.15-.25h.25q.9.25 1.6.45h.25q.85.45 2.05 1.15.2 0 .45.25.65.45 1.4 1.1 1.1 0 1.1.95.2.45.45.9.5.2.7.45v.2q1.8 2.75 3.65 7.1h-.45q-.25.45-.45.7-.95-3.45-2.3-5.7-.25-.45-.45-.7-.2-.5-.7-.9-.25-.5-.45-.7v.2l.7 8.2q.9.5 2.25.75-.2.45-.45 1.1-.65 0-1.15-.45h-.2q-.2 0-.45-.2l.25 2.25h.2q0-.45.45-.65.9-.95 1.6-.95.25 1.15.9 2.05l.25.25Q47.9.2 48.6.9q.005.2.7.2v.45q.45 2.3 0 4.55.45.25.65.25l1.4 13.2-.2.25.2.9h.7q-.9-4.55-.45-15.05 0-.2.45-.2l.2-.5q.5-.25.5-.4.65-.7 1.1-2.3V1.1h.25V.9q.2-.25.2-.45V-.5l-.2-.45q-.25-.25-.45-.25.2-.2.45-.2 0-.45.7-.7v.25l.25-.5q.15-.25.65-.65.15 0 .25-.15v-.3h-.75l.95-5.25.45-.45q.45-.75.9-1.15l1.4.2-1.15-.65q.7-1.35 1.8-3l1.15.25-1.15-.45q1.15-1.85 1.6-3.45-.65 1.4-1.35 2.5l-.9-.45.65.95q-.65 1.1-1.1 2.05l-.7-.5.45.75q-.436.533-.45.95v.15l-.5.25q-.2.45-.4.85h-.45l2.5-13.2-.7-.65-6.15 6.35v.2l-1.85 1.85q.25 0 .5.45l.2.25.9-1.15q-.2.45-.2.7v.2q.2-.45.45-.9v-.2l.7-.45v-.25l2.45-2.55.5-.4 2.05-1.8.25-.75v.9l-1.4 7.35-.2.2-1.35 5.7-.95-.9.95 1.35q-.75.75-1.2 1.4-.45.65-1.1 1.55l-.25.25-1.35-.9-.25-.45.25.7.9 1.15q-.25.2-.25.45-.45.2-.45.45h-.2q0-.45-.25-.9.25-.5 0-.75-.2-.4-.7-1.1V-6q-.7-3.65-1.8-6.1-.25-.75-.25-.95-.45-.7-.9-1.35-.45-.95-1.15-1.6l-.7.65q-.45.45-.65.45l.45.25-.25.25q0 .25-.2 0h-.5v-.5h-.2q-.2 0-.45-.2l.9-.45q.9-.25 1.15-.45l-1.8.45-.25-.25.65-.2q.25-.25.5-.25v-.2h-.5l-1.8.45q0-.45.65-.45h.25v-.25h-.9q-.25 0 0-.25-.45.25-.65.25v-.5l.2-.4q.65 0 .9-.45l-1.6.45h-.25l.75-.45q.4-.45.65-.7l-2.5 1.15h-.25l.7-.7q.45-.45.9-.7-.25 0-1.8.5l-1.6.45h-.45l-.25-.25q0-.2 1.15-.45M54.8-5.3l-.5-.7q.25-.65.75-1.1l-.25 1.8-.7 2.95h.2q0 .25-.2.25-.25.25-.45.25-.25-.5-.7-.95H51.6q0-.2.45-.65.7-.45 1.15-1.2.45-.4.65-.9l.95.25m.4 2.3h-.15v-.25l.15.25M42.9-17.4l-.25.2h.25v-.2M39-19.9h-.35q-.32.012-.75.25 1.8-.25 2.7 0 .246.197.25.4.003-.2.2-.2h.75v.2l-.5.5q-.45.25-.45.45.2-.2.7-.45.9-.25 1.1-.25.25 0 0 .25l-.2.45q-.246.246-.45.25h.45q.45-.25.65-.25.25 0 0 .25v.4q.008-.206.25-.4h.5q0 .45-.25.45l-.25.2.5.2h.65v.5q.45-.25.7-.25h.45q-.45-.65-.7-.65h-.2l-.5-.45q-.4-.45-.9-.7-1.35-.7-2.75-1.15H39m-.25.65h.35q.4-.01.4-.2-.5.2-.75 0v.2M13.45-7.8v-.45q.25-.7.7-1.4-.9.7-.9 1.6v.65q.006-.206.2-.4M15-11.2q-.408.004-.85.2-.45.7-.7 1.35.25-.25.25-.45.45-.65.9-.9.194-.194.4-.2m-1.55 5q.25-.25 0-.25 0 .25-.2.45.2.7.2.95.25-.25.25-.7V-6l-.25-.2m1.15-2.05l-.45.2v.65q.006-.206.2-.4 0-.25.25-.45m2.05-3.45l.2-.65q-.45 0-1.3.25l-.25.65h.25q.85-.5 1.1-.25M3.9-2.35v-.45l-.25.45H3.4q.25.25.5 1.15v-1.15m.2-2.7h-.2v.4l.2-.4m0-.7L4.35-6H4.1v.25m0-1.1h-.2q-.496 1.092-.5 2.4.008-.27.25-.85.25-1.15.45-1.55m.25 4.5q-.246 0-.25-.15V-1.65l.25-.2h.45q-.447-.248-.65-.25.2-.002.2-.25m-.7-1.55v.65q.25-.2.25-.45v-.8q-.008.358-.25.6M6.6-8.05v.45h-.45q-.2.25-.45.5l-.15.2q.158-.2.4-.2v.25L5.7-6v.25L4.8-4.4l.4-.25q.25-.4.75-.4h.2q-.208.006-.7.4-.4.5-.4.75h.15l-.15.2q0 .25-.25.7l.25-.25h.15V-3q0 .2-.15.2-.25.45-.25.7l.4-.7q.5.2 0 .7l-.4.45q.25 0 .25.25l-.25.2v.7h.25q.15 0 .4.2v-.2h.25q.25 0 0 .7v.2q.008-.208.25-.45 0-.45.2-.45.7 0 .7.95l-.25.65q.45-.65.45-1.15.45-.9.25.25.2 0 .45-.25H8q.25 0 .25.25L8 .45l-.95.65q0 .65-.45.45h-.2L6.15.9q.25-.45-.2-.95 0 .5-.25 2.05h-.5v-.25l-.15-.2V1.1Q4.8 2 4.8 2.25v.25q-.45-.25-.45-.5H4.1q0-.25.25-.7 0-.65.2-.85V.2q0-.25-.2-.25L4.8-.5l-.25-.25.25-.45h-.7v1.15h-.2q-.5-1.8-.5-2.3-.2-.45 0-1.55l-1.6.45.25-1.2q0-.9 1.15-1.8-4.5 1.15-7 2.5.4-.2.6-.2v.25h1.35q0 .2-.9.45-.45.2-.65.2l.2.25q0 .2-.2.65-.25 0-.5.25h.5v.25h.2q0 .2-.2.45v.9h-.5q-.196.44-.2.7.01-.25.45-.25.25-.45.45-.45h.25v.2q-.25.25-.55.65.4-.5 1.25-.85.15 0 .15.45l-1.1.7q-.9.45-1.35.9v.2l.2-.2q.45-.25.95-.45v.45l-.25.45q-.45 0-.45.25l.2.25-.2.4.2.25q.5-.25.5 0 .2-.65.45 0 0 .45.2 1.55h.25l.25-1.3q.15 0 .4.65v-.2h.7v.45q-.2-.25-.45-.25v.25l-.25.4q-.4 0-.4-.15-.25.65-.25.9-.45 0-.45-.5v-.6q-.004.206-.25.6v.5q0 .2-.2.2v.25l-.5-.25h-.2v.45q-.25 0-.25-.9v-.5h-.2q-.246 0-.25-.15v.15q-.7-.15-.45-2.45 0-.25.2-.5v-.2h-.2q-.25 0-.25.2l-.2.25v-.45l.45-3.2q.45-.45.7-1.15v-.45l.2-.2q.05-.05.1-.05.033-.044.05-.1l.3-.3q-.2 0-.45.2Q-5.7-2.35-5.5-.75l-1.6.7q.25-1.6.95-2.3-5.3 1.85-7.8 3l.7-.2q.45.2.45 0 .45-.5.7-.25v.25q0 .45-.45.65-.9.45-1.4.65V2q.5-.25.7-.25V2l-.45.5q-.25.2-.25.4.5 0 .7.25-.45 0-.45.25 0 .45-.25.45v.2q.5.9.5 1.4l-.5.45q.488.195.5.55V6.1l.2-.65q.45 0 .45.65v.45q.004-.212.25-.9l.2.9.25-1.1h.2q.25 0 .25.45v.45q.2-.25.45-.7l.25.25v.2l-.25.45q0 .45-.45.45l-.25-.45v.25l-.2.2q-.25 0-.45-.2v.45q-.692 0-.7-.25v.75l-.2-.25-.5-.5v1.6q0 .25-.2.25-.25-.25-.45-1.85l-.25-1.35.45-.45v-.25l-.2-.25.2-.15q0 .15.25.4 0-.65-.45-1.1v.2h-.25v.9q0 .7-.65 1.15v-.65-.9q.2-.5.4-1.15v-.25l.25-.65v-.25h-.25V2h.25q.25-.7.25-.9-1.15 1.15-1.4 2.75l-1.1.2q.2-.65 1.1-1.8-1.8.65-2.95 1.35-1.65.45-2.3 1.1-1.35.95-2.05 1.65-1.8 1.85-6.4 1.4 3.65 2.45 7.3 3.4.5 0 1.15.2Q-11.2 10-1.6 7h.45q2.1-.65 4.55-1.55h.25l.45-.25q.45-.25 1.1-.25.75-.4 1.65-.9.65-.2 1.6-.45v-.2q.65-.25 1.1-.5l.25.25q7.05-3.2 14.15-7.3.45.7.95 1.15l.2.9h.25v.25q.2 0 .2.2.45.25.9.7L26-.5h.45l.25 6.15q.25-.2.5-.2-.25.2-.5.45l-.25 2.3 1.4.2V7l-.5-.2v-.25l.5.25-.25-.45.25-.25-.5-2.95h-.15l.15-.25V-.05h.25v.5q.45 1.1.9 1.8-.2-.7-.2-1.35.9.2 1.6.65.7.45 1.1.7.45 0 .7-.5l5-9.8q-1.1-2.25-.4-4.8l-.5.5q-.65.9-1.1 1.6l-.2.2q0-.2.2-.45 0-.45.45-1.1.45-.9.65-1.15-.25.25-1.1 1.15l-.7.65v-.25q0-.25.5-.9.2-.25.65-.7-.9.45-1.6 1.35-1.15 1.2-1.35 1.65h-.25l.25-.25V-11q-1.6.7-2.8.7l-.2.65q.45-.25.7-.25h.25l.15-.1q-.143.1.05.1.65-.4.9-.2.7-.2 2.3 0 0 .2-.45.2-.7-.2-1.4 0l-.25.25q0 .242-.1.45.108-.208.35-.45v.7l-.25.45q0 .45.25 1.65h-.45q-.248 0-.25-.25-.003.25-.4.25.2-.25.2-.75l.2-.65V-9.4q0-.25-.4.25h-.25v.2h.45v.25q-.2 0-.65.2v.9l.2-.2v.2h-.45v.25q-.5 1.6-.25 2.05 0 .25-.25 0-.2 0-.2-.45-.004.2-.9.45-.242.775-.05 1.45-.206-.675-.4-1.45v.25q-.25 0-.5-.25v-.45l.7.2v-.65-.65q-.2 0-.7.2-.15.45-.15.65v1.35h-.25l-.25-.4h-.25q-.2 0-.45.25l.25.15v.95l-.25.45q0 .25.25.45h-.45q-.45 0-.7-.65-.2-.7-.2-1.35v-.25q-.25 0-.5-.25v-.45-1.1-1.85-1.4q0-.65.7-1.1v-.25h-.45q0-.492.25-.5-.5.004-.5.5v.25l-.45-.25q0-.5.45-.65h.7q.25-.25 1.35-.75 1.6-.2 1.85-.2.2 0 .45.2H29v-.2q.4-.45.65-.25.242 0 .25.2v-.4l.7-.25q.2 0 0 .25v.45l.65-.45q0-.25.2-.45l-5.2.9 1.35-.9 10.3-1.4q0-.45-.25-.65h-.45l-1.15.2v-.65l-.25.45h-1.1v-.45q-.7.65-.95.65h-.2v-.2l.45-.45h-.25q-.65.65-.9 1.1l-.2-.2V-16q-.25.45-.7.65h-.25l-.45.45v-.45-.65q-.25 0-.45.2-.65.25-1.8 1.15-.25-.25-.25-.45l-.25.7h-.2q-.25 0-.7.25l-.25-.75.25-.2-.9.45h-.45v.7q-.25.45-.7.45-2.25.45-4.55.9-.95.5-2.3.65-.65-.15-1.35 0-.25 0-.7.25-.25.5-.45.25-.45.25-.45.45l.25-.2h.4v.2q.25 0 .45.25h.25q0 .2-1.35.2 0 .25-.2.45h.2q0 .2-.2.45-.246.492-.45.3.204.2.45.2h.2l-.7.9q-.7.45-.9.9.2 0 .45-.45.2-.25.7-.25.25 0 .25.25v.2h-.25q-.496.496-.7.5.202.002.45.25 0-.5.25-.5v.5l-.25.2q-.45.2-.7.45.25 0 .45-.25h.5v.25l-.5.45-.65.45v.9q.45.25.45.5l.2.2q0-.2-.2-.45v-.25h.2q.25 0 .25.25l.25.7v-.25l.25-.95.2.25v-.25H16q.2 0 .4.25 0-.25.7-.25h.25q0 .25-.25.25h-.7v.5q0 .2-.4 0v.45h-.45v.2q0 .45-.25.45h-.5v.45h-.2l-.25-.45v-.15q-.003.157-.2.6v.5Q13.7-3 13.7-3.7v-.95q.2-.004.2-.4l-.2.25q-.25 0-.25.15H13q-.25-.65 0-1.8v-1.8h-.5l-.65.45q-.2-.7 0-1.35.25-.5.25-.75h-.7q-.2.25-.9.25-3.45.95-5.3 1.6-.65.45-1.1.7h.45q.25 0 .9-.25h.5q0-.2.2-.2l.45-.25m20.1-5.9v-.45h.25v.45h-.25M-20.1 9.3v.25h-.65v.25l-.7-.25q0 .25-.25 0 0 .45-.2.45h-.25l-.25.2h-.2q-.45 0-.45-.2h-.25q-.25 0-.25-.45l.25-.5.5-.2v.7q.2 0 0 .45.4-.2.4-.45v-.7h.25l.25.2q-.25.25 0 .5.2 0 .45-.7v.2l.45.5.65-.5q.25-.2.25.25m38.15-21.9h.2l.45.25q0-.492-.35-.5h-.1l-.2.25m14.15-8.2q-.25 0-.25.2h1.35l-1.1-.2m-2.8-4.8l.25-.25 1.6-2.5.2-.25 3.05-4.55.4-.25.25-.9V-32.9l.45 2.3v.4l.2 1.15v.25l.25 2.75.25.45.4 4.55h-.15l-.95-.4h-.25q.7.15 1.35.65v.9h1.2l-2.55-15.3-.2.25v-.25h-.25l-9.55 15.3q.45.25.65.25h.95v-.25h-.5v-.45L26-20.6h.45l.5-1.35 2.45-3.65z"/><path fill="#414141" d="M20.55 33.55q.2.2.65.45.5.2.7.2l-.45-.45q-.45-.2-.9-.45v.25m-1.6 11.15v-.25q0-.65-.25-1.1 0 .9.25 1.35m-1-3.55q.3.688.3 1.25.25.25.45.95 0-.45-.2-.95-.234-.563-.55-1.25m2.1-14.05q-1.1.45-1.35.7.95-.45 1.6-.7l.45-.4q-.2 0-.7.4m9.6-5.7q-.45-1.35-1.8-2.75 1.35 1.6 1.55 2.75h.25m-3.2 2.3v-.5q-.65-.2-2.05-.2l1.4.2q.2 0 .65.5m14.15-4.55q.25 0 .45.2.25-.85 1.05-1.75-.85.9-1.5 1.55m11-50v-.25q-.45-.25-1.85.25 1.4-.25 1.85 0m-7.75 1.15l1.1.2q-.7-.2-1.1-.45-.25.25-.25.45h.25v-.2m-12.4-2.55q.25-.4.25-.65h-.45q.2.25.2.65M21 37.15q.45.5 1.1 1.4-.2-.75-.9-1.6-.65-.95-1.55-1.6.4.65 1.35 1.8m1.1-10.7q-.4-.25-.9 0h.9M17.35 40.1v.25l.4.4q-.2-.25-.4-.65m2.55-6.35q-.5.25-.95.25-1.15.4-2.55 1.8-.9.75-1.5 1.4.6-.6 1.75-1.2.95-1.15 2.3-1.8.45 0 .7-.2l.25-.25M24.15 23h-.65q.45.2.65.2V23m.5-2.5v.2l1.15-.45q-.45 0-1.15.25m-2.05 1.85v-.5q-.25 0-.7.25-1.15.7-2.25 1.6.25 0 .25.2.85-.7 1.55-.9.45-.65 1.15-.65m0-6.2h-.25q-.65.2-1.15.7.7-1.15 2.3-3-1.4 1.4-2.5 3l-1.1.65v.25l2.7-1.6m5.45-3.2q-.7.25-1.35.45h-.4q.154.004.4.25.9-.25 2.3-.45 1.6-.25 2-.45-.85 0-2.95.2m-.2-6.85l-.25.25q1.6-.9 3.4-1.65-1.35.25-3.15 1.4M25.8 12v-.15h-.25q-1.15.9-2.05 2 .9-.9 2.3-1.85m.2 3.9h-.45q0 .25.25.25 0-.246.2-.25m-2.7-7.95h.2q1.15-.7 1.85-1.15 0-.246.2-.25h-.45q-.45.25-1.15.45l-.65.75v.2m.65.45l-.65.65v.25q1.1-.9 2.25-1.55V7.5q-.9.45-1.6.9m2.75-2.5q.25-.25.5-.45-.25 0-.5.2-.25 0-.45.45.2-.2.45-.2m.5-2.75h.65q.45 0 1.55-.25.935-.394 1.2-.4h-1.4q-.9.4-1.85.4l-.15.25m-.95-1.6q-.25.2-.7.7-.65.25-1.85.9-1.8 1.15-1.8 1.55.2-.15 2.5-1.3.5-.5 1.15-.9l.7-.75v-.2m5.95 6.4l1.8.45-2.05-.65q-3.2-.75-4.1-.95l-.5-.25v.25l.5.2q1.35.25 2.3.75.65 0 2.05.2M75.55 39.7q-.9.9-1.4 1.35l.5.25.9-1.4q.65-.7 2.05-2.1-.9.5-2.05 1.9m-9.35.9q.2-1.15.45-1.4l-.25-.2q-.2.45-.65 1.1l-.7 1.6v.45h.25q.2-1.1.9-1.55m-1.65-4.1l.25.2.7-.45q.9-.65 1.85-1.4-.95.25-2.05 1.4-.5 0-.75.25m6-10.75q-.9.7-1.65 1.35-.65 1.15-.9 2.3.25-.2.45-.9.45-.7.7-1.15.65-.9 1.4-1.6m1.8-.45l.25.2q.45-.65 2.05-1.35-.25 0-1.4.7-.65.2-.9.45m1.15 4.55q0 .25-.25.9v1.4l.9-4.35q-.2.25-.45.45 0 .45-.2 1.6m5.9 0h-.25l-.4 2.5q0 .25-.25 1.2v.85h.25q.4-3.4.4-3.65l.25-.9m-24.2 3.7q-.9.65-1.55 1.8.65-.7 1.55-1.35.75-.7 1.85-1.4.2 0 .2-.25l.25-.2q-1.1.65-2.3 1.4m-4.05-7.1h-.25q-.45.45-1.4 1.1-1.35 1.15-1.6 2.3.25-.2.7-1.15.7-.45 1.15-.9.45-.45 1.4-1.35m4.05-.25q-.4.5-1.1 1.15 1.6-1.4 2.5-2.05-.2 0-1.4.9m-1.35 2.5q-.65.25-1.8.7-1.15.45-2.3 1.35l.45.25q1.6-1.35 3.65-1.8v-.5m4.35-.2l-1.6 1.6h.45q.2-.45 1.4-1.4 1.35-1.35 2.05-2-1.15.85-2.3 1.8m-3.4-3.9q1.15-2.05 1.35-2.05-.45-.2-1.85 1.85-.65 1.35-.9 2.05v.25q.45-.95 1.4-2.1m-3.9-.7v.25q1.05-.85 2.9-1.3-1 .2-2 .35-.65.5-.9.7m6.85-7.55q.45-.85.9-1.55h-.2q-.45.25-1.2 1.55-.85 1.85-1.1 2.3v.5h.25q.2-.5 1.35-2.8m-8 6q-.25.2-.25.65h.25q0-.9.95-2.05.2-.7.45-1.15l.2-.25q-.45.25-.45.5 0 .2-.7.9-.45.9-.45 1.4m-2.75 0h-.2q-.25.2-.45.65l-1.15 1.85v.45h.2q.95-1.4 1.15-2.1 0-.2.45-.85m-3.15-5.75v-.25q-.75.5-1.4 1.15.65-.4 1.4-.9m-.5-2.75v-.2q-.45.2-1.55.65-2.3.95-2.3 1.2v.2h.2q.25-.45 2.1-1.15.65-.45 1.55-.7m3.6-.7q-.35-.2-1.3-.2l-.45.25v.2l.45-.2q.95-.2 1.3-.05m2.35 5.05l.2-.2q-.9.45-1.8 1.15-.9.4-1.35.4v.25q.45 0 1.35-.45 1.15-.9 1.6-1.15m-4.35-7.05v.2q.45-.2 1.15-.65.35-.15.85-.4-.55.15-1.1.4-.65.45-.9.45M43.1 10v-.45q-.65.45-1.1.65-1.6.5-2.05.7l.2.25q.45-.25 2.3-.95.45-.2.65-.2M42 6.35q-.7.65-.7.9.5-.45 1.35-.9V6.1q-.2.25-.65.25m2.5.45l.25.2H46.8q-.45-.2-.95-.2H44.5m2.5 7.75q1.15 0 1.6-.45h-.45q-1.05.4-2.3.45H47m11-2.7h.2q.7-.5 1.85-1.15 1.35-.9 2.3-1.4-.95.25-2.3 1.15-1.4.9-2.05 1.4m-.5-1.15h-.25v.2l1.65-.9q-.7.2-1.4.7m-.45-2.75q-.9.65-1.35 1.1v.25l1.35-1.35m-3.85 1.1v-.2q-.7.7-1.4 1.6.95-.9 1.4-1.4m14.6 11.9q-.443.443-.7.45.904-.002 1.8-.45-.2-.25-1.1 0m-3 1.4q.25-.25.7-.5-.7.25-1.6 1.15.25 0 .9-.65m-3.85-7.8v.25h.2q.45-.5 1.6-1.4l-1.8 1.15m22.1 11.65q-.85.9-1.6 1.6-.65.7-.9.9h.25q.65-.45 1.4-1.15l.85-1.1v-.25m-39.7-49.95h1.15l.25-.25h-.9q-1.2.25-1.4.25-.25.2-.45.45v.2h.2q0-.2.45-.45.45-.2.7-.2m3.65 1.8v.25q.9-.25 1.15-.25-.25-.25-1.15 0m9.4 8.2l.2-.2q-.9 0-1.4.45h.5q.25-.25.7-.25m-3.65-2.9v.2l.15.15q-.144-.15-.15-.35m0-3.5v-.2l-.25-1.1-.45-.25q0 .25.7 1.55m1.8-3.15h-.25v.9l.25-.9m4.55 3.15l-.2.25q.9 0 1.6-.45 1.1-.25 1.1-.45l-1.55.45q-.5 0-.95.2m-1.35-1.3l.25.15v-.15h-.25m-2.05 2v-.2l-.5.4v1.4q.25.9.5 1.4v-3m-1.15 6.4q0-.422.45-.45-.7.02-.7.45h.25m2.7-12.1l.5-2.75h-.5l-.2 2.75h.2m-7.95-.2q-1.15.4-1.85.4v.45q.7-.2 3.9-1.35-.9.25-2.05.5m-5.45-1.2q.4-.2 1.35-.2v-.2q-.95-.25-1.6.2-.25 0-.7.9l.2.25q.25-.45.75-.95m2-5.25v-.45q-.2-.2-.45-.2.25.2.45.65M26.45-.5H26q-.2 0-.45.2-.2.25-.65.25-1.2.95-1.2 1.15.25-.2 1.4-.9.25.25.45 0 .7-.25.9-.7M24.4-1.85l.5.45h.2q.25 0 .45-.25h-.65l.45-.2v-.25q-.45.25-.95.25M39.95-24.5q-.45.25-1.4.5v.25H39q.5-.25 1.15-.5.7-.25.9-.7-.45 0-1.1.45m-21 5.05h.7l.25-.2q-.25 0-.95.2m-2.55.2q.2-.15.25 0-.05-.2-.25-.4-.2-.25-1.35-.5h-.25v.25l1.2.25q.2 0 .4.4m.95-2.95v.25q.25 0 2.05-.25.9-.45 1.6-.45-.45-.2-1.35 0-1.6.45-2.3.45m18.95-3.4l-.25-.45q-.7.45-.9 1.55.2-.65 1.15-1.1m-.7-4.6v-.4q-.25 0-.25.2l.25.2m3.9.25v-.25l-1.4.7q.65-.2 1.4-.45m-5 2.75v.45q.2-.7 1.1-1.6l.2-.45v-.25q-.2 0-.45.45-.85.95-.85 1.4m-3.05-1.4l-.2.25v.45q.45 1.15.45 1.85l.25-.25q-.25-.9-.25-1.6-.25-.45-.25-.7m3.45-4.8l-.4.25q.2.25.4.25h.25v-.1q-.008-.4-.25-.4m-3.2 1.6h.2q-.203-.006-.3-.1l.1.1m7.05-.65l-.85.65q.45-.2 1.1-.45.95-.65 2.05-1.15-.65.25-2.3.95m.25-3h.5q0-.25-.5-.45v.2q-.25.5-1.1.95h-.45l.2.25q.7-.25 1.35-.95m-5 4.6v.25h.25q.25-.5.65-1.2l-.9.95m-4.35 5l-.25.25v.65q.25.25 0 .45v.75h.25v-2.1m-.25-2.25l.25-.25H28.3q-.25-.45-1.35-.7l-.25.25h.25q.9.2 1.1.45l1.35.25z"/><path fill="#CCC" d="M-60.7 32.15l3.15-.45.25-1.2-3.65.5.25 1.15m10.45-.9v-.9l-4.55.15-.2 1.2 4.75-.45M-38.6 31l.25-1.15h-3.9V31h3.65m17.6-6.4l-.25-.9-4.1 1.6v.9l2.75-1.15h.2l1.4-.45m3.65-42.15v.15l1.6 2.05q.65-.45 1.15-.65l-2.75-2.3-.45.7h.45v.05m-4.35-5.55v-.2l-1.35-2.05-.7.65.2.2v.25l1.15 1.6.7-.45m-4.1-7.75l.2 1.35.5-.2-.7-1.15M22.6 28.7l-.9-.45-.95 2.75.45.45.5.25.9-3m-8.9 18.05L13 48.6l.7.65.65-2.05-.65-.45M2.5 8.4q-.25.2-.45.45l-4.15 2.3.25.2.7.5h.25v-.25l3.15-2.05.25-1.15m1.15.65L3.4 8.4h-.65L2.5 9.55l1.15-.5m23.05 2.8h1.35l-.2-3.45-1.4-.2.25 3.65M70.05 40.6v.45l1.6.65v-.4H71l-.95-.7m-9.1-5l.45.4.7.5.25-.7-1.4-.95v.75m16.65-6.9h-.65l-1.2-.45v.45l1.4.7h.45v-.7M44.75 18l-.9.2.2 1.6.2.25.7-.25v-.25l-.2-1.55M46.8 2.5v.4l.45-.9.2-.45q-.2.2-.65.95m0-.95q-.246 0-.45.2V2l.45-.45m1.8 1.15q-.004-.197-.45.2l-.45.25.45.25.45-.25h-.45l.45-.25.25-.4h-.25v.2m3.45 5.05l.2.2.95-.2h-.25l.45-1.4-.9-.25-.45 1.65m3.65-6v-.2-.9l-.5-.2q0 .2-.4.65-.5 0-.5.45.5-.25.9-.9v.45q-.15 0-.4.2l-.5 1.2q-.2.4-.2.65.2 0 .7-.65h.25v-.25q.15 0 .65-.5m-.65.25l-.15.2q.15-.22.15-.45l.15-.2-.15.45m11.6 21.2l1.35.95.45-.45-1.35-1.15-.45.65M54.8-1.85v-.25q-.7.25-.7.7-.25 0-.45.2.2 0 .45.25l.2.45v.95q0 .2-.2.45l1.1-.45q.5-.25.75-.25v-.7l-.25.45q-.25-.25 0-.45-.25-.25-.65-.7-.25-.45-.25-.65m-10.3 0v.65q0 .45-.25.7V.65l.5.25.2.2q-.2 0-.45.45-.45-.9-.65-.9-.25.25.4.9.7.45.95.95l.2-.25v-.7h.25v.95q.2-.5.2-.75h.5q.2-.204.2-.45l.25.25h.2q.25-.25.45 0V2.7q.25 0 .25-.2h.7q.2-.25.2 0 .242-.242.45-.25h-.45l.25-.25-.25-.25v-.2l.25.45.25-.25h-.25v-.2l-.25-.45v.4q-.006-.206-.2-.4-.25.45-.5.65-.194.242-.2.45v-.65q.2-.45.7-.45h.2V.9q-.7-.7-1.35-1.4L47-.75q-.65-.9-.9-2.05-.7 0-1.6.95m3.65 3.4V2h-.25q0 .25-.2.25l.45-.7m-2.5-.45h.2v.45l-.2-.45m-.9-.9l.2.25v.2q-.2 0-.2-.2V.2m.45.7V.65q.2.25.45.25l-.25.2q-.2 0-.2-.2m3.7 2.25h.2q-.25.25-.5.25-.45.2-.45.45h.45q.25-.45.7-.7V2.9q-.197.246-.4.25m.2.7h-.25q0 .45.25.45v-.45m-8.05-17.8q-.2-.2-.45-.2l.7 1.1h.5l.2.45.9-.25v-.65h-1.6q0-.45-.25-.45m18.75-9.6v-.7l-2.05-.7 1.15 1.65.9-.25m-11.2-8.7v-1.6q-1.35.7-2.25-.2l-.25 1.15 2.5.65m5.5 29.9q-.45-.45-.9-.45h-.25q.45.45.7.95.2 0 .45-.25.2 0 .2-.25h-.2m-44.55-9.1q-.2 0-.65.45h-.45q-.2 0-.45.25-.195.196-.4.2.15-.006.15-.2 0-.25-.25-.25-.45 0-.65.45l-.25.25v-.45q-.2 0-.45.2l-.2.45v-.45q-.25 0-.75.25h-.15l-.25.2-.45.2H3.9l-.25-.2q-.25 0-.45.2-.2.25-.45.25v-.25h-.5l-.2.25v-.25H1.8l-.65.75v-.25q.25-.25 0-.25l-.2.5h-.5q0 .2.25.2-.25.25 0 .25h.9v-.25q0-.2.2-.2h.25q.2 0 .7-.25-.25.25 0 .25h.45l.2-.5v.5q.25.2.5 0v-.25h.2l.25-.25q.2 0 .45-.25.25.25.4.25v-.25h.5l.25.25v-.25l.45-.2v.2h.2q.25-.2.25-.4.2-.25.45-.25v.25l.2.2H8l.45-.45v.25h.45q.2-.25.2-.45.25-.25.45-.25l.25.25h.05q.204-.004.45-.25l.2-.2v.45h.45q.25-.25.25-.45l-.25-.25v-.5q0-.15-.25 0l-.4.5q-.25.25-.5.25v-.25h-.25m4.15-5.75q-.7 0-.95-.4-.25 0-.4-.25-.25-.2-.5-.2l-.45-.25q0 .25 1.1.9 0 .2.5.7-2.7-.25-5.25.45-.45-.2-1.8-.7.65.5.9.7-1.65.25-3.85.9-.25.25-2.3.7l-2.3.5h-.5q-1.1-.25-1.8-.5-.45-.25-.65-.25-1.6-.2-1.85-.45l-3.4-.45-3.9.7q.45.2 1.6-.25 1.6-.2 1.85 0 .2 0 .2-.2l3.45.45q.45.45 1.55.45l.95.25q0 .25.7.45-.7 0-2.3.2l-10.3 1.3 8.25-.85q3.2-.2 6.15-.65 2.55-.45 5-1.15 2.55-.7 4.35-.9H8q-.7.2-1.4.9-1.4 1.15-2.05 1.35-.65.7-1.15 1.15-.9.5-1.35 1.15-.45.25-.9.7-.2 0-3.65.65l3.65-.2q0-.45 4.05-3.2 3.5-2.3 3.5-2.5 2-.45 4.75-.7l.45.25v-.25q.25 0 .45.25 1.2.45 2.75.9 0 .2.7.2h.45l3.85.7q.25 0 .25-.25 2.05.25 4.1 0 .5-.2 1.15-.2h.45q.7-.25.95-.45l.4-.25.5-.2.45-.45q-1.35 0-7.75 1.1l-5.25-.45q-1.35-.45-2.05-.65-.5 0-.95-.25l-.2-.5h-.45v.25h-.25l.25-.25M-1.15-8.95h.45l.7-.2q-.25-.25-.7-.5-.2.25-.45.5v-.25q-.45-.25-.45.25l.45.2m-1.6 0v-.2q0-.25-.2-.5l-.45.5q0-.25-.5-.25-.2 0-.2.25l-.45.45q.45.2.45 0l.2-.45v.65h.5l.45-.45q-.25.45.2.45l.25-.45q.25 0 .25-.2l.15.45h.25l.25-.25v-.2l-.25.2v-.7q-.25 0-.65.5l-.25.2m-1.8-.45h-.25v.25l-.45.2q.2-.2 0-.2h-.45l-.25.2q-.2 0-.2-.2h-.25q0 .2-.45.65l.25-.45q0-.2-.25-.2h-.25l-.2.2v-.2q0-.25-.25-.25-.197 0-.2.25-.004-.258-.25-.75-.2 0-.2.75h-.5v.65h1.15q0 .25.25.25h.9v-.25q.25.25.7.25v-.25l.2.25q.45 0 .7-.45h.25v-.7m-16.9-3.2q-.25 0-.45-.25 0 .75-.25 1.15v.25q.25.25.45.25h.25q0 .2-.25.45h.7v.2l.4.25q0-.25.25-.25v.25h.5q.2-.25.65-.45l-.2.45.2.2h.7q0 .2.45.2.25.5.5.25l.2-.25v.5l.25.25h.2l.45-.5q-.25.5 0 .5l.45-.25q-.25.25-.25.45h.25q.25 0 .5-.2v.2h.4v.25h.25q.25 0 .7-.45 0 .2.2.2l.9-.7-.2.5q0 .2.45.2h.25v.25h.2q0 .2.7-.25v.25q-.25.2 0 .2.2 0 .45-.2.25.2.25.45l.45-.25q.45 0 .7-.2l.2.2.2-.2v-.45q0-.25-.2-.25t-.2.25l-.25.2v-.7q-.2 0-.45.5 0 .2-.25.2.25-.2.25-.7-.45 0-.45.25l-.5.25q.25-.25 0-.5-.2 0-.45.5h-.2q.2-.25.2-.5t-.2-.25l-.45.5q0 .25-.25.25.25-.25.25-.75l-.25-.2-.45.2q-.2.75-.7.5l.5-.5q-.25-.2-.5-.2-.2 0-.2.45-.25.25-.25.5l-.2-.25q.2 0 .2-.25.25-.25 0-.45-.2.2-.45.2v.25q-.45-.25-.65 0h-.2q.2-.004.2-.25v-.2q-.25 0-.5.2h-.25v-.4q-.2-.25-.65.2 0 .2-.2.2v-.2q.2-.45 0-.45 0-.2-.45.45l-.25.2-.25-.2v-.65h-.25q-.2-.45-.45 0l-.2.45v-.45-.7q-.25 0-.45.45-.25.25-.45.25v-.45l-.25-.25q-.25 0-.5.25 0-.25.25-.25 0-.5-.25-.65-.15 0-.4.15v-.15h-.45q0 .15-.25.15v-.15q.25-.25.25-.5m35.6-.45q-.25 0-.45.2 0 .5-.25.5v-.7l-.7.7v-.25h-.25q-.15 0-.15.25l-.25.25q0-.25-.25-.75 0 .5-.2.75-.45 0-.45.15.2 0 .2.25l.25-.25v.25q-.25.25.2.5 0-.25.25-.75h.4q.25 0 .5-.15 0 .15.25.15.2 0 .45-.15h.45q.2 0 .45-.25v.25h.7l.25-.75.2.5.45-.5q.2 0 .65-.2h.75q.4-.25.6-.4l-.15.15q0 .25.2.25.9-.7 1.15-.7.25.25.5-.2l.4.2q.45-.4.7-.4-.25-.25-.45-.25h-.5q-.145 0-.15.2v-.2q-.25 0-.5.25-.25.2-.45.2v.2q-.248-.198-.45 0 .196-.2-.25-.2l-.2.2q0 .25-.45.25-.25 0-.5.2 0-.2-.25-.2-.2.2-.45.2v-.2l-.65.65q-.2-.2-.45 0l-.25.5v-.5q0-.2-.25-.2-.2 0-.2.2l-.45.5q.2-.25.2-.5 0-.2-.2-.2m2.5-6.2q-.05-.15-.25 0-2.25 0-4.55.25h-.65q1.15.95 4.8 1.15 1.1-.2 2.25.25.45-.45.7-.25l.7.25q0-.45.25-.45.15 0 .4.2h1.15l.25.25q.65-.25 1.35-.25.45-.2 1.35-.2v.2q.5-.2.95-.2h2.5q1.55 0 3.4-.25h.45q.95 0 1.6-.2l1.4-.5h.2q0-.25.25-.25h.45q.2-.2.7-.2v-.2h.9q.25-.25.7 0 .43-.238.75-.25h-3.5q-4.15 0-7.55.25H26q-.2 0-.65-.25-.45.25-1.2.45-1.1-.2-2.25 0-.2-.2-.45 0h-2.5q-1.15 0-2.1.2h-.2m17.85-17.3V-34.95l.4-.25h.25v.25l.2-.25 2.1-.7-.25-1.35q-.25 1.8-2.7.7m-11.2 10.7l.2.7.65.65.5-.65V-24l.45.25q1.35-.75 1.35-1.2v-.9q-1.35.7-3.15 0z"/><path fill="#333" d="M-54.8 30.1v-.25l-2.5.25v.4h2.5v-.4m9.15 0v-1.4l-4.15.25-.45 1.4 4.6-.25m3.4-.25V28.5l-.45.2h-2.75l-.2 1.4 3.4-.25m3.9-1.6v1.6h.95l-.25-.2.25-.95q-.25-.2-.25-.45h-.7m13-4.35l-1.6.7q.25.7.25.9-.25 0-.25-.2v-.7l-3.4 1.15-3 1.15v.65q-.2 0-.45-.45l-3.45 1.15q-.15.25-.15 1.6l12.05-4.55v-1.4m6.6-2.95h-.2l-2.3 1.6v1.15l6.4-4.15h-.25q-.2 0-.9-.4l-2.75 1.8q.45 0 .45-.25h.25v.25q0 .25-.7 0M-13.7 3.4q0-.25.45-.25-.2-.25-.7-.25-.2 0-.2.25v.7h-.25l-.2-.45q0-.25.2-.25V2.9q-.443 0-.45.25V2.5l-.25.65v.25q-.2.65-.4 1.15V6.1q.65-.45.65-1.15v-.9h.25v-.2q.45.45.45 1.1.2 0 .2.5v.45l.5-.45q0-.5-.5-1.4v-.2q.25 0 .25-.45m-.25-1.4v-.25q.5-.2 1.4-.65h-.25q-1.15.2-1.35.9h.2M-12.1.45V.2q-.25-.25-.7.25 0 .2-.45 0l-.7.2q-.2 0-.2.25l-.25-.25q0 .25-.2.25v.2q0 .2-.25.9h-.25v.25h.25l.25-.7h.2V1.5v-.4h.25v.2q.7-.4 2.05-.85m8.45 10.7h.45l-.2.2-.5-.2-2.25 1.8-4.1 2.3v.25l-2.55 1.6h.25v.2q-.25 0-.5-.2L-16 19.15q.5 0 1.15.2v.2l13-8.2-.25-.2-.65-.45-.9.45m-.25-8v.25l.5-.25q0-.25-.5 0m.5-5v-.25h-.5v.45q-.2 0-.2.25-.45.65-.45 1.1h-.25v.5l-.25.25V-.5h.25v-.7-.45q.25-.2.25-1.15-.25.7-.7 1.15l-.45 3.2V2l.2-.25q0-.2.25-.2h.2v.2q-.2.25-.2.5-.25 2.3.45 2.45v-.15-.4q.004.15.25.15h.2q0-.25.25-.45v-.7l-.25.25h-.2v-.5h.45l.2-.4-.2-.25q0-.25.45-.25l.25-.45V1.1q-.5.2-.95.45l-.2.2v-.2q.45-.45 1.35-.9l1.1-.7q0-.45-.15-.45-.85.35-1.25.85.3-.4.55-.65v-.2h-.25q-.2 0-.45.45-.44 0-.45.25.004-.26.2-.7h.5v-.9q.2-.25.2-.45h-.2m-.7.5v.4q0 .2-.25.2.245-.44.25-.6m-.45 2.45V.9h.2l-.2.2m0 1.15q0-.25.2-.25-.194.242-.2.45v-.2M-3.4-2.8v.45q.2-.45.2-.65l-.2-.25-.25.25v.2h.25m-.7.45v-.25l-.25.25h.25m.2-1.55l-.3.3q.144-.1.3-.1.25.25.7 0v-.45q-.2 0-.6.2l-.1.05m-10.05-13.3l-.65 1.2q1.15 0 2.25-.45l-1.6-.75M-24-24.5l.25-.2-.25-.25v.45m3.25.95l-.25-.2-.7.65 4.35 4.8.9-1.15-4.15-3.85-.15-.25m-4.35-6.15l2.05 4.35.45-.5v-.45l-1.85-3.65-.65.25m46.8 57.95l.4-1.8h-.9l-.2 1.1.7.7M19.65 34q-.25.2-.7.2L13.7 46.3v.45L19.65 34m-.7 0q.45 0 .95-.25l.65-1.6.2-1.15-.2-.5-1.6 3.5m6.85-22.15V12l-3.2 9.85v.5l-1.4 4.1q.5-.25.9 0l4.15-13.05.2-1.4v-.15h-.65M25.55.2v2.05q.45-.5.7-.7v.2l-.7.75v5.9l.9-.2.25-2.3q-.25 0-.45.2.2-.45.45-.45L26.45-.5q-.2.45-.9.7m2.95 2.05q.7.25 1.4-.7-.7-.45-1.6-.65 0 .65.2 1.35M62.35 35.1v.7l7.7 4.8v-.7l-5.25-3.2-.25-.2-2.2-1.4m-16-15.55l-.5-.2v.2l-.9.25 5.25 4.6-.25.2 1.4 1.15.25.45 9.35 8.65.2-.45-4.1-4.3h-.45l-2.5-2.75-.7-.65v-.25l-2.5-2.3v-.25l-1.15-.9h-.25l-3.15-3.2v-.25m-3-13.9h.25L43.85 7v.5q0 .25-.25.25h-.25l.5.45.2.4h-.2q-.25.25-.25.45v1.15l.25.5v.45q0 .45-.25 1.1.25.5.45.5l.2.2.5 5.05.9.2-.25-3.65-.2-1.15v-.2l-.25-1.85v-.2L44.75 7l-.25-.2V3.85q-.45-.45-.65-.7-.25-.25-.5-.65l-.25.65h.25l.25 2.05q-.25-.25-.25 0v.45m.5 4.35q.2 0 .2-.2l.2 2.65q-.05-.25-.2-.6v-.5-.9q-.2-.25-.2-.45M43.1.9q0 .2.25.4V.65L43.1.9m11.7 2.95q-.25.2-.5.45-.45.4-.65.4l-.25 1.65.9-.25.5-2.25M68.45 22.8v.9l7.3 4.55.25-.7-3.4-2.05-.25-.2-3.9-2.5m-1.35-.25l.7-.45-.7-.7-6.15-6.6-2.75-2.95H58l-.75-.95v-.2L55.7 9.3v-.25l-1.6-1.8v.5h-.9L54.8 10h.25L67.1 22.55m17.15 18.5v-.2l-7.1.85-2.5-.4-.5-.25-2.7-.2.2.45 6.2 1.1 6.4-1.35M92.2 29.2v-.5l-8.45.7-2.95-.7h-.25l-3.2-.45.25.45 6.85 1.4 7.75-.9M55.05-2.35l-.25.5q0 .2.25.65.4.45.65.7l.25-2.65q-.1.15-.25.15-.5.4-.65.65m1.55-6.8l-.45.45-.95 5.25h.75v-.45l.65-1.85.9-4.55q-.45.4-.9 1.15M42-12.6l-.2-.45h-.5l1.15.95v.15q-.45-.15-.65.25 0 .25.4.25l-.4.45v.25l.2.2q0 .25-.2.25v.65h.4l-.4.5h.2l.45.2-.45.25q0 .2.45.2l.2.25q-.2 0-.2.2h-.25q-.2.45.25.45l-.45.25.45.5-.25.4q-.2 0-.2.25v.2h.65l-.2.25q-.45.45-.45.7h.45v-.25q.2-.45.45-.45v1.1h-.25v-.4h-.2q0 .25-.25.4 0 .25.45.25v.5l-.2.45h.45l-.25.45q0 .2.25.2l.2.7h-.45v.25h.45q-.45.2-.45.45h.45v.2l-.2.45.2.25v.7q0 .25.25.45.25-1.15.5-1.85l-.25-2.25v-1.2l-.7-8.2-.9.25m.45 2.3v.2h-.25q0-.2.25-.2m.2 1.15h-.2v-.25l.2.25m0 2.7v.25l-.2-.25h.2m.25 2.75h-.25l.25-.2v.2m14.35-21.45h-.2L54.3-22.4v.2l-1.55 1.85v.2l-2.3 2.1-.25.45-.9.9q.45.45.9 1.35l1.85-1.85v-.2l6.15-6.35.7.65-2.5 13.2h.45q.2-.4.4-.85l.5-.25V-12.85l1.15-7.05.2-.25.7-3.4-.9.25-1.15-1.65-.5-.2m-11.4-7.1v.45l-.2 2.3h-.25l-.2 2.55v.2L44.75-24l-.25.25-.45 3.85h-.7q0 .25 1.15.65 1.35.75 1.85 1.2l-.5-.25v.25l.7.2.7.45-.25.2q-.2 0-.45-.2v.7h.7q0-.25.2-.25h.25v.25q-.25 0-.25.25h.45q.25.45.5.65h.2v-.2l-.45-1.2q-.7-.85-1.15-.85-.2-.7-1.8-1.4-.4-.15-.85-.2 1.35.05 2.2.9l.25-1.85v-.45l.2-.65v-.25l.45-2.55v-.45l.25-1.8h.2l.25-3.65.45-1.85-2.5-.65-.25.65m-7.3 24l-.2-.25q0 .25.2.45v-.2m-2.5 5q-.2 0 0-.1l-.25.1.25.25v-.25m2.3-4.55l-.25-.25q0 .25.25.45v.5l.4-.7h-.4M39-9.15v.45l.25-.45H39m-1.1 2.5h-.45l.45.45v-.45m2.5-5.05l-.25.95.9-1.6h-.2q0 .25-.25.25v.15q0 .25-.2.25m-.45 1.6h.2v-.65h-.45q0 .2.25.65M26-.5l.45-.45q-.45-.45-.9-.7V-.3q.25-.2.45-.2m4.15-7.1h.2v-.2l-.2.2m-3.9-6.35v-.7q-.25 0-.45.25l-.25.9q.45 0 .7-.45m1.1-.95l.25.75q.45-.25.7-.25l-.25-.7h-.45l-.25.2m-.15-6.15v-.25l-.25-.65-.5 1.35H26l.45.25v.45h.5v.25q.25-.25.65-.25l-.25-1.15h-.15m12.95 6.4l-.2.25-.45.9-2.05 3.85-.75 1.6-5 9.8q-.25.5-.7.5-.4 1.6.7 2.45l.25-.15q0-.25-.25-.5v-.9q.25 0 .25.25l.25-.7h.2v.45h.25l.2-.25h-.2q-.25-.4-.25-.65l.25-.25q.2 0 .2.5h.45q-.45-.25-.45-.95h.45V.9h.25Q33.3.894 33.3.65l.25-.2v-.5h.2V-.5H34q.25 0 .5.2v-.45h.4l-.2-.45v-.2q.2 0 .45.2v-.2l-.45-.7h.45v-.5-.4h.2l.25.2.2.45v-.45l-.2-.45v-.65h.2l.5.2-.25-.45q-.25-.5-.25-.65.25.15.5.15l.25-.65q0-.25.15-.45h.5L36.95-6h-.25l.25-.2.5.45q0-.25-.25-.7-.25-.4 0-.4v-.25h.25q-.25-.5 0-.5 0-.45.2-.45t.25.2q-.05-.25-.25-.4l.25-.45q.2 0 .45.2l-.25-.45v-.2h.25q.2 0 .4.2v-.95H39v-.2l.5-.2v-.25q-.5-.2-.25-.45v-.2h.45v-.9h.7v-.25q0-.25.2-.5h.7v-.2l-.7-1.1-.45-.5m-3.45-1.8l-.15-.25v.25h-.5v.65l1.15-.2h.45q.25.2.25.65h.2q.25 0 .25-.45-.25 0-.45-.2 0-.45-.7-.45h-.25v-.25h-.25v.25m-5.45 2.95v.2q-.25.45-.65.45l.65-.65-.65.45v-.45q.2-.25 0-.25l-.7.25v.4q-.008-.2-.25-.2-.25-.2-.65.25v.2h-.25q-.25-.2-.45-.2-.25 0-1.85.2-1.1.5-1.35.75h-.7q-.45.15-.45.65l.45.25v-.25q0-.496.5-.5-.25.008-.25.5h.45v.25q-.7.45-.7 1.1v4.8q.25.25.5.25v.25q0 .65.2 1.35.25.65.7.65h.45Q26-3 26-3.25l.25-.45v-.95L26-4.8q.25-.25.45-.25h.25l.25.4h.25V-6q0-.2.15-.65.5-.2.7-.2v1.3l-.7-.2v.45q.25.25.5.25v-.25q.194.775.4 1.45-.192-.675.05-1.45.896-.25.9-.45h-.9V-6l.45-.2.25-.25q-.25-.2-.5 0h-.2v-.4q.7-.5 1.35-.5l-.25.9q0 .45-.2.7 0 .45.2.45.25.25.25 0-.25-.45.25-2.05v-.25h.25v-.9q.45-.2.65-.2v-.25h-.45v-.2h.25q.4-.5.4-.25v1.15l-.2.65q0 .5-.2.75.397 0 .4-.25.002.25.25.25h.45q-.25-1.2-.25-1.65l.25-.45v-.7q-.242.242-.35.45.1-.208.1-.45l.25-.25q.7-.2 1.4 0 .45 0 .45-.2-1.6-.2-2.3 0-.25-.2-.9.2-.193 0-.05-.1l-.15.1h-.25q-.25 0-.7.25l.2-.65q1.2 0 2.8-.7v-.2q.15-.25.4-.6-.25.4-.4.8v.45l-.25.25h.25q.2-.45 1.35-1.65.7-.9 1.6-1.35-.45.45-.65.7-.5.65-.5.9v.25l.7-.65q.85-.9 1.1-1.15-.2.25-.65 1.15-.45.65-.45 1.1-.2.25-.2.45l.2-.2q.45-.7 1.1-1.6l.5-.5.4-.2h-.4l.25-.45q.15-.25.4-.65v-.25q-.25-.25-.65.25-.5.4-.7.65.2-.45 0-.45h-.45l-.25.65v-.2q0-.45-.2-.45-.2.2-.7.45l.25-.45q0-.45-.25-.45h-.45q0 .25-.25.9-.45.45-.65.45l.2-.45v-.25q-.2 0-.9.7l-.95.45q0-.25.45-.45.5-.45.5-.7 0-.2-.25-.2h-.25q-.2.2-.2.45m.95.45l-.25.2v.75q-.25.65-.25.9v.2q-1.35.25-2.3.45-.65.25-1.1.45.2 0 .7.2-.25 0-.25.5h-.25q-.45.25-.45 0v-.5l.25-.2v-.65h-.25v-.7q0-.5.25-.65.7-.75.9-.75l-.45.9-.45.5v.25q.45-.5 1.1-1.15 0 .25-.4.65 0 .25.2.25.45-.5 1.4-1.15-.45.9-.45 1.15v.25l.85-.9q.7-.75 1.2-.95m-4.35 2.95v.2h-.25v-.2h.25m-1.15-1.85q.5-.15.9-.4-.25.25-.65.4h-.25m-1.35.5h.2v.7l-.2-.25v-.45m.9 0l.2.25q-.45.2-.65.2l.45-.45m1.1 2.75h.25q0 .2-.25.45h-1q.414-.01 1-.45m-1.8-.25v-.2l.9.2h-.9M27.2-7.1l-.25-.25q0-.25.25 0v.25m.15 0q0-.25.25-.5.45 0 .45-.2 0-.25.25-.25 0 .45-.25.7l-.7.25m-.65.65l.25-.2v.9h-.25q0-.25-.25-.25H26q.25-.2.7-.45m3.2-2.7v.2q-.5.45-1.15.45v-.2q.45-.25 1.15-.45m-.25.65v.7q-.65.2-.9.45v-.7q.45-.45.9-.45m-1.6-.45h-.2q.45-.2.65-.2-.2.2-.45.2m0 .9l-.2-.2v-.45l.45.2v.25l-.25.2m-3.15-1.1h.2q.25.2.25.45h-.45v-.45m0 1.35q0 .45.2.95 0 .4.25.65-.25 0-.45.2-.5-1.1 0-1.8m.9 3.65l.2.25h-.2v-.25M32.65-16v.45l.2.2q.25-.45.9-1.1-.45 0-.9.2-.45-.2-.9 0l-.25.25h-.45v1.1l.45-.45h.25q.45-.2.7-.65m2.05-.45v.45h1.1l.25-.45h-.25l-.65.2q-.25-.2-.45-.2m-.7 0l-.45.45v.2h.2q.25 0 .95-.65H34m.5-.75v-.2H34v.2h.5m-2.8.75v-.25l-.25.25h.25m.95-.25h-.25q-.2.004-.2.25l.45-.25m2.05-.25h-.45l-.25.25h1.15q-.25-.25-.45-.25m-.7.25v-.25q-.443.246-.65.25H34m.9-.7h-.2l-.2.2h.2l.2-.2M55.05-3h.15l-.15-.25V-3m-16.3-15.75h-.4q-1.15.25-1.15.45l.25.25h.45l1.6-.45q1.55-.5 1.8-.5-.45.25-.9.7l-.7.7h.25l2.5-1.15q-.25.25-.65.7l-.75.45h.25l1.6-.45q-.25.45-.9.45l-.2.4v.5q.2 0 .65-.25-.25.25 0 .25h.9v.25h-.25q-.65 0-.65.45l1.8-.45h.5v.2q-.25 0-.5.25l-.65.2.25.25 1.8-.45q-.25.2-1.15.45l-.9.45q.25.2.45.2h.2v.5h.5q.2.25.2 0l.25-.25-.45-.25q.2 0 .65-.45l.7-.65h-.25l-.2-.25-.45.25v-.25l.45-.45v-.25h-.45q-.25 0-.7.25v-.5h-.65l-.5-.2.25-.2q.25 0 .25-.45h-.5q-.242.194-.25.4v-.4q.25-.25 0-.25-.2 0-.65.25H42q.204-.004.45-.25l.2-.45q.25-.25 0-.25-.2 0-1.1.25-.5.25-.7.45 0-.2.45-.45l.5-.5v-.2h-.75q-.197 0-.2.2 0 .25-.9.5Q39.5-19 39-19l-.25.25m3.9 1.55l.25-.2v.2h-.25m-2.95-2.25h-.2q0 .19-.4.2h1.05q-.2-.2-.45-.2m-24.15 8h-.25l.25-.65q-.5.15-1.2.65l-.65.45h.45q.442-.196.85-.2-.206.006-.4.2-.45.25-.9.9 0 .2-.25.45l-.2.5q0 .45-.25.9v1.8q-.25 1.15 0 1.8h.45q0-.15.25-.15l.2-.25q0 .396-.2.4h.45v-.65l.65-.45.5-.45v-.25h-.5q-.2.25-.45.25.25-.25.7-.45l.25-.2v-.5q-.25 0-.25.5-.248-.248-.45-.25.204-.004.7-.5h.25v-.2q0-.25-.25-.25-.5 0-.7.25-.25.45-.45.45.2-.45.9-.9l.7-.9h-.2q-.246 0-.45-.2.204.192.45-.3.2-.25.2-.45h-.2q.2-.2.2-.45-1.15.45-1.15.65.45 0 .7-.2v.2q0 .25-.5.5-.2 0-.45.25l-.2.2v.45q-.45 1.4-.7 1.4v-.7q-.194.194-.2.4v-.65q0-.9.9-1.6.45-1.35.9-1.35v.25h.7q.45-.25.65-.25v-.2H16l-.25.2q0-.2.45-.45.2.25.45-.25-.25-.25-1.1.25m-1.4 3.4l.45-.2q-.25.2-.25.45-.194.194-.2.4v-.65m-.7 1.6q.25 0 0 .25l.25.2v.25q0 .45-.25.7 0-.25-.2-.95.2-.2.2-.45m5.25-5.9v.4q1.35-.15 2.3-.65l.45-.9q-.9.45-2.05.45-.45.2-.7.7M4.55-.75l.25.25v-.7l-.25.45m.25.7V-.5l-.45.45q.2 0 .2.25l.25-.25m.25-4.75l-.25.15v.25l.9-1.35V-6l-.25.25v.2l-.25.25q-.15.25-.15.5m-.5-2.55H4.1l-.2.5h.2q-.2.4-.45 1.55-.242.58-.25.85v.55q-.2 1.1 0 1.55h.25l.25-.45V-1.2q-.25-.9-.5-1.15 0 .5.5 2.3h.2V-1.2h.7l.25-.2q0-.25-.25-.25l.4-.45q.5-.5 0-.7l-.4.7q0-.25.25-.7.15 0 .15-.2v-.25h-.15L4.8-3q.25-.45.25-.7l.15-.2h-.15q0-.25.4-.75.492-.394.7-.4h-.2q-.5 0-.75.4l-.4.25q-.25.5-.25.95l-.2.45H4.1v-.9q.25-.25.25-.5v-.25H3.9v-.4h.2V-6h.25v-.45q.45-1.15.7-.9.15 0 .4-.25-.65.25-.9.25m-.9 4.1v-.65q.242-.242.25-.6v.8q0 .25-.25.45m.45.75q.004.15.25.15 0 .248-.2.25.203.002.65.25h-.45l-.25.2v-.45-.4m1.35-4.15q.492-.443.5-.2v-.25q-.242 0-.4.2l.15-.2q-.5 0-.5.25 0 .2-.15.4.15 0 .4-.2M6.6-7.8v-.25l-.45.25h.45m20.1-6.6v.45h.25v-.45h-.25M5.65-9.9q-.208.008-.45.25-.4.25-1.1.25h-.2v.25q-.25.2-.5 0H3q-.95.2-1.4.45H.7q-.95.2-1.85.2l6.35.45q1.85-.65 5.3-1.6L6.6-9.9h-.2q-.443 0-.45.25L5.7-9.9h-.05m32-24.6l-.2-.25v-1.15l-2.1.7 2.55 15.3H39l-.25-.9-.2-2.95V-24l-.45-5.5-.2-2.3-.25-2.7m-8 6.15l-.25.25q-1.35 2.25-2.45 4.35l-.5-1.2q0 .45-1.35 1.2.25.2.25.45h1.1v.2l-.9.45H26v.45h-.45q.256.007.45.25-.45.5-.65.9-.45.45-.7.45-.25.45-.5 1.15.75-.2 1.2-.45l9.55-15.3-.4.25v-1.4q-.5.25-.5.45l-2.05 4.1h-.25q-1.1 1.85-1.8 3.45h-.25m-6.15 3.2l-.2-.7-.25-.2-2.05 3.4-2.05 3.2q.7-.2.95-.2l-.25.2h.4l3.45-5.7z"/><path fill="#FFF" d="M-50.25 30.35l.45-1.4-.45.25-4.55.65q.5 0 .5.25h-.5v.4l4.55-.15m-10.95.15l.25.5 3.65-.5v-.4l-3.9.4m22.85-.65v-1.6l-3.9.25v1.35h3.9m16.2-6.85h-.25l-2.95.9v1.4l4.1-1.6v-1.15l-.9.45m7.75-18.05v.25l-.45.45.25 1.35q.2 1.6.45 1.85.2 0 .2-.25V7l.5.5.2.25V7q.008.25.7.25V6.8q.2.2.45.2l.2-.2v-.25l.25.45q.45 0 .45-.45l.25-.45v-.2l-.25-.25q-.25.45-.45.7V5.9q0-.45-.25-.45h-.2l-.25 1.1-.2-.9q-.246.688-.25.9V6.1q0-.65-.45-.65l-.2.65v.35q-.012-.355-.5-.55v-.45q0-.5-.2-.5-.25-.25-.25-.4l-.2.15.2.25m.25 2.05v.25q-.19-.382-.25-.55.06.157.25.3m13 2.55l-1.6 1.15.65.45 4.15-2.3q-1.6.2-3.2.7m-2.5-6.15v.45l-.25-.45v-.25l-.2-.25v.95q-.25.2-.25.45h-.2l-.25.25q.004.15.25.15h.2v.5q0 .9.25.9v-.45h.2l.5.25v-.25q.2 0 .2-.2v-.5q.246-.394.25-.6v.6q0 .5.45.5 0-.25.25-.9 0 .15.4.15l.25-.4v-.25q.25 0 .45.25v-.45h-.7v.2q-.25-.65-.4-.65l-.25 1.3h-.25q-.2-1.1-.2-1.55-.25-.65-.45 0l.2.7q-.2-.45-.45-.45m.25 1.15q.197-.246.2-.4v.4h-.2M-14.6-16l.65-1.2h-.2l-.25-.2h-.2v-.2l-1.85-1.85-.9 1.15 2.75 2.3m-10.5-13.7l.65-.25-.65-1.4h-.7v.5l.7 1.15m2.5 3.85l-.45.5 1.35 2.05v.2l.7-.65-1.6-2.1m44.3 54.1l-.7-.7-1.1 2.8.65.15.2.5.95-2.75m-8.95 20.1l.25.25.7-1.85v-.45l-.95 2.05M26.45 8.2l-.9.2v3.45h1.15l-.25-3.65m43.6 31.7v.7l.95.7h.65l-.2-.45H71l-.95-.95m-7.7-4.8l-1.2-.7-.2.45 1.4.95v-.7m14.6-6.4h.65l-.25-.45h-.4l-.95-.7-.25.7 1.2.45m-32-9.15v.25l.9-.25v-.2l-.2-1.15-.9-.2.2 1.55m9.15-11.8v-.5l.2-1.15-.9.25-.45 1.4h1.15M67.8 22.1l-.7.45 1.35 1.15v-1.15l-.65-.45M57.25-25.15l.5.2 2.05.7q0-1.1-2.3-1.6l-.25.7m-10.9-9.35v.45q.9.9 2.25.2l.25-.45q-.95-1.4-2.5-.2M29.4-15.8l-.4.25q-.25.2-.95.45.45 0 .95-.25l.4-.45m11 .7l-.25.45.45.5q.25 0 .45.2.25 0 .25.45H42.9v-.9q0-.95-1.1-.95-.5-.2-1.2 0-.2.004-.2.25M17.35-4.65h-.25q-.7 0-.7.25h.7q.25 0 .25-.25m-2.75.75q0-.25-.45-.5v-.25h-.45v.95q0 .7.45 1.85v-.5q.197-.443.2-.6v.15l.25.45h.2v-.45h.5q.25 0 .25-.45v-.2H16v-.45q.4.2.4 0v-.5q-.2-.25-.4-.25h-.25v.25l-.2-.25-.25.95v.25l-.25-.7q0-.25-.25-.25h-.2v.25q.2.25.2.45l-.2-.2m-4.1-7.3l-.2.2q-.246.246-.45.25h.65v-.45M6.15-.5q-.2 0-.2.45.45.5.2.95l.25.65h.2q.45.2.45-.45L8 .45 8.25.2q0-.25-.25-.25h-.25Q7.5.2 7.3.2q.2-1.15-.25-.25 0 .5-.45 1.15l.25-.65q0-.95-.7-.95M4.8-.5v.45L4.55.2v.25q-.2.2-.2.85-.25.45-.25.7h.25q0 .25.45.5v-.25q0-.25.25-1.15v.45l.15.2V2h.5q.25-1.55.25-2.05-.242.242-.25.45V.2q.25-.7 0-.7h-.25v.2q-.25-.2-.4-.2H4.8M-20.1 9.55V9.3q0-.45-.25-.25l-.65.5-.45-.5v-.2q-.25.7-.45.7-.25-.25 0-.5l-.25-.2h-.25v.7q0 .25-.4.45.2-.45 0-.45v-.7l-.5.2-.25.5q0 .45.25.45h.25q0 .2.45.2h.2l.25-.2h.25q.2 0 .2-.45.25.25.25 0l.7.25v-.25h.65m29-19.85q.45-.45.9-.45L9.55-11q-.2 0-.45.25 0 .2-.2.45m-.9.2q.436-.194.65-.2h-.2v-.25L8-10.1m5.45-6.85h.25v-.25l-.25.25m-.7-.65q.25.4.95.4h.45l.2.5q.45.25.95.25.7.2 2.05.65l5.25.45q6.4-1.1 7.75-1.1.246-.246.25-.45v-.05q.2 0 .4-.25.25-.2.7-.4.254-.007.5-.45h.45q.45-.25.65-.45-.65.2-1.6.2h-.45q-1.85.25-3.4.25h-2.5q-.45 0-.95.2v-.2q-.9 0-1.35.2-.7 0-1.35.25l-.25-.25H20.3q-.25-.2-.4-.2-.25 0-.25.45l-.7-.25q-.25-.2-.7.25-1.15-.45-2.25-.25-3.65-.2-4.8-1.15l-4.6.5q-10 .65-17.55 2.05h-1.4q-1.1.45-2.25.45-.5.2-1.15.65-.95 0-2.05.25-.25 0-.5.2-.65 0-.9.25-.45 0-.65.25-5.95 1.35-.9 4.5.65.25 1.55.75 2.95.9 8.7 1.1 3.65.45 9.35-.45.9 0 1.85-.2-.25 0 0-.25-.25 0-.25-.2h.5l.2-.5q.25 0 0 .25v.25l.65-.75h.25v.25l.2-.25h.5v.25q.25 0 .45-.25.2-.2.45-.2l.25.2h.45l.45-.2.25-.2h.15q.5-.25.75-.25v.45l.2-.45q.25-.2.45-.2v.45l.25-.25q.2-.45.65-.45.25 0 .25.25 0 .194-.15.2.205-.004.4-.2.25-.25.45-.25h.45q.45-.45.65-.45h.25v.25q.25 0 .5-.25l.4-.5q.25-.15.25 0v.5l.25.25q0 .2-.25.45 1.8-.45 3.4-.7.7-.5 1.2-.65.85-.25 1.3-.25.5-.25 1.2-.25l.2-.25h.1q.36-.003 1.05-.2 1.15 0 2.05-.45 2.5-.65 4.35-.9.2-.25.45-.25h.45l.9-.45q-.65 0-1.15.2-2.05.25-4.1 0 0 .25-.25.25l-3.85-.7h-.45q-.7 0-.7-.2-1.55-.45-2.75-.9-.2-.25-.45-.25v.25l-.45-.25q-2.75.25-4.75.7 0 .2-3.5 2.5-4.05 2.75-4.05 3.2l-3.65.2q3.45-.65 3.65-.65.45-.45.9-.7.45-.65 1.35-1.15.5-.45 1.15-1.15.65-.2 2.05-1.35.7-.7 1.4-.9h-.25q-1.8.2-4.35.9-2.45.7-5 1.15-2.95.45-6.15.65l-8.25.85 10.3-1.3q1.6-.2 2.3-.2-.7-.2-.7-.45l-.95-.25q-1.1 0-1.55-.45l-3.45-.45q0 .2-.2.2-.25-.2-1.85 0-1.15.45-1.6.25l3.9-.7 3.4.45q.25.25 1.85.45.2 0 .65.25.7.25 1.8.5h.5l2.3-.5q2.05-.45 2.3-.7 2.2-.65 3.85-.9-.25-.2-.9-.7 1.35.5 1.8.7 2.55-.7 5.25-.45-.5-.5-.5-.7-1.1-.65-1.1-.9l.45.25q.25 0 .5.2.15.25.4.25m.95 4.75q.2-.2.45-.2.2 0 .2.2 0 .25-.2.5l.45-.5q0-.2.2-.2.25 0 .25.2v.5l.25-.5q.25-.2.45 0l.65-.65v.2q.25 0 .45-.2.25 0 .25.2.25-.2.5-.2.45 0 .45-.25l.2-.2q.446 0 .25.2.202-.198.45 0v-.2q.2 0 .45-.2.25-.25.5-.25v.2q.005-.2.15-.2h.5q.2 0 .45.25-.25 0-.7.4l-.4-.2q-.25.45-.5.2-.25 0-1.15.7-.2 0-.2-.25l.15-.15q-.2.15-.6.4h-.75q-.45.2-.65.2l-.45.5-.2-.5-.25.75h-.7v-.25q-.25.25-.45.25h-.45q-.25.15-.45.15-.25 0-.25-.15-.25.15-.5.15h-.4q-.25.5-.25.75-.45-.25-.2-.5v-.25l-.25.25q0-.25-.2-.25 0-.15.45-.15.2-.25.2-.75.25.5.25.75l.25-.25q0-.25.15-.25h.25v.25l.7-.7v.7q.25 0 .25-.5m-35.6 0q.2.25.45.25 0 .25-.25.5v.15q.25 0 .25-.15h.45v.15q.25-.15.4-.15.25.15.25.65-.25 0-.25.25.25-.25.5-.25l.25.25v.45q.2 0 .45-.25.2-.45.45-.45v1.15l.2-.45q.25-.45.45 0h.25v.65l.25.2.25-.2q.45-.65.45-.45.2 0 0 .45v.2q.2 0 .2-.2.45-.45.65-.2v.4h.25q.25-.2.5-.2v.2q0 .246-.2.25h.2q.2-.25.65 0v-.25q.25 0 .45-.2.25.2 0 .45 0 .25-.2.25l.2.25q0-.25.25-.5 0-.45.2-.45.25 0 .5.2l-.5.5q.5.25.7-.5l.45-.2.25.2q0 .5-.25.75.25 0 .25-.25l.45-.5q.2 0 .2.25t-.2.5h.2q.25-.5.45-.5.25.25 0 .5l.5-.25q0-.25.45-.25 0 .5-.25.7.25 0 .25-.2.25-.5.45-.5v.7l.25-.2q0-.25.2-.25t.2.25v.45l-.2.2-.2-.2q-.25.2-.7.2l-.45.25q0-.25-.25-.45-.25.2-.45.2-.25 0 0-.2v-.25q-.7.45-.7.25h-.2v-.25h-.25q-.45 0-.45-.2l.2-.5-.9.7q-.2 0-.2-.2-.45.45-.7.45h-.25v-.25h-.4v-.2q-.25.2-.5.2h-.25q0-.2.25-.45l-.45.25q-.25 0 0-.5l-.45.5h-.2l-.25-.25v-.5l-.2.25q-.25.25-.5-.25-.45 0-.45-.2h-.7l-.2-.2.2-.45q-.45.2-.65.45h-.5v-.25q-.25 0-.25.25l-.4-.25v-.2h-.7q.25-.25.25-.45h-.25q-.2 0-.45-.25v-.25q.25-.4.25-1.15M-4.8-9.4h.25v.7l.45-.45q0-.25.2-.25.5 0 .5.25l.45-.5q.2.25.2.5v.2l.25-.2q.4-.5.65-.5v.7l.25-.2q0-.5.45-.25v.25q.25-.25.45-.5.45.25.7.5l-.7.2h-.45l-.45-.2v.2l-.25.25h-.25l-.15-.45q0 .2-.25.2l-.25.45q-.45 0-.2-.45l-.45.45h-.5v-.65l-.2.45q0 .2-.45 0h-.25q-.25.45-.7.45l-.2-.25v.25q-.45 0-.7-.25v.25h-.9q-.25 0-.25-.25H-8.7v-.65h.5q0-.75.2-.75.246.492.25.75.003-.25.2-.25.25 0 .25.25v.2l.2-.2h.25q.25 0 .25.2l-.25.45q.45-.45.45-.65h.25q0 .2.2.2l.25-.2h.45q.2 0 0 .2l.45-.2v-.25m27.85-16.65l.25.2q1.8.7 3.15 0l-.2-2.05q-1.85-.7-2.75.95l-.45.9m14.15-11.2q-.5-1.4-2.05-.5-.25.5-.65 1.2 2.45 1.1 2.7-.7z"/><path fill="#D0D0D0" d="M-14.6 1.1q-.5 0-.5.2-.9.45-.9.95-.9 1.15-1.1 1.8l1.1-.2q.25-1.6 1.4-2.75m7.5-1.15l1.6-.7q-.2-1.6 1.15-2.95-1.35.7-1.8 1.35-.7.7-.95 2.3m20.55-10.7q-.45.2-.7.45l-.25.2v.2h-.4q0 .25-.25.75-.2.65 0 1.35l.65-.45h.5q.25-.45.25-.9l.2-.5q.25-.65.7-1.35h-.45l-.25.25M3.9-6.85l.2-.5-.9.9q-1.15.9-1.15 1.8l-.25 1.2 1.6-.45v-.55q.004-1.308.5-2.4z"/><path fill="#666" d="M-12.55 1.1q.45-.2.45-.65-1.35.45-2.05.85-.242 0-.25.2v.05h-.2l-.25.7v.9q.007-.25.45-.25v.25q-.2 0-.2.25l.2.45h.25v-.7q0-.25.2-.25 0-.2.25-.4l.45-.5v-.25q-.2 0-.7.25h-.2q.2-.7 1.35-.9h.25m8.35-4.7q-.017.056-.05.1-.05 0-.1.05l-.2.2v.45q0 .95-.25 1.15V-.3h.25q0-.45.45-1.1 0-.25.2-.25v-.45q.25-.25.5-.25v-.45h-.25V-3l.25-.25q.2 0 .65-.2.9-.25.9-.45H-3.2v.2q-.45.25-.7 0-.156 0-.3.1m.1 1v.25h-.25l.25-.25m42.45-10.45h.2l.95-.45.45-.9-1.4 1.1-.2.25m1.15-2.5q0-.25-.5-.45-.25.2-.25.65 0 .25.25.25l-1.1.95v.2h.2q.25 0 1.4-.45.2 0 .65-.25l.25-.45q-.25 0-.7.2l.45-.45q-.2 0-.65-.2m-4.8-1.65H34q-.45-.2-.7-.2v.2H31q-.2.25-.4.25v.25q0 .25-.95.9-.65.7-.9.7 0 .2.25.45 1.15-.9 1.8-1.15.2-.2.45-.2h.45l.25-.25q.45-.2.9 0 .45-.2.9-.2h.95q.2 0 .45.2l.65-.2h.75v-.5h-.75q-.2 0-1.1-.25m-.7.5h-.65q.207-.004.65-.25h.7q.2 0 .45.25H34m-1.6 0h.25l-.45.25h-.75l.25-.25h.7m5.5-2.95q-.45-.25-.7 0h-.9v.2q-.5 0-.7.2h-.45q-.25.25-.25.5.45 0 1.4-.25.9.25 2.05.25h.4L39-19q.5 0 .95.25.9-.25.9-.5-.004-.203-.25-.4-.9-.25-2.7 0m1.2.4h-.35v-.2q.25.2.75 0h.2q.25 0 .45.2H39.1M15.3-9.9v-.2q-.25.2-.7.2 0-.2 1.15-.65 1.35 0 1.35-.2h-.25q-.2-.25-.45-.25-.2 0-.65.25h-.7V-11q-.45 0-.9 1.35-.45.7-.7 1.4v1.15q.25 0 .7-1.4v-.45l.2-.2q.25-.25.45-.25.5-.25.5-.5M5.95-6.85q-.008-.243-.5.2-.25.2-.4.2.15-.2.15-.4 0-.25.5-.25.25-.25.45-.5h.45v-.2h-.45q-.2 0-.2.2h-.5q-.25.25-.4.25-.25-.25-.7.9V-6l-.25.25v.7l-.2.4h.45v.25q0 .25-.25.5v.9h.25l.2-.45q0-.45.25-.95v-.25l.25-.15q0-.25.15-.5l.25-.25v-.2L5.7-6l.25-.85z"/><path fill="#900" d="M48.15 3.15h.45V2.9l-.45.25m-.7-1.6q-.2-.25-.45 0-.2.45-.2.95.45-.75.65-.95m-1.1.2q.204-.2.45-.2l-.25-.25q0 .246-.2.45m2.25-.2v.2l.25.25-.25-.45m.7.7h-.25q-.208.008-.45.25h.7v-.25m5.6-.05l.15-.2.15-.45-.15.2q0 .23-.15.45m.8-1.55l.25-.45q-.25 0-.75.25l.5.2m-10.5 0V.9q0 .2.2.2l.25-.2q-.25 0-.45-.25m-.25-.2l-.2-.25v.25q0 .2.2.2v-.2m.9.65h-.2l.2.45V1.1m2.3.9v-.45l-.45.7q.2 0 .2-.25h.25z"/><path fill="#999" d="M47.7 2.2q.006-.208.2-.45.25-.2.5-.65-.5 0-.7.45v.65m.9-1.1h-.2q.194.194.2.4v-.4m6.6 0V.65q-.4.65-.9.9 0-.45.5-.45.4-.45.4-.65L54.1.9v.2h-.25v1.15q-.45 1.6-1.1 2.3 0 .15-.5.4l-.2.5q-.45 0-.45.2l.9-.2.9-.5.25-.25q.2 0 .65-.4.25-.25.5-.45.65-.95.9-2.1-.5.5-.65.5v.25h-.25q-.5.65-.7.65 0-.25.2-.65l.5-1.2q.25-.2.4-.2M44.5-1.85q-.45.2-.45.65h-.2q-.25.7-.5 1.85V2.5q.25.4.5.65.2.25.65.7v.2q.25.25.45.5.7.9 2.75 1.55H49.3q.45-2.25 0-4.55V1.1q-.695 0-.7-.2v.2l.25.45v.2h.25l-.25.25-.25.25h.7v.25h-.45l-.25.4v.25l-.45.25-.45-.25.45-.25q.446-.397.45-.2v-.2q0-.25-.2 0h-.7q0 .2-.25.2v-.45-.7l-.2.45-.45.9v-.4q0-.5.2-.95h-.2l-.45.45v-.25h-.5q0 .25-.2.75v-.95h-.25v.7l-.2.25q-.25-.5-.95-.95-.65-.65-.4-.9.2 0 .65.9.25-.45.45-.45l-.2-.2-.5-.25v-.2-.95q.25-.25.25-.7v-.65m4.35 5.7h.25v.45q-.25 0-.25-.45m.25-.7h-.2q.203-.004.4-.25v.25q-.45.25-.7.7h-.45q0-.25.45-.45.25 0 .5-.25m-5.5-7.8v1.2q.25.2.45.2h.2q.5.45 1.15.45.25-.65.45-1.1-1.35-.25-2.25-.75m-.7-8.85v.45q.2.2.45.7.5.4.7.9.2.25.45.7 1.35 2.25 2.3 5.7.2-.25.45-.7h.45q-1.85-4.35-3.65-7.1v-.2q-.2-.25-.7-.45-.25-.45-.45-.9v.9m-3.4 6.65l-.75 1.1q1.2.7 2.55 1.6h.5v-1.4q-1.4-.65-2.3-1.3m-8.05-7.1h.25l1.85-.45H34l2.95-.5v.75q-.25.4-.4.65l-.25.45h.4l-.4.2q-.7 2.55.4 4.8l.75-1.6q-.9-2.45.65-5.7h-.2l-10.3 1.4-1.35.9 5.2-.9m.25-3.65H33.3q1.6-.25 3 0 .9.2 1.8.9h.25q1.15.25 2.05 1.35h.2q.7-.2 1.2 0-.75-.65-1.4-1.1-.25-.25-.45-.25-1.2-.7-2.05-1.15h-.25q-.7-.2-1.6-.45h-.25q-1.3 0-3.15.25h-.45q-.246.443-.5.45m8.7-2.55l-.45-.2q-.246.443-.45.45h1.1q1.4.45 2.75 1.15.5.25.9.7l.5.45h.2q.25 0 .7.65.45.5.45.95.7.65 1.15 1.6.45.65.9 1.35 0 .2.25.95 1.1 2.45 1.8 6.1v.25q.5.7.7 1.1 0-.15.25-.4l-.25-.7.25.45q.9-2.75.65-5.45v-.4q-.05-1.05-.45-2.35l-.2-.25q-.25-.65-.25-.9l-.2-.25q-.25-.45-.5-.45-.45-.9-.9-1.35 0-.25-.2-.25h-.25q-.7-.9-1.4-1.55h-.2l.2.2q.95.7 1.15 1.85h.5q.2.9.65 1.35.2.45.45.95 1.4 3.4.5 6.55-.5-2.95-1.4-5.25-.45-.65-.7-1.1-.45-.45-.7-1.15-.2 0 0-.25-.45-.65-1.35-1.35-.7-1.35-1.8-2.05-.5-.25-.9-.25-.75-.45-1.4-.9l-.25-.25v.25l-.2-.25q-.2 0-.45-.2h-.5q-.45.45-.65.2z"/><path fill="#1C1C1C" d="M24.9-3q-.5-.45-.95-1.15-7.1 4.1-14.15 7.3l-.25-.25q-.45.25-1.1.5v.2q-.95.25-1.6.45-.9.5-1.65.9-.65 0-1.1.25l-.45.25H3.4Q.95 6.35-1.15 7h-.45q-9.6 3-19.65 4.35.9.25 2.3.25h4.8q3.2-.25 6.4-.7l.2-.2H-5.25l.2-.25q.246-.002.45-.15h.05v-.1q1.8-.2 3.4-.65 1.6-.5 3.2-.7.2-.25.45-.45h.9q.7-.2 1.4-.45.65-.2 1.15-.7 1.1-.25 2.3-.7 0-.2.2 0 2.05-.9 4.05-1.85.95-.4 2.1-.85 1.6-1.35 3-2.1.65-.45 1.35-.65Q22.1-1.2 24.9-3z"/><path fill="url(#a)" d="M3.2-9.15h.2v-.5l-.2.5m-1.15 0H1.8q-.2 0-.2.2v.25q.45-.25 1.4-.45h-.25q-.25 0 0-.25-.5.25-.7.25m2.3-.5l-.25.25q.7 0 1.1-.25-.15 0-.4-.25-.25.25-.45.25m3.15-.45l-.2-.2v-.25q-.25 0-.45.25 0 .2-.25.4.45-.2.9-.2m-1.55.2v.25q.007-.25.45-.25v-.2l-.45.2m-.75.25q.242-.242.45-.25H5.2v.25z"/></g><path id="h" stroke="#C00" stroke-linejoin="round" stroke-linecap="round" fill="none" d="M-20.6-23.3l-.15-.25"/></defs><g transform="translate(-17.4 -10.3) scale(1.12985)"><mask id="c"><use xlink:href="#b" transform="translate(-395.55 -117.9)"/></mask><g mask="url(#c)"><use xlink:href="#d"/><use xlink:href="#e" transform="translate(81.75 57.6) scale(.58742)"/><use xlink:href="#f" transform="translate(81.75 57.6) scale(.58742)"/><g transform="translate(81.75 57.6) scale(.58742)"><use xlink:href="#g"/><use xlink:href="#h"/></g></g></g></svg>