<svg xmlns="http://www.w3.org/2000/svg" xmlns:xlink="http://www.w3.org/1999/xlink" preserveAspectRatio="none" width="138" height="138" viewBox="0 0 138 138"><defs><linearGradient id="a" gradientUnits="userSpaceOnUse" x1="969.425" y1="382.413" x2="296.975" y2="438.288"><stop offset="67.059%" stop-color="#FF93A5"/><stop offset="100%" stop-color="#FFF"/></linearGradient><path fill="#FFF" d="M525.1 188.55q0-22.15-15.7-37.85-15.65-15.65-37.8-15.65t-37.85 15.65q-15.65 15.7-15.65 37.85 0 22.15 15.65 37.8 15.7 15.7 37.85 15.7 22.15 0 37.8-15.7 15.7-15.65 15.7-37.8z" id="b"/><path fill="url(#a)" d="M935.85 139.7q-16.45-16.45-39.7-16.45h-526q-23.25 0-39.7 16.45Q314 156.15 314 179.4v462q0 23.25 16.45 39.7 16.45 16.4 39.7 16.4h526q23.25 0 39.7-16.4 16.45-16.45 16.45-39.7v-462q0-23.25-16.45-39.7z" id="d"/><g id="e"><path fill="#FFC38A" d="M765.9 63.05q.413 6.53.85 11.7L778.9 59.9q-3.77-7.3-6.7-12.4l-6.3 15.55m-311.4 208.3q4.15.5 8.05 1.75 3.602.845 7.15 1.75 9.272 2.422 18.2 5.35 10.65 3.15 21.55 7.25h.2q.4.2 1.05.2 32.01 8.956 63.15 22.9l9.9-12.1q-14.6-1.596-29.45-4.95-37.23-8.794-74.85-30.6-33.764-19.564-67.85-49.65-19.4-17.45-38.5-37.3 22.2 25.8 40.85 47.65 23.65 27.6 40.55 47.75z"/><path fill="#ECAC70" d="M214 384.65q-5.632-1.37-11.65-3.45-18.47-6.408-67-10.95l131.5 107.6 57.9 16.1q29.683 24.298 60.2 47.4l49.45-60.45q-19.42-19.256-42.6-42.2-9.15-9.15-32.75-24.95-.966-.656-1.9-1.3-25.992-17.674-35.4-25.2-40-33.25-19.3-59.65l-7.4 8.2q-21.75 35.85-28.5 41.2-19.408 15.86-52.55 7.65z"/><path fill="#D2A77E" d="M569.55 315.75l4.3-5.2q-31.14-13.944-63.15-22.9 30.034 11.456 58.85 28.1z"/><path fill="#FFD6AF" d="M388.1 332.15q-8.3-14.6-1.25-30.6 10.1-24.35 38.6-28.45l-613.9-185.05-8.5 10.35 332.3 271.85q48.53 4.542 67 10.95 6.018 2.08 11.65 3.45 33.142 8.21 52.55-7.65 6.75-5.35 28.5-41.2l7.4-8.2q-20.7 26.4 19.3 59.65 9.408 7.526 35.4 25.2.934.644 1.9 1.3 23.6 15.8 32.75 24.95 23.18 22.944 42.6 42.2l46.85-57.2q-1.617-3.044-3.1-8-1.75-5.45-3.7-8.5-1.05-2.4-9.55-8.45-8.45-5.65-8.65-8.5-4.1-10.1-14.35-14-16.85-7.25-24.25-13.1-6.637-5.212-11.95-10.05-12.538-11.494-17.6-20.95m25.85-108.55l9.35 42.4q15.95 1.65 31.2 5.35-16.9-20.15-40.55-47.75m9.75 43.85l1.75 5.65q14.5-.2 26-.2-14.3-3-27.75-5.45m212.65-96.95q-37.656-7.31-68.1-16.1-27.596-7.965-49.25-17.15-29.55-10.45-44.55-18.6-8-4.4-14.9-10.45-10.25-10.6-20-20.35-7.8-7.8-24.75-15.25-14.1-5.8-20.65-16.95-2.35-7.4-4.1-14.5-.85-2.85-2.35-5.85L372 40.05l2.35.9-2.5-.9 39.75 173.2q34.086 30.086 67.85 49.65 37.62 21.806 74.85 30.6 14.85 3.354 29.45 4.95L683.3 176.8q-19.867-1.293-46.95-6.3M708.2-47.65q-19.5 4.2-41.95 8.75-34.7 5.85-51.85 7.15L612.25-27q17 3.7 30.8 16.3 3.55 3.5 20.9 23.4 2.01 2.48 10 12.55 3.92 4.984 9.3 11.8 11.5 14.9 20.85 24.05 17.35 16.3 28.85 47.1 1.006 2.863 1.85 5.6l31.95-39.05q-.437-5.17-.85-11.7l6.3-15.55q2.93 5.1 6.7 12.4l59.25-72.4q-48.142 2.725-87.65-13.8l-42.3-21.35z"/><path fill="#FFE1C6" d="M468 276.95q-5.267-1.296-10.5-2.55-3-.6-6.05-1.5-11.5 0-26 .2-28.5 4.1-38.6 28.45-7.05 16 1.25 30.6 5.062 9.456 17.6 20.95 5.313 4.838 11.95 10.05 7.4 5.85 24.25 13.1 10.25 3.9 14.35 14 .2 2.85 8.65 8.5 8.5 6.05 9.55 8.45 1.95 3.05 3.7 8.5 1.483 4.956 3.1 8l88.3-107.95q-28.816-16.644-58.85-28.1-.65 0-1.05-.2h-.2q-21.05-5.52-41.45-10.5m-93.65-236l-2.35-.9L-24.35-112.5l-164.1 200.55 613.9 185.05-1.75-5.65q-7.15-1.45-13.85-2.8 6.7.45 13.45 1.35l-9.35-42.4q-18.65-21.85-40.85-47.65 19.1 19.85 38.5 37.3l-39.75-173.2 2.5.9m291.9-79.85q22.45-4.55 41.95-8.75l42.3 21.35q39.508 16.525 87.65 13.8l24.7-30.15q-17.317 1.836-35.75 2.9L688.2-84.5q-108.6 29.15-232.55 74L387.7 35.3q1.5 3 2.35 5.85 1.75 7.1 4.1 14.5Q400.7 66.8 414.8 72.6q16.95 7.45 24.75 15.25 9.75 9.75 20 20.35 6.9 6.05 14.9 10.45 15 8.15 44.55 18.6 21.654 9.185 49.25 17.15 30.444 8.79 68.1 16.1 27.083 5.007 46.95 6.3l51.5-63q-.844-2.737-1.85-5.6-11.5-30.8-28.85-47.1-9.35-9.15-20.85-24.05-5.38-6.816-9.3-11.8-7.99-10.07-10-12.55-17.35-19.9-20.9-23.4-13.8-12.6-30.8-16.3l2.15-4.75q17.15-1.3 51.85-7.15z"/></g><path d="M-411.9 173.35l-2.05 1.55 16.8 40.4 2.6-2.1-17.35-39.85m133.7-56.4l3.8-5-1.8-1.3-12.85 11.35 3.35 2.6 7.5-7.65M-390.9 39.9h-.05l-.05.1-.25.3-1.75 1.3-2.05 1.45q6.9.3 13.7 1.55l.5.1 6.35-2.3 2.1-.8h-.25l-5-.5-11.65-.85-1.6-.35m99.8 89.95l.05.3.6-.6.25-.35 4.3-4.4-5.2 5.05M-447.5-3.5l-1.05-1.9-.25-.35-1.65-3.15q-3.2-1.7-4.65.55l4.65 2.95-2.5 8-4.05-.85-3.8 35.2h-.45l-.7-.05-.65-.15-.55-.2-.65-.05h-1.95q-2.65-.15-4.7.05l-3.4.65-4.2-29.25-5 .45-1.15-8 5-.4-.1-.35q-4.1-2.55-6.05.3l-.15 1.15 4.9 38.55-1.55.9q-2.85 2-5.3 4.75l-15.85-17.65-4.45 2.5-5.85-3.75 3.65-4.5q-3.6.85-4.35 2.95l-.2 1.4.25 1.45.2.35 4.7 26.7-1.55 1.25-3.05-5.4 1.75-2.65-2.4 1.5-3.25-6.5-.4.2 4.45 9-2.8 1 3.2-.5 4.55 7.9-3 1.35 3.6-.5.15.3 2.05 11.65-3.35 1.15-2.8-2.6 1.95-3.5-2.75 2.55-5.6-5.65 3.05-3.55-3.8 2.7-3.05-3.2 1.3-2.95-1.9 2.05-5.75-7.45 1.6-2.4-1.95 1.95-5.2-7.6-.4.1q3.6 6.25 8.35 12.3l-2.85 2.4 3.5-1.65 3.6 4.8-3.2 3 4.05-2.1 5.95 6.35-3.1 2.7 3.75-1.95q3.5 3.6 7.45 6.85l.3.25-1.95 3.25 2.65-2.6 1.3 1.15 1.2 6.75-.05.1-.05.05.05.1-.3 1.05-.2 1.5-.15.4.3 2.55q.5 3.6 2.55 6.1l1.5 8.65-35.85 38.4 1.35 1.95-6.25 3.35-.35-1.8-18.45 11.4h-.9l-16.45 2.95-21.55-1.5.05.35.45 1.8 19.6 2.45 17.6-3 1.1-.1 25.25-14.35 32.4-33.1-2.95-.85 5.85-6.05h3.85l.35-.65-1.15-6.3 2.85 1.3q.3 26.45-2.7 38.4l2.7-.4 3.5-36.65 2.45-.1h.4l1.35-.3 2.35-.35q4.5-1.85 6.4-4.05l1.75-1.3-3.9 38.95 2.2 1.95-6.7 5.85-2.3-.9-31.1 29.5.9 1.1-4 4.1-1-1.25-.7.6-22.65 13.5-1.05.4-14.9 2.6-18.3-2.2-.15.6v1.65l16.35 3.2 16.05-2.7 4-1.8 20.6-11.85 2.15-1 44.85-41.35 4.35-41.2 4.5.95q7.05.95 14.8-.85h.2l.8 1.95q4.4 3.35 7.55.8 2.35-2.85 1.15-6.25 5.05-2.55 9.95-6.45l-1.55 30.75 2-.05 13.6 51.5 1.1-1.25.75 2.5q-.55-2.8 1.45-4.3l.95-.75-11.55-39.55H-427l-2.95-8.2.15.45-.35-.45h.2l2.95.15-.05-.15.35.1.05-34.95 1.55-1.55.2-1.85 1.75-1.9 11.25-23.5 2.15.7-.55-.7 2.4.65-3.4 43.6-4.4 38.45 3.35-3.9 8.45 2.85 37.6 16.05 38.5-4.75h.55l29.4-13.75-.1-.3 6.85-4.4-2.4-4.4-7.3 4.2-16.15 6.85 1.65 3.25-11.75 5.05v-4.25l-26.3 3.55v4.05l-11.7 1.65.95-4.2h-.05l-31.65-13.65-3.6 4.05-10.45-4.6 2.65-5.55q-.5-3.7-.65-8.5l.05-12.6-.25-.3 3.8-46.6.5.15.1-1 15.2 3.85 1.35.3.45.2 6.45 1.55 1.1.25 21.6 4.4.85-.1-.1.05h.15l.5.1 9.55 1.1q7.45.6 13.25.25 14.2-.9 22.05-3.1l3.4-1.15.7-.35.3-.15q12.2-7.8-2-11.85l-.45-.15-1.3-.4q-1.2-.5-2.8-.75l-.8-.25h-.05q-.2 0-.4-.2l-5.45-1.35 17.45-17.7-.25-.2 3.75-5.1.2.2.15-.6 4.4-12.05.75-4.4-2.25-.15-6.4 13.55v.15l-.95 1.2 2.15 1.4-3.35 4.5.5-.5-.25.5h-.25l-2.85-.9-11.4 10.8 2.55 2.75-4.6 4.2-3.55-1.7h-.05l-4.25 2.3q-16.15-3.05-38.25-5.35l-5.55-.55-4.35 2.25q-1.15.8-2.2 1.2l8.05 1.95 1.5.35 5.25 1.65 5.85 1.45 3.15.4 3.35-1.05 2.15-.75 4.5-.95 9.1-1.3q11.25 2 9.9 2.15-1.4.1-4.4-.95l-4.7-.5-.65.1-8.85 1.3-3.7.95-2.5.7-.95.55 4.35.35 7.15.6 20 3.15 6.65 1-28.4-3.45-11.5-1.1h-.05l-3.65-.25.8-.2q-6.95-1.1-13.8-2.9l-1.35-.35-9.55-2.25h-.25l-.2-.1-.05-.05-1.15-.2q1.65.85 4.25 2.85l4.25 3.2.9.65q1.65.95 3.55 2.9l3.25 2.95 2.1 1.6q.8.5 8.1 1.25l-7.75-.6-10.55-7.65-.25-.15q-8.25-5.85-8.45-6.9v-.2l-13.15-1.5-2 1-3.6 1.15.1-.75 1.5-.4q.85-.6 1.85-1l1-.35-.1-.1.1-.35 1.3.05.95-.7.85-.35 1.15-.65.6-.6.6-.65.15-.25-1.7-.1-7.45-.4.2-1.4 2.65-18.7q.3-1.35.35-2.85l.1-.55.8-4.6q-1.45-3.65-4.15-1.95l3.25 2.05-5 6.7-3.6-2.45-15.5 22.65h-.3l-6.7-10.5-6.6-11-1-1.65L-447.5-3.5m149.2 135.25l.8-.35-.6.6-.2-.25M-427.55 46l-1.6 2.3-.3-.05q-6.3-.75-6.45-1.45v-.3l-3.9-2.05q-.65-.55 12.25 1.55m8.7 3l-.4-.2h-3.2l1.25-1.8 1.85.25 10.55-.55 1.9-.35.55-.1-.05.95h-.6l-1.75.3-10.1 1.5m13.2-9.95l-9.6-.5 11.1-15.85-1.5 16.35m-67.3 8.35l4.55.35-.4 13.1-3.8.3-.35-13.75m22.4-10.15l-4.65-.25 4.6-36.35L-426.4 38l-24.15-.75m26 14.55l8.35 2.1 1.6 2.6h-.05l-11.2-2.85 1.3-1.85m-6.65 2.15l1.7 3.35-4.6 5.4-.05.05-2.9-2.5 5.85-6.3m-1.75-4.25l-.7 2-.2-.05-.95-2.4 1.85.45m-58.2.7l-1.8 3.3q-1.75 9.3-.25 17.45l.7 3.25-3 2.4-.85-.75-3.05-3.75-2.8-3.3 2.4-4-2.85 2.75-1.3-6.85.1-.15-.15.1-5.7-29.85 18.55 19.4m-11.05 19.65l2.05 2.65-1.35 1-.7-3.65m12.3 3.1l.05.05-.05.1v-.15m-20.4-16.3l1.15-1.4.8 4.75-1.95-3.35m16.6 22.05l-.85-.9 2.15-3.25.55 1.8-.35 1.55-.05 2.2h-.3l-1.15-1.4m-1.05.2l1.45 1.45-3.8.1-.6.05q-1.3.25-2.3.9l-1.4-7.2 1.9-.7 2.3 2.55 2.45 2.85m-10.4-.95l-.8-.65-2.65-2.2 2.55-1.9.9 4.75z" id="f"/><path d="M40.2-24.7l-5.4-.25h-3.05l-.35-.3-3.05-.8-1.15-.2q-5.25-.65-23.5.3 2.15 1 4.55 4.6H3.7q-1.5-3.6-5.4-5.7l-16.3.75-4.05.45q-1.15-.75-3.45-.9l-2.2-.2h-.15l-.1.05h-.15l-.05.05-.15-.05-.4-.05-13.15.9-1.3.7-.8.15-3.75.6-.3-.2-.2-.4-.85-.1-2.65-.15-1.8.05q-2.7-.05-6.65 1.05l-.15-.6-3.75.4.4 1.15-.75.15-2.2-1.1-2.2.2-.85 26.05.15-.35.1-.55q9.3 8.9 18.8 14.85l.15.3 5.3 3.25-.3-.55q8.8 4.65 17.7 6.7Q7.2 33.6 43.9 1q5-4.4 10-9.65l2-1.35 3-2.6q5.7-5.3 10.8-13.2-6.9 3.8-11.6 4.25-2.85.3-4.85-.5-2.5-1.2-6.15-1.95l-6.9-.7z" id="g"/><path fill="#900" d="M43.45-4.95l.35-.4q5.1-4.7 8.8-10.25l-105.15 1.55L-48.8-1.3q12.15 13.2 33 16.1l7.2.7q4.4.2 9.2.05Q28.2 8.9 43.45-4.95z" id="h"/><path d="M24.05 11.7q2.65-1.05 2.5-1.9l-.35-.5-.75-.35-1.95-.4-6.9.35q-4 .55-6.7 1.6l-1.65.8-.65.55q-.25.3-.2.55.15.95 3.1 1.2l6.85-.35q4-.55 6.7-1.55m-50.6-22.6q.1 1.05 2.65 1.75l6.1.55q3.6-.05 6.05-.9 1.5-.45 2.05-1 .4-.4.35-.8v-.15Q-9.65-12.4-12-13l-6.15-.6-5.35.65-.65.2-.2.1-1.3.6q-.9.5-.9 1.15M2.2-1.85l-.15-.1q-.8-.5-3.1.7Q-3.65.05-6.5 2.5-9 4.7-10.45 6.65l-.45.6-.1.15-.7 1.3q-.4 1 .05 1.4.75.65 3.3-.65t5.4-3.75Q-.1 3.2 1.45 1q.9-1.35 1-2.15.05-.5-.25-.7z" id="i"/><path d="M-.65 8.6l-1.65.8-.65.5-.2.6q.15.9 3.1 1.15l6.9-.3q3.95-.55 6.6-1.6 2.75-1 2.6-1.9l-.35-.45q-.3-.25-.7-.35l-2.05-.35-6.9.3q-3.95.55-6.7 1.6M-5.6-11.65h-.05l-.1-.05q-.85-.4-2.9 1.4-2.1 1.8-4.1 4.85Q-14.8-2.4-15.6.1l-.15.35L-16 1.8q-.05.95.45 1.25.9.45 3-1.35 2.1-1.85 4.15-4.85 2.05-3.05 2.85-5.6.75-2.4-.05-2.9z" id="j"/><path d="M21.2 6.2l-.65-.5-1.9-.65q-2.85-.7-6.85-.85l-6.9.5-1.8.5-.75.4q-.3.3-.3.6Q2 7.1 4.8 7.8l6.85.85 6.9-.45q2.85-.55 2.85-1.5l-.2-.5M-13.35-.4q2.35-2.85 3.4-5.25.65-1.45.6-2.25-.05-.5-.4-.7l-.15-.05q-.9-.35-2.95 1.2-2.25 1.6-4.6 4.5-2 2.5-3.05 4.65l-.3.65-.1.2-.4 1.35q-.25 1.05.25 1.4.9.5 3.15-1.1 2.25-1.7 4.55-4.6z" id="k"/></defs><g transform="matrix(.27562 0 0 .27562 -93.15 -37.8)"><mask id="c"><use xlink:href="#b" transform="matrix(3.9711 0 0 3.9711 -1286.3 -363.2)"/></mask><g mask="url(#c)"><use xlink:href="#d"/><use xlink:href="#e" transform="rotate(50.71 25.022 620.232) scale(.9306)"/><use xlink:href="#f" transform="rotate(57.18 -200.324 1170.298) scale(.99433)"/><use xlink:href="#g" transform="rotate(75.634 14.846 632.45) scale(.9957 .65646)"/><use xlink:href="#h" transform="rotate(76.427 25.98 619.142) scale(.9943 .40474)"/><use xlink:href="#i" transform="rotate(57.18 -98.547 787.204) scale(.99433)"/><use xlink:href="#j" transform="rotate(57.18 -112.538 800.936) scale(.99433)"/><use xlink:href="#k" transform="rotate(57.18 -100.998 796.695) scale(.99433)"/></g></g></svg>