<svg xmlns="http://www.w3.org/2000/svg" width="936.748" height="802.717" viewBox="0 0 936.748 802.717"><linearGradient id="a" gradientUnits="userSpaceOnUse" x1="-828.929" y1="366.207" x2="-828.929" y2="1126.647" gradientTransform="matrix(1 0 0 -1 1297.3 1168.918)"><stop offset="0" stop-color="#243540"/><stop offset="1" stop-color="#687684"/></linearGradient><path fill="url(#a)" d="M173.812 48.594l-25.556-6.323 1.572 21.257-11.55-6.278-8.345 50.42L4.04 158.645 0 189.418l40.723 30.15 23.624-10.258-2.18 18.34 11.815 8.396 14.297-8.704 13.678 12.745 13.367-12.123s23-3.42 42.896-8.082c19.894-4.663 31.706-8.396 31.706-8.396h3.42l-2.18 13.988 13.367 30.772 37.925-6.838 19.894 18.96h48.304l-11.04 30.106 2.524 9.37 5.596 19.272s45.695-9.947 50.98-9.638c.932 5.284-1.244 16.785-1.244 16.785l12.743 53.777-22.38 58.438 5.282 1.862 67.146-4.974 8.702 42.896 36.367 8.394-5.903 29.84 35.124 23.004-111.904 84.55-41.652 23.625-16.166 16.164-5.903 31.083 63.102-22.69L516 754.97l-12.885 47.74h21.592s35.75-49.733 41.653-60.304c5.905-10.568 8.394-26.42 8.394-26.42l92.942-104.14 2.798-31.395-18.96-59.99 81.44-25.18s24.87-3.42 27.664-4.04c2.8-.622 9.016-21.448 9.016-21.448l96.983-28.6s7.77-3.42 8.392-12.437c2.177-13.363 6.527-33.57 6.527-33.57l9.948-9.637 3.293-31.238-10.446-19.74 4.327 5.917 5.653-30.675-5.162-19.52s3.407-6.257 3.083-11.244c-.822-12.67-1.745-35.543 2.048-38.666 5.28-4.354 4.976-6.838 4.976-6.838l-2.18-4.354 19.584-5.283v-11.813l8.08-6.527s6.53-10.88 7.772-23.003c1.24-12.122 4.213-25.863 4.213-25.863l-243.88-10.812-162.878-18.025-297.79-39.783-58.385-39.486z"/><path fill="#C0CF5A" d="M565.508 60.198s-3.537-2.83-4.068-2.83-13.98 1.415-13.98 1.415v13.623l12.564 2.124 2.123 2.832 19.464-4.6s18.048-11.325 17.34-11.325-20.35-3.185-20.35-3.185l-13.092 1.946z"/><path fill="#DDDF63" d="M508.385 417.638l-27.52 48.395 2.958 2.25-18.487 25.323 33.28 24.962-17.727 35.813-74.52 24.598-80.31 92.247 60.05-22.425 137.828 78.5-12.66 44.132h15.192l44.858-61.86 7.957-24.964 92.61-104.906-22.79-85.734 43.872-14.11-25.422-63.668-94.055-21.704z"/><path fill="#C85634" d="M507.002 425.38l76.897 4.15 22.486-4.15 23.257 11.51-6.977 11.63 42.642 40.704 74.43-25.195 26.606-3.103 7.508-22.097 102.727-28.748 9.69-44.13 8.532-11.63-8.968-20.255-18.17-70.456-45.74-31.012-81.023-13.956-110.48 55.436-123.418 86.445-14.59 53.496z"/><path fill="#E2AB3B" d="M646.77 69.178L694 77.364l-8.427 8.06 2.106 9.627 1.504 1.204 24.063-13.537 21.957 6.314 53.848.605L859.74 113.4l40.008 4.514 37.002 38.804-6.02 17.447-9.926 7.818-.302 12.03-18.95 3.912 2.103 5.113-21.657 28.877-11.73-2.707.605 18.048 10.525-4.603-1.805 10.018s2.104 11.73 2.404 12.635c.303.902 10.528 11.432 10.528 11.432l-9.925 4.813 11.73 28.275-7.223 26.17-2.404-3.61-28.88-23.16 15.644-26.473-34.29.9-79.714-21.656-3.31-10.23-53.24 16.245-11.13-4.21-13.256-32.25-46.604-61.604-24.97-37-9.022-27.374 34.895-21.96L646.77 69.18z"/><path fill="#EDC963" d="M313.887 237.958l2.286 16.507-9.542 24.06 7.054 17.84 55.588-10.784-7.467 15.764 16.18 64.3L358.9 415.01l66.376-2.075 9.54 43.146 46.047 9.958L507 425.383l40.654-22.4s18.25-38.166 26.548-48.95c8.298-10.786 26.552-23.23 26.552-23.23l79.647.415-13.687-38.58 8.3-11.616-4.148-12.03 18.925-5.185-16.02-45.01-73.014-53.518-151.002-30.697s-51.024-22.816-52.27-22.816-108.69 19.08-108.69 19.08l-7.052 75.916 23.23 15.764 8.915 15.43z"/><path fill="#B6C95A" d="M105.99 208.84l-13.15-12.523-15.025 9.395-11.585-8.142 8.14-20.038-29.43 11.584-40.706-30.37 36.32-28.18 2.505-5.323 49.47-21.29 21.603 3.442 35.382-36.317-3.134-2.192 3.135-3.757-11.584-6.576 3.132-11.585h25.047l-17.847-4.696 6.262-6.263h25.36l6.89-4.07 2.19 3.445 11.896-3.444 14.09 17.224 21.917.626 40.703-20.665-12.522-5.01 5.32-6.575-8.768-8.456 40.39 6.888 35.38-6.888 9.08-1.565V0h15.34l-5.945 9.08 5.945 1.252-5.01 13.775 25.05 22.228 5.638-10.958 58.55 2.815-9.707-6.262 2.506-3.758 15.655 2.192 5.948-1.88 5.638 2.505v4.695l23.48 6.264 30.995 31.31 22.23-4.383 11.586 11.27 36.633 2.506 9.078-5.01s-.313-6.575 0-6.89c.313-.312 10.958-6.26 10.958-6.26l28.834 2.863 6.858 4.02-1.563 19.73-36.006 18.16-6.576 8.452 16.28.313 12.838 6.262-1.88 21.917 11.897 8.14 15.966.94-12.21 16.278 16.28 5.638-2.504 5.95 24.734 9.393-21.917 13.148 21.916 14.715-3.758 9.394-2.19-3.757L637 239.826l-39.45-16.28 1.254 19.1-25.048-24.422-7.518 8.77-.627-28.493 11.9-14.715-168.45-9.396-20.663-28.49-13.15 21.29-17.847-.937 3.444 3.757-58.552.313 1.88 29.118 41.33 8.454-12.212 2.505 3.133 9.393-22.543 18.16-47.592-.938-18.786-18.16-37.57 7.2-15.03-30.37 15.03-14.4h-15.655s-42.896 13.464-72.64 16.28c-9.387 8.144-15.647 11.275-15.647 11.275z"/><g fill="#9A2830"><path d="M837.625 181.322c0 .263.088.48.266.656a.89.89 0 0 0 .657.267h4.608v1.384h-4.608a2.24 2.24 0 0 1-1.638-.67 2.234 2.234 0 0 1-.67-1.638v-5.992c0-.646.225-1.19.67-1.638.443-.443.99-.668 1.637-.668h4.608v1.384h-4.608a.882.882 0 0 0-.656.266.888.888 0 0 0-.265.656v5.992zM845.46 174.406v-1.383h4.38a2.24 2.24 0 0 1 1.636.668c.446.447.67.992.67 1.64v8.298h-.69l-.417-1.384c-.17.415-.445.75-.83 1.004-.384.253-.813.38-1.29.38h-1.846a2.24 2.24 0 0 1-1.637-.668 2.23 2.23 0 0 1-.67-1.64v-1.61c0-.647.225-1.19.67-1.64.446-.443.99-.668 1.637-.668h3.688v-2.073a.89.89 0 0 0-.266-.657.892.892 0 0 0-.656-.267h-4.38zm4.38 7.838c.26 0 .48-.09.656-.267a.894.894 0 0 0 .266-.656v-2.534h-3.688c-.263 0-.48.09-.656.267a.888.888 0 0 0-.266.656v1.61c0 .264.088.48.266.657a.893.893 0 0 0 .656.267h2.766zM860.33 179.71c0-.264-.09-.48-.268-.657a.894.894 0 0 0-.655-.267h-2.536c-.645 0-1.19-.224-1.638-.668a2.232 2.232 0 0 1-.668-1.638v-1.15c0-.647.225-1.19.668-1.64a2.24 2.24 0 0 1 1.64-.667h4.38v1.383h-4.38a.88.88 0 0 0-.657.267.89.89 0 0 0-.267.656v1.15c0 .276.084.5.254.67s.393.252.67.252h2.535c.646 0 1.188.225 1.636.67.446.444.67.99.67 1.637v1.61c0 .647-.226 1.19-.67 1.64-.445.443-.99.668-1.636.668h-4.61v-1.384h4.61c.274 0 .498-.084.668-.254.168-.17.254-.393.254-.67v-1.61zM870.722 173.692c.445.446.668.99.668 1.638v5.992c0 .646-.223 1.19-.668 1.64-.446.442-.99.667-1.637.667h-2.767c-.646 0-1.19-.226-1.638-.67a2.227 2.227 0 0 1-.67-1.638v-5.992c0-.646.226-1.19.67-1.638a2.23 2.23 0 0 1 1.638-.668h2.767c.646 0 1.19.224 1.637.668zm-4.4.714c-.264 0-.48.09-.657.267a.89.89 0 0 0-.267.656v5.99c0 .264.09.48.267.657a.893.893 0 0 0 .656.267h2.768a.89.89 0 0 0 .656-.267.887.887 0 0 0 .266-.656v-5.99a.884.884 0 0 0-.266-.657.89.89 0 0 0-.656-.267h-2.767zM879.458 179.71c0-.264-.09-.48-.267-.657s-.395-.267-.654-.267H876c-.646 0-1.19-.224-1.638-.668a2.228 2.228 0 0 1-.668-1.638v-1.15c0-.647.224-1.19.668-1.64.445-.442.99-.667 1.638-.667h4.38v1.383H876c-.263 0-.48.09-.656.267a.888.888 0 0 0-.266.656v1.15c0 .276.084.5.254.67.17.168.392.252.668.252h2.536c.646 0 1.188.225 1.636.67.447.444.67.99.67 1.637v1.61a2.24 2.24 0 0 1-.67 1.64c-.445.443-.99.668-1.636.668h-4.61v-1.384h4.61c.274 0 .5-.084.67-.254.167-.17.252-.393.252-.67v-1.61z"/></g><g fill="#9A2830"><path d="M762.987 141.3v19.363h-3.23l-5.438-12.447v12.447H751V141.3h3.38c.902 2.15 1.788 4.284 2.66 6.394.87 2.11 1.756 4.23 2.656 6.362V141.3h3.29zM776.63 142.19c.596.598.893 1.322.893 2.185v13.216c0 .86-.297 1.59-.892 2.183-.593.596-1.32.894-2.182.894h-5.53c-.86 0-1.59-.298-2.185-.894-.595-.594-.892-1.32-.892-2.182v-13.215c0-.86.298-1.587.893-2.184.596-.593 1.32-.89 2.185-.89h5.53c.862 0 1.59.298 2.183.89zm-6.635 1.57a.734.734 0 0 0-.556.23.764.764 0 0 0-.216.537v12.908c0 .228.072.41.215.553a.747.747 0 0 0 .555.217h3.38a.74.74 0 0 0 .77-.77v-12.908a.757.757 0 0 0-.217-.538.733.733 0 0 0-.555-.23h-3.38zM780.504 141.3h8.604c.86 0 1.587.3 2.184.893.594.597.89 1.32.89 2.184v5.315a2.43 2.43 0 0 1-.736 1.782 2.42 2.42 0 0 1-1.78.737h-.77a543.98 543.98 0 0 0 1.98 4.228 1531.31 1531.31 0 0 0 2.014 4.228h-3.78a530.97 530.97 0 0 0-1.798-4.228 1469.1 1469.1 0 0 0-1.828-4.227h-1.598v8.453h-3.38V141.3h-.002zm8.297 3.227a.75.75 0 0 0-.214-.554.752.752 0 0 0-.554-.215h-4.147v5.993h4.117c.533 0 .8-.268.8-.798v-4.425zM795.717 141.3h8.604c.86 0 1.59.3 2.184.893.594.597.89 1.32.89 2.184v13.216c0 .86-.296 1.588-.89 2.182-.595.596-1.322.894-2.183.894h-8.603V141.3zm8.296 3.227a.76.76 0 0 0-.768-.767h-4.148v14.444h4.117c.533 0 .8-.268.8-.8v-12.877zM821.685 141.3v2.46h-7.99v5.84h7.378v2.458h-7.377v6.146h7.99v2.46h-11.372V141.3h11.37zM831.92 152.825a.753.753 0 0 0-.216-.555.756.756 0 0 0-.555-.215h-4.458c-.858 0-1.588-.297-2.182-.892-.595-.596-.893-1.32-.893-2.184v-4.612c0-.86.298-1.59.893-2.184.594-.594 1.32-.892 2.182-.892h7.99v2.46h-7.066a.76.76 0 0 0-.77.767v4.27c0 .245.078.438.23.583.152.144.353.215.6.215h4.55c.86 0 1.587.298 2.182.892.595.597.893 1.32.893 2.185v4.917c0 .858-.298 1.588-.893 2.182-.595.595-1.32.893-2.183.893h-8.298v-2.46h7.16c.247 0 .445-.07.6-.215.153-.144.23-.348.23-.612l.004-4.545zM841.754 160.663V143.76h-4.765v-2.46h12.906v2.46h-4.764v16.903h-3.378zM863.636 141.3v2.46h-7.99v5.84h7.375v2.458h-7.375v6.146h7.99v2.46h-11.37V141.3h11.37z"/></g><g fill="#FFF"><path d="M784.106 380.14c0 .26.09.478.267.655s.396.266.657.266h4.608v1.385h-4.608c-.646 0-1.19-.224-1.64-.668a2.23 2.23 0 0 1-.668-1.638v-5.994c0-.646.224-1.19.67-1.637a2.23 2.23 0 0 1 1.638-.67h4.608v1.384h-4.608a.886.886 0 0 0-.657.266.893.893 0 0 0-.267.656v5.993zM791.944 373.223v-1.383h4.38c.645 0 1.19.223 1.637.668.445.445.67.99.67 1.637v8.3h-.692l-.413-1.385c-.17.415-.446.75-.83 1.003-.386.253-.813.38-1.29.38h-1.846c-.647 0-1.19-.223-1.638-.668a2.225 2.225 0 0 1-.668-1.637v-1.614c0-.645.223-1.188.668-1.636.444-.445.99-.67 1.637-.67h3.687v-2.073a.882.882 0 0 0-.267-.656.888.888 0 0 0-.655-.267h-4.38zm4.38 7.837c.262 0 .478-.09.655-.266a.89.89 0 0 0 .266-.656v-2.536h-3.688c-.262 0-.48.09-.656.267s-.266.395-.266.654v1.614c0 .26.088.48.266.656s.396.266.656.266h2.765zM806.81 378.524c0-.26-.09-.48-.266-.655a.888.888 0 0 0-.656-.268h-2.535c-.646 0-1.19-.223-1.637-.668-.446-.444-.67-.99-.67-1.637v-1.152c0-.646.224-1.19.67-1.637.445-.445.99-.668 1.637-.668h4.38v1.383h-4.38a.88.88 0 0 0-.655.266.885.885 0 0 0-.267.655v1.152c0 .275.085.5.254.67s.394.252.67.252h2.534c.646 0 1.19.223 1.638.668.444.444.668.99.668 1.637v1.613a2.24 2.24 0 0 1-.668 1.638 2.23 2.23 0 0 1-1.638.668h-4.608v-1.384h4.608c.276 0 .5-.084.668-.254.17-.17.254-.393.254-.668v-1.614zM817.207 372.51c.446.445.67.99.67 1.637v5.993a2.24 2.24 0 0 1-.67 1.638c-.445.444-.99.668-1.636.668h-2.768a2.237 2.237 0 0 1-1.637-.668 2.23 2.23 0 0 1-.668-1.638v-5.993c0-.646.223-1.19.668-1.637.446-.445.99-.668 1.637-.668h2.77c.643 0 1.188.22 1.635.668zm-4.405.713c-.26 0-.48.088-.656.266a.888.888 0 0 0-.266.655v5.993c0 .262.088.48.266.656a.892.892 0 0 0 .656.266h2.767a.89.89 0 0 0 .656-.266.893.893 0 0 0 .267-.656v-5.993c0-.262-.09-.48-.267-.656a.89.89 0 0 0-.657-.267H812.8zM825.94 378.524c0-.26-.088-.48-.265-.655a.888.888 0 0 0-.656-.268h-2.535c-.646 0-1.19-.223-1.638-.668-.446-.444-.67-.99-.67-1.637v-1.152c0-.646.226-1.19.67-1.637.445-.445.99-.668 1.638-.668h4.38v1.383h-4.38a.884.884 0 0 0-.656.266.89.89 0 0 0-.268.655v1.152c0 .275.084.5.253.67.17.168.394.252.67.252h2.534c.645 0 1.19.223 1.637.668.444.444.668.99.668 1.637v1.613a2.24 2.24 0 0 1-.668 1.638 2.23 2.23 0 0 1-1.638.668h-4.61v-1.384h4.61c.275 0 .498-.084.667-.254.17-.17.255-.393.255-.668v-1.614z"/></g><g fill="#FFF"><path d="M702.13 351.645a.754.754 0 0 0-.214-.554.753.753 0 0 0-.556-.214h-4.455c-.86 0-1.59-.298-2.183-.894-.596-.594-.893-1.32-.893-2.182v-4.612c0-.86.296-1.587.892-2.182.594-.595 1.32-.893 2.183-.893h7.99v2.46h-7.068c-.228 0-.41.076-.554.228s-.216.334-.216.54v4.27c0 .246.077.44.23.584.15.145.354.215.6.215h4.548c.86 0 1.588.298 2.183.892.596.596.894 1.32.894 2.184v4.917c0 .86-.298 1.588-.894 2.183-.595.595-1.32.892-2.183.892h-8.297v-2.46h7.16c.246 0 .443-.07.6-.214.153-.145.23-.35.23-.613l.003-4.545zM715.625 357.023c.225 0 .414-.07.566-.215.154-.145.23-.348.23-.613V340.12h3.382v16.29c0 .858-.297 1.587-.894 2.182-.595.595-1.32.892-2.183.892h-5.53c-.86 0-1.59-.297-2.183-.892-.596-.595-.893-1.32-.893-2.183v-16.29h3.38v16.137c0 .226.07.408.216.553a.743.743 0 0 0 .554.215l3.355-.002zM722.784 340.12h8.604c.86 0 1.588.3 2.183.893.596.595.894 1.32.894 2.183v13.216c0 .86-.298 1.59-.893 2.183-.594.595-1.32.892-2.182.892h-8.604V340.12zm8.3 3.228a.76.76 0 0 0-.772-.767h-4.146v14.444h4.118c.53 0 .8-.266.8-.8V343.35zM748.752 340.12v2.46h-7.99v5.84h7.376v2.458h-7.376v6.146h7.99v2.46h-11.37V340.12l11.37-.002zM758.987 351.645c0-.226-.07-.41-.216-.554a.75.75 0 0 0-.553-.214h-4.456c-.86 0-1.587-.298-2.18-.894-.6-.594-.896-1.32-.896-2.182v-4.612c0-.86.297-1.587.895-2.182.593-.595 1.317-.893 2.18-.893h7.99v2.46h-7.067a.724.724 0 0 0-.553.228.75.75 0 0 0-.216.54v4.27c0 .246.076.44.23.584.152.145.353.215.6.215h4.55c.858 0 1.587.298 2.182.892.594.596.893 1.32.893 2.184v4.917c0 .86-.3 1.588-.894 2.183-.595.595-1.32.892-2.183.892h-8.297v-2.46h7.16c.244 0 .443-.07.6-.214.15-.145.23-.35.23-.613v-4.545zM768.82 359.482V342.58h-4.764v-2.46h12.908v2.46H772.2v16.902h-3.38zM790.705 340.12v2.46h-7.99v5.84h7.375v2.458h-7.375v6.146h7.99v2.46h-11.37V340.12l11.37-.002z"/></g><g fill="#9A2830"><path d="M536.677 298.744c0 .262.088.48.266.655a.89.89 0 0 0 .656.266h4.61v1.384h-4.61a2.24 2.24 0 0 1-1.638-.668 2.23 2.23 0 0 1-.668-1.638v-5.992c0-.646.223-1.19.668-1.638.444-.444.992-.67 1.637-.67h4.61v1.386h-4.61c-.262 0-.48.088-.657.265s-.266.396-.266.657v5.992zM544.515 291.83v-1.385h4.38c.645 0 1.19.225 1.637.67.445.444.67.99.67 1.637v8.298h-.692l-.414-1.384a2.16 2.16 0 0 1-.83 1.004c-.385.253-.813.38-1.29.38h-1.845c-.645 0-1.19-.224-1.636-.668a2.23 2.23 0 0 1-.67-1.638v-1.613c0-.645.225-1.19.67-1.635.443-.446.99-.67 1.637-.67h3.69v-2.073c0-.263-.09-.48-.268-.657s-.396-.265-.657-.265h-4.38zm4.38 7.836c.262 0 .48-.09.656-.267a.89.89 0 0 0 .266-.656v-2.535h-3.688c-.263 0-.48.088-.656.265a.888.888 0 0 0-.266.656v1.614c0 .262.088.48.266.655a.888.888 0 0 0 .656.266h2.766zM559.383 297.13a.89.89 0 0 0-.267-.655.893.893 0 0 0-.655-.266h-2.535c-.646 0-1.19-.226-1.637-.67-.447-.444-.67-.99-.67-1.638v-1.15c0-.646.224-1.19.67-1.638.444-.444.99-.67 1.637-.67h4.38v1.386h-4.38a.892.892 0 0 0-.657.265.892.892 0 0 0-.265.657v1.15c0 .276.084.5.253.67.17.17.393.254.67.254h2.535c.646 0 1.19.223 1.637.67.446.442.67.988.67 1.635v1.614c0 .646-.224 1.19-.67 1.638-.446.444-.99.668-1.636.668h-4.61v-1.383h4.61c.275 0 .5-.085.67-.255.168-.17.253-.393.253-.668v-1.613zM569.778 291.115c.444.445.668.99.668 1.638v5.992a2.24 2.24 0 0 1-.668 1.638c-.444.444-.99.668-1.638.668h-2.766c-.646 0-1.19-.223-1.638-.667a2.234 2.234 0 0 1-.67-1.638v-5.992c0-.646.226-1.19.67-1.638a2.23 2.23 0 0 1 1.638-.67h2.766c.65 0 1.193.225 1.638.67zm-4.403.715a.885.885 0 0 0-.656.265.89.89 0 0 0-.267.657v5.992c0 .262.088.48.266.655a.888.888 0 0 0 .655.266h2.766c.264 0 .48-.09.658-.267a.89.89 0 0 0 .265-.656v-5.992c0-.263-.088-.48-.265-.657s-.396-.265-.657-.265h-2.765zM578.513 297.13c0-.26-.09-.478-.266-.655a.895.895 0 0 0-.656-.266h-2.535a2.24 2.24 0 0 1-1.637-.67c-.447-.444-.67-.99-.67-1.638v-1.15c0-.646.224-1.19.67-1.638.445-.444.99-.67 1.637-.67h4.38v1.386h-4.38a.892.892 0 0 0-.657.265.892.892 0 0 0-.265.657v1.15c0 .276.084.5.253.67.17.17.394.254.67.254h2.535c.647 0 1.19.223 1.637.67.446.442.67.988.67 1.635v1.614c0 .646-.224 1.19-.67 1.638-.445.444-.99.668-1.636.668h-4.61v-1.383h4.61c.276 0 .5-.085.67-.255.168-.17.253-.393.253-.668v-1.613z"/></g><g fill="#9A2830"><path d="M451.266 274.857c0 .205.072.386.215.537.146.154.328.23.555.23h6.912v2.46h-7.987c-.86 0-1.59-.298-2.184-.895-.595-.595-.892-1.32-.892-2.183V261.79c0-.86.297-1.586.892-2.183.595-.594 1.32-.892 2.184-.892h7.987v2.46h-6.912a.728.728 0 0 0-.554.228.758.758 0 0 0-.214.538v12.917zM472.838 258.722v2.46h-7.99v5.838h7.375v2.46h-7.375v6.145h7.99v2.46h-11.37V258.72h11.37zM487.434 258.722v19.362h-3.228l-5.44-12.447v12.447h-3.316v-19.362h3.382c.898 2.15 1.786 4.283 2.657 6.394.868 2.11 1.755 4.23 2.656 6.36v-12.754h3.288zM494.135 278.085v-16.903h-4.764v-2.46h12.908v2.46h-4.765v16.903h-3.378zM504.644 258.722h8.605c.86 0 1.587.298 2.182.893.594.596.893 1.32.893 2.183v5.316c0 .695-.245 1.29-.737 1.78a2.427 2.427 0 0 1-1.782.738h-.77a511.34 511.34 0 0 0 1.98 4.227c.667 1.403 1.338 2.812 2.016 4.227h-3.78a616.454 616.454 0 0 0-1.797-4.228c-.605-1.402-1.216-2.814-1.83-4.228h-1.6v8.452h-3.38v-19.362zm8.3 3.228a.75.75 0 0 0-.216-.556.754.754 0 0 0-.554-.215h-4.15v5.992h4.12c.532 0 .8-.268.8-.8v-4.422zM530.43 259.614c.594.596.893 1.32.893 2.183v13.216c0 .86-.3 1.588-.894 2.182-.595.597-1.32.894-2.183.894h-5.53c-.862 0-1.59-.298-2.186-.895-.594-.594-.89-1.32-.89-2.182v-13.216c0-.86.296-1.587.89-2.183.597-.595 1.322-.893 2.186-.893h5.53c.863.002 1.59.3 2.183.894zm-6.638 1.567a.727.727 0 0 0-.555.23.757.757 0 0 0-.216.538v12.907c0 .228.073.41.217.555a.75.75 0 0 0 .555.215h3.38c.226 0 .41-.07.554-.215a.744.744 0 0 0 .216-.555V261.95a.75.75 0 0 0-.216-.538.726.726 0 0 0-.554-.23h-3.38zM534.302 271.63v-2.458h10.756v2.46h-10.756zM557.784 259.614c.595.596.892 1.32.892 2.183v13.216c0 .86-.297 1.588-.892 2.182-.597.597-1.32.894-2.185.894h-5.532c-.86 0-1.588-.298-2.182-.895-.596-.594-.894-1.32-.894-2.182v-13.216c0-.86.298-1.587.894-2.183.594-.595 1.32-.893 2.182-.893h5.53c.863.002 1.59.3 2.186.894zm-6.64 1.567a.726.726 0 0 0-.554.23.753.753 0 0 0-.216.538v12.907c0 .228.07.41.216.555a.747.747 0 0 0 .554.215h3.38c.228 0 .41-.07.556-.215a.754.754 0 0 0 .215-.555V261.95a.76.76 0 0 0-.77-.768h-3.38zM573.025 258.722v2.46h-7.988v5.838h7.376v2.46h-7.376v6.145h7.988v2.46h-11.37V258.72h11.37zM583.26 270.248a.757.757 0 0 0-.215-.556.757.757 0 0 0-.556-.215h-4.456c-.86 0-1.588-.297-2.183-.892-.595-.594-.892-1.32-.892-2.183v-4.611c0-.86.297-1.586.893-2.182.596-.595 1.32-.893 2.184-.893h7.99v2.46h-7.067c-.23 0-.41.076-.554.228a.752.752 0 0 0-.217.538v4.272c0 .246.077.44.23.584.15.145.354.215.6.215h4.548c.86 0 1.588.3 2.185.895.593.595.89 1.32.89 2.183v4.917c0 .86-.297 1.588-.89 2.183-.598.596-1.322.893-2.186.893h-8.297v-2.458h7.16c.246 0 .445-.07.6-.215.153-.146.23-.35.23-.614l.003-4.545zM593.094 278.085v-16.903h-4.764v-2.46h12.907v2.46h-4.765v16.903h-3.378zM614.976 258.722v2.46h-7.99v5.838h7.375v2.46h-7.375v6.145h7.99v2.46h-11.37V258.72h11.37z"/></g><g fill="#9A2830"><path d="M587.785 597.125c0 .26.088.48.266.655a.89.89 0 0 0 .657.267h4.607v1.383h-4.607c-.646 0-1.19-.224-1.638-.668a2.234 2.234 0 0 1-.67-1.638v-5.992c0-.646.225-1.19.67-1.638.443-.444.99-.668 1.637-.668h4.607v1.383h-4.607c-.263 0-.48.088-.656.265a.89.89 0 0 0-.265.657v5.993zM595.62 590.21v-1.384h4.382c.645 0 1.188.224 1.636.668.446.446.67.99.67 1.638v8.298h-.69l-.417-1.383c-.167.415-.443.75-.827 1.003-.385.253-.814.38-1.29.38h-1.847a2.233 2.233 0 0 1-1.637-.668 2.228 2.228 0 0 1-.67-1.637v-1.614c0-.645.224-1.188.67-1.635.445-.446.99-.67 1.636-.67h3.688v-2.073c0-.263-.09-.48-.267-.657a.892.892 0 0 0-.655-.265h-4.38zm4.38 7.837c.26 0 .48-.09.655-.267s.267-.396.267-.655v-2.536h-3.688c-.263 0-.48.088-.656.265a.89.89 0 0 0-.267.656v1.615c0 .26.09.48.268.655a.893.893 0 0 0 .656.267H600zM610.49 595.51c0-.262-.092-.48-.268-.656a.894.894 0 0 0-.656-.266h-2.536a2.24 2.24 0 0 1-1.638-.668 2.23 2.23 0 0 1-.668-1.638v-1.15c0-.647.224-1.19.668-1.64a2.235 2.235 0 0 1 1.638-.667h4.38v1.383h-4.38c-.263 0-.48.09-.655.266a.887.887 0 0 0-.268.657v1.152c0 .275.084.5.255.67.17.168.393.252.668.252h2.536c.646 0 1.19.224 1.637.67.445.443.67.99.67 1.636v1.613c0 .646-.225 1.19-.67 1.638a2.23 2.23 0 0 1-1.637.67h-4.61v-1.384h4.61c.275 0 .498-.084.67-.255.167-.168.253-.392.253-.667v-1.613zM620.883 589.494c.445.445.668.99.668 1.638v5.993c0 .646-.222 1.188-.667 1.637-.446.445-.99.668-1.637.668h-2.768c-.646 0-1.19-.223-1.637-.668s-.668-.99-.668-1.637v-5.993c0-.646.223-1.19.67-1.638.443-.444.99-.668 1.636-.668h2.768c.645 0 1.19.224 1.637.668zm-4.403.716a.884.884 0 0 0-.655.265.888.888 0 0 0-.267.657v5.993c0 .26.088.48.267.655a.892.892 0 0 0 .655.267h2.768c.262 0 .48-.09.655-.267a.885.885 0 0 0 .267-.655v-5.993a.884.884 0 0 0-.267-.657.89.89 0 0 0-.655-.265h-2.768zM629.62 595.51a.89.89 0 0 0-.267-.656.893.893 0 0 0-.655-.266h-2.536c-.646 0-1.19-.224-1.64-.668a2.235 2.235 0 0 1-.667-1.638v-1.15c0-.647.225-1.19.668-1.64a2.235 2.235 0 0 1 1.64-.667h4.38v1.383h-4.38c-.265 0-.48.09-.657.266a.89.89 0 0 0-.267.657v1.152c0 .275.083.5.253.67s.393.252.67.252h2.535a2.23 2.23 0 0 1 1.636.67c.446.443.67.99.67 1.636v1.613c0 .646-.224 1.19-.67 1.638-.445.445-.99.67-1.636.67h-4.61v-1.384h4.61c.274 0 .498-.084.668-.255.17-.168.254-.392.254-.667v-1.613z"/></g><g fill="#9A2830"><path d="M507.925 568.634a.75.75 0 0 0-.216-.555.75.75 0 0 0-.555-.216h-4.457c-.858 0-1.588-.298-2.183-.893-.594-.594-.89-1.32-.89-2.182v-4.611c0-.86.296-1.587.89-2.183.595-.595 1.322-.893 2.183-.893h7.99v2.46h-7.066a.73.73 0 0 0-.555.23.76.76 0 0 0-.216.537v4.27c0 .247.078.44.23.585.153.145.355.215.6.215h4.55c.86 0 1.587.3 2.184.893.594.596.89 1.32.89 2.184v4.917c0 .86-.296 1.59-.89 2.184-.597.595-1.322.893-2.184.893h-8.3v-2.46h7.162c.246 0 .446-.07.6-.215.154-.145.23-.35.23-.613l.003-4.546zM521.416 574.01a.79.79 0 0 0 .567-.214c.153-.146.23-.35.23-.614v-16.074h3.38v16.29c0 .86-.297 1.588-.89 2.182-.597.596-1.322.893-2.185.893h-5.53c-.86 0-1.59-.297-2.185-.893-.594-.594-.89-1.32-.89-2.183v-16.29h3.38v16.138c0 .227.07.41.215.554a.746.746 0 0 0 .553.214l3.356-.003zM531.958 557.107v16.903h8.452v2.46h-11.833v-19.363h3.38z"/></g><g fill="#9A2830"><path d="M413.324 117.196c0 .263.088.48.265.656a.893.893 0 0 0 .656.268h4.608v1.383h-4.608c-.646 0-1.19-.225-1.64-.668a2.23 2.23 0 0 1-.667-1.64v-5.99c0-.646.224-1.19.667-1.64.446-.442.99-.667 1.64-.667h4.607v1.383h-4.608c-.263 0-.48.09-.657.268s-.266.396-.266.657v5.99zM421.16 110.28V108.9h4.38a2.24 2.24 0 0 1 1.636.668c.445.446.668.99.668 1.64v8.297h-.69l-.415-1.383c-.17.415-.446.75-.83 1.003-.386.253-.814.38-1.292.38h-1.845a2.24 2.24 0 0 1-1.637-.668c-.446-.446-.668-.99-.668-1.64v-1.61c0-.647.223-1.19.668-1.64.446-.443.99-.668 1.637-.668h3.688v-2.072c0-.264-.088-.48-.266-.657a.892.892 0 0 0-.655-.267h-4.38zm4.38 7.84c.26 0 .48-.092.655-.27a.888.888 0 0 0 .267-.655v-2.534h-3.688c-.262 0-.48.09-.656.267s-.266.396-.266.656v1.612c0 .263.088.48.266.656a.894.894 0 0 0 .656.27h2.766zM436.027 115.583a.89.89 0 0 0-.265-.656.893.893 0 0 0-.657-.266h-2.536a2.24 2.24 0 0 1-1.638-.667c-.446-.445-.668-.99-.668-1.64v-1.15c0-.645.223-1.19.668-1.638.446-.443.99-.668 1.637-.668h4.38v1.383h-4.38c-.263 0-.48.09-.657.267s-.266.396-.266.657v1.15c0 .276.084.5.253.67s.394.252.668.252h2.536c.646 0 1.19.225 1.636.67.446.444.668.99.668 1.637v1.612c0 .646-.223 1.19-.668 1.64a2.23 2.23 0 0 1-1.636.667h-4.61v-1.383h4.61c.276 0 .5-.085.668-.257.17-.17.253-.392.253-.668v-1.612h.002zM446.422 109.566c.445.446.668.99.668 1.64v5.99c0 .646-.225 1.19-.668 1.64-.446.442-.99.667-1.636.667h-2.768a2.24 2.24 0 0 1-1.637-.668c-.445-.446-.667-.99-.667-1.64v-5.99c0-.646.223-1.19.668-1.64.447-.442.992-.667 1.638-.667h2.768c.645 0 1.19.224 1.636.668zm-4.402.715c-.26 0-.48.09-.657.268a.892.892 0 0 0-.265.657v5.99c0 .264.088.48.265.657a.896.896 0 0 0 .657.268h2.768c.26 0 .48-.09.655-.268a.884.884 0 0 0 .267-.656v-5.99a.88.88 0 0 0-.267-.658.892.892 0 0 0-.655-.267h-2.768zM455.157 115.583a.89.89 0 0 0-.266-.656.89.89 0 0 0-.656-.266H451.7c-.646 0-1.19-.224-1.64-.667-.445-.445-.667-.99-.667-1.64v-1.15c0-.645.225-1.19.668-1.638.447-.443.992-.668 1.64-.668h4.378v1.383H451.7a.89.89 0 0 0-.657.267.89.89 0 0 0-.267.657v1.15c0 .276.084.5.253.67.17.168.393.252.667.252h2.536c.646 0 1.19.225 1.636.67.444.444.668.99.668 1.637v1.612c0 .646-.225 1.19-.67 1.64-.444.442-.99.667-1.635.667h-4.608v-1.383h4.608c.276 0 .5-.085.667-.257.17-.17.253-.392.253-.668v-1.612h.004z"/></g><g fill="#9A2830"><path d="M337.026 75.472v19.362H333.8l-5.44-12.447v12.447h-3.317V75.472h3.38c.9 2.15 1.788 4.283 2.658 6.393.87 2.11 1.76 4.23 2.66 6.362V75.472h3.286zM350.67 76.363c.595.597.892 1.32.892 2.184v13.216c0 .86-.297 1.588-.89 2.182-.596.597-1.322.894-2.185.894h-5.53c-.86 0-1.59-.298-2.184-.895-.595-.594-.892-1.32-.892-2.182V78.546c0-.86.298-1.587.893-2.184.594-.594 1.32-.892 2.183-.892h5.53c.864.002 1.59.3 2.185.893zm-6.638 1.568a.724.724 0 0 0-.553.23.755.755 0 0 0-.216.537v12.908c0 .228.072.41.215.555a.746.746 0 0 0 .552.215h3.38a.75.75 0 0 0 .555-.215.754.754 0 0 0 .215-.555V78.698a.76.76 0 0 0-.215-.536.73.73 0 0 0-.554-.23h-3.38zM354.544 75.472h8.604c.86 0 1.587.298 2.183.892.596.597.893 1.32.893 2.184v5.315c0 .696-.246 1.29-.738 1.782a2.427 2.427 0 0 1-1.78.737h-.77a546.224 546.224 0 0 0 1.98 4.227c.666 1.403 1.338 2.812 2.014 4.227h-3.78a570.516 570.516 0 0 0-1.8-4.228c-.603-1.402-1.213-2.814-1.828-4.228h-1.598v8.452h-3.382V75.472h.002zm8.297 3.226a.755.755 0 0 0-.214-.554.755.755 0 0 0-.554-.215h-4.148v5.992h4.118c.532 0 .8-.27.8-.8V78.7zM373.383 94.835V77.93h-4.766v-2.458h12.908v2.46h-4.764v16.902h-3.377zM395.265 75.472v2.46h-7.99v5.838h7.375v2.46h-7.376v6.145h7.99v2.46h-11.37V75.47h11.37z"/></g></svg>