<?xml version="1.0" encoding="utf-8"?>
<!-- Generator: Adobe Illustrator 16.0.0, SVG Export Plug-In . SVG Version: 6.00 Build 0)  -->
<!DOCTYPE svg PUBLIC "-//W3C//DTD SVG 1.1//EN" "http://www.w3.org/Graphics/SVG/1.1/DTD/svg11.dtd">
<svg version="1.1" id="Camada_1" xmlns="http://www.w3.org/2000/svg" xmlns:xlink="http://www.w3.org/1999/xlink" x="0px" y="0px"
	 width="936.748px" height="802.717px" viewBox="0 0 936.748 802.717" enable-background="new 0 0 936.748 802.717"
	 xml:space="preserve">
<g>
	
		<linearGradient id="SVGID_1_" gradientUnits="userSpaceOnUse" x1="-828.929" y1="366.2073" x2="-828.9291" y2="1126.6467" gradientTransform="matrix(1 0 0 -1 1297.3008 1168.9185)">
		<stop  offset="0" style="stop-color:#243540"/>
		<stop  offset="1" style="stop-color:#687684"/>
	</linearGradient>
	<path fill="url(#SVGID_1_)" d="M173.812,48.594l-25.556-6.323l1.572,21.256l-11.551-6.278l-8.344,50.42L4.04,158.646l-4.041,30.772
		l40.724,30.15l23.624-10.258l-2.179,18.34l11.814,8.396l14.297-8.704l13.679,12.745l13.367-12.123c0,0,23.001-3.419,42.896-8.082
		c19.893-4.663,31.705-8.396,31.705-8.396h3.419l-2.178,13.988l13.366,30.772l37.925-6.838l19.894,18.961h48.304l-11.039,30.105
		l2.523,9.37l5.596,19.272c0,0,45.695-9.947,50.979-9.638c0.933,5.284-1.243,16.785-1.243,16.785l12.743,53.777l-22.381,58.438
		l5.283,1.862l67.146-4.974l8.702,42.896l36.367,8.394l-5.903,29.841l35.125,23.003l-111.904,84.551l-41.652,23.624l-16.166,16.164
		l-5.903,31.084l63.103-22.689L516,754.97l-12.885,47.741h21.592c0,0,35.75-49.734,41.653-60.305
		c5.905-10.568,8.394-26.421,8.394-26.421l92.942-104.138l2.798-31.396l-18.96-59.991l81.44-25.181c0,0,24.869-3.419,27.664-4.04
		c2.799-0.621,9.016-21.447,9.016-21.447l96.983-28.6c0,0,7.771-3.42,8.392-12.437c2.178-13.363,6.528-33.569,6.528-33.569
		l9.948-9.638l3.293-31.238l-10.446-19.74l4.327,5.917l5.654-30.675l-5.162-19.52c0,0,3.406-6.257,3.082-11.244
		c-0.822-12.67-1.745-35.543,2.048-38.666c5.28-4.354,4.975-6.838,4.975-6.838l-2.18-4.354l19.584-5.283v-11.813l8.081-6.527
		c0,0,6.529-10.88,7.771-23.003c1.241-12.122,4.213-25.863,4.213-25.863l-243.879-10.813l-162.879-18.025l-297.79-39.783
		L173.812,48.594z"/>
	<path fill="#C0CF5A" d="M565.508,60.198c0,0-3.537-2.831-4.068-2.831s-13.979,1.416-13.979,1.416v13.623l12.563,2.124l2.123,2.832
		l19.464-4.601c0,0,18.047-11.324,17.34-11.324s-20.35-3.185-20.35-3.185L565.508,60.198z"/>
	<polygon fill="#DDDF63" points="508.385,417.638 480.864,466.033 483.823,468.284 465.336,493.606 498.615,518.568 
		480.889,554.381 406.369,578.978 326.059,671.225 386.111,648.8 523.938,727.299 511.277,771.432 526.47,771.432 571.328,709.573 
		579.285,684.608 671.896,579.702 649.105,493.968 692.977,479.857 667.555,416.19 573.5,394.486 	"/>
	<polygon fill="#C85634" points="507.002,425.38 583.899,429.529 606.386,425.38 629.643,436.891 622.666,448.521 665.308,489.224 
		739.738,464.029 766.344,460.927 773.852,438.83 876.579,410.082 886.271,365.952 894.802,354.322 885.834,334.067 
		867.664,263.611 821.923,232.598 740.901,218.642 630.42,274.078 507.002,360.523 492.412,414.019 	"/>
	<path fill="#E2AB3B" d="M646.77,69.178L694,77.364l-8.427,8.061l2.106,9.626l1.505,1.203l24.063-13.537l21.957,6.314l53.848,0.604
		L859.74,113.4l40.008,4.514l37.002,38.804l-6.02,17.447l-9.926,7.818l-0.302,12.031l-18.951,3.911l2.104,5.113l-21.657,28.877
		l-11.729-2.707l0.604,18.048l10.525-4.603l-1.805,10.018c0,0,2.104,11.729,2.404,12.634c0.303,0.902,10.528,11.432,10.528,11.432
		l-9.925,4.813l11.73,28.275l-7.223,26.17l-2.404-3.609l-28.88-23.162l15.644-26.472l-34.291,0.901l-79.713-21.657l-3.311-10.229
		l-53.238,16.244l-11.131-4.211l-13.256-32.251l-46.604-61.603l-24.969-37l-9.023-27.374l34.894-21.959L646.77,69.178z"/>
	<path fill="#EDC963" d="M313.887,237.958l2.286,16.507l-9.542,24.06l7.053,17.841l55.588-10.785l-7.467,15.763l16.179,64.3
		l-19.083,49.366l66.375-2.075l9.54,43.146l46.047,9.957L507,425.383l40.654-22.401c0,0,18.251-38.165,26.548-48.95
		c8.298-10.785,26.552-23.229,26.552-23.229l79.647,0.415l-13.688-38.58l8.299-11.616l-4.147-12.031l18.925-5.184l-16.021-45.011
		l-73.013-53.517l-151.002-30.696c0,0-51.024-22.816-52.271-22.816s-108.688,19.079-108.688,19.079l-7.053,75.917l23.231,15.764
		L313.887,237.958z"/>
	<path fill="#B6C95A" d="M105.99,208.84l-13.15-12.523l-15.025,9.395l-11.585-8.142l8.141-20.038l-29.432,11.584L4.234,158.746
		l36.32-28.18l2.505-5.323l49.47-21.29l21.604,3.442l35.382-36.317l-3.134-2.192l3.134-3.757l-11.584-6.575l3.131-11.585h25.047
		l-17.846-4.695l6.262-6.263h25.361l6.888-4.07l2.191,3.444l11.896-3.444l14.089,17.223l21.917,0.626l40.703-20.665l-12.522-5.011
		l5.321-6.574L261.6,9.084l40.389,6.888l35.38-6.888l9.08-1.565V0.002h15.341l-5.945,9.08l5.945,1.252l-5.009,13.775l25.048,22.229
		l5.639-10.958l58.55,2.815l-9.707-6.262l2.505-3.758l15.655,2.192l5.947-1.881l5.638,2.506v4.695l23.479,6.264l30.996,31.31
		l22.23-4.384l11.585,11.271l36.633,2.505l9.079-5.009c0,0-0.313-6.576,0-6.89c0.313-0.313,10.958-6.261,10.958-6.261l28.834,2.863
		l6.858,4.021l-1.563,19.728l-36.006,18.16l-6.575,8.453l16.28,0.313l12.838,6.261l-1.879,21.917l11.896,8.142l15.967,0.938
		l-12.21,16.279l16.28,5.638l-2.504,5.949l24.734,9.394l-21.917,13.149l21.917,14.715l-3.758,9.394l-2.19-3.757l-41.017,13.776
		l-39.45-16.281l1.253,19.1l-25.048-24.421l-7.518,8.769l-0.627-28.492l11.898-14.716l-168.448-9.396L388.397,145.9l-13.15,21.291
		l-17.847-0.938l3.444,3.757l-58.552,0.313l1.88,29.118l41.33,8.453l-12.212,2.505l3.133,9.394l-22.543,18.16l-47.592-0.938
		l-18.786-18.16l-37.57,7.201l-15.029-30.37l15.029-14.402h-15.655c0,0-42.896,13.465-72.64,16.28
		C112.25,205.709,105.99,208.84,105.99,208.84z"/>
	<g enable-background="new    ">
		<path fill="#9A2830" d="M837.625,181.322c0,0.263,0.088,0.48,0.266,0.656c0.176,0.177,0.396,0.267,0.656,0.267h4.608v1.384h-4.608
			c-0.646,0-1.191-0.225-1.638-0.668c-0.444-0.446-0.668-0.991-0.668-1.639v-5.992c0-0.646,0.224-1.189,0.668-1.638
			c0.444-0.443,0.99-0.668,1.638-0.668h4.608v1.384h-4.608c-0.263,0-0.48,0.088-0.656,0.266c-0.178,0.177-0.266,0.396-0.266,0.656
			V181.322z"/>
		<path fill="#9A2830" d="M845.459,174.406v-1.383h4.381c0.645,0,1.188,0.225,1.636,0.668c0.446,0.446,0.669,0.991,0.669,1.638
			v8.299h-0.69l-0.416-1.384c-0.168,0.415-0.444,0.749-0.828,1.004c-0.385,0.253-0.814,0.38-1.291,0.38h-1.846
			c-0.646,0-1.188-0.225-1.637-0.668c-0.445-0.446-0.669-0.991-0.669-1.639v-1.612c0-0.646,0.224-1.19,0.669-1.638
			c0.446-0.444,0.991-0.669,1.637-0.669h3.688v-2.073c0-0.263-0.09-0.479-0.266-0.656c-0.179-0.178-0.396-0.267-0.656-0.267H845.459
			z M849.84,182.244c0.26,0,0.479-0.09,0.656-0.267c0.176-0.176,0.266-0.396,0.266-0.656v-2.535h-3.688
			c-0.263,0-0.479,0.09-0.656,0.267c-0.178,0.177-0.266,0.396-0.266,0.656v1.612c0,0.263,0.088,0.48,0.266,0.656
			c0.177,0.177,0.396,0.267,0.656,0.267H849.84z"/>
		<path fill="#9A2830" d="M860.329,179.709c0-0.263-0.09-0.479-0.267-0.656c-0.178-0.177-0.396-0.267-0.655-0.267h-2.536
			c-0.646,0-1.19-0.224-1.639-0.668c-0.443-0.444-0.668-0.99-0.668-1.638v-1.151c0-0.646,0.225-1.189,0.668-1.638
			c0.446-0.443,0.992-0.668,1.639-0.668h4.38v1.383h-4.38c-0.264,0-0.48,0.089-0.656,0.267c-0.178,0.177-0.267,0.396-0.267,0.656
			v1.151c0,0.276,0.084,0.5,0.254,0.669s0.393,0.253,0.669,0.253h2.536c0.646,0,1.188,0.225,1.636,0.669
			c0.446,0.445,0.669,0.991,0.669,1.638v1.612c0,0.646-0.225,1.19-0.669,1.639c-0.445,0.443-0.99,0.668-1.636,0.668h-4.61v-1.384
			h4.61c0.274,0,0.498-0.084,0.668-0.254c0.168-0.17,0.254-0.393,0.254-0.669V179.709L860.329,179.709z"/>
		<path fill="#9A2830" d="M870.722,173.692c0.445,0.446,0.668,0.991,0.668,1.638v5.992c0,0.646-0.223,1.19-0.668,1.639
			c-0.446,0.443-0.991,0.668-1.637,0.668h-2.767c-0.646,0-1.19-0.225-1.638-0.668c-0.446-0.446-0.669-0.991-0.669-1.639v-5.992
			c0-0.646,0.225-1.189,0.669-1.638c0.445-0.444,0.99-0.668,1.638-0.668h2.767C869.731,173.024,870.276,173.248,870.722,173.692z
			 M866.321,174.406c-0.263,0-0.479,0.089-0.656,0.267c-0.178,0.177-0.267,0.396-0.267,0.656v5.992c0,0.263,0.089,0.48,0.267,0.656
			c0.177,0.177,0.396,0.267,0.656,0.267h2.767c0.262,0,0.479-0.09,0.656-0.267c0.178-0.176,0.266-0.396,0.266-0.656v-5.992
			c0-0.263-0.088-0.479-0.266-0.656c-0.178-0.178-0.396-0.267-0.656-0.267H866.321z"/>
		<path fill="#9A2830" d="M879.458,179.709c0-0.263-0.089-0.479-0.267-0.656s-0.396-0.267-0.655-0.267H876
			c-0.646,0-1.19-0.224-1.638-0.668c-0.444-0.444-0.668-0.99-0.668-1.638v-1.151c0-0.646,0.224-1.189,0.668-1.638
			c0.445-0.443,0.991-0.668,1.638-0.668h4.38v1.383H876c-0.263,0-0.48,0.089-0.656,0.267c-0.178,0.177-0.266,0.396-0.266,0.656
			v1.151c0,0.276,0.084,0.5,0.254,0.669c0.169,0.169,0.392,0.253,0.668,0.253h2.536c0.646,0,1.188,0.225,1.636,0.669
			c0.447,0.445,0.669,0.991,0.669,1.638v1.612c0,0.646-0.224,1.19-0.669,1.639c-0.445,0.443-0.99,0.668-1.636,0.668h-4.61v-1.384
			h4.61c0.274,0,0.499-0.084,0.669-0.254c0.168-0.17,0.253-0.393,0.253-0.669V179.709z"/>
	</g>
	<g enable-background="new    ">
		<path fill="#9A2830" d="M762.987,141.301v19.362h-3.229l-5.439-12.447v12.447h-3.317v-19.362h3.381
			c0.901,2.15,1.787,4.283,2.658,6.393c0.87,2.11,1.757,4.231,2.657,6.362v-12.755H762.987z"/>
		<path fill="#9A2830" d="M776.631,142.191c0.595,0.597,0.892,1.321,0.892,2.184v13.216c0,0.858-0.297,1.588-0.892,2.182
			c-0.594,0.596-1.32,0.894-2.183,0.894h-5.53c-0.861,0-1.589-0.298-2.185-0.894c-0.595-0.594-0.892-1.32-0.892-2.182v-13.216
			c0-0.86,0.297-1.587,0.892-2.184c0.596-0.594,1.321-0.892,2.185-0.892h5.53C775.31,141.301,776.039,141.598,776.631,142.191z
			 M769.995,143.76c-0.228,0-0.41,0.077-0.556,0.229c-0.143,0.153-0.215,0.333-0.215,0.538v12.908c0,0.228,0.072,0.409,0.215,0.553
			c0.146,0.146,0.328,0.217,0.556,0.217h3.38c0.226,0,0.409-0.071,0.554-0.217c0.145-0.144,0.216-0.325,0.216-0.553v-12.908
			c0-0.205-0.071-0.385-0.216-0.538c-0.144-0.151-0.328-0.229-0.554-0.229H769.995z"/>
		<path fill="#9A2830" d="M780.504,141.301h8.604c0.859,0,1.587,0.298,2.184,0.892c0.594,0.597,0.891,1.321,0.891,2.184v5.315
			c0,0.696-0.246,1.291-0.737,1.782c-0.489,0.492-1.086,0.737-1.78,0.737h-0.771c0.655,1.414,1.316,2.821,1.982,4.227
			c0.665,1.403,1.337,2.813,2.013,4.228h-3.779c-0.596-1.414-1.192-2.822-1.799-4.228c-0.604-1.403-1.214-2.813-1.828-4.227h-1.598
			v8.452h-3.381V141.301L780.504,141.301z M788.801,144.527c0-0.226-0.071-0.409-0.215-0.554c-0.144-0.143-0.328-0.215-0.554-0.215
			h-4.147v5.993h4.117c0.533,0,0.799-0.269,0.799-0.799V144.527z"/>
		<path fill="#9A2830" d="M795.717,141.301h8.604c0.858,0,1.588,0.298,2.183,0.892c0.594,0.597,0.891,1.321,0.891,2.184v13.216
			c0,0.859-0.297,1.588-0.891,2.182c-0.595,0.596-1.322,0.894-2.183,0.894h-8.604V141.301z M804.013,144.527
			c0-0.205-0.071-0.385-0.215-0.538c-0.144-0.151-0.328-0.229-0.553-0.229h-4.148v14.444h4.117c0.533,0,0.799-0.268,0.799-0.801
			V144.527z"/>
		<path fill="#9A2830" d="M821.685,141.301v2.459h-7.989v5.839h7.377v2.459h-7.377v6.146h7.989v2.459h-11.371v-19.362H821.685z"/>
		<path fill="#9A2830" d="M831.92,152.825c0-0.227-0.072-0.409-0.216-0.555c-0.146-0.143-0.328-0.215-0.555-0.215h-4.457
			c-0.858,0-1.588-0.297-2.182-0.892c-0.595-0.596-0.893-1.321-0.893-2.184v-0.646v-3.965c0-0.86,0.298-1.589,0.893-2.184
			c0.594-0.594,1.321-0.892,2.182-0.892h7.991v2.459h-7.067c-0.228,0-0.409,0.077-0.555,0.229c-0.144,0.153-0.216,0.333-0.216,0.538
			v4.271c0,0.246,0.078,0.439,0.229,0.584c0.153,0.144,0.354,0.215,0.601,0.215h4.549c0.86,0,1.588,0.298,2.183,0.892
			c0.595,0.597,0.893,1.321,0.893,2.185v4.917c0,0.858-0.298,1.588-0.893,2.182c-0.595,0.595-1.32,0.893-2.183,0.893h-8.298v-2.459
			h7.161c0.246,0,0.444-0.07,0.6-0.216c0.152-0.144,0.23-0.348,0.23-0.612L831.92,152.825L831.92,152.825z"/>
		<path fill="#9A2830" d="M841.754,160.663V143.76h-4.765v-2.459h12.907v2.459h-4.764v16.903H841.754z"/>
		<path fill="#9A2830" d="M863.636,141.301v2.459h-7.991v5.839h7.376v2.459h-7.376v6.146h7.991v2.459h-11.372v-19.362H863.636z"/>
	</g>
	<g enable-background="new    ">
		<path fill="#FFFFFF" d="M784.106,380.139c0,0.261,0.09,0.479,0.267,0.656s0.396,0.266,0.657,0.266h4.608v1.384h-4.608
			c-0.646,0-1.19-0.224-1.639-0.668c-0.445-0.446-0.669-0.991-0.669-1.638v-5.993c0-0.646,0.224-1.189,0.669-1.637
			c0.446-0.445,0.991-0.668,1.639-0.668h4.608v1.383h-4.608c-0.263,0-0.48,0.088-0.657,0.266c-0.177,0.177-0.267,0.396-0.267,0.656
			V380.139z"/>
		<path fill="#FFFFFF" d="M791.944,373.223v-1.383h4.379c0.646,0,1.19,0.223,1.638,0.668c0.444,0.445,0.668,0.99,0.668,1.637v8.299
			h-0.691l-0.413-1.384c-0.171,0.415-0.446,0.749-0.83,1.003c-0.386,0.253-0.813,0.381-1.291,0.381h-1.845
			c-0.646,0-1.189-0.224-1.637-0.669c-0.445-0.445-0.668-0.99-0.668-1.637v-1.614c0-0.645,0.223-1.188,0.668-1.636
			c0.444-0.445,0.991-0.669,1.637-0.669h3.688v-2.074c0-0.262-0.088-0.479-0.267-0.656c-0.177-0.178-0.396-0.266-0.655-0.266
			H791.944L791.944,373.223z M796.323,381.06c0.263,0,0.479-0.089,0.656-0.266c0.178-0.177,0.267-0.396,0.267-0.656v-2.536h-3.688
			c-0.262,0-0.479,0.089-0.656,0.267s-0.266,0.396-0.266,0.655v1.614c0,0.261,0.088,0.479,0.266,0.656s0.396,0.266,0.656,0.266
			H796.323z"/>
		<path fill="#FFFFFF" d="M806.81,378.524c0-0.261-0.089-0.479-0.266-0.655c-0.176-0.178-0.396-0.267-0.656-0.267h-2.535
			c-0.646,0-1.189-0.223-1.637-0.668c-0.446-0.444-0.669-0.99-0.669-1.637v-1.152c0-0.646,0.223-1.189,0.669-1.637
			c0.445-0.445,0.99-0.668,1.637-0.668h4.38v1.383h-4.38c-0.262,0-0.479,0.088-0.655,0.266c-0.179,0.177-0.267,0.396-0.267,0.656
			v1.152c0,0.275,0.084,0.5,0.253,0.669s0.394,0.253,0.669,0.253h2.535c0.646,0,1.19,0.224,1.638,0.669
			c0.444,0.444,0.668,0.991,0.668,1.637v1.613c0,0.646-0.224,1.189-0.668,1.638c-0.445,0.444-0.991,0.668-1.638,0.668h-4.608v-1.384
			h4.608c0.276,0,0.499-0.084,0.668-0.254c0.17-0.169,0.254-0.393,0.254-0.668V378.524z"/>
		<path fill="#FFFFFF" d="M817.207,372.51c0.446,0.445,0.669,0.991,0.669,1.637v5.993c0,0.646-0.225,1.189-0.669,1.638
			c-0.445,0.444-0.99,0.668-1.636,0.668h-2.769c-0.646,0-1.188-0.224-1.637-0.668c-0.445-0.446-0.668-0.991-0.668-1.638v-5.993
			c0-0.646,0.223-1.189,0.668-1.637c0.446-0.445,0.991-0.668,1.637-0.668h2.769C816.215,371.842,816.76,372.063,817.207,372.51z
			 M812.802,373.223c-0.261,0-0.479,0.088-0.656,0.266c-0.178,0.177-0.266,0.396-0.266,0.656v5.993c0,0.262,0.088,0.479,0.266,0.656
			c0.177,0.177,0.396,0.266,0.656,0.266h2.767c0.263,0,0.479-0.089,0.657-0.266c0.177-0.177,0.267-0.396,0.267-0.656v-5.993
			c0-0.262-0.091-0.479-0.267-0.656c-0.178-0.178-0.396-0.266-0.657-0.266H812.802z"/>
		<path fill="#FFFFFF" d="M825.941,378.524c0-0.261-0.089-0.479-0.266-0.655c-0.176-0.178-0.396-0.267-0.656-0.267h-2.534
			c-0.646,0-1.19-0.223-1.638-0.668c-0.446-0.444-0.669-0.99-0.669-1.637v-1.152c0-0.646,0.225-1.189,0.669-1.637
			c0.445-0.445,0.99-0.668,1.638-0.668h4.379v1.383h-4.379c-0.263,0-0.479,0.088-0.656,0.266c-0.178,0.177-0.267,0.396-0.267,0.656
			v1.152c0,0.275,0.084,0.5,0.253,0.669c0.17,0.169,0.394,0.253,0.67,0.253h2.534c0.646,0,1.19,0.224,1.638,0.669
			c0.444,0.444,0.668,0.991,0.668,1.637v1.613c0,0.646-0.224,1.189-0.668,1.638c-0.445,0.444-0.991,0.668-1.638,0.668h-4.608v-1.384
			h4.608c0.276,0,0.499-0.084,0.668-0.254c0.17-0.169,0.255-0.393,0.255-0.668L825.941,378.524L825.941,378.524z"/>
	</g>
	<g enable-background="new    ">
		<path fill="#FFFFFF" d="M702.131,351.645c0-0.226-0.072-0.409-0.215-0.554c-0.146-0.144-0.328-0.215-0.556-0.215h-4.455
			c-0.86,0-1.589-0.298-2.183-0.894c-0.596-0.594-0.893-1.32-0.893-2.182v-0.646v-3.966c0-0.859,0.297-1.587,0.893-2.182
			c0.594-0.595,1.32-0.893,2.183-0.893h7.989v2.459h-7.067c-0.228,0-0.409,0.077-0.554,0.229s-0.216,0.333-0.216,0.538v4.271
			c0,0.246,0.077,0.44,0.23,0.584c0.151,0.145,0.354,0.215,0.6,0.215h4.548c0.861,0,1.588,0.299,2.183,0.893
			c0.596,0.596,0.894,1.32,0.894,2.184v4.917c0,0.859-0.298,1.588-0.894,2.183c-0.595,0.595-1.319,0.892-2.183,0.892h-8.297v-2.459
			h7.16c0.246,0,0.443-0.07,0.6-0.215c0.153-0.145,0.23-0.349,0.23-0.613L702.131,351.645L702.131,351.645z"/>
		<path fill="#FFFFFF" d="M715.625,357.023c0.225,0,0.414-0.07,0.566-0.215c0.153-0.145,0.23-0.348,0.23-0.613V340.12h3.381v16.289
			c0,0.859-0.297,1.588-0.894,2.183c-0.595,0.595-1.319,0.892-2.183,0.892h-5.53c-0.86,0-1.589-0.297-2.183-0.892
			c-0.596-0.595-0.893-1.321-0.893-2.183V340.12h3.381v16.137c0,0.226,0.071,0.408,0.216,0.553c0.144,0.145,0.327,0.215,0.554,0.215
			L715.625,357.023L715.625,357.023z"/>
		<path fill="#FFFFFF" d="M722.784,340.12h8.604c0.86,0,1.588,0.299,2.183,0.893c0.595,0.595,0.893,1.321,0.893,2.183v13.216
			c0,0.859-0.298,1.589-0.893,2.183c-0.595,0.595-1.32,0.892-2.183,0.892h-8.604V340.12z M731.083,343.348
			c0-0.205-0.071-0.385-0.215-0.538c-0.146-0.152-0.328-0.229-0.556-0.229h-4.146v14.443h4.118c0.53,0,0.799-0.266,0.799-0.799
			V343.348L731.083,343.348z"/>
		<path fill="#FFFFFF" d="M748.752,340.12v2.459h-7.99v5.84h7.376v2.459h-7.376v6.146h7.99v2.459h-11.371v-19.361L748.752,340.12
			L748.752,340.12z"/>
		<path fill="#FFFFFF" d="M758.987,351.645c0-0.226-0.071-0.409-0.216-0.554c-0.145-0.144-0.328-0.215-0.554-0.215h-4.456
			c-0.861,0-1.588-0.298-2.182-0.894c-0.598-0.594-0.895-1.32-0.895-2.182v-0.646v-3.966c0-0.859,0.297-1.587,0.895-2.182
			c0.594-0.595,1.318-0.893,2.182-0.893h7.99v2.459h-7.068c-0.227,0-0.41,0.077-0.553,0.229c-0.146,0.152-0.216,0.333-0.216,0.538
			v4.271c0,0.246,0.076,0.44,0.229,0.584c0.153,0.145,0.354,0.215,0.602,0.215h4.548c0.859,0,1.588,0.299,2.183,0.893
			c0.594,0.596,0.893,1.32,0.893,2.184v4.917c0,0.859-0.299,1.588-0.893,2.183c-0.595,0.595-1.32,0.892-2.183,0.892h-8.297v-2.459
			h7.159c0.245,0,0.444-0.07,0.601-0.215c0.151-0.145,0.229-0.349,0.229-0.613L758.987,351.645L758.987,351.645z"/>
		<path fill="#FFFFFF" d="M768.821,359.482v-16.902h-4.765v-2.459h12.908v2.459h-4.764v16.902H768.821z"/>
		<path fill="#FFFFFF" d="M790.705,340.12v2.459h-7.99v5.84h7.375v2.459h-7.375v6.146h7.99v2.459h-11.371v-19.361L790.705,340.12
			L790.705,340.12z"/>
	</g>
	<g enable-background="new    ">
		<path fill="#9A2830" d="M536.677,298.744c0,0.262,0.088,0.479,0.266,0.655c0.178,0.178,0.396,0.267,0.656,0.267h4.61v1.384h-4.61
			c-0.645,0-1.188-0.224-1.637-0.668c-0.445-0.446-0.668-0.991-0.668-1.638v-5.992c0-0.646,0.223-1.19,0.668-1.638
			c0.444-0.444,0.992-0.669,1.637-0.669h4.61v1.385h-4.61c-0.261,0-0.479,0.088-0.656,0.265s-0.266,0.396-0.266,0.657V298.744z"/>
		<path fill="#9A2830" d="M544.515,291.83v-1.385h4.379c0.646,0,1.191,0.225,1.638,0.669c0.445,0.445,0.669,0.99,0.669,1.638v8.298
			h-0.691l-0.414-1.384c-0.17,0.416-0.446,0.75-0.83,1.004c-0.385,0.253-0.813,0.38-1.291,0.38h-1.844
			c-0.646,0-1.191-0.224-1.637-0.668c-0.445-0.446-0.669-0.991-0.669-1.638v-1.613c0-0.646,0.224-1.19,0.669-1.636
			c0.443-0.446,0.991-0.669,1.637-0.669h3.688v-2.074c0-0.263-0.09-0.48-0.267-0.657s-0.396-0.265-0.657-0.265H544.515
			L544.515,291.83z M548.894,299.666c0.263,0,0.48-0.089,0.657-0.267c0.177-0.176,0.265-0.396,0.265-0.655v-2.535h-3.688
			c-0.263,0-0.48,0.089-0.656,0.266c-0.178,0.177-0.266,0.396-0.266,0.656v1.613c0,0.262,0.088,0.479,0.266,0.655
			c0.176,0.178,0.396,0.267,0.656,0.267H548.894z"/>
		<path fill="#9A2830" d="M559.383,297.131c0-0.261-0.09-0.479-0.267-0.656c-0.178-0.177-0.396-0.266-0.655-0.266h-2.536
			c-0.646,0-1.19-0.225-1.637-0.668c-0.447-0.445-0.67-0.991-0.67-1.639v-1.15c0-0.646,0.224-1.19,0.67-1.638
			c0.444-0.444,0.99-0.669,1.637-0.669h4.38v1.385h-4.38c-0.262,0-0.479,0.088-0.657,0.265c-0.177,0.177-0.265,0.396-0.265,0.657
			v1.15c0,0.276,0.084,0.5,0.253,0.671c0.17,0.169,0.393,0.253,0.669,0.253h2.536c0.645,0,1.188,0.223,1.636,0.669
			c0.446,0.443,0.669,0.989,0.669,1.636v1.613c0,0.646-0.223,1.189-0.669,1.638c-0.446,0.444-0.991,0.668-1.636,0.668h-4.611v-1.383
			h4.611c0.274,0,0.498-0.085,0.668-0.255c0.169-0.169,0.254-0.393,0.254-0.668V297.131z"/>
		<path fill="#9A2830" d="M569.778,291.115c0.444,0.445,0.668,0.99,0.668,1.638v5.992c0,0.646-0.224,1.189-0.668,1.638
			c-0.444,0.444-0.989,0.668-1.638,0.668h-2.766c-0.646,0-1.191-0.224-1.638-0.668c-0.444-0.446-0.669-0.991-0.669-1.638v-5.992
			c0-0.646,0.225-1.19,0.669-1.638c0.444-0.444,0.99-0.669,1.638-0.669h2.766C568.789,290.446,569.333,290.67,569.778,291.115z
			 M565.375,291.83c-0.263,0-0.48,0.088-0.656,0.265c-0.178,0.177-0.266,0.396-0.266,0.657v5.992c0,0.262,0.088,0.479,0.266,0.655
			c0.176,0.178,0.396,0.267,0.656,0.267h2.766c0.263,0,0.48-0.089,0.657-0.267c0.177-0.176,0.265-0.396,0.265-0.655v-5.992
			c0-0.263-0.088-0.48-0.265-0.657s-0.396-0.265-0.657-0.265H565.375z"/>
		<path fill="#9A2830" d="M578.513,297.131c0-0.261-0.09-0.479-0.266-0.656c-0.179-0.177-0.396-0.266-0.656-0.266h-2.536
			c-0.646,0-1.189-0.225-1.637-0.668c-0.447-0.445-0.669-0.991-0.669-1.639v-1.15c0-0.646,0.223-1.19,0.669-1.638
			c0.445-0.444,0.991-0.669,1.637-0.669h4.38v1.385h-4.38c-0.262,0-0.479,0.088-0.657,0.265c-0.177,0.177-0.265,0.396-0.265,0.657
			v1.15c0,0.276,0.084,0.5,0.253,0.671c0.17,0.169,0.394,0.253,0.669,0.253h2.536c0.646,0,1.188,0.223,1.636,0.669
			c0.446,0.443,0.669,0.989,0.669,1.636v1.613c0,0.646-0.223,1.189-0.669,1.638c-0.445,0.444-0.99,0.668-1.636,0.668h-4.611v-1.383
			h4.611c0.275,0,0.498-0.085,0.668-0.255c0.169-0.169,0.254-0.393,0.254-0.668V297.131L578.513,297.131z"/>
	</g>
	<g enable-background="new    ">
		<path fill="#9A2830" d="M451.266,274.857c0,0.205,0.072,0.386,0.215,0.537c0.145,0.154,0.327,0.23,0.554,0.23h6.912v2.459h-7.987
			c-0.861,0-1.589-0.297-2.184-0.894c-0.595-0.594-0.892-1.319-0.892-2.182v-13.216c0-0.86,0.297-1.587,0.892-2.184
			c0.595-0.594,1.321-0.892,2.184-0.892h7.987v2.459h-6.912c-0.227,0-0.41,0.077-0.554,0.229c-0.144,0.152-0.215,0.333-0.215,0.538
			V274.857z"/>
		<path fill="#9A2830" d="M472.838,258.722v2.459h-7.99v5.839h7.375v2.459h-7.375v6.146h7.99v2.459h-11.371v-19.362H472.838
			L472.838,258.722z"/>
		<path fill="#9A2830" d="M487.434,258.722v19.362h-3.228l-5.439-12.447v12.447h-3.317v-19.362h3.382
			c0.898,2.151,1.786,4.283,2.657,6.394c0.869,2.109,1.756,4.23,2.657,6.361v-12.755H487.434z"/>
		<path fill="#9A2830" d="M494.135,278.085v-16.903h-4.764v-2.459h12.907v2.459h-4.765v16.903H494.135L494.135,278.085z"/>
		<path fill="#9A2830" d="M504.644,258.722h8.605c0.86,0,1.588,0.298,2.183,0.893c0.594,0.596,0.893,1.32,0.893,2.183v5.316
			c0,0.695-0.245,1.291-0.737,1.781c-0.492,0.492-1.086,0.737-1.782,0.737h-0.769c0.655,1.414,1.314,2.823,1.98,4.227
			c0.666,1.404,1.337,2.813,2.015,4.228h-3.78c-0.595-1.414-1.193-2.822-1.797-4.228c-0.605-1.401-1.216-2.813-1.829-4.227h-1.6
			v8.452h-3.382V258.722z M512.944,261.95c0-0.228-0.071-0.41-0.216-0.556c-0.145-0.143-0.328-0.215-0.554-0.215h-4.149v5.993h4.119
			c0.532,0,0.8-0.268,0.8-0.799V261.95z"/>
		<path fill="#9A2830" d="M530.429,259.614c0.595,0.596,0.894,1.32,0.894,2.183v13.216c0,0.86-0.299,1.588-0.894,2.182
			c-0.594,0.597-1.32,0.894-2.182,0.894h-5.531c-0.861,0-1.589-0.297-2.185-0.894c-0.595-0.594-0.892-1.319-0.892-2.182v-13.216
			c0-0.86,0.297-1.587,0.892-2.183c0.596-0.595,1.321-0.893,2.185-0.893h5.531C529.109,258.722,529.836,259.019,530.429,259.614z
			 M523.792,261.181c-0.228,0-0.41,0.077-0.555,0.23c-0.144,0.151-0.216,0.333-0.216,0.537v12.907c0,0.228,0.072,0.409,0.216,0.555
			c0.145,0.144,0.327,0.215,0.555,0.215h3.38c0.226,0,0.41-0.071,0.554-0.215c0.146-0.146,0.216-0.327,0.216-0.555V261.95
			c0-0.205-0.07-0.387-0.216-0.538c-0.144-0.153-0.328-0.23-0.554-0.23L523.792,261.181L523.792,261.181z"/>
		<path fill="#9A2830" d="M534.302,271.631v-2.459h10.756v2.459H534.302z"/>
		<path fill="#9A2830" d="M557.784,259.614c0.595,0.596,0.892,1.32,0.892,2.183v13.216c0,0.86-0.297,1.588-0.892,2.182
			c-0.597,0.597-1.321,0.894-2.185,0.894h-5.531c-0.859,0-1.588-0.297-2.182-0.894c-0.596-0.594-0.894-1.319-0.894-2.182v-13.216
			c0-0.86,0.298-1.587,0.894-2.183c0.594-0.595,1.32-0.893,2.182-0.893h5.531C556.461,258.722,557.187,259.019,557.784,259.614z
			 M551.144,261.181c-0.227,0-0.409,0.077-0.554,0.23c-0.145,0.151-0.216,0.333-0.216,0.537v12.907c0,0.228,0.071,0.409,0.216,0.555
			c0.144,0.144,0.327,0.215,0.554,0.215h3.38c0.228,0,0.409-0.071,0.556-0.215c0.143-0.146,0.215-0.327,0.215-0.555V261.95
			c0-0.205-0.072-0.387-0.215-0.538c-0.146-0.153-0.328-0.23-0.556-0.23L551.144,261.181L551.144,261.181z"/>
		<path fill="#9A2830" d="M573.025,258.722v2.459h-7.988v5.839h7.376v2.459h-7.376v6.146h7.988v2.459h-11.37v-19.362H573.025
			L573.025,258.722z"/>
		<path fill="#9A2830" d="M583.26,270.248c0-0.228-0.072-0.41-0.215-0.556c-0.146-0.143-0.328-0.215-0.556-0.215h-4.455
			c-0.86,0-1.588-0.297-2.183-0.892c-0.596-0.594-0.893-1.321-0.893-2.183v-0.646v-3.965c0-0.86,0.297-1.587,0.893-2.183
			c0.595-0.595,1.32-0.893,2.183-0.893h7.989v2.459h-7.066c-0.229,0-0.41,0.077-0.554,0.229c-0.146,0.152-0.217,0.333-0.217,0.538
			v4.271c0,0.246,0.077,0.44,0.23,0.584c0.151,0.145,0.354,0.215,0.6,0.215h4.548c0.861,0,1.588,0.298,2.185,0.894
			c0.594,0.595,0.892,1.319,0.892,2.183v4.917c0,0.86-0.298,1.588-0.892,2.183c-0.597,0.596-1.321,0.893-2.185,0.893h-8.297v-2.459
			h7.16c0.246,0,0.445-0.071,0.6-0.215c0.153-0.146,0.23-0.35,0.23-0.614L583.26,270.248L583.26,270.248z"/>
		<path fill="#9A2830" d="M593.094,278.085v-16.903h-4.764v-2.459h12.907v2.459h-4.765v16.903H593.094L593.094,278.085z"/>
		<path fill="#9A2830" d="M614.976,258.722v2.459h-7.991v5.839h7.376v2.459h-7.376v6.146h7.991v2.459h-11.372v-19.362H614.976
			L614.976,258.722z"/>
	</g>
	<g>
		<g enable-background="new    ">
			<path fill="#9A2830" d="M587.785,597.125c0,0.261,0.088,0.479,0.266,0.655c0.176,0.177,0.396,0.267,0.656,0.267h4.607v1.383
				h-4.607c-0.646,0-1.191-0.224-1.638-0.668c-0.444-0.446-0.669-0.991-0.669-1.638v-5.992c0-0.646,0.225-1.19,0.669-1.638
				c0.444-0.444,0.99-0.668,1.638-0.668h4.607v1.383h-4.607c-0.263,0-0.48,0.089-0.656,0.266c-0.178,0.177-0.266,0.396-0.266,0.657
				V597.125z"/>
			<path fill="#9A2830" d="M595.621,590.21v-1.384h4.381c0.645,0,1.188,0.224,1.636,0.668c0.446,0.446,0.669,0.991,0.669,1.638
				v8.298h-0.69l-0.416-1.383c-0.168,0.415-0.444,0.749-0.828,1.003c-0.385,0.253-0.814,0.38-1.291,0.38h-1.846
				c-0.646,0-1.188-0.223-1.637-0.668c-0.445-0.445-0.669-0.991-0.669-1.637v-1.614c0-0.646,0.224-1.189,0.669-1.636
				c0.446-0.446,0.991-0.67,1.637-0.67h3.688v-2.073c0-0.263-0.09-0.479-0.267-0.657c-0.178-0.177-0.396-0.265-0.655-0.265H595.621z
				 M600,598.047c0.26,0,0.479-0.09,0.655-0.267s0.267-0.396,0.267-0.655v-2.536h-3.688c-0.263,0-0.479,0.089-0.656,0.266
				c-0.178,0.178-0.267,0.396-0.267,0.656v1.614c0,0.261,0.089,0.479,0.267,0.655c0.177,0.177,0.396,0.267,0.656,0.267H600z"/>
			<path fill="#9A2830" d="M610.489,595.51c0-0.262-0.091-0.479-0.267-0.656c-0.178-0.177-0.396-0.266-0.656-0.266h-2.536
				c-0.646,0-1.189-0.224-1.638-0.668c-0.444-0.445-0.668-0.991-0.668-1.638v-1.151c0-0.646,0.224-1.19,0.668-1.638
				c0.446-0.444,0.992-0.668,1.638-0.668h4.381v1.383h-4.381c-0.263,0-0.479,0.089-0.655,0.266
				c-0.179,0.177-0.268,0.396-0.268,0.657v1.151c0,0.275,0.084,0.5,0.255,0.669c0.17,0.169,0.393,0.253,0.668,0.253h2.536
				c0.646,0,1.189,0.224,1.637,0.669c0.445,0.444,0.669,0.991,0.669,1.637v1.613c0,0.646-0.224,1.189-0.669,1.638
				c-0.445,0.444-0.99,0.668-1.637,0.668h-4.609v-1.383h4.609c0.275,0,0.498-0.084,0.669-0.255c0.168-0.169,0.254-0.393,0.254-0.668
				V595.51L610.489,595.51z"/>
			<path fill="#9A2830" d="M620.883,589.494c0.445,0.445,0.668,0.991,0.668,1.638v5.993c0,0.646-0.223,1.188-0.668,1.637
				c-0.446,0.445-0.991,0.668-1.637,0.668h-2.768c-0.646,0-1.189-0.223-1.637-0.668s-0.669-0.991-0.669-1.637v-5.993
				c0-0.646,0.223-1.19,0.669-1.638c0.444-0.444,0.99-0.668,1.637-0.668h2.768C619.891,588.826,620.436,589.05,620.883,589.494z
				 M616.48,590.21c-0.262,0-0.479,0.088-0.655,0.265c-0.179,0.178-0.267,0.396-0.267,0.657v5.993c0,0.261,0.088,0.479,0.267,0.655
				c0.177,0.177,0.396,0.267,0.655,0.267h2.768c0.262,0,0.479-0.09,0.655-0.267c0.179-0.177,0.267-0.396,0.267-0.655v-5.993
				c0-0.263-0.088-0.479-0.267-0.657c-0.177-0.177-0.396-0.265-0.655-0.265H616.48z"/>
			<path fill="#9A2830" d="M629.62,595.51c0-0.262-0.09-0.479-0.267-0.656c-0.178-0.177-0.396-0.266-0.655-0.266h-2.536
				c-0.646,0-1.19-0.224-1.639-0.668c-0.443-0.445-0.668-0.991-0.668-1.638v-1.151c0-0.646,0.225-1.19,0.668-1.638
				c0.446-0.444,0.992-0.668,1.639-0.668h4.38v1.383h-4.38c-0.264,0-0.48,0.089-0.656,0.266c-0.178,0.177-0.267,0.396-0.267,0.657
				v1.151c0,0.275,0.084,0.5,0.254,0.669s0.393,0.253,0.669,0.253h2.536c0.646,0,1.188,0.224,1.636,0.669
				c0.446,0.444,0.669,0.991,0.669,1.637v1.613c0,0.646-0.223,1.189-0.669,1.638c-0.445,0.444-0.99,0.668-1.636,0.668h-4.61v-1.383
				h4.61c0.274,0,0.498-0.084,0.668-0.255c0.169-0.169,0.254-0.393,0.254-0.668V595.51z"/>
		</g>
	</g>
	<g>
		<g enable-background="new    ">
			<path fill="#9A2830" d="M507.925,568.634c0-0.227-0.072-0.41-0.216-0.555c-0.145-0.144-0.328-0.215-0.554-0.215h-4.457
				c-0.858,0-1.588-0.298-2.183-0.893c-0.594-0.595-0.891-1.321-0.891-2.183v-0.646v-3.965c0-0.86,0.297-1.587,0.891-2.183
				c0.595-0.595,1.322-0.893,2.183-0.893h7.99v2.459h-7.066c-0.228,0-0.41,0.077-0.555,0.229c-0.144,0.152-0.216,0.333-0.216,0.538
				v4.271c0,0.246,0.077,0.44,0.23,0.584c0.152,0.145,0.354,0.215,0.6,0.215h4.549c0.859,0,1.587,0.299,2.184,0.893
				c0.594,0.596,0.891,1.32,0.891,2.184v4.917c0,0.859-0.297,1.588-0.891,2.183c-0.597,0.595-1.322,0.893-2.184,0.893h-8.299v-2.459
				h7.161c0.246,0,0.446-0.071,0.6-0.216c0.154-0.145,0.23-0.349,0.23-0.613L507.925,568.634L507.925,568.634z"/>
			<path fill="#9A2830" d="M521.416,574.011c0.226,0,0.416-0.071,0.567-0.215c0.153-0.146,0.23-0.349,0.23-0.614v-16.074h3.38
				v16.289c0,0.86-0.297,1.589-0.891,2.183c-0.596,0.596-1.321,0.893-2.184,0.893h-5.53c-0.86,0-1.591-0.297-2.185-0.893
				c-0.594-0.594-0.891-1.32-0.891-2.183v-16.289h3.381v16.137c0,0.227,0.071,0.409,0.215,0.554
				c0.144,0.144,0.327,0.215,0.553,0.215L521.416,574.011L521.416,574.011z"/>
			<path fill="#9A2830" d="M531.958,557.107v16.903h8.452v2.459h-11.833v-19.362H531.958z"/>
		</g>
	</g>
	<g enable-background="new    ">
		<path fill="#9A2830" d="M413.324,117.196c0,0.263,0.088,0.48,0.265,0.656c0.176,0.177,0.396,0.268,0.657,0.268h4.608v1.383h-4.608
			c-0.646,0-1.191-0.225-1.639-0.668c-0.445-0.446-0.668-0.991-0.668-1.639v-5.991c0-0.646,0.225-1.19,0.668-1.639
			c0.446-0.443,0.991-0.668,1.639-0.668h4.608v1.383h-4.608c-0.263,0-0.48,0.09-0.657,0.267s-0.265,0.396-0.265,0.657V117.196z"/>
		<path fill="#9A2830" d="M421.16,110.281v-1.383h4.38c0.645,0,1.188,0.225,1.636,0.668c0.445,0.446,0.668,0.991,0.668,1.639v8.298
			h-0.691l-0.414-1.383c-0.17,0.415-0.445,0.749-0.83,1.003c-0.385,0.253-0.813,0.38-1.291,0.38h-1.845
			c-0.646,0-1.189-0.225-1.637-0.668c-0.446-0.446-0.668-0.991-0.668-1.639v-1.612c0-0.646,0.223-1.19,0.668-1.638
			c0.446-0.444,0.991-0.669,1.637-0.669h3.688v-2.072c0-0.264-0.089-0.48-0.267-0.657c-0.177-0.177-0.396-0.267-0.655-0.267H421.16z
			 M425.54,118.119c0.261,0,0.479-0.091,0.655-0.268c0.178-0.176,0.267-0.396,0.267-0.656v-2.534h-3.688
			c-0.262,0-0.479,0.089-0.656,0.266s-0.266,0.396-0.266,0.656v1.612c0,0.263,0.088,0.48,0.266,0.656
			c0.177,0.177,0.396,0.268,0.656,0.268H425.54z"/>
		<path fill="#9A2830" d="M436.027,115.583c0-0.263-0.089-0.479-0.265-0.656c-0.177-0.177-0.396-0.266-0.657-0.266h-2.536
			c-0.646,0-1.189-0.225-1.637-0.668c-0.446-0.445-0.668-0.991-0.668-1.639v-1.15c0-0.646,0.223-1.19,0.668-1.639
			c0.446-0.443,0.991-0.668,1.637-0.668h4.38v1.383h-4.38c-0.262,0-0.479,0.09-0.656,0.267s-0.266,0.396-0.266,0.657v1.15
			c0,0.276,0.084,0.5,0.253,0.669s0.394,0.253,0.668,0.253h2.536c0.646,0,1.19,0.225,1.636,0.669
			c0.446,0.445,0.668,0.991,0.668,1.638v1.612c0,0.646-0.223,1.19-0.668,1.639c-0.444,0.443-0.989,0.668-1.636,0.668h-4.609v-1.383
			h4.609c0.276,0,0.499-0.084,0.668-0.256c0.169-0.169,0.253-0.392,0.253-0.668v-1.612H436.027z"/>
		<path fill="#9A2830" d="M446.422,109.566c0.445,0.446,0.668,0.991,0.668,1.639v5.991c0,0.646-0.225,1.19-0.668,1.639
			c-0.446,0.443-0.991,0.668-1.636,0.668h-2.768c-0.646,0-1.189-0.225-1.637-0.668c-0.446-0.446-0.668-0.991-0.668-1.639v-5.991
			c0-0.646,0.223-1.19,0.668-1.639c0.446-0.443,0.991-0.668,1.637-0.668h2.768C445.431,108.898,445.976,109.122,446.422,109.566z
			 M442.02,110.281c-0.261,0-0.479,0.09-0.657,0.267c-0.177,0.177-0.265,0.396-0.265,0.657v5.991c0,0.263,0.088,0.48,0.265,0.656
			c0.178,0.177,0.396,0.268,0.657,0.268h2.768c0.261,0,0.479-0.091,0.655-0.268c0.179-0.176,0.267-0.396,0.267-0.656v-5.991
			c0-0.264-0.088-0.48-0.267-0.657c-0.177-0.177-0.396-0.267-0.655-0.267H442.02z"/>
		<path fill="#9A2830" d="M455.157,115.583c0-0.263-0.09-0.479-0.266-0.656c-0.177-0.177-0.395-0.266-0.657-0.266h-2.534
			c-0.646,0-1.191-0.225-1.639-0.668c-0.446-0.445-0.668-0.991-0.668-1.639v-1.15c0-0.646,0.225-1.19,0.668-1.639
			c0.446-0.443,0.991-0.668,1.639-0.668h4.378v1.383h-4.378c-0.264,0-0.48,0.09-0.657,0.267c-0.178,0.177-0.267,0.396-0.267,0.657
			v1.15c0,0.276,0.084,0.5,0.253,0.669c0.171,0.169,0.394,0.253,0.668,0.253h2.536c0.646,0,1.19,0.225,1.636,0.669
			c0.445,0.445,0.669,0.991,0.669,1.638v1.612c0,0.646-0.225,1.19-0.669,1.639c-0.445,0.443-0.99,0.668-1.636,0.668h-4.608v-1.383
			h4.608c0.276,0,0.499-0.084,0.667-0.256c0.169-0.169,0.253-0.392,0.253-0.668v-1.612H455.157z"/>
	</g>
	<g enable-background="new    ">
		<path fill="#9A2830" d="M337.026,75.472v19.362h-3.227l-5.439-12.447v12.447h-3.317V75.472h3.381
			c0.9,2.151,1.787,4.283,2.657,6.393c0.87,2.11,1.758,4.231,2.659,6.362V75.472H337.026z"/>
		<path fill="#9A2830" d="M350.671,76.363c0.594,0.597,0.891,1.321,0.891,2.184v13.216c0,0.86-0.297,1.588-0.891,2.182
			c-0.595,0.597-1.321,0.894-2.184,0.894h-5.531c-0.86,0-1.589-0.297-2.183-0.894c-0.595-0.594-0.892-1.319-0.892-2.182V78.546
			c0-0.86,0.297-1.587,0.892-2.184c0.594-0.594,1.321-0.892,2.183-0.892h5.531C349.35,75.472,350.077,75.769,350.671,76.363z
			 M344.032,77.931c-0.226,0-0.409,0.077-0.553,0.23c-0.144,0.151-0.215,0.333-0.215,0.536v12.908c0,0.228,0.072,0.409,0.215,0.555
			c0.144,0.144,0.327,0.215,0.553,0.215h3.381c0.226,0,0.409-0.071,0.554-0.215c0.143-0.146,0.215-0.327,0.215-0.555V78.698
			c0-0.203-0.072-0.385-0.215-0.536c-0.146-0.153-0.328-0.23-0.554-0.23L344.032,77.931L344.032,77.931z"/>
		<path fill="#9A2830" d="M354.544,75.472h8.604c0.86,0,1.587,0.298,2.183,0.892c0.595,0.597,0.892,1.321,0.892,2.184v5.315
			c0,0.696-0.246,1.291-0.738,1.782c-0.492,0.492-1.086,0.737-1.781,0.737h-0.77c0.656,1.414,1.315,2.823,1.981,4.227
			c0.666,1.404,1.338,2.813,2.014,4.228h-3.78c-0.595-1.414-1.193-2.822-1.798-4.228c-0.604-1.401-1.214-2.813-1.829-4.227h-1.598
			v8.452h-3.382V75.472H354.544z M362.841,78.698c0-0.226-0.072-0.408-0.215-0.554c-0.146-0.143-0.328-0.215-0.554-0.215h-4.148
			v5.993h4.118c0.532,0,0.799-0.269,0.799-0.799V78.698z"/>
		<path fill="#9A2830" d="M373.383,94.835V77.931h-4.766v-2.459h12.908v2.459h-4.764v16.903L373.383,94.835L373.383,94.835z"/>
		<path fill="#9A2830" d="M395.265,75.472v2.459h-7.991v5.839h7.376v2.459h-7.376v6.146h7.991v2.459h-11.372V75.472H395.265z"/>
	</g>
</g>
</svg>
