<svg xmlns="http://www.w3.org/2000/svg" xmlns:xlink="http://www.w3.org/1999/xlink" preserveAspectRatio="none" width="133" height="106" viewBox="0 0 133 106"><defs><filter id="c" x="-20%" y="-20%" width="140%" height="140%" color-interpolation-filters="sRGB"><feFlood flood-color="#000" flood-opacity="1" result="result1"/><feComposite in2="SourceGraphic" in="result1" operator="in" result="result2"/><feGaussianBlur in="result2" stdDeviation="2.3333333333333335,2.3333333333333335" result="result3"/><feOffset in="result3" result="result4"/><feComposite in2="result4" in="SourceGraphic" result="result5"/></filter><path fill="#C9C" d="M209.75 537.3q0-4.1-2.95-7-2.9-2.95-7-2.95H91.15q-4.1 0-7 2.95-2.9 2.9-2.9 7v81.6q.1 3.95 2.9 6.75 2.9 2.95 7 2.95H199.8q4.1 0 7-2.95 2.85-2.8 2.95-6.75v-81.6z" id="a"/><path fill="#FFF" d="M966.45 100.5Q947.95 82 921.8 82H458.15Q432 82 413.5 100.5T395 145.15V538.8q0 26.15 18.5 44.65t44.65 18.5H921.8q26.15 0 44.65-18.5t18.5-44.65V145.15q0-26.15-18.5-44.65z" id="d"/><path fill="#B65B00" d="M558.25 241.85q-2.4 1.05-4.3 2.9-1.95 1.9-1.95 3.35 0 1.4.25 1.9.75 1.6 3.5 1.6 2.7 0 5.8-2.45 2.95-2.35 2.95-4.15 0-5.8-6.25-3.15z" id="e"/><path fill="#B65B00" d="M553.3 251.6q1.2-1.1 1.2-2.6 0-3.85-3.75-3.85-3.75.05-3.75 3.95 0 1.35.3 1.9.75 1.6 3.45 1.6 1.4 0 2.55-1z" id="f"/><path fill="#B65B00" d="M554.3 244.65q1.2-1.05 1.2-2.65 0-3.8-3.75-3.8t-3.75 3.9q0 1.35.3 1.9.75 1.6 3.45 1.6 1.4 0 2.55-.95z" id="g"/><path fill="#B65B00" d="M547.75 241.15q-3.75 0-3.75 4.2 0 2.5.25 3l3.5 1.25q3.75-1.15 3.75-4.25 0-4.2-3.75-4.2z" id="h"/><path fill="#B65B00" d="M539.3 253.65q1.2-1.05 1.2-2.65 0-3.8-3.75-3.8t-3.75 3.9q0 1.35.3 1.9.75 1.6 3.45 1.6 1.4 0 2.55-.95z" id="i"/><path fill="#B65B00" d="M521.3 254q.75 1.6 3.45 1.6 1.4 0 2.55-1 1.2-1.1 1.2-2.6 0-3.85-3.75-3.85-3.75.05-3.75 3.95 0 1.35.3 1.9z" id="j"/><path fill="#B65B00" d="M545.5 255.1q2-.9 2-3.1 0-3.85-4.25-3.85-4.25.05-4.25 3.95 0 1.35.3 1.9.85 1.6 3.95 1.6 1.2 0 2.25-.5z" id="k"/><path fill="#B65B00" d="M522.25 258q.75 1.6 3.5 1.6 1.35 0 2.5-.95 1.25-1.05 1.25-2.65 0-3.8-3.75-3.8t-3.75 3.9q0 1.4.25 1.9z" id="l"/><path fill="#B65B00" d="M522.25 265.35l3.5 1.25q2.25-1.15 3.15-1.9 1.6-1.3 1.6-2.7 0-4.2-4.25-3.4-4.25.75-4.25 4.5 0 2.5.25 2.25z" id="m"/><path fill="#B65B00" d="M522.75 265.6q1.35 0 2.5-.95 1.25-1.05 1.25-2.65 0-3.8-3.75-3.8t-3.75 3.9q0 1.4.25 1.9.75 1.6 3.5 1.6z" id="n"/><path fill="#B65B00" d="M523.75 259.6q1.4 0 2.55-.95 1.2-1.05 1.2-2.65 0-3.8-3.75-3.8t-3.75 3.9q0 1.35.3 1.9.75 1.6 3.45 1.6z" id="o"/><path fill="#B65B00" d="M521.3 270.65q1.2-1.05 1.2-2.65 0-3.8-3.75-3.8t-3.75 3.9q0 1.35.3 1.9.75 1.6 3.45 1.6 1.4 0 2.55-.95z" id="p"/><path fill="#B65B00" d="M536.3 256.65q1.2-1.05 1.2-2.65 0-3.8-3.75-3.8t-3.75 3.9q0 1.35.3 1.9.75 1.6 3.45 1.6 1.4 0 2.55-.95z" id="q"/><path fill="#B65B00" d="M535.5 258.1q2-.9 2-3.1 0-3.85-4.25-3.85-4.25.05-4.25 3.95 0 1.45.25 1.9.85 1.6 4 1.6 1.2 0 2.25-.5z" id="r"/><path fill="#B65B00" d="M539.9 244.3q-2.25-.6-5.65.8-3.3 1.35-5.65 3.75-2.6 2.65-2.6 5.25 0 1.35.3 1.9.75 1.6 3.45 1.6.25 0 6.5-4.7t6.25-4.9q0-3.05-2.6-3.7z" id="s"/><path fill="#B65B00" d="M544.3 250.65q1.2-1.05 1.2-2.65 0-3.8-3.75-3.8t-3.75 3.9q0 1.35.3 1.9.75 1.6 3.45 1.6 1.4 0 2.55-.95z" id="t"/><path fill="#B65B00" d="M571.3 246.65q1.2-1.05 1.2-2.65 0-3.8-3.75-3.8t-3.75 3.9q0 1.35.3 1.9.75 1.6 3.45 1.6 1.4 0 2.55-.95z" id="u"/><path fill="#B65B00" d="M568.3 243.65q1.2-1.05 1.2-2.65 0-3.8-3.75-3.8t-3.75 3.9q0 1.35.3 1.9.75 1.6 3.45 1.6 1.4 0 2.55-.95z" id="v"/><path fill="#B65B00" d="M557 244.1q0 2.5.25 2.25l3.5 1.25q5.75-1.9 5.75-4.6 0-4.2-4.75-3.5-4.75.75-4.75 4.6z" id="w"/><path fill="#B65B00" d="M560 245.1q0 1.35.3 1.9.75 1.6 3.45 1.6 1.4 0 2.55-.95 1.2-1.05 1.2-2.65 0-3.8-3.75-3.8t-3.75 3.9z" id="x"/><path fill="#B65B00" d="M562 222q0-3-1.95-4.75-1.75-1.55-4.3-1.55t-4.3 1.5q-1.95 1.7-1.95 4.55 0 1.85.8 3.35 1.5 3 5.45 3 2.6 0 4.5-2 1.75-1.85 1.75-4.1z" id="y"/><g id="z"><path fill="#333" d="M36.35 73.3q-.65.05-1.25.1-3 .3-5.5.85-.1.05-.25.1-1.1.2-2.05.55h-.15q-.3.05-.55.15-1.85.65-2.55 1.5-.15.05-.25.15 0 .1-.05.2-.1.15-.1.3l-.05.15v.45q0 .05.05.1 0 .25.1.35.05.15.05.2.1.1.25.2.75.8 2.55 1.5.25.05.55.1.1 0 .15.05.95.3 2.05.55.15 0 .25.05 2.5.6 5.5.85.6.1 1.25.15 2.1.2 4.4.3.95 0 1.9.05h.75q1.9 0 3.75-.15.9-.05 1.65-.1 1.75-.1 3.45-.25 1.05-.15 2.1-.25.05-.05.1-.05 1-.2 2.2-.4.25-.05.45-.1t.35-.1q.85-.15 1.95-.5.15-.05.2-.05.05 0 .15-.05.35-.1.65-.2l.05.05q2.9-1.1 2.95-2.5v-.05q-.05-1.4-2.95-2.45l-.05.05q-.3-.1-.65-.25h-.15q-.05-.1-.2-.1-1.1-.3-1.95-.45-.15-.05-.35-.1-.2-.05-.45-.1-1.2-.3-2.2-.45h-.1q-1.05-.1-2.1-.25-1.7-.15-3.45-.35-.75-.05-1.65-.05-1.85-.1-3.75-.1h-.75q-.95 0-1.9.05-2.3.05-4.4.3m.4 7.7q-.65-.05-1.2-.1-2.9-.25-5.3-.7-.05 0-.15-.05-1.1-.2-2-.4-.3-.15-.55-.2-.9-.25-1.5-.5-.85-.4-1.25-.8-.25-.3-.35-.55v-.2q.1-.3.35-.55.4-.4 1.25-.8.6-.3 1.5-.6.25-.05.55-.1.9-.25 2-.4.1-.05.15-.05 2.4-.5 5.3-.75.55 0 1.2-.1 2-.15 4.2-.2.85 0 1.8-.05h.7q1.85 0 3.6.05.8.05 1.6.15 1.65.05 3.2.25 1.1.05 2.05.15h.1q.95.15 2.1.4.25 0 .45.05.15.05.35.1.7.1 1.85.35.1 0 .15.05h.15q.75.25 1.3.45v.1q.6.15 1.05.3.3.2.5.35.55.4.6.95-.05.55-.6.9-.2.15-.5.35-.45.2-1.05.35v.1q-.55.2-1.3.35-.05.1-.15.1-.05 0-.15.05-1.15.25-1.85.35-.2.05-.35.05-.2.05-.45.1-1.15.25-2.1.35h-.1q-.95.1-2.05.2-1.55.15-3.2.25-.8.05-1.6.05-1.75.05-3.6.05h-2.5q-2.2-.05-4.2-.2z"/><path d="M35.55 80.9q.55.05 1.2.1 2 .15 4.2.2h2.5q1.85 0 3.6-.05.8 0 1.6-.05 1.65-.1 3.2-.25 1.1-.1 2.05-.2h.1q.95-.1 2.1-.35.25-.05.45-.1.15 0 .35-.05.7-.1 1.85-.35.1-.05.15-.05.1 0 .15-.1.75-.15 1.3-.35v-.1q.6-.15 1.05-.35.3-.2.5-.35.55-.35.6-.9-.05-.55-.6-.95-.2-.15-.5-.35-.45-.15-1.05-.3v-.1q-.55-.2-1.3-.45h-.15q-.05-.05-.15-.05-1.15-.25-1.85-.35-.2-.05-.35-.1-.2-.05-.45-.05-1.15-.25-2.1-.4h-.1q-.95-.1-2.05-.15-1.55-.2-3.2-.25-.8-.1-1.6-.15-1.75-.05-3.6-.05h-.7q-.95.05-1.8.05-2.2.05-4.2.2-.65.1-1.2.1-2.9.25-5.3.75-.05 0-.15.05-1.1.15-2 .4-.3.05-.55.1-.9.3-1.5.6-.85.4-1.25.8-.25.25-.35.55v.2q.1.25.35.55.4.4 1.25.8.6.25 1.5.5.25.05.55.2.9.2 2 .4.1.05.15.05 2.4.45 5.3.7z"/></g><g id="A"><path fill="#624120" d="M57.2 79.25q.1-.1.1-.25l4.65-23.45q-1 .35-2.85.7L54 81.2q2.85-.85 3.2-1.95m2.95-33.3q-.1 0-.25.05l-.55 9.2q1.9-.35 2.85-.8 1.1-.5 1.15-1.1v-.1l.5-9.2q-.06.705-1.45 1.3-.85.3-2.25.65z"/><path fill="#85582C" d="M57.5 56.6q-1.6.25-3.35.4l-3.4 24.9q1.3-.15 2.4-.4.45-.15.85-.3l5.1-24.95q-.7.2-1.6.35m-30.4-.55q-.9-.2-1.65-.45L29.6 79v.2q.2.75 1.35 1.35l-3.85-24.5M25.3 45.3q-1.5-.55-1.65-1.2l.3 9.3q.15.6 1.3 1.05.75.3 1.6.5v-9.1q-.95-.3-1.55-.55m32.6 1.05q-.2 0-.35.05-.2 0-.45.05-1.2.2-2.25.3l-.5 9.2q1.65-.15 3.15-.35 1-.2 1.85-.4l.55-9.2q-1.25.2-2 .35z"/><path fill="#644220" d="M57.5 55.6q-1.5.2-3.15.35l-.2 1.05q1.75-.15 3.35-.4.9-.15 1.6-.35l.25-1.05q-.85.2-1.85.4m-32.25-1.15l.2 1.15q.75.25 1.65.45l-.25-1.1q-.85-.2-1.6-.5z"/><path fill="#462D16" d="M61.95 55.55l.25-1.15q-.95.45-2.85.8l-.25 1.05q1.85-.35 2.85-.7z"/><path fill="#963" d="M29.8 56.6q-1.55-.25-2.7-.55l3.85 24.5q1 .45 2.7.95 4.1 1.05 9.75 1.05 4.15 0 7.35-.65l3.4-24.9q-4.65.5-10.5.5-8.1 0-13.85-.9m13.15-9.35h-1.9q-2.3-.05-4.5-.15-.55-.05-1.2-.1-3.1-.25-5.55-.65h-.2q-1.55-.25-2.75-.5v9.1q1.3.35 2.95.65 5.75.9 13.85.9 5.9 0 10.7-.55l.5-9.2h-.1l-2.1.2q-1.7.15-3.45.2-.85.05-1.75.1h-4.5m1.5-4.4h3.25q2.8.05 4.75.25.3 0 .65.05 1.35.15 2.1.4.45.1.85.2.65.2 1.05.3.9.25 1 .25 1.35.2 2.3.4.65.1 1.15.3 1.7-.5 1.7-1.1.1-1-5.15-1.75-.2-.05-.45-.05-5.6-.8-13.75-.8-2.5 0-4.7.05-2.1.1-3.9.2-2.85.25-5.2.55-.25 0-.45.05-5.2.75-5.2 1.75.1.6 1.75 1.1.95-.3 2.4-.5.5-.1 1.05-.2.1 0 1.15-.25.45-.1 1.1-.2.55-.1 1.15-.25.6-.1 1.35-.2.15-.1.3-.1 1.35-.15 3.05-.25 1-.1 2.1-.1.2 0 .45-.05.85 0 1.75-.05h2.4z"/><path fill="#744D26" d="M27.1 56.05q1.15.3 2.7.55 5.75.9 13.85.9 5.85 0 10.5-.5l.2-1.05q-4.8.55-10.7.55-8.1 0-13.85-.9-1.65-.3-2.95-.65l.25 1.1z"/><path fill="#C28140" d="M41.05 47.25h6.4q.9-.05 1.75-.1 1.75-.05 3.45-.2l2.1-.2h.1q1.05-.1 2.25-.3.25-.05.45-.05.15-.05.35-.05.75-.15 2-.35.15-.05.25-.05 1.4-.35 2.25-.65 1.39-.595 1.45-1.3.05-1.05-3.1-1.85-1.15-.25-2.7-.55-5.85-1-14.25-1-2.95 0-5.65.15-1 0-2 .1-3.7.25-6.7.75-1.55.3-2.65.55-3 .75-3.15 1.75v.2q.15.65 1.65 1.2.6.25 1.55.55 1.2.25 2.75.5h.2q2.45.4 5.55.65.65.05 1.2.1 2.2.1 4.5.15m1.95-.8h-1.85q-2.35-.05-4.5-.15l-1.3-.1q-2.15-.1-3.95-.3-.65-.05-1.2-.2-.2 0-.35-.05-.5-.05-.9-.1-1.7-.25-2.75-.55-1.65-.5-1.75-1.1 0-1 5.2-1.75.2-.05.45-.05 2.35-.3 5.2-.55 1.8-.1 3.9-.2 2.2-.05 4.7-.05 8.15 0 13.75.8.25 0 .45.05 5.25.75 5.15 1.75 0 .6-1.7 1.1-.5.15-1.1.3-.5.05-1.05.15-.85.15-1.9.25-.05.05-.1.05-.2 0-.35.1-1.35.15-2.8.25l-1.2.1q-1.9.15-3.95.2-1.05.05-2.2.05H43z"/><path fill="#C60" d="M34.4 43.4q.15.05.3.15.25.7.85 1.2 0 .05.1.1-.3.65-.3 1.35l1.3.1q0-.55-.2-.95-.15-.55-.5-.9.2-.35.5-.6.6-.55 1.3-.8-1.7.1-3.05.25-.15 0-.3.1m-5.8 1.1q-1.45.2-2.4.5 1.05.3 2.75.55.4.05.9.1.15.05.35.05.55.15 1.2.2.1-.05.15-.2.5-.45.5-1.15 0-.35-.15-.7-.65.1-1.1.2-1.05.25-1.15.25-.55.1-1.05.2m28.8 1.25v-.2q0-.65-.5-1.05-.05.25-.05.55 0 .4.2.8.15-.1.35-.1m3.05-.7v.25q.6-.15 1.1-.3-.5-.2-1.15-.3.05.15.05.35m-7.35-1.9q-.35-.05-.65-.05.3.4.55.8 0 .35.15.55.1.15.3.35.3.35.75.4.15-.4.45-.7.45-.45 1.1-.45H56q.55.05.9.45.1-.2.2-.45-.4-.1-1.05-.3-.4-.1-.85-.2-.75-.25-2.1-.4m-11.45.5q.1-.45.4-.8-.9.05-1.75.05.7.2 1.35.75m1.35 2.4q-.1-.9-.6-1.65-.2-.3-.5-.55-.1-.1-.25-.2-.1.2-.1.45 0 .5.25.95-.5.6-.65 1.4H43v-.4m4.6-3.1l.1-.1h-2.5q.25.25.4.6.75.1 1.3.35.3-.4.7-.85z"/><path fill="#BF5F00" d="M34.4 43.4q-.75.1-1.35.2-.6.15-1.15.25.15.35.15.7 0 .7-.5 1.15-.05.15-.15.2 1.8.2 3.95.3 0-.7.3-1.35-.1-.05-.1-.1-.6-.5-.85-1.2-.15-.1-.3-.15m10.75 2.15q-.65.55-1.5.55-.35 0-.65-.05v.4h3.9q-.25-.55-.25-1.3t.25-1.35q-.55-.25-1.3-.35.1.3.1.65 0 .8-.55 1.45z"/><path fill="#CC8641" d="M39.85 42.95q-1.1 0-2.1.1-.7.25-1.3.8-.3.25-.5.6.35.35.5.9.4.1.85.1 1.05 0 1.8-.7.75-.75.75-1.75v-.05z"/><path fill="#A65300" d="M59.4 45.45q.55-.1 1.05-.15v-.25q0-.2-.05-.35-.95-.2-2.3-.4-.1 0-1-.25-.1.25-.2.45.5.4.5 1.05v.2q.05 0 .1-.05 1.05-.1 1.9-.25z"/><path fill="#DE6F00" d="M54.55 45.2q.6 0 1.05-.4.3-.35.4-.75h-.25q-.65 0-1.1.45-.3.3-.45.7h.35z"/><path fill="#CC745B" d="M54.15 45.55q0-.15.05-.35-.45-.05-.75-.4-.2-.2-.3-.35.05.35.05.7 0 .5-.15 1.05l1.2-.1q-.1-.2-.1-.55z"/><path fill="#F37900" d="M54.2 45.2q-.05.2-.05.35 0 .35.1.55 1.45-.1 2.8-.25-.2-.4-.2-.8 0-.3.05-.55-.35-.4-.9-.45-.1.4-.4.75-.45.4-1.05.4h-.35z"/><path fill="#CC843D" d="M49.1 46.4q-.3-1.05-1.05-1.85-.6-.5-1.15-.75-.25.6-.25 1.35 0 .75.25 1.3 1.15 0 2.2-.05z"/><path fill="#E57200" d="M41.8 45.05q-.25-.45-.25-.95 0-.25.1-.45-.65-.55-1.35-.75-.25.05-.45.05V43q0 1-.75 1.75-.75.7-1.8.7-.45 0-.85-.1.2.4.2.95 2.15.1 4.5.15.15-.8.65-1.4z"/><path fill="#A85400" d="M43.65 46.1q.85 0 1.5-.55.55-.65.55-1.45 0-.35-.1-.65h-.45q-1.65 0-2.75.95.5.75.6 1.65.3.05.65.05z"/><path fill="#A86B2E" d="M45.2 42.85h-3.15q-.3.35-.4.8.15.1.25.2.3.25.5.55 1.1-.95 2.75-.95h.45q-.15-.35-.4-.6z"/><path fill="#CC7218" d="M47.7 42.85l-.1.1q-.4.45-.7.85.55.25 1.15.75.75.8 1.05 1.85 2.05-.05 3.95-.2.15-.55.15-1.05 0-.35-.05-.7-.15-.2-.15-.55-.25-.4-.55-.8-1.95-.2-4.75-.25z"/></g><g id="B"><path fill="#C60" d="M48.8 81.45v.05h.1q-.052-.002-.1-.05m-4.45.35q-.25-.4-.35-.85-.2 0-.4-.1.2.35.2.9 0 .45-.2.85.55.1 1.3.1.55 0 .95-.05-1-.15-1.5-.85m-7-2.95q-.95 0-1.55.45-.5.35-.65.9-.75-.25-1.55-.4-.5-.15-.95-.15-.5-.25-1.15-.25h-.25q-.1-.15-.25-.25-.6-.5-1.55-.5-.9 0-1.55.5-.7.45-.7 1.3 0 .5.35 1 .6.85 1.9.85h.2q.45.55 1.3.75.05.05.1.05 1.4.9 3.65.9.5 0 .9-.1.1.2.3.45.6.85 2 .85.65 0 1.2-.2h-.45q-1.3 0-1.85-.8-.35-.5-.35-.95 0-.9.65-1.45.45-.3 1-.35-.05-.1-.05-.4 0-.7.85-.7.6 0 .8.4l.3-.4q.7-.4 1.55-.4.5 0 .95.1-.3-.4-.3-.8 0-.85.8-1.4.7-.45 1.7-.45t1.65.45q.75.5.8 1.25.6.1 1 .35.25.2.45.45.15-.5.6-.75.6-.5 1.5-.5 1 0 1.6.5.75.45.75 1.3 0 .6-.45 1.15-.1.1-.2.15.05.35.3.8.55.85 1.9.85 1.15 0 1.8-.7.15-.3.3-.5.4.1.9.1 1.15 0 1.75-.55 1.15 0 1.7-.75.45-.45.45-1.05 0-.85-.65-1.4-.6-.4-1.55-.4-.9 0-1.5.4-.1.05-.15.1h-.05q-.45 0-.75.1v-.1q0-.85-.75-1.3-.65-.5-1.6-.5-.7 0-1.2.2-.6-.4-1.5-.45l-.25-.25q-.85-.55-1.85-.75-.45-.1-.8-.05-.1-.1-.25-.2-.75-.45-1.75-.45t-1.65.45q-.8.5-.8 1.35 0 .2.05.4-.65-.4-1.6-.4-1 0-1.7.4-.65.45-.75 1.05-.7.1-1.25.4-.15.1-.25.2-.5 0-.95.2-.35-.1-.65-.1m-3.7 3.7q0 .25-.25.5-.3.15-.55.15-.65 0-.85-.3-.05-.1-.05-.35 0-.75.9-.75.8 0 .8.75m-2.7-1.35q0 .4-.4.6-.3.05-.7.05-.75 0-1-.25-.05-.1-.05-.4 0-.75 1.05-.65 1.1.05 1.1.65m16.95-2.85q-.05-.1-.05-.35 0-.65.85-.75.85 0 .85.7 0 .3-.3.5-.2.15-.55.15-.55 0-.8-.25z"/><path fill="#B65B00" d="M38.05 81.05q0 .3.05.4-.55.05-1 .35-.65.55-.65 1.45 0 .45.35.95.55.8 1.85.8h.45q.85-.1 1.35-.7.35-.35.4-.8.35.1.7.1 1.2 0 1.8-.75l.25-.25q.2-.4.2-.85 0-.55-.2-.9.2.1.4.1.1.45.35.85.5.7 1.5.85.3.05.6.05 1.4 0 2.1-.8.15-.2.25-.4v-.05q.048.048.1.05.6.8 1.8.8 1.05 0 1.7-.55.1-.05.2-.15.45-.55.45-1.15 0-.85-.75-1.3-.6-.5-1.6-.5-.9 0-1.5.5-.45.25-.6.75-.2-.25-.45-.45-.4-.25-1-.35-.05-.75-.8-1.25-.65-.45-1.65-.45-1 0-1.7.45-.8.55-.8 1.4 0 .4.3.8-.45-.1-.95-.1-.85 0-1.55.4l-.3.4q-.2-.4-.8-.4-.85 0-.85.7m9.8-3.05q0 .25.05.35.25.25.8.25.35 0 .55-.15.3-.2.3-.5 0-.7-.85-.7-.85.1-.85.75m-17.3 3.8q.4-.2.4-.6 0-.6-1.1-.65-1.05-.1-1.05.65 0 .3.05.4.25.25 1 .25.4 0 .7-.05m2.85 1.25q.25-.25.25-.5 0-.75-.8-.75-.9 0-.9.75 0 .25.05.35.2.3.85.3.25 0 .55-.15z"/></g><g id="C"><path fill="#333" d="M36.75 81q-.65-.05-1.25-.1-2.85-.25-5.25-.7-.1 0-.15-.05-1.1-.2-2-.4-.3-.15-.55-.2-.9-.25-1.5-.5-.85-.4-1.25-.8-.25-.3-.35-.55v-.3q.15-1 2.7-1.8v-.7q-.3.05-.55.15-2.95 1.05-3 2.45v.3q.05.35.2.65.45.55 1.35.95.65.4 1.6.7.25.1.55.2.95.3 2.05.55.15 0 .25.05 2.5.6 5.5.85.6.1 1.25.15 2.1.2 4.4.3.95 0 1.9.05h.75q1.9 0 3.75-.15.9-.05 1.65-.1 1.75-.1 3.45-.25 1.05-.15 2.1-.25.05-.05.1-.05 1-.2 2.2-.4.25-.05.45-.1t.35-.1q.75-.15 1.95-.5.15-.05.2-.05h.15q1.3-.4 2.2-.9.45-.25.8-.6.6-.55.65-1.2.05-1.45-2.95-2.5l-.1.9q2.15.6 2.15 1.55v.05q-.05.45-.6.9-.35.25-.8.5-.75.35-2.1.65 0 .1-.1.1-.05 0-.15.05-1.15.25-1.85.35-.2.05-.35.05-.2.05-.45.1-1.15.25-2.1.35h-.1q-.95.1-2.05.2-1.6.15-3.2.25-.8.05-1.6.05-1.75.05-3.65.05h-2.45q-2.3-.05-4.2-.2z"/><path d="M31 85.15q2.2.55 4.85.8l1.1.1q1.9.2 3.9.25.85.05 1.65.05h.7q1.7 0 2.95-.05 1.25-.05 2.4-.1 1.1-.15 2.25-.25 1.2-.15 2.1-.3h.05q.95-.1 2-.4.2 0 .45-.05.1-.05.2-.05.75-.15 1.8-.45.1 0 .25-.05 1.2-.4 1.95-.8 1-.6 1.25-1.3l1.9-3.75q-.35.35-.8.6-.9.5-2.2.9h-.15q-.05 0-.2.05-1.2.35-1.95.5-.15.05-.35.1-.2.05-.45.1-1.2.2-2.2.4-.05 0-.1.05-1.05.1-2.1.25-1.7.15-3.45.25-.75.05-1.65.1-1.85.15-3.75.15h-.75q-.95-.05-1.9-.05-2.3-.1-4.4-.3-.65-.05-1.25-.15-3-.25-5.5-.85-.1-.05-.25-.05-1.1-.25-2.05-.55-.3-.1-.55-.2-.95-.3-1.6-.7-.9-.4-1.35-.95l1.85 4.05q.05.2.15.35.05.05.05.15.35.45 1.2.9.55.3 1.45.6.95.35 2.3.65h.2z"/></g><g id="D"><path fill="#C5F402" d="M34.45 10.9q0 1.15.1 1.4.25.5.85.75l.4-2.05-.25 2.1q.1.05.25.1l1.1.2q.7.15 1 .15 1.6 0 2.35-1.3.55-.9.55-2.2 0-.6-.55-2.5-.45-1.6-.8-2.55-1.1.7-2.7 1.45-1.2.6-1.55.9-.5.35-.65 1.1-.1.7-.1 2.45M31.6 21.1q.3-1.3.3-1.75-.1-.5-.2-.65-.1-.15-.25-1.05-5.35-1.25-13.55 7.2l-.1-.15q9.3-10.2 13.5-8.2-2.55-2.7-4.8-2.7-6.2 0-8.45 4.1-.75 1.55-1.15 4-.1.5-.55 4.2 1.25 0 4.6-.2 3.35-.15 5.8-.8 2.4-.6 3.5-1.7 1.05-1.1 1.35-2.3m.1-8.9q1.4-2.85-.4-5.3-1.7-2.45-3.05-3.1-1.4-.65-3.85-.55-4.95.2-5.85.2-.1 0-.75-.1-.85-.2-1.2-.35 1 1.4 1.75 2.5 1.6 1.95 3.05 3.3 4.15 3.95 9.8 4.25l.05-.25q-.8-1-1.5-1.85-.65-.9-2.2-2.5-1.3-1.4-8-4.2Q25.6 6 26.85 6.7q1.3.75 3.35 3.45.5.8 1.5 2.05m24.5 2.85l-.35 2.2q-.3 1.3-.45 2.2-.05.45-.2.65v.85q0 .4.15.85l.05.05q2.95.25 3.7-1.35.25-.5.3-1.5 0-.5-.05-1.45 0-2.15-.55-3.2-1.35-2.35-1.8-3.6-.95.6-2.6 3.05-2.1 3.05-2.1 4.95 0 1 1 1.75.85.5 1.25.8 0-.1 1.05-4.05.3-.95.6-2.2m14.7 7.45q-2.2-.9-4.5-.9-2 0-4.6.95-1.9.75-2.9 1.1h-.15v.05q4.7-1 10.35-.15 5.65.9 8.8 7.5-5.75-9.2-18.45-6.15.2.4.6.8.1 0 .65 1.35.5 1.4 1.4 1.95.9.5 1.7 1.15.85.7 2.55.9.8.1 3 .1 2.5 0 3.75.15 4.5.3 5.75 2.3l.1-.05q-.3-.85-.5-2.4 0-.1-.05-.15-.25-1.8-1.65-3.45-1.35-1.7-2.3-2.75-1-1.1-3.55-2.3z"/><path fill="#990" d="M55.2 20.95v-.85q.15-.2.2-.65.15-.9.45-2.2h-.25q-1.05 3.95-1.05 4.05 0 .55-.45 1.35-.55.95-.4 1.45-.1 0-2.5 1.3l.05.1q-.2.2-.5.25-.05 0-.05.05-.05 0-.1.1-.8.45-1.95 1.15-2.5 1.5-3.1 3.1-.4-3.3-3.85-7.1-.55-.6-1.8-1.75-1.3-1.1-1.65-1.5-.35-.35-1.2-1.3-.3-.45-.55-.7-.15-.25-.15-.4-1-1.95-.75-4.1l-.25-.15-.65 1.15h-1.3q-.15-.25-1.5-1.95-.1-.1-.2-.15-1-1.25-1.5-2.05-2.05-2.7-3.35-3.45-1.25-.7-7.3-2.45 6.7 2.8 8 4.2 1.55 1.6 2.2 2.5.7.85 1.5 1.85.2.1.3.25l1.55 1.5v1.95h-1.8q-4.2-2-13.5 8.2l.1.15q8.2-8.45 13.55-7.2.45 0 1-.1 1.25-.15 2.1-.1 1.5 1.85 3.85 4.4 2.4 2.7 3.5 4.25 1.1 1.6 1.8 3.8.65 2.05.5 4.45-.2 2.4-.4 3.15-.1 1.5-.3 2.05-.15.6-.2 1.8-.15 1.65-1.3 4l1.45.1q.15-.65.3-.6l.15.7-.05-.65q.15 0 .45.15.15.1.35.15.05.05.1.05-.8-1.4-.4-3.65.3-1.6.75-3.75 0-.2.05-.3.95-5.35 2.1-7 2.25-3.15 6.2-4.45 1.3-.4 3.25-.8 1.8-.25 2.75-.4 12.7-3.05 18.45 6.15-3.15-6.6-8.8-7.5-5.65-.85-10.35.15h-.15q-.15.1-.3.1-.8.05-2.05.25l-.05-.25q-.45-.3-.7-1.25-.1-.35-.15-.7v-.05q-.15-.45-.15-.85z"/></g><g id="E"><path fill="#999" d="M63.75 68.55q-.6.25-1.25.4-6.25 2.2-13.3 2.05-.05 0-.05.05 7.2 1.7 14.5-1.2.6-.2 1.25-.5.55-.3 1.25-.55 1.4-.7 2.8-1.55 2.1-1.35 4.2-3l1.15-2.2q-.1.15-1.8 1.55-1.35 1-2.75 1.85-1.65 1.05-3.45 1.95-.65.3-1.35.6-.55.25-1.2.55m3.35-8.95l-2.8-5.55q-9.35 6.1-15.1 16.7V71l8.75-5.6q.25-.15.55-.4l.25-.1.05-.05 8.3-5.25m8.95-6.6q-.85-.85-2.3-1.05L68.6 55.7h-.05l1.5 1.75 6-4.45z"/><path fill="#ADADAD" d="M67.1 59.65v-.05l-8.3 5.25-.05.05-.25.1q-.3.25-.55.4L49.2 71q7.05.15 13.3-2.05.65-.15 1.25-.4.65-.3 1.2-.55.7-.3 1.35-.6 1.8-.9 3.45-1.95 1.4-.85 2.75-1.85-2.65-2-4.15-3.15-1.15-.8-1.25-.8z"/><path fill="#666" d="M64.3 54.05l1.1-1.7q-12.1 7.5-16.2 18.4 5.75-10.6 15.1-16.7z"/><path fill="#333" d="M64.3 54.05l2.8 5.55v.05q.1 0 1.25.8 1.5 1.15 4.15 3.15 1.7-1.4 1.8-1.55l-2.9-3.25q-.4-.6-1.35-1.35l-1.5-1.75h.05l-3.15-3.35h-.05l-1.1 1.7z"/><path fill="#8E8E8E" d="M71.4 58.8l5.65-4.1q-.4-1.05-1-1.7l-6 4.45q.95.75 1.35 1.35z"/><path fill="#960" d="M86.5 47.65l-1.95-.75-8.5 6.1q.6.65 1 1.7l9.45-7.05z"/><path fill="#C48300" d="M84.55 46.9l-1.8-.65.1-.85-9.1 6.55q1.45.2 2.3 1.05l8.5-6.1z"/></g><g id="F"><path fill="#D2A38B" d="M94.65 51q.4-.55.7-1-8.35 3.5-18.2-2.35.75 1.1 2 2.05.2.2.3.25 0 .05.35.25.35.3 1.45 1.1l-1.75 1.3q.05.05.6.5.55.4 2 1 1.5.6 4.05.65 1.1.05 2.3-.2 2.8-.4 4.75-2 .85-.7 1.45-1.55z"/><path fill="#E9B59A" d="M86.75 35.55q-1.7 1.05-1.7 2.35-4.6-.6-4.75 1.5-.2 2.05-.15 2-4.5 2.3-3.8 4.55.25.9.8 1.7Q87 53.5 95.35 50q1.6-2.5 1.2-5.45-.35-3.5-4.25-6.8-3.85-3.35-5.55-2.2z"/></g><g id="G"><path fill="#E9B59A" d="M539.95 482.05V442h-117q-10.35 0-17.7 7.3-7.3 7.35-7.3 17.7t7.3 17.65q1.268 1.268 2.6 2.3l132.1-4.9z"/><path fill="#D2A38B" d="M539.95 492v-9.95l-132.1 4.9q6.536 5.05 15.1 5.05h117z"/></g><path id="b" stroke="#8CA8B8" stroke-linejoin="round" stroke-linecap="round" fill="none" d="M199.8 527.35q4.1 0 7 2.95 2.95 2.9 2.95 7v81.6q-.1 3.95-2.95 6.75-2.9 2.95-7 2.95H91.15q-4.1 0-7-2.95-2.8-2.8-2.9-6.75v-81.6q0-4.1 2.9-7 2.9-2.95 7-2.95h108.6"/></defs><g transform="translate(-79 -524.95)"><use xlink:href="#a"/><use xlink:href="#b"/></g><g filter="url(#c)"><use xlink:href="#d" transform="matrix(.1953 0 0 .17094 -68.85 -6.2)"/><use xlink:href="#e" transform="matrix(.1888 0 0 .18068 -40.85 29.35)"/><use xlink:href="#f" transform="matrix(.1888 0 0 .18068 -40.85 29.35)"/><use xlink:href="#g" transform="matrix(.1888 0 0 .18068 -40.85 29.35)"/><use xlink:href="#h" transform="matrix(.1888 0 0 .18068 -40.85 29.35)"/><use xlink:href="#i" transform="matrix(.1888 0 0 .18068 -40.85 29.35)"/><use xlink:href="#j" transform="matrix(.1888 0 0 .18068 -40.85 29.35)"/><use xlink:href="#k" transform="matrix(.1888 0 0 .18068 -40.85 29.35)"/><use xlink:href="#l" transform="matrix(.1888 0 0 .18068 -40.85 29.35)"/><use xlink:href="#m" transform="matrix(.1888 0 0 .18068 -40.85 29.35)"/><use xlink:href="#n" transform="matrix(.1888 0 0 .18068 -40.85 29.35)"/><use xlink:href="#o" transform="matrix(.1888 0 0 .18068 -40.85 29.35)"/><use xlink:href="#p" transform="matrix(.1888 0 0 .18068 -40.85 29.35)"/><use xlink:href="#q" transform="matrix(.1888 0 0 .18068 -40.85 29.35)"/><use xlink:href="#r" transform="matrix(.1888 0 0 .18068 -40.85 29.35)"/><use xlink:href="#s" transform="matrix(.1888 0 0 .18068 -40.85 29.35)"/><use xlink:href="#t" transform="matrix(.1888 0 0 .18068 -40.85 29.35)"/><use xlink:href="#u" transform="matrix(.1888 0 0 .18068 -40.85 29.35)"/><use xlink:href="#v" transform="matrix(.1888 0 0 .18068 -40.85 29.35)"/><use xlink:href="#w" transform="matrix(.1888 0 0 .18068 -40.85 29.35)"/><use xlink:href="#x" transform="matrix(.1888 0 0 .18068 -40.85 29.35)"/><use xlink:href="#y" transform="matrix(.1888 0 0 .18068 -40.85 32.45)"/><use xlink:href="#z" transform="translate(7.3 7.8)"/><use xlink:href="#A" transform="translate(7.3 7.8)"/><use xlink:href="#B" transform="translate(7.3 7.8)"/><use xlink:href="#C" transform="translate(7.3 7.8)"/><use xlink:href="#D" transform="translate(7.3 7.8)"/><use xlink:href="#E" transform="translate(7.3 7.8)"/><use xlink:href="#F" transform="translate(7.3 7.8)"/><use xlink:href="#G" transform="matrix(.1888 0 0 .18068 21.8 -28.4)"/></g></svg>