<svg xmlns="http://www.w3.org/2000/svg" xmlns:xlink="http://www.w3.org/1999/xlink" preserveAspectRatio="none" width="133" height="106" viewBox="0 0 133 106"><defs><linearGradient id="a" gradientUnits="userSpaceOnUse" x1="6.6" y1="36.375" x2="107.1" y2="37.125"><stop offset="0%" stop-color="#FFC"/><stop offset="100%" stop-color="#FFF"/></linearGradient><filter id="d" x="-20%" y="-20%" width="140%" height="140%" color-interpolation-filters="sRGB"><feFlood flood-color="#000" flood-opacity="1" result="result1"/><feComposite in2="SourceGraphic" in="result1" operator="in" result="result2"/><feGaussianBlur in="result2" stdDeviation="2.3333333333333335,2.3333333333333335" result="result3"/><feOffset in="result3" result="result4"/><feComposite in2="result4" in="SourceGraphic" result="result5"/></filter><path fill="#0CC" d="M357.1 530.3q-2.9 2.9-2.9 7v81.6q.1 3.95 2.9 6.75 2.9 2.95 7 2.95h108.65q4.1 0 7-2.95 2.85-2.8 2.95-6.75v-81.6q0-4.1-2.95-7-2.9-2.95-7-2.95H364.1q-4.1 0-7 2.95z" id="b"/><path fill="#FFF" d="M966.45 100.5Q947.95 82 921.8 82H458.15Q432 82 413.5 100.5T395 145.15V538.8q0 26.15 18.5 44.65t44.65 18.5H921.8q26.15 0 44.65-18.5t18.5-44.65V145.15q0-26.15-18.5-44.65z" id="e"/><g id="f"><path fill="#2E4B87" d="M84.1 76.3q-.4-.1-.8-.1-10.75-1.25-25.95-1.3-15.2 0-26 1.1-.95.05-1.8.2-8.7 1-8.9 2.45h-.05q0 1.6 10.7 2.85 10.8 1.3 26.05 1.3 15.15.05 25.95-1.1 10.75-1.1 10.75-2.65v-.1q0-1.55-9.95-2.65m-1.05 2l.05.1q-.05 1.1-7.75 2-7.75.75-18.65.55-11.05 0-18.75-.8-7.7-.85-7.7-1.95h.05q.15-1.25 7.65-2 7.8-.8 18.75-.8 10.9.05 18.65.9 7.7.85 7.7 2m15.15-8.85q.3-.8.65-1.55-1.5-2.75-10.3-4.6-.6-.1-1.35-.25-12.05-2.4-29.25-2.15T28.5 63.8q-9 2.1-11.4 4.6-.4.4-.65.85.35.7.65 1.5Q19.45 68.1 28.45 66q12.25-2.6 29.4-2.8 17.1-.35 29.25 2.05.6.2 1.3.3 7.7 1.6 9.8 3.9m11.6-33.95l-.25.25q.05.1.1.1 0-.15.15-.35m-2.75 1.45v.15l.4.1q0 .2-.05.25 0 .15.1.4-.1-.1-.1-.25-.15.8-.4 1.65 1.35-1.1 2.6-3.35-.05.05-.25.05l.2-.2q-.55-5.25-15.3-9.05-15.35-3.95-37.05-4.15-21.75-.2-37.2 3.65-10.8 2.7-14.1 6.15-1.15 1.25-1.25 2.75v.35l-.1.1q0 .15.1.3v.05q.1.75.4 1.35.85 1.45 2.65 2.7-.4-.9-.55-1.8-.45-.65-.55-1.2v-.2q-.05-.2 0-.4 0-1.35 1-2.6 2.75-3.5 13.8-6.2 14.75-3.6 35.55-3.45 20.7.2 35.55 3.95 14.5 3.7 14.55 8.9M89.5 46.7q.65.2 1.4.35 10.4 2.65 12.85 6 .2-.7.4-1.35-.85-4.4-13.65-7.65-.4-.05-.85-.2-13.5-3.15-32.25-3.3-19.5-.15-33.25 3.2-10.2 2.45-12.95 5.75-.65.95-.85 1.95.35.95.65 2.1.15-.55.6-1.15 2.65-3.25 12.9-5.7 13.8-3.3 33.2-3.25 18.45.1 31.8 3.25z"/><path fill="#243B6B" d="M83.1 78.4l-.05-.1q0-1.15-7.7-2-7.75-.85-18.65-.9-10.95 0-18.75.8-7.5.75-7.65 2h-.05q0 1.1 7.7 1.95 7.7.8 18.75.8 10.9.2 18.65-.55 7.7-.9 7.75-2z"/><path fill="#2B57AF" d="M96.6 73.45q.35-.85.6-1.6.55-1.2 1-2.4-2.1-2.3-9.8-3.9-.7-.1-1.3-.3-12.15-2.4-29.25-2.05-17.15.2-29.4 2.8-9 2.1-11.35 4.75v.05q.05.35.2.65h.2l3.15 7.2q.2-1.45 8.9-2.45.85-.15 1.8-.2 10.8-1.1 26-1.1 15.2.05 25.95 1.3.4 0 .8.1 9.95 1.1 9.95 2.65v.1l2.55-5.6m-6.95-29.6q.45.15.85.2 12.8 3.25 13.65 7.65 1.6-6.1 2.85-12.45.25-.85.4-1.65-.25-.3-.35-.5v-.15q-.05-5.2-14.55-8.9-14.85-3.75-35.55-3.95-20.8-.15-35.55 3.45-11.05 2.7-13.8 6.2-1 1.25-1 2.6-.05.2 0 .4v.2q.1.55.55 1.2.15.9.55 1.8 1.05 5.7 2.65 11.5.2-1 .85-1.95 2.75-3.3 12.95-5.75 13.75-3.35 33.25-3.2 18.75.15 32.25 3.3m1.25 3.2q-.75-.15-1.4-.35-13.35-3.15-31.8-3.25-19.4-.05-33.2 3.25-10.25 2.45-12.9 5.7-.45.6-.6 1.15 2.35 7.75 5.45 15.7.25-.45.65-.85 2.4-2.5 11.4-4.6 12.25-2.65 29.45-2.9t29.25 2.15q.75.15 1.35.25 8.8 1.85 10.3 4.6 2.8-7.2 4.9-14.85-2.45-3.35-12.85-6z"/><path fill="#5488F3" d="M94.25 20.6q8.95 2.35 12.7 5.1Q90.7 12.25 61.3 7.9q-4.05-5.7-8.2-.05-.2.05-.45.05Q23.5 11.85 7.4 25.05 11.15 22.2 20 20q15.45-3.65 37.2-3.55 21.7.15 37.05 4.15z"/><path fill="url(#a)" d="M107.4 37.6q0 .15.1.25-.1-.25-.1-.4.05-.05.05-.25l-.4-.1q.1.2.35.5z"/><path fill="#4875D2" d="M107.9 26.65q-.4-.55-.95-.95-3.75-2.75-12.7-5.1-15.35-4-37.05-4.15Q35.45 16.35 20 20q-8.85 2.2-12.6 5.05-.65.4-1.05.85-1.4 1.2-1.6 2.65l-.1 6.55q.1-1.5 1.25-2.75Q9.2 28.9 20 26.2q15.45-3.85 37.2-3.65 21.7.2 37.05 4.15 14.75 3.8 15.3 9.05l.25-.25-.15-5.5q-.05-.05-.05-.2-.05-1.7-1.7-3.15z"/></g><path id="c" stroke="#8CA8B8" stroke-linejoin="round" stroke-linecap="round" fill="none" d="M472.75 527.35q4.1 0 7 2.95 2.95 2.9 2.95 7v81.6q-.1 3.95-2.95 6.75-2.9 2.95-7 2.95H364.1q-4.1 0-7-2.95-2.8-2.8-2.9-6.75v-81.6q0-4.1 2.9-7 2.9-2.95 7-2.95h108.6"/></defs><g transform="translate(-351.95 -524.95)"><use xlink:href="#b"/><use xlink:href="#c"/></g><g filter="url(#d)"><use xlink:href="#e" transform="matrix(.19763 0 0 .17226 -69.75 -6.4)"/><use xlink:href="#f" transform="translate(8.3 7.75)"/></g></svg>