<svg xmlns="http://www.w3.org/2000/svg" xmlns:xlink="http://www.w3.org/1999/xlink" preserveAspectRatio="none" width="129" height="102" viewBox="0 0 129 102"><defs><path fill="#FC0" d="M129.75 10.8q0-4.1-2.95-7-2.9-2.95-7-2.95H11.15q-4.1 0-7 2.95-2.9 2.9-2.9 7v81.6q.1 3.95 2.9 6.75 2.9 2.95 7 2.95H119.8q4.1 0 7-2.95 2.85-2.8 2.95-6.75V10.8M27.3 16.65q0-1.9 1.15-3.2 1.1-1.3 2.8-1.3 1.5 0 2.35.6l-.6 1.3q-.5-.55-1.65-.55-1.1 0-1.75.95-.7.85-.7 2.25t.65 2.2q.6.8 1.7.8 1.2 0 1.9-.85l.7 1.2q-.95 1-2.75 1t-2.8-1.2q-1-1.15-1-3.2m10.3-2.15q1.45 0 2.2.85.8.9.8 2.4t-.8 2.4q-.8.85-2.2.85-1.45 0-2.2-.85-.8-.9-.8-2.4 0-1.45.8-2.35.85-.9 2.2-.9m4.45 5.15V12.3l1.45-.35V19q0 1.15.7 1.35-.35.65-1.15.65-1 0-1-1.35m3.7-4.25q.85-.9 2.2-.9 1.45 0 2.2.85.8.9.8 2.4t-.8 2.4q-.8.85-2.2.85-1.45 0-2.2-.85-.8-.9-.8-2.4 0-1.45.8-2.35M56.5 15l.25-.4h.95v8.75h-1.5V20.7q-.5.3-1.45.3-1.35 0-2.15-.8-.75-.85-.75-2.4 0-1.5.9-2.4.85-.9 2.25-.9.85 0 1.5.5m6.7-.4h1.45v6.3H63.2v-.5q-.35.25-.85.45-.55.15-1 .15-2.2 0-2.2-2.3v-4.1h1.45v4q0 1.2 1.1 1.2.5 0 .9-.25.45-.25.6-.6V14.6m3.55.85q.9-.95 2.2-.95 1.35 0 2.2.8.8.85.8 2.1 0 .25-.1.8h-4.5q.05.75.55 1.2.45.4 1.25.4 1 0 1.55-.55l.55 1.15q-.8.6-2.3.6-1.45 0-2.3-.8-.8-.85-.8-2.35t.9-2.4m15.6 2.3q0 1.5-.8 2.4-.8.85-2.2.85-1.45 0-2.2-.85-.8-.9-.8-2.4 0-1.45.8-2.35.85-.9 2.2-.9 1.45 0 2.2.85.8.9.8 2.4m5.05-5.45l1.45-.35V19q0 1.15.7 1.35-.35.65-1.15.65-1 0-1-1.35V12.3m2.9 3.55V14.6h2.25v6.3H91.1v-5.05h-.8m1.55-1.95q-.35 0-.6-.25t-.25-.6q0-.35.25-.6t.6-.25q.35 0 .6.25t.25.6q0 .35-.25.6t-.6.25m8.05.7l-2.45 3.1 2.65 3.2h-1.8l-1.6-2.05-1.45 2.05h-1.7l2.4-3.2-2.25-3.1h1.7l1.35 1.95 1.45-1.95h1.7m3.65-.1q1.45 0 2.2.85.8.9.8 2.4t-.8 2.4q-.8.85-2.2.85-1.45 0-2.2-.85-.8-.9-.8-2.4 0-1.45.8-2.35.85-.9 2.2-.9M91.35 30q.4.5.4 1.15 0 .85-.65 1.35-.65.5-1.75.5-.65 0-1-.1-.4-.1-1-.4l.55-1.15q.65.5 1.45.5.85 0 .85-.6 0-.35-.25-.6-.25-.2-1-.55-1.6-.65-1.6-1.85 0-.85.6-1.3.6-.45 1.6-.45.95 0 1.85.45l-.45 1.15q-.45-.45-1.35-.45-.75 0-.75.65 0 .2.25.4t1.1.55q.8.3 1.15.75m-10-2.6q.85-.9 2.2-.9 1.45 0 2.2.85.8.9.8 2.4t-.8 2.4q-.8.85-2.2.85-1.45 0-2.2-.85-.8-.9-.8-2.4 0-1.45.8-2.35m-25.5-.9q1.05 0 1.65.6.55.6.55 1.65v4.15H56.6v-3.95q0-1.2-1.1-1.2-.35 0-.65.2-.3.15-.4.4v4.55h-1.5v-4.15q0-.45-.25-.75-.3-.25-.8-.25-.3 0-.6.2-.35.2-.5.45v4.5h-1.45v-6.3h1l.3.6q.6-.7 1.55-.7 1.25 0 1.9.7.3-.3.75-.5.5-.2 1-.2m-7.7 2.9q0 .25-.1.8h-4.5q.05.75.55 1.2.45.4 1.25.4 1 0 1.55-.55l.55 1.15q-.8.6-2.3.6-1.45 0-2.3-.8-.8-.85-.8-2.35t.9-2.4q.9-.95 2.2-.95 1.35 0 2.2.8.8.85.8 2.1m-7.3 9.1q3 0 3 3.3 0 1.55-.85 2.4-.8.8-2.25.8-.7 0-1.25-.25v2.6H38V38.6h1.5v.45q.55-.55 1.35-.55m36.95-12q1.1 0 1.9.6l-.6 1.1q-.55-.45-1.4-.45-.85 0-1.3.55-.5.55-.5 1.5 0 2 1.9 2 .8 0 1.4-.55l.55 1.15q-.65.4-1.1.5-.5.1-1.15.1-1.45 0-2.3-.85-.8-.85-.8-2.35 0-1.45.9-2.4.9-.9 2.5-.9m-5.25.65q.65.65.65 2.5V31q0 1.25.5 1.55-.2.3-.4.4-.2.05-.5.05t-.6-.2q-.25-.25-.3-.55-.2.35-.7.55-.5.2-1.05.2-1 0-1.6-.5Q68 32 68 31.05q0-1.05.8-1.7.8-.6 2.3-.6.3 0 .65.1 0-1.1-1.4-1.1-.85 0-1.4.25l-.3-1.15q.75-.35 1.8-.35 1.4 0 2.1.65m-5.65-.2l-.45 1.15q-.45-.45-1.35-.45-.75 0-.75.65 0 .2.25.4t1.1.55q.8.3 1.15.75.4.5.4 1.15 0 .85-.65 1.35-.65.5-1.75.5-.65 0-1-.1-.4-.1-1-.4l.55-1.15q.65.5 1.45.5.85 0 .85-.6 0-.35-.25-.6-.25-.2-1-.55-1.6-.65-1.6-1.85 0-.85.6-1.3.6-.45 1.6-.45.95 0 1.85.45m23 14.9q0-1.5.9-2.4.9-.95 2.2-.95 1.35 0 2.2.8.8.85.8 2.1 0 .25-.1.8h-4.5q.05.75.55 1.2.45.4 1.25.4 1 0 1.55-.55l.55 1.15q-.8.6-2.3.6-1.45 0-2.3-.8-.8-.85-.8-2.35m-4.7-2.9l-.45 1.15q-.45-.45-1.35-.45-.75 0-.75.65 0 .2.25.4t1.1.55q.8.3 1.15.75.4.5.4 1.15 0 .85-.65 1.35-.65.5-1.75.5-.65 0-1-.1-.4-.1-1-.4l.55-1.15q.65.5 1.45.5.85 0 .85-.6 0-.35-.25-.6-.25-.2-1-.55-1.6-.65-1.6-1.85 0-.85.6-1.3.6-.45 1.6-.45.95 0 1.85.45m-34.15-2.9h1.45l-1.3 1.75h-1.15l1-1.75m-5.65.25l1.45-.35V43q0 1.15.7 1.35-.35.65-1.15.65-1 0-1-1.35V36.3m3.85 3.7l-.3-1.15q.75-.35 1.8-.35 1.4 0 2.1.65.65.65.65 2.5V43q0 1.25.5 1.55-.2.3-.4.4-.2.05-.5.05t-.6-.2q-.25-.25-.3-.55-.2.35-.7.55-.5.2-1.05.2-1 0-1.6-.5-.55-.5-.55-1.45 0-1.05.8-1.7.8-.6 2.3-.6.3 0 .65.1 0-1.1-1.4-1.1-.85 0-1.4.25m9.5-1.05l-.45 1.15q-.45-.45-1.35-.45-.75 0-.75.65 0 .2.25.4t1.1.55q.8.3 1.15.75.4.5.4 1.15 0 .85-.65 1.35-.65.5-1.75.5-.65 0-1-.1-.4-.1-1-.4l.55-1.15q.65.5 1.45.5.85 0 .85-.6 0-.35-.25-.6-.25-.2-1-.55-1.6-.65-1.6-1.85 0-.85.6-1.3.6-.45 1.6-.45.95 0 1.85.45m1.7.85h-.7v-1.2h.7v-1.25l1.5-.55v1.8h1.7v1.2h-1.7v2.75q0 .65.2.95.2.3.75.3.5 0 .95-.3v1.35q-.5.15-1.45.15t-1.45-.5q-.5-.55-.5-1.5v-3.2m4.85-2.75q0-.35.25-.6t.6-.25q.35 0 .6.25t.25.6q0 .35-.25.6t-.6.25q-.35 0-.6-.25t-.25-.6m2.9 4.75q0-1.45.9-2.4.9-.9 2.5-.9 1.1 0 1.9.6l-.6 1.1q-.55-.45-1.4-.45-.85 0-1.3.55-.5.55-.5 1.5 0 2 1.9 2 .8 0 1.4-.55l.55 1.15q-.65.4-1.1.5-.5.1-1.15.1-1.45 0-2.3-.85-.8-.85-.8-2.35m-3.6-1.95V38.6h2.25v6.3H65.4v-5.05h-.8m14.95-.5q.8.9.8 2.4t-.8 2.4q-.8.85-2.2.85-1.45 0-2.2-.85-.8-.9-.8-2.4 0-1.45.8-2.35.85-.9 2.2-.9 1.45 0 2.2.85M25.75 51.1q.55.6.55 1.65v4.15h-1.45v-3.95q0-1.2-1.1-1.2-.35 0-.65.2-.3.15-.4.4v4.55h-1.5v-4.15q0-.45-.25-.75-.3-.25-.8-.25-.3 0-.6.2-.35.2-.5.45v4.5H17.6v-6.3h1l.3.6q.6-.7 1.55-.7 1.25 0 1.9.7.3-.3.75-.5.5-.2 1-.2 1.05 0 1.65.6m4.85 1.65q.3 0 .65.1 0-1.1-1.4-1.1-.85 0-1.4.25l-.3-1.15q.75-.35 1.8-.35 1.4 0 2.1.65.65.65.65 2.5V55q0 1.25.5 1.55-.2.3-.4.4-.2.05-.5.05t-.6-.2q-.25-.25-.3-.55-.2.35-.7.55-.5.2-1.05.2-1 0-1.6-.5-.55-.5-.55-1.45 0-1.05.8-1.7.8-.6 2.3-.6m62.85-4.45l1.5-.35v2.9q.55-.35 1.25-.35 1.4 0 2.25.9.85.85.85 2.2 0 1.6-.85 2.5-.85.9-2.3.9-.9 0-1.5-.45l-.35.45h-.85v-8.7m-6.8 2.2q.95 0 1.85.45l-.45 1.15q-.45-.45-1.35-.45-.75 0-.75.65 0 .2.25.4t1.1.55q.8.3 1.15.75.4.5.4 1.15 0 .85-.65 1.35-.65.5-1.75.5-.65 0-1-.1-.4-.1-1-.4l.55-1.15q.65.5 1.45.5.85 0 .85-.6 0-.35-.25-.6-.25-.2-1-.55-1.6-.65-1.6-1.85 0-.85.6-1.3.6-.45 1.6-.45m-3.8.85q.8.9.8 2.4t-.8 2.4q-.8.85-2.2.85-1.45 0-2.2-.85-.8-.9-.8-2.4 0-1.45.8-2.35.85-.9 2.2-.9 1.45 0 2.2.85m-41.25-2l1.5-.55v1.8h1.7v1.2h-1.7v2.75q0 .65.2.95.2.3.75.3.5 0 .95-.3v1.35q-.5.15-1.45.15t-1.45-.5q-.5-.55-.5-1.5v-3.2h-.7v-1.2h.7v-1.25m18.55-1.05l1.5-.35V51q.55-.5 1.55-.5 1.15 0 1.8.65.65.65.65 1.9v3.85H64.2v-3.85q0-.6-.35-.95t-.95-.35q-.35 0-.75.2-.35.2-.5.45v4.5h-1.5v-8.6m-23.8 3.6q-.4.2-.6.45v4.55H34.3v-6.3h1.05l.25.6q.6-.7 1.8-.7 1.1 0 1.75.7.65.65.65 1.85v3.85h-1.45v-3.65q0-.8-.35-1.15-.3-.35-1-.35-.3 0-.65.15m40.25.85v1.35h-3.1v-1.35h3.1m-5.2-1.6q.65.65.65 2.5V55q0 1.25.5 1.55-.2.3-.4.4-.2.05-.5.05t-.6-.2q-.25-.25-.3-.55-.2.35-.7.55-.5.2-1.05.2-1 0-1.6-.5-.55-.5-.55-1.45 0-1.05.8-1.7.8-.6 2.3-.6.3 0 .65.1 0-1.1-1.4-1.1-.85 0-1.4.25l-.3-1.15q.75-.35 1.8-.35 1.4 0 2.1.65m-14.65.95q-.3-.35-1-.35-.3 0-.65.15-.4.2-.6.45v4.55h-1.45v-6.3h1.05l.25.6q.6-.7 1.8-.7 1.1 0 1.75.7.65.65.65 1.85v3.85H57.1v-3.65q0-.8-.35-1.15m-4.9 1.3q0 .25-.1.8h-4.5q.05.75.55 1.2.45.4 1.25.4 1 0 1.55-.55l.55 1.15q-.8.6-2.3.6-1.45 0-2.3-.8-.8-.85-.8-2.35t.9-2.4q.9-.95 2.2-.95 1.35 0 2.2.8.8.85.8 2.1m63.8-2.3q.55.6.55 1.65v4.15h-1.45v-3.95q0-1.2-1.1-1.2-.35 0-.65.2-.3.15-.4.4v4.55h-1.5v-4.15q0-.45-.25-.75-.3-.25-.8-.25-.3 0-.6.2-.35.2-.5.45v4.5h-1.45v-6.3h1l.3.6q.6-.7 1.55-.7 1.25 0 1.9.7.3-.3.75-.5.5-.2 1-.2 1.05 0 1.65.6m-13.95 3.1q.05.75.55 1.2.45.4 1.25.4 1 0 1.55-.55l.55 1.15q-.8.6-2.3.6-1.45 0-2.3-.8-.8-.85-.8-2.35t.9-2.4q.9-.95 2.2-.95 1.35 0 2.2.8.8.85.8 2.1 0 .25-.1.8h-4.5m-73.9 7.2q-.5-.15-.75-.15-.4 0-.7.35-.3.35-.3.85v.15h1.3v1.25H26.1v5.05h-1.5v-5.05h-.9V62.6h.95q0-1.15.65-1.85.65-.7 1.65-.7.5 0 1.25.25l-.4 1.1m.55 4.45q0-1.5.9-2.4.9-.95 2.2-.95 1.35 0 2.2.8.8.85.8 2.1 0 .25-.1.8h-4.5q.05.75.55 1.2.45.4 1.25.4 1 0 1.55-.55l.55 1.15q-.8.6-2.3.6-1.45 0-2.3-.8-.8-.85-.8-2.35m10.3 1.95q.8 0 1.4-.55l.55 1.15q-.65.4-1.1.5-.5.1-1.15.1-1.45 0-2.3-.85-.8-.85-.8-2.35 0-1.45.9-2.4.9-.9 2.5-.9 1.1 0 1.9.6l-.6 1.1q-.55-.45-1.4-.45-.85 0-1.3.55-.5.55-.5 1.5 0 2 1.9 2m28.4-4.45q.8.9.8 2.4t-.8 2.4q-.8.85-2.2.85-1.45 0-2.2-.85-.8-.9-.8-2.4 0-1.45.8-2.35.85-.9 2.2-.9 1.45 0 2.2.85m-6.25-3.4v8.95h-1.45v-.4q-.2.2-.65.35-.4.15-.9.15-1.3 0-2.05-.8-.75-.85-.75-2.35 0-1.45.85-2.4.9-.95 2.2-.95.7 0 1.3.3v-2.5l1.45-.35m-19 .35l1.5-.35V63q.55-.5 1.55-.5 1.15 0 1.8.65.65.65.65 1.9v3.85h-1.45v-3.85q0-.6-.35-.95t-.95-.35q-.35 0-.75.2-.35.2-.5.45v4.5h-1.5v-8.6m7.65 3.7l-.3-1.15q.75-.35 1.8-.35 1.4 0 2.1.65.65.65.65 2.5V67q0 1.25.5 1.55-.2.3-.4.4-.2.05-.5.05t-.6-.2q-.25-.25-.3-.55-.2.35-.7.55-.5.2-1.05.2-1 0-1.6-.5-.55-.5-.55-1.45 0-1.05.8-1.7.8-.6 2.3-.6.3 0 .65.1 0-1.1-1.4-1.1-.85 0-1.4.25m20.7.3q0 .2.25.4t1.1.55q.8.3 1.15.75.4.5.4 1.15 0 .85-.65 1.35-.65.5-1.75.5-.65 0-1-.1-.4-.1-1-.4l.55-1.15q.65.5 1.45.5.85 0 .85-.6 0-.35-.25-.6-.25-.2-1-.55-1.6-.65-1.6-1.85 0-.85.6-1.3.6-.45 1.6-.45.95 0 1.85.45l-.45 1.15q-.45-.45-1.35-.45-.75 0-.75.65m37.9.55q0-1.1-1.4-1.1-.85 0-1.4.25l-.3-1.15q.75-.35 1.8-.35 1.4 0 2.1.65.65.65.65 2.5V67q0 1.25.5 1.55-.2.3-.4.4-.2.05-.5.05t-.6-.2q-.25-.25-.3-.55-.2.35-.7.55-.5.2-1.05.2-1 0-1.6-.5-.55-.5-.55-1.45 0-1.05.8-1.7.8-.6 2.3-.6.3 0 .65.1m-4.25-2.1l-.65 1.25q-.35-.25-.85-.25t-.9.45q-.4.45-.4 1.15v3.55h-1.45v-6.3H101v.6q.6-.7 1.65-.7.75 0 1.15.25M92.2 60.3l-.4 1.1q-.5-.15-.75-.15-.4 0-.7.35-.3.35-.3.85v.15h1.3v1.25H90.1v5.05h-1.5v-5.05h-.9V62.6h.95q0-1.15.65-1.85.65-.7 1.65-.7.5 0 1.25.25m-9.5 3q.8.85.8 2.1 0 .25-.1.8h-4.5q.05.75.55 1.2.45.4 1.25.4 1 0 1.55-.55l.55 1.15q-.8.6-2.3.6-1.45 0-2.3-.8-.8-.85-.8-2.35t.9-2.4q.9-.95 2.2-.95 1.35 0 2.2.8m14.85.05q.8.9.8 2.4t-.8 2.4q-.8.85-2.2.85-1.45 0-2.2-.85-.8-.9-.8-2.4 0-1.45.8-2.35.85-.9 2.2-.9 1.45 0 2.2.85M33 72.3l1.45-.35v8.95H33v-.4q-.2.2-.65.35-.4.15-.9.15-1.3 0-2.05-.8-.75-.85-.75-2.35 0-1.45.85-2.4.9-.95 2.2-.95.7 0 1.3.3v-2.5m3.3 7.85q-.8-.9-.8-2.4 0-1.45.8-2.35.85-.9 2.2-.9 1.45 0 2.2.85.8.9.8 2.4t-.8 2.4q-.8.85-2.2.85-1.45 0-2.2-.85m16.65-7.85l1.45-.35V79q0 1.15.7 1.35-.35.65-1.15.65-1 0-1-1.35V72.3m2.9 5.5q0-1.45.9-2.4.9-.9 2.5-.9 1.1 0 1.9.6l-.6 1.1q-.55-.45-1.4-.45-.85 0-1.3.55-.5.55-.5 1.5 0 2 1.9 2 .8 0 1.4-.55l.55 1.15q-.65.4-1.1.5-.5.1-1.15.1-1.45 0-2.3-.85-.8-.85-.8-2.35m-4.75-.15V79q0 1.25.5 1.55-.2.3-.4.4-.2.05-.5.05t-.6-.2q-.25-.25-.3-.55-.2.35-.7.55-.5.2-1.05.2-1 0-1.6-.5-.55-.5-.55-1.45 0-1.05.8-1.7.8-.6 2.3-.6.3 0 .65.1 0-1.1-1.4-1.1-.85 0-1.4.25l-.3-1.15q.75-.35 1.8-.35 1.4 0 2.1.65.65.65.65 2.5m15.45-2.5q.65.65.65 2.5V79q0 1.25.5 1.55-.2.3-.4.4-.2.05-.5.05t-.6-.2q-.25-.25-.3-.55-.2.35-.7.55-.5.2-1.05.2-1 0-1.6-.5Q62 80 62 79.05q0-1.05.8-1.7.8-.6 2.3-.6.3 0 .65.1 0-1.1-1.4-1.1-.85 0-1.4.25l-.3-1.15q.75-.35 1.8-.35 1.4 0 2.1.65M96.6 72.3l1.45-.35v8.95H96.6v-.4q-.2.2-.65.35-.4.15-.9.15-1.3 0-2.05-.8-.75-.85-.75-2.35 0-1.45.85-2.4.9-.95 2.2-.95.7 0 1.3.3v-2.5m4 5.9q.05.75.55 1.2.45.4 1.25.4 1 0 1.55-.55l.55 1.15q-.8.6-2.3.6-1.45 0-2.3-.8-.8-.85-.8-2.35t.9-2.4q.9-.95 2.2-.95 1.35 0 2.2.8.8.85.8 2.1 0 .25-.1.8h-4.5m-12.85-.8q0 .25-.1.8h-4.5q.05.75.55 1.2.45.4 1.25.4 1 0 1.55-.55l.55 1.15q-.8.6-2.3.6-1.45 0-2.3-.8-.8-.85-.8-2.35t.9-2.4q.9-.95 2.2-.95 1.35 0 2.2.8.8.85.8 2.1m-29.5 7.05q.25-.25.6-.25t.6.25q.25.25.25.6t-.25.6q-.25.25-.6.25t-.6-.25q-.25-.25-.25-.6t.25-.6m-.95 2.15h2.25v6.3H58.1v-5.05h-.8V86.6m-8.95.55q.65.65.65 2.5V91q0 1.25.5 1.55-.2.3-.4.4-.2.05-.5.05t-.6-.2q-.25-.25-.3-.55-.2.35-.7.55-.5.2-1.05.2-1 0-1.6-.5-.55-.5-.55-1.45 0-1.05.8-1.7.8-.6 2.3-.6.3 0 .65.1 0-1.1-1.4-1.1-.85 0-1.4.25l-.3-1.15q.75-.35 1.8-.35 1.4 0 2.1.65m6.3 2.1q0-.8-.35-1.15-.3-.35-1-.35-.3 0-.65.15-.4.2-.6.45v4.55H50.6v-6.3h1.05l.25.6q.6-.7 1.8-.7 1.1 0 1.75.7.65.65.65 1.85v3.85h-1.45v-3.65M80.2 76.2q-.55-.45-1.4-.45-.85 0-1.3.55-.5.55-.5 1.5 0 2 1.9 2 .8 0 1.4-.55l.55 1.15q-.65.4-1.1.5-.5.1-1.15.1-1.45 0-2.3-.85-.8-.85-.8-2.35 0-1.45.9-2.4.9-.9 2.5-.9 1.1 0 1.9.6l-.6 1.1m-6.55-1q.65.65.65 1.85v3.85h-1.45v-3.65q0-.8-.35-1.15-.3-.35-1-.35-.3 0-.65.15-.4.2-.6.45v4.55H68.8v-6.3h1.05l.25.6q.6-.7 1.8-.7 1.1 0 1.75.7M61.3 86.6h1l.3.6q.6-.7 1.55-.7 1.25 0 1.9.7.3-.3.75-.5.5-.2 1-.2 1.05 0 1.65.6.55.6.55 1.65v4.15h-1.45v-3.95q0-1.2-1.1-1.2-.35 0-.65.2-.3.15-.4.4v4.55h-1.5v-4.15q0-.45-.25-.75-.3-.25-.8-.25-.3 0-.6.2-.35.2-.5.45v4.5H61.3v-6.3M76.4 91q0 1.25.5 1.55-.2.3-.4.4-.2.05-.5.05t-.6-.2q-.25-.25-.3-.55-.2.35-.7.55-.5.2-1.05.2-1 0-1.6-.5-.55-.5-.55-1.45 0-1.05.8-1.7.8-.6 2.3-.6.3 0 .65.1 0-1.1-1.4-1.1-.85 0-1.4.25l-.3-1.15q.75-.35 1.8-.35 1.4 0 2.1.65.65.65.65 2.5V91m12.35.4q.35.3.35.75 0 .4-.35.75-.3.3-.75.3-.4 0-.7-.3-.35-.35-.35-.75 0-.45.35-.75.3-.3.7-.3.45 0 .75.3m-3.5-4.45l-.45 1.15q-.45-.45-1.35-.45-.75 0-.75.65 0 .2.25.4t1.1.55q.8.3 1.15.75.4.5.4 1.15 0 .85-.65 1.35-.65.5-1.75.5-.65 0-1-.1-.4-.1-1-.4l.55-1.15q.65.5 1.45.5.85 0 .85-.6 0-.35-.25-.6-.25-.2-1-.55-1.6-.65-1.6-1.85 0-.85.6-1.3.6-.45 1.6-.45.95 0 1.85.45m-6.7-2.5q.25-.25.6-.25t.6.25q.25.25.25.6t-.25.6q-.25.25-.6.25t-.6-.25q-.25-.25-.25-.6t.25-.6m-.95 2.15h2.25v6.3H78.4v-5.05h-.8V86.6m-2.65 3.95v-.6q-.4-.1-.55-.1-1.75 0-1.75 1.15 0 .85.95.85 1.35 0 1.35-1.3m-27.4 0v-.6q-.4-.1-.55-.1-1.75 0-1.75 1.15 0 .85.95.85 1.35 0 1.35-1.3m37.2-14.8q-1.25 0-1.55 1.35h3.1q-.15-1.35-1.55-1.35m19 1.35q-.15-1.35-1.55-1.35-1.25 0-1.55 1.35h3.1m-7.55 2.55q.3-.1.4-.25v-3.3q-.5-.35-1-.35-.9 0-1.35.55-.5.5-.5 1.5 0 2 1.9 2 .2 0 .55-.15M63.45 79q0 .85.95.85 1.35 0 1.35-1.3v-.6q-.4-.1-.55-.1-1.75 0-1.75 1.15m-13.8-.45v-.6q-.4-.1-.55-.1-1.75 0-1.75 1.15 0 .85.95.85 1.35 0 1.35-1.3M38.5 79.8q.7 0 1.1-.5.4-.55.4-1.55 0-2.05-1.5-2.05-.7 0-1.1.55-.4.55-.4 1.5 0 2.05 1.5 2.05m-5.9-.15q.3-.1.4-.25v-3.3q-.5-.35-1-.35-.9 0-1.35.55-.5.5-.5 1.5 0 2 1.9 2 .2 0 .55-.15M96.45 67.3q.4-.55.4-1.55 0-2.05-1.5-2.05-.7 0-1.1.55-.4.55-.4 1.5 0 2.05 1.5 2.05.7 0 1.1-.5M80.5 63.75q-1.25 0-1.55 1.35h3.1q-.15-1.35-1.55-1.35m27.55 2.2q-.4-.1-.55-.1-1.75 0-1.75 1.15 0 .85.95.85 1.35 0 1.35-1.3v-.6m-55.8 0q-.4-.1-.55-.1-1.75 0-1.75 1.15 0 .85.95.85 1.35 0 1.35-1.3v-.6m7.1-1.85q-.5-.35-1-.35-.9 0-1.35.55-.5.5-.5 1.5 0 2 1.9 2 .2 0 .55-.15.3-.1.4-.25v-3.3m6.6 3.2q.4-.55.4-1.55 0-2.05-1.5-2.05-.7 0-1.1.55-.4.55-.4 1.5 0 2.05 1.5 2.05.7 0 1.1-.5M33 65.1q-.15-1.35-1.55-1.35-1.25 0-1.55 1.35H33m68.75-12h3.1q-.15-1.35-1.55-1.35-1.25 0-1.55 1.35m-51.35 0q-.15-1.35-1.55-1.35-1.25 0-1.55 1.35h3.1m20.2 1.45v-.6q-.4-.1-.55-.1-1.75 0-1.75 1.15 0 .85.95.85 1.35 0 1.35-1.3m11.15.75q.4-.55.4-1.55 0-2.05-1.5-2.05-.7 0-1.1.55-.4.55-.4 1.5 0 2.05 1.5 2.05.7 0 1.1-.5m15.55-.05q.45-.5.45-1.6 0-1.9-1.8-1.9-.65 0-1 .35v3.3q.3.4.85.4 1.05 0 1.5-.55m-66.05-.7v-.6q-.4-.1-.55-.1-1.75 0-1.75 1.15 0 .85.95.85 1.35 0 1.35-1.3m47.2-11.25q.4-.55.4-1.55 0-2.05-1.5-2.05-.7 0-1.1.55-.4.55-.4 1.5 0 2.05 1.5 2.05.7 0 1.1-.5m-26.4-1.35q-.4-.1-.55-.1-1.75 0-1.75 1.15 0 .85.95.85 1.35 0 1.35-1.3v-.6M93 39.75q-1.25 0-1.55 1.35h3.1q-.15-1.35-1.55-1.35m-21.25-9.8q-.4-.1-.55-.1-1.75 0-1.75 1.15 0 .85.95.85 1.35 0 1.35-1.3v-.6M41.9 43.3q.4-.5.4-1.55 0-1.1-.4-1.55-.45-.45-1.45-.45-.55 0-.95.4v3.3q.4.35.9.35 1.05 0 1.5-.5m3.25-15.55q-1.25 0-1.55 1.35h3.1q-.15-1.35-1.55-1.35m37.3.5q-.4.55-.4 1.5 0 2.05 1.5 2.05.7 0 1.1-.5.4-.55.4-1.55 0-2.05-1.5-2.05-.7 0-1.1.55m22.6-10.5q0-2.05-1.5-2.05-.7 0-1.1.55-.4.55-.4 1.5 0 2.05 1.5 2.05.7 0 1.1-.5.4-.55.4-1.55m-26.8-1.5q-.4.55-.4 1.5 0 2.05 1.5 2.05.7 0 1.1-.5.4-.55.4-1.55 0-2.05-1.5-2.05-.7 0-1.1.55m-7.75.85q-.15-1.35-1.55-1.35-1.25 0-1.55 1.35h3.1m-16.65-.8q-.5.6-.5 1.5 0 2 1.8 2 .65 0 1.05-.3v-3.4q-.35-.35-1-.35-.85 0-1.35.55m-7-.05q-.4.55-.4 1.5 0 2.05 1.5 2.05.7 0 1.1-.5.4-.55.4-1.55 0-2.05-1.5-2.05-.7 0-1.1.55m-10.35 0q-.4.55-.4 1.5 0 2.05 1.5 2.05.7 0 1.1-.5.4-.55.4-1.55 0-2.05-1.5-2.05-.7 0-1.1.55z" id="a"/><path d="M76.9 92.55q-.5-.3-.5-1.55v-1.35q0-1.85-.65-2.5-.7-.65-2.1-.65-1.05 0-1.8.35l.3 1.15q.55-.25 1.4-.25 1.4 0 1.4 1.1-.35-.1-.65-.1-1.5 0-2.3.6-.8.65-.8 1.7 0 .95.55 1.45.6.5 1.6.5.55 0 1.05-.2t.7-.55q.05.3.3.55.3.2.6.2t.5-.05q.2-.1.4-.4m-1.95-2.6v.6q0 1.3-1.35 1.3-.95 0-.95-.85 0-1.15 1.75-1.15.15 0 .55.1M62.3 86.6h-1v6.3h1.45v-4.5q.15-.25.5-.45.3-.2.6-.2.5 0 .8.25.25.3.25.75v4.15h1.5v-4.55q.1-.25.4-.4.3-.2.65-.2 1.1 0 1.1 1.2v3.95H70v-4.15q0-1.05-.55-1.65-.6-.6-1.65-.6-.5 0-1 .2-.45.2-.75.5-.65-.7-1.9-.7-.95 0-1.55.7l-.3-.6m4.9-8.95q0-1.85-.65-2.5-.7-.65-2.1-.65-1.05 0-1.8.35l.3 1.15q.55-.25 1.4-.25 1.4 0 1.4 1.1-.35-.1-.65-.1-1.5 0-2.3.6-.8.65-.8 1.7 0 .95.55 1.45.6.5 1.6.5.55 0 1.05-.2t.7-.55q.05.3.3.55.3.2.6.2t.5-.05q.2-.1.4-.4-.5-.3-.5-1.55v-1.35m-2.8 2.2q-.95 0-.95-.85 0-1.15 1.75-1.15.15 0 .55.1v.6q0 1.3-1.35 1.3m15.45 6.75H77.6v1.25h.8v5.05h1.45v-6.3m-.7-2.4q-.35 0-.6.25t-.25.6q0 .35.25.6t.6.25q.35 0 .6-.25t.25-.6q0-.35-.25-.6t-.6-.25m-4.85-7.15q0-1.2-.65-1.85-.65-.7-1.75-.7-1.2 0-1.8.7l-.25-.6H68.8v6.3h1.45v-4.55q.2-.25.6-.45.35-.15.65-.15.7 0 1 .35.35.35.35 1.15v3.65h1.45v-3.85m4.5-1.3q.85 0 1.4.45l.6-1.1q-.8-.6-1.9-.6-1.6 0-2.5.9-.9.95-.9 2.4 0 1.5.8 2.35.85.85 2.3.85.65 0 1.15-.1.45-.1 1.1-.5l-.55-1.15q-.6.55-1.4.55-1.9 0-1.9-2 0-.95.5-1.5.45-.55 1.3-.55M54.3 88.1q.35.35.35 1.15v3.65h1.45v-3.85q0-1.2-.65-1.85-.65-.7-1.75-.7-1.2 0-1.8.7l-.25-.6H50.6v6.3h1.45v-4.55q.2-.25.6-.45.35-.15.65-.15.7 0 1 .35M49 89.65q0-1.85-.65-2.5-.7-.65-2.1-.65-1.05 0-1.8.35l.3 1.15q.55-.25 1.4-.25 1.4 0 1.4 1.1-.35-.1-.65-.1-1.5 0-2.3.6-.8.65-.8 1.7 0 .95.55 1.45.6.5 1.6.5.55 0 1.05-.2t.7-.55q.05.3.3.55.3.2.6.2t.5-.05q.2-.1.4-.4-.5-.3-.5-1.55v-1.35m-1.45.3v.6q0 1.3-1.35 1.3-.95 0-.95-.85 0-1.15 1.75-1.15.15 0 .55.1m12-3.35H57.3v1.25h.8v5.05h1.45v-6.3m-.7-2.4q-.35 0-.6.25t-.25.6q0 .35.25.6t.6.25q.35 0 .6-.25t.25-.6q0-.35-.25-.6t-.6-.25M51.1 79v-1.35q0-1.85-.65-2.5-.7-.65-2.1-.65-1.05 0-1.8.35l.3 1.15q.55-.25 1.4-.25 1.4 0 1.4 1.1-.35-.1-.65-.1-1.5 0-2.3.6-.8.65-.8 1.7 0 .95.55 1.45.6.5 1.6.5.55 0 1.05-.2t.7-.55q.05.3.3.55.3.2.6.2t.5-.05q.2-.1.4-.4-.5-.3-.5-1.55m-1.45-1.05v.6q0 1.3-1.35 1.3-.95 0-.95-.85 0-1.15 1.75-1.15.15 0 .55.1m7.1-2.55q-.9.95-.9 2.4 0 1.5.8 2.35.85.85 2.3.85.65 0 1.15-.1.45-.1 1.1-.5l-.55-1.15q-.6.55-1.4.55-1.9 0-1.9-2 0-.95.5-1.5.45-.55 1.3-.55.85 0 1.4.45l.6-1.1q-.8-.6-1.9-.6-1.6 0-2.5.9m-2.35-3.45l-1.45.35v7.35q0 1.35 1 1.35.8 0 1.15-.65-.7-.2-.7-1.35v-7.05m-5.25-9.1l.3 1.15q.55-.25 1.4-.25 1.4 0 1.4 1.1-.35-.1-.65-.1-1.5 0-2.3.6-.8.65-.8 1.7 0 .95.55 1.45.6.5 1.6.5.55 0 1.05-.2t.7-.55q.05.3.3.55.3.2.6.2t.5-.05q.2-.1.4-.4-.5-.3-.5-1.55v-1.35q0-1.85-.65-2.5-.7-.65-2.1-.65-1.05 0-1.8.35m2.55 3q.15 0 .55.1v.6q0 1.3-1.35 1.3-.95 0-.95-.85 0-1.15 1.75-1.15m-8.4-5.9l-1.5.35v8.6h1.5v-4.5q.15-.25.5-.45.4-.2.75-.2.6 0 .95.35t.35.95v3.85h1.45v-3.85q0-1.25-.65-1.9-.65-.65-1.8-.65-1 0-1.55.5v-3.05m8.45-5.75q.1-.55.1-.8 0-1.25-.8-2.1-.85-.8-2.2-.8-1.3 0-2.2.95-.9.9-.9 2.4t.8 2.35q.85.8 2.3.8 1.5 0 2.3-.6l-.55-1.15q-.55.55-1.55.55-.8 0-1.25-.4-.5-.45-.55-1.2h4.5m-2.9-2.45q1.4 0 1.55 1.35h-3.1q.3-1.35 1.55-1.35m6.9 0q.7 0 1 .35.35.35.35 1.15v3.65h1.45v-3.85q0-1.2-.65-1.85-.65-.7-1.75-.7-1.2 0-1.8.7l-.25-.6h-1.05v6.3h1.45v-4.55q.2-.25.6-.45.35-.15.65-.15M60.8 68.9v-8.95l-1.45.35v2.5q-.6-.3-1.3-.3-1.3 0-2.2.95-.85.95-.85 2.4 0 1.5.75 2.35.75.8 2.05.8.5 0 .9-.15.45-.15.65-.35v.4h1.45m-2.45-5.15q.5 0 1 .35v3.3q-.1.15-.4.25-.35.15-.55.15-1.9 0-1.9-2 0-1 .5-1.5.45-.55 1.35-.55m9.5 2q0-1.5-.8-2.4-.75-.85-2.2-.85-1.35 0-2.2.9-.8.9-.8 2.35 0 1.5.8 2.4.75.85 2.2.85 1.4 0 2.2-.85.8-.9.8-2.4m-1.5 0q0 1-.4 1.55-.4.5-1.1.5-1.5 0-1.5-2.05 0-.95.4-1.5t1.1-.55q1.5 0 1.5 2.05m4.05-1.05q-.25-.2-.25-.4 0-.65.75-.65.9 0 1.35.45l.45-1.15q-.9-.45-1.85-.45-1 0-1.6.45-.6.45-.6 1.3 0 1.2 1.6 1.85.75.35 1 .55.25.25.25.6 0 .6-.85.6-.8 0-1.45-.5l-.55 1.15q.6.3 1 .4.35.1 1 .1 1.1 0 1.75-.5.65-.5.65-1.35 0-.65-.4-1.15-.35-.45-1.15-.75-.85-.35-1.1-.55m1.65-11.05q0-1.85-.65-2.5-.7-.65-2.1-.65-1.05 0-1.8.35l.3 1.15q.55-.25 1.4-.25 1.4 0 1.4 1.1-.35-.1-.65-.1-1.5 0-2.3.6-.8.65-.8 1.7 0 .95.55 1.45.6.5 1.6.5.55 0 1.05-.2t.7-.55q.05.3.3.55.3.2.6.2t.5-.05q.2-.1.4-.4-.5-.3-.5-1.55v-1.35m-1.45.3v.6q0 1.3-1.35 1.3-.95 0-.95-.85 0-1.15 1.75-1.15.15 0 .55.1m6 .15v-1.35h-3.1v1.35h3.1M35.5 77.75q0 1.5.8 2.4.75.85 2.2.85 1.4 0 2.2-.85.8-.9.8-2.4t-.8-2.4q-.75-.85-2.2-.85-1.35 0-2.2.9-.8.9-.8 2.35m4.1 1.55q-.4.5-1.1.5-1.5 0-1.5-2.05 0-.95.4-1.5t1.1-.55q1.5 0 1.5 2.05 0 1-.4 1.55m-5.15-7.35L33 72.3v2.5q-.6-.3-1.3-.3-1.3 0-2.2.95-.85.95-.85 2.4 0 1.5.75 2.35.75.8 2.05.8.5 0 .9-.15.45-.15.65-.35v.4h1.45v-8.95M33 79.4q-.1.15-.4.25-.35.15-.55.15-1.9 0-1.9-2 0-1 .5-1.5.45-.55 1.35-.55.5 0 1 .35v3.3m7.05-12.15q-.6.55-1.4.55-1.9 0-1.9-2 0-.95.5-1.5.45-.55 1.3-.55.85 0 1.4.45l.6-1.1q-.8-.6-1.9-.6-1.6 0-2.5.9-.9.95-.9 2.4 0 1.5.8 2.35.85.85 2.3.85.65 0 1.15-.1.45-.1 1.1-.5l-.55-1.15m-10.8-3.8q-.9.9-.9 2.4t.8 2.35q.85.8 2.3.8 1.5 0 2.3-.6l-.55-1.15q-.55.55-1.55.55-.8 0-1.25-.4-.5-.45-.55-1.2h4.5q.1-.55.1-.8 0-1.25-.8-2.1-.85-.8-2.2-.8-1.3 0-2.2.95m2.2.3q1.4 0 1.55 1.35h-3.1q.3-1.35 1.55-1.35m-4.4-2.5q.25 0 .75.15l.4-1.1q-.75-.25-1.25-.25-1 0-1.65.7-.65.7-.65 1.85h-.95v1.25h.9v5.05h1.5v-5.05h1.25V62.6h-1.3v-.15q0-.5.3-.85t.7-.35m-.75-8.5q0-1.05-.55-1.65-.6-.6-1.65-.6-.5 0-1 .2-.45.2-.75.5-.65-.7-1.9-.7-.95 0-1.55.7l-.3-.6h-1v6.3h1.45v-4.5q.15-.25.5-.45.3-.2.6-.2.5 0 .8.25.25.3.25.75v4.15h1.5v-4.55q.1-.25.4-.4.3-.2.65-.2 1.1 0 1.1 1.2v3.95h1.45v-4.15m4.95.1q-.35-.1-.65-.1-1.5 0-2.3.6-.8.65-.8 1.7 0 .95.55 1.45.6.5 1.6.5.55 0 1.05-.2t.7-.55q.05.3.3.55.3.2.6.2t.5-.05q.2-.1.4-.4-.5-.3-.5-1.55v-1.35q0-1.85-.65-2.5-.7-.65-2.1-.65-1.05 0-1.8.35l.3 1.15q.55-.25 1.4-.25 1.4 0 1.4 1.1m0 1.1v.6q0 1.3-1.35 1.3-.95 0-.95-.85 0-1.15 1.75-1.15.15 0 .55.1m4.5-1.6q.2-.25.6-.45.35-.15.65-.15.7 0 1 .35.35.35.35 1.15v3.65h1.45v-3.85q0-1.2-.65-1.85-.65-.7-1.75-.7-1.2 0-1.8.7l-.25-.6H34.3v6.3h1.45v-4.55m4.05-37q-.75-.85-2.2-.85-1.35 0-2.2.9-.8.9-.8 2.35 0 1.5.8 2.4.75.85 2.2.85 1.4 0 2.2-.85.8-.9.8-2.4t-.8-2.4m-3.7 2.4q0-.95.4-1.5t1.1-.55q1.5 0 1.5 2.05 0 1-.4 1.55-.4.5-1.1.5-1.5 0-1.5-2.05m-7.65-4.3q-1.15 1.3-1.15 3.2 0 2.05 1 3.2 1 1.2 2.8 1.2 1.8 0 2.75-1l-.7-1.2q-.7.85-1.9.85-1.1 0-1.7-.8-.65-.8-.65-2.2 0-1.4.7-2.25.65-.95 1.75-.95 1.15 0 1.65.55l.6-1.3q-.85-.6-2.35-.6-1.7 0-2.8 1.3m33.2 34.5l-1.5.35v8.6h1.5v-4.5q.15-.25.5-.45.4-.2.75-.2.6 0 .95.35t.35.95v3.85h1.45v-3.85q0-1.25-.65-1.9-.65-.65-1.8-.65-1 0-1.55.5v-3.05m18.7-6.2q0-1.5-.8-2.4-.75-.85-2.2-.85-1.35 0-2.2.9-.8.9-.8 2.35 0 1.5.8 2.4.75.85 2.2.85 1.4 0 2.2-.85.8-.9.8-2.4m-1.5 0q0 1-.4 1.55-.4.5-1.1.5-1.5 0-1.5-2.05 0-.95.4-1.5t1.1-.55q1.5 0 1.5 2.05M64.6 38.6v1.25h.8v5.05h1.45v-6.3H64.6m4.5.8q-.9.95-.9 2.4 0 1.5.8 2.35.85.85 2.3.85.65 0 1.15-.1.45-.1 1.1-.5L73 43.25q-.6.55-1.4.55-1.9 0-1.9-2 0-.95.5-1.5.45-.55 1.3-.55.85 0 1.4.45l.6-1.1q-.8-.6-1.9-.6-1.6 0-2.5.9m-3.55-2.95q-.25.25-.25.6t.25.6q.25.25.6.25t.6-.25q.25-.25.25-.6t-.25-.6q-.25-.25-.6-.25t-.6.25m.9-8.35l.45-1.15q-.9-.45-1.85-.45-1 0-1.6.45-.6.45-.6 1.3 0 1.2 1.6 1.85.75.35 1 .55.25.25.25.6 0 .6-.85.6-.8 0-1.45-.5l-.55 1.15q.6.3 1 .4.35.1 1 .1 1.1 0 1.75-.5.65-.5.65-1.35 0-.65-.4-1.15-.35-.45-1.15-.75-.85-.35-1.1-.55-.25-.2-.25-.4 0-.65.75-.65.9 0 1.35.45m6.75 1.55q0-1.85-.65-2.5-.7-.65-2.1-.65-1.05 0-1.8.35l.3 1.15q.55-.25 1.4-.25 1.4 0 1.4 1.1-.35-.1-.65-.1-1.5 0-2.3.6-.8.65-.8 1.7 0 .95.55 1.45.6.5 1.6.5.55 0 1.05-.2t.7-.55q.05.3.3.55.3.2.6.2t.5-.05q.2-.1.4-.4-.5-.3-.5-1.55v-1.35m-2 .2q.15 0 .55.1v.6q0 1.3-1.35 1.3-.95 0-.95-.85 0-1.15 1.75-1.15m8.5-2.75q-.8-.6-1.9-.6-1.6 0-2.5.9-.9.95-.9 2.4 0 1.5.8 2.35.85.85 2.3.85.65 0 1.15-.1.45-.1 1.1-.5l-.55-1.15q-.6.55-1.4.55-1.9 0-1.9-2 0-.95.5-1.5.45-.55 1.3-.55.85 0 1.4.45l.6-1.1M59.75 39.8h.7V43q0 .95.5 1.5.5.5 1.45.5t1.45-.15V43.5q-.45.3-.95.3-.55 0-.75-.3-.2-.3-.2-.95V39.8h1.7v-1.2h-1.7v-1.8l-1.5.55v1.25h-.7v1.2m-1.45.3l.45-1.15q-.9-.45-1.85-.45-1 0-1.6.45-.6.45-.6 1.3 0 1.2 1.6 1.85.75.35 1 .55.25.25.25.6 0 .6-.85.6-.8 0-1.45-.5l-.55 1.15q.6.3 1 .4.35.1 1 .1 1.1 0 1.75-.5.65-.5.65-1.35 0-.65-.4-1.15-.35-.45-1.15-.75-.85-.35-1.1-.55-.25-.2-.25-.4 0-.65.75-.65.9 0 1.35.45m-15.2 8.7l-1.5.55v1.25h-.7v1.2h.7V55q0 .95.5 1.5.5.5 1.45.5t1.45-.15V55.5q-.45.3-.95.3-.55 0-.75-.3-.2-.3-.2-.95V51.8h1.7v-1.2h-1.7v-1.8m.75-7q0-3.3-3-3.3-.8 0-1.35.55v-.45H38v8.75h1.5v-2.6q.55.25 1.25.25 1.45 0 2.25-.8.85-.85.85-2.4m-1.95-1.6q.4.45.4 1.55 0 1.05-.4 1.55-.45.5-1.5.5-.5 0-.9-.35v-3.3q.4-.4.95-.4 1 0 1.45.45m7.05-1.35l.3 1.15q.55-.25 1.4-.25 1.4 0 1.4 1.1-.35-.1-.65-.1-1.5 0-2.3.6-.8.65-.8 1.7 0 .95.55 1.45.6.5 1.6.5.55 0 1.05-.2t.7-.55q.05.3.3.55.3.2.6.2t.5-.05q.2-.1.4-.4-.5-.3-.5-1.55v-1.35q0-1.85-.65-2.5-.7-.65-2.1-.65-1.05 0-1.8.35m2.55 3q.15 0 .55.1v.6q0 1.3-1.35 1.3-.95 0-.95-.85 0-1.15 1.75-1.15m-4.65-5.9l-1.45.35v7.35q0 1.35 1 1.35.8 0 1.15-.65-.7-.2-.7-1.35v-7.05m1.2-5.75q.1-.55.1-.8 0-1.25-.8-2.1-.85-.8-2.2-.8-1.3 0-2.2.95-.9.9-.9 2.4t.8 2.35q.85.8 2.3.8 1.5 0 2.3-.6l-.55-1.15q-.55.55-1.55.55-.8 0-1.25-.4-.5-.45-.55-1.2h4.5m-4.45-1.1q.3-1.35 1.55-1.35 1.4 0 1.55 1.35h-3.1m8.9 6.95h-1.45l-1 1.75h1.15l1.3-1.75m5-8.95q-.6-.6-1.65-.6-.5 0-1 .2-.45.2-.75.5-.65-.7-1.9-.7-.95 0-1.55.7l-.3-.6h-1v6.3h1.45v-4.5q.15-.25.5-.45.3-.2.6-.2.5 0 .8.25.25.3.25.75v4.15h1.5v-4.55q.1-.25.4-.4.3-.2.65-.2 1.1 0 1.1 1.2v3.95h1.45v-4.15q0-1.05-.55-1.65m-.75-12.5l-.25.4q-.65-.5-1.5-.5-1.4 0-2.25.9-.9.9-.9 2.4 0 1.55.75 2.4.8.8 2.15.8.95 0 1.45-.3v2.65h1.5V14.6h-.95m-3.4 3.2q0-.9.5-1.5.5-.55 1.35-.55.65 0 1 .35v3.4q-.4.3-1.05.3-1.8 0-1.8-2m-5.4-3.3q-1.35 0-2.2.9-.8.9-.8 2.35 0 1.5.8 2.4.75.85 2.2.85 1.4 0 2.2-.85.8-.9.8-2.4t-.8-2.4q-.75-.85-2.2-.85m-1.5 3.25q0-.95.4-1.5t1.1-.55q1.5 0 1.5 2.05 0 1-.4 1.55-.4.5-1.1.5-1.5 0-1.5-2.05m-2.95-5.8l-1.45.35v7.35q0 1.35 1 1.35.8 0 1.15-.65-.7-.2-.7-1.35v-7.05m21.15 2.65H63.2v4.35q-.15.35-.6.6-.4.25-.9.25-1.1 0-1.1-1.2v-4h-1.45v4.1q0 2.3 2.2 2.3.45 0 1-.15.5-.2.85-.45v.5h1.45v-6.3m4.3-.1q-1.3 0-2.2.95-.9.9-.9 2.4t.8 2.35q.85.8 2.3.8 1.5 0 2.3-.6l-.55-1.15q-.55.55-1.55.55-.8 0-1.25-.4-.5-.45-.55-1.2h4.5q.1-.55.1-.8 0-1.25-.8-2.1-.85-.8-2.2-.8m0 1.25q1.4 0 1.55 1.35h-3.1q.3-1.35 1.55-1.35M84.8 88.1l.45-1.15q-.9-.45-1.85-.45-1 0-1.6.45-.6.45-.6 1.3 0 1.2 1.6 1.85.75.35 1 .55.25.25.25.6 0 .6-.85.6-.8 0-1.45-.5l-.55 1.15q.6.3 1 .4.35.1 1 .1 1.1 0 1.75-.5.65-.5.65-1.35 0-.65-.4-1.15-.35-.45-1.15-.75-.85-.35-1.1-.55-.25-.2-.25-.4 0-.65.75-.65.9 0 1.35.45m4.3 4.05q0-.45-.35-.75-.3-.3-.75-.3-.4 0-.7.3-.35.3-.35.75 0 .4.35.75.3.3.7.3.45 0 .75-.3.35-.35.35-.75M87.65 78.2q.1-.55.1-.8 0-1.25-.8-2.1-.85-.8-2.2-.8-1.3 0-2.2.95-.9.9-.9 2.4t.8 2.35q.85.8 2.3.8 1.5 0 2.3-.6l-.55-1.15q-.55.55-1.55.55-.8 0-1.25-.4-.5-.45-.55-1.2h4.5m-4.45-1.1q.3-1.35 1.55-1.35 1.4 0 1.55 1.35h-3.1m17.95 2.3q-.5-.45-.55-1.2h4.5q.1-.55.1-.8 0-1.25-.8-2.1-.85-.8-2.2-.8-1.3 0-2.2.95-.9.9-.9 2.4t.8 2.35q.85.8 2.3.8 1.5 0 2.3-.6l-.55-1.15q-.55.55-1.55.55-.8 0-1.25-.4m1.05-3.65q1.4 0 1.55 1.35h-3.1q.3-1.35 1.55-1.35m-4.15-3.8l-1.45.35v2.5q-.6-.3-1.3-.3-1.3 0-2.2.95-.85.95-.85 2.4 0 1.5.75 2.35.75.8 2.05.8.5 0 .9-.15.45-.15.65-.35v.4h1.45v-8.95M96.6 79.4q-.1.15-.4.25-.35.15-.55.15-1.9 0-1.9-2 0-1 .5-1.5.45-.55 1.35-.55.5 0 1 .35v3.3m1.75-13.65q0-1.5-.8-2.4-.75-.85-2.2-.85-1.35 0-2.2.9-.8.9-.8 2.35 0 1.5.8 2.4.75.85 2.2.85 1.4 0 2.2-.85.8-.9.8-2.4m-1.5 0q0 1-.4 1.55-.4.5-1.1.5-1.5 0-1.5-2.05 0-.95.4-1.5t1.1-.55q1.5 0 1.5 2.05M83.5 65.4q0-1.25-.8-2.1-.85-.8-2.2-.8-1.3 0-2.2.95-.9.9-.9 2.4t.8 2.35q.85.8 2.3.8 1.5 0 2.3-.6l-.55-1.15q-.55.55-1.55.55-.8 0-1.25-.4-.5-.45-.55-1.2h4.5q.1-.55.1-.8m-4.55-.3q.3-1.35 1.55-1.35 1.4 0 1.55 1.35h-3.1m4.7-11.35q0-1.5-.8-2.4-.75-.85-2.2-.85-1.35 0-2.2.9-.8.9-.8 2.35 0 1.5.8 2.4.75.85 2.2.85 1.4 0 2.2-.85.8-.9.8-2.4m-1.5 0q0 1-.4 1.55-.4.5-1.1.5-1.5 0-1.5-2.05 0-.95.4-1.5t1.1-.55q1.5 0 1.5 2.05m6.35-2.8q-.9-.45-1.85-.45-1 0-1.6.45-.6.45-.6 1.3 0 1.2 1.6 1.85.75.35 1 .55.25.25.25.6 0 .6-.85.6-.8 0-1.45-.5l-.55 1.15q.6.3 1 .4.35.1 1 .1 1.1 0 1.75-.5.65-.5.65-1.35 0-.65-.4-1.15-.35-.45-1.15-.75-.85-.35-1.1-.55-.25-.2-.25-.4 0-.65.75-.65.9 0 1.35.45l.45-1.15m3.3 10.45l.4-1.1q-.75-.25-1.25-.25-1 0-1.65.7-.65.7-.65 1.85h-.95v1.25h.9v5.05h1.5v-5.05h1.25V62.6h-1.3v-.15q0-.5.3-.85t.7-.35q.25 0 .75.15m11.35 2.6l.65-1.25q-.4-.25-1.15-.25-1.05 0-1.65.7v-.6h-1.45v6.3H101v-3.55q0-.7.4-1.15.4-.45.9-.45t.85.25m3.5-.25q1.4 0 1.4 1.1-.35-.1-.65-.1-1.5 0-2.3.6-.8.65-.8 1.7 0 .95.55 1.45.6.5 1.6.5.55 0 1.05-.2t.7-.55q.05.3.3.55.3.2.6.2t.5-.05q.2-.1.4-.4-.5-.3-.5-1.55v-1.35q0-1.85-.65-2.5-.7-.65-2.1-.65-1.05 0-1.8.35l.3 1.15q.55-.25 1.4-.25m.85 2.1q.15 0 .55.1v.6q0 1.3-1.35 1.3-.95 0-.95-.85 0-1.15 1.75-1.15m-5.8-11.65h4.5q.1-.55.1-.8 0-1.25-.8-2.1-.85-.8-2.2-.8-1.3 0-2.2.95-.9.9-.9 2.4t.8 2.35q.85.8 2.3.8 1.5 0 2.3-.6l-.55-1.15q-.55.55-1.55.55-.8 0-1.25-.4-.5-.45-.55-1.2m3.15-1.1h-3.1q.3-1.35 1.55-1.35 1.4 0 1.55 1.35m11.35-.35q0-1.05-.55-1.65-.6-.6-1.65-.6-.5 0-1 .2-.45.2-.75.5-.65-.7-1.9-.7-.95 0-1.55.7l-.3-.6h-1v6.3h1.45v-4.5q.15-.25.5-.45.3-.2.6-.2.5 0 .8.25.25.3.25.75v4.15h1.5v-4.55q.1-.25.4-.4.3-.2.65-.2 1.1 0 1.1 1.2v3.95h1.45v-4.15m-21.25-4.8l-1.5.35V57h.85l.35-.45q.6.45 1.5.45 1.45 0 2.3-.9.85-.9.85-2.5 0-1.35-.85-2.2-.85-.9-2.25-.9-.7 0-1.25.35v-2.9m2.8 5.7q0 1.1-.45 1.6-.45.55-1.5.55-.55 0-.85-.4v-3.3q.35-.35 1-.35 1.8 0 1.8 1.9m-13-13.55l.45-1.15q-.9-.45-1.85-.45-1 0-1.6.45-.6.45-.6 1.3 0 1.2 1.6 1.85.75.35 1 .55.25.25.25.6 0 .6-.85.6-.8 0-1.45-.5l-.55 1.15q.6.3 1 .4.35.1 1 .1 1.1 0 1.75-.5.65-.5.65-1.35 0-.65-.4-1.15-.35-.45-1.15-.75-.85-.35-1.1-.55-.25-.2-.25-.4 0-.65.75-.65.9 0 1.35.45m6.05-.65q-.9.9-.9 2.4t.8 2.35q.85.8 2.3.8 1.5 0 2.3-.6l-.55-1.15q-.55.55-1.55.55-.8 0-1.25-.4-.5-.45-.55-1.2h4.5q.1-.55.1-.8 0-1.25-.8-2.1-.85-.8-2.2-.8-1.3 0-2.2.95m.65 1.65q.3-1.35 1.55-1.35 1.4 0 1.55 1.35h-3.1m-7.9-14.6q-1.35 0-2.2.9-.8.9-.8 2.35 0 1.5.8 2.4.75.85 2.2.85 1.4 0 2.2-.85.8-.9.8-2.4t-.8-2.4q-.75-.85-2.2-.85m-1.5 3.25q0-.95.4-1.5t1.1-.55q1.5 0 1.5 2.05 0 1-.4 1.55-.4.5-1.1.5-1.5 0-1.5-2.05m9.7 1.4q0-.65-.4-1.15-.35-.45-1.15-.75-.85-.35-1.1-.55-.25-.2-.25-.4 0-.65.75-.65.9 0 1.35.45l.45-1.15q-.9-.45-1.85-.45-1 0-1.6.45-.6.45-.6 1.3 0 1.2 1.6 1.85.75.35 1 .55.25.25.25.6 0 .6-.85.6-.8 0-1.45-.5l-.55 1.15q.6.3 1 .4.35.1 1 .1 1.1 0 1.75-.5.65-.5.65-1.35m.95-18.1q0-.35-.25-.6t-.6-.25q-.35 0-.6.25t-.25.6q0 .35.25.6t.6.25q.35 0 .6-.25t.25-.6m4.75 4.65l2.45-3.1h-1.7l-1.45 1.95-1.35-1.95h-1.7l2.25 3.1-2.4 3.2h1.7l1.45-2.05 1.6 2.05h1.8l-2.65-3.2m-15.9 2.45q.8-.9.8-2.4t-.8-2.4q-.75-.85-2.2-.85-1.35 0-2.2.9-.8.9-.8 2.35 0 1.5.8 2.4.75.85 2.2.85 1.4 0 2.2-.85m-3.7-2.4q0-.95.4-1.5t1.1-.55q1.5 0 1.5 2.05 0 1-.4 1.55-.4.5-1.1.5-1.5 0-1.5-2.05M90.3 14.6v1.25h.8v5.05h1.45v-6.3H90.3m-1.45-2.65l-1.45.35v7.35q0 1.35 1 1.35.8 0 1.15-.65-.7-.2-.7-1.35v-7.05m16.9 3.4q-.75-.85-2.2-.85-1.35 0-2.2.9-.8.9-.8 2.35 0 1.5.8 2.4.75.85 2.2.85 1.4 0 2.2-.85.8-.9.8-2.4t-.8-2.4m-2.2.35q1.5 0 1.5 2.05 0 1-.4 1.55-.4.5-1.1.5-1.5 0-1.5-2.05 0-.95.4-1.5t1.1-.55z" id="c"/><path id="b" stroke="#8CA8B8" stroke-linejoin="round" stroke-linecap="round" fill="none" d="M119.8.85q4.1 0 7 2.95 2.95 2.9 2.95 7v81.6q-.1 3.95-2.95 6.75-2.9 2.95-7 2.95H11.15q-4.1 0-7-2.95-2.8-2.8-2.9-6.75V10.8q0-4.1 2.9-7 2.9-2.95 7-2.95h108.6"/></defs><g><use xlink:href="#a"/><use xlink:href="#b"/></g><use xlink:href="#c"/></svg>