
<svg xmlns="http://www.w3.org/2000/svg" version="1.1" xmlns:xlink="http://www.w3.org/1999/xlink" preserveAspectRatio="none" x="0px" y="0px" width="133px" height="106px" viewBox="0 0 133 106">
<defs>
<linearGradient id="Gradient_1" gradientUnits="userSpaceOnUse" x1="1359.5" y1="313.875" x2="1359.5" y2="400.82500000000005" spreadMethod="pad">
<stop  offset="0%" stop-color="#000000"/>

<stop  offset="100%" stop-color="#AEA191"/>

<stop  offset="100%" stop-color="#FFFFFF"/>
</linearGradient>

<filter id="Filter_1" x="-20%" y="-20%" width="140%" height="140%" color-interpolation-filters="sRGB">
<feFlood flood-color="#000000" flood-opacity="1" in="SourceGraphic" result="result1"/>

<feComposite in2="SourceGraphic" in="result1" operator="in" result="result2"/>

<feGaussianBlur in="result2" stdDeviation="2.3333333333333335,2.3333333333333335" result="result3"/>

<feOffset dx="0" dy="0" in="result3" result="result4"/>

<feComposite in2="result4" in="SourceGraphic" operator="over" result="result5"/>
</filter>

<filter id="Filter_2" x="-21.535627431659297%" y="-20%" width="143.0712548633186%" height="140%" color-interpolation-filters="sRGB">
<feGaussianBlur in="SourceGraphic" stdDeviation="1.6666666666666667,1.6666666666666667" result="result1"/>

<feColorMatrix in="result1" type="matrix" values="0 0 0 0 0 0 0 0 0 0 0 0 0 0 0 0 0 0 0.55 0" result="result2"/>
</filter>

<g id="Layer0_0_MEMBER_0_FILL">
<path fill="#FF0000" stroke="none" d="
M 605.25 635.35
L 605.2 635.35 496.6 635.35
Q 492.5 635.35 489.6 638.3 486.7 641.2 486.7 645.3
L 486.7 726.9
Q 486.8 730.85 489.6 733.65 492.5 736.6 496.6 736.6
L 605.25 736.6
Q 609.35 736.6 612.25 733.65 615.1 730.85 615.2 726.9
L 615.2 645.3
Q 615.2 641.2 612.25 638.3 609.35 635.35 605.25 635.35 Z"/>
</g>

<g id="S_mbolo_7_0_Layer0_0_FILL">
<path fill="#FFFFFF" stroke="none" d="
M 605.5 644
Q 601.8 640.85 596.6 640.85
L 504.25 640.85
Q 499.05 640.85 495.4 644 491.7 647.1 491.7 651.55
L 491.7 718.25
Q 491.7 722.65 495.4 725.8 499.05 728.95 504.25 728.95
L 596.6 728.95
Q 601.8 728.95 605.5 725.8 609.15 722.65 609.15 718.25
L 609.15 651.55
Q 609.15 647.1 605.5 644 Z"/>
</g>

<g id="sanitario_0_Layer0_0_FILL">
<path fill="#9B907E" stroke="none" d="
M 151.95 210
Q 152.55 207.45 153.15 204.85
L 126.35 269.7
Q 133.05 260.3 136.75 253 136.85 252.8 136.95 252.6 145.85 234.4 151.95 210 Z"/>

<path fill="#DEC18A" stroke="none" d="
M 21.2 0
L 0 0
Q 10.4 51.35 39.45 98 69.25 145.95 118.75 189 124.05 193.6 129.6 198.2
L 145.85 182.7
Q 144.75 181.8 143.7 180.9 96.8 141.55 66.65 98 34.35 51.4 21.2 0
M 550.8 0
Q 536.35 49 501.75 98 472.5 139.45 428.75 180.9 427.9 181.7 427.05 182.55
L 436.2 200.9 438.35 200.9
Q 444.8 194.95 450.9 189 497.8 143.5 527.25 98 558.95 49 570.5 0
L 550.8 0 Z"/>

<path fill="#524733" stroke="none" d="
M 389.45 199.95
Q 391.85 205 392.6 210 394 219.5 389.4 228.95
L 179.9 228.95
Q 175.3 219.5 176.7 210 177.45 205 179.9 199.95
L 177.4 199.95
Q 174.95 205 174.2 210 172.65 219.75 177.4 229.5
L 391.95 229.5
Q 396.7 219.75 395.2 210 394.4 205 391.95 199.95
L 389.45 199.95 Z"/>

<path fill="#E5D8C3" stroke="none" d="
M 392.6 210
Q 391.85 205 389.45 199.95
L 179.9 199.95
Q 177.45 205 176.7 210 175.3 219.5 179.9 228.95
L 389.4 228.95
Q 394 219.5 392.6 210 Z"/>

<path fill="#8E7E6E" stroke="none" d="
M 429.85 229.85
L 426.7 242.8
Q 428.9 248.15 431.45 253 433.2 256.4 435.1 259.55 438.35 264.9 446.4 274.3
L 429.85 229.85 Z"/>

<path fill="#F3E5CF" stroke="none" d="
M 412.2 200.9
Q 412.1 200.45 412.05 199.95
L 391.95 199.95
Q 394.4 205 395.2 210 396.7 219.75 391.95 229.5
L 177.4 229.5
Q 172.65 219.75 174.2 210 174.95 205 177.4 199.95
L 157.3 199.95
Q 156.2 205.1 155 210 149.05 233.85 140.4 251.65 140.05 252.3 139.7 253 134.45 263.2 123.35 277.45 76.95 355.25 77.9 446.7 77.95 455.35 78.5 463.8 84.15 553.9 140.15 617.6 201.4 687.15 287.2 685.9 373.05 684.55 433.3 613 485.7 550.75 492.6 463.8 493.65 450.75 493.65 437.15 493.75 345.3 446.7 278.1 446.15 277.3 445.6 276.55 435.3 264.75 431.55 258.5 429.95 255.85 428.45 253 427 250.2 425.6 247.25 418.1 231 413.85 210 412.95 205.55 412.2 200.9
M 414.7 369.05
Q 415.1 370.8 415.45 372.6 416.25 376.55 417 380.55 422.4 410.5 422.25 442.35 419 455.55 419.9 460.2 420.8 464.85 420.8 466 416.4 496.15 402.3 521.85 394.25 536.15 383.2 549.1 344 594.7 287.45 595.8 263.65 596.05 242.8 588.4 224.9 581.75 209.3 569.3 199.75 561.7 191.05 551.95 178.35 537.75 169.65 521.75 155.6 496.25 151.8 465.9 150.3 455.2 150.3 443.85 150.2 435.75 151.15 428 153 399 157.8 370.8 163.5 338.45 183.5 314.9 202.3 291.1 224.4 290.05 247.75 288.9 274.45 288.55 287.3 288.4 300.1 288.65 326.05 289.7 348.55 292.2 369.95 294.4 388.8 318.25 407.95 340.4 414.7 369.05 Z"/>

<path fill="#BFA677" stroke="none" d="
M 415.45 372.6
Q 415.1 370.8 414.7 369.05 407.95 340.4 388.8 318.25 369.95 294.4 348.55 292.2 326.05 289.7 300.1 288.65 287.3 288.4 274.45 288.55 247.75 288.9 224.4 290.05 202.3 291.1 183.5 314.9 163.5 338.45 157.8 370.8 153 399 151.15 428 150.2 435.75 150.3 443.85 150.3 455.2 151.8 465.9 155.6 496.25 169.65 521.75 178.35 537.75 191.05 551.95 199.75 561.7 209.3 569.3 224.9 581.75 242.8 588.4 263.65 596.05 287.45 595.8 344 594.7 383.2 549.1 394.25 536.15 402.3 521.85 416.4 496.15 420.8 466 420.8 464.85 419.9 460.2 419 455.55 422.25 442.35 422.4 410.5 417 380.55 416.25 376.55 415.45 372.6
M 345.25 298.85
Q 365.55 300.95 383.45 323.6 401.6 344.6 408 371.8 408.4 373.45 408.75 375.15 409.5 378.9 410.2 382.7 415.3 411.1 415.2 441.3 412.1 453.85 412.95 458.25 413.8 462.65 413.8 463.75 409.65 492.35 396.25 516.75 388.6 530.3 378.15 542.6 340.95 585.85 287.3 586.9 264.7 587.15 244.95 579.85 227.95 573.55 213.15 561.75 204.1 554.55 195.85 545.3 183.8 531.8 175.55 516.65 162.2 492.45 158.6 463.65 157.2 453.5 157.2 442.75 157.1 435.05 158 427.7 159.75 400.2 164.3 373.45 169.7 342.75 188.7 320.4 206.5 297.85 227.5 296.85 249.65 295.75 274.95 295.4 287.15 295.25 299.3 295.5 323.9 296.5 345.25 298.85 Z"/>

<path fill="#AEA191" stroke="none" d="
M 410.2 382.7
Q 380 356.15 340.4 356.15 291.2 356.15 256.4 397.2 221.65 438.25 221.65 496.25 221.65 543.75 244.95 579.85 264.7 587.15 287.3 586.9 340.95 585.85 378.15 542.6 388.6 530.3 396.25 516.75 409.65 492.35 413.8 463.75 413.8 462.65 412.95 458.25 412.1 453.85 415.2 441.3 415.3 411.1 410.2 382.7
M 416.95 210
Q 416.05 205.55 415.3 200.9 415.2 200.45 415.15 199.95
L 412.05 199.95
Q 412.1 200.45 412.2 200.9 412.95 205.55 413.85 210 418.1 231 425.6 247.25 427 250.2 428.45 253 429.95 255.85 431.55 258.5 435.3 264.75 445.6 276.55 446.15 277.3 446.7 278.1 493.75 345.3 493.65 437.15 493.65 450.75 492.6 463.8 485.7 550.75 433.3 613 373.05 684.55 287.2 685.9 201.4 687.15 140.15 617.6 84.15 553.9 78.5 463.8 77.95 455.35 77.9 446.7 76.95 355.25 123.35 277.45 134.45 263.2 139.7 253 140.05 252.3 140.4 251.65 149.05 233.85 155 210 156.2 205.1 157.3 199.95
L 154.25 199.95
Q 153.7 202.45 153.15 204.85 152.55 207.45 151.95 210 145.85 234.4 136.95 252.6 136.85 252.8 136.75 253 133.05 260.3 126.35 269.7 123.25 274.05 119.5 278.85 71.95 358 72.95 451.05 73 459.85 73.55 468.45 79.35 560.1 136.7 624.9 199.4 695.65 287.3 694.4 375.2 693.05 436.9 620.25 490.55 556.9 497.6 468.45 498.7 455.15 498.7 441.3 498.8 347.85 450.6 279.5 450.05 278.7 449.5 277.9 447.85 276.05 446.4 274.3 438.35 264.9 435.1 259.55 433.2 256.4 431.45 253 428.9 248.15 426.7 242.8 420.6 228.15 416.95 210 Z"/>

<path fill="#857856" stroke="none" d="
M 408.75 375.15
Q 408.4 373.45 408 371.8 371.3 329.85 319.85 329.85 267.2 329.85 229.95 373.75 192.75 417.7 192.75 479.8 192.75 525.75 213.15 561.75 227.95 573.55 244.95 579.85 221.65 543.75 221.65 496.25 221.65 438.25 256.4 397.2 291.2 356.15 340.4 356.15 380 356.15 410.2 382.7 409.5 378.9 408.75 375.15 Z"/>

<path fill="#776540" stroke="none" d="
M 383.45 323.6
Q 365.55 300.95 345.25 298.85 323.9 296.5 299.3 295.5 287.15 295.25 274.95 295.4 249.65 295.75 227.5 296.85 206.5 297.85 188.7 320.4 169.7 342.75 164.3 373.45 159.75 400.2 158 427.7 157.1 435.05 157.2 442.75 157.2 453.5 158.6 463.65 162.2 492.45 175.55 516.65 183.8 531.8 195.85 545.3 204.1 554.55 213.15 561.75 192.75 525.75 192.75 479.8 192.75 417.7 229.95 373.75 267.2 329.85 319.85 329.85 371.3 329.85 408 371.8 401.6 344.6 383.45 323.6 Z"/>

<path fill="#685F42" stroke="none" d="
M 415.3 200.9
Q 416.05 205.55 416.95 210 420.6 228.15 426.7 242.8
L 429.85 229.85 419.1 200.9 415.3 200.9 Z"/>

<path fill="#DBCDBE" stroke="none" d="
M 427.05 182.55
L 426.2 180.9 147.75 180.9 145.85 182.7 129.6 198.2
Q 130.05 198.55 130.5 198.9
L 158.15 199.9 412.05 199.9 412.05 199.95 415.15 199.95
Q 415.2 200.45 415.3 200.9
L 419.1 200.9 436.2 200.9 427.05 182.55 Z"/>

<path fill="#B4A472" stroke="none" d="
M 501.75 98
Q 536.35 49 550.8 0
L 21.2 0
Q 34.35 51.4 66.65 98 96.8 141.55 143.7 180.9
L 147.75 180.9 426.2 180.9 428.75 180.9
Q 472.5 139.45 501.75 98 Z"/>
</g>

<g id="sanitario_0_Layer0_1_FILL">
<path fill="url(#Gradient_1)" stroke="none" d="
M 1359.5 313.9
Q 1347.9 313.9 1339.7 322.1 1331.5 330.3 1331.5 341.9
L 1331.5 372.85
Q 1331.5 384.45 1339.7 392.65 1347.9 400.85 1359.5 400.85 1371.1 400.85 1379.3 392.65 1387.5 384.45 1387.5 372.85
L 1387.5 341.9
Q 1387.5 330.3 1379.3 322.1 1371.1 313.9 1359.5 313.9 Z"/>
</g>

<g id="sanitario_0_Layer0_2_FILL">
<path fill="#FFFFFF" fill-opacity="0.33725490196078434" stroke="none" d="
M 1057.2 350.15
Q 1037.3 328.35 1009.15 328.35 981 328.35 961.05 350.15 941.15 372 941.15 402.85 941.15 433.7 961.05 455.5 981 477.35 1009.15 477.35 1037.3 477.35 1057.2 455.5 1077.15 433.7 1077.15 402.85 1077.15 372 1057.2 350.15 Z"/>
</g>

<path id="Layer0_0_MEMBER_0_1_STROKES" stroke="#8CA8B8" stroke-width="1" stroke-linejoin="round" stroke-linecap="round" fill="none" d="
M 605.25 635.35
Q 609.35 635.35 612.25 638.3 615.2 641.2 615.2 645.3
L 615.2 726.9
Q 615.1 730.85 612.25 733.65 609.35 736.6 605.25 736.6
L 496.6 736.6
Q 492.5 736.6 489.6 733.65 486.8 730.85 486.7 726.9
L 486.7 645.3
Q 486.7 641.2 489.6 638.3 492.5 635.35 496.6 635.35
L 605.2 635.35"/>
</defs>

<g transform="matrix( 1, 0, 0, 1, -484.45,-632.95) ">
<use xlink:href="#Layer0_0_MEMBER_0_FILL"/>

<use xlink:href="#Layer0_0_MEMBER_0_1_STROKES"/>
</g>

<g filter="url(#Filter_1)" transform="matrix( 1, 0, 0, 1, 0,0) ">
<g transform="matrix( 1, 0, 0, 1, 7.8,8.95) ">
<g transform="matrix( 1, 0, 0, 1, -491.7,-640.85) ">
<use xlink:href="#S_mbolo_7_0_Layer0_0_FILL"/>
</g>

<g transform="matrix( 0.102203369140625, 0, 0, 0.102203369140625, 57.2,42.95) ">
<g filter="url(#Filter_2)" transform="matrix( 9.784408569335938, 0, 0, 9.784408569335938, -636,-507.8) ">
<g transform="matrix( 0.1189422607421875, 0, 0, 0.1189422607421875, 31.75,11.6) ">
<g transform="matrix( 1, 0, 0, 1, 0,0) ">
<use xlink:href="#sanitario_0_Layer0_0_FILL"/>
</g>

<g transform="matrix( 1, 0, 0, 1, -1072.05,61.95) ">
<use xlink:href="#sanitario_0_Layer0_1_FILL"/>
</g>

<g transform="matrix( 1, 0, 0, 1, -721.4,25.5) ">
<use xlink:href="#sanitario_0_Layer0_2_FILL"/>
</g>
</g>
</g>

<g transform="matrix( 1.163848876953125, 0, 0, 1.163848876953125, -338.55,-413.85) ">
<g transform="matrix( 1, 0, 0, 1, 0,0) ">
<use xlink:href="#sanitario_0_Layer0_0_FILL"/>
</g>

<g transform="matrix( 1, 0, 0, 1, -1072.05,61.95) ">
<use xlink:href="#sanitario_0_Layer0_1_FILL"/>
</g>

<g transform="matrix( 1, 0, 0, 1, -721.4,25.5) ">
<use xlink:href="#sanitario_0_Layer0_2_FILL"/>
</g>
</g>
</g>
</g>
</g>
</svg>
