
<svg xmlns="http://www.w3.org/2000/svg" version="1.1" xmlns:xlink="http://www.w3.org/1999/xlink" preserveAspectRatio="none" x="0px" y="0px" width="129px" height="102px" viewBox="0 0 129 102">
<defs>
<g id="Layer0_0_FILL">
<path fill="#FFFF00" stroke="none" d="
M 128.75 10.35
Q 128.75 6.25 125.8 3.35 122.9 0.4 118.8 0.4
L 118.75 0.4 10.15 0.4
Q 6.05 0.4 3.15 3.35 0.25 6.25 0.25 10.35
L 0.25 91.95
Q 0.35 95.9 3.15 98.7 6.05 101.65 10.15 101.65
L 118.8 101.65
Q 122.9 101.65 125.8 98.7 128.65 95.9 128.75 91.95
L 128.75 10.35
M 106.65 17.55
Q 106.65 17.2 106.4 16.95 106.15 16.75 105.4 16.4 103.8 15.75 103.8 14.55 103.8 13.7 104.4 13.25 105 12.8 106 12.8 106.95 12.8 107.85 13.25
L 107.4 14.4
Q 106.95 13.95 106.05 13.95 105.3 13.95 105.3 14.6 105.3 14.8 105.55 15 105.8 15.2 106.65 15.55 107.45 15.85 107.8 16.3 108.2 16.8 108.2 17.45 108.2 18.3 107.55 18.8 106.9 19.3 105.8 19.3 105.15 19.3 104.8 19.2 104.4 19.1 103.8 18.8
L 104.35 17.65
Q 105 18.15 105.8 18.15 106.65 18.15 106.65 17.55
M 102.6 15.95
L 102.6 17.3
Q 102.6 18.55 103.1 18.85 102.9 19.15 102.7 19.25 102.5 19.3 102.2 19.3 101.9 19.3 101.6 19.1 101.35 18.85 101.3 18.55 101.1 18.9 100.6 19.1 100.1 19.3 99.55 19.3 98.55 19.3 97.95 18.8 97.4 18.3 97.4 17.35 97.4 16.3 98.2 15.65 99 15.05 100.5 15.05 100.8 15.05 101.15 15.15 101.15 14.05 99.75 14.05 98.9 14.05 98.35 14.3
L 98.05 13.15
Q 98.8 12.8 99.85 12.8 101.25 12.8 101.95 13.45 102.6 14.1 102.6 15.95
M 84.1 11.95
Q 83.85 11.7 83.85 11.35 83.85 11 84.1 10.75 84.35 10.5 84.7 10.5 85.05 10.5 85.3 10.75 85.55 11 85.55 11.35 85.55 11.7 85.3 11.95 85.05 12.2 84.7 12.2 84.35 12.2 84.1 11.95
M 87.4 10.6
L 88.85 10.25 88.85 17.3
Q 88.85 18.45 89.55 18.65 89.2 19.3 88.4 19.3 87.4 19.3 87.4 17.95
L 87.4 10.6
M 82.05 13.25
L 81.6 14.4
Q 81.15 13.95 80.25 13.95 79.5 13.95 79.5 14.6 79.5 14.8 79.75 15 80 15.2 80.85 15.55 81.65 15.85 82 16.3 82.4 16.8 82.4 17.45 82.4 18.3 81.75 18.8 81.1 19.3 80 19.3 79.35 19.3 79 19.2 78.6 19.1 78 18.8
L 78.55 17.65
Q 79.2 18.15 80 18.15 80.85 18.15 80.85 17.55 80.85 17.2 80.6 16.95 80.35 16.75 79.6 16.4 78 15.75 78 14.55 78 13.7 78.6 13.25 79.2 12.8 80.2 12.8 81.15 12.8 82.05 13.25
M 83.95 14.15
L 83.15 14.15 83.15 12.9 85.4 12.9 85.4 19.2 83.95 19.2 83.95 14.15
M 83.1 22.6
L 84.55 22.25 84.55 31.2 83.1 31.2 83.1 30.8
Q 82.9 31 82.45 31.15 82.05 31.3 81.55 31.3 80.25 31.3 79.5 30.5 78.75 29.65 78.75 28.15 78.75 26.7 79.6 25.75 80.5 24.8 81.8 24.8 82.5 24.8 83.1 25.1
L 83.1 22.6
M 93.75 12.8
Q 94.9 12.8 95.55 13.45 96.2 14.1 96.2 15.35
L 96.2 19.2 94.75 19.2 94.75 15.35
Q 94.75 14.75 94.4 14.4 94.05 14.05 93.45 14.05 93.1 14.05 92.7 14.25 92.35 14.45 92.2 14.7
L 92.2 19.2 90.7 19.2 90.7 10.6 92.2 10.25 92.2 13.3
Q 92.75 12.8 93.75 12.8
M 96.4 28.3
Q 96.8 28.8 96.8 29.45 96.8 30.3 96.15 30.8 95.5 31.3 94.4 31.3 93.75 31.3 93.4 31.2 93 31.1 92.4 30.8
L 92.95 29.65
Q 93.6 30.15 94.4 30.15 95.25 30.15 95.25 29.55 95.25 29.2 95 28.95 94.75 28.75 94 28.4 92.4 27.75 92.4 26.55 92.4 25.7 93 25.25 93.6 24.8 94.6 24.8 95.55 24.8 96.45 25.25
L 96 26.4
Q 95.55 25.95 94.65 25.95 93.9 25.95 93.9 26.6 93.9 26.8 94.15 27 94.4 27.2 95.25 27.55 96.05 27.85 96.4 28.3
M 88.6 24.8
Q 90.05 24.8 90.8 25.65 91.6 26.55 91.6 28.05 91.6 29.55 90.8 30.45 90 31.3 88.6 31.3 87.15 31.3 86.4 30.45 85.6 29.55 85.6 28.05 85.6 26.6 86.4 25.7 87.25 24.8 88.6 24.8
M 83.95 36.8
Q 84.65 36.8 85.25 37.1
L 85.25 34.6 86.7 34.25 86.7 43.2 85.25 43.2 85.25 42.8
Q 85.05 43 84.6 43.15 84.2 43.3 83.7 43.3 82.4 43.3 81.65 42.5 80.9 41.65 80.9 40.15 80.9 38.7 81.75 37.75 82.65 36.8 83.95 36.8
M 87.75 40.15
Q 87.75 38.65 88.65 37.75 89.55 36.8 90.85 36.8 92.2 36.8 93.05 37.6 93.85 38.45 93.85 39.7 93.85 39.95 93.75 40.5
L 89.25 40.5
Q 89.3 41.25 89.8 41.7 90.25 42.1 91.05 42.1 92.05 42.1 92.6 41.55
L 93.15 42.7
Q 92.35 43.3 90.85 43.3 89.4 43.3 88.55 42.5 87.75 41.65 87.75 40.15
M 86.45 48.8
Q 87.55 48.8 88.35 49.4
L 87.75 50.5
Q 87.2 50.05 86.35 50.05 85.5 50.05 85.05 50.6 84.55 51.15 84.55 52.1 84.55 54.1 86.45 54.1 87.25 54.1 87.85 53.55
L 88.4 54.7
Q 87.75 55.1 87.3 55.2 86.8 55.3 86.15 55.3 84.7 55.3 83.85 54.45 83.05 53.6 83.05 52.1 83.05 50.65 83.95 49.7 84.85 48.8 86.45 48.8
M 96.4 48.9
L 97.4 48.9 97.7 49.5
Q 98.3 48.8 99.25 48.8 100.5 48.8 101.15 49.5 101.45 49.2 101.9 49 102.4 48.8 102.9 48.8 103.95 48.8 104.55 49.4 105.1 50 105.1 51.05
L 105.1 55.2 103.65 55.2 103.65 51.25
Q 103.65 50.05 102.55 50.05 102.2 50.05 101.9 50.25 101.6 50.4 101.5 50.65
L 101.5 55.2 100 55.2 100 51.05
Q 100 50.6 99.75 50.3 99.45 50.05 98.95 50.05 98.65 50.05 98.35 50.25 98 50.45 97.85 50.7
L 97.85 55.2 96.4 55.2 96.4 48.9
M 102.6 60.8
Q 104.05 60.8 104.8 61.65 105.6 62.55 105.6 64.05 105.6 65.55 104.8 66.45 104 67.3 102.6 67.3 101.15 67.3 100.4 66.45 99.6 65.55 99.6 64.05 99.6 62.6 100.4 61.7 101.25 60.8 102.6 60.8
M 106.45 72.8
Q 107.85 72.8 108.55 73.45 109.2 74.1 109.2 75.95
L 109.2 77.3
Q 109.2 78.55 109.7 78.85 109.5 79.15 109.3 79.25 109.1 79.3 108.8 79.3 108.5 79.3 108.2 79.1 107.95 78.85 107.9 78.55 107.7 78.9 107.2 79.1 106.7 79.3 106.15 79.3 105.15 79.3 104.55 78.8 104 78.3 104 77.35 104 76.3 104.8 75.65 105.6 75.05 107.1 75.05 107.4 75.05 107.75 75.15 107.75 74.05 106.35 74.05 105.5 74.05 104.95 74.3
L 104.65 73.15
Q 105.4 72.8 106.45 72.8
M 94.4 54.45
Q 93.6 55.3 92.2 55.3 90.75 55.3 90 54.45 89.2 53.55 89.2 52.05 89.2 50.6 90 49.7 90.85 48.8 92.2 48.8 93.65 48.8 94.4 49.65 95.2 50.55 95.2 52.05 95.2 53.55 94.4 54.45
M 95.05 58.75
Q 95.5 58.75 95.95 59 96.4 59.2 96.55 59.2 96.9 59.2 97.05 58.75
L 97.9 58.75
Q 97.7 59.6 97.35 59.95 97.05 60.25 96.55 60.25 96.2 60.25 95.7 60.05 95.25 59.8 95.1 59.8 94.8 59.8 94.6 60.25
L 93.75 60.25
Q 93.85 59.6 94.2 59.15 94.55 58.75 95.05 58.75
M 93.85 61.15
Q 94.6 60.8 95.65 60.8 97.05 60.8 97.75 61.45 98.4 62.1 98.4 63.95
L 98.4 65.3
Q 98.4 66.55 98.9 66.85 98.7 67.15 98.5 67.25 98.3 67.3 98 67.3 97.7 67.3 97.4 67.1 97.15 66.85 97.1 66.55 96.9 66.9 96.4 67.1 95.9 67.3 95.35 67.3 94.35 67.3 93.75 66.8 93.2 66.3 93.2 65.35 93.2 64.3 94 63.65 94.8 63.05 96.3 63.05 96.6 63.05 96.95 63.15 96.95 62.05 95.55 62.05 94.7 62.05 94.15 62.3
L 93.85 61.15
M 82.25 60.8
Q 83.65 60.8 84.35 61.45 85 62.1 85 63.95
L 85 65.3
Q 85 66.55 85.5 66.85 85.3 67.15 85.1 67.25 84.9 67.3 84.6 67.3 84.3 67.3 84 67.1 83.75 66.85 83.7 66.55 83.5 66.9 83 67.1 82.5 67.3 81.95 67.3 80.95 67.3 80.35 66.8 79.8 66.3 79.8 65.35 79.8 64.3 80.6 63.65 81.4 63.05 82.9 63.05 83.2 63.05 83.55 63.15 83.55 62.05 82.15 62.05 81.3 62.05 80.75 62.3
L 80.45 61.15
Q 81.2 60.8 82.25 60.8
M 86.45 58.6
L 87.95 58.25 87.95 61.15
Q 88.5 60.8 89.2 60.8 90.6 60.8 91.45 61.7 92.3 62.55 92.3 63.9 92.3 65.5 91.45 66.4 90.6 67.3 89.15 67.3 88.25 67.3 87.65 66.85
L 87.3 67.3 86.45 67.3 86.45 58.6
M 87 72.9
L 88.45 72.9 88.45 76.9
Q 88.45 78.1 89.55 78.1 90.05 78.1 90.45 77.85 90.9 77.6 91.05 77.25
L 91.05 72.9 92.5 72.9 92.5 79.2 91.05 79.2 91.05 78.7
Q 90.7 78.95 90.2 79.15 89.65 79.3 89.2 79.3 87 79.3 87 77
L 87 72.9
M 95.1 72.9
L 95.4 73.5
Q 96 72.8 96.95 72.8 98.2 72.8 98.85 73.5 99.15 73.2 99.6 73 100.1 72.8 100.6 72.8 101.65 72.8 102.25 73.4 102.8 74 102.8 75.05
L 102.8 79.2 101.35 79.2 101.35 75.25
Q 101.35 74.05 100.25 74.05 99.9 74.05 99.6 74.25 99.3 74.4 99.2 74.65
L 99.2 79.2 97.7 79.2 97.7 75.05
Q 97.7 74.6 97.45 74.3 97.15 74.05 96.65 74.05 96.35 74.05 96.05 74.25 95.7 74.45 95.55 74.7
L 95.55 79.2 94.1 79.2 94.1 72.9 95.1 72.9
M 91.15 84.8
Q 92.55 84.8 93.25 85.45 93.9 86.1 93.9 87.95
L 93.9 89.3
Q 93.9 90.55 94.4 90.85 94.2 91.15 94 91.25 93.8 91.3 93.5 91.3 93.2 91.3 92.9 91.1 92.65 90.85 92.6 90.55 92.4 90.9 91.9 91.1 91.4 91.3 90.85 91.3 89.85 91.3 89.25 90.8 88.7 90.3 88.7 89.35 88.7 88.3 89.5 87.65 90.3 87.05 91.8 87.05 92.1 87.05 92.45 87.15 92.45 86.05 91.05 86.05 90.2 86.05 89.65 86.3
L 89.35 85.15
Q 90.1 84.8 91.15 84.8
M 99.2 86.4
Q 98.9 86.05 98.2 86.05 97.9 86.05 97.55 86.2 97.15 86.4 96.95 86.65
L 96.95 91.2 95.5 91.2 95.5 84.9 96.55 84.9 96.8 85.5
Q 97.4 84.8 98.6 84.8 99.7 84.8 100.35 85.5 101 86.15 101 87.35
L 101 91.2 99.55 91.2 99.55 87.55
Q 99.55 86.75 99.2 86.4
M 81.85 76.3
Q 82.25 76.8 82.25 77.45 82.25 78.3 81.6 78.8 80.95 79.3 79.85 79.3 79.2 79.3 78.85 79.2 78.45 79.1 77.85 78.8
L 78.4 77.65
Q 79.05 78.15 79.85 78.15 80.7 78.15 80.7 77.55 80.7 77.2 80.45 76.95 80.2 76.75 79.45 76.4 77.85 75.75 77.85 74.55 77.85 73.7 78.45 73.25 79.05 72.8 80.05 72.8 81 72.8 81.9 73.25
L 81.45 74.4
Q 81 73.95 80.1 73.95 79.35 73.95 79.35 74.6 79.35 74.8 79.6 75 79.85 75.2 80.7 75.55 81.5 75.85 81.85 76.3
M 84.95 86.05
Q 84.6 86.05 84.3 86.25 84 86.4 83.9 86.65
L 83.9 91.2 82.4 91.2 82.4 87.05
Q 82.4 86.6 82.15 86.3 81.85 86.05 81.35 86.05 81.05 86.05 80.75 86.25 80.4 86.45 80.25 86.7
L 80.25 91.2 78.8 91.2 78.8 84.9 79.8 84.9 80.1 85.5
Q 80.7 84.8 81.65 84.8 82.9 84.8 83.55 85.5 83.85 85.2 84.3 85 84.8 84.8 85.3 84.8 86.35 84.8 86.95 85.4 87.5 86 87.5 87.05
L 87.5 91.2 86.05 91.2 86.05 87.25
Q 86.05 86.05 84.95 86.05
M 102.85 85.15
Q 103.6 84.8 104.65 84.8 106.05 84.8 106.75 85.45 107.4 86.1 107.4 87.95
L 107.4 89.3
Q 107.4 90.55 107.9 90.85 107.7 91.15 107.5 91.25 107.3 91.3 107 91.3 106.7 91.3 106.4 91.1 106.15 90.85 106.1 90.55 105.9 90.9 105.4 91.1 104.9 91.3 104.35 91.3 103.35 91.3 102.75 90.8 102.2 90.3 102.2 89.35 102.2 88.3 103 87.65 103.8 87.05 105.3 87.05 105.6 87.05 105.95 87.15 105.95 86.05 104.55 86.05 103.7 86.05 103.15 86.3
L 102.85 85.15
M 68.3 19.3
L 67.75 19.3 64.95 12.9 66.55 12.9 68.05 16.75 69.65 12.9 71.2 12.9 68.3 19.3
M 76.8 15.95
L 76.8 17.3
Q 76.8 18.55 77.3 18.85 77.1 19.15 76.9 19.25 76.7 19.3 76.4 19.3 76.1 19.3 75.8 19.1 75.55 18.85 75.5 18.55 75.3 18.9 74.8 19.1 74.3 19.3 73.75 19.3 72.75 19.3 72.15 18.8 71.6 18.3 71.6 17.35 71.6 16.3 72.4 15.65 73.2 15.05 74.7 15.05 75 15.05 75.35 15.15 75.35 14.05 73.95 14.05 73.1 14.05 72.55 14.3
L 72.25 13.15
Q 73 12.8 74.05 12.8 75.45 12.8 76.15 13.45 76.8 14.1 76.8 15.95
M 45.75 15.7
Q 45.75 15.95 45.65 16.5
L 41.15 16.5
Q 41.2 17.25 41.7 17.7 42.15 18.1 42.95 18.1 43.95 18.1 44.5 17.55
L 45.05 18.7
Q 44.25 19.3 42.75 19.3 41.3 19.3 40.45 18.5 39.65 17.65 39.65 16.15 39.65 14.65 40.55 13.75 41.45 12.8 42.75 12.8 44.1 12.8 44.95 13.6 45.75 14.45 45.75 15.7
M 60.6 13.25
L 60.15 14.4
Q 59.7 13.95 58.8 13.95 58.05 13.95 58.05 14.6 58.05 14.8 58.3 15 58.55 15.2 59.4 15.55 60.2 15.85 60.55 16.3 60.95 16.8 60.95 17.45 60.95 18.3 60.3 18.8 59.65 19.3 58.55 19.3 57.9 19.3 57.55 19.2 57.15 19.1 56.55 18.8
L 57.1 17.65
Q 57.75 18.15 58.55 18.15 59.4 18.15 59.4 17.55 59.4 17.2 59.15 16.95 58.9 16.75 58.15 16.4 56.55 15.75 56.55 14.55 56.55 13.7 57.15 13.25 57.75 12.8 58.75 12.8 59.7 12.8 60.6 13.25
M 53.25 15.05
Q 53.55 15.05 53.9 15.15 53.9 14.05 52.5 14.05 51.65 14.05 51.1 14.3
L 50.8 13.15
Q 51.55 12.8 52.6 12.8 54 12.8 54.7 13.45 55.35 14.1 55.35 15.95
L 55.35 17.3
Q 55.35 18.55 55.85 18.85 55.65 19.15 55.45 19.25 55.25 19.3 54.95 19.3 54.65 19.3 54.35 19.1 54.1 18.85 54.05 18.55 53.85 18.9 53.35 19.1 52.85 19.3 52.3 19.3 51.3 19.3 50.7 18.8 50.15 18.3 50.15 17.35 50.15 16.3 50.95 15.65 51.75 15.05 53.25 15.05
M 51.9 22.35
L 53.35 22.35 52.05 24.1 50.9 24.1 51.9 22.35
M 60.3 25.85
Q 60.65 26.4 60.65 27.15 60.65 28.25 60 28.9 59.35 29.55 58.35 29.55 58.2 29.55 57.95 29.5
L 57.7 29.45
Q 57.65 29.45 57.4 29.6 57.1 29.7 57.1 29.85 57.1 30.1 57.5 30.1 57.7 30.1 58.15 30 58.55 29.9 58.85 29.9 61 29.9 61 31.65 61 32.6 60.15 33.1 59.3 33.65 58.1 33.65 56.65 33.65 55.45 32.8
L 56.4 31.65
Q 57.15 32.35 58.1 32.35 58.75 32.35 59.15 32.2 59.55 32 59.55 31.65 59.55 31.1 58.65 31.1 58.4 31.1 57.9 31.15 57.45 31.25 57.2 31.25 55.7 31.25 55.7 30.15 55.7 29.85 55.95 29.55 56.2 29.25 56.5 29.1 55.45 28.4 55.45 27.1 55.45 26.1 56.2 25.45 56.9 24.8 58 24.8 58.85 24.8 59.4 25.1
L 60 24.45 61 25.35 60.3 25.85
M 52.9 27.15
Q 52.9 26.05 51.5 26.05 50.65 26.05 50.1 26.3
L 49.8 25.15
Q 50.55 24.8 51.6 24.8 53 24.8 53.7 25.45 54.35 26.1 54.35 27.95
L 54.35 29.3
Q 54.35 30.55 54.85 30.85 54.65 31.15 54.45 31.25 54.25 31.3 53.95 31.3 53.65 31.3 53.35 31.1 53.1 30.85 53.05 30.55 52.85 30.9 52.35 31.1 51.85 31.3 51.3 31.3 50.3 31.3 49.7 30.8 49.15 30.3 49.15 29.35 49.15 28.3 49.95 27.65 50.75 27.05 52.25 27.05 52.55 27.05 52.9 27.15
M 52.15 36.9
L 53.15 36.9 53.45 37.5
Q 54.05 36.8 55 36.8 56.25 36.8 56.9 37.5 57.2 37.2 57.65 37 58.15 36.8 58.65 36.8 59.7 36.8 60.3 37.4 60.85 38 60.85 39.05
L 60.85 43.2 59.4 43.2 59.4 39.25
Q 59.4 38.05 58.3 38.05 57.95 38.05 57.65 38.25 57.35 38.4 57.25 38.65
L 57.25 43.2 55.75 43.2 55.75 39.05
Q 55.75 38.6 55.5 38.3 55.2 38.05 54.7 38.05 54.4 38.05 54.1 38.25 53.75 38.45 53.6 38.7
L 53.6 43.2 52.15 43.2 52.15 36.9
M 43.95 25.6
Q 44.75 26.45 44.75 27.7 44.75 27.95 44.65 28.5
L 40.15 28.5
Q 40.2 29.25 40.7 29.7 41.15 30.1 41.95 30.1 42.95 30.1 43.5 29.55
L 44.05 30.7
Q 43.25 31.3 41.75 31.3 40.3 31.3 39.45 30.5 38.65 29.65 38.65 28.15 38.65 26.65 39.55 25.75 40.45 24.8 41.75 24.8 43.1 24.8 43.95 25.6
M 41.45 36.9
L 42.5 36.9 42.75 37.5
Q 43.35 36.8 44.55 36.8 45.65 36.8 46.3 37.5 46.95 38.15 46.95 39.35
L 46.95 43.2 45.5 43.2 45.5 39.55
Q 45.5 38.75 45.15 38.4 44.85 38.05 44.15 38.05 43.85 38.05 43.5 38.2 43.1 38.4 42.9 38.65
L 42.9 43.2 41.45 43.2 41.45 36.9
M 50.3 34.75
Q 50.55 35 50.55 35.35 50.55 35.7 50.3 35.95 50.05 36.2 49.7 36.2 49.35 36.2 49.1 35.95 48.85 35.7 48.85 35.35 48.85 35 49.1 34.75 49.35 34.5 49.7 34.5 50.05 34.5 50.3 34.75
M 48.15 36.9
L 50.4 36.9 50.4 43.2 48.95 43.2 48.95 38.15 48.15 38.15 48.15 36.9
M 41.35 46.5
Q 41.7 46.5 41.95 46.75 42.2 47 42.2 47.35 42.2 47.7 41.95 47.95 41.7 48.2 41.35 48.2 41 48.2 40.75 47.95 40.5 47.7 40.5 47.35 40.5 47 40.75 46.75 41 46.5 41.35 46.5
M 43.8 48.9
L 44.8 48.9 45.1 49.5
Q 45.7 48.8 46.65 48.8 47.9 48.8 48.55 49.5 48.85 49.2 49.3 49 49.8 48.8 50.3 48.8 51.35 48.8 51.95 49.4 52.5 50 52.5 51.05
L 52.5 55.2 51.05 55.2 51.05 51.25
Q 51.05 50.05 49.95 50.05 49.6 50.05 49.3 50.25 49 50.4 48.9 50.65
L 48.9 55.2 47.4 55.2 47.4 51.05
Q 47.4 50.6 47.15 50.3 46.85 50.05 46.35 50.05 46.05 50.05 45.75 50.25 45.4 50.45 45.25 50.7
L 45.25 55.2 43.8 55.2 43.8 48.9
M 56.15 48.8
Q 57.55 48.8 58.25 49.45 58.9 50.1 58.9 51.95
L 58.9 53.3
Q 58.9 54.55 59.4 54.85 59.2 55.15 59 55.25 58.8 55.3 58.5 55.3 58.2 55.3 57.9 55.1 57.65 54.85 57.6 54.55 57.4 54.9 56.9 55.1 56.4 55.3 55.85 55.3 54.85 55.3 54.25 54.8 53.7 54.3 53.7 53.35 53.7 52.3 54.5 51.65 55.3 51.05 56.8 51.05 57.1 51.05 57.45 51.15 57.45 50.05 56.05 50.05 55.2 50.05 54.65 50.3
L 54.35 49.15
Q 55.1 48.8 56.15 48.8
M 71.1 24.8
Q 72.5 24.8 73.2 25.45 73.85 26.1 73.85 27.95
L 73.85 29.3
Q 73.85 30.55 74.35 30.85 74.15 31.15 73.95 31.25 73.75 31.3 73.45 31.3 73.15 31.3 72.85 31.1 72.6 30.85 72.55 30.55 72.35 30.9 71.85 31.1 71.35 31.3 70.8 31.3 69.8 31.3 69.2 30.8 68.65 30.3 68.65 29.35 68.65 28.3 69.45 27.65 70.25 27.05 71.75 27.05 72.05 27.05 72.4 27.15 72.4 26.05 71 26.05 70.15 26.05 69.6 26.3
L 69.3 25.15
Q 70.05 24.8 71.1 24.8
M 66 24.9
L 67.45 24.9 67.45 31.2 66 31.2 66 30.7
Q 65.65 30.95 65.15 31.15 64.6 31.3 64.15 31.3 61.95 31.3 61.95 29
L 61.95 24.9 63.4 24.9 63.4 28.9
Q 63.4 30.1 64.5 30.1 65 30.1 65.4 29.85 65.85 29.6 66 29.25
L 66 24.9
M 70.6 34.75
Q 70.85 35 70.85 35.35 70.85 35.7 70.6 35.95 70.35 36.2 70 36.2 69.65 36.2 69.4 35.95 69.15 35.7 69.15 35.35 69.15 35 69.4 34.75 69.65 34.5 70 34.5 70.35 34.5 70.6 34.75
M 68.45 36.9
L 70.7 36.9 70.7 43.2 69.25 43.2 69.25 38.15 68.45 38.15 68.45 36.9
M 66.6 37.45
Q 67.25 38.1 67.25 39.95
L 67.25 41.3
Q 67.25 42.55 67.75 42.85 67.55 43.15 67.35 43.25 67.15 43.3 66.85 43.3 66.55 43.3 66.25 43.1 66 42.85 65.95 42.55 65.75 42.9 65.25 43.1 64.75 43.3 64.2 43.3 63.2 43.3 62.6 42.8 62.05 42.3 62.05 41.35 62.05 40.3 62.85 39.65 63.65 39.05 65.15 39.05 65.45 39.05 65.8 39.15 65.8 38.05 64.4 38.05 63.55 38.05 63 38.3
L 62.7 37.15
Q 63.45 36.8 64.5 36.8 65.9 36.8 66.6 37.45
M 63.5 48.8
Q 64.6 48.8 65.4 49.4
L 64.8 50.5
Q 64.25 50.05 63.4 50.05 62.55 50.05 62.1 50.6 61.6 51.15 61.6 52.1 61.6 54.1 63.5 54.1 64.3 54.1 64.9 53.55
L 65.45 54.7
Q 64.8 55.1 64.35 55.2 63.85 55.3 63.2 55.3 61.75 55.3 60.9 54.45 60.1 53.6 60.1 52.1 60.1 50.65 61 49.7 61.9 48.8 63.5 48.8
M 67.65 48.25
L 66.8 48.25
Q 66.9 47.6 67.25 47.15 67.6 46.75 68.1 46.75 68.55 46.75 69 47 69.45 47.2 69.6 47.2 69.95 47.2 70.1 46.75
L 70.95 46.75
Q 70.75 47.6 70.4 47.95 70.1 48.25 69.6 48.25 69.25 48.25 68.75 48.05 68.3 47.8 68.15 47.8 67.85 47.8 67.65 48.25
M 68.7 48.8
Q 70.1 48.8 70.8 49.45 71.45 50.1 71.45 51.95
L 71.45 53.3
Q 71.45 54.55 71.95 54.85 71.75 55.15 71.55 55.25 71.35 55.3 71.05 55.3 70.75 55.3 70.45 55.1 70.2 54.85 70.15 54.55 69.95 54.9 69.45 55.1 68.95 55.3 68.4 55.3 67.4 55.3 66.8 54.8 66.25 54.3 66.25 53.35 66.25 52.3 67.05 51.65 67.85 51.05 69.35 51.05 69.65 51.05 70 51.15 70 50.05 68.6 50.05 67.75 50.05 67.2 50.3
L 66.9 49.15
Q 67.65 48.8 68.7 48.8
M 76.05 40.3
Q 76.45 40.8 76.45 41.45 76.45 42.3 75.8 42.8 75.15 43.3 74.05 43.3 73.4 43.3 73.05 43.2 72.65 43.1 72.05 42.8
L 72.6 41.65
Q 73.25 42.15 74.05 42.15 74.9 42.15 74.9 41.55 74.9 41.2 74.65 40.95 74.4 40.75 73.65 40.4 72.05 39.75 72.05 38.55 72.05 37.7 72.65 37.25 73.25 36.8 74.25 36.8 75.2 36.8 76.1 37.25
L 75.65 38.4
Q 75.2 37.95 74.3 37.95 73.55 37.95 73.55 38.6 73.55 38.8 73.8 39 74.05 39.2 74.9 39.55 75.7 39.85 76.05 40.3
M 20.8 10.6
L 22.3 10.6 22.3 17.85 26.2 17.85 26.2 19.2 20.8 19.2 20.8 10.6
M 27.75 15.65
Q 28.55 15.05 30.05 15.05 30.35 15.05 30.7 15.15 30.7 14.05 29.3 14.05 28.45 14.05 27.9 14.3
L 27.6 13.15
Q 28.35 12.8 29.4 12.8 30.8 12.8 31.5 13.45 32.15 14.1 32.15 15.95
L 32.15 17.3
Q 32.15 18.55 32.65 18.85 32.45 19.15 32.25 19.25 32.05 19.3 31.75 19.3 31.45 19.3 31.15 19.1 30.9 18.85 30.85 18.55 30.65 18.9 30.15 19.1 29.65 19.3 29.1 19.3 28.1 19.3 27.5 18.8 26.95 18.3 26.95 17.35 26.95 16.3 27.75 15.65
M 37.7 12.9
L 39.25 12.9 36.35 19.3 35.8 19.3 33 12.9 34.6 12.9 36.1 16.75 37.7 12.9
M 36.15 22.6
L 37.6 22.25 37.6 31.2 36.15 31.2 36.15 30.8
Q 35.95 31 35.5 31.15 35.1 31.3 34.6 31.3 33.3 31.3 32.55 30.5 31.8 29.65 31.8 28.15 31.8 26.7 32.65 25.75 33.55 24.8 34.85 24.8 35.55 24.8 36.15 25.1
L 36.15 22.6
M 39.2 37.45
Q 39.85 38.1 39.85 39.95
L 39.85 41.3
Q 39.85 42.55 40.35 42.85 40.15 43.15 39.95 43.25 39.75 43.3 39.45 43.3 39.15 43.3 38.85 43.1 38.6 42.85 38.55 42.55 38.35 42.9 37.85 43.1 37.35 43.3 36.8 43.3 35.8 43.3 35.2 42.8 34.65 42.3 34.65 41.35 34.65 40.3 35.45 39.65 36.25 39.05 37.75 39.05 38.05 39.05 38.4 39.15 38.4 38.05 37 38.05 36.15 38.05 35.6 38.3
L 35.3 37.15
Q 36.05 36.8 37.1 36.8 38.5 36.8 39.2 37.45
M 30.5 49.25
Q 31.1 48.8 32.1 48.8 33.05 48.8 33.95 49.25
L 33.5 50.4
Q 33.05 49.95 32.15 49.95 31.4 49.95 31.4 50.6 31.4 50.8 31.65 51 31.9 51.2 32.75 51.55 33.55 51.85 33.9 52.3 34.3 52.8 34.3 53.45 34.3 54.3 33.65 54.8 33 55.3 31.9 55.3 31.25 55.3 30.9 55.2 30.5 55.1 29.9 54.8
L 30.45 53.65
Q 31.1 54.15 31.9 54.15 32.75 54.15 32.75 53.55 32.75 53.2 32.5 52.95 32.25 52.75 31.5 52.4 29.9 51.75 29.9 50.55 29.9 49.7 30.5 49.25
M 35.65 48.9
L 35.65 47.65 37.15 47.1 37.15 48.9 38.85 48.9 38.85 50.1 37.15 50.1 37.15 52.85
Q 37.15 53.5 37.35 53.8 37.55 54.1 38.1 54.1 38.6 54.1 39.05 53.8
L 39.05 55.15
Q 38.55 55.3 37.6 55.3 36.65 55.3 36.15 54.8 35.65 54.25 35.65 53.3
L 35.65 50.1 34.95 50.1 34.95 48.9 35.65 48.9
M 31.95 60.8
Q 32.9 60.8 33.8 61.25
L 33.35 62.4
Q 32.9 61.95 32 61.95 31.25 61.95 31.25 62.6 31.25 62.8 31.5 63 31.75 63.2 32.6 63.55 33.4 63.85 33.75 64.3 34.15 64.8 34.15 65.45 34.15 66.3 33.5 66.8 32.85 67.3 31.75 67.3 31.1 67.3 30.75 67.2 30.35 67.1 29.75 66.8
L 30.3 65.65
Q 30.95 66.15 31.75 66.15 32.6 66.15 32.6 65.55 32.6 65.2 32.35 64.95 32.1 64.75 31.35 64.4 29.75 63.75 29.75 62.55 29.75 61.7 30.35 61.25 30.95 60.8 31.95 60.8
M 35.8 61.7
Q 36.7 60.8 38.3 60.8 39.4 60.8 40.2 61.4
L 39.6 62.5
Q 39.05 62.05 38.2 62.05 37.35 62.05 36.9 62.6 36.4 63.15 36.4 64.1 36.4 66.1 38.3 66.1 39.1 66.1 39.7 65.55
L 40.25 66.7
Q 39.6 67.1 39.15 67.2 38.65 67.3 38 67.3 36.55 67.3 35.7 66.45 34.9 65.6 34.9 64.1 34.9 62.65 35.8 61.7
M 29.1 51.7
Q 29.1 51.95 29 52.5
L 24.5 52.5
Q 24.55 53.25 25.05 53.7 25.5 54.1 26.3 54.1 27.3 54.1 27.85 53.55
L 28.4 54.7
Q 27.6 55.3 26.1 55.3 24.65 55.3 23.8 54.5 23 53.65 23 52.15 23 50.65 23.9 49.75 24.8 48.8 26.1 48.8 27.45 48.8 28.3 49.6 29.1 50.45 29.1 51.7
M 25.95 60.8
Q 27.3 60.8 28.15 61.6 28.95 62.45 28.95 63.7 28.95 63.95 28.85 64.5
L 24.35 64.5
Q 24.4 65.25 24.9 65.7 25.35 66.1 26.15 66.1 27.15 66.1 27.7 65.55
L 28.25 66.7
Q 27.45 67.3 25.95 67.3 24.5 67.3 23.65 66.5 22.85 65.65 22.85 64.15 22.85 62.65 23.75 61.75 24.65 60.8 25.95 60.8
M 20.65 73.35
Q 21.2 72.8 22 72.8 25 72.8 25 76.1 25 77.65 24.15 78.5 23.35 79.3 21.9 79.3 21.2 79.3 20.65 79.05
L 20.65 81.65 19.15 81.65 19.15 72.9 20.65 72.9 20.65 73.35
M 26.8 73.75
Q 27.7 72.8 29 72.8 30.35 72.8 31.2 73.6 32 74.45 32 75.7 32 75.95 31.9 76.5
L 27.4 76.5
Q 27.45 77.25 27.95 77.7 28.4 78.1 29.2 78.1 30.2 78.1 30.75 77.55
L 31.3 78.7
Q 30.5 79.3 29 79.3 27.55 79.3 26.7 78.5 25.9 77.65 25.9 76.15 25.9 74.65 26.8 73.75
M 33.45 70.6
L 34.9 70.25 34.9 77.3
Q 34.9 78.45 35.6 78.65 35.25 79.3 34.45 79.3 33.45 79.3 33.45 77.95
L 33.45 70.6
M 37.15 73.7
Q 38 72.8 39.35 72.8 40.8 72.8 41.55 73.65 42.35 74.55 42.35 76.05 42.35 77.55 41.55 78.45 40.75 79.3 39.35 79.3 37.9 79.3 37.15 78.45 36.35 77.55 36.35 76.05 36.35 74.6 37.15 73.7
M 33.95 86.2
L 33.95 84.9 39.4 84.9 39.4 85.45 36.15 89.9 39.45 89.9 39.45 91.2 33.9 91.2 33.9 90.7 37.3 86.2 33.95 86.2
M 20.35 84.9
L 21.95 84.9 23.45 88.75 25.05 84.9 26.6 84.9 23.7 91.3 23.15 91.3 20.35 84.9
M 27.9 85.75
Q 28.8 84.8 30.1 84.8 31.45 84.8 32.3 85.6 33.1 86.45 33.1 87.7 33.1 87.95 33 88.5
L 28.5 88.5
Q 28.55 89.25 29.05 89.7 29.5 90.1 30.3 90.1 31.3 90.1 31.85 89.55
L 32.4 90.7
Q 31.6 91.3 30.1 91.3 28.65 91.3 27.8 90.5 27 89.65 27 88.15 27 86.65 27.9 85.75
M 77.85 49.65
Q 78.65 50.55 78.65 52.05 78.65 53.55 77.85 54.45 77.05 55.3 75.65 55.3 74.2 55.3 73.45 54.45 72.65 53.55 72.65 52.05 72.65 50.6 73.45 49.7 74.3 48.8 75.65 48.8 77.1 48.8 77.85 49.65
M 76.85 60.8
Q 77.8 60.8 78.7 61.25
L 78.25 62.4
Q 77.8 61.95 76.9 61.95 76.15 61.95 76.15 62.6 76.15 62.8 76.4 63 76.65 63.2 77.5 63.55 78.3 63.85 78.65 64.3 79.05 64.8 79.05 65.45 79.05 66.3 78.4 66.8 77.75 67.3 76.65 67.3 76 67.3 75.65 67.2 75.25 67.1 74.65 66.8
L 75.2 65.65
Q 75.85 66.15 76.65 66.15 77.5 66.15 77.5 65.55 77.5 65.2 77.25 64.95 77 64.75 76.25 64.4 74.65 63.75 74.65 62.55 74.65 61.7 75.25 61.25 75.85 60.8 76.85 60.8
M 62.35 57.75
Q 62.05 57.75 61.8 57.7
L 61.55 56.95
Q 61.75 57 61.95 57 62.7 57 62.7 56.45 62.7 56.25 62.6 56.1 62.5 55.9 62.3 55.85
L 62.8 55.35
Q 63.85 55.55 63.85 56.55 63.85 57.1 63.45 57.45 63 57.75 62.35 57.75
M 67.25 60.8
Q 68.6 60.8 69.45 61.6 70.25 62.45 70.25 63.7 70.25 63.95 70.15 64.5
L 65.65 64.5
Q 65.7 65.25 66.2 65.7 66.65 66.1 67.45 66.1 68.45 66.1 69 65.55
L 69.55 66.7
Q 68.75 67.3 67.25 67.3 65.8 67.3 64.95 66.5 64.15 65.65 64.15 64.15 64.15 62.65 65.05 61.75 65.95 60.8 67.25 60.8
M 65.4 72.9
L 65.65 73.5
Q 66.25 72.8 67.45 72.8 68.55 72.8 69.2 73.5 69.85 74.15 69.85 75.35
L 69.85 79.2 68.4 79.2 68.4 75.55
Q 68.4 74.75 68.05 74.4 67.75 74.05 67.05 74.05 66.75 74.05 66.4 74.2 66 74.4 65.8 74.65
L 65.8 79.2 64.35 79.2 64.35 72.9 65.4 72.9
M 71.85 73.7
Q 72.7 72.8 74.05 72.8 75.5 72.8 76.25 73.65 77.05 74.55 77.05 76.05 77.05 77.55 76.25 78.45 75.45 79.3 74.05 79.3 72.6 79.3 71.85 78.45 71.05 77.55 71.05 76.05 71.05 74.6 71.85 73.7
M 52.2 60.9
L 53.75 60.9 50.85 67.3 50.3 67.3 47.5 60.9 49.1 60.9 50.6 64.75 52.2 60.9
M 56.6 60.8
Q 58 60.8 58.7 61.45 59.35 62.1 59.35 63.95
L 59.35 65.3
Q 59.35 66.55 59.85 66.85 59.65 67.15 59.45 67.25 59.25 67.3 58.95 67.3 58.65 67.3 58.35 67.1 58.1 66.85 58.05 66.55 57.85 66.9 57.35 67.1 56.85 67.3 56.3 67.3 55.3 67.3 54.7 66.8 54.15 66.3 54.15 65.35 54.15 64.3 54.95 63.65 55.75 63.05 57.25 63.05 57.55 63.05 57.9 63.15 57.9 62.05 56.5 62.05 55.65 62.05 55.1 62.3
L 54.8 61.15
Q 55.55 60.8 56.6 60.8
M 42.05 55.2
L 40.6 55.2 40.6 50.15 39.8 50.15 39.8 48.9 42.05 48.9 42.05 55.2
M 41.85 61.7
Q 42.7 60.8 44.05 60.8 45.5 60.8 46.25 61.65 47.05 62.55 47.05 64.05 47.05 65.55 46.25 66.45 45.45 67.3 44.05 67.3 42.6 67.3 41.85 66.45 41.05 65.55 41.05 64.05 41.05 62.6 41.85 61.7
M 47.15 72.9
L 48.15 72.9 48.45 73.5
Q 49.05 72.8 50 72.8 51.25 72.8 51.9 73.5 52.2 73.2 52.65 73 53.15 72.8 53.65 72.8 54.7 72.8 55.3 73.4 55.85 74 55.85 75.05
L 55.85 79.2 54.4 79.2 54.4 75.25
Q 54.4 74.05 53.3 74.05 52.95 74.05 52.65 74.25 52.35 74.4 52.25 74.65
L 52.25 79.2 50.75 79.2 50.75 75.05
Q 50.75 74.6 50.5 74.3 50.2 74.05 49.7 74.05 49.4 74.05 49.1 74.25 48.75 74.45 48.6 74.7
L 48.6 79.2 47.15 79.2 47.15 72.9
M 57.95 73.75
Q 58.85 72.8 60.15 72.8 61.5 72.8 62.35 73.6 63.15 74.45 63.15 75.7 63.15 75.95 63.05 76.5
L 58.55 76.5
Q 58.6 77.25 59.1 77.7 59.55 78.1 60.35 78.1 61.35 78.1 61.9 77.55
L 62.45 78.7
Q 61.65 79.3 60.15 79.3 58.7 79.3 57.85 78.5 57.05 77.65 57.05 76.15 57.05 74.65 57.95 73.75
M 51.6 85.7
Q 52.45 84.8 53.8 84.8 55.25 84.8 56 85.65 56.8 86.55 56.8 88.05 56.8 89.55 56 90.45 55.2 91.3 53.8 91.3 52.35 91.3 51.6 90.45 50.8 89.55 50.8 88.05 50.8 86.6 51.6 85.7
M 58 84.9
L 59.45 84.9 59.45 85.5
Q 60.05 84.8 61.1 84.8 61.85 84.8 62.25 85.05
L 61.6 86.3
Q 61.25 86.05 60.75 86.05 60.25 86.05 59.85 86.5 59.45 86.95 59.45 87.65
L 59.45 91.2 58 91.2 58 84.9
M 45.55 84.9
L 45.55 85.35
Q 46.1 84.8 46.9 84.8 49.9 84.8 49.9 88.1 49.9 89.65 49.05 90.5 48.25 91.3 46.8 91.3 46.1 91.3 45.55 91.05
L 45.55 93.65 44.05 93.65 44.05 84.9 45.55 84.9
M 72.4 85.75
Q 73.3 84.8 74.6 84.8 75.95 84.8 76.8 85.6 77.6 86.45 77.6 87.7 77.6 87.95 77.5 88.5
L 73 88.5
Q 73.05 89.25 73.55 89.7 74 90.1 74.8 90.1 75.8 90.1 76.35 89.55
L 76.9 90.7
Q 76.1 91.3 74.6 91.3 73.15 91.3 72.3 90.5 71.5 89.65 71.5 88.15 71.5 86.65 72.4 85.75
M 66.35 86.55
Q 66.35 85.7 66.95 85.25 67.55 84.8 68.55 84.8 69.5 84.8 70.4 85.25
L 69.95 86.4
Q 69.5 85.95 68.6 85.95 67.85 85.95 67.85 86.6 67.85 86.8 68.1 87 68.35 87.2 69.2 87.55 70 87.85 70.35 88.3 70.75 88.8 70.75 89.45 70.75 90.3 70.1 90.8 69.45 91.3 68.35 91.3 67.7 91.3 67.35 91.2 66.95 91.1 66.35 90.8
L 66.9 89.65
Q 67.55 90.15 68.35 90.15 69.2 90.15 69.2 89.55 69.2 89.2 68.95 88.95 68.7 88.75 67.95 88.4 66.35 87.75 66.35 86.55
M 73.05 87.4
L 76.15 87.4
Q 76 86.05 74.6 86.05 73.35 86.05 73.05 87.4
M 47.95 86.5
Q 47.5 86.05 46.5 86.05 45.95 86.05 45.55 86.45
L 45.55 89.75
Q 45.95 90.1 46.45 90.1 47.5 90.1 47.95 89.6 48.35 89.1 48.35 88.05 48.35 86.95 47.95 86.5
M 53.8 86
Q 53.1 86 52.7 86.55 52.3 87.1 52.3 88.05 52.3 90.1 53.8 90.1 54.5 90.1 54.9 89.6 55.3 89.05 55.3 88.05 55.3 86 53.8 86
M 58.6 75.4
L 61.7 75.4
Q 61.55 74.05 60.15 74.05 58.9 74.05 58.6 75.4
M 45.15 65.6
Q 45.55 65.05 45.55 64.05 45.55 62 44.05 62 43.35 62 42.95 62.55 42.55 63.1 42.55 64.05 42.55 66.1 44.05 66.1 44.75 66.1 45.15 65.6
M 57.9 64.25
Q 57.5 64.15 57.35 64.15 55.6 64.15 55.6 65.3 55.6 66.15 56.55 66.15 57.9 66.15 57.9 64.85
L 57.9 64.25
M 74.05 78.1
Q 74.75 78.1 75.15 77.6 75.55 77.05 75.55 76.05 75.55 74 74.05 74 73.35 74 72.95 74.55 72.55 75.1 72.55 76.05 72.55 78.1 74.05 78.1
M 68.8 63.4
Q 68.65 62.05 67.25 62.05 66 62.05 65.7 63.4
L 68.8 63.4
M 76.75 53.6
Q 77.15 53.05 77.15 52.05 77.15 50 75.65 50 74.95 50 74.55 50.55 74.15 51.1 74.15 52.05 74.15 54.1 75.65 54.1 76.35 54.1 76.75 53.6
M 28.55 87.4
L 31.65 87.4
Q 31.5 86.05 30.1 86.05 28.85 86.05 28.55 87.4
M 39.35 78.1
Q 40.05 78.1 40.45 77.6 40.85 77.05 40.85 76.05 40.85 74 39.35 74 38.65 74 38.25 74.55 37.85 75.1 37.85 76.05 37.85 78.1 39.35 78.1
M 27.45 75.4
L 30.55 75.4
Q 30.4 74.05 29 74.05 27.75 74.05 27.45 75.4
M 20.65 77.75
Q 21.05 78.1 21.55 78.1 22.6 78.1 23.05 77.6 23.45 77.1 23.45 76.05 23.45 74.95 23.05 74.5 22.6 74.05 21.6 74.05 21.05 74.05 20.65 74.45
L 20.65 77.75
M 27.5 63.4
Q 27.35 62.05 25.95 62.05 24.7 62.05 24.4 63.4
L 27.5 63.4
M 27.65 51.4
Q 27.5 50.05 26.1 50.05 24.85 50.05 24.55 51.4
L 27.65 51.4
M 36.1 41.3
Q 36.1 42.15 37.05 42.15 38.4 42.15 38.4 40.85
L 38.4 40.25
Q 38 40.15 37.85 40.15 36.1 40.15 36.1 41.3
M 35.75 29.95
Q 36.05 29.85 36.15 29.7
L 36.15 26.4
Q 35.65 26.05 35.15 26.05 34.25 26.05 33.8 26.6 33.3 27.1 33.3 28.1 33.3 30.1 35.2 30.1 35.4 30.1 35.75 29.95
M 30.15 16.15
Q 28.4 16.15 28.4 17.3 28.4 18.15 29.35 18.15 30.7 18.15 30.7 16.85
L 30.7 16.25
Q 30.3 16.15 30.15 16.15
M 70 52.25
Q 69.6 52.15 69.45 52.15 67.7 52.15 67.7 53.3 67.7 54.15 68.65 54.15 70 54.15 70 52.85
L 70 52.25
M 65.8 40.85
L 65.8 40.25
Q 65.4 40.15 65.25 40.15 63.5 40.15 63.5 41.3 63.5 42.15 64.45 42.15 65.8 42.15 65.8 40.85
M 72.4 28.25
Q 72 28.15 71.85 28.15 70.1 28.15 70.1 29.3 70.1 30.15 71.05 30.15 72.4 30.15 72.4 28.85
L 72.4 28.25
M 57.45 52.25
Q 57.05 52.15 56.9 52.15 55.15 52.15 55.15 53.3 55.15 54.15 56.1 54.15 57.45 54.15 57.45 52.85
L 57.45 52.25
M 43.3 27.4
Q 43.15 26.05 41.75 26.05 40.5 26.05 40.2 27.4
L 43.3 27.4
M 52.9 28.25
Q 52.5 28.15 52.35 28.15 50.6 28.15 50.6 29.3 50.6 30.15 51.55 30.15 52.9 30.15 52.9 28.85
L 52.9 28.25
M 59.15 27.15
Q 59.15 26.65 58.85 26.35 58.55 26 58.05 26 57.55 26 57.25 26.3 56.95 26.65 56.95 27.15 56.95 27.7 57.25 28 57.55 28.35 58.05 28.35 58.6 28.35 58.9 28.05 59.15 27.7 59.15 27.15
M 51.6 17.3
Q 51.6 18.15 52.55 18.15 53.9 18.15 53.9 16.85
L 53.9 16.25
Q 53.5 16.15 53.35 16.15 51.6 16.15 51.6 17.3
M 42.75 14.05
Q 41.5 14.05 41.2 15.4
L 44.3 15.4
Q 44.15 14.05 42.75 14.05
M 75.35 16.85
L 75.35 16.25
Q 74.95 16.15 74.8 16.15 73.05 16.15 73.05 17.3 73.05 18.15 74 18.15 75.35 18.15 75.35 16.85
M 105.95 88.25
Q 105.55 88.15 105.4 88.15 103.65 88.15 103.65 89.3 103.65 90.15 104.6 90.15 105.95 90.15 105.95 88.85
L 105.95 88.25
M 90.15 89.3
Q 90.15 90.15 91.1 90.15 92.45 90.15 92.45 88.85
L 92.45 88.25
Q 92.05 88.15 91.9 88.15 90.15 88.15 90.15 89.3
M 90.75 63.95
Q 90.75 62.05 88.95 62.05 88.3 62.05 87.95 62.4
L 87.95 65.7
Q 88.25 66.1 88.8 66.1 89.85 66.1 90.3 65.55 90.75 65.05 90.75 63.95
M 83.55 64.85
L 83.55 64.25
Q 83.15 64.15 83 64.15 81.25 64.15 81.25 65.3 81.25 66.15 82.2 66.15 83.55 66.15 83.55 64.85
M 96.95 64.85
L 96.95 64.25
Q 96.55 64.15 96.4 64.15 94.65 64.15 94.65 65.3 94.65 66.15 95.6 66.15 96.95 66.15 96.95 64.85
M 93.7 52.05
Q 93.7 50 92.2 50 91.5 50 91.1 50.55 90.7 51.1 90.7 52.05 90.7 54.1 92.2 54.1 92.9 54.1 93.3 53.6 93.7 53.05 93.7 52.05
M 107.75 76.25
Q 107.35 76.15 107.2 76.15 105.45 76.15 105.45 77.3 105.45 78.15 106.4 78.15 107.75 78.15 107.75 76.85
L 107.75 76.25
M 102.6 66.1
Q 103.3 66.1 103.7 65.6 104.1 65.05 104.1 64.05 104.1 62 102.6 62 101.9 62 101.5 62.55 101.1 63.1 101.1 64.05 101.1 66.1 102.6 66.1
M 90.85 38.05
Q 89.6 38.05 89.3 39.4
L 92.4 39.4
Q 92.25 38.05 90.85 38.05
M 85.25 38.4
Q 84.75 38.05 84.25 38.05 83.35 38.05 82.9 38.6 82.4 39.1 82.4 40.1 82.4 42.1 84.3 42.1 84.5 42.1 84.85 41.95 85.15 41.85 85.25 41.7
L 85.25 38.4
M 89.7 29.6
Q 90.1 29.05 90.1 28.05 90.1 26 88.6 26 87.9 26 87.5 26.55 87.1 27.1 87.1 28.05 87.1 30.1 88.6 30.1 89.3 30.1 89.7 29.6
M 83.1 26.4
Q 82.6 26.05 82.1 26.05 81.2 26.05 80.75 26.6 80.25 27.1 80.25 28.1 80.25 30.1 82.15 30.1 82.35 30.1 82.7 29.95 83 29.85 83.1 29.7
L 83.1 26.4
M 100.6 16.15
Q 98.85 16.15 98.85 17.3 98.85 18.15 99.8 18.15 101.15 18.15 101.15 16.85
L 101.15 16.25
Q 100.75 16.15 100.6 16.15 Z"/>

<path fill="#000000" stroke="none" d="
M 66.95 85.25
Q 66.35 85.7 66.35 86.55 66.35 87.75 67.95 88.4 68.7 88.75 68.95 88.95 69.2 89.2 69.2 89.55 69.2 90.15 68.35 90.15 67.55 90.15 66.9 89.65
L 66.35 90.8
Q 66.95 91.1 67.35 91.2 67.7 91.3 68.35 91.3 69.45 91.3 70.1 90.8 70.75 90.3 70.75 89.45 70.75 88.8 70.35 88.3 70 87.85 69.2 87.55 68.35 87.2 68.1 87 67.85 86.8 67.85 86.6 67.85 85.95 68.6 85.95 69.5 85.95 69.95 86.4
L 70.4 85.25
Q 69.5 84.8 68.55 84.8 67.55 84.8 66.95 85.25
M 74.6 84.8
Q 73.3 84.8 72.4 85.75 71.5 86.65 71.5 88.15 71.5 89.65 72.3 90.5 73.15 91.3 74.6 91.3 76.1 91.3 76.9 90.7
L 76.35 89.55
Q 75.8 90.1 74.8 90.1 74 90.1 73.55 89.7 73.05 89.25 73 88.5
L 77.5 88.5
Q 77.6 87.95 77.6 87.7 77.6 86.45 76.8 85.6 75.95 84.8 74.6 84.8
M 76.15 87.4
L 73.05 87.4
Q 73.35 86.05 74.6 86.05 76 86.05 76.15 87.4
M 45.55 85.35
L 45.55 84.9 44.05 84.9 44.05 93.65 45.55 93.65 45.55 91.05
Q 46.1 91.3 46.8 91.3 48.25 91.3 49.05 90.5 49.9 89.65 49.9 88.1 49.9 84.8 46.9 84.8 46.1 84.8 45.55 85.35
M 46.5 86.05
Q 47.5 86.05 47.95 86.5 48.35 86.95 48.35 88.05 48.35 89.1 47.95 89.6 47.5 90.1 46.45 90.1 45.95 90.1 45.55 89.75
L 45.55 86.45
Q 45.95 86.05 46.5 86.05
M 59.45 84.9
L 58 84.9 58 91.2 59.45 91.2 59.45 87.65
Q 59.45 86.95 59.85 86.5 60.25 86.05 60.75 86.05 61.25 86.05 61.6 86.3
L 62.25 85.05
Q 61.85 84.8 61.1 84.8 60.05 84.8 59.45 85.5
L 59.45 84.9
M 53.8 84.8
Q 52.45 84.8 51.6 85.7 50.8 86.6 50.8 88.05 50.8 89.55 51.6 90.45 52.35 91.3 53.8 91.3 55.2 91.3 56 90.45 56.8 89.55 56.8 88.05 56.8 86.55 56 85.65 55.25 84.8 53.8 84.8
M 52.7 86.55
Q 53.1 86 53.8 86 55.3 86 55.3 88.05 55.3 89.05 54.9 89.6 54.5 90.1 53.8 90.1 52.3 90.1 52.3 88.05 52.3 87.1 52.7 86.55
M 60.15 72.8
Q 58.85 72.8 57.95 73.75 57.05 74.65 57.05 76.15 57.05 77.65 57.85 78.5 58.7 79.3 60.15 79.3 61.65 79.3 62.45 78.7
L 61.9 77.55
Q 61.35 78.1 60.35 78.1 59.55 78.1 59.1 77.7 58.6 77.25 58.55 76.5
L 63.05 76.5
Q 63.15 75.95 63.15 75.7 63.15 74.45 62.35 73.6 61.5 72.8 60.15 72.8
M 61.7 75.4
L 58.6 75.4
Q 58.9 74.05 60.15 74.05 61.55 74.05 61.7 75.4
M 48.15 72.9
L 47.15 72.9 47.15 79.2 48.6 79.2 48.6 74.7
Q 48.75 74.45 49.1 74.25 49.4 74.05 49.7 74.05 50.2 74.05 50.5 74.3 50.75 74.6 50.75 75.05
L 50.75 79.2 52.25 79.2 52.25 74.65
Q 52.35 74.4 52.65 74.25 52.95 74.05 53.3 74.05 54.4 74.05 54.4 75.25
L 54.4 79.2 55.85 79.2 55.85 75.05
Q 55.85 74 55.3 73.4 54.7 72.8 53.65 72.8 53.15 72.8 52.65 73 52.2 73.2 51.9 73.5 51.25 72.8 50 72.8 49.05 72.8 48.45 73.5
L 48.15 72.9
M 44.05 60.8
Q 42.7 60.8 41.85 61.7 41.05 62.6 41.05 64.05 41.05 65.55 41.85 66.45 42.6 67.3 44.05 67.3 45.45 67.3 46.25 66.45 47.05 65.55 47.05 64.05 47.05 62.55 46.25 61.65 45.5 60.8 44.05 60.8
M 45.55 64.05
Q 45.55 65.05 45.15 65.6 44.75 66.1 44.05 66.1 42.55 66.1 42.55 64.05 42.55 63.1 42.95 62.55 43.35 62 44.05 62 45.55 62 45.55 64.05
M 40.6 55.2
L 42.05 55.2 42.05 48.9 39.8 48.9 39.8 50.15 40.6 50.15 40.6 55.2
M 58.7 61.45
Q 58 60.8 56.6 60.8 55.55 60.8 54.8 61.15
L 55.1 62.3
Q 55.65 62.05 56.5 62.05 57.9 62.05 57.9 63.15 57.55 63.05 57.25 63.05 55.75 63.05 54.95 63.65 54.15 64.3 54.15 65.35 54.15 66.3 54.7 66.8 55.3 67.3 56.3 67.3 56.85 67.3 57.35 67.1 57.85 66.9 58.05 66.55 58.1 66.85 58.35 67.1 58.65 67.3 58.95 67.3 59.25 67.3 59.45 67.25 59.65 67.15 59.85 66.85 59.35 66.55 59.35 65.3
L 59.35 63.95
Q 59.35 62.1 58.7 61.45
M 57.35 64.15
Q 57.5 64.15 57.9 64.25
L 57.9 64.85
Q 57.9 66.15 56.55 66.15 55.6 66.15 55.6 65.3 55.6 64.15 57.35 64.15
M 53.75 60.9
L 52.2 60.9 50.6 64.75 49.1 60.9 47.5 60.9 50.3 67.3 50.85 67.3 53.75 60.9
M 74.05 72.8
Q 72.7 72.8 71.85 73.7 71.05 74.6 71.05 76.05 71.05 77.55 71.85 78.45 72.6 79.3 74.05 79.3 75.45 79.3 76.25 78.45 77.05 77.55 77.05 76.05 77.05 74.55 76.25 73.65 75.5 72.8 74.05 72.8
M 75.15 77.6
Q 74.75 78.1 74.05 78.1 72.55 78.1 72.55 76.05 72.55 75.1 72.95 74.55 73.35 74 74.05 74 75.55 74 75.55 76.05 75.55 77.05 75.15 77.6
M 65.65 73.5
L 65.4 72.9 64.35 72.9 64.35 79.2 65.8 79.2 65.8 74.65
Q 66 74.4 66.4 74.2 66.75 74.05 67.05 74.05 67.75 74.05 68.05 74.4 68.4 74.75 68.4 75.55
L 68.4 79.2 69.85 79.2 69.85 75.35
Q 69.85 74.15 69.2 73.5 68.55 72.8 67.45 72.8 66.25 72.8 65.65 73.5
M 69.45 61.6
Q 68.6 60.8 67.25 60.8 65.95 60.8 65.05 61.75 64.15 62.65 64.15 64.15 64.15 65.65 64.95 66.5 65.8 67.3 67.25 67.3 68.75 67.3 69.55 66.7
L 69 65.55
Q 68.45 66.1 67.45 66.1 66.65 66.1 66.2 65.7 65.7 65.25 65.65 64.5
L 70.15 64.5
Q 70.25 63.95 70.25 63.7 70.25 62.45 69.45 61.6
M 67.25 62.05
Q 68.65 62.05 68.8 63.4
L 65.7 63.4
Q 66 62.05 67.25 62.05
M 61.8 57.7
Q 62.05 57.75 62.35 57.75 63 57.75 63.45 57.45 63.85 57.1 63.85 56.55 63.85 55.55 62.8 55.35
L 62.3 55.85
Q 62.5 55.9 62.6 56.1 62.7 56.25 62.7 56.45 62.7 57 61.95 57 61.75 57 61.55 56.95
L 61.8 57.7
M 78.7 61.25
Q 77.8 60.8 76.85 60.8 75.85 60.8 75.25 61.25 74.65 61.7 74.65 62.55 74.65 63.75 76.25 64.4 77 64.75 77.25 64.95 77.5 65.2 77.5 65.55 77.5 66.15 76.65 66.15 75.85 66.15 75.2 65.65
L 74.65 66.8
Q 75.25 67.1 75.65 67.2 76 67.3 76.65 67.3 77.75 67.3 78.4 66.8 79.05 66.3 79.05 65.45 79.05 64.8 78.65 64.3 78.3 63.85 77.5 63.55 76.65 63.2 76.4 63 76.15 62.8 76.15 62.6 76.15 61.95 76.9 61.95 77.8 61.95 78.25 62.4
L 78.7 61.25
M 78.65 52.05
Q 78.65 50.55 77.85 49.65 77.1 48.8 75.65 48.8 74.3 48.8 73.45 49.7 72.65 50.6 72.65 52.05 72.65 53.55 73.45 54.45 74.2 55.3 75.65 55.3 77.05 55.3 77.85 54.45 78.65 53.55 78.65 52.05
M 77.15 52.05
Q 77.15 53.05 76.75 53.6 76.35 54.1 75.65 54.1 74.15 54.1 74.15 52.05 74.15 51.1 74.55 50.55 74.95 50 75.65 50 77.15 50 77.15 52.05
M 30.1 84.8
Q 28.8 84.8 27.9 85.75 27 86.65 27 88.15 27 89.65 27.8 90.5 28.65 91.3 30.1 91.3 31.6 91.3 32.4 90.7
L 31.85 89.55
Q 31.3 90.1 30.3 90.1 29.5 90.1 29.05 89.7 28.55 89.25 28.5 88.5
L 33 88.5
Q 33.1 87.95 33.1 87.7 33.1 86.45 32.3 85.6 31.45 84.8 30.1 84.8
M 31.65 87.4
L 28.55 87.4
Q 28.85 86.05 30.1 86.05 31.5 86.05 31.65 87.4
M 21.95 84.9
L 20.35 84.9 23.15 91.3 23.7 91.3 26.6 84.9 25.05 84.9 23.45 88.75 21.95 84.9
M 33.95 84.9
L 33.95 86.2 37.3 86.2 33.9 90.7 33.9 91.2 39.45 91.2 39.45 89.9 36.15 89.9 39.4 85.45 39.4 84.9 33.95 84.9
M 39.35 72.8
Q 38 72.8 37.15 73.7 36.35 74.6 36.35 76.05 36.35 77.55 37.15 78.45 37.9 79.3 39.35 79.3 40.75 79.3 41.55 78.45 42.35 77.55 42.35 76.05 42.35 74.55 41.55 73.65 40.8 72.8 39.35 72.8
M 40.45 77.6
Q 40.05 78.1 39.35 78.1 37.85 78.1 37.85 76.05 37.85 75.1 38.25 74.55 38.65 74 39.35 74 40.85 74 40.85 76.05 40.85 77.05 40.45 77.6
M 34.9 70.25
L 33.45 70.6 33.45 77.95
Q 33.45 79.3 34.45 79.3 35.25 79.3 35.6 78.65 34.9 78.45 34.9 77.3
L 34.9 70.25
M 29 72.8
Q 27.7 72.8 26.8 73.75 25.9 74.65 25.9 76.15 25.9 77.65 26.7 78.5 27.55 79.3 29 79.3 30.5 79.3 31.3 78.7
L 30.75 77.55
Q 30.2 78.1 29.2 78.1 28.4 78.1 27.95 77.7 27.45 77.25 27.4 76.5
L 31.9 76.5
Q 32 75.95 32 75.7 32 74.45 31.2 73.6 30.35 72.8 29 72.8
M 30.55 75.4
L 27.45 75.4
Q 27.75 74.05 29 74.05 30.4 74.05 30.55 75.4
M 22 72.8
Q 21.2 72.8 20.65 73.35
L 20.65 72.9 19.15 72.9 19.15 81.65 20.65 81.65 20.65 79.05
Q 21.2 79.3 21.9 79.3 23.35 79.3 24.15 78.5 25 77.65 25 76.1 25 72.8 22 72.8
M 21.55 78.1
Q 21.05 78.1 20.65 77.75
L 20.65 74.45
Q 21.05 74.05 21.6 74.05 22.6 74.05 23.05 74.5 23.45 74.95 23.45 76.05 23.45 77.1 23.05 77.6 22.6 78.1 21.55 78.1
M 28.15 61.6
Q 27.3 60.8 25.95 60.8 24.65 60.8 23.75 61.75 22.85 62.65 22.85 64.15 22.85 65.65 23.65 66.5 24.5 67.3 25.95 67.3 27.45 67.3 28.25 66.7
L 27.7 65.55
Q 27.15 66.1 26.15 66.1 25.35 66.1 24.9 65.7 24.4 65.25 24.35 64.5
L 28.85 64.5
Q 28.95 63.95 28.95 63.7 28.95 62.45 28.15 61.6
M 25.95 62.05
Q 27.35 62.05 27.5 63.4
L 24.4 63.4
Q 24.7 62.05 25.95 62.05
M 29 52.5
Q 29.1 51.95 29.1 51.7 29.1 50.45 28.3 49.6 27.45 48.8 26.1 48.8 24.8 48.8 23.9 49.75 23 50.65 23 52.15 23 53.65 23.8 54.5 24.65 55.3 26.1 55.3 27.6 55.3 28.4 54.7
L 27.85 53.55
Q 27.3 54.1 26.3 54.1 25.5 54.1 25.05 53.7 24.55 53.25 24.5 52.5
L 29 52.5
M 26.1 50.05
Q 27.5 50.05 27.65 51.4
L 24.55 51.4
Q 24.85 50.05 26.1 50.05
M 38.3 60.8
Q 36.7 60.8 35.8 61.7 34.9 62.65 34.9 64.1 34.9 65.6 35.7 66.45 36.55 67.3 38 67.3 38.65 67.3 39.15 67.2 39.6 67.1 40.25 66.7
L 39.7 65.55
Q 39.1 66.1 38.3 66.1 36.4 66.1 36.4 64.1 36.4 63.15 36.9 62.6 37.35 62.05 38.2 62.05 39.05 62.05 39.6 62.5
L 40.2 61.4
Q 39.4 60.8 38.3 60.8
M 33.8 61.25
Q 32.9 60.8 31.95 60.8 30.95 60.8 30.35 61.25 29.75 61.7 29.75 62.55 29.75 63.75 31.35 64.4 32.1 64.75 32.35 64.95 32.6 65.2 32.6 65.55 32.6 66.15 31.75 66.15 30.95 66.15 30.3 65.65
L 29.75 66.8
Q 30.35 67.1 30.75 67.2 31.1 67.3 31.75 67.3 32.85 67.3 33.5 66.8 34.15 66.3 34.15 65.45 34.15 64.8 33.75 64.3 33.4 63.85 32.6 63.55 31.75 63.2 31.5 63 31.25 62.8 31.25 62.6 31.25 61.95 32 61.95 32.9 61.95 33.35 62.4
L 33.8 61.25
M 35.65 47.65
L 35.65 48.9 34.95 48.9 34.95 50.1 35.65 50.1 35.65 53.3
Q 35.65 54.25 36.15 54.8 36.65 55.3 37.6 55.3 38.55 55.3 39.05 55.15
L 39.05 53.8
Q 38.6 54.1 38.1 54.1 37.55 54.1 37.35 53.8 37.15 53.5 37.15 52.85
L 37.15 50.1 38.85 50.1 38.85 48.9 37.15 48.9 37.15 47.1 35.65 47.65
M 32.1 48.8
Q 31.1 48.8 30.5 49.25 29.9 49.7 29.9 50.55 29.9 51.75 31.5 52.4 32.25 52.75 32.5 52.95 32.75 53.2 32.75 53.55 32.75 54.15 31.9 54.15 31.1 54.15 30.45 53.65
L 29.9 54.8
Q 30.5 55.1 30.9 55.2 31.25 55.3 31.9 55.3 33 55.3 33.65 54.8 34.3 54.3 34.3 53.45 34.3 52.8 33.9 52.3 33.55 51.85 32.75 51.55 31.9 51.2 31.65 51 31.4 50.8 31.4 50.6 31.4 49.95 32.15 49.95 33.05 49.95 33.5 50.4
L 33.95 49.25
Q 33.05 48.8 32.1 48.8
M 39.85 39.95
Q 39.85 38.1 39.2 37.45 38.5 36.8 37.1 36.8 36.05 36.8 35.3 37.15
L 35.6 38.3
Q 36.15 38.05 37 38.05 38.4 38.05 38.4 39.15 38.05 39.05 37.75 39.05 36.25 39.05 35.45 39.65 34.65 40.3 34.65 41.35 34.65 42.3 35.2 42.8 35.8 43.3 36.8 43.3 37.35 43.3 37.85 43.1 38.35 42.9 38.55 42.55 38.6 42.85 38.85 43.1 39.15 43.3 39.45 43.3 39.75 43.3 39.95 43.25 40.15 43.15 40.35 42.85 39.85 42.55 39.85 41.3
L 39.85 39.95
M 37.05 42.15
Q 36.1 42.15 36.1 41.3 36.1 40.15 37.85 40.15 38 40.15 38.4 40.25
L 38.4 40.85
Q 38.4 42.15 37.05 42.15
M 37.6 22.25
L 36.15 22.6 36.15 25.1
Q 35.55 24.8 34.85 24.8 33.55 24.8 32.65 25.75 31.8 26.7 31.8 28.15 31.8 29.65 32.55 30.5 33.3 31.3 34.6 31.3 35.1 31.3 35.5 31.15 35.95 31 36.15 30.8
L 36.15 31.2 37.6 31.2 37.6 22.25
M 36.15 29.7
Q 36.05 29.85 35.75 29.95 35.4 30.1 35.2 30.1 33.3 30.1 33.3 28.1 33.3 27.1 33.8 26.6 34.25 26.05 35.15 26.05 35.65 26.05 36.15 26.4
L 36.15 29.7
M 39.25 12.9
L 37.7 12.9 36.1 16.75 34.6 12.9 33 12.9 35.8 19.3 36.35 19.3 39.25 12.9
M 30.05 15.05
Q 28.55 15.05 27.75 15.65 26.95 16.3 26.95 17.35 26.95 18.3 27.5 18.8 28.1 19.3 29.1 19.3 29.65 19.3 30.15 19.1 30.65 18.9 30.85 18.55 30.9 18.85 31.15 19.1 31.45 19.3 31.75 19.3 32.05 19.3 32.25 19.25 32.45 19.15 32.65 18.85 32.15 18.55 32.15 17.3
L 32.15 15.95
Q 32.15 14.1 31.5 13.45 30.8 12.8 29.4 12.8 28.35 12.8 27.6 13.15
L 27.9 14.3
Q 28.45 14.05 29.3 14.05 30.7 14.05 30.7 15.15 30.35 15.05 30.05 15.05
M 28.4 17.3
Q 28.4 16.15 30.15 16.15 30.3 16.15 30.7 16.25
L 30.7 16.85
Q 30.7 18.15 29.35 18.15 28.4 18.15 28.4 17.3
M 22.3 10.6
L 20.8 10.6 20.8 19.2 26.2 19.2 26.2 17.85 22.3 17.85 22.3 10.6
M 76.45 41.45
Q 76.45 40.8 76.05 40.3 75.7 39.85 74.9 39.55 74.05 39.2 73.8 39 73.55 38.8 73.55 38.6 73.55 37.95 74.3 37.95 75.2 37.95 75.65 38.4
L 76.1 37.25
Q 75.2 36.8 74.25 36.8 73.25 36.8 72.65 37.25 72.05 37.7 72.05 38.55 72.05 39.75 73.65 40.4 74.4 40.75 74.65 40.95 74.9 41.2 74.9 41.55 74.9 42.15 74.05 42.15 73.25 42.15 72.6 41.65
L 72.05 42.8
Q 72.65 43.1 73.05 43.2 73.4 43.3 74.05 43.3 75.15 43.3 75.8 42.8 76.45 42.3 76.45 41.45
M 70.8 49.45
Q 70.1 48.8 68.7 48.8 67.65 48.8 66.9 49.15
L 67.2 50.3
Q 67.75 50.05 68.6 50.05 70 50.05 70 51.15 69.65 51.05 69.35 51.05 67.85 51.05 67.05 51.65 66.25 52.3 66.25 53.35 66.25 54.3 66.8 54.8 67.4 55.3 68.4 55.3 68.95 55.3 69.45 55.1 69.95 54.9 70.15 54.55 70.2 54.85 70.45 55.1 70.75 55.3 71.05 55.3 71.35 55.3 71.55 55.25 71.75 55.15 71.95 54.85 71.45 54.55 71.45 53.3
L 71.45 51.95
Q 71.45 50.1 70.8 49.45
M 69.45 52.15
Q 69.6 52.15 70 52.25
L 70 52.85
Q 70 54.15 68.65 54.15 67.7 54.15 67.7 53.3 67.7 52.15 69.45 52.15
M 66.8 48.25
L 67.65 48.25
Q 67.85 47.8 68.15 47.8 68.3 47.8 68.75 48.05 69.25 48.25 69.6 48.25 70.1 48.25 70.4 47.95 70.75 47.6 70.95 46.75
L 70.1 46.75
Q 69.95 47.2 69.6 47.2 69.45 47.2 69 47 68.55 46.75 68.1 46.75 67.6 46.75 67.25 47.15 66.9 47.6 66.8 48.25
M 65.4 49.4
Q 64.6 48.8 63.5 48.8 61.9 48.8 61 49.7 60.1 50.65 60.1 52.1 60.1 53.6 60.9 54.45 61.75 55.3 63.2 55.3 63.85 55.3 64.35 55.2 64.8 55.1 65.45 54.7
L 64.9 53.55
Q 64.3 54.1 63.5 54.1 61.6 54.1 61.6 52.1 61.6 51.15 62.1 50.6 62.55 50.05 63.4 50.05 64.25 50.05 64.8 50.5
L 65.4 49.4
M 67.25 39.95
Q 67.25 38.1 66.6 37.45 65.9 36.8 64.5 36.8 63.45 36.8 62.7 37.15
L 63 38.3
Q 63.55 38.05 64.4 38.05 65.8 38.05 65.8 39.15 65.45 39.05 65.15 39.05 63.65 39.05 62.85 39.65 62.05 40.3 62.05 41.35 62.05 42.3 62.6 42.8 63.2 43.3 64.2 43.3 64.75 43.3 65.25 43.1 65.75 42.9 65.95 42.55 66 42.85 66.25 43.1 66.55 43.3 66.85 43.3 67.15 43.3 67.35 43.25 67.55 43.15 67.75 42.85 67.25 42.55 67.25 41.3
L 67.25 39.95
M 65.8 40.25
L 65.8 40.85
Q 65.8 42.15 64.45 42.15 63.5 42.15 63.5 41.3 63.5 40.15 65.25 40.15 65.4 40.15 65.8 40.25
M 70.7 36.9
L 68.45 36.9 68.45 38.15 69.25 38.15 69.25 43.2 70.7 43.2 70.7 36.9
M 70.85 35.35
Q 70.85 35 70.6 34.75 70.35 34.5 70 34.5 69.65 34.5 69.4 34.75 69.15 35 69.15 35.35 69.15 35.7 69.4 35.95 69.65 36.2 70 36.2 70.35 36.2 70.6 35.95 70.85 35.7 70.85 35.35
M 67.45 24.9
L 66 24.9 66 29.25
Q 65.85 29.6 65.4 29.85 65 30.1 64.5 30.1 63.4 30.1 63.4 28.9
L 63.4 24.9 61.95 24.9 61.95 29
Q 61.95 31.3 64.15 31.3 64.6 31.3 65.15 31.15 65.65 30.95 66 30.7
L 66 31.2 67.45 31.2 67.45 24.9
M 73.2 25.45
Q 72.5 24.8 71.1 24.8 70.05 24.8 69.3 25.15
L 69.6 26.3
Q 70.15 26.05 71 26.05 72.4 26.05 72.4 27.15 72.05 27.05 71.75 27.05 70.25 27.05 69.45 27.65 68.65 28.3 68.65 29.35 68.65 30.3 69.2 30.8 69.8 31.3 70.8 31.3 71.35 31.3 71.85 31.1 72.35 30.9 72.55 30.55 72.6 30.85 72.85 31.1 73.15 31.3 73.45 31.3 73.75 31.3 73.95 31.25 74.15 31.15 74.35 30.85 73.85 30.55 73.85 29.3
L 73.85 27.95
Q 73.85 26.1 73.2 25.45
M 71.85 28.15
Q 72 28.15 72.4 28.25
L 72.4 28.85
Q 72.4 30.15 71.05 30.15 70.1 30.15 70.1 29.3 70.1 28.15 71.85 28.15
M 58.25 49.45
Q 57.55 48.8 56.15 48.8 55.1 48.8 54.35 49.15
L 54.65 50.3
Q 55.2 50.05 56.05 50.05 57.45 50.05 57.45 51.15 57.1 51.05 56.8 51.05 55.3 51.05 54.5 51.65 53.7 52.3 53.7 53.35 53.7 54.3 54.25 54.8 54.85 55.3 55.85 55.3 56.4 55.3 56.9 55.1 57.4 54.9 57.6 54.55 57.65 54.85 57.9 55.1 58.2 55.3 58.5 55.3 58.8 55.3 59 55.25 59.2 55.15 59.4 54.85 58.9 54.55 58.9 53.3
L 58.9 51.95
Q 58.9 50.1 58.25 49.45
M 56.9 52.15
Q 57.05 52.15 57.45 52.25
L 57.45 52.85
Q 57.45 54.15 56.1 54.15 55.15 54.15 55.15 53.3 55.15 52.15 56.9 52.15
M 44.8 48.9
L 43.8 48.9 43.8 55.2 45.25 55.2 45.25 50.7
Q 45.4 50.45 45.75 50.25 46.05 50.05 46.35 50.05 46.85 50.05 47.15 50.3 47.4 50.6 47.4 51.05
L 47.4 55.2 48.9 55.2 48.9 50.65
Q 49 50.4 49.3 50.25 49.6 50.05 49.95 50.05 51.05 50.05 51.05 51.25
L 51.05 55.2 52.5 55.2 52.5 51.05
Q 52.5 50 51.95 49.4 51.35 48.8 50.3 48.8 49.8 48.8 49.3 49 48.85 49.2 48.55 49.5 47.9 48.8 46.65 48.8 45.7 48.8 45.1 49.5
L 44.8 48.9
M 41.95 46.75
Q 41.7 46.5 41.35 46.5 41 46.5 40.75 46.75 40.5 47 40.5 47.35 40.5 47.7 40.75 47.95 41 48.2 41.35 48.2 41.7 48.2 41.95 47.95 42.2 47.7 42.2 47.35 42.2 47 41.95 46.75
M 50.4 36.9
L 48.15 36.9 48.15 38.15 48.95 38.15 48.95 43.2 50.4 43.2 50.4 36.9
M 50.55 35.35
Q 50.55 35 50.3 34.75 50.05 34.5 49.7 34.5 49.35 34.5 49.1 34.75 48.85 35 48.85 35.35 48.85 35.7 49.1 35.95 49.35 36.2 49.7 36.2 50.05 36.2 50.3 35.95 50.55 35.7 50.55 35.35
M 42.5 36.9
L 41.45 36.9 41.45 43.2 42.9 43.2 42.9 38.65
Q 43.1 38.4 43.5 38.2 43.85 38.05 44.15 38.05 44.85 38.05 45.15 38.4 45.5 38.75 45.5 39.55
L 45.5 43.2 46.95 43.2 46.95 39.35
Q 46.95 38.15 46.3 37.5 45.65 36.8 44.55 36.8 43.35 36.8 42.75 37.5
L 42.5 36.9
M 44.75 27.7
Q 44.75 26.45 43.95 25.6 43.1 24.8 41.75 24.8 40.45 24.8 39.55 25.75 38.65 26.65 38.65 28.15 38.65 29.65 39.45 30.5 40.3 31.3 41.75 31.3 43.25 31.3 44.05 30.7
L 43.5 29.55
Q 42.95 30.1 41.95 30.1 41.15 30.1 40.7 29.7 40.2 29.25 40.15 28.5
L 44.65 28.5
Q 44.75 27.95 44.75 27.7
M 41.75 26.05
Q 43.15 26.05 43.3 27.4
L 40.2 27.4
Q 40.5 26.05 41.75 26.05
M 53.15 36.9
L 52.15 36.9 52.15 43.2 53.6 43.2 53.6 38.7
Q 53.75 38.45 54.1 38.25 54.4 38.05 54.7 38.05 55.2 38.05 55.5 38.3 55.75 38.6 55.75 39.05
L 55.75 43.2 57.25 43.2 57.25 38.65
Q 57.35 38.4 57.65 38.25 57.95 38.05 58.3 38.05 59.4 38.05 59.4 39.25
L 59.4 43.2 60.85 43.2 60.85 39.05
Q 60.85 38 60.3 37.4 59.7 36.8 58.65 36.8 58.15 36.8 57.65 37 57.2 37.2 56.9 37.5 56.25 36.8 55 36.8 54.05 36.8 53.45 37.5
L 53.15 36.9
M 51.5 26.05
Q 52.9 26.05 52.9 27.15 52.55 27.05 52.25 27.05 50.75 27.05 49.95 27.65 49.15 28.3 49.15 29.35 49.15 30.3 49.7 30.8 50.3 31.3 51.3 31.3 51.85 31.3 52.35 31.1 52.85 30.9 53.05 30.55 53.1 30.85 53.35 31.1 53.65 31.3 53.95 31.3 54.25 31.3 54.45 31.25 54.65 31.15 54.85 30.85 54.35 30.55 54.35 29.3
L 54.35 27.95
Q 54.35 26.1 53.7 25.45 53 24.8 51.6 24.8 50.55 24.8 49.8 25.15
L 50.1 26.3
Q 50.65 26.05 51.5 26.05
M 52.35 28.15
Q 52.5 28.15 52.9 28.25
L 52.9 28.85
Q 52.9 30.15 51.55 30.15 50.6 30.15 50.6 29.3 50.6 28.15 52.35 28.15
M 60.65 27.15
Q 60.65 26.4 60.3 25.85
L 61 25.35 60 24.45 59.4 25.1
Q 58.85 24.8 58 24.8 56.9 24.8 56.2 25.45 55.45 26.1 55.45 27.1 55.45 28.4 56.5 29.1 56.2 29.25 55.95 29.55 55.7 29.85 55.7 30.15 55.7 31.25 57.2 31.25 57.45 31.25 57.9 31.15 58.4 31.1 58.65 31.1 59.55 31.1 59.55 31.65 59.55 32 59.15 32.2 58.75 32.35 58.1 32.35 57.15 32.35 56.4 31.65
L 55.45 32.8
Q 56.65 33.65 58.1 33.65 59.3 33.65 60.15 33.1 61 32.6 61 31.65 61 29.9 58.85 29.9 58.55 29.9 58.15 30 57.7 30.1 57.5 30.1 57.1 30.1 57.1 29.85 57.1 29.7 57.4 29.6 57.65 29.45 57.7 29.45
L 57.95 29.5
Q 58.2 29.55 58.35 29.55 59.35 29.55 60 28.9 60.65 28.25 60.65 27.15
M 58.85 26.35
Q 59.15 26.65 59.15 27.15 59.15 27.7 58.9 28.05 58.6 28.35 58.05 28.35 57.55 28.35 57.25 28 56.95 27.7 56.95 27.15 56.95 26.65 57.25 26.3 57.55 26 58.05 26 58.55 26 58.85 26.35
M 53.35 22.35
L 51.9 22.35 50.9 24.1 52.05 24.1 53.35 22.35
M 53.9 15.15
Q 53.55 15.05 53.25 15.05 51.75 15.05 50.95 15.65 50.15 16.3 50.15 17.35 50.15 18.3 50.7 18.8 51.3 19.3 52.3 19.3 52.85 19.3 53.35 19.1 53.85 18.9 54.05 18.55 54.1 18.85 54.35 19.1 54.65 19.3 54.95 19.3 55.25 19.3 55.45 19.25 55.65 19.15 55.85 18.85 55.35 18.55 55.35 17.3
L 55.35 15.95
Q 55.35 14.1 54.7 13.45 54 12.8 52.6 12.8 51.55 12.8 50.8 13.15
L 51.1 14.3
Q 51.65 14.05 52.5 14.05 53.9 14.05 53.9 15.15
M 52.55 18.15
Q 51.6 18.15 51.6 17.3 51.6 16.15 53.35 16.15 53.5 16.15 53.9 16.25
L 53.9 16.85
Q 53.9 18.15 52.55 18.15
M 60.15 14.4
L 60.6 13.25
Q 59.7 12.8 58.75 12.8 57.75 12.8 57.15 13.25 56.55 13.7 56.55 14.55 56.55 15.75 58.15 16.4 58.9 16.75 59.15 16.95 59.4 17.2 59.4 17.55 59.4 18.15 58.55 18.15 57.75 18.15 57.1 17.65
L 56.55 18.8
Q 57.15 19.1 57.55 19.2 57.9 19.3 58.55 19.3 59.65 19.3 60.3 18.8 60.95 18.3 60.95 17.45 60.95 16.8 60.55 16.3 60.2 15.85 59.4 15.55 58.55 15.2 58.3 15 58.05 14.8 58.05 14.6 58.05 13.95 58.8 13.95 59.7 13.95 60.15 14.4
M 45.65 16.5
Q 45.75 15.95 45.75 15.7 45.75 14.45 44.95 13.6 44.1 12.8 42.75 12.8 41.45 12.8 40.55 13.75 39.65 14.65 39.65 16.15 39.65 17.65 40.45 18.5 41.3 19.3 42.75 19.3 44.25 19.3 45.05 18.7
L 44.5 17.55
Q 43.95 18.1 42.95 18.1 42.15 18.1 41.7 17.7 41.2 17.25 41.15 16.5
L 45.65 16.5
M 41.2 15.4
Q 41.5 14.05 42.75 14.05 44.15 14.05 44.3 15.4
L 41.2 15.4
M 76.8 17.3
L 76.8 15.95
Q 76.8 14.1 76.15 13.45 75.45 12.8 74.05 12.8 73 12.8 72.25 13.15
L 72.55 14.3
Q 73.1 14.05 73.95 14.05 75.35 14.05 75.35 15.15 75 15.05 74.7 15.05 73.2 15.05 72.4 15.65 71.6 16.3 71.6 17.35 71.6 18.3 72.15 18.8 72.75 19.3 73.75 19.3 74.3 19.3 74.8 19.1 75.3 18.9 75.5 18.55 75.55 18.85 75.8 19.1 76.1 19.3 76.4 19.3 76.7 19.3 76.9 19.25 77.1 19.15 77.3 18.85 76.8 18.55 76.8 17.3
M 75.35 16.25
L 75.35 16.85
Q 75.35 18.15 74 18.15 73.05 18.15 73.05 17.3 73.05 16.15 74.8 16.15 74.95 16.15 75.35 16.25
M 67.75 19.3
L 68.3 19.3 71.2 12.9 69.65 12.9 68.05 16.75 66.55 12.9 64.95 12.9 67.75 19.3
M 104.65 84.8
Q 103.6 84.8 102.85 85.15
L 103.15 86.3
Q 103.7 86.05 104.55 86.05 105.95 86.05 105.95 87.15 105.6 87.05 105.3 87.05 103.8 87.05 103 87.65 102.2 88.3 102.2 89.35 102.2 90.3 102.75 90.8 103.35 91.3 104.35 91.3 104.9 91.3 105.4 91.1 105.9 90.9 106.1 90.55 106.15 90.85 106.4 91.1 106.7 91.3 107 91.3 107.3 91.3 107.5 91.25 107.7 91.15 107.9 90.85 107.4 90.55 107.4 89.3
L 107.4 87.95
Q 107.4 86.1 106.75 85.45 106.05 84.8 104.65 84.8
M 105.4 88.15
Q 105.55 88.15 105.95 88.25
L 105.95 88.85
Q 105.95 90.15 104.6 90.15 103.65 90.15 103.65 89.3 103.65 88.15 105.4 88.15
M 84.3 86.25
Q 84.6 86.05 84.95 86.05 86.05 86.05 86.05 87.25
L 86.05 91.2 87.5 91.2 87.5 87.05
Q 87.5 86 86.95 85.4 86.35 84.8 85.3 84.8 84.8 84.8 84.3 85 83.85 85.2 83.55 85.5 82.9 84.8 81.65 84.8 80.7 84.8 80.1 85.5
L 79.8 84.9 78.8 84.9 78.8 91.2 80.25 91.2 80.25 86.7
Q 80.4 86.45 80.75 86.25 81.05 86.05 81.35 86.05 81.85 86.05 82.15 86.3 82.4 86.6 82.4 87.05
L 82.4 91.2 83.9 91.2 83.9 86.65
Q 84 86.4 84.3 86.25
M 82.25 77.45
Q 82.25 76.8 81.85 76.3 81.5 75.85 80.7 75.55 79.85 75.2 79.6 75 79.35 74.8 79.35 74.6 79.35 73.95 80.1 73.95 81 73.95 81.45 74.4
L 81.9 73.25
Q 81 72.8 80.05 72.8 79.05 72.8 78.45 73.25 77.85 73.7 77.85 74.55 77.85 75.75 79.45 76.4 80.2 76.75 80.45 76.95 80.7 77.2 80.7 77.55 80.7 78.15 79.85 78.15 79.05 78.15 78.4 77.65
L 77.85 78.8
Q 78.45 79.1 78.85 79.2 79.2 79.3 79.85 79.3 80.95 79.3 81.6 78.8 82.25 78.3 82.25 77.45
M 98.2 86.05
Q 98.9 86.05 99.2 86.4 99.55 86.75 99.55 87.55
L 99.55 91.2 101 91.2 101 87.35
Q 101 86.15 100.35 85.5 99.7 84.8 98.6 84.8 97.4 84.8 96.8 85.5
L 96.55 84.9 95.5 84.9 95.5 91.2 96.95 91.2 96.95 86.65
Q 97.15 86.4 97.55 86.2 97.9 86.05 98.2 86.05
M 93.25 85.45
Q 92.55 84.8 91.15 84.8 90.1 84.8 89.35 85.15
L 89.65 86.3
Q 90.2 86.05 91.05 86.05 92.45 86.05 92.45 87.15 92.1 87.05 91.8 87.05 90.3 87.05 89.5 87.65 88.7 88.3 88.7 89.35 88.7 90.3 89.25 90.8 89.85 91.3 90.85 91.3 91.4 91.3 91.9 91.1 92.4 90.9 92.6 90.55 92.65 90.85 92.9 91.1 93.2 91.3 93.5 91.3 93.8 91.3 94 91.25 94.2 91.15 94.4 90.85 93.9 90.55 93.9 89.3
L 93.9 87.95
Q 93.9 86.1 93.25 85.45
M 91.1 90.15
Q 90.15 90.15 90.15 89.3 90.15 88.15 91.9 88.15 92.05 88.15 92.45 88.25
L 92.45 88.85
Q 92.45 90.15 91.1 90.15
M 95.4 73.5
L 95.1 72.9 94.1 72.9 94.1 79.2 95.55 79.2 95.55 74.7
Q 95.7 74.45 96.05 74.25 96.35 74.05 96.65 74.05 97.15 74.05 97.45 74.3 97.7 74.6 97.7 75.05
L 97.7 79.2 99.2 79.2 99.2 74.65
Q 99.3 74.4 99.6 74.25 99.9 74.05 100.25 74.05 101.35 74.05 101.35 75.25
L 101.35 79.2 102.8 79.2 102.8 75.05
Q 102.8 74 102.25 73.4 101.65 72.8 100.6 72.8 100.1 72.8 99.6 73 99.15 73.2 98.85 73.5 98.2 72.8 96.95 72.8 96 72.8 95.4 73.5
M 88.45 72.9
L 87 72.9 87 77
Q 87 79.3 89.2 79.3 89.65 79.3 90.2 79.15 90.7 78.95 91.05 78.7
L 91.05 79.2 92.5 79.2 92.5 72.9 91.05 72.9 91.05 77.25
Q 90.9 77.6 90.45 77.85 90.05 78.1 89.55 78.1 88.45 78.1 88.45 76.9
L 88.45 72.9
M 87.95 58.25
L 86.45 58.6 86.45 67.3 87.3 67.3 87.65 66.85
Q 88.25 67.3 89.15 67.3 90.6 67.3 91.45 66.4 92.3 65.5 92.3 63.9 92.3 62.55 91.45 61.7 90.6 60.8 89.2 60.8 88.5 60.8 87.95 61.15
L 87.95 58.25
M 88.95 62.05
Q 90.75 62.05 90.75 63.95 90.75 65.05 90.3 65.55 89.85 66.1 88.8 66.1 88.25 66.1 87.95 65.7
L 87.95 62.4
Q 88.3 62.05 88.95 62.05
M 84.35 61.45
Q 83.65 60.8 82.25 60.8 81.2 60.8 80.45 61.15
L 80.75 62.3
Q 81.3 62.05 82.15 62.05 83.55 62.05 83.55 63.15 83.2 63.05 82.9 63.05 81.4 63.05 80.6 63.65 79.8 64.3 79.8 65.35 79.8 66.3 80.35 66.8 80.95 67.3 81.95 67.3 82.5 67.3 83 67.1 83.5 66.9 83.7 66.55 83.75 66.85 84 67.1 84.3 67.3 84.6 67.3 84.9 67.3 85.1 67.25 85.3 67.15 85.5 66.85 85 66.55 85 65.3
L 85 63.95
Q 85 62.1 84.35 61.45
M 83.55 64.25
L 83.55 64.85
Q 83.55 66.15 82.2 66.15 81.25 66.15 81.25 65.3 81.25 64.15 83 64.15 83.15 64.15 83.55 64.25
M 95.65 60.8
Q 94.6 60.8 93.85 61.15
L 94.15 62.3
Q 94.7 62.05 95.55 62.05 96.95 62.05 96.95 63.15 96.6 63.05 96.3 63.05 94.8 63.05 94 63.65 93.2 64.3 93.2 65.35 93.2 66.3 93.75 66.8 94.35 67.3 95.35 67.3 95.9 67.3 96.4 67.1 96.9 66.9 97.1 66.55 97.15 66.85 97.4 67.1 97.7 67.3 98 67.3 98.3 67.3 98.5 67.25 98.7 67.15 98.9 66.85 98.4 66.55 98.4 65.3
L 98.4 63.95
Q 98.4 62.1 97.75 61.45 97.05 60.8 95.65 60.8
M 96.95 64.25
L 96.95 64.85
Q 96.95 66.15 95.6 66.15 94.65 66.15 94.65 65.3 94.65 64.15 96.4 64.15 96.55 64.15 96.95 64.25
M 95.95 59
Q 95.5 58.75 95.05 58.75 94.55 58.75 94.2 59.15 93.85 59.6 93.75 60.25
L 94.6 60.25
Q 94.8 59.8 95.1 59.8 95.25 59.8 95.7 60.05 96.2 60.25 96.55 60.25 97.05 60.25 97.35 59.95 97.7 59.6 97.9 58.75
L 97.05 58.75
Q 96.9 59.2 96.55 59.2 96.4 59.2 95.95 59
M 92.2 55.3
Q 93.6 55.3 94.4 54.45 95.2 53.55 95.2 52.05 95.2 50.55 94.4 49.65 93.65 48.8 92.2 48.8 90.85 48.8 90 49.7 89.2 50.6 89.2 52.05 89.2 53.55 90 54.45 90.75 55.3 92.2 55.3
M 92.2 50
Q 93.7 50 93.7 52.05 93.7 53.05 93.3 53.6 92.9 54.1 92.2 54.1 90.7 54.1 90.7 52.05 90.7 51.1 91.1 50.55 91.5 50 92.2 50
M 108.55 73.45
Q 107.85 72.8 106.45 72.8 105.4 72.8 104.65 73.15
L 104.95 74.3
Q 105.5 74.05 106.35 74.05 107.75 74.05 107.75 75.15 107.4 75.05 107.1 75.05 105.6 75.05 104.8 75.65 104 76.3 104 77.35 104 78.3 104.55 78.8 105.15 79.3 106.15 79.3 106.7 79.3 107.2 79.1 107.7 78.9 107.9 78.55 107.95 78.85 108.2 79.1 108.5 79.3 108.8 79.3 109.1 79.3 109.3 79.25 109.5 79.15 109.7 78.85 109.2 78.55 109.2 77.3
L 109.2 75.95
Q 109.2 74.1 108.55 73.45
M 107.2 76.15
Q 107.35 76.15 107.75 76.25
L 107.75 76.85
Q 107.75 78.15 106.4 78.15 105.45 78.15 105.45 77.3 105.45 76.15 107.2 76.15
M 104.8 61.65
Q 104.05 60.8 102.6 60.8 101.25 60.8 100.4 61.7 99.6 62.6 99.6 64.05 99.6 65.55 100.4 66.45 101.15 67.3 102.6 67.3 104 67.3 104.8 66.45 105.6 65.55 105.6 64.05 105.6 62.55 104.8 61.65
M 103.7 65.6
Q 103.3 66.1 102.6 66.1 101.1 66.1 101.1 64.05 101.1 63.1 101.5 62.55 101.9 62 102.6 62 104.1 62 104.1 64.05 104.1 65.05 103.7 65.6
M 97.4 48.9
L 96.4 48.9 96.4 55.2 97.85 55.2 97.85 50.7
Q 98 50.45 98.35 50.25 98.65 50.05 98.95 50.05 99.45 50.05 99.75 50.3 100 50.6 100 51.05
L 100 55.2 101.5 55.2 101.5 50.65
Q 101.6 50.4 101.9 50.25 102.2 50.05 102.55 50.05 103.65 50.05 103.65 51.25
L 103.65 55.2 105.1 55.2 105.1 51.05
Q 105.1 50 104.55 49.4 103.95 48.8 102.9 48.8 102.4 48.8 101.9 49 101.45 49.2 101.15 49.5 100.5 48.8 99.25 48.8 98.3 48.8 97.7 49.5
L 97.4 48.9
M 88.35 49.4
Q 87.55 48.8 86.45 48.8 84.85 48.8 83.95 49.7 83.05 50.65 83.05 52.1 83.05 53.6 83.85 54.45 84.7 55.3 86.15 55.3 86.8 55.3 87.3 55.2 87.75 55.1 88.4 54.7
L 87.85 53.55
Q 87.25 54.1 86.45 54.1 84.55 54.1 84.55 52.1 84.55 51.15 85.05 50.6 85.5 50.05 86.35 50.05 87.2 50.05 87.75 50.5
L 88.35 49.4
M 88.65 37.75
Q 87.75 38.65 87.75 40.15 87.75 41.65 88.55 42.5 89.4 43.3 90.85 43.3 92.35 43.3 93.15 42.7
L 92.6 41.55
Q 92.05 42.1 91.05 42.1 90.25 42.1 89.8 41.7 89.3 41.25 89.25 40.5
L 93.75 40.5
Q 93.85 39.95 93.85 39.7 93.85 38.45 93.05 37.6 92.2 36.8 90.85 36.8 89.55 36.8 88.65 37.75
M 89.3 39.4
Q 89.6 38.05 90.85 38.05 92.25 38.05 92.4 39.4
L 89.3 39.4
M 85.25 37.1
Q 84.65 36.8 83.95 36.8 82.65 36.8 81.75 37.75 80.9 38.7 80.9 40.15 80.9 41.65 81.65 42.5 82.4 43.3 83.7 43.3 84.2 43.3 84.6 43.15 85.05 43 85.25 42.8
L 85.25 43.2 86.7 43.2 86.7 34.25 85.25 34.6 85.25 37.1
M 84.25 38.05
Q 84.75 38.05 85.25 38.4
L 85.25 41.7
Q 85.15 41.85 84.85 41.95 84.5 42.1 84.3 42.1 82.4 42.1 82.4 40.1 82.4 39.1 82.9 38.6 83.35 38.05 84.25 38.05
M 90.8 25.65
Q 90.05 24.8 88.6 24.8 87.25 24.8 86.4 25.7 85.6 26.6 85.6 28.05 85.6 29.55 86.4 30.45 87.15 31.3 88.6 31.3 90 31.3 90.8 30.45 91.6 29.55 91.6 28.05 91.6 26.55 90.8 25.65
M 90.1 28.05
Q 90.1 29.05 89.7 29.6 89.3 30.1 88.6 30.1 87.1 30.1 87.1 28.05 87.1 27.1 87.5 26.55 87.9 26 88.6 26 90.1 26 90.1 28.05
M 96.8 29.45
Q 96.8 28.8 96.4 28.3 96.05 27.85 95.25 27.55 94.4 27.2 94.15 27 93.9 26.8 93.9 26.6 93.9 25.95 94.65 25.95 95.55 25.95 96 26.4
L 96.45 25.25
Q 95.55 24.8 94.6 24.8 93.6 24.8 93 25.25 92.4 25.7 92.4 26.55 92.4 27.75 94 28.4 94.75 28.75 95 28.95 95.25 29.2 95.25 29.55 95.25 30.15 94.4 30.15 93.6 30.15 92.95 29.65
L 92.4 30.8
Q 93 31.1 93.4 31.2 93.75 31.3 94.4 31.3 95.5 31.3 96.15 30.8 96.8 30.3 96.8 29.45
M 95.55 13.45
Q 94.9 12.8 93.75 12.8 92.75 12.8 92.2 13.3
L 92.2 10.25 90.7 10.6 90.7 19.2 92.2 19.2 92.2 14.7
Q 92.35 14.45 92.7 14.25 93.1 14.05 93.45 14.05 94.05 14.05 94.4 14.4 94.75 14.75 94.75 15.35
L 94.75 19.2 96.2 19.2 96.2 15.35
Q 96.2 14.1 95.55 13.45
M 84.55 22.25
L 83.1 22.6 83.1 25.1
Q 82.5 24.8 81.8 24.8 80.5 24.8 79.6 25.75 78.75 26.7 78.75 28.15 78.75 29.65 79.5 30.5 80.25 31.3 81.55 31.3 82.05 31.3 82.45 31.15 82.9 31 83.1 30.8
L 83.1 31.2 84.55 31.2 84.55 22.25
M 82.1 26.05
Q 82.6 26.05 83.1 26.4
L 83.1 29.7
Q 83 29.85 82.7 29.95 82.35 30.1 82.15 30.1 80.25 30.1 80.25 28.1 80.25 27.1 80.75 26.6 81.2 26.05 82.1 26.05
M 83.15 14.15
L 83.95 14.15 83.95 19.2 85.4 19.2 85.4 12.9 83.15 12.9 83.15 14.15
M 81.6 14.4
L 82.05 13.25
Q 81.15 12.8 80.2 12.8 79.2 12.8 78.6 13.25 78 13.7 78 14.55 78 15.75 79.6 16.4 80.35 16.75 80.6 16.95 80.85 17.2 80.85 17.55 80.85 18.15 80 18.15 79.2 18.15 78.55 17.65
L 78 18.8
Q 78.6 19.1 79 19.2 79.35 19.3 80 19.3 81.1 19.3 81.75 18.8 82.4 18.3 82.4 17.45 82.4 16.8 82 16.3 81.65 15.85 80.85 15.55 80 15.2 79.75 15 79.5 14.8 79.5 14.6 79.5 13.95 80.25 13.95 81.15 13.95 81.6 14.4
M 88.85 10.25
L 87.4 10.6 87.4 17.95
Q 87.4 19.3 88.4 19.3 89.2 19.3 89.55 18.65 88.85 18.45 88.85 17.3
L 88.85 10.25
M 83.85 11.35
Q 83.85 11.7 84.1 11.95 84.35 12.2 84.7 12.2 85.05 12.2 85.3 11.95 85.55 11.7 85.55 11.35 85.55 11 85.3 10.75 85.05 10.5 84.7 10.5 84.35 10.5 84.1 10.75 83.85 11 83.85 11.35
M 102.6 17.3
L 102.6 15.95
Q 102.6 14.1 101.95 13.45 101.25 12.8 99.85 12.8 98.8 12.8 98.05 13.15
L 98.35 14.3
Q 98.9 14.05 99.75 14.05 101.15 14.05 101.15 15.15 100.8 15.05 100.5 15.05 99 15.05 98.2 15.65 97.4 16.3 97.4 17.35 97.4 18.3 97.95 18.8 98.55 19.3 99.55 19.3 100.1 19.3 100.6 19.1 101.1 18.9 101.3 18.55 101.35 18.85 101.6 19.1 101.9 19.3 102.2 19.3 102.5 19.3 102.7 19.25 102.9 19.15 103.1 18.85 102.6 18.55 102.6 17.3
M 98.85 17.3
Q 98.85 16.15 100.6 16.15 100.75 16.15 101.15 16.25
L 101.15 16.85
Q 101.15 18.15 99.8 18.15 98.85 18.15 98.85 17.3
M 106.4 16.95
Q 106.65 17.2 106.65 17.55 106.65 18.15 105.8 18.15 105 18.15 104.35 17.65
L 103.8 18.8
Q 104.4 19.1 104.8 19.2 105.15 19.3 105.8 19.3 106.9 19.3 107.55 18.8 108.2 18.3 108.2 17.45 108.2 16.8 107.8 16.3 107.45 15.85 106.65 15.55 105.8 15.2 105.55 15 105.3 14.8 105.3 14.6 105.3 13.95 106.05 13.95 106.95 13.95 107.4 14.4
L 107.85 13.25
Q 106.95 12.8 106 12.8 105 12.8 104.4 13.25 103.8 13.7 103.8 14.55 103.8 15.75 105.4 16.4 106.15 16.75 106.4 16.95 Z"/>
</g>

<path id="Layer0_0_1_STROKES" stroke="#8CA8B8" stroke-width="1" stroke-linejoin="round" stroke-linecap="round" fill="none" d="
M 118.8 0.4
Q 122.9 0.4 125.8 3.35 128.75 6.25 128.75 10.35
L 128.75 91.95
Q 128.65 95.9 125.8 98.7 122.9 101.65 118.8 101.65
L 10.15 101.65
Q 6.05 101.65 3.15 98.7 0.35 95.9 0.25 91.95
L 0.25 10.35
Q 0.25 6.25 3.15 3.35 6.05 0.4 10.15 0.4
L 118.75 0.4"/>
</defs>

<g transform="matrix( 1, 0, 0, 1, 0,0) ">
<use xlink:href="#Layer0_0_FILL"/>

<use xlink:href="#Layer0_0_1_STROKES"/>
</g>
</svg>
