<svg xmlns="http://www.w3.org/2000/svg" xmlns:xlink="http://www.w3.org/1999/xlink" preserveAspectRatio="none" width="129" height="102" viewBox="0 0 129 102"><defs><path fill="#0CC" d="M128.75 10.35q0-4.1-2.95-7-2.9-2.95-7-2.95H10.15q-4.1 0-7 2.95-2.9 2.9-2.9 7v81.6q.1 3.95 2.9 6.75 2.9 2.95 7 2.95H118.8q4.1 0 7-2.95 2.85-2.8 2.95-6.75v-81.6M27.5 23.5h.65l3.45 8.7h-1.65l-.65-1.75h-2.95l-.6 1.75H24.1l3.4-8.7m9.05 3.2q.9-.9 2.5-.9 1.1 0 1.9.6l-.6 1.1q-.55-.45-1.4-.45-.85 0-1.3.55-.5.55-.5 1.5 0 2 1.9 2 .8 0 1.4-.55L41 31.7q-.65.4-1.1.5-.5.1-1.15.1-1.45 0-2.3-.85-.8-.85-.8-2.35 0-1.45.9-2.4M47 28.95v1.35q0 1.25.5 1.55-.2.3-.4.4-.2.05-.5.05t-.6-.2q-.25-.25-.3-.55-.2.35-.7.55-.5.2-1.05.2-1 0-1.6-.5-.55-.5-.55-1.45 0-1.05.8-1.7.8-.6 2.3-.6.3 0 .65.1 0-1.1-1.4-1.1-.85 0-1.4.25l-.3-1.15q.75-.35 1.8-.35 1.4 0 2.1.65.65.65.65 2.5m2.15-5.2q.25-.25.6-.25t.6.25q.25.25.25.6t-.25.6q-.25.25-.6.25t-.6-.25q-.25-.25-.25-.6t.25-.6m-.15 3.4h-.8V25.9h2.25v6.3H49v-5.05m7.1-1.25h1.7L55.35 29 58 32.2h-1.8l-1.6-2.05-1.45 2.05h-1.7l2.4-3.2-2.25-3.1h1.7l1.35 1.95 1.45-1.95m2.35 4.45q0-1.05.8-1.7.8-.6 2.3-.6.3 0 .65.1 0-1.1-1.4-1.1-.85 0-1.4.25l-.3-1.15q.75-.35 1.8-.35 1.4 0 2.1.65.65.65.65 2.5v1.35q0 1.25.5 1.55-.2.3-.4.4-.2.05-.5.05t-.6-.2q-.25-.25-.3-.55-.2.35-.7.55-.5.2-1.05.2-1 0-1.6-.5-.55-.5-.55-1.45M72.9 23.6l1.45-.35v8.95H72.9v-.4q-.2.2-.65.35-.4.15-.9.15-1.3 0-2.05-.8-.75-.85-.75-2.35 0-1.45.85-2.4.9-.95 2.2-.95.7 0 1.3.3v-2.5m5.05.05q.25.3.25.85 0 1.6-1.65 2.65l-.5-.65q.55-.45.65-.65.15-.2.15-.4 0-.25-.3-.55-.3-.25-.3-.6 0-.95.95-.95.5 0 .75.3m4.6-.3H84l-1.3 1.75h-1.15l1-1.75m2.45 5.6v1.35q0 1.25.5 1.55-.2.3-.4.4-.2.05-.5.05t-.6-.2q-.25-.25-.3-.55-.2.35-.7.55-.5.2-1.05.2-1 0-1.6-.5-.55-.5-.55-1.45 0-1.05.8-1.7.8-.6 2.3-.6.3 0 .65.1 0-1.1-1.4-1.1-.85 0-1.4.25l-.3-1.15q.75-.35 1.8-.35 1.4 0 2.1.65.65.65.65 2.5m5.05-2.85l.6-.65 1 .9-.7.5q.35.55.35 1.3 0 1.1-.65 1.75-.65.65-1.65.65-.15 0-.4-.05l-.25-.05q-.05 0-.3.15-.3.1-.3.25 0 .25.4.25.2 0 .65-.1.4-.1.7-.1 2.15 0 2.15 1.75 0 .95-.85 1.45-.85.55-2.05.55-1.45 0-2.65-.85l.95-1.15q.75.7 1.7.7.65 0 1.05-.15.4-.2.4-.55 0-.55-.9-.55-.25 0-.75.05-.45.1-.7.1-1.5 0-1.5-1.1 0-.3.25-.6t.55-.45q-1.05-.7-1.05-2 0-1 .75-1.65.7-.65 1.8-.65.85 0 1.4.3m9.25 4.25q0-1.05.8-1.7.8-.6 2.3-.6.3 0 .65.1 0-1.1-1.4-1.1-.85 0-1.4.25l-.3-1.15q.75-.35 1.8-.35 1.4 0 2.1.65.65.65.65 2.5v1.35q0 1.25.5 1.55-.2.3-.4.4-.2.05-.5.05t-.6-.2q-.25-.25-.3-.55-.2.35-.7.55-.5.2-1.05.2-1 0-1.6-.5-.55-.5-.55-1.45m-2.65-4.45h1.45v6.3h-1.45v-.5q-.35.25-.85.45-.55.15-1 .15-2.2 0-2.2-2.3v-4.1h1.45v4q0 1.2 1.1 1.2.5 0 .9-.25.45-.25.6-.6V25.9m-49.8 14.9q1.35 0 2.2.8.8.85.8 2.1 0 .25-.1.8h-4.5q.05.75.55 1.2.45.4 1.25.4 1 0 1.55-.55l.55 1.15q-.8.6-2.3.6-1.45 0-2.3-.8-.8-.85-.8-2.35t.9-2.4q.9-.95 2.2-.95m9.55-1.15l1.5-.55v1.8h1.7v1.2h-1.7v2.75q0 .65.2.95.2.3.75.3.5 0 .95-.3v1.35q-.5.15-1.45.15t-1.45-.5q-.5-.55-.5-1.5v-3.2h-.7v-1.2h.7v-1.25m-3.55 1.15q.95 0 1.85.45l-.45 1.15q-.45-.45-1.35-.45-.75 0-.75.65 0 .2.25.4t1.1.55q.8.3 1.15.75.4.5.4 1.15 0 .85-.65 1.35-.65.5-1.75.5-.65 0-1-.1-.4-.1-1-.4l.55-1.15q.65.5 1.45.5.85 0 .85-.6 0-.35-.25-.6-.25-.2-1-.55-1.6-.65-1.6-1.85 0-.85.6-1.3.6-.45 1.6-.45m10.05 1.25q-.85 0-1.4.25l-.3-1.15q.75-.35 1.8-.35 1.4 0 2.1.65.65.65.65 2.5v1.35q0 1.25.5 1.55-.2.3-.4.4-.2.05-.5.05t-.6-.2q-.25-.25-.3-.55-.2.35-.7.55-.5.2-1.05.2-1 0-1.6-.5-.55-.5-.55-1.45 0-1.05.8-1.7.8-.6 2.3-.6.3 0 .65.1 0-1.1-1.4-1.1m-45.35-.95v-2.5l1.45-.35v8.95h-1.45v-.4q-.2.2-.65.35-.4.15-.9.15-1.3 0-2.05-.8-.75-.85-.75-2.35 0-1.45.85-2.4.9-.95 2.2-.95.7 0 1.3.3m9.05-.2h1.6l1.5 3.85 1.6-3.85h1.55l-2.9 6.4h-.55l-2.8-6.4m-5.65.85q.9-.95 2.2-.95 1.35 0 2.2.8.8.85.8 2.1 0 .25-.1.8h-4.5q.05.75.55 1.2.45.4 1.25.4 1 0 1.55-.55l.55 1.15q-.8.6-2.3.6-1.45 0-2.3-.8-.8-.85-.8-2.35t.9-2.4m15.4-.95q1.35 0 2.2.8.8.85.8 2.1 0 .25-.1.8h-4.5q.05.75.55 1.2.45.4 1.25.4 1 0 1.55-.55l.55 1.15q-.8.6-2.3.6-1.45 0-2.3-.8-.8-.85-.8-2.35t.9-2.4q.9-.95 2.2-.95m53.1.7q.6-.7 1.55-.7 1.25 0 1.9.7.3-.3.75-.5.5-.2 1-.2 1.05 0 1.65.6.55.6.55 1.65v4.15H95.4v-3.95q0-1.2-1.1-1.2-.35 0-.65.2-.3.15-.4.4v4.55h-1.5v-4.15q0-.45-.25-.75-.3-.25-.8-.25-.3 0-.6.2-.35.2-.5.45v4.5h-1.45v-6.3h1l.3.6m-7.7.25q.9-.95 2.2-.95 1.35 0 2.2.8.8.85.8 2.1 0 .25-.1.8h-4.5q.05.75.55 1.2.45.4 1.25.4 1 0 1.55-.55l.55 1.15q-.8.6-2.3.6-1.45 0-2.3-.8-.8-.85-.8-2.35t.9-2.4m18.05-.4q.55-.55 1.35-.55 3 0 3 3.3 0 1.55-.85 2.4-.8.8-2.25.8-.7 0-1.25-.25v2.6h-1.5V40.9h1.5v.45m7.1.15q.6-.7 1.65-.7.75 0 1.15.25l-.65 1.25q-.35-.25-.85-.25t-.9.45q-.4.45-.4 1.15v3.55h-1.45v-6.3h1.45v.6m4.1 5q-.8-.85-.8-2.35t.9-2.4q.9-.95 2.2-.95 1.35 0 2.2.8.8.85.8 2.1 0 .25-.1.8h-4.5q.05.75.55 1.2.45.4 1.25.4 1 0 1.55-.55l.55 1.15q-.8.6-2.3.6-1.45 0-2.3-.8m-40.9-4.45q-.5 0-.9.45t-.4 1.15v3.55h-1.45v-6.3h1.45v.6q.6-.7 1.65-.7.75 0 1.15.25l-.65 1.25q-.35-.25-.85-.25m7.1.55q0 .2.25.4t1.1.55q.8.3 1.15.75.4.5.4 1.15 0 .85-.65 1.35-.65.5-1.75.5-.65 0-1-.1-.4-.1-1-.4l.55-1.15q.65.5 1.45.5.85 0 .85-.6 0-.35-.25-.6-.25-.2-1-.55-1.6-.65-1.6-1.85 0-.85.6-1.3.6-.45 1.6-.45.95 0 1.85.45l-.45 1.15q-.45-.45-1.35-.45-.75 0-.75.65m-42.95 14q.8.85.8 2.1 0 .25-.1.8h-4.5q.05.75.55 1.2.45.4 1.25.4 1 0 1.55-.55l.55 1.15q-.8.6-2.3.6-1.45 0-2.3-.8-.8-.85-.8-2.35t.9-2.4q.9-.95 2.2-.95 1.35 0 2.2.8m4.9.45q-.85 0-1.3.55-.5.55-.5 1.5 0 2 1.9 2 .8 0 1.4-.55l.55 1.15q-.65.4-1.1.5-.5.1-1.15.1-1.45 0-2.3-.85-.8-.85-.8-2.35 0-1.45.9-2.4.9-.9 2.5-.9 1.1 0 1.9.6l-.6 1.1q-.55-.45-1.4-.45M28.8 53.6l-.4 1.1q-.5-.15-.75-.15-.4 0-.7.35-.3.35-.3.85v.15h1.3v1.25H26.7v5.05h-1.5v-5.05h-.9V55.9h.95q0-1.15.65-1.85.65-.7 1.65-.7.5 0 1.25.25m74.25 4.55q0-1.1-1.4-1.1-.85 0-1.4.25l-.3-1.15q.75-.35 1.8-.35 1.4 0 2.1.65.65.65.65 2.5v1.35q0 1.25.5 1.55-.2.3-.4.4-.2.05-.5.05t-.6-.2q-.25-.25-.3-.55-.2.35-.7.55-.5.2-1.05.2-1 0-1.6-.5-.55-.5-.55-1.45 0-1.05.8-1.7.8-.6 2.3-.6.3 0 .65.1m-10 .1q0-1.2-1.1-1.2-.35 0-.65.2-.3.15-.4.4v4.55h-1.5v-4.15q0-.45-.25-.75-.3-.25-.8-.25-.3 0-.6.2-.35.2-.5.45v4.5H85.8v-6.3h1l.3.6q.6-.7 1.55-.7 1.25 0 1.9.7.3-.3.75-.5.5-.2 1-.2 1.05 0 1.65.6.55.6.55 1.65v4.15h-1.45v-3.95M81.6 55.8q1.45 0 2.2.85.8.9.8 2.4t-.8 2.4q-.8.85-2.2.85-1.45 0-2.2-.85-.8-.9-.8-2.4 0-1.45.8-2.35.85-.9 2.2-.9m-8.25.9q.9-.9 2.5-.9 1.1 0 1.9.6l-.6 1.1q-.55-.45-1.4-.45-.85 0-1.3.55-.5.55-.5 1.5 0 2 1.9 2 .8 0 1.4-.55l.55 1.15q-.65.4-1.1.5-.5.1-1.15.1-1.45 0-2.3-.85-.8-.85-.8-2.35 0-1.45.9-2.4m-10.25-.55q.75-.35 1.8-.35 1.4 0 2.1.65.65.65.65 2.5v1.35q0 1.25.5 1.55-.2.3-.4.4-.2.05-.5.05t-.6-.2q-.25-.25-.3-.55-.2.35-.7.55-.5.2-1.05.2-1 0-1.6-.5-.55-.5-.55-1.45 0-1.05.8-1.7.8-.6 2.3-.6.3 0 .65.1 0-1.1-1.4-1.1-.85 0-1.4.25l-.3-1.15m-1.7-2.9v8.95h-1.45v-.4q-.2.2-.65.35-.4.15-.9.15-1.3 0-2.05-.8-.75-.85-.75-2.35 0-1.45.85-2.4.9-.95 2.2-.95.7 0 1.3.3v-2.5l1.45-.35m-8.55 4.9q0-1.1-1.4-1.1-.85 0-1.4.25l-.3-1.15q.75-.35 1.8-.35 1.4 0 2.1.65.65.65.65 2.5v1.35q0 1.25.5 1.55-.2.3-.4.4-.2.05-.5.05t-.6-.2q-.25-.25-.3-.55-.2.35-.7.55-.5.2-1.05.2-1 0-1.6-.5-.55-.5-.55-1.45 0-1.05.8-1.7.8-.6 2.3-.6.3 0 .65.1M42.4 53.6l1.5-.35v3.05q.55-.5 1.55-.5 1.15 0 1.8.65.65.65.65 1.9v3.85h-1.45v-3.85q0-.6-.35-.95t-.95-.35q-.35 0-.75.2-.35.2-.5.45v4.5h-1.5v-8.6M23.7 72.05q-.85 0-1.4.25l-.3-1.15q.75-.35 1.8-.35 1.4 0 2.1.65.65.65.65 2.5v1.35q0 1.25.5 1.55-.2.3-.4.4-.2.05-.5.05t-.6-.2q-.25-.25-.3-.55-.2.35-.7.55-.5.2-1.05.2-1 0-1.6-.5-.55-.5-.55-1.45 0-1.05.8-1.7.8-.6 2.3-.6.3 0 .65.1 0-1.1-1.4-1.1m-3.3-1.15v1.2h-1.7v2.75q0 .65.2.95.2.3.75.3.5 0 .95-.3v1.35q-.5.15-1.45.15t-1.45-.5q-.5-.55-.5-1.5v-3.2h-.7v-1.2h.7v-1.25l1.5-.55v1.8h1.7m8.75 0l.3.6q.6-.7 1.55-.7 1.25 0 1.9.7.3-.3.75-.5.5-.2 1-.2 1.05 0 1.65.6.55.6.55 1.65v4.15H35.4v-3.95q0-1.2-1.1-1.2-.35 0-.65.2-.3.15-.4.4v4.55h-1.5v-4.15q0-.45-.25-.75-.3-.25-.8-.25-.3 0-.6.2-.35.2-.5.45v4.5h-1.45v-6.3h1m9.15 0h1.5v.45q.55-.55 1.35-.55 3 0 3 3.3 0 1.55-.85 2.4-.8.8-2.25.8-.7 0-1.25-.25v2.6h-1.5V70.9m24.1.85q.9-.95 2.2-.95.7 0 1.3.3v-2.5l1.45-.35v8.95H65.9v-.4q-.2.2-.65.35-.4.15-.9.15-1.3 0-2.05-.8-.75-.85-.75-2.35 0-1.45.85-2.4m6 2.4q0-1.5.9-2.4.9-.95 2.2-.95 1.35 0 2.2.8.8.85.8 2.1 0 .25-.1.8h-4.5q.05.75.55 1.2.45.4 1.25.4 1 0 1.55-.55l.55 1.15q-.8.6-2.3.6-1.45 0-2.3-.8-.8-.85-.8-2.35M47.5 70.8q1.4 0 2.1.65.65.65.65 2.5v1.35q0 1.25.5 1.55-.2.3-.4.4-.2.05-.5.05t-.6-.2q-.25-.25-.3-.55-.2.35-.7.55-.5.2-1.05.2-1 0-1.6-.5-.55-.5-.55-1.45 0-1.05.8-1.7.8-.6 2.3-.6.3 0 .65.1 0-1.1-1.4-1.1-.85 0-1.4.25l-.3-1.15q.75-.35 1.8-.35m12.1.65q.65.65.65 2.5v1.35q0 1.25.5 1.55-.2.3-.4.4-.2.05-.5.05t-.6-.2q-.25-.25-.3-.55-.2.35-.7.55-.5.2-1.05.2-1 0-1.6-.5-.55-.5-.55-1.45 0-1.05.8-1.7.8-.6 2.3-.6.3 0 .65.1 0-1.1-1.4-1.1-.85 0-1.4.25l-.3-1.15q.75-.35 1.8-.35 1.4 0 2.1.65m45.5.6q-.85 0-1.4.25l-.3-1.15q.75-.35 1.8-.35 1.4 0 2.1.65.65.65.65 2.5v1.35q0 1.25.5 1.55-.2.3-.4.4-.2.05-.5.05t-.6-.2q-.25-.25-.3-.55-.2.35-.7.55-.5.2-1.05.2-1 0-1.6-.5-.55-.5-.55-1.45 0-1.05.8-1.7.8-.6 2.3-.6.3 0 .65.1 0-1.1-1.4-1.1m-14.75.25l-.3-1.15q.75-.35 1.8-.35 1.4 0 2.1.65.65.65.65 2.5v1.35q0 1.25.5 1.55-.2.3-.4.4-.2.05-.5.05t-.6-.2q-.25-.25-.3-.55-.2.35-.7.55-.5.2-1.05.2-1 0-1.6-.5-.55-.5-.55-1.45 0-1.05.8-1.7.8-.6 2.3-.6.3 0 .65.1 0-1.1-1.4-1.1-.85 0-1.4.25m-3.6-1.4h1.45v6.3h-1.45v-.5q-.35.25-.85.45-.55.15-1 .15-2.2 0-2.2-2.3v-4.1h1.45v4q0 1.2 1.1 1.2.5 0 .9-.25.45-.25.6-.6V70.9m10 .85q.9-.95 2.2-.95.7 0 1.3.3v-2.5l1.45-.35v8.95h-1.45v-.4q-.2.2-.65.35-.4.15-.9.15-1.3 0-2.05-.8-.75-.85-.75-2.35 0-1.45.85-2.4m15.15 4.7q0 .4-.35.75-.3.3-.75.3-.4 0-.7-.3-.35-.35-.35-.75 0-.45.35-.75.3-.3.7-.3.45 0 .75.3.35.3.35.75M81.25 70.9v8.75h-1.5V77q-.5.3-1.45.3-1.35 0-2.15-.8-.75-.85-.75-2.4 0-1.5.9-2.4.85-.9 2.25-.9.85 0 1.5.5l.25-.4h.95m-1.5 1.5q-.35-.35-1-.35-.85 0-1.35.55-.5.6-.5 1.5 0 2 1.8 2 .65 0 1.05-.3v-3.4m20.5 0q-.5-.35-1-.35-.9 0-1.35.55-.5.5-.5 1.5 0 2 1.9 2 .2 0 .55-.15.3-.1.4-.25v-3.3m-8.45 3.75q1.35 0 1.35-1.3v-.6q-.4-.1-.55-.1-1.75 0-1.75 1.15 0 .85.95.85m14.7-1.3v-.6q-.4-.1-.55-.1-1.75 0-1.75 1.15 0 .85.95.85 1.35 0 1.35-1.3m-47.7 0v-.6q-.4-.1-.55-.1-1.75 0-1.75 1.15 0 .85.95.85 1.35 0 1.35-1.3m-10 0v-.6q-.4-.1-.55-.1-1.75 0-1.75 1.15 0 .85.95.85 1.35 0 1.35-1.3m24.25-1.45q-.15-1.35-1.55-1.35-1.25 0-1.55 1.35h3.1m-8.15-1.35q-.9 0-1.35.55-.5.5-.5 1.5 0 2 1.9 2 .2 0 .55-.15.3-.1.4-.25v-3.3q-.5-.35-1-.35m-25.1.4v3.3q.4.35.9.35 1.05 0 1.5-.5.4-.5.4-1.55 0-1.1-.4-1.55-.45-.45-1.45-.45-.55 0-.95.4m-14.7 2.4v-.6q-.4-.1-.55-.1-1.75 0-1.75 1.15 0 .85.95.85 1.35 0 1.35-1.3m27.75-15v-.6q-.4-.1-.55-.1-1.75 0-1.75 1.15 0 .85.95.85 1.35 0 1.35-1.3m7.1-2.45q-.5-.35-1-.35-.9 0-1.35.55-.5.5-.5 1.5 0 2 1.9 2 .2 0 .55-.15.3-.1.4-.25v-3.3m5.7 1.75q-1.75 0-1.75 1.15 0 .85.95.85 1.35 0 1.35-1.3v-.6q-.4-.1-.55-.1M81.6 61.1q.7 0 1.1-.5.4-.55.4-1.55 0-2.05-1.5-2.05-.7 0-1.1.55-.4.55-.4 1.5 0 2.05 1.5 2.05m21.45-1.25v-.6q-.4-.1-.55-.1-1.75 0-1.75 1.15 0 .85.95.85 1.35 0 1.35-1.3m-71-2.8q-1.25 0-1.55 1.35h3.1q-.15-1.35-1.55-1.35m79.7-13.65h3.1q-.15-1.35-1.55-1.35-1.25 0-1.55 1.35m-11-1.35q-.55 0-.95.4v3.3q.4.35.9.35 1.05 0 1.5-.5.4-.5.4-1.55 0-1.1-.4-1.55-.45-.45-1.45-.45M82.4 43.4h3.1q-.15-1.35-1.55-1.35-1.25 0-1.55 1.35m-47.6 0h3.1q-.15-1.35-1.55-1.35-1.25 0-1.55 1.35m-13.2 0h3.1q-.15-1.35-1.55-1.35-1.25 0-1.55 1.35m-4.05-1q-.5-.35-1-.35-.9 0-1.35.55-.5.5-.5 1.5 0 2 1.9 2 .2 0 .55-.15.3-.1.4-.25v-3.3m46.75 2.45v-.6q-.4-.1-.55-.1-1.75 0-1.75 1.15 0 .85.95.85 1.35 0 1.35-1.3m-19-1.45h3.1q-.15-1.35-1.55-1.35-1.25 0-1.55 1.35m57.75-13.55v-.6q-.4-.1-.55-.1-1.75 0-1.75 1.15 0 .85.95.85 1.35 0 1.35-1.3m-13.55-2.5q-.3-.35-.8-.35t-.8.3q-.3.35-.3.85 0 .55.3.85.3.35.8.35.55 0 .85-.3.25-.35.25-.9 0-.5-.3-.8m-6.5 1.8q-1.75 0-1.75 1.15 0 .85.95.85 1.35 0 1.35-1.3v-.6q-.4-.1-.55-.1M72.9 27.4q-.5-.35-1-.35-.9 0-1.35.55-.5.5-.5 1.5 0 2 1.9 2 .2 0 .55-.15.3-.1.4-.25v-3.3m-10.7 1.85q-.4-.1-.55-.1-1.75 0-1.75 1.15 0 .85.95.85 1.35 0 1.35-1.3v-.6m-16.65.6v-.6q-.4-.1-.55-.1-1.75 0-1.75 1.15 0 .85.95.85 1.35 0 1.35-1.3m-17.7-3.75l-1.05 3.2h2.05l-1-3.2z" id="a"/><path d="M57.4 72.05q1.4 0 1.4 1.1-.35-.1-.65-.1-1.5 0-2.3.6-.8.65-.8 1.7 0 .95.55 1.45.6.5 1.6.5.55 0 1.05-.2t.7-.55q.05.3.3.55.3.2.6.2t.5-.05q.2-.1.4-.4-.5-.3-.5-1.55v-1.35q0-1.85-.65-2.5-.7-.65-2.1-.65-1.05 0-1.8.35l.3 1.15q.55-.25 1.4-.25m1.4 2.2v.6q0 1.3-1.35 1.3-.95 0-.95-.85 0-1.15 1.75-1.15.15 0 .55.1m-13.1-3.1l.3 1.15q.55-.25 1.4-.25 1.4 0 1.4 1.1-.35-.1-.65-.1-1.5 0-2.3.6-.8.65-.8 1.7 0 .95.55 1.45.6.5 1.6.5.55 0 1.05-.2t.7-.55q.05.3.3.55.3.2.6.2t.5-.05q.2-.1.4-.4-.5-.3-.5-1.55v-1.35q0-1.85-.65-2.5-.7-.65-2.1-.65-1.05 0-1.8.35m3.1 3.1v.6q0 1.3-1.35 1.3-.95 0-.95-.85 0-1.15 1.75-1.15.15 0 .55.1m-4.9-21l-1.5.35v8.6h1.5v-4.5q.15-.25.5-.45.4-.2.75-.2.6 0 .95.35t.35.95v3.85h1.45v-3.85q0-1.25-.65-1.9-.65-.65-1.8-.65-1 0-1.55.5v-3.05m7.55 3.8q1.4 0 1.4 1.1-.35-.1-.65-.1-1.5 0-2.3.6-.8.65-.8 1.7 0 .95.55 1.45.6.5 1.6.5.55 0 1.05-.2t.7-.55q.05.3.3.55.3.2.6.2t.5-.05q.2-.1.4-.4-.5-.3-.5-1.55v-1.35q0-1.85-.65-2.5-.7-.65-2.1-.65-1.05 0-1.8.35l.3 1.15q.55-.25 1.4-.25m1.4 2.2v.6q0 1.3-1.35 1.3-.95 0-.95-.85 0-1.15 1.75-1.15.15 0 .55.1m8.55 2.95v-8.95l-1.45.35v2.5q-.6-.3-1.3-.3-1.3 0-2.2.95-.85.95-.85 2.4 0 1.5.75 2.35.75.8 2.05.8.5 0 .9-.15.45-.15.65-.35v.4h1.45m-2.45-5.15q.5 0 1 .35v3.3q-.1.15-.4.25-.35.15-.55.15-1.9 0-1.9-2 0-1 .5-1.5.45-.55 1.35-.55m10.35 14.7q-.9.9-.9 2.4t.8 2.35q.85.8 2.3.8 1.5 0 2.3-.6l-.55-1.15q-.55.55-1.55.55-.8 0-1.25-.4-.5-.45-.55-1.2h4.5q.1-.55.1-.8 0-1.25-.8-2.1-.85-.8-2.2-.8-1.3 0-2.2.95m2.2.3q1.4 0 1.55 1.35h-3.1q.3-1.35 1.55-1.35m-6.9-1.25q-1.3 0-2.2.95-.85.95-.85 2.4 0 1.5.75 2.35.75.8 2.05.8.5 0 .9-.15.45-.15.65-.35v.4h1.45v-8.95l-1.45.35v2.5q-.6-.3-1.3-.3m-1.05 1.8q.45-.55 1.35-.55.5 0 1 .35v3.3q-.1.15-.4.25-.35.15-.55.15-1.9 0-1.9-2 0-1 .5-1.5m1.35-16.8q-1.05 0-1.8.35l.3 1.15q.55-.25 1.4-.25 1.4 0 1.4 1.1-.35-.1-.65-.1-1.5 0-2.3.6-.8.65-.8 1.7 0 .95.55 1.45.6.5 1.6.5.55 0 1.05-.2t.7-.55q.05.3.3.55.3.2.6.2t.5-.05q.2-.1.4-.4-.5-.3-.5-1.55v-1.35q0-1.85-.65-2.5-.7-.65-2.1-.65m-1 4.5q0-1.15 1.75-1.15.15 0 .55.1v.6q0 1.3-1.35 1.3-.95 0-.95-.85m11.95-4.5q-1.6 0-2.5.9-.9.95-.9 2.4 0 1.5.8 2.35.85.85 2.3.85.65 0 1.15-.1.45-.1 1.1-.5l-.55-1.15q-.6.55-1.4.55-1.9 0-1.9-2 0-.95.5-1.5.45-.55 1.3-.55.85 0 1.4.45l.6-1.1q-.8-.6-1.9-.6M39.8 70.9h-1.5v8.75h1.5v-2.6q.55.25 1.25.25 1.45 0 2.25-.8.85-.85.85-2.4 0-3.3-3-3.3-.8 0-1.35.55v-.45m0 4.85v-3.3q.4-.4.95-.4 1 0 1.45.45.4.45.4 1.55 0 1.05-.4 1.55-.45.5-1.5.5-.5 0-.9-.35M29.45 71.5l-.3-.6h-1v6.3h1.45v-4.5q.15-.25.5-.45.3-.2.6-.2.5 0 .8.25.25.3.25.75v4.15h1.5v-4.55q.1-.25.4-.4.3-.2.65-.2 1.1 0 1.1 1.2v3.95h1.45v-4.15q0-1.05-.55-1.65-.6-.6-1.65-.6-.5 0-1 .2-.45.2-.75.5-.65-.7-1.9-.7-.95 0-1.55.7m-9.05.6v-1.2h-1.7v-1.8l-1.5.55v1.25h-.7v1.2h.7v3.2q0 .95.5 1.5.5.5 1.45.5t1.45-.15V75.8q-.45.3-.95.3-.55 0-.75-.3-.2-.3-.2-.95V72.1h1.7m1.9.2q.55-.25 1.4-.25 1.4 0 1.4 1.1-.35-.1-.65-.1-1.5 0-2.3.6-.8.65-.8 1.7 0 .95.55 1.45.6.5 1.6.5.55 0 1.05-.2t.7-.55q.05.3.3.55.3.2.6.2t.5-.05q.2-.1.4-.4-.5-.3-.5-1.55v-1.35q0-1.85-.65-2.5-.7-.65-2.1-.65-1.05 0-1.8.35l.3 1.15m1.45 3.85q-.95 0-.95-.85 0-1.15 1.75-1.15.15 0 .55.1v.6q0 1.3-1.35 1.3M28.4 54.7l.4-1.1q-.75-.25-1.25-.25-1 0-1.65.7-.65.7-.65 1.85h-.95v1.25h.9v5.05h1.5v-5.05h1.25V55.9h-1.3v-.15q0-.5.3-.85t.7-.35q.25 0 .75.15m9.45 2.9q.45-.55 1.3-.55.85 0 1.4.45l.6-1.1q-.8-.6-1.9-.6-1.6 0-2.5.9-.9.95-.9 2.4 0 1.5.8 2.35.85.85 2.3.85.65 0 1.15-.1.45-.1 1.1-.5l-.55-1.15q-.6.55-1.4.55-1.9 0-1.9-2 0-.95.5-1.5m-2.8 1.1q0-1.25-.8-2.1-.85-.8-2.2-.8-1.3 0-2.2.95-.9.9-.9 2.4t.8 2.35q.85.8 2.3.8 1.5 0 2.3-.6l-.55-1.15q-.55.55-1.55.55-.8 0-1.25-.4-.5-.45-.55-1.2h4.5q.1-.55.1-.8m-4.55-.3q.3-1.35 1.55-1.35 1.4 0 1.55 1.35h-3.1m8.05-16.8q-.85-.8-2.2-.8-1.3 0-2.2.95-.9.9-.9 2.4t.8 2.35q.85.8 2.3.8 1.5 0 2.3-.6l-.55-1.15q-.55.55-1.55.55-.8 0-1.25-.4-.5-.45-.55-1.2h4.5q.1-.55.1-.8 0-1.25-.8-2.1m-.65 1.8h-3.1q.3-1.35 1.55-1.35 1.4 0 1.55 1.35m-14.75-2.6q-1.3 0-2.2.95-.9.9-.9 2.4t.8 2.35q.85.8 2.3.8 1.5 0 2.3-.6l-.55-1.15q-.55.55-1.55.55-.8 0-1.25-.4-.5-.45-.55-1.2h4.5q.1-.55.1-.8 0-1.25-.8-2.1-.85-.8-2.2-.8m1.55 2.6h-3.1q.3-1.35 1.55-1.35 1.4 0 1.55 1.35m3.5-2.5h-1.6l2.8 6.4h.55l2.9-6.4H31.3l-1.6 3.85-1.5-3.85m10.85-15.1q-1.6 0-2.5.9-.9.95-.9 2.4 0 1.5.8 2.35.85.85 2.3.85.65 0 1.15-.1.45-.1 1.1-.5l-.55-1.15q-.6.55-1.4.55-1.9 0-1.9-2 0-.95.5-1.5.45-.55 1.3-.55.85 0 1.4.45l.6-1.1q-.8-.6-1.9-.6m-21.5 12.8v2.5q-.6-.3-1.3-.3-1.3 0-2.2.95-.85.95-.85 2.4 0 1.5.75 2.35.75.8 2.05.8.5 0 .9-.15.45-.15.65-.35v.4H19v-8.95l-1.45.35m-1 3.45q.5 0 1 .35v3.3q-.1.15-.4.25-.35.15-.55.15-1.9 0-1.9-2 0-1 .5-1.5.45-.55 1.35-.55m11.6-18.55h-.65l-3.4 8.7h1.65l.6-1.75h2.95l.65 1.75h1.65l-3.45-8.7m.7 5.8H26.8l1.05-3.2 1 3.2M77.45 43q-.25-.2-.25-.4 0-.65.75-.65.9 0 1.35.45l.45-1.15q-.9-.45-1.85-.45-1 0-1.6.45-.6.45-.6 1.3 0 1.2 1.6 1.85.75.35 1 .55.25.25.25.6 0 .6-.85.6-.8 0-1.45-.5l-.55 1.15q.6.3 1 .4.35.1 1 .1 1.1 0 1.75-.5.65-.5.65-1.35 0-.65-.4-1.15-.35-.45-1.15-.75-.85-.35-1.1-.55M63 40.8q-1.05 0-1.8.35l.3 1.15q.55-.25 1.4-.25 1.4 0 1.4 1.1-.35-.1-.65-.1-1.5 0-2.3.6-.8.65-.8 1.7 0 .95.55 1.45.6.5 1.6.5.55 0 1.05-.2t.7-.55q.05.3.3.55.3.2.6.2t.5-.05q.2-.1.4-.4-.5-.3-.5-1.55v-1.35q0-1.85-.65-2.5-.7-.65-2.1-.65m1.3 3.45v.6q0 1.3-1.35 1.3-.95 0-.95-.85 0-1.15 1.75-1.15.15 0 .55.1m4.9-1.75q.4-.45.9-.45t.85.25l.65-1.25q-.4-.25-1.15-.25-1.05 0-1.65.7v-.6h-1.45v6.3h1.45v-3.55q0-.7.4-1.15m-14.5-1.25q-.9-.45-1.85-.45-1 0-1.6.45-.6.45-.6 1.3 0 1.2 1.6 1.85.75.35 1 .55.25.25.25.6 0 .6-.85.6-.8 0-1.45-.5l-.55 1.15q.6.3 1 .4.35.1 1 .1 1.1 0 1.75-.5.65-.5.65-1.35 0-.65-.4-1.15-.35-.45-1.15-.75-.85-.35-1.1-.55-.25-.2-.25-.4 0-.65.75-.65.9 0 1.35.45l.45-1.15m3.2-2.15l-1.5.55v1.25h-.7v1.2h.7v3.2q0 .95.5 1.5.5.5 1.45.5t1.45-.15V45.8q-.45.3-.95.3-.55 0-.75-.3-.2-.3-.2-.95V42.1h1.7v-1.2h-1.7v-1.8m-8.85 2.5q-.85-.8-2.2-.8-1.3 0-2.2.95-.9.9-.9 2.4t.8 2.35q.85.8 2.3.8 1.5 0 2.3-.6l-.55-1.15q-.55.55-1.55.55-.8 0-1.25-.4-.5-.45-.55-1.2h4.5q.1-.55.1-.8 0-1.25-.8-2.1m-.65 1.8h-3.1q.3-1.35 1.55-1.35 1.4 0 1.55 1.35M47 30.3v-1.35q0-1.85-.65-2.5-.7-.65-2.1-.65-1.05 0-1.8.35l.3 1.15q.55-.25 1.4-.25 1.4 0 1.4 1.1-.35-.1-.65-.1-1.5 0-2.3.6-.8.65-.8 1.7 0 .95.55 1.45.6.5 1.6.5.55 0 1.05-.2t.7-.55q.05.3.3.55.3.2.6.2t.5-.05q.2-.1.4-.4-.5-.3-.5-1.55m-1.45-1.05v.6q0 1.3-1.35 1.3-.95 0-.95-.85 0-1.15 1.75-1.15.15 0 .55.1m2.65-2.1h.8v5.05h1.45v-6.3H48.2v1.25m9.6-1.25h-1.7l-1.45 1.95-1.35-1.95h-1.7l2.25 3.1-2.4 3.2h1.7l1.45-2.05 1.6 2.05H58L55.35 29l2.45-3.1m1.45 2.75q-.8.65-.8 1.7 0 .95.55 1.45.6.5 1.6.5.55 0 1.05-.2t.7-.55q.05.3.3.55.3.2.6.2t.5-.05q.2-.1.4-.4-.5-.3-.5-1.55v-1.35q0-1.85-.65-2.5-.7-.65-2.1-.65-1.05 0-1.8.35l.3 1.15q.55-.25 1.4-.25 1.4 0 1.4 1.1-.35-.1-.65-.1-1.5 0-2.3.6m2.4.5q.15 0 .55.1v.6q0 1.3-1.35 1.3-.95 0-.95-.85 0-1.15 1.75-1.15m-11.9-5.65q-.35 0-.6.25t-.25.6q0 .35.25.6t.6.25q.35 0 .6-.25t.25-.6q0-.35-.25-.6t-.6-.25m24.6-.25l-1.45.35v2.5q-.6-.3-1.3-.3-1.3 0-2.2.95-.85.95-.85 2.4 0 1.5.75 2.35.75.8 2.05.8.5 0 .9-.15.45-.15.65-.35v.4h1.45v-8.95m-2.45 3.8q.5 0 1 .35v3.3q-.1.15-.4.25-.35.15-.55.15-1.9 0-1.9-2 0-1 .5-1.5.45-.55 1.35-.55m6.3-2.55q0-.55-.25-.85-.25-.3-.75-.3-.95 0-.95.95 0 .35.3.6.3.3.3.55 0 .2-.15.4-.1.2-.65.65l.5.65q1.65-1.05 1.65-2.65m3.05 55.15V70.9h-.95l-.25.4q-.65-.5-1.5-.5-1.4 0-2.25.9-.9.9-.9 2.4 0 1.55.75 2.4.8.8 2.15.8.95 0 1.45-.3v2.65h1.5m-2.5-7.6q.65 0 1 .35v3.4q-.4.3-1.05.3-1.8 0-1.8-2 0-.9.5-1.5.5-.55 1.35-.55m32.8 5.15q.35-.35.35-.75 0-.45-.35-.75-.3-.3-.75-.3-.4 0-.7.3-.35.3-.35.75 0 .4.35.75.3.3.7.3.45 0 .75-.3m-11.3-6.1q-.6-.3-1.3-.3-1.3 0-2.2.95-.85.95-.85 2.4 0 1.5.75 2.35.75.8 2.05.8.5 0 .9-.15.45-.15.65-.35v.4h1.45v-8.95l-1.45.35v2.5m-2.35 1.5q.45-.55 1.35-.55.5 0 1 .35v3.3q-.1.15-.4.25-.35.15-.55.15-1.9 0-1.9-2 0-1 .5-1.5m-9.7-1.7h-1.45v4.35q-.15.35-.6.6-.4.25-.9.25-1.1 0-1.1-1.2v-4H82.7V75q0 2.3 2.2 2.3.45 0 1-.15.5-.2.85-.45v.5h1.45v-6.3m1.85.25l.3 1.15q.55-.25 1.4-.25 1.4 0 1.4 1.1-.35-.1-.65-.1-1.5 0-2.3.6-.8.65-.8 1.7 0 .95.55 1.45.6.5 1.6.5.55 0 1.05-.2t.7-.55q.05.3.3.55.3.2.6.2t.5-.05q.2-.1.4-.4-.5-.3-.5-1.55v-1.35q0-1.85-.65-2.5-.7-.65-2.1-.65-1.05 0-1.8.35m3.1 3.7q0 1.3-1.35 1.3-.95 0-.95-.85 0-1.15 1.75-1.15.15 0 .55.1v.6m-9.35-18.2q-.75-.85-2.2-.85-1.35 0-2.2.9-.8.9-.8 2.35 0 1.5.8 2.4.75.85 2.2.85 1.4 0 2.2-.85.8-.9.8-2.4t-.8-2.4m-1.1 3.95q-.4.5-1.1.5-1.5 0-1.5-2.05 0-.95.4-1.5t1.1-.55q1.5 0 1.5 2.05 0 1-.4 1.55m9.25-3.55q1.1 0 1.1 1.2v3.95h1.45v-4.15q0-1.05-.55-1.65-.6-.6-1.65-.6-.5 0-1 .2-.45.2-.75.5-.65-.7-1.9-.7-.95 0-1.55.7l-.3-.6h-1v6.3h1.45v-4.5q.15-.25.5-.45.3-.2.6-.2.5 0 .8.25.25.3.25.75v4.15h1.5v-4.55q.1-.25.4-.4.3-.2.65-.2M103.7 72.3q.55-.25 1.4-.25 1.4 0 1.4 1.1-.35-.1-.65-.1-1.5 0-2.3.6-.8.65-.8 1.7 0 .95.55 1.45.6.5 1.6.5.55 0 1.05-.2t.7-.55q.05.3.3.55.3.2.6.2t.5-.05q.2-.1.4-.4-.5-.3-.5-1.55v-1.35q0-1.85-.65-2.5-.7-.65-2.1-.65-1.05 0-1.8.35l.3 1.15m2.8 1.95v.6q0 1.3-1.35 1.3-.95 0-.95-.85 0-1.15 1.75-1.15.15 0 .55.1m-4.85-17.2q1.4 0 1.4 1.1-.35-.1-.65-.1-1.5 0-2.3.6-.8.65-.8 1.7 0 .95.55 1.45.6.5 1.6.5.55 0 1.05-.2t.7-.55q.05.3.3.55.3.2.6.2t.5-.05q.2-.1.4-.4-.5-.3-.5-1.55v-1.35q0-1.85-.65-2.5-.7-.65-2.1-.65-1.05 0-1.8.35l.3 1.15q.55-.25 1.4-.25m1.4 2.2v.6q0 1.3-1.35 1.3-.95 0-.95-.85 0-1.15 1.75-1.15.15 0 .55.1m7.15-15.1q0 1.5.8 2.35.85.8 2.3.8 1.5 0 2.3-.6l-.55-1.15q-.55.55-1.55.55-.8 0-1.25-.4-.5-.45-.55-1.2h4.5q.1-.55.1-.8 0-1.25-.8-2.1-.85-.8-2.2-.8-1.3 0-2.2.95-.9.9-.9 2.4m4.65-.75h-3.1q.3-1.35 1.55-1.35 1.4 0 1.55 1.35m-6.3-2.6q-1.05 0-1.65.7v-.6h-1.45v6.3h1.45v-3.55q0-.7.4-1.15.4-.45.9-.45t.85.25l.65-1.25q-.4-.25-1.15-.25m-7.4 0q-.8 0-1.35.55v-.45h-1.5v8.75h1.5v-2.6q.55.25 1.25.25 1.45 0 2.25-.8.85-.85.85-2.4 0-3.3-3-3.3m-1.35 1.65q.4-.4.95-.4 1 0 1.45.45.4.45.4 1.55 0 1.05-.4 1.55-.45.5-1.5.5-.5 0-.9-.35v-3.3M83.95 40.8q-1.3 0-2.2.95-.9.9-.9 2.4t.8 2.35q.85.8 2.3.8 1.5 0 2.3-.6l-.55-1.15q-.55.55-1.55.55-.8 0-1.25-.4-.5-.45-.55-1.2h4.5q.1-.55.1-.8 0-1.25-.8-2.1-.85-.8-2.2-.8m1.55 2.6h-3.1q.3-1.35 1.55-1.35 1.4 0 1.55 1.35m5.5-2.6q-.95 0-1.55.7l-.3-.6h-1v6.3h1.45v-4.5q.15-.25.5-.45.3-.2.6-.2.5 0 .8.25.25.3.25.75v4.15h1.5v-4.55q.1-.25.4-.4.3-.2.65-.2 1.1 0 1.1 1.2v3.95h1.45v-4.15q0-1.05-.55-1.65-.6-.6-1.65-.6-.5 0-1 .2-.45.2-.75.5-.65-.7-1.9-.7m-6-10.5v-1.35q0-1.85-.65-2.5-.7-.65-2.1-.65-1.05 0-1.8.35l.3 1.15q.55-.25 1.4-.25 1.4 0 1.4 1.1-.35-.1-.65-.1-1.5 0-2.3.6-.8.65-.8 1.7 0 .95.55 1.45.6.5 1.6.5.55 0 1.05-.2t.7-.55q.05.3.3.55.3.2.6.2t.5-.05q.2-.1.4-.4-.5-.3-.5-1.55m-3.75 0q0-1.15 1.75-1.15.15 0 .55.1v.6q0 1.3-1.35 1.3-.95 0-.95-.85m9.4-4.85l-.6.65q-.55-.3-1.4-.3-1.1 0-1.8.65-.75.65-.75 1.65 0 1.3 1.05 2-.3.15-.55.45-.25.3-.25.6 0 1.1 1.5 1.1.25 0 .7-.1.5-.05.75-.05.9 0 .9.55 0 .35-.4.55-.4.15-1.05.15-.95 0-1.7-.7l-.95 1.15q1.2.85 2.65.85 1.2 0 2.05-.55.85-.5.85-1.45 0-1.75-2.15-1.75-.3 0-.7.1-.45.1-.65.1-.4 0-.4-.25 0-.15.3-.25.25-.15.3-.15l.25.05q.25.05.4.05 1 0 1.65-.65.65-.65.65-1.75 0-.75-.35-1.3l.7-.5-1-.9M88.7 27q.5 0 .8.35.3.3.3.8 0 .55-.25.9-.3.3-.85.3-.5 0-.8-.35-.3-.3-.3-.85 0-.5.3-.85.3-.3.8-.3m9.4-1.1h-1.45v4.35q-.15.35-.6.6-.4.25-.9.25-1.1 0-1.1-1.2v-4H92.6V30q0 2.3 2.2 2.3.45 0 1-.15.5-.2.85-.45v.5h1.45v-6.3m2 2.75q-.8.65-.8 1.7 0 .95.55 1.45.6.5 1.6.5.55 0 1.05-.2t.7-.55q.05.3.3.55.3.2.6.2t.5-.05q.2-.1.4-.4-.5-.3-.5-1.55v-1.35q0-1.85-.65-2.5-.7-.65-2.1-.65-1.05 0-1.8.35l.3 1.15q.55-.25 1.4-.25 1.4 0 1.4 1.1-.35-.1-.65-.1-1.5 0-2.3.6m2.95.6v.6q0 1.3-1.35 1.3-.95 0-.95-.85 0-1.15 1.75-1.15.15 0 .55.1M84 23.35h-1.45l-1 1.75h1.15l1.3-1.75z" id="c"/><path id="b" stroke="#8CA8B8" stroke-linejoin="round" stroke-linecap="round" fill="none" d="M118.8.4q4.1 0 7 2.95 2.95 2.9 2.95 7v81.6q-.1 3.95-2.95 6.75-2.9 2.95-7 2.95H10.15q-4.1 0-7-2.95-2.8-2.8-2.9-6.75v-81.6q0-4.1 2.9-7Q6.05.4 10.15.4h108.6"/></defs><g><use xlink:href="#a"/><use xlink:href="#b"/></g><use xlink:href="#c"/></svg>