<svg xmlns="http://www.w3.org/2000/svg" xmlns:xlink="http://www.w3.org/1999/xlink" preserveAspectRatio="none" width="133" height="106" viewBox="0 0 133 106"><defs><filter id="c" x="-20%" y="-20%" width="140%" height="140%" color-interpolation-filters="sRGB"><feFlood flood-color="#000" flood-opacity="1" result="result1"/><feComposite in2="SourceGraphic" in="result1" operator="in" result="result2"/><feGaussianBlur in="result2" stdDeviation="2.3333333333333335,2.3333333333333335" result="result3"/><feOffset in="result3" result="result4"/><feComposite in2="result4" in="SourceGraphic" result="result5"/></filter><path fill="#9C0" d="M492.1 530.3q-2.9 2.9-2.9 7v81.6q.1 3.95 2.9 6.75 2.9 2.95 7 2.95h108.65q4.1 0 7-2.95 2.85-2.8 2.95-6.75v-81.6q0-4.1-2.95-7-2.9-2.95-7-2.95H499.1q-4.1 0-7 2.95z" id="a"/><path fill="#FFF" d="M966.45 100.5Q947.95 82 921.8 82H458.15Q432 82 413.5 100.5T395 145.15V538.8q0 26.15 18.5 44.65t44.65 18.5H921.8q26.15 0 44.65-18.5t18.5-44.65V145.15q0-26.15-18.5-44.65z" id="d"/><path fill="#CCC" d="M105.6 41.6v-2L51.85 27.85 8.35 49v2.45l17.55 4.6q10.45 2.6 20.85 5.25l18.9 4.9 39.95-24.6z" id="e"/><g id="f"><path fill="#FFF" d="M65.05 61.35l2.9-1.75-2.9-.75-2.7 1.65-6.1-1.45 8.8 2.3M105 34.85v-.05L51.25 23.05l-43.4 21.1 57.2 14.7 39.95-24z"/><path fill="#E9E9E9" d="M7.8 44.2v2.45l17.5 4.6q10.45 2.6 20.85 5.25l8.05 2q1 .25 2.05.55l6.1 1.45 2.7-1.65-57.2-14.7-.05.05z"/><path fill="#BFBFBF" d="M105 36.8v-1.95l-39.95 24 2.9.75L105 36.8z"/></g><g id="g"><path fill="#BBB1AF" d="M64.2 59.8q-.096.096-.25.1h.25v-.1z"/><path fill="#EDEAD9" d="M97.4 36.05q-.15-.65-2.1-1.1l-40.35-8.4q-1-.2-1.8-.15-1.85 0-3.1.7L17.1 41.05q-1 .55-1.05 1.05v.05q0 .55 1.35 1.05l43.1 12.2q2.3.7 3.15.3.9-.4 1.25-.6l31.65-18.05q.65-.4.8-.8.05-.15.05-.2M82.65 34.8l5.6 1.5-3.6.35-2-1.85m2.6 2.8l4.35-.3-3.8 2.05-.55-1.75m-2.95 2.9l-.55-.05-14.45-.8v-.15q0-.25-.1-.55l14.55-1.15.2-.05q.45.9.45 1.9 0 .4-.1.85M52.05 28.35l.3 1.25-3.95.5 3.65-1.75m2.55 1.5l-.25-1.55 4.15 1.35-3.9.2m-1.95 1.2q.15 0 .3.05L55 36.15q-1 .05-1.9.25h-.3l-7.25-4.35q3.3-.7 7.1-1m4.7 5h-1.1l-1.8-5.1 2.8-.1q2.75-.05 5.25.1l-3.6 5.1h-1.55M44.4 32.3q.1 0 .25-.05v.2l7.15 4.2q-.75.2-1.5.45-.15.05-.35.15l-5.25-1.3-6.45-1.7 1.4-.6q2.25-.85 4.75-1.35m3.05 7.35v.25l-14.1.7h-.85q-.05-.25-.05-.55 0-1 .55-1.9h.35l14.3.8q-.2.3-.2.7m1.2 1.95l.25-.05q.55.3 1.4.6.1 0 .15.1l-1.7.9-7.65 3.65q-.7-.2-1.45-.45-2.1-.8-3.6-1.6l12.6-3.15m-.95-1.15q.15.3.55.6l-13.3 3q-1.5-1.05-2.1-2.25l14.85-1.35m1.25-2.7q-.55.3-.9.65L33.8 37q1.2-1.2 3.35-2.25.2-.15.4-.2v.3l11.4 2.9m.75 10.7q-.45-.05-.9-.05-3.45-.45-6.45-1.25l9.1-4.6q.05-.05.1 0 1.05.3 2.3.4l-.85 1.1-3.3 4.4m8.05-5.3h.2l1.6 5.7q-.6-.05-1.2 0-.55-.05-1.1 0-1.9 0-3.7-.05-1.15-.1-2.25-.15l3.6-5.55.15-.3v.35H57.75m1.55 1.1l-.4-1.1q1.3-.15 2.45-.3l.35.15 7.25 4.7q-2.15.45-4.55.75-1.65.2-3.35.3l-1.75-4.5m18-10.05l-5.7 1.45-6.55 1.6q-.25-.15-.65-.25-.75-.3-1.6-.45l8.8-4.15.15-.05q1.7.4 3.25.95 1.25.4 2.3.9m-13.75 1.25l-1.9.85q-.65-.1-1.45-.15l3.35-4.7v-.35h.3q3.65.25 6.85.95l-7.15 3.4m3.15 5.3q.25-.2.4-.45l14.75 1.2Q81 43 78.9 44.3l-12.1-2.8-.85-.15q.45-.3.75-.6m-1.9 1.15v.15l12 3.25q-.85.35-1.8.75-2.05.7-4.3 1.3l-3.5-2.2-3.3-2.1-.95-.55q.75-.2 1.45-.45.1 0 .15-.05.1-.05.25-.1m2.15-3.35q-.35-.55-1.15-.95l12.75-2.75q1.9 1 2.85 2.2l-14.45 1.5m-42.4 3.5l4.4-.05 1 2-5.4-1.95m4.2-1.35l-3.75.15 4.45-2.05-.7 1.9m34.3 11.2l-.55-1.8 5.2-.95-4.65 2.75m-3.4-1.75L60 52.2l-5.7-2.05h5.35z"/><path fill="#9D8D8E" d="M60 52.2l-.35-2.05H54.3L60 52.2m2.5-2.1l.55 1.8 4.65-2.75-5.2.95M25 40.85l3.75-.15.7-1.9L25 40.85M28.95 42l-4.4.05 5.4 1.95-1-2m36.85-4.4q.8.4 1.15.95l14.45-1.5q-.95-1.2-2.85-2.2L65.8 37.6m-1 4.45v.9l2.4 2.2 3.5 2.2q2.25-.6 4.3-1.3.95-.4 1.8-.75l-12-3.25m1.9-1.3l.1.75 12.1 2.8q2.1-1.3 2.95-2.8L67.1 40.3q-.15.25-.4.45m-5.05-4.45l1.9-.85v-4l-3.35 4.7q.8.05 1.45.15m9.95-.65V32.4l-8.8 4.15q.85.15 1.6.45.4.1.65.25l6.55-1.6m-9.8 9.15l2.6 3.65q2.4-.3 4.55-.75L61.7 43l.1 1.1v.7m-6.75-1.65q-.05-.1-.15-.05l-3.6 5.55q1.1.05 2.25.15l1.65-4-.05-.5-.1-1.15m2.9 0h-.2v1.5l.6 4.2q.6-.05 1.2 0l-1.6-5.7m-15.6 4q3 .8 6.45 1.25l2.65-4.6.1-.05v-1.2q-.05-.05-.1 0l-9.1 4.6m5.7-8.75q.35-.35.9-.65l-11.4-2.9-.4-.1Q35 35.8 33.8 37l14.25 1.4m.2 2.65q-.4-.3-.55-.6L32.85 41.8q.6 1.2 2.1 2.25l13.3-3m.5 2.1l-.1-1.55-12.6 3.15q1.5.8 3.6 1.6.75.25 1.45.45l7.65-3.65m-1.3-3.25v-.25q0-.4.2-.7l-14.3-.8v2.45l14.1-.7m-2.8-7.45l.05 3.5 5.25 1.3q.2-.1.35-.15.75-.25 1.5-.45l-7.15-4.2m8.3-1.35q-.15-.05-.3-.05l.45 5.35q.9-.2 1.9-.25l-2.05-5.05m1.4-2.8l.25 1.55 3.9-.2-4.15-1.35m-2 1.3l-.3-1.25-3.65 1.75 3.95-.5m29.4 10.85V37.8L67.2 38.95q.1.3.1.55v.15l14.45.8m7.85-3.15l-4.35.3.55 1.75 3.8-2.05m-1.35-1l-5.6-1.5 2 1.85 3.6-.35z"/><path fill="#CDC3C1" d="M64.8 42.95l-.15-.15-.75.25 3.3 2.1-2.4-2.2m-3.75 5.8q1.7-.1 3.35-.3l-2.6-3.65v-.7l-2.5.15 1.75 4.5M55.2 44.8l-1.65 4q1.8.05 3.7.05.55-.05 1.1 0l-.6-4.2v-.3l-2.6-.05.05.5m-6.4 3.6q.45 0 .9.05l3.3-4.4-1.45-.25h-.1l-2.65 4.6z"/><path fill="#C3BBB8" d="M64.8 42.05l-.25-.05q-.05.05-.15.05-.7.25-1.45.45l.95.55.75-.25h.15v-.75m2-.55l-.1-.75q-.3.3-.75.6l.85.15m-7.9 1.65l.4 1.1 2.5-.15-.1-1.1-.35-.15q-1.15.15-2.45.3m-1.15 0H55.05l.1 1.15 2.6.05v-1.2m-3.9-.2q-1.25-.1-2.3-.4v1.25l1.45.25.85-1.1m-4.95-1.4l-.25.05.1 1.55 1.7-.9q-.05-.1-.15-.1-.85-.3-1.4-.6z"/><path fill="#CCC" d="M63.55 35.45l7.15-3.4q-3.2-.7-6.85-.95l-.3.35v4m8.05-3.05v3.25l5.7-1.45q-1.05-.5-2.3-.9-1.55-.55-3.25-.95l-.15.05m-39.1 8.2h.85v-2.45H33q-.55.9-.55 1.9 0 .3.05.55m12.2-4.65l-.05-3.5v-.2q-.15.05-.25.05-2.5.5-4.75 1.35l-1.4.6 6.45 1.7m11.55.1H58.9l3.6-5.1q-2.5-.15-5.25-.1l-2.8.1 1.8 5.1m-3.15.35l-.45-5.35q-3.8.3-7.1 1l7.25 4.35h.3z"/><path fill="#F3EFEE" d="M51.55 43.75l-.1.05h.1v-.05z"/></g><path id="b" stroke="#8CA8B8" stroke-linejoin="round" stroke-linecap="round" fill="none" d="M607.75 527.35q4.1 0 7 2.95 2.95 2.9 2.95 7v81.6q-.1 3.95-2.95 6.75-2.9 2.95-7 2.95H499.1q-4.1 0-7-2.95-2.8-2.8-2.9-6.75v-81.6q0-4.1 2.9-7 2.9-2.95 7-2.95h108.6"/><path id="h" stroke="#BFBFBF" stroke-opacity=".478" stroke-width="3.5" stroke-linejoin="round" stroke-linecap="round" fill="none" d="M16.05 42.1v.05q0 .55 1.35 1.05l43.1 12.2q2.3.7 3.15.3.9-.4 1.25-.6l31.65-18.05q.65-.4.8-.8.05-.15.05-.2-.15-.65-2.1-1.1l-40.35-8.4q-1-.2-1.8-.15-1.85 0-3.1.7L17.1 41.05q-1 .55-1.05 1.05z"/></defs><g transform="translate(-486.95 -524.95)"><use xlink:href="#a"/><use xlink:href="#b"/></g><g filter="url(#c)"><use xlink:href="#d" transform="matrix(.19302 0 0 .1714 -67.45 -5.65)"/><use xlink:href="#e" transform="translate(8.8 8.4)"/><use xlink:href="#f" transform="translate(8.8 8.4)"/><g transform="translate(8.8 8.4)"><use xlink:href="#g"/><use xlink:href="#h"/></g></g></svg>