
<svg xmlns="http://www.w3.org/2000/svg" version="1.1" xmlns:xlink="http://www.w3.org/1999/xlink" preserveAspectRatio="none" x="0px" y="0px" width="129px" height="102px" viewBox="0 0 129 102">
<defs>
<g id="Layer0_0_FILL">
<path fill="#CC99CC" stroke="none" d="
M 129.75 10.8
Q 129.75 6.7 126.8 3.8 123.9 0.85 119.8 0.85
L 119.75 0.85 11.15 0.85
Q 7.05 0.85 4.15 3.8 1.25 6.7 1.25 10.8
L 1.25 92.4
Q 1.35 96.35 4.15 99.15 7.05 102.1 11.15 102.1
L 119.8 102.1
Q 123.9 102.1 126.8 99.15 129.65 96.35 129.75 92.4
L 129.75 10.8
M 18.6 38.4
Q 18.6 36.5 19.75 35.2 20.85 33.9 22.55 33.9 24.05 33.9 24.9 34.5
L 24.3 35.8
Q 23.8 35.25 22.65 35.25 21.55 35.25 20.9 36.2 20.2 37.05 20.2 38.45 20.2 39.85 20.85 40.65 21.45 41.45 22.55 41.45 23.75 41.45 24.45 40.6
L 25.15 41.8
Q 24.2 42.8 22.4 42.8 20.6 42.8 19.6 41.6 18.6 40.45 18.6 38.4
M 25.9 39.5
Q 25.9 38.05 26.7 37.15 27.55 36.25 28.9 36.25 30.35 36.25 31.1 37.1 31.9 38 31.9 39.5 31.9 41 31.1 41.9 30.3 42.75 28.9 42.75 27.45 42.75 26.7 41.9 25.9 41 25.9 39.5
M 33.35 34.05
L 34.8 33.7 34.8 40.75
Q 34.8 41.9 35.5 42.1 35.15 42.75 34.35 42.75 33.35 42.75 33.35 41.4
L 33.35 34.05
M 42.25 39.5
Q 42.25 41 41.45 41.9 40.65 42.75 39.25 42.75 37.8 42.75 37.05 41.9 36.25 41 36.25 39.5 36.25 38.05 37.05 37.15 37.9 36.25 39.25 36.25 40.7 36.25 41.45 37.1 42.25 38 42.25 39.5
M 48.05 36.35
L 49 36.35 49 45.1 47.5 45.1 47.5 42.45
Q 47 42.75 46.05 42.75 44.7 42.75 43.9 41.95 43.15 41.1 43.15 39.55 43.15 38.05 44.05 37.15 44.9 36.25 46.3 36.25 47.15 36.25 47.8 36.75
L 48.05 36.35
M 54.5 36.35
L 55.95 36.35 55.95 42.65 54.5 42.65 54.5 42.15
Q 54.15 42.4 53.65 42.6 53.1 42.75 52.65 42.75 50.45 42.75 50.45 40.45
L 50.45 36.35 51.9 36.35 51.9 40.35
Q 51.9 41.55 53 41.55 53.5 41.55 53.9 41.3 54.35 41.05 54.5 40.7
L 54.5 36.35
M 57.15 39.6
Q 57.15 38.1 58.05 37.2 58.95 36.25 60.25 36.25 61.6 36.25 62.45 37.05 63.25 37.9 63.25 39.15 63.25 39.4 63.15 39.95
L 58.65 39.95
Q 58.7 40.7 59.2 41.15 59.65 41.55 60.45 41.55 61.45 41.55 62 41
L 62.55 42.15
Q 61.75 42.75 60.25 42.75 58.8 42.75 57.95 41.95 57.15 41.1 57.15 39.6
M 68.3 36.6
Q 69.05 36.25 70.1 36.25 71.5 36.25 72.2 36.9 72.85 37.55 72.85 39.4
L 72.85 40.75
Q 72.85 42 73.35 42.3 73.15 42.6 72.95 42.7 72.75 42.75 72.45 42.75 72.15 42.75 71.85 42.55 71.6 42.3 71.55 42 71.35 42.35 70.85 42.55 70.35 42.75 69.8 42.75 68.8 42.75 68.2 42.25 67.65 41.75 67.65 40.8 67.65 39.75 68.45 39.1 69.25 38.5 70.75 38.5 71.05 38.5 71.4 38.6 71.4 37.5 70 37.5 69.15 37.5 68.6 37.75
L 68.3 36.6
M 77.55 36.25
Q 78.3 36.25 78.7 36.5
L 78.05 37.75
Q 77.7 37.5 77.2 37.5 76.7 37.5 76.3 37.95 75.9 38.4 75.9 39.1
L 75.9 42.65 74.45 42.65 74.45 36.35 75.9 36.35 75.9 36.95
Q 76.5 36.25 77.55 36.25
M 81.25 41.15
Q 81.7 41.55 82.5 41.55 83.5 41.55 84.05 41
L 84.6 42.15
Q 83.8 42.75 82.3 42.75 80.85 42.75 80 41.95 79.2 41.1 79.2 39.6 79.2 38.1 80.1 37.2 81 36.25 82.3 36.25 83.65 36.25 84.5 37.05 85.3 37.9 85.3 39.15 85.3 39.4 85.2 39.95
L 80.7 39.95
Q 80.75 40.7 81.25 41.15
M 92.15 36.25
Q 93.55 36.25 94.25 36.9 94.9 37.55 94.9 39.4
L 94.9 40.75
Q 94.9 42 95.4 42.3 95.2 42.6 95 42.7 94.8 42.75 94.5 42.75 94.2 42.75 93.9 42.55 93.65 42.3 93.6 42 93.4 42.35 92.9 42.55 92.4 42.75 91.85 42.75 90.85 42.75 90.25 42.25 89.7 41.75 89.7 40.8 89.7 39.75 90.5 39.1 91.3 38.5 92.8 38.5 93.1 38.5 93.45 38.6 93.45 37.5 92.05 37.5 91.2 37.5 90.65 37.75
L 90.35 36.6
Q 91.1 36.25 92.15 36.25
M 100.1 36.35
L 101.15 36.35 101.4 36.95
Q 102 36.25 103.2 36.25 104.3 36.25 104.95 36.95 105.6 37.6 105.6 38.8
L 105.6 42.65 104.15 42.65 104.15 39
Q 104.15 38.2 103.8 37.85 103.5 37.5 102.8 37.5 102.5 37.5 102.15 37.65 101.75 37.85 101.55 38.1
L 101.55 42.65 100.1 42.65 100.1 36.35
M 88.25 34.2
Q 88.5 34.45 88.5 34.8 88.5 35.15 88.25 35.4 88 35.65 87.65 35.65 87.3 35.65 87.05 35.4 86.8 35.15 86.8 34.8 86.8 34.45 87.05 34.2 87.3 33.95 87.65 33.95 88 33.95 88.25 34.2
M 86.1 36.35
L 88.35 36.35 88.35 42.65 86.9 42.65 86.9 37.6 86.1 37.6 86.1 36.35
M 106.8 39.5
Q 106.8 38.05 107.6 37.15 108.45 36.25 109.8 36.25 111.25 36.25 112 37.1 112.8 38 112.8 39.5 112.8 41 112 41.9 111.2 42.75 109.8 42.75 108.35 42.75 107.6 41.9 106.8 41 106.8 39.5
M 39.05 48.95
Q 39.4 48.95 39.65 49.2 39.9 49.45 39.9 49.8 39.9 50.15 39.65 50.4 39.4 50.65 39.05 50.65 38.7 50.65 38.45 50.4 38.2 50.15 38.2 49.8 38.2 49.45 38.45 49.2 38.7 48.95 39.05 48.95
M 37.5 51.35
L 39.75 51.35 39.75 57.65 38.3 57.65 38.3 52.6 37.5 52.6 37.5 51.35
M 36.55 51.35
L 36.55 52.55 34.85 52.55 34.85 55.3
Q 34.85 55.95 35.05 56.25 35.25 56.55 35.8 56.55 36.3 56.55 36.75 56.25
L 36.75 57.6
Q 36.25 57.75 35.3 57.75 34.35 57.75 33.85 57.25 33.35 56.7 33.35 55.75
L 33.35 52.55 32.65 52.55 32.65 51.35 33.35 51.35 33.35 50.1 34.85 49.55 34.85 51.35 36.55 51.35
M 30.9 51.9
Q 31.55 52.55 31.55 54.4
L 31.55 55.75
Q 31.55 57 32.05 57.3 31.85 57.6 31.65 57.7 31.45 57.75 31.15 57.75 30.85 57.75 30.55 57.55 30.3 57.3 30.25 57 30.05 57.35 29.55 57.55 29.05 57.75 28.5 57.75 27.5 57.75 26.9 57.25 26.35 56.75 26.35 55.8 26.35 54.75 27.15 54.1 27.95 53.5 29.45 53.5 29.75 53.5 30.1 53.6 30.1 52.5 28.7 52.5 27.85 52.5 27.3 52.75
L 27 51.6
Q 27.75 51.25 28.8 51.25 30.2 51.25 30.9 51.9
M 25.2 52.75
Q 24.85 52.5 24.35 52.5 23.85 52.5 23.45 52.95 23.05 53.4 23.05 54.1
L 23.05 57.65 21.6 57.65 21.6 51.35 23.05 51.35 23.05 51.95
Q 23.65 51.25 24.7 51.25 25.45 51.25 25.85 51.5
L 25.2 52.75
M 15.95 51.8
Q 16.5 51.25 17.3 51.25 20.3 51.25 20.3 54.55 20.3 56.1 19.45 56.95 18.65 57.75 17.2 57.75 16.5 57.75 15.95 57.5
L 15.95 60.1 14.45 60.1 14.45 51.35 15.95 51.35 15.95 51.8
M 109.05 51.25
Q 110.5 51.25 111.25 52.1 112.05 53 112.05 54.5 112.05 56 111.25 56.9 110.45 57.75 109.05 57.75 107.6 57.75 106.85 56.9 106.05 56 106.05 54.5 106.05 53.05 106.85 52.15 107.7 51.25 109.05 51.25
M 101.5 51.7
Q 102.1 51.25 103.1 51.25 104.05 51.25 104.95 51.7
L 104.5 52.85
Q 104.05 52.4 103.15 52.4 102.4 52.4 102.4 53.05 102.4 53.25 102.65 53.45 102.9 53.65 103.75 54 104.55 54.3 104.9 54.75 105.3 55.25 105.3 55.9 105.3 56.75 104.65 57.25 104 57.75 102.9 57.75 102.25 57.75 101.9 57.65 101.5 57.55 100.9 57.25
L 101.45 56.1
Q 102.1 56.6 102.9 56.6 103.75 56.6 103.75 56 103.75 55.65 103.5 55.4 103.25 55.2 102.5 54.85 100.9 54.2 100.9 53 100.9 52.15 101.5 51.7
M 98.25 53.6
Q 98.25 52.5 96.85 52.5 96 52.5 95.45 52.75
L 95.15 51.6
Q 95.9 51.25 96.95 51.25 98.35 51.25 99.05 51.9 99.7 52.55 99.7 54.4
L 99.7 55.75
Q 99.7 57 100.2 57.3 100 57.6 99.8 57.7 99.6 57.75 99.3 57.75 99 57.75 98.7 57.55 98.45 57.3 98.4 57 98.2 57.35 97.7 57.55 97.2 57.75 96.65 57.75 95.65 57.75 95.05 57.25 94.5 56.75 94.5 55.8 94.5 54.75 95.3 54.1 96.1 53.5 97.6 53.5 97.9 53.5 98.25 53.6
M 92.55 51.35
L 94.1 51.35 91.2 57.75 90.65 57.75 87.85 51.35 89.45 51.35 90.95 55.2 92.55 51.35
M 82.05 55.4
Q 81.8 55.2 81.05 54.85 79.45 54.2 79.45 53 79.45 52.15 80.05 51.7 80.65 51.25 81.65 51.25 82.6 51.25 83.5 51.7
L 83.05 52.85
Q 82.6 52.4 81.7 52.4 80.95 52.4 80.95 53.05 80.95 53.25 81.2 53.45 81.45 53.65 82.3 54 83.1 54.3 83.45 54.75 83.85 55.25 83.85 55.9 83.85 56.75 83.2 57.25 82.55 57.75 81.45 57.75 80.8 57.75 80.45 57.65 80.05 57.55 79.45 57.25
L 80 56.1
Q 80.65 56.6 81.45 56.6 82.3 56.6 82.3 56 82.3 55.65 82.05 55.4
M 48.6 49.05
L 50.1 48.7 50.1 51.75
Q 50.65 51.25 51.65 51.25 52.8 51.25 53.45 51.9 54.1 52.55 54.1 53.8
L 54.1 57.65 52.65 57.65 52.65 53.8
Q 52.65 53.2 52.3 52.85 51.95 52.5 51.35 52.5 51 52.5 50.6 52.7 50.25 52.9 50.1 53.15
L 50.1 57.65 48.6 57.65 48.6 49.05
M 70.15 49.05
L 71.6 48.7 71.6 57.65 70.15 57.65 70.15 57.25
Q 69.95 57.45 69.5 57.6 69.1 57.75 68.6 57.75 67.3 57.75 66.55 56.95 65.8 56.1 65.8 54.6 65.8 53.15 66.65 52.2 67.55 51.25 68.85 51.25 69.55 51.25 70.15 51.55
L 70.15 49.05
M 77.85 52.1
Q 78.65 53 78.65 54.5 78.65 56 77.85 56.9 77.05 57.75 75.65 57.75 74.2 57.75 73.45 56.9 72.65 56 72.65 54.5 72.65 53.05 73.45 52.15 74.3 51.25 75.65 51.25 77.1 51.25 77.85 52.1
M 56.1 52.15
Q 56.95 51.25 58.3 51.25 59.75 51.25 60.5 52.1 61.3 53 61.3 54.5 61.3 56 60.5 56.9 59.7 57.75 58.3 57.75 56.85 57.75 56.1 56.9 55.3 56 55.3 54.5 55.3 53.05 56.1 52.15
M 46.35 51.95
Q 47 52.6 47 53.8
L 47 57.65 45.55 57.65 45.55 54
Q 45.55 53.2 45.2 52.85 44.9 52.5 44.2 52.5 43.9 52.5 43.55 52.65 43.15 52.85 42.95 53.1
L 42.95 57.65 41.5 57.65 41.5 51.35 42.55 51.35 42.8 51.95
Q 43.4 51.25 44.6 51.25 45.7 51.25 46.35 51.95
M 116.9 51.7
L 116.45 52.85
Q 116 52.4 115.1 52.4 114.35 52.4 114.35 53.05 114.35 53.25 114.6 53.45 114.85 53.65 115.7 54 116.5 54.3 116.85 54.75 117.25 55.25 117.25 55.9 117.25 56.75 116.6 57.25 115.95 57.75 114.85 57.75 114.2 57.75 113.85 57.65 113.45 57.55 112.85 57.25
L 113.4 56.1
Q 114.05 56.6 114.85 56.6 115.7 56.6 115.7 56 115.7 55.65 115.45 55.4 115.2 55.2 114.45 54.85 112.85 54.2 112.85 53 112.85 52.15 113.45 51.7 114.05 51.25 115.05 51.25 116 51.25 116.9 51.7
M 89.9 67.4
Q 89.15 67.4 89.15 68.05 89.15 68.25 89.4 68.45 89.65 68.65 90.5 69 91.3 69.3 91.65 69.75 92.05 70.25 92.05 70.9 92.05 71.75 91.4 72.25 90.75 72.75 89.65 72.75 89 72.75 88.65 72.65 88.25 72.55 87.65 72.25
L 88.2 71.1
Q 88.85 71.6 89.65 71.6 90.5 71.6 90.5 71 90.5 70.65 90.25 70.4 90 70.2 89.25 69.85 87.65 69.2 87.65 68 87.65 67.15 88.25 66.7 88.85 66.25 89.85 66.25 90.8 66.25 91.7 66.7
L 91.25 67.85
Q 90.8 67.4 89.9 67.4
M 83.7 66.25
Q 85.1 66.25 85.8 66.9 86.45 67.55 86.45 69.4
L 86.45 70.75
Q 86.45 72 86.95 72.3 86.75 72.6 86.55 72.7 86.35 72.75 86.05 72.75 85.75 72.75 85.45 72.55 85.2 72.3 85.15 72 84.95 72.35 84.45 72.55 83.95 72.75 83.4 72.75 82.4 72.75 81.8 72.25 81.25 71.75 81.25 70.8 81.25 69.75 82.05 69.1 82.85 68.5 84.35 68.5 84.65 68.5 85 68.6 85 67.5 83.6 67.5 82.75 67.5 82.2 67.75
L 81.9 66.6
Q 82.65 66.25 83.7 66.25
M 35.95 67.2
Q 36.85 66.25 38.15 66.25 38.85 66.25 39.45 66.55
L 39.45 64.05 40.9 63.7 40.9 72.65 39.45 72.65 39.45 72.25
Q 39.25 72.45 38.8 72.6 38.4 72.75 37.9 72.75 36.6 72.75 35.85 71.95 35.1 71.1 35.1 69.6 35.1 68.15 35.95 67.2
M 69.8 66.35
L 70.85 66.35 71.1 66.95
Q 71.7 66.25 72.9 66.25 74 66.25 74.65 66.95 75.3 67.6 75.3 68.8
L 75.3 72.65 73.85 72.65 73.85 69
Q 73.85 68.2 73.5 67.85 73.2 67.5 72.5 67.5 72.2 67.5 71.85 67.65 71.45 67.85 71.25 68.1
L 71.25 72.65 69.8 72.65 69.8 66.35
M 65.35 67.5
Q 64.5 67.5 63.95 67.75
L 63.65 66.6
Q 64.4 66.25 65.45 66.25 66.85 66.25 67.55 66.9 68.2 67.55 68.2 69.4
L 68.2 70.75
Q 68.2 72 68.7 72.3 68.5 72.6 68.3 72.7 68.1 72.75 67.8 72.75 67.5 72.75 67.2 72.55 66.95 72.3 66.9 72 66.7 72.35 66.2 72.55 65.7 72.75 65.15 72.75 64.15 72.75 63.55 72.25 63 71.75 63 70.8 63 69.75 63.8 69.1 64.6 68.5 66.1 68.5 66.4 68.5 66.75 68.6 66.75 67.5 65.35 67.5
M 61.55 70.75
Q 61.55 71.9 62.25 72.1 61.9 72.75 61.1 72.75 60.1 72.75 60.1 71.4
L 60.1 64.05 61.55 63.7 61.55 70.75
M 77.1 66.35
L 77.1 65.1 78.6 64.55 78.6 66.35 80.3 66.35 80.3 67.55 78.6 67.55 78.6 70.3
Q 78.6 70.95 78.8 71.25 79 71.55 79.55 71.55 80.05 71.55 80.5 71.25
L 80.5 72.6
Q 80 72.75 79.05 72.75 78.1 72.75 77.6 72.25 77.1 71.7 77.1 70.75
L 77.1 67.55 76.4 67.55 76.4 66.35 77.1 66.35
M 42.85 67.2
Q 43.75 66.25 45.05 66.25 46.4 66.25 47.25 67.05 48.05 67.9 48.05 69.15 48.05 69.4 47.95 69.95
L 43.45 69.95
Q 43.5 70.7 44 71.15 44.45 71.55 45.25 71.55 46.25 71.55 46.8 71
L 47.35 72.15
Q 46.55 72.75 45.05 72.75 43.6 72.75 42.75 71.95 41.95 71.1 41.95 69.6 41.95 68.1 42.85 67.2
M 52.7 66.35
L 54.2 66.35 54.2 66.8
Q 54.75 66.25 55.55 66.25 58.55 66.25 58.55 69.55 58.55 71.1 57.7 71.95 56.9 72.75 55.45 72.75 54.75 72.75 54.2 72.5
L 54.2 75.1 52.7 75.1 52.7 66.35
M 94.45 70.85
Q 94.9 70.85 95.2 71.15 95.55 71.45 95.55 71.9 95.55 72.3 95.2 72.65 94.9 72.95 94.45 72.95 94.05 72.95 93.75 72.65 93.4 72.3 93.4 71.9 93.4 71.45 93.75 71.15 94.05 70.85 94.45 70.85
M 55.15 67.5
Q 54.6 67.5 54.2 67.9
L 54.2 71.2
Q 54.6 71.55 55.1 71.55 56.15 71.55 56.6 71.05 57 70.55 57 69.5 57 68.4 56.6 67.95 56.15 67.5 55.15 67.5
M 43.5 68.85
L 46.6 68.85
Q 46.45 67.5 45.05 67.5 43.8 67.5 43.5 68.85
M 64.45 70.75
Q 64.45 71.6 65.4 71.6 66.75 71.6 66.75 70.3
L 66.75 69.7
Q 66.35 69.6 66.2 69.6 64.45 69.6 64.45 70.75
M 38.45 67.5
Q 37.55 67.5 37.1 68.05 36.6 68.55 36.6 69.55 36.6 71.55 38.5 71.55 38.7 71.55 39.05 71.4 39.35 71.3 39.45 71.15
L 39.45 67.85
Q 38.95 67.5 38.45 67.5
M 85 69.7
Q 84.6 69.6 84.45 69.6 82.7 69.6 82.7 70.75 82.7 71.6 83.65 71.6 85 71.6 85 70.3
L 85 69.7
M 58.3 52.45
Q 57.6 52.45 57.2 53 56.8 53.55 56.8 54.5 56.8 56.55 58.3 56.55 59 56.55 59.4 56.05 59.8 55.5 59.8 54.5 59.8 52.45 58.3 52.45
M 74.55 53
Q 74.15 53.55 74.15 54.5 74.15 56.55 75.65 56.55 76.35 56.55 76.75 56.05 77.15 55.5 77.15 54.5 77.15 52.45 75.65 52.45 74.95 52.45 74.55 53
M 70.15 52.85
Q 69.65 52.5 69.15 52.5 68.25 52.5 67.8 53.05 67.3 53.55 67.3 54.55 67.3 56.55 69.2 56.55 69.4 56.55 69.75 56.4 70.05 56.3 70.15 56.15
L 70.15 52.85
M 98.25 54.7
Q 97.85 54.6 97.7 54.6 95.95 54.6 95.95 55.75 95.95 56.6 96.9 56.6 98.25 56.6 98.25 55.3
L 98.25 54.7
M 110.55 54.5
Q 110.55 52.45 109.05 52.45 108.35 52.45 107.95 53 107.55 53.55 107.55 54.5 107.55 56.55 109.05 56.55 109.75 56.55 110.15 56.05 110.55 55.5 110.55 54.5
M 18.75 54.5
Q 18.75 53.4 18.35 52.95 17.9 52.5 16.9 52.5 16.35 52.5 15.95 52.9
L 15.95 56.2
Q 16.35 56.55 16.85 56.55 17.9 56.55 18.35 56.05 18.75 55.55 18.75 54.5
M 30.1 54.7
Q 29.7 54.6 29.55 54.6 27.8 54.6 27.8 55.75 27.8 56.6 28.75 56.6 30.1 56.6 30.1 55.3
L 30.1 54.7
M 111.3 39.5
Q 111.3 37.45 109.8 37.45 109.1 37.45 108.7 38 108.3 38.55 108.3 39.5 108.3 41.55 109.8 41.55 110.5 41.55 110.9 41.05 111.3 40.5 111.3 39.5
M 93.45 39.7
Q 93.05 39.6 92.9 39.6 91.15 39.6 91.15 40.75 91.15 41.6 92.1 41.6 93.45 41.6 93.45 40.3
L 93.45 39.7
M 83.85 38.85
Q 83.7 37.5 82.3 37.5 81.05 37.5 80.75 38.85
L 83.85 38.85
M 69.1 40.75
Q 69.1 41.6 70.05 41.6 71.4 41.6 71.4 40.3
L 71.4 39.7
Q 71 39.6 70.85 39.6 69.1 39.6 69.1 40.75
M 60.25 37.5
Q 59 37.5 58.7 38.85
L 61.8 38.85
Q 61.65 37.5 60.25 37.5
M 47.5 41.25
L 47.5 37.85
Q 47.15 37.5 46.5 37.5 45.65 37.5 45.15 38.05 44.65 38.65 44.65 39.55 44.65 41.55 46.45 41.55 47.1 41.55 47.5 41.25
M 38.15 38
Q 37.75 38.55 37.75 39.5 37.75 41.55 39.25 41.55 39.95 41.55 40.35 41.05 40.75 40.5 40.75 39.5 40.75 37.45 39.25 37.45 38.55 37.45 38.15 38
M 27.8 38
Q 27.4 38.55 27.4 39.5 27.4 41.55 28.9 41.55 29.6 41.55 30 41.05 30.4 40.5 30.4 39.5 30.4 37.45 28.9 37.45 28.2 37.45 27.8 38 Z"/>
</g>

<g id="Layer0_0_MEMBER_0_FILL">
<path fill="#000000" stroke="none" d="
M 54.2 66.35
L 52.7 66.35 52.7 75.1 54.2 75.1 54.2 72.5
Q 54.75 72.75 55.45 72.75 56.9 72.75 57.7 71.95 58.55 71.1 58.55 69.55 58.55 66.25 55.55 66.25 54.75 66.25 54.2 66.8
L 54.2 66.35
M 54.2 67.9
Q 54.6 67.5 55.15 67.5 56.15 67.5 56.6 67.95 57 68.4 57 69.5 57 70.55 56.6 71.05 56.15 71.55 55.1 71.55 54.6 71.55 54.2 71.2
L 54.2 67.9
M 45.05 66.25
Q 43.75 66.25 42.85 67.2 41.95 68.1 41.95 69.6 41.95 71.1 42.75 71.95 43.6 72.75 45.05 72.75 46.55 72.75 47.35 72.15
L 46.8 71
Q 46.25 71.55 45.25 71.55 44.45 71.55 44 71.15 43.5 70.7 43.45 69.95
L 47.95 69.95
Q 48.05 69.4 48.05 69.15 48.05 67.9 47.25 67.05 46.4 66.25 45.05 66.25
M 46.6 68.85
L 43.5 68.85
Q 43.8 67.5 45.05 67.5 46.45 67.5 46.6 68.85
M 47 53.8
Q 47 52.6 46.35 51.95 45.7 51.25 44.6 51.25 43.4 51.25 42.8 51.95
L 42.55 51.35 41.5 51.35 41.5 57.65 42.95 57.65 42.95 53.1
Q 43.15 52.85 43.55 52.65 43.9 52.5 44.2 52.5 44.9 52.5 45.2 52.85 45.55 53.2 45.55 54
L 45.55 57.65 47 57.65 47 53.8
M 58.3 51.25
Q 56.95 51.25 56.1 52.15 55.3 53.05 55.3 54.5 55.3 56 56.1 56.9 56.85 57.75 58.3 57.75 59.7 57.75 60.5 56.9 61.3 56 61.3 54.5 61.3 53 60.5 52.1 59.75 51.25 58.3 51.25
M 57.2 53
Q 57.6 52.45 58.3 52.45 59.8 52.45 59.8 54.5 59.8 55.5 59.4 56.05 59 56.55 58.3 56.55 56.8 56.55 56.8 54.5 56.8 53.55 57.2 53
M 77.1 65.1
L 77.1 66.35 76.4 66.35 76.4 67.55 77.1 67.55 77.1 70.75
Q 77.1 71.7 77.6 72.25 78.1 72.75 79.05 72.75 80 72.75 80.5 72.6
L 80.5 71.25
Q 80.05 71.55 79.55 71.55 79 71.55 78.8 71.25 78.6 70.95 78.6 70.3
L 78.6 67.55 80.3 67.55 80.3 66.35 78.6 66.35 78.6 64.55 77.1 65.1
M 61.1 72.75
Q 61.9 72.75 62.25 72.1 61.55 71.9 61.55 70.75
L 61.55 63.7 60.1 64.05 60.1 71.4
Q 60.1 72.75 61.1 72.75
M 63.95 67.75
Q 64.5 67.5 65.35 67.5 66.75 67.5 66.75 68.6 66.4 68.5 66.1 68.5 64.6 68.5 63.8 69.1 63 69.75 63 70.8 63 71.75 63.55 72.25 64.15 72.75 65.15 72.75 65.7 72.75 66.2 72.55 66.7 72.35 66.9 72 66.95 72.3 67.2 72.55 67.5 72.75 67.8 72.75 68.1 72.75 68.3 72.7 68.5 72.6 68.7 72.3 68.2 72 68.2 70.75
L 68.2 69.4
Q 68.2 67.55 67.55 66.9 66.85 66.25 65.45 66.25 64.4 66.25 63.65 66.6
L 63.95 67.75
M 65.4 71.6
Q 64.45 71.6 64.45 70.75 64.45 69.6 66.2 69.6 66.35 69.6 66.75 69.7
L 66.75 70.3
Q 66.75 71.6 65.4 71.6
M 70.85 66.35
L 69.8 66.35 69.8 72.65 71.25 72.65 71.25 68.1
Q 71.45 67.85 71.85 67.65 72.2 67.5 72.5 67.5 73.2 67.5 73.5 67.85 73.85 68.2 73.85 69
L 73.85 72.65 75.3 72.65 75.3 68.8
Q 75.3 67.6 74.65 66.95 74 66.25 72.9 66.25 71.7 66.25 71.1 66.95
L 70.85 66.35
M 78.65 54.5
Q 78.65 53 77.85 52.1 77.1 51.25 75.65 51.25 74.3 51.25 73.45 52.15 72.65 53.05 72.65 54.5 72.65 56 73.45 56.9 74.2 57.75 75.65 57.75 77.05 57.75 77.85 56.9 78.65 56 78.65 54.5
M 74.15 54.5
Q 74.15 53.55 74.55 53 74.95 52.45 75.65 52.45 77.15 52.45 77.15 54.5 77.15 55.5 76.75 56.05 76.35 56.55 75.65 56.55 74.15 56.55 74.15 54.5
M 17.3 51.25
Q 16.5 51.25 15.95 51.8
L 15.95 51.35 14.45 51.35 14.45 60.1 15.95 60.1 15.95 57.5
Q 16.5 57.75 17.2 57.75 18.65 57.75 19.45 56.95 20.3 56.1 20.3 54.55 20.3 51.25 17.3 51.25
M 18.35 52.95
Q 18.75 53.4 18.75 54.5 18.75 55.55 18.35 56.05 17.9 56.55 16.85 56.55 16.35 56.55 15.95 56.2
L 15.95 52.9
Q 16.35 52.5 16.9 52.5 17.9 52.5 18.35 52.95
M 38.15 66.25
Q 36.85 66.25 35.95 67.2 35.1 68.15 35.1 69.6 35.1 71.1 35.85 71.95 36.6 72.75 37.9 72.75 38.4 72.75 38.8 72.6 39.25 72.45 39.45 72.25
L 39.45 72.65 40.9 72.65 40.9 63.7 39.45 64.05 39.45 66.55
Q 38.85 66.25 38.15 66.25
M 37.1 68.05
Q 37.55 67.5 38.45 67.5 38.95 67.5 39.45 67.85
L 39.45 71.15
Q 39.35 71.3 39.05 71.4 38.7 71.55 38.5 71.55 36.6 71.55 36.6 69.55 36.6 68.55 37.1 68.05
M 24.35 52.5
Q 24.85 52.5 25.2 52.75
L 25.85 51.5
Q 25.45 51.25 24.7 51.25 23.65 51.25 23.05 51.95
L 23.05 51.35 21.6 51.35 21.6 57.65 23.05 57.65 23.05 54.1
Q 23.05 53.4 23.45 52.95 23.85 52.5 24.35 52.5
M 31.55 54.4
Q 31.55 52.55 30.9 51.9 30.2 51.25 28.8 51.25 27.75 51.25 27 51.6
L 27.3 52.75
Q 27.85 52.5 28.7 52.5 30.1 52.5 30.1 53.6 29.75 53.5 29.45 53.5 27.95 53.5 27.15 54.1 26.35 54.75 26.35 55.8 26.35 56.75 26.9 57.25 27.5 57.75 28.5 57.75 29.05 57.75 29.55 57.55 30.05 57.35 30.25 57 30.3 57.3 30.55 57.55 30.85 57.75 31.15 57.75 31.45 57.75 31.65 57.7 31.85 57.6 32.05 57.3 31.55 57 31.55 55.75
L 31.55 54.4
M 29.55 54.6
Q 29.7 54.6 30.1 54.7
L 30.1 55.3
Q 30.1 56.6 28.75 56.6 27.8 56.6 27.8 55.75 27.8 54.6 29.55 54.6
M 36.55 52.55
L 36.55 51.35 34.85 51.35 34.85 49.55 33.35 50.1 33.35 51.35 32.65 51.35 32.65 52.55 33.35 52.55 33.35 55.75
Q 33.35 56.7 33.85 57.25 34.35 57.75 35.3 57.75 36.25 57.75 36.75 57.6
L 36.75 56.25
Q 36.3 56.55 35.8 56.55 35.25 56.55 35.05 56.25 34.85 55.95 34.85 55.3
L 34.85 52.55 36.55 52.55
M 39.75 51.35
L 37.5 51.35 37.5 52.6 38.3 52.6 38.3 57.65 39.75 57.65 39.75 51.35
M 39.65 49.2
Q 39.4 48.95 39.05 48.95 38.7 48.95 38.45 49.2 38.2 49.45 38.2 49.8 38.2 50.15 38.45 50.4 38.7 50.65 39.05 50.65 39.4 50.65 39.65 50.4 39.9 50.15 39.9 49.8 39.9 49.45 39.65 49.2
M 26.7 41.9
Q 27.45 42.75 28.9 42.75 30.3 42.75 31.1 41.9 31.9 41 31.9 39.5 31.9 38 31.1 37.1 30.35 36.25 28.9 36.25 27.55 36.25 26.7 37.15 25.9 38.05 25.9 39.5 25.9 41 26.7 41.9
M 27.8 38
Q 28.2 37.45 28.9 37.45 30.4 37.45 30.4 39.5 30.4 40.5 30 41.05 29.6 41.55 28.9 41.55 27.4 41.55 27.4 39.5 27.4 38.55 27.8 38
M 34.8 33.7
L 33.35 34.05 33.35 41.4
Q 33.35 42.75 34.35 42.75 35.15 42.75 35.5 42.1 34.8 41.9 34.8 40.75
L 34.8 33.7
M 19.75 35.2
Q 18.6 36.5 18.6 38.4 18.6 40.45 19.6 41.6 20.6 42.8 22.4 42.8 24.2 42.8 25.15 41.8
L 24.45 40.6
Q 23.75 41.45 22.55 41.45 21.45 41.45 20.85 40.65 20.2 39.85 20.2 38.45 20.2 37.05 20.9 36.2 21.55 35.25 22.65 35.25 23.8 35.25 24.3 35.8
L 24.9 34.5
Q 24.05 33.9 22.55 33.9 20.85 33.9 19.75 35.2
M 71.6 48.7
L 70.15 49.05 70.15 51.55
Q 69.55 51.25 68.85 51.25 67.55 51.25 66.65 52.2 65.8 53.15 65.8 54.6 65.8 56.1 66.55 56.95 67.3 57.75 68.6 57.75 69.1 57.75 69.5 57.6 69.95 57.45 70.15 57.25
L 70.15 57.65 71.6 57.65 71.6 48.7
M 69.15 52.5
Q 69.65 52.5 70.15 52.85
L 70.15 56.15
Q 70.05 56.3 69.75 56.4 69.4 56.55 69.2 56.55 67.3 56.55 67.3 54.55 67.3 53.55 67.8 53.05 68.25 52.5 69.15 52.5
M 70.1 36.25
Q 69.05 36.25 68.3 36.6
L 68.6 37.75
Q 69.15 37.5 70 37.5 71.4 37.5 71.4 38.6 71.05 38.5 70.75 38.5 69.25 38.5 68.45 39.1 67.65 39.75 67.65 40.8 67.65 41.75 68.2 42.25 68.8 42.75 69.8 42.75 70.35 42.75 70.85 42.55 71.35 42.35 71.55 42 71.6 42.3 71.85 42.55 72.15 42.75 72.45 42.75 72.75 42.75 72.95 42.7 73.15 42.6 73.35 42.3 72.85 42 72.85 40.75
L 72.85 39.4
Q 72.85 37.55 72.2 36.9 71.5 36.25 70.1 36.25
M 70.05 41.6
Q 69.1 41.6 69.1 40.75 69.1 39.6 70.85 39.6 71 39.6 71.4 39.7
L 71.4 40.3
Q 71.4 41.6 70.05 41.6
M 78.7 36.5
Q 78.3 36.25 77.55 36.25 76.5 36.25 75.9 36.95
L 75.9 36.35 74.45 36.35 74.45 42.65 75.9 42.65 75.9 39.1
Q 75.9 38.4 76.3 37.95 76.7 37.5 77.2 37.5 77.7 37.5 78.05 37.75
L 78.7 36.5
M 58.05 37.2
Q 57.15 38.1 57.15 39.6 57.15 41.1 57.95 41.95 58.8 42.75 60.25 42.75 61.75 42.75 62.55 42.15
L 62 41
Q 61.45 41.55 60.45 41.55 59.65 41.55 59.2 41.15 58.7 40.7 58.65 39.95
L 63.15 39.95
Q 63.25 39.4 63.25 39.15 63.25 37.9 62.45 37.05 61.6 36.25 60.25 36.25 58.95 36.25 58.05 37.2
M 58.7 38.85
Q 59 37.5 60.25 37.5 61.65 37.5 61.8 38.85
L 58.7 38.85
M 50.1 48.7
L 48.6 49.05 48.6 57.65 50.1 57.65 50.1 53.15
Q 50.25 52.9 50.6 52.7 51 52.5 51.35 52.5 51.95 52.5 52.3 52.85 52.65 53.2 52.65 53.8
L 52.65 57.65 54.1 57.65 54.1 53.8
Q 54.1 52.55 53.45 51.9 52.8 51.25 51.65 51.25 50.65 51.25 50.1 51.75
L 50.1 48.7
M 41.45 41.9
Q 42.25 41 42.25 39.5 42.25 38 41.45 37.1 40.7 36.25 39.25 36.25 37.9 36.25 37.05 37.15 36.25 38.05 36.25 39.5 36.25 41 37.05 41.9 37.8 42.75 39.25 42.75 40.65 42.75 41.45 41.9
M 37.75 39.5
Q 37.75 38.55 38.15 38 38.55 37.45 39.25 37.45 40.75 37.45 40.75 39.5 40.75 40.5 40.35 41.05 39.95 41.55 39.25 41.55 37.75 41.55 37.75 39.5
M 49 36.35
L 48.05 36.35 47.8 36.75
Q 47.15 36.25 46.3 36.25 44.9 36.25 44.05 37.15 43.15 38.05 43.15 39.55 43.15 41.1 43.9 41.95 44.7 42.75 46.05 42.75 47 42.75 47.5 42.45
L 47.5 45.1 49 45.1 49 36.35
M 47.5 37.85
L 47.5 41.25
Q 47.1 41.55 46.45 41.55 44.65 41.55 44.65 39.55 44.65 38.65 45.15 38.05 45.65 37.5 46.5 37.5 47.15 37.5 47.5 37.85
M 55.95 36.35
L 54.5 36.35 54.5 40.7
Q 54.35 41.05 53.9 41.3 53.5 41.55 53 41.55 51.9 41.55 51.9 40.35
L 51.9 36.35 50.45 36.35 50.45 40.45
Q 50.45 42.75 52.65 42.75 53.1 42.75 53.65 42.6 54.15 42.4 54.5 42.15
L 54.5 42.65 55.95 42.65 55.95 36.35
M 95.2 71.15
Q 94.9 70.85 94.45 70.85 94.05 70.85 93.75 71.15 93.4 71.45 93.4 71.9 93.4 72.3 93.75 72.65 94.05 72.95 94.45 72.95 94.9 72.95 95.2 72.65 95.55 72.3 95.55 71.9 95.55 71.45 95.2 71.15
M 85.8 66.9
Q 85.1 66.25 83.7 66.25 82.65 66.25 81.9 66.6
L 82.2 67.75
Q 82.75 67.5 83.6 67.5 85 67.5 85 68.6 84.65 68.5 84.35 68.5 82.85 68.5 82.05 69.1 81.25 69.75 81.25 70.8 81.25 71.75 81.8 72.25 82.4 72.75 83.4 72.75 83.95 72.75 84.45 72.55 84.95 72.35 85.15 72 85.2 72.3 85.45 72.55 85.75 72.75 86.05 72.75 86.35 72.75 86.55 72.7 86.75 72.6 86.95 72.3 86.45 72 86.45 70.75
L 86.45 69.4
Q 86.45 67.55 85.8 66.9
M 84.45 69.6
Q 84.6 69.6 85 69.7
L 85 70.3
Q 85 71.6 83.65 71.6 82.7 71.6 82.7 70.75 82.7 69.6 84.45 69.6
M 89.15 68.05
Q 89.15 67.4 89.9 67.4 90.8 67.4 91.25 67.85
L 91.7 66.7
Q 90.8 66.25 89.85 66.25 88.85 66.25 88.25 66.7 87.65 67.15 87.65 68 87.65 69.2 89.25 69.85 90 70.2 90.25 70.4 90.5 70.65 90.5 71 90.5 71.6 89.65 71.6 88.85 71.6 88.2 71.1
L 87.65 72.25
Q 88.25 72.55 88.65 72.65 89 72.75 89.65 72.75 90.75 72.75 91.4 72.25 92.05 71.75 92.05 70.9 92.05 70.25 91.65 69.75 91.3 69.3 90.5 69 89.65 68.65 89.4 68.45 89.15 68.25 89.15 68.05
M 81.05 54.85
Q 81.8 55.2 82.05 55.4 82.3 55.65 82.3 56 82.3 56.6 81.45 56.6 80.65 56.6 80 56.1
L 79.45 57.25
Q 80.05 57.55 80.45 57.65 80.8 57.75 81.45 57.75 82.55 57.75 83.2 57.25 83.85 56.75 83.85 55.9 83.85 55.25 83.45 54.75 83.1 54.3 82.3 54 81.45 53.65 81.2 53.45 80.95 53.25 80.95 53.05 80.95 52.4 81.7 52.4 82.6 52.4 83.05 52.85
L 83.5 51.7
Q 82.6 51.25 81.65 51.25 80.65 51.25 80.05 51.7 79.45 52.15 79.45 53 79.45 54.2 81.05 54.85
M 94.1 51.35
L 92.55 51.35 90.95 55.2 89.45 51.35 87.85 51.35 90.65 57.75 91.2 57.75 94.1 51.35
M 96.85 52.5
Q 98.25 52.5 98.25 53.6 97.9 53.5 97.6 53.5 96.1 53.5 95.3 54.1 94.5 54.75 94.5 55.8 94.5 56.75 95.05 57.25 95.65 57.75 96.65 57.75 97.2 57.75 97.7 57.55 98.2 57.35 98.4 57 98.45 57.3 98.7 57.55 99 57.75 99.3 57.75 99.6 57.75 99.8 57.7 100 57.6 100.2 57.3 99.7 57 99.7 55.75
L 99.7 54.4
Q 99.7 52.55 99.05 51.9 98.35 51.25 96.95 51.25 95.9 51.25 95.15 51.6
L 95.45 52.75
Q 96 52.5 96.85 52.5
M 97.7 54.6
Q 97.85 54.6 98.25 54.7
L 98.25 55.3
Q 98.25 56.6 96.9 56.6 95.95 56.6 95.95 55.75 95.95 54.6 97.7 54.6
M 103.1 51.25
Q 102.1 51.25 101.5 51.7 100.9 52.15 100.9 53 100.9 54.2 102.5 54.85 103.25 55.2 103.5 55.4 103.75 55.65 103.75 56 103.75 56.6 102.9 56.6 102.1 56.6 101.45 56.1
L 100.9 57.25
Q 101.5 57.55 101.9 57.65 102.25 57.75 102.9 57.75 104 57.75 104.65 57.25 105.3 56.75 105.3 55.9 105.3 55.25 104.9 54.75 104.55 54.3 103.75 54 102.9 53.65 102.65 53.45 102.4 53.25 102.4 53.05 102.4 52.4 103.15 52.4 104.05 52.4 104.5 52.85
L 104.95 51.7
Q 104.05 51.25 103.1 51.25
M 111.25 52.1
Q 110.5 51.25 109.05 51.25 107.7 51.25 106.85 52.15 106.05 53.05 106.05 54.5 106.05 56 106.85 56.9 107.6 57.75 109.05 57.75 110.45 57.75 111.25 56.9 112.05 56 112.05 54.5 112.05 53 111.25 52.1
M 109.05 52.45
Q 110.55 52.45 110.55 54.5 110.55 55.5 110.15 56.05 109.75 56.55 109.05 56.55 107.55 56.55 107.55 54.5 107.55 53.55 107.95 53 108.35 52.45 109.05 52.45
M 116.45 52.85
L 116.9 51.7
Q 116 51.25 115.05 51.25 114.05 51.25 113.45 51.7 112.85 52.15 112.85 53 112.85 54.2 114.45 54.85 115.2 55.2 115.45 55.4 115.7 55.65 115.7 56 115.7 56.6 114.85 56.6 114.05 56.6 113.4 56.1
L 112.85 57.25
Q 113.45 57.55 113.85 57.65 114.2 57.75 114.85 57.75 115.95 57.75 116.6 57.25 117.25 56.75 117.25 55.9 117.25 55.25 116.85 54.75 116.5 54.3 115.7 54 114.85 53.65 114.6 53.45 114.35 53.25 114.35 53.05 114.35 52.4 115.1 52.4 116 52.4 116.45 52.85
M 107.6 37.15
Q 106.8 38.05 106.8 39.5 106.8 41 107.6 41.9 108.35 42.75 109.8 42.75 111.2 42.75 112 41.9 112.8 41 112.8 39.5 112.8 38 112 37.1 111.25 36.25 109.8 36.25 108.45 36.25 107.6 37.15
M 109.8 37.45
Q 111.3 37.45 111.3 39.5 111.3 40.5 110.9 41.05 110.5 41.55 109.8 41.55 108.3 41.55 108.3 39.5 108.3 38.55 108.7 38 109.1 37.45 109.8 37.45
M 88.35 36.35
L 86.1 36.35 86.1 37.6 86.9 37.6 86.9 42.65 88.35 42.65 88.35 36.35
M 88.5 34.8
Q 88.5 34.45 88.25 34.2 88 33.95 87.65 33.95 87.3 33.95 87.05 34.2 86.8 34.45 86.8 34.8 86.8 35.15 87.05 35.4 87.3 35.65 87.65 35.65 88 35.65 88.25 35.4 88.5 35.15 88.5 34.8
M 84.5 37.05
Q 83.65 36.25 82.3 36.25 81 36.25 80.1 37.2 79.2 38.1 79.2 39.6 79.2 41.1 80 41.95 80.85 42.75 82.3 42.75 83.8 42.75 84.6 42.15
L 84.05 41
Q 83.5 41.55 82.5 41.55 81.7 41.55 81.25 41.15 80.75 40.7 80.7 39.95
L 85.2 39.95
Q 85.3 39.4 85.3 39.15 85.3 37.9 84.5 37.05
M 82.3 37.5
Q 83.7 37.5 83.85 38.85
L 80.75 38.85
Q 81.05 37.5 82.3 37.5
M 101.15 36.35
L 100.1 36.35 100.1 42.65 101.55 42.65 101.55 38.1
Q 101.75 37.85 102.15 37.65 102.5 37.5 102.8 37.5 103.5 37.5 103.8 37.85 104.15 38.2 104.15 39
L 104.15 42.65 105.6 42.65 105.6 38.8
Q 105.6 37.6 104.95 36.95 104.3 36.25 103.2 36.25 102 36.25 101.4 36.95
L 101.15 36.35
M 94.25 36.9
Q 93.55 36.25 92.15 36.25 91.1 36.25 90.35 36.6
L 90.65 37.75
Q 91.2 37.5 92.05 37.5 93.45 37.5 93.45 38.6 93.1 38.5 92.8 38.5 91.3 38.5 90.5 39.1 89.7 39.75 89.7 40.8 89.7 41.75 90.25 42.25 90.85 42.75 91.85 42.75 92.4 42.75 92.9 42.55 93.4 42.35 93.6 42 93.65 42.3 93.9 42.55 94.2 42.75 94.5 42.75 94.8 42.75 95 42.7 95.2 42.6 95.4 42.3 94.9 42 94.9 40.75
L 94.9 39.4
Q 94.9 37.55 94.25 36.9
M 92.9 39.6
Q 93.05 39.6 93.45 39.7
L 93.45 40.3
Q 93.45 41.6 92.1 41.6 91.15 41.6 91.15 40.75 91.15 39.6 92.9 39.6 Z"/>
</g>

<path id="Layer0_0_1_STROKES" stroke="#8CA8B8" stroke-width="1" stroke-linejoin="round" stroke-linecap="round" fill="none" d="
M 119.8 0.85
Q 123.9 0.85 126.8 3.8 129.75 6.7 129.75 10.8
L 129.75 92.4
Q 129.65 96.35 126.8 99.15 123.9 102.1 119.8 102.1
L 11.15 102.1
Q 7.05 102.1 4.15 99.15 1.35 96.35 1.25 92.4
L 1.25 10.8
Q 1.25 6.7 4.15 3.8 7.05 0.85 11.15 0.85
L 119.75 0.85"/>
</defs>

<g transform="matrix( 1, 0, 0, 1, -1,-0.45) ">
<use xlink:href="#Layer0_0_FILL"/>

<use xlink:href="#Layer0_0_1_STROKES"/>
</g>

<g transform="matrix( 1, 0, 0, 1, -1,-0.45) ">
<use xlink:href="#Layer0_0_MEMBER_0_FILL"/>
</g>
</svg>
