
<svg xmlns="http://www.w3.org/2000/svg" version="1.1" xmlns:xlink="http://www.w3.org/1999/xlink" preserveAspectRatio="none" x="0px" y="0px" width="133px" height="106px" viewBox="0 0 133 106">
<defs>
<linearGradient id="Gradient_1" gradientUnits="userSpaceOnUse" x1="935.55" y1="197.95" x2="935.55" y2="179.95" spreadMethod="pad">
<stop  offset="16.862745098039216%" stop-color="#787878"/>

<stop  offset="83.13725490196079%" stop-color="#C9C9C9"/>
</linearGradient>

<linearGradient id="Gradient_2" gradientUnits="userSpaceOnUse" x1="47.5125" y1="55.35" x2="31.287499999999998" y2="71.35" spreadMethod="pad">
<stop  offset="2.7450980392156863%" stop-color="#595959"/>

<stop  offset="50.98039215686274%" stop-color="#9B9B9B"/>

<stop  offset="100%" stop-color="#DADADA"/>
</linearGradient>

<linearGradient id="Gradient_3" gradientUnits="userSpaceOnUse" x1="68.6625" y1="52.12500000000001" x2="55.0375" y2="76.17500000000001" spreadMethod="pad">
<stop  offset="2.7450980392156863%" stop-color="#595959"/>

<stop  offset="50.98039215686274%" stop-color="#9B9B9B"/>

<stop  offset="100%" stop-color="#DADADA"/>
</linearGradient>

<linearGradient id="Gradient_4" gradientUnits="userSpaceOnUse" x1="74.3125" y1="51.325" x2="60.6875" y2="75.375" spreadMethod="pad">
<stop  offset="2.7450980392156863%" stop-color="#595959"/>

<stop  offset="50.98039215686274%" stop-color="#9B9B9B"/>

<stop  offset="100%" stop-color="#DADADA"/>
</linearGradient>

<linearGradient id="Gradient_5" gradientUnits="userSpaceOnUse" x1="63.3625" y1="52.512499999999996" x2="49.1375" y2="77.5875" spreadMethod="pad">
<stop  offset="2.7450980392156863%" stop-color="#595959"/>

<stop  offset="50.98039215686274%" stop-color="#9B9B9B"/>

<stop  offset="100%" stop-color="#DADADA"/>
</linearGradient>

<linearGradient id="Gradient_6" gradientUnits="userSpaceOnUse" x1="57.712500000000006" y1="52.512499999999996" x2="43.4875" y2="77.5875" spreadMethod="pad">
<stop  offset="2.7450980392156863%" stop-color="#595959"/>

<stop  offset="50.98039215686274%" stop-color="#9B9B9B"/>

<stop  offset="100%" stop-color="#DADADA"/>
</linearGradient>

<linearGradient id="Gradient_7" gradientUnits="userSpaceOnUse" x1="52.05" y1="52.262499999999996" x2="38.05" y2="76.9375" spreadMethod="pad">
<stop  offset="2.7450980392156863%" stop-color="#595959"/>

<stop  offset="50.98039215686274%" stop-color="#9B9B9B"/>

<stop  offset="100%" stop-color="#DADADA"/>
</linearGradient>

<linearGradient id="Gradient_8" gradientUnits="userSpaceOnUse" x1="34.337500000000006" y1="17.7625" x2="73.0625" y2="17.2375" spreadMethod="pad">
<stop  offset="2.7450980392156863%" stop-color="#595959"/>

<stop  offset="50.98039215686274%" stop-color="#9B9B9B"/>

<stop  offset="100%" stop-color="#DADADA"/>
</linearGradient>

<linearGradient id="Gradient_9" gradientUnits="userSpaceOnUse" x1="45.7125" y1="11.45" x2="60.487500000000004" y2="11.25" spreadMethod="pad">
<stop  offset="2.7450980392156863%" stop-color="#595959"/>

<stop  offset="50.98039215686274%" stop-color="#9B9B9B"/>

<stop  offset="100%" stop-color="#DADADA"/>
</linearGradient>

<linearGradient id="Gradient_10" gradientUnits="userSpaceOnUse" x1="45.7125" y1="11.45" x2="60.487500000000004" y2="11.25" spreadMethod="pad">
<stop  offset="2.7450980392156863%" stop-color="#2A2A2A"/>

<stop  offset="50.98039215686274%" stop-color="#515151"/>

<stop  offset="100%" stop-color="#DADADA"/>
</linearGradient>

<linearGradient id="Gradient_11" gradientUnits="userSpaceOnUse" x1="34.55" y1="28.7125" x2="73.25" y2="28.1875" spreadMethod="pad">
<stop  offset="2.7450980392156863%" stop-color="#595959"/>

<stop  offset="50.98039215686274%" stop-color="#9B9B9B"/>

<stop  offset="100%" stop-color="#DADADA"/>
</linearGradient>

<filter id="Filter_1" x="-20%" y="-20%" width="140%" height="140%" color-interpolation-filters="sRGB">
<feFlood flood-color="#000000" flood-opacity="1" in="SourceGraphic" result="result1"/>

<feComposite in2="SourceGraphic" in="result1" operator="in" result="result2"/>

<feGaussianBlur in="result2" stdDeviation="2.3333333333333335,2.3333333333333335" result="result3"/>

<feOffset dx="0" dy="0" in="result3" result="result4"/>

<feComposite in2="result4" in="SourceGraphic" operator="over" result="result5"/>
</filter>

<g id="Layer0_0_MEMBER_0_FILL">
<path fill="#FFCC00" stroke="none" d="
M 219.15 530.3
Q 216.25 533.2 216.25 537.3
L 216.25 618.9
Q 216.35 622.85 219.15 625.65 222.05 628.6 226.15 628.6
L 334.8 628.6
Q 338.9 628.6 341.8 625.65 344.65 622.85 344.75 618.9
L 344.75 537.3
Q 344.75 533.2 341.8 530.3 338.9 527.35 334.8 527.35
L 334.75 527.35 226.15 527.35
Q 222.05 527.35 219.15 530.3 Z"/>
</g>

<g id="S_mbolo_3_0_Layer0_0_MEMBER_0_FILL">
<path fill="#FFFFFF" stroke="none" d="
M 966.45 100.5
Q 947.95 82 921.8 82
L 458.15 82
Q 432 82 413.5 100.5 395 119 395 145.15
L 395 538.8
Q 395 564.95 413.5 583.45 432 601.95 458.15 601.95
L 921.8 601.95
Q 947.95 601.95 966.45 583.45 984.95 564.95 984.95 538.8
L 984.95 145.15
Q 984.95 119 966.45 100.5 Z"/>
</g>

<g id="S_mbolo_3_0_Layer0_0_MEMBER_1_MEMBER_0_MEMBER_0_FILL">
<path fill="url(#Gradient_1)" stroke="none" d="
M 979.7 195.35
Q 998.05 192.7 998.05 188.95 998.05 185.25 979.7 182.6 961.45 179.95 935.55 179.95 909.65 179.95 891.3 182.6 873.05 185.25 873.05 188.95 873.05 192.7 891.3 195.35 909.65 197.95 935.55 197.95 961.45 197.95 979.7 195.35 Z"/>
</g>

<g id="S_mbolo_3_0_Layer0_0_MEMBER_1_MEMBER_0_MEMBER_1_FILL">
<path fill="#1A5066" stroke="none" d="
M 65.2 60.85
L 65.15 60.8
Q 59.85 62.5 58.15 62.5 51.3 62.5 47.4 61.9 42.15 61.1 39.2 59.25 39.85 60.2 40.8 61.1 45.6 65.95 52.7 65.95 59.7 65.95 64.85 61.1 65 60.95 65.2 60.85
M 56.25 26.75
L 56.25 26.55
Q 56.4 26.7 56.55 26.5 56.55 26.4 56.55 26.2 56.6 25.75 56.3 25.6 56.1 25.45 55.55 25.45 52.95 26.4 52.75 26.55 53.2 26.4 53.75 26.6 54.2 26.75 54.4 27.15 54.5 27.25 54.5 27.5 54.45 28.1 54.3 28.3 54.3 28.35 54.3 28.4 54.2 29.25 54.05 30.3 53.9 31.15 53.85 31.65 53.8 31.7 53.8 31.8 53.75 32.2 53.75 32.3
L 53.75 32.85 53.85 32.85
Q 54 32.3 54.2 31.8 54.2 31.7 54.25 31.65 54.6 30.7 55 29.7 55.9 27.7 56.25 26.75
M 51.45 24.15
Q 51.45 24.1 51.45 24 51.25 23.85 51.1 23.75
L 51.15 23.95
Q 51.15 24.25 50.85 24.55
L 50.8 25.6 50.85 25.6
Q 51.35 25.45 51.6 25.25 51.5 24.45 51.45 24.15 Z"/>

<path fill="#3399CC" stroke="none" d="
M 65.2 60.8
L 65.15 60.8 65.2 60.85 65.2 60.8
M 51.1 33.9
L 51.15 33.55
Q 48.65 35.05 43.4 38.5 36.7 42.8 36.25 49.55 36.25 49.75 36.25 50 36.7 51.3 37.75 52.9 39.45 55.25 41 56 42.25 56.5 45.5 57.6 46.8 58.05 48.95 58 49.9 58 50.35 58 50.9 57.95 50.9 57.85 53.25 57.8 55.75 57.05 59.4 55.95 61.9 53.7 62.65 53 64.35 51.95 66.45 50.45 66.95 50 68.85 48.55 69.6 47.2 68.1 41.95 61.15 36.8 58.15 34.5 56.05 33.45 56.15 33.8 56.1 34.1 56.05 34.35 55.8 34.65 57.05 35.2 57.8 35.6 59.3 36.35 59.9 37.2
L 59.8 37.85
Q 59.3 38.1 58.85 38.1 57.9 38.1 56.6 36.1 56.1 35.45 55.65 34.75 55.45 34.85 55.3 34.9 54.65 35.2 53.7 35.2 53.65 35.2 53.5 35.2 52.9 35.2 52.4 35.15 52.05 35.1 51.8 35 51.15 34.85 51.2 34.45 51.2 34.1 51.1 33.9
M 52.15 35.5
Q 52.25 35.35 52.35 35.2 51.8 37.3 51.4 38.15 50.25 40.65 48.4 40.65 48.15 40.65 47.5 40.1 46.9 39.65 46.9 39.5 46.9 38.7 47.95 38 48.35 37.7 50.1 36.85 51.55 36.1 52.15 35.5
M 53.95 37.85
Q 54.5 39.2 54.9 39.85
L 54.9 41.3 54.45 41.3
Q 54.45 41.2 54.4 41.2 54.35 41.2 54.3 41.2 54.2 40.5 53.95 37.85
M 53.85 37.3
Q 53.9 37.45 53.95 37.7 53.85 37.55 53.8 37.35
L 53.85 37.3
M 51.45 24.15
Q 51.5 24.2 51.55 24.2 51.85 24.55 51.85 24.8 51.85 25.05 51.6 25.25 51.7 25.75 51.8 26.4 51.95 27.45 51.9 28.6 52.3 28.65 52.85 28.65 53.85 28.65 54.2 28.4 54.25 28.35 54.3 28.3 54.3 27.65 54.4 27.15 54.2 26.75 53.75 26.6 53.2 26.4 52.75 26.55 52.95 26.4 55.55 25.45 56.1 25.45 56.3 25.6 56.6 25.75 56.55 26.2 56.55 26.4 56.55 26.5 56.4 26.7 56.25 26.55
L 56.25 26.75 56.25 27.2 58 27.2
Q 58.1 26.9 58.5 26.25 59.05 25.3 59.2 25.1 59.2 24.9 59.2 24.8
L 59.2 24.55
Q 59.1 24.55 58.85 24.4 58.65 24.3 58.5 24.3 58.05 24.3 57.6 24.55
L 57.3 24.55
Q 57.55 24.35 57.7 24.15 57.75 23.85 57.85 23.75
L 57.9 23.25
Q 57.25 23.25 55.7 22.9 53.75 22.9 53.3 22.95 52.2 23.15 51.1 23.75 51.25 23.85 51.45 24 51.45 24.1 51.45 24.15 Z"/>

<path fill="#2880A4" stroke="none" d="
M 36.25 50
Q 36.15 55.2 39.2 59.25 42.15 61.1 47.4 61.9 51.3 62.5 58.15 62.5 59.85 62.5 65.15 60.8
L 65.2 60.8
Q 69.95 56.05 69.95 49.6 69.95 48.4 69.6 47.2 68.85 48.55 66.95 50 66.45 50.45 64.35 51.95 62.65 53 61.9 53.7 59.4 55.95 55.75 57.05 53.25 57.8 50.9 57.85 50.9 57.95 50.35 58 49.9 58 48.95 58 46.8 58.05 45.5 57.6 42.25 56.5 41 56 39.45 55.25 37.75 52.9 36.7 51.3 36.25 50
M 57.8 35.6
Q 57.05 35.2 55.8 34.65 55.75 34.65 55.65 34.75 56.1 35.45 56.6 36.1 57.9 38.1 58.85 38.1 59.3 38.1 59.8 37.85
L 59.9 37.2
Q 59.3 36.35 57.8 35.6
M 54.9 39.85
Q 54.5 39.2 53.95 37.85 54.2 40.5 54.3 41.2 54.35 41.2 54.4 41.2 54.45 41.2 54.45 41.3
L 54.9 41.3 54.9 39.85
M 52.35 35.2
Q 52.25 35.35 52.15 35.5 51.55 36.1 50.1 36.85 48.35 37.7 47.95 38 46.9 38.7 46.9 39.5 46.9 39.65 47.5 40.1 48.15 40.65 48.4 40.65 50.25 40.65 51.4 38.15 51.8 37.3 52.35 35.2
M 52.85 28.65
Q 52.3 28.65 51.9 28.6 50.4 28.45 49.35 27.85 48.55 27.4 47.1 26.2 47.05 26.2 47 26.25 46.75 26.9 46.7 27.2 46.7 27.45 47.15 28.05 47.95 29.05 50.1 30.85 50.55 31.25 51.05 31.6 51.35 31.9 51.7 32.1 51.75 32.15 51.85 32.2 52.85 32.95 53.15 32.95 53.4 32.95 53.75 32.9
L 53.75 32.85 53.75 32.3
Q 53.75 32.2 53.8 31.8 53.8 31.7 53.85 31.65 53.9 31.15 54.05 30.3 54.2 29.25 54.3 28.4
L 54.2 28.4
Q 53.85 28.65 52.85 28.65
M 59.2 25.1
Q 59.05 25.3 58.5 26.25 58.1 26.9 58 27.2
L 56.25 27.2 56.25 26.75
Q 55.9 27.7 55 29.7 54.6 30.7 54.25 31.65 54.2 31.7 54.2 31.8 54 32.3 53.85 32.85 54.6 32.6 55.4 32.05 56.15 31.45 57 30.4 58.95 27.95 59.2 25.1 Z"/>

<path fill="#000000" stroke="none" d="
M 52.8 34.5
Q 52.7 34.5 52.55 34.5 51.95 34.35 51.45 34.1 51.3 34.05 51.1 33.9 51.2 34.1 51.2 34.45 51.15 34.85 51.8 35 52.05 35.1 52.4 35.15 52.9 35.2 53.5 35.2 53.65 35.2 53.7 35.2 54.65 35.2 55.3 34.9 55.45 34.85 55.65 34.75 55.75 34.65 55.8 34.65 56.05 34.35 56.1 34.1 56.15 33.8 56.05 33.45 56.00078125 33.40078125 56 33.35 55.99921875 33.40078125 55.95 33.45 55.8 33.8 55.2 34.1 54.6 34.45 53.8 34.5 53.75 34.5 53.65 34.5 53.45 34.5 53.35 34.5 53.05 34.5 52.8 34.5
M 55.45 32.1
Q 55.45 32.05 55.4 32.05 54.6 32.6 53.85 32.85
L 53.75 32.85 53.75 32.9
Q 53.4 32.95 53.15 32.95 52.85 32.95 51.85 32.2 51.8 32.2 51.75 32.25 51.5 32.6 51.8 33.05 51.85 33.1 51.9 33.1 52.2 33.4 53.15 33.45 53.35 33.45 53.55 33.45 54.4 33.45 55.1 33.4 55.4 33.35 55.7 33.3 56.05 33.2 56.1 32.95 56.1 32.9 56.1 32.85 56.1 32.4 55.45 32.1 Z"/>

<path fill="#333333" stroke="none" d="
M 55.1 33.4
Q 54.4 33.45 53.55 33.45 53.35 33.45 53.15 33.45 52.2 33.4 51.9 33.1 51.85 33.1 51.8 33.05 51.5 32.6 51.75 32.25 51.8 32.2 51.85 32.2 51.75 32.15 51.7 32.1 51.35 32.4 51.2 33.25 51.15 33.4 51.15 33.55
L 51.1 33.9
Q 51.3 34.05 51.45 34.1 51.95 34.35 52.55 34.5 52.7 34.5 52.8 34.5 53.05 34.5 53.35 34.5 53.45 34.5 53.65 34.5 53.75 34.5 53.8 34.5 54.6 34.45 55.2 34.1 55.8 33.8 55.95 33.45 55.99921875 33.40078125 56 33.35 56.1 33.2 56.1 33.05 56.1 33 56.1 32.95 56.05 33.2 55.7 33.3 55.4 33.35 55.1 33.4 Z"/>

<path fill="#55AED5" stroke="none" d="
M 50.85 25.6
L 50.8 25.6
Q 50.25 25.75 48.7 25.9 47.75 26.05 47.1 26.2 48.55 27.4 49.35 27.85 50.4 28.45 51.9 28.6 51.95 27.45 51.8 26.4 51.7 25.75 51.6 25.25 51.35 25.45 50.85 25.6 Z"/>
</g>

<g id="S_mbolo_3_0_Layer0_0_MEMBER_1_MEMBER_0_MEMBER_2_FILL">
<path fill="#666666" stroke="none" d="
M 38.7 83.45
Q 35.05 82.7 34.45 81.9
L 34.45 87.15
Q 34.85 88.05 40 89.3 45.2 90.6 53.35 90.65 61.6 90.75 66.85 89.55 72.1 88.3 72.3 87.75 72.45 87.1 72.45 87
L 72.45 81.15
Q 72.4 82.15 66.3 83.65 60.15 85.1 52 84.85 43.8 84.5 38.7 83.45
M 66.85 46.6
Q 69.35 46.3 70.7 45.9 72.25 45.5 72.45 45 72.45 44.95 72.45 44.85
L 72.45 39
Q 72.428125 40.0029296875 66.85 40.75 61.35 41.5 53.4 41.5 45.55 41.5 39.95 40.75 34.65 40.05 34.45 39.1
L 34.45 45
Q 34.65 45.45 35.8 45.8 37.15 46.25 39.95 46.6 45.55 47.3 53.4 47.3 61.35 47.3 66.85 46.6 Z"/>

<path fill="#CCCCCC" stroke="none" d="
M 34.45 81.15
L 34.45 81.9
Q 35.05 82.7 38.7 83.45 43.8 84.5 52 84.85 60.15 85.1 66.3 83.65 72.4 82.15 72.45 81.15 72.45 80.6 70.7 80.1
L 70.7 80.55
Q 70.95 80.75 70.95 80.9 70.9 81.25 69.55 81.55 69 81.7 68.05 81.9 66.95 82.1 63.25 82.8 59.55 83.45 52.65 83.4 45.7 83.35 42.6 82.7 39.55 82 38.55 81.85 37.6 81.7 36.95 81.5 35.8 81.2 35.8 80.9
L 35.8 80.2
Q 34.45 80.65 34.45 81.15
M 38.5 79.3
Q 38.85 79.65 39.4 79.65 39.9 79.65 40.3 79.3 40.7 78.95 40.7 78.4
L 40.7 77.9
Q 40.65 78.35 40.3 78.7 39.9 79.1 39.4 79.1 38.85 79.1 38.5 78.7 38.15 78.4 38.1 77.95
L 38.1 78.4
Q 38.1 78.95 38.5 79.3
M 60.65 78.75
L 60.65 79.2
Q 60.65 79.7 60.95 80.1 61.35 80.45 61.85 80.45 62.4 80.45 62.8 80.1 63.1 79.7 63.1 79.2
L 63.1 78.75
Q 63.0904296875 79.2080078125 62.8 79.45 62.4 79.9 61.85 79.9 61.35 79.9 60.95 79.45 60.6595703125 79.2080078125 60.65 78.75
M 66.6 78.7
Q 66.3 78.4 66.25 78
L 66.25 78.4
Q 66.25 78.95 66.6 79.3 66.95 79.65 67.5 79.65 68.05 79.65 68.4 79.3 68.75 78.95 68.75 78.4
L 68.75 78
Q 68.7 78.4 68.4 78.7 68.05 79.1 67.5 79.1 66.95 79.1 66.6 78.7
M 53.35 40.65
Q 45.8 40.65 40.5 40.05 35.6 39.55 35.2 38.6
L 35.2 38.55
Q 35.25 38.3 35.8 38.1 34.45 38.55 34.45 39
L 34.45 39.1
Q 34.65 40.05 39.95 40.75 45.55 41.5 53.4 41.5 61.35 41.5 66.85 40.75 72.428125 40.0029296875 72.45 39 72.45 38.4 70.25 37.85 71.5 38.2 71.5 38.65 71.45 39.5 66.2 40.05 60.85 40.65 53.35 40.65 Z"/>

<path fill="#999999" stroke="none" d="
M 70.7 45.9
Q 69.35 46.3 66.85 46.6 61.35 47.3 53.4 47.3 45.55 47.3 39.95 46.6 37.15 46.25 35.8 45.8
L 35.8 80.2 35.8 80.9
Q 35.8 81.2 36.95 81.5 37.6 81.7 38.55 81.85 39.55 82 42.6 82.7 45.7 83.35 52.65 83.4 59.55 83.45 63.25 82.8 66.95 82.1 68.05 81.9 69 81.7 69.55 81.55 70.9 81.25 70.95 80.9 70.95 80.75 70.7 80.55
L 70.7 80.1 70.7 45.9
M 45.05 48.5
Q 45.3 48.5 45.55 48.55 45.7 48.7 45.95 48.85 46.25 49.2 46.3 49.7
L 46.3 79.45
Q 46.25 79.95 45.95 80.3 45.55 80.65 45.05 80.65 44.5 80.65 44.15 80.3 43.75 79.95 43.7 79.45
L 43.7 49.7
Q 43.75 49.2 44.15 48.85 44.3 48.65 44.5 48.55 44.7 48.5 45 48.5
L 45.05 48.5
M 49.7 49.05
Q 49.9 48.9 50.15 48.8 50.35 48.7 50.55 48.7
L 50.65 48.7
Q 50.95 48.7 51.15 48.8 51.35 48.9 51.5 49.05 51.9 49.4 51.9 49.85
L 51.9 80.2
Q 51.9 80.65 51.5 81.05 51.2 81.45 50.6 81.45 50.15 81.45 49.7 81.05 49.35 80.65 49.35 80.2
L 49.35 49.85
Q 49.4 49.4 49.7 49.05
M 56.3 48.7
L 56.75 48.8
Q 57 48.85 57.15 49.05 57.55 49.4 57.55 49.85
L 57.55 80.2
Q 57.55 80.65 57.15 81.05 56.8 81.45 56.2 81.45 55.7 81.45 55.35 81.05 55 80.65 55 80.2
L 55 49.85
Q 55 49.4 55.35 49.05 55.55 48.85 55.75 48.8
L 56.2 48.7 56.3 48.7
M 68.4 48.1
Q 68.75 48.45 68.75 48.9
L 68.75 78 68.75 78.4
Q 68.75 78.95 68.4 79.3 68.05 79.65 67.5 79.65 66.95 79.65 66.6 79.3 66.25 78.95 66.25 78.4
L 66.25 78 66.25 48.9
Q 66.25 48.45 66.6 48.1 66.95 47.7 67.5 47.7 68.05 47.7 68.4 48.1
M 60.95 48.85
Q 61.35 48.5 61.85 48.5 62.4 48.5 62.8 48.85 63.1 49.2 63.1 49.7
L 63.1 78.75 63.1 79.2
Q 63.1 79.7 62.8 80.1 62.4 80.45 61.85 80.45 61.35 80.45 60.95 80.1 60.65 79.7 60.65 79.2
L 60.65 78.75 60.65 49.7
Q 60.65 49.2 60.95 48.85
M 39.4 47.7
Q 39.9 47.7 40.3 48.1 40.65 48.45 40.7 48.9
L 40.7 77.9 40.7 78.4
Q 40.7 78.95 40.3 79.3 39.9 79.65 39.4 79.65 38.85 79.65 38.5 79.3 38.1 78.95 38.1 78.4
L 38.1 77.95 38.1 48.9
Q 38.1 48.45 38.5 48.1 38.85 47.7 39.4 47.7 Z"/>

<path fill="url(#Gradient_2)" stroke="none" d="
M 40.3 48.1
Q 39.9 47.7 39.4 47.7 38.85 47.7 38.5 48.1 38.1 48.45 38.1 48.9
L 38.1 77.95
Q 38.15 78.4 38.5 78.7 38.85 79.1 39.4 79.1 39.9 79.1 40.3 78.7 40.65 78.35 40.7 77.9
L 40.7 48.9
Q 40.65 48.45 40.3 48.1 Z"/>

<path fill="url(#Gradient_3)" stroke="none" d="
M 61.85 48.5
Q 61.35 48.5 60.95 48.85 60.65 49.2 60.65 49.7
L 60.65 78.75
Q 60.6595703125 79.2080078125 60.95 79.45 61.35 79.9 61.85 79.9 62.4 79.9 62.8 79.45 63.0904296875 79.2080078125 63.1 78.75
L 63.1 49.7
Q 63.1 49.2 62.8 48.85 62.4 48.5 61.85 48.5 Z"/>

<path fill="url(#Gradient_4)" stroke="none" d="
M 68.75 48.9
Q 68.75 48.45 68.4 48.1 68.05 47.7 67.5 47.7 66.95 47.7 66.6 48.1 66.25 48.45 66.25 48.9
L 66.25 78
Q 66.3 78.4 66.6 78.7 66.95 79.1 67.5 79.1 68.05 79.1 68.4 78.7 68.7 78.4 68.75 78
L 68.75 48.9 Z"/>

<path fill="url(#Gradient_5)" stroke="none" d="
M 56.75 48.8
L 56.3 48.7 56.2 48.7 55.75 48.8
Q 55.55 48.85 55.35 49.05 55 49.4 55 49.85
L 55 80.2
Q 55 80.65 55.35 81.05 55.7 81.45 56.2 81.45 56.8 81.45 57.15 81.05 57.55 80.65 57.55 80.2
L 57.55 49.85
Q 57.55 49.4 57.15 49.05 57 48.85 56.75 48.8 Z"/>

<path fill="url(#Gradient_6)" stroke="none" d="
M 50.15 48.8
Q 49.9 48.9 49.7 49.05 49.4 49.4 49.35 49.85
L 49.35 80.2
Q 49.35 80.65 49.7 81.05 50.15 81.45 50.6 81.45 51.2 81.45 51.5 81.05 51.9 80.65 51.9 80.2
L 51.9 49.85
Q 51.9 49.4 51.5 49.05 51.35 48.9 51.15 48.8 50.95 48.7 50.65 48.7
L 50.55 48.7
Q 50.35 48.7 50.15 48.8 Z"/>

<path fill="url(#Gradient_7)" stroke="none" d="
M 45.55 48.55
Q 45.3 48.5 45.05 48.5
L 45 48.5
Q 44.7 48.5 44.5 48.55 44.3 48.65 44.15 48.85 43.75 49.2 43.7 49.7
L 43.7 79.45
Q 43.75 79.95 44.15 80.3 44.5 80.65 45.05 80.65 45.55 80.65 45.95 80.3 46.25 79.95 46.3 79.45
L 46.3 49.7
Q 46.25 49.2 45.95 48.85 45.7 48.7 45.55 48.55 Z"/>
</g>

<g id="S_mbolo_3_0_Layer0_0_MEMBER_1_MEMBER_1_FILL">
<path fill="url(#Gradient_8)" stroke="none" d="
M 67.3 14.6
Q 61.65 15.55 53.7 15.75 45.65 15.95 39.95 15.3 34.55 14.75 34.25 13.7
L 34.45 20.15
Q 34.7 20.65 35.85 21 37.2 21.45 40.1 21.75 45.8 22.4 53.8 22.2 61.8 21.9 67.45 21 69.95 20.6 71.3 20.1 72.85 19.65 73.05 19.1 73.05 19.05 73.05 18.95
L 72.95 12.55
Q 72.9330078125 13.6029296875 67.3 14.6 Z"/>
</g>

<g id="S_mbolo_3_0_Layer0_0_MEMBER_1_MEMBER_1_MEMBER_0_FILL">
<path fill="#999999" stroke="none" d="
M 84.55 -10.65
Q 102.4 -14.05 102.4 -18.95 102.4 -23.9 84.55 -27.35 66.75 -30.75 41.55 -30.75 16.35 -30.75 -1.5 -27.35 -19.3 -23.9 -19.3 -19 -19.3 -14.05 -1.5 -10.65 16.35 -7.2 41.55 -7.2 66.75 -7.2 84.55 -10.65 Z"/>
</g>

<g id="S_mbolo_3_0_Layer0_0_MEMBER_1_MEMBER_1_MEMBER_1_FILL">
<path fill="url(#Gradient_9)" stroke="none" d="
M 50.45 13.65
L 50.6 13.55 50.55 13.55 50.45 13.65
M 50.2 13.85
L 50.15 13.9 50.2 13.9 50.2 13.85
M 48.95 14.75
L 50.15 13.9 48 12.7 47.95 12.7 47.95 12.75 46.15 13.25 45.75 14.1 45.85 14.15 47.4 14.9 48.95 14.75
M 60.35 8.85
L 60.5 8.8 60.5 8.75 56.75 7.9 48 8.95 50.5 9.9 50.5 9.95 50.55 9.95 60.35 8.85 Z"/>

<path fill="url(#Gradient_10)" stroke="none" d="
M 50.5 9.9
L 48 8.95 48 12.7 50.15 13.9 50.2 13.85 50.5 9.95 50.5 9.9 Z"/>

<path fill="#666666" stroke="none" d="
M 57.45 12.35
L 57.5 12.35 59.9 13 60.05 13 60.15 11.95 60.5 9 57.55 9.3 57.45 12.35
M 60.5 8.8
L 60.35 8.85 60.5 8.85 60.5 8.8 Z"/>

<path fill="#333333" stroke="none" d="
M 60.5 9
L 60.5 8.85 60.35 8.85 50.55 9.95 50.5 9.95 50.2 13.85 50.2 13.9 50.15 13.9 48.95 14.75 47.4 14.9 45.85 14.15 45.8 14.25 47.45 15.05 49 14.9 50.3 14 50.55 10.1 50.55 10.05 50.6 10.1 57.55 9.3 60.5 9
M 61.45 13
L 61.45 12.8 60.05 13 59.9 13 57.5 12.35 57.5 12.55 59.95 13.1 61.45 13
M 61.45 12.2
L 61.4 12.2 61.45 12.8 61.45 12.2 Z"/>

<path fill="url(#Gradient_11)" stroke="none" d="
M 61.45 12.8
L 61.4 12.2 61.4 12.05 60.15 11.95 60.05 13 61.45 12.8 Z"/>
</g>

<g id="S_mbolo_3_0_Layer0_0_MEMBER_1_MEMBER_2_FILL">
<path fill="#D2A38B" stroke="none" d="
M 56.85 3.65
Q 56.55 3.55 56.15 3.5 55.6 3.45 55 3.5 53.65 3.65 52.35 4.55 51.8 4.95 51.35 5.4 50.45 6.35 50.15 7.2 49.85 8 49.8 8.4 49.8 8.8 49.8 8.85
L 50.95 8.65
Q 50.85 9.35 50.85 9.6 50.8 9.85 50.8 9.9 50.8 9.95 50.8 10.05 50.75 10.95 50.9 11.7 52.25 5.55 56.85 3.65 Z"/>

<path fill="#E9B59A" stroke="none" d="
M 59.55 5.35
Q 58.45 4.1 56.85 3.65 52.25 5.55 50.9 11.7 51 12.2 51.25 12.7 51.95 13.85 54.5 13
L 55.4 13.75
Q 56.35 14.55 57.85 12.55 58.35 13 59.45 12.8 60.55 12.55 60.65 9.75 60.8 6.95 59.55 5.35 Z"/>
</g>

<g id="S_mbolo_3_0_Layer0_0_MEMBER_1_MEMBER_2_MEMBER_0_FILL">
<path fill="#E9B59A" stroke="none" d="
M 868.25 181
L 843 181 843.75 218.3
Q 844.45 219.05 845.25 219.75 849.8 223.85 855.9 223.5 862.05 223.15 866.1 218.6 870.15 214 869.8 207.9
L 868.25 181 Z"/>

<path fill="#D2A38B" stroke="none" d="
M 843 181
L 838.65 181 840.3 209.55
Q 840.6 214.6 843.75 218.3
L 843 181 Z"/>
</g>

<path id="Layer0_0_MEMBER_0_1_STROKES" stroke="#8CA8B8" stroke-width="1" stroke-linejoin="round" stroke-linecap="round" fill="none" d="
M 334.8 527.35
Q 338.9 527.35 341.8 530.3 344.75 533.2 344.75 537.3
L 344.75 618.9
Q 344.65 622.85 341.8 625.65 338.9 628.6 334.8 628.6
L 226.15 628.6
Q 222.05 628.6 219.15 625.65 216.35 622.85 216.25 618.9
L 216.25 537.3
Q 216.25 533.2 219.15 530.3 222.05 527.35 226.15 527.35
L 334.75 527.35"/>
</defs>

<g transform="matrix( 1, 0, 0, 1, -214,-524.95) ">
<use xlink:href="#Layer0_0_MEMBER_0_FILL"/>

<use xlink:href="#Layer0_0_MEMBER_0_1_STROKES"/>
</g>

<g filter="url(#Filter_1)" transform="matrix( 1, 0, 0, 1, 0,0) ">
<g transform="matrix( 1, 0, 0, 1, 9.35,7.6) ">
<g transform="matrix( 0.193878173828125, 0, 0, 0.1746826171875, -76.6,-14.3) ">
<use xlink:href="#S_mbolo_3_0_Layer0_0_MEMBER_0_FILL"/>
</g>

<g transform="matrix( 0.3031005859375, 0, 0, 0.3031005859375, -229.6,-18.85) ">
<use xlink:href="#S_mbolo_3_0_Layer0_0_MEMBER_1_MEMBER_0_MEMBER_0_FILL"/>
</g>

<g transform="matrix( 1, 0, 0, 1, 0,0) ">
<use xlink:href="#S_mbolo_3_0_Layer0_0_MEMBER_1_MEMBER_0_MEMBER_1_FILL"/>
</g>

<g transform="matrix( 1, 0, 0, 1, 0,0) ">
<use xlink:href="#S_mbolo_3_0_Layer0_0_MEMBER_1_MEMBER_0_MEMBER_2_FILL"/>
</g>

<g transform="matrix( 1, 0, 0, 1, 0,0) ">
<use xlink:href="#S_mbolo_3_0_Layer0_0_MEMBER_1_MEMBER_1_FILL"/>
</g>

<g transform="matrix( 0.3139190673828125, -0.0087127685546875, 0.005462646484375, 0.2332763671875, 40.55,17.75) ">
<use xlink:href="#S_mbolo_3_0_Layer0_0_MEMBER_1_MEMBER_1_MEMBER_0_FILL"/>
</g>

<g transform="matrix( 1, 0, 0, 1, 0,0) ">
<use xlink:href="#S_mbolo_3_0_Layer0_0_MEMBER_1_MEMBER_1_MEMBER_1_FILL"/>
</g>

<g transform="matrix( 1, 0, 0, 1, 0,0) ">
<use xlink:href="#S_mbolo_3_0_Layer0_0_MEMBER_1_MEMBER_2_FILL"/>
</g>

<g transform="matrix( 0.180267333984375, 0, 0, 0.180267333984375, -98.6,-32.55) ">
<use xlink:href="#S_mbolo_3_0_Layer0_0_MEMBER_1_MEMBER_2_MEMBER_0_FILL"/>
</g>
</g>
</g>
</svg>
