
<svg xmlns="http://www.w3.org/2000/svg" version="1.1" xmlns:xlink="http://www.w3.org/1999/xlink" preserveAspectRatio="none" x="0px" y="0px" width="129px" height="102px" viewBox="0 0 129 102">
<defs>
<g id="Layer0_0_FILL">
<path fill="#00CCCC" stroke="none" d="
M 128.75 10.35
Q 128.75 6.25 125.8 3.35 122.9 0.4 118.8 0.4
L 118.75 0.4 10.15 0.4
Q 6.05 0.4 3.15 3.35 0.25 6.25 0.25 10.35
L 0.25 91.95
Q 0.35 95.9 3.15 98.7 6.05 101.65 10.15 101.65
L 118.8 101.65
Q 122.9 101.65 125.8 98.7 128.65 95.9 128.75 91.95
L 128.75 10.35
M 27.5 23.5
L 28.15 23.5 31.6 32.2 29.95 32.2 29.3 30.45 26.35 30.45 25.75 32.2 24.1 32.2 27.5 23.5
M 36.55 26.7
Q 37.45 25.8 39.05 25.8 40.15 25.8 40.95 26.4
L 40.35 27.5
Q 39.8 27.05 38.95 27.05 38.1 27.05 37.65 27.6 37.15 28.15 37.15 29.1 37.15 31.1 39.05 31.1 39.85 31.1 40.45 30.55
L 41 31.7
Q 40.35 32.1 39.9 32.2 39.4 32.3 38.75 32.3 37.3 32.3 36.45 31.45 35.65 30.6 35.65 29.1 35.65 27.65 36.55 26.7
M 47 28.95
L 47 30.3
Q 47 31.55 47.5 31.85 47.3 32.15 47.1 32.25 46.9 32.3 46.6 32.3 46.3 32.3 46 32.1 45.75 31.85 45.7 31.55 45.5 31.9 45 32.1 44.5 32.3 43.95 32.3 42.95 32.3 42.35 31.8 41.8 31.3 41.8 30.35 41.8 29.3 42.6 28.65 43.4 28.05 44.9 28.05 45.2 28.05 45.55 28.15 45.55 27.05 44.15 27.05 43.3 27.05 42.75 27.3
L 42.45 26.15
Q 43.2 25.8 44.25 25.8 45.65 25.8 46.35 26.45 47 27.1 47 28.95
M 49.15 23.75
Q 49.4 23.5 49.75 23.5 50.1 23.5 50.35 23.75 50.6 24 50.6 24.35 50.6 24.7 50.35 24.95 50.1 25.2 49.75 25.2 49.4 25.2 49.15 24.95 48.9 24.7 48.9 24.35 48.9 24 49.15 23.75
M 49 27.15
L 48.2 27.15 48.2 25.9 50.45 25.9 50.45 32.2 49 32.2 49 27.15
M 56.1 25.9
L 57.8 25.9 55.35 29 58 32.2 56.2 32.2 54.6 30.15 53.15 32.2 51.45 32.2 53.85 29 51.6 25.9 53.3 25.9 54.65 27.85 56.1 25.9
M 58.45 30.35
Q 58.45 29.3 59.25 28.65 60.05 28.05 61.55 28.05 61.85 28.05 62.2 28.15 62.2 27.05 60.8 27.05 59.95 27.05 59.4 27.3
L 59.1 26.15
Q 59.85 25.8 60.9 25.8 62.3 25.8 63 26.45 63.65 27.1 63.65 28.95
L 63.65 30.3
Q 63.65 31.55 64.15 31.85 63.95 32.15 63.75 32.25 63.55 32.3 63.25 32.3 62.95 32.3 62.65 32.1 62.4 31.85 62.35 31.55 62.15 31.9 61.65 32.1 61.15 32.3 60.6 32.3 59.6 32.3 59 31.8 58.45 31.3 58.45 30.35
M 72.9 23.6
L 74.35 23.25 74.35 32.2 72.9 32.2 72.9 31.8
Q 72.7 32 72.25 32.15 71.85 32.3 71.35 32.3 70.05 32.3 69.3 31.5 68.55 30.65 68.55 29.15 68.55 27.7 69.4 26.75 70.3 25.8 71.6 25.8 72.3 25.8 72.9 26.1
L 72.9 23.6
M 77.95 23.65
Q 78.2 23.95 78.2 24.5 78.2 26.1 76.55 27.15
L 76.05 26.5
Q 76.6 26.05 76.7 25.85 76.85 25.65 76.85 25.45 76.85 25.2 76.55 24.9 76.25 24.65 76.25 24.3 76.25 23.35 77.2 23.35 77.7 23.35 77.95 23.65
M 82.55 23.35
L 84 23.35 82.7 25.1 81.55 25.1 82.55 23.35
M 85 28.95
L 85 30.3
Q 85 31.55 85.5 31.85 85.3 32.15 85.1 32.25 84.9 32.3 84.6 32.3 84.3 32.3 84 32.1 83.75 31.85 83.7 31.55 83.5 31.9 83 32.1 82.5 32.3 81.95 32.3 80.95 32.3 80.35 31.8 79.8 31.3 79.8 30.35 79.8 29.3 80.6 28.65 81.4 28.05 82.9 28.05 83.2 28.05 83.55 28.15 83.55 27.05 82.15 27.05 81.3 27.05 80.75 27.3
L 80.45 26.15
Q 81.2 25.8 82.25 25.8 83.65 25.8 84.35 26.45 85 27.1 85 28.95
M 90.05 26.1
L 90.65 25.45 91.65 26.35 90.95 26.85
Q 91.3 27.4 91.3 28.15 91.3 29.25 90.65 29.9 90 30.55 89 30.55 88.85 30.55 88.6 30.5
L 88.35 30.45
Q 88.3 30.45 88.05 30.6 87.75 30.7 87.75 30.85 87.75 31.1 88.15 31.1 88.35 31.1 88.8 31 89.2 30.9 89.5 30.9 91.65 30.9 91.65 32.65 91.65 33.6 90.8 34.1 89.95 34.65 88.75 34.65 87.3 34.65 86.1 33.8
L 87.05 32.65
Q 87.8 33.35 88.75 33.35 89.4 33.35 89.8 33.2 90.2 33 90.2 32.65 90.2 32.1 89.3 32.1 89.05 32.1 88.55 32.15 88.1 32.25 87.85 32.25 86.35 32.25 86.35 31.15 86.35 30.85 86.6 30.55 86.85 30.25 87.15 30.1 86.1 29.4 86.1 28.1 86.1 27.1 86.85 26.45 87.55 25.8 88.65 25.8 89.5 25.8 90.05 26.1
M 99.3 30.35
Q 99.3 29.3 100.1 28.65 100.9 28.05 102.4 28.05 102.7 28.05 103.05 28.15 103.05 27.05 101.65 27.05 100.8 27.05 100.25 27.3
L 99.95 26.15
Q 100.7 25.8 101.75 25.8 103.15 25.8 103.85 26.45 104.5 27.1 104.5 28.95
L 104.5 30.3
Q 104.5 31.55 105 31.85 104.8 32.15 104.6 32.25 104.4 32.3 104.1 32.3 103.8 32.3 103.5 32.1 103.25 31.85 103.2 31.55 103 31.9 102.5 32.1 102 32.3 101.45 32.3 100.45 32.3 99.85 31.8 99.3 31.3 99.3 30.35
M 96.65 25.9
L 98.1 25.9 98.1 32.2 96.65 32.2 96.65 31.7
Q 96.3 31.95 95.8 32.15 95.25 32.3 94.8 32.3 92.6 32.3 92.6 30
L 92.6 25.9 94.05 25.9 94.05 29.9
Q 94.05 31.1 95.15 31.1 95.65 31.1 96.05 30.85 96.5 30.6 96.65 30.25
L 96.65 25.9
M 46.85 40.8
Q 48.2 40.8 49.05 41.6 49.85 42.45 49.85 43.7 49.85 43.95 49.75 44.5
L 45.25 44.5
Q 45.3 45.25 45.8 45.7 46.25 46.1 47.05 46.1 48.05 46.1 48.6 45.55
L 49.15 46.7
Q 48.35 47.3 46.85 47.3 45.4 47.3 44.55 46.5 43.75 45.65 43.75 44.15 43.75 42.65 44.65 41.75 45.55 40.8 46.85 40.8
M 56.4 39.65
L 57.9 39.1 57.9 40.9 59.6 40.9 59.6 42.1 57.9 42.1 57.9 44.85
Q 57.9 45.5 58.1 45.8 58.3 46.1 58.85 46.1 59.35 46.1 59.8 45.8
L 59.8 47.15
Q 59.3 47.3 58.35 47.3 57.4 47.3 56.9 46.8 56.4 46.25 56.4 45.3
L 56.4 42.1 55.7 42.1 55.7 40.9 56.4 40.9 56.4 39.65
M 52.85 40.8
Q 53.8 40.8 54.7 41.25
L 54.25 42.4
Q 53.8 41.95 52.9 41.95 52.15 41.95 52.15 42.6 52.15 42.8 52.4 43 52.65 43.2 53.5 43.55 54.3 43.85 54.65 44.3 55.05 44.8 55.05 45.45 55.05 46.3 54.4 46.8 53.75 47.3 52.65 47.3 52 47.3 51.65 47.2 51.25 47.1 50.65 46.8
L 51.2 45.65
Q 51.85 46.15 52.65 46.15 53.5 46.15 53.5 45.55 53.5 45.2 53.25 44.95 53 44.75 52.25 44.4 50.65 43.75 50.65 42.55 50.65 41.7 51.25 41.25 51.85 40.8 52.85 40.8
M 62.9 42.05
Q 62.05 42.05 61.5 42.3
L 61.2 41.15
Q 61.95 40.8 63 40.8 64.4 40.8 65.1 41.45 65.75 42.1 65.75 43.95
L 65.75 45.3
Q 65.75 46.55 66.25 46.85 66.05 47.15 65.85 47.25 65.65 47.3 65.35 47.3 65.05 47.3 64.75 47.1 64.5 46.85 64.45 46.55 64.25 46.9 63.75 47.1 63.25 47.3 62.7 47.3 61.7 47.3 61.1 46.8 60.55 46.3 60.55 45.35 60.55 44.3 61.35 43.65 62.15 43.05 63.65 43.05 63.95 43.05 64.3 43.15 64.3 42.05 62.9 42.05
M 17.55 41.1
L 17.55 38.6 19 38.25 19 47.2 17.55 47.2 17.55 46.8
Q 17.35 47 16.9 47.15 16.5 47.3 16 47.3 14.7 47.3 13.95 46.5 13.2 45.65 13.2 44.15 13.2 42.7 14.05 41.75 14.95 40.8 16.25 40.8 16.95 40.8 17.55 41.1
M 26.6 40.9
L 28.2 40.9 29.7 44.75 31.3 40.9 32.85 40.9 29.95 47.3 29.4 47.3 26.6 40.9
M 20.95 41.75
Q 21.85 40.8 23.15 40.8 24.5 40.8 25.35 41.6 26.15 42.45 26.15 43.7 26.15 43.95 26.05 44.5
L 21.55 44.5
Q 21.6 45.25 22.1 45.7 22.55 46.1 23.35 46.1 24.35 46.1 24.9 45.55
L 25.45 46.7
Q 24.65 47.3 23.15 47.3 21.7 47.3 20.85 46.5 20.05 45.65 20.05 44.15 20.05 42.65 20.95 41.75
M 36.35 40.8
Q 37.7 40.8 38.55 41.6 39.35 42.45 39.35 43.7 39.35 43.95 39.25 44.5
L 34.75 44.5
Q 34.8 45.25 35.3 45.7 35.75 46.1 36.55 46.1 37.55 46.1 38.1 45.55
L 38.65 46.7
Q 37.85 47.3 36.35 47.3 34.9 47.3 34.05 46.5 33.25 45.65 33.25 44.15 33.25 42.65 34.15 41.75 35.05 40.8 36.35 40.8
M 89.45 41.5
Q 90.05 40.8 91 40.8 92.25 40.8 92.9 41.5 93.2 41.2 93.65 41 94.15 40.8 94.65 40.8 95.7 40.8 96.3 41.4 96.85 42 96.85 43.05
L 96.85 47.2 95.4 47.2 95.4 43.25
Q 95.4 42.05 94.3 42.05 93.95 42.05 93.65 42.25 93.35 42.4 93.25 42.65
L 93.25 47.2 91.75 47.2 91.75 43.05
Q 91.75 42.6 91.5 42.3 91.2 42.05 90.7 42.05 90.4 42.05 90.1 42.25 89.75 42.45 89.6 42.7
L 89.6 47.2 88.15 47.2 88.15 40.9 89.15 40.9 89.45 41.5
M 81.75 41.75
Q 82.65 40.8 83.95 40.8 85.3 40.8 86.15 41.6 86.95 42.45 86.95 43.7 86.95 43.95 86.85 44.5
L 82.35 44.5
Q 82.4 45.25 82.9 45.7 83.35 46.1 84.15 46.1 85.15 46.1 85.7 45.55
L 86.25 46.7
Q 85.45 47.3 83.95 47.3 82.5 47.3 81.65 46.5 80.85 45.65 80.85 44.15 80.85 42.65 81.75 41.75
M 99.8 41.35
Q 100.35 40.8 101.15 40.8 104.15 40.8 104.15 44.1 104.15 45.65 103.3 46.5 102.5 47.3 101.05 47.3 100.35 47.3 99.8 47.05
L 99.8 49.65 98.3 49.65 98.3 40.9 99.8 40.9 99.8 41.35
M 106.9 41.5
Q 107.5 40.8 108.55 40.8 109.3 40.8 109.7 41.05
L 109.05 42.3
Q 108.7 42.05 108.2 42.05 107.7 42.05 107.3 42.5 106.9 42.95 106.9 43.65
L 106.9 47.2 105.45 47.2 105.45 40.9 106.9 40.9 106.9 41.5
M 111 46.5
Q 110.2 45.65 110.2 44.15 110.2 42.65 111.1 41.75 112 40.8 113.3 40.8 114.65 40.8 115.5 41.6 116.3 42.45 116.3 43.7 116.3 43.95 116.2 44.5
L 111.7 44.5
Q 111.75 45.25 112.25 45.7 112.7 46.1 113.5 46.1 114.5 46.1 115.05 45.55
L 115.6 46.7
Q 114.8 47.3 113.3 47.3 111.85 47.3 111 46.5
M 70.1 42.05
Q 69.6 42.05 69.2 42.5 68.8 42.95 68.8 43.65
L 68.8 47.2 67.35 47.2 67.35 40.9 68.8 40.9 68.8 41.5
Q 69.4 40.8 70.45 40.8 71.2 40.8 71.6 41.05
L 70.95 42.3
Q 70.6 42.05 70.1 42.05
M 77.2 42.6
Q 77.2 42.8 77.45 43 77.7 43.2 78.55 43.55 79.35 43.85 79.7 44.3 80.1 44.8 80.1 45.45 80.1 46.3 79.45 46.8 78.8 47.3 77.7 47.3 77.05 47.3 76.7 47.2 76.3 47.1 75.7 46.8
L 76.25 45.65
Q 76.9 46.15 77.7 46.15 78.55 46.15 78.55 45.55 78.55 45.2 78.3 44.95 78.05 44.75 77.3 44.4 75.7 43.75 75.7 42.55 75.7 41.7 76.3 41.25 76.9 40.8 77.9 40.8 78.85 40.8 79.75 41.25
L 79.3 42.4
Q 78.85 41.95 77.95 41.95 77.2 41.95 77.2 42.6
M 34.25 56.6
Q 35.05 57.45 35.05 58.7 35.05 58.95 34.95 59.5
L 30.45 59.5
Q 30.5 60.25 31 60.7 31.45 61.1 32.25 61.1 33.25 61.1 33.8 60.55
L 34.35 61.7
Q 33.55 62.3 32.05 62.3 30.6 62.3 29.75 61.5 28.95 60.65 28.95 59.15 28.95 57.65 29.85 56.75 30.75 55.8 32.05 55.8 33.4 55.8 34.25 56.6
M 39.15 57.05
Q 38.3 57.05 37.85 57.6 37.35 58.15 37.35 59.1 37.35 61.1 39.25 61.1 40.05 61.1 40.65 60.55
L 41.2 61.7
Q 40.55 62.1 40.1 62.2 39.6 62.3 38.95 62.3 37.5 62.3 36.65 61.45 35.85 60.6 35.85 59.1 35.85 57.65 36.75 56.7 37.65 55.8 39.25 55.8 40.35 55.8 41.15 56.4
L 40.55 57.5
Q 40 57.05 39.15 57.05
M 28.8 53.6
L 28.4 54.7
Q 27.9 54.55 27.65 54.55 27.25 54.55 26.95 54.9 26.65 55.25 26.65 55.75 26.65 55.85 26.65 55.9
L 27.95 55.9 27.95 57.15 26.7 57.15 26.7 62.2 25.2 62.2 25.2 57.15 24.3 57.15 24.3 55.9 25.25 55.9
Q 25.25 54.75 25.9 54.05 26.55 53.35 27.55 53.35 28.05 53.35 28.8 53.6
M 103.05 58.15
Q 103.05 57.05 101.65 57.05 100.8 57.05 100.25 57.3
L 99.95 56.15
Q 100.7 55.8 101.75 55.8 103.15 55.8 103.85 56.45 104.5 57.1 104.5 58.95
L 104.5 60.3
Q 104.5 61.55 105 61.85 104.8 62.15 104.6 62.25 104.4 62.3 104.1 62.3 103.8 62.3 103.5 62.1 103.25 61.85 103.2 61.55 103 61.9 102.5 62.1 102 62.3 101.45 62.3 100.45 62.3 99.85 61.8 99.3 61.3 99.3 60.35 99.3 59.3 100.1 58.65 100.9 58.05 102.4 58.05 102.7 58.05 103.05 58.15
M 93.05 58.25
Q 93.05 57.05 91.95 57.05 91.6 57.05 91.3 57.25 91 57.4 90.9 57.65
L 90.9 62.2 89.4 62.2 89.4 58.05
Q 89.4 57.6 89.15 57.3 88.85 57.05 88.35 57.05 88.05 57.05 87.75 57.25 87.4 57.45 87.25 57.7
L 87.25 62.2 85.8 62.2 85.8 55.9 86.8 55.9 87.1 56.5
Q 87.7 55.8 88.65 55.8 89.9 55.8 90.55 56.5 90.85 56.2 91.3 56 91.8 55.8 92.3 55.8 93.35 55.8 93.95 56.4 94.5 57 94.5 58.05
L 94.5 62.2 93.05 62.2 93.05 58.25
M 81.6 55.8
Q 83.05 55.8 83.8 56.65 84.6 57.55 84.6 59.05 84.6 60.55 83.8 61.45 83 62.3 81.6 62.3 80.15 62.3 79.4 61.45 78.6 60.55 78.6 59.05 78.6 57.6 79.4 56.7 80.25 55.8 81.6 55.8
M 73.35 56.7
Q 74.25 55.8 75.85 55.8 76.95 55.8 77.75 56.4
L 77.15 57.5
Q 76.6 57.05 75.75 57.05 74.9 57.05 74.45 57.6 73.95 58.15 73.95 59.1 73.95 61.1 75.85 61.1 76.65 61.1 77.25 60.55
L 77.8 61.7
Q 77.15 62.1 76.7 62.2 76.2 62.3 75.55 62.3 74.1 62.3 73.25 61.45 72.45 60.6 72.45 59.1 72.45 57.65 73.35 56.7
M 63.1 56.15
Q 63.85 55.8 64.9 55.8 66.3 55.8 67 56.45 67.65 57.1 67.65 58.95
L 67.65 60.3
Q 67.65 61.55 68.15 61.85 67.95 62.15 67.75 62.25 67.55 62.3 67.25 62.3 66.95 62.3 66.65 62.1 66.4 61.85 66.35 61.55 66.15 61.9 65.65 62.1 65.15 62.3 64.6 62.3 63.6 62.3 63 61.8 62.45 61.3 62.45 60.35 62.45 59.3 63.25 58.65 64.05 58.05 65.55 58.05 65.85 58.05 66.2 58.15 66.2 57.05 64.8 57.05 63.95 57.05 63.4 57.3
L 63.1 56.15
M 61.4 53.25
L 61.4 62.2 59.95 62.2 59.95 61.8
Q 59.75 62 59.3 62.15 58.9 62.3 58.4 62.3 57.1 62.3 56.35 61.5 55.6 60.65 55.6 59.15 55.6 57.7 56.45 56.75 57.35 55.8 58.65 55.8 59.35 55.8 59.95 56.1
L 59.95 53.6 61.4 53.25
M 52.85 58.15
Q 52.85 57.05 51.45 57.05 50.6 57.05 50.05 57.3
L 49.75 56.15
Q 50.5 55.8 51.55 55.8 52.95 55.8 53.65 56.45 54.3 57.1 54.3 58.95
L 54.3 60.3
Q 54.3 61.55 54.8 61.85 54.6 62.15 54.4 62.25 54.2 62.3 53.9 62.3 53.6 62.3 53.3 62.1 53.05 61.85 53 61.55 52.8 61.9 52.3 62.1 51.8 62.3 51.25 62.3 50.25 62.3 49.65 61.8 49.1 61.3 49.1 60.35 49.1 59.3 49.9 58.65 50.7 58.05 52.2 58.05 52.5 58.05 52.85 58.15
M 42.4 53.6
L 43.9 53.25 43.9 56.3
Q 44.45 55.8 45.45 55.8 46.6 55.8 47.25 56.45 47.9 57.1 47.9 58.35
L 47.9 62.2 46.45 62.2 46.45 58.35
Q 46.45 57.75 46.1 57.4 45.75 57.05 45.15 57.05 44.8 57.05 44.4 57.25 44.05 57.45 43.9 57.7
L 43.9 62.2 42.4 62.2 42.4 53.6
M 23.7 72.05
Q 22.85 72.05 22.3 72.3
L 22 71.15
Q 22.75 70.8 23.8 70.8 25.2 70.8 25.9 71.45 26.55 72.1 26.55 73.95
L 26.55 75.3
Q 26.55 76.55 27.05 76.85 26.85 77.15 26.65 77.25 26.45 77.3 26.15 77.3 25.85 77.3 25.55 77.1 25.3 76.85 25.25 76.55 25.05 76.9 24.55 77.1 24.05 77.3 23.5 77.3 22.5 77.3 21.9 76.8 21.35 76.3 21.35 75.35 21.35 74.3 22.15 73.65 22.95 73.05 24.45 73.05 24.75 73.05 25.1 73.15 25.1 72.05 23.7 72.05
M 20.4 70.9
L 20.4 72.1 18.7 72.1 18.7 74.85
Q 18.7 75.5 18.9 75.8 19.1 76.1 19.65 76.1 20.15 76.1 20.6 75.8
L 20.6 77.15
Q 20.1 77.3 19.15 77.3 18.2 77.3 17.7 76.8 17.2 76.25 17.2 75.3
L 17.2 72.1 16.5 72.1 16.5 70.9 17.2 70.9 17.2 69.65 18.7 69.1 18.7 70.9 20.4 70.9
M 29.15 70.9
L 29.45 71.5
Q 30.05 70.8 31 70.8 32.25 70.8 32.9 71.5 33.2 71.2 33.65 71 34.15 70.8 34.65 70.8 35.7 70.8 36.3 71.4 36.85 72 36.85 73.05
L 36.85 77.2 35.4 77.2 35.4 73.25
Q 35.4 72.05 34.3 72.05 33.95 72.05 33.65 72.25 33.35 72.4 33.25 72.65
L 33.25 77.2 31.75 77.2 31.75 73.05
Q 31.75 72.6 31.5 72.3 31.2 72.05 30.7 72.05 30.4 72.05 30.1 72.25 29.75 72.45 29.6 72.7
L 29.6 77.2 28.15 77.2 28.15 70.9 29.15 70.9
M 38.3 70.9
L 39.8 70.9 39.8 71.35
Q 40.35 70.8 41.15 70.8 44.15 70.8 44.15 74.1 44.15 75.65 43.3 76.5 42.5 77.3 41.05 77.3 40.35 77.3 39.8 77.05
L 39.8 79.65 38.3 79.65 38.3 70.9
M 62.4 71.75
Q 63.3 70.8 64.6 70.8 65.3 70.8 65.9 71.1
L 65.9 68.6 67.35 68.25 67.35 77.2 65.9 77.2 65.9 76.8
Q 65.7 77 65.25 77.15 64.85 77.3 64.35 77.3 63.05 77.3 62.3 76.5 61.55 75.65 61.55 74.15 61.55 72.7 62.4 71.75
M 68.4 74.15
Q 68.4 72.65 69.3 71.75 70.2 70.8 71.5 70.8 72.85 70.8 73.7 71.6 74.5 72.45 74.5 73.7 74.5 73.95 74.4 74.5
L 69.9 74.5
Q 69.95 75.25 70.45 75.7 70.9 76.1 71.7 76.1 72.7 76.1 73.25 75.55
L 73.8 76.7
Q 73 77.3 71.5 77.3 70.05 77.3 69.2 76.5 68.4 75.65 68.4 74.15
M 47.5 70.8
Q 48.9 70.8 49.6 71.45 50.25 72.1 50.25 73.95
L 50.25 75.3
Q 50.25 76.55 50.75 76.85 50.55 77.15 50.35 77.25 50.15 77.3 49.85 77.3 49.55 77.3 49.25 77.1 49 76.85 48.95 76.55 48.75 76.9 48.25 77.1 47.75 77.3 47.2 77.3 46.2 77.3 45.6 76.8 45.05 76.3 45.05 75.35 45.05 74.3 45.85 73.65 46.65 73.05 48.15 73.05 48.45 73.05 48.8 73.15 48.8 72.05 47.4 72.05 46.55 72.05 46 72.3
L 45.7 71.15
Q 46.45 70.8 47.5 70.8
M 59.6 71.45
Q 60.25 72.1 60.25 73.95
L 60.25 75.3
Q 60.25 76.55 60.75 76.85 60.55 77.15 60.35 77.25 60.15 77.3 59.85 77.3 59.55 77.3 59.25 77.1 59 76.85 58.95 76.55 58.75 76.9 58.25 77.1 57.75 77.3 57.2 77.3 56.2 77.3 55.6 76.8 55.05 76.3 55.05 75.35 55.05 74.3 55.85 73.65 56.65 73.05 58.15 73.05 58.45 73.05 58.8 73.15 58.8 72.05 57.4 72.05 56.55 72.05 56 72.3
L 55.7 71.15
Q 56.45 70.8 57.5 70.8 58.9 70.8 59.6 71.45
M 105.1 72.05
Q 104.25 72.05 103.7 72.3
L 103.4 71.15
Q 104.15 70.8 105.2 70.8 106.6 70.8 107.3 71.45 107.95 72.1 107.95 73.95
L 107.95 75.3
Q 107.95 76.55 108.45 76.85 108.25 77.15 108.05 77.25 107.85 77.3 107.55 77.3 107.25 77.3 106.95 77.1 106.7 76.85 106.65 76.55 106.45 76.9 105.95 77.1 105.45 77.3 104.9 77.3 103.9 77.3 103.3 76.8 102.75 76.3 102.75 75.35 102.75 74.3 103.55 73.65 104.35 73.05 105.85 73.05 106.15 73.05 106.5 73.15 106.5 72.05 105.1 72.05
M 90.35 72.3
L 90.05 71.15
Q 90.8 70.8 91.85 70.8 93.25 70.8 93.95 71.45 94.6 72.1 94.6 73.95
L 94.6 75.3
Q 94.6 76.55 95.1 76.85 94.9 77.15 94.7 77.25 94.5 77.3 94.2 77.3 93.9 77.3 93.6 77.1 93.35 76.85 93.3 76.55 93.1 76.9 92.6 77.1 92.1 77.3 91.55 77.3 90.55 77.3 89.95 76.8 89.4 76.3 89.4 75.35 89.4 74.3 90.2 73.65 91 73.05 92.5 73.05 92.8 73.05 93.15 73.15 93.15 72.05 91.75 72.05 90.9 72.05 90.35 72.3
M 86.75 70.9
L 88.2 70.9 88.2 77.2 86.75 77.2 86.75 76.7
Q 86.4 76.95 85.9 77.15 85.35 77.3 84.9 77.3 82.7 77.3 82.7 75
L 82.7 70.9 84.15 70.9 84.15 74.9
Q 84.15 76.1 85.25 76.1 85.75 76.1 86.15 75.85 86.6 75.6 86.75 75.25
L 86.75 70.9
M 96.75 71.75
Q 97.65 70.8 98.95 70.8 99.65 70.8 100.25 71.1
L 100.25 68.6 101.7 68.25 101.7 77.2 100.25 77.2 100.25 76.8
Q 100.05 77 99.6 77.15 99.2 77.3 98.7 77.3 97.4 77.3 96.65 76.5 95.9 75.65 95.9 74.15 95.9 72.7 96.75 71.75
M 111.9 76.45
Q 111.9 76.85 111.55 77.2 111.25 77.5 110.8 77.5 110.4 77.5 110.1 77.2 109.75 76.85 109.75 76.45 109.75 76 110.1 75.7 110.4 75.4 110.8 75.4 111.25 75.4 111.55 75.7 111.9 76 111.9 76.45
M 81.25 70.9
L 81.25 79.65 79.75 79.65 79.75 77
Q 79.25 77.3 78.3 77.3 76.95 77.3 76.15 76.5 75.4 75.65 75.4 74.1 75.4 72.6 76.3 71.7 77.15 70.8 78.55 70.8 79.4 70.8 80.05 71.3
L 80.3 70.9 81.25 70.9
M 79.75 72.4
Q 79.4 72.05 78.75 72.05 77.9 72.05 77.4 72.6 76.9 73.2 76.9 74.1 76.9 76.1 78.7 76.1 79.35 76.1 79.75 75.8
L 79.75 72.4
M 100.25 72.4
Q 99.75 72.05 99.25 72.05 98.35 72.05 97.9 72.6 97.4 73.1 97.4 74.1 97.4 76.1 99.3 76.1 99.5 76.1 99.85 75.95 100.15 75.85 100.25 75.7
L 100.25 72.4
M 91.8 76.15
Q 93.15 76.15 93.15 74.85
L 93.15 74.25
Q 92.75 74.15 92.6 74.15 90.85 74.15 90.85 75.3 90.85 76.15 91.8 76.15
M 106.5 74.85
L 106.5 74.25
Q 106.1 74.15 105.95 74.15 104.2 74.15 104.2 75.3 104.2 76.15 105.15 76.15 106.5 76.15 106.5 74.85
M 58.8 74.85
L 58.8 74.25
Q 58.4 74.15 58.25 74.15 56.5 74.15 56.5 75.3 56.5 76.15 57.45 76.15 58.8 76.15 58.8 74.85
M 48.8 74.85
L 48.8 74.25
Q 48.4 74.15 48.25 74.15 46.5 74.15 46.5 75.3 46.5 76.15 47.45 76.15 48.8 76.15 48.8 74.85
M 73.05 73.4
Q 72.9 72.05 71.5 72.05 70.25 72.05 69.95 73.4
L 73.05 73.4
M 64.9 72.05
Q 64 72.05 63.55 72.6 63.05 73.1 63.05 74.1 63.05 76.1 64.95 76.1 65.15 76.1 65.5 75.95 65.8 75.85 65.9 75.7
L 65.9 72.4
Q 65.4 72.05 64.9 72.05
M 39.8 72.45
L 39.8 75.75
Q 40.2 76.1 40.7 76.1 41.75 76.1 42.2 75.6 42.6 75.1 42.6 74.05 42.6 72.95 42.2 72.5 41.75 72.05 40.75 72.05 40.2 72.05 39.8 72.45
M 25.1 74.85
L 25.1 74.25
Q 24.7 74.15 24.55 74.15 22.8 74.15 22.8 75.3 22.8 76.15 23.75 76.15 25.1 76.15 25.1 74.85
M 52.85 59.85
L 52.85 59.25
Q 52.45 59.15 52.3 59.15 50.55 59.15 50.55 60.3 50.55 61.15 51.5 61.15 52.85 61.15 52.85 59.85
M 59.95 57.4
Q 59.45 57.05 58.95 57.05 58.05 57.05 57.6 57.6 57.1 58.1 57.1 59.1 57.1 61.1 59 61.1 59.2 61.1 59.55 60.95 59.85 60.85 59.95 60.7
L 59.95 57.4
M 65.65 59.15
Q 63.9 59.15 63.9 60.3 63.9 61.15 64.85 61.15 66.2 61.15 66.2 59.85
L 66.2 59.25
Q 65.8 59.15 65.65 59.15
M 81.6 61.1
Q 82.3 61.1 82.7 60.6 83.1 60.05 83.1 59.05 83.1 57 81.6 57 80.9 57 80.5 57.55 80.1 58.1 80.1 59.05 80.1 61.1 81.6 61.1
M 103.05 59.85
L 103.05 59.25
Q 102.65 59.15 102.5 59.15 100.75 59.15 100.75 60.3 100.75 61.15 101.7 61.15 103.05 61.15 103.05 59.85
M 32.05 57.05
Q 30.8 57.05 30.5 58.4
L 33.6 58.4
Q 33.45 57.05 32.05 57.05
M 111.75 43.4
L 114.85 43.4
Q 114.7 42.05 113.3 42.05 112.05 42.05 111.75 43.4
M 100.75 42.05
Q 100.2 42.05 99.8 42.45
L 99.8 45.75
Q 100.2 46.1 100.7 46.1 101.75 46.1 102.2 45.6 102.6 45.1 102.6 44.05 102.6 42.95 102.2 42.5 101.75 42.05 100.75 42.05
M 82.4 43.4
L 85.5 43.4
Q 85.35 42.05 83.95 42.05 82.7 42.05 82.4 43.4
M 34.8 43.4
L 37.9 43.4
Q 37.75 42.05 36.35 42.05 35.1 42.05 34.8 43.4
M 21.6 43.4
L 24.7 43.4
Q 24.55 42.05 23.15 42.05 21.9 42.05 21.6 43.4
M 17.55 42.4
Q 17.05 42.05 16.55 42.05 15.65 42.05 15.2 42.6 14.7 43.1 14.7 44.1 14.7 46.1 16.6 46.1 16.8 46.1 17.15 45.95 17.45 45.85 17.55 45.7
L 17.55 42.4
M 64.3 44.85
L 64.3 44.25
Q 63.9 44.15 63.75 44.15 62 44.15 62 45.3 62 46.15 62.95 46.15 64.3 46.15 64.3 44.85
M 45.3 43.4
L 48.4 43.4
Q 48.25 42.05 46.85 42.05 45.6 42.05 45.3 43.4
M 103.05 29.85
L 103.05 29.25
Q 102.65 29.15 102.5 29.15 100.75 29.15 100.75 30.3 100.75 31.15 101.7 31.15 103.05 31.15 103.05 29.85
M 89.5 27.35
Q 89.2 27 88.7 27 88.2 27 87.9 27.3 87.6 27.65 87.6 28.15 87.6 28.7 87.9 29 88.2 29.35 88.7 29.35 89.25 29.35 89.55 29.05 89.8 28.7 89.8 28.15 89.8 27.65 89.5 27.35
M 83 29.15
Q 81.25 29.15 81.25 30.3 81.25 31.15 82.2 31.15 83.55 31.15 83.55 29.85
L 83.55 29.25
Q 83.15 29.15 83 29.15
M 72.9 27.4
Q 72.4 27.05 71.9 27.05 71 27.05 70.55 27.6 70.05 28.1 70.05 29.1 70.05 31.1 71.95 31.1 72.15 31.1 72.5 30.95 72.8 30.85 72.9 30.7
L 72.9 27.4
M 62.2 29.25
Q 61.8 29.15 61.65 29.15 59.9 29.15 59.9 30.3 59.9 31.15 60.85 31.15 62.2 31.15 62.2 29.85
L 62.2 29.25
M 45.55 29.85
L 45.55 29.25
Q 45.15 29.15 45 29.15 43.25 29.15 43.25 30.3 43.25 31.15 44.2 31.15 45.55 31.15 45.55 29.85
M 27.85 26.1
L 26.8 29.3 28.85 29.3 27.85 26.1 Z"/>
</g>

<g id="Layer0_0_MEMBER_0_FILL">
<path fill="#000000" stroke="none" d="
M 57.4 72.05
Q 58.8 72.05 58.8 73.15 58.45 73.05 58.15 73.05 56.65 73.05 55.85 73.65 55.05 74.3 55.05 75.35 55.05 76.3 55.6 76.8 56.2 77.3 57.2 77.3 57.75 77.3 58.25 77.1 58.75 76.9 58.95 76.55 59 76.85 59.25 77.1 59.55 77.3 59.85 77.3 60.15 77.3 60.35 77.25 60.55 77.15 60.75 76.85 60.25 76.55 60.25 75.3
L 60.25 73.95
Q 60.25 72.1 59.6 71.45 58.9 70.8 57.5 70.8 56.45 70.8 55.7 71.15
L 56 72.3
Q 56.55 72.05 57.4 72.05
M 58.8 74.25
L 58.8 74.85
Q 58.8 76.15 57.45 76.15 56.5 76.15 56.5 75.3 56.5 74.15 58.25 74.15 58.4 74.15 58.8 74.25
M 45.7 71.15
L 46 72.3
Q 46.55 72.05 47.4 72.05 48.8 72.05 48.8 73.15 48.45 73.05 48.15 73.05 46.65 73.05 45.85 73.65 45.05 74.3 45.05 75.35 45.05 76.3 45.6 76.8 46.2 77.3 47.2 77.3 47.75 77.3 48.25 77.1 48.75 76.9 48.95 76.55 49 76.85 49.25 77.1 49.55 77.3 49.85 77.3 50.15 77.3 50.35 77.25 50.55 77.15 50.75 76.85 50.25 76.55 50.25 75.3
L 50.25 73.95
Q 50.25 72.1 49.6 71.45 48.9 70.8 47.5 70.8 46.45 70.8 45.7 71.15
M 48.8 74.25
L 48.8 74.85
Q 48.8 76.15 47.45 76.15 46.5 76.15 46.5 75.3 46.5 74.15 48.25 74.15 48.4 74.15 48.8 74.25
M 43.9 53.25
L 42.4 53.6 42.4 62.2 43.9 62.2 43.9 57.7
Q 44.05 57.45 44.4 57.25 44.8 57.05 45.15 57.05 45.75 57.05 46.1 57.4 46.45 57.75 46.45 58.35
L 46.45 62.2 47.9 62.2 47.9 58.35
Q 47.9 57.1 47.25 56.45 46.6 55.8 45.45 55.8 44.45 55.8 43.9 56.3
L 43.9 53.25
M 51.45 57.05
Q 52.85 57.05 52.85 58.15 52.5 58.05 52.2 58.05 50.7 58.05 49.9 58.65 49.1 59.3 49.1 60.35 49.1 61.3 49.65 61.8 50.25 62.3 51.25 62.3 51.8 62.3 52.3 62.1 52.8 61.9 53 61.55 53.05 61.85 53.3 62.1 53.6 62.3 53.9 62.3 54.2 62.3 54.4 62.25 54.6 62.15 54.8 61.85 54.3 61.55 54.3 60.3
L 54.3 58.95
Q 54.3 57.1 53.65 56.45 52.95 55.8 51.55 55.8 50.5 55.8 49.75 56.15
L 50.05 57.3
Q 50.6 57.05 51.45 57.05
M 52.85 59.25
L 52.85 59.85
Q 52.85 61.15 51.5 61.15 50.55 61.15 50.55 60.3 50.55 59.15 52.3 59.15 52.45 59.15 52.85 59.25
M 61.4 62.2
L 61.4 53.25 59.95 53.6 59.95 56.1
Q 59.35 55.8 58.65 55.8 57.35 55.8 56.45 56.75 55.6 57.7 55.6 59.15 55.6 60.65 56.35 61.5 57.1 62.3 58.4 62.3 58.9 62.3 59.3 62.15 59.75 62 59.95 61.8
L 59.95 62.2 61.4 62.2
M 58.95 57.05
Q 59.45 57.05 59.95 57.4
L 59.95 60.7
Q 59.85 60.85 59.55 60.95 59.2 61.1 59 61.1 57.1 61.1 57.1 59.1 57.1 58.1 57.6 57.6 58.05 57.05 58.95 57.05
M 69.3 71.75
Q 68.4 72.65 68.4 74.15 68.4 75.65 69.2 76.5 70.05 77.3 71.5 77.3 73 77.3 73.8 76.7
L 73.25 75.55
Q 72.7 76.1 71.7 76.1 70.9 76.1 70.45 75.7 69.95 75.25 69.9 74.5
L 74.4 74.5
Q 74.5 73.95 74.5 73.7 74.5 72.45 73.7 71.6 72.85 70.8 71.5 70.8 70.2 70.8 69.3 71.75
M 71.5 72.05
Q 72.9 72.05 73.05 73.4
L 69.95 73.4
Q 70.25 72.05 71.5 72.05
M 64.6 70.8
Q 63.3 70.8 62.4 71.75 61.55 72.7 61.55 74.15 61.55 75.65 62.3 76.5 63.05 77.3 64.35 77.3 64.85 77.3 65.25 77.15 65.7 77 65.9 76.8
L 65.9 77.2 67.35 77.2 67.35 68.25 65.9 68.6 65.9 71.1
Q 65.3 70.8 64.6 70.8
M 63.55 72.6
Q 64 72.05 64.9 72.05 65.4 72.05 65.9 72.4
L 65.9 75.7
Q 65.8 75.85 65.5 75.95 65.15 76.1 64.95 76.1 63.05 76.1 63.05 74.1 63.05 73.1 63.55 72.6
M 64.9 55.8
Q 63.85 55.8 63.1 56.15
L 63.4 57.3
Q 63.95 57.05 64.8 57.05 66.2 57.05 66.2 58.15 65.85 58.05 65.55 58.05 64.05 58.05 63.25 58.65 62.45 59.3 62.45 60.35 62.45 61.3 63 61.8 63.6 62.3 64.6 62.3 65.15 62.3 65.65 62.1 66.15 61.9 66.35 61.55 66.4 61.85 66.65 62.1 66.95 62.3 67.25 62.3 67.55 62.3 67.75 62.25 67.95 62.15 68.15 61.85 67.65 61.55 67.65 60.3
L 67.65 58.95
Q 67.65 57.1 67 56.45 66.3 55.8 64.9 55.8
M 63.9 60.3
Q 63.9 59.15 65.65 59.15 65.8 59.15 66.2 59.25
L 66.2 59.85
Q 66.2 61.15 64.85 61.15 63.9 61.15 63.9 60.3
M 75.85 55.8
Q 74.25 55.8 73.35 56.7 72.45 57.65 72.45 59.1 72.45 60.6 73.25 61.45 74.1 62.3 75.55 62.3 76.2 62.3 76.7 62.2 77.15 62.1 77.8 61.7
L 77.25 60.55
Q 76.65 61.1 75.85 61.1 73.95 61.1 73.95 59.1 73.95 58.15 74.45 57.6 74.9 57.05 75.75 57.05 76.6 57.05 77.15 57.5
L 77.75 56.4
Q 76.95 55.8 75.85 55.8
M 39.8 70.9
L 38.3 70.9 38.3 79.65 39.8 79.65 39.8 77.05
Q 40.35 77.3 41.05 77.3 42.5 77.3 43.3 76.5 44.15 75.65 44.15 74.1 44.15 70.8 41.15 70.8 40.35 70.8 39.8 71.35
L 39.8 70.9
M 39.8 75.75
L 39.8 72.45
Q 40.2 72.05 40.75 72.05 41.75 72.05 42.2 72.5 42.6 72.95 42.6 74.05 42.6 75.1 42.2 75.6 41.75 76.1 40.7 76.1 40.2 76.1 39.8 75.75
M 29.45 71.5
L 29.15 70.9 28.15 70.9 28.15 77.2 29.6 77.2 29.6 72.7
Q 29.75 72.45 30.1 72.25 30.4 72.05 30.7 72.05 31.2 72.05 31.5 72.3 31.75 72.6 31.75 73.05
L 31.75 77.2 33.25 77.2 33.25 72.65
Q 33.35 72.4 33.65 72.25 33.95 72.05 34.3 72.05 35.4 72.05 35.4 73.25
L 35.4 77.2 36.85 77.2 36.85 73.05
Q 36.85 72 36.3 71.4 35.7 70.8 34.65 70.8 34.15 70.8 33.65 71 33.2 71.2 32.9 71.5 32.25 70.8 31 70.8 30.05 70.8 29.45 71.5
M 20.4 72.1
L 20.4 70.9 18.7 70.9 18.7 69.1 17.2 69.65 17.2 70.9 16.5 70.9 16.5 72.1 17.2 72.1 17.2 75.3
Q 17.2 76.25 17.7 76.8 18.2 77.3 19.15 77.3 20.1 77.3 20.6 77.15
L 20.6 75.8
Q 20.15 76.1 19.65 76.1 19.1 76.1 18.9 75.8 18.7 75.5 18.7 74.85
L 18.7 72.1 20.4 72.1
M 22.3 72.3
Q 22.85 72.05 23.7 72.05 25.1 72.05 25.1 73.15 24.75 73.05 24.45 73.05 22.95 73.05 22.15 73.65 21.35 74.3 21.35 75.35 21.35 76.3 21.9 76.8 22.5 77.3 23.5 77.3 24.05 77.3 24.55 77.1 25.05 76.9 25.25 76.55 25.3 76.85 25.55 77.1 25.85 77.3 26.15 77.3 26.45 77.3 26.65 77.25 26.85 77.15 27.05 76.85 26.55 76.55 26.55 75.3
L 26.55 73.95
Q 26.55 72.1 25.9 71.45 25.2 70.8 23.8 70.8 22.75 70.8 22 71.15
L 22.3 72.3
M 23.75 76.15
Q 22.8 76.15 22.8 75.3 22.8 74.15 24.55 74.15 24.7 74.15 25.1 74.25
L 25.1 74.85
Q 25.1 76.15 23.75 76.15
M 28.4 54.7
L 28.8 53.6
Q 28.05 53.35 27.55 53.35 26.55 53.35 25.9 54.05 25.25 54.75 25.25 55.9
L 24.3 55.9 24.3 57.15 25.2 57.15 25.2 62.2 26.7 62.2 26.7 57.15 27.95 57.15 27.95 55.9 26.65 55.9
Q 26.65 55.85 26.65 55.75 26.65 55.25 26.95 54.9 27.25 54.55 27.65 54.55 27.9 54.55 28.4 54.7
M 37.85 57.6
Q 38.3 57.05 39.15 57.05 40 57.05 40.55 57.5
L 41.15 56.4
Q 40.35 55.8 39.25 55.8 37.65 55.8 36.75 56.7 35.85 57.65 35.85 59.1 35.85 60.6 36.65 61.45 37.5 62.3 38.95 62.3 39.6 62.3 40.1 62.2 40.55 62.1 41.2 61.7
L 40.65 60.55
Q 40.05 61.1 39.25 61.1 37.35 61.1 37.35 59.1 37.35 58.15 37.85 57.6
M 35.05 58.7
Q 35.05 57.45 34.25 56.6 33.4 55.8 32.05 55.8 30.75 55.8 29.85 56.75 28.95 57.65 28.95 59.15 28.95 60.65 29.75 61.5 30.6 62.3 32.05 62.3 33.55 62.3 34.35 61.7
L 33.8 60.55
Q 33.25 61.1 32.25 61.1 31.45 61.1 31 60.7 30.5 60.25 30.45 59.5
L 34.95 59.5
Q 35.05 58.95 35.05 58.7
M 30.5 58.4
Q 30.8 57.05 32.05 57.05 33.45 57.05 33.6 58.4
L 30.5 58.4
M 38.55 41.6
Q 37.7 40.8 36.35 40.8 35.05 40.8 34.15 41.75 33.25 42.65 33.25 44.15 33.25 45.65 34.05 46.5 34.9 47.3 36.35 47.3 37.85 47.3 38.65 46.7
L 38.1 45.55
Q 37.55 46.1 36.55 46.1 35.75 46.1 35.3 45.7 34.8 45.25 34.75 44.5
L 39.25 44.5
Q 39.35 43.95 39.35 43.7 39.35 42.45 38.55 41.6
M 37.9 43.4
L 34.8 43.4
Q 35.1 42.05 36.35 42.05 37.75 42.05 37.9 43.4
M 23.15 40.8
Q 21.85 40.8 20.95 41.75 20.05 42.65 20.05 44.15 20.05 45.65 20.85 46.5 21.7 47.3 23.15 47.3 24.65 47.3 25.45 46.7
L 24.9 45.55
Q 24.35 46.1 23.35 46.1 22.55 46.1 22.1 45.7 21.6 45.25 21.55 44.5
L 26.05 44.5
Q 26.15 43.95 26.15 43.7 26.15 42.45 25.35 41.6 24.5 40.8 23.15 40.8
M 24.7 43.4
L 21.6 43.4
Q 21.9 42.05 23.15 42.05 24.55 42.05 24.7 43.4
M 28.2 40.9
L 26.6 40.9 29.4 47.3 29.95 47.3 32.85 40.9 31.3 40.9 29.7 44.75 28.2 40.9
M 39.05 25.8
Q 37.45 25.8 36.55 26.7 35.65 27.65 35.65 29.1 35.65 30.6 36.45 31.45 37.3 32.3 38.75 32.3 39.4 32.3 39.9 32.2 40.35 32.1 41 31.7
L 40.45 30.55
Q 39.85 31.1 39.05 31.1 37.15 31.1 37.15 29.1 37.15 28.15 37.65 27.6 38.1 27.05 38.95 27.05 39.8 27.05 40.35 27.5
L 40.95 26.4
Q 40.15 25.8 39.05 25.8
M 17.55 38.6
L 17.55 41.1
Q 16.95 40.8 16.25 40.8 14.95 40.8 14.05 41.75 13.2 42.7 13.2 44.15 13.2 45.65 13.95 46.5 14.7 47.3 16 47.3 16.5 47.3 16.9 47.15 17.35 47 17.55 46.8
L 17.55 47.2 19 47.2 19 38.25 17.55 38.6
M 16.55 42.05
Q 17.05 42.05 17.55 42.4
L 17.55 45.7
Q 17.45 45.85 17.15 45.95 16.8 46.1 16.6 46.1 14.7 46.1 14.7 44.1 14.7 43.1 15.2 42.6 15.65 42.05 16.55 42.05
M 28.15 23.5
L 27.5 23.5 24.1 32.2 25.75 32.2 26.35 30.45 29.3 30.45 29.95 32.2 31.6 32.2 28.15 23.5
M 28.85 29.3
L 26.8 29.3 27.85 26.1 28.85 29.3
M 77.45 43
Q 77.2 42.8 77.2 42.6 77.2 41.95 77.95 41.95 78.85 41.95 79.3 42.4
L 79.75 41.25
Q 78.85 40.8 77.9 40.8 76.9 40.8 76.3 41.25 75.7 41.7 75.7 42.55 75.7 43.75 77.3 44.4 78.05 44.75 78.3 44.95 78.55 45.2 78.55 45.55 78.55 46.15 77.7 46.15 76.9 46.15 76.25 45.65
L 75.7 46.8
Q 76.3 47.1 76.7 47.2 77.05 47.3 77.7 47.3 78.8 47.3 79.45 46.8 80.1 46.3 80.1 45.45 80.1 44.8 79.7 44.3 79.35 43.85 78.55 43.55 77.7 43.2 77.45 43
M 63 40.8
Q 61.95 40.8 61.2 41.15
L 61.5 42.3
Q 62.05 42.05 62.9 42.05 64.3 42.05 64.3 43.15 63.95 43.05 63.65 43.05 62.15 43.05 61.35 43.65 60.55 44.3 60.55 45.35 60.55 46.3 61.1 46.8 61.7 47.3 62.7 47.3 63.25 47.3 63.75 47.1 64.25 46.9 64.45 46.55 64.5 46.85 64.75 47.1 65.05 47.3 65.35 47.3 65.65 47.3 65.85 47.25 66.05 47.15 66.25 46.85 65.75 46.55 65.75 45.3
L 65.75 43.95
Q 65.75 42.1 65.1 41.45 64.4 40.8 63 40.8
M 64.3 44.25
L 64.3 44.85
Q 64.3 46.15 62.95 46.15 62 46.15 62 45.3 62 44.15 63.75 44.15 63.9 44.15 64.3 44.25
M 69.2 42.5
Q 69.6 42.05 70.1 42.05 70.6 42.05 70.95 42.3
L 71.6 41.05
Q 71.2 40.8 70.45 40.8 69.4 40.8 68.8 41.5
L 68.8 40.9 67.35 40.9 67.35 47.2 68.8 47.2 68.8 43.65
Q 68.8 42.95 69.2 42.5
M 54.7 41.25
Q 53.8 40.8 52.85 40.8 51.85 40.8 51.25 41.25 50.65 41.7 50.65 42.55 50.65 43.75 52.25 44.4 53 44.75 53.25 44.95 53.5 45.2 53.5 45.55 53.5 46.15 52.65 46.15 51.85 46.15 51.2 45.65
L 50.65 46.8
Q 51.25 47.1 51.65 47.2 52 47.3 52.65 47.3 53.75 47.3 54.4 46.8 55.05 46.3 55.05 45.45 55.05 44.8 54.65 44.3 54.3 43.85 53.5 43.55 52.65 43.2 52.4 43 52.15 42.8 52.15 42.6 52.15 41.95 52.9 41.95 53.8 41.95 54.25 42.4
L 54.7 41.25
M 57.9 39.1
L 56.4 39.65 56.4 40.9 55.7 40.9 55.7 42.1 56.4 42.1 56.4 45.3
Q 56.4 46.25 56.9 46.8 57.4 47.3 58.35 47.3 59.3 47.3 59.8 47.15
L 59.8 45.8
Q 59.35 46.1 58.85 46.1 58.3 46.1 58.1 45.8 57.9 45.5 57.9 44.85
L 57.9 42.1 59.6 42.1 59.6 40.9 57.9 40.9 57.9 39.1
M 49.05 41.6
Q 48.2 40.8 46.85 40.8 45.55 40.8 44.65 41.75 43.75 42.65 43.75 44.15 43.75 45.65 44.55 46.5 45.4 47.3 46.85 47.3 48.35 47.3 49.15 46.7
L 48.6 45.55
Q 48.05 46.1 47.05 46.1 46.25 46.1 45.8 45.7 45.3 45.25 45.25 44.5
L 49.75 44.5
Q 49.85 43.95 49.85 43.7 49.85 42.45 49.05 41.6
M 48.4 43.4
L 45.3 43.4
Q 45.6 42.05 46.85 42.05 48.25 42.05 48.4 43.4
M 47 30.3
L 47 28.95
Q 47 27.1 46.35 26.45 45.65 25.8 44.25 25.8 43.2 25.8 42.45 26.15
L 42.75 27.3
Q 43.3 27.05 44.15 27.05 45.55 27.05 45.55 28.15 45.2 28.05 44.9 28.05 43.4 28.05 42.6 28.65 41.8 29.3 41.8 30.35 41.8 31.3 42.35 31.8 42.95 32.3 43.95 32.3 44.5 32.3 45 32.1 45.5 31.9 45.7 31.55 45.75 31.85 46 32.1 46.3 32.3 46.6 32.3 46.9 32.3 47.1 32.25 47.3 32.15 47.5 31.85 47 31.55 47 30.3
M 45.55 29.25
L 45.55 29.85
Q 45.55 31.15 44.2 31.15 43.25 31.15 43.25 30.3 43.25 29.15 45 29.15 45.15 29.15 45.55 29.25
M 48.2 27.15
L 49 27.15 49 32.2 50.45 32.2 50.45 25.9 48.2 25.9 48.2 27.15
M 57.8 25.9
L 56.1 25.9 54.65 27.85 53.3 25.9 51.6 25.9 53.85 29 51.45 32.2 53.15 32.2 54.6 30.15 56.2 32.2 58 32.2 55.35 29 57.8 25.9
M 59.25 28.65
Q 58.45 29.3 58.45 30.35 58.45 31.3 59 31.8 59.6 32.3 60.6 32.3 61.15 32.3 61.65 32.1 62.15 31.9 62.35 31.55 62.4 31.85 62.65 32.1 62.95 32.3 63.25 32.3 63.55 32.3 63.75 32.25 63.95 32.15 64.15 31.85 63.65 31.55 63.65 30.3
L 63.65 28.95
Q 63.65 27.1 63 26.45 62.3 25.8 60.9 25.8 59.85 25.8 59.1 26.15
L 59.4 27.3
Q 59.95 27.05 60.8 27.05 62.2 27.05 62.2 28.15 61.85 28.05 61.55 28.05 60.05 28.05 59.25 28.65
M 61.65 29.15
Q 61.8 29.15 62.2 29.25
L 62.2 29.85
Q 62.2 31.15 60.85 31.15 59.9 31.15 59.9 30.3 59.9 29.15 61.65 29.15
M 49.75 23.5
Q 49.4 23.5 49.15 23.75 48.9 24 48.9 24.35 48.9 24.7 49.15 24.95 49.4 25.2 49.75 25.2 50.1 25.2 50.35 24.95 50.6 24.7 50.6 24.35 50.6 24 50.35 23.75 50.1 23.5 49.75 23.5
M 74.35 23.25
L 72.9 23.6 72.9 26.1
Q 72.3 25.8 71.6 25.8 70.3 25.8 69.4 26.75 68.55 27.7 68.55 29.15 68.55 30.65 69.3 31.5 70.05 32.3 71.35 32.3 71.85 32.3 72.25 32.15 72.7 32 72.9 31.8
L 72.9 32.2 74.35 32.2 74.35 23.25
M 71.9 27.05
Q 72.4 27.05 72.9 27.4
L 72.9 30.7
Q 72.8 30.85 72.5 30.95 72.15 31.1 71.95 31.1 70.05 31.1 70.05 29.1 70.05 28.1 70.55 27.6 71 27.05 71.9 27.05
M 78.2 24.5
Q 78.2 23.95 77.95 23.65 77.7 23.35 77.2 23.35 76.25 23.35 76.25 24.3 76.25 24.65 76.55 24.9 76.85 25.2 76.85 25.45 76.85 25.65 76.7 25.85 76.6 26.05 76.05 26.5
L 76.55 27.15
Q 78.2 26.1 78.2 24.5
M 81.25 79.65
L 81.25 70.9 80.3 70.9 80.05 71.3
Q 79.4 70.8 78.55 70.8 77.15 70.8 76.3 71.7 75.4 72.6 75.4 74.1 75.4 75.65 76.15 76.5 76.95 77.3 78.3 77.3 79.25 77.3 79.75 77
L 79.75 79.65 81.25 79.65
M 78.75 72.05
Q 79.4 72.05 79.75 72.4
L 79.75 75.8
Q 79.35 76.1 78.7 76.1 76.9 76.1 76.9 74.1 76.9 73.2 77.4 72.6 77.9 72.05 78.75 72.05
M 111.55 77.2
Q 111.9 76.85 111.9 76.45 111.9 76 111.55 75.7 111.25 75.4 110.8 75.4 110.4 75.4 110.1 75.7 109.75 76 109.75 76.45 109.75 76.85 110.1 77.2 110.4 77.5 110.8 77.5 111.25 77.5 111.55 77.2
M 100.25 71.1
Q 99.65 70.8 98.95 70.8 97.65 70.8 96.75 71.75 95.9 72.7 95.9 74.15 95.9 75.65 96.65 76.5 97.4 77.3 98.7 77.3 99.2 77.3 99.6 77.15 100.05 77 100.25 76.8
L 100.25 77.2 101.7 77.2 101.7 68.25 100.25 68.6 100.25 71.1
M 97.9 72.6
Q 98.35 72.05 99.25 72.05 99.75 72.05 100.25 72.4
L 100.25 75.7
Q 100.15 75.85 99.85 75.95 99.5 76.1 99.3 76.1 97.4 76.1 97.4 74.1 97.4 73.1 97.9 72.6
M 88.2 70.9
L 86.75 70.9 86.75 75.25
Q 86.6 75.6 86.15 75.85 85.75 76.1 85.25 76.1 84.15 76.1 84.15 74.9
L 84.15 70.9 82.7 70.9 82.7 75
Q 82.7 77.3 84.9 77.3 85.35 77.3 85.9 77.15 86.4 76.95 86.75 76.7
L 86.75 77.2 88.2 77.2 88.2 70.9
M 90.05 71.15
L 90.35 72.3
Q 90.9 72.05 91.75 72.05 93.15 72.05 93.15 73.15 92.8 73.05 92.5 73.05 91 73.05 90.2 73.65 89.4 74.3 89.4 75.35 89.4 76.3 89.95 76.8 90.55 77.3 91.55 77.3 92.1 77.3 92.6 77.1 93.1 76.9 93.3 76.55 93.35 76.85 93.6 77.1 93.9 77.3 94.2 77.3 94.5 77.3 94.7 77.25 94.9 77.15 95.1 76.85 94.6 76.55 94.6 75.3
L 94.6 73.95
Q 94.6 72.1 93.95 71.45 93.25 70.8 91.85 70.8 90.8 70.8 90.05 71.15
M 93.15 74.85
Q 93.15 76.15 91.8 76.15 90.85 76.15 90.85 75.3 90.85 74.15 92.6 74.15 92.75 74.15 93.15 74.25
L 93.15 74.85
M 83.8 56.65
Q 83.05 55.8 81.6 55.8 80.25 55.8 79.4 56.7 78.6 57.6 78.6 59.05 78.6 60.55 79.4 61.45 80.15 62.3 81.6 62.3 83 62.3 83.8 61.45 84.6 60.55 84.6 59.05 84.6 57.55 83.8 56.65
M 82.7 60.6
Q 82.3 61.1 81.6 61.1 80.1 61.1 80.1 59.05 80.1 58.1 80.5 57.55 80.9 57 81.6 57 83.1 57 83.1 59.05 83.1 60.05 82.7 60.6
M 91.95 57.05
Q 93.05 57.05 93.05 58.25
L 93.05 62.2 94.5 62.2 94.5 58.05
Q 94.5 57 93.95 56.4 93.35 55.8 92.3 55.8 91.8 55.8 91.3 56 90.85 56.2 90.55 56.5 89.9 55.8 88.65 55.8 87.7 55.8 87.1 56.5
L 86.8 55.9 85.8 55.9 85.8 62.2 87.25 62.2 87.25 57.7
Q 87.4 57.45 87.75 57.25 88.05 57.05 88.35 57.05 88.85 57.05 89.15 57.3 89.4 57.6 89.4 58.05
L 89.4 62.2 90.9 62.2 90.9 57.65
Q 91 57.4 91.3 57.25 91.6 57.05 91.95 57.05
M 103.7 72.3
Q 104.25 72.05 105.1 72.05 106.5 72.05 106.5 73.15 106.15 73.05 105.85 73.05 104.35 73.05 103.55 73.65 102.75 74.3 102.75 75.35 102.75 76.3 103.3 76.8 103.9 77.3 104.9 77.3 105.45 77.3 105.95 77.1 106.45 76.9 106.65 76.55 106.7 76.85 106.95 77.1 107.25 77.3 107.55 77.3 107.85 77.3 108.05 77.25 108.25 77.15 108.45 76.85 107.95 76.55 107.95 75.3
L 107.95 73.95
Q 107.95 72.1 107.3 71.45 106.6 70.8 105.2 70.8 104.15 70.8 103.4 71.15
L 103.7 72.3
M 106.5 74.25
L 106.5 74.85
Q 106.5 76.15 105.15 76.15 104.2 76.15 104.2 75.3 104.2 74.15 105.95 74.15 106.1 74.15 106.5 74.25
M 101.65 57.05
Q 103.05 57.05 103.05 58.15 102.7 58.05 102.4 58.05 100.9 58.05 100.1 58.65 99.3 59.3 99.3 60.35 99.3 61.3 99.85 61.8 100.45 62.3 101.45 62.3 102 62.3 102.5 62.1 103 61.9 103.2 61.55 103.25 61.85 103.5 62.1 103.8 62.3 104.1 62.3 104.4 62.3 104.6 62.25 104.8 62.15 105 61.85 104.5 61.55 104.5 60.3
L 104.5 58.95
Q 104.5 57.1 103.85 56.45 103.15 55.8 101.75 55.8 100.7 55.8 99.95 56.15
L 100.25 57.3
Q 100.8 57.05 101.65 57.05
M 103.05 59.25
L 103.05 59.85
Q 103.05 61.15 101.7 61.15 100.75 61.15 100.75 60.3 100.75 59.15 102.5 59.15 102.65 59.15 103.05 59.25
M 110.2 44.15
Q 110.2 45.65 111 46.5 111.85 47.3 113.3 47.3 114.8 47.3 115.6 46.7
L 115.05 45.55
Q 114.5 46.1 113.5 46.1 112.7 46.1 112.25 45.7 111.75 45.25 111.7 44.5
L 116.2 44.5
Q 116.3 43.95 116.3 43.7 116.3 42.45 115.5 41.6 114.65 40.8 113.3 40.8 112 40.8 111.1 41.75 110.2 42.65 110.2 44.15
M 114.85 43.4
L 111.75 43.4
Q 112.05 42.05 113.3 42.05 114.7 42.05 114.85 43.4
M 108.55 40.8
Q 107.5 40.8 106.9 41.5
L 106.9 40.9 105.45 40.9 105.45 47.2 106.9 47.2 106.9 43.65
Q 106.9 42.95 107.3 42.5 107.7 42.05 108.2 42.05 108.7 42.05 109.05 42.3
L 109.7 41.05
Q 109.3 40.8 108.55 40.8
M 101.15 40.8
Q 100.35 40.8 99.8 41.35
L 99.8 40.9 98.3 40.9 98.3 49.65 99.8 49.65 99.8 47.05
Q 100.35 47.3 101.05 47.3 102.5 47.3 103.3 46.5 104.15 45.65 104.15 44.1 104.15 40.8 101.15 40.8
M 99.8 42.45
Q 100.2 42.05 100.75 42.05 101.75 42.05 102.2 42.5 102.6 42.95 102.6 44.05 102.6 45.1 102.2 45.6 101.75 46.1 100.7 46.1 100.2 46.1 99.8 45.75
L 99.8 42.45
M 83.95 40.8
Q 82.65 40.8 81.75 41.75 80.85 42.65 80.85 44.15 80.85 45.65 81.65 46.5 82.5 47.3 83.95 47.3 85.45 47.3 86.25 46.7
L 85.7 45.55
Q 85.15 46.1 84.15 46.1 83.35 46.1 82.9 45.7 82.4 45.25 82.35 44.5
L 86.85 44.5
Q 86.95 43.95 86.95 43.7 86.95 42.45 86.15 41.6 85.3 40.8 83.95 40.8
M 85.5 43.4
L 82.4 43.4
Q 82.7 42.05 83.95 42.05 85.35 42.05 85.5 43.4
M 91 40.8
Q 90.05 40.8 89.45 41.5
L 89.15 40.9 88.15 40.9 88.15 47.2 89.6 47.2 89.6 42.7
Q 89.75 42.45 90.1 42.25 90.4 42.05 90.7 42.05 91.2 42.05 91.5 42.3 91.75 42.6 91.75 43.05
L 91.75 47.2 93.25 47.2 93.25 42.65
Q 93.35 42.4 93.65 42.25 93.95 42.05 94.3 42.05 95.4 42.05 95.4 43.25
L 95.4 47.2 96.85 47.2 96.85 43.05
Q 96.85 42 96.3 41.4 95.7 40.8 94.65 40.8 94.15 40.8 93.65 41 93.2 41.2 92.9 41.5 92.25 40.8 91 40.8
M 85 30.3
L 85 28.95
Q 85 27.1 84.35 26.45 83.65 25.8 82.25 25.8 81.2 25.8 80.45 26.15
L 80.75 27.3
Q 81.3 27.05 82.15 27.05 83.55 27.05 83.55 28.15 83.2 28.05 82.9 28.05 81.4 28.05 80.6 28.65 79.8 29.3 79.8 30.35 79.8 31.3 80.35 31.8 80.95 32.3 81.95 32.3 82.5 32.3 83 32.1 83.5 31.9 83.7 31.55 83.75 31.85 84 32.1 84.3 32.3 84.6 32.3 84.9 32.3 85.1 32.25 85.3 32.15 85.5 31.85 85 31.55 85 30.3
M 81.25 30.3
Q 81.25 29.15 83 29.15 83.15 29.15 83.55 29.25
L 83.55 29.85
Q 83.55 31.15 82.2 31.15 81.25 31.15 81.25 30.3
M 90.65 25.45
L 90.05 26.1
Q 89.5 25.8 88.65 25.8 87.55 25.8 86.85 26.45 86.1 27.1 86.1 28.1 86.1 29.4 87.15 30.1 86.85 30.25 86.6 30.55 86.35 30.85 86.35 31.15 86.35 32.25 87.85 32.25 88.1 32.25 88.55 32.15 89.05 32.1 89.3 32.1 90.2 32.1 90.2 32.65 90.2 33 89.8 33.2 89.4 33.35 88.75 33.35 87.8 33.35 87.05 32.65
L 86.1 33.8
Q 87.3 34.65 88.75 34.65 89.95 34.65 90.8 34.1 91.65 33.6 91.65 32.65 91.65 30.9 89.5 30.9 89.2 30.9 88.8 31 88.35 31.1 88.15 31.1 87.75 31.1 87.75 30.85 87.75 30.7 88.05 30.6 88.3 30.45 88.35 30.45
L 88.6 30.5
Q 88.85 30.55 89 30.55 90 30.55 90.65 29.9 91.3 29.25 91.3 28.15 91.3 27.4 90.95 26.85
L 91.65 26.35 90.65 25.45
M 88.7 27
Q 89.2 27 89.5 27.35 89.8 27.65 89.8 28.15 89.8 28.7 89.55 29.05 89.25 29.35 88.7 29.35 88.2 29.35 87.9 29 87.6 28.7 87.6 28.15 87.6 27.65 87.9 27.3 88.2 27 88.7 27
M 98.1 25.9
L 96.65 25.9 96.65 30.25
Q 96.5 30.6 96.05 30.85 95.65 31.1 95.15 31.1 94.05 31.1 94.05 29.9
L 94.05 25.9 92.6 25.9 92.6 30
Q 92.6 32.3 94.8 32.3 95.25 32.3 95.8 32.15 96.3 31.95 96.65 31.7
L 96.65 32.2 98.1 32.2 98.1 25.9
M 100.1 28.65
Q 99.3 29.3 99.3 30.35 99.3 31.3 99.85 31.8 100.45 32.3 101.45 32.3 102 32.3 102.5 32.1 103 31.9 103.2 31.55 103.25 31.85 103.5 32.1 103.8 32.3 104.1 32.3 104.4 32.3 104.6 32.25 104.8 32.15 105 31.85 104.5 31.55 104.5 30.3
L 104.5 28.95
Q 104.5 27.1 103.85 26.45 103.15 25.8 101.75 25.8 100.7 25.8 99.95 26.15
L 100.25 27.3
Q 100.8 27.05 101.65 27.05 103.05 27.05 103.05 28.15 102.7 28.05 102.4 28.05 100.9 28.05 100.1 28.65
M 103.05 29.25
L 103.05 29.85
Q 103.05 31.15 101.7 31.15 100.75 31.15 100.75 30.3 100.75 29.15 102.5 29.15 102.65 29.15 103.05 29.25
M 84 23.35
L 82.55 23.35 81.55 25.1 82.7 25.1 84 23.35 Z"/>
</g>

<path id="Layer0_0_1_STROKES" stroke="#8CA8B8" stroke-width="1" stroke-linejoin="round" stroke-linecap="round" fill="none" d="
M 118.8 0.4
Q 122.9 0.4 125.8 3.35 128.75 6.25 128.75 10.35
L 128.75 91.95
Q 128.65 95.9 125.8 98.7 122.9 101.65 118.8 101.65
L 10.15 101.65
Q 6.05 101.65 3.15 98.7 0.35 95.9 0.25 91.95
L 0.25 10.35
Q 0.25 6.25 3.15 3.35 6.05 0.4 10.15 0.4
L 118.75 0.4"/>
</defs>

<g transform="matrix( 1, 0, 0, 1, 0,0) ">
<use xlink:href="#Layer0_0_FILL"/>

<use xlink:href="#Layer0_0_1_STROKES"/>
</g>

<g transform="matrix( 1, 0, 0, 1, 0,0) ">
<use xlink:href="#Layer0_0_MEMBER_0_FILL"/>
</g>
</svg>
