<svg xmlns="http://www.w3.org/2000/svg" xmlns:xlink="http://www.w3.org/1999/xlink" preserveAspectRatio="none" width="133" height="106" viewBox="0 0 133 106"><defs><g id="a"><path fill="#FFF" d="M701.75 312.8q-2.9-2.95-7-2.95H586.1q-4.1 0-7 2.95-2.9 2.9-2.9 7v81.6q.1 3.95 2.9 6.75 2.9 2.95 7 2.95h108.65q4.1 0 7-2.95 2.85-2.8 2.95-6.75v-81.6q0-4.1-2.95-7m-10 10q2.95 2.9 2.95 7v66.7h-.55q-.75 2-2.4 3.65-2.9 2.95-7 2.95H596.1q-4.1 0-7-2.95-1.65-1.65-2.35-3.65h-.55v-66.7q0-4.1 2.9-7 2.9-2.95 7-2.95h88.65q4.1 0 7 2.95z"/><path fill="#0CC" d="M694.7 329.8q0-4.1-2.95-7-2.9-2.95-7-2.95H596.1q-4.1 0-7 2.95-2.9 2.9-2.9 7v66.7h.55q.7 2 2.35 3.65 2.9 2.95 7 2.95h88.65q4.1 0 7-2.95 1.65-1.65 2.4-3.65h.55v-66.7m-103.1 5.85h.65l3.15 8h-1.55l-.6-1.6h-2.65l-.55 1.6h-1.55l3.1-8m12.35 2.7l-.6 1q-.45-.45-1.25-.45-.75 0-1.2.5-.45.55-.45 1.4 0 1.85 1.7 1.85.75 0 1.35-.5l.5 1.05q-.6.35-1.05.45-.45.1-1.05.1-1.3 0-2.1-.75-.75-.8-.75-2.2 0-1.35.85-2.15.85-.85 2.3-.85 1 0 1.75.55m3.65 1.5q.2 0 .55.1 0-1.05-1.3-1.05-.75 0-1.25.25l-.3-1.05q.7-.3 1.65-.3 1.3 0 1.9.6.65.6.65 2.25v1.25q0 1.15.45 1.45-.15.25-.35.35-.25.05-.5.05-.3 0-.5-.2-.25-.2-.3-.45-.2.3-.65.45-.45.2-.95.2-.95 0-1.45-.45-.55-.45-.55-1.35 0-.95.75-1.55.75-.55 2.15-.55m4.4-4.2q.3 0 .55.25.2.25.2.55 0 .3-.2.55-.25.25-.55.25-.35 0-.55-.25-.25-.25-.25-.55 0-.3.25-.55.2-.25.55-.25m-1.45 3.35v-1.1h2.1v5.75h-1.35V339h-.75m4.7-1.1l1.2 1.75 1.35-1.75h1.55l-2.2 2.8 2.4 2.95h-1.65l-1.45-1.85-1.35 1.85h-1.55l2.2-2.95-2.05-2.8h1.55m7.55 1.95q.2 0 .55.1 0-1.05-1.3-1.05-.75 0-1.25.25l-.3-1.05q.7-.3 1.65-.3 1.3 0 1.9.6.65.6.65 2.25v1.25q0 1.15.45 1.45-.15.25-.35.35-.25.05-.5.05-.3 0-.5-.2-.25-.2-.3-.45-.2.3-.65.45-.45.2-.95.2-.95 0-1.45-.45-.55-.45-.55-1.35 0-.95.75-1.55.75-.55 2.15-.55m10.35-1.8v-2.3l1.3-.3v8.2h-1.3v-.35q-.2.2-.6.3-.4.15-.8.15-1.2 0-1.9-.75t-.7-2.15q0-1.35.8-2.2.8-.85 2-.85.65 0 1.2.25m3.3-1.1q-.25-.25-.25-.55 0-.85.85-.85.45 0 .7.25.25.3.25.75 0 1.5-1.55 2.45l-.45-.6q.5-.4.6-.55.15-.2.15-.4t-.3-.5m4.65.15l.9-1.55h1.35l-1.25 1.55h-1m-1.05 1q.7-.3 1.65-.3 1.3 0 1.9.6.65.6.65 2.25v1.25q0 1.15.45 1.45-.15.25-.35.35-.25.05-.5.05-.3 0-.5-.2-.25-.2-.3-.45-.2.3-.65.45-.45.2-.95.2-.95 0-1.45-.45-.55-.45-.55-1.35 0-.95.75-1.55.75-.55 2.15-.55.2 0 .55.1 0-1.05-1.3-1.05-.75 0-1.25.25l-.3-1.05m8.8-.05l.55-.6.9.85-.65.45q.35.5.35 1.2 0 1-.6 1.6-.6.55-1.5.55h-.4l-.2-.05q-.05 0-.3.15-.25.1-.25.2 0 .25.35.25.2 0 .6-.1.35-.1.65-.1 1.95 0 1.95 1.6 0 .85-.75 1.35-.8.5-1.9.5-1.35 0-2.4-.75l.85-1.05q.7.6 1.55.6.6 0 .95-.15.4-.15.4-.45 0-.55-.85-.55-.2 0-.65.05-.45.1-.7.1-1.35 0-1.35-1 0-.3.2-.6.25-.25.55-.4-1-.6-1-1.8 0-.9.7-1.5.65-.6 1.65-.6.8 0 1.3.25m40.45 4.1l.5 1.05q-.7.55-2.1.55-1.3 0-2.1-.75-.75-.8-.75-2.15 0-1.35.85-2.2.85-.85 2-.85 1.25 0 2 .75t.75 1.9q0 .25-.1.75h-4.1q.05.65.45 1.05.45.4 1.2.4.9 0 1.4-.5m-34.4-4.25h1.3v5.75h-1.3v-.5q-.3.25-.8.45-.5.15-.9.15-2 0-2-2.1v-3.75h1.3v3.65q0 1.1 1 1.1.45 0 .85-.25.4-.25.55-.55v-3.95m2.95 5.4q-.55-.45-.55-1.35 0-.95.75-1.55.75-.55 2.15-.55.2 0 .55.1 0-1.05-1.3-1.05-.75 0-1.25.25l-.3-1.05q.7-.3 1.65-.3 1.3 0 1.9.6.65.6.65 2.25v1.25q0 1.15.45 1.45-.15.25-.35.35-.25.05-.5.05-.3 0-.5-.2-.25-.2-.3-.45-.2.3-.65.45-.45.2-.95.2-.95 0-1.45-.45m9.4-.3q-.7-.75-.7-2.15 0-1.35.8-2.2.8-.85 2-.85.65 0 1.2.25v-2.3l1.3-.3v8.2h-1.3v-.35q-.2.2-.6.3-.4.15-.8.15-1.2 0-1.9-.75m8.4-5.2q1.25 0 2 .75t.75 1.9q0 .25-.1.75h-4.1q.05.65.45 1.05.45.4 1.2.4.9 0 1.4-.5l.5 1.05q-.7.55-2.1.55-1.3 0-2.1-.75-.75-.8-.75-2.15 0-1.35.85-2.2.85-.85 2-.85m3.15.1h1.45l1.35 3.5 1.5-3.5h1.4l-2.65 5.85h-.45l-2.6-5.85m-71.6 18.9q-.75-.8-.75-2.15 0-1.35.85-2.2.85-.85 2-.85 1.25 0 2 .75t.75 1.9q0 .25-.1.75h-4.1q.05.65.45 1.05.45.4 1.2.4.9 0 1.4-.5l.5 1.05q-.7.55-2.1.55-1.3 0-2.1-.75m16.9-5.2q1.3 0 1.9.6.65.6.65 2.25v1.25q0 1.15.45 1.45-.15.25-.35.35-.25.05-.5.05-.3 0-.5-.2-.25-.2-.3-.45-.2.3-.65.45-.45.2-.95.2-.95 0-1.45-.45-.55-.45-.55-1.35 0-.95.75-1.55.75-.55 2.15-.55.2 0 .55.1 0-1.05-1.3-1.05-.75 0-1.25.25l-.3-1.05q.7-.3 1.65-.3m-6 .1v-1.15l1.3-.5v1.65h1.6v1.1h-1.6v2.5q0 .6.2.85t.7.25q.5 0 .9-.25v1.25q-.45.15-1.35.15-.85 0-1.3-.5-.45-.45-.45-1.35v-2.9h-.7v-1.1h.7m-3.35-.1q.9 0 1.7.4l-.4 1.05q-.4-.4-1.2-.4-.7 0-.7.55 0 .25.25.4.2.2.95.5t1.1.7q.35.45.35 1.05 0 .8-.6 1.25-.6.45-1.6.45-.6 0-.95-.1t-.9-.35l.5-1.1q.6.5 1.35.5.8 0 .8-.55 0-.35-.25-.55-.25-.2-.9-.5-1.5-.6-1.5-1.75 0-.75.55-1.15.6-.4 1.45-.4m55.35 0q1.25 0 2 .75t.75 1.9q0 .25-.1.75h-4.1q.05.65.45 1.05.45.4 1.2.4.9 0 1.4-.5l.5 1.05q-.7.55-2.1.55-1.3 0-2.1-.75-.75-.8-.75-2.15 0-1.35.85-2.2.85-.85 2-.85m-5.85.1v.5q.6-.6 1.5-.6.7 0 1.05.2l-.55 1.15q-.35-.25-.8-.25-.45 0-.8.45-.4.4-.4 1v3.3h-1.3v-5.75h1.3m-3.2 5.1q-.75.75-2.1.75-.6 0-1.15-.25v2.4h-1.35v-8h1.35v.4q.5-.5 1.25-.5 2.75 0 2.75 3 0 1.45-.75 2.2m-7.95-5.2q.95 0 1.5.55t.55 1.5v3.8h-1.35v-3.6q0-1.15-1.05-1.15-.3 0-.55.2-.3.15-.4.4v4.15h-1.35v-3.8q0-.45-.25-.7-.25-.25-.75-.25-.25 0-.55.2-.3.2-.45.4v4.15h-1.3v-5.75h.9l.25.5q.6-.6 1.45-.6 1.15 0 1.75.6.25-.25.7-.45.45-.15.9-.15m-46.3 11.75l-.4 1q-.45-.15-.7-.15-.4 0-.65.35t-.25.8v.15h1.2v1.1h-1.2v4.65h-1.3v-4.65h-.85v-1.1h.85q0-1.05.6-1.7.6-.65 1.5-.65.5 0 1.2.2m36.5-11.75q1.25 0 2 .75t.75 1.9q0 .25-.1.75h-4.1q.05.65.45 1.05.45.4 1.2.4.9 0 1.4-.5l.5 1.05q-.7.55-2.1.55-1.3 0-2.1-.75-.75-.8-.75-2.15 0-1.35.85-2.2.85-.85 2-.85m-3.55 4.25q0 .8-.6 1.25-.6.45-1.6.45-.6 0-.95-.1t-.9-.35l.5-1.1q.6.5 1.35.5.8 0 .8-.55 0-.35-.25-.55-.25-.2-.9-.5-1.5-.6-1.5-1.75 0-.75.55-1.15.6-.4 1.45-.4.9 0 1.7.4l-.4 1.05q-.4-.4-1.2-.4-.7 0-.7.55 0 .25.25.4.2.2.95.5t1.1.7q.35.45.35 1.05m-8.85-4.25q.7 0 1.05.2l-.55 1.15q-.35-.25-.8-.25-.45 0-.8.45-.4.4-.4 1v3.3h-1.3v-5.75h1.3v.5q.6-.6 1.5-.6m-19.2 14.55q.75.75.75 1.9 0 .25-.1.75h-4.1q.05.65.45 1.05.45.4 1.2.4.9 0 1.4-.5l.5 1.05q-.7.55-2.1.55-1.3 0-2.1-.75-.75-.8-.75-2.15 0-1.35.85-2.2.85-.85 2-.85 1.25 0 2 .75m1.45 2.25q0-1.35.85-2.15.85-.85 2.3-.85 1 0 1.75.55l-.6 1q-.45-.45-1.25-.45-.75 0-1.2.5-.45.55-.45 1.4 0 1.85 1.7 1.85.75 0 1.35-.5l.5 1.05q-.6.35-1.05.45-.45.1-1.05.1-1.3 0-2.1-.75-.75-.8-.75-2.2m58.15 1.15q0-.95.75-1.55.75-.55 2.15-.55.2 0 .55.1 0-1.05-1.3-1.05-.75 0-1.25.25l-.3-1.05q.7-.3 1.65-.3 1.3 0 1.9.6.65.6.65 2.25v1.25q0 1.15.45 1.45-.15.25-.35.35-.25.05-.5.05-.3 0-.5-.2-.25-.2-.3-.45-.2.3-.65.45-.45.2-.95.2-.95 0-1.45-.45-.55-.45-.55-1.35m-19.75-3.6l-.6 1q-.45-.45-1.25-.45-.75 0-1.2.5-.45.55-.45 1.4 0 1.85 1.7 1.85.75 0 1.35-.5l.5 1.05q-.6.35-1.05.45-.45.1-1.05.1-1.3 0-2.1-.75-.75-.8-.75-2.2 0-1.35.85-2.15.85-.85 2.3-.85 1 0 1.75.55m1.5 4.6q-.75-.85-.75-2.2 0-1.3.75-2.15.75-.8 2-.8 1.35 0 2.05.8.75.8.75 2.15 0 1.4-.75 2.2-.75.8-2.05.8-1.3 0-2-.8m7.05-4.55q.6-.6 1.45-.6 1.15 0 1.75.6.25-.25.7-.45.45-.15.9-.15.95 0 1.5.55t.55 1.5v3.8h-1.35v-3.6q0-1.15-1.05-1.15-.3 0-.55.2-.3.15-.4.4v4.15h-1.35v-3.8q0-.45-.25-.7-.25-.25-.75-.25-.25 0-.55.2-.3.2-.45.4v4.15h-1.3v-5.75h.9l.25.5m-24.85-2.65l1.3-.3v8.2h-1.3v-.35q-.2.2-.6.3-.4.15-.8.15-1.2 0-1.9-.75t-.7-2.15q0-1.35.8-2.2.8-.85 2-.85.65 0 1.2.25v-2.3m-7.05 4.1q.2 0 .55.1 0-1.05-1.3-1.05-.75 0-1.25.25l-.3-1.05q.7-.3 1.65-.3 1.3 0 1.9.6.65.6.65 2.25v1.25q0 1.15.45 1.45-.15.25-.35.35-.25.05-.5.05-.3 0-.5-.2-.25-.2-.3-.45-.2.3-.65.45-.45.2-.95.2-.95 0-1.45-.45-.55-.45-.55-1.35 0-.95.75-1.55.75-.55 2.15-.55m9.9-1.75q.7-.3 1.65-.3 1.3 0 1.9.6.65.6.65 2.25v1.25q0 1.15.45 1.45-.15.25-.35.35-.25.05-.5.05-.3 0-.5-.2-.25-.2-.3-.45-.2.3-.65.45-.45.2-.95.2-.95 0-1.45-.45-.55-.45-.55-1.35 0-.95.75-1.55.75-.55 2.15-.55.2 0 .55.1 0-1.05-1.3-1.05-.75 0-1.25.25l-.3-1.05m-18.9-2.35l1.35-.3v2.8q.5-.45 1.4-.45 1.1 0 1.7.6.6.6.6 1.7v3.55h-1.35v-3.55q0-.55-.35-.85-.3-.3-.85-.3-.35 0-.7.15-.3.2-.45.4v4.15h-1.35v-7.9m29.45 18.5q0 .25-.1.75h-4.1q.05.65.45 1.05.45.4 1.2.4.9 0 1.4-.5l.5 1.05q-.7.55-2.1.55-1.3 0-2.1-.75-.75-.8-.75-2.15 0-1.35.85-2.2.85-.85 2-.85 1.25 0 2 .75t.75 1.9m-48-2.35q.7-.3 1.65-.3 1.3 0 1.9.6.65.6.65 2.25v1.25q0 1.15.45 1.45-.15.25-.35.35-.25.05-.5.05-.3 0-.5-.2-.25-.2-.3-.45-.2.3-.65.45-.45.2-.95.2-.95 0-1.45-.45-.55-.45-.55-1.35 0-.95.75-1.55.75-.55 2.15-.55.2 0 .55.1 0-1.05-1.3-1.05-.75 0-1.25.25l-.3-1.05m-1.45.9h-1.6v2.5q0 .6.2.85t.7.25q.5 0 .9-.25V385q-.45.15-1.35.15-.85 0-1.3-.5-.45-.45-.45-1.35v-2.9h-.7v-1.1h.7v-1.15l1.3-.5v1.65h1.6v1.1m7.1-1.1h.9l.25.5q.6-.6 1.45-.6 1.15 0 1.75.6.25-.25.7-.45.45-.15.9-.15.95 0 1.5.55t.55 1.5v3.8h-1.35v-3.6q0-1.15-1.05-1.15-.3 0-.55.2-.3.15-.4.4v4.15h-1.35v-3.8q0-.45-.25-.7-.25-.25-.75-.25-.25 0-.55.2-.3.2-.45.4v4.15h-1.3v-5.75m16.3 1.25l-.3-1.05q.7-.3 1.65-.3 1.3 0 1.9.6.65.6.65 2.25v1.25q0 1.15.45 1.45-.15.25-.35.35-.25.05-.5.05-.3 0-.5-.2-.25-.2-.3-.45-.2.3-.65.45-.45.2-.95.2-.95 0-1.45-.45-.55-.45-.55-1.35 0-.95.75-1.55.75-.55 2.15-.55.2 0 .55.1 0-1.05-1.3-1.05-.75 0-1.25.25m-4.4-1.35q2.75 0 2.75 3 0 1.45-.75 2.2-.75.75-2.1.75-.6 0-1.15-.25v2.4h-1.35v-8h1.35v.4q.5-.5 1.25-.5m22.6-2.05l1.3-.3v8.2h-1.3v-.35q-.2.2-.6.3-.4.15-.8.15-1.2 0-1.9-.75t-.7-2.15q0-1.35.8-2.2.8-.85 2-.85.65 0 1.2.25v-2.3m-9.05 3.4l-.3-1.05q.7-.3 1.65-.3 1.3 0 1.9.6.65.6.65 2.25v1.25q0 1.15.45 1.45-.15.25-.35.35-.25.05-.5.05-.3 0-.5-.2-.25-.2-.3-.45-.2.3-.65.45-.45.2-.95.2-.95 0-1.45-.45-.55-.45-.55-1.35 0-.95.75-1.55.75-.55 2.15-.55.2 0 .55.1 0-1.05-1.3-1.05-.75 0-1.25.25m31.35 0l-.3-1.05q.7-.3 1.65-.3 1.3 0 1.9.6.65.6.65 2.25v1.25q0 1.15.45 1.45-.15.25-.35.35-.25.05-.5.05-.3 0-.5-.2-.25-.2-.3-.45-.2.3-.65.45-.45.2-.95.2-.95 0-1.45-.45-.55-.45-.55-1.35 0-.95.75-1.55.75-.55 2.15-.55.2 0 .55.1 0-1.05-1.3-1.05-.75 0-1.25.25m-3.3-1.25h1.3v5.75h-1.3v-.5q-.3.25-.8.45-.5.15-.9.15-2 0-2-2.1v-3.75h1.3v3.65q0 1.1 1 1.1.45 0 .85-.25.4-.25.55-.55v-3.95m-10.35 2.95q0-1.4.8-2.25.85-.8 2.1-.8.75 0 1.35.45l.25-.35h.85v8h-1.35v-2.4q-.45.25-1.3.25-1.3 0-2-.75t-.7-2.15m29.75-.2v1.25q0 1.15.45 1.45-.15.25-.35.35-.25.05-.5.05-.3 0-.5-.2-.25-.2-.3-.45-.2.3-.65.45-.45.2-.95.2-.95 0-1.45-.45-.55-.45-.55-1.35 0-.95.75-1.55.75-.55 2.15-.55.2 0 .55.1 0-1.05-1.3-1.05-.75 0-1.25.25l-.3-1.05q.7-.3 1.65-.3 1.3 0 1.9.6.65.6.65 2.25m-10.25-2q.8-.85 2-.85.65 0 1.2.25v-2.3l1.3-.3v8.2h-1.3v-.35q-.2.2-.6.3-.4.15-.8.15-1.2 0-1.9-.75t-.7-2.15q0-1.35.8-2.2m11.9 4.3q0-.4.25-.7.3-.25.7-.25.4 0 .7.25.25.3.25.7 0 .4-.25.7-.3.25-.7.25-.4 0-.7-.25-.25-.3-.25-.7m-8.7-3.7q-.45-.3-.9-.3-.85 0-1.25.45-.45.5-.45 1.45 0 1.75 1.75 1.75.2 0 .45-.1.3-.1.4-.2v-3.05m5.7 1.7q-.35-.1-.5-.1-1.6 0-1.6 1.05 0 .8.9.8 1.2 0 1.2-1.2v-.55m-25.35-2q-.75 0-1.2.5-.45.5-.45 1.4 0 1.75 1.65 1.75.6 0 .95-.25v-3.1q-.35-.3-.95-.3m13.15 2q-.35-.1-.5-.1-1.6 0-1.6 1.05 0 .8.9.8 1.2 0 1.2-1.2v-.55m-31.35.55v-.55q-.35-.1-.5-.1-1.6 0-1.6 1.05 0 .8.9.8 1.2 0 1.2-1.2m4.35-2.1q-.45.5-.45 1.45 0 1.75 1.75 1.75.2 0 .45-.1.3-.1.4-.2v-3.05q-.45-.3-.9-.3-.85 0-1.25.45m-19.5-.05q-.4-.4-1.35-.4-.45 0-.85.35v3.05q.4.25.85.25.95 0 1.35-.4.4-.45.4-1.4 0-1.05-.4-1.45m5.5 1.5q-1.6 0-1.6 1.05 0 .8.9.8 1.2 0 1.2-1.2v-.55q-.35-.1-.5-.1m-21.15.65v-.55q-.35-.1-.5-.1-1.6 0-1.6 1.05 0 .8.9.8 1.2 0 1.2-1.2m42.45-2.6q-1.15 0-1.45 1.25h2.8q-.1-1.25-1.35-1.25m-7.1-10.8q0 .8.9.8 1.2 0 1.2-1.2v-.55q-.35-.1-.5-.1-1.6 0-1.6 1.05m-10.1-.95q-.35-.1-.5-.1-1.6 0-1.6 1.05 0 .8.9.8 1.2 0 1.2-1.2v-.55m6.5 1.35v-3.05q-.45-.3-.9-.3-.85 0-1.25.45-.45.5-.45 1.45 0 1.75 1.75 1.75.2 0 .45-.1.3-.1.4-.2m19.8-3.4q-.6 0-1 .5-.35.45-.35 1.35 0 1.9 1.35 1.9.65 0 1-.5.4-.5.4-1.4 0-1.85-1.4-1.85m19.7 2.6v-.55q-.35-.1-.5-.1-1.6 0-1.6 1.05 0 .8.9.8 1.2 0 1.2-1.2m-65-2.6q-1.15 0-1.45 1.25h2.8q-.1-1.25-1.35-1.25m34.95-12.55q-.1-1.25-1.35-1.25-1.15 0-1.45 1.25h2.8m15.3-.8q-.4-.4-1.35-.4-.45 0-.85.35v3.05q.4.25.85.25.95 0 1.35-.4.4-.45.4-1.4 0-1.05-.4-1.45m10.15-.45q-1.15 0-1.45 1.25h2.8q-.1-1.25-1.35-1.25m-44.85 2.6v-.55q-.35-.1-.5-.1-1.6 0-1.6 1.05 0 .8.9.8 1.2 0 1.2-1.2m-15.95-2.6q-1.15 0-1.45 1.25h2.8q-.1-1.25-1.35-1.25m66.35-13.8q-1.15 0-1.45 1.25h2.8q-.1-1.25-1.35-1.25m-6.05.05q-.85 0-1.25.45-.45.5-.45 1.45 0 1.75 1.75 1.75.2 0 .45-.1.3-.1.4-.2v-3.05q-.45-.3-.9-.3m-8.9 2.55v-.55q-.35-.1-.5-.1-1.6 0-1.6 1.05 0 .8.9.8 1.2 0 1.2-1.2m27-2.6q-1.15 0-1.45 1.25h2.8q-.1-1.25-1.35-1.25m-39.15 1q0-.4-.25-.7-.3-.3-.7-.3-.5 0-.75.25-.3.3-.3.75 0 .55.25.85.3.3.8.3.45 0 .7-.3.25-.3.25-.85m-5.7 1.05q-.35-.1-.5-.1-1.6 0-1.6 1.05 0 .8.9.8 1.2 0 1.2-1.2v-.55m-10.65-2q-.85 0-1.25.45-.45.5-.45 1.45 0 1.75 1.75 1.75.2 0 .45-.1.3-.1.4-.2v-3.05q-.45-.3-.9-.3m-11 2.95q0 .8.9.8 1.2 0 1.2-1.2v-.55q-.35-.1-.5-.1-1.6 0-1.6 1.05m-13.1-.95q-.35-.1-.5-.1-1.6 0-1.6 1.05 0 .8.9.8 1.2 0 1.2-1.2v-.55m-17.2.05h1.9l-.95-2.9-.95 2.9z"/></g><path d="M631.45 379.5l.3 1.05q.5-.25 1.25-.25 1.3 0 1.3 1.05-.35-.1-.55-.1-1.4 0-2.15.55-.75.6-.75 1.55 0 .9.55 1.35.5.45 1.45.45.5 0 .95-.2.45-.15.65-.45.05.25.3.45.2.2.5.2.25 0 .5-.05.2-.1.35-.35-.45-.3-.45-1.45v-1.25q0-1.65-.65-2.25-.6-.6-1.9-.6-.95 0-1.65.3m2.85 2.85v.55q0 1.2-1.2 1.2-.9 0-.9-.8 0-1.05 1.6-1.05.15 0 .5.1m7.8-5.5l-1.3.3v2.3q-.55-.25-1.2-.25-1.2 0-2 .85t-.8 2.2q0 1.4.7 2.15t1.9.75q.4 0 .8-.15.4-.1.6-.3v.35h1.3v-8.2m-3.9 5.4q0-.95.45-1.45.4-.45 1.25-.45.45 0 .9.3v3.05q-.1.1-.4.2-.25.1-.45.1-1.75 0-1.75-1.75m-17.25-.05q0-3-2.75-3-.75 0-1.25.5v-.4h-1.35v8h1.35v-2.4q.55.25 1.15.25 1.35 0 2.1-.75t.75-2.2m-3.15-1.85q.95 0 1.35.4.4.4.4 1.45 0 .95-.4 1.4-.4.4-1.35.4-.45 0-.85-.25v-3.05q.4-.35.85-.35m4.5-.85l.3 1.05q.5-.25 1.25-.25 1.3 0 1.3 1.05-.35-.1-.55-.1-1.4 0-2.15.55-.75.6-.75 1.55 0 .9.55 1.35.5.45 1.45.45.5 0 .95-.2.45-.15.65-.45.05.25.3.45.2.2.5.2.25 0 .5-.05.2-.1.35-.35-.45-.3-.45-1.45v-1.25q0-1.65-.65-2.25-.6-.6-1.9-.6-.95 0-1.65.3m.75 3.8q0-1.05 1.6-1.05.15 0 .5.1v.55q0 1.2-1.2 1.2-.9 0-.9-.8m-2.5-20.25l-1.35.3v7.9h1.35v-4.15q.15-.2.45-.4.35-.15.7-.15.55 0 .85.3.35.3.35.85v3.55h1.35v-3.55q0-1.1-.6-1.7-.6-.6-1.7-.6-.9 0-1.4.45v-2.8m-6.55 3.2q-.85.8-.85 2.15 0 1.4.75 2.2.8.75 2.1.75.6 0 1.05-.1.45-.1 1.05-.45l-.5-1.05q-.6.5-1.35.5-1.7 0-1.7-1.85 0-.85.45-1.4.45-.5 1.2-.5.8 0 1.25.45l.6-1q-.75-.55-1.75-.55-1.45 0-2.3.85m-1.55 1.8q0-1.15-.75-1.9t-2-.75q-1.15 0-2 .85-.85.85-.85 2.2t.75 2.15q.8.75 2.1.75 1.4 0 2.1-.55l-.5-1.05q-.5.5-1.4.5-.75 0-1.2-.4-.4-.4-.45-1.05h4.1q.1-.5.1-.75m-4.15-.3q.3-1.25 1.45-1.25 1.25 0 1.35 1.25h-2.8m8.15-15.75q-.8-.4-1.7-.4-.85 0-1.45.4-.55.4-.55 1.15 0 1.15 1.5 1.75.65.3.9.5t.25.55q0 .55-.8.55-.75 0-1.35-.5l-.5 1.1q.55.25.9.35.35.1.95.1 1 0 1.6-.45.6-.45.6-1.25 0-.6-.35-1.05-.35-.4-1.1-.7-.75-.3-.95-.5-.25-.15-.25-.4 0-.55.7-.55.8 0 1.2.4l.4-1.05m1.65-1.45v1.15h-.7v1.1h.7v2.9q0 .9.45 1.35.45.5 1.3.5.9 0 1.35-.15v-1.25q-.4.25-.9.25t-.7-.25q-.2-.25-.2-.85v-2.5h1.6v-1.1h-1.6v-1.65l-1.3.5m7.9 1.65q-.6-.6-1.9-.6-.95 0-1.65.3l.3 1.05q.5-.25 1.25-.25 1.3 0 1.3 1.05-.35-.1-.55-.1-1.4 0-2.15.55-.75.6-.75 1.55 0 .9.55 1.35.5.45 1.45.45.5 0 .95-.2.45-.15.65-.45.05.25.3.45.2.2.5.2.25 0 .5-.05.2-.1.35-.35-.45-.3-.45-1.45v-1.25q0-1.65-.65-2.25m-.7 2.55v.55q0 1.2-1.2 1.2-.9 0-.9-.8 0-1.05 1.6-1.05.15 0 .5.1m14.45 10.65q-.95 0-1.65.3l.3 1.05q.5-.25 1.25-.25 1.3 0 1.3 1.05-.35-.1-.55-.1-1.4 0-2.15.55-.75.6-.75 1.55 0 .9.55 1.35.5.45 1.45.45.5 0 .95-.2.45-.15.65-.45.05.25.3.45.2.2.5.2.25 0 .5-.05.2-.1.35-.35-.45-.3-.45-1.45v-1.25q0-1.65-.65-2.25-.6-.6-1.9-.6m0 4.9q-.9 0-.9-.8 0-1.05 1.6-1.05.15 0 .5.1v.55q0 1.2-1.2 1.2m-11-2.75q-.35-.1-.55-.1-1.4 0-2.15.55-.75.6-.75 1.55 0 .9.55 1.35.5.45 1.45.45.5 0 .95-.2.45-.15.65-.45.05.25.3.45.2.2.5.2.25 0 .5-.05.2-.1.35-.35-.45-.3-.45-1.45v-1.25q0-1.65-.65-2.25-.6-.6-1.9-.6-.95 0-1.65.3l.3 1.05q.5-.25 1.25-.25 1.3 0 1.3 1.05m-.5.9q.15 0 .5.1v.55q0 1.2-1.2 1.2-.9 0-.9-.8 0-1.05 1.6-1.05m8.3-5.4l-1.3.3v2.3q-.55-.25-1.2-.25-1.2 0-2 .85t-.8 2.2q0 1.4.7 2.15t1.9.75q.4 0 .8-.15.4-.1.6-.3v.35h1.3v-8.2m-1.3 3.8v3.05q-.1.1-.4.2-.25.1-.45.1-1.75 0-1.75-1.75 0-.95.45-1.45.4-.45 1.25-.45.45 0 .9.3m-3.3-15.05q-.35-.2-1.05-.2-.9 0-1.5.6v-.5h-1.3v5.75h1.3v-3.3q0-.6.4-1 .35-.45.8-.45.45 0 .8.25l.55-1.15m7.2 5.3q.6-.45.6-1.25 0-.6-.35-1.05-.35-.4-1.1-.7-.75-.3-.95-.5-.25-.15-.25-.4 0-.55.7-.55.8 0 1.2.4l.4-1.05q-.8-.4-1.7-.4-.85 0-1.45.4-.55.4-.55 1.15 0 1.15 1.5 1.75.65.3.9.5t.25.55q0 .55-.8.55-.75 0-1.35-.5l-.5 1.1q.55.25.9.35.35.1.95.1 1 0 1.6-.45m6.15-4.75q-.75-.75-2-.75-1.15 0-2 .85-.85.85-.85 2.2t.75 2.15q.8.75 2.1.75 1.4 0 2.1-.55l-.5-1.05q-.5.5-1.4.5-.75 0-1.2-.4-.4-.4-.45-1.05h4.1q.1-.5.1-.75 0-1.15-.75-1.9m-1.95.35q1.25 0 1.35 1.25h-2.8q.3-1.25 1.45-1.25m-36.15 26.6h-.9v5.75h1.3v-4.15q.15-.2.45-.4.3-.2.55-.2.5 0 .75.25t.25.7v3.8h1.35v-4.15q.1-.25.4-.4.25-.2.55-.2 1.05 0 1.05 1.15v3.6h1.35v-3.8q0-.95-.55-1.5t-1.5-.55q-.45 0-.9.15-.45.2-.7.45-.6-.6-1.75-.6-.85 0-1.45.6l-.25-.5m-9.6 1.1h1.6v-1.1h-1.6v-1.65l-1.3.5v1.15h-.7v1.1h.7v2.9q0 .9.45 1.35.45.5 1.3.5.9 0 1.35-.15v-1.25q-.4.25-.9.25t-.7-.25q-.2-.25-.2-.85v-2.5m4.7-1.2q-.95 0-1.65.3l.3 1.05q.5-.25 1.25-.25 1.3 0 1.3 1.05-.35-.1-.55-.1-1.4 0-2.15.55-.75.6-.75 1.55 0 .9.55 1.35.5.45 1.45.45.5 0 .95-.2.45-.15.65-.45.05.25.3.45.2.2.5.2.25 0 .5-.05.2-.1.35-.35-.45-.3-.45-1.45v-1.25q0-1.65-.65-2.25-.6-.6-1.9-.6m1.2 3.15v.55q0 1.2-1.2 1.2-.9 0-.9-.8 0-1.05 1.6-1.05.15 0 .5.1m2.9-18l.4-1q-.7-.2-1.2-.2-.9 0-1.5.65t-.6 1.7h-.85v1.1h.85v4.65h1.3v-4.65h1.2v-1.1h-1.2v-.15q0-.45.25-.8.25-.35.65-.35.25 0 .7.15m.05-9.7q0 1.35.75 2.15.8.75 2.1.75 1.4 0 2.1-.55l-.5-1.05q-.5.5-1.4.5-.75 0-1.2-.4-.4-.4-.45-1.05h4.1q.1-.5.1-.75 0-1.15-.75-1.9t-2-.75q-1.15 0-2 .85-.85.85-.85 2.2m1.45-.7q.3-1.25 1.45-1.25 1.25 0 1.35 1.25h-2.8m-4.55-14.6l.6-1q-.75-.55-1.75-.55-1.45 0-2.3.85-.85.8-.85 2.15 0 1.4.75 2.2.8.75 2.1.75.6 0 1.05-.1.45-.1 1.05-.45l-.5-1.05q-.6.5-1.35.5-1.7 0-1.7-1.85 0-.85.45-1.4.45-.5 1.2-.5.8 0 1.25.45m-11.1-3.7h-.65l-3.1 8h1.55l.55-1.6h2.65l.6 1.6h1.55l-3.15-8m-.35 2.45l.95 2.9h-1.9l.95-2.9m50.1-2.55l-.9 1.55h1l1.25-1.55H642m.9 4.4q-.35-.1-.55-.1-1.4 0-2.15.55-.75.6-.75 1.55 0 .9.55 1.35.5.45 1.45.45.5 0 .95-.2.45-.15.65-.45.05.25.3.45.2.2.5.2.25 0 .5-.05.2-.1.35-.35-.45-.3-.45-1.45v-1.25q0-1.65-.65-2.25-.6-.6-1.9-.6-.95 0-1.65.3l.3 1.05q.5-.25 1.25-.25 1.3 0 1.3 1.05m-.5.9q.15 0 .5.1v.55q0 1.2-1.2 1.2-.9 0-.9-.8 0-1.05 1.6-1.05m-7.95-5.4l-1.3.3v2.3q-.55-.25-1.2-.25-1.2 0-2 .85t-.8 2.2q0 1.4.7 2.15t1.9.75q.4 0 .8-.15.4-.1.6-.3v.35h1.3v-8.2M631 339.4q.4-.45 1.25-.45.45 0 .9.3v3.05q-.1.1-.4.2-.25.1-.45.1-1.75 0-1.75-1.75 0-.95.45-1.45m5.2-3q0 .3.25.55.3.3.3.5t-.15.4q-.1.15-.6.55l.45.6q1.55-.95 1.55-2.45 0-.45-.25-.75-.25-.25-.7-.25-.85 0-.85.85m-12.85 3.55q-.35-.1-.55-.1-1.4 0-2.15.55-.75.6-.75 1.55 0 .9.55 1.35.5.45 1.45.45.5 0 .95-.2.45-.15.65-.45.05.25.3.45.2.2.5.2.25 0 .5-.05.2-.1.35-.35-.45-.3-.45-1.45v-1.25q0-1.65-.65-2.25-.6-.6-1.9-.6-.95 0-1.65.3l.3 1.05q.5-.25 1.25-.25 1.3 0 1.3 1.05m-1.2 2.75q-.9 0-.9-.8 0-1.05 1.6-1.05.15 0 .5.1v.55q0 1.2-1.2 1.2m-11.6-4.8v1.1h.75v4.65h1.35v-5.75h-2.1m-2.4 2.05q-.35-.1-.55-.1-1.4 0-2.15.55-.75.6-.75 1.55 0 .9.55 1.35.5.45 1.45.45.5 0 .95-.2.45-.15.65-.45.05.25.3.45.2.2.5.2.25 0 .5-.05.2-.1.35-.35-.45-.3-.45-1.45v-1.25q0-1.65-.65-2.25-.6-.6-1.9-.6-.95 0-1.65.3l.3 1.05q.5-.25 1.25-.25 1.3 0 1.3 1.05m-.5.9q.15 0 .5.1v.55q0 1.2-1.2 1.2-.9 0-.9-.8 0-1.05 1.6-1.05m4.9-4.95q-.25-.25-.55-.25-.35 0-.55.25-.25.25-.25.55 0 .3.25.55.2.25.55.25.3 0 .55-.25.2-.25.2-.55 0-.3-.2-.55m3.9 3.75l-1.2-1.75h-1.55l2.05 2.8-2.2 2.95h1.55l1.35-1.85 1.45 1.85h1.65l-2.4-2.95 2.2-2.8h-1.55l-1.35 1.75m64.65 44q-.25.3-.25.7 0 .4.25.7.3.25.7.25.4 0 .7-.25.25-.3.25-.7 0-.4-.25-.7-.3-.25-.7-.25-.4 0-.7.25m-10.15-4.45q-1.2 0-2 .85t-.8 2.2q0 1.4.7 2.15t1.9.75q.4 0 .8-.15.4-.1.6-.3v.35h1.3v-8.2l-1.3.3v2.3q-.55-.25-1.2-.25m.3 1.15q.45 0 .9.3v3.05q-.1.1-.4.2-.25.1-.45.1-1.75 0-1.75-1.75 0-.95.45-1.45.4-.45 1.25-.45m7.95 2.95v-1.25q0-1.65-.65-2.25-.6-.6-1.9-.6-.95 0-1.65.3l.3 1.05q.5-.25 1.25-.25 1.3 0 1.3 1.05-.35-.1-.55-.1-1.4 0-2.15.55-.75.6-.75 1.55 0 .9.55 1.35.5.45 1.45.45.5 0 .95-.2.45-.15.65-.45.05.25.3.45.2.2.5.2.25 0 .5-.05.2-.1.35-.35-.45-.3-.45-1.45m-1.85-1.05q.15 0 .5.1v.55q0 1.2-1.2 1.2-.9 0-.9-.8 0-1.05 1.6-1.05m-27.1-2.25q-.8.85-.8 2.25t.7 2.15q.7.75 2 .75.85 0 1.3-.25v2.4h1.35v-8h-.85l-.25.35q-.6-.45-1.35-.45-1.25 0-2.1.8m1.05.85q.45-.5 1.2-.5.6 0 .95.3v3.1q-.35.25-.95.25-1.65 0-1.65-1.75 0-.9.45-1.4m-2.75 1.75q.1-.5.1-.75 0-1.15-.75-1.9t-2-.75q-1.15 0-2 .85-.85.85-.85 2.2t.75 2.15q.8.75 2.1.75 1.4 0 2.1-.55l-.5-1.05q-.5.5-1.4.5-.75 0-1.2-.4-.4-.4-.45-1.05h4.1m-4.05-1.05q.3-1.25 1.45-1.25 1.25 0 1.35 1.25h-2.8m16.6-2.25h-1.3v3.95q-.15.3-.55.55-.4.25-.85.25-1 0-1-1.1v-3.65h-1.3v3.75q0 2.1 2 2.1.4 0 .9-.15.5-.2.8-.45v.5h1.3v-5.75m1.7.2l.3 1.05q.5-.25 1.25-.25 1.3 0 1.3 1.05-.35-.1-.55-.1-1.4 0-2.15.55-.75.6-.75 1.55 0 .9.55 1.35.5.45 1.45.45.5 0 .95-.2.45-.15.65-.45.05.25.3.45.2.2.5.2.25 0 .5-.05.2-.1.35-.35-.45-.3-.45-1.45v-1.25q0-1.65-.65-2.25-.6-.6-1.9-.6-.95 0-1.65.3m2.35 2.75q.15 0 .5.1v.55q0 1.2-1.2 1.2-.9 0-.9-.8 0-1.05 1.6-1.05m-3.6-16.85q-.85 0-1.45.6l-.25-.5h-.9v5.75h1.3v-4.15q.15-.2.45-.4.3-.2.55-.2.5 0 .75.25t.25.7v3.8h1.35v-4.15q.1-.25.4-.4.25-.2.55-.2 1.05 0 1.05 1.15v3.6h1.35v-3.8q0-.95-.55-1.5t-1.5-.55q-.45 0-.9.15-.45.2-.7.45-.6-.6-1.75-.6m-9.25 2.95q0 1.35.75 2.2.7.8 2 .8t2.05-.8q.75-.8.75-2.2 0-1.35-.75-2.15-.7-.8-2.05-.8-1.25 0-2 .8-.75.85-.75 2.15m1.75-1.35q.4-.5 1-.5 1.4 0 1.4 1.85 0 .9-.4 1.4-.35.5-1 .5-1.35 0-1.35-1.9 0-.9.35-1.35m-3.1-.05l.6-1q-.75-.55-1.75-.55-1.45 0-2.3.85-.85.8-.85 2.15 0 1.4.75 2.2.8.75 2.1.75.6 0 1.05-.1.45-.1 1.05-.45l-.5-1.05q-.6.5-1.35.5-1.7 0-1.7-1.85 0-.85.45-1.4.45-.5 1.2-.5.8 0 1.25.45m3.65-14.8q-.55-.55-1.5-.55-.45 0-.9.15-.45.2-.7.45-.6-.6-1.75-.6-.85 0-1.45.6l-.25-.5h-.9v5.75h1.3v-4.15q.15-.2.45-.4.3-.2.55-.2.5 0 .75.25t.25.7v3.8h1.35v-4.15q.1-.25.4-.4.25-.2.55-.2 1.05 0 1.05 1.15v3.6h1.35v-3.8q0-.95-.55-1.5m4.35 5.4q1.35 0 2.1-.75t.75-2.2q0-3-2.75-3-.75 0-1.25.5v-.4h-1.35v8h1.35v-2.4q.55.25 1.15.25m-.3-4.8q.95 0 1.35.4.4.4.4 1.45 0 .95-.4 1.4-.4.4-1.35.4-.45 0-.85-.25v-3.05q.4-.35.85-.35m5.6-.55v-.5h-1.3v5.75h1.3v-3.3q0-.6.4-1 .35-.45.8-.45.45 0 .8.25l.55-1.15q-.35-.2-1.05-.2-.9 0-1.5.6m7.8 15.8q-.75.6-.75 1.55 0 .9.55 1.35.5.45 1.45.45.5 0 .95-.2.45-.15.65-.45.05.25.3.45.2.2.5.2.25 0 .5-.05.2-.1.35-.35-.45-.3-.45-1.45v-1.25q0-1.65-.65-2.25-.6-.6-1.9-.6-.95 0-1.65.3l.3 1.05q.5-.25 1.25-.25 1.3 0 1.3 1.05-.35-.1-.55-.1-1.4 0-2.15.55m2.7.55v.55q0 1.2-1.2 1.2-.9 0-.9-.8 0-1.05 1.6-1.05.15 0 .5.1m-2.65-16.2q-.75-.75-2-.75-1.15 0-2 .85-.85.85-.85 2.2t.75 2.15q.8.75 2.1.75 1.4 0 2.1-.55l-.5-1.05q-.5.5-1.4.5-.75 0-1.2-.4-.4-.4-.45-1.05h4.1q.1-.5.1-.75 0-1.15-.75-1.9m-3.4 1.6q.3-1.25 1.45-1.25 1.25 0 1.35 1.25h-2.8m11.55-16.05h-1.45l2.6 5.85h.45l2.65-5.85h-1.4l-1.5 3.5-1.35-3.5m-2.6.65q-.75-.75-2-.75-1.15 0-2 .85-.85.85-.85 2.2t.75 2.15q.8.75 2.1.75 1.4 0 2.1-.55l-.5-1.05q-.5.5-1.4.5-.75 0-1.2-.4-.4-.4-.45-1.05h4.1q.1-.5.1-.75 0-1.15-.75-1.9m-3.4 1.6q.3-1.25 1.45-1.25 1.25 0 1.35 1.25h-2.8m-7.7.7q0 1.4.7 2.15t1.9.75q.4 0 .8-.15.4-.1.6-.3v.35h1.3v-8.2l-1.3.3v2.3q-.55-.25-1.2-.25-1.2 0-2 .85t-.8 2.2m1.85-1.45q.4-.45 1.25-.45.45 0 .9.3v3.05q-.1.1-.4.2-.25.1-.45.1-1.75 0-1.75-1.75 0-.95.45-1.45m-11.1 2.55q0 .9.55 1.35.5.45 1.45.45.5 0 .95-.2.45-.15.65-.45.05.25.3.45.2.2.5.2.25 0 .5-.05.2-.1.35-.35-.45-.3-.45-1.45v-1.25q0-1.65-.65-2.25-.6-.6-1.9-.6-.95 0-1.65.3l.3 1.05q.5-.25 1.25-.25 1.3 0 1.3 1.05-.35-.1-.55-.1-1.4 0-2.15.55-.75.6-.75 1.55m3.45-1v.55q0 1.2-1.2 1.2-.9 0-.9-.8 0-1.05 1.6-1.05.15 0 .5.1m-11.35-3.5l-.55.6q-.5-.25-1.3-.25-1 0-1.65.6-.7.6-.7 1.5 0 1.2 1 1.8-.3.15-.55.4-.2.3-.2.6 0 1 1.35 1 .25 0 .7-.1.45-.05.65-.05.85 0 .85.55 0 .3-.4.45-.35.15-.95.15-.85 0-1.55-.6l-.85 1.05q1.05.75 2.4.75 1.1 0 1.9-.5.75-.5.75-1.35 0-1.6-1.95-1.6-.3 0-.65.1-.4.1-.6.1-.35 0-.35-.25 0-.1.25-.2.25-.15.3-.15l.2.05h.4q.9 0 1.5-.55.6-.6.6-1.6 0-.7-.35-1.2l.65-.45-.9-.85m-1.05 1.75q.25.3.25.7 0 .55-.25.85-.25.3-.7.3-.5 0-.8-.3-.25-.3-.25-.85 0-.45.3-.75.25-.25.75-.25.4 0 .7.3m7.85-1.3h-1.3v3.95q-.15.3-.55.55-.4.25-.85.25-1 0-1-1.1v-3.65h-1.3v3.75q0 2.1 2 2.1.4 0 .9-.15.5-.2.8-.45v.5h1.3v-5.75m33.6 5.3l-.5-1.05q-.5.5-1.4.5-.75 0-1.2-.4-.4-.4-.45-1.05h4.1q.1-.5.1-.75 0-1.15-.75-1.9t-2-.75q-1.15 0-2 .85-.85.85-.85 2.2t.75 2.15q.8.75 2.1.75 1.4 0 2.1-.55m-3.5-3.05q.3-1.25 1.45-1.25 1.25 0 1.35 1.25h-2.8z" id="c"/><path id="b" stroke="#8CA8B8" stroke-linejoin="round" stroke-linecap="round" fill="none" d="M694.75 309.85q4.1 0 7 2.95 2.95 2.9 2.95 7v81.6q-.1 3.95-2.95 6.75-2.9 2.95-7 2.95H586.1q-4.1 0-7-2.95-2.8-2.8-2.9-6.75v-81.6q0-4.1 2.9-7 2.9-2.95 7-2.95h108.6"/></defs><g transform="translate(-573.95 -307.45)"><use xlink:href="#a"/><use xlink:href="#b"/></g><use xlink:href="#c" transform="translate(-573.95 -307.45)"/></svg>