<svg xmlns="http://www.w3.org/2000/svg" xmlns:xlink="http://www.w3.org/1999/xlink" preserveAspectRatio="none" width="133" height="106" viewBox="0 0 133 106"><defs><g id="a"><path fill="#FFF" d="M694.75 309.85H586.1q-4.1 0-7 2.95-2.9 2.9-2.9 7v81.6q.1 3.95 2.9 6.75 2.9 2.95 7 2.95h108.65q4.1 0 7-2.95 2.85-2.8 2.95-6.75v-81.6q0-4.1-2.95-7-2.9-2.95-7-2.95m-3 12.95q2.95 2.9 2.95 7v66.7h-.55q-.75 2-2.4 3.65-2.9 2.95-7 2.95H596.1q-4.1 0-7-2.95-1.65-1.65-2.35-3.65h-.55v-66.7q0-4.1 2.9-7 2.9-2.95 7-2.95h88.65q4.1 0 7 2.95z"/><path fill="#FF0" d="M694.7 329.8q0-4.1-2.95-7-2.9-2.95-7-2.95H596.1q-4.1 0-7 2.95-2.9 2.9-2.9 7v66.7h.55q.7 2 2.35 3.65 2.9 2.95 7 2.95h88.65q4.1 0 7-2.95 1.65-1.65 2.4-3.65h.55v-66.7m-97.35 9.85h-4.95v-7.85h1.4v6.6h3.55v1.25m1.3-5.55q.7-.3 1.65-.3 1.3 0 1.9.6.65.6.65 2.25v1.25q0 1.15.45 1.45-.15.25-.35.35-.25.05-.5.05-.3 0-.5-.2-.25-.2-.3-.45-.2.3-.65.45-.45.2-.95.2-.95 0-1.45-.45-.55-.45-.55-1.35 0-.95.75-1.55.75-.55 2.15-.55.2 0 .55.1 0-1.05-1.3-1.05-.75 0-1.25.25l-.3-1.05m9.25-.2h1.4l-2.65 5.85h-.45l-2.6-5.85h1.45l1.35 3.5 1.5-3.5m7.35 2.55q0 .25-.1.75h-4.1q.05.65.45 1.05.45.4 1.2.4.9 0 1.4-.5l.5 1.05q-.7.55-2.1.55-1.3 0-2.1-.75-.75-.8-.75-2.15 0-1.35.85-2.2.85-.85 2-.85 1.25 0 2 .75t.75 1.9m4.6-2.35q.7-.3 1.65-.3 1.3 0 1.9.6.65.6.65 2.25v1.25q0 1.15.45 1.45-.15.25-.35.35-.25.05-.5.05-.3 0-.5-.2-.25-.2-.3-.45-.2.3-.65.45-.45.2-.95.2-.95 0-1.45-.45-.55-.45-.55-1.35 0-.95.75-1.55.75-.55 2.15-.55.2 0 .55.1 0-1.05-1.3-1.05-.75 0-1.25.25l-.3-1.05m7.35.75q-.7 0-.7.55 0 .25.25.4.2.2.95.5t1.1.7q.35.45.35 1.05 0 .8-.6 1.25-.6.45-1.6.45-.6 0-.95-.1t-.9-.35l.5-1.1q.6.5 1.35.5.8 0 .8-.55 0-.35-.25-.55-.25-.2-.9-.5-1.5-.6-1.5-1.75 0-.75.55-1.15.6-.4 1.45-.4.9 0 1.7.4l-.4 1.05q-.4-.4-1.2-.4m5.65-.95h1.45l1.35 3.5 1.5-3.5h1.4l-2.65 5.85h-.45l-2.6-5.85m6.65.2q.7-.3 1.65-.3 1.3 0 1.9.6.65.6.65 2.25v1.25q0 1.15.45 1.45-.15.25-.35.35-.25.05-.5.05-.3 0-.5-.2-.25-.2-.3-.45-.2.3-.65.45-.45.2-.95.2-.95 0-1.45-.45-.55-.45-.55-1.35 0-.95.75-1.55.75-.55 2.15-.55.2 0 .55.1 0-1.05-1.3-1.05-.75 0-1.25.25l-.3-1.05m9.3 3.95q0 .8-.6 1.25-.6.45-1.6.45-.6 0-.95-.1t-.9-.35l.5-1.1q.6.5 1.35.5.8 0 .8-.55 0-.35-.25-.55-.25-.2-.9-.5-1.5-.6-1.5-1.75 0-.75.55-1.15.6-.4 1.45-.4.9 0 1.7.4l-.4 1.05q-.4-.4-1.2-.4-.7 0-.7.55 0 .25.25.4.2.2.95.5t1.1.7q.35.45.35 1.05m14.35-3.95q.7-.3 1.65-.3 1.3 0 1.9.6.65.6.65 2.25v1.25q0 1.15.45 1.45-.15.25-.35.35-.25.05-.5.05-.3 0-.5-.2-.25-.2-.3-.45-.2.3-.65.45-.45.2-.95.2-.95 0-1.45-.45-.55-.45-.55-1.35 0-.95.75-1.55.75-.55 2.15-.55.2 0 .55.1 0-1.05-1.3-1.05-.75 0-1.25.25l-.3-1.05M650.4 333q-.25-.25-.25-.55 0-.3.25-.55.2-.25.55-.25.3 0 .55.25.2.25.2.55 0 .3-.2.55-.25.25-.55.25-.35 0-.55-.25m-.9.9h2.1v5.75h-1.35V335h-.75v-1.1m3.9-2.15l1.35-.3v6.45q0 1.05.65 1.25-.35.6-1.1.6-.9 0-.9-1.25v-6.75m3.05 0l1.35-.3v2.8q.5-.45 1.4-.45 1.1 0 1.7.6.6.6.6 1.7v3.55h-1.35v-3.55q0-.55-.35-.85-.3-.3-.85-.3-.35 0-.7.15-.3.2-.45.4v4.15h-1.35v-7.9m24.1 0l1.3-.3v8.2h-1.3v-.35q-.2.2-.6.3-.4.15-.8.15-1.2 0-1.9-.75t-.7-2.15q0-1.35.8-2.2.8-.85 2-.85.65 0 1.2.25v-2.3m-8.45 2.45l-.4 1.05q-.4-.4-1.2-.4-.7 0-.7.55 0 .25.25.4.2.2.95.5t1.1.7q.35.45.35 1.05 0 .8-.6 1.25-.6.45-1.6.45-.6 0-.95-.1t-.9-.35l.5-1.1q.6.5 1.35.5.8 0 .8-.55 0-.35-.25-.55-.25-.2-.9-.5-1.5-.6-1.5-1.75 0-.75.55-1.15.6-.4 1.45-.4.9 0 1.7.4m15.55.35q.75.75.75 1.9 0 .25-.1.75h-4.1q.05.65.45 1.05.45.4 1.2.4.9 0 1.4-.5l.5 1.05q-.7.55-2.1.55-1.3 0-2.1-.75-.75-.8-.75-2.15 0-1.35.85-2.2.85-.85 2-.85 1.25 0 2 .75m-88.3 11.15q-.75 0-1.25.25l-.3-1.05q.7-.3 1.65-.3 1.3 0 1.9.6.65.6.65 2.25v1.25q0 1.15.45 1.45-.15.25-.35.35-.25.05-.5.05-.3 0-.5-.2-.25-.2-.3-.45-.2.3-.65.45-.45.2-.95.2-.95 0-1.45-.45-.55-.45-.55-1.35 0-.95.75-1.55.75-.55 2.15-.55.2 0 .55.1 0-1.05-1.3-1.05m1.75-3.35l-1.25 1.55h-1l.9-1.55h1.35m5.5 2.5l.55-.6.9.85-.65.45q.35.5.35 1.2 0 1-.6 1.6-.6.55-1.5.55h-.4l-.2-.05q-.05 0-.3.15-.25.1-.25.2 0 .25.35.25.2 0 .6-.1.35-.1.65-.1 1.95 0 1.95 1.6 0 .85-.75 1.35-.8.5-1.9.5-1.35 0-2.4-.75l.85-1.05q.7.6 1.55.6.6 0 .95-.15.4-.15.4-.45 0-.55-.85-.55-.2 0-.65.05-.45.1-.7.1-1.35 0-1.35-1 0-.3.2-.6.25-.25.55-.4-1-.6-1-1.8 0-.9.7-1.5.65-.6 1.65-.6.8 0 1.3.25m45.45-.15l.25.55q.55-.65 1.6-.65t1.65.6q.55.6.55 1.7v3.55h-1.3v-3.3q0-.75-.3-1.1-.3-.35-.95-.35-.25 0-.6.2-.35.15-.55.4v4.15h-1.3v-5.75h.95m5.8-1.45q0-.3.25-.55.2-.25.55-.25.3 0 .55.25.2.25.2.55 0 .3-.2.55-.25.25-.55.25-.35 0-.55-.25-.25-.25-.25-.55m.1 2.55h-.75v-1.1h2.1v5.75h-1.35v-4.65m3.85-1.1l.25.5q.6-.6 1.45-.6 1.15 0 1.75.6.25-.25.7-.45.45-.15.9-.15.95 0 1.5.55t.55 1.5v3.8h-1.35v-3.6q0-1.15-1.05-1.15-.3 0-.55.2-.3.15-.4.4v4.15h-1.35v-3.8q0-.45-.25-.7-.25-.25-.75-.25-.25 0-.55.2-.3.2-.45.4v4.15h-1.3v-5.75h.9m-12.15 4q0 1.15.45 1.45-.15.25-.35.35-.25.05-.5.05-.3 0-.5-.2-.25-.2-.3-.45-.2.3-.65.45-.45.2-.95.2-.95 0-1.45-.45-.55-.45-.55-1.35 0-.95.75-1.55.75-.55 2.15-.55.2 0 .55.1 0-1.05-1.3-1.05-.75 0-1.25.25l-.3-1.05q.7-.3 1.65-.3 1.3 0 1.9.6.65.6.65 2.25v1.25m-40.7-4h1.3v3.65q0 1.1 1 1.1.45 0 .85-.25.4-.25.55-.55v-3.95h1.3v5.75h-1.3v-.5q-.3.25-.8.45-.5.15-.9.15-2 0-2-2.1v-3.75m6.7.2q.7-.3 1.65-.3 1.3 0 1.9.6.65.6.65 2.25v1.25q0 1.15.45 1.45-.15.25-.35.35-.25.05-.5.05-.3 0-.5-.2-.25-.2-.3-.45-.2.3-.65.45-.45.2-.95.2-.95 0-1.45-.45-.55-.45-.55-1.35 0-.95.75-1.55.75-.55 2.15-.55.2 0 .55.1 0-1.05-1.3-1.05-.75 0-1.25.25l-.3-1.05m9.45.55q.8-.85 2-.85.65 0 1.2.25v-2.3l1.3-.3v8.2h-1.3v-.35q-.2.2-.6.3-.4.15-.8.15-1.2 0-1.9-.75t-.7-2.15q0-1.35.8-2.2m11.7.7q0-.75.55-1.15.6-.4 1.45-.4.9 0 1.7.4l-.4 1.05q-.4-.4-1.2-.4-.7 0-.7.55 0 .25.25.4.2.2.95.5t1.1.7q.35.45.35 1.05 0 .8-.6 1.25-.6.45-1.6.45-.6 0-.95-.1t-.9-.35l.5-1.1q.6.5 1.35.5.8 0 .8-.55 0-.35-.25-.55-.25-.2-.9-.5-1.5-.6-1.5-1.75m-3.5-1.55q1.35 0 2.05.8.75.8.75 2.15 0 1.4-.75 2.2-.75.8-2.05.8-1.3 0-2-.8-.75-.85-.75-2.2 0-1.3.75-2.15.75-.8 2-.8m37.25.3q.7-.3 1.65-.3 1.3 0 1.9.6.65.6.65 2.25v1.25q0 1.15.45 1.45-.15.25-.35.35-.25.05-.5.05-.3 0-.5-.2-.25-.2-.3-.45-.2.3-.65.45-.45.2-.95.2-.95 0-1.45-.45-.55-.45-.55-1.35 0-.95.75-1.55.75-.55 2.15-.55.2 0 .55.1 0-1.05-1.3-1.05-.75 0-1.25.25l-.3-1.05m6.15-2.2q.2-.25.55-.25.3 0 .55.25.2.25.2.55 0 .3-.2.55-.25.25-.55.25-.35 0-.55-.25-.25-.25-.25-.55 0-.3.25-.55m-.9 3.1v-1.1h2.1v5.75h-1.35v-4.65h-.75m3.3.35q0-.75.55-1.15.6-.4 1.45-.4.9 0 1.7.4l-.4 1.05q-.4-.4-1.2-.4-.7 0-.7.55 0 .25.25.4.2.2.95.5t1.1.7q.35.45.35 1.05 0 .8-.6 1.25-.6.45-1.6.45-.6 0-.95-.1t-.9-.35l.5-1.1q.6.5 1.35.5.8 0 .8-.55 0-.35-.25-.55-.25-.2-.9-.5-1.5-.6-1.5-1.75m-78.4 12.3q0-1.35.85-2.2.85-.85 2-.85 1.25 0 2 .75t.75 1.9q0 .25-.1.75h-4.1q.05.65.45 1.05.45.4 1.2.4.9 0 1.4-.5l.5 1.05q-.7.55-2.1.55-1.3 0-2.1-.75-.75-.8-.75-2.15m-2.25-5.1l1.3-.3v8.2h-1.3v-.35q-.2.2-.6.3-.4.15-.8.15-1.2 0-1.9-.75t-.7-2.15q0-1.35.8-2.2.8-.85 2-.85.65 0 1.2.25v-2.3m32.1 2.65q.6-.6 1.45-.6 1.15 0 1.75.6.25-.25.7-.45.45-.15.9-.15.95 0 1.5.55t.55 1.5v3.8h-1.35v-3.6q0-1.15-1.05-1.15-.3 0-.55.2-.3.15-.4.4v4.15h-1.35v-3.8q0-.45-.25-.7-.25-.25-.75-.25-.25 0-.55.2-.3.2-.45.4v4.15h-1.3v-5.75h.9l.25.5m-2.75-.5v5.75h-1.35v-4.65h-.75v-1.1h2.1m-5.85 0v-1.15l1.3-.5v1.65h1.6v1.1h-1.6v2.5q0 .6.2.85t.7.25q.5 0 .9-.25v1.25q-.45.15-1.35.15-.85 0-1.3-.5-.45-.45-.45-1.35v-2.9h-.7v-1.1h.7m-3.7 1.9q.2.2.95.5t1.1.7q.35.45.35 1.05 0 .8-.6 1.25-.6.45-1.6.45-.6 0-.95-.1t-.9-.35l.5-1.1q.6.5 1.35.5.8 0 .8-.55 0-.35-.25-.55-.25-.2-.9-.5-1.5-.6-1.5-1.75 0-.75.55-1.15.6-.4 1.45-.4.9 0 1.7.4l-.4 1.05q-.4-.4-1.2-.4-.7 0-.7.55 0 .25.25.4m8.35-3.9q.2-.25.55-.25.3 0 .55.25.2.25.2.55 0 .3-.2.55-.25.25-.55.25-.35 0-.55-.25-.25-.25-.25-.55 0-.3.25-.55m-16.3 4.95q0-1.35.85-2.2.85-.85 2-.85 1.25 0 2 .75t.75 1.9q0 .25-.1.75h-4.1q.05.65.45 1.05.45.4 1.2.4.9 0 1.4-.5l.5 1.05q-.7.55-2.1.55-1.3 0-2.1-.75-.75-.8-.75-2.15m30.4-3.05q1.3 0 1.9.6.65.6.65 2.25v1.25q0 1.15.45 1.45-.15.25-.35.35-.25.05-.5.05-.3 0-.5-.2-.25-.2-.3-.45-.2.3-.65.45-.45.2-.95.2-.95 0-1.45-.45-.55-.45-.55-1.35 0-.95.75-1.55.75-.55 2.15-.55.2 0 .55.1 0-1.05-1.3-1.05-.75 0-1.25.25l-.3-1.05q.7-.3 1.65-.3m8.5.55l-.6 1q-.45-.45-1.25-.45-.75 0-1.2.5-.45.55-.45 1.4 0 1.85 1.7 1.85.75 0 1.35-.5l.5 1.05q-.6.35-1.05.45-.45.1-1.05.1-1.3 0-2.1-.75-.75-.8-.75-2.2 0-1.35.85-2.15.85-.85 2.3-.85 1 0 1.75.55m-2.85 5.9l.45-.45q.95.2.95 1.1 0 .5-.4.8-.35.3-.95.3-.3 0-.55-.05l-.2-.7q.15.05.35.05.7 0 .7-.5 0-.15-.1-.35-.1-.15-.25-.2m6.15-8.15q.4.2.5.2.35 0 .5-.4h.8q-.25.8-.5 1.1-.3.3-.75.3-.35 0-.75-.2-.45-.25-.6-.25-.25 0-.45.45h-.8q.1-.65.45-1 .3-.4.75-.4.4 0 .85.2m-1.95 2q.7-.3 1.65-.3 1.3 0 1.9.6.65.6.65 2.25v1.25q0 1.15.45 1.45-.15.25-.35.35-.25.05-.5.05-.3 0-.5-.2-.25-.2-.3-.45-.2.3-.65.45-.45.2-.95.2-.95 0-1.45-.45-.55-.45-.55-1.35 0-.95.75-1.55.75-.55 2.15-.55.2 0 .55.1 0-1.05-1.3-1.05-.75 0-1.25.25l-.3-1.05m28.85 1q-.3.2-.45.4v4.15h-1.3v-5.75h.9l.25.5q.6-.6 1.45-.6 1.15 0 1.75.6.25-.25.7-.45.45-.15.9-.15.95 0 1.5.55t.55 1.5v3.8h-1.35v-3.6q0-1.15-1.05-1.15-.3 0-.55.2-.3.15-.4.4v4.15h-1.35v-3.8q0-.45-.25-.7-.25-.25-.75-.25-.25 0-.55.2m-10.9-1.3q1 0 1.75.55l-.6 1q-.45-.45-1.25-.45-.75 0-1.2.5-.45.55-.45 1.4 0 1.85 1.7 1.85.75 0 1.35-.5l.5 1.05q-.6.35-1.05.45-.45.1-1.05.1-1.3 0-2.1-.75-.75-.8-.75-2.2 0-1.35.85-2.15.85-.85 2.3-.85m2.5 2.95q0-1.3.75-2.15.75-.8 2-.8 1.35 0 2.05.8.75.8.75 2.15 0 1.4-.75 2.2-.75.8-2.05.8-1.3 0-2-.8-.75-.85-.75-2.2m-10.4-2.15q.75.8.75 2.15 0 1.4-.75 2.2-.75.8-2.05.8-1.3 0-2-.8-.75-.85-.75-2.2 0-1.3.75-2.15.75-.8 2-.8 1.35 0 2.05.8m-57.45 10.85q.85-.85 2-.85 1.25 0 2 .75t.75 1.9q0 .25-.1.75h-4.1q.05.65.45 1.05.45.4 1.2.4.9 0 1.4-.5l.5 1.05q-.7.55-2.1.55-1.3 0-2.1-.75-.75-.8-.75-2.15 0-1.35.85-2.2m27.85 3.3q0-.95.75-1.55.75-.55 2.15-.55.2 0 .55.1 0-1.05-1.3-1.05-.75 0-1.25.25l-.3-1.05q.7-.3 1.65-.3 1.3 0 1.9.6.65.6.65 2.25v1.25q0 1.15.45 1.45-.15.25-.35.35-.25.05-.5.05-.3 0-.5-.2-.25-.2-.3-.45-.2.3-.65.45-.45.2-.95.2-.95 0-1.45-.45-.55-.45-.55-1.35m-1.75-4.05h1.4l-2.65 5.85h-.45l-2.6-5.85h1.45l1.35 3.5 1.5-3.5m-18.65-.1q.9 0 1.7.4l-.4 1.05q-.4-.4-1.2-.4-.7 0-.7.55 0 .25.25.4.2.2.95.5t1.1.7q.35.45.35 1.05 0 .8-.6 1.25-.6.45-1.6.45-.6 0-.95-.1t-.9-.35l.5-1.1q.6.5 1.35.5.8 0 .8-.55 0-.35-.25-.55-.25-.2-.9-.5-1.5-.6-1.5-1.75 0-.75.55-1.15.6-.4 1.45-.4m3.6.85q.85-.85 2.3-.85 1 0 1.75.55l-.6 1q-.45-.45-1.25-.45-.75 0-1.2.5-.45.55-.45 1.4 0 1.85 1.7 1.85.75 0 1.35-.5l.5 1.05q-.6.35-1.05.45-.45.1-1.05.1-1.3 0-2.1-.75-.75-.8-.75-2.2 0-1.35.85-2.15m5.55-.05q.75-.8 2-.8 1.35 0 2.05.8.75.8.75 2.15 0 1.4-.75 2.2-.75.8-2.05.8-1.3 0-2-.8-.75-.85-.75-2.2 0-1.3.75-2.15m33.3.65q-.4-.4-1.2-.4-.7 0-.7.55 0 .25.25.4.2.2.95.5t1.1.7q.35.45.35 1.05 0 .8-.6 1.25-.6.45-1.6.45-.6 0-.95-.1t-.9-.35l.5-1.1q.6.5 1.35.5.8 0 .8-.55 0-.35-.25-.55-.25-.2-.9-.5-1.5-.6-1.5-1.75 0-.75.55-1.15.6-.4 1.45-.4.9 0 1.7.4l-.4 1.05m2.35-.1l-.3-1.05q.7-.3 1.65-.3 1.3 0 1.9.6.65.6.65 2.25v1.25q0 1.15.45 1.45-.15.25-.35.35-.25.05-.5.05-.3 0-.5-.2-.25-.2-.3-.45-.2.3-.65.45-.45.2-.95.2-.95 0-1.45-.45-.55-.45-.55-1.35 0-.95.75-1.55.75-.55 2.15-.55.2 0 .55.1 0-1.05-1.3-1.05-.75 0-1.25.25m5.2-3.4l1.35-.3v2.65q.55-.3 1.2-.3 1.25 0 2 .8.8.8.8 2.05 0 1.45-.8 2.25-.75.85-2.1.85-.8 0-1.35-.4l-.3.4h-.8v-8m-20.45 5.1q0-1.35.85-2.2.85-.85 2-.85 1.25 0 2 .75t.75 1.9q0 .25-.1.75h-4.1q.05.65.45 1.05.45.4 1.2.4.9 0 1.4-.5l.5 1.05q-.7.55-2.1.55-1.3 0-2.1-.75-.75-.8-.75-2.15m28.25-4.95q.4 0 .85.2.4.2.5.2.35 0 .5-.4h.8q-.25.8-.5 1.1-.3.3-.75.3-.35 0-.75-.2-.45-.25-.6-.25-.25 0-.45.45h-.8q.1-.65.45-1 .3-.4.75-.4m1.2 3.95q.2 0 .55.1 0-1.05-1.3-1.05-.75 0-1.25.25l-.3-1.05q.7-.3 1.65-.3 1.3 0 1.9.6.65.6.65 2.25v1.25q0 1.15.45 1.45-.15.25-.35.35-.25.05-.5.05-.3 0-.5-.2-.25-.2-.3-.45-.2.3-.65.45-.45.2-.95.2-.95 0-1.45-.45-.55-.45-.55-1.35 0-.95.75-1.55.75-.55 2.15-.55m2.95.9q0-1.3.75-2.15.75-.8 2-.8 1.35 0 2.05.8.75.8.75 2.15 0 1.4-.75 2.2-.75.8-2.05.8-1.3 0-2-.8-.75-.85-.75-2.2M654.6 377q.9 0 1.7.4l-.4 1.05q-.4-.4-1.2-.4-.7 0-.7.55 0 .25.25.4.2.2.95.5t1.1.7q.35.45.35 1.05 0 .8-.6 1.25-.6.45-1.6.45-.6 0-.95-.1t-.9-.35l.5-1.1q.6.5 1.35.5.8 0 .8-.55 0-.35-.25-.55-.25-.2-.9-.5-1.5-.6-1.5-1.75 0-.75.55-1.15.6-.4 1.45-.4m-3.45.8q.75.8.75 2.15 0 1.4-.75 2.2-.75.8-2.05.8-1.3 0-2-.8-.75-.85-.75-2.2 0-1.3.75-2.15.75-.8 2-.8 1.35 0 2.05.8m-52.25-.7h1.35v.4q.5-.5 1.25-.5 2.75 0 2.75 3 0 1.45-.75 2.2-.75.75-2.1.75-.6 0-1.15-.25v2.4h-1.35v-8m7.5 3.3q.05.65.45 1.05.45.4 1.2.4.9 0 1.4-.5l.5 1.05q-.7.55-2.1.55-1.3 0-2.1-.75-.75-.8-.75-2.15 0-1.35.85-2.2.85-.85 2-.85 1.25 0 2 .75t.75 1.9q0 .25-.1.75h-4.1m18.1-3.3h.9l.25.5q.6-.6 1.45-.6 1.15 0 1.75.6.25-.25.7-.45.45-.15.9-.15.95 0 1.5.55t.55 1.5v3.8h-1.35v-3.6q0-1.15-1.05-1.15-.3 0-.55.2-.3.15-.4.4v4.15h-1.35v-3.8q0-.45-.25-.7-.25-.25-.75-.25-.25 0-.55.2-.3.2-.45.4v4.15h-1.3v-5.75m-5.15.7q.75.8.75 2.15 0 1.4-.75 2.2-.75.8-2.05.8-1.3 0-2-.8-.75-.85-.75-2.2 0-1.3.75-2.15.75-.8 2-.8 1.35 0 2.05.8m-6.1 3.3q0 1.05.65 1.25-.35.6-1.1.6-.9 0-.9-1.25v-6.75l1.35-.3v6.45m27-4h.95l.25.55q.55-.65 1.6-.65t1.65.6q.55.6.55 1.7v3.55h-1.3v-3.3q0-.75-.3-1.1-.3-.35-.95-.35-.25 0-.6.2-.35.15-.55.4v4.15h-1.3v-5.75m-2.25 4.25l.5 1.05q-.7.55-2.1.55-1.3 0-2.1-.75-.75-.8-.75-2.15 0-1.35.85-2.2.85-.85 2-.85 1.25 0 2 .75t.75 1.9q0 .25-.1.75h-4.1q.05.65.45 1.05.45.4 1.2.4.9 0 1.4-.5m26.75-4.25h1.3v5.75h-1.3v-.5q-.3.25-.8.45-.5.15-.9.15-2 0-2-2.1v-3.75h1.3v3.65q0 1.1 1 1.1.45 0 .85-.25.4-.25.55-.55v-3.95m2.8 5.75v-5.75h.9l.25.5q.6-.6 1.45-.6 1.15 0 1.75.6.25-.25.7-.45.45-.15.9-.15.95 0 1.5.55t.55 1.5v3.8h-1.35v-3.6q0-1.15-1.05-1.15-.3 0-.55.2-.3.15-.4.4v4.15h-1.35v-3.8q0-.45-.25-.7-.25-.25-.75-.25-.25 0-.55.2-.3.2-.45.4v4.15h-1.3m11.95-3.8q.2 0 .55.1 0-1.05-1.3-1.05-.75 0-1.25.25l-.3-1.05q.7-.3 1.65-.3 1.3 0 1.9.6.65.6.65 2.25v1.25q0 1.15.45 1.45-.15.25-.35.35-.25.05-.5.05-.3 0-.5-.2-.25-.2-.3-.45-.2.3-.65.45-.45.2-.95.2-.95 0-1.45-.45-.55-.45-.55-1.35 0-.95.75-1.55.75-.55 2.15-.55m-75.15 8.85h1.4l-2.65 5.85h-.45l-2.6-5.85h1.45l1.35 3.5 1.5-3.5m2.5 5.1q-.75-.8-.75-2.15 0-1.35.85-2.2.85-.85 2-.85 1.25 0 2 .75t.75 1.9q0 .25-.1.75h-4.1q.05.65.45 1.05.45.4 1.2.4.9 0 1.4-.5l.5 1.05q-.7.55-2.1.55-1.3 0-2.1-.75m10.65-5.1v.45l-3.05 4.15h3.05v1.15h-5.1v-.45l3.1-4.15h-3.05v-1.15h5.05m5.55 0v.4q.5-.5 1.25-.5 2.75 0 2.75 3 0 1.45-.75 2.2-.75.75-2.1.75-.6 0-1.15-.25v2.4h-1.35v-8h1.35m12.7.5q.6-.6 1.5-.6.7 0 1.05.2l-.55 1.15q-.35-.25-.8-.25-.45 0-.8.45-.4.4-.4 1v3.3h-1.3v-5.75h1.3v.5m-5.2-.6q1.35 0 2.05.8.75.8.75 2.15 0 1.4-.75 2.2-.75.8-2.05.8-1.3 0-2-.8-.75-.85-.75-2.2 0-1.3.75-2.15.75-.8 2-.8m12.9 1.6q0 .25.25.4.2.2.95.5t1.1.7q.35.45.35 1.05 0 .8-.6 1.25-.6.45-1.6.45-.6 0-.95-.1t-.9-.35l.5-1.1q.6.5 1.35.5.8 0 .8-.55 0-.35-.25-.55-.25-.2-.9-.5-1.5-.6-1.5-1.75 0-.75.55-1.15.6-.4 1.45-.4.9 0 1.7.4l-.4 1.05q-.4-.4-1.2-.4-.7 0-.7.55m10.05-1.5h.9l.25.5q.6-.6 1.45-.6 1.15 0 1.75.6.25-.25.7-.45.45-.15.9-.15.95 0 1.5.55t.55 1.5v3.8h-1.35v-3.6q0-1.15-1.05-1.15-.3 0-.55.2-.3.15-.4.4v4.15h-1.35v-3.8q0-.45-.25-.7-.25-.25-.75-.25-.25 0-.55.2-.3.2-.45.4v4.15h-1.3v-5.75m-3.85-.1q1.25 0 2 .75t.75 1.9q0 .25-.1.75h-4.1q.05.65.45 1.05.45.4 1.2.4.9 0 1.4-.5l.5 1.05q-.7.55-2.1.55-1.3 0-2.1-.75-.75-.8-.75-2.15 0-1.35.85-2.2.85-.85 2-.85m15.05 1.1q-.75 0-1.25.25l-.3-1.05q.7-.3 1.65-.3 1.3 0 1.9.6.65.6.65 2.25v1.25q0 1.15.45 1.45-.15.25-.35.35-.25.05-.5.05-.3 0-.5-.2-.25-.2-.3-.45-.2.3-.65.45-.45.2-.95.2-.95 0-1.45-.45-.55-.45-.55-1.35 0-.95.75-1.55.75-.55 2.15-.55.2 0 .55.1 0-1.05-1.3-1.05m11.1.25l-.3-1.05q.7-.3 1.65-.3 1.3 0 1.9.6.65.6.65 2.25v1.25q0 1.15.45 1.45-.15.25-.35.35-.25.05-.5.05-.3 0-.5-.2-.25-.2-.3-.45-.2.3-.65.45-.45.2-.95.2-.95 0-1.45-.45-.55-.45-.55-1.35 0-.95.75-1.55.75-.55 2.15-.55.2 0 .55.1 0-1.05-1.3-1.05-.75 0-1.25.25m-4.2-1.35q1.05 0 1.65.6.55.6.55 1.7v3.55h-1.3v-3.3q0-.75-.3-1.1-.3-.35-.95-.35-.25 0-.6.2-.35.15-.55.4v4.15h-1.3v-5.75h.95l.25.55q.55-.65 1.6-.65m4.65 4.1q0 .8.9.8 1.2 0 1.2-1.2v-.55q-.35-.1-.5-.1-1.6 0-1.6 1.05m-10.25-.4v-.55q-.35-.1-.5-.1-1.6 0-1.6 1.05 0 .8.9.8 1.2 0 1.2-1.2m-17.75-1.35h2.8q-.1-1.25-1.35-1.25-1.15 0-1.45 1.25m-17.7-1.25q-.6 0-1 .5-.35.45-.35 1.35 0 1.9 1.35 1.9.65 0 1-.5.4-.5.4-1.4 0-1.85-1.4-1.85m-6.65.05q-.45 0-.85.35v3.05q.4.25.85.25.95 0 1.35-.4.4-.45.4-1.4 0-1.05-.4-1.45-.4-.4-1.35-.4m-16.35 1.2h2.8q-.1-1.25-1.35-1.25-1.15 0-1.45 1.25m72.5-10q-.35-.1-.5-.1-1.6 0-1.6 1.05 0 .8.9.8 1.2 0 1.2-1.2v-.55m-45.05-.8h2.8q-.1-1.25-1.35-1.25-1.15 0-1.45 1.25m-16.7 2q.4-.5.4-1.4 0-1.85-1.4-1.85-.6 0-1 .5-.35.45-.35 1.35 0 1.9 1.35 1.9.65 0 1-.5m-9.05-2q-.1-1.25-1.35-1.25-1.15 0-1.45 1.25h2.8m-9 2.2q.4.25.85.25.95 0 1.35-.4.4-.45.4-1.4 0-1.05-.4-1.45-.4-.4-1.35-.4-.45 0-.85.35v3.05m48.85.3q.65 0 1-.5.4-.5.4-1.4 0-1.85-1.4-1.85-.6 0-1 .5-.35.45-.35 1.35 0 1.9 1.35 1.9m24.85-12.7q0 1.9 1.35 1.9.65 0 1-.5.4-.5.4-1.4 0-1.85-1.4-1.85-.6 0-1 .5-.35.45-.35 1.35m-3.8.2q-.35-.1-.5-.1-1.6 0-1.6 1.05 0 .8.9.8 1.2 0 1.2-1.2v-.55m-25.75-.8q-.1-1.25-1.35-1.25-1.15 0-1.45 1.25h2.8m18.45-1.2q-.6 0-.9.3v3q.3.35.8.35 1 0 1.4-.45.4-.45.4-1.45 0-1.75-1.7-1.75m-4.9 2q-.35-.1-.5-.1-1.6 0-1.6 1.05 0 .8.9.8 1.2 0 1.2-1.2v-.55m-37.55-.2q0 1.9 1.35 1.9.65 0 1-.5.4-.5.4-1.4 0-1.85-1.4-1.85-.6 0-1 .5-.35.45-.35 1.35m14.05.75v-.55q-.35-.1-.5-.1-1.6 0-1.6 1.05 0 .8.9.8 1.2 0 1.2-1.2m-30.7-1.35h2.8q-.1-1.25-1.35-1.25-1.15 0-1.45 1.25m56.2-10.2q0-1.85-1.4-1.85-.6 0-1 .5-.35.45-.35 1.35 0 1.9 1.35 1.9.65 0 1-.5.4-.5.4-1.4m12.8-1.35q-.35.45-.35 1.35 0 1.9 1.35 1.9.65 0 1-.5.4-.5.4-1.4 0-1.85-1.4-1.85-.6 0-1 .5m-19.35 1.55q-.35-.1-.5-.1-1.6 0-1.6 1.05 0 .8.9.8 1.2 0 1.2-1.2v-.55m-11.5 0q-.35-.1-.5-.1-1.6 0-1.6 1.05 0 .8.9.8 1.2 0 1.2-1.2v-.55m-27.35-.8q-.1-1.25-1.35-1.25-1.15 0-1.45 1.25h2.8m-16.1-.9q-.45-.3-.9-.3-.85 0-1.25.45-.45.5-.45 1.45 0 1.75 1.75 1.75.2 0 .45-.1.3-.1.4-.2v-3.05m6.5.9q-.1-1.25-1.35-1.25-1.15 0-1.45 1.25h2.8m68.45-9.45v-.55q-.35-.1-.5-.1-1.6 0-1.6 1.05 0 .8.9.8 1.2 0 1.2-1.2m-40.1-2.6q-.6 0-1 .5-.35.45-.35 1.35 0 1.9 1.35 1.9.65 0 1-.5.4-.5.4-1.4 0-1.85-1.4-1.85m-5.9.05q-.85 0-1.25.45-.45.5-.45 1.45 0 1.75 1.75 1.75.2 0 .45-.1.3-.1.4-.2v-3.05q-.45-.3-.9-.3m-8.9 2.55v-.55q-.35-.1-.5-.1-1.6 0-1.6 1.05 0 .8.9.8 1.2 0 1.2-1.2m29.8 0v-.55q-.35-.1-.5-.1-1.6 0-1.6 1.05 0 .8.9.8 1.2 0 1.2-1.2m-42.9-2.6q-.5 0-.75.25-.3.3-.3.75 0 .55.25.85.3.3.8.3.45 0 .7-.3.25-.3.25-.85 0-.4-.25-.7-.3-.3-.7-.3m-4.75 2.05q-.35-.1-.5-.1-1.6 0-1.6 1.05 0 .8.9.8 1.2 0 1.2-1.2v-.55m85.05-12.85q-1.15 0-1.45 1.25h2.8q-.1-1.25-1.35-1.25m-6.05.05q-.85 0-1.25.45-.45.5-.45 1.45 0 1.75 1.75 1.75.2 0 .45-.1.3-.1.4-.2v-3.05q-.45-.3-.9-.3m-15.75 2.95q0 .8.9.8 1.2 0 1.2-1.2v-.55q-.35-.1-.5-.1-1.6 0-1.6 1.05m-21.55-.95q-.35-.1-.5-.1-1.6 0-1.6 1.05 0 .8.9.8 1.2 0 1.2-1.2v-.55m-19.65.55v-.55q-.35-.1-.5-.1-1.6 0-1.6 1.05 0 .8.9.8 1.2 0 1.2-1.2m-10.15-2.6q-1.15 0-1.45 1.25h2.8q-.1-1.25-1.35-1.25m-11.05 2.05q-.35-.1-.5-.1-1.6 0-1.6 1.05 0 .8.9.8 1.2 0 1.2-1.2v-.55z"/></g><path d="M643.7 389.8q-.25-.15-.25-.4 0-.55.7-.55.8 0 1.2.4l.4-1.05q-.8-.4-1.7-.4-.85 0-1.45.4-.55.4-.55 1.15 0 1.15 1.5 1.75.65.3.9.5t.25.55q0 .55-.8.55-.75 0-1.35-.5l-.5 1.1q.55.25.9.35.35.1.95.1 1 0 1.6-.45.6-.45.6-1.25 0-.6-.35-1.05-.35-.4-1.1-.7-.75-.3-.95-.5m-11.1-1.2q-.7-.8-2.05-.8-1.25 0-2 .8-.75.85-.75 2.15 0 1.35.75 2.2.7.8 2 .8t2.05-.8q.75-.8.75-2.2 0-1.35-.75-2.15m-3.05.8q.4-.5 1-.5 1.4 0 1.4 1.85 0 .9-.4 1.4-.35.5-1 .5-1.35 0-1.35-1.9 0-.9.35-1.35m7.7-1.6q-.9 0-1.5.6v-.5h-1.3v5.75h1.3v-3.3q0-.6.4-1 .35-.45.8-.45.45 0 .8.25l.55-1.15q-.35-.2-1.05-.2m1.25-5.4l-.5-1.05q-.5.5-1.4.5-.75 0-1.2-.4-.4-.4-.45-1.05h4.1q.1-.5.1-.75 0-1.15-.75-1.9t-2-.75q-1.15 0-2 .85-.85.85-.85 2.2t.75 2.15q.8.75 2.1.75 1.4 0 2.1-.55m-.7-3.05H635q.3-1.25 1.45-1.25 1.25 0 1.35 1.25m3.4-2.25h-.95v5.75h1.3v-4.15q.2-.25.55-.4.35-.2.6-.2.65 0 .95.35.3.35.3 1.1v3.3h1.3v-3.55q0-1.1-.55-1.7-.6-.6-1.65-.6-1.05 0-1.6.65l-.25-.55m-18.15 11.2v-.4h-1.35v8h1.35v-2.4q.55.25 1.15.25 1.35 0 2.1-.75t.75-2.2q0-3-2.75-3-.75 0-1.25.5m0 1q.4-.35.85-.35.95 0 1.35.4.4.4.4 1.45 0 .95-.4 1.4-.4.4-1.35.4-.45 0-.85-.25v-3.05m-5.55-.95v-.45h-5.05v1.15h3.05l-3.1 4.15v.45h5.1v-1.15h-3.05l3.05-4.15m-3.6-6q-.65-.2-.65-1.25v-6.45l-1.35.3v6.75q0 1.25.9 1.25.75 0 1.1-.6m6.2-2.4q0-1.35-.75-2.15-.7-.8-2.05-.8-1.25 0-2 .8-.75.85-.75 2.15 0 1.35.75 2.2.7.8 2 .8t2.05-.8q.75-.8.75-2.2m-1.4 0q0 .9-.4 1.4-.35.5-1 .5-1.35 0-1.35-1.9 0-.9.35-1.35.4-.5 1-.5 1.4 0 1.4 1.85m6.7-2.85h-.9v5.75h1.3v-4.15q.15-.2.45-.4.3-.2.55-.2.5 0 .75.25t.25.7v3.8h1.35v-4.15q.1-.25.4-.4.25-.2.55-.2 1.05 0 1.05 1.15v3.6h1.35v-3.8q0-.95-.55-1.5t-1.5-.55q-.45 0-.9.15-.45.2-.7.45-.6-.6-1.75-.6-.85 0-1.45.6l-.25-.5m-3.65-10.9q-1.25 0-2 .8-.75.85-.75 2.15 0 1.35.75 2.2.7.8 2 .8t2.05-.8q.75-.8.75-2.2 0-1.35-.75-2.15-.7-.8-2.05-.8m0 4.85q-1.35 0-1.35-1.9 0-.9.35-1.35.4-.5 1-.5 1.4 0 1.4 1.85 0 .9-.4 1.4-.35.5-1 .5m-5.25-4.85q-1.45 0-2.3.85-.85.8-.85 2.15 0 1.4.75 2.2.8.75 2.1.75.6 0 1.05-.1.45-.1 1.05-.45l-.5-1.05q-.6.5-1.35.5-1.7 0-1.7-1.85 0-.85.45-1.4.45-.5 1.2-.5.8 0 1.25.45l.6-1q-.75-.55-1.75-.55m-4.2.4q-.8-.4-1.7-.4-.85 0-1.45.4-.55.4-.55 1.15 0 1.15 1.5 1.75.65.3.9.5t.25.55q0 .55-.8.55-.75 0-1.35-.5l-.5 1.1q.55.25.9.35.35.1.95.1 1 0 1.6-.45.6-.45.6-1.25 0-.6-.35-1.05-.35-.4-1.1-.7-.75-.3-.95-.5-.25-.15-.25-.4 0-.55.7-.55.8 0 1.2.4l.4-1.05m-1.15-10.35q-.85.85-.85 2.2t.75 2.15q.8.75 2.1.75 1.4 0 2.1-.55l-.5-1.05q-.5.5-1.4.5-.75 0-1.2-.4-.4-.4-.45-1.05h4.1q.1-.5.1-.75 0-1.15-.75-1.9t-2-.75q-1.15 0-2 .85m2.05.25q1.25 0 1.35 1.25h-2.8q.3-1.25 1.45-1.25m13.95-3.25q-.35 0-.55.25-.25.25-.25.55 0 .3.25.55.2.25.55.25.3 0 .55-.25.2-.25.2-.55 0-.3-.2-.55-.25-.25-.55-.25m-7.95 4.65q-.75-.3-.95-.5-.25-.15-.25-.4 0-.55.7-.55.8 0 1.2.4l.4-1.05q-.8-.4-1.7-.4-.85 0-1.45.4-.55.4-.55 1.15 0 1.15 1.5 1.75.65.3.9.5t.25.55q0 .55-.8.55-.75 0-1.35-.5l-.5 1.1q.55.25.9.35.35.1.95.1 1 0 1.6-.45.6-.45.6-1.25 0-.6-.35-1.05-.35-.4-1.1-.7m2.75-3.55v1.15h-.7v1.1h.7v2.9q0 .9.45 1.35.45.5 1.3.5.9 0 1.35-.15v-1.25q-.4.25-.9.25t-.7-.25q-.2-.25-.2-.85v-2.5h1.6v-1.1h-1.6v-1.65l-1.3.5m5.85 6.9v-5.75h-2.1v1.1h.75v4.65h1.35m13.2 5.8q-.85.85-.85 2.2t.75 2.15q.8.75 2.1.75 1.4 0 2.1-.55l-.5-1.05q-.5.5-1.4.5-.75 0-1.2-.4-.4-.4-.45-1.05h4.1q.1-.5.1-.75 0-1.15-.75-1.9t-2-.75q-1.15 0-2 .85m2.05.25q1.25 0 1.35 1.25h-2.8q.3-1.25 1.45-1.25m3.75-5.9l-.45.45q.15.05.25.2.1.2.1.35 0 .5-.7.5-.2 0-.35-.05l.2.7q.25.05.55.05.6 0 .95-.3.4-.3.4-.8 0-.9-.95-1.1m-16.15 4.9h-1.4l-1.5 3.5-1.35-3.5h-1.45l2.6 5.85h.45l2.65-5.85m1.1 2.5q-.75.6-.75 1.55 0 .9.55 1.35.5.45 1.45.45.5 0 .95-.2.45-.15.65-.45.05.25.3.45.2.2.5.2.25 0 .5-.05.2-.1.35-.35-.45-.3-.45-1.45v-1.25q0-1.65-.65-2.25-.6-.6-1.9-.6-.95 0-1.65.3l.3 1.05q.5-.25 1.25-.25 1.3 0 1.3 1.05-.35-.1-.55-.1-1.4 0-2.15.55m2.7 1.1q0 1.2-1.2 1.2-.9 0-.9-.8 0-1.05 1.6-1.05.15 0 .5.1v.55M632 355.4q-.85 0-1.45.6l-.25-.5h-.9v5.75h1.3v-4.15q.15-.2.45-.4.3-.2.55-.2.5 0 .75.25t.25.7v3.8h1.35v-4.15q.1-.25.4-.4.25-.2.55-.2 1.05 0 1.05 1.15v3.6h1.35v-3.8q0-.95-.55-1.5t-1.5-.55q-.45 0-.9.15-.45.2-.7.45-.6-.6-1.75-.6m10.6.6q-.6-.6-1.9-.6-.95 0-1.65.3l.3 1.05q.5-.25 1.25-.25 1.3 0 1.3 1.05-.35-.1-.55-.1-1.4 0-2.15.55-.75.6-.75 1.55 0 .9.55 1.35.5.45 1.45.45.5 0 .95-.2.45-.15.65-.45.05.25.3.45.2.2.5.2.25 0 .5-.05.2-.1.35-.35-.45-.3-.45-1.45v-1.25q0-1.65-.65-2.25m-1.2 2.45q.15 0 .5.1v.55q0 1.2-1.2 1.2-.9 0-.9-.8 0-1.05 1.6-1.05m-35.3 32.4q0 1.35.75 2.15.8.75 2.1.75 1.4 0 2.1-.55l-.5-1.05q-.5.5-1.4.5-.75 0-1.2-.4-.4-.4-.45-1.05h4.1q.1-.5.1-.75 0-1.15-.75-1.9t-2-.75q-1.15 0-2 .85-.85.85-.85 2.2m4.25-.7h-2.8q.3-1.25 1.45-1.25 1.25 0 1.35 1.25m-4.6-2.25h-1.4l-1.5 3.5-1.35-3.5h-1.45l2.6 5.85h.45l2.65-5.85m1.1-6.45q-.4-.4-.45-1.05h4.1q.1-.5.1-.75 0-1.15-.75-1.9t-2-.75q-1.15 0-2 .85-.85.85-.85 2.2t.75 2.15q.8.75 2.1.75 1.4 0 2.1-.55l-.5-1.05q-.5.5-1.4.5-.75 0-1.2-.4m1.05-3.35q1.25 0 1.35 1.25h-2.8q.3-1.25 1.45-1.25m-7.65-1h-1.35v8h1.35v-2.4q.55.25 1.15.25 1.35 0 2.1-.75t.75-2.2q0-3-2.75-3-.75 0-1.25.5v-.4m.85 4.7q-.45 0-.85-.25v-3.05q.4-.35.85-.35.95 0 1.35.4.4.4.4 1.45 0 .95-.4 1.4-.4.4-1.35.4m4.05-15.6q-1.15 0-2 .85-.85.85-.85 2.2t.75 2.15q.8.75 2.1.75 1.4 0 2.1-.55l-.5-1.05q-.5.5-1.4.5-.75 0-1.2-.4-.4-.4-.45-1.05h4.1q.1-.5.1-.75 0-1.15-.75-1.9t-2-.75m1.4 2.35h-2.8q.3-1.25 1.45-1.25 1.25 0 1.35 1.25m-6.8-15.5l-1.3.3v2.3q-.55-.25-1.2-.25-1.2 0-2 .85t-.8 2.2q0 1.4.7 2.15t1.9.75q.4 0 .8-.15.4-.1.6-.3v.35h1.3v-8.2m-2.2 3.5q.45 0 .9.3v3.05q-.1.1-.4.2-.25.1-.45.1-1.75 0-1.75-1.75 0-.95.45-1.45.4-.45 1.25-.45m4-.3q-.85.85-.85 2.2t.75 2.15q.8.75 2.1.75 1.4 0 2.1-.55l-.5-1.05q-.5.5-1.4.5-.75 0-1.2-.4-.4-.4-.45-1.05h4.1q.1-.5.1-.75 0-1.15-.75-1.9t-2-.75q-1.15 0-2 .85m2.05.25q1.25 0 1.35 1.25h-2.8q.3-1.25 1.45-1.25m3.55-12.25l-.55.6q-.5-.25-1.3-.25-1 0-1.65.6-.7.6-.7 1.5 0 1.2 1 1.8-.3.15-.55.4-.2.3-.2.6 0 1 1.35 1 .25 0 .7-.1.45-.05.65-.05.85 0 .85.55 0 .3-.4.45-.35.15-.95.15-.85 0-1.55-.6l-.85 1.05q1.05.75 2.4.75 1.1 0 1.9-.5.75-.5.75-1.35 0-1.6-1.95-1.6-.3 0-.65.1-.4.1-.6.1-.35 0-.35-.25 0-.1.25-.2.25-.15.3-.15l.2.05h.4q.9 0 1.5-.55.6-.6.6-1.6 0-.7-.35-1.2l.65-.45-.9-.85m-2.5 1.7q.25-.25.75-.25.4 0 .7.3.25.3.25.7 0 .55-.25.85-.25.3-.7.3-.5 0-.8-.3-.25-.3-.25-.85 0-.45.3-.75m-4.8-2.05l1.25-1.55h-1.35l-.9 1.55h1m-1.75 2.05q.5-.25 1.25-.25 1.3 0 1.3 1.05-.35-.1-.55-.1-1.4 0-2.15.55-.75.6-.75 1.55 0 .9.55 1.35.5.45 1.45.45.5 0 .95-.2.45-.15.65-.45.05.25.3.45.2.2.5.2.25 0 .5-.05.2-.1.35-.35-.45-.3-.45-1.45v-1.25q0-1.65-.65-2.25-.6-.6-1.9-.6-.95 0-1.65.3l.3 1.05m2.05 1.7q.15 0 .5.1v.55q0 1.2-1.2 1.2-.9 0-.9-.8 0-1.05 1.6-1.05m-6.35-15.85h-1.4v7.85h4.95v-1.25h-3.55v-6.6m6.5 2q-.95 0-1.65.3l.3 1.05q.5-.25 1.25-.25 1.3 0 1.3 1.05-.35-.1-.55-.1-1.4 0-2.15.55-.75.6-.75 1.55 0 .9.55 1.35.5.45 1.45.45.5 0 .95-.2.45-.15.65-.45.05.25.3.45.2.2.5.2.25 0 .5-.05.2-.1.35-.35-.45-.3-.45-1.45v-1.25q0-1.65-.65-2.25-.6-.6-1.9-.6m.7 3.05q.15 0 .5.1v.55q0 1.2-1.2 1.2-.9 0-.9-.8 0-1.05 1.6-1.05m34.35 8.55q-.7-.8-2.05-.8-1.25 0-2 .8-.75.85-.75 2.15 0 1.35.75 2.2.7.8 2 .8t2.05-.8q.75-.8.75-2.2 0-1.35-.75-2.15m-3.05.8q.4-.5 1-.5 1.4 0 1.4 1.85 0 .9-.4 1.4-.35.5-1 .5-1.35 0-1.35-1.9 0-.9.35-1.35m5.05-1.2q-.55.4-.55 1.15 0 1.15 1.5 1.75.65.3.9.5t.25.55q0 .55-.8.55-.75 0-1.35-.5l-.5 1.1q.55.25.9.35.35.1.95.1 1 0 1.6-.45.6-.45.6-1.25 0-.6-.35-1.05-.35-.4-1.1-.7-.75-.3-.95-.5-.25-.15-.25-.4 0-.55.7-.55.8 0 1.2.4l.4-1.05q-.8-.4-1.7-.4-.85 0-1.45.4m-3.05-11.1h-1.45l2.6 5.85h.45l2.65-5.85h-1.4l-1.5 3.5-1.35-3.5m6.85-.1q-.95 0-1.65.3l.3 1.05q.5-.25 1.25-.25 1.3 0 1.3 1.05-.35-.1-.55-.1-1.4 0-2.15.55-.75.6-.75 1.55 0 .9.55 1.35.5.45 1.45.45.5 0 .95-.2.45-.15.65-.45.05.25.3.45.2.2.5.2.25 0 .5-.05.2-.1.35-.35-.45-.3-.45-1.45v-1.25q0-1.65-.65-2.25-.6-.6-1.9-.6m.7 3.05q.15 0 .5.1v.55q0 1.2-1.2 1.2-.9 0-.9-.8 0-1.05 1.6-1.05m-14.75 7.75q-1.2 0-2 .85t-.8 2.2q0 1.4.7 2.15t1.9.75q.4 0 .8-.15.4-.1.6-.3v.35h1.3v-8.2l-1.3.3v2.3q-.55-.25-1.2-.25m-.95 1.6q.4-.45 1.25-.45.45 0 .9.3v3.05q-.1.1-.4.2-.25.1-.45.1-1.75 0-1.75-1.75 0-.95.45-1.45m.35-10.8q0-.55.7-.55.8 0 1.2.4l.4-1.05q-.8-.4-1.7-.4-.85 0-1.45.4-.55.4-.55 1.15 0 1.15 1.5 1.75.65.3.9.5t.25.55q0 .55-.8.55-.75 0-1.35-.5l-.5 1.1q.55.25.9.35.35.1.95.1 1 0 1.6-.45.6-.45.6-1.25 0-.6-.35-1.05-.35-.4-1.1-.7-.75-.3-.95-.5-.25-.15-.25-.4m-9.2 9.2q-.95 0-1.65.3l.3 1.05q.5-.25 1.25-.25 1.3 0 1.3 1.05-.35-.1-.55-.1-1.4 0-2.15.55-.75.6-.75 1.55 0 .9.55 1.35.5.45 1.45.45.5 0 .95-.2.45-.15.65-.45.05.25.3.45.2.2.5.2.25 0 .5-.05.2-.1.35-.35-.45-.3-.45-1.45v-1.25q0-1.65-.65-2.25-.6-.6-1.9-.6m1.2 3.15v.55q0 1.2-1.2 1.2-.9 0-.9-.8 0-1.05 1.6-1.05.15 0 .5.1m-8.25-3.05h-1.3v3.75q0 2.1 2 2.1.4 0 .9-.15.5-.2.8-.45v.5h1.3v-5.75h-1.3v3.95q-.15.3-.55.55-.4.25-.85.25-1 0-1-1.1v-3.65m4.9-7.5q.1-.5.1-.75 0-1.15-.75-1.9t-2-.75q-1.15 0-2 .85-.85.85-.85 2.2t.75 2.15q.8.75 2.1.75 1.4 0 2.1-.55l-.5-1.05q-.5.5-1.4.5-.75 0-1.2-.4-.4-.4-.45-1.05h4.1m-4.05-1.05q.3-1.25 1.45-1.25 1.25 0 1.35 1.25h-2.8m-1.8-2.25h-1.4l-1.5 3.5-1.35-3.5h-1.45l2.6 5.85h.45l2.65-5.85m12.2-.1q-.95 0-1.65.3l.3 1.05q.5-.25 1.25-.25 1.3 0 1.3 1.05-.35-.1-.55-.1-1.4 0-2.15.55-.75.6-.75 1.55 0 .9.55 1.35.5.45 1.45.45.5 0 .95-.2.45-.15.65-.45.05.25.3.45.2.2.5.2.25 0 .5-.05.2-.1.35-.35-.45-.3-.45-1.45v-1.25q0-1.65-.65-2.25-.6-.6-1.9-.6m1.2 3.15v.55q0 1.2-1.2 1.2-.9 0-.9-.8 0-1.05 1.6-1.05.15 0 .5.1m47.3 51.5l-.25-.55h-.95v5.75h1.3v-4.15q.2-.25.55-.4.35-.2.6-.2.65 0 .95.35.3.35.3 1.1v3.3h1.3v-3.55q0-1.1-.55-1.7-.6-.6-1.65-.6-1.05 0-1.6.65m5.5-.35l.3 1.05q.5-.25 1.25-.25 1.3 0 1.3 1.05-.35-.1-.55-.1-1.4 0-2.15.55-.75.6-.75 1.55 0 .9.55 1.35.5.45 1.45.45.5 0 .95-.2.45-.15.65-.45.05.25.3.45.2.2.5.2.25 0 .5-.05.2-.1.35-.35-.45-.3-.45-1.45v-1.25q0-1.65-.65-2.25-.6-.6-1.9-.6-.95 0-1.65.3m1.65 4.6q-.9 0-.9-.8 0-1.05 1.6-1.05.15 0 .5.1v.55q0 1.2-1.2 1.2m2.9-13.55q-.35-.1-.55-.1-1.4 0-2.15.55-.75.6-.75 1.55 0 .9.55 1.35.5.45 1.45.45.5 0 .95-.2.45-.15.65-.45.05.25.3.45.2.2.5.2.25 0 .5-.05.2-.1.35-.35-.45-.3-.45-1.45v-1.25q0-1.65-.65-2.25-.6-.6-1.9-.6-.95 0-1.65.3l.3 1.05q.5-.25 1.25-.25 1.3 0 1.3 1.05m-.5.9q.15 0 .5.1v.55q0 1.2-1.2 1.2-.9 0-.9-.8 0-1.05 1.6-1.05m-16.1 9.1q.5-.25 1.25-.25 1.3 0 1.3 1.05-.35-.1-.55-.1-1.4 0-2.15.55-.75.6-.75 1.55 0 .9.55 1.35.5.45 1.45.45.5 0 .95-.2.45-.15.65-.45.05.25.3.45.2.2.5.2.25 0 .5-.05.2-.1.35-.35-.45-.3-.45-1.45v-1.25q0-1.65-.65-2.25-.6-.6-1.9-.6-.95 0-1.65.3l.3 1.05m2.55 1.8v.55q0 1.2-1.2 1.2-.9 0-.9-.8 0-1.05 1.6-1.05.15 0 .5.1m-14.35-2.4q-.75-.75-2-.75-1.15 0-2 .85-.85.85-.85 2.2t.75 2.15q.8.75 2.1.75 1.4 0 2.1-.55l-.5-1.05q-.5.5-1.4.5-.75 0-1.2-.4-.4-.4-.45-1.05h4.1q.1-.5.1-.75 0-1.15-.75-1.9m-.6 1.6h-2.8q.3-1.25 1.45-1.25 1.25 0 1.35 1.25m3.35-2.25h-.9v5.75h1.3v-4.15q.15-.2.45-.4.3-.2.55-.2.5 0 .75.25t.25.7v3.8h1.35v-4.15q.1-.25.4-.4.25-.2.55-.2 1.05 0 1.05 1.15v3.6h1.35v-3.8q0-.95-.55-1.5t-1.5-.55q-.45 0-.9.15-.45.2-.7.45-.6-.6-1.75-.6-.85 0-1.45.6l-.25-.5m-3.25-5.75q.75-.8.75-2.2 0-1.35-.75-2.15-.7-.8-2.05-.8-1.25 0-2 .8-.75.85-.75 2.15 0 1.35.75 2.2.7.8 2 .8t2.05-.8m-1.05-.8q-.35.5-1 .5-1.35 0-1.35-1.9 0-.9.35-1.35.4-.5 1-.5 1.4 0 1.4 1.85 0 .9-.4 1.4m6.2-3.95q-.8-.4-1.7-.4-.85 0-1.45.4-.55.4-.55 1.15 0 1.15 1.5 1.75.65.3.9.5t.25.55q0 .55-.8.55-.75 0-1.35-.5l-.5 1.1q.55.25.9.35.35.1.95.1 1 0 1.6-.45.6-.45.6-1.25 0-.6-.35-1.05-.35-.4-1.1-.7-.75-.3-.95-.5-.25-.15-.25-.4 0-.55.7-.55.8 0 1.2.4l.4-1.05m11.25-.3v5.75h1.3v-4.15q.15-.2.45-.4.3-.2.55-.2.5 0 .75.25t.25.7v3.8h1.35v-4.15q.1-.25.4-.4.25-.2.55-.2 1.05 0 1.05 1.15v3.6h1.35v-3.8q0-.95-.55-1.5t-1.5-.55q-.45 0-.9.15-.45.2-.7.45-.6-.6-1.75-.6-.85 0-1.45.6l-.25-.5h-.9m-1.5 0h-1.3v3.95q-.15.3-.55.55-.4.25-.85.25-1 0-1-1.1v-3.65h-1.3v3.75q0 2.1 2 2.1.4 0 .9-.15.5-.2.8-.45v.5h1.3v-5.75m-4.1-13.25l-1.35.3v8h.8l.3-.4q.55.4 1.35.4 1.35 0 2.1-.85.8-.8.8-2.25 0-1.25-.8-2.05-.75-.8-2-.8-.65 0-1.2.3v-2.65m.8 7.15q-.5 0-.8-.35v-3q.3-.3.9-.3 1.7 0 1.7 1.75 0 1-.4 1.45-.4.45-1.4.45m-7.65-4.5l.3 1.05q.5-.25 1.25-.25 1.3 0 1.3 1.05-.35-.1-.55-.1-1.4 0-2.15.55-.75.6-.75 1.55 0 .9.55 1.35.5.45 1.45.45.5 0 .95-.2.45-.15.65-.45.05.25.3.45.2.2.5.2.25 0 .5-.05.2-.1.35-.35-.45-.3-.45-1.45v-1.25q0-1.65-.65-2.25-.6-.6-1.9-.6-.95 0-1.65.3m2.35 2.75q.15 0 .5.1v.55q0 1.2-1.2 1.2-.9 0-.9-.8 0-1.05 1.6-1.05m-5.6-2q.8 0 1.2.4l.4-1.05q-.8-.4-1.7-.4-.85 0-1.45.4-.55.4-.55 1.15 0 1.15 1.5 1.75.65.3.9.5t.25.55q0 .55-.8.55-.75 0-1.35-.5l-.5 1.1q.55.25.9.35.35.1.95.1 1 0 1.6-.45.6-.45.6-1.25 0-.6-.35-1.05-.35-.4-1.1-.7-.75-.3-.95-.5-.25-.15-.25-.4 0-.55.7-.55m-3.25-10.3l.6-1q-.75-.55-1.75-.55-1.45 0-2.3.85-.85.8-.85 2.15 0 1.4.75 2.2.8.75 2.1.75.6 0 1.05-.1.45-.1 1.05-.45l-.5-1.05q-.6.5-1.35.5-1.7 0-1.7-1.85 0-.85.45-1.4.45-.5 1.2-.5.8 0 1.25.45m3.6-1.55q-.95 0-1.65.3l.3 1.05q.5-.25 1.25-.25 1.3 0 1.3 1.05-.35-.1-.55-.1-1.4 0-2.15.55-.75.6-.75 1.55 0 .9.55 1.35.5.45 1.45.45.5 0 .95-.2.45-.15.65-.45.05.25.3.45.2.2.5.2.25 0 .5-.05.2-.1.35-.35-.45-.3-.45-1.45v-1.25q0-1.65-.65-2.25-.6-.6-1.9-.6m.7 3.05q.15 0 .5.1v.55q0 1.2-1.2 1.2-.9 0-.9-.8 0-1.05 1.6-1.05m.1-4.55q-.1 0-.5-.2-.45-.2-.85-.2-.45 0-.75.4-.35.35-.45 1h.8q.2-.45.45-.45.15 0 .6.25.4.2.75.2.45 0 .75-.3.25-.3.5-1.1h-.8q-.15.4-.5.4m-3.75-3.35q.25 0 .5-.05.2-.1.35-.35-.45-.3-.45-1.45v-1.25q0-1.65-.65-2.25-.6-.6-1.9-.6-.95 0-1.65.3l.3 1.05q.5-.25 1.25-.25 1.3 0 1.3 1.05-.35-.1-.55-.1-1.4 0-2.15.55-.75.6-.75 1.55 0 .9.55 1.35.5.45 1.45.45.5 0 .95-.2.45-.15.65-.45.05.25.3.45.2.2.5.2m-.95-2.8v.55q0 1.2-1.2 1.2-.9 0-.9-.8 0-1.05 1.6-1.05.15 0 .5.1m13.05 10.6q0-1.35-.75-2.15-.7-.8-2.05-.8-1.25 0-2 .8-.75.85-.75 2.15 0 1.35.75 2.2.7.8 2 .8t2.05-.8q.75-.8.75-2.2m-2.8-1.85q1.4 0 1.4 1.85 0 .9-.4 1.4-.35.5-1 .5-1.35 0-1.35-1.9 0-.9.35-1.35.4-.5 1-.5M673.3 367q-.75.85-.75 2.15 0 1.35.75 2.2.7.8 2 .8t2.05-.8q.75-.8.75-2.2 0-1.35-.75-2.15-.7-.8-2.05-.8-1.25 0-2 .8m2 4.05q-1.35 0-1.35-1.9 0-.9.35-1.35.4-.5 1-.5 1.4 0 1.4 1.85 0 .9-.4 1.4-.35.5-1 .5m-5.15-2.7q-.35-.1-.55-.1-1.4 0-2.15.55-.75.6-.75 1.55 0 .9.55 1.35.5.45 1.45.45.5 0 .95-.2.45-.15.65-.45.05.25.3.45.2.2.5.2.25 0 .5-.05.2-.1.35-.35-.45-.3-.45-1.45v-1.25q0-1.65-.65-2.25-.6-.6-1.9-.6-.95 0-1.65.3l.3 1.05q.5-.25 1.25-.25 1.3 0 1.3 1.05m-.5.9q.15 0 .5.1v.55q0 1.2-1.2 1.2-.9 0-.9-.8 0-1.05 1.6-1.05m-.4-4.75q-.45-.2-.85-.2-.45 0-.75.4-.35.35-.45 1h.8q.2-.45.45-.45.15 0 .6.25.4.2.75.2.45 0 .75-.3.25-.3.5-1.1h-.8q-.15.4-.5.4-.1 0-.5-.2m2.5-8.3q-.75.85-.75 2.15 0 1.35.75 2.2.7.8 2 .8t2.05-.8q.75-.8.75-2.2 0-1.35-.75-2.15-.7-.8-2.05-.8-1.25 0-2 .8m.65 2.15q0-.9.35-1.35.4-.5 1-.5 1.4 0 1.4 1.85 0 .9-.4 1.4-.35.5-1 .5-1.35 0-1.35-1.9m-2.15-2.4q-.75-.55-1.75-.55-1.45 0-2.3.85-.85.8-.85 2.15 0 1.4.75 2.2.8.75 2.1.75.6 0 1.05-.1.45-.1 1.05-.45l-.5-1.05q-.6.5-1.35.5-1.7 0-1.7-1.85 0-.85.45-1.4.45-.5 1.2-.5.8 0 1.25.45l.6-1m8.7 1.15q.15-.2.45-.4.3-.2.55-.2.5 0 .75.25t.25.7v3.8h1.35v-4.15q.1-.25.4-.4.25-.2.55-.2 1.05 0 1.05 1.15v3.6h1.35v-3.8q0-.95-.55-1.5t-1.5-.55q-.45 0-.9.15-.45.2-.7.45-.6-.6-1.75-.6-.85 0-1.45.6l-.25-.5h-.9v5.75h1.3v-4.15m.7-12.1q-.55.4-.55 1.15 0 1.15 1.5 1.75.65.3.9.5t.25.55q0 .55-.8.55-.75 0-1.35-.5l-.5 1.1q.55.25.9.35.35.1.95.1 1 0 1.6-.45.6-.45.6-1.25 0-.6-.35-1.05-.35-.4-1.1-.7-.75-.3-.95-.5-.25-.15-.25-.4 0-.55.7-.55.8 0 1.2.4l.4-1.05q-.8-.4-1.7-.4-.85 0-1.45.4m8.75-8.55q0-1.15-.75-1.9t-2-.75q-1.15 0-2 .85-.85.85-.85 2.2t.75 2.15q.8.75 2.1.75 1.4 0 2.1-.55l-.5-1.05q-.5.5-1.4.5-.75 0-1.2-.4-.4-.4-.45-1.05h4.1q.1-.5.1-.75m-4.15-.3q.3-1.25 1.45-1.25 1.25 0 1.35 1.25h-2.8m-8.45 8.55v1.1h.75v4.65h1.35v-5.75h-2.1m1.45-2.25q-.35 0-.55.25-.25.25-.25.55 0 .3.25.55.2.25.55.25.3 0 .55-.25.2-.25.2-.55 0-.3-.2-.55-.25-.25-.55-.25m-5.05 2.15q-.95 0-1.65.3l.3 1.05q.5-.25 1.25-.25 1.3 0 1.3 1.05-.35-.1-.55-.1-1.4 0-2.15.55-.75.6-.75 1.55 0 .9.55 1.35.5.45 1.45.45.5 0 .95-.2.45-.15.65-.45.05.25.3.45.2.2.5.2.25 0 .5-.05.2-.1.35-.35-.45-.3-.45-1.45v-1.25q0-1.65-.65-2.25-.6-.6-1.9-.6m1.2 3.15v.55q0 1.2-1.2 1.2-.9 0-.9-.8 0-1.05 1.6-1.05.15 0 .5.1m-1.7-12.5l.4-1.05q-.8-.4-1.7-.4-.85 0-1.45.4-.55.4-.55 1.15 0 1.15 1.5 1.75.65.3.9.5t.25.55q0 .55-.8.55-.75 0-1.35-.5l-.5 1.1q.55.25.9.35.35.1.95.1 1 0 1.6-.45.6-.45.6-1.25 0-.6-.35-1.05-.35-.4-1.1-.7-.75-.3-.95-.5-.25-.15-.25-.4 0-.55.7-.55.8 0 1.2.4m10.15-3.8l-1.3.3v2.3q-.55-.25-1.2-.25-1.2 0-2 .85t-.8 2.2q0 1.4.7 2.15t1.9.75q.4 0 .8-.15.4-.1.6-.3v.35h1.3v-8.2m-3.45 3.95q.4-.45 1.25-.45.45 0 .9.3v3.05q-.1.1-.4.2-.25.1-.45.1-1.75 0-1.75-1.75 0-.95.45-1.45m-16.35 9.8l-.25-.5h-.9v5.75h1.3v-4.15q.15-.2.45-.4.3-.2.55-.2.5 0 .75.25t.25.7v3.8h1.35v-4.15q.1-.25.4-.4.25-.2.55-.2 1.05 0 1.05 1.15v3.6h1.35v-3.8q0-.95-.55-1.5t-1.5-.55q-.45 0-.9.15-.45.2-.7.45-.6-.6-1.75-.6-.85 0-1.45.6m-4.85.6h.75v4.65h1.35v-5.75h-2.1v1.1m.9-3.1q-.25.25-.25.55 0 .3.25.55.2.25.55.25.3 0 .55-.25.2-.25.2-.55 0-.3-.2-.55-.25-.25-.55-.25-.35 0-.55.25m-5.8 2.55l-.25-.55h-.95v5.75h1.3v-4.15q.2-.25.55-.4.35-.2.6-.2.65 0 .95.35.3.35.3 1.1v3.3h1.3v-3.55q0-1.1-.55-1.7-.6-.6-1.65-.6-1.05 0-1.6.65m-3.5-7.2q0-.6-.35-1.05-.35-.4-1.1-.7-.75-.3-.95-.5-.25-.15-.25-.4 0-.55.7-.55.8 0 1.2.4l.4-1.05q-.8-.4-1.7-.4-.85 0-1.45.4-.55.4-.55 1.15 0 1.15 1.5 1.75.65.3.9.5t.25.55q0 .55-.8.55-.75 0-1.35-.5l-.5 1.1q.55.25.9.35.35.1.95.1 1 0 1.6-.45.6-.45.6-1.25m9-6.6l-1.35.3v7.9h1.35v-4.15q.15-.2.45-.4.35-.15.7-.15.55 0 .85.3.35.3.35.85v3.55h1.35v-3.55q0-1.1-.6-1.7-.6-.6-1.7-.6-.9 0-1.4.45v-2.8m-3.05 0l-1.35.3v6.75q0 1.25.9 1.25.75 0 1.1-.6-.65-.2-.65-1.25v-6.45m-3.15 2.45h-2.1v1.1h.75v4.65h1.35v-5.75m-1.45-1.45q0 .3.25.55.2.25.55.25.3 0 .55-.25.2-.25.2-.55 0-.3-.2-.55-.25-.25-.55-.25-.35 0-.55.25-.25.25-.25.55m14.65 1.35q-.95 0-1.65.3l.3 1.05q.5-.25 1.25-.25 1.3 0 1.3 1.05-.35-.1-.55-.1-1.4 0-2.15.55-.75.6-.75 1.55 0 .9.55 1.35.5.45 1.45.45.5 0 .95-.2.45-.15.65-.45.05.25.3.45.2.2.5.2.25 0 .5-.05.2-.1.35-.35-.45-.3-.45-1.45v-1.25q0-1.65-.65-2.25-.6-.6-1.9-.6m0 4.9q-.9 0-.9-.8 0-1.05 1.6-1.05.15 0 .5.1v.55q0 1.2-1.2 1.2z" id="c"/><path id="b" stroke="#8CA8B8" stroke-linejoin="round" stroke-linecap="round" fill="none" d="M694.75 309.85q4.1 0 7 2.95 2.95 2.9 2.95 7v81.6q-.1 3.95-2.95 6.75-2.9 2.95-7 2.95H586.1q-4.1 0-7-2.95-2.8-2.8-2.9-6.75v-81.6q0-4.1 2.9-7 2.9-2.95 7-2.95h108.6"/></defs><g transform="translate(-573.95 -307.45)"><use xlink:href="#a"/><use xlink:href="#b"/></g><use xlink:href="#c" transform="translate(-573.95 -307.45)"/></svg>