<svg xmlns="http://www.w3.org/2000/svg" xmlns:xlink="http://www.w3.org/1999/xlink" preserveAspectRatio="none" width="129" height="102" viewBox="0 0 129 102"><defs><g id="a"><path fill="#9C0" d="M128.75 10.35q0-4.1-2.95-7-2.9-2.95-7-2.95H10.15q-4.1 0-7 2.95-2.9 2.9-2.9 7v81.6q.1 3.95 2.9 6.75 2.9 2.95 7 2.95H118.8q4.1 0 7-2.95 2.85-2.8 2.95-6.75v-81.6M96.2 36.7q.85-.9 2.2-.9 1.45 0 2.2.85.8.9.8 2.4t-.8 2.4q-.8.85-2.2.85-1.45 0-2.2-.85-.8-.9-.8-2.4 0-1.45.8-2.35m-14.85-.9q1.25 0 1.9.7.3-.3.75-.5.5-.2 1-.2 1.05 0 1.65.6.55.6.55 1.65v4.15h-1.45v-3.95q0-1.2-1.1-1.2-.35 0-.65.2-.3.15-.4.4v4.55h-1.5v-4.15q0-.45-.25-.75-.3-.25-.8-.25-.3 0-.6.2-.35.2-.5.45v4.5H78.5v-6.3h1l.3.6q.6-.7 1.55-.7m7.3.1h1.5v.45q.55-.55 1.35-.55 3 0 3 3.3 0 1.55-.85 2.4-.8.8-2.25.8-.7 0-1.25-.25v2.6h-1.5V35.9m25.4-.1q1.35 0 2.2.8.8.85.8 2.1 0 .25-.1.8h-4.5q.05.75.55 1.2.45.4 1.25.4 1 0 1.55-.55l.55 1.15q-.8.6-2.3.6-1.45 0-2.3-.8-.8-.85-.8-2.35t.9-2.4q.9-.95 2.2-.95m-11.25.45q.6-.45 1.6-.45.95 0 1.85.45l-.45 1.15q-.45-.45-1.35-.45-.75 0-.75.65 0 .2.25.4t1.1.55q.8.3 1.15.75.4.5.4 1.15 0 .85-.65 1.35-.65.5-1.75.5-.65 0-1-.1-.4-.1-1-.4l.55-1.15q.65.5 1.45.5.85 0 .85-.6 0-.35-.25-.6-.25-.2-1-.55-1.6-.65-1.6-1.85 0-.85.6-1.3m5.85 16.15q-.45-.45-1.35-.45-.75 0-.75.65 0 .2.25.4t1.1.55q.8.3 1.15.75.4.5.4 1.15 0 .85-.65 1.35-.65.5-1.75.5-.65 0-1-.1-.4-.1-1-.4l.55-1.15q.65.5 1.45.5.85 0 .85-.6 0-.35-.25-.6-.25-.2-1-.55-1.6-.65-1.6-1.85 0-.85.6-1.3.6-.45 1.6-.45.95 0 1.85.45l-.45 1.15m-5.2-.75q.8.9.8 2.4t-.8 2.4q-.8.85-2.2.85-1.45 0-2.2-.85-.8-.9-.8-2.4 0-1.45.8-2.35.85-.9 2.2-.9 1.45 0 2.2.85M93.5 54.3q.4.5.4 1.15 0 .85-.65 1.35-.65.5-1.75.5-.65 0-1-.1-.4-.1-1-.4l.55-1.15q.65.5 1.45.5.85 0 .85-.6 0-.35-.25-.6-.25-.2-1-.55-1.6-.65-1.6-1.85 0-.85.6-1.3.6-.45 1.6-.45.95 0 1.85.45l-.45 1.15q-.45-.45-1.35-.45-.75 0-.75.65 0 .2.25.4t1.1.55q.8.3 1.15.75m-5.6-2.65q.8.9.8 2.4t-.8 2.4q-.8.85-2.2.85-1.45 0-2.2-.85-.8-.9-.8-2.4 0-1.45.8-2.35.85-.9 2.2-.9 1.45 0 2.2.85m-6.25-3.4v8.95H80.2v-.4q-.2.2-.65.35-.4.15-.9.15-1.3 0-2.05-.8-.75-.85-.75-2.35 0-1.45.85-2.4.9-.95 2.2-.95.7 0 1.3.3v-2.5l1.45-.35M57.3 35.8q1.15 0 1.8.65.65.65.65 1.9v3.85H58.3v-3.85q0-.6-.35-.95t-.95-.35q-.35 0-.75.2-.35.2-.5.45v4.5h-1.5v-8.6l1.5-.35v3.05q.55-.5 1.55-.5m-8.85.7q.6-.7 1.8-.7 1.1 0 1.75.7.65.65.65 1.85v3.85H51.2v-3.65q0-.8-.35-1.15-.3-.35-1-.35-.3 0-.65.15-.4.2-.6.45v4.55h-1.45v-6.3h1.05l.25.6m-5.5-.7q1.35 0 2.2.8.8.85.8 2.1 0 .25-.1.8h-4.5q.05.75.55 1.2.45.4 1.25.4 1 0 1.55-.55l.55 1.15q-.8.6-2.3.6-1.45 0-2.3-.8-.8-.85-.8-2.35t.9-2.4q.9-.95 2.2-.95m28.65-2.2l1.45-.35v7.05q0 1.15.7 1.35-.35.65-1.15.65-1 0-1-1.35V33.6m3.85 1.35q-.25-.25-.25-.6t.25-.6q.25-.25.6-.25t.6.25q.25.25.25.6t-.25.6q-.25.25-.6.25t-.6-.25m-.95.95h2.25v6.3H75.3v-5.05h-.8V35.9m-12.9.25q.75-.35 1.8-.35 1.4 0 2.1.65.65.65.65 2.5v1.35q0 1.25.5 1.55-.2.3-.4.4-.2.05-.5.05t-.6-.2q-.25-.25-.3-.55-.2.35-.7.55-.5.2-1.05.2-1 0-1.6-.5-.55-.5-.55-1.45 0-1.05.8-1.7.8-.6 2.3-.6.3 0 .65.1 0-1.1-1.4-1.1-.85 0-1.4.25l-.3-1.15M73.7 48.5q.35 0 .6.25t.25.6q0 .35-.25.6t-.6.25q-.35 0-.6-.25t-.25-.6q0-.35.25-.6t.6-.25M18.6 33.6h.8l1.75 8.6h-1.5l-.9-4.6-1.7 4.7h-.55l-1.75-4.7-.9 4.6h-1.5l1.75-8.6h.8l1.85 5.8 1.85-5.8m12.9 2.2q1.1 0 1.75.7.65.65.65 1.85v3.85h-1.45v-3.65q0-.8-.35-1.15-.3-.35-1-.35-.3 0-.65.15-.4.2-.6.45v4.55H28.4v-6.3h1.05l.25.6q.6-.7 1.8-.7m3.5 1.3v-1.2h.7v-1.25l1.5-.55v1.8h1.7v1.2h-1.7v2.75q0 .65.2.95.2.3.75.3.5 0 .95-.3v1.35q-.5.15-1.45.15t-1.45-.5q-.5-.55-.5-1.5v-3.2H35m-12.75-.95q.75-.35 1.8-.35 1.4 0 2.1.65.65.65.65 2.5v1.35q0 1.25.5 1.55-.2.3-.4.4-.2.05-.5.05t-.6-.2q-.25-.25-.3-.55-.2.35-.7.55-.5.2-1.05.2-1 0-1.6-.5-.55-.5-.55-1.45 0-1.05.8-1.7.8-.6 2.3-.6.3 0 .65.1 0-1.1-1.4-1.1-.85 0-1.4.25l-.3-1.15m2.5 12.45l1.45-.35v8.95h-1.45v-.4q-.2.2-.65.35-.4.15-.9.15-1.3 0-2.05-.8-.75-.85-.75-2.35 0-1.45.85-2.4.9-.95 2.2-.95.7 0 1.3.3v-2.5m13 3.8q-.45-.45-1.35-.45-.75 0-.75.65 0 .2.25.4t1.1.55q.8.3 1.15.75.4.5.4 1.15 0 .85-.65 1.35-.65.5-1.75.5-.65 0-1-.1-.4-.1-1-.4l.55-1.15q.65.5 1.45.5.85 0 .85-.6 0-.35-.25-.6-.25-.2-1-.55-1.6-.65-1.6-1.85 0-.85.6-1.3.6-.45 1.6-.45.95 0 1.85.45l-.45 1.15m1.55 1.75q0-1.5.9-2.4.9-.95 2.2-.95 1.35 0 2.2.8.8.85.8 2.1 0 .25-.1.8h-4.5q.05.75.55 1.2.45.4 1.25.4 1 0 1.55-.55l.55 1.15q-.8.6-2.3.6-1.45 0-2.3-.8-.8-.85-.8-2.35m-5.95-.45q0 .25-.1.8h-4.5q.05.75.55 1.2.45.4 1.25.4 1 0 1.55-.55l.55 1.15q-.8.6-2.3.6-1.45 0-2.3-.8-.8-.85-.8-2.35t.9-2.4q.9-.95 2.2-.95 1.35 0 2.2.8.8.85.8 2.1m39.6-1.55h-.8V50.9h2.25v6.3h-1.45v-5.05m-6.05-.8q.55-.55 1.35-.55 3 0 3 3.3 0 1.55-.85 2.4-.8.8-2.25.8-.7 0-1.25-.25v2.6h-1.5V50.9h1.5v.45m-4.4 3.9V50.9h1.45v6.3H62.5v-.5q-.35.25-.85.45-.55.15-1 .15-2.2 0-2.2-2.3v-4.1h1.45v4q0 1.2 1.1 1.2.5 0 .9-.25.45-.25.6-.6m5.1 11.45q.85-.9 2.2-.9 1.45 0 2.2.85.8.9.8 2.4t-.8 2.4q-.8.85-2.2.85-1.45 0-2.2-.85-.8-.9-.8-2.4 0-1.45.8-2.35m-3.7-3.1l1.45-.35v7.05q0 1.15.7 1.35-.35.65-1.15.65-1 0-1-1.35V63.6m-1.75 8.65q-.2.05-.5.05t-.6-.2q-.25-.25-.3-.55-.2.35-.7.55-.5.2-1.05.2-1 0-1.6-.5-.55-.5-.55-1.45 0-1.05.8-1.7.8-.6 2.3-.6.3 0 .65.1 0-1.1-1.4-1.1-.85 0-1.4.25l-.3-1.15q.75-.35 1.8-.35 1.4 0 2.1.65.65.65.65 2.5v1.35q0 1.25.5 1.55-.2.3-.4.4m15.5-6l-.45 1.15q-.45-.45-1.35-.45-.75 0-.75.65 0 .2.25.4t1.1.55q.8.3 1.15.75.4.5.4 1.15 0 .85-.65 1.35-.65.5-1.75.5-.65 0-1-.1-.4-.1-1-.4l.55-1.15q.65.5 1.45.5.85 0 .85-.6 0-.35-.25-.6-.25-.2-1-.55-1.6-.65-1.6-1.85 0-.85.6-1.3.6-.45 1.6-.45.95 0 1.85.45M57.1 50.9v1.2h-1.7v2.75q0 .65.2.95.2.3.75.3.5 0 .95-.3v1.35q-.5.15-1.45.15t-1.45-.5q-.5-.55-.5-1.5v-3.2h-.7v-1.2h.7v-1.25l1.5-.55v1.8h1.7m-5.65.6q.65.65.65 1.85v3.85h-1.45v-3.65q0-.8-.35-1.15-.3-.35-1-.35-.3 0-.65.15-.4.2-.6.45v4.55H46.6v-6.3h1.05l.25.6q.6-.7 1.8-.7 1.1 0 1.75.7m4.9 14.55l-.65 1.25q-.35-.25-.85-.25t-.9.45q-.4.45-.4 1.15v3.55H52.1v-6.3h1.45v.6q.6-.7 1.65-.7.75 0 1.15.25m4.25 3.2q-.4-.1-.55-.1-1.75 0-1.75 1.15 0 .85.95.85 1.35 0 1.35-1.3v-.6M69.8 67q-.7 0-1.1.55-.4.55-.4 1.5 0 2.05 1.5 2.05.7 0 1.1-.5.4-.55.4-1.55 0-2.05-1.5-2.05m-.5-11.4q.4-.5.4-1.55 0-1.1-.4-1.55-.45-.45-1.45-.45-.55 0-.95.4v3.3q.4.35.9.35 1.05 0 1.5-.5m-38.95-3.55q-1.25 0-1.55 1.35h3.1q-.15-1.35-1.55-1.35m10.5 1.35h3.1q-.15-1.35-1.55-1.35-1.25 0-1.55 1.35m-18.45-.8q-.5.5-.5 1.5 0 2 1.9 2 .2 0 .55-.15.3-.1.4-.25v-3.3q-.5-.35-1-.35-.9 0-1.35.55m2.95-12.75v-.6q-.4-.1-.55-.1-1.75 0-1.75 1.15 0 .85.95.85 1.35 0 1.35-1.3m39.35-.6q-.4-.1-.55-.1-1.75 0-1.75 1.15 0 .85.95.85 1.35 0 1.35-1.3v-.6m-23.3-.85h3.1q-.15-1.35-1.55-1.35-1.25 0-1.55 1.35m38.8 14q-.5-.35-1-.35-.9 0-1.35.55-.5.5-.5 1.5 0 2 1.9 2 .2 0 .55-.15.3-.1.4-.25v-3.3m6.6 3.2q.4-.55.4-1.55 0-2.05-1.5-2.05-.7 0-1.1.55-.4.55-.4 1.5 0 2.05 1.5 2.05.7 0 1.1-.5m15.55 0q.4-.55.4-1.55 0-2.05-1.5-2.05-.7 0-1.1.55-.4.55-.4 1.5 0 2.05 1.5 2.05.7 0 1.1-.5m10.15-17.2h3.1q-.15-1.35-1.55-1.35-1.25 0-1.55 1.35m-22.35 2.35q.4.35.9.35 1.05 0 1.5-.5.4-.5.4-1.55 0-1.1-.4-1.55-.45-.45-1.45-.45-.55 0-.95.4v3.3m7.15-3.2q-.4.55-.4 1.5 0 2.05 1.5 2.05.7 0 1.1-.5.4-.55.4-1.55 0-2.05-1.5-2.05-.7 0-1.1.55z"/><path d="M55.7 67.3l.65-1.25q-.4-.25-1.15-.25-1.05 0-1.65.7v-.6H52.1v6.3h1.45v-3.55q0-.7.4-1.15.4-.45.9-.45t.85.25m-3.6-13.95q0-1.2-.65-1.85-.65-.7-1.75-.7-1.2 0-1.8.7l-.25-.6H46.6v6.3h1.45v-4.55q.2-.25.6-.45.35-.15.65-.15.7 0 1 .35.35.35.35 1.15v3.65h1.45v-3.85m5-1.25v-1.2h-1.7v-1.8l-1.5.55v1.25h-.7v1.2h.7v3.2q0 .95.5 1.5.5.5 1.45.5t1.45-.15V55.8q-.45.3-.95.3-.55 0-.75-.3-.2-.3-.2-.95V52.1h1.7m20.1 15.3l.45-1.15q-.9-.45-1.85-.45-1 0-1.6.45-.6.45-.6 1.3 0 1.2 1.6 1.85.75.35 1 .55.25.25.25.6 0 .6-.85.6-.8 0-1.45-.5l-.55 1.15q.6.3 1 .4.35.1 1 .1 1.1 0 1.75-.5.65-.5.65-1.35 0-.65-.4-1.15-.35-.45-1.15-.75-.85-.35-1.1-.55-.25-.2-.25-.4 0-.65.75-.65.9 0 1.35.45m-15.55 4.9q.3 0 .5-.05.2-.1.4-.4-.5-.3-.5-1.55v-1.35q0-1.85-.65-2.5-.7-.65-2.1-.65-1.05 0-1.8.35l.3 1.15q.55-.25 1.4-.25 1.4 0 1.4 1.1-.35-.1-.65-.1-1.5 0-2.3.6-.8.65-.8 1.7 0 .95.55 1.45.6.5 1.6.5.55 0 1.05-.2t.7-.55q.05.3.3.55.3.2.6.2m-1.6-3.15q.15 0 .55.1v.6q0 1.3-1.35 1.3-.95 0-.95-.85 0-1.15 1.75-1.15m5.3-5.9l-1.45.35v7.35q0 1.35 1 1.35.8 0 1.15-.65-.7-.2-.7-1.35v-7.05m4.45 2.55q-1.35 0-2.2.9-.8.9-.8 2.35 0 1.5.8 2.4.75.85 2.2.85 1.4 0 2.2-.85.8-.9.8-2.4t-.8-2.4q-.75-.85-2.2-.85m-1.1 1.75q.4-.55 1.1-.55 1.5 0 1.5 2.05 0 1-.4 1.55-.4.5-1.1.5-1.5 0-1.5-2.05 0-.95.4-1.5M62.5 50.9v4.35q-.15.35-.6.6-.4.25-.9.25-1.1 0-1.1-1.2v-4h-1.45V55q0 2.3 2.2 2.3.45 0 1-.15.5-.2.85-.45v.5h1.45v-6.3H62.5m5.75-.1q-.8 0-1.35.55v-.45h-1.5v8.75h1.5v-2.6q.55.25 1.25.25 1.45 0 2.25-.8.85-.85.85-2.4 0-3.3-3-3.3m1.45 3.25q0 1.05-.4 1.55-.45.5-1.5.5-.5 0-.9-.35v-3.3q.4-.4.95-.4 1 0 1.45.45.4.45.4 1.55m2.45-1.9h.8v5.05h1.45v-6.3h-2.25v1.25m-38.9 2.35q.1-.55.1-.8 0-1.25-.8-2.1-.85-.8-2.2-.8-1.3 0-2.2.95-.9.9-.9 2.4t.8 2.35q.85.8 2.3.8 1.5 0 2.3-.6l-.55-1.15q-.55.55-1.55.55-.8 0-1.25-.4-.5-.45-.55-1.2h4.5m-4.45-1.1q.3-1.35 1.55-1.35 1.4 0 1.55 1.35h-3.1m11.4-1.65q-.9.9-.9 2.4t.8 2.35q.85.8 2.3.8 1.5 0 2.3-.6l-.55-1.15q-.55.55-1.55.55-.8 0-1.25-.4-.5-.45-.55-1.2h4.5q.1-.55.1-.8 0-1.25-.8-2.1-.85-.8-2.2-.8-1.3 0-2.2.95m3.75 1.65h-3.1q.3-1.35 1.55-1.35 1.4 0 1.55 1.35m-7.55-1.45q.9 0 1.35.45l.45-1.15q-.9-.45-1.85-.45-1 0-1.6.45-.6.45-.6 1.3 0 1.2 1.6 1.85.75.35 1 .55.25.25.25.6 0 .6-.85.6-.8 0-1.45-.5l-.55 1.15q.6.3 1 .4.35.1 1 .1 1.1 0 1.75-.5.65-.5.65-1.35 0-.65-.4-1.15-.35-.45-1.15-.75-.85-.35-1.1-.55-.25-.2-.25-.4 0-.65.75-.65m-10.2-3.7l-1.45.35v2.5q-.6-.3-1.3-.3-1.3 0-2.2.95-.85.95-.85 2.4 0 1.5.75 2.35.75.8 2.05.8.5 0 .9-.15.45-.15.65-.35v.4h1.45v-8.95m-4.3 5.85q0-1 .5-1.5.45-.55 1.35-.55.5 0 1 .35v3.3q-.1.15-.4.25-.35.15-.55.15-1.9 0-1.9-2m2.15-18.3q-1.05 0-1.8.35l.3 1.15q.55-.25 1.4-.25 1.4 0 1.4 1.1-.35-.1-.65-.1-1.5 0-2.3.6-.8.65-.8 1.7 0 .95.55 1.45.6.5 1.6.5.55 0 1.05-.2t.7-.55q.05.3.3.55.3.2.6.2t.5-.05q.2-.1.4-.4-.5-.3-.5-1.55v-1.35q0-1.85-.65-2.5-.7-.65-2.1-.65m1.3 3.45v.6q0 1.3-1.35 1.3-.95 0-.95-.85 0-1.15 1.75-1.15.15 0 .55.1M35 35.9v1.2h.7v3.2q0 .95.5 1.5.5.5 1.45.5t1.45-.15V40.8q-.45.3-.95.3-.55 0-.75-.3-.2-.3-.2-.95V37.1h1.7v-1.2h-1.7v-1.8l-1.5.55v1.25H35m-1.75.6q-.65-.7-1.75-.7-1.2 0-1.8.7l-.25-.6H28.4v6.3h1.45v-4.55q.2-.25.6-.45.35-.15.65-.15.7 0 1 .35.35.35.35 1.15v3.65h1.45v-3.85q0-1.2-.65-1.85M19.4 33.6h-.8l-1.85 5.8-1.85-5.8h-.8l-1.75 8.6h1.5l.9-4.6 1.75 4.7h.55l1.7-4.7.9 4.6h1.5l-1.75-8.6m54.9 15.15q-.25-.25-.6-.25t-.6.25q-.25.25-.25.6t.25.6q.25.25.6.25t.6-.25q.25-.25.25-.6t-.25-.6M63.4 35.8q-1.05 0-1.8.35l.3 1.15q.55-.25 1.4-.25 1.4 0 1.4 1.1-.35-.1-.65-.1-1.5 0-2.3.6-.8.65-.8 1.7 0 .95.55 1.45.6.5 1.6.5.55 0 1.05-.2t.7-.55q.05.3.3.55.3.2.6.2t.5-.05q.2-.1.4-.4-.5-.3-.5-1.55v-1.35q0-1.85-.65-2.5-.7-.65-2.1-.65m.75 3.35q.15 0 .55.1v.6q0 1.3-1.35 1.3-.95 0-.95-.85 0-1.15 1.75-1.15m12.6-3.25H74.5v1.25h.8v5.05h1.45v-6.3m-1.55-1.55q0 .35.25.6t.6.25q.35 0 .6-.25t.25-.6q0-.35-.25-.6t-.6-.25q-.35 0-.6.25t-.25.6m-2.15-1.1l-1.45.35v7.35q0 1.35 1 1.35.8 0 1.15-.65-.7-.2-.7-1.35v-7.05m-27.9 3.35q-.85-.8-2.2-.8-1.3 0-2.2.95-.9.9-.9 2.4t.8 2.35q.85.8 2.3.8 1.5 0 2.3-.6l-.55-1.15q-.55.55-1.55.55-.8 0-1.25-.4-.5-.45-.55-1.2h4.5q.1-.55.1-.8 0-1.25-.8-2.1m-.65 1.8h-3.1q.3-1.35 1.55-1.35 1.4 0 1.55 1.35m5.75-2.6q-1.2 0-1.8.7l-.25-.6h-1.05v6.3h1.45v-4.55q.2-.25.6-.45.35-.15.65-.15.7 0 1 .35.35.35.35 1.15v3.65h1.45v-3.85q0-1.2-.65-1.85-.65-.7-1.75-.7m8.85.65q-.65-.65-1.8-.65-1 0-1.55.5v-3.05l-1.5.35v8.6h1.5v-4.5q.15-.25.5-.45.4-.2.75-.2.6 0 .95.35t.35.95v3.85h1.45v-3.85q0-1.25-.65-1.9M81.65 57.2v-8.95l-1.45.35v2.5q-.6-.3-1.3-.3-1.3 0-2.2.95-.85.95-.85 2.4 0 1.5.75 2.35.75.8 2.05.8.5 0 .9-.15.45-.15.65-.35v.4h1.45m-2.45-5.15q.5 0 1 .35v3.3q-.1.15-.4.25-.35.15-.55.15-1.9 0-1.9-2 0-1 .5-1.5.45-.55 1.35-.55m9.5 2q0-1.5-.8-2.4-.75-.85-2.2-.85-1.35 0-2.2.9-.8.9-.8 2.35 0 1.5.8 2.4.75.85 2.2.85 1.4 0 2.2-.85.8-.9.8-2.4m-1.5 0q0 1-.4 1.55-.4.5-1.1.5-1.5 0-1.5-2.05 0-.95.4-1.5t1.1-.55q1.5 0 1.5 2.05m6.7 1.4q0-.65-.4-1.15-.35-.45-1.15-.75-.85-.35-1.1-.55-.25-.2-.25-.4 0-.65.75-.65.9 0 1.35.45l.45-1.15q-.9-.45-1.85-.45-1 0-1.6.45-.6.45-.6 1.3 0 1.2 1.6 1.85.75.35 1 .55.25.25.25.6 0 .6-.85.6-.8 0-1.45-.5l-.55 1.15q.6.3 1 .4.35.1 1 .1 1.1 0 1.75-.5.65-.5.65-1.35m10.35-1.4q0-1.5-.8-2.4-.75-.85-2.2-.85-1.35 0-2.2.9-.8.9-.8 2.35 0 1.5.8 2.4.75.85 2.2.85 1.4 0 2.2-.85.8-.9.8-2.4m-1.5 0q0 1-.4 1.55-.4.5-1.1.5-1.5 0-1.5-2.05 0-.95.4-1.5t1.1-.55q1.5 0 1.5 2.05m4.55-2.1q.9 0 1.35.45l.45-1.15q-.9-.45-1.85-.45-1 0-1.6.45-.6.45-.6 1.3 0 1.2 1.6 1.85.75.35 1 .55.25.25.25.6 0 .6-.85.6-.8 0-1.45-.5l-.55 1.15q.6.3 1 .4.35.1 1 .1 1.1 0 1.75-.5.65-.5.65-1.35 0-.65-.4-1.15-.35-.45-1.15-.75-.85-.35-1.1-.55-.25-.2-.25-.4 0-.65.75-.65m-2.9-16.15q-1 0-1.6.45-.6.45-.6 1.3 0 1.2 1.6 1.85.75.35 1 .55.25.25.25.6 0 .6-.85.6-.8 0-1.45-.5l-.55 1.15q.6.3 1 .4.35.1 1 .1 1.1 0 1.75-.5.65-.5.65-1.35 0-.65-.4-1.15-.35-.45-1.15-.75-.85-.35-1.1-.55-.25-.2-.25-.4 0-.65.75-.65.9 0 1.35.45l.45-1.15q-.9-.45-1.85-.45m11.85.8q-.85-.8-2.2-.8-1.3 0-2.2.95-.9.9-.9 2.4t.8 2.35q.85.8 2.3.8 1.5 0 2.3-.6l-.55-1.15q-.55.55-1.55.55-.8 0-1.25-.4-.5-.45-.55-1.2h4.5q.1-.55.1-.8 0-1.25-.8-2.1m-.65 1.8h-3.1q.3-1.35 1.55-1.35 1.4 0 1.55 1.35m-25.45-2.5h-1.5v8.75h1.5v-2.6q.55.25 1.25.25 1.45 0 2.25-.8.85-.85.85-2.4 0-3.3-3-3.3-.8 0-1.35.55v-.45m.9 5.2q-.5 0-.9-.35v-3.3q.4-.4.95-.4 1 0 1.45.45.4.45.4 1.55 0 1.05-.4 1.55-.45.5-1.5.5m-7.8-4.6q-.65-.7-1.9-.7-.95 0-1.55.7l-.3-.6h-1v6.3h1.45v-4.5q.15-.25.5-.45.3-.2.6-.2.5 0 .8.25.25.3.25.75v4.15h1.5v-4.55q.1-.25.4-.4.3-.2.65-.2 1.1 0 1.1 1.2v3.95h1.45v-4.15q0-1.05-.55-1.65-.6-.6-1.65-.6-.5 0-1 .2-.45.2-.75.5m15.15-.7q-1.35 0-2.2.9-.8.9-.8 2.35 0 1.5.8 2.4.75.85 2.2.85 1.4 0 2.2-.85.8-.9.8-2.4t-.8-2.4q-.75-.85-2.2-.85m-1.5 3.25q0-.95.4-1.5t1.1-.55q1.5 0 1.5 2.05 0 1-.4 1.55-.4.5-1.1.5-1.5 0-1.5-2.05z"/></g><path id="b" stroke="#8CA8B8" stroke-linejoin="round" stroke-linecap="round" fill="none" d="M118.8.4q4.1 0 7 2.95 2.95 2.9 2.95 7v81.6q-.1 3.95-2.95 6.75-2.9 2.95-7 2.95H10.15q-4.1 0-7-2.95-2.8-2.8-2.9-6.75v-81.6q0-4.1 2.9-7Q6.05.4 10.15.4h108.6"/></defs><g><use xlink:href="#a"/><use xlink:href="#b"/></g></svg>