
<svg xmlns="http://www.w3.org/2000/svg" version="1.1" xmlns:xlink="http://www.w3.org/1999/xlink" preserveAspectRatio="none" x="0px" y="0px" width="133px" height="106px" viewBox="0 0 133 106">
<defs>
<filter id="Filter_1" x="-20%" y="-20%" width="140%" height="140%" color-interpolation-filters="sRGB">
<feFlood flood-color="#000000" flood-opacity="1" in="SourceGraphic" result="result1"/>

<feComposite in2="SourceGraphic" in="result1" operator="in" result="result2"/>

<feGaussianBlur in="result2" stdDeviation="2.3333333333333335,2.3333333333333335" result="result3"/>

<feOffset dx="0" dy="0" in="result3" result="result4"/>

<feComposite in2="result4" in="SourceGraphic" operator="over" result="result5"/>
</filter>

<g id="Layer0_0_MEMBER_0_FILL">
<path fill="#CC99CC" stroke="none" d="
M 209.75 537.3
Q 209.75 533.2 206.8 530.3 203.9 527.35 199.8 527.35
L 199.75 527.35 91.15 527.35
Q 87.05 527.35 84.15 530.3 81.25 533.2 81.25 537.3
L 81.25 618.9
Q 81.35 622.85 84.15 625.65 87.05 628.6 91.15 628.6
L 199.8 628.6
Q 203.9 628.6 206.8 625.65 209.65 622.85 209.75 618.9
L 209.75 537.3 Z"/>
</g>

<g id="S_mbolo_1_0_Layer0_0_MEMBER_0_FILL">
<path fill="#FFFFFF" stroke="none" d="
M 966.45 100.5
Q 947.95 82 921.8 82
L 458.15 82
Q 432 82 413.5 100.5 395 119 395 145.15
L 395 538.8
Q 395 564.95 413.5 583.45 432 601.95 458.15 601.95
L 921.8 601.95
Q 947.95 601.95 966.45 583.45 984.95 564.95 984.95 538.8
L 984.95 145.15
Q 984.95 119 966.45 100.5 Z"/>
</g>

<g id="S_mbolo_1_0_Layer0_0_MEMBER_1_MEMBER_0_FILL">
<path fill="#B65B00" stroke="none" d="
M 558.25 241.85
Q 555.85 242.9 553.95 244.75 552 246.65 552 248.1 552 249.5 552.25 250 553 251.6 555.75 251.6 558.45 251.6 561.55 249.15 564.5 246.8 564.5 245 564.5 239.2 558.25 241.85 Z"/>
</g>

<g id="S_mbolo_1_0_Layer0_0_MEMBER_1_MEMBER_1_FILL">
<path fill="#B65B00" stroke="none" d="
M 553.3 251.6
Q 554.5 250.5 554.5 249 554.5 245.15 550.75 245.15 547 245.2 547 249.1 547 250.45 547.3 251 548.05 252.6 550.75 252.6 552.15 252.6 553.3 251.6 Z"/>
</g>

<g id="S_mbolo_1_0_Layer0_0_MEMBER_1_MEMBER_2_FILL">
<path fill="#B65B00" stroke="none" d="
M 554.3 244.65
Q 555.5 243.6 555.5 242 555.5 238.2 551.75 238.2 548 238.2 548 242.1 548 243.45 548.3 244 549.05 245.6 551.75 245.6 553.15 245.6 554.3 244.65 Z"/>
</g>

<g id="S_mbolo_1_0_Layer0_0_MEMBER_1_MEMBER_3_FILL">
<path fill="#B65B00" stroke="none" d="
M 547.75 241.15
Q 544 241.15 544 245.35 544 247.85 544.25 248.35
L 547.75 249.6
Q 551.5 248.45 551.5 245.35 551.5 241.15 547.75 241.15 Z"/>
</g>

<g id="S_mbolo_1_0_Layer0_0_MEMBER_1_MEMBER_4_FILL">
<path fill="#B65B00" stroke="none" d="
M 539.3 253.65
Q 540.5 252.6 540.5 251 540.5 247.2 536.75 247.2 533 247.2 533 251.1 533 252.45 533.3 253 534.05 254.6 536.75 254.6 538.15 254.6 539.3 253.65 Z"/>
</g>

<g id="S_mbolo_1_0_Layer0_0_MEMBER_1_MEMBER_5_FILL">
<path fill="#B65B00" stroke="none" d="
M 521.3 254
Q 522.05 255.6 524.75 255.6 526.15 255.6 527.3 254.6 528.5 253.5 528.5 252 528.5 248.15 524.75 248.15 521 248.2 521 252.1 521 253.45 521.3 254 Z"/>
</g>

<g id="S_mbolo_1_0_Layer0_0_MEMBER_1_MEMBER_6_FILL">
<path fill="#B65B00" stroke="none" d="
M 545.5 255.1
Q 547.5 254.2 547.5 252 547.5 248.15 543.25 248.15 539 248.2 539 252.1 539 253.45 539.3 254 540.15 255.6 543.25 255.6 544.45 255.6 545.5 255.1 Z"/>
</g>

<g id="S_mbolo_1_0_Layer0_0_MEMBER_1_MEMBER_7_FILL">
<path fill="#B65B00" stroke="none" d="
M 522.25 258
Q 523 259.6 525.75 259.6 527.1 259.6 528.25 258.65 529.5 257.6 529.5 256 529.5 252.2 525.75 252.2 522 252.2 522 256.1 522 257.5 522.25 258 Z"/>
</g>

<g id="S_mbolo_1_0_Layer0_0_MEMBER_1_MEMBER_8_FILL">
<path fill="#B65B00" stroke="none" d="
M 522.25 265.35
L 525.75 266.6
Q 528 265.45 528.9 264.7 530.5 263.4 530.5 262 530.5 257.8 526.25 258.6 522 259.35 522 263.1 522 265.6 522.25 265.35 Z"/>
</g>

<g id="S_mbolo_1_0_Layer0_0_MEMBER_1_MEMBER_9_FILL">
<path fill="#B65B00" stroke="none" d="
M 522.75 265.6
Q 524.1 265.6 525.25 264.65 526.5 263.6 526.5 262 526.5 258.2 522.75 258.2 519 258.2 519 262.1 519 263.5 519.25 264 520 265.6 522.75 265.6 Z"/>
</g>

<g id="S_mbolo_1_0_Layer0_0_MEMBER_1_MEMBER_10_FILL">
<path fill="#B65B00" stroke="none" d="
M 523.75 259.6
Q 525.15 259.6 526.3 258.65 527.5 257.6 527.5 256 527.5 252.2 523.75 252.2 520 252.2 520 256.1 520 257.45 520.3 258 521.05 259.6 523.75 259.6 Z"/>
</g>

<g id="S_mbolo_1_0_Layer0_0_MEMBER_1_MEMBER_11_FILL">
<path fill="#B65B00" stroke="none" d="
M 521.3 270.65
Q 522.5 269.6 522.5 268 522.5 264.2 518.75 264.2 515 264.2 515 268.1 515 269.45 515.3 270 516.05 271.6 518.75 271.6 520.15 271.6 521.3 270.65 Z"/>
</g>

<g id="S_mbolo_1_0_Layer0_0_MEMBER_1_MEMBER_12_FILL">
<path fill="#B65B00" stroke="none" d="
M 536.3 256.65
Q 537.5 255.6 537.5 254 537.5 250.2 533.75 250.2 530 250.2 530 254.1 530 255.45 530.3 256 531.05 257.6 533.75 257.6 535.15 257.6 536.3 256.65 Z"/>
</g>

<g id="S_mbolo_1_0_Layer0_0_MEMBER_1_MEMBER_13_FILL">
<path fill="#B65B00" stroke="none" d="
M 535.5 258.1
Q 537.5 257.2 537.5 255 537.5 251.15 533.25 251.15 529 251.2 529 255.1 529 256.55 529.25 257 530.1 258.6 533.25 258.6 534.45 258.6 535.5 258.1 Z"/>
</g>

<g id="S_mbolo_1_0_Layer0_0_MEMBER_1_MEMBER_14_FILL">
<path fill="#B65B00" stroke="none" d="
M 539.9 244.3
Q 537.65 243.7 534.25 245.1 530.95 246.45 528.6 248.85 526 251.5 526 254.1 526 255.45 526.3 256 527.05 257.6 529.75 257.6 530 257.6 536.25 252.9 542.5 248.2 542.5 248 542.5 244.95 539.9 244.3 Z"/>
</g>

<g id="S_mbolo_1_0_Layer0_0_MEMBER_1_MEMBER_15_FILL">
<path fill="#B65B00" stroke="none" d="
M 544.3 250.65
Q 545.5 249.6 545.5 248 545.5 244.2 541.75 244.2 538 244.2 538 248.1 538 249.45 538.3 250 539.05 251.6 541.75 251.6 543.15 251.6 544.3 250.65 Z"/>
</g>

<g id="S_mbolo_1_0_Layer0_0_MEMBER_1_MEMBER_16_FILL">
<path fill="#B65B00" stroke="none" d="
M 571.3 246.65
Q 572.5 245.6 572.5 244 572.5 240.2 568.75 240.2 565 240.2 565 244.1 565 245.45 565.3 246 566.05 247.6 568.75 247.6 570.15 247.6 571.3 246.65 Z"/>
</g>

<g id="S_mbolo_1_0_Layer0_0_MEMBER_1_MEMBER_17_FILL">
<path fill="#B65B00" stroke="none" d="
M 568.3 243.65
Q 569.5 242.6 569.5 241 569.5 237.2 565.75 237.2 562 237.2 562 241.1 562 242.45 562.3 243 563.05 244.6 565.75 244.6 567.15 244.6 568.3 243.65 Z"/>
</g>

<g id="S_mbolo_1_0_Layer0_0_MEMBER_1_MEMBER_18_FILL">
<path fill="#B65B00" stroke="none" d="
M 557 244.1
Q 557 246.6 557.25 246.35
L 560.75 247.6
Q 566.5 245.7 566.5 243 566.5 238.8 561.75 239.5 557 240.25 557 244.1 Z"/>
</g>

<g id="S_mbolo_1_0_Layer0_0_MEMBER_1_MEMBER_19_FILL">
<path fill="#B65B00" stroke="none" d="
M 560 245.1
Q 560 246.45 560.3 247 561.05 248.6 563.75 248.6 565.15 248.6 566.3 247.65 567.5 246.6 567.5 245 567.5 241.2 563.75 241.2 560 241.2 560 245.1 Z"/>
</g>

<g id="S_mbolo_1_0_Layer0_0_MEMBER_1_MEMBER_20_FILL">
<path fill="#B65B00" stroke="none" d="
M 562 222
Q 562 219 560.05 217.25 558.3 215.7 555.75 215.7 553.2 215.7 551.45 217.2 549.5 218.9 549.5 221.75 549.5 223.6 550.3 225.1 551.8 228.1 555.75 228.1 558.35 228.1 560.25 226.1 562 224.25 562 222 Z"/>
</g>

<g id="S_mbolo_1_0_Layer0_0_MEMBER_2_MEMBER_0_MEMBER_0_FILL">
<path fill="#333333" stroke="none" d="
M 36.35 73.3
Q 35.7 73.35 35.1 73.4 32.1 73.7 29.6 74.25 29.5 74.3 29.35 74.35 28.25 74.55 27.3 74.9 27.25 74.9 27.15 74.9 26.85 74.95 26.6 75.05 24.75 75.7 24.05 76.55 23.9 76.6 23.8 76.7 23.8 76.8 23.75 76.9 23.65 77.05 23.65 77.2
L 23.6 77.35 23.6 77.8
Q 23.6 77.85 23.65 77.9 23.65 78.15 23.75 78.25 23.8 78.4 23.8 78.45 23.9 78.55 24.05 78.65 24.8 79.45 26.6 80.15 26.85 80.2 27.15 80.25 27.25 80.25 27.3 80.3 28.25 80.6 29.35 80.85 29.5 80.85 29.6 80.9 32.1 81.5 35.1 81.75 35.7 81.85 36.35 81.9 38.45 82.1 40.75 82.2 41.7 82.2 42.65 82.25 43 82.25 43.4 82.25 45.3 82.25 47.15 82.1 48.05 82.05 48.8 82 50.55 81.9 52.25 81.75 53.3 81.6 54.35 81.5 54.4 81.45 54.45 81.45 55.45 81.25 56.65 81.05 56.9 81 57.1 80.95 57.3 80.9 57.45 80.85 58.3 80.7 59.4 80.35 59.55 80.3 59.6 80.3 59.65 80.3 59.75 80.25 60.1 80.15 60.4 80.05
L 60.45 80.1
Q 63.35 79 63.4 77.6
L 63.4 77.55
Q 63.35 76.15 60.45 75.1
L 60.4 75.15
Q 60.1 75.05 59.75 74.9 59.65 74.9 59.6 74.9 59.55 74.8 59.4 74.8 58.3 74.5 57.45 74.35 57.3 74.3 57.1 74.25 56.9 74.2 56.65 74.15 55.45 73.85 54.45 73.7 54.4 73.7 54.35 73.7 53.3 73.6 52.25 73.45 50.55 73.3 48.8 73.1 48.05 73.05 47.15 73.05 45.3 72.95 43.4 72.95 43 72.95 42.65 72.95 41.7 72.95 40.75 73 38.45 73.05 36.35 73.3
M 36.75 81
Q 36.1 80.95 35.55 80.9 32.65 80.65 30.25 80.2 30.2 80.2 30.1 80.15 29 79.95 28.1 79.75 27.8 79.6 27.55 79.55 26.65 79.3 26.05 79.05 25.2 78.65 24.8 78.25 24.55 77.95 24.45 77.7
L 24.45 77.5
Q 24.55 77.2 24.8 76.95 25.2 76.55 26.05 76.15 26.65 75.85 27.55 75.55 27.8 75.5 28.1 75.45 29 75.2 30.1 75.05 30.2 75 30.25 75 32.65 74.5 35.55 74.25 36.1 74.25 36.75 74.15 38.75 74 40.95 73.95 41.8 73.95 42.75 73.9 43.05 73.9 43.45 73.9 45.3 73.9 47.05 73.95 47.85 74 48.65 74.1 50.3 74.15 51.85 74.35 52.95 74.4 53.9 74.5 53.95 74.5 54 74.5 54.95 74.65 56.1 74.9 56.35 74.9 56.55 74.95 56.7 75 56.9 75.05 57.6 75.15 58.75 75.4 58.85 75.4 58.9 75.45 59 75.45 59.05 75.45 59.8 75.7 60.35 75.9
L 60.35 76
Q 60.95 76.15 61.4 76.3 61.7 76.5 61.9 76.65 62.45 77.05 62.5 77.6 62.45 78.15 61.9 78.5 61.7 78.65 61.4 78.85 60.95 79.05 60.35 79.2
L 60.35 79.3
Q 59.8 79.5 59.05 79.65 59 79.75 58.9 79.75 58.85 79.75 58.75 79.8 57.6 80.05 56.9 80.15 56.7 80.2 56.55 80.2 56.35 80.25 56.1 80.3 54.95 80.55 54 80.65 53.95 80.65 53.9 80.65 52.95 80.75 51.85 80.85 50.3 81 48.65 81.1 47.85 81.15 47.05 81.15 45.3 81.2 43.45 81.2 43.05 81.2 42.75 81.2 41.8 81.2 40.95 81.2 38.75 81.15 36.75 81 Z"/>

<path fill="#000000" stroke="none" d="
M 35.55 80.9
Q 36.1 80.95 36.75 81 38.75 81.15 40.95 81.2 41.8 81.2 42.75 81.2 43.05 81.2 43.45 81.2 45.3 81.2 47.05 81.15 47.85 81.15 48.65 81.1 50.3 81 51.85 80.85 52.95 80.75 53.9 80.65 53.95 80.65 54 80.65 54.95 80.55 56.1 80.3 56.35 80.25 56.55 80.2 56.7 80.2 56.9 80.15 57.6 80.05 58.75 79.8 58.85 79.75 58.9 79.75 59 79.75 59.05 79.65 59.8 79.5 60.35 79.3
L 60.35 79.2
Q 60.95 79.05 61.4 78.85 61.7 78.65 61.9 78.5 62.45 78.15 62.5 77.6 62.45 77.05 61.9 76.65 61.7 76.5 61.4 76.3 60.95 76.15 60.35 76
L 60.35 75.9
Q 59.8 75.7 59.05 75.45 59 75.45 58.9 75.45 58.85 75.4 58.75 75.4 57.6 75.15 56.9 75.05 56.7 75 56.55 74.95 56.35 74.9 56.1 74.9 54.95 74.65 54 74.5 53.95 74.5 53.9 74.5 52.95 74.4 51.85 74.35 50.3 74.15 48.65 74.1 47.85 74 47.05 73.95 45.3 73.9 43.45 73.9 43.05 73.9 42.75 73.9 41.8 73.95 40.95 73.95 38.75 74 36.75 74.15 36.1 74.25 35.55 74.25 32.65 74.5 30.25 75 30.2 75 30.1 75.05 29 75.2 28.1 75.45 27.8 75.5 27.55 75.55 26.65 75.85 26.05 76.15 25.2 76.55 24.8 76.95 24.55 77.2 24.45 77.5
L 24.45 77.7
Q 24.55 77.95 24.8 78.25 25.2 78.65 26.05 79.05 26.65 79.3 27.55 79.55 27.8 79.6 28.1 79.75 29 79.95 30.1 80.15 30.2 80.2 30.25 80.2 32.65 80.65 35.55 80.9 Z"/>
</g>

<g id="S_mbolo_1_0_Layer0_0_MEMBER_2_MEMBER_0_MEMBER_1_FILL">
<path fill="#624120" stroke="none" d="
M 57.2 79.25
Q 57.3 79.15 57.3 79
L 61.95 55.55
Q 60.95 55.9 59.1 56.25
L 54 81.2
Q 56.85 80.35 57.2 79.25
M 60.15 45.95
Q 60.05 45.95 59.9 46
L 59.35 55.2
Q 61.25 54.85 62.2 54.4 63.3 53.9 63.35 53.3 63.35 53.25 63.35 53.2
L 63.85 44
Q 63.7890625 44.7046875 62.4 45.3 61.55 45.6 60.15 45.95 Z"/>

<path fill="#85582C" stroke="none" d="
M 57.5 56.6
Q 55.9 56.85 54.15 57
L 50.75 81.9
Q 52.05 81.75 53.15 81.5 53.6 81.35 54 81.2
L 59.1 56.25
Q 58.4 56.45 57.5 56.6
M 27.1 56.05
Q 26.2 55.85 25.45 55.6
L 29.6 79
Q 29.6 79.1 29.6 79.2 29.8 79.95 30.95 80.55
L 27.1 56.05
M 25.3 45.3
Q 23.8 44.75 23.65 44.1
L 23.95 53.4
Q 24.1 54 25.25 54.45 26 54.75 26.85 54.95
L 26.85 45.85
Q 25.9 45.55 25.3 45.3
M 57.9 46.35
Q 57.7 46.35 57.55 46.4 57.35 46.4 57.1 46.45 55.9 46.65 54.85 46.75
L 54.35 55.95
Q 56 55.8 57.5 55.6 58.5 55.4 59.35 55.2
L 59.9 46
Q 58.65 46.2 57.9 46.35 Z"/>

<path fill="#644220" stroke="none" d="
M 57.5 55.6
Q 56 55.8 54.35 55.95
L 54.15 57
Q 55.9 56.85 57.5 56.6 58.4 56.45 59.1 56.25
L 59.35 55.2
Q 58.5 55.4 57.5 55.6
M 25.25 54.45
L 25.45 55.6
Q 26.2 55.85 27.1 56.05
L 26.85 54.95
Q 26 54.75 25.25 54.45 Z"/>

<path fill="#462D16" stroke="none" d="
M 61.95 55.55
L 62.2 54.4
Q 61.25 54.85 59.35 55.2
L 59.1 56.25
Q 60.95 55.9 61.95 55.55 Z"/>

<path fill="#996633" stroke="none" d="
M 29.8 56.6
Q 28.25 56.35 27.1 56.05
L 30.95 80.55
Q 31.95 81 33.65 81.5 37.75 82.55 43.4 82.55 47.55 82.55 50.75 81.9
L 54.15 57
Q 49.5 57.5 43.65 57.5 35.55 57.5 29.8 56.6
M 42.95 47.25
Q 41.95 47.25 41.05 47.25 38.75 47.2 36.55 47.1 36 47.05 35.35 47 32.25 46.75 29.8 46.35 29.65 46.35 29.6 46.35 28.05 46.1 26.85 45.85
L 26.85 54.95
Q 28.15 55.3 29.8 55.6 35.55 56.5 43.65 56.5 49.55 56.5 54.35 55.95
L 54.85 46.75 54.75 46.75
Q 53.7 46.85 52.65 46.95 50.95 47.1 49.2 47.15 48.35 47.2 47.45 47.25 45.65 47.25 43.7 47.25 43.3 47.25 42.95 47.25
M 44.45 42.85
Q 44.8 42.85 45.2 42.85 46.55 42.85 47.7 42.85 50.5 42.9 52.45 43.1 52.75 43.1 53.1 43.15 54.45 43.3 55.2 43.55 55.65 43.65 56.05 43.75 56.7 43.95 57.1 44.05 58 44.3 58.1 44.3 59.45 44.5 60.4 44.7 61.05 44.8 61.55 45 63.25 44.5 63.25 43.9 63.35 42.9 58.1 42.15 57.9 42.1 57.65 42.1 52.05 41.3 43.9 41.3 41.4 41.3 39.2 41.35 37.1 41.45 35.3 41.55 32.45 41.8 30.1 42.1 29.85 42.1 29.65 42.15 24.45 42.9 24.45 43.9 24.55 44.5 26.2 45 27.15 44.7 28.6 44.5 29.1 44.4 29.65 44.3 29.75 44.3 30.8 44.05 31.25 43.95 31.9 43.85 32.45 43.75 33.05 43.6 33.65 43.5 34.4 43.4 34.55 43.3 34.7 43.3 36.05 43.15 37.75 43.05 38.75 42.95 39.85 42.95 40.05 42.95 40.3 42.9 41.15 42.9 42.05 42.85 43.2 42.85 44.45 42.85 Z"/>

<path fill="#744D26" stroke="none" d="
M 27.1 56.05
Q 28.25 56.35 29.8 56.6 35.55 57.5 43.65 57.5 49.5 57.5 54.15 57
L 54.35 55.95
Q 49.55 56.5 43.65 56.5 35.55 56.5 29.8 55.6 28.15 55.3 26.85 54.95
L 27.1 56.05 Z"/>

<path fill="#C28140" stroke="none" d="
M 41.05 47.25
Q 41.95 47.25 42.95 47.25 43.3 47.25 43.7 47.25 45.65 47.25 47.45 47.25 48.35 47.2 49.2 47.15 50.95 47.1 52.65 46.95 53.7 46.85 54.75 46.75
L 54.85 46.75
Q 55.9 46.65 57.1 46.45 57.35 46.4 57.55 46.4 57.7 46.35 57.9 46.35 58.65 46.2 59.9 46 60.05 45.95 60.15 45.95 61.55 45.6 62.4 45.3 63.7890625 44.7046875 63.85 44 63.9 42.95 60.75 42.15 59.6 41.9 58.05 41.6 52.2 40.6 43.8 40.6 40.85 40.6 38.15 40.75 37.15 40.75 36.15 40.85 32.45 41.1 29.45 41.6 27.9 41.9 26.8 42.15 23.8 42.9 23.65 43.9
L 23.65 44.1
Q 23.8 44.75 25.3 45.3 25.9 45.55 26.85 45.85 28.05 46.1 29.6 46.35 29.65 46.35 29.8 46.35 32.25 46.75 35.35 47 36 47.05 36.55 47.1 38.75 47.2 41.05 47.25
M 43 46.45
Q 42.05 46.45 41.15 46.45 38.8 46.4 36.65 46.3 36 46.25 35.35 46.2 33.2 46.1 31.4 45.9 30.75 45.85 30.2 45.7 30 45.7 29.85 45.65 29.35 45.6 28.95 45.55 27.25 45.3 26.2 45 24.55 44.5 24.45 43.9 24.45 42.9 29.65 42.15 29.85 42.1 30.1 42.1 32.45 41.8 35.3 41.55 37.1 41.45 39.2 41.35 41.4 41.3 43.9 41.3 52.05 41.3 57.65 42.1 57.9 42.1 58.1 42.15 63.35 42.9 63.25 43.9 63.25 44.5 61.55 45 61.05 45.15 60.45 45.3 59.95 45.35 59.4 45.45 58.55 45.6 57.5 45.7 57.45 45.75 57.4 45.75 57.2 45.75 57.05 45.85 55.7 46 54.25 46.1 53.65 46.15 53.05 46.2 51.15 46.35 49.1 46.4 48.05 46.45 46.9 46.45 45.45 46.45 43.85 46.45 43.45 46.45 43 46.45 Z"/>

<path fill="#CC6600" stroke="none" d="
M 34.4 43.4
Q 34.55 43.45 34.7 43.55 34.95 44.25 35.55 44.75 35.55 44.8 35.65 44.85 35.35 45.5 35.35 46.2 36 46.25 36.65 46.3 36.65 45.75 36.45 45.35 36.3 44.8 35.95 44.45 36.15 44.1 36.45 43.85 37.05 43.3 37.75 43.05 36.05 43.15 34.7 43.3 34.55 43.3 34.4 43.4
M 28.6 44.5
Q 27.15 44.7 26.2 45 27.25 45.3 28.95 45.55 29.35 45.6 29.85 45.65 30 45.7 30.2 45.7 30.75 45.85 31.4 45.9 31.5 45.85 31.55 45.7 32.05 45.25 32.05 44.55 32.05 44.2 31.9 43.85 31.25 43.95 30.8 44.05 29.75 44.3 29.65 44.3 29.1 44.4 28.6 44.5
M 57.4 45.75
Q 57.4 45.65 57.4 45.55 57.4 44.9 56.9 44.5 56.85 44.75 56.85 45.05 56.85 45.45 57.05 45.85 57.2 45.75 57.4 45.75
M 60.45 45.05
Q 60.45 45.15 60.45 45.3 61.05 45.15 61.55 45 61.05 44.8 60.4 44.7 60.45 44.85 60.45 45.05
M 53.1 43.15
Q 52.75 43.1 52.45 43.1 52.75 43.5 53 43.9 53 44.25 53.15 44.45 53.25 44.6 53.45 44.8 53.75 45.15 54.2 45.2 54.35 44.8 54.65 44.5 55.1 44.05 55.75 44.05 55.9 44.05 56 44.05 56.55 44.1 56.9 44.5 57 44.3 57.1 44.05 56.7 43.95 56.05 43.75 55.65 43.65 55.2 43.55 54.45 43.3 53.1 43.15
M 41.65 43.65
Q 41.75 43.2 42.05 42.85 41.15 42.9 40.3 42.9 41 43.1 41.65 43.65
M 43 46.05
Q 42.9 45.15 42.4 44.4 42.2 44.1 41.9 43.85 41.8 43.75 41.65 43.65 41.55 43.85 41.55 44.1 41.55 44.6 41.8 45.05 41.3 45.65 41.15 46.45 42.05 46.45 43 46.45 43 46.2 43 46.05
M 47.6 42.95
Q 47.65 42.9 47.7 42.85 46.55 42.85 45.2 42.85 45.45 43.1 45.6 43.45 46.35 43.55 46.9 43.8 47.2 43.4 47.6 42.95 Z"/>

<path fill="#BF5F00" stroke="none" d="
M 34.4 43.4
Q 33.65 43.5 33.05 43.6 32.45 43.75 31.9 43.85 32.05 44.2 32.05 44.55 32.05 45.25 31.55 45.7 31.5 45.85 31.4 45.9 33.2 46.1 35.35 46.2 35.35 45.5 35.65 44.85 35.55 44.8 35.55 44.75 34.95 44.25 34.7 43.55 34.55 43.45 34.4 43.4
M 45.15 45.55
Q 44.5 46.1 43.65 46.1 43.3 46.1 43 46.05 43 46.2 43 46.45 43.45 46.45 43.85 46.45 45.45 46.45 46.9 46.45 46.65 45.9 46.65 45.15 46.65 44.4 46.9 43.8 46.35 43.55 45.6 43.45 45.7 43.75 45.7 44.1 45.7 44.9 45.15 45.55 Z"/>

<path fill="#CC8641" stroke="none" d="
M 39.85 42.95
Q 38.75 42.95 37.75 43.05 37.05 43.3 36.45 43.85 36.15 44.1 35.95 44.45 36.3 44.8 36.45 45.35 36.85 45.45 37.3 45.45 38.35 45.45 39.1 44.75 39.85 44 39.85 43
L 39.85 42.95 Z"/>

<path fill="#A65300" stroke="none" d="
M 59.4 45.45
Q 59.95 45.35 60.45 45.3 60.45 45.15 60.45 45.05 60.45 44.85 60.4 44.7 59.45 44.5 58.1 44.3 58 44.3 57.1 44.05 57 44.3 56.9 44.5 57.4 44.9 57.4 45.55 57.4 45.65 57.4 45.75 57.45 45.75 57.5 45.7 58.55 45.6 59.4 45.45 Z"/>

<path fill="#DE6F00" stroke="none" d="
M 54.55 45.2
Q 55.15 45.2 55.6 44.8 55.9 44.45 56 44.05 55.9 44.05 55.75 44.05 55.1 44.05 54.65 44.5 54.35 44.8 54.2 45.2 54.4 45.2 54.55 45.2 Z"/>

<path fill="#CC745B" stroke="none" d="
M 54.15 45.55
Q 54.15 45.4 54.2 45.2 53.75 45.15 53.45 44.8 53.25 44.6 53.15 44.45 53.2 44.8 53.2 45.15 53.2 45.65 53.05 46.2 53.65 46.15 54.25 46.1 54.15 45.9 54.15 45.55 Z"/>

<path fill="#F37900" stroke="none" d="
M 54.2 45.2
Q 54.15 45.4 54.15 45.55 54.15 45.9 54.25 46.1 55.7 46 57.05 45.85 56.85 45.45 56.85 45.05 56.85 44.75 56.9 44.5 56.55 44.1 56 44.05 55.9 44.45 55.6 44.8 55.15 45.2 54.55 45.2 54.4 45.2 54.2 45.2 Z"/>

<path fill="#CC843D" stroke="none" d="
M 49.1 46.4
Q 48.8 45.35 48.05 44.55 47.45 44.05 46.9 43.8 46.65 44.4 46.65 45.15 46.65 45.9 46.9 46.45 48.05 46.45 49.1 46.4 Z"/>

<path fill="#E57200" stroke="none" d="
M 41.8 45.05
Q 41.55 44.6 41.55 44.1 41.55 43.85 41.65 43.65 41 43.1 40.3 42.9 40.05 42.95 39.85 42.95
L 39.85 43
Q 39.85 44 39.1 44.75 38.35 45.45 37.3 45.45 36.85 45.45 36.45 45.35 36.65 45.75 36.65 46.3 38.8 46.4 41.15 46.45 41.3 45.65 41.8 45.05 Z"/>

<path fill="#A85400" stroke="none" d="
M 43.65 46.1
Q 44.5 46.1 45.15 45.55 45.7 44.9 45.7 44.1 45.7 43.75 45.6 43.45 45.35 43.45 45.15 43.45 43.5 43.45 42.4 44.4 42.9 45.15 43 46.05 43.3 46.1 43.65 46.1 Z"/>

<path fill="#A86B2E" stroke="none" d="
M 45.2 42.85
Q 44.8 42.85 44.45 42.85 43.2 42.85 42.05 42.85 41.75 43.2 41.65 43.65 41.8 43.75 41.9 43.85 42.2 44.1 42.4 44.4 43.5 43.45 45.15 43.45 45.35 43.45 45.6 43.45 45.45 43.1 45.2 42.85 Z"/>

<path fill="#CC7218" stroke="none" d="
M 47.7 42.85
Q 47.65 42.9 47.6 42.95 47.2 43.4 46.9 43.8 47.45 44.05 48.05 44.55 48.8 45.35 49.1 46.4 51.15 46.35 53.05 46.2 53.2 45.65 53.2 45.15 53.2 44.8 53.15 44.45 53 44.25 53 43.9 52.75 43.5 52.45 43.1 50.5 42.9 47.7 42.85 Z"/>
</g>

<g id="S_mbolo_1_0_Layer0_0_MEMBER_2_MEMBER_0_MEMBER_2_FILL">
<path fill="#CC6600" stroke="none" d="
M 48.8 81.45
L 48.8 81.5
Q 48.8484375 81.5 48.9 81.5 48.8484375 81.4984375 48.8 81.45
M 44.35 81.8
Q 44.1 81.4 44 80.95 43.8 80.95 43.6 80.85 43.8 81.2 43.8 81.75 43.8 82.2 43.6 82.6 44.15 82.7 44.9 82.7 45.45 82.7 45.85 82.65 44.85 82.5 44.35 81.8
M 37.35 78.85
Q 36.4 78.85 35.8 79.3 35.3 79.65 35.15 80.2 34.4 79.95 33.6 79.8 33.1 79.65 32.65 79.65 32.15 79.4 31.5 79.4 31.4 79.4 31.25 79.4 31.15 79.25 31 79.15 30.4 78.65 29.45 78.65 28.55 78.65 27.9 79.15 27.2 79.6 27.2 80.45 27.2 80.95 27.55 81.45 28.15 82.3 29.45 82.3 29.55 82.3 29.65 82.3 30.1 82.85 30.95 83.05 31 83.1 31.05 83.1 32.45 84 34.7 84 35.2 84 35.6 83.9 35.7 84.1 35.9 84.35 36.5 85.2 37.9 85.2 38.55 85.2 39.1 85 38.9 85 38.65 85 37.35 85 36.8 84.2 36.45 83.7 36.45 83.25 36.45 82.35 37.1 81.8 37.55 81.5 38.1 81.45 38.05 81.35 38.05 81.05 38.05 80.35 38.9 80.35 39.5 80.35 39.7 80.75 39.85 80.55 40 80.35 40.7 79.95 41.55 79.95 42.05 79.95 42.5 80.05 42.2 79.65 42.2 79.25 42.2 78.4 43 77.85 43.7 77.4 44.7 77.4 45.7 77.4 46.35 77.85 47.1 78.35 47.15 79.1 47.75 79.2 48.15 79.45 48.4 79.65 48.6 79.9 48.75 79.4 49.2 79.15 49.8 78.65 50.7 78.65 51.7 78.65 52.3 79.15 53.05 79.6 53.05 80.45 53.05 81.05 52.6 81.6 52.5 81.7 52.4 81.75 52.45 82.1 52.7 82.55 53.25 83.4 54.6 83.4 55.75 83.4 56.4 82.7 56.55 82.4 56.7 82.2 57.1 82.3 57.6 82.3 58.75 82.3 59.35 81.75 60.5 81.75 61.05 81 61.5 80.55 61.5 79.95 61.5 79.1 60.85 78.55 60.25 78.15 59.3 78.15 58.4 78.15 57.8 78.55 57.7 78.6 57.65 78.65
L 57.6 78.65
Q 57.15 78.65 56.85 78.75 56.85 78.7 56.85 78.65 56.85 77.8 56.1 77.35 55.45 76.85 54.5 76.85 53.8 76.85 53.3 77.05 52.7 76.65 51.8 76.6 51.7 76.5 51.55 76.35 50.7 75.8 49.7 75.6 49.25 75.5 48.9 75.55 48.8 75.45 48.65 75.35 47.9 74.9 46.9 74.9 45.9 74.9 45.25 75.35 44.45 75.85 44.45 76.7 44.45 76.9 44.5 77.1 43.85 76.7 42.9 76.7 41.9 76.7 41.2 77.1 40.55 77.55 40.45 78.15 39.75 78.25 39.2 78.55 39.05 78.65 38.95 78.75 38.45 78.75 38 78.95 37.65 78.85 37.35 78.85
M 33.65 82.55
Q 33.65 82.8 33.4 83.05 33.1 83.2 32.85 83.2 32.2 83.2 32 82.9 31.95 82.8 31.95 82.55 31.95 81.8 32.85 81.8 33.65 81.8 33.65 82.55
M 30.95 81.2
Q 30.95 81.6 30.55 81.8 30.25 81.85 29.85 81.85 29.1 81.85 28.85 81.6 28.8 81.5 28.8 81.2 28.8 80.45 29.85 80.55 30.95 80.6 30.95 81.2
M 47.9 78.35
Q 47.85 78.25 47.85 78 47.85 77.35 48.7 77.25 49.55 77.25 49.55 77.95 49.55 78.25 49.25 78.45 49.05 78.6 48.7 78.6 48.15 78.6 47.9 78.35 Z"/>

<path fill="#B65B00" stroke="none" d="
M 38.05 81.05
Q 38.05 81.35 38.1 81.45 37.55 81.5 37.1 81.8 36.45 82.35 36.45 83.25 36.45 83.7 36.8 84.2 37.35 85 38.65 85 38.9 85 39.1 85 39.95 84.9 40.45 84.3 40.8 83.95 40.85 83.5 41.2 83.6 41.55 83.6 42.75 83.6 43.35 82.85 43.45 82.75 43.6 82.6 43.8 82.2 43.8 81.75 43.8 81.2 43.6 80.85 43.8 80.95 44 80.95 44.1 81.4 44.35 81.8 44.85 82.5 45.85 82.65 46.15 82.7 46.45 82.7 47.85 82.7 48.55 81.9 48.7 81.7 48.8 81.5
L 48.8 81.45
Q 48.8484375 81.4984375 48.9 81.5 49.5 82.3 50.7 82.3 51.75 82.3 52.4 81.75 52.5 81.7 52.6 81.6 53.05 81.05 53.05 80.45 53.05 79.6 52.3 79.15 51.7 78.65 50.7 78.65 49.8 78.65 49.2 79.15 48.75 79.4 48.6 79.9 48.4 79.65 48.15 79.45 47.75 79.2 47.15 79.1 47.1 78.35 46.35 77.85 45.7 77.4 44.7 77.4 43.7 77.4 43 77.85 42.2 78.4 42.2 79.25 42.2 79.65 42.5 80.05 42.05 79.95 41.55 79.95 40.7 79.95 40 80.35 39.85 80.55 39.7 80.75 39.5 80.35 38.9 80.35 38.05 80.35 38.05 81.05
M 47.85 78
Q 47.85 78.25 47.9 78.35 48.15 78.6 48.7 78.6 49.05 78.6 49.25 78.45 49.55 78.25 49.55 77.95 49.55 77.25 48.7 77.25 47.85 77.35 47.85 78
M 30.55 81.8
Q 30.95 81.6 30.95 81.2 30.95 80.6 29.85 80.55 28.8 80.45 28.8 81.2 28.8 81.5 28.85 81.6 29.1 81.85 29.85 81.85 30.25 81.85 30.55 81.8
M 33.4 83.05
Q 33.65 82.8 33.65 82.55 33.65 81.8 32.85 81.8 31.95 81.8 31.95 82.55 31.95 82.8 32 82.9 32.2 83.2 32.85 83.2 33.1 83.2 33.4 83.05 Z"/>
</g>

<g id="S_mbolo_1_0_Layer0_0_MEMBER_2_MEMBER_0_MEMBER_3_FILL">
<path fill="#333333" stroke="none" d="
M 36.75 81
Q 36.1 80.95 35.5 80.9 32.65 80.65 30.25 80.2 30.15 80.2 30.1 80.15 29 79.95 28.1 79.75 27.8 79.6 27.55 79.55 26.65 79.3 26.05 79.05 25.2 78.65 24.8 78.25 24.55 77.95 24.45 77.7
L 24.45 77.4
Q 24.6 76.4 27.15 75.6
L 27.15 74.9
Q 26.85 74.95 26.6 75.05 23.65 76.1 23.6 77.5
L 23.6 77.8
Q 23.65 78.15 23.8 78.45 24.25 79 25.15 79.4 25.8 79.8 26.75 80.1 27 80.2 27.3 80.3 28.25 80.6 29.35 80.85 29.5 80.85 29.6 80.9 32.1 81.5 35.1 81.75 35.7 81.85 36.35 81.9 38.45 82.1 40.75 82.2 41.7 82.2 42.65 82.25 43 82.25 43.4 82.25 45.3 82.25 47.15 82.1 48.05 82.05 48.8 82 50.55 81.9 52.25 81.75 53.3 81.6 54.35 81.5 54.4 81.45 54.45 81.45 55.45 81.25 56.65 81.05 56.9 81 57.1 80.95 57.3 80.9 57.45 80.85 58.2 80.7 59.4 80.35 59.55 80.3 59.6 80.3 59.65 80.3 59.75 80.3 61.05 79.9 61.95 79.4 62.4 79.15 62.75 78.8 63.35 78.25 63.4 77.6 63.45 76.15 60.45 75.1
L 60.35 76
Q 62.5 76.6 62.5 77.55
L 62.5 77.6
Q 62.45 78.05 61.9 78.5 61.55 78.75 61.1 79 60.35 79.35 59 79.65 59 79.75 58.9 79.75 58.85 79.75 58.75 79.8 57.6 80.05 56.9 80.15 56.7 80.2 56.55 80.2 56.35 80.25 56.1 80.3 54.95 80.55 54 80.65 53.95 80.65 53.9 80.65 52.95 80.75 51.85 80.85 50.25 81 48.65 81.1 47.85 81.15 47.05 81.15 45.3 81.2 43.4 81.2 43.05 81.2 42.75 81.2 41.8 81.2 40.95 81.2 38.65 81.15 36.75 81 Z"/>

<path fill="#000000" stroke="none" d="
M 31 85.15
Q 33.2 85.7 35.85 85.95 36.4 86 36.95 86.05 38.85 86.25 40.85 86.3 41.7 86.35 42.5 86.35 42.85 86.35 43.2 86.35 44.9 86.35 46.15 86.3 47.4 86.25 48.55 86.2 49.65 86.05 50.8 85.95 52 85.8 52.9 85.65
L 52.95 85.65
Q 53.9 85.55 54.95 85.25 55.15 85.25 55.4 85.2 55.5 85.15 55.6 85.15 56.35 85 57.4 84.7 57.5 84.7 57.65 84.65 58.85 84.25 59.6 83.85 60.6 83.25 60.85 82.55
L 62.75 78.8
Q 62.4 79.15 61.95 79.4 61.05 79.9 59.75 80.3 59.65 80.3 59.6 80.3 59.55 80.3 59.4 80.35 58.2 80.7 57.45 80.85 57.3 80.9 57.1 80.95 56.9 81 56.65 81.05 55.45 81.25 54.45 81.45 54.4 81.45 54.35 81.5 53.3 81.6 52.25 81.75 50.55 81.9 48.8 82 48.05 82.05 47.15 82.1 45.3 82.25 43.4 82.25 43 82.25 42.65 82.25 41.7 82.2 40.75 82.2 38.45 82.1 36.35 81.9 35.7 81.85 35.1 81.75 32.1 81.5 29.6 80.9 29.5 80.85 29.35 80.85 28.25 80.6 27.3 80.3 27 80.2 26.75 80.1 25.8 79.8 25.15 79.4 24.25 79 23.8 78.45
L 25.65 82.5
Q 25.7 82.7 25.8 82.85 25.85 82.9 25.85 83 26.2 83.45 27.05 83.9 27.6 84.2 28.5 84.5 29.45 84.85 30.8 85.15 30.9 85.15 31 85.15 Z"/>
</g>

<g id="S_mbolo_1_0_Layer0_0_MEMBER_2_MEMBER_0_MEMBER_4_FILL">
<path fill="#C5F402" stroke="none" d="
M 34.45 10.9
Q 34.45 12.05 34.55 12.3 34.8 12.8 35.4 13.05
L 35.8 11 35.55 13.1
Q 35.65 13.15 35.8 13.2
L 36.9 13.4
Q 37.6 13.55 37.9 13.55 39.5 13.55 40.25 12.25 40.8 11.35 40.8 10.05 40.8 9.45 40.25 7.55 39.8 5.95 39.45 5 38.35 5.7 36.75 6.45 35.55 7.05 35.2 7.35 34.7 7.7 34.55 8.45 34.45 9.15 34.45 10.9
M 31.6 21.1
Q 31.9 19.8 31.9 19.35 31.8 18.85 31.7 18.7 31.6 18.55 31.45 17.65 26.1 16.4 17.9 24.85
L 17.8 24.7
Q 27.1 14.5 31.3 16.5 28.75 13.8 26.5 13.8 20.3 13.8 18.05 17.9 17.3 19.45 16.9 21.9 16.8 22.4 16.35 26.1 17.6 26.1 20.95 25.9 24.3 25.75 26.75 25.1 29.15 24.5 30.25 23.4 31.3 22.3 31.6 21.1
M 31.7 12.2
Q 33.1 9.35 31.3 6.9 29.6 4.45 28.25 3.8 26.85 3.15 24.4 3.25 19.45 3.45 18.55 3.45 18.45 3.45 17.8 3.35 16.95 3.15 16.6 3 17.6 4.4 18.35 5.5 19.95 7.45 21.4 8.8 25.55 12.75 31.2 13.05
L 31.25 12.8
Q 30.45 11.8 29.75 10.95 29.1 10.05 27.55 8.45 26.25 7.05 19.55 4.25 25.6 6 26.85 6.7 28.15 7.45 30.2 10.15 30.7 10.95 31.7 12.2
M 56.2 15.05
L 55.85 17.25
Q 55.55 18.55 55.4 19.45 55.35 19.9 55.2 20.1
L 55.2 20.2
Q 55.2 20.6 55.2 20.95 55.2 21.35 55.35 21.8
L 55.4 21.85
Q 58.35 22.1 59.1 20.5 59.35 20 59.4 19 59.4 18.5 59.35 17.55 59.35 15.4 58.8 14.35 57.45 12 57 10.75 56.05 11.35 54.4 13.8 52.3 16.85 52.3 18.75 52.3 19.75 53.3 20.5 54.15 21 54.55 21.3 54.55 21.2 55.6 17.25 55.9 16.3 56.2 15.05
M 70.9 22.5
Q 68.7 21.6 66.4 21.6 64.4 21.6 61.8 22.55 59.9 23.3 58.9 23.65 58.8 23.65 58.75 23.65
L 58.75 23.7
Q 63.45 22.7 69.1 23.55 74.75 24.45 77.9 31.05 72.15 21.85 59.45 24.9 59.65 25.3 60.05 25.7 60.15 25.7 60.7 27.05 61.2 28.45 62.1 29 63 29.5 63.8 30.15 64.65 30.85 66.35 31.05 67.15 31.15 69.35 31.15 71.85 31.15 73.1 31.3 77.6 31.6 78.85 33.6
L 78.95 33.55
Q 78.65 32.7 78.45 31.15 78.45 31.05 78.4 31 78.15 29.2 76.75 27.55 75.4 25.85 74.45 24.8 73.45 23.7 70.9 22.5 Z"/>

<path fill="#999900" stroke="none" d="
M 55.2 20.95
Q 55.2 20.6 55.2 20.2
L 55.2 20.1
Q 55.35 19.9 55.4 19.45 55.55 18.55 55.85 17.25
L 55.6 17.25
Q 54.55 21.2 54.55 21.3 54.55 21.85 54.1 22.65 53.55 23.6 53.7 24.1 53.6 24.1 51.2 25.4
L 51.25 25.5
Q 51.05 25.7 50.75 25.75 50.7 25.75 50.7 25.8 50.65 25.8 50.6 25.9 49.8 26.35 48.65 27.05 46.15 28.55 45.55 30.15 45.15 26.85 41.7 23.05 41.15 22.45 39.9 21.3 38.6 20.2 38.25 19.8 37.9 19.45 37.05 18.5 36.75 18.05 36.5 17.8 36.35 17.55 36.35 17.4 35.35 15.45 35.6 13.3
L 35.35 13.15 34.7 14.3 33.4 14.3
Q 33.25 14.05 31.9 12.35 31.8 12.25 31.7 12.2 30.7 10.95 30.2 10.15 28.15 7.45 26.85 6.7 25.6 6 19.55 4.25 26.25 7.05 27.55 8.45 29.1 10.05 29.75 10.95 30.45 11.8 31.25 12.8 31.45 12.9 31.55 13.05
L 33.1 14.55 33.1 16.5 31.3 16.5
Q 27.1 14.5 17.8 24.7
L 17.9 24.85
Q 26.1 16.4 31.45 17.65 31.9 17.65 32.45 17.55 33.7 17.4 34.55 17.45 36.05 19.3 38.4 21.85 40.8 24.55 41.9 26.1 43 27.7 43.7 29.9 44.35 31.95 44.2 34.35 44 36.75 43.8 37.5 43.7 39 43.5 39.55 43.35 40.15 43.3 41.35 43.15 43 42 45.35
L 43.45 45.45
Q 43.6 44.8 43.75 44.85
L 43.9 45.55 43.85 44.9
Q 44 44.9 44.3 45.05 44.45 45.15 44.65 45.2 44.7 45.25 44.75 45.25 43.95 43.85 44.35 41.6 44.65 40 45.1 37.85 45.1 37.65 45.15 37.55 46.1 32.2 47.25 30.55 49.5 27.4 53.45 26.1 54.75 25.7 56.7 25.3 58.5 25.05 59.45 24.9 72.15 21.85 77.9 31.05 74.75 24.45 69.1 23.55 63.45 22.7 58.75 23.7 58.65 23.7 58.6 23.7 58.45 23.8 58.3 23.8 57.5 23.85 56.25 24.05
L 56.2 23.8
Q 55.75 23.5 55.5 22.55 55.4 22.2 55.35 21.85
L 55.35 21.8
Q 55.2 21.35 55.2 20.95 Z"/>
</g>

<g id="S_mbolo_1_0_Layer0_0_MEMBER_2_MEMBER_1_FILL">
<path fill="#999999" stroke="none" d="
M 63.75 68.55
Q 63.15 68.8 62.5 68.95 56.25 71.15 49.2 71 49.15 71 49.15 71.05 56.35 72.75 63.65 69.85 64.25 69.65 64.9 69.35 65.45 69.05 66.15 68.8 67.55 68.1 68.95 67.25 71.05 65.9 73.15 64.25
L 74.3 62.05
Q 74.2 62.2 72.5 63.6 71.15 64.6 69.75 65.45 68.1 66.5 66.3 67.4 65.65 67.7 64.95 68 64.4 68.25 63.75 68.55
M 67.1 59.6
L 64.3 54.05
Q 54.95 60.15 49.2 70.75
L 49.2 70.85
Q 49.2 70.95 49.2 71
L 57.95 65.4
Q 58.2 65.25 58.5 65
L 58.75 64.9 58.8 64.85 67.1 59.6
M 76.05 53
Q 75.2 52.15 73.75 51.95
L 68.6 55.7 68.55 55.7 70.05 57.45 76.05 53 Z"/>

<path fill="#ADADAD" stroke="none" d="
M 67.1 59.65
L 67.1 59.6 58.8 64.85 58.75 64.9 58.5 65
Q 58.2 65.25 57.95 65.4
L 49.2 71
Q 56.25 71.15 62.5 68.95 63.15 68.8 63.75 68.55 64.4 68.25 64.95 68 65.65 67.7 66.3 67.4 68.1 66.5 69.75 65.45 71.15 64.6 72.5 63.6 69.85 61.6 68.35 60.45 67.2 59.65 67.1 59.65 Z"/>

<path fill="#666666" stroke="none" d="
M 64.3 54.05
L 65.4 52.35
Q 53.3 59.85 49.2 70.75 54.95 60.15 64.3 54.05 Z"/>

<path fill="#333333" stroke="none" d="
M 64.3 54.05
L 67.1 59.6 67.1 59.65
Q 67.2 59.65 68.35 60.45 69.85 61.6 72.5 63.6 74.2 62.2 74.3 62.05
L 71.4 58.8
Q 71 58.2 70.05 57.45
L 68.55 55.7 68.6 55.7 65.45 52.35 65.4 52.35 64.3 54.05 Z"/>

<path fill="#8E8E8E" stroke="none" d="
M 71.4 58.8
L 77.05 54.7
Q 76.65 53.65 76.05 53
L 70.05 57.45
Q 71 58.2 71.4 58.8 Z"/>

<path fill="#996600" stroke="none" d="
M 86.5 47.65
L 84.55 46.9 76.05 53
Q 76.65 53.65 77.05 54.7
L 86.5 47.65 Z"/>

<path fill="#C48300" stroke="none" d="
M 84.55 46.9
L 82.75 46.25 82.85 45.4 73.75 51.95
Q 75.2 52.15 76.05 53
L 84.55 46.9 Z"/>
</g>

<g id="S_mbolo_1_0_Layer0_0_MEMBER_2_MEMBER_1_MEMBER_0_FILL">
<path fill="#D2A38B" stroke="none" d="
M 94.65 51
Q 95.05 50.45 95.35 50 87 53.5 77.15 47.65 77.9 48.75 79.15 49.7 79.35 49.9 79.45 49.95 79.45 50 79.8 50.2 80.15 50.5 81.25 51.3
L 79.5 52.6
Q 79.55 52.65 80.1 53.1 80.65 53.5 82.1 54.1 83.6 54.7 86.15 54.75 87.25 54.8 88.45 54.55 91.25 54.15 93.2 52.55 94.05 51.85 94.65 51 Z"/>

<path fill="#E9B59A" stroke="none" d="
M 86.75 35.55
Q 85.05 36.6 85.05 37.9 80.45 37.3 80.3 39.4 80.1 41.45 80.15 41.4 75.65 43.7 76.35 45.95 76.6 46.85 77.15 47.65 87 53.5 95.35 50 96.95 47.5 96.55 44.55 96.2 41.05 92.3 37.75 88.45 34.4 86.75 35.55 Z"/>
</g>

<g id="S_mbolo_1_0_Layer0_0_MEMBER_2_MEMBER_2_FILL">
<path fill="#E9B59A" stroke="none" d="
M 539.95 482.05
L 539.95 442 422.95 442
Q 412.6 442 405.25 449.3 397.95 456.65 397.95 467 397.95 477.35 405.25 484.65 406.51796875 485.91796875 407.85 486.95
L 539.95 482.05 Z"/>

<path fill="#D2A38B" stroke="none" d="
M 539.95 492
L 539.95 482.05 407.85 486.95
Q 414.385546875 492 422.95 492
L 539.95 492 Z"/>
</g>

<path id="Layer0_0_MEMBER_0_1_STROKES" stroke="#8CA8B8" stroke-width="1" stroke-linejoin="round" stroke-linecap="round" fill="none" d="
M 199.8 527.35
Q 203.9 527.35 206.8 530.3 209.75 533.2 209.75 537.3
L 209.75 618.9
Q 209.65 622.85 206.8 625.65 203.9 628.6 199.8 628.6
L 91.15 628.6
Q 87.05 628.6 84.15 625.65 81.35 622.85 81.25 618.9
L 81.25 537.3
Q 81.25 533.2 84.15 530.3 87.05 527.35 91.15 527.35
L 199.75 527.35"/>
</defs>

<g transform="matrix( 1, 0, 0, 1, -79,-524.95) ">
<use xlink:href="#Layer0_0_MEMBER_0_FILL"/>

<use xlink:href="#Layer0_0_MEMBER_0_1_STROKES"/>
</g>

<g filter="url(#Filter_1)" transform="matrix( 1, 0, 0, 1, 0,0) ">
<g transform="matrix( 1, 0, 0, 1, 7.3,7.8) ">
<g transform="matrix( 0.1952972412109375, 0, 0, 0.1709442138671875, -76.15,-14) ">
<use xlink:href="#S_mbolo_1_0_Layer0_0_MEMBER_0_FILL"/>
</g>

<g transform="matrix( 0.188812255859375, 0, 0, 0.1806793212890625, -48.15,21.55) ">
<use xlink:href="#S_mbolo_1_0_Layer0_0_MEMBER_1_MEMBER_0_FILL"/>
</g>

<g transform="matrix( 0.188812255859375, 0, 0, 0.1806793212890625, -48.15,21.55) ">
<use xlink:href="#S_mbolo_1_0_Layer0_0_MEMBER_1_MEMBER_1_FILL"/>
</g>

<g transform="matrix( 0.188812255859375, 0, 0, 0.1806793212890625, -48.15,21.55) ">
<use xlink:href="#S_mbolo_1_0_Layer0_0_MEMBER_1_MEMBER_2_FILL"/>
</g>

<g transform="matrix( 0.188812255859375, 0, 0, 0.1806793212890625, -48.15,21.55) ">
<use xlink:href="#S_mbolo_1_0_Layer0_0_MEMBER_1_MEMBER_3_FILL"/>
</g>

<g transform="matrix( 0.188812255859375, 0, 0, 0.1806793212890625, -48.15,21.55) ">
<use xlink:href="#S_mbolo_1_0_Layer0_0_MEMBER_1_MEMBER_4_FILL"/>
</g>

<g transform="matrix( 0.188812255859375, 0, 0, 0.1806793212890625, -48.15,21.55) ">
<use xlink:href="#S_mbolo_1_0_Layer0_0_MEMBER_1_MEMBER_5_FILL"/>
</g>

<g transform="matrix( 0.188812255859375, 0, 0, 0.1806793212890625, -48.15,21.55) ">
<use xlink:href="#S_mbolo_1_0_Layer0_0_MEMBER_1_MEMBER_6_FILL"/>
</g>

<g transform="matrix( 0.188812255859375, 0, 0, 0.1806793212890625, -48.15,21.55) ">
<use xlink:href="#S_mbolo_1_0_Layer0_0_MEMBER_1_MEMBER_7_FILL"/>
</g>

<g transform="matrix( 0.188812255859375, 0, 0, 0.1806793212890625, -48.15,21.55) ">
<use xlink:href="#S_mbolo_1_0_Layer0_0_MEMBER_1_MEMBER_8_FILL"/>
</g>

<g transform="matrix( 0.188812255859375, 0, 0, 0.1806793212890625, -48.15,21.55) ">
<use xlink:href="#S_mbolo_1_0_Layer0_0_MEMBER_1_MEMBER_9_FILL"/>
</g>

<g transform="matrix( 0.188812255859375, 0, 0, 0.1806793212890625, -48.15,21.55) ">
<use xlink:href="#S_mbolo_1_0_Layer0_0_MEMBER_1_MEMBER_10_FILL"/>
</g>

<g transform="matrix( 0.188812255859375, 0, 0, 0.1806793212890625, -48.15,21.55) ">
<use xlink:href="#S_mbolo_1_0_Layer0_0_MEMBER_1_MEMBER_11_FILL"/>
</g>

<g transform="matrix( 0.188812255859375, 0, 0, 0.1806793212890625, -48.15,21.55) ">
<use xlink:href="#S_mbolo_1_0_Layer0_0_MEMBER_1_MEMBER_12_FILL"/>
</g>

<g transform="matrix( 0.188812255859375, 0, 0, 0.1806793212890625, -48.15,21.55) ">
<use xlink:href="#S_mbolo_1_0_Layer0_0_MEMBER_1_MEMBER_13_FILL"/>
</g>

<g transform="matrix( 0.188812255859375, 0, 0, 0.1806793212890625, -48.15,21.55) ">
<use xlink:href="#S_mbolo_1_0_Layer0_0_MEMBER_1_MEMBER_14_FILL"/>
</g>

<g transform="matrix( 0.188812255859375, 0, 0, 0.1806793212890625, -48.15,21.55) ">
<use xlink:href="#S_mbolo_1_0_Layer0_0_MEMBER_1_MEMBER_15_FILL"/>
</g>

<g transform="matrix( 0.188812255859375, 0, 0, 0.1806793212890625, -48.15,21.55) ">
<use xlink:href="#S_mbolo_1_0_Layer0_0_MEMBER_1_MEMBER_16_FILL"/>
</g>

<g transform="matrix( 0.188812255859375, 0, 0, 0.1806793212890625, -48.15,21.55) ">
<use xlink:href="#S_mbolo_1_0_Layer0_0_MEMBER_1_MEMBER_17_FILL"/>
</g>

<g transform="matrix( 0.188812255859375, 0, 0, 0.1806793212890625, -48.15,21.55) ">
<use xlink:href="#S_mbolo_1_0_Layer0_0_MEMBER_1_MEMBER_18_FILL"/>
</g>

<g transform="matrix( 0.188812255859375, 0, 0, 0.1806793212890625, -48.15,21.55) ">
<use xlink:href="#S_mbolo_1_0_Layer0_0_MEMBER_1_MEMBER_19_FILL"/>
</g>

<g transform="matrix( 0.188812255859375, 0, 0, 0.1806793212890625, -48.15,24.65) ">
<use xlink:href="#S_mbolo_1_0_Layer0_0_MEMBER_1_MEMBER_20_FILL"/>
</g>

<g transform="matrix( 1, 0, 0, 1, 0,0) ">
<use xlink:href="#S_mbolo_1_0_Layer0_0_MEMBER_2_MEMBER_0_MEMBER_0_FILL"/>
</g>

<g transform="matrix( 1, 0, 0, 1, 0,0) ">
<use xlink:href="#S_mbolo_1_0_Layer0_0_MEMBER_2_MEMBER_0_MEMBER_1_FILL"/>
</g>

<g transform="matrix( 1, 0, 0, 1, 0,0) ">
<use xlink:href="#S_mbolo_1_0_Layer0_0_MEMBER_2_MEMBER_0_MEMBER_2_FILL"/>
</g>

<g transform="matrix( 1, 0, 0, 1, 0,0) ">
<use xlink:href="#S_mbolo_1_0_Layer0_0_MEMBER_2_MEMBER_0_MEMBER_3_FILL"/>
</g>

<g transform="matrix( 1, 0, 0, 1, 0,0) ">
<use xlink:href="#S_mbolo_1_0_Layer0_0_MEMBER_2_MEMBER_0_MEMBER_4_FILL"/>
</g>

<g transform="matrix( 1, 0, 0, 1, 0,0) ">
<use xlink:href="#S_mbolo_1_0_Layer0_0_MEMBER_2_MEMBER_1_FILL"/>
</g>

<g transform="matrix( 1, 0, 0, 1, 0,0) ">
<use xlink:href="#S_mbolo_1_0_Layer0_0_MEMBER_2_MEMBER_1_MEMBER_0_FILL"/>
</g>

<g transform="matrix( 0.188812255859375, 0, 0, 0.1806793212890625, 14.5,-36.2) ">
<use xlink:href="#S_mbolo_1_0_Layer0_0_MEMBER_2_MEMBER_2_FILL"/>
</g>
</g>
</g>
</svg>
