<svg xmlns="http://www.w3.org/2000/svg" xmlns:xlink="http://www.w3.org/1999/xlink" preserveAspectRatio="none" width="133" height="106" viewBox="0 0 133 106"><defs><linearGradient id="a" gradientUnits="userSpaceOnUse" x1="1359.5" y1="313.875" x2="1359.5" y2="400.825"><stop offset="0%"/><stop offset="100%" stop-color="#AEA191"/><stop offset="100%" stop-color="#FFF"/></linearGradient><filter id="d" x="-20%" y="-20%" width="140%" height="140%" color-interpolation-filters="sRGB"><feFlood flood-color="#000" flood-opacity="1" result="result1"/><feComposite in2="SourceGraphic" in="result1" operator="in" result="result2"/><feGaussianBlur in="result2" stdDeviation="2.3333333333333335,2.3333333333333335" result="result3"/><feOffset in="result3" result="result4"/><feComposite in2="result4" in="SourceGraphic" result="result5"/></filter><filter id="f" x="-21.536%" y="-20%" width="143.071%" height="140%" color-interpolation-filters="sRGB"><feGaussianBlur in="SourceGraphic" stdDeviation="1.6666666666666667,1.6666666666666667" result="result1"/><feColorMatrix in="result1" values="0 0 0 0 0 0 0 0 0 0 0 0 0 0 0 0 0 0 0.55 0" result="result2"/></filter><path fill="#F00" d="M605.25 635.35H496.6q-4.1 0-7 2.95-2.9 2.9-2.9 7v81.6q.1 3.95 2.9 6.75 2.9 2.95 7 2.95h108.65q4.1 0 7-2.95 2.85-2.8 2.95-6.75v-81.6q0-4.1-2.95-7-2.9-2.95-7-2.95z" id="b"/><path fill="#FFF" d="M605.5 644q-3.7-3.15-8.9-3.15h-92.35q-5.2 0-8.85 3.15-3.7 3.1-3.7 7.55v66.7q0 4.4 3.7 7.55 3.65 3.15 8.85 3.15h92.35q5.2 0 8.9-3.15 3.65-3.15 3.65-7.55v-66.7q0-4.45-3.65-7.55z" id="e"/><g id="g"><path fill="#9B907E" d="M151.95 210q.6-2.55 1.2-5.15l-26.8 64.85q6.7-9.4 10.4-16.7l.2-.4q8.9-18.2 15-42.6z"/><path fill="#DEC18A" d="M21.2 0H0q10.4 51.35 39.45 98 29.8 47.95 79.3 91 5.3 4.6 10.85 9.2l16.25-15.5q-1.1-.9-2.15-1.8Q96.8 141.55 66.65 98 34.35 51.4 21.2 0m529.6 0q-14.45 49-49.05 98-29.25 41.45-73 82.9-.85.8-1.7 1.65l9.15 18.35h2.15q6.45-5.95 12.55-11.9 46.9-45.5 76.35-91 31.7-49 43.25-98h-19.7z"/><path fill="#524733" d="M389.45 199.95q2.4 5.05 3.15 10.05 1.4 9.5-3.2 18.95H179.9q-4.6-9.45-3.2-18.95.75-5 3.2-10.05h-2.5q-2.45 5.05-3.2 10.05-1.55 9.75 3.2 19.5h214.55q4.75-9.75 3.25-19.5-.8-5-3.25-10.05h-2.5z"/><path fill="#E5D8C3" d="M392.6 210q-.75-5-3.15-10.05H179.9q-2.45 5.05-3.2 10.05-1.4 9.5 3.2 18.95h209.5q4.6-9.45 3.2-18.95z"/><path fill="#8E7E6E" d="M429.85 229.85l-3.15 12.95q2.2 5.35 4.75 10.2 1.75 3.4 3.65 6.55 3.25 5.35 11.3 14.75l-16.55-44.45z"/><path fill="#F3E5CF" d="M412.2 200.9q-.1-.45-.15-.95h-20.1Q394.4 205 395.2 210q1.5 9.75-3.25 19.5H177.4q-4.75-9.75-3.2-19.5.75-5 3.2-10.05h-20.1q-1.1 5.15-2.3 10.05-5.95 23.85-14.6 41.65-.35.65-.7 1.35-5.25 10.2-16.35 24.45-46.4 77.8-45.45 169.25.05 8.65.6 17.1 5.65 90.1 61.65 153.8 61.25 69.55 147.05 68.3 85.85-1.35 146.1-72.9 52.4-62.25 59.3-149.2 1.05-13.05 1.05-26.65.1-91.85-46.95-159.05-.55-.8-1.1-1.55-10.3-11.8-14.05-18.05-1.6-2.65-3.1-5.5-1.45-2.8-2.85-5.75Q418.1 231 413.85 210q-.9-4.45-1.65-9.1m2.5 168.15q.4 1.75.75 3.55.8 3.95 1.55 7.95 5.4 29.95 5.25 61.8-3.25 13.2-2.35 17.85.9 4.65.9 5.8-4.4 30.15-18.5 55.85-8.05 14.3-19.1 27.25-39.2 45.6-95.75 46.7-23.8.25-44.65-7.4-17.9-6.65-33.5-19.1-9.55-7.6-18.25-17.35-12.7-14.2-21.4-30.2-14.05-25.5-17.85-55.85-1.5-10.7-1.5-22.05-.1-8.1.85-15.85 1.85-29 6.65-57.2 5.7-32.35 25.7-55.9 18.8-23.8 40.9-24.85 23.35-1.15 50.05-1.5 12.85-.15 25.65.1 25.95 1.05 48.45 3.55 21.4 2.2 40.25 26.05 19.15 22.15 25.9 50.8z"/><path fill="#BFA677" d="M415.45 372.6q-.35-1.8-.75-3.55-6.75-28.65-25.9-50.8-18.85-23.85-40.25-26.05-22.5-2.5-48.45-3.55-12.8-.25-25.65-.1-26.7.35-50.05 1.5-22.1 1.05-40.9 24.85-20 23.55-25.7 55.9-4.8 28.2-6.65 57.2-.95 7.75-.85 15.85 0 11.35 1.5 22.05 3.8 30.35 17.85 55.85 8.7 16 21.4 30.2 8.7 9.75 18.25 17.35 15.6 12.45 33.5 19.1 20.85 7.65 44.65 7.4 56.55-1.1 95.75-46.7 11.05-12.95 19.1-27.25 14.1-25.7 18.5-55.85 0-1.15-.9-5.8t2.35-17.85q.15-31.85-5.25-61.8-.75-4-1.55-7.95m-70.2-73.75q20.3 2.1 38.2 24.75 18.15 21 24.55 48.2.4 1.65.75 3.35.75 3.75 1.45 7.55 5.1 28.4 5 58.6-3.1 12.55-2.25 16.95.85 4.4.85 5.5-4.15 28.6-17.55 53-7.65 13.55-18.1 25.85-37.2 43.25-90.85 44.3-22.6.25-42.35-7.05-17-6.3-31.8-18.1-9.05-7.2-17.3-16.45-12.05-13.5-20.3-28.65-13.35-24.2-16.95-53-1.4-10.15-1.4-20.9-.1-7.7.8-15.05 1.75-27.5 6.3-54.25 5.4-30.7 24.4-53.05 17.8-22.55 38.8-23.55 22.15-1.1 47.45-1.45 12.2-.15 24.35.1 24.6 1 45.95 3.35z"/><path fill="#AEA191" d="M410.2 382.7q-30.2-26.55-69.8-26.55-49.2 0-84 41.05-34.75 41.05-34.75 99.05 0 47.5 23.3 83.6 19.75 7.3 42.35 7.05 53.65-1.05 90.85-44.3 10.45-12.3 18.1-25.85 13.4-24.4 17.55-53 0-1.1-.85-5.5t2.25-16.95q.1-30.2-5-58.6m6.75-172.7q-.9-4.45-1.65-9.1-.1-.45-.15-.95h-3.1q.05.5.15.95.75 4.65 1.65 9.1 4.25 21 11.75 37.25 1.4 2.95 2.85 5.75 1.5 2.85 3.1 5.5 3.75 6.25 14.05 18.05.55.75 1.1 1.55 47.05 67.2 46.95 159.05 0 13.6-1.05 26.65-6.9 86.95-59.3 149.2-60.25 71.55-146.1 72.9-85.8 1.25-147.05-68.3-56-63.7-61.65-153.8-.55-8.45-.6-17.1-.95-91.45 45.45-169.25 11.1-14.25 16.35-24.45.35-.7.7-1.35 8.65-17.8 14.6-41.65 1.2-4.9 2.3-10.05h-3.05q-.55 2.5-1.1 4.9-.6 2.6-1.2 5.15-6.1 24.4-15 42.6l-.2.4q-3.7 7.3-10.4 16.7-3.1 4.35-6.85 9.15Q71.95 358 72.95 451.05q.05 8.8.6 17.4 5.8 91.65 63.15 156.45 62.7 70.75 150.6 69.5 87.9-1.35 149.6-74.15 53.65-63.35 60.7-151.8 1.1-13.3 1.1-27.15.1-93.45-48.1-161.8l-1.1-1.6q-1.65-1.85-3.1-3.6-8.05-9.4-11.3-14.75-1.9-3.15-3.65-6.55-2.55-4.85-4.75-10.2-6.1-14.65-9.75-32.8z"/><path fill="#857856" d="M408.75 375.15q-.35-1.7-.75-3.35-36.7-41.95-88.15-41.95-52.65 0-89.9 43.9-37.2 43.95-37.2 106.05 0 45.95 20.4 81.95 14.8 11.8 31.8 18.1-23.3-36.1-23.3-83.6 0-58 34.75-99.05 34.8-41.05 84-41.05 39.6 0 69.8 26.55-.7-3.8-1.45-7.55z"/><path fill="#776540" d="M383.45 323.6q-17.9-22.65-38.2-24.75-21.35-2.35-45.95-3.35-12.15-.25-24.35-.1-25.3.35-47.45 1.45-21 1-38.8 23.55-19 22.35-24.4 53.05-4.55 26.75-6.3 54.25-.9 7.35-.8 15.05 0 10.75 1.4 20.9 3.6 28.8 16.95 53 8.25 15.15 20.3 28.65 8.25 9.25 17.3 16.45-20.4-36-20.4-81.95 0-62.1 37.2-106.05 37.25-43.9 89.9-43.9 51.45 0 88.15 41.95-6.4-27.2-24.55-48.2z"/><path fill="#685F42" d="M415.3 200.9q.75 4.65 1.65 9.1 3.65 18.15 9.75 32.8l3.15-12.95-10.75-28.95h-3.8z"/><path fill="#DBCDBE" d="M427.05 182.55l-.85-1.65H147.75l-1.9 1.8-16.25 15.5.9.7 27.65 1h253.9v.05h3.1q.05.5.15.95H436.2l-9.15-18.35z"/><path fill="#B4A472" d="M501.75 98q34.6-49 49.05-98H21.2q13.15 51.4 45.45 98 30.15 43.55 77.05 82.9h285.05q43.75-41.45 73-82.9z"/></g><path fill="url(#a)" d="M1359.5 313.9q-11.6 0-19.8 8.2-8.2 8.2-8.2 19.8v30.95q0 11.6 8.2 19.8 8.2 8.2 19.8 8.2 11.6 0 19.8-8.2 8.2-8.2 8.2-19.8V341.9q0-11.6-8.2-19.8-8.2-8.2-19.8-8.2z" id="h"/><path fill="#FFF" fill-opacity=".337" d="M1057.2 350.15q-19.9-21.8-48.05-21.8t-48.1 21.8q-19.9 21.85-19.9 52.7t19.9 52.65q19.95 21.85 48.1 21.85 28.15 0 48.05-21.85 19.95-21.8 19.95-52.65 0-30.85-19.95-52.7z" id="i"/><path id="c" stroke="#8CA8B8" stroke-linejoin="round" stroke-linecap="round" fill="none" d="M605.25 635.35q4.1 0 7 2.95 2.95 2.9 2.95 7v81.6q-.1 3.95-2.95 6.75-2.9 2.95-7 2.95H496.6q-4.1 0-7-2.95-2.8-2.8-2.9-6.75v-81.6q0-4.1 2.9-7 2.9-2.95 7-2.95h108.6"/></defs><g transform="translate(-484.45 -632.95)"><use xlink:href="#b"/><use xlink:href="#c"/></g><g filter="url(#d)"><use xlink:href="#e" transform="translate(-483.9 -631.9)"/><g filter="url(#f)"><use xlink:href="#g" transform="translate(31.75 11.6) scale(.11894)"/><use xlink:href="#h" transform="translate(-95.762 18.968) scale(.11894)"/><use xlink:href="#i" transform="translate(-54.055 14.633) scale(.11894)"/></g><use xlink:href="#g" transform="matrix(.11895 0 0 .11895 30.4 9.603)"/><use xlink:href="#h" transform="matrix(.11895 0 0 .11895 -97.12 16.972)"/><use xlink:href="#i" transform="matrix(.11895 0 0 .11895 -55.41 12.636)"/></g></svg>