<svg xmlns="http://www.w3.org/2000/svg" xmlns:xlink="http://www.w3.org/1999/xlink" preserveAspectRatio="none" width="129" height="102" viewBox="0 0 129 102"><defs><g id="a"><path fill="#F00" d="M128.75 10.35q0-4.1-2.95-7-2.9-2.95-7-2.95H10.15q-4.1 0-7 2.95-2.9 2.9-2.9 7v81.6q.1 3.95 2.9 6.75 2.9 2.95 7 2.95H118.8q4.1 0 7-2.95 2.85-2.8 2.95-6.75v-81.6m-20.9 1.25l1.45-.35v8.95h-1.45v-.4q-.2.2-.65.35-.4.15-.9.15-1.3 0-2.05-.8-.75-.85-.75-2.35 0-1.45.85-2.4.9-.95 2.2-.95.7 0 1.3.3v-2.5m2.5 5.45q0-1.45.8-2.35.85-.9 2.2-.9 1.45 0 2.2.85.8.9.8 2.4t-.8 2.4q-.8.85-2.2.85-1.45 0-2.2-.85-.8-.9-.8-2.4m9-3.25q.95 0 1.85.45l-.45 1.15q-.45-.45-1.35-.45-.75 0-.75.65 0 .2.25.4t1.1.55q.8.3 1.15.75.4.5.4 1.15 0 .85-.65 1.35-.65.5-1.75.5-.65 0-1-.1-.4-.1-1-.4l.55-1.15q.65.5 1.45.5.85 0 .85-.6 0-.35-.25-.6-.25-.2-1-.55-1.6-.65-1.6-1.85 0-.85.6-1.3.6-.45 1.6-.45m-31.1 4.55q0-1.05.8-1.7.8-.6 2.3-.6.3 0 .65.1 0-1.1-1.4-1.1-.85 0-1.4.25l-.3-1.15q.75-.35 1.8-.35 1.4 0 2.1.65.65.65.65 2.5v1.35q0 1.25.5 1.55-.2.3-.4.4-.2.05-.5.05t-.6-.2q-.25-.25-.3-.55-.2.35-.7.55-.5.2-1.05.2-1 0-1.6-.5-.55-.5-.55-1.45m-5.25-4q.55-.55 1.35-.55 3 0 3 3.3 0 1.55-.85 2.4-.8.8-2.25.8-.7 0-1.25-.25v2.6h-1.5V13.9H83v.45m2.2 9h1.45l-1.3 1.75H84.2l1-1.75m11.65-9.55q.95 0 1.85.45l-.45 1.15q-.45-.45-1.35-.45-.75 0-.75.65 0 .2.25.4t1.1.55q.8.3 1.15.75.4.5.4 1.15 0 .85-.65 1.35-.65.5-1.75.5-.65 0-1-.1-.4-.1-1-.4l.55-1.15q.65.5 1.45.5.85 0 .85-.6 0-.35-.25-.6-.25-.2-1-.55-1.6-.65-1.6-1.85 0-.85.6-1.3.6-.45 1.6-.45m-1.3 9.7q.35 0 .6.25t.25.6q0 .35-.25.6t-.6.25q-.35 0-.6-.25t-.25-.6q0-.35.25-.6t.6-.25m2.85 3.2q.85-.9 2.2-.9 1.45 0 2.2.85.8.9.8 2.4t-.8 2.4q-.8.85-2.2.85-1.45 0-2.2-.85-.8-.9-.8-2.4 0-1.45.8-2.35m-3.6.45H94V25.9h2.25v6.3H94.8v-5.05m-1.95.15q-.35-.25-.85-.25t-.9.45q-.4.45-.4 1.15v3.55h-1.45v-6.3h1.45v.6q.6-.7 1.65-.7.75 0 1.15.25l-.65 1.25m3.95 8.3l1.45-.35v8.95H96.8v-.4q-.2.2-.65.35-.4.15-.9.15-1.3 0-2.05-.8-.75-.85-.75-2.35 0-1.45.85-2.4.9-.95 2.2-.95.7 0 1.3.3v-2.5M87 26.45q.65.65.65 2.5v1.35q0 1.25.5 1.55-.2.3-.4.4-.2.05-.5.05t-.6-.2q-.25-.25-.3-.55-.2.35-.7.55-.5.2-1.05.2-1 0-1.6-.5-.55-.5-.55-1.45 0-1.05.8-1.7.8-.6 2.3-.6.3 0 .65.1 0-1.1-1.4-1.1-.85 0-1.4.25l-.3-1.15q.75-.35 1.8-.35 1.4 0 2.1.65m-5.5-.55v1.2h-1.7v2.75q0 .65.2.95.2.3.75.3.5 0 .95-.3v1.35q-.5.15-1.45.15t-1.45-.5q-.5-.55-.5-1.5v-3.2h-.7v-1.2h.7v-1.25l1.5-.55v1.8h1.7m7.55 14.15q.3 0 .65.1 0-1.1-1.4-1.1-.85 0-1.4.25l-.3-1.15q.75-.35 1.8-.35 1.4 0 2.1.65.65.65.65 2.5v1.35q0 1.25.5 1.55-.2.3-.4.4-.2.05-.5.05t-.6-.2q-.25-.25-.3-.55-.2.35-.7.55-.5.2-1.05.2-1 0-1.6-.5-.55-.5-.55-1.45 0-1.05.8-1.7.8-.6 2.3-.6m-4.95-1.6q.65.65.65 1.9v3.85H83.3v-3.85q0-.6-.35-.95t-.95-.35q-.35 0-.75.2-.35.2-.5.45v4.5h-1.5v-8.6l1.5-.35v3.05q.55-.5 1.55-.5 1.15 0 1.8.65m15.2 3.9q0-1.05.8-1.7.8-.6 2.3-.6.3 0 .65.1 0-1.1-1.4-1.1-.85 0-1.4.25l-.3-1.15q.75-.35 1.8-.35 1.4 0 2.1.65.65.65.65 2.5v1.35q0 1.25.5 1.55-.2.3-.4.4-.2.05-.5.05t-.6-.2q-.25-.25-.3-.55-.2.35-.7.55-.5.2-1.05.2-1 0-1.6-.5-.55-.5-.55-1.45m9.1-13.05q.4.5.4 1.15 0 .85-.65 1.35-.65.5-1.75.5-.65 0-1-.1-.4-.1-1-.4l.55-1.15q.65.5 1.45.5.85 0 .85-.6 0-.35-.25-.6-.25-.2-1-.55-1.6-.65-1.6-1.85 0-.85.6-1.3.6-.45 1.6-.45.95 0 1.85.45L108 27.4q-.45-.45-1.35-.45-.75 0-.75.65 0 .2.25.4t1.1.55q.8.3 1.15.75m1.35 8.95l-.45 1.15q-.45-.45-1.35-.45-.75 0-.75.65 0 .2.25.4t1.1.55q.8.3 1.15.75.4.5.4 1.15 0 .85-.65 1.35-.65.5-1.75.5-.65 0-1-.1-.4-.1-1-.4l.55-1.15q.65.5 1.45.5.85 0 .85-.6 0-.35-.25-.6-.25-.2-1-.55-1.6-.65-1.6-1.85 0-.85.6-1.3.6-.45 1.6-.45.95 0 1.85.45m1.7 5.2q0-.45.35-.75.3-.3.7-.3.45 0 .75.3.35.3.35.75 0 .4-.35.75-.3.3-.75.3-.4 0-.7-.3-.35-.35-.35-.75m5.05 7.25q.85-.9 2.2-.9 1.45 0 2.2.85.8.9.8 2.4t-.8 2.4q-.8.85-2.2.85-1.45 0-2.2-.85-.8-.9-.8-2.4 0-1.45.8-2.35m-3.55-.9q1.1 0 1.9.6l-.6 1.1q-.55-.45-1.4-.45-.85 0-1.3.55-.5.55-.5 1.5 0 2 1.9 2 .8 0 1.4-.55l.55 1.15q-.65.4-1.1.5-.5.1-1.15.1-1.45 0-2.3-.85-.8-.85-.8-2.35 0-1.45.9-2.4.9-.9 2.5-.9m-6.05 4.45V49.9h1.45v6.3h-1.45v-.5q-.35.25-.85.45-.55.15-1 .15-2.2 0-2.2-2.3v-4.1h1.45v4q0 1.2 1.1 1.2.5 0 .9-.25.45-.25.6-.6m1.1 12.3l.55 1.15q-.8.6-2.3.6-1.45 0-2.3-.8-.8-.85-.8-2.35t.9-2.4q.9-.95 2.2-.95 1.35 0 2.2.8.8.85.8 2.1 0 .25-.1.8h-4.5q.05.75.55 1.2.45.4 1.25.4 1 0 1.55-.55m-5.35-4.5L102 63.3q-.35-.25-.85-.25t-.9.45q-.4.45-.4 1.15v3.55H98.4v-6.3h1.45v.6q.6-.7 1.65-.7.75 0 1.15.25m1.75 9.3h1.55l1 1.75h-1.2l-1.35-1.75m-.35 2.8q.75-.35 1.8-.35 1.4 0 2.1.65.65.65.65 2.5v1.35q0 1.25.5 1.55-.2.3-.4.4-.2.05-.5.05t-.6-.2q-.25-.25-.3-.55-.2.35-.7.55-.5.2-1.05.2-1 0-1.6-.5-.55-.5-.55-1.45 0-1.05.8-1.7.8-.6 2.3-.6.3 0 .65.1 0-1.1-1.4-1.1-.85 0-1.4.25l-.3-1.15m-5.4-24.35q1.45 0 2.2.85.8.9.8 2.4t-.8 2.4q-.8.85-2.2.85-1.45 0-2.2-.85-.8-.9-.8-2.4 0-1.45.8-2.35.85-.9 2.2-.9m-3.9 3.3q0 1.55-.85 2.4-.8.8-2.25.8-.7 0-1.25-.25v2.6h-1.5V49.9h1.5v.45q.55-.55 1.35-.55 3 0 3 3.3M81.65 52q.25.2 1.1.55.8.3 1.15.75.4.5.4 1.15 0 .85-.65 1.35-.65.5-1.75.5-.65 0-1-.1-.4-.1-1-.4l.55-1.15q.65.5 1.45.5.85 0 .85-.6 0-.35-.25-.6-.25-.2-1-.55-1.6-.65-1.6-1.85 0-.85.6-1.3.6-.45 1.6-.45.95 0 1.85.45l-.45 1.15q-.45-.45-1.35-.45-.75 0-.75.65 0 .2.25.4m5.1 8.65l1.5-.55v1.8h1.7v1.2h-1.7v2.75q0 .65.2.95.2.3.75.3.5 0 .95-.3v1.35q-.5.15-1.45.15t-1.45-.5q-.5-.55-.5-1.5v-3.2h-.7v-1.2h.7v-1.25m-1.7 1.6l-.45 1.15q-.45-.45-1.35-.45-.75 0-.75.65 0 .2.25.4t1.1.55q.8.3 1.15.75.4.5.4 1.15 0 .85-.65 1.35-.65.5-1.75.5-.65 0-1-.1-.4-.1-1-.4l.55-1.15q.65.5 1.45.5.85 0 .85-.6 0-.35-.25-.6-.25-.2-1-.55-1.6-.65-1.6-1.85 0-.85.6-1.3.6-.45 1.6-.45.95 0 1.85.45m-2.6 9.1l-1.3 1.75H80l1-1.75h1.45m8.05 1q0-.35.25-.6t.6-.25q.35 0 .6.25t.25.6q0 .35-.25.6t-.6.25q-.35 0-.6-.25t-.25-.6m-2.35 1.45q.75 0 1.15.25l-.65 1.25q-.35-.25-.85-.25t-.9.45q-.4.45-.4 1.15v3.55h-1.45v-6.3h1.45v.6q.6-.7 1.65-.7M91.3 66v-4.1h1.45v4q0 1.2 1.1 1.2.5 0 .9-.25.45-.25.6-.6V61.9h1.45v6.3h-1.45v-.5q-.35.25-.85.45-.55.15-1 .15-2.2 0-2.2-2.3m2.75 8.15q.75-.35 1.8-.35 1.4 0 2.1.65.65.65.65 2.5v1.35q0 1.25.5 1.55-.2.3-.4.4-.2.05-.5.05t-.6-.2q-.25-.25-.3-.55-.2.35-.7.55-.5.2-1.05.2-1 0-1.6-.5-.55-.5-.55-1.45 0-1.05.8-1.7.8-.6 2.3-.6.3 0 .65.1 0-1.1-1.4-1.1-.85 0-1.4.25l-.3-1.15m-4.25-.25h2.25v6.3H90.6v-5.05h-.8V73.9m-7 .55q.65.65.65 2.5v1.35q0 1.25.5 1.55-.2.3-.4.4-.2.05-.5.05t-.6-.2q-.25-.25-.3-.55-.2.35-.7.55-.5.2-1.05.2-1 0-1.6-.5-.55-.5-.55-1.45 0-1.05.8-1.7.8-.6 2.3-.6.3 0 .65.1 0-1.1-1.4-1.1-.85 0-1.4.25l-.3-1.15q.75-.35 1.8-.35 1.4 0 2.1.65m-1.15 11.7q.75-.35 1.8-.35 1.4 0 2.1.65.65.65.65 2.5v1.35q0 1.25.5 1.55-.2.3-.4.4-.2.05-.5.05t-.6-.2q-.25-.25-.3-.55-.2.35-.7.55-.5.2-1.05.2-1 0-1.6-.5-.55-.5-.55-1.45 0-1.05.8-1.7.8-.6 2.3-.6.3 0 .65.1 0-1.1-1.4-1.1-.85 0-1.4.25l-.3-1.15m6.35.1q.6-.45 1.6-.45.95 0 1.85.45L91 87.4q-.45-.45-1.35-.45-.75 0-.75.65 0 .2.25.4t1.1.55q.8.3 1.15.75.4.5.4 1.15 0 .85-.65 1.35-.65.5-1.75.5-.65 0-1-.1-.4-.1-1-.4l.55-1.15q.65.5 1.45.5.85 0 .85-.6 0-.35-.25-.6-.25-.2-1-.55-1.6-.65-1.6-1.85 0-.85.6-1.3m12.3 5.95q-.35-.35-.35-.75 0-.45.35-.75.3-.3.7-.3.45 0 .75.3.35.3.35.75 0 .4-.35.75-.3.3-.75.3-.4 0-.7-.3m-2.55-5.55q.8.9.8 2.4t-.8 2.4q-.8.85-2.2.85-1.45 0-2.2-.85-.8-.9-.8-2.4 0-1.45.8-2.35.85-.9 2.2-.9 1.45 0 2.2.85M68.3 16.15q0-1.1-1.4-1.1-.85 0-1.4.25l-.3-1.15q.75-.35 1.8-.35 1.4 0 2.1.65.65.65.65 2.5v1.35q0 1.25.5 1.55-.2.3-.4.4-.2.05-.5.05t-.6-.2q-.25-.25-.3-.55-.2.35-.7.55-.5.2-1.05.2-1 0-1.6-.5-.55-.5-.55-1.45 0-1.05.8-1.7.8-.6 2.3-.6.3 0 .65.1m-4.7-1.05h-1.7v2.75q0 .65.2.95.2.3.75.3.5 0 .95-.3v1.35q-.5.15-1.45.15t-1.45-.5q-.5-.55-.5-1.5v-3.2h-.7v-1.2h.7v-1.25l1.5-.55v1.8h1.7v1.2m15.9-.7q.55.6.55 1.65v4.15H78.6v-3.95q0-1.2-1.1-1.2-.35 0-.65.2-.3.15-.4.4v4.55h-1.5v-4.15q0-.45-.25-.75-.3-.25-.8-.25-.3 0-.6.2-.35.2-.5.45v4.5h-1.45v-6.3h1l.3.6q.6-.7 1.55-.7 1.25 0 1.9.7.3-.3.75-.5.5-.2 1-.2 1.05 0 1.65.6m-4.7 9.95q0-.35.25-.6t.6-.25q.35 0 .6.25t.25.6q0 .35-.25.6t-.6.25q-.35 0-.6-.25t-.25-.6M47 15.05q-.85 0-1.4.25l-.3-1.15q.75-.35 1.8-.35 1.4 0 2.1.65.65.65.65 2.5v1.35q0 1.25.5 1.55-.2.3-.4.4-.2.05-.5.05t-.6-.2q-.25-.25-.3-.55-.2.35-.7.55-.5.2-1.05.2-1 0-1.6-.5-.55-.5-.55-1.45 0-1.05.8-1.7.8-.6 2.3-.6.3 0 .65.1 0-1.1-1.4-1.1m6.25-1.25q.95 0 1.85.45l-.45 1.15q-.45-.45-1.35-.45-.75 0-.75.65 0 .2.25.4t1.1.55q.8.3 1.15.75.4.5.4 1.15 0 .85-.65 1.35-.65.5-1.75.5-.65 0-1-.1-.4-.1-1-.4l.55-1.15q.65.5 1.45.5.85 0 .85-.6 0-.35-.25-.6-.25-.2-1-.55-1.6-.65-1.6-1.85 0-.85.6-1.3.6-.45 1.6-.45m6.25 12.45l-.45 1.15q-.45-.45-1.35-.45-.75 0-.75.65 0 .2.25.4t1.1.55q.8.3 1.15.75.4.5.4 1.15 0 .85-.65 1.35-.65.5-1.75.5-.65 0-1-.1-.4-.1-1-.4l.55-1.15q.65.5 1.45.5.85 0 .85-.6 0-.35-.25-.6-.25-.2-1-.55-1.6-.65-1.6-1.85 0-.85.6-1.3.6-.45 1.6-.45.95 0 1.85.45m-8.8 3.05q.4.5.4 1.15 0 .85-.65 1.35-.65.5-1.75.5-.65 0-1-.1-.4-.1-1-.4l.55-1.15q.65.5 1.45.5.85 0 .85-.6 0-.35-.25-.6-.25-.2-1-.55-1.6-.65-1.6-1.85 0-.85.6-1.3.6-.45 1.6-.45.95 0 1.85.45l-.45 1.15q-.45-.45-1.35-.45-.75 0-.75.65 0 .2.25.4t1.1.55q.8.3 1.15.75m-7.8-3.5q1.45 0 2.2.85.8.9.8 2.4t-.8 2.4q-.8.85-2.2.85-1.45 0-2.2-.85-.8-.9-.8-2.4 0-1.45.8-2.35.85-.9 2.2-.9m4.65 12.7q.6-.7 1.65-.7.75 0 1.15.25l-.65 1.25q-.35-.25-.85-.25t-.9.45q-.4.45-.4 1.15v3.55H46.1v-6.3h1.45v.6m-5.75-.7q3 0 3 3.3 0 1.55-.85 2.4-.8.8-2.25.8-.7 0-1.25-.25v2.6h-1.5V37.9h1.5v.45q.55-.55 1.35-.55m15.15 2.9q0 .25-.1.8h-4.5q.05.75.55 1.2.45.4 1.25.4 1 0 1.55-.55l.55 1.15q-.8.6-2.3.6-1.45 0-2.3-.8-.8-.85-.8-2.35t.9-2.4q.9-.95 2.2-.95 1.35 0 2.2.8.8.85.8 2.1m-6.2 6.9l1.5-.35v3.05q.55-.5 1.55-.5 1.15 0 1.8.65.65.65.65 1.9v3.85H54.8v-3.85q0-.6-.35-.95t-.95-.35q-.35 0-.75.2-.35.2-.5.45v4.5h-1.5v-8.6m21.5-21.1q.65.65.65 1.85v3.85h-1.45v-3.65q0-.8-.35-1.15-.3-.35-1-.35-.3 0-.65.15-.4.2-.6.45v4.55H67.4v-6.3h1.05l.25.6q.6-.7 1.8-.7 1.1 0 1.75.7m1.85.65V25.9h2.25v6.3H74.9v-5.05h-.8m-11.15-.1q-.85 0-1.4.25l-.3-1.15q.75-.35 1.8-.35 1.4 0 2.1.65.65.65.65 2.5v1.35q0 1.25.5 1.55-.2.3-.4.4-.2.05-.5.05t-.6-.2q-.25-.25-.3-.55-.2.35-.7.55-.5.2-1.05.2-1 0-1.6-.5-.55-.5-.55-1.45 0-1.05.8-1.7.8-.6 2.3-.6.3 0 .65.1 0-1.1-1.4-1.1m2.3 9.65q-.5-.15-.75-.15-.4 0-.7.35-.3.35-.3.85v.15h1.3v1.25h-1.25v5.05h-1.5v-5.05h-.9V37.9h.95q0-1.15.65-1.85.65-.7 1.65-.7.5 0 1.25.25l-.4 1.1m1.45 2.05q.9-.95 2.2-.95 1.35 0 2.2.8.8.85.8 2.1 0 .25-.1.8h-4.5q.05.75.55 1.2.45.4 1.25.4 1 0 1.55-.55l.55 1.15q-.8.6-2.3.6-1.45 0-2.3-.8-.8-.85-.8-2.35t.9-2.4m-1.65 9.6q0-.35.25-.6t.6-.25q.35 0 .6.25t.25.6q0 .35-.25.6t-.6.25q-.35 0-.6-.25t-.25-.6M76.1 37.8q1.1 0 1.9.6l-.6 1.1q-.55-.45-1.4-.45-.85 0-1.3.55-.5.55-.5 1.5 0 2 1.9 2 .8 0 1.4-.55l.55 1.15q-.65.4-1.1.5-.5.1-1.15.1-1.45 0-2.3-.85-.8-.85-.8-2.35 0-1.45.9-2.4.9-.9 2.5-.9M25.45 11.5q.35 0 .6.25t.25.6q0 .35-.25.6t-.6.25q-.35 0-.6-.25t-.25-.6q0-.35.25-.6t.6-.25M29 13.9l1.35 1.95 1.45-1.95h1.7L31.05 17l2.65 3.2h-1.8l-1.6-2.05-1.45 2.05h-1.7l2.4-3.2-2.25-3.1H29m-6.7.7q.8.85.8 2.1 0 .25-.1.8h-4.5q.05.75.55 1.2.45.4 1.25.4 1 0 1.55-.55l.55 1.15q-.8.6-2.3.6-1.45 0-2.3-.8-.8-.85-.8-2.35t.9-2.4q.9-.95 2.2-.95 1.35 0 2.2.8m2.4.55h-.8V13.9h2.25v6.3H24.7v-5.05m15.45 2.35h-4.5q.05.75.55 1.2.45.4 1.25.4 1 0 1.55-.55l.55 1.15q-.8.6-2.3.6-1.45 0-2.3-.8-.8-.85-.8-2.35t.9-2.4q.9-.95 2.2-.95 1.35 0 2.2.8.8.85.8 2.1 0 .25-.1.8m-25.1-4.85q1.1 1.1 1.1 2.9 0 4.65-4.45 4.65H9.8v-8.6q1.8-.05 2.25-.05 1.9 0 3 1.1m2.8 26.95q0 .2.25.4t1.1.55q.8.3 1.15.75.4.5.4 1.15 0 .85-.65 1.35-.65.5-1.75.5-.65 0-1-.1-.4-.1-1-.4l.55-1.15q.65.5 1.45.5.85 0 .85-.6 0-.35-.25-.6-.25-.2-1-.55-1.6-.65-1.6-1.85 0-.85.6-1.3.6-.45 1.6-.45.95 0 1.85.45l-.45 1.15q-.45-.45-1.35-.45-.75 0-.75.65m-2.8 8v1.35H11.1V51h2.85v1.25H11.1v2.6H15v1.35H9.6v-8.6h5.45M38.8 26.25l-.45 1.15q-.45-.45-1.35-.45-.75 0-.75.65 0 .2.25.4t1.1.55q.8.3 1.15.75.4.5.4 1.15 0 .85-.65 1.35-.65.5-1.75.5-.65 0-1-.1-.4-.1-1-.4l.55-1.15q.65.5 1.45.5.85 0 .85-.6 0-.35-.25-.6-.25-.2-1-.55-1.6-.65-1.6-1.85 0-.85.6-1.3.6-.45 1.6-.45.95 0 1.85.45m-5.25 2.7v1.35q0 1.25.5 1.55-.2.3-.4.4-.2.05-.5.05t-.6-.2q-.25-.25-.3-.55-.2.35-.7.55-.5.2-1.05.2-1 0-1.6-.5-.55-.5-.55-1.45 0-1.05.8-1.7.8-.6 2.3-.6.3 0 .65.1 0-1.1-1.4-1.1-.85 0-1.4.25l-.3-1.15q.75-.35 1.8-.35 1.4 0 2.1.65.65.65.65 2.5M26.4 25.9h1.55l-2.9 6.4h-.55l-2.8-6.4h1.6l1.5 3.85 1.6-3.85m3.4 12l.3.6q.6-.7 1.55-.7 1.25 0 1.9.7.3-.3.75-.5.5-.2 1-.2 1.05 0 1.65.6.55.6.55 1.65v4.15h-1.45v-3.95q0-1.2-1.1-1.2-.35 0-.65.2-.3.15-.4.4v4.55h-1.5v-4.15q0-.45-.25-.75-.3-.25-.8-.25-.3 0-.6.2-.35.2-.5.45v4.5H28.8v-6.3h1m-3 .7q.8.85.8 2.1 0 .25-.1.8H23q.05.75.55 1.2.45.4 1.25.4 1 0 1.55-.55l.55 1.15q-.8.6-2.3.6-1.45 0-2.3-.8-.8-.85-.8-2.35t.9-2.4q.9-.95 2.2-.95 1.35 0 2.2.8m3.3 9l1.5-.35v2.9q.55-.35 1.25-.35 1.4 0 2.25.9.85.85.85 2.2 0 1.6-.85 2.5-.85.9-2.3.9-.9 0-1.5-.45l-.35.45h-.85v-8.7m7.4 2.55q.75-.35 1.8-.35 1.4 0 2.1.65.65.65.65 2.5v1.35q0 1.25.5 1.55-.2.3-.4.4-.2.05-.5.05t-.6-.2q-.25-.25-.3-.55-.2.35-.7.55-.5.2-1.05.2-1 0-1.6-.5-.55-.5-.55-1.45 0-1.05.8-1.7.8-.6 2.3-.6.3 0 .65.1 0-1.1-1.4-1.1-.85 0-1.4.25l-.3-1.15m-15.65 1.1q-.3.15-.4.4v4.55h-1.5v-4.15q0-.45-.25-.75-.3-.25-.8-.25-.3 0-.6.2-.35.2-.5.45v4.5h-1.45v-6.3h1l.3.6q.6-.7 1.55-.7 1.25 0 1.9.7.3-.3.75-.5.5-.2 1-.2 1.05 0 1.65.6.55.6.55 1.65v4.15H23.6v-3.95q0-1.2-1.1-1.2-.35 0-.65.2m6.8 12.3q0-.85.6-1.3.6-.45 1.6-.45.95 0 1.85.45l-.45 1.15q-.45-.45-1.35-.45-.75 0-.75.65 0 .2.25.4t1.1.55q.8.3 1.15.75.4.5.4 1.15 0 .85-.65 1.35-.65.5-1.75.5-.65 0-1-.1-.4-.1-1-.4l.55-1.15q.65.5 1.45.5.85 0 .85-.6 0-.35-.25-.6-.25-.2-1-.55-1.6-.65-1.6-1.85M26 61.9h1.45v6.3H26v-.5q-.35.25-.85.45-.55.15-1 .15-2.2 0-2.2-2.3v-4.1h1.45v4q0 1.2 1.1 1.2.5 0 .9-.25.45-.25.6-.6V61.9m-3.6 12.25q.75-.35 1.8-.35 1.4 0 2.1.65.65.65.65 2.5v1.35q0 1.25.5 1.55-.2.3-.4.4-.2.05-.5.05t-.6-.2q-.25-.25-.3-.55-.2.35-.7.55-.5.2-1.05.2-1 0-1.6-.5-.55-.5-.55-1.45 0-1.05.8-1.7.8-.6 2.3-.6.3 0 .65.1 0-1.1-1.4-1.1-.85 0-1.4.25l-.3-1.15m2.25-1.05H23.5l1-1.75h1.45l-1.3 1.75m12.9-8.95q0-1.1-1.4-1.1-.85 0-1.4.25l-.3-1.15q.75-.35 1.8-.35 1.4 0 2.1.65.65.65.65 2.5v1.35q0 1.25.5 1.55-.2.3-.4.4-.2.05-.5.05t-.6-.2q-.25-.25-.3-.55-.2.35-.7.55-.5.2-1.05.2-1 0-1.6-.5-.55-.5-.55-1.45 0-1.05.8-1.7.8-.6 2.3-.6.3 0 .65.1M30.6 73.8q.85 0 1.4.3l.6-.65 1 .9-.7.5q.35.55.35 1.3 0 1.1-.65 1.75-.65.65-1.65.65-.15 0-.4-.05l-.25-.05q-.05 0-.3.15-.3.1-.3.25 0 .25.4.25.2 0 .65-.1.4-.1.7-.1 2.15 0 2.15 1.75 0 .95-.85 1.45-.85.55-2.05.55-1.45 0-2.65-.85l.95-1.15q.75.7 1.7.7.65 0 1.05-.15.4-.2.4-.55 0-.55-.9-.55-.25 0-.75.05-.45.1-.7.1-1.5 0-1.5-1.1 0-.3.25-.6t.55-.45q-1.05-.7-1.05-2 0-1 .75-1.65.7-.65 1.8-.65m8 .1h1.45v6.3H38.6v-.5q-.35.25-.85.45-.55.15-1 .15-2.2 0-2.2-2.3v-4.1H36v4q0 1.2 1.1 1.2.5 0 .9-.25.45-.25.6-.6V73.9m-6.55 9.45l-1.3 1.75H29.6l1-1.75h1.45m6.65 2.1l1 .9-.7.5q.35.55.35 1.3 0 1.1-.65 1.75-.65.65-1.65.65-.15 0-.4-.05l-.25-.05q-.05 0-.3.15-.3.1-.3.25 0 .25.4.25.2 0 .65-.1.4-.1.7-.1 2.15 0 2.15 1.75 0 .95-.85 1.45-.85.55-2.05.55-1.45 0-2.65-.85l.95-1.15q.75.7 1.7.7.65 0 1.05-.15.4-.2.4-.55 0-.55-.9-.55-.25 0-.75.05-.45.1-.7.1-1.5 0-1.5-1.1 0-.3.25-.6t.55-.45q-1.05-.7-1.05-2 0-1 .75-1.65.7-.65 1.8-.65.85 0 1.4.3l.6-.65m-10.2.7q.75-.35 1.8-.35 1.4 0 2.1.65.65.65.65 2.5v1.35q0 1.25.5 1.55-.2.3-.4.4-.2.05-.5.05t-.6-.2q-.25-.25-.3-.55-.2.35-.7.55-.5.2-1.05.2-1 0-1.6-.5-.55-.5-.55-1.45 0-1.05.8-1.7.8-.6 2.3-.6.3 0 .65.1 0-1.1-1.4-1.1-.85 0-1.4.25l-.3-1.15M76.1 49.8q1.45 0 2.2.85.8.9.8 2.4t-.8 2.4q-.8.85-2.2.85-1.45 0-2.2-.85-.8-.9-.8-2.4 0-1.45.8-2.35.85-.9 2.2-.9m-4.65 0q.75 0 1.15.25l-.65 1.25q-.35-.25-.85-.25t-.9.45q-.4.45-.4 1.15v3.55h-1.45v-6.3h1.45v.6q.6-.7 1.65-.7m6.65 10.55q0-.35.25-.6t.6-.25q.35 0 .6.25t.25.6q0 .35-.25.6t-.6.25q-.35 0-.6-.25t-.25-.6m-13.75-9.2V49.9h2.25v6.3h-1.45v-5.05h-.8m-3.6 3.95q1 0 1.55-.55l.55 1.15q-.8.6-2.3.6-1.45 0-2.3-.8-.8-.85-.8-2.35t.9-2.4q.9-.95 2.2-.95 1.35 0 2.2.8.8.85.8 2.1 0 .25-.1.8h-4.5q.05.75.55 1.2.45.4 1.25.4m7.75 6.8l.3.6q.6-.7 1.55-.7 1.25 0 1.9.7.3-.3.75-.5.5-.2 1-.2 1.05 0 1.65.6.55.6.55 1.65v4.15h-1.45v-3.95q0-1.2-1.1-1.2-.35 0-.65.2-.3.15-.4.4v4.55h-1.5v-4.15q0-.45-.25-.75-.3-.25-.8-.25-.3 0-.6.2-.35.2-.5.45v4.5H67.5v-6.3h1m-7.6 4.7q.4 0 .7.3.3.3.3.7 0 .75-.35 1.35-.35.6-1.6 1.45l-.5-.65q1.1-.8 1.1-1.25 0-.2-.15-.35-.55-.25-.55-.75 0-.35.3-.6.3-.2.75-.2m2.3 7.3h1.05l.25.6q.6-.7 1.8-.7 1.1 0 1.75.7.65.65.65 1.85v3.85h-1.45v-3.65q0-.8-.35-1.15-.3-.35-1-.35-.3 0-.65.15-.4.2-.6.45v4.55H63.2v-6.3m7.4-1.55q0-.35.25-.6t.6-.25q.35 0 .6.25t.25.6q0 .35-.25.6t-.6.25q-.35 0-.6-.25t-.25-.6m6.8-10.45h2.25v6.3H78.2v-5.05h-.8V61.9m-3.3 12v-1.25l1.5-.55v1.8h1.7v1.2h-1.7v2.75q0 .65.2.95.2.3.75.3.5 0 .95-.3v1.35q-.5.15-1.45.15t-1.45-.5q-.5-.55-.5-1.5v-3.2h-.7v-1.2h.7m-4.2 0h2.25v6.3H70.7v-5.05h-.8V73.9M46.35 51.05q-.3 0-.65.15-.4.2-.6.45v4.55h-1.45v-6.3h1.05l.25.6q.6-.7 1.8-.7 1.1 0 1.75.7.65.65.65 1.85v3.85H47.7v-3.65q0-.8-.35-1.15-.3-.35-1-.35m-1.7 8.55l1.45-.35v8.95h-1.45v-.4q-.2.2-.65.35-.4.15-.9.15-1.3 0-2.05-.8-.75-.85-.75-2.35 0-1.45.85-2.4.9-.95 2.2-.95.7 0 1.3.3v-2.5m3.3 7.85q-.8-.9-.8-2.4 0-1.45.8-2.35.85-.9 2.2-.9 1.45 0 2.2.85.8.9.8 2.4t-.8 2.4q-.8.85-2.2.85-1.45 0-2.2-.85m-6.05 6.7q.75-.35 1.8-.35 1.4 0 2.1.65.65.65.65 2.5v1.35q0 1.25.5 1.55-.2.3-.4.4-.2.05-.5.05t-.6-.2q-.25-.25-.3-.55-.2.35-.7.55-.5.2-1.05.2-1 0-1.6-.5-.55-.5-.55-1.45 0-1.05.8-1.7.8-.6 2.3-.6.3 0 .65.1 0-1.1-1.4-1.1-.85 0-1.4.25l-.3-1.15M55.7 64q.25.2 1.1.55.8.3 1.15.75.4.5.4 1.15 0 .85-.65 1.35-.65.5-1.75.5-.65 0-1-.1-.4-.1-1-.4l.55-1.15q.65.5 1.45.5.85 0 .85-.6 0-.35-.25-.6-.25-.2-1-.55-1.6-.65-1.6-1.85 0-.85.6-1.3.6-.45 1.6-.45.95 0 1.85.45l-.45 1.15q-.45-.45-1.35-.45-.75 0-.75.65 0 .2.25.4m1.35 10.15q.75-.35 1.8-.35 1.4 0 2.1.65.65.65.65 2.5v1.35q0 1.25.5 1.55-.2.3-.4.4-.2.05-.5.05t-.6-.2q-.25-.25-.3-.55-.2.35-.7.55-.5.2-1.05.2-1 0-1.6-.5-.55-.5-.55-1.45 0-1.05.8-1.7.8-.6 2.3-.6.3 0 .65.1 0-1.1-1.4-1.1-.85 0-1.4.25l-.3-1.15m-2.95 2.4q.8.3 1.15.75.4.5.4 1.15 0 .85-.65 1.35-.65.5-1.75.5-.65 0-1-.1-.4-.1-1-.4l.55-1.15q.65.5 1.45.5.85 0 .85-.6 0-.35-.25-.6-.25-.2-1-.55-1.6-.65-1.6-1.85 0-.85.6-1.3.6-.45 1.6-.45.95 0 1.85.45l-.45 1.15q-.45-.45-1.35-.45-.75 0-.75.65 0 .2.25.4t1.1.55M40.65 85.9h1.45v4q0 1.2 1.1 1.2.5 0 .9-.25.45-.25.6-.6V85.9h1.45v6.3H44.7v-.5q-.35.25-.85.45-.55.15-1 .15-2.2 0-2.2-2.3v-4.1m7.35.25q.75-.35 1.8-.35 1.4 0 2.1.65.65.65.65 2.5v1.35q0 1.25.5 1.55-.2.3-.4.4-.2.05-.5.05t-.6-.2q-.25-.25-.3-.55-.2.35-.7.55-.5.2-1.05.2-1 0-1.6-.5-.55-.5-.55-1.45 0-1.05.8-1.7.8-.6 2.3-.6.3 0 .65.1 0-1.1-1.4-1.1-.85 0-1.4.25l-.3-1.15m9.45 3q0-1.45.85-2.4.9-.95 2.2-.95.7 0 1.3.3v-2.5l1.45-.35v8.95H61.8v-.4q-.2.2-.65.35-.4.15-.9.15-1.3 0-2.05-.8-.75-.85-.75-2.35m21.6-3.25h1.55l-2.9 6.4h-.55l-2.8-6.4h1.6l1.5 3.85 1.6-3.85m-9.55 5.55q-.8.85-2.2.85-1.45 0-2.2-.85-.8-.9-.8-2.4 0-1.45.8-2.35.85-.9 2.2-.9 1.45 0 2.2.85.8.9.8 2.4t-.8 2.4m-1.1-.85q.4-.55.4-1.55 0-2.05-1.5-2.05-.7 0-1.1.55-.4.55-.4 1.5 0 2.05 1.5 2.05.7 0 1.1-.5m-8.95-3q-.5.5-.5 1.5 0 2 1.9 2 .2 0 .55-.15.3-.1.4-.25v-3.3q-.5-.35-1-.35-.9 0-1.35.55M48.8 90.3q0 .85.95.85 1.35 0 1.35-1.3v-.6q-.4-.1-.55-.1-1.75 0-1.75 1.15m11.35-13.05q-.4-.1-.55-.1-1.75 0-1.75 1.15 0 .85.95.85 1.35 0 1.35-1.3v-.6m-15.15 0q-.4-.1-.55-.1-1.75 0-1.75 1.15 0 .85.95.85 1.35 0 1.35-1.3v-.6m4.05-13.7q-.4.55-.4 1.5 0 2.05 1.5 2.05.7 0 1.1-.5.4-.55.4-1.55 0-2.05-1.5-2.05-.7 0-1.1.55m-4.4 3.15v-3.3q-.5-.35-1-.35-.9 0-1.35.55-.5.5-.5 1.5 0 2 1.9 2 .2 0 .55-.15.3-.1.4-.25m15.9-15.65q-1.25 0-1.55 1.35h3.1q-.15-1.35-1.55-1.35m17.05 2q0-2.05-1.5-2.05-.7 0-1.1.55-.4.55-.4 1.5 0 2.05 1.5 2.05.7 0 1.1-.5.4-.55.4-1.55M29.3 90.3q0 .85.95.85 1.35 0 1.35-1.3v-.6q-.4-.1-.55-.1-1.75 0-1.75 1.15m6.35-2.15q0 .55.3.85.3.35.8.35.55 0 .85-.3.25-.35.25-.9 0-.5-.3-.8-.3-.35-.8-.35t-.8.3q-.3.35-.3.85m-4.2-12.8q-.3-.35-.8-.35t-.8.3q-.3.35-.3.85 0 .55.3.85.3.35.8.35.55 0 .85-.3.25-.35.25-.9 0-.5-.3-.8m6.1-10.1q-.4-.1-.55-.1-1.75 0-1.75 1.15 0 .85.95.85 1.35 0 1.35-1.3v-.6M25.5 77.85v-.6q-.4-.1-.55-.1-1.75 0-1.75 1.15 0 .85.95.85 1.35 0 1.35-1.3m14.55-24.7q-1.75 0-1.75 1.15 0 .85.95.85 1.35 0 1.35-1.3v-.6q-.4-.1-.55-.1M31.6 51.4v3.3q.3.4.85.4 1.05 0 1.5-.55.45-.5.45-1.6 0-1.9-1.8-1.9-.65 0-1 .35m-7-12.35q-1.25 0-1.55 1.35h3.1q-.15-1.35-1.55-1.35m7.5-9.8q-.4-.1-.55-.1-1.75 0-1.75 1.15 0 .85.95.85 1.35 0 1.35-1.3v-.6M13.9 18q.65-.85.65-2.35 0-2.75-2.55-2.75-.25 0-.7.05v5.85q.35.05.8.05 1.15 0 1.8-.85m23.35-2.95q-1.25 0-1.55 1.35h3.1q-.15-1.35-1.55-1.35m-17.15 0q-1.25 0-1.55 1.35h3.1q-.15-1.35-1.55-1.35M70.45 40.4q-.15-1.35-1.55-1.35-1.25 0-1.55 1.35h3.1m-6.1-11.15q-.4-.1-.55-.1-1.75 0-1.75 1.15 0 .85.95.85 1.35 0 1.35-1.3v-.6m-10.4 9.8q-1.25 0-1.55 1.35h3.1q-.15-1.35-1.55-1.35m-11.1.45q-.45-.45-1.45-.45-.55 0-.95.4v3.3q.4.35.9.35 1.05 0 1.5-.5.4-.5.4-1.55 0-1.1-.4-1.55M44 30.6q.4-.55.4-1.55 0-2.05-1.5-2.05-.7 0-1.1.55-.4.55-.4 1.5 0 2.05 1.5 2.05.7 0 1.1-.5m3.85-13.45q-1.75 0-1.75 1.15 0 .85.95.85 1.35 0 1.35-1.3v-.6q-.4-.1-.55-.1m20.45.1q-.4-.1-.55-.1-1.75 0-1.75 1.15 0 .85.95.85 1.35 0 1.35-1.3v-.6M96.65 90.6q.4-.55.4-1.55 0-2.05-1.5-2.05-.7 0-1.1.55-.4.55-.4 1.5 0 2.05 1.5 2.05.7 0 1.1-.5m-11.9-1.35q-.4-.1-.55-.1-1.75 0-1.75 1.15 0 .85.95.85 1.35 0 1.35-1.3v-.6m-2.75-12q-.4-.1-.55-.1-1.75 0-1.75 1.15 0 .85.95.85 1.35 0 1.35-1.3v-.6m15.15 0q-.4-.1-.55-.1-1.75 0-1.75 1.15 0 .85.95.85 1.35 0 1.35-1.3v-.6M92.8 51.5q-.45-.45-1.45-.45-.55 0-.95.4v3.3q.4.35.9.35 1.05 0 1.5-.5.4-.5.4-1.55 0-1.1-.4-1.55m4.35 1.55q0 2.05 1.5 2.05.7 0 1.1-.5.4-.55.4-1.55 0-2.05-1.5-2.05-.7 0-1.1.55-.4.55-.4 1.5m10 24.2q-.4-.1-.55-.1-1.75 0-1.75 1.15 0 .85.95.85 1.35 0 1.35-1.3v-.6m-.9-14.2q-1.25 0-1.55 1.35h3.1q-.15-1.35-1.55-1.35m11.35-11.5q-.4.55-.4 1.5 0 2.05 1.5 2.05.7 0 1.1-.5.4-.55.4-1.55 0-2.05-1.5-2.05-.7 0-1.1.55m-14.55-9.7v-.6q-.4-.1-.55-.1-1.75 0-1.75 1.15 0 .85.95.85 1.35 0 1.35-1.3m-15.65.45q0 .85.95.85 1.35 0 1.35-1.3v-.6q-.4-.1-.55-.1-1.75 0-1.75 1.15m-1.2-12.45v-.6q-.4-.1-.55-.1-1.75 0-1.75 1.15 0 .85.95.85 1.35 0 1.35-1.3M96.8 42.7v-3.3q-.5-.35-1-.35-.9 0-1.35.55-.5.5-.5 1.5 0 2 1.9 2 .2 0 .55-.15.3-.1.4-.25m3.8-15.7q-.7 0-1.1.55-.4.55-.4 1.5 0 2.05 1.5 2.05.7 0 1.1-.5.4-.55.4-1.55 0-2.05-1.5-2.05m-14.8-9.95q0-1.1-.4-1.55-.45-.45-1.45-.45-.55 0-.95.4v3.3q.4.35.9.35 1.05 0 1.5-.5.4-.5.4-1.55m3.9 1.25q0 .85.95.85 1.35 0 1.35-1.3v-.6q-.4-.1-.55-.1-1.75 0-1.75 1.15m23.65-3.3q-.7 0-1.1.55-.4.55-.4 1.5 0 2.05 1.5 2.05.7 0 1.1-.5.4-.55.4-1.55 0-2.05-1.5-2.05m-5.5.4q-.5-.35-1-.35-.9 0-1.35.55-.5.5-.5 1.5 0 2 1.9 2 .2 0 .55-.15.3-.1.4-.25v-3.3z"/><path d="M67.3 92.3q1.4 0 2.2-.85.8-.9.8-2.4t-.8-2.4q-.75-.85-2.2-.85-1.35 0-2.2.9-.8.9-.8 2.35 0 1.5.8 2.4.75.85 2.2.85m1.5-3.25q0 1-.4 1.55-.4.5-1.1.5-1.5 0-1.5-2.05 0-.95.4-1.5t1.1-.55q1.5 0 1.5 2.05m11.8-3.15h-1.55l-1.6 3.85-1.5-3.85h-1.6l2.8 6.4h.55l2.9-6.4m-22.3.85q-.85.95-.85 2.4 0 1.5.75 2.35.75.8 2.05.8.5 0 .9-.15.45-.15.65-.35v.4h1.45v-8.95l-1.45.35v2.5q-.6-.3-1.3-.3-1.3 0-2.2.95m.65 2.35q0-1 .5-1.5.45-.55 1.35-.55.5 0 1 .35v3.3q-.1.15-.4.25-.35.15-.55.15-1.9 0-1.9-2m-9.15-3.3q-1.05 0-1.8.35l.3 1.15q.55-.25 1.4-.25 1.4 0 1.4 1.1-.35-.1-.65-.1-1.5 0-2.3.6-.8.65-.8 1.7 0 .95.55 1.45.6.5 1.6.5.55 0 1.05-.2t.7-.55q.05.3.3.55.3.2.6.2t.5-.05q.2-.1.4-.4-.5-.3-.5-1.55v-1.35q0-1.85-.65-2.5-.7-.65-2.1-.65m-.05 5.35q-.95 0-.95-.85 0-1.15 1.75-1.15.15 0 .55.1v.6q0 1.3-1.35 1.3M42.1 85.9h-1.45V90q0 2.3 2.2 2.3.45 0 1-.15.5-.2.85-.45v.5h1.45v-6.3H44.7v4.35q-.15.35-.6.6-.4.25-.9.25-1.1 0-1.1-1.2v-4m13.15-8.6q-.35-.45-1.15-.75-.85-.35-1.1-.55-.25-.2-.25-.4 0-.65.75-.65.9 0 1.35.45l.45-1.15q-.9-.45-1.85-.45-1 0-1.6.45-.6.45-.6 1.3 0 1.2 1.6 1.85.75.35 1 .55.25.25.25.6 0 .6-.85.6-.8 0-1.45-.5l-.55 1.15q.6.3 1 .4.35.1 1 .1 1.1 0 1.75-.5.65-.5.65-1.35 0-.65-.4-1.15m3.6-3.5q-1.05 0-1.8.35l.3 1.15q.55-.25 1.4-.25 1.4 0 1.4 1.1-.35-.1-.65-.1-1.5 0-2.3.6-.8.65-.8 1.7 0 .95.55 1.45.6.5 1.6.5.55 0 1.05-.2t.7-.55q.05.3.3.55.3.2.6.2t.5-.05q.2-.1.4-.4-.5-.3-.5-1.55v-1.35q0-1.85-.65-2.5-.7-.65-2.1-.65m.75 3.35q.15 0 .55.1v.6q0 1.3-1.35 1.3-.95 0-.95-.85 0-1.15 1.75-1.15m-2.8-12.6q-.85-.35-1.1-.55-.25-.2-.25-.4 0-.65.75-.65.9 0 1.35.45l.45-1.15q-.9-.45-1.85-.45-1 0-1.6.45-.6.45-.6 1.3 0 1.2 1.6 1.85.75.35 1 .55.25.25.25.6 0 .6-.85.6-.8 0-1.45-.5l-.55 1.15q.6.3 1 .4.35.1 1 .1 1.1 0 1.75-.5.65-.5.65-1.35 0-.65-.4-1.15-.35-.45-1.15-.75M43.7 73.8q-1.05 0-1.8.35l.3 1.15q.55-.25 1.4-.25 1.4 0 1.4 1.1-.35-.1-.65-.1-1.5 0-2.3.6-.8.65-.8 1.7 0 .95.55 1.45.6.5 1.6.5.55 0 1.05-.2t.7-.55q.05.3.3.55.3.2.6.2t.5-.05q.2-.1.4-.4-.5-.3-.5-1.55v-1.35q0-1.85-.65-2.5-.7-.65-2.1-.65m.75 3.35q.15 0 .55.1v.6q0 1.3-1.35 1.3-.95 0-.95-.85 0-1.15 1.75-1.15m2.7-12.1q0 1.5.8 2.4.75.85 2.2.85 1.4 0 2.2-.85.8-.9.8-2.4t-.8-2.4q-.75-.85-2.2-.85-1.35 0-2.2.9-.8.9-.8 2.35m1.5 0q0-.95.4-1.5t1.1-.55q1.5 0 1.5 2.05 0 1-.4 1.55-.4.5-1.1.5-1.5 0-1.5-2.05m-2.55-5.8l-1.45.35v2.5q-.6-.3-1.3-.3-1.3 0-2.2.95-.85.95-.85 2.4 0 1.5.75 2.35.75.8 2.05.8.5 0 .9-.15.45-.15.65-.35v.4h1.45v-8.95m-1.45 4.15v3.3q-.1.15-.4.25-.35.15-.55.15-1.9 0-1.9-2 0-1 .5-1.5.45-.55 1.35-.55.5 0 1 .35m1.05-12.2q.35-.15.65-.15.7 0 1 .35.35.35.35 1.15v3.65h1.45v-3.85q0-1.2-.65-1.85-.65-.7-1.75-.7-1.2 0-1.8.7l-.25-.6h-1.05v6.3h1.45v-4.55q.2-.25.6-.45m26.45 22.7H69.9v1.25h.8v5.05h1.45v-6.3m1.95-1.25v1.25h-.7v1.2h.7v3.2q0 .95.5 1.5.5.5 1.45.5t1.45-.15V78.8q-.45.3-.95.3-.55 0-.75-.3-.2-.3-.2-.95V75.1h1.7v-1.2h-1.7v-1.8l-1.5.55m5.55-10.75H77.4v1.25h.8v5.05h1.45v-6.3m-8.8 9.85q-.25.25-.25.6t.25.6q.25.25.6.25t.6-.25q.25-.25.25-.6t-.25-.6q-.25-.25-.6-.25t-.6.25m-6.6 2.15H63.2v6.3h1.45v-4.55q.2-.25.6-.45.35-.15.65-.15.7 0 1 .35.35.35.35 1.15v3.65h1.45v-3.85q0-1.2-.65-1.85-.65-.7-1.75-.7-1.2 0-1.8.7l-.25-.6m-2.65-7q-.3-.3-.7-.3-.45 0-.75.2-.3.25-.3.6 0 .5.55.75.15.15.15.35 0 .45-1.1 1.25l.5.65q1.25-.85 1.6-1.45.35-.6.35-1.35 0-.4-.3-.7m7.2-4.4l-.3-.6h-1v6.3h1.45v-4.5q.15-.25.5-.45.3-.2.6-.2.5 0 .8.25.25.3.25.75v4.15h1.5v-4.55q.1-.25.4-.4.3-.2.65-.2 1.1 0 1.1 1.2v3.95h1.45v-4.15q0-1.05-.55-1.65-.6-.6-1.65-.6-.5 0-1 .2-.45.2-.75.5-.65-.7-1.9-.7-.95 0-1.55.7m-6.5-7.95q-.55.55-1.55.55-.8 0-1.25-.4-.5-.45-.55-1.2h4.5q.1-.55.1-.8 0-1.25-.8-2.1-.85-.8-2.2-.8-1.3 0-2.2.95-.9.9-.9 2.4t.8 2.35q.85.8 2.3.8 1.5 0 2.3-.6l-.55-1.15M59 52.4q.3-1.35 1.55-1.35 1.4 0 1.55 1.35H59m5.35-2.5v1.25h.8v5.05h1.45v-6.3h-2.25m14 9.85q-.25.25-.25.6t.25.6q.25.25.6.25t.6-.25q.25-.25.25-.6t-.25-.6q-.25-.25-.6-.25t-.6.25m-5.75-9.7q-.4-.25-1.15-.25-1.05 0-1.65.7v-.6h-1.45v6.3h1.45v-3.55q0-.7.4-1.15.4-.45.9-.45t.85.25l.65-1.25m5.7.6q-.75-.85-2.2-.85-1.35 0-2.2.9-.8.9-.8 2.35 0 1.5.8 2.4.75.85 2.2.85 1.4 0 2.2-.85.8-.9.8-2.4t-.8-2.4m-2.2.35q1.5 0 1.5 2.05 0 1-.4 1.55-.4.5-1.1.5-1.5 0-1.5-2.05 0-.95.4-1.5t1.1-.55M30.3 85.8q-1.05 0-1.8.35l.3 1.15q.55-.25 1.4-.25 1.4 0 1.4 1.1-.35-.1-.65-.1-1.5 0-2.3.6-.8.65-.8 1.7 0 .95.55 1.45.6.5 1.6.5.55 0 1.05-.2t.7-.55q.05.3.3.55.3.2.6.2t.5-.05q.2-.1.4-.4-.5-.3-.5-1.55v-1.35q0-1.85-.65-2.5-.7-.65-2.1-.65m-.05 5.35q-.95 0-.95-.85 0-1.15 1.75-1.15.15 0 .55.1v.6q0 1.3-1.35 1.3m9.45-4.8l-1-.9-.6.65q-.55-.3-1.4-.3-1.1 0-1.8.65-.75.65-.75 1.65 0 1.3 1.05 2-.3.15-.55.45-.25.3-.25.6 0 1.1 1.5 1.1.25 0 .7-.1.5-.05.75-.05.9 0 .9.55 0 .35-.4.55-.4.15-1.05.15-.95 0-1.7-.7l-.95 1.15q1.2.85 2.65.85 1.2 0 2.05-.55.85-.5.85-1.45 0-1.75-2.15-1.75-.3 0-.7.1-.45.1-.65.1-.4 0-.4-.25 0-.15.3-.25.25-.15.3-.15l.25.05q.25.05.4.05 1 0 1.65-.65.65-.65.65-1.75 0-.75-.35-1.3l.7-.5M35.95 89q-.3-.3-.3-.85 0-.5.3-.85.3-.3.8-.3t.8.35q.3.3.3.8 0 .55-.25.9-.3.3-.85.3-.5 0-.8-.35m-5.2-3.9l1.3-1.75H30.6l-1 1.75h1.15m9.3-11.2H38.6v4.35q-.15.35-.6.6-.4.25-.9.25-1.1 0-1.1-1.2v-4h-1.45V78q0 2.3 2.2 2.3.45 0 1-.15.5-.2.85-.45v.5h1.45v-6.3m-8.05.2q-.55-.3-1.4-.3-1.1 0-1.8.65-.75.65-.75 1.65 0 1.3 1.05 2-.3.15-.55.45-.25.3-.25.6 0 1.1 1.5 1.1.25 0 .7-.1.5-.05.75-.05.9 0 .9.55 0 .35-.4.55-.4.15-1.05.15-.95 0-1.7-.7l-.95 1.15q1.2.85 2.65.85 1.2 0 2.05-.55.85-.5.85-1.45 0-1.75-2.15-1.75-.3 0-.7.1-.45.1-.65.1-.4 0-.4-.25 0-.15.3-.25.25-.15.3-.15l.25.05q.25.05.4.05 1 0 1.65-.65.65-.65.65-1.75 0-.75-.35-1.3l.7-.5-1-.9-.6.65m-1.35.9q.5 0 .8.35.3.3.3.8 0 .55-.25.9-.3.3-.85.3-.5 0-.8-.35-.3-.3-.3-.85 0-.5.3-.85.3-.3.8-.3m5.5-11.95q1.4 0 1.4 1.1-.35-.1-.65-.1-1.5 0-2.3.6-.8.65-.8 1.7 0 .95.55 1.45.6.5 1.6.5.55 0 1.05-.2t.7-.55q.05.3.3.55.3.2.6.2t.5-.05q.2-.1.4-.4-.5-.3-.5-1.55v-1.35q0-1.85-.65-2.5-.7-.65-2.1-.65-1.05 0-1.8.35l.3 1.15q.55-.25 1.4-.25m.85 2.1q.15 0 .55.1v.6q0 1.3-1.35 1.3-.95 0-.95-.85 0-1.15 1.75-1.15M23.5 73.1h1.15l1.3-1.75H24.5l-1 1.75m.7.7q-1.05 0-1.8.35l.3 1.15q.55-.25 1.4-.25 1.4 0 1.4 1.1-.35-.1-.65-.1-1.5 0-2.3.6-.8.65-.8 1.7 0 .95.55 1.45.6.5 1.6.5.55 0 1.05-.2t.7-.55q.05.3.3.55.3.2.6.2t.5-.05q.2-.1.4-.4-.5-.3-.5-1.55v-1.35q0-1.85-.65-2.5-.7-.65-2.1-.65m1.3 3.45v.6q0 1.3-1.35 1.3-.95 0-.95-.85 0-1.15 1.75-1.15.15 0 .55.1m1.95-15.35H26v4.35q-.15.35-.6.6-.4.25-.9.25-1.1 0-1.1-1.2v-4h-1.45V66q0 2.3 2.2 2.3.45 0 1-.15.5-.2.85-.45v.5h1.45v-6.3m1.8.35q-.6.45-.6 1.3 0 1.2 1.6 1.85.75.35 1 .55.25.25.25.6 0 .6-.85.6-.8 0-1.45-.5l-.55 1.15q.6.3 1 .4.35.1 1 .1 1.1 0 1.75-.5.65-.5.65-1.35 0-.65-.4-1.15-.35-.45-1.15-.75-.85-.35-1.1-.55-.25-.2-.25-.4 0-.65.75-.65.9 0 1.35.45l.45-1.15q-.9-.45-1.85-.45-1 0-1.6.45m-7.8-10.6q.1-.25.4-.4.3-.2.65-.2 1.1 0 1.1 1.2v3.95h1.45v-4.15q0-1.05-.55-1.65-.6-.6-1.65-.6-.5 0-1 .2-.45.2-.75.5-.65-.7-1.9-.7-.95 0-1.55.7l-.3-.6h-1v6.3h1.45v-4.5q.15-.25.5-.45.3-.2.6-.2.5 0 .8.25.25.3.25.75v4.15h1.5v-4.55M39.3 49.8q-1.05 0-1.8.35l.3 1.15q.55-.25 1.4-.25 1.4 0 1.4 1.1-.35-.1-.65-.1-1.5 0-2.3.6-.8.65-.8 1.7 0 .95.55 1.45.6.5 1.6.5.55 0 1.05-.2t.7-.55q.05.3.3.55.3.2.6.2t.5-.05q.2-.1.4-.4-.5-.3-.5-1.55v-1.35q0-1.85-.65-2.5-.7-.65-2.1-.65m-1 4.5q0-1.15 1.75-1.15.15 0 .55.1v.6q0 1.3-1.35 1.3-.95 0-.95-.85m-6.7-7.05l-1.5.35v8.7h.85l.35-.45q.6.45 1.5.45 1.45 0 2.3-.9.85-.9.85-2.5 0-1.35-.85-2.2-.85-.9-2.25-.9-.7 0-1.25.35v-2.9m0 7.45v-3.3q.35-.35 1-.35 1.8 0 1.8 1.9 0 1.1-.45 1.6-.45.55-1.5.55-.55 0-.85-.4m-4-14q0-1.25-.8-2.1-.85-.8-2.2-.8-1.3 0-2.2.95-.9.9-.9 2.4t.8 2.35q.85.8 2.3.8 1.5 0 2.3-.6l-.55-1.15q-.55.55-1.55.55-.8 0-1.25-.4-.5-.45-.55-1.2h4.5q.1-.55.1-.8m-4.55-.3q.3-1.35 1.55-1.35 1.4 0 1.55 1.35h-3.1m7.05-1.9l-.3-.6h-1v6.3h1.45v-4.5q.15-.25.5-.45.3-.2.6-.2.5 0 .8.25.25.3.25.75v4.15h1.5v-4.55q.1-.25.4-.4.3-.2.65-.2 1.1 0 1.1 1.2v3.95h1.45v-4.15q0-1.05-.55-1.65-.6-.6-1.65-.6-.5 0-1 .2-.45.2-.75.5-.65-.7-1.9-.7-.95 0-1.55.7m-2.15-12.6H26.4l-1.6 3.85-1.5-3.85h-1.6l2.8 6.4h.55l2.9-6.4m5.6 4.4v-1.35q0-1.85-.65-2.5-.7-.65-2.1-.65-1.05 0-1.8.35l.3 1.15q.55-.25 1.4-.25 1.4 0 1.4 1.1-.35-.1-.65-.1-1.5 0-2.3.6-.8.65-.8 1.7 0 .95.55 1.45.6.5 1.6.5.55 0 1.05-.2t.7-.55q.05.3.3.55.3.2.6.2t.5-.05q.2-.1.4-.4-.5-.3-.5-1.55m-2-1.15q.15 0 .55.1v.6q0 1.3-1.35 1.3-.95 0-.95-.85 0-1.15 1.75-1.15m6.8-1.75l.45-1.15q-.9-.45-1.85-.45-1 0-1.6.45-.6.45-.6 1.3 0 1.2 1.6 1.85.75.35 1 .55.25.25.25.6 0 .6-.85.6-.8 0-1.45-.5l-.55 1.15q.6.3 1 .4.35.1 1 .1 1.1 0 1.75-.5.65-.5.65-1.35 0-.65-.4-1.15-.35-.45-1.15-.75-.85-.35-1.1-.55-.25-.2-.25-.4 0-.65.75-.65.9 0 1.35.45m-23.3 21.55V47.6H9.6v8.6H15v-1.35h-3.9v-2.6h2.85V51H11.1v-2.05h3.95M18.1 40q-.25-.2-.25-.4 0-.65.75-.65.9 0 1.35.45l.45-1.15q-.9-.45-1.85-.45-1 0-1.6.45-.6.45-.6 1.3 0 1.2 1.6 1.85.75.35 1 .55.25.25.25.6 0 .6-.85.6-.8 0-1.45-.5l-.55 1.15q.6.3 1 .4.35.1 1 .1 1.1 0 1.75-.5.65-.5.65-1.35 0-.65-.4-1.15-.35-.45-1.15-.75-.85-.35-1.1-.55m-1.95-24.45q0-1.8-1.1-2.9-1.1-1.1-3-1.1-.45 0-2.25.05v8.6h1.9q4.45 0 4.45-4.65m-1.6.1q0 1.5-.65 2.35-.65.85-1.8.85-.45 0-.8-.05v-5.85q.45-.05.7-.05 2.55 0 2.55 2.75m21.1 1.85h4.5q.1-.55.1-.8 0-1.25-.8-2.1-.85-.8-2.2-.8-1.3 0-2.2.95-.9.9-.9 2.4t.8 2.35q.85.8 2.3.8 1.5 0 2.3-.6L39 18.55q-.55.55-1.55.55-.8 0-1.25-.4-.5-.45-.55-1.2m.05-1.1q.3-1.35 1.55-1.35 1.4 0 1.55 1.35h-3.1m-11.8-1.25h.8v5.05h1.45v-6.3H23.9v1.25m-.8 1.55q0-1.25-.8-2.1-.85-.8-2.2-.8-1.3 0-2.2.95-.9.9-.9 2.4t.8 2.35q.85.8 2.3.8 1.5 0 2.3-.6l-.55-1.15q-.55.55-1.55.55-.8 0-1.25-.4-.5-.45-.55-1.2H23q.1-.55.1-.8m-4.55-.3q.3-1.35 1.55-1.35 1.4 0 1.55 1.35h-3.1m11.8-.55L29 13.9h-1.7l2.25 3.1-2.4 3.2h1.7l1.45-2.05 1.6 2.05h1.8L31.05 17l2.45-3.1h-1.7l-1.45 1.95m-4.3-4.1q-.25-.25-.6-.25t-.6.25q-.25.25-.25.6t.25.6q.25.25.6.25t.6-.25q.25-.25.25-.6t-.25-.6M78 38.4q-.8-.6-1.9-.6-1.6 0-2.5.9-.9.95-.9 2.4 0 1.5.8 2.35.85.85 2.3.85.65 0 1.15-.1.45-.1 1.1-.5l-.55-1.15q-.6.55-1.4.55-1.9 0-1.9-2 0-.95.5-1.5.45-.55 1.3-.55.85 0 1.4.45l.6-1.1m-12.7 9.35q-.25.25-.25.6t.25.6q.25.25.6.25t.6-.25q.25-.25.25-.6t-.25-.6q-.25-.25-.6-.25t-.6.25m3.6-9.95q-1.3 0-2.2.95-.9.9-.9 2.4t.8 2.35q.85.8 2.3.8 1.5 0 2.3-.6l-.55-1.15q-.55.55-1.55.55-.8 0-1.25-.4-.5-.45-.55-1.2h4.5q.1-.55.1-.8 0-1.25-.8-2.1-.85-.8-2.2-.8m0 1.25q1.4 0 1.55 1.35h-3.1q.3-1.35 1.55-1.35m-4.4-2.5q.25 0 .75.15l.4-1.1q-.75-.25-1.25-.25-1 0-1.65.7-.65.7-.65 1.85h-.95v1.25h.9v5.05h1.5v-5.05h1.25V37.9h-1.3v-.15q0-.5.3-.85t.7-.35m-2.95-9.25q.55-.25 1.4-.25 1.4 0 1.4 1.1-.35-.1-.65-.1-1.5 0-2.3.6-.8.65-.8 1.7 0 .95.55 1.45.6.5 1.6.5.55 0 1.05-.2t.7-.55q.05.3.3.55.3.2.6.2t.5-.05q.2-.1.4-.4-.5-.3-.5-1.55v-1.35q0-1.85-.65-2.5-.7-.65-2.1-.65-1.05 0-1.8.35l.3 1.15m2.25 1.85q.15 0 .55.1v.6q0 1.3-1.35 1.3-.95 0-.95-.85 0-1.15 1.75-1.15m10.3-3.25v1.25h.8v5.05h1.45v-6.3H74.1m-1.2 2.45q0-1.2-.65-1.85-.65-.7-1.75-.7-1.2 0-1.8.7l-.25-.6H67.4v6.3h1.45v-4.55q.2-.25.6-.45.35-.15.65-.15.7 0 1 .35.35.35.35 1.15v3.65h1.45v-3.85m-20.65 18.9l-1.5.35v8.6h1.5v-4.5q.15-.25.5-.45.4-.2.75-.2.6 0 .95.35t.35.95v3.85h1.45v-3.85q0-1.25-.65-1.9-.65-.65-1.8-.65-1 0-1.55.5v-3.05m4.6-5.75q.1-.55.1-.8 0-1.25-.8-2.1-.85-.8-2.2-.8-1.3 0-2.2.95-.9.9-.9 2.4t.8 2.35q.85.8 2.3.8 1.5 0 2.3-.6l-.55-1.15q-.55.55-1.55.55-.8 0-1.25-.4-.5-.45-.55-1.2h4.5m-4.45-1.1q.3-1.35 1.55-1.35 1.4 0 1.55 1.35h-3.1m-7.6.7q0-3.3-3-3.3-.8 0-1.35.55v-.45h-1.5v8.75h1.5v-2.6q.55.25 1.25.25 1.45 0 2.25-.8.85-.85.85-2.4m-3.4-2.05q1 0 1.45.45.4.45.4 1.55 0 1.05-.4 1.55-.45.5-1.5.5-.5 0-.9-.35v-3.3q.4-.4.95-.4m7.8-1.25q-1.05 0-1.65.7v-.6H46.1v6.3h1.45v-3.55q0-.7.4-1.15.4-.45.9-.45t.85.25l.65-1.25q-.4-.25-1.15-.25m-4.1-11.15q-.75-.85-2.2-.85-1.35 0-2.2.9-.8.9-.8 2.35 0 1.5.8 2.4.75.85 2.2.85 1.4 0 2.2-.85.8-.9.8-2.4t-.8-2.4m-.7 2.4q0 1-.4 1.55-.4.5-1.1.5-1.5 0-1.5-2.05 0-.95.4-1.5t1.1-.55q1.5 0 1.5 2.05m6.7 1.4q0-.65-.4-1.15-.35-.45-1.15-.75-.85-.35-1.1-.55-.25-.2-.25-.4 0-.65.75-.65.9 0 1.35.45l.45-1.15q-.9-.45-1.85-.45-1 0-1.6.45-.6.45-.6 1.3 0 1.2 1.6 1.85.75.35 1 .55.25.25.25.6 0 .6-.85.6-.8 0-1.45-.5l-.55 1.15q.6.3 1 .4.35.1 1 .1 1.1 0 1.75-.5.65-.5.65-1.35m7.95-3.05l.45-1.15q-.9-.45-1.85-.45-1 0-1.6.45-.6.45-.6 1.3 0 1.2 1.6 1.85.75.35 1 .55.25.25.25.6 0 .6-.85.6-.8 0-1.45-.5l-.55 1.15q.6.3 1 .4.35.1 1 .1 1.1 0 1.75-.5.65-.5.65-1.35 0-.65-.4-1.15-.35-.45-1.15-.75-.85-.35-1.1-.55-.25-.2-.25-.4 0-.65.75-.65.9 0 1.35.45M55.1 14.25q-.9-.45-1.85-.45-1 0-1.6.45-.6.45-.6 1.3 0 1.2 1.6 1.85.75.35 1 .55.25.25.25.6 0 .6-.85.6-.8 0-1.45-.5l-.55 1.15q.6.3 1 .4.35.1 1 .1 1.1 0 1.75-.5.65-.5.65-1.35 0-.65-.4-1.15-.35-.45-1.15-.75-.85-.35-1.1-.55-.25-.2-.25-.4 0-.65.75-.65.9 0 1.35.45l.45-1.15m-9.5 1.05q.55-.25 1.4-.25 1.4 0 1.4 1.1-.35-.1-.65-.1-1.5 0-2.3.6-.8.65-.8 1.7 0 .95.55 1.45.6.5 1.6.5.55 0 1.05-.2t.7-.55q.05.3.3.55.3.2.6.2t.5-.05q.2-.1.4-.4-.5-.3-.5-1.55v-1.35q0-1.85-.65-2.5-.7-.65-2.1-.65-1.05 0-1.8.35l.3 1.15m.5 3q0-1.15 1.75-1.15.15 0 .55.1v.6q0 1.3-1.35 1.3-.95 0-.95-.85m28.95 5.45q-.25.25-.25.6t.25.6q.25.25.6.25t.6-.25q.25-.25.25-.6t-.25-.6q-.25-.25-.6-.25t-.6.25m5-7.7q0-1.05-.55-1.65-.6-.6-1.65-.6-.5 0-1 .2-.45.2-.75.5-.65-.7-1.9-.7-.95 0-1.55.7l-.3-.6h-1v6.3h1.45v-4.5q.15-.25.5-.45.3-.2.6-.2.5 0 .8.25.25.3.25.75v4.15h1.5v-4.55q.1-.25.4-.4.3-.2.65-.2 1.1 0 1.1 1.2v3.95h1.45v-4.15M61.9 15.1h1.7v-1.2h-1.7v-1.8l-1.5.55v1.25h-.7v1.2h.7v3.2q0 .95.5 1.5.5.5 1.45.5t1.45-.15V18.8q-.45.3-.95.3-.55 0-.75-.3-.2-.3-.2-.95V15.1m5-.05q1.4 0 1.4 1.1-.35-.1-.65-.1-1.5 0-2.3.6-.8.65-.8 1.7 0 .95.55 1.45.6.5 1.6.5.55 0 1.05-.2t.7-.55q.05.3.3.55.3.2.6.2t.5-.05q.2-.1.4-.4-.5-.3-.5-1.55v-1.35q0-1.85-.65-2.5-.7-.65-2.1-.65-1.05 0-1.8.35l.3 1.15q.55-.25 1.4-.25m.85 2.1q.15 0 .55.1v.6q0 1.3-1.35 1.3-.95 0-.95-.85 0-1.15 1.75-1.15m30.8 71.9q0-1.5-.8-2.4-.75-.85-2.2-.85-1.35 0-2.2.9-.8.9-.8 2.35 0 1.5.8 2.4.75.85 2.2.85 1.4 0 2.2-.85.8-.9.8-2.4m-1.5 0q0 1-.4 1.55-.4.5-1.1.5-1.5 0-1.5-2.05 0-.95.4-1.5t1.1-.55q1.5 0 1.5 2.05m2.9 2.4q0 .4.35.75.3.3.7.3.45 0 .75-.3.35-.35.35-.75 0-.45-.35-.75-.3-.3-.75-.3-.4 0-.7.3-.35.3-.35.75M89.6 85.8q-1 0-1.6.45-.6.45-.6 1.3 0 1.2 1.6 1.85.75.35 1 .55.25.25.25.6 0 .6-.85.6-.8 0-1.45-.5l-.55 1.15q.6.3 1 .4.35.1 1 .1 1.1 0 1.75-.5.65-.5.65-1.35 0-.65-.4-1.15-.35-.45-1.15-.75-.85-.35-1.1-.55-.25-.2-.25-.4 0-.65.75-.65.9 0 1.35.45l.45-1.15q-.9-.45-1.85-.45m-6.15 0q-1.05 0-1.8.35l.3 1.15q.55-.25 1.4-.25 1.4 0 1.4 1.1-.35-.1-.65-.1-1.5 0-2.3.6-.8.65-.8 1.7 0 .95.55 1.45.6.5 1.6.5.55 0 1.05-.2t.7-.55q.05.3.3.55.3.2.6.2t.5-.05q.2-.1.4-.4-.5-.3-.5-1.55v-1.35q0-1.85-.65-2.5-.7-.65-2.1-.65m.75 3.35q.15 0 .55.1v.6q0 1.3-1.35 1.3-.95 0-.95-.85 0-1.15 1.75-1.15m-.75-12.2q0-1.85-.65-2.5-.7-.65-2.1-.65-1.05 0-1.8.35l.3 1.15q.55-.25 1.4-.25 1.4 0 1.4 1.1-.35-.1-.65-.1-1.5 0-2.3.6-.8.65-.8 1.7 0 .95.55 1.45.6.5 1.6.5.55 0 1.05-.2t.7-.55q.05.3.3.55.3.2.6.2t.5-.05q.2-.1.4-.4-.5-.3-.5-1.55v-1.35m-2 .2q.15 0 .55.1v.6q0 1.3-1.35 1.3-.95 0-.95-.85 0-1.15 1.75-1.15m10.6-3.25H89.8v1.25h.8v5.05h1.45v-6.3m3.8-.1q-1.05 0-1.8.35l.3 1.15q.55-.25 1.4-.25 1.4 0 1.4 1.1-.35-.1-.65-.1-1.5 0-2.3.6-.8.65-.8 1.7 0 .95.55 1.45.6.5 1.6.5.55 0 1.05-.2t.7-.55q.05.3.3.55.3.2.6.2t.5-.05q.2-.1.4-.4-.5-.3-.5-1.55v-1.35q0-1.85-.65-2.5-.7-.65-2.1-.65m.75 3.35q.15 0 .55.1v.6q0 1.3-1.35 1.3-.95 0-.95-.85 0-1.15 1.75-1.15M91.3 61.9V66q0 2.3 2.2 2.3.45 0 1-.15.5-.2.85-.45v.5h1.45v-6.3h-1.45v4.35q-.15.35-.6.6-.4.25-.9.25-1.1 0-1.1-1.2v-4H91.3m-2 12.15q-.4-.25-1.15-.25-1.05 0-1.65.7v-.6h-1.45v6.3h1.45v-3.55q0-.7.4-1.15.4-.45.9-.45t.85.25l.65-1.25m1.45-2.3q-.25.25-.25.6t.25.6q.25.25.6.25t.6-.25q.25-.25.25-.6t-.25-.6q-.25-.25-.6-.25t-.6.25m-9.6 1.35l1.3-1.75H81l-1 1.75h1.15m3.45-9.7l.45-1.15q-.9-.45-1.85-.45-1 0-1.6.45-.6.45-.6 1.3 0 1.2 1.6 1.85.75.35 1 .55.25.25.25.6 0 .6-.85.6-.8 0-1.45-.5L81 67.8q.6.3 1 .4.35.1 1 .1 1.1 0 1.75-.5.65-.5.65-1.35 0-.65-.4-1.15-.35-.45-1.15-.75-.85-.35-1.1-.55-.25-.2-.25-.4 0-.65.75-.65.9 0 1.35.45m3.65-3.3l-1.5.55v1.25h-.7v1.2h.7v3.2q0 .95.5 1.5.5.5 1.45.5t1.45-.15V66.8q-.45.3-.95.3-.55 0-.75-.3-.2-.3-.2-.95V63.1h1.7v-1.2h-1.7v-1.8m-5.5-7.55q-.85-.35-1.1-.55-.25-.2-.25-.4 0-.65.75-.65.9 0 1.35.45l.45-1.15q-.9-.45-1.85-.45-1 0-1.6.45-.6.45-.6 1.3 0 1.2 1.6 1.85.75.35 1 .55.25.25.25.6 0 .6-.85.6-.8 0-1.45-.5l-.55 1.15q.6.3 1 .4.35.1 1 .1 1.1 0 1.75-.5.65-.5.65-1.35 0-.65-.4-1.15-.35-.45-1.15-.75M93.9 55.5q.85-.85.85-2.4 0-3.3-3-3.3-.8 0-1.35.55v-.45h-1.5v8.75h1.5v-2.6q.55.25 1.25.25 1.45 0 2.25-.8m-2.55-4.45q1 0 1.45.45.4.45.4 1.55 0 1.05-.4 1.55-.45.5-1.5.5-.5 0-.9-.35v-3.3q.4-.4.95-.4m9.5-.4q-.75-.85-2.2-.85-1.35 0-2.2.9-.8.9-.8 2.35 0 1.5.8 2.4.75.85 2.2.85 1.4 0 2.2-.85.8-.9.8-2.4t-.8-2.4m-2.2 4.45q-1.5 0-1.5-2.05 0-.95.4-1.5t1.1-.55q1.5 0 1.5 2.05 0 1-.4 1.55-.4.5-1.1.5m7.2 18.7q-1.05 0-1.8.35l.3 1.15q.55-.25 1.4-.25 1.4 0 1.4 1.1-.35-.1-.65-.1-1.5 0-2.3.6-.8.65-.8 1.7 0 .95.55 1.45.6.5 1.6.5.55 0 1.05-.2t.7-.55q.05.3.3.55.3.2.6.2t.5-.05q.2-.1.4-.4-.5-.3-.5-1.55v-1.35q0-1.85-.65-2.5-.7-.65-2.1-.65m.75 3.35q.15 0 .55.1v.6q0 1.3-1.35 1.3-.95 0-.95-.85 0-1.15 1.75-1.15m-.65-5.8h-1.55l1.35 1.75h1.2l-1-1.75M102 63.3l.65-1.25q-.4-.25-1.15-.25-1.05 0-1.65.7v-.6H98.4v6.3h1.45v-3.55q0-.7.4-1.15.4-.45.9-.45t.85.25m6.55 4.4l-.55-1.15q-.55.55-1.55.55-.8 0-1.25-.4-.5-.45-.55-1.2h4.5q.1-.55.1-.8 0-1.25-.8-2.1-.85-.8-2.2-.8-1.3 0-2.2.95-.9.9-.9 2.4t.8 2.35q.85.8 2.3.8 1.5 0 2.3-.6m-3.85-3.3q.3-1.35 1.55-1.35 1.4 0 1.55 1.35h-3.1m2.2-14.5v4.35q-.15.35-.6.6-.4.25-.9.25-1.1 0-1.1-1.2v-4h-1.45V54q0 2.3 2.2 2.3.45 0 1-.15.5-.2.85-.45v.5h1.45v-6.3h-1.45m7.95.5q-.8-.6-1.9-.6-1.6 0-2.5.9-.9.95-.9 2.4 0 1.5.8 2.35.85.85 2.3.85.65 0 1.15-.1.45-.1 1.1-.5l-.55-1.15q-.6.55-1.4.55-1.9 0-1.9-2 0-.95.5-1.5.45-.55 1.3-.55.85 0 1.4.45l.6-1.1m3.85-.6q-1.35 0-2.2.9-.8.9-.8 2.35 0 1.5.8 2.4.75.85 2.2.85 1.4 0 2.2-.85.8-.9.8-2.4t-.8-2.4q-.75-.85-2.2-.85m-1.5 3.25q0-.95.4-1.5t1.1-.55q1.5 0 1.5 2.05 0 1-.4 1.55-.4.5-1.1.5-1.5 0-1.5-2.05m-5.4-10.35q-.35.3-.35.75 0 .4.35.75.3.3.7.3.45 0 .75-.3.35-.35.35-.75 0-.45-.35-.75-.3-.3-.75-.3-.4 0-.7.3m-2.5-3.3l.45-1.15q-.9-.45-1.85-.45-1 0-1.6.45-.6.45-.6 1.3 0 1.2 1.6 1.85.75.35 1 .55.25.25.25.6 0 .6-.85.6-.8 0-1.45-.5l-.55 1.15q.6.3 1 .4.35.1 1 .1 1.1 0 1.75-.5.65-.5.65-1.35 0-.65-.4-1.15-.35-.45-1.15-.75-.85-.35-1.1-.55-.25-.2-.25-.4 0-.65.75-.65.9 0 1.35.45m-.5-8.95q0-.65-.4-1.15-.35-.45-1.15-.75-.85-.35-1.1-.55-.25-.2-.25-.4 0-.65.75-.65.9 0 1.35.45l.45-1.15q-.9-.45-1.85-.45-1 0-1.6.45-.6.45-.6 1.3 0 1.2 1.6 1.85.75.35 1 .55.25.25.25.6 0 .6-.85.6-.8 0-1.45-.5l-.55 1.15q.6.3 1 .4.35.1 1 .1 1.1 0 1.75-.5.65-.5.65-1.35m-8.7 10.2q-.8.65-.8 1.7 0 .95.55 1.45.6.5 1.6.5.55 0 1.05-.2t.7-.55q.05.3.3.55.3.2.6.2t.5-.05q.2-.1.4-.4-.5-.3-.5-1.55v-1.35q0-1.85-.65-2.5-.7-.65-2.1-.65-1.05 0-1.8.35l.3 1.15q.55-.25 1.4-.25 1.4 0 1.4 1.1-.35-.1-.65-.1-1.5 0-2.3.6m2.95.6v.6q0 1.3-1.35 1.3-.95 0-.95-.85 0-1.15 1.75-1.15.15 0 .55.1m-18.3-.9q0-1.25-.65-1.9-.65-.65-1.8-.65-1 0-1.55.5v-3.05l-1.5.35v8.6h1.5v-4.5q.15-.25.5-.45.4-.2.75-.2.6 0 .95.35t.35.95v3.85h1.45v-3.85m4.95-.2q-.35-.1-.65-.1-1.5 0-2.3.6-.8.65-.8 1.7 0 .95.55 1.45.6.5 1.6.5.55 0 1.05-.2t.7-.55q.05.3.3.55.3.2.6.2t.5-.05q.2-.1.4-.4-.5-.3-.5-1.55v-1.35q0-1.85-.65-2.5-.7-.65-2.1-.65-1.05 0-1.8.35l.3 1.15q.55-.25 1.4-.25 1.4 0 1.4 1.1m-1.35 3q-.95 0-.95-.85 0-1.15 1.75-1.15.15 0 .55.1v.6q0 1.3-1.35 1.3M81.5 27.1v-1.2h-1.7v-1.8l-1.5.55v1.25h-.7v1.2h.7v3.2q0 .95.5 1.5.5.5 1.45.5t1.45-.15V30.8q-.45.3-.95.3-.55 0-.75-.3-.2-.3-.2-.95V27.1h1.7m6.15 1.85q0-1.85-.65-2.5-.7-.65-2.1-.65-1.05 0-1.8.35l.3 1.15q.55-.25 1.4-.25 1.4 0 1.4 1.1-.35-.1-.65-.1-1.5 0-2.3.6-.8.65-.8 1.7 0 .95.55 1.45.6.5 1.6.5.55 0 1.05-.2t.7-.55q.05.3.3.55.3.2.6.2t.5-.05q.2-.1.4-.4-.5-.3-.5-1.55v-1.35m-1.45.3v.6q0 1.3-1.35 1.3-.95 0-.95-.85 0-1.15 1.75-1.15.15 0 .55.1m12.05 6l-1.45.35v2.5q-.6-.3-1.3-.3-1.3 0-2.2.95-.85.95-.85 2.4 0 1.5.75 2.35.75.8 2.05.8.5 0 .9-.15.45-.15.65-.35v.4h1.45v-8.95M96.8 39.4v3.3q-.1.15-.4.25-.35.15-.55.15-1.9 0-1.9-2 0-1 .5-1.5.45-.55 1.35-.55.5 0 1 .35M92 27.05q.5 0 .85.25l.65-1.25q-.4-.25-1.15-.25-1.05 0-1.65.7v-.6h-1.45v6.3h1.45v-3.55q0-.7.4-1.15.4-.45.9-.45m2 .1h.8v5.05h1.45v-6.3H94v1.25m6.6-1.35q-1.35 0-2.2.9-.8.9-.8 2.35 0 1.5.8 2.4.75.85 2.2.85 1.4 0 2.2-.85.8-.9.8-2.4t-.8-2.4q-.75-.85-2.2-.85m-1.1 1.75q.4-.55 1.1-.55 1.5 0 1.5 2.05 0 1-.4 1.55-.4.5-1.1.5-1.5 0-1.5-2.05 0-.95.4-1.5m-3.35-3.8q-.25-.25-.6-.25t-.6.25q-.25.25-.25.6t.25.6q.25.25.6.25t.6-.25q.25-.25.25-.6t-.25-.6m2.55-9.5q-.9-.45-1.85-.45-1 0-1.6.45-.6.45-.6 1.3 0 1.2 1.6 1.85.75.35 1 .55.25.25.25.6 0 .6-.85.6-.8 0-1.45-.5l-.55 1.15q.6.3 1 .4.35.1 1 .1 1.1 0 1.75-.5.65-.5.65-1.35 0-.65-.4-1.15-.35-.45-1.15-.75-.85-.35-1.1-.55-.25-.2-.25-.4 0-.65.75-.65.9 0 1.35.45l.45-1.15m-12.05 9.1H85.2l-1 1.75h1.15l1.3-1.75m-2.3-9.55q-.8 0-1.35.55v-.45h-1.5v8.75H83v-2.6q.55.25 1.25.25 1.45 0 2.25-.8.85-.85.85-2.4 0-3.3-3-3.3m1.05 1.7q.4.45.4 1.55 0 1.05-.4 1.55-.45.5-1.5.5-.5 0-.9-.35v-3.3q.4-.4.95-.4 1 0 1.45.45m3.65 1.15q-.8.65-.8 1.7 0 .95.55 1.45.6.5 1.6.5.55 0 1.05-.2t.7-.55q.05.3.3.55.3.2.6.2t.5-.05q.2-.1.4-.4-.5-.3-.5-1.55v-1.35q0-1.85-.65-2.5-.7-.65-2.1-.65-1.05 0-1.8.35l.3 1.15q.55-.25 1.4-.25 1.4 0 1.4 1.1-.35-.1-.65-.1-1.5 0-2.3.6m1.6 2.5q-.95 0-.95-.85 0-1.15 1.75-1.15.15 0 .55.1v.6q0 1.3-1.35 1.3m30.55-4.9q-.9-.45-1.85-.45-1 0-1.6.45-.6.45-.6 1.3 0 1.2 1.6 1.85.75.35 1 .55.25.25.25.6 0 .6-.85.6-.8 0-1.45-.5l-.55 1.15q.6.3 1 .4.35.1 1 .1 1.1 0 1.75-.5.65-.5.65-1.35 0-.65-.4-1.15-.35-.45-1.15-.75-.85-.35-1.1-.55-.25-.2-.25-.4 0-.65.75-.65.9 0 1.35.45l.45-1.15m-10.05.45q-.8.9-.8 2.35 0 1.5.8 2.4.75.85 2.2.85 1.4 0 2.2-.85.8-.9.8-2.4t-.8-2.4q-.75-.85-2.2-.85-1.35 0-2.2.9m1.1.85q.4-.55 1.1-.55 1.5 0 1.5 2.05 0 1-.4 1.55-.4.5-1.1.5-1.5 0-1.5-2.05 0-.95.4-1.5m-2.95-4.3l-1.45.35v2.5q-.6-.3-1.3-.3-1.3 0-2.2.95-.85.95-.85 2.4 0 1.5.75 2.35.75.8 2.05.8.5 0 .9-.15.45-.15.65-.35v.4h1.45v-8.95m-2.45 3.8q.5 0 1 .35v3.3q-.1.15-.4.25-.35.15-.55.15-1.9 0-1.9-2 0-1 .5-1.5.45-.55 1.35-.55z"/></g><path id="b" stroke="#8CA8B8" stroke-linejoin="round" stroke-linecap="round" fill="none" d="M118.8.4q4.1 0 7 2.95 2.95 2.9 2.95 7v81.6q-.1 3.95-2.95 6.75-2.9 2.95-7 2.95H10.15q-4.1 0-7-2.95-2.8-2.8-2.9-6.75v-81.6q0-4.1 2.9-7Q6.05.4 10.15.4h108.6"/></defs><g><use xlink:href="#a"/><use xlink:href="#b"/></g></svg>