
<svg xmlns="http://www.w3.org/2000/svg" version="1.1" xmlns:xlink="http://www.w3.org/1999/xlink" preserveAspectRatio="none" x="0px" y="0px" width="133px" height="106px" viewBox="0 0 133 106">
<defs>
<filter id="Filter_1" x="-20%" y="-20%" width="140%" height="140%" color-interpolation-filters="sRGB">
<feFlood flood-color="#000000" flood-opacity="1" in="SourceGraphic" result="result1"/>

<feComposite in2="SourceGraphic" in="result1" operator="in" result="result2"/>

<feGaussianBlur in="result2" stdDeviation="2.3333333333333335,2.3333333333333335" result="result3"/>

<feOffset dx="0" dy="0" in="result3" result="result4"/>

<feComposite in2="result4" in="SourceGraphic" operator="over" result="result5"/>
</filter>

<filter id="Filter_2" x="-20%" y="-20%" width="140%" height="140%" color-interpolation-filters="sRGB">
<feColorMatrix in="SourceGraphic" type="matrix" values="0.49 0 0 0 0.20392156862745098 0 0.49 0 0 0.10196078431372549 0 0 0.49 0 0 0 0 0 1 0" result="result1"/>
</filter>

<filter id="Filter_3" x="-20%" y="-20%" width="140%" height="140%" color-interpolation-filters="sRGB">
<feColorMatrix in="SourceGraphic" type="matrix" values="0.73 0 0 0 0.10980392156862745 0 0.73 0 0 0.054901960784313725 0 0 0.73 0 0 0 0 0 1 0" result="result1"/>
</filter>

<filter id="Filter_4" x="-20%" y="-20%" width="140%" height="140%" color-interpolation-filters="sRGB">
<feColorMatrix in="SourceGraphic" type="matrix" values="0 0 0 0 0 0 0 0 0 0 0 0 0 0 0 0 0 0 1 0" result="result1"/>
</filter>

<g id="Layer0_0_MEMBER_0_FILL">
<path fill="#FF6666" stroke="none" d="
M 223.65 635.35
Q 219.55 635.35 216.65 638.3 213.75 641.2 213.75 645.3
L 213.75 726.9
Q 213.85 730.85 216.65 733.65 219.55 736.6 223.65 736.6
L 332.3 736.6
Q 336.4 736.6 339.3 733.65 342.15 730.85 342.25 726.9
L 342.25 645.3
Q 342.25 641.2 339.3 638.3 336.4 635.35 332.3 635.35
L 332.25 635.35 223.65 635.35 Z"/>
</g>

<g id="Mask_S_mbolo_8_0_1_MASK_0_FILL">
<path fill="#FFFFFF" stroke="none" d="
M 966.45 100.5
Q 947.95 82 921.8 82
L 458.15 82
Q 432 82 413.5 100.5 395 119 395 145.15
L 395 538.8
Q 395 564.95 413.5 583.45 432 601.95 458.15 601.95
L 921.8 601.95
Q 947.95 601.95 966.45 583.45 984.95 564.95 984.95 538.8
L 984.95 145.15
Q 984.95 119 966.45 100.5 Z"/>
</g>

<g id="S_mbolo_8_0_Layer1_0_FILL">
<path fill="#FFFFFF" stroke="none" d="
M 966.45 100.5
Q 947.95 82 921.8 82
L 458.15 82
Q 432 82 413.5 100.5 395 119 395 145.15
L 395 538.8
Q 395 564.95 413.5 583.45 432 601.95 458.15 601.95
L 921.8 601.95
Q 947.95 601.95 966.45 583.45 984.95 564.95 984.95 538.8
L 984.95 145.15
Q 984.95 119 966.45 100.5 Z"/>
</g>

<g id="S_mbolo_8_0_Layer1_1_FILL">
<path fill="#999999" stroke="none" d="
M 33.1 76.95
Q 32.85 75.9 32.85 75.5 32.85 74.85 33.05 74.55
L 27.5 74.55
Q 27.35 74.75 27 74.9 26.6 75.05 26.45 75.25 25.6 76.4 24.45 77.6 23.95 78.15 23.55 78.95 23.15 79.75 22.85 80.1 22.95 80.25 23.05 80.35 23.15 80.4 23.2 80.5
L 33.45 80.5
Q 33.4 80.4 33.4 80.35 33.4 80.15 33.4 79.9 33.4 78.8 33.4 78.4 33.4 78.05 33.1 76.95
M 0 74.55
L 0 80.5 9 80.5 8.95 80.35 7.85 78.35 8.2 74.55 0 74.55
M 17.05 77.8
Q 16.45 75.2 15.75 75.2 15.5 75.2 14.7 76.1 13.95 77 13.9 77.2 13.8 77.45 13.85 78.45 13.85 79.25 13.6 79.75
L 13.6 80.35 13.6 80.5 14 80.5 17.55 80.5
Q 17.5 80.4 17.5 80.35 17.3 78.95 17.05 77.8
M 142.75 80.5
L 154.15 80.5 154.15 74.55 43.55 74.55
Q 42.55 77.75 43.8 80.35 43.85 80.4 43.85 80.5
L 60 80.45
Q 60.3 80.45 60.6 80.45
L 61 80.45 62.4 80.45 141.6 80.3
Q 141.75 80.3 141.9 80.35 142.25 80.4 142.65 80.45 142.7 80.5 142.75 80.5 Z"/>

<path fill="#489191" stroke="none" d="
M 32.85 75.5
Q 32.85 75.9 33.1 76.95 33.4 78.05 33.4 78.4 33.4 78.8 33.4 79.9 33.4 80.15 33.4 80.35
L 43.8 80.35
Q 42.55 77.75 43.55 74.55
L 33.05 74.55
Q 32.85 74.85 32.85 75.5
M 15.75 75.2
Q 16.45 75.2 17.05 77.8 17.3 78.95 17.5 80.35
L 22.75 80.35 22.75 80.25
Q 22.8 80.15 22.85 80.1 23.15 79.75 23.55 78.95 23.95 78.15 24.45 77.6 25.6 76.4 26.45 75.25 26.6 75.05 27 74.9 27.35 74.75 27.5 74.55
L 8.2 74.55 7.85 78.35 8.95 80.35 13.6 80.35 13.6 79.75
Q 13.85 79.25 13.85 78.45 13.8 77.45 13.9 77.2 13.95 77 14.7 76.1 15.5 75.2 15.75 75.2 Z"/>

<path fill="#CCCCCC" stroke="none" d="
M 8.6 71.05
Q 6.45 70.6 4.9 70.2 4.55 70.1 4.2 70 0.05 68.75 0 67.25
L 0 74.55 8.2 74.55 8.6 71.05
M 30.05 73
Q 29.85 73.05 29.65 73.1 28.55 73.4 28.5 73.45 28.05 73.5 27.9 73.8 27.8 74 27.6 74.45 27.55 74.5 27.5 74.55
L 33.05 74.55
Q 33.1 74.45 33.2 74.4 33.55 74.1 33.55 73.75 33.55 73.55 33 73.2 32.95 73.15 32.85 73.1 32.2 72.7 31.85 72.7 31.1 72.7 30.05 73
M 117.05 53.05
Q 117.05 56.85 100.4 59.55 83.8 62.2 60.3 62.2 59.65 62.2 59.05 62.2 61.7 62.5 64.15 62.9 75.15 64.65 75.15 67.2 75.15 68.75 70.95 70 68.35 70.8 64.15 71.45 55.5 72.85 44.1 73.15 43.75 73.9 43.55 74.55
L 154.15 74.55 154.15 40.15 0 40.15 0 67.15
Q 0.1 64.65 11.05 62.9 20.6 61.35 33.6 61.15 26.4 60.55 20.15 59.55 3.5 56.85 3.5 53.05 3.5 49.25 20.15 46.6 36.75 43.9 60.3 43.9 83.8 43.9 100.4 46.6 117.05 49.25 117.05 53.05 Z"/>

<path fill="#97CCCC" stroke="none" d="
M 154.15 88.35
L 154.15 80.5 142.75 80.5
Q 142.7 80.5 142.65 80.45 142.25 80.4 141.9 80.35 141.75 80.3 141.6 80.3
L 62.4 80.45
Q 62.35 80.5 62.3 80.5
L 61 80.45 60.6 80.45
Q 60.3 80.45 60 80.45
L 43.85 80.5
Q 43.85 80.4 43.8 80.35
L 33.4 80.35
Q 33.4 80.4 33.45 80.5 33.5 80.95 33.6 81.1 33.85 81.4 36.5 82.35 39.25 83.35 39.6 83.65
L 39.6 84.2 38.55 84.2
Q 37.55 83.95 36.4 83.75 34.85 83.5 34.2 83.5 33.4 83.55 32.2 83.1 30.9 82.5 30.35 82.3 29.65 82.05 27.85 81.65 26.05 81.25 25.8 81.15 25.1 80.9 24.85 80.8 24.4 80.65 23.8 80.7 23.45 80.7 23.2 80.5
L 22.75 80.5 22.75 80.35 17.5 80.35
Q 17.5 80.4 17.55 80.5 17.55 80.6 17.6 80.75 17.65 80.85 17.7 80.9 18 81.25 18.3 81.4 19 81.9 20.4 82.1 20.7 82.15 22.1 82.25 23.35 82.4 23.5 82.5 23.8 82.7 24.9 83.1 25.6 83.3 25.75 83.85
L 25.25 83.85
Q 24.4 83.55 22.15 83.3 21.65 83.25 20.65 82.85 19.65 82.45 19.05 82.4 15.45 82 14 80.5
L 13.6 80.5 13.6 80.35 8.95 80.35 9 80.5
Q 9.8 81.55 13.95 84.1 15.9 85.25 21.5 88.35
L 154.15 88.35
M 100.4 59.55
Q 117.05 56.85 117.05 53.05 117.05 49.25 100.4 46.6 83.8 43.9 60.3 43.9 36.75 43.9 20.15 46.6 3.5 49.25 3.5 53.05 3.5 56.85 20.15 59.55 26.4 60.55 33.6 61.15 20.6 61.35 11.05 62.9 0.1 64.65 0 67.15
L 0 67.25
Q 0.05 68.75 4.2 70 4.55 70.1 4.9 70.2 6.45 70.6 8.6 71.05
L 8.2 74.55 27.5 74.55
Q 27.55 74.5 27.6 74.45 27.8 74 27.9 73.8 28.05 73.5 28.5 73.45 28.55 73.4 29.65 73.1 29.85 73.05 30.05 73 31.1 72.7 31.85 72.7 32.2 72.7 32.85 73.1 32.95 73.15 33 73.2 33.55 73.55 33.55 73.75 33.55 74.1 33.2 74.4 33.1 74.45 33.05 74.55
L 43.55 74.55
Q 43.75 73.9 44.1 73.15 55.5 72.85 64.15 71.45 68.35 70.8 70.95 70 75.15 68.75 75.15 67.2 75.15 64.65 64.15 62.9 61.7 62.5 59.05 62.2 59.65 62.2 60.3 62.2 83.8 62.2 100.4 59.55 Z"/>
</g>

<g id="S_mbolo_8_0_Layer1_1_MEMBER_0_MEMBER_0_FILL">
<path fill="#88A901" stroke="none" d="
M 101.3 47.65
L 101.55 47.6
Q 101.55 47.3 101.5 46.75 101.4 46.4 101.3 45.7 101.25 46.3 101.25 47.05 101.25 47.35 101.25 47.6 101.3 47.6 101.3 47.65
M 98.7 43.25
L 98.8 43.3
Q 98.85 43.35 98.9 43.65 98.95 43.9 98.95 43.95 99.55 43.9 100.35 44.55 100.7 44.8 100.95 45.15 101.2 45.45 101.3 45.65 101.5 45.85 101.65 46.25 101.75 46.4 102 47 102.25 47.95 102.75 48.05 102.95 48.1 104.3 48.35 104.4 48.4 104.6 48.4 104.85 48.5 105.1 48.6 105.05 48.55 105 48.45 104.9 48.05 104.45 47.75 104.05 47.35 103.95 46.9 103.95 46.8 104.15 46.4 104.3 46 104.3 45.95 104.2 45.4 103.55 45.1 103 44.8 102.1 44.8 102 44.7 101.9 44.4 101.8 44.25 101.75 44.15 101.7 44.15 101.35 44.35 101.05 44.55 100.95 44.55 100.85 44.05 100.3 43.45 99.7 42.9 99.35 42.9 99.1 42.95 98.7 43.25 Z"/>

<path fill="#A9D103" stroke="none" d="
M 101.3 45.65
L 101.3 45.7
Q 101.4 46.4 101.5 46.75 101.55 47.3 101.55 47.6
L 101.3 47.65
Q 101.3 47.6 101.25 47.6 101.25 47.75 101.25 47.9 102 48.25 103.15 48.55 104.3 48.85 104.4 48.9 104.7 48.95 104.95 49.05 105.05 48.85 105.15 48.7 105.1 48.7 105.1 48.6 104.85 48.5 104.6 48.4 104.4 48.4 104.3 48.35 102.95 48.1 102.75 48.05 102.25 47.95 102 47 101.75 46.4 101.65 46.25 101.5 45.85 101.3 45.65 Z"/>

<path fill="#C5F402" stroke="none" d="
M 97.4 46.05
Q 97.05 46.1 96.8 46.1 97.6 46.25 98.3 46.45 99.7 46.95 100.65 47.6 100.95 47.75 101.25 47.9 101.25 47.75 101.25 47.6 101.1 47.45 100.8 47.2 100.3 46.9 100.15 46.8 99.9 46.55 99.5 46.6 99.05 46.6 98.8 46.35 98.5 46.1 98.1 46.05 97.85 46 97.4 46.05
M 97.05 49.3
Q 96.4 48.95 95.55 49.15 94.45 49.35 93.95 49.5 95 49.3 96.15 49.4 96.6 49.4 97.45 49.5 97.25 49.4 97.05 49.3 Z"/>

<path fill="#999900" stroke="none" d="
M 98.8 43.3
L 98.7 43.25
Q 98.55 43.35 98.4 43.45 97.75 43.9 97.7 43.95 96.5 43.65 96.45 43.65 96.1 43.7 95.9 43.9 95.8 44.05 95.7 44.3 95.55 44.7 95.5 44.85 95.35 45.15 95 45.4 94.95 45.35 94.8 45.2 94.6 45.05 94.35 45 94.4 45.3 94.25 45.55 94.15 45.8 94.2 45.95 94.2 46.2 95.15 46.8 95.25 46.9 95.35 46.95 95.45 47 95.55 47.1
L 95.5 47.1
Q 95.45 47.1 95.3 47 95.25 47.1 95 47.3 94.75 47.55 94.6 47.6 94.55 47.6 94.45 47.5 94.3 47.35 94.05 47.4 93.7 47.5 93.35 47.7 93.05 47.9 92.85 48.25 92.65 48.6 92.3 48.7 91.95 48.8 91.85 48.95 91.65 49.25 91.4 49.85 91.15 50.45 91.05 50.75 91.55 51 91.95 51.15 92 51.15 92.05 51.2 92.15 51.25 92.25 51.25 92.75 51.3 93.45 51.2 93.7 51.1 94.6 52 95.45 52.85 95.75 52.75 95.85 52.75 95.9 52.7 95.9 52.6 95.95 52.45 96.1 51.95 96.75 51.95 96.9 51.25 97.05 51 97.25 50.7 97.7 50.5
L 97.75 50.5
Q 97.85 50.45 98 50.45 98.2 50.9 98.95 50.8 99.05 50.75 99.3 50.65 99.55 50.5 99.65 50.5 99.75 50.45 100.25 50.7 100.4 50.75 100.55 50.8 100.8 50.85 101 50.85 101.1 50.85 101.25 50.7 101.45 50.6 101.55 50.55 101.65 50.55 101.8 50.55 102 50.55 102.2 50.7 102.3 50.7 102.4 50.75 102.4 50.8 102.5 50.95 102.55 51.05 102.65 51.2
L 103.6 51
Q 103.55 51 103.55 50.95 103.55 50.85 103.65 50.2 103.8 49.85 103.8 49.65 103.85 49.6 103.85 49.55
L 103.9 49.5 103.95 49.5
Q 104.25 49.45 104.5 49.55 104.7 49.7 104.85 49.75
L 104.9 49.75
Q 104.9 49.7 104.9 49.65
L 104.95 49.65
Q 104.9 49.55 104.85 49.5 104.85 49.3 104.95 49.05 104.7 48.95 104.4 48.9 104.3 48.85 103.15 48.55 102 48.25 101.25 47.9 100.95 47.75 100.65 47.6 99.7 46.95 98.3 46.45 97.6 46.25 96.8 46.1 96.7 46.1 96.65 46.1 96.35 46.1 96.15 45.95 95.95 45.9 95.7 45.9
L 95.95 45.85
Q 96 45.9 96.15 45.95 96.5 46.05 96.8 46.1 97.05 46.1 97.4 46.05 97.85 46 98.1 46.05 98.5 46.1 98.8 46.35 99.05 46.6 99.5 46.6 99.9 46.55 100.15 46.8 100.3 46.9 100.8 47.2 101.1 47.45 101.25 47.6 101.25 47.35 101.25 47.05 101.25 46.3 101.3 45.7
L 101.3 45.65
Q 101.2 45.45 100.95 45.15 100.7 44.8 100.35 44.55 99.55 43.9 98.95 43.95 98.95 43.9 98.9 43.65 98.85 43.35 98.8 43.3
M 95.55 49.15
Q 96.4 48.95 97.05 49.3 97.25 49.4 97.45 49.5 96.6 49.4 96.15 49.4 95 49.3 93.95 49.5 94.45 49.35 95.55 49.15
M 97.85 49.5
L 97.85 49.55 97.8 49.55 97.85 49.5 Z"/>
</g>

<g id="S_mbolo_8_0_Layer1_1_MEMBER_0_MEMBER_1_FILL">
<path fill="#CCCC99" stroke="none" d="
M 88.1 53.15
Q 88 53.05 87.85 52.75 86.9 54.45 83.8 54.6 82.8 54.6 81.15 54.5
L 81.5 54.6
Q 83 54.7 84.1 54.65 85.2 54.65 86 54.55 86.8 54.4 87.35 54.25 87.85 54.1 89.05 53.55 88.8 53.55 88.75 53.55 88.35 53.45 88.1 53.15 Z"/>

<path fill="#FFFFCC" stroke="none" d="
M 90.55 51.1
Q 90.65 50.85 90.75 50.7 90.55 50.4 90.25 50.1 89.35 49.25 87.9 49.05 85.7 48.7 82.55 49.85 81.45 50.25 80.6 50.7 80.45 50.9 80.35 51.1 79.95 51.65 79.25 52.7 78.65 53.6 78.3 54.25
L 78.85 54.35
Q 79.25 54.4 81.5 54.6
L 81.15 54.5
Q 82.8 54.6 83.8 54.6 86.9 54.45 87.85 52.75 88 53.05 88.1 53.15 88.35 53.45 88.75 53.55 88.8 53.55 89.05 53.55 89.1 53.4 89.1 53.55 89.24921875 53.3509765625 89.25 53.4 89.2501953125 53.35 89.3 53.35 89.35 53.3 89.45 53.2 89.55 53.1 89.7 52.95 89.85 52.7 90.55 51.1 Z"/>

<path fill="#FBFBFB" stroke="none" d="
M 82.45 47.6
L 82.4 47.65 82.5 47.6 82.45 47.6 Z"/>

<path fill="#FEFD9A" stroke="none" d="
M 88.65 48.35
Q 85.6 48.2 83.6 47.9 83.35 47.85 83.1 47.75 82.75 47.65 82.4 47.65
L 82.45 47.6 82.35 47.55
Q 81.75 48.9 80.6 50.7 81.45 50.25 82.55 49.85 85.7 48.7 87.9 49.05 89.35 49.25 90.25 50.1 90.55 50.4 90.75 50.7 91.4 49.25 91.6 48.5 90.4 48.45 88.65 48.35 Z"/>
</g>

<g id="S_mbolo_8_0_Layer1_1_MEMBER_0_MEMBER_2_FILL">
<path fill="#3399CC" stroke="none" d="
M 112.1 40.35
L 112.1 40.3 112.05 40.3 112.1 40.35
M 96 36
Q 97.05 37.3 97.95 37.7 98.65 37.95 100.6 38.55 101.35 38.8 102.6 38.8 103.15 38.8 103.45 38.8 103.75 38.75 103.75 38.7 105.1 38.65 106.55 38.25 108.65 37.7 110.05 36.45 110.5 36.05 111.45 35.45 112.65 34.65 112.95 34.45 114.05 33.65 114.45 32.85 113.45 30.05 109.4 27.2 107.55 25.95 106.3 25.4 106.4 25.55 106.35 25.75 106.35 25.9 106.2 26.05 106.95 26.35 107.4 26.55 108.3 26.95 108.6 27.45
L 108.6 27.8
Q 108.3 27.95 108.05 27.95 107.5 27.95 106.7 26.85 106.4 26.5 106.1 26.1 106 26.1 105.9 26.2 105.55 26.35 105 26.35 104.95 26.35 104.85 26.35 104.55 26.35 104.25 26.3 104.05 26.3 103.85 26.25 103.5 26.1 103.5 25.95 103.5 25.75 103.45 25.65
L 103.5 25.45
Q 102.1 26.25 99.05 28.15 95.2 30.5 95.1 34.2 95.1 34.3 95.1 34.45 95.35 35.1 96 36
M 104.05 26.55
Q 104.15 26.45 104.25 26.35 103.9 27.5 103.7 28 103.1 29.3 102 29.3 101.85 29.3 101.45 29.05 101.1 28.75 101.1 28.7 101.1 28.25 101.65 27.85 101.9 27.7 102.9 27.25 103.75 26.85 104.05 26.55
M 105.55 29.7
Q 105.55 29.65 105.5 29.6
L 105.45 29.6
Q 105.35 29.25 105.2 27.8 105.55 28.55 105.75 28.85
L 105.75 29.7 105.55 29.7
M 104.3 21.6
Q 104.4 21.55 105.9 21.05 106.2 21.05 106.35 21.1 106.5 21.2 106.5 21.45 106.5 21.55 106.45 21.6 106.45 21.7 106.35 21.6
L 106.35 21.8 106.35 22 107.35 22
Q 107.4 21.85 107.65 21.45 107.95 20.95 108.05 20.85 108.05 20.75 108.05 20.65
L 108.05 20.55
Q 107.95 20.55 107.8 20.45 107.65 20.4 107.6 20.4 107.3 20.4 107.05 20.55
L 106.9 20.55
Q 107.05 20.45 107.1 20.3 107.15 20.2 107.2 20.1
L 107.2 19.8
Q 106.85 19.8 105.9 19.65 104.8 19.65 104.55 19.7 103.95 19.75 103.3 20.1 103.4 20.2 103.5 20.25
L 103.5 20.3
Q 103.5015625 20.35 103.55 20.35 103.75 20.55 103.75 20.65 103.75 20.8 103.6 20.9 103.65 21.2 103.75 21.55 103.85 22.15 103.8 22.75 104.05 22.8 104.35 22.8 105 22.8 105.15 22.65 105.2 22.6 105.25 22.6 105.25 22.2 105.25 21.95 105.15 21.7 104.85 21.65 104.55 21.55 104.3 21.6 Z"/>

<path fill="#000000" stroke="none" d="
M 105.9 26.2
Q 106 26.1 106.1 26.1 106.15 26.05 106.2 26.05 106.35 25.9 106.35 25.75 106.4 25.55 106.3 25.4 106.15 25.6 105.9 25.75
L 105.85 25.75
Q 105.5 25.95 105.05 26 105 26 104.95 26 104.85 26 104.75 26 104.6 26 104.45 25.95 104.4 25.95 104.35 25.95 103.95 25.9 103.65 25.75 103.55 25.7 103.45 25.65 103.5 25.75 103.5 25.95 103.5 26.1 103.85 26.25 104.05 26.3 104.25 26.3 104.55 26.35 104.85 26.35 104.95 26.35 105 26.35 105.55 26.35 105.9 26.2
M 105.95 24.65
L 105.9 24.65
Q 105.45 24.95 105.05 25.05
L 104.95 25.05
Q 104.8 25.1 104.65 25.1 104.45 25.1 103.85 24.7 103.8 24.70078125 103.8 24.75 103.65 24.95 103.85 25.15 103.85 25.2 103.9 25.2 104.05 25.35 104.65 25.4 104.75 25.4 104.85 25.4 105.35 25.4 105.8 25.35 105.95 25.35 106.1 25.3 106.3 25.25 106.35 25.1
L 106.35 25.05
Q 106.35 24.8 105.95 24.65 Z"/>

<path fill="#2880A4" stroke="none" d="
M 108.6 27.45
Q 108.3 26.95 107.4 26.55 106.95 26.35 106.2 26.05 106.15 26.05 106.1 26.1 106.4 26.5 106.7 26.85 107.5 27.95 108.05 27.95 108.3 27.95 108.6 27.8
L 108.6 27.45
M 105.5 29.6
Q 105.55 29.65 105.55 29.7
L 105.75 29.7 105.75 28.85
Q 105.55 28.55 105.2 27.8 105.35 29.25 105.45 29.6
L 105.5 29.6
M 104.25 26.35
Q 104.15 26.45 104.05 26.55 103.75 26.85 102.9 27.25 101.9 27.7 101.65 27.85 101.1 28.25 101.1 28.7 101.1 28.75 101.45 29.05 101.85 29.3 102 29.3 103.1 29.3 103.7 28 103.9 27.5 104.25 26.35
M 95.1 34.45
Q 95.15 37.25 96.95 39.5 98.7 40.5 101.75 40.95 104.05 41.25 108.05 41.25 109 41.25 112.05 40.3
L 112.1 40.3
Q 114.8 37.75 114.65 34.25 114.6 33.55 114.45 32.85 114.05 33.65 112.95 34.45 112.65 34.65 111.45 35.45 110.5 36.05 110.05 36.45 108.65 37.7 106.55 38.25 105.1 38.65 103.75 38.7 103.75 38.75 103.45 38.8 103.15 38.8 102.6 38.8 101.35 38.8 100.6 38.55 98.65 37.95 97.95 37.7 97.05 37.3 96 36 95.35 35.1 95.1 34.45
M 105.65 23.35
Q 105.45 23.9 105.25 24.4 105.25 24.45 105.25 24.5 105.1 24.8 105.05 25.05 105.45 24.95 105.9 24.65 106.35 24.3 106.85 23.75 107.9 22.35 108.05 20.85 107.95 20.95 107.65 21.45 107.4 21.85 107.35 22
L 106.35 22 106.35 21.8
Q 106.1 22.3 105.65 23.35
M 102.8 23.95
Q 103.1 24.2 103.35 24.35 103.55 24.55 103.75 24.65 103.79921875 24.69921875 103.85 24.7 104.45 25.1 104.65 25.1 104.8 25.1 104.95 25.05
L 104.95 24.75
Q 104.95 24.7 105 24.5 105 24.45 105 24.4 105.05 24.15 105.1 23.65 105.2 23.1 105.25 22.65
L 105.15 22.65
Q 105 22.8 104.35 22.8 104.05 22.8 103.8 22.75 102.95 22.7 102.35 22.35 101.9 22.1 101 21.45
L 100.95 21.45
Q 100.8 21.8 100.8 21.95 100.8 22.15 101.05 22.45 101.5 23 102.8 23.95 Z"/>

<path fill="#1A5066" stroke="none" d="
M 96.95 39.5
Q 97.4 40 97.9 40.5 100.8 43.15 104.9 43.15 109 43.15 111.9 40.5 112 40.4 112.1 40.35
L 112.05 40.3
Q 109 41.25 108.05 41.25 104.05 41.25 101.75 40.95 98.7 40.5 96.95 39.5
M 103.5 20.3
L 103.5 20.25
Q 103.4 20.2 103.3 20.1
L 103.3 20.2
Q 103.3 20.35 103.1 20.55
L 103.1 21.1 103.15 21.1
Q 103.45 21.05 103.6 20.9 103.50078125 20.503125 103.5 20.3
M 105.9 21.05
Q 104.4 21.55 104.3 21.6 104.55 21.55 104.85 21.65 105.15 21.7 105.25 21.95 105.3 22 105.3 22.15 105.3 22.45 105.25 22.6
L 105.25 22.65
Q 105.2 23.1 105.1 23.65 105.05 24.15 105 24.4 105 24.45 105 24.5 104.95 24.7 104.95 24.75
L 104.95 25.05 105.05 25.05
Q 105.1 24.8 105.25 24.5 105.25 24.45 105.25 24.4 105.45 23.9 105.65 23.35 106.1 22.3 106.35 21.8
L 106.35 21.6
Q 106.45 21.7 106.45 21.6 106.5 21.55 106.5 21.45 106.5 21.2 106.35 21.1 106.2 21.05 105.9 21.05 Z"/>

<path fill="#333333" stroke="none" d="
M 103.85 24.7
Q 103.79921875 24.69921875 103.75 24.65 103.55 24.85 103.5 25.25 103.5 25.35 103.5 25.45
L 103.45 25.65
Q 103.55 25.7 103.65 25.75 103.95 25.9 104.35 25.95 104.4 25.95 104.45 25.95 104.6 26 104.75 26 104.85 26 104.95 26 105 26 105.05 26 105.5 25.95 105.85 25.75
L 105.9 25.75
Q 106.15 25.6 106.3 25.4
L 106.3 25.35
Q 106.35 25.25 106.35 25.15
L 106.35 25.1
Q 106.3 25.25 106.1 25.3 105.95 25.35 105.8 25.35 105.35 25.4 104.85 25.4 104.75 25.4 104.65 25.4 104.05 25.35 103.9 25.2 103.85 25.2 103.85 25.15 103.65 24.95 103.8 24.75 103.8 24.70078125 103.85 24.7 Z"/>

<path fill="#55AED5" stroke="none" d="
M 103.6 20.9
Q 103.45 21.05 103.15 21.1
L 103.1 21.15
Q 102.8 21.2 101.9 21.3 101.35 21.35 101 21.45 101.9 22.1 102.35 22.35 102.95 22.7 103.8 22.75 103.85 22.15 103.75 21.55 103.65 21.2 103.6 20.9 Z"/>
</g>

<g id="S_mbolo_8_0_Layer1_1_MEMBER_0_MEMBER_3_FILL">
<path fill="#1A5066" stroke="none" d="
M 83.45 42.85
Q 83.8 43.25 84.25 43.65 86.55 45.75 89.8 45.75 93.1 45.75 95.4 43.65 95.5 43.6 95.55 43.5 93.15 44.25 92.35 44.25 89.15 44.25 87.3 44 84.85 43.6 83.45 42.85
M 91.1 28.5
Q 91.1 28.45 91.1 28.4 91.1 28.2 91 28.1 90.85 28.1 90.6 28.1 89.4 28.45 89.35 28.55 89.55 28.5 89.8 28.55 90 28.65 90.1 28.75 90.15 28.85 90.15 28.95 90.15 29.2 90.05 29.3
L 90.05 29.35
Q 90.05 29.75 89.95 30.15 89.9 30.55 89.9 30.75 89.9 30.8 89.9 30.85 89.85 31 89.85 31.05
L 89.85 31.3 89.9 31.3
Q 90 31.05 90.05 30.85 90.1 30.8 90.1 30.75 90.2 30.35 90.4 29.9 90.8 29.05 91 28.65
L 91 28.55
Q 91.05 28.6 91.1 28.5
M 88.55 27.3
L 88.55 27.45
Q 88.55 27.5 88.4 27.65
L 88.4 28.1 88.45 28.1
Q 88.65 28.1 88.8 28 88.70078125 27.652734375 88.7 27.45 88.6 27.35 88.55 27.3 Z"/>

<path fill="#2880A4" stroke="none" d="
M 88 42.3
Q 87 42.3 86.35 42.1 84.8 41.6 84.3 41.4 83.5 41.1 82.7 40 82.15 39.35 82 38.8 82 41.05 83.45 42.85 84.85 43.6 87.3 44 89.15 44.25 92.35 44.25 93.15 44.25 95.55 43.5 97.7 41.45 97.6 38.65 97.6 38.1 97.45 37.55 97.1 38.15 96.25 38.8 96 39 95.05 39.6 94.3 40.1 93.9 40.4 92.8 41.4 91.1 41.85 89.95 42.15 88.85 42.2 88.85 42.25 88.6 42.25 88.4 42.3 88 42.3
M 86.7 28.4
L 86.65 28.4
Q 86.55 28.7 86.55 28.8 86.55 28.95 86.75 29.2 87.1 29.6 88.15 30.45 88.35 30.6 88.6 30.75 88.75 30.85 88.9 30.95
L 88.95 31
Q 89.45 31.35 89.6 31.35 89.75 31.35 89.85 31.3
L 89.85 31.05
Q 89.85 31 89.9 30.85 89.9 30.8 89.9 30.75 89.9 30.55 89.95 30.15 90.05 29.75 90.05 29.35
L 90 29.35
Q 89.9 29.45 89.4 29.45 89.15 29.45 88.95 29.45 88.25 29.4 87.75 29.1 87.4 28.9 86.7 28.4
M 92.3 33.6
Q 92.55 33.6 92.75 33.5
L 92.75 33.15
Q 92.55 32.8 91.8 32.45 91.45 32.3 90.85 32.05 90.8 32.1 90.75 32.1 91 32.45 91.25 32.75 91.85 33.6 92.3 33.6
M 90.05 33.45
L 90.05 33.5
Q 90.2 34.6 90.3 34.9 90.35 34.95 90.35 35
L 90.5 35 90.5 34.35
Q 90.3 34.05 90.05 33.45
M 89.25 32.4
Q 89.2 32.4 89.15 32.45 88.9 32.7 88.2 33 87.4 33.4 87.2 33.55 86.8 33.85 86.8 34.2 86.8 34.25 87.1 34.45 87.35 34.7 87.5 34.7 88.35 34.7 88.85 33.6 89 33.25 89.25 32.4
M 91.35 30.2
Q 92.25 29.1 92.3 27.9 92.25 28 92 28.4 91.85 28.7 91.75 28.85
L 91 28.85 91 28.65
Q 90.8 29.05 90.4 29.9 90.2 30.35 90.1 30.75 90.1 30.8 90.05 30.85 90 31.05 89.9 31.3 90.3 31.2 90.65 30.95 91 30.65 91.35 30.2 Z"/>

<path fill="#000000" stroke="none" d="
M 90.65 32.15
Q 90.7 32.15 90.75 32.1 90.8 32.1 90.85 32.05 91 31.95 91 31.85 91 31.7 90.95 31.55 90.85 31.7 90.55 31.85 90.3 32 89.9 32.05
L 89.85 32.05
Q 89.8 32.05 89.7 32.05 89.55 32.05 89.45 32.05 89.4 32 89.35 32 89.05 31.95 88.8 31.85 88.75 31.8 88.65 31.75 88.7 31.8 88.7 32 88.7 32.15 89 32.2 89.1 32.25 89.3 32.3 89.5 32.3 89.8 32.3 89.85 32.3 89.9 32.3 90.35 32.3 90.65 32.15
M 91 31.35
Q 91 31.3 91 31.25 91 31.1 90.65 30.95 90.3 31.2 89.9 31.3
L 89.85 31.3
Q 89.75 31.35 89.6 31.35 89.45 31.35 88.95 31 88.85 31.2 88.95 31.35
L 89 31.4
Q 89.15 31.55 89.6 31.55 89.7 31.55 89.8 31.55 90.2 31.55 90.55 31.55 90.65 31.5 90.75 31.5 90.95 31.45 91 31.35 Z"/>

<path fill="#333333" stroke="none" d="
M 91 31.4
L 91 31.35
Q 90.95 31.45 90.75 31.5 90.65 31.5 90.55 31.55 90.2 31.55 89.8 31.55 89.7 31.55 89.6 31.55 89.15 31.55 89 31.4
L 88.95 31.35
Q 88.85 31.2 88.95 31
L 88.9 30.95
Q 88.75 31.1 88.7 31.45 88.7 31.55 88.65 31.6
L 88.65 31.75
Q 88.75 31.8 88.8 31.85 89.05 31.95 89.35 32 89.4 32 89.45 32.05 89.55 32.05 89.7 32.05 89.8 32.05 89.85 32.05
L 89.9 32.05
Q 90.3 32 90.55 31.85 90.85 31.7 90.95 31.55
L 90.95 31.5
Q 91 31.45 91 31.4 Z"/>

<path fill="#55AED5" stroke="none" d="
M 88.4 28.1
L 88.4 28.15
Q 88.15 28.2 87.45 28.25 87 28.3 86.7 28.4 87.4 28.9 87.75 29.1 88.25 29.4 88.95 29.45 88.95 28.95 88.85 28.5 88.8 28.2 88.8 28 88.65 28.1 88.45 28.1
L 88.4 28.1 Z"/>

<path fill="#3399CC" stroke="none" d="
M 92.75 33.5
Q 92.55 33.6 92.3 33.6 91.85 33.6 91.25 32.75 91 32.45 90.75 32.1 90.7 32.15 90.65 32.15 90.35 32.3 89.9 32.3 89.85 32.3 89.8 32.3 89.5 32.3 89.3 32.3 89.1 32.25 89 32.2 88.7 32.15 88.7 32 88.7 31.8 88.65 31.75
L 88.65 31.6
Q 87.55 32.25 85.15 33.75 82.1 35.65 82 38.6 82 38.65 82 38.8 82.15 39.35 82.7 40 83.5 41.1 84.3 41.4 84.8 41.6 86.35 42.1 87 42.3 88 42.3 88.4 42.3 88.6 42.25 88.85 42.25 88.85 42.2 89.95 42.15 91.1 41.85 92.8 41.4 93.9 40.4 94.3 40.1 95.05 39.6 96 39 96.25 38.8 97.1 38.15 97.45 37.55 96.65 35.25 93.4 33 91.95 32 90.95 31.55 91 31.7 91 31.85 91 31.95 90.85 32.05 91.45 32.3 91.8 32.45 92.55 32.8 92.75 33.15
L 92.75 33.5
M 89.15 32.45
Q 89.2 32.4 89.25 32.4 89 33.25 88.85 33.6 88.35 34.7 87.5 34.7 87.35 34.7 87.1 34.45 86.8 34.25 86.8 34.2 86.8 33.85 87.2 33.55 87.4 33.4 88.2 33 88.9 32.7 89.15 32.45
M 89.95 33.25
L 90 33.25
Q 90 33.346875 90 33.4
L 90.05 33.45
Q 90.3 34.05 90.5 34.35
L 90.5 35 90.35 35
Q 90.35 34.95 90.3 34.9 90.2 34.6 90.05 33.5 90 33.45 90 33.4 89.9984375 33.3470703125 89.95 33.25
M 91.65 27.3
L 91.65 27.1
Q 91.4 27.1 90.65 26.95 89.7 26.95 89.5 26.95 89.05 27.05 88.55 27.3 88.6 27.35 88.7 27.45 88.7015625 27.5 88.75 27.5 88.85 27.65 88.85 27.8 88.85 27.9 88.8 28 88.8 28.2 88.85 28.5 88.95 28.95 88.95 29.45 89.15 29.45 89.4 29.45 89.9 29.45 90 29.35
L 90.05 29.3
Q 90.1 29 90.1 28.75 90 28.65 89.8 28.55 89.55 28.5 89.35 28.55 89.4 28.45 90.6 28.1 90.85 28.1 91 28.1 91.1 28.2 91.1 28.4 91.1 28.45 91.1 28.5 91.05 28.6 91 28.55
L 91 28.65 91 28.85 91.75 28.85
Q 91.85 28.7 92 28.4 92.25 28 92.3 27.9 92.3 27.85 92.3 27.8
L 92.3 27.65
Q 92.25 27.65 92.15 27.6 92 27.55 91.95 27.55 91.75 27.55 91.55 27.65
L 91.4 27.65
Q 91.55 27.6 91.55 27.5 91.6 27.35 91.65 27.3 Z"/>
</g>

<g id="S_mbolo_8_0_Layer1_1_MEMBER_0_MEMBER_4_FILL">
<path fill="#FFCC66" stroke="none" d="
M 86.65 49.15
Q 86.6 49.1 86.55 49.2 86.5 49.2 86.5 49.25
L 86.6 49.3 86.7 49.3 86.7 49.25
Q 86.7 49.2 86.7 49.15
L 86.65 49.15
M 86.75 48.7
L 86.7 48.6
Q 86.65 48.6 86.6 48.6
L 86.55 48.7 86.65 48.8 86.7 48.75 86.75 48.7
M 85.1 48.2
L 85.15 48.2 85.15 48.15 85.2 48.1
Q 85.2 48.05 85.15 48.05 85.05 48 85.05 48.05 85 48.05 85 48.1
L 85.1 48.2
M 85.9 48.45
Q 85.8 48.4 85.75 48.45 85.75 48.5 85.75 48.55
L 85.85 48.6
Q 85.9 48.6 85.9 48.55
L 85.9 48.5 85.9 48.45
M 86.85 48.05
Q 86.75 48 86.7 48.05
L 86.7 48.1 86.8 48.2 86.85 48.15 86.85 48.05
M 86.2 46.9
L 86.3 46.9
Q 86.45 46.9 86.45 46.8 86.45 46.75 86.4 46.75 86.25 46.7 86.2 46.75 86.15 46.75 86.15 46.85 86.15 46.9 86.2 46.9
M 86.35 47.15
Q 86.3 47.15 86.25 47.15 86.15 47.15 86.2 47.25
L 86.2 47.3 86.35 47.3 86.4 47.25
Q 86.4 47.2 86.35 47.2
L 86.35 47.15
M 85.6 46.95
L 85.6 47 85.7 47.1
Q 85.7 47.05 85.75 47.05
L 85.75 46.9
Q 85.65 46.9 85.6 46.95 Z"/>

<path fill="#FF9900" stroke="none" d="
M 84.95 47.65
L 84.95 47.5
Q 84.85 47.5 84.8 47.5 84.65 47.3 84.55 47.05 84.5 47.3 84.5 47.6
L 84.5 47.65 84.65 47.65
Q 84.65 47.9 84.9 48.1 84.95 48.1 85 48.1 85 48.05 85.05 48.05 85.05 48 85.15 48.05 85.2 48.05 85.2 48.1
L 85.15 48.15 85.15 48.2
Q 85.45 48.3 85.75 48.45 85.8 48.4 85.9 48.45
L 85.9 48.5
Q 86.2 48.6 86.55 48.7
L 86.6 48.6
Q 86.65 48.6 86.7 48.6
L 86.75 48.7 86.7 48.75
Q 89 49.3 91.45 48.25 91.55 47.85 91.55 47.5 91.55 46.9 91.3 46.45 91.1 46.9 91 47.15 90.7 47.6 90.4 47.8 90.1 47.9 89.5 47.9 88.7 47.9 88.05 47.95 87.2 47.95 86.75 47.95 85.95 48 85.45 47.85 85.15 47.8 84.95 47.65
M 86.7 48.05
Q 86.75 48 86.85 48.05
L 86.85 48.15 86.8 48.2 86.7 48.1 86.7 48.05
M 86.3 48.25
Q 86.3 48.1 86.45 48.15
L 86.45 48.3 86.4 48.35 86.3 48.25
M 86.25 47.15
L 86.25 47.1
Q 86.15 47.1 86.15 47.15
L 86.1 47.2 86.2 47.3 86.2 47.25
Q 86.15 47.15 86.25 47.15
M 86.8 47.1
Q 86.85 47.05 86.9 47.05
L 86.9 46.9
Q 86.75 46.9 86.75 47
L 86.8 47.1
M 88.2 45.5
Q 88.15 45.6 88 45.6 88.15 45.7 88.2 45.8 88.35 45.95 88.45 46.2
L 88.55 46.15 88.6 46.1 88.55 45.9
Q 88.55 45.7 88.4 45.6 88.35 45.55 88.2 45.5
M 86.65 45.5
Q 86.45 45.6 86.35 45.75
L 86.6 45.75
Q 86.65 45.7 86.95 45.6 87.3 45.55 87.45 45.55 87.5 45.55 87.6 45.55 87.4 45.5 87.35 45.4 87.25 45.4 87.2 45.4
L 87.1 45.35
Q 86.9 45.4 86.65 45.5
M 88.8 44.85
L 88.75 44.8
Q 88.6 44.8 88.45 44.8 88.25 44.8 88.15 44.9 88 45.05 88 45.15 88.05 45.1 88.15 45.1 88.2 45.1 88.25 45.1 88.3 45 88.35 44.95 88.55 44.9 88.8 44.9
L 88.8 44.85
M 85.8 47.5
L 85.85 47.5
Q 85.9 47.5 85.95 47.5
L 85.95 47.35 85.9 47.35
Q 85.75 47.3 85.75 47.4
L 85.8 47.5
M 85.75 46.75
L 85.85 46.7 85.85 46.6
Q 85.75 46.55 85.7 46.6 85.65 46.6 85.7 46.65
L 85.75 46.75
M 86.05 46.3
Q 86.05 46.35 86.05 46.4 86.05 46.45 86.15 46.45
L 86.2 46.45 86.2 46.4
Q 86.2 46.35 86.2 46.3 86.1 46.3 86.05 46.3 Z"/>

<path fill="#CC9900" stroke="none" d="
M 86.45 48.15
Q 86.3 48.1 86.3 48.25
L 86.4 48.35 86.45 48.3 86.45 48.15 Z"/>

<path fill="#FFCC00" stroke="none" d="
M 84.95 47.5
L 84.95 47.65
Q 85.15 47.8 85.45 47.85 85.95 48 86.75 47.95 87.2 47.95 88.05 47.95 88.7 47.9 89.5 47.9 90.1 47.9 90.4 47.8 90.7 47.6 91 47.15 91.1 46.9 91.3 46.45 91.05 45.75 90.45 45.25 89.4 44.35 87.95 44.35 86.5 44.4 85.5 45.35 84.7 46.05 84.55 47.05 84.65 47.3 84.8 47.5 84.85 47.5 84.95 47.5
M 86.05 46.4
Q 86.05 46.35 86.05 46.3 86.1 46.3 86.2 46.3 86.2 46.35 86.2 46.4
L 86.2 46.45 86.15 46.45
Q 86.05 46.45 86.05 46.4
M 85.85 46.7
L 85.75 46.75 85.7 46.65
Q 85.65 46.6 85.7 46.6 85.75 46.55 85.85 46.6
L 85.85 46.7
M 85.6 47
L 85.6 46.95
Q 85.65 46.9 85.75 46.9
L 85.75 47.05
Q 85.7 47.05 85.7 47.1
L 85.6 47
M 85.85 47.5
L 85.8 47.5 85.75 47.4
Q 85.75 47.3 85.9 47.35
L 85.95 47.35 85.95 47.5
Q 85.9 47.5 85.85 47.5
M 88.75 44.8
L 88.8 44.85 88.8 44.9
Q 88.55 44.9 88.35 44.95 88.3 45 88.25 45.1
L 88.3 45.1
Q 88.35 45.1 88.35 45.25 88.35 45.35 88.3 45.4 88.3 45.5 88.2 45.5 88.35 45.55 88.4 45.6 88.55 45.7 88.55 45.9
L 88.6 46.1 88.55 46.15 88.45 46.2
Q 88.35 45.95 88.2 45.8 88.15 45.7 88 45.6
L 87.95 45.6
Q 87.85 45.55 87.75 45.55
L 87.6 45.55
Q 87.5 45.55 87.45 45.55 87.3 45.55 86.95 45.6 86.65 45.7 86.6 45.75
L 86.35 45.75
Q 86.45 45.6 86.65 45.5 86.9 45.4 87.1 45.35
L 87.2 45.4
Q 87.25 45.4 87.35 45.4 87.25 45.35 87.25 45.3 87.25 45.25 87.35 45.15 87.5 45.05 87.6 45.05 87.7 45.05 87.9 45.1
L 87.95 45.1 88 45.15
Q 88 45.05 88.15 44.9 88.25 44.8 88.45 44.8 88.6 44.8 88.75 44.8
M 86.9 47.05
Q 86.85 47.05 86.8 47.1
L 86.75 47
Q 86.75 46.9 86.9 46.9
L 86.9 47.05
M 86.25 47.1
L 86.25 47.15
Q 86.3 47.15 86.35 47.15
L 86.35 47.2
Q 86.4 47.2 86.4 47.25
L 86.35 47.3 86.2 47.3 86.1 47.2 86.15 47.15
Q 86.15 47.1 86.25 47.1
M 86.3 46.9
L 86.2 46.9
Q 86.15 46.9 86.15 46.85 86.15 46.75 86.2 46.75 86.25 46.7 86.4 46.75 86.45 46.75 86.45 46.8 86.45 46.9 86.3 46.9
M 88.2 45.2
Q 88.25 45.15 88.25 45.1 88.2 45.1 88.15 45.1 88.05 45.1 88 45.15 88.15 45.15 88.2 45.15
L 88.2 45.2 Z"/>

<path fill="#FFFF99" stroke="none" d="
M 88.25 45.1
Q 88.25 45.15 88.2 45.2
L 88.2 45.15
Q 88.15 45.15 88 45.15
L 87.95 45.1 87.9 45.1
Q 87.7 45.05 87.6 45.05 87.5 45.05 87.35 45.15 87.25 45.25 87.25 45.3 87.25 45.35 87.35 45.4 87.4 45.5 87.6 45.55
L 87.75 45.55
Q 87.85 45.55 87.95 45.6
L 88 45.6
Q 88.15 45.6 88.2 45.5 88.3 45.5 88.3 45.4 88.35 45.35 88.35 45.25 88.35 45.1 88.3 45.1
L 88.25 45.1 Z"/>
</g>

<g id="S_mbolo_8_0_Layer1_1_MEMBER_0_MEMBER_5_FILL">
<path fill="#EEF7F5" stroke="none" d="
M 104.3 44.1
Q 116.35 42.35 104.9 38.55 108.45 41.95 104.3 44.1
M 96.35 40.65
Q 96.25 40.7 96.2 40.9 96.1 41.1 96.1 41.4 96.1 41.7 96.2 41.9 96.25 42.1 96.4 42.15
L 96.45 42.15
Q 96.55 42.15 96.6 42
L 96.65 41.9
Q 96.75 41.7 96.7 41.4 96.7 41.1 96.6 40.9
L 96.6 40.8
Q 96.55 40.7 96.4 40.65
L 96.35 40.65
M 100.1 40.15
L 100.05 40.15
Q 100 40.2 99.95 40.2
L 97.6 40.65
Q 100.5 40.65 99.2 42.4
L 100 42.45 100.1 42.45
Q 100.3 42.4 100.4 42.15 100.55 41.8 100.5 41.3 100.5 40.8 100.4 40.5 100.25 40.2 100.1 40.15 Z"/>

<path fill="#CCE6E6" stroke="none" d="
M 104 38.35
Q 104.5 38.45 104.9 38.55 116.35 42.35 104.3 44.1
L 112.15 43.95
Q 112.2 44 112.3 44 112.75 44 113.05 43.15 113.35 42.3 113.35 41.1 113.35 39.9 113.05 39.05 112.7 38.25 112.25 38.25
L 104 38.35
M 111.15 41.15
Q 111.15 40.2 111.35 39.5 111.55 38.8 111.95 38.8 112.25 38.8 112.5 39.45 112.75 40.15 112.75 41.15 112.8 42.15 112.55 42.8 112.3 43.5 112 43.5 111.65 43.55 111.4 42.85 111.2 42.15 111.15 41.15
M 100.5 41.3
Q 100.55 41.8 100.4 42.15 100.3 42.4 100.1 42.45
L 100.15 42.5
Q 100 42.5 101.2 43.4 102.4 44.3 102.95 44.1
L 103.1 44.1
Q 103.503515625 44.0900390625 103.8 43.25 104.15 42.4 104.1 41.25 104.05 40.05 103.75 39.2 103.4 38.4 102.95 38.35
L 102.85 38.35
Q 101.85 38.5 100.1 40.15 100.25 40.2 100.4 40.5 100.5 40.8 100.5 41.3
M 97.05 40.9
L 97.05 40.8
Q 97 40.65 96.9 40.6
L 96.4 40.65
Q 96.55 40.7 96.6 40.8
L 96.6 40.9
Q 96.7 41.1 96.7 41.4 96.75 41.7 96.65 41.9
L 96.6 42
Q 96.55 42.15 96.45 42.15
L 96.4 42.15 96.75 42.2
Q 96.8 42.25 96.85 42.25 97 42.25 97.05 42.05
L 97.05 42 97.1 42
Q 97.2 41.75 97.15 41.45 97.15 41.1 97.05 40.9 Z"/>

<path fill="#83C0C0" stroke="none" d="
M 111.35 39.5
Q 111.15 40.2 111.15 41.15 111.2 42.15 111.4 42.85 111.65 43.55 112 43.5 112.3 43.5 112.55 42.8 112.8 42.15 112.75 41.15 112.75 40.15 112.5 39.45 112.25 38.8 111.95 38.8 111.55 38.8 111.35 39.5 Z"/>

<path fill="#FFFFFF" stroke="none" d="
M 104.1 41.25
Q 104.15 42.4 103.8 43.25 103.503515625 44.0900390625 103.1 44.1
L 104.3 44.1
Q 108.45 41.95 104.9 38.55 104.5 38.45 104 38.35
L 102.95 38.35
Q 103.4 38.4 103.75 39.2 104.05 40.05 104.1 41.25
M 97.05 40.8
L 97.05 40.9
Q 97.15 41.1 97.15 41.45 97.2 41.75 97.1 42
L 97.05 42 97.05 42.05 99.2 42.4
Q 100.5 40.65 97.6 40.65
L 97.05 40.8 Z"/>
</g>

<g id="Tween______0_Layer0_0_FILL">
<path fill="#FFFFFF" fill-opacity="0.27058823529411763" stroke="none" d="
M -7.1 -2.3
Q -7.1 -1.25 -5.7 -1 -5.517578125 -0.9544921875 -3.2 -0.9 -3.081640625 -0.984375 -3 -1.1 -2.8357421875 -1.3369140625 -2.7 -1.7 -2.581640625 -2.038671875 -2.4 -2.15 -2.92578125 -2.609765625 -3.4 -3.05 -3.8 -3.3 -4.65 -3.3 -7.1 -3.3 -7.1 -2.3
M 0.55 -1.7
Q 0.3314453125 -0.8166015625 0 -0.15 3.45 -1.015625 3.45 -3 3.45 -3.8 3.15 -4.05 2.85 -4.35 2 -4.35 0.65 -4.35 0.1 -3.8 -0.4123046875 -3.3341796875 -0.85 -1.95
L -0.7 -1.9
Q -0.0013671875 -1.809765625 0.55 -1.7 Z"/>

<path fill="#000000" stroke="none" d="
M 0 -0.15
Q 0.3314453125 -0.8166015625 0.55 -1.7 -0.0013671875 -1.809765625 -0.7 -1.9 -0.7732421875 -1.8822265625 -0.85 -1.9 -1.3328125 -1.9515625 -1.75 -2.1 -1.844921875 -2.1099609375 -1.95 -2.15 -2.200390625 -2.245703125 -2.4 -2.15 -2.581640625 -2.038671875 -2.7 -1.7 -2.8357421875 -1.3369140625 -3 -1.1 -3.081640625 -0.984375 -3.2 -0.9 -3.21171875 -0.876171875 -3.25 -0.85 -3.559765625 -0.6255859375 -3.8 -0.75
L -3.8 -0.7
Q -3.6677734375 -0.4177734375 -3.3 0.95 -2.984375 1.94140625 -3 2.1 -0.987890625 1.8287109375 0 -0.15 Z"/>
</g>

<g id="S_mbolo_8_0_Layer1_1_MEMBER_0_MEMBER_7_FILL">
<path fill="#EEF7F5" stroke="none" d="
M 43.75 80.8
L 43.7 80.75
Q 43.65 80.6 43.55 80.6
L 43.5 80.6
Q 43.4 80.65 43.3 80.8 43.2 81 43.2 81.35 43.25 81.65 43.3 81.85 43.4 82.05 43.5 82.05
L 43.55 82.05
Q 43.65 82.05 43.7 81.95 43.75 81.9 43.75 81.85 43.85 81.65 43.85 81.35 43.85 81 43.75 80.8
M 47.2 80.05
Q 47.15 80.1 47.1 80.15
L 44.75 80.55
Q 47.65 80.6 46.3 82.3
L 47.15 82.4 47.25 82.4
Q 47.4 82.35 47.55 82.05 47.65 81.7 47.65 81.2 47.65 80.75 47.5 80.4 47.4 80.1 47.2 80.05
M 51.4 84
Q 63.5 82.25 52.05 78.45 55.6 81.85 51.4 84 Z"/>

<path fill="#FFFFFF" stroke="none" d="
M 44.2 80.75
L 44.2 80.8
Q 44.3 81 44.3 81.35 44.3 81.65 44.25 81.9
L 44.2 81.9 44.2 82 46.3 82.3
Q 47.65 80.6 44.75 80.55
L 44.15 80.75 44.2 80.75
M 52.05 78.45
Q 51.6 78.4 51.15 78.3
L 50.15 78.3
Q 50.553515625 78.3078125 50.9 79.1 51.2 79.95 51.2 81.15 51.25 82.35 50.95 83.15 50.65 84 50.15 84.05
L 51.4 84
Q 55.6 81.85 52.05 78.45 Z"/>

<path fill="#CCE6E6" stroke="none" d="
M 44.2 80.8
L 44.2 80.75 44.15 80.75
Q 44.1 80.6 44 80.55
L 43.55 80.6
Q 43.65 80.6 43.7 80.75
L 43.75 80.8
Q 43.85 81 43.85 81.35 43.85 81.65 43.75 81.85 43.75 81.9 43.7 81.95 43.65 82.05 43.55 82.05
L 43.9 82.15 43.95 82.2
Q 44.1 82.2 44.2 82
L 44.2 81.9 44.25 81.9
Q 44.3 81.65 44.3 81.35 44.3 81 44.2 80.8
M 50.95 83.15
Q 51.25 82.35 51.2 81.15 51.2 79.95 50.9 79.1 50.553515625 78.3078125 50.15 78.3
L 50 78.3
Q 49 78.4 47.2 80.05 47.4 80.1 47.5 80.4 47.65 80.75 47.65 81.2 47.65 81.7 47.55 82.05 47.4 82.35 47.25 82.4 47.15 82.4 48.3 83.35 49.5 84.25 50.1 84.05
L 50.15 84.05
Q 50.65 84 50.95 83.15
M 60.15 79
Q 59.85 78.2 59.35 78.15
L 51.15 78.3
Q 51.6 78.4 52.05 78.45 63.5 82.25 51.4 84
L 59.3 83.9
Q 59.35 83.9 59.4 83.9 59.9 83.9 60.2 83.05 60.5 82.2 60.5 81 60.45 79.8 60.15 79
M 58.5 79.4
Q 58.7 78.7 59.05 78.7 59.35 78.7 59.65 79.4 59.9 80.05 59.9 81.1 59.9 82.05 59.7 82.75 59.4 83.45 59.1 83.45 58.8 83.45 58.55 82.75 58.3 82.05 58.3 81.1 58.3 80.1 58.5 79.4 Z"/>

<path fill="#83C0C0" stroke="none" d="
M 59.05 78.7
Q 58.7 78.7 58.5 79.4 58.3 80.1 58.3 81.1 58.3 82.05 58.55 82.75 58.8 83.45 59.1 83.45 59.4 83.45 59.7 82.75 59.9 82.05 59.9 81.1 59.9 80.05 59.65 79.4 59.35 78.7 59.05 78.7 Z"/>
</g>

<g id="S_mbolo_8_0_Layer1_1_MEMBER_0_MEMBER_8_MEMBER_0_MEMBER_0_FILL">
<path fill="#990000" stroke="none" d="
M 99.65 49.8
Q 99.6 49.8 99.55 49.8 99.05 49.9 98.5 49.7 98.3 49.65 98.15 49.55 97.85 49.65 97.75 49.65 98.15 49.85 98.65 49.95 98.95 49.95 99.2 49.95 99.25 49.95 99.3 49.95 99.4 49.9 99.55 49.85
L 99.6 49.85 99.65 49.8
M 101.75 50.2
Q 101.65 50 101.5 49.9 101.45 49.8 101.3 49.7 101.2 49.65 101.15 49.65
L 101.1 49.6
Q 101 49.65 100.95 49.7
L 100.9 49.75
Q 100.45 50 100.1 50.05 99.8 50.1 99.35 50.2 98.9 50.4 98.7 50.4 98.55 50.4 98.4 50.35
L 98.1 50.4 98.15 50.45
Q 98.5 50.65 98.6 50.65 98.65 50.65 99.05 50.55 99.4 50.5 100.1 50.2 100.8 49.95 101.05 49.8 101.2 50 101.25 50.1 101.3 50.25 101.1 50.75 100.9 51.2 100.95 51.35
L 101 51.55
Q 101 51.35 101.15 51.25 101.2 51.2 101.25 51.15 101.25 51.1 101.3 51.05
L 101.35 51.05 101.35 51
Q 101.45 50.9 101.45 50.85 101.6 50.75 101.65 50.55 101.75 50.25 101.75 50.2
M 106.4 51.65
L 106.4 51.5
Q 106.3 51.45 106.2 51.35 105.9 51 105.2 50.55 105.15 50.55 105.1 50.5 105.05 50.45 105 50.45 104.5 50.1 103.95 49.95 103.55 49.8 103.2 49.8
L 101.85 49.6 101.8 49.6
Q 102.1 49.75 102.2 49.8 102.4 49.9 103.3 50 104.15 50.1 104.5 50.35 105 50.7 106.4 51.65
M 103.45 49.4
L 103.5 49.4
Q 103.55 49.45 103.6 49.45
L 104.3 49.3
Q 104.6 49.15 104.75 49.1 104.9 49 105 48.95
L 104.9 48.95
Q 104.846484375 48.9232421875 104.8 48.9
L 104.75 48.95 104.7 48.95
Q 104.35 49.05 103.85 49.15
L 103.2 49.2
Q 102.6375 49.246875 102.45 49.25 102.865234375 49.2537109375 103.45 49.4 Z"/>

<path fill="#009933" stroke="none" d="
M 101.85 50.1
Q 101.75 49.9 101.55 49.75 101.35 49.55 101.15 49.55
L 101.15 49.65
Q 101.2 49.65 101.3 49.7 101.45 49.8 101.5 49.9 101.65 50 101.75 50.2 101.75 50.25 101.65 50.55 101.6 50.75 101.45 50.85 101.45 50.9 101.35 51
L 101.5 50.9
Q 101.55 50.85 101.6 50.8 101.65 50.75 101.7 50.7 101.85 50.55 101.85 50.45
L 101.85 50.3
Q 101.85 50.15 101.85 50.1
M 104.65 50.1
Q 104.55 50.05 104.45 50 104.4 50 104.25 49.95 104.15 49.9 104.05 49.85 104 49.8 103.85 49.75
L 103.65 49.7
Q 103 49.55 101.8 49.5
L 101.75 49.55 101.8 49.55
Q 101.8 49.598828125 101.85 49.6
L 103.2 49.8
Q 103.55 49.8 103.95 49.95 104.5 50.1 105 50.45
L 104.95 50.35
Q 104.85 50.25 104.75 50.2 104.7 50.2 104.65 50.1
M 105.65 47.25
Q 105.75 47.45 105.55 47.8 105.3 48.2 104.95 48.35 104.9 48.35 104.7 48.55 105.4 48.35 105.7 48.05 106.1 47.7 105.9 47.1 105.8 46.85 105.55 46.75 105.4 46.65 105.25 46.6 105.1 46.6 104.7 46.65 104.95 46.65 105.2 46.8 105.55 47.05 105.65 47.25
M 101.2 47.55
Q 101.2 47.65 101.15 47.65 101.1 47.7 100.8 47.75 100.4 47.85 100.25 47.7 100.1 47.55 99.95 47.5 100.1 47.65 100.3 47.9 100.6 48.2 100.75 48.6 100.7 48.9 100.75 49
L 100.7 49 100.7 49.05 100.8 49.2 101.35 49.1
Q 101.45 49.05 101.45 48.9 101.45 48.85 101.45 48.8 101.4 48.8 101.35 48.7 101.35 48.6 101.35 48.15 101.35 47.8 101.2 47.55
M 97.85 48.75
Q 97.7 49.05 97.75 49.15 97.8 49.4 98.15 49.55 98.3 49.65 98.5 49.7 99.05 49.9 99.55 49.8
L 99.65 49.75 99.7 49.75
Q 99.85 49.75 100.05 49.65 100 49.65 99.75 49.65 99.5 49.65 99.35 49.65 99.2 49.65 99.05 49.6 98.85 49.55 98.75 49.55 98.45 49.55 98.15 49.35 97.95 49.15 97.85 48.95 97.85 48.85 97.85 48.8
L 97.85 48.75 Z"/>

<path fill="#CD0000" stroke="none" d="
M 104.75 49.1
Q 104.6 49.15 104.3 49.3
L 103.6 49.45
Q 103.7 49.45 103.95 49.55 104.35 49.65 104.8 49.9 105.25 50.15 105.6 50.55 106.05 51 106.15 51.05 106.25 51.15 106.35 51.45
L 106.4 51.5 106.4 51.65
Q 105 50.7 104.5 50.35 104.15 50.1 103.3 50 102.4 49.9 102.2 49.8 102.25 49.9 102.25 49.95 102.4 50.3 101.9 50.85 101.75 51 101.5 51.25 101.35 51.4 101.3 51.55 101.25 51.25 101.25 51.15 101.2 51.2 101.15 51.25 101 51.35 101 51.55
L 100.95 51.35
Q 100.9 51.2 101.1 50.75 101.3 50.25 101.25 50.1 101.2 50 101.05 49.8 100.8 49.95 100.1 50.2 99.4 50.5 99.05 50.55 98.65 50.65 98.6 50.65 98.5 50.65 98.15 50.45
L 98.1 50.4 98.4 50.35
Q 98.25 50.3 98 50.2 98.15 50.2 98.35 50.2 98.55 50.15 98.65 50.15 98.85 50.1 99.2 49.95 98.95 49.95 98.65 49.95 98.15 49.85 97.75 49.65 97.65 49.7 97.45 49.8 97.2 49.9 96.75 50.1 96.35 50.3 95.85 50.9 95.35 51.5 95.3 52.1 95.3 52.6 95.5 53.3 96.3 53.55 97.1 53.6 99 53.75 101.6 53.25 102.95 53 103.6 52.85 104.8 52.5 105.6 52.2 106.9 51.65 107.45 50.85 106.85 49.8 106.05 49.4 105.35 49.05 105 48.95 104.9 49 104.75 49.1
M 97.35 51.4
L 97.35 51.35
Q 97.4 51.3 97.55 51.25 97.45 51.3 97.35 51.4 Z"/>

<path fill="#99CC00" stroke="none" d="
M 104.4 46.7
Q 104.35 46.75 104.35 46.8
L 104.4 46.75
Q 104.4 46.7 104.45 46.7 104.45 46.65 104.55 46.65
L 104.7 46.65
Q 105.1 46.6 105.25 46.6 105 46.5 104.75 46.6 104.5 46.65 104.45 46.65 104.4 46.65 104.4 46.7
M 100.15 47.05
L 100 47.15
Q 99.85 47.25 99.7 47.25 99.8 47.35 99.95 47.5 100.1 47.55 100.25 47.7 100.4 47.85 100.8 47.75 101.1 47.7 101.15 47.65 101.2 47.65 101.2 47.55 101.15 47.5 101.1 47.35 100.9 47.1 100.8 47 100.65 46.95 100.15 47.05
M 98.35 48.8
Q 98.55 48.3 98.6 48.1 98.65 48 98.65 47.9 98.4 48 98.05 48.55 97.95 48.65 97.85 48.75
L 97.85 48.8
Q 97.85 48.85 97.85 48.95 97.95 49.15 98.15 49.35 98.45 49.55 98.75 49.55 98.85 49.55 99.05 49.6 99.2 49.65 99.35 49.65 99.5 49.65 99.75 49.65 100 49.65 100.05 49.65 99.85 49.75 99.7 49.75
L 99.65 49.8 99.6 49.85 99.55 49.85
Q 99.4 49.9 99.3 49.95 99.25 49.95 99.2 49.95 98.85 50.1 98.65 50.15 98.55 50.15 98.35 50.2 98.15 50.2 98 50.2 98.25 50.3 98.4 50.35 98.55 50.4 98.7 50.4 98.9 50.4 99.35 50.2 99.8 50.1 100.1 50.05 100.45 50 100.9 49.75
L 100.95 49.7
Q 101 49.65 101.1 49.6
L 101.15 49.65 101.15 49.55
Q 101.35 49.55 101.55 49.75 101.75 49.9 101.85 50.1 101.85 50.15 101.85 50.3
L 101.85 50.45
Q 101.85 50.55 101.7 50.7 101.65 50.75 101.6 50.8 101.55 50.85 101.5 50.9
L 101.35 51 101.35 51.05 101.3 51.05
Q 101.25 51.1 101.25 51.15 101.25 51.25 101.3 51.55 101.35 51.4 101.5 51.25 101.75 51 101.9 50.85 102.4 50.3 102.25 49.95 102.25 49.9 102.2 49.8 102.1 49.75 101.8 49.6
L 101.85 49.6
Q 101.8 49.598828125 101.8 49.55
L 101.75 49.55 101.8 49.5
Q 103 49.55 103.65 49.7
L 103.85 49.75
Q 104 49.8 104.05 49.85 104.15 49.9 104.25 49.95 104.4 50 104.45 50 104.55 50.05 104.65 50.1 104.7 50.2 104.75 50.2 104.85 50.25 104.95 50.35
L 105 50.45
Q 105.05 50.45 105.1 50.5 105.15 50.55 105.2 50.55 105.9 51 106.2 51.35 106.3 51.45 106.4 51.5
L 106.35 51.45
Q 106.25 51.15 106.15 51.05 106.05 51 105.6 50.55 105.25 50.15 104.8 49.9 104.35 49.65 103.95 49.55 103.7 49.45 103.6 49.45 103.55 49.45 103.5 49.4
L 103.45 49.4
Q 102.865234375 49.2537109375 102.45 49.25 102.6375 49.246875 103.2 49.2
L 103.85 49.15
Q 104.35 49.05 104.7 48.95
L 104.75 48.95 104.8 48.9
Q 105.3693359375 48.6806640625 105.75 48.3 106.45 47.7 106.3 47.2 106.2 46.95 105.75 46.75 105.5 46.65 105.25 46.6 105.4 46.65 105.55 46.75 105.8 46.85 105.9 47.1 106.1 47.7 105.7 48.05 105.4 48.35 104.7 48.55 104.45 48.7 103.5 48.8 102.6 48.95 102.1 48.85 102 48.9 101.9 48.9 101.6 48.9 101.45 48.8 101.45 48.85 101.45 48.9 101.45 49.05 101.35 49.1
L 100.8 49.2 100.7 49.05 100.7 49
Q 99.7 49.4 99.05 49.4 98.95 49.35 98.9 49.35 98.15 49.25 98.35 48.8 Z"/>
</g>

<g id="S_mbolo_8_0_Layer1_1_MEMBER_0_MEMBER_9_FILL">
<path fill="#2880A4" stroke="none" d="
M 36.2 26.95
Q 36.05 27.3 36.05 27.45 36.05 27.65 36.3 27.9 36.8 28.45 38.05 29.45 38.35 29.7 38.6 29.85 38.85 30 39 30.15 39.05 30.15 39.1 30.2 39.7 30.6 39.9 30.6 40.05 30.6 40.2 30.55
L 40.2 30.25
Q 40.2 30.2 40.25 29.95
L 40.25 29.9
Q 40.3 29.6 40.35 29.15 40.45 28.6 40.45 28.1 40.2 28.25 39.65 28.25 39.35 28.25 39.1 28.25 38.2 28.15 37.6 27.85 37.15 27.6 36.25 26.95
L 36.2 26.95
M 49.9 39.7
Q 49.85 39.05 49.7 38.35 49.3 39.15 48.25 39.95 47.9 40.15 46.75 40.95 45.75 41.55 45.3 41.95 43.9 43.15 41.8 43.75 40.35 44.15 38.95 44.2 38.95 44.25 38.7 44.3 38.4 44.3 37.9 44.3 36.65 44.3 35.85 44.05 33.95 43.45 33.2 43.2 32.3 42.8 31.25 41.5 30.65 40.6 30.35 39.95 30.4 42.75 32.25 44.95 33.95 45.95 37.05 46.4 39.35 46.75 43.3 46.75 44.3 46.75 47.3 45.8
L 47.35 45.8
Q 50 43.2 49.9 39.7
M 43.25 33.45
Q 43.55 33.45 43.85 33.3
L 43.85 32.9
Q 43.55 32.45 42.65 32.05 42.2 31.85 41.45 31.5 41.4 31.55 41.35 31.6 41.65 32 41.95 32.3 42.75 33.45 43.25 33.45
M 39.5 31.85
Q 39.4 31.9 39.35 32 39 32.3 38.15 32.75 37.15 33.2 36.9 33.35 36.35 33.75 36.35 34.15 36.35 34.25 36.7 34.5 37.1 34.8 37.25 34.8 38.3 34.8 38.95 33.5 39.2 33 39.5 31.85
M 40.8 35.1
L 40.8 35.15 41.05 35.15 41.05 34.35
Q 40.8 34 40.45 33.3 40.6 34.75 40.7 35.1 40.75 35.1 40.8 35.1
M 41.6 27.45
L 41.6 27.25
Q 41.4 27.75 40.9 28.85 40.7 29.4 40.55 29.9 40.5 29.95 40.45 30 40.4 30.25 40.3 30.55 40.7 30.45 41.2 30.1 41.65 29.8 42.05 29.2 43.2 27.85 43.25 26.3 43.2 26.45 42.9 26.95 42.7 27.3 42.6 27.45
L 41.6 27.45 Z"/>

<path fill="#55AED5" stroke="none" d="
M 39 27.05
Q 38.95 26.65 38.85 26.4 38.7 26.5 38.45 26.6
L 38.4 26.6
Q 38.05 26.65 37.2 26.75 36.65 26.8 36.25 26.95 37.15 27.6 37.6 27.85 38.2 28.15 39.1 28.25 39.1 27.65 39 27.05 Z"/>

<path fill="#1A5066" stroke="none" d="
M 38.55 25.55
Q 38.55 25.6 38.55 25.7 38.55 25.85 38.4 26
L 38.4 26.6 38.45 26.6
Q 38.7 26.5 38.85 26.4 38.8 25.95 38.75 25.8
L 38.75 25.75
Q 38.65 25.65 38.55 25.55
M 47.15 46
Q 47.25 45.9 47.35 45.8
L 47.3 45.8
Q 44.3 46.75 43.3 46.75 39.35 46.75 37.05 46.4 33.95 45.95 32.25 44.95 32.65 45.5 33.2 46 36.05 48.6 40.2 48.6 44.25 48.6 47.15 46
M 41.75 26.9
Q 41.75 26.65 41.6 26.6 41.45 26.5 41.15 26.5 39.65 27.05 39.55 27.1 39.8 27.05 40.15 27.15 40.4 27.25 40.55 27.45 40.6 27.5 40.6 27.65 40.6 27.95 40.45 28.05
L 40.45 28.1
Q 40.45 28.6 40.35 29.15 40.3 29.6 40.25 29.9
L 40.25 29.95
Q 40.2 30.2 40.2 30.25
L 40.2 30.55 40.3 30.55
Q 40.4 30.25 40.45 30 40.5 29.95 40.55 29.9 40.7 29.4 40.9 28.85 41.4 27.75 41.6 27.25
L 41.6 27.1
Q 41.7 27.2 41.75 27.1 41.75 27.05 41.75 26.9 Z"/>

<path fill="#3399CC" stroke="none" d="
M 43.85 33.3
Q 43.55 33.45 43.25 33.45 42.75 33.45 41.95 32.3 41.65 32 41.35 31.6 41.25 31.6 41.2 31.65 40.8 31.8 40.2 31.85
L 40.15 31.85
Q 39.8 31.85 39.5 31.8 39.3 31.75 39.15 31.75 38.75 31.6 38.75 31.45 38.75 31.25 38.7 31.15
L 38.75 30.95
Q 37.35 31.75 34.3 33.65 30.45 36 30.35 39.65 30.35 39.8 30.35 39.95 30.65 40.6 31.25 41.5 32.3 42.8 33.2 43.2 33.95 43.45 35.85 44.05 36.65 44.3 37.9 44.3 38.4 44.3 38.7 44.3 38.95 44.25 38.95 44.2 40.35 44.15 41.8 43.75 43.9 43.15 45.3 41.95 45.75 41.55 46.75 40.95 47.9 40.15 48.25 39.95 49.3 39.15 49.7 38.35 48.75 35.5 44.65 32.7 42.85 31.45 41.6 30.9 41.65 31.05 41.6 31.25 41.6 31.35 41.45 31.5 42.2 31.85 42.65 32.05 43.55 32.45 43.85 32.9
L 43.85 33.3
M 40.8 35.15
L 40.8 35.1
Q 40.75 35.1 40.7 35.1 40.6 34.75 40.45 33.3 40.8 34 41.05 34.35
L 41.05 35.15 40.8 35.15
M 39.35 32
Q 39.4 31.9 39.5 31.85 39.2 33 38.95 33.5 38.3 34.8 37.25 34.8 37.1 34.8 36.7 34.5 36.35 34.25 36.35 34.15 36.35 33.75 36.9 33.35 37.15 33.2 38.15 32.75 39 32.3 39.35 32
M 40.35 33
L 40.4 33
Q 40.4 33.1 40.45 33.2 40.35 33.1 40.35 33
M 43.25 26
Q 43.2 26 43.05 25.95 42.95 25.85 42.85 25.85 42.6 25.85 42.3 26
L 42.2 26
Q 42.3 25.9 42.35 25.8 42.4 25.65 42.45 25.55
L 42.45 25.25
Q 42.1 25.25 41.2 25.15 40.05 25.15 39.8 25.15 39.2 25.25 38.55 25.55 38.65 25.65 38.75 25.75
L 38.75 25.8
Q 38.8 25.8 38.8 25.85 38.95 26 38.95 26.15 38.95 26.3 38.85 26.4 38.95 26.65 39 27.05 39.1 27.65 39.1 28.25 39.35 28.25 39.65 28.25 40.2 28.25 40.45 28.1
L 40.45 28.05
Q 40.55 27.7 40.55 27.45 40.4 27.25 40.15 27.15 39.8 27.05 39.55 27.1 39.65 27.05 41.15 26.5 41.45 26.5 41.6 26.6 41.75 26.65 41.75 26.9 41.75 27.05 41.75 27.1 41.7 27.2 41.6 27.1
L 41.6 27.25 41.6 27.45 42.6 27.45
Q 42.7 27.3 42.9 26.95 43.2 26.45 43.25 26.3 43.25 26.25 43.25 26.15
L 43.25 26 Z"/>

<path fill="#000000" stroke="none" d="
M 41.6 30.9
L 41.55 30.85
Q 41.45 31.05 41.1 31.25 40.75 31.45 40.3 31.5
L 40.2 31.5
Q 40.1 31.5 40.05 31.5 39.85 31.5 39.7 31.45 39.65 31.45 39.6 31.45 39.2 31.4 38.95 31.25 38.85 31.2 38.7 31.15 38.75 31.25 38.75 31.45 38.75 31.6 39.15 31.75 39.3 31.75 39.5 31.8 39.8 31.85 40.15 31.85
L 40.2 31.85
Q 40.8 31.8 41.2 31.65 41.25 31.6 41.35 31.6 41.4 31.55 41.45 31.5 41.6 31.35 41.6 31.25 41.65 31.05 41.6 30.9
M 41.6 30.6
L 41.6 30.55
Q 41.6 30.3 41.25 30.15 41.2 30.15 41.2 30.1 40.7 30.45 40.3 30.55
L 40.2 30.55
Q 40.05 30.6 39.9 30.6 39.7 30.6 39.1 30.2 38.95 30.45 39.1 30.65 39.15 30.65 39.15 30.7 39.35 30.85 39.9 30.85 40.05 30.85 40.15 30.85 40.6 30.9 41.05 30.85 41.25 30.85 41.35 30.8 41.55 30.75 41.6 30.6 Z"/>

<path fill="#333333" stroke="none" d="
M 41.6 30.65
L 41.6 30.6
Q 41.55 30.75 41.35 30.8 41.25 30.85 41.05 30.85 40.6 30.9 40.15 30.85 40.05 30.85 39.9 30.85 39.35 30.85 39.15 30.7 39.15 30.65 39.1 30.65 38.95 30.45 39.1 30.2 39.05 30.15 39 30.15 38.85 30.3 38.75 30.75 38.75 30.85 38.75 30.95
L 38.7 31.15
Q 38.85 31.2 38.95 31.25 39.2 31.4 39.6 31.45 39.65 31.45 39.7 31.45 39.85 31.5 40.05 31.5 40.1 31.5 40.2 31.5
L 40.3 31.5
Q 40.75 31.45 41.1 31.25 41.45 31.05 41.55 30.85 41.6 30.75 41.6 30.65 Z"/>
</g>

<g id="brgrgrefvws_0_Layer0_0_FILL">
<path fill="#DEB100" stroke="none" d="
M 38.2 12.05
L 38.4 5.3
Q 37.8 5.35 37.25 5.5 32.4 6.7 31.95 13.65
L 29.9 25.95
Q 16.75 42.65 1.5 31.6
L 0 31.6
Q 1.8 37.45 9.8 41.5 25.05 45.75 34.2 32.65 38.7 48.2 56.15 49.8 62.35 48.7 64.05 46.05 44.65 49.55 39.55 35.35 35.9 24.2 38.2 12.05
M 41.35 5.5
L 44.35 12.3 47.4 31.3
Q 61.05 31.7 61.25 17.7 61.7 14.15 59.35 15.25 53.05 22.75 46.75 23.55
L 46.75 13.9
Q 45.1 6.7 41.35 5.5 Z"/>

<path fill="#660000" stroke="none" d="
M 40.85 5.35
Q 41.1 5.4 41.35 5.5
L 40.85 0 38.45 0 37.25 5.5
Q 37.8 5.35 38.4 5.3 39.55 5.2 40.85 5.35 Z"/>

<path fill="#FFCC00" stroke="none" d="
M 44.35 12.3
L 41.35 5.5
Q 41.1 5.4 40.85 5.35 39.55 5.2 38.4 5.3
L 38.2 12.05
Q 35.9 24.2 39.55 35.35 44.65 49.55 64.05 46.05 64.85 44.85 64.7 43.35 52.45 49 47.4 31.3
L 44.35 12.3 Z"/>
</g>

<g id="sfgbfhnhkkjl_0_Layer0_0_FILL">
<path fill="#DEB100" stroke="none" d="
M 57.75 10.1
Q 55.35 5.5 48.7 6.8
L 36.5 7.8
Q 25.15 2.65 11.6 0 19.95 9.3 31.4 13.85 21.95 19.8 0 43.5 25.35 23.5 30.3 19.95 39.8 13.45 51.85 12.7
L 58.25 11.2
Q 58.05 10.6 57.75 10.1 Z"/>

<path fill="#FFCC00" stroke="none" d="
M 53.3 18.95
L 58.85 14.2
Q 58.9 13.95 58.9 13.65 58.7 12.35 58.25 11.2
L 51.85 12.7
Q 39.8 13.45 30.3 19.95 25.35 23.5 0 43.5 20.35 33.6 14.75 37.75 27.85 32.05 36.2 26.8
L 53.3 18.95 Z"/>

<path fill="#660000" stroke="none" d="
M 63.95 12.3
L 63.3 9.9 57.75 10.1
Q 58.05 10.6 58.25 11.2 58.7 12.35 58.9 13.65 58.9 13.95 58.85 14.2
L 63.95 12.3 Z"/>
</g>

<g id="Tweedsdsdsn_6_0_Layer0_0_FILL">
<path fill="#9F4F00" stroke="none" d="
M 3.6 0.6
L 3.35 0.85
Q 3.45 0.85 3.5 0.85
L 3.6 0.6 Z"/>

<path fill="#330000" stroke="none" d="
M 25.7 -2.3
Q 17.05 -3.15 6.5 -2.5
L 3.6 0.6 3.5 0.85
Q 4.7 1.05 6.15 1.2 7.3 1.3 8.65 1.3 8.95 1.3 9.4 1.3 11.1 1.3 12.75 1.15 15.9 1 18.9 0.4 19.2 0.3 19.55 0.25 23.1 -0.55 25.7 -2.3
M 16.05 -5.85
Q 12.5 -5.85 7.65 -5.35
L 6.5 -2.5
Q 17.2 -3.85 25.4 -4 26.4 -4 24.25 -4.8 21.45 -5.85 16.05 -5.85 Z"/>

<path fill="#663300" stroke="none" d="
M 25.7 -2.3
Q 26.05 -2.65 25.4 -4 17.2 -3.85 6.5 -2.5 17.05 -3.15 25.7 -2.3 Z"/>

<path fill="#000000" stroke="none" d="
M 7.65 -5.35
Q 7.5 -5.2 5.95 -4.8 3.5 -4.3 1.95 -3.6 0.45 -3 -0.25 -2.3 -0.35 -2.15 -0.4 -2
L 0.2 -2.1 -0.4 -2
Q -1.35 -0.75 1.2 0.25 2.15 0.6 3.35 0.85
L 3.6 0.6 3.95 -0.6 3.6 0.6 6.5 -2.5 7.65 -5.35 Z"/>
</g>

<g id="swfjkiliol_0_Layer0_0_FILL">
<path fill="#000000" stroke="none" d="
M 6.6 -0.85
Q 5.7 -1.25 4.45 -1.25 3.2 -1.25 2.3 -0.85 1.6 -0.55 1.45 -0.1
L 2.4 0.3 1.45 -0.1
Q 1.4 0.05 1.4 0.15 1.4 0.75 2.3 1.15 3.2 1.55 4.45 1.55 5.7 1.55 6.6 1.15 7.5 0.75 7.5 0.15 7.5 -0.45 6.6 -0.85 Z"/>

<path fill="#330000" stroke="none" d="
M 4.45 -1.25
Q 5.7 -1.25 6.6 -0.85 7.5 -0.45 7.5 0.15 7.5 0.75 6.6 1.15 5.7 1.55 4.45 1.55 3.2 1.55 2.3 1.15 1.4 0.75 1.4 0.15 1.4 0.05 1.45 -0.1
L 1.2 -0.2
Q 0.9 0.35 1.2 1.15 1.25 1.35 1.4 1.55 1.8 2.4 2.8 3.3 3.65 4.05 4.95 4.85 6.25 5.65 7.7 6.3 7.85 6.35 8 6.45 9.8 7.2 11.8 7.7 12.25 7.8 12.65 7.9 15.8 8.55 17.7 8 19.85 7.35 19.2 5.55 18.55 3.75 15.45 1.85 12.35 -0.1 8.6 -0.95 5.3 -1.8 3.25 -1.35
L 2.7 -1.25 2.35 -1.1
Q 1.45 -0.75 1.2 -0.2
L 1.45 -0.1
Q 1.6 -0.55 2.3 -0.85 3.2 -1.25 4.45 -1.25 Z"/>
</g>

<g id="Twehkjlkl_kl_en_10_0_Layer0_0_FILL">
<path fill="#CC6600" stroke="none" d="
M 1.2 -0.4
Q 1.05 -0.65 0.9 -0.9 0.1 -0.45 -0.9 -0.7 -1.75 -0.95 -2.25 -1.5 -3.15 -1.05 -3.3 -0.55
L -3.45 0.7 -1.65 0.7
Q -1.3416015625 0.6576171875 -1.05 0.7
L -0.3 0.7 -0.3 0.85
Q -0.2751953125 0.8908203125 -0.25 0.9 0.45 1.15 0.95 1.55 1.45 1.05 1.55 0.5 1.4 0 1.2 -0.4 Z"/>
</g>

<g id="Twehkjlkl_kl_en_10_0_Layer0_0_MEMBER_0_FILL">
<path fill="#CC6600" stroke="none" d="
M 63.9 284.75
Q 64.25 284.45 64.25 284.05 64.25 283.1 63.3 283.1 62.35 283.1 62.35 284.05
L 62.45 284.5
Q 62.65 285 63.3 285 63.6 285 63.9 284.75 Z"/>
</g>

<g id="ANT_0_Layer4_2_FILL">
<path fill="#CC6600" stroke="none" d="
M -12.75 -16.25
Q -13.25 -16.95 -14 -17.25 -14.4 -17.15 -14.8 -16.75 -15.25 -16.4 -15.25 -16.1
L -15.1 -15.35
Q -14.9 -15.15 -14.4 -14.9
L -14 -14.75
Q -12.75 -15.25 -12.75 -16.25 Z"/>
</g>

<g id="ANT_0_Layer4_3_FILL">
<path fill="#CC6600" stroke="none" d="
M -14.75 -15.25
Q -15.25 -15.95 -16 -16.25 -16.4 -16.15 -16.8 -15.75 -17.25 -15.4 -17.25 -15.1
L -17.1 -14.35
Q -16.9 -14.15 -16.4 -13.9
L -16 -13.75
Q -14.75 -14.25 -14.75 -15.25 Z"/>
</g>

<g id="ANT_0_Layer4_4_FILL">
<path fill="#CC6600" stroke="none" d="
M 18.25 -12.25
Q 17.8 -12.9 17 -13.25 16.45 -13.2 16.2 -13.1 15.75 -12.9 15.75 -12.1 15.75 -11.3 15.8 -11.25
L 15.8 -11.35
Q 16.25 -11 17 -10.75 17.55 -11 17.95 -11.5 18.25 -11.9 18.25 -12.25 Z"/>
</g>

<g id="ANT_0_Layer4_5_FILL">
<path fill="#CC6600" stroke="none" d="
M 18.75 -10.25
Q 18.3 -10.9 17.5 -11.25 16.95 -11.2 16.7 -11.1 16.25 -10.9 16.25 -10.1 16.25 -9.3 16.3 -9.25
L 16.3 -9.35
Q 16.75 -9 17.5 -8.75 18.05 -9 18.45 -9.5 18.75 -9.9 18.75 -10.25 Z"/>
</g>

<g id="ANT_0_Layer4_6_FILL">
<path fill="#CC6600" stroke="none" d="
M 78.5 -23
Q 77.3 -23.45 76.45 -23.1 75.75 -22.8 75.75 -22.1 75.75 -21.3 75.8 -21.25
L 75.8 -21.35
Q 76.05 -21.15 76.25 -20.9 76.45 -20.75 77.25 -20.75 78 -20.75 78.3 -20.9
L 78.55 -21.1 78.65 -21.1
Q 78.75 -21.25 78.75 -22.05 78.75 -22.8 78.65 -22.85 78.5 -22.9 78.5 -23 Z"/>
</g>

<g id="ANT_0_Layer4_7_FILL">
<path fill="#CC6600" stroke="none" d="
M 79.25 -21.8
Q 79.25 -21.35 80.5 -20.25 81 -20.35 81.55 -20.75
L 81.75 -21.85
Q 81.75 -22.25 81.5 -23 79.25 -23.5 79.25 -21.8 Z"/>
</g>

<g id="ANT_0_Layer4_8_FILL">
<path fill="#CC6600" stroke="none" d="
M 80.25 -22.75
Q 79.8 -23.4 79 -23.75 78.45 -23.7 78.2 -23.6 77.75 -23.4 77.75 -22.6 77.75 -21.8 77.8 -21.75
L 77.8 -21.85
Q 78.25 -21.5 79 -21.25 79.55 -21.5 79.95 -22 80.25 -22.4 80.25 -22.75 Z"/>
</g>

<g id="ANT_0_Layer4_9_FILL">
<path fill="#CC6600" stroke="none" d="
M 63.25 -14.25
Q 62.8 -14.9 62 -15.25 61.45 -15.2 61.2 -15.1 60.75 -14.9 60.75 -14.1 60.75 -13.3 60.8 -13.25
L 60.8 -13.35
Q 61.25 -13 62 -12.75 62.55 -13 62.95 -13.5 63.25 -13.9 63.25 -14.25 Z"/>
</g>

<g id="ANT_0_Layer4_10_FILL">
<path fill="#CC6600" stroke="none" d="
M 65.75 -14.25
Q 65.3 -14.9 64.5 -15.25 63.95 -15.2 63.7 -15.1 63.25 -14.9 63.25 -14.1 63.25 -13.3 63.3 -13.25
L 63.3 -13.35
Q 63.75 -13 64.5 -12.75 65.05 -13 65.45 -13.5 65.75 -13.9 65.75 -14.25 Z"/>
</g>

<g id="Twyk_____een_11_0_Layer0_0_FILL">
<path fill="#CC6600" stroke="none" d="
M -12.75 -16.25
Q -13.25 -16.95 -14 -17.25 -14.4 -17.15 -14.8 -16.75 -15.25 -16.4 -15.25 -16.1
L -15.1 -15.35
Q -14.9 -15.15 -14.4 -14.9
L -14 -14.75
Q -12.75 -15.25 -12.75 -16.25 Z"/>
</g>

<g id="Twyk_____een_11_0_Layer0_1_FILL">
<path fill="#CC6600" stroke="none" d="
M -14.75 -15.25
Q -15.25 -15.95 -16 -16.25 -16.4 -16.15 -16.8 -15.75 -17.25 -15.4 -17.25 -15.1
L -17.1 -14.35
Q -16.9 -14.15 -16.4 -13.9
L -16 -13.75
Q -14.75 -14.25 -14.75 -15.25 Z"/>
</g>

<g id="S_mbolo_8_0_Layer1_1_MEMBER_0_MEMBER_16_FILL">
<path fill="#DEB100" stroke="none" d="
M 74.55 52.95
L 75.45 54.95 76.3 60.5
Q 80.3 60.6 80.35 56.55 80.55 55.5 79.85 55.8 78 58 76.15 58.25
L 76.15 55.4
Q 75.65 53.3 74.55 52.95
M 73.35 52.95
Q 71.95 53.3 71.8 55.35
L 71.2 58.95
Q 67.3 63.85 62.85 60.6
L 62.4 60.6
Q 62.95 62.35 65.25 63.5 69.8 64.75 72.45 60.9 73.75 65.45 78.9 65.95 80.7 65.6 81.2 64.85 75.5 65.9 74 61.7 72.95 58.45 73.6 54.85
L 73.7 52.9
Q 73.5 52.9 73.35 52.95 Z"/>

<path fill="#660000" stroke="none" d="
M 74.4 51.35
L 73.7 51.35 73.35 52.95
Q 73.5 52.9 73.7 52.9 74 52.85 74.4 52.9 74.5 52.9 74.55 52.95
L 74.4 51.35 Z"/>

<path fill="#FFCC00" stroke="none" d="
M 81.2 64.85
Q 81.45 64.5 81.4 64.05 77.8 65.7 76.3 60.5
L 75.45 54.95 74.55 52.95
Q 74.5 52.9 74.4 52.9 74 52.85 73.7 52.9
L 73.6 54.85
Q 72.95 58.45 74 61.7 75.5 65.9 81.2 64.85 Z"/>
</g>

<path id="Layer0_0_MEMBER_0_1_STROKES" stroke="#8CA8B8" stroke-width="1" stroke-linejoin="round" stroke-linecap="round" fill="none" d="
M 332.3 635.35
Q 336.4 635.35 339.3 638.3 342.25 641.2 342.25 645.3
L 342.25 726.9
Q 342.15 730.85 339.3 733.65 336.4 736.6 332.3 736.6
L 223.65 736.6
Q 219.55 736.6 216.65 733.65 213.85 730.85 213.75 726.9
L 213.75 645.3
Q 213.75 641.2 216.65 638.3 219.55 635.35 223.65 635.35
L 332.25 635.35"/>

<path id="Tweedsdsdsn_6_0_Layer0_0_1_STROKES" stroke="#000000" stroke-width="1" stroke-linejoin="round" stroke-linecap="round" fill="none" d="
M 18.9 0.4
L 19.75 2.65
M -0.4 -2
L 0.2 -2.1
M 12.75 1.15
L 13.5 4.4
M 6.15 1.2
L 5.55 3.4
M 8.65 1.3
L 8.25 3.9
M 3.5 0.85
L 3.6 0.6 3.95 -0.6"/>

<path id="antena_0_Layer1_0_1_STROKES" stroke="#000000" stroke-width="1" stroke-linejoin="round" stroke-linecap="round" fill="none" d="
M 11.5 1.4
Q 3.09375 1.2666015625 -2.85 1.75"/>

<path id="antena_0_Layer0_0_1_STROKES" stroke="#000000" stroke-width="1" stroke-linejoin="round" stroke-linecap="round" fill="none" d="
M 13.85 -0.2
Q 6.7927734375 -0.7619140625 2.15 -1.575"/>

<path id="swfjkiliol_0_Layer0_0_1_STROKES" stroke="#000000" stroke-width="1" stroke-linejoin="round" stroke-linecap="round" fill="none" d="
M 1.45 -0.1
Q 1.6 -0.55 2.3 -0.85 3.2 -1.25 4.45 -1.25 5.7 -1.25 6.6 -0.85 7.5 -0.45 7.5 0.15 7.5 0.75 6.6 1.15 5.7 1.55 4.45 1.55 3.2 1.55 2.3 1.15 1.4 0.75 1.4 0.15 1.4 0.05 1.45 -0.1
L 1.2 -0.2 -8.7 -4.2
M 12.65 7.9
L 14.45 10.75
M 2.8 3.3
L 1.45 5.5
M 8 6.45
L 7.95 9.5
M 4.95 4.85
L 4.95 7.5
M 1.45 -0.1
L 2.4 0.3
M 2.35 -1.1
L -4.825 -5.25"/>
</defs>

<g transform="matrix( 1, 0, 0, 1, -211.5,-632.95) ">
<use xlink:href="#Layer0_0_MEMBER_0_FILL"/>

<use xlink:href="#Layer0_0_MEMBER_0_1_STROKES"/>
</g>

<g filter="url(#Filter_1)" transform="matrix( 1, 0, 0, 1, 0,0) ">
<g transform="matrix( 1, 0, 0, 1, -4.25,8.7) ">
<mask id="Mask_Mask_1">
<g transform="matrix( 0.1974029541015625, 0, 0, 0.169891357421875, -65.7,-13.95) ">
<use xlink:href="#Mask_S_mbolo_8_0_1_MASK_0_FILL"/>
</g>
</mask>

<g mask="url(#Mask_Mask_1)">
<g transform="matrix( 0.1974029541015625, 0, 0, 0.169891357421875, -65.7,-13.95) ">
<use xlink:href="#S_mbolo_8_0_Layer1_0_FILL"/>
</g>

<g transform="matrix( 1, 0, 0, 1, 0,0) ">
<use xlink:href="#S_mbolo_8_0_Layer1_1_FILL"/>
</g>

<g transform="matrix( 1, 0, 0, 1, 0,0) ">
<use xlink:href="#S_mbolo_8_0_Layer1_1_MEMBER_0_MEMBER_0_FILL"/>
</g>

<g transform="matrix( 1, 0, 0, 1, 0,0) ">
<use xlink:href="#S_mbolo_8_0_Layer1_1_MEMBER_0_MEMBER_1_FILL"/>
</g>

<g transform="matrix( 1, 0, 0, 1, 0,0) ">
<use xlink:href="#S_mbolo_8_0_Layer1_1_MEMBER_0_MEMBER_2_FILL"/>
</g>

<g transform="matrix( 1, 0, 0, 1, 0,0) ">
<use xlink:href="#S_mbolo_8_0_Layer1_1_MEMBER_0_MEMBER_3_FILL"/>
</g>

<g transform="matrix( 1, 0, 0, 1, 0,0) ">
<use xlink:href="#S_mbolo_8_0_Layer1_1_MEMBER_0_MEMBER_4_FILL"/>
</g>

<g transform="matrix( 1, 0, 0, 1, 0,0) ">
<use xlink:href="#S_mbolo_8_0_Layer1_1_MEMBER_0_MEMBER_5_FILL"/>
</g>

<g transform="matrix( 0.201751708984375, 0, 0, 0.201751708984375, 97.1,37) ">
<g transform="matrix( 1, 0, 0, 1, 0.1,-2.35) ">
<g transform="matrix( 1, 0, 0, 1, 0,0) ">
<use xlink:href="#Tween______0_Layer0_0_FILL"/>
</g>
</g>

<g transform="matrix( 1, 0, 0, 1, 74.95,26.7) ">
<g transform="matrix( 1, 0, 0, 1, 0,0) ">
<use xlink:href="#Tween______0_Layer0_0_FILL"/>
</g>
</g>
</g>

<g transform="matrix( 1, 0, 0, 1, 0,0) ">
<use xlink:href="#S_mbolo_8_0_Layer1_1_MEMBER_0_MEMBER_7_FILL"/>
</g>

<g transform="matrix( 1, 0, 0, 1, 0,0) ">
<use xlink:href="#S_mbolo_8_0_Layer1_1_MEMBER_0_MEMBER_8_MEMBER_0_MEMBER_0_FILL"/>
</g>

<g transform="matrix( 1, 0, 0, 1, 0,0) ">
<use xlink:href="#S_mbolo_8_0_Layer1_1_MEMBER_0_MEMBER_9_FILL"/>
</g>

<g transform="matrix( 0.201751708984375, 0, 0, 0.201751708984375, 48.3,43.3) ">
<g transform="matrix( 1, 0, 0, 1, 0.1,-2.35) ">
<g transform="matrix( 1, 0, 0, 1, 0,0) ">
<use xlink:href="#Tween______0_Layer0_0_FILL"/>
</g>
</g>

<g transform="matrix( 1, 0, 0, 1, 74.95,26.7) ">
<g transform="matrix( 1, 0, 0, 1, 0,0) ">
<use xlink:href="#Tween______0_Layer0_0_FILL"/>
</g>
</g>
</g>

<g transform="matrix( 0.293487548828125, 0, 0, 0.293487548828125, 25.1,56.45) ">
<g transform="matrix( 1, 0, 0, 1, 0,0) ">
<use filter="url(#Filter_2)" xlink:href="#brgrgrefvws_0_Layer0_0_FILL"/>
</g>
</g>

<g transform="matrix( 0.293487548828125, 0, 0, 0.293487548828125, 46.9,57.75) ">
<g transform="matrix( 1, 0, 0, 1, 0,0) ">
<use filter="url(#Filter_3)" xlink:href="#sfgbfhnhkkjl_0_Layer0_0_FILL"/>
</g>
</g>

<g transform="matrix( -0.346099853515625, 0, 0, 0.346099853515625, 27.25,58.75) ">
<g transform="matrix( 1, 0, 0, 1, 0,0) ">
<g transform="matrix( 1, 0, 0, 1, 0,0) ">
<use xlink:href="#Tweedsdsdsn_6_0_Layer0_0_FILL"/>

<use xlink:href="#Tweedsdsdsn_6_0_Layer0_0_1_STROKES"/>
</g>

<g transform="matrix( 1, 0, 0, 1, -11.9,-2.65) ">
<g transform="matrix( 1, 0, 0, 1, 0,0) ">
<use xlink:href="#antena_0_Layer1_0_1_STROKES"/>
</g>

<g transform="matrix( 1, 0, 0, 1, 0,0) ">
<use xlink:href="#antena_0_Layer0_0_1_STROKES"/>
</g>
</g>
</g>
</g>

<g transform="matrix( -0.346099853515625, 0, 0, 0.346099853515625, 94.3,69.35) ">
<g transform="matrix( 1, 0, 0, 1, -0.35,-2.65) ">
<g transform="matrix( 1, 0, 0, 1, 0,0) ">
<use xlink:href="#swfjkiliol_0_Layer0_0_FILL"/>

<use xlink:href="#swfjkiliol_0_Layer0_0_1_STROKES"/>
</g>
</g>
</g>

<g transform="matrix( -0.346099853515625, 0, 0, 0.346099853515625, 64.2,71.3) ">
<g transform="matrix( 1, 0, 0, 1, -74,-26.5) ">
<g transform="matrix( 1, 0, 0, 1, 0,0) ">
<use filter="url(#Filter_4)" xlink:href="#Twehkjlkl_kl_en_10_0_Layer0_0_FILL"/>
</g>

<g transform="matrix( 0.9659271240234375, 0.2588043212890625, -0.2588043212890625, 0.9659271240234375, 14.85,-290.5) ">
<use filter="url(#Filter_4)" xlink:href="#Twehkjlkl_kl_en_10_0_Layer0_0_MEMBER_0_FILL"/>
</g>
</g>

<g transform="matrix( 1, 0, 0, 1, -26.5,-18.75) ">
<g transform="matrix( 1, 0, 0, 1, 0,0) ">
<use filter="url(#Filter_4)" xlink:href="#Twehkjlkl_kl_en_10_0_Layer0_0_FILL"/>
</g>

<g transform="matrix( 0.9659271240234375, 0.2588043212890625, -0.2588043212890625, 0.9659271240234375, 14.85,-290.5) ">
<use filter="url(#Filter_4)" xlink:href="#Twehkjlkl_kl_en_10_0_Layer0_0_MEMBER_0_FILL"/>
</g>
</g>

<g transform="matrix( 1, 0, 0, 1, -21,-15.7) ">
<g transform="matrix( 1, 0, 0, 1, 0,0) ">
<use filter="url(#Filter_4)" xlink:href="#Twehkjlkl_kl_en_10_0_Layer0_0_FILL"/>
</g>

<g transform="matrix( 0.9659271240234375, 0.2588043212890625, -0.2588043212890625, 0.9659271240234375, 14.85,-290.5) ">
<use filter="url(#Filter_4)" xlink:href="#Twehkjlkl_kl_en_10_0_Layer0_0_MEMBER_0_FILL"/>
</g>
</g>

<g transform="matrix( 1, 0, 0, 1, -0.95,2) ">
<use filter="url(#Filter_4)" xlink:href="#ANT_0_Layer4_2_FILL"/>
</g>

<g transform="matrix( 1, 0, 0, 1, -0.95,2) ">
<use filter="url(#Filter_4)" xlink:href="#ANT_0_Layer4_3_FILL"/>
</g>

<g transform="matrix( 1, 0, 0, 1, -0.95,2) ">
<use filter="url(#Filter_4)" xlink:href="#ANT_0_Layer4_4_FILL"/>
</g>

<g transform="matrix( 1, 0, 0, 1, -0.95,2) ">
<use filter="url(#Filter_4)" xlink:href="#ANT_0_Layer4_5_FILL"/>
</g>

<g transform="matrix( 1, 0, 0, 1, -0.95,2) ">
<use filter="url(#Filter_4)" xlink:href="#ANT_0_Layer4_6_FILL"/>
</g>

<g transform="matrix( 1, 0, 0, 1, -0.95,2) ">
<use filter="url(#Filter_4)" xlink:href="#ANT_0_Layer4_7_FILL"/>
</g>

<g transform="matrix( 1, 0, 0, 1, -0.95,2) ">
<use filter="url(#Filter_4)" xlink:href="#ANT_0_Layer4_8_FILL"/>
</g>

<g transform="matrix( 1, 0, 0, 1, -0.95,2) ">
<use filter="url(#Filter_4)" xlink:href="#ANT_0_Layer4_9_FILL"/>
</g>

<g transform="matrix( 1, 0, 0, 1, -0.95,2) ">
<use filter="url(#Filter_4)" xlink:href="#ANT_0_Layer4_10_FILL"/>
</g>

<g transform="matrix( 1, 0, 0, 1, -30.05,-35.75) ">
<g transform="matrix( 1, 0, 0, 1, 0,0) ">
<use filter="url(#Filter_4)" xlink:href="#Twehkjlkl_kl_en_10_0_Layer0_0_FILL"/>
</g>

<g transform="matrix( 0.9659271240234375, 0.2588043212890625, -0.2588043212890625, 0.9659271240234375, 14.85,-290.5) ">
<use filter="url(#Filter_4)" xlink:href="#Twehkjlkl_kl_en_10_0_Layer0_0_MEMBER_0_FILL"/>
</g>
</g>

<g transform="matrix( 1, 0, 0, 1, -9.05,-14.5) ">
<g transform="matrix( 1, 0, 0, 1, 15,15.5) ">
<use filter="url(#Filter_4)" xlink:href="#Twyk_____een_11_0_Layer0_0_FILL"/>
</g>

<g transform="matrix( 1, 0, 0, 1, 15,15.5) ">
<use filter="url(#Filter_4)" xlink:href="#Twyk_____een_11_0_Layer0_1_FILL"/>
</g>
</g>
</g>

<g transform="matrix( 1, 0, 0, 1, 0,0) ">
<use xlink:href="#S_mbolo_8_0_Layer1_1_MEMBER_0_MEMBER_16_FILL"/>
</g>
</g>
</g>
</g>
</svg>
