
<svg xmlns="http://www.w3.org/2000/svg" version="1.1" xmlns:xlink="http://www.w3.org/1999/xlink" preserveAspectRatio="none" x="0px" y="0px" width="129px" height="102px" viewBox="0 0 129 102">
<defs>
<g id="Layer0_0_FILL">
<path fill="#99CC00" stroke="none" d="
M 128.75 10.35
Q 128.75 6.25 125.8 3.35 122.9 0.4 118.8 0.4
L 118.75 0.4 10.15 0.4
Q 6.05 0.4 3.15 3.35 0.25 6.25 0.25 10.35
L 0.25 91.95
Q 0.35 95.9 3.15 98.7 6.05 101.65 10.15 101.65
L 118.8 101.65
Q 122.9 101.65 125.8 98.7 128.65 95.9 128.75 91.95
L 128.75 10.35
M 96.2 36.7
Q 97.05 35.8 98.4 35.8 99.85 35.8 100.6 36.65 101.4 37.55 101.4 39.05 101.4 40.55 100.6 41.45 99.8 42.3 98.4 42.3 96.95 42.3 96.2 41.45 95.4 40.55 95.4 39.05 95.4 37.6 96.2 36.7
M 81.35 35.8
Q 82.6 35.8 83.25 36.5 83.55 36.2 84 36 84.5 35.8 85 35.8 86.05 35.8 86.65 36.4 87.2 37 87.2 38.05
L 87.2 42.2 85.75 42.2 85.75 38.25
Q 85.75 37.05 84.65 37.05 84.3 37.05 84 37.25 83.7 37.4 83.6 37.65
L 83.6 42.2 82.1 42.2 82.1 38.05
Q 82.1 37.6 81.85 37.3 81.55 37.05 81.05 37.05 80.75 37.05 80.45 37.25 80.1 37.45 79.95 37.7
L 79.95 42.2 78.5 42.2 78.5 35.9 79.5 35.9 79.8 36.5
Q 80.4 35.8 81.35 35.8
M 88.65 35.9
L 90.15 35.9 90.15 36.35
Q 90.7 35.8 91.5 35.8 94.5 35.8 94.5 39.1 94.5 40.65 93.65 41.5 92.85 42.3 91.4 42.3 90.7 42.3 90.15 42.05
L 90.15 44.65 88.65 44.65 88.65 35.9
M 114.05 35.8
Q 115.4 35.8 116.25 36.6 117.05 37.45 117.05 38.7 117.05 38.95 116.95 39.5
L 112.45 39.5
Q 112.5 40.25 113 40.7 113.45 41.1 114.25 41.1 115.25 41.1 115.8 40.55
L 116.35 41.7
Q 115.55 42.3 114.05 42.3 112.6 42.3 111.75 41.5 110.95 40.65 110.95 39.15 110.95 37.65 111.85 36.75 112.75 35.8 114.05 35.8
M 102.8 36.25
Q 103.4 35.8 104.4 35.8 105.35 35.8 106.25 36.25
L 105.8 37.4
Q 105.35 36.95 104.45 36.95 103.7 36.95 103.7 37.6 103.7 37.8 103.95 38 104.2 38.2 105.05 38.55 105.85 38.85 106.2 39.3 106.6 39.8 106.6 40.45 106.6 41.3 105.95 41.8 105.3 42.3 104.2 42.3 103.55 42.3 103.2 42.2 102.8 42.1 102.2 41.8
L 102.75 40.65
Q 103.4 41.15 104.2 41.15 105.05 41.15 105.05 40.55 105.05 40.2 104.8 39.95 104.55 39.75 103.8 39.4 102.2 38.75 102.2 37.55 102.2 36.7 102.8 36.25
M 108.65 52.4
Q 108.2 51.95 107.3 51.95 106.55 51.95 106.55 52.6 106.55 52.8 106.8 53 107.05 53.2 107.9 53.55 108.7 53.85 109.05 54.3 109.45 54.8 109.45 55.45 109.45 56.3 108.8 56.8 108.15 57.3 107.05 57.3 106.4 57.3 106.05 57.2 105.65 57.1 105.05 56.8
L 105.6 55.65
Q 106.25 56.15 107.05 56.15 107.9 56.15 107.9 55.55 107.9 55.2 107.65 54.95 107.4 54.75 106.65 54.4 105.05 53.75 105.05 52.55 105.05 51.7 105.65 51.25 106.25 50.8 107.25 50.8 108.2 50.8 109.1 51.25
L 108.65 52.4
M 103.45 51.65
Q 104.25 52.55 104.25 54.05 104.25 55.55 103.45 56.45 102.65 57.3 101.25 57.3 99.8 57.3 99.05 56.45 98.25 55.55 98.25 54.05 98.25 52.6 99.05 51.7 99.9 50.8 101.25 50.8 102.7 50.8 103.45 51.65
M 93.5 54.3
Q 93.9 54.8 93.9 55.45 93.9 56.3 93.25 56.8 92.6 57.3 91.5 57.3 90.85 57.3 90.5 57.2 90.1 57.1 89.5 56.8
L 90.05 55.65
Q 90.7 56.15 91.5 56.15 92.35 56.15 92.35 55.55 92.35 55.2 92.1 54.95 91.85 54.75 91.1 54.4 89.5 53.75 89.5 52.55 89.5 51.7 90.1 51.25 90.7 50.8 91.7 50.8 92.65 50.8 93.55 51.25
L 93.1 52.4
Q 92.65 51.95 91.75 51.95 91 51.95 91 52.6 91 52.8 91.25 53 91.5 53.2 92.35 53.55 93.15 53.85 93.5 54.3
M 87.9 51.65
Q 88.7 52.55 88.7 54.05 88.7 55.55 87.9 56.45 87.1 57.3 85.7 57.3 84.25 57.3 83.5 56.45 82.7 55.55 82.7 54.05 82.7 52.6 83.5 51.7 84.35 50.8 85.7 50.8 87.15 50.8 87.9 51.65
M 81.65 48.25
L 81.65 57.2 80.2 57.2 80.2 56.8
Q 80 57 79.55 57.15 79.15 57.3 78.65 57.3 77.35 57.3 76.6 56.5 75.85 55.65 75.85 54.15 75.85 52.7 76.7 51.75 77.6 50.8 78.9 50.8 79.6 50.8 80.2 51.1
L 80.2 48.6 81.65 48.25
M 57.3 35.8
Q 58.45 35.8 59.1 36.45 59.75 37.1 59.75 38.35
L 59.75 42.2 58.3 42.2 58.3 38.35
Q 58.3 37.75 57.95 37.4 57.6 37.05 57 37.05 56.65 37.05 56.25 37.25 55.9 37.45 55.75 37.7
L 55.75 42.2 54.25 42.2 54.25 33.6 55.75 33.25 55.75 36.3
Q 56.3 35.8 57.3 35.8
M 48.45 36.5
Q 49.05 35.8 50.25 35.8 51.35 35.8 52 36.5 52.65 37.15 52.65 38.35
L 52.65 42.2 51.2 42.2 51.2 38.55
Q 51.2 37.75 50.85 37.4 50.55 37.05 49.85 37.05 49.55 37.05 49.2 37.2 48.8 37.4 48.6 37.65
L 48.6 42.2 47.15 42.2 47.15 35.9 48.2 35.9 48.45 36.5
M 42.95 35.8
Q 44.3 35.8 45.15 36.6 45.95 37.45 45.95 38.7 45.95 38.95 45.85 39.5
L 41.35 39.5
Q 41.4 40.25 41.9 40.7 42.35 41.1 43.15 41.1 44.15 41.1 44.7 40.55
L 45.25 41.7
Q 44.45 42.3 42.95 42.3 41.5 42.3 40.65 41.5 39.85 40.65 39.85 39.15 39.85 37.65 40.75 36.75 41.65 35.8 42.95 35.8
M 71.6 33.6
L 73.05 33.25 73.05 40.3
Q 73.05 41.45 73.75 41.65 73.4 42.3 72.6 42.3 71.6 42.3 71.6 40.95
L 71.6 33.6
M 75.45 34.95
Q 75.2 34.7 75.2 34.35 75.2 34 75.45 33.75 75.7 33.5 76.05 33.5 76.4 33.5 76.65 33.75 76.9 34 76.9 34.35 76.9 34.7 76.65 34.95 76.4 35.2 76.05 35.2 75.7 35.2 75.45 34.95
M 74.5 35.9
L 76.75 35.9 76.75 42.2 75.3 42.2 75.3 37.15 74.5 37.15 74.5 35.9
M 61.6 36.15
Q 62.35 35.8 63.4 35.8 64.8 35.8 65.5 36.45 66.15 37.1 66.15 38.95
L 66.15 40.3
Q 66.15 41.55 66.65 41.85 66.45 42.15 66.25 42.25 66.05 42.3 65.75 42.3 65.45 42.3 65.15 42.1 64.9 41.85 64.85 41.55 64.65 41.9 64.15 42.1 63.65 42.3 63.1 42.3 62.1 42.3 61.5 41.8 60.95 41.3 60.95 40.35 60.95 39.3 61.75 38.65 62.55 38.05 64.05 38.05 64.35 38.05 64.7 38.15 64.7 37.05 63.3 37.05 62.45 37.05 61.9 37.3
L 61.6 36.15
M 73.7 48.5
Q 74.05 48.5 74.3 48.75 74.55 49 74.55 49.35 74.55 49.7 74.3 49.95 74.05 50.2 73.7 50.2 73.35 50.2 73.1 49.95 72.85 49.7 72.85 49.35 72.85 49 73.1 48.75 73.35 48.5 73.7 48.5
M 18.6 33.6
L 19.4 33.6 21.15 42.2 19.65 42.2 18.75 37.6 17.05 42.3 16.5 42.3 14.75 37.6 13.85 42.2 12.35 42.2 14.1 33.6 14.9 33.6 16.75 39.4 18.6 33.6
M 31.5 35.8
Q 32.6 35.8 33.25 36.5 33.9 37.15 33.9 38.35
L 33.9 42.2 32.45 42.2 32.45 38.55
Q 32.45 37.75 32.1 37.4 31.8 37.05 31.1 37.05 30.8 37.05 30.45 37.2 30.05 37.4 29.85 37.65
L 29.85 42.2 28.4 42.2 28.4 35.9 29.45 35.9 29.7 36.5
Q 30.3 35.8 31.5 35.8
M 35 37.1
L 35 35.9 35.7 35.9 35.7 34.65 37.2 34.1 37.2 35.9 38.9 35.9 38.9 37.1 37.2 37.1 37.2 39.85
Q 37.2 40.5 37.4 40.8 37.6 41.1 38.15 41.1 38.65 41.1 39.1 40.8
L 39.1 42.15
Q 38.6 42.3 37.65 42.3 36.7 42.3 36.2 41.8 35.7 41.25 35.7 40.3
L 35.7 37.1 35 37.1
M 22.25 36.15
Q 23 35.8 24.05 35.8 25.45 35.8 26.15 36.45 26.8 37.1 26.8 38.95
L 26.8 40.3
Q 26.8 41.55 27.3 41.85 27.1 42.15 26.9 42.25 26.7 42.3 26.4 42.3 26.1 42.3 25.8 42.1 25.55 41.85 25.5 41.55 25.3 41.9 24.8 42.1 24.3 42.3 23.75 42.3 22.75 42.3 22.15 41.8 21.6 41.3 21.6 40.35 21.6 39.3 22.4 38.65 23.2 38.05 24.7 38.05 25 38.05 25.35 38.15 25.35 37.05 23.95 37.05 23.1 37.05 22.55 37.3
L 22.25 36.15
M 24.75 48.6
L 26.2 48.25 26.2 57.2 24.75 57.2 24.75 56.8
Q 24.55 57 24.1 57.15 23.7 57.3 23.2 57.3 21.9 57.3 21.15 56.5 20.4 55.65 20.4 54.15 20.4 52.7 21.25 51.75 22.15 50.8 23.45 50.8 24.15 50.8 24.75 51.1
L 24.75 48.6
M 37.75 52.4
Q 37.3 51.95 36.4 51.95 35.65 51.95 35.65 52.6 35.65 52.8 35.9 53 36.15 53.2 37 53.55 37.8 53.85 38.15 54.3 38.55 54.8 38.55 55.45 38.55 56.3 37.9 56.8 37.25 57.3 36.15 57.3 35.5 57.3 35.15 57.2 34.75 57.1 34.15 56.8
L 34.7 55.65
Q 35.35 56.15 36.15 56.15 37 56.15 37 55.55 37 55.2 36.75 54.95 36.5 54.75 35.75 54.4 34.15 53.75 34.15 52.55 34.15 51.7 34.75 51.25 35.35 50.8 36.35 50.8 37.3 50.8 38.2 51.25
L 37.75 52.4
M 39.3 54.15
Q 39.3 52.65 40.2 51.75 41.1 50.8 42.4 50.8 43.75 50.8 44.6 51.6 45.4 52.45 45.4 53.7 45.4 53.95 45.3 54.5
L 40.8 54.5
Q 40.85 55.25 41.35 55.7 41.8 56.1 42.6 56.1 43.6 56.1 44.15 55.55
L 44.7 56.7
Q 43.9 57.3 42.4 57.3 40.95 57.3 40.1 56.5 39.3 55.65 39.3 54.15
M 33.35 53.7
Q 33.35 53.95 33.25 54.5
L 28.75 54.5
Q 28.8 55.25 29.3 55.7 29.75 56.1 30.55 56.1 31.55 56.1 32.1 55.55
L 32.65 56.7
Q 31.85 57.3 30.35 57.3 28.9 57.3 28.05 56.5 27.25 55.65 27.25 54.15 27.25 52.65 28.15 51.75 29.05 50.8 30.35 50.8 31.7 50.8 32.55 51.6 33.35 52.45 33.35 53.7
M 72.95 52.15
L 72.15 52.15 72.15 50.9 74.4 50.9 74.4 57.2 72.95 57.2 72.95 52.15
M 66.9 51.35
Q 67.45 50.8 68.25 50.8 71.25 50.8 71.25 54.1 71.25 55.65 70.4 56.5 69.6 57.3 68.15 57.3 67.45 57.3 66.9 57.05
L 66.9 59.65 65.4 59.65 65.4 50.9 66.9 50.9 66.9 51.35
M 62.5 55.25
L 62.5 50.9 63.95 50.9 63.95 57.2 62.5 57.2 62.5 56.7
Q 62.15 56.95 61.65 57.15 61.1 57.3 60.65 57.3 58.45 57.3 58.45 55
L 58.45 50.9 59.9 50.9 59.9 54.9
Q 59.9 56.1 61 56.1 61.5 56.1 61.9 55.85 62.35 55.6 62.5 55.25
M 67.6 66.7
Q 68.45 65.8 69.8 65.8 71.25 65.8 72 66.65 72.8 67.55 72.8 69.05 72.8 70.55 72 71.45 71.2 72.3 69.8 72.3 68.35 72.3 67.6 71.45 66.8 70.55 66.8 69.05 66.8 67.6 67.6 66.7
M 63.9 63.6
L 65.35 63.25 65.35 70.3
Q 65.35 71.45 66.05 71.65 65.7 72.3 64.9 72.3 63.9 72.3 63.9 70.95
L 63.9 63.6
M 62.15 72.25
Q 61.95 72.3 61.65 72.3 61.35 72.3 61.05 72.1 60.8 71.85 60.75 71.55 60.55 71.9 60.05 72.1 59.55 72.3 59 72.3 58 72.3 57.4 71.8 56.85 71.3 56.85 70.35 56.85 69.3 57.65 68.65 58.45 68.05 59.95 68.05 60.25 68.05 60.6 68.15 60.6 67.05 59.2 67.05 58.35 67.05 57.8 67.3
L 57.5 66.15
Q 58.25 65.8 59.3 65.8 60.7 65.8 61.4 66.45 62.05 67.1 62.05 68.95
L 62.05 70.3
Q 62.05 71.55 62.55 71.85 62.35 72.15 62.15 72.25
M 77.65 66.25
L 77.2 67.4
Q 76.75 66.95 75.85 66.95 75.1 66.95 75.1 67.6 75.1 67.8 75.35 68 75.6 68.2 76.45 68.55 77.25 68.85 77.6 69.3 78 69.8 78 70.45 78 71.3 77.35 71.8 76.7 72.3 75.6 72.3 74.95 72.3 74.6 72.2 74.2 72.1 73.6 71.8
L 74.15 70.65
Q 74.8 71.15 75.6 71.15 76.45 71.15 76.45 70.55 76.45 70.2 76.2 69.95 75.95 69.75 75.2 69.4 73.6 68.75 73.6 67.55 73.6 66.7 74.2 66.25 74.8 65.8 75.8 65.8 76.75 65.8 77.65 66.25
M 57.1 50.9
L 57.1 52.1 55.4 52.1 55.4 54.85
Q 55.4 55.5 55.6 55.8 55.8 56.1 56.35 56.1 56.85 56.1 57.3 55.8
L 57.3 57.15
Q 56.8 57.3 55.85 57.3 54.9 57.3 54.4 56.8 53.9 56.25 53.9 55.3
L 53.9 52.1 53.2 52.1 53.2 50.9 53.9 50.9 53.9 49.65 55.4 49.1 55.4 50.9 57.1 50.9
M 51.45 51.5
Q 52.1 52.15 52.1 53.35
L 52.1 57.2 50.65 57.2 50.65 53.55
Q 50.65 52.75 50.3 52.4 50 52.05 49.3 52.05 49 52.05 48.65 52.2 48.25 52.4 48.05 52.65
L 48.05 57.2 46.6 57.2 46.6 50.9 47.65 50.9 47.9 51.5
Q 48.5 50.8 49.7 50.8 50.8 50.8 51.45 51.5
M 56.35 66.05
L 55.7 67.3
Q 55.35 67.05 54.85 67.05 54.35 67.05 53.95 67.5 53.55 67.95 53.55 68.65
L 53.55 72.2 52.1 72.2 52.1 65.9 53.55 65.9 53.55 66.5
Q 54.15 65.8 55.2 65.8 55.95 65.8 56.35 66.05
M 60.6 69.25
Q 60.2 69.15 60.05 69.15 58.3 69.15 58.3 70.3 58.3 71.15 59.25 71.15 60.6 71.15 60.6 69.85
L 60.6 69.25
M 69.8 67
Q 69.1 67 68.7 67.55 68.3 68.1 68.3 69.05 68.3 71.1 69.8 71.1 70.5 71.1 70.9 70.6 71.3 70.05 71.3 69.05 71.3 67 69.8 67
M 69.3 55.6
Q 69.7 55.1 69.7 54.05 69.7 52.95 69.3 52.5 68.85 52.05 67.85 52.05 67.3 52.05 66.9 52.45
L 66.9 55.75
Q 67.3 56.1 67.8 56.1 68.85 56.1 69.3 55.6
M 30.35 52.05
Q 29.1 52.05 28.8 53.4
L 31.9 53.4
Q 31.75 52.05 30.35 52.05
M 40.85 53.4
L 43.95 53.4
Q 43.8 52.05 42.4 52.05 41.15 52.05 40.85 53.4
M 22.4 52.6
Q 21.9 53.1 21.9 54.1 21.9 56.1 23.8 56.1 24 56.1 24.35 55.95 24.65 55.85 24.75 55.7
L 24.75 52.4
Q 24.25 52.05 23.75 52.05 22.85 52.05 22.4 52.6
M 25.35 39.85
L 25.35 39.25
Q 24.95 39.15 24.8 39.15 23.05 39.15 23.05 40.3 23.05 41.15 24 41.15 25.35 41.15 25.35 39.85
M 64.7 39.25
Q 64.3 39.15 64.15 39.15 62.4 39.15 62.4 40.3 62.4 41.15 63.35 41.15 64.7 41.15 64.7 39.85
L 64.7 39.25
M 41.4 38.4
L 44.5 38.4
Q 44.35 37.05 42.95 37.05 41.7 37.05 41.4 38.4
M 80.2 52.4
Q 79.7 52.05 79.2 52.05 78.3 52.05 77.85 52.6 77.35 53.1 77.35 54.1 77.35 56.1 79.25 56.1 79.45 56.1 79.8 55.95 80.1 55.85 80.2 55.7
L 80.2 52.4
M 86.8 55.6
Q 87.2 55.05 87.2 54.05 87.2 52 85.7 52 85 52 84.6 52.55 84.2 53.1 84.2 54.05 84.2 56.1 85.7 56.1 86.4 56.1 86.8 55.6
M 102.35 55.6
Q 102.75 55.05 102.75 54.05 102.75 52 101.25 52 100.55 52 100.15 52.55 99.75 53.1 99.75 54.05 99.75 56.1 101.25 56.1 101.95 56.1 102.35 55.6
M 112.5 38.4
L 115.6 38.4
Q 115.45 37.05 114.05 37.05 112.8 37.05 112.5 38.4
M 90.15 40.75
Q 90.55 41.1 91.05 41.1 92.1 41.1 92.55 40.6 92.95 40.1 92.95 39.05 92.95 37.95 92.55 37.5 92.1 37.05 91.1 37.05 90.55 37.05 90.15 37.45
L 90.15 40.75
M 97.3 37.55
Q 96.9 38.1 96.9 39.05 96.9 41.1 98.4 41.1 99.1 41.1 99.5 40.6 99.9 40.05 99.9 39.05 99.9 37 98.4 37 97.7 37 97.3 37.55 Z"/>

<path fill="#000000" stroke="none" d="
M 55.7 67.3
L 56.35 66.05
Q 55.95 65.8 55.2 65.8 54.15 65.8 53.55 66.5
L 53.55 65.9 52.1 65.9 52.1 72.2 53.55 72.2 53.55 68.65
Q 53.55 67.95 53.95 67.5 54.35 67.05 54.85 67.05 55.35 67.05 55.7 67.3
M 52.1 53.35
Q 52.1 52.15 51.45 51.5 50.8 50.8 49.7 50.8 48.5 50.8 47.9 51.5
L 47.65 50.9 46.6 50.9 46.6 57.2 48.05 57.2 48.05 52.65
Q 48.25 52.4 48.65 52.2 49 52.05 49.3 52.05 50 52.05 50.3 52.4 50.65 52.75 50.65 53.55
L 50.65 57.2 52.1 57.2 52.1 53.35
M 57.1 52.1
L 57.1 50.9 55.4 50.9 55.4 49.1 53.9 49.65 53.9 50.9 53.2 50.9 53.2 52.1 53.9 52.1 53.9 55.3
Q 53.9 56.25 54.4 56.8 54.9 57.3 55.85 57.3 56.8 57.3 57.3 57.15
L 57.3 55.8
Q 56.85 56.1 56.35 56.1 55.8 56.1 55.6 55.8 55.4 55.5 55.4 54.85
L 55.4 52.1 57.1 52.1
M 77.2 67.4
L 77.65 66.25
Q 76.75 65.8 75.8 65.8 74.8 65.8 74.2 66.25 73.6 66.7 73.6 67.55 73.6 68.75 75.2 69.4 75.95 69.75 76.2 69.95 76.45 70.2 76.45 70.55 76.45 71.15 75.6 71.15 74.8 71.15 74.15 70.65
L 73.6 71.8
Q 74.2 72.1 74.6 72.2 74.95 72.3 75.6 72.3 76.7 72.3 77.35 71.8 78 71.3 78 70.45 78 69.8 77.6 69.3 77.25 68.85 76.45 68.55 75.6 68.2 75.35 68 75.1 67.8 75.1 67.6 75.1 66.95 75.85 66.95 76.75 66.95 77.2 67.4
M 61.65 72.3
Q 61.95 72.3 62.15 72.25 62.35 72.15 62.55 71.85 62.05 71.55 62.05 70.3
L 62.05 68.95
Q 62.05 67.1 61.4 66.45 60.7 65.8 59.3 65.8 58.25 65.8 57.5 66.15
L 57.8 67.3
Q 58.35 67.05 59.2 67.05 60.6 67.05 60.6 68.15 60.25 68.05 59.95 68.05 58.45 68.05 57.65 68.65 56.85 69.3 56.85 70.35 56.85 71.3 57.4 71.8 58 72.3 59 72.3 59.55 72.3 60.05 72.1 60.55 71.9 60.75 71.55 60.8 71.85 61.05 72.1 61.35 72.3 61.65 72.3
M 60.05 69.15
Q 60.2 69.15 60.6 69.25
L 60.6 69.85
Q 60.6 71.15 59.25 71.15 58.3 71.15 58.3 70.3 58.3 69.15 60.05 69.15
M 65.35 63.25
L 63.9 63.6 63.9 70.95
Q 63.9 72.3 64.9 72.3 65.7 72.3 66.05 71.65 65.35 71.45 65.35 70.3
L 65.35 63.25
M 69.8 65.8
Q 68.45 65.8 67.6 66.7 66.8 67.6 66.8 69.05 66.8 70.55 67.6 71.45 68.35 72.3 69.8 72.3 71.2 72.3 72 71.45 72.8 70.55 72.8 69.05 72.8 67.55 72 66.65 71.25 65.8 69.8 65.8
M 68.7 67.55
Q 69.1 67 69.8 67 71.3 67 71.3 69.05 71.3 70.05 70.9 70.6 70.5 71.1 69.8 71.1 68.3 71.1 68.3 69.05 68.3 68.1 68.7 67.55
M 62.5 50.9
L 62.5 55.25
Q 62.35 55.6 61.9 55.85 61.5 56.1 61 56.1 59.9 56.1 59.9 54.9
L 59.9 50.9 58.45 50.9 58.45 55
Q 58.45 57.3 60.65 57.3 61.1 57.3 61.65 57.15 62.15 56.95 62.5 56.7
L 62.5 57.2 63.95 57.2 63.95 50.9 62.5 50.9
M 68.25 50.8
Q 67.45 50.8 66.9 51.35
L 66.9 50.9 65.4 50.9 65.4 59.65 66.9 59.65 66.9 57.05
Q 67.45 57.3 68.15 57.3 69.6 57.3 70.4 56.5 71.25 55.65 71.25 54.1 71.25 50.8 68.25 50.8
M 69.7 54.05
Q 69.7 55.1 69.3 55.6 68.85 56.1 67.8 56.1 67.3 56.1 66.9 55.75
L 66.9 52.45
Q 67.3 52.05 67.85 52.05 68.85 52.05 69.3 52.5 69.7 52.95 69.7 54.05
M 72.15 52.15
L 72.95 52.15 72.95 57.2 74.4 57.2 74.4 50.9 72.15 50.9 72.15 52.15
M 33.25 54.5
Q 33.35 53.95 33.35 53.7 33.35 52.45 32.55 51.6 31.7 50.8 30.35 50.8 29.05 50.8 28.15 51.75 27.25 52.65 27.25 54.15 27.25 55.65 28.05 56.5 28.9 57.3 30.35 57.3 31.85 57.3 32.65 56.7
L 32.1 55.55
Q 31.55 56.1 30.55 56.1 29.75 56.1 29.3 55.7 28.8 55.25 28.75 54.5
L 33.25 54.5
M 28.8 53.4
Q 29.1 52.05 30.35 52.05 31.75 52.05 31.9 53.4
L 28.8 53.4
M 40.2 51.75
Q 39.3 52.65 39.3 54.15 39.3 55.65 40.1 56.5 40.95 57.3 42.4 57.3 43.9 57.3 44.7 56.7
L 44.15 55.55
Q 43.6 56.1 42.6 56.1 41.8 56.1 41.35 55.7 40.85 55.25 40.8 54.5
L 45.3 54.5
Q 45.4 53.95 45.4 53.7 45.4 52.45 44.6 51.6 43.75 50.8 42.4 50.8 41.1 50.8 40.2 51.75
M 43.95 53.4
L 40.85 53.4
Q 41.15 52.05 42.4 52.05 43.8 52.05 43.95 53.4
M 36.4 51.95
Q 37.3 51.95 37.75 52.4
L 38.2 51.25
Q 37.3 50.8 36.35 50.8 35.35 50.8 34.75 51.25 34.15 51.7 34.15 52.55 34.15 53.75 35.75 54.4 36.5 54.75 36.75 54.95 37 55.2 37 55.55 37 56.15 36.15 56.15 35.35 56.15 34.7 55.65
L 34.15 56.8
Q 34.75 57.1 35.15 57.2 35.5 57.3 36.15 57.3 37.25 57.3 37.9 56.8 38.55 56.3 38.55 55.45 38.55 54.8 38.15 54.3 37.8 53.85 37 53.55 36.15 53.2 35.9 53 35.65 52.8 35.65 52.6 35.65 51.95 36.4 51.95
M 26.2 48.25
L 24.75 48.6 24.75 51.1
Q 24.15 50.8 23.45 50.8 22.15 50.8 21.25 51.75 20.4 52.7 20.4 54.15 20.4 55.65 21.15 56.5 21.9 57.3 23.2 57.3 23.7 57.3 24.1 57.15 24.55 57 24.75 56.8
L 24.75 57.2 26.2 57.2 26.2 48.25
M 21.9 54.1
Q 21.9 53.1 22.4 52.6 22.85 52.05 23.75 52.05 24.25 52.05 24.75 52.4
L 24.75 55.7
Q 24.65 55.85 24.35 55.95 24 56.1 23.8 56.1 21.9 56.1 21.9 54.1
M 24.05 35.8
Q 23 35.8 22.25 36.15
L 22.55 37.3
Q 23.1 37.05 23.95 37.05 25.35 37.05 25.35 38.15 25 38.05 24.7 38.05 23.2 38.05 22.4 38.65 21.6 39.3 21.6 40.35 21.6 41.3 22.15 41.8 22.75 42.3 23.75 42.3 24.3 42.3 24.8 42.1 25.3 41.9 25.5 41.55 25.55 41.85 25.8 42.1 26.1 42.3 26.4 42.3 26.7 42.3 26.9 42.25 27.1 42.15 27.3 41.85 26.8 41.55 26.8 40.3
L 26.8 38.95
Q 26.8 37.1 26.15 36.45 25.45 35.8 24.05 35.8
M 25.35 39.25
L 25.35 39.85
Q 25.35 41.15 24 41.15 23.05 41.15 23.05 40.3 23.05 39.15 24.8 39.15 24.95 39.15 25.35 39.25
M 35 35.9
L 35 37.1 35.7 37.1 35.7 40.3
Q 35.7 41.25 36.2 41.8 36.7 42.3 37.65 42.3 38.6 42.3 39.1 42.15
L 39.1 40.8
Q 38.65 41.1 38.15 41.1 37.6 41.1 37.4 40.8 37.2 40.5 37.2 39.85
L 37.2 37.1 38.9 37.1 38.9 35.9 37.2 35.9 37.2 34.1 35.7 34.65 35.7 35.9 35 35.9
M 33.25 36.5
Q 32.6 35.8 31.5 35.8 30.3 35.8 29.7 36.5
L 29.45 35.9 28.4 35.9 28.4 42.2 29.85 42.2 29.85 37.65
Q 30.05 37.4 30.45 37.2 30.8 37.05 31.1 37.05 31.8 37.05 32.1 37.4 32.45 37.75 32.45 38.55
L 32.45 42.2 33.9 42.2 33.9 38.35
Q 33.9 37.15 33.25 36.5
M 19.4 33.6
L 18.6 33.6 16.75 39.4 14.9 33.6 14.1 33.6 12.35 42.2 13.85 42.2 14.75 37.6 16.5 42.3 17.05 42.3 18.75 37.6 19.65 42.2 21.15 42.2 19.4 33.6
M 74.3 48.75
Q 74.05 48.5 73.7 48.5 73.35 48.5 73.1 48.75 72.85 49 72.85 49.35 72.85 49.7 73.1 49.95 73.35 50.2 73.7 50.2 74.05 50.2 74.3 49.95 74.55 49.7 74.55 49.35 74.55 49 74.3 48.75
M 63.4 35.8
Q 62.35 35.8 61.6 36.15
L 61.9 37.3
Q 62.45 37.05 63.3 37.05 64.7 37.05 64.7 38.15 64.35 38.05 64.05 38.05 62.55 38.05 61.75 38.65 60.95 39.3 60.95 40.35 60.95 41.3 61.5 41.8 62.1 42.3 63.1 42.3 63.65 42.3 64.15 42.1 64.65 41.9 64.85 41.55 64.9 41.85 65.15 42.1 65.45 42.3 65.75 42.3 66.05 42.3 66.25 42.25 66.45 42.15 66.65 41.85 66.15 41.55 66.15 40.3
L 66.15 38.95
Q 66.15 37.1 65.5 36.45 64.8 35.8 63.4 35.8
M 64.15 39.15
Q 64.3 39.15 64.7 39.25
L 64.7 39.85
Q 64.7 41.15 63.35 41.15 62.4 41.15 62.4 40.3 62.4 39.15 64.15 39.15
M 76.75 35.9
L 74.5 35.9 74.5 37.15 75.3 37.15 75.3 42.2 76.75 42.2 76.75 35.9
M 75.2 34.35
Q 75.2 34.7 75.45 34.95 75.7 35.2 76.05 35.2 76.4 35.2 76.65 34.95 76.9 34.7 76.9 34.35 76.9 34 76.65 33.75 76.4 33.5 76.05 33.5 75.7 33.5 75.45 33.75 75.2 34 75.2 34.35
M 73.05 33.25
L 71.6 33.6 71.6 40.95
Q 71.6 42.3 72.6 42.3 73.4 42.3 73.75 41.65 73.05 41.45 73.05 40.3
L 73.05 33.25
M 45.15 36.6
Q 44.3 35.8 42.95 35.8 41.65 35.8 40.75 36.75 39.85 37.65 39.85 39.15 39.85 40.65 40.65 41.5 41.5 42.3 42.95 42.3 44.45 42.3 45.25 41.7
L 44.7 40.55
Q 44.15 41.1 43.15 41.1 42.35 41.1 41.9 40.7 41.4 40.25 41.35 39.5
L 45.85 39.5
Q 45.95 38.95 45.95 38.7 45.95 37.45 45.15 36.6
M 44.5 38.4
L 41.4 38.4
Q 41.7 37.05 42.95 37.05 44.35 37.05 44.5 38.4
M 50.25 35.8
Q 49.05 35.8 48.45 36.5
L 48.2 35.9 47.15 35.9 47.15 42.2 48.6 42.2 48.6 37.65
Q 48.8 37.4 49.2 37.2 49.55 37.05 49.85 37.05 50.55 37.05 50.85 37.4 51.2 37.75 51.2 38.55
L 51.2 42.2 52.65 42.2 52.65 38.35
Q 52.65 37.15 52 36.5 51.35 35.8 50.25 35.8
M 59.1 36.45
Q 58.45 35.8 57.3 35.8 56.3 35.8 55.75 36.3
L 55.75 33.25 54.25 33.6 54.25 42.2 55.75 42.2 55.75 37.7
Q 55.9 37.45 56.25 37.25 56.65 37.05 57 37.05 57.6 37.05 57.95 37.4 58.3 37.75 58.3 38.35
L 58.3 42.2 59.75 42.2 59.75 38.35
Q 59.75 37.1 59.1 36.45
M 81.65 57.2
L 81.65 48.25 80.2 48.6 80.2 51.1
Q 79.6 50.8 78.9 50.8 77.6 50.8 76.7 51.75 75.85 52.7 75.85 54.15 75.85 55.65 76.6 56.5 77.35 57.3 78.65 57.3 79.15 57.3 79.55 57.15 80 57 80.2 56.8
L 80.2 57.2 81.65 57.2
M 79.2 52.05
Q 79.7 52.05 80.2 52.4
L 80.2 55.7
Q 80.1 55.85 79.8 55.95 79.45 56.1 79.25 56.1 77.35 56.1 77.35 54.1 77.35 53.1 77.85 52.6 78.3 52.05 79.2 52.05
M 88.7 54.05
Q 88.7 52.55 87.9 51.65 87.15 50.8 85.7 50.8 84.35 50.8 83.5 51.7 82.7 52.6 82.7 54.05 82.7 55.55 83.5 56.45 84.25 57.3 85.7 57.3 87.1 57.3 87.9 56.45 88.7 55.55 88.7 54.05
M 87.2 54.05
Q 87.2 55.05 86.8 55.6 86.4 56.1 85.7 56.1 84.2 56.1 84.2 54.05 84.2 53.1 84.6 52.55 85 52 85.7 52 87.2 52 87.2 54.05
M 93.9 55.45
Q 93.9 54.8 93.5 54.3 93.15 53.85 92.35 53.55 91.5 53.2 91.25 53 91 52.8 91 52.6 91 51.95 91.75 51.95 92.65 51.95 93.1 52.4
L 93.55 51.25
Q 92.65 50.8 91.7 50.8 90.7 50.8 90.1 51.25 89.5 51.7 89.5 52.55 89.5 53.75 91.1 54.4 91.85 54.75 92.1 54.95 92.35 55.2 92.35 55.55 92.35 56.15 91.5 56.15 90.7 56.15 90.05 55.65
L 89.5 56.8
Q 90.1 57.1 90.5 57.2 90.85 57.3 91.5 57.3 92.6 57.3 93.25 56.8 93.9 56.3 93.9 55.45
M 104.25 54.05
Q 104.25 52.55 103.45 51.65 102.7 50.8 101.25 50.8 99.9 50.8 99.05 51.7 98.25 52.6 98.25 54.05 98.25 55.55 99.05 56.45 99.8 57.3 101.25 57.3 102.65 57.3 103.45 56.45 104.25 55.55 104.25 54.05
M 102.75 54.05
Q 102.75 55.05 102.35 55.6 101.95 56.1 101.25 56.1 99.75 56.1 99.75 54.05 99.75 53.1 100.15 52.55 100.55 52 101.25 52 102.75 52 102.75 54.05
M 107.3 51.95
Q 108.2 51.95 108.65 52.4
L 109.1 51.25
Q 108.2 50.8 107.25 50.8 106.25 50.8 105.65 51.25 105.05 51.7 105.05 52.55 105.05 53.75 106.65 54.4 107.4 54.75 107.65 54.95 107.9 55.2 107.9 55.55 107.9 56.15 107.05 56.15 106.25 56.15 105.6 55.65
L 105.05 56.8
Q 105.65 57.1 106.05 57.2 106.4 57.3 107.05 57.3 108.15 57.3 108.8 56.8 109.45 56.3 109.45 55.45 109.45 54.8 109.05 54.3 108.7 53.85 107.9 53.55 107.05 53.2 106.8 53 106.55 52.8 106.55 52.6 106.55 51.95 107.3 51.95
M 104.4 35.8
Q 103.4 35.8 102.8 36.25 102.2 36.7 102.2 37.55 102.2 38.75 103.8 39.4 104.55 39.75 104.8 39.95 105.05 40.2 105.05 40.55 105.05 41.15 104.2 41.15 103.4 41.15 102.75 40.65
L 102.2 41.8
Q 102.8 42.1 103.2 42.2 103.55 42.3 104.2 42.3 105.3 42.3 105.95 41.8 106.6 41.3 106.6 40.45 106.6 39.8 106.2 39.3 105.85 38.85 105.05 38.55 104.2 38.2 103.95 38 103.7 37.8 103.7 37.6 103.7 36.95 104.45 36.95 105.35 36.95 105.8 37.4
L 106.25 36.25
Q 105.35 35.8 104.4 35.8
M 116.25 36.6
Q 115.4 35.8 114.05 35.8 112.75 35.8 111.85 36.75 110.95 37.65 110.95 39.15 110.95 40.65 111.75 41.5 112.6 42.3 114.05 42.3 115.55 42.3 116.35 41.7
L 115.8 40.55
Q 115.25 41.1 114.25 41.1 113.45 41.1 113 40.7 112.5 40.25 112.45 39.5
L 116.95 39.5
Q 117.05 38.95 117.05 38.7 117.05 37.45 116.25 36.6
M 115.6 38.4
L 112.5 38.4
Q 112.8 37.05 114.05 37.05 115.45 37.05 115.6 38.4
M 90.15 35.9
L 88.65 35.9 88.65 44.65 90.15 44.65 90.15 42.05
Q 90.7 42.3 91.4 42.3 92.85 42.3 93.65 41.5 94.5 40.65 94.5 39.1 94.5 35.8 91.5 35.8 90.7 35.8 90.15 36.35
L 90.15 35.9
M 91.05 41.1
Q 90.55 41.1 90.15 40.75
L 90.15 37.45
Q 90.55 37.05 91.1 37.05 92.1 37.05 92.55 37.5 92.95 37.95 92.95 39.05 92.95 40.1 92.55 40.6 92.1 41.1 91.05 41.1
M 83.25 36.5
Q 82.6 35.8 81.35 35.8 80.4 35.8 79.8 36.5
L 79.5 35.9 78.5 35.9 78.5 42.2 79.95 42.2 79.95 37.7
Q 80.1 37.45 80.45 37.25 80.75 37.05 81.05 37.05 81.55 37.05 81.85 37.3 82.1 37.6 82.1 38.05
L 82.1 42.2 83.6 42.2 83.6 37.65
Q 83.7 37.4 84 37.25 84.3 37.05 84.65 37.05 85.75 37.05 85.75 38.25
L 85.75 42.2 87.2 42.2 87.2 38.05
Q 87.2 37 86.65 36.4 86.05 35.8 85 35.8 84.5 35.8 84 36 83.55 36.2 83.25 36.5
M 98.4 35.8
Q 97.05 35.8 96.2 36.7 95.4 37.6 95.4 39.05 95.4 40.55 96.2 41.45 96.95 42.3 98.4 42.3 99.8 42.3 100.6 41.45 101.4 40.55 101.4 39.05 101.4 37.55 100.6 36.65 99.85 35.8 98.4 35.8
M 96.9 39.05
Q 96.9 38.1 97.3 37.55 97.7 37 98.4 37 99.9 37 99.9 39.05 99.9 40.05 99.5 40.6 99.1 41.1 98.4 41.1 96.9 41.1 96.9 39.05 Z"/>
</g>

<path id="Layer0_0_1_STROKES" stroke="#8CA8B8" stroke-width="1" stroke-linejoin="round" stroke-linecap="round" fill="none" d="
M 118.8 0.4
Q 122.9 0.4 125.8 3.35 128.75 6.25 128.75 10.35
L 128.75 91.95
Q 128.65 95.9 125.8 98.7 122.9 101.65 118.8 101.65
L 10.15 101.65
Q 6.05 101.65 3.15 98.7 0.35 95.9 0.25 91.95
L 0.25 10.35
Q 0.25 6.25 3.15 3.35 6.05 0.4 10.15 0.4
L 118.75 0.4"/>
</defs>

<g transform="matrix( 1, 0, 0, 1, 0,0) ">
<use xlink:href="#Layer0_0_FILL"/>

<use xlink:href="#Layer0_0_1_STROKES"/>
</g>
</svg>
