
<svg xmlns="http://www.w3.org/2000/svg" version="1.1" xmlns:xlink="http://www.w3.org/1999/xlink" preserveAspectRatio="none" x="0px" y="0px" width="133px" height="106px" viewBox="0 0 133 106">
<defs>
<linearGradient id="Gradient_1" gradientUnits="userSpaceOnUse" x1="6.600000000000001" y1="36.375" x2="107.1" y2="37.125" spreadMethod="pad">
<stop  offset="0%" stop-color="#FFFFCC"/>

<stop  offset="100%" stop-color="#FFFFFF"/>
</linearGradient>

<filter id="Filter_1" x="-20%" y="-20%" width="140%" height="140%" color-interpolation-filters="sRGB">
<feFlood flood-color="#000000" flood-opacity="1" in="SourceGraphic" result="result1"/>

<feComposite in2="SourceGraphic" in="result1" operator="in" result="result2"/>

<feGaussianBlur in="result2" stdDeviation="2.3333333333333335,2.3333333333333335" result="result3"/>

<feOffset dx="0" dy="0" in="result3" result="result4"/>

<feComposite in2="result4" in="SourceGraphic" operator="over" result="result5"/>
</filter>

<g id="Layer0_0_MEMBER_0_FILL">
<path fill="#00CCCC" stroke="none" d="
M 357.1 530.3
Q 354.2 533.2 354.2 537.3
L 354.2 618.9
Q 354.3 622.85 357.1 625.65 360 628.6 364.1 628.6
L 472.75 628.6
Q 476.85 628.6 479.75 625.65 482.6 622.85 482.7 618.9
L 482.7 537.3
Q 482.7 533.2 479.75 530.3 476.85 527.35 472.75 527.35
L 472.7 527.35 364.1 527.35
Q 360 527.35 357.1 530.3 Z"/>
</g>

<g id="S_mbolo_4_0_Layer0_0_MEMBER_0_FILL">
<path fill="#FFFFFF" stroke="none" d="
M 966.45 100.5
Q 947.95 82 921.8 82
L 458.15 82
Q 432 82 413.5 100.5 395 119 395 145.15
L 395 538.8
Q 395 564.95 413.5 583.45 432 601.95 458.15 601.95
L 921.8 601.95
Q 947.95 601.95 966.45 583.45 984.95 564.95 984.95 538.8
L 984.95 145.15
Q 984.95 119 966.45 100.5 Z"/>
</g>

<g id="S_mbolo_4_0_Layer0_0_MEMBER_1_FILL">
<path fill="#2E4B87" stroke="none" d="
M 84.1 76.3
Q 83.7 76.2 83.3 76.2 72.55 74.95 57.35 74.9 42.15 74.9 31.35 76 30.4 76.05 29.55 76.2 20.85 77.2 20.65 78.65
L 20.6 78.65
Q 20.6 80.25 31.3 81.5 42.1 82.8 57.35 82.8 72.5 82.85 83.3 81.7 94.05 80.6 94.05 79.05
L 94.05 78.95
Q 94.05 77.4 84.1 76.3
M 83.05 78.3
L 83.1 78.4
Q 83.05 79.5 75.35 80.4 67.6 81.15 56.7 80.95 45.65 80.95 37.95 80.15 30.25 79.3 30.25 78.2
L 30.3 78.2
Q 30.45 76.95 37.95 76.2 45.75 75.4 56.7 75.4 67.6 75.45 75.35 76.3 83.05 77.15 83.05 78.3
M 98.2 69.45
Q 98.5 68.65 98.85 67.9 97.35 65.15 88.55 63.3 87.95 63.2 87.2 63.05 75.15 60.65 57.95 60.9 40.75 61.15 28.5 63.8 19.5 65.9 17.1 68.4 16.7 68.8 16.45 69.25 16.8 69.95 17.1 70.75 19.45 68.1 28.45 66 40.7 63.4 57.85 63.2 74.95 62.85 87.1 65.25 87.7 65.45 88.4 65.55 96.1 67.15 98.2 69.45
M 109.8 35.5
L 109.55 35.75
Q 109.6 35.85 109.65 35.85 109.65 35.7 109.8 35.5
M 107.05 36.95
Q 107.05 37.05 107.05 37.1
L 107.45 37.2
Q 107.45 37.4 107.4 37.45 107.4 37.6 107.5 37.85 107.4 37.75 107.4 37.6 107.25 38.4 107 39.25 108.35 38.15 109.6 35.9 109.55 35.95 109.35 35.95
L 109.55 35.75
Q 109 30.5 94.25 26.7 78.9 22.75 57.2 22.55 35.45 22.35 20 26.2 9.2 28.9 5.9 32.35 4.75 33.6 4.65 35.1
L 4.65 35.45 4.55 35.55
Q 4.55 35.7 4.65 35.85
L 4.65 35.9
Q 4.75 36.65 5.05 37.25 5.9 38.7 7.7 39.95 7.3 39.05 7.15 38.15 6.7 37.5 6.6 36.95
L 6.6 36.75
Q 6.55 36.55 6.6 36.35 6.6 35 7.6 33.75 10.35 30.25 21.4 27.55 36.15 23.95 56.95 24.1 77.65 24.3 92.5 28.05 107 31.75 107.05 36.95
M 89.5 46.7
Q 90.15 46.9 90.9 47.05 101.3 49.7 103.75 53.05 103.95 52.35 104.15 51.7 103.3 47.3 90.5 44.05 90.1 44 89.65 43.85 76.15 40.7 57.4 40.55 37.9 40.4 24.15 43.75 13.95 46.2 11.2 49.5 10.55 50.45 10.35 51.45 10.7 52.4 11 53.55 11.15 53 11.6 52.4 14.25 49.15 24.5 46.7 38.3 43.4 57.7 43.45 76.15 43.55 89.5 46.7 Z"/>

<path fill="#243B6B" stroke="none" d="
M 83.1 78.4
L 83.05 78.3
Q 83.05 77.15 75.35 76.3 67.6 75.45 56.7 75.4 45.75 75.4 37.95 76.2 30.45 76.95 30.3 78.2
L 30.25 78.2
Q 30.25 79.3 37.95 80.15 45.65 80.95 56.7 80.95 67.6 81.15 75.35 80.4 83.05 79.5 83.1 78.4 Z"/>

<path fill="#2B57AF" stroke="none" d="
M 96.6 73.45
Q 96.95 72.6 97.2 71.85 97.75 70.65 98.2 69.45 96.1 67.15 88.4 65.55 87.7 65.45 87.1 65.25 74.95 62.85 57.85 63.2 40.7 63.4 28.45 66 19.45 68.1 17.1 70.75
L 17.1 70.8
Q 17.15 71.15 17.3 71.45
L 17.5 71.45 20.65 78.65
Q 20.85 77.2 29.55 76.2 30.4 76.05 31.35 76 42.15 74.9 57.35 74.9 72.55 74.95 83.3 76.2 83.7 76.2 84.1 76.3 94.05 77.4 94.05 78.95
L 94.05 79.05 96.6 73.45
M 89.65 43.85
Q 90.1 44 90.5 44.05 103.3 47.3 104.15 51.7 105.75 45.6 107 39.25 107.25 38.4 107.4 37.6 107.15 37.3 107.05 37.1 107.05 37.05 107.05 36.95 107 31.75 92.5 28.05 77.65 24.3 56.95 24.1 36.15 23.95 21.4 27.55 10.35 30.25 7.6 33.75 6.6 35 6.6 36.35 6.55 36.55 6.6 36.75
L 6.6 36.95
Q 6.7 37.5 7.15 38.15 7.3 39.05 7.7 39.95 8.75 45.65 10.35 51.45 10.55 50.45 11.2 49.5 13.95 46.2 24.15 43.75 37.9 40.4 57.4 40.55 76.15 40.7 89.65 43.85
M 90.9 47.05
Q 90.15 46.9 89.5 46.7 76.15 43.55 57.7 43.45 38.3 43.4 24.5 46.7 14.25 49.15 11.6 52.4 11.15 53 11 53.55 13.35 61.3 16.45 69.25 16.7 68.8 17.1 68.4 19.5 65.9 28.5 63.8 40.75 61.15 57.95 60.9 75.15 60.65 87.2 63.05 87.95 63.2 88.55 63.3 97.35 65.15 98.85 67.9 101.65 60.7 103.75 53.05 101.3 49.7 90.9 47.05 Z"/>

<path fill="#5488F3" stroke="none" d="
M 94.25 20.6
Q 103.2 22.95 106.95 25.7 90.7 12.25 61.3 7.9 57.25 2.2 53.1 7.85 52.9 7.9 52.65 7.9 23.5 11.85 7.4 25.05 11.15 22.2 20 20 35.45 16.35 57.2 16.45 78.9 16.6 94.25 20.6 Z"/>

<path fill="url(#Gradient_1)" stroke="none" d="
M 107.4 37.6
Q 107.4 37.75 107.5 37.85 107.4 37.6 107.4 37.45 107.45 37.4 107.45 37.2
L 107.05 37.1
Q 107.15 37.3 107.4 37.6 Z"/>

<path fill="#4875D2" stroke="none" d="
M 107.9 26.65
Q 107.5 26.1 106.95 25.7 103.2 22.95 94.25 20.6 78.9 16.6 57.2 16.45 35.45 16.35 20 20 11.15 22.2 7.4 25.05 6.75 25.45 6.35 25.9 4.95 27.1 4.75 28.55
L 4.65 35.1
Q 4.75 33.6 5.9 32.35 9.2 28.9 20 26.2 35.45 22.35 57.2 22.55 78.9 22.75 94.25 26.7 109 30.5 109.55 35.75
L 109.8 35.5 109.65 30
Q 109.6 29.95 109.6 29.8 109.55 28.1 107.9 26.65 Z"/>
</g>

<path id="Layer0_0_MEMBER_0_1_STROKES" stroke="#8CA8B8" stroke-width="1" stroke-linejoin="round" stroke-linecap="round" fill="none" d="
M 472.75 527.35
Q 476.85 527.35 479.75 530.3 482.7 533.2 482.7 537.3
L 482.7 618.9
Q 482.6 622.85 479.75 625.65 476.85 628.6 472.75 628.6
L 364.1 628.6
Q 360 628.6 357.1 625.65 354.3 622.85 354.2 618.9
L 354.2 537.3
Q 354.2 533.2 357.1 530.3 360 527.35 364.1 527.35
L 472.7 527.35"/>
</defs>

<g transform="matrix( 1, 0, 0, 1, -351.95,-524.95) ">
<use xlink:href="#Layer0_0_MEMBER_0_FILL"/>

<use xlink:href="#Layer0_0_MEMBER_0_1_STROKES"/>
</g>

<g filter="url(#Filter_1)" transform="matrix( 1, 0, 0, 1, 0,0) ">
<g transform="matrix( 1, 0, 0, 1, 8.3,7.75) ">
<g transform="matrix( 0.1976318359375, 0, 0, 0.1722564697265625, -78.05,-14.15) ">
<use xlink:href="#S_mbolo_4_0_Layer0_0_MEMBER_0_FILL"/>
</g>

<g transform="matrix( 1, 0, 0, 1, 0,0) ">
<use xlink:href="#S_mbolo_4_0_Layer0_0_MEMBER_1_FILL"/>
</g>
</g>
</g>
</svg>
