<svg xmlns="http://www.w3.org/2000/svg" xmlns:xlink="http://www.w3.org/1999/xlink" preserveAspectRatio="none" width="133" height="106" viewBox="0 0 133 106"><defs><g id="a"><path fill="#FFF" d="M701.75 312.8q-2.9-2.95-7-2.95H586.1q-4.1 0-7 2.95-2.9 2.9-2.9 7v81.6q.1 3.95 2.9 6.75 2.9 2.95 7 2.95h108.65q4.1 0 7-2.95 2.85-2.8 2.95-6.75v-81.6q0-4.1-2.95-7m-10 10q2.95 2.9 2.95 7v66.7h-.55q-.75 2-2.4 3.65-2.9 2.95-7 2.95H596.1q-4.1 0-7-2.95-1.65-1.65-2.35-3.65h-.55v-66.7q0-4.1 2.9-7 2.9-2.95 7-2.95h88.65q4.1 0 7 2.95z"/><path fill="#C9C" d="M694.7 329.8q0-4.1-2.95-7-2.9-2.95-7-2.95H596.1q-4.1 0-7 2.95-2.9 2.9-2.9 7v66.7h.55q.7 2 2.35 3.65 2.9 2.95 7 2.95h88.65q4.1 0 7-2.95 1.65-1.65 2.4-3.65h.55v-66.7m-93.5 14.85q1.35 0 2.15.55l-.6 1.15q-.45-.45-1.5-.45-.95 0-1.6.8-.6.85-.6 2.1t.55 2q.6.75 1.55.75 1.15 0 1.75-.8l.65 1.15q-.85.9-2.5.9t-2.55-1.1q-.9-1.1-.9-2.95 0-1.75 1-2.95 1-1.15 2.6-1.15m3.8 7.3q-.75-.85-.75-2.2 0-1.3.75-2.15.75-.8 2-.8 1.35 0 2.05.8.75.8.75 2.15 0 1.4-.75 2.2-.75.8-2.05.8-1.3 0-2-.8m6.1-7.2l1.35-.3v6.45q0 1.05.65 1.25-.35.6-1.1.6-.9 0-.9-1.25v-6.75m8.2 5q0 1.4-.75 2.2-.75.8-2.05.8-1.3 0-2-.8-.75-.85-.75-2.2 0-1.3.75-2.15.75-.8 2-.8 1.35 0 2.05.8.75.8.75 2.15m3.7-2.95q.75 0 1.35.45l.25-.35h.85v8h-1.35v-2.4q-.45.25-1.3.25-1.3 0-2-.75t-.7-2.15q0-1.4.8-2.25.85-.8 2.1-.8m7.45.1h1.3v5.75h-1.3v-.5q-.3.25-.8.45-.5.15-.9.15-2 0-2-2.1v-3.75h1.3v3.65q0 1.1 1 1.1.45 0 .85-.25.4-.25.55-.55v-3.95m8 2.55q0 .25-.1.75h-4.1q.05.65.45 1.05.45.4 1.2.4.9 0 1.4-.5l.5 1.05q-.7.55-2.1.55-1.3 0-2.1-.75-.75-.8-.75-2.15 0-1.35.85-2.2.85-.85 2-.85 1.25 0 2 .75t.75 1.9m6.15-1.55q-.75 0-1.25.25l-.3-1.05q.7-.3 1.65-.3 1.3 0 1.9.6.65.6.65 2.25v1.25q0 1.15.45 1.45-.15.25-.35.35-.25.05-.5.05-.3 0-.5-.2-.25-.2-.3-.45-.2.3-.65.45-.45.2-.95.2-.95 0-1.45-.45-.55-.45-.55-1.35 0-.95.75-1.55.75-.55 2.15-.55.2 0 .55.1 0-1.05-1.3-1.05m7.95-.9l-.55 1.15q-.35-.25-.8-.25-.45 0-.8.45-.4.4-.4 1v3.3h-1.3v-5.75h1.3v.5q.6-.6 1.5-.6.7 0 1.05.2m8.2-2.35q.3 0 .55.25.2.25.2.55 0 .3-.2.55-.25.25-.55.25-.35 0-.55-.25-.25-.25-.25-.55 0-.3.25-.55.2-.25.55-.25M681 346.8q1.35 0 2.05.8.75.8.75 2.15 0 1.4-.75 2.2-.75.8-2.05.8-1.3 0-2-.8-.75-.85-.75-2.2 0-1.3.75-2.15.75-.8 2-.8m-4.4.6q.55.6.55 1.7v3.55h-1.3v-3.3q0-.75-.3-1.1-.3-.35-.95-.35-.25 0-.6.2-.35.15-.55.4v4.15h-1.3v-5.75h.95l.25.55q.55-.65 1.6-.65t1.65.6m-11.85.5q-.75 0-1.25.25l-.3-1.05q.7-.3 1.65-.3 1.3 0 1.9.6.65.6.65 2.25v1.25q0 1.15.45 1.45-.15.25-.35.35-.25.05-.5.05-.3 0-.5-.2-.25-.2-.3-.45-.2.3-.65.45-.45.2-.95.2-.95 0-1.45-.45-.55-.45-.55-1.35 0-.95.75-1.55.75-.55 2.15-.55.2 0 .55.1 0-1.05-1.3-1.05m-3.35 4.75h-1.35V348h-.75v-1.1h2.1v5.75m-2.8-3.2q0 .25-.1.75h-4.1q.05.65.45 1.05.45.4 1.2.4.9 0 1.4-.5l.5 1.05q-.7.55-2.1.55-1.3 0-2.1-.75-.75-.8-.75-2.15 0-1.35.85-2.2.85-.85 2-.85 1.25 0 2 .75t.75 1.9m-64.9 11.25h1.35v.4q.5-.5 1.25-.5 2.75 0 2.75 3 0 1.45-.75 2.2-.75.75-2.1.75-.6 0-1.15-.25v2.4h-1.35v-8m11.4.2q.7-.3 1.65-.3 1.3 0 1.9.6.65.6.65 2.25v1.25q0 1.15.45 1.45-.15.25-.35.35-.25.05-.5.05-.3 0-.5-.2-.25-.2-.3-.45-.2.3-.65.45-.45.2-.95.2-.95 0-1.45-.45-.55-.45-.55-1.35 0-.95.75-1.55.75-.55 2.15-.55.2 0 .55.1 0-1.05-1.3-1.05-.75 0-1.25.25l-.3-1.05m-1.05-.1l-.55 1.15q-.35-.25-.8-.25-.45 0-.8.45-.4.4-.4 1v3.3h-1.3v-5.75h1.3v.5q.6-.6 1.5-.6.7 0 1.05.2m9.8-.1v1.1h-1.6v2.5q0 .6.2.85t.7.25q.5 0 .9-.25v1.25q-.45.15-1.35.15-.85 0-1.3-.5-.45-.45-.45-1.35v-2.9h-.7v-1.1h.7v-1.15l1.3-.5v1.65h1.6m59.5.3q.6-.4 1.45-.4.9 0 1.7.4l-.4 1.05q-.4-.4-1.2-.4-.7 0-.7.55 0 .25.25.4.2.2.95.5t1.1.7q.35.45.35 1.05 0 .8-.6 1.25-.6.45-1.6.45-.6 0-.95-.1t-.9-.35l.5-1.1q.6.5 1.35.5.8 0 .8-.55 0-.35-.25-.55-.25-.2-.9-.5-1.5-.6-1.5-1.75 0-.75.55-1.15m-1.6 2.45v1.25q0 1.15.45 1.45-.15.25-.35.35-.25.05-.5.05-.3 0-.5-.2-.25-.2-.3-.45-.2.3-.65.45-.45.2-.95.2-.95 0-1.45-.45-.55-.45-.55-1.35 0-.95.75-1.55.75-.55 2.15-.55.2 0 .55.1 0-1.05-1.3-1.05-.75 0-1.25.25l-.3-1.05q.7-.3 1.65-.3 1.3 0 1.9.6.65.6.65 2.25M653.7 361q.6-.4 1.45-.4.9 0 1.7.4l-.4 1.05q-.4-.4-1.2-.4-.7 0-.7.55 0 .25.25.4.2.2.95.5t1.1.7q.35.45.35 1.05 0 .8-.6 1.25-.6.45-1.6.45-.6 0-.95-.1t-.9-.35l.5-1.1q.6.5 1.35.5.8 0 .8-.55 0-.35-.25-.55-.25-.2-.9-.5-1.5-.6-1.5-1.75 0-.75.55-1.15m-2 .4q.75.8.75 2.15 0 1.4-.75 2.2-.75.8-2.05.8-1.3 0-2-.8-.75-.85-.75-2.2 0-1.3.75-2.15.75-.8 2-.8 1.35 0 2.05.8m12 2.8l1.5-3.5h1.4l-2.65 5.85h-.45l-2.6-5.85h1.45l1.35 3.5m-19.05-5.65l1.3-.3v8.2h-1.3v-.35q-.2.2-.6.3-.4.15-.8.15-1.2 0-1.9-.75t-.7-2.15q0-1.35.8-2.2.8-.85 2-.85.65 0 1.2.25v-2.3m-8.85 2.85q.75.8.75 2.15 0 1.4-.75 2.2-.75.8-2.05.8-1.3 0-2-.8-.75-.85-.75-2.2 0-1.3.75-2.15.75-.8 2-.8 1.35 0 2.05.8m-7.2 1.5q0-.55-.35-.85-.3-.3-.85-.3-.35 0-.7.15-.3.2-.45.4v4.15h-1.35v-7.9l1.35-.3v2.8q.5-.45 1.4-.45 1.1 0 1.7.6.6.6.6 1.7v3.55h-1.35v-3.55m-12.45-4.45q.3 0 .55.25.2.25.2.55 0 .3-.2.55-.25.25-.55.25-.35 0-.55-.25-.25-.25-.25-.55 0-.3.25-.55.2-.25.55-.25m-1.45 2.25h2.1v5.75h-1.35v-4.65h-.75v-1.1m8.15.5q.55.6.55 1.7v3.55h-1.3v-3.3q0-.75-.3-1.1-.3-.35-.95-.35-.25 0-.6.2-.35.15-.55.4v4.15h-1.3v-5.75h.95l.25.55q.55-.65 1.6-.65t1.65.6m54.7 2.35q0-1.3.75-2.15.75-.8 2-.8 1.35 0 2.05.8.75.8.75 2.15 0 1.4-.75 2.2-.75.8-2.05.8-1.3 0-2-.8-.75-.85-.75-2.2m6.8-2.55q.6-.4 1.45-.4.9 0 1.7.4l-.4 1.05q-.4-.4-1.2-.4-.7 0-.7.55 0 .25.25.4.2.2.95.5t1.1.7q.35.45.35 1.05 0 .8-.6 1.25-.6.45-1.6.45-.6 0-.95-.1t-.9-.35l.5-1.1q.6.5 1.35.5.8 0 .8-.55 0-.35-.25-.55-.25-.2-.9-.5-1.5-.6-1.5-1.75 0-.75.55-1.15m-25.65 19.15q-.25-.2-.3-.45-.2.3-.65.45-.45.2-.95.2-.95 0-1.45-.45-.55-.45-.55-1.35 0-.95.75-1.55.75-.55 2.15-.55.2 0 .55.1 0-1.05-1.3-1.05-.75 0-1.25.25l-.3-1.05q.7-.3 1.65-.3 1.3 0 1.9.6.65.6.65 2.25v1.25q0 1.15.45 1.45-.15.25-.35.35-.25.05-.5.05-.3 0-.5-.2m-4.75-5.65v1.1h-1.6v2.5q0 .6.2.85t.7.25q.5 0 .9-.25v1.25q-.45.15-1.35.15-.85 0-1.3-.5-.45-.45-.45-1.35v-2.9h-.7v-1.1h.7v-1.15l1.3-.5v1.65h1.6m-5.15.5q.55.6.55 1.7v3.55h-1.3v-3.3q0-.75-.3-1.1-.3-.35-.95-.35-.25 0-.6.2-.35.15-.55.4v4.15h-1.3v-5.75h.95l.25.55q.55-.65 1.6-.65t1.65.6m-25.05.15q.75.75.75 1.9 0 .25-.1.75h-4.1q.05.65.45 1.05.45.4 1.2.4.9 0 1.4-.5l.5 1.05q-.7.55-2.1.55-1.3 0-2.1-.75-.75-.8-.75-2.15 0-1.35.85-2.2.85-.85 2-.85 1.25 0 2 .75m-5.8-3.1v8.2h-1.3v-.35q-.2.2-.6.3-.4.15-.8.15-1.2 0-1.9-.75t-.7-2.15q0-1.35.8-2.2.8-.85 2-.85.65 0 1.2.25v-2.3l1.3-.3m22.3 3.45q-.75 0-1.25.25l-.3-1.05q.7-.3 1.65-.3 1.3 0 1.9.6.65.6.65 2.25v1.25q0 1.15.45 1.45-.15.25-.35.35-.25.05-.5.05-.3 0-.5-.2-.25-.2-.3-.45-.2.3-.65.45-.45.2-.95.2-.95 0-1.45-.45-.55-.45-.55-1.35 0-.95.75-1.55.75-.55 2.15-.55.2 0 .55.1 0-1.05-1.3-1.05m-4.8-3.15l1.35-.3v6.45q0 1.05.65 1.25-.35.6-1.1.6-.9 0-.9-1.25v-6.75m-5.35 2.55q.5-.5 1.25-.5 2.75 0 2.75 3 0 1.45-.75 2.2-.75.75-2.1.75-.6 0-1.15-.25v2.4h-1.35v-8h1.35v.4m34.25-.1l-.4 1.05q-.4-.4-1.2-.4-.7 0-.7.55 0 .25.25.4.2.2.95.5t1.1.7q.35.45.35 1.05 0 .8-.6 1.25-.6.45-1.6.45-.6 0-.95-.1t-.9-.35l.5-1.1q.6.5 1.35.5.8 0 .8-.55 0-.35-.25-.55-.25-.2-.9-.5-1.5-.6-1.5-1.75 0-.75.55-1.15.6-.4 1.45-.4.9 0 1.7.4m1.65 4.75q0-.4.25-.7.3-.25.7-.25.4 0 .7.25.25.3.25.7 0 .4-.25.7-.3.25-.7.25-.4 0-.7-.25-.25-.3-.25-.7m-33.3-2.15q0-1.05-.4-1.45-.4-.4-1.35-.4-.45 0-.85.35v3.05q.4.25.85.25.95 0 1.35-.4.4-.45.4-1.4m8.85.7v-.55q-.35-.1-.5-.1-1.6 0-1.6 1.05 0 .8.9.8 1.2 0 1.2-1.2m-25.8-2.55q-.85 0-1.25.45-.45.5-.45 1.45 0 1.75 1.75 1.75.2 0 .45-.1.3-.1.4-.2v-3.05q-.45-.3-.9-.3m6.05-.05q-1.15 0-1.45 1.25h2.8q-.1-1.25-1.35-1.25m36.45 2.6v-.55q-.35-.1-.5-.1-1.6 0-1.6 1.05 0 .8.9.8 1.2 0 1.2-1.2m22.05-16.4q-.6 0-1 .5-.35.45-.35 1.35 0 1.9 1.35 1.9.65 0 1-.5.4-.5.4-1.4 0-1.85-1.4-1.85m-45.55 3.25q.4-.5.4-1.4 0-1.85-1.4-1.85-.6 0-1 .5-.35.45-.35 1.35 0 1.9 1.35 1.9.65 0 1-.5m9.9-2.9q-.45-.3-.9-.3-.85 0-1.25.45-.45.5-.45 1.45 0 1.75 1.75 1.75.2 0 .45-.1.3-.1.4-.2v-3.05m5-.35q-.6 0-1 .5-.35.45-.35 1.35 0 1.9 1.35 1.9.65 0 1-.5.4-.5.4-1.4 0-1.85-1.4-1.85m20.75 2.6v-.55q-.35-.1-.5-.1-1.6 0-1.6 1.05 0 .8.9.8 1.2 0 1.2-1.2m-62.95-.65q-1.6 0-1.6 1.05 0 .8.9.8 1.2 0 1.2-1.2v-.55q-.35-.1-.5-.1m-11.55-1.9q-.45 0-.85.35v3.05q.4.25.85.25.95 0 1.35-.4.4-.45.4-1.4 0-1.05-.4-1.45-.4-.4-1.35-.4m61.35-12.6q-.1-1.25-1.35-1.25-1.15 0-1.45 1.25h2.8m6.7 1.75q0 .8.9.8 1.2 0 1.2-1.2v-.55q-.35-.1-.5-.1-1.6 0-1.6 1.05m18.05.25q.4-.5.4-1.4 0-1.85-1.4-1.85-.6 0-1 .5-.35.45-.35 1.35 0 1.9 1.35 1.9.65 0 1-.5m-38.2-.25q0 .8.9.8 1.2 0 1.2-1.2v-.55q-.35-.1-.5-.1-1.6 0-1.6 1.05m-6.7-1.75q-.1-1.25-1.35-1.25-1.15 0-1.45 1.25h2.8m-13 2.2v-3.1q-.35-.3-.95-.3-.75 0-1.2.5-.45.5-.45 1.4 0 1.75 1.65 1.75.6 0 .95-.25m-8.6-2.95q-.35.45-.35 1.35 0 1.9 1.35 1.9.65 0 1-.5.4-.5.4-1.4 0-1.85-1.4-1.85-.6 0-1 .5m-9.5 0q-.35.45-.35 1.35 0 1.9 1.35 1.9.65 0 1-.5.4-.5.4-1.4 0-1.85-1.4-1.85-.6 0-1 .5z"/></g><path d="M631.35 374.4q-.75 0-1.25.5v-.4h-1.35v8h1.35v-2.4q.55.25 1.15.25 1.35 0 2.1-.75t.75-2.2q0-3-2.75-3m.95 1.55q.4.4.4 1.45 0 .95-.4 1.4-.4.4-1.35.4-.45 0-.85-.25v-3.05q.4-.35.85-.35.95 0 1.35.4m4.5-3.9l-1.35.3v6.75q0 1.25.9 1.25.75 0 1.1-.6-.65-.2-.65-1.25v-6.45m2.2 3.7q.5-.25 1.25-.25 1.3 0 1.3 1.05-.35-.1-.55-.1-1.4 0-2.15.55-.75.6-.75 1.55 0 .9.55 1.35.5.45 1.45.45.5 0 .95-.2.45-.15.65-.45.05.25.3.45.2.2.5.2.25 0 .5-.05.2-.1.35-.35-.45-.3-.45-1.45v-1.25q0-1.65-.65-2.25-.6-.6-1.9-.6-.95 0-1.65.3l.3 1.05m2.55 1.8v.55q0 1.2-1.2 1.2-.9 0-.9-.8 0-1.05 1.6-1.05.15 0 .5.1m-23.6 2.7v-8.2l-1.3.3v2.3q-.55-.25-1.2-.25-1.2 0-2 .85t-.8 2.2q0 1.4.7 2.15t1.9.75q.4 0 .8-.15.4-.1.6-.3v.35h1.3M614.5 376q.4-.45 1.25-.45.45 0 .9.3v3.05q-.1.1-.4.2-.25.1-.45.1-1.75 0-1.75-1.75 0-.95.45-1.45m10 1.05q0-1.15-.75-1.9t-2-.75q-1.15 0-2 .85-.85.85-.85 2.2t.75 2.15q.8.75 2.1.75 1.4 0 2.1-.55l-.5-1.05q-.5.5-1.4.5-.75 0-1.2-.4-.4-.4-.45-1.05h4.1q.1-.5.1-.75m-4.15-.3q.3-1.25 1.45-1.25 1.25 0 1.35 1.25h-2.8m3.05-13.85q0-1.1-.55-1.7-.6-.6-1.65-.6-1.05 0-1.6.65l-.25-.55h-.95v5.75h1.3v-4.15q.2-.25.55-.4.35-.2.6-.2.65 0 .95.35.3.35.3 1.1v3.3h1.3v-3.55m-9.55-1.1v-1.1h-1.6v-1.65l-1.3.5v1.15h-.7v1.1h.7v2.9q0 .9.45 1.35.45.5 1.3.5.9 0 1.35-.15v-1.25q-.4.25-.9.25t-.7-.25q-.2-.25-.2-.85v-2.5h1.6m2.95-1.1h-2.1v1.1h.75v4.65h1.35v-5.75m-.1-2q-.25-.25-.55-.25-.35 0-.55.25-.25.25-.25.55 0 .3.25.55.2.25.55.25.3 0 .55-.25.2-.25.2-.55 0-.3-.2-.55m2.6-8.95q0-1.35-.75-2.15-.7-.8-2.05-.8-1.25 0-2 .8-.75.85-.75 2.15 0 1.35.75 2.2.7.8 2 .8t2.05-.8q.75-.8.75-2.2m-4.15 0q0-.9.35-1.35.4-.5 1-.5 1.4 0 1.4 1.85 0 .9-.4 1.4-.35.5-1 .5-1.35 0-1.35-1.9m9.2-2.5q-.6-.45-1.35-.45-1.25 0-2.1.8-.8.85-.8 2.25t.7 2.15q.7.75 2 .75.85 0 1.3-.25v2.4h1.35v-8h-.85l-.25.35m-.25 1v3.1q-.35.25-.95.25-1.65 0-1.65-1.75 0-.9.45-1.4.45-.5 1.2-.5.6 0 .95.3m4.15 13.8q.35.3.35.85v3.55h1.35v-3.55q0-1.1-.6-1.7-.6-.6-1.7-.6-.9 0-1.4.45v-2.8l-1.35.3v7.9h1.35v-4.15q.15-.2.45-.4.35-.15.7-.15.55 0 .85.3m8.3 1.5q0-1.35-.75-2.15-.7-.8-2.05-.8-1.25 0-2 .8-.75.85-.75 2.15 0 1.35.75 2.2.7.8 2 .8t2.05-.8q.75-.8.75-2.2m-1.4 0q0 .9-.4 1.4-.35.5-1 .5-1.35 0-1.35-1.9 0-.9.35-1.35.4-.5 1-.5 1.4 0 1.4 1.85m-3.4-16.65h-1.3v3.95q-.15.3-.55.55-.4.25-.85.25-1 0-1-1.1v-3.65h-1.3v3.75q0 2.1 2 2.1.4 0 .9-.15.5-.2.8-.45v.5h1.3v-5.75m14.2 11.35l-1.3.3v2.3q-.55-.25-1.2-.25-1.2 0-2 .85t-.8 2.2q0 1.4.7 2.15t1.9.75q.4 0 .8-.15.4-.1.6-.3v.35h1.3v-8.2m-2.2 3.5q.45 0 .9.3v3.05q-.1.1-.4.2-.25.1-.45.1-1.75 0-1.75-1.75 0-.95.45-1.45.4-.45 1.25-.45m-5.4-11.55q.1-.5.1-.75 0-1.15-.75-1.9t-2-.75q-1.15 0-2 .85-.85.85-.85 2.2t.75 2.15q.8.75 2.1.75 1.4 0 2.1-.55l-.5-1.05q-.5.5-1.4.5-.75 0-1.2-.4-.4-.4-.45-1.05h4.1m-2.6-2.3q1.25 0 1.35 1.25h-2.8q.3-1.25 1.45-1.25m7.6.25q.5-.25 1.25-.25 1.3 0 1.3 1.05-.35-.1-.55-.1-1.4 0-2.15.55-.75.6-.75 1.55 0 .9.55 1.35.5.45 1.45.45.5 0 .95-.2.45-.15.65-.45.05.25.3.45.2.2.5.2.25 0 .5-.05.2-.1.35-.35-.45-.3-.45-1.45v-1.25q0-1.65-.65-2.25-.6-.6-1.9-.6-.95 0-1.65.3l.3 1.05m1.35 3.55q-.9 0-.9-.8 0-1.05 1.6-1.05.15 0 .5.1v.55q0 1.2-1.2 1.2m-41.2 10.25l.55-1.15q-.35-.2-1.05-.2-.9 0-1.5.6v-.5h-1.3v5.75h1.3v-3.3q0-.6.4-1 .35-.45.8-.45.45 0 .8.25m3.25-1.35q-.95 0-1.65.3l.3 1.05q.5-.25 1.25-.25 1.3 0 1.3 1.05-.35-.1-.55-.1-1.4 0-2.15.55-.75.6-.75 1.55 0 .9.55 1.35.5.45 1.45.45.5 0 .95-.2.45-.15.65-.45.05.25.3.45.2.2.5.2.25 0 .5-.05.2-.1.35-.35-.45-.3-.45-1.45v-1.25q0-1.65-.65-2.25-.6-.6-1.9-.6m-.9 4.1q0-1.05 1.6-1.05.15 0 .5.1v.55q0 1.2-1.2 1.2-.9 0-.9-.8m-10.8-4h-1.35v8h1.35v-2.4q.55.25 1.15.25 1.35 0 2.1-.75t.75-2.2q0-3-2.75-3-.75 0-1.25.5v-.4m0 1.4q.4-.35.85-.35.95 0 1.35.4.4.4.4 1.45 0 .95-.4 1.4-.4.4-1.35.4-.45 0-.85-.25v-3.05m9.2-12.35q0 1.35.75 2.2.7.8 2 .8t2.05-.8q.75-.8.75-2.2 0-1.35-.75-2.15-.7-.8-2.05-.8-1.25 0-2 .8-.75.85-.75 2.15m1.4 0q0-.9.35-1.35.4-.5 1-.5 1.4 0 1.4 1.85 0 .9-.4 1.4-.35.5-1 .5-1.35 0-1.35-1.9m-2.3-4.55q-.8-.55-2.15-.55-1.6 0-2.6 1.15-1 1.2-1 2.95 0 1.85.9 2.95t2.55 1.1q1.65 0 2.5-.9l-.65-1.15q-.6.8-1.75.8-.95 0-1.55-.75-.55-.75-.55-2t.6-2.1q.65-.8 1.6-.8 1.05 0 1.5.45l.6-1.15m9.1-.75l-1.35.3v6.75q0 1.25.9 1.25.75 0 1.1-.6-.65-.2-.65-1.25v-6.45m36.9 32.25q0-1.1-.55-1.7-.6-.6-1.65-.6-1.05 0-1.6.65l-.25-.55h-.95v5.75h1.3v-4.15q.2-.25.55-.4.35-.2.6-.2.65 0 .95.35.3.35.3 1.1v3.3h1.3v-3.55m4.6-1.1v-1.1h-1.6v-1.65l-1.3.5v1.15h-.7v1.1h.7v2.9q0 .9.45 1.35.45.5 1.3.5.9 0 1.35-.15v-1.25q-.4.25-.9.25t-.7-.25q-.2-.25-.2-.85v-2.5h1.6m12.3 3.25q-.25.3-.25.7 0 .4.25.7.3.25.7.25.4 0 .7-.25.25-.3.25-.7 0-.4-.25-.7-.3-.25-.7-.25-.4 0-.7.25m-6.65-1.6q0-1.65-.65-2.25-.6-.6-1.9-.6-.95 0-1.65.3l.3 1.05q.5-.25 1.25-.25 1.3 0 1.3 1.05-.35-.1-.55-.1-1.4 0-2.15.55-.75.6-.75 1.55 0 .9.55 1.35.5.45 1.45.45.5 0 .95-.2.45-.15.65-.45.05.25.3.45.2.2.5.2.25 0 .5-.05.2-.1.35-.35-.45-.3-.45-1.45v-1.25m-1.35.3v.55q0 1.2-1.2 1.2-.9 0-.9-.8 0-1.05 1.6-1.05.15 0 .5.1m5.7-1.7l.4-1.05q-.8-.4-1.7-.4-.85 0-1.45.4-.55.4-.55 1.15 0 1.15 1.5 1.75.65.3.9.5t.25.55q0 .55-.8.55-.75 0-1.35-.5l-.5 1.1q.55.25.9.35.35.1.95.1 1 0 1.6-.45.6-.45.6-1.25 0-.6-.35-1.05-.35-.4-1.1-.7-.75-.3-.95-.5-.25-.15-.25-.4 0-.55.7-.55.8 0 1.2.4m1.25-15.15l-1.5 3.5-1.35-3.5h-1.45l2.6 5.85h.45l2.65-5.85h-1.4m-12.75 2.85q0-1.35-.75-2.15-.7-.8-2.05-.8-1.25 0-2 .8-.75.85-.75 2.15 0 1.35.75 2.2.7.8 2 .8t2.05-.8q.75-.8.75-2.2m-3.8-1.35q.4-.5 1-.5 1.4 0 1.4 1.85 0 .9-.4 1.4-.35.5-1 .5-1.35 0-1.35-1.9 0-.9.35-1.35m6.5-1.6q-.85 0-1.45.4-.55.4-.55 1.15 0 1.15 1.5 1.75.65.3.9.5t.25.55q0 .55-.8.55-.75 0-1.35-.5l-.5 1.1q.55.25.9.35.35.1.95.1 1 0 1.6-.45.6-.45.6-1.25 0-.6-.35-1.05-.35-.4-1.1-.7-.75-.3-.95-.5-.25-.15-.25-.4 0-.55.7-.55.8 0 1.2.4l.4-1.05q-.8-.4-1.7-.4M652 348.15l.55-1.15q-.35-.2-1.05-.2-.9 0-1.5.6v-.5h-1.3v5.75h1.3v-3.3q0-.6.4-1 .35-.45.8-.45.45 0 .8.25m6.5 2.05q.1-.5.1-.75 0-1.15-.75-1.9t-2-.75q-1.15 0-2 .85-.85.85-.85 2.2t.75 2.15q.8.75 2.1.75 1.4 0 2.1-.55l-.5-1.05q-.5.5-1.4.5-.75 0-1.2-.4-.4-.4-.45-1.05h4.1m-2.6-2.3q1.25 0 1.35 1.25h-2.8q.3-1.25 1.45-1.25m4.15 4.75h1.35v-5.75h-2.1v1.1h.75v4.65m3.45-4.5q.5-.25 1.25-.25 1.3 0 1.3 1.05-.35-.1-.55-.1-1.4 0-2.15.55-.75.6-.75 1.55 0 .9.55 1.35.5.45 1.45.45.5 0 .95-.2.45-.15.65-.45.05.25.3.45.2.2.5.2.25 0 .5-.05.2-.1.35-.35-.45-.3-.45-1.45v-1.25q0-1.65-.65-2.25-.6-.6-1.9-.6-.95 0-1.65.3l.3 1.05m1.35 3.55q-.9 0-.9-.8 0-1.05 1.6-1.05.15 0 .5.1v.55q0 1.2-1.2 1.2m20.95 8.9q-.85 0-1.45.4-.55.4-.55 1.15 0 1.15 1.5 1.75.65.3.9.5t.25.55q0 .55-.8.55-.75 0-1.35-.5l-.5 1.1q.55.25.9.35.35.1.95.1 1 0 1.6-.45.6-.45.6-1.25 0-.6-.35-1.05-.35-.4-1.1-.7-.75-.3-.95-.5-.25-.15-.25-.4 0-.55.7-.55.8 0 1.2.4l.4-1.05q-.8-.4-1.7-.4m-14.05 4.1v-1.25q0-1.65-.65-2.25-.6-.6-1.9-.6-.95 0-1.65.3l.3 1.05q.5-.25 1.25-.25 1.3 0 1.3 1.05-.35-.1-.55-.1-1.4 0-2.15.55-.75.6-.75 1.55 0 .9.55 1.35.5.45 1.45.45.5 0 .95-.2.45-.15.65-.45.05.25.3.45.2.2.5.2.25 0 .5-.05.2-.1.35-.35-.45-.3-.45-1.45m-1.35-.95v.55q0 1.2-1.2 1.2-.9 0-.9-.8 0-1.05 1.6-1.05.15 0 .5.1m7.9-2.35q-.75.85-.75 2.15 0 1.35.75 2.2.7.8 2 .8t2.05-.8q.75-.8.75-2.2 0-1.35-.75-2.15-.7-.8-2.05-.8-1.25 0-2 .8m1 .8q.4-.5 1-.5 1.4 0 1.4 1.85 0 .9-.4 1.4-.35.5-1 .5-1.35 0-1.35-1.9 0-.9.35-1.35m-4.5-1.6q-.85 0-1.45.4-.55.4-.55 1.15 0 1.15 1.5 1.75.65.3.9.5t.25.55q0 .55-.8.55-.75 0-1.35-.5l-.5 1.1q.55.25.9.35.35.1.95.1 1 0 1.6-.45.6-.45.6-1.25 0-.6-.35-1.05-.35-.4-1.1-.7-.75-.3-.95-.5-.25-.15-.25-.4 0-.55.7-.55.8 0 1.2.4l.4-1.05q-.8-.4-1.7-.4m2.35-11.5q0-1.1-.55-1.7-.6-.6-1.65-.6-1.05 0-1.6.65l-.25-.55h-.95v5.75h1.3v-4.15q.2-.25.55-.4.35-.2.6-.2.65 0 .95.35.3.35.3 1.1v3.3h1.3v-3.55m5.9-1.5q-.7-.8-2.05-.8-1.25 0-2 .8-.75.85-.75 2.15 0 1.35.75 2.2.7.8 2 .8t2.05-.8q.75-.8.75-2.2 0-1.35-.75-2.15m-.65 2.15q0 .9-.4 1.4-.35.5-1 .5-1.35 0-1.35-1.9 0-.9.35-1.35.4-.5 1-.5 1.4 0 1.4 1.85m-21.1-4.85q-.25-.25-.55-.25-.35 0-.55.25-.25.25-.25.55 0 .3.25.55.2.25.55.25.3 0 .55-.25.2-.25.2-.55 0-.3-.2-.55z" id="c"/><path id="b" stroke="#8CA8B8" stroke-linejoin="round" stroke-linecap="round" fill="none" d="M694.75 309.85q4.1 0 7 2.95 2.95 2.9 2.95 7v81.6q-.1 3.95-2.95 6.75-2.9 2.95-7 2.95H586.1q-4.1 0-7-2.95-2.8-2.8-2.9-6.75v-81.6q0-4.1 2.9-7 2.9-2.95 7-2.95h108.6"/></defs><g transform="translate(-573.95 -307.45)"><use xlink:href="#a"/><use xlink:href="#b"/></g><use xlink:href="#c" transform="translate(-573.95 -307.45)"/></svg>