<svg xmlns="http://www.w3.org/2000/svg" xmlns:xlink="http://www.w3.org/1999/xlink" preserveAspectRatio="none" width="129" height="102" viewBox="0 0 129 102"><defs><g id="a"><path fill="#FF0" d="M128.75 10.35q0-4.1-2.95-7-2.9-2.95-7-2.95H10.15q-4.1 0-7 2.95-2.9 2.9-2.9 7v81.6q.1 3.95 2.9 6.75 2.9 2.95 7 2.95H118.8q4.1 0 7-2.95 2.85-2.8 2.95-6.75v-81.6m-22.1 7.2q0-.35-.25-.6-.25-.2-1-.55-1.6-.65-1.6-1.85 0-.85.6-1.3.6-.45 1.6-.45.95 0 1.85.45l-.45 1.15q-.45-.45-1.35-.45-.75 0-.75.65 0 .2.25.4t1.1.55q.8.3 1.15.75.4.5.4 1.15 0 .85-.65 1.35-.65.5-1.75.5-.65 0-1-.1-.4-.1-1-.4l.55-1.15q.65.5 1.45.5.85 0 .85-.6m-4.05-1.6v1.35q0 1.25.5 1.55-.2.3-.4.4-.2.05-.5.05t-.6-.2q-.25-.25-.3-.55-.2.35-.7.55-.5.2-1.05.2-1 0-1.6-.5-.55-.5-.55-1.45 0-1.05.8-1.7.8-.6 2.3-.6.3 0 .65.1 0-1.1-1.4-1.1-.85 0-1.4.25l-.3-1.15q.75-.35 1.8-.35 1.4 0 2.1.65.65.65.65 2.5m-18.5-4q-.25-.25-.25-.6t.25-.6q.25-.25.6-.25t.6.25q.25.25.25.6t-.25.6q-.25.25-.6.25t-.6-.25m3.3-1.35l1.45-.35v7.05q0 1.15.7 1.35-.35.65-1.15.65-1 0-1-1.35V10.6m-5.35 2.65l-.45 1.15q-.45-.45-1.35-.45-.75 0-.75.65 0 .2.25.4t1.1.55q.8.3 1.15.75.4.5.4 1.15 0 .85-.65 1.35-.65.5-1.75.5-.65 0-1-.1-.4-.1-1-.4l.55-1.15q.65.5 1.45.5.85 0 .85-.6 0-.35-.25-.6-.25-.2-1-.55-1.6-.65-1.6-1.85 0-.85.6-1.3.6-.45 1.6-.45.95 0 1.85.45m1.9.9h-.8V12.9h2.25v6.3h-1.45v-5.05m-.85 8.45l1.45-.35v8.95H83.1v-.4q-.2.2-.65.35-.4.15-.9.15-1.3 0-2.05-.8-.75-.85-.75-2.35 0-1.45.85-2.4.9-.95 2.2-.95.7 0 1.3.3v-2.5m10.65-9.8q1.15 0 1.8.65.65.65.65 1.9v3.85h-1.45v-3.85q0-.6-.35-.95t-.95-.35q-.35 0-.75.2-.35.2-.5.45v4.5h-1.5v-8.6l1.5-.35v3.05q.55-.5 1.55-.5m2.65 15.5q.4.5.4 1.15 0 .85-.65 1.35-.65.5-1.75.5-.65 0-1-.1-.4-.1-1-.4l.55-1.15q.65.5 1.45.5.85 0 .85-.6 0-.35-.25-.6-.25-.2-1-.55-1.6-.65-1.6-1.85 0-.85.6-1.3.6-.45 1.6-.45.95 0 1.85.45L96 26.4q-.45-.45-1.35-.45-.75 0-.75.65 0 .2.25.4t1.1.55q.8.3 1.15.75m-7.8-3.5q1.45 0 2.2.85.8.9.8 2.4t-.8 2.4q-.8.85-2.2.85-1.45 0-2.2-.85-.8-.9-.8-2.4 0-1.45.8-2.35.85-.9 2.2-.9m-4.65 12q.7 0 1.3.3v-2.5l1.45-.35v8.95h-1.45v-.4q-.2.2-.65.35-.4.15-.9.15-1.3 0-2.05-.8-.75-.85-.75-2.35 0-1.45.85-2.4.9-.95 2.2-.95m3.8 3.35q0-1.5.9-2.4.9-.95 2.2-.95 1.35 0 2.2.8.8.85.8 2.1 0 .25-.1.8h-4.5q.05.75.55 1.2.45.4 1.25.4 1 0 1.55-.55l.55 1.15q-.8.6-2.3.6-1.45 0-2.3-.8-.8-.85-.8-2.35m-1.3 8.65q1.1 0 1.9.6l-.6 1.1q-.55-.45-1.4-.45-.85 0-1.3.55-.5.55-.5 1.5 0 2 1.9 2 .8 0 1.4-.55l.55 1.15q-.65.4-1.1.5-.5.1-1.15.1-1.45 0-2.3-.85-.8-.85-.8-2.35 0-1.45.9-2.4.9-.9 2.5-.9m9.95.1h1l.3.6q.6-.7 1.55-.7 1.25 0 1.9.7.3-.3.75-.5.5-.2 1-.2 1.05 0 1.65.6.55.6.55 1.65v4.15h-1.45v-3.95q0-1.2-1.1-1.2-.35 0-.65.2-.3.15-.4.4v4.55H100v-4.15q0-.45-.25-.75-.3-.25-.8-.25-.3 0-.6.2-.35.2-.5.45v4.5H96.4v-6.3m6.2 11.9q1.45 0 2.2.85.8.9.8 2.4t-.8 2.4q-.8.85-2.2.85-1.45 0-2.2-.85-.8-.9-.8-2.4 0-1.45.8-2.35.85-.9 2.2-.9m3.85 12q1.4 0 2.1.65.65.65.65 2.5v1.35q0 1.25.5 1.55-.2.3-.4.4-.2.05-.5.05t-.6-.2q-.25-.25-.3-.55-.2.35-.7.55-.5.2-1.05.2-1 0-1.6-.5-.55-.5-.55-1.45 0-1.05.8-1.7.8-.6 2.3-.6.3 0 .65.1 0-1.1-1.4-1.1-.85 0-1.4.25l-.3-1.15q.75-.35 1.8-.35M94.4 54.45q-.8.85-2.2.85-1.45 0-2.2-.85-.8-.9-.8-2.4 0-1.45.8-2.35.85-.9 2.2-.9 1.45 0 2.2.85.8.9.8 2.4t-.8 2.4m.65 4.3q.45 0 .9.25.45.2.6.2.35 0 .5-.45h.85q-.2.85-.55 1.2-.3.3-.8.3-.35 0-.85-.2-.45-.25-.6-.25-.3 0-.5.45h-.85q.1-.65.45-1.1.35-.4.85-.4m-1.2 2.4q.75-.35 1.8-.35 1.4 0 2.1.65.65.65.65 2.5v1.35q0 1.25.5 1.55-.2.3-.4.4-.2.05-.5.05t-.6-.2q-.25-.25-.3-.55-.2.35-.7.55-.5.2-1.05.2-1 0-1.6-.5-.55-.5-.55-1.45 0-1.05.8-1.7.8-.6 2.3-.6.3 0 .65.1 0-1.1-1.4-1.1-.85 0-1.4.25l-.3-1.15m-11.6-.35q1.4 0 2.1.65.65.65.65 2.5v1.35q0 1.25.5 1.55-.2.3-.4.4-.2.05-.5.05t-.6-.2q-.25-.25-.3-.55-.2.35-.7.55-.5.2-1.05.2-1 0-1.6-.5-.55-.5-.55-1.45 0-1.05.8-1.7.8-.6 2.3-.6.3 0 .65.1 0-1.1-1.4-1.1-.85 0-1.4.25l-.3-1.15q.75-.35 1.8-.35m4.2-2.2l1.5-.35v2.9q.55-.35 1.25-.35 1.4 0 2.25.9.85.85.85 2.2 0 1.6-.85 2.5-.85.9-2.3.9-.9 0-1.5-.45l-.35.45h-.85v-8.7M87 72.9h1.45v4q0 1.2 1.1 1.2.5 0 .9-.25.45-.25.6-.6V72.9h1.45v6.3h-1.45v-.5q-.35.25-.85.45-.55.15-1 .15-2.2 0-2.2-2.3v-4.1m8.1 0l.3.6q.6-.7 1.55-.7 1.25 0 1.9.7.3-.3.75-.5.5-.2 1-.2 1.05 0 1.65.6.55.6.55 1.65v4.15h-1.45v-3.95q0-1.2-1.1-1.2-.35 0-.65.2-.3.15-.4.4v4.55h-1.5v-4.15q0-.45-.25-.75-.3-.25-.8-.25-.3 0-.6.2-.35.2-.5.45v4.5H94.1v-6.3h1m-3.95 11.9q1.4 0 2.1.65.65.65.65 2.5v1.35q0 1.25.5 1.55-.2.3-.4.4-.2.05-.5.05t-.6-.2q-.25-.25-.3-.55-.2.35-.7.55-.5.2-1.05.2-1 0-1.6-.5-.55-.5-.55-1.45 0-1.05.8-1.7.8-.6 2.3-.6.3 0 .65.1 0-1.1-1.4-1.1-.85 0-1.4.25l-.3-1.15q.75-.35 1.8-.35m8.05 1.6q-.3-.35-1-.35-.3 0-.65.15-.4.2-.6.45v4.55H95.5v-6.3h1.05l.25.6q.6-.7 1.8-.7 1.1 0 1.75.7.65.65.65 1.85v3.85h-1.45v-3.65q0-.8-.35-1.15M81.85 76.3q.4.5.4 1.15 0 .85-.65 1.35-.65.5-1.75.5-.65 0-1-.1-.4-.1-1-.4l.55-1.15q.65.5 1.45.5.85 0 .85-.6 0-.35-.25-.6-.25-.2-1-.55-1.6-.65-1.6-1.85 0-.85.6-1.3.6-.45 1.6-.45.95 0 1.85.45l-.45 1.15q-.45-.45-1.35-.45-.75 0-.75.65 0 .2.25.4t1.1.55q.8.3 1.15.75m3.1 9.75q-.35 0-.65.2-.3.15-.4.4v4.55h-1.5v-4.15q0-.45-.25-.75-.3-.25-.8-.25-.3 0-.6.2-.35.2-.5.45v4.5H78.8v-6.3h1l.3.6q.6-.7 1.55-.7 1.25 0 1.9.7.3-.3.75-.5.5-.2 1-.2 1.05 0 1.65.6.55.6.55 1.65v4.15h-1.45v-3.95q0-1.2-1.1-1.2m17.9-.9q.75-.35 1.8-.35 1.4 0 2.1.65.65.65.65 2.5v1.35q0 1.25.5 1.55-.2.3-.4.4-.2.05-.5.05t-.6-.2q-.25-.25-.3-.55-.2.35-.7.55-.5.2-1.05.2-1 0-1.6-.5-.55-.5-.55-1.45 0-1.05.8-1.7.8-.6 2.3-.6.3 0 .65.1 0-1.1-1.4-1.1-.85 0-1.4.25l-.3-1.15M68.3 19.3h-.55l-2.8-6.4h1.6l1.5 3.85 1.6-3.85h1.55l-2.9 6.4m8.5-3.35v1.35q0 1.25.5 1.55-.2.3-.4.4-.2.05-.5.05t-.6-.2q-.25-.25-.3-.55-.2.35-.7.55-.5.2-1.05.2-1 0-1.6-.5-.55-.5-.55-1.45 0-1.05.8-1.7.8-.6 2.3-.6.3 0 .65.1 0-1.1-1.4-1.1-.85 0-1.4.25l-.3-1.15q.75-.35 1.8-.35 1.4 0 2.1.65.65.65.65 2.5m-31.05-.25q0 .25-.1.8h-4.5q.05.75.55 1.2.45.4 1.25.4 1 0 1.55-.55l.55 1.15q-.8.6-2.3.6-1.45 0-2.3-.8-.8-.85-.8-2.35t.9-2.4q.9-.95 2.2-.95 1.35 0 2.2.8.8.85.8 2.1m14.85-2.45l-.45 1.15q-.45-.45-1.35-.45-.75 0-.75.65 0 .2.25.4t1.1.55q.8.3 1.15.75.4.5.4 1.15 0 .85-.65 1.35-.65.5-1.75.5-.65 0-1-.1-.4-.1-1-.4l.55-1.15q.65.5 1.45.5.85 0 .85-.6 0-.35-.25-.6-.25-.2-1-.55-1.6-.65-1.6-1.85 0-.85.6-1.3.6-.45 1.6-.45.95 0 1.85.45m-7.35 1.8q.3 0 .65.1 0-1.1-1.4-1.1-.85 0-1.4.25l-.3-1.15q.75-.35 1.8-.35 1.4 0 2.1.65.65.65.65 2.5v1.35q0 1.25.5 1.55-.2.3-.4.4-.2.05-.5.05t-.6-.2q-.25-.25-.3-.55-.2.35-.7.55-.5.2-1.05.2-1 0-1.6-.5-.55-.5-.55-1.45 0-1.05.8-1.7.8-.6 2.3-.6m-1.35 7.3h1.45l-1.3 1.75H50.9l1-1.75m8.4 3.5q.35.55.35 1.3 0 1.1-.65 1.75-.65.65-1.65.65-.15 0-.4-.05l-.25-.05q-.05 0-.3.15-.3.1-.3.25 0 .25.4.25.2 0 .65-.1.4-.1.7-.1 2.15 0 2.15 1.75 0 .95-.85 1.45-.85.55-2.05.55-1.45 0-2.65-.85l.95-1.15q.75.7 1.7.7.65 0 1.05-.15.4-.2.4-.55 0-.55-.9-.55-.25 0-.75.05-.45.1-.7.1-1.5 0-1.5-1.1 0-.3.25-.6t.55-.45q-1.05-.7-1.05-2 0-1 .75-1.65.7-.65 1.8-.65.85 0 1.4.3l.6-.65 1 .9-.7.5m-7.4 1.3q0-1.1-1.4-1.1-.85 0-1.4.25l-.3-1.15q.75-.35 1.8-.35 1.4 0 2.1.65.65.65.65 2.5v1.35q0 1.25.5 1.55-.2.3-.4.4-.2.05-.5.05t-.6-.2q-.25-.25-.3-.55-.2.35-.7.55-.5.2-1.05.2-1 0-1.6-.5-.55-.5-.55-1.45 0-1.05.8-1.7.8-.6 2.3-.6.3 0 .65.1m-.75 9.75h1l.3.6q.6-.7 1.55-.7 1.25 0 1.9.7.3-.3.75-.5.5-.2 1-.2 1.05 0 1.65.6.55.6.55 1.65v4.15H59.4v-3.95q0-1.2-1.1-1.2-.35 0-.65.2-.3.15-.4.4v4.55h-1.5v-4.15q0-.45-.25-.75-.3-.25-.8-.25-.3 0-.6.2-.35.2-.5.45v4.5h-1.45v-6.3m-8.2-11.3q.8.85.8 2.1 0 .25-.1.8h-4.5q.05.75.55 1.2.45.4 1.25.4 1 0 1.55-.55l.55 1.15q-.8.6-2.3.6-1.45 0-2.3-.8-.8-.85-.8-2.35t.9-2.4q.9-.95 2.2-.95 1.35 0 2.2.8m-2.5 11.3h1.05l.25.6q.6-.7 1.8-.7 1.1 0 1.75.7.65.65.65 1.85v3.85H45.5v-3.65q0-.8-.35-1.15-.3-.35-1-.35-.3 0-.65.15-.4.2-.6.45v4.55h-1.45v-6.3m8.85-2.15q.25.25.25.6t-.25.6q-.25.25-.6.25t-.6-.25q-.25-.25-.25-.6t.25-.6q.25-.25.6-.25t.6.25m-2.15 2.15h2.25v6.3h-1.45v-5.05h-.8V36.9m-6.8 9.6q.35 0 .6.25t.25.6q0 .35-.25.6t-.6.25q-.35 0-.6-.25t-.25-.6q0-.35.25-.6t.6-.25m2.45 2.4h1l.3.6q.6-.7 1.55-.7 1.25 0 1.9.7.3-.3.75-.5.5-.2 1-.2 1.05 0 1.65.6.55.6.55 1.65v4.15h-1.45v-3.95q0-1.2-1.1-1.2-.35 0-.65.2-.3.15-.4.4v4.55h-1.5v-4.15q0-.45-.25-.75-.3-.25-.8-.25-.3 0-.6.2-.35.2-.5.45v4.5H43.8v-6.3m12.35-.1q1.4 0 2.1.65.65.65.65 2.5v1.35q0 1.25.5 1.55-.2.3-.4.4-.2.05-.5.05t-.6-.2q-.25-.25-.3-.55-.2.35-.7.55-.5.2-1.05.2-1 0-1.6-.5-.55-.5-.55-1.45 0-1.05.8-1.7.8-.6 2.3-.6.3 0 .65.1 0-1.1-1.4-1.1-.85 0-1.4.25l-.3-1.15q.75-.35 1.8-.35m14.95-24q1.4 0 2.1.65.65.65.65 2.5v1.35q0 1.25.5 1.55-.2.3-.4.4-.2.05-.5.05t-.6-.2q-.25-.25-.3-.55-.2.35-.7.55-.5.2-1.05.2-1 0-1.6-.5-.55-.5-.55-1.45 0-1.05.8-1.7.8-.6 2.3-.6.3 0 .65.1 0-1.1-1.4-1.1-.85 0-1.4.25l-.3-1.15q.75-.35 1.8-.35m-5.1.1h1.45v6.3H66v-.5q-.35.25-.85.45-.55.15-1 .15-2.2 0-2.2-2.3v-4.1h1.45v4q0 1.2 1.1 1.2.5 0 .9-.25.45-.25.6-.6V24.9m4.6 9.85q.25.25.25.6t-.25.6q-.25.25-.6.25t-.6-.25q-.25-.25-.25-.6t.25-.6q.25-.25.6-.25t.6.25m-2.15 2.15h2.25v6.3h-1.45v-5.05h-.8V36.9m-1.85.55q.65.65.65 2.5v1.35q0 1.25.5 1.55-.2.3-.4.4-.2.05-.5.05t-.6-.2q-.25-.25-.3-.55-.2.35-.7.55-.5.2-1.05.2-1 0-1.6-.5-.55-.5-.55-1.45 0-1.05.8-1.7.8-.6 2.3-.6.3 0 .65.1 0-1.1-1.4-1.1-.85 0-1.4.25l-.3-1.15q.75-.35 1.8-.35 1.4 0 2.1.65M63.5 48.8q1.1 0 1.9.6l-.6 1.1q-.55-.45-1.4-.45-.85 0-1.3.55-.5.55-.5 1.5 0 2 1.9 2 .8 0 1.4-.55l.55 1.15q-.65.4-1.1.5-.5.1-1.15.1-1.45 0-2.3-.85-.8-.85-.8-2.35 0-1.45.9-2.4.9-.9 2.5-.9m4.15-.55h-.85q.1-.65.45-1.1.35-.4.85-.4.45 0 .9.25.45.2.6.2.35 0 .5-.45h.85q-.2.85-.55 1.2-.3.3-.8.3-.35 0-.85-.2-.45-.25-.6-.25-.3 0-.5.45m1.05.55q1.4 0 2.1.65.65.65.65 2.5v1.35q0 1.25.5 1.55-.2.3-.4.4-.2.05-.5.05t-.6-.2q-.25-.25-.3-.55-.2.35-.7.55-.5.2-1.05.2-1 0-1.6-.5-.55-.5-.55-1.45 0-1.05.8-1.7.8-.6 2.3-.6.3 0 .65.1 0-1.1-1.4-1.1-.85 0-1.4.25l-.3-1.15q.75-.35 1.8-.35m7.35-8.5q.4.5.4 1.15 0 .85-.65 1.35-.65.5-1.75.5-.65 0-1-.1-.4-.1-1-.4l.55-1.15q.65.5 1.45.5.85 0 .85-.6 0-.35-.25-.6-.25-.2-1-.55-1.6-.65-1.6-1.85 0-.85.6-1.3.6-.45 1.6-.45.95 0 1.85.45l-.45 1.15q-.45-.45-1.35-.45-.75 0-.75.65 0 .2.25.4t1.1.55q.8.3 1.15.75M20.8 10.6h1.5v7.25h3.9v1.35h-5.4v-8.6m6.95 5.05q.8-.6 2.3-.6.3 0 .65.1 0-1.1-1.4-1.1-.85 0-1.4.25l-.3-1.15q.75-.35 1.8-.35 1.4 0 2.1.65.65.65.65 2.5v1.35q0 1.25.5 1.55-.2.3-.4.4-.2.05-.5.05t-.6-.2q-.25-.25-.3-.55-.2.35-.7.55-.5.2-1.05.2-1 0-1.6-.5-.55-.5-.55-1.45 0-1.05.8-1.7m9.95-2.75h1.55l-2.9 6.4h-.55L33 12.9h1.6l1.5 3.85 1.6-3.85m-1.55 9.7l1.45-.35v8.95h-1.45v-.4q-.2.2-.65.35-.4.15-.9.15-1.3 0-2.05-.8-.75-.85-.75-2.35 0-1.45.85-2.4.9-.95 2.2-.95.7 0 1.3.3v-2.5m3.05 14.85q.65.65.65 2.5v1.35q0 1.25.5 1.55-.2.3-.4.4-.2.05-.5.05t-.6-.2q-.25-.25-.3-.55-.2.35-.7.55-.5.2-1.05.2-1 0-1.6-.5-.55-.5-.55-1.45 0-1.05.8-1.7.8-.6 2.3-.6.3 0 .65.1 0-1.1-1.4-1.1-.85 0-1.4.25l-.3-1.15q.75-.35 1.8-.35 1.4 0 2.1.65m-8.7 11.8q.6-.45 1.6-.45.95 0 1.85.45l-.45 1.15q-.45-.45-1.35-.45-.75 0-.75.65 0 .2.25.4t1.1.55q.8.3 1.15.75.4.5.4 1.15 0 .85-.65 1.35-.65.5-1.75.5-.65 0-1-.1-.4-.1-1-.4l.55-1.15q.65.5 1.45.5.85 0 .85-.6 0-.35-.25-.6-.25-.2-1-.55-1.6-.65-1.6-1.85 0-.85.6-1.3m5.15-.35v-1.25l1.5-.55v1.8h1.7v1.2h-1.7v2.75q0 .65.2.95.2.3.75.3.5 0 .95-.3v1.35q-.5.15-1.45.15t-1.45-.5q-.5-.55-.5-1.5v-3.2h-.7v-1.2h.7m-3.7 11.9q.95 0 1.85.45l-.45 1.15q-.45-.45-1.35-.45-.75 0-.75.65 0 .2.25.4t1.1.55q.8.3 1.15.75.4.5.4 1.15 0 .85-.65 1.35-.65.5-1.75.5-.65 0-1-.1-.4-.1-1-.4l.55-1.15q.65.5 1.45.5.85 0 .85-.6 0-.35-.25-.6-.25-.2-1-.55-1.6-.65-1.6-1.85 0-.85.6-1.3.6-.45 1.6-.45m3.85.9q.9-.9 2.5-.9 1.1 0 1.9.6l-.6 1.1q-.55-.45-1.4-.45-.85 0-1.3.55-.5.55-.5 1.5 0 2 1.9 2 .8 0 1.4-.55l.55 1.15q-.65.4-1.1.5-.5.1-1.15.1-1.45 0-2.3-.85-.8-.85-.8-2.35 0-1.45.9-2.4m-6.7-10q0 .25-.1.8h-4.5q.05.75.55 1.2.45.4 1.25.4 1 0 1.55-.55l.55 1.15q-.8.6-2.3.6-1.45 0-2.3-.8-.8-.85-.8-2.35t.9-2.4q.9-.95 2.2-.95 1.35 0 2.2.8.8.85.8 2.1m-3.15 9.1q1.35 0 2.2.8.8.85.8 2.1 0 .25-.1.8h-4.5q.05.75.55 1.2.45.4 1.25.4 1 0 1.55-.55l.55 1.15q-.8.6-2.3.6-1.45 0-2.3-.8-.8-.85-.8-2.35t.9-2.4q.9-.95 2.2-.95m-5.3 12.55q.55-.55 1.35-.55 3 0 3 3.3 0 1.55-.85 2.4-.8.8-2.25.8-.7 0-1.25-.25v2.6h-1.5V72.9h1.5v.45m6.15.4q.9-.95 2.2-.95 1.35 0 2.2.8.8.85.8 2.1 0 .25-.1.8h-4.5q.05.75.55 1.2.45.4 1.25.4 1 0 1.55-.55l.55 1.15q-.8.6-2.3.6-1.45 0-2.3-.8-.8-.85-.8-2.35t.9-2.4m6.65-3.15l1.45-.35v7.05q0 1.15.7 1.35-.35.65-1.15.65-1 0-1-1.35V70.6m3.7 3.1q.85-.9 2.2-.9 1.45 0 2.2.85.8.9.8 2.4t-.8 2.4q-.8.85-2.2.85-1.45 0-2.2-.85-.8-.9-.8-2.4 0-1.45.8-2.35m-3.2 12.5v-1.3h5.45v.55l-3.25 4.45h3.3v1.3H33.9v-.5l3.4-4.5h-3.35m-13.6-1.3h1.6l1.5 3.85 1.6-3.85h1.55l-2.9 6.4h-.55l-2.8-6.4m7.55.85q.9-.95 2.2-.95 1.35 0 2.2.8.8.85.8 2.1 0 .25-.1.8h-4.5q.05.75.55 1.2.45.4 1.25.4 1 0 1.55-.55l.55 1.15q-.8.6-2.3.6-1.45 0-2.3-.8-.8-.85-.8-2.35t.9-2.4m49.95-36.1q.8.9.8 2.4t-.8 2.4q-.8.85-2.2.85-1.45 0-2.2-.85-.8-.9-.8-2.4 0-1.45.8-2.35.85-.9 2.2-.9 1.45 0 2.2.85m-1 11.15q.95 0 1.85.45l-.45 1.15q-.45-.45-1.35-.45-.75 0-.75.65 0 .2.25.4t1.1.55q.8.3 1.15.75.4.5.4 1.15 0 .85-.65 1.35-.65.5-1.75.5-.65 0-1-.1-.4-.1-1-.4l.55-1.15q.65.5 1.45.5.85 0 .85-.6 0-.35-.25-.6-.25-.2-1-.55-1.6-.65-1.6-1.85 0-.85.6-1.3.6-.45 1.6-.45m-14.5-3.05q-.3 0-.55-.05l-.25-.75q.2.05.4.05.75 0 .75-.55 0-.2-.1-.35-.1-.2-.3-.25l.5-.5q1.05.2 1.05 1.2 0 .55-.4.9-.45.3-1.1.3m4.9 3.05q1.35 0 2.2.8.8.85.8 2.1 0 .25-.1.8h-4.5q.05.75.55 1.2.45.4 1.25.4 1 0 1.55-.55l.55 1.15q-.8.6-2.3.6-1.45 0-2.3-.8-.8-.85-.8-2.35t.9-2.4q.9-.95 2.2-.95M65.4 72.9l.25.6q.6-.7 1.8-.7 1.1 0 1.75.7.65.65.65 1.85v3.85H68.4v-3.65q0-.8-.35-1.15-.3-.35-1-.35-.3 0-.65.15-.4.2-.6.45v4.55h-1.45v-6.3h1.05m6.45.8q.85-.9 2.2-.9 1.45 0 2.2.85.8.9.8 2.4t-.8 2.4q-.8.85-2.2.85-1.45 0-2.2-.85-.8-.9-.8-2.4 0-1.45.8-2.35M52.2 60.9h1.55l-2.9 6.4h-.55l-2.8-6.4h1.6l1.5 3.85 1.6-3.85m4.4-.1q1.4 0 2.1.65.65.65.65 2.5v1.35q0 1.25.5 1.55-.2.3-.4.4-.2.05-.5.05t-.6-.2q-.25-.25-.3-.55-.2.35-.7.55-.5.2-1.05.2-1 0-1.6-.5-.55-.5-.55-1.45 0-1.05.8-1.7.8-.6 2.3-.6.3 0 .65.1 0-1.1-1.4-1.1-.85 0-1.4.25l-.3-1.15q.75-.35 1.8-.35m-14.55-5.6H40.6v-5.05h-.8V48.9h2.25v6.3m-.2 6.5q.85-.9 2.2-.9 1.45 0 2.2.85.8.9.8 2.4t-.8 2.4q-.8.85-2.2.85-1.45 0-2.2-.85-.8-.9-.8-2.4 0-1.45.8-2.35m5.3 11.2h1l.3.6q.6-.7 1.55-.7 1.25 0 1.9.7.3-.3.75-.5.5-.2 1-.2 1.05 0 1.65.6.55.6.55 1.65v4.15H54.4v-3.95q0-1.2-1.1-1.2-.35 0-.65.2-.3.15-.4.4v4.55h-1.5v-4.15q0-.45-.25-.75-.3-.25-.8-.25-.3 0-.6.2-.35.2-.5.45v4.5h-1.45v-6.3m10.8.85q.9-.95 2.2-.95 1.35 0 2.2.8.8.85.8 2.1 0 .25-.1.8h-4.5q.05.75.55 1.2.45.4 1.25.4 1 0 1.55-.55l.55 1.15q-.8.6-2.3.6-1.45 0-2.3-.8-.8-.85-.8-2.35t.9-2.4M51.6 85.7q.85-.9 2.2-.9 1.45 0 2.2.85.8.9.8 2.4t-.8 2.4q-.8.85-2.2.85-1.45 0-2.2-.85-.8-.9-.8-2.4 0-1.45.8-2.35m6.4-.8h1.45v.6q.6-.7 1.65-.7.75 0 1.15.25l-.65 1.25q-.35-.25-.85-.25t-.9.45q-.4.45-.4 1.15v3.55H58v-6.3m-12.45 0v.45q.55-.55 1.35-.55 3 0 3 3.3 0 1.55-.85 2.4-.8.8-2.25.8-.7 0-1.25-.25v2.6h-1.5V84.9h1.5m26.85.85q.9-.95 2.2-.95 1.35 0 2.2.8.8.85.8 2.1 0 .25-.1.8H73q.05.75.55 1.2.45.4 1.25.4 1 0 1.55-.55l.55 1.15q-.8.6-2.3.6-1.45 0-2.3-.8-.8-.85-.8-2.35t.9-2.4m-6.05.8q0-.85.6-1.3.6-.45 1.6-.45.95 0 1.85.45l-.45 1.15q-.45-.45-1.35-.45-.75 0-.75.65 0 .2.25.4t1.1.55q.8.3 1.15.75.4.5.4 1.15 0 .85-.65 1.35-.65.5-1.75.5-.65 0-1-.1-.4-.1-1-.4l.55-1.15q.65.5 1.45.5.85 0 .85-.6 0-.35-.25-.6-.25-.2-1-.55-1.6-.65-1.6-1.85m6.7.85h3.1q-.15-1.35-1.55-1.35-1.25 0-1.55 1.35m-25.1-.9q-.45-.45-1.45-.45-.55 0-.95.4v3.3q.4.35.9.35 1.05 0 1.5-.5.4-.5.4-1.55 0-1.1-.4-1.55m5.85-.5q-.7 0-1.1.55-.4.55-.4 1.5 0 2.05 1.5 2.05.7 0 1.1-.5.4-.55.4-1.55 0-2.05-1.5-2.05m4.8-10.6h3.1q-.15-1.35-1.55-1.35-1.25 0-1.55 1.35m-13.45-9.8q.4-.55.4-1.55 0-2.05-1.5-2.05-.7 0-1.1.55-.4.55-.4 1.5 0 2.05 1.5 2.05.7 0 1.1-.5m12.75-1.35q-.4-.1-.55-.1-1.75 0-1.75 1.15 0 .85.95.85 1.35 0 1.35-1.3v-.6M74.05 78.1q.7 0 1.1-.5.4-.55.4-1.55 0-2.05-1.5-2.05-.7 0-1.1.55-.4.55-.4 1.5 0 2.05 1.5 2.05M68.8 63.4q-.15-1.35-1.55-1.35-1.25 0-1.55 1.35h3.1m7.95-9.8q.4-.55.4-1.55 0-2.05-1.5-2.05-.7 0-1.1.55-.4.55-.4 1.5 0 2.05 1.5 2.05.7 0 1.1-.5m-48.2 33.8h3.1q-.15-1.35-1.55-1.35-1.25 0-1.55 1.35m10.8-9.3q.7 0 1.1-.5.4-.55.4-1.55 0-2.05-1.5-2.05-.7 0-1.1.55-.4.55-.4 1.5 0 2.05 1.5 2.05m-11.9-2.7h3.1q-.15-1.35-1.55-1.35-1.25 0-1.55 1.35m-6.8 2.35q.4.35.9.35 1.05 0 1.5-.5.4-.5.4-1.55 0-1.1-.4-1.55-.45-.45-1.45-.45-.55 0-.95.4v3.3M27.5 63.4q-.15-1.35-1.55-1.35-1.25 0-1.55 1.35h3.1m.15-12q-.15-1.35-1.55-1.35-1.25 0-1.55 1.35h3.1m8.45-10.1q0 .85.95.85 1.35 0 1.35-1.3v-.6q-.4-.1-.55-.1-1.75 0-1.75 1.15m-.35-11.35q.3-.1.4-.25v-3.3q-.5-.35-1-.35-.9 0-1.35.55-.5.5-.5 1.5 0 2 1.9 2 .2 0 .55-.15m-5.6-13.8q-1.75 0-1.75 1.15 0 .85.95.85 1.35 0 1.35-1.3v-.6q-.4-.1-.55-.1M70 52.25q-.4-.1-.55-.1-1.75 0-1.75 1.15 0 .85.95.85 1.35 0 1.35-1.3v-.6m-4.2-11.4v-.6q-.4-.1-.55-.1-1.75 0-1.75 1.15 0 .85.95.85 1.35 0 1.35-1.3m6.6-12.6q-.4-.1-.55-.1-1.75 0-1.75 1.15 0 .85.95.85 1.35 0 1.35-1.3v-.6m-14.95 24q-.4-.1-.55-.1-1.75 0-1.75 1.15 0 .85.95.85 1.35 0 1.35-1.3v-.6M43.3 27.4q-.15-1.35-1.55-1.35-1.25 0-1.55 1.35h3.1m9.6.85q-.4-.1-.55-.1-1.75 0-1.75 1.15 0 .85.95.85 1.35 0 1.35-1.3v-.6m6.25-1.1q0-.5-.3-.8-.3-.35-.8-.35t-.8.3q-.3.35-.3.85 0 .55.3.85.3.35.8.35.55 0 .85-.3.25-.35.25-.9M51.6 17.3q0 .85.95.85 1.35 0 1.35-1.3v-.6q-.4-.1-.55-.1-1.75 0-1.75 1.15m-8.85-3.25q-1.25 0-1.55 1.35h3.1q-.15-1.35-1.55-1.35m32.6 2.8v-.6q-.4-.1-.55-.1-1.75 0-1.75 1.15 0 .85.95.85 1.35 0 1.35-1.3m30.6 71.4q-.4-.1-.55-.1-1.75 0-1.75 1.15 0 .85.95.85 1.35 0 1.35-1.3v-.6m-15.8 1.05q0 .85.95.85 1.35 0 1.35-1.3v-.6q-.4-.1-.55-.1-1.75 0-1.75 1.15m.6-25.35q0-1.9-1.8-1.9-.65 0-1 .35v3.3q.3.4.85.4 1.05 0 1.5-.55.45-.5.45-1.6m-7.2.9v-.6q-.4-.1-.55-.1-1.75 0-1.75 1.15 0 .85.95.85 1.35 0 1.35-1.3m13.4 0v-.6q-.4-.1-.55-.1-1.75 0-1.75 1.15 0 .85.95.85 1.35 0 1.35-1.3m-3.25-12.8q0-2.05-1.5-2.05-.7 0-1.1.55-.4.55-.4 1.5 0 2.05 1.5 2.05.7 0 1.1-.5.4-.55.4-1.55m14.05 24.2q-.4-.1-.55-.1-1.75 0-1.75 1.15 0 .85.95.85 1.35 0 1.35-1.3v-.6M102.6 66.1q.7 0 1.1-.5.4-.55.4-1.55 0-2.05-1.5-2.05-.7 0-1.1.55-.4.55-.4 1.5 0 2.05 1.5 2.05M90.85 38.05q-1.25 0-1.55 1.35h3.1q-.15-1.35-1.55-1.35m-5.6.35q-.5-.35-1-.35-.9 0-1.35.55-.5.5-.5 1.5 0 2 1.9 2 .2 0 .55-.15.3-.1.4-.25v-3.3m4.45-8.8q.4-.55.4-1.55 0-2.05-1.5-2.05-.7 0-1.1.55-.4.55-.4 1.5 0 2.05 1.5 2.05.7 0 1.1-.5m-6.6-3.2q-.5-.35-1-.35-.9 0-1.35.55-.5.5-.5 1.5 0 2 1.9 2 .2 0 .55-.15.3-.1.4-.25v-3.3m17.5-10.25q-1.75 0-1.75 1.15 0 .85.95.85 1.35 0 1.35-1.3v-.6q-.4-.1-.55-.1z"/><path d="M66.95 85.25q-.6.45-.6 1.3 0 1.2 1.6 1.85.75.35 1 .55.25.25.25.6 0 .6-.85.6-.8 0-1.45-.5l-.55 1.15q.6.3 1 .4.35.1 1 .1 1.1 0 1.75-.5.65-.5.65-1.35 0-.65-.4-1.15-.35-.45-1.15-.75-.85-.35-1.1-.55-.25-.2-.25-.4 0-.65.75-.65.9 0 1.35.45l.45-1.15q-.9-.45-1.85-.45-1 0-1.6.45m7.65-.45q-1.3 0-2.2.95-.9.9-.9 2.4t.8 2.35q.85.8 2.3.8 1.5 0 2.3-.6l-.55-1.15q-.55.55-1.55.55-.8 0-1.25-.4-.5-.45-.55-1.2h4.5q.1-.55.1-.8 0-1.25-.8-2.1-.85-.8-2.2-.8m1.55 2.6h-3.1q.3-1.35 1.55-1.35 1.4 0 1.55 1.35m-30.6-2.05v-.45h-1.5v8.75h1.5v-2.6q.55.25 1.25.25 1.45 0 2.25-.8.85-.85.85-2.4 0-3.3-3-3.3-.8 0-1.35.55m.95.7q1 0 1.45.45.4.45.4 1.55 0 1.05-.4 1.55-.45.5-1.5.5-.5 0-.9-.35v-3.3q.4-.4.95-.4m12.95-1.15H58v6.3h1.45v-3.55q0-.7.4-1.15.4-.45.9-.45t.85.25l.65-1.25q-.4-.25-1.15-.25-1.05 0-1.65.7v-.6m-5.65-.1q-1.35 0-2.2.9-.8.9-.8 2.35 0 1.5.8 2.4.75.85 2.2.85 1.4 0 2.2-.85.8-.9.8-2.4t-.8-2.4q-.75-.85-2.2-.85m-1.1 1.75q.4-.55 1.1-.55 1.5 0 1.5 2.05 0 1-.4 1.55-.4.5-1.1.5-1.5 0-1.5-2.05 0-.95.4-1.5m7.45-13.75q-1.3 0-2.2.95-.9.9-.9 2.4t.8 2.35q.85.8 2.3.8 1.5 0 2.3-.6l-.55-1.15q-.55.55-1.55.55-.8 0-1.25-.4-.5-.45-.55-1.2h4.5q.1-.55.1-.8 0-1.25-.8-2.1-.85-.8-2.2-.8m1.55 2.6h-3.1q.3-1.35 1.55-1.35 1.4 0 1.55 1.35m-13.55-2.5h-1v6.3h1.45v-4.5q.15-.25.5-.45.3-.2.6-.2.5 0 .8.25.25.3.25.75v4.15h1.5v-4.55q.1-.25.4-.4.3-.2.65-.2 1.1 0 1.1 1.2v3.95h1.45v-4.15q0-1.05-.55-1.65-.6-.6-1.65-.6-.5 0-1 .2-.45.2-.75.5-.65-.7-1.9-.7-.95 0-1.55.7l-.3-.6m-4.1-12.1q-1.35 0-2.2.9-.8.9-.8 2.35 0 1.5.8 2.4.75.85 2.2.85 1.4 0 2.2-.85.8-.9.8-2.4t-.8-2.4q-.75-.85-2.2-.85m1.5 3.25q0 1-.4 1.55-.4.5-1.1.5-1.5 0-1.5-2.05 0-.95.4-1.5t1.1-.55q1.5 0 1.5 2.05M40.6 55.2h1.45v-6.3H39.8v1.25h.8v5.05m18.1 6.25q-.7-.65-2.1-.65-1.05 0-1.8.35l.3 1.15q.55-.25 1.4-.25 1.4 0 1.4 1.1-.35-.1-.65-.1-1.5 0-2.3.6-.8.65-.8 1.7 0 .95.55 1.45.6.5 1.6.5.55 0 1.05-.2t.7-.55q.05.3.3.55.3.2.6.2t.5-.05q.2-.1.4-.4-.5-.3-.5-1.55v-1.35q0-1.85-.65-2.5m-1.35 2.7q.15 0 .55.1v.6q0 1.3-1.35 1.3-.95 0-.95-.85 0-1.15 1.75-1.15m-3.6-3.25H52.2l-1.6 3.85-1.5-3.85h-1.6l2.8 6.4h.55l2.9-6.4m20.3 11.9q-1.35 0-2.2.9-.8.9-.8 2.35 0 1.5.8 2.4.75.85 2.2.85 1.4 0 2.2-.85.8-.9.8-2.4t-.8-2.4q-.75-.85-2.2-.85m1.1 4.8q-.4.5-1.1.5-1.5 0-1.5-2.05 0-.95.4-1.5t1.1-.55q1.5 0 1.5 2.05 0 1-.4 1.55m-9.5-4.1l-.25-.6h-1.05v6.3h1.45v-4.55q.2-.25.6-.45.35-.15.65-.15.7 0 1 .35.35.35.35 1.15v3.65h1.45v-3.85q0-1.2-.65-1.85-.65-.7-1.75-.7-1.2 0-1.8.7m3.8-11.9q-.85-.8-2.2-.8-1.3 0-2.2.95-.9.9-.9 2.4t.8 2.35q.85.8 2.3.8 1.5 0 2.3-.6L69 65.55q-.55.55-1.55.55-.8 0-1.25-.4-.5-.45-.55-1.2h4.5q.1-.55.1-.8 0-1.25-.8-2.1m-2.2.45q1.4 0 1.55 1.35h-3.1q.3-1.35 1.55-1.35M61.8 57.7q.25.05.55.05.65 0 1.1-.3.4-.35.4-.9 0-1-1.05-1.2l-.5.5q.2.05.3.25.1.15.1.35 0 .55-.75.55-.2 0-.4-.05l.25.75m16.9 3.55q-.9-.45-1.85-.45-1 0-1.6.45-.6.45-.6 1.3 0 1.2 1.6 1.85.75.35 1 .55.25.25.25.6 0 .6-.85.6-.8 0-1.45-.5l-.55 1.15q.6.3 1 .4.35.1 1 .1 1.1 0 1.75-.5.65-.5.65-1.35 0-.65-.4-1.15-.35-.45-1.15-.75-.85-.35-1.1-.55-.25-.2-.25-.4 0-.65.75-.65.9 0 1.35.45l.45-1.15m-.05-9.2q0-1.5-.8-2.4-.75-.85-2.2-.85-1.35 0-2.2.9-.8.9-.8 2.35 0 1.5.8 2.4.75.85 2.2.85 1.4 0 2.2-.85.8-.9.8-2.4m-1.5 0q0 1-.4 1.55-.4.5-1.1.5-1.5 0-1.5-2.05 0-.95.4-1.5t1.1-.55q1.5 0 1.5 2.05M30.1 84.8q-1.3 0-2.2.95-.9.9-.9 2.4t.8 2.35q.85.8 2.3.8 1.5 0 2.3-.6l-.55-1.15q-.55.55-1.55.55-.8 0-1.25-.4-.5-.45-.55-1.2H33q.1-.55.1-.8 0-1.25-.8-2.1-.85-.8-2.2-.8m1.55 2.6h-3.1q.3-1.35 1.55-1.35 1.4 0 1.55 1.35m-9.7-2.5h-1.6l2.8 6.4h.55l2.9-6.4h-1.55l-1.6 3.85-1.5-3.85m12 0v1.3h3.35l-3.4 4.5v.5h5.55v-1.3h-3.3l3.25-4.45v-.55h-5.45m5.4-12.1q-1.35 0-2.2.9-.8.9-.8 2.35 0 1.5.8 2.4.75.85 2.2.85 1.4 0 2.2-.85.8-.9.8-2.4t-.8-2.4q-.75-.85-2.2-.85m1.1 4.8q-.4.5-1.1.5-1.5 0-1.5-2.05 0-.95.4-1.5t1.1-.55q1.5 0 1.5 2.05 0 1-.4 1.55m-5.55-7.35l-1.45.35v7.35q0 1.35 1 1.35.8 0 1.15-.65-.7-.2-.7-1.35v-7.05M29 72.8q-1.3 0-2.2.95-.9.9-.9 2.4t.8 2.35q.85.8 2.3.8 1.5 0 2.3-.6l-.55-1.15q-.55.55-1.55.55-.8 0-1.25-.4-.5-.45-.55-1.2h4.5q.1-.55.1-.8 0-1.25-.8-2.1-.85-.8-2.2-.8m1.55 2.6h-3.1q.3-1.35 1.55-1.35 1.4 0 1.55 1.35M22 72.8q-.8 0-1.35.55v-.45h-1.5v8.75h1.5v-2.6q.55.25 1.25.25 1.45 0 2.25-.8.85-.85.85-2.4 0-3.3-3-3.3m-.45 5.3q-.5 0-.9-.35v-3.3q.4-.4.95-.4 1 0 1.45.45.4.45.4 1.55 0 1.05-.4 1.55-.45.5-1.5.5m6.6-16.5q-.85-.8-2.2-.8-1.3 0-2.2.95-.9.9-.9 2.4t.8 2.35q.85.8 2.3.8 1.5 0 2.3-.6l-.55-1.15q-.55.55-1.55.55-.8 0-1.25-.4-.5-.45-.55-1.2h4.5q.1-.55.1-.8 0-1.25-.8-2.1m-2.2.45q1.4 0 1.55 1.35h-3.1q.3-1.35 1.55-1.35M29 52.5q.1-.55.1-.8 0-1.25-.8-2.1-.85-.8-2.2-.8-1.3 0-2.2.95-.9.9-.9 2.4t.8 2.35q.85.8 2.3.8 1.5 0 2.3-.6l-.55-1.15q-.55.55-1.55.55-.8 0-1.25-.4-.5-.45-.55-1.2H29m-2.9-2.45q1.4 0 1.55 1.35h-3.1q.3-1.35 1.55-1.35M38.3 60.8q-1.6 0-2.5.9-.9.95-.9 2.4 0 1.5.8 2.35.85.85 2.3.85.65 0 1.15-.1.45-.1 1.1-.5l-.55-1.15q-.6.55-1.4.55-1.9 0-1.9-2 0-.95.5-1.5.45-.55 1.3-.55.85 0 1.4.45l.6-1.1q-.8-.6-1.9-.6m-4.5.45q-.9-.45-1.85-.45-1 0-1.6.45-.6.45-.6 1.3 0 1.2 1.6 1.85.75.35 1 .55.25.25.25.6 0 .6-.85.6-.8 0-1.45-.5l-.55 1.15q.6.3 1 .4.35.1 1 .1 1.1 0 1.75-.5.65-.5.65-1.35 0-.65-.4-1.15-.35-.45-1.15-.75-.85-.35-1.1-.55-.25-.2-.25-.4 0-.65.75-.65.9 0 1.35.45l.45-1.15m1.85-13.6v1.25h-.7v1.2h.7v3.2q0 .95.5 1.5.5.5 1.45.5t1.45-.15V53.8q-.45.3-.95.3-.55 0-.75-.3-.2-.3-.2-.95V50.1h1.7v-1.2h-1.7v-1.8l-1.5.55M32.1 48.8q-1 0-1.6.45-.6.45-.6 1.3 0 1.2 1.6 1.85.75.35 1 .55.25.25.25.6 0 .6-.85.6-.8 0-1.45-.5l-.55 1.15q.6.3 1 .4.35.1 1 .1 1.1 0 1.75-.5.65-.5.65-1.35 0-.65-.4-1.15-.35-.45-1.15-.75-.85-.35-1.1-.55-.25-.2-.25-.4 0-.65.75-.65.9 0 1.35.45l.45-1.15q-.9-.45-1.85-.45m7.75-8.85q0-1.85-.65-2.5-.7-.65-2.1-.65-1.05 0-1.8.35l.3 1.15q.55-.25 1.4-.25 1.4 0 1.4 1.1-.35-.1-.65-.1-1.5 0-2.3.6-.8.65-.8 1.7 0 .95.55 1.45.6.5 1.6.5.55 0 1.05-.2t.7-.55q.05.3.3.55.3.2.6.2t.5-.05q.2-.1.4-.4-.5-.3-.5-1.55v-1.35m-2.8 2.2q-.95 0-.95-.85 0-1.15 1.75-1.15.15 0 .55.1v.6q0 1.3-1.35 1.3m.55-19.9l-1.45.35v2.5q-.6-.3-1.3-.3-1.3 0-2.2.95-.85.95-.85 2.4 0 1.5.75 2.35.75.8 2.05.8.5 0 .9-.15.45-.15.65-.35v.4h1.45v-8.95m-1.45 7.45q-.1.15-.4.25-.35.15-.55.15-1.9 0-1.9-2 0-1 .5-1.5.45-.55 1.35-.55.5 0 1 .35v3.3m3.1-16.8H37.7l-1.6 3.85-1.5-3.85H33l2.8 6.4h.55l2.9-6.4m-9.2 2.15q-1.5 0-2.3.6-.8.65-.8 1.7 0 .95.55 1.45.6.5 1.6.5.55 0 1.05-.2t.7-.55q.05.3.3.55.3.2.6.2t.5-.05q.2-.1.4-.4-.5-.3-.5-1.55v-1.35q0-1.85-.65-2.5-.7-.65-2.1-.65-1.05 0-1.8.35l.3 1.15q.55-.25 1.4-.25 1.4 0 1.4 1.1-.35-.1-.65-.1M28.4 17.3q0-1.15 1.75-1.15.15 0 .55.1v.6q0 1.3-1.35 1.3-.95 0-.95-.85m-6.1-6.7h-1.5v8.6h5.4v-1.35h-3.9V10.6m54.15 30.85q0-.65-.4-1.15-.35-.45-1.15-.75-.85-.35-1.1-.55-.25-.2-.25-.4 0-.65.75-.65.9 0 1.35.45l.45-1.15q-.9-.45-1.85-.45-1 0-1.6.45-.6.45-.6 1.3 0 1.2 1.6 1.85.75.35 1 .55.25.25.25.6 0 .6-.85.6-.8 0-1.45-.5l-.55 1.15q.6.3 1 .4.35.1 1 .1 1.1 0 1.75-.5.65-.5.65-1.35m-5.65 8q-.7-.65-2.1-.65-1.05 0-1.8.35l.3 1.15q.55-.25 1.4-.25 1.4 0 1.4 1.1-.35-.1-.65-.1-1.5 0-2.3.6-.8.65-.8 1.7 0 .95.55 1.45.6.5 1.6.5.55 0 1.05-.2t.7-.55q.05.3.3.55.3.2.6.2t.5-.05q.2-.1.4-.4-.5-.3-.5-1.55v-1.35q0-1.85-.65-2.5m-1.35 2.7q.15 0 .55.1v.6q0 1.3-1.35 1.3-.95 0-.95-.85 0-1.15 1.75-1.15m-2.65-3.9h.85q.2-.45.5-.45.15 0 .6.25.5.2.85.2.5 0 .8-.3.35-.35.55-1.2h-.85q-.15.45-.5.45-.15 0-.6-.2-.45-.25-.9-.25-.5 0-.85.4-.35.45-.45 1.1m-1.4 1.15q-.8-.6-1.9-.6-1.6 0-2.5.9-.9.95-.9 2.4 0 1.5.8 2.35.85.85 2.3.85.65 0 1.15-.1.45-.1 1.1-.5l-.55-1.15q-.6.55-1.4.55-1.9 0-1.9-2 0-.95.5-1.5.45-.55 1.3-.55.85 0 1.4.45l.6-1.1m1.85-9.45q0-1.85-.65-2.5-.7-.65-2.1-.65-1.05 0-1.8.35l.3 1.15q.55-.25 1.4-.25 1.4 0 1.4 1.1-.35-.1-.65-.1-1.5 0-2.3.6-.8.65-.8 1.7 0 .95.55 1.45.6.5 1.6.5.55 0 1.05-.2t.7-.55q.05.3.3.55.3.2.6.2t.5-.05q.2-.1.4-.4-.5-.3-.5-1.55v-1.35m-1.45.3v.6q0 1.3-1.35 1.3-.95 0-.95-.85 0-1.15 1.75-1.15.15 0 .55.1m4.9-3.35h-2.25v1.25h.8v5.05h1.45v-6.3m.15-1.55q0-.35-.25-.6t-.6-.25q-.35 0-.6.25t-.25.6q0 .35.25.6t.6.25q.35 0 .6-.25t.25-.6m-3.4-10.45H66v4.35q-.15.35-.6.6-.4.25-.9.25-1.1 0-1.1-1.2v-4h-1.45V29q0 2.3 2.2 2.3.45 0 1-.15.5-.2.85-.45v.5h1.45v-6.3m5.75.55q-.7-.65-2.1-.65-1.05 0-1.8.35l.3 1.15q.55-.25 1.4-.25 1.4 0 1.4 1.1-.35-.1-.65-.1-1.5 0-2.3.6-.8.65-.8 1.7 0 .95.55 1.45.6.5 1.6.5.55 0 1.05-.2t.7-.55q.05.3.3.55.3.2.6.2t.5-.05q.2-.1.4-.4-.5-.3-.5-1.55v-1.35q0-1.85-.65-2.5m-1.35 2.7q.15 0 .55.1v.6q0 1.3-1.35 1.3-.95 0-.95-.85 0-1.15 1.75-1.15m-13.6 21.3q-.7-.65-2.1-.65-1.05 0-1.8.35l.3 1.15q.55-.25 1.4-.25 1.4 0 1.4 1.1-.35-.1-.65-.1-1.5 0-2.3.6-.8.65-.8 1.7 0 .95.55 1.45.6.5 1.6.5.55 0 1.05-.2t.7-.55q.05.3.3.55.3.2.6.2t.5-.05q.2-.1.4-.4-.5-.3-.5-1.55v-1.35q0-1.85-.65-2.5m-1.35 2.7q.15 0 .55.1v.6q0 1.3-1.35 1.3-.95 0-.95-.85 0-1.15 1.75-1.15M44.8 48.9h-1v6.3h1.45v-4.5q.15-.25.5-.45.3-.2.6-.2.5 0 .8.25.25.3.25.75v4.15h1.5v-4.55q.1-.25.4-.4.3-.2.65-.2 1.1 0 1.1 1.2v3.95h1.45v-4.15q0-1.05-.55-1.65-.6-.6-1.65-.6-.5 0-1 .2-.45.2-.75.5-.65-.7-1.9-.7-.95 0-1.55.7l-.3-.6m-2.85-2.15q-.25-.25-.6-.25t-.6.25q-.25.25-.25.6t.25.6q.25.25.6.25t.6-.25q.25-.25.25-.6t-.25-.6m8.45-9.85h-2.25v1.25h.8v5.05h1.45v-6.3m.15-1.55q0-.35-.25-.6t-.6-.25q-.35 0-.6.25t-.25.6q0 .35.25.6t.6.25q.35 0 .6-.25t.25-.6M42.5 36.9h-1.05v6.3h1.45v-4.55q.2-.25.6-.45.35-.15.65-.15.7 0 1 .35.35.35.35 1.15v3.65h1.45v-3.85q0-1.2-.65-1.85-.65-.7-1.75-.7-1.2 0-1.8.7l-.25-.6m2.25-9.2q0-1.25-.8-2.1-.85-.8-2.2-.8-1.3 0-2.2.95-.9.9-.9 2.4t.8 2.35q.85.8 2.3.8 1.5 0 2.3-.6l-.55-1.15q-.55.55-1.55.55-.8 0-1.25-.4-.5-.45-.55-1.2h4.5q.1-.55.1-.8m-3-1.65q1.4 0 1.55 1.35h-3.1q.3-1.35 1.55-1.35m11.4 10.85h-1v6.3h1.45v-4.5q.15-.25.5-.45.3-.2.6-.2.5 0 .8.25.25.3.25.75v4.15h1.5v-4.55q.1-.25.4-.4.3-.2.65-.2 1.1 0 1.1 1.2v3.95h1.45v-4.15q0-1.05-.55-1.65-.6-.6-1.65-.6-.5 0-1 .2-.45.2-.75.5-.65-.7-1.9-.7-.95 0-1.55.7l-.3-.6M51.5 26.05q1.4 0 1.4 1.1-.35-.1-.65-.1-1.5 0-2.3.6-.8.65-.8 1.7 0 .95.55 1.45.6.5 1.6.5.55 0 1.05-.2t.7-.55q.05.3.3.55.3.2.6.2t.5-.05q.2-.1.4-.4-.5-.3-.5-1.55v-1.35q0-1.85-.65-2.5-.7-.65-2.1-.65-1.05 0-1.8.35l.3 1.15q.55-.25 1.4-.25m.85 2.1q.15 0 .55.1v.6q0 1.3-1.35 1.3-.95 0-.95-.85 0-1.15 1.75-1.15m8.3-1q0-.75-.35-1.3l.7-.5-1-.9-.6.65q-.55-.3-1.4-.3-1.1 0-1.8.65-.75.65-.75 1.65 0 1.3 1.05 2-.3.15-.55.45-.25.3-.25.6 0 1.1 1.5 1.1.25 0 .7-.1.5-.05.75-.05.9 0 .9.55 0 .35-.4.55-.4.15-1.05.15-.95 0-1.7-.7l-.95 1.15q1.2.85 2.65.85 1.2 0 2.05-.55.85-.5.85-1.45 0-1.75-2.15-1.75-.3 0-.7.1-.45.1-.65.1-.4 0-.4-.25 0-.15.3-.25.25-.15.3-.15l.25.05q.25.05.4.05 1 0 1.65-.65.65-.65.65-1.75m-1.8-.8q.3.3.3.8 0 .55-.25.9-.3.3-.85.3-.5 0-.8-.35-.3-.3-.3-.85 0-.5.3-.85.3-.3.8-.3t.8.35m-5.5-4H51.9l-1 1.75h1.15l1.3-1.75m.55-7.2q-.35-.1-.65-.1-1.5 0-2.3.6-.8.65-.8 1.7 0 .95.55 1.45.6.5 1.6.5.55 0 1.05-.2t.7-.55q.05.3.3.55.3.2.6.2t.5-.05q.2-.1.4-.4-.5-.3-.5-1.55v-1.35q0-1.85-.65-2.5-.7-.65-2.1-.65-1.05 0-1.8.35l.3 1.15q.55-.25 1.4-.25 1.4 0 1.4 1.1m-1.35 3q-.95 0-.95-.85 0-1.15 1.75-1.15.15 0 .55.1v.6q0 1.3-1.35 1.3m7.6-3.75l.45-1.15q-.9-.45-1.85-.45-1 0-1.6.45-.6.45-.6 1.3 0 1.2 1.6 1.85.75.35 1 .55.25.25.25.6 0 .6-.85.6-.8 0-1.45-.5l-.55 1.15q.6.3 1 .4.35.1 1 .1 1.1 0 1.75-.5.65-.5.65-1.35 0-.65-.4-1.15-.35-.45-1.15-.75-.85-.35-1.1-.55-.25-.2-.25-.4 0-.65.75-.65.9 0 1.35.45m-14.5 2.1q.1-.55.1-.8 0-1.25-.8-2.1-.85-.8-2.2-.8-1.3 0-2.2.95-.9.9-.9 2.4t.8 2.35q.85.8 2.3.8 1.5 0 2.3-.6l-.55-1.15q-.55.55-1.55.55-.8 0-1.25-.4-.5-.45-.55-1.2h4.5m-4.45-1.1q.3-1.35 1.55-1.35 1.4 0 1.55 1.35h-3.1m35.6 1.9v-1.35q0-1.85-.65-2.5-.7-.65-2.1-.65-1.05 0-1.8.35l.3 1.15q.55-.25 1.4-.25 1.4 0 1.4 1.1-.35-.1-.65-.1-1.5 0-2.3.6-.8.65-.8 1.7 0 .95.55 1.45.6.5 1.6.5.55 0 1.05-.2t.7-.55q.05.3.3.55.3.2.6.2t.5-.05q.2-.1.4-.4-.5-.3-.5-1.55m-1.45-1.05v.6q0 1.3-1.35 1.3-.95 0-.95-.85 0-1.15 1.75-1.15.15 0 .55.1m-7.6 3.05h.55l2.9-6.4h-1.55l-1.6 3.85-1.5-3.85h-1.6l2.8 6.4m36.9 65.5q-1.05 0-1.8.35l.3 1.15q.55-.25 1.4-.25 1.4 0 1.4 1.1-.35-.1-.65-.1-1.5 0-2.3.6-.8.65-.8 1.7 0 .95.55 1.45.6.5 1.6.5.55 0 1.05-.2t.7-.55q.05.3.3.55.3.2.6.2t.5-.05q.2-.1.4-.4-.5-.3-.5-1.55v-1.35q0-1.85-.65-2.5-.7-.65-2.1-.65m.75 3.35q.15 0 .55.1v.6q0 1.3-1.35 1.3-.95 0-.95-.85 0-1.15 1.75-1.15m-21.1-1.9q.3-.2.65-.2 1.1 0 1.1 1.2v3.95h1.45v-4.15q0-1.05-.55-1.65-.6-.6-1.65-.6-.5 0-1 .2-.45.2-.75.5-.65-.7-1.9-.7-.95 0-1.55.7l-.3-.6h-1v6.3h1.45v-4.5q.15-.25.5-.45.3-.2.6-.2.5 0 .8.25.25.3.25.75v4.15h1.5v-4.55q.1-.25.4-.4m-2.05-8.8q0-.65-.4-1.15-.35-.45-1.15-.75-.85-.35-1.1-.55-.25-.2-.25-.4 0-.65.75-.65.9 0 1.35.45l.45-1.15q-.9-.45-1.85-.45-1 0-1.6.45-.6.45-.6 1.3 0 1.2 1.6 1.85.75.35 1 .55.25.25.25.6 0 .6-.85.6-.8 0-1.45-.5l-.55 1.15q.6.3 1 .4.35.1 1 .1 1.1 0 1.75-.5.65-.5.65-1.35m15.95 8.6q.7 0 1 .35.35.35.35 1.15v3.65H101v-3.85q0-1.2-.65-1.85-.65-.7-1.75-.7-1.2 0-1.8.7l-.25-.6H95.5v6.3h1.45v-4.55q.2-.25.6-.45.35-.15.65-.15m-4.95-.6q-.7-.65-2.1-.65-1.05 0-1.8.35l.3 1.15q.55-.25 1.4-.25 1.4 0 1.4 1.1-.35-.1-.65-.1-1.5 0-2.3.6-.8.65-.8 1.7 0 .95.55 1.45.6.5 1.6.5.55 0 1.05-.2t.7-.55q.05.3.3.55.3.2.6.2t.5-.05q.2-.1.4-.4-.5-.3-.5-1.55v-1.35q0-1.85-.65-2.5m-2.15 4.7q-.95 0-.95-.85 0-1.15 1.75-1.15.15 0 .55.1v.6q0 1.3-1.35 1.3m4.3-16.65l-.3-.6h-1v6.3h1.45v-4.5q.15-.25.5-.45.3-.2.6-.2.5 0 .8.25.25.3.25.75v4.15h1.5v-4.55q.1-.25.4-.4.3-.2.65-.2 1.1 0 1.1 1.2v3.95h1.45v-4.15q0-1.05-.55-1.65-.6-.6-1.65-.6-.5 0-1 .2-.45.2-.75.5-.65-.7-1.9-.7-.95 0-1.55.7m-6.95-.6H87V77q0 2.3 2.2 2.3.45 0 1-.15.5-.2.85-.45v.5h1.45v-6.3h-1.45v4.35q-.15.35-.6.6-.4.25-.9.25-1.1 0-1.1-1.2v-4m-.5-14.65l-1.5.35v8.7h.85l.35-.45q.6.45 1.5.45 1.45 0 2.3-.9.85-.9.85-2.5 0-1.35-.85-2.2-.85-.9-2.25-.9-.7 0-1.25.35v-2.9m1 3.8q1.8 0 1.8 1.9 0 1.1-.45 1.6-.45.55-1.5.55-.55 0-.85-.4v-3.3q.35-.35 1-.35m-4.6-.6q-.7-.65-2.1-.65-1.05 0-1.8.35l.3 1.15q.55-.25 1.4-.25 1.4 0 1.4 1.1-.35-.1-.65-.1-1.5 0-2.3.6-.8.65-.8 1.7 0 .95.55 1.45.6.5 1.6.5.55 0 1.05-.2t.7-.55q.05.3.3.55.3.2.6.2t.5-.05q.2-.1.4-.4-.5-.3-.5-1.55v-1.35q0-1.85-.65-2.5m-.8 2.8v.6q0 1.3-1.35 1.3-.95 0-.95-.85 0-1.15 1.75-1.15.15 0 .55.1m12.1-3.45q-1.05 0-1.8.35l.3 1.15q.55-.25 1.4-.25 1.4 0 1.4 1.1-.35-.1-.65-.1-1.5 0-2.3.6-.8.65-.8 1.7 0 .95.55 1.45.6.5 1.6.5.55 0 1.05-.2t.7-.55q.05.3.3.55.3.2.6.2t.5-.05q.2-.1.4-.4-.5-.3-.5-1.55v-1.35q0-1.85-.65-2.5-.7-.65-2.1-.65m1.3 3.45v.6q0 1.3-1.35 1.3-.95 0-.95-.85 0-1.15 1.75-1.15.15 0 .55.1m-1-5.25q-.45-.25-.9-.25-.5 0-.85.4-.35.45-.45 1.1h.85q.2-.45.5-.45.15 0 .6.25.5.2.85.2.5 0 .8-.3.35-.35.55-1.2h-.85q-.15.45-.5.45-.15 0-.6-.2m-3.75-3.7q1.4 0 2.2-.85.8-.9.8-2.4t-.8-2.4q-.75-.85-2.2-.85-1.35 0-2.2.9-.8.9-.8 2.35 0 1.5.8 2.4.75.85 2.2.85m0-5.3q1.5 0 1.5 2.05 0 1-.4 1.55-.4.5-1.1.5-1.5 0-1.5-2.05 0-.95.4-1.5t1.1-.55m16.35 23.45q-.7-.65-2.1-.65-1.05 0-1.8.35l.3 1.15q.55-.25 1.4-.25 1.4 0 1.4 1.1-.35-.1-.65-.1-1.5 0-2.3.6-.8.65-.8 1.7 0 .95.55 1.45.6.5 1.6.5.55 0 1.05-.2t.7-.55q.05.3.3.55.3.2.6.2t.5-.05q.2-.1.4-.4-.5-.3-.5-1.55v-1.35q0-1.85-.65-2.5m-1.35 2.7q.15 0 .55.1v.6q0 1.3-1.35 1.3-.95 0-.95-.85 0-1.15 1.75-1.15m-2.4-14.5q-.75-.85-2.2-.85-1.35 0-2.2.9-.8.9-.8 2.35 0 1.5.8 2.4.75.85 2.2.85 1.4 0 2.2-.85.8-.9.8-2.4t-.8-2.4m-1.1 3.95q-.4.5-1.1.5-1.5 0-1.5-2.05 0-.95.4-1.5t1.1-.55q1.5 0 1.5 2.05 0 1-.4 1.55m-6.3-16.7h-1v6.3h1.45v-4.5q.15-.25.5-.45.3-.2.6-.2.5 0 .8.25.25.3.25.75v4.15h1.5v-4.55q.1-.25.4-.4.3-.2.65-.2 1.1 0 1.1 1.2v3.95h1.45v-4.15q0-1.05-.55-1.65-.6-.6-1.65-.6-.5 0-1 .2-.45.2-.75.5-.65-.7-1.9-.7-.95 0-1.55.7l-.3-.6m-9.05.5q-.8-.6-1.9-.6-1.6 0-2.5.9-.9.95-.9 2.4 0 1.5.8 2.35.85.85 2.3.85.65 0 1.15-.1.45-.1 1.1-.5l-.55-1.15q-.6.55-1.4.55-1.9 0-1.9-2 0-.95.5-1.5.45-.55 1.3-.55.85 0 1.4.45l.6-1.1m.3-11.65q-.9.9-.9 2.4t.8 2.35q.85.8 2.3.8 1.5 0 2.3-.6l-.55-1.15q-.55.55-1.55.55-.8 0-1.25-.4-.5-.45-.55-1.2h4.5q.1-.55.1-.8 0-1.25-.8-2.1-.85-.8-2.2-.8-1.3 0-2.2.95m.65 1.65q.3-1.35 1.55-1.35 1.4 0 1.55 1.35h-3.1m-4.05-2.3q-.6-.3-1.3-.3-1.3 0-2.2.95-.85.95-.85 2.4 0 1.5.75 2.35.75.8 2.05.8.5 0 .9-.15.45-.15.65-.35v.4h1.45v-8.95l-1.45.35v2.5m-1 .95q.5 0 1 .35v3.3q-.1.15-.4.25-.35.15-.55.15-1.9 0-1.9-2 0-1 .5-1.5.45-.55 1.35-.55m6.55-12.4q-.75-.85-2.2-.85-1.35 0-2.2.9-.8.9-.8 2.35 0 1.5.8 2.4.75.85 2.2.85 1.4 0 2.2-.85.8-.9.8-2.4t-.8-2.4m-.7 2.4q0 1-.4 1.55-.4.5-1.1.5-1.5 0-1.5-2.05 0-.95.4-1.5t1.1-.55q1.5 0 1.5 2.05m6.7 1.4q0-.65-.4-1.15-.35-.45-1.15-.75-.85-.35-1.1-.55-.25-.2-.25-.4 0-.65.75-.65.9 0 1.35.45l.45-1.15q-.9-.45-1.85-.45-1 0-1.6.45-.6.45-.6 1.3 0 1.2 1.6 1.85.75.35 1 .55.25.25.25.6 0 .6-.85.6-.8 0-1.45-.5l-.55 1.15q.6.3 1 .4.35.1 1 .1 1.1 0 1.75-.5.65-.5.65-1.35m-1.25-16q-.65-.65-1.8-.65-1 0-1.55.5v-3.05l-1.5.35v8.6h1.5v-4.5q.15-.25.5-.45.4-.2.75-.2.6 0 .95.35t.35.95v3.85h1.45v-3.85q0-1.25-.65-1.9m-11 8.8l-1.45.35v2.5q-.6-.3-1.3-.3-1.3 0-2.2.95-.85.95-.85 2.4 0 1.5.75 2.35.75.8 2.05.8.5 0 .9-.15.45-.15.65-.35v.4h1.45v-8.95m-2.45 3.8q.5 0 1 .35v3.3q-.1.15-.4.25-.35.15-.55.15-1.9 0-1.9-2 0-1 .5-1.5.45-.55 1.35-.55m1.05-11.9h.8v5.05h1.45v-6.3h-2.25v1.25m-1.55.25l.45-1.15q-.9-.45-1.85-.45-1 0-1.6.45-.6.45-.6 1.3 0 1.2 1.6 1.85.75.35 1 .55.25.25.25.6 0 .6-.85.6-.8 0-1.45-.5L78 18.8q.6.3 1 .4.35.1 1 .1 1.1 0 1.75-.5.65-.5.65-1.35 0-.65-.4-1.15-.35-.45-1.15-.75-.85-.35-1.1-.55-.25-.2-.25-.4 0-.65.75-.65.9 0 1.35.45m7.25-4.15l-1.45.35v7.35q0 1.35 1 1.35.8 0 1.15-.65-.7-.2-.7-1.35v-7.05m-5 1.1q0 .35.25.6t.6.25q.35 0 .6-.25t.25-.6q0-.35-.25-.6t-.6-.25q-.35 0-.6.25t-.25.6m18.75 5.95v-1.35q0-1.85-.65-2.5-.7-.65-2.1-.65-1.05 0-1.8.35l.3 1.15q.55-.25 1.4-.25 1.4 0 1.4 1.1-.35-.1-.65-.1-1.5 0-2.3.6-.8.65-.8 1.7 0 .95.55 1.45.6.5 1.6.5.55 0 1.05-.2t.7-.55q.05.3.3.55.3.2.6.2t.5-.05q.2-.1.4-.4-.5-.3-.5-1.55m-3.75 0q0-1.15 1.75-1.15.15 0 .55.1v.6q0 1.3-1.35 1.3-.95 0-.95-.85m7.55-.35q.25.25.25.6 0 .6-.85.6-.8 0-1.45-.5l-.55 1.15q.6.3 1 .4.35.1 1 .1 1.1 0 1.75-.5.65-.5.65-1.35 0-.65-.4-1.15-.35-.45-1.15-.75-.85-.35-1.1-.55-.25-.2-.25-.4 0-.65.75-.65.9 0 1.35.45l.45-1.15q-.9-.45-1.85-.45-1 0-1.6.45-.6.45-.6 1.3 0 1.2 1.6 1.85.75.35 1 .55z"/></g><path id="b" stroke="#8CA8B8" stroke-linejoin="round" stroke-linecap="round" fill="none" d="M118.8.4q4.1 0 7 2.95 2.95 2.9 2.95 7v81.6q-.1 3.95-2.95 6.75-2.9 2.95-7 2.95H10.15q-4.1 0-7-2.95-2.8-2.8-2.9-6.75v-81.6q0-4.1 2.9-7Q6.05.4 10.15.4h108.6"/></defs><g><use xlink:href="#a"/><use xlink:href="#b"/></g></svg>