<svg xmlns="http://www.w3.org/2000/svg" xmlns:xlink="http://www.w3.org/1999/xlink" preserveAspectRatio="none" width="133" height="106" viewBox="0 0 133 106"><defs><linearGradient id="a" gradientUnits="userSpaceOnUse" x1="42.638" y1="43.45" x2="98.862" y2="43.45"><stop offset=".784%" stop-color="#87A647"/><stop offset="37.255%" stop-color="#97CB2C"/><stop offset="65.098%" stop-color="#95CB28"/><stop offset="95.294%" stop-color="#7CAD17"/></linearGradient><linearGradient id="b" gradientUnits="userSpaceOnUse" x1="104.225" y1="51.05" x2="37.175" y2="70.95"><stop offset=".784%" stop-color="#81A634"/><stop offset="37.255%" stop-color="#A3CB51"/><stop offset="65.098%" stop-color="#A3CB51"/><stop offset="95.294%" stop-color="#85AD32"/></linearGradient><linearGradient id="c" gradientUnits="userSpaceOnUse" x1="38.475" y1="47.05" x2="102.625" y2="47.05"><stop offset=".784%" stop-color="#72932E"/><stop offset="37.255%" stop-color="#A3CB51"/><stop offset="65.098%" stop-color="#94B849"/><stop offset="95.294%" stop-color="#74982B"/></linearGradient><linearGradient id="d" gradientUnits="userSpaceOnUse" x1="42.638" y1="43.45" x2="98.862" y2="43.45"><stop offset=".784%" stop-color="#81A634"/><stop offset="37.255%" stop-color="#A3CB51"/><stop offset="65.098%" stop-color="#A3CB51"/><stop offset="95.294%" stop-color="#85AD32"/></linearGradient><filter id="g" x="-20%" y="-20%" width="140%" height="140%" color-interpolation-filters="sRGB"><feFlood flood-color="#000" flood-opacity="1" result="result1"/><feComposite in2="SourceGraphic" in="result1" operator="in" result="result2"/><feGaussianBlur in="result2" stdDeviation="2.3333333333333335,2.3333333333333335" result="result3"/><feOffset in="result3" result="result4"/><feComposite in2="result4" in="SourceGraphic" result="result5"/></filter><path fill="#FF0" d="M477.25 638.3q-2.9-2.95-7-2.95H361.6q-4.1 0-7 2.95-2.9 2.9-2.9 7v81.6q.1 3.95 2.9 6.75 2.9 2.95 7 2.95h108.65q4.1 0 7-2.95 2.85-2.8 2.95-6.75v-81.6q0-4.1-2.95-7z" id="e"/><path fill="#FFF" d="M966.45 100.5Q947.95 82 921.8 82H458.15Q432 82 413.5 100.5T395 145.15V538.8q0 26.15 18.5 44.65t44.65 18.5H921.8q26.15 0 44.65-18.5t18.5-44.65V145.15q0-26.15-18.5-44.65z" id="h"/><g id="i"><path fill="url(#a)" d="M107.3 64.5q0-.45-.05-.85v.1q-.35 4.3-3.95 7.85-.95.9-2.1 1.75-.7.6-1.55 1.15-1.05.65-2.15 1.3-.4.2-.75.4-1.15.6-2.35 1.1-1.8.85-3.7 1.5-.65.2-1.35.4l-.6.2q-2.25.65-4.65 1.15-.8.1-1.55.25-5.3.9-11.25.9-6.9 0-12.9-1.15-2.4-.5-4.65-1.15-.05-.05-.15-.05l-.9-.3q-2.15-.7-4.1-1.55-1.45-.6-2.8-1.3-.15-.1-.3-.15-1.05-.6-2-1.15-.75-.45-1.4-.95-1.65-1.15-2.85-2.35-3.6-3.55-3.95-7.8l-.05.15q-.05.25-.05.55 0 3.8 2.55 7.1 1.85 2.35 4.95 4.4.35.25.7.45.6.4 1.25.8h.05q.55.25 1.1.55 1.45.8 3 1.45 1.65.7 3.35 1.3.45.15.95.3l.7.2q7.8 2.3 17.5 2.3 2.1 0 4.15-.1 3.7-.2 7.1-.8 3.5-.55 6.7-1.55.55-.2 1.15-.35 1.2-.45 2.35-.9.7-.3 1.45-.6 1.3-.6 2.55-1.25.8-.4 1.55-.85.8-.45 1.5-.9.4-.3.85-.6 2.55-1.8 4.1-3.85 2.55-3.3 2.55-7.1z"/><path fill="url(#b)" d="M102.45 45.05q.2.95.2 2 0 .4-.05.75-.35 4.85-5.4 8.65-.65.5-1.4.95-.9.6-1.9 1.2-.35.15-.7.35-1 .55-2.05 1-1.6.7-3.3 1.3l-1.2.4q-.25.05-.55.15-2.65.75-5.5 1.25-4.7.8-10.05.8-8.6 0-15.6-2.05-.05-.05-.1-.05-.45-.1-.85-.25-1.85-.6-3.65-1.35-1.3-.6-2.5-1.2-.1-.1-.25-.15-.9-.5-1.75-1-.7-.4-1.3-.85-5.7-4-6.05-9.15-.05-.35-.05-.75v-.3L35.3 63.8q.35 4.25 3.95 7.8 1.2 1.2 2.85 2.35.65.5 1.4.95.95.55 2 1.15.15.05.3.15 1.35.7 2.8 1.3 1.95.85 4.1 1.55l.9.3q.1 0 .15.05 2.25.65 4.65 1.15 6 1.15 12.9 1.15 5.95 0 11.25-.9.75-.15 1.55-.25 2.4-.5 4.65-1.15l.6-.2q.7-.2 1.35-.4 1.9-.65 3.7-1.5 1.2-.5 2.35-1.1.35-.2.75-.4 1.1-.65 2.15-1.3.85-.55 1.55-1.15 1.15-.85 2.1-1.75 3.6-3.55 3.95-7.85l-4.8-18.7z"/><path fill="url(#c)" d="M102.1 43.8q-1.75-4.9-8.9-8.65-9.4-4.9-22.65-4.9-13.3 0-22.7 4.9-9.2 4.8-9.4 11.6v.3q0 .4.05.75.35 5.15 6.05 9.15.6.45 1.3.85.85.5 1.75 1 .15.05.25.15 1.2.6 2.5 1.2 1.8.75 3.65 1.35.4.15.85.25.05 0 .1.05 7 2.05 15.6 2.05 5.35 0 10.05-.8 2.85-.5 5.5-1.25.3-.1.55-.15l1.2-.4q1.7-.6 3.3-1.3 1.05-.45 2.05-1 .35-.2.7-.35 1-.6 1.9-1.2.75-.45 1.4-.95 5.05-3.8 5.4-8.65.05-.35.05-.75 0-1.05-.2-2-.1-.4-.25-.8-.05-.2-.1-.45M90.6 36q8.25 4.35 8.25 10.4 0 3.05-1.95 5.6-.9 1.1-2.1 2.15-.6.45-1.25.95-.95.65-2.05 1.25l-.9.5q-8.2 4.3-19.85 4.3-11.65 0-19.9-4.3-.35-.2-.75-.4-1.1-.65-2.05-1.3l-1.2-.9Q45.3 53 44.35 51.6q-1.7-2.4-1.7-5.2 0-6.05 8.2-10.4 5.65-2.95 12.85-3.9l7.05-.4H72q1.85.05 3.6.2 2.15.15 4.15.5Q85.8 33.45 90.6 36z"/><path fill="#96BD4A" d="M90.6 56.85l.9-.5q-1.3-.9-2.9-1.8-7.35-3.85-17.75-3.85T53.1 54.55q-1.7.9-3 1.9.4.2.75.4 8.25 4.3 19.9 4.3 11.65 0 19.85-4.3z"/><path fill="#A8D24F" d="M91.5 56.35q1.1-.6 2.05-1.25-1.8-2-4.95-3.65-7.35-3.9-17.75-3.9t-17.75 3.9q-3.2 1.7-5.05 3.7.95.65 2.05 1.3 1.3-1 3-1.9 7.35-3.85 17.75-3.85t17.75 3.85q1.6.9 2.9 1.8z"/><path fill="url(#d)" d="M98.85 46.4q0-6.05-8.25-10.4-4.8-2.55-10.85-3.6-2-.35-4.15-.5-1.75-.15-3.6-.2h-1.25l-7.05.4q-7.2.95-12.85 3.9-8.2 4.35-8.2 10.4 0 2.8 1.7 5.2.95 1.4 2.5 2.65l1.2.9q1.85-2 5.05-3.7 7.35-3.9 17.75-3.9t17.75 3.9q3.15 1.65 4.95 3.65.65-.5 1.25-.95Q96 53.1 96.9 52q1.95-2.55 1.95-5.6z"/></g><g id="j"><path fill="#F0F000" fill-opacity=".961" d="M-5.35-21.9q-4.6-.25-9.35-.4L-16 15.6q6.75.2 13.15.55l-2.5-38.05m-91.7 3.9q-1.55.3-3 .55l-6.1 38.8q2-.4 4.2-.8 13.25-2.35 29-3.6l5.3-38.45q-5.1.35-9.9.85-10.4 1.05-19.5 2.65m-7.35 1.45q-12.15 2.75-16.5 6.05l-1.65 6.2-7.9 35.55q2.1-4.05 13.55-7.35l12.5-40.45M30.05-18q-6.1-1.1-12.8-1.9l9.8 38.75q5.65.75 10.9 1.7 6.35 1.15 11.35 2.4L35.65-16.9q-2.6-.55-5.6-1.1z"/><path fill="#F0F000" fill-opacity=".769" d="M-14.7-22.3q-9-.35-18.8-.35-5.8 0-11.35.15v38.05q6.3-.15 12.85-.15 8.25 0 16 .2l1.3-37.9z"/><path fill="#D7D700" d="M-44.85-22.5q-12.05.2-22.8 1l-5.3 38.45q13.2-1.1 28.1-1.4V-22.5z"/><path fill="#D7D700" fill-opacity=".988" d="M-100.05-17.45q-2.3.45-4.35.9l-12.5 40.45q4.6-1.35 10.75-2.55l6.1-38.8z"/><path fill="#B6B600" d="M66.9 32.6q-.1-.6-.35-1.15-2.2-4.75-17.25-8.5-5-1.25-11.35-2.4-5.25-.95-10.9-1.7-13.8-1.85-29.9-2.7-6.4-.35-13.15-.55-7.75-.2-16-.2-6.55 0-12.85.15-14.9.3-28.1 1.4-15.75 1.25-29 3.6-2.2.4-4.2.8-6.15 1.2-10.75 2.55-11.45 3.3-13.55 7.35-.15.25-.2.5-.25.65-.25 1.3 0 7.3 28.95 12.4 24.35 4.35 57.1 5.1 6.3.1 12.85.1 40.95 0 69.95-5.2 28.95-5.1 28.95-12.4v-.45m-54.15-6.7q1.6.15 1.6 2.2 0 .7-.35 1.35-.45.75-1.3.75-1 0-1.45-1.1l-.15-1.05q0-2.25 1.65-2.15M38.6 35.95q-1.05 0-1.45-1.1l-.2-1.05q0-2.25 1.65-2.15 1.65.15 1.65 2.2 0 .7-.4 1.35-.45.75-1.25.75M-3.7 23.2q-1.05 0-1.45-1.1l-.2-1.05q0-2.25 1.65-2.15 1.65.15 1.65 2.2 0 .7-.4 1.35-.45.75-1.25.75m-32 8.15q-.15-.3-.15-.85 0-1.65 1.65-1.65t1.65 1.7q0 1.55-1.65 1.55-1.15 0-1.5-.75m13.75-1.25l-.25-1.05q0-2.25 1.7-2.15 1.65.15 1.65 2.2 0 .75-.4 1.35-.45.75-1.25.75-1.05 0-1.45-1.1m8.3 12.2l-.2-1q0-2.25 1.65-2.15 1.6.15 1.6 2.2 0 .7-.35 1.35-.45.75-1.25.75-1.05 0-1.45-1.15M-76.7 29.1q-.15-.35-.15-.85 0-1.6 1.4-1.55 1.4.1 1.4 1.6 0 .75-.55 1.2-.45.35-.9.35-.85 0-1.2-.75m3.9 5.3q1.6.15 1.6 2.2 0 .75-.35 1.35-.45.75-1.3.75-1 0-1.4-1.1l-.2-1.05q0-2.25 1.65-2.15m28.5-6.65q1.15 0 1.15 1.55 0 .65-.3 1.1-.3.45-.85.45-.75 0-1.05-.75-.15-.4-.15-.85 0-1.5 1.2-1.5m-2.45-2.2q0 .65-.3 1.1-.35.45-.85.45-.75 0-1.05-.75-.15-.35-.15-.85 0-1.5 1.2-1.5 1.15 0 1.15 1.55m-3.8 5.45q1.15 0 1.15 1.55 0 .6-.3 1.05-.3.5-.85.5-.7 0-1-.75-.15-.4-.15-.85 0-1.5 1.15-1.5M-102 34.1l-.2-1.05q0-2.25 1.6-2.15 1.65.15 1.65 2.2 0 .75-.35 1.35-.5.75-1.3.75-1 0-1.4-1.1m12.65-1.75l-.2-1.05q0-2.25 1.65-2.15 1.6.15 1.6 2.2 0 .75-.4 1.35-.45.75-1.25.75-1.05 0-1.4-1.1m-1.9 6.25l-.2-1.05q0-2.1 1.95-2.2 1.9-.1 1.9 2.25 0 .75-.4 1.35-.5.75-1.55.75-1.3 0-1.7-1.1z"/><path fill="#A1A12A" fill-opacity=".769" d="M-91.45 37.55l.2 1.05q.4 1.1 1.7 1.1 1.05 0 1.55-.75.4-.6.4-1.35 0-2.35-1.9-2.25-1.95.1-1.95 2.2m1.9-6.25l.2 1.05q.35 1.1 1.4 1.1.8 0 1.25-.75.4-.6.4-1.35 0-2.05-1.6-2.2-1.65-.1-1.65 2.15m-12.65 1.75l.2 1.05q.4 1.1 1.4 1.1.8 0 1.3-.75.35-.6.35-1.35 0-2.05-1.65-2.2-1.6-.1-1.6 2.15m52.8-.5q0-1.55-1.15-1.55t-1.15 1.5q0 .45.15.85.3.75 1 .75.55 0 .85-.5.3-.45.3-1.05m2.35-5.9q.3-.45.3-1.1 0-1.55-1.15-1.55-1.2 0-1.2 1.5 0 .5.15.85.3.75 1.05.75.5 0 .85-.45m3.9 2.65q0-1.55-1.15-1.55-1.2 0-1.2 1.5 0 .45.15.85.3.75 1.05.75.55 0 .85-.45.3-.45.3-1.1m-28.05 7.3q0-2.05-1.6-2.2-1.65-.1-1.65 2.15l.2 1.05q.4 1.1 1.4 1.1.85 0 1.3-.75.35-.6.35-1.35m-5.65-8.35q0 .5.15.85.35.75 1.2.75.45 0 .9-.35.55-.45.55-1.2 0-1.5-1.4-1.6-1.4-.05-1.4 1.55m63 13.05l.2 1q.4 1.15 1.45 1.15.8 0 1.25-.75.35-.65.35-1.35 0-2.05-1.6-2.2-1.65-.1-1.65 2.15m-8.35-12.25l.25 1.05q.4 1.1 1.45 1.1.8 0 1.25-.75.4-.6.4-1.35 0-2.05-1.65-2.2-1.7-.1-1.7 2.15m-13.65 1.45q0 .55.15.85.35.75 1.5.75 1.65 0 1.65-1.55 0-1.7-1.65-1.7t-1.65 1.65m30.7-8.4q.4 1.1 1.45 1.1.8 0 1.25-.75.4-.65.4-1.35 0-2.05-1.65-2.2-1.65-.1-1.65 2.15l.2 1.05m42.3 12.75q.4 1.1 1.45 1.1.8 0 1.25-.75.4-.65.4-1.35 0-2.05-1.65-2.2-1.65-.1-1.65 2.15l.2 1.05m-22.8-6.75q0-2.05-1.6-2.2-1.65-.1-1.65 2.15l.15 1.05q.45 1.1 1.45 1.1.85 0 1.3-.75.35-.65.35-1.35z"/><path fill="#BB0" d="M55.85-4.75L54.1-10.4q-4.65-3.6-18.45-6.5L49.3 22.95q15.05 3.75 17.25 8.5l-10.7-36.2z"/><path fill="#DBDB00" d="M17.25-19.9q-3.25-.4-6.7-.75-7.65-.75-15.9-1.25l2.5 38.05q16.1.85 29.9 2.7l-9.8-38.75z"/><path fill="#C96" d="M10.55-20.65q3.45.35 6.7.75 6.7.8 12.8 1.9 3 .55 5.6 1.1 13.8 2.9 18.45 6.5l1.75 5.65q.55-.9.55-1.8V-34.7q-.15-6.6-26.35-11.3Q3.7-50.65-33.5-50.65q-37.25 0-63.55 4.65-26.25 4.7-26.35 11.3v28.05q0 1.2.85 2.35l1.65-6.2q4.35-3.3 16.5-6.05 2.05-.45 4.35-.9 1.45-.25 3-.55 9.1-1.6 19.5-2.65 4.8-.5 9.9-.85 10.75-.8 22.8-1 5.55-.15 11.35-.15 9.8 0 18.8.35 4.75.15 9.35.4 8.25.5 15.9 1.25z"/></g><path fill="#FFF" fill-opacity=".678" d="M21.95-31.7q-5.35 5.35-5.35 12.85 0 1.25.15 2.45-2-.55-4.2-.55-5.5 0-9.6 3.4v-.25q0-6.8-4.85-11.6-4.8-4.8-11.55-4.8-6.7 0-11.5 4.65-.8-1.05-1.75-2-6.35-6.35-15.35-6.35-8.95 0-15.3 6.35-6.35 6.35-6.35 15.3 0 3.6 1.05 6.8-.8.5-1.5 1.2-2.65 2.7-2.65 6.45t2.65 6.45q2.65 2.65 6.45 2.65 3.75 0 6.4-2.65.45-.45.8-.9 3.9 1.65 8.45 1.65 4.9 0 9-1.85-1.15 3.35-1.15 7.2 0 9.2 6.55 15.75 6.5 6.55 15.75 6.55 9.2 0 15.75-6.55 6.5-6.55 6.5-15.75v-1.1q1.05.15 2.2.15 6.35 0 10.9-4.5 4.5-4.5 4.5-10.85v-.35Q30.9-.7 34.3-.65q-.8 2.5-.8 5.35 0 6.9 4.85 11.75 4.9 4.9 11.8 4.9t11.75-4.9q4.9-4.85 4.9-11.75T61.9-7.1q-4.3-4.3-10.2-4.8 1.3-3.2 1.3-6.95 0-7.5-5.3-12.85Q42.35-37 34.8-37q-7.55 0-12.85 5.3z" id="k"/><g id="l"><path fill="#2D89E5" d="M-81.15-46.85l-1.7-4.05-2.9 57.75 18.85 44.1 2.25-57.75-2.65-6.4-2.6-6.15-8.8-21.45-2.45-6.05z"/><path fill="#0E74DB" d="M82.85 50.95l2.9-57.75h-150.4l-2.25 57.75H82.85z"/><path fill="#1C8DFF" d="M83-13.2l-2.6-6.15H-69.9l2.6 6.15H83z"/><path fill="#39F" d="M85.75-6.8L83-13.2H-67.3l2.65 6.4h150.4m-17-40.05L66.9-50.9H-82.85l1.7 4.05h149.9z"/><path fill="#2391FF" d="M71.2-40.8l-2.45-6.05h-149.9l2.45 6.05H71.2z"/><path fill="#4DA5FF" d="M80.4-19.35L71.2-40.8H-78.7l8.8 21.45H80.4z"/></g><path id="f" stroke="#8CA8B8" stroke-linejoin="round" stroke-linecap="round" fill="none" d="M470.25 635.35q4.1 0 7 2.95 2.95 2.9 2.95 7v81.6q-.1 3.95-2.95 6.75-2.9 2.95-7 2.95H361.6q-4.1 0-7-2.95-2.8-2.8-2.9-6.75v-81.6q0-4.1 2.9-7 2.9-2.95 7-2.95h108.6"/></defs><g transform="translate(-349.45 -632.95)"><use xlink:href="#e"/><use xlink:href="#f"/></g><g filter="url(#g)"><use xlink:href="#h" transform="matrix(.1991 0 0 .17136 -70.95 -6.15)"/><use xlink:href="#i" transform="translate(7.7 7.9)"/><use xlink:href="#j" transform="matrix(.18042 0 0 .18042 41.4 25.7)"/><use xlink:href="#k" transform="rotate(2.935 -588.824 704.714) scale(.19992)"/><g><use xlink:href="#l" transform="matrix(.18042 0 0 .18042 33.4 45.75)"/></g></g></svg>