<svg xmlns="http://www.w3.org/2000/svg" xmlns:xlink="http://www.w3.org/1999/xlink" preserveAspectRatio="none" width="133" height="106" viewBox="0 0 133 106"><defs><g id="a"><path fill="#FFF" d="M694.75 309.85H586.1q-4.1 0-7 2.95-2.9 2.9-2.9 7v81.6q.1 3.95 2.9 6.75 2.9 2.95 7 2.95h108.65q4.1 0 7-2.95 2.85-2.8 2.95-6.75v-81.6q0-4.1-2.95-7-2.9-2.95-7-2.95m-3 12.95q2.95 2.9 2.95 7v66.7h-.55q-.75 2-2.4 3.65-2.9 2.95-7 2.95H596.1q-4.1 0-7-2.95-1.65-1.65-2.35-3.65h-.55v-66.7q0-4.1 2.9-7 2.9-2.95 7-2.95h88.65q4.1 0 7 2.95z"/><path fill="#F00" d="M694.7 329.8q0-4.1-2.95-7-2.9-2.95-7-2.95H596.1q-4.1 0-7 2.95-2.9 2.9-2.9 7v66.7h.55q.7 2 2.35 3.65 2.9 2.95 7 2.95h88.65q4.1 0 7-2.95 1.65-1.65 2.4-3.65h.55v-66.7m-105-4q1.7-.05 2.1-.05 1.7 0 2.75 1 1 1 1 2.65 0 4.25-4.1 4.25h-1.75v-7.85m11.45 2.75q.75.75.75 1.9 0 .25-.1.75h-4.1q.05.65.45 1.05.45.4 1.2.4.9 0 1.4-.5l.5 1.05q-.7.55-2.1.55-1.3 0-2.1-.75-.75-.8-.75-2.15 0-1.35.85-2.2.85-.85 2-.85 1.25 0 2 .75m2.9-2.9q.3 0 .55.25.2.25.2.55 0 .3-.2.55-.25.25-.55.25-.35 0-.55-.25-.25-.25-.25-.55 0-.3.25-.55.2-.25.55-.25m-1.45 2.25h2.1v5.75h-1.35V329h-.75v-1.1m9 5.75h-1.65l-1.45-1.85-1.35 1.85h-1.55l2.2-2.95-2.05-2.8h1.55l1.2 1.75 1.35-1.75h1.55l-2.2 2.8 2.4 2.95m5.2-5.1q.75.75.75 1.9 0 .25-.1.75h-4.1q.05.65.45 1.05.45.4 1.2.4.9 0 1.4-.5l.5 1.05q-.7.55-2.1.55-1.3 0-2.1-.75-.75-.8-.75-2.15 0-1.35.85-2.2.85-.85 2-.85 1.25 0 2 .75m5.65.6l-.3-1.05q.7-.3 1.65-.3 1.3 0 1.9.6.65.6.65 2.25v1.25q0 1.15.45 1.45-.15.25-.35.35-.25.05-.5.05-.3 0-.5-.2-.25-.2-.3-.45-.2.3-.65.45-.45.2-.95.2-.95 0-1.45-.45-.55-.45-.55-1.35 0-.95.75-1.55.75-.55 2.15-.55.2 0 .55.1 0-1.05-1.3-1.05-.75 0-1.25.25m8.65-.95l-.4 1.05q-.4-.4-1.2-.4-.7 0-.7.55 0 .25.25.4.2.2.95.5t1.1.7q.35.45.35 1.05 0 .8-.6 1.25-.6.45-1.6.45-.6 0-.95-.1t-.9-.35l.5-1.1q.6.5 1.35.5.8 0 .8-.55 0-.35-.25-.55-.25-.2-.9-.5-1.5-.6-1.5-1.75 0-.75.55-1.15.6-.4 1.45-.4.9 0 1.7.4m8.05 4.15v1.25q-.45.15-1.35.15-.85 0-1.3-.5-.45-.45-.45-1.35V329h-.7v-1.1h.7v-1.15l1.3-.5v1.65h1.6v1.1h-1.6v2.5q0 .6.2.85t.7.25q.5 0 .9-.25m2.8-3.45q-.75 0-1.25.25l-.3-1.05q.7-.3 1.65-.3 1.3 0 1.9.6.65.6.65 2.25v1.25q0 1.15.45 1.45-.15.25-.35.35-.25.05-.5.05-.3 0-.5-.2-.25-.2-.3-.45-.2.3-.65.45-.45.2-.95.2-.95 0-1.45-.45-.55-.45-.55-1.35 0-.95.75-1.55.75-.55 2.15-.55.2 0 .55.1 0-1.05-1.3-1.05m9.15.2q-.3.15-.4.4v4.15h-1.35v-3.8q0-.45-.25-.7-.25-.25-.75-.25-.25 0-.55.2-.3.2-.45.4v4.15h-1.3v-5.75h.9l.25.5q.6-.6 1.45-.6 1.15 0 1.75.6.25-.25.7-.45.45-.15.9-.15.95 0 1.5.55t.55 1.5v3.8h-1.35v-3.6q0-1.15-1.05-1.15-.3 0-.55.2m40.55-.9l-.4 1.05q-.4-.4-1.2-.4-.7 0-.7.55 0 .25.25.4.2.2.95.5t1.1.7q.35.45.35 1.05 0 .8-.6 1.25-.6.45-1.6.45-.6 0-.95-.1t-.9-.35l.5-1.1q.6.5 1.35.5.8 0 .8-.55 0-.35-.25-.55-.25-.2-.9-.5-1.5-.6-1.5-1.75 0-.75.55-1.15.6-.4 1.45-.4.9 0 1.7.4m-30.95 2.6q0 1.45-.75 2.2-.75.75-2.1.75-.6 0-1.15-.25v2.4h-1.35v-8h1.35v.4q.5-.5 1.25-.5 2.75 0 2.75 3m1.65-1.65l-.3-1.05q.7-.3 1.65-.3 1.3 0 1.9.6.65.6.65 2.25v1.25q0 1.15.45 1.45-.15.25-.35.35-.25.05-.5.05-.3 0-.5-.2-.25-.2-.3-.45-.2.3-.65.45-.45.2-.95.2-.95 0-1.45-.45-.55-.45-.55-1.35 0-.95.75-1.55.75-.55 2.15-.55.2 0 .55.1 0-1.05-1.3-1.05-.75 0-1.25.25m4.95.2q0-.75.55-1.15.6-.4 1.45-.4.9 0 1.7.4l-.4 1.05q-.4-.4-1.2-.4-.7 0-.7.55 0 .25.25.4.2.2.95.5t1.1.7q.35.45.35 1.05 0 .8-.6 1.25-.6.45-1.6.45-.6 0-.95-.1t-.9-.35l.5-1.1q.6.5 1.35.5.8 0 .8-.55 0-.35-.25-.55-.25-.2-.9-.5-1.5-.6-1.5-1.75m12.15-3.6l1.3-.3v8.2h-1.3v-.35q-.2.2-.6.3-.4.15-.8.15-1.2 0-1.9-.75t-.7-2.15q0-1.35.8-2.2.8-.85 2-.85.65 0 1.2.25v-2.3m2.25 5q0-1.3.75-2.15.75-.8 2-.8 1.35 0 2.05.8.75.8.75 2.15 0 1.4-.75 2.2-.75.8-2.05.8-1.3 0-2-.8-.75-.85-.75-2.2m-67.25 7.85q.9 0 1.7.4l-.4 1.05q-.4-.4-1.2-.4-.7 0-.7.55 0 .25.25.4.2.2.95.5t1.1.7q.35.45.35 1.05 0 .8-.6 1.25-.6.45-1.6.45-.6 0-.95-.1t-.9-.35l.5-1.1q.6.5 1.35.5.8 0 .8-.55 0-.35-.25-.55-.25-.2-.9-.5-1.5-.6-1.5-1.75 0-.75.55-1.15.6-.4 1.45-.4m-5.7 1.1q-.75 0-1.25.25l-.3-1.05q.7-.3 1.65-.3 1.3 0 1.9.6.65.6.65 2.25v1.25q0 1.15.45 1.45-.15.25-.35.35-.25.05-.5.05-.3 0-.5-.2-.25-.2-.3-.45-.2.3-.65.45-.45.2-.95.2-.95 0-1.45-.45-.55-.45-.55-1.35 0-.95.75-1.55.75-.55 2.15-.55.2 0 .55.1 0-1.05-1.3-1.05m-3.9-1h1.4l-2.65 5.85h-.45l-2.6-5.85H602l1.35 3.5 1.5-3.5m52.3 1.25l-.3-1.05q.7-.3 1.65-.3 1.3 0 1.9.6.65.6.65 2.25v1.25q0 1.15.45 1.45-.15.25-.35.35-.25.05-.5.05-.3 0-.5-.2-.25-.2-.3-.45-.2.3-.65.45-.45.2-.95.2-.95 0-1.45-.45-.55-.45-.55-1.35 0-.95.75-1.55.75-.55 2.15-.55.2 0 .55.1 0-1.05-1.3-1.05-.75 0-1.25.25m-1.75-.15h-1.6v2.5q0 .6.2.85t.7.25q.5 0 .9-.25v1.25q-.45.15-1.35.15-.85 0-1.3-.5-.45-.45-.45-1.35v-2.9h-.7v-1.1h.7v-1.15l1.3-.5v1.65h1.6v1.1m-5.9-3.1q.2-.25.55-.25.3 0 .55.25.2.25.2.55 0 .3-.2.55-.25.25-.55.25-.35 0-.55-.25-.25-.25-.25-.55 0-.3.25-.55m-.9 3.1v-1.1h2.1v5.75h-1.35v-4.65h-.75m10.2-3.45h1.35l-1.25 1.55h-1l.9-1.55m-33.35 2.25q.9 0 1.7.4l-.4 1.05q-.4-.4-1.2-.4-.7 0-.7.55 0 .25.25.4.2.2.95.5t1.1.7q.35.45.35 1.05 0 .8-.6 1.25-.6.45-1.6.45-.6 0-.95-.1t-.9-.35l.5-1.1q.6.5 1.35.5.8 0 .8-.55 0-.35-.25-.55-.25-.2-.9-.5-1.5-.6-1.5-1.75 0-.75.55-1.15.6-.4 1.45-.4m-7.5.8q.75-.8 2-.8 1.35 0 2.05.8.75.8.75 2.15 0 1.4-.75 2.2-.75.8-2.05.8-1.3 0-2-.8-.75-.85-.75-2.2 0-1.3.75-2.15m19.2.55l-.3-1.05q.7-.3 1.65-.3 1.3 0 1.9.6.65.6.65 2.25v1.25q0 1.15.45 1.45-.15.25-.35.35-.25.05-.5.05-.3 0-.5-.2-.25-.2-.3-.45-.2.3-.65.45-.45.2-.95.2-.95 0-1.45-.45-.55-.45-.55-1.35 0-.95.75-1.55.75-.55 2.15-.55.2 0 .55.1 0-1.05-1.3-1.05-.75 0-1.25.25m-3.65-1.35q.9 0 1.7.4l-.4 1.05q-.4-.4-1.2-.4-.7 0-.7.55 0 .25.25.4.2.2.95.5t1.1.7q.35.45.35 1.05 0 .8-.6 1.25-.6.45-1.6.45-.6 0-.95-.1t-.9-.35l.5-1.1q.6.5 1.35.5.8 0 .8-.55 0-.35-.25-.55-.25-.2-.9-.5-1.5-.6-1.5-1.75 0-.75.55-1.15.6-.4 1.45-.4m10.85 1.3q-.35.15-.55.4v4.15h-1.3v-5.75h.95l.25.55q.55-.65 1.6-.65t1.65.6q.55.6.55 1.7v3.55h-1.3v-3.3q0-.75-.3-1.1-.3-.35-.95-.35-.25 0-.6.2m19.45-.7q.6-.6 1.5-.6.7 0 1.05.2l-.55 1.15q-.35-.25-.8-.25-.45 0-.8.45-.4.4-.4 1v3.3h-1.3v-5.75h1.3v.5m3 .6v-1.1h2.1v5.75h-1.35v-4.65h-.75m.9-2q-.25-.25-.25-.55 0-.3.25-.55.2-.25.55-.25.3 0 .55.25.2.25.2.55 0 .3-.2.55-.25.25-.55.25-.35 0-.55-.25m9.2 1.2q.6-.4 1.45-.4.9 0 1.7.4l-.4 1.05q-.4-.4-1.2-.4-.7 0-.7.55 0 .25.25.4.2.2.95.5t1.1.7q.35.45.35 1.05 0 .8-.6 1.25-.6.45-1.6.45-.6 0-.95-.1t-.9-.35l.5-1.1q.6.5 1.35.5.8 0 .8-.55 0-.35-.25-.55-.25-.2-.9-.5-1.5-.6-1.5-1.75 0-.75.55-1.15m-6.05.4q.75-.8 2-.8 1.35 0 2.05.8.75.8.75 2.15 0 1.4-.75 2.2-.75.8-2.05.8-1.3 0-2-.8-.75-.85-.75-2.2 0-1.3.75-2.15m-67.5 10q1.25 0 2 .75t.75 1.9q0 .25-.1.75h-4.1q.05.65.45 1.05.45.4 1.2.4.9 0 1.4-.5l.5 1.05q-.7.55-2.1.55-1.3 0-2.1-.75-.75-.8-.75-2.15 0-1.35.85-2.2.85-.85 2-.85m-5.6 0q.9 0 1.7.4l-.4 1.05q-.4-.4-1.2-.4-.7 0-.7.55 0 .25.25.4.2.2.95.5t1.1.7q.35.45.35 1.05 0 .8-.6 1.25-.6.45-1.6.45-.6 0-.95-.1t-.9-.35l.5-1.1q.6.5 1.35.5.8 0 .8-.55 0-.35-.25-.55-.25-.2-.9-.5-1.5-.6-1.5-1.75 0-.75.55-1.15.6-.4 1.45-.4m9.45 5.85v-5.75h.9l.25.5q.6-.6 1.45-.6 1.15 0 1.75.6.25-.25.7-.45.45-.15.9-.15.95 0 1.5.55t.55 1.5v3.8h-1.35v-3.6q0-1.15-1.05-1.15-.3 0-.55.2-.3.15-.4.4v4.15h-1.35v-3.8q0-.45-.25-.7-.25-.25-.75-.25-.25 0-.55.2-.3.2-.45.4v4.15h-1.3m20.95-5q.85-.85 2-.85 1.25 0 2 .75t.75 1.9q0 .25-.1.75h-4.1q.05.65.45 1.05.45.4 1.2.4.9 0 1.4-.5l.5 1.05q-.7.55-2.1.55-1.3 0-2.1-.75-.75-.8-.75-2.15 0-1.35.85-2.2m-1.3-.65l-.55 1.15q-.35-.25-.8-.25-.45 0-.8.45-.4.4-.4 1v3.3H623v-5.75h1.3v.5q.6-.6 1.5-.6.7 0 1.05.2m-7.75-.2q2.75 0 2.75 3 0 1.45-.75 2.2-.75.75-2.1.75-.6 0-1.15-.25v2.4h-1.35v-8h1.35v.4q.5-.5 1.25-.5m60.95 2.5q.75.3 1.1.7.35.45.35 1.05 0 .8-.6 1.25-.6.45-1.6.45-.6 0-.95-.1t-.9-.35l.5-1.1q.6.5 1.35.5.8 0 .8-.55 0-.35-.25-.55-.25-.2-.9-.5-1.5-.6-1.5-1.75 0-.75.55-1.15.6-.4 1.45-.4.9 0 1.7.4l-.4 1.05q-.4-.4-1.2-.4-.7 0-.7.55 0 .25.25.4.2.2.95.5m3 3.35q-.25-.3-.25-.7 0-.4.25-.7.3-.25.7-.25.4 0 .7.25.25.3.25.7 0 .4-.25.7-.3.25-.7.25-.4 0-.7-.25m-8-3.7q0-1.05-1.3-1.05-.75 0-1.25.25l-.3-1.05q.7-.3 1.65-.3 1.3 0 1.9.6.65.6.65 2.25v1.25q0 1.15.45 1.45-.15.25-.35.35-.25.05-.5.05-.3 0-.5-.2-.25-.2-.3-.45-.2.3-.65.45-.45.2-.95.2-.95 0-1.45-.45-.55-.45-.55-1.35 0-.95.75-1.55.75-.55 2.15-.55.2 0 .55.1m-5.7-1.9v-2.3l1.3-.3v8.2h-1.3v-.35q-.2.2-.6.3-.4.15-.8.15-1.2 0-1.9-.75t-.7-2.15q0-1.35.8-2.2.8-.85 2-.85.65 0 1.2.25m-5.8.35q.65.6.65 2.25v1.25q0 1.15.45 1.45-.15.25-.35.35-.25.05-.5.05-.3 0-.5-.2-.25-.2-.3-.45-.2.3-.65.45-.45.2-.95.2-.95 0-1.45-.45-.55-.45-.55-1.35 0-.95.75-1.55.75-.55 2.15-.55.2 0 .55.1 0-1.05-1.3-1.05-.75 0-1.25.25l-.3-1.05q.7-.3 1.65-.3 1.3 0 1.9.6m-5.2 1.7v3.55H657v-3.55q0-.55-.35-.85-.3-.3-.85-.3-.35 0-.7.15-.3.2-.45.4v4.15h-1.35v-7.9l1.35-.3v2.8q.5-.45 1.4-.45 1.1 0 1.7.6.6.6.6 1.7m-9.25-.7q-.45.55-.45 1.4 0 1.85 1.7 1.85.75 0 1.35-.5l.5 1.05q-.6.35-1.05.45-.45.1-1.05.1-1.3 0-2.1-.75-.75-.8-.75-2.2 0-1.35.85-2.15.85-.85 2.3-.85 1 0 1.75.55l-.6 1q-.45-.45-1.25-.45-.75 0-1.2.5m-5.3-1.6q1.25 0 2 .75t.75 1.9q0 .25-.1.75h-4.1q.05.65.45 1.05.45.4 1.2.4.9 0 1.4-.5l.5 1.05q-.7.55-2.1.55-1.3 0-2.1-.75-.75-.8-.75-2.15 0-1.35.85-2.2.85-.85 2-.85m-2.9-2.05l-.4 1q-.45-.15-.7-.15-.4 0-.65.35t-.25.8v.15h1.2v1.1h-1.2v4.65h-1.3v-4.65h-.85v-1.1h.85q0-1.05.6-1.7.6-.65 1.5-.65.5 0 1.2.2m7.45 13.65q.75-.8 2-.8 1.35 0 2.05.8.75.8.75 2.15 0 1.4-.75 2.2-.75.8-2.05.8-1.3 0-2-.8-.75-.85-.75-2.2 0-1.3.75-2.15m-58.8-2.8h5.05v1.2h-3.65v1.85h2.6v1.2h-2.6v2.35h3.55v1.25h-4.95v-7.85m7.1 2.1l.25.5q.6-.6 1.45-.6 1.15 0 1.75.6.25-.25.7-.45.45-.15.9-.15.95 0 1.5.55t.55 1.5v3.8h-1.35v-3.6q0-1.15-1.05-1.15-.3 0-.55.2-.3.15-.4.4v4.15h-1.35v-3.8q0-.45-.25-.7-.25-.25-.75-.25-.25 0-.55.2-.3.2-.45.4v4.15h-1.3v-5.75h.9m44.4-2.25q.3 0 .55.25.2.25.2.55 0 .3-.2.55-.25.25-.55.25-.35 0-.55-.25-.25-.25-.25-.55 0-.3.25-.55.2-.25.55-.25m-6.9 3q.85-.85 2-.85 1.25 0 2 .75t.75 1.9q0 .25-.1.75h-4.1q.05.65.45 1.05.45.4 1.2.4.9 0 1.4-.5l.5 1.05q-.7.55-2.1.55-1.3 0-2.1-.75-.75-.8-.75-2.15 0-1.35.85-2.2m-4.2-.85q1.1 0 1.7.6.6.6.6 1.7v3.55h-1.35v-3.55q0-.55-.35-.85-.3-.3-.85-.3-.35 0-.7.15-.3.2-.45.4v4.15h-1.35v-7.9l1.35-.3v2.8q.5-.45 1.4-.45m14.65.6q.6-.6 1.5-.6.7 0 1.05.2l-.55 1.15q-.35-.25-.8-.25-.45 0-.8.45-.4.4-.4 1v3.3h-1.3v-5.75h1.3v.5m-5-.5h2.1v5.75h-1.35v-4.65h-.75v-1.1m-31.25-2.15l1.35-.3v2.65q.55-.3 1.2-.3 1.25 0 2 .8.8.8.8 2.05 0 1.45-.8 2.25-.75.85-2.1.85-.8 0-1.35-.4l-.3.4h-.8v-8m6.7 2.35q.7-.3 1.65-.3 1.3 0 1.9.6.65.6.65 2.25v1.25q0 1.15.45 1.45-.15.25-.35.35-.25.05-.5.05-.3 0-.5-.2-.25-.2-.3-.45-.2.3-.65.45-.45.2-.95.2-.95 0-1.45-.45-.55-.45-.55-1.35 0-.95.75-1.55.75-.55 2.15-.55.2 0 .55.1 0-1.05-1.3-1.05-.75 0-1.25.25l-.3-1.05m9.05 1.15q-.3-.35-.95-.35-.25 0-.6.2-.35.15-.55.4v4.15h-1.3v-5.75h.95l.25.55q.55-.65 1.6-.65t1.65.6q.55.6.55 1.7v3.55h-1.3v-3.3q0-.75-.3-1.1m33.05 0q-.4-.4-1.2-.4-.7 0-.7.55 0 .25.25.4.2.2.95.5t1.1.7q.35.45.35 1.05 0 .8-.6 1.25-.6.45-1.6.45-.6 0-.95-.1t-.9-.35l.5-1.1q.6.5 1.35.5.8 0 .8-.55 0-.35-.25-.55-.25-.2-.9-.5-1.5-.6-1.5-1.75 0-.75.55-1.15.6-.4 1.45-.4.9 0 1.7.4l-.4 1.05m20.05 3.4q.45 0 .85-.25.4-.25.55-.55v-3.95h1.3v5.75h-1.3v-.5q-.3.25-.8.45-.5.15-.9.15-2 0-2-2.1v-3.75h1.3v3.65q0 1.1 1 1.1m-6.2-4.85q1.35 0 2.05.8.75.8.75 2.15 0 1.4-.75 2.2-.75.8-2.05.8-1.3 0-2-.8-.75-.85-.75-2.2 0-1.3.75-2.15.75-.8 2-.8m15.65 2.95q0-1.3.75-2.15.75-.8 2-.8 1.35 0 2.05.8.75.8.75 2.15 0 1.4-.75 2.2-.75.8-2.05.8-1.3 0-2-.8-.75-.85-.75-2.2m-2.5-2.95q1 0 1.75.55l-.6 1q-.45-.45-1.25-.45-.75 0-1.2.5-.45.55-.45 1.4 0 1.85 1.7 1.85.75 0 1.35-.5l.5 1.05q-.6.35-1.05.45-.45.1-1.05.1-1.3 0-2.1-.75-.75-.8-.75-2.2 0-1.35.85-2.15.85-.85 2.3-.85m-20.65.1v.4q.5-.5 1.25-.5 2.75 0 2.75 3 0 1.45-.75 2.2-.75.75-2.1.75-.6 0-1.15-.25v2.4h-1.35v-8h1.35m-62.7 10.8h1.3v3.65q0 1.1 1 1.1.45 0 .85-.25.4-.25.55-.55v-3.95h1.3v5.75h-1.3v-.5q-.3.25-.8.45-.5.15-.9.15-2 0-2-2.1v-3.75m6.1 5.4l.5-1.1q.6.5 1.35.5.8 0 .8-.55 0-.35-.25-.55-.25-.2-.9-.5-1.5-.6-1.5-1.75 0-.75.55-1.15.6-.4 1.45-.4.9 0 1.7.4l-.4 1.05q-.4-.4-1.2-.4-.7 0-.7.55 0 .25.25.4.2.2.95.5t1.1.7q.35.45.35 1.05 0 .8-.6 1.25-.6.45-1.6.45-.6 0-.95-.1t-.9-.35m14.7-7.55l1.3-.3v8.2h-1.3v-.35q-.2.2-.6.3-.4.15-.8.15-1.2 0-1.9-.75t-.7-2.15q0-1.35.8-2.2.8-.85 2-.85.65 0 1.2.25v-2.3m2.25 5q0-1.3.75-2.15.75-.8 2-.8 1.35 0 2.05.8.75.8.75 2.15 0 1.4-.75 2.2-.75.8-2.05.8-1.3 0-2-.8-.75-.85-.75-2.2m-8.05-2.35q.65.6.65 2.25v1.25q0 1.15.45 1.45-.15.25-.35.35-.25.05-.5.05-.3 0-.5-.2-.25-.2-.3-.45-.2.3-.65.45-.45.2-.95.2-.95 0-1.45-.45-.55-.45-.55-1.35 0-.95.75-1.55.75-.55 2.15-.55.2 0 .55.1 0-1.05-1.3-1.05-.75 0-1.25.25l-.3-1.05q.7-.3 1.65-.3 1.3 0 1.9.6m18-.2l-.4 1.05q-.4-.4-1.2-.4-.7 0-.7.55 0 .25.25.4.2.2.95.5t1.1.7q.35.45.35 1.05 0 .8-.6 1.25-.6.45-1.6.45-.6 0-.95-.1t-.9-.35l.5-1.1q.6.5 1.35.5.8 0 .8-.55 0-.35-.25-.55-.25-.2-.9-.5-1.5-.6-1.5-1.75 0-.75.55-1.15.6-.4 1.45-.4.9 0 1.7.4m37.15-.3h1.3v.5q.6-.6 1.5-.6.7 0 1.05.2l-.55 1.15q-.35-.25-.8-.25-.45 0-.8.45-.4.4-.4 1v3.3h-1.3v-5.75m-18.65-1.45q0-.3.25-.55.2-.25.55-.25.3 0 .55.25.2.25.2.55 0 .3-.2.55-.25.25-.55.25-.35 0-.55-.25-.25-.25-.25-.55m-.65 1.45h2.1v5.75h-1.35v-4.65h-.75v-1.1m7.95 0h.7v-1.15l1.3-.5v1.65h1.6v1.1h-1.6v2.5q0 .6.2.85t.7.25q.5 0 .9-.25v1.25q-.45.15-1.35.15-.85 0-1.3-.5-.45-.45-.45-1.35v-2.9h-.7v-1.1m4.85 0h1.3v3.65q0 1.1 1 1.1.45 0 .85-.25.4-.25.55-.55v-3.95h1.3v5.75h-1.3v-.5q-.3.25-.8.45-.5.15-.9.15-2 0-2-2.1v-3.75m-5.8.3l-.4 1.05q-.4-.4-1.2-.4-.7 0-.7.55 0 .25.25.4.2.2.95.5t1.1.7q.35.45.35 1.05 0 .8-.6 1.25-.6.45-1.6.45-.6 0-.95-.1t-.9-.35l.5-1.1q.6.5 1.35.5.8 0 .8-.55 0-.35-.25-.55-.25-.2-.9-.5-1.5-.6-1.5-1.75 0-.75.55-1.15.6-.4 1.45-.4.9 0 1.7.4m-8.05 5.45h-1.35v-3.6q0-1.15-1.05-1.15-.3 0-.55.2-.3.15-.4.4v4.15h-1.35v-3.8q0-.45-.25-.7-.25-.25-.75-.25-.25 0-.55.2-.3.2-.45.4v4.15h-1.3v-5.75h.9l.25.5q.6-.6 1.45-.6 1.15 0 1.75.6.25-.25.7-.45.45-.15.9-.15.95 0 1.5.55t.55 1.5v3.8m29.1-1.5l.5 1.05q-.7.55-2.1.55-1.3 0-2.1-.75-.75-.8-.75-2.15 0-1.35.85-2.2.85-.85 2-.85 1.25 0 2 .75t.75 1.9q0 .25-.1.75h-4.1q.05.65.45 1.05.45.4 1.2.4.9 0 1.4-.5m-78.1 7.8l-.3-1.05q.7-.3 1.65-.3 1.3 0 1.9.6.65.6.65 2.25v1.25q0 1.15.45 1.45-.15.25-.35.35-.25.05-.5.05-.3 0-.5-.2-.25-.2-.3-.45-.2.3-.65.45-.45.2-.95.2-.95 0-1.45-.45-.55-.45-.55-1.35 0-.95.75-1.55.75-.55 2.15-.55.2 0 .55.1 0-1.05-1.3-1.05-.75 0-1.25.25m3-3.6l-1.25 1.55h-1l.9-1.55h1.35m31.6-2.45q0-.15-.1-.3-.55-.25-.55-.7 0-.3.3-.5.25-.25.65-.25.35 0 .65.3.3.3.3.65 0 .7-.35 1.25-.3.55-1.45 1.3l-.45-.6q1-.7 1-1.15m-28.75 8.6q-1-.6-1-1.8 0-.9.7-1.5.65-.6 1.65-.6.8 0 1.3.25l.55-.6.9.85-.65.45q.35.5.35 1.2 0 1-.6 1.6-.6.55-1.5.55h-.4l-.2-.05q-.05 0-.3.15-.25.1-.25.2 0 .25.35.25.2 0 .6-.1.35-.1.65-.1 1.95 0 1.95 1.6 0 .85-.75 1.35-.8.5-1.9.5-1.35 0-2.4-.75l.85-1.05q.7.6 1.55.6.6 0 .95-.15.4-.15.4-.45 0-.55-.85-.55-.2 0-.65.05-.45.1-.7.1-1.35 0-1.35-1 0-.3.2-.6.25-.25.55-.4m41.25-3.8v-1.15l1.3-.5v1.65h1.6v1.1H650v2.5q0 .6.2.85t.7.25q.5 0 .9-.25v1.25q-.45.15-1.35.15-.85 0-1.3-.5-.45-.45-.45-1.35V383h-.7v-1.1h.7m5.9 1q-.75 0-1.25.25l-.3-1.05q.7-.3 1.65-.3 1.3 0 1.9.6.65.6.65 2.25v1.25q0 1.15.45 1.45-.15.25-.35.35-.25.05-.5.05-.3 0-.5-.2-.25-.2-.3-.45-.2.3-.65.45-.45.2-.95.2-.95 0-1.45-.45-.55-.45-.55-1.35 0-.95.75-1.55.75-.55 2.15-.55.2 0 .55.1 0-1.05-1.3-1.05m1.75-3.35l-1.25 1.55h-1l.9-1.55h1.35m-35.65 3.35q-.75 0-1.25.25l-.3-1.05q.7-.3 1.65-.3 1.3 0 1.9.6.65.6.65 2.25v1.25q0 1.15.45 1.45-.15.25-.35.35-.25.05-.5.05-.3 0-.5-.2-.25-.2-.3-.45-.2.3-.65.45-.45.2-.95.2-.95 0-1.45-.45-.55-.45-.55-1.35 0-.95.75-1.55.75-.55 2.15-.55.2 0 .55.1 0-1.05-1.3-1.05m-4.55-1h1.3v5.75h-1.3v-.5q-.3.25-.8.45-.5.15-.9.15-2 0-2-2.1v-3.75h1.3v3.65q0 1.1 1 1.1.45 0 .85-.25.4-.25.55-.55v-3.95m23.75.55q.55-.65 1.6-.65t1.65.6q.55.6.55 1.7v3.55h-1.3v-3.3q0-.75-.3-1.1-.3-.35-.95-.35-.25 0-.6.2-.35.15-.55.4v4.15h-1.3v-5.75h.95l.25.55m6.9-2.55q.2.25.2.55 0 .3-.2.55-.25.25-.55.25-.35 0-.55-.25-.25-.25-.25-.55 0-.3.25-.55.2-.25.55-.25.3 0 .55.25m-2 3.1v-1.1h2.1v5.75h-1.35V383h-.75m-15-.15q-.7 0-.7.55 0 .25.25.4.2.2.95.5t1.1.7q.35.45.35 1.05 0 .8-.6 1.25-.6.45-1.6.45-.6 0-.95-.1t-.9-.35l.5-1.1q.6.5 1.35.5.8 0 .8-.55 0-.35-.25-.55-.25-.2-.9-.5-1.5-.6-1.5-1.75 0-.75.55-1.15.6-.4 1.45-.4.9 0 1.7.4l-.4 1.05q-.4-.4-1.2-.4m4.9-1.05q1.3 0 1.9.6.65.6.65 2.25v1.25q0 1.15.45 1.45-.15.25-.35.35-.25.05-.5.05-.3 0-.5-.2-.25-.2-.3-.45-.2.3-.65.45-.45.2-.95.2-.95 0-1.45-.45-.55-.45-.55-1.35 0-.95.75-1.55.75-.55 2.15-.55.2 0 .55.1 0-1.05-1.3-1.05-.75 0-1.25.25l-.3-1.05q.7-.3 1.65-.3M663 383v-1.1h2.1v5.75h-1.35V383H663m-.45-1l-.55 1.15q-.35-.25-.8-.25-.45 0-.8.45-.4.4-.4 1v3.3h-1.3v-5.75h1.3v.5q.6-.6 1.5-.6.7 0 1.05.2m1.9-2.35q.3 0 .55.25.2.25.2.55 0 .3-.2.55-.25.25-.55.25-.35 0-.55-.25-.25-.25-.25-.55 0-.3.25-.55.2-.25.55-.25m2.75 3.5l-.3-1.05q.7-.3 1.65-.3 1.3 0 1.9.6.65.6.65 2.25v1.25q0 1.15.45 1.45-.15.25-.35.35-.25.05-.5.05-.3 0-.5-.2-.25-.2-.3-.45-.2.3-.65.45-.45.2-.95.2-.95 0-1.45-.45-.55-.45-.55-1.35 0-.95.75-1.55.75-.55 2.15-.55.2 0 .55.1 0-1.05-1.3-1.05-.75 0-1.25.25m10.4-.25q-.75 0-1.25.25l-.3-1.05q.7-.3 1.65-.3 1.3 0 1.9.6.65.6.65 2.25v1.25q0 1.15.45 1.45-.15.25-.35.35-.25.05-.5.05-.3 0-.5-.2-.25-.2-.3-.45-.2.3-.65.45-.45.2-.95.2-.95 0-1.45-.45-.55-.45-.55-1.35 0-.95.75-1.55.75-.55 2.15-.55.2 0 .55.1 0-1.05-1.3-1.05m0-1.8l-1.2-1.55h1.4l.95 1.55h-1.15m-70.5 12.85l-.3-1.05q.7-.3 1.65-.3 1.3 0 1.9.6.65.6.65 2.25v1.25q0 1.15.45 1.45-.15.25-.35.35-.25.05-.5.05-.3 0-.5-.2-.25-.2-.3-.45-.2.3-.65.45-.45.2-.95.2-.95 0-1.45-.45-.55-.45-.55-1.35 0-.95.75-1.55.75-.55 2.15-.55.2 0 .55.1 0-1.05-1.3-1.05-.75 0-1.25.25m.75-2.05l.9-1.55h1.35l-1.25 1.55h-1m7.75.95l.55-.6.9.85-.65.45q.35.5.35 1.2 0 1-.6 1.6-.6.55-1.5.55h-.4l-.2-.05q-.05 0-.3.15-.25.1-.25.2 0 .25.35.25.2 0 .6-.1.35-.1.65-.1 1.95 0 1.95 1.6 0 .85-.75 1.35-.8.5-1.9.5-1.35 0-2.4-.75l.85-1.05q.7.6 1.55.6.6 0 .95-.15.4-.15.4-.45 0-.55-.85-.55-.2 0-.65.05-.45.1-.7.1-1.35 0-1.35-1 0-.3.2-.6.25-.25.55-.4-1-.6-1-1.8 0-.9.7-1.5.65-.6 1.65-.6.8 0 1.3.25m33.2-.15h1.45l1.35 3.5 1.5-3.5h1.4l-2.65 5.85h-.45l-2.6-5.85m6.8 2.5q.75-.55 2.15-.55.2 0 .55.1 0-1.05-1.3-1.05-.75 0-1.25.25l-.3-1.05q.7-.3 1.65-.3 1.3 0 1.9.6.65.6.65 2.25v1.25q0 1.15.45 1.45-.15.25-.35.35-.25.05-.5.05-.3 0-.5-.2-.25-.2-.3-.45-.2.3-.65.45-.45.2-.95.2-.95 0-1.45-.45-.55-.45-.55-1.35 0-.95.75-1.55m6.5-1q0 .25.25.4.2.2.95.5t1.1.7q.35.45.35 1.05 0 .8-.6 1.25-.6.45-1.6.45-.6 0-.95-.1t-.9-.35l.5-1.1q.6.5 1.35.5.8 0 .8-.55 0-.35-.25-.55-.25-.2-.9-.5-1.5-.6-1.5-1.75 0-.75.55-1.15.6-.4 1.45-.4.9 0 1.7.4l-.4 1.05q-.4-.4-1.2-.4-.7 0-.7.55m3.35 1.35q0-1.3.75-2.15.75-.8 2-.8 1.35 0 2.05.8.75.8.75 2.15 0 1.4-.75 2.2-.75.8-2.05.8-1.3 0-2-.8-.75-.85-.75-2.2m7.1 2.9q-.25-.3-.25-.7 0-.4.25-.7.3-.25.7-.25.4 0 .7.25.25.3.25.7 0 .4-.25.7-.3.25-.7.25-.4 0-.7-.25m-54.6-5.75h1.3v3.65q0 1.1 1 1.1.45 0 .85-.25.4-.25.55-.55v-3.95h1.3v5.75h-1.3v-.5q-.3.25-.8.45-.5.15-.9.15-2 0-2-2.1v-3.75m6.7.2q.7-.3 1.65-.3 1.3 0 1.9.6.65.6.65 2.25v1.25q0 1.15.45 1.45-.15.25-.35.35-.25.05-.5.05-.3 0-.5-.2-.25-.2-.3-.45-.2.3-.65.45-.45.2-.95.2-.95 0-1.45-.45-.55-.45-.55-1.35 0-.95.75-1.55.75-.55 2.15-.55.2 0 .55.1 0-1.05-1.3-1.05-.75 0-1.25.25l-.3-1.05m12.65-.05v-2.3l1.3-.3v8.2h-1.3v-.35q-.2.2-.6.3-.4.15-.8.15-1.2 0-1.9-.75t-.7-2.15q0-1.35.8-2.2.8-.85 2-.85.65 0 1.2.25m2.25 2.7q0-1.3.75-2.15.75-.8 2-.8 1.35 0 2.05.8.75.8.75 2.15 0 1.4-.75 2.2-.75.8-2.05.8-1.3 0-2-.8-.75-.85-.75-2.2m1.75-1.35q-.35.45-.35 1.35 0 1.9 1.35 1.9.65 0 1-.5.4-.5.4-1.4 0-1.85-1.4-1.85-.6 0-1 .5m-6.15 0q-.45.5-.45 1.45 0 1.75 1.75 1.75.2 0 .45-.1.3-.1.4-.2v-3.05q-.45-.3-.9-.3-.85 0-1.25.45m-7.65 1.55q-.35-.1-.5-.1-1.6 0-1.6 1.05 0 .8.9.8 1.2 0 1.2-1.2v-.55m40.7-2.05q-.6 0-1 .5-.35.45-.35 1.35 0 1.9 1.35 1.9.65 0 1-.5.4-.5.4-1.4 0-1.85-1.4-1.85m-9.9 2.05q-.35-.1-.5-.1-1.6 0-1.6 1.05 0 .8.9.8 1.2 0 1.2-1.2v-.55m-44.95-1.05q0 .55.25.85.3.3.8.3.45 0 .7-.3.25-.3.25-.85 0-.4-.25-.7-.3-.3-.7-.3-.5 0-.75.25-.3.3-.3.75m-3.7 1.05q-.35-.1-.5-.1-1.6 0-1.6 1.05 0 .8.9.8 1.2 0 1.2-1.2v-.55m67.15-9.85q0 .8.9.8 1.2 0 1.2-1.2v-.55q-.35-.1-.5-.1-1.6 0-1.6 1.05m-8.25.8q1.2 0 1.2-1.2v-.55q-.35-.1-.5-.1-1.6 0-1.6 1.05 0 .8.9.8m-32.65-1.2v-.55q-.35-.1-.5-.1-1.6 0-1.6 1.05 0 .8.9.8 1.2 0 1.2-1.2m-13.9-.55q-.35-.1-.5-.1-1.6 0-1.6 1.05 0 .8.9.8 1.2 0 1.2-1.2v-.55m33.9.55v-.55q-.35-.1-.5-.1-1.6 0-1.6 1.05 0 .8.9.8 1.2 0 1.2-1.2m-47-2.6q-.5 0-.75.25-.3.3-.3.75 0 .55.25.85.3.3.8.3.45 0 .7-.3.25-.3.25-.85 0-.4-.25-.7-.3-.3-.7-.3m-4.75 2.05q-.35-.1-.5-.1-1.6 0-1.6 1.05 0 .8.9.8 1.2 0 1.2-1.2v-.55m74-12.85q-1.15 0-1.45 1.25h2.8q-.1-1.25-1.35-1.25m-65.15 3q0 .8.9.8 1.2 0 1.2-1.2v-.55q-.35-.1-.5-.1-1.6 0-1.6 1.05m12.6-2.5q-.35.45-.35 1.35 0 1.9 1.35 1.9.65 0 1-.5.4-.5.4-1.4 0-1.85-1.4-1.85-.6 0-1 .5m-4-.15q-.45-.3-.9-.3-.85 0-1.25.45-.45.5-.45 1.45 0 1.75 1.75 1.75.2 0 .45-.1.3-.1.4-.2v-3.05m44.1-10.7q-.4-.4-1.35-.4-.45 0-.85.35v3.05q.4.25.85.25.95 0 1.35-.4.4-.45.4-1.4 0-1.05-.4-1.45m22.7.05q-.35.45-.35 1.35 0 1.9 1.35 1.9.65 0 1-.5.4-.5.4-1.4 0-1.85-1.4-1.85-.6 0-1 .5m-17.4 3.25q.65 0 1-.5.4-.5.4-1.4 0-1.85-1.4-1.85-.6 0-1 .5-.35.45-.35 1.35 0 1.9 1.35 1.9m-53.6-1.8q-1.6 0-1.6 1.05 0 .8.9.8 1.2 0 1.2-1.2v-.55q-.35-.1-.5-.1m-7.7-1.6v3q.3.35.8.35 1 0 1.4-.45.4-.45.4-1.45 0-1.75-1.7-1.75-.6 0-.9.3m27.85.9q-.1-1.25-1.35-1.25-1.15 0-1.45 1.25h2.8m11.8-.75q-.35.45-.35 1.35 0 1.9 1.35 1.9.65 0 1-.5.4-.5.4-1.4 0-1.85-1.4-1.85-.6 0-1 .5m-4.15-10.05q-.1-1.25-1.35-1.25-1.15 0-1.45 1.25h2.8m17.65.8q-.35-.1-.5-.1-1.6 0-1.6 1.05 0 .8.9.8 1.2 0 1.2-1.2v-.55m6.5-1.7q-.45-.3-.9-.3-.85 0-1.25.45-.45.5-.45 1.45 0 1.75 1.75 1.75.2 0 .45-.1.3-.1.4-.2v-3.05m5.7 1.7q-.35-.1-.5-.1-1.6 0-1.6 1.05 0 .8.9.8 1.2 0 1.2-1.2v-.55m-54.6-.15q0-1.05-.4-1.45-.4-.4-1.35-.4-.45 0-.85.35v3.05q.4.25.85.25.95 0 1.35-.4.4-.45.4-1.4m8.3-.65h2.8q-.1-1.25-1.35-1.25-1.15 0-1.45 1.25m-24 0q-.1-1.25-1.35-1.25-1.15 0-1.45 1.25h2.8m68.1-12.05q-.6 0-1 .5-.35.45-.35 1.35 0 1.9 1.35 1.9.65 0 1-.5.4-.5.4-1.4 0-1.85-1.4-1.85m-33.15 2.6v-.55q-.35-.1-.5-.1-1.6 0-1.6 1.05 0 .8.9.8 1.2 0 1.2-1.2m-19.75-2.6q-.6 0-1 .5-.35.45-.35 1.35 0 1.9 1.35 1.9.65 0 1-.5.4-.5.4-1.4 0-1.85-1.4-1.85m39.75 2.05q-.35-.1-.5-.1-1.6 0-1.6 1.05 0 .8.9.8 1.2 0 1.2-1.2v-.55m-49.65.55v-.55q-.35-.1-.5-.1-1.6 0-1.6 1.05 0 .8.9.8 1.2 0 1.2-1.2m74.4-13.4q-.6 0-1 .5-.35.45-.35 1.35 0 1.9 1.35 1.9.65 0 1-.5.4-.5.4-1.4 0-1.85-1.4-1.85m-5 .35q-.45-.3-.9-.3-.85 0-1.25.45-.45.5-.45 1.45 0 1.75 1.75 1.75.2 0 .45-.1.3-.1.4-.2v-3.05m-14.55 1.7q-.35-.1-.5-.1-1.6 0-1.6 1.05 0 .8.9.8 1.2 0 1.2-1.2v-.55m-6 1.25q.4-.45.4-1.4 0-1.05-.4-1.45-.4-.4-1.35-.4-.45 0-.85.35v3.05q.4.25.85.25.95 0 1.35-.4m-17.75-.3q0 .8.9.8 1.2 0 1.2-1.2v-.55q-.35-.1-.5-.1-1.6 0-1.6 1.05m-16.15-.95q-.35-.1-.5-.1-1.6 0-1.6 1.05 0 .8.9.8 1.2 0 1.2-1.2v-.55m-10.15-2.05q-1.15 0-1.45 1.25h2.8q-.1-1.25-1.35-1.25m-15.65 0q-1.15 0-1.45 1.25h2.8q-.1-1.25-1.35-1.25m-7.45-1.95q-.25 0-.65.05v5.4h.75q1.05 0 1.65-.75.6-.8.6-2.15 0-2.55-2.35-2.55z"/></g><path d="M640.3 393.4q-.75.85-.75 2.15 0 1.35.75 2.2.7.8 2 .8t2.05-.8q.75-.8.75-2.2 0-1.35-.75-2.15-.7-.8-2.05-.8-1.25 0-2 .8m.65 2.15q0-.9.35-1.35.4-.5 1-.5 1.4 0 1.4 1.85 0 .9-.4 1.4-.35.5-1 .5-1.35 0-1.35-1.9m-3.65-5v2.3q-.55-.25-1.2-.25-1.2 0-2 .85t-.8 2.2q0 1.4.7 2.15t1.9.75q.4 0 .8-.15.4-.1.6-.3v.35h1.3v-8.2l-1.3.3m-2.6 5.1q0-.95.45-1.45.4-.45 1.25-.45.45 0 .9.3v3.05q-.1.1-.4.2-.25.1-.45.1-1.75 0-1.75-1.75m1.9-13.25q-.6-.6-1.9-.6-.95 0-1.65.3l.3 1.05q.5-.25 1.25-.25 1.3 0 1.3 1.05-.35-.1-.55-.1-1.4 0-2.15.55-.75.6-.75 1.55 0 .9.55 1.35.5.45 1.45.45.5 0 .95-.2.45-.15.65-.45.05.25.3.45.2.2.5.2.25 0 .5-.05.2-.1.35-.35-.45-.3-.45-1.45v-1.25q0-1.65-.65-2.25m-.7 2.55v.55q0 1.2-1.2 1.2-.9 0-.9-.8 0-1.05 1.6-1.05.15 0 .5.1m-6.8-1.55q0-.55.7-.55.8 0 1.2.4l.4-1.05q-.8-.4-1.7-.4-.85 0-1.45.4-.55.4-.55 1.15 0 1.15 1.5 1.75.65.3.9.5t.25.55q0 .55-.8.55-.75 0-1.35-.5l-.5 1.1q.55.25.9.35.35.1.95.1 1 0 1.6-.45.6-.45.6-1.25 0-.6-.35-1.05-.35-.4-1.1-.7-.75-.3-.95-.5-.25-.15-.25-.4m7-6.6q.1.15.1.3 0 .45-1 1.15l.45.6q1.15-.75 1.45-1.3.35-.55.35-1.25 0-.35-.3-.65-.3-.3-.65-.3-.4 0-.65.25-.3.2-.3.5 0 .45.55.7m-2.7-4.35l.4-1.05q-.8-.4-1.7-.4-.85 0-1.45.4-.55.4-.55 1.15 0 1.15 1.5 1.75.65.3.9.5t.25.55q0 .55-.8.55-.75 0-1.35-.5l-.5 1.1q.55.25.9.35.35.1.95.1 1 0 1.6-.45.6-.45.6-1.25 0-.6-.35-1.05-.35-.4-1.1-.7-.75-.3-.95-.5-.25-.15-.25-.4 0-.55.7-.55.8 0 1.2.4m11.4 9.45v1.1h.75v4.65h1.35v-5.75h-2.1m2.2-1.45q0-.3-.2-.55-.25-.25-.55-.25-.35 0-.55.25-.25.25-.25.55 0 .3.25.55.2.25.55.25.3 0 .55-.25.2-.25.2-.55m-5.5 1.35q-1.05 0-1.6.65l-.25-.55h-.95v5.75h1.3v-4.15q.2-.25.55-.4.35-.2.6-.2.65 0 .95.35.3.35.3 1.1v3.3h1.3v-3.55q0-1.1-.55-1.7-.6-.6-1.65-.6m-15.2 10.8q-.95 0-1.65.3l.3 1.05q.5-.25 1.25-.25 1.3 0 1.3 1.05-.35-.1-.55-.1-1.4 0-2.15.55-.75.6-.75 1.55 0 .9.55 1.35.5.45 1.45.45.5 0 .95-.2.45-.15.65-.45.05.25.3.45.2.2.5.2.25 0 .5-.05.2-.1.35-.35-.45-.3-.45-1.45v-1.25q0-1.65-.65-2.25-.6-.6-1.9-.6m.7 3.05q.15 0 .5.1v.55q0 1.2-1.2 1.2-.9 0-.9-.8 0-1.05 1.6-1.05m-7.75-2.95h-1.3v3.75q0 2.1 2 2.1.4 0 .9-.15.5-.2.8-.45v.5h1.3v-5.75h-1.3v3.95q-.15.3-.55.55-.4.25-.85.25-1 0-1-1.1v-3.65m-3.1-.45l-.55.6q-.5-.25-1.3-.25-1 0-1.65.6-.7.6-.7 1.5 0 1.2 1 1.8-.3.15-.55.4-.2.3-.2.6 0 1 1.35 1 .25 0 .7-.1.45-.05.65-.05.85 0 .85.55 0 .3-.4.45-.35.15-.95.15-.85 0-1.55-.6l-.85 1.05q1.05.75 2.4.75 1.1 0 1.9-.5.75-.5.75-1.35 0-1.6-1.95-1.6-.3 0-.65.1-.4.1-.6.1-.35 0-.35-.25 0-.1.25-.2.25-.15.3-.15l.2.05h.4q.9 0 1.5-.55.6-.6.6-1.6 0-.7-.35-1.2l.65-.45-.9-.85m-2.55 3.3q-.25-.3-.25-.85 0-.45.3-.75.25-.25.75-.25.4 0 .7.3.25.3.25.7 0 .55-.25.85-.25.3-.7.3-.5 0-.8-.3m-4.85-5.2l-.9 1.55h1l1.25-1.55h-1.35m8.7-8.45h-1.3v3.95q-.15.3-.55.55-.4.25-.85.25-1 0-1-1.1v-3.65h-1.3v3.75q0 2.1 2 2.1.4 0 .9-.15.5-.2.8-.45v.5h1.3v-5.75m-1-8.05q0-1.65-.65-2.25-.6-.6-1.9-.6-.95 0-1.65.3l.3 1.05q.5-.25 1.25-.25 1.3 0 1.3 1.05-.35-.1-.55-.1-1.4 0-2.15.55-.75.6-.75 1.55 0 .9.55 1.35.5.45 1.45.45.5 0 .95-.2.45-.15.65-.45.05.25.3.45.2.2.5.2.25 0 .5-.05.2-.1.35-.35-.45-.3-.45-1.45v-1.25m-2.55 2.05q-.9 0-.9-.8 0-1.05 1.6-1.05.15 0 .5.1v.55q0 1.2-1.2 1.2m5.55 7.25q.5-.25 1.25-.25 1.3 0 1.3 1.05-.35-.1-.55-.1-1.4 0-2.15.55-.75.6-.75 1.55 0 .9.55 1.35.5.45 1.45.45.5 0 .95-.2.45-.15.65-.45.05.25.3.45.2.2.5.2.25 0 .5-.05.2-.1.35-.35-.45-.3-.45-1.45v-1.25q0-1.65-.65-2.25-.6-.6-1.9-.6-.95 0-1.65.3l.3 1.05m2.05 1.7q.15 0 .5.1v.55q0 1.2-1.2 1.2-.9 0-.9-.8 0-1.05 1.6-1.05m3.1-13.05q-.75.85-.75 2.15 0 1.35.75 2.2.7.8 2 .8t2.05-.8q.75-.8.75-2.2 0-1.35-.75-2.15-.7-.8-2.05-.8-1.25 0-2 .8m.65 2.15q0-.9.35-1.35.4-.5 1-.5 1.4 0 1.4 1.85 0 .9-.4 1.4-.35.5-1 .5-1.35 0-1.35-1.9m-2.35-5.3l-1.3.3v2.3q-.55-.25-1.2-.25-1.2 0-2 .85t-.8 2.2q0 1.4.7 2.15t1.9.75q.4 0 .8-.15.4-.1.6-.3v.35h1.3v-8.2m-2.2 3.5q.45 0 .9.3v3.05q-.1.1-.4.2-.25.1-.45.1-1.75 0-1.75-1.75 0-.95.45-1.45.4-.45 1.25-.45m2.45-10.85q.65 0 .95.35.3.35.3 1.1v3.3h1.3v-3.55q0-1.1-.55-1.7-.6-.6-1.65-.6-1.05 0-1.6.65l-.25-.55h-.95v5.75h1.3v-4.15q.2-.25.55-.4.35-.2.6-.2m-6.45-1.1q-.95 0-1.65.3l.3 1.05q.5-.25 1.25-.25 1.3 0 1.3 1.05-.35-.1-.55-.1-1.4 0-2.15.55-.75.6-.75 1.55 0 .9.55 1.35.5.45 1.45.45.5 0 .95-.2.45-.15.65-.45.05.25.3.45.2.2.5.2.25 0 .5-.05.2-.1.35-.35-.45-.3-.45-1.45v-1.25q0-1.65-.65-2.25-.6-.6-1.9-.6m-.9 4.1q0-1.05 1.6-1.05.15 0 .5.1v.55q0 1.2-1.2 1.2-.9 0-.9-.8m-6.1-6.45l-1.35.3v8h.8l.3-.4q.55.4 1.35.4 1.35 0 2.1-.85.8-.8.8-2.25 0-1.25-.8-2.05-.75-.8-2-.8-.65 0-1.2.3v-2.65m0 6.8v-3q.3-.3.9-.3 1.7 0 1.7 1.75 0 1-.4 1.45-.4.45-1.4.45-.5 0-.8-.35m12.15-12.25q0-3-2.75-3-.75 0-1.25.5v-.4h-1.35v8h1.35v-2.4q.55.25 1.15.25 1.35 0 2.1-.75t.75-2.2m-1.8-1.45q.4.4.4 1.45 0 .95-.4 1.4-.4.4-1.35.4-.45 0-.85-.25v-3.05q.4-.35.85-.35.95 0 1.35.4m6.25-.2l.55-1.15q-.35-.2-1.05-.2-.9 0-1.5.6v-.5H623v5.75h1.3v-3.3q0-.6.4-1 .35-.45.8-.45.45 0 .8.25m15.4 9.55h-2.1v1.1h.75v4.65h1.35v-5.75m4.4-.1q-.9 0-1.5.6v-.5h-1.3v5.75h1.3v-3.3q0-.6.4-1 .35-.45.8-.45.45 0 .8.25l.55-1.15q-.35-.2-1.05-.2m-14.45.6q-.6-.6-1.7-.6-.9 0-1.4.45v-2.8l-1.35.3v7.9h1.35v-4.15q.15-.2.45-.4.35-.15.7-.15.55 0 .85.3.35.3.35.85v3.55h1.35v-3.55q0-1.1-.6-1.7m4.5-.6q-1.15 0-2 .85-.85.85-.85 2.2t.75 2.15q.8.75 2.1.75 1.4 0 2.1-.55l-.5-1.05q-.5.5-1.4.5-.75 0-1.2-.4-.4-.4-.45-1.05h4.1q.1-.5.1-.75 0-1.15-.75-1.9t-2-.75m.05 1.1q1.25 0 1.35 1.25h-2.8q.3-1.25 1.45-1.25m-6.05-11.9q-1.15 0-2 .85-.85.85-.85 2.2t.75 2.15q.8.75 2.1.75 1.4 0 2.1-.55l-.5-1.05q-.5.5-1.4.5-.75 0-1.2-.4-.4-.4-.45-1.05h4.1q.1-.5.1-.75 0-1.15-.75-1.9t-2-.75m1.4 2.35h-2.8q.3-1.25 1.45-1.25 1.25 0 1.35 1.25m10.05 6.55q-.25-.25-.55-.25-.35 0-.55.25-.25.25-.25.55 0 .3.25.55.2.25.55.25.3 0 .55-.25.2-.25.2-.55 0-.3-.2-.55m-1.1-9.95l.4-1q-.7-.2-1.2-.2-.9 0-1.5.65t-.6 1.7h-.85v1.1h.85v4.65h1.3v-4.65h1.2v-1.1h-1.2v-.15q0-.45.25-.8.25-.35.65-.35.25 0 .7.15m5.3 1.8q-.75-.75-2-.75-1.15 0-2 .85-.85.85-.85 2.2t.75 2.15q.8.75 2.1.75 1.4 0 2.1-.55l-.5-1.05q-.5.5-1.4.5-.75 0-1.2-.4-.4-.4-.45-1.05h4.1q.1-.5.1-.75 0-1.15-.75-1.9m-1.95.35q1.25 0 1.35 1.25h-2.8q.3-1.25 1.45-1.25m-37.05 42.4l.3 1.05q.5-.25 1.25-.25 1.3 0 1.3 1.05-.35-.1-.55-.1-1.4 0-2.15.55-.75.6-.75 1.55 0 .9.55 1.35.5.45 1.45.45.5 0 .95-.2.45-.15.65-.45.05.25.3.45.2.2.5.2.25 0 .5-.05.2-.1.35-.35-.45-.3-.45-1.45v-1.25q0-1.65-.65-2.25-.6-.6-1.9-.6-.95 0-1.65.3m2.35 2.75q.15 0 .5.1v.55q0 1.2-1.2 1.2-.9 0-.9-.8 0-1.05 1.6-1.05m-2.7-11.75q0 1.2 1 1.8-.3.15-.55.4-.2.3-.2.6 0 1 1.35 1 .25 0 .7-.1.45-.05.65-.05.85 0 .85.55 0 .3-.4.45-.35.15-.95.15-.85 0-1.55-.6l-.85 1.05q1.05.75 2.4.75 1.1 0 1.9-.5.75-.5.75-1.35 0-1.6-1.95-1.6-.3 0-.65.1-.4.1-.6.1-.35 0-.35-.25 0-.1.25-.2.25-.15.3-.15l.2.05h.4q.9 0 1.5-.55.6-.6.6-1.6 0-.7-.35-1.2l.65-.45-.9-.85-.55.6q-.5-.25-1.3-.25-1 0-1.65.6-.7.6-.7 1.5m1.7-.75q.25-.25.75-.25.4 0 .7.3.25.3.25.7 0 .55-.25.85-.25.3-.7.3-.5 0-.8-.3-.25-.3-.25-.85 0-.45.3-.75m-4.8-2.05l1.25-1.55h-1.35l-.9 1.55h1m-2.05 1l.3 1.05q.5-.25 1.25-.25 1.3 0 1.3 1.05-.35-.1-.55-.1-1.4 0-2.15.55-.75.6-.75 1.55 0 .9.55 1.35.5.45 1.45.45.5 0 .95-.2.45-.15.65-.45.05.25.3.45.2.2.5.2.25 0 .5-.05.2-.1.35-.35-.45-.3-.45-1.45v-1.25q0-1.65-.65-2.25-.6-.6-1.9-.6-.95 0-1.65.3m2.35 2.75q.15 0 .5.1v.55q0 1.2-1.2 1.2-.9 0-.9-.8 0-1.05 1.6-1.05m3.75-9.45l-.5 1.1q.55.25.9.35.35.1.95.1 1 0 1.6-.45.6-.45.6-1.25 0-.6-.35-1.05-.35-.4-1.1-.7-.75-.3-.95-.5-.25-.15-.25-.4 0-.55.7-.55.8 0 1.2.4l.4-1.05q-.8-.4-1.7-.4-.85 0-1.45.4-.55.4-.55 1.15 0 1.15 1.5 1.75.65.3.9.5t.25.55q0 .55-.8.55-.75 0-1.35-.5m-5.3-4.3h-1.3v3.75q0 2.1 2 2.1.4 0 .9-.15.5-.2.8-.45v.5h1.3v-5.75h-1.3v3.95q-.15.3-.55.55-.4.25-.85.25-1 0-1-1.1v-3.65m-5.2-10.3l-.25-.5h-.9v5.75h1.3v-4.15q.15-.2.45-.4.3-.2.55-.2.5 0 .75.25t.25.7v3.8h1.35v-4.15q.1-.25.4-.4.25-.2.55-.2 1.05 0 1.05 1.15v3.6h1.35v-3.8q0-.95-.55-1.5t-1.5-.55q-.45 0-.9.15-.45.2-.7.45-.6-.6-1.75-.6-.85 0-1.45.6m-2.3-2.6h-5.05v7.85h4.95v-1.25h-3.55v-2.35h2.6v-1.2h-2.6v-1.85h3.65v-1.2m12.6-8.7v5.75h1.3v-4.15q.15-.2.45-.4.3-.2.55-.2.5 0 .75.25t.25.7v3.8h1.35v-4.15q.1-.25.4-.4.25-.2.55-.2 1.05 0 1.05 1.15v3.6h1.35v-3.8q0-.95-.55-1.5t-1.5-.55q-.45 0-.9.15-.45.2-.7.45-.6-.6-1.75-.6-.85 0-1.45.6l-.25-.5h-.9m-7.75.3q-.8-.4-1.7-.4-.85 0-1.45.4-.55.4-.55 1.15 0 1.15 1.5 1.75.65.3.9.5t.25.55q0 .55-.8.55-.75 0-1.35-.5l-.5 1.1q.55.25.9.35.35.1.95.1 1 0 1.6-.45.6-.45.6-1.25 0-.6-.35-1.05-.35-.4-1.1-.7-.75-.3-.95-.5-.25-.15-.25-.4 0-.55.7-.55.8 0 1.2.4l.4-1.05m5.9.35q-.75-.75-2-.75-1.15 0-2 .85-.85.85-.85 2.2t.75 2.15q.8.75 2.1.75 1.4 0 2.1-.55l-.5-1.05q-.5.5-1.4.5-.75 0-1.2-.4-.4-.4-.45-1.05h4.1q.1-.5.1-.75 0-1.15-.75-1.9m-1.95.35q1.25 0 1.35 1.25h-2.8q.3-1.25 1.45-1.25m2.85-11.8h-1.4l-1.5 3.5-1.35-3.5h-1.45l2.6 5.85h.45l2.65-5.85m-14.45-12.95q-.4 0-2.1.05v7.85h1.75q4.1 0 4.1-4.25 0-1.65-1-2.65-1.05-1-2.75-1m-.7 1.25q.4-.05.65-.05 2.35 0 2.35 2.55 0 1.35-.6 2.15-.6.75-1.65.75h-.75V327m10.8 3.45q0-1.15-.75-1.9t-2-.75q-1.15 0-2 .85-.85.85-.85 2.2t.75 2.15q.8.75 2.1.75 1.4 0 2.1-.55l-.5-1.05q-.5.5-1.4.5-.75 0-1.2-.4-.4-.4-.45-1.05h4.1q.1-.5.1-.75m-4.15-.3q.3-1.25 1.45-1.25 1.25 0 1.35 1.25h-2.8m6.95-2.25h-2.1v1.1h.75v4.65h1.35v-5.75m-.1-2q-.25-.25-.55-.25-.35 0-.55.25-.25.25-.25.55 0 .3.25.55.2.25.55.25.3 0 .55-.25.2-.25.2-.55 0-.3-.2-.55m39.2 14.4q.2-.25.55-.4.35-.2.6-.2.65 0 .95.35.3.35.3 1.1v3.3h1.3v-3.55q0-1.1-.55-1.7-.6-.6-1.65-.6-1.05 0-1.6.65l-.25-.55h-.95v5.75h1.3v-4.15m-8.6-1.3q-.8-.4-1.7-.4-.85 0-1.45.4-.55.4-.55 1.15 0 1.15 1.5 1.75.65.3.9.5t.25.55q0 .55-.8.55-.75 0-1.35-.5l-.5 1.1q.55.25.9.35.35.1.95.1 1 0 1.6-.45.6-.45.6-1.25 0-.6-.35-1.05-.35-.4-1.1-.7-.75-.3-.95-.5-.25-.15-.25-.4 0-.55.7-.55.8 0 1.2.4l.4-1.05m1.65-.1l.3 1.05q.5-.25 1.25-.25 1.3 0 1.3 1.05-.35-.1-.55-.1-1.4 0-2.15.55-.75.6-.75 1.55 0 .9.55 1.35.5.45 1.45.45.5 0 .95-.2.45-.15.65-.45.05.25.3.45.2.2.5.2.25 0 .5-.05.2-.1.35-.35-.45-.3-.45-1.45v-1.25q0-1.65-.65-2.25-.6-.6-1.9-.6-.95 0-1.65.3m2.85 2.85v.55q0 1.2-1.2 1.2-.9 0-.9-.8 0-1.05 1.6-1.05.15 0 .5.1m-9-12.5l.4-1.05q-.8-.4-1.7-.4-.85 0-1.45.4-.55.4-.55 1.15 0 1.15 1.5 1.75.65.3.9.5t.25.55q0 .55-.8.55-.75 0-1.35-.5l-.5 1.1q.55.25.9.35.35.1.95.1 1 0 1.6-.45.6-.45.6-1.25 0-.6-.35-1.05-.35-.4-1.1-.7-.75-.3-.95-.5-.25-.15-.25-.4 0-.55.7-.55.8 0 1.2.4m8.45 4.35v-1.25q-.4.25-.9.25t-.7-.25q-.2-.25-.2-.85V329h1.6v-1.1h-1.6v-1.65l-1.3.5v1.15h-.7v1.1h.7v2.9q0 .9.45 1.35.45.5 1.3.5.9 0 1.35-.15m1.55-4.45q.5-.25 1.25-.25 1.3 0 1.3 1.05-.35-.1-.55-.1-1.4 0-2.15.55-.75.6-.75 1.55 0 .9.55 1.35.5.45 1.45.45.5 0 .95-.2.45-.15.65-.45.05.25.3.45.2.2.5.2.25 0 .5-.05.2-.1.35-.35-.45-.3-.45-1.45v-1.25q0-1.65-.65-2.25-.6-.6-1.9-.6-.95 0-1.65.3l.3 1.05m1.35 3.55q-.9 0-.9-.8 0-1.05 1.6-1.05.15 0 .5.1v.55q0 1.2-1.2 1.2m-22.1 5.9q-1.25 0-2 .8-.75.85-.75 2.15 0 1.35.75 2.2.7.8 2 .8t2.05-.8q.75-.8.75-2.2 0-1.35-.75-2.15-.7-.8-2.05-.8m-1 1.6q.4-.5 1-.5 1.4 0 1.4 1.85 0 .9-.4 1.4-.35.5-1 .5-1.35 0-1.35-1.9 0-.9.35-1.35m8.2-1.2q-.8-.4-1.7-.4-.85 0-1.45.4-.55.4-.55 1.15 0 1.15 1.5 1.75.65.3.9.5t.25.55q0 .55-.8.55-.75 0-1.35-.5l-.5 1.1q.55.25.9.35.35.1.95.1 1 0 1.6-.45.6-.45.6-1.25 0-.6-.35-1.05-.35-.4-1.1-.7-.75-.3-.95-.5-.25-.15-.25-.4 0-.55.7-.55.8 0 1.2.4l.4-1.05m-19.65.95q.5-.25 1.25-.25 1.3 0 1.3 1.05-.35-.1-.55-.1-1.4 0-2.15.55-.75.6-.75 1.55 0 .9.55 1.35.5.45 1.45.45.5 0 .95-.2.45-.15.65-.45.05.25.3.45.2.2.5.2.25 0 .5-.05.2-.1.35-.35-.45-.3-.45-1.45v-1.25q0-1.65-.65-2.25-.6-.6-1.9-.6-.95 0-1.65.3l.3 1.05m2.55 1.8v.55q0 1.2-1.2 1.2-.9 0-.9-.8 0-1.05 1.6-1.05.15 0 .5.1m6.1-2.75q-.8-.4-1.7-.4-.85 0-1.45.4-.55.4-.55 1.15 0 1.15 1.5 1.75.65.3.9.5t.25.55q0 .55-.8.55-.75 0-1.35-.5l-.5 1.1q.55.25.9.35.35.1.95.1 1 0 1.6-.45.6-.45.6-1.25 0-.6-.35-1.05-.35-.4-1.1-.7-.75-.3-.95-.5-.25-.15-.25-.4 0-.55.7-.55.8 0 1.2.4l.4-1.05m1.4-8.55q0-1.15-.75-1.9t-2-.75q-1.15 0-2 .85-.85.85-.85 2.2t.75 2.15q.8.75 2.1.75 1.4 0 2.1-.55l-.5-1.05q-.5.5-1.4.5-.75 0-1.2-.4-.4-.4-.45-1.05h4.1q.1-.5.1-.75m-4.15-.3q.3-1.25 1.45-1.25 1.25 0 1.35 1.25h-2.8m-2-2.25h-1.55l-1.35 1.75-1.2-1.75h-1.55l2.05 2.8-2.2 2.95h1.55l1.35-1.85 1.45 1.85h1.65l-2.4-2.95 2.2-2.8m10.75.2l.3 1.05q.5-.25 1.25-.25 1.3 0 1.3 1.05-.35-.1-.55-.1-1.4 0-2.15.55-.75.6-.75 1.55 0 .9.55 1.35.5.45 1.45.45.5 0 .95-.2.45-.15.65-.45.05.25.3.45.2.2.5.2.25 0 .5-.05.2-.1.35-.35-.45-.3-.45-1.45v-1.25q0-1.65-.65-2.25-.6-.6-1.9-.6-.95 0-1.65.3m2.35 2.75q.15 0 .5.1v.55q0 1.2-1.2 1.2-.9 0-.9-.8 0-1.05 1.6-1.05m47.8 66.9q0 .4.25.7.3.25.7.25.4 0 .7-.25.25-.3.25-.7 0-.4-.25-.7-.3-.25-.7-.25-.4 0-.7.25-.25.3-.25.7m4.1-18.2l1.2 1.55h1.15l-.95-1.55h-1.4m-.05 3.6q.5-.25 1.25-.25 1.3 0 1.3 1.05-.35-.1-.55-.1-1.4 0-2.15.55-.75.6-.75 1.55 0 .9.55 1.35.5.45 1.45.45.5 0 .95-.2.45-.15.65-.45.05.25.3.45.2.2.5.2.25 0 .5-.05.2-.1.35-.35-.45-.3-.45-1.45v-1.25q0-1.65-.65-2.25-.6-.6-1.9-.6-.95 0-1.65.3l.3 1.05m1.35 3.55q-.9 0-.9-.8 0-1.05 1.6-1.05.15 0 .5.1v.55q0 1.2-1.2 1.2m2.5-10.3l-.5-1.05q-.5.5-1.4.5-.75 0-1.2-.4-.4-.4-.45-1.05h4.1q.1-.5.1-.75 0-1.15-.75-1.9t-2-.75q-1.15 0-2 .85-.85.85-.85 2.2t.75 2.15q.8.75 2.1.75 1.4 0 2.1-.55m-3.5-3.05q.3-1.25 1.45-1.25 1.25 0 1.35 1.25h-2.8m-10.5 20.05q-.75.85-.75 2.15 0 1.35.75 2.2.7.8 2 .8t2.05-.8q.75-.8.75-2.2 0-1.35-.75-2.15-.7-.8-2.05-.8-1.25 0-2 .8m1 .8q.4-.5 1-.5 1.4 0 1.4 1.85 0 .9-.4 1.4-.35.5-1 .5-1.35 0-1.35-1.9 0-.9.35-1.35m-6.5-.05q0 1.15 1.5 1.75.65.3.9.5t.25.55q0 .55-.8.55-.75 0-1.35-.5l-.5 1.1q.55.25.9.35.35.1.95.1 1 0 1.6-.45.6-.45.6-1.25 0-.6-.35-1.05-.35-.4-1.1-.7-.75-.3-.95-.5-.25-.15-.25-.4 0-.55.7-.55.8 0 1.2.4l.4-1.05q-.8-.4-1.7-.4-.85 0-1.45.4-.55.4-.55 1.15m-2.95.5q-1.4 0-2.15.55-.75.6-.75 1.55 0 .9.55 1.35.5.45 1.45.45.5 0 .95-.2.45-.15.65-.45.05.25.3.45.2.2.5.2.25 0 .5-.05.2-.1.35-.35-.45-.3-.45-1.45v-1.25q0-1.65-.65-2.25-.6-.6-1.9-.6-.95 0-1.65.3l.3 1.05q.5-.25 1.25-.25 1.3 0 1.3 1.05-.35-.1-.55-.1m.05 1q.15 0 .5.1v.55q0 1.2-1.2 1.2-.9 0-.9-.8 0-1.05 1.6-1.05m-7.55-2.95h-1.45l2.6 5.85h.45l2.65-5.85h-1.4l-1.5 3.5-1.35-3.5m4.85-11.6l1.25-1.55H655l-.9 1.55h1m-1.75 2.05q.5-.25 1.25-.25 1.3 0 1.3 1.05-.35-.1-.55-.1-1.4 0-2.15.55-.75.6-.75 1.55 0 .9.55 1.35.5.45 1.45.45.5 0 .95-.2.45-.15.65-.45.05.25.3.45.2.2.5.2.25 0 .5-.05.2-.1.35-.35-.45-.3-.45-1.45v-1.25q0-1.65-.65-2.25-.6-.6-1.9-.6-.95 0-1.65.3l.3 1.05m2.55 1.8v.55q0 1.2-1.2 1.2-.9 0-.9-.8 0-1.05 1.6-1.05.15 0 .5.1m-7.2-4.2v1.15h-.7v1.1h.7v2.9q0 .9.45 1.35.45.5 1.3.5.9 0 1.35-.15v-1.25q-.4.25-.9.25t-.7-.25q-.2-.25-.2-.85V383h1.6v-1.1H650v-1.65l-1.3.5m.55-3.9h1.35v-3.8q0-.95-.55-1.5t-1.5-.55q-.45 0-.9.15-.45.2-.7.45-.6-.6-1.75-.6-.85 0-1.45.6l-.25-.5h-.9v5.75h1.3v-4.15q.15-.2.45-.4.3-.2.55-.2.5 0 .75.25t.25.7v3.8h1.35v-4.15q.1-.25.4-.4.25-.2.55-.2 1.05 0 1.05 1.15v3.6m17.65 5.25l.3 1.05q.5-.25 1.25-.25 1.3 0 1.3 1.05-.35-.1-.55-.1-1.4 0-2.15.55-.75.6-.75 1.55 0 .9.55 1.35.5.45 1.45.45.5 0 .95-.2.45-.15.65-.45.05.25.3.45.2.2.5.2.25 0 .5-.05.2-.1.35-.35-.45-.3-.45-1.45v-1.25q0-1.65-.65-2.25-.6-.6-1.9-.6-.95 0-1.65.3m2.85 3.4q0 1.2-1.2 1.2-.9 0-.9-.8 0-1.05 1.6-1.05.15 0 .5.1v.55m-4.75-5.6q-.25-.25-.55-.25-.35 0-.55.25-.25.25-.25.55 0 .3.25.55.2.25.55.25.3 0 .55-.25.2-.25.2-.55 0-.3-.2-.55m-3 3.25l.55-1.15q-.35-.2-1.05-.2-.9 0-1.5.6v-.5h-1.3v5.75h1.3v-3.3q0-.6.4-1 .35-.45.8-.45.45 0 .8.25m1-1.25v1.1h.75v4.65h1.35v-5.75H663m-4.75-9.45l.4-1.05q-.8-.4-1.7-.4-.85 0-1.45.4-.55.4-.55 1.15 0 1.15 1.5 1.75.65.3.9.5t.25.55q0 .55-.8.55-.75 0-1.35-.5l-.5 1.1q.55.25.9.35.35.1.95.1 1 0 1.6-.45.6-.45.6-1.25 0-.6-.35-1.05-.35-.4-1.1-.7-.75-.3-.95-.5-.25-.15-.25-.4 0-.55.7-.55.8 0 1.2.4m7.5-1.35h-1.3v3.75q0 2.1 2 2.1.4 0 .9-.15.5-.2.8-.45v.5h1.3v-5.75h-1.3v3.95q-.15.3-.55.55-.4.25-.85.25-1 0-1-1.1v-3.65m-5.45 0h-.7v1.1h.7v2.9q0 .9.45 1.35.45.5 1.3.5.9 0 1.35-.15v-1.25q-.4.25-.9.25t-.7-.25q-.2-.25-.2-.85v-2.5h1.6v-1.1h-1.6v-1.65l-1.3.5v1.15m3.2-10.4v-.4h-1.35v8h1.35v-2.4q.55.25 1.15.25 1.35 0 2.1-.75t.75-2.2q0-3-2.75-3-.75 0-1.25.5m.85.65q.95 0 1.35.4.4.4.4 1.45 0 .95-.4 1.4-.4.4-1.35.4-.45 0-.85-.25v-3.05q.4-.35.85-.35m-10.6 9.75h-2.1v1.1h.75v4.65h1.35v-5.75m-1.2-2q-.25.25-.25.55 0 .3.25.55.2.25.55.25.3 0 .55-.25.2-.25.2-.55 0-.3-.2-.55-.25-.25-.55-.25-.35 0-.55.25m-2.2-8.9q-1.25 0-2 .8-.75.85-.75 2.15 0 1.35.75 2.2.7.8 2 .8t2.05-.8q.75-.8.75-2.2 0-1.35-.75-2.15-.7-.8-2.05-.8m-1.35 2.95q0-.9.35-1.35.4-.5 1-.5 1.4 0 1.4 1.85 0 .9-.4 1.4-.35.5-1 .5-1.35 0-1.35-1.9m6.95-1.9q.8 0 1.2.4l.4-1.05q-.8-.4-1.7-.4-.85 0-1.45.4-.55.4-.55 1.15 0 1.15 1.5 1.75.65.3.9.5t.25.55q0 .55-.8.55-.75 0-1.35-.5l-.5 1.1q.55.25.9.35.35.1.95.1 1 0 1.6-.45.6-.45.6-1.25 0-.6-.35-1.05-.35-.4-1.1-.7-.75-.3-.95-.5-.25-.15-.25-.4 0-.55.7-.55m-7.3-8.85q0-.85.45-1.4.45-.5 1.2-.5.8 0 1.25.45l.6-1q-.75-.55-1.75-.55-1.45 0-2.3.85-.85.8-.85 2.15 0 1.4.75 2.2.8.75 2.1.75.6 0 1.05-.1.45-.1 1.05-.45l-.5-1.05q-.6.5-1.35.5-1.7 0-1.7-1.85m9.7 2.85v-3.55q0-1.1-.6-1.7-.6-.6-1.7-.6-.9 0-1.4.45v-2.8l-1.35.3v7.9h1.35v-4.15q.15-.2.45-.4.35-.15.7-.15.55 0 .85.3.35.3.35.85v3.55h1.35m5.85-3q0-1.65-.65-2.25-.6-.6-1.9-.6-.95 0-1.65.3l.3 1.05q.5-.25 1.25-.25 1.3 0 1.3 1.05-.35-.1-.55-.1-1.4 0-2.15.55-.75.6-.75 1.55 0 .9.55 1.35.5.45 1.45.45.5 0 .95-.2.45-.15.65-.45.05.25.3.45.2.2.5.2.25 0 .5-.05.2-.1.35-.35-.45-.3-.45-1.45v-1.25m-1.85.2q.15 0 .5.1v.55q0 1.2-1.2 1.2-.9 0-.9-.8 0-1.05 1.6-1.05m23.55 8.3q-.75-.55-1.75-.55-1.45 0-2.3.85-.85.8-.85 2.15 0 1.4.75 2.2.8.75 2.1.75.6 0 1.05-.1.45-.1 1.05-.45l-.5-1.05q-.6.5-1.35.5-1.7 0-1.7-1.85 0-.85.45-1.4.45-.5 1.2-.5.8 0 1.25.45l.6-1m1.5.25q-.75.85-.75 2.15 0 1.35.75 2.2.7.8 2 .8t2.05-.8q.75-.8.75-2.2 0-1.35-.75-2.15-.7-.8-2.05-.8-1.25 0-2 .8m.65 2.15q0-.9.35-1.35.4-.5 1-.5 1.4 0 1.4 1.85 0 .9-.4 1.4-.35.5-1 .5-1.35 0-1.35-1.9m-15.8 7.95h-1.3v5.75h1.3v-3.3q0-.6.4-1 .35-.45.8-.45.45 0 .8.25l.55-1.15q-.35-.2-1.05-.2-.9 0-1.5.6v-.5m.8-10.1q-.7-.8-2.05-.8-1.25 0-2 .8-.75.85-.75 2.15 0 1.35.75 2.2.7.8 2 .8t2.05-.8q.75-.8.75-2.2 0-1.35-.75-2.15m-1.05 3.55q-.35.5-1 .5-1.35 0-1.35-1.9 0-.9.35-1.35.4-.5 1-.5 1.4 0 1.4 1.85 0 .9-.4 1.4m6.05.25q-.4.25-.85.25-1 0-1-1.1v-3.65h-1.3v3.75q0 2.1 2 2.1.4 0 .9-.15.5-.2.8-.45v.5h1.3v-5.75h-1.3v3.95q-.15.3-.55.55m-8.7-17.45v2.3q-.55-.25-1.2-.25-1.2 0-2 .85t-.8 2.2q0 1.4.7 2.15t1.9.75q.4 0 .8-.15.4-.1.6-.3v.35h1.3v-8.2l-1.3.3m-.9 3.2q.45 0 .9.3v3.05q-.1.1-.4.2-.25.1-.45.1-1.75 0-1.75-1.75 0-.95.45-1.45.4-.45 1.25-.45m5.3-.05q1.3 0 1.3 1.05-.35-.1-.55-.1-1.4 0-2.15.55-.75.6-.75 1.55 0 .9.55 1.35.5.45 1.45.45.5 0 .95-.2.45-.15.65-.45.05.25.3.45.2.2.5.2.25 0 .5-.05.2-.1.35-.35-.45-.3-.45-1.45v-1.25q0-1.65-.65-2.25-.6-.6-1.9-.6-.95 0-1.65.3l.3 1.05q.5-.25 1.25-.25m.8 1.95q.15 0 .5.1v.55q0 1.2-1.2 1.2-.9 0-.9-.8 0-1.05 1.6-1.05m8.5 1.4q-.25.3-.25.7 0 .4.25.7.3.25.7.25.4 0 .7-.25.25-.3.25-.7 0-.4-.25-.7-.3-.25-.7-.25-.4 0-.7.25m-1.9-1.25q-.35-.4-1.1-.7-.75-.3-.95-.5-.25-.15-.25-.4 0-.55.7-.55.8 0 1.2.4l.4-1.05q-.8-.4-1.7-.4-.85 0-1.45.4-.55.4-.55 1.15 0 1.15 1.5 1.75.65.3.9.5t.25.55q0 .55-.8.55-.75 0-1.35-.5l-.5 1.1q.55.25.9.35.35.1.95.1 1 0 1.6-.45.6-.45.6-1.25 0-.6-.35-1.05m-8.3-14q-1.25 0-2 .8-.75.85-.75 2.15 0 1.35.75 2.2.7.8 2 .8t2.05-.8q.75-.8.75-2.2 0-1.35-.75-2.15-.7-.8-2.05-.8m-1 1.6q.4-.5 1-.5 1.4 0 1.4 1.85 0 .9-.4 1.4-.35.5-1 .5-1.35 0-1.35-1.9 0-.9.35-1.35m6.5-1.6q-.85 0-1.45.4-.55.4-.55 1.15 0 1.15 1.5 1.75.65.3.9.5t.25.55q0 .55-.8.55-.75 0-1.35-.5l-.5 1.1q.55.25.9.35.35.1.95.1 1 0 1.6-.45.6-.45.6-1.25 0-.6-.35-1.05-.35-.4-1.1-.7-.75-.3-.95-.5-.25-.15-.25-.4 0-.55.7-.55.8 0 1.2.4l.4-1.05q-.8-.4-1.7-.4m4.1-10q-.75.85-.75 2.15 0 1.35.75 2.2.7.8 2 .8t2.05-.8q.75-.8.75-2.2 0-1.35-.75-2.15-.7-.8-2.05-.8-1.25 0-2 .8m1 .8q.4-.5 1-.5 1.4 0 1.4 1.85 0 .9-.4 1.4-.35.5-1 .5-1.35 0-1.35-1.9 0-.9.35-1.35m-2.7-3.95l-1.3.3v2.3q-.55-.25-1.2-.25-1.2 0-2 .85t-.8 2.2q0 1.4.7 2.15t1.9.75q.4 0 .8-.15.4-.1.6-.3v.35h1.3v-8.2m-2.2 3.5q.45 0 .9.3v3.05q-.1.1-.4.2-.25.1-.45.1-1.75 0-1.75-1.75 0-.95.45-1.45.4-.45 1.25-.45m-18.4 7.4h-1.35l-.9 1.55h1l1.25-1.55m7.3.9q0 .3.25.55.2.25.55.25.3 0 .55-.25.2-.25.2-.55 0-.3-.2-.55-.25-.25-.55-.25-.35 0-.55.25-.25.25-.25.55m-.65 1.45v1.1h.75v4.65h1.35v-5.75h-2.1m-1.5-.1q-.9 0-1.5.6v-.5h-1.3v5.75h1.3v-3.3q0-.6.4-1 .35-.45.8-.45.45 0 .8.25l.55-1.15q-.35-.2-1.05-.2m-16.7.1v1.1h.75v4.65h1.35v-5.75h-2.1m1.45-2.25q-.35 0-.55.25-.25.25-.25.55 0 .3.25.55.2.25.55.25.3 0 .55-.25.2-.25.2-.55 0-.3-.2-.55-.25-.25-.55-.25m3.75 3.35h1.6v-1.1h-1.6v-1.65l-1.3.5v1.15h-.7v1.1h.7v2.9q0 .9.45 1.35.45.5 1.3.5.9 0 1.35-.15v-1.25q-.4.25-.9.25t-.7-.25q-.2-.25-.2-.85v-2.5m3.05-.9l.3 1.05q.5-.25 1.25-.25 1.3 0 1.3 1.05-.35-.1-.55-.1-1.4 0-2.15.55-.75.6-.75 1.55 0 .9.55 1.35.5.45 1.45.45.5 0 .95-.2.45-.15.65-.45.05.25.3.45.2.2.5.2.25 0 .5-.05.2-.1.35-.35-.45-.3-.45-1.45v-1.25q0-1.65-.65-2.25-.6-.6-1.9-.6-.95 0-1.65.3m2.35 2.75q.15 0 .5.1v.55q0 1.2-1.2 1.2-.9 0-.9-.8 0-1.05 1.6-1.05m-8.5-12.15q.1-.25.4-.4.25-.2.55-.2 1.05 0 1.05 1.15v3.6h1.35v-3.8q0-.95-.55-1.5t-1.5-.55q-.45 0-.9.15-.45.2-.7.45-.6-.6-1.75-.6-.85 0-1.45.6l-.25-.5h-.9v5.75h1.3v-4.15q.15-.2.45-.4.3-.2.55-.2.5 0 .75.25t.25.7v3.8h1.35v-4.15m17.15-1.3q-.55.4-.55 1.15 0 1.15 1.5 1.75.65.3.9.5t.25.55q0 .55-.8.55-.75 0-1.35-.5l-.5 1.1q.55.25.9.35.35.1.95.1 1 0 1.6-.45.6-.45.6-1.25 0-.6-.35-1.05-.35-.4-1.1-.7-.75-.3-.95-.5-.25-.15-.25-.4 0-.55.7-.55.8 0 1.2.4l.4-1.05q-.8-.4-1.7-.4-.85 0-1.45.4m-5.8-.1l.3 1.05q.5-.25 1.25-.25 1.3 0 1.3 1.05-.35-.1-.55-.1-1.4 0-2.15.55-.75.6-.75 1.55 0 .9.55 1.35.5.45 1.45.45.5 0 .95-.2.45-.15.65-.45.05.25.3.45.2.2.5.2.25 0 .5-.05.2-.1.35-.35-.45-.3-.45-1.45v-1.25q0-1.65-.65-2.25-.6-.6-1.9-.6-.95 0-1.65.3m2.35 2.75q.15 0 .5.1v.55q0 1.2-1.2 1.2-.9 0-.9-.8 0-1.05 1.6-1.05m-4.45 2.15q.75-.75.75-2.2 0-3-2.75-3-.75 0-1.25.5v-.4h-1.35v8h1.35v-2.4q.55.25 1.15.25 1.35 0 2.1-.75m-.65-2.2q0 .95-.4 1.4-.4.4-1.35.4-.45 0-.85-.25v-3.05q.4-.35.85-.35.95 0 1.35.4.4.4.4 1.45m31.95-1.55l.4-1.05q-.8-.4-1.7-.4-.85 0-1.45.4-.55.4-.55 1.15 0 1.15 1.5 1.75.65.3.9.5t.25.55q0 .55-.8.55-.75 0-1.35-.5l-.5 1.1q.55.25.9.35.35.1.95.1 1 0 1.6-.45.6-.45.6-1.25 0-.6-.35-1.05-.35-.4-1.1-.7-.75-.3-.95-.5-.25-.15-.25-.4 0-.55.7-.55.8 0 1.2.4z" id="c"/><path id="b" stroke="#8CA8B8" stroke-linejoin="round" stroke-linecap="round" fill="none" d="M694.75 309.85q4.1 0 7 2.95 2.95 2.9 2.95 7v81.6q-.1 3.95-2.95 6.75-2.9 2.95-7 2.95H586.1q-4.1 0-7-2.95-2.8-2.8-2.9-6.75v-81.6q0-4.1 2.9-7 2.9-2.95 7-2.95h108.6"/></defs><g transform="translate(-573.95 -307.45)"><use xlink:href="#a"/><use xlink:href="#b"/></g><use xlink:href="#c" transform="translate(-573.95 -307.45)"/></svg>