<svg xmlns="http://www.w3.org/2000/svg" xmlns:xlink="http://www.w3.org/1999/xlink" preserveAspectRatio="none" width="133" height="106" viewBox="0 0 133 106"><defs><linearGradient id="a" gradientUnits="userSpaceOnUse" x1="935.55" y1="197.95" x2="935.55" y2="179.95"><stop offset="16.863%" stop-color="#787878"/><stop offset="83.137%" stop-color="#C9C9C9"/></linearGradient><linearGradient id="b" gradientUnits="userSpaceOnUse" x1="47.513" y1="55.35" x2="31.287" y2="71.35"><stop offset="2.745%" stop-color="#595959"/><stop offset="50.98%" stop-color="#9B9B9B"/><stop offset="100%" stop-color="#DADADA"/></linearGradient><linearGradient id="c" gradientUnits="userSpaceOnUse" x1="68.662" y1="52.125" x2="55.038" y2="76.175"><stop offset="2.745%" stop-color="#595959"/><stop offset="50.98%" stop-color="#9B9B9B"/><stop offset="100%" stop-color="#DADADA"/></linearGradient><linearGradient id="d" gradientUnits="userSpaceOnUse" x1="74.313" y1="51.325" x2="60.688" y2="75.375"><stop offset="2.745%" stop-color="#595959"/><stop offset="50.98%" stop-color="#9B9B9B"/><stop offset="100%" stop-color="#DADADA"/></linearGradient><linearGradient id="e" gradientUnits="userSpaceOnUse" x1="63.362" y1="52.512" x2="49.138" y2="77.588"><stop offset="2.745%" stop-color="#595959"/><stop offset="50.98%" stop-color="#9B9B9B"/><stop offset="100%" stop-color="#DADADA"/></linearGradient><linearGradient id="f" gradientUnits="userSpaceOnUse" x1="57.713" y1="52.512" x2="43.487" y2="77.588"><stop offset="2.745%" stop-color="#595959"/><stop offset="50.98%" stop-color="#9B9B9B"/><stop offset="100%" stop-color="#DADADA"/></linearGradient><linearGradient id="g" gradientUnits="userSpaceOnUse" x1="52.05" y1="52.262" x2="38.05" y2="76.938"><stop offset="2.745%" stop-color="#595959"/><stop offset="50.98%" stop-color="#9B9B9B"/><stop offset="100%" stop-color="#DADADA"/></linearGradient><linearGradient id="h" gradientUnits="userSpaceOnUse" x1="34.338" y1="17.762" x2="73.063" y2="17.238"><stop offset="2.745%" stop-color="#595959"/><stop offset="50.98%" stop-color="#9B9B9B"/><stop offset="100%" stop-color="#DADADA"/></linearGradient><linearGradient id="i" gradientUnits="userSpaceOnUse" x1="45.712" y1="11.45" x2="60.488" y2="11.25"><stop offset="2.745%" stop-color="#595959"/><stop offset="50.98%" stop-color="#9B9B9B"/><stop offset="100%" stop-color="#DADADA"/></linearGradient><linearGradient id="j" gradientUnits="userSpaceOnUse" x1="45.712" y1="11.45" x2="60.488" y2="11.25"><stop offset="2.745%" stop-color="#2A2A2A"/><stop offset="50.98%" stop-color="#515151"/><stop offset="100%" stop-color="#DADADA"/></linearGradient><linearGradient id="k" gradientUnits="userSpaceOnUse" x1="34.55" y1="28.712" x2="73.25" y2="28.188"><stop offset="2.745%" stop-color="#595959"/><stop offset="50.98%" stop-color="#9B9B9B"/><stop offset="100%" stop-color="#DADADA"/></linearGradient><filter id="n" x="-20%" y="-20%" width="140%" height="140%" color-interpolation-filters="sRGB"><feFlood flood-color="#000" flood-opacity="1" result="result1"/><feComposite in2="SourceGraphic" in="result1" operator="in" result="result2"/><feGaussianBlur in="result2" stdDeviation="2.3333333333333335,2.3333333333333335" result="result3"/><feOffset in="result3" result="result4"/><feComposite in2="result4" in="SourceGraphic" result="result5"/></filter><path fill="#FC0" d="M219.15 530.3q-2.9 2.9-2.9 7v81.6q.1 3.95 2.9 6.75 2.9 2.95 7 2.95H334.8q4.1 0 7-2.95 2.85-2.8 2.95-6.75v-81.6q0-4.1-2.95-7-2.9-2.95-7-2.95H226.15q-4.1 0-7 2.95z" id="l"/><path fill="#FFF" d="M966.45 100.5Q947.95 82 921.8 82H458.15Q432 82 413.5 100.5T395 145.15V538.8q0 26.15 18.5 44.65t44.65 18.5H921.8q26.15 0 44.65-18.5t18.5-44.65V145.15q0-26.15-18.5-44.65z" id="o"/><path fill="url(#a)" d="M979.7 195.35q18.35-2.65 18.35-6.4 0-3.7-18.35-6.35-18.25-2.65-44.15-2.65t-44.25 2.65q-18.25 2.65-18.25 6.35 0 3.75 18.25 6.4 18.35 2.6 44.25 2.6t44.15-2.6z" id="p"/><g id="q"><path fill="#1A5066" d="M65.2 60.85l-.05-.05q-5.3 1.7-7 1.7-6.85 0-10.75-.6-5.25-.8-8.2-2.65.65.95 1.6 1.85 4.8 4.85 11.9 4.85 7 0 12.15-4.85.15-.15.35-.25m-8.95-34.1v-.2q.15.15.3-.05v-.3q.05-.45-.25-.6-.2-.15-.75-.15-2.6.95-2.8 1.1.45-.15 1 .05.45.15.65.55.1.1.1.35-.05.6-.2.8v.1q-.1.85-.25 1.9-.15.85-.2 1.35-.05.05-.05.15-.05.4-.05.5v.55h.1q.15-.55.35-1.05 0-.1.05-.15.35-.95.75-1.95.9-2 1.25-2.95m-4.8-2.6V24q-.2-.15-.35-.25l.05.2q0 .3-.3.6l-.05 1.05h.05q.5-.15.75-.35-.1-.8-.15-1.1z"/><path fill="#39C" d="M65.2 60.8h-.05l.05.05v-.05M51.1 33.9l.05-.35q-2.5 1.5-7.75 4.95-6.7 4.3-7.15 11.05V50q.45 1.3 1.5 2.9 1.7 2.35 3.25 3.1 1.25.5 4.5 1.6 1.3.45 3.45.4h1.4q.55-.05.55-.15 2.35-.05 4.85-.8 3.65-1.1 6.15-3.35.75-.7 2.45-1.75 2.1-1.5 2.6-1.95 1.9-1.45 2.65-2.8-1.5-5.25-8.45-10.4-3-2.3-5.1-3.35.1.35.05.65-.05.25-.3.55 1.25.55 2 .95 1.5.75 2.1 1.6l-.1.65q-.5.25-.95.25-.95 0-2.25-2-.5-.65-.95-1.35-.2.1-.35.15-.65.3-1.6.3h-.2q-.6 0-1.1-.05-.35-.05-.6-.15-.65-.15-.6-.55 0-.35-.1-.55m1.05 1.6l.2-.3q-.55 2.1-.95 2.95-1.15 2.5-3 2.5-.25 0-.9-.55-.6-.45-.6-.6 0-.8 1.05-1.5.4-.3 2.15-1.15 1.45-.75 2.05-1.35m1.8 2.35q.55 1.35.95 2v1.45h-.45q0-.1-.05-.1h-.1q-.1-.7-.35-3.35m-.1-.55q.05.15.1.4-.1-.15-.15-.35l.05-.05m-2.4-13.15q.05.05.1.05.3.35.3.6t-.25.45q.1.5.2 1.15.15 1.05.1 2.2.4.05.95.05 1 0 1.35-.25l.1-.1q0-.65.1-1.15-.2-.4-.65-.55-.55-.2-1-.05.2-.15 2.8-1.1.55 0 .75.15.3.15.25.6v.3q-.15.2-.3.05v.65H58q.1-.3.5-.95.55-.95.7-1.15v-.55q-.1 0-.35-.15-.2-.1-.35-.1-.45 0-.9.25h-.3q.25-.2.4-.4.05-.3.15-.4l.05-.5q-.65 0-2.2-.35-1.95 0-2.4.05-1.1.2-2.2.8.15.1.35.25v.15z"/><path fill="#2880A4" d="M36.25 50q-.1 5.2 2.95 9.25 2.95 1.85 8.2 2.65 3.9.6 10.75.6 1.7 0 7-1.7h.05q4.75-4.75 4.75-11.2 0-1.2-.35-2.4-.75 1.35-2.65 2.8-.5.45-2.6 1.95-1.7 1.05-2.45 1.75-2.5 2.25-6.15 3.35-2.5.75-4.85.8 0 .1-.55.15h-1.4q-2.15.05-3.45-.4-3.25-1.1-4.5-1.6-1.55-.75-3.25-3.1-1.05-1.6-1.5-2.9M57.8 35.6q-.75-.4-2-.95-.05 0-.15.1.45.7.95 1.35 1.3 2 2.25 2 .45 0 .95-.25l.1-.65q-.6-.85-2.1-1.6m-2.9 4.25q-.4-.65-.95-2 .25 2.65.35 3.35h.1q.05 0 .05.1h.45v-1.45m-2.55-4.65l-.2.3q-.6.6-2.05 1.35-1.75.85-2.15 1.15-1.05.7-1.05 1.5 0 .15.6.6.65.55.9.55 1.85 0 3-2.5.4-.85.95-2.95m.5-6.55q-.55 0-.95-.05-1.5-.15-2.55-.75-.8-.45-2.25-1.65-.05 0-.1.05-.25.65-.3.95 0 .25.45.85.8 1 2.95 2.8.45.4.95.75.3.3.65.5.05.05.15.1 1 .75 1.3.75.25 0 .6-.05V32.3q0-.1.05-.5 0-.1.05-.15.05-.5.2-1.35.15-1.05.25-1.9h-.1q-.35.25-1.35.25m6.35-3.55q-.15.2-.7 1.15-.4.65-.5.95h-1.75v-.45q-.35.95-1.25 2.95-.4 1-.75 1.95-.05.05-.05.15-.2.5-.35 1.05.75-.25 1.55-.8.75-.6 1.6-1.65 1.95-2.45 2.2-5.3z"/><path d="M52.8 34.5h-.25q-.6-.15-1.1-.4-.15-.05-.35-.2.1.2.1.55-.05.4.6.55.25.1.6.15.5.05 1.1.05h.2q.95 0 1.6-.3.15-.05.35-.15.1-.1.15-.1.25-.3.3-.55.05-.3-.05-.65-.05-.05-.05-.1 0 .05-.05.1-.15.35-.75.65-.6.35-1.4.4h-1m2.65-2.4q0-.05-.05-.05-.8.55-1.55.8h-.1v.05q-.35.05-.6.05-.3 0-1.3-.75-.05 0-.1.05-.25.35.05.8.05.05.1.05.3.3 1.25.35h.4q.85 0 1.55-.05l.6-.1q.35-.1.4-.35v-.1q0-.45-.65-.75z"/><path fill="#333" d="M55.1 33.4q-.7.05-1.55.05h-.4q-.95-.05-1.25-.35-.05 0-.1-.05-.3-.45-.05-.8.05-.05.1-.05-.1-.05-.15-.1-.35.3-.5 1.15-.05.15-.05.3l-.05.35q.2.15.35.2.5.25 1.1.4h1.25q.8-.05 1.4-.4.6-.3.75-.65.05-.05.05-.1.1-.15.1-.3v-.1q-.05.25-.4.35l-.6.1z"/><path fill="#55AED5" d="M50.85 25.6h-.05q-.55.15-2.1.3-.95.15-1.6.3 1.45 1.2 2.25 1.65 1.05.6 2.55.75.05-1.15-.1-2.2-.1-.65-.2-1.15-.25.2-.75.35z"/></g><g id="r"><path fill="#666" d="M38.7 83.45q-3.65-.75-4.25-1.55v5.25q.4.9 5.55 2.15 5.2 1.3 13.35 1.35 8.25.1 13.5-1.1 5.25-1.25 5.45-1.8.15-.65.15-.75v-5.85q-.05 1-6.15 2.5-6.15 1.45-14.3 1.2-8.2-.35-13.3-1.4M66.85 46.6q2.5-.3 3.85-.7 1.55-.4 1.75-.9v-6q-.022 1.003-5.6 1.75-5.5.75-13.45.75-7.85 0-13.45-.75-5.3-.7-5.5-1.65V45q.2.45 1.35.8 1.35.45 4.15.8 5.6.7 13.45.7 7.95 0 13.45-.7z"/><path fill="#CCC" d="M34.45 81.15v.75q.6.8 4.25 1.55 5.1 1.05 13.3 1.4 8.15.25 14.3-1.2 6.1-1.5 6.15-2.5 0-.55-1.75-1.05v.45q.25.2.25.35-.05.35-1.4.65-.55.15-1.5.35-1.1.2-4.8.9-3.7.65-10.6.6-6.95-.05-10.05-.7-3.05-.7-4.05-.85-.95-.15-1.6-.35-1.15-.3-1.15-.6v-.7q-1.35.45-1.35.95m4.05-1.85q.35.35.9.35.5 0 .9-.35t.4-.9v-.5q-.05.45-.4.8-.4.4-.9.4-.55 0-.9-.4-.35-.3-.4-.75v.45q0 .55.4.9m22.15-.55v.45q0 .5.3.9.4.35.9.35.55 0 .95-.35.3-.4.3-.9v-.45q-.01.458-.3.7-.4.45-.95.45-.5 0-.9-.45-.29-.242-.3-.7m5.95-.05q-.3-.3-.35-.7v.4q0 .55.35.9t.9.35q.55 0 .9-.35t.35-.9V78q-.05.4-.35.7-.35.4-.9.4t-.9-.4M53.35 40.65q-7.55 0-12.85-.6-4.9-.5-5.3-1.45v-.05q.05-.25.6-.45-1.35.45-1.35.9v.1q.2.95 5.5 1.65 5.6.75 13.45.75 7.95 0 13.45-.75 5.578-.747 5.6-1.75 0-.6-2.2-1.15 1.25.35 1.25.8-.05.85-5.3 1.4-5.35.6-12.85.6z"/><path fill="#999" d="M70.7 45.9q-1.35.4-3.85.7-5.5.7-13.45.7-7.85 0-13.45-.7-2.8-.35-4.15-.8v35.1q0 .3 1.15.6.65.2 1.6.35 1 .15 4.05.85 3.1.65 10.05.7 6.9.05 10.6-.6 3.7-.7 4.8-.9.95-.2 1.5-.35 1.35-.3 1.4-.65 0-.15-.25-.35V45.9m-25.65 2.6q.25 0 .5.05.15.15.4.3.3.35.35.85v29.75q-.05.5-.35.85-.4.35-.9.35-.55 0-.9-.35-.4-.35-.45-.85V49.7q.05-.5.45-.85.15-.2.35-.3.2-.05.5-.05h.05m4.65.55q.2-.15.45-.25.2-.1.4-.1h.1q.3 0 .5.1t.35.25q.4.35.4.8V80.2q0 .45-.4.85-.3.4-.9.4-.45 0-.9-.4-.35-.4-.35-.85V49.85q.05-.45.35-.8m6.6-.35l.45.1q.25.05.4.25.4.35.4.8V80.2q0 .45-.4.85-.35.4-.95.4-.5 0-.85-.4T55 80.2V49.85q0-.45.35-.8.2-.2.4-.25l.45-.1h.1m12.1-.6q.35.35.35.8v29.5q0 .55-.35.9t-.9.35q-.55 0-.9-.35t-.35-.9V48.9q0-.45.35-.8.35-.4.9-.4t.9.4m-7.45.75q.4-.35.9-.35.55 0 .95.35.3.35.3.85v29.5q0 .5-.3.9-.4.35-.95.35-.5 0-.9-.35-.3-.4-.3-.9V49.7q0-.5.3-.85M39.4 47.7q.5 0 .9.4.35.35.4.8v29.5q0 .55-.4.9t-.9.35q-.55 0-.9-.35-.4-.35-.4-.9V48.9q0-.45.4-.8.35-.4.9-.4z"/><path fill="url(#b)" d="M40.3 48.1q-.4-.4-.9-.4-.55 0-.9.4-.4.35-.4.8v29.05q.05.45.4.75.35.4.9.4.5 0 .9-.4.35-.35.4-.8v-29q-.05-.45-.4-.8z"/><path fill="url(#c)" d="M61.85 48.5q-.5 0-.9.35-.3.35-.3.85v29.05q.01.458.3.7.4.45.9.45.55 0 .95-.45.29-.242.3-.7V49.7q0-.5-.3-.85-.4-.35-.95-.35z"/><path fill="url(#d)" d="M68.75 48.9q0-.45-.35-.8-.35-.4-.9-.4t-.9.4q-.35.35-.35.8V78q.05.4.35.7.35.4.9.4t.9-.4q.3-.3.35-.7V48.9z"/><path fill="url(#e)" d="M56.75 48.8l-.45-.1h-.1l-.45.1q-.2.05-.4.25-.35.35-.35.8V80.2q0 .45.35.85.35.4.85.4.6 0 .95-.4.4-.4.4-.85V49.85q0-.45-.4-.8-.15-.2-.4-.25z"/><path fill="url(#f)" d="M50.15 48.8q-.25.1-.45.25-.3.35-.35.8V80.2q0 .45.35.85.45.4.9.4.6 0 .9-.4.4-.4.4-.85V49.85q0-.45-.4-.8-.15-.15-.35-.25-.2-.1-.5-.1h-.1q-.2 0-.4.1z"/><path fill="url(#g)" d="M45.55 48.55q-.25-.05-.5-.05H45q-.3 0-.5.05-.2.1-.35.3-.4.35-.45.85v29.75q.05.5.45.85.35.35.9.35.5 0 .9-.35.3-.35.35-.85V49.7q-.05-.5-.35-.85-.25-.15-.4-.3z"/></g><path fill="url(#h)" d="M67.3 14.6q-5.65.95-13.6 1.15-8.05.2-13.75-.45-5.4-.55-5.7-1.6l.2 6.45q.25.5 1.4.85 1.35.45 4.25.75 5.7.65 13.7.45 8-.3 13.65-1.2 2.5-.4 3.85-.9 1.55-.45 1.75-1v-.15l-.1-6.4q-.017 1.053-5.65 2.05z" id="s"/><path fill="#999" d="M84.55-10.65q17.85-3.4 17.85-8.3 0-4.95-17.85-8.4-17.8-3.4-43-3.4t-43.05 3.4Q-19.3-23.9-19.3-19q0 4.95 17.8 8.35Q16.35-7.2 41.55-7.2q25.2 0 43-3.45z" id="t"/><g id="u"><path fill="url(#i)" d="M50.45 13.65l.15-.1h-.05l-.1.1m-.25.2l-.05.05h.05v-.05m-1.25.9l1.2-.85L48 12.7h-.05v.05l-1.8.5-.4.85.1.05 1.55.75 1.55-.15m11.4-5.9l.15-.05v-.05l-3.75-.85L48 8.95l2.5.95v.05h.05l9.8-1.1z"/><path fill="url(#j)" d="M50.5 9.9L48 8.95v3.75l2.15 1.2.05-.05.3-3.9V9.9z"/><path fill="#666" d="M57.45 12.35h.05l2.4.65h.15l.1-1.05L60.5 9l-2.95.3-.1 3.05M60.5 8.8l-.15.05h.15V8.8z"/><path fill="#333" d="M60.5 9v-.15h-.15l-9.8 1.1h-.05l-.3 3.9v.05h-.05l-1.2.85-1.55.15-1.55-.75-.05.1 1.65.8L49 14.9l1.3-.9.25-3.9v-.05l.05.05 6.95-.8L60.5 9m.95 4v-.2l-1.4.2h-.15l-2.4-.65v.2l2.45.55 1.5-.1m0-.8h-.05l.05.6v-.6z"/><path fill="url(#k)" d="M61.45 12.8l-.05-.6v-.15l-1.25-.1-.1 1.05 1.4-.2z"/></g><g id="v"><path fill="#D2A38B" d="M56.85 3.65q-.3-.1-.7-.15-.55-.05-1.15 0-1.35.15-2.65 1.05-.55.4-1 .85-.9.95-1.2 1.8-.3.8-.35 1.2v.45l1.15-.2q-.1.7-.1.95-.05.25-.05.3v.15q-.05.9.1 1.65 1.35-6.15 5.95-8.05z"/><path fill="#E9B59A" d="M59.55 5.35q-1.1-1.25-2.7-1.7-4.6 1.9-5.95 8.05.1.5.35 1 .7 1.15 3.25.3l.9.75q.95.8 2.45-1.2.5.45 1.6.25 1.1-.25 1.2-3.05.15-2.8-1.1-4.4z"/></g><g id="w"><path fill="#E9B59A" d="M868.25 181H843l.75 37.3q.7.75 1.5 1.45 4.55 4.1 10.65 3.75 6.15-.35 10.2-4.9 4.05-4.6 3.7-10.7l-1.55-26.9z"/><path fill="#D2A38B" d="M843 181h-4.35l1.65 28.55q.3 5.05 3.45 8.75L843 181z"/></g><path id="m" stroke="#8CA8B8" stroke-linejoin="round" stroke-linecap="round" fill="none" d="M334.8 527.35q4.1 0 7 2.95 2.95 2.9 2.95 7v81.6q-.1 3.95-2.95 6.75-2.9 2.95-7 2.95H226.15q-4.1 0-7-2.95-2.8-2.8-2.9-6.75v-81.6q0-4.1 2.9-7 2.9-2.95 7-2.95h108.6"/></defs><g transform="translate(-214 -524.95)"><use xlink:href="#l"/><use xlink:href="#m"/></g><g filter="url(#n)"><use xlink:href="#o" transform="matrix(.19388 0 0 .17468 -67.25 -6.7)"/><use xlink:href="#p" transform="translate(-220.25 -11.25) scale(.3031)"/><use xlink:href="#q" transform="translate(9.35 7.6)"/><use xlink:href="#r" transform="translate(9.35 7.6)"/><use xlink:href="#s" transform="translate(9.35 7.6)"/><use xlink:href="#t" transform="matrix(.31392 -.0087 .00546 .23328 49.9 25.35)"/><use xlink:href="#u" transform="translate(9.35 7.6)"/><use xlink:href="#v" transform="translate(9.35 7.6)"/><use xlink:href="#w" transform="matrix(.18027 0 0 .18027 -89.25 -24.95)"/></g></svg>