
<svg xmlns="http://www.w3.org/2000/svg" version="1.1" xmlns:xlink="http://www.w3.org/1999/xlink" preserveAspectRatio="none" x="0px" y="0px" width="129px" height="102px" viewBox="0 0 129 102">
<defs>
<g id="Layer0_0_FILL">
<path fill="#FFCC00" stroke="none" d="
M 129.75 10.8
Q 129.75 6.7 126.8 3.8 123.9 0.85 119.8 0.85
L 119.75 0.85 11.15 0.85
Q 7.05 0.85 4.15 3.8 1.25 6.7 1.25 10.8
L 1.25 92.4
Q 1.35 96.35 4.15 99.15 7.05 102.1 11.15 102.1
L 119.8 102.1
Q 123.9 102.1 126.8 99.15 129.65 96.35 129.75 92.4
L 129.75 10.8
M 27.3 16.65
Q 27.3 14.75 28.45 13.45 29.55 12.15 31.25 12.15 32.75 12.15 33.6 12.75
L 33 14.05
Q 32.5 13.5 31.35 13.5 30.25 13.5 29.6 14.45 28.9 15.3 28.9 16.7 28.9 18.1 29.55 18.9 30.15 19.7 31.25 19.7 32.45 19.7 33.15 18.85
L 33.85 20.05
Q 32.9 21.05 31.1 21.05 29.3 21.05 28.3 19.85 27.3 18.7 27.3 16.65
M 37.6 14.5
Q 39.05 14.5 39.8 15.35 40.6 16.25 40.6 17.75 40.6 19.25 39.8 20.15 39 21 37.6 21 36.15 21 35.4 20.15 34.6 19.25 34.6 17.75 34.6 16.3 35.4 15.4 36.25 14.5 37.6 14.5
M 42.05 19.65
L 42.05 12.3 43.5 11.95 43.5 19
Q 43.5 20.15 44.2 20.35 43.85 21 43.05 21 42.05 21 42.05 19.65
M 45.75 15.4
Q 46.6 14.5 47.95 14.5 49.4 14.5 50.15 15.35 50.95 16.25 50.95 17.75 50.95 19.25 50.15 20.15 49.35 21 47.95 21 46.5 21 45.75 20.15 44.95 19.25 44.95 17.75 44.95 16.3 45.75 15.4
M 56.5 15
L 56.75 14.6 57.7 14.6 57.7 23.35 56.2 23.35 56.2 20.7
Q 55.7 21 54.75 21 53.4 21 52.6 20.2 51.85 19.35 51.85 17.8 51.85 16.3 52.75 15.4 53.6 14.5 55 14.5 55.85 14.5 56.5 15
M 63.2 14.6
L 64.65 14.6 64.65 20.9 63.2 20.9 63.2 20.4
Q 62.85 20.65 62.35 20.85 61.8 21 61.35 21 59.15 21 59.15 18.7
L 59.15 14.6 60.6 14.6 60.6 18.6
Q 60.6 19.8 61.7 19.8 62.2 19.8 62.6 19.55 63.05 19.3 63.2 18.95
L 63.2 14.6
M 66.75 15.45
Q 67.65 14.5 68.95 14.5 70.3 14.5 71.15 15.3 71.95 16.15 71.95 17.4 71.95 17.65 71.85 18.2
L 67.35 18.2
Q 67.4 18.95 67.9 19.4 68.35 19.8 69.15 19.8 70.15 19.8 70.7 19.25
L 71.25 20.4
Q 70.45 21 68.95 21 67.5 21 66.65 20.2 65.85 19.35 65.85 17.85 65.85 16.35 66.75 15.45
M 82.35 17.75
Q 82.35 19.25 81.55 20.15 80.75 21 79.35 21 77.9 21 77.15 20.15 76.35 19.25 76.35 17.75 76.35 16.3 77.15 15.4 78 14.5 79.35 14.5 80.8 14.5 81.55 15.35 82.35 16.25 82.35 17.75
M 87.4 12.3
L 88.85 11.95 88.85 19
Q 88.85 20.15 89.55 20.35 89.2 21 88.4 21 87.4 21 87.4 19.65
L 87.4 12.3
M 90.3 15.85
L 90.3 14.6 92.55 14.6 92.55 20.9 91.1 20.9 91.1 15.85 90.3 15.85
M 91.85 13.9
Q 91.5 13.9 91.25 13.65 91 13.4 91 13.05 91 12.7 91.25 12.45 91.5 12.2 91.85 12.2 92.2 12.2 92.45 12.45 92.7 12.7 92.7 13.05 92.7 13.4 92.45 13.65 92.2 13.9 91.85 13.9
M 99.9 14.6
L 97.45 17.7 100.1 20.9 98.3 20.9 96.7 18.85 95.25 20.9 93.55 20.9 95.95 17.7 93.7 14.6 95.4 14.6 96.75 16.55 98.2 14.6 99.9 14.6
M 103.55 14.5
Q 105 14.5 105.75 15.35 106.55 16.25 106.55 17.75 106.55 19.25 105.75 20.15 104.95 21 103.55 21 102.1 21 101.35 20.15 100.55 19.25 100.55 17.75 100.55 16.3 101.35 15.4 102.2 14.5 103.55 14.5
M 91.35 30
Q 91.75 30.5 91.75 31.15 91.75 32 91.1 32.5 90.45 33 89.35 33 88.7 33 88.35 32.9 87.95 32.8 87.35 32.5
L 87.9 31.35
Q 88.55 31.85 89.35 31.85 90.2 31.85 90.2 31.25 90.2 30.9 89.95 30.65 89.7 30.45 88.95 30.1 87.35 29.45 87.35 28.25 87.35 27.4 87.95 26.95 88.55 26.5 89.55 26.5 90.5 26.5 91.4 26.95
L 90.95 28.1
Q 90.5 27.65 89.6 27.65 88.85 27.65 88.85 28.3 88.85 28.5 89.1 28.7 89.35 28.9 90.2 29.25 91 29.55 91.35 30
M 81.35 27.4
Q 82.2 26.5 83.55 26.5 85 26.5 85.75 27.35 86.55 28.25 86.55 29.75 86.55 31.25 85.75 32.15 84.95 33 83.55 33 82.1 33 81.35 32.15 80.55 31.25 80.55 29.75 80.55 28.3 81.35 27.4
M 55.85 26.5
Q 56.9 26.5 57.5 27.1 58.05 27.7 58.05 28.75
L 58.05 32.9 56.6 32.9 56.6 28.95
Q 56.6 27.75 55.5 27.75 55.15 27.75 54.85 27.95 54.55 28.1 54.45 28.35
L 54.45 32.9 52.95 32.9 52.95 28.75
Q 52.95 28.3 52.7 28 52.4 27.75 51.9 27.75 51.6 27.75 51.3 27.95 50.95 28.15 50.8 28.4
L 50.8 32.9 49.35 32.9 49.35 26.6 50.35 26.6 50.65 27.2
Q 51.25 26.5 52.2 26.5 53.45 26.5 54.1 27.2 54.4 26.9 54.85 26.7 55.35 26.5 55.85 26.5
M 48.15 29.4
Q 48.15 29.65 48.05 30.2
L 43.55 30.2
Q 43.6 30.95 44.1 31.4 44.55 31.8 45.35 31.8 46.35 31.8 46.9 31.25
L 47.45 32.4
Q 46.65 33 45.15 33 43.7 33 42.85 32.2 42.05 31.35 42.05 29.85 42.05 28.35 42.95 27.45 43.85 26.5 45.15 26.5 46.5 26.5 47.35 27.3 48.15 28.15 48.15 29.4
M 40.85 38.5
Q 43.85 38.5 43.85 41.8 43.85 43.35 43 44.2 42.2 45 40.75 45 40.05 45 39.5 44.75
L 39.5 47.35 38 47.35 38 38.6 39.5 38.6 39.5 39.05
Q 40.05 38.5 40.85 38.5
M 77.8 26.5
Q 78.9 26.5 79.7 27.1
L 79.1 28.2
Q 78.55 27.75 77.7 27.75 76.85 27.75 76.4 28.3 75.9 28.85 75.9 29.8 75.9 31.8 77.8 31.8 78.6 31.8 79.2 31.25
L 79.75 32.4
Q 79.1 32.8 78.65 32.9 78.15 33 77.5 33 76.05 33 75.2 32.15 74.4 31.3 74.4 29.8 74.4 28.35 75.3 27.4 76.2 26.5 77.8 26.5
M 72.55 27.15
Q 73.2 27.8 73.2 29.65
L 73.2 31
Q 73.2 32.25 73.7 32.55 73.5 32.85 73.3 32.95 73.1 33 72.8 33 72.5 33 72.2 32.8 71.95 32.55 71.9 32.25 71.7 32.6 71.2 32.8 70.7 33 70.15 33 69.15 33 68.55 32.5 68 32 68 31.05 68 30 68.8 29.35 69.6 28.75 71.1 28.75 71.4 28.75 71.75 28.85 71.75 27.75 70.35 27.75 69.5 27.75 68.95 28
L 68.65 26.85
Q 69.4 26.5 70.45 26.5 71.85 26.5 72.55 27.15
M 66.9 26.95
L 66.45 28.1
Q 66 27.65 65.1 27.65 64.35 27.65 64.35 28.3 64.35 28.5 64.6 28.7 64.85 28.9 65.7 29.25 66.5 29.55 66.85 30 67.25 30.5 67.25 31.15 67.25 32 66.6 32.5 65.95 33 64.85 33 64.2 33 63.85 32.9 63.45 32.8 62.85 32.5
L 63.4 31.35
Q 64.05 31.85 64.85 31.85 65.7 31.85 65.7 31.25 65.7 30.9 65.45 30.65 65.2 30.45 64.45 30.1 62.85 29.45 62.85 28.25 62.85 27.4 63.45 26.95 64.05 26.5 65.05 26.5 66 26.5 66.9 26.95
M 89.9 41.85
Q 89.9 40.35 90.8 39.45 91.7 38.5 93 38.5 94.35 38.5 95.2 39.3 96 40.15 96 41.4 96 41.65 95.9 42.2
L 91.4 42.2
Q 91.45 42.95 91.95 43.4 92.4 43.8 93.2 43.8 94.2 43.8 94.75 43.25
L 95.3 44.4
Q 94.5 45 93 45 91.55 45 90.7 44.2 89.9 43.35 89.9 41.85
M 85.2 38.95
L 84.75 40.1
Q 84.3 39.65 83.4 39.65 82.65 39.65 82.65 40.3 82.65 40.5 82.9 40.7 83.15 40.9 84 41.25 84.8 41.55 85.15 42 85.55 42.5 85.55 43.15 85.55 44 84.9 44.5 84.25 45 83.15 45 82.5 45 82.15 44.9 81.75 44.8 81.15 44.5
L 81.7 43.35
Q 82.35 43.85 83.15 43.85 84 43.85 84 43.25 84 42.9 83.75 42.65 83.5 42.45 82.75 42.1 81.15 41.45 81.15 40.25 81.15 39.4 81.75 38.95 82.35 38.5 83.35 38.5 84.3 38.5 85.2 38.95
M 51.05 36.05
L 52.5 36.05 51.2 37.8 50.05 37.8 51.05 36.05
M 45.4 36.3
L 46.85 35.95 46.85 43
Q 46.85 44.15 47.55 44.35 47.2 45 46.4 45 45.4 45 45.4 43.65
L 45.4 36.3
M 49.25 40
L 48.95 38.85
Q 49.7 38.5 50.75 38.5 52.15 38.5 52.85 39.15 53.5 39.8 53.5 41.65
L 53.5 43
Q 53.5 44.25 54 44.55 53.8 44.85 53.6 44.95 53.4 45 53.1 45 52.8 45 52.5 44.8 52.25 44.55 52.2 44.25 52 44.6 51.5 44.8 51 45 50.45 45 49.45 45 48.85 44.5 48.3 44 48.3 43.05 48.3 42 49.1 41.35 49.9 40.75 51.4 40.75 51.7 40.75 52.05 40.85 52.05 39.75 50.65 39.75 49.8 39.75 49.25 40
M 58.75 38.95
L 58.3 40.1
Q 57.85 39.65 56.95 39.65 56.2 39.65 56.2 40.3 56.2 40.5 56.45 40.7 56.7 40.9 57.55 41.25 58.35 41.55 58.7 42 59.1 42.5 59.1 43.15 59.1 44 58.45 44.5 57.8 45 56.7 45 56.05 45 55.7 44.9 55.3 44.8 54.7 44.5
L 55.25 43.35
Q 55.9 43.85 56.7 43.85 57.55 43.85 57.55 43.25 57.55 42.9 57.3 42.65 57.05 42.45 56.3 42.1 54.7 41.45 54.7 40.25 54.7 39.4 55.3 38.95 55.9 38.5 56.9 38.5 57.85 38.5 58.75 38.95
M 60.45 39.8
L 59.75 39.8 59.75 38.6 60.45 38.6 60.45 37.35 61.95 36.8 61.95 38.6 63.65 38.6 63.65 39.8 61.95 39.8 61.95 42.55
Q 61.95 43.2 62.15 43.5 62.35 43.8 62.9 43.8 63.4 43.8 63.85 43.5
L 63.85 44.85
Q 63.35 45 62.4 45 61.45 45 60.95 44.5 60.45 43.95 60.45 43
L 60.45 39.8
M 65.3 37.05
Q 65.3 36.7 65.55 36.45 65.8 36.2 66.15 36.2 66.5 36.2 66.75 36.45 67 36.7 67 37.05 67 37.4 66.75 37.65 66.5 37.9 66.15 37.9 65.8 37.9 65.55 37.65 65.3 37.4 65.3 37.05
M 68.2 41.8
Q 68.2 40.35 69.1 39.4 70 38.5 71.6 38.5 72.7 38.5 73.5 39.1
L 72.9 40.2
Q 72.35 39.75 71.5 39.75 70.65 39.75 70.2 40.3 69.7 40.85 69.7 41.8 69.7 43.8 71.6 43.8 72.4 43.8 73 43.25
L 73.55 44.4
Q 72.9 44.8 72.45 44.9 71.95 45 71.3 45 69.85 45 69 44.15 68.2 43.3 68.2 41.8
M 64.6 39.85
L 64.6 38.6 66.85 38.6 66.85 44.9 65.4 44.9 65.4 39.85 64.6 39.85
M 79.55 39.35
Q 80.35 40.25 80.35 41.75 80.35 43.25 79.55 44.15 78.75 45 77.35 45 75.9 45 75.15 44.15 74.35 43.25 74.35 41.75 74.35 40.3 75.15 39.4 76 38.5 77.35 38.5 78.8 38.5 79.55 39.35
M 25.75 51.1
Q 26.3 51.7 26.3 52.75
L 26.3 56.9 24.85 56.9 24.85 52.95
Q 24.85 51.75 23.75 51.75 23.4 51.75 23.1 51.95 22.8 52.1 22.7 52.35
L 22.7 56.9 21.2 56.9 21.2 52.75
Q 21.2 52.3 20.95 52 20.65 51.75 20.15 51.75 19.85 51.75 19.55 51.95 19.2 52.15 19.05 52.4
L 19.05 56.9 17.6 56.9 17.6 50.6 18.6 50.6 18.9 51.2
Q 19.5 50.5 20.45 50.5 21.7 50.5 22.35 51.2 22.65 50.9 23.1 50.7 23.6 50.5 24.1 50.5 25.15 50.5 25.75 51.1
M 30.6 52.75
Q 30.9 52.75 31.25 52.85 31.25 51.75 29.85 51.75 29 51.75 28.45 52
L 28.15 50.85
Q 28.9 50.5 29.95 50.5 31.35 50.5 32.05 51.15 32.7 51.8 32.7 53.65
L 32.7 55
Q 32.7 56.25 33.2 56.55 33 56.85 32.8 56.95 32.6 57 32.3 57 32 57 31.7 56.8 31.45 56.55 31.4 56.25 31.2 56.6 30.7 56.8 30.2 57 29.65 57 28.65 57 28.05 56.5 27.5 56 27.5 55.05 27.5 54 28.3 53.35 29.1 52.75 30.6 52.75
M 93.45 48.3
L 94.95 47.95 94.95 50.85
Q 95.5 50.5 96.2 50.5 97.6 50.5 98.45 51.4 99.3 52.25 99.3 53.6 99.3 55.2 98.45 56.1 97.6 57 96.15 57 95.25 57 94.65 56.55
L 94.3 57 93.45 57 93.45 48.3
M 86.65 50.5
Q 87.6 50.5 88.5 50.95
L 88.05 52.1
Q 87.6 51.65 86.7 51.65 85.95 51.65 85.95 52.3 85.95 52.5 86.2 52.7 86.45 52.9 87.3 53.25 88.1 53.55 88.45 54 88.85 54.5 88.85 55.15 88.85 56 88.2 56.5 87.55 57 86.45 57 85.8 57 85.45 56.9 85.05 56.8 84.45 56.5
L 85 55.35
Q 85.65 55.85 86.45 55.85 87.3 55.85 87.3 55.25 87.3 54.9 87.05 54.65 86.8 54.45 86.05 54.1 84.45 53.45 84.45 52.25 84.45 51.4 85.05 50.95 85.65 50.5 86.65 50.5
M 82.85 51.35
Q 83.65 52.25 83.65 53.75 83.65 55.25 82.85 56.15 82.05 57 80.65 57 79.2 57 78.45 56.15 77.65 55.25 77.65 53.75 77.65 52.3 78.45 51.4 79.3 50.5 80.65 50.5 82.1 50.5 82.85 51.35
M 41.6 49.35
L 43.1 48.8 43.1 50.6 44.8 50.6 44.8 51.8 43.1 51.8 43.1 54.55
Q 43.1 55.2 43.3 55.5 43.5 55.8 44.05 55.8 44.55 55.8 45 55.5
L 45 56.85
Q 44.5 57 43.55 57 42.6 57 42.1 56.5 41.6 55.95 41.6 55
L 41.6 51.8 40.9 51.8 40.9 50.6 41.6 50.6 41.6 49.35
M 60.15 48.3
L 61.65 47.95 61.65 51
Q 62.2 50.5 63.2 50.5 64.35 50.5 65 51.15 65.65 51.8 65.65 53.05
L 65.65 56.9 64.2 56.9 64.2 53.05
Q 64.2 52.45 63.85 52.1 63.5 51.75 62.9 51.75 62.55 51.75 62.15 51.95 61.8 52.15 61.65 52.4
L 61.65 56.9 60.15 56.9 60.15 48.3
M 36.35 51.9
Q 35.95 52.1 35.75 52.35
L 35.75 56.9 34.3 56.9 34.3 50.6 35.35 50.6 35.6 51.2
Q 36.2 50.5 37.4 50.5 38.5 50.5 39.15 51.2 39.8 51.85 39.8 53.05
L 39.8 56.9 38.35 56.9 38.35 53.25
Q 38.35 52.45 38 52.1 37.7 51.75 37 51.75 36.7 51.75 36.35 51.9
M 76.6 52.75
L 76.6 54.1 73.5 54.1 73.5 52.75 76.6 52.75
M 71.4 51.15
Q 72.05 51.8 72.05 53.65
L 72.05 55
Q 72.05 56.25 72.55 56.55 72.35 56.85 72.15 56.95 71.95 57 71.65 57 71.35 57 71.05 56.8 70.8 56.55 70.75 56.25 70.55 56.6 70.05 56.8 69.55 57 69 57 68 57 67.4 56.5 66.85 56 66.85 55.05 66.85 54 67.65 53.35 68.45 52.75 69.95 52.75 70.25 52.75 70.6 52.85 70.6 51.75 69.2 51.75 68.35 51.75 67.8 52
L 67.5 50.85
Q 68.25 50.5 69.3 50.5 70.7 50.5 71.4 51.15
M 56.75 52.1
Q 56.45 51.75 55.75 51.75 55.45 51.75 55.1 51.9 54.7 52.1 54.5 52.35
L 54.5 56.9 53.05 56.9 53.05 50.6 54.1 50.6 54.35 51.2
Q 54.95 50.5 56.15 50.5 57.25 50.5 57.9 51.2 58.55 51.85 58.55 53.05
L 58.55 56.9 57.1 56.9 57.1 53.25
Q 57.1 52.45 56.75 52.1
M 51.85 53.4
Q 51.85 53.65 51.75 54.2
L 47.25 54.2
Q 47.3 54.95 47.8 55.4 48.25 55.8 49.05 55.8 50.05 55.8 50.6 55.25
L 51.15 56.4
Q 50.35 57 48.85 57 47.4 57 46.55 56.2 45.75 55.35 45.75 53.85 45.75 52.35 46.65 51.45 47.55 50.5 48.85 50.5 50.2 50.5 51.05 51.3 51.85 52.15 51.85 53.4
M 115.65 51.1
Q 116.2 51.7 116.2 52.75
L 116.2 56.9 114.75 56.9 114.75 52.95
Q 114.75 51.75 113.65 51.75 113.3 51.75 113 51.95 112.7 52.1 112.6 52.35
L 112.6 56.9 111.1 56.9 111.1 52.75
Q 111.1 52.3 110.85 52 110.55 51.75 110.05 51.75 109.75 51.75 109.45 51.95 109.1 52.15 108.95 52.4
L 108.95 56.9 107.5 56.9 107.5 50.6 108.5 50.6 108.8 51.2
Q 109.4 50.5 110.35 50.5 111.6 50.5 112.25 51.2 112.55 50.9 113 50.7 113.5 50.5 114 50.5 115.05 50.5 115.65 51.1
M 101.7 54.2
Q 101.75 54.95 102.25 55.4 102.7 55.8 103.5 55.8 104.5 55.8 105.05 55.25
L 105.6 56.4
Q 104.8 57 103.3 57 101.85 57 101 56.2 100.2 55.35 100.2 53.85 100.2 52.35 101.1 51.45 102 50.5 103.3 50.5 104.65 50.5 105.5 51.3 106.3 52.15 106.3 53.4 106.3 53.65 106.2 54.2
L 101.7 54.2
M 27.8 61.4
Q 27.3 61.25 27.05 61.25 26.65 61.25 26.35 61.6 26.05 61.95 26.05 62.45 26.05 62.55 26.05 62.6
L 27.35 62.6 27.35 63.85 26.1 63.85 26.1 68.9 24.6 68.9 24.6 63.85 23.7 63.85 23.7 62.6 24.65 62.6
Q 24.65 61.45 25.3 60.75 25.95 60.05 26.95 60.05 27.45 60.05 28.2 60.3
L 27.8 61.4
M 28.35 65.85
Q 28.35 64.35 29.25 63.45 30.15 62.5 31.45 62.5 32.8 62.5 33.65 63.3 34.45 64.15 34.45 65.4 34.45 65.65 34.35 66.2
L 29.85 66.2
Q 29.9 66.95 30.4 67.4 30.85 67.8 31.65 67.8 32.65 67.8 33.2 67.25
L 33.75 68.4
Q 32.95 69 31.45 69 30 69 29.15 68.2 28.35 67.35 28.35 65.85
M 38.65 67.8
Q 39.45 67.8 40.05 67.25
L 40.6 68.4
Q 39.95 68.8 39.5 68.9 39 69 38.35 69 36.9 69 36.05 68.15 35.25 67.3 35.25 65.8 35.25 64.35 36.15 63.4 37.05 62.5 38.65 62.5 39.75 62.5 40.55 63.1
L 39.95 64.2
Q 39.4 63.75 38.55 63.75 37.7 63.75 37.25 64.3 36.75 64.85 36.75 65.8 36.75 67.8 38.65 67.8
M 67.05 63.35
Q 67.85 64.25 67.85 65.75 67.85 67.25 67.05 68.15 66.25 69 64.85 69 63.4 69 62.65 68.15 61.85 67.25 61.85 65.75 61.85 64.3 62.65 63.4 63.5 62.5 64.85 62.5 66.3 62.5 67.05 63.35
M 60.8 59.95
L 60.8 68.9 59.35 68.9 59.35 68.5
Q 59.15 68.7 58.7 68.85 58.3 69 57.8 69 56.5 69 55.75 68.2 55 67.35 55 65.85 55 64.4 55.85 63.45 56.75 62.5 58.05 62.5 58.75 62.5 59.35 62.8
L 59.35 60.3 60.8 59.95
M 41.8 60.3
L 43.3 59.95 43.3 63
Q 43.85 62.5 44.85 62.5 46 62.5 46.65 63.15 47.3 63.8 47.3 65.05
L 47.3 68.9 45.85 68.9 45.85 65.05
Q 45.85 64.45 45.5 64.1 45.15 63.75 44.55 63.75 44.2 63.75 43.8 63.95 43.45 64.15 43.3 64.4
L 43.3 68.9 41.8 68.9 41.8 60.3
M 49.45 64
L 49.15 62.85
Q 49.9 62.5 50.95 62.5 52.35 62.5 53.05 63.15 53.7 63.8 53.7 65.65
L 53.7 67
Q 53.7 68.25 54.2 68.55 54 68.85 53.8 68.95 53.6 69 53.3 69 53 69 52.7 68.8 52.45 68.55 52.4 68.25 52.2 68.6 51.7 68.8 51.2 69 50.65 69 49.65 69 49.05 68.5 48.5 68 48.5 67.05 48.5 66 49.3 65.35 50.1 64.75 51.6 64.75 51.9 64.75 52.25 64.85 52.25 63.75 50.85 63.75 50 63.75 49.45 64
M 70.15 64.3
Q 70.15 64.5 70.4 64.7 70.65 64.9 71.5 65.25 72.3 65.55 72.65 66 73.05 66.5 73.05 67.15 73.05 68 72.4 68.5 71.75 69 70.65 69 70 69 69.65 68.9 69.25 68.8 68.65 68.5
L 69.2 67.35
Q 69.85 67.85 70.65 67.85 71.5 67.85 71.5 67.25 71.5 66.9 71.25 66.65 71 66.45 70.25 66.1 68.65 65.45 68.65 64.25 68.65 63.4 69.25 62.95 69.85 62.5 70.85 62.5 71.8 62.5 72.7 62.95
L 72.25 64.1
Q 71.8 63.65 70.9 63.65 70.15 63.65 70.15 64.3
M 108.05 64.85
Q 108.05 63.75 106.65 63.75 105.8 63.75 105.25 64
L 104.95 62.85
Q 105.7 62.5 106.75 62.5 108.15 62.5 108.85 63.15 109.5 63.8 109.5 65.65
L 109.5 67
Q 109.5 68.25 110 68.55 109.8 68.85 109.6 68.95 109.4 69 109.1 69 108.8 69 108.5 68.8 108.25 68.55 108.2 68.25 108 68.6 107.5 68.8 107 69 106.45 69 105.45 69 104.85 68.5 104.3 68 104.3 67.05 104.3 66 105.1 65.35 105.9 64.75 107.4 64.75 107.7 64.75 108.05 64.85
M 103.8 62.75
L 103.15 64
Q 102.8 63.75 102.3 63.75 101.8 63.75 101.4 64.2 101 64.65 101 65.35
L 101 68.9 99.55 68.9 99.55 62.6 101 62.6 101 63.2
Q 101.6 62.5 102.65 62.5 103.4 62.5 103.8 62.75
M 92.2 60.3
L 91.8 61.4
Q 91.3 61.25 91.05 61.25 90.65 61.25 90.35 61.6 90.05 61.95 90.05 62.45 90.05 62.55 90.05 62.6
L 91.35 62.6 91.35 63.85 90.1 63.85 90.1 68.9 88.6 68.9 88.6 63.85 87.7 63.85 87.7 62.6 88.65 62.6
Q 88.65 61.45 89.3 60.75 89.95 60.05 90.95 60.05 91.45 60.05 92.2 60.3
M 82.7 63.3
Q 83.5 64.15 83.5 65.4 83.5 65.65 83.4 66.2
L 78.9 66.2
Q 78.95 66.95 79.45 67.4 79.9 67.8 80.7 67.8 81.7 67.8 82.25 67.25
L 82.8 68.4
Q 82 69 80.5 69 79.05 69 78.2 68.2 77.4 67.35 77.4 65.85 77.4 64.35 78.3 63.45 79.2 62.5 80.5 62.5 81.85 62.5 82.7 63.3
M 97.55 63.35
Q 98.35 64.25 98.35 65.75 98.35 67.25 97.55 68.15 96.75 69 95.35 69 93.9 69 93.15 68.15 92.35 67.25 92.35 65.75 92.35 64.3 93.15 63.4 94 62.5 95.35 62.5 96.8 62.5 97.55 63.35
M 33 72.3
L 34.45 71.95 34.45 80.9 33 80.9 33 80.5
Q 32.8 80.7 32.35 80.85 31.95 81 31.45 81 30.15 81 29.4 80.2 28.65 79.35 28.65 77.85 28.65 76.4 29.5 75.45 30.4 74.5 31.7 74.5 32.4 74.5 33 74.8
L 33 72.3
M 36.3 80.15
Q 35.5 79.25 35.5 77.75 35.5 76.3 36.3 75.4 37.15 74.5 38.5 74.5 39.95 74.5 40.7 75.35 41.5 76.25 41.5 77.75 41.5 79.25 40.7 80.15 39.9 81 38.5 81 37.05 81 36.3 80.15
M 52.95 72.3
L 54.4 71.95 54.4 79
Q 54.4 80.15 55.1 80.35 54.75 81 53.95 81 52.95 81 52.95 79.65
L 52.95 72.3
M 55.85 77.8
Q 55.85 76.35 56.75 75.4 57.65 74.5 59.25 74.5 60.35 74.5 61.15 75.1
L 60.55 76.2
Q 60 75.75 59.15 75.75 58.3 75.75 57.85 76.3 57.35 76.85 57.35 77.8 57.35 79.8 59.25 79.8 60.05 79.8 60.65 79.25
L 61.2 80.4
Q 60.55 80.8 60.1 80.9 59.6 81 58.95 81 57.5 81 56.65 80.15 55.85 79.3 55.85 77.8
M 51.1 77.65
L 51.1 79
Q 51.1 80.25 51.6 80.55 51.4 80.85 51.2 80.95 51 81 50.7 81 50.4 81 50.1 80.8 49.85 80.55 49.8 80.25 49.6 80.6 49.1 80.8 48.6 81 48.05 81 47.05 81 46.45 80.5 45.9 80 45.9 79.05 45.9 78 46.7 77.35 47.5 76.75 49 76.75 49.3 76.75 49.65 76.85 49.65 75.75 48.25 75.75 47.4 75.75 46.85 76
L 46.55 74.85
Q 47.3 74.5 48.35 74.5 49.75 74.5 50.45 75.15 51.1 75.8 51.1 77.65
M 66.55 75.15
Q 67.2 75.8 67.2 77.65
L 67.2 79
Q 67.2 80.25 67.7 80.55 67.5 80.85 67.3 80.95 67.1 81 66.8 81 66.5 81 66.2 80.8 65.95 80.55 65.9 80.25 65.7 80.6 65.2 80.8 64.7 81 64.15 81 63.15 81 62.55 80.5 62 80 62 79.05 62 78 62.8 77.35 63.6 76.75 65.1 76.75 65.4 76.75 65.75 76.85 65.75 75.75 64.35 75.75 63.5 75.75 62.95 76
L 62.65 74.85
Q 63.4 74.5 64.45 74.5 65.85 74.5 66.55 75.15
M 96.6 72.3
L 98.05 71.95 98.05 80.9 96.6 80.9 96.6 80.5
Q 96.4 80.7 95.95 80.85 95.55 81 95.05 81 93.75 81 93 80.2 92.25 79.35 92.25 77.85 92.25 76.4 93.1 75.45 94 74.5 95.3 74.5 96 74.5 96.6 74.8
L 96.6 72.3
M 100.6 78.2
Q 100.65 78.95 101.15 79.4 101.6 79.8 102.4 79.8 103.4 79.8 103.95 79.25
L 104.5 80.4
Q 103.7 81 102.2 81 100.75 81 99.9 80.2 99.1 79.35 99.1 77.85 99.1 76.35 100 75.45 100.9 74.5 102.2 74.5 103.55 74.5 104.4 75.3 105.2 76.15 105.2 77.4 105.2 77.65 105.1 78.2
L 100.6 78.2
M 87.75 77.4
Q 87.75 77.65 87.65 78.2
L 83.15 78.2
Q 83.2 78.95 83.7 79.4 84.15 79.8 84.95 79.8 85.95 79.8 86.5 79.25
L 87.05 80.4
Q 86.25 81 84.75 81 83.3 81 82.45 80.2 81.65 79.35 81.65 77.85 81.65 76.35 82.55 75.45 83.45 74.5 84.75 74.5 86.1 74.5 86.95 75.3 87.75 76.15 87.75 77.4
M 58.25 84.45
Q 58.5 84.2 58.85 84.2 59.2 84.2 59.45 84.45 59.7 84.7 59.7 85.05 59.7 85.4 59.45 85.65 59.2 85.9 58.85 85.9 58.5 85.9 58.25 85.65 58 85.4 58 85.05 58 84.7 58.25 84.45
M 57.3 86.6
L 59.55 86.6 59.55 92.9 58.1 92.9 58.1 87.85 57.3 87.85 57.3 86.6
M 48.35 87.15
Q 49 87.8 49 89.65
L 49 91
Q 49 92.25 49.5 92.55 49.3 92.85 49.1 92.95 48.9 93 48.6 93 48.3 93 48 92.8 47.75 92.55 47.7 92.25 47.5 92.6 47 92.8 46.5 93 45.95 93 44.95 93 44.35 92.5 43.8 92 43.8 91.05 43.8 90 44.6 89.35 45.4 88.75 46.9 88.75 47.2 88.75 47.55 88.85 47.55 87.75 46.15 87.75 45.3 87.75 44.75 88
L 44.45 86.85
Q 45.2 86.5 46.25 86.5 47.65 86.5 48.35 87.15
M 54.65 89.25
Q 54.65 88.45 54.3 88.1 54 87.75 53.3 87.75 53 87.75 52.65 87.9 52.25 88.1 52.05 88.35
L 52.05 92.9 50.6 92.9 50.6 86.6 51.65 86.6 51.9 87.2
Q 52.5 86.5 53.7 86.5 54.8 86.5 55.45 87.2 56.1 87.85 56.1 89.05
L 56.1 92.9 54.65 92.9 54.65 89.25
M 80.2 76.2
Q 79.65 75.75 78.8 75.75 77.95 75.75 77.5 76.3 77 76.85 77 77.8 77 79.8 78.9 79.8 79.7 79.8 80.3 79.25
L 80.85 80.4
Q 80.2 80.8 79.75 80.9 79.25 81 78.6 81 77.15 81 76.3 80.15 75.5 79.3 75.5 77.8 75.5 76.35 76.4 75.4 77.3 74.5 78.9 74.5 80 74.5 80.8 75.1
L 80.2 76.2
M 73.65 75.2
Q 74.3 75.85 74.3 77.05
L 74.3 80.9 72.85 80.9 72.85 77.25
Q 72.85 76.45 72.5 76.1 72.2 75.75 71.5 75.75 71.2 75.75 70.85 75.9 70.45 76.1 70.25 76.35
L 70.25 80.9 68.8 80.9 68.8 74.6 69.85 74.6 70.1 75.2
Q 70.7 74.5 71.9 74.5 73 74.5 73.65 75.2
M 61.3 86.6
L 62.3 86.6 62.6 87.2
Q 63.2 86.5 64.15 86.5 65.4 86.5 66.05 87.2 66.35 86.9 66.8 86.7 67.3 86.5 67.8 86.5 68.85 86.5 69.45 87.1 70 87.7 70 88.75
L 70 92.9 68.55 92.9 68.55 88.95
Q 68.55 87.75 67.45 87.75 67.1 87.75 66.8 87.95 66.5 88.1 66.4 88.35
L 66.4 92.9 64.9 92.9 64.9 88.75
Q 64.9 88.3 64.65 88 64.35 87.75 63.85 87.75 63.55 87.75 63.25 87.95 62.9 88.15 62.75 88.4
L 62.75 92.9 61.3 92.9 61.3 86.6
M 76.4 91
Q 76.4 92.25 76.9 92.55 76.7 92.85 76.5 92.95 76.3 93 76 93 75.7 93 75.4 92.8 75.15 92.55 75.1 92.25 74.9 92.6 74.4 92.8 73.9 93 73.35 93 72.35 93 71.75 92.5 71.2 92 71.2 91.05 71.2 90 72 89.35 72.8 88.75 74.3 88.75 74.6 88.75 74.95 88.85 74.95 87.75 73.55 87.75 72.7 87.75 72.15 88
L 71.85 86.85
Q 72.6 86.5 73.65 86.5 75.05 86.5 75.75 87.15 76.4 87.8 76.4 89.65
L 76.4 91
M 88.75 91.4
Q 89.1 91.7 89.1 92.15 89.1 92.55 88.75 92.9 88.45 93.2 88 93.2 87.6 93.2 87.3 92.9 86.95 92.55 86.95 92.15 86.95 91.7 87.3 91.4 87.6 91.1 88 91.1 88.45 91.1 88.75 91.4
M 85.25 86.95
L 84.8 88.1
Q 84.35 87.65 83.45 87.65 82.7 87.65 82.7 88.3 82.7 88.5 82.95 88.7 83.2 88.9 84.05 89.25 84.85 89.55 85.2 90 85.6 90.5 85.6 91.15 85.6 92 84.95 92.5 84.3 93 83.2 93 82.55 93 82.2 92.9 81.8 92.8 81.2 92.5
L 81.75 91.35
Q 82.4 91.85 83.2 91.85 84.05 91.85 84.05 91.25 84.05 90.9 83.8 90.65 83.55 90.45 82.8 90.1 81.2 89.45 81.2 88.25 81.2 87.4 81.8 86.95 82.4 86.5 83.4 86.5 84.35 86.5 85.25 86.95
M 78.55 84.45
Q 78.8 84.2 79.15 84.2 79.5 84.2 79.75 84.45 80 84.7 80 85.05 80 85.4 79.75 85.65 79.5 85.9 79.15 85.9 78.8 85.9 78.55 85.65 78.3 85.4 78.3 85.05 78.3 84.7 78.55 84.45
M 77.6 86.6
L 79.85 86.6 79.85 92.9 78.4 92.9 78.4 87.85 77.6 87.85 77.6 86.6
M 74.95 90.55
L 74.95 89.95
Q 74.55 89.85 74.4 89.85 72.65 89.85 72.65 91 72.65 91.85 73.6 91.85 74.95 91.85 74.95 90.55
M 47.55 90.55
L 47.55 89.95
Q 47.15 89.85 47 89.85 45.25 89.85 45.25 91 45.25 91.85 46.2 91.85 47.55 91.85 47.55 90.55
M 84.75 75.75
Q 83.5 75.75 83.2 77.1
L 86.3 77.1
Q 86.15 75.75 84.75 75.75
M 103.75 77.1
Q 103.6 75.75 102.2 75.75 100.95 75.75 100.65 77.1
L 103.75 77.1
M 96.2 79.65
Q 96.5 79.55 96.6 79.4
L 96.6 76.1
Q 96.1 75.75 95.6 75.75 94.7 75.75 94.25 76.3 93.75 76.8 93.75 77.8 93.75 79.8 95.65 79.8 95.85 79.8 96.2 79.65
M 63.45 79
Q 63.45 79.85 64.4 79.85 65.75 79.85 65.75 78.55
L 65.75 77.95
Q 65.35 77.85 65.2 77.85 63.45 77.85 63.45 79
M 49.65 78.55
L 49.65 77.95
Q 49.25 77.85 49.1 77.85 47.35 77.85 47.35 79 47.35 79.85 48.3 79.85 49.65 79.85 49.65 78.55
M 38.5 79.8
Q 39.2 79.8 39.6 79.3 40 78.75 40 77.75 40 75.7 38.5 75.7 37.8 75.7 37.4 76.25 37 76.8 37 77.75 37 79.8 38.5 79.8
M 32.6 79.65
Q 32.9 79.55 33 79.4
L 33 76.1
Q 32.5 75.75 32 75.75 31.1 75.75 30.65 76.3 30.15 76.8 30.15 77.8 30.15 79.8 32.05 79.8 32.25 79.8 32.6 79.65
M 96.45 67.3
Q 96.85 66.75 96.85 65.75 96.85 63.7 95.35 63.7 94.65 63.7 94.25 64.25 93.85 64.8 93.85 65.75 93.85 67.8 95.35 67.8 96.05 67.8 96.45 67.3
M 80.5 63.75
Q 79.25 63.75 78.95 65.1
L 82.05 65.1
Q 81.9 63.75 80.5 63.75
M 108.05 65.95
Q 107.65 65.85 107.5 65.85 105.75 65.85 105.75 67 105.75 67.85 106.7 67.85 108.05 67.85 108.05 66.55
L 108.05 65.95
M 52.25 65.95
Q 51.85 65.85 51.7 65.85 49.95 65.85 49.95 67 49.95 67.85 50.9 67.85 52.25 67.85 52.25 66.55
L 52.25 65.95
M 59.35 64.1
Q 58.85 63.75 58.35 63.75 57.45 63.75 57 64.3 56.5 64.8 56.5 65.8 56.5 67.8 58.4 67.8 58.6 67.8 58.95 67.65 59.25 67.55 59.35 67.4
L 59.35 64.1
M 65.95 67.3
Q 66.35 66.75 66.35 65.75 66.35 63.7 64.85 63.7 64.15 63.7 63.75 64.25 63.35 64.8 63.35 65.75 63.35 67.8 64.85 67.8 65.55 67.8 65.95 67.3
M 33 65.1
Q 32.85 63.75 31.45 63.75 30.2 63.75 29.9 65.1
L 33 65.1
M 101.75 53.1
L 104.85 53.1
Q 104.7 51.75 103.3 51.75 102.05 51.75 101.75 53.1
M 50.4 53.1
Q 50.25 51.75 48.85 51.75 47.6 51.75 47.3 53.1
L 50.4 53.1
M 70.6 54.55
L 70.6 53.95
Q 70.2 53.85 70.05 53.85 68.3 53.85 68.3 55 68.3 55.85 69.25 55.85 70.6 55.85 70.6 54.55
M 81.75 55.3
Q 82.15 54.75 82.15 53.75 82.15 51.7 80.65 51.7 79.95 51.7 79.55 52.25 79.15 52.8 79.15 53.75 79.15 55.8 80.65 55.8 81.35 55.8 81.75 55.3
M 97.3 55.25
Q 97.75 54.75 97.75 53.65 97.75 51.75 95.95 51.75 95.3 51.75 94.95 52.1
L 94.95 55.4
Q 95.25 55.8 95.8 55.8 96.85 55.8 97.3 55.25
M 31.25 54.55
L 31.25 53.95
Q 30.85 53.85 30.7 53.85 28.95 53.85 28.95 55 28.95 55.85 29.9 55.85 31.25 55.85 31.25 54.55
M 78.45 43.3
Q 78.85 42.75 78.85 41.75 78.85 39.7 77.35 39.7 76.65 39.7 76.25 40.25 75.85 40.8 75.85 41.75 75.85 43.8 77.35 43.8 78.05 43.8 78.45 43.3
M 52.05 41.95
Q 51.65 41.85 51.5 41.85 49.75 41.85 49.75 43 49.75 43.85 50.7 43.85 52.05 43.85 52.05 42.55
L 52.05 41.95
M 93 39.75
Q 91.75 39.75 91.45 41.1
L 94.55 41.1
Q 94.4 39.75 93 39.75
M 71.75 29.95
Q 71.35 29.85 71.2 29.85 69.45 29.85 69.45 31 69.45 31.85 70.4 31.85 71.75 31.85 71.75 30.55
L 71.75 29.95
M 41.9 43.3
Q 42.3 42.8 42.3 41.75 42.3 40.65 41.9 40.2 41.45 39.75 40.45 39.75 39.9 39.75 39.5 40.15
L 39.5 43.45
Q 39.9 43.8 40.4 43.8 41.45 43.8 41.9 43.3
M 45.15 27.75
Q 43.9 27.75 43.6 29.1
L 46.7 29.1
Q 46.55 27.75 45.15 27.75
M 82.45 28.25
Q 82.05 28.8 82.05 29.75 82.05 31.8 83.55 31.8 84.25 31.8 84.65 31.3 85.05 30.75 85.05 29.75 85.05 27.7 83.55 27.7 82.85 27.7 82.45 28.25
M 105.05 17.75
Q 105.05 15.7 103.55 15.7 102.85 15.7 102.45 16.25 102.05 16.8 102.05 17.75 102.05 19.8 103.55 19.8 104.25 19.8 104.65 19.3 105.05 18.75 105.05 17.75
M 78.25 16.25
Q 77.85 16.8 77.85 17.75 77.85 19.8 79.35 19.8 80.05 19.8 80.45 19.3 80.85 18.75 80.85 17.75 80.85 15.7 79.35 15.7 78.65 15.7 78.25 16.25
M 70.5 17.1
Q 70.35 15.75 68.95 15.75 67.7 15.75 67.4 17.1
L 70.5 17.1
M 53.85 16.3
Q 53.35 16.9 53.35 17.8 53.35 19.8 55.15 19.8 55.8 19.8 56.2 19.5
L 56.2 16.1
Q 55.85 15.75 55.2 15.75 54.35 15.75 53.85 16.3
M 46.85 16.25
Q 46.45 16.8 46.45 17.75 46.45 19.8 47.95 19.8 48.65 19.8 49.05 19.3 49.45 18.75 49.45 17.75 49.45 15.7 47.95 15.7 47.25 15.7 46.85 16.25
M 36.5 16.25
Q 36.1 16.8 36.1 17.75 36.1 19.8 37.6 19.8 38.3 19.8 38.7 19.3 39.1 18.75 39.1 17.75 39.1 15.7 37.6 15.7 36.9 15.7 36.5 16.25 Z"/>
</g>

<g id="Layer0_0_MEMBER_0_FILL">
<path fill="#000000" stroke="none" d="
M 76.9 92.55
Q 76.4 92.25 76.4 91
L 76.4 89.65
Q 76.4 87.8 75.75 87.15 75.05 86.5 73.65 86.5 72.6 86.5 71.85 86.85
L 72.15 88
Q 72.7 87.75 73.55 87.75 74.95 87.75 74.95 88.85 74.6 88.75 74.3 88.75 72.8 88.75 72 89.35 71.2 90 71.2 91.05 71.2 92 71.75 92.5 72.35 93 73.35 93 73.9 93 74.4 92.8 74.9 92.6 75.1 92.25 75.15 92.55 75.4 92.8 75.7 93 76 93 76.3 93 76.5 92.95 76.7 92.85 76.9 92.55
M 74.95 89.95
L 74.95 90.55
Q 74.95 91.85 73.6 91.85 72.65 91.85 72.65 91 72.65 89.85 74.4 89.85 74.55 89.85 74.95 89.95
M 62.3 86.6
L 61.3 86.6 61.3 92.9 62.75 92.9 62.75 88.4
Q 62.9 88.15 63.25 87.95 63.55 87.75 63.85 87.75 64.35 87.75 64.65 88 64.9 88.3 64.9 88.75
L 64.9 92.9 66.4 92.9 66.4 88.35
Q 66.5 88.1 66.8 87.95 67.1 87.75 67.45 87.75 68.55 87.75 68.55 88.95
L 68.55 92.9 70 92.9 70 88.75
Q 70 87.7 69.45 87.1 68.85 86.5 67.8 86.5 67.3 86.5 66.8 86.7 66.35 86.9 66.05 87.2 65.4 86.5 64.15 86.5 63.2 86.5 62.6 87.2
L 62.3 86.6
M 67.2 77.65
Q 67.2 75.8 66.55 75.15 65.85 74.5 64.45 74.5 63.4 74.5 62.65 74.85
L 62.95 76
Q 63.5 75.75 64.35 75.75 65.75 75.75 65.75 76.85 65.4 76.75 65.1 76.75 63.6 76.75 62.8 77.35 62 78 62 79.05 62 80 62.55 80.5 63.15 81 64.15 81 64.7 81 65.2 80.8 65.7 80.6 65.9 80.25 65.95 80.55 66.2 80.8 66.5 81 66.8 81 67.1 81 67.3 80.95 67.5 80.85 67.7 80.55 67.2 80.25 67.2 79
L 67.2 77.65
M 64.4 79.85
Q 63.45 79.85 63.45 79 63.45 77.85 65.2 77.85 65.35 77.85 65.75 77.95
L 65.75 78.55
Q 65.75 79.85 64.4 79.85
M 79.85 86.6
L 77.6 86.6 77.6 87.85 78.4 87.85 78.4 92.9 79.85 92.9 79.85 86.6
M 79.15 84.2
Q 78.8 84.2 78.55 84.45 78.3 84.7 78.3 85.05 78.3 85.4 78.55 85.65 78.8 85.9 79.15 85.9 79.5 85.9 79.75 85.65 80 85.4 80 85.05 80 84.7 79.75 84.45 79.5 84.2 79.15 84.2
M 74.3 77.05
Q 74.3 75.85 73.65 75.2 73 74.5 71.9 74.5 70.7 74.5 70.1 75.2
L 69.85 74.6 68.8 74.6 68.8 80.9 70.25 80.9 70.25 76.35
Q 70.45 76.1 70.85 75.9 71.2 75.75 71.5 75.75 72.2 75.75 72.5 76.1 72.85 76.45 72.85 77.25
L 72.85 80.9 74.3 80.9 74.3 77.05
M 78.8 75.75
Q 79.65 75.75 80.2 76.2
L 80.8 75.1
Q 80 74.5 78.9 74.5 77.3 74.5 76.4 75.4 75.5 76.35 75.5 77.8 75.5 79.3 76.3 80.15 77.15 81 78.6 81 79.25 81 79.75 80.9 80.2 80.8 80.85 80.4
L 80.3 79.25
Q 79.7 79.8 78.9 79.8 77 79.8 77 77.8 77 76.85 77.5 76.3 77.95 75.75 78.8 75.75
M 54.3 88.1
Q 54.65 88.45 54.65 89.25
L 54.65 92.9 56.1 92.9 56.1 89.05
Q 56.1 87.85 55.45 87.2 54.8 86.5 53.7 86.5 52.5 86.5 51.9 87.2
L 51.65 86.6 50.6 86.6 50.6 92.9 52.05 92.9 52.05 88.35
Q 52.25 88.1 52.65 87.9 53 87.75 53.3 87.75 54 87.75 54.3 88.1
M 49 89.65
Q 49 87.8 48.35 87.15 47.65 86.5 46.25 86.5 45.2 86.5 44.45 86.85
L 44.75 88
Q 45.3 87.75 46.15 87.75 47.55 87.75 47.55 88.85 47.2 88.75 46.9 88.75 45.4 88.75 44.6 89.35 43.8 90 43.8 91.05 43.8 92 44.35 92.5 44.95 93 45.95 93 46.5 93 47 92.8 47.5 92.6 47.7 92.25 47.75 92.55 48 92.8 48.3 93 48.6 93 48.9 93 49.1 92.95 49.3 92.85 49.5 92.55 49 92.25 49 91
L 49 89.65
M 47.55 89.95
L 47.55 90.55
Q 47.55 91.85 46.2 91.85 45.25 91.85 45.25 91 45.25 89.85 47 89.85 47.15 89.85 47.55 89.95
M 59.55 86.6
L 57.3 86.6 57.3 87.85 58.1 87.85 58.1 92.9 59.55 92.9 59.55 86.6
M 58.85 84.2
Q 58.5 84.2 58.25 84.45 58 84.7 58 85.05 58 85.4 58.25 85.65 58.5 85.9 58.85 85.9 59.2 85.9 59.45 85.65 59.7 85.4 59.7 85.05 59.7 84.7 59.45 84.45 59.2 84.2 58.85 84.2
M 51.1 79
L 51.1 77.65
Q 51.1 75.8 50.45 75.15 49.75 74.5 48.35 74.5 47.3 74.5 46.55 74.85
L 46.85 76
Q 47.4 75.75 48.25 75.75 49.65 75.75 49.65 76.85 49.3 76.75 49 76.75 47.5 76.75 46.7 77.35 45.9 78 45.9 79.05 45.9 80 46.45 80.5 47.05 81 48.05 81 48.6 81 49.1 80.8 49.6 80.6 49.8 80.25 49.85 80.55 50.1 80.8 50.4 81 50.7 81 51 81 51.2 80.95 51.4 80.85 51.6 80.55 51.1 80.25 51.1 79
M 49.65 77.95
L 49.65 78.55
Q 49.65 79.85 48.3 79.85 47.35 79.85 47.35 79 47.35 77.85 49.1 77.85 49.25 77.85 49.65 77.95
M 56.75 75.4
Q 55.85 76.35 55.85 77.8 55.85 79.3 56.65 80.15 57.5 81 58.95 81 59.6 81 60.1 80.9 60.55 80.8 61.2 80.4
L 60.65 79.25
Q 60.05 79.8 59.25 79.8 57.35 79.8 57.35 77.8 57.35 76.85 57.85 76.3 58.3 75.75 59.15 75.75 60 75.75 60.55 76.2
L 61.15 75.1
Q 60.35 74.5 59.25 74.5 57.65 74.5 56.75 75.4
M 54.4 71.95
L 52.95 72.3 52.95 79.65
Q 52.95 81 53.95 81 54.75 81 55.1 80.35 54.4 80.15 54.4 79
L 54.4 71.95
M 49.15 62.85
L 49.45 64
Q 50 63.75 50.85 63.75 52.25 63.75 52.25 64.85 51.9 64.75 51.6 64.75 50.1 64.75 49.3 65.35 48.5 66 48.5 67.05 48.5 68 49.05 68.5 49.65 69 50.65 69 51.2 69 51.7 68.8 52.2 68.6 52.4 68.25 52.45 68.55 52.7 68.8 53 69 53.3 69 53.6 69 53.8 68.95 54 68.85 54.2 68.55 53.7 68.25 53.7 67
L 53.7 65.65
Q 53.7 63.8 53.05 63.15 52.35 62.5 50.95 62.5 49.9 62.5 49.15 62.85
M 51.7 65.85
Q 51.85 65.85 52.25 65.95
L 52.25 66.55
Q 52.25 67.85 50.9 67.85 49.95 67.85 49.95 67 49.95 65.85 51.7 65.85
M 43.3 59.95
L 41.8 60.3 41.8 68.9 43.3 68.9 43.3 64.4
Q 43.45 64.15 43.8 63.95 44.2 63.75 44.55 63.75 45.15 63.75 45.5 64.1 45.85 64.45 45.85 65.05
L 45.85 68.9 47.3 68.9 47.3 65.05
Q 47.3 63.8 46.65 63.15 46 62.5 44.85 62.5 43.85 62.5 43.3 63
L 43.3 59.95
M 51.75 54.2
Q 51.85 53.65 51.85 53.4 51.85 52.15 51.05 51.3 50.2 50.5 48.85 50.5 47.55 50.5 46.65 51.45 45.75 52.35 45.75 53.85 45.75 55.35 46.55 56.2 47.4 57 48.85 57 50.35 57 51.15 56.4
L 50.6 55.25
Q 50.05 55.8 49.05 55.8 48.25 55.8 47.8 55.4 47.3 54.95 47.25 54.2
L 51.75 54.2
M 48.85 51.75
Q 50.25 51.75 50.4 53.1
L 47.3 53.1
Q 47.6 51.75 48.85 51.75
M 55.75 51.75
Q 56.45 51.75 56.75 52.1 57.1 52.45 57.1 53.25
L 57.1 56.9 58.55 56.9 58.55 53.05
Q 58.55 51.85 57.9 51.2 57.25 50.5 56.15 50.5 54.95 50.5 54.35 51.2
L 54.1 50.6 53.05 50.6 53.05 56.9 54.5 56.9 54.5 52.35
Q 54.7 52.1 55.1 51.9 55.45 51.75 55.75 51.75
M 60.8 68.9
L 60.8 59.95 59.35 60.3 59.35 62.8
Q 58.75 62.5 58.05 62.5 56.75 62.5 55.85 63.45 55 64.4 55 65.85 55 67.35 55.75 68.2 56.5 69 57.8 69 58.3 69 58.7 68.85 59.15 68.7 59.35 68.5
L 59.35 68.9 60.8 68.9
M 58.35 63.75
Q 58.85 63.75 59.35 64.1
L 59.35 67.4
Q 59.25 67.55 58.95 67.65 58.6 67.8 58.4 67.8 56.5 67.8 56.5 65.8 56.5 64.8 57 64.3 57.45 63.75 58.35 63.75
M 67.85 65.75
Q 67.85 64.25 67.05 63.35 66.3 62.5 64.85 62.5 63.5 62.5 62.65 63.4 61.85 64.3 61.85 65.75 61.85 67.25 62.65 68.15 63.4 69 64.85 69 66.25 69 67.05 68.15 67.85 67.25 67.85 65.75
M 66.35 65.75
Q 66.35 66.75 65.95 67.3 65.55 67.8 64.85 67.8 63.35 67.8 63.35 65.75 63.35 64.8 63.75 64.25 64.15 63.7 64.85 63.7 66.35 63.7 66.35 65.75
M 70.4 64.7
Q 70.15 64.5 70.15 64.3 70.15 63.65 70.9 63.65 71.8 63.65 72.25 64.1
L 72.7 62.95
Q 71.8 62.5 70.85 62.5 69.85 62.5 69.25 62.95 68.65 63.4 68.65 64.25 68.65 65.45 70.25 66.1 71 66.45 71.25 66.65 71.5 66.9 71.5 67.25 71.5 67.85 70.65 67.85 69.85 67.85 69.2 67.35
L 68.65 68.5
Q 69.25 68.8 69.65 68.9 70 69 70.65 69 71.75 69 72.4 68.5 73.05 68 73.05 67.15 73.05 66.5 72.65 66 72.3 65.55 71.5 65.25 70.65 64.9 70.4 64.7
M 72.05 53.65
Q 72.05 51.8 71.4 51.15 70.7 50.5 69.3 50.5 68.25 50.5 67.5 50.85
L 67.8 52
Q 68.35 51.75 69.2 51.75 70.6 51.75 70.6 52.85 70.25 52.75 69.95 52.75 68.45 52.75 67.65 53.35 66.85 54 66.85 55.05 66.85 56 67.4 56.5 68 57 69 57 69.55 57 70.05 56.8 70.55 56.6 70.75 56.25 70.8 56.55 71.05 56.8 71.35 57 71.65 57 71.95 57 72.15 56.95 72.35 56.85 72.55 56.55 72.05 56.25 72.05 55
L 72.05 53.65
M 70.6 53.95
L 70.6 54.55
Q 70.6 55.85 69.25 55.85 68.3 55.85 68.3 55 68.3 53.85 70.05 53.85 70.2 53.85 70.6 53.95
M 76.6 54.1
L 76.6 52.75 73.5 52.75 73.5 54.1 76.6 54.1
M 35.5 77.75
Q 35.5 79.25 36.3 80.15 37.05 81 38.5 81 39.9 81 40.7 80.15 41.5 79.25 41.5 77.75 41.5 76.25 40.7 75.35 39.95 74.5 38.5 74.5 37.15 74.5 36.3 75.4 35.5 76.3 35.5 77.75
M 39.6 79.3
Q 39.2 79.8 38.5 79.8 37 79.8 37 77.75 37 76.8 37.4 76.25 37.8 75.7 38.5 75.7 40 75.7 40 77.75 40 78.75 39.6 79.3
M 34.45 71.95
L 33 72.3 33 74.8
Q 32.4 74.5 31.7 74.5 30.4 74.5 29.5 75.45 28.65 76.4 28.65 77.85 28.65 79.35 29.4 80.2 30.15 81 31.45 81 31.95 81 32.35 80.85 32.8 80.7 33 80.5
L 33 80.9 34.45 80.9 34.45 71.95
M 33 79.4
Q 32.9 79.55 32.6 79.65 32.25 79.8 32.05 79.8 30.15 79.8 30.15 77.8 30.15 76.8 30.65 76.3 31.1 75.75 32 75.75 32.5 75.75 33 76.1
L 33 79.4
M 40.05 67.25
Q 39.45 67.8 38.65 67.8 36.75 67.8 36.75 65.8 36.75 64.85 37.25 64.3 37.7 63.75 38.55 63.75 39.4 63.75 39.95 64.2
L 40.55 63.1
Q 39.75 62.5 38.65 62.5 37.05 62.5 36.15 63.4 35.25 64.35 35.25 65.8 35.25 67.3 36.05 68.15 36.9 69 38.35 69 39 69 39.5 68.9 39.95 68.8 40.6 68.4
L 40.05 67.25
M 29.25 63.45
Q 28.35 64.35 28.35 65.85 28.35 67.35 29.15 68.2 30 69 31.45 69 32.95 69 33.75 68.4
L 33.2 67.25
Q 32.65 67.8 31.65 67.8 30.85 67.8 30.4 67.4 29.9 66.95 29.85 66.2
L 34.35 66.2
Q 34.45 65.65 34.45 65.4 34.45 64.15 33.65 63.3 32.8 62.5 31.45 62.5 30.15 62.5 29.25 63.45
M 31.45 63.75
Q 32.85 63.75 33 65.1
L 29.9 65.1
Q 30.2 63.75 31.45 63.75
M 27.05 61.25
Q 27.3 61.25 27.8 61.4
L 28.2 60.3
Q 27.45 60.05 26.95 60.05 25.95 60.05 25.3 60.75 24.65 61.45 24.65 62.6
L 23.7 62.6 23.7 63.85 24.6 63.85 24.6 68.9 26.1 68.9 26.1 63.85 27.35 63.85 27.35 62.6 26.05 62.6
Q 26.05 62.55 26.05 62.45 26.05 61.95 26.35 61.6 26.65 61.25 27.05 61.25
M 26.3 52.75
Q 26.3 51.7 25.75 51.1 25.15 50.5 24.1 50.5 23.6 50.5 23.1 50.7 22.65 50.9 22.35 51.2 21.7 50.5 20.45 50.5 19.5 50.5 18.9 51.2
L 18.6 50.6 17.6 50.6 17.6 56.9 19.05 56.9 19.05 52.4
Q 19.2 52.15 19.55 51.95 19.85 51.75 20.15 51.75 20.65 51.75 20.95 52 21.2 52.3 21.2 52.75
L 21.2 56.9 22.7 56.9 22.7 52.35
Q 22.8 52.1 23.1 51.95 23.4 51.75 23.75 51.75 24.85 51.75 24.85 52.95
L 24.85 56.9 26.3 56.9 26.3 52.75
M 31.25 52.85
Q 30.9 52.75 30.6 52.75 29.1 52.75 28.3 53.35 27.5 54 27.5 55.05 27.5 56 28.05 56.5 28.65 57 29.65 57 30.2 57 30.7 56.8 31.2 56.6 31.4 56.25 31.45 56.55 31.7 56.8 32 57 32.3 57 32.6 57 32.8 56.95 33 56.85 33.2 56.55 32.7 56.25 32.7 55
L 32.7 53.65
Q 32.7 51.8 32.05 51.15 31.35 50.5 29.95 50.5 28.9 50.5 28.15 50.85
L 28.45 52
Q 29 51.75 29.85 51.75 31.25 51.75 31.25 52.85
M 31.25 53.95
L 31.25 54.55
Q 31.25 55.85 29.9 55.85 28.95 55.85 28.95 55 28.95 53.85 30.7 53.85 30.85 53.85 31.25 53.95
M 35.75 52.35
Q 35.95 52.1 36.35 51.9 36.7 51.75 37 51.75 37.7 51.75 38 52.1 38.35 52.45 38.35 53.25
L 38.35 56.9 39.8 56.9 39.8 53.05
Q 39.8 51.85 39.15 51.2 38.5 50.5 37.4 50.5 36.2 50.5 35.6 51.2
L 35.35 50.6 34.3 50.6 34.3 56.9 35.75 56.9 35.75 52.35
M 39.8 15.35
Q 39.05 14.5 37.6 14.5 36.25 14.5 35.4 15.4 34.6 16.3 34.6 17.75 34.6 19.25 35.4 20.15 36.15 21 37.6 21 39 21 39.8 20.15 40.6 19.25 40.6 17.75 40.6 16.25 39.8 15.35
M 36.1 17.75
Q 36.1 16.8 36.5 16.25 36.9 15.7 37.6 15.7 39.1 15.7 39.1 17.75 39.1 18.75 38.7 19.3 38.3 19.8 37.6 19.8 36.1 19.8 36.1 17.75
M 28.45 13.45
Q 27.3 14.75 27.3 16.65 27.3 18.7 28.3 19.85 29.3 21.05 31.1 21.05 32.9 21.05 33.85 20.05
L 33.15 18.85
Q 32.45 19.7 31.25 19.7 30.15 19.7 29.55 18.9 28.9 18.1 28.9 16.7 28.9 15.3 29.6 14.45 30.25 13.5 31.35 13.5 32.5 13.5 33 14.05
L 33.6 12.75
Q 32.75 12.15 31.25 12.15 29.55 12.15 28.45 13.45
M 61.65 47.95
L 60.15 48.3 60.15 56.9 61.65 56.9 61.65 52.4
Q 61.8 52.15 62.15 51.95 62.55 51.75 62.9 51.75 63.5 51.75 63.85 52.1 64.2 52.45 64.2 53.05
L 64.2 56.9 65.65 56.9 65.65 53.05
Q 65.65 51.8 65 51.15 64.35 50.5 63.2 50.5 62.2 50.5 61.65 51
L 61.65 47.95
M 80.35 41.75
Q 80.35 40.25 79.55 39.35 78.8 38.5 77.35 38.5 76 38.5 75.15 39.4 74.35 40.3 74.35 41.75 74.35 43.25 75.15 44.15 75.9 45 77.35 45 78.75 45 79.55 44.15 80.35 43.25 80.35 41.75
M 78.85 41.75
Q 78.85 42.75 78.45 43.3 78.05 43.8 77.35 43.8 75.85 43.8 75.85 41.75 75.85 40.8 76.25 40.25 76.65 39.7 77.35 39.7 78.85 39.7 78.85 41.75
M 64.6 38.6
L 64.6 39.85 65.4 39.85 65.4 44.9 66.85 44.9 66.85 38.6 64.6 38.6
M 69.1 39.4
Q 68.2 40.35 68.2 41.8 68.2 43.3 69 44.15 69.85 45 71.3 45 71.95 45 72.45 44.9 72.9 44.8 73.55 44.4
L 73 43.25
Q 72.4 43.8 71.6 43.8 69.7 43.8 69.7 41.8 69.7 40.85 70.2 40.3 70.65 39.75 71.5 39.75 72.35 39.75 72.9 40.2
L 73.5 39.1
Q 72.7 38.5 71.6 38.5 70 38.5 69.1 39.4
M 65.55 36.45
Q 65.3 36.7 65.3 37.05 65.3 37.4 65.55 37.65 65.8 37.9 66.15 37.9 66.5 37.9 66.75 37.65 67 37.4 67 37.05 67 36.7 66.75 36.45 66.5 36.2 66.15 36.2 65.8 36.2 65.55 36.45
M 66.45 28.1
L 66.9 26.95
Q 66 26.5 65.05 26.5 64.05 26.5 63.45 26.95 62.85 27.4 62.85 28.25 62.85 29.45 64.45 30.1 65.2 30.45 65.45 30.65 65.7 30.9 65.7 31.25 65.7 31.85 64.85 31.85 64.05 31.85 63.4 31.35
L 62.85 32.5
Q 63.45 32.8 63.85 32.9 64.2 33 64.85 33 65.95 33 66.6 32.5 67.25 32 67.25 31.15 67.25 30.5 66.85 30 66.5 29.55 65.7 29.25 64.85 28.9 64.6 28.7 64.35 28.5 64.35 28.3 64.35 27.65 65.1 27.65 66 27.65 66.45 28.1
M 73.2 29.65
Q 73.2 27.8 72.55 27.15 71.85 26.5 70.45 26.5 69.4 26.5 68.65 26.85
L 68.95 28
Q 69.5 27.75 70.35 27.75 71.75 27.75 71.75 28.85 71.4 28.75 71.1 28.75 69.6 28.75 68.8 29.35 68 30 68 31.05 68 32 68.55 32.5 69.15 33 70.15 33 70.7 33 71.2 32.8 71.7 32.6 71.9 32.25 71.95 32.55 72.2 32.8 72.5 33 72.8 33 73.1 33 73.3 32.95 73.5 32.85 73.7 32.55 73.2 32.25 73.2 31
L 73.2 29.65
M 71.2 29.85
Q 71.35 29.85 71.75 29.95
L 71.75 30.55
Q 71.75 31.85 70.4 31.85 69.45 31.85 69.45 31 69.45 29.85 71.2 29.85
M 79.7 27.1
Q 78.9 26.5 77.8 26.5 76.2 26.5 75.3 27.4 74.4 28.35 74.4 29.8 74.4 31.3 75.2 32.15 76.05 33 77.5 33 78.15 33 78.65 32.9 79.1 32.8 79.75 32.4
L 79.2 31.25
Q 78.6 31.8 77.8 31.8 75.9 31.8 75.9 29.8 75.9 28.85 76.4 28.3 76.85 27.75 77.7 27.75 78.55 27.75 79.1 28.2
L 79.7 27.1
M 59.75 39.8
L 60.45 39.8 60.45 43
Q 60.45 43.95 60.95 44.5 61.45 45 62.4 45 63.35 45 63.85 44.85
L 63.85 43.5
Q 63.4 43.8 62.9 43.8 62.35 43.8 62.15 43.5 61.95 43.2 61.95 42.55
L 61.95 39.8 63.65 39.8 63.65 38.6 61.95 38.6 61.95 36.8 60.45 37.35 60.45 38.6 59.75 38.6 59.75 39.8
M 58.3 40.1
L 58.75 38.95
Q 57.85 38.5 56.9 38.5 55.9 38.5 55.3 38.95 54.7 39.4 54.7 40.25 54.7 41.45 56.3 42.1 57.05 42.45 57.3 42.65 57.55 42.9 57.55 43.25 57.55 43.85 56.7 43.85 55.9 43.85 55.25 43.35
L 54.7 44.5
Q 55.3 44.8 55.7 44.9 56.05 45 56.7 45 57.8 45 58.45 44.5 59.1 44 59.1 43.15 59.1 42.5 58.7 42 58.35 41.55 57.55 41.25 56.7 40.9 56.45 40.7 56.2 40.5 56.2 40.3 56.2 39.65 56.95 39.65 57.85 39.65 58.3 40.1
M 43.1 48.8
L 41.6 49.35 41.6 50.6 40.9 50.6 40.9 51.8 41.6 51.8 41.6 55
Q 41.6 55.95 42.1 56.5 42.6 57 43.55 57 44.5 57 45 56.85
L 45 55.5
Q 44.55 55.8 44.05 55.8 43.5 55.8 43.3 55.5 43.1 55.2 43.1 54.55
L 43.1 51.8 44.8 51.8 44.8 50.6 43.1 50.6 43.1 48.8
M 43.85 41.8
Q 43.85 38.5 40.85 38.5 40.05 38.5 39.5 39.05
L 39.5 38.6 38 38.6 38 47.35 39.5 47.35 39.5 44.75
Q 40.05 45 40.75 45 42.2 45 43 44.2 43.85 43.35 43.85 41.8
M 41.9 40.2
Q 42.3 40.65 42.3 41.75 42.3 42.8 41.9 43.3 41.45 43.8 40.4 43.8 39.9 43.8 39.5 43.45
L 39.5 40.15
Q 39.9 39.75 40.45 39.75 41.45 39.75 41.9 40.2
M 48.95 38.85
L 49.25 40
Q 49.8 39.75 50.65 39.75 52.05 39.75 52.05 40.85 51.7 40.75 51.4 40.75 49.9 40.75 49.1 41.35 48.3 42 48.3 43.05 48.3 44 48.85 44.5 49.45 45 50.45 45 51 45 51.5 44.8 52 44.6 52.2 44.25 52.25 44.55 52.5 44.8 52.8 45 53.1 45 53.4 45 53.6 44.95 53.8 44.85 54 44.55 53.5 44.25 53.5 43
L 53.5 41.65
Q 53.5 39.8 52.85 39.15 52.15 38.5 50.75 38.5 49.7 38.5 48.95 38.85
M 51.5 41.85
Q 51.65 41.85 52.05 41.95
L 52.05 42.55
Q 52.05 43.85 50.7 43.85 49.75 43.85 49.75 43 49.75 41.85 51.5 41.85
M 46.85 35.95
L 45.4 36.3 45.4 43.65
Q 45.4 45 46.4 45 47.2 45 47.55 44.35 46.85 44.15 46.85 43
L 46.85 35.95
M 48.05 30.2
Q 48.15 29.65 48.15 29.4 48.15 28.15 47.35 27.3 46.5 26.5 45.15 26.5 43.85 26.5 42.95 27.45 42.05 28.35 42.05 29.85 42.05 31.35 42.85 32.2 43.7 33 45.15 33 46.65 33 47.45 32.4
L 46.9 31.25
Q 46.35 31.8 45.35 31.8 44.55 31.8 44.1 31.4 43.6 30.95 43.55 30.2
L 48.05 30.2
M 43.6 29.1
Q 43.9 27.75 45.15 27.75 46.55 27.75 46.7 29.1
L 43.6 29.1
M 52.5 36.05
L 51.05 36.05 50.05 37.8 51.2 37.8 52.5 36.05
M 57.5 27.1
Q 56.9 26.5 55.85 26.5 55.35 26.5 54.85 26.7 54.4 26.9 54.1 27.2 53.45 26.5 52.2 26.5 51.25 26.5 50.65 27.2
L 50.35 26.6 49.35 26.6 49.35 32.9 50.8 32.9 50.8 28.4
Q 50.95 28.15 51.3 27.95 51.6 27.75 51.9 27.75 52.4 27.75 52.7 28 52.95 28.3 52.95 28.75
L 52.95 32.9 54.45 32.9 54.45 28.35
Q 54.55 28.1 54.85 27.95 55.15 27.75 55.5 27.75 56.6 27.75 56.6 28.95
L 56.6 32.9 58.05 32.9 58.05 28.75
Q 58.05 27.7 57.5 27.1
M 56.75 14.6
L 56.5 15
Q 55.85 14.5 55 14.5 53.6 14.5 52.75 15.4 51.85 16.3 51.85 17.8 51.85 19.35 52.6 20.2 53.4 21 54.75 21 55.7 21 56.2 20.7
L 56.2 23.35 57.7 23.35 57.7 14.6 56.75 14.6
M 53.35 17.8
Q 53.35 16.9 53.85 16.3 54.35 15.75 55.2 15.75 55.85 15.75 56.2 16.1
L 56.2 19.5
Q 55.8 19.8 55.15 19.8 53.35 19.8 53.35 17.8
M 47.95 14.5
Q 46.6 14.5 45.75 15.4 44.95 16.3 44.95 17.75 44.95 19.25 45.75 20.15 46.5 21 47.95 21 49.35 21 50.15 20.15 50.95 19.25 50.95 17.75 50.95 16.25 50.15 15.35 49.4 14.5 47.95 14.5
M 46.45 17.75
Q 46.45 16.8 46.85 16.25 47.25 15.7 47.95 15.7 49.45 15.7 49.45 17.75 49.45 18.75 49.05 19.3 48.65 19.8 47.95 19.8 46.45 19.8 46.45 17.75
M 43.5 11.95
L 42.05 12.3 42.05 19.65
Q 42.05 21 43.05 21 43.85 21 44.2 20.35 43.5 20.15 43.5 19
L 43.5 11.95
M 64.65 14.6
L 63.2 14.6 63.2 18.95
Q 63.05 19.3 62.6 19.55 62.2 19.8 61.7 19.8 60.6 19.8 60.6 18.6
L 60.6 14.6 59.15 14.6 59.15 18.7
Q 59.15 21 61.35 21 61.8 21 62.35 20.85 62.85 20.65 63.2 20.4
L 63.2 20.9 64.65 20.9 64.65 14.6
M 68.95 14.5
Q 67.65 14.5 66.75 15.45 65.85 16.35 65.85 17.85 65.85 19.35 66.65 20.2 67.5 21 68.95 21 70.45 21 71.25 20.4
L 70.7 19.25
Q 70.15 19.8 69.15 19.8 68.35 19.8 67.9 19.4 67.4 18.95 67.35 18.2
L 71.85 18.2
Q 71.95 17.65 71.95 17.4 71.95 16.15 71.15 15.3 70.3 14.5 68.95 14.5
M 68.95 15.75
Q 70.35 15.75 70.5 17.1
L 67.4 17.1
Q 67.7 15.75 68.95 15.75
M 84.8 88.1
L 85.25 86.95
Q 84.35 86.5 83.4 86.5 82.4 86.5 81.8 86.95 81.2 87.4 81.2 88.25 81.2 89.45 82.8 90.1 83.55 90.45 83.8 90.65 84.05 90.9 84.05 91.25 84.05 91.85 83.2 91.85 82.4 91.85 81.75 91.35
L 81.2 92.5
Q 81.8 92.8 82.2 92.9 82.55 93 83.2 93 84.3 93 84.95 92.5 85.6 92 85.6 91.15 85.6 90.5 85.2 90 84.85 89.55 84.05 89.25 83.2 88.9 82.95 88.7 82.7 88.5 82.7 88.3 82.7 87.65 83.45 87.65 84.35 87.65 84.8 88.1
M 89.1 92.15
Q 89.1 91.7 88.75 91.4 88.45 91.1 88 91.1 87.6 91.1 87.3 91.4 86.95 91.7 86.95 92.15 86.95 92.55 87.3 92.9 87.6 93.2 88 93.2 88.45 93.2 88.75 92.9 89.1 92.55 89.1 92.15
M 87.65 78.2
Q 87.75 77.65 87.75 77.4 87.75 76.15 86.95 75.3 86.1 74.5 84.75 74.5 83.45 74.5 82.55 75.45 81.65 76.35 81.65 77.85 81.65 79.35 82.45 80.2 83.3 81 84.75 81 86.25 81 87.05 80.4
L 86.5 79.25
Q 85.95 79.8 84.95 79.8 84.15 79.8 83.7 79.4 83.2 78.95 83.15 78.2
L 87.65 78.2
M 83.2 77.1
Q 83.5 75.75 84.75 75.75 86.15 75.75 86.3 77.1
L 83.2 77.1
M 101.15 79.4
Q 100.65 78.95 100.6 78.2
L 105.1 78.2
Q 105.2 77.65 105.2 77.4 105.2 76.15 104.4 75.3 103.55 74.5 102.2 74.5 100.9 74.5 100 75.45 99.1 76.35 99.1 77.85 99.1 79.35 99.9 80.2 100.75 81 102.2 81 103.7 81 104.5 80.4
L 103.95 79.25
Q 103.4 79.8 102.4 79.8 101.6 79.8 101.15 79.4
M 102.2 75.75
Q 103.6 75.75 103.75 77.1
L 100.65 77.1
Q 100.95 75.75 102.2 75.75
M 98.05 71.95
L 96.6 72.3 96.6 74.8
Q 96 74.5 95.3 74.5 94 74.5 93.1 75.45 92.25 76.4 92.25 77.85 92.25 79.35 93 80.2 93.75 81 95.05 81 95.55 81 95.95 80.85 96.4 80.7 96.6 80.5
L 96.6 80.9 98.05 80.9 98.05 71.95
M 96.6 79.4
Q 96.5 79.55 96.2 79.65 95.85 79.8 95.65 79.8 93.75 79.8 93.75 77.8 93.75 76.8 94.25 76.3 94.7 75.75 95.6 75.75 96.1 75.75 96.6 76.1
L 96.6 79.4
M 98.35 65.75
Q 98.35 64.25 97.55 63.35 96.8 62.5 95.35 62.5 94 62.5 93.15 63.4 92.35 64.3 92.35 65.75 92.35 67.25 93.15 68.15 93.9 69 95.35 69 96.75 69 97.55 68.15 98.35 67.25 98.35 65.75
M 96.85 65.75
Q 96.85 66.75 96.45 67.3 96.05 67.8 95.35 67.8 93.85 67.8 93.85 65.75 93.85 64.8 94.25 64.25 94.65 63.7 95.35 63.7 96.85 63.7 96.85 65.75
M 83.5 65.4
Q 83.5 64.15 82.7 63.3 81.85 62.5 80.5 62.5 79.2 62.5 78.3 63.45 77.4 64.35 77.4 65.85 77.4 67.35 78.2 68.2 79.05 69 80.5 69 82 69 82.8 68.4
L 82.25 67.25
Q 81.7 67.8 80.7 67.8 79.9 67.8 79.45 67.4 78.95 66.95 78.9 66.2
L 83.4 66.2
Q 83.5 65.65 83.5 65.4
M 78.95 65.1
Q 79.25 63.75 80.5 63.75 81.9 63.75 82.05 65.1
L 78.95 65.1
M 83.65 53.75
Q 83.65 52.25 82.85 51.35 82.1 50.5 80.65 50.5 79.3 50.5 78.45 51.4 77.65 52.3 77.65 53.75 77.65 55.25 78.45 56.15 79.2 57 80.65 57 82.05 57 82.85 56.15 83.65 55.25 83.65 53.75
M 82.15 53.75
Q 82.15 54.75 81.75 55.3 81.35 55.8 80.65 55.8 79.15 55.8 79.15 53.75 79.15 52.8 79.55 52.25 79.95 51.7 80.65 51.7 82.15 51.7 82.15 53.75
M 88.5 50.95
Q 87.6 50.5 86.65 50.5 85.65 50.5 85.05 50.95 84.45 51.4 84.45 52.25 84.45 53.45 86.05 54.1 86.8 54.45 87.05 54.65 87.3 54.9 87.3 55.25 87.3 55.85 86.45 55.85 85.65 55.85 85 55.35
L 84.45 56.5
Q 85.05 56.8 85.45 56.9 85.8 57 86.45 57 87.55 57 88.2 56.5 88.85 56 88.85 55.15 88.85 54.5 88.45 54 88.1 53.55 87.3 53.25 86.45 52.9 86.2 52.7 85.95 52.5 85.95 52.3 85.95 51.65 86.7 51.65 87.6 51.65 88.05 52.1
L 88.5 50.95
M 91.8 61.4
L 92.2 60.3
Q 91.45 60.05 90.95 60.05 89.95 60.05 89.3 60.75 88.65 61.45 88.65 62.6
L 87.7 62.6 87.7 63.85 88.6 63.85 88.6 68.9 90.1 68.9 90.1 63.85 91.35 63.85 91.35 62.6 90.05 62.6
Q 90.05 62.55 90.05 62.45 90.05 61.95 90.35 61.6 90.65 61.25 91.05 61.25 91.3 61.25 91.8 61.4
M 103.15 64
L 103.8 62.75
Q 103.4 62.5 102.65 62.5 101.6 62.5 101 63.2
L 101 62.6 99.55 62.6 99.55 68.9 101 68.9 101 65.35
Q 101 64.65 101.4 64.2 101.8 63.75 102.3 63.75 102.8 63.75 103.15 64
M 106.65 63.75
Q 108.05 63.75 108.05 64.85 107.7 64.75 107.4 64.75 105.9 64.75 105.1 65.35 104.3 66 104.3 67.05 104.3 68 104.85 68.5 105.45 69 106.45 69 107 69 107.5 68.8 108 68.6 108.2 68.25 108.25 68.55 108.5 68.8 108.8 69 109.1 69 109.4 69 109.6 68.95 109.8 68.85 110 68.55 109.5 68.25 109.5 67
L 109.5 65.65
Q 109.5 63.8 108.85 63.15 108.15 62.5 106.75 62.5 105.7 62.5 104.95 62.85
L 105.25 64
Q 105.8 63.75 106.65 63.75
M 107.5 65.85
Q 107.65 65.85 108.05 65.95
L 108.05 66.55
Q 108.05 67.85 106.7 67.85 105.75 67.85 105.75 67 105.75 65.85 107.5 65.85
M 101.7 54.2
L 106.2 54.2
Q 106.3 53.65 106.3 53.4 106.3 52.15 105.5 51.3 104.65 50.5 103.3 50.5 102 50.5 101.1 51.45 100.2 52.35 100.2 53.85 100.2 55.35 101 56.2 101.85 57 103.3 57 104.8 57 105.6 56.4
L 105.05 55.25
Q 104.5 55.8 103.5 55.8 102.7 55.8 102.25 55.4 101.75 54.95 101.7 54.2
M 104.85 53.1
L 101.75 53.1
Q 102.05 51.75 103.3 51.75 104.7 51.75 104.85 53.1
M 116.2 52.75
Q 116.2 51.7 115.65 51.1 115.05 50.5 114 50.5 113.5 50.5 113 50.7 112.55 50.9 112.25 51.2 111.6 50.5 110.35 50.5 109.4 50.5 108.8 51.2
L 108.5 50.6 107.5 50.6 107.5 56.9 108.95 56.9 108.95 52.4
Q 109.1 52.15 109.45 51.95 109.75 51.75 110.05 51.75 110.55 51.75 110.85 52 111.1 52.3 111.1 52.75
L 111.1 56.9 112.6 56.9 112.6 52.35
Q 112.7 52.1 113 51.95 113.3 51.75 113.65 51.75 114.75 51.75 114.75 52.95
L 114.75 56.9 116.2 56.9 116.2 52.75
M 94.95 47.95
L 93.45 48.3 93.45 57 94.3 57 94.65 56.55
Q 95.25 57 96.15 57 97.6 57 98.45 56.1 99.3 55.2 99.3 53.6 99.3 52.25 98.45 51.4 97.6 50.5 96.2 50.5 95.5 50.5 94.95 50.85
L 94.95 47.95
M 97.75 53.65
Q 97.75 54.75 97.3 55.25 96.85 55.8 95.8 55.8 95.25 55.8 94.95 55.4
L 94.95 52.1
Q 95.3 51.75 95.95 51.75 97.75 51.75 97.75 53.65
M 84.75 40.1
L 85.2 38.95
Q 84.3 38.5 83.35 38.5 82.35 38.5 81.75 38.95 81.15 39.4 81.15 40.25 81.15 41.45 82.75 42.1 83.5 42.45 83.75 42.65 84 42.9 84 43.25 84 43.85 83.15 43.85 82.35 43.85 81.7 43.35
L 81.15 44.5
Q 81.75 44.8 82.15 44.9 82.5 45 83.15 45 84.25 45 84.9 44.5 85.55 44 85.55 43.15 85.55 42.5 85.15 42 84.8 41.55 84 41.25 83.15 40.9 82.9 40.7 82.65 40.5 82.65 40.3 82.65 39.65 83.4 39.65 84.3 39.65 84.75 40.1
M 90.8 39.45
Q 89.9 40.35 89.9 41.85 89.9 43.35 90.7 44.2 91.55 45 93 45 94.5 45 95.3 44.4
L 94.75 43.25
Q 94.2 43.8 93.2 43.8 92.4 43.8 91.95 43.4 91.45 42.95 91.4 42.2
L 95.9 42.2
Q 96 41.65 96 41.4 96 40.15 95.2 39.3 94.35 38.5 93 38.5 91.7 38.5 90.8 39.45
M 91.45 41.1
Q 91.75 39.75 93 39.75 94.4 39.75 94.55 41.1
L 91.45 41.1
M 83.55 26.5
Q 82.2 26.5 81.35 27.4 80.55 28.3 80.55 29.75 80.55 31.25 81.35 32.15 82.1 33 83.55 33 84.95 33 85.75 32.15 86.55 31.25 86.55 29.75 86.55 28.25 85.75 27.35 85 26.5 83.55 26.5
M 82.05 29.75
Q 82.05 28.8 82.45 28.25 82.85 27.7 83.55 27.7 85.05 27.7 85.05 29.75 85.05 30.75 84.65 31.3 84.25 31.8 83.55 31.8 82.05 31.8 82.05 29.75
M 91.75 31.15
Q 91.75 30.5 91.35 30 91 29.55 90.2 29.25 89.35 28.9 89.1 28.7 88.85 28.5 88.85 28.3 88.85 27.65 89.6 27.65 90.5 27.65 90.95 28.1
L 91.4 26.95
Q 90.5 26.5 89.55 26.5 88.55 26.5 87.95 26.95 87.35 27.4 87.35 28.25 87.35 29.45 88.95 30.1 89.7 30.45 89.95 30.65 90.2 30.9 90.2 31.25 90.2 31.85 89.35 31.85 88.55 31.85 87.9 31.35
L 87.35 32.5
Q 87.95 32.8 88.35 32.9 88.7 33 89.35 33 90.45 33 91.1 32.5 91.75 32 91.75 31.15
M 92.7 13.05
Q 92.7 12.7 92.45 12.45 92.2 12.2 91.85 12.2 91.5 12.2 91.25 12.45 91 12.7 91 13.05 91 13.4 91.25 13.65 91.5 13.9 91.85 13.9 92.2 13.9 92.45 13.65 92.7 13.4 92.7 13.05
M 97.45 17.7
L 99.9 14.6 98.2 14.6 96.75 16.55 95.4 14.6 93.7 14.6 95.95 17.7 93.55 20.9 95.25 20.9 96.7 18.85 98.3 20.9 100.1 20.9 97.45 17.7
M 81.55 20.15
Q 82.35 19.25 82.35 17.75 82.35 16.25 81.55 15.35 80.8 14.5 79.35 14.5 78 14.5 77.15 15.4 76.35 16.3 76.35 17.75 76.35 19.25 77.15 20.15 77.9 21 79.35 21 80.75 21 81.55 20.15
M 77.85 17.75
Q 77.85 16.8 78.25 16.25 78.65 15.7 79.35 15.7 80.85 15.7 80.85 17.75 80.85 18.75 80.45 19.3 80.05 19.8 79.35 19.8 77.85 19.8 77.85 17.75
M 90.3 14.6
L 90.3 15.85 91.1 15.85 91.1 20.9 92.55 20.9 92.55 14.6 90.3 14.6
M 88.85 11.95
L 87.4 12.3 87.4 19.65
Q 87.4 21 88.4 21 89.2 21 89.55 20.35 88.85 20.15 88.85 19
L 88.85 11.95
M 105.75 15.35
Q 105 14.5 103.55 14.5 102.2 14.5 101.35 15.4 100.55 16.3 100.55 17.75 100.55 19.25 101.35 20.15 102.1 21 103.55 21 104.95 21 105.75 20.15 106.55 19.25 106.55 17.75 106.55 16.25 105.75 15.35
M 103.55 15.7
Q 105.05 15.7 105.05 17.75 105.05 18.75 104.65 19.3 104.25 19.8 103.55 19.8 102.05 19.8 102.05 17.75 102.05 16.8 102.45 16.25 102.85 15.7 103.55 15.7 Z"/>
</g>

<path id="Layer0_0_1_STROKES" stroke="#8CA8B8" stroke-width="1" stroke-linejoin="round" stroke-linecap="round" fill="none" d="
M 119.8 0.85
Q 123.9 0.85 126.8 3.8 129.75 6.7 129.75 10.8
L 129.75 92.4
Q 129.65 96.35 126.8 99.15 123.9 102.1 119.8 102.1
L 11.15 102.1
Q 7.05 102.1 4.15 99.15 1.35 96.35 1.25 92.4
L 1.25 10.8
Q 1.25 6.7 4.15 3.8 7.05 0.85 11.15 0.85
L 119.75 0.85"/>
</defs>

<g transform="matrix( 1, 0, 0, 1, 0,0) ">
<use xlink:href="#Layer0_0_FILL"/>

<use xlink:href="#Layer0_0_1_STROKES"/>
</g>

<g transform="matrix( 1, 0, 0, 1, 0,0) ">
<use xlink:href="#Layer0_0_MEMBER_0_FILL"/>
</g>
</svg>
