<svg xmlns="http://www.w3.org/2000/svg" xmlns:xlink="http://www.w3.org/1999/xlink" preserveAspectRatio="none" width="129" height="102" viewBox="0 0 129 102"><defs><path fill="#C9C" d="M129.75 10.8q0-4.1-2.95-7-2.9-2.95-7-2.95H11.15q-4.1 0-7 2.95-2.9 2.9-2.9 7v81.6q.1 3.95 2.9 6.75 2.9 2.95 7 2.95H119.8q4.1 0 7-2.95 2.85-2.8 2.95-6.75V10.8M18.6 38.4q0-1.9 1.15-3.2 1.1-1.3 2.8-1.3 1.5 0 2.35.6l-.6 1.3q-.5-.55-1.65-.55-1.1 0-1.75.95-.7.85-.7 2.25t.65 2.2q.6.8 1.7.8 1.2 0 1.9-.85l.7 1.2q-.95 1-2.75 1t-2.8-1.2q-1-1.15-1-3.2m7.3 1.1q0-1.45.8-2.35.85-.9 2.2-.9 1.45 0 2.2.85.8.9.8 2.4t-.8 2.4q-.8.85-2.2.85-1.45 0-2.2-.85-.8-.9-.8-2.4m7.45-5.45l1.45-.35v7.05q0 1.15.7 1.35-.35.65-1.15.65-1 0-1-1.35v-7.35m8.9 5.45q0 1.5-.8 2.4-.8.85-2.2.85-1.45 0-2.2-.85-.8-.9-.8-2.4 0-1.45.8-2.35.85-.9 2.2-.9 1.45 0 2.2.85.8.9.8 2.4m5.8-3.15H49v8.75h-1.5v-2.65q-.5.3-1.45.3-1.35 0-2.15-.8-.75-.85-.75-2.4 0-1.5.9-2.4.85-.9 2.25-.9.85 0 1.5.5l.25-.4m6.45 0h1.45v6.3H54.5v-.5q-.35.25-.85.45-.55.15-1 .15-2.2 0-2.2-2.3v-4.1h1.45v4q0 1.2 1.1 1.2.5 0 .9-.25.45-.25.6-.6v-4.35m2.65 3.25q0-1.5.9-2.4.9-.95 2.2-.95 1.35 0 2.2.8.8.85.8 2.1 0 .25-.1.8h-4.5q.05.75.55 1.2.45.4 1.25.4 1 0 1.55-.55l.55 1.15q-.8.6-2.3.6-1.45 0-2.3-.8-.8-.85-.8-2.35m11.15-3q.75-.35 1.8-.35 1.4 0 2.1.65.65.65.65 2.5v1.35q0 1.25.5 1.55-.2.3-.4.4-.2.05-.5.05t-.6-.2q-.25-.25-.3-.55-.2.35-.7.55-.5.2-1.05.2-1 0-1.6-.5-.55-.5-.55-1.45 0-1.05.8-1.7.8-.6 2.3-.6.3 0 .65.1 0-1.1-1.4-1.1-.85 0-1.4.25l-.3-1.15m9.25-.35q.75 0 1.15.25l-.65 1.25q-.35-.25-.85-.25t-.9.45q-.4.45-.4 1.15v3.55h-1.45v-6.3h1.45v.6q.6-.7 1.65-.7m3.7 4.9q.45.4 1.25.4 1 0 1.55-.55l.55 1.15q-.8.6-2.3.6-1.45 0-2.3-.8-.8-.85-.8-2.35t.9-2.4q.9-.95 2.2-.95 1.35 0 2.2.8.8.85.8 2.1 0 .25-.1.8h-4.5q.05.75.55 1.2m10.9-4.9q1.4 0 2.1.65.65.65.65 2.5v1.35q0 1.25.5 1.55-.2.3-.4.4-.2.05-.5.05t-.6-.2q-.25-.25-.3-.55-.2.35-.7.55-.5.2-1.05.2-1 0-1.6-.5-.55-.5-.55-1.45 0-1.05.8-1.7.8-.6 2.3-.6.3 0 .65.1 0-1.1-1.4-1.1-.85 0-1.4.25l-.3-1.15q.75-.35 1.8-.35m7.95.1h1.05l.25.6q.6-.7 1.8-.7 1.1 0 1.75.7.65.65.65 1.85v3.85h-1.45V39q0-.8-.35-1.15-.3-.35-1-.35-.3 0-.65.15-.4.2-.6.45v4.55h-1.45v-6.3M88.25 34.2q.25.25.25.6t-.25.6q-.25.25-.6.25t-.6-.25q-.25-.25-.25-.6t.25-.6q.25-.25.6-.25t.6.25m-2.15 2.15h2.25v6.3H86.9V37.6h-.8v-1.25m20.7 3.15q0-1.45.8-2.35.85-.9 2.2-.9 1.45 0 2.2.85.8.9.8 2.4t-.8 2.4q-.8.85-2.2.85-1.45 0-2.2-.85-.8-.9-.8-2.4m-67.75 9.45q.35 0 .6.25t.25.6q0 .35-.25.6t-.6.25q-.35 0-.6-.25t-.25-.6q0-.35.25-.6t.6-.25m-1.55 2.4h2.25v6.3H38.3V52.6h-.8v-1.25m-.95 0v1.2h-1.7v2.75q0 .65.2.95.2.3.75.3.5 0 .95-.3v1.35q-.5.15-1.45.15t-1.45-.5q-.5-.55-.5-1.5v-3.2h-.7v-1.2h.7V50.1l1.5-.55v1.8h1.7m-5.65.55q.65.65.65 2.5v1.35q0 1.25.5 1.55-.2.3-.4.4-.2.05-.5.05t-.6-.2q-.25-.25-.3-.55-.2.35-.7.55-.5.2-1.05.2-1 0-1.6-.5-.55-.5-.55-1.45 0-1.05.8-1.7.8-.6 2.3-.6.3 0 .65.1 0-1.1-1.4-1.1-.85 0-1.4.25L27 51.6q.75-.35 1.8-.35 1.4 0 2.1.65m-5.7.85q-.35-.25-.85-.25t-.9.45q-.4.45-.4 1.15v3.55H21.6v-6.3h1.45v.6q.6-.7 1.65-.7.75 0 1.15.25l-.65 1.25m-9.25-.95q.55-.55 1.35-.55 3 0 3 3.3 0 1.55-.85 2.4-.8.8-2.25.8-.7 0-1.25-.25v2.6h-1.5v-8.75h1.5v.45m93.1-.55q1.45 0 2.2.85.8.9.8 2.4t-.8 2.4q-.8.85-2.2.85-1.45 0-2.2-.85-.8-.9-.8-2.4 0-1.45.8-2.35.85-.9 2.2-.9m-7.55.45q.6-.45 1.6-.45.95 0 1.85.45l-.45 1.15q-.45-.45-1.35-.45-.75 0-.75.65 0 .2.25.4t1.1.55q.8.3 1.15.75.4.5.4 1.15 0 .85-.65 1.35-.65.5-1.75.5-.65 0-1-.1-.4-.1-1-.4l.55-1.15q.65.5 1.45.5.85 0 .85-.6 0-.35-.25-.6-.25-.2-1-.55-1.6-.65-1.6-1.85 0-.85.6-1.3m-3.25 1.9q0-1.1-1.4-1.1-.85 0-1.4.25l-.3-1.15q.75-.35 1.8-.35 1.4 0 2.1.65.65.65.65 2.5v1.35q0 1.25.5 1.55-.2.3-.4.4-.2.05-.5.05t-.6-.2q-.25-.25-.3-.55-.2.35-.7.55-.5.2-1.05.2-1 0-1.6-.5-.55-.5-.55-1.45 0-1.05.8-1.7.8-.6 2.3-.6.3 0 .65.1m-5.7-2.25h1.55l-2.9 6.4h-.55l-2.8-6.4h1.6l1.5 3.85 1.6-3.85m-10.5 4.05q-.25-.2-1-.55-1.6-.65-1.6-1.85 0-.85.6-1.3.6-.45 1.6-.45.95 0 1.85.45l-.45 1.15q-.45-.45-1.35-.45-.75 0-.75.65 0 .2.25.4t1.1.55q.8.3 1.15.75.4.5.4 1.15 0 .85-.65 1.35-.65.5-1.75.5-.65 0-1-.1-.4-.1-1-.4L80 56.1q.65.5 1.45.5.85 0 .85-.6 0-.35-.25-.6M48.6 49.05l1.5-.35v3.05q.55-.5 1.55-.5 1.15 0 1.8.65.65.65.65 1.9v3.85h-1.45V53.8q0-.6-.35-.95t-.95-.35q-.35 0-.75.2-.35.2-.5.45v4.5h-1.5v-8.6m21.55 0l1.45-.35v8.95h-1.45v-.4q-.2.2-.65.35-.4.15-.9.15-1.3 0-2.05-.8-.75-.85-.75-2.35 0-1.45.85-2.4.9-.95 2.2-.95.7 0 1.3.3v-2.5m7.7 3.05q.8.9.8 2.4t-.8 2.4q-.8.85-2.2.85-1.45 0-2.2-.85-.8-.9-.8-2.4 0-1.45.8-2.35.85-.9 2.2-.9 1.45 0 2.2.85m-21.75.05q.85-.9 2.2-.9 1.45 0 2.2.85.8.9.8 2.4t-.8 2.4q-.8.85-2.2.85-1.45 0-2.2-.85-.8-.9-.8-2.4 0-1.45.8-2.35m-9.75-.2q.65.65.65 1.85v3.85h-1.45V54q0-.8-.35-1.15-.3-.35-1-.35-.3 0-.65.15-.4.2-.6.45v4.55H41.5v-6.3h1.05l.25.6q.6-.7 1.8-.7 1.1 0 1.75.7m70.55-.25l-.45 1.15q-.45-.45-1.35-.45-.75 0-.75.65 0 .2.25.4t1.1.55q.8.3 1.15.75.4.5.4 1.15 0 .85-.65 1.35-.65.5-1.75.5-.65 0-1-.1-.4-.1-1-.4l.55-1.15q.65.5 1.45.5.85 0 .85-.6 0-.35-.25-.6-.25-.2-1-.55-1.6-.65-1.6-1.85 0-.85.6-1.3.6-.45 1.6-.45.95 0 1.85.45m-27 15.7q-.75 0-.75.65 0 .2.25.4t1.1.55q.8.3 1.15.75.4.5.4 1.15 0 .85-.65 1.35-.65.5-1.75.5-.65 0-1-.1-.4-.1-1-.4l.55-1.15q.65.5 1.45.5.85 0 .85-.6 0-.35-.25-.6-.25-.2-1-.55-1.6-.65-1.6-1.85 0-.85.6-1.3.6-.45 1.6-.45.95 0 1.85.45l-.45 1.15q-.45-.45-1.35-.45m-6.2-1.15q1.4 0 2.1.65.65.65.65 2.5v1.35q0 1.25.5 1.55-.2.3-.4.4-.2.05-.5.05t-.6-.2q-.25-.25-.3-.55-.2.35-.7.55-.5.2-1.05.2-1 0-1.6-.5-.55-.5-.55-1.45 0-1.05.8-1.7.8-.6 2.3-.6.3 0 .65.1 0-1.1-1.4-1.1-.85 0-1.4.25l-.3-1.15q.75-.35 1.8-.35m-47.75.95q.9-.95 2.2-.95.7 0 1.3.3v-2.5l1.45-.35v8.95h-1.45v-.4q-.2.2-.65.35-.4.15-.9.15-1.3 0-2.05-.8-.75-.85-.75-2.35 0-1.45.85-2.4m33.85-.85h1.05l.25.6q.6-.7 1.8-.7 1.1 0 1.75.7.65.65.65 1.85v3.85h-1.45V69q0-.8-.35-1.15-.3-.35-1-.35-.3 0-.65.15-.4.2-.6.45v4.55H69.8v-6.3m-4.45 1.15q-.85 0-1.4.25l-.3-1.15q.75-.35 1.8-.35 1.4 0 2.1.65.65.65.65 2.5v1.35q0 1.25.5 1.55-.2.3-.4.4-.2.05-.5.05t-.6-.2q-.25-.25-.3-.55-.2.35-.7.55-.5.2-1.05.2-1 0-1.6-.5-.55-.5-.55-1.45 0-1.05.8-1.7.8-.6 2.3-.6.3 0 .65.1 0-1.1-1.4-1.1m-3.8 3.25q0 1.15.7 1.35-.35.65-1.15.65-1 0-1-1.35v-7.35l1.45-.35v7.05m15.55-4.4V65.1l1.5-.55v1.8h1.7v1.2h-1.7v2.75q0 .65.2.95.2.3.75.3.5 0 .95-.3v1.35q-.5.15-1.45.15t-1.45-.5q-.5-.55-.5-1.5v-3.2h-.7v-1.2h.7m-34.25.85q.9-.95 2.2-.95 1.35 0 2.2.8.8.85.8 2.1 0 .25-.1.8h-4.5q.05.75.55 1.2.45.4 1.25.4 1 0 1.55-.55l.55 1.15q-.8.6-2.3.6-1.45 0-2.3-.8-.8-.85-.8-2.35t.9-2.4m9.85-.85h1.5v.45q.55-.55 1.35-.55 3 0 3 3.3 0 1.55-.85 2.4-.8.8-2.25.8-.7 0-1.25-.25v2.6h-1.5v-8.75m41.75 4.5q.45 0 .75.3.35.3.35.75 0 .4-.35.75-.3.3-.75.3-.4 0-.7-.3-.35-.35-.35-.75 0-.45.35-.75.3-.3.7-.3m-39.3-3.35q-.55 0-.95.4v3.3q.4.35.9.35 1.05 0 1.5-.5.4-.5.4-1.55 0-1.1-.4-1.55-.45-.45-1.45-.45M43.5 68.85h3.1q-.15-1.35-1.55-1.35-1.25 0-1.55 1.35m20.95 1.9q0 .85.95.85 1.35 0 1.35-1.3v-.6q-.4-.1-.55-.1-1.75 0-1.75 1.15m-26-3.25q-.9 0-1.35.55-.5.5-.5 1.5 0 2 1.9 2 .2 0 .55-.15.3-.1.4-.25v-3.3q-.5-.35-1-.35M85 69.7q-.4-.1-.55-.1-1.75 0-1.75 1.15 0 .85.95.85 1.35 0 1.35-1.3v-.6M58.3 52.45q-.7 0-1.1.55-.4.55-.4 1.5 0 2.05 1.5 2.05.7 0 1.1-.5.4-.55.4-1.55 0-2.05-1.5-2.05m16.25.55q-.4.55-.4 1.5 0 2.05 1.5 2.05.7 0 1.1-.5.4-.55.4-1.55 0-2.05-1.5-2.05-.7 0-1.1.55m-4.4-.15q-.5-.35-1-.35-.9 0-1.35.55-.5.5-.5 1.5 0 2 1.9 2 .2 0 .55-.15.3-.1.4-.25v-3.3m28.1 1.85q-.4-.1-.55-.1-1.75 0-1.75 1.15 0 .85.95.85 1.35 0 1.35-1.3v-.6m12.3-.2q0-2.05-1.5-2.05-.7 0-1.1.55-.4.55-.4 1.5 0 2.05 1.5 2.05.7 0 1.1-.5.4-.55.4-1.55m-91.8 0q0-1.1-.4-1.55-.45-.45-1.45-.45-.55 0-.95.4v3.3q.4.35.9.35 1.05 0 1.5-.5.4-.5.4-1.55m11.35.2q-.4-.1-.55-.1-1.75 0-1.75 1.15 0 .85.95.85 1.35 0 1.35-1.3v-.6m81.2-15.2q0-2.05-1.5-2.05-.7 0-1.1.55-.4.55-.4 1.5 0 2.05 1.5 2.05.7 0 1.1-.5.4-.55.4-1.55m-17.85.2q-.4-.1-.55-.1-1.75 0-1.75 1.15 0 .85.95.85 1.35 0 1.35-1.3v-.6m-9.6-.85q-.15-1.35-1.55-1.35-1.25 0-1.55 1.35h3.1m-14.75 1.9q0 .85.95.85 1.35 0 1.35-1.3v-.6q-.4-.1-.55-.1-1.75 0-1.75 1.15m-8.85-3.25q-1.25 0-1.55 1.35h3.1q-.15-1.35-1.55-1.35M47.5 41.25v-3.4q-.35-.35-1-.35-.85 0-1.35.55-.5.6-.5 1.5 0 2 1.8 2 .65 0 1.05-.3M38.15 38q-.4.55-.4 1.5 0 2.05 1.5 2.05.7 0 1.1-.5.4-.55.4-1.55 0-2.05-1.5-2.05-.7 0-1.1.55M27.8 38q-.4.55-.4 1.5 0 2.05 1.5 2.05.7 0 1.1-.5.4-.55.4-1.55 0-2.05-1.5-2.05-.7 0-1.1.55z" id="a"/><path d="M54.2 66.35h-1.5v8.75h1.5v-2.6q.55.25 1.25.25 1.45 0 2.25-.8.85-.85.85-2.4 0-3.3-3-3.3-.8 0-1.35.55v-.45m0 1.55q.4-.4.95-.4 1 0 1.45.45.4.45.4 1.55 0 1.05-.4 1.55-.45.5-1.5.5-.5 0-.9-.35v-3.3m-9.15-1.65q-1.3 0-2.2.95-.9.9-.9 2.4t.8 2.35q.85.8 2.3.8 1.5 0 2.3-.6L46.8 71q-.55.55-1.55.55-.8 0-1.25-.4-.5-.45-.55-1.2h4.5q.1-.55.1-.8 0-1.25-.8-2.1-.85-.8-2.2-.8m1.55 2.6h-3.1q.3-1.35 1.55-1.35 1.4 0 1.55 1.35M47 53.8q0-1.2-.65-1.85-.65-.7-1.75-.7-1.2 0-1.8.7l-.25-.6H41.5v6.3h1.45V53.1q.2-.25.6-.45.35-.15.65-.15.7 0 1 .35.35.35.35 1.15v3.65H47V53.8m11.3-2.55q-1.35 0-2.2.9-.8.9-.8 2.35 0 1.5.8 2.4.75.85 2.2.85 1.4 0 2.2-.85.8-.9.8-2.4t-.8-2.4q-.75-.85-2.2-.85M57.2 53q.4-.55 1.1-.55 1.5 0 1.5 2.05 0 1-.4 1.55-.4.5-1.1.5-1.5 0-1.5-2.05 0-.95.4-1.5m19.9 12.1v1.25h-.7v1.2h.7v3.2q0 .95.5 1.5.5.5 1.45.5t1.45-.15v-1.35q-.45.3-.95.3-.55 0-.75-.3-.2-.3-.2-.95v-2.75h1.7v-1.2h-1.7v-1.8l-1.5.55m-16 7.65q.8 0 1.15-.65-.7-.2-.7-1.35V63.7l-1.45.35v7.35q0 1.35 1 1.35m2.85-5q.55-.25 1.4-.25 1.4 0 1.4 1.1-.35-.1-.65-.1-1.5 0-2.3.6-.8.65-.8 1.7 0 .95.55 1.45.6.5 1.6.5.55 0 1.05-.2t.7-.55q.05.3.3.55.3.2.6.2t.5-.05q.2-.1.4-.4-.5-.3-.5-1.55V69.4q0-1.85-.65-2.5-.7-.65-2.1-.65-1.05 0-1.8.35l.3 1.15m1.45 3.85q-.95 0-.95-.85 0-1.15 1.75-1.15.15 0 .55.1v.6q0 1.3-1.35 1.3m5.45-5.25H69.8v6.3h1.45V68.1q.2-.25.6-.45.35-.15.65-.15.7 0 1 .35.35.35.35 1.15v3.65h1.45V68.8q0-1.2-.65-1.85-.65-.7-1.75-.7-1.2 0-1.8.7l-.25-.6m7.8-11.85q0-1.5-.8-2.4-.75-.85-2.2-.85-1.35 0-2.2.9-.8.9-.8 2.35 0 1.5.8 2.4.75.85 2.2.85 1.4 0 2.2-.85.8-.9.8-2.4m-4.5 0q0-.95.4-1.5t1.1-.55q1.5 0 1.5 2.05 0 1-.4 1.55-.4.5-1.1.5-1.5 0-1.5-2.05M17.3 51.25q-.8 0-1.35.55v-.45h-1.5v8.75h1.5v-2.6q.55.25 1.25.25 1.45 0 2.25-.8.85-.85.85-2.4 0-3.3-3-3.3m1.05 1.7q.4.45.4 1.55 0 1.05-.4 1.55-.45.5-1.5.5-.5 0-.9-.35v-3.3q.4-.4.95-.4 1 0 1.45.45m19.8 13.3q-1.3 0-2.2.95-.85.95-.85 2.4 0 1.5.75 2.35.75.8 2.05.8.5 0 .9-.15.45-.15.65-.35v.4h1.45V63.7l-1.45.35v2.5q-.6-.3-1.3-.3m-1.05 1.8q.45-.55 1.35-.55.5 0 1 .35v3.3q-.1.15-.4.25-.35.15-.55.15-1.9 0-1.9-2 0-1 .5-1.5M24.35 52.5q.5 0 .85.25l.65-1.25q-.4-.25-1.15-.25-1.05 0-1.65.7v-.6H21.6v6.3h1.45V54.1q0-.7.4-1.15.4-.45.9-.45m7.2 1.9q0-1.85-.65-2.5-.7-.65-2.1-.65-1.05 0-1.8.35l.3 1.15q.55-.25 1.4-.25 1.4 0 1.4 1.1-.35-.1-.65-.1-1.5 0-2.3.6-.8.65-.8 1.7 0 .95.55 1.45.6.5 1.6.5.55 0 1.05-.2t.7-.55q.05.3.3.55.3.2.6.2t.5-.05q.2-.1.4-.4-.5-.3-.5-1.55V54.4m-2 .2q.15 0 .55.1v.6q0 1.3-1.35 1.3-.95 0-.95-.85 0-1.15 1.75-1.15m7-2.05v-1.2h-1.7v-1.8l-1.5.55v1.25h-.7v1.2h.7v3.2q0 .95.5 1.5.5.5 1.45.5t1.45-.15v-1.35q-.45.3-.95.3-.55 0-.75-.3-.2-.3-.2-.95v-2.75h1.7m3.2-1.2H37.5v1.25h.8v5.05h1.45v-6.3m-.1-2.15q-.25-.25-.6-.25t-.6.25q-.25.25-.25.6t.25.6q.25.25.6.25t.6-.25q.25-.25.25-.6t-.25-.6M26.7 41.9q.75.85 2.2.85 1.4 0 2.2-.85.8-.9.8-2.4t-.8-2.4q-.75-.85-2.2-.85-1.35 0-2.2.9-.8.9-.8 2.35 0 1.5.8 2.4m1.1-3.9q.4-.55 1.1-.55 1.5 0 1.5 2.05 0 1-.4 1.55-.4.5-1.1.5-1.5 0-1.5-2.05 0-.95.4-1.5m7-4.3l-1.45.35v7.35q0 1.35 1 1.35.8 0 1.15-.65-.7-.2-.7-1.35V33.7m-15.05 1.5q-1.15 1.3-1.15 3.2 0 2.05 1 3.2 1 1.2 2.8 1.2 1.8 0 2.75-1l-.7-1.2q-.7.85-1.9.85-1.1 0-1.7-.8-.65-.8-.65-2.2 0-1.4.7-2.25.65-.95 1.75-.95 1.15 0 1.65.55l.6-1.3q-.85-.6-2.35-.6-1.7 0-2.8 1.3M71.6 48.7l-1.45.35v2.5q-.6-.3-1.3-.3-1.3 0-2.2.95-.85.95-.85 2.4 0 1.5.75 2.35.75.8 2.05.8.5 0 .9-.15.45-.15.65-.35v.4h1.45V48.7m-2.45 3.8q.5 0 1 .35v3.3q-.1.15-.4.25-.35.15-.55.15-1.9 0-1.9-2 0-1 .5-1.5.45-.55 1.35-.55m.95-16.25q-1.05 0-1.8.35l.3 1.15q.55-.25 1.4-.25 1.4 0 1.4 1.1-.35-.1-.65-.1-1.5 0-2.3.6-.8.65-.8 1.7 0 .95.55 1.45.6.5 1.6.5.55 0 1.05-.2t.7-.55q.05.3.3.55.3.2.6.2t.5-.05q.2-.1.4-.4-.5-.3-.5-1.55V39.4q0-1.85-.65-2.5-.7-.65-2.1-.65m-.05 5.35q-.95 0-.95-.85 0-1.15 1.75-1.15.15 0 .55.1v.6q0 1.3-1.35 1.3m8.65-5.1q-.4-.25-1.15-.25-1.05 0-1.65.7v-.6h-1.45v6.3h1.45V39.1q0-.7.4-1.15.4-.45.9-.45t.85.25l.65-1.25m-20.65.7q-.9.9-.9 2.4t.8 2.35q.85.8 2.3.8 1.5 0 2.3-.6L62 41q-.55.55-1.55.55-.8 0-1.25-.4-.5-.45-.55-1.2h4.5q.1-.55.1-.8 0-1.25-.8-2.1-.85-.8-2.2-.8-1.3 0-2.2.95m.65 1.65q.3-1.35 1.55-1.35 1.4 0 1.55 1.35h-3.1m-8.6 9.85l-1.5.35v8.6h1.5v-4.5q.15-.25.5-.45.4-.2.75-.2.6 0 .95.35t.35.95v3.85h1.45V53.8q0-1.25-.65-1.9-.65-.65-1.8-.65-1 0-1.55.5V48.7m-8.65-6.8q.8-.9.8-2.4t-.8-2.4q-.75-.85-2.2-.85-1.35 0-2.2.9-.8.9-.8 2.35 0 1.5.8 2.4.75.85 2.2.85 1.4 0 2.2-.85m-3.7-2.4q0-.95.4-1.5t1.1-.55q1.5 0 1.5 2.05 0 1-.4 1.55-.4.5-1.1.5-1.5 0-1.5-2.05M49 36.35h-.95l-.25.4q-.65-.5-1.5-.5-1.4 0-2.25.9-.9.9-.9 2.4 0 1.55.75 2.4.8.8 2.15.8.95 0 1.45-.3v2.65H49v-8.75m-1.5 1.5v3.4q-.4.3-1.05.3-1.8 0-1.8-2 0-.9.5-1.5.5-.55 1.35-.55.65 0 1 .35m8.45-1.5H54.5v4.35q-.15.35-.6.6-.4.25-.9.25-1.1 0-1.1-1.2v-4h-1.45v4.1q0 2.3 2.2 2.3.45 0 1-.15.5-.2.85-.45v.5h1.45v-6.3m39.25 34.8q-.3-.3-.75-.3-.4 0-.7.3-.35.3-.35.75 0 .4.35.75.3.3.7.3.45 0 .75-.3.35-.35.35-.75 0-.45-.35-.75m-9.4-4.25q-.7-.65-2.1-.65-1.05 0-1.8.35l.3 1.15q.55-.25 1.4-.25 1.4 0 1.4 1.1-.35-.1-.65-.1-1.5 0-2.3.6-.8.65-.8 1.7 0 .95.55 1.45.6.5 1.6.5.55 0 1.05-.2t.7-.55q.05.3.3.55.3.2.6.2t.5-.05q.2-.1.4-.4-.5-.3-.5-1.55V69.4q0-1.85-.65-2.5m-1.35 2.7q.15 0 .55.1v.6q0 1.3-1.35 1.3-.95 0-.95-.85 0-1.15 1.75-1.15m4.7-1.55q0-.65.75-.65.9 0 1.35.45l.45-1.15q-.9-.45-1.85-.45-1 0-1.6.45-.6.45-.6 1.3 0 1.2 1.6 1.85.75.35 1 .55.25.25.25.6 0 .6-.85.6-.8 0-1.45-.5l-.55 1.15q.6.3 1 .4.35.1 1 .1 1.1 0 1.75-.5.65-.5.65-1.35 0-.65-.4-1.15-.35-.45-1.15-.75-.85-.35-1.1-.55-.25-.2-.25-.4m-8.1-13.2q.75.35 1 .55.25.25.25.6 0 .6-.85.6-.8 0-1.45-.5l-.55 1.15q.6.3 1 .4.35.1 1 .1 1.1 0 1.75-.5.65-.5.65-1.35 0-.65-.4-1.15-.35-.45-1.15-.75-.85-.35-1.1-.55-.25-.2-.25-.4 0-.65.75-.65.9 0 1.35.45l.45-1.15q-.9-.45-1.85-.45-1 0-1.6.45-.6.45-.6 1.3 0 1.2 1.6 1.85m13.05-3.5h-1.55l-1.6 3.85-1.5-3.85h-1.6l2.8 6.4h.55l2.9-6.4m2.75 1.15q1.4 0 1.4 1.1-.35-.1-.65-.1-1.5 0-2.3.6-.8.65-.8 1.7 0 .95.55 1.45.6.5 1.6.5.55 0 1.05-.2t.7-.55q.05.3.3.55.3.2.6.2t.5-.05q.2-.1.4-.4-.5-.3-.5-1.55V54.4q0-1.85-.65-2.5-.7-.65-2.1-.65-1.05 0-1.8.35l.3 1.15q.55-.25 1.4-.25m.85 2.1q.15 0 .55.1v.6q0 1.3-1.35 1.3-.95 0-.95-.85 0-1.15 1.75-1.15m5.4-3.35q-1 0-1.6.45-.6.45-.6 1.3 0 1.2 1.6 1.85.75.35 1 .55.25.25.25.6 0 .6-.85.6-.8 0-1.45-.5l-.55 1.15q.6.3 1 .4.35.1 1 .1 1.1 0 1.75-.5.65-.5.65-1.35 0-.65-.4-1.15-.35-.45-1.15-.75-.85-.35-1.1-.55-.25-.2-.25-.4 0-.65.75-.65.9 0 1.35.45l.45-1.15q-.9-.45-1.85-.45m8.15.85q-.75-.85-2.2-.85-1.35 0-2.2.9-.8.9-.8 2.35 0 1.5.8 2.4.75.85 2.2.85 1.4 0 2.2-.85.8-.9.8-2.4t-.8-2.4m-2.2.35q1.5 0 1.5 2.05 0 1-.4 1.55-.4.5-1.1.5-1.5 0-1.5-2.05 0-.95.4-1.5t1.1-.55m7.4.4l.45-1.15q-.9-.45-1.85-.45-1 0-1.6.45-.6.45-.6 1.3 0 1.2 1.6 1.85.75.35 1 .55.25.25.25.6 0 .6-.85.6-.8 0-1.45-.5l-.55 1.15q.6.3 1 .4.35.1 1 .1 1.1 0 1.75-.5.65-.5.65-1.35 0-.65-.4-1.15-.35-.45-1.15-.75-.85-.35-1.1-.55-.25-.2-.25-.4 0-.65.75-.65.9 0 1.35.45m-8.85-15.7q-.8.9-.8 2.35 0 1.5.8 2.4.75.85 2.2.85 1.4 0 2.2-.85.8-.9.8-2.4t-.8-2.4q-.75-.85-2.2-.85-1.35 0-2.2.9m2.2.3q1.5 0 1.5 2.05 0 1-.4 1.55-.4.5-1.1.5-1.5 0-1.5-2.05 0-.95.4-1.5t1.1-.55m-21.45-1.1H86.1v1.25h.8v5.05h1.45v-6.3m.15-1.55q0-.35-.25-.6t-.6-.25q-.35 0-.6.25t-.25.6q0 .35.25.6t.6.25q.35 0 .6-.25t.25-.6m-4 2.25q-.85-.8-2.2-.8-1.3 0-2.2.95-.9.9-.9 2.4t.8 2.35q.85.8 2.3.8 1.5 0 2.3-.6L84.05 41q-.55.55-1.55.55-.8 0-1.25-.4-.5-.45-.55-1.2h4.5q.1-.55.1-.8 0-1.25-.8-2.1m-2.2.45q1.4 0 1.55 1.35h-3.1q.3-1.35 1.55-1.35m18.85-1.15h-1.05v6.3h1.45V38.1q.2-.25.6-.45.35-.15.65-.15.7 0 1 .35.35.35.35 1.15v3.65h1.45V38.8q0-1.2-.65-1.85-.65-.7-1.75-.7-1.2 0-1.8.7l-.25-.6m-6.9.55q-.7-.65-2.1-.65-1.05 0-1.8.35l.3 1.15q.55-.25 1.4-.25 1.4 0 1.4 1.1-.35-.1-.65-.1-1.5 0-2.3.6-.8.65-.8 1.7 0 .95.55 1.45.6.5 1.6.5.55 0 1.05-.2t.7-.55q.05.3.3.55.3.2.6.2t.5-.05q.2-.1.4-.4-.5-.3-.5-1.55V39.4q0-1.85-.65-2.5m-1.35 2.7q.15 0 .55.1v.6q0 1.3-1.35 1.3-.95 0-.95-.85 0-1.15 1.75-1.15z" id="c"/><path id="b" stroke="#8CA8B8" stroke-linejoin="round" stroke-linecap="round" fill="none" d="M119.8.85q4.1 0 7 2.95 2.95 2.9 2.95 7v81.6q-.1 3.95-2.95 6.75-2.9 2.95-7 2.95H11.15q-4.1 0-7-2.95-2.8-2.8-2.9-6.75V10.8q0-4.1 2.9-7 2.9-2.95 7-2.95h108.6"/></defs><g transform="translate(-1 -.45)"><use xlink:href="#a"/><use xlink:href="#b"/></g><use xlink:href="#c" transform="translate(-1 -.45)"/></svg>