
<svg xmlns="http://www.w3.org/2000/svg" version="1.1" xmlns:xlink="http://www.w3.org/1999/xlink" preserveAspectRatio="none" x="0px" y="0px" width="129px" height="102px" viewBox="0 0 129 102">
<defs>
<g id="Layer0_0_FILL">
<path fill="#FF6666" stroke="none" d="
M 128.75 10.35
Q 128.75 6.25 125.8 3.35 122.9 0.4 118.8 0.4
L 118.75 0.4 10.15 0.4
Q 6.05 0.4 3.15 3.35 0.25 6.25 0.25 10.35
L 0.25 91.95
Q 0.35 95.9 3.15 98.7 6.05 101.65 10.15 101.65
L 118.8 101.65
Q 122.9 101.65 125.8 98.7 128.65 95.9 128.75 91.95
L 128.75 10.35
M 98.2 30.5
Q 98.55 30.5 98.8 30.75 99.05 31 99.05 31.35 99.05 31.7 98.8 31.95 98.55 32.2 98.2 32.2 97.85 32.2 97.6 31.95 97.35 31.7 97.35 31.35 97.35 31 97.6 30.75 97.85 30.5 98.2 30.5
M 93.75 30.6
L 95.2 30.25 95.2 37.3
Q 95.2 38.45 95.9 38.65 95.55 39.3 94.75 39.3 93.75 39.3 93.75 37.95
L 93.75 30.6
M 96.65 34.15
L 96.65 32.9 98.9 32.9 98.9 39.2 97.45 39.2 97.45 34.15 96.65 34.15
M 82.6 36.15
Q 82.6 34.65 83.5 33.75 84.4 32.8 85.7 32.8 87.05 32.8 87.9 33.6 88.7 34.45 88.7 35.7 88.7 35.95 88.6 36.5
L 84.1 36.5
Q 84.15 37.25 84.65 37.7 85.1 38.1 85.9 38.1 86.9 38.1 87.45 37.55
L 88 38.7
Q 87.2 39.3 85.7 39.3 84.25 39.3 83.4 38.5 82.6 37.65 82.6 36.15
M 83.8 47.9
L 85.25 47.9 85.25 54.2 83.8 54.2 83.8 53.7
Q 83.45 53.95 82.95 54.15 82.4 54.3 81.95 54.3 79.75 54.3 79.75 52
L 79.75 47.9 81.2 47.9 81.2 51.9
Q 81.2 53.1 82.3 53.1 82.8 53.1 83.2 52.85 83.65 52.6 83.8 52.25
L 83.8 47.9
M 93.15 47.8
Q 94.5 47.8 95.35 48.6 96.15 49.45 96.15 50.7 96.15 50.95 96.05 51.5
L 91.55 51.5
Q 91.6 52.25 92.1 52.7 92.55 53.1 93.35 53.1 94.35 53.1 94.9 52.55
L 95.45 53.7
Q 94.65 54.3 93.15 54.3 91.7 54.3 90.85 53.5 90.05 52.65 90.05 51.15 90.05 49.65 90.95 48.75 91.85 47.8 93.15 47.8
M 97.35 47.9
L 98.35 47.9 98.65 48.5
Q 99.25 47.8 100.2 47.8 101.45 47.8 102.1 48.5 102.4 48.2 102.85 48 103.35 47.8 103.85 47.8 104.9 47.8 105.5 48.4 106.05 49 106.05 50.05
L 106.05 54.2 104.6 54.2 104.6 50.25
Q 104.6 49.05 103.5 49.05 103.15 49.05 102.85 49.25 102.55 49.4 102.45 49.65
L 102.45 54.2 100.95 54.2 100.95 50.05
Q 100.95 49.6 100.7 49.3 100.4 49.05 99.9 49.05 99.6 49.05 99.3 49.25 98.95 49.45 98.8 49.7
L 98.8 54.2 97.35 54.2 97.35 47.9
M 81.4 32.9
L 81.4 39.2 79.95 39.2 79.95 38.7
Q 79.6 38.95 79.1 39.15 78.55 39.3 78.1 39.3 75.9 39.3 75.9 37
L 75.9 32.9 77.35 32.9 77.35 36.9
Q 77.35 38.1 78.45 38.1 78.95 38.1 79.35 37.85 79.8 37.6 79.95 37.25
L 79.95 32.9 81.4 32.9
M 112.1 33.65
Q 112.9 34.55 112.9 36.05 112.9 37.55 112.1 38.45 111.3 39.3 109.9 39.3 108.45 39.3 107.7 38.45 106.9 37.55 106.9 36.05 106.9 34.6 107.7 33.7 108.55 32.8 109.9 32.8 111.35 32.8 112.1 33.65
M 106.25 32.9
L 103.8 36 106.45 39.2 104.65 39.2 103.05 37.15 101.6 39.2 99.9 39.2 102.3 36 100.05 32.9 101.75 32.9 103.1 34.85 104.55 32.9 106.25 32.9
M 107.2 66.3
Q 107.6 66.8 107.6 67.45 107.6 68.3 106.95 68.8 106.3 69.3 105.2 69.3 104.55 69.3 104.2 69.2 103.8 69.1 103.2 68.8
L 103.75 67.65
Q 104.4 68.15 105.2 68.15 106.05 68.15 106.05 67.55 106.05 67.2 105.8 66.95 105.55 66.75 104.8 66.4 103.2 65.75 103.2 64.55 103.2 63.7 103.8 63.25 104.4 62.8 105.4 62.8 106.35 62.8 107.25 63.25
L 106.8 64.4
Q 106.35 63.95 105.45 63.95 104.7 63.95 104.7 64.6 104.7 64.8 104.95 65 105.2 65.2 106.05 65.55 106.85 65.85 107.2 66.3
M 109.3 67.7
Q 109.6 67.4 110 67.4 110.45 67.4 110.75 67.7 111.1 68 111.1 68.45 111.1 68.85 110.75 69.2 110.45 69.5 110 69.5 109.6 69.5 109.3 69.2 108.95 68.85 108.95 68.45 108.95 68 109.3 67.7
M 101.6 63.65
Q 102.4 64.55 102.4 66.05 102.4 67.55 101.6 68.45 100.8 69.3 99.4 69.3 97.95 69.3 97.2 68.45 96.4 67.55 96.4 66.05 96.4 64.6 97.2 63.7 98.05 62.8 99.4 62.8 100.85 62.8 101.6 63.65
M 94.35 60.5
Q 94.7 60.5 94.95 60.75 95.2 61 95.2 61.35 95.2 61.7 94.95 61.95 94.7 62.2 94.35 62.2 94 62.2 93.75 61.95 93.5 61.7 93.5 61.35 93.5 61 93.75 60.75 94 60.5 94.35 60.5
M 82.95 60.6
L 84.4 60.25 84.4 67.3
Q 84.4 68.45 85.1 68.65 84.75 69.3 83.95 69.3 82.95 69.3 82.95 67.95
L 82.95 60.6
M 89 62.8
Q 89.7 62.8 90.3 63.1
L 90.3 60.6 91.75 60.25 91.75 69.2 90.3 69.2 90.3 68.8
Q 90.1 69 89.65 69.15 89.25 69.3 88.75 69.3 87.45 69.3 86.7 68.5 85.95 67.65 85.95 66.15 85.95 64.7 86.8 63.75 87.7 62.8 89 62.8
M 81.1 65.95
L 81.1 67.3
Q 81.1 68.55 81.6 68.85 81.4 69.15 81.2 69.25 81 69.3 80.7 69.3 80.4 69.3 80.1 69.1 79.85 68.85 79.8 68.55 79.6 68.9 79.1 69.1 78.6 69.3 78.05 69.3 77.05 69.3 76.45 68.8 75.9 68.3 75.9 67.35 75.9 66.3 76.7 65.65 77.5 65.05 79 65.05 79.3 65.05 79.65 65.15 79.65 64.05 78.25 64.05 77.4 64.05 76.85 64.3
L 76.55 63.15
Q 77.3 62.8 78.35 62.8 79.75 62.8 80.45 63.45 81.1 64.1 81.1 65.95
M 92.8 64.15
L 92.8 62.9 95.05 62.9 95.05 69.2 93.6 69.2 93.6 64.15 92.8 64.15
M 59.9 30.75
Q 60.15 30.5 60.5 30.5 60.85 30.5 61.1 30.75 61.35 31 61.35 31.35 61.35 31.7 61.1 31.95 60.85 32.2 60.5 32.2 60.15 32.2 59.9 31.95 59.65 31.7 59.65 31.35 59.65 31 59.9 30.75
M 52.15 36.95
Q 51.9 36.75 51.15 36.4 49.55 35.75 49.55 34.55 49.55 33.7 50.15 33.25 50.75 32.8 51.75 32.8 52.7 32.8 53.6 33.25
L 53.15 34.4
Q 52.7 33.95 51.8 33.95 51.05 33.95 51.05 34.6 51.05 34.8 51.3 35 51.55 35.2 52.4 35.55 53.2 35.85 53.55 36.3 53.95 36.8 53.95 37.45 53.95 38.3 53.3 38.8 52.65 39.3 51.55 39.3 50.9 39.3 50.55 39.2 50.15 39.1 49.55 38.8
L 50.1 37.65
Q 50.75 38.15 51.55 38.15 52.4 38.15 52.4 37.55 52.4 37.2 52.15 36.95
M 58.7 34.15
L 58.7 32.9 61.3 32.9 61.3 39.05
Q 61.3 40.4 60.45 41.05 59.6 41.65 57.85 41.65
L 57.85 40.35
Q 59 40.35 59.4 40.1 59.85 39.8 59.85 39.1
L 59.85 34.15 58.7 34.15
M 47.5 30.5
Q 47.85 30.5 48.1 30.75 48.35 31 48.35 31.35 48.35 31.7 48.1 31.95 47.85 32.2 47.5 32.2 47.15 32.2 46.9 31.95 46.65 31.7 46.65 31.35 46.65 31 46.9 30.75 47.15 30.5 47.5 30.5
M 42.65 35.05
Q 42.95 35.05 43.3 35.15 43.3 34.05 41.9 34.05 41.05 34.05 40.5 34.3
L 40.2 33.15
Q 40.95 32.8 42 32.8 43.4 32.8 44.1 33.45 44.75 34.1 44.75 35.95
L 44.75 37.3
Q 44.75 38.55 45.25 38.85 45.05 39.15 44.85 39.25 44.65 39.3 44.35 39.3 44.05 39.3 43.75 39.1 43.5 38.85 43.45 38.55 43.25 38.9 42.75 39.1 42.25 39.3 41.7 39.3 40.7 39.3 40.1 38.8 39.55 38.3 39.55 37.35 39.55 36.3 40.35 35.65 41.15 35.05 42.65 35.05
M 46.75 34.15
L 45.95 34.15 45.95 32.9 48.2 32.9 48.2 39.2 46.75 39.2 46.75 34.15
M 49.15 49.3
Q 48.8 49.05 48.3 49.05 47.8 49.05 47.4 49.5 47 49.95 47 50.65
L 47 54.2 45.55 54.2 45.55 47.9 47 47.9 47 48.5
Q 47.6 47.8 48.65 47.8 49.4 47.8 49.8 48.05
L 49.15 49.3
M 50.7 47.9
L 52.15 47.9 52.15 51.9
Q 52.15 53.1 53.25 53.1 53.75 53.1 54.15 52.85 54.6 52.6 54.75 52.25
L 54.75 47.9 56.2 47.9 56.2 54.2 54.75 54.2 54.75 53.7
Q 54.4 53.95 53.9 54.15 53.35 54.3 52.9 54.3 50.7 54.3 50.7 52
L 50.7 47.9
M 58.05 48.15
Q 58.8 47.8 59.85 47.8 61.25 47.8 61.95 48.45 62.6 49.1 62.6 50.95
L 62.6 52.3
Q 62.6 53.55 63.1 53.85 62.9 54.15 62.7 54.25 62.5 54.3 62.2 54.3 61.9 54.3 61.6 54.1 61.35 53.85 61.3 53.55 61.1 53.9 60.6 54.1 60.1 54.3 59.55 54.3 58.55 54.3 57.95 53.8 57.4 53.3 57.4 52.35 57.4 51.3 58.2 50.65 59 50.05 60.5 50.05 60.8 50.05 61.15 50.15 61.15 49.05 59.75 49.05 58.9 49.05 58.35 49.3
L 58.05 48.15
M 74.95 33.35
L 74.25 33.85
Q 74.6 34.4 74.6 35.15 74.6 36.25 73.95 36.9 73.3 37.55 72.3 37.55 72.15 37.55 71.9 37.5
L 71.65 37.45
Q 71.6 37.45 71.35 37.6 71.05 37.7 71.05 37.85 71.05 38.1 71.45 38.1 71.65 38.1 72.1 38 72.5 37.9 72.8 37.9 74.95 37.9 74.95 39.65 74.95 40.6 74.1 41.1 73.25 41.65 72.05 41.65 70.6 41.65 69.4 40.8
L 70.35 39.65
Q 71.1 40.35 72.05 40.35 72.7 40.35 73.1 40.2 73.5 40 73.5 39.65 73.5 39.1 72.6 39.1 72.35 39.1 71.85 39.15 71.4 39.25 71.15 39.25 69.65 39.25 69.65 38.15 69.65 37.85 69.9 37.55 70.15 37.25 70.45 37.1 69.4 36.4 69.4 35.1 69.4 34.1 70.15 33.45 70.85 32.8 71.95 32.8 72.8 32.8 73.35 33.1
L 73.95 32.45 74.95 33.35
M 63.5 33.7
Q 64.35 32.8 65.7 32.8 67.15 32.8 67.9 33.65 68.7 34.55 68.7 36.05 68.7 37.55 67.9 38.45 67.1 39.3 65.7 39.3 64.25 39.3 63.5 38.45 62.7 37.55 62.7 36.05 62.7 34.6 63.5 33.7
M 66 47.8
Q 66.95 47.8 67.85 48.25
L 67.4 49.4
Q 66.95 48.95 66.05 48.95 65.3 48.95 65.3 49.6 65.3 49.8 65.55 50 65.8 50.2 66.65 50.55 67.45 50.85 67.8 51.3 68.2 51.8 68.2 52.45 68.2 53.3 67.55 53.8 66.9 54.3 65.8 54.3 65.15 54.3 64.8 54.2 64.4 54.1 63.8 53.8
L 64.35 52.65
Q 65 53.15 65.8 53.15 66.65 53.15 66.65 52.55 66.65 52.2 66.4 51.95 66.15 51.75 65.4 51.4 63.8 50.75 63.8 49.55 63.8 48.7 64.4 48.25 65 47.8 66 47.8
M 73.35 48.7
Q 74.2 47.8 75.55 47.8 77 47.8 77.75 48.65 78.55 49.55 78.55 51.05 78.55 52.55 77.75 53.45 76.95 54.3 75.55 54.3 74.1 54.3 73.35 53.45 72.55 52.55 72.55 51.05 72.55 49.6 73.35 48.7
M 16.85 38.75
Q 16.2 38.2 16.15 37.2
L 17.5 37.2
Q 17.7 37.95 18.75 37.95 19.5 37.95 19.8 37.5 20.15 37 20.15 36
L 20.15 30.6 21.65 30.6 21.65 35.95
Q 21.65 37.65 20.95 38.5 20.2 39.3 18.6 39.3 17.55 39.3 16.85 38.75
M 34.4 33.5
Q 34.7 33.2 35.15 33 35.65 32.8 36.15 32.8 37.2 32.8 37.8 33.4 38.35 34 38.35 35.05
L 38.35 39.2 36.9 39.2 36.9 35.25
Q 36.9 34.05 35.8 34.05 35.45 34.05 35.15 34.25 34.85 34.4 34.75 34.65
L 34.75 39.2 33.25 39.2 33.25 35.05
Q 33.25 34.6 33 34.3 32.7 34.05 32.2 34.05 31.9 34.05 31.6 34.25 31.25 34.45 31.1 34.7
L 31.1 39.2 29.65 39.2 29.65 32.9 30.65 32.9 30.95 33.5
Q 31.55 32.8 32.5 32.8 33.75 32.8 34.4 33.5
M 23.5 33.15
Q 24.25 32.8 25.3 32.8 26.7 32.8 27.4 33.45 28.05 34.1 28.05 35.95
L 28.05 37.3
Q 28.05 38.55 28.55 38.85 28.35 39.15 28.15 39.25 27.95 39.3 27.65 39.3 27.35 39.3 27.05 39.1 26.8 38.85 26.75 38.55 26.55 38.9 26.05 39.1 25.55 39.3 25 39.3 24 39.3 23.4 38.8 22.85 38.3 22.85 37.35 22.85 36.3 23.65 35.65 24.45 35.05 25.95 35.05 26.25 35.05 26.6 35.15 26.6 34.05 25.2 34.05 24.35 34.05 23.8 34.3
L 23.5 33.15
M 23.3 47.9
L 24.35 47.9 24.6 48.5
Q 25.2 47.8 26.4 47.8 27.5 47.8 28.15 48.5 28.8 49.15 28.8 50.35
L 28.8 54.2 27.35 54.2 27.35 50.55
Q 27.35 49.75 27 49.4 26.7 49.05 26 49.05 25.7 49.05 25.35 49.2 24.95 49.4 24.75 49.65
L 24.75 54.2 23.3 54.2 23.3 47.9
M 32.35 49.05
Q 31.5 49.05 30.95 49.3
L 30.65 48.15
Q 31.4 47.8 32.45 47.8 33.85 47.8 34.55 48.45 35.2 49.1 35.2 50.95
L 35.2 52.3
Q 35.2 53.55 35.7 53.85 35.5 54.15 35.3 54.25 35.1 54.3 34.8 54.3 34.5 54.3 34.2 54.1 33.95 53.85 33.9 53.55 33.7 53.9 33.2 54.1 32.7 54.3 32.15 54.3 31.15 54.3 30.55 53.8 30 53.3 30 52.35 30 51.3 30.8 50.65 31.6 50.05 33.1 50.05 33.4 50.05 33.75 50.15 33.75 49.05 32.35 49.05
M 40.45 48.25
L 40 49.4
Q 39.55 48.95 38.65 48.95 37.9 48.95 37.9 49.6 37.9 49.8 38.15 50 38.4 50.2 39.25 50.55 40.05 50.85 40.4 51.3 40.8 51.8 40.8 52.45 40.8 53.3 40.15 53.8 39.5 54.3 38.4 54.3 37.75 54.3 37.4 54.2 37 54.1 36.4 53.8
L 36.95 52.65
Q 37.6 53.15 38.4 53.15 39.25 53.15 39.25 52.55 39.25 52.2 39 51.95 38.75 51.75 38 51.4 36.4 50.75 36.4 49.55 36.4 48.7 37 48.25 37.6 47.8 38.6 47.8 39.55 47.8 40.45 48.25
M 27.45 63.6
Q 28.25 64.45 28.25 65.7 28.25 65.95 28.15 66.5
L 23.65 66.5
Q 23.7 67.25 24.2 67.7 24.65 68.1 25.45 68.1 26.45 68.1 27 67.55
L 27.55 68.7
Q 26.75 69.3 25.25 69.3 23.8 69.3 22.95 68.5 22.15 67.65 22.15 66.15 22.15 64.65 23.05 63.75 23.95 62.8 25.25 62.8 26.6 62.8 27.45 63.6
M 21.2 62.9
L 21.2 64.1 19.5 64.1 19.5 66.85
Q 19.5 67.5 19.7 67.8 19.9 68.1 20.45 68.1 20.95 68.1 21.4 67.8
L 21.4 69.15
Q 20.9 69.3 19.95 69.3 19 69.3 18.5 68.8 18 68.25 18 67.3
L 18 64.1 17.3 64.1 17.3 62.9 18 62.9 18 61.65 19.5 61.1 19.5 62.9 21.2 62.9
M 29.45 69.2
L 29.45 62.9 30.9 62.9 30.9 63.5
Q 31.5 62.8 32.55 62.8 33.3 62.8 33.7 63.05
L 33.05 64.3
Q 32.7 64.05 32.2 64.05 31.7 64.05 31.3 64.5 30.9 64.95 30.9 65.65
L 30.9 69.2 29.45 69.2
M 39.35 66.15
Q 39.35 64.65 40.25 63.75 41.15 62.8 42.45 62.8 43.8 62.8 44.65 63.6 45.45 64.45 45.45 65.7 45.45 65.95 45.35 66.5
L 40.85 66.5
Q 40.9 67.25 41.4 67.7 41.85 68.1 42.65 68.1 43.65 68.1 44.2 67.55
L 44.75 68.7
Q 43.95 69.3 42.45 69.3 41 69.3 40.15 68.5 39.35 67.65 39.35 66.15
M 36.05 63.5
Q 36.65 62.8 37.7 62.8 38.45 62.8 38.85 63.05
L 38.2 64.3
Q 37.85 64.05 37.35 64.05 36.85 64.05 36.45 64.5 36.05 64.95 36.05 65.65
L 36.05 69.2 34.6 69.2 34.6 62.9 36.05 62.9 36.05 63.5
M 69.15 60.6
L 70.65 60.25 70.65 63.15
Q 71.2 62.8 71.9 62.8 73.3 62.8 74.15 63.7 75 64.55 75 65.9 75 67.5 74.15 68.4 73.3 69.3 71.85 69.3 70.95 69.3 70.35 68.85
L 70 69.3 69.15 69.3 69.15 60.6
M 64.2 63.25
L 63.75 64.4
Q 63.3 63.95 62.4 63.95 61.65 63.95 61.65 64.6 61.65 64.8 61.9 65 62.15 65.2 63 65.55 63.8 65.85 64.15 66.3 64.55 66.8 64.55 67.45 64.55 68.3 63.9 68.8 63.25 69.3 62.15 69.3 61.5 69.3 61.15 69.2 60.75 69.1 60.15 68.8
L 60.7 67.65
Q 61.35 68.15 62.15 68.15 63 68.15 63 67.55 63 67.2 62.75 66.95 62.5 66.75 61.75 66.4 60.15 65.75 60.15 64.55 60.15 63.7 60.75 63.25 61.35 62.8 62.35 62.8 63.3 62.8 64.2 63.25
M 47.95 63.5
Q 48.55 62.8 49.75 62.8 50.85 62.8 51.5 63.5 52.15 64.15 52.15 65.35
L 52.15 69.2 50.7 69.2 50.7 65.55
Q 50.7 64.75 50.35 64.4 50.05 64.05 49.35 64.05 49.05 64.05 48.7 64.2 48.3 64.4 48.1 64.65
L 48.1 69.2 46.65 69.2 46.65 62.9 47.7 62.9 47.95 63.5
M 56.35 62.8
Q 57.8 62.8 58.55 63.65 59.35 64.55 59.35 66.05 59.35 67.55 58.55 68.45 57.75 69.3 56.35 69.3 54.9 69.3 54.15 68.45 53.35 67.55 53.35 66.05 53.35 64.6 54.15 63.7 55 62.8 56.35 62.8
M 57.85 66.05
Q 57.85 64 56.35 64 55.65 64 55.25 64.55 54.85 65.1 54.85 66.05 54.85 68.1 56.35 68.1 57.05 68.1 57.45 67.6 57.85 67.05 57.85 66.05
M 70.65 64.4
L 70.65 67.7
Q 70.95 68.1 71.5 68.1 72.55 68.1 73 67.55 73.45 67.05 73.45 65.95 73.45 64.05 71.65 64.05 71 64.05 70.65 64.4
M 40.9 65.4
L 44 65.4
Q 43.85 64.05 42.45 64.05 41.2 64.05 40.9 65.4
M 25.25 64.05
Q 24 64.05 23.7 65.4
L 26.8 65.4
Q 26.65 64.05 25.25 64.05
M 33.75 51.85
L 33.75 51.25
Q 33.35 51.15 33.2 51.15 31.45 51.15 31.45 52.3 31.45 53.15 32.4 53.15 33.75 53.15 33.75 51.85
M 26.6 36.25
Q 26.2 36.15 26.05 36.15 24.3 36.15 24.3 37.3 24.3 38.15 25.25 38.15 26.6 38.15 26.6 36.85
L 26.6 36.25
M 74.45 49.55
Q 74.05 50.1 74.05 51.05 74.05 53.1 75.55 53.1 76.25 53.1 76.65 52.6 77.05 52.05 77.05 51.05 77.05 49 75.55 49 74.85 49 74.45 49.55
M 65.7 34
Q 65 34 64.6 34.55 64.2 35.1 64.2 36.05 64.2 38.1 65.7 38.1 66.4 38.1 66.8 37.6 67.2 37.05 67.2 36.05 67.2 34 65.7 34
M 71.2 34.3
Q 70.9 34.65 70.9 35.15 70.9 35.7 71.2 36 71.5 36.35 72 36.35 72.55 36.35 72.85 36.05 73.1 35.7 73.1 35.15 73.1 34.65 72.8 34.35 72.5 34 72 34 71.5 34 71.2 34.3
M 61.15 51.85
L 61.15 51.25
Q 60.75 51.15 60.6 51.15 58.85 51.15 58.85 52.3 58.85 53.15 59.8 53.15 61.15 53.15 61.15 51.85
M 43.3 36.25
Q 42.9 36.15 42.75 36.15 41 36.15 41 37.3 41 38.15 41.95 38.15 43.3 38.15 43.3 36.85
L 43.3 36.25
M 79.65 66.85
L 79.65 66.25
Q 79.25 66.15 79.1 66.15 77.35 66.15 77.35 67.3 77.35 68.15 78.3 68.15 79.65 68.15 79.65 66.85
M 90.3 64.4
Q 89.8 64.05 89.3 64.05 88.4 64.05 87.95 64.6 87.45 65.1 87.45 66.1 87.45 68.1 89.35 68.1 89.55 68.1 89.9 67.95 90.2 67.85 90.3 67.7
L 90.3 64.4
M 100.5 67.6
Q 100.9 67.05 100.9 66.05 100.9 64 99.4 64 98.7 64 98.3 64.55 97.9 65.1 97.9 66.05 97.9 68.1 99.4 68.1 100.1 68.1 100.5 67.6
M 108.8 34.55
Q 108.4 35.1 108.4 36.05 108.4 38.1 109.9 38.1 110.6 38.1 111 37.6 111.4 37.05 111.4 36.05 111.4 34 109.9 34 109.2 34 108.8 34.55
M 91.6 50.4
L 94.7 50.4
Q 94.55 49.05 93.15 49.05 91.9 49.05 91.6 50.4
M 85.7 34.05
Q 84.45 34.05 84.15 35.4
L 87.25 35.4
Q 87.1 34.05 85.7 34.05 Z"/>

<path fill="#000000" stroke="none" d="
M 58.55 63.65
Q 57.8 62.8 56.35 62.8 55 62.8 54.15 63.7 53.35 64.6 53.35 66.05 53.35 67.55 54.15 68.45 54.9 69.3 56.35 69.3 57.75 69.3 58.55 68.45 59.35 67.55 59.35 66.05 59.35 64.55 58.55 63.65
M 56.35 64
Q 57.85 64 57.85 66.05 57.85 67.05 57.45 67.6 57.05 68.1 56.35 68.1 54.85 68.1 54.85 66.05 54.85 65.1 55.25 64.55 55.65 64 56.35 64
M 49.75 62.8
Q 48.55 62.8 47.95 63.5
L 47.7 62.9 46.65 62.9 46.65 69.2 48.1 69.2 48.1 64.65
Q 48.3 64.4 48.7 64.2 49.05 64.05 49.35 64.05 50.05 64.05 50.35 64.4 50.7 64.75 50.7 65.55
L 50.7 69.2 52.15 69.2 52.15 65.35
Q 52.15 64.15 51.5 63.5 50.85 62.8 49.75 62.8
M 63.75 64.4
L 64.2 63.25
Q 63.3 62.8 62.35 62.8 61.35 62.8 60.75 63.25 60.15 63.7 60.15 64.55 60.15 65.75 61.75 66.4 62.5 66.75 62.75 66.95 63 67.2 63 67.55 63 68.15 62.15 68.15 61.35 68.15 60.7 67.65
L 60.15 68.8
Q 60.75 69.1 61.15 69.2 61.5 69.3 62.15 69.3 63.25 69.3 63.9 68.8 64.55 68.3 64.55 67.45 64.55 66.8 64.15 66.3 63.8 65.85 63 65.55 62.15 65.2 61.9 65 61.65 64.8 61.65 64.6 61.65 63.95 62.4 63.95 63.3 63.95 63.75 64.4
M 70.65 60.25
L 69.15 60.6 69.15 69.3 70 69.3 70.35 68.85
Q 70.95 69.3 71.85 69.3 73.3 69.3 74.15 68.4 75 67.5 75 65.9 75 64.55 74.15 63.7 73.3 62.8 71.9 62.8 71.2 62.8 70.65 63.15
L 70.65 60.25
M 70.65 67.7
L 70.65 64.4
Q 71 64.05 71.65 64.05 73.45 64.05 73.45 65.95 73.45 67.05 73 67.55 72.55 68.1 71.5 68.1 70.95 68.1 70.65 67.7
M 37.7 62.8
Q 36.65 62.8 36.05 63.5
L 36.05 62.9 34.6 62.9 34.6 69.2 36.05 69.2 36.05 65.65
Q 36.05 64.95 36.45 64.5 36.85 64.05 37.35 64.05 37.85 64.05 38.2 64.3
L 38.85 63.05
Q 38.45 62.8 37.7 62.8
M 40.25 63.75
Q 39.35 64.65 39.35 66.15 39.35 67.65 40.15 68.5 41 69.3 42.45 69.3 43.95 69.3 44.75 68.7
L 44.2 67.55
Q 43.65 68.1 42.65 68.1 41.85 68.1 41.4 67.7 40.9 67.25 40.85 66.5
L 45.35 66.5
Q 45.45 65.95 45.45 65.7 45.45 64.45 44.65 63.6 43.8 62.8 42.45 62.8 41.15 62.8 40.25 63.75
M 44 65.4
L 40.9 65.4
Q 41.2 64.05 42.45 64.05 43.85 64.05 44 65.4
M 29.45 62.9
L 29.45 69.2 30.9 69.2 30.9 65.65
Q 30.9 64.95 31.3 64.5 31.7 64.05 32.2 64.05 32.7 64.05 33.05 64.3
L 33.7 63.05
Q 33.3 62.8 32.55 62.8 31.5 62.8 30.9 63.5
L 30.9 62.9 29.45 62.9
M 21.2 64.1
L 21.2 62.9 19.5 62.9 19.5 61.1 18 61.65 18 62.9 17.3 62.9 17.3 64.1 18 64.1 18 67.3
Q 18 68.25 18.5 68.8 19 69.3 19.95 69.3 20.9 69.3 21.4 69.15
L 21.4 67.8
Q 20.95 68.1 20.45 68.1 19.9 68.1 19.7 67.8 19.5 67.5 19.5 66.85
L 19.5 64.1 21.2 64.1
M 28.25 65.7
Q 28.25 64.45 27.45 63.6 26.6 62.8 25.25 62.8 23.95 62.8 23.05 63.75 22.15 64.65 22.15 66.15 22.15 67.65 22.95 68.5 23.8 69.3 25.25 69.3 26.75 69.3 27.55 68.7
L 27 67.55
Q 26.45 68.1 25.45 68.1 24.65 68.1 24.2 67.7 23.7 67.25 23.65 66.5
L 28.15 66.5
Q 28.25 65.95 28.25 65.7
M 23.7 65.4
Q 24 64.05 25.25 64.05 26.65 64.05 26.8 65.4
L 23.7 65.4
M 40 49.4
L 40.45 48.25
Q 39.55 47.8 38.6 47.8 37.6 47.8 37 48.25 36.4 48.7 36.4 49.55 36.4 50.75 38 51.4 38.75 51.75 39 51.95 39.25 52.2 39.25 52.55 39.25 53.15 38.4 53.15 37.6 53.15 36.95 52.65
L 36.4 53.8
Q 37 54.1 37.4 54.2 37.75 54.3 38.4 54.3 39.5 54.3 40.15 53.8 40.8 53.3 40.8 52.45 40.8 51.8 40.4 51.3 40.05 50.85 39.25 50.55 38.4 50.2 38.15 50 37.9 49.8 37.9 49.6 37.9 48.95 38.65 48.95 39.55 48.95 40 49.4
M 30.95 49.3
Q 31.5 49.05 32.35 49.05 33.75 49.05 33.75 50.15 33.4 50.05 33.1 50.05 31.6 50.05 30.8 50.65 30 51.3 30 52.35 30 53.3 30.55 53.8 31.15 54.3 32.15 54.3 32.7 54.3 33.2 54.1 33.7 53.9 33.9 53.55 33.95 53.85 34.2 54.1 34.5 54.3 34.8 54.3 35.1 54.3 35.3 54.25 35.5 54.15 35.7 53.85 35.2 53.55 35.2 52.3
L 35.2 50.95
Q 35.2 49.1 34.55 48.45 33.85 47.8 32.45 47.8 31.4 47.8 30.65 48.15
L 30.95 49.3
M 33.75 51.25
L 33.75 51.85
Q 33.75 53.15 32.4 53.15 31.45 53.15 31.45 52.3 31.45 51.15 33.2 51.15 33.35 51.15 33.75 51.25
M 24.35 47.9
L 23.3 47.9 23.3 54.2 24.75 54.2 24.75 49.65
Q 24.95 49.4 25.35 49.2 25.7 49.05 26 49.05 26.7 49.05 27 49.4 27.35 49.75 27.35 50.55
L 27.35 54.2 28.8 54.2 28.8 50.35
Q 28.8 49.15 28.15 48.5 27.5 47.8 26.4 47.8 25.2 47.8 24.6 48.5
L 24.35 47.9
M 25.3 32.8
Q 24.25 32.8 23.5 33.15
L 23.8 34.3
Q 24.35 34.05 25.2 34.05 26.6 34.05 26.6 35.15 26.25 35.05 25.95 35.05 24.45 35.05 23.65 35.65 22.85 36.3 22.85 37.35 22.85 38.3 23.4 38.8 24 39.3 25 39.3 25.55 39.3 26.05 39.1 26.55 38.9 26.75 38.55 26.8 38.85 27.05 39.1 27.35 39.3 27.65 39.3 27.95 39.3 28.15 39.25 28.35 39.15 28.55 38.85 28.05 38.55 28.05 37.3
L 28.05 35.95
Q 28.05 34.1 27.4 33.45 26.7 32.8 25.3 32.8
M 26.05 36.15
Q 26.2 36.15 26.6 36.25
L 26.6 36.85
Q 26.6 38.15 25.25 38.15 24.3 38.15 24.3 37.3 24.3 36.15 26.05 36.15
M 35.15 33
Q 34.7 33.2 34.4 33.5 33.75 32.8 32.5 32.8 31.55 32.8 30.95 33.5
L 30.65 32.9 29.65 32.9 29.65 39.2 31.1 39.2 31.1 34.7
Q 31.25 34.45 31.6 34.25 31.9 34.05 32.2 34.05 32.7 34.05 33 34.3 33.25 34.6 33.25 35.05
L 33.25 39.2 34.75 39.2 34.75 34.65
Q 34.85 34.4 35.15 34.25 35.45 34.05 35.8 34.05 36.9 34.05 36.9 35.25
L 36.9 39.2 38.35 39.2 38.35 35.05
Q 38.35 34 37.8 33.4 37.2 32.8 36.15 32.8 35.65 32.8 35.15 33
M 16.15 37.2
Q 16.2 38.2 16.85 38.75 17.55 39.3 18.6 39.3 20.2 39.3 20.95 38.5 21.65 37.65 21.65 35.95
L 21.65 30.6 20.15 30.6 20.15 36
Q 20.15 37 19.8 37.5 19.5 37.95 18.75 37.95 17.7 37.95 17.5 37.2
L 16.15 37.2
M 75.55 47.8
Q 74.2 47.8 73.35 48.7 72.55 49.6 72.55 51.05 72.55 52.55 73.35 53.45 74.1 54.3 75.55 54.3 76.95 54.3 77.75 53.45 78.55 52.55 78.55 51.05 78.55 49.55 77.75 48.65 77 47.8 75.55 47.8
M 74.05 51.05
Q 74.05 50.1 74.45 49.55 74.85 49 75.55 49 77.05 49 77.05 51.05 77.05 52.05 76.65 52.6 76.25 53.1 75.55 53.1 74.05 53.1 74.05 51.05
M 67.85 48.25
Q 66.95 47.8 66 47.8 65 47.8 64.4 48.25 63.8 48.7 63.8 49.55 63.8 50.75 65.4 51.4 66.15 51.75 66.4 51.95 66.65 52.2 66.65 52.55 66.65 53.15 65.8 53.15 65 53.15 64.35 52.65
L 63.8 53.8
Q 64.4 54.1 64.8 54.2 65.15 54.3 65.8 54.3 66.9 54.3 67.55 53.8 68.2 53.3 68.2 52.45 68.2 51.8 67.8 51.3 67.45 50.85 66.65 50.55 65.8 50.2 65.55 50 65.3 49.8 65.3 49.6 65.3 48.95 66.05 48.95 66.95 48.95 67.4 49.4
L 67.85 48.25
M 65.7 32.8
Q 64.35 32.8 63.5 33.7 62.7 34.6 62.7 36.05 62.7 37.55 63.5 38.45 64.25 39.3 65.7 39.3 67.1 39.3 67.9 38.45 68.7 37.55 68.7 36.05 68.7 34.55 67.9 33.65 67.15 32.8 65.7 32.8
M 64.6 34.55
Q 65 34 65.7 34 67.2 34 67.2 36.05 67.2 37.05 66.8 37.6 66.4 38.1 65.7 38.1 64.2 38.1 64.2 36.05 64.2 35.1 64.6 34.55
M 74.25 33.85
L 74.95 33.35 73.95 32.45 73.35 33.1
Q 72.8 32.8 71.95 32.8 70.85 32.8 70.15 33.45 69.4 34.1 69.4 35.1 69.4 36.4 70.45 37.1 70.15 37.25 69.9 37.55 69.65 37.85 69.65 38.15 69.65 39.25 71.15 39.25 71.4 39.25 71.85 39.15 72.35 39.1 72.6 39.1 73.5 39.1 73.5 39.65 73.5 40 73.1 40.2 72.7 40.35 72.05 40.35 71.1 40.35 70.35 39.65
L 69.4 40.8
Q 70.6 41.65 72.05 41.65 73.25 41.65 74.1 41.1 74.95 40.6 74.95 39.65 74.95 37.9 72.8 37.9 72.5 37.9 72.1 38 71.65 38.1 71.45 38.1 71.05 38.1 71.05 37.85 71.05 37.7 71.35 37.6 71.6 37.45 71.65 37.45
L 71.9 37.5
Q 72.15 37.55 72.3 37.55 73.3 37.55 73.95 36.9 74.6 36.25 74.6 35.15 74.6 34.4 74.25 33.85
M 70.9 35.15
Q 70.9 34.65 71.2 34.3 71.5 34 72 34 72.5 34 72.8 34.35 73.1 34.65 73.1 35.15 73.1 35.7 72.85 36.05 72.55 36.35 72 36.35 71.5 36.35 71.2 36 70.9 35.7 70.9 35.15
M 59.85 47.8
Q 58.8 47.8 58.05 48.15
L 58.35 49.3
Q 58.9 49.05 59.75 49.05 61.15 49.05 61.15 50.15 60.8 50.05 60.5 50.05 59 50.05 58.2 50.65 57.4 51.3 57.4 52.35 57.4 53.3 57.95 53.8 58.55 54.3 59.55 54.3 60.1 54.3 60.6 54.1 61.1 53.9 61.3 53.55 61.35 53.85 61.6 54.1 61.9 54.3 62.2 54.3 62.5 54.3 62.7 54.25 62.9 54.15 63.1 53.85 62.6 53.55 62.6 52.3
L 62.6 50.95
Q 62.6 49.1 61.95 48.45 61.25 47.8 59.85 47.8
M 61.15 51.25
L 61.15 51.85
Q 61.15 53.15 59.8 53.15 58.85 53.15 58.85 52.3 58.85 51.15 60.6 51.15 60.75 51.15 61.15 51.25
M 52.15 47.9
L 50.7 47.9 50.7 52
Q 50.7 54.3 52.9 54.3 53.35 54.3 53.9 54.15 54.4 53.95 54.75 53.7
L 54.75 54.2 56.2 54.2 56.2 47.9 54.75 47.9 54.75 52.25
Q 54.6 52.6 54.15 52.85 53.75 53.1 53.25 53.1 52.15 53.1 52.15 51.9
L 52.15 47.9
M 48.3 49.05
Q 48.8 49.05 49.15 49.3
L 49.8 48.05
Q 49.4 47.8 48.65 47.8 47.6 47.8 47 48.5
L 47 47.9 45.55 47.9 45.55 54.2 47 54.2 47 50.65
Q 47 49.95 47.4 49.5 47.8 49.05 48.3 49.05
M 45.95 34.15
L 46.75 34.15 46.75 39.2 48.2 39.2 48.2 32.9 45.95 32.9 45.95 34.15
M 43.3 35.15
Q 42.95 35.05 42.65 35.05 41.15 35.05 40.35 35.65 39.55 36.3 39.55 37.35 39.55 38.3 40.1 38.8 40.7 39.3 41.7 39.3 42.25 39.3 42.75 39.1 43.25 38.9 43.45 38.55 43.5 38.85 43.75 39.1 44.05 39.3 44.35 39.3 44.65 39.3 44.85 39.25 45.05 39.15 45.25 38.85 44.75 38.55 44.75 37.3
L 44.75 35.95
Q 44.75 34.1 44.1 33.45 43.4 32.8 42 32.8 40.95 32.8 40.2 33.15
L 40.5 34.3
Q 41.05 34.05 41.9 34.05 43.3 34.05 43.3 35.15
M 42.75 36.15
Q 42.9 36.15 43.3 36.25
L 43.3 36.85
Q 43.3 38.15 41.95 38.15 41 38.15 41 37.3 41 36.15 42.75 36.15
M 48.1 30.75
Q 47.85 30.5 47.5 30.5 47.15 30.5 46.9 30.75 46.65 31 46.65 31.35 46.65 31.7 46.9 31.95 47.15 32.2 47.5 32.2 47.85 32.2 48.1 31.95 48.35 31.7 48.35 31.35 48.35 31 48.1 30.75
M 58.7 32.9
L 58.7 34.15 59.85 34.15 59.85 39.1
Q 59.85 39.8 59.4 40.1 59 40.35 57.85 40.35
L 57.85 41.65
Q 59.6 41.65 60.45 41.05 61.3 40.4 61.3 39.05
L 61.3 32.9 58.7 32.9
M 51.15 36.4
Q 51.9 36.75 52.15 36.95 52.4 37.2 52.4 37.55 52.4 38.15 51.55 38.15 50.75 38.15 50.1 37.65
L 49.55 38.8
Q 50.15 39.1 50.55 39.2 50.9 39.3 51.55 39.3 52.65 39.3 53.3 38.8 53.95 38.3 53.95 37.45 53.95 36.8 53.55 36.3 53.2 35.85 52.4 35.55 51.55 35.2 51.3 35 51.05 34.8 51.05 34.6 51.05 33.95 51.8 33.95 52.7 33.95 53.15 34.4
L 53.6 33.25
Q 52.7 32.8 51.75 32.8 50.75 32.8 50.15 33.25 49.55 33.7 49.55 34.55 49.55 35.75 51.15 36.4
M 60.5 30.5
Q 60.15 30.5 59.9 30.75 59.65 31 59.65 31.35 59.65 31.7 59.9 31.95 60.15 32.2 60.5 32.2 60.85 32.2 61.1 31.95 61.35 31.7 61.35 31.35 61.35 31 61.1 30.75 60.85 30.5 60.5 30.5
M 92.8 62.9
L 92.8 64.15 93.6 64.15 93.6 69.2 95.05 69.2 95.05 62.9 92.8 62.9
M 81.1 67.3
L 81.1 65.95
Q 81.1 64.1 80.45 63.45 79.75 62.8 78.35 62.8 77.3 62.8 76.55 63.15
L 76.85 64.3
Q 77.4 64.05 78.25 64.05 79.65 64.05 79.65 65.15 79.3 65.05 79 65.05 77.5 65.05 76.7 65.65 75.9 66.3 75.9 67.35 75.9 68.3 76.45 68.8 77.05 69.3 78.05 69.3 78.6 69.3 79.1 69.1 79.6 68.9 79.8 68.55 79.85 68.85 80.1 69.1 80.4 69.3 80.7 69.3 81 69.3 81.2 69.25 81.4 69.15 81.6 68.85 81.1 68.55 81.1 67.3
M 79.65 66.25
L 79.65 66.85
Q 79.65 68.15 78.3 68.15 77.35 68.15 77.35 67.3 77.35 66.15 79.1 66.15 79.25 66.15 79.65 66.25
M 90.3 63.1
Q 89.7 62.8 89 62.8 87.7 62.8 86.8 63.75 85.95 64.7 85.95 66.15 85.95 67.65 86.7 68.5 87.45 69.3 88.75 69.3 89.25 69.3 89.65 69.15 90.1 69 90.3 68.8
L 90.3 69.2 91.75 69.2 91.75 60.25 90.3 60.6 90.3 63.1
M 89.3 64.05
Q 89.8 64.05 90.3 64.4
L 90.3 67.7
Q 90.2 67.85 89.9 67.95 89.55 68.1 89.35 68.1 87.45 68.1 87.45 66.1 87.45 65.1 87.95 64.6 88.4 64.05 89.3 64.05
M 84.4 60.25
L 82.95 60.6 82.95 67.95
Q 82.95 69.3 83.95 69.3 84.75 69.3 85.1 68.65 84.4 68.45 84.4 67.3
L 84.4 60.25
M 94.95 60.75
Q 94.7 60.5 94.35 60.5 94 60.5 93.75 60.75 93.5 61 93.5 61.35 93.5 61.7 93.75 61.95 94 62.2 94.35 62.2 94.7 62.2 94.95 61.95 95.2 61.7 95.2 61.35 95.2 61 94.95 60.75
M 102.4 66.05
Q 102.4 64.55 101.6 63.65 100.85 62.8 99.4 62.8 98.05 62.8 97.2 63.7 96.4 64.6 96.4 66.05 96.4 67.55 97.2 68.45 97.95 69.3 99.4 69.3 100.8 69.3 101.6 68.45 102.4 67.55 102.4 66.05
M 100.9 66.05
Q 100.9 67.05 100.5 67.6 100.1 68.1 99.4 68.1 97.9 68.1 97.9 66.05 97.9 65.1 98.3 64.55 98.7 64 99.4 64 100.9 64 100.9 66.05
M 110 67.4
Q 109.6 67.4 109.3 67.7 108.95 68 108.95 68.45 108.95 68.85 109.3 69.2 109.6 69.5 110 69.5 110.45 69.5 110.75 69.2 111.1 68.85 111.1 68.45 111.1 68 110.75 67.7 110.45 67.4 110 67.4
M 107.6 67.45
Q 107.6 66.8 107.2 66.3 106.85 65.85 106.05 65.55 105.2 65.2 104.95 65 104.7 64.8 104.7 64.6 104.7 63.95 105.45 63.95 106.35 63.95 106.8 64.4
L 107.25 63.25
Q 106.35 62.8 105.4 62.8 104.4 62.8 103.8 63.25 103.2 63.7 103.2 64.55 103.2 65.75 104.8 66.4 105.55 66.75 105.8 66.95 106.05 67.2 106.05 67.55 106.05 68.15 105.2 68.15 104.4 68.15 103.75 67.65
L 103.2 68.8
Q 103.8 69.1 104.2 69.2 104.55 69.3 105.2 69.3 106.3 69.3 106.95 68.8 107.6 68.3 107.6 67.45
M 103.8 36
L 106.25 32.9 104.55 32.9 103.1 34.85 101.75 32.9 100.05 32.9 102.3 36 99.9 39.2 101.6 39.2 103.05 37.15 104.65 39.2 106.45 39.2 103.8 36
M 112.9 36.05
Q 112.9 34.55 112.1 33.65 111.35 32.8 109.9 32.8 108.55 32.8 107.7 33.7 106.9 34.6 106.9 36.05 106.9 37.55 107.7 38.45 108.45 39.3 109.9 39.3 111.3 39.3 112.1 38.45 112.9 37.55 112.9 36.05
M 108.4 36.05
Q 108.4 35.1 108.8 34.55 109.2 34 109.9 34 111.4 34 111.4 36.05 111.4 37.05 111 37.6 110.6 38.1 109.9 38.1 108.4 38.1 108.4 36.05
M 81.4 39.2
L 81.4 32.9 79.95 32.9 79.95 37.25
Q 79.8 37.6 79.35 37.85 78.95 38.1 78.45 38.1 77.35 38.1 77.35 36.9
L 77.35 32.9 75.9 32.9 75.9 37
Q 75.9 39.3 78.1 39.3 78.55 39.3 79.1 39.15 79.6 38.95 79.95 38.7
L 79.95 39.2 81.4 39.2
M 98.35 47.9
L 97.35 47.9 97.35 54.2 98.8 54.2 98.8 49.7
Q 98.95 49.45 99.3 49.25 99.6 49.05 99.9 49.05 100.4 49.05 100.7 49.3 100.95 49.6 100.95 50.05
L 100.95 54.2 102.45 54.2 102.45 49.65
Q 102.55 49.4 102.85 49.25 103.15 49.05 103.5 49.05 104.6 49.05 104.6 50.25
L 104.6 54.2 106.05 54.2 106.05 50.05
Q 106.05 49 105.5 48.4 104.9 47.8 103.85 47.8 103.35 47.8 102.85 48 102.4 48.2 102.1 48.5 101.45 47.8 100.2 47.8 99.25 47.8 98.65 48.5
L 98.35 47.9
M 95.35 48.6
Q 94.5 47.8 93.15 47.8 91.85 47.8 90.95 48.75 90.05 49.65 90.05 51.15 90.05 52.65 90.85 53.5 91.7 54.3 93.15 54.3 94.65 54.3 95.45 53.7
L 94.9 52.55
Q 94.35 53.1 93.35 53.1 92.55 53.1 92.1 52.7 91.6 52.25 91.55 51.5
L 96.05 51.5
Q 96.15 50.95 96.15 50.7 96.15 49.45 95.35 48.6
M 94.7 50.4
L 91.6 50.4
Q 91.9 49.05 93.15 49.05 94.55 49.05 94.7 50.4
M 85.25 47.9
L 83.8 47.9 83.8 52.25
Q 83.65 52.6 83.2 52.85 82.8 53.1 82.3 53.1 81.2 53.1 81.2 51.9
L 81.2 47.9 79.75 47.9 79.75 52
Q 79.75 54.3 81.95 54.3 82.4 54.3 82.95 54.15 83.45 53.95 83.8 53.7
L 83.8 54.2 85.25 54.2 85.25 47.9
M 83.5 33.75
Q 82.6 34.65 82.6 36.15 82.6 37.65 83.4 38.5 84.25 39.3 85.7 39.3 87.2 39.3 88 38.7
L 87.45 37.55
Q 86.9 38.1 85.9 38.1 85.1 38.1 84.65 37.7 84.15 37.25 84.1 36.5
L 88.6 36.5
Q 88.7 35.95 88.7 35.7 88.7 34.45 87.9 33.6 87.05 32.8 85.7 32.8 84.4 32.8 83.5 33.75
M 84.15 35.4
Q 84.45 34.05 85.7 34.05 87.1 34.05 87.25 35.4
L 84.15 35.4
M 96.65 32.9
L 96.65 34.15 97.45 34.15 97.45 39.2 98.9 39.2 98.9 32.9 96.65 32.9
M 95.2 30.25
L 93.75 30.6 93.75 37.95
Q 93.75 39.3 94.75 39.3 95.55 39.3 95.9 38.65 95.2 38.45 95.2 37.3
L 95.2 30.25
M 98.8 30.75
Q 98.55 30.5 98.2 30.5 97.85 30.5 97.6 30.75 97.35 31 97.35 31.35 97.35 31.7 97.6 31.95 97.85 32.2 98.2 32.2 98.55 32.2 98.8 31.95 99.05 31.7 99.05 31.35 99.05 31 98.8 30.75 Z"/>
</g>

<path id="Layer0_0_1_STROKES" stroke="#8CA8B8" stroke-width="1" stroke-linejoin="round" stroke-linecap="round" fill="none" d="
M 118.8 0.4
Q 122.9 0.4 125.8 3.35 128.75 6.25 128.75 10.35
L 128.75 91.95
Q 128.65 95.9 125.8 98.7 122.9 101.65 118.8 101.65
L 10.15 101.65
Q 6.05 101.65 3.15 98.7 0.35 95.9 0.25 91.95
L 0.25 10.35
Q 0.25 6.25 3.15 3.35 6.05 0.4 10.15 0.4
L 118.75 0.4"/>
</defs>

<g transform="matrix( 1, 0, 0, 1, 0,0) ">
<use xlink:href="#Layer0_0_FILL"/>

<use xlink:href="#Layer0_0_1_STROKES"/>
</g>
</svg>
