<svg xmlns="http://www.w3.org/2000/svg" xmlns:xlink="http://www.w3.org/1999/xlink" preserveAspectRatio="none" width="129" height="102" viewBox="0 0 129 102"><defs><g id="a"><path fill="#F66" d="M128.75 10.35q0-4.1-2.95-7-2.9-2.95-7-2.95H10.15q-4.1 0-7 2.95-2.9 2.9-2.9 7v81.6q.1 3.95 2.9 6.75 2.9 2.95 7 2.95H118.8q4.1 0 7-2.95 2.85-2.8 2.95-6.75v-81.6M98.2 30.5q.35 0 .6.25t.25.6q0 .35-.25.6t-.6.25q-.35 0-.6-.25t-.25-.6q0-.35.25-.6t.6-.25m-4.45.1l1.45-.35v7.05q0 1.15.7 1.35-.35.65-1.15.65-1 0-1-1.35V30.6m2.9 3.55V32.9h2.25v6.3h-1.45v-5.05h-.8m-14.05 2q0-1.5.9-2.4.9-.95 2.2-.95 1.35 0 2.2.8.8.85.8 2.1 0 .25-.1.8h-4.5q.05.75.55 1.2.45.4 1.25.4 1 0 1.55-.55L88 38.7q-.8.6-2.3.6-1.45 0-2.3-.8-.8-.85-.8-2.35m1.2 11.75h1.45v6.3H83.8v-.5q-.35.25-.85.45-.55.15-1 .15-2.2 0-2.2-2.3v-4.1h1.45v4q0 1.2 1.1 1.2.5 0 .9-.25.45-.25.6-.6V47.9m9.35-.1q1.35 0 2.2.8.8.85.8 2.1 0 .25-.1.8h-4.5q.05.75.55 1.2.45.4 1.25.4 1 0 1.55-.55l.55 1.15q-.8.6-2.3.6-1.45 0-2.3-.8-.8-.85-.8-2.35t.9-2.4q.9-.95 2.2-.95m4.2.1h1l.3.6q.6-.7 1.55-.7 1.25 0 1.9.7.3-.3.75-.5.5-.2 1-.2 1.05 0 1.65.6.55.6.55 1.65v4.15h-1.45v-3.95q0-1.2-1.1-1.2-.35 0-.65.2-.3.15-.4.4v4.55h-1.5v-4.15q0-.45-.25-.75-.3-.25-.8-.25-.3 0-.6.2-.35.2-.5.45v4.5h-1.45v-6.3m-15.95-15v6.3h-1.45v-.5q-.35.25-.85.45-.55.15-1 .15-2.2 0-2.2-2.3v-4.1h1.45v4q0 1.2 1.1 1.2.5 0 .9-.25.45-.25.6-.6V32.9h1.45m30.7.75q.8.9.8 2.4t-.8 2.4q-.8.85-2.2.85-1.45 0-2.2-.85-.8-.9-.8-2.4 0-1.45.8-2.35.85-.9 2.2-.9 1.45 0 2.2.85m-5.85-.75L103.8 36l2.65 3.2h-1.8l-1.6-2.05-1.45 2.05h-1.7l2.4-3.2-2.25-3.1h1.7l1.35 1.95 1.45-1.95h1.7m.95 33.4q.4.5.4 1.15 0 .85-.65 1.35-.65.5-1.75.5-.65 0-1-.1-.4-.1-1-.4l.55-1.15q.65.5 1.45.5.85 0 .85-.6 0-.35-.25-.6-.25-.2-1-.55-1.6-.65-1.6-1.85 0-.85.6-1.3.6-.45 1.6-.45.95 0 1.85.45l-.45 1.15q-.45-.45-1.35-.45-.75 0-.75.65 0 .2.25.4t1.1.55q.8.3 1.15.75m2.1 1.4q.3-.3.7-.3.45 0 .75.3.35.3.35.75 0 .4-.35.75-.3.3-.75.3-.4 0-.7-.3-.35-.35-.35-.75 0-.45.35-.75m-7.7-4.05q.8.9.8 2.4t-.8 2.4q-.8.85-2.2.85-1.45 0-2.2-.85-.8-.9-.8-2.4 0-1.45.8-2.35.85-.9 2.2-.9 1.45 0 2.2.85m-7.25-3.15q.35 0 .6.25t.25.6q0 .35-.25.6t-.6.25q-.35 0-.6-.25t-.25-.6q0-.35.25-.6t.6-.25m-11.4.1l1.45-.35v7.05q0 1.15.7 1.35-.35.65-1.15.65-1 0-1-1.35V60.6M89 62.8q.7 0 1.3.3v-2.5l1.45-.35v8.95H90.3v-.4q-.2.2-.65.35-.4.15-.9.15-1.3 0-2.05-.8-.75-.85-.75-2.35 0-1.45.85-2.4.9-.95 2.2-.95m-7.9 3.15v1.35q0 1.25.5 1.55-.2.3-.4.4-.2.05-.5.05t-.6-.2q-.25-.25-.3-.55-.2.35-.7.55-.5.2-1.05.2-1 0-1.6-.5-.55-.5-.55-1.45 0-1.05.8-1.7.8-.6 2.3-.6.3 0 .65.1 0-1.1-1.4-1.1-.85 0-1.4.25l-.3-1.15q.75-.35 1.8-.35 1.4 0 2.1.65.65.65.65 2.5m11.7-1.8V62.9h2.25v6.3H93.6v-5.05h-.8m-32.9-33.4q.25-.25.6-.25t.6.25q.25.25.25.6t-.25.6q-.25.25-.6.25t-.6-.25q-.25-.25-.25-.6t.25-.6m-7.75 6.2q-.25-.2-1-.55-1.6-.65-1.6-1.85 0-.85.6-1.3.6-.45 1.6-.45.95 0 1.85.45l-.45 1.15q-.45-.45-1.35-.45-.75 0-.75.65 0 .2.25.4t1.1.55q.8.3 1.15.75.4.5.4 1.15 0 .85-.65 1.35-.65.5-1.75.5-.65 0-1-.1-.4-.1-1-.4l.55-1.15q.65.5 1.45.5.85 0 .85-.6 0-.35-.25-.6m6.55-2.8V32.9h2.6v6.15q0 1.35-.85 2-.85.6-2.6.6v-1.3q1.15 0 1.55-.25.45-.3.45-1v-4.95H58.7M47.5 30.5q.35 0 .6.25t.25.6q0 .35-.25.6t-.6.25q-.35 0-.6-.25t-.25-.6q0-.35.25-.6t.6-.25m-4.85 4.55q.3 0 .65.1 0-1.1-1.4-1.1-.85 0-1.4.25l-.3-1.15q.75-.35 1.8-.35 1.4 0 2.1.65.65.65.65 2.5v1.35q0 1.25.5 1.55-.2.3-.4.4-.2.05-.5.05t-.6-.2q-.25-.25-.3-.55-.2.35-.7.55-.5.2-1.05.2-1 0-1.6-.5-.55-.5-.55-1.45 0-1.05.8-1.7.8-.6 2.3-.6m4.1-.9h-.8V32.9h2.25v6.3h-1.45v-5.05m2.4 15.15q-.35-.25-.85-.25t-.9.45q-.4.45-.4 1.15v3.55h-1.45v-6.3H47v.6q.6-.7 1.65-.7.75 0 1.15.25l-.65 1.25m1.55-1.4h1.45v4q0 1.2 1.1 1.2.5 0 .9-.25.45-.25.6-.6V47.9h1.45v6.3h-1.45v-.5q-.35.25-.85.45-.55.15-1 .15-2.2 0-2.2-2.3v-4.1m7.35.25q.75-.35 1.8-.35 1.4 0 2.1.65.65.65.65 2.5v1.35q0 1.25.5 1.55-.2.3-.4.4-.2.05-.5.05t-.6-.2q-.25-.25-.3-.55-.2.35-.7.55-.5.2-1.05.2-1 0-1.6-.5-.55-.5-.55-1.45 0-1.05.8-1.7.8-.6 2.3-.6.3 0 .65.1 0-1.1-1.4-1.1-.85 0-1.4.25l-.3-1.15m16.9-14.8l-.7.5q.35.55.35 1.3 0 1.1-.65 1.75-.65.65-1.65.65-.15 0-.4-.05l-.25-.05q-.05 0-.3.15-.3.1-.3.25 0 .25.4.25.2 0 .65-.1.4-.1.7-.1 2.15 0 2.15 1.75 0 .95-.85 1.45-.85.55-2.05.55-1.45 0-2.65-.85l.95-1.15q.75.7 1.7.7.65 0 1.05-.15.4-.2.4-.55 0-.55-.9-.55-.25 0-.75.05-.45.1-.7.1-1.5 0-1.5-1.1 0-.3.25-.6t.55-.45q-1.05-.7-1.05-2 0-1 .75-1.65.7-.65 1.8-.65.85 0 1.4.3l.6-.65 1 .9m-11.45.35q.85-.9 2.2-.9 1.45 0 2.2.85.8.9.8 2.4t-.8 2.4q-.8.85-2.2.85-1.45 0-2.2-.85-.8-.9-.8-2.4 0-1.45.8-2.35M66 47.8q.95 0 1.85.45l-.45 1.15q-.45-.45-1.35-.45-.75 0-.75.65 0 .2.25.4t1.1.55q.8.3 1.15.75.4.5.4 1.15 0 .85-.65 1.35-.65.5-1.75.5-.65 0-1-.1-.4-.1-1-.4l.55-1.15q.65.5 1.45.5.85 0 .85-.6 0-.35-.25-.6-.25-.2-1-.55-1.6-.65-1.6-1.85 0-.85.6-1.3.6-.45 1.6-.45m7.35.9q.85-.9 2.2-.9 1.45 0 2.2.85.8.9.8 2.4t-.8 2.4q-.8.85-2.2.85-1.45 0-2.2-.85-.8-.9-.8-2.4 0-1.45.8-2.35m-56.5-9.95q-.65-.55-.7-1.55h1.35q.2.75 1.25.75.75 0 1.05-.45.35-.5.35-1.5v-5.4h1.5v5.35q0 1.7-.7 2.55-.75.8-2.35.8-1.05 0-1.75-.55M34.4 33.5q.3-.3.75-.5.5-.2 1-.2 1.05 0 1.65.6.55.6.55 1.65v4.15H36.9v-3.95q0-1.2-1.1-1.2-.35 0-.65.2-.3.15-.4.4v4.55h-1.5v-4.15q0-.45-.25-.75-.3-.25-.8-.25-.3 0-.6.2-.35.2-.5.45v4.5h-1.45v-6.3h1l.3.6q.6-.7 1.55-.7 1.25 0 1.9.7m-10.9-.35q.75-.35 1.8-.35 1.4 0 2.1.65.65.65.65 2.5v1.35q0 1.25.5 1.55-.2.3-.4.4-.2.05-.5.05t-.6-.2q-.25-.25-.3-.55-.2.35-.7.55-.5.2-1.05.2-1 0-1.6-.5-.55-.5-.55-1.45 0-1.05.8-1.7.8-.6 2.3-.6.3 0 .65.1 0-1.1-1.4-1.1-.85 0-1.4.25l-.3-1.15m-.2 14.75h1.05l.25.6q.6-.7 1.8-.7 1.1 0 1.75.7.65.65.65 1.85v3.85h-1.45v-3.65q0-.8-.35-1.15-.3-.35-1-.35-.3 0-.65.15-.4.2-.6.45v4.55H23.3v-6.3m9.05 1.15q-.85 0-1.4.25l-.3-1.15q.75-.35 1.8-.35 1.4 0 2.1.65.65.65.65 2.5v1.35q0 1.25.5 1.55-.2.3-.4.4-.2.05-.5.05t-.6-.2q-.25-.25-.3-.55-.2.35-.7.55-.5.2-1.05.2-1 0-1.6-.5-.55-.5-.55-1.45 0-1.05.8-1.7.8-.6 2.3-.6.3 0 .65.1 0-1.1-1.4-1.1m8.1-.8L40 49.4q-.45-.45-1.35-.45-.75 0-.75.65 0 .2.25.4t1.1.55q.8.3 1.15.75.4.5.4 1.15 0 .85-.65 1.35-.65.5-1.75.5-.65 0-1-.1-.4-.1-1-.4l.55-1.15q.65.5 1.45.5.85 0 .85-.6 0-.35-.25-.6-.25-.2-1-.55-1.6-.65-1.6-1.85 0-.85.6-1.3.6-.45 1.6-.45.95 0 1.85.45m-13 15.35q.8.85.8 2.1 0 .25-.1.8h-4.5q.05.75.55 1.2.45.4 1.25.4 1 0 1.55-.55l.55 1.15q-.8.6-2.3.6-1.45 0-2.3-.8-.8-.85-.8-2.35t.9-2.4q.9-.95 2.2-.95 1.35 0 2.2.8m-6.25-.7v1.2h-1.7v2.75q0 .65.2.95.2.3.75.3.5 0 .95-.3v1.35q-.5.15-1.45.15t-1.45-.5q-.5-.55-.5-1.5v-3.2h-.7v-1.2h.7v-1.25l1.5-.55v1.8h1.7m8.25 6.3v-6.3h1.45v.6q.6-.7 1.65-.7.75 0 1.15.25l-.65 1.25q-.35-.25-.85-.25t-.9.45q-.4.45-.4 1.15v3.55h-1.45m9.9-3.05q0-1.5.9-2.4.9-.95 2.2-.95 1.35 0 2.2.8.8.85.8 2.1 0 .25-.1.8h-4.5q.05.75.55 1.2.45.4 1.25.4 1 0 1.55-.55l.55 1.15q-.8.6-2.3.6-1.45 0-2.3-.8-.8-.85-.8-2.35m-3.3-2.65q.6-.7 1.65-.7.75 0 1.15.25l-.65 1.25q-.35-.25-.85-.25t-.9.45q-.4.45-.4 1.15v3.55H34.6v-6.3h1.45v.6m33.1-2.9l1.5-.35v2.9q.55-.35 1.25-.35 1.4 0 2.25.9.85.85.85 2.2 0 1.6-.85 2.5-.85.9-2.3.9-.9 0-1.5-.45l-.35.45h-.85v-8.7m-4.95 2.65l-.45 1.15q-.45-.45-1.35-.45-.75 0-.75.65 0 .2.25.4t1.1.55q.8.3 1.15.75.4.5.4 1.15 0 .85-.65 1.35-.65.5-1.75.5-.65 0-1-.1-.4-.1-1-.4l.55-1.15q.65.5 1.45.5.85 0 .85-.6 0-.35-.25-.6-.25-.2-1-.55-1.6-.65-1.6-1.85 0-.85.6-1.3.6-.45 1.6-.45.95 0 1.85.45m-16.25.25q.6-.7 1.8-.7 1.1 0 1.75.7.65.65.65 1.85v3.85H50.7v-3.65q0-.8-.35-1.15-.3-.35-1-.35-.3 0-.65.15-.4.2-.6.45v4.55h-1.45v-6.3h1.05l.25.6m8.4-.7q1.45 0 2.2.85.8.9.8 2.4t-.8 2.4q-.8.85-2.2.85-1.45 0-2.2-.85-.8-.9-.8-2.4 0-1.45.8-2.35.85-.9 2.2-.9m1.5 3.25q0-2.05-1.5-2.05-.7 0-1.1.55-.4.55-.4 1.5 0 2.05 1.5 2.05.7 0 1.1-.5.4-.55.4-1.55m12.8-1.65v3.3q.3.4.85.4 1.05 0 1.5-.55.45-.5.45-1.6 0-1.9-1.8-1.9-.65 0-1 .35m-29.75 1H44q-.15-1.35-1.55-1.35-1.25 0-1.55 1.35m-15.65-1.35q-1.25 0-1.55 1.35h3.1q-.15-1.35-1.55-1.35m8.5-12.2v-.6q-.4-.1-.55-.1-1.75 0-1.75 1.15 0 .85.95.85 1.35 0 1.35-1.3m-7.15-15.6q-.4-.1-.55-.1-1.75 0-1.75 1.15 0 .85.95.85 1.35 0 1.35-1.3v-.6m47.85 13.3q-.4.55-.4 1.5 0 2.05 1.5 2.05.7 0 1.1-.5.4-.55.4-1.55 0-2.05-1.5-2.05-.7 0-1.1.55M65.7 34q-.7 0-1.1.55-.4.55-.4 1.5 0 2.05 1.5 2.05.7 0 1.1-.5.4-.55.4-1.55 0-2.05-1.5-2.05m5.5.3q-.3.35-.3.85 0 .55.3.85.3.35.8.35.55 0 .85-.3.25-.35.25-.9 0-.5-.3-.8-.3-.35-.8-.35t-.8.3M61.15 51.85v-.6q-.4-.1-.55-.1-1.75 0-1.75 1.15 0 .85.95.85 1.35 0 1.35-1.3M43.3 36.25q-.4-.1-.55-.1-1.75 0-1.75 1.15 0 .85.95.85 1.35 0 1.35-1.3v-.6m36.35 30.6v-.6q-.4-.1-.55-.1-1.75 0-1.75 1.15 0 .85.95.85 1.35 0 1.35-1.3M90.3 64.4q-.5-.35-1-.35-.9 0-1.35.55-.5.5-.5 1.5 0 2 1.9 2 .2 0 .55-.15.3-.1.4-.25v-3.3m10.2 3.2q.4-.55.4-1.55 0-2.05-1.5-2.05-.7 0-1.1.55-.4.55-.4 1.5 0 2.05 1.5 2.05.7 0 1.1-.5m8.3-33.05q-.4.55-.4 1.5 0 2.05 1.5 2.05.7 0 1.1-.5.4-.55.4-1.55 0-2.05-1.5-2.05-.7 0-1.1.55M91.6 50.4h3.1q-.15-1.35-1.55-1.35-1.25 0-1.55 1.35m-5.9-16.35q-1.25 0-1.55 1.35h3.1q-.15-1.35-1.55-1.35z"/><path d="M58.55 63.65q-.75-.85-2.2-.85-1.35 0-2.2.9-.8.9-.8 2.35 0 1.5.8 2.4.75.85 2.2.85 1.4 0 2.2-.85.8-.9.8-2.4t-.8-2.4m-2.2.35q1.5 0 1.5 2.05 0 1-.4 1.55-.4.5-1.1.5-1.5 0-1.5-2.05 0-.95.4-1.5t1.1-.55m-6.6-1.2q-1.2 0-1.8.7l-.25-.6h-1.05v6.3h1.45v-4.55q.2-.25.6-.45.35-.15.65-.15.7 0 1 .35.35.35.35 1.15v3.65h1.45v-3.85q0-1.2-.65-1.85-.65-.7-1.75-.7m14 1.6l.45-1.15q-.9-.45-1.85-.45-1 0-1.6.45-.6.45-.6 1.3 0 1.2 1.6 1.85.75.35 1 .55.25.25.25.6 0 .6-.85.6-.8 0-1.45-.5l-.55 1.15q.6.3 1 .4.35.1 1 .1 1.1 0 1.75-.5.65-.5.65-1.35 0-.65-.4-1.15-.35-.45-1.15-.75-.85-.35-1.1-.55-.25-.2-.25-.4 0-.65.75-.65.9 0 1.35.45m6.9-4.15l-1.5.35v8.7H70l.35-.45q.6.45 1.5.45 1.45 0 2.3-.9.85-.9.85-2.5 0-1.35-.85-2.2-.85-.9-2.25-.9-.7 0-1.25.35v-2.9m0 7.45v-3.3q.35-.35 1-.35 1.8 0 1.8 1.9 0 1.1-.45 1.6-.45.55-1.5.55-.55 0-.85-.4M37.7 62.8q-1.05 0-1.65.7v-.6H34.6v6.3h1.45v-3.55q0-.7.4-1.15.4-.45.9-.45t.85.25l.65-1.25q-.4-.25-1.15-.25m2.55.95q-.9.9-.9 2.4t.8 2.35q.85.8 2.3.8 1.5 0 2.3-.6l-.55-1.15q-.55.55-1.55.55-.8 0-1.25-.4-.5-.45-.55-1.2h4.5q.1-.55.1-.8 0-1.25-.8-2.1-.85-.8-2.2-.8-1.3 0-2.2.95M44 65.4h-3.1q.3-1.35 1.55-1.35 1.4 0 1.55 1.35m-14.55-2.5v6.3h1.45v-3.55q0-.7.4-1.15.4-.45.9-.45t.85.25l.65-1.25q-.4-.25-1.15-.25-1.05 0-1.65.7v-.6h-1.45m-8.25 1.2v-1.2h-1.7v-1.8l-1.5.55v1.25h-.7v1.2h.7v3.2q0 .95.5 1.5.5.5 1.45.5t1.45-.15V67.8q-.45.3-.95.3-.55 0-.75-.3-.2-.3-.2-.95V64.1h1.7m7.05 1.6q0-1.25-.8-2.1-.85-.8-2.2-.8-1.3 0-2.2.95-.9.9-.9 2.4t.8 2.35q.85.8 2.3.8 1.5 0 2.3-.6L27 67.55q-.55.55-1.55.55-.8 0-1.25-.4-.5-.45-.55-1.2h4.5q.1-.55.1-.8m-4.55-.3q.3-1.35 1.55-1.35 1.4 0 1.55 1.35h-3.1m16.3-16l.45-1.15q-.9-.45-1.85-.45-1 0-1.6.45-.6.45-.6 1.3 0 1.2 1.6 1.85.75.35 1 .55.25.25.25.6 0 .6-.85.6-.8 0-1.45-.5l-.55 1.15q.6.3 1 .4.35.1 1 .1 1.1 0 1.75-.5.65-.5.65-1.35 0-.65-.4-1.15-.35-.45-1.15-.75-.85-.35-1.1-.55-.25-.2-.25-.4 0-.65.75-.65.9 0 1.35.45m-9.05-.1q.55-.25 1.4-.25 1.4 0 1.4 1.1-.35-.1-.65-.1-1.5 0-2.3.6-.8.65-.8 1.7 0 .95.55 1.45.6.5 1.6.5.55 0 1.05-.2t.7-.55q.05.3.3.55.3.2.6.2t.5-.05q.2-.1.4-.4-.5-.3-.5-1.55v-1.35q0-1.85-.65-2.5-.7-.65-2.1-.65-1.05 0-1.8.35l.3 1.15m2.8 1.95v.6q0 1.3-1.35 1.3-.95 0-.95-.85 0-1.15 1.75-1.15.15 0 .55.1m-9.4-3.35H23.3v6.3h1.45v-4.55q.2-.25.6-.45.35-.15.65-.15.7 0 1 .35.35.35.35 1.15v3.65h1.45v-3.85q0-1.2-.65-1.85-.65-.7-1.75-.7-1.2 0-1.8.7l-.25-.6m.95-15.1q-1.05 0-1.8.35l.3 1.15q.55-.25 1.4-.25 1.4 0 1.4 1.1-.35-.1-.65-.1-1.5 0-2.3.6-.8.65-.8 1.7 0 .95.55 1.45.6.5 1.6.5.55 0 1.05-.2t.7-.55q.05.3.3.55.3.2.6.2t.5-.05q.2-.1.4-.4-.5-.3-.5-1.55v-1.35q0-1.85-.65-2.5-.7-.65-2.1-.65m.75 3.35q.15 0 .55.1v.6q0 1.3-1.35 1.3-.95 0-.95-.85 0-1.15 1.75-1.15m9.1-3.15q-.45.2-.75.5-.65-.7-1.9-.7-.95 0-1.55.7l-.3-.6h-1v6.3h1.45v-4.5q.15-.25.5-.45.3-.2.6-.2.5 0 .8.25.25.3.25.75v4.15h1.5v-4.55q.1-.25.4-.4.3-.2.65-.2 1.1 0 1.1 1.2v3.95h1.45v-4.15q0-1.05-.55-1.65-.6-.6-1.65-.6-.5 0-1 .2m-19 4.2q.05 1 .7 1.55.7.55 1.75.55 1.6 0 2.35-.8.7-.85.7-2.55V30.6h-1.5V36q0 1-.35 1.5-.3.45-1.05.45-1.05 0-1.25-.75h-1.35m59.4 10.6q-1.35 0-2.2.9-.8.9-.8 2.35 0 1.5.8 2.4.75.85 2.2.85 1.4 0 2.2-.85.8-.9.8-2.4t-.8-2.4q-.75-.85-2.2-.85m-1.5 3.25q0-.95.4-1.5t1.1-.55q1.5 0 1.5 2.05 0 1-.4 1.55-.4.5-1.1.5-1.5 0-1.5-2.05m-6.2-2.8q-.9-.45-1.85-.45-1 0-1.6.45-.6.45-.6 1.3 0 1.2 1.6 1.85.75.35 1 .55.25.25.25.6 0 .6-.85.6-.8 0-1.45-.5l-.55 1.15q.6.3 1 .4.35.1 1 .1 1.1 0 1.75-.5.65-.5.65-1.35 0-.65-.4-1.15-.35-.45-1.15-.75-.85-.35-1.1-.55-.25-.2-.25-.4 0-.65.75-.65.9 0 1.35.45l.45-1.15M65.7 32.8q-1.35 0-2.2.9-.8.9-.8 2.35 0 1.5.8 2.4.75.85 2.2.85 1.4 0 2.2-.85.8-.9.8-2.4t-.8-2.4q-.75-.85-2.2-.85m-1.1 1.75Q65 34 65.7 34q1.5 0 1.5 2.05 0 1-.4 1.55-.4.5-1.1.5-1.5 0-1.5-2.05 0-.95.4-1.5m9.65-.7l.7-.5-1-.9-.6.65q-.55-.3-1.4-.3-1.1 0-1.8.65-.75.65-.75 1.65 0 1.3 1.05 2-.3.15-.55.45-.25.3-.25.6 0 1.1 1.5 1.1.25 0 .7-.1.5-.05.75-.05.9 0 .9.55 0 .35-.4.55-.4.15-1.05.15-.95 0-1.7-.7l-.95 1.15q1.2.85 2.65.85 1.2 0 2.05-.55.85-.5.85-1.45 0-1.75-2.15-1.75-.3 0-.7.1-.45.1-.65.1-.4 0-.4-.25 0-.15.3-.25.25-.15.3-.15l.25.05q.25.05.4.05 1 0 1.65-.65.65-.65.65-1.75 0-.75-.35-1.3m-3.35 1.3q0-.5.3-.85.3-.3.8-.3t.8.35q.3.3.3.8 0 .55-.25.9-.3.3-.85.3-.5 0-.8-.35-.3-.3-.3-.85M59.85 47.8q-1.05 0-1.8.35l.3 1.15q.55-.25 1.4-.25 1.4 0 1.4 1.1-.35-.1-.65-.1-1.5 0-2.3.6-.8.65-.8 1.7 0 .95.55 1.45.6.5 1.6.5.55 0 1.05-.2t.7-.55q.05.3.3.55.3.2.6.2t.5-.05q.2-.1.4-.4-.5-.3-.5-1.55v-1.35q0-1.85-.65-2.5-.7-.65-2.1-.65m1.3 3.45v.6q0 1.3-1.35 1.3-.95 0-.95-.85 0-1.15 1.75-1.15.15 0 .55.1m-9-3.35H50.7V52q0 2.3 2.2 2.3.45 0 1-.15.5-.2.85-.45v.5h1.45v-6.3h-1.45v4.35q-.15.35-.6.6-.4.25-.9.25-1.1 0-1.1-1.2v-4m-3.85 1.15q.5 0 .85.25l.65-1.25q-.4-.25-1.15-.25-1.05 0-1.65.7v-.6h-1.45v6.3H47v-3.55q0-.7.4-1.15.4-.45.9-.45m-2.35-14.9h.8v5.05h1.45v-6.3h-2.25v1.25m-2.65 1q-.35-.1-.65-.1-1.5 0-2.3.6-.8.65-.8 1.7 0 .95.55 1.45.6.5 1.6.5.55 0 1.05-.2t.7-.55q.05.3.3.55.3.2.6.2t.5-.05q.2-.1.4-.4-.5-.3-.5-1.55v-1.35q0-1.85-.65-2.5-.7-.65-2.1-.65-1.05 0-1.8.35l.3 1.15q.55-.25 1.4-.25 1.4 0 1.4 1.1m-.55 1q.15 0 .55.1v.6q0 1.3-1.35 1.3-.95 0-.95-.85 0-1.15 1.75-1.15m5.35-5.4q-.25-.25-.6-.25t-.6.25q-.25.25-.25.6t.25.6q.25.25.6.25t.6-.25q.25-.25.25-.6t-.25-.6m10.6 2.15v1.25h1.15v4.95q0 .7-.45 1-.4.25-1.55.25v1.3q1.75 0 2.6-.6.85-.65.85-2V32.9h-2.6m-7.55 3.5q.75.35 1 .55.25.25.25.6 0 .6-.85.6-.8 0-1.45-.5l-.55 1.15q.6.3 1 .4.35.1 1 .1 1.1 0 1.75-.5.65-.5.65-1.35 0-.65-.4-1.15-.35-.45-1.15-.75-.85-.35-1.1-.55-.25-.2-.25-.4 0-.65.75-.65.9 0 1.35.45l.45-1.15q-.9-.45-1.85-.45-1 0-1.6.45-.6.45-.6 1.3 0 1.2 1.6 1.85m9.35-5.9q-.35 0-.6.25t-.25.6q0 .35.25.6t.6.25q.35 0 .6-.25t.25-.6q0-.35-.25-.6t-.6-.25m32.3 32.4v1.25h.8v5.05h1.45v-6.3H92.8m-11.7 4.4v-1.35q0-1.85-.65-2.5-.7-.65-2.1-.65-1.05 0-1.8.35l.3 1.15q.55-.25 1.4-.25 1.4 0 1.4 1.1-.35-.1-.65-.1-1.5 0-2.3.6-.8.65-.8 1.7 0 .95.55 1.45.6.5 1.6.5.55 0 1.05-.2t.7-.55q.05.3.3.55.3.2.6.2t.5-.05q.2-.1.4-.4-.5-.3-.5-1.55m-1.45-1.05v.6q0 1.3-1.35 1.3-.95 0-.95-.85 0-1.15 1.75-1.15.15 0 .55.1M90.3 63.1q-.6-.3-1.3-.3-1.3 0-2.2.95-.85.95-.85 2.4 0 1.5.75 2.35.75.8 2.05.8.5 0 .9-.15.45-.15.65-.35v.4h1.45v-8.95l-1.45.35v2.5m-1 .95q.5 0 1 .35v3.3q-.1.15-.4.25-.35.15-.55.15-1.9 0-1.9-2 0-1 .5-1.5.45-.55 1.35-.55m-4.9-3.8l-1.45.35v7.35q0 1.35 1 1.35.8 0 1.15-.65-.7-.2-.7-1.35v-7.05m10.55.5q-.25-.25-.6-.25t-.6.25q-.25.25-.25.6t.25.6q.25.25.6.25t.6-.25q.25-.25.25-.6t-.25-.6m7.45 5.3q0-1.5-.8-2.4-.75-.85-2.2-.85-1.35 0-2.2.9-.8.9-.8 2.35 0 1.5.8 2.4.75.85 2.2.85 1.4 0 2.2-.85.8-.9.8-2.4m-1.5 0q0 1-.4 1.55-.4.5-1.1.5-1.5 0-1.5-2.05 0-.95.4-1.5t1.1-.55q1.5 0 1.5 2.05m9.1 1.35q-.4 0-.7.3-.35.3-.35.75 0 .4.35.75.3.3.7.3.45 0 .75-.3.35-.35.35-.75 0-.45-.35-.75-.3-.3-.75-.3m-2.4.05q0-.65-.4-1.15-.35-.45-1.15-.75-.85-.35-1.1-.55-.25-.2-.25-.4 0-.65.75-.65.9 0 1.35.45l.45-1.15q-.9-.45-1.85-.45-1 0-1.6.45-.6.45-.6 1.3 0 1.2 1.6 1.85.75.35 1 .55.25.25.25.6 0 .6-.85.6-.8 0-1.45-.5l-.55 1.15q.6.3 1 .4.35.1 1 .1 1.1 0 1.75-.5.65-.5.65-1.35M103.8 36l2.45-3.1h-1.7l-1.45 1.95-1.35-1.95h-1.7l2.25 3.1-2.4 3.2h1.7l1.45-2.05 1.6 2.05h1.8L103.8 36m9.1.05q0-1.5-.8-2.4-.75-.85-2.2-.85-1.35 0-2.2.9-.8.9-.8 2.35 0 1.5.8 2.4.75.85 2.2.85 1.4 0 2.2-.85.8-.9.8-2.4m-4.5 0q0-.95.4-1.5t1.1-.55q1.5 0 1.5 2.05 0 1-.4 1.55-.4.5-1.1.5-1.5 0-1.5-2.05m-27 3.15v-6.3h-1.45v4.35q-.15.35-.6.6-.4.25-.9.25-1.1 0-1.1-1.2v-4H75.9V37q0 2.3 2.2 2.3.45 0 1-.15.5-.2.85-.45v.5h1.45m16.95 8.7h-1v6.3h1.45v-4.5q.15-.25.5-.45.3-.2.6-.2.5 0 .8.25.25.3.25.75v4.15h1.5v-4.55q.1-.25.4-.4.3-.2.65-.2 1.1 0 1.1 1.2v3.95h1.45v-4.15q0-1.05-.55-1.65-.6-.6-1.65-.6-.5 0-1 .2-.45.2-.75.5-.65-.7-1.9-.7-.95 0-1.55.7l-.3-.6m-3 .7q-.85-.8-2.2-.8-1.3 0-2.2.95-.9.9-.9 2.4t.8 2.35q.85.8 2.3.8 1.5 0 2.3-.6l-.55-1.15q-.55.55-1.55.55-.8 0-1.25-.4-.5-.45-.55-1.2h4.5q.1-.55.1-.8 0-1.25-.8-2.1m-.65 1.8h-3.1q.3-1.35 1.55-1.35 1.4 0 1.55 1.35m-9.45-2.5H83.8v4.35q-.15.35-.6.6-.4.25-.9.25-1.1 0-1.1-1.2v-4h-1.45V52q0 2.3 2.2 2.3.45 0 1-.15.5-.2.85-.45v.5h1.45v-6.3M83.5 33.75q-.9.9-.9 2.4t.8 2.35q.85.8 2.3.8 1.5 0 2.3-.6l-.55-1.15q-.55.55-1.55.55-.8 0-1.25-.4-.5-.45-.55-1.2h4.5q.1-.55.1-.8 0-1.25-.8-2.1-.85-.8-2.2-.8-1.3 0-2.2.95m.65 1.65q.3-1.35 1.55-1.35 1.4 0 1.55 1.35h-3.1m12.5-2.5v1.25h.8v5.05h1.45v-6.3h-2.25m-1.45-2.65l-1.45.35v7.35q0 1.35 1 1.35.8 0 1.15-.65-.7-.2-.7-1.35v-7.05m3.6.5q-.25-.25-.6-.25t-.6.25q-.25.25-.25.6t.25.6q.25.25.6.25t.6-.25q.25-.25.25-.6t-.25-.6z"/></g><path id="b" stroke="#8CA8B8" stroke-linejoin="round" stroke-linecap="round" fill="none" d="M118.8.4q4.1 0 7 2.95 2.95 2.9 2.95 7v81.6q-.1 3.95-2.95 6.75-2.9 2.95-7 2.95H10.15q-4.1 0-7-2.95-2.8-2.8-2.9-6.75v-81.6q0-4.1 2.9-7Q6.05.4 10.15.4h108.6"/></defs><g><use xlink:href="#a"/><use xlink:href="#b"/></g></svg>