<svg xmlns="http://www.w3.org/2000/svg" xmlns:xlink="http://www.w3.org/1999/xlink" preserveAspectRatio="none" width="133" height="106" viewBox="0 0 133 106"><defs><filter id="c" x="-20%" y="-20%" width="140%" height="140%" color-interpolation-filters="sRGB"><feFlood flood-color="#000" flood-opacity="1" result="result1"/><feComposite in2="SourceGraphic" in="result1" operator="in" result="result2"/><feGaussianBlur in="result2" stdDeviation="2.3333333333333335,2.3333333333333335" result="result3"/><feOffset in="result3" result="result4"/><feComposite in2="result4" in="SourceGraphic" result="result5"/></filter><filter id="r" x="-20%" y="-20%" width="140%" height="140%" color-interpolation-filters="sRGB"><feColorMatrix in="SourceGraphic" values="0.49 0 0 0 0.20392156862745098 0 0.49 0 0 0.10196078431372549 0 0 0.49 0 0 0 0 0 1 0" result="result1"/></filter><filter id="t" x="-20%" y="-20%" width="140%" height="140%" color-interpolation-filters="sRGB"><feColorMatrix in="SourceGraphic" values="0.73 0 0 0 0.10980392156862745 0 0.73 0 0 0.054901960784313725 0 0 0.73 0 0 0 0 0 1 0" result="result1"/></filter><filter id="B" x="-20%" y="-20%" width="140%" height="140%" color-interpolation-filters="sRGB"><feColorMatrix in="SourceGraphic" values="0 0 0 0 0 0 0 0 0 0 0 0 0 0 0 0 0 0 1 0" result="result1"/></filter><path fill="#F66" d="M223.65 635.35q-4.1 0-7 2.95-2.9 2.9-2.9 7v81.6q.1 3.95 2.9 6.75 2.9 2.95 7 2.95H332.3q4.1 0 7-2.95 2.85-2.8 2.95-6.75v-81.6q0-4.1-2.95-7-2.9-2.95-7-2.95H223.65z" id="a"/><path fill="#FFF" d="M966.45 100.5Q947.95 82 921.8 82H458.15Q432 82 413.5 100.5T395 145.15V538.8q0 26.15 18.5 44.65t44.65 18.5H921.8q26.15 0 44.65-18.5t18.5-44.65V145.15q0-26.15-18.5-44.65z" id="d"/><path fill="#FFF" d="M966.45 100.5Q947.95 82 921.8 82H458.15Q432 82 413.5 100.5T395 145.15V538.8q0 26.15 18.5 44.65t44.65 18.5H921.8q26.15 0 44.65-18.5t18.5-44.65V145.15q0-26.15-18.5-44.65z" id="f"/><g id="g"><path fill="#999" d="M33.1 76.95q-.25-1.05-.25-1.45 0-.65.2-.95H27.5q-.15.2-.5.35-.4.15-.55.35-.85 1.15-2 2.35-.5.55-.9 1.35t-.7 1.15q.1.15.2.25.1.05.15.15h10.25q-.05-.1-.05-.15v-.45-1.5q0-.35-.3-1.45M0 74.55v5.95h9l-.05-.15-1.1-2 .35-3.8H0m17.05 3.25q-.6-2.6-1.3-2.6-.25 0-1.05.9-.75.9-.8 1.1-.1.25-.05 1.25 0 .8-.25 1.3v.75H17.55q-.05-.1-.05-.15-.2-1.4-.45-2.55m125.7 2.7h11.4v-5.95H43.55q-1 3.2.25 5.8.05.05.05.15L60 80.45h2.4l79.2-.15q.15 0 .3.05.35.05.75.1.05.05.1.05z"/><path fill="#489191" d="M32.85 75.5q0 .4.25 1.45.3 1.1.3 1.45v1.95h10.4q-1.25-2.6-.25-5.8h-10.5q-.2.3-.2.95m-17.1-.3q.7 0 1.3 2.6.25 1.15.45 2.55h5.25v-.1q.05-.1.1-.15.3-.35.7-1.15.4-.8.9-1.35 1.15-1.2 2-2.35.15-.2.55-.35.35-.15.5-.35H8.2l-.35 3.8 1.1 2h4.65v-.6q.25-.5.25-1.3-.05-1 .05-1.25.05-.2.8-1.1.8-.9 1.05-.9z"/><path fill="#CCC" d="M8.6 71.05q-2.15-.45-3.7-.85l-.7-.2Q.05 68.75 0 67.25v7.3h8.2l.4-3.5M30.05 73l-.4.1q-1.1.3-1.15.35-.45.05-.6.35-.1.2-.3.65l-.1.1h5.55q.05-.1.15-.15.35-.3.35-.65 0-.2-.55-.55-.05-.05-.15-.1-.65-.4-1-.4-.75 0-1.8.3m87-19.95q0 3.8-16.65 6.5-16.6 2.65-40.1 2.65h-1.25q2.65.3 5.1.7 11 1.75 11 4.3 0 1.55-4.2 2.8-2.6.8-6.8 1.45-8.65 1.4-20.05 1.7-.35.75-.55 1.4h110.6v-34.4H0v27q.1-2.5 11.05-4.25 9.55-1.55 22.55-1.75-7.2-.6-13.45-1.6-16.65-2.7-16.65-6.5t16.65-6.45q16.6-2.7 40.15-2.7 23.5 0 40.1 2.7 16.65 2.65 16.65 6.45z"/><path fill="#97CCCC" d="M154.15 88.35V80.5h-11.4q-.05 0-.1-.05-.4-.05-.75-.1-.15-.05-.3-.05l-79.2.15q-.05.05-.1.05l-1.3-.05h-1l-16.15.05q0-.1-.05-.15H33.4q0 .05.05.15.05.45.15.6.25.3 2.9 1.25 2.75 1 3.1 1.3v.55h-1.05q-1-.25-2.15-.45-1.55-.25-2.2-.25-.8.05-2-.4-1.3-.6-1.85-.8-.7-.25-2.5-.65t-2.05-.5q-.7-.25-.95-.35-.45-.15-1.05-.1-.35 0-.6-.2h-.45v-.15H17.5q0 .05.05.15 0 .1.05.25.05.1.1.15.3.35.6.5.7.5 2.1.7.3.05 1.7.15 1.25.15 1.4.25.3.2 1.4.6.7.2.85.75h-.5q-.85-.3-3.1-.55-.5-.05-1.5-.45t-1.6-.45q-3.6-.4-5.05-1.9h-.4v-.15H8.95l.05.15q.8 1.05 4.95 3.6 1.95 1.15 7.55 4.25h132.65m-53.75-28.8q16.65-2.7 16.65-6.5T100.4 46.6q-16.6-2.7-40.1-2.7-23.55 0-40.15 2.7Q3.5 49.25 3.5 53.05q0 3.8 16.65 6.5 6.25 1 13.45 1.6-13 .2-22.55 1.75Q.1 64.65 0 67.15v.1q.05 1.5 4.2 2.75l.7.2q1.55.4 3.7.85l-.4 3.5h19.3l.1-.1q.2-.45.3-.65.15-.3.6-.35.05-.05 1.15-.35l.4-.1q1.05-.3 1.8-.3.35 0 1 .4.1.05.15.1.55.35.55.55 0 .35-.35.65-.1.05-.15.15h10.5q.2-.65.55-1.4 11.4-.3 20.05-1.7 4.2-.65 6.8-1.45 4.2-1.25 4.2-2.8 0-2.55-11-4.3-2.45-.4-5.1-.7h1.25q23.5 0 40.1-2.65z"/></g><g id="h"><path fill="#88A901" d="M101.3 47.65l.25-.05q0-.3-.05-.85-.1-.35-.2-1.05-.05.6-.05 1.35v.55q.05 0 .05.05m-2.6-4.4l.1.05q.05.05.1.35.05.25.05.3.6-.05 1.4.6.35.25.6.6.25.3.35.5.2.2.35.6.1.15.35.75.25.95.75 1.05.2.05 1.55.3.1.05.3.05l.5.2q-.05-.05-.1-.15-.1-.4-.55-.7-.4-.4-.5-.85 0-.1.2-.5.15-.4.15-.45-.1-.55-.75-.85-.55-.3-1.45-.3-.1-.1-.2-.4-.1-.15-.15-.25-.05 0-.4.2-.3.2-.4.2-.1-.5-.65-1.1-.6-.55-.95-.55-.25.05-.65.35z"/><path fill="#A9D103" d="M101.3 45.65v.05q.1.7.2 1.05.05.55.05.85l-.25.05q0-.05-.05-.05v.3q.75.35 1.9.65 1.15.3 1.25.35.3.05.55.15.1-.2.2-.35-.05 0-.05-.1l-.5-.2q-.2 0-.3-.05-1.35-.25-1.55-.3-.5-.1-.75-1.05-.25-.6-.35-.75-.15-.4-.35-.6z"/><path fill="#C5F402" d="M97.4 46.05q-.35.05-.6.05.8.15 1.5.35 1.4.5 2.35 1.15l.6.3v-.3q-.15-.15-.45-.4-.5-.3-.65-.4-.25-.25-.65-.2-.45 0-.7-.25-.3-.25-.7-.3-.25-.05-.7 0m-.35 3.25q-.65-.35-1.5-.15-1.1.2-1.6.35 1.05-.2 2.2-.1.45 0 1.3.1l-.4-.2z"/><path fill="#990" d="M98.8 43.3l-.1-.05-.3.2q-.65.45-.7.5-1.2-.3-1.25-.3-.35.05-.55.25-.1.15-.2.4-.15.4-.2.55-.15.3-.5.55l-.2-.2q-.2-.15-.45-.2.05.3-.1.55-.1.25-.05.4 0 .25.95.85.1.1.2.15.1.05.2.15h-.05q-.05 0-.2-.1-.05.1-.3.3-.25.25-.4.3-.05 0-.15-.1-.15-.15-.4-.1-.35.1-.7.3-.3.2-.5.55-.2.35-.55.45-.35.1-.45.25-.2.3-.45.9-.25.6-.35.9.5.25.9.4.05 0 .1.05.1.05.2.05.5.05 1.2-.05.25-.1 1.15.8.85.85 1.15.75.1 0 .15-.05 0-.1.05-.25.15-.5.8-.5.15-.7.3-.95.2-.3.65-.5h.05q.1-.05.25-.05.2.45.95.35.1-.05.35-.15.25-.15.35-.15.1-.05.6.2l.3.1q.25.05.45.05.1 0 .25-.15l.3-.15h.25q.2 0 .4.15.1 0 .2.05 0 .05.1.2.05.1.15.25l.95-.2q-.05 0-.05-.05 0-.1.1-.75.15-.35.15-.55.05-.05.05-.1l.05-.05h.05q.3-.05.55.05.2.15.35.2h.05v-.1h.05q-.05-.1-.1-.15 0-.2.1-.45-.25-.1-.55-.15-.1-.05-1.25-.35t-1.9-.65l-.6-.3q-.95-.65-2.35-1.15-.7-.2-1.5-.35h-.15q-.3 0-.5-.15-.2-.05-.45-.05l.25-.05q.05.05.2.1.35.1.65.15.25 0 .6-.05.45-.05.7 0 .4.05.7.3.25.25.7.25.4-.05.65.2.15.1.65.4.3.25.45.4v-.55q0-.75.05-1.35v-.05q-.1-.2-.35-.5-.25-.35-.6-.6-.8-.65-1.4-.6 0-.05-.05-.3-.05-.3-.1-.35m-3.25 5.85q.85-.2 1.5.15l.4.2q-.85-.1-1.3-.1-1.15-.1-2.2.1.5-.15 1.6-.35m2.3.35v.05h-.05l.05-.05z"/></g><g id="i"><path fill="#CC9" d="M88.1 53.15q-.1-.1-.25-.4-.95 1.7-4.05 1.85-1 0-2.65-.1l.35.1q1.5.1 2.6.05 1.1 0 1.9-.1.8-.15 1.35-.3.5-.15 1.7-.7h-.3q-.4-.1-.65-.4z"/><path fill="#FFC" d="M90.55 51.1q.1-.25.2-.4-.2-.3-.5-.6-.9-.85-2.35-1.05-2.2-.35-5.35.8-1.1.4-1.95.85-.15.2-.25.4-.4.55-1.1 1.6-.6.9-.95 1.55l.55.1q.4.05 2.65.25l-.35-.1q1.65.1 2.65.1 3.1-.15 4.05-1.85.15.3.25.4.25.3.65.4h.3q.05-.15.05 0 .15-.2.15-.15 0-.05.05-.05l.15-.15.25-.25q.15-.25.85-1.85z"/><path fill="#FBFBFB" d="M82.45 47.6l-.05.05.1-.05h-.05z"/><path fill="#FEFD9A" d="M88.65 48.35q-3.05-.15-5.05-.45-.25-.05-.5-.15-.35-.1-.7-.1l.05-.05-.1-.05q-.6 1.35-1.75 3.15.85-.45 1.95-.85 3.15-1.15 5.35-.8 1.45.2 2.35 1.05.3.3.5.6.65-1.45.85-2.2-1.2-.05-2.95-.15z"/></g><g id="j"><path fill="#39C" d="M112.1 40.35v-.05h-.05l.05.05M96 36q1.05 1.3 1.95 1.7.7.25 2.65.85.75.25 2 .25h.85q.3-.05.3-.1 1.35-.05 2.8-.45 2.1-.55 3.5-1.8.45-.4 1.4-1l1.5-1q1.1-.8 1.5-1.6-1-2.8-5.05-5.65-1.85-1.25-3.1-1.8.1.15.05.35 0 .15-.15.3.75.3 1.2.5.9.4 1.2.9v.35q-.3.15-.55.15-.55 0-1.35-1.1-.3-.35-.6-.75-.1 0-.2.1-.35.15-.9.15h-.15q-.3 0-.6-.05-.2 0-.4-.05-.35-.15-.35-.3 0-.2-.05-.3l.05-.2q-1.4.8-4.45 2.7-3.85 2.35-3.95 6.05v.25q.25.65.9 1.55m8.05-9.45l.2-.2q-.35 1.15-.55 1.65-.6 1.3-1.7 1.3-.15 0-.55-.25-.35-.3-.35-.35 0-.45.55-.85.25-.15 1.25-.6.85-.4 1.15-.7m1.5 3.15q0-.05-.05-.1h-.05q-.1-.35-.25-1.8.35.75.55 1.05v.85h-.2m-1.25-8.1q.1-.05 1.6-.55.3 0 .45.05.15.1.15.35 0 .1-.05.15 0 .1-.1 0v.4h1q.05-.15.3-.55.3-.5.4-.6V20.55q-.1 0-.25-.1-.15-.05-.2-.05-.3 0-.55.15h-.15q.15-.1.2-.25l.1-.2v-.3q-.35 0-1.3-.15-1.1 0-1.35.05-.6.05-1.25.4.1.1.2.15v.05q.002.05.05.05.2.2.2.3 0 .15-.15.25.05.3.15.65.1.6.05 1.2.25.05.55.05.65 0 .8-.15.05-.05.1-.05v-.65q-.1-.25-.4-.3-.3-.1-.55-.05z"/><path d="M105.9 26.2q.1-.1.2-.1.05-.05.1-.05.15-.15.15-.3.05-.2-.05-.35-.15.2-.4.35h-.05q-.35.2-.8.25H104.75q-.15 0-.3-.05h-.1q-.4-.05-.7-.2l-.2-.1q.05.1.05.3 0 .15.35.3.2.05.4.05.3.05.6.05h.15q.55 0 .9-.15m.05-1.55h-.05q-.45.3-.85.4h-.1q-.15.05-.3.05-.2 0-.8-.4-.05 0-.05.05-.15.2.05.4 0 .05.05.05.15.15.75.2h.2q.5 0 .95-.05.15 0 .3-.05.2-.05.25-.2v-.05q0-.25-.4-.4z"/><path fill="#2880A4" d="M108.6 27.45q-.3-.5-1.2-.9-.45-.2-1.2-.5-.05 0-.1.05.3.4.6.75.8 1.1 1.35 1.1.25 0 .55-.15v-.35m-3.1 2.15q.05.05.05.1h.2v-.85q-.2-.3-.55-1.05.15 1.45.25 1.8h.05m-1.25-3.25l-.2.2q-.3.3-1.15.7-1 .45-1.25.6-.55.4-.55.85 0 .05.35.35.4.25.55.25 1.1 0 1.7-1.3.2-.5.55-1.65m-9.15 8.1q.05 2.8 1.85 5.05 1.75 1 4.8 1.45 2.3.3 6.3.3.95 0 4-.95h.05q2.7-2.55 2.55-6.05-.05-.7-.2-1.4-.4.8-1.5 1.6l-1.5 1q-.95.6-1.4 1-1.4 1.25-3.5 1.8-1.45.4-2.8.45 0 .05-.3.1h-.85q-1.25 0-2-.25-1.95-.6-2.65-.85-.9-.4-1.95-1.7-.65-.9-.9-1.55m10.55-11.1q-.2.55-.4 1.05v.1q-.15.3-.2.55.4-.1.85-.4.45-.35.95-.9 1.05-1.4 1.2-2.9-.1.1-.4.6-.25.4-.3.55h-1v-.2q-.25.5-.7 1.55m-2.85.6q.3.25.55.4.2.2.4.3.05.05.1.05.6.4.8.4.15 0 .3-.05v-.3q0-.05.05-.25v-.1q.05-.25.1-.75.1-.55.15-1h-.1q-.15.15-.8.15-.3 0-.55-.05-.85-.05-1.45-.4-.45-.25-1.35-.9h-.05q-.15.35-.15.5 0 .2.25.5.45.55 1.75 1.5z"/><path fill="#1A5066" d="M96.95 39.5q.45.5.95 1 2.9 2.65 7 2.65t7-2.65q.1-.1.2-.15l-.05-.05q-3.05.95-4 .95-4 0-6.3-.3-3.05-.45-4.8-1.45m6.55-19.2v-.05q-.1-.05-.2-.15v.1q0 .15-.2.35v.55h.05q.3-.05.45-.2-.1-.397-.1-.6m2.4.75q-1.5.5-1.6.55.25-.05.55.05.3.05.4.3.05.05.05.2 0 .3-.05.45v.05q-.05.45-.15 1-.05.5-.1.75v.1q-.05.2-.05.25v.3h.1q.05-.25.2-.55v-.1q.2-.5.4-1.05.45-1.05.7-1.55v-.2q.1.1.1 0 .05-.05.05-.15 0-.25-.15-.35-.15-.05-.45-.05z"/><path fill="#333" d="M103.85 24.7q-.05 0-.1-.05-.2.2-.25.6v.2l-.05.2.2.1q.3.15.7.2h.1q.15.05.3.05H105.05q.45-.05.8-.25h.05q.25-.15.4-.35v-.05q.05-.1.05-.2v-.05q-.05.15-.25.2-.15.05-.3.05-.45.05-.95.05h-.2q-.6-.05-.75-.2-.05 0-.05-.05-.2-.2-.05-.4 0-.05.05-.05z"/><path fill="#55AED5" d="M103.6 20.9q-.15.15-.45.2l-.05.05q-.3.05-1.2.15-.55.05-.9.15.9.65 1.35.9.6.35 1.45.4.05-.6-.05-1.2-.1-.35-.15-.65z"/></g><g id="k"><path fill="#1A5066" d="M83.45 42.85q.35.4.8.8 2.3 2.1 5.55 2.1 3.3 0 5.6-2.1.1-.05.15-.15-2.4.75-3.2.75-3.2 0-5.05-.25-2.45-.4-3.85-1.15M91.1 28.5v-.1q0-.2-.1-.3h-.4q-1.2.35-1.25.45.2-.05.45 0 .2.1.3.2.05.1.05.2 0 .25-.1.35v.05q0 .4-.1.8-.05.4-.05.6v.1q-.05.15-.05.2v.25h.05q.1-.25.15-.45.05-.05.05-.1.1-.4.3-.85.4-.85.6-1.25v-.1q.05.05.1-.05m-2.55-1.2v.15q0 .05-.15.2v.45h.05q.2 0 .35-.1-.1-.347-.1-.55l-.15-.15z"/><path fill="#2880A4" d="M88 42.3q-1 0-1.65-.2-1.55-.5-2.05-.7-.8-.3-1.6-1.4-.55-.65-.7-1.2 0 2.25 1.45 4.05 1.4.75 3.85 1.15 1.85.25 5.05.25.8 0 3.2-.75 2.15-2.05 2.05-4.85 0-.55-.15-1.1-.35.6-1.2 1.25-.25.2-1.2.8-.75.5-1.15.8-1.1 1-2.8 1.45-1.15.3-2.25.35 0 .05-.25.05-.2.05-.6.05m-1.3-13.9h-.05q-.1.3-.1.4 0 .15.2.4.35.4 1.4 1.25.2.15.45.3l.3.2.05.05q.5.35.65.35.15 0 .25-.05v-.25q0-.05.05-.2v-.1q0-.2.05-.6.1-.4.1-.8H90q-.1.1-.6.1h-.45q-.7-.05-1.2-.35-.35-.2-1.05-.7m5.6 5.2q.25 0 .45-.1v-.35q-.2-.35-.95-.7-.35-.15-.95-.4-.05.05-.1.05.25.35.5.65.6.85 1.05.85m-2.25-.15v.05q.15 1.1.25 1.4.05.05.05.1h.15v-.65q-.2-.3-.45-.9m-.8-1.05q-.05 0-.1.05-.25.25-.95.55-.8.4-1 .55-.4.3-.4.65 0 .05.3.25.25.25.4.25.85 0 1.35-1.1.15-.35.4-1.2m2.1-2.2q.9-1.1.95-2.3-.05.1-.3.5-.15.3-.25.45H91v-.2q-.2.4-.6 1.25-.2.45-.3.85 0 .05-.05.1-.05.2-.15.45.4-.1.75-.35.35-.3.7-.75z"/><path d="M90.65 32.15q.05 0 .1-.05.05 0 .1-.05.15-.1.15-.2 0-.15-.05-.3-.1.15-.4.3-.25.15-.65.2h-.45q-.05-.05-.1-.05-.3-.05-.55-.15-.05-.05-.15-.1.05.05.05.25 0 .15.3.2.1.05.3.1h.6q.45 0 .75-.15m.35-.8v-.1q0-.15-.35-.3-.35.25-.75.35h-.05q-.1.05-.25.05t-.65-.35q-.1.2 0 .35l.05.05q.15.15.6.15h.95q.1-.05.2-.05.2-.05.25-.15z"/><path fill="#333" d="M91 31.4v-.05q-.05.1-.25.15-.1 0-.2.05h-.95q-.45 0-.6-.15l-.05-.05q-.1-.15 0-.35l-.05-.05q-.15.15-.2.5 0 .1-.05.15v.15q.1.05.15.1.25.1.55.15.05 0 .1.05h.45q.4-.05.65-.2.3-.15.4-.3v-.05q.05-.05.05-.1z"/><path fill="#55AED5" d="M88.4 28.1v.05q-.25.05-.95.1-.45.05-.75.15.7.5 1.05.7.5.3 1.2.35 0-.5-.1-.95-.05-.3-.05-.5-.15.1-.35.1h-.05z"/><path fill="#39C" d="M92.75 33.5q-.2.1-.45.1-.45 0-1.05-.85-.25-.3-.5-.65-.05.05-.1.05-.3.15-.75.15h-.6q-.2-.05-.3-.1-.3-.05-.3-.2 0-.2-.05-.25v-.15q-1.1.65-3.5 2.15-3.05 1.9-3.15 4.85v.2q.15.55.7 1.2.8 1.1 1.6 1.4.5.2 2.05.7.65.2 1.65.2.4 0 .6-.05.25 0 .25-.05 1.1-.05 2.25-.35 1.7-.45 2.8-1.45.4-.3 1.15-.8.95-.6 1.2-.8.85-.65 1.2-1.25-.8-2.3-4.05-4.55-1.45-1-2.45-1.45.05.15.05.3 0 .1-.15.2.6.25.95.4.75.35.95.7v.35m-3.6-1.05q.05-.05.1-.05-.25.85-.4 1.2-.5 1.1-1.35 1.1-.15 0-.4-.25-.3-.2-.3-.25 0-.35.4-.65.2-.15 1-.55.7-.3.95-.55m.8.8H90v.15l.05.05q.25.6.45.9V35h-.15q0-.05-.05-.1-.1-.3-.25-1.4-.05-.05-.05-.1-.002-.053-.05-.15m1.7-5.95v-.2q-.25 0-1-.15H89.5q-.45.1-.95.35l.15.15q.002.05.05.05.1.15.1.3 0 .1-.05.2 0 .2.05.5.1.45.1.95h.45q.5 0 .6-.1l.05-.05q.05-.3.05-.55-.1-.1-.3-.2-.25-.05-.45 0 .05-.1 1.25-.45h.4q.1.1.1.3v.1q-.05.1-.1.05V28.85h.75q.1-.15.25-.45.25-.4.3-.5v-.25q-.05 0-.15-.05-.15-.05-.2-.05-.2 0-.4.1h-.15q.15-.05.15-.15.05-.15.1-.2z"/></g><g id="l"><path fill="#FC6" d="M86.65 49.15q-.05-.05-.1.05-.05 0-.05.05l.1.05h.1v-.05-.1h-.05m.1-.45l-.05-.1h-.1l-.05.1.1.1.05-.05.05-.05m-1.65-.5h.05v-.05l.05-.05q0-.05-.05-.05-.1-.05-.1 0-.05 0-.05.05l.1.1m.8.25q-.1-.05-.15 0v.1l.1.05q.05 0 .05-.05v-.1m.95-.4q-.1-.05-.15 0v.05l.1.1.05-.05v-.1m-.65-1.15h.1q.15 0 .15-.1 0-.05-.05-.05-.15-.05-.2 0-.05 0-.05.1 0 .05.05.05m.15.25h-.1q-.1 0-.05.1v.05h.15l.05-.05q0-.05-.05-.05v-.05m-.75-.2V47l.1.1q0-.05.05-.05v-.15q-.1 0-.15.05z"/><path fill="#F90" d="M84.95 47.65v-.15h-.15q-.15-.2-.25-.45-.05.25-.05.55v.05h.15q0 .25.25.45h.1q0-.05.05-.05 0-.05.1 0 .05 0 .05.05l-.05.05v.05q.3.1.6.25.05-.05.15 0v.05q.3.1.65.2l.05-.1h.1l.05.1-.05.05q2.3.55 4.75-.5.1-.4.1-.75 0-.6-.25-1.05-.2.45-.3.7-.3.45-.6.65-.3.1-.9.1-.8 0-1.45.05h-1.3q-.8.05-1.3-.1-.3-.05-.5-.2m1.75.4q.05-.05.15 0v.1l-.05.05-.1-.1v-.05m-.4.2q0-.15.15-.1v.15l-.05.05-.1-.1m-.05-1.1v-.05q-.1 0-.1.05l-.05.05.1.1v-.05q-.05-.1.05-.1m.55-.05q.05-.05.1-.05v-.15q-.15 0-.15.1l.05.1m1.4-1.6q-.05.1-.2.1.15.1.2.2.15.15.25.4l.1-.05.05-.05-.05-.2q0-.2-.15-.3-.05-.05-.2-.1m-1.55 0q-.2.1-.3.25h.25q.05-.05.35-.15.35-.05.5-.05h.15q-.2-.05-.25-.15h-.15l-.1-.05q-.2.05-.45.15m2.15-.65l-.05-.05h-.3q-.2 0-.3.1-.15.15-.15.25.05-.05.15-.05h.1q.05-.1.1-.15.2-.05.45-.05v-.05m-3 2.65H85.95v-.15h-.05q-.15-.05-.15.05l.05.1m-.05-.75l.1-.05v-.1q-.1-.05-.15 0-.05 0 0 .05l.05.1m.3-.45v.1q0 .05.1.05h.05v-.05-.1h-.15z"/><path fill="#C90" d="M86.45 48.15q-.15-.05-.15.1l.1.1.05-.05v-.15z"/><path fill="#FC0" d="M84.95 47.5v.15q.2.15.5.2.5.15 1.3.1h1.3q.65-.05 1.45-.05.6 0 .9-.1.3-.2.6-.65.1-.25.3-.7-.25-.7-.85-1.2-1.05-.9-2.5-.9-1.45.05-2.45 1-.8.7-.95 1.7.1.25.25.45h.15m1.1-1.1v-.1h.15V46.45h-.05q-.1 0-.1-.05m-.2.3l-.1.05-.05-.1q-.05-.05 0-.05.05-.05.15 0v.1m-.25.3v-.05q.05-.05.15-.05v.15q-.05 0-.05.05l-.1-.1m.25.5h-.05l-.05-.1q0-.1.15-.05h.05v.15h-.1m2.9-2.7l.05.05v.05q-.25 0-.45.05-.05.05-.1.15h.05q.05 0 .05.15 0 .1-.05.15 0 .1-.1.1.15.05.2.1.15.1.15.3l.05.2-.05.05-.1.05q-.1-.25-.25-.4-.05-.1-.2-.2h-.05q-.1-.05-.2-.05h-.3q-.15 0-.5.05-.3.1-.35.15h-.25q.1-.15.3-.25.25-.1.45-.15l.1.05h.15q-.1-.05-.1-.1t.1-.15q.15-.1.25-.1t.3.05h.05l.05.05q0-.1.15-.25.1-.1.3-.1h.3m-1.85 2.25q-.05 0-.1.05l-.05-.1q0-.1.15-.1v.15m-.65.05v.05h.1v.05q.05 0 .05.05l-.05.05h-.15l-.1-.1.05-.05q0-.05.1-.05m.05-.2h-.1q-.05 0-.05-.05 0-.1.05-.1.05-.05.2 0 .05 0 .05.05 0 .1-.15.1m1.9-1.7q.05-.05.05-.1h-.1q-.1 0-.15.05h.2v.05z"/><path fill="#FF9" d="M88.25 45.1q0 .05-.05.1v-.05H88l-.05-.05h-.05q-.2-.05-.3-.05-.1 0-.25.1-.1.1-.1.15 0 .05.1.1.05.1.25.15h.15q.1 0 .2.05H88q.15 0 .2-.1.1 0 .1-.1.05-.05.05-.15 0-.15-.05-.15h-.05z"/></g><g id="m"><path fill="#EEF7F5" d="M104.3 44.1q12.05-1.75.6-5.55 3.55 3.4-.6 5.55m-7.95-3.45q-.1.05-.15.25-.1.2-.1.5t.1.5q.05.2.2.25h.05q.1 0 .15-.15l.05-.1q.1-.2.05-.5 0-.3-.1-.5v-.1q-.05-.1-.2-.15h-.05m3.75-.5h-.05q-.05.05-.1.05l-2.35.45q2.9 0 1.6 1.75l.8.05h.1q.2-.05.3-.3.15-.35.1-.85 0-.5-.1-.8-.15-.3-.3-.35z"/><path fill="#CCE6E6" d="M104 38.35q.5.1.9.2 11.45 3.8-.6 5.55l7.85-.15q.05.05.15.05.45 0 .75-.85t.3-2.05q0-1.2-.3-2.05-.35-.8-.8-.8l-8.25.1m7.15 2.8q0-.95.2-1.65t.6-.7q.3 0 .55.65.25.7.25 1.7.05 1-.2 1.65-.25.7-.55.7-.35.05-.6-.65-.2-.7-.25-1.7m-10.65.15q.05.5-.1.85-.1.25-.3.3l.05.05q-.15 0 1.05.9t1.75.7h.15q.404-.01.7-.85.35-.85.3-2-.05-1.2-.35-2.05-.35-.8-.8-.85h-.1q-1 .15-2.75 1.8.15.05.3.35.1.3.1.8m-3.45-.4v-.1q-.05-.15-.15-.2l-.5.05q.15.05.2.15v.1q.1.2.1.5.05.3-.05.5l-.05.1q-.05.15-.15.15h-.05l.35.05q.05.05.1.05.15 0 .2-.2V42h.05q.1-.25.05-.55 0-.35-.1-.55z"/><path fill="#83C0C0" d="M111.35 39.5q-.2.7-.2 1.65.05 1 .25 1.7.25.7.6.65.3 0 .55-.7.25-.65.2-1.65 0-1-.25-1.7-.25-.65-.55-.65-.4 0-.6.7z"/><path fill="#FFF" d="M104.1 41.25q.05 1.15-.3 2-.296.84-.7.85h1.2q4.15-2.15.6-5.55-.4-.1-.9-.2h-1.05q.45.05.8.85.3.85.35 2.05m-7.05-.45v.1q.1.2.1.55.05.3-.05.55h-.05v.05l2.15.35q1.3-1.75-1.6-1.75l-.55.15z"/></g><g id="n"><path fill="#FFF" fill-opacity=".271" d="M-7.1-2.3q0 1.05 1.4 1.3.182.046 2.5.1.118-.084.2-.2.164-.237.3-.6.118-.34.3-.45-.526-.46-1-.9-.4-.25-1.25-.25-2.45 0-2.45 1m7.65.6Q.33-.817 0-.15 3.45-1.016 3.45-3q0-.8-.3-1.05-.3-.3-1.15-.3-1.35 0-1.9.55-.512.466-.95 1.85l.15.05q.7.09 1.25.2z"/><path d="M0-.15Q.33-.817.55-1.7 0-1.81-.7-1.9q-.073.018-.15 0-.483-.052-.9-.2-.095-.01-.2-.05-.25-.096-.45 0-.182.11-.3.45-.136.363-.3.6-.082.116-.2.2-.012.024-.05.05-.31.224-.55.1v.05q.132.282.5 1.65.316.99.3 1.15 2.012-.27 3-2.25z"/></g><g id="o"><path fill="#EEF7F5" d="M43.75 80.8l-.05-.05q-.05-.15-.15-.15h-.05q-.1.05-.2.2-.1.2-.1.55.05.3.1.5.1.2.2.2h.05q.1 0 .15-.1.05-.05.05-.1.1-.2.1-.5 0-.35-.1-.55m3.45-.75l-.1.1-2.35.4q2.9.05 1.55 1.75l.85.1h.1q.15-.05.3-.35.1-.35.1-.85 0-.45-.15-.8-.1-.3-.3-.35M51.4 84q12.1-1.75.65-5.55 3.55 3.4-.65 5.55z"/><path fill="#FFF" d="M44.2 80.75v.05q.1.2.1.55 0 .3-.05.55h-.05v.1l2.1.3q1.35-1.7-1.55-1.75l-.6.2h.05m7.85-2.3q-.45-.05-.9-.15h-1q.404.008.75.8.3.85.3 2.05.05 1.2-.25 2-.3.85-.8.9L51.4 84q4.2-2.15.65-5.55z"/><path fill="#CCE6E6" d="M44.2 80.8v-.05h-.05q-.05-.15-.15-.2l-.45.05q.1 0 .15.15l.05.05q.1.2.1.55 0 .3-.1.5 0 .05-.05.1-.05.1-.15.1l.35.1.05.05q.15 0 .25-.2v-.1h.05q.05-.25.05-.55 0-.35-.1-.55m6.75 2.35q.3-.8.25-2 0-1.2-.3-2.05-.346-.792-.75-.8H50q-1 .1-2.8 1.75.2.05.3.35.15.35.15.8 0 .5-.1.85-.15.3-.3.35-.1 0 1.05.95 1.2.9 1.8.7h.05q.5-.05.8-.9m9.2-4.15q-.3-.8-.8-.85l-8.2.15q.45.1.9.15 11.45 3.8-.65 5.55l7.9-.1h.1q.5 0 .8-.85.3-.85.3-2.05-.05-1.2-.35-2m-1.65.4q.2-.7.55-.7.3 0 .6.7.25.65.25 1.7 0 .95-.2 1.65-.3.7-.6.7t-.55-.7q-.25-.7-.25-1.65 0-1 .2-1.7z"/><path fill="#83C0C0" d="M59.05 78.7q-.35 0-.55.7-.2.7-.2 1.7 0 .95.25 1.65t.55.7q.3 0 .6-.7.2-.7.2-1.65 0-1.05-.25-1.7-.3-.7-.6-.7z"/></g><g id="p"><path fill="#900" d="M99.65 49.8h-.1q-.5.1-1.05-.1-.2-.05-.35-.15-.3.1-.4.1.4.2.9.3h.65q.1-.05.25-.1h.05l.05-.05m2.1.4q-.1-.2-.25-.3-.05-.1-.2-.2-.1-.05-.15-.05l-.05-.05q-.1.05-.15.1l-.05.05q-.45.25-.8.3-.3.05-.75.15-.45.2-.65.2-.15 0-.3-.05l-.3.05.05.05q.35.2.45.2.05 0 .45-.1.35-.05 1.05-.35.7-.25.95-.4.15.2.2.3.05.15-.15.65-.2.45-.15.6l.05.2q0-.2.15-.3l.1-.1q0-.05.05-.1h.05V51q.1-.1.1-.15.15-.1.2-.3.1-.3.1-.35m4.65 1.45v-.15q-.1-.05-.2-.15-.3-.35-1-.8-.05 0-.1-.05t-.1-.05q-.5-.35-1.05-.5-.4-.15-.75-.15l-1.35-.2h-.05l.4.2q.2.1 1.1.2.85.1 1.2.35.5.35 1.9 1.3m-2.95-2.25h.05q.05.05.1.05l.7-.15q.3-.15.45-.2.15-.1.25-.15h-.1l-.1-.05-.05.05h-.05q-.35.1-.85.2l-.65.05q-.563.047-.75.05.415.004 1 .15z"/><path fill="#093" d="M101.85 50.1q-.1-.2-.3-.35-.2-.2-.4-.2v.1q.05 0 .15.05.15.1.2.2.15.1.25.3 0 .05-.1.35-.05.2-.2.3 0 .05-.1.15l.15-.1.1-.1.1-.1q.15-.15.15-.25v-.15-.2m2.8 0l-.2-.1q-.05 0-.2-.05l-.2-.1q-.05-.05-.2-.1l-.2-.05q-.65-.15-1.85-.2l-.05.05h.05q0 .05.05.05l1.35.2q.35 0 .75.15.55.15 1.05.5l-.05-.1q-.1-.1-.2-.15-.05 0-.1-.1m1-2.85q.1.2-.1.55-.25.4-.6.55-.05 0-.25.2.7-.2 1-.5.4-.35.2-.95-.1-.25-.35-.35-.15-.1-.3-.15-.15 0-.55.05.25 0 .5.15.35.25.45.45m-4.45.3q0 .1-.05.1-.05.05-.35.1-.4.1-.55-.05-.15-.15-.3-.2.15.15.35.4.3.3.45.7-.05.3 0 .4h-.05v.05l.1.15.55-.1q.1-.05.1-.2v-.1q-.05 0-.1-.1v-.55q0-.35-.15-.6m-3.35 1.2q-.15.3-.1.4.05.25.4.4.15.1.35.15.55.2 1.05.1l.1-.05h.05q.15 0 .35-.1h-.7q-.15 0-.3-.05-.2-.05-.3-.05-.3 0-.6-.2-.2-.2-.3-.4v-.2z"/><path fill="#CD0000" d="M104.75 49.1q-.15.05-.45.2l-.7.15q.1 0 .35.1.4.1.85.35.45.25.8.65.45.45.55.5.1.1.2.4l.05.05v.15q-1.4-.95-1.9-1.3-.35-.25-1.2-.35-.9-.1-1.1-.2.05.1.05.15.15.35-.35.9l-.4.4q-.15.15-.2.3-.05-.3-.05-.4l-.1.1q-.15.1-.15.3l-.05-.2q-.05-.15.15-.6.2-.5.15-.65-.05-.1-.2-.3-.25.15-.95.4-.7.3-1.05.35-.4.1-.45.1-.1 0-.45-.2l-.05-.05.3-.05q-.15-.05-.4-.15h.35q.2-.05.3-.05.2-.05.55-.2h-.55q-.5-.1-.9-.3l-.3.15q-.25.1-.7.3-.4.2-.9.8-.5.6-.55 1.2 0 .5.2 1.2.8.25 1.6.3 1.9.15 4.5-.35 1.35-.25 2-.4 1.2-.35 2-.65 1.3-.55 1.85-1.35-.6-1.05-1.4-1.45-.7-.35-1.05-.45-.1.05-.25.15m-7.4 2.3v-.05q.05-.05.2-.1-.1.05-.2.15z"/><path fill="#9C0" d="M104.4 46.7q-.05.05-.05.1l.05-.05q0-.05.05-.05 0-.05.1-.05h.15q.4-.05.55-.05-.25-.1-.5 0-.25.05-.3.05-.05 0-.05.05m-4.25.35l-.15.1q-.15.1-.3.1l.25.25q.15.05.3.2.15.15.55.05.3-.05.35-.1.05 0 .05-.1-.05-.05-.1-.2-.2-.25-.3-.35-.15-.05-.65.05m-1.8 1.75q.2-.5.25-.7.05-.1.05-.2-.25.1-.6.65l-.2.2v.2q.1.2.3.4.3.2.6.2.1 0 .3.05.15.05.3.05h.7q-.2.1-.35.1l-.05.05-.05.05h-.05q-.15.05-.25.1h-.1q-.35.15-.55.2-.1 0-.3.05H98q.25.1.4.15.15.05.3.05.2 0 .65-.2.45-.1.75-.15.35-.05.8-.3l.05-.05q.05-.05.15-.1l.05.05v-.1q.2 0 .4.2.2.15.3.35v.35q0 .1-.15.25l-.1.1-.1.1-.15.1v.05h-.05q-.05.05-.05.1 0 .1.05.4.05-.15.2-.3l.4-.4q.5-.55.35-.9 0-.05-.05-.15l-.4-.2h.05q-.05 0-.05-.05h-.05l.05-.05q1.2.05 1.85.2l.2.05q.15.05.2.1l.2.1q.15.05.2.05l.2.1q.05.1.1.1.1.05.2.15l.05.1q.05 0 .1.05t.1.05q.7.45 1 .8.1.1.2.15l-.05-.05q-.1-.3-.2-.4-.1-.05-.55-.5-.35-.4-.8-.65-.45-.25-.85-.35-.25-.1-.35-.1-.05 0-.1-.05h-.05q-.585-.146-1-.15.188-.003.75-.05l.65-.05q.5-.1.85-.2h.05l.05-.05q.57-.22.95-.6.7-.6.55-1.1-.1-.25-.55-.45-.25-.1-.5-.15.15.05.3.15.25.1.35.35.2.6-.2.95-.3.3-1 .5-.25.15-1.2.25-.9.15-1.4.05-.1.05-.2.05-.3 0-.45-.1v.1q0 .15-.1.2l-.55.1-.1-.15V49q-1 .4-1.65.4-.1-.05-.15-.05-.75-.1-.55-.55z"/></g><g id="q"><path fill="#2880A4" d="M36.2 26.95q-.15.35-.15.5 0 .2.25.45.5.55 1.75 1.55.3.25.55.4.25.15.4.3.05 0 .1.05.6.4.8.4.15 0 .3-.05v-.3q0-.05.05-.3v-.05q.05-.3.1-.75.1-.55.1-1.05-.25.15-.8.15h-.55q-.9-.1-1.5-.4-.45-.25-1.35-.9h-.05M49.9 39.7q-.05-.65-.2-1.35-.4.8-1.45 1.6-.35.2-1.5 1-1 .6-1.45 1-1.4 1.2-3.5 1.8-1.45.4-2.85.45 0 .05-.25.1h-.8q-1.25 0-2.05-.25-1.9-.6-2.65-.85-.9-.4-1.95-1.7-.6-.9-.9-1.55.05 2.8 1.9 5 1.7 1 4.8 1.45 2.3.35 6.25.35 1 0 4-.95h.05q2.65-2.6 2.55-6.1m-6.65-6.25q.3 0 .6-.15v-.4q-.3-.45-1.2-.85-.45-.2-1.2-.55l-.1.1q.3.4.6.7.8 1.15 1.3 1.15m-3.75-1.6q-.1.05-.15.15-.35.3-1.2.75-1 .45-1.25.6-.55.4-.55.8 0 .1.35.35.4.3.55.3 1.05 0 1.7-1.3.25-.5.55-1.65m1.3 3.25v.05h.25v-.8q-.25-.35-.6-1.05.15 1.45.25 1.8h.1m.8-7.65v-.2q-.2.5-.7 1.6-.2.55-.35 1.05l-.1.1q-.05.25-.15.55.4-.1.9-.45.45-.3.85-.9 1.15-1.35 1.2-2.9-.05.15-.35.65-.2.35-.3.5h-1z"/><path fill="#55AED5" d="M39 27.05q-.05-.4-.15-.65-.15.1-.4.2h-.05q-.35.05-1.2.15-.55.05-.95.2.9.65 1.35.9.6.3 1.5.4 0-.6-.1-1.2z"/><path fill="#1A5066" d="M38.55 25.55v.15q0 .15-.15.3v.6h.05q.25-.1.4-.2-.05-.45-.1-.6v-.05l-.2-.2M47.15 46l.2-.2h-.05q-3 .95-4 .95-3.95 0-6.25-.35-3.1-.45-4.8-1.45.4.55.95 1.05 2.85 2.6 7 2.6 4.05 0 6.95-2.6m-5.4-19.1q0-.25-.15-.3-.15-.1-.45-.1-1.5.55-1.6.6.25-.05.6.05.25.1.4.3.05.05.05.2 0 .3-.15.4v.05q0 .5-.1 1.05-.05.45-.1.75v.05q-.05.25-.05.3v.3h.1q.1-.3.15-.55l.1-.1q.15-.5.35-1.05.5-1.1.7-1.6v-.15q.1.1.15 0v-.2z"/><path fill="#39C" d="M43.85 33.3q-.3.15-.6.15-.5 0-1.3-1.15-.3-.3-.6-.7-.1 0-.15.05-.4.15-1 .2h-.05q-.35 0-.65-.05-.2-.05-.35-.05-.4-.15-.4-.3 0-.2-.05-.3l.05-.2q-1.4.8-4.45 2.7-3.85 2.35-3.95 6v.3q.3.65.9 1.55 1.05 1.3 1.95 1.7.75.25 2.65.85.8.25 2.05.25h.8q.25-.05.25-.1 1.4-.05 2.85-.45 2.1-.6 3.5-1.8.45-.4 1.45-1 1.15-.8 1.5-1 1.05-.8 1.45-1.6-.95-2.85-5.05-5.65-1.8-1.25-3.05-1.8.05.15 0 .35 0 .1-.15.25.75.35 1.2.55.9.4 1.2.85v.4m-3.05 1.85v-.05h-.1q-.1-.35-.25-1.8.35.7.6 1.05v.8h-.25M39.35 32q.05-.1.15-.15-.3 1.15-.55 1.65-.65 1.3-1.7 1.3-.15 0-.55-.3-.35-.25-.35-.35 0-.4.55-.8.25-.15 1.25-.6.85-.45 1.2-.75m1 1h.05q0 .1.05.2-.1-.1-.1-.2m2.9-7q-.05 0-.2-.05-.1-.1-.2-.1-.25 0-.55.15h-.1q.1-.1.15-.2.05-.15.1-.25v-.3q-.35 0-1.25-.1h-1.4q-.6.1-1.25.4l.2.2v.05q.05 0 .05.05.15.15.15.3t-.1.25q.1.25.15.65.1.6.1 1.2h.55q.55 0 .8-.15v-.05q.1-.35.1-.6-.15-.2-.4-.3-.35-.1-.6-.05.1-.05 1.6-.6.3 0 .45.1.15.05.15.3v.2q-.05.1-.15 0v.35h1q.1-.15.3-.5.3-.5.35-.65V26z"/><path d="M41.6 30.9l-.05-.05q-.1.2-.45.4t-.8.25h-.25q-.2 0-.35-.05h-.1q-.4-.05-.65-.2-.1-.05-.25-.1.05.1.05.3 0 .15.4.3.15 0 .35.05.3.05.65.05h.05q.6-.05 1-.2.05-.05.15-.05l.1-.1q.15-.15.15-.25.05-.2 0-.35m0-.3v-.05q0-.25-.35-.4-.05 0-.05-.05-.5.35-.9.45h-.1q-.15.05-.3.05-.2 0-.8-.4-.15.25 0 .45.05 0 .05.05.2.15.75.15h.25q.45.05.9 0 .2 0 .3-.05.2-.05.25-.2z"/><path fill="#333" d="M41.6 30.65v-.05q-.05.15-.25.2-.1.05-.3.05-.45.05-.9 0h-.25q-.55 0-.75-.15 0-.05-.05-.05-.15-.2 0-.45-.05-.05-.1-.05-.15.15-.25.6v.2l-.05.2q.15.05.25.1.25.15.65.2h.1q.15.05.35.05h.25q.45-.05.8-.25.35-.2.45-.4.05-.1.05-.2z"/></g><g id="s"><path fill="#DEB100" d="M38.2 12.05l.2-6.75q-.6.05-1.15.2-4.85 1.2-5.3 8.15l-2.05 12.3Q16.75 42.65 1.5 31.6H0q1.8 5.85 9.8 9.9 15.25 4.25 24.4-8.85Q38.7 48.2 56.15 49.8q6.2-1.1 7.9-3.75-19.4 3.5-24.5-10.7-3.65-11.15-1.35-23.3m3.15-6.55l3 6.8 3.05 19q13.65.4 13.85-13.6.45-3.55-1.9-2.45-6.3 7.5-12.6 8.3V13.9q-1.65-7.2-5.4-8.4z"/><path fill="#600" d="M40.85 5.35q.25.05.5.15l-.5-5.5h-2.4l-1.2 5.5q.55-.15 1.15-.2 1.15-.1 2.45.05z"/><path fill="#FC0" d="M44.35 12.3l-3-6.8q-.25-.1-.5-.15-1.3-.15-2.45-.05l-.2 6.75q-2.3 12.15 1.35 23.3 5.1 14.2 24.5 10.7.8-1.2.65-2.7Q52.45 49 47.4 31.3l-3.05-19z"/></g><g id="u"><path fill="#DEB100" d="M57.75 10.1q-2.4-4.6-9.05-3.3l-12.2 1Q25.15 2.65 11.6 0q8.35 9.3 19.8 13.85Q21.95 19.8 0 43.5q25.35-20 30.3-23.55 9.5-6.5 21.55-7.25l6.4-1.5q-.2-.6-.5-1.1z"/><path fill="#FC0" d="M53.3 18.95l5.55-4.75q.05-.25.05-.55-.2-1.3-.65-2.45l-6.4 1.5q-12.05.75-21.55 7.25Q25.35 23.5 0 43.5q20.35-9.9 14.75-5.75 13.1-5.7 21.45-10.95l17.1-7.85z"/><path fill="#600" d="M63.95 12.3l-.65-2.4-5.55.2q.3.5.5 1.1.45 1.15.65 2.45 0 .3-.05.55l5.1-1.9z"/></g><g id="v"><path fill="#9F4F00" d="M3.6.6l-.25.25h.15L3.6.6z"/><path fill="#300" d="M25.7-2.3q-8.65-.85-19.2-.2L3.6.6l-.1.25q1.2.2 2.65.35 1.15.1 2.5.1h.75q1.7 0 3.35-.15Q15.9 1 18.9.4q.3-.1.65-.15 3.55-.8 6.15-2.55m-9.65-3.55q-3.55 0-8.4.5L6.5-2.5Q17.2-3.85 25.4-4q1 0-1.15-.8-2.8-1.05-8.2-1.05z"/><path fill="#630" d="M25.7-2.3q.35-.35-.3-1.7-8.2.15-18.9 1.5 10.55-.65 19.2.2z"/><path d="M7.65-5.35q-.15.15-1.7.55-2.45.5-4 1.2-1.5.6-2.2 1.3-.1.15-.15.3l.6-.1-.6.1Q-1.35-.75 1.2.25q.95.35 2.15.6L3.6.6l.35-1.2L3.6.6l2.9-3.1 1.15-2.85z"/></g><g id="z"><path d="M6.6-.85q-.9-.4-2.15-.4t-2.15.4q-.7.3-.85.75l.95.4-.95-.4Q1.4.05 1.4.15q0 .6.9 1t2.15.4q1.25 0 2.15-.4.9-.4.9-1t-.9-1z"/><path fill="#300" d="M4.45-1.25q1.25 0 2.15.4.9.4.9 1t-.9 1q-.9.4-2.15.4t-2.15-.4q-.9-.4-.9-1 0-.1.05-.25L1.2-.2q-.3.55 0 1.35.05.2.2.4.4.85 1.4 1.75.85.75 2.15 1.55 1.3.8 2.75 1.45.15.05.3.15 1.8.75 3.8 1.25.45.1.85.2 3.15.65 5.05.1 2.15-.65 1.5-2.45-.65-1.8-3.75-3.7Q12.35-.1 8.6-.95q-3.3-.85-5.35-.4l-.55.1-.35.15q-.9.35-1.15.9l.25.1q.15-.45.85-.75.9-.4 2.15-.4z"/></g><path fill="#C60" d="M1.2-.4L.9-.9q-.8.45-1.8.2-.85-.25-1.35-.8-.9.45-1.05.95L-3.45.7h1.8q.308-.042.6 0h.75v.15q.025.04.05.05.7.25 1.2.65.5-.5.6-1.05Q1.4 0 1.2-.4z" id="C"/><path fill="#C60" d="M63.9 284.75q.35-.3.35-.7 0-.95-.95-.95t-.95.95l.1.45q.2.5.85.5.3 0 .6-.25z" id="D"/><path fill="#C60" d="M-12.75-16.25q-.5-.7-1.25-1-.4.1-.8.5-.45.35-.45.65l.15.75q.2.2.7.45l.4.15q1.25-.5 1.25-1.5z" id="E"/><path fill="#C60" d="M-14.75-15.25q-.5-.7-1.25-1-.4.1-.8.5-.45.35-.45.65l.15.75q.2.2.7.45l.4.15q1.25-.5 1.25-1.5z" id="F"/><path fill="#C60" d="M18.25-12.25q-.45-.65-1.25-1-.55.05-.8.15-.45.2-.45 1t.05.85v-.1q.45.35 1.2.6.55-.25.95-.75.3-.4.3-.75z" id="G"/><path fill="#C60" d="M18.75-10.25q-.45-.65-1.25-1-.55.05-.8.15-.45.2-.45 1t.05.85v-.1q.45.35 1.2.6.55-.25.95-.75.3-.4.3-.75z" id="H"/><path fill="#C60" d="M78.5-23q-1.2-.45-2.05-.1-.7.3-.7 1 0 .8.05.85v-.1q.25.2.45.45.2.15 1 .15.75 0 1.05-.15l.25-.2h.1q.1-.15.1-.95 0-.75-.1-.8-.15-.05-.15-.15z" id="I"/><path fill="#C60" d="M79.25-21.8q0 .45 1.25 1.55.5-.1 1.05-.5l.2-1.1q0-.4-.25-1.15-2.25-.5-2.25 1.2z" id="J"/><path fill="#C60" d="M80.25-22.75q-.45-.65-1.25-1-.55.05-.8.15-.45.2-.45 1t.05.85v-.1q.45.35 1.2.6.55-.25.95-.75.3-.4.3-.75z" id="K"/><path fill="#C60" d="M63.25-14.25q-.45-.65-1.25-1-.55.05-.8.15-.45.2-.45 1t.05.85v-.1q.45.35 1.2.6.55-.25.95-.75.3-.4.3-.75z" id="L"/><path fill="#C60" d="M65.75-14.25q-.45-.65-1.25-1-.55.05-.8.15-.45.2-.45 1t.05.85v-.1q.45.35 1.2.6.55-.25.95-.75.3-.4.3-.75z" id="M"/><path fill="#C60" d="M-12.75-16.25q-.5-.7-1.25-1-.4.1-.8.5-.45.35-.45.65l.15.75q.2.2.7.45l.4.15q1.25-.5 1.25-1.5z" id="N"/><path fill="#C60" d="M-14.75-15.25q-.5-.7-1.25-1-.4.1-.8.5-.45.35-.45.65l.15.75q.2.2.7.45l.4.15q1.25-.5 1.25-1.5z" id="O"/><g id="P"><path fill="#DEB100" d="M74.55 52.95l.9 2 .85 5.55q4 .1 4.05-3.95.2-1.05-.5-.75-1.85 2.2-3.7 2.45V55.4q-.5-2.1-1.6-2.45m-1.2 0q-1.4.35-1.55 2.4l-.6 3.6q-3.9 4.9-8.35 1.65h-.45q.55 1.75 2.85 2.9 4.55 1.25 7.2-2.6 1.3 4.55 6.45 5.05 1.8-.35 2.3-1.1-5.7 1.05-7.2-3.15-1.05-3.25-.4-6.85l.1-1.95q-.2 0-.35.05z"/><path fill="#600" d="M74.4 51.35h-.7l-.35 1.6q.15-.05.35-.05.3-.05.7 0 .1 0 .15.05l-.15-1.6z"/><path fill="#FC0" d="M81.2 64.85q.25-.35.2-.8-3.6 1.65-5.1-3.55l-.85-5.55-.9-2q-.05-.05-.15-.05-.4-.05-.7 0l-.1 1.95q-.65 3.6.4 6.85 1.5 4.2 7.2 3.15z"/></g><path id="b" stroke="#8CA8B8" stroke-linejoin="round" stroke-linecap="round" fill="none" d="M332.3 635.35q4.1 0 7 2.95 2.95 2.9 2.95 7v81.6q-.1 3.95-2.95 6.75-2.9 2.95-7 2.95H223.65q-4.1 0-7-2.95-2.8-2.8-2.9-6.75v-81.6q0-4.1 2.9-7 2.9-2.95 7-2.95h108.6"/><path id="w" stroke="#000" stroke-linejoin="round" stroke-linecap="round" fill="none" d="M18.9.4l.85 2.25M-.4-2l.6-.1m12.55 3.25l.75 3.25M6.15 1.2l-.6 2.2m3.1-2.1l-.4 2.6M3.5.85L3.6.6l.35-1.2"/><path id="x" stroke="#000" stroke-linejoin="round" stroke-linecap="round" fill="none" d="M11.5 1.4q-8.406-.133-14.35.35"/><path id="y" stroke="#000" stroke-linejoin="round" stroke-linecap="round" fill="none" d="M13.85-.2Q6.793-.762 2.15-1.575"/><path id="A" stroke="#000" stroke-linejoin="round" stroke-linecap="round" fill="none" d="M1.45-.1q.15-.45.85-.75.9-.4 2.15-.4t2.15.4q.9.4.9 1t-.9 1q-.9.4-2.15.4t-2.15-.4q-.9-.4-.9-1 0-.1.05-.25L1.2-.2l-9.9-4M12.65 7.9l1.8 2.85M2.8 3.3L1.45 5.5M8 6.45L7.95 9.5m-3-4.65V7.5M1.45-.1l.95.4m-.05-1.4l-7.175-4.15"/></defs><g transform="translate(-211.5 -632.95)"><use xlink:href="#a"/><use xlink:href="#b"/></g><g transform="translate(-4.25 8.7)" filter="url(#c)"><mask id="e"><use xlink:href="#d" transform="matrix(.1974 0 0 .1699 -65.7 -13.95)"/></mask><g mask="url(#e)"><use xlink:href="#f" transform="matrix(.1974 0 0 .1699 -65.7 -13.95)"/><use xlink:href="#g"/><use xlink:href="#h"/><use xlink:href="#i"/><use xlink:href="#j"/><use xlink:href="#k"/><use xlink:href="#l"/><use xlink:href="#m"/><use xlink:href="#n" transform="translate(97.12 36.526) scale(.20175)"/><use xlink:href="#n" transform="translate(112.22 42.387) scale(.20175)"/><use xlink:href="#o"/><use xlink:href="#p"/><use xlink:href="#q"/><use xlink:href="#n" transform="translate(48.32 42.826) scale(.20175)"/><use xlink:href="#n" transform="translate(63.42 48.687) scale(.20175)"/><use filter="url(#r)" xlink:href="#s" transform="matrix(.2935 0 0 .2935 25.1 56.45)"/><use filter="url(#t)" xlink:href="#u" transform="matrix(.2935 0 0 .2935 46.9 57.75)"/><g transform="matrix(-.3461 0 0 .3461 27.25 58.75)"><use xlink:href="#v"/><use xlink:href="#w"/></g><use xlink:href="#x" transform="matrix(-.346 0 0 .346 31.37 57.833)"/><use xlink:href="#y" transform="matrix(-.346 0 0 .346 31.37 57.833)"/><g><g transform="matrix(-.3461 0 0 .3461 94.42 68.433)"><use xlink:href="#z"/><use xlink:href="#A"/></g></g><g><use filter="url(#B)" xlink:href="#C" transform="matrix(-.3461 0 0 .3461 89.81 62.128)"/><use filter="url(#B)" xlink:href="#D" transform="scale(.3461) rotate(165 129.63 -39.392)"/><use filter="url(#B)" xlink:href="#C" transform="matrix(-.3461 0 0 .3461 73.372 64.81)"/><use filter="url(#B)" xlink:href="#D" transform="scale(.3461) rotate(165 105.37 -38.644)"/><use filter="url(#B)" xlink:href="#C" transform="matrix(-.3461 0 0 .3461 71.468 65.866)"/><use filter="url(#B)" xlink:href="#D" transform="scale(.3461) rotate(165 102.418 -37.48)"/><use filter="url(#B)" xlink:href="#E" transform="matrix(-.3461 0 0 .3461 64.53 71.992)"/><use filter="url(#B)" xlink:href="#F" transform="matrix(-.3461 0 0 .3461 64.53 71.992)"/><use filter="url(#B)" xlink:href="#G" transform="matrix(-.3461 0 0 .3461 64.53 71.992)"/><use filter="url(#B)" xlink:href="#H" transform="matrix(-.3461 0 0 .3461 64.53 71.992)"/><use filter="url(#B)" xlink:href="#I" transform="matrix(-.3461 0 0 .3461 64.53 71.992)"/><use filter="url(#B)" xlink:href="#J" transform="matrix(-.3461 0 0 .3461 64.53 71.992)"/><use filter="url(#B)" xlink:href="#K" transform="matrix(-.3461 0 0 .3461 64.53 71.992)"/><use filter="url(#B)" xlink:href="#L" transform="matrix(-.3461 0 0 .3461 64.53 71.992)"/><g transform="matrix(-.3461 0 0 .3461 64.53 71.992)"><use filter="url(#B)" xlink:href="#M"/></g><g><use filter="url(#B)" xlink:href="#C" transform="matrix(-.3461 0 0 .3461 74.6 58.927)"/><use filter="url(#B)" xlink:href="#D" transform="scale(.3461) rotate(165 108.263 -46.91)"/></g><g><use filter="url(#B)" xlink:href="#N" transform="matrix(-.346 0 0 .346 62.14 71.646)"/><use filter="url(#B)" xlink:href="#O" transform="matrix(-.346 0 0 .346 62.14 71.646)"/></g></g><g><use xlink:href="#P"/></g></g></g></svg>