
<svg xmlns="http://www.w3.org/2000/svg" version="1.1" xmlns:xlink="http://www.w3.org/1999/xlink" preserveAspectRatio="none" x="0px" y="0px" width="129px" height="102px" viewBox="0 0 129 102">
<defs>
<g id="Layer0_0_FILL">
<path fill="#FFCC99" stroke="none" d="
M 128.65 10
Q 128.65 5.9 125.7 3 122.8 0.05 118.7 0.05
L 118.65 0.05 10.05 0.05
Q 5.95 0.05 3.05 3 0.15 5.9 0.15 10
L 0.15 91.6
Q 0.25 95.55 3.05 98.35 5.95 101.3 10.05 101.3
L 118.7 101.3
Q 122.8 101.3 125.7 98.35 128.55 95.55 128.65 91.6
L 128.65 10
M 122.45 7.55
Q 123.1 8.2 123.1 10.05
L 123.1 11.4
Q 123.1 12.65 123.6 12.95 123.4 13.25 123.2 13.35 123 13.4 122.7 13.4 122.4 13.4 122.1 13.2 121.85 12.95 121.8 12.65 121.6 13 121.1 13.2 120.6 13.4 120.05 13.4 119.05 13.4 118.45 12.9 117.9 12.4 117.9 11.45 117.9 10.4 118.7 9.75 119.5 9.15 121 9.15 121.3 9.15 121.65 9.25 121.65 8.15 120.25 8.15 119.4 8.15 118.85 8.4
L 118.55 7.25
Q 119.3 6.9 120.35 6.9 121.75 6.9 122.45 7.55
M 118.9 4.45
L 120.45 4.45 121.45 6.2 120.25 6.2 118.9 4.45
M 112 11.65
Q 112 11.3 111.75 11.05 111.5 10.85 110.75 10.5 109.15 9.85 109.15 8.65 109.15 7.8 109.75 7.35 110.35 6.9 111.35 6.9 112.3 6.9 113.2 7.35
L 112.75 8.5
Q 112.3 8.05 111.4 8.05 110.65 8.05 110.65 8.7 110.65 8.9 110.9 9.1 111.15 9.3 112 9.65 112.8 9.95 113.15 10.4 113.55 10.9 113.55 11.55 113.55 12.4 112.9 12.9 112.25 13.4 111.15 13.4 110.5 13.4 110.15 13.3 109.75 13.2 109.15 12.9
L 109.7 11.75
Q 110.35 12.25 111.15 12.25 112 12.25 112 11.65
M 103.15 7.8
Q 104 6.9 105.35 6.9 106.8 6.9 107.55 7.75 108.35 8.65 108.35 10.15 108.35 11.65 107.55 12.55 106.75 13.4 105.35 13.4 103.9 13.4 103.15 12.55 102.35 11.65 102.35 10.15 102.35 8.7 103.15 7.8
M 101.8 23.8
Q 102.25 24.2 103.05 24.2 104.05 24.2 104.6 23.65
L 105.15 24.8
Q 104.35 25.4 102.85 25.4 101.4 25.4 100.55 24.6 99.75 23.75 99.75 22.25 99.75 20.75 100.65 19.85 101.55 18.9 102.85 18.9 104.2 18.9 105.05 19.7 105.85 20.55 105.85 21.8 105.85 22.05 105.75 22.6
L 101.25 22.6
Q 101.3 23.35 101.8 23.8
M 108.05 19
L 108.35 19.6
Q 108.95 18.9 109.9 18.9 111.15 18.9 111.8 19.6 112.1 19.3 112.55 19.1 113.05 18.9 113.55 18.9 114.6 18.9 115.2 19.5 115.75 20.1 115.75 21.15
L 115.75 25.3 114.3 25.3 114.3 21.35
Q 114.3 20.15 113.2 20.15 112.85 20.15 112.55 20.35 112.25 20.5 112.15 20.75
L 112.15 25.3 110.65 25.3 110.65 21.15
Q 110.65 20.7 110.4 20.4 110.1 20.15 109.6 20.15 109.3 20.15 109 20.35 108.65 20.55 108.5 20.8
L 108.5 25.3 107.05 25.3 107.05 19 108.05 19
M 101.3 4.35
L 101.3 13.3 99.85 13.3 99.85 12.9
Q 99.65 13.1 99.2 13.25 98.8 13.4 98.3 13.4 97 13.4 96.25 12.6 95.5 11.75 95.5 10.25 95.5 8.8 96.35 7.85 97.25 6.9 98.55 6.9 99.25 6.9 99.85 7.2
L 99.85 4.7 101.3 4.35
M 94.2 10.05
L 94.2 11.4
Q 94.2 12.65 94.7 12.95 94.5 13.25 94.3 13.35 94.1 13.4 93.8 13.4 93.5 13.4 93.2 13.2 92.95 12.95 92.9 12.65 92.7 13 92.2 13.2 91.7 13.4 91.15 13.4 90.15 13.4 89.55 12.9 89 12.4 89 11.45 89 10.4 89.8 9.75 90.6 9.15 92.1 9.15 92.4 9.15 92.75 9.25 92.75 8.15 91.35 8.15 90.5 8.15 89.95 8.4
L 89.65 7.25
Q 90.4 6.9 91.45 6.9 92.85 6.9 93.55 7.55 94.2 8.2 94.2 10.05
M 86 8.5
Q 85.7 8.15 85 8.15 84.7 8.15 84.35 8.3 83.95 8.5 83.75 8.75
L 83.75 13.3 82.3 13.3 82.3 7 83.35 7 83.6 7.6
Q 84.2 6.9 85.4 6.9 86.5 6.9 87.15 7.6 87.8 8.25 87.8 9.45
L 87.8 13.3 86.35 13.3 86.35 9.65
Q 86.35 8.85 86 8.5
M 84.05 16.7
L 85.5 16.35 85.5 25.3 84.05 25.3 84.05 24.9
Q 83.85 25.1 83.4 25.25 83 25.4 82.5 25.4 81.2 25.4 80.45 24.6 79.7 23.75 79.7 22.25 79.7 20.8 80.55 19.85 81.45 18.9 82.75 18.9 83.45 18.9 84.05 19.2
L 84.05 16.7
M 87.45 19.85
Q 88.35 18.9 89.65 18.9 91 18.9 91.85 19.7 92.65 20.55 92.65 21.8 92.65 22.05 92.55 22.6
L 88.05 22.6
Q 88.1 23.35 88.6 23.8 89.05 24.2 89.85 24.2 90.85 24.2 91.4 23.65
L 91.95 24.8
Q 91.15 25.4 89.65 25.4 88.2 25.4 87.35 24.6 86.55 23.75 86.55 22.25 86.55 20.75 87.45 19.85
M 93.1 19
L 94.7 19 96.2 22.85 97.8 19 99.35 19 96.45 25.4 95.9 25.4 93.1 19
M 93.25 31.35
L 92.8 32.5
Q 92.35 32.05 91.45 32.05 90.7 32.05 90.7 32.7 90.7 32.9 90.95 33.1 91.2 33.3 92.05 33.65 92.85 33.95 93.2 34.4 93.6 34.9 93.6 35.55 93.6 36.4 92.95 36.9 92.3 37.4 91.2 37.4 90.55 37.4 90.2 37.3 89.8 37.2 89.2 36.9
L 89.75 35.75
Q 90.4 36.25 91.2 36.25 92.05 36.25 92.05 35.65 92.05 35.3 91.8 35.05 91.55 34.85 90.8 34.5 89.2 33.85 89.2 32.65 89.2 31.8 89.8 31.35 90.4 30.9 91.4 30.9 92.35 30.9 93.25 31.35
M 99.45 34.6
Q 99.5 35.35 100 35.8 100.45 36.2 101.25 36.2 102.25 36.2 102.8 35.65
L 103.35 36.8
Q 102.55 37.4 101.05 37.4 99.6 37.4 98.75 36.6 97.95 35.75 97.95 34.25 97.95 32.75 98.85 31.85 99.75 30.9 101.05 30.9 102.4 30.9 103.25 31.7 104.05 32.55 104.05 33.8 104.05 34.05 103.95 34.6
L 99.45 34.6
M 82.4 34.15
Q 82.4 32.7 83.2 31.8 84.05 30.9 85.4 30.9 86.85 30.9 87.6 31.75 88.4 32.65 88.4 34.15 88.4 35.65 87.6 36.55 86.8 37.4 85.4 37.4 83.95 37.4 83.2 36.55 82.4 35.65 82.4 34.15
M 91.05 41.2
L 91.05 43 92.75 43 92.75 44.2 91.05 44.2 91.05 46.95
Q 91.05 47.6 91.25 47.9 91.45 48.2 92 48.2 92.5 48.2 92.95 47.9
L 92.95 49.25
Q 92.45 49.4 91.5 49.4 90.55 49.4 90.05 48.9 89.55 48.35 89.55 47.4
L 89.55 44.2 88.85 44.2 88.85 43 89.55 43 89.55 41.75 91.05 41.2
M 87.3 42.9
Q 88.05 42.9 88.45 43.15
L 87.8 44.4
Q 87.45 44.15 86.95 44.15 86.45 44.15 86.05 44.6 85.65 45.05 85.65 45.75
L 85.65 49.3 84.2 49.3 84.2 43 85.65 43 85.65 43.6
Q 86.25 42.9 87.3 42.9
M 83 45.8
Q 83 46.05 82.9 46.6
L 78.4 46.6
Q 78.45 47.35 78.95 47.8 79.4 48.2 80.2 48.2 81.2 48.2 81.75 47.65
L 82.3 48.8
Q 81.5 49.4 80 49.4 78.55 49.4 77.7 48.6 76.9 47.75 76.9 46.25 76.9 44.75 77.8 43.85 78.7 42.9 80 42.9 81.35 42.9 82.2 43.7 83 44.55 83 45.8
M 93.7 46.15
Q 93.7 44.7 94.5 43.8 95.35 42.9 96.7 42.9 98.15 42.9 98.9 43.75 99.7 44.65 99.7 46.15 99.7 47.65 98.9 48.55 98.1 49.4 96.7 49.4 95.25 49.4 94.5 48.55 93.7 47.65 93.7 46.15
M 81.35 28.35
L 81.35 37.3 79.9 37.3 79.9 36.9
Q 79.7 37.1 79.25 37.25 78.85 37.4 78.35 37.4 77.05 37.4 76.3 36.6 75.55 35.75 75.55 34.25 75.55 32.8 76.4 31.85 77.3 30.9 78.6 30.9 79.3 30.9 79.9 31.2
L 79.9 28.7 81.35 28.35
M 113.4 31.5
Q 113.95 32.1 113.95 33.15
L 113.95 37.3 112.5 37.3 112.5 33.35
Q 112.5 32.15 111.4 32.15 111.05 32.15 110.75 32.35 110.45 32.5 110.35 32.75
L 110.35 37.3 108.85 37.3 108.85 33.15
Q 108.85 32.7 108.6 32.4 108.3 32.15 107.8 32.15 107.5 32.15 107.2 32.35 106.85 32.55 106.7 32.8
L 106.7 37.3 105.25 37.3 105.25 31 106.25 31 106.55 31.6
Q 107.15 30.9 108.1 30.9 109.35 30.9 110 31.6 110.3 31.3 110.75 31.1 111.25 30.9 111.75 30.9 112.8 30.9 113.4 31.5
M 101.45 47.8
Q 101.75 47.5 102.15 47.5 102.6 47.5 102.9 47.8 103.25 48.1 103.25 48.55 103.25 48.95 102.9 49.3 102.6 49.6 102.15 49.6 101.75 49.6 101.45 49.3 101.1 48.95 101.1 48.55 101.1 48.1 101.45 47.8
M 114.9 55
L 116.35 55 116.35 61.3 114.9 61.3 114.9 60.8
Q 114.55 61.05 114.05 61.25 113.5 61.4 113.05 61.4 110.85 61.4 110.85 59.1
L 110.85 55 112.3 55 112.3 59
Q 112.3 60.2 113.4 60.2 113.9 60.2 114.3 59.95 114.75 59.7 114.9 59.35
L 114.9 55
M 104.45 60.55
Q 103.65 59.65 103.65 58.15 103.65 56.7 104.45 55.8 105.3 54.9 106.65 54.9 108.1 54.9 108.85 55.75 109.65 56.65 109.65 58.15 109.65 59.65 108.85 60.55 108.05 61.4 106.65 61.4 105.2 61.4 104.45 60.55
M 109.8 67.6
Q 110.4 66.9 111.35 66.9 112.6 66.9 113.25 67.6 113.55 67.3 114 67.1 114.5 66.9 115 66.9 116.05 66.9 116.65 67.5 117.2 68.1 117.2 69.15
L 117.2 73.3 115.75 73.3 115.75 69.35
Q 115.75 68.15 114.65 68.15 114.3 68.15 114 68.35 113.7 68.5 113.6 68.75
L 113.6 73.3 112.1 73.3 112.1 69.15
Q 112.1 68.7 111.85 68.4 111.55 68.15 111.05 68.15 110.75 68.15 110.45 68.35 110.1 68.55 109.95 68.8
L 109.95 73.3 108.5 73.3 108.5 67 109.5 67 109.8 67.6
M 102.1 67.85
Q 103 66.9 104.3 66.9 105.65 66.9 106.5 67.7 107.3 68.55 107.3 69.8 107.3 70.05 107.2 70.6
L 102.7 70.6
Q 102.75 71.35 103.25 71.8 103.7 72.2 104.5 72.2 105.5 72.2 106.05 71.65
L 106.6 72.8
Q 105.8 73.4 104.3 73.4 102.85 73.4 102 72.6 101.2 71.75 101.2 70.25 101.2 68.75 102.1 67.85
M 97.1 54.9
Q 98.05 54.9 98.95 55.35
L 98.5 56.5
Q 98.05 56.05 97.15 56.05 96.4 56.05 96.4 56.7 96.4 56.9 96.65 57.1 96.9 57.3 97.75 57.65 98.55 57.95 98.9 58.4 99.3 58.9 99.3 59.55 99.3 60.4 98.65 60.9 98 61.4 96.9 61.4 96.25 61.4 95.9 61.3 95.5 61.2 94.9 60.9
L 95.45 59.75
Q 96.1 60.25 96.9 60.25 97.75 60.25 97.75 59.65 97.75 59.3 97.5 59.05 97.25 58.85 96.5 58.5 94.9 57.85 94.9 56.65 94.9 55.8 95.5 55.35 96.1 54.9 97.1 54.9
M 94.1 57.8
Q 94.1 58.05 94 58.6
L 89.5 58.6
Q 89.55 59.35 90.05 59.8 90.5 60.2 91.3 60.2 92.3 60.2 92.85 59.65
L 93.4 60.8
Q 92.6 61.4 91.1 61.4 89.65 61.4 88.8 60.6 88 59.75 88 58.25 88 56.75 88.9 55.85 89.8 54.9 91.1 54.9 92.45 54.9 93.3 55.7 94.1 56.55 94.1 57.8
M 83.15 55
L 83.85 55 83.85 53.75 85.35 53.2 85.35 55 87.05 55 87.05 56.2 85.35 56.2 85.35 58.95
Q 85.35 59.6 85.55 59.9 85.75 60.2 86.3 60.2 86.8 60.2 87.25 59.9
L 87.25 61.25
Q 86.75 61.4 85.8 61.4 84.85 61.4 84.35 60.9 83.85 60.35 83.85 59.4
L 83.85 56.2 83.15 56.2 83.15 55
M 82.45 58.15
Q 82.45 59.65 81.65 60.55 80.85 61.4 79.45 61.4 78 61.4 77.25 60.55 76.45 59.65 76.45 58.15 76.45 56.7 77.25 55.8 78.1 54.9 79.45 54.9 80.9 54.9 81.65 55.75 82.45 56.65 82.45 58.15
M 88.9 67.85
Q 89.8 66.9 91.1 66.9 92.45 66.9 93.3 67.7 94.1 68.55 94.1 69.8 94.1 70.05 94 70.6
L 89.5 70.6
Q 89.55 71.35 90.05 71.8 90.5 72.2 91.3 72.2 92.3 72.2 92.85 71.65
L 93.4 72.8
Q 92.6 73.4 91.1 73.4 89.65 73.4 88.8 72.6 88 71.75 88 70.25 88 68.75 88.9 67.85
M 82 67.85
Q 82.9 66.9 84.2 66.9 84.9 66.9 85.5 67.2
L 85.5 64.7 86.95 64.35 86.95 73.3 85.5 73.3 85.5 72.9
Q 85.3 73.1 84.85 73.25 84.45 73.4 83.95 73.4 82.65 73.4 81.9 72.6 81.15 71.75 81.15 70.25 81.15 68.8 82 67.85
M 99.25 67
L 100.8 67 97.9 73.4 97.35 73.4 94.55 67 96.15 67 97.65 70.85 99.25 67
M 98.4 79
L 99.9 79 99.9 79.45
Q 100.45 78.9 101.25 78.9 104.25 78.9 104.25 82.2 104.25 83.75 103.4 84.6 102.6 85.4 101.15 85.4 100.45 85.4 99.9 85.15
L 99.9 87.75 98.4 87.75 98.4 79
M 93.35 82.05
L 93.35 83.4
Q 93.35 84.65 93.85 84.95 93.65 85.25 93.45 85.35 93.25 85.4 92.95 85.4 92.65 85.4 92.35 85.2 92.1 84.95 92.05 84.65 91.85 85 91.35 85.2 90.85 85.4 90.3 85.4 89.3 85.4 88.7 84.9 88.15 84.4 88.15 83.45 88.15 82.4 88.95 81.75 89.75 81.15 91.25 81.15 91.55 81.15 91.9 81.25 91.9 80.15 90.5 80.15 89.65 80.15 89.1 80.4
L 88.8 79.25
Q 89.55 78.9 90.6 78.9 92 78.9 92.7 79.55 93.35 80.2 93.35 82.05
M 82.9 79.8
Q 83.8 78.9 85.4 78.9 86.5 78.9 87.3 79.5
L 86.7 80.6
Q 86.15 80.15 85.3 80.15 84.45 80.15 84 80.7 83.5 81.25 83.5 82.2 83.5 84.2 85.4 84.2 86.2 84.2 86.8 83.65
L 87.35 84.8
Q 86.7 85.2 86.25 85.3 85.75 85.4 85.1 85.4 83.65 85.4 82.8 84.55 82 83.7 82 82.2 82 80.75 82.9 79.8
M 84.2 85.95
L 84.7 85.45
Q 85.75 85.65 85.75 86.65 85.75 87.2 85.35 87.55 84.9 87.85 84.25 87.85 83.95 87.85 83.7 87.8
L 83.45 87.05
Q 83.65 87.1 83.85 87.1 84.6 87.1 84.6 86.55 84.6 86.35 84.5 86.2 84.4 86 84.2 85.95
M 81.2 81.8
Q 81.2 82.05 81.1 82.6
L 76.6 82.6
Q 76.65 83.35 77.15 83.8 77.6 84.2 78.4 84.2 79.4 84.2 79.95 83.65
L 80.5 84.8
Q 79.7 85.4 78.2 85.4 76.75 85.4 75.9 84.6 75.1 83.75 75.1 82.25 75.1 80.75 76 79.85 76.9 78.9 78.2 78.9 79.55 78.9 80.4 79.7 81.2 80.55 81.2 81.8
M 81.35 95.8
Q 81.7 96.1 81.7 96.55 81.7 96.95 81.35 97.3 81.05 97.6 80.6 97.6 80.2 97.6 79.9 97.3 79.55 96.95 79.55 96.55 79.55 96.1 79.9 95.8 80.2 95.5 80.6 95.5 81.05 95.5 81.35 95.8
M 119.15 78.9
Q 120.55 78.9 121.25 79.55 121.9 80.2 121.9 82.05
L 121.9 83.4
Q 121.9 84.65 122.4 84.95 122.2 85.25 122 85.35 121.8 85.4 121.5 85.4 121.2 85.4 120.9 85.2 120.65 84.95 120.6 84.65 120.4 85 119.9 85.2 119.4 85.4 118.85 85.4 117.85 85.4 117.25 84.9 116.7 84.4 116.7 83.45 116.7 82.4 117.5 81.75 118.3 81.15 119.8 81.15 120.1 81.15 120.45 81.25 120.45 80.15 119.05 80.15 118.2 80.15 117.65 80.4
L 117.35 79.25
Q 118.1 78.9 119.15 78.9
M 113.4 79.6
Q 114 78.9 115.05 78.9 115.8 78.9 116.2 79.15
L 115.55 80.4
Q 115.2 80.15 114.7 80.15 114.2 80.15 113.8 80.6 113.4 81.05 113.4 81.75
L 113.4 85.3 111.95 85.3 111.95 79 113.4 79 113.4 79.6
M 107.6 78.9
Q 109 78.9 109.7 79.55 110.35 80.2 110.35 82.05
L 110.35 83.4
Q 110.35 84.65 110.85 84.95 110.65 85.25 110.45 85.35 110.25 85.4 109.95 85.4 109.65 85.4 109.35 85.2 109.1 84.95 109.05 84.65 108.85 85 108.35 85.2 107.85 85.4 107.3 85.4 106.3 85.4 105.7 84.9 105.15 84.4 105.15 83.45 105.15 82.4 105.95 81.75 106.75 81.15 108.25 81.15 108.55 81.15 108.9 81.25 108.9 80.15 107.5 80.15 106.65 80.15 106.1 80.4
L 105.8 79.25
Q 106.55 78.9 107.6 78.9
M 79.85 4.6
Q 80.2 4.6 80.45 4.85 80.7 5.1 80.7 5.45 80.7 5.8 80.45 6.05 80.2 6.3 79.85 6.3 79.5 6.3 79.25 6.05 79 5.8 79 5.45 79 5.1 79.25 4.85 79.5 4.6 79.85 4.6
M 74.15 5.75
L 75.65 5.2 75.65 7 77.35 7 77.35 8.2 75.65 8.2 75.65 10.95
Q 75.65 11.6 75.85 11.9 76.05 12.2 76.6 12.2 77.1 12.2 77.55 11.9
L 77.55 13.25
Q 77.05 13.4 76.1 13.4 75.15 13.4 74.65 12.9 74.15 12.35 74.15 11.4
L 74.15 8.2 73.45 8.2 73.45 7 74.15 7 74.15 5.75
M 72.45 7.35
L 72 8.5
Q 71.55 8.05 70.65 8.05 69.9 8.05 69.9 8.7 69.9 8.9 70.15 9.1 70.4 9.3 71.25 9.65 72.05 9.95 72.4 10.4 72.8 10.9 72.8 11.55 72.8 12.4 72.15 12.9 71.5 13.4 70.4 13.4 69.75 13.4 69.4 13.3 69 13.2 68.4 12.9
L 68.95 11.75
Q 69.6 12.25 70.4 12.25 71.25 12.25 71.25 11.65 71.25 11.3 71 11.05 70.75 10.85 70 10.5 68.4 9.85 68.4 8.65 68.4 7.8 69 7.35 69.6 6.9 70.6 6.9 71.55 6.9 72.45 7.35
M 78.3 7
L 80.55 7 80.55 13.3 79.1 13.3 79.1 8.25 78.3 8.25 78.3 7
M 62.4 7.85
Q 63.3 6.9 64.6 6.9 65.95 6.9 66.8 7.7 67.6 8.55 67.6 9.8 67.6 10.05 67.5 10.6
L 63 10.6
Q 63.05 11.35 63.55 11.8 64 12.2 64.8 12.2 65.8 12.2 66.35 11.65
L 66.9 12.8
Q 66.1 13.4 64.6 13.4 63.15 13.4 62.3 12.6 61.5 11.75 61.5 10.25 61.5 8.75 62.4 7.85
M 62.1 24.2
Q 63.1 24.2 63.65 23.65
L 64.2 24.8
Q 63.4 25.4 61.9 25.4 60.45 25.4 59.6 24.6 58.8 23.75 58.8 22.25 58.8 20.75 59.7 19.85 60.6 18.9 61.9 18.9 63.25 18.9 64.1 19.7 64.9 20.55 64.9 21.8 64.9 22.05 64.8 22.6
L 60.3 22.6
Q 60.35 23.35 60.85 23.8 61.3 24.2 62.1 24.2
M 67.1 19
L 67.4 19.6
Q 68 18.9 68.95 18.9 70.2 18.9 70.85 19.6 71.15 19.3 71.6 19.1 72.1 18.9 72.6 18.9 73.65 18.9 74.25 19.5 74.8 20.1 74.8 21.15
L 74.8 25.3 73.35 25.3 73.35 21.35
Q 73.35 20.15 72.25 20.15 71.9 20.15 71.6 20.35 71.3 20.5 71.2 20.75
L 71.2 25.3 69.7 25.3 69.7 21.15
Q 69.7 20.7 69.45 20.4 69.15 20.15 68.65 20.15 68.35 20.15 68.05 20.35 67.7 20.55 67.55 20.8
L 67.55 25.3 66.1 25.3 66.1 19 67.1 19
M 59 4.7
L 60.45 4.35 60.45 13.3 59 13.3 59 12.9
Q 58.8 13.1 58.35 13.25 57.95 13.4 57.45 13.4 56.15 13.4 55.4 12.6 54.65 11.75 54.65 10.25 54.65 8.8 55.5 7.85 56.4 6.9 57.7 6.9 58.4 6.9 59 7.2
L 59 4.7
M 42 6.9
Q 43.45 6.9 44.2 7.75 45 8.65 45 10.15 45 11.65 44.2 12.55 43.4 13.4 42 13.4 40.55 13.4 39.8 12.55 39 11.65 39 10.15 39 8.7 39.8 7.8 40.65 6.9 42 6.9
M 49.85 7.35
L 49.4 8.5
Q 48.95 8.05 48.05 8.05 47.3 8.05 47.3 8.7 47.3 8.9 47.55 9.1 47.8 9.3 48.65 9.65 49.45 9.95 49.8 10.4 50.2 10.9 50.2 11.55 50.2 12.4 49.55 12.9 48.9 13.4 47.8 13.4 47.15 13.4 46.8 13.3 46.4 13.2 45.8 12.9
L 46.35 11.75
Q 47 12.25 47.8 12.25 48.65 12.25 48.65 11.65 48.65 11.3 48.4 11.05 48.15 10.85 47.4 10.5 45.8 9.85 45.8 8.65 45.8 7.8 46.4 7.35 47 6.9 48 6.9 48.95 6.9 49.85 7.35
M 43.5 16.7
L 44.95 16.35 44.95 23.4
Q 44.95 24.55 45.65 24.75 45.3 25.4 44.5 25.4 43.5 25.4 43.5 24.05
L 43.5 16.7
M 42 19.5
L 41.4 20.6
Q 40.85 20.15 40 20.15 39.15 20.15 38.7 20.7 38.2 21.25 38.2 22.2 38.2 24.2 40.1 24.2 40.9 24.2 41.5 23.65
L 42.05 24.8
Q 41.4 25.2 40.95 25.3 40.45 25.4 39.8 25.4 38.35 25.4 37.5 24.55 36.7 23.7 36.7 22.2 36.7 20.75 37.6 19.8 38.5 18.9 40.1 18.9 41.2 18.9 42 19.5
M 50.15 21.25
Q 50.15 20.15 48.75 20.15 47.9 20.15 47.35 20.4
L 47.05 19.25
Q 47.8 18.9 48.85 18.9 50.25 18.9 50.95 19.55 51.6 20.2 51.6 22.05
L 51.6 23.4
Q 51.6 24.65 52.1 24.95 51.9 25.25 51.7 25.35 51.5 25.4 51.2 25.4 50.9 25.4 50.6 25.2 50.35 24.95 50.3 24.65 50.1 25 49.6 25.2 49.1 25.4 48.55 25.4 47.55 25.4 46.95 24.9 46.4 24.4 46.4 23.45 46.4 22.4 47.2 21.75 48 21.15 49.5 21.15 49.8 21.15 50.15 21.25
M 53.45 19.55
Q 54.15 18.9 55.25 18.9 56.1 18.9 56.65 19.2
L 57.25 18.55 58.25 19.45 57.55 19.95
Q 57.9 20.5 57.9 21.25 57.9 22.35 57.25 23 56.6 23.65 55.6 23.65 55.45 23.65 55.2 23.6
L 54.95 23.55
Q 54.9 23.55 54.65 23.7 54.35 23.8 54.35 23.95 54.35 24.2 54.75 24.2 54.95 24.2 55.4 24.1 55.8 24 56.1 24 58.25 24 58.25 25.75 58.25 26.7 57.4 27.2 56.55 27.75 55.35 27.75 53.9 27.75 52.7 26.9
L 53.65 25.75
Q 54.4 26.45 55.35 26.45 56 26.45 56.4 26.3 56.8 26.1 56.8 25.75 56.8 25.2 55.9 25.2 55.65 25.2 55.15 25.25 54.7 25.35 54.45 25.35 52.95 25.35 52.95 24.25 52.95 23.95 53.2 23.65 53.45 23.35 53.75 23.2 52.7 22.5 52.7 21.2 52.7 20.2 53.45 19.55
M 53.65 33.15
Q 53.95 33.15 54.3 33.25 54.3 32.15 52.9 32.15 52.05 32.15 51.5 32.4
L 51.2 31.25
Q 51.95 30.9 53 30.9 54.4 30.9 55.1 31.55 55.75 32.2 55.75 34.05
L 55.75 35.4
Q 55.75 36.65 56.25 36.95 56.05 37.25 55.85 37.35 55.65 37.4 55.35 37.4 55.05 37.4 54.75 37.2 54.5 36.95 54.45 36.65 54.25 37 53.75 37.2 53.25 37.4 52.7 37.4 51.7 37.4 51.1 36.9 50.55 36.4 50.55 35.45 50.55 34.4 51.35 33.75 52.15 33.15 53.65 33.15
M 60.1 32.15
Q 59.6 32.15 59.2 32.6 58.8 33.05 58.8 33.75
L 58.8 37.3 57.35 37.3 57.35 31 58.8 31 58.8 31.6
Q 59.4 30.9 60.45 30.9 61.2 30.9 61.6 31.15
L 60.95 32.4
Q 60.6 32.15 60.1 32.15
M 42.9 31.45
L 42.2 31.95
Q 42.55 32.5 42.55 33.25 42.55 34.35 41.9 35 41.25 35.65 40.25 35.65 40.1 35.65 39.85 35.6
L 39.6 35.55
Q 39.55 35.55 39.3 35.7 39 35.8 39 35.95 39 36.2 39.4 36.2 39.6 36.2 40.05 36.1 40.45 36 40.75 36 42.9 36 42.9 37.75 42.9 38.7 42.05 39.2 41.2 39.75 40 39.75 38.55 39.75 37.35 38.9
L 38.3 37.75
Q 39.05 38.45 40 38.45 40.65 38.45 41.05 38.3 41.45 38.1 41.45 37.75 41.45 37.2 40.55 37.2 40.3 37.2 39.8 37.25 39.35 37.35 39.1 37.35 37.6 37.35 37.6 36.25 37.6 35.95 37.85 35.65 38.1 35.35 38.4 35.2 37.35 34.5 37.35 33.2 37.35 32.2 38.1 31.55 38.8 30.9 39.9 30.9 40.75 30.9 41.3 31.2
L 41.9 30.55 42.9 31.45
M 43.85 35.1
L 43.85 31 45.3 31 45.3 35
Q 45.3 36.2 46.4 36.2 46.9 36.2 47.3 35.95 47.75 35.7 47.9 35.35
L 47.9 31 49.35 31 49.35 37.3 47.9 37.3 47.9 36.8
Q 47.55 37.05 47.05 37.25 46.5 37.4 46.05 37.4 43.85 37.4 43.85 35.1
M 42.6 48.8
Q 41.95 49.2 41.5 49.3 41 49.4 40.35 49.4 38.9 49.4 38.05 48.55 37.25 47.7 37.25 46.2 37.25 44.75 38.15 43.8 39.05 42.9 40.65 42.9 41.75 42.9 42.55 43.5
L 41.95 44.6
Q 41.4 44.15 40.55 44.15 39.7 44.15 39.25 44.7 38.75 45.25 38.75 46.2 38.75 48.2 40.65 48.2 41.45 48.2 42.05 47.65
L 42.6 48.8
M 45.55 49.4
Q 44.55 49.4 43.95 48.9 43.4 48.4 43.4 47.45 43.4 46.4 44.2 45.75 45 45.15 46.5 45.15 46.8 45.15 47.15 45.25 47.15 44.15 45.75 44.15 44.9 44.15 44.35 44.4
L 44.05 43.25
Q 44.8 42.9 45.85 42.9 47.25 42.9 47.95 43.55 48.6 44.2 48.6 46.05
L 48.6 47.4
Q 48.6 48.65 49.1 48.95 48.9 49.25 48.7 49.35 48.5 49.4 48.2 49.4 47.9 49.4 47.6 49.2 47.35 48.95 47.3 48.65 47.1 49 46.6 49.2 46.1 49.4 45.55 49.4
M 50.45 48.05
L 50.45 40.7 51.9 40.35 51.9 47.4
Q 51.9 48.55 52.6 48.75 52.25 49.4 51.45 49.4 50.45 49.4 50.45 48.05
M 58.45 46.2
Q 58.45 48.2 60.35 48.2 61.15 48.2 61.75 47.65
L 62.3 48.8
Q 61.65 49.2 61.2 49.3 60.7 49.4 60.05 49.4 58.6 49.4 57.75 48.55 56.95 47.7 56.95 46.2 56.95 44.75 57.85 43.8 58.75 42.9 60.35 42.9 61.45 42.9 62.25 43.5
L 61.65 44.6
Q 61.1 44.15 60.25 44.15 59.4 44.15 58.95 44.7 58.45 45.25 58.45 46.2
M 74.25 35.4
Q 74.25 36.65 74.75 36.95 74.55 37.25 74.35 37.35 74.15 37.4 73.85 37.4 73.55 37.4 73.25 37.2 73 36.95 72.95 36.65 72.75 37 72.25 37.2 71.75 37.4 71.2 37.4 70.2 37.4 69.6 36.9 69.05 36.4 69.05 35.45 69.05 34.4 69.85 33.75 70.65 33.15 72.15 33.15 72.45 33.15 72.8 33.25 72.8 32.15 71.4 32.15 70.55 32.15 70 32.4
L 69.7 31.25
Q 70.45 30.9 71.5 30.9 72.9 30.9 73.6 31.55 74.25 32.2 74.25 34.05
L 74.25 35.4
M 66.55 28.7
L 68 28.35 68 37.3 66.55 37.3 66.55 36.9
Q 66.35 37.1 65.9 37.25 65.5 37.4 65 37.4 63.7 37.4 62.95 36.6 62.2 35.75 62.2 34.25 62.2 32.8 63.05 31.85 63.95 30.9 65.25 30.9 65.95 30.9 66.55 31.2
L 66.55 28.7
M 63.9 48.55
Q 63.1 47.65 63.1 46.15 63.1 44.7 63.9 43.8 64.75 42.9 66.1 42.9 67.55 42.9 68.3 43.75 69.1 44.65 69.1 46.15 69.1 47.65 68.3 48.55 67.5 49.4 66.1 49.4 64.65 49.4 63.9 48.55
M 70.15 49.4
L 70.15 40.7 71.65 40.35 71.65 43.25
Q 72.2 42.9 72.9 42.9 74.3 42.9 75.15 43.8 76 44.65 76 46 76 47.6 75.15 48.5 74.3 49.4 72.85 49.4 71.95 49.4 71.35 48.95
L 71 49.4 70.15 49.4
M 34.15 7
L 34.85 7 34.85 5.75 36.35 5.2 36.35 7 38.05 7 38.05 8.2 36.35 8.2 36.35 10.95
Q 36.35 11.6 36.55 11.9 36.75 12.2 37.3 12.2 37.8 12.2 38.25 11.9
L 38.25 13.25
Q 37.75 13.4 36.8 13.4 35.85 13.4 35.35 12.9 34.85 12.35 34.85 11.4
L 34.85 8.2 34.15 8.2 34.15 7
M 30.45 6.9
Q 31.8 6.9 32.65 7.7 33.45 8.55 33.45 9.8 33.45 10.05 33.35 10.6
L 28.85 10.6
Q 28.9 11.35 29.4 11.8 29.85 12.2 30.65 12.2 31.65 12.2 32.2 11.65
L 32.75 12.8
Q 31.95 13.4 30.45 13.4 29 13.4 28.15 12.6 27.35 11.75 27.35 10.25 27.35 8.75 28.25 7.85 29.15 6.9 30.45 6.9
M 26 5.45
Q 26 5.8 25.75 6.05 25.5 6.3 25.15 6.3 24.8 6.3 24.55 6.05 24.3 5.8 24.3 5.45 24.3 5.1 24.55 4.85 24.8 4.6 25.15 4.6 25.5 4.6 25.75 4.85 26 5.1 26 5.45
M 24.5 8.25
L 23.35 8.25 23.35 7 25.95 7 25.95 13.15
Q 25.95 14.5 25.1 15.15 24.25 15.75 22.5 15.75
L 22.5 14.45
Q 23.65 14.45 24.05 14.2 24.5 13.9 24.5 13.2
L 24.5 8.25
M 21.2 7.8
Q 22.05 8.65 22.05 10 22.05 11.6 21.2 12.5 20.35 13.4 18.9 13.4 18 13.4 17.4 12.95
L 17.05 13.4 16.2 13.4 16.2 4.7 17.7 4.35 17.7 7.25
Q 18.25 6.9 18.95 6.9 20.35 6.9 21.2 7.8
M 22.1 23.8
Q 22.55 24.2 23.35 24.2 24.35 24.2 24.9 23.65
L 25.45 24.8
Q 24.65 25.4 23.15 25.4 21.7 25.4 20.85 24.6 20.05 23.75 20.05 22.25 20.05 20.75 20.95 19.85 21.85 18.9 23.15 18.9 24.5 18.9 25.35 19.7 26.15 20.55 26.15 21.8 26.15 22.05 26.05 22.6
L 21.55 22.6
Q 21.6 23.35 22.1 23.8
M 27.85 19.8
Q 28.75 18.9 30.35 18.9 31.45 18.9 32.25 19.5
L 31.65 20.6
Q 31.1 20.15 30.25 20.15 29.4 20.15 28.95 20.7 28.45 21.25 28.45 22.2 28.45 24.2 30.35 24.2 31.15 24.2 31.75 23.65
L 32.3 24.8
Q 31.65 25.2 31.2 25.3 30.7 25.4 30.05 25.4 28.6 25.4 27.75 24.55 26.95 23.7 26.95 22.2 26.95 20.75 27.85 19.8
M 34.65 16.6
Q 35 16.6 35.25 16.85 35.5 17.1 35.5 17.45 35.5 17.8 35.25 18.05 35 18.3 34.65 18.3 34.3 18.3 34.05 18.05 33.8 17.8 33.8 17.45 33.8 17.1 34.05 16.85 34.3 16.6 34.65 16.6
M 33.1 20.25
L 33.1 19 35.35 19 35.35 25.3 33.9 25.3 33.9 20.25 33.1 20.25
M 11.25 4.55
Q 13.1 4.55 14.1 5.7 15.05 6.85 15.05 8.95 15.05 11 14.05 12.25 13 13.45 11.15 13.45 9.4 13.45 8.5 12.25 7.55 11.05 7.55 8.95 7.55 7.1 8.6 5.85 9.6 4.55 11.25 4.55
M 18.05 20.15
Q 17.55 20.15 17.15 20.6 16.75 21.05 16.75 21.75
L 16.75 25.3 15.3 25.3 15.3 19 16.75 19 16.75 19.6
Q 17.35 18.9 18.4 18.9 19.15 18.9 19.55 19.15
L 18.9 20.4
Q 18.55 20.15 18.05 20.15
M 18.4 33.1
Q 18.65 33.3 19.5 33.65 20.3 33.95 20.65 34.4 21.05 34.9 21.05 35.55 21.05 36.4 20.4 36.9 19.75 37.4 18.65 37.4 18 37.4 17.65 37.3 17.25 37.2 16.65 36.9
L 17.2 35.75
Q 17.85 36.25 18.65 36.25 19.5 36.25 19.5 35.65 19.5 35.3 19.25 35.05 19 34.85 18.25 34.5 16.65 33.85 16.65 32.65 16.65 31.8 17.25 31.35 17.85 30.9 18.85 30.9 19.8 30.9 20.7 31.35
L 20.25 32.5
Q 19.8 32.05 18.9 32.05 18.15 32.05 18.15 32.7 18.15 32.9 18.4 33.1
M 33.35 31.15
L 32.7 32.4
Q 32.35 32.15 31.85 32.15 31.35 32.15 30.95 32.6 30.55 33.05 30.55 33.75
L 30.55 37.3 29.1 37.3 29.1 31 30.55 31 30.55 31.6
Q 31.15 30.9 32.2 30.9 32.95 30.9 33.35 31.15
M 23.3 34.6
Q 23.35 35.35 23.85 35.8 24.3 36.2 25.1 36.2 26.1 36.2 26.65 35.65
L 27.2 36.8
Q 26.4 37.4 24.9 37.4 23.45 37.4 22.6 36.6 21.8 35.75 21.8 34.25 21.8 32.75 22.7 31.85 23.6 30.9 24.9 30.9 26.25 30.9 27.1 31.7 27.9 32.55 27.9 33.8 27.9 34.05 27.8 34.6
L 23.3 34.6
M 27.55 40.7
L 29 40.35 29 47.4
Q 29 48.55 29.7 48.75 29.35 49.4 28.55 49.4 27.55 49.4 27.55 48.05
L 27.55 40.7
M 30.45 46.15
Q 30.45 44.7 31.25 43.8 32.1 42.9 33.45 42.9 34.9 42.9 35.65 43.75 36.45 44.65 36.45 46.15 36.45 47.65 35.65 48.55 34.85 49.4 33.45 49.4 32 49.4 31.25 48.55 30.45 47.65 30.45 46.15
M 35.75 55.6
Q 36.35 54.9 37.4 54.9 38.15 54.9 38.55 55.15
L 37.9 56.4
Q 37.55 56.15 37.05 56.15 36.55 56.15 36.15 56.6 35.75 57.05 35.75 57.75
L 35.75 61.3 34.3 61.3 34.3 55 35.75 55 35.75 55.6
M 30.6 55
L 30.6 55.6
Q 31.2 54.9 32.25 54.9 33 54.9 33.4 55.15
L 32.75 56.4
Q 32.4 56.15 31.9 56.15 31.4 56.15 31 56.6 30.6 57.05 30.6 57.75
L 30.6 61.3 29.15 61.3 29.15 55 30.6 55
M 39.6 60.9
Q 39.05 60.4 39.05 59.45 39.05 58.4 39.85 57.75 40.65 57.15 42.15 57.15 42.45 57.15 42.8 57.25 42.8 56.15 41.4 56.15 40.55 56.15 40 56.4
L 39.7 55.25
Q 40.45 54.9 41.5 54.9 42.9 54.9 43.6 55.55 44.25 56.2 44.25 58.05
L 44.25 59.4
Q 44.25 60.65 44.75 60.95 44.55 61.25 44.35 61.35 44.15 61.4 43.85 61.4 43.55 61.4 43.25 61.2 43 60.95 42.95 60.65 42.75 61 42.25 61.2 41.75 61.4 41.2 61.4 40.2 61.4 39.6 60.9
M 23 55.25
Q 23.75 54.9 24.8 54.9 26.2 54.9 26.9 55.55 27.55 56.2 27.55 58.05
L 27.55 59.4
Q 27.55 60.65 28.05 60.95 27.85 61.25 27.65 61.35 27.45 61.4 27.15 61.4 26.85 61.4 26.55 61.2 26.3 60.95 26.25 60.65 26.05 61 25.55 61.2 25.05 61.4 24.5 61.4 23.5 61.4 22.9 60.9 22.35 60.4 22.35 59.45 22.35 58.4 23.15 57.75 23.95 57.15 25.45 57.15 25.75 57.15 26.1 57.25 26.1 56.15 24.7 56.15 23.85 56.15 23.3 56.4
L 23 55.25
M 21.1 53.4
L 20.5 54.65
Q 20.2 54.4 19.65 54.15 19.1 53.9 18.7 53.9 17.4 53.9 16.7 54.8 15.95 55.65 15.95 57.1 15.95 58.45 16.65 59.25 17.4 60.1 18.6 60.1 19.45 60.1 19.95 59.65
L 19.95 57.95 18.8 57.95 18.8 56.65 21.5 56.65 21.5 60.5
Q 20.95 60.95 20.1 61.2 19.25 61.45 18.4 61.45 16.55 61.45 15.45 60.25 14.35 59.05 14.35 57.05 14.35 55.05 15.55 53.8 16.7 52.55 18.7 52.55 20.15 52.55 21.1 53.4
M 25.5 67
L 27.2 67 27.2 68.2 25.5 68.2 25.5 70.95
Q 25.5 71.6 25.7 71.9 25.9 72.2 26.45 72.2 26.95 72.2 27.4 71.9
L 27.4 73.25
Q 26.9 73.4 25.95 73.4 25 73.4 24.5 72.9 24 72.35 24 71.4
L 24 68.2 23.3 68.2 23.3 67 24 67 24 65.75 25.5 65.2 25.5 67
M 21.8 73.4
Q 21.5 73.4 21.2 73.2 20.95 72.95 20.9 72.65 20.7 73 20.2 73.2 19.7 73.4 19.15 73.4 18.15 73.4 17.55 72.9 17 72.4 17 71.45 17 70.4 17.8 69.75 18.6 69.15 20.1 69.15 20.4 69.15 20.75 69.25 20.75 68.15 19.35 68.15 18.5 68.15 17.95 68.4
L 17.65 67.25
Q 18.4 66.9 19.45 66.9 20.85 66.9 21.55 67.55 22.2 68.2 22.2 70.05
L 22.2 71.4
Q 22.2 72.65 22.7 72.95 22.5 73.25 22.3 73.35 22.1 73.4 21.8 73.4
M 30.3 73.4
Q 29.3 73.4 28.7 72.9 28.15 72.4 28.15 71.45 28.15 70.4 28.95 69.75 29.75 69.15 31.25 69.15 31.55 69.15 31.9 69.25 31.9 68.15 30.5 68.15 29.65 68.15 29.1 68.4
L 28.8 67.25
Q 29.55 66.9 30.6 66.9 32 66.9 32.7 67.55 33.35 68.2 33.35 70.05
L 33.35 71.4
Q 33.35 72.65 33.85 72.95 33.65 73.25 33.45 73.35 33.25 73.4 32.95 73.4 32.65 73.4 32.35 73.2 32.1 72.95 32.05 72.65 31.85 73 31.35 73.2 30.85 73.4 30.3 73.4
M 36.75 66.9
Q 37.7 66.9 38.6 67.35
L 38.15 68.5
Q 37.7 68.05 36.8 68.05 36.05 68.05 36.05 68.7 36.05 68.9 36.3 69.1 36.55 69.3 37.4 69.65 38.2 69.95 38.55 70.4 38.95 70.9 38.95 71.55 38.95 72.4 38.3 72.9 37.65 73.4 36.55 73.4 35.9 73.4 35.55 73.3 35.15 73.2 34.55 72.9
L 35.1 71.75
Q 35.75 72.25 36.55 72.25 37.4 72.25 37.4 71.65 37.4 71.3 37.15 71.05 36.9 70.85 36.15 70.5 34.55 69.85 34.55 68.65 34.55 67.8 35.15 67.35 35.75 66.9 36.75 66.9
M 15.1 73.4
Q 14.1 73.4 14.1 72.05
L 14.1 64.7 15.55 64.35 15.55 71.4
Q 15.55 72.55 16.25 72.75 15.9 73.4 15.1 73.4
M 15.35 76.85
Q 15.6 77.1 15.6 77.45 15.6 77.8 15.35 78.05 15.1 78.3 14.75 78.3 14.4 78.3 14.15 78.05 13.9 77.8 13.9 77.45 13.9 77.1 14.15 76.85 14.4 76.6 14.75 76.6 15.1 76.6 15.35 76.85
M 17.7 79.8
Q 18.6 78.9 20.2 78.9 21.3 78.9 22.1 79.5
L 21.5 80.6
Q 20.95 80.15 20.1 80.15 19.25 80.15 18.8 80.7 18.3 81.25 18.3 82.2 18.3 84.2 20.2 84.2 21 84.2 21.6 83.65
L 22.15 84.8
Q 21.5 85.2 21.05 85.3 20.55 85.4 19.9 85.4 18.45 85.4 17.6 84.55 16.8 83.7 16.8 82.2 16.8 80.75 17.7 79.8
M 10.15 77.15
Q 10.8 76.45 11.8 76.45 12.3 76.45 13.05 76.7
L 12.65 77.8
Q 12.15 77.65 11.9 77.65 11.5 77.65 11.2 78 10.9 78.35 10.9 78.85 10.9 78.95 10.9 79
L 12.2 79 12.2 80.25 10.95 80.25 10.95 85.3 9.45 85.3 9.45 80.25 8.55 80.25 8.55 79 9.5 79
Q 9.5 77.85 10.15 77.15
M 13.2 80.25
L 13.2 79 15.45 79 15.45 85.3 14 85.3 14 80.25 13.2 80.25
M 33.35 80.4
Q 33 80.15 32.5 80.15 32 80.15 31.6 80.6 31.2 81.05 31.2 81.75
L 31.2 85.3 29.75 85.3 29.75 79 31.2 79 31.2 79.6
Q 31.8 78.9 32.85 78.9 33.6 78.9 34 79.15
L 33.35 80.4
M 38.95 84.6
Q 38.2 83.75 38.2 82.25 38.2 80.8 39.05 79.85 39.95 78.9 41.25 78.9 41.95 78.9 42.55 79.2
L 42.55 76.7 44 76.35 44 85.3 42.55 85.3 42.55 84.9
Q 42.35 85.1 41.9 85.25 41.5 85.4 41 85.4 39.7 85.4 38.95 84.6
M 25.4 78.9
Q 26.8 78.9 27.5 79.55 28.15 80.2 28.15 82.05
L 28.15 83.4
Q 28.15 84.65 28.65 84.95 28.45 85.25 28.25 85.35 28.05 85.4 27.75 85.4 27.45 85.4 27.15 85.2 26.9 84.95 26.85 84.65 26.65 85 26.15 85.2 25.65 85.4 25.1 85.4 24.1 85.4 23.5 84.9 22.95 84.4 22.95 83.45 22.95 82.4 23.75 81.75 24.55 81.15 26.05 81.15 26.35 81.15 26.7 81.25 26.7 80.15 25.3 80.15 24.45 80.15 23.9 80.4
L 23.6 79.25
Q 24.35 78.9 25.4 78.9
M 71.2 55.45
Q 71.75 54.9 72.55 54.9 75.55 54.9 75.55 58.2 75.55 59.75 74.7 60.6 73.9 61.4 72.45 61.4 71.75 61.4 71.2 61.15
L 71.2 63.75 69.7 63.75 69.7 55 71.2 55 71.2 55.45
M 62.9 61.6
Q 62.9 61.4 62.75 61.25 62.2 61 62.2 60.5 62.2 60.15 62.5 59.9 62.8 59.7 63.25 59.7 63.65 59.7 63.95 60 64.25 60.3 64.25 60.7 64.25 61.45 63.9 62.05 63.55 62.65 62.3 63.5
L 61.8 62.85
Q 62.9 62.05 62.9 61.6
M 66.55 67.25
Q 67.3 66.9 68.35 66.9 69.75 66.9 70.45 67.55 71.1 68.2 71.1 70.05
L 71.1 71.4
Q 71.1 72.65 71.6 72.95 71.4 73.25 71.2 73.35 71 73.4 70.7 73.4 70.4 73.4 70.1 73.2 69.85 72.95 69.8 72.65 69.6 73 69.1 73.2 68.6 73.4 68.05 73.4 67.05 73.4 66.45 72.9 65.9 72.4 65.9 71.45 65.9 70.4 66.7 69.75 67.5 69.15 69 69.15 69.3 69.15 69.65 69.25 69.65 68.15 68.25 68.15 67.4 68.15 66.85 68.4
L 66.55 67.25
M 63.85 64.6
Q 64.2 64.6 64.45 64.85 64.7 65.1 64.7 65.45 64.7 65.8 64.45 66.05 64.2 66.3 63.85 66.3 63.5 66.3 63.25 66.05 63 65.8 63 65.45 63 65.1 63.25 64.85 63.5 64.6 63.85 64.6
M 61.5 67
L 61.5 67.55 58.25 72 61.55 72 61.55 73.3 56 73.3 56 72.8 59.4 68.3 56.05 68.3 56.05 67 61.5 67
M 62.3 67
L 64.55 67 64.55 73.3 63.1 73.3 63.1 68.25 62.3 68.25 62.3 67
M 72.9 67.35
Q 73.5 66.9 74.5 66.9 75.45 66.9 76.35 67.35
L 75.9 68.5
Q 75.45 68.05 74.55 68.05 73.8 68.05 73.8 68.7 73.8 68.9 74.05 69.1 74.3 69.3 75.15 69.65 75.95 69.95 76.3 70.4 76.7 70.9 76.7 71.55 76.7 72.4 76.05 72.9 75.4 73.4 74.3 73.4 73.65 73.4 73.3 73.3 72.9 73.2 72.3 72.9
L 72.85 71.75
Q 73.5 72.25 74.3 72.25 75.15 72.25 75.15 71.65 75.15 71.3 74.9 71.05 74.65 70.85 73.9 70.5 72.3 69.85 72.3 68.65 72.3 67.8 72.9 67.35
M 58.5 54.9
Q 59.45 54.9 60.35 55.35
L 59.9 56.5
Q 59.45 56.05 58.55 56.05 57.8 56.05 57.8 56.7 57.8 56.9 58.05 57.1 58.3 57.3 59.15 57.65 59.95 57.95 60.3 58.4 60.7 58.9 60.7 59.55 60.7 60.4 60.05 60.9 59.4 61.4 58.3 61.4 57.65 61.4 57.3 61.3 56.9 61.2 56.3 60.9
L 56.85 59.75
Q 57.5 60.25 58.3 60.25 59.15 60.25 59.15 59.65 59.15 59.3 58.9 59.05 58.65 58.85 57.9 58.5 56.3 57.85 56.3 56.65 56.3 55.8 56.9 55.35 57.5 54.9 58.5 54.9
M 52.35 54.9
Q 53.75 54.9 54.45 55.55 55.1 56.2 55.1 58.05
L 55.1 59.4
Q 55.1 60.65 55.6 60.95 55.4 61.25 55.2 61.35 55 61.4 54.7 61.4 54.4 61.4 54.1 61.2 53.85 60.95 53.8 60.65 53.6 61 53.1 61.2 52.6 61.4 52.05 61.4 51.05 61.4 50.45 60.9 49.9 60.4 49.9 59.45 49.9 58.4 50.7 57.75 51.5 57.15 53 57.15 53.3 57.15 53.65 57.25 53.65 56.15 52.25 56.15 51.4 56.15 50.85 56.4
L 50.55 55.25
Q 51.3 54.9 52.35 54.9
M 47.6 54.85
Q 47.6 54.95 47.6 55
L 48.9 55 48.9 56.25 47.65 56.25 47.65 61.3 46.15 61.3 46.15 56.25 45.25 56.25 45.25 55 46.2 55
Q 46.2 53.85 46.85 53.15 47.5 52.45 48.5 52.45 49 52.45 49.75 52.7
L 49.35 53.8
Q 48.85 53.65 48.6 53.65 48.2 53.65 47.9 54 47.6 54.35 47.6 54.85
M 47.65 67
L 49.2 67 46.3 73.4 45.75 73.4 42.95 67 44.55 67 46.05 70.85 47.65 67
M 50.15 72.9
Q 49.6 72.4 49.6 71.45 49.6 70.4 50.4 69.75 51.2 69.15 52.7 69.15 53 69.15 53.35 69.25 53.35 68.15 51.95 68.15 51.1 68.15 50.55 68.4
L 50.25 67.25
Q 51 66.9 52.05 66.9 53.45 66.9 54.15 67.55 54.8 68.2 54.8 70.05
L 54.8 71.4
Q 54.8 72.65 55.3 72.95 55.1 73.25 54.9 73.35 54.7 73.4 54.4 73.4 54.1 73.4 53.8 73.2 53.55 72.95 53.5 72.65 53.3 73 52.8 73.2 52.3 73.4 51.75 73.4 50.75 73.4 50.15 72.9
M 56.45 79.8
Q 57.35 78.9 58.95 78.9 60.05 78.9 60.85 79.5
L 60.25 80.6
Q 59.7 80.15 58.85 80.15 58 80.15 57.55 80.7 57.05 81.25 57.05 82.2 57.05 84.2 58.95 84.2 59.75 84.2 60.35 83.65
L 60.9 84.8
Q 60.25 85.2 59.8 85.3 59.3 85.4 58.65 85.4 57.2 85.4 56.35 84.55 55.55 83.7 55.55 82.2 55.55 80.75 56.45 79.8
M 51.15 81.8
Q 51.15 82.05 51.05 82.6
L 46.55 82.6
Q 46.6 83.35 47.1 83.8 47.55 84.2 48.35 84.2 49.35 84.2 49.9 83.65
L 50.45 84.8
Q 49.65 85.4 48.15 85.4 46.7 85.4 45.85 84.6 45.05 83.75 45.05 82.25 45.05 80.75 45.95 79.85 46.85 78.9 48.15 78.9 49.5 78.9 50.35 79.7 51.15 80.55 51.15 81.8
M 49.95 96.95
L 49.6 97.4 48.75 97.4 48.75 88.7 50.25 88.35 50.25 91.25
Q 50.8 90.9 51.5 90.9 52.9 90.9 53.75 91.8 54.6 92.65 54.6 94 54.6 95.6 53.75 96.5 52.9 97.4 51.45 97.4 50.55 97.4 49.95 96.95
M 57.85 92.15
Q 57 92.15 56.45 92.4
L 56.15 91.25
Q 56.9 90.9 57.95 90.9 59.35 90.9 60.05 91.55 60.7 92.2 60.7 94.05
L 60.7 95.4
Q 60.7 96.65 61.2 96.95 61 97.25 60.8 97.35 60.6 97.4 60.3 97.4 60 97.4 59.7 97.2 59.45 96.95 59.4 96.65 59.2 97 58.7 97.2 58.2 97.4 57.65 97.4 56.65 97.4 56.05 96.9 55.5 96.4 55.5 95.45 55.5 94.4 56.3 93.75 57.1 93.15 58.6 93.15 58.9 93.15 59.25 93.25 59.25 92.15 57.85 92.15
M 71.1 78.9
Q 72.5 78.9 73.35 79.8 74.2 80.65 74.2 82 74.2 83.6 73.35 84.5 72.5 85.4 71.05 85.4 70.15 85.4 69.55 84.95
L 69.2 85.4 68.35 85.4 68.35 76.7 69.85 76.35 69.85 79.25
Q 70.4 78.9 71.1 78.9
M 64.05 80.15
Q 63.2 80.15 62.65 80.4
L 62.35 79.25
Q 63.1 78.9 64.15 78.9 65.55 78.9 66.25 79.55 66.9 80.2 66.9 82.05
L 66.9 83.4
Q 66.9 84.65 67.4 84.95 67.2 85.25 67 85.35 66.8 85.4 66.5 85.4 66.2 85.4 65.9 85.2 65.65 84.95 65.6 84.65 65.4 85 64.9 85.2 64.4 85.4 63.85 85.4 62.85 85.4 62.25 84.9 61.7 84.4 61.7 83.45 61.7 82.4 62.5 81.75 63.3 81.15 64.8 81.15 65.1 81.15 65.45 81.25 65.45 80.15 64.05 80.15
M 64.05 88.85
Q 64.3 89.1 64.3 89.45 64.3 89.8 64.05 90.05 63.8 90.3 63.45 90.3 63.1 90.3 62.85 90.05 62.6 89.8 62.6 89.45 62.6 89.1 62.85 88.85 63.1 88.6 63.45 88.6 63.8 88.6 64.05 88.85
M 61.9 92.25
L 61.9 91 64.15 91 64.15 97.3 62.7 97.3 62.7 92.25 61.9 92.25
M 69.9 97.3
L 68.3 95.25 66.85 97.3 65.15 97.3 67.55 94.1 65.3 91 67 91 68.35 92.95 69.8 91 71.5 91 69.05 94.1 71.7 97.3 69.9 97.3
M 72.95 91.8
Q 73.8 90.9 75.15 90.9 76.6 90.9 77.35 91.75 78.15 92.65 78.15 94.15 78.15 95.65 77.35 96.55 76.55 97.4 75.15 97.4 73.7 97.4 72.95 96.55 72.15 95.65 72.15 94.15 72.15 92.7 72.95 91.8
M 75.15 92.1
Q 74.45 92.1 74.05 92.65 73.65 93.2 73.65 94.15 73.65 96.2 75.15 96.2 75.85 96.2 76.25 95.7 76.65 95.15 76.65 94.15 76.65 92.1 75.15 92.1
M 65.45 82.95
L 65.45 82.35
Q 65.05 82.25 64.9 82.25 63.15 82.25 63.15 83.4 63.15 84.25 64.1 84.25 65.45 84.25 65.45 82.95
M 72.2 83.65
Q 72.65 83.15 72.65 82.05 72.65 80.15 70.85 80.15 70.2 80.15 69.85 80.5
L 69.85 83.8
Q 70.15 84.2 70.7 84.2 71.75 84.2 72.2 83.65
M 59.25 94.35
Q 58.85 94.25 58.7 94.25 56.95 94.25 56.95 95.4 56.95 96.25 57.9 96.25 59.25 96.25 59.25 94.95
L 59.25 94.35
M 50.25 92.5
L 50.25 95.8
Q 50.55 96.2 51.1 96.2 52.15 96.2 52.6 95.65 53.05 95.15 53.05 94.05 53.05 92.15 51.25 92.15 50.6 92.15 50.25 92.5
M 46.6 81.5
L 49.7 81.5
Q 49.55 80.15 48.15 80.15 46.9 80.15 46.6 81.5
M 53.35 70.95
L 53.35 70.35
Q 52.95 70.25 52.8 70.25 51.05 70.25 51.05 71.4 51.05 72.25 52 72.25 53.35 72.25 53.35 70.95
M 51.35 59.4
Q 51.35 60.25 52.3 60.25 53.65 60.25 53.65 58.95
L 53.65 58.35
Q 53.25 58.25 53.1 58.25 51.35 58.25 51.35 59.4
M 69.65 70.35
Q 69.25 70.25 69.1 70.25 67.35 70.25 67.35 71.4 67.35 72.25 68.3 72.25 69.65 72.25 69.65 70.95
L 69.65 70.35
M 74 58.15
Q 74 57.05 73.6 56.6 73.15 56.15 72.15 56.15 71.6 56.15 71.2 56.55
L 71.2 59.85
Q 71.6 60.2 72.1 60.2 73.15 60.2 73.6 59.7 74 59.2 74 58.15
M 26.7 82.95
L 26.7 82.35
Q 26.3 82.25 26.15 82.25 24.4 82.25 24.4 83.4 24.4 84.25 25.35 84.25 26.7 84.25 26.7 82.95
M 40.2 80.7
Q 39.7 81.2 39.7 82.2 39.7 84.2 41.6 84.2 41.8 84.2 42.15 84.05 42.45 83.95 42.55 83.8
L 42.55 80.5
Q 42.05 80.15 41.55 80.15 40.65 80.15 40.2 80.7
M 31.9 70.35
Q 31.5 70.25 31.35 70.25 29.6 70.25 29.6 71.4 29.6 72.25 30.55 72.25 31.9 72.25 31.9 70.95
L 31.9 70.35
M 20.75 70.95
L 20.75 70.35
Q 20.35 70.25 20.2 70.25 18.45 70.25 18.45 71.4 18.45 72.25 19.4 72.25 20.75 72.25 20.75 70.95
M 23.8 59.4
Q 23.8 60.25 24.75 60.25 26.1 60.25 26.1 58.95
L 26.1 58.35
Q 25.7 58.25 25.55 58.25 23.8 58.25 23.8 59.4
M 42.8 58.35
Q 42.4 58.25 42.25 58.25 40.5 58.25 40.5 59.4 40.5 60.25 41.45 60.25 42.8 60.25 42.8 58.95
L 42.8 58.35
M 34.95 46.15
Q 34.95 44.1 33.45 44.1 32.75 44.1 32.35 44.65 31.95 45.2 31.95 46.15 31.95 48.2 33.45 48.2 34.15 48.2 34.55 47.7 34.95 47.15 34.95 46.15
M 24.9 32.15
Q 23.65 32.15 23.35 33.5
L 26.45 33.5
Q 26.3 32.15 24.9 32.15
M 11.15 12.1
Q 12.3 12.1 12.9 11.3 13.5 10.5 13.5 8.95 13.5 5.9 11.25 5.9 10.25 5.9 9.7 6.75 9.15 7.55 9.15 8.95 9.15 10.45 9.65 11.25 10.15 12.1 11.15 12.1
M 23.15 20.15
Q 21.9 20.15 21.6 21.5
L 24.7 21.5
Q 24.55 20.15 23.15 20.15
M 18.7 8.15
Q 18.05 8.15 17.7 8.5
L 17.7 11.8
Q 18 12.2 18.55 12.2 19.6 12.2 20.05 11.65 20.5 11.15 20.5 10.05 20.5 8.15 18.7 8.15
M 32 9.5
Q 31.85 8.15 30.45 8.15 29.2 8.15 28.9 9.5
L 32 9.5
M 72.65 44.15
Q 72 44.15 71.65 44.5
L 71.65 47.8
Q 71.95 48.2 72.5 48.2 73.55 48.2 74 47.65 74.45 47.15 74.45 46.05 74.45 44.15 72.65 44.15
M 65 44.65
Q 64.6 45.2 64.6 46.15 64.6 48.2 66.1 48.2 66.8 48.2 67.2 47.7 67.6 47.15 67.6 46.15 67.6 44.1 66.1 44.1 65.4 44.1 65 44.65
M 64.2 32.7
Q 63.7 33.2 63.7 34.2 63.7 36.2 65.6 36.2 65.8 36.2 66.15 36.05 66.45 35.95 66.55 35.8
L 66.55 32.5
Q 66.05 32.15 65.55 32.15 64.65 32.15 64.2 32.7
M 72.8 34.35
Q 72.4 34.25 72.25 34.25 70.5 34.25 70.5 35.4 70.5 36.25 71.45 36.25 72.8 36.25 72.8 34.95
L 72.8 34.35
M 47.15 46.35
Q 46.75 46.25 46.6 46.25 44.85 46.25 44.85 47.4 44.85 48.25 45.8 48.25 47.15 48.25 47.15 46.95
L 47.15 46.35
M 40.8 34.15
Q 41.05 33.8 41.05 33.25 41.05 32.75 40.75 32.45 40.45 32.1 39.95 32.1 39.45 32.1 39.15 32.4 38.85 32.75 38.85 33.25 38.85 33.8 39.15 34.1 39.45 34.45 39.95 34.45 40.5 34.45 40.8 34.15
M 52 35.4
Q 52 36.25 52.95 36.25 54.3 36.25 54.3 34.95
L 54.3 34.35
Q 53.9 34.25 53.75 34.25 52 34.25 52 35.4
M 55.3 20.1
Q 54.8 20.1 54.5 20.4 54.2 20.75 54.2 21.25 54.2 21.8 54.5 22.1 54.8 22.45 55.3 22.45 55.85 22.45 56.15 22.15 56.4 21.8 56.4 21.25 56.4 20.75 56.1 20.45 55.8 20.1 55.3 20.1
M 50.15 22.35
Q 49.75 22.25 49.6 22.25 47.85 22.25 47.85 23.4 47.85 24.25 48.8 24.25 50.15 24.25 50.15 22.95
L 50.15 22.35
M 40.5 10.15
Q 40.5 12.2 42 12.2 42.7 12.2 43.1 11.7 43.5 11.15 43.5 10.15 43.5 8.1 42 8.1 41.3 8.1 40.9 8.65 40.5 9.2 40.5 10.15
M 56.65 8.7
Q 56.15 9.2 56.15 10.2 56.15 12.2 58.05 12.2 58.25 12.2 58.6 12.05 58.9 11.95 59 11.8
L 59 8.5
Q 58.5 8.15 58 8.15 57.1 8.15 56.65 8.7
M 63.45 21.5
Q 63.3 20.15 61.9 20.15 60.65 20.15 60.35 21.5
L 63.45 21.5
M 64.6 8.15
Q 63.35 8.15 63.05 9.5
L 66.15 9.5
Q 66 8.15 64.6 8.15
M 108.9 82.95
L 108.9 82.35
Q 108.5 82.25 108.35 82.25 106.6 82.25 106.6 83.4 106.6 84.25 107.55 84.25 108.9 84.25 108.9 82.95
M 120.45 82.35
Q 120.05 82.25 119.9 82.25 118.15 82.25 118.15 83.4 118.15 84.25 119.1 84.25 120.45 84.25 120.45 82.95
L 120.45 82.35
M 76.65 81.5
L 79.75 81.5
Q 79.6 80.15 78.2 80.15 76.95 80.15 76.65 81.5
M 91.9 82.95
L 91.9 82.35
Q 91.5 82.25 91.35 82.25 89.6 82.25 89.6 83.4 89.6 84.25 90.55 84.25 91.9 84.25 91.9 82.95
M 99.9 83.85
Q 100.3 84.2 100.8 84.2 101.85 84.2 102.3 83.7 102.7 83.2 102.7 82.15 102.7 81.05 102.3 80.6 101.85 80.15 100.85 80.15 100.3 80.15 99.9 80.55
L 99.9 83.85
M 85.5 68.5
Q 85 68.15 84.5 68.15 83.6 68.15 83.15 68.7 82.65 69.2 82.65 70.2 82.65 72.2 84.55 72.2 84.75 72.2 85.1 72.05 85.4 71.95 85.5 71.8
L 85.5 68.5
M 91.1 68.15
Q 89.85 68.15 89.55 69.5
L 92.65 69.5
Q 92.5 68.15 91.1 68.15
M 80.95 58.15
Q 80.95 56.1 79.45 56.1 78.75 56.1 78.35 56.65 77.95 57.2 77.95 58.15 77.95 60.2 79.45 60.2 80.15 60.2 80.55 59.7 80.95 59.15 80.95 58.15
M 91.1 56.15
Q 89.85 56.15 89.55 57.5
L 92.65 57.5
Q 92.5 56.15 91.1 56.15
M 102.75 69.5
L 105.85 69.5
Q 105.7 68.15 104.3 68.15 103.05 68.15 102.75 69.5
M 105.55 56.65
Q 105.15 57.2 105.15 58.15 105.15 60.2 106.65 60.2 107.35 60.2 107.75 59.7 108.15 59.15 108.15 58.15 108.15 56.1 106.65 56.1 105.95 56.1 105.55 56.65
M 79.9 35.8
L 79.9 32.5
Q 79.4 32.15 78.9 32.15 78 32.15 77.55 32.7 77.05 33.2 77.05 34.2 77.05 36.2 78.95 36.2 79.15 36.2 79.5 36.05 79.8 35.95 79.9 35.8
M 95.6 44.65
Q 95.2 45.2 95.2 46.15 95.2 48.2 96.7 48.2 97.4 48.2 97.8 47.7 98.2 47.15 98.2 46.15 98.2 44.1 96.7 44.1 96 44.1 95.6 44.65
M 80 44.15
Q 78.75 44.15 78.45 45.5
L 81.55 45.5
Q 81.4 44.15 80 44.15
M 84.3 32.65
Q 83.9 33.2 83.9 34.15 83.9 36.2 85.4 36.2 86.1 36.2 86.5 35.7 86.9 35.15 86.9 34.15 86.9 32.1 85.4 32.1 84.7 32.1 84.3 32.65
M 101.05 32.15
Q 99.8 32.15 99.5 33.5
L 102.6 33.5
Q 102.45 32.15 101.05 32.15
M 89.65 20.15
Q 88.4 20.15 88.1 21.5
L 91.2 21.5
Q 91.05 20.15 89.65 20.15
M 81.2 22.2
Q 81.2 24.2 83.1 24.2 83.3 24.2 83.65 24.05 83.95 23.95 84.05 23.8
L 84.05 20.5
Q 83.55 20.15 83.05 20.15 82.15 20.15 81.7 20.7 81.2 21.2 81.2 22.2
M 92.75 10.95
L 92.75 10.35
Q 92.35 10.25 92.2 10.25 90.45 10.25 90.45 11.4 90.45 12.25 91.4 12.25 92.75 12.25 92.75 10.95
M 99.85 8.5
Q 99.35 8.15 98.85 8.15 97.95 8.15 97.5 8.7 97 9.2 97 10.2 97 12.2 98.9 12.2 99.1 12.2 99.45 12.05 99.75 11.95 99.85 11.8
L 99.85 8.5
M 102.85 20.15
Q 101.6 20.15 101.3 21.5
L 104.4 21.5
Q 104.25 20.15 102.85 20.15
M 105.35 8.1
Q 104.65 8.1 104.25 8.65 103.85 9.2 103.85 10.15 103.85 12.2 105.35 12.2 106.05 12.2 106.45 11.7 106.85 11.15 106.85 10.15 106.85 8.1 105.35 8.1
M 121.65 10.95
L 121.65 10.35
Q 121.25 10.25 121.1 10.25 119.35 10.25 119.35 11.4 119.35 12.25 120.3 12.25 121.65 12.25 121.65 10.95 Z"/>

<path fill="#000000" stroke="none" d="
M 75.15 90.9
Q 73.8 90.9 72.95 91.8 72.15 92.7 72.15 94.15 72.15 95.65 72.95 96.55 73.7 97.4 75.15 97.4 76.55 97.4 77.35 96.55 78.15 95.65 78.15 94.15 78.15 92.65 77.35 91.75 76.6 90.9 75.15 90.9
M 74.05 92.65
Q 74.45 92.1 75.15 92.1 76.65 92.1 76.65 94.15 76.65 95.15 76.25 95.7 75.85 96.2 75.15 96.2 73.65 96.2 73.65 94.15 73.65 93.2 74.05 92.65
M 68.3 95.25
L 69.9 97.3 71.7 97.3 69.05 94.1 71.5 91 69.8 91 68.35 92.95 67 91 65.3 91 67.55 94.1 65.15 97.3 66.85 97.3 68.3 95.25
M 61.9 91
L 61.9 92.25 62.7 92.25 62.7 97.3 64.15 97.3 64.15 91 61.9 91
M 64.3 89.45
Q 64.3 89.1 64.05 88.85 63.8 88.6 63.45 88.6 63.1 88.6 62.85 88.85 62.6 89.1 62.6 89.45 62.6 89.8 62.85 90.05 63.1 90.3 63.45 90.3 63.8 90.3 64.05 90.05 64.3 89.8 64.3 89.45
M 62.65 80.4
Q 63.2 80.15 64.05 80.15 65.45 80.15 65.45 81.25 65.1 81.15 64.8 81.15 63.3 81.15 62.5 81.75 61.7 82.4 61.7 83.45 61.7 84.4 62.25 84.9 62.85 85.4 63.85 85.4 64.4 85.4 64.9 85.2 65.4 85 65.6 84.65 65.65 84.95 65.9 85.2 66.2 85.4 66.5 85.4 66.8 85.4 67 85.35 67.2 85.25 67.4 84.95 66.9 84.65 66.9 83.4
L 66.9 82.05
Q 66.9 80.2 66.25 79.55 65.55 78.9 64.15 78.9 63.1 78.9 62.35 79.25
L 62.65 80.4
M 65.45 82.35
L 65.45 82.95
Q 65.45 84.25 64.1 84.25 63.15 84.25 63.15 83.4 63.15 82.25 64.9 82.25 65.05 82.25 65.45 82.35
M 73.35 79.8
Q 72.5 78.9 71.1 78.9 70.4 78.9 69.85 79.25
L 69.85 76.35 68.35 76.7 68.35 85.4 69.2 85.4 69.55 84.95
Q 70.15 85.4 71.05 85.4 72.5 85.4 73.35 84.5 74.2 83.6 74.2 82 74.2 80.65 73.35 79.8
M 72.65 82.05
Q 72.65 83.15 72.2 83.65 71.75 84.2 70.7 84.2 70.15 84.2 69.85 83.8
L 69.85 80.5
Q 70.2 80.15 70.85 80.15 72.65 80.15 72.65 82.05
M 56.45 92.4
Q 57 92.15 57.85 92.15 59.25 92.15 59.25 93.25 58.9 93.15 58.6 93.15 57.1 93.15 56.3 93.75 55.5 94.4 55.5 95.45 55.5 96.4 56.05 96.9 56.65 97.4 57.65 97.4 58.2 97.4 58.7 97.2 59.2 97 59.4 96.65 59.45 96.95 59.7 97.2 60 97.4 60.3 97.4 60.6 97.4 60.8 97.35 61 97.25 61.2 96.95 60.7 96.65 60.7 95.4
L 60.7 94.05
Q 60.7 92.2 60.05 91.55 59.35 90.9 57.95 90.9 56.9 90.9 56.15 91.25
L 56.45 92.4
M 58.7 94.25
Q 58.85 94.25 59.25 94.35
L 59.25 94.95
Q 59.25 96.25 57.9 96.25 56.95 96.25 56.95 95.4 56.95 94.25 58.7 94.25
M 49.6 97.4
L 49.95 96.95
Q 50.55 97.4 51.45 97.4 52.9 97.4 53.75 96.5 54.6 95.6 54.6 94 54.6 92.65 53.75 91.8 52.9 90.9 51.5 90.9 50.8 90.9 50.25 91.25
L 50.25 88.35 48.75 88.7 48.75 97.4 49.6 97.4
M 50.25 95.8
L 50.25 92.5
Q 50.6 92.15 51.25 92.15 53.05 92.15 53.05 94.05 53.05 95.15 52.6 95.65 52.15 96.2 51.1 96.2 50.55 96.2 50.25 95.8
M 51.05 82.6
Q 51.15 82.05 51.15 81.8 51.15 80.55 50.35 79.7 49.5 78.9 48.15 78.9 46.85 78.9 45.95 79.85 45.05 80.75 45.05 82.25 45.05 83.75 45.85 84.6 46.7 85.4 48.15 85.4 49.65 85.4 50.45 84.8
L 49.9 83.65
Q 49.35 84.2 48.35 84.2 47.55 84.2 47.1 83.8 46.6 83.35 46.55 82.6
L 51.05 82.6
M 49.7 81.5
L 46.6 81.5
Q 46.9 80.15 48.15 80.15 49.55 80.15 49.7 81.5
M 58.95 78.9
Q 57.35 78.9 56.45 79.8 55.55 80.75 55.55 82.2 55.55 83.7 56.35 84.55 57.2 85.4 58.65 85.4 59.3 85.4 59.8 85.3 60.25 85.2 60.9 84.8
L 60.35 83.65
Q 59.75 84.2 58.95 84.2 57.05 84.2 57.05 82.2 57.05 81.25 57.55 80.7 58 80.15 58.85 80.15 59.7 80.15 60.25 80.6
L 60.85 79.5
Q 60.05 78.9 58.95 78.9
M 49.6 71.45
Q 49.6 72.4 50.15 72.9 50.75 73.4 51.75 73.4 52.3 73.4 52.8 73.2 53.3 73 53.5 72.65 53.55 72.95 53.8 73.2 54.1 73.4 54.4 73.4 54.7 73.4 54.9 73.35 55.1 73.25 55.3 72.95 54.8 72.65 54.8 71.4
L 54.8 70.05
Q 54.8 68.2 54.15 67.55 53.45 66.9 52.05 66.9 51 66.9 50.25 67.25
L 50.55 68.4
Q 51.1 68.15 51.95 68.15 53.35 68.15 53.35 69.25 53 69.15 52.7 69.15 51.2 69.15 50.4 69.75 49.6 70.4 49.6 71.45
M 53.35 70.35
L 53.35 70.95
Q 53.35 72.25 52 72.25 51.05 72.25 51.05 71.4 51.05 70.25 52.8 70.25 52.95 70.25 53.35 70.35
M 49.2 67
L 47.65 67 46.05 70.85 44.55 67 42.95 67 45.75 73.4 46.3 73.4 49.2 67
M 47.6 55
Q 47.6 54.95 47.6 54.85 47.6 54.35 47.9 54 48.2 53.65 48.6 53.65 48.85 53.65 49.35 53.8
L 49.75 52.7
Q 49 52.45 48.5 52.45 47.5 52.45 46.85 53.15 46.2 53.85 46.2 55
L 45.25 55 45.25 56.25 46.15 56.25 46.15 61.3 47.65 61.3 47.65 56.25 48.9 56.25 48.9 55 47.6 55
M 54.45 55.55
Q 53.75 54.9 52.35 54.9 51.3 54.9 50.55 55.25
L 50.85 56.4
Q 51.4 56.15 52.25 56.15 53.65 56.15 53.65 57.25 53.3 57.15 53 57.15 51.5 57.15 50.7 57.75 49.9 58.4 49.9 59.45 49.9 60.4 50.45 60.9 51.05 61.4 52.05 61.4 52.6 61.4 53.1 61.2 53.6 61 53.8 60.65 53.85 60.95 54.1 61.2 54.4 61.4 54.7 61.4 55 61.4 55.2 61.35 55.4 61.25 55.6 60.95 55.1 60.65 55.1 59.4
L 55.1 58.05
Q 55.1 56.2 54.45 55.55
M 52.3 60.25
Q 51.35 60.25 51.35 59.4 51.35 58.25 53.1 58.25 53.25 58.25 53.65 58.35
L 53.65 58.95
Q 53.65 60.25 52.3 60.25
M 60.35 55.35
Q 59.45 54.9 58.5 54.9 57.5 54.9 56.9 55.35 56.3 55.8 56.3 56.65 56.3 57.85 57.9 58.5 58.65 58.85 58.9 59.05 59.15 59.3 59.15 59.65 59.15 60.25 58.3 60.25 57.5 60.25 56.85 59.75
L 56.3 60.9
Q 56.9 61.2 57.3 61.3 57.65 61.4 58.3 61.4 59.4 61.4 60.05 60.9 60.7 60.4 60.7 59.55 60.7 58.9 60.3 58.4 59.95 57.95 59.15 57.65 58.3 57.3 58.05 57.1 57.8 56.9 57.8 56.7 57.8 56.05 58.55 56.05 59.45 56.05 59.9 56.5
L 60.35 55.35
M 74.5 66.9
Q 73.5 66.9 72.9 67.35 72.3 67.8 72.3 68.65 72.3 69.85 73.9 70.5 74.65 70.85 74.9 71.05 75.15 71.3 75.15 71.65 75.15 72.25 74.3 72.25 73.5 72.25 72.85 71.75
L 72.3 72.9
Q 72.9 73.2 73.3 73.3 73.65 73.4 74.3 73.4 75.4 73.4 76.05 72.9 76.7 72.4 76.7 71.55 76.7 70.9 76.3 70.4 75.95 69.95 75.15 69.65 74.3 69.3 74.05 69.1 73.8 68.9 73.8 68.7 73.8 68.05 74.55 68.05 75.45 68.05 75.9 68.5
L 76.35 67.35
Q 75.45 66.9 74.5 66.9
M 64.55 67
L 62.3 67 62.3 68.25 63.1 68.25 63.1 73.3 64.55 73.3 64.55 67
M 61.5 67.55
L 61.5 67 56.05 67 56.05 68.3 59.4 68.3 56 72.8 56 73.3 61.55 73.3 61.55 72 58.25 72 61.5 67.55
M 64.45 64.85
Q 64.2 64.6 63.85 64.6 63.5 64.6 63.25 64.85 63 65.1 63 65.45 63 65.8 63.25 66.05 63.5 66.3 63.85 66.3 64.2 66.3 64.45 66.05 64.7 65.8 64.7 65.45 64.7 65.1 64.45 64.85
M 68.35 66.9
Q 67.3 66.9 66.55 67.25
L 66.85 68.4
Q 67.4 68.15 68.25 68.15 69.65 68.15 69.65 69.25 69.3 69.15 69 69.15 67.5 69.15 66.7 69.75 65.9 70.4 65.9 71.45 65.9 72.4 66.45 72.9 67.05 73.4 68.05 73.4 68.6 73.4 69.1 73.2 69.6 73 69.8 72.65 69.85 72.95 70.1 73.2 70.4 73.4 70.7 73.4 71 73.4 71.2 73.35 71.4 73.25 71.6 72.95 71.1 72.65 71.1 71.4
L 71.1 70.05
Q 71.1 68.2 70.45 67.55 69.75 66.9 68.35 66.9
M 69.1 70.25
Q 69.25 70.25 69.65 70.35
L 69.65 70.95
Q 69.65 72.25 68.3 72.25 67.35 72.25 67.35 71.4 67.35 70.25 69.1 70.25
M 62.75 61.25
Q 62.9 61.4 62.9 61.6 62.9 62.05 61.8 62.85
L 62.3 63.5
Q 63.55 62.65 63.9 62.05 64.25 61.45 64.25 60.7 64.25 60.3 63.95 60 63.65 59.7 63.25 59.7 62.8 59.7 62.5 59.9 62.2 60.15 62.2 60.5 62.2 61 62.75 61.25
M 72.55 54.9
Q 71.75 54.9 71.2 55.45
L 71.2 55 69.7 55 69.7 63.75 71.2 63.75 71.2 61.15
Q 71.75 61.4 72.45 61.4 73.9 61.4 74.7 60.6 75.55 59.75 75.55 58.2 75.55 54.9 72.55 54.9
M 73.6 56.6
Q 74 57.05 74 58.15 74 59.2 73.6 59.7 73.15 60.2 72.1 60.2 71.6 60.2 71.2 59.85
L 71.2 56.55
Q 71.6 56.15 72.15 56.15 73.15 56.15 73.6 56.6
M 27.5 79.55
Q 26.8 78.9 25.4 78.9 24.35 78.9 23.6 79.25
L 23.9 80.4
Q 24.45 80.15 25.3 80.15 26.7 80.15 26.7 81.25 26.35 81.15 26.05 81.15 24.55 81.15 23.75 81.75 22.95 82.4 22.95 83.45 22.95 84.4 23.5 84.9 24.1 85.4 25.1 85.4 25.65 85.4 26.15 85.2 26.65 85 26.85 84.65 26.9 84.95 27.15 85.2 27.45 85.4 27.75 85.4 28.05 85.4 28.25 85.35 28.45 85.25 28.65 84.95 28.15 84.65 28.15 83.4
L 28.15 82.05
Q 28.15 80.2 27.5 79.55
M 26.7 82.35
L 26.7 82.95
Q 26.7 84.25 25.35 84.25 24.4 84.25 24.4 83.4 24.4 82.25 26.15 82.25 26.3 82.25 26.7 82.35
M 38.2 82.25
Q 38.2 83.75 38.95 84.6 39.7 85.4 41 85.4 41.5 85.4 41.9 85.25 42.35 85.1 42.55 84.9
L 42.55 85.3 44 85.3 44 76.35 42.55 76.7 42.55 79.2
Q 41.95 78.9 41.25 78.9 39.95 78.9 39.05 79.85 38.2 80.8 38.2 82.25
M 39.7 82.2
Q 39.7 81.2 40.2 80.7 40.65 80.15 41.55 80.15 42.05 80.15 42.55 80.5
L 42.55 83.8
Q 42.45 83.95 42.15 84.05 41.8 84.2 41.6 84.2 39.7 84.2 39.7 82.2
M 32.5 80.15
Q 33 80.15 33.35 80.4
L 34 79.15
Q 33.6 78.9 32.85 78.9 31.8 78.9 31.2 79.6
L 31.2 79 29.75 79 29.75 85.3 31.2 85.3 31.2 81.75
Q 31.2 81.05 31.6 80.6 32 80.15 32.5 80.15
M 13.2 79
L 13.2 80.25 14 80.25 14 85.3 15.45 85.3 15.45 79 13.2 79
M 11.8 76.45
Q 10.8 76.45 10.15 77.15 9.5 77.85 9.5 79
L 8.55 79 8.55 80.25 9.45 80.25 9.45 85.3 10.95 85.3 10.95 80.25 12.2 80.25 12.2 79 10.9 79
Q 10.9 78.95 10.9 78.85 10.9 78.35 11.2 78 11.5 77.65 11.9 77.65 12.15 77.65 12.65 77.8
L 13.05 76.7
Q 12.3 76.45 11.8 76.45
M 20.2 78.9
Q 18.6 78.9 17.7 79.8 16.8 80.75 16.8 82.2 16.8 83.7 17.6 84.55 18.45 85.4 19.9 85.4 20.55 85.4 21.05 85.3 21.5 85.2 22.15 84.8
L 21.6 83.65
Q 21 84.2 20.2 84.2 18.3 84.2 18.3 82.2 18.3 81.25 18.8 80.7 19.25 80.15 20.1 80.15 20.95 80.15 21.5 80.6
L 22.1 79.5
Q 21.3 78.9 20.2 78.9
M 15.6 77.45
Q 15.6 77.1 15.35 76.85 15.1 76.6 14.75 76.6 14.4 76.6 14.15 76.85 13.9 77.1 13.9 77.45 13.9 77.8 14.15 78.05 14.4 78.3 14.75 78.3 15.1 78.3 15.35 78.05 15.6 77.8 15.6 77.45
M 14.1 72.05
Q 14.1 73.4 15.1 73.4 15.9 73.4 16.25 72.75 15.55 72.55 15.55 71.4
L 15.55 64.35 14.1 64.7 14.1 72.05
M 38.6 67.35
Q 37.7 66.9 36.75 66.9 35.75 66.9 35.15 67.35 34.55 67.8 34.55 68.65 34.55 69.85 36.15 70.5 36.9 70.85 37.15 71.05 37.4 71.3 37.4 71.65 37.4 72.25 36.55 72.25 35.75 72.25 35.1 71.75
L 34.55 72.9
Q 35.15 73.2 35.55 73.3 35.9 73.4 36.55 73.4 37.65 73.4 38.3 72.9 38.95 72.4 38.95 71.55 38.95 70.9 38.55 70.4 38.2 69.95 37.4 69.65 36.55 69.3 36.3 69.1 36.05 68.9 36.05 68.7 36.05 68.05 36.8 68.05 37.7 68.05 38.15 68.5
L 38.6 67.35
M 28.7 72.9
Q 29.3 73.4 30.3 73.4 30.85 73.4 31.35 73.2 31.85 73 32.05 72.65 32.1 72.95 32.35 73.2 32.65 73.4 32.95 73.4 33.25 73.4 33.45 73.35 33.65 73.25 33.85 72.95 33.35 72.65 33.35 71.4
L 33.35 70.05
Q 33.35 68.2 32.7 67.55 32 66.9 30.6 66.9 29.55 66.9 28.8 67.25
L 29.1 68.4
Q 29.65 68.15 30.5 68.15 31.9 68.15 31.9 69.25 31.55 69.15 31.25 69.15 29.75 69.15 28.95 69.75 28.15 70.4 28.15 71.45 28.15 72.4 28.7 72.9
M 31.35 70.25
Q 31.5 70.25 31.9 70.35
L 31.9 70.95
Q 31.9 72.25 30.55 72.25 29.6 72.25 29.6 71.4 29.6 70.25 31.35 70.25
M 21.2 73.2
Q 21.5 73.4 21.8 73.4 22.1 73.4 22.3 73.35 22.5 73.25 22.7 72.95 22.2 72.65 22.2 71.4
L 22.2 70.05
Q 22.2 68.2 21.55 67.55 20.85 66.9 19.45 66.9 18.4 66.9 17.65 67.25
L 17.95 68.4
Q 18.5 68.15 19.35 68.15 20.75 68.15 20.75 69.25 20.4 69.15 20.1 69.15 18.6 69.15 17.8 69.75 17 70.4 17 71.45 17 72.4 17.55 72.9 18.15 73.4 19.15 73.4 19.7 73.4 20.2 73.2 20.7 73 20.9 72.65 20.95 72.95 21.2 73.2
M 20.75 70.35
L 20.75 70.95
Q 20.75 72.25 19.4 72.25 18.45 72.25 18.45 71.4 18.45 70.25 20.2 70.25 20.35 70.25 20.75 70.35
M 27.2 67
L 25.5 67 25.5 65.2 24 65.75 24 67 23.3 67 23.3 68.2 24 68.2 24 71.4
Q 24 72.35 24.5 72.9 25 73.4 25.95 73.4 26.9 73.4 27.4 73.25
L 27.4 71.9
Q 26.95 72.2 26.45 72.2 25.9 72.2 25.7 71.9 25.5 71.6 25.5 70.95
L 25.5 68.2 27.2 68.2 27.2 67
M 20.5 54.65
L 21.1 53.4
Q 20.15 52.55 18.7 52.55 16.7 52.55 15.55 53.8 14.35 55.05 14.35 57.05 14.35 59.05 15.45 60.25 16.55 61.45 18.4 61.45 19.25 61.45 20.1 61.2 20.95 60.95 21.5 60.5
L 21.5 56.65 18.8 56.65 18.8 57.95 19.95 57.95 19.95 59.65
Q 19.45 60.1 18.6 60.1 17.4 60.1 16.65 59.25 15.95 58.45 15.95 57.1 15.95 55.65 16.7 54.8 17.4 53.9 18.7 53.9 19.1 53.9 19.65 54.15 20.2 54.4 20.5 54.65
M 24.8 54.9
Q 23.75 54.9 23 55.25
L 23.3 56.4
Q 23.85 56.15 24.7 56.15 26.1 56.15 26.1 57.25 25.75 57.15 25.45 57.15 23.95 57.15 23.15 57.75 22.35 58.4 22.35 59.45 22.35 60.4 22.9 60.9 23.5 61.4 24.5 61.4 25.05 61.4 25.55 61.2 26.05 61 26.25 60.65 26.3 60.95 26.55 61.2 26.85 61.4 27.15 61.4 27.45 61.4 27.65 61.35 27.85 61.25 28.05 60.95 27.55 60.65 27.55 59.4
L 27.55 58.05
Q 27.55 56.2 26.9 55.55 26.2 54.9 24.8 54.9
M 24.75 60.25
Q 23.8 60.25 23.8 59.4 23.8 58.25 25.55 58.25 25.7 58.25 26.1 58.35
L 26.1 58.95
Q 26.1 60.25 24.75 60.25
M 39.05 59.45
Q 39.05 60.4 39.6 60.9 40.2 61.4 41.2 61.4 41.75 61.4 42.25 61.2 42.75 61 42.95 60.65 43 60.95 43.25 61.2 43.55 61.4 43.85 61.4 44.15 61.4 44.35 61.35 44.55 61.25 44.75 60.95 44.25 60.65 44.25 59.4
L 44.25 58.05
Q 44.25 56.2 43.6 55.55 42.9 54.9 41.5 54.9 40.45 54.9 39.7 55.25
L 40 56.4
Q 40.55 56.15 41.4 56.15 42.8 56.15 42.8 57.25 42.45 57.15 42.15 57.15 40.65 57.15 39.85 57.75 39.05 58.4 39.05 59.45
M 42.25 58.25
Q 42.4 58.25 42.8 58.35
L 42.8 58.95
Q 42.8 60.25 41.45 60.25 40.5 60.25 40.5 59.4 40.5 58.25 42.25 58.25
M 30.6 55.6
L 30.6 55 29.15 55 29.15 61.3 30.6 61.3 30.6 57.75
Q 30.6 57.05 31 56.6 31.4 56.15 31.9 56.15 32.4 56.15 32.75 56.4
L 33.4 55.15
Q 33 54.9 32.25 54.9 31.2 54.9 30.6 55.6
M 37.4 54.9
Q 36.35 54.9 35.75 55.6
L 35.75 55 34.3 55 34.3 61.3 35.75 61.3 35.75 57.75
Q 35.75 57.05 36.15 56.6 36.55 56.15 37.05 56.15 37.55 56.15 37.9 56.4
L 38.55 55.15
Q 38.15 54.9 37.4 54.9
M 31.25 43.8
Q 30.45 44.7 30.45 46.15 30.45 47.65 31.25 48.55 32 49.4 33.45 49.4 34.85 49.4 35.65 48.55 36.45 47.65 36.45 46.15 36.45 44.65 35.65 43.75 34.9 42.9 33.45 42.9 32.1 42.9 31.25 43.8
M 33.45 44.1
Q 34.95 44.1 34.95 46.15 34.95 47.15 34.55 47.7 34.15 48.2 33.45 48.2 31.95 48.2 31.95 46.15 31.95 45.2 32.35 44.65 32.75 44.1 33.45 44.1
M 29 40.35
L 27.55 40.7 27.55 48.05
Q 27.55 49.4 28.55 49.4 29.35 49.4 29.7 48.75 29 48.55 29 47.4
L 29 40.35
M 23.85 35.8
Q 23.35 35.35 23.3 34.6
L 27.8 34.6
Q 27.9 34.05 27.9 33.8 27.9 32.55 27.1 31.7 26.25 30.9 24.9 30.9 23.6 30.9 22.7 31.85 21.8 32.75 21.8 34.25 21.8 35.75 22.6 36.6 23.45 37.4 24.9 37.4 26.4 37.4 27.2 36.8
L 26.65 35.65
Q 26.1 36.2 25.1 36.2 24.3 36.2 23.85 35.8
M 23.35 33.5
Q 23.65 32.15 24.9 32.15 26.3 32.15 26.45 33.5
L 23.35 33.5
M 32.7 32.4
L 33.35 31.15
Q 32.95 30.9 32.2 30.9 31.15 30.9 30.55 31.6
L 30.55 31 29.1 31 29.1 37.3 30.55 37.3 30.55 33.75
Q 30.55 33.05 30.95 32.6 31.35 32.15 31.85 32.15 32.35 32.15 32.7 32.4
M 19.5 33.65
Q 18.65 33.3 18.4 33.1 18.15 32.9 18.15 32.7 18.15 32.05 18.9 32.05 19.8 32.05 20.25 32.5
L 20.7 31.35
Q 19.8 30.9 18.85 30.9 17.85 30.9 17.25 31.35 16.65 31.8 16.65 32.65 16.65 33.85 18.25 34.5 19 34.85 19.25 35.05 19.5 35.3 19.5 35.65 19.5 36.25 18.65 36.25 17.85 36.25 17.2 35.75
L 16.65 36.9
Q 17.25 37.2 17.65 37.3 18 37.4 18.65 37.4 19.75 37.4 20.4 36.9 21.05 36.4 21.05 35.55 21.05 34.9 20.65 34.4 20.3 33.95 19.5 33.65
M 17.15 20.6
Q 17.55 20.15 18.05 20.15 18.55 20.15 18.9 20.4
L 19.55 19.15
Q 19.15 18.9 18.4 18.9 17.35 18.9 16.75 19.6
L 16.75 19 15.3 19 15.3 25.3 16.75 25.3 16.75 21.75
Q 16.75 21.05 17.15 20.6
M 14.1 5.7
Q 13.1 4.55 11.25 4.55 9.6 4.55 8.6 5.85 7.55 7.1 7.55 8.95 7.55 11.05 8.5 12.25 9.4 13.45 11.15 13.45 13 13.45 14.05 12.25 15.05 11 15.05 8.95 15.05 6.85 14.1 5.7
M 12.9 11.3
Q 12.3 12.1 11.15 12.1 10.15 12.1 9.65 11.25 9.15 10.45 9.15 8.95 9.15 7.55 9.7 6.75 10.25 5.9 11.25 5.9 13.5 5.9 13.5 8.95 13.5 10.5 12.9 11.3
M 33.1 19
L 33.1 20.25 33.9 20.25 33.9 25.3 35.35 25.3 35.35 19 33.1 19
M 35.25 16.85
Q 35 16.6 34.65 16.6 34.3 16.6 34.05 16.85 33.8 17.1 33.8 17.45 33.8 17.8 34.05 18.05 34.3 18.3 34.65 18.3 35 18.3 35.25 18.05 35.5 17.8 35.5 17.45 35.5 17.1 35.25 16.85
M 30.35 18.9
Q 28.75 18.9 27.85 19.8 26.95 20.75 26.95 22.2 26.95 23.7 27.75 24.55 28.6 25.4 30.05 25.4 30.7 25.4 31.2 25.3 31.65 25.2 32.3 24.8
L 31.75 23.65
Q 31.15 24.2 30.35 24.2 28.45 24.2 28.45 22.2 28.45 21.25 28.95 20.7 29.4 20.15 30.25 20.15 31.1 20.15 31.65 20.6
L 32.25 19.5
Q 31.45 18.9 30.35 18.9
M 23.35 24.2
Q 22.55 24.2 22.1 23.8 21.6 23.35 21.55 22.6
L 26.05 22.6
Q 26.15 22.05 26.15 21.8 26.15 20.55 25.35 19.7 24.5 18.9 23.15 18.9 21.85 18.9 20.95 19.85 20.05 20.75 20.05 22.25 20.05 23.75 20.85 24.6 21.7 25.4 23.15 25.4 24.65 25.4 25.45 24.8
L 24.9 23.65
Q 24.35 24.2 23.35 24.2
M 21.6 21.5
Q 21.9 20.15 23.15 20.15 24.55 20.15 24.7 21.5
L 21.6 21.5
M 22.05 10
Q 22.05 8.65 21.2 7.8 20.35 6.9 18.95 6.9 18.25 6.9 17.7 7.25
L 17.7 4.35 16.2 4.7 16.2 13.4 17.05 13.4 17.4 12.95
Q 18 13.4 18.9 13.4 20.35 13.4 21.2 12.5 22.05 11.6 22.05 10
M 17.7 8.5
Q 18.05 8.15 18.7 8.15 20.5 8.15 20.5 10.05 20.5 11.15 20.05 11.65 19.6 12.2 18.55 12.2 18 12.2 17.7 11.8
L 17.7 8.5
M 23.35 8.25
L 24.5 8.25 24.5 13.2
Q 24.5 13.9 24.05 14.2 23.65 14.45 22.5 14.45
L 22.5 15.75
Q 24.25 15.75 25.1 15.15 25.95 14.5 25.95 13.15
L 25.95 7 23.35 7 23.35 8.25
M 25.75 6.05
Q 26 5.8 26 5.45 26 5.1 25.75 4.85 25.5 4.6 25.15 4.6 24.8 4.6 24.55 4.85 24.3 5.1 24.3 5.45 24.3 5.8 24.55 6.05 24.8 6.3 25.15 6.3 25.5 6.3 25.75 6.05
M 32.65 7.7
Q 31.8 6.9 30.45 6.9 29.15 6.9 28.25 7.85 27.35 8.75 27.35 10.25 27.35 11.75 28.15 12.6 29 13.4 30.45 13.4 31.95 13.4 32.75 12.8
L 32.2 11.65
Q 31.65 12.2 30.65 12.2 29.85 12.2 29.4 11.8 28.9 11.35 28.85 10.6
L 33.35 10.6
Q 33.45 10.05 33.45 9.8 33.45 8.55 32.65 7.7
M 30.45 8.15
Q 31.85 8.15 32 9.5
L 28.9 9.5
Q 29.2 8.15 30.45 8.15
M 34.85 7
L 34.15 7 34.15 8.2 34.85 8.2 34.85 11.4
Q 34.85 12.35 35.35 12.9 35.85 13.4 36.8 13.4 37.75 13.4 38.25 13.25
L 38.25 11.9
Q 37.8 12.2 37.3 12.2 36.75 12.2 36.55 11.9 36.35 11.6 36.35 10.95
L 36.35 8.2 38.05 8.2 38.05 7 36.35 7 36.35 5.2 34.85 5.75 34.85 7
M 70.15 40.7
L 70.15 49.4 71 49.4 71.35 48.95
Q 71.95 49.4 72.85 49.4 74.3 49.4 75.15 48.5 76 47.6 76 46 76 44.65 75.15 43.8 74.3 42.9 72.9 42.9 72.2 42.9 71.65 43.25
L 71.65 40.35 70.15 40.7
M 71.65 44.5
Q 72 44.15 72.65 44.15 74.45 44.15 74.45 46.05 74.45 47.15 74 47.65 73.55 48.2 72.5 48.2 71.95 48.2 71.65 47.8
L 71.65 44.5
M 63.1 46.15
Q 63.1 47.65 63.9 48.55 64.65 49.4 66.1 49.4 67.5 49.4 68.3 48.55 69.1 47.65 69.1 46.15 69.1 44.65 68.3 43.75 67.55 42.9 66.1 42.9 64.75 42.9 63.9 43.8 63.1 44.7 63.1 46.15
M 64.6 46.15
Q 64.6 45.2 65 44.65 65.4 44.1 66.1 44.1 67.6 44.1 67.6 46.15 67.6 47.15 67.2 47.7 66.8 48.2 66.1 48.2 64.6 48.2 64.6 46.15
M 68 28.35
L 66.55 28.7 66.55 31.2
Q 65.95 30.9 65.25 30.9 63.95 30.9 63.05 31.85 62.2 32.8 62.2 34.25 62.2 35.75 62.95 36.6 63.7 37.4 65 37.4 65.5 37.4 65.9 37.25 66.35 37.1 66.55 36.9
L 66.55 37.3 68 37.3 68 28.35
M 63.7 34.2
Q 63.7 33.2 64.2 32.7 64.65 32.15 65.55 32.15 66.05 32.15 66.55 32.5
L 66.55 35.8
Q 66.45 35.95 66.15 36.05 65.8 36.2 65.6 36.2 63.7 36.2 63.7 34.2
M 74.75 36.95
Q 74.25 36.65 74.25 35.4
L 74.25 34.05
Q 74.25 32.2 73.6 31.55 72.9 30.9 71.5 30.9 70.45 30.9 69.7 31.25
L 70 32.4
Q 70.55 32.15 71.4 32.15 72.8 32.15 72.8 33.25 72.45 33.15 72.15 33.15 70.65 33.15 69.85 33.75 69.05 34.4 69.05 35.45 69.05 36.4 69.6 36.9 70.2 37.4 71.2 37.4 71.75 37.4 72.25 37.2 72.75 37 72.95 36.65 73 36.95 73.25 37.2 73.55 37.4 73.85 37.4 74.15 37.4 74.35 37.35 74.55 37.25 74.75 36.95
M 72.25 34.25
Q 72.4 34.25 72.8 34.35
L 72.8 34.95
Q 72.8 36.25 71.45 36.25 70.5 36.25 70.5 35.4 70.5 34.25 72.25 34.25
M 60.35 48.2
Q 58.45 48.2 58.45 46.2 58.45 45.25 58.95 44.7 59.4 44.15 60.25 44.15 61.1 44.15 61.65 44.6
L 62.25 43.5
Q 61.45 42.9 60.35 42.9 58.75 42.9 57.85 43.8 56.95 44.75 56.95 46.2 56.95 47.7 57.75 48.55 58.6 49.4 60.05 49.4 60.7 49.4 61.2 49.3 61.65 49.2 62.3 48.8
L 61.75 47.65
Q 61.15 48.2 60.35 48.2
M 50.45 40.7
L 50.45 48.05
Q 50.45 49.4 51.45 49.4 52.25 49.4 52.6 48.75 51.9 48.55 51.9 47.4
L 51.9 40.35 50.45 40.7
M 43.95 48.9
Q 44.55 49.4 45.55 49.4 46.1 49.4 46.6 49.2 47.1 49 47.3 48.65 47.35 48.95 47.6 49.2 47.9 49.4 48.2 49.4 48.5 49.4 48.7 49.35 48.9 49.25 49.1 48.95 48.6 48.65 48.6 47.4
L 48.6 46.05
Q 48.6 44.2 47.95 43.55 47.25 42.9 45.85 42.9 44.8 42.9 44.05 43.25
L 44.35 44.4
Q 44.9 44.15 45.75 44.15 47.15 44.15 47.15 45.25 46.8 45.15 46.5 45.15 45 45.15 44.2 45.75 43.4 46.4 43.4 47.45 43.4 48.4 43.95 48.9
M 46.6 46.25
Q 46.75 46.25 47.15 46.35
L 47.15 46.95
Q 47.15 48.25 45.8 48.25 44.85 48.25 44.85 47.4 44.85 46.25 46.6 46.25
M 41.5 49.3
Q 41.95 49.2 42.6 48.8
L 42.05 47.65
Q 41.45 48.2 40.65 48.2 38.75 48.2 38.75 46.2 38.75 45.25 39.25 44.7 39.7 44.15 40.55 44.15 41.4 44.15 41.95 44.6
L 42.55 43.5
Q 41.75 42.9 40.65 42.9 39.05 42.9 38.15 43.8 37.25 44.75 37.25 46.2 37.25 47.7 38.05 48.55 38.9 49.4 40.35 49.4 41 49.4 41.5 49.3
M 43.85 31
L 43.85 35.1
Q 43.85 37.4 46.05 37.4 46.5 37.4 47.05 37.25 47.55 37.05 47.9 36.8
L 47.9 37.3 49.35 37.3 49.35 31 47.9 31 47.9 35.35
Q 47.75 35.7 47.3 35.95 46.9 36.2 46.4 36.2 45.3 36.2 45.3 35
L 45.3 31 43.85 31
M 42.2 31.95
L 42.9 31.45 41.9 30.55 41.3 31.2
Q 40.75 30.9 39.9 30.9 38.8 30.9 38.1 31.55 37.35 32.2 37.35 33.2 37.35 34.5 38.4 35.2 38.1 35.35 37.85 35.65 37.6 35.95 37.6 36.25 37.6 37.35 39.1 37.35 39.35 37.35 39.8 37.25 40.3 37.2 40.55 37.2 41.45 37.2 41.45 37.75 41.45 38.1 41.05 38.3 40.65 38.45 40 38.45 39.05 38.45 38.3 37.75
L 37.35 38.9
Q 38.55 39.75 40 39.75 41.2 39.75 42.05 39.2 42.9 38.7 42.9 37.75 42.9 36 40.75 36 40.45 36 40.05 36.1 39.6 36.2 39.4 36.2 39 36.2 39 35.95 39 35.8 39.3 35.7 39.55 35.55 39.6 35.55
L 39.85 35.6
Q 40.1 35.65 40.25 35.65 41.25 35.65 41.9 35 42.55 34.35 42.55 33.25 42.55 32.5 42.2 31.95
M 41.05 33.25
Q 41.05 33.8 40.8 34.15 40.5 34.45 39.95 34.45 39.45 34.45 39.15 34.1 38.85 33.8 38.85 33.25 38.85 32.75 39.15 32.4 39.45 32.1 39.95 32.1 40.45 32.1 40.75 32.45 41.05 32.75 41.05 33.25
M 59.2 32.6
Q 59.6 32.15 60.1 32.15 60.6 32.15 60.95 32.4
L 61.6 31.15
Q 61.2 30.9 60.45 30.9 59.4 30.9 58.8 31.6
L 58.8 31 57.35 31 57.35 37.3 58.8 37.3 58.8 33.75
Q 58.8 33.05 59.2 32.6
M 54.3 33.25
Q 53.95 33.15 53.65 33.15 52.15 33.15 51.35 33.75 50.55 34.4 50.55 35.45 50.55 36.4 51.1 36.9 51.7 37.4 52.7 37.4 53.25 37.4 53.75 37.2 54.25 37 54.45 36.65 54.5 36.95 54.75 37.2 55.05 37.4 55.35 37.4 55.65 37.4 55.85 37.35 56.05 37.25 56.25 36.95 55.75 36.65 55.75 35.4
L 55.75 34.05
Q 55.75 32.2 55.1 31.55 54.4 30.9 53 30.9 51.95 30.9 51.2 31.25
L 51.5 32.4
Q 52.05 32.15 52.9 32.15 54.3 32.15 54.3 33.25
M 52.95 36.25
Q 52 36.25 52 35.4 52 34.25 53.75 34.25 53.9 34.25 54.3 34.35
L 54.3 34.95
Q 54.3 36.25 52.95 36.25
M 55.25 18.9
Q 54.15 18.9 53.45 19.55 52.7 20.2 52.7 21.2 52.7 22.5 53.75 23.2 53.45 23.35 53.2 23.65 52.95 23.95 52.95 24.25 52.95 25.35 54.45 25.35 54.7 25.35 55.15 25.25 55.65 25.2 55.9 25.2 56.8 25.2 56.8 25.75 56.8 26.1 56.4 26.3 56 26.45 55.35 26.45 54.4 26.45 53.65 25.75
L 52.7 26.9
Q 53.9 27.75 55.35 27.75 56.55 27.75 57.4 27.2 58.25 26.7 58.25 25.75 58.25 24 56.1 24 55.8 24 55.4 24.1 54.95 24.2 54.75 24.2 54.35 24.2 54.35 23.95 54.35 23.8 54.65 23.7 54.9 23.55 54.95 23.55
L 55.2 23.6
Q 55.45 23.65 55.6 23.65 56.6 23.65 57.25 23 57.9 22.35 57.9 21.25 57.9 20.5 57.55 19.95
L 58.25 19.45 57.25 18.55 56.65 19.2
Q 56.1 18.9 55.25 18.9
M 54.5 20.4
Q 54.8 20.1 55.3 20.1 55.8 20.1 56.1 20.45 56.4 20.75 56.4 21.25 56.4 21.8 56.15 22.15 55.85 22.45 55.3 22.45 54.8 22.45 54.5 22.1 54.2 21.8 54.2 21.25 54.2 20.75 54.5 20.4
M 48.75 20.15
Q 50.15 20.15 50.15 21.25 49.8 21.15 49.5 21.15 48 21.15 47.2 21.75 46.4 22.4 46.4 23.45 46.4 24.4 46.95 24.9 47.55 25.4 48.55 25.4 49.1 25.4 49.6 25.2 50.1 25 50.3 24.65 50.35 24.95 50.6 25.2 50.9 25.4 51.2 25.4 51.5 25.4 51.7 25.35 51.9 25.25 52.1 24.95 51.6 24.65 51.6 23.4
L 51.6 22.05
Q 51.6 20.2 50.95 19.55 50.25 18.9 48.85 18.9 47.8 18.9 47.05 19.25
L 47.35 20.4
Q 47.9 20.15 48.75 20.15
M 49.6 22.25
Q 49.75 22.25 50.15 22.35
L 50.15 22.95
Q 50.15 24.25 48.8 24.25 47.85 24.25 47.85 23.4 47.85 22.25 49.6 22.25
M 41.4 20.6
L 42 19.5
Q 41.2 18.9 40.1 18.9 38.5 18.9 37.6 19.8 36.7 20.75 36.7 22.2 36.7 23.7 37.5 24.55 38.35 25.4 39.8 25.4 40.45 25.4 40.95 25.3 41.4 25.2 42.05 24.8
L 41.5 23.65
Q 40.9 24.2 40.1 24.2 38.2 24.2 38.2 22.2 38.2 21.25 38.7 20.7 39.15 20.15 40 20.15 40.85 20.15 41.4 20.6
M 44.95 16.35
L 43.5 16.7 43.5 24.05
Q 43.5 25.4 44.5 25.4 45.3 25.4 45.65 24.75 44.95 24.55 44.95 23.4
L 44.95 16.35
M 49.4 8.5
L 49.85 7.35
Q 48.95 6.9 48 6.9 47 6.9 46.4 7.35 45.8 7.8 45.8 8.65 45.8 9.85 47.4 10.5 48.15 10.85 48.4 11.05 48.65 11.3 48.65 11.65 48.65 12.25 47.8 12.25 47 12.25 46.35 11.75
L 45.8 12.9
Q 46.4 13.2 46.8 13.3 47.15 13.4 47.8 13.4 48.9 13.4 49.55 12.9 50.2 12.4 50.2 11.55 50.2 10.9 49.8 10.4 49.45 9.95 48.65 9.65 47.8 9.3 47.55 9.1 47.3 8.9 47.3 8.7 47.3 8.05 48.05 8.05 48.95 8.05 49.4 8.5
M 44.2 7.75
Q 43.45 6.9 42 6.9 40.65 6.9 39.8 7.8 39 8.7 39 10.15 39 11.65 39.8 12.55 40.55 13.4 42 13.4 43.4 13.4 44.2 12.55 45 11.65 45 10.15 45 8.65 44.2 7.75
M 42 12.2
Q 40.5 12.2 40.5 10.15 40.5 9.2 40.9 8.65 41.3 8.1 42 8.1 43.5 8.1 43.5 10.15 43.5 11.15 43.1 11.7 42.7 12.2 42 12.2
M 60.45 4.35
L 59 4.7 59 7.2
Q 58.4 6.9 57.7 6.9 56.4 6.9 55.5 7.85 54.65 8.8 54.65 10.25 54.65 11.75 55.4 12.6 56.15 13.4 57.45 13.4 57.95 13.4 58.35 13.25 58.8 13.1 59 12.9
L 59 13.3 60.45 13.3 60.45 4.35
M 56.15 10.2
Q 56.15 9.2 56.65 8.7 57.1 8.15 58 8.15 58.5 8.15 59 8.5
L 59 11.8
Q 58.9 11.95 58.6 12.05 58.25 12.2 58.05 12.2 56.15 12.2 56.15 10.2
M 67.4 19.6
L 67.1 19 66.1 19 66.1 25.3 67.55 25.3 67.55 20.8
Q 67.7 20.55 68.05 20.35 68.35 20.15 68.65 20.15 69.15 20.15 69.45 20.4 69.7 20.7 69.7 21.15
L 69.7 25.3 71.2 25.3 71.2 20.75
Q 71.3 20.5 71.6 20.35 71.9 20.15 72.25 20.15 73.35 20.15 73.35 21.35
L 73.35 25.3 74.8 25.3 74.8 21.15
Q 74.8 20.1 74.25 19.5 73.65 18.9 72.6 18.9 72.1 18.9 71.6 19.1 71.15 19.3 70.85 19.6 70.2 18.9 68.95 18.9 68 18.9 67.4 19.6
M 63.65 23.65
Q 63.1 24.2 62.1 24.2 61.3 24.2 60.85 23.8 60.35 23.35 60.3 22.6
L 64.8 22.6
Q 64.9 22.05 64.9 21.8 64.9 20.55 64.1 19.7 63.25 18.9 61.9 18.9 60.6 18.9 59.7 19.85 58.8 20.75 58.8 22.25 58.8 23.75 59.6 24.6 60.45 25.4 61.9 25.4 63.4 25.4 64.2 24.8
L 63.65 23.65
M 61.9 20.15
Q 63.3 20.15 63.45 21.5
L 60.35 21.5
Q 60.65 20.15 61.9 20.15
M 64.6 6.9
Q 63.3 6.9 62.4 7.85 61.5 8.75 61.5 10.25 61.5 11.75 62.3 12.6 63.15 13.4 64.6 13.4 66.1 13.4 66.9 12.8
L 66.35 11.65
Q 65.8 12.2 64.8 12.2 64 12.2 63.55 11.8 63.05 11.35 63 10.6
L 67.5 10.6
Q 67.6 10.05 67.6 9.8 67.6 8.55 66.8 7.7 65.95 6.9 64.6 6.9
M 63.05 9.5
Q 63.35 8.15 64.6 8.15 66 8.15 66.15 9.5
L 63.05 9.5
M 80.55 7
L 78.3 7 78.3 8.25 79.1 8.25 79.1 13.3 80.55 13.3 80.55 7
M 72 8.5
L 72.45 7.35
Q 71.55 6.9 70.6 6.9 69.6 6.9 69 7.35 68.4 7.8 68.4 8.65 68.4 9.85 70 10.5 70.75 10.85 71 11.05 71.25 11.3 71.25 11.65 71.25 12.25 70.4 12.25 69.6 12.25 68.95 11.75
L 68.4 12.9
Q 69 13.2 69.4 13.3 69.75 13.4 70.4 13.4 71.5 13.4 72.15 12.9 72.8 12.4 72.8 11.55 72.8 10.9 72.4 10.4 72.05 9.95 71.25 9.65 70.4 9.3 70.15 9.1 69.9 8.9 69.9 8.7 69.9 8.05 70.65 8.05 71.55 8.05 72 8.5
M 75.65 5.2
L 74.15 5.75 74.15 7 73.45 7 73.45 8.2 74.15 8.2 74.15 11.4
Q 74.15 12.35 74.65 12.9 75.15 13.4 76.1 13.4 77.05 13.4 77.55 13.25
L 77.55 11.9
Q 77.1 12.2 76.6 12.2 76.05 12.2 75.85 11.9 75.65 11.6 75.65 10.95
L 75.65 8.2 77.35 8.2 77.35 7 75.65 7 75.65 5.2
M 80.45 4.85
Q 80.2 4.6 79.85 4.6 79.5 4.6 79.25 4.85 79 5.1 79 5.45 79 5.8 79.25 6.05 79.5 6.3 79.85 6.3 80.2 6.3 80.45 6.05 80.7 5.8 80.7 5.45 80.7 5.1 80.45 4.85
M 109.7 79.55
Q 109 78.9 107.6 78.9 106.55 78.9 105.8 79.25
L 106.1 80.4
Q 106.65 80.15 107.5 80.15 108.9 80.15 108.9 81.25 108.55 81.15 108.25 81.15 106.75 81.15 105.95 81.75 105.15 82.4 105.15 83.45 105.15 84.4 105.7 84.9 106.3 85.4 107.3 85.4 107.85 85.4 108.35 85.2 108.85 85 109.05 84.65 109.1 84.95 109.35 85.2 109.65 85.4 109.95 85.4 110.25 85.4 110.45 85.35 110.65 85.25 110.85 84.95 110.35 84.65 110.35 83.4
L 110.35 82.05
Q 110.35 80.2 109.7 79.55
M 108.9 82.35
L 108.9 82.95
Q 108.9 84.25 107.55 84.25 106.6 84.25 106.6 83.4 106.6 82.25 108.35 82.25 108.5 82.25 108.9 82.35
M 115.05 78.9
Q 114 78.9 113.4 79.6
L 113.4 79 111.95 79 111.95 85.3 113.4 85.3 113.4 81.75
Q 113.4 81.05 113.8 80.6 114.2 80.15 114.7 80.15 115.2 80.15 115.55 80.4
L 116.2 79.15
Q 115.8 78.9 115.05 78.9
M 121.25 79.55
Q 120.55 78.9 119.15 78.9 118.1 78.9 117.35 79.25
L 117.65 80.4
Q 118.2 80.15 119.05 80.15 120.45 80.15 120.45 81.25 120.1 81.15 119.8 81.15 118.3 81.15 117.5 81.75 116.7 82.4 116.7 83.45 116.7 84.4 117.25 84.9 117.85 85.4 118.85 85.4 119.4 85.4 119.9 85.2 120.4 85 120.6 84.65 120.65 84.95 120.9 85.2 121.2 85.4 121.5 85.4 121.8 85.4 122 85.35 122.2 85.25 122.4 84.95 121.9 84.65 121.9 83.4
L 121.9 82.05
Q 121.9 80.2 121.25 79.55
M 119.9 82.25
Q 120.05 82.25 120.45 82.35
L 120.45 82.95
Q 120.45 84.25 119.1 84.25 118.15 84.25 118.15 83.4 118.15 82.25 119.9 82.25
M 81.7 96.55
Q 81.7 96.1 81.35 95.8 81.05 95.5 80.6 95.5 80.2 95.5 79.9 95.8 79.55 96.1 79.55 96.55 79.55 96.95 79.9 97.3 80.2 97.6 80.6 97.6 81.05 97.6 81.35 97.3 81.7 96.95 81.7 96.55
M 81.1 82.6
Q 81.2 82.05 81.2 81.8 81.2 80.55 80.4 79.7 79.55 78.9 78.2 78.9 76.9 78.9 76 79.85 75.1 80.75 75.1 82.25 75.1 83.75 75.9 84.6 76.75 85.4 78.2 85.4 79.7 85.4 80.5 84.8
L 79.95 83.65
Q 79.4 84.2 78.4 84.2 77.6 84.2 77.15 83.8 76.65 83.35 76.6 82.6
L 81.1 82.6
M 79.75 81.5
L 76.65 81.5
Q 76.95 80.15 78.2 80.15 79.6 80.15 79.75 81.5
M 84.7 85.45
L 84.2 85.95
Q 84.4 86 84.5 86.2 84.6 86.35 84.6 86.55 84.6 87.1 83.85 87.1 83.65 87.1 83.45 87.05
L 83.7 87.8
Q 83.95 87.85 84.25 87.85 84.9 87.85 85.35 87.55 85.75 87.2 85.75 86.65 85.75 85.65 84.7 85.45
M 85.4 78.9
Q 83.8 78.9 82.9 79.8 82 80.75 82 82.2 82 83.7 82.8 84.55 83.65 85.4 85.1 85.4 85.75 85.4 86.25 85.3 86.7 85.2 87.35 84.8
L 86.8 83.65
Q 86.2 84.2 85.4 84.2 83.5 84.2 83.5 82.2 83.5 81.25 84 80.7 84.45 80.15 85.3 80.15 86.15 80.15 86.7 80.6
L 87.3 79.5
Q 86.5 78.9 85.4 78.9
M 93.35 83.4
L 93.35 82.05
Q 93.35 80.2 92.7 79.55 92 78.9 90.6 78.9 89.55 78.9 88.8 79.25
L 89.1 80.4
Q 89.65 80.15 90.5 80.15 91.9 80.15 91.9 81.25 91.55 81.15 91.25 81.15 89.75 81.15 88.95 81.75 88.15 82.4 88.15 83.45 88.15 84.4 88.7 84.9 89.3 85.4 90.3 85.4 90.85 85.4 91.35 85.2 91.85 85 92.05 84.65 92.1 84.95 92.35 85.2 92.65 85.4 92.95 85.4 93.25 85.4 93.45 85.35 93.65 85.25 93.85 84.95 93.35 84.65 93.35 83.4
M 91.9 82.35
L 91.9 82.95
Q 91.9 84.25 90.55 84.25 89.6 84.25 89.6 83.4 89.6 82.25 91.35 82.25 91.5 82.25 91.9 82.35
M 99.9 79
L 98.4 79 98.4 87.75 99.9 87.75 99.9 85.15
Q 100.45 85.4 101.15 85.4 102.6 85.4 103.4 84.6 104.25 83.75 104.25 82.2 104.25 78.9 101.25 78.9 100.45 78.9 99.9 79.45
L 99.9 79
M 100.8 84.2
Q 100.3 84.2 99.9 83.85
L 99.9 80.55
Q 100.3 80.15 100.85 80.15 101.85 80.15 102.3 80.6 102.7 81.05 102.7 82.15 102.7 83.2 102.3 83.7 101.85 84.2 100.8 84.2
M 100.8 67
L 99.25 67 97.65 70.85 96.15 67 94.55 67 97.35 73.4 97.9 73.4 100.8 67
M 84.2 66.9
Q 82.9 66.9 82 67.85 81.15 68.8 81.15 70.25 81.15 71.75 81.9 72.6 82.65 73.4 83.95 73.4 84.45 73.4 84.85 73.25 85.3 73.1 85.5 72.9
L 85.5 73.3 86.95 73.3 86.95 64.35 85.5 64.7 85.5 67.2
Q 84.9 66.9 84.2 66.9
M 84.5 68.15
Q 85 68.15 85.5 68.5
L 85.5 71.8
Q 85.4 71.95 85.1 72.05 84.75 72.2 84.55 72.2 82.65 72.2 82.65 70.2 82.65 69.2 83.15 68.7 83.6 68.15 84.5 68.15
M 91.1 66.9
Q 89.8 66.9 88.9 67.85 88 68.75 88 70.25 88 71.75 88.8 72.6 89.65 73.4 91.1 73.4 92.6 73.4 93.4 72.8
L 92.85 71.65
Q 92.3 72.2 91.3 72.2 90.5 72.2 90.05 71.8 89.55 71.35 89.5 70.6
L 94 70.6
Q 94.1 70.05 94.1 69.8 94.1 68.55 93.3 67.7 92.45 66.9 91.1 66.9
M 89.55 69.5
Q 89.85 68.15 91.1 68.15 92.5 68.15 92.65 69.5
L 89.55 69.5
M 81.65 60.55
Q 82.45 59.65 82.45 58.15 82.45 56.65 81.65 55.75 80.9 54.9 79.45 54.9 78.1 54.9 77.25 55.8 76.45 56.7 76.45 58.15 76.45 59.65 77.25 60.55 78 61.4 79.45 61.4 80.85 61.4 81.65 60.55
M 79.45 56.1
Q 80.95 56.1 80.95 58.15 80.95 59.15 80.55 59.7 80.15 60.2 79.45 60.2 77.95 60.2 77.95 58.15 77.95 57.2 78.35 56.65 78.75 56.1 79.45 56.1
M 83.85 55
L 83.15 55 83.15 56.2 83.85 56.2 83.85 59.4
Q 83.85 60.35 84.35 60.9 84.85 61.4 85.8 61.4 86.75 61.4 87.25 61.25
L 87.25 59.9
Q 86.8 60.2 86.3 60.2 85.75 60.2 85.55 59.9 85.35 59.6 85.35 58.95
L 85.35 56.2 87.05 56.2 87.05 55 85.35 55 85.35 53.2 83.85 53.75 83.85 55
M 94 58.6
Q 94.1 58.05 94.1 57.8 94.1 56.55 93.3 55.7 92.45 54.9 91.1 54.9 89.8 54.9 88.9 55.85 88 56.75 88 58.25 88 59.75 88.8 60.6 89.65 61.4 91.1 61.4 92.6 61.4 93.4 60.8
L 92.85 59.65
Q 92.3 60.2 91.3 60.2 90.5 60.2 90.05 59.8 89.55 59.35 89.5 58.6
L 94 58.6
M 89.55 57.5
Q 89.85 56.15 91.1 56.15 92.5 56.15 92.65 57.5
L 89.55 57.5
M 98.95 55.35
Q 98.05 54.9 97.1 54.9 96.1 54.9 95.5 55.35 94.9 55.8 94.9 56.65 94.9 57.85 96.5 58.5 97.25 58.85 97.5 59.05 97.75 59.3 97.75 59.65 97.75 60.25 96.9 60.25 96.1 60.25 95.45 59.75
L 94.9 60.9
Q 95.5 61.2 95.9 61.3 96.25 61.4 96.9 61.4 98 61.4 98.65 60.9 99.3 60.4 99.3 59.55 99.3 58.9 98.9 58.4 98.55 57.95 97.75 57.65 96.9 57.3 96.65 57.1 96.4 56.9 96.4 56.7 96.4 56.05 97.15 56.05 98.05 56.05 98.5 56.5
L 98.95 55.35
M 104.3 66.9
Q 103 66.9 102.1 67.85 101.2 68.75 101.2 70.25 101.2 71.75 102 72.6 102.85 73.4 104.3 73.4 105.8 73.4 106.6 72.8
L 106.05 71.65
Q 105.5 72.2 104.5 72.2 103.7 72.2 103.25 71.8 102.75 71.35 102.7 70.6
L 107.2 70.6
Q 107.3 70.05 107.3 69.8 107.3 68.55 106.5 67.7 105.65 66.9 104.3 66.9
M 105.85 69.5
L 102.75 69.5
Q 103.05 68.15 104.3 68.15 105.7 68.15 105.85 69.5
M 111.35 66.9
Q 110.4 66.9 109.8 67.6
L 109.5 67 108.5 67 108.5 73.3 109.95 73.3 109.95 68.8
Q 110.1 68.55 110.45 68.35 110.75 68.15 111.05 68.15 111.55 68.15 111.85 68.4 112.1 68.7 112.1 69.15
L 112.1 73.3 113.6 73.3 113.6 68.75
Q 113.7 68.5 114 68.35 114.3 68.15 114.65 68.15 115.75 68.15 115.75 69.35
L 115.75 73.3 117.2 73.3 117.2 69.15
Q 117.2 68.1 116.65 67.5 116.05 66.9 115 66.9 114.5 66.9 114 67.1 113.55 67.3 113.25 67.6 112.6 66.9 111.35 66.9
M 103.65 58.15
Q 103.65 59.65 104.45 60.55 105.2 61.4 106.65 61.4 108.05 61.4 108.85 60.55 109.65 59.65 109.65 58.15 109.65 56.65 108.85 55.75 108.1 54.9 106.65 54.9 105.3 54.9 104.45 55.8 103.65 56.7 103.65 58.15
M 105.15 58.15
Q 105.15 57.2 105.55 56.65 105.95 56.1 106.65 56.1 108.15 56.1 108.15 58.15 108.15 59.15 107.75 59.7 107.35 60.2 106.65 60.2 105.15 60.2 105.15 58.15
M 116.35 55
L 114.9 55 114.9 59.35
Q 114.75 59.7 114.3 59.95 113.9 60.2 113.4 60.2 112.3 60.2 112.3 59
L 112.3 55 110.85 55 110.85 59.1
Q 110.85 61.4 113.05 61.4 113.5 61.4 114.05 61.25 114.55 61.05 114.9 60.8
L 114.9 61.3 116.35 61.3 116.35 55
M 102.15 47.5
Q 101.75 47.5 101.45 47.8 101.1 48.1 101.1 48.55 101.1 48.95 101.45 49.3 101.75 49.6 102.15 49.6 102.6 49.6 102.9 49.3 103.25 48.95 103.25 48.55 103.25 48.1 102.9 47.8 102.6 47.5 102.15 47.5
M 113.95 33.15
Q 113.95 32.1 113.4 31.5 112.8 30.9 111.75 30.9 111.25 30.9 110.75 31.1 110.3 31.3 110 31.6 109.35 30.9 108.1 30.9 107.15 30.9 106.55 31.6
L 106.25 31 105.25 31 105.25 37.3 106.7 37.3 106.7 32.8
Q 106.85 32.55 107.2 32.35 107.5 32.15 107.8 32.15 108.3 32.15 108.6 32.4 108.85 32.7 108.85 33.15
L 108.85 37.3 110.35 37.3 110.35 32.75
Q 110.45 32.5 110.75 32.35 111.05 32.15 111.4 32.15 112.5 32.15 112.5 33.35
L 112.5 37.3 113.95 37.3 113.95 33.15
M 81.35 37.3
L 81.35 28.35 79.9 28.7 79.9 31.2
Q 79.3 30.9 78.6 30.9 77.3 30.9 76.4 31.85 75.55 32.8 75.55 34.25 75.55 35.75 76.3 36.6 77.05 37.4 78.35 37.4 78.85 37.4 79.25 37.25 79.7 37.1 79.9 36.9
L 79.9 37.3 81.35 37.3
M 79.9 32.5
L 79.9 35.8
Q 79.8 35.95 79.5 36.05 79.15 36.2 78.95 36.2 77.05 36.2 77.05 34.2 77.05 33.2 77.55 32.7 78 32.15 78.9 32.15 79.4 32.15 79.9 32.5
M 94.5 43.8
Q 93.7 44.7 93.7 46.15 93.7 47.65 94.5 48.55 95.25 49.4 96.7 49.4 98.1 49.4 98.9 48.55 99.7 47.65 99.7 46.15 99.7 44.65 98.9 43.75 98.15 42.9 96.7 42.9 95.35 42.9 94.5 43.8
M 95.2 46.15
Q 95.2 45.2 95.6 44.65 96 44.1 96.7 44.1 98.2 44.1 98.2 46.15 98.2 47.15 97.8 47.7 97.4 48.2 96.7 48.2 95.2 48.2 95.2 46.15
M 82.9 46.6
Q 83 46.05 83 45.8 83 44.55 82.2 43.7 81.35 42.9 80 42.9 78.7 42.9 77.8 43.85 76.9 44.75 76.9 46.25 76.9 47.75 77.7 48.6 78.55 49.4 80 49.4 81.5 49.4 82.3 48.8
L 81.75 47.65
Q 81.2 48.2 80.2 48.2 79.4 48.2 78.95 47.8 78.45 47.35 78.4 46.6
L 82.9 46.6
M 78.45 45.5
Q 78.75 44.15 80 44.15 81.4 44.15 81.55 45.5
L 78.45 45.5
M 88.45 43.15
Q 88.05 42.9 87.3 42.9 86.25 42.9 85.65 43.6
L 85.65 43 84.2 43 84.2 49.3 85.65 49.3 85.65 45.75
Q 85.65 45.05 86.05 44.6 86.45 44.15 86.95 44.15 87.45 44.15 87.8 44.4
L 88.45 43.15
M 91.05 43
L 91.05 41.2 89.55 41.75 89.55 43 88.85 43 88.85 44.2 89.55 44.2 89.55 47.4
Q 89.55 48.35 90.05 48.9 90.55 49.4 91.5 49.4 92.45 49.4 92.95 49.25
L 92.95 47.9
Q 92.5 48.2 92 48.2 91.45 48.2 91.25 47.9 91.05 47.6 91.05 46.95
L 91.05 44.2 92.75 44.2 92.75 43 91.05 43
M 83.2 31.8
Q 82.4 32.7 82.4 34.15 82.4 35.65 83.2 36.55 83.95 37.4 85.4 37.4 86.8 37.4 87.6 36.55 88.4 35.65 88.4 34.15 88.4 32.65 87.6 31.75 86.85 30.9 85.4 30.9 84.05 30.9 83.2 31.8
M 83.9 34.15
Q 83.9 33.2 84.3 32.65 84.7 32.1 85.4 32.1 86.9 32.1 86.9 34.15 86.9 35.15 86.5 35.7 86.1 36.2 85.4 36.2 83.9 36.2 83.9 34.15
M 100 35.8
Q 99.5 35.35 99.45 34.6
L 103.95 34.6
Q 104.05 34.05 104.05 33.8 104.05 32.55 103.25 31.7 102.4 30.9 101.05 30.9 99.75 30.9 98.85 31.85 97.95 32.75 97.95 34.25 97.95 35.75 98.75 36.6 99.6 37.4 101.05 37.4 102.55 37.4 103.35 36.8
L 102.8 35.65
Q 102.25 36.2 101.25 36.2 100.45 36.2 100 35.8
M 99.5 33.5
Q 99.8 32.15 101.05 32.15 102.45 32.15 102.6 33.5
L 99.5 33.5
M 92.8 32.5
L 93.25 31.35
Q 92.35 30.9 91.4 30.9 90.4 30.9 89.8 31.35 89.2 31.8 89.2 32.65 89.2 33.85 90.8 34.5 91.55 34.85 91.8 35.05 92.05 35.3 92.05 35.65 92.05 36.25 91.2 36.25 90.4 36.25 89.75 35.75
L 89.2 36.9
Q 89.8 37.2 90.2 37.3 90.55 37.4 91.2 37.4 92.3 37.4 92.95 36.9 93.6 36.4 93.6 35.55 93.6 34.9 93.2 34.4 92.85 33.95 92.05 33.65 91.2 33.3 90.95 33.1 90.7 32.9 90.7 32.7 90.7 32.05 91.45 32.05 92.35 32.05 92.8 32.5
M 94.7 19
L 93.1 19 95.9 25.4 96.45 25.4 99.35 19 97.8 19 96.2 22.85 94.7 19
M 89.65 18.9
Q 88.35 18.9 87.45 19.85 86.55 20.75 86.55 22.25 86.55 23.75 87.35 24.6 88.2 25.4 89.65 25.4 91.15 25.4 91.95 24.8
L 91.4 23.65
Q 90.85 24.2 89.85 24.2 89.05 24.2 88.6 23.8 88.1 23.35 88.05 22.6
L 92.55 22.6
Q 92.65 22.05 92.65 21.8 92.65 20.55 91.85 19.7 91 18.9 89.65 18.9
M 88.1 21.5
Q 88.4 20.15 89.65 20.15 91.05 20.15 91.2 21.5
L 88.1 21.5
M 85.5 16.35
L 84.05 16.7 84.05 19.2
Q 83.45 18.9 82.75 18.9 81.45 18.9 80.55 19.85 79.7 20.8 79.7 22.25 79.7 23.75 80.45 24.6 81.2 25.4 82.5 25.4 83 25.4 83.4 25.25 83.85 25.1 84.05 24.9
L 84.05 25.3 85.5 25.3 85.5 16.35
M 83.1 24.2
Q 81.2 24.2 81.2 22.2 81.2 21.2 81.7 20.7 82.15 20.15 83.05 20.15 83.55 20.15 84.05 20.5
L 84.05 23.8
Q 83.95 23.95 83.65 24.05 83.3 24.2 83.1 24.2
M 85 8.15
Q 85.7 8.15 86 8.5 86.35 8.85 86.35 9.65
L 86.35 13.3 87.8 13.3 87.8 9.45
Q 87.8 8.25 87.15 7.6 86.5 6.9 85.4 6.9 84.2 6.9 83.6 7.6
L 83.35 7 82.3 7 82.3 13.3 83.75 13.3 83.75 8.75
Q 83.95 8.5 84.35 8.3 84.7 8.15 85 8.15
M 94.2 11.4
L 94.2 10.05
Q 94.2 8.2 93.55 7.55 92.85 6.9 91.45 6.9 90.4 6.9 89.65 7.25
L 89.95 8.4
Q 90.5 8.15 91.35 8.15 92.75 8.15 92.75 9.25 92.4 9.15 92.1 9.15 90.6 9.15 89.8 9.75 89 10.4 89 11.45 89 12.4 89.55 12.9 90.15 13.4 91.15 13.4 91.7 13.4 92.2 13.2 92.7 13 92.9 12.65 92.95 12.95 93.2 13.2 93.5 13.4 93.8 13.4 94.1 13.4 94.3 13.35 94.5 13.25 94.7 12.95 94.2 12.65 94.2 11.4
M 92.75 10.35
L 92.75 10.95
Q 92.75 12.25 91.4 12.25 90.45 12.25 90.45 11.4 90.45 10.25 92.2 10.25 92.35 10.25 92.75 10.35
M 101.3 13.3
L 101.3 4.35 99.85 4.7 99.85 7.2
Q 99.25 6.9 98.55 6.9 97.25 6.9 96.35 7.85 95.5 8.8 95.5 10.25 95.5 11.75 96.25 12.6 97 13.4 98.3 13.4 98.8 13.4 99.2 13.25 99.65 13.1 99.85 12.9
L 99.85 13.3 101.3 13.3
M 98.85 8.15
Q 99.35 8.15 99.85 8.5
L 99.85 11.8
Q 99.75 11.95 99.45 12.05 99.1 12.2 98.9 12.2 97 12.2 97 10.2 97 9.2 97.5 8.7 97.95 8.15 98.85 8.15
M 108.35 19.6
L 108.05 19 107.05 19 107.05 25.3 108.5 25.3 108.5 20.8
Q 108.65 20.55 109 20.35 109.3 20.15 109.6 20.15 110.1 20.15 110.4 20.4 110.65 20.7 110.65 21.15
L 110.65 25.3 112.15 25.3 112.15 20.75
Q 112.25 20.5 112.55 20.35 112.85 20.15 113.2 20.15 114.3 20.15 114.3 21.35
L 114.3 25.3 115.75 25.3 115.75 21.15
Q 115.75 20.1 115.2 19.5 114.6 18.9 113.55 18.9 113.05 18.9 112.55 19.1 112.1 19.3 111.8 19.6 111.15 18.9 109.9 18.9 108.95 18.9 108.35 19.6
M 103.05 24.2
Q 102.25 24.2 101.8 23.8 101.3 23.35 101.25 22.6
L 105.75 22.6
Q 105.85 22.05 105.85 21.8 105.85 20.55 105.05 19.7 104.2 18.9 102.85 18.9 101.55 18.9 100.65 19.85 99.75 20.75 99.75 22.25 99.75 23.75 100.55 24.6 101.4 25.4 102.85 25.4 104.35 25.4 105.15 24.8
L 104.6 23.65
Q 104.05 24.2 103.05 24.2
M 101.3 21.5
Q 101.6 20.15 102.85 20.15 104.25 20.15 104.4 21.5
L 101.3 21.5
M 105.35 6.9
Q 104 6.9 103.15 7.8 102.35 8.7 102.35 10.15 102.35 11.65 103.15 12.55 103.9 13.4 105.35 13.4 106.75 13.4 107.55 12.55 108.35 11.65 108.35 10.15 108.35 8.65 107.55 7.75 106.8 6.9 105.35 6.9
M 104.25 8.65
Q 104.65 8.1 105.35 8.1 106.85 8.1 106.85 10.15 106.85 11.15 106.45 11.7 106.05 12.2 105.35 12.2 103.85 12.2 103.85 10.15 103.85 9.2 104.25 8.65
M 111.75 11.05
Q 112 11.3 112 11.65 112 12.25 111.15 12.25 110.35 12.25 109.7 11.75
L 109.15 12.9
Q 109.75 13.2 110.15 13.3 110.5 13.4 111.15 13.4 112.25 13.4 112.9 12.9 113.55 12.4 113.55 11.55 113.55 10.9 113.15 10.4 112.8 9.95 112 9.65 111.15 9.3 110.9 9.1 110.65 8.9 110.65 8.7 110.65 8.05 111.4 8.05 112.3 8.05 112.75 8.5
L 113.2 7.35
Q 112.3 6.9 111.35 6.9 110.35 6.9 109.75 7.35 109.15 7.8 109.15 8.65 109.15 9.85 110.75 10.5 111.5 10.85 111.75 11.05
M 120.45 4.45
L 118.9 4.45 120.25 6.2 121.45 6.2 120.45 4.45
M 123.1 10.05
Q 123.1 8.2 122.45 7.55 121.75 6.9 120.35 6.9 119.3 6.9 118.55 7.25
L 118.85 8.4
Q 119.4 8.15 120.25 8.15 121.65 8.15 121.65 9.25 121.3 9.15 121 9.15 119.5 9.15 118.7 9.75 117.9 10.4 117.9 11.45 117.9 12.4 118.45 12.9 119.05 13.4 120.05 13.4 120.6 13.4 121.1 13.2 121.6 13 121.8 12.65 121.85 12.95 122.1 13.2 122.4 13.4 122.7 13.4 123 13.4 123.2 13.35 123.4 13.25 123.6 12.95 123.1 12.65 123.1 11.4
L 123.1 10.05
M 121.65 10.35
L 121.65 10.95
Q 121.65 12.25 120.3 12.25 119.35 12.25 119.35 11.4 119.35 10.25 121.1 10.25 121.25 10.25 121.65 10.35 Z"/>
</g>

<path id="Layer0_0_1_STROKES" stroke="#8CA8B8" stroke-width="1" stroke-linejoin="round" stroke-linecap="round" fill="none" d="
M 118.7 0.05
Q 122.8 0.05 125.7 3 128.65 5.9 128.65 10
L 128.65 91.6
Q 128.55 95.55 125.7 98.35 122.8 101.3 118.7 101.3
L 10.05 101.3
Q 5.95 101.3 3.05 98.35 0.25 95.55 0.15 91.6
L 0.15 10
Q 0.15 5.9 3.05 3 5.95 0.05 10.05 0.05
L 118.65 0.05"/>
</defs>

<g transform="matrix( 1, 0, 0, 1, 0,0) ">
<use xlink:href="#Layer0_0_FILL"/>

<use xlink:href="#Layer0_0_1_STROKES"/>
</g>
</svg>
