<svg xmlns="http://www.w3.org/2000/svg" xmlns:xlink="http://www.w3.org/1999/xlink" preserveAspectRatio="none" width="133" height="106" viewBox="0 0 133 106"><defs><g id="a"><path fill="#FFF" d="M694.75 309.85H586.1q-4.1 0-7 2.95-2.9 2.9-2.9 7v81.6q.1 3.95 2.9 6.75 2.9 2.95 7 2.95h108.65q4.1 0 7-2.95 2.85-2.8 2.95-6.75v-81.6q0-4.1-2.95-7-2.9-2.95-7-2.95m-3 12.95q2.95 2.9 2.95 7v66.7h-.55q-.75 2-2.4 3.65-2.9 2.95-7 2.95H596.1q-4.1 0-7-2.95-1.65-1.65-2.35-3.65h-.55v-66.7q0-4.1 2.9-7 2.9-2.95 7-2.95h88.65q4.1 0 7 2.95z"/><path fill="#FC9" d="M694.7 329.8q0-4.1-2.95-7-2.9-2.95-7-2.95H596.1q-4.1 0-7 2.95-2.9 2.9-2.9 7v66.7h.55q.7 2 2.35 3.65 2.9 2.95 7 2.95h88.65q4.1 0 7-2.95 1.65-1.65 2.4-3.65h.55v-66.7m-100.2-6.15q1.7 0 2.6 1.05.9 1.05.9 2.95 0 1.9-.95 3-.9 1.15-2.65 1.15-1.6 0-2.4-1.1-.85-1.15-.85-3.05 0-1.7.9-2.85.9-1.15 2.45-1.15m4.55.1l1.35-.3v2.65q.55-.3 1.2-.3 1.25 0 2 .8.8.8.8 2.05 0 1.45-.8 2.25-.75.85-2.1.85-.8 0-1.35-.4l-.3.4h-.8v-8m8.85 2.15v5.6q0 1.25-.75 1.85-.8.55-2.4.55v-1.2q1.05 0 1.45-.25.35-.25.35-.9V327h-1v-1.1h2.35m.05-1.45q0 .3-.2.55-.25.25-.55.25-.35 0-.55-.25-.25-.25-.25-.55 0-.3.25-.55.2-.25.55-.25.3 0 .55.25.2.25.2.55m2.1 2.2q.85-.85 2-.85 1.25 0 2 .75t.75 1.9q0 .25-.1.75h-4.1q.05.65.45 1.05.45.4 1.2.4.9 0 1.4-.5l.5 1.05q-.7.55-2.1.55-1.3 0-2.1-.75-.75-.8-.75-2.15 0-1.35.85-2.2m9.15 4.95q-.45.15-1.35.15-.85 0-1.3-.5-.45-.45-.45-1.35V327h-.7v-1.1h.7v-1.15l1.3-.5v1.65h1.6v1.1h-1.6v2.5q0 .6.2.85t.7.25q.5 0 .9-.25v1.25m1.4-5q.75-.8 2-.8 1.35 0 2.05.8.75.8.75 2.15 0 1.4-.75 2.2-.75.8-2.05.8-1.3 0-2-.8-.75-.85-.75-2.2 0-1.3.75-2.15m5.5.75q0-.75.55-1.15.6-.4 1.45-.4.9 0 1.7.4l-.4 1.05q-.4-.4-1.2-.4-.7 0-.7.55 0 .25.25.4.2.2.95.5t1.1.7q.35.45.35 1.05 0 .8-.6 1.25-.6.45-1.6.45-.6 0-.95-.1t-.9-.35l.5-1.1q.6.5 1.35.5.8 0 .8-.55 0-.35-.25-.55-.25-.2-.9-.5-1.5-.6-1.5-1.75m13.45 4.3h-1.3v-.35q-.2.2-.6.3-.4.15-.8.15-1.2 0-1.9-.75t-.7-2.15q0-1.35.8-2.2.8-.85 2-.85.65 0 1.2.25v-2.3l1.3-.3v8.2m28.3-4.75q-.75 0-1.25.25l-.3-1.05q.7-.3 1.65-.3 1.3 0 1.9.6.65.6.65 2.25v1.25q0 1.15.45 1.45-.15.25-.35.35-.25.05-.5.05-.3 0-.5-.2-.25-.2-.3-.45-.2.3-.65.45-.45.2-.95.2-.95 0-1.45-.45-.55-.45-.55-1.35 0-.95.75-1.55.75-.55 2.15-.55.2 0 .55.1 0-1.05-1.3-1.05m-7.05-.45q.55-.65 1.6-.65t1.65.6q.55.6.55 1.7v3.55h-1.3v-3.3q0-.75-.3-1.1-.3-.35-.95-.35-.25 0-.6.2-.35.15-.55.4v4.15h-1.3v-5.75h.95l.25.55m-4-2.55q.2-.25.55-.25.3 0 .55.25.2.25.2.55 0 .3-.2.55-.25.25-.55.25-.35 0-.55-.25-.25-.25-.25-.55 0-.3.25-.55m-1.75 3.1h-1.6v2.5q0 .6.2.85t.7.25q.5 0 .9-.25v1.25q-.45.15-1.35.15-.85 0-1.3-.5-.45-.45-.45-1.35V327h-.7v-1.1h.7v-1.15l1.3-.5v1.65h1.6v1.1m1.6 0h-.75v-1.1h2.1v5.75h-1.35V327m-8.45.4q0 .25.25.4.2.2.95.5t1.1.7q.35.45.35 1.05 0 .8-.6 1.25-.6.45-1.6.45-.6 0-.95-.1t-.9-.35l.5-1.1q.6.5 1.35.5.8 0 .8-.55 0-.35-.25-.55-.25-.2-.9-.5-1.5-.6-1.5-1.75 0-.75.55-1.15.6-.4 1.45-.4.9 0 1.7.4l-.4 1.05q-.4-.4-1.2-.4-.7 0-.7.55m37.35 0q0 .25.25.4.2.2.95.5t1.1.7q.35.45.35 1.05 0 .8-.6 1.25-.6.45-1.6.45-.6 0-.95-.1t-.9-.35l.5-1.1q.6.5 1.35.5.8 0 .8-.55 0-.35-.25-.55-.25-.2-.9-.5-1.5-.6-1.5-1.75 0-.75.55-1.15.6-.4 1.45-.4.9 0 1.7.4l-.4 1.05q-.4-.4-1.2-.4-.7 0-.7.55m-4.9-1.6q1.35 0 2.05.8.75.8.75 2.15 0 1.4-.75 2.2-.75.8-2.05.8-1.3 0-2-.8-.75-.85-.75-2.2 0-1.3.75-2.15.75-.8 2-.8m-5 .25v-2.3l1.3-.3v8.2h-1.3v-.35q-.2.2-.6.3-.4.15-.8.15-1.2 0-1.9-.75t-.7-2.15q0-1.35.8-2.2.8-.85 2-.85.65 0 1.2.25m-32.3-.25q1.25 0 2 .75t.75 1.9q0 .25-.1.75h-4.1q.05.65.45 1.05.45.4 1.2.4.9 0 1.4-.5l.5 1.05q-.7.55-2.1.55-1.3 0-2.1-.75-.75-.8-.75-2.15 0-1.35.85-2.2.85-.85 2-.85m-53.7 7.55h1.4l.95 1.55h-1.15l-1.2-1.55m3.85 5.1v1.25q0 1.15.45 1.45-.15.25-.35.35-.25.05-.5.05-.3 0-.5-.2-.25-.2-.3-.45-.2.3-.65.45-.45.2-.95.2-.95 0-1.45-.45-.55-.45-.55-1.35 0-.95.75-1.55.75-.55 2.15-.55.2 0 .55.1 0-1.05-1.3-1.05-.75 0-1.25.25l-.3-1.05q.7-.3 1.65-.3 1.3 0 1.9.6.65.6.65 2.25m30.55-4.9l1.35-.3v6.45q0 1.05.65 1.25-.35.6-1.1.6-.9 0-.9-1.25v-6.75m-8.1-.1q.3 0 .55.25.2.25.2.55 0 .3-.2.55-.25.25-.55.25-.35 0-.55-.25-.25-.25-.25-.55 0-.3.25-.55.2-.25.55-.25m-1.45 2.25h2.1v5.75h-1.35v-4.65h-.75v-1.1m-.75.45l-.6 1q-.45-.45-1.25-.45-.75 0-1.2.5-.45.55-.45 1.4 0 1.85 1.7 1.85.75 0 1.35-.5l.5 1.05q-.6.35-1.05.45-.45.1-1.05.1-1.3 0-2.1-.75-.75-.8-.75-2.2 0-1.35.85-2.15.85-.85 2.3-.85 1 0 1.75.55m-5.6 2.1q0 .25-.1.75h-4.1q.05.65.45 1.05.45.4 1.2.4.9 0 1.4-.5l.5 1.05q-.7.55-2.1.55-1.3 0-2.1-.75-.75-.8-.75-2.15 0-1.35.85-2.2.85-.85 2-.85 1.25 0 2 .75t.75 1.9m18.55 1.5q0-.95.75-1.55.75-.55 2.15-.55.2 0 .55.1 0-1.05-1.3-1.05-.75 0-1.25.25l-.3-1.05q.7-.3 1.65-.3 1.3 0 1.9.6.65.6.65 2.25v1.25q0 1.15.45 1.45-.15.25-.35.35-.25.05-.5.05-.3 0-.5-.2-.25-.2-.3-.45-.2.3-.65.45-.45.2-.95.2-.95 0-1.45-.45-.55-.45-.55-1.35m-8.05-3.3q.85-.85 2.3-.85 1 0 1.75.55l-.6 1q-.45-.45-1.25-.45-.75 0-1.2.5-.45.55-.45 1.4 0 1.85 1.7 1.85.75 0 1.35-.5l.5 1.05q-.6.35-1.05.45-.45.1-1.05.1-1.3 0-2.1-.75-.75-.8-.75-2.2 0-1.35.85-2.15m-19.1-.25q.6-.6 1.5-.6.7 0 1.05.2l-.55 1.15q-.35-.25-.8-.25-.45 0-.8.45-.4.4-.4 1v3.3h-1.3v-5.75h1.3v.5m38-.1l-.65.45q.35.5.35 1.2 0 1-.6 1.6-.6.55-1.5.55h-.4l-.2-.05q-.05 0-.3.15-.25.1-.25.2 0 .25.35.25.2 0 .6-.1.35-.1.65-.1 1.95 0 1.95 1.6 0 .85-.75 1.35-.8.5-1.9.5-1.35 0-2.4-.75l.85-1.05q.7.6 1.55.6.6 0 .95-.15.4-.15.4-.45 0-.55-.85-.55-.2 0-.65.05-.45.1-.7.1-1.35 0-1.35-1 0-.3.2-.6.25-.25.55-.4-1-.6-1-1.8 0-.9.7-1.5.65-.6 1.65-.6.8 0 1.3.25l.55-.6.9.85m51.3 5.35v-3.6q0-1.15-1.05-1.15-.3 0-.55.2-.3.15-.4.4v4.15h-1.35v-3.8q0-.45-.25-.7-.25-.25-.75-.25-.25 0-.55.2-.3.2-.45.4v4.15h-1.3v-5.75h.9l.25.5q.6-.6 1.45-.6 1.15 0 1.75.6.25-.25.7-.45.45-.15.9-.15.95 0 1.5.55t.55 1.5v3.8h-1.35m-27.65-7.9l1.3-.3v8.2h-1.3v-.35q-.2.2-.6.3-.4.15-.8.15-1.2 0-1.9-.75t-.7-2.15q0-1.35.8-2.2.8-.85 2-.85.65 0 1.2.25v-2.3m-9 2.6q.55.55.55 1.5v3.8h-1.35v-3.6q0-1.15-1.05-1.15-.3 0-.55.2-.3.15-.4.4v4.15h-1.35v-3.8q0-.45-.25-.7-.25-.25-.75-.25-.25 0-.55.2-.3.2-.45.4v4.15h-1.3v-5.75h.9l.25.5q.6-.6 1.45-.6 1.15 0 1.75.6.25-.25.7-.45.45-.15.9-.15.95 0 1.5.55m11.25 2.5q0-1.35.85-2.2.85-.85 2-.85 1.25 0 2 .75t.75 1.9q0 .25-.1.75h-4.1q.05.65.45 1.05.45.4 1.2.4.9 0 1.4-.5l.5 1.05q-.7.55-2.1.55-1.3 0-2.1-.75-.75-.8-.75-2.15m12.9-2.2q.85-.85 2-.85 1.25 0 2 .75t.75 1.9q0 .25-.1.75h-4.1q.05.65.45 1.05.45.4 1.2.4.9 0 1.4-.5l.5 1.05q-.7.55-2.1.55-1.3 0-2.1-.75-.75-.8-.75-2.15 0-1.35.85-2.2m-2.6-.75h1.4l-2.65 5.85h-.45l-2.6-5.85h1.45l1.35 3.5 1.5-3.5m-30.1 2.55q0 .25-.1.75h-4.1q.05.65.45 1.05.45.4 1.2.4.9 0 1.4-.5l.5 1.05q-.7.55-2.1.55-1.3 0-2.1-.75-.75-.8-.75-2.15 0-1.35.85-2.2.85-.85 2-.85 1.25 0 2 .75t.75 1.9m-48.2 7.55q.6-.4 1.45-.4.9 0 1.7.4l-.4 1.05q-.4-.4-1.2-.4-.7 0-.7.55 0 .25.25.4.2.2.95.5t1.1.7q.35.45.35 1.05 0 .8-.6 1.25-.6.45-1.6.45-.6 0-.95-.1t-.9-.35l.5-1.1q.6.5 1.35.5.8 0 .8-.55 0-.35-.25-.55-.25-.2-.9-.5-1.5-.6-1.5-1.75 0-.75.55-1.15m7.05-.4q1.25 0 2 .75t.75 1.9q0 .25-.1.75h-4.1q.05.65.45 1.05.45.4 1.2.4.9 0 1.4-.5l.5 1.05q-.7.55-2.1.55-1.3 0-2.1-.75-.75-.8-.75-2.15 0-1.35.85-2.2.85-.85 2-.85m5.15.1v.5q.6-.6 1.5-.6.7 0 1.05.2l-.55 1.15q-.35-.25-.8-.25-.45 0-.8.45-.4.4-.4 1v3.3h-1.3v-5.75h1.3m8.55-.1q.8 0 1.3.25l.55-.6.9.85-.65.45q.35.5.35 1.2 0 1-.6 1.6-.6.55-1.5.55h-.4l-.2-.05q-.05 0-.3.15-.25.1-.25.2 0 .25.35.25.2 0 .6-.1.35-.1.65-.1 1.95 0 1.95 1.6 0 .85-.75 1.35-.8.5-1.9.5-1.35 0-2.4-.75l.85-1.05q.7.6 1.55.6.6 0 .95-.15.4-.15.4-.45 0-.55-.85-.55-.2 0-.65.05-.45.1-.7.1-1.35 0-1.35-1 0-.3.2-.6.25-.25.55-.4-1-.6-1-1.8 0-.9.7-1.5.65-.6 1.65-.6m36.6.25v-2.3l1.3-.3v8.2h-1.3v-.35q-.2.2-.6.3-.4.15-.8.15-1.2 0-1.9-.75t-.7-2.15q0-1.35.8-2.2.8-.85 2-.85.65 0 1.2.25m3 .55q.75-.8 2-.8 1.35 0 2.05.8.75.8.75 2.15 0 1.4-.75 2.2-.75.8-2.05.8-1.3 0-2-.8-.75-.85-.75-2.2 0-1.3.75-2.15m7.5-.8q.9 0 1.7.4l-.4 1.05q-.4-.4-1.2-.4-.7 0-.7.55 0 .25.25.4.2.2.95.5t1.1.7q.35.45.35 1.05 0 .8-.6 1.25-.6.45-1.6.45-.6 0-.95-.1t-.9-.35l.5-1.1q.6.5 1.35.5.8 0 .8-.55 0-.35-.25-.55-.25-.2-.9-.5-1.5-.6-1.5-1.75 0-.75.55-1.15.6-.4 1.45-.4m6.9.85q.85-.85 2-.85 1.25 0 2 .75t.75 1.9q0 .25-.1.75h-4.1q.05.65.45 1.05.45.4 1.2.4.9 0 1.4-.5l.5 1.05q-.7.55-2.1.55-1.3 0-2.1-.75-.75-.8-.75-2.15 0-1.35.85-2.2m-50.35-.75h1.3v3.65q0 1.1 1 1.1.45 0 .85-.25.4-.25.55-.55v-3.95h1.3v5.75h-1.3v-.5q-.3.25-.8.45-.5.15-.9.15-2 0-2-2.1v-3.75m8.35-.1q1.3 0 1.9.6.65.6.65 2.25v1.25q0 1.15.45 1.45-.15.25-.35.35-.25.05-.5.05-.3 0-.5-.2-.25-.2-.3-.45-.2.3-.65.45-.45.2-.95.2-.95 0-1.45-.45-.55-.45-.55-1.35 0-.95.75-1.55.75-.55 2.15-.55.2 0 .55.1 0-1.05-1.3-1.05-.75 0-1.25.25l-.3-1.05q.7-.3 1.65-.3m5.3.1v.5q.6-.6 1.5-.6.7 0 1.05.2l-.55 1.15q-.35-.25-.8-.25-.45 0-.8.45-.4.4-.4 1v3.3h-1.3v-5.75h1.3m7.1-2.15l1.3-.3v8.2h-1.3v-.35q-.2.2-.6.3-.4.15-.8.15-1.2 0-1.9-.75t-.7-2.15q0-1.35.8-2.2.8-.85 2-.85.65 0 1.2.25v-2.3m2.85 2.35q.7-.3 1.65-.3 1.3 0 1.9.6.65.6.65 2.25v1.25q0 1.15.45 1.45-.15.25-.35.35-.25.05-.5.05-.3 0-.5-.2-.25-.2-.3-.45-.2.3-.65.45-.45.2-.95.2-.95 0-1.45-.45-.55-.45-.55-1.35 0-.95.75-1.55.75-.55 2.15-.55.2 0 .55.1 0-1.05-1.3-1.05-.75 0-1.25.25l-.3-1.05m33.5-.2l.25.5q.6-.6 1.45-.6 1.15 0 1.75.6.25-.25.7-.45.45-.15.9-.15.95 0 1.5.55t.55 1.5v3.8h-1.35v-3.6q0-1.15-1.05-1.15-.3 0-.55.2-.3.15-.4.4v4.15h-1.35v-3.8q0-.45-.25-.7-.25-.25-.75-.25-.25 0-.55.2-.3.2-.45.4v4.15h-1.3v-5.75h.9m-14 8.15v1.65h1.6v1.1h-1.6v2.5q0 .6.2.85t.7.25q.5 0 .9-.25V361q-.45.15-1.35.15-.85 0-1.3-.5-.45-.45-.45-1.35v-2.9h-.7v-1.1h.7v-1.15l1.3-.5m-3.4 1.55q.7 0 1.05.2l-.55 1.15q-.35-.25-.8-.25-.45 0-.8.45-.4.4-.4 1v3.3h-1.3v-5.75h1.3v.5q.6-.6 1.5-.6m-8.65.85q.85-.85 2-.85 1.25 0 2 .75t.75 1.9q0 .25-.1.75h-4.1q.05.65.45 1.05.45.4 1.2.4.9 0 1.4-.5l.5 1.05q-.7.55-2.1.55-1.3 0-2.1-.75-.75-.8-.75-2.15 0-1.35.85-2.2m-2.4-.05q.8.8.8 2.05 0 1.45-.8 2.25-.75.85-2.1.85-.8 0-1.35-.4l-.3.4h-.8v-8l1.35-.3v2.65q.55-.3 1.2-.3 1.25 0 2 .8m-43.65-2.85l1.35-.3v6.45q0 1.05.65 1.25-.35.6-1.1.6-.9 0-.9-1.25v-6.75m35.35 2.05q1.35 0 2.05.8.75.8.75 2.15 0 1.4-.75 2.2-.75.8-2.05.8-1.3 0-2-.8-.75-.85-.75-2.2 0-1.3.75-2.15.75-.8 2-.8m-8.4 3q0-1.35.85-2.15.85-.85 2.3-.85 1 0 1.75.55l-.6 1q-.45-.45-1.25-.45-.75 0-1.2.5-.45.55-.45 1.4 0 1.85 1.7 1.85.75 0 1.35-.5l.5 1.05q-.6.35-1.05.45-.45.1-1.05.1-1.3 0-2.1-.75-.75-.8-.75-2.2m-11.8-2.7q.7-.3 1.65-.3 1.3 0 1.9.6.65.6.65 2.25v1.25q0 1.15.45 1.45-.15.25-.35.35-.25.05-.5.05-.3 0-.5-.2-.25-.2-.3-.45-.2.3-.65.45-.45.2-.95.2-.95 0-1.45-.45-.55-.45-.55-1.35 0-.95.75-1.55.75-.55 2.15-.55.2 0 .55.1 0-1.05-1.3-1.05-.75 0-1.25.25l-.3-1.05m-1.35.25l-.6 1q-.45-.45-1.25-.45-.75 0-1.2.5-.45.55-.45 1.4 0 1.85 1.7 1.85.75 0 1.35-.5l.5 1.05q-.6.35-1.05.45-.45.1-1.05.1-1.3 0-2.1-.75-.75-.8-.75-2.2 0-1.35.85-2.15.85-.85 2.3-.85 1 0 1.75.55m7.2-2.6l1.35-.3v6.45q0 1.05.65 1.25-.35.6-1.1.6-.9 0-.9-1.25v-6.75m-15.6 2.05q1.35 0 2.05.8.75.8.75 2.15 0 1.4-.75 2.2-.75.8-2.05.8-1.3 0-2-.8-.75-.85-.75-2.2 0-1.3.75-2.15.75-.8 2-.8m59.95.8q.75.8.75 2.15 0 1.4-.75 2.2-.75.8-2.05.8-1.3 0-2-.8-.75-.85-.75-2.2 0-1.3.75-2.15.75-.8 2-.8 1.35 0 2.05.8m3.7 5.05q-.3.25-.7.25-.4 0-.7-.25-.25-.3-.25-.7 0-.4.25-.7.3-.25.7-.25.4 0 .7.25.25.3.25.7 0 .4-.25.7m-77.15 3.05q-1.2 0-1.85.8-.65.75-.65 2.1 0 1.25.65 2t1.8.75q.75 0 1.2-.4v-1.55h-1.1v-1.2h2.5v3.5q-.5.45-1.3.65-.75.25-1.55.25-1.7 0-2.7-1.1-.95-1.15-.95-2.95 0-1.85 1.05-2.95 1.1-1.15 2.9-1.15 1.3 0 2.2.75l-.55 1.15q-.25-.25-.8-.45-.5-.2-.85-.2m5.5 2q-.75 0-1.25.25l-.3-1.05q.7-.3 1.65-.3 1.3 0 1.9.6.65.6.65 2.25v1.25q0 1.15.45 1.45-.15.25-.35.35-.25.05-.5.05-.3 0-.5-.2-.25-.2-.3-.45-.2.3-.65.45-.45.2-.95.2-.95 0-1.45-.45-.55-.45-.55-1.35 0-.95.75-1.55.75-.55 2.15-.55.2 0 .55.1 0-1.05-1.3-1.05m4.1 4.75v-5.75h1.3v.5q.6-.6 1.5-.6.7 0 1.05.2l-.55 1.15q-.35-.25-.8-.25-.45 0-.8.45-.4.4-.4 1v3.3h-1.3m21.8-3.8q.2 0 .55.1 0-1.05-1.3-1.05-.75 0-1.25.25l-.3-1.05q.7-.3 1.65-.3 1.3 0 1.9.6.65.6.65 2.25v1.25q0 1.15.45 1.45-.15.25-.35.35-.25.05-.5.05-.3 0-.5-.2-.25-.2-.3-.45-.2.3-.65.45-.45.2-.95.2-.95 0-1.45-.45-.55-.45-.55-1.35 0-.95.75-1.55.75-.55 2.15-.55m-17.1-1.95h1.3v.5q.6-.6 1.5-.6.7 0 1.05.2l-.55 1.15q-.35-.25-.8-.25-.45 0-.8.45-.4.4-.4 1v3.3h-1.3v-5.75m6.45 1q-.75 0-1.25.25l-.3-1.05q.7-.3 1.65-.3 1.3 0 1.9.6.65.6.65 2.25v1.25q0 1.15.45 1.45-.15.25-.35.35-.25.05-.5.05-.3 0-.5-.2-.25-.2-.3-.45-.2.3-.65.45-.45.2-.95.2-.95 0-1.45-.45-.55-.45-.55-1.35 0-.95.75-1.55.75-.55 2.15-.55.2 0 .55.1 0-1.05-1.3-1.05m7.7-3.15l-.4 1q-.45-.15-.7-.15-.4 0-.65.35t-.25.8v.15h1.2v1.1h-1.2v4.65h-1.3v-4.65h-.85v-1.1h.85q0-1.05.6-1.7.6-.65 1.5-.65.5 0 1.2.2m5.9 3.6q0-.75.55-1.15.6-.4 1.45-.4.9 0 1.7.4l-.4 1.05q-.4-.4-1.2-.4-.7 0-.7.55 0 .25.25.4.2.2.95.5t1.1.7q.35.45.35 1.05 0 .8-.6 1.25-.6.45-1.6.45-.6 0-.95-.1t-.9-.35l.5-1.1q.6.5 1.35.5.8 0 .8-.55 0-.35-.25-.55-.25-.2-.9-.5-1.5-.6-1.5-1.75m38.8 3.95q-.6.45-1.6.45-.6 0-.95-.1t-.9-.35l.5-1.1q.6.5 1.35.5.8 0 .8-.55 0-.35-.25-.55-.25-.2-.9-.5-1.5-.6-1.5-1.75 0-.75.55-1.15.6-.4 1.45-.4.9 0 1.7.4l-.4 1.05q-.4-.4-1.2-.4-.7 0-.7.55 0 .25.25.4.2.2.95.5t1.1.7q.35.45.35 1.05 0 .8-.6 1.25m4.6-2.55q0-1.3.75-2.15.75-.8 2-.8 1.35 0 2.05.8.75.8.75 2.15 0 1.4-.75 2.2-.75.8-2.05.8-1.3 0-2-.8-.75-.85-.75-2.2m8.65 3q-2 0-2-2.1v-3.75h1.3v3.65q0 1.1 1 1.1.45 0 .85-.25.4-.25.55-.55v-3.95h1.3v5.75h-1.3v-.5q-.3.25-.8.45-.5.15-.9.15m-26.75-7l1.3-.5v1.65h1.6v1.1h-1.6v2.5q0 .6.2.85t.7.25q.5 0 .9-.25v1.25q-.45.15-1.35.15-.85 0-1.3-.5-.45-.45-.45-1.35v-2.9h-.7v-1.1h.7v-1.15m-6.1 6.2q-.75-.85-.75-2.2 0-1.3.75-2.15.75-.8 2-.8 1.35 0 2.05.8.75.8.75 2.15 0 1.4-.75 2.2-.75.8-2.05.8-1.3 0-2-.8m-1.5-2.15q0 1.45-.75 2.2-.75.75-2.1.75-.6 0-1.15-.25v2.4h-1.35v-8h1.35v.4q.5-.5 1.25-.5 2.75 0 2.75 3m14.2 2.95q-1.3 0-2.1-.75-.75-.8-.75-2.15 0-1.35.85-2.2.85-.85 2-.85 1.25 0 2 .75t.75 1.9q0 .25-.1.75h-4.1q.05.65.45 1.05.45.4 1.2.4.9 0 1.4-.5l.5 1.05q-.7.55-2.1.55m-65.55 3.85q1.3 0 1.9.6.65.6.65 2.25v1.25q0 1.15.45 1.45-.15.25-.35.35-.25.05-.5.05-.3 0-.5-.2-.25-.2-.3-.45-.2.3-.65.45-.45.2-.95.2-.95 0-1.45-.45-.55-.45-.55-1.35 0-.95.75-1.55.75-.55 2.15-.55.2 0 .55.1 0-1.05-1.3-1.05-.75 0-1.25.25l-.3-1.05q.7-.3 1.65-.3m-4.9-2.05l1.35-.3v6.45q0 1.05.65 1.25-.35.6-1.1.6-.9 0-.9-1.25v-6.75m44.65-1.65q0-.15-.1-.3-.55-.25-.55-.7 0-.3.3-.5.25-.25.65-.25.35 0 .65.3.3.3.3.65 0 .7-.35 1.25-.3.55-1.45 1.3l-.45-.6q1-.7 1-1.15m11.25 8.05q0-.35-.25-.55-.25-.2-.9-.5-1.5-.6-1.5-1.75 0-.75.55-1.15.6-.4 1.45-.4.9 0 1.7.4l-.4 1.05q-.4-.4-1.2-.4-.7 0-.7.55 0 .25.25.4.2.2.95.5t1.1.7q.35.45.35 1.05 0 .8-.6 1.25-.6.45-1.6.45-.6 0-.95-.1t-.9-.35l.5-1.1q.6.5 1.35.5.8 0 .8-.55m-43.9-3.15h-1.6v2.5q0 .6.2.85t.7.25q.5 0 .9-.25v1.25q-.45.15-1.35.15-.85 0-1.3-.5-.45-.45-.45-1.35V376h-.7v-1.1h.7v-1.15l1.3-.5v1.65h1.6v1.1m1.75.15l-.3-1.05q.7-.3 1.65-.3 1.3 0 1.9.6.65.6.65 2.25v1.25q0 1.15.45 1.45-.15.25-.35.35-.25.05-.5.05-.3 0-.5-.2-.25-.2-.3-.45-.2.3-.65.45-.45.2-.95.2-.95 0-1.45-.45-.55-.45-.55-1.35 0-.95.75-1.55.75-.55 2.15-.55.2 0 .55.1 0-1.05-1.3-1.05-.75 0-1.25.25m19.35-1.05q.7-.3 1.65-.3 1.3 0 1.9.6.65.6.65 2.25v1.25q0 1.15.45 1.45-.15.25-.35.35-.25.05-.5.05-.3 0-.5-.2-.25-.2-.3-.45-.2.3-.65.45-.45.2-.95.2-.95 0-1.45-.45-.55-.45-.55-1.35 0-.95.75-1.55.75-.55 2.15-.55.2 0 .55.1 0-1.05-1.3-1.05-.75 0-1.25.25l-.3-1.05m-2.35-.2h1.4l-2.65 5.85h-.45l-2.6-5.85h1.45l1.35 3.5 1.5-3.5m-10.05-.1q.9 0 1.7.4l-.4 1.05q-.4-.4-1.2-.4-.7 0-.7.55 0 .25.25.4.2.2.95.5t1.1.7q.35.45.35 1.05 0 .8-.6 1.25-.6.45-1.6.45-.6 0-.95-.1t-.9-.35l.5-1.1q.6.5 1.35.5.8 0 .8-.55 0-.35-.25-.55-.25-.2-.9-.5-1.5-.6-1.5-1.75 0-.75.55-1.15.6-.4 1.45-.4m28.85 1.1q-.75 0-1.25.25l-.3-1.05q.7-.3 1.65-.3 1.3 0 1.9.6.65.6.65 2.25v1.25q0 1.15.45 1.45-.15.25-.35.35-.25.05-.5.05-.3 0-.5-.2-.25-.2-.3-.45-.2.3-.65.45-.45.2-.95.2-.95 0-1.45-.45-.55-.45-.55-1.35 0-.95.75-1.55.75-.55 2.15-.55.2 0 .55.1 0-1.05-1.3-1.05m-3.45-3q.2.25.2.55 0 .3-.2.55-.25.25-.55.25-.35 0-.55-.25-.25-.25-.25-.55 0-.3.25-.55.2-.25.55-.25.3 0 .55.25m.1 2v5.75h-1.35V376h-.75v-1.1h2.1m-2.75 0v.45l-3.05 4.15H636v1.15h-5.1v-.45l3.1-4.15h-3.05v-1.15H636m30.2 0h1.45l1.35 3.5 1.5-3.5h1.4l-2.65 5.85h-.45l-2.6-5.85m-5.15.75q.85-.85 2-.85 1.25 0 2 .75t.75 1.9q0 .25-.1.75h-4.1q.05.65.45 1.05.45.4 1.2.4.9 0 1.4-.5l.5 1.05q-.7.55-2.1.55-1.3 0-2.1-.75-.75-.8-.75-2.15 0-1.35.85-2.2m-1.8-3.2v8.2h-1.3v-.35q-.2.2-.6.3-.4.15-.8.15-1.2 0-1.9-.75t-.7-2.15q0-1.35.8-2.2.8-.85 2-.85.65 0 1.2.25v-2.3l1.3-.3M684 376.1q-.3.15-.4.4v4.15h-1.35v-3.8q0-.45-.25-.7-.25-.25-.75-.25-.25 0-.55.2-.3.2-.45.4v4.15h-1.3v-5.75h.9l.25.5q.6-.6 1.45-.6 1.15 0 1.75.6.25-.25.7-.45.45-.15.9-.15.95 0 1.5.55t.55 1.5v3.8h-1.35v-3.6q0-1.15-1.05-1.15-.3 0-.55.2m-8.9-1.3q1.25 0 2 .75t.75 1.9q0 .25-.1.75h-4.1q.05.65.45 1.05.45.4 1.2.4.9 0 1.4-.5l.5 1.05q-.7.55-2.1.55-1.3 0-2.1-.75-.75-.8-.75-2.15 0-1.35.85-2.2.85-.85 2-.85m-83.75 8.75q-.45-.15-.7-.15-.4 0-.65.35t-.25.8v.15h1.2v1.1h-1.2v4.65h-1.3v-4.65h-.85v-1.1h.85q0-1.05.6-1.7.6-.65 1.5-.65.5 0 1.2.2l-.4 1m1.35-.85q.2-.25.55-.25.3 0 .55.25.2.25.2.55 0 .3-.2.55-.25.25-.55.25-.35 0-.55-.25-.25-.25-.25-.55 0-.3.25-.55m2.4 4.9q0-1.35.85-2.15.85-.85 2.3-.85 1 0 1.75.55l-.6 1q-.45-.45-1.25-.45-.75 0-1.2.5-.45.55-.45 1.4 0 1.85 1.7 1.85.75 0 1.35-.5l.5 1.05q-.6.35-1.05.45-.45.1-1.05.1-1.3 0-2.1-.75-.75-.8-.75-2.2m-3.3-1.8v-1.1h2.1v5.75h-1.35v-4.65h-.75m12.4.95q0-1.05-1.3-1.05-.75 0-1.25.25l-.3-1.05q.7-.3 1.65-.3 1.3 0 1.9.6.65.6.65 2.25v1.25q0 1.15.45 1.45-.15.25-.35.35-.25.05-.5.05-.3 0-.5-.2-.25-.2-.3-.45-.2.3-.65.45-.45.2-.95.2-.95 0-1.45-.45-.55-.45-.55-1.35 0-.95.75-1.55.75-.55 2.15-.55.2 0 .55.1m51.35-1.3q.85-.85 2.3-.85 1 0 1.75.55l-.6 1q-.45-.45-1.25-.45-.75 0-1.2.5-.45.55-.45 1.4 0 1.85 1.7 1.85.75 0 1.35-.5l.5 1.05q-.6.35-1.05.45-.45.1-1.05.1-1.3 0-2.1-.75-.75-.8-.75-2.2 0-1.35.85-2.15m-1.55 1.8q0 .25-.1.75h-4.1q.05.65.45 1.05.45.4 1.2.4.9 0 1.4-.5l.5 1.05q-.7.55-2.1.55-1.3 0-2.1-.75-.75-.8-.75-2.15 0-1.35.85-2.2.85-.85 2-.85 1.25 0 2 .75t.75 1.9m2.05 4.8q.15.05.35.05.7 0 .7-.5 0-.15-.1-.35-.1-.15-.25-.2l.45-.45q.95.2.95 1.1 0 .5-.4.8-.35.3-.95.3-.3 0-.55-.05l-.2-.7m9.1-4.6v1.25q0 1.15.45 1.45-.15.25-.35.35-.25.05-.5.05-.3 0-.5-.2-.25-.2-.3-.45-.2.3-.65.45-.45.2-.95.2-.95 0-1.45-.45-.55-.45-.55-1.35 0-.95.75-1.55.75-.55 2.15-.55.2 0 .55.1 0-1.05-1.3-1.05-.75 0-1.25.25l-.3-1.05q.7-.3 1.65-.3 1.3 0 1.9.6.65.6.65 2.25m-58.15 3v-5.75h1.3v.5q.6-.6 1.5-.6.7 0 1.05.2l-.55 1.15q-.35-.25-.8-.25-.45 0-.8.45-.4.4-.4 1v3.3H607m11.7-7.9l1.3-.3v8.2h-1.3v-.35q-.2.2-.6.3-.4.15-.8.15-1.2 0-1.9-.75t-.7-2.15q0-1.35.8-2.2.8-.85 2-.85.65 0 1.2.25v-2.3m5.3 6.9q.9 0 1.4-.5l.5 1.05q-.7.55-2.1.55-1.3 0-2.1-.75-.75-.8-.75-2.15 0-1.35.85-2.2.85-.85 2-.85 1.25 0 2 .75t.75 1.9q0 .25-.1.75h-4.1q.05.65.45 1.05.45.4 1.2.4m18.3-6.9l1.35-.3v2.65q.55-.3 1.2-.3 1.25 0 2 .8.8.8.8 2.05 0 1.45-.8 2.25-.75.85-2.1.85-.8 0-1.35-.4l-.3.4h-.8v-8m-5.2 3.4l-.3-1.05q.7-.3 1.65-.3 1.3 0 1.9.6.65.6.65 2.25v1.25q0 1.15.45 1.45-.15.25-.35.35-.25.05-.5.05-.3 0-.5-.2-.25-.2-.3-.45-.2.3-.65.45-.45.2-.95.2-.95 0-1.45-.45-.55-.45-.55-1.35 0-.95.75-1.55.75-.55 2.15-.55.2 0 .55.1 0-1.05-1.3-1.05-.75 0-1.25.25m-3.45 3.5q.75 0 1.35-.5l.5 1.05q-.6.35-1.05.45-.45.1-1.05.1-1.3 0-2.1-.75-.75-.8-.75-2.2 0-1.35.85-2.15.85-.85 2.3-.85 1 0 1.75.55l-.6 1q-.45-.45-1.25-.45-.75 0-1.2.5-.45.55-.45 1.4 0 1.85 1.7 1.85m14.7 4.95q1.35 0 2.05.8.75.8.75 2.15 0 1.4-.75 2.2-.75.8-2.05.8-1.3 0-2-.8-.75-.85-.75-2.2 0-1.3.75-2.15.75-.8 2-.8m28.1-9.5q.7-.3 1.65-.3 1.3 0 1.9.6.65.6.65 2.25v1.25q0 1.15.45 1.45-.15.25-.35.35-.25.05-.5.05-.3 0-.5-.2-.25-.2-.3-.45-.2.3-.65.45-.45.2-.95.2-.95 0-1.45-.45-.55-.45-.55-1.35 0-.95.75-1.55.75-.55 2.15-.55.2 0 .55.1 0-1.05-1.3-1.05-.75 0-1.25.25l-.3-1.05m-1.35 2.7q0 1.45-.75 2.2-.75.75-2.1.75-.6 0-1.15-.25v2.4h-1.35v-8h1.35v.4q.5-.5 1.25-.5 2.75 0 2.75 3m12.2-1.65l-.3-1.05q.7-.3 1.65-.3 1.3 0 1.9.6.65.6.65 2.25v1.25q0 1.15.45 1.45-.15.25-.35.35-.25.05-.5.05-.3 0-.5-.2-.25-.2-.3-.45-.2.3-.65.45-.45.2-.95.2-.95 0-1.45-.45-.55-.45-.55-1.35 0-.95.75-1.55.75-.55 2.15-.55.2 0 .55.1 0-1.05-1.3-1.05-.75 0-1.25.25m-2.7-.25q-.45 0-.8.45-.4.4-.4 1v3.3h-1.3v-5.75h1.3v.5q.6-.6 1.5-.6.7 0 1.05.2l-.55 1.15q-.35-.25-.8-.25m-58.95 9q.55-.3 1.2-.3 1.25 0 2 .8.8.8.8 2.05 0 1.45-.8 2.25-.75.85-2.1.85-.8 0-1.35-.4l-.3.4h-.8v-8l1.35-.3v2.65m5.35 0q.7-.3 1.65-.3 1.3 0 1.9.6.65.6.65 2.25v1.25q0 1.15.45 1.45-.15.25-.35.35-.25.05-.5.05-.3 0-.5-.2-.25-.2-.3-.45-.2.3-.65.45-.45.2-.95.2-.95 0-1.45-.45-.55-.45-.55-1.35 0-.95.75-1.55.75-.55 2.15-.55.2 0 .55.1 0-1.05-1.3-1.05-.75 0-1.25.25l-.3-1.05m6.7-.85q-.35 0-.55-.25-.25-.25-.25-.55 0-.3.25-.55.2-.25.55-.25.3 0 .55.25.2.25.2.55 0 .3-.2.55-.25.25-.55.25m-.7 1.75h-.75v-1.1h2.1v5.75H637v-4.65m2.4-1.1h1.55l1.2 1.75 1.35-1.75h1.55l-2.2 2.8 2.4 2.95h-1.65l-1.45-1.85-1.35 1.85h-1.55l2.2-2.95-2.05-2.8m14 4.1q.4 0 .7.25.25.3.25.7 0 .4-.25.7-.3.25-.7.25-.4 0-.7-.25-.25-.3-.25-.7 0-.4.25-.7.3-.25.7-.25m-19.55-.5v-.55q-.35-.1-.5-.1-1.6 0-1.6 1.05 0 .8.9.8 1.2 0 1.2-1.2m-7.3-2.55q-.6 0-.9.3v3q.3.35.8.35 1 0 1.4-.45.4-.45.4-1.45 0-1.75-1.7-1.75m63.3-7.25v-.55q-.35-.1-.5-.1-1.6 0-1.6 1.05 0 .8.9.8 1.2 0 1.2-1.2m-18.75-2.2v3.05q.4.25.85.25.95 0 1.35-.4.4-.45.4-1.4 0-1.05-.4-1.45-.4-.4-1.35-.4-.45 0-.85.35m6.1 2.6q0 .8.9.8 1.2 0 1.2-1.2v-.55q-.35-.1-.5-.1-1.6 0-1.6 1.05m-28.85 10.55q.65 0 1-.5.4-.5.4-1.4 0-1.85-1.4-1.85-.6 0-1 .5-.35.45-.35 1.35 0 1.9 1.35 1.9m-8.7-11.5q-.35-.1-.5-.1-1.6 0-1.6 1.05 0 .8.9.8 1.2 0 1.2-1.2v-.55m4.9-2q-.6 0-.9.3v3q.3.35.8.35 1 0 1.4-.45.4-.45.4-1.45 0-1.75-1.7-1.75m-19.35 1.2q-.1-1.25-1.35-1.25-1.15 0-1.45 1.25h2.8m-8.65-.75q-.45.5-.45 1.45 0 1.75 1.75 1.75.2 0 .45-.1.3-.1.4-.2v-3.05q-.45-.3-.9-.3-.85 0-1.25.45m47.25 2.1v-.55q-.35-.1-.5-.1-1.6 0-1.6 1.05 0 .8.9.8 1.2 0 1.2-1.2m-13.95-1.35h2.8q-.1-1.25-1.35-1.25-1.15 0-1.45 1.25m-45.65.8q-.35-.1-.5-.1-1.6 0-1.6 1.05 0 .8.9.8 1.2 0 1.2-1.2v-.55m69.5-10.6h2.8q-.1-1.25-1.35-1.25-1.15 0-1.45 1.25m-16.65-1.2q-.85 0-1.25.45-.45.5-.45 1.45 0 1.75 1.75 1.75.2 0 .45-.1.3-.1.4-.2v-3.05q-.45-.3-.9-.3m6.05-.05q-1.15 0-1.45 1.25h2.8q-.1-1.25-1.35-1.25m-21.8 3q0 .8.9.8 1.2 0 1.2-1.2v-.55q-.35-.1-.5-.1-1.6 0-1.6 1.05m-14.9 0q0 .8.9.8 1.2 0 1.2-1.2v-.55q-.35-.1-.5-.1-1.6 0-1.6 1.05m-17.55-.4v-.55q-.35-.1-.5-.1-1.6 0-1.6 1.05 0 .8.9.8 1.2 0 1.2-1.2m-10.2 0v-.55q-.35-.1-.5-.1-1.6 0-1.6 1.05 0 .8.9.8 1.2 0 1.2-1.2m64.4-12.4q-1.15 0-1.45 1.25h2.8q-.1-1.25-1.35-1.25m-16.05.45q-.4-.4-1.35-.4-.45 0-.85.35v3.05q.4.25.85.25.95 0 1.35-.4.4-.45.4-1.4 0-1.05-.4-1.45m3.95 1.4q0 1.9 1.35 1.9.65 0 1-.5.4-.5.4-1.4 0-1.85-1.4-1.85-.6 0-1 .5-.35.45-.35 1.35m24.95 0q0 1.9 1.35 1.9.65 0 1-.5.4-.5.4-1.4 0-1.85-1.4-1.85-.6 0-1 .5-.35.45-.35 1.35m-59.2 1.15q0 .8.9.8 1.2 0 1.2-1.2v-.55q-.35-.1-.5-.1-1.6 0-1.6 1.05m12-.95q-.35-.1-.5-.1-1.6 0-1.6 1.05 0 .8.9.8 1.2 0 1.2-1.2v-.55m-27.25.95q0 .8.9.8 1.2 0 1.2-1.2v-.55q-.35-.1-.5-.1-1.6 0-1.6 1.05m67.7-9.55q.4-.5.4-1.4 0-1.85-1.4-1.85-.6 0-1 .5-.35.45-.35 1.35 0 1.9 1.35 1.9.65 0 1-.5m-59.9-2.75q-.35.45-.35 1.35 0 1.9 1.35 1.9.65 0 1-.5.4-.5.4-1.4 0-1.85-1.4-1.85-.6 0-1 .5m13.6 1.55q-.35-.1-.5-.1-1.6 0-1.6 1.05 0 .8.9.8 1.2 0 1.2-1.2v-.55m16.35-1.55q-.35.45-.35 1.35 0 1.9 1.35 1.9.65 0 1-.5.4-.5.4-1.4 0-1.85-1.4-1.85-.6 0-1 .5m8.7 1.3q0-1.75-1.7-1.75-.6 0-.9.3v3q.3.35.8.35 1 0 1.4-.45.4-.45.4-1.45m5.05-1.8q-1.15 0-1.45 1.25h2.8q-.1-1.25-1.35-1.25m-6.65-7.75q-.35-.1-.5-.1-1.6 0-1.6 1.05 0 .8.9.8 1.2 0 1.2-1.2v-.55m-7.85-1.55q-.45.5-.45 1.45 0 1.75 1.75 1.75.2 0 .45-.1.3-.1.4-.2v-3.05q-.45-.3-.9-.3-.85 0-1.25.45m-9.05 1.55q-.35-.1-.5-.1-1.6 0-1.6 1.05 0 .8.9.8 1.2 0 1.2-1.2v-.55m42.85-2.05q-1.15 0-1.45 1.25h2.8q-.1-1.25-1.35-1.25m-13.45 3.25q.4-.5.4-1.4 0-1.85-1.4-1.85-.6 0-1 .5-.35.45-.35 1.35 0 1.9 1.35 1.9.65 0 1-.5m-6-2.9q-.45-.3-.9-.3-.85 0-1.25.45-.45.5-.45 1.45 0 1.75 1.75 1.75.2 0 .45-.1.3-.1.4-.2v-3.05m-35.55.65q0-.4-.25-.7-.3-.3-.7-.3-.5 0-.75.25-.3.3-.3.75 0 .55.25.85.3.3.8.3.45 0 .7-.3.25-.3.25-.85m-13.35.25q-.1-1.25-1.35-1.25-1.15 0-1.45 1.25h2.8m35.6-9.8h2.8q-.1-1.25-1.35-1.25-1.15 0-1.45 1.25m40.25 0q-.1-1.25-1.35-1.25-1.15 0-1.45 1.25h2.8m-14.85 0h2.8q-.1-1.25-1.35-1.25-1.15 0-1.45 1.25m-5.85-.75q-.45.5-.45 1.45 0 1.75 1.75 1.75.2 0 .45-.1.3-.1.4-.2v-3.05q-.45-.3-.9-.3-.85 0-1.25.45m-24.15-.5q-.5 0-.75.25-.3.3-.3.75 0 .55.25.85.3.3.8.3.45 0 .7-.3.25-.3.25-.85 0-.4-.25-.7-.3-.3-.7-.3m-4.75 2.05q-.35-.1-.5-.1-1.6 0-1.6 1.05 0 .8.9.8 1.2 0 1.2-1.2v-.55m-26.15-.8h2.8q-.1-1.25-1.35-1.25-1.15 0-1.45 1.25m-11.85 1.35v-.55q-.35-.1-.5-.1-1.6 0-1.6 1.05 0 .8.9.8 1.2 0 1.2-1.2m49.8-11.15h2.8q-.1-1.25-1.35-1.25-1.15 0-1.45 1.25m33.7-.9q-.45-.3-.9-.3-.85 0-1.25.45-.45.5-.45 1.45 0 1.75 1.75 1.75.2 0 .45-.1.3-.1.4-.2v-3.05m5-.35q-.6 0-1 .5-.35.45-.35 1.35 0 1.9 1.35 1.9.65 0 1-.5.4-.5.4-1.4 0-1.85-1.4-1.85m-13.6 3q0 .8.9.8 1.2 0 1.2-1.2v-.55q-.35-.1-.5-.1-1.6 0-1.6 1.05m-28.8.4v-3.05q-.45-.3-.9-.3-.85 0-1.25.45-.45.5-.45 1.45 0 1.75 1.75 1.75.2 0 .45-.1.3-.1.4-.2m-15.65-3.4q-.6 0-1 .5-.35.45-.35 1.35 0 1.9 1.35 1.9.65 0 1-.5.4-.5.4-1.4 0-1.85-1.4-1.85m-9.15 1.25q-.1-1.25-1.35-1.25-1.15 0-1.45 1.25h2.8m-12.15-1.2q-.6 0-.9.3v3q.3.35.8.35 1 0 1.4-.45.4-.45.4-1.45 0-1.75-1.7-1.75m-8.2-1.3q-.5.75-.5 2 0 1.4.45 2.15t1.35.75q1.05 0 1.6-.75t.55-2.15q0-2.75-2.05-2.75-.9 0-1.4.75z"/></g><path d="M640.95 394.5h-1.55l2.05 2.8-2.2 2.95h1.55l1.35-1.85 1.45 1.85h1.65l-2.4-2.95 2.2-2.8h-1.55l-1.35 1.75-1.2-1.75m-4.7 1.1h.75v4.65h1.35v-5.75h-2.1v1.1m.9-2q.2.25.55.25.3 0 .55-.25.2-.25.2-.55 0-.3-.2-.55-.25-.25-.55-.25-.35 0-.55.25-.25.25-.25.55 0 .3.25.55m-4.5.8q-.95 0-1.65.3l.3 1.05q.5-.25 1.25-.25 1.3 0 1.3 1.05-.35-.1-.55-.1-1.4 0-2.15.55-.75.6-.75 1.55 0 .9.55 1.35.5.45 1.45.45.5 0 .95-.2.45-.15.65-.45.05.25.3.45.2.2.5.2.25 0 .5-.05.2-.1.35-.35-.45-.3-.45-1.45v-1.25q0-1.65-.65-2.25-.6-.6-1.9-.6m1.2 3.15v.55q0 1.2-1.2 1.2-.9 0-.9-.8 0-1.05 1.6-1.05.15 0 .5.1m1.15-8.6q-.6.5-1.35.5-1.7 0-1.7-1.85 0-.85.45-1.4.45-.5 1.2-.5.8 0 1.25.45l.6-1q-.75-.55-1.75-.55-1.45 0-2.3.85-.85.8-.85 2.15 0 1.4.75 2.2.8.75 2.1.75.6 0 1.05-.1.45-.1 1.05-.45l-.5-1.05m1.8-4.05l.3 1.05q.5-.25 1.25-.25 1.3 0 1.3 1.05-.35-.1-.55-.1-1.4 0-2.15.55-.75.6-.75 1.55 0 .9.55 1.35.5.45 1.45.45.5 0 .95-.2.45-.15.65-.45.05.25.3.45.2.2.5.2.25 0 .5-.05.2-.1.35-.35-.45-.3-.45-1.45v-1.25q0-1.65-.65-2.25-.6-.6-1.9-.6-.95 0-1.65.3m2.35 2.75q.15 0 .5.1v.55q0 1.2-1.2 1.2-.9 0-.9-.8 0-1.05 1.6-1.05m-3.15-12.3v-.45h-5.05v1.15H634l-3.1 4.15v.45h5.1v-1.15h-3.05l3.05-4.15m2.75 5.3v-5.75h-2.1v1.1h.75v4.65h1.35m4.9 1.6l-1.35.3v8h.8l.3-.4q.55.4 1.35.4 1.35 0 2.1-.85.8-.8.8-2.25 0-1.25-.8-2.05-.75-.8-2-.8-.65 0-1.2.3v-2.65m0 3.8q.3-.3.9-.3 1.7 0 1.7 1.75 0 1-.4 1.45-.4.45-1.4.45-.5 0-.8-.35v-3m-4.8-12.6q0-.3-.2-.55-.25-.25-.55-.25-.35 0-.55.25-.25.25-.25.55 0 .3.25.55.2.25.55.25.3 0 .55-.25.2-.25.2-.55m2 2.7q.5-.25 1.25-.25 1.3 0 1.3 1.05-.35-.1-.55-.1-1.4 0-2.15.55-.75.6-.75 1.55 0 .9.55 1.35.5.45 1.45.45.5 0 .95-.2.45-.15.65-.45.05.25.3.45.2.2.5.2.25 0 .5-.05.2-.1.35-.35-.45-.3-.45-1.45v-1.25q0-1.65-.65-2.25-.6-.6-1.9-.6-.95 0-1.65.3l.3 1.05m1.35 3.55q-.9 0-.9-.8 0-1.05 1.6-1.05.15 0 .5.1v.55q0 1.2-1.2 1.2m-15.35 14.7q-.65 0-1.2.3v-2.65l-1.35.3v8h.8l.3-.4q.55.4 1.35.4 1.35 0 2.1-.85.8-.8.8-2.25 0-1.25-.8-2.05-.75-.8-2-.8m-1.2 1.45q.3-.3.9-.3 1.7 0 1.7 1.75 0 1-.4 1.45-.4.45-1.4.45-.5 0-.8-.35v-3m-.25-6.9q-.5.5-1.4.5-.75 0-1.2-.4-.4-.4-.45-1.05h4.1q.1-.5.1-.75 0-1.15-.75-1.9t-2-.75q-1.15 0-2 .85-.85.85-.85 2.2t.75 2.15q.8.75 2.1.75 1.4 0 2.1-.55l-.5-1.05m-1.55-3.25q1.25 0 1.35 1.25h-2.8q.3-1.25 1.45-1.25m-8.9-10.5q-.8-.4-1.7-.4-.85 0-1.45.4-.55.4-.55 1.15 0 1.15 1.5 1.75.65.3.9.5t.25.55q0 .55-.8.55-.75 0-1.35-.5l-.5 1.1q.55.25.9.35.35.1.95.1 1 0 1.6-.45.6-.45.6-1.25 0-.6-.35-1.05-.35-.4-1.1-.7-.75-.3-.95-.5-.25-.15-.25-.4 0-.55.7-.55.8 0 1.2.4l.4-1.05m5.05 7.05l-1.3.3v2.3q-.55-.25-1.2-.25-1.2 0-2 .85t-.8 2.2q0 1.4.7 2.15t1.9.75q.4 0 .8-.15.4-.1.6-.3v.35h1.3v-8.2m-3.9 5.4q0-.95.45-1.45.4-.45 1.25-.45.45 0 .9.3v3.05q-.1.1-.4.2-.25.1-.45.1-1.75 0-1.75-1.75m8.6-12.75h-1.4l-1.5 3.5-1.35-3.5H619l2.6 5.85h.45l2.65-5.85m2.6-.1q-.95 0-1.65.3l.3 1.05q.5-.25 1.25-.25 1.3 0 1.3 1.05-.35-.1-.55-.1-1.4 0-2.15.55-.75.6-.75 1.55 0 .9.55 1.35.5.45 1.45.45.5 0 .95-.2.45-.15.65-.45.05.25.3.45.2.2.5.2.25 0 .5-.05.2-.1.35-.35-.45-.3-.45-1.45v-1.25q0-1.65-.65-2.25-.6-.6-1.9-.6m0 4.9q-.9 0-.9-.8 0-1.05 1.6-1.05.15 0 .5.1v.55q0 1.2-1.2 1.2m-2.5-15.75l.4-1q-.7-.2-1.2-.2-.9 0-1.5.65t-.6 1.7h-.85v1.1h.85v4.65h1.3v-4.65h1.2v-1.1h-1.2v-.15q0-.45.25-.8.25-.35.65-.35.25 0 .7.15m-8.55 2.4q.5-.25 1.25-.25 1.3 0 1.3 1.05-.35-.1-.55-.1-1.4 0-2.15.55-.75.6-.75 1.55 0 .9.55 1.35.5.45 1.45.45.5 0 .95-.2.45-.15.65-.45.05.25.3.45.2.2.5.2.25 0 .5-.05.2-.1.35-.35-.45-.3-.45-1.45v-1.25q0-1.65-.65-2.25-.6-.6-1.9-.6-.95 0-1.65.3l.3 1.05m1.35 3.55q-.9 0-.9-.8 0-1.05 1.6-1.05.15 0 .5.1v.55q0 1.2-1.2 1.2m-5.25-4.8h-1.3v5.75h1.3v-3.3q0-.6.4-1 .35-.45.8-.45.45 0 .8.25l.55-1.15q-.35-.2-1.05-.2-.9 0-1.5.6v-.5m-.05-9.1q-.7-.8-2.05-.8-1.25 0-2 .8-.75.85-.75 2.15 0 1.35.75 2.2.7.8 2 .8t2.05-.8q.75-.8.75-2.2 0-1.35-.75-2.15m-3.4 2.15q0-.9.35-1.35.4-.5 1-.5 1.4 0 1.4 1.85 0 .9-.4 1.4-.35.5-1 .5-1.35 0-1.35-1.9m18.3-5.3l-1.35.3v6.75q0 1.25.9 1.25.75 0 1.1-.6-.65-.2-.65-1.25v-6.45m-9.15 3.9l.6-1q-.75-.55-1.75-.55-1.45 0-2.3.85-.85.8-.85 2.15 0 1.4.75 2.2.8.75 2.1.75.6 0 1.05-.1.45-.1 1.05-.45l-.5-1.05q-.6.5-1.35.5-1.7 0-1.7-1.85 0-.85.45-1.4.45-.5 1.2-.5.8 0 1.25.45m3.6-1.55q-.95 0-1.65.3l.3 1.05q.5-.25 1.25-.25 1.3 0 1.3 1.05-.35-.1-.55-.1-1.4 0-2.15.55-.75.6-.75 1.55 0 .9.55 1.35.5.45 1.45.45.5 0 .95-.2.45-.15.65-.45.05.25.3.45.2.2.5.2.25 0 .5-.05.2-.1.35-.35-.45-.3-.45-1.45v-1.25q0-1.65-.65-2.25-.6-.6-1.9-.6m.7 3.05q.15 0 .5.1v.55q0 1.2-1.2 1.2-.9 0-.9-.8 0-1.05 1.6-1.05m14.2 11.85q0 .45.55.7.1.15.1.3 0 .45-1 1.15l.45.6q1.15-.75 1.45-1.3.35-.55.35-1.25 0-.35-.3-.65-.3-.3-.65-.3-.4 0-.65.25-.3.2-.3.5m-7.85-2.95q-.35-.1-.55-.1-1.4 0-2.15.55-.75.6-.75 1.55 0 .9.55 1.35.5.45 1.45.45.5 0 .95-.2.45-.15.65-.45.05.25.3.45.2.2.5.2.25 0 .5-.05.2-.1.35-.35-.45-.3-.45-1.45v-1.25q0-1.65-.65-2.25-.6-.6-1.9-.6-.95 0-1.65.3l.3 1.05q.5-.25 1.25-.25 1.3 0 1.3 1.05m-.5.9q.15 0 .5.1v.55q0 1.2-1.2 1.2-.9 0-.9-.8 0-1.05 1.6-1.05m3.45-2.65q-.55.4-.55 1.15 0 1.15 1.5 1.75.65.3.9.5t.25.55q0 .55-.8.55-.75 0-1.35-.5l-.5 1.1q.55.25.9.35.35.1.95.1 1 0 1.6-.45.6-.45.6-1.25 0-.6-.35-1.05-.35-.4-1.1-.7-.75-.3-.95-.5-.25-.15-.25-.4 0-.55.7-.55.8 0 1.2.4l.4-1.05q-.8-.4-1.7-.4-.85 0-1.45.4m1-9.35q-.85.8-.85 2.15 0 1.4.75 2.2.8.75 2.1.75.6 0 1.05-.1.45-.1 1.05-.45l-.5-1.05q-.6.5-1.35.5-1.7 0-1.7-1.85 0-.85.45-1.4.45-.5 1.2-.5.8 0 1.25.45l.6-1q-.75-.55-1.75-.55-1.45 0-2.3.85m9.6-.05q-.7-.8-2.05-.8-1.25 0-2 .8-.75.85-.75 2.15 0 1.35.75 2.2.7.8 2 .8t2.05-.8q.75-.8.75-2.2 0-1.35-.75-2.15m-3.4 2.15q0-.9.35-1.35.4-.5 1-.5 1.4 0 1.4 1.85 0 .9-.4 1.4-.35.5-1 .5-1.35 0-1.35-1.9M607 384.7v5.75h1.3v-3.3q0-.6.4-1 .35-.45.8-.45.45 0 .8.25l.55-1.15q-.35-.2-1.05-.2-.9 0-1.5.6v-.5H607m-4.1 1q1.3 0 1.3 1.05-.35-.1-.55-.1-1.4 0-2.15.55-.75.6-.75 1.55 0 .9.55 1.35.5.45 1.45.45.5 0 .95-.2.45-.15.65-.45.05.25.3.45.2.2.5.2.25 0 .5-.05.2-.1.35-.35-.45-.3-.45-1.45v-1.25q0-1.65-.65-2.25-.6-.6-1.9-.6-.95 0-1.65.3l.3 1.05q.5-.25 1.25-.25m.8 1.95q.15 0 .5.1v.55q0 1.2-1.2 1.2-.9 0-.9-.8 0-1.05 1.6-1.05m-11.9-2.95v1.1h.75v4.65h1.35v-5.75h-2.1m4.15.75q-.85.8-.85 2.15 0 1.4.75 2.2.8.75 2.1.75.6 0 1.05-.1.45-.1 1.05-.45l-.5-1.05q-.6.5-1.35.5-1.7 0-1.7-1.85 0-.85.45-1.4.45-.5 1.2-.5.8 0 1.25.45l.6-1q-.75-.55-1.75-.55-1.45 0-2.3.85m-2.7-3q-.35 0-.55.25-.25.25-.25.55 0 .3.25.55.2.25.55.25.3 0 .55-.25.2-.25.2-.55 0-.3-.2-.55-.25-.25-.55-.25m-2.6.95q.25 0 .7.15l.4-1q-.7-.2-1.2-.2-.9 0-1.5.65t-.6 1.7h-.85v1.1h.85v4.65h1.3v-4.65h1.2v-1.1h-1.2v-.15q0-.45.25-.8.25-.35.65-.35m3.25-10.95l-1.35.3v6.75q0 1.25.9 1.25.75 0 1.1-.6-.65-.2-.65-1.25v-6.45m5.45 2.95q-.6-.6-1.9-.6-.95 0-1.65.3l.3 1.05q.5-.25 1.25-.25 1.3 0 1.3 1.05-.35-.1-.55-.1-1.4 0-2.15.55-.75.6-.75 1.55 0 .9.55 1.35.5.45 1.45.45.5 0 .95-.2.45-.15.65-.45.05.25.3.45.2.2.5.2.25 0 .5-.05.2-.1.35-.35-.45-.3-.45-1.45v-1.25q0-1.65-.65-2.25m-.7 2.55v.55q0 1.2-1.2 1.2-.9 0-.9-.8 0-1.05 1.6-1.05.15 0 .5.1m7.35-2.85l.3 1.05q.5-.25 1.25-.25 1.3 0 1.3 1.05-.35-.1-.55-.1-1.4 0-2.15.55-.75.6-.75 1.55 0 .9.55 1.35.5.45 1.45.45.5 0 .95-.2.45-.15.65-.45.05.25.3.45.2.2.5.2.25 0 .5-.05.2-.1.35-.35-.45-.3-.45-1.45v-1.25q0-1.65-.65-2.25-.6-.6-1.9-.6-.95 0-1.65.3m2.85 2.85v.55q0 1.2-1.2 1.2-.9 0-.9-.8 0-1.05 1.6-1.05.15 0 .5.1m-5.9-1.95h1.6v-1.1h-1.6v-1.65l-1.3.5v1.15h-.7v1.1h.7v2.9q0 .9.45 1.35.45.5 1.3.5.9 0 1.35-.15v-1.25q-.4.25-.9.25t-.7-.25q-.2-.25-.2-.85V376m3.4-10.9v5.75h1.3v-3.3q0-.6.4-1 .35-.45.8-.45.45 0 .8.25l.55-1.15q-.35-.2-1.05-.2-.9 0-1.5.6v-.5h-1.3m-5.35 1.25q.5-.25 1.25-.25 1.3 0 1.3 1.05-.35-.1-.55-.1-1.4 0-2.15.55-.75.6-.75 1.55 0 .9.55 1.35.5.45 1.45.45.5 0 .95-.2.45-.15.65-.45.05.25.3.45.2.2.5.2.25 0 .5-.05.2-.1.35-.35-.45-.3-.45-1.45v-1.25q0-1.65-.65-2.25-.6-.6-1.9-.6-.95 0-1.65.3l.3 1.05m1.35 3.55q-.9 0-.9-.8 0-1.05 1.6-1.05.15 0 .5.1v.55q0 1.2-1.2 1.2m-7.45-5q.65-.8 1.85-.8.35 0 .85.2.55.2.8.45l.55-1.15q-.9-.75-2.2-.75-1.8 0-2.9 1.15-1.05 1.1-1.05 2.95 0 1.8.95 2.95 1 1.1 2.7 1.1.8 0 1.55-.25.8-.2 1.3-.65v-3.5h-2.5v1.2h1.1v1.55q-.45.4-1.2.4-1.15 0-1.8-.75-.65-.75-.65-2 0-1.35.65-2.1m11.3-12.05l-1.35.3v6.75q0 1.25.9 1.25.75 0 1.1-.6-.65-.2-.65-1.25v-6.45m-1.7-6.7q-.75-.75-2-.75-1.15 0-2 .85-.85.85-.85 2.2t.75 2.15q.8.75 2.1.75 1.4 0 2.1-.55l-.5-1.05q-.5.5-1.4.5-.75 0-1.2-.4-.4-.4-.45-1.05h4.1q.1-.5.1-.75 0-1.15-.75-1.9m-1.95.35q1.25 0 1.35 1.25h-2.8q.3-1.25 1.45-1.25m-3-10.3v-.5h-1.3v5.75h1.3v-3.3q0-.6.4-1 .35-.45.8-.45.45 0 .8.25l.55-1.15q-.35-.2-1.05-.2-.9 0-1.5.6m-2.65 9.2q-.85 0-1.45.4-.55.4-.55 1.15 0 1.15 1.5 1.75.65.3.9.5t.25.55q0 .55-.8.55-.75 0-1.35-.5l-.5 1.1q.55.25.9.35.35.1.95.1 1 0 1.6-.45.6-.45.6-1.25 0-.6-.35-1.05-.35-.4-1.1-.7-.75-.3-.95-.5-.25-.15-.25-.4 0-.55.7-.55.8 0 1.2.4l.4-1.05q-.8-.4-1.7-.4m-3.4-5.7v-1.25q0-1.65-.65-2.25-.6-.6-1.9-.6-.95 0-1.65.3l.3 1.05q.5-.25 1.25-.25 1.3 0 1.3 1.05-.35-.1-.55-.1-1.4 0-2.15.55-.75.6-.75 1.55 0 .9.55 1.35.5.45 1.45.45.5 0 .95-.2.45-.15.65-.45.05.25.3.45.2.2.5.2.25 0 .5-.05.2-.1.35-.35-.45-.3-.45-1.45m-1.35-.95v.55q0 1.2-1.2 1.2-.9 0-.9-.8 0-1.05 1.6-1.05.15 0 .5.1m-1.1-5.4h-1.4l1.2 1.55H592l-.95-1.55m6.05-8.65q-.9-1.05-2.6-1.05-1.55 0-2.45 1.15-.9 1.15-.9 2.85 0 1.9.85 3.05.8 1.1 2.4 1.1 1.75 0 2.65-1.15.95-1.1.95-3t-.9-2.95m-4.5 2.95q0-1.25.5-2t1.4-.75q2.05 0 2.05 2.75 0 1.4-.55 2.15t-1.6.75q-.9 0-1.35-.75-.45-.75-.45-2.15m7.8-1.55v-2.65l-1.35.3v8h.8l.3-.4q.55.4 1.35.4 1.35 0 2.1-.85.8-.8.8-2.25 0-1.25-.8-2.05-.75-.8-2-.8-.65 0-1.2.3m0 1.15q.3-.3.9-.3 1.7 0 1.7 1.75 0 1-.4 1.45-.4.45-1.4.45-.5 0-.8-.35v-3m44.7 18.15q-.95 0-1.65.3l.3 1.05q.5-.25 1.25-.25 1.3 0 1.3 1.05-.35-.1-.55-.1-1.4 0-2.15.55-.75.6-.75 1.55 0 .9.55 1.35.5.45 1.45.45.5 0 .95-.2.45-.15.65-.45.05.25.3.45.2.2.5.2.25 0 .5-.05.2-.1.35-.35-.45-.3-.45-1.45v-1.25q0-1.65-.65-2.25-.6-.6-1.9-.6m.7 3.05q.15 0 .5.1v.55q0 1.2-1.2 1.2-.9 0-.9-.8 0-1.05 1.6-1.05m-3.9-5.4l-1.3.3v2.3q-.55-.25-1.2-.25-1.2 0-2 .85t-.8 2.2q0 1.4.7 2.15t1.9.75q.4 0 .8-.15.4-.1.6-.3v.35h1.3v-8.2m-3.9 5.4q0-.95.45-1.45.4-.45 1.25-.45.45 0 .9.3v3.05q-.1.1-.4.2-.25.1-.45.1-1.75 0-1.75-1.75m5.55-9.45q.1-.5.1-.75 0-1.15-.75-1.9t-2-.75q-1.15 0-2 .85-.85.85-.85 2.2t.75 2.15q.8.75 2.1.75 1.4 0 2.1-.55l-.5-1.05q-.5.5-1.4.5-.75 0-1.2-.4-.4-.4-.45-1.05h4.1m-1.25-1.05h-2.8q.3-1.25 1.45-1.25 1.25 0 1.35 1.25m-8.8 8.05v-.5h-1.3v5.75h1.3v-3.3q0-.6.4-1 .35-.45.8-.45.45 0 .8.25l.55-1.15q-.35-.2-1.05-.2-.9 0-1.5.6m-3.4 0q-.6-.6-1.9-.6-.95 0-1.65.3l.3 1.05q.5-.25 1.25-.25 1.3 0 1.3 1.05-.35-.1-.55-.1-1.4 0-2.15.55-.75.6-.75 1.55 0 .9.55 1.35.5.45 1.45.45.5 0 .95-.2.45-.15.65-.45.05.25.3.45.2.2.5.2.25 0 .5-.05.2-.1.35-.35-.45-.3-.45-1.45v-1.25q0-1.65-.65-2.25m-1.2 2.45q.15 0 .5.1v.55q0 1.2-1.2 1.2-.9 0-.9-.8 0-1.05 1.6-1.05m8-11.9l.65-.45-.9-.85-.55.6q-.5-.25-1.3-.25-1 0-1.65.6-.7.6-.7 1.5 0 1.2 1 1.8-.3.15-.55.4-.2.3-.2.6 0 1 1.35 1 .25 0 .7-.1.45-.05.65-.05.85 0 .85.55 0 .3-.4.45-.35.15-.95.15-.85 0-1.55-.6l-.85 1.05q1.05.75 2.4.75 1.1 0 1.9-.5.75-.5.75-1.35 0-1.6-1.95-1.6-.3 0-.65.1-.4.1-.6.1-.35 0-.35-.25 0-.1.25-.2.25-.15.3-.15l.2.05h.4q.9 0 1.5-.55.6-.6.6-1.6 0-.7-.35-1.2m-2.75.4q.25-.25.75-.25.4 0 .7.3.25.3.25.7 0 .55-.25.85-.25.3-.7.3-.5 0-.8-.3-.25-.3-.25-.85 0-.45.3-.75m4.1-13.2v2.3q-.55-.25-1.2-.25-1.2 0-2 .85t-.8 2.2q0 1.4.7 2.15t1.9.75q.4 0 .8-.15.4-.1.6-.3v.35h1.3v-8.2l-1.3.3m0 3.5v3.05q-.1.1-.4.2-.25.1-.45.1-1.75 0-1.75-1.75 0-.95.45-1.45.4-.45 1.25-.45.45 0 .9.3m7.1-.7q-.75-.75-2-.75-1.15 0-2 .85-.85.85-.85 2.2t.75 2.15q.8.75 2.1.75 1.4 0 2.1-.55l-.5-1.05q-.5.5-1.4.5-.75 0-1.2-.4-.4-.4-.45-1.05h4.1q.1-.5.1-.75 0-1.15-.75-1.9m-.6 1.6h-2.8q.3-1.25 1.45-1.25 1.25 0 1.35 1.25m-23.6 17.35h-1.3v3.75q0 2.1 2 2.1.4 0 .9-.15.5-.2.8-.45v.5h1.3v-5.75h-1.3v3.95q-.15.3-.55.55-.4.25-.85.25-1 0-1-1.1v-3.65m-.2-9.9q-1.45 0-2.3.85-.85.8-.85 2.15 0 1.4.75 2.2.8.75 2.1.75.6 0 1.05-.1.45-.1 1.05-.45l-.5-1.05q-.6.5-1.35.5-1.7 0-1.7-1.85 0-.85.45-1.4.45-.5 1.2-.5.8 0 1.25.45l.6-1q-.75-.55-1.75-.55m6.5 2.6q-.75.6-.75 1.55 0 .9.55 1.35.5.45 1.45.45.5 0 .95-.2.45-.15.65-.45.05.25.3.45.2.2.5.2.25 0 .5-.05.2-.1.35-.35-.45-.3-.45-1.45v-1.25q0-1.65-.65-2.25-.6-.6-1.9-.6-.95 0-1.65.3l.3 1.05q.5-.25 1.25-.25 1.3 0 1.3 1.05-.35-.1-.55-.1-1.4 0-2.15.55m2.2.45q.15 0 .5.1v.55q0 1.2-1.2 1.2-.9 0-.9-.8 0-1.05 1.6-1.05m-12.15 7q-.5-.25-1.3-.25-1 0-1.65.6-.7.6-.7 1.5 0 1.2 1 1.8-.3.15-.55.4-.2.3-.2.6 0 1 1.35 1 .25 0 .7-.1.45-.05.65-.05.85 0 .85.55 0 .3-.4.45-.35.15-.95.15-.85 0-1.55-.6l-.85 1.05q1.05.75 2.4.75 1.1 0 1.9-.5.75-.5.75-1.35 0-1.6-1.95-1.6-.3 0-.65.1-.4.1-.6.1-.35 0-.35-.25 0-.1.25-.2.25-.15.3-.15l.2.05h.4q.9 0 1.5-.55.6-.6.6-1.6 0-.7-.35-1.2l.65-.45-.9-.85-.55.6m-.5 1.15q.25.3.25.7 0 .55-.25.85-.25.3-.7.3-.5 0-.8-.3-.25-.3-.25-.85 0-.45.3-.75.25-.25.75-.25.4 0 .7.3m-9.35-.8v-.5h-1.3v5.75h1.3v-3.3q0-.6.4-1 .35-.45.8-.45.45 0 .8.25l.55-1.15q-.35-.2-1.05-.2-.9 0-1.5.6m.4-7q.1-.5.1-.75 0-1.15-.75-1.9t-2-.75q-1.15 0-2 .85-.85.85-.85 2.2t.75 2.15q.8.75 2.1.75 1.4 0 2.1-.55l-.5-1.05q-.5.5-1.4.5-.75 0-1.2-.4-.4-.4-.45-1.05h4.1m-1.25-1.05H604q.3-1.25 1.45-1.25 1.25 0 1.35 1.25m6.35-.8l.6-1q-.75-.55-1.75-.55-1.45 0-2.3.85-.85.8-.85 2.15 0 1.4.75 2.2.8.75 2.1.75.6 0 1.05-.1.45-.1 1.05-.45l-.5-1.05q-.6.5-1.35.5-1.7 0-1.7-1.85 0-.85.45-1.4.45-.5 1.2-.5.8 0 1.25.45m3.45-1.45h-2.1v1.1h.75v4.65h1.35v-5.75m-8.7-4.2v-5.6h-2.35v1.1h1v4.55q0 .65-.35.9-.4.25-1.45.25v1.2q1.6 0 2.4-.55.75-.6.75-1.85m8.6 2.2q-.25-.25-.55-.25-.35 0-.55.25-.25.25-.25.55 0 .3.25.55.2.25.55.25.3 0 .55-.25.2-.25.2-.55 0-.3-.2-.55m-4.45-7.9q-1.15 0-2 .85-.85.85-.85 2.2t.75 2.15q.8.75 2.1.75 1.4 0 2.1-.55l-.5-1.05q-.5.5-1.4.5-.75 0-1.2-.4-.4-.4-.45-1.05h4.1q.1-.5.1-.75 0-1.15-.75-1.9t-2-.75m.05 1.1q1.25 0 1.35 1.25h-2.8q.3-1.25 1.45-1.25m-4.15-2.45q0-.3-.2-.55-.25-.25-.55-.25-.35 0-.55.25-.25.25-.25.55 0 .3.25.55.2.25.55.25.3 0 .55-.25.2-.25.2-.55m17.45 8.8l-1.35.3v6.75q0 1.25.9 1.25.75 0 1.1-.6-.65-.2-.65-1.25v-6.45m-2.8-7.45q-1.25 0-2 .8-.75.85-.75 2.15 0 1.35.75 2.2.7.8 2 .8t2.05-.8q.75-.8.75-2.2 0-1.35-.75-2.15-.7-.8-2.05-.8m-1 1.6q.4-.5 1-.5 1.4 0 1.4 1.85 0 .9-.4 1.4-.35.5-1 .5-1.35 0-1.35-1.9 0-.9.35-1.35m-2.6-.4v-1.1h-1.6v-1.65l-1.3.5v1.15h-.7v1.1h.7v2.9q0 .9.45 1.35.45.5 1.3.5.9 0 1.35-.15v-1.25q-.4.25-.9.25t-.7-.25q-.2-.25-.2-.85V327h1.6m7.65-.8q-.55.4-.55 1.15 0 1.15 1.5 1.75.65.3.9.5t.25.55q0 .55-.8.55-.75 0-1.35-.5l-.5 1.1q.55.25.9.35.35.1.95.1 1 0 1.6-.45.6-.45.6-1.25 0-.6-.35-1.05-.35-.4-1.1-.7-.75-.3-.95-.5-.25-.15-.25-.4 0-.55.7-.55.8 0 1.2.4l.4-1.05q-.8-.4-1.7-.4-.85 0-1.45.4m27.45 72.65q-.3-.25-.7-.25-.4 0-.7.25-.25.3-.25.7 0 .4.25.7.3.25.7.25.4 0 .7-.25.25-.3.25-.7 0-.4-.25-.7m29.7-12.7q.35-.45.8-.45.45 0 .8.25l.55-1.15q-.35-.2-1.05-.2-.9 0-1.5.6v-.5h-1.3v5.75h1.3v-3.3q0-.6.4-1m3.2-1.25l.3 1.05q.5-.25 1.25-.25 1.3 0 1.3 1.05-.35-.1-.55-.1-1.4 0-2.15.55-.75.6-.75 1.55 0 .9.55 1.35.5.45 1.45.45.5 0 .95-.2.45-.15.65-.45.05.25.3.45.2.2.5.2.25 0 .5-.05.2-.1.35-.35-.45-.3-.45-1.45v-1.25q0-1.65-.65-2.25-.6-.6-1.9-.6-.95 0-1.65.3m2.85 2.85v.55q0 1.2-1.2 1.2-.9 0-.9-.8 0-1.05 1.6-1.05.15 0 .5.1m-15.5 2.05q.75-.75.75-2.2 0-3-2.75-3-.75 0-1.25.5v-.4h-1.35v8h1.35v-2.4q.55.25 1.15.25 1.35 0 2.1-.75m-3.25-.65v-3.05q.4-.35.85-.35.95 0 1.35.4.4.4.4 1.45 0 .95-.4 1.4-.4.4-1.35.4-.45 0-.85-.25m7-4.55q-.95 0-1.65.3l.3 1.05q.5-.25 1.25-.25 1.3 0 1.3 1.05-.35-.1-.55-.1-1.4 0-2.15.55-.75.6-.75 1.55 0 .9.55 1.35.5.45 1.45.45.5 0 .95-.2.45-.15.65-.45.05.25.3.45.2.2.5.2.25 0 .5-.05.2-.1.35-.35-.45-.3-.45-1.45v-1.25q0-1.65-.65-2.25-.6-.6-1.9-.6m0 4.9q-.9 0-.9-.8 0-1.05 1.6-1.05.15 0 .5.1v.55q0 1.2-1.2 1.2m-1-13.95q-.75-.75-2-.75-1.15 0-2 .85-.85.85-.85 2.2T673 380q.8.75 2.1.75 1.4 0 2.1-.55l-.5-1.05q-.5.5-1.4.5-.75 0-1.2-.4-.4-.4-.45-1.05h4.1q.1-.5.1-.75 0-1.15-.75-1.9m-.6 1.6h-2.8q.3-1.25 1.45-1.25 1.25 0 1.35 1.25m7.1-.65q.1-.25.4-.4.25-.2.55-.2 1.05 0 1.05 1.15v3.6h1.35v-3.8q0-.95-.55-1.5t-1.5-.55q-.45 0-.9.15-.45.2-.7.45-.6-.6-1.75-.6-.85 0-1.45.6l-.25-.5h-.9v5.75h1.3v-4.15q.15-.2.45-.4.3-.2.55-.2.5 0 .75.25t.25.7v3.8h1.35v-4.15m-18.45 12.2v-1.25q0-1.65-.65-2.25-.6-.6-1.9-.6-.95 0-1.65.3l.3 1.05q.5-.25 1.25-.25 1.3 0 1.3 1.05-.35-.1-.55-.1-1.4 0-2.15.55-.75.6-.75 1.55 0 .9.55 1.35.5.45 1.45.45.5 0 .95-.2.45-.15.65-.45.05.25.3.45.2.2.5.2.25 0 .5-.05.2-.1.35-.35-.45-.3-.45-1.45m-1.35-.95v.55q0 1.2-1.2 1.2-.9 0-.9-.8 0-1.05 1.6-1.05.15 0 .5.1m-7.4 4.35q-.2 0-.35-.05l.2.7q.25.05.55.05.6 0 .95-.3.4-.3.4-.8 0-.9-.95-1.1l-.45.45q.15.05.25.2.1.2.1.35 0 .5-.7.5m-6 3.1q-.7-.8-2.05-.8-1.25 0-2 .8-.75.85-.75 2.15 0 1.35.75 2.2.7.8 2 .8t2.05-.8q.75-.8.75-2.2 0-1.35-.75-2.15m-.65 2.15q0 .9-.4 1.4-.35.5-1 .5-1.35 0-1.35-1.9 0-.9.35-1.35.4-.5 1-.5 1.4 0 1.4 1.85m4.15-9.35q.1-.5.1-.75 0-1.15-.75-1.9t-2-.75q-1.15 0-2 .85-.85.85-.85 2.2t.75 2.15q.8.75 2.1.75 1.4 0 2.1-.55l-.5-1.05q-.5.5-1.4.5-.75 0-1.2-.4-.4-.4-.45-1.05h4.1m-1.25-1.05h-2.8q.3-1.25 1.45-1.25 1.25 0 1.35 1.25m5.2-2.35q-1.45 0-2.3.85-.85.8-.85 2.15 0 1.4.75 2.2.8.75 2.1.75.6 0 1.05-.1.45-.1 1.05-.45l-.5-1.05q-.6.5-1.35.5-1.7 0-1.7-1.85 0-.85.45-1.4.45-.5 1.2-.5.8 0 1.25.45l.6-1q-.75-.55-1.75-.55m-8.75-8.35l.4-1.05q-.8-.4-1.7-.4-.85 0-1.45.4-.55.4-.55 1.15 0 1.15 1.5 1.75.65.3.9.5t.25.55q0 .55-.8.55-.75 0-1.35-.5l-.5 1.1q.55.25.9.35.35.1.95.1 1 0 1.6-.45.6-.45.6-1.25 0-.6-.35-1.05-.35-.4-1.1-.7-.75-.3-.95-.5-.25-.15-.25-.4 0-.55.7-.55.8 0 1.2.4m10.15 4.4v-8.2l-1.3.3v2.3q-.55-.25-1.2-.25-1.2 0-2 .85t-.8 2.2q0 1.4.7 2.15t1.9.75q.4 0 .8-.15.4-.1.6-.3v.35h1.3m-3.45-4.25q.4-.45 1.25-.45.45 0 .9.3v3.05q-.1.1-.4.2-.25.1-.45.1-1.75 0-1.75-1.75 0-.95.45-1.45m7.25-1.6q-1.15 0-2 .85-.85.85-.85 2.2t.75 2.15q.8.75 2.1.75 1.4 0 2.1-.55l-.5-1.05q-.5.5-1.4.5-.75 0-1.2-.4-.4-.4-.45-1.05h4.1q.1-.5.1-.75 0-1.15-.75-1.9t-2-.75m-1.4 2.35q.3-1.25 1.45-1.25 1.25 0 1.35 1.25h-2.8m6-2.25h-1.45l2.6 5.85h.45l2.65-5.85h-1.4l-1.5 3.5-1.35-3.5m-6.75-4.7q.8.75 2.1.75 1.4 0 2.1-.55l-.5-1.05q-.5.5-1.4.5-.75 0-1.2-.4-.4-.4-.45-1.05h4.1q.1-.5.1-.75 0-1.15-.75-1.9t-2-.75q-1.15 0-2 .85-.85.85-.85 2.2t.75 2.15m.7-2.85q.3-1.25 1.45-1.25 1.25 0 1.35 1.25h-2.8m-13.55 2.85q.75-.75.75-2.2 0-3-2.75-3-.75 0-1.25.5v-.4h-1.35v8h1.35v-2.4q.55.25 1.15.25 1.35 0 2.1-.75m-2.4-4.05q.95 0 1.35.4.4.4.4 1.45 0 .95-.4 1.4-.4.4-1.35.4-.45 0-.85-.25v-3.05q.4-.35.85-.35m4.65-.35q-.75.85-.75 2.15 0 1.35.75 2.2.7.8 2 .8t2.05-.8q.75-.8.75-2.2 0-1.35-.75-2.15-.7-.8-2.05-.8-1.25 0-2 .8m.65 2.15q0-.9.35-1.35.4-.5 1-.5 1.4 0 1.4 1.85 0 .9-.4 1.4-.35.5-1 .5-1.35 0-1.35-1.9m6.75-4.5l-1.3.5v1.15h-.7v1.1h.7v2.9q0 .9.45 1.35.45.5 1.3.5.9 0 1.35-.15v-1.25q-.4.25-.9.25t-.7-.25q-.2-.25-.2-.85v-2.5h1.6v-1.1h-1.6v-1.65m-8.4-5.4q0-1.25-.8-2.05-.75-.8-2-.8-.65 0-1.2.3v-2.65l-1.35.3v8h.8l.3-.4q.55.4 1.35.4 1.35 0 2.1-.85.8-.8.8-2.25m-3.1-1.7q1.7 0 1.7 1.75 0 1-.4 1.45-.4.45-1.4.45-.5 0-.8-.35v-3q.3-.3.9-.3m6.7-1.15q-1.15 0-2 .85-.85.85-.85 2.2t.75 2.15q.8.75 2.1.75 1.4 0 2.1-.55l-.5-1.05q-.5.5-1.4.5-.75 0-1.2-.4-.4-.4-.45-1.05h4.1q.1-.5.1-.75 0-1.15-.75-1.9t-2-.75m-1.4 2.35q.3-1.25 1.45-1.25 1.25 0 1.35 1.25h-2.8m9.1-2.15q-.35-.2-1.05-.2-.9 0-1.5.6v-.5h-1.3v5.75h1.3v-3.3q0-.6.4-1 .35-.45.8-.45.45 0 .8.25l.55-1.15m2.35-.1v-1.65l-1.3.5v1.15h-.7v1.1h.7v2.9q0 .9.45 1.35.45.5 1.3.5.9 0 1.35-.15v-1.25q-.4.25-.9.25t-.7-.25q-.2-.25-.2-.85v-2.5h1.6v-1.1h-1.6m18.2 13.55q0 2.1 2 2.1.4 0 .9-.15.5-.2.8-.45v.5h1.3v-5.75h-1.3v3.95q-.15.3-.55.55-.4.25-.85.25-1 0-1-1.1v-3.65h-1.3v3.75m-5.9-3.05q-.75.85-.75 2.15 0 1.35.75 2.2.7.8 2 .8t2.05-.8q.75-.8.75-2.2 0-1.35-.75-2.15-.7-.8-2.05-.8-1.25 0-2 .8m2 4.05q-1.35 0-1.35-1.9 0-.9.35-1.35.4-.5 1-.5 1.4 0 1.4 1.85 0 .9-.4 1.4-.35.5-1 .5m-6.75-.6q0-.6-.35-1.05-.35-.4-1.1-.7-.75-.3-.95-.5-.25-.15-.25-.4 0-.55.7-.55.8 0 1.2.4l.4-1.05q-.8-.4-1.7-.4-.85 0-1.45.4-.55.4-.55 1.15 0 1.15 1.5 1.75.65.3.9.5t.25.55q0 .55-.8.55-.75 0-1.35-.5l-.5 1.1q.55.25.9.35.35.1.95.1 1 0 1.6-.45.6-.45.6-1.25m3.65-8.9q0-.4-.25-.7-.3-.25-.7-.25-.4 0-.7.25-.25.3-.25.7 0 .4.25.7.3.25.7.25.4 0 .7-.25.25-.3.25-.7m-3.2-2.2q0-1.35-.75-2.15-.7-.8-2.05-.8-1.25 0-2 .8-.75.85-.75 2.15 0 1.35.75 2.2.7.8 2 .8t2.05-.8q.75-.8.75-2.2m-1.4 0q0 .9-.4 1.4-.35.5-1 .5-1.35 0-1.35-1.9 0-.9.35-1.35.4-.5 1-.5 1.4 0 1.4 1.85M677.2 346l-.25-.5h-.9v5.75h1.3v-4.15q.15-.2.45-.4.3-.2.55-.2.5 0 .75.25t.25.7v3.8h1.35v-4.15q.1-.25.4-.4.25-.2.55-.2 1.05 0 1.05 1.15v3.6h1.35v-3.8q0-.95-.55-1.5t-1.5-.55q-.45 0-.9.15-.45.2-.7.45-.6-.6-1.75-.6-.85 0-1.45.6m-5-.6q-1.15 0-2 .85-.85.85-.85 2.2t.75 2.15q.8.75 2.1.75 1.4 0 2.1-.55l-.5-1.05q-.5.5-1.4.5-.75 0-1.2-.4-.4-.4-.45-1.05h4.1q.1-.5.1-.75 0-1.15-.75-1.9t-2-.75m-1.4 2.35q.3-1.25 1.45-1.25 1.25 0 1.35 1.25h-2.8m4.35-12.05h-1.4l-1.5 3.5-1.35-3.5h-1.45l2.6 5.85h.45l2.65-5.85m3.2-.1q-1.15 0-2 .85-.85.85-.85 2.2t.75 2.15q.8.75 2.1.75 1.4 0 2.1-.55l-.5-1.05q-.5.5-1.4.5-.75 0-1.2-.4-.4-.4-.45-1.05h4.1q.1-.5.1-.75 0-1.15-.75-1.9t-2-.75m.05 1.1q1.25 0 1.35 1.25h-2.8q.3-1.25 1.45-1.25m-2.75-12.95v2.3q-.55-.25-1.2-.25-1.2 0-2 .85t-.8 2.2q0 1.4.7 2.15t1.9.75q.4 0 .8-.15.4-.1.6-.3v.35h1.3v-8.2l-1.3.3m-.9 3.2q.45 0 .9.3v3.05q-.1.1-.4.2-.25.1-.45.1-1.75 0-1.75-1.75 0-.95.45-1.45.4-.45 1.25-.45m7.95-.35q-.7-.8-2.05-.8-1.25 0-2 .8-.75.85-.75 2.15 0 1.35.75 2.2.7.8 2 .8t2.05-.8q.75-.8.75-2.2 0-1.35-.75-2.15m-3.05.8q.4-.5 1-.5 1.4 0 1.4 1.85 0 .9-.4 1.4-.35.5-1 .5-1.35 0-1.35-1.9 0-.9.35-1.35m6.15.4q-.25-.15-.25-.4 0-.55.7-.55.8 0 1.2.4l.4-1.05q-.8-.4-1.7-.4-.85 0-1.45.4-.55.4-.55 1.15 0 1.15 1.5 1.75.65.3.9.5t.25.55q0 .55-.8.55-.75 0-1.35-.5l-.5 1.1q.55.25.9.35.35.1.95.1 1 0 1.6-.45.6-.45.6-1.25 0-.6-.35-1.05-.35-.4-1.1-.7-.75-.3-.95-.5m-20.8 18q-.8-.4-1.7-.4-.85 0-1.45.4-.55.4-.55 1.15 0 1.15 1.5 1.75.65.3.9.5t.25.55q0 .55-.8.55-.75 0-1.35-.5l-.5 1.1q.55.25.9.35.35.1.95.1 1 0 1.6-.45.6-.45.6-1.25 0-.6-.35-1.05-.35-.4-1.1-.7-.75-.3-.95-.5-.25-.15-.25-.4 0-.55.7-.55.8 0 1.2.4l.4-1.05m-.7-9.35q-.85.85-.85 2.2t.75 2.15q.8.75 2.1.75 1.4 0 2.1-.55l-.5-1.05q-.5.5-1.4.5-.75 0-1.2-.4-.4-.4-.45-1.05h4.1q.1-.5.1-.75 0-1.15-.75-1.9t-2-.75q-1.15 0-2 .85m3.4 1.5h-2.8q.3-1.25 1.45-1.25 1.25 0 1.35 1.25m-9.9 7.45q-1.25 0-2 .8-.75.85-.75 2.15 0 1.35.75 2.2.7.8 2 .8t2.05-.8q.75-.8.75-2.2 0-1.35-.75-2.15-.7-.8-2.05-.8m1.4 2.95q0 .9-.4 1.4-.35.5-1 .5-1.35 0-1.35-1.9 0-.9.35-1.35.4-.5 1-.5 1.4 0 1.4 1.85m-6.4-5v2.3q-.55-.25-1.2-.25-1.2 0-2 .85t-.8 2.2q0 1.4.7 2.15t1.9.75q.4 0 .8-.15.4-.1.6-.3v.35h1.3v-8.2l-1.3.3m-.9 3.2q.45 0 .9.3v3.05q-.1.1-.4.2-.25.1-.45.1-1.75 0-1.75-1.75 0-.95.45-1.45.4-.45 1.25-.45m.85-8.9q0-.95-.55-1.5t-1.5-.55q-.45 0-.9.15-.45.2-.7.45-.6-.6-1.75-.6-.85 0-1.45.6l-.25-.5h-.9v5.75h1.3v-4.15q.15-.2.45-.4.3-.2.55-.2.5 0 .75.25t.25.7v3.8h1.35v-4.15q.1-.25.4-.4.25-.2.55-.2 1.05 0 1.05 1.15v3.6h1.35v-3.8m-4.3-9.85q-.25-.15-.25-.4 0-.55.7-.55.8 0 1.2.4l.4-1.05q-.8-.4-1.7-.4-.85 0-1.45.4-.55.4-.55 1.15 0 1.15 1.5 1.75.65.3.9.5t.25.55q0 .55-.8.55-.75 0-1.35-.5l-.5 1.1q.55.25.9.35.35.1.95.1 1 0 1.6-.45.6-.45.6-1.25 0-.6-.35-1.05-.35-.4-1.1-.7-.75-.3-.95-.5m7.45-.8h.75v4.65H658v-5.75h-2.1v1.1m-2.45 0h1.6v-1.1h-1.6v-1.65l-1.3.5v1.15h-.7v1.1h.7v2.9q0 .9.45 1.35.45.5 1.3.5.9 0 1.35-.15v-1.25q-.4.25-.9.25t-.7-.25q-.2-.25-.2-.85V327m3.9-3.35q-.35 0-.55.25-.25.25-.25.55 0 .3.25.55.2.25.55.25.3 0 .55-.25.2-.25.2-.55 0-.3-.2-.55-.25-.25-.55-.25m5.15 9.6l-1.3.3v2.3q-.55-.25-1.2-.25-1.2 0-2 .85t-.8 2.2q0 1.4.7 2.15t1.9.75q.4 0 .8-.15.4-.1.6-.3v.35h1.3v-8.2m-2.2 3.5q.45 0 .9.3v3.05q-.1.1-.4.2-.25.1-.45.1-1.75 0-1.75-1.75 0-.95.45-1.45.4-.45 1.25-.45m2.1-10.95q-1.05 0-1.6.65l-.25-.55h-.95v5.75h1.3v-4.15q.2-.25.55-.4.35-.2.6-.2.65 0 .95.35.3.35.3 1.1v3.3h1.3v-3.55q0-1.1-.55-1.7-.6-.6-1.65-.6m4.2 1.35q.5-.25 1.25-.25 1.3 0 1.3 1.05-.35-.1-.55-.1-1.4 0-2.15.55-.75.6-.75 1.55 0 .9.55 1.35.5.45 1.45.45.5 0 .95-.2.45-.15.65-.45.05.25.3.45.2.2.5.2.25 0 .5-.05.2-.1.35-.35-.45-.3-.45-1.45v-1.25q0-1.65-.65-2.25-.6-.6-1.9-.6-.95 0-1.65.3l.3 1.05m1.35 3.55q-.9 0-.9-.8 0-1.05 1.6-1.05.15 0 .5.1v.55q0 1.2-1.2 1.2m20.9 7.15v3.6h1.35v-3.8q0-.95-.55-1.5t-1.5-.55q-.45 0-.9.15-.45.2-.7.45-.6-.6-1.75-.6-.85 0-1.45.6l-.25-.5h-.9v5.75h1.3v-4.15q.15-.2.45-.4.3-.2.55-.2.5 0 .75.25t.25.7v3.8h1.35v-4.15q.1-.25.4-.4.25-.2.55-.2 1.05 0 1.05 1.15z" id="c"/><path id="b" stroke="#8CA8B8" stroke-linejoin="round" stroke-linecap="round" fill="none" d="M694.75 309.85q4.1 0 7 2.95 2.95 2.9 2.95 7v81.6q-.1 3.95-2.95 6.75-2.9 2.95-7 2.95H586.1q-4.1 0-7-2.95-2.8-2.8-2.9-6.75v-81.6q0-4.1 2.9-7 2.9-2.95 7-2.95h108.6"/></defs><g transform="translate(-573.95 -307.45)"><use xlink:href="#a"/><use xlink:href="#b"/></g><use xlink:href="#c" transform="translate(-573.95 -307.45)"/></svg>