
<svg xmlns="http://www.w3.org/2000/svg" version="1.1" xmlns:xlink="http://www.w3.org/1999/xlink" preserveAspectRatio="none" x="0px" y="0px" width="133px" height="106px" viewBox="0 0 133 106">
<defs>
<linearGradient id="Gradient_1" gradientUnits="userSpaceOnUse" x1="42.6375" y1="43.45" x2="98.8625" y2="43.45" spreadMethod="pad">
<stop  offset="0.7843137254901961%" stop-color="#87A647"/>

<stop  offset="37.254901960784316%" stop-color="#97CB2C"/>

<stop  offset="65.09803921568627%" stop-color="#95CB28"/>

<stop  offset="95.29411764705883%" stop-color="#7CAD17"/>
</linearGradient>

<linearGradient id="Gradient_2" gradientUnits="userSpaceOnUse" x1="104.225" y1="51.05" x2="37.175000000000004" y2="70.95" spreadMethod="pad">
<stop  offset="0.7843137254901961%" stop-color="#81A634"/>

<stop  offset="37.254901960784316%" stop-color="#A3CB51"/>

<stop  offset="65.09803921568627%" stop-color="#A3CB51"/>

<stop  offset="95.29411764705883%" stop-color="#85AD32"/>
</linearGradient>

<linearGradient id="Gradient_3" gradientUnits="userSpaceOnUse" x1="38.474999999999994" y1="47.05" x2="102.625" y2="47.05" spreadMethod="pad">
<stop  offset="0.7843137254901961%" stop-color="#72932E"/>

<stop  offset="37.254901960784316%" stop-color="#A3CB51"/>

<stop  offset="65.09803921568627%" stop-color="#94B849"/>

<stop  offset="95.29411764705883%" stop-color="#74982B"/>
</linearGradient>

<linearGradient id="Gradient_4" gradientUnits="userSpaceOnUse" x1="42.6375" y1="43.45" x2="98.8625" y2="43.45" spreadMethod="pad">
<stop  offset="0.7843137254901961%" stop-color="#81A634"/>

<stop  offset="37.254901960784316%" stop-color="#A3CB51"/>

<stop  offset="65.09803921568627%" stop-color="#A3CB51"/>

<stop  offset="95.29411764705883%" stop-color="#85AD32"/>
</linearGradient>

<filter id="Filter_1" x="-20%" y="-20%" width="140%" height="140%" color-interpolation-filters="sRGB">
<feFlood flood-color="#000000" flood-opacity="1" in="SourceGraphic" result="result1"/>

<feComposite in2="SourceGraphic" in="result1" operator="in" result="result2"/>

<feGaussianBlur in="result2" stdDeviation="2.3333333333333335,2.3333333333333335" result="result3"/>

<feOffset dx="0" dy="0" in="result3" result="result4"/>

<feComposite in2="result4" in="SourceGraphic" operator="over" result="result5"/>
</filter>

<g id="Layer0_0_MEMBER_0_FILL">
<path fill="#FFFF00" stroke="none" d="
M 477.25 638.3
Q 474.35 635.35 470.25 635.35
L 470.2 635.35 361.6 635.35
Q 357.5 635.35 354.6 638.3 351.7 641.2 351.7 645.3
L 351.7 726.9
Q 351.8 730.85 354.6 733.65 357.5 736.6 361.6 736.6
L 470.25 736.6
Q 474.35 736.6 477.25 733.65 480.1 730.85 480.2 726.9
L 480.2 645.3
Q 480.2 641.2 477.25 638.3 Z"/>
</g>

<g id="S_mbolo_6_0_Layer0_0_FILL">
<path fill="#FFFFFF" stroke="none" d="
M 966.45 100.5
Q 947.95 82 921.8 82
L 458.15 82
Q 432 82 413.5 100.5 395 119 395 145.15
L 395 538.8
Q 395 564.95 413.5 583.45 432 601.95 458.15 601.95
L 921.8 601.95
Q 947.95 601.95 966.45 583.45 984.95 564.95 984.95 538.8
L 984.95 145.15
Q 984.95 119 966.45 100.5 Z"/>
</g>

<g id="S_mbolo_6_0_Layer0_1_MEMBER_0_FILL">
<path fill="url(#Gradient_1)" stroke="none" d="
M 107.3 64.5
Q 107.3 64.05 107.25 63.65 107.25 63.7 107.25 63.75 106.9 68.05 103.3 71.6 102.35 72.5 101.2 73.35 100.5 73.95 99.65 74.5 98.6 75.15 97.5 75.8 97.1 76 96.75 76.2 95.6 76.8 94.4 77.3 92.6 78.15 90.7 78.8 90.05 79 89.35 79.2 89.05 79.3 88.75 79.4 86.5 80.05 84.1 80.55 83.3 80.65 82.55 80.8 77.25 81.7 71.3 81.7 64.4 81.7 58.4 80.55 56 80.05 53.75 79.4 53.7 79.35 53.6 79.35 53.15 79.2 52.7 79.05 50.55 78.35 48.6 77.5 47.15 76.9 45.8 76.2 45.65 76.1 45.5 76.05 44.45 75.45 43.5 74.9 42.75 74.45 42.1 73.95 40.45 72.8 39.25 71.6 35.65 68.05 35.3 63.8
L 35.25 63.95
Q 35.2 64.2 35.2 64.5 35.2 68.3 37.75 71.6 39.6 73.95 42.7 76 43.05 76.25 43.4 76.45 44 76.85 44.65 77.25
L 44.7 77.25
Q 45.25 77.5 45.8 77.8 47.25 78.6 48.8 79.25 50.45 79.95 52.15 80.55 52.6 80.7 53.1 80.85 53.45 80.95 53.8 81.05 61.6 83.35 71.3 83.35 73.4 83.35 75.45 83.25 79.15 83.05 82.55 82.45 86.05 81.9 89.25 80.9 89.8 80.7 90.4 80.55 91.6 80.1 92.75 79.65 93.45 79.35 94.2 79.05 95.5 78.45 96.75 77.8 97.55 77.4 98.3 76.95 99.1 76.5 99.8 76.05 100.2 75.75 100.65 75.45 103.2 73.65 104.75 71.6 107.3 68.3 107.3 64.5 Z"/>

<path fill="url(#Gradient_2)" stroke="none" d="
M 102.45 45.05
Q 102.65 46 102.65 47.05 102.65 47.45 102.6 47.8 102.25 52.65 97.2 56.45 96.55 56.95 95.8 57.4 94.9 58 93.9 58.6 93.55 58.75 93.2 58.95 92.2 59.5 91.15 59.95 89.55 60.65 87.85 61.25 87.25 61.45 86.65 61.65 86.4 61.7 86.1 61.8 83.45 62.55 80.6 63.05 75.9 63.85 70.55 63.85 61.95 63.85 54.95 61.8 54.9 61.75 54.85 61.75 54.4 61.65 54 61.5 52.15 60.9 50.35 60.15 49.05 59.55 47.85 58.95 47.75 58.85 47.6 58.8 46.7 58.3 45.85 57.8 45.15 57.4 44.55 56.95 38.85 52.95 38.5 47.8 38.45 47.45 38.45 47.05 38.45 46.9 38.45 46.75
L 35.3 63.8
Q 35.65 68.05 39.25 71.6 40.45 72.8 42.1 73.95 42.75 74.45 43.5 74.9 44.45 75.45 45.5 76.05 45.65 76.1 45.8 76.2 47.15 76.9 48.6 77.5 50.55 78.35 52.7 79.05 53.15 79.2 53.6 79.35 53.7 79.35 53.75 79.4 56 80.05 58.4 80.55 64.4 81.7 71.3 81.7 77.25 81.7 82.55 80.8 83.3 80.65 84.1 80.55 86.5 80.05 88.75 79.4 89.05 79.3 89.35 79.2 90.05 79 90.7 78.8 92.6 78.15 94.4 77.3 95.6 76.8 96.75 76.2 97.1 76 97.5 75.8 98.6 75.15 99.65 74.5 100.5 73.95 101.2 73.35 102.35 72.5 103.3 71.6 106.9 68.05 107.25 63.75
L 102.45 45.05 Z"/>

<path fill="url(#Gradient_3)" stroke="none" d="
M 102.1 43.8
Q 100.35 38.9 93.2 35.15 83.8 30.25 70.55 30.25 57.25 30.25 47.85 35.15 38.65 39.95 38.45 46.75 38.45 46.9 38.45 47.05 38.45 47.45 38.5 47.8 38.85 52.95 44.55 56.95 45.15 57.4 45.85 57.8 46.7 58.3 47.6 58.8 47.75 58.85 47.85 58.95 49.05 59.55 50.35 60.15 52.15 60.9 54 61.5 54.4 61.65 54.85 61.75 54.9 61.75 54.95 61.8 61.95 63.85 70.55 63.85 75.9 63.85 80.6 63.05 83.45 62.55 86.1 61.8 86.4 61.7 86.65 61.65 87.25 61.45 87.85 61.25 89.55 60.65 91.15 59.95 92.2 59.5 93.2 58.95 93.55 58.75 93.9 58.6 94.9 58 95.8 57.4 96.55 56.95 97.2 56.45 102.25 52.65 102.6 47.8 102.65 47.45 102.65 47.05 102.65 46 102.45 45.05 102.35 44.65 102.2 44.25 102.15 44.05 102.1 43.8
M 90.6 36
Q 98.85 40.35 98.85 46.4 98.85 49.45 96.9 52 96 53.1 94.8 54.15 94.2 54.6 93.55 55.1 92.6 55.75 91.5 56.35 91.05 56.6 90.6 56.85 82.4 61.15 70.75 61.15 59.1 61.15 50.85 56.85 50.5 56.65 50.1 56.45 49 55.8 48.05 55.15 47.45 54.7 46.85 54.25 45.3 53 44.35 51.6 42.65 49.2 42.65 46.4 42.65 40.35 50.85 36 56.5 33.05 63.7 32.1
L 70.75 31.7
Q 71.35 31.7 72 31.7 73.85 31.75 75.6 31.9 77.75 32.05 79.75 32.4 85.8 33.45 90.6 36 Z"/>

<path fill="#96BD4A" stroke="none" d="
M 90.6 56.85
Q 91.05 56.6 91.5 56.35 90.2 55.45 88.6 54.55 81.25 50.7 70.85 50.7 60.45 50.7 53.1 54.55 51.4 55.45 50.1 56.45 50.5 56.65 50.85 56.85 59.1 61.15 70.75 61.15 82.4 61.15 90.6 56.85 Z"/>

<path fill="#A8D24F" stroke="none" d="
M 91.5 56.35
Q 92.6 55.75 93.55 55.1 91.75 53.1 88.6 51.45 81.25 47.55 70.85 47.55 60.45 47.55 53.1 51.45 49.9 53.15 48.05 55.15 49 55.8 50.1 56.45 51.4 55.45 53.1 54.55 60.45 50.7 70.85 50.7 81.25 50.7 88.6 54.55 90.2 55.45 91.5 56.35 Z"/>

<path fill="url(#Gradient_4)" stroke="none" d="
M 98.85 46.4
Q 98.85 40.35 90.6 36 85.8 33.45 79.75 32.4 77.75 32.05 75.6 31.9 73.85 31.75 72 31.7 71.35 31.7 70.75 31.7
L 63.7 32.1
Q 56.5 33.05 50.85 36 42.65 40.35 42.65 46.4 42.65 49.2 44.35 51.6 45.3 53 46.85 54.25 47.45 54.7 48.05 55.15 49.9 53.15 53.1 51.45 60.45 47.55 70.85 47.55 81.25 47.55 88.6 51.45 91.75 53.1 93.55 55.1 94.2 54.6 94.8 54.15 96 53.1 96.9 52 98.85 49.45 98.85 46.4 Z"/>
</g>

<g id="Interpolar_17_0_Layer0_0_FILL">
<path fill="#F0F000" fill-opacity="0.9607843137254902" stroke="none" d="
M -5.35 -21.9
Q -9.95 -22.15 -14.7 -22.3
L -16 15.6
Q -9.25 15.8 -2.85 16.15
L -5.35 -21.9
M -97.05 -18
Q -98.6 -17.7 -100.05 -17.45
L -106.15 21.35
Q -104.15 20.95 -101.95 20.55 -88.7 18.2 -72.95 16.95
L -67.65 -21.5
Q -72.75 -21.15 -77.55 -20.65 -87.95 -19.6 -97.05 -18
M -104.4 -16.55
Q -116.55 -13.8 -120.9 -10.5
L -122.55 -4.3 -130.45 31.25
Q -128.35 27.2 -116.9 23.9
L -104.4 -16.55
M 30.05 -18
Q 23.95 -19.1 17.25 -19.9
L 27.05 18.85
Q 32.7 19.6 37.95 20.55 44.3 21.7 49.3 22.95
L 35.65 -16.9
Q 33.05 -17.45 30.05 -18 Z"/>

<path fill="#F0F000" fill-opacity="0.7686274509803922" stroke="none" d="
M -14.7 -22.3
Q -23.7 -22.65 -33.5 -22.65 -39.3 -22.65 -44.85 -22.5
L -44.85 15.55
Q -38.55 15.4 -32 15.4 -23.75 15.4 -16 15.6
L -14.7 -22.3 Z"/>

<path fill="#D7D700" stroke="none" d="
M -44.85 -22.5
Q -56.9 -22.3 -67.65 -21.5
L -72.95 16.95
Q -59.75 15.85 -44.85 15.55
L -44.85 -22.5 Z"/>

<path fill="#D7D700" fill-opacity="0.9882352941176471" stroke="none" d="
M -100.05 -17.45
Q -102.35 -17 -104.4 -16.55
L -116.9 23.9
Q -112.3 22.55 -106.15 21.35
L -100.05 -17.45 Z"/>

<path fill="#B6B600" stroke="none" d="
M 66.9 32.6
Q 66.8 32 66.55 31.45 64.35 26.7 49.3 22.95 44.3 21.7 37.95 20.55 32.7 19.6 27.05 18.85 13.25 17 -2.85 16.15 -9.25 15.8 -16 15.6 -23.75 15.4 -32 15.4 -38.55 15.4 -44.85 15.55 -59.75 15.85 -72.95 16.95 -88.7 18.2 -101.95 20.55 -104.15 20.95 -106.15 21.35 -112.3 22.55 -116.9 23.9 -128.35 27.2 -130.45 31.25 -130.6 31.5 -130.65 31.75 -130.9 32.4 -130.9 33.05 -130.9 40.35 -101.95 45.45 -77.6 49.8 -44.85 50.55 -38.55 50.65 -32 50.65 8.95 50.65 37.95 45.45 66.9 40.35 66.9 33.05 66.9 32.8 66.9 32.6
M 12.75 25.9
Q 14.35 26.05 14.35 28.1 14.35 28.8 14 29.45 13.55 30.2 12.7 30.2 11.7 30.2 11.25 29.1
L 11.1 28.05
Q 11.1 25.8 12.75 25.9
M 38.6 35.95
Q 37.55 35.95 37.15 34.85
L 36.95 33.8
Q 36.95 31.55 38.6 31.65 40.25 31.8 40.25 33.85 40.25 34.55 39.85 35.2 39.4 35.95 38.6 35.95
M -3.7 23.2
Q -4.75 23.2 -5.15 22.1
L -5.35 21.05
Q -5.35 18.8 -3.7 18.9 -2.05 19.05 -2.05 21.1 -2.05 21.8 -2.45 22.45 -2.9 23.2 -3.7 23.2
M -35.7 31.35
Q -35.85 31.05 -35.85 30.5 -35.85 28.85 -34.2 28.85 -32.55 28.85 -32.55 30.55 -32.55 32.1 -34.2 32.1 -35.35 32.1 -35.7 31.35
M -21.95 30.1
L -22.2 29.05
Q -22.2 26.8 -20.5 26.9 -18.85 27.05 -18.85 29.1 -18.85 29.85 -19.25 30.45 -19.7 31.2 -20.5 31.2 -21.55 31.2 -21.95 30.1
M -13.65 42.3
L -13.85 41.3
Q -13.85 39.05 -12.2 39.15 -10.6 39.3 -10.6 41.35 -10.6 42.05 -10.95 42.7 -11.4 43.45 -12.2 43.45 -13.25 43.45 -13.65 42.3
M -76.7 29.1
Q -76.85 28.75 -76.85 28.25 -76.85 26.65 -75.45 26.7 -74.05 26.8 -74.05 28.3 -74.05 29.05 -74.6 29.5 -75.05 29.85 -75.5 29.85 -76.35 29.85 -76.7 29.1
M -72.8 34.4
Q -71.2 34.55 -71.2 36.6 -71.2 37.35 -71.55 37.95 -72 38.7 -72.85 38.7 -73.85 38.7 -74.25 37.6
L -74.45 36.55
Q -74.45 34.3 -72.8 34.4
M -44.3 27.75
Q -43.15 27.75 -43.15 29.3 -43.15 29.95 -43.45 30.4 -43.75 30.85 -44.3 30.85 -45.05 30.85 -45.35 30.1 -45.5 29.7 -45.5 29.25 -45.5 27.75 -44.3 27.75
M -46.75 25.55
Q -46.75 26.2 -47.05 26.65 -47.4 27.1 -47.9 27.1 -48.65 27.1 -48.95 26.35 -49.1 26 -49.1 25.5 -49.1 24 -47.9 24 -46.75 24 -46.75 25.55
M -50.55 31
Q -49.4 31 -49.4 32.55 -49.4 33.15 -49.7 33.6 -50 34.1 -50.55 34.1 -51.25 34.1 -51.55 33.35 -51.7 32.95 -51.7 32.5 -51.7 31 -50.55 31
M -102 34.1
L -102.2 33.05
Q -102.2 30.8 -100.6 30.9 -98.95 31.05 -98.95 33.1 -98.95 33.85 -99.3 34.45 -99.8 35.2 -100.6 35.2 -101.6 35.2 -102 34.1
M -89.35 32.35
L -89.55 31.3
Q -89.55 29.05 -87.9 29.15 -86.3 29.3 -86.3 31.35 -86.3 32.1 -86.7 32.7 -87.15 33.45 -87.95 33.45 -89 33.45 -89.35 32.35
M -91.25 38.6
L -91.45 37.55
Q -91.45 35.45 -89.5 35.35 -87.6 35.25 -87.6 37.6 -87.6 38.35 -88 38.95 -88.5 39.7 -89.55 39.7 -90.85 39.7 -91.25 38.6 Z"/>

<path fill="#A1A12A" fill-opacity="0.7686274509803922" stroke="none" d="
M -91.45 37.55
L -91.25 38.6
Q -90.85 39.7 -89.55 39.7 -88.5 39.7 -88 38.95 -87.6 38.35 -87.6 37.6 -87.6 35.25 -89.5 35.35 -91.45 35.45 -91.45 37.55
M -89.55 31.3
L -89.35 32.35
Q -89 33.45 -87.95 33.45 -87.15 33.45 -86.7 32.7 -86.3 32.1 -86.3 31.35 -86.3 29.3 -87.9 29.15 -89.55 29.05 -89.55 31.3
M -102.2 33.05
L -102 34.1
Q -101.6 35.2 -100.6 35.2 -99.8 35.2 -99.3 34.45 -98.95 33.85 -98.95 33.1 -98.95 31.05 -100.6 30.9 -102.2 30.8 -102.2 33.05
M -49.4 32.55
Q -49.4 31 -50.55 31 -51.7 31 -51.7 32.5 -51.7 32.95 -51.55 33.35 -51.25 34.1 -50.55 34.1 -50 34.1 -49.7 33.6 -49.4 33.15 -49.4 32.55
M -47.05 26.65
Q -46.75 26.2 -46.75 25.55 -46.75 24 -47.9 24 -49.1 24 -49.1 25.5 -49.1 26 -48.95 26.35 -48.65 27.1 -47.9 27.1 -47.4 27.1 -47.05 26.65
M -43.15 29.3
Q -43.15 27.75 -44.3 27.75 -45.5 27.75 -45.5 29.25 -45.5 29.7 -45.35 30.1 -45.05 30.85 -44.3 30.85 -43.75 30.85 -43.45 30.4 -43.15 29.95 -43.15 29.3
M -71.2 36.6
Q -71.2 34.55 -72.8 34.4 -74.45 34.3 -74.45 36.55
L -74.25 37.6
Q -73.85 38.7 -72.85 38.7 -72 38.7 -71.55 37.95 -71.2 37.35 -71.2 36.6
M -76.85 28.25
Q -76.85 28.75 -76.7 29.1 -76.35 29.85 -75.5 29.85 -75.05 29.85 -74.6 29.5 -74.05 29.05 -74.05 28.3 -74.05 26.8 -75.45 26.7 -76.85 26.65 -76.85 28.25
M -13.85 41.3
L -13.65 42.3
Q -13.25 43.45 -12.2 43.45 -11.4 43.45 -10.95 42.7 -10.6 42.05 -10.6 41.35 -10.6 39.3 -12.2 39.15 -13.85 39.05 -13.85 41.3
M -22.2 29.05
L -21.95 30.1
Q -21.55 31.2 -20.5 31.2 -19.7 31.2 -19.25 30.45 -18.85 29.85 -18.85 29.1 -18.85 27.05 -20.5 26.9 -22.2 26.8 -22.2 29.05
M -35.85 30.5
Q -35.85 31.05 -35.7 31.35 -35.35 32.1 -34.2 32.1 -32.55 32.1 -32.55 30.55 -32.55 28.85 -34.2 28.85 -35.85 28.85 -35.85 30.5
M -5.15 22.1
Q -4.75 23.2 -3.7 23.2 -2.9 23.2 -2.45 22.45 -2.05 21.8 -2.05 21.1 -2.05 19.05 -3.7 18.9 -5.35 18.8 -5.35 21.05
L -5.15 22.1
M 37.15 34.85
Q 37.55 35.95 38.6 35.95 39.4 35.95 39.85 35.2 40.25 34.55 40.25 33.85 40.25 31.8 38.6 31.65 36.95 31.55 36.95 33.8
L 37.15 34.85
M 14.35 28.1
Q 14.35 26.05 12.75 25.9 11.1 25.8 11.1 28.05
L 11.25 29.1
Q 11.7 30.2 12.7 30.2 13.55 30.2 14 29.45 14.35 28.8 14.35 28.1 Z"/>

<path fill="#BBBB00" stroke="none" d="
M 55.85 -4.75
L 54.1 -10.4
Q 49.45 -14 35.65 -16.9
L 49.3 22.95
Q 64.35 26.7 66.55 31.45
L 55.85 -4.75 Z"/>

<path fill="#DBDB00" stroke="none" d="
M 17.25 -19.9
Q 14 -20.3 10.55 -20.65 2.9 -21.4 -5.35 -21.9
L -2.85 16.15
Q 13.25 17 27.05 18.85
L 17.25 -19.9 Z"/>

<path fill="#CC9966" stroke="none" d="
M 10.55 -20.65
Q 14 -20.3 17.25 -19.9 23.95 -19.1 30.05 -18 33.05 -17.45 35.65 -16.9 49.45 -14 54.1 -10.4
L 55.85 -4.75
Q 56.4 -5.65 56.4 -6.55
L 56.4 -34.7
Q 56.25 -41.3 30.05 -46 3.7 -50.65 -33.5 -50.65 -70.75 -50.65 -97.05 -46 -123.3 -41.3 -123.4 -34.7
L -123.4 -6.65
Q -123.4 -5.45 -122.55 -4.3
L -120.9 -10.5
Q -116.55 -13.8 -104.4 -16.55 -102.35 -17 -100.05 -17.45 -98.6 -17.7 -97.05 -18 -87.95 -19.6 -77.55 -20.65 -72.75 -21.15 -67.65 -21.5 -56.9 -22.3 -44.85 -22.5 -39.3 -22.65 -33.5 -22.65 -23.7 -22.65 -14.7 -22.3 -9.95 -22.15 -5.35 -21.9 2.9 -21.4 10.55 -20.65 Z"/>
</g>

<g id="Interpolar_18_0_Layer0_0_FILL">
<path fill="#FFFFFF" fill-opacity="0.6784313725490196" stroke="none" d="
M 21.95 -31.7
Q 16.6 -26.35 16.6 -18.85 16.6 -17.6 16.75 -16.4 14.75 -16.95 12.55 -16.95 7.05 -16.95 2.95 -13.55 2.95 -13.7 2.95 -13.8 2.95 -20.6 -1.9 -25.4 -6.7 -30.2 -13.45 -30.2 -20.15 -30.2 -24.95 -25.55 -25.75 -26.6 -26.7 -27.55 -33.05 -33.9 -42.05 -33.9 -51 -33.9 -57.35 -27.55 -63.7 -21.2 -63.7 -12.25 -63.7 -8.65 -62.65 -5.45 -63.45 -4.95 -64.15 -4.25 -66.8 -1.55 -66.8 2.2 -66.8 5.95 -64.15 8.65 -61.5 11.3 -57.7 11.3 -53.95 11.3 -51.3 8.65 -50.85 8.2 -50.5 7.75 -46.6 9.4 -42.05 9.4 -37.15 9.4 -33.05 7.55 -34.2 10.9 -34.2 14.75 -34.2 23.95 -27.65 30.5 -21.15 37.05 -11.9 37.05 -2.7 37.05 3.85 30.5 10.35 23.95 10.35 14.75 10.35 14.2 10.35 13.65 11.4 13.8 12.55 13.8 18.9 13.8 23.45 9.3 27.95 4.8 27.95 -1.55 27.95 -1.75 27.95 -1.9 30.9 -0.7 34.3 -0.65 33.5 1.85 33.5 4.7 33.5 11.6 38.35 16.45 43.25 21.35 50.15 21.35 57.05 21.35 61.9 16.45 66.8 11.6 66.8 4.7 66.8 -2.2 61.9 -7.1 57.6 -11.4 51.7 -11.9 53 -15.1 53 -18.85 53 -26.35 47.7 -31.7 42.35 -37 34.8 -37 27.25 -37 21.95 -31.7 Z"/>
</g>

<g id="Interpolar_16_0_Layer0_0_FILL">
<path fill="#2D89E5" stroke="none" d="
M -81.15 -46.85
L -82.85 -50.9 -85.75 6.85 -66.9 50.95 -64.65 -6.8 -67.3 -13.2 -69.9 -19.35 -78.7 -40.8 -81.15 -46.85 Z"/>

<path fill="#0E74DB" stroke="none" d="
M 82.85 50.95
L 85.75 -6.8 -64.65 -6.8 -66.9 50.95 82.85 50.95 Z"/>

<path fill="#1C8DFF" stroke="none" d="
M 83 -13.2
L 80.4 -19.35 -69.9 -19.35 -67.3 -13.2 83 -13.2 Z"/>

<path fill="#3399FF" stroke="none" d="
M 85.75 -6.8
L 83 -13.2 -67.3 -13.2 -64.65 -6.8 85.75 -6.8
M 68.75 -46.85
L 66.9 -50.9 -82.85 -50.9 -81.15 -46.85 68.75 -46.85 Z"/>

<path fill="#2391FF" stroke="none" d="
M 71.2 -40.8
L 68.75 -46.85 -81.15 -46.85 -78.7 -40.8 71.2 -40.8 Z"/>

<path fill="#4DA5FF" stroke="none" d="
M 80.4 -19.35
L 71.2 -40.8 -78.7 -40.8 -69.9 -19.35 80.4 -19.35 Z"/>
</g>

<path id="Layer0_0_MEMBER_0_1_STROKES" stroke="#8CA8B8" stroke-width="1" stroke-linejoin="round" stroke-linecap="round" fill="none" d="
M 470.25 635.35
Q 474.35 635.35 477.25 638.3 480.2 641.2 480.2 645.3
L 480.2 726.9
Q 480.1 730.85 477.25 733.65 474.35 736.6 470.25 736.6
L 361.6 736.6
Q 357.5 736.6 354.6 733.65 351.8 730.85 351.7 726.9
L 351.7 645.3
Q 351.7 641.2 354.6 638.3 357.5 635.35 361.6 635.35
L 470.2 635.35"/>
</defs>

<g transform="matrix( 1, 0, 0, 1, -349.45,-632.95) ">
<use xlink:href="#Layer0_0_MEMBER_0_FILL"/>

<use xlink:href="#Layer0_0_MEMBER_0_1_STROKES"/>
</g>

<g filter="url(#Filter_1)" transform="matrix( 1, 0, 0, 1, 0,0) ">
<g transform="matrix( 1, 0, 0, 1, 7.7,7.9) ">
<g transform="matrix( 0.1991119384765625, 0, 0, 0.171356201171875, -78.65,-14.05) ">
<use xlink:href="#S_mbolo_6_0_Layer0_0_FILL"/>
</g>

<g transform="matrix( 1, 0, 0, 1, 0,0) ">
<use xlink:href="#S_mbolo_6_0_Layer0_1_MEMBER_0_FILL"/>
</g>

<g transform="matrix( 0.180419921875, 0, 0, 0.180419921875, 33.7,17.8) ">
<g transform="matrix( 1, 0, 0, 1, 0,0) ">
<use xlink:href="#Interpolar_17_0_Layer0_0_FILL"/>
</g>

<g transform="matrix( 1.10662841796875, 0.056793212890625, -0.056793212890625, 1.10662841796875, -33.55,29.95) ">
<g transform="matrix( 1, 0, 0, 1, 0,0) ">
<use xlink:href="#Interpolar_18_0_Layer0_0_FILL"/>
</g>
</g>
</g>

<g transform="matrix( 0.180419921875, 0, 0, 0.180419921875, 25.7,37.85) ">
<g transform="matrix( 1, 0, 0, 1, 0,0) ">
<use xlink:href="#Interpolar_16_0_Layer0_0_FILL"/>
</g>
</g>
</g>
</g>
</svg>
