
<svg xmlns="http://www.w3.org/2000/svg" version="1.1" xmlns:xlink="http://www.w3.org/1999/xlink" preserveAspectRatio="none" x="0px" y="0px" width="129px" height="102px" viewBox="0 0 129 102">
<defs>
<g id="Layer0_0_FILL">
<path fill="#FF0000" stroke="none" d="
M 128.75 10.35
Q 128.75 6.25 125.8 3.35 122.9 0.4 118.8 0.4
L 118.75 0.4 10.15 0.4
Q 6.05 0.4 3.15 3.35 0.25 6.25 0.25 10.35
L 0.25 91.95
Q 0.35 95.9 3.15 98.7 6.05 101.65 10.15 101.65
L 118.8 101.65
Q 122.9 101.65 125.8 98.7 128.65 95.9 128.75 91.95
L 128.75 10.35
M 107.85 11.6
L 109.3 11.25 109.3 20.2 107.85 20.2 107.85 19.8
Q 107.65 20 107.2 20.15 106.8 20.3 106.3 20.3 105 20.3 104.25 19.5 103.5 18.65 103.5 17.15 103.5 15.7 104.35 14.75 105.25 13.8 106.55 13.8 107.25 13.8 107.85 14.1
L 107.85 11.6
M 110.35 17.05
Q 110.35 15.6 111.15 14.7 112 13.8 113.35 13.8 114.8 13.8 115.55 14.65 116.35 15.55 116.35 17.05 116.35 18.55 115.55 19.45 114.75 20.3 113.35 20.3 111.9 20.3 111.15 19.45 110.35 18.55 110.35 17.05
M 119.35 13.8
Q 120.3 13.8 121.2 14.25
L 120.75 15.4
Q 120.3 14.95 119.4 14.95 118.65 14.95 118.65 15.6 118.65 15.8 118.9 16 119.15 16.2 120 16.55 120.8 16.85 121.15 17.3 121.55 17.8 121.55 18.45 121.55 19.3 120.9 19.8 120.25 20.3 119.15 20.3 118.5 20.3 118.15 20.2 117.75 20.1 117.15 19.8
L 117.7 18.65
Q 118.35 19.15 119.15 19.15 120 19.15 120 18.55 120 18.2 119.75 17.95 119.5 17.75 118.75 17.4 117.15 16.75 117.15 15.55 117.15 14.7 117.75 14.25 118.35 13.8 119.35 13.8
M 88.25 18.35
Q 88.25 17.3 89.05 16.65 89.85 16.05 91.35 16.05 91.65 16.05 92 16.15 92 15.05 90.6 15.05 89.75 15.05 89.2 15.3
L 88.9 14.15
Q 89.65 13.8 90.7 13.8 92.1 13.8 92.8 14.45 93.45 15.1 93.45 16.95
L 93.45 18.3
Q 93.45 19.55 93.95 19.85 93.75 20.15 93.55 20.25 93.35 20.3 93.05 20.3 92.75 20.3 92.45 20.1 92.2 19.85 92.15 19.55 91.95 19.9 91.45 20.1 90.95 20.3 90.4 20.3 89.4 20.3 88.8 19.8 88.25 19.3 88.25 18.35
M 83 14.35
Q 83.55 13.8 84.35 13.8 87.35 13.8 87.35 17.1 87.35 18.65 86.5 19.5 85.7 20.3 84.25 20.3 83.55 20.3 83 20.05
L 83 22.65 81.5 22.65 81.5 13.9 83 13.9 83 14.35
M 85.2 23.35
L 86.65 23.35 85.35 25.1 84.2 25.1 85.2 23.35
M 96.85 13.8
Q 97.8 13.8 98.7 14.25
L 98.25 15.4
Q 97.8 14.95 96.9 14.95 96.15 14.95 96.15 15.6 96.15 15.8 96.4 16 96.65 16.2 97.5 16.55 98.3 16.85 98.65 17.3 99.05 17.8 99.05 18.45 99.05 19.3 98.4 19.8 97.75 20.3 96.65 20.3 96 20.3 95.65 20.2 95.25 20.1 94.65 19.8
L 95.2 18.65
Q 95.85 19.15 96.65 19.15 97.5 19.15 97.5 18.55 97.5 18.2 97.25 17.95 97 17.75 96.25 17.4 94.65 16.75 94.65 15.55 94.65 14.7 95.25 14.25 95.85 13.8 96.85 13.8
M 95.55 23.5
Q 95.9 23.5 96.15 23.75 96.4 24 96.4 24.35 96.4 24.7 96.15 24.95 95.9 25.2 95.55 25.2 95.2 25.2 94.95 24.95 94.7 24.7 94.7 24.35 94.7 24 94.95 23.75 95.2 23.5 95.55 23.5
M 98.4 26.7
Q 99.25 25.8 100.6 25.8 102.05 25.8 102.8 26.65 103.6 27.55 103.6 29.05 103.6 30.55 102.8 31.45 102 32.3 100.6 32.3 99.15 32.3 98.4 31.45 97.6 30.55 97.6 29.05 97.6 27.6 98.4 26.7
M 94.8 27.15
L 94 27.15 94 25.9 96.25 25.9 96.25 32.2 94.8 32.2 94.8 27.15
M 92.85 27.3
Q 92.5 27.05 92 27.05 91.5 27.05 91.1 27.5 90.7 27.95 90.7 28.65
L 90.7 32.2 89.25 32.2 89.25 25.9 90.7 25.9 90.7 26.5
Q 91.3 25.8 92.35 25.8 93.1 25.8 93.5 26.05
L 92.85 27.3
M 96.8 35.6
L 98.25 35.25 98.25 44.2 96.8 44.2 96.8 43.8
Q 96.6 44 96.15 44.15 95.75 44.3 95.25 44.3 93.95 44.3 93.2 43.5 92.45 42.65 92.45 41.15 92.45 39.7 93.3 38.75 94.2 37.8 95.5 37.8 96.2 37.8 96.8 38.1
L 96.8 35.6
M 87 26.45
Q 87.65 27.1 87.65 28.95
L 87.65 30.3
Q 87.65 31.55 88.15 31.85 87.95 32.15 87.75 32.25 87.55 32.3 87.25 32.3 86.95 32.3 86.65 32.1 86.4 31.85 86.35 31.55 86.15 31.9 85.65 32.1 85.15 32.3 84.6 32.3 83.6 32.3 83 31.8 82.45 31.3 82.45 30.35 82.45 29.3 83.25 28.65 84.05 28.05 85.55 28.05 85.85 28.05 86.2 28.15 86.2 27.05 84.8 27.05 83.95 27.05 83.4 27.3
L 83.1 26.15
Q 83.85 25.8 84.9 25.8 86.3 25.8 87 26.45
M 81.5 25.9
L 81.5 27.1 79.8 27.1 79.8 29.85
Q 79.8 30.5 80 30.8 80.2 31.1 80.75 31.1 81.25 31.1 81.7 30.8
L 81.7 32.15
Q 81.2 32.3 80.25 32.3 79.3 32.3 78.8 31.8 78.3 31.25 78.3 30.3
L 78.3 27.1 77.6 27.1 77.6 25.9 78.3 25.9 78.3 24.65 79.8 24.1 79.8 25.9 81.5 25.9
M 89.05 40.05
Q 89.35 40.05 89.7 40.15 89.7 39.05 88.3 39.05 87.45 39.05 86.9 39.3
L 86.6 38.15
Q 87.35 37.8 88.4 37.8 89.8 37.8 90.5 38.45 91.15 39.1 91.15 40.95
L 91.15 42.3
Q 91.15 43.55 91.65 43.85 91.45 44.15 91.25 44.25 91.05 44.3 90.75 44.3 90.45 44.3 90.15 44.1 89.9 43.85 89.85 43.55 89.65 43.9 89.15 44.1 88.65 44.3 88.1 44.3 87.1 44.3 86.5 43.8 85.95 43.3 85.95 42.35 85.95 41.3 86.75 40.65 87.55 40.05 89.05 40.05
M 84.1 38.45
Q 84.75 39.1 84.75 40.35
L 84.75 44.2 83.3 44.2 83.3 40.35
Q 83.3 39.75 82.95 39.4 82.6 39.05 82 39.05 81.65 39.05 81.25 39.25 80.9 39.45 80.75 39.7
L 80.75 44.2 79.25 44.2 79.25 35.6 80.75 35.25 80.75 38.3
Q 81.3 37.8 82.3 37.8 83.45 37.8 84.1 38.45
M 99.3 42.35
Q 99.3 41.3 100.1 40.65 100.9 40.05 102.4 40.05 102.7 40.05 103.05 40.15 103.05 39.05 101.65 39.05 100.8 39.05 100.25 39.3
L 99.95 38.15
Q 100.7 37.8 101.75 37.8 103.15 37.8 103.85 38.45 104.5 39.1 104.5 40.95
L 104.5 42.3
Q 104.5 43.55 105 43.85 104.8 44.15 104.6 44.25 104.4 44.3 104.1 44.3 103.8 44.3 103.5 44.1 103.25 43.85 103.2 43.55 103 43.9 102.5 44.1 102 44.3 101.45 44.3 100.45 44.3 99.85 43.8 99.3 43.3 99.3 42.35
M 108.4 29.3
Q 108.8 29.8 108.8 30.45 108.8 31.3 108.15 31.8 107.5 32.3 106.4 32.3 105.75 32.3 105.4 32.2 105 32.1 104.4 31.8
L 104.95 30.65
Q 105.6 31.15 106.4 31.15 107.25 31.15 107.25 30.55 107.25 30.2 107 29.95 106.75 29.75 106 29.4 104.4 28.75 104.4 27.55 104.4 26.7 105 26.25 105.6 25.8 106.6 25.8 107.55 25.8 108.45 26.25
L 108 27.4
Q 107.55 26.95 106.65 26.95 105.9 26.95 105.9 27.6 105.9 27.8 106.15 28 106.4 28.2 107.25 28.55 108.05 28.85 108.4 29.3
M 109.75 38.25
L 109.3 39.4
Q 108.85 38.95 107.95 38.95 107.2 38.95 107.2 39.6 107.2 39.8 107.45 40 107.7 40.2 108.55 40.55 109.35 40.85 109.7 41.3 110.1 41.8 110.1 42.45 110.1 43.3 109.45 43.8 108.8 44.3 107.7 44.3 107.05 44.3 106.7 44.2 106.3 44.1 105.7 43.8
L 106.25 42.65
Q 106.9 43.15 107.7 43.15 108.55 43.15 108.55 42.55 108.55 42.2 108.3 41.95 108.05 41.75 107.3 41.4 105.7 40.75 105.7 39.55 105.7 38.7 106.3 38.25 106.9 37.8 107.9 37.8 108.85 37.8 109.75 38.25
M 111.45 43.45
Q 111.45 43 111.8 42.7 112.1 42.4 112.5 42.4 112.95 42.4 113.25 42.7 113.6 43 113.6 43.45 113.6 43.85 113.25 44.2 112.95 44.5 112.5 44.5 112.1 44.5 111.8 44.2 111.45 43.85 111.45 43.45
M 116.5 50.7
Q 117.35 49.8 118.7 49.8 120.15 49.8 120.9 50.65 121.7 51.55 121.7 53.05 121.7 54.55 120.9 55.45 120.1 56.3 118.7 56.3 117.25 56.3 116.5 55.45 115.7 54.55 115.7 53.05 115.7 51.6 116.5 50.7
M 112.95 49.8
Q 114.05 49.8 114.85 50.4
L 114.25 51.5
Q 113.7 51.05 112.85 51.05 112 51.05 111.55 51.6 111.05 52.15 111.05 53.1 111.05 55.1 112.95 55.1 113.75 55.1 114.35 54.55
L 114.9 55.7
Q 114.25 56.1 113.8 56.2 113.3 56.3 112.65 56.3 111.2 56.3 110.35 55.45 109.55 54.6 109.55 53.1 109.55 51.65 110.45 50.7 111.35 49.8 112.95 49.8
M 106.9 54.25
L 106.9 49.9 108.35 49.9 108.35 56.2 106.9 56.2 106.9 55.7
Q 106.55 55.95 106.05 56.15 105.5 56.3 105.05 56.3 102.85 56.3 102.85 54
L 102.85 49.9 104.3 49.9 104.3 53.9
Q 104.3 55.1 105.4 55.1 105.9 55.1 106.3 54.85 106.75 54.6 106.9 54.25
M 108 66.55
L 108.55 67.7
Q 107.75 68.3 106.25 68.3 104.8 68.3 103.95 67.5 103.15 66.65 103.15 65.15 103.15 63.65 104.05 62.75 104.95 61.8 106.25 61.8 107.6 61.8 108.45 62.6 109.25 63.45 109.25 64.7 109.25 64.95 109.15 65.5
L 104.65 65.5
Q 104.7 66.25 105.2 66.7 105.65 67.1 106.45 67.1 107.45 67.1 108 66.55
M 102.65 62.05
L 102 63.3
Q 101.65 63.05 101.15 63.05 100.65 63.05 100.25 63.5 99.85 63.95 99.85 64.65
L 99.85 68.2 98.4 68.2 98.4 61.9 99.85 61.9 99.85 62.5
Q 100.45 61.8 101.5 61.8 102.25 61.8 102.65 62.05
M 104.4 71.35
L 105.95 71.35 106.95 73.1 105.75 73.1 104.4 71.35
M 104.05 74.15
Q 104.8 73.8 105.85 73.8 107.25 73.8 107.95 74.45 108.6 75.1 108.6 76.95
L 108.6 78.3
Q 108.6 79.55 109.1 79.85 108.9 80.15 108.7 80.25 108.5 80.3 108.2 80.3 107.9 80.3 107.6 80.1 107.35 79.85 107.3 79.55 107.1 79.9 106.6 80.1 106.1 80.3 105.55 80.3 104.55 80.3 103.95 79.8 103.4 79.3 103.4 78.35 103.4 77.3 104.2 76.65 105 76.05 106.5 76.05 106.8 76.05 107.15 76.15 107.15 75.05 105.75 75.05 104.9 75.05 104.35 75.3
L 104.05 74.15
M 98.65 49.8
Q 100.1 49.8 100.85 50.65 101.65 51.55 101.65 53.05 101.65 54.55 100.85 55.45 100.05 56.3 98.65 56.3 97.2 56.3 96.45 55.45 95.65 54.55 95.65 53.05 95.65 51.6 96.45 50.7 97.3 49.8 98.65 49.8
M 94.75 53.1
Q 94.75 54.65 93.9 55.5 93.1 56.3 91.65 56.3 90.95 56.3 90.4 56.05
L 90.4 58.65 88.9 58.65 88.9 49.9 90.4 49.9 90.4 50.35
Q 90.95 49.8 91.75 49.8 94.75 49.8 94.75 53.1
M 81.65 52
Q 81.9 52.2 82.75 52.55 83.55 52.85 83.9 53.3 84.3 53.8 84.3 54.45 84.3 55.3 83.65 55.8 83 56.3 81.9 56.3 81.25 56.3 80.9 56.2 80.5 56.1 79.9 55.8
L 80.45 54.65
Q 81.1 55.15 81.9 55.15 82.75 55.15 82.75 54.55 82.75 54.2 82.5 53.95 82.25 53.75 81.5 53.4 79.9 52.75 79.9 51.55 79.9 50.7 80.5 50.25 81.1 49.8 82.1 49.8 83.05 49.8 83.95 50.25
L 83.5 51.4
Q 83.05 50.95 82.15 50.95 81.4 50.95 81.4 51.6 81.4 51.8 81.65 52
M 86.75 60.65
L 88.25 60.1 88.25 61.9 89.95 61.9 89.95 63.1 88.25 63.1 88.25 65.85
Q 88.25 66.5 88.45 66.8 88.65 67.1 89.2 67.1 89.7 67.1 90.15 66.8
L 90.15 68.15
Q 89.65 68.3 88.7 68.3 87.75 68.3 87.25 67.8 86.75 67.25 86.75 66.3
L 86.75 63.1 86.05 63.1 86.05 61.9 86.75 61.9 86.75 60.65
M 85.05 62.25
L 84.6 63.4
Q 84.15 62.95 83.25 62.95 82.5 62.95 82.5 63.6 82.5 63.8 82.75 64 83 64.2 83.85 64.55 84.65 64.85 85 65.3 85.4 65.8 85.4 66.45 85.4 67.3 84.75 67.8 84.1 68.3 83 68.3 82.35 68.3 82 68.2 81.6 68.1 81 67.8
L 81.55 66.65
Q 82.2 67.15 83 67.15 83.85 67.15 83.85 66.55 83.85 66.2 83.6 65.95 83.35 65.75 82.6 65.4 81 64.75 81 63.55 81 62.7 81.6 62.25 82.2 61.8 83.2 61.8 84.15 61.8 85.05 62.25
M 82.45 71.35
L 81.15 73.1 80 73.1 81 71.35 82.45 71.35
M 90.5 72.35
Q 90.5 72 90.75 71.75 91 71.5 91.35 71.5 91.7 71.5 91.95 71.75 92.2 72 92.2 72.35 92.2 72.7 91.95 72.95 91.7 73.2 91.35 73.2 91 73.2 90.75 72.95 90.5 72.7 90.5 72.35
M 88.15 73.8
Q 88.9 73.8 89.3 74.05
L 88.65 75.3
Q 88.3 75.05 87.8 75.05 87.3 75.05 86.9 75.5 86.5 75.95 86.5 76.65
L 86.5 80.2 85.05 80.2 85.05 73.9 86.5 73.9 86.5 74.5
Q 87.1 73.8 88.15 73.8
M 91.3 66
L 91.3 61.9 92.75 61.9 92.75 65.9
Q 92.75 67.1 93.85 67.1 94.35 67.1 94.75 66.85 95.2 66.6 95.35 66.25
L 95.35 61.9 96.8 61.9 96.8 68.2 95.35 68.2 95.35 67.7
Q 95 67.95 94.5 68.15 93.95 68.3 93.5 68.3 91.3 68.3 91.3 66
M 94.05 74.15
Q 94.8 73.8 95.85 73.8 97.25 73.8 97.95 74.45 98.6 75.1 98.6 76.95
L 98.6 78.3
Q 98.6 79.55 99.1 79.85 98.9 80.15 98.7 80.25 98.5 80.3 98.2 80.3 97.9 80.3 97.6 80.1 97.35 79.85 97.3 79.55 97.1 79.9 96.6 80.1 96.1 80.3 95.55 80.3 94.55 80.3 93.95 79.8 93.4 79.3 93.4 78.35 93.4 77.3 94.2 76.65 95 76.05 96.5 76.05 96.8 76.05 97.15 76.15 97.15 75.05 95.75 75.05 94.9 75.05 94.35 75.3
L 94.05 74.15
M 89.8 73.9
L 92.05 73.9 92.05 80.2 90.6 80.2 90.6 75.15 89.8 75.15 89.8 73.9
M 82.8 74.45
Q 83.45 75.1 83.45 76.95
L 83.45 78.3
Q 83.45 79.55 83.95 79.85 83.75 80.15 83.55 80.25 83.35 80.3 83.05 80.3 82.75 80.3 82.45 80.1 82.2 79.85 82.15 79.55 81.95 79.9 81.45 80.1 80.95 80.3 80.4 80.3 79.4 80.3 78.8 79.8 78.25 79.3 78.25 78.35 78.25 77.3 79.05 76.65 79.85 76.05 81.35 76.05 81.65 76.05 82 76.15 82 75.05 80.6 75.05 79.75 75.05 79.2 75.3
L 78.9 74.15
Q 79.65 73.8 80.7 73.8 82.1 73.8 82.8 74.45
M 81.65 86.15
Q 82.4 85.8 83.45 85.8 84.85 85.8 85.55 86.45 86.2 87.1 86.2 88.95
L 86.2 90.3
Q 86.2 91.55 86.7 91.85 86.5 92.15 86.3 92.25 86.1 92.3 85.8 92.3 85.5 92.3 85.2 92.1 84.95 91.85 84.9 91.55 84.7 91.9 84.2 92.1 83.7 92.3 83.15 92.3 82.15 92.3 81.55 91.8 81 91.3 81 90.35 81 89.3 81.8 88.65 82.6 88.05 84.1 88.05 84.4 88.05 84.75 88.15 84.75 87.05 83.35 87.05 82.5 87.05 81.95 87.3
L 81.65 86.15
M 88 86.25
Q 88.6 85.8 89.6 85.8 90.55 85.8 91.45 86.25
L 91 87.4
Q 90.55 86.95 89.65 86.95 88.9 86.95 88.9 87.6 88.9 87.8 89.15 88 89.4 88.2 90.25 88.55 91.05 88.85 91.4 89.3 91.8 89.8 91.8 90.45 91.8 91.3 91.15 91.8 90.5 92.3 89.4 92.3 88.75 92.3 88.4 92.2 88 92.1 87.4 91.8
L 87.95 90.65
Q 88.6 91.15 89.4 91.15 90.25 91.15 90.25 90.55 90.25 90.2 90 89.95 89.75 89.75 89 89.4 87.4 88.75 87.4 87.55 87.4 86.7 88 86.25
M 100.3 92.2
Q 99.95 91.85 99.95 91.45 99.95 91 100.3 90.7 100.6 90.4 101 90.4 101.45 90.4 101.75 90.7 102.1 91 102.1 91.45 102.1 91.85 101.75 92.2 101.45 92.5 101 92.5 100.6 92.5 100.3 92.2
M 97.75 86.65
Q 98.55 87.55 98.55 89.05 98.55 90.55 97.75 91.45 96.95 92.3 95.55 92.3 94.1 92.3 93.35 91.45 92.55 90.55 92.55 89.05 92.55 87.6 93.35 86.7 94.2 85.8 95.55 85.8 97 85.8 97.75 86.65
M 68.3 16.15
Q 68.3 15.05 66.9 15.05 66.05 15.05 65.5 15.3
L 65.2 14.15
Q 65.95 13.8 67 13.8 68.4 13.8 69.1 14.45 69.75 15.1 69.75 16.95
L 69.75 18.3
Q 69.75 19.55 70.25 19.85 70.05 20.15 69.85 20.25 69.65 20.3 69.35 20.3 69.05 20.3 68.75 20.1 68.5 19.85 68.45 19.55 68.25 19.9 67.75 20.1 67.25 20.3 66.7 20.3 65.7 20.3 65.1 19.8 64.55 19.3 64.55 18.35 64.55 17.3 65.35 16.65 66.15 16.05 67.65 16.05 67.95 16.05 68.3 16.15
M 63.6 15.1
L 61.9 15.1 61.9 17.85
Q 61.9 18.5 62.1 18.8 62.3 19.1 62.85 19.1 63.35 19.1 63.8 18.8
L 63.8 20.15
Q 63.3 20.3 62.35 20.3 61.4 20.3 60.9 19.8 60.4 19.25 60.4 18.3
L 60.4 15.1 59.7 15.1 59.7 13.9 60.4 13.9 60.4 12.65 61.9 12.1 61.9 13.9 63.6 13.9 63.6 15.1
M 79.5 14.4
Q 80.05 15 80.05 16.05
L 80.05 20.2 78.6 20.2 78.6 16.25
Q 78.6 15.05 77.5 15.05 77.15 15.05 76.85 15.25 76.55 15.4 76.45 15.65
L 76.45 20.2 74.95 20.2 74.95 16.05
Q 74.95 15.6 74.7 15.3 74.4 15.05 73.9 15.05 73.6 15.05 73.3 15.25 72.95 15.45 72.8 15.7
L 72.8 20.2 71.35 20.2 71.35 13.9 72.35 13.9 72.65 14.5
Q 73.25 13.8 74.2 13.8 75.45 13.8 76.1 14.5 76.4 14.2 76.85 14 77.35 13.8 77.85 13.8 78.9 13.8 79.5 14.4
M 74.8 24.35
Q 74.8 24 75.05 23.75 75.3 23.5 75.65 23.5 76 23.5 76.25 23.75 76.5 24 76.5 24.35 76.5 24.7 76.25 24.95 76 25.2 75.65 25.2 75.3 25.2 75.05 24.95 74.8 24.7 74.8 24.35
M 47 15.05
Q 46.15 15.05 45.6 15.3
L 45.3 14.15
Q 46.05 13.8 47.1 13.8 48.5 13.8 49.2 14.45 49.85 15.1 49.85 16.95
L 49.85 18.3
Q 49.85 19.55 50.35 19.85 50.15 20.15 49.95 20.25 49.75 20.3 49.45 20.3 49.15 20.3 48.85 20.1 48.6 19.85 48.55 19.55 48.35 19.9 47.85 20.1 47.35 20.3 46.8 20.3 45.8 20.3 45.2 19.8 44.65 19.3 44.65 18.35 44.65 17.3 45.45 16.65 46.25 16.05 47.75 16.05 48.05 16.05 48.4 16.15 48.4 15.05 47 15.05
M 53.25 13.8
Q 54.2 13.8 55.1 14.25
L 54.65 15.4
Q 54.2 14.95 53.3 14.95 52.55 14.95 52.55 15.6 52.55 15.8 52.8 16 53.05 16.2 53.9 16.55 54.7 16.85 55.05 17.3 55.45 17.8 55.45 18.45 55.45 19.3 54.8 19.8 54.15 20.3 53.05 20.3 52.4 20.3 52.05 20.2 51.65 20.1 51.05 19.8
L 51.6 18.65
Q 52.25 19.15 53.05 19.15 53.9 19.15 53.9 18.55 53.9 18.2 53.65 17.95 53.4 17.75 52.65 17.4 51.05 16.75 51.05 15.55 51.05 14.7 51.65 14.25 52.25 13.8 53.25 13.8
M 59.5 26.25
L 59.05 27.4
Q 58.6 26.95 57.7 26.95 56.95 26.95 56.95 27.6 56.95 27.8 57.2 28 57.45 28.2 58.3 28.55 59.1 28.85 59.45 29.3 59.85 29.8 59.85 30.45 59.85 31.3 59.2 31.8 58.55 32.3 57.45 32.3 56.8 32.3 56.45 32.2 56.05 32.1 55.45 31.8
L 56 30.65
Q 56.65 31.15 57.45 31.15 58.3 31.15 58.3 30.55 58.3 30.2 58.05 29.95 57.8 29.75 57.05 29.4 55.45 28.75 55.45 27.55 55.45 26.7 56.05 26.25 56.65 25.8 57.65 25.8 58.6 25.8 59.5 26.25
M 50.7 29.3
Q 51.1 29.8 51.1 30.45 51.1 31.3 50.45 31.8 49.8 32.3 48.7 32.3 48.05 32.3 47.7 32.2 47.3 32.1 46.7 31.8
L 47.25 30.65
Q 47.9 31.15 48.7 31.15 49.55 31.15 49.55 30.55 49.55 30.2 49.3 29.95 49.05 29.75 48.3 29.4 46.7 28.75 46.7 27.55 46.7 26.7 47.3 26.25 47.9 25.8 48.9 25.8 49.85 25.8 50.75 26.25
L 50.3 27.4
Q 49.85 26.95 48.95 26.95 48.2 26.95 48.2 27.6 48.2 27.8 48.45 28 48.7 28.2 49.55 28.55 50.35 28.85 50.7 29.3
M 42.9 25.8
Q 44.35 25.8 45.1 26.65 45.9 27.55 45.9 29.05 45.9 30.55 45.1 31.45 44.3 32.3 42.9 32.3 41.45 32.3 40.7 31.45 39.9 30.55 39.9 29.05 39.9 27.6 40.7 26.7 41.55 25.8 42.9 25.8
M 47.55 38.5
Q 48.15 37.8 49.2 37.8 49.95 37.8 50.35 38.05
L 49.7 39.3
Q 49.35 39.05 48.85 39.05 48.35 39.05 47.95 39.5 47.55 39.95 47.55 40.65
L 47.55 44.2 46.1 44.2 46.1 37.9 47.55 37.9 47.55 38.5
M 41.8 37.8
Q 44.8 37.8 44.8 41.1 44.8 42.65 43.95 43.5 43.15 44.3 41.7 44.3 41 44.3 40.45 44.05
L 40.45 46.65 38.95 46.65 38.95 37.9 40.45 37.9 40.45 38.35
Q 41 37.8 41.8 37.8
M 56.95 40.7
Q 56.95 40.95 56.85 41.5
L 52.35 41.5
Q 52.4 42.25 52.9 42.7 53.35 43.1 54.15 43.1 55.15 43.1 55.7 42.55
L 56.25 43.7
Q 55.45 44.3 53.95 44.3 52.5 44.3 51.65 43.5 50.85 42.65 50.85 41.15 50.85 39.65 51.75 38.75 52.65 37.8 53.95 37.8 55.3 37.8 56.15 38.6 56.95 39.45 56.95 40.7
M 50.75 47.6
L 52.25 47.25 52.25 50.3
Q 52.8 49.8 53.8 49.8 54.95 49.8 55.6 50.45 56.25 51.1 56.25 52.35
L 56.25 56.2 54.8 56.2 54.8 52.35
Q 54.8 51.75 54.45 51.4 54.1 51.05 53.5 51.05 53.15 51.05 52.75 51.25 52.4 51.45 52.25 51.7
L 52.25 56.2 50.75 56.2 50.75 47.6
M 72.25 26.5
Q 72.9 27.15 72.9 28.35
L 72.9 32.2 71.45 32.2 71.45 28.55
Q 71.45 27.75 71.1 27.4 70.8 27.05 70.1 27.05 69.8 27.05 69.45 27.2 69.05 27.4 68.85 27.65
L 68.85 32.2 67.4 32.2 67.4 25.9 68.45 25.9 68.7 26.5
Q 69.3 25.8 70.5 25.8 71.6 25.8 72.25 26.5
M 74.1 27.15
L 74.1 25.9 76.35 25.9 76.35 32.2 74.9 32.2 74.9 27.15 74.1 27.15
M 62.95 27.05
Q 62.1 27.05 61.55 27.3
L 61.25 26.15
Q 62 25.8 63.05 25.8 64.45 25.8 65.15 26.45 65.8 27.1 65.8 28.95
L 65.8 30.3
Q 65.8 31.55 66.3 31.85 66.1 32.15 65.9 32.25 65.7 32.3 65.4 32.3 65.1 32.3 64.8 32.1 64.55 31.85 64.5 31.55 64.3 31.9 63.8 32.1 63.3 32.3 62.75 32.3 61.75 32.3 61.15 31.8 60.6 31.3 60.6 30.35 60.6 29.3 61.4 28.65 62.2 28.05 63.7 28.05 64 28.05 64.35 28.15 64.35 27.05 62.95 27.05
M 65.25 36.7
Q 64.75 36.55 64.5 36.55 64.1 36.55 63.8 36.9 63.5 37.25 63.5 37.75 63.5 37.85 63.5 37.9
L 64.8 37.9 64.8 39.15 63.55 39.15 63.55 44.2 62.05 44.2 62.05 39.15 61.15 39.15 61.15 37.9 62.1 37.9
Q 62.1 36.75 62.75 36.05 63.4 35.35 64.4 35.35 64.9 35.35 65.65 35.6
L 65.25 36.7
M 66.7 38.75
Q 67.6 37.8 68.9 37.8 70.25 37.8 71.1 38.6 71.9 39.45 71.9 40.7 71.9 40.95 71.8 41.5
L 67.3 41.5
Q 67.35 42.25 67.85 42.7 68.3 43.1 69.1 43.1 70.1 43.1 70.65 42.55
L 71.2 43.7
Q 70.4 44.3 68.9 44.3 67.45 44.3 66.6 43.5 65.8 42.65 65.8 41.15 65.8 39.65 66.7 38.75
M 65.05 48.35
Q 65.05 48 65.3 47.75 65.55 47.5 65.9 47.5 66.25 47.5 66.5 47.75 66.75 48 66.75 48.35 66.75 48.7 66.5 48.95 66.25 49.2 65.9 49.2 65.55 49.2 65.3 48.95 65.05 48.7 65.05 48.35
M 76.1 37.8
Q 77.2 37.8 78 38.4
L 77.4 39.5
Q 76.85 39.05 76 39.05 75.15 39.05 74.7 39.6 74.2 40.15 74.2 41.1 74.2 43.1 76.1 43.1 76.9 43.1 77.5 42.55
L 78.05 43.7
Q 77.4 44.1 76.95 44.2 76.45 44.3 75.8 44.3 74.35 44.3 73.5 43.45 72.7 42.6 72.7 41.1 72.7 39.65 73.6 38.7 74.5 37.8 76.1 37.8
M 25.45 11.5
Q 25.8 11.5 26.05 11.75 26.3 12 26.3 12.35 26.3 12.7 26.05 12.95 25.8 13.2 25.45 13.2 25.1 13.2 24.85 12.95 24.6 12.7 24.6 12.35 24.6 12 24.85 11.75 25.1 11.5 25.45 11.5
M 29 13.9
L 30.35 15.85 31.8 13.9 33.5 13.9 31.05 17 33.7 20.2 31.9 20.2 30.3 18.15 28.85 20.2 27.15 20.2 29.55 17 27.3 13.9 29 13.9
M 22.3 14.6
Q 23.1 15.45 23.1 16.7 23.1 16.95 23 17.5
L 18.5 17.5
Q 18.55 18.25 19.05 18.7 19.5 19.1 20.3 19.1 21.3 19.1 21.85 18.55
L 22.4 19.7
Q 21.6 20.3 20.1 20.3 18.65 20.3 17.8 19.5 17 18.65 17 17.15 17 15.65 17.9 14.75 18.8 13.8 20.1 13.8 21.45 13.8 22.3 14.6
M 24.7 15.15
L 23.9 15.15 23.9 13.9 26.15 13.9 26.15 20.2 24.7 20.2 24.7 15.15
M 40.15 17.5
L 35.65 17.5
Q 35.7 18.25 36.2 18.7 36.65 19.1 37.45 19.1 38.45 19.1 39 18.55
L 39.55 19.7
Q 38.75 20.3 37.25 20.3 35.8 20.3 34.95 19.5 34.15 18.65 34.15 17.15 34.15 15.65 35.05 14.75 35.95 13.8 37.25 13.8 38.6 13.8 39.45 14.6 40.25 15.45 40.25 16.7 40.25 16.95 40.15 17.5
M 15.05 12.65
Q 16.15 13.75 16.15 15.55 16.15 20.2 11.7 20.2
L 9.8 20.2 9.8 11.6
Q 11.6 11.55 12.05 11.55 13.95 11.55 15.05 12.65
M 17.85 39.6
Q 17.85 39.8 18.1 40 18.35 40.2 19.2 40.55 20 40.85 20.35 41.3 20.75 41.8 20.75 42.45 20.75 43.3 20.1 43.8 19.45 44.3 18.35 44.3 17.7 44.3 17.35 44.2 16.95 44.1 16.35 43.8
L 16.9 42.65
Q 17.55 43.15 18.35 43.15 19.2 43.15 19.2 42.55 19.2 42.2 18.95 41.95 18.7 41.75 17.95 41.4 16.35 40.75 16.35 39.55 16.35 38.7 16.95 38.25 17.55 37.8 18.55 37.8 19.5 37.8 20.4 38.25
L 19.95 39.4
Q 19.5 38.95 18.6 38.95 17.85 38.95 17.85 39.6
M 15.05 47.6
L 15.05 48.95 11.1 48.95 11.1 51 13.95 51 13.95 52.25 11.1 52.25 11.1 54.85 15 54.85 15 56.2 9.6 56.2 9.6 47.6 15.05 47.6
M 38.8 26.25
L 38.35 27.4
Q 37.9 26.95 37 26.95 36.25 26.95 36.25 27.6 36.25 27.8 36.5 28 36.75 28.2 37.6 28.55 38.4 28.85 38.75 29.3 39.15 29.8 39.15 30.45 39.15 31.3 38.5 31.8 37.85 32.3 36.75 32.3 36.1 32.3 35.75 32.2 35.35 32.1 34.75 31.8
L 35.3 30.65
Q 35.95 31.15 36.75 31.15 37.6 31.15 37.6 30.55 37.6 30.2 37.35 29.95 37.1 29.75 36.35 29.4 34.75 28.75 34.75 27.55 34.75 26.7 35.35 26.25 35.95 25.8 36.95 25.8 37.9 25.8 38.8 26.25
M 33.55 28.95
L 33.55 30.3
Q 33.55 31.55 34.05 31.85 33.85 32.15 33.65 32.25 33.45 32.3 33.15 32.3 32.85 32.3 32.55 32.1 32.3 31.85 32.25 31.55 32.05 31.9 31.55 32.1 31.05 32.3 30.5 32.3 29.5 32.3 28.9 31.8 28.35 31.3 28.35 30.35 28.35 29.3 29.15 28.65 29.95 28.05 31.45 28.05 31.75 28.05 32.1 28.15 32.1 27.05 30.7 27.05 29.85 27.05 29.3 27.3
L 29 26.15
Q 29.75 25.8 30.8 25.8 32.2 25.8 32.9 26.45 33.55 27.1 33.55 28.95
M 26.4 25.9
L 27.95 25.9 25.05 32.3 24.5 32.3 21.7 25.9 23.3 25.9 24.8 29.75 26.4 25.9
M 29.8 37.9
L 30.1 38.5
Q 30.7 37.8 31.65 37.8 32.9 37.8 33.55 38.5 33.85 38.2 34.3 38 34.8 37.8 35.3 37.8 36.35 37.8 36.95 38.4 37.5 39 37.5 40.05
L 37.5 44.2 36.05 44.2 36.05 40.25
Q 36.05 39.05 34.95 39.05 34.6 39.05 34.3 39.25 34 39.4 33.9 39.65
L 33.9 44.2 32.4 44.2 32.4 40.05
Q 32.4 39.6 32.15 39.3 31.85 39.05 31.35 39.05 31.05 39.05 30.75 39.25 30.4 39.45 30.25 39.7
L 30.25 44.2 28.8 44.2 28.8 37.9 29.8 37.9
M 26.8 38.6
Q 27.6 39.45 27.6 40.7 27.6 40.95 27.5 41.5
L 23 41.5
Q 23.05 42.25 23.55 42.7 24 43.1 24.8 43.1 25.8 43.1 26.35 42.55
L 26.9 43.7
Q 26.1 44.3 24.6 44.3 23.15 44.3 22.3 43.5 21.5 42.65 21.5 41.15 21.5 39.65 22.4 38.75 23.3 37.8 24.6 37.8 25.95 37.8 26.8 38.6
M 30.1 47.6
L 31.6 47.25 31.6 50.15
Q 32.15 49.8 32.85 49.8 34.25 49.8 35.1 50.7 35.95 51.55 35.95 52.9 35.95 54.5 35.1 55.4 34.25 56.3 32.8 56.3 31.9 56.3 31.3 55.85
L 30.95 56.3 30.1 56.3 30.1 47.6
M 37.5 50.15
Q 38.25 49.8 39.3 49.8 40.7 49.8 41.4 50.45 42.05 51.1 42.05 52.95
L 42.05 54.3
Q 42.05 55.55 42.55 55.85 42.35 56.15 42.15 56.25 41.95 56.3 41.65 56.3 41.35 56.3 41.05 56.1 40.8 55.85 40.75 55.55 40.55 55.9 40.05 56.1 39.55 56.3 39 56.3 38 56.3 37.4 55.8 36.85 55.3 36.85 54.35 36.85 53.3 37.65 52.65 38.45 52.05 39.95 52.05 40.25 52.05 40.6 52.15 40.6 51.05 39.2 51.05 38.35 51.05 37.8 51.3
L 37.5 50.15
M 21.85 51.25
Q 21.55 51.4 21.45 51.65
L 21.45 56.2 19.95 56.2 19.95 52.05
Q 19.95 51.6 19.7 51.3 19.4 51.05 18.9 51.05 18.6 51.05 18.3 51.25 17.95 51.45 17.8 51.7
L 17.8 56.2 16.35 56.2 16.35 49.9 17.35 49.9 17.65 50.5
Q 18.25 49.8 19.2 49.8 20.45 49.8 21.1 50.5 21.4 50.2 21.85 50 22.35 49.8 22.85 49.8 23.9 49.8 24.5 50.4 25.05 51 25.05 52.05
L 25.05 56.2 23.6 56.2 23.6 52.25
Q 23.6 51.05 22.5 51.05 22.15 51.05 21.85 51.25
M 28.65 63.55
Q 28.65 62.7 29.25 62.25 29.85 61.8 30.85 61.8 31.8 61.8 32.7 62.25
L 32.25 63.4
Q 31.8 62.95 30.9 62.95 30.15 62.95 30.15 63.6 30.15 63.8 30.4 64 30.65 64.2 31.5 64.55 32.3 64.85 32.65 65.3 33.05 65.8 33.05 66.45 33.05 67.3 32.4 67.8 31.75 68.3 30.65 68.3 30 68.3 29.65 68.2 29.25 68.1 28.65 67.8
L 29.2 66.65
Q 29.85 67.15 30.65 67.15 31.5 67.15 31.5 66.55 31.5 66.2 31.25 65.95 31 65.75 30.25 65.4 28.65 64.75 28.65 63.55
M 26 61.9
L 27.45 61.9 27.45 68.2 26 68.2 26 67.7
Q 25.65 67.95 25.15 68.15 24.6 68.3 24.15 68.3 21.95 68.3 21.95 66
L 21.95 61.9 23.4 61.9 23.4 65.9
Q 23.4 67.1 24.5 67.1 25 67.1 25.4 66.85 25.85 66.6 26 66.25
L 26 61.9
M 22.4 74.15
Q 23.15 73.8 24.2 73.8 25.6 73.8 26.3 74.45 26.95 75.1 26.95 76.95
L 26.95 78.3
Q 26.95 79.55 27.45 79.85 27.25 80.15 27.05 80.25 26.85 80.3 26.55 80.3 26.25 80.3 25.95 80.1 25.7 79.85 25.65 79.55 25.45 79.9 24.95 80.1 24.45 80.3 23.9 80.3 22.9 80.3 22.3 79.8 21.75 79.3 21.75 78.35 21.75 77.3 22.55 76.65 23.35 76.05 24.85 76.05 25.15 76.05 25.5 76.15 25.5 75.05 24.1 75.05 23.25 75.05 22.7 75.3
L 22.4 74.15
M 24.65 73.1
L 23.5 73.1 24.5 71.35 25.95 71.35 24.65 73.1
M 37.55 64.15
Q 37.55 63.05 36.15 63.05 35.3 63.05 34.75 63.3
L 34.45 62.15
Q 35.2 61.8 36.25 61.8 37.65 61.8 38.35 62.45 39 63.1 39 64.95
L 39 66.3
Q 39 67.55 39.5 67.85 39.3 68.15 39.1 68.25 38.9 68.3 38.6 68.3 38.3 68.3 38 68.1 37.75 67.85 37.7 67.55 37.5 67.9 37 68.1 36.5 68.3 35.95 68.3 34.95 68.3 34.35 67.8 33.8 67.3 33.8 66.35 33.8 65.3 34.6 64.65 35.4 64.05 36.9 64.05 37.2 64.05 37.55 64.15
M 30.6 73.8
Q 31.45 73.8 32 74.1
L 32.6 73.45 33.6 74.35 32.9 74.85
Q 33.25 75.4 33.25 76.15 33.25 77.25 32.6 77.9 31.95 78.55 30.95 78.55 30.8 78.55 30.55 78.5
L 30.3 78.45
Q 30.25 78.45 30 78.6 29.7 78.7 29.7 78.85 29.7 79.1 30.1 79.1 30.3 79.1 30.75 79 31.15 78.9 31.45 78.9 33.6 78.9 33.6 80.65 33.6 81.6 32.75 82.1 31.9 82.65 30.7 82.65 29.25 82.65 28.05 81.8
L 29 80.65
Q 29.75 81.35 30.7 81.35 31.35 81.35 31.75 81.2 32.15 81 32.15 80.65 32.15 80.1 31.25 80.1 31 80.1 30.5 80.15 30.05 80.25 29.8 80.25 28.3 80.25 28.3 79.15 28.3 78.85 28.55 78.55 28.8 78.25 29.1 78.1 28.05 77.4 28.05 76.1 28.05 75.1 28.8 74.45 29.5 73.8 30.6 73.8
M 38.6 73.9
L 40.05 73.9 40.05 80.2 38.6 80.2 38.6 79.7
Q 38.25 79.95 37.75 80.15 37.2 80.3 36.75 80.3 34.55 80.3 34.55 78
L 34.55 73.9 36 73.9 36 77.9
Q 36 79.1 37.1 79.1 37.6 79.1 38 78.85 38.45 78.6 38.6 78.25
L 38.6 73.9
M 32.05 83.35
L 30.75 85.1 29.6 85.1 30.6 83.35 32.05 83.35
M 38.7 85.45
L 39.7 86.35 39 86.85
Q 39.35 87.4 39.35 88.15 39.35 89.25 38.7 89.9 38.05 90.55 37.05 90.55 36.9 90.55 36.65 90.5
L 36.4 90.45
Q 36.35 90.45 36.1 90.6 35.8 90.7 35.8 90.85 35.8 91.1 36.2 91.1 36.4 91.1 36.85 91 37.25 90.9 37.55 90.9 39.7 90.9 39.7 92.65 39.7 93.6 38.85 94.1 38 94.65 36.8 94.65 35.35 94.65 34.15 93.8
L 35.1 92.65
Q 35.85 93.35 36.8 93.35 37.45 93.35 37.85 93.2 38.25 93 38.25 92.65 38.25 92.1 37.35 92.1 37.1 92.1 36.6 92.15 36.15 92.25 35.9 92.25 34.4 92.25 34.4 91.15 34.4 90.85 34.65 90.55 34.9 90.25 35.2 90.1 34.15 89.4 34.15 88.1 34.15 87.1 34.9 86.45 35.6 85.8 36.7 85.8 37.55 85.8 38.1 86.1
L 38.7 85.45
M 28.5 86.15
Q 29.25 85.8 30.3 85.8 31.7 85.8 32.4 86.45 33.05 87.1 33.05 88.95
L 33.05 90.3
Q 33.05 91.55 33.55 91.85 33.35 92.15 33.15 92.25 32.95 92.3 32.65 92.3 32.35 92.3 32.05 92.1 31.8 91.85 31.75 91.55 31.55 91.9 31.05 92.1 30.55 92.3 30 92.3 29 92.3 28.4 91.8 27.85 91.3 27.85 90.35 27.85 89.3 28.65 88.65 29.45 88.05 30.95 88.05 31.25 88.05 31.6 88.15 31.6 87.05 30.2 87.05 29.35 87.05 28.8 87.3
L 28.5 86.15
M 76.1 49.8
Q 77.55 49.8 78.3 50.65 79.1 51.55 79.1 53.05 79.1 54.55 78.3 55.45 77.5 56.3 76.1 56.3 74.65 56.3 73.9 55.45 73.1 54.55 73.1 53.05 73.1 51.6 73.9 50.7 74.75 49.8 76.1 49.8
M 71.45 49.8
Q 72.2 49.8 72.6 50.05
L 71.95 51.3
Q 71.6 51.05 71.1 51.05 70.6 51.05 70.2 51.5 69.8 51.95 69.8 52.65
L 69.8 56.2 68.35 56.2 68.35 49.9 69.8 49.9 69.8 50.5
Q 70.4 49.8 71.45 49.8
M 78.1 60.35
Q 78.1 60 78.35 59.75 78.6 59.5 78.95 59.5 79.3 59.5 79.55 59.75 79.8 60 79.8 60.35 79.8 60.7 79.55 60.95 79.3 61.2 78.95 61.2 78.6 61.2 78.35 60.95 78.1 60.7 78.1 60.35
M 64.35 51.15
L 64.35 49.9 66.6 49.9 66.6 56.2 65.15 56.2 65.15 51.15 64.35 51.15
M 60.75 55.1
Q 61.75 55.1 62.3 54.55
L 62.85 55.7
Q 62.05 56.3 60.55 56.3 59.1 56.3 58.25 55.5 57.45 54.65 57.45 53.15 57.45 51.65 58.35 50.75 59.25 49.8 60.55 49.8 61.9 49.8 62.75 50.6 63.55 51.45 63.55 52.7 63.55 52.95 63.45 53.5
L 58.95 53.5
Q 59 54.25 59.5 54.7 59.95 55.1 60.75 55.1
M 68.5 61.9
L 68.8 62.5
Q 69.4 61.8 70.35 61.8 71.6 61.8 72.25 62.5 72.55 62.2 73 62 73.5 61.8 74 61.8 75.05 61.8 75.65 62.4 76.2 63 76.2 64.05
L 76.2 68.2 74.75 68.2 74.75 64.25
Q 74.75 63.05 73.65 63.05 73.3 63.05 73 63.25 72.7 63.4 72.6 63.65
L 72.6 68.2 71.1 68.2 71.1 64.05
Q 71.1 63.6 70.85 63.3 70.55 63.05 70.05 63.05 69.75 63.05 69.45 63.25 69.1 63.45 68.95 63.7
L 68.95 68.2 67.5 68.2 67.5 61.9 68.5 61.9
M 60.9 66.6
Q 61.3 66.6 61.6 66.9 61.9 67.2 61.9 67.6 61.9 68.35 61.55 68.95 61.2 69.55 59.95 70.4
L 59.45 69.75
Q 60.55 68.95 60.55 68.5 60.55 68.3 60.4 68.15 59.85 67.9 59.85 67.4 59.85 67.05 60.15 66.8 60.45 66.6 60.9 66.6
M 63.2 73.9
L 64.25 73.9 64.5 74.5
Q 65.1 73.8 66.3 73.8 67.4 73.8 68.05 74.5 68.7 75.15 68.7 76.35
L 68.7 80.2 67.25 80.2 67.25 76.55
Q 67.25 75.75 66.9 75.4 66.6 75.05 65.9 75.05 65.6 75.05 65.25 75.2 64.85 75.4 64.65 75.65
L 64.65 80.2 63.2 80.2 63.2 73.9
M 70.6 72.35
Q 70.6 72 70.85 71.75 71.1 71.5 71.45 71.5 71.8 71.5 72.05 71.75 72.3 72 72.3 72.35 72.3 72.7 72.05 72.95 71.8 73.2 71.45 73.2 71.1 73.2 70.85 72.95 70.6 72.7 70.6 72.35
M 77.4 61.9
L 79.65 61.9 79.65 68.2 78.2 68.2 78.2 63.15 77.4 63.15 77.4 61.9
M 74.1 73.9
L 74.1 72.65 75.6 72.1 75.6 73.9 77.3 73.9 77.3 75.1 75.6 75.1 75.6 77.85
Q 75.6 78.5 75.8 78.8 76 79.1 76.55 79.1 77.05 79.1 77.5 78.8
L 77.5 80.15
Q 77 80.3 76.05 80.3 75.1 80.3 74.6 79.8 74.1 79.25 74.1 78.3
L 74.1 75.1 73.4 75.1 73.4 73.9 74.1 73.9
M 69.9 73.9
L 72.15 73.9 72.15 80.2 70.7 80.2 70.7 75.15 69.9 75.15 69.9 73.9
M 46.35 51.05
Q 46.05 51.05 45.7 51.2 45.3 51.4 45.1 51.65
L 45.1 56.2 43.65 56.2 43.65 49.9 44.7 49.9 44.95 50.5
Q 45.55 49.8 46.75 49.8 47.85 49.8 48.5 50.5 49.15 51.15 49.15 52.35
L 49.15 56.2 47.7 56.2 47.7 52.55
Q 47.7 51.75 47.35 51.4 47.05 51.05 46.35 51.05
M 44.65 59.6
L 46.1 59.25 46.1 68.2 44.65 68.2 44.65 67.8
Q 44.45 68 44 68.15 43.6 68.3 43.1 68.3 41.8 68.3 41.05 67.5 40.3 66.65 40.3 65.15 40.3 63.7 41.15 62.75 42.05 61.8 43.35 61.8 44.05 61.8 44.65 62.1
L 44.65 59.6
M 47.95 67.45
Q 47.15 66.55 47.15 65.05 47.15 63.6 47.95 62.7 48.8 61.8 50.15 61.8 51.6 61.8 52.35 62.65 53.15 63.55 53.15 65.05 53.15 66.55 52.35 67.45 51.55 68.3 50.15 68.3 48.7 68.3 47.95 67.45
M 41.9 74.15
Q 42.65 73.8 43.7 73.8 45.1 73.8 45.8 74.45 46.45 75.1 46.45 76.95
L 46.45 78.3
Q 46.45 79.55 46.95 79.85 46.75 80.15 46.55 80.25 46.35 80.3 46.05 80.3 45.75 80.3 45.45 80.1 45.2 79.85 45.15 79.55 44.95 79.9 44.45 80.1 43.95 80.3 43.4 80.3 42.4 80.3 41.8 79.8 41.25 79.3 41.25 78.35 41.25 77.3 42.05 76.65 42.85 76.05 44.35 76.05 44.65 76.05 45 76.15 45 75.05 43.6 75.05 42.75 75.05 42.2 75.3
L 41.9 74.15
M 55.7 64
Q 55.95 64.2 56.8 64.55 57.6 64.85 57.95 65.3 58.35 65.8 58.35 66.45 58.35 67.3 57.7 67.8 57.05 68.3 55.95 68.3 55.3 68.3 54.95 68.2 54.55 68.1 53.95 67.8
L 54.5 66.65
Q 55.15 67.15 55.95 67.15 56.8 67.15 56.8 66.55 56.8 66.2 56.55 65.95 56.3 65.75 55.55 65.4 53.95 64.75 53.95 63.55 53.95 62.7 54.55 62.25 55.15 61.8 56.15 61.8 57.1 61.8 58 62.25
L 57.55 63.4
Q 57.1 62.95 56.2 62.95 55.45 62.95 55.45 63.6 55.45 63.8 55.7 64
M 57.05 74.15
Q 57.8 73.8 58.85 73.8 60.25 73.8 60.95 74.45 61.6 75.1 61.6 76.95
L 61.6 78.3
Q 61.6 79.55 62.1 79.85 61.9 80.15 61.7 80.25 61.5 80.3 61.2 80.3 60.9 80.3 60.6 80.1 60.35 79.85 60.3 79.55 60.1 79.9 59.6 80.1 59.1 80.3 58.55 80.3 57.55 80.3 56.95 79.8 56.4 79.3 56.4 78.35 56.4 77.3 57.2 76.65 58 76.05 59.5 76.05 59.8 76.05 60.15 76.15 60.15 75.05 58.75 75.05 57.9 75.05 57.35 75.3
L 57.05 74.15
M 54.1 76.55
Q 54.9 76.85 55.25 77.3 55.65 77.8 55.65 78.45 55.65 79.3 55 79.8 54.35 80.3 53.25 80.3 52.6 80.3 52.25 80.2 51.85 80.1 51.25 79.8
L 51.8 78.65
Q 52.45 79.15 53.25 79.15 54.1 79.15 54.1 78.55 54.1 78.2 53.85 77.95 53.6 77.75 52.85 77.4 51.25 76.75 51.25 75.55 51.25 74.7 51.85 74.25 52.45 73.8 53.45 73.8 54.4 73.8 55.3 74.25
L 54.85 75.4
Q 54.4 74.95 53.5 74.95 52.75 74.95 52.75 75.6 52.75 75.8 53 76 53.25 76.2 54.1 76.55
M 40.65 85.9
L 42.1 85.9 42.1 89.9
Q 42.1 91.1 43.2 91.1 43.7 91.1 44.1 90.85 44.55 90.6 44.7 90.25
L 44.7 85.9 46.15 85.9 46.15 92.2 44.7 92.2 44.7 91.7
Q 44.35 91.95 43.85 92.15 43.3 92.3 42.85 92.3 40.65 92.3 40.65 90
L 40.65 85.9
M 48 86.15
Q 48.75 85.8 49.8 85.8 51.2 85.8 51.9 86.45 52.55 87.1 52.55 88.95
L 52.55 90.3
Q 52.55 91.55 53.05 91.85 52.85 92.15 52.65 92.25 52.45 92.3 52.15 92.3 51.85 92.3 51.55 92.1 51.3 91.85 51.25 91.55 51.05 91.9 50.55 92.1 50.05 92.3 49.5 92.3 48.5 92.3 47.9 91.8 47.35 91.3 47.35 90.35 47.35 89.3 48.15 88.65 48.95 88.05 50.45 88.05 50.75 88.05 51.1 88.15 51.1 87.05 49.7 87.05 48.85 87.05 48.3 87.3
L 48 86.15
M 57.45 89.15
Q 57.45 87.7 58.3 86.75 59.2 85.8 60.5 85.8 61.2 85.8 61.8 86.1
L 61.8 83.6 63.25 83.25 63.25 92.2 61.8 92.2 61.8 91.8
Q 61.6 92 61.15 92.15 60.75 92.3 60.25 92.3 58.95 92.3 58.2 91.5 57.45 90.65 57.45 89.15
M 79.05 85.9
L 80.6 85.9 77.7 92.3 77.15 92.3 74.35 85.9 75.95 85.9 77.45 89.75 79.05 85.9
M 69.5 91.45
Q 68.7 92.3 67.3 92.3 65.85 92.3 65.1 91.45 64.3 90.55 64.3 89.05 64.3 87.6 65.1 86.7 65.95 85.8 67.3 85.8 68.75 85.8 69.5 86.65 70.3 87.55 70.3 89.05 70.3 90.55 69.5 91.45
M 68.4 90.6
Q 68.8 90.05 68.8 89.05 68.8 87 67.3 87 66.6 87 66.2 87.55 65.8 88.1 65.8 89.05 65.8 91.1 67.3 91.1 68 91.1 68.4 90.6
M 59.45 87.6
Q 58.95 88.1 58.95 89.1 58.95 91.1 60.85 91.1 61.05 91.1 61.4 90.95 61.7 90.85 61.8 90.7
L 61.8 87.4
Q 61.3 87.05 60.8 87.05 59.9 87.05 59.45 87.6
M 48.8 90.3
Q 48.8 91.15 49.75 91.15 51.1 91.15 51.1 89.85
L 51.1 89.25
Q 50.7 89.15 50.55 89.15 48.8 89.15 48.8 90.3
M 60.15 77.25
Q 59.75 77.15 59.6 77.15 57.85 77.15 57.85 78.3 57.85 79.15 58.8 79.15 60.15 79.15 60.15 77.85
L 60.15 77.25
M 45 77.25
Q 44.6 77.15 44.45 77.15 42.7 77.15 42.7 78.3 42.7 79.15 43.65 79.15 45 79.15 45 77.85
L 45 77.25
M 49.05 63.55
Q 48.65 64.1 48.65 65.05 48.65 67.1 50.15 67.1 50.85 67.1 51.25 66.6 51.65 66.05 51.65 65.05 51.65 63 50.15 63 49.45 63 49.05 63.55
M 44.65 66.7
L 44.65 63.4
Q 44.15 63.05 43.65 63.05 42.75 63.05 42.3 63.6 41.8 64.1 41.8 65.1 41.8 67.1 43.7 67.1 43.9 67.1 44.25 66.95 44.55 66.85 44.65 66.7
M 60.55 51.05
Q 59.3 51.05 59 52.4
L 62.1 52.4
Q 61.95 51.05 60.55 51.05
M 77.6 53.05
Q 77.6 51 76.1 51 75.4 51 75 51.55 74.6 52.1 74.6 53.05 74.6 55.1 76.1 55.1 76.8 55.1 77.2 54.6 77.6 54.05 77.6 53.05
M 29.3 90.3
Q 29.3 91.15 30.25 91.15 31.6 91.15 31.6 89.85
L 31.6 89.25
Q 31.2 89.15 31.05 89.15 29.3 89.15 29.3 90.3
M 35.65 88.15
Q 35.65 88.7 35.95 89 36.25 89.35 36.75 89.35 37.3 89.35 37.6 89.05 37.85 88.7 37.85 88.15 37.85 87.65 37.55 87.35 37.25 87 36.75 87 36.25 87 35.95 87.3 35.65 87.65 35.65 88.15
M 31.45 75.35
Q 31.15 75 30.65 75 30.15 75 29.85 75.3 29.55 75.65 29.55 76.15 29.55 76.7 29.85 77 30.15 77.35 30.65 77.35 31.2 77.35 31.5 77.05 31.75 76.7 31.75 76.15 31.75 75.65 31.45 75.35
M 37.55 65.25
Q 37.15 65.15 37 65.15 35.25 65.15 35.25 66.3 35.25 67.15 36.2 67.15 37.55 67.15 37.55 65.85
L 37.55 65.25
M 25.5 77.85
L 25.5 77.25
Q 25.1 77.15 24.95 77.15 23.2 77.15 23.2 78.3 23.2 79.15 24.15 79.15 25.5 79.15 25.5 77.85
M 40.05 53.15
Q 38.3 53.15 38.3 54.3 38.3 55.15 39.25 55.15 40.6 55.15 40.6 53.85
L 40.6 53.25
Q 40.2 53.15 40.05 53.15
M 31.6 51.4
L 31.6 54.7
Q 31.9 55.1 32.45 55.1 33.5 55.1 33.95 54.55 34.4 54.05 34.4 52.95 34.4 51.05 32.6 51.05 31.95 51.05 31.6 51.4
M 24.6 39.05
Q 23.35 39.05 23.05 40.4
L 26.15 40.4
Q 26 39.05 24.6 39.05
M 32.1 29.25
Q 31.7 29.15 31.55 29.15 29.8 29.15 29.8 30.3 29.8 31.15 30.75 31.15 32.1 31.15 32.1 29.85
L 32.1 29.25
M 13.9 18
Q 14.55 17.15 14.55 15.65 14.55 12.9 12 12.9 11.75 12.9 11.3 12.95
L 11.3 18.8
Q 11.65 18.85 12.1 18.85 13.25 18.85 13.9 18
M 37.25 15.05
Q 36 15.05 35.7 16.4
L 38.8 16.4
Q 38.65 15.05 37.25 15.05
M 20.1 15.05
Q 18.85 15.05 18.55 16.4
L 21.65 16.4
Q 21.5 15.05 20.1 15.05
M 70.45 40.4
Q 70.3 39.05 68.9 39.05 67.65 39.05 67.35 40.4
L 70.45 40.4
M 64.35 29.25
Q 63.95 29.15 63.8 29.15 62.05 29.15 62.05 30.3 62.05 31.15 63 31.15 64.35 31.15 64.35 29.85
L 64.35 29.25
M 53.95 39.05
Q 52.7 39.05 52.4 40.4
L 55.5 40.4
Q 55.35 39.05 53.95 39.05
M 42.85 39.5
Q 42.4 39.05 41.4 39.05 40.85 39.05 40.45 39.45
L 40.45 42.75
Q 40.85 43.1 41.35 43.1 42.4 43.1 42.85 42.6 43.25 42.1 43.25 41.05 43.25 39.95 42.85 39.5
M 44 30.6
Q 44.4 30.05 44.4 29.05 44.4 27 42.9 27 42.2 27 41.8 27.55 41.4 28.1 41.4 29.05 41.4 31.1 42.9 31.1 43.6 31.1 44 30.6
M 47.85 17.15
Q 46.1 17.15 46.1 18.3 46.1 19.15 47.05 19.15 48.4 19.15 48.4 17.85
L 48.4 17.25
Q 48 17.15 47.85 17.15
M 68.3 17.25
Q 67.9 17.15 67.75 17.15 66 17.15 66 18.3 66 19.15 66.95 19.15 68.3 19.15 68.3 17.85
L 68.3 17.25
M 96.65 90.6
Q 97.05 90.05 97.05 89.05 97.05 87 95.55 87 94.85 87 94.45 87.55 94.05 88.1 94.05 89.05 94.05 91.1 95.55 91.1 96.25 91.1 96.65 90.6
M 84.75 89.25
Q 84.35 89.15 84.2 89.15 82.45 89.15 82.45 90.3 82.45 91.15 83.4 91.15 84.75 91.15 84.75 89.85
L 84.75 89.25
M 82 77.25
Q 81.6 77.15 81.45 77.15 79.7 77.15 79.7 78.3 79.7 79.15 80.65 79.15 82 79.15 82 77.85
L 82 77.25
M 97.15 77.25
Q 96.75 77.15 96.6 77.15 94.85 77.15 94.85 78.3 94.85 79.15 95.8 79.15 97.15 79.15 97.15 77.85
L 97.15 77.25
M 92.8 51.5
Q 92.35 51.05 91.35 51.05 90.8 51.05 90.4 51.45
L 90.4 54.75
Q 90.8 55.1 91.3 55.1 92.35 55.1 92.8 54.6 93.2 54.1 93.2 53.05 93.2 51.95 92.8 51.5
M 97.15 53.05
Q 97.15 55.1 98.65 55.1 99.35 55.1 99.75 54.6 100.15 54.05 100.15 53.05 100.15 51 98.65 51 97.95 51 97.55 51.55 97.15 52.1 97.15 53.05
M 107.15 77.25
Q 106.75 77.15 106.6 77.15 104.85 77.15 104.85 78.3 104.85 79.15 105.8 79.15 107.15 79.15 107.15 77.85
L 107.15 77.25
M 106.25 63.05
Q 105 63.05 104.7 64.4
L 107.8 64.4
Q 107.65 63.05 106.25 63.05
M 117.6 51.55
Q 117.2 52.1 117.2 53.05 117.2 55.1 118.7 55.1 119.4 55.1 119.8 54.6 120.2 54.05 120.2 53.05 120.2 51 118.7 51 118 51 117.6 51.55
M 103.05 41.85
L 103.05 41.25
Q 102.65 41.15 102.5 41.15 100.75 41.15 100.75 42.3 100.75 43.15 101.7 43.15 103.05 43.15 103.05 41.85
M 87.4 42.3
Q 87.4 43.15 88.35 43.15 89.7 43.15 89.7 41.85
L 89.7 41.25
Q 89.3 41.15 89.15 41.15 87.4 41.15 87.4 42.3
M 86.2 29.85
L 86.2 29.25
Q 85.8 29.15 85.65 29.15 83.9 29.15 83.9 30.3 83.9 31.15 84.85 31.15 86.2 31.15 86.2 29.85
M 96.8 42.7
L 96.8 39.4
Q 96.3 39.05 95.8 39.05 94.9 39.05 94.45 39.6 93.95 40.1 93.95 41.1 93.95 43.1 95.85 43.1 96.05 43.1 96.4 42.95 96.7 42.85 96.8 42.7
M 100.6 27
Q 99.9 27 99.5 27.55 99.1 28.1 99.1 29.05 99.1 31.1 100.6 31.1 101.3 31.1 101.7 30.6 102.1 30.05 102.1 29.05 102.1 27 100.6 27
M 85.8 17.05
Q 85.8 15.95 85.4 15.5 84.95 15.05 83.95 15.05 83.4 15.05 83 15.45
L 83 18.75
Q 83.4 19.1 83.9 19.1 84.95 19.1 85.4 18.6 85.8 18.1 85.8 17.05
M 89.7 18.3
Q 89.7 19.15 90.65 19.15 92 19.15 92 17.85
L 92 17.25
Q 91.6 17.15 91.45 17.15 89.7 17.15 89.7 18.3
M 113.35 15
Q 112.65 15 112.25 15.55 111.85 16.1 111.85 17.05 111.85 19.1 113.35 19.1 114.05 19.1 114.45 18.6 114.85 18.05 114.85 17.05 114.85 15 113.35 15
M 107.85 15.4
Q 107.35 15.05 106.85 15.05 105.95 15.05 105.5 15.6 105 16.1 105 17.1 105 19.1 106.9 19.1 107.1 19.1 107.45 18.95 107.75 18.85 107.85 18.7
L 107.85 15.4 Z"/>

<path fill="#000000" stroke="none" d="
M 67.3 92.3
Q 68.7 92.3 69.5 91.45 70.3 90.55 70.3 89.05 70.3 87.55 69.5 86.65 68.75 85.8 67.3 85.8 65.95 85.8 65.1 86.7 64.3 87.6 64.3 89.05 64.3 90.55 65.1 91.45 65.85 92.3 67.3 92.3
M 68.8 89.05
Q 68.8 90.05 68.4 90.6 68 91.1 67.3 91.1 65.8 91.1 65.8 89.05 65.8 88.1 66.2 87.55 66.6 87 67.3 87 68.8 87 68.8 89.05
M 80.6 85.9
L 79.05 85.9 77.45 89.75 75.95 85.9 74.35 85.9 77.15 92.3 77.7 92.3 80.6 85.9
M 58.3 86.75
Q 57.45 87.7 57.45 89.15 57.45 90.65 58.2 91.5 58.95 92.3 60.25 92.3 60.75 92.3 61.15 92.15 61.6 92 61.8 91.8
L 61.8 92.2 63.25 92.2 63.25 83.25 61.8 83.6 61.8 86.1
Q 61.2 85.8 60.5 85.8 59.2 85.8 58.3 86.75
M 58.95 89.1
Q 58.95 88.1 59.45 87.6 59.9 87.05 60.8 87.05 61.3 87.05 61.8 87.4
L 61.8 90.7
Q 61.7 90.85 61.4 90.95 61.05 91.1 60.85 91.1 58.95 91.1 58.95 89.1
M 49.8 85.8
Q 48.75 85.8 48 86.15
L 48.3 87.3
Q 48.85 87.05 49.7 87.05 51.1 87.05 51.1 88.15 50.75 88.05 50.45 88.05 48.95 88.05 48.15 88.65 47.35 89.3 47.35 90.35 47.35 91.3 47.9 91.8 48.5 92.3 49.5 92.3 50.05 92.3 50.55 92.1 51.05 91.9 51.25 91.55 51.3 91.85 51.55 92.1 51.85 92.3 52.15 92.3 52.45 92.3 52.65 92.25 52.85 92.15 53.05 91.85 52.55 91.55 52.55 90.3
L 52.55 88.95
Q 52.55 87.1 51.9 86.45 51.2 85.8 49.8 85.8
M 49.75 91.15
Q 48.8 91.15 48.8 90.3 48.8 89.15 50.55 89.15 50.7 89.15 51.1 89.25
L 51.1 89.85
Q 51.1 91.15 49.75 91.15
M 42.1 85.9
L 40.65 85.9 40.65 90
Q 40.65 92.3 42.85 92.3 43.3 92.3 43.85 92.15 44.35 91.95 44.7 91.7
L 44.7 92.2 46.15 92.2 46.15 85.9 44.7 85.9 44.7 90.25
Q 44.55 90.6 44.1 90.85 43.7 91.1 43.2 91.1 42.1 91.1 42.1 89.9
L 42.1 85.9
M 55.25 77.3
Q 54.9 76.85 54.1 76.55 53.25 76.2 53 76 52.75 75.8 52.75 75.6 52.75 74.95 53.5 74.95 54.4 74.95 54.85 75.4
L 55.3 74.25
Q 54.4 73.8 53.45 73.8 52.45 73.8 51.85 74.25 51.25 74.7 51.25 75.55 51.25 76.75 52.85 77.4 53.6 77.75 53.85 77.95 54.1 78.2 54.1 78.55 54.1 79.15 53.25 79.15 52.45 79.15 51.8 78.65
L 51.25 79.8
Q 51.85 80.1 52.25 80.2 52.6 80.3 53.25 80.3 54.35 80.3 55 79.8 55.65 79.3 55.65 78.45 55.65 77.8 55.25 77.3
M 58.85 73.8
Q 57.8 73.8 57.05 74.15
L 57.35 75.3
Q 57.9 75.05 58.75 75.05 60.15 75.05 60.15 76.15 59.8 76.05 59.5 76.05 58 76.05 57.2 76.65 56.4 77.3 56.4 78.35 56.4 79.3 56.95 79.8 57.55 80.3 58.55 80.3 59.1 80.3 59.6 80.1 60.1 79.9 60.3 79.55 60.35 79.85 60.6 80.1 60.9 80.3 61.2 80.3 61.5 80.3 61.7 80.25 61.9 80.15 62.1 79.85 61.6 79.55 61.6 78.3
L 61.6 76.95
Q 61.6 75.1 60.95 74.45 60.25 73.8 58.85 73.8
M 59.6 77.15
Q 59.75 77.15 60.15 77.25
L 60.15 77.85
Q 60.15 79.15 58.8 79.15 57.85 79.15 57.85 78.3 57.85 77.15 59.6 77.15
M 56.8 64.55
Q 55.95 64.2 55.7 64 55.45 63.8 55.45 63.6 55.45 62.95 56.2 62.95 57.1 62.95 57.55 63.4
L 58 62.25
Q 57.1 61.8 56.15 61.8 55.15 61.8 54.55 62.25 53.95 62.7 53.95 63.55 53.95 64.75 55.55 65.4 56.3 65.75 56.55 65.95 56.8 66.2 56.8 66.55 56.8 67.15 55.95 67.15 55.15 67.15 54.5 66.65
L 53.95 67.8
Q 54.55 68.1 54.95 68.2 55.3 68.3 55.95 68.3 57.05 68.3 57.7 67.8 58.35 67.3 58.35 66.45 58.35 65.8 57.95 65.3 57.6 64.85 56.8 64.55
M 43.7 73.8
Q 42.65 73.8 41.9 74.15
L 42.2 75.3
Q 42.75 75.05 43.6 75.05 45 75.05 45 76.15 44.65 76.05 44.35 76.05 42.85 76.05 42.05 76.65 41.25 77.3 41.25 78.35 41.25 79.3 41.8 79.8 42.4 80.3 43.4 80.3 43.95 80.3 44.45 80.1 44.95 79.9 45.15 79.55 45.2 79.85 45.45 80.1 45.75 80.3 46.05 80.3 46.35 80.3 46.55 80.25 46.75 80.15 46.95 79.85 46.45 79.55 46.45 78.3
L 46.45 76.95
Q 46.45 75.1 45.8 74.45 45.1 73.8 43.7 73.8
M 44.45 77.15
Q 44.6 77.15 45 77.25
L 45 77.85
Q 45 79.15 43.65 79.15 42.7 79.15 42.7 78.3 42.7 77.15 44.45 77.15
M 47.15 65.05
Q 47.15 66.55 47.95 67.45 48.7 68.3 50.15 68.3 51.55 68.3 52.35 67.45 53.15 66.55 53.15 65.05 53.15 63.55 52.35 62.65 51.6 61.8 50.15 61.8 48.8 61.8 47.95 62.7 47.15 63.6 47.15 65.05
M 48.65 65.05
Q 48.65 64.1 49.05 63.55 49.45 63 50.15 63 51.65 63 51.65 65.05 51.65 66.05 51.25 66.6 50.85 67.1 50.15 67.1 48.65 67.1 48.65 65.05
M 46.1 59.25
L 44.65 59.6 44.65 62.1
Q 44.05 61.8 43.35 61.8 42.05 61.8 41.15 62.75 40.3 63.7 40.3 65.15 40.3 66.65 41.05 67.5 41.8 68.3 43.1 68.3 43.6 68.3 44 68.15 44.45 68 44.65 67.8
L 44.65 68.2 46.1 68.2 46.1 59.25
M 44.65 63.4
L 44.65 66.7
Q 44.55 66.85 44.25 66.95 43.9 67.1 43.7 67.1 41.8 67.1 41.8 65.1 41.8 64.1 42.3 63.6 42.75 63.05 43.65 63.05 44.15 63.05 44.65 63.4
M 45.7 51.2
Q 46.05 51.05 46.35 51.05 47.05 51.05 47.35 51.4 47.7 51.75 47.7 52.55
L 47.7 56.2 49.15 56.2 49.15 52.35
Q 49.15 51.15 48.5 50.5 47.85 49.8 46.75 49.8 45.55 49.8 44.95 50.5
L 44.7 49.9 43.65 49.9 43.65 56.2 45.1 56.2 45.1 51.65
Q 45.3 51.4 45.7 51.2
M 72.15 73.9
L 69.9 73.9 69.9 75.15 70.7 75.15 70.7 80.2 72.15 80.2 72.15 73.9
M 74.1 72.65
L 74.1 73.9 73.4 73.9 73.4 75.1 74.1 75.1 74.1 78.3
Q 74.1 79.25 74.6 79.8 75.1 80.3 76.05 80.3 77 80.3 77.5 80.15
L 77.5 78.8
Q 77.05 79.1 76.55 79.1 76 79.1 75.8 78.8 75.6 78.5 75.6 77.85
L 75.6 75.1 77.3 75.1 77.3 73.9 75.6 73.9 75.6 72.1 74.1 72.65
M 79.65 61.9
L 77.4 61.9 77.4 63.15 78.2 63.15 78.2 68.2 79.65 68.2 79.65 61.9
M 70.85 71.75
Q 70.6 72 70.6 72.35 70.6 72.7 70.85 72.95 71.1 73.2 71.45 73.2 71.8 73.2 72.05 72.95 72.3 72.7 72.3 72.35 72.3 72 72.05 71.75 71.8 71.5 71.45 71.5 71.1 71.5 70.85 71.75
M 64.25 73.9
L 63.2 73.9 63.2 80.2 64.65 80.2 64.65 75.65
Q 64.85 75.4 65.25 75.2 65.6 75.05 65.9 75.05 66.6 75.05 66.9 75.4 67.25 75.75 67.25 76.55
L 67.25 80.2 68.7 80.2 68.7 76.35
Q 68.7 75.15 68.05 74.5 67.4 73.8 66.3 73.8 65.1 73.8 64.5 74.5
L 64.25 73.9
M 61.6 66.9
Q 61.3 66.6 60.9 66.6 60.45 66.6 60.15 66.8 59.85 67.05 59.85 67.4 59.85 67.9 60.4 68.15 60.55 68.3 60.55 68.5 60.55 68.95 59.45 69.75
L 59.95 70.4
Q 61.2 69.55 61.55 68.95 61.9 68.35 61.9 67.6 61.9 67.2 61.6 66.9
M 68.8 62.5
L 68.5 61.9 67.5 61.9 67.5 68.2 68.95 68.2 68.95 63.7
Q 69.1 63.45 69.45 63.25 69.75 63.05 70.05 63.05 70.55 63.05 70.85 63.3 71.1 63.6 71.1 64.05
L 71.1 68.2 72.6 68.2 72.6 63.65
Q 72.7 63.4 73 63.25 73.3 63.05 73.65 63.05 74.75 63.05 74.75 64.25
L 74.75 68.2 76.2 68.2 76.2 64.05
Q 76.2 63 75.65 62.4 75.05 61.8 74 61.8 73.5 61.8 73 62 72.55 62.2 72.25 62.5 71.6 61.8 70.35 61.8 69.4 61.8 68.8 62.5
M 62.3 54.55
Q 61.75 55.1 60.75 55.1 59.95 55.1 59.5 54.7 59 54.25 58.95 53.5
L 63.45 53.5
Q 63.55 52.95 63.55 52.7 63.55 51.45 62.75 50.6 61.9 49.8 60.55 49.8 59.25 49.8 58.35 50.75 57.45 51.65 57.45 53.15 57.45 54.65 58.25 55.5 59.1 56.3 60.55 56.3 62.05 56.3 62.85 55.7
L 62.3 54.55
M 59 52.4
Q 59.3 51.05 60.55 51.05 61.95 51.05 62.1 52.4
L 59 52.4
M 64.35 49.9
L 64.35 51.15 65.15 51.15 65.15 56.2 66.6 56.2 66.6 49.9 64.35 49.9
M 78.35 59.75
Q 78.1 60 78.1 60.35 78.1 60.7 78.35 60.95 78.6 61.2 78.95 61.2 79.3 61.2 79.55 60.95 79.8 60.7 79.8 60.35 79.8 60 79.55 59.75 79.3 59.5 78.95 59.5 78.6 59.5 78.35 59.75
M 72.6 50.05
Q 72.2 49.8 71.45 49.8 70.4 49.8 69.8 50.5
L 69.8 49.9 68.35 49.9 68.35 56.2 69.8 56.2 69.8 52.65
Q 69.8 51.95 70.2 51.5 70.6 51.05 71.1 51.05 71.6 51.05 71.95 51.3
L 72.6 50.05
M 78.3 50.65
Q 77.55 49.8 76.1 49.8 74.75 49.8 73.9 50.7 73.1 51.6 73.1 53.05 73.1 54.55 73.9 55.45 74.65 56.3 76.1 56.3 77.5 56.3 78.3 55.45 79.1 54.55 79.1 53.05 79.1 51.55 78.3 50.65
M 76.1 51
Q 77.6 51 77.6 53.05 77.6 54.05 77.2 54.6 76.8 55.1 76.1 55.1 74.6 55.1 74.6 53.05 74.6 52.1 75 51.55 75.4 51 76.1 51
M 30.3 85.8
Q 29.25 85.8 28.5 86.15
L 28.8 87.3
Q 29.35 87.05 30.2 87.05 31.6 87.05 31.6 88.15 31.25 88.05 30.95 88.05 29.45 88.05 28.65 88.65 27.85 89.3 27.85 90.35 27.85 91.3 28.4 91.8 29 92.3 30 92.3 30.55 92.3 31.05 92.1 31.55 91.9 31.75 91.55 31.8 91.85 32.05 92.1 32.35 92.3 32.65 92.3 32.95 92.3 33.15 92.25 33.35 92.15 33.55 91.85 33.05 91.55 33.05 90.3
L 33.05 88.95
Q 33.05 87.1 32.4 86.45 31.7 85.8 30.3 85.8
M 30.25 91.15
Q 29.3 91.15 29.3 90.3 29.3 89.15 31.05 89.15 31.2 89.15 31.6 89.25
L 31.6 89.85
Q 31.6 91.15 30.25 91.15
M 39.7 86.35
L 38.7 85.45 38.1 86.1
Q 37.55 85.8 36.7 85.8 35.6 85.8 34.9 86.45 34.15 87.1 34.15 88.1 34.15 89.4 35.2 90.1 34.9 90.25 34.65 90.55 34.4 90.85 34.4 91.15 34.4 92.25 35.9 92.25 36.15 92.25 36.6 92.15 37.1 92.1 37.35 92.1 38.25 92.1 38.25 92.65 38.25 93 37.85 93.2 37.45 93.35 36.8 93.35 35.85 93.35 35.1 92.65
L 34.15 93.8
Q 35.35 94.65 36.8 94.65 38 94.65 38.85 94.1 39.7 93.6 39.7 92.65 39.7 90.9 37.55 90.9 37.25 90.9 36.85 91 36.4 91.1 36.2 91.1 35.8 91.1 35.8 90.85 35.8 90.7 36.1 90.6 36.35 90.45 36.4 90.45
L 36.65 90.5
Q 36.9 90.55 37.05 90.55 38.05 90.55 38.7 89.9 39.35 89.25 39.35 88.15 39.35 87.4 39 86.85
L 39.7 86.35
M 35.95 89
Q 35.65 88.7 35.65 88.15 35.65 87.65 35.95 87.3 36.25 87 36.75 87 37.25 87 37.55 87.35 37.85 87.65 37.85 88.15 37.85 88.7 37.6 89.05 37.3 89.35 36.75 89.35 36.25 89.35 35.95 89
M 30.75 85.1
L 32.05 83.35 30.6 83.35 29.6 85.1 30.75 85.1
M 40.05 73.9
L 38.6 73.9 38.6 78.25
Q 38.45 78.6 38 78.85 37.6 79.1 37.1 79.1 36 79.1 36 77.9
L 36 73.9 34.55 73.9 34.55 78
Q 34.55 80.3 36.75 80.3 37.2 80.3 37.75 80.15 38.25 79.95 38.6 79.7
L 38.6 80.2 40.05 80.2 40.05 73.9
M 32 74.1
Q 31.45 73.8 30.6 73.8 29.5 73.8 28.8 74.45 28.05 75.1 28.05 76.1 28.05 77.4 29.1 78.1 28.8 78.25 28.55 78.55 28.3 78.85 28.3 79.15 28.3 80.25 29.8 80.25 30.05 80.25 30.5 80.15 31 80.1 31.25 80.1 32.15 80.1 32.15 80.65 32.15 81 31.75 81.2 31.35 81.35 30.7 81.35 29.75 81.35 29 80.65
L 28.05 81.8
Q 29.25 82.65 30.7 82.65 31.9 82.65 32.75 82.1 33.6 81.6 33.6 80.65 33.6 78.9 31.45 78.9 31.15 78.9 30.75 79 30.3 79.1 30.1 79.1 29.7 79.1 29.7 78.85 29.7 78.7 30 78.6 30.25 78.45 30.3 78.45
L 30.55 78.5
Q 30.8 78.55 30.95 78.55 31.95 78.55 32.6 77.9 33.25 77.25 33.25 76.15 33.25 75.4 32.9 74.85
L 33.6 74.35 32.6 73.45 32 74.1
M 30.65 75
Q 31.15 75 31.45 75.35 31.75 75.65 31.75 76.15 31.75 76.7 31.5 77.05 31.2 77.35 30.65 77.35 30.15 77.35 29.85 77 29.55 76.7 29.55 76.15 29.55 75.65 29.85 75.3 30.15 75 30.65 75
M 36.15 63.05
Q 37.55 63.05 37.55 64.15 37.2 64.05 36.9 64.05 35.4 64.05 34.6 64.65 33.8 65.3 33.8 66.35 33.8 67.3 34.35 67.8 34.95 68.3 35.95 68.3 36.5 68.3 37 68.1 37.5 67.9 37.7 67.55 37.75 67.85 38 68.1 38.3 68.3 38.6 68.3 38.9 68.3 39.1 68.25 39.3 68.15 39.5 67.85 39 67.55 39 66.3
L 39 64.95
Q 39 63.1 38.35 62.45 37.65 61.8 36.25 61.8 35.2 61.8 34.45 62.15
L 34.75 63.3
Q 35.3 63.05 36.15 63.05
M 37 65.15
Q 37.15 65.15 37.55 65.25
L 37.55 65.85
Q 37.55 67.15 36.2 67.15 35.25 67.15 35.25 66.3 35.25 65.15 37 65.15
M 23.5 73.1
L 24.65 73.1 25.95 71.35 24.5 71.35 23.5 73.1
M 24.2 73.8
Q 23.15 73.8 22.4 74.15
L 22.7 75.3
Q 23.25 75.05 24.1 75.05 25.5 75.05 25.5 76.15 25.15 76.05 24.85 76.05 23.35 76.05 22.55 76.65 21.75 77.3 21.75 78.35 21.75 79.3 22.3 79.8 22.9 80.3 23.9 80.3 24.45 80.3 24.95 80.1 25.45 79.9 25.65 79.55 25.7 79.85 25.95 80.1 26.25 80.3 26.55 80.3 26.85 80.3 27.05 80.25 27.25 80.15 27.45 79.85 26.95 79.55 26.95 78.3
L 26.95 76.95
Q 26.95 75.1 26.3 74.45 25.6 73.8 24.2 73.8
M 25.5 77.25
L 25.5 77.85
Q 25.5 79.15 24.15 79.15 23.2 79.15 23.2 78.3 23.2 77.15 24.95 77.15 25.1 77.15 25.5 77.25
M 27.45 61.9
L 26 61.9 26 66.25
Q 25.85 66.6 25.4 66.85 25 67.1 24.5 67.1 23.4 67.1 23.4 65.9
L 23.4 61.9 21.95 61.9 21.95 66
Q 21.95 68.3 24.15 68.3 24.6 68.3 25.15 68.15 25.65 67.95 26 67.7
L 26 68.2 27.45 68.2 27.45 61.9
M 29.25 62.25
Q 28.65 62.7 28.65 63.55 28.65 64.75 30.25 65.4 31 65.75 31.25 65.95 31.5 66.2 31.5 66.55 31.5 67.15 30.65 67.15 29.85 67.15 29.2 66.65
L 28.65 67.8
Q 29.25 68.1 29.65 68.2 30 68.3 30.65 68.3 31.75 68.3 32.4 67.8 33.05 67.3 33.05 66.45 33.05 65.8 32.65 65.3 32.3 64.85 31.5 64.55 30.65 64.2 30.4 64 30.15 63.8 30.15 63.6 30.15 62.95 30.9 62.95 31.8 62.95 32.25 63.4
L 32.7 62.25
Q 31.8 61.8 30.85 61.8 29.85 61.8 29.25 62.25
M 21.45 51.65
Q 21.55 51.4 21.85 51.25 22.15 51.05 22.5 51.05 23.6 51.05 23.6 52.25
L 23.6 56.2 25.05 56.2 25.05 52.05
Q 25.05 51 24.5 50.4 23.9 49.8 22.85 49.8 22.35 49.8 21.85 50 21.4 50.2 21.1 50.5 20.45 49.8 19.2 49.8 18.25 49.8 17.65 50.5
L 17.35 49.9 16.35 49.9 16.35 56.2 17.8 56.2 17.8 51.7
Q 17.95 51.45 18.3 51.25 18.6 51.05 18.9 51.05 19.4 51.05 19.7 51.3 19.95 51.6 19.95 52.05
L 19.95 56.2 21.45 56.2 21.45 51.65
M 39.3 49.8
Q 38.25 49.8 37.5 50.15
L 37.8 51.3
Q 38.35 51.05 39.2 51.05 40.6 51.05 40.6 52.15 40.25 52.05 39.95 52.05 38.45 52.05 37.65 52.65 36.85 53.3 36.85 54.35 36.85 55.3 37.4 55.8 38 56.3 39 56.3 39.55 56.3 40.05 56.1 40.55 55.9 40.75 55.55 40.8 55.85 41.05 56.1 41.35 56.3 41.65 56.3 41.95 56.3 42.15 56.25 42.35 56.15 42.55 55.85 42.05 55.55 42.05 54.3
L 42.05 52.95
Q 42.05 51.1 41.4 50.45 40.7 49.8 39.3 49.8
M 38.3 54.3
Q 38.3 53.15 40.05 53.15 40.2 53.15 40.6 53.25
L 40.6 53.85
Q 40.6 55.15 39.25 55.15 38.3 55.15 38.3 54.3
M 31.6 47.25
L 30.1 47.6 30.1 56.3 30.95 56.3 31.3 55.85
Q 31.9 56.3 32.8 56.3 34.25 56.3 35.1 55.4 35.95 54.5 35.95 52.9 35.95 51.55 35.1 50.7 34.25 49.8 32.85 49.8 32.15 49.8 31.6 50.15
L 31.6 47.25
M 31.6 54.7
L 31.6 51.4
Q 31.95 51.05 32.6 51.05 34.4 51.05 34.4 52.95 34.4 54.05 33.95 54.55 33.5 55.1 32.45 55.1 31.9 55.1 31.6 54.7
M 27.6 40.7
Q 27.6 39.45 26.8 38.6 25.95 37.8 24.6 37.8 23.3 37.8 22.4 38.75 21.5 39.65 21.5 41.15 21.5 42.65 22.3 43.5 23.15 44.3 24.6 44.3 26.1 44.3 26.9 43.7
L 26.35 42.55
Q 25.8 43.1 24.8 43.1 24 43.1 23.55 42.7 23.05 42.25 23 41.5
L 27.5 41.5
Q 27.6 40.95 27.6 40.7
M 23.05 40.4
Q 23.35 39.05 24.6 39.05 26 39.05 26.15 40.4
L 23.05 40.4
M 30.1 38.5
L 29.8 37.9 28.8 37.9 28.8 44.2 30.25 44.2 30.25 39.7
Q 30.4 39.45 30.75 39.25 31.05 39.05 31.35 39.05 31.85 39.05 32.15 39.3 32.4 39.6 32.4 40.05
L 32.4 44.2 33.9 44.2 33.9 39.65
Q 34 39.4 34.3 39.25 34.6 39.05 34.95 39.05 36.05 39.05 36.05 40.25
L 36.05 44.2 37.5 44.2 37.5 40.05
Q 37.5 39 36.95 38.4 36.35 37.8 35.3 37.8 34.8 37.8 34.3 38 33.85 38.2 33.55 38.5 32.9 37.8 31.65 37.8 30.7 37.8 30.1 38.5
M 27.95 25.9
L 26.4 25.9 24.8 29.75 23.3 25.9 21.7 25.9 24.5 32.3 25.05 32.3 27.95 25.9
M 33.55 30.3
L 33.55 28.95
Q 33.55 27.1 32.9 26.45 32.2 25.8 30.8 25.8 29.75 25.8 29 26.15
L 29.3 27.3
Q 29.85 27.05 30.7 27.05 32.1 27.05 32.1 28.15 31.75 28.05 31.45 28.05 29.95 28.05 29.15 28.65 28.35 29.3 28.35 30.35 28.35 31.3 28.9 31.8 29.5 32.3 30.5 32.3 31.05 32.3 31.55 32.1 32.05 31.9 32.25 31.55 32.3 31.85 32.55 32.1 32.85 32.3 33.15 32.3 33.45 32.3 33.65 32.25 33.85 32.15 34.05 31.85 33.55 31.55 33.55 30.3
M 31.55 29.15
Q 31.7 29.15 32.1 29.25
L 32.1 29.85
Q 32.1 31.15 30.75 31.15 29.8 31.15 29.8 30.3 29.8 29.15 31.55 29.15
M 38.35 27.4
L 38.8 26.25
Q 37.9 25.8 36.95 25.8 35.95 25.8 35.35 26.25 34.75 26.7 34.75 27.55 34.75 28.75 36.35 29.4 37.1 29.75 37.35 29.95 37.6 30.2 37.6 30.55 37.6 31.15 36.75 31.15 35.95 31.15 35.3 30.65
L 34.75 31.8
Q 35.35 32.1 35.75 32.2 36.1 32.3 36.75 32.3 37.85 32.3 38.5 31.8 39.15 31.3 39.15 30.45 39.15 29.8 38.75 29.3 38.4 28.85 37.6 28.55 36.75 28.2 36.5 28 36.25 27.8 36.25 27.6 36.25 26.95 37 26.95 37.9 26.95 38.35 27.4
M 15.05 48.95
L 15.05 47.6 9.6 47.6 9.6 56.2 15 56.2 15 54.85 11.1 54.85 11.1 52.25 13.95 52.25 13.95 51 11.1 51 11.1 48.95 15.05 48.95
M 18.1 40
Q 17.85 39.8 17.85 39.6 17.85 38.95 18.6 38.95 19.5 38.95 19.95 39.4
L 20.4 38.25
Q 19.5 37.8 18.55 37.8 17.55 37.8 16.95 38.25 16.35 38.7 16.35 39.55 16.35 40.75 17.95 41.4 18.7 41.75 18.95 41.95 19.2 42.2 19.2 42.55 19.2 43.15 18.35 43.15 17.55 43.15 16.9 42.65
L 16.35 43.8
Q 16.95 44.1 17.35 44.2 17.7 44.3 18.35 44.3 19.45 44.3 20.1 43.8 20.75 43.3 20.75 42.45 20.75 41.8 20.35 41.3 20 40.85 19.2 40.55 18.35 40.2 18.1 40
M 16.15 15.55
Q 16.15 13.75 15.05 12.65 13.95 11.55 12.05 11.55 11.6 11.55 9.8 11.6
L 9.8 20.2 11.7 20.2
Q 16.15 20.2 16.15 15.55
M 14.55 15.65
Q 14.55 17.15 13.9 18 13.25 18.85 12.1 18.85 11.65 18.85 11.3 18.8
L 11.3 12.95
Q 11.75 12.9 12 12.9 14.55 12.9 14.55 15.65
M 35.65 17.5
L 40.15 17.5
Q 40.25 16.95 40.25 16.7 40.25 15.45 39.45 14.6 38.6 13.8 37.25 13.8 35.95 13.8 35.05 14.75 34.15 15.65 34.15 17.15 34.15 18.65 34.95 19.5 35.8 20.3 37.25 20.3 38.75 20.3 39.55 19.7
L 39 18.55
Q 38.45 19.1 37.45 19.1 36.65 19.1 36.2 18.7 35.7 18.25 35.65 17.5
M 35.7 16.4
Q 36 15.05 37.25 15.05 38.65 15.05 38.8 16.4
L 35.7 16.4
M 23.9 15.15
L 24.7 15.15 24.7 20.2 26.15 20.2 26.15 13.9 23.9 13.9 23.9 15.15
M 23.1 16.7
Q 23.1 15.45 22.3 14.6 21.45 13.8 20.1 13.8 18.8 13.8 17.9 14.75 17 15.65 17 17.15 17 18.65 17.8 19.5 18.65 20.3 20.1 20.3 21.6 20.3 22.4 19.7
L 21.85 18.55
Q 21.3 19.1 20.3 19.1 19.5 19.1 19.05 18.7 18.55 18.25 18.5 17.5
L 23 17.5
Q 23.1 16.95 23.1 16.7
M 18.55 16.4
Q 18.85 15.05 20.1 15.05 21.5 15.05 21.65 16.4
L 18.55 16.4
M 30.35 15.85
L 29 13.9 27.3 13.9 29.55 17 27.15 20.2 28.85 20.2 30.3 18.15 31.9 20.2 33.7 20.2 31.05 17 33.5 13.9 31.8 13.9 30.35 15.85
M 26.05 11.75
Q 25.8 11.5 25.45 11.5 25.1 11.5 24.85 11.75 24.6 12 24.6 12.35 24.6 12.7 24.85 12.95 25.1 13.2 25.45 13.2 25.8 13.2 26.05 12.95 26.3 12.7 26.3 12.35 26.3 12 26.05 11.75
M 78 38.4
Q 77.2 37.8 76.1 37.8 74.5 37.8 73.6 38.7 72.7 39.65 72.7 41.1 72.7 42.6 73.5 43.45 74.35 44.3 75.8 44.3 76.45 44.3 76.95 44.2 77.4 44.1 78.05 43.7
L 77.5 42.55
Q 76.9 43.1 76.1 43.1 74.2 43.1 74.2 41.1 74.2 40.15 74.7 39.6 75.15 39.05 76 39.05 76.85 39.05 77.4 39.5
L 78 38.4
M 65.3 47.75
Q 65.05 48 65.05 48.35 65.05 48.7 65.3 48.95 65.55 49.2 65.9 49.2 66.25 49.2 66.5 48.95 66.75 48.7 66.75 48.35 66.75 48 66.5 47.75 66.25 47.5 65.9 47.5 65.55 47.5 65.3 47.75
M 68.9 37.8
Q 67.6 37.8 66.7 38.75 65.8 39.65 65.8 41.15 65.8 42.65 66.6 43.5 67.45 44.3 68.9 44.3 70.4 44.3 71.2 43.7
L 70.65 42.55
Q 70.1 43.1 69.1 43.1 68.3 43.1 67.85 42.7 67.35 42.25 67.3 41.5
L 71.8 41.5
Q 71.9 40.95 71.9 40.7 71.9 39.45 71.1 38.6 70.25 37.8 68.9 37.8
M 68.9 39.05
Q 70.3 39.05 70.45 40.4
L 67.35 40.4
Q 67.65 39.05 68.9 39.05
M 64.5 36.55
Q 64.75 36.55 65.25 36.7
L 65.65 35.6
Q 64.9 35.35 64.4 35.35 63.4 35.35 62.75 36.05 62.1 36.75 62.1 37.9
L 61.15 37.9 61.15 39.15 62.05 39.15 62.05 44.2 63.55 44.2 63.55 39.15 64.8 39.15 64.8 37.9 63.5 37.9
Q 63.5 37.85 63.5 37.75 63.5 37.25 63.8 36.9 64.1 36.55 64.5 36.55
M 61.55 27.3
Q 62.1 27.05 62.95 27.05 64.35 27.05 64.35 28.15 64 28.05 63.7 28.05 62.2 28.05 61.4 28.65 60.6 29.3 60.6 30.35 60.6 31.3 61.15 31.8 61.75 32.3 62.75 32.3 63.3 32.3 63.8 32.1 64.3 31.9 64.5 31.55 64.55 31.85 64.8 32.1 65.1 32.3 65.4 32.3 65.7 32.3 65.9 32.25 66.1 32.15 66.3 31.85 65.8 31.55 65.8 30.3
L 65.8 28.95
Q 65.8 27.1 65.15 26.45 64.45 25.8 63.05 25.8 62 25.8 61.25 26.15
L 61.55 27.3
M 63.8 29.15
Q 63.95 29.15 64.35 29.25
L 64.35 29.85
Q 64.35 31.15 63 31.15 62.05 31.15 62.05 30.3 62.05 29.15 63.8 29.15
M 74.1 25.9
L 74.1 27.15 74.9 27.15 74.9 32.2 76.35 32.2 76.35 25.9 74.1 25.9
M 72.9 28.35
Q 72.9 27.15 72.25 26.5 71.6 25.8 70.5 25.8 69.3 25.8 68.7 26.5
L 68.45 25.9 67.4 25.9 67.4 32.2 68.85 32.2 68.85 27.65
Q 69.05 27.4 69.45 27.2 69.8 27.05 70.1 27.05 70.8 27.05 71.1 27.4 71.45 27.75 71.45 28.55
L 71.45 32.2 72.9 32.2 72.9 28.35
M 52.25 47.25
L 50.75 47.6 50.75 56.2 52.25 56.2 52.25 51.7
Q 52.4 51.45 52.75 51.25 53.15 51.05 53.5 51.05 54.1 51.05 54.45 51.4 54.8 51.75 54.8 52.35
L 54.8 56.2 56.25 56.2 56.25 52.35
Q 56.25 51.1 55.6 50.45 54.95 49.8 53.8 49.8 52.8 49.8 52.25 50.3
L 52.25 47.25
M 56.85 41.5
Q 56.95 40.95 56.95 40.7 56.95 39.45 56.15 38.6 55.3 37.8 53.95 37.8 52.65 37.8 51.75 38.75 50.85 39.65 50.85 41.15 50.85 42.65 51.65 43.5 52.5 44.3 53.95 44.3 55.45 44.3 56.25 43.7
L 55.7 42.55
Q 55.15 43.1 54.15 43.1 53.35 43.1 52.9 42.7 52.4 42.25 52.35 41.5
L 56.85 41.5
M 52.4 40.4
Q 52.7 39.05 53.95 39.05 55.35 39.05 55.5 40.4
L 52.4 40.4
M 44.8 41.1
Q 44.8 37.8 41.8 37.8 41 37.8 40.45 38.35
L 40.45 37.9 38.95 37.9 38.95 46.65 40.45 46.65 40.45 44.05
Q 41 44.3 41.7 44.3 43.15 44.3 43.95 43.5 44.8 42.65 44.8 41.1
M 41.4 39.05
Q 42.4 39.05 42.85 39.5 43.25 39.95 43.25 41.05 43.25 42.1 42.85 42.6 42.4 43.1 41.35 43.1 40.85 43.1 40.45 42.75
L 40.45 39.45
Q 40.85 39.05 41.4 39.05
M 49.2 37.8
Q 48.15 37.8 47.55 38.5
L 47.55 37.9 46.1 37.9 46.1 44.2 47.55 44.2 47.55 40.65
Q 47.55 39.95 47.95 39.5 48.35 39.05 48.85 39.05 49.35 39.05 49.7 39.3
L 50.35 38.05
Q 49.95 37.8 49.2 37.8
M 45.1 26.65
Q 44.35 25.8 42.9 25.8 41.55 25.8 40.7 26.7 39.9 27.6 39.9 29.05 39.9 30.55 40.7 31.45 41.45 32.3 42.9 32.3 44.3 32.3 45.1 31.45 45.9 30.55 45.9 29.05 45.9 27.55 45.1 26.65
M 44.4 29.05
Q 44.4 30.05 44 30.6 43.6 31.1 42.9 31.1 41.4 31.1 41.4 29.05 41.4 28.1 41.8 27.55 42.2 27 42.9 27 44.4 27 44.4 29.05
M 51.1 30.45
Q 51.1 29.8 50.7 29.3 50.35 28.85 49.55 28.55 48.7 28.2 48.45 28 48.2 27.8 48.2 27.6 48.2 26.95 48.95 26.95 49.85 26.95 50.3 27.4
L 50.75 26.25
Q 49.85 25.8 48.9 25.8 47.9 25.8 47.3 26.25 46.7 26.7 46.7 27.55 46.7 28.75 48.3 29.4 49.05 29.75 49.3 29.95 49.55 30.2 49.55 30.55 49.55 31.15 48.7 31.15 47.9 31.15 47.25 30.65
L 46.7 31.8
Q 47.3 32.1 47.7 32.2 48.05 32.3 48.7 32.3 49.8 32.3 50.45 31.8 51.1 31.3 51.1 30.45
M 59.05 27.4
L 59.5 26.25
Q 58.6 25.8 57.65 25.8 56.65 25.8 56.05 26.25 55.45 26.7 55.45 27.55 55.45 28.75 57.05 29.4 57.8 29.75 58.05 29.95 58.3 30.2 58.3 30.55 58.3 31.15 57.45 31.15 56.65 31.15 56 30.65
L 55.45 31.8
Q 56.05 32.1 56.45 32.2 56.8 32.3 57.45 32.3 58.55 32.3 59.2 31.8 59.85 31.3 59.85 30.45 59.85 29.8 59.45 29.3 59.1 28.85 58.3 28.55 57.45 28.2 57.2 28 56.95 27.8 56.95 27.6 56.95 26.95 57.7 26.95 58.6 26.95 59.05 27.4
M 55.1 14.25
Q 54.2 13.8 53.25 13.8 52.25 13.8 51.65 14.25 51.05 14.7 51.05 15.55 51.05 16.75 52.65 17.4 53.4 17.75 53.65 17.95 53.9 18.2 53.9 18.55 53.9 19.15 53.05 19.15 52.25 19.15 51.6 18.65
L 51.05 19.8
Q 51.65 20.1 52.05 20.2 52.4 20.3 53.05 20.3 54.15 20.3 54.8 19.8 55.45 19.3 55.45 18.45 55.45 17.8 55.05 17.3 54.7 16.85 53.9 16.55 53.05 16.2 52.8 16 52.55 15.8 52.55 15.6 52.55 14.95 53.3 14.95 54.2 14.95 54.65 15.4
L 55.1 14.25
M 45.6 15.3
Q 46.15 15.05 47 15.05 48.4 15.05 48.4 16.15 48.05 16.05 47.75 16.05 46.25 16.05 45.45 16.65 44.65 17.3 44.65 18.35 44.65 19.3 45.2 19.8 45.8 20.3 46.8 20.3 47.35 20.3 47.85 20.1 48.35 19.9 48.55 19.55 48.6 19.85 48.85 20.1 49.15 20.3 49.45 20.3 49.75 20.3 49.95 20.25 50.15 20.15 50.35 19.85 49.85 19.55 49.85 18.3
L 49.85 16.95
Q 49.85 15.1 49.2 14.45 48.5 13.8 47.1 13.8 46.05 13.8 45.3 14.15
L 45.6 15.3
M 46.1 18.3
Q 46.1 17.15 47.85 17.15 48 17.15 48.4 17.25
L 48.4 17.85
Q 48.4 19.15 47.05 19.15 46.1 19.15 46.1 18.3
M 75.05 23.75
Q 74.8 24 74.8 24.35 74.8 24.7 75.05 24.95 75.3 25.2 75.65 25.2 76 25.2 76.25 24.95 76.5 24.7 76.5 24.35 76.5 24 76.25 23.75 76 23.5 75.65 23.5 75.3 23.5 75.05 23.75
M 80.05 16.05
Q 80.05 15 79.5 14.4 78.9 13.8 77.85 13.8 77.35 13.8 76.85 14 76.4 14.2 76.1 14.5 75.45 13.8 74.2 13.8 73.25 13.8 72.65 14.5
L 72.35 13.9 71.35 13.9 71.35 20.2 72.8 20.2 72.8 15.7
Q 72.95 15.45 73.3 15.25 73.6 15.05 73.9 15.05 74.4 15.05 74.7 15.3 74.95 15.6 74.95 16.05
L 74.95 20.2 76.45 20.2 76.45 15.65
Q 76.55 15.4 76.85 15.25 77.15 15.05 77.5 15.05 78.6 15.05 78.6 16.25
L 78.6 20.2 80.05 20.2 80.05 16.05
M 61.9 15.1
L 63.6 15.1 63.6 13.9 61.9 13.9 61.9 12.1 60.4 12.65 60.4 13.9 59.7 13.9 59.7 15.1 60.4 15.1 60.4 18.3
Q 60.4 19.25 60.9 19.8 61.4 20.3 62.35 20.3 63.3 20.3 63.8 20.15
L 63.8 18.8
Q 63.35 19.1 62.85 19.1 62.3 19.1 62.1 18.8 61.9 18.5 61.9 17.85
L 61.9 15.1
M 66.9 15.05
Q 68.3 15.05 68.3 16.15 67.95 16.05 67.65 16.05 66.15 16.05 65.35 16.65 64.55 17.3 64.55 18.35 64.55 19.3 65.1 19.8 65.7 20.3 66.7 20.3 67.25 20.3 67.75 20.1 68.25 19.9 68.45 19.55 68.5 19.85 68.75 20.1 69.05 20.3 69.35 20.3 69.65 20.3 69.85 20.25 70.05 20.15 70.25 19.85 69.75 19.55 69.75 18.3
L 69.75 16.95
Q 69.75 15.1 69.1 14.45 68.4 13.8 67 13.8 65.95 13.8 65.2 14.15
L 65.5 15.3
Q 66.05 15.05 66.9 15.05
M 67.75 17.15
Q 67.9 17.15 68.3 17.25
L 68.3 17.85
Q 68.3 19.15 66.95 19.15 66 19.15 66 18.3 66 17.15 67.75 17.15
M 98.55 89.05
Q 98.55 87.55 97.75 86.65 97 85.8 95.55 85.8 94.2 85.8 93.35 86.7 92.55 87.6 92.55 89.05 92.55 90.55 93.35 91.45 94.1 92.3 95.55 92.3 96.95 92.3 97.75 91.45 98.55 90.55 98.55 89.05
M 97.05 89.05
Q 97.05 90.05 96.65 90.6 96.25 91.1 95.55 91.1 94.05 91.1 94.05 89.05 94.05 88.1 94.45 87.55 94.85 87 95.55 87 97.05 87 97.05 89.05
M 99.95 91.45
Q 99.95 91.85 100.3 92.2 100.6 92.5 101 92.5 101.45 92.5 101.75 92.2 102.1 91.85 102.1 91.45 102.1 91 101.75 90.7 101.45 90.4 101 90.4 100.6 90.4 100.3 90.7 99.95 91 99.95 91.45
M 89.6 85.8
Q 88.6 85.8 88 86.25 87.4 86.7 87.4 87.55 87.4 88.75 89 89.4 89.75 89.75 90 89.95 90.25 90.2 90.25 90.55 90.25 91.15 89.4 91.15 88.6 91.15 87.95 90.65
L 87.4 91.8
Q 88 92.1 88.4 92.2 88.75 92.3 89.4 92.3 90.5 92.3 91.15 91.8 91.8 91.3 91.8 90.45 91.8 89.8 91.4 89.3 91.05 88.85 90.25 88.55 89.4 88.2 89.15 88 88.9 87.8 88.9 87.6 88.9 86.95 89.65 86.95 90.55 86.95 91 87.4
L 91.45 86.25
Q 90.55 85.8 89.6 85.8
M 83.45 85.8
Q 82.4 85.8 81.65 86.15
L 81.95 87.3
Q 82.5 87.05 83.35 87.05 84.75 87.05 84.75 88.15 84.4 88.05 84.1 88.05 82.6 88.05 81.8 88.65 81 89.3 81 90.35 81 91.3 81.55 91.8 82.15 92.3 83.15 92.3 83.7 92.3 84.2 92.1 84.7 91.9 84.9 91.55 84.95 91.85 85.2 92.1 85.5 92.3 85.8 92.3 86.1 92.3 86.3 92.25 86.5 92.15 86.7 91.85 86.2 91.55 86.2 90.3
L 86.2 88.95
Q 86.2 87.1 85.55 86.45 84.85 85.8 83.45 85.8
M 84.2 89.15
Q 84.35 89.15 84.75 89.25
L 84.75 89.85
Q 84.75 91.15 83.4 91.15 82.45 91.15 82.45 90.3 82.45 89.15 84.2 89.15
M 83.45 76.95
Q 83.45 75.1 82.8 74.45 82.1 73.8 80.7 73.8 79.65 73.8 78.9 74.15
L 79.2 75.3
Q 79.75 75.05 80.6 75.05 82 75.05 82 76.15 81.65 76.05 81.35 76.05 79.85 76.05 79.05 76.65 78.25 77.3 78.25 78.35 78.25 79.3 78.8 79.8 79.4 80.3 80.4 80.3 80.95 80.3 81.45 80.1 81.95 79.9 82.15 79.55 82.2 79.85 82.45 80.1 82.75 80.3 83.05 80.3 83.35 80.3 83.55 80.25 83.75 80.15 83.95 79.85 83.45 79.55 83.45 78.3
L 83.45 76.95
M 81.45 77.15
Q 81.6 77.15 82 77.25
L 82 77.85
Q 82 79.15 80.65 79.15 79.7 79.15 79.7 78.3 79.7 77.15 81.45 77.15
M 92.05 73.9
L 89.8 73.9 89.8 75.15 90.6 75.15 90.6 80.2 92.05 80.2 92.05 73.9
M 95.85 73.8
Q 94.8 73.8 94.05 74.15
L 94.35 75.3
Q 94.9 75.05 95.75 75.05 97.15 75.05 97.15 76.15 96.8 76.05 96.5 76.05 95 76.05 94.2 76.65 93.4 77.3 93.4 78.35 93.4 79.3 93.95 79.8 94.55 80.3 95.55 80.3 96.1 80.3 96.6 80.1 97.1 79.9 97.3 79.55 97.35 79.85 97.6 80.1 97.9 80.3 98.2 80.3 98.5 80.3 98.7 80.25 98.9 80.15 99.1 79.85 98.6 79.55 98.6 78.3
L 98.6 76.95
Q 98.6 75.1 97.95 74.45 97.25 73.8 95.85 73.8
M 96.6 77.15
Q 96.75 77.15 97.15 77.25
L 97.15 77.85
Q 97.15 79.15 95.8 79.15 94.85 79.15 94.85 78.3 94.85 77.15 96.6 77.15
M 91.3 61.9
L 91.3 66
Q 91.3 68.3 93.5 68.3 93.95 68.3 94.5 68.15 95 67.95 95.35 67.7
L 95.35 68.2 96.8 68.2 96.8 61.9 95.35 61.9 95.35 66.25
Q 95.2 66.6 94.75 66.85 94.35 67.1 93.85 67.1 92.75 67.1 92.75 65.9
L 92.75 61.9 91.3 61.9
M 89.3 74.05
Q 88.9 73.8 88.15 73.8 87.1 73.8 86.5 74.5
L 86.5 73.9 85.05 73.9 85.05 80.2 86.5 80.2 86.5 76.65
Q 86.5 75.95 86.9 75.5 87.3 75.05 87.8 75.05 88.3 75.05 88.65 75.3
L 89.3 74.05
M 90.75 71.75
Q 90.5 72 90.5 72.35 90.5 72.7 90.75 72.95 91 73.2 91.35 73.2 91.7 73.2 91.95 72.95 92.2 72.7 92.2 72.35 92.2 72 91.95 71.75 91.7 71.5 91.35 71.5 91 71.5 90.75 71.75
M 81.15 73.1
L 82.45 71.35 81 71.35 80 73.1 81.15 73.1
M 84.6 63.4
L 85.05 62.25
Q 84.15 61.8 83.2 61.8 82.2 61.8 81.6 62.25 81 62.7 81 63.55 81 64.75 82.6 65.4 83.35 65.75 83.6 65.95 83.85 66.2 83.85 66.55 83.85 67.15 83 67.15 82.2 67.15 81.55 66.65
L 81 67.8
Q 81.6 68.1 82 68.2 82.35 68.3 83 68.3 84.1 68.3 84.75 67.8 85.4 67.3 85.4 66.45 85.4 65.8 85 65.3 84.65 64.85 83.85 64.55 83 64.2 82.75 64 82.5 63.8 82.5 63.6 82.5 62.95 83.25 62.95 84.15 62.95 84.6 63.4
M 88.25 60.1
L 86.75 60.65 86.75 61.9 86.05 61.9 86.05 63.1 86.75 63.1 86.75 66.3
Q 86.75 67.25 87.25 67.8 87.75 68.3 88.7 68.3 89.65 68.3 90.15 68.15
L 90.15 66.8
Q 89.7 67.1 89.2 67.1 88.65 67.1 88.45 66.8 88.25 66.5 88.25 65.85
L 88.25 63.1 89.95 63.1 89.95 61.9 88.25 61.9 88.25 60.1
M 82.75 52.55
Q 81.9 52.2 81.65 52 81.4 51.8 81.4 51.6 81.4 50.95 82.15 50.95 83.05 50.95 83.5 51.4
L 83.95 50.25
Q 83.05 49.8 82.1 49.8 81.1 49.8 80.5 50.25 79.9 50.7 79.9 51.55 79.9 52.75 81.5 53.4 82.25 53.75 82.5 53.95 82.75 54.2 82.75 54.55 82.75 55.15 81.9 55.15 81.1 55.15 80.45 54.65
L 79.9 55.8
Q 80.5 56.1 80.9 56.2 81.25 56.3 81.9 56.3 83 56.3 83.65 55.8 84.3 55.3 84.3 54.45 84.3 53.8 83.9 53.3 83.55 52.85 82.75 52.55
M 93.9 55.5
Q 94.75 54.65 94.75 53.1 94.75 49.8 91.75 49.8 90.95 49.8 90.4 50.35
L 90.4 49.9 88.9 49.9 88.9 58.65 90.4 58.65 90.4 56.05
Q 90.95 56.3 91.65 56.3 93.1 56.3 93.9 55.5
M 91.35 51.05
Q 92.35 51.05 92.8 51.5 93.2 51.95 93.2 53.05 93.2 54.1 92.8 54.6 92.35 55.1 91.3 55.1 90.8 55.1 90.4 54.75
L 90.4 51.45
Q 90.8 51.05 91.35 51.05
M 100.85 50.65
Q 100.1 49.8 98.65 49.8 97.3 49.8 96.45 50.7 95.65 51.6 95.65 53.05 95.65 54.55 96.45 55.45 97.2 56.3 98.65 56.3 100.05 56.3 100.85 55.45 101.65 54.55 101.65 53.05 101.65 51.55 100.85 50.65
M 98.65 55.1
Q 97.15 55.1 97.15 53.05 97.15 52.1 97.55 51.55 97.95 51 98.65 51 100.15 51 100.15 53.05 100.15 54.05 99.75 54.6 99.35 55.1 98.65 55.1
M 105.85 73.8
Q 104.8 73.8 104.05 74.15
L 104.35 75.3
Q 104.9 75.05 105.75 75.05 107.15 75.05 107.15 76.15 106.8 76.05 106.5 76.05 105 76.05 104.2 76.65 103.4 77.3 103.4 78.35 103.4 79.3 103.95 79.8 104.55 80.3 105.55 80.3 106.1 80.3 106.6 80.1 107.1 79.9 107.3 79.55 107.35 79.85 107.6 80.1 107.9 80.3 108.2 80.3 108.5 80.3 108.7 80.25 108.9 80.15 109.1 79.85 108.6 79.55 108.6 78.3
L 108.6 76.95
Q 108.6 75.1 107.95 74.45 107.25 73.8 105.85 73.8
M 106.6 77.15
Q 106.75 77.15 107.15 77.25
L 107.15 77.85
Q 107.15 79.15 105.8 79.15 104.85 79.15 104.85 78.3 104.85 77.15 106.6 77.15
M 105.95 71.35
L 104.4 71.35 105.75 73.1 106.95 73.1 105.95 71.35
M 102 63.3
L 102.65 62.05
Q 102.25 61.8 101.5 61.8 100.45 61.8 99.85 62.5
L 99.85 61.9 98.4 61.9 98.4 68.2 99.85 68.2 99.85 64.65
Q 99.85 63.95 100.25 63.5 100.65 63.05 101.15 63.05 101.65 63.05 102 63.3
M 108.55 67.7
L 108 66.55
Q 107.45 67.1 106.45 67.1 105.65 67.1 105.2 66.7 104.7 66.25 104.65 65.5
L 109.15 65.5
Q 109.25 64.95 109.25 64.7 109.25 63.45 108.45 62.6 107.6 61.8 106.25 61.8 104.95 61.8 104.05 62.75 103.15 63.65 103.15 65.15 103.15 66.65 103.95 67.5 104.8 68.3 106.25 68.3 107.75 68.3 108.55 67.7
M 104.7 64.4
Q 105 63.05 106.25 63.05 107.65 63.05 107.8 64.4
L 104.7 64.4
M 106.9 49.9
L 106.9 54.25
Q 106.75 54.6 106.3 54.85 105.9 55.1 105.4 55.1 104.3 55.1 104.3 53.9
L 104.3 49.9 102.85 49.9 102.85 54
Q 102.85 56.3 105.05 56.3 105.5 56.3 106.05 56.15 106.55 55.95 106.9 55.7
L 106.9 56.2 108.35 56.2 108.35 49.9 106.9 49.9
M 114.85 50.4
Q 114.05 49.8 112.95 49.8 111.35 49.8 110.45 50.7 109.55 51.65 109.55 53.1 109.55 54.6 110.35 55.45 111.2 56.3 112.65 56.3 113.3 56.3 113.8 56.2 114.25 56.1 114.9 55.7
L 114.35 54.55
Q 113.75 55.1 112.95 55.1 111.05 55.1 111.05 53.1 111.05 52.15 111.55 51.6 112 51.05 112.85 51.05 113.7 51.05 114.25 51.5
L 114.85 50.4
M 118.7 49.8
Q 117.35 49.8 116.5 50.7 115.7 51.6 115.7 53.05 115.7 54.55 116.5 55.45 117.25 56.3 118.7 56.3 120.1 56.3 120.9 55.45 121.7 54.55 121.7 53.05 121.7 51.55 120.9 50.65 120.15 49.8 118.7 49.8
M 117.2 53.05
Q 117.2 52.1 117.6 51.55 118 51 118.7 51 120.2 51 120.2 53.05 120.2 54.05 119.8 54.6 119.4 55.1 118.7 55.1 117.2 55.1 117.2 53.05
M 111.8 42.7
Q 111.45 43 111.45 43.45 111.45 43.85 111.8 44.2 112.1 44.5 112.5 44.5 112.95 44.5 113.25 44.2 113.6 43.85 113.6 43.45 113.6 43 113.25 42.7 112.95 42.4 112.5 42.4 112.1 42.4 111.8 42.7
M 109.3 39.4
L 109.75 38.25
Q 108.85 37.8 107.9 37.8 106.9 37.8 106.3 38.25 105.7 38.7 105.7 39.55 105.7 40.75 107.3 41.4 108.05 41.75 108.3 41.95 108.55 42.2 108.55 42.55 108.55 43.15 107.7 43.15 106.9 43.15 106.25 42.65
L 105.7 43.8
Q 106.3 44.1 106.7 44.2 107.05 44.3 107.7 44.3 108.8 44.3 109.45 43.8 110.1 43.3 110.1 42.45 110.1 41.8 109.7 41.3 109.35 40.85 108.55 40.55 107.7 40.2 107.45 40 107.2 39.8 107.2 39.6 107.2 38.95 107.95 38.95 108.85 38.95 109.3 39.4
M 108.8 30.45
Q 108.8 29.8 108.4 29.3 108.05 28.85 107.25 28.55 106.4 28.2 106.15 28 105.9 27.8 105.9 27.6 105.9 26.95 106.65 26.95 107.55 26.95 108 27.4
L 108.45 26.25
Q 107.55 25.8 106.6 25.8 105.6 25.8 105 26.25 104.4 26.7 104.4 27.55 104.4 28.75 106 29.4 106.75 29.75 107 29.95 107.25 30.2 107.25 30.55 107.25 31.15 106.4 31.15 105.6 31.15 104.95 30.65
L 104.4 31.8
Q 105 32.1 105.4 32.2 105.75 32.3 106.4 32.3 107.5 32.3 108.15 31.8 108.8 31.3 108.8 30.45
M 100.1 40.65
Q 99.3 41.3 99.3 42.35 99.3 43.3 99.85 43.8 100.45 44.3 101.45 44.3 102 44.3 102.5 44.1 103 43.9 103.2 43.55 103.25 43.85 103.5 44.1 103.8 44.3 104.1 44.3 104.4 44.3 104.6 44.25 104.8 44.15 105 43.85 104.5 43.55 104.5 42.3
L 104.5 40.95
Q 104.5 39.1 103.85 38.45 103.15 37.8 101.75 37.8 100.7 37.8 99.95 38.15
L 100.25 39.3
Q 100.8 39.05 101.65 39.05 103.05 39.05 103.05 40.15 102.7 40.05 102.4 40.05 100.9 40.05 100.1 40.65
M 103.05 41.25
L 103.05 41.85
Q 103.05 43.15 101.7 43.15 100.75 43.15 100.75 42.3 100.75 41.15 102.5 41.15 102.65 41.15 103.05 41.25
M 84.75 40.35
Q 84.75 39.1 84.1 38.45 83.45 37.8 82.3 37.8 81.3 37.8 80.75 38.3
L 80.75 35.25 79.25 35.6 79.25 44.2 80.75 44.2 80.75 39.7
Q 80.9 39.45 81.25 39.25 81.65 39.05 82 39.05 82.6 39.05 82.95 39.4 83.3 39.75 83.3 40.35
L 83.3 44.2 84.75 44.2 84.75 40.35
M 89.7 40.15
Q 89.35 40.05 89.05 40.05 87.55 40.05 86.75 40.65 85.95 41.3 85.95 42.35 85.95 43.3 86.5 43.8 87.1 44.3 88.1 44.3 88.65 44.3 89.15 44.1 89.65 43.9 89.85 43.55 89.9 43.85 90.15 44.1 90.45 44.3 90.75 44.3 91.05 44.3 91.25 44.25 91.45 44.15 91.65 43.85 91.15 43.55 91.15 42.3
L 91.15 40.95
Q 91.15 39.1 90.5 38.45 89.8 37.8 88.4 37.8 87.35 37.8 86.6 38.15
L 86.9 39.3
Q 87.45 39.05 88.3 39.05 89.7 39.05 89.7 40.15
M 88.35 43.15
Q 87.4 43.15 87.4 42.3 87.4 41.15 89.15 41.15 89.3 41.15 89.7 41.25
L 89.7 41.85
Q 89.7 43.15 88.35 43.15
M 81.5 27.1
L 81.5 25.9 79.8 25.9 79.8 24.1 78.3 24.65 78.3 25.9 77.6 25.9 77.6 27.1 78.3 27.1 78.3 30.3
Q 78.3 31.25 78.8 31.8 79.3 32.3 80.25 32.3 81.2 32.3 81.7 32.15
L 81.7 30.8
Q 81.25 31.1 80.75 31.1 80.2 31.1 80 30.8 79.8 30.5 79.8 29.85
L 79.8 27.1 81.5 27.1
M 87.65 28.95
Q 87.65 27.1 87 26.45 86.3 25.8 84.9 25.8 83.85 25.8 83.1 26.15
L 83.4 27.3
Q 83.95 27.05 84.8 27.05 86.2 27.05 86.2 28.15 85.85 28.05 85.55 28.05 84.05 28.05 83.25 28.65 82.45 29.3 82.45 30.35 82.45 31.3 83 31.8 83.6 32.3 84.6 32.3 85.15 32.3 85.65 32.1 86.15 31.9 86.35 31.55 86.4 31.85 86.65 32.1 86.95 32.3 87.25 32.3 87.55 32.3 87.75 32.25 87.95 32.15 88.15 31.85 87.65 31.55 87.65 30.3
L 87.65 28.95
M 86.2 29.25
L 86.2 29.85
Q 86.2 31.15 84.85 31.15 83.9 31.15 83.9 30.3 83.9 29.15 85.65 29.15 85.8 29.15 86.2 29.25
M 98.25 35.25
L 96.8 35.6 96.8 38.1
Q 96.2 37.8 95.5 37.8 94.2 37.8 93.3 38.75 92.45 39.7 92.45 41.15 92.45 42.65 93.2 43.5 93.95 44.3 95.25 44.3 95.75 44.3 96.15 44.15 96.6 44 96.8 43.8
L 96.8 44.2 98.25 44.2 98.25 35.25
M 96.8 39.4
L 96.8 42.7
Q 96.7 42.85 96.4 42.95 96.05 43.1 95.85 43.1 93.95 43.1 93.95 41.1 93.95 40.1 94.45 39.6 94.9 39.05 95.8 39.05 96.3 39.05 96.8 39.4
M 92 27.05
Q 92.5 27.05 92.85 27.3
L 93.5 26.05
Q 93.1 25.8 92.35 25.8 91.3 25.8 90.7 26.5
L 90.7 25.9 89.25 25.9 89.25 32.2 90.7 32.2 90.7 28.65
Q 90.7 27.95 91.1 27.5 91.5 27.05 92 27.05
M 94 27.15
L 94.8 27.15 94.8 32.2 96.25 32.2 96.25 25.9 94 25.9 94 27.15
M 100.6 25.8
Q 99.25 25.8 98.4 26.7 97.6 27.6 97.6 29.05 97.6 30.55 98.4 31.45 99.15 32.3 100.6 32.3 102 32.3 102.8 31.45 103.6 30.55 103.6 29.05 103.6 27.55 102.8 26.65 102.05 25.8 100.6 25.8
M 99.5 27.55
Q 99.9 27 100.6 27 102.1 27 102.1 29.05 102.1 30.05 101.7 30.6 101.3 31.1 100.6 31.1 99.1 31.1 99.1 29.05 99.1 28.1 99.5 27.55
M 96.15 23.75
Q 95.9 23.5 95.55 23.5 95.2 23.5 94.95 23.75 94.7 24 94.7 24.35 94.7 24.7 94.95 24.95 95.2 25.2 95.55 25.2 95.9 25.2 96.15 24.95 96.4 24.7 96.4 24.35 96.4 24 96.15 23.75
M 98.7 14.25
Q 97.8 13.8 96.85 13.8 95.85 13.8 95.25 14.25 94.65 14.7 94.65 15.55 94.65 16.75 96.25 17.4 97 17.75 97.25 17.95 97.5 18.2 97.5 18.55 97.5 19.15 96.65 19.15 95.85 19.15 95.2 18.65
L 94.65 19.8
Q 95.25 20.1 95.65 20.2 96 20.3 96.65 20.3 97.75 20.3 98.4 19.8 99.05 19.3 99.05 18.45 99.05 17.8 98.65 17.3 98.3 16.85 97.5 16.55 96.65 16.2 96.4 16 96.15 15.8 96.15 15.6 96.15 14.95 96.9 14.95 97.8 14.95 98.25 15.4
L 98.7 14.25
M 86.65 23.35
L 85.2 23.35 84.2 25.1 85.35 25.1 86.65 23.35
M 84.35 13.8
Q 83.55 13.8 83 14.35
L 83 13.9 81.5 13.9 81.5 22.65 83 22.65 83 20.05
Q 83.55 20.3 84.25 20.3 85.7 20.3 86.5 19.5 87.35 18.65 87.35 17.1 87.35 13.8 84.35 13.8
M 85.4 15.5
Q 85.8 15.95 85.8 17.05 85.8 18.1 85.4 18.6 84.95 19.1 83.9 19.1 83.4 19.1 83 18.75
L 83 15.45
Q 83.4 15.05 83.95 15.05 84.95 15.05 85.4 15.5
M 89.05 16.65
Q 88.25 17.3 88.25 18.35 88.25 19.3 88.8 19.8 89.4 20.3 90.4 20.3 90.95 20.3 91.45 20.1 91.95 19.9 92.15 19.55 92.2 19.85 92.45 20.1 92.75 20.3 93.05 20.3 93.35 20.3 93.55 20.25 93.75 20.15 93.95 19.85 93.45 19.55 93.45 18.3
L 93.45 16.95
Q 93.45 15.1 92.8 14.45 92.1 13.8 90.7 13.8 89.65 13.8 88.9 14.15
L 89.2 15.3
Q 89.75 15.05 90.6 15.05 92 15.05 92 16.15 91.65 16.05 91.35 16.05 89.85 16.05 89.05 16.65
M 90.65 19.15
Q 89.7 19.15 89.7 18.3 89.7 17.15 91.45 17.15 91.6 17.15 92 17.25
L 92 17.85
Q 92 19.15 90.65 19.15
M 121.2 14.25
Q 120.3 13.8 119.35 13.8 118.35 13.8 117.75 14.25 117.15 14.7 117.15 15.55 117.15 16.75 118.75 17.4 119.5 17.75 119.75 17.95 120 18.2 120 18.55 120 19.15 119.15 19.15 118.35 19.15 117.7 18.65
L 117.15 19.8
Q 117.75 20.1 118.15 20.2 118.5 20.3 119.15 20.3 120.25 20.3 120.9 19.8 121.55 19.3 121.55 18.45 121.55 17.8 121.15 17.3 120.8 16.85 120 16.55 119.15 16.2 118.9 16 118.65 15.8 118.65 15.6 118.65 14.95 119.4 14.95 120.3 14.95 120.75 15.4
L 121.2 14.25
M 111.15 14.7
Q 110.35 15.6 110.35 17.05 110.35 18.55 111.15 19.45 111.9 20.3 113.35 20.3 114.75 20.3 115.55 19.45 116.35 18.55 116.35 17.05 116.35 15.55 115.55 14.65 114.8 13.8 113.35 13.8 112 13.8 111.15 14.7
M 112.25 15.55
Q 112.65 15 113.35 15 114.85 15 114.85 17.05 114.85 18.05 114.45 18.6 114.05 19.1 113.35 19.1 111.85 19.1 111.85 17.05 111.85 16.1 112.25 15.55
M 109.3 11.25
L 107.85 11.6 107.85 14.1
Q 107.25 13.8 106.55 13.8 105.25 13.8 104.35 14.75 103.5 15.7 103.5 17.15 103.5 18.65 104.25 19.5 105 20.3 106.3 20.3 106.8 20.3 107.2 20.15 107.65 20 107.85 19.8
L 107.85 20.2 109.3 20.2 109.3 11.25
M 106.85 15.05
Q 107.35 15.05 107.85 15.4
L 107.85 18.7
Q 107.75 18.85 107.45 18.95 107.1 19.1 106.9 19.1 105 19.1 105 17.1 105 16.1 105.5 15.6 105.95 15.05 106.85 15.05 Z"/>
</g>

<path id="Layer0_0_1_STROKES" stroke="#8CA8B8" stroke-width="1" stroke-linejoin="round" stroke-linecap="round" fill="none" d="
M 118.8 0.4
Q 122.9 0.4 125.8 3.35 128.75 6.25 128.75 10.35
L 128.75 91.95
Q 128.65 95.9 125.8 98.7 122.9 101.65 118.8 101.65
L 10.15 101.65
Q 6.05 101.65 3.15 98.7 0.35 95.9 0.25 91.95
L 0.25 10.35
Q 0.25 6.25 3.15 3.35 6.05 0.4 10.15 0.4
L 118.75 0.4"/>
</defs>

<g transform="matrix( 1, 0, 0, 1, 0,0) ">
<use xlink:href="#Layer0_0_FILL"/>

<use xlink:href="#Layer0_0_1_STROKES"/>
</g>
</svg>
