<svg xmlns="http://www.w3.org/2000/svg" xmlns:xlink="http://www.w3.org/1999/xlink" preserveAspectRatio="none" width="133" height="106" viewBox="0 0 133 106"><defs><g id="a"><path fill="#FFF" d="M701.75 312.8q-2.9-2.95-7-2.95H586.1q-4.1 0-7 2.95-2.9 2.9-2.9 7v81.6q.1 3.95 2.9 6.75 2.9 2.95 7 2.95h108.65q4.1 0 7-2.95 2.85-2.8 2.95-6.75v-81.6q0-4.1-2.95-7m-10 10q2.95 2.9 2.95 7v66.7h-.55q-.75 2-2.4 3.65-2.9 2.95-7 2.95H596.1q-4.1 0-7-2.95-1.65-1.65-2.35-3.65h-.55v-66.7q0-4.1 2.9-7 2.9-2.95 7-2.95h88.65q4.1 0 7 2.95z"/><path fill="#F66" d="M694.7 329.8q0-4.1-2.95-7-2.9-2.95-7-2.95H596.1q-4.1 0-7 2.95-2.9 2.9-2.9 7v66.7h.55q.7 2 2.35 3.65 2.9 2.95 7 2.95h88.65q4.1 0 7-2.95 1.65-1.65 2.4-3.65h.55v-66.7m-95.85 14h1.4v4.85q0 1.6-.7 2.35-.65.75-2.1.75-1 0-1.6-.5-.6-.5-.65-1.4h1.25q.15.65 1.15.65.65 0 .95-.45.3-.4.3-1.35v-4.9m4.7 2q1.3 0 1.9.6.65.6.65 2.25v1.25q0 1.15.45 1.45-.15.25-.35.35-.25.05-.5.05-.3 0-.5-.2-.25-.2-.3-.45-.2.3-.65.45-.45.2-.95.2-.95 0-1.45-.45-.55-.45-.55-1.35 0-.95.75-1.55.75-.55 2.15-.55.2 0 .55.1 0-1.05-1.3-1.05-.75 0-1.25.25l-.3-1.05q.7-.3 1.65-.3m9.95 0q.95 0 1.5.55t.55 1.5v3.8h-1.35v-3.6q0-1.15-1.05-1.15-.3 0-.55.2-.3.15-.4.4v4.15h-1.35v-3.8q0-.45-.25-.7-.25-.25-.75-.25-.25 0-.55.2-.3.2-.45.4v4.15h-1.3v-5.75h.9l.25.5q.6-.6 1.45-.6 1.15 0 1.75.6.25-.25.7-.45.45-.15.9-.15m5.35 0q1.3 0 1.9.6.65.6.65 2.25v1.25q0 1.15.45 1.45-.15.25-.35.35-.25.05-.5.05-.3 0-.5-.2-.25-.2-.3-.45-.2.3-.65.45-.45.2-.95.2-.95 0-1.45-.45-.55-.45-.55-1.35 0-.95.75-1.55.75-.55 2.15-.55.2 0 .55.1 0-1.05-1.3-1.05-.75 0-1.25.25l-.3-1.05q.7-.3 1.65-.3m5.05-2.15q.3 0 .55.25.2.25.2.55 0 .3-.2.55-.25.25-.55.25-.35 0-.55-.25-.25-.25-.25-.55 0-.3.25-.55.2-.25.55-.25m-1.45 2.25h2.1v5.75h-1.35V347h-.75v-1.1m5.3-.1q.9 0 1.7.4l-.4 1.05q-.4-.4-1.2-.4-.7 0-.7.55 0 .25.25.4.2.2.95.5t1.1.7q.35.45.35 1.05 0 .8-.6 1.25-.6.45-1.6.45-.6 0-.95-.1t-.9-.35l.5-1.1q.6.5 1.35.5.8 0 .8-.55 0-.35-.25-.55-.25-.2-.9-.5-1.5-.6-1.5-1.75 0-.75.55-1.15.6-.4 1.45-.4m7.55-.8q-.25-.25-.25-.55 0-.3.25-.55.2-.25.55-.25.3 0 .55.25.2.25.2.55 0 .3-.2.55-.25.25-.55.25-.35 0-.55-.25m-1.1.9h2.35v5.6q0 1.25-.75 1.85-.8.55-2.4.55v-1.2q1.05 0 1.45-.25.35-.25.35-.9V347h-1v-1.1m8.45 5.05q-.75.8-2.05.8-1.3 0-2-.8-.75-.85-.75-2.2 0-1.3.75-2.15.75-.8 2-.8 1.35 0 2.05.8.75.8.75 2.15 0 1.4-.75 2.2m5.55-5.5l.9.85-.65.45q.35.5.35 1.2 0 1-.6 1.6-.6.55-1.5.55h-.4l-.2-.05q-.05 0-.3.15-.25.1-.25.2 0 .25.35.25.2 0 .6-.1.35-.1.65-.1 1.95 0 1.95 1.6 0 .85-.75 1.35-.8.5-1.9.5-1.35 0-2.4-.75l.85-1.05q.7.6 1.55.6.6 0 .95-.15.4-.15.4-.45 0-.55-.85-.55-.2 0-.65.05-.45.1-.7.1-1.35 0-1.35-1 0-.3.2-.6.25-.25.55-.4-1-.6-1-1.8 0-.9.7-1.5.65-.6 1.65-.6.8 0 1.3.25l.55-.6m1.8.45h1.3v3.65q0 1.1 1 1.1.45 0 .85-.25.4-.25.55-.55v-3.95h1.3v5.75h-1.3v-.5q-.3.25-.8.45-.5.15-.9.15-2 0-2-2.1v-3.75m16.3-2.15l1.35-.3v6.45q0 1.05.65 1.25-.35.6-1.1.6-.9 0-.9-1.25v-6.75m4.1 1.5q-.35 0-.55-.25-.25-.25-.25-.55 0-.3.25-.55.2-.25.55-.25.3 0 .55.25.2.25.2.55 0 .3-.2.55-.25.25-.55.25m-1.45.65h2.1v5.75h-1.35V347h-.75v-1.1m7.25 0h1.55l-2.2 2.8 2.4 2.95h-1.65l-1.45-1.85-1.35 1.85h-1.55l2.2-2.95-2.05-2.8h1.55l1.2 1.75 1.35-1.75m6.9 5.05q-.75.8-2.05.8-1.3 0-2-.8-.75-.85-.75-2.2 0-1.3.75-2.15.75-.8 2-.8 1.35 0 2.05.8.75.8.75 2.15 0 1.4-.75 2.2m-23.95-.3q.9 0 1.4-.5l.5 1.05q-.7.55-2.1.55-1.3 0-2.1-.75-.75-.8-.75-2.15 0-1.35.85-2.2.85-.85 2-.85 1.25 0 2 .75t.75 1.9q0 .25-.1.75h-4.1q.05.65.45 1.05.45.4 1.2.4m-52.95 9.55q.55.6.55 1.7v3.55h-1.3v-3.3q0-.75-.3-1.1-.3-.35-.95-.35-.25 0-.6.2-.35.15-.55.4v4.15h-1.3v-5.75h.95l.25.55q.55-.65 1.6-.65t1.65.6m22.95 4.25q.45 0 .85-.25.4-.25.55-.55v-3.95h1.3v5.75h-1.3v-.5q-.3.25-.8.45-.5.15-.9.15-2 0-2-2.1v-3.75h1.3v3.65q0 1.1 1 1.1m-14.05-3.25q0 .25.25.4.2.2.95.5t1.1.7q.35.45.35 1.05 0 .8-.6 1.25-.6.45-1.6.45-.6 0-.95-.1t-.9-.35l.5-1.1q.6.5 1.35.5.8 0 .8-.55 0-.35-.25-.55-.25-.2-.9-.5-1.5-.6-1.5-1.75 0-.75.55-1.15.6-.4 1.45-.4.9 0 1.7.4l-.4 1.05q-.4-.4-1.2-.4-.7 0-.7.55m-2.45 1.25v1.25q0 1.15.45 1.45-.15.25-.35.35-.25.05-.5.05-.3 0-.5-.2-.25-.2-.3-.45-.2.3-.65.45-.45.2-.95.2-.95 0-1.45-.45-.55-.45-.55-1.35 0-.95.75-1.55.75-.55 2.15-.55.2 0 .55.1 0-1.05-1.3-1.05-.75 0-1.25.25l-.3-1.05q.7-.3 1.65-.3 1.3 0 1.9.6.65.6.65 2.25M626 359.8l-.55 1.15q-.35-.25-.8-.25-.45 0-.8.45-.4.4-.4 1v3.3h-1.3v-5.75h1.3v.5q.6-.6 1.5-.6.7 0 1.05.2m9.85 1.85q.2 0 .55.1 0-1.05-1.3-1.05-.75 0-1.25.25l-.3-1.05q.7-.3 1.65-.3 1.3 0 1.9.6.65.6.65 2.25v1.25q0 1.15.45 1.45-.15.25-.35.35-.25.05-.5.05-.3 0-.5-.2-.25-.2-.3-.45-.2.3-.65.45-.45.2-.95.2-.95 0-1.45-.45-.55-.45-.55-1.35 0-.95.75-1.55.75-.55 2.15-.55m6.25-.6q-.4-.4-1.2-.4-.7 0-.7.55 0 .25.25.4.2.2.95.5t1.1.7q.35.45.35 1.05 0 .8-.6 1.25-.6.45-1.6.45-.6 0-.95-.1t-.9-.35l.5-1.1q.6.5 1.35.5.8 0 .8-.55 0-.35-.25-.55-.25-.2-.9-.5-1.5-.6-1.5-1.75 0-.75.55-1.15.6-.4 1.45-.4.9 0 1.7.4l-.4 1.05m32.55-.15q-.3.15-.4.4v4.15h-1.35v-3.8q0-.45-.25-.7-.25-.25-.75-.25-.25 0-.55.2-.3.2-.45.4v4.15h-1.3v-5.75h.9l.25.5q.6-.6 1.45-.6 1.15 0 1.75.6.25-.25.7-.45.45-.15.9-.15.95 0 1.5.55t.55 1.5v3.8h-1.35v-3.6q0-1.15-1.05-1.15-.3 0-.55.2m-6.15 1.35q0 .25-.1.75h-4.1q.05.65.45 1.05.45.4 1.2.4.9 0 1.4-.5l.5 1.05q-.7.55-2.1.55-1.3 0-2.1-.75-.75-.8-.75-2.15 0-1.35.85-2.2.85-.85 2-.85 1.25 0 2 .75t.75 1.9m-12.7 2.2q.45 0 .85-.25.4-.25.55-.55v-3.95h1.3v5.75h-1.3v-.5q-.3.25-.8.45-.5.15-.9.15-2 0-2-2.1v-3.75h1.3v3.65q0 1.1 1 1.1m-3.4-1.9q0 1.4-.75 2.2-.75.8-2.05.8-1.3 0-2-.8-.75-.85-.75-2.2 0-1.3.75-2.15.75-.8 2-.8 1.35 0 2.05.8.75.8.75 2.15m-46.1 13.5q0 .25-.1.75h-4.1q.05.65.45 1.05.45.4 1.2.4.9 0 1.4-.5l.5 1.05q-.7.55-2.1.55-1.3 0-2.1-.75-.75-.8-.75-2.15 0-1.35.85-2.2.85-.85 2-.85 1.25 0 2 .75t.75 1.9m-8.05-1.45v2.5q0 .6.2.85t.7.25q.5 0 .9-.25v1.25q-.45.15-1.35.15-.85 0-1.3-.5-.45-.45-.45-1.35v-2.9h-.7v-1.1h.7v-1.15l1.3-.5v1.65h1.6v1.1h-1.6m9.15 4.65v-5.75h1.3v.5q.6-.6 1.5-.6.7 0 1.05.2l-.55 1.15q-.35-.25-.8-.25-.45 0-.8.45-.4.4-.4 1v3.3h-1.3m18.5-5.85q1.05 0 1.65.6.55.6.55 1.7v3.55h-1.3v-3.3q0-.75-.3-1.1-.3-.35-.95-.35-.25 0-.6.2-.35.15-.55.4v4.15h-1.3v-5.75h.95l.25.55q.55-.65 1.6-.65m-3.9 2.65q0 .25-.1.75h-4.1q.05.65.45 1.05.45.4 1.2.4.9 0 1.4-.5l.5 1.05q-.7.55-2.1.55-1.3 0-2.1-.75-.75-.8-.75-2.15 0-1.35.85-2.2.85-.85 2-.85 1.25 0 2 .75t.75 1.9m-8.6-2.05q.6-.6 1.5-.6.7 0 1.05.2l-.55 1.15q-.35-.25-.8-.25-.45 0-.8.45-.4.4-.4 1v3.3h-1.3v-5.75h1.3v.5m53.35-2.75q.3 0 .55.25.2.25.2.55 0 .3-.2.55-.25.25-.55.25-.35 0-.55-.25-.25-.25-.25-.55 0-.3.25-.55.2-.25.55-.25m-.7 3.35h-.75v-1.1h2.1v5.75h-1.35v-4.65m-3-.95v-2.3l1.3-.3v8.2h-1.3v-.35q-.2.2-.6.3-.4.15-.8.15-1.2 0-1.9-.75t-.7-2.15q0-1.35.8-2.2.8-.85 2-.85.65 0 1.2.25M654 374q.65.6.65 2.25v1.25q0 1.15.45 1.45-.15.25-.35.35-.25.05-.5.05-.3 0-.5-.2-.25-.2-.3-.45-.2.3-.65.45-.45.2-.95.2-.95 0-1.45-.45-.55-.45-.55-1.35 0-.95.75-1.55.75-.55 2.15-.55.2 0 .55.1 0-1.05-1.3-1.05-.75 0-1.25.25l-.3-1.05q.7-.3 1.65-.3 1.3 0 1.9.6m-5.7.2q.8.8.8 2.05 0 1.45-.8 2.25-.75.85-2.1.85-.8 0-1.35-.4l-.3.4h-.8v-8l1.35-.3v2.65q.55-.3 1.2-.3 1.25 0 2 .8m8.9 5.15q-.9 0-.9-1.25v-6.75l1.35-.3v6.45q0 1.05.65 1.25-.35.6-1.1.6m23.25-.1q-.25-.3-.25-.7 0-.4.25-.7.3-.25.7-.25.4 0 .7.25.25.3.25.7 0 .4-.25.7-.3.25-.7.25-.4 0-.7-.25m-1.9-2.65q.35.45.35 1.05 0 .8-.6 1.25-.6.45-1.6.45-.6 0-.95-.1t-.9-.35l.5-1.1q.6.5 1.35.5.8 0 .8-.55 0-.35-.25-.55-.25-.2-.9-.5-1.5-.6-1.5-1.75 0-.75.55-1.15.6-.4 1.45-.4.9 0 1.7.4l-.4 1.05q-.4-.4-1.2-.4-.7 0-.7.55 0 .25.25.4.2.2.95.5t1.1.7m-5.15-2.4q.75.8.75 2.15 0 1.4-.75 2.2-.75.8-2.05.8-1.3 0-2-.8-.75-.85-.75-2.2 0-1.3.75-2.15.75-.8 2-.8 1.35 0 2.05.8m-35.35 1.7q.75.3 1.1.7.35.45.35 1.05 0 .8-.6 1.25-.6.45-1.6.45-.6 0-.95-.1t-.9-.35l.5-1.1q.6.5 1.35.5.8 0 .8-.55 0-.35-.25-.55-.25-.2-.9-.5-1.5-.6-1.5-1.75 0-.75.55-1.15.6-.4 1.45-.4.9 0 1.7.4l-.4 1.05q-.4-.4-1.2-.4-.7 0-.7.55 0 .25.25.4.2.2.95.5m-4.05-1.7q.75.8.75 2.15 0 1.4-.75 2.2-.75.8-2.05.8-1.3 0-2-.8-.75-.85-.75-2.2 0-1.3.75-2.15.75-.8 2-.8 1.35 0 2.05.8m-2.05.3q-.6 0-1 .5-.35.45-.35 1.35 0 1.9 1.35 1.9.65 0 1-.5.4-.5.4-1.4 0-1.85-1.4-1.85m38.4.5q-.35.45-.35 1.35 0 1.9 1.35 1.9.65 0 1-.5.4-.5.4-1.4 0-1.85-1.4-1.85-.6 0-1 .5m-22.65 1.3q0-1.75-1.7-1.75-.6 0-.9.3v3q.3.35.8.35 1 0 1.4-.45.4-.45.4-1.45m5.6.8v-.55q-.35-.1-.5-.1-1.6 0-1.6 1.05 0 .8.9.8 1.2 0 1.2-1.2m9.75-2.25q-.45-.3-.9-.3-.85 0-1.25.45-.45.5-.45 1.45 0 1.75 1.75 1.75.2 0 .45-.1.3-.1.4-.2v-3.05m-45.2.9h2.8q-.1-1.25-1.35-1.25-1.15 0-1.45 1.25m-12.9 0q-.1-1.25-1.35-1.25-1.15 0-1.45 1.25h2.8m44.65-15.05q-.6 0-1 .5-.35.45-.35 1.35 0 1.9 1.35 1.9.65 0 1-.5.4-.5.4-1.4 0-1.85-1.4-1.85m17.55 1.25q-.1-1.25-1.35-1.25-1.15 0-1.45 1.25h2.8m-32.85 1.75q0 .8.9.8 1.2 0 1.2-1.2v-.55q-.35-.1-.5-.1-1.6 0-1.6 1.05m-23-.4v-.55q-.35-.1-.5-.1-1.6 0-1.6 1.05 0 .8.9.8 1.2 0 1.2-1.2m49.05-15.15q-.1-1.25-1.35-1.25-1.15 0-1.45 1.25h2.8m20.7-1.25q-.6 0-1 .5-.35.45-.35 1.35 0 1.9 1.35 1.9.65 0 1-.5.4-.5.4-1.4 0-1.85-1.4-1.85m-35.4 1.85q.3.3.8.3.45 0 .7-.3.25-.3.25-.85 0-.4-.25-.7-.3-.3-.7-.3-.5 0-.75.25-.3.3-.3.75 0 .55.25.85m-6.05-1.35q-.35.45-.35 1.35 0 1.9 1.35 1.9.65 0 1-.5.4-.5.4-1.4 0-1.85-1.4-1.85-.6 0-1 .5m-19.55 2.1v-.55q-.35-.1-.5-.1-1.6 0-1.6 1.05 0 .8.9.8 1.2 0 1.2-1.2m-15.3 0v-.55q-.35-.1-.5-.1-1.6 0-1.6 1.05 0 .8.9.8 1.2 0 1.2-1.2z"/></g><path d="M634.75 376.35q0-1.35-.75-2.15-.7-.8-2.05-.8-1.25 0-2 .8-.75.85-.75 2.15 0 1.35.75 2.2.7.8 2 .8t2.05-.8q.75-.8.75-2.2m-4.15 0q0-.9.35-1.35.4-.5 1-.5 1.4 0 1.4 1.85 0 .9-.4 1.4-.35.5-1 .5-1.35 0-1.35-1.9m8.55.25q-.35-.4-1.1-.7-.75-.3-.95-.5-.25-.15-.25-.4 0-.55.7-.55.8 0 1.2.4l.4-1.05q-.8-.4-1.7-.4-.85 0-1.45.4-.55.4-.55 1.15 0 1.15 1.5 1.75.65.3.9.5t.25.55q0 .55-.8.55-.75 0-1.35-.5l-.5 1.1q.55.25.9.35.35.1.95.1 1 0 1.6-.45.6-.45.6-1.25 0-.6-.35-1.05m-24.25-3.2q-.9 0-1.5.6v-.5h-1.3v5.75h1.3v-3.3q0-.6.4-1 .35-.45.8-.45.45 0 .8.25l.55-1.15q-.35-.2-1.05-.2m7 3.4q.1-.5.1-.75 0-1.15-.75-1.9t-2-.75q-1.15 0-2 .85-.85.85-.85 2.2t.75 2.15q.8.75 2.1.75 1.4 0 2.1-.55l-.5-1.05q-.5.5-1.4.5-.75 0-1.2-.4-.4-.4-.45-1.05h4.1m-1.25-1.05h-2.8q.3-1.25 1.45-1.25 1.25 0 1.35 1.25m6.9-1.75q-.6-.6-1.65-.6-1.05 0-1.6.65l-.25-.55h-.95v5.75h1.3v-4.15q.2-.25.55-.4.35-.2.6-.2.65 0 .95.35.3.35.3 1.1v3.3h1.3v-3.55q0-1.1-.55-1.7m-2.1-13.05l.55-1.15q-.35-.2-1.05-.2-.9 0-1.5.6v-.5h-1.3v5.75h1.3v-3.3q0-.6.4-1 .35-.45.8-.45.45 0 .8.25m-12.8 2.75v-1.25q0-1.65-.65-2.25-.6-.6-1.9-.6-.95 0-1.65.3l.3 1.05q.5-.25 1.25-.25 1.3 0 1.3 1.05-.35-.1-.55-.1-1.4 0-2.15.55-.75.6-.75 1.55 0 .9.55 1.35.5.45 1.45.45.5 0 .95-.2.45-.15.65-.45.05.25.3.45.2.2.5.2.25 0 .5-.05.2-.1.35-.35-.45-.3-.45-1.45m-1.35-.95v.55q0 1.2-1.2 1.2-.9 0-.9-.8 0-1.05 1.6-1.05.15 0 .5.1m4.05-1.15q-.25-.15-.25-.4 0-.55.7-.55.8 0 1.2.4l.4-1.05q-.8-.4-1.7-.4-.85 0-1.45.4-.55.4-.55 1.15 0 1.15 1.5 1.75.65.3.9.5t.25.55q0 .55-.8.55-.75 0-1.35-.5l-.5 1.1q.55.25.9.35.35.1.95.1 1 0 1.6-.45.6-.45.6-1.25 0-.6-.35-1.05-.35-.4-1.1-.7-.75-.3-.95-.5m25.55-.95q.8 0 1.2.4l.4-1.05q-.8-.4-1.7-.4-.85 0-1.45.4-.55.4-.55 1.15 0 1.15 1.5 1.75.65.3.9.5t.25.55q0 .55-.8.55-.75 0-1.35-.5l-.5 1.1q.55.25.9.35.35.1.95.1 1 0 1.6-.45.6-.45.6-1.25 0-.6-.35-1.05-.35-.4-1.1-.7-.75-.3-.95-.5-.25-.15-.25-.4 0-.55.7-.55M630 364.2q-.4.25-.85.25-1 0-1-1.1v-3.65h-1.3v3.75q0 2.1 2 2.1.4 0 .9-.15.5-.2.8-.45v.5h1.3v-5.75h-1.3v3.95q-.15.3-.55.55m6.4-2.45q-.35-.1-.55-.1-1.4 0-2.15.55-.75.6-.75 1.55 0 .9.55 1.35.5.45 1.45.45.5 0 .95-.2.45-.15.65-.45.05.25.3.45.2.2.5.2.25 0 .5-.05.2-.1.35-.35-.45-.3-.45-1.45v-1.25q0-1.65-.65-2.25-.6-.6-1.9-.6-.95 0-1.65.3l.3 1.05q.5-.25 1.25-.25 1.3 0 1.3 1.05m-1.2 2.75q-.9 0-.9-.8 0-1.05 1.6-1.05.15 0 .5.1v.55q0 1.2-1.2 1.2m5.4-12.75q1.3 0 2.05-.8.75-.8.75-2.2 0-1.35-.75-2.15-.7-.8-2.05-.8-1.25 0-2 .8-.75.85-.75 2.15 0 1.35.75 2.2.7.8 2 .8m-1.35-3q0-.9.35-1.35.4-.5 1-.5 1.4 0 1.4 1.85 0 .9-.4 1.4-.35.5-1 .5-1.35 0-1.35-1.9M607.4 373.5v5.75h1.3v-3.3q0-.6.4-1 .35-.45.8-.45.45 0 .8.25l.55-1.15q-.35-.2-1.05-.2-.9 0-1.5.6v-.5h-1.3m-9.15 3.6v-2.5h1.6v-1.1h-1.6v-1.65l-1.3.5v1.15h-.7v1.1h.7v2.9q0 .9.45 1.35.45.5 1.3.5.9 0 1.35-.15v-1.25q-.4.25-.9.25t-.7-.25q-.2-.25-.2-.85m7.95-.3q.1-.5.1-.75 0-1.15-.75-1.9t-2-.75q-1.15 0-2 .85-.85.85-.85 2.2t.75 2.15q.8.75 2.1.75 1.4 0 2.1-.55l-.5-1.05q-.5.5-1.4.5-.75 0-1.2-.4-.4-.4-.45-1.05h4.1m-2.6-2.3q1.25 0 1.35 1.25h-2.8q.3-1.25 1.45-1.25m3.15-12.6q0-1.1-.55-1.7-.6-.6-1.65-.6-1.05 0-1.6.65l-.25-.55h-.95v5.75h1.3v-4.15q.2-.25.55-.4.35-.2.6-.2.65 0 .95.35.3.35.3 1.1v3.3h1.3v-3.55m-6.5-18.1h-1.4v4.9q0 .95-.3 1.35-.3.45-.95.45-1 0-1.15-.65h-1.25q.05.9.65 1.4.6.5 1.6.5 1.45 0 2.1-.75.7-.75.7-2.35v-4.85m5.2 2.6q-.6-.6-1.9-.6-.95 0-1.65.3l.3 1.05q.5-.25 1.25-.25 1.3 0 1.3 1.05-.35-.1-.55-.1-1.4 0-2.15.55-.75.6-.75 1.55 0 .9.55 1.35.5.45 1.45.45.5 0 .95-.2.45-.15.65-.45.05.25.3.45.2.2.5.2.25 0 .5-.05.2-.1.35-.35-.45-.3-.45-1.45v-1.25q0-1.65-.65-2.25m-.7 2.55v.55q0 1.2-1.2 1.2-.9 0-.9-.8 0-1.05 1.6-1.05.15 0 .5.1m31.8-3.05h-2.35v1.1h1v4.55q0 .65-.35.9-.4.25-1.45.25v1.2q1.6 0 2.4-.55.75-.6.75-1.85v-5.6m-1.5-1.45q0 .3.25.55.2.25.55.25.3 0 .55-.25.2-.25.2-.55 0-.3-.2-.55-.25-.25-.55-.25-.35 0-.55.25-.25.25-.25.55m-5.6 1.75q-.8-.4-1.7-.4-.85 0-1.45.4-.55.4-.55 1.15 0 1.15 1.5 1.75.65.3.9.5t.25.55q0 .55-.8.55-.75 0-1.35-.5l-.5 1.1q.55.25.9.35.35.1.95.1 1 0 1.6-.45.6-.45.6-1.25 0-.6-.35-1.05-.35-.4-1.1-.7-.75-.3-.95-.5-.25-.15-.25-.4 0-.55.7-.55.8 0 1.2.4l.4-1.05m-4.9-.3h-2.1v1.1h.75v4.65h1.35v-5.75m-.1-2q-.25-.25-.55-.25-.35 0-.55.25-.25.25-.25.55 0 .3.25.55.2.25.55.25.3 0 .55-.25.2-.25.2-.55 0-.3-.2-.55m-3.7 2.5q-.6-.6-1.9-.6-.95 0-1.65.3l.3 1.05q.5-.25 1.25-.25 1.3 0 1.3 1.05-.35-.1-.55-.1-1.4 0-2.15.55-.75.6-.75 1.55 0 .9.55 1.35.5.45 1.45.45.5 0 .95-.2.45-.15.65-.45.05.25.3.45.2.2.5.2.25 0 .5-.05.2-.1.35-.35-.45-.3-.45-1.45v-1.25q0-1.65-.65-2.25m-.7 2.55v.55q0 1.2-1.2 1.2-.9 0-.9-.8 0-1.05 1.6-1.05.15 0 .5.1m-5.05-2.6q-.55-.55-1.5-.55-.45 0-.9.15-.45.2-.7.45-.6-.6-1.75-.6-.85 0-1.45.6l-.25-.5h-.9v5.75h1.3v-4.15q.15-.2.45-.4.3-.2.55-.2.5 0 .75.25t.25.7v3.8h1.35v-4.15q.1-.25.4-.4.25-.2.55-.2 1.05 0 1.05 1.15v3.6h1.35v-3.8q0-.95-.55-1.5m59.15 30q0-1.35-.75-2.15-.7-.8-2.05-.8-1.25 0-2 .8-.75.85-.75 2.15 0 1.35.75 2.2.7.8 2 .8t2.05-.8q.75-.8.75-2.2m-4.15 0q0-.9.35-1.35.4-.5 1-.5 1.4 0 1.4 1.85 0 .9-.4 1.4-.35.5-1 .5-1.35 0-1.35-1.9m8.9 1.3q0-.6-.35-1.05-.35-.4-1.1-.7-.75-.3-.95-.5-.25-.15-.25-.4 0-.55.7-.55.8 0 1.2.4l.4-1.05q-.8-.4-1.7-.4-.85 0-1.45.4-.55.4-.55 1.15 0 1.15 1.5 1.75.65.3.9.5t.25.55q0 .55-.8.55-.75 0-1.35-.5l-.5 1.1q.55.25.9.35.35.1.95.1 1 0 1.6-.45.6-.45.6-1.25m1.3.9q0 .4.25.7.3.25.7.25.4 0 .7-.25.25-.3.25-.7 0-.4-.25-.7-.3-.25-.7-.25-.4 0-.7.25-.25.3-.25.7m-23.9-.45q0 1.25.9 1.25.75 0 1.1-.6-.65-.2-.65-1.25v-6.45l-1.35.3v6.75m-7.2-1.85q0-1.25-.8-2.05-.75-.8-2-.8-.65 0-1.2.3v-2.65l-1.35.3v8h.8l.3-.4q.55.4 1.35.4 1.35 0 2.1-.85.8-.8.8-2.25m-3.1-1.7q1.7 0 1.7 1.75 0 1-.4 1.45-.4.45-1.4.45-.5 0-.8-.35v-3q.3-.3.9-.3m8.65 1.7q0-1.65-.65-2.25-.6-.6-1.9-.6-.95 0-1.65.3l.3 1.05q.5-.25 1.25-.25 1.3 0 1.3 1.05-.35-.1-.55-.1-1.4 0-2.15.55-.75.6-.75 1.55 0 .9.55 1.35.5.45 1.45.45.5 0 .95-.2.45-.15.65-.45.05.25.3.45.2.2.5.2.25 0 .5-.05.2-.1.35-.35-.45-.3-.45-1.45v-1.25m-1.35.3v.55q0 1.2-1.2 1.2-.9 0-.9-.8 0-1.05 1.6-1.05.15 0 .5.1m9.75-5.2v2.3q-.55-.25-1.2-.25-1.2 0-2 .85t-.8 2.2q0 1.4.7 2.15t1.9.75q.4 0 .8-.15.4-.1.6-.3v.35h1.3v-8.2l-1.3.3m-.9 3.2q.45 0 .9.3v3.05q-.1.1-.4.2-.25.1-.45.1-1.75 0-1.75-1.75 0-.95.45-1.45.4-.45 1.25-.45m3.15.05h.75v4.65h1.35v-5.75h-2.1v1.1m2-3.1q-.25-.25-.55-.25-.35 0-.55.25-.25.25-.25.55 0 .3.25.55.2.25.55.25.3 0 .55-.25.2-.25.2-.55 0-.3-.2-.55m-15.65-6.75q.75-.8.75-2.2 0-1.35-.75-2.15-.7-.8-2.05-.8-1.25 0-2 .8-.75.85-.75 2.15 0 1.35.75 2.2.7.8 2 .8t2.05-.8m-3.05-3.55q.4-.5 1-.5 1.4 0 1.4 1.85 0 .9-.4 1.4-.35.5-1 .5-1.35 0-1.35-1.9 0-.9.35-1.35m8.05 3q-.4.25-.85.25-1 0-1-1.1v-3.65h-1.3v3.75q0 2.1 2 2.1.4 0 .9-.15.5-.2.8-.45v.5h1.3v-5.75h-1.3v3.95q-.15.3-.55.55m3.9-14.05q-.5.5-1.4.5-.75 0-1.2-.4-.4-.4-.45-1.05h4.1q.1-.5.1-.75 0-1.15-.75-1.9t-2-.75q-1.15 0-2 .85-.85.85-.85 2.2t.75 2.15q.8.75 2.1.75 1.4 0 2.1-.55l-.5-1.05M659 346.9q1.25 0 1.35 1.25h-2.8q.3-1.25 1.45-1.25m9.4 16.1q.1-.5.1-.75 0-1.15-.75-1.9t-2-.75q-1.15 0-2 .85-.85.85-.85 2.2t.75 2.15q.8.75 2.1.75 1.4 0 2.1-.55l-.5-1.05q-.5.5-1.4.5-.75 0-1.2-.4-.4-.4-.45-1.05h4.1m-2.6-2.3q1.25 0 1.35 1.25h-2.8q.3-1.25 1.45-1.25m8.45.6q.1-.25.4-.4.25-.2.55-.2 1.05 0 1.05 1.15v3.6h1.35v-3.8q0-.95-.55-1.5t-1.5-.55q-.45 0-.9.15-.45.2-.7.45-.6-.6-1.75-.6-.85 0-1.45.6l-.25-.5h-.9v5.75h1.3v-4.15q.15-.2.45-.4.3-.2.55-.2.5 0 .75.25t.25.7v3.8h1.35v-4.15m6.8-9.55q1.3 0 2.05-.8.75-.8.75-2.2 0-1.35-.75-2.15-.7-.8-2.05-.8-1.25 0-2 .8-.75.85-.75 2.15 0 1.35.75 2.2.7.8 2 .8m-1-4.35q.4-.5 1-.5 1.4 0 1.4 1.85 0 .9-.4 1.4-.35.5-1 .5-1.35 0-1.35-1.9 0-.9.35-1.35m-2.3-1.5h-1.55l-1.35 1.75-1.2-1.75h-1.55l2.05 2.8-2.2 2.95h1.55l1.35-1.85 1.45 1.85h1.65l-2.4-2.95 2.2-2.8m-6.7 0h-2.1v1.1h.75v4.65h1.35v-5.75m-1.2-.9q.2.25.55.25.3 0 .55-.25.2-.25.2-.55 0-.3-.2-.55-.25-.25-.55-.25-.35 0-.55.25-.25.25-.25.55 0 .3.25.55m-2.2-1.55l-1.35.3v6.75q0 1.25.9 1.25.75 0 1.1-.6-.65-.2-.65-1.25v-6.45m-16.35 2.45H650v3.75q0 2.1 2 2.1.4 0 .9-.15.5-.2.8-.45v.5h1.3v-5.75h-1.3v3.95q-.15.3-.55.55-.4.25-.85.25-1 0-1-1.1v-3.65m-2.2.4l-.9-.85-.55.6q-.5-.25-1.3-.25-1 0-1.65.6-.7.6-.7 1.5 0 1.2 1 1.8-.3.15-.55.4-.2.3-.2.6 0 1 1.35 1 .25 0 .7-.1.45-.05.65-.05.85 0 .85.55 0 .3-.4.45-.35.15-.95.15-.85 0-1.55-.6l-.85 1.05q1.05.75 2.4.75 1.1 0 1.9-.5.75-.5.75-1.35 0-1.6-1.95-1.6-.3 0-.65.1-.4.1-.6.1-.35 0-.35-.25 0-.1.25-.2.25-.15.3-.15l.2.05h.4q.9 0 1.5-.55.6-.6.6-1.6 0-.7-.35-1.2l.65-.45m-2.65 2.75q-.5 0-.8-.3-.25-.3-.25-.85 0-.45.3-.75.25-.25.75-.25.4 0 .7.3.25.3.25.7 0 .55-.25.85-.25.3-.7.3z" id="c"/><path id="b" stroke="#8CA8B8" stroke-linejoin="round" stroke-linecap="round" fill="none" d="M694.75 309.85q4.1 0 7 2.95 2.95 2.9 2.95 7v81.6q-.1 3.95-2.95 6.75-2.9 2.95-7 2.95H586.1q-4.1 0-7-2.95-2.8-2.8-2.9-6.75v-81.6q0-4.1 2.9-7 2.9-2.95 7-2.95h108.6"/></defs><g transform="translate(-573.95 -307.45)"><use xlink:href="#a"/><use xlink:href="#b"/></g><use xlink:href="#c" transform="translate(-573.95 -307.45)"/></svg>