
<svg xmlns="http://www.w3.org/2000/svg" version="1.1" xmlns:xlink="http://www.w3.org/1999/xlink" preserveAspectRatio="none" x="0px" y="0px" width="672px" height="547px" viewBox="0 0 672 547">
<defs>
<linearGradient id="Gradient_1" gradientUnits="userSpaceOnUse" x1="-122.60000000000002" y1="449.25" x2="577.5" y2="449.25" spreadMethod="pad">
<stop  offset="0%" stop-color="#D4C995"/>

<stop  offset="95.29411764705883%" stop-color="#A39C78"/>
</linearGradient>

<linearGradient id="Gradient_2" gradientUnits="userSpaceOnUse" x1="53.79999999999999" y1="614.75" x2="170.4" y2="808.25" spreadMethod="pad">
<stop  offset="79.6078431372549%" stop-color="#4A706F" stop-opacity="0.4117647058823529"/>

<stop  offset="100%" stop-color="#989963" stop-opacity="0"/>
</linearGradient>

<g id="Mask_S_mbolo_3_0_1_MASK_0_FILL">
<path fill="#FFFFFF" stroke="none" d="
M 672.75 67.1
Q 672.75 46.75 658.35 32.35 644 18 623.65 18
L 77.1 18
Q 56.75 18 42.35 32.35 28 46.75 28 67.1
L 28 497.7
Q 28 518.05 42.35 532.4 56.75 546.8 77.1 546.8
L 623.65 546.8
Q 644 546.8 658.35 532.4 672.75 518.05 672.75 497.7
L 672.75 67.1 Z"/>
</g>

<g id="S_mbolo_3_0_Layer1_0_FILL">
<path fill="#FFFFFF" stroke="none" d="
M 80 214.75
Q 80 213 77.15 211.75 74.3 210.5 70.25 210.5 66.2 210.5 63.35 211.75 60.5 213 60.5 214.75 60.5 216.5 63.35 217.75 66.2 219 70.25 219 74.3 219 77.15 217.75 80 216.5 80 214.75 Z"/>
</g>

<g id="S_mbolo_2_0_Layer0_0_FILL">
<path fill="#723800" stroke="none" d="
M -122.6 50.45
L -122.6 53.35 -94.7 53.05 -95.25 50.25 -122.6 50.45
M -100.75 24.35
L -101.45 21.05 -122.6 21.05 -122.6 24.35 -100.75 24.35
M -60.35 26.15
L -61.25 24 -100.6 24.9 -100.15 27.2 -60.35 26.15
M -15.55 43.15
L -16.5 41 -54.05 42.85 -96.4 44.9 -95.85 47.55 -53.2 45.2 -15.55 43.15
M -25.05 22.15
L -26 20.2 -62.25 21.1 -61.5 23.2 -25.05 22.15
M -0.1 13.15
L -1.25 11.2 -29.65 12.1 -28.75 14.05 -0.1 13.15
M 14.25 37.6
L 13.1 35.7 -18.25 37.15 -17.4 39.05 14.25 37.6
M 34.25 20.4
L 33.1 18.7 3.6 19.4 4.65 21.3 34.25 20.4
M 68.9 22.5
L 67.5 20.9 35.1 21.5 36.3 23.2 68.9 22.5
M 48.15 39.7
L 46.85 37.95 15.25 39.45 16.4 41.4 48.15 39.7
M 88.5 18.85
L 86.85 17.4 64.85 18 66.2 19.5 88.5 18.85
M 87.3 42.85
L 85.9 41.2 50.2 42.55 51.4 44.35 87.3 42.85
M 106.95 34.95
L 81.35 36.25 82.8 37.8 108.5 36.35 106.95 34.95 Z"/>

<path fill="#CC6600" stroke="none" d="
M -101.45 21.05
L -104.85 5 -122.6 5 -122.6 21.05 -101.45 21.05
M -46.3 63.25
L -53.2 45.2 -95.85 47.55 -95.25 50.25 -94.7 53.05 -122.6 53.35 -122.6 67.55 -121.15 67.45 -46.3 63.25
M 53.1 5
L 64.85 18 86.85 17.4 72.7 5 53.1 5
M 81.35 36.25
L 106.95 34.95 88.5 18.85 66.2 19.5 67.5 20.9 68.9 22.5 36.3 23.2 35.1 21.5 34.25 20.4 4.65 21.3 3.6 19.4 -0.1 13.15 -28.75 14.05 -29.65 12.1 -1.25 11.2 -4.85 5 -68.35 5 -62.25 21.1 -26 20.2 -25.05 22.15 -18.25 37.15 13.1 35.7 14.25 37.6 15.25 39.45 46.85 37.95 48.15 39.7 16.4 41.4 26.7 59.05 60.6 57.2 51.4 44.35 50.2 42.55 85.9 41.2 82.8 37.8 81.35 36.25 Z"/>

<path fill="#AF8C44" stroke="none" d="
M -26.55 68.65
L -46.3 69.9 -122.6 74.9 -122.6 197.25 -122.6 197.5 -24.95 185.4 -26.55 68.65 Z"/>

<path fill="#B18051" stroke="none" d="
M -7 61.05
L -15.55 43.15 -53.2 45.2 -46.3 63.25 -7 61.05 Z"/>

<path fill="#A15000" stroke="none" d="
M -46.3 69.9
L -46.3 63.25 -121.15 67.45 -122.6 67.55 -122.6 74.9 -46.3 69.9
M 103.1 60.2
L 108.7 59.85 127.85 58.6 127.85 53.35 98.4 55.05 60.6 57.2 60.55 62.9 72.8 62.15 78.3 61.8 103.1 60.2 Z"/>

<path fill="#986D45" stroke="none" d="
M -46.3 63.25
L -46.3 69.9 -26.55 68.65 -7.65 67.4 -7 61.05 -46.3 63.25 Z"/>

<path fill="#CCA37B" stroke="none" d="
M -54.05 42.85
L -60.35 26.15 -100.15 27.2 -96.4 44.9 -54.05 42.85 Z"/>

<path fill="#CC945D" stroke="none" d="
M -61.25 24
L -61.5 23.2 -62.25 21.1 -68.35 5 -104.85 5 -101.45 21.05 -100.75 24.35 -122.6 24.35 -122.6 50.45 -95.25 50.25 -95.85 47.55 -96.4 44.9 -100.15 27.2 -100.6 24.9 -61.25 24
M 15.25 39.45
L 14.25 37.6 -17.4 39.05 -16.5 41 -15.55 43.15 -7 61.05 26.7 59.05 16.4 41.4 15.25 39.45 Z"/>

<path fill="#E97400" stroke="none" d="
M -17.4 39.05
L -18.25 37.15 -25.05 22.15 -61.5 23.2 -61.25 24 -60.35 26.15 -54.05 42.85 -16.5 41 -17.4 39.05
M 33.1 18.7
L 23.2 5 -4.85 5 -1.25 11.2 -0.1 13.15 3.6 19.4 33.1 18.7
M 98.4 55.05
L 87.3 42.85 51.4 44.35 60.6 57.2 98.4 55.05 Z"/>

<path fill="#E0B359" stroke="none" d="
M 103.1 60.2
L 78.3 61.8 78.3 212.55 103.1 219.2 103.1 60.2 Z"/>

<path fill="#A69D74" stroke="none" d="
M 78.3 61.8
L 72.8 62.15 72.8 211.1 -24.95 185.4 -122.6 197.5 -122.6 197.25 -122.8 197.25 -122.8 278.8 -120.95 278.45 -122.6 278.9 108.7 230.55 103.1 228.65 103.1 219.2 78.3 212.55 78.3 61.8 Z"/>

<path fill="#CBA350" stroke="none" d="
M 72.8 62.15
L 60.55 62.9 27.35 65.15 -7.65 67.4 -26.55 68.65 -24.95 185.4 72.8 211.1 72.8 62.15 Z"/>

<path fill="#AA7C4D" stroke="none" d="
M 27.35 65.15
L 26.7 59.05 -7 61.05 -7.65 67.4 27.35 65.15 Z"/>

<path fill="#B45900" stroke="none" d="
M 26.7 59.05
L 27.35 65.15 60.55 62.9 60.6 57.2 26.7 59.05 Z"/>

<path fill="#CC8A48" stroke="none" d="
M 64.85 18
L 53.1 5 23.2 5 33.1 18.7 34.25 20.4 35.1 21.5 67.5 20.9 66.2 19.5 64.85 18
M 108.5 36.35
L 82.8 37.8 85.9 41.2 87.3 42.85 98.4 55.05 127.85 53.35 108.5 36.35 Z"/>

<path fill="#D9A43B" stroke="none" d="
M 127.85 58.6
L 108.7 59.85 108.7 230.55 125.55 226.3 125.55 225.25 127.85 58.6 Z"/>

<path fill="#AA7D23" stroke="none" d="
M 108.7 59.85
L 103.1 60.2 103.1 219.2 103.1 228.65 108.7 230.55 108.7 59.85 Z"/>

<path fill="url(#Gradient_1)" stroke="none" d="
M 577.5 348.3
L 577.5 346.95 125.55 225.25 125.55 226.3 108.7 230.55 -122.6 278.9 -120.95 278.45 -122.8 278.8 -467.45 345.8 -467.45 935.25 713.85 935.25 714.75 385.5 577.5 348.3
M 672.85 632.6
L 673.05 640.6 167.3 872.05 166.85 872.3 -402.8 531.9 -402.8 522.5 -403.65 522 -402.8 521.8 -122.6 458.45 -122.6 458.15 48.4 419.95 185.2 466.55
Q 185.4150390625 466.467578125 185.8 466.45
L 185.8 466.35
Q 185.9875 466.35 186.1 466.35 185.9427734375 466.3546875 185.8 466.45 185.8 466.6259765625 185.8 466.75
L 577.5 600.3 577.5 600.4 674.2 631.95 674.25 631.95 674.2 632 672.85 632.6
M 9.3 270.2
Q 7.85 269.75 7.15 269
L 6.95 267.6
Q 6.95 267.1 7.8 266.35 8.6 265.65 9.3 265.45 10.75 266.1 11.6 267.35 11.6 268 11.05 268.8 10.4 269.75 9.3 270.2
M 45.65 327.65
L 45.1 326.95 45.65 318.9 45.65 327.65
M 192.4 452.8
Q 192.45 453 192.5 453.2 192.4 453.2 192.3 453.1 192.3 452.95 192.4 452.8
M 242 479.6
L 242 485.6
Q 241.1 482.75 242 479.6
M -46.85 266.4
Q -45.35 267.05 -44.5 268.3 -44.5 268.95 -45.05 269.75 -45.7 270.7 -46.85 271.15 -48.25 270.7 -48.95 269.95
L -49.15 268.55
Q -49.15 268 -48.3 267.3 -47.55 266.6 -46.85 266.4
M -37.5 272.1
Q -36 272.7 -35.15 274 -35.15 274.65 -35.7 275.4 -36.35 276.35 -37.5 276.85 -38.9 276.35 -39.6 275.65
L -39.8 274.25
Q -39.8 273.7 -38.95 273 -38.2 272.3 -37.5 272.1
M -97.8 294.15
Q -97.8 293.6 -96.95 292.9 -96.15 292.2 -95.45 292 -93.95 292.6 -93.1 293.9 -93.1 294.55 -93.7 295.3 -94.35 296.25 -95.45 296.75 -96.85 296.25 -97.55 295.55
L -97.8 294.15 Z"/>

<path fill="#BBB183" stroke="none" d="
M -96.95 292.9
Q -97.8 293.6 -97.8 294.15
L -97.55 295.55
Q -96.85 296.25 -95.45 296.75 -94.35 296.25 -93.7 295.3 -93.1 294.55 -93.1 293.9 -93.95 292.6 -95.45 292 -96.15 292.2 -96.95 292.9
M -35.15 274
Q -36 272.7 -37.5 272.1 -38.2 272.3 -38.95 273 -39.8 273.7 -39.8 274.25
L -39.6 275.65
Q -38.9 276.35 -37.5 276.85 -36.35 276.35 -35.7 275.4 -35.15 274.65 -35.15 274
M -44.5 268.3
Q -45.35 267.05 -46.85 266.4 -47.55 266.6 -48.3 267.3 -49.15 268 -49.15 268.55
L -48.95 269.95
Q -48.25 270.7 -46.85 271.15 -45.7 270.7 -45.05 269.75 -44.5 268.95 -44.5 268.3
M 7.15 269
Q 7.85 269.75 9.3 270.2 10.4 269.75 11.05 268.8 11.6 268 11.6 267.35 10.75 266.1 9.3 265.45 8.6 265.65 7.8 266.35 6.95 267.1 6.95 267.6
L 7.15 269 Z"/>

<path fill="#E2FFA6" stroke="none" d="
M 242 485.6
L 242 479.6
Q 241.1 482.75 242 485.6 Z"/>

<path fill="#33FFFF" stroke="none" d="
M 192.5 453.2
Q 192.45 453 192.4 452.8 192.3 452.95 192.3 453.1 192.4 453.2 192.5 453.2
M 45.1 326.95
L 45.65 327.65 45.65 318.9 45.1 326.95
M 185.8 466.35
L 185.8 466.45
Q 185.9427734375 466.3546875 186.1 466.35 185.9875 466.35 185.8 466.35
M 185.8 466.45
Q 185.4150390625 466.467578125 185.2 466.55
L 185.8 466.75
Q 185.8 466.6259765625 185.8 466.45 Z"/>

<path fill="#CBCBCB" stroke="none" d="
M 167.3 871.65
L 166.9 859.45 166.5 859.65 -133.65 680.15 -134.2 680.4 -402.8 522.5 -402.8 531.9 166.85 872.3 167.3 871.65
M 235.7 519
L 240.05 520.65 289.2 538.75 293.3 540.3 293.4 540.3 333.55 555.15 339.15 557.15 385.85 574.4 389.55 575.75 436.35 592.95 441.05 594.65 493.35 614 498.95 616.05 548.55 634.3 554.15 636.4 567.45 641.3 577.5 645 577.5 637.2 577.5 635.85 577.5 635.55 46.55 441.75 46.55 449.35 48.45 450 49.4 450.35 49.55 450.4 91.45 465.95 91.5 465.95 95.15 467.3 144.15 485.55 144.2 485.55 148.4 487.35 187.75 501.35 187.85 501.4 192.05 503 235.7 519 Z"/>

<path fill="#C7E0D4" stroke="none" d="
M 577.5 676.8
L 577.5 675.7 575.05 676.8 577.5 676.8 Z"/>

<path fill="#FFFFFF" stroke="none" d="
M 672.85 632.6
L 674.2 632 674.2 631.95 577.5 600.4 577.5 600.3 185.8 466.75 185.2 466.55 48.4 419.95 -122.6 458.15 -122.6 458.45 -402.8 521.8 -402.8 522.5 -134.2 680.4 -133.65 680.15 166.5 859.65 166.9 859.45 575.05 676.8 577.5 675.7 626.15 653.95 628.4 652.8 672.85 632.6
M 293.4 750.8
L 289.2 752.45 281.3 755.6 171.65 799 -32.5 682.5 -44.05 676.05 -48.6 673.55 -70.3 661.45 -74.7 659 -91.25 649.75 -95.75 647.25 -116.1 635.95 -121.4 633 -141.05 622.05 -145.5 619.55 -167.25 607.45 -171.85 604.85 -193.55 592.8 -198 590.3 -232.7 571 -237.4 568.4 -244.15 564.6 -248.55 562.15 -293.1 537.35 -304.85 530.8 -122.6 484.65 -122.6 485.1 46.55 441.75 577.5 635.55 577.5 635.85 579.35 636.45 577.5 637.2 577.5 645 567.45 641.3 554.15 646.75 548.55 649 506.25 666.25 498.85 669.25 498.4 669.45 494.2 671.1 440.35 692.45 436.15 694.15 389.75 712.55 385.55 714.2 385.4 714.25 378.35 717.05 338 733.1 333.8 734.75 326.1 737.8 319.3 740.5 293.4 750.8 Z"/>

<path fill="#66CCFF" stroke="none" d="
M -145.45 600.7
L -145.45 600.7 -167.25 607.45 -145.5 619.55 -145.45 600.7
M -95.7 629.95
L -116.1 635.95 -95.75 647.25 -95.7 629.95
M -48.55 655.6
L -48.55 655.6 -70.3 661.45 -48.6 673.55 -48.55 655.6
M -48.45 616.15
L -48.5 616.15 -91.2 628.65 -91.25 628.65 -91.25 649.75 -74.7 659 -48.55 652.1 -48.55 652.1 -48.45 616.15
M -1.95 643.05
L -2 643.05 -44.05 654.4 -44.05 676.05 -32.5 682.5 -2.05 673.8 -1.95 643.05
M -193.55 560.15
L -193.55 592.8 -171.85 604.85 -145.45 596.75 -145.45 596.75 -145.35 546.8 -193.55 560.15
M -197.9 561.35
L -197.95 561.35 -232.7 571 -198 590.3 -197.9 561.35
M -244.15 524.4
L -244.15 564.6 -237.4 568.4 -197.95 557.45 -197.9 557.45 -197.85 512.2 -197.85 512.2 -244.15 524.4
M -248.45 525.55
L -293.1 537.35 -248.55 562.15 -248.45 525.55
M -95.6 585.3
L -95.65 585.3 -141 599.35 -141.05 622.05 -121.4 633 -95.7 625.65 -95.6 585.3
M -145.35 542.95
L -145.25 498.3 -193.5 511.05 -193.55 556.25 -145.35 542.95
M -122.6 492.75
L -122.6 492.35 -140.95 497.2 -141 541.75 -95.5 529.15 -95.45 503.45 -95.5 503.45 -95.5 485.75 -122.6 492.75
M -48.25 490.4
L -47.85 490.3 -47.85 473.5 -90.85 484.6 -90.85 484.7 -90.85 502.1 -91.15 502.2 -91.2 527.95 -48.3 516.1 -48.25 490.4
M -43.15 489.1
L -43.95 489.3 -44 514.9 -1.75 503.25 -1.7 477.7 -1.15 477.55 -1.15 461.55 -43.15 472.3 -43.15 489.1
M 2.5 641.85
L 2.5 672.5 46.35 660 46.2 630.1 2.5 641.85
M 2.6 476.55
L 2.5 476.55 2.5 502.1 45.35 490.25 45.2 464.85 45.65 464.75 45.65 449.55 2.6 460.65 2.6 476.55
M -1.95 639.8
L -1.9 602.5 -44.05 614.85 -44.05 650.9 -2 639.8 -1.95 639.8
M -48.4 570.75
L -91.2 583.95 -91.25 624.4 -91.2 624.4 -48.5 612.2 -48.45 612.2 -48.4 570.75
M -44 565.65
L -1.8 552.7 -1.75 507.1 -44 518.8 -44 565.65
M -1.8 556.35
L -44 569.4 -44.05 610.95 -1.9 598.95 -1.8 556.35
M -91.2 531.85
L -91.2 580.15 -48.4 567 -48.3 520 -91.2 531.85
M -95.65 581.5
L -95.6 581.5 -95.5 533.05 -141 545.6 -141 595.4 -95.65 581.5
M 2.5 601.2
L 2.5 638.6 46.15 627.05 45.95 588.5 2.5 601.2
M 45.65 541.65
L 2.5 555 2.5 597.7 45.9 585.3 45.65 541.65
M 2.5 551.4
L 45.65 538.15 45.35 494.1 2.5 505.95 2.5 551.4 Z"/>

<path fill="#FFFFCC" stroke="none" d="
M -244.15 524.4
L -248.45 525.55 -248.55 562.15 -244.15 564.6 -244.15 524.4
M 554.15 636.4
L 548.55 634.3 548.55 649 554.15 646.75 554.15 636.4
M 240.05 537.4
L 240.05 520.65 235.7 519 235.7 562.1 192.05 545.3 192.05 503 187.85 501.4 187.75 501.35 187.75 517.65 187.85 517.7 187.85 543.7 148.4 528.5 148.4 487.35 144.2 485.55 144.15 485.55 144.15 501.95 144.2 501.3 144.2 526.9 95.7 508.25 94.9 482.6 95.15 482.8 95.15 467.3 91.5 465.95 91.45 465.95 91.45 481.45 91.5 481.45 91.5 506.6 49.7 490.55 49.5 465.65
Q 49.3833984375 465.5998046875 49.25 465.55 49.15 465.45 49.1 465.45
L 48.45 465.2 48.45 450 46.55 449.35 45.65 449.55 45.65 464.75 45.2 464.85 45.35 490.25 2.5 502.1 2.5 476.55 2.6 476.55 2.6 460.65 0.7 461.1 0.7 477.1 -1.15 477.55 -1.7 477.7 -1.75 503.25 -44 514.9 -43.95 489.3 -43.15 489.1 -43.15 472.3 -46 473.05 -46 489.8 -47.85 490.3 -48.25 490.4 -48.3 516.1 -91.2 527.95 -91.15 502.2 -91.15 484.8 -90.85 484.7 -90.85 484.6 -93.65 485.25 -93.65 502.9 -95.45 503.45 -95.5 529.15 -141 541.75 -140.95 497.2 -145.25 498.3 -145.35 542.95 -193.55 556.25 -193.5 511.05 -197.85 512.2 -197.9 557.45 -197.95 557.45 -237.4 568.4 -232.7 571 -197.95 561.35 -197.9 561.35 -198 590.3 -193.55 592.8 -193.55 560.15 -145.35 546.8 -145.45 596.75 -145.45 596.75 -171.85 604.85 -167.25 607.45 -145.45 600.7 -145.45 600.7 -145.5 619.55 -141.05 622.05 -141 599.35 -95.65 585.3 -95.6 585.3 -95.7 625.65 -121.4 633 -116.1 635.95 -95.7 629.95 -95.75 647.25 -91.25 649.75 -91.25 628.65 -91.2 628.65 -48.5 616.15 -48.45 616.15 -48.55 652.1 -48.55 652.1 -74.7 659 -70.3 661.45 -48.55 655.6 -48.55 655.6 -48.6 673.55 -44.05 676.05 -44.05 654.4 -2 643.05 -1.95 643.05 -2.05 673.8 2.5 672.5 2.5 641.85 46.2 630.1 46.35 660 50.65 658.8 50.65 658.35 50.9 658.5 50.9 658.2 50.65 631.3 50.8 631.4 91.5 647.9 91.5 675.35 95.7 677.15 95.7 649.6 144.2 669.35 144.2 697.65 148.4 699.4 148.4 671.3 187.85 687.2 187.85 716.1 192.05 717.85 192.05 688.9 235.7 706.55 235.7 736.3 239.9 738.1 239.9 708.25 289.2 728.3 289.2 752.45 293.4 750.8 293.4 730 319.3 740.5 326.1 737.8 293.4 724.6 293.4 684.15 333.8 699.8 333.8 734.75 338 733.1 338 701.45 378.35 717.05 385.4 714.25 338 696 338 654.85 385.55 673.3 385.55 714.2 389.75 712.55 389.75 674.9 436.15 692.9 436.15 694.15 440.35 692.45 440.35 646.6 494.2 667.45 494.2 671.1 498.4 669.45 498.4 669.1 498.85 669.25 506.25 666.25 498.4 663.2 498.4 617.4 498.95 617.6 498.95 616.05 493.35 614 493.35 615.5 494.2 615.85 494.2 661.6 440.35 640.9 440.35 612.85 441.05 613.15 441.05 594.65 436.35 592.95 436.35 611.35 436.15 611.25 436.15 639.25 389.75 621.4 389.75 576.45 389.55 576.35 389.55 575.75 385.85 574.4 385.85 575 385.55 574.9 385.55 619.8 338 601.5 338 556.9 339.15 557.3 339.15 557.15 333.55 555.15 333.55 555.25 333.8 555.35 333.8 599.85 293.4 584.35 293.4 557.55 293.3 557.5 293.3 540.3 289.2 538.75 289.2 582.7 239.9 563.75 239.9 537.35 240.05 537.4
M 192.05 593.3
L 192.05 550.4 235.7 567.35 235.7 610.05 192.05 593.3
M 187.85 548.8
L 187.85 591.65 148.4 576.5 148.4 533.5 187.85 548.8
M 239.9 568.95
L 289.2 588.05 289.2 630.65 239.9 611.7 239.9 568.95
M 50 538.65
L 49.7 495.3 91.5 511.5 91.5 554.6 50 538.65
M 50.35 585.35
L 50.05 543.3 91.5 559.4 91.5 601.2 50.35 585.35
M 45.65 538.15
L 2.5 551.4 2.5 505.95 45.35 494.1 45.65 538.15
M 2.5 555
L 45.65 541.65 45.9 585.3 2.5 597.7 2.5 555
M 95.7 561
L 144.2 579.8 144.2 621.45 95.7 602.8 95.7 561
M 144.2 574.85
L 95.7 556.2 95.7 513.1 144.2 531.9 144.2 574.85
M 91.5 606
L 91.5 643.1 50.8 626.65 50.65 626.6 50.35 590.05 91.5 606
M 148.4 666.05
L 148.4 628 187.85 643.3 187.85 682 148.4 666.05
M 144.2 626.4
L 144.2 664.35 95.7 644.8 95.7 607.6 144.2 626.4
M 2.5 638.6
L 2.5 601.2 45.95 588.5 46.15 627.05 2.5 638.6
M 293.4 678.85
L 293.4 637.6 333.8 653.25 333.8 694.4 293.4 678.85
M 289.2 635.95
L 289.2 677.25 239.9 658.3 239.9 616.85 289.2 635.95
M 192.05 639.9
L 192.05 598.3 235.7 615.25 235.7 656.65 192.05 639.9
M 187.85 596.7
L 187.85 638.25 148.4 623.1 148.4 581.4 187.85 596.7
M 192.05 683.7
L 192.05 644.9 235.7 661.8 235.7 701.3 192.05 683.7
M 289.2 722.9
L 239.9 703 239.9 663.45 289.2 682.55 289.2 722.9
M 293.4 632.25
L 293.4 589.7 333.8 605.35 333.8 647.8 293.4 632.25
M 436.15 645
L 436.15 687.15 389.75 669.3 389.75 627 436.15 645
M 385.55 625.4
L 385.55 667.7 338 649.4 338 606.95 385.55 625.4
M -95.6 581.5
L -95.65 581.5 -141 595.4 -141 545.6 -95.5 533.05 -95.6 581.5
M -91.2 580.15
L -91.2 531.85 -48.3 520 -48.4 567 -91.2 580.15
M -44 569.4
L -1.8 556.35 -1.9 598.95 -44.05 610.95 -44 569.4
M -1.8 552.7
L -44 565.65 -44 518.8 -1.75 507.1 -1.8 552.7
M -91.2 583.95
L -48.4 570.75 -48.45 612.2 -48.5 612.2 -91.2 624.4 -91.25 624.4 -91.2 583.95
M -1.9 602.5
L -1.95 639.8 -2 639.8 -44.05 650.9 -44.05 614.85 -1.9 602.5 Z"/>

<path fill="#DBDBB0" stroke="none" d="
M -93.65 485.25
L -95.5 485.75 -95.5 503.45 -95.45 503.45 -93.65 502.9 -93.65 485.25
M -46 489.8
L -46 473.05 -47.85 473.5 -47.85 490.3 -46 489.8
M 0.7 477.1
L 0.7 461.1 -1.15 461.55 -1.15 477.55 0.7 477.1 Z"/>

<path fill="#41AEE5" stroke="none" d="
M -90.85 484.7
L -91.15 484.8 -91.15 502.2 -90.85 502.1 -90.85 484.7
M 498.4 669.1
L 498.4 669.45 498.85 669.25 498.4 669.1
M 498.95 617.6
L 498.4 617.4 498.4 663.2 506.25 666.25 548.55 649 548.55 634.3 498.95 616.05 498.95 617.6
M 389.75 674.9
L 389.75 712.55 436.15 694.15 436.15 692.9 389.75 674.9
M 338 701.45
L 338 733.1 378.35 717.05 338 701.45
M 385.55 673.3
L 338 654.85 338 696 385.4 714.25 385.55 714.2 385.55 673.3
M 440.35 646.6
L 440.35 692.45 494.2 671.1 494.2 667.45 440.35 646.6
M 440.35 612.85
L 440.35 640.9 494.2 661.6 494.2 615.85 493.35 615.5 493.35 614 441.05 594.65 441.05 613.15 440.35 612.85
M 389.55 576.35
L 389.75 576.45 389.75 621.4 436.15 639.25 436.15 611.25 436.35 611.35 436.35 592.95 389.55 575.75 389.55 576.35
M 339.15 557.3
L 338 556.9 338 601.5 385.55 619.8 385.55 574.9 385.85 575 385.85 574.4 339.15 557.15 339.15 557.3
M 293.4 684.15
L 293.4 724.6 326.1 737.8 333.8 734.75 333.8 699.8 293.4 684.15
M 319.3 740.5
L 293.4 730 293.4 750.8 319.3 740.5
M 239.9 708.25
L 239.9 738.1 281.3 755.6 289.2 752.45 289.2 728.3 239.9 708.25
M 235.7 736.3
L 235.7 706.55 192.05 688.9 192.05 717.85 235.7 736.3
M 148.4 671.3
L 148.4 699.4 187.85 716.1 187.85 687.2 148.4 671.3
M 95.7 649.6
L 95.7 677.15 144.2 697.65 144.2 669.35 95.7 649.6
M 91.5 675.35
L 91.5 647.9 50.8 631.4 50.65 631.3 50.9 658.2 91.5 675.35
M 91.45 481.45
L 91.45 465.95 49.55 450.4 49.4 450.35 49.5 465.65 49.7 490.55 91.5 506.6 91.5 481.45 91.45 481.45
M 95.15 482.8
L 94.9 482.6 95.7 508.25 144.2 526.9 144.2 501.3 144.15 501.95 144.15 485.55 95.15 467.3 95.15 482.8
M 293.4 540.3
L 293.3 540.3 293.3 557.5 293.4 557.55 293.4 584.35 333.8 599.85 333.8 555.35 333.55 555.25 333.55 555.15 293.4 540.3
M 235.7 519
L 192.05 503 192.05 545.3 235.7 562.1 235.7 519
M 187.75 517.65
L 187.75 501.35 148.4 487.35 148.4 528.5 187.85 543.7 187.85 517.7 187.75 517.65
M 385.55 667.7
L 385.55 625.4 338 606.95 338 649.4 385.55 667.7
M 436.15 687.15
L 436.15 645 389.75 627 389.75 669.3 436.15 687.15
M 293.4 589.7
L 293.4 632.25 333.8 647.8 333.8 605.35 293.4 589.7
M 239.9 703
L 289.2 722.9 289.2 682.55 239.9 663.45 239.9 703
M 192.05 644.9
L 192.05 683.7 235.7 701.3 235.7 661.8 192.05 644.9
M 187.85 638.25
L 187.85 596.7 148.4 581.4 148.4 623.1 187.85 638.25
M 192.05 598.3
L 192.05 639.9 235.7 656.65 235.7 615.25 192.05 598.3
M 289.2 677.25
L 289.2 635.95 239.9 616.85 239.9 658.3 289.2 677.25
M 293.4 637.6
L 293.4 678.85 333.8 694.4 333.8 653.25 293.4 637.6
M 144.2 664.35
L 144.2 626.4 95.7 607.6 95.7 644.8 144.2 664.35
M 148.4 628
L 148.4 666.05 187.85 682 187.85 643.3 148.4 628
M 91.5 643.1
L 91.5 606 50.35 590.05 50.65 626.6 50.8 626.65 91.5 643.1
M 95.7 556.2
L 144.2 574.85 144.2 531.9 95.7 513.1 95.7 556.2
M 144.2 579.8
L 95.7 561 95.7 602.8 144.2 621.45 144.2 579.8
M 50.05 543.3
L 50.35 585.35 91.5 601.2 91.5 559.4 50.05 543.3
M 49.7 495.3
L 50 538.65 91.5 554.6 91.5 511.5 49.7 495.3
M 289.2 588.05
L 239.9 568.95 239.9 611.7 289.2 630.65 289.2 588.05
M 187.85 591.65
L 187.85 548.8 148.4 533.5 148.4 576.5 187.85 591.65
M 192.05 550.4
L 192.05 593.3 235.7 610.05 235.7 567.35 192.05 550.4
M 240.05 520.65
L 240.05 537.4 239.9 537.35 239.9 563.75 289.2 582.7 289.2 538.75 240.05 520.65 Z"/>

<path fill="#5BB7E5" stroke="none" d="
M 554.15 636.4
L 554.15 646.75 567.45 641.3 554.15 636.4
M 49.4 450.35
L 48.45 450 48.45 465.2 49.1 465.45
Q 49.15 465.45 49.25 465.55 49.3833984375 465.5998046875 49.5 465.65
L 49.4 450.35 Z"/>

<path fill="#2CDEDE" stroke="none" d="
M 50.65 658.35
L 50.65 658.8 50.65 658.85 54.45 660.2 50.9 658.5 50.65 658.35 Z"/>

<path fill="#95DBFF" stroke="none" d="
M 95.7 677.15
L 91.5 675.35 50.9 658.2 50.9 658.5 54.45 660.2 50.65 658.85 50.65 658.8 46.35 660 2.5 672.5 -2.05 673.8 -32.5 682.5 171.65 799 281.3 755.6 239.9 738.1 235.7 736.3 192.05 717.85 187.85 716.1 148.4 699.4 144.2 697.65 95.7 677.15 Z"/>

<path fill="#E7E7E7" stroke="none" d="
M 0.7 461.1
L 2.6 460.65 45.65 449.55 46.55 449.35 46.55 441.75 -122.6 485.1 -122.6 484.65 -304.85 530.8 -293.1 537.35 -248.45 525.55 -244.15 524.4 -197.85 512.2 -197.85 512.2 -193.5 511.05 -145.25 498.3 -140.95 497.2 -122.6 492.35 -122.6 492.75 -95.5 485.75 -93.65 485.25 -90.85 484.6 -47.85 473.5 -46 473.05 -43.15 472.3 -1.15 461.55 0.7 461.1
M 673.05 640.6
L 672.85 632.6 628.4 652.8 628.55 652.85 626.15 653.95 577.5 675.7 577.5 676.8 575.05 676.8 166.9 859.45 167.3 871.65 167.3 872.05 673.05 640.6 Z"/>

<path fill="#FFCC66" stroke="none" d="
M 714.75 385.5
L 715.4 2.5 -467.45 2.5 -467.45 345.8 -122.8 278.8 -122.8 197.25 -122.6 197.25 -122.6 74.9 -122.6 67.55 -122.6 53.35 -122.6 50.45 -122.6 24.35 -122.6 21.05 -122.6 5 -104.85 5 -68.35 5 -4.85 5 23.2 5 53.1 5 72.7 5 86.85 17.4 88.5 18.85 106.95 34.95 108.5 36.35 127.85 53.35 127.85 58.6 125.55 225.25 577.5 346.95 577.5 348.3 714.75 385.5
M 338.1 192.85
L 338.1 193.15 213.75 174.05
Q 204.4 172.55 195.1 171.2
L 139.1 163.1 139.05 163.1 139.05 30.65 141.35 30.7 141.35 30.65 341.2 32.45 340.4 193.15 338.1 192.85 Z"/>

<path fill="#838383" stroke="none" d="
M 338.1 192.85
L 340.4 193.15 341.2 32.45 141.35 30.65 141.35 30.7 338.85 32.45 338.1 192.85
M 222.3 44.25
L 227.45 44.4 227.45 38.9 146.5 37.15 146.5 155.45 152.1 151.55 152.1 125.7 152.1 94.5 152.1 42.85 185.8 43.55 194.75 43.7 222.3 44.25
M 325.1 46.3
L 325.1 40.95 235.35 39.05 235.35 162.75 238.95 163.25 238.95 143.05 238.95 44.6 276.8 45.35 301 45.85 309.65 46.05 315.25 46.1 325.1 46.3 Z"/>

<path fill="#333333" stroke="none" d="
M 338.1 193.15
L 338.1 192.85 338.85 32.45 141.35 30.7 139.05 30.65 139.05 163.1 139.1 163.1 195.1 171.2
Q 204.4 172.55 213.75 174.05
L 338.1 193.15
M 325.1 40.95
L 325.1 46.3 325.1 174.55 325.1 180.25 235.35 167.8 235.35 162.75 235.35 39.05 325.1 40.95
M 227.45 38.9
L 227.45 44.4 227.45 161.75 227.45 166.7 146.5 155.45 146.5 37.15 227.45 38.9 Z"/>

<path fill="#99CCFF" stroke="none" d="
M 152.1 42.85
L 152.1 94.5 185.8 43.55 152.1 42.85
M 222.3 44.25
L 194.75 43.7 152.1 125.7 152.1 151.55 152.1 151.75 179.75 155.4 222.3 44.25
M 238.95 44.6
L 238.95 143.05 276.8 45.35 238.95 44.6
M 309.65 46.05
L 301 45.85 254.1 165.25 267.2 166.95 309.65 46.05
M 325.1 174.55
L 325.1 46.3 315.25 46.1 272.1 167.6 325.1 174.55 Z"/>

<path fill="#999999" stroke="none" d="
M 227.45 166.7
L 227.45 161.75 179.75 155.4 152.1 151.75 152.1 151.55 146.5 155.45 227.45 166.7
M 325.1 180.25
L 325.1 174.55 272.1 167.6 267.2 166.95 254.1 165.25 238.95 163.25 235.35 162.75 235.35 167.8 325.1 180.25 Z"/>

<path fill="#C2E0FF" stroke="none" d="
M 194.75 43.7
L 185.8 43.55 152.1 94.5 152.1 125.7 194.75 43.7
M 227.45 44.4
L 222.3 44.25 179.75 155.4 227.45 161.75 227.45 44.4 Z"/>

<path fill="#B4D9FF" stroke="none" d="
M 301 45.85
L 276.8 45.35 238.95 143.05 238.95 163.25 254.1 165.25 301 45.85
M 315.25 46.1
L 309.65 46.05 267.2 166.95 272.1 167.6 315.25 46.1 Z"/>
</g>

<g id="S_mbolo_2_0_Layer0_0_MEMBER_0_FILL">
<path fill="#BBB183" stroke="none" d="
M 333.65 277.5
Q 335.6 275.05 335.6 272.25 335.6 268.5 332.85 266.05 330.35 263.8 326.85 263.55 323.25 263.3 320.85 265.35 318.1 267.7 318.1 272.1
L 319.15 276.25
Q 321.35 280.6 326.85 280.6 331.15 280.6 333.65 277.5 Z"/>
</g>

<g id="S_mbolo_2_0_Layer0_0_MEMBER_1_FILL">
<path fill="#E9DDA3" stroke="none" d="
M 387.65 287.4
Q 389.6 284.85 389.6 282.1 389.6 278.4 386.85 276 384.35 273.8 380.85 273.6 377.25 273.35 374.85 275.4 372.1 277.7 372.1 282 372.1 281.75 373.15 286.1 375.35 290.6 380.85 290.6 385.1 290.6 387.65 287.4 Z"/>
</g>

<g id="S_mbolo_2_0_Layer0_0_MEMBER_2_FILL">
<path fill="#E9DDA3" stroke="none" d="
M 563.1 345
L 563.2 346.15
Q 563.45 347.75 564.15 349.1 566.4 353.6 572.35 353.6 577 353.6 579.6 350.4 581.6 347.9 581.6 345.1 581.6 341.35 578.7 338.9 576.05 336.6 572.35 336.35 568.55 336.15 566 338.2 563.1 340.55 563.1 345 Z"/>
</g>

<g id="S_mbolo_2_0_Layer0_0_MEMBER_3_FILL">
<path fill="#BBB183" stroke="none" d="
M 457.1 331
L 457.2 332.15
Q 457.45 333.75 458.1 335.1 460.25 339.6 465.85 339.6 470.1 339.6 472.65 336.35 474.6 333.8 474.6 331.1 474.6 327.35 471.85 324.9 469.35 322.65 465.85 322.45 462.25 322.2 459.85 324.25 457.1 326.6 457.1 331 Z"/>
</g>

<g id="S_mbolo_2_0_Layer0_0_MEMBER_4_FILL">
<path fill="#BBB183" stroke="none" d="
M 481.85 293.45
Q 478.25 293.2 475.85 295.25 473.1 297.6 473.1 302
L 473.2 303.2
Q 473.45 304.8 474.1 306.15 476.25 310.6 481.85 310.6 486.1 310.6 488.65 307.4 490.6 304.85 490.6 302.1 490.6 298.35 487.85 295.9 485.35 293.65 481.85 293.45 Z"/>
</g>

<g id="S_mbolo_2_0_Layer0_0_MEMBER_5_FILL">
<path fill="#BBB183" stroke="none" d="
M 680.85 359.9
Q 678.4 357.65 674.85 357.55 671.3 357.45 668.85 359.6 666.1 362 666.1 366.25 666.1 367.05 666.2 367.9 666.45 369.65 667.15 371.1 669.3 375.6 674.85 375.6 679.55 375.6 681.9 372.1 683.6 369.6 683.6 366.5 683.6 362.4 680.85 359.9 Z"/>
</g>

<g id="S_mbolo_2_0_Layer0_0_MEMBER_6_FILL">
<path fill="#BBB183" stroke="none" d="
M 657.85 375.35
Q 654.25 375.15 651.85 377.2 649.1 379.55 649.1 384
L 649.2 385.15
Q 649.45 386.75 650.1 388.1 652.25 392.6 657.85 392.6 662.1 392.6 664.65 389.4 666.6 386.85 666.6 384.1 666.6 380.35 663.85 377.9 661.35 375.6 657.85 375.35 Z"/>
</g>

<g id="S_mbolo_2_0_Layer0_0_MEMBER_7_FILL">
<path fill="#BBB183" stroke="none" d="
M 216.85 244.35
Q 213.25 244.15 210.85 246.6 208.1 249.4 208.1 254.6
L 208.1 256
Q 208.25 257.9 208.9 259.5 210.9 264.75 216.85 264.75 221.85 264.75 224.1 260.8 225.6 258.15 225.6 254.75 225.6 250.2 222.85 247.25 220.35 244.6 216.85 244.35 Z"/>
</g>

<g id="S_mbolo_2_0_Layer0_0_MEMBER_8_FILL">
<path fill="#BBB183" stroke="none" d="
M 251.65 242.55
Q 253.6 240 253.6 237.25 253.6 233.5 250.85 231.05 248.35 228.8 244.85 228.55 241.25 228.3 238.85 230.35 236.1 232.7 236.1 237.1
L 236.2 238.3
Q 236.45 239.95 237.1 241.3 239.25 245.75 244.85 245.75 249.1 245.75 251.65 242.55 Z"/>
</g>

<g id="S_mbolo_2_0_Layer0_0_MEMBER_9_FILL">
<path fill="#BBB183" stroke="none" d="
M 298.35 280.65
Q 299.6 279.6 299.6 278 299.6 274.3 295.85 274.35 292.1 274.35 292.1 278.1 292.1 279.5 292.35 280 293.1 281.6 295.85 281.6 297.2 281.6 298.35 280.65 Z"/>
</g>

<g id="S_mbolo_2_0_Layer0_0_MEMBER_10_FILL">
<path fill="#BBB183" stroke="none" d="
M 362.4 266.75
Q 363.6 265.7 363.6 264.1 363.6 260.3 359.85 260.35 356.1 260.35 356.1 264.25 356.1 265.55 356.4 266.15 357.15 267.75 359.85 267.75 361.25 267.75 362.4 266.75 Z"/>
</g>

<g id="S_mbolo_2_0_Layer0_0_MEMBER_11_FILL">
<path fill="#BBB183" stroke="none" d="
M 412.35 292.65
Q 413.6 291.6 413.6 290 413.6 286.2 409.85 286.2 406.1 286.2 406.1 290.1 406.1 291.5 406.35 292 407.1 293.6 409.85 293.6 411.2 293.6 412.35 292.65 Z"/>
</g>

<g id="S_mbolo_2_0_Layer0_0_MEMBER_12_FILL">
<path fill="#E9DDA3" stroke="none" d="
M 494.4 334.65
Q 495.6 333.6 495.6 332 495.6 328.2 491.85 328.2 488.1 328.2 488.1 332.1 488.1 333.45 488.4 334 489.15 335.6 491.85 335.6 493.25 335.6 494.4 334.65 Z"/>
</g>

<g id="S_mbolo_2_0_Layer0_0_MEMBER_13_FILL">
<path fill="#BBB183" stroke="none" d="
M 481.35 323.5
Q 480.45 322.15 478.85 321.5 478.1 321.7 477.25 322.45 476.35 323.2 476.35 323.75
L 476.6 325.25
Q 477.35 326 478.85 326.5 480.05 326 480.75 325 481.35 324.2 481.35 323.5 Z"/>
</g>

<g id="S_mbolo_2_0_Layer0_0_MEMBER_14_FILL">
<path fill="#BBB183" stroke="none" d="
M 596.35 333.5
Q 595.45 332.15 593.85 331.5 593.1 331.7 592.25 332.45 591.35 333.2 591.35 333.75
L 591.6 335.25
Q 592.35 336 593.85 336.5 595.05 336 595.75 335 596.35 334.2 596.35 333.5 Z"/>
</g>

<g id="S_mbolo_2_0_Layer0_0_MEMBER_15_FILL">
<path fill="#BBB183" stroke="none" d="
M 686.35 387.75
L 686.6 389.25
Q 687.35 390 688.85 390.5 690.05 390 690.75 389 691.35 388.2 691.35 387.5 690.45 386.15 688.85 385.5 688.1 385.7 687.25 386.45 686.35 387.2 686.35 387.75 Z"/>
</g>

<g id="S_mbolo_2_0_Layer0_0_MEMBER_16_FILL">
<path fill="#BBB183" stroke="none" d="
M 183.35 227.5
Q 182.45 226.15 180.85 225.5 180.1 225.7 179.25 226.45 178.35 227.2 178.35 227.75
L 178.6 229.25
Q 179.35 230 180.85 230.5 182.05 230 182.75 229 183.35 228.2 183.35 227.5 Z"/>
</g>

<g id="S_mbolo_2_0_Layer0_0_MEMBER_17_FILL">
<path fill="#E9DDA3" stroke="none" d="
M 328.2 436.6
L 328.35 437.85
Q 328.85 439.55 330.1 441 334.25 445.85 345.1 445.85 353.35 445.85 358.25 442.35 362.05 439.6 362.05 436.7 362.05 432.65 356.7 430 351.9 427.6 345.1 427.4 338.15 427.1 333.5 429.3 328.2 431.85 328.2 436.6 Z"/>
</g>

<g id="S_mbolo_2_0_Layer0_0_MEMBER_18_FILL">
<path fill="#BBB183" stroke="none" d="
M 481.85 293.45
Q 478.25 293.2 475.85 295.25 473.1 297.6 473.1 302
L 473.2 303.2
Q 473.45 304.8 474.1 306.15 476.25 310.6 481.85 310.6 486.1 310.6 488.65 307.4 490.6 304.85 490.6 302.1 490.6 298.35 487.85 295.9 485.35 293.65 481.85 293.45 Z"/>
</g>

<g id="S_mbolo_2_0_Layer0_0_MEMBER_19_FILL">
<path fill="#BBB183" stroke="none" d="
M 494.4 334.65
Q 495.6 333.6 495.6 332 495.6 328.2 491.85 328.2 488.1 328.2 488.1 332.1 488.1 333.45 488.4 334 489.15 335.6 491.85 335.6 493.25 335.6 494.4 334.65 Z"/>
</g>

<g id="S_mbolo_2_0_Layer0_0_MEMBER_20_FILL">
<path fill="#FFC24A" stroke="none" d="
M 484.75 272.9
Q 485.75 271.45 485.75 269.85 485.75 267.45 484.2 266.05 482.8 264.8 480.75 264.8 478.7 264.8 477.3 266.05 475.75 267.45 475.75 269.85 475.75 269.55 476.25 272.15 477.4 274.85 480.75 274.85 483.35 274.85 484.75 272.9 Z"/>
</g>

<g id="S_mbolo_2_0_Layer0_0_MEMBER_21_FILL">
<path fill="#FFE2AA" stroke="none" d="
M 672.25 320.35
Q 671.35 319 669.75 318.35 669 318.55 668.15 319.3 667.25 320.05 667.25 320.6
L 667.5 322.1
Q 668.25 322.85 669.75 323.35 670.95 322.85 671.65 321.85 672.25 321.05 672.25 320.35 Z"/>
</g>

<g id="S_mbolo_2_0_Layer0_0_MEMBER_22_FILL">
<path fill="#FFE2AA" stroke="none" d="
M 674.25 291.35
Q 673.35 290 671.75 289.35 671 289.55 670.15 290.3 669.25 291.05 669.25 291.6
L 669.5 293.1
Q 670.25 293.85 671.75 294.35 672.95 293.85 673.65 292.85 674.25 292.05 674.25 291.35 Z"/>
</g>

<g id="S_mbolo_2_0_Layer0_0_MEMBER_23_FILL">
<path fill="#FFE2AA" stroke="none" d="
M 671.25 303.35
Q 670.35 302 668.75 301.35 668 301.55 667.15 302.3 666.25 303.05 666.25 303.6
L 666.5 305.1
Q 667.25 305.85 668.75 306.35 669.95 305.85 670.65 304.85 671.25 304.05 671.25 303.35 Z"/>
</g>

<g id="S_mbolo_2_0_Layer0_0_MEMBER_24_FILL">
<path fill="#FFE2AA" stroke="none" d="
M 653.8 316.9
Q 654.75 315.45 654.75 313.85 654.75 311.45 653.2 310.05 651.8 308.8 649.75 308.8 647.7 308.8 646.3 310.05 644.75 311.45 644.75 313.85 644.75 313.55 645.3 316.15 646.5 318.85 649.75 318.85 652.45 318.85 653.8 316.9 Z"/>
</g>

<g id="S_mbolo_2_0_Layer0_0_MEMBER_25_FILL">
<path fill="#FFE2AA" stroke="none" d="
M 700.75 277.9
Q 701.75 276.45 701.75 274.85 701.75 272.45 700.2 271.05 698.8 269.8 696.75 269.8 694.7 269.8 693.3 271.05 691.75 272.45 691.75 274.85 691.75 274.55 692.25 277.15 693.4 279.85 696.75 279.85 699.35 279.85 700.75 277.9 Z"/>
</g>

<g id="S_mbolo_2_0_Layer0_0_MEMBER_26_FILL">
<path fill="#FFC24A" stroke="none" d="
M 674.8 323.9
Q 675.75 322.45 675.75 320.85 675.75 318.45 674.2 317.05 672.8 315.8 670.75 315.8 668.7 315.8 667.3 317.05 665.75 318.45 665.75 320.85 665.75 320.55 666.3 323.15 667.5 325.85 670.75 325.85 673.45 325.85 674.8 323.9 Z"/>
</g>

<g id="S_mbolo_2_0_Layer0_0_MEMBER_27_FILL">
<path fill="#FFC24A" stroke="none" d="
M 663 285.6
Q 664.75 283.6 664.75 281.85 664.75 279.4 663.05 278 661.5 276.8 659.25 276.9 657.05 277 655.45 278.35 653.75 279.8 653.75 282.1 653.75 283.9 654.3 285.15 655.45 287.85 658.75 287.85 661.05 287.85 663 285.6 Z"/>
</g>

<g id="S_mbolo_2_0_Layer0_0_MEMBER_28_FILL">
<path fill="#BBB183" stroke="none" d="
M 657.85 375.35
Q 654.25 375.15 651.85 377.2 649.1 379.55 649.1 384
L 649.2 385.15
Q 649.45 386.75 650.1 388.1 652.25 392.6 657.85 392.6 662.1 392.6 664.65 389.4 666.6 386.85 666.6 384.1 666.6 380.35 663.85 377.9 661.35 375.6 657.85 375.35 Z"/>
</g>

<g id="S_mbolo_2_0_Layer0_0_MEMBER_29_FILL">
<path fill="#E9DDA3" stroke="none" d="
M 328.2 436.6
L 328.35 437.85
Q 328.85 439.55 330.1 441 334.25 445.85 345.1 445.85 353.35 445.85 358.25 442.35 362.05 439.6 362.05 436.7 362.05 432.65 356.7 430 351.9 427.6 345.1 427.4 338.15 427.1 333.5 429.3 328.2 431.85 328.2 436.6 Z"/>
</g>

<g id="S_mbolo_2_0_Layer0_0_MEMBER_30_FILL">
<path fill="#BBB183" stroke="none" d="
M 491.85 335.6
Q 493.25 335.6 494.4 334.65 495.6 333.6 495.6 332 495.6 328.2 491.85 328.2 488.1 328.2 488.1 332.1 488.1 333.45 488.4 334 489.15 335.6 491.85 335.6 Z"/>
</g>

<g id="S_mbolo_2_0_Layer0_0_MEMBER_31_FILL">
<path fill="#000000" fill-opacity="0.14901960784313725" stroke="none" d="
M 838.95 351.95
Q 823.6 351.95 812.75 355.15 801.95 358.4 801.95 362.95 801.95 367.5 812.75 370.7 823.6 373.95 838.95 373.95 854.3 373.95 865.1 370.7 875.95 367.5 875.95 362.95 875.95 358.4 865.1 355.15 854.3 351.95 838.95 351.95 Z"/>
</g>

<g id="S_mbolo_2_0_Layer0_0_MEMBER_32_FILL">
<path fill="url(#Gradient_2)" stroke="none" d="
M 163.1 791.95
L 269.15 748.8 48.75 648.55 -44.85 674.25 163.1 791.95 Z"/>
</g>

<g id="S_mbolo_2_0_Layer0_0_MEMBER_33_FILL">
<path fill="#BBB183" stroke="none" d="
M 216.85 244.35
Q 213.25 244.15 210.85 246.6 208.1 249.4 208.1 254.6
L 208.1 256
Q 208.25 257.9 208.9 259.5 210.9 264.75 216.85 264.75 221.85 264.75 224.1 260.8 225.6 258.15 225.6 254.75 225.6 250.2 222.85 247.25 220.35 244.6 216.85 244.35 Z"/>
</g>

<g id="S_mbolo_2_0_Layer0_0_MEMBER_34_FILL">
<path fill="#BBB183" stroke="none" d="
M 251.65 242.55
Q 253.6 240 253.6 237.25 253.6 233.5 250.85 231.05 248.35 228.8 244.85 228.55 241.25 228.3 238.85 230.35 236.1 232.7 236.1 237.1
L 236.2 238.3
Q 236.45 239.95 237.1 241.3 239.25 245.75 244.85 245.75 249.1 245.75 251.65 242.55 Z"/>
</g>

<g id="S_mbolo_2_0_Layer0_0_MEMBER_35_FILL">
<path fill="#E9DDA3" stroke="none" d="
M 328.2 436.6
L 328.35 437.85
Q 328.85 439.55 330.1 441 334.25 445.85 345.1 445.85 353.35 445.85 358.25 442.35 362.05 439.6 362.05 436.7 362.05 432.65 356.7 430 351.9 427.6 345.1 427.4 338.15 427.1 333.5 429.3 328.2 431.85 328.2 436.6 Z"/>
</g>

<g id="S_mbolo_2_0_Layer0_0_MEMBER_36_FILL">
<path fill="#BBB183" stroke="none" d="
M 657.85 375.35
Q 654.25 375.15 651.85 377.2 649.1 379.55 649.1 384
L 649.2 385.15
Q 649.45 386.75 650.1 388.1 652.25 392.6 657.85 392.6 662.1 392.6 664.65 389.4 666.6 386.85 666.6 384.1 666.6 380.35 663.85 377.9 661.35 375.6 657.85 375.35 Z"/>
</g>

<g id="S_mbolo_2_0_Layer0_0_MEMBER_37_FILL">
<path fill="#E9DDA3" stroke="none" d="
M 328.2 436.6
L 328.35 437.85
Q 328.85 439.55 330.1 441 334.25 445.85 345.1 445.85 353.35 445.85 358.25 442.35 362.05 439.6 362.05 436.7 362.05 432.65 356.7 430 351.9 427.6 345.1 427.4 338.15 427.1 333.5 429.3 328.2 431.85 328.2 436.6 Z"/>
</g>

<g id="S_mbolo_2_0_Layer0_0_MEMBER_38_FILL">
<path fill="#BBB183" stroke="none" d="
M 491.85 335.6
Q 493.25 335.6 494.4 334.65 495.6 333.6 495.6 332 495.6 328.2 491.85 328.2 488.1 328.2 488.1 332.1 488.1 333.45 488.4 334 489.15 335.6 491.85 335.6 Z"/>
</g>

<g id="S_mbolo_2_0_Layer0_0_MEMBER_39_FILL">
<path fill="#000000" fill-opacity="0.14901960784313725" stroke="none" d="
M 838.95 351.95
Q 823.6 351.95 812.75 355.15 801.95 358.4 801.95 362.95 801.95 367.5 812.75 370.7 823.6 373.95 838.95 373.95 854.3 373.95 865.1 370.7 875.95 367.5 875.95 362.95 875.95 358.4 865.1 355.15 854.3 351.95 838.95 351.95 Z"/>
</g>

<g id="S_mbolo_3_0_Layer1_2_FILL">
<path fill="#FFFFFF" stroke="none" d="
M 105.75 268.2
Q 108.55 271 112.5 271
L 125.5 271
Q 129.45 271 132.2 268.2 135 265.45 135 261.5 135 257.55 132.2 254.75 129.45 252 125.5 252
L 112.5 252
Q 108.55 252 105.75 254.75 103 257.55 103 261.5 103 265.45 105.75 268.2 Z"/>
</g>

<g id="S_mbolo_3_0_Layer1_3_FILL">
<path fill="#FFFFFF" stroke="none" d="
M 105.75 268.2
Q 108.55 271 112.5 271
L 125.5 271
Q 129.45 271 132.2 268.2 135 265.45 135 261.5 135 257.55 132.2 254.75 129.45 252 125.5 252
L 112.5 252
Q 108.55 252 105.75 254.75 103 257.55 103 261.5 103 265.45 105.75 268.2 Z"/>
</g>

<g id="S_mbolo_3_0_Layer1_4_FILL">
<path fill="#FFFFFF" stroke="none" d="
M 105.75 268.2
Q 108.55 271 112.5 271
L 125.5 271
Q 129.45 271 132.2 268.2 135 265.45 135 261.5 135 257.55 132.2 254.75 129.45 252 125.5 252
L 112.5 252
Q 108.55 252 105.75 254.75 103 257.55 103 261.5 103 265.45 105.75 268.2 Z"/>
</g>

<g id="S_mbolo_3_0_Layer1_5_MEMBER_0_FILL">
<path fill="#FFFFFF" stroke="none" d="
M 199.2 47.5
Q 199.1 44.6 196.55 44.35 196.2 44.25 195.95 44.3
L 54.8 43.8
Q 50.35 43.8 50.45 47.6
L 52.3 151
Q 52.3 154.4 56 154.4 56.4 154.4 56.85 154.4
L 198.6 137.8
Q 201.8 137.45 198.7 134.2
L 199.2 47.5 Z"/>
</g>

<g id="S_mbolo_3_0_Layer1_5_MEMBER_1_FILL">
<path fill="#CC0000" stroke="none" d="
M 191.95 127.95
L 191.95 110.95 57 118.95 57 140.95 191.95 127.95 Z"/>
</g>

<g id="S_mbolo_3_0_Layer1_5_MEMBER_2_FILL">
<path fill="#CC0000" stroke="none" d="
M 190.8 59.85
L 190.9 41.85 55.6 42.1 55.45 64.25 190.8 59.85 Z"/>
</g>

<g id="S_mbolo_3_0_Layer1_5_MEMBER_3_FILL">
<path fill="#CC0000" stroke="none" d="
M 176.5 91.6
L 176.5 84 183.9 83.75 183.9 79.85 172.2 80.25 172.2 107.55 183.9 107.15 183.9 103.25 176.5 103.5 176.5 95.5 182.4 95.3 182.4 91.4 176.5 91.6
M 168.1 81.85
Q 166.5 80.15 163.4 80.2 160.25 80.35 158.65 82.15 157.05 84 157.05 87.3 157.05 88.85 157.5 90.2 157.9 91.55 158.95 92.85 160 94.2 161.8 95.7 163.85 97.45 164.7 98.75 165.5 100.1 165.45 101.55 165.45 103 164.85 103.6 164.25 104.25 163.25 104.25 162.2 104.3 161.6 103.7 161 103.15 161 101.7
L 161 99.7 156.95 99.8 156.95 101.5
Q 156.95 104.8 158.55 106.55 160.2 108.25 163.35 108.15 166.5 108.05 168.1 106.25 169.75 104.4 169.75 101.1 169.75 99.55 169.3 98.2 168.9 96.85 167.85 95.55 166.8 94.2 165 92.7 162.95 90.95 162.1 89.65 161.3 88.35 161.35 86.85 161.35 85.4 161.9 84.8 162.45 84.15 163.5 84.1 164.5 84.05 165.1 84.7 165.65 85.3 165.65 86.75
L 165.65 87.9 169.7 87.75 169.7 86.9
Q 169.7 83.6 168.1 81.85
M 146.85 92.8
L 146.85 96.7 154.65 96.45 154.65 92.55 146.85 92.8
M 137 92.9
L 137 85.3 144.4 85.05 144.4 81.15 132.7 81.55 132.7 108.85 144.4 108.45 144.4 104.55 137 104.8 137 96.8 142.9 96.6 142.9 92.7 137 92.9
M 128.4 83.45
Q 126.8 81.75 123.6 81.85
L 116.8 82.1 116.8 109.4 123.6 109.15
Q 126.8 109.05 128.4 107.25 130 105.5 130 102.2
L 130 88.4
Q 130 85.1 128.4 83.45
M 125.15 86.3
Q 125.7 86.9 125.7 88.35
L 125.7 102.55
Q 125.7 104 125.15 104.6 124.55 105.25 123.5 105.3
L 121.1 105.35 121.1 85.85 123.5 85.8
Q 124.55 85.75 125.15 86.3
M 104 90
L 104.05 90 109.3 109.65 113.75 109.5 113.75 82.2 109.9 82.3 109.9 98.65 109.85 98.7 105.5 82.45 100.1 82.65 100.1 109.95 104 109.8 104 90
M 90.1 94.45
L 90.1 86.85 97.5 86.6 97.5 82.7 85.8 83.1 85.8 110.4 97.5 110 97.5 106.1 90.1 106.35 90.1 98.35 96 98.15 96 94.25 90.1 94.45
M 73.3 83.55
L 69 83.7 73.2 110.85 79.6 110.65 83.8 83.2 79.85 83.3 76.6 105.7 76.55 105.7 73.3 83.55 Z"/>
</g>

<path id="S_mbolo_3_0_Layer1_0_1_STROKES" stroke="#8CA8B8" stroke-width="1" stroke-linejoin="round" stroke-linecap="round" fill="none" d="
M 80 214.75
Q 80 216.5 77.15 217.75 74.3 219 70.25 219 66.2 219 63.35 217.75 60.5 216.5 60.5 214.75 60.5 213 63.35 211.75 66.2 210.5 70.25 210.5 74.3 210.5 77.15 211.75 80 213 80 214.75 Z"/>

<path id="S_mbolo_2_0_Layer0_0_1_STROKES" stroke="#8CA8B8" stroke-width="1" stroke-linejoin="round" stroke-linecap="round" fill="none" d="
M -121.15 67.475
L -122.6 67.55"/>
</defs>

<g transform="matrix( 1, 0, 0, 1, -15.45,-10) ">
<mask id="Mask_Mask_1">
<g transform="matrix( 1, 0, 0, 1, 0,0) ">
<use xlink:href="#Mask_S_mbolo_3_0_1_MASK_0_FILL"/>
</g>
</mask>

<g mask="url(#Mask_Mask_1)">
<g transform="matrix( 1, 0, 0, 1, 0,0) ">
<use xlink:href="#S_mbolo_3_0_Layer1_0_FILL"/>

<use xlink:href="#S_mbolo_3_0_Layer1_0_1_STROKES"/>
</g>

<g transform="matrix( 0.603515625, 0, 0, 0.603515625, 282.1,-1.5) ">
<g transform="matrix( 1, 0, 0, 1, 0,0) ">
<use xlink:href="#S_mbolo_2_0_Layer0_0_FILL"/>

<use xlink:href="#S_mbolo_2_0_Layer0_0_1_STROKES"/>
</g>

<g transform="matrix( 0.935089111328125, 0, 0, 0.520782470703125, -111.35,146.95) ">
<use xlink:href="#S_mbolo_2_0_Layer0_0_MEMBER_0_FILL"/>
</g>

<g transform="matrix( 0.935089111328125, 0, 0, 0.520782470703125, -111.35,146.95) ">
<use xlink:href="#S_mbolo_2_0_Layer0_0_MEMBER_1_FILL"/>
</g>

<g transform="matrix( 0.935089111328125, 0, 0, 0.520782470703125, -111.35,146.95) ">
<use xlink:href="#S_mbolo_2_0_Layer0_0_MEMBER_2_FILL"/>
</g>

<g transform="matrix( 0.935089111328125, 0, 0, 0.520782470703125, -111.35,146.95) ">
<use xlink:href="#S_mbolo_2_0_Layer0_0_MEMBER_3_FILL"/>
</g>

<g transform="matrix( 0.935089111328125, 0, 0, 0.520782470703125, -111.35,146.95) ">
<use xlink:href="#S_mbolo_2_0_Layer0_0_MEMBER_4_FILL"/>
</g>

<g transform="matrix( 0.935089111328125, 0, 0, 0.520782470703125, -111.35,146.95) ">
<use xlink:href="#S_mbolo_2_0_Layer0_0_MEMBER_5_FILL"/>
</g>

<g transform="matrix( 0.935089111328125, 0, 0, 0.520782470703125, -111.35,146.95) ">
<use xlink:href="#S_mbolo_2_0_Layer0_0_MEMBER_6_FILL"/>
</g>

<g transform="matrix( 0.935089111328125, 0, 0, 0.520782470703125, -111.35,146.95) ">
<use xlink:href="#S_mbolo_2_0_Layer0_0_MEMBER_7_FILL"/>
</g>

<g transform="matrix( 0.935089111328125, 0, 0, 0.520782470703125, -111.35,146.95) ">
<use xlink:href="#S_mbolo_2_0_Layer0_0_MEMBER_8_FILL"/>
</g>

<g transform="matrix( 0.935089111328125, 0, 0, 0.520782470703125, -111.35,146.95) ">
<use xlink:href="#S_mbolo_2_0_Layer0_0_MEMBER_9_FILL"/>
</g>

<g transform="matrix( 0.935089111328125, 0, 0, 0.520782470703125, -111.35,146.95) ">
<use xlink:href="#S_mbolo_2_0_Layer0_0_MEMBER_10_FILL"/>
</g>

<g transform="matrix( 0.935089111328125, 0, 0, 0.520782470703125, -111.35,146.95) ">
<use xlink:href="#S_mbolo_2_0_Layer0_0_MEMBER_11_FILL"/>
</g>

<g transform="matrix( 0.935089111328125, 0, 0, 0.520782470703125, -111.35,146.95) ">
<use xlink:href="#S_mbolo_2_0_Layer0_0_MEMBER_12_FILL"/>
</g>

<g transform="matrix( 0.935089111328125, 0, 0, 0.947967529296875, -111.35,27.05) ">
<use xlink:href="#S_mbolo_2_0_Layer0_0_MEMBER_13_FILL"/>
</g>

<g transform="matrix( 0.935089111328125, 0, 0, 0.947967529296875, -111.35,27.05) ">
<use xlink:href="#S_mbolo_2_0_Layer0_0_MEMBER_14_FILL"/>
</g>

<g transform="matrix( 0.935089111328125, 0, 0, 0.947967529296875, -111.35,27.05) ">
<use xlink:href="#S_mbolo_2_0_Layer0_0_MEMBER_15_FILL"/>
</g>

<g transform="matrix( 0.935089111328125, 0, 0, 0.947967529296875, -111.35,27.05) ">
<use xlink:href="#S_mbolo_2_0_Layer0_0_MEMBER_16_FILL"/>
</g>

<g transform="matrix( 1, 0, 0, 1, -128.9,-28.5) ">
<use xlink:href="#S_mbolo_2_0_Layer0_0_MEMBER_17_FILL"/>
</g>

<g transform="matrix( 2.4415283203125, 0, 0, 1.359771728515625, -908.6,-52.75) ">
<use xlink:href="#S_mbolo_2_0_Layer0_0_MEMBER_18_FILL"/>
</g>

<g transform="matrix( 2.9568939208984375, 0, 0, 1.64678955078125, -1152.4,-141.9) ">
<use xlink:href="#S_mbolo_2_0_Layer0_0_MEMBER_19_FILL"/>
</g>

<g transform="matrix( 1, 0, 0, 1, -139.9,-58.5) ">
<use xlink:href="#S_mbolo_2_0_Layer0_0_MEMBER_20_FILL"/>
</g>

<g transform="matrix( 1, 0, 0, 1, -128.9,-28.5) ">
<use xlink:href="#S_mbolo_2_0_Layer0_0_MEMBER_21_FILL"/>
</g>

<g transform="matrix( 1, 0, 0, 1, -128.9,-28.5) ">
<use xlink:href="#S_mbolo_2_0_Layer0_0_MEMBER_22_FILL"/>
</g>

<g transform="matrix( 1, 0, 0, 1, -128.9,-28.5) ">
<use xlink:href="#S_mbolo_2_0_Layer0_0_MEMBER_23_FILL"/>
</g>

<g transform="matrix( 1, 0, 0, 1, -128.9,-28.5) ">
<use xlink:href="#S_mbolo_2_0_Layer0_0_MEMBER_24_FILL"/>
</g>

<g transform="matrix( 1, 0, 0, 1, -128.9,-28.5) ">
<use xlink:href="#S_mbolo_2_0_Layer0_0_MEMBER_25_FILL"/>
</g>

<g transform="matrix( 1, 0, 0, 1, -128.9,-28.5) ">
<use xlink:href="#S_mbolo_2_0_Layer0_0_MEMBER_26_FILL"/>
</g>

<g transform="matrix( 1, 0, 0, 1, -128.9,-28.5) ">
<use xlink:href="#S_mbolo_2_0_Layer0_0_MEMBER_27_FILL"/>
</g>

<g transform="matrix( 0.935089111328125, 0, 0, 0.520782470703125, -656.1,155.9) ">
<use xlink:href="#S_mbolo_2_0_Layer0_0_MEMBER_28_FILL"/>
</g>

<g transform="matrix( 1, 0, 0, 1, -398.05,-47) ">
<use xlink:href="#S_mbolo_2_0_Layer0_0_MEMBER_29_FILL"/>
</g>

<g transform="matrix( 2.9568939208984375, 0, 0, 1.64678955078125, -1479.25,-141.8) ">
<use xlink:href="#S_mbolo_2_0_Layer0_0_MEMBER_30_FILL"/>
</g>

<g transform="matrix( 1, 0, 0, 1, -334.75,90.1) ">
<use xlink:href="#S_mbolo_2_0_Layer0_0_MEMBER_31_FILL"/>
</g>

<g transform="matrix( 1, 0, 0, 1, 0,0) ">
<use xlink:href="#S_mbolo_2_0_Layer0_0_MEMBER_32_FILL"/>
</g>

<g transform="matrix( 0.935089111328125, 0, 0, 0.520782470703125, -498.9,280.75) ">
<use xlink:href="#S_mbolo_2_0_Layer0_0_MEMBER_33_FILL"/>
</g>

<g transform="matrix( 0.935089111328125, 0, 0, 0.520782470703125, -498.9,280.75) ">
<use xlink:href="#S_mbolo_2_0_Layer0_0_MEMBER_34_FILL"/>
</g>

<g transform="matrix( 1, 0, 0, 1, -763.4,227.7) ">
<use xlink:href="#S_mbolo_2_0_Layer0_0_MEMBER_35_FILL"/>
</g>

<g transform="matrix( 0.935089111328125, 0, 0, 0.520782470703125, -1043.65,289.7) ">
<use xlink:href="#S_mbolo_2_0_Layer0_0_MEMBER_36_FILL"/>
</g>

<g transform="matrix( 1, 0, 0, 1, -785.6,86.8) ">
<use xlink:href="#S_mbolo_2_0_Layer0_0_MEMBER_37_FILL"/>
</g>

<g transform="matrix( 2.9568939208984375, 0, 0, 1.64678955078125, -1866.8,-8) ">
<use xlink:href="#S_mbolo_2_0_Layer0_0_MEMBER_38_FILL"/>
</g>

<g transform="matrix( 1, 0, 0, 1, -1125.6,331.3) ">
<use xlink:href="#S_mbolo_2_0_Layer0_0_MEMBER_39_FILL"/>
</g>
</g>

<g transform="matrix( 0.328125, 0, 0, 0.328125, 281.7,323.6) ">
<use xlink:href="#S_mbolo_3_0_Layer1_2_FILL"/>
</g>

<g transform="matrix( 0.1692657470703125, 0, 0, 0.1692657470703125, 306.25,372.25) ">
<use xlink:href="#S_mbolo_3_0_Layer1_3_FILL"/>
</g>

<g transform="matrix( 0.116424560546875, 0, 0, 0.116424560546875, 304.25,393.05) ">
<use xlink:href="#S_mbolo_3_0_Layer1_4_FILL"/>
</g>

<g transform="matrix( 1, 0, 0, 1, 0,0) ">
<use xlink:href="#S_mbolo_3_0_Layer1_5_MEMBER_0_FILL"/>
</g>

<g transform="matrix( 1, 0, 0, 1, 3,7) ">
<use xlink:href="#S_mbolo_3_0_Layer1_5_MEMBER_1_FILL"/>
</g>

<g transform="matrix( 1, 0, 0, 1, 3,7) ">
<use xlink:href="#S_mbolo_3_0_Layer1_5_MEMBER_2_FILL"/>
</g>

<g transform="matrix( 1, 0, 0, 1, 0,0) ">
<use xlink:href="#S_mbolo_3_0_Layer1_5_MEMBER_3_FILL"/>
</g>
</g>
</g>
</svg>
