<svg xmlns="http://www.w3.org/2000/svg" xmlns:xlink="http://www.w3.org/1999/xlink" preserveAspectRatio="none" width="672" height="547" viewBox="0 0 672 547"><defs><linearGradient id="a" gradientUnits="userSpaceOnUse" x1="-122.6" y1="449.25" x2="577.5" y2="449.25"><stop offset="0%" stop-color="#D4C995"/><stop offset="95.294%" stop-color="#A39C78"/></linearGradient><linearGradient id="b" gradientUnits="userSpaceOnUse" x1="53.8" y1="614.75" x2="170.4" y2="808.25"><stop offset="79.608%" stop-color="#4A706F" stop-opacity=".412"/><stop offset="100%" stop-color="#989963" stop-opacity="0"/></linearGradient><path fill="#FFF" d="M672.75 67.1q0-20.35-14.4-34.75Q644 18 623.65 18H77.1q-20.35 0-34.75 14.35Q28 46.75 28 67.1v430.6q0 20.35 14.35 34.7 14.4 14.4 34.75 14.4h546.55q20.35 0 34.7-14.4 14.4-14.35 14.4-34.7V67.1z" id="c"/><path fill="#FFF" d="M80 214.75q0-1.75-2.85-3t-6.9-1.25q-4.05 0-6.9 1.25-2.85 1.25-2.85 3t2.85 3q2.85 1.25 6.9 1.25 4.05 0 6.9-1.25 2.85-1.25 2.85-3z" id="e"/><g id="g"><path fill="#723800" d="M-122.6 50.45v2.9l27.9-.3-.55-2.8-27.35.2m21.85-26.1l-.7-3.3h-21.15v3.3h21.85m40.4 1.8l-.9-2.15-39.35.9.45 2.3 39.8-1.05m44.8 17L-16.5 41l-37.55 1.85-42.35 2.05.55 2.65 42.65-2.35 37.65-2.05m-9.5-21L-26 20.2l-36.25.9.75 2.1 36.45-1.05m24.95-9l-1.15-1.95-28.4.9.9 1.95 28.65-.9M14.25 37.6l-1.15-1.9-31.35 1.45.85 1.9 31.65-1.45m20-17.2l-1.15-1.7-29.5.7 1.05 1.9 29.6-.9m34.65 2.1l-1.4-1.6-32.4.6 1.2 1.7 32.6-.7M48.15 39.7l-1.3-1.75-31.6 1.5 1.15 1.95 31.75-1.7M88.5 18.85l-1.65-1.45-22 .6 1.35 1.5 22.3-.65m-1.2 24l-1.4-1.65-35.7 1.35 1.2 1.8 35.9-1.5m19.65-7.9l-25.6 1.3 1.45 1.55 25.7-1.45-1.55-1.4z"/><path fill="#C60" d="M-101.45 21.05L-104.85 5h-17.75v16.05h21.15m55.15 42.2l-6.9-18.05-42.65 2.35.6 2.7.55 2.8-27.9.3v14.2l1.45-.1 74.85-4.2M53.1 5l11.75 13 22-.6L72.7 5H53.1m28.25 31.25l25.6-1.3-18.45-16.1-22.3.65 1.3 1.4 1.4 1.6-32.6.7-1.2-1.7-.85-1.1-29.6.9-1.05-1.9-3.7-6.25-28.65.9-.9-1.95 28.4-.9-3.6-6.2h-63.5l6.1 16.1 36.25-.9.95 1.95 6.8 15L13.1 35.7l1.15 1.9 1 1.85 31.6-1.5 1.3 1.75-31.75 1.7 10.3 17.65 33.9-1.85-9.2-12.85-1.2-1.8 35.7-1.35-3.1-3.4-1.45-1.55z"/><path fill="#AF8C44" d="M-26.55 68.65L-46.3 69.9l-76.3 5v122.6l97.65-12.1-1.6-116.75z"/><path fill="#B18051" d="M-7 61.05l-8.55-17.9-37.65 2.05 6.9 18.05 39.3-2.2z"/><path fill="#A15000" d="M-46.3 69.9v-6.65l-74.85 4.2-1.45.1v7.35l76.3-5m149.4-9.7l5.6-.35 19.15-1.25v-5.25l-29.45 1.7-37.8 2.15-.05 5.7 12.25-.75 5.5-.35 24.8-1.6z"/><path fill="#986D45" d="M-46.3 63.25v6.65l19.75-1.25 18.9-1.25.65-6.35-39.3 2.2z"/><path fill="#CCA37B" d="M-54.05 42.85l-6.3-16.7-39.8 1.05 3.75 17.7 42.35-2.05z"/><path fill="#CC945D" d="M-61.25 24l-.25-.8-.75-2.1-6.1-16.1h-36.5l3.4 16.05.7 3.3h-21.85v26.1l27.35-.2-.6-2.7-.55-2.65-3.75-17.7-.45-2.3 39.35-.9m76.5 15.45l-1-1.85-31.65 1.45.9 1.95.95 2.15L-7 61.05l33.7-2L16.4 41.4l-1.15-1.95z"/><path fill="#E97400" d="M-17.4 39.05l-.85-1.9-6.8-15-36.45 1.05.25.8.9 2.15 6.3 16.7L-16.5 41l-.9-1.95M33.1 18.7L23.2 5H-4.85l3.6 6.2 1.15 1.95 3.7 6.25 29.5-.7m65.3 36.35l-11.1-12.2-35.9 1.5 9.2 12.85 37.8-2.15z"/><path fill="#E0B359" d="M103.1 60.2l-24.8 1.6v150.75l24.8 6.65v-159z"/><path fill="#A69D74" d="M78.3 61.8l-5.5.35V211.1l-97.75-25.7-97.65 12.1v-.25h-.2v81.55l1.85-.35-1.65.45 231.3-48.35-5.6-1.9v-9.45l-24.8-6.65V61.8z"/><path fill="#CBA350" d="M72.8 62.15l-12.25.75-33.2 2.25-35 2.25-18.9 1.25 1.6 116.75 97.75 25.7V62.15z"/><path fill="#AA7C4D" d="M27.35 65.15l-.65-6.1-33.7 2-.65 6.35 35-2.25z"/><path fill="#B45900" d="M26.7 59.05l.65 6.1 33.2-2.25.05-5.7-33.9 1.85z"/><path fill="#CC8A48" d="M64.85 18L53.1 5H23.2l9.9 13.7 1.15 1.7.85 1.1 32.4-.6-1.3-1.4-1.35-1.5m43.65 18.35L82.8 37.8l3.1 3.4 1.4 1.65 11.1 12.2 29.45-1.7-19.35-17z"/><path fill="#D9A43B" d="M127.85 58.6l-19.15 1.25v170.7l16.85-4.25v-1.05l2.3-166.65z"/><path fill="#AA7D23" d="M108.7 59.85l-5.6.35v168.45l5.6 1.9V59.85z"/><path fill="url(#a)" d="M577.5 348.3v-1.35l-451.95-121.7v1.05l-16.85 4.25-231.3 48.35 1.65-.45-1.85.35-344.65 67v589.45h1181.3l.9-549.75-137.25-37.2m95.35 284.3l.2 8L167.3 872.05l-.45.25-569.65-340.4v-9.4l-.85-.5.85-.2 280.2-63.35v-.3l171-38.2 136.8 46.6q.215-.082.6-.1v-.1h.3q-.157.005-.3.1v.3L577.5 600.3v.1l96.7 31.55h.05l-.05.05-1.35.6M9.3 270.2q-1.45-.45-2.15-1.2l-.2-1.4q0-.5.85-1.25.8-.7 1.5-.9 1.45.65 2.3 1.9 0 .65-.55 1.45-.65.95-1.75 1.4m36.35 57.45l-.55-.7.55-8.05v8.75M192.4 452.8l.1.4q-.1 0-.2-.1 0-.15.1-.3m49.6 26.8v6q-.9-2.85 0-6M-46.85 266.4q1.5.65 2.35 1.9 0 .65-.55 1.45-.65.95-1.8 1.4-1.4-.45-2.1-1.2l-.2-1.4q0-.55.85-1.25.75-.7 1.45-.9m9.35 5.7q1.5.6 2.35 1.9 0 .65-.55 1.4-.65.95-1.8 1.45-1.4-.5-2.1-1.2l-.2-1.4q0-.55.85-1.25.75-.7 1.45-.9m-60.3 22.05q0-.55.85-1.25.8-.7 1.5-.9 1.5.6 2.35 1.9 0 .65-.6 1.4-.65.95-1.75 1.45-1.4-.5-2.1-1.2l-.25-1.4z"/><path fill="#BBB183" d="M-96.95 292.9q-.85.7-.85 1.25l.25 1.4q.7.7 2.1 1.2 1.1-.5 1.75-1.45.6-.75.6-1.4-.85-1.3-2.35-1.9-.7.2-1.5.9m61.8-18.9q-.85-1.3-2.35-1.9-.7.2-1.45.9-.85.7-.85 1.25l.2 1.4q.7.7 2.1 1.2 1.15-.5 1.8-1.45.55-.75.55-1.4m-9.35-5.7q-.85-1.25-2.35-1.9-.7.2-1.45.9-.85.7-.85 1.25l.2 1.4q.7.75 2.1 1.2 1.15-.45 1.8-1.4.55-.8.55-1.45m51.65.7q.7.75 2.15 1.2 1.1-.45 1.75-1.4.55-.8.55-1.45-.85-1.25-2.3-1.9-.7.2-1.5.9-.85.75-.85 1.25l.2 1.4z"/><path fill="#E2FFA6" d="M242 485.6v-6q-.9 3.15 0 6z"/><path fill="#3FF" d="M192.5 453.2l-.1-.4q-.1.15-.1.3.1.1.2.1M45.1 326.95l.55.7v-8.75l-.55 8.05m140.7 139.4v.1q.143-.095.3-.1h-.3m0 .1q-.385.018-.6.1l.6.2v-.3z"/><path fill="#CBCBCB" d="M167.3 871.65l-.4-12.2-.4.2-300.15-179.5-.55.25-268.6-157.9v9.4l569.65 340.4.45-.65M235.7 519l4.35 1.65 49.15 18.1 4.1 1.55h.1l40.15 14.85 5.6 2 46.7 17.25 3.7 1.35 46.8 17.2 4.7 1.7 52.3 19.35 5.6 2.05 49.6 18.25 5.6 2.1 13.3 4.9 10.05 3.7V635.55L46.55 441.75v7.6l1.9.65.95.35.15.05 41.9 15.55h.05l3.65 1.35 49 18.25h.05l4.2 1.8 39.35 14 .1.05 4.2 1.6 43.65 16z"/><path fill="#C7E0D4" d="M577.5 676.8v-1.1l-2.45 1.1h2.45z"/><path fill="#FFF" d="M672.85 632.6l1.35-.6v-.05l-96.7-31.55v-.1L185.8 466.75l-.6-.2-136.8-46.6-171 38.2v.3l-280.2 63.35v.7l268.6 157.9.55-.25 300.15 179.5.4-.2L575.05 676.8l2.45-1.1 48.65-21.75 2.25-1.15 44.45-20.2M293.4 750.8l-4.2 1.65-7.9 3.15L171.65 799-32.5 682.5l-11.55-6.45-4.55-2.5-21.7-12.1-4.4-2.45-16.55-9.25-4.5-2.5-20.35-11.3-5.3-2.95-19.65-10.95-4.45-2.5-21.75-12.1-4.6-2.6-21.7-12.05-4.45-2.5-34.7-19.3-4.7-2.6-6.75-3.8-4.4-2.45-44.55-24.8-11.75-6.55 182.25-46.15v.45l169.15-43.35 530.95 193.8v.3l1.85.6-1.85.75v7.8l-10.05-3.7-13.3 5.45-5.6 2.25-42.3 17.25-7.4 3-.45.2-4.2 1.65-53.85 21.35-4.2 1.7-46.4 18.4-4.2 1.65-.15.05-7.05 2.8L338 733.1l-4.2 1.65-7.7 3.05-6.8 2.7-25.9 10.3z"/><path fill="#6CF" d="M-145.45 600.7l-21.8 6.75 21.75 12.1.05-18.85m49.75 29.25l-20.4 6 20.35 11.3.05-17.3m47.15 25.65l-21.75 5.85 21.7 12.1.05-17.95m.1-39.45h-.05l-42.7 12.5h-.05v21.1L-74.7 659l26.15-6.9.1-35.95m46.5 26.9H-2l-42.05 11.35v21.65l11.55 6.45 30.45-8.7.1-30.75m-191.6-82.9v32.65l21.7 12.05 26.4-8.1.1-49.95-48.2 13.35m-4.35 1.2h-.05L-232.7 571l34.7 19.3.1-28.95m-46.25-36.95v40.2l6.75 3.8 39.45-10.95h.05l.05-45.25-46.3 12.2m-4.3 1.15l-44.65 11.8 44.55 24.8.1-36.6M-95.6 585.3h-.05L-141 599.35l-.05 22.7L-121.4 633l25.7-7.35.1-40.35m-49.75-42.35l.1-44.65-48.25 12.75-.05 45.2 48.2-13.3m22.75-50.2v-.4l-18.35 4.85-.05 44.55 45.5-12.6.05-25.7h-.05v-17.7l-27.1 7m74.35-2.35l.4-.1v-16.8l-43 11.1v17.5l-.3.1-.05 25.75 42.9-11.85.05-25.7m5.1-1.3l-.8.2-.05 25.6 42.25-11.65.05-25.55.55-.15v-16l-42 10.75v16.8M2.5 641.85v30.65L46.35 660l-.15-29.9-43.7 11.75m.1-165.3h-.1v25.55l42.85-11.85-.15-25.4.45-.1v-15.2L2.6 460.65v15.9M-1.95 639.8l.05-37.3-42.15 12.35v36.05L-2 639.8h.05m-46.45-69.05l-42.8 13.2-.05 40.45h.05l42.7-12.2h.05l.05-41.45m4.4-5.1l42.2-12.95.05-45.6L-44 518.8v46.85m42.2-9.3L-44 569.4l-.05 41.55 42.15-12 .1-42.6m-89.4-24.5v48.3L-48.4 567l.1-47-42.9 11.85m-4.45 49.65h.05l.1-48.45-45.5 12.55v49.8l45.35-13.9M2.5 601.2v37.4l43.65-11.55-.2-38.55L2.5 601.2m43.15-59.55L2.5 555v42.7l43.4-12.4-.25-43.65M2.5 551.4l43.15-13.25-.3-44.05L2.5 505.95v45.45z"/><path fill="#FFC" d="M-244.15 524.4l-4.3 1.15-.1 36.6 4.4 2.45v-40.2m798.3 112l-5.6-2.1V649l5.6-2.25V636.4m-314.1-99v-16.75L235.7 519v43.1l-43.65-16.8V503l-4.2-1.6-.1-.05v16.3l.1.05v26l-39.45-15.2v-41.15l-4.2-1.8h-.05v16.4l.05-.65v25.6l-48.5-18.65-.8-25.65.25.2v-15.5l-3.65-1.35h-.05v15.5h.05v25.15l-41.8-16.05-.2-24.9q-.117-.05-.25-.1-.1-.1-.15-.1l-.65-.25V450l-1.9-.65-.9.2v15.2l-.45.1.15 25.4L2.5 502.1v-25.55h.1v-15.9l-1.9.45v16l-1.85.45-.55.15-.05 25.55L-44 514.9l.05-25.6.8-.2v-16.8l-2.85.75v16.75l-1.85.5-.4.1-.05 25.7-42.9 11.85.05-25.75v-17.4l.3-.1v-.1l-2.8.65v17.65l-1.8.55-.05 25.7-45.5 12.6.05-44.55-4.3 1.1-.1 44.65-48.2 13.3.05-45.2-4.35 1.15-.05 45.25h-.05l-39.45 10.95 4.7 2.6 34.75-9.65h.05l-.1 28.95 4.45 2.5v-32.65l48.2-13.35-.1 49.95-26.4 8.1 4.6 2.6 21.8-6.75-.05 18.85 4.45 2.5.05-22.7 45.35-14.05h.05l-.1 40.35-25.7 7.35 5.3 2.95 20.4-6-.05 17.3 4.5 2.5v-21.1h.05l42.7-12.5h.05l-.1 35.95-26.15 6.9 4.4 2.45 21.75-5.85-.05 17.95 4.55 2.5V654.4L-2 643.05h.05l-.1 30.75 4.55-1.3v-30.65l43.7-11.75.15 29.9 4.3-1.2v-.45l.25.15v-.3l-.25-26.9.15.1 40.7 16.5v27.45l4.2 1.8V649.6l48.5 19.75v28.3l4.2 1.75v-28.1l39.45 15.9v28.9l4.2 1.75V688.9l43.65 17.65v29.75l4.2 1.8v-29.85l49.3 20.05v24.15l4.2-1.65V730l25.9 10.5 6.8-2.7-32.7-13.2v-40.45l40.4 15.65v34.95l4.2-1.65v-31.65l40.35 15.6 7.05-2.8L338 696v-41.15l47.55 18.45v40.9l4.2-1.65V674.9l46.4 18v1.25l4.2-1.7V646.6l53.85 20.85v3.65l4.2-1.65v-.35l.45.15 7.4-3-7.85-3.05v-45.8l.55.2v-1.55l-5.6-2.05v1.5l.85.35v45.75l-53.85-20.7v-28.05l.7.3v-18.5l-4.7-1.7v18.4l-.2-.1v28l-46.4-17.85v-44.95l-.2-.1v-.6l-3.7-1.35v.6l-.3-.1v44.9L338 601.5v-44.6l1.15.4v-.15l-5.6-2v.1l.25.1v44.5l-40.4-15.5v-26.8l-.1-.05v-17.2l-4.1-1.55v43.95l-49.3-18.95v-26.4l.15.05m-48 55.9v-42.9l43.65 16.95v42.7l-43.65-16.75m-4.2-44.5v42.85L148.4 576.5v-43l39.45 15.3m52.05 20.15l49.3 19.1v42.6l-49.3-18.95v-42.75M50 538.65l-.3-43.35 41.8 16.2v43.1L50 538.65m.35 46.7l-.3-42.05 41.45 16.1v41.8l-41.15-15.85m-4.7-47.2L2.5 551.4v-45.45l42.85-11.85.3 44.05M2.5 555l43.15-13.35.25 43.65-43.4 12.4V555m93.2 6l48.5 18.8v41.65L95.7 602.8V561m48.5 13.85L95.7 556.2v-43.1l48.5 18.8v42.95M91.5 606v37.1l-40.7-16.45-.15-.05-.3-36.55L91.5 606m56.9 60.05V628l39.45 15.3V682l-39.45-15.95m-4.2-39.65v37.95L95.7 644.8v-37.2l48.5 18.8M2.5 638.6v-37.4l43.45-12.7.2 38.55L2.5 638.6m290.9 40.25V637.6l40.4 15.65v41.15l-40.4-15.55m-4.2-42.9v41.3l-49.3-18.95v-41.45l49.3 19.1m-97.15 3.95v-41.6l43.65 16.95v41.4l-43.65-16.75m-4.2-43.2v41.55L148.4 623.1v-41.7l39.45 15.3m4.2 87v-38.8l43.65 16.9v39.5l-43.65-17.6m97.15 39.2L239.9 703v-39.55l49.3 19.1v40.35m4.2-90.65V589.7l40.4 15.65v42.45l-40.4-15.55M436.15 645v42.15l-46.4-17.85V627l46.4 18m-50.6-19.6v42.3L338 649.4v-42.45l47.55 18.45M-95.6 581.5h-.05L-141 595.4v-49.8l45.5-12.55-.1 48.45m4.4-1.35v-48.3L-48.3 520l-.1 47-42.8 13.15M-44 569.4l42.2-13.05-.1 42.6-42.15 12 .05-41.55m42.2-16.7L-44 565.65V518.8l42.25-11.7-.05 45.6m-89.4 31.25l42.8-13.2-.05 41.45h-.05l-42.7 12.2h-.05l.05-40.45m89.3 18.55l-.05 37.3H-2l-42.05 11.1v-36.05L-1.9 602.5z"/><path fill="#DBDBB0" d="M-93.65 485.25l-1.85.5v17.7h.05l1.8-.55v-17.65M-46 489.8v-16.75l-1.85.45v16.8l1.85-.5M.7 477.1v-16l-1.85.45v16l1.85-.45z"/><path fill="#41AEE5" d="M-90.85 484.7l-.3.1v17.4l.3-.1v-17.4M498.4 669.1v.35l.45-.2-.45-.15m.55-51.5l-.55-.2v45.8l7.85 3.05 42.3-17.25v-14.7l-49.6-18.25v1.55m-109.2 57.3v37.65l46.4-18.4v-1.25l-46.4-18M338 701.45v31.65l40.35-16.05-40.35-15.6m47.55-28.15L338 654.85V696l47.4 18.25.15-.05v-40.9m54.8-26.7v45.85l53.85-21.35v-3.65l-53.85-20.85m0-33.75v28.05l53.85 20.7v-45.75l-.85-.35V614l-52.3-19.35v18.5l-.7-.3m-50.8-36.5l.2.1v44.95l46.4 17.85v-28l.2.1v-18.4l-46.8-17.2v.6m-50.4-19.05l-1.15-.4v44.6l47.55 18.3v-44.9l.3.1v-.6l-46.7-17.25v.15M293.4 684.15v40.45l32.7 13.2 7.7-3.05V699.8l-40.4-15.65m25.9 56.35L293.4 730v20.8l25.9-10.3m-79.4-32.25v29.85l41.4 17.5 7.9-3.15V728.3l-49.3-20.05m-4.2 28.05v-29.75l-43.65-17.65v28.95l43.65 18.45m-87.3-65v28.1l39.45 16.7v-28.9l-39.45-15.9m-52.7-21.7v27.55l48.5 20.5v-28.3L95.7 649.6m-4.2 25.75V647.9l-40.7-16.5-.15-.1.25 26.9 40.6 17.15m-.05-193.9v-15.5l-41.9-15.55-.15-.05.1 15.3.2 24.9 41.8 16.05v-25.15h-.05m3.7 1.35l-.25-.2.8 25.65 48.5 18.65v-25.6l-.05.65v-16.4l-49-18.25v15.5m198.25 57.5h-.1v17.2l.1.05v26.8l40.4 15.5v-44.5l-.25-.1v-.1L293.4 540.3M235.7 519l-43.65-16v42.3l43.65 16.8V519m-47.95-1.35v-16.3l-39.35-14v41.15l39.45 15.2v-26l-.1-.05m197.8 150.05v-42.3L338 606.95v42.45l47.55 18.3m50.6 19.45V645l-46.4-18v42.3l46.4 17.85M293.4 589.7v42.55l40.4 15.55v-42.45l-40.4-15.65M239.9 703l49.3 19.9v-40.35l-49.3-19.1V703m-47.85-58.1v38.8l43.65 17.6v-39.5l-43.65-16.9m-4.2-6.65V596.7l-39.45-15.3v41.7l39.45 15.15m4.2-39.95v41.6l43.65 16.75v-41.4l-43.65-16.95m97.15 78.95v-41.3l-49.3-19.1v41.45l49.3 18.95m4.2-39.65v41.25l40.4 15.55v-41.15l-40.4-15.65m-149.2 26.75V626.4l-48.5-18.8v37.2l48.5 19.55m4.2-36.35v38.05L187.85 682v-38.7L148.4 628m-56.9 15.1V606l-41.15-15.95.3 36.55.15.05 40.7 16.45m4.2-86.9l48.5 18.65V531.9l-48.5-18.8v43.1m48.5 23.6L95.7 561v41.8l48.5 18.65V579.8m-94.15-36.5l.3 42.05L91.5 601.2v-41.8l-41.45-16.1m-.35-48l.3 43.35 41.5 15.95v-43.1l-41.8-16.2m239.5 92.75l-49.3-19.1v42.75l49.3 18.95v-42.6m-101.35 3.6V548.8l-39.45-15.3v43l39.45 15.15m4.2-41.25v42.9l43.65 16.75v-42.7l-43.65-16.95m48-29.75v16.75l-.15-.05v26.4l49.3 18.95v-43.95l-49.15-18.1z"/><path fill="#5BB7E5" d="M554.15 636.4v10.35l13.3-5.45-13.3-4.9M49.4 450.35l-.95-.35v15.2l.65.25q.05 0 .15.1.133.05.25.1l-.1-15.3z"/><path fill="#2CDEDE" d="M50.65 658.35v.5l3.8 1.35-3.55-1.7-.25-.15z"/><path fill="#95DBFF" d="M95.7 677.15l-4.2-1.8-40.6-17.15v.3l3.55 1.7-3.8-1.35v-.05l-4.3 1.2L2.5 672.5l-4.55 1.3-30.45 8.7L171.65 799l109.65-43.4-41.4-17.5-4.2-1.8-43.65-18.45-4.2-1.75-39.45-16.7-4.2-1.75-48.5-20.5z"/><path fill="#E7E7E7" d="M.7 461.1l1.9-.45 43.05-11.1.9-.2v-7.6L-122.6 485.1v-.45l-182.25 46.15 11.75 6.55 44.65-11.8 4.3-1.15 46.3-12.2 4.35-1.15 48.25-12.75 4.3-1.1 18.35-4.85v.4l27.1-7 1.85-.5 2.8-.65 43-11.1 1.85-.45 2.85-.75 42-10.75 1.85-.45m672.35 179.5l-.2-8-44.45 20.2.15.05-2.4 1.1-48.65 21.75v1.1h-2.45L166.9 859.45l.4 12.2v.4L673.05 640.6z"/><path fill="#FC6" d="M714.75 385.5l.65-383H-467.45v343.3l344.65-67v-81.55h.2V5H72.7l14.15 12.4 1.65 1.45 18.45 16.1 1.55 1.4 19.35 17v5.25l-2.3 166.65 451.95 121.7v1.35l137.25 37.2M338.1 192.85v.3l-124.35-19.1q-9.35-1.5-18.65-2.85l-56-8.1h-.05V30.65l2.3.05v-.05l199.85 1.8-.8 160.7-2.3-.3z"/><path fill="#838383" d="M338.1 192.85l2.3.3.8-160.7-199.85-1.8v.05l197.5 1.75-.75 160.4M222.3 44.25l5.15.15v-5.5l-80.95-1.75v118.3l5.6-3.9V42.85l33.7.7 8.95.15 27.55.55m102.8 2.05v-5.35l-89.75-1.9v123.7l3.6.5V44.6l37.85.75 24.2.5 8.65.2 5.6.05 9.85.2z"/><path fill="#333" d="M338.1 193.15v-.3l.75-160.4-197.5-1.75-2.3-.05V163.1h.05l56 8.1q9.3 1.35 18.65 2.85l124.35 19.1m-13-152.2V180.25l-89.75-12.45V39.05l89.75 1.9m-97.65-2.05v127.8l-80.95-11.25V37.15l80.95 1.75z"/><path fill="#9CF" d="M152.1 42.85V94.5l33.7-50.95-33.7-.7m70.2 1.4l-27.55-.55-42.65 82v26.05l27.65 3.65L222.3 44.25m16.65.35v98.45l37.85-97.7-37.85-.75m70.7 1.45l-8.65-.2-46.9 119.4 13.1 1.7 42.45-120.9m15.45 128.5V46.3l-9.85-.2-43.15 121.5 53 6.95z"/><path fill="#999" d="M227.45 166.7v-4.95l-47.7-6.35-27.65-3.65v-.2l-5.6 3.9 80.95 11.25m97.65 13.55v-5.7l-53-6.95-4.9-.65-13.1-1.7-15.15-2-3.6-.5v5.05l89.75 12.45z"/><path fill="#C2E0FF" d="M194.75 43.7l-8.95-.15-33.7 50.95v31.2l42.65-82m32.7.7l-5.15-.15-42.55 111.15 47.7 6.35V44.4z"/><path fill="#B4D9FF" d="M301 45.85l-24.2-.5-37.85 97.7v20.2l15.15 2L301 45.85m14.25.25l-5.6-.05-42.45 120.9 4.9.65 43.15-121.5z"/></g><path fill="#BBB183" d="M333.65 277.5q1.95-2.45 1.95-5.25 0-3.75-2.75-6.2-2.5-2.25-6-2.5-3.6-.25-6 1.8-2.75 2.35-2.75 6.75l1.05 4.15q2.2 4.35 7.7 4.35 4.3 0 6.8-3.1z" id="i"/><path fill="#E9DDA3" d="M387.65 287.4q1.95-2.55 1.95-5.3 0-3.7-2.75-6.1-2.5-2.2-6-2.4-3.6-.25-6 1.8-2.75 2.3-2.75 6.6 0-.25 1.05 4.1 2.2 4.5 7.7 4.5 4.25 0 6.8-3.2z" id="j"/><path fill="#E9DDA3" d="M563.1 345l.1 1.15q.25 1.6.95 2.95 2.25 4.5 8.2 4.5 4.65 0 7.25-3.2 2-2.5 2-5.3 0-3.75-2.9-6.2-2.65-2.3-6.35-2.55-3.8-.2-6.35 1.85-2.9 2.35-2.9 6.8z" id="k"/><path fill="#BBB183" d="M457.1 331l.1 1.15q.25 1.6.9 2.95 2.15 4.5 7.75 4.5 4.25 0 6.8-3.25 1.95-2.55 1.95-5.25 0-3.75-2.75-6.2-2.5-2.25-6-2.45-3.6-.25-6 1.8-2.75 2.35-2.75 6.75z" id="l"/><path fill="#BBB183" d="M481.85 293.45q-3.6-.25-6 1.8-2.75 2.35-2.75 6.75l.1 1.2q.25 1.6.9 2.95 2.15 4.45 7.75 4.45 4.25 0 6.8-3.2 1.95-2.55 1.95-5.3 0-3.75-2.75-6.2-2.5-2.25-6-2.45z" id="m"/><path fill="#BBB183" d="M680.85 359.9q-2.45-2.25-6-2.35-3.55-.1-6 2.05-2.75 2.4-2.75 6.65 0 .8.1 1.65.25 1.75.95 3.2 2.15 4.5 7.7 4.5 4.7 0 7.05-3.5 1.7-2.5 1.7-5.6 0-4.1-2.75-6.6z" id="n"/><path fill="#BBB183" d="M657.85 375.35q-3.6-.2-6 1.85-2.75 2.35-2.75 6.8l.1 1.15q.25 1.6.9 2.95 2.15 4.5 7.75 4.5 4.25 0 6.8-3.2 1.95-2.55 1.95-5.3 0-3.75-2.75-6.2-2.5-2.3-6-2.55z" id="o"/><path fill="#BBB183" d="M216.85 244.35q-3.6-.2-6 2.25-2.75 2.8-2.75 8v1.4q.15 1.9.8 3.5 2 5.25 7.95 5.25 5 0 7.25-3.95 1.5-2.65 1.5-6.05 0-4.55-2.75-7.5-2.5-2.65-6-2.9z" id="p"/><path fill="#BBB183" d="M251.65 242.55q1.95-2.55 1.95-5.3 0-3.75-2.75-6.2-2.5-2.25-6-2.5-3.6-.25-6 1.8-2.75 2.35-2.75 6.75l.1 1.2q.25 1.65.9 3 2.15 4.45 7.75 4.45 4.25 0 6.8-3.2z" id="q"/><path fill="#BBB183" d="M298.35 280.65q1.25-1.05 1.25-2.65 0-3.7-3.75-3.65-3.75 0-3.75 3.75 0 1.4.25 1.9.75 1.6 3.5 1.6 1.35 0 2.5-.95z" id="r"/><path fill="#BBB183" d="M362.4 266.75q1.2-1.05 1.2-2.65 0-3.8-3.75-3.75-3.75 0-3.75 3.9 0 1.3.3 1.9.75 1.6 3.45 1.6 1.4 0 2.55-1z" id="s"/><path fill="#BBB183" d="M412.35 292.65q1.25-1.05 1.25-2.65 0-3.8-3.75-3.8t-3.75 3.9q0 1.4.25 1.9.75 1.6 3.5 1.6 1.35 0 2.5-.95z" id="t"/><path fill="#E9DDA3" d="M494.4 334.65q1.2-1.05 1.2-2.65 0-3.8-3.75-3.8t-3.75 3.9q0 1.35.3 1.9.75 1.6 3.45 1.6 1.4 0 2.55-.95z" id="u"/><path fill="#BBB183" d="M481.35 323.5q-.9-1.35-2.5-2-.75.2-1.6.95-.9.75-.9 1.3l.25 1.5q.75.75 2.25 1.25 1.2-.5 1.9-1.5.6-.8.6-1.5z" id="v"/><path fill="#BBB183" d="M596.35 333.5q-.9-1.35-2.5-2-.75.2-1.6.95-.9.75-.9 1.3l.25 1.5q.75.75 2.25 1.25 1.2-.5 1.9-1.5.6-.8.6-1.5z" id="w"/><path fill="#BBB183" d="M686.35 387.75l.25 1.5q.75.75 2.25 1.25 1.2-.5 1.9-1.5.6-.8.6-1.5-.9-1.35-2.5-2-.75.2-1.6.95-.9.75-.9 1.3z" id="x"/><path fill="#BBB183" d="M183.35 227.5q-.9-1.35-2.5-2-.75.2-1.6.95-.9.75-.9 1.3l.25 1.5q.75.75 2.25 1.25 1.2-.5 1.9-1.5.6-.8.6-1.5z" id="y"/><path fill="#E9DDA3" d="M328.2 436.6l.15 1.25q.5 1.7 1.75 3.15 4.15 4.85 15 4.85 8.25 0 13.15-3.5 3.8-2.75 3.8-5.65 0-4.05-5.35-6.7-4.8-2.4-11.6-2.6-6.95-.3-11.6 1.9-5.3 2.55-5.3 7.3z" id="z"/><path fill="#BBB183" d="M481.85 293.45q-3.6-.25-6 1.8-2.75 2.35-2.75 6.75l.1 1.2q.25 1.6.9 2.95 2.15 4.45 7.75 4.45 4.25 0 6.8-3.2 1.95-2.55 1.95-5.3 0-3.75-2.75-6.2-2.5-2.25-6-2.45z" id="A"/><path fill="#BBB183" d="M494.4 334.65q1.2-1.05 1.2-2.65 0-3.8-3.75-3.8t-3.75 3.9q0 1.35.3 1.9.75 1.6 3.45 1.6 1.4 0 2.55-.95z" id="B"/><path fill="#FFC24A" d="M484.75 272.9q1-1.45 1-3.05 0-2.4-1.55-3.8-1.4-1.25-3.45-1.25-2.05 0-3.45 1.25-1.55 1.4-1.55 3.8 0-.3.5 2.3 1.15 2.7 4.5 2.7 2.6 0 4-1.95z" id="C"/><path fill="#FFE2AA" d="M672.25 320.35q-.9-1.35-2.5-2-.75.2-1.6.95-.9.75-.9 1.3l.25 1.5q.75.75 2.25 1.25 1.2-.5 1.9-1.5.6-.8.6-1.5z" id="D"/><path fill="#FFE2AA" d="M674.25 291.35q-.9-1.35-2.5-2-.75.2-1.6.95-.9.75-.9 1.3l.25 1.5q.75.75 2.25 1.25 1.2-.5 1.9-1.5.6-.8.6-1.5z" id="E"/><path fill="#FFE2AA" d="M671.25 303.35q-.9-1.35-2.5-2-.75.2-1.6.95-.9.75-.9 1.3l.25 1.5q.75.75 2.25 1.25 1.2-.5 1.9-1.5.6-.8.6-1.5z" id="F"/><path fill="#FFE2AA" d="M653.8 316.9q.95-1.45.95-3.05 0-2.4-1.55-3.8-1.4-1.25-3.45-1.25-2.05 0-3.45 1.25-1.55 1.4-1.55 3.8 0-.3.55 2.3 1.2 2.7 4.45 2.7 2.7 0 4.05-1.95z" id="G"/><path fill="#FFE2AA" d="M700.75 277.9q1-1.45 1-3.05 0-2.4-1.55-3.8-1.4-1.25-3.45-1.25-2.05 0-3.45 1.25-1.55 1.4-1.55 3.8 0-.3.5 2.3 1.15 2.7 4.5 2.7 2.6 0 4-1.95z" id="H"/><path fill="#FFC24A" d="M674.8 323.9q.95-1.45.95-3.05 0-2.4-1.55-3.8-1.4-1.25-3.45-1.25-2.05 0-3.45 1.25-1.55 1.4-1.55 3.8 0-.3.55 2.3 1.2 2.7 4.45 2.7 2.7 0 4.05-1.95z" id="I"/><path fill="#FFC24A" d="M663 285.6q1.75-2 1.75-3.75 0-2.45-1.7-3.85-1.55-1.2-3.8-1.1-2.2.1-3.8 1.45-1.7 1.45-1.7 3.75 0 1.8.55 3.05 1.15 2.7 4.45 2.7 2.3 0 4.25-2.25z" id="J"/><path fill="#BBB183" d="M657.85 375.35q-3.6-.2-6 1.85-2.75 2.35-2.75 6.8l.1 1.15q.25 1.6.9 2.95 2.15 4.5 7.75 4.5 4.25 0 6.8-3.2 1.95-2.55 1.95-5.3 0-3.75-2.75-6.2-2.5-2.3-6-2.55z" id="K"/><path fill="#E9DDA3" d="M328.2 436.6l.15 1.25q.5 1.7 1.75 3.15 4.15 4.85 15 4.85 8.25 0 13.15-3.5 3.8-2.75 3.8-5.65 0-4.05-5.35-6.7-4.8-2.4-11.6-2.6-6.95-.3-11.6 1.9-5.3 2.55-5.3 7.3z" id="L"/><path fill="#BBB183" d="M491.85 335.6q1.4 0 2.55-.95 1.2-1.05 1.2-2.65 0-3.8-3.75-3.8t-3.75 3.9q0 1.35.3 1.9.75 1.6 3.45 1.6z" id="M"/><path fill-opacity=".149" d="M838.95 351.95q-15.35 0-26.2 3.2-10.8 3.25-10.8 7.8t10.8 7.75q10.85 3.25 26.2 3.25t26.15-3.25q10.85-3.2 10.85-7.75t-10.85-7.8q-10.8-3.2-26.15-3.2z" id="N"/><path fill="url(#b)" d="M163.1 791.95l106.05-43.15-220.4-100.25-93.6 25.7 207.95 117.7z" id="O"/><path fill="#BBB183" d="M216.85 244.35q-3.6-.2-6 2.25-2.75 2.8-2.75 8v1.4q.15 1.9.8 3.5 2 5.25 7.95 5.25 5 0 7.25-3.95 1.5-2.65 1.5-6.05 0-4.55-2.75-7.5-2.5-2.65-6-2.9z" id="P"/><path fill="#BBB183" d="M251.65 242.55q1.95-2.55 1.95-5.3 0-3.75-2.75-6.2-2.5-2.25-6-2.5-3.6-.25-6 1.8-2.75 2.35-2.75 6.75l.1 1.2q.25 1.65.9 3 2.15 4.45 7.75 4.45 4.25 0 6.8-3.2z" id="Q"/><path fill="#E9DDA3" d="M328.2 436.6l.15 1.25q.5 1.7 1.75 3.15 4.15 4.85 15 4.85 8.25 0 13.15-3.5 3.8-2.75 3.8-5.65 0-4.05-5.35-6.7-4.8-2.4-11.6-2.6-6.95-.3-11.6 1.9-5.3 2.55-5.3 7.3z" id="R"/><path fill="#BBB183" d="M657.85 375.35q-3.6-.2-6 1.85-2.75 2.35-2.75 6.8l.1 1.15q.25 1.6.9 2.95 2.15 4.5 7.75 4.5 4.25 0 6.8-3.2 1.95-2.55 1.95-5.3 0-3.75-2.75-6.2-2.5-2.3-6-2.55z" id="S"/><path fill="#E9DDA3" d="M328.2 436.6l.15 1.25q.5 1.7 1.75 3.15 4.15 4.85 15 4.85 8.25 0 13.15-3.5 3.8-2.75 3.8-5.65 0-4.05-5.35-6.7-4.8-2.4-11.6-2.6-6.95-.3-11.6 1.9-5.3 2.55-5.3 7.3z" id="T"/><path fill="#BBB183" d="M491.85 335.6q1.4 0 2.55-.95 1.2-1.05 1.2-2.65 0-3.8-3.75-3.8t-3.75 3.9q0 1.35.3 1.9.75 1.6 3.45 1.6z" id="U"/><path fill-opacity=".149" d="M838.95 351.95q-15.35 0-26.2 3.2-10.8 3.25-10.8 7.8t10.8 7.75q10.85 3.25 26.2 3.25t26.15-3.25q10.85-3.2 10.85-7.75t-10.85-7.8q-10.8-3.2-26.15-3.2z" id="V"/><path fill="#FFF" d="M105.75 268.2q2.8 2.8 6.75 2.8h13q3.95 0 6.7-2.8 2.8-2.75 2.8-6.7t-2.8-6.75q-2.75-2.75-6.7-2.75h-13q-3.95 0-6.75 2.75-2.75 2.8-2.75 6.75t2.75 6.7z" id="W"/><path fill="#FFF" d="M105.75 268.2q2.8 2.8 6.75 2.8h13q3.95 0 6.7-2.8 2.8-2.75 2.8-6.7t-2.8-6.75q-2.75-2.75-6.7-2.75h-13q-3.95 0-6.75 2.75-2.75 2.8-2.75 6.75t2.75 6.7z" id="X"/><path fill="#FFF" d="M105.75 268.2q2.8 2.8 6.75 2.8h13q3.95 0 6.7-2.8 2.8-2.75 2.8-6.7t-2.8-6.75q-2.75-2.75-6.7-2.75h-13q-3.95 0-6.75 2.75-2.75 2.8-2.75 6.75t2.75 6.7z" id="Y"/><path fill="#FFF" d="M199.2 47.5q-.1-2.9-2.65-3.15-.35-.1-.6-.05L54.8 43.8q-4.45 0-4.35 3.8L52.3 151q0 3.4 3.7 3.4h.85l141.75-16.6q3.2-.35.1-3.6l.5-86.7z" id="Z"/><path fill="#C00" d="M191.95 127.95v-17l-134.95 8v22l134.95-13z" id="aa"/><path fill="#C00" d="M190.8 59.85l.1-18-135.3.25-.15 22.15 135.35-4.4z" id="ab"/><path fill="#C00" d="M176.5 91.6V84l7.4-.25v-3.9l-11.7.4v27.3l11.7-.4v-3.9l-7.4.25v-8l5.9-.2v-3.9l-5.9.2m-8.4-9.75q-1.6-1.7-4.7-1.65-3.15.15-4.75 1.95-1.6 1.85-1.6 5.15 0 1.55.45 2.9.4 1.35 1.45 2.65 1.05 1.35 2.85 2.85 2.05 1.75 2.9 3.05.8 1.35.75 2.8 0 1.45-.6 2.05-.6.65-1.6.65-1.05.05-1.65-.55-.6-.55-.6-2v-2l-4.05.1v1.7q0 3.3 1.6 5.05 1.65 1.7 4.8 1.6 3.15-.1 4.75-1.9 1.65-1.85 1.65-5.15 0-1.55-.45-2.9-.4-1.35-1.45-2.65-1.05-1.35-2.85-2.85-2.05-1.75-2.9-3.05-.8-1.3-.75-2.8 0-1.45.55-2.05.55-.65 1.6-.7 1-.05 1.6.6.55.6.55 2.05v1.15l4.05-.15v-.85q0-3.3-1.6-5.05M146.85 92.8v3.9l7.8-.25v-3.9l-7.8.25m-9.85.1v-7.6l7.4-.25v-3.9l-11.7.4v27.3l11.7-.4v-3.9l-7.4.25v-8l5.9-.2v-3.9l-5.9.2m-8.6-9.45q-1.6-1.7-4.8-1.6l-6.8.25v27.3l6.8-.25q3.2-.1 4.8-1.9 1.6-1.75 1.6-5.05V88.4q0-3.3-1.6-4.95m-3.25 2.85q.55.6.55 2.05v14.2q0 1.45-.55 2.05-.6.65-1.65.7l-2.4.05v-19.5l2.4-.05q1.05-.05 1.65.5M104 90h.05l5.25 19.65 4.45-.15V82.2l-3.85.1v16.35l-.05.05-4.35-16.25-5.4.2v27.3l3.9-.15V90m-13.9 4.45v-7.6l7.4-.25v-3.9l-11.7.4v27.3l11.7-.4v-3.9l-7.4.25v-8l5.9-.2v-3.9l-5.9.2m-16.8-10.9l-4.3.15 4.2 27.15 6.4-.2 4.2-27.45-3.95.1-3.25 22.4h-.05L73.3 83.55z" id="ac"/><path id="f" stroke="#8CA8B8" stroke-linejoin="round" stroke-linecap="round" fill="none" d="M80 214.75q0 1.75-2.85 3t-6.9 1.25q-4.05 0-6.9-1.25-2.85-1.25-2.85-3t2.85-3q2.85-1.25 6.9-1.25 4.05 0 6.9 1.25 2.85 1.25 2.85 3z"/><path id="h" stroke="#8CA8B8" stroke-linejoin="round" stroke-linecap="round" fill="none" d="M-121.15 67.475l-1.45.075"/></defs><g transform="translate(-15.45 -10)"><mask id="d"><use xlink:href="#c"/></mask><g mask="url(#d)"><g><use xlink:href="#e"/><use xlink:href="#f"/></g><g transform="matrix(.60352 0 0 .60352 282.1 -1.5)"><use xlink:href="#g"/><use xlink:href="#h"/></g><use xlink:href="#i" transform="matrix(.56434 0 0 .3143 214.9 87.187)"/><use xlink:href="#j" transform="matrix(.56434 0 0 .3143 214.9 87.187)"/><use xlink:href="#k" transform="matrix(.56434 0 0 .3143 214.9 87.187)"/><use xlink:href="#l" transform="matrix(.56434 0 0 .3143 214.9 87.187)"/><use xlink:href="#m" transform="matrix(.56434 0 0 .3143 214.9 87.187)"/><use xlink:href="#n" transform="matrix(.56434 0 0 .3143 214.9 87.187)"/><use xlink:href="#o" transform="matrix(.56434 0 0 .3143 214.9 87.187)"/><use xlink:href="#p" transform="matrix(.56434 0 0 .3143 214.9 87.187)"/><use xlink:href="#q" transform="matrix(.56434 0 0 .3143 214.9 87.187)"/><use xlink:href="#r" transform="matrix(.56434 0 0 .3143 214.9 87.187)"/><use xlink:href="#s" transform="matrix(.56434 0 0 .3143 214.9 87.187)"/><use xlink:href="#t" transform="matrix(.56434 0 0 .3143 214.9 87.187)"/><use xlink:href="#u" transform="matrix(.56434 0 0 .3143 214.9 87.187)"/><use xlink:href="#v" transform="matrix(.56434 0 0 .5721 214.9 14.825)"/><use xlink:href="#w" transform="matrix(.56434 0 0 .5721 214.9 14.825)"/><use xlink:href="#x" transform="matrix(.56434 0 0 .5721 214.9 14.825)"/><use xlink:href="#y" transform="matrix(.56434 0 0 .5721 214.9 14.825)"/><use xlink:href="#z" transform="matrix(.60352 0 0 .60352 204.307 -18.7)"/><use xlink:href="#A" transform="matrix(1.4735 0 0 .82064 -266.254 -33.335)"/><use xlink:href="#B" transform="matrix(1.78453 0 0 .99386 -413.39 -87.14)"/><use xlink:href="#C" transform="matrix(.60352 0 0 .60352 197.668 -36.806)"/><use xlink:href="#D" transform="matrix(.60352 0 0 .60352 204.307 -18.7)"/><use xlink:href="#E" transform="matrix(.60352 0 0 .60352 204.307 -18.7)"/><use xlink:href="#F" transform="matrix(.60352 0 0 .60352 204.307 -18.7)"/><use xlink:href="#G" transform="matrix(.60352 0 0 .60352 204.307 -18.7)"/><use xlink:href="#H" transform="matrix(.60352 0 0 .60352 204.307 -18.7)"/><use xlink:href="#I" transform="matrix(.60352 0 0 .60352 204.307 -18.7)"/><use xlink:href="#J" transform="matrix(.60352 0 0 .60352 204.307 -18.7)"/><use xlink:href="#K" transform="matrix(.56434 0 0 .3143 -113.867 92.588)"/><use xlink:href="#L" transform="matrix(.60352 0 0 .60352 41.87 -29.865)"/><use xlink:href="#M" transform="matrix(1.78453 0 0 .99386 -610.65 -87.08)"/><use xlink:href="#N" transform="matrix(.60352 0 0 .60352 80.073 52.877)"/><use xlink:href="#O" transform="matrix(.60352 0 0 .60352 282.1 -1.5)"/><use xlink:href="#P" transform="matrix(.56434 0 0 .3143 -18.994 167.937)"/><use xlink:href="#Q" transform="matrix(.56434 0 0 .3143 -18.994 167.937)"/><use xlink:href="#R" transform="matrix(.60352 0 0 .60352 -178.624 135.92)"/><use xlink:href="#S" transform="matrix(.56434 0 0 .3143 -347.76 173.338)"/><use xlink:href="#T" transform="matrix(.60352 0 0 .60352 -192.022 50.885)"/><use xlink:href="#U" transform="matrix(1.78453 0 0 .99386 -844.543 -6.328)"/><use xlink:href="#V" transform="matrix(.60352 0 0 .60352 -397.217 198.445)"/><g transform="matrix(.32813 0 0 .32813 281.7 323.6)"><use xlink:href="#W"/></g><g transform="matrix(.16927 0 0 .16927 306.25 372.25)"><use xlink:href="#X"/></g><g transform="matrix(.11642 0 0 .11642 304.25 393.05)"><use xlink:href="#Y"/></g><g><use xlink:href="#Z"/></g><g transform="translate(3 7)"><use xlink:href="#aa"/></g><g transform="translate(3 7)"><use xlink:href="#ab"/></g><g><use xlink:href="#ac"/></g></g></g></svg>