<svg xmlns="http://www.w3.org/2000/svg" xmlns:xlink="http://www.w3.org/1999/xlink" preserveAspectRatio="none" width="672" height="547" viewBox="0 0 672 547"><defs><linearGradient id="a" gradientUnits="userSpaceOnUse" x1="1047.963" y1="316.1" x2="195.537" y2="316.1"><stop offset="54.902%" stop-color="#8CA3BA"/><stop offset="100%" stop-color="#FFF"/></linearGradient><linearGradient id="b" gradientUnits="userSpaceOnUse" x1="1048.013" y1="181.25" x2="159.987" y2="181.25"><stop offset="0%" stop-color="#002C58"/><stop offset="100%" stop-color="#FFF"/></linearGradient><linearGradient id="c" gradientUnits="userSpaceOnUse" x1="-6.262" y1="23.837" x2="-16.637" y2="-.838"><stop offset="0%" stop-color="#715B89"/><stop offset="100%" stop-color="#9A7891"/></linearGradient><linearGradient id="d" gradientUnits="userSpaceOnUse" x1="1.75" y1="24" x2="1.75" y2="2.5"><stop offset="0%" stop-color="#715B89"/><stop offset="100%" stop-color="#9A7891"/></linearGradient><linearGradient id="e" gradientUnits="userSpaceOnUse" x1="-50.925" y1="24.125" x2="-53.175" y2="-.325"><stop offset="0%" stop-color="#745D89"/><stop offset="100%" stop-color="#FFFEFF"/></linearGradient><linearGradient id="f" gradientUnits="userSpaceOnUse" x1="-40.6" y1="24.6" x2="-47.9" y2="7.4"><stop offset="0%" stop-color="#715B89"/><stop offset="100%" stop-color="#9A7891"/></linearGradient><linearGradient id="g" gradientUnits="userSpaceOnUse" x1="-19.475" y1="23.038" x2="-28.325" y2="2.063"><stop offset="0%" stop-color="#715B89"/><stop offset="100%" stop-color="#9A7891"/></linearGradient><linearGradient id="h" gradientUnits="userSpaceOnUse" x1="-20.887" y1="24.1" x2="-23.213" y2="-2.2"><stop offset="0%" stop-color="#745D89"/><stop offset="100%" stop-color="#FFFEFF"/></linearGradient><linearGradient id="i" gradientUnits="userSpaceOnUse" x1="-31.538" y1="23.975" x2="-34.462" y2="-7.875"><stop offset="0%" stop-color="#745D89"/><stop offset="100%" stop-color="#FFFEFF"/></linearGradient><linearGradient id="j" gradientUnits="userSpaceOnUse" x1="-63" y1="24" x2="-63" y2="-11.5"><stop offset="0%" stop-color="#715B89"/><stop offset="100%" stop-color="#9A7891"/></linearGradient><linearGradient id="k" gradientUnits="userSpaceOnUse" x1="46.688" y1="18.387" x2="73.013" y2="-14.588"><stop offset="0%" stop-color="#715B89"/><stop offset="100%" stop-color="#9A7891"/></linearGradient><linearGradient id="l" gradientUnits="userSpaceOnUse" x1="65.938" y1="24.35" x2="61.263" y2="-24.15"><stop offset="0%" stop-color="#745D89"/><stop offset="100%" stop-color="#FFFEFF"/></linearGradient><linearGradient id="m" gradientUnits="userSpaceOnUse" x1="47.688" y1="24.025" x2="43.013" y2="-24.425"><stop offset="0%" stop-color="#745D89"/><stop offset="100%" stop-color="#FFFEFF"/></linearGradient><linearGradient id="n" gradientUnits="userSpaceOnUse" x1="25.5" y1="24" x2="25.5" y2="-5"><stop offset="0%" stop-color="#715B89"/><stop offset="100%" stop-color="#9A7891"/></linearGradient><linearGradient id="o" gradientUnits="userSpaceOnUse" x1="31.213" y1="24.837" x2="27.988" y2="-8.638"><stop offset="0%" stop-color="#745D89"/><stop offset="100%" stop-color="#FFFEFF"/></linearGradient><linearGradient id="p" gradientUnits="userSpaceOnUse" x1="14.75" y1="24" x2="14.75" y2="-21.5"><stop offset="0%" stop-color="#715B89"/><stop offset="100%" stop-color="#9A7891"/></linearGradient><linearGradient id="q" gradientUnits="userSpaceOnUse" x1="120.238" y1="33.837" x2="621.362" y2="534.962"><stop offset="3.922%" stop-color="#25254A"/><stop offset="67.059%" stop-color="#44448A"/></linearGradient><linearGradient id="r" gradientUnits="userSpaceOnUse" x1="277" y1="289.875" x2="277" y2="415.825"><stop offset="3.922%" stop-color="#0B0B0B"/><stop offset="67.059%" stop-color="#333"/></linearGradient><linearGradient id="s" gradientUnits="userSpaceOnUse" x1="18.5" y1="111.8" x2="100.5" y2="111.8"><stop offset="0%" stop-color="#960"/><stop offset="97.647%" stop-color="#CDB482"/></linearGradient><linearGradient id="t" gradientUnits="userSpaceOnUse" x1="18.5" y1="111.8" x2="100.5" y2="111.8"><stop offset="0%" stop-color="#5B3C00"/><stop offset="97.647%" stop-color="#62563E"/></linearGradient><linearGradient id="u" gradientUnits="userSpaceOnUse" x1="18.5" y1="111.8" x2="100.5" y2="111.8"><stop offset="0%" stop-color="#960"/><stop offset="97.647%" stop-color="#483F2D"/></linearGradient><filter id="x" x="-20%" y="-20%" width="140%" height="140%" color-interpolation-filters="sRGB"><feGaussianBlur in="SourceGraphic" stdDeviation="4.666666666666667,4.666666666666667" result="result1"/></filter><filter id="A" x="-20%" y="-20%" width="140%" height="140%" color-interpolation-filters="sRGB"><feColorMatrix in="SourceGraphic" values="0.33 0 0 0 0 0 0.33 0 0 0.26666666666666666 0 0 0.33 0 0.403921568627451 0 0 0 1 0" result="result1"/></filter><filter id="U" x="-20%" y="-20%" width="140%" height="140%" color-interpolation-filters="sRGB"><feFlood flood-color="#CCC" flood-opacity="1" result="result1"/><feGaussianBlur in="SourceGraphic" stdDeviation="0,0" result="result2"/><feComposite in2="result2" in="result1" operator="in" result="result3"/><feComposite in2="result3" in="SourceGraphic" result="result4"/></filter><filter id="al" x="-20%" y="-20%" width="140%" height="140%" color-interpolation-filters="sRGB"><feColorMatrix in="SourceGraphic" values="0 0 0 0 0.4 0 0 0 0 0 0 0 0 0 0 0 0 0 1 0" result="result1"/></filter><path fill="#FFF" d="M672.75 67.1q0-20.35-14.4-34.75Q644 18 623.65 18H77.1q-20.35 0-34.75 14.35Q28 46.75 28 67.1v430.6q0 20.35 14.35 34.7 14.4 14.4 34.75 14.4h546.55q20.35 0 34.7-14.4 14.4-14.35 14.4-34.7V67.1z" id="v"/><g id="y"><path fill="url(#a)" d="M707.7 251.55q-26.35 4.6-37.55 4.6-17.5 0-22.3-1.45-3.65-1.15-6.2-3.15-6.25-5.05-6.25-15.45 0-1.95 1.55-15.85t1.55-15.85q0-17.2-21.55-22.4-12.95-3.05-50.25-3.05-45.6 0-109.05 8.4-62.1 8.25-114.15 20.95-34.65 8.45-117.55 21.3-14.25 2.25-30.5 4.65v25h-1.3l.9 103q-.65-8.5-3.55 83.95-2.7 84.05 41.55-5.95H837.9V406.3v33.95h210.05v-257.3q-60.05 7.1-186.25 35.35-100.55 22.55-117.15 26.05-21.15 4.4-36.85 7.2z"/><path fill="url(#b)" d="M1047.95 182.95v-65.8h-852.5v117.1q16.25-2.4 30.5-4.65 82.9-12.85 117.55-21.3 52.05-12.7 114.15-20.95 63.45-8.4 109.05-8.4 37.3 0 50.25 3.05 21.55 5.2 21.55 22.4 0 1.95-1.55 15.85t-1.55 15.85q0 10.4 6.25 15.45 2.55 2 6.2 3.15 4.8 1.45 22.3 1.45 11.2 0 37.55-4.6 15.7-2.8 36.85-7.2 16.6-3.5 117.15-26.05 126.2-28.25 186.25-35.35z"/></g><path d="M193.95 114h-4v41h4v-41z" id="B"/><path d="M193.95 114h-4v41h4v-41z" id="C"/><path d="M196.65 93q-3.85-2.2-9.9 1.9-6 4.15-10.65 12.25-4.65 8.05-5.25 15.3-.55 7.3 3.3 9.5 3.85 2.25 9.9-1.9 6.05-4.1 10.7-12.15 4.65-8.1 5.2-15.4.55-7.25-3.3-9.5z" id="D"/><path d="M108.5 52.45H53.3V250.4h55.2V52.45z" id="E"/><path fill="#333" d="M160.45 325.3h99.05V151.4h-99.05v173.9z" id="F"/><path d="M152.05 112.45h-33.3v181.7h33.3v-181.7z" id="G"/><path fill="#FFF" d="M174.45 123.5V111h-12.5v12.5h12.5z" id="H"/><path fill="#FFF" d="M174.45 123.5V111h-12.5v12.5h12.5z" id="I"/><path fill="#FFF" d="M174.45 123.5V111h-12.5v12.5h12.5z" id="J"/><path fill="#FFF" d="M174.45 123.5V111h-12.5v12.5h12.5z" id="K"/><path fill="#FFF" d="M174.45 123.5V111h-12.5v12.5h12.5z" id="L"/><path fill="#FFF" d="M174.45 123.5V111h-12.5v12.5h12.5z" id="M"/><path fill="#FFF" d="M174.45 123.5V111h-12.5v12.5h12.5z" id="N"/><path fill="#FFF" d="M174.45 123.5V111h-12.5v12.5h12.5z" id="O"/><path fill="#FFF" d="M174.45 123.5V111h-12.5v12.5h12.5z" id="P"/><path fill="#003" d="M31.5 0l2 21-8.35 11.8-8.35-11.95L18.75 0h-3L0 168.75l3.6-6.35 5.6-59.8 14.7 24.1-20.3 35.7-.6 6.35 22.45-39.5L47.25 165l-.55-5.8-19.8-32.5 14.25-25.25 5.55 57.75 3.55 5.8-6.4-66.65h-.9l.8-1.45L34.5 0h-3m-4.85 34.9l7.2-10.15 2.3 23.7-9.5-13.55m-3 0l-9.4 13.3 2.2-23.6 7.2 10.3m3.1 37.7l10.2-15.25L40.4 93.1 26.75 72.6m8.55-17.25l-.05.05-10 14.95-10.05-15.2-.05-.05 20.15.25m1.3-1.95l-.65 1-.75-1-20-.25-.7.95-.55-.8-.1-.2h-.05v-.05l11.35-16 11.45 16.3v.05m3.35 44.95l-.15.3-.2-.3H10.95l-.7 1.05-.65-1.05 15.65-23.5L40.4 97.6l.35-.7.1 1.45h-.9M23.75 72.6L10.1 93.1l3.35-36.05 10.3 15.55m1.55 51.55l-14.45-23.8H38.8l-13.5 23.8z" id="Q"/><path d="M196.65 93q-3.85-2.2-9.9 1.9-6 4.15-10.65 12.25-4.65 8.05-5.25 15.3-.55 7.3 3.3 9.5 3.85 2.25 9.9-1.9 6.05-4.1 10.7-12.15 4.65-8.1 5.2-15.4.55-7.25-3.3-9.5z" id="R"/><path d="M193.95 114h-4v41h4v-41z" id="S"/><path d="M196.65 93q-3.85-2.2-9.9 1.9-6 4.15-10.65 12.25-4.65 8.05-5.25 15.3-.55 7.3 3.3 9.5 3.85 2.25 9.9-1.9 6.05-4.1 10.7-12.15 4.65-8.1 5.2-15.4.55-7.25-3.3-9.5z" id="T"/><g id="V"><path fill="url(#c)" d="M-6.75-1.45l-9.5.45v25h9.5V-1.45z"/><path fill="url(#d)" d="M-51.25 2.5h-5.5V24h5.5V2.5M-33.75-8h-7.5V8h2v16h5.1l.4-32m41.5 32V2.5h-12V24h12z"/><path fill="url(#e)" d="M-49.25 8V0h-7.5v2.5h5.5V24h2V8z"/><path fill="url(#f)" d="M-39.25 24V8h-10v16h10z"/><path fill="#C29EAA" d="M-31.75 8.7V24h6V9.7l-6-1z"/><path fill="url(#g)" d="M-21.75 1.45l-4-.45v23h4V1.45z"/><path fill="url(#h)" d="M-20.25-2h-5.5v3l4 .45V24h1.5V-2z"/><path fill="url(#i)" d="M-31.75-8h-2l-.4 32h2.4V-8z"/><path fill="url(#j)" d="M-56.75-11.5h-12.5V24h11.5V2.5h1v-14m-6.5 4l2 .05v1.95l-2-.2v-1.8m-4 5.8v-1.8l2 .05v1.95l-2-.2m4 0v-1.8l2 .05v1.95l-2-.2m-2-3.8l-2-.2v-1.8l2 .05v1.95m4 8l-2-.2V.5l2 .05V2.5m-2 2l2 .05V6.5l-2-.2V4.5m-2-3.95V2.5l-2-.2V.5l2 .05m-2 10.25V9l2 .05V11l-2-.2m6 .2l-2-.2V9l2 .05V11m-6-4.7V4.5l2 .05V6.5l-2-.2z"/><path fill="#9C9" d="M-67.25 4.5v1.8l2 .2V4.55l-2-.05m4 6.3l2 .2V9.05l-2-.05v1.8m-4-1.8v1.8l2 .2V9.05l-2-.05m2-6.5V.55l-2-.05v1.8l2 .2m4 2.05l-2-.05v1.8l2 .2V4.55m-2-2.25l2 .2V.55l-2-.05v1.8m-4-8l2 .2v-1.95l-2-.05v1.8m4 2.2v1.8l2 .2v-1.95l-2-.05m-4 0v1.8l2 .2v-1.95l-2-.05m6-3.95l-2-.05v1.8l2 .2v-1.95m75.5 2.25l2 .2v-1.95l-2-.05v1.8M30.95 13v1.8l2 .2v-1.95l-2-.05m-10.5 2v-1.95l-2-.05v1.8l2 .2m4-1.95l-2-.05v1.8l2 .2v-1.95m4.5 0l-2-.05v1.8l2 .2v-1.95m-8.5-6.55V4.55l-2-.05v1.8l2 .2m8.5 4V8.55l-2-.05v1.8l2 .2m-6.5-.2l2 .2V8.55l-2-.05v1.8m-2 .2V8.55l-2-.05v1.8l2 .2m0-8V.55l-2-.05v1.8l2 .2m2-.2l2 .2V.55l-2-.05v1.8m2 2.25l-2-.05v1.8l2 .2V4.55m4.5 0l-2-.05v1.8l2 .2V4.55m-2-4.05v1.8l2 .2V.55l-2-.05m6 10V8.55l-2-.05v1.8l2 .2m0-5.95l-2-.05v1.8l2 .2V4.55m0-2.05V.55l-2-.05v1.8l2 .2m-2-6v1.8l2 .2v-1.95l-2-.05m-4 0v1.8l2 .2v-1.95l-2-.05m-4.5 1.8l2 .2v-1.95l-2-.05v1.8m-4-1.8v1.8l2 .2v-1.95l-2-.05m-4.2 1v1.8l2 .2v-1.95l-2-.05m-4 0v1.8l2 .2v-1.95l-2-.05m0-8.5v1.8l2 .2v-1.95l-2-.05m2 4.05l-2-.05v1.8l2 .2v-1.95m4-2.05v-1.95l-2-.05v1.8l2 .2m-2-10v1.8l2 .2v-1.95l-2-.05m-4 4v1.8l2 .2v-1.95l-2-.05m4 0v1.8l2 .2v-1.95l-2-.05m-2-3.95l-2-.05v1.8l2 .2v-1.95z"/><path fill="url(#k)" d="M66.25-20l-12.5-.45V24h12.5v-44z"/><path fill="url(#l)" d="M69.25-23.5h-15.5v3.05l12.5.45v44h3v-47.5z"/><path fill="#85608C" d="M38.25-7.5h2V24h5.5v-43.5l-7.5-.5v12.5z"/><path fill="url(#m)" d="M38.25-24v4l7.5.5V24h2.5v-48h-10z"/><path fill="url(#n)" d="M16.25-5v29h18.5V-5h-18.5m2.2 3.3v-1.8l2 .05v1.95l-2-.2m6 .2l-2-.2v-1.8l2 .05v1.95m2.5-.2v-1.8l2 .05v1.95l-2-.2m4 0v-1.8l2 .05v1.95l-2-.2m2 2.25V2.5l-2-.2V.5l2 .05m-2 3.95l2 .05V6.5l-2-.2V4.5m2 4.05v1.95l-2-.2V8.5l2 .05m-6-6.25V.5l2 .05V2.5l-2-.2m0 2.2l2 .05V6.5l-2-.2V4.5m-4.5 0l2 .05V6.5l-2-.2V4.5m2-2l-2-.2V.5l2 .05V2.5m-4-1.95V2.5l-2-.2V.5l2 .05m0 8v1.95l-2-.2V8.5l2 .05m4 1.95l-2-.2V8.5l2 .05v1.95m4.5-1.95v1.95l-2-.2V8.5l2 .05m-8.5-4V6.5l-2-.2V4.5l2 .05m6.5 8.45l2 .05V15l-2-.2V13m-4.5 0l2 .05V15l-2-.2V13m-2 .05V15l-2-.2V13l2 .05m10.5 1.75V13l2 .05V15l-2-.2z"/><path fill="url(#o)" d="M16.25-7.5V-5h18.5v29h5.5V-7.5h-24z"/><path fill="url(#p)" d="M16.25-6.95v-.55h5.5v-14h-14V24h8.5V-.5l-2-.2v-1.8l2 .05V-5l-2-.2V-7l2 .05m-6-12.05l2 .05V-17l-2-.2V-19m4 5.8V-15l2 .05V-13l-2-.2m-4 0V-15l2 .05V-13l-2-.2m4-4V-19l2 .05V-17l-2-.2m2 6.25V-9l-2-.2V-11l2 .05m-6 3.95l2 .05V-5l-2-.2V-7m0-2.2V-11l2 .05V-9l-2-.2m0 8.5v-1.8l2 .05V-.5l-2-.2z"/></g><g id="W"><path fill="#4D4D9C" d="M479.7 209.8l-32.5 25.6 47.85 19.75h-96l55.8 15.6-27.85 13.9 49.45 10.8L433.2 314l111.2-7.7-33.95-13.9 57.15-20.1-46.35-20.1 66.4-13.9-78.75-13.9 38.6-14.6h-67.8z"/><path fill="#5858B1" d="M447.2 235.4l32.5-25.6H335.95l54.1 10.2-37.1 11.3 38.65 6.1-23.2 9.2 25.95 8.55h100.7L447.2 235.4z"/><path fill="url(#q)" d="M797.7 358.7V209.8H547.5l-38.6 14.6 78.75 13.9-66.4 13.9 46.35 20.1-57.15 20.1 33.95 13.9-111.2 7.7 43.25-18.55-49.45-10.8 27.85-13.9-55.8-15.6h-4.7l-25.95-8.55 23.2-9.2-38.65-6.1 37.1-11.3-54.1-10.2H-54.7q-.85.35-1.65.55V358.7H797.7z"/></g><g id="X"><path fill="#666" d="M1224.1 358.7V317H-250.25v41.7H1224.1z"/><path fill="#CCC" d="M1224.1 317v-11.05H-250.25V317H1224.1z"/></g><path fill="url(#r)" d="M573.95 415.85V289.9H-20v125.95h593.95z" id="Y"/><g id="Z"><path fill="#CCC" d="M1224.1 383.35V341.5H-250.25v41.85H1224.1z"/><path fill="#666" d="M1224.1 394.25v-10.9H-250.25v10.9H1224.1z"/></g><path fill="#630" d="M-130.65 39.35Q-139.3 37-151.5 37q-12.2 0-20.85 2.35Q-181 41.7-181 45q0 3.3 8.65 5.65Q-163.7 53-151.5 53q12.2 0 20.85-2.35Q-122 48.3-122 45q0-3.3-8.65-5.65z" id="aa"/><g id="ab"><path fill="url(#s)" d="M39.5 166.2q-.55 10.25-3.65 15.6-3 5.25-6.55 8.35-9.3 8.05-10.8 12.05h5q.35-.05 6.2-1.4 1.2-.3 2.7-.65 8.1-1.95 11.1-1.95 3.12 0 5.35 2.05 1.402 1.315 2.45 3.45 1.102 2.27 1.8 3.55.42.696.7 1.1 1.35 1.85 3.25 3.05-1.193-2.093-2-4.15-1.06-2.86-1.35-5.65-.2-2.1-.2-17.4 0-17.33.65-34.1l-13-2.6q-1.502 16.474-1.65 18.7M81 84.9q.157-.11.3-.25l-5.35-14.2q-.837-1.763-1.5-4.35-1.267-4.813-1.9-12.5-.254-3.29-.4-7.15-.195-5.114-.2-10.95L65.2 33q-1.47 6.983-2.6 15.75-1.6 14.05-2.35 20.5-.584 5.077-1.2 9-.75 4.838-1.55 7.95l-9 6q-.774-.74-1.55-1.5-.067-.046-.15-.15-.753-.705-1.5-1.45-1.29-1.246-2.55-2.5l-10.5 6.6q.99 2.465 1.85 4.75 7.72 19.58 8.35 27.45l12.95 3.15q1.226-14.477 3.1-21.35 1.573-5.558 11.95-14.25 4.45-3.72 10.5-8.05H81z"/><path fill="#5E4A23" d="M55.4 128.55l-12.95-3.15q.05.696.05 1.3 0 6.35-1.3 20.45-.016.178-.05.35l13 2.6q.022-.704.05-1.4.488-11.444 1.2-20.15M65.2 33l6.75 2.5q-.03-10.5.55-23.3-3.746 5.878-6.5 17.1-.396 1.79-.8 3.7z"/><path fill="url(#t)" d="M32.2 75.7q-7.45-8.05-13.7-13.5 5.317 10.588 11.95 26.7.634 1.488 1.25 3 .276.673.55 1.3l10.5-6.6q-5.584-5.534-10.55-10.9z"/><path fill="url(#u)" d="M81.3 84.65q12.31-8.66 13.2-9.35 6-4.6 6-6.6v-1.5q-.85.95-7.75 3.75Q84.8 74.2 80.5 74.2q-1.49 0-2.75-1.15-.956-.93-1.8-2.6l5.35 14.2z"/></g><path fill="#9C0" d="M-163.9-79.15Q-170.75-86-180.5-86q-9.75 0-16.65 6.85-6.85 6.9-6.85 16.65 0 9.75 6.85 16.6 6.9 6.9 16.65 6.9 9.75 0 16.6-6.9 6.9-6.85 6.9-16.6 0-9.75-6.9-16.65z" id="ac"/><path fill="#690" d="M79.5 118.7q0-9.75-6.9-16.65Q65.75 95.2 56 95.2q-9.75 0-16.65 6.85-6.85 6.9-6.85 16.65 0 9.75 6.85 16.6 6.9 6.9 16.65 6.9 9.75 0 16.6-6.9 6.9-6.85 6.9-16.6z" id="ad"/><path fill="#9C0" d="M6.85 50.05Q0 56.95 0 66.7q0 9.75 6.85 16.6 6.9 6.9 16.65 6.9 9.75 0 16.6-6.9Q47 76.45 47 66.7q0-9.75-6.9-16.65-6.85-6.85-16.6-6.85-9.75 0-16.65 6.85z" id="ae"/><path fill="#660" d="M86.85 25.05Q91.2 20.8 91.2 14.7T86.85 4.3Q82.6 0 76.5 0T66.1 4.3q-4.3 4.3-4.3 10.4 0 6.1 4.3 10.35 4.3 4.35 10.4 4.35 6.1 0 10.35-4.35z" id="af"/><path fill="#9C0" d="M6.85 50.05Q0 56.95 0 66.7q0 9.75 6.85 16.6 6.9 6.9 16.65 6.9 9.75 0 16.6-6.9Q47 76.45 47 66.7q0-9.75-6.9-16.65-6.85-6.85-16.6-6.85-9.75 0-16.65 6.85z" id="ag"/><path fill="#630" d="M-130.65 39.35Q-139.3 37-151.5 37q-12.2 0-20.85 2.35Q-181 41.7-181 45q0 3.3 8.65 5.65Q-163.7 53-151.5 53q12.2 0 20.85-2.35Q-122 48.3-122 45q0-3.3-8.65-5.65z" id="ah"/><g id="ai"><path fill="#4F7700" d="M251.05 233.65q0-.607.05-1.2-1.4-1-2.25-2.65-.85.4-1.6 1.1-2.395 2.146-2.4 5.85.012-.388.75 3.5.85 1.95 2.4 3-.05.643-.05 1.2.012-.34.75 3.5 1.85 4.25 6.95 4.25 4 0 6.2-3.05 1.55-2.25 1.55-4.65 0-2.25-.85-3.95-1.65.85-3.8.85-5.1 0-6.95-4.25-.738-3.888-.75-3.5m7.7-29.3q0-1.004.25-1.95-.15.25-.35.4-2.15 3.1-6.1 3.1-4.85 0-6.8-3.9-.85.4-1.6 1.1-2.4 2.15-2.4 5.85 0-.45.8 3.5 1.85 4.25 6.95 4.25 2.05 0 3.6-.85-.55-2.55-.55-2.25 0-3.7 2.4-5.85 1.8-1.55 4.2-1.85-.394-1.82-.4-1.55m15.45 5.7v-.55q0-1.2-.45-2.45-.5.9-1.2 1.9-1.75 2.55-4.6 3.05.05.75.05 1.6 0 2.4-1.55 4.65-1.7 2.4-4.45 2.95 1.4 1.9 1.4 4.75 0 .65-.1 1.25l.8.6.05.1q.8-1.7.8-3.5 0-.85-.1-1.6 2.85-.45 4.65-3 1-1.4 1.35-2.8 1.05-.75 1.8-1.85 1.55-2.25 1.55-4.65v-.45M184.6 192q-.15 1.45.8 3.45 1.85 4.25 6.95 4.25 4 0 6.15-3.1 1.25-1.75 1.5-3.6 1.3-.55 2.35-1.55 2.2 2.1 6.2 2.1h.75q-.15 1.45.8 3.45 1.85 4.25 6.95 4.25 3.95 0 6.1-3.1.45-.6.75-1.2.1 0 .1.05 1.85 4.25 6.95 4.25 3.95 0 6.1-3.1.6-.85 1-1.75 1 .2 2.15.2 1.7 0 3.1-.5.15 1.05.8 2.45.5 1.15 1.35 2.1-.6-2.85-.6-2.5 0-3.7 2.4-5.85 1.05-1 2.45-1.45-1.6-1.1-2.55-3.1-.6-1.4-.75-2.5-1.4.55-3.1.55-1.15 0-2.15-.25-.4.95-1 1.8-2.2 3.1-6.1 3.1-5.1 0-6.95-4.25 0-.1-.1-.1-.3.65-.75 1.25-2.2 3.1-6.1 3.1-5.1 0-6.95-4.25-.95-2-.8-3.5h-.75q-4.05 0-6.2-2.05-1.05 1-2.4 1.55-.2 1.85-1.45 3.6-2.15 3.1-6.2 3.1-4.85 0-6.75-3.85-.85.35-1.65 1.05-2.4 2.2-2.4 5.9z"/><path fill="#690" d="M193.9 176.55q-.2.9.15 2-1.35.45-2.4 1.4-2 1.85-2.35 4.75-.35.2-.65.35 1.9 3.85 6.75 3.85 4.05 0 6.2-3.1 1.25-1.75 1.45-3.6 1.35-.55 2.4-1.55 2.15 2.05 6.2 2.05h.75q-.15 1.5.8 3.5 1.85 4.25 6.95 4.25 3.9 0 6.1-3.1.45-.6.75-1.25.1 0 .1.1 1.85 4.25 6.95 4.25 3.9 0 6.1-3.1.6-.85 1-1.8 1 .25 2.15.25 1.7 0 3.1-.55.15 1.1.75 2.5.95 2 2.55 3.1-1.4.45-2.45 1.45-2.4 2.15-2.4 5.85 0-.35.6 2.5.5.5 1.15 1-.45.15-.85.35 1.95 3.9 6.8 3.9 3.95 0 6.1-3.1.2-.15.35-.4-.25.946-.25 1.95.006-.27.4 1.55-2.4.3-4.2 1.85-2.4 2.15-2.4 5.85 0-.3.55 2.25 1.5-.8 2.5-2.25.15-.15.3-.4-.25.946-.25 1.95.006-.27.4 1.55-1.4.15-2.5.75-.9.4-1.65 1.1-.55.45-.95 1.1-1.447 1.896-1.45 4.7.012-.338.75 3.55.3.7.7 1.25-1.1.2-2.1.65.85 1.65 2.25 2.65-.05.593-.05 1.2.012-.388.75 3.5 1.85 4.25 6.95 4.25 2.15 0 3.8-.85-.65-1.05-1.55-1.9-.4-.35-.8-.65.1-.6.1-1.2 0-2.9-1.4-4.8 2.8-.55 4.5-2.95.35-.6.75-1.15l-.05-.1-.8-.6q.1-.6.1-1.25 0-2.85-1.4-4.75 2.75-.55 4.45-2.95Q268 216 268 213.6q0-.85-.05-1.6 2.85-.5 4.6-3.05.7-1 1.2-1.9-.85-2-2.8-4.1 2.4-1.4 4.1-4 1-1.65 1.6-3.1.65-1.8.65-3.35 0-1.6-.25-2.85-.45-1.75-1.4-2.9 1.85-.85 3.1-2.85 1.25-2.05 1.55-3.95.05-.7.05-1.35 0-1.9-.45-3.35-.6-1.9-1.9-3.05-2.2-2-5.35-1.75-3.1.2-5.35 2.3-1.15 1.1-1.75 2.5-2.15-1.9-5.25-1.9-.95 0-1.7.2.15-.8.15-1.65 0-3.7-2.4-5.85-2.15-1.95-5.3-1.95-3.2 0-5.35 1.95-2.4 2.15-2.4 5.85-.15 1.4.7 3.35-1.6.45-2.95 1.6-.05 0-.05.05 0-.05-.1-.05-2.15-1.95-5.3-1.95-1.5 0-2.65.4-.15-.15-.25-.3.55-.45 1.05-1.1 1.85-2.4 1.85-5.85 0-3.95-2.9-6.65-2.6-2.45-6.4-3-3.75-.45-6.3 1.3-.15.1-.25.25-.6-1.95-2.25-3.25-2.4-1.85-5.85-1.7-2.65.15-4.7 1.4-.65.35-1.2.85l-.75.75q-1.85 2-1.85 5 0 .35.75 4.65.25.65.65 1.15-.7-.05-1.4-.05-3.8 0-6.35 1.9-2.9 2.2-2.9 5.9m23.3-7.8q.1-.1.15-.25.25-.2.45-.45.15.4.35.75-.5-.05-.95-.05m36.9 17.3q-.05 0-.05.05-.1-.15-.1-.3.1.1.15.25m13.35-.4q-.15 0-.2.1-.25.05-.4.15-.15-.15-.2-.25.15-.3.3-.55.2.3.5.55z"/></g><path fill="#630" d="M-130.65 39.35Q-139.3 37-151.5 37q-12.2 0-20.85 2.35Q-181 41.7-181 45q0 3.3 8.65 5.65Q-163.7 53-151.5 53q12.2 0 20.85-2.35Q-122 48.3-122 45q0-3.3-8.65-5.65z" id="ak"/><path d="M-19.85-19.15q-3.75-5.4-6.8-4.6-3.05.85-3.5 7.3-.5 6.6 1.8 15.1 2.25 8.45 5.9 13.85 3.75 5.35 6.8 4.55 3-.8 3.5-7.3.55-6.55-1.7-15-2.35-8.45-6-13.9z" id="am"/><g id="an"><path fill="#C00" d="M-113.95 32.05l-.5-.15q-.15.3-.25.6l.95 5.5 15.2-.45v-5.5h-15.4M29.05-47L33.6-8.3l-46.95 1.8q-.9 1.5-2.75 2.7-3.5 2.1-8.35 2.1-4.95 0-13.45-2.6-1.8-.55-3.1-1.1l-10.6.4q-20.6 20.3-22.95 49.7h8.65q-.95-2.8-.95-6.05V37q.25-2.85 1.15-5.35 1.5-3.75 4.75-6.85.05-.15.25-.3 2.55-2.35 5.55-3.8 4.25-2.05 9.45-2.05 8.75 0 14.95 5.85 6.2 5.8 6.2 14.15 0 3-.8 5.65l72.3-.75Q52.3 19.8 45.4-8.3L38.7-47h-9.65z"/><path d="M-102.9 13q-4.85 5.75-7.55 10.55-.85 1.55-1.55 3.05l3.15.5 10.3-13.3-3.85-.55-.5-.25m78.35 25.65q0-8.35-6.2-14.15-6.2-5.85-14.95-5.85-5.2 0-9.45 2.05-3 1.45-5.55 3.8-.2.15-.25.3-3.25 3.1-4.75 6.85-.9 2.5-1.15 5.35v1.65q0 3.25.95 6.05.3 1.05.75 2.05Q-67.7 48-70.7 48q-4.9 0-8.5-3.15l-9.45.1q1.25 1.75 2.9 3.4 6.25 5.8 15.05 5.8 5.1 0 9.35-2.05l.65.65q6.2 5.8 15 5.8 8.75 0 14.95-5.8 4-3.7 5.4-8.45.8-2.65.8-5.65m-11.8-9.85q3.85 4.1 3.85 9.85 0 3.05-1.1 5.75-1 2.2-2.75 4-3.85 4-9.35 4t-9.35-4l-.4-.4q-1.4-1.55-2.2-3.35-.95-2-1.2-4.2-.15-.85-.15-1.8 0-3.45 1.4-6.3.95-1.9 2.55-3.55 1.7-1.7 3.75-2.75 2.55-1.25 5.6-1.25 5.5 0 9.35 4m137.6 14.4q.6-2.25.6-4.8 0-7.85-5.95-13.45Q90 19.4 81.55 19.4q-8.3 0-14.3 5.55-5.9 5.6-5.9 13.45 0 2.7.7 5.15 1.25 4.7 5.2 8.3 6 5.7 14.3 5.7 8.45 0 14.35-5.7 4.1-3.75 5.35-8.65m-19.7-18q5.3 0 9 3.95 3.7 3.85 3.7 9.25 0 2.6-.8 4.9-.95 2.45-2.9 4.5-3.7 3.85-9 3.85-5.25 0-8.85-3.85-2-2-2.85-4.35-.95-2.35-.95-5.05 0-5.4 3.8-9.25 3.6-3.95 8.85-3.95z"/><path fill="#999" d="M-74.55 44.7l-4.65.15Q-75.6 48-70.7 48q3 0 5.55-1.25-.45-1-.75-2.05h-8.65m42.05-6.05q0-5.75-3.85-9.85-3.85-4-9.35-4-3.05 0-5.6 1.25-2.05 1.05-3.75 2.75-1.6 1.65-2.55 3.55-1.4 2.85-1.4 6.3 0 .95.15 1.8.25 2.2 1.2 4.2.8 1.8 2.2 3.35l.4.4q3.85 4 9.35 4t9.35-4q1.75-1.8 2.75-4 1.1-2.7 1.1-5.75m-17.15-2.5q.35-1.1 1.2-2 1.35-1.45 3.3-1.45 1.95 0 3.4 1.45 1.4 1.5 1.4 3.65 0 2.1-1.4 3.6-1.45 1.5-3.4 1.5t-3.3-1.5q-1.4-1.5-1.4-3.55v-.05q0-.9.2-1.65m-2.1-64.6q-5.1 4.5-14.65 13.55h13.85q15.9-16.35 35.4-28.7H-33.2q-11.65 9.2-18.55 15.15m142.3 57.6q-3.7-3.95-9-3.95-5.25 0-8.85 3.95-3.8 3.85-3.8 9.25 0 2.7.95 5.05.85 2.35 2.85 4.35 3.6 3.85 8.85 3.85 5.3 0 9-3.85 1.95-2.05 2.9-4.5.8-2.3.8-4.9 0-5.4-3.7-9.25m-3.8 8.5q0 1.95-1.4 3.45-1.35 1.4-3.15 1.4-1.9 0-3.2-1.4-1.35-1.5-1.35-3.45 0-2.05 1.35-3.5 1.3-1.4 3.2-1.4 1.8 0 3.15 1.4 1.4 1.45 1.4 3.5z"/><path fill="#CCC" d="M-48.45 34.15q-.85.9-1.2 2-.05.85-.2 1.7 0 2.05 1.4 3.55 1.35 1.5 3.3 1.5 1.95 0 3.4-1.5 1.4-1.5 1.4-3.6 0-2.15-1.4-3.65-1.45-1.45-3.4-1.45t-3.3 1.45m133.8 6.95q1.4-1.5 1.4-3.45 0-2.05-1.4-3.5-1.35-1.4-3.15-1.4-1.9 0-3.2 1.4-1.35 1.45-1.35 3.5 0 1.95 1.35 3.45 1.3 1.4 3.2 1.4 1.8 0 3.15-1.4z"/><path fill="#3C1E00" d="M-51.6-5l10.6-.4q1.3.55 3.1 1.1 8.5 2.6 13.45 2.6 4.85 0 8.35-2.1 1.85-1.2 2.75-2.7.7-1.25.7-2.6 0-3.15-3.45-5.35-3.5-2.1-8.35-2.1-4.95 0-9.75 2.05-.65.2-1.2.45l.3-6.05q-8 6.7-16.5 15.1z"/><path fill="#666" d="M-58.85-8.05q3.1-3.5 6.3-6.85H-66.4q-3.3 3.15-7.15 6.85h14.7m113.2-30.8q-.25-1.65-.15-4.05v-1.9q-7.3-1.65-15.5-2.2l6.7 38.7h12.1q.4-1.35 1.4-2.3.95-.85 3.5-1.85 2.55-1.05 3.5-1.85 1.65-1.3 1.65-3.85 0-.75-2.75-4.3-2.4-3.25-4-4.9-5.5-5.6-6.45-11.5m12.6 6.55q0 .1 3.3 3.95 3.6 4.1 5.05 5.4.7.65 2 3.65 1.45 3.15 1.45 4.4 0 .15-.65 4.25-.15 1.3-.3 2.35h23.05q-11-22.1-31.95-31.65-.25 1.05-.85 3.15-1.1 4.05-1.1 4.5z"/><path fill="#900" d="M57.5-8.3H45.4q6.9 28.1 1.55 51.85h15.1q-.7-2.45-.7-5.15 0-7.85 5.9-13.45 6-5.55 14.3-5.55 8.45 0 14.35 5.55 5.95 5.6 5.95 13.45 0 2.55-.6 4.8l12.55-.05q2.95 0-3.6-39.1L100.85-8.3H57.5z"/><path fill="#B3B3B3" d="M70.25-28.35q-3.3-3.85-3.3-3.95 0-.45 1.1-4.5.6-2.1.85-3.15-6.85-3.1-14.7-4.85v1.9q-.1 2.4.15 4.05.95 5.9 6.45 11.5 1.6 1.65 4 4.9 2.75 3.55 2.75 4.3 0 2.55-1.65 3.85-.95.8-3.5 1.85-2.55 1-3.5 1.85-1 .95-1.4 2.3h20.3q.15-1.05.3-2.35.65-4.1.65-4.25 0-1.25-1.45-4.4-1.3-3-2-3.65-1.45-1.3-5.05-5.4z"/><path fill="#F00" d="M7.55-45.3q11.55-3.45 21.5-1.7h9.65q8.2.55 15.5 2.2 7.85 1.75 14.7 4.85Q89.85-30.4 100.85-8.3l9.35 12.35q-.1-.25-.1-.4-6.6-39.55-39.8-53.1-33.1-13.6-67.85-6.75-34.8 6.85-35.65 12.6h16.05q-19.5 12.35-35.4 28.7-3.2 3.35-6.3 6.85h-14.7Q-94.7 3.8-101 10.8q-1 1.1-1.9 2.2l.5.25 3.85.55-10.3 13.3-3.15-.5q-1.4 2.85-2.45 5.3l.5.15h15.4v5.5l-15.2.45 1.35 7.2 23.75-.25 9.45-.1 4.65-.15Q-72.2 15.3-51.6-5q8.5-8.4 16.5-15.1Q-18-34.35-3.2-41.2q5.5-2.6 10.75-4.1M-77.1 14.9q.1.1.25.15 3.3 2.2 3.3 5.35v.3q-.15 3-3.55 5.2-2.4 1.6-5.5 2.05-1.4.25-2.9.25-2.65 0-5.45-.15-2.4-.15-4.95-.5-5.4-.55-4.7-4.4.8-3.85 5.5-7.15 4.65-3.3 9.6-3.3 4.95 0 8.4 2.2z"/><path fill="#FDA92D" d="M-76.85 15.05q-.15-.05-.25-.15-3.45-2.2-8.4-2.2t-9.6 3.3q-4.7 3.3-5.5 7.15-.7 3.85 4.7 4.4 2.55.35 4.95.5 2.8.15 5.45.15 1.5 0 2.9-.25 3.1-.45 5.5-2.05 3.4-2.2 3.55-5.2v-.3q0-3.15-3.3-5.35z"/></g><g id="ao"><path fill="#999" d="M453.3 238.9q-5.65 4.3-10.95 10.75-18.7 23.35-18.7 62.5 0 38.95 16 66.45 15.95 27.85 38.55 27.85 22.6 0 38.6-27.85 15.95-27.5 15.95-66.45 0-36.4-9.95-56.5-48.7 5.45-69.5-16.75z"/><path fill="#666" d="M485.6 229.2q-17.5-1.95-32.3 9.7 20.8 22.2 69.5 16.75-.75-1.55-1.75-3.3-11.1-20.25-35.45-23.15z"/></g><g id="ap"><path fill="#999" d="M399.5 233.05q-5.45 4.5-10.7 10.75-18.7 23.35-18.7 62.5 0 38.95 16 66.65 15.95 27.65 38.55 27.65 22.4 0 38.35-27.65 16-27.7 16-66.65 0-36.4-9.95-56.5-48.7 5.65-69.55-16.75z"/><path fill="#666" d="M469.05 249.8q-.75-1.55-1.55-3.3-11.3-20.25-35.45-22.95-17.75-1.95-32.55 9.5 20.85 22.4 69.55 16.75z"/></g><path fill="#633" fill-opacity=".788" d="M410.7 342.65q38.55-35.45 38.55-85.55 0-50-38.55-85.5-38.6-35.45-93.15-35.45-54.5 0-93.1 35.45-38.4 35.5-38.4 85.5 0 50.1 38.4 85.55 38.6 35.45 93.1 35.45 54.55 0 93.15-35.45z" id="aq"/><path d="M600.15 246.1q-1.75-21.2-11.5-23.75-9.95-2.7-22.2 14.8-12.1 17.95-19.5 45.4-7.4 27.65-5.65 49.1 1.6 20.8 11.5 23.55 9.95 2.75 22-14.8 11.9-17.55 19.3-45.2 7.4-27.45 6.05-49.1z" id="as"/><g id="at"><path fill="#333" d="M201.4 281.55q0-23.95 29.05-40.9 29-16.95 69.9-16.95 23.6 0 43.25 5.85-25.3-11.1-58.25-11.1-40.9 0-69.9 16.95-29 16.95-29 40.9t29 40.7q12.25 7.25 26.7 11.5-6.05-2.7-11.7-6-29.05-16.95-29.05-40.95z"/><path fill="#666" d="M355.3 235.4q-5.65-3.3-11.7-5.85-19.65-5.85-43.25-5.85-40.9 0-69.9 16.95-29.05 16.95-29.05 40.9 0 24 29.05 40.95 5.65 3.3 11.7 6 19.65 5.45 43.2 5.45 41.1 0 69.95-16.95 29-16.75 29-40.7 0-23.95-29-40.9z"/></g><g id="au"><path fill="#999" d="M212.75 464.05q8.15 4.4 17.95 4.4 9.85 0 17.75-4.4h-35.7m380.2-211.4q1.4.95 3.15 1.75h.4l-1-19.5q-46.95-41.1-77.15-57.25L488.2 277.4l39.3 1.35q-2.5-3.7-2.5-8.15 0-7.8 7-14.25 1.75-1.75 4.1-3.3 10.7-7 26.3-7 15.2 0 30.55 6.6m-163 22.4l40.55 1.55 37.35-104.2q-12.25-5.65-23.95-10.1l-53.95 112.75M472.6 158.2q-10.55-3.5-20.25-5.85-17.15-4.3-36-5.3l-28.25 60.2-7.45 65.85 36.05 1.4 55.9-116.3m219.35 287.65q-1 3.75-2.4 7Q697.6 457 706.9 457l-14.95-11.15m-22.05-13.6q.4-2.95.4-6.25 0-10.9-4.45-20.3-2.95-5.95-7.8-11.2-5.65-6.05-11.7-9-8.2-4.5-17.55-4.5-17.35 0-29.6 13.5-12.05 13.2-12.05 31.5 0 10.3 3.65 19.1 3.35 7.05 8.4 12.85Q611.45 471 628.8 471q17.15 0 29.25-13.05.75-.55 1.15-.95 4.5-5.5 7.05-11.3 2.7-6.05 3.65-13.45m-32.75-20.65q2.8 2.95 3.75 6.6.95 2.35.95 5.1v.35q0 6.85-4.7 11.5-4.05 4.9-10.1 4.9-6.45 0-10.9-4.9-4.45-4.65-4.45-11.85 0-6.85 4.45-11.7 4.45-5.1 10.9-5.1 6.05 0 10.1 5.1z"/><path d="M275.1 469.4q2.75-2.6 5.15-5.35h-31.8q-7.9 4.4-17.75 4.4-9.8 0-17.95-4.4h-31.9q2.35 2.75 5.05 5.35 18.5 18.35 44.8 18.35 25.9 0 44.4-18.35M375.8 308q-7 2.9-7 7 0 .75.4 1.35 1.35 2.9 6.6 4.65 3.9 1.6 8.4 2.55l12.65.2 2.3-.2q.8-.2 1.35-.2 4.15-.6 7-1.75.65-.4 1.2-.6 5.9-1.75 6.6-4.85.25-.75.25-1.15 0-2.55-2.7-4.5-1.6-1.35-4.15-2.5-6.8-2.4-16.35-2.4-9.75 0-16.55 2.4m431.8 34.65l-1.75.55-12.05 2 1.75 2.3 30.75 40.95 9.8-1.4q-2.15-4.65-4.7-9.95-8.75-15.95-23.8-34.45m-132.05 37.6q-7.95-7.8-17.5-12.5-13.1-6.6-29.25-6.6-27.25 0-46.9 19.1-10.35 9.7-15.05 22.6-2.7 6.75-3.65 14.55-.4 2.75-.65 5.3v3.3q0 9.95 2.4 18.7 4.45 15.55 16.95 27.65 19.65 18.7 46.9 18.7 27.5 0 46.75-18.7l2.15-2.15q13.25 6.85 29.2 6.85 27.9 0 47.15-19.25l-47.15-.8q-9.3 0-17.35-4.15 1.4-3.25 2.4-7 2.9-9.3 2.9-19.85v-5.25q-.4-9.15-3.55-17.5-4.6-12.1-14.95-22.25-.25-.35-.8-.75M670.3 426q0 3.3-.4 6.25-.95 7.4-3.65 13.45-2.55 5.8-7.05 11.3-.4.4-1.15.95Q645.95 471 628.8 471q-17.35 0-29.6-13.05-5.05-5.8-8.4-12.85-3.65-8.8-3.65-19.1 0-18.3 12.05-31.5 12.25-13.5 29.6-13.5 9.35 0 17.55 4.5 6.05 2.95 11.7 9 4.85 5.25 7.8 11.2 4.45 9.4 4.45 20.3z"/><path fill="#F00" d="M141.05 312.25v1l.4-.4-.4-.6M668 271.55q-8.8-10.15-17.95-20.25-49.65-52.95-110.65-93.1h50.05q-2.55-18.7-111.2-41.1-61.9-12.65-122.1-3.7-45.8 6.6-90.4 25.7-66.65 28.45-99.15 91.55-.6.75-.75 1.4v5.4H191q9.55-13.65 20.6-25.3l2.95-2.95q24.15-24.3 55.5-39.35 21.45-10.1 45.95-15.55 22.95-5.65 48.9-7.25h30.2q10.9-.55 21.25 0 18.85 1 36 5.3 9.7 2.35 20.25 5.85 5.65 1.95 11.3 4.1 11.7 4.45 23.95 10.1 1.2.6 2.55 1.2 3.9 1.75 7.95 4.05 30.2 16.15 77.15 57.25 24.95 21.45 51.6 48.9 48.35 49.85 61.75 104.65v.15h-.75l1.15 2.35q10.75 1.55 59.25 4.9 48.85 3.65 68.7-6.05-.55-1.35-1.1-2.75l-9.8 1.4-30.75-40.95H775.1q.156.004.55.25.65 0 1 .3 1.55.8 2.9 1.75.65.25 1.2.65 1.2.8 2.55 1.9 2.7 1.6 4.85 3.9 3.3 3.35 6.05 6.65 5.25 5.85 6.2 12.85 1.6 8.8-6.2 12.3-2.75.95-6.05 1.75-1.35.15-2.55.15-2.55.4-4.85 1-2.15 0-4.1.2h-1q-2.7.15-5.65.15-8.35 1.05-16.9 1.05-4.1 0-8.4-1.05-.193-.145-.35-.15-9.55-1.35-17.6-6.45-10.5-7-10.65-16.95V367q0-10.5 9.95-17.75.35 0 .7-.4 4.3-2.85 9-4.3.55-.15 1.2-.15l-66.8-70.7h-.25q-1.15-1.2-1.9-2.15z"/><path fill="#333" d="M153.2 345.8l-20.1-1.25q-22.2 58.85-3.5 96.45h23.6v-95.2m504.85 21.95q9.55 4.7 17.5 12.5.55.4.8.75 10.35 10.15 14.95 22.25 3.15 8.35 3.55 17.5V426q0 10.55-2.9 19.85L706.9 457q7.8-25.15 4.9-52-.8-7-2.55-14.05l-1.15-2.35h.75v-.15l-50.8-20.7z"/><path fill="#F30" d="M141.05 313.25q-4.2 28.6-7.95 31.3l20.1 1.25v-49l-11.75 16.05-.4.4z"/><path fill="#F90" d="M153.2 296.8v-34.2q-7.8 23.05-12.15 49.65l.4.6 11.75-16.05m10.05-59.35h2.6v-5.4q-1.4 2.65-2.6 5.4z"/><path fill="#900" d="M205.4 237.45l6.2-25.3q-11.05 11.65-20.6 25.3h14.4z"/><path fill="#653201" d="M596.1 254.4q-1.75-.8-3.15-1.75-15.35-6.6-30.55-6.6-15.6 0-26.3 7-2.35 1.55-4.1 3.3 3.15 7 3.15 9.75 2.1 0 15.75-4.7 14.05-4.3 19.05-4.3 5.1 0 12.1 3.15 7 2.75 9 2.75h4.05q1.4-.8 1.4-6.05 0-1.35-.4-2.55z"/><path fill="#3C1E00" d="M594.55 289.05q4.65-1.35 9.75-3.1 5.8-1.35 9.55-3.3l33.25 1.15q-26.65-27.45-51.6-48.9l1 19.5h-.4q.4 1.2.4 2.55 0 5.25-1.4 6.05h-4.05q-2 0-9-2.75-7-3.15-12.1-3.15-5 0-19.05 4.3-13.65 4.7-15.75 4.7 0-2.75-3.15-9.75-7 6.45-7 14.25 0 4.45 2.5 8.15 2.95 5.05 8.6 8.95 10.7 7.25 26.3 7.25 12.5 0 32.15-5.9z"/><path fill="#FFF" d="M416.35 147.05q-10.35-.55-21.25 0l-7 60.2 28.25-60.2m67.55 15.25q-5.65-2.15-11.3-4.1l-55.9 116.3 13.25.55L483.9 162.3m34.45 15.35q-4.05-2.3-7.95-4.05-1.35-.6-2.55-1.2L470.5 276.6l17.7.8 30.15-99.75z"/><path fill="#C00" d="M395.1 147.05h-30.2l-15.05 90.4h13.6v205.2l201.5 2.05q-2.4-8.75-2.4-18.7v-3.3q.25-2.55.65-5.3.95-7.8 3.65-14.55l27.7-113.8q-19.65 5.9-32.15 5.9-15.6 0-26.3-7.25-5.65-3.9-8.6-8.95l-39.3-1.35-17.7-.8-40.55-1.55-13.25-.55-36.05-1.4 7.45-65.85 7-60.2M368.8 315q0-4.1 7-7 6.8-2.4 16.55-2.4 9.55 0 16.35 2.4 2.55 1.15 4.15 2.5 2.7 1.95 2.7 4.5 0 .4-.25 1.15.25.2.25.6 0 3.1-6.85 5.05-.8.2-1.5.4-2.8.75-6.7 1.15-.55 0-1.35.2l-2.3.2-12.65-.2q-4.5-.6-8.2-1.75-6.8-1.95-6.8-5.05v-.4q-.4-.6-.4-1.35m347.3-41.3h-45.95l66.8 70.7q7-2.55 16.15-2.55 9.7 0 18.9 4.15 1.5.55 3.1 1.5h20.45l-1.75-2.3 12.05-2 1.75-.55q-2.7-3.75-5.85-7-19.8-22.8-85.65-61.95z"/><path fill="#6A6A6A" d="M844.2 406.35v-.65q-53.5 14.45-132.4-.7 2.9 26.85-4.9 52l47.15.8q41.65 2.45 83.15-10.2 9.4-11.65 4.15-23.15l2.85-18.1M749 429.7q.2-5.05 1.75-8.55 2.15-3.75 7-3.75 4.7 0 8.35 3.35 3.15 3.9 3.15 8.95 0 4.85-3.15 8.2-3.65 3.5-8.35 3.5-4.85 0-7.2-3.35-2.15-3.5-1.55-8.35z"/><path fill="#FFC" d="M750.75 421.15q-1.55 3.5-1.75 8.55-.6 4.85 1.55 8.35 2.35 3.35 7.2 3.35 4.7 0 8.35-3.5 3.15-3.35 3.15-8.2 0-5.05-3.15-8.95-3.65-3.35-8.35-3.35-4.85 0-7 3.75z"/><path fill="#9D9D9D" d="M768.5 395.85q-48.5-3.35-59.25-4.9Q711 398 711.8 405q78.9 15.15 132.4.7-.15-.7-.55-1.35-2.55-6.75-6.45-14.55-19.85 9.7-68.7 6.05z"/><path fill="#FDA92D" d="M794.2 388.05q7.8-3.5 6.2-12.3-.95-7-6.2-12.85v25.15m-24.2-.8v4.05q2.95 0 5.65-.15h1q-.35-.55-1-.8v-3.1H772q-.8-1.2-2-1.55v1.55m5.65-38q.65-.8 1-1.2-.35-.3-1-.3v1.5M744.7 391.3v-.15h-.35q.157.005.35.15m19.1-28.2q0 .15-.4.55-1.75 5.1-.4 10.75 1.6 5.45 7 11.3l.65-27.05h5v-9.4q-2.3 1.75-4.45 3.9l-.55-.8v1q-2.95 2.9-4.55 5.3-1.5 2.3-2.3 4.45z"/><path fill="#FF9" d="M788.15 356.25q-2.15-2.3-4.85-3.9-1.35-1.1-2.55-1.9-.55-.4-1.2-.65-1.35-.95-2.9-1.75-.35.4-1 1.2v9.4h-5L770 385.7q1.2.35 2 1.55h3.65v3.1q.65.25 1 .8 1.95-.2 4.1-.2 2.3-.6 4.85-1 1.2 0 2.55-.15 3.3-.8 6.05-1.75V362.9q-2.75-3.3-6.05-6.65m-44.45 30.8l.65.2H770v-1.55q-5.4-5.85-7-11.3-1.35-5.65.4-10.75h-24l4.3 23.4m-5.4-28.65l.15.25h27.65q1.6-2.4 4.55-5.3v-1H737.3l1 6.05z"/><path fill="#FF0" d="M744.35 387.25l.35 3.9v.15q4.3 1.05 8.4 1.05 8.55 0 16.9-1.05v-4.05h-25.65m19.05-23.6q.4-.4.4-.55.8-2.15 2.3-4.45h-27.65l.95 5h24m-10.3-21.8q-9.15 0-16.15 2.55-.65 0-1.2.15l1.35 7.4.2.4h33.35l.55.8q2.15-2.15 4.45-3.9v-1.5q-.394-.246-.55-.25-1.6-.95-3.1-1.5-9.2-4.15-18.9-4.15z"/><path fill="#A00101" d="M658.05 367.75l50.8 20.7q-13.4-54.8-61.75-104.65l-33.25-1.15q-3.75 1.95-9.55 3.3-5.1 1.75-9.75 3.1l-27.7 113.8q4.7-12.9 15.05-22.6 19.65-19.1 46.9-19.1 16.15 0 29.25 6.6z"/><path fill="#F60" d="M726.75 348.85q-.35.4-.7.4-9.95 7.25-9.95 17.75v.75q.15 9.95 10.65 16.95 8.05 5.1 17.6 6.45h.35l-.35-3.9-.65-.2-4.3-23.4-.95-5-.15-.25-1-6.05-.2-.4-1.35-7.4q-4.7 1.45-9 4.3z"/><path fill="#CCC" d="M640.9 418.2q-.95-3.65-3.75-6.6-4.05-5.1-10.1-5.1-6.45 0-10.9 5.1-4.45 4.85-4.45 11.7 0 7.2 4.45 11.85 4.45 4.9 10.9 4.9 6.05 0 10.1-4.9 4.7-4.65 4.7-11.5-.55-2.9-.95-5.45z"/><path fill="#99C" fill-opacity=".271" d="M650.05 251.3h43.25q-27.85-30.95-45.4-49.45-17.5-18.55-58.45-43.65H539.4q61 40.15 110.65 93.1z"/><path fill="#666" d="M650.05 251.3q9.15 10.1 17.95 20.25.75.95 1.9 2.15h46.2q-12.3-11.5-22.8-22.4h-43.25z"/></g><path fill="#00152C" d="M327.75 334.55q3.25 1.55 5.85-2.35l-23.3-65-36.35 11.4q.15 1.65.4 3.25 3.55 27.3 12.5 52.2.35.75.55 1.65 1.55 4.05 5.2 11.25l.05.1q1.65.15 3.15-.4 1.55-.6 3-2.05.1 0 .15-.05-3.25-8.75-4.3-11.7-.2-.45-.35-1-7.15-20.2-8.6-43.85l19.6-6.85 22.45 53.4z" id="av"/><g id="aw"><path fill="#CCC" d="M289 364.4q.35.05.9.4.7.35.95.5h.05q.3-.15.25-.45 0-.05-.05-.05 0-.25-.9-.65-.15-.1-.4-.15-.45-.25-.95-.35-.2-.05-.45-.1-.4-.15-.85-.2-1.6-.25-1.35.55 0 .05.55.25.2-.05.4-.05.75.05 1.2.05.3.1.55.2l.1.05m-.2-2.55q0-.1.35-.05.45.1 1.3.3.1.1.2.1l.8.3q1.25.35 1.35.25.45-.05.4-.4-.1-.3-1.5-.65-.4-.05-.85-.1-.8-.15-1.3-.15-.85 0-.75.4m4.05-1.65q.4-.05.65.05.9.25 1.25.25l.3.1q.3-.15.25-.35v-.15q-.05-.15-.1-.25-.2-.2-.45-.3-.45-.25-1.45-.35-.35.05-.7 0l-.05.05q-.9.05-1.5.25H291q-.65.3-.6.55.1.05.2.05.05.1.25.15.65-.15 1.2-.15l.8.1m2.9-2.25q.15.1.35.15.3.1.45.1.3-.1.2-.5-.1-.3-.25-.45-.2-.15-.35-.1-.25.1-.8-.15-.7-.25-.95-.3-.35-.05-.55-.1-.85-.15-1.3-.05-.15-.05-.2-.05-.55.15-.4.6 0 .1.05.1.1.05.15.05.05.1.2.05.7-.05 1.3-.2.15 0 .35-.05.25.1 1 .35.1.15.75.55m1.65-3.7q-.05-.2-.15-.3-.55-.5-2.4-.25-.25 0-.5.1-.55.1-1.05.3-.25.1-.4.15-.3.15-.2.3 0 .1.1.15h.1q.05.05.15.1.7-.2 1.2-.4 1.15-.3 1.75-.05.2.05.55.2.25.1.55 0 .2 0 .25-.1.1-.1.05-.2m-.1-2.8q0-.05-.05-.1-.05-.1-.5-.2-.3-.05-1.75-.1l-1.9.55-.3.1q-.1.1-.15.25v.15q.05.05.1.15.05 0 .05.1.1-.1.25.05.05 0 .1-.05.8-.35 1.35-.5 1.3-.4 1.8-.2.15.05.4.2.15.05.4.05.15-.05.25-.15-.05-.1-.05-.3m-.65-2.35q.15 0 .2-.05.2-.05.2-.3.05-.05.05-.1-.1-.3-.5-.3h-.05q-.6.05-1.05-.1-.7.2-1.15.45-.95.3-1.2.4-.15.15-.2.3 0 .05.05.15v.1q.002.053.05.15 0 .05.05.1.2.05.35 0l.1-.1q.1-.1.4-.3.25-.2.7-.3l.7-.2q.2.05.55.15h.05q.5.05.7-.05z"/><path fill="#00274F" d="M289.9 364.8q-.55-.35-.9-.4l-.1-.05q-.25-.1-.55-.2-.45 0-1.2-.05-.2 0-.4.05-1.15.85-2.55 1.6l3.85 2q1.5-1.25 2.8-2.45-.25-.15-.95-.5m3.6-4.55q-.25-.1-.65-.05l-.8-.1q-.55 0-1.2.15-.2-.05-.25-.15-.5.75-1.05 1.35.5 0 1.3.15.45.05.85.1 1.4.35 1.5.65.05.35-.4.4-.1.1-1.35-.25l-.8-.3q-.1 0-.2-.1-.85-.2-1.3-.3-.75.85-1.6 1.55.45.05.85.2.25.05.45.1.5.1.95.35.25.05.4.15.9.4.9.65.05 0 .05.05 2.1-2 3.6-4.35-.35 0-1.25-.25m2.6-2.15q-.2-.05-.35-.15-.65-.4-.75-.55-.75-.25-1-.35-.2.05-.35.05-.6.15-1.3.2-.15.05-.2-.05-.55 1.2-1.15 2.25h.05q.6-.2 1.5-.25l.05-.05q.35.05.7 0 1 .1 1.45.35.25.1.45.3.4-.85.9-1.75m1-3.55q-.3.1-.55 0-.35-.15-.55-.2-.6-.25-1.75.05-.5.2-1.2.4-.1-.05-.15-.1-.2 1-.55 1.8.05 0 .2.05.45-.1 1.3.05.2.05.55.1.25.05.95.3.55.25.8.15.15-.05.35.1.45-1.35.6-2.7m.25-2.8q-.1.1-.25.15-.25 0-.4-.05-.25-.15-.4-.2-.5-.2-1.8.2-.55.15-1.35.5-.1 1-.25 1.9.15-.05.4-.15.5-.2 1.05-.3.25-.1.5-.1 1.85-.25 2.4.25.05-1.2.1-2.2m-.8-3.4h.05q-.3-.85-.8-1.7-1.5.55-3.15.4h-.15q.3 1.1.45 2.15v.2q.05-.15.2-.3.25-.1 1.2-.4.45-.25 1.15-.45.45.15 1.05.1m.3.7q-.05.05-.2.05-.2.1-.7.05h-.05q-.35-.1-.55-.15l-.7.2q-.45.1-.7.3-.3.2-.4.3l-.1.1q-.15.05-.35 0-.05-.05-.05-.1-.048-.097-.05-.15v.3q.1.85.1 1.65l1.9-.55q1.45.05 1.75.1.45.1.5.2-.1-1.2-.4-2.3z"/><path fill="#FFF" d="M279.9 373.65q-.85 1.4.55 2.45 16.85-3.65 27.4-14.65l-1.45-2.65-1.85 1.2q-12.1 9.15-13.45 9.25l.7.4q-1.15-.3-.75-.4l-3-1.5-3.85-2-5.1 3.55q-.85 2.75.5 4.45l.3-.1z"/><path fill="#036" d="M299.2 345l-.4-.4q-1.45 1.45-3 2.05.5.85.8 1.7.4 0 .5.3 0 .05-.05.1 0 .25-.2.3.3 1.1.4 2.3.05.05.05.1 0 .2.05.3-.05 1-.1 2.2.1.1.15.3.05.1-.05.2-.05.1-.25.1-.15 1.35-.6 2.7.15.15.25.45.1.4-.2.5-.15 0-.45-.1-.5.9-.9 1.75.05.1.1.25v.15q.05.2-.25.35l-.3-.1q-1.5 2.35-3.6 4.35.05.3-.25.45h-.05q-1.3 1.2-2.8 2.45l3 1.5h.05q1.35-.1 13.45-9.25.8-.6 1.75-1.3.05-.05.05-.1L299.2 345z"/></g><g id="ax"><path fill="#FFF" d="M351.35 342.55l-2.05 3.85-1.4 2.95q.3-.15-.4.8l.3-.8q-1.15.8-16.35.35l-2.15.1.3 2.9q14.95 2.95 30.85-3.9.45-1.6-1-2.25.1-.1.3-.15.05-2.15-2.2-4l-6.2.15z"/><path fill="#00274F" d="M348.35 342.65q-.1.1-.35.3-.5.4-.9.75l-.35.35q-.05.05-.1.2-.15.3-.5.85-.3.7-.5.9 1.8.25 3.65.4l2.05-3.85q-1.6.1-3 .1m-4.85.4l.05-.05q.55-.55.95-.85-.8-.2-1.55-.5v.05q-.05 0-.15.2-.6.25-1.1.6-.3.2-.7.6-.15.15-.5.4-.5.65-.75.95 2.55.95 5.45 1.5-.05-.05-.1-.15-.05-.25.45-1.1 0-.15.2-.3.35-.4.6-.85.15-.2.3-.35.35-.35.55-.65-1.1-.1-2.2-.3-.25.25-.75.95-.2.15-.25.25l-.5.6q-.8 1.05-.9 1.1-.45.15-.55-.2-.1-.35.9-1.35l.55-.55m-6-.2q-.15.25-.25.35.9.5 1.8.9-.05-.25.1-.45.3-.5 1-1.15.25-.2.6-.35.8-.5 1.4-.75l.05-.05q-1.1-.4-2.15-1.1-.05.05-.25.15-.6.35-1.05.6-.25.1-.4.2-.2.1-.6.85-.05.1-.25.8m1.75-3q0-.05.05-.1-.65-.5-1.35-1.2-.05.05-.2.25-.6.1-1.2.3-1 .4-1.4.95-.1.2-.3.55-.15.35-.5.4.9.9 2.05 1.75.05-.2.25-.2.25-.2.55-.65.45-.65.6-.85.2-.25.4-.4.65-.55 1.05-.8m-6.4-1.1q-.15.05-.3-.05.55.95 1.3 1.8.15-.7 1.85-1.6.25-.15.45-.25.6-.2 1.05-.4h.4q-.7-.65-1.3-1.5-.8.25-1.4.5-1.25.4-1.65.85 0 .05-.1.4-.05.1-.3.25m-.7-2.95h-.05q-.35.4-.6.45-.05 0-.15.05.4 1.05 1 2.1 0-.2.35-.4.2-.35 1.3-1.15l1.9-.6q-.45-.65-.85-1.5-.094-.094-.2-.3.05.113.05.2.05.15 0 .2l-.2.2q-.05 0-.25-.1H334q-.3 0-.75.1-.35.15-.7.35-.05.1-.4.4m1.45-3.65q-1.2 1.1-2.75 1.6.05.9.35 1.8h.05q.5-.35.8-.7.6-.25 1.15-.4.95-.15 1.25-.2.2 0 .3.1l-.1-.2q-.5-.95-.95-2h-.1z"/><path fill="#CCC" d="M348.7 342.25q-.25-.85-1.5.3-.2.3-.55.65-.15.15-.3.35-.25.45-.6.85-.2.15-.2.3-.5.85-.45 1.1.05.1.1.15.1.15.4.05h.05q.2-.2.5-.9.35-.55.5-.85.05-.15.1-.2l.35-.35q.4-.35.9-.75.25-.2.35-.3.4-.35.35-.4m-5.15.75l-.05.05-.55.55q-1 1-.9 1.35.1.35.55.2.1-.05.9-1.1l.5-.6q.05-.1.25-.25.5-.7.75-.95.25-.3.25-.25-.05-.35-.75.15-.4.3-.95.85m-4.5 1.1q-.05.15 0 .3 0 .1.05.1.1.25.5.1l.15-.15q.25-.3.75-.95.35-.25.5-.4.4-.4.7-.6.5-.35 1.1-.6.1-.2.15-.2v-.05-.1q-.05-.3-.75-.2l-.05.05q-.6.25-1.4.75-.35.15-.6.35-.7.65-1 1.15-.15.2-.1.45m.25-4.35q-.05.05-.05.1-.4.25-1.05.8-.2.15-.4.4-.15.2-.6.85-.3.45-.55.65-.2 0-.25.2v.5q.15.4.5.3.2-.05.35-.35.1-.1.25-.35.2-.7.25-.8.4-.75.6-.85.15-.1.4-.2.45-.25 1.05-.6.2-.1.25-.15-.05-.1 0-.1v-.2q-.25-.4-.75-.2m-5.45.75q0 .1.05.25t.15.25q.15.05.3 0 .35-.05.5-.4.2-.35.3-.55.4-.55 1.4-.95.6-.2 1.2-.3.15-.2.2-.25.05-.1.05-.15 0-.2-.4-.15h-.4q-.45.2-1.05.4-.2.1-.45.25-1.7.9-1.85 1.6m-1.3-1.8q.15.1.3.05.25-.15.3-.25.1-.35.1-.4.4-.45 1.65-.85.6-.25 1.4-.5.05 0 .1-.05.1-.05.1-.15.05 0 .1-.05.05-.1.05-.2l-.1-.05q-.2-.15-.35-.1l-.3.1-1.9.6q-1.1.8-1.3 1.15-.35.2-.35.4.05.05.05.1 0 .15.15.2m-.45-2.9h.05q.35-.3.4-.4.35-.2.7-.35.45-.1.75-.1h.45q.2.1.25.1l.2-.2q.05-.05 0-.2 0-.087-.05-.2l-.1-.1q-.1-.1-.3-.1-.3.05-1.25.2-.55.15-1.15.4-.3.35-.8.7h-.05q-.3.25-.2.5v.05q.15.25.35.2.1-.05.15-.05.25-.05.6-.45z"/><path fill="#036" d="M330.85 333.75q-1.65.5-3.65.1l-.05.5 2.1 15.25q1.1 0 2.2.1 15.2.45 16.35-.35h.1l1.4-2.95q-1.85-.15-3.65-.4h-.05q-.3.1-.4-.05-2.9-.55-5.45-1.5l-.15.15q-.4.15-.5-.1-.05 0-.05-.1-.05-.15 0-.3-.9-.4-1.8-.9-.15.3-.35.35-.35.1-.5-.3v-.5q-1.15-.85-2.05-1.75-.15.05-.3 0-.1-.1-.15-.25-.05-.15-.05-.25-.75-.85-1.3-1.8-.15-.05-.15-.2 0-.05-.05-.1-.6-1.05-1-2.1-.2.05-.35-.2v-.05q-.1-.25.2-.5-.3-.9-.35-1.8z"/></g><g id="ay"><path fill="#FFF" d="M966.25-328.1l-78.45 47.05v344.7q95.462 23.232 221.9 0v-350.7l-73.45-39.05q-8.55 28.45-36 30-29.6-1.85-34-32z"/><path d="M887.8-281.05l78.45-47.05q4.4 30.15 34 32 27.45-1.55 36-30l73.45 39.05v-49.15H887.8v55.15z"/></g><g id="az"><path fill="#B44F1D" d="M851.7 231.9q26 29.707 52 0v-43.5q-26 21.943-52 1.4v42.1z"/><path fill="#743312" d="M851.7 153.9v35.9q26 20.543 52-1.4v-34.5h-52z"/></g><path d="M1196.6-311.95q-19.45 0-33.25 13.75-13.75 13.8-13.75 33.25t13.75 33.2q13.8 13.8 33.25 13.8t33.2-13.8q13.8-13.75 13.8-33.2 0-19.45-13.8-33.25-13.75-13.75-33.2-13.75z" id="aA"/><path d="M1250.7-357.05q-12.85-12.85-31.1-12.85t-31.15 12.85q-12.85 12.9-12.85 31.15t12.85 31.1q12.9 12.9 31.15 12.9t31.1-12.9q12.9-12.85 12.9-31.1t-12.9-31.15z" id="aC"/><path d="M1196.6-311.95q-19.45 0-33.25 13.75-13.75 13.8-13.75 33.25t13.75 33.2q13.8 13.8 33.25 13.8t33.2-13.8q13.8-13.75 13.8-33.2 0-19.45-13.8-33.25-13.75-13.75-33.2-13.75z" id="aE"/><path d="M1250.7-357.05q-12.85-12.85-31.1-12.85t-31.15 12.85q-12.85 12.9-12.85 31.15t12.85 31.1q12.9 12.9 31.15 12.9t31.1-12.9q12.9-12.85 12.9-31.1t-12.9-31.15z" id="aG"/><path fill="#B44F1D" d="M237.1 159.7q-5.55 10.25-2.25 21.45 3.35 11.2 13.65 16.9 10.15 5.55 21.4 2.25 11.25-3.3 16.85-13.6 5.55-10.3 2.25-21.55-3.3-11.2-13.55-16.75-10.3-5.6-21.55-2.3-11.2 3.3-16.8 13.6z" id="aI"/><path d="M208.35 543.35q5.6-6.6 5.6-15.9t-5.6-15.9q-5.55-6.6-13.4-6.6-7.85 0-13.45 6.6-5.55 6.6-5.55 15.9t5.55 15.9q5.6 6.6 13.45 6.6t13.4-6.6z" id="aJ"/><path fill="#FFF" d="M207.15 529.15q2.8-2.75 2.8-6.7t-2.8-6.75q-2.75-2.75-6.7-2.75t-6.75 2.75q-2.75 2.8-2.75 6.75t2.75 6.7q2.8 2.8 6.75 2.8t6.7-2.8z" id="aK"/><path d="M208.35 543.35q5.6-6.6 5.6-15.9t-5.6-15.9q-5.55-6.6-13.4-6.6-7.85 0-13.45 6.6-5.55 6.6-5.55 15.9t5.55 15.9q5.6 6.6 13.45 6.6t13.4-6.6z" id="aL"/><path fill="#FFF" d="M207.15 529.15q2.8-2.75 2.8-6.7t-2.8-6.75q-2.75-2.75-6.7-2.75t-6.75 2.75q-2.75 2.8-2.75 6.75t2.75 6.7q2.8 2.8 6.75 2.8t6.7-2.8z" id="aM"/><g id="aN"><path d="M238.9 155q-.3 2.55-.6 3.7-1 4.85-3.8 5.6-.25.1-.85.05-.75-.15-1.45-.4-2.05-.8-2.55-2.4 0-.05-.3-1.1-.05-.8.6-.3l-.5-1.65-.3.05q.25 1.8-.55 3.05-.7 1.05-2.4 1.55-.85.2-1.5-.15.45.7.9 1.3-1.65 1.3-2.8 3.3-2.15 3.95-.85 8.2 1.35 4.35 5.2 6.55 3.95 2.15 8.2.8 4.35-1.25 6.55-5.15 2.15-4 .8-8.25-.7-2.6-2.4-4.4v-.05q.8.8 1.85 1.4 3.05 1.6 6.3.65 3.35-.95 4.95-4 1.05-1.85 1.05-3.75.75-.35 1.35-.7 1.05 1.3 2.5 2.2 2.85 1.55 5.9.65 2.95-.9 4.5-3.7.95 1.15 2.35 1.95 3.65 2.1 7.65 1.1.55-.2 1.05-.45.05 1.2.4 2.45 1.2 4.35 5.05 6.6 3.8 2.3 8.2 1.2 4.35-1.15 6.65-5 1.55-2.7 1.5-5.6-.9 1.05-2.1 1.4-1.85.55-3.75.35-2.7-.2-3.2-2-.1-.35-.25-1.45-.1-1.1-.3-1.65-.9.55-1.4.9-.7.45-1.25.55-2.05.65-4-1.35-1.6-1.75-2.35-4.45-.1-.4-.15-1.85-.05-1.15-.15-1.7-.35.1-1.2.5-.85.5-1.3.55-1.3.4-2.9 0-1.55-.35-2.85-1.3-1.3-1.05-2.1-2.3-.65-1.35-.45-2.8-.55 1.6-1.65 2.7-1.4 1.2-3.8 1.9-3.35.95-5 .05-.65-.25-1.65-1.05-1.2-1.1-2-1.55-1.8-1.2-3.2-4.3-.5-1.1-1.05-2.55l.75 2.5q.65 2.05.7 3.3 0 1.55-.6 2.8-.75 1.3-2.4 2.45l-2.65.8q-.4-.4-.7-1.1-.15-.45-.4-1.4l-.7.15q-.75 2.7-1.25 3.45-.55 1.1-2.35 1.65-1.85.5-3.3-.35-.9-.6-1.45-1.6l.15.35q-.2.8-.4 3.1z"/><path fill="#300" d="M233.85 138q-2.65 4.65-1.75 9.8-.75.1-1.55.3-4.05 1.15-6.05 4.85-1.95 3.75-.75 7.75.35 1.25.95 2.3.65.35 1.5.15 1.7-.5 2.4-1.55.8-1.25.55-3.05l.3-.05.5 1.65q-.65-.5-.6.3.3 1.05.3 1.1.5 1.6 2.55 2.4.7.25 1.45.4.6.05.85-.05 2.8-.75 3.8-5.6.3-1.15.6-3.7.2-2.3.4-3.1l-.15-.35q.55 1 1.45 1.6 1.45.85 3.3.35 1.8-.55 2.35-1.65.5-.75 1.25-3.45l.7-.15q.25.95.4 1.4.3.7.7 1.1l2.65-.8q1.65-1.15 2.4-2.45.6-1.25.6-2.8-.05-1.25-.7-3.3l-.75-2.5q.55 1.45 1.05 2.55 1.4 3.1 3.2 4.3.8.45 2 1.55 1 .8 1.65 1.05 1.65.9 5-.05 2.4-.7 3.8-1.9 1.1-1.1 1.65-2.7-.2 1.45.45 2.8.8 1.25 2.1 2.3 1.3.95 2.85 1.3 1.6.4 2.9 0 .45-.05 1.3-.55.85-.4 1.2-.5.1.55.15 1.7.05 1.45.15 1.85.75 2.7 2.35 4.45 1.95 2 4 1.35.55-.1 1.25-.55.5-.35 1.4-.9.2.55.3 1.65.15 1.1.25 1.45.5 1.8 3.2 2 1.9.2 3.75-.35 1.2-.35 2.1-1.4-.05-1.3-.4-2.55-1.1-4.4-4.95-6.7-2.05-1.2-4.15-1.4.35-1.25.4-2.45.4-4.5-2.5-7.8-2.95-3.55-7.45-3.8-2.65-.25-4.9.7-.6-1.5-1.85-2.9-2.7-3.15-6.9-3.45-4.25-.35-7.45 2.45-1.35 1.1-2.2 2.55-1.65-1.95-4.1-3.25-5.75-3.1-11.95-1.3-6.25 1.85-9.3 7.6z"/></g><path fill-opacity=".369" d="M230.35 165.65q-1.45 1.1-2.45 2.75-2 3.05-.95 6.45.95 3.4 4.35 5 3.4 1.6 7.1.55 3.8-1.05 5.75-4.3 1.95-3.15.9-6.45-.55-2.05-1.95-3.4.7.55 1.55.95 2.6 1.35 5.5.45 2.9-.85 4.35-3.3 1-1.4 1-3 .6-.25 1.25-.6.8 1.05 2.15 1.7 2.35 1.15 4.95.4 2.6-.75 4.05-2.95.8.85 1.95 1.45 3.1 1.6 6.65.75.5-.2.95-.4.05.95.25 2 .95 3.3 4.2 5.05t7.05.8q3.8-1 5.9-4.1 2.1-3.1 1.25-6.55-.9-3.35-4.15-5.05-1.75-.95-3.55-1.1.3-.85.4-1.9.4-3.55-2.05-6.1-2.4-2.65-6.3-2.85-2.35-.05-4.3.7-.5-1.2-1.5-2.3-2.25-2.45-5.95-2.6-3.65-.15-6.4 2-1.25 1-2 2.15-1.45-1.45-3.55-2.5-4.8-2.35-10.3-.75-5.4 1.55-8.3 6.2-2.35 3.75-1.75 7.75-.65.1-1.35.2-3.45 1.1-5.35 4-1.75 2.9-.85 6.1.5 1.6 1.5 2.8z" id="aO"/><path d="M288.1 225.3l-.45-1.5-1.4.35-.4-1.25-2.8.85-.4-1.35-4.15 1.25-.4-1.25-2.8.75-1.65-5.55-1.25.4-.4-1.35-3.05.9.4 1.35-1.2.4 3.7 12.45-1.25.4-.45-1.3-4.05 1.2 1.25 4.1 1.1-.3.45 1.4 1.4-.4.8 2.7 1.25-.4.9 2.85 1.4-.4.85 2.95 1.3-.4 1.15 3.9 14.1-4.15-1.15-4.2 1.35-.4-1.15-4 1.25-.4-3-10.05-1.25.45m-3.4-.6l1.55-.5.45 1.65 1.4-.4 2.95 9.85-1.4.4 1.15 4-1.25.35.8 2.9-11.4 3.35-.85-2.75-1.2.35-.85-2.85-1.4.45-.8-2.85-1.4.45-.8-2.7-1.15.3-.45-1.45-1.55.45-.75-2.55 2.65-.75.4 1.15 1.4-.4 1.25 4.15 1.35-.35-5.3-18.05 2.9-.85 3.7 12.4 1.25-.35-1.6-5.6 2.75-.8 1.65 5.65 1.25-.4-1.3-4.35 2.85-.8 1.55 5.45 1.35-.35-1.15-4.2z" id="aP"/><g id="aQ"><path d="M257.1 218.05l1.7-5.55-27.3-8.55-1.75 5.55 27.35 8.55z"/><path fill="#B44F1D" d="M175.35 184.15q-1.5-1.7-1.4-3-1.25-2.8-.9-4.9.2-2.05.1-2.65-.1-.5-.8-.5-.6 0-1.05.4-.5.45-.95 1.35-.4.9-.55 2.8-.15 1.9.2 4.05.4 2-2.3.75-2.7-1.25-3.05-1.7-.5-.4-1.95-1.2-5.1-3-5.85-2.25l-.45 1.45q1 .9 3.05 2.25 1.95 1.5 3.75 2.95l-.3.8q-.3-.05-4.6-.25-2.9-.2-4.7.15l-.1.25q-1.25 1.3 1 1.9 2.35.65 3.35.8 1.05.15 2.6.25 1.65.05 2.1-.1l1.2.35-.2.6q-.7.25-4.65.95-4.05.85-5.2 2.1.8.9 1.5 1.15.75.25 4.05-.1 3.55-.5 4.4-.55l1.05.35q-.05.95-1.5 1.7-.85.3-2.1.75-.85.4-1.7 1.4-.95 1-1.15 1.65l1.75.55q.4-.1 8.6-2.75 4.05-1.4 7.1-3.3l-.4-.15.45.1-.05.05 54.05 16.9 1.75-5.55-54.15-17q-1.25-1.7-2-2.8z"/></g><g id="aR"><path d="M307.05 184.4l-4.85-3.3-16.15 23.7 4.85 3.3 16.15-23.7z"/><path fill="#B44F1D" d="M344.5 118.4q.75-2.35 1-3.7l-1.35-.85q-1.05-.05-3.15 5.4-.65 1.5-.75 2.2-.05.5-1.35 3.2-1.35 2.65-2.4.85-.95-1.85-2.25-3.35-1.4-1.3-2.2-1.8-.85-.45-1.55-.5-.6-.05-1.1.35-.55.45-.3.95.25.55 1.75 1.9 1.55 1.4 2.4 4.45.85.95.8 3.2-.05 1.35.05 3.5l-31.9 46.9 4.85 3.3 31.85-46.9h-.05l.25-.25-.2.25q3.55-.35 7.6-1.8 8.15-2.95 8.4-3.2l1.05-1.45q-.55-.4-1.85-.65-1.35-.15-2.3 0-1.25.5-2.1.7-1.6.4-2.15-.35l.6-.9q.65-.5 3.8-2.4 2.75-1.7 3.2-2.35.4-.65.45-1.8-1.75-.35-5.35 1.5-3.55 2-4.2 2.2l-.65-.4.8-1.05q.5-.05 1.7-1.2 1.15-1 1.85-1.8.8-.7 2.15-2.7 1.45-1.8-.4-2.05l-.2-.2q-1.7.9-3.8 2.85-3.2 2.85-3.45 3.1l-.7-.55q.35-2.2 1.15-4.6z"/></g><g id="aS"><path fill="#FFF" d="M815.25 66.9q-1.65-.8-3.15-1.55-.2.75-.25 1.55-.15 1.1-.15 2.3v11.95q0 7.45 5.25 12.7 5.3 5.3 12.75 5.3t12.7-5.3q5.3-5.25 5.3-12.7v-5.4q-18.85-2.6-32.45-8.85m103.1-.15q-6.1 2.95-12.6 5.1-14.25 4.7-30.15 5.4v2.9q0 .7.05 1.4.45 5.3 4.35 9.2 4.45 4.45 10.7 4.45 6.2 0 10.6-4.45 4.45-4.4 4.45-10.6V76.8q.15 5.85 4.4 10.1 4.45 4.45 10.7 4.45 6.2 0 10.6-4.45 4.45-4.4 4.45-10.6V66.25v-.6q-.05-1.1-.2-2.1-5.65-2.05-15.3 2.25-1 .45-2.05.95z"/><path fill="#580000" d="M812.1 65.35q-.4-.25-.8-.45-12.6-6.75-17 2.2-2.4 4.8-2.4 14.2 0 26.95 22.2 45.85 2.3 2 4.7 3.75 12.55-32 56.85-49.35-.05-.7-.05-1.4v-2.9q-6.7.25-13.7-.15-7.45-.45-14.2-1.35v5.4q0 7.45-5.3 12.7-5.25 5.3-12.7 5.3-7.45 0-12.75-5.3-5.25-5.25-5.25-12.7V69.2q0-1.2.15-2.3.05-.8.25-1.55m123.6-1.8q.15 1 .2 2.1v.85l3.5-.5-.35-.35q-1.45-1.45-3.35-2.1z"/><path fill="#C00" d="M931.45 86.9q-4.4 4.45-10.6 4.45-6.25 0-10.7-4.45-4.25-4.25-4.4-10.1v3.35q0 6.2-4.45 10.6-4.4 4.45-10.6 4.45-6.25 0-10.7-4.45-3.9-3.9-4.35-9.2-44.3 17.35-56.85 49.35 20.8 15.3 48.95 15.3 31.35 0 53.55-19.05 22.2-18.9 22.2-45.85 0-10.8-4.1-15.3l-3.5.5v9.8q0 6.2-4.45 10.6z"/></g><g id="aT"><path fill="#999" d="M230.7 382.4q-16.55 0-28.25 12.8Q191 407.85 191 425.6q0 8.2 2.3 15.6 2.95 8.4 9.15 14.85 4.75 5 10.3 8h35.7q5.4-3 9.9-8 6.2-6.3 8.75-14.1 2.95-7.75 2.95-16.35 0-17.75-11.7-30.4-11.15-12.8-27.65-12.8m-1.95 24.75q5.65 0 9.95 4.45 4.3 4.7 4.3 11.5 0 6.2-4.3 11.1-4.3 4.5-9.95 4.5-5.65 0-9.75-4.5-4.45-4.9-4.45-11.1 0-6.8 4.45-11.5 4.1-4.45 9.75-4.45z"/><path fill="#CCC" d="M238.7 411.6q-4.3-4.45-9.95-4.45-5.65 0-9.75 4.45-4.45 4.7-4.45 11.5 0 6.2 4.45 11.1 4.1 4.5 9.75 4.5t9.95-4.5q4.3-4.9 4.3-11.1 0-6.8-4.3-11.5z"/><path d="M230.7 363.25q-26.3 0-44.8 18.35-18.9 18.3-18.9 44 0 8 2.15 15.4 3.05 12.7 11.7 23.05h31.9q-5.55-3-10.3-8-6.2-6.45-9.15-14.85-2.3-7.4-2.3-15.6 0-17.75 11.45-30.4 11.7-12.8 28.25-12.8 16.5 0 27.65 12.8 11.7 12.65 11.7 30.4 0 8.6-2.95 16.35-2.55 7.8-8.75 14.1-4.5 5-9.9 8h31.8q8.2-9.7 11.25-21.7 2.45-8.15 2.45-16.75 0-25.7-18.85-44-18.5-18.35-44.4-18.35z"/><path fill="#F00" d="M191 237.45h-25.15v42.05l4.45-6.4q9.2-19.25 20.7-35.65z"/><path fill="#333" d="M156.65 346l-3.45-.2V441h15.95q-2.15-7.4-2.15-15.4 0-25.7 18.9-44 18.5-18.35 44.8-18.35 25.9 0 44.4 18.35 18.85 18.3 18.85 44 0 8.6-2.45 16.75h23.7q-3.65-19.05-5.65-37.35-2.55-19.1-24.9-37.6-22.2-18.95-51.85-18.95-6.4 0-12.8 1.2.15-.4.75-.4l-64.1-3.25z"/><path fill="#F30" d="M153.2 345.8l3.45.2 9.2-62.35v-4.15l-12.65 17.3v49z"/><path fill="#F90" d="M153.2 262.6v34.2l12.65-17.3v-42.05h-2.6q-5.55 12-10.05 25.15z"/><path fill="#900" d="M343.25 275.25q.25-1.15.65-2.15H196.6l8.8-35.65H191q-11.5 16.4-20.7 35.65l-4.45 6.4v4.15l-9.2 62.35 64.1 3.25q-.6 0-.75.4 6.4-1.2 12.8-1.2 29.65 0 51.85 18.95 22.35 18.5 24.9 37.6 2 18.3 5.65 37.35h23.75q-16.5-76.55 4.3-167.1z"/><path fill="#999" fill-opacity=".788" d="M342.7 273.1l-5.85-24.35q-67-5.4-127.4 24.35H342.7z"/><path fill="#C00" d="M363.45 237.45h-13.6l-5.95 35.65q-.4 1-.65 2.15-20.8 90.55-4.3 167.1l24.5.3v-205.2z"/></g><path id="z" stroke="#333" stroke-linejoin="round" stroke-linecap="round" fill="none" d="M837.9 546.75V406.3"/><path id="aj" stroke="#333" stroke-linejoin="round" stroke-linecap="round" fill="none" d="M217.8 168.05q-.2.25-.45.45-.05.15-.15.25.45 0 .95.05-.2-.35-.35-.75zm36.3 18q-.05-.15-.15-.25 0 .15.1.3 0-.05.05-.05zm13.35-.4q-.3-.25-.5-.55-.15.25-.3.55.05.1.2.25.15-.1.4-.15.05-.1.2-.1z"/><path id="ar" stroke="#000" stroke-linejoin="round" stroke-linecap="round" fill="none" d="M410.7 171.6q-38.6-35.45-93.15-35.45-54.5 0-93.1 35.45-38.4 35.5-38.4 85.5 0 50.1 38.4 85.55 38.6 35.45 93.1 35.45 54.55 0 93.15-35.45 38.55-35.45 38.55-85.55 0-50-38.55-85.5z"/><path id="aB" stroke="#333" stroke-linejoin="round" stroke-linecap="round" fill="none" d="M536.16 384.654q3.43-.194 5.99 2.092 2.568 2.295 2.762 5.722.194 3.428-2.1 5.988-2.287 2.57-5.714 2.763-3.428.193-5.997-2.1-2.56-2.288-2.753-5.715-.194-3.428 2.092-5.997 2.294-2.56 5.72-2.754z"/><path id="aD" stroke="#333" stroke-linejoin="round" stroke-linecap="round" fill="none" d="M545.245 376.167q2.402 2.145 2.584 5.36.18 3.217-1.964 5.61-2.136 2.402-5.352 2.583-3.216.182-5.618-1.962-2.393-2.137-2.575-5.353-.18-3.216 1.955-5.617 2.146-2.393 5.362-2.575 3.216-.182 5.608 1.954z"/><path id="aF" stroke="#333" stroke-linejoin="round" stroke-linecap="round" fill="none" d="M489.21 391.954q3.43-.194 5.99 2.092 2.568 2.295 2.762 5.722.194 3.428-2.1 5.988-2.287 2.57-5.714 2.763-3.428.193-5.997-2.1-2.56-2.288-2.753-5.715-.194-3.428 2.092-5.997 2.294-2.56 5.72-2.754z"/><path id="aH" stroke="#333" stroke-linejoin="round" stroke-linecap="round" fill="none" d="M498.295 383.467q2.402 2.145 2.584 5.36.18 3.217-1.964 5.61-2.136 2.402-5.352 2.583-3.216.182-5.618-1.962-2.393-2.137-2.575-5.353-.18-3.216 1.955-5.617 2.146-2.393 5.362-2.575 3.216-.182 5.608 1.954z"/></defs><g transform="translate(-214.3 -180.4)"><mask id="w"><use xlink:href="#v" transform="translate(200.4 170.4)"/></mask><g mask="url(#w)"><g filter="url(#x)" transform="translate(214.3 180.4)"><g transform="translate(-214.3 -180.4)"><use xlink:href="#y"/><use xlink:href="#z"/></g><use filter="url(#A)" xlink:href="#B" transform="translate(-2.57 -168.63) scale(1.39273)"/><use filter="url(#A)" xlink:href="#C" transform="matrix(-.77128 0 0 .77128 457.102 -81.03)"/><use filter="url(#A)" xlink:href="#D" transform="matrix(-.77128 0 0 .77128 457.102 -81.03)"/><use filter="url(#A)" xlink:href="#E" transform="translate(-11.9 -180.4) scale(1.39273)"/><use filter="url(#A)" xlink:href="#F" transform="translate(-11.9 -180.4) scale(1.39273)"/><use filter="url(#A)" xlink:href="#G" transform="translate(-11.9 -180.4) scale(1.39273)"/><use filter="url(#A)" xlink:href="#H" transform="matrix(1.7646 0 0 1.7646 -53.89 -146.835)"/><use filter="url(#A)" xlink:href="#I" transform="matrix(1.7646 0 0 1.7646 -16.287 -146.835)"/><use filter="url(#A)" xlink:href="#J" transform="matrix(1.7646 0 0 1.7646 20.83 -146.835)"/><use filter="url(#A)" xlink:href="#K" transform="matrix(1.7646 0 0 1.7646 -53.89 -108.187)"/><use filter="url(#A)" xlink:href="#L" transform="matrix(1.7646 0 0 1.7646 -16.287 -108.187)"/><use filter="url(#A)" xlink:href="#M" transform="matrix(1.7646 0 0 1.7646 20.83 -108.187)"/><use filter="url(#A)" xlink:href="#N" transform="matrix(1.7646 0 0 1.7646 -53.89 -67.59)"/><use filter="url(#A)" xlink:href="#O" transform="matrix(1.7646 0 0 1.7646 -16.287 -67.59)"/><use filter="url(#A)" xlink:href="#P" transform="matrix(1.7646 0 0 1.7646 20.83 -67.59)"/><use filter="url(#A)" xlink:href="#Q" transform="translate(-11.9 -180.4) scale(1.39273)"/><use filter="url(#A)" xlink:href="#R" transform="translate(-2.57 -168.63) scale(1.39273)"/><use filter="url(#A)" xlink:href="#S" transform="matrix(-.77128 0 0 .77128 257.524 -216.263)"/><use filter="url(#A)" xlink:href="#T" transform="matrix(-.77128 0 0 .77128 257.524 -216.263)"/><g filter="url(#U)" transform="translate(214.3 180.4)"><use xlink:href="#V" transform="matrix(6.2187 0 0 6.2868 195.95 -84.8)"/></g><g transform="translate(35.95 32.05)"><use xlink:href="#W"/></g><g transform="translate(35.95 32.05)"><use xlink:href="#X"/></g><g transform="matrix(1.54453 0 0 1.54453 -17.3 -72.5)"><use xlink:href="#Y"/></g><g transform="translate(35.95 32.05)"><use xlink:href="#Z"/></g><g transform="matrix(1.54453 0 0 1.54453 319.1 324.6)"><use xlink:href="#aa"/></g><g><use xlink:href="#ab" transform="matrix(1.10663 -.1336 .16995 .6343 5.22 270.705)"/><use xlink:href="#ac" transform="matrix(.6343 -.16995 .16995 .6343 234.13 306.52)"/><use xlink:href="#ad" transform="scale(2.51) rotate(-15 30.192 209.732)"/><use xlink:href="#ae" transform="matrix(.6343 -.16995 .16995 .6343 32.35 272.75)"/><use xlink:href="#af" transform="matrix(.6343 -.16995 .16995 .6343 32.35 272.75)"/><use xlink:href="#ag" transform="matrix(.6343 -.16995 .16995 .6343 80.29 243.997)"/></g><g transform="translate(733.8 333.7) scale(1.17807)"><use xlink:href="#ah"/></g><g><use xlink:href="#ab" transform="matrix(.6161 -.07435 .0946 .35313 513.646 316.56)"/><use xlink:href="#ac" transform="matrix(.35313 -.0946 .0946 .35313 641.086 336.505)"/><use xlink:href="#ad" transform="matrix(1.3498 -.3616 .3616 1.3498 436.33 186.753)"/><use xlink:href="#ae" transform="matrix(.35313 -.0946 .0946 .35313 528.75 317.7)"/><use xlink:href="#af" transform="matrix(.35313 -.0946 .0946 .35313 528.75 317.7)"/><use xlink:href="#ag" transform="matrix(.35313 -.0946 .0946 .35313 555.44 301.693)"/></g><g transform="translate(35.95 32.05)"><use xlink:href="#ai"/><use xlink:href="#aj"/></g><g transform="matrix(1.14494 0 0 1.14494 961.25 333.95)"><use xlink:href="#ak"/></g><g><use xlink:href="#ab" transform="matrix(.5988 -.07224 .09193 .34322 747.32 317.293)"/><use xlink:href="#ac" transform="matrix(.34322 -.09193 .09193 .34322 871.18 336.68)"/><use xlink:href="#ad" transform="matrix(1.3119 -.3514 .3514 1.3119 672.18 191.13)"/><use xlink:href="#ae" transform="matrix(.34322 -.09193 .09193 .34322 762 318.4)"/><use xlink:href="#af" transform="matrix(.34322 -.09193 .09193 .34322 762 318.4)"/><use xlink:href="#ag" transform="matrix(.34322 -.09193 .09193 .34322 787.94 302.844)"/></g></g><use filter="url(#al)" xlink:href="#am" transform="matrix(-2.51367 0 0 2.51367 778.35 498.4)"/><use filter="url(#al)" xlink:href="#an" transform="matrix(-2.51367 0 0 2.51367 778.35 498.4)"/><use xlink:href="#ao" transform="translate(250.25 212.45)"/><use xlink:href="#ap" transform="translate(250.25 212.45)"/><g transform="translate(250.25 212.45)"><use xlink:href="#aq"/><use xlink:href="#ar"/></g><use xlink:href="#as" transform="translate(250.25 212.45)"/><use xlink:href="#at" transform="translate(250.25 212.45)"/><use xlink:href="#au" transform="translate(250.25 212.45)"/><use xlink:href="#av" transform="translate(250.25 212.45)"/><use xlink:href="#aw" transform="translate(250.25 212.45)"/><use xlink:href="#ax" transform="translate(250.25 212.45)"/><use xlink:href="#ay" transform="matrix(.16948 -.05 .05 .16948 370.45 525.55)"/><use xlink:href="#az" transform="matrix(.16948 -.05 .05 .16948 363.95 425.2)"/><g transform="matrix(.17622 -.00996 .00996 .17622 328.4 451.55)"><use xlink:href="#aA"/><use xlink:href="#aB" transform="scale(5.66554) rotate(3.236 8156.9 -5587.108)"/></g><g transform="matrix(.17622 -.00996 .00996 .17622 328.4 451.55)"><use xlink:href="#aC"/><use xlink:href="#aD" transform="scale(5.66554) rotate(3.236 8156.9 -5587.108)"/></g><g transform="matrix(.17622 -.00996 .00996 .17622 281.45 458.85)"><use xlink:href="#aE"/><use xlink:href="#aF" transform="matrix(5.6565 .31982 -.31982 5.6565 -1445.25 -2685.5)"/></g><g transform="matrix(.17622 -.00996 .00996 .17622 281.45 458.85)"><use xlink:href="#aG"/><use xlink:href="#aH" transform="matrix(5.6565 .31982 -.31982 5.6565 -1445.25 -2685.5)"/></g><use xlink:href="#aI" transform="translate(250.25 212.45)"/><use xlink:href="#aJ" transform="matrix(.16948 -.05 .05 .16948 440.2 308.5)"/><use xlink:href="#aK" transform="matrix(.16948 -.05 .05 .16948 440.2 308.5)"/><use xlink:href="#aL" transform="matrix(.16948 -.05 .05 .16948 463.95 301.25)"/><use xlink:href="#aM" transform="matrix(.16948 -.05 .05 .16948 463.95 301.25)"/><use xlink:href="#aN" transform="translate(250.25 212.45)"/><use xlink:href="#aO" transform="translate(250.25 212.45)"/><use xlink:href="#aP" transform="translate(250.25 212.45)"/><use xlink:href="#aQ" transform="translate(250.25 212.45)"/><use xlink:href="#aR" transform="translate(250.25 212.45)"/><use xlink:href="#aS" transform="matrix(.16948 -.05 .05 .16948 364.2 425.6)"/><g transform="translate(250.25 212.45)"><use xlink:href="#aT"/></g></g></g></svg>