<svg xmlns="http://www.w3.org/2000/svg" xmlns:xlink="http://www.w3.org/1999/xlink" preserveAspectRatio="none" width="672" height="547" viewBox="0 0 672 547"><defs><filter id="H" x="-20%" y="-20%" width="140%" height="140%" color-interpolation-filters="sRGB"><feColorMatrix in="SourceGraphic" values="0 0 0 0 0 0 0 0 0 0.8 0 0 0 0 0.8 0 0 0 1 0" result="result1"/></filter><path fill="#FFF" d="M672.75 67.1q0-20.35-14.4-34.75Q644 18 623.65 18H77.1q-20.35 0-34.75 14.35Q28 46.75 28 67.1v430.6q0 20.35 14.35 34.7 14.4 14.4 34.75 14.4h546.55q20.35 0 34.7-14.4 14.4-14.35 14.4-34.7V67.1z" id="a"/><path fill="#FC6" d="M1269.65 421.85h-771.7v599.8h771.7v-599.8z" id="c"/><path fill="#00152C" d="M557.55 1134.3q.95 14.45 1.8 28.95 16.2 247.45 81.95 476.3 2.2 7.65 4.4 15.2 10.9 37.1 39.45 104.35l.1.3q15.15 2.85 29-1.15 15.05-4.25 28.2-16.35.75-.5 1.4-1.15-24.2-80.35-31.9-107.05-1.4-4.7-2.65-9.55-52.35-186-51.1-399.05l179.85-49.9L966 1552.5l41.7 115.8q29 16.25 54.05-18.1l-163.3-562.7-7.85-34.9-333.05 81.7z" id="e"/><g id="f"><path fill="#FFF" d="M664.5 1962.3q-10.3-3.6-6.45-3.8l-25.7-15.8-33.55-20-47.95 28.75q-8.5 24.3 1.65 40.2l3.3-.4q-8 11.6 3.15 22.3Q713 1990.7 813.5 1897.7l-11.2-24.15-17.45 9.5q-113.95 75.3-126.3 75.35l5.95 3.9z"/><path fill="#00274F" d="M658.65 1922.4q-1.7-.8-7.7-4.3-5.65-3.5-7.95-4.7-1.15-.55-1.4-.7-2-.9-4.85-1.4-4.3-1.1-10.3-1.55-2.3-.35-4-.45-10.9 7.15-23.65 13.4l33.55 20q14.05-9.75 26.3-20.3m3-45.1q-1.65-.7-2.4-1-4.65 5.6-9.8 11 4.25.2 11.7 1.95 3.95.95 7.25 1.9 12.4 3.4 13.05 6.15.7 3.05-3.35 4-.8.15-12.4-4-2.95-1-6.45-2.45-1.5-.5-2.75-1.05-7-2.45-10.4-3.35-7.1 6.85-15.5 13.1 3.35.6 7.35 1.9 2.2.65 4.25 1.4 4.25 1.6 8.15 3.35 1.85.8 3.6 1.8 7.35 3.9 7.8 6 .2.8.15 1.45 20-17.65 34.5-37.35-3.25-.95-10.45-2.9-3.05-.8-6.1-1.5-3.7-.85-7.5-1-5.45-.25-10.7.6m15.55-25.5q-1.65.05-2.45-.35-4.8 10.1-11.5 19.4.35-.1.5-.1 6.05-1.75 14.4-1.6h.15q3.2.1 6.2.45 8.4.8 12.95 3.65 1.95 1.25 3.2 2.95 5.1-7.35 9.5-14.95-1.55-.8-3.5-1.9-5.15-3.95-6.1-4.55-6.1-3.9-8.7-3.95-1.5 0-3.3.25-5 .3-11.35.7m39.15-22.15q-2.8-1.95-4.85-2.65-5.45-2.5-15.95-.3-4.65 1.05-10.35 2.8-1.65-.45-2.2-.65-2.2 8.15-5.35 15.95.7 0 1.55-.05 3.7 0 11.4 1.3 2.35.5 4.95.95 2.35.6 8.5 3.8 4.55 2.35 7.45 1.7 1.3-.3 2.65 1.05 4.7-11.85 7.4-23.25-2.9.65-5.2-.65m8.45-25.25q-.6.95-2.2 1.35-2.1.45-3.55-.6-2.05-1.75-3.15-2.15-4.4-1.55-15.9.9-6 1.2-13.4 3.55-.85 8.8-2.65 17.3 1.35-.8 3.4-1.45 4.05-1.45 9.35-1.95 2.3-.3 4.75-.55 17.15-1.35 21.45 3.45 1.9-10.25 1.9-19.85m-10.25-23.9q-.4-.1-.75-.15-3.35-.8-4.6-1.5-3.55.45-6.8 1.15-3.8 1.05-6.9 2.95-2.05 1.45-3.25 2.25-1.2.8-1.5.85-1.3.3-2.2 0-.75-.35-1.05-1-.25-1.1-.35-1.6-.05 1.55.1 2.9.2 7.55-.15 14.9l17.65-4q12.35 1.25 15.3 1.8 3.75.85 4.75 2.15-.25-10.65-2.7-20.75-.6.35-1.55.55-1.75.4-6-.5m-30.1-20.75q1.8 9.9 2.4 19.4.05 1.15.15 2.15.35-1.4 2-2.3 2.6-1.25 11.15-3.7 4.25-1.45 10.35-3 3.7 1.7 9.65 1.7.15 0 .3-.05-2.45-7.9-6.2-15.7-13.85 4-29 1.15l-.8.35z"/><path fill="#CCC" d="M659.4 1922.6q2.6-.6 2.5-3.15.05-.65-.15-1.45-.45-2.1-7.8-6-1.75-1-3.6-1.8-3.9-1.75-8.15-3.35-2.05-.75-4.25-1.4-4-1.3-7.35-1.9-14.8-3.4-13 4.45.1.5 4.85 1.3 1.7.1 4 .45 6 .45 10.3 1.55 2.85.5 4.85 1.4.25.15 1.4.7 2.3 1.2 7.95 4.7 6 3.5 7.7 4.3.6.2.75.2m22.05-25.3q-.65-2.75-13.05-6.15-3.3-.95-7.25-1.9-7.45-1.75-11.7-1.95-7.19-.4-6.45 3-.125-.644 3.1.15 3.4.9 10.4 3.35 1.25.55 2.75 1.05 3.5 1.45 6.45 2.45 11.6 4.15 12.4 4 4.05-.95 3.35-4m-22.2-21q.75.3 2.4 1 5.25-.85 10.7-.6 3.8.15 7.5 1 3.05.7 6.1 1.5 7.2 1.95 10.45 2.9l2.35.65q3.2-.75 3.1-2.9 0-.5-.05-.85-.35-1.6-1.15-2.8-1.25-1.7-3.2-2.95-4.55-2.85-12.95-3.65-3-.35-6.2-.45h-.15q-8.35-.15-14.4 1.6-.15 0-.5.1-5.7 1.75-5.1 4.35.1.5 1.1 1.1m18.4-31.5q-5.1.6-4.25 4.45.3 1.3.6 1.55.25.5.75.65.8.4 2.45.35 6.35-.4 11.35-.7 1.8-.25 3.3-.25 2.6.05 8.7 3.95.95.6 6.1 4.55 1.95 1.1 3.5 1.9 2.65 1.25 4.4.85 2.9-.65 2.1-4.15-1.25-3.15-2.5-4.4-1.35-1.35-2.65-1.05-2.9.65-7.45-1.7-6.15-3.2-8.5-3.8-2.6-.45-4.95-.95-7.7-1.3-11.4-1.3-.85.05-1.55.05m23.8-24q-2.45.25-4.75.55-5.3.5-9.35 1.95-2.05.65-3.4 1.45-2.75 1.3-2.4 2.75.15.65 1.25 1.25l.2.1q.55.2 2.2.65 5.7-1.75 10.35-2.8 10.5-2.2 15.95.3 2.05.7 4.85 2.65 2.3 1.3 5.2.65 1.6-.35 2.4-1.4.4-1.1.15-2.25-.35-1.45-1.2-2.4-4.3-4.8-21.45-3.45m23.65-18.85q-.1-.5-.3-.75-1-1.3-4.75-2.15-2.95-.55-15.3-1.8l-17.65 4-2.6.55q-1.2.6-1.9 2.15-.4 1.05-.35 1.4.2.8 1.15 1.3.4.05.9.25.55.25 1.5.7.5-.1.8-.15 7.4-2.35 13.4-3.55 11.5-2.45 15.9-.9 1.1.4 3.15 2.15 1.45 1.05 3.55.6 1.6-.4 2.2-1.35.65-1 .3-2.45m-24.95-26.65q-8.55 2.45-11.15 3.7-1.65.9-2 2.3-.2.7.05 1.85l.1.3q.1.5.35 1.6.3.65 1.05 1 .9.3 2.2 0 .3-.05 1.5-.85 1.2-.8 3.25-2.25 3.1-1.9 6.9-2.95 3.25-.7 6.8-1.15 1.25.7 4.6 1.5.35.05.75.15 4.25.9 6 .5.95-.2 1.55-.55 2-.9 2.3-2.5 0-.7-.1-1.2-.55-2.55-3.85-2.8-.15.05-.3.05-5.95 0-9.65-1.7-6.1 1.55-10.35 3z"/><path fill="#036" d="M720.45 1773.95q3.3.25 3.85 2.8.1.5.1 1.2-.3 1.6-2.3 2.5 2.45 10.1 2.7 20.75.2.25.3.75.35 1.45-.3 2.45 0 9.6-1.9 19.85.85.95 1.2 2.4.25 1.15-.15 2.25-.8 1.05-2.4 1.4-2.7 11.4-7.4 23.25 1.25 1.25 2.5 4.4.8 3.5-2.1 4.15-1.75.4-4.4-.85-4.4 7.6-9.5 14.95.8 1.2 1.15 2.8.05.35.05.85.1 2.15-3.1 2.9l-2.35-.65q-14.5 19.7-34.5 37.35.1 2.55-2.5 3.15-.15 0-.75-.2-12.25 10.55-26.3 20.3l25.7 15.8q.15 0 .5-.1 12.35-.05 126.3-75.35 8.1-5.35 16.6-11 .3-.2.45-.25l-56.6-126.3-2.85-3.6q-13.15 12.1-28.2 16.35 3.75 7.8 6.2 15.7z"/></g><g id="g"><path fill="#00274F" d="M1114.95 1726.4q-.5.8-1.9 1.4-5.8 2.7-10.4 4.75-1.55.65-3.1 1.35-2.05 1.3-5.85 7.6-.4 1.1-3.2 6.8-1.05 1.95-2 3.15 7.35 4.75 15.35 8.85.2-2.05 1.4-4.2 2.75-4.5 9.65-9.1 2.45-1.75 5.3-3.4l.15-.05q7.4-4 13.35-5.35.3-.1.45-.1-10.05-5-19.2-11.7m-17.7-16.15q-.55.45-1.6 1.75-5.85.95-10.65 2.4-10.1 2.95-14 7.5-1.3 1.7-2.8 4.75-1.5 2.35-4.4 3 7.55 8.75 17.35 17.05.65-1.7 1.9-2.1 2.9-.7 5.8-5.05 3.95-5.8 5.75-7.4 2.05-1.6 3.9-3.1 6.2-4.75 9.35-6.45.7-.55 1.5-.75-6.4-5.25-12.1-11.6m-45.85-1.75q-1.6.35-2.7-.1 4.6 8.45 11.15 16.4 1.5-6.1 17.15-13 2.45-1.1 4.7-1.75 4.8-1.95 9.05-2.7 2.05-.3 3.6-.3-5.55-6.7-10.45-14.05-7.7 1.6-13.45 3.2-11.25 3.2-14.55 6.5-.7 1-1.75 3.65-.7 1.45-2.75 2.15m20.85-33.5q-.7.65-2.1 1.2-.15 0-1.75-.15-1.2-.25-3.75-.5-3.65-.2-7.5.7-3.25.7-6.6 2.15-.8 1-3.25 3.45-.35.05-.65.3-3.35 2.95-5.15 3.35-.95.2-1.6.35 2.6 10.1 7.45 19.45.15-1.55 3.1-4.05 2.3-1.9 12.75-8.85l17.3-4.75q-3.75-6.25-7-13.05l-1.25-2.6q.1.5.35 1.6.05.8-.35 1.4m-8.7-25.05h-.85q-12.2 9.55-26.2 12.7.25 8.55 1.9 16.65.15-.05.3-.05 5.15-2.9 7.6-6.15 6.25-1.4 10.65-2.25 8.75-1.8 11.6-1.75 1.85-.05 2.8 1.05-.4-.95-1-1.95-3.75-8.65-6.8-18.25M1173 1765q-.1.15-.85 1.2-1.4 2.15-4.85 7.85-3.6 5.85-4.9 7.5 15.85 3.55 33 5.55l20-33.4q-14.1.5-27.05-.8-1.45 1-3.2 2.25-5.15 3.3-8.4 6.1-2.45 2.05-3.75 3.75m-32.65-24.05l.05.15q-.55.6-1.75 1.9-5 1.6-9.75 4.6-3.15 1.85-6.1 4.4-2.35 1.85-4.65 4.05-5.6 5.35-7.85 7.55 22.05 10.55 48 16.85-.3-.6-.7-1.35-.45-2.1 4.2-9.05 1-1.6 2.35-3.05 2.6-3.65 5.7-7.1 1.5-1.5 3-3.05 3.05-3.05 5.6-5.3-10.35-1.55-19.85-4.1-2.55 2.25-7.55 7.8-.95 1.05-2 2.3l-4.5 5.05q-8.2 9.15-9.15 9.35-4 1.05-4.85-1.95-.8-2.7 8.8-11.8 2.4-2.25 5.35-4.75 5.8-5.05 9.55-7.4-7.15-2.25-13.9-5.1z"/><path fill="#CCC" d="M1107.85 1722.6q-3.15 1.7-9.35 6.45-1.85 1.5-3.9 3.1-1.8 1.6-5.75 7.4-2.9 4.35-5.8 5.05-1.25.4-1.9 2.1-.4 1.75-.05 4.9.95 3.5 3.85 2.7 1.75-.4 3.55-2.85.95-1.2 2-3.15 2.8-5.7 3.2-6.8 3.8-6.3 5.85-7.6 1.55-.7 3.1-1.35 4.6-2.05 10.4-4.75 1.4-.6 1.9-1.4.4-.45.45-.95.1-.4-.35-1.65-1-3.8-5.7-1.95-.8.2-1.5.75m-12.2-10.6q1.05-1.3 1.6-1.75 0-.15.15-.2.45-.95.3-1.6-.3-1.45-3.35-1.4-1.55 0-3.6.3-4.25.75-9.05 2.7-2.25.65-4.7 1.75-15.65 6.9-17.15 13-.55 1.5-.1 2.7.3 1.3 1.3 1.9 1.2.75 2.75.25 2.9-.65 4.4-3 1.5-3.05 2.8-4.75 3.9-4.55 14-7.5 4.8-1.45 10.65-2.4m-45.2-10.75q-2.95 2.5-3.1 4.05-.05.55 0 .85.4 1.65 1.35 2.25 1.1.45 2.7.1 2.05-.7 2.75-2.15 1.05-2.65 1.75-3.65 3.3-3.3 14.55-6.5 5.75-1.6 13.45-3.2.35-.1.8-.2.65-.8 1.05-1.4.5-.3.6-.5.6-.95.45-1.75-.1-.3-.95-.95-1.4-1.05-2.75-1.1l-2.6.55-17.3 4.75q-10.45 6.95-12.75 8.85m20.9-31.1q-.95-1.1-2.8-1.05-2.85-.05-11.6 1.75-4.4.85-10.65 2.25-2.45 3.25-7.6 6.15-.15 0-.3.05-2.8 1.65-2.25 4.2.3.6.55 1.05 1 1.5 3.2 1.3.65-.15 1.6-.35 1.8-.4 5.15-3.35.3-.25.65-.3 2.45-2.45 3.25-3.45 3.35-1.45 6.6-2.15 3.85-.9 7.5-.7 2.55.25 3.75.5 1.6.15 1.75.15 1.4-.55 2.1-1.2.4-.6.35-1.4-.25-1.1-.35-1.6l-.1-.3q-.2-1-.8-1.55m100.8 96.05q.75-1.05.85-1.2 1.3-1.7 3.75-3.75 3.25-2.8 8.4-6.1 1.75-1.25 3.2-2.25 3.75-2.9 3.65-3.4-2.1-7.75-13.55 2.05-2.55 2.25-5.6 5.3-1.5 1.55-3 3.05-3.1 3.45-5.7 7.1-1.35 1.45-2.35 3.05-4.65 6.95-4.2 9.05.4.75.7 1.35 1.15 2.1 3.7 1.55.15-.05.4-.45 1.3-1.65 4.9-7.5 3.45-5.7 4.85-7.85m-31.75-25.1l-.05-.15q.5-.8.35-1.45-.55-2.6-6.55-1.4-.15 0-.45.1-5.95 1.35-13.35 5.35l-.15.05q-2.85 1.65-5.3 3.4-6.9 4.6-9.65 9.1-1.2 2.15-1.4 4.2-.1 1.6.25 3.2.2.25.3.6 1.1 1.95 4.1 1.05l1.8-1.55q2.25-2.2 7.85-7.55 2.3-2.2 4.65-4.05 2.95-2.55 6.1-4.4 4.75-3 9.75-4.6 1.2-1.3 1.75-1.9m21.05 4.7q-.95-3.5-7.2.25-3.75 2.35-9.55 7.4-2.95 2.5-5.35 4.75-9.6 9.1-8.8 11.8.85 3 4.85 1.95.95-.2 9.15-9.35l4.5-5.05q1.05-1.25 2-2.3 5-5.55 7.55-7.8 2.5-2.4 2.85-1.65z"/><path fill="#036" d="M1003.8 1661.45l-.7 4.35 9.25 138.15q.15 0 .5.05 10.15.9 19.85 2 135.95 13 146.8 7.2.35-.1.5-.15l15.4-25.95q-17.15-2-33-5.55-.25.4-.4.45-2.55.55-3.7-1.55-25.95-6.3-48-16.85l-1.8 1.55q-3 .9-4.1-1.05-.1-.35-.3-.6-.35-1.6-.25-3.2-8-4.1-15.35-8.85-1.8 2.45-3.55 2.85-2.9.8-3.85-2.7-.35-3.15.05-4.9-9.8-8.3-17.35-17.05-1.55.5-2.75-.25-1-.6-1.3-1.9-.45-1.2.1-2.7-6.55-7.95-11.15-16.4-.95-.6-1.35-2.25-.05-.3 0-.85-4.85-9.35-7.45-19.45-2.2.2-3.2-1.3-.25-.45-.55-1.05-.55-2.55 2.25-4.2-1.65-8.1-1.9-16.65-15.3 3.3-32.7-1.2z"/><path fill="#FFF" d="M1271.5 1756.55l-56.1-2.85-20 33.4-15.4 25.95q3.35-1.6-3.95 6.5l3.45-6.35q-10.85 5.8-146.8-7.2l-19.8-.3 1.25 26.6q132.45 35 279.2-17.15 4.7-14.4-7.65-21.05 1.6-.55 3.15-1.2 1.45-18.95-17.35-36.35z"/></g><g id="h"><path fill="#FFF" d="M966.25-328.1l-78.45 47.05v344.7q95.462 23.232 221.9 0v-350.7l-73.45-39.05q-8.55 28.45-36 30-29.6-1.85-34-32z"/><path d="M887.8-281.05l78.45-47.05q4.4 30.15 34 32 27.45-1.55 36-30l73.45 39.05v-49.15H887.8v55.15z"/></g><g id="i"><path fill="#B44F1D" d="M851.7 231.9q26 29.707 52 0v-43.5q-26 21.943-52 1.4v42.1z"/><path fill="#743312" d="M851.7 153.9v35.9q26 20.543 52-1.4v-34.5h-52z"/></g><path d="M1196.6-311.95q-19.45 0-33.25 13.75-13.75 13.8-13.75 33.25t13.75 33.2q13.8 13.8 33.25 13.8t33.2-13.8q13.8-13.75 13.8-33.2 0-19.45-13.8-33.25-13.75-13.75-33.2-13.75z" id="j"/><path d="M1250.7-357.05q-12.85-12.85-31.1-12.85t-31.15 12.85q-12.85 12.9-12.85 31.15t12.85 31.1q12.9 12.9 31.15 12.9t31.1-12.9q12.9-12.85 12.9-31.1t-12.9-31.15z" id="l"/><path d="M1196.6-311.95q-19.45 0-33.25 13.75-13.75 13.8-13.75 33.25t13.75 33.2q13.8 13.8 33.25 13.8t33.2-13.8q13.8-13.75 13.8-33.2 0-19.45-13.8-33.25-13.75-13.75-33.2-13.75z" id="n"/><path d="M1250.7-357.05q-12.85-12.85-31.1-12.85t-31.15 12.85q-12.85 12.9-12.85 31.15t12.85 31.1q12.9 12.9 31.15 12.9t31.1-12.9q12.9-12.85 12.9-31.1t-12.9-31.15z" id="p"/><path fill="#B44F1D" d="M310.1 77.05q-56.25 89.1-33.1 191.65 23.2 102.75 112.35 159 88.85 56.15 191.6 32.95Q683.5 437.5 739.85 348.5q56.05-89 32.85-191.75Q749.55 54.2 660.6-2.15 571.55-58.2 469-35.05q-102.75 23.2-158.9 112.1z" id="r"/><g id="s"><path d="M717.8 9.5q.107.596.15 1.45l.15-.05-.3-1.4M462.4-97.6l5.7 23.4q4 18.7 3.6 30.25-.4 14.1-6.95 24.6Q457.8-8.2 442.25 1.6L417.5 7.15q-3.05-3.7-5.3-10.6-1.25-4.3-3.35-13.45l-6.3 1.45Q395.05 8.7 390.4 15q-6.85 9.6-23.55 13.4-16.25 3.65-28.4-5.2-7.85-5.85-12-15.05l.7 3.05q-2.15 6.9-5.65 27.45-3.95 22.7-7.05 33.9-11.3 41.9-37.5 47.85-2.1.45-7.65-.8-6.75-1.55-13.1-4.35-18.05-8.05-21.4-22.85-.1-.5-1.9-9.9-.4-7.85 5.7-2.5l-3.5-15.4-3.2.75q1.65 16.15-6.4 26.25-7.35 9.4-22.15 12.75-7.85 1.8-13.8-1.9 3.2 6.35 7.35 12.2-15.65 10.8-26.9 28.2-21.45 34.25-12.6 73.65 8.95 39.55 43.05 61.05 34.25 21.7 73.65 12.8 39.4-8.9 60.9-43.2 21.7-34.1 12.75-73.65-5.3-23.45-19.45-40.55 0-.15.15-.2 6.7 7.45 15.95 13.25 26.25 16.6 56.3 9.8 30.25-6.85 46.8-33.05 10.05-15.95 11.5-33.5 6.55-2.55 12.9-5.8 7.95 12.55 21.2 21.35 24.35 15.65 52 9.4 27.15-6.15 42.2-30.15 8.4 10.3 20.2 18.25 31.35 21.3 68.3 14.35 5.15-1.05 10.05-2.45-.3 10.5 1.8 21.55 7.65 39.7 41 62.35 33.35 22.75 73.1 15.3 39.65-7.45 62.4-40.8 15.7-23.3 17.05-49.45-8.4 9.15-20 11.75-16.4 3.7-33.55.95-23.65-3.6-27.3-19.85-.8-3.5-1.4-13.7-.6-10-1.7-14.8-8.6 5.15-12.85 7.3-6.95 3.6-12.1 4.75-18.5 4.2-34.3-14.9-13.55-16.55-19.15-41.3-.8-3.7-.65-17.25.25-9.9-.25-15.15-3.05.65-10.6 3.9-7.85 3.5-11.85 4.4-12.4 2.8-26.55-1.6-13.5-4.45-24.6-13.9-11.45-9.6-16.85-21.5-5.8-12.9-3-25.2-5.5 13.9-16.85 22.7-12.9 10.2-34.95 15.15-30.35 6.9-45.45-2.4-4.9-2.9-13.85-11.2-10.15-9.75-17.05-14.75Q481.2-44.6 470-73.8q-3.85-10.25-7.6-23.8z"/><path fill="#300" d="M680-106.2q-4.75-14.15-14.4-27.15-22.7-30.2-60.1-35.65-37.55-5.35-67.85 17.55-12.85 9.7-21.25 22.05-14.4-18.2-35.5-31.5-49.45-31.25-106.55-18.35-56.9 12.85-88.15 62.3-25.75 40.8-21.4 86.8-6.85.55-13.6 2.05-37 8.35-57.15 40.3-20.15 32.1-11.8 69.1 2.55 11.25 7.3 21.15 5.95 3.7 13.8 1.9 14.8-3.35 22.15-12.75 8.05-10.1 6.4-26.25l3.2-.75 3.5 15.4q-6.1-5.35-5.7 2.5 1.8 9.4 1.9 9.9 3.35 14.8 21.4 22.85 6.35 2.8 13.1 4.35 5.55 1.25 7.65.8 26.2-5.95 37.5-47.85 3.1-11.2 7.05-33.9 3.5-20.55 5.65-27.45l-.7-3.05q4.15 9.2 12 15.05 12.15 8.85 28.4 5.2 16.7-3.8 23.55-13.4 4.65-6.3 12.15-30.45l6.3-1.45q2.1 9.15 3.35 13.45 2.25 6.9 5.3 10.6l24.75-5.55q15.55-9.8 22.5-20.95 6.55-10.5 6.95-24.6.4-11.55-3.6-30.25l-5.7-23.4q3.75 13.55 7.6 23.8 11.2 29.2 26.35 40.35 6.9 5 17.05 14.75 8.95 8.3 13.85 11.2 15.1 9.3 45.45 2.4 22.05-4.95 34.95-15.15 11.35-8.8 16.85-22.7-2.8 12.3 3 25.2 5.4 11.9 16.85 21.5 11.1 9.45 24.6 13.9 14.15 4.4 26.55 1.6 4-.9 11.85-4.4 7.55-3.25 10.6-3.9-.043-.854-.15-1.45l.3 1.4-.15.05q.5 5.25.25 15.15-.15 13.55.65 17.25 5.6 24.75 19.15 41.3 15.8 19.1 34.3 14.9 5.15-1.15 12.1-4.75 4.25-2.15 12.85-7.3 1.1 4.8 1.7 14.8.6 10.2 1.4 13.7 3.65 16.25 27.3 19.85 17.15 2.75 33.55-.95 11.6-2.6 20-11.75.45-11.6-1.8-23.65-7.5-39.85-40.85-62.6-17.15-11.8-36.05-15.35Q806.1 11.5 807.85.3q5.45-40-18.7-72.2-24.4-32.5-64.35-38.15-23.8-3.4-44.8 3.85z"/></g><path fill-opacity=".369" d="M663.65-50.65Q659.8-61.9 651.6-71.9q-19.1-23.4-51.75-27.05-32.6-3.6-59.2 14.75-11.25 7.6-18.7 17.45Q509.5-80.7 491.45-91q-42.35-23.7-92.25-12.8-49.85 11.15-78.2 50.45-23.1 32.45-20.15 68.45-5.8.65-11.8 1.8-32.3 7.3-50.6 32.55-18.25 25.6-11.7 54.55 3.3 14.6 12.1 25.8-13.85 8.9-23.7 22.8-19.55 27.2-12.6 58.1 7 30.85 36.35 47.05 29.35 16.5 63.65 8.95 34.5-7.5 53.85-34.85 19.7-27.1 12.75-57.95-4.15-18.35-16.25-31.5-.05-.15.15-.15 5.7 5.8 13.45 10.15 22.45 12.65 49 6.8 26.3-5.75 41.15-26.7 9.25-12.7 10.75-26.4 5.9-2.25 11.4-4.8 6.8 9.8 18.05 16.4 20.8 12 44.95 6.55 23.8-5.25 37.3-24.15 7 7.9 17 13.95 26.85 16.35 59.25 10.4 4.75-.9 9.05-2.2-.5 8.4 1.1 17 5.65 31.1 34.3 48.5 28.55 17.35 63.25 10.9 34.75-6.5 55.2-33.1 20.55-26.6 14.7-57.75-5.6-31-34.3-48.55-14.65-8.8-31.1-11.35 3.4-8 5.15-16.85 5.7-31.55-14.95-56.5-20.4-25.1-55.05-28.9-20.65-2.45-39.05 3.7z" id="t"/><g id="u"><path fill="#C00" d="M368.55-268.15q2.85-.15 5.6-.05 6.45.3 12.25 2.2 2.65.9 5.1 2.05.45.25.85.4 3.9 1.75 6.2.9.8-.25 1.4-.8.05-.1.15-.15 1.65-1.85 1.65-6.25 0-10.95-9.05-18.65-8.525-7.293-20.45-7.7-21.405 7.71-19.5 30.95 4.446-1.55 10.05-2.35 2.75-.35 5.75-.55z"/><path fill="#580000" d="M372.25-296.2h-1.3q-11.45 0-19.9 6.2-1 .7-1.9 1.5-9.05 7.7-9.05 18.65 0 3.85 1 5.8 1.8 3.6 6.9.85.15-.05.3-.15.65-.3 1.3-.65 1.497-.68 3.15-1.25-1.905-23.24 19.5-30.95z"/></g><g id="v"><path fill="#FFF" d="M499.6 421.55q-6.25.75-10.8 4.5 7.75 5.85 16.6 10.6 6.95 3.85 13.85 6.7l-1.1-10.05q-.6-5.65-5.95-9.2-5.5-3.3-12.6-2.55M556 436.2q-.6-5.6-5.9-9-5.55-3.45-12.65-2.7-1.1.25-2.25.5-5.5 1.1-9.4 4.85-4.35 4.5-3.8 10.1l.55 4.5q15.8 5.7 31.5 5.75 1.9.05 3.55-.2l-1.6-13.8m31.25-11.95q-5.5-3.35-12.4-2.6-7.1.75-11.85 5.4-4.3 4.5-3.75 10.1l1.4 12.85q9.75-.85 19.45-3.7 7.55-2.4 14.05-5.7l-.95-7.25q-.6-5.6-5.95-9.1m31.9-15.85q-7.05.9-11.6 5.35-4.55 4.55-4 10.15l1.15 10.1q13.1-9.9 21.15-25.25-3.05-.65-6.7-.35M544.3 280.5q7.1-.75 11.65-5.3 4.55-4.4 3.8-10.2l-1.05-10.7q-17.85-7.15-35.3-7.25l2.35 21.75q.65 5.6 5.9 8.95 5.55 3.5 12.65 2.75m-57.65-25.65l1.9 16.8q.6 5.6 5.95 9.1 5.5 3.5 12.55 2.6 6.95-.75 11.55-5.3 4.7-4.5 4-10.05l-2.25-20.95q-11.7.45-23.25 4.05-5.55 1.65-10.45 3.75m106.9 20.6q-9.9-8.6-21.85-15-5-2.75-9.9-4.85l1.8 16.15q.6 5.6 6 9.15 5.65 3.4 12.55 2.7 5.5-4.1 11.4-8.15M471.95 296l-3.15-28.2q-.05-.85-.2-1.5-10.35 8.95-17.05 21.8-2.6 5-4.85 10.55-1.95 5-3 10v.15q4.75 3 10.5 2.85 1.15-.1 2.15-.1 7.1-.75 11.5-5.3 4.65-4.6 4.1-10.25z"/><path fill="#C00" d="M593.55 275.45q-5.9 4.05-11.4 8.15-91.3 67.1-46.95 141.4 1.15-.25 2.25-.5 7.1-.75 12.65 2.7 5.3 3.4 5.9 9l1.6 13.8q1.55.05 3.05 0l-1.4-12.85q-.55-5.6 3.75-10.1 4.75-4.65 11.85-5.4 6.9-.75 12.4 2.6 5.35 3.5 5.95 9.1l.95 7.25q5.6-2.95 10.55-6.6l-1.15-10.1q-.55-5.6 4-10.15 4.55-4.45 11.6-5.35 3.65-.3 6.7.35 2.6-4.95 4.4-10.25 13.95-36.45-3.35-77-11.25-26.7-31.7-44.7-.85-.7-1.65-1.35z"/><path fill="#600" d="M468.8 267.8l3.15 28.2q.55 5.65-4.1 10.25-4.4 4.55-11.5 5.3-1 0-2.15.1-5.75.15-10.5-2.85v-.15q-8.3 32.1 6.5 67 5.75 13.35 13.7 24.6 10.4 14.7 24.9 25.8 4.55-3.75 10.8-4.5 7.1-.75 12.6 2.55 5.35 3.55 5.95 9.2l1.1 10.05q1.65.6 3.3 1.1l-.55-4.5q-.55-5.6 3.8-10.1 3.9-3.75 9.4-4.85-44.35-74.3 46.95-141.4-6.9.7-12.55-2.7-5.4-3.55-6-9.15l-1.8-16.15q-1.65-.65-3.1-1.3l1.05 10.7q.75 5.8-3.8 10.2-4.55 4.55-11.65 5.3-7.1.75-12.65-2.75-5.25-3.35-5.9-8.95l-2.35-21.75h-3.05L522.6 268q.7 5.55-4 10.05-4.6 4.55-11.55 5.3-7.05.9-12.55-2.6-5.35-3.5-5.95-9.1l-1.9-16.8q-10.15 4.65-18.05 11.45.15.65.2 1.5z"/></g><path d="M208.35 543.35q5.6-6.6 5.6-15.9t-5.6-15.9q-5.55-6.6-13.4-6.6-7.85 0-13.45 6.6-5.55 6.6-5.55 15.9t5.55 15.9q5.6 6.6 13.45 6.6t13.4-6.6z" id="w"/><path fill="#FFF" d="M207.15 529.15q2.8-2.75 2.8-6.7t-2.8-6.75q-2.75-2.75-6.7-2.75t-6.75 2.75q-2.75 2.8-2.75 6.75t2.75 6.7q2.8 2.8 6.75 2.8t6.7-2.8z" id="x"/><path d="M208.35 543.35q5.6-6.6 5.6-15.9t-5.6-15.9q-5.55-6.6-13.4-6.6-7.85 0-13.45 6.6-5.55 6.6-5.55 15.9t5.55 15.9q5.6 6.6 13.45 6.6t13.4-6.6z" id="y"/><path fill="#FFF" d="M207.15 529.15q2.8-2.75 2.8-6.7t-2.8-6.75q-2.75-2.75-6.7-2.75t-6.75 2.75q-2.75 2.8-2.75 6.75t2.75 6.7q2.8 2.8 6.75 2.8t6.7-2.8z" id="z"/><g id="A"><path d="M900.85 424.2l-8.45-11.45q-26.8 31.9-76.15 49.8-27.05 9.7-62.3 15.1l-5.6 56.05q33.6-6.25 62.1-14.75 76.95-22.8 113.95-63.05l-23.55-31.7z"/><path fill="#913F17" d="M919.95 368.55Q921.1 324.5 848.8 219q61.55 95.25 59.75 133-2.35 51.6-16.15 60.75l8.45 11.45q17.85-11.6 19.1-55.65z"/><path fill="#B44F1D" d="M834.15 103.35l-6 4.05q-5.7-6.3-13.7-17.2-10.3-13.4-16-19.05-9.6-8.95-20.2-12.45-40.15-13.3-68.9-9.45-35.2 4.9-45.05 35.35-4.7 13.7-5.55 17.45-.7 3.55 4.5 10.65 12.35-3.65 33.35-15.3 19.2-9.25 29.1-5.9 8.2 2.7 12.8 8.95 3.25 4 6.95 12.65 3.5 8.8 6 12.3 4.6 6.2 11.85 8.65 8.45 2.85 22.65.6l6.2-3.9q1 2.15 1.6 4 1.65 4.35 2.95 8.65 30 41.4 52.1 75.6 72.3 105.5 71.15 149.55-1.25 44.05-19.1 55.65l23.55 31.7q32.85-35.65 34.2-85 2.7-100.4-129.3-260.4 2.55-3.1 4.5-6.4.25-.4.35-.75z"/></g><g id="B"><path fill="#B44F1D" d="M356.65 781.4q-21.25-38.65-11.85-57.65l-36.45-15.3q-10.15 47.35 13.9 90.45 48.65 87.9 243.65 158.55-.55 3.8-.55 7.8-.05.5 0 .85l3.25-6.55q8.15 2.4 20.45 7.65 15.55 6.4 23.4 8.15 12.8 3.1 23.9.8 41.25-9.2 63.95-27.1 27.75-21.9 20.95-53.1-3.15-14.3-4.1-17.9-1.15-3.65-9.4-7.1-8.65 9.5-20.8 30.3-12 17.65-22.05 19.7-8.5 1.9-15.8-1-4.75-1.95-12.3-7.5-7.4-5.7-11.5-7.5-6.9-3-14.55-1.25-8.7 1.9-19.65 10.95l-3.35 6.55q-2.05-1.55-3.65-2.65-3.5-3-6.7-6.15-47.05-20.4-83.3-38.5-116.2-54.05-137.45-92.5z"/><path d="M344.8 723.75l13 5.6q7-41.15 40.3-81.8 18.2-22 45.85-44.8l-23.3-50.9q-26.25 22.4-46.15 44.2-54.85 58.75-66.15 112.4l36.45 15.3z"/><path fill="#913F17" d="M357.8 729.35l-13-5.6q-9.4 19 11.85 57.65 21.25 38.45 137.45 92.5-101.35-50.7-119.25-84.05-24.2-45.7-17.05-60.5z"/></g><path d="M675.45 683.85l-2.65-11.9-38.1 8.6-2.6-11.45-25.25 5.7-11.45-50.6-12.05 2.7-2.95-13.05-27.85 6.3 2.95 13.05-11.05 2.5L570.3 750l-11.9 2.7-2.75-12.25-37.15 8.4 8.6 38.15 10.6-2.4 2.8 12.5 13-2.95 5.6 24.6 11.45-2.6 5.85 26.05 13.15-2.95 6.1 26.85 12.25-2.75 8.1 35.85 129.25-29.25-2.7-11.9-.15.05-5.95-26.35 12.7-2.85-8.25-36.35 11.6-2.6L731.75 698l-11.6 2.6-3.1-13.65-13.5 3.05-2.7-11.9-25.4 5.75m-26.25 6.4l25.1-5.7 11.2 49.7 12.85-2.9-8.5-37.6 13.85-3.1 3.3 14.45 13-2.95 20.4 90.5-13 2.95 8.2 36.2-11.4 2.55 6 26.5-104.55 23.65-5.7-25.2-11.7 2.65-5.8-25.75-12.55 2.8-6-26.35-12.7 2.9-5.5-24.45-10.8 2.4-3.1-13.65-13.15 3-5.35-23.8 24.1-5.45 2.6 11.55 13.05-2.95 8.6 38.1 12.05-2.7-37.1-164.3 26.65-6.05 25.65 113.5 12.25-2.75-11.55-50.95 24.9-5.65 11.65 51.45 12.05-2.7-9-39.9z" id="C"/><g id="D"><path fill="#9CC" d="M-90.8 95.55q-1.096.47-1.7 1.35-2.25 3.25 3.2 10.45 5.45 7.15 15.4 14 9.95 7 18.55 9.55 5.538 1.664 8.45.95 1.64-.4 2.45-1.55.74-1.07.65-2.6-.192-3.017-3.85-7.85-5.45-7.2-15.4-14.1-9.95-6.9-18.6-9.5-6.275-1.85-9.15-.7M42.4-45.85q-.037.12-.05.15l.15-.2q-.03.03-.1.05M42.9-28q.05-.05.05-.15l-.15.3.05-.05q0-.05.05-.05V-28m-8.75-6.3q-.05.1-.05.15l.15-.25-.1.1M36.9-40q.046-.077.1-.15.05-.046.1-.1.35-.5 1.55-.15.35.05.85.2 1.9.7 4.05 2.3 2.25 1.6 3.45 3.2.2.3.4.45.703 1.078.4 1.65 2.052-1.345 3.15-3.35.7-1.2 1.1-2.65-.4.5-1.7.2-.25-.15-.6-.25-1.9-.65-4.1-2.25-2.2-1.6-3.45-3.2-.3-.4-.45-.7-.7-1.05-.35-1.55-1.25.8-2.25 1.8-1.635 1.933-2.3 4.6l.05-.05m1 .5h-.05v.15l-.1.1q.02.032 0 .05-.03.563.8 1.55 1 1.3 2.8 2.65 1.8 1.25 3.4 1.85 1.36.486 1.7.1h.05q0-.05.05-.05l.05-.05.15-.25q.075-.49-.7-1.55-1-1.2-2.8-2.5-1.85-1.4-3.45-1.95-1.25-.5-1.7-.25l-.15.05-.05.1z"/><path fill="#81ADAD" d="M51.9-40.55q-.2-.15-.4-.45-1.2-1.6-3.45-3.2-2.15-1.6-4.05-2.3-.5-.15-.85-.2-1.2-.35-1.55.15-.054.035-.1.05-.057.082-.1.15-.35.5.35 1.55.15.3.45.7 1.25 1.6 3.45 3.2t4.1 2.25q.35.1.6.25 1.3.3 1.7-.2l.1-.1.1-.1q.103-.154.1-.35.107-.546-.45-1.4m-.8 1.1l-.05.05q-.3.45-1.8-.1t-3.3-1.85Q44.1-42.7 43.1-44q-.885-1.08-.8-1.6l.05-.05v-.05q.013-.03.05-.15.07-.02.1-.05l.1-.05q.45-.25 1.7.25 1.6.55 3.45 1.95 1.8 1.3 2.8 2.5.63.863.7 1.35.03.096 0 .15l-.15.25v.05m-14.25-.5v.05l-.05.05v.05q-.05.05-.05.1-.05.35 0 .45.25.55.4.8.05.05.05.1.2.35.45.65 1.3 1.65 3.5 3.25t4.05 2.25q.3.1.55.2.6.1 1 .1.306 0 .7-.45.063-.01.1-.05.1 0 .15-.05l.05-.05q.025-.038.05-.1.303-.572-.4-1.65-.2-.15-.4-.45-1.2-1.6-3.45-3.2-2.15-1.6-4.05-2.3-.5-.15-.85-.2-1.2-.35-1.55.15-.05.054-.1.1-.054.073-.1.15l-.05.05m1 .45h.05l.05-.1.15-.05q.45-.25 1.7.25 1.6.55 3.45 1.95 1.8 1.3 2.8 2.5.775 1.06.7 1.55l-.15.25-.05.05q-.05 0-.05.05h-.05q-.34.386-1.7-.1-1.6-.6-3.4-1.85-1.8-1.35-2.8-2.65-.83-.987-.8-1.55.02-.018 0-.05l.1-.1v-.15z"/><path fill="#9CC" fill-opacity=".51" d="M51.05-39.4l.05-.05v-.05l.15-.25q.03-.054 0-.15-.07-.487-.7-1.35-1-1.2-2.8-2.5-1.85-1.4-3.45-1.95-1.25-.5-1.7-.25l-.1.05-.15.2v.05l-.05.05q-.085.52.8 1.6 1 1.3 2.85 2.65 1.8 1.3 3.3 1.85 1.5.55 1.8.1M37.2-38.35q0-.05-.05-.1-.15-.25-.4-.8.15.55.05.65-12.25 7.9-16.95 18.85-2.9 4.8-6.7 4.3-.5.05-11.65 1.55-11.4 1.55-20.6 12.75-.1.05-.15.2-.5.6-1.05 1.3-.1.05-.15.15-.15.15-.2.4l-.05-.05L-54 46.7q-.08.028-.15.05l-36.65 48.8q2.875-1.15 9.15.7 8.65 2.6 18.6 9.5 9.95 6.9 15.4 14.1 3.658 4.833 3.85 7.85l60.9-80.9q.092.026.15.05l8.8-12.1-.05-.05q.15-.1.25-.3.1-.1.15-.2.05-.1.1-.25v-.1Q37.35 25 31.7-2.8q-.6-5.7 5.15-10.85 5.75-5.2 9.9-18.25-.4 0-1-.1-.25-.1-.55-.2-1.85-.65-4.05-2.25-2.2-1.6-3.5-3.25-.25-.3-.45-.65m-3.1 4.2q0-.05.05-.15l.1-.1-.15.25m8.85 6q0 .1-.05.15v.05q-.05 0-.05.05l-.05.05.15-.3m-33.2 73.3L8 44.95q-1.35-.15-2.75-.35 1.5.15 2.95.35.825.1 1.55.2M8.2 51.7q-1.45.2-2.95.3 1.4-.15 2.75-.3l1.6-.2-1.4.2z"/></g><path fill="#CFF" fill-opacity=".569" d="M962.5 379.75H147.9v1350q359.217 215.557 814.6 0v-1350z" id="E"/><path fill="#5FFFFF" fill-opacity=".769" d="M1090.8 96.1q187.5-6.05 187.5-14.55 0-8.55-187.5-14.6-187.5-6-452.65-6t-452.65 6Q-2 73-2 81.55q0 8.5 187.5 14.55 187.5 6 452.65 6t452.65-6z" id="F"/><path fill="#295454" d="M425 466.45l-3.8 2.25-8.95 1.5v.25h-5.2q-3.55 13.95 4.7 26.95l.25-.35q2.2-5.35 3.1-10.7 2.55 5.9 7.25 11.2l.15-.45q1.5-8.15 1-16 4.7 6.15 12.5 10.2l.05-.55q-2-13.9-11.05-24.3M383.75 300.9q-5 .05-8.6 4.6-3.1 4.05-3.55 9.5-4.78-3.18-8.5-5.65-12.216-8.13-12.6-8.4l19.55 15.65q-4.91-.706-9.1-1.3-23.367-3.377-24.5-3.6 15.754 3.49 23.95 5.3l8.95 1.95q-5.923 3.002-10.8 5.45-22.113 11.23-22.85 11.6 14.073-5.862 22.4-9.35 12.05-5.02 12.05-5.05-10.107 13.96-13.95 19.2-2.07 2.9-2.3 3.2l18.3-21.9v-.5q.85 3.4 2.95 6 3.6 4.6 8.6 4.6h25.8q5.1 0 8.6-4.55 2.1-2.65 2.95-5.85 20.1 13.3 20.75 13.85-19.45-15.7-19.5-15.7 32.8 4.75 33.7 4.9-33-7.25-33.05-7.25l33.7-17q-21.284 8.848-29.45 12.25-4.98 2.08-5 2.1.992-1.366 1.9-2.7 6.42-8.75 10.6-14.5 2.15-3.05 3.8-5.2-1.9 2.2-4.4 5.25-4.756 5.65-11.85 14.15-.404.514-.85 1.05-.106-.644-.25-1.3-.844-3.442-3.05-6.2-3.55-4.6-8.6-4.55h-15.7q-10.1-.02-10.1-.05m-11.1-114.55l-.45.25 8.65 20-1.7 1.15q5.75 18.65 1.1 38.55-8.05 1.3-14.2 7.45-6.25 6.25-7.5 14.6L330 245.2l26.9 25.05-44.5-17.9 44.25 21.55q-51.3 14.05-52.15 14.25l53.6-11.3Q331.65 295.8 323.05 302l-2.7 1.9q1.2-.7 3.1-1.9 9.1-5.8 35.55-22.65 1.8 6.8 7.05 12.15 5.01 4.98 11.3 6.75 3.57 1.05 7.55 1.05H403q3 0 5.7-.6 7.4-1.5 13.2-7.25 5.35-5.3 7.05-12.2 29.45 11.4 43.85 17.05 4.7 1.8 7.8 3-2.7-1.2-6.7-3.05-13.75-6.25-43.65-19.85l65.25.8-64.15-4.5 46.55-35.4-47.75 31.15 25.7-35.45-27.05 32.5q-1.75-6.6-6.95-11.75-6.2-6.3-14.6-7.5-4.85-19.3-.5-39.9l-.65-.35 8.4-19.35-.55-.2-10.1 18.5q-4.25-1.9-9.35-1.85h-1.05q-5.65 0-10.4 2.25l-10.4-19M388.7 454.4l9.15 5.1-14.25.3 14.1.75-12.7 9.3 13.25-8.3-5.2 10.4 6.05-10.35-.6-2.8-9.8-4.4m-3.05-45.6l-.1-3.6-11.2-7.45 10.2 8.2L367 403.4l17.2 3.8-17.55 8.85 18-7.5-8.5 11.7 9.5-11.45m40 48.65l14.25-.3-14.1-.75 12.7-9.3-13.25 8.25 5.2-10.35-5.45 9.35q-.65-2.95-2.95-5.15-2.95-2.85-6.9-2.65l-7.65.4q-3.9.2-6.6 3.35-2.65 3.15-2.45 7.4.25 4.25 3.2 7.15 3 2.9 6.9 2.65l7.65-.4q3.95-.2 6.6-3.35 2.05-2.4 2.4-5.5l9.6 4.3-9.15-5.1m-3.35-26.35q-.55-3.3-2.75-5.75l-.75-.65q-3.35-3.05-7.95-2.85l-8.8.45q-4.55.25-7.65 3.6-1.6 1.8-2.3 3.9-.4 1.3-.5 2.75l-3.15-2.15q-2.5-1.7-5.6-3.7 2.55 2 4.8 3.8 1.8 1.45 3.4 2.75-6.55-.95-10.7-1.55l-3.4-.45 2.75.55q4 .9 11.05 2.45l-14.1 7.1 14.4-6-6.8 9.35 7.6-9.05q.65 3.45 3.35 5.9 3.4 3.05 7.95 2.8l8.85-.45q4.55-.2 7.6-3.6 2.2-2.45 2.7-5.45l8.6 5.7-8.2-6.55 14.1 2-13.8-3 14.05-7.1-14.4 6 5.8-7.95q.563-.844 1-1.4-.493.598-1.2 1.4-2.05 2.45-5.95 7.15m-11.9-36.55l-15.7.9q-3.95.3-6.55 4.05-2.55 3.75-2.25 8.85.3 5.1 3.35 8.5 3 3.45 6.95 3.15l15.7-.9q3.95-.25 6.5-4.05 1.95-2.75 2.25-6.2l9.2 6.15-9.15-7.35v-.75l16.55 2.45-16.6-3.65-.05-.4 17-8.6-17.2 7.2-.15-.6 7.85-10.85-8.15 9.8q-.8-2.55-2.6-4.55-3-3.4-6.95-3.15m8.15-18.35l.15 3.6 11.15 7.45-10.2-8.2 17.55 2.55-17.2-3.75q16.22-8.254 17.45-8.8l-17.85 7.4q2.85-4 5.3-7.3 1.7-2.4 3.2-4.4-1.75 2.05-3.75 4.45-2.7 3.2-5.8 7M381.9 374q-.7 2.4-.65 5.15.2 5.65 3.4 9.5 3.25 3.95 7.65 3.8l15.7-.5q4.4-.1 7.35-4.25 3.05-4 2.85-9.7-.1-4.5-2.15-7.85-.55-.95-1.25-1.75-3.2-3.9-7.65-3.7l-15.7.45q-4.35.15-7.35 4.25-1.55 2.1-2.2 4.6m-.8 3.35l-4.2-2.8q-3.2-2.1-6.95-4.6l10.2 8.15q-10.35-1.5-15.15-2.2-1.5-.25-2.45-.35l17.2 3.8-17.55 8.85 17.95-7.5-8.45 11.75 9.55-11.5-.15-3.6m-3.9-31.4l-10.5-7 10.35 8.35v2.2q-18.944-2.74-20.25-3l20.45 4.55.35 1.8q-20.45 10.35-21.3 10.75 21.85-9.05 21.8-9.1l.65 1.45q-9.4 12.95-9.65 13.3 10.2-12.25 10.2-12.3l1.1 1.6q3.35 4.35 8 4.3h20.55q4.75 0 8-4.25 1.25-1.55 1.95-3.25 11.65 7.75 12 8-11.45-9.25-11.5-9.25l.45-1.4q20.05 2.9 20.95 3.05l-20.7-4.55.15-1.85 21.1-10.7q-21 8.75-21.05 8.8-.05-1.45-.3-2.65l8.55-11.8-8.8 10.6q-.8-3.1-2.8-5.55-3.25-4.25-8-4.25H388.4q-4.65.05-8 4.25-2.6 3.45-3.2 7.9m-.25-136.3l-.5.5q-7.05 7.05-7.05 17t7.05 17.05l1.2 1.2q4.05-18.45-.7-35.75m41.6 17.5q.05-10-7.05-17-.8-.9-1.7-1.6-3.55 18.9.65 36.6l1.05-1q7-6.95 7.05-17z" id="G"/><path fill="#295454" d="M8.05-92.6l-1.2-1.05q-2.45 13.3.5 25.75l.7-.8Q13-73.55 13-80.6q0-7.05-4.95-12m-24.25-.35l-.35.4q-4.95 4.9-4.95 11.95 0 7 4.95 11.9l.85.85q2.85-12.9-.5-25.1m26.35-16.1l-.35-.15-7.1 13.05q-3-1.4-6.55-1.35h-.75q-3.95 0-7.3 1.55l-7.3-13.25-.35.1 6.1 14-1.2.9q4 13.05.8 27.1-5.6.85-9.9 5.1-4.4 4.45-5.3 10.45L-49.2-67.9l18.95 17.55-31.3-12.6 31.1 15.2L-67-37.8l37.6-7.9q-12.65 9-19.4 13.85l-5.65 4-1.5 1.1 1.75-1.05q2.1-1.55 6.35-4.1L-28.7-44q1.15 4.8 4.95 8.5 1.3 1.35 2.95 2.45 4.45 3.1 10.3 3l6.3.05h6.3q2.35 0 4.35-.45 4.3-1.05 7.85-4.05l1.15-.95q3.7-3.75 4.9-8.6l21.55 8.4 8.5 3.3L56.45-30l-5.2-2.4-7.3-3.35-22.7-10.3 45.75.6-45-3.15 32.7-24.9-33.55 21.9L39.2-76.5 20.3-53.75Q19.05-58.4 15.45-62q-4.4-4.35-10.35-5.2-3.35-13.55-.4-28l-.45-.2 5.9-13.65m16.35 74.9l-2.45 2.95-8.95 10.8q-.5-3.05-2.35-5.2-2.45-3.3-6.1-3.25-12 .05-18.1-.05-3.35.15-6.05 3.25-2.1 2.85-2.4 6.75l-14.9-9.9.15.15 13.6 10.8-23.65-3.4q15.4 3.4 23.1 5.05L-44.95-4.3q16-6.65 23.9-10.05-9.48 13.382-11.1 15.4 8.4-9.912 12.5-15.05l.05-.7q.7 2.7 2.15 4.6 2.55 3.25 6 3.2 12.1 0 18.15.1 3.55-.15 6.1-3.25 1.5-1.85 2-4.05l14.45 9.55Q20.2-11.9 15.6-15.5L39-12.1q-15.25-3.4-22.95-5.05l23.65-11.9Q23.65-22.35 15.5-19l8.95-12.2q1.067-1.7 2.05-2.95M11.9-2.8q-2.3-3.15-5.65-3-9.55 0-14.45-.1-3.15.15-5.6 3.05-1.85 2.5-2.25 5.6L-23.5-2.2l7.35 5.9.05 1.55-14.25-2.05Q-20.7 5.35-16 6.3l.35 1.3q-4.25 2.1-8.15 4.1-1.45.6-2.9 1.45-1.9.9-3.95 2.05l5-2.15 3.9-1.55 6.45-2.7q.45.95.45 1l-.7.95-1.25 1.65-4.95 6.8 5.65-6.85 1.45-1.75q.15-.15.15-.1.05 0 .05.1l.75 1 .45.55q2.1 2.4 5.15 2.45 14.4 0 14.4-.05 3.3.1 5.65-3l.85-1.3.45-.9 1.15.8 7.3 4.8-6.2-4.9q-1.05-.95-1.9-1.55l.3-1 12.25 1.75q1.5.25 2.5.35l-1.85-.4-10.55-2.3-2.1-.45.1-1.35 14.7-7.4q-9.8 4-14.75 6.1l-.15-1.85 5.9-8.3-6.15 7.4q-.5-2.25-1.9-3.85m-1.5 21.3q-2.15-2.7-5.3-2.65l-11 .4q-3.05.1-5.25 2.95-2.1 2.85-1.95 6.8.1 4 2.4 6.75 2.25 2.8 5.35 2.65 11-.35 11-.4 3.1 0 5.2-2.95 2.1-2.85 2-6.9-.15-3.9-2.45-6.65m-23.6 8.9l-.1-2.55q-7.36-4.845-7.85-5.2L-14 25.4l-12.3-1.8 12.05 2.65-12.3 6.25 12.6-5.3-5.95 8.25 6.7-8.05m26.95-3.25q5.95-8.15 5.95-8.2Q13 24.05 13 24l.1 2.55q7.8 5.25 7.8 5.2-7.1-5.7-7.1-5.75 12.3 1.85 12.3 1.8Q14 25.2 14 25.15q12.35-6.2 12.35-6.25-12.6 5.3-12.6 5.25m.9 22.1q-.2-.15-.25-.25v-.4q.85.15 2.15.35l9.55 1.4-7.55-1.7-2.1-.5-2.1-.5q-.05-.05-.05-.15 12.05-6.1 12.05-6.15-12.2 5.2-12.2 5.15 0-.15-.05-.3 5.6-7.75 5.6-7.8-5.8 7.05-5.8 7-.6-1.8-1.9-3.35-2.1-2.3-4.9-2.2l-11 .7q-2.75.15-4.6 2.8-1.55 2.35-1.6 5.45l-.05-1.4-7.85-5.2 7.15 5.75-12.35-1.8 12.1 2.65-9.1 4.6-3.25 1.65 4.3-1.8 8.35-3.5-1.85 2.55-1 1.35L-16.8 55l3.65-4.45L-12 49.2l1.9-2.25v-.4l.4 2.35.3 1.1q.6 1.45 1.65 2.6 2.2 2.35 4.9 2.15l11-.65q2.8-.2 4.6-2.8 1.35-1.95 1.6-4.4l6.6 4.35-6.3-5m-7.05 9.8l-6.2.3q-3.2.25-5.3 2.55-1.85 2.05-2 4.7l-6.15-4.1 5.75 4.6-9.9-1.4 9.7 2.1-9.9 5 10.1-4.2-4.75 6.55 5.35-6.4q.45 2.4 2.35 4.1Q-1 72.05 2.2 71.8l6.2-.3q3.25-.15 5.4-2.55 1.5-1.65 1.85-3.7l6.05 4-5.75-4.6 9.9 1.4-9.7-2.1 9.85-5-10.1 4.2 4.8-6.55-5 6q-.35-2.7-2.45-4.6-2.45-2.1-5.65-1.95m2.9 17.35l-5.35.25Q2.4 73.8.5 76q-1.8 2.25-1.65 5.2l.1.85-6.9-3.1 6.4 3.55-10 .25 9.9.5-8.9 6.55 9.3-5.85-3.65 7.3L-.65 84l-.15-.9q.55 1.75 1.85 3.1 2.05 2.05 4.85 1.9l5.35-.25q2.8-.15 4.65-2.4 1.45-1.7 1.7-3.8l6.8 3.05-6.4-3.6 10-.2-9.9-.5 8.95-6.55-9.3 5.8 3.65-7.25-3.9 6.65q-.45-2.15-2.15-3.8-2-2-4.85-1.85m7.05 14.05l-2.65 1.6-6.3 1v.2H4.95Q2.5 100 8.25 109.2l.2-.3q1.6-3.75 2.2-7.5 1.75 4.15 5.05 7.85l.1-.3q1.05-5.75.7-11.25 3.25 4.35 8.75 7.15l.05-.35q-1.4-9.75-7.75-17.05z" id="I"/><path fill="#295454" d="M8.05-92.6l-1.2-1.1q-2.45 13.3.5 25.75l.7-.7Q13-73.6 13-80.6q0-7.05-4.95-12m-24.25-.35l-.35.35q-4.95 5.05-4.95 12 0 7 4.95 11.95l.85.8q2.85-12.8-.5-25.1m26.35-16.1l-.35-.15-7.1 13.05q-3-1.35-6.55-1.35h-.75q-3.95 0-7.3 1.55l-7.3-13.25-.35.05 6.1 14.1-1.2.8q4 13.15.8 27.15-5.6.9-9.9 5.15-4.4 4.45-5.3 10.4l-20.2-16.4 19 17.55-31.3-12.55 31.1 15.2L-67-37.8l37.6-7.95-17.5 12.55-7.55 5.4-1.5 1.05 1.7-1.05 8.5-5.45L-28.7-44q1.15 4.75 4.9 8.55l2.25 1.9Q-16.75-30-10.5-30l6.3.05q3.15-.15 6.35 0l4.25-.5q3.9-1.05 7.3-3.55l1.75-1.45q3.7-3.8 4.9-8.55l24.75 9.6 5.35 2.05 6 2.35-5.2-2.35-4.45-2.1L21.25-46l45.75.55-45-3.2L54.7-73.5 21.15-51.65 39.2-76.5 20.3-53.75q-1.25-4.65-4.85-8.2-4.4-4.5-10.35-5.25-3.35-13.5-.4-28.05l-.45-.15 5.9-13.65m16.35 74.9l-2.4 2.95-9.05 10.75q-.35-3-2.25-5.1-2.45-3.3-6.1-3.25-12.1 0-18.15-.1-3.45.1-6.05 3.3-2 2.8-2.4 6.7l-14.8-9.8 13.6 10.9-23.6-3.5q15.4 3.5 23.15 5.15L-44.95-4.3q16-6.65 23.9-10.05l-8.1 11.3-3.2 4.35 3.75-4.4q6-7.2 8.95-10.9l.1-.65q.6 2.65 2.1 4.55 2.5 3.25 6 3.25 12.15 0 18.1.05 3.7-.15 6.1-3.3 1.6-1.85 2.1-3.95l9.9 6.5L29.3-4.5l-3.85-3.1q-6.5-5.3-9.85-7.9l23.45 3.45q-15.3-3.4-22.95-5.05l23.6-11.95Q23.65-22.35 15.5-19l8.95-12.2 2.15-2.95.4-.6-.5.6M11.85-2.85q-2.15-3-5.65-3H4.1q-8.2-.05-12.25 0-2.25-.05-4 1.4-.95.6-1.7 1.55-1.8 2.55-2.15 5.7l-7.45-4.95 7.3 5.85.05 1.55-14.2-2.05q9.6 2.15 14.3 3.1l.3 1.25-8.15 4.1-6.85 3.5 8.95-3.65 6.45-2.7.45.95-.65 1q-1.85 2.25-6.3 8.4l7.2-8.55.15-.1q.05 0 0 .05l.75 1.05q2.25 2.95 5.55 3H6.3q3.3 0 5.6-3l1.4-2.2 8.4 5.6-8.1-6.5.3-1 14.75 2.1-12.4-2.7-2.15-.5.2-1.25 14.6-7.5q-9.7 4.1-14.7 6.15l-.15-1.85 5.9-8.3-6.15 7.4q-.5-2.25-1.95-3.9m-1.5 21.35q-2.1-2.7-5.25-2.6l-11 .35q-3.05.1-5.3 2.9Q-13.3 22-13.15 26l.2 2q.45 2.7 2.25 4.75 2.2 2.8 5.35 2.65 11-.35 11-.4 3.1 0 5.2-2.95 2.1-2.85 1.95-6.9v-.3q-.2-3.8-2.45-6.35m-24.65 7.75q-2.35 1.1-4.95 2.5-3.5 1.7-7.3 3.75 5.65-2.5 9.45-4 1.75-.8 3.15-1.3-.35.35-.75 1-1.65 2.2-5.2 7.25 4.4-5.45 6.05-7.35.35-.5.65-.7l-.15-2.6-7.85-5.2q7.15 5.75 7.15 5.8l-12.25-1.8q12 2.6 12 2.65m28-2.1l5.95-8.2Q13 24.05 12.95 24q.05.35.05.8l.1 1.75q7.8 5.25 7.8 5.2L13.75 26q12.35 1.85 12.35 1.8-12.1-2.6-12.15-2.65.5-.2 1.25-.6l11.1-5.65q-12.55 5.3-12.6 5.25M12 39.05q-2.1-2.3-4.9-2.2l-11 .7q-2.75.15-4.6 2.8-1.55 2.35-1.6 5.45l-.05-1.4q-7.36-4.845-7.85-5.2l7.15 5.75-12.35-1.8 12.1 2.65-9.1 4.6-3.25 1.65 4.3-1.8 8.35-3.5-1.85 2.55-4.15 5.65 4.8-5.75 1.9-2.25v-.4l.4 2.35q.55 2.05 1.95 3.65 2.2 2.35 4.9 2.2 11-.65 11-.7 2.8-.15 4.6-2.8 1.35-1.85 1.6-4.4 6.6 4.4 6.6 4.35-6.55-5.2-6.55-5.25v-.4q11.7 1.75 11.7 1.7l-9.65-2.15-2.1-.45q-.05-.05-.05-.15 12.05-6.1 12.05-6.15-12.2 5.2-12.2 5.15 0-.15-.05-.3 5.6-7.75 5.6-7.8-5.8 7.05-5.8 7-.6-1.8-1.9-3.35M7.6 56q-6.2.35-6.2.3-3.2.3-5.3 2.6-1.85 2.05-2 4.7l-6.15-4.1 5.75 4.6-9.9-1.4 9.7 2.1-3.9 2-6 3.05q5.15-2.15 8.05-3.4l2.05-.85-.45.6-4.3 6q4-4.8 5.05-6.1.2-.2.3-.35 0 .2.05.3.45 2.25 2.3 3.85Q-1 72.1 2.2 71.8l6.2-.3q3.25-.15 5.4-2.55 1.5-1.65 1.85-3.7l6.05 4-5.75-4.6 9.9 1.4-9.7-2.05 3.75-1.95q2.8-1.4 6.1-3.1-5.3 2.2-8.2 3.45-1.15.45-1.9.8.15-.25.4-.6l4.4-6q-5 6.05-5 6-.35-2.7-2.45-4.65-2.45-2-5.65-1.95m2.9 17.4l-5.35.25Q2.4 73.8.5 76.05q-1.8 2.25-1.65 5.2l.1.85-6.9-3.1 6.4 3.55-10 .25 9.9.5-8.9 6.55 9.3-5.85-3.65 7.3 4.25-7.25-.15-.9q.55 1.75 1.85 3.1Q3.1 88.2 5.9 88.1l5.35-.25q2.8-.15 4.65-2.4 1.45-1.7 1.7-3.8l6.8 3.05-6.4-3.6 10-.2-9.9-.5 8.95-6.55-9.3 5.8 3.65-7.25-3.9 6.65q-.45-2.15-2.15-3.8-2-2-4.85-1.85m7.05 14.05l-2.65 1.6-6.3 1v.2H4.95Q2.5 100 8.25 109.2l.2-.3q1.6-3.75 2.2-7.5 1.75 4.15 5.05 7.85l.1-.3q1.05-5.75.7-11.25 3.25 4.35 8.75 7.15l.05-.35q-1.4-9.75-7.75-17.05z" id="K"/><path id="d" stroke="#0CC" stroke-opacity=".318" stroke-linejoin="round" stroke-linecap="round" fill="none" d="M497.95 421.85h771.7v599.8h-771.7v-599.8z"/><path id="k" stroke="#333" stroke-linejoin="round" stroke-linecap="round" fill="none" d="M1275.18 639.87q30.895.262 52.55 22.29 21.732 22.106 21.468 53-.264 30.894-22.37 52.547-22.027 21.733-52.92 21.47-30.895-.264-52.627-22.37-21.653-22.027-21.39-52.92.264-30.895 22.29-52.628 22.107-21.655 53-21.39z"/><path id="m" stroke="#333" stroke-linejoin="round" stroke-linecap="round" fill="none" d="M1361.723 568.966q20.316 20.665 20.068 49.653-.246 28.987-20.91 49.223-20.585 20.316-49.573 20.068-28.988-.246-49.304-20.91-20.236-20.586-19.99-49.574.248-28.987 20.834-49.303 20.664-20.236 49.652-19.99 28.987.248 49.223 20.833z"/><path id="o" stroke="#333" stroke-linejoin="round" stroke-linecap="round" fill="none" d="M820.98 690.52q30.895.262 52.55 22.29 21.732 22.106 21.468 53-.264 30.894-22.37 52.547-22.027 21.733-52.92 21.47-30.895-.264-52.627-22.37-21.653-22.027-21.39-52.92.264-30.895 22.29-52.628 22.107-21.655 53-21.39z"/><path id="q" stroke="#333" stroke-linejoin="round" stroke-linecap="round" fill="none" d="M907.523 619.616q20.316 20.665 20.068 49.653-.246 28.987-20.91 49.223-20.585 20.316-49.573 20.068-28.988-.246-49.304-20.91-20.236-20.586-19.99-49.574.248-28.987 20.834-49.303 20.664-20.236 49.652-19.99 28.987.248 49.223 20.833z"/><path id="J" stroke="#295454" stroke-width="4.05" stroke-linejoin="round" stroke-linecap="round" fill="none" d="M-11.15 19.2q-2.1 2.85-1.95 6.8.1 4 2.4 6.75 2.25 2.8 5.35 2.65 11-.35 11-.4 3.1 0 5.2-2.95 2.1-2.85 2-6.9-.15-3.9-2.45-6.65-2.15-2.7-5.3-2.65l-11 .4q-3.05.1-5.25 2.95z"/><path id="L" stroke="#295454" stroke-width="4.05" stroke-linejoin="round" stroke-linecap="round" fill="none" d="M-11.2 19.15Q-13.3 22-13.15 26l.2 2q.45 2.7 2.25 4.75 2.2 2.8 5.35 2.65 11-.35 11-.4 3.1 0 5.2-2.95 2.1-2.85 1.95-6.9v-.3q-.2-3.8-2.45-6.35-2.1-2.7-5.25-2.6l-11 .35q-3.05.1-5.3 2.9z"/></defs><g transform="translate(-512.35 -442.15)"><mask id="b"><use xlink:href="#a" transform="translate(498.35 432.35)"/></mask><g mask="url(#b)"><g><use xlink:href="#c"/><use xlink:href="#d"/></g><use xlink:href="#e" transform="translate(515.95 439.85)"/><use xlink:href="#f" transform="translate(515.95 439.85)"/><use xlink:href="#g" transform="translate(515.95 439.85)"/><use xlink:href="#h" transform="matrix(1.5495 -.35 .35 1.5495 -325.7 1826.5)"/><use xlink:href="#i" transform="matrix(1.5495 -.35 .35 1.5495 -329 921.65)"/><g transform="matrix(1.58838 .01355 -.01355 1.58838 -629.7 1119.15)"><use xlink:href="#j"/><use xlink:href="#k" transform="rotate(-.494 -83000.63 -46251.332) scale(.62954)"/></g><g transform="matrix(1.58838 .01355 -.01355 1.58838 -629.7 1119.15)"><use xlink:href="#l"/><use xlink:href="#m" transform="rotate(-.494 -83000.63 -46251.332) scale(.62954)"/></g><g transform="matrix(1.58838 .01355 -.01355 1.58838 -1083.9 1169.8)"><use xlink:href="#n"/><use xlink:href="#o" transform="rotate(-.494 -86891.44 -79850.317) scale(.62954)"/></g><g transform="matrix(1.58838 .01355 -.01355 1.58838 -1083.9 1169.8)"><use xlink:href="#p"/><use xlink:href="#q" transform="rotate(-.494 -86891.44 -79850.317) scale(.62954)"/></g><use xlink:href="#r" transform="translate(515.95 439.85)"/><use xlink:href="#s" transform="translate(515.95 439.85)"/><use xlink:href="#t" transform="translate(515.95 439.85)"/><use xlink:href="#u" transform="matrix(1.5495 -.35 .35 1.5495 585 1358.8)"/><use xlink:href="#v" transform="translate(515.95 439.85)"/><use xlink:href="#w" transform="matrix(1.5495 -.35 .35 1.5495 424.15 -66.8)"/><use xlink:href="#x" transform="matrix(1.5495 -.35 .35 1.5495 424.15 -66.8)"/><use xlink:href="#y" transform="matrix(1.5495 -.35 .35 1.5495 637.2 -114.8)"/><use xlink:href="#z" transform="matrix(1.5495 -.35 .35 1.5495 637.2 -114.8)"/><use xlink:href="#A" transform="translate(515.95 439.85)"/><use xlink:href="#B" transform="translate(515.95 439.85)"/><use xlink:href="#C" transform="translate(515.95 439.85)"/><use xlink:href="#D" transform="rotate(-36.463 944.542 -736.837) scale(6.0608)"/><use xlink:href="#E" transform="matrix(.4109 0 0 .42126 472.55 485.35)"/><use xlink:href="#F" transform="matrix(.26105 0 0 .36838 532.65 616.7)"/><use xlink:href="#G" transform="matrix(.2251 0 0 .2251 482.35 633.3)"/><g transform="matrix(.1803 0 0 .1803 663.253 681.197)"><use filter="url(#H)" xlink:href="#I"/><use filter="url(#H)" xlink:href="#J"/></g><g transform="rotate(14.997 -2331.182 3086.925) scale(.2251)"><use xlink:href="#K"/><use xlink:href="#L"/></g></g></g></svg>