
<svg xmlns="http://www.w3.org/2000/svg" version="1.1" xmlns:xlink="http://www.w3.org/1999/xlink" preserveAspectRatio="none" x="0px" y="0px" width="672px" height="547px" viewBox="0 0 672 547">
<defs>
<linearGradient id="Gradient_1" gradientUnits="userSpaceOnUse" x1="179.63750000000002" y1="-148.52500000000003" x2="106.6625" y2="288.425" spreadMethod="pad">
<stop  offset="0%" stop-color="#FFFFFF"/>

<stop  offset="98.82352941176471%" stop-color="#6699CC"/>
</linearGradient>

<linearGradient id="Gradient_2" gradientUnits="userSpaceOnUse" x1="-122.025" y1="57.05" x2="-95.975" y2="57.05" spreadMethod="pad">
<stop  offset="28.627450980392158%" stop-color="#D9D9D9"/>

<stop  offset="97.25490196078431%" stop-color="#666666"/>
</linearGradient>

<linearGradient id="Gradient_3" gradientUnits="userSpaceOnUse" x1="99.30000000000001" y1="54.65" x2="122" y2="54.65" spreadMethod="pad">
<stop  offset="28.627450980392158%" stop-color="#D9D9D9"/>

<stop  offset="97.25490196078431%" stop-color="#666666"/>
</linearGradient>

<linearGradient id="Gradient_4" gradientUnits="userSpaceOnUse" x1="1.95" y1="-67.45" x2="1.95" y2="-39.849999999999994" spreadMethod="pad">
<stop  offset="0%" stop-color="#CC6600"/>

<stop  offset="100%" stop-color="#653201"/>
</linearGradient>

<linearGradient id="Gradient_5" gradientUnits="userSpaceOnUse" x1="2.45" y1="-183" x2="2.45" y2="-69.69999999999999" spreadMethod="pad">
<stop  offset="0%" stop-color="#FD9935"/>

<stop  offset="100%" stop-color="#6B3C0C"/>
</linearGradient>

<linearGradient id="Gradient_6" gradientUnits="userSpaceOnUse" x1="3.35" y1="-74.2" x2="3.35" y2="-178.2" spreadMethod="pad">
<stop  offset="0%" stop-color="#CC6600"/>

<stop  offset="100%" stop-color="#653201"/>
</linearGradient>

<filter id="Filter_1" x="-20%" y="-20%" width="140%" height="140%" color-interpolation-filters="sRGB">
<feGaussianBlur in="SourceGraphic" stdDeviation="3.6666666666666665,3.6666666666666665" result="result1"/>
</filter>

<filter id="Filter_2" x="-20%" y="-20%" width="140%" height="140%" color-interpolation-filters="sRGB">
<feColorMatrix in="SourceGraphic" type="matrix" values="0.52 0 0 0 0 0 0.52 0 0 0 0 0 0.52 0 0 0 0 0 1 0" result="result1"/>
</filter>

<g id="Mask_S_mbolo_1_0_1_MASK_0_FILL">
<path fill="#FFFFFF" stroke="none" d="
M 672.75 67.1
Q 672.75 46.75 658.35 32.35 644 18 623.65 18
L 77.1 18
Q 56.75 18 42.35 32.35 28 46.75 28 67.1
L 28 497.7
Q 28 518.05 42.35 532.4 56.75 546.8 77.1 546.8
L 623.65 546.8
Q 644 546.8 658.35 532.4 672.75 518.05 672.75 497.7
L 672.75 67.1 Z"/>
</g>

<g id="S_mbolo_4_0_Layer0_0_FILL">
<path fill="#C1C4D7" stroke="none" d="
M 458.85 -155.85
L 457.7 -155.65 457.7 -155.05 458.85 -155.85 Z"/>

<path fill="#8080AA" stroke="none" d="
M 457.7 -156.45
L 454.75 -155.05 457.7 -156.15 457.7 -156.45 Z"/>
</g>

<g id="S_mbolo_4_0_Layer0_0_MEMBER_0_FILL">
<path fill="#CCCC99" stroke="none" d="
M 1048.1 393.85
L 1036.65 391.6 448.9 285.35 -316.5 425.8 -316.5 516.55 1283.05 516.55 1283.05 438.8 1048.1 393.85 Z"/>

<path fill="#FFFFEE" stroke="none" d="
M 449.4 253.6
L 448.9 285.35 1036.65 391.6 1036.65 347.35 449.4 253.6 Z"/>

<path fill="#FFFFFF" stroke="none" d="
M 448.9 253.5
L 447.95 251.65 -316.5 377.6 -316.5 425.8 448.9 285.35 449.4 253.6 448.9 253.5
M -220.4 317.3
L -220.4 319.15 -219.05 317.2 -220.4 317.3
M 375.5 234
L 380.15 88.15 255 250.95 375.5 234
M 250.85 -128.15
L 162.75 -139.4 -146.3 307.45 -85.1 298.85 250.85 -128.15
M 125.3 -144.2
L 100.35 -147.45 -213.4 308.9 -213.3 316.8 -207.1 316 125.3 -144.2 Z"/>

<path fill="#F7F3BC" stroke="none" d="
M 458 -155.25
L 455.05 -155.25 -204.95 -260.8 -316.5 -260.8 -316.5 377.6 447.95 251.65 458 -155.25
M 426.65 -135.35
L 413.75 249.3 -247.6 346.25 -255.6 -229.05 426.65 -135.35
M -219.05 317.2
L -213.3 316.8 -213.4 308.9 -219.05 317.2
M 406.55 -117.9
L 406.05 -118.1 394.25 241.3 -220.4 329.5 -220.4 330.2 394.6 241.6 406.55 -117.9 Z"/>

<path fill="#999999" stroke="none" d="
M 413.75 249.3
L 426.65 -135.35 -255.6 -229.05 -247.6 346.25 413.75 249.3
M 406.05 -118.1
L 406.55 -117.9 394.6 241.6 -220.4 330.2 -220.4 329.5 -220.4 319.15 -220.4 317.3 -227 -201.2 406.05 -118.1 Z"/>

<path fill="url(#Gradient_1)" stroke="none" d="
M -219.55 -188.45
L -213.4 308.9 100.35 -147.45 -219.55 -188.45
M 386.45 -110.8
L 250.85 -128.15 -85.1 298.85 255 250.95 380.15 88.15 386.45 -110.8
M 162.75 -139.4
L 125.3 -144.2 -207.1 316 -146.3 307.45 162.75 -139.4 Z"/>

<path fill="#CCCCCC" stroke="none" d="
M 100.35 -147.45
L 125.3 -144.2 162.75 -139.4 250.85 -128.15 386.45 -110.8 380.15 88.15 375.5 234 255 250.95 -85.1 298.85 -146.3 307.45 -207.1 316 -213.3 316.8 -219.05 317.2 -220.4 319.15 -220.4 329.5 394.25 241.3 406.05 -118.1 -227 -201.2 -220.4 317.3 -219.05 317.2 -213.4 308.9 -219.55 -188.45 100.35 -147.45 Z"/>

<path fill="#FFFFDD" stroke="none" d="
M 459.05 -156.25
L 459.15 -156.05 958.5 -260.8 -204.95 -260.8 455.05 -155.25 458 -156.65 459.05 -156.25 Z"/>

<path fill="#F1E896" stroke="none" d="
M 1040.2 -132.7
L 1283.05 -154.75 1283.05 -260.8 958.5 -260.8 459.15 -156.05 458 -155.25 447.95 251.65 448.9 253.5 449.4 253.6 1036.65 347.35 1040.2 347.95 1040.2 -132.7 Z"/>

<path fill="#DAC61D" stroke="none" d="
M 1283.05 -136.65
L 1283.05 -154.75 1040.2 -132.7 1040.2 347.95 1036.65 347.35 1036.65 391.6 1048.1 393.85 1082.8 384.6 1082.8 -118.5 1283.05 -136.65 Z"/>
</g>

<g id="S_mbolo_4_0_Layer0_0_MEMBER_1_FILL">
<path fill="#CCCCCC" stroke="none" d="
M 1024.65 79.5
L 987.7 81.35 987.2 140.2 1025.05 140 1024.65 79.5
M 995.1 92.4
L 1014.4 92.2 1014.5 105.9 995.25 106 995.1 92.4
M 1014.8 113.3
L 1014.3 126.4 995.25 126.4 995.65 112.8 1014.8 113.3 Z"/>

<path fill="#FFFFFF" stroke="none" d="
M 1014.3 126.4
L 1014.8 113.3 995.65 112.8 995.25 126.4 1014.3 126.4
M 1014.4 92.2
L 995.1 92.4 995.25 106 1014.5 105.9 1014.4 92.2 Z"/>

<path fill="#999999" stroke="none" d="
M 1028.7 79.3
L 1024.65 79.5 1025.05 140 987.2 140.2 987.2 143.05 1024.95 143.15 1029 143.85 1028.7 79.3 Z"/>
</g>

<g id="ba__0_Layer2_0_FILL">
<path fill="url(#Gradient_2)" stroke="none" d="
M -95.95 69.6
L -122 44.55 -122 69.6 -95.95 69.6 Z"/>

<path fill="#B16A01" stroke="none" d="
M 122 26.35
L 122 -7.4 -122 -7.4 -122 24.65 122 26.35
M 122 39.7
L 122 28.55 -122 27.65 -122 44.55 -95.95 69.6 99.3 69.6 122 39.7
M 122 -10.35
L 122 -36.4 -122 -36.4 -122 -9.4 122 -10.35 Z"/>

<path fill="url(#Gradient_3)" stroke="none" d="
M 122 39.7
L 99.3 69.6 122 69.6 122 39.7 Z"/>

<path fill="#6D4201" stroke="none" d="
M 122 28.55
L 122 26.35 -122 24.65 -122 27.65 122 28.55
M 122 -7.4
L 122 -10.35 -122 -9.4 -122 -7.4 122 -7.4 Z"/>

<path fill="#F49302" stroke="none" d="
M 122 -36.4
L 106.1 -69.6 -103.05 -69.6 -122 -36.4 122 -36.4
M 103.55 -67.45
L 103.85 -66.75 115.6 -39.85 103 -39.85 -99.95 -39.85 -115.05 -39.85 -100.15 -66.45 -99.95 -66.45 103.55 -67.45 Z"/>

<path fill="#7E4001" stroke="none" d="
M -99.95 -66.45
L -100.15 -66.45 -115.05 -39.85 -99.95 -39.85 -99.95 -66.45
M 103.85 -66.75
L 103 -66.4 103 -39.85 115.6 -39.85 103.85 -66.75 Z"/>

<path fill="url(#Gradient_4)" stroke="none" d="
M 103.85 -66.75
L 103.55 -67.45 -99.95 -66.45 -99.95 -39.85 103 -39.85 103 -66.4 103.85 -66.75 Z"/>
</g>

<g id="ba__0_Layer1_0_FILL">
<path fill="url(#Gradient_5)" stroke="none" d="
M 106.95 -69.7
L 106.95 -183 -102.1 -183 -102.1 -69.7 106.95 -69.7
M 103.25 -178.2
L 103.25 -74.2 -96.55 -74.2 -96.55 -178.2 103.25 -178.2 Z"/>

<path fill="#7E4001" stroke="none" d="
M -90.15 -154.5
Q -90.45 -156 -90.75 -157.45 -92.95 -167.85 -96.55 -178.2
L -96.55 -74.2
Q -92.5 -85.85 -90.2 -97.45 -89.95 -99 -89.65 -100.45 -87.45 -113.5 -87.45 -126.45 -87.45 -127.5 -87.45 -128.5 -87.7 -141.5 -90.15 -154.5
M 98 -156.5
Q 97.8 -155.5 97.65 -154.5 95.45 -141.5 95.3 -128.5 95.25 -127 95.25 -125.55 95.3 -112.55 97.35 -99.5 97.6 -98.05 97.85 -96.55 99.8 -85.4 103.25 -74.2
L 103.25 -178.2
Q 99.9 -167.35 98 -156.5 Z"/>

<path fill="url(#Gradient_6)" stroke="none" d="
M 103.25 -74.2
Q 99.8 -85.4 97.85 -96.55
L -90.2 -97.45
Q -92.5 -85.85 -96.55 -74.2
L 103.25 -74.2
M 97.65 -154.5
Q 97.8 -155.5 98 -156.5
L -90.75 -157.45
Q -90.45 -156 -90.15 -154.5 -87.7 -141.5 -87.45 -128.5 -87.45 -127.5 -87.45 -126.45
L 95.25 -125.55
Q 95.25 -127 95.3 -128.5 95.45 -141.5 97.65 -154.5 Z"/>

<path fill="#764701" stroke="none" d="
M 97.35 -99.5
Q 95.3 -112.55 95.25 -125.55
L -87.45 -126.45
Q -87.45 -113.5 -89.65 -100.45 -89.95 -99 -90.2 -97.45
L 97.85 -96.55
Q 97.6 -98.05 97.35 -99.5 Z"/>

<path fill="#543201" stroke="none" d="
M 98 -156.5
Q 99.9 -167.35 103.25 -178.2
L -96.55 -178.2
Q -92.95 -167.85 -90.75 -157.45
L 98 -156.5 Z"/>
</g>

<g id="S_mbolo_4_0_Layer0_0_MEMBER_2_MEMBER_1_FILL">
<path fill="#936100" stroke="none" d="
M 167.25 384.3
Q 173.1 389.6 177.4 383
L 166.7 305.45
Q 164.4 305.15 158.1 312.45
L 164.4 361.45 167.35 360.05
Q 170.7 361.05 169.15 364.1
L 164.9 366.05 167.25 384.3
M 133.45 320.55
Q 127.55 322.2 124.2 320.25
L 124.2 377.5 124.2 382.6 124.2 412
Q 129.25 418.1 134.35 412
L 134.05 379.75 134.05 375.35 133.45 320.55
M 64.8 311.15
Q 62.6 310.8 60.85 310.4 55.7 309.2 55.8 307.25
L 46.55 392.45
Q 51 398.9 56.7 393.45
L 58.95 370.9 55.05 370.2
Q 52.25 366.75 56.2 364.5
L 59.55 365.2 59.55 364.5 64.8 311.15
M 105.7 170.55
Q 105.4 171.15 104.1 171.55 102.35 172.1 100.15 171.9 97.9 171.55 96.4 170.75 95.45 170.25 95.15 169.65
L 99.85 264.75 99.95 266.05
Q 103.9 268.6 107.75 266.05
L 107.65 264.45 106.65 213.2 103.3 212.8 101.85 177.05 105.8 175.75 105.7 170.55
M 177.7 182.25
Q 176.15 181.4 176.15 180.9 176.15 180.8 176.15 180.7
L 175.15 186 174.75 187.9 167.65 223.55 157.9 272.75 156.75 278.45
Q 159.7 283.7 164.5 279.95
L 165 277.25 187 182.05
Q 186.7 182.75 185.4 183.05 183.65 183.65 181.45 183.35 179.2 183.05 177.7 182.25 Z"/>

<path fill="#805400" stroke="none" d="
M 134.05 375.35
L 134.05 379.75 164.9 366.05 169.15 364.1
Q 170.7 361.05 167.35 360.05
L 164.4 361.45 134.05 375.35
M 59.55 364.5
L 59.55 365.2 56.2 364.5
Q 52.25 366.75 55.05 370.2
L 58.95 370.9 124.2 382.6 124.2 377.5 109.25 374.65 100.85 373.05 65.95 366.45 100.85 355.1 103.9 354.05
Q 105.5 351.2 102.55 350
L 100.85 350.6 59.55 364.5
M 48.5 286.05
L 48.5 293.85
Q 48.4 294.7 48.6 295.6 49.2 299.95 56.2 303.7 57.8 304.65 59.75 305.55 62.1 306.55 65.1 307.7 65.45 307.8 65.75 307.9 67.45 308.5 69.4 309.1 75.05 310.7 81.65 312.15 90.4 313.85 100.85 315 105.4 315.5 110.5 315.9 111.3 315.9 112.3 316 118.5 316.4 124.2 316.3 129.05 316.3 133.35 315.8 146.5 314.5 154.65 309.7 156.15 308.8 157.6 308 163.25 304.25 166 300.35 168.45 297.1 168.65 293.65
L 168.55 286.15
Q 168.25 287.7 167.55 289.1 166.6 291.05 165 292.85 162.05 296.3 156.55 299.75 155.65 300.35 154.65 300.9 146.4 305.65 133.25 306.95 128.95 307.35 124.2 307.45 118.5 307.6 112.3 307.15 111.3 307.05 110.3 306.95 105.4 306.65 100.85 306.15 92.55 305.25 85.2 303.9 77 302.4 70.1 300.35 68.15 299.85 66.25 299.25 66.15 299.15 65.95 299.15 65.85 299.05 65.75 299.05 60.65 297.3 57.1 295.4 52.15 292.85 50 290.1 48.6 288.1 48.5 286.05
M 103.3 212.8
L 106.65 213.2 167.65 223.55 174.75 187.9 101.85 177.05 103.3 212.8 Z"/>

<path fill="#A36C00" stroke="none" d="
M 110.5 323.3
Q 104.1 325.15 100.85 322
L 100.85 350.6 102.55 350
Q 105.5 351.2 103.9 354.05
L 100.85 355.1 100.85 373.05 109.25 374.65
Q 110.2 373.95 111 372.85
L 110.5 323.3 Z"/>

<path fill="#624000" stroke="none" d="
M 110.5 323.3
L 110.5 315.9
Q 105.4 315.5 100.85 315
L 100.85 322
Q 104.1 325.15 110.5 323.3
M 133.45 320.55
L 133.35 315.8
Q 129.05 316.3 124.2 316.3
L 124.2 320.25
Q 127.55 322.2 133.45 320.55
M 157.6 308
L 158.1 312.45
Q 164.4 305.15 166.7 305.45
L 166 300.35
Q 163.25 304.25 157.6 308
M 60.85 310.4
Q 62.6 310.8 64.8 311.15
L 65.1 307.7
Q 62.1 306.55 59.75 305.55 57.8 304.65 56.2 303.7
L 55.8 307.25
Q 55.7 309.2 60.85 310.4 Z"/>

<path fill="#BB7C00" stroke="none" d="
M 108.75 264.45
Q 108.25 264.45 107.65 264.45
L 107.75 266.05
Q 103.9 268.6 99.95 266.05
L 99.85 264.75
Q 87.95 265.55 77.9 267.9 73.15 269 68.8 270.45 67.85 270.75 66.95 271.05 62.7 272.55 59.35 274.2 55.2 276.2 52.55 278.45 50.6 280.15 49.7 281.8 48.7 283.3 48.5 284.95 48.4 285.45 48.5 285.95
L 48.5 286.05
Q 48.6 288.1 50 290.1 52.15 292.85 57.1 295.4 60.65 297.3 65.75 299.05 65.85 299.05 65.95 299.15 66.15 299.15 66.25 299.25 68.15 299.85 70.1 300.35 77 302.4 85.2 303.9 92.55 305.25 100.85 306.15 105.4 306.65 110.3 306.95 111.3 307.05 112.3 307.15 118.5 307.6 124.2 307.45 128.95 307.35 133.25 306.95 146.4 305.65 154.65 300.9 155.65 300.35 156.55 299.75 162.05 296.3 165 292.85 166.6 291.05 167.55 289.1 168.25 287.7 168.55 286.15
L 168.45 282.5
Q 167.75 279.75 165 277.25
L 164.5 279.95
Q 159.7 283.7 156.75 278.45
L 157.9 272.75
Q 155.65 271.65 152.8 270.65 151.9 270.35 150.9 269.9 135.55 264.85 115.35 264.45 112.6 264.35 109.9 264.45 109.35 264.45 108.75 264.45
M 105.7 170.55
L 105.7 169.55
Q 105.4 168.95 104.4 168.3 103.6 167.9 102.7 167.6 101.75 167.4 100.65 167.3 98.4 167 96.8 167.5 95.35 167.9 95.05 168.65
L 95.15 169.65
Q 95.45 170.25 96.4 170.75 97.9 171.55 100.15 171.9 102.35 172.1 104.1 171.55 105.4 171.15 105.7 170.55
M 174.75 187.9
L 175.15 186 105.8 175.75 101.85 177.05 174.75 187.9
M 178.1 179
Q 176.65 179.5 176.45 179.8 176.25 180.2 176.25 180.3
L 176.15 180.5 176.15 180.7
Q 176.15 180.8 176.15 180.9 176.15 181.4 177.7 182.25 179.2 183.05 181.45 183.35 183.65 183.65 185.4 183.05 186.7 182.75 187 182.05
L 187.1 181.5
Q 187.1 180.7 185.7 179.8 184.9 179.4 183.95 179.1 183.05 178.9 181.95 178.8 179.7 178.45 178.1 179 Z"/>
</g>

<g id="S_mbolo_4_0_Layer0_0_MEMBER_2_MEMBER_2_FILL">
<path fill="#A36C00" stroke="none" d="
M 163.15 466.2
Q 164.2 465.3 165.1 464.1
L 164.5 406.15
Q 157 408.15 153.2 404.4
L 153.2 437.9 155.25 437.3
Q 158.7 438.7 156.75 441.95
L 153.2 443.15 153.2 464.2 163.15 466.2 Z"/>

<path fill="#805400" stroke="none" d="
M 192.1 467.45
L 192.1 472.5 228.1 456.9 233.2 454.65
Q 234.9 451.2 231.05 449.85
L 227.6 451.5 192.1 467.45
M 180.6 469.65
L 163.15 466.2 153.2 464.2 112.4 455.85 153.2 443.15 156.75 441.95
Q 158.7 438.7 155.25 437.3
L 153.2 437.9 104.9 453.55 104.9 454.45 101.05 453.4
Q 96.5 456.05 99.75 460.1
L 104.2 461.05 180.6 475.65 180.6 469.65
M 93.85 366.45
Q 92.1 364 92 361.65
L 92 370.7
Q 91.9 371.6 92.1 372.85 92.85 377.8 101.05 382.4 103 383.5 105.2 384.6 107.85 385.85 111.5 387.15 111.8 387.35 112.2 387.45 114.25 388.15 116.4 388.85 123.2 390.9 130.8 392.65 141.05 394.75 153.2 396.2 158.6 397 164.5 397.4 165.4 397.4 166.7 397.7 173.95 398.1 180.6 398.1 186.3 398.2 191.2 397.7 206.7 396.3 216.15 390.8 217.85 389.8 219.6 388.85 226.2 384.6 229.45 380.15 232.3 376.4 232.5 372.35
L 232.4 363.6
Q 232.1 365.35 231.25 366.85 230.25 369.2 228.35 371.2 224.9 375.35 218.5 379.25 217.35 380.05 216.15 380.55 206.6 385.95 191.1 387.35 186.1 387.75 180.6 387.75 173.95 387.75 166.7 387.25 165.4 387.05 164.3 386.95 158.6 386.65 153.2 385.95 143.6 384.7 134.95 383.1 125.3 381.05 117.3 378.7 115.05 378 112.7 377.3 112.6 377.2 112.4 377.2 112.3 377.1 112.2 377.1 106.25 374.95 102.05 372.75 96.2 369.6 93.85 366.45
M 156.05 276.7
L 160 277.25 231.35 290.2 239.7 248.6 154.55 234.9 156.05 276.7 Z"/>

<path fill="#624000" stroke="none" d="
M 164.5 406.15
L 164.5 397.4
Q 158.6 397 153.2 396.2
L 153.2 404.4
Q 157 408.15 164.5 406.15
M 191.4 403.3
L 191.2 397.7
Q 186.3 398.2 180.6 398.1
L 180.6 402.8
Q 184.5 405 191.4 403.3
M 219.6 388.85
L 220.2 394.05
Q 227.6 385.65 230.35 386.05
L 229.45 380.15
Q 226.2 384.6 219.6 388.85
M 101.05 382.4
L 100.55 386.45
Q 100.45 388.75 106.55 390.3 108.55 390.8 111.2 391.2
L 111.5 387.15
Q 107.85 385.85 105.2 384.6 103 383.5 101.05 382.4 Z"/>

<path fill="#936100" stroke="none" d="
M 191.4 403.3
Q 184.5 405 180.6 402.8
L 180.6 469.65 180.6 475.65 180.6 510.05
Q 186.5 517.25 192.5 510.25
L 192.1 472.5 192.1 467.45 191.4 403.3
M 230.35 386.05
Q 227.6 385.65 220.2 394.05
L 227.6 451.5 231.05 449.85
Q 234.9 451.2 233.2 454.65
L 228.1 456.9 230.85 478.2
Q 237.75 484.6 242.75 476.85
L 230.35 386.05
M 254 242
Q 253.7 242.8 252.1 243.15 250.15 243.85 247.5 243.35 244.95 243 243.15 242.1 241.4 241.2 241.4 240.5 241.4 240.4 241.4 240.3
L 240.1 246.5 239.7 248.6 231.35 290.2 220 347.65 218.7 354.35
Q 222.15 360.55 227.7 356.2
L 228.35 352.95 254 242
M 111.2 391.2
Q 108.55 390.8 106.55 390.3 100.45 388.75 100.55 386.45
L 89.7 486
Q 94.95 493.6 101.55 487.45
L 104.2 461.05 99.75 460.1
Q 96.5 456.05 101.05 453.4
L 104.9 454.45 104.9 453.55 111.2 391.2
M 157 228.6
Q 155.05 229.1 152.4 228.9 149.85 228.5 148.05 227.4 146.95 226.9 146.6 226.2
L 152.1 337.5 152.2 339.05
Q 156.75 342 161.35 339.15
L 161.25 337.2 160 277.25 156.05 276.7 154.55 234.9 159.1 233.5 158.9 227.4
Q 158.6 228.1 157 228.6 Z"/>

<path fill="#BB7C00" stroke="none" d="
M 254 242
L 254.2 241.4
Q 254.2 240.4 252.5 239.35 251.55 238.85 250.55 238.55 249.35 238.35 248.1 238.15 245.5 237.65 243.55 238.35 241.95 238.95 241.7 239.25 241.5 239.7 241.5 239.9
L 241.4 240.1 241.4 240.3
Q 241.4 240.4 241.4 240.5 241.4 241.2 243.15 242.1 244.95 243 247.5 243.35 250.15 243.85 252.1 243.15 253.7 242.8 254 242
M 152.1 337.5
Q 138.2 338.25 126.45 340.75 120.85 342.1 115.75 343.6 114.75 344 113.55 344.4 108.65 345.95 104.7 347.95 99.85 350.2 96.8 352.85 94.55 354.75 93.35 356.7 92.2 358.4 92 360.25 91.9 360.95 92 361.45
L 92 361.65
Q 92.1 364 93.85 366.45 96.2 369.6 102.05 372.75 106.25 374.95 112.2 377.1 112.3 377.1 112.4 377.2 112.6 377.2 112.7 377.3 115.05 378 117.3 378.7 125.3 381.05 134.95 383.1 143.6 384.7 153.2 385.95 158.6 386.65 164.3 386.95 165.4 387.05 166.7 387.25 173.95 387.75 180.6 387.75 186.1 387.75 191.1 387.35 206.6 385.95 216.15 380.55 217.35 380.05 218.5 379.25 224.9 375.35 228.35 371.2 230.25 369.2 231.25 366.85 232.1 365.35 232.4 363.6
L 232.3 359.25
Q 231.45 356 228.35 352.95
L 227.7 356.2
Q 222.15 360.55 218.7 354.35
L 220 347.65
Q 217.35 346.35 214 345.15 213 344.7 211.8 344.2 193.8 338.15 170.25 337.3 167 337.2 163.9 337.2 163.25 337.2 162.45 337.2 161.95 337.2 161.25 337.2
L 161.35 339.15
Q 156.75 342 152.2 339.05
L 152.1 337.5
M 159.1 233.5
L 154.55 234.9 239.7 248.6 240.1 246.5 159.1 233.5
M 157.5 224.65
Q 156.45 224.25 155.45 223.95 154.25 223.65 153 223.55 150.4 223.25 148.45 223.65 146.85 224.15 146.5 224.95
L 146.6 226.2
Q 146.95 226.9 148.05 227.4 149.85 228.5 152.4 228.9 155.05 229.1 157 228.6 158.6 228.1 158.9 227.4
L 158.9 226.3
Q 158.6 225.45 157.5 224.65 Z"/>
</g>

<g id="perna_0_Layer0_0_FILL">
<path fill="#984B01" stroke="none" d="
M -47.5 -21.9
Q -56.6 -16.9 -59.55 -6.9 -62.4 3.1 -57.4 12.25
L -57.1 12.2
Q -57.75 8.05 -56.45 3.7 -54.2 -4.1 -47.05 -8.05 -39.9 -11.95 -32 -9.7 -24.2 -7.4 -20.25 -0.25 -18.65 2.65 -16.25 7.65 -16.95 7.6 -15.65 8.95
L -10.25 -1 -10.15 -1.05
Q -10.15 -1.1 -10.25 -1.05 -10.85 -1.7 -10.05 -2.75
L -10.35 -3.05
Q -10.95 -7.6 -13.35 -11.95 -18.35 -21.1 -28.4 -24.05 -38.35 -26.95 -47.5 -21.9
M 38.8 -20.6
Q 33.45 -17.65 31.8 -11.85 30.4 -7 32.15 -2.5 33.4 -6.1 36.8 -7.95 40.4 -9.95 44.4 -8.75 48.35 -7.6 50.35 -3.95 52.35 -0.3 51.25 3.65 50.75 5.2 49.85 6.55 50.55 6.25 51.2 5.95 51.5 5.85 51.8 5.7 52.4 5.4 52.95 5.1 54.15 4.45 55.2 3.7 58.6 0.85 60 -3.65 61.65 -9.45 58.75 -14.8 55.8 -20.1 50 -21.85 44.1 -23.5 38.8 -20.6 Z"/>

<path fill="#6D3701" stroke="none" d="
M 36.8 -7.95
Q 33.4 -6.1 32.15 -2.5 32.45 -1.8 32.85 -1 32.3 -0.95 31.75 -0.85 -4.55 4.25 -10.15 -1.05
L -10.25 -1 -15.65 8.95
Q -16.95 7.6 -16.25 7.65 -18.65 2.65 -20.25 -0.25 -24.2 -7.4 -32 -9.7 -39.9 -11.95 -47.05 -8.05 -54.2 -4.1 -56.45 3.7 -57.75 8.05 -57.1 12.2 -57.05 12.65 -56.9 13.15 -51.9 21.5 -42.4 24.25 -40.3 24.9 -38.2 25.1 -38.15 25.15 -38.05 25.15 -34.5 25.1 -31 24.95 -20.9 24.5 -10.95 23.15 20 19.05 49.85 6.55 50.75 5.2 51.25 3.65 52.35 -0.3 50.35 -3.95 48.35 -7.6 44.4 -8.75 40.4 -9.95 36.8 -7.95 Z"/>
</g>

<g id="S_mbolo_4_0_Layer0_0_MEMBER_3_MEMBER_2_FILL">
<path fill="#984B01" stroke="none" d="
M -222.1 465.5
Q -222.1 473.3 -216.45 479 -212.05 483.25 -206.4 484.3 -204.75 484.6 -202.95 484.6 -202.1 484.6 -201.3 484.6 -200.8 484.6 -200.5 484.6 -199.6 484.4 -198.55 484.3 -200.4 483.45 -201.8 481.85 -205.65 477.9 -205.65 472.5 -205.65 467.15 -201.8 463.35 -198.05 459.5 -192.55 459.5 -187.6 459.5 -183.95 462.75 -184.75 456.55 -189.45 451.9 -195.1 446.3 -202.95 446.3 -210.95 446.3 -216.45 451.9 -222.1 457.6 -222.1 465.5
M -72.5 423.5
L -72.2 423.4
Q -72.2 409.7 -81.85 400.05 -91.4 390.5 -105 390.5 -118.6 390.5 -128.25 400.05 -137.85 409.7 -137.85 423.4 -137.85 429.65 -135.75 435.45
L -135.85 436.05
Q -134.2 436.7 -134.6 437.9
L -134.4 437.9 -122.05 445.8
Q -121.45 443.6 -122.05 444.1 -122.55 436.7 -122.55 432.5 -122.55 421.75 -115.05 414.25 -107.4 406.65 -96.75 406.65 -86.1 406.65 -78.6 414.25 -74.55 418.3 -72.5 423.5 Z"/>

<path fill="#6D3701" stroke="none" d="
M -72.5 423.5
Q -74.55 418.3 -78.6 414.25 -86.1 406.65 -96.75 406.65 -107.4 406.65 -115.05 414.25 -122.55 421.75 -122.55 432.5 -122.55 436.7 -122.05 444.1 -121.45 443.6 -122.05 445.8
L -134.4 437.9 -134.6 437.9
Q -137.65 447.35 -182.4 464.4 -183.15 464.6 -183.75 464.9 -183.75 463.8 -183.95 462.75 -187.6 459.5 -192.55 459.5 -198.05 459.5 -201.8 463.35 -205.65 467.15 -205.65 472.5 -205.65 477.9 -201.8 481.85 -200.4 483.45 -198.55 484.3 -156.35 479.7 -118.5 465 -106.2 460.35 -94.55 454.45 -90.25 452.5 -86.2 450.3
L -86.1 450.3
Q -83.75 448.55 -81.85 446.5 -72.7 437.4 -72.2 424.7 -72.4 424 -72.5 423.5 Z"/>
</g>

<g id="S_mbolo_4_0_Layer0_0_MEMBER_3_MEMBER_3_FILL">
<path fill="#984B01" stroke="none" d="
M -27.45 432.5
Q -27.45 436.7 -27.75 444.1 -28.55 443.6 -27.95 445.8
L -15.55 437.9 -15.35 437.9
Q -15.75 436.7 -14.15 436.05
L -14.25 435.45
Q -12.1 429.65 -12.1 423.4 -12.1 409.7 -21.75 400.05 -31.4 390.5 -45 390.5 -58.5 390.5 -68.15 400.05 -77.8 409.7 -77.8 423.4
L -77.5 423.5
Q -75.45 418.3 -71.4 414.25 -63.9 406.65 -53.2 406.65 -42.55 406.65 -34.95 414.25 -27.45 421.75 -27.45 432.5
M 39.45 451.9
Q 34.8 456.55 34.05 462.75 37.7 459.5 42.7 459.5 48.05 459.5 52.05 463.35 55.8 467.15 55.8 472.5 55.8 477.9 52.05 481.85 50.4 483.45 48.6 484.3 49.6 484.4 50.5 484.6 50.8 484.6 51.3 484.6 52.15 484.6 52.95 484.6 54.75 484.6 56.4 484.3 62.1 483.25 66.45 479 72.25 473.3 72.25 465.5 72.25 457.6 66.45 451.9 60.95 446.3 52.95 446.3 45.15 446.3 39.45 451.9 Z"/>

<path fill="#6D3701" stroke="none" d="
M 33.75 464.9
Q 33.15 464.6 32.45 464.4 -12.3 447.35 -15.35 437.9
L -15.55 437.9 -27.95 445.8
Q -28.55 443.6 -27.75 444.1 -27.45 436.7 -27.45 432.5 -27.45 421.75 -34.95 414.25 -42.55 406.65 -53.2 406.65 -63.9 406.65 -71.4 414.25 -75.45 418.3 -77.5 423.5 -77.6 424 -77.8 424.7 -77.3 437.4 -68.15 446.5 -66.2 448.55 -63.9 450.3
L -63.8 450.3
Q -59.7 452.5 -55.45 454.45 -43.7 460.35 -31.5 465 6.45 479.7 48.6 484.3 50.4 483.45 52.05 481.85 55.8 477.9 55.8 472.5 55.8 467.15 52.05 463.35 48.05 459.5 42.7 459.5 37.7 459.5 34.05 462.75 33.75 463.8 33.75 464.9 Z"/>
</g>

<g id="S_mbolo_4_0_Layer0_0_MEMBER_3_MEMBER_4_FILL">
<path fill="#984B01" stroke="none" d="
M -96.35 371.3
Q -99.9 372.45 -102.95 373.85 -107 376 -109.65 378.4 -107.2 383.5 -100.5 387.35 -89.95 393.55 -74.95 393.55 -60.1 393.55 -49.55 387.35 -42.05 383 -39.8 377.5 -42.25 375.5 -45.4 373.85 -49.75 371.6 -54.85 370.1 -64.1 383 -75.95 383 -87.3 383 -96.35 371.3 Z"/>

<path fill="#663300" stroke="none" d="
M -109.65 378.4
Q -114.85 383.2 -114.85 388.95 -114.85 397.8 -102.95 404.2 -91.1 410.4 -74.05 410.4 -57.3 410.4 -45.4 404.2 -33.45 397.8 -33.45 388.95 -33.45 382.5 -39.8 377.5 -42.05 383 -49.55 387.35 -60.1 393.55 -74.95 393.55 -89.95 393.55 -100.5 387.35 -107.2 383.5 -109.65 378.4
M -48.45 245.45
Q -59.8 222 -75.95 222 -92.1 222 -103.45 245.45 -114.85 269 -114.85 302.4 -114.85 336 -103.45 359.35 -100 366.25 -96.35 371.3 -87.3 383 -75.95 383 -64.1 383 -54.85 370.1 -51.5 365.55 -48.45 359.35 -37.1 336 -37.1 302.4 -37.1 269 -48.45 245.45 Z"/>
</g>

<g id="S_mbolo_4_0_Layer0_0_MEMBER_3_MEMBER_5_FILL">
<path fill="#996600" stroke="none" d="
M 97.6 212.05
Q 98.2 214.2 98.2 211.55 98.2 188.4 47.75 172 -2.7 155.55 -73.8 155.55 -145.2 155.55 -195.6 172 -246.05 188.4 -246.05 211.55 -246.05 213.9 -246.25 213.2 -240.3 236.65 -195.6 251.15 -145.2 267.6 -73.8 267.6 -2.7 267.6 47.75 251.15 92.55 236.65 97.6 212.05 Z"/>

<path fill="#663300" stroke="none" d="
M 98.2 221.8
Q 98.2 219.15 97.6 212.05 92.55 236.65 47.75 251.15 -2.7 267.6 -73.8 267.6 -145.2 267.6 -195.6 251.15 -240.3 236.65 -246.25 213.2 -246.05 219.15 -246.05 221.8 -246.05 244.95 -195.6 261.4 -145.2 277.85 -73.8 277.85 -2.7 277.85 47.75 261.4 98.2 244.95 98.2 221.8 Z"/>
</g>

<g id="S_mbolo_1_0_Layer1_1_MEMBER_0_FILL">
<path fill="#999966" fill-opacity="0.9882352941176471" stroke="none" d="
M 1326.05 480
Q 1408.5 447.2 1408.5 400.85 1408.5 354.5 1326.05 321.7 1243.65 288.9 1127.1 288.9 1010.55 288.9 928.1 321.7 845.7 354.5 845.7 400.85 845.7 447.2 928.1 480 1010.55 512.8 1127.1 512.8 1243.65 512.8 1326.05 480 Z"/>
</g>

<g id="S_mbolo_1_0_Layer1_1_MEMBER_1_MEMBER_0_FILL">
<path fill="#000000" fill-opacity="0.24705882352941178" stroke="none" d="
M 360.35 28.1
Q 354.65 26.5 349.25 27.6 348.75 24 346.9 20.55 342.65 12.5 333.75 10 324.8 7.55 316.45 12.1 312.9 14.05 310.3 16.8 307.6 11.85 303.05 8 292.3 -1.15 277.8 0.15 263.4 1.45 253.8 12.5 245.75 21.55 244.9 32.85 243.2 32.75 241.5 32.9 232.1 33.75 225.85 40.95 219.65 48.05 220.1 57.3 220.25 60.1 221.05 62.7 221.55 64.3 222.35 65.85 218.05 68 214.55 71.85 207.95 79.45 208.4 89.25 208.85 97.95 214.65 103.85 202.05 131.2 205.15 148.3 207.15 160.1 216.55 167.2 227.05 175.3 246.75 177.2 253 177.95 260.2 177.95
L 262.5 186.05
Q 277 251.4 264.7 319.5 265 319.55 265.35 319.6 265.2 320.1 265.1 320.6 252.7 380.45 253.3 438.7 253.35 440.6 253.35 442.55 253.5 452 255.9 469.6
L 255.9 469.65 255.7 469.7
Q 255.45 472.15 254.95 474.45 254.9 474.75 254.85 475 254.8 475.15 254.8 475.45
L 254.75 475.55
Q 254.65 475.9 254.6 476.2 254.15 478 253.55 479.75
L 252.9 479.75
Q 252.6 479.85 252.35 480.15 252.15 480.4 252.15 480.5 252.15 480.7 252.35 480.85 252.4 480.9 252.55 481 252.65 481.05 252.85 481.2 253 481.2 253.05 481.2 252.25 483.25 251.25 485.2 250.55 485.35 250.55 485.75 250.55 485.9 250.75 486.1
L 250.75 486.15
Q 249.75 487.9 248.45 489.6 247.2 489.45 247.15 490.45 247.15 490.75 247.2 490.85 247.25 490.95 247.35 491.05 245.55 493.15 243.35 495.05 241.85 495.1 241.8 495.75 241.8 495.9 242 496.1 240.55 497.2 238.95 498.15 237.25234375 497.65078125 237.25 498.5 237.255078125 498.352734375 237.9 498.7 235.8 500 233.4 501 230.1 499.35 230 501.35 230 501.5 231.05 501.95 228 502.95 224.5 503.8
L 211.25 508
Q 207.55 513.25 208.95 517.65 209.35 517.7 209.75 517.75 207.1 520 209.05 523.25 247.3 526.4 277.35 509.8
L 276.3 503.4 271.5 504.7
Q 273.75 503.85 276.15 503 276.25 502.95 276.3 502.95
L 271.1 469.75 270.7 468.7
Q 270.9 468.65 271.1 468.5 270.6 448.05 270.5 441.2 270.5 439.95 270.5 438.8 270.25 391.55 284.6 340.85
L 330.75 339 336.4 436.05 338.6 464.3
Q 338.4 464.2 338.25 464.1
L 337.8 465.1 330.95 498.5
Q 331 498.5 331 498.55 333.4 499.4 335.65 500.15
L 330.95 498.95 329.5 505.4
Q 358.75 521.15 397.15 516.9 399.2 513.7 396.7 511.45 397.15 511.4 397.55 511.35 399.15 506.9 395.85 501.7
L 382.65 497.85
Q 379.25 497.25 376.25 496.2 377.3 495.7 377.3 495.6 377.35 493.6 374 495.35 371.65 494.35 369.5 493.2 370.25 492.75 370.3 492.95 370.3 492.1 368.55 492.65 367 491.75 365.6 490.65 365.75 490.55 365.75 490.35 365.8 489.7 364.3 489.65 362.25 487.9 360.5 485.8 360.6 485.75 360.65 485.6 360.7 485.5 360.65 485.2 360.65 484.2 359.45 484.35 358.3 482.75 357.3 480.95 357.3 480.9 357.35 480.9 357.55 480.7 357.55 480.55 357.55 480.2 356.85 480.05 355.95 478.1 355.3 476.15 355.35 476.15 355.5 476.15 355.7 475.95 355.8 475.85 355.95 475.8 356 475.75 356.2 475.55 356.25 475.35 356.25 475.25 356.05 475.05 355.8 474.75 355.45 474.65
L 354.8 474.65
Q 354.35 472.95 354.05 471.15 353.95 470.85 353.85 470.45
L 353.85 470.4
Q 353.9 470.15 353.8 470 353.75 469.75 353.65 469.4 353.35 467.15 353.25 464.7
L 353.05 464.65
Q 352.85 464.75 352.6 464.85 352.75 464.75 352.85 464.65
L 350.9 321.45 351.35 312.7 347.6 312.75
Q 349.65 312.2 351.8 311.6 354.7 276.5 352.75 241.8 372 225.9 377.3 211.3
L 377.6 211.15
Q 377.65 210.9 377.55 210.55 381.35 199.2 376.95 188.5 371.9 176.3 356.05 165.05 350.5 161 343.6 157.15
L 343.55 156.85 343.15 156.9
Q 343.1 156.85 343 156.8
L 343 156.9 315.45 159.4
Q 332.35 154.15 344.8 139.95 345.1 139.6 345.45 139.2 347.25 139.85 349.3 140.15 356.85 141.2 363.1 136.6 369.45 132.05 370.8 124.6 371.55 120.15 370.4 116.15 373.1 115.3 375.55 113.45 381.45 109.15 382.75 102.15 382.9 101.35 383 100.6 387.3 95.65 388.7 89.65 389.35 86.85 389.3 83.9 389.15 73.9 381.9 67.4 378.3 63.95 373.8 62.5 375.05 60.2 376 57.55 379 47.95 374.45 39.4 369.8 30.75 360.35 28.1
M 344.45 173
Q 348.95 175.75 352.5 178.55 362.4 186.6 365.7 196.05 368.15 199.25 364.2 211.4 362.25 217.3 351.65 226.95 349.45 201.25 344.55 175.85
L 344.45 173
M 224.65 131.05
Q 229.05 137.05 236.55 138.1 241.5 138.8 246 137.05 248.3 140.3 251.15 143.25 253.45 145.75 256.1 148 257.7 149.35 259.35 150.6 263.7 153.8 268.35 156.2 277.2 160.7 287.2 161.95
L 256.5 164.7 256.5 164.8
Q 249.15 164.85 243.25 163.95 230.5 161.8 222.8 155.45 219.15 153.8 216.65 141.5 215.35 134.8 221.5 118.8 220.7 125.55 224.65 131.05
M 237.6 516.9
Q 235.35 515.45 236.3 515.65 236.35 515.65 236.4 515.65
L 237.6 516.9
M 368.9 511.4
L 370.2 510.05
Q 370.25 510.05 370.3 510.05 371.2 509.85 368.9 511.4 Z"/>
</g>

<g id="S_mbolo_1_0_Layer1_1_MEMBER_1_MEMBER_1_MEMBER_0_FILL">
<path fill="#000000" stroke="none" d="
M 338.1 324.5
L 338.1 315.65 253.4 316.55
Q 252.85 320.1 252.25 323.65 242.7 384.05 246.05 442.85 246.2 444.8 246.3 446.75 246.9 456.3 250.15 474.05
L 250.15 474.1
Q 253.65 475.7 257.2 475.55 261.05 475.3 264.9 473.15 265.1 473.1 265.3 472.95 263.8 452.3 263.4 445.4 263.35 444.15 263.3 442.95 260.8 395.25 272.7 344.1
L 318.75 342.2 329.05 440.2 332.8 470.4
Q 338.9 475.9 346.85 469.05
L 338.1 324.5 Z"/>
</g>

<g id="S_mbolo_1_0_Layer1_1_MEMBER_1_MEMBER_1_MEMBER_0_MEMBER_0_FILL">
<path fill="#FFFFFF" stroke="none" d="
M 220.4 508.6
L 207.3 512.8
Q 203.9 518.15 205.5 522.55 205.9 522.6 206.3 522.65 203.75 524.95 205.85 528.2 244.25 531.4 273.5 514.65
L 272.15 508.2 267.4 509.5
Q 235.85 521.2 232.85 520.55
L 234.1 521.8
Q 231.8 520.35 232.75 520.55
L 227.4 515.25 220.4 508.6 Z"/>

<path fill="#990000" stroke="none" d="
M 227.8 507
Q 227.25 506.8 226.85 506.7 223.85 507.75 220.4 508.6
L 227.4 515.25
Q 231.35 513.75 234.85 511.85 234.5 511.55 233.25 510.4 232.05 509.25 231.55 508.85 231.35 508.65 231.3 508.6 230.85 508.25 230.2 507.95 229.2 507.45 227.8 507
M 235.9 504.85
Q 234.35 503.9 233.55 503.45 231.5 504.75 229.15 505.75 229.9 506.05 230.8 506.6 231.3 506.95 231.75 507.2 232.65 507.85 233.5 508.5 233.95 508.75 234.3 509.1 235.85 510.45 235.85 510.95 235.85 511.15 235.8 511.35 241.6 508.2 246.15 504.3 245.4 503.9 243.8 503 243.1 502.6 242.4 502.3 241.55 501.9 240.65 501.65 239.35 501.3 238.05 501.2 237.7 500.95 237.5 500.8 236.1 501.9 234.55 502.9 235.55 503.2 237.25 504 238.15 504.5 238.9 504.9 241.7 506.4 241.7 507.1 241.7 507.9 240.7 507.9 240.5 507.9 237.9 506.25 237.25 505.8 236.5 505.25 236.15 505.05 235.9 504.85
M 238.8 499.75
Q 238.85 499.75 238.9 499.75 240.45 499.65 242.45 500.15
L 242.5 500.15
Q 243.25 500.35 243.95 500.6 245.95 501.3 246.9 502.25 247.3 502.65 247.5 503.1 249.1 501.6 250.6 500.1 250.25 499.75 249.85 499.35 248.85 498.15 248.65 497.95 247.35 496.7 246.75 496.5 246.4 496.45 245.95 496.4 244.7 496.2 243.2 495.9 242.75 495.8 242.6 495.7 240.9 497.85 238.8 499.75
M 246.25 489.8
Q 246.65 489.7 247.15 489.65 248.25 489.5 249.55 489.7 250.1 489.7 250.7 489.85 254.9 490.45 255.7 491.85 256.7 489.5 257.25 487.2 257 487.35 256.6 487.35 256.1 487.35 255.8 487.05 255.4 486.5 255.15 486.35 254.15 485.75 251.3 485.7 249.75 485.6 247.85 485.75 247.15 487.85 246.25 489.8
M 246.3 491.05
Q 245.95 490.8 245.8 490.75 244.85 492.55 243.65 494.25 243.85 494.25 244.05 494.3 244.95 494.55 246.7 495.3 247.25 495.55 247.85 495.8 248.4 496.1 249.7 497.2 250.65 498.05 251.4 498.05 251.75 498.05 251.95 498.45 253.75 495.85 255.05 493.25 254.3 493.25 253.8 492.8 253.25 492.2 252.8 491.9 251.6 491 248.95 490.9 247.8 490.9 246.3 491.05
M 255.5 478.65
Q 256.35 479.25 257.75 479.65 257.8 479.65 257.85 479.65 257.7 477.6 257.2 475.55 253.65 475.7 250.15 474.1
L 249.95 474.15
Q 249.8 476.65 249.45 478.95 249.4 479.25 249.35 479.5 249.55 479.15 250 479.05 250.65 478.95 252.85 478.8 253.95 478.7 255.5 478.65
M 254.85 480.15
Q 253.95 480.1 253.15 480.1 252.2 480.1 251.3 480.4 250.75 480.65 250.45 480.7 250.1 480.85 250 480.85 249.7 480.85 249.5 480.7 249.35 480.6 249.3 480.45 249.3 480.15 249.3 480.05 249.2 480.4 249.15 480.7 248.8 482.55 248.3 484.3
L 252.8 484.35
Q 255.7 485.35 256.35 485.6 257.25 486.1 257.4 486.45 257.9 483.9 257.9 481.3 257.7 481.35 257.45 481.35 257 481.3 256.05 480.85 255.95 480.8 255.9 480.75 255.1 480.4 254.85 480.15 Z"/>

<path fill="#CCCCCC" stroke="none" d="
M 230.8 506.6
Q 229.9 506.05 229.15 505.75 225.75 504.1 225.75 506.1 225.75 506.25 226.85 506.7 227.25 506.8 227.8 507 229.2 507.45 230.2 507.95 230.85 508.25 231.3 508.6 231.35 508.65 231.55 508.85 232.05 509.25 233.25 510.4 234.5 511.55 234.85 511.85 235 511.95 235.05 511.95 235.7 511.95 235.8 511.35 235.85 511.15 235.85 510.95 235.85 510.45 234.3 509.1 233.95 508.75 233.5 508.5 232.65 507.85 231.75 507.2 231.3 506.95 230.8 506.6
M 233.55 503.45
Q 234.35 503.9 235.9 504.85 236.15 505.05 236.5 505.25 237.25 505.8 237.9 506.25 240.5 507.9 240.7 507.9 241.7 507.9 241.7 507.1 241.7 506.4 238.9 504.9 238.15 504.5 237.25 504 235.55 503.2 234.55 502.9 232.85234375 502.40078125 232.85 503.25 232.85546875 503.102734375 233.55 503.45
M 238.9 499.75
Q 238.85 499.75 238.8 499.75 237.3 499.8 237.3 500.45 237.3 500.6 237.5 500.8 237.7 500.95 238.05 501.2 239.35 501.3 240.65 501.65 241.55 501.9 242.4 502.3 243.1 502.6 243.8 503 245.4 503.9 246.15 504.3
L 246.7 504.6
Q 247.5 504.6 247.55 504.05 247.6 503.95 247.6 503.85 247.6 503.45 247.5 503.1 247.3 502.65 246.9 502.25 245.95 501.3 243.95 500.6 243.25 500.35 242.5 500.15
L 242.45 500.15
Q 240.45 499.65 238.9 499.75
M 244.05 494.3
Q 243.85 494.25 243.65 494.25 242.4 494.1 242.4 495.1 242.4 495.4 242.45 495.5 242.5 495.6 242.6 495.7 242.75 495.8 243.2 495.9 244.7 496.2 245.95 496.4 246.4 496.45 246.75 496.5 247.35 496.7 248.65 497.95 248.85 498.15 249.85 499.35 250.25 499.75 250.6 500.1 251.15 500.5 251.6 500.5 252.35 500.5 252.35 499.65 252.2 498.8 251.95 498.45 251.75 498.05 251.4 498.05 250.65 498.05 249.7 497.2 248.4 496.1 247.85 495.8 247.25 495.55 246.7 495.3 244.95 494.55 244.05 494.3
M 245.8 490.75
Q 245.95 490.8 246.3 491.05 247.8 490.9 248.95 490.9 251.6 491 252.8 491.9 253.25 492.2 253.8 492.8 254.3 493.25 255.05 493.25 255.45 493.25 255.7 493.05 255.85 492.8 255.85 492.5 255.85 492.15 255.7 491.85 254.9 490.45 250.7 489.85 250.1 489.7 249.55 489.7 248.25 489.5 247.15 489.65 246.65 489.7 246.25 489.8 245.55 489.95 245.55 490.35 245.55 490.5 245.8 490.7
L 245.8 490.75
M 252.8 484.35
L 248.3 484.3 247.65 484.3
Q 247.35 484.4 247.1 484.7 246.9 484.95 246.9 485.05 246.9 485.25 247.15 485.4 247.2 485.45 247.35 485.55 247.45 485.6 247.65 485.75 247.8 485.75 247.85 485.75 249.75 485.6 251.3 485.7 254.15 485.75 255.15 486.35 255.4 486.5 255.8 487.05 256.1 487.35 256.6 487.35 257 487.35 257.25 487.2 257.45 487 257.45 486.65 257.45 486.5 257.4 486.45 257.25 486.1 256.35 485.6 255.7 485.35 252.8 484.35
M 253.15 480.1
Q 253.95 480.1 254.85 480.15 255.1 480.4 255.9 480.75 255.95 480.8 256.05 480.85 257 481.3 257.45 481.35 257.7 481.35 257.9 481.3 258.4 481.2 258.55 480.8 258.6 480.65 258.6 480.55 258.6 479.9 257.85 479.65 257.8 479.65 257.75 479.65 256.35 479.25 255.5 478.65 253.95 478.7 252.85 478.8 250.65 478.95 250 479.05 249.55 479.15 249.35 479.5 249.3 479.65 249.3 479.95
L 249.3 480.05
Q 249.3 480.15 249.3 480.45 249.35 480.6 249.5 480.7 249.7 480.85 250 480.85 250.1 480.85 250.45 480.7 250.75 480.65 251.3 480.4 252.2 480.1 253.15 480.1 Z"/>

<path fill="#CC0000" stroke="none" d="
M 258.6 480.55
Q 258.6 480.65 258.55 480.8 258.4 481.2 257.9 481.3 257.9 483.9 257.4 486.45 257.45 486.5 257.45 486.65 257.45 487 257.25 487.2 256.7 489.5 255.7 491.85 255.85 492.15 255.85 492.5 255.85 492.8 255.7 493.05 255.45 493.25 255.05 493.25 253.75 495.85 251.95 498.45 252.2 498.8 252.35 499.65 252.35 500.5 251.6 500.5 251.15 500.5 250.6 500.1 249.1 501.6 247.5 503.1 247.6 503.45 247.6 503.85 247.6 503.95 247.55 504.05 247.5 504.6 246.7 504.6
L 246.15 504.3
Q 241.6 508.2 235.8 511.35 235.7 511.95 235.05 511.95 235 511.95 234.85 511.85 231.35 513.75 227.4 515.25
L 232.75 520.55
Q 232.8 520.55 232.85 520.55 235.85 521.2 267.4 509.5 269.65 508.65 272 507.8 272.1 507.75 272.15 507.75
L 265.35 474.2 264.9 473.15
Q 261.05 475.3 257.2 475.55 257.7 477.6 257.85 479.65 258.6 479.9 258.6 480.55 Z"/>
</g>

<g id="S_mbolo_1_0_Layer1_1_MEMBER_1_MEMBER_1_MEMBER_0_MEMBER_1_FILL">
<path fill="#990000" stroke="none" d="
M 367.4 502.9
Q 367.35 502.95 367.1 503.15 366.65 503.6 365.5 504.8 364.35 506 363.95 506.35 367.55 508.1 371.6 509.55
L 378.25 502.6
Q 374.8 501.95 371.75 500.9 371.35 501.05 370.85 501.25 369.45 501.8 368.5 502.3 367.8 502.65 367.4 502.9
M 367.8 501
Q 368.7 500.45 369.45 500.05 367.05 499.05 364.85 497.9 364.15 498.3 362.65 499.4 362.35 499.6 362 499.85 361.3 500.35 360.65 500.75 358.2 502.5 357.95 502.5 356.95 502.55 356.9 501.75 356.85 501.1 359.65 499.4 360.35 499 361.2 498.6 362.85 497.7 363.9 497.35 362.3 496.4 360.85 495.3
L 360.85 495.35
Q 360.65 495.45 360.3 495.7 359 495.85 357.7 496.25 356.85 496.55 356 497 355.35 497.35 354.65 497.75 353 498.65 352.35 499.05 357.1 502.85 363 505.85 362.95 505.7 362.9 505.5 362.9 504.95 364.4 503.55 364.75 503.2 365.15 502.9 365.95 502.2 366.9 501.55 367.35 501.25 367.8 501
M 348.4 494.3
Q 348.05 494.7 347.75 494.9 349.25 496.5 351 497.95 351.15 497.45 351.55 497 352.45 496.05 354.35 495.35 355.05 495.1 355.85 494.85 357.85 494.3 359.35 494.3 359.45 494.3 359.5 494.3 357.35 492.55 355.5 490.4 355.35 490.55 354.95 490.65 353.4 490.95 352.2 491.15 351.8 491.25 351.4 491.35 350.8 491.55 349.55 492.85 349.4 493.1 348.4 494.3
M 344.2 487.85
Q 343.75 488.3 343 488.3 344.35 490.85 346.25 493.35 346.5 493 346.85 492.95 347.55 492.95 348.5 492.1 349.75 490.95 350.3 490.65 350.85 490.35 351.4 490.1 353.15 489.3 354 489.05 354.2 488.95 354.4 488.95 353.15 487.35 352.1 485.5 351.95 485.6 351.65 485.85 350.15 485.75 348.95 485.85 346.35 485.95 345.15 486.85 344.75 487.15 344.2 487.85
M 342.55 481.4
Q 342.35 481.6 341.95 482.15 341.7 482.5 341.15 482.5 340.75 482.5 340.5 482.3 341.15 484.6 342.3 486.95 343 485.55 347.15 484.75 347.8 484.6 348.35 484.6 349.65 484.4 350.7 484.45 351.2 484.5 351.6 484.6 350.6 482.65 349.85 480.65 347.9 480.55 346.4 480.6 343.55 480.8 342.55 481.4
M 340 476.4
Q 339.8 476.4 339.6 476.4 339.7 479 340.35 481.5 340.45 481.15 341.35 480.7 342 480.4 344.85 479.3
L 349.3 479.15
Q 348.75 477.45 348.35 475.6 348.25 475.3 348.15 474.9 348.15 475.05 348.15 475.35 348.15 475.55 348 475.65 347.8 475.75 347.45 475.75 347.4 475.75 347.05 475.65 346.75 475.55 346.15 475.3 345.3 475.1 344.3 475.1 343.5 475.1 342.6 475.25 342.35 475.45 341.6 475.9 341.55 475.9 341.45 475.9 340.45 476.4 340 476.4
M 347.25 469.1
L 347.05 469.05
Q 343.6 470.7 340.05 470.65 339.65 472.7 339.6 474.75 339.65 474.75 339.7 474.75 341.1 474.35 341.85 473.75 343.45 473.75 344.55 473.75 346.75 473.8 347.45 474 347.9 474.05 348.05 474.45 348 474.2 347.9 473.85 347.5 471.6 347.25 469.1 Z"/>

<path fill="#CCCCCC" stroke="none" d="
M 364.85 497.9
Q 365.6 497.45 365.65 497.65 365.6 496.75 363.9 497.35 362.85 497.7 361.2 498.6 360.35 499 359.65 499.4 356.85 501.1 356.9 501.75 356.95 502.55 357.95 502.5 358.2 502.5 360.65 500.75 361.3 500.35 362 499.85 362.35 499.6 362.65 499.4 364.15 498.3 364.85 497.9
M 371.75 500.9
Q 372.8 500.4 372.8 500.3 372.75 498.3 369.45 500.05 368.7 500.45 367.8 501 367.35 501.25 366.9 501.55 365.95 502.2 365.15 502.9 364.75 503.2 364.4 503.55 362.9 504.95 362.9 505.5 362.95 505.7 363 505.85 363.15 506.4 363.8 506.4 363.85 506.4 363.95 506.35 364.35 506 365.5 504.8 366.65 503.6 367.1 503.15 367.35 502.95 367.4 502.9 367.8 502.65 368.5 502.3 369.45 501.8 370.85 501.25 371.35 501.05 371.75 500.9
M 359.5 494.3
Q 359.45 494.3 359.35 494.3 357.85 494.3 355.85 494.85 355.05 495.1 354.35 495.35 352.45 496.05 351.55 497 351.15 497.45 351 497.95 350.85 498.3 350.85 498.7 350.9 498.8 350.9 498.85 351.05 499.4 351.85 499.35
L 352.35 499.05
Q 353 498.65 354.65 497.75 355.35 497.35 356 497 356.85 496.55 357.7 496.25 359 495.85 360.3 495.7 360.65 495.45 360.85 495.35
L 360.85 495.3
Q 361 495.2 361 495 361 494.35 359.5 494.3
M 346.25 493.35
Q 346.05 493.75 345.95 494.55 346 495.45 346.75 495.4 347.2 495.4 347.75 494.9 348.05 494.7 348.4 494.3 349.4 493.1 349.55 492.85 350.8 491.55 351.4 491.35 351.8 491.25 352.2 491.15 353.4 490.95 354.95 490.65 355.35 490.55 355.5 490.4 355.6 490.35 355.65 490.2 355.7 490.1 355.65 489.8 355.6 488.8 354.4 488.95 354.2 488.95 354 489.05 353.15 489.3 351.4 490.1 350.85 490.35 350.3 490.65 349.75 490.95 348.5 492.1 347.55 492.95 346.85 492.95 346.5 493 346.25 493.35
M 343 488.3
Q 343.75 488.3 344.2 487.85 344.75 487.15 345.15 486.85 346.35 485.95 348.95 485.85 350.15 485.75 351.65 485.85 351.95 485.6 352.1 485.5 352.1 485.45 352.15 485.45 352.3 485.25 352.3 485.1 352.3 484.75 351.6 484.6 351.2 484.5 350.7 484.45 349.65 484.4 348.35 484.6 347.8 484.6 347.15 484.75 343 485.55 342.3 486.95 342.1 487.25 342.15 487.6 342.15 487.9 342.35 488.1 342.6 488.35 343 488.3
M 341.95 482.15
Q 342.35 481.6 342.55 481.4 343.55 480.8 346.4 480.6 347.9 480.55 349.85 480.65 349.9 480.65 350.05 480.65 350.25 480.45 350.35 480.35 350.5 480.3 350.55 480.25 350.75 480.05 350.75 479.85 350.75 479.75 350.55 479.55 350.3 479.25 349.95 479.15
L 349.3 479.15 344.85 479.3
Q 342 480.4 341.35 480.7 340.45 481.15 340.35 481.5 340.3 481.65 340.3 481.7 340.3 482.1 340.5 482.3 340.75 482.5 341.15 482.5 341.7 482.5 341.95 482.15
M 339.6 476.4
Q 339.8 476.4 340 476.4 340.45 476.4 341.45 475.9 341.55 475.9 341.6 475.9 342.35 475.45 342.6 475.25 343.5 475.1 344.3 475.1 345.3 475.1 346.15 475.3 346.75 475.55 347.05 475.65 347.4 475.75 347.45 475.75 347.8 475.75 348 475.65 348.15 475.55 348.15 475.35 348.15 475.05 348.15 474.9
L 348.15 474.85
Q 348.15 474.6 348.05 474.45 347.9 474.05 347.45 474 346.75 473.8 344.55 473.75 343.45 473.75 341.85 473.75 341.1 474.35 339.7 474.75 339.65 474.75 339.6 474.75 338.85 475 338.85 475.65 338.9 475.8 338.9 475.9 339.1 476.35 339.6 476.4 Z"/>

<path fill="#FFFFFF" stroke="none" d="
M 392.95 516.3
Q 393.4 516.25 393.8 516.2 395.15 511.7 391.6 506.45
L 378.25 502.6 371.6 509.55 366.45 514.9
Q 367.35 514.7 365.15 516.25
L 366.35 514.9
Q 363.4 515.7 331.35 504.9
L 326.6 503.7 325.45 510.2
Q 355.45 526.1 393.65 521.8 395.55 518.6 392.95 516.3 Z"/>

<path fill="#CC0000" stroke="none" d="
M 332.25 468.5
L 331.85 469.5 326.55 503.25
Q 326.6 503.25 326.65 503.3 329.05 504.15 331.35 504.9 363.4 515.7 366.35 514.9 366.4 514.9 366.45 514.9
L 371.6 509.55
Q 367.55 508.1 363.95 506.35 363.85 506.4 363.8 506.4 363.15 506.4 363 505.85 357.1 502.85 352.35 499.05
L 351.85 499.35
Q 351.05 499.4 350.9 498.85 350.9 498.8 350.85 498.7 350.85 498.3 351 497.95 349.25 496.5 347.75 494.9 347.2 495.4 346.75 495.4 346 495.45 345.95 494.55 346.05 493.75 346.25 493.35 344.35 490.85 343 488.3 342.6 488.35 342.35 488.1 342.15 487.9 342.15 487.6 342.1 487.25 342.3 486.95 341.15 484.6 340.5 482.3 340.3 482.1 340.3 481.7 340.3 481.65 340.35 481.5 339.7 479 339.6 476.4 339.1 476.35 338.9 475.9 338.9 475.8 338.85 475.65 338.85 475 339.6 474.75 339.65 472.7 340.05 470.65 336.2 470.6 332.25 468.5 Z"/>
</g>

<g id="S_mbolo_1_0_Layer1_1_MEMBER_1_MEMBER_1_MEMBER_1_MEMBER_0_FILL">
<path fill="#FFFFFF" stroke="none" d="
M 685.95 438.8
Q 688.95 353.55 669.15 270.65
L 632 255.45
Q 629.35 269.45 616.2 271.5 601.95 272.05 598.45 257.85
L 569.05 284.1
Q 590.65 364.85 579.55 449.4 626.45 456.05 685.95 438.8 Z"/>

<path fill="#000000" stroke="none" d="
M 669.15 270.65
L 666.8 247.1 560.4 257.7 569.05 284.1 598.45 257.85
Q 601.95 272.05 616.2 271.5 629.35 269.45 632 255.45
L 669.15 270.65 Z"/>
</g>

<g id="S_mbolo_1_0_Layer1_1_MEMBER_1_MEMBER_1_MEMBER_1_MEMBER_1_FILL">
<path fill="#B44F1D" stroke="none" d="
M 647.4 256.4
Q 633.8998046875 263.037890625 622.35 256
L 622.35 256.95
Q 634.85 271.25 647.4 256.95
L 647.4 256.4 Z"/>

<path fill="#743312" stroke="none" d="
M 647.4 219.35
L 622.35 219.35 622.35 256
Q 633.8998046875 263.037890625 647.4 256.4
L 647.4 219.35 Z"/>
</g>

<g id="S_mbolo_1_0_Layer1_1_MEMBER_1_MEMBER_1_MEMBER_2_FILL">
<path fill="#000000" stroke="none" d="
M 275.65 195.1
L 268.7 196 269.15 199.3 266.35 199.65 270.25 228.35 267.25 228.75 266.85 225.7 257.55 226.9 258.85 236.45 261.5 236.1 261.9 239.25 265.15 238.85 266 245.05 268.9 244.65 269.8 251.2 273.1 250.8 274 257.55 277.05 257.15 278.3 266.15 310.75 262 310.35 259 310.3 259 309.4 252.4 312.6 252 311.35 242.85 314.25 242.45 311.1 219.35 308.2 219.75 307.75 216.3 304.35 216.7 303.95 213.7 297.6 214.55 297.15 211.6 287.6 212.8 287.25 209.9 280.9 210.75 279.15 198.05 276.1 198.4 275.65 195.1
M 304.85 220.5
L 308.15 220.1 311.25 242.85 307.95 243.25 309.15 252.35 306.3 252.75 307.25 259.4 281 262.75 280.1 256.4 277.2 256.8 276.35 250.35 273.2 250.75 272.3 244.15 269.1 244.55 268.25 238.4 265.55 238.75 265.1 235.3 261.8 235.7 261 229.7 267.05 228.95 267.4 231.9 270.65 231.45 271.95 241 275 240.65 269.4 199.35 276.1 198.45 280 227 283.05 226.65 281.3 213.85 287.55 213.05 289.3 225.95 292.3 225.55 290.95 215.55 297.25 214.75 298.95 227.25 302.2 226.8 300.9 217.3 304.35 216.85 304.85 220.5 Z"/>
</g>

<g id="S_mbolo_1_0_Layer1_1_MEMBER_1_MEMBER_1_MEMBER_3_FILL">
<path fill="#913F17" stroke="none" d="
M 200.55 159.95
L 202.1 156.9
Q 198.35 155.25 195.25 142.85 193.1 133.75 203.5 107.8 190.95 136.7 193.3 147.3 195.75 158 200.55 159.95 Z"/>

<path fill="#000000" stroke="none" d="
M 202.1 156.9
L 200.55 159.95 196.4 168.75
Q 207.3 176.95 227.05 178.85 234.35 179.7 242.8 179.55
L 238.8 166.3
Q 229.95 166.55 222.95 165.5 210.1 163.3 202.1 156.9 Z"/>

<path fill="#E06224" stroke="none" d="
M 211 90.4
L 202.5 81.5
Q 178.7 125.7 184.1 149.7 186.65 161.6 196.4 168.75
L 200.55 159.95
Q 195.75 158 193.3 147.3 190.95 136.7 203.5 107.8 206.7 99.9 211 90.4 Z"/>
</g>

<g id="S_mbolo_1_0_Layer1_1_MEMBER_1_MEMBER_1_MEMBER_4_FILL">
<path fill="#913F17" stroke="none" d="
M 349.8 195.85
L 346.9 197.9
Q 349.5 201.15 346.15 213.4 343.65 222.35 321.9 239.9 347 220.85 350.1 210.45 353.2 199.95 349.8 195.85 Z"/>

<path fill="#E06224" stroke="none" d="
M 357.8 190.25
L 349.8 195.85
Q 353.2 199.95 350.1 210.45 347 220.85 321.9 239.9 316.45 244.3 309.95 249.1
L 311.25 262.35
Q 352.45 236 359.35 212.9 362.8 201.25 357.8 190.25 Z"/>

<path fill="#000000" stroke="none" d="
M 357.8 190.25
Q 352.2 177.95 335.8 166.6 329.8 162.35 322.35 158.25
L 319.45 171.85
Q 327.25 175.9 332.9 180.25 343.15 188.35 346.9 197.9
L 349.8 195.85 357.8 190.25 Z"/>
</g>

<g id="S_mbolo_1_0_Layer1_1_MEMBER_1_MEMBER_1_MEMBER_5_MEMBER_0_MEMBER_0_MEMBER_0_FILL">
<path fill="#000000" stroke="none" d="
M 668.85 218.1
Q 661.3 217.05 655.2 221.65 649.1 226.25 648.15 233.85 647.15 241.4 651.75 247.5 656.45 253.6 664 254.65 671.6 255.7 677.65 251.1 683.75 246.5 684.75 238.95 685.7 231.35 681.1 225.25 676.45 219.15 668.85 218.1 Z"/>
</g>

<g id="S_mbolo_1_0_Layer1_1_MEMBER_1_MEMBER_1_MEMBER_5_MEMBER_0_MEMBER_0_MEMBER_1_FILL">
<path fill="#000000" stroke="none" d="
M 695.65 216.3
Q 696.6 209.2 692.2 203.5 687.85 197.8 680.75 196.8 673.65 195.8 668 200.1 662.35 204.45 661.4 211.55 660.45 218.6 664.8 224.3 669.15 230.05 676.25 231.05 683.35 232.05 689 227.7 694.7 223.35 695.65 216.3 Z"/>
</g>

<g id="S_mbolo_1_0_Layer1_1_MEMBER_1_MEMBER_1_MEMBER_5_MEMBER_0_MEMBER_1_MEMBER_0_FILL">
<path fill="#000000" stroke="none" d="
M 1196.6 -311.95
Q 1177.15 -311.95 1163.35 -298.2 1149.6 -284.4 1149.6 -264.95 1149.6 -245.5 1163.35 -231.75 1177.15 -217.95 1196.6 -217.95 1216.05 -217.95 1229.8 -231.75 1243.6 -245.5 1243.6 -264.95 1243.6 -284.4 1229.8 -298.2 1216.05 -311.95 1196.6 -311.95 Z"/>
</g>

<g id="S_mbolo_1_0_Layer1_1_MEMBER_1_MEMBER_1_MEMBER_5_MEMBER_0_MEMBER_1_MEMBER_1_FILL">
<path fill="#000000" stroke="none" d="
M 1250.7 -357.05
Q 1237.85 -369.9 1219.6 -369.9 1201.35 -369.9 1188.45 -357.05 1175.6 -344.15 1175.6 -325.9 1175.6 -307.65 1188.45 -294.8 1201.35 -281.9 1219.6 -281.9 1237.85 -281.9 1250.7 -294.8 1263.6 -307.65 1263.6 -325.9 1263.6 -344.15 1250.7 -357.05 Z"/>
</g>

<g id="S_mbolo_1_0_Layer1_1_MEMBER_1_MEMBER_1_MEMBER_5_MEMBER_0_MEMBER_2_FILL">
<path fill="#E06224" stroke="none" d="
M 314.5 52.8
Q 294.4 36.2 268.55 38.55 242.65 40.95 226.2 60.95 209.7 81 212.3 106.85 212.75 111.55 213.8 115.9 217.75 132.45 229.85 144.6 232.25 147.1 235.05 149.4 236.7 150.75 238.4 152 242.9 155.25 247.65 157.65 262.95 165.3 281.05 163.6 306.9 161.25 323.35 141.25 339.8 121.2 337.25 95.3 334.65 69.45 314.5 52.8 Z"/>
</g>

<g id="S_mbolo_1_0_Layer1_1_MEMBER_1_MEMBER_1_MEMBER_5_MEMBER_0_MEMBER_2_MEMBER_0_FILL">
<path fill="#B40606" fill-opacity="0.4392156862745098" stroke="none" d="
M 241.9 144.8
Q 239.65 146.2 242.1 147.1 244.5 146.9 246.85 146.9 249.15 146.9 250.35 147.7 251.55 148.5 252.95 147.65 254.4 146.75 255.15 146.5 255.95 146.35 256.35 146.3 258.7 144.7 256.85 143.45 254.2 143.1 253.45 142.75 252.8 142.45 251.8 141.65 250.25 140.2 249.5 139.55 249.2 139.3 249 139.1 248.05 138.4 247.65 138.45 246.4 138.55 245.65 139.1 244.3 140.3 243.8 140.55 242.05 141.95 244.05 143.1
L 245 143
Q 245.05 143.75 244.35 144 243.55 144.1 243.1 144.2 242.25 144.4 241.9 144.8 Z"/>
</g>

<g id="S_mbolo_1_0_Layer1_1_MEMBER_1_MEMBER_1_MEMBER_5_MEMBER_0_MEMBER_2_MEMBER_1_FILL">
<path fill="#B40606" fill-opacity="0.4392156862745098" stroke="none" d="
M 450.1 140.75
Q 448.1919921875 140.4431640625 446 140 443.8078125 139.556640625 442.4 140.3 440.9990234375 141.0982421875 438.9 143.05 436.7970703125 145.050390625 436.6 146.45 436.403515625 147.85 442.6 148.15 448.798828125 148.4998046875 450.4 146.95 452 145.4 452 143.25 452.0025390625 141.1021484375 450.1 140.75 Z"/>
</g>

<g id="S_mbolo_1_0_Layer1_1_MEMBER_1_MEMBER_1_MEMBER_5_MEMBER_0_MEMBER_2_MEMBER_2_FILL">
<path fill="#B40606" fill-opacity="0.4392156862745098" stroke="none" d="
M 327.4 109.45
Q 327.4 109.4 328.15 108.3 328.85 107.05 328.8 106.5 328.75 105.9 328.5 105.7 328.25 105.45 328.25 105.3 327.6 105.35 326.65 105.25 325.65 105.15 325.15 105.2 318.8 109.7 316.95 110.85 317.25 113.25 320.6 114.4 323.55 115.3 326.75 114.9 326.55 117.95 324.15 117.55
L 324.4 120
Q 325.6 119.6 327.85 120.9 328.7 120.65 329.7 120.45 331.4 119.7 330.25 117 331.3 116.9 332.2 116.6
L 333.8 115.85
Q 333.65 114.3 330.5 111.75 327.4 109.55 327.4 109.45 Z"/>
</g>

<g id="S_mbolo_1_0_Layer1_1_MEMBER_1_MEMBER_1_MEMBER_5_MEMBER_0_MEMBER_2_MEMBER_3_FILL">
<path fill="#B40606" fill-opacity="0.4392156862745098" stroke="none" d="
M 253.8 83.45
L 253.4 79.4
Q 252.75 79.45 251.6 79.35 250.4 79.25 249.9 79.3 249.4 79.35 248.6 79.85 247.35 80.55 247.45 81.55 247.45 81.7 248.45 83 248.6 83.2 248.7 83.4 247.6 84.4 247.5 84.6 247.4 84.8 247.45 85.65 247.5 86.25 247.75 86.5 248 86.7 248 86.85
L 250.05 86.65
Q 250.8 86.4 252.35 84.9 253.05 84.15 253.8 83.45 Z"/>
</g>

<g id="S_mbolo_1_0_Layer1_1_MEMBER_1_MEMBER_1_MEMBER_5_MEMBER_0_MEMBER_2_MEMBER_4_FILL">
<path fill="#B40606" fill-opacity="0.4392156862745098" stroke="none" d="
M 308.55 83.1
Q 308.4 83.15 307.6 83 306.8 82.9 306.25 82.95 305.35 83 303.9 84.15 302.5 85.25 301.85 86.15
L 305.1 85.85
Q 305.4 85.7 306.35 85.45 306.4 85.65 306.55 85.95 306.8 86.35 306.8 86.55 307.25 86.5 308 86.25 308.6 86 308.8 85.95
L 308.55 83.1 Z"/>
</g>

<g id="S_mbolo_1_0_Layer1_1_MEMBER_1_MEMBER_1_MEMBER_5_MEMBER_0_MEMBER_2_MEMBER_5_FILL">
<path fill="#B40606" fill-opacity="0.4392156862745098" stroke="none" d="
M 265.65 89.6
Q 265.85 89.35 265.7 87.7 265.65 87.05 265.05 86.1 264.1 84.6 262.5 84.5
L 262.75 87
Q 261.05 87.2 260.8 87.55 260.85 88.15 261.15 89.1 261.45 90.15 261.5 90.75 265.05 90.25 265.65 89.6 Z"/>
</g>

<g id="S_mbolo_1_0_Layer1_1_MEMBER_1_MEMBER_1_MEMBER_5_MEMBER_0_MEMBER_2_MEMBER_6_FILL">
<path fill="#B40606" fill-opacity="0.4392156862745098" stroke="none" d="
M 300.25 146.05
L 296.6 146.4
Q 296.45 146.65 295.9 146.8
L 295.45 146.9 295.75 149.75
Q 296.15 149.7 296.05 148.9 297 149.6 297.9 150.75 298.3 151.1 299.15 151.05 299.7 151 300.2 150.75 300.6 150.5 300.7 150.5
L 300.25 146.05 Z"/>
</g>

<g id="S_mbolo_1_0_Layer1_1_MEMBER_1_MEMBER_1_MEMBER_5_MEMBER_0_MEMBER_3_MEMBER_0_FILL">
<path fill="#000000" stroke="none" d="
M 328.25 57.35
Q 328.25 57.5 328.25 57.8
L 328.3 57.8 328.25 57.35
M 327.85 61.5
Q 328.2 59.1 328.25 57.8 327.5 57.85 325.5 58.4 323.5 59 322.45 59.05 319.35 59.35 316 57.85 312.85 56.35 310.4 53.6 307.85 50.95 306.9 47.85 305.85 44.5 306.95 41.6 305.2 44.75 302.15 46.55 298.65 48.65 293.1 49.15 285.45 49.85 282 47.1 280.9 46.25 278.95 43.95 276.75 41.25 275.2 39.75 271.8 36.6 270 29.05 269.35 26.45 268.85 23
L 269.55 28.9
Q 269.95 33.6 269.5 36.4 268.95 39.9 267.05 42.25 265 44.75 260.9 46.65
L 254.65 47.2
Q 254 46.2 253.7 44.4 253.5 43.35 253.3 41.05
L 251.7 41.2
Q 249.15 46.85 247.75 48.25 245.8 50.4 241.6 50.8 237.5 51.15 234.8 48.6 233.05 46.9 232.3 44.55
L 232.35 45.3
Q 231.6 46.9 230.2 51.85 228.5 57.25 227.4 59.9 223.35 69.85 216.75 70.45 216.25 70.5 214.95 70 213.35 69.4 211.85 68.5 207.65 65.95 207.25 62.25 207.25 62.1 207.1 59.7 207.3 57.8 208.6 59.35
L 208.2 55.45 207.4 55.5
Q 207.3 59.5 205.05 61.75 202.95 63.8 199.25 64.15 197.25 64.3 195.9 63.25 196.5 64.9 197.35 66.45 193.15 68.6 189.85 72.5 183.6 80.2 184.55 90.1 185.55 100.1 193.25 106.45 201 112.85 210.9 111.95 220.85 111.05 227.15 103.35 233.5 95.7 232.5 85.7 231.95 79.8 229 75.15 229 75.1 229.05 75.1 230.45 77.15 232.55 78.85 238.5 83.75 246.05 83.05 253.7 82.35 258.55 76.45 261.45 72.85 262.35 68.65 264.05 68.25 265.7 67.65 267.3 71 270.25 73.6 275.75 78.15 282.7 77.5 289.55 76.9 293.95 71.5 295.7 74.25 298.35 76.6 305.4 82.85 314.7 82.3 316 82.2 317.25 82 316.85 84.6 317.05 87.4 317.7 97.35 325.15 104 332.7 110.6 342.65 110.05 352.6 109.55 359.2 102.05 363.7 96.85 364.85 90.5 362.55 92.45 359.65 92.75 355.5 93.1 351.35 91.9 345.65 90.25 345.25 86.15 345.15 85.3 345.3 82.75 345.45 80.25 345.35 79.05 343.05 80.1 342 80.45 340.15 81.1 338.9 81.2 334.2 81.65 330.9 76.45 328.1 71.95 327.45 65.7 327.35 64.8 327.85 61.5 Z"/>

<path fill="#330000" stroke="none" d="
M 348.2 39.75
Q 343.15 31 333.55 28.35 327.8 26.75 322.45 27.85 321.75 24.2 319.75 20.7 315.1 12.6 306.1 10.05 297.05 7.6 288.9 12.2 285.45 14.15 283 16.95 280.05 11.95 275.3 8.05 264.1 -1.2 249.7 0.15 235.35 1.45 226.25 12.6 218.65 21.75 218.35 33.15 216.65 33.05 214.95 33.2 205.6 34.05 199.7 41.3 193.8 48.5 194.7 57.8 195 60.65 195.9 63.25 197.25 64.3 199.25 64.15 202.95 63.8 205.05 61.75 207.3 59.5 207.4 55.5
L 208.2 55.45 208.6 59.35
Q 207.3 57.8 207.1 59.7 207.25 62.1 207.25 62.25 207.65 65.95 211.85 68.5 213.35 69.4 214.95 70 216.25 70.5 216.75 70.45 223.35 69.85 227.4 59.9 228.5 57.25 230.2 51.85 231.6 46.9 232.35 45.3
L 232.3 44.55
Q 233.05 46.9 234.8 48.6 237.5 51.15 241.6 50.8 245.8 50.4 247.75 48.25 249.15 46.85 251.7 41.2
L 253.3 41.05
Q 253.5 43.35 253.7 44.4 254 46.2 254.65 47.2
L 260.9 46.65
Q 265 44.75 267.05 42.25 268.95 39.9 269.5 36.4 269.95 33.6 269.55 28.9
L 268.85 23
Q 269.35 26.45 270 29.05 271.8 36.6 275.2 39.75 276.75 41.25 278.95 43.95 280.9 46.25 282 47.1 285.45 49.85 293.1 49.15 298.65 48.65 302.15 46.55 305.2 44.75 306.95 41.6 305.85 44.5 306.9 47.85 307.85 50.95 310.4 53.6 312.85 56.35 316 57.85 319.35 59.35 322.45 59.05 323.5 59 325.5 58.4 327.5 57.85 328.25 57.8 328.25 57.5 328.25 57.35
L 328.3 57.8 328.25 57.8
Q 328.2 59.1 327.85 61.5 327.35 64.8 327.45 65.7 328.1 71.95 330.9 76.45 334.2 81.65 338.9 81.2 340.15 81.1 342 80.45 343.05 80.1 345.35 79.05 345.45 80.25 345.3 82.75 345.15 85.3 345.25 86.15 345.65 90.25 351.35 91.9 355.5 93.1 359.65 92.75 362.55 92.45 364.85 90.5 365.35 87.65 365.15 84.65 364.55 74.6 357 68 353.2 64.55 348.65 63.05 349.8 60.75 350.6 58.05 353.15 48.4 348.2 39.75 Z"/>
</g>

<g id="S_mbolo_1_0_Layer1_1_MEMBER_1_MEMBER_1_MEMBER_5_MEMBER_0_MEMBER_3_MEMBER_1_FILL">
<path fill="#000000" fill-opacity="0.3686274509803922" stroke="none" d="
M 353.5 85.15
Q 353.05 77.4 346.6 72.2 343.25 69.55 339.3 68.4 340.35 66.55 341.05 64.4 343.4 56.9 339.05 50.1 334.85 43.35 326.5 41.3 321.45 40.05 316.75 40.95 316.15 38.05 314.45 35.35 310.45 29 302.6 27.05 294.7 25.15 287.65 28.8 284.6 30.25 282.5 32.45 279.9 28.65 275.75 25.55 266.1 18.35 253.5 19.4 240.95 20.55 232.85 29.3 226.2 36.45 225.8 45.4 224.35 45.35 222.85 45.45 214.75 46.2 209.45 51.85 204.2 57.5 204.95 64.8 205.3 68.5 207.15 71.55 203.45 73.25 200.65 76.3 195.05 82.4 195.85 90.2 196.6 97.95 203.3 102.85 210 107.85 218.65 107.1 227.3 106.35 232.85 100.3 238.5 94.25 237.75 86.5 237.3 81.85 234.75 78.25
L 234.75 78.2
Q 236 79.8 237.75 81.1 242.9 85 249.6 84.35 256.2 83.8 260.5 79.15 263.1 76.35 263.9 73.05 265.45 72.7 266.85 72.2 268.2 74.8 270.8 76.8 275.55 80.45 281.6 79.9 287.6 79.35 291.45 75.15 292.95 77.35 295.25 79.1 301.35 84 309.45 83.6 310.6 83.5 311.7 83.3 311.35 85.4 311.45 87.55 311.95 95.3 318.4 100.5 324.9 105.65 333.6 105.2 342.3 104.7 348.2 98.9 354 93 353.5 85.15 Z"/>
</g>

<g id="S_mbolo_1_0_Layer1_1_MEMBER_1_MEMBER_1_MEMBER_5_MEMBER_1_FILL">
<path fill="#CC0000" stroke="none" d="
M 633.4 222.85
Q 632.2421875 223.3 628.95 226.85 625.7078125 230.4 627.55 236.85 628.15 236.7 628.85 236.6 630.15 236.4 631.6 236.35 633 236.25 634.3 236.3 637.4 236.45 640.2 237.35 641.5 237.8 642.65 238.35 642.9 238.45 643.05 238.55 644.95 239.4 646.05 239 646.45 238.85 646.75 238.6 646.75 238.55 646.8 238.5 647.6 237.65 647.6 235.5 647.6 230.25 643.25 226.5 639.15 223 633.4 222.85 Z"/>

<path fill="#580000" stroke="none" d="
M 624 237.75
Q 625.6 237.2 627.55 236.85 625.7078125 230.4 628.95 226.85 632.2421875 223.3 633.4 222.85 633.1 222.8 632.75 222.8 631.95 222.8 631.2 222.85 626.65 223.25 623.15 225.8 622.7 226.15 622.25 226.5 617.9 230.25 617.9 235.5 617.9 237.35 618.4 238.3 619.25 240.05 621.7 238.7 621.75 238.7 621.85 238.65 622.15 238.5 622.45 238.35 623.2 238 624 237.75 Z"/>
</g>

<g id="S_mbolo_1_0_Layer1_1_MEMBER_1_MEMBER_1_MEMBER_5_MEMBER_2_FILL">
<path fill="#743312" stroke="none" d="
M 256.45 120.4
Q 249.4 128.05 237.9 130.3 252.6 133.4 256.45 120.4 Z"/>
</g>

<g id="S_mbolo_1_0_Layer1_1_MEMBER_1_MEMBER_1_MEMBER_5_MEMBER_3_FILL">
<path fill="#743312" stroke="none" d="
M 291.15 117.05
Q 296.8 129.55 310.95 124.65 299.75 122.7 291.15 117.05 Z"/>
</g>

<g id="S_mbolo_1_0_Layer1_1_MEMBER_1_MEMBER_1_MEMBER_5_MEMBER_4_FILL">
<path fill="#000000" stroke="none" d="
M 259.7 113.45
Q 250.15 121.35 236.2 122.25 253.15 128.3 259.7 113.45 Z"/>
</g>

<g id="S_mbolo_1_0_Layer1_1_MEMBER_1_MEMBER_1_MEMBER_5_MEMBER_5_FILL">
<path fill="#000000" stroke="none" d="
M 312.05 115.25
Q 298.6 115.5 287.15 110.9 296.65 124.3 312.05 115.25 Z"/>
</g>

<g id="S_mbolo_1_0_Layer1_1_MEMBER_1_MEMBER_1_MEMBER_6_MEMBER_0_FILL">
<path fill="#E06224" stroke="none" d="
M 591.5 392
Q 591.5 393.85 592.8 395.15 594.15 396.5 596 396.5
L 617 396.5
Q 618.85 396.5 620.15 395.15 621.5 393.85 621.5 392 621.5 390.15 620.15 388.8 618.85 387.5 617 387.5
L 596 387.5
Q 594.15 387.5 592.8 388.8 591.5 390.15 591.5 392 Z"/>
</g>

<g id="S_mbolo_1_0_Layer1_1_MEMBER_1_MEMBER_1_MEMBER_6_MEMBER_1_FILL">
<path fill="#E06224" stroke="none" d="
M 591.5 392
Q 591.5 393.85 592.8 395.15 594.15 396.5 596 396.5
L 617 396.5
Q 618.85 396.5 620.15 395.15 621.5 393.85 621.5 392 621.5 390.15 620.15 388.8 618.85 387.5 617 387.5
L 596 387.5
Q 594.15 387.5 592.8 388.8 591.5 390.15 591.5 392 Z"/>
</g>

<g id="S_mbolo_1_0_Layer1_1_MEMBER_1_MEMBER_1_MEMBER_6_MEMBER_2_FILL">
<path fill="#E06224" stroke="none" d="
M 591.5 392
Q 591.5 393.85 592.8 395.15 594.15 396.5 596 396.5
L 617 396.5
Q 618.85 396.5 620.15 395.15 621.5 393.85 621.5 392 621.5 390.15 620.15 388.8 618.85 387.5 617 387.5
L 596 387.5
Q 594.15 387.5 592.8 388.8 591.5 390.15 591.5 392 Z"/>
</g>

<g id="S_mbolo_1_0_Layer1_1_MEMBER_1_MEMBER_1_MEMBER_6_MEMBER_3_FILL">
<path fill="#E06224" stroke="none" d="
M 591.5 392
Q 591.5 393.85 592.8 395.15 594.15 396.5 596 396.5
L 617 396.5
Q 618.85 396.5 620.15 395.15 621.5 393.85 621.5 392 621.5 390.15 620.15 388.8 618.85 387.5 617 387.5
L 596 387.5
Q 594.15 387.5 592.8 388.8 591.5 390.15 591.5 392 Z"/>
</g>

<g id="S_mbolo_1_0_Layer1_1_MEMBER_1_MEMBER_1_MEMBER_6_MEMBER_4_FILL">
<path fill="#E06224" stroke="none" d="
M 478.1 354.7
Q 478.1 362.45 483.5 367.85 488.95 373.35 496.6 373.35
L 503.9 373.35
Q 511.55 373.35 516.95 367.85 522.4 362.45 522.4 354.7 522.4 347 516.95 341.5 511.55 336.05 503.9 336.05 507.328125 339.6626953125 485.55 337.35 487.074609375 337.925390625 483.5 341.5 478.1 347 478.1 354.7 Z"/>
</g>

<g id="S_mbolo_1_0_Layer1_1_MEMBER_1_MEMBER_1_MEMBER_6_MEMBER_5_FILL">
<path fill="#E06224" stroke="none" d="
M 468.45 285.5
Q 469.95 287 472 287
L 491.5 287
Q 493.55 287 495 285.5 496.5 284.05 496.5 282 496.5 279.95 495 278.45 493.55 277 491.5 277
L 472 277
Q 469.95 277 468.45 278.45 467 279.95 467 282 467 284.05 468.45 285.5 Z"/>
</g>

<g id="S_mbolo_1_0_Layer1_1_MEMBER_1_MEMBER_1_MEMBER_7_FILL">
<path fill="#B40606" fill-opacity="0.4392156862745098" stroke="none" d="
M 304.5 265.9
L 305.6 265.25
Q 305.25 264.1 302.55 262.75 300 261.65 299.95 261.6 299.95 261.55 300.25 260.6 300.6 259.6 300.45 259.15 300.35 258.75 300.1 258.65 299.9 258.5 299.85 258.4 299.4 258.55 298.75 258.6 298 258.7 297.65 258.8 293.7 263.05 292.6 264.25 293.15 265.95 295.75 266.2 298.05 266.45 300.35 265.6 300.7 267.85 298.85 268
L 299.4 269.7
Q 300.25 269.25 302 269.8 302.65 269.5 303.35 269.15 304.45 268.3 303.15 266.6 303.95 266.35 304.5 265.9 Z"/>
</g>

<g id="S_mbolo_1_0_Layer1_1_MEMBER_1_MEMBER_1_MEMBER_8_FILL">
<path fill="#B40606" fill-opacity="0.4392156862745098" stroke="none" d="
M 357.85 209.9
Q 356.15 208.05 356.15 208 356.15 207.95 356.65 207.15 357.15 206.3 357.15 205.85 357.15 205.45 357 205.25 356.9 205.05 356.9 204.95 356.5 204.95 355.95 204.8 355.4 204.7 355.1 204.7 351.05 207.55 349.9 208.25 349.95 210.05 351.85 211.1 353.55 212.05 355.45 211.95 355.15 214.2 353.75 213.75
L 353.75 215.55
Q 354.5 215.35 355.75 216.5 356.25 216.4 356.9 216.25 357.9 215.8 357.35 213.75 358 213.75 358.55 213.55
L 359.55 213.15
Q 359.55 212 357.85 209.9 Z"/>
</g>

<g id="S_mbolo_1_0_Layer1_1_MEMBER_1_MEMBER_1_MEMBER_9_FILL">
<path fill="#B40606" fill-opacity="0.4392156862745098" stroke="none" d="
M 341.85 230.9
Q 341.2 230.9 340.05 230.65 338.9 230.4 338.4 230.4 337.9 230.4 337 230.85 335.75 231.45 335.75 232.45 335.75 232.6 336.55 234 336.7 234.2 336.75 234.4 335.6 235.3 335.45 235.5 335.35 235.65 335.35 236.55 335.35 237.1 335.55 237.4 335.75 237.65 335.75 237.75
L 337.8 237.75
Q 338.6 237.55 340.25 236.2 341.05 235.55 341.85 234.95
L 341.85 230.9 Z"/>
</g>

<g id="S_mbolo_1_0_Layer1_1_MEMBER_1_MEMBER_1_MEMBER_10_FILL">
<path fill="#B40606" fill-opacity="0.4392156862745098" stroke="none" d="
M 351.85 221.15
Q 351.05 219.65 349.5 219.4
L 349.5 221.85
Q 347.8 221.9 347.45 222.25 347.45 222.85 347.7 223.85 347.9 224.9 347.9 225.5 351.45 225.3 352.1 224.7 352.35 224.45 352.35 222.85 352.35 222.2 351.85 221.15 Z"/>
</g>

<path id="S_mbolo_4_0_Layer0_0_1_STROKES" stroke="#333333" stroke-width="1" stroke-linejoin="round" stroke-linecap="round" fill="none" d="
M 1061.3 394.55
L 1061.3 -100.45"/>
</defs>

<g transform="matrix( 1, 0, 0, 1, 37.5,23) ">
<mask id="Mask_Mask_1">
<g transform="matrix( 1, 0, 0, 1, -49,-35) ">
<use xlink:href="#Mask_S_mbolo_1_0_1_MASK_0_FILL"/>
</g>
</mask>

<g mask="url(#Mask_Mask_1)">
<g filter="url(#Filter_1)" transform="matrix( 1, 0, 0, 1, -37.5,-23) ">
<g transform="matrix( 1, 0, 0, 1, -279,-237.8) ">
<g transform="matrix( 1, 0, 0, 1, 316.5,260.8) ">
<use xlink:href="#S_mbolo_4_0_Layer0_0_FILL"/>

<use xlink:href="#S_mbolo_4_0_Layer0_0_1_STROKES"/>
</g>

<g transform="matrix( 1, 0, 0, 1, 316.5,260.8) ">
<use xlink:href="#S_mbolo_4_0_Layer0_0_MEMBER_0_FILL"/>
</g>

<g transform="matrix( 1, 0, 0, 1, 316.5,260.8) ">
<use xlink:href="#S_mbolo_4_0_Layer0_0_MEMBER_1_FILL"/>
</g>

<g transform="matrix( 1.187255859375, 0, 0, 1.187255859375, 1158.8,628.05) ">
<g transform="matrix( 1, 0, 0, 1, 0,0) ">
<use xlink:href="#ba__0_Layer2_0_FILL"/>
</g>

<g transform="matrix( 1, 0, 0, 1, 0,0) ">
<use xlink:href="#ba__0_Layer1_0_FILL"/>
</g>
</g>

<g transform="matrix( 1, 0, 0, 1, 316.5,260.8) ">
<use xlink:href="#S_mbolo_4_0_Layer0_0_MEMBER_2_MEMBER_1_FILL"/>
</g>

<g transform="matrix( 1, 0, 0, 1, 316.5,260.8) ">
<use xlink:href="#S_mbolo_4_0_Layer0_0_MEMBER_2_MEMBER_2_FILL"/>
</g>

<g transform="matrix( -0.9253997802734375, 0, 0, 0.9253997802734375, 198.3,657.1) ">
<g transform="matrix( 1, 0, 0, 1, 0,0) ">
<use filter="url(#Filter_2)" xlink:href="#perna_0_Layer0_0_FILL"/>
</g>
</g>

<g transform="matrix( 0.9253997802734375, 0, 0, 0.9253997802734375, 282.1,657.1) ">
<g transform="matrix( 1, 0, 0, 1, 0,0) ">
<use filter="url(#Filter_2)" xlink:href="#perna_0_Layer0_0_FILL"/>
</g>
</g>

<g transform="matrix( 1, 0, 0, 1, 316.5,260.8) ">
<use xlink:href="#S_mbolo_4_0_Layer0_0_MEMBER_3_MEMBER_2_FILL"/>
</g>

<g transform="matrix( 1, 0, 0, 1, 316.5,260.8) ">
<use xlink:href="#S_mbolo_4_0_Layer0_0_MEMBER_3_MEMBER_3_FILL"/>
</g>

<g transform="matrix( 1, 0, 0, 1, 316.5,260.8) ">
<use xlink:href="#S_mbolo_4_0_Layer0_0_MEMBER_3_MEMBER_4_FILL"/>
</g>

<g transform="matrix( 1, 0, 0, 1, 316.5,260.8) ">
<use xlink:href="#S_mbolo_4_0_Layer0_0_MEMBER_3_MEMBER_5_FILL"/>
</g>
</g>
</g>

<g transform="matrix( 1.06927490234375, 0, 0, 0.5, -904.3,332.05) ">
<use xlink:href="#S_mbolo_1_0_Layer1_1_MEMBER_0_FILL"/>
</g>

<g transform="matrix( 1, 0, 0, 1, 0,0) ">
<use xlink:href="#S_mbolo_1_0_Layer1_1_MEMBER_1_MEMBER_0_FILL"/>
</g>

<g transform="matrix( 1, 0, 0, 1, 0,0) ">
<use xlink:href="#S_mbolo_1_0_Layer1_1_MEMBER_1_MEMBER_1_MEMBER_0_FILL"/>
</g>

<g transform="matrix( 1, 0, 0, 1, 0,0) ">
<use xlink:href="#S_mbolo_1_0_Layer1_1_MEMBER_1_MEMBER_1_MEMBER_0_MEMBER_0_FILL"/>
</g>

<g transform="matrix( 1, 0, 0, 1, 0,0) ">
<use xlink:href="#S_mbolo_1_0_Layer1_1_MEMBER_1_MEMBER_1_MEMBER_0_MEMBER_1_FILL"/>
</g>

<g transform="matrix( 0.8145294189453125, 0.0062713623046875, 0, 0.8145294189453125, -220.25,-47.15) ">
<use xlink:href="#S_mbolo_1_0_Layer1_1_MEMBER_1_MEMBER_1_MEMBER_1_MEMBER_0_FILL"/>
</g>

<g transform="matrix( 0.8105010986328125, -0.07476806640625, 0.0810089111328125, 0.81109619140625, -254.2,6.05) ">
<use xlink:href="#S_mbolo_1_0_Layer1_1_MEMBER_1_MEMBER_1_MEMBER_1_MEMBER_1_FILL"/>
</g>

<g transform="matrix( 1, 0, 0, 1, 0,0) ">
<use xlink:href="#S_mbolo_1_0_Layer1_1_MEMBER_1_MEMBER_1_MEMBER_2_FILL"/>
</g>

<g transform="matrix( 1, 0, 0, 1, 0,0) ">
<use xlink:href="#S_mbolo_1_0_Layer1_1_MEMBER_1_MEMBER_1_MEMBER_3_FILL"/>
</g>

<g transform="matrix( 1, 0, 0, 1, 0,0) ">
<use xlink:href="#S_mbolo_1_0_Layer1_1_MEMBER_1_MEMBER_1_MEMBER_4_FILL"/>
</g>

<g transform="matrix( 1, 0, 0, 1, -336.15,-113.2) ">
<use xlink:href="#S_mbolo_1_0_Layer1_1_MEMBER_1_MEMBER_1_MEMBER_5_MEMBER_0_MEMBER_0_MEMBER_0_FILL"/>
</g>

<g transform="matrix( 1, 0, 0, 1, -336.15,-113.2) ">
<use xlink:href="#S_mbolo_1_0_Layer1_1_MEMBER_1_MEMBER_1_MEMBER_5_MEMBER_0_MEMBER_0_MEMBER_1_FILL"/>
</g>

<g transform="matrix( 0.3892364501953125, 0.054229736328125, -0.051239013671875, 0.3888397216796875, -261.9,159.25) ">
<use xlink:href="#S_mbolo_1_0_Layer1_1_MEMBER_1_MEMBER_1_MEMBER_5_MEMBER_0_MEMBER_1_MEMBER_0_FILL"/>
</g>

<g transform="matrix( 0.3892364501953125, 0.054229736328125, -0.051239013671875, 0.3888397216796875, -261.9,159.25) ">
<use xlink:href="#S_mbolo_1_0_Layer1_1_MEMBER_1_MEMBER_1_MEMBER_5_MEMBER_0_MEMBER_1_MEMBER_1_FILL"/>
</g>

<g transform="matrix( 1, 0, 0, 1, 0,0) ">
<use xlink:href="#S_mbolo_1_0_Layer1_1_MEMBER_1_MEMBER_1_MEMBER_5_MEMBER_0_MEMBER_2_FILL"/>
</g>

<g transform="matrix( 1, 0, 0, 1, 0,0) ">
<use xlink:href="#S_mbolo_1_0_Layer1_1_MEMBER_1_MEMBER_1_MEMBER_5_MEMBER_0_MEMBER_2_MEMBER_0_FILL"/>
</g>

<g transform="matrix( 0.8105010986328125, -0.07476806640625, 0.0810089111328125, 0.81109619140625, -141.3,39.1) ">
<use xlink:href="#S_mbolo_1_0_Layer1_1_MEMBER_1_MEMBER_1_MEMBER_5_MEMBER_0_MEMBER_2_MEMBER_1_FILL"/>
</g>

<g transform="matrix( 1, 0, 0, 1, 0,0) ">
<use xlink:href="#S_mbolo_1_0_Layer1_1_MEMBER_1_MEMBER_1_MEMBER_5_MEMBER_0_MEMBER_2_MEMBER_2_FILL"/>
</g>

<g transform="matrix( 1, 0, 0, 1, 0,0) ">
<use xlink:href="#S_mbolo_1_0_Layer1_1_MEMBER_1_MEMBER_1_MEMBER_5_MEMBER_0_MEMBER_2_MEMBER_3_FILL"/>
</g>

<g transform="matrix( 1, 0, 0, 1, 0,0) ">
<use xlink:href="#S_mbolo_1_0_Layer1_1_MEMBER_1_MEMBER_1_MEMBER_5_MEMBER_0_MEMBER_2_MEMBER_4_FILL"/>
</g>

<g transform="matrix( 1, 0, 0, 1, 0,0) ">
<use xlink:href="#S_mbolo_1_0_Layer1_1_MEMBER_1_MEMBER_1_MEMBER_5_MEMBER_0_MEMBER_2_MEMBER_5_FILL"/>
</g>

<g transform="matrix( 1, 0, 0, 1, 0,0) ">
<use xlink:href="#S_mbolo_1_0_Layer1_1_MEMBER_1_MEMBER_1_MEMBER_5_MEMBER_0_MEMBER_2_MEMBER_6_FILL"/>
</g>

<g transform="matrix( 1, 0, 0, 1, 0,0) ">
<use xlink:href="#S_mbolo_1_0_Layer1_1_MEMBER_1_MEMBER_1_MEMBER_5_MEMBER_0_MEMBER_3_MEMBER_0_FILL"/>
</g>

<g transform="matrix( 1, 0, 0, 1, 0,0) ">
<use xlink:href="#S_mbolo_1_0_Layer1_1_MEMBER_1_MEMBER_1_MEMBER_5_MEMBER_0_MEMBER_3_MEMBER_1_FILL"/>
</g>

<g transform="matrix( 0.8105010986328125, -0.07476806640625, 0.0810089111328125, 0.81109619140625, -254.2,6.05) ">
<use xlink:href="#S_mbolo_1_0_Layer1_1_MEMBER_1_MEMBER_1_MEMBER_5_MEMBER_1_FILL"/>
</g>

<g transform="matrix( 1, 0, 0, 1, 0,0) ">
<use xlink:href="#S_mbolo_1_0_Layer1_1_MEMBER_1_MEMBER_1_MEMBER_5_MEMBER_2_FILL"/>
</g>

<g transform="matrix( 1, 0, 0, 1, 0,0) ">
<use xlink:href="#S_mbolo_1_0_Layer1_1_MEMBER_1_MEMBER_1_MEMBER_5_MEMBER_3_FILL"/>
</g>

<g transform="matrix( 1, 0, 0, 1, 0,0) ">
<use xlink:href="#S_mbolo_1_0_Layer1_1_MEMBER_1_MEMBER_1_MEMBER_5_MEMBER_4_FILL"/>
</g>

<g transform="matrix( 1, 0, 0, 1, 0,0) ">
<use xlink:href="#S_mbolo_1_0_Layer1_1_MEMBER_1_MEMBER_1_MEMBER_5_MEMBER_5_FILL"/>
</g>

<g transform="matrix( 0.590118408203125, -0.3276214599609375, 0.3329010009765625, 0.589508056640625, -205.6,227.5) ">
<use xlink:href="#S_mbolo_1_0_Layer1_1_MEMBER_1_MEMBER_1_MEMBER_6_MEMBER_0_FILL"/>
</g>

<g transform="matrix( 0.560699462890625, -0.3749542236328125, 0.3801727294921875, 0.56036376953125, -205.4,275.25) ">
<use xlink:href="#S_mbolo_1_0_Layer1_1_MEMBER_1_MEMBER_1_MEMBER_6_MEMBER_1_FILL"/>
</g>

<g transform="matrix( 0.560699462890625, -0.3749542236328125, 0.3801727294921875, 0.56036376953125, -200.7,280.75) ">
<use xlink:href="#S_mbolo_1_0_Layer1_1_MEMBER_1_MEMBER_1_MEMBER_6_MEMBER_2_FILL"/>
</g>

<g transform="matrix( 0.743499755859375, -0.576080322265625, 0.3826904296875, 0.4877471923828125, -302.75,431.95) ">
<use xlink:href="#S_mbolo_1_0_Layer1_1_MEMBER_1_MEMBER_1_MEMBER_6_MEMBER_3_FILL"/>
</g>

<g transform="matrix( 0.560699462890625, -0.3749542236328125, 0.3801727294921875, 0.56036376953125, -113.05,246.75) ">
<use xlink:href="#S_mbolo_1_0_Layer1_1_MEMBER_1_MEMBER_1_MEMBER_6_MEMBER_4_FILL"/>
</g>

<g transform="matrix( 0.8220672607421875, 0.0082550048828125, -0.002685546875, 0.67437744140625, -100.5,52.3) ">
<use xlink:href="#S_mbolo_1_0_Layer1_1_MEMBER_1_MEMBER_1_MEMBER_6_MEMBER_5_FILL"/>
</g>

<g transform="matrix( 1, 0, 0, 1, 0,0) ">
<use xlink:href="#S_mbolo_1_0_Layer1_1_MEMBER_1_MEMBER_1_MEMBER_7_FILL"/>
</g>

<g transform="matrix( 1, 0, 0, 1, 0,0) ">
<use xlink:href="#S_mbolo_1_0_Layer1_1_MEMBER_1_MEMBER_1_MEMBER_8_FILL"/>
</g>

<g transform="matrix( 1, 0, 0, 1, 0,0) ">
<use xlink:href="#S_mbolo_1_0_Layer1_1_MEMBER_1_MEMBER_1_MEMBER_9_FILL"/>
</g>

<g transform="matrix( 1, 0, 0, 1, 0,0) ">
<use xlink:href="#S_mbolo_1_0_Layer1_1_MEMBER_1_MEMBER_1_MEMBER_10_FILL"/>
</g>
</g>
</g>
</svg>
