<svg xmlns="http://www.w3.org/2000/svg" xmlns:xlink="http://www.w3.org/1999/xlink" preserveAspectRatio="none" width="672" height="547" viewBox="0 0 672 547"><defs><linearGradient id="a" gradientUnits="userSpaceOnUse" x1="179.638" y1="-148.525" x2="106.662" y2="288.425"><stop offset="0%" stop-color="#FFF"/><stop offset="98.824%" stop-color="#69C"/></linearGradient><linearGradient id="b" gradientUnits="userSpaceOnUse" x1="-122.025" y1="57.05" x2="-95.975" y2="57.05"><stop offset="28.627%" stop-color="#D9D9D9"/><stop offset="97.255%" stop-color="#666"/></linearGradient><linearGradient id="c" gradientUnits="userSpaceOnUse" x1="99.3" y1="54.65" x2="122" y2="54.65"><stop offset="28.627%" stop-color="#D9D9D9"/><stop offset="97.255%" stop-color="#666"/></linearGradient><linearGradient id="d" gradientUnits="userSpaceOnUse" x1="1.95" y1="-67.45" x2="1.95" y2="-39.85"><stop offset="0%" stop-color="#C60"/><stop offset="100%" stop-color="#653201"/></linearGradient><linearGradient id="e" gradientUnits="userSpaceOnUse" x1="2.45" y1="-183" x2="2.45" y2="-69.7"><stop offset="0%" stop-color="#FD9935"/><stop offset="100%" stop-color="#6B3C0C"/></linearGradient><linearGradient id="f" gradientUnits="userSpaceOnUse" x1="3.35" y1="-74.2" x2="3.35" y2="-178.2"><stop offset="0%" stop-color="#C60"/><stop offset="100%" stop-color="#653201"/></linearGradient><filter id="i" x="-20%" y="-20%" width="140%" height="140%" color-interpolation-filters="sRGB"><feGaussianBlur in="SourceGraphic" stdDeviation="3.6666666666666665,3.6666666666666665" result="result1"/></filter><filter id="r" x="-20%" y="-20%" width="140%" height="140%" color-interpolation-filters="sRGB"><feColorMatrix in="SourceGraphic" values="0.52 0 0 0 0 0 0.52 0 0 0 0 0 0.52 0 0 0 0 0 1 0" result="result1"/></filter><path fill="#FFF" d="M672.75 67.1q0-20.35-14.4-34.75Q644 18 623.65 18H77.1q-20.35 0-34.75 14.35Q28 46.75 28 67.1v430.6q0 20.35 14.35 34.7 14.4 14.4 34.75 14.4h546.55q20.35 0 34.7-14.4 14.4-14.35 14.4-34.7V67.1z" id="g"/><g id="j"><path fill="#C1C4D7" d="M458.85-155.85l-1.15.2v.6l1.15-.8z"/><path fill="#8080AA" d="M457.7-156.45l-2.95 1.4 2.95-1.1v-.3z"/></g><g id="l"><path fill="#CC9" d="M1048.1 393.85l-11.45-2.25L448.9 285.35-316.5 425.8v90.75h1599.55V438.8l-234.95-44.95z"/><path fill="#FFE" d="M449.4 253.6l-.5 31.75 587.75 106.25v-44.25L449.4 253.6z"/><path fill="#FFF" d="M448.9 253.5l-.95-1.85L-316.5 377.6v48.2l765.4-140.45.5-31.75-.5-.1m-669.3 63.8v1.85l1.35-1.95-1.35.1M375.5 234l4.65-145.85L255 250.95 375.5 234M250.85-128.15l-88.1-11.25-309.05 446.85 61.2-8.6 335.95-427M125.3-144.2l-24.95-3.25L-213.4 308.9l.1 7.9 6.2-.8 332.4-460.2z"/><path fill="#F7F3BC" d="M458-155.25h-2.95l-660-105.55H-316.5v638.4l764.45-125.95L458-155.25m-31.35 19.9l-12.9 384.65-661.35 96.95-8-575.3 682.25 93.7m-645.7 452.55l5.75-.4-.1-7.9-5.65 8.3m625.6-435.1l-.5-.2-11.8 359.4-614.65 88.2v.7l615-88.6 11.95-359.5z"/><path fill="#999" d="M413.75 249.3l12.9-384.65-682.25-93.7 8 575.3 661.35-96.95m-7.7-367.4l.5.2-11.95 359.5-615 88.6V317.3l-6.6-518.5 633.05 83.1z"/><path fill="url(#a)" d="M-219.55-188.45l6.15 497.35 313.75-456.35-319.9-41m606 77.65l-135.6-17.35-335.95 427 340.1-47.9 125.15-162.8 6.3-198.95m-223.7-28.6l-37.45-4.8L-207.1 316l60.8-8.55L162.75-139.4z"/><path fill="#CCC" d="M100.35-147.45l24.95 3.25 37.45 4.8 88.1 11.25 135.6 17.35-6.3 198.95L375.5 234 255 250.95l-340.1 47.9-61.2 8.6-60.8 8.55-6.2.8-5.75.4-1.35 1.95v10.35l614.65-88.2 11.8-359.4L-227-201.2l6.6 518.5 1.35-.1 5.65-8.3-6.15-497.35 319.9 41z"/><path fill="#FFD" d="M459.05-156.25l.1.2L958.5-260.8H-204.95l660 105.55 2.95-1.4 1.05.4z"/><path fill="#F1E896" d="M1040.2-132.7l242.85-22.05V-260.8H958.5L459.15-156.05l-1.15.8-10.05 406.9.95 1.85.5.1 587.25 93.75 3.55.6V-132.7z"/><path fill="#DAC61D" d="M1283.05-136.65v-18.1L1040.2-132.7v480.65l-3.55-.6v44.25l11.45 2.25 34.7-9.25v-503.1l200.25-18.15z"/></g><g id="m"><path fill="#CCC" d="M1024.65 79.5l-36.95 1.85-.5 58.85 37.85-.2-.4-60.5M995.1 92.4l19.3-.2.1 13.7-19.25.1-.15-13.6m19.7 20.9l-.5 13.1h-19.05l.4-13.6 19.15.5z"/><path fill="#FFF" d="M1014.3 126.4l.5-13.1-19.15-.5-.4 13.6h19.05m.1-34.2l-19.3.2.15 13.6 19.25-.1-.1-13.7z"/><path fill="#999" d="M1028.7 79.3l-4.05.2.4 60.5-37.85.2v2.85l37.75.1 4.05.7-.3-64.55z"/></g><g id="n"><path fill="url(#b)" d="M-95.95 69.6L-122 44.55V69.6h26.05z"/><path fill="#B16A01" d="M122 26.35V-7.4h-244v32.05l244 1.7m0 13.35V28.55l-244-.9v16.9l26.05 25.05H99.3L122 39.7m0-50.05V-36.4h-244v27l244-.95z"/><path fill="url(#c)" d="M122 39.7L99.3 69.6H122V39.7z"/><path fill="#6D4201" d="M122 28.55v-2.2l-244-1.7v3l244 .9m0-35.95v-2.95l-244 .95v2h244z"/><path fill="#F49302" d="M122-36.4l-15.9-33.2h-209.15L-122-36.4h244m-18.45-31.05l.3.7 11.75 26.9H-115.05l14.9-26.6h.2l203.5-1z"/><path fill="#7E4001" d="M-99.95-66.45h-.2l-14.9 26.6h15.1v-26.6m203.8-.3l-.85.35v26.55h12.6l-11.75-26.9z"/><path fill="url(#d)" d="M103.85-66.75l-.3-.7-203.5 1v26.6H103V-66.4l.85-.35z"/></g><g id="o"><path fill="url(#e)" d="M106.95-69.7V-183H-102.1v113.3h209.05m-3.7-108.5v104h-199.8v-104h199.8z"/><path fill="#7E4001" d="M-90.15-154.5q-.3-1.5-.6-2.95-2.2-10.4-5.8-20.75v104q4.05-11.65 6.35-23.25.25-1.55.55-3 2.2-13.05 2.2-26v-2.05q-.25-13-2.7-26m188.15-2q-.2 1-.35 2-2.2 13-2.35 26-.05 1.5-.05 2.95.05 13 2.1 26.05.25 1.45.5 2.95 1.95 11.15 5.4 22.35v-104Q99.9-167.35 98-156.5z"/><path fill="url(#f)" d="M103.25-74.2q-3.45-11.2-5.4-22.35l-188.05-.9q-2.3 11.6-6.35 23.25h199.8m-5.6-80.3q.15-1 .35-2l-188.75-.95q.3 1.45.6 2.95 2.45 13 2.7 26v2.05l182.7.9q0-1.45.05-2.95.15-13 2.35-26z"/><path fill="#764701" d="M97.35-99.5q-2.05-13.05-2.1-26.05l-182.7-.9q0 12.95-2.2 26-.3 1.45-.55 3l188.05.9q-.25-1.5-.5-2.95z"/><path fill="#543201" d="M98-156.5q1.9-10.85 5.25-21.7h-199.8q3.6 10.35 5.8 20.75L98-156.5z"/></g><g id="p"><path fill="#936100" d="M167.25 384.3q5.85 5.3 10.15-1.3l-10.7-77.55q-2.3-.3-8.6 7l6.3 49 2.95-1.4q3.35 1 1.8 4.05l-4.25 1.95 2.35 18.25m-33.8-63.75q-5.9 1.65-9.25-.3V412q5.05 6.1 10.15 0l-.3-32.25v-4.4l-.6-54.8m-68.65-9.4q-2.2-.35-3.95-.75-5.15-1.2-5.05-3.15l-9.25 85.2q4.45 6.45 10.15 1l2.25-22.55-3.9-.7q-2.8-3.45 1.15-5.7l3.35.7v-.7l5.25-53.35m40.9-140.6q-.3.6-1.6 1-1.75.55-3.95.35-2.25-.35-3.75-1.15-.95-.5-1.25-1.1l4.7 95.1.1 1.3q3.95 2.55 7.8 0l-.1-1.6-1-51.25-3.35-.4-1.45-35.75 3.95-1.3-.1-5.2m72 11.7q-1.55-.85-1.55-1.35v-.2l-1 5.3-.4 1.9-7.1 35.65-9.75 49.2-1.15 5.7q2.95 5.25 7.75 1.5l.5-2.7 22-95.2q-.3.7-1.6 1-1.75.6-3.95.3-2.25-.3-3.75-1.1z"/><path fill="#805400" d="M134.05 375.35v4.4l30.85-13.7 4.25-1.95q1.55-3.05-1.8-4.05l-2.95 1.4-30.35 13.9m-74.5-10.85v.7l-3.35-.7q-3.95 2.25-1.15 5.7l3.9.7 65.25 11.7v-5.1l-14.95-2.85-8.4-1.6-34.9-6.6 34.9-11.35 3.05-1.05q1.6-2.85-1.35-4.05l-1.7.6-41.3 13.9M48.5 286.05v7.8q-.1.85.1 1.75.6 4.35 7.6 8.1 1.6.95 3.55 1.85 2.35 1 5.35 2.15.35.1.65.2 1.7.6 3.65 1.2 5.65 1.6 12.25 3.05 8.75 1.7 19.2 2.85 4.55.5 9.65.9.8 0 1.8.1 6.2.4 11.9.3 4.85 0 9.15-.5 13.15-1.3 21.3-6.1 1.5-.9 2.95-1.7 5.65-3.75 8.4-7.65 2.45-3.25 2.65-6.7l-.1-7.5q-.3 1.55-1 2.95-.95 1.95-2.55 3.75-2.95 3.45-8.45 6.9-.9.6-1.9 1.15-8.25 4.75-21.4 6.05-4.3.4-9.05.5-5.7.15-11.9-.3l-2-.2q-4.9-.3-9.45-.8-8.3-.9-15.65-2.25-8.2-1.5-15.1-3.55-1.95-.5-3.85-1.1-.1-.1-.3-.1-.1-.1-.2-.1-5.1-1.75-8.65-3.65-4.95-2.55-7.1-5.3-1.4-2-1.5-4.05m54.8-73.25l3.35.4 61 10.35 7.1-35.65-72.9-10.85 1.45 35.75z"/><path fill="#A36C00" d="M110.5 323.3q-6.4 1.85-9.65-1.3v28.6l1.7-.6q2.95 1.2 1.35 4.05l-3.05 1.05v17.95l8.4 1.6q.95-.7 1.75-1.8l-.5-49.55z"/><path fill="#624000" d="M110.5 323.3v-7.4q-5.1-.4-9.65-.9v7q3.25 3.15 9.65 1.3m22.95-2.75l-.1-4.75q-4.3.5-9.15.5v3.95q3.35 1.95 9.25.3M157.6 308l.5 4.45q6.3-7.3 8.6-7l-.7-5.1q-2.75 3.9-8.4 7.65m-96.75 2.4q1.75.4 3.95.75l.3-3.45q-3-1.15-5.35-2.15-1.95-.9-3.55-1.85l-.4 3.55q-.1 1.95 5.05 3.15z"/><path fill="#BB7C00" d="M108.75 264.45h-1.1l.1 1.6q-3.85 2.55-7.8 0l-.1-1.3q-11.9.8-21.95 3.15-4.75 1.1-9.1 2.55-.95.3-1.85.6-4.25 1.5-7.6 3.15-4.15 2-6.8 4.25-1.95 1.7-2.85 3.35-1 1.5-1.2 3.15-.1.5 0 1v.1q.1 2.05 1.5 4.05 2.15 2.75 7.1 5.3 3.55 1.9 8.65 3.65.1 0 .2.1.2 0 .3.1 1.9.6 3.85 1.1 6.9 2.05 15.1 3.55 7.35 1.35 15.65 2.25 4.55.5 9.45.8l2 .2q6.2.45 11.9.3 4.75-.1 9.05-.5 13.15-1.3 21.4-6.05 1-.55 1.9-1.15 5.5-3.45 8.45-6.9 1.6-1.8 2.55-3.75.7-1.4 1-2.95l-.1-3.65q-.7-2.75-3.45-5.25l-.5 2.7q-4.8 3.75-7.75-1.5l1.15-5.7q-2.25-1.1-5.1-2.1-.9-.3-1.9-.75-15.35-5.05-35.55-5.45-2.75-.1-5.45 0h-1.15m-3.05-93.9v-1q-.3-.6-1.3-1.25-.8-.4-1.7-.7-.95-.2-2.05-.3-2.25-.3-3.85.2-1.45.4-1.75 1.15l.1 1q.3.6 1.25 1.1 1.5.8 3.75 1.15 2.2.2 3.95-.35 1.3-.4 1.6-1m69.05 17.35l.4-1.9-69.35-10.25-3.95 1.3 72.9 10.85m3.35-8.9q-1.45.5-1.65.8-.2.4-.2.5l-.1.2v.4q0 .5 1.55 1.35 1.5.8 3.75 1.1 2.2.3 3.95-.3 1.3-.3 1.6-1l.1-.55q0-.8-1.4-1.7-.8-.4-1.75-.7-.9-.2-2-.3-2.25-.35-3.85.2z"/></g><g id="q"><path fill="#A36C00" d="M163.15 466.2q1.05-.9 1.95-2.1l-.6-57.95q-7.5 2-11.3-1.75v33.5l2.05-.6q3.45 1.4 1.5 4.65l-3.55 1.2v21.05l9.95 2z"/><path fill="#805400" d="M192.1 467.45v5.05l36-15.6 5.1-2.25q1.7-3.45-2.15-4.8l-3.45 1.65-35.5 15.95m-11.5 2.2l-17.45-3.45-9.95-2-40.8-8.35 40.8-12.7 3.55-1.2q1.95-3.25-1.5-4.65l-2.05.6-48.3 15.65v.9l-3.85-1.05q-4.55 2.65-1.3 6.7l4.45.95 76.4 14.6v-6m-86.75-103.2Q92.1 364 92 361.65v9.05q-.1.9.1 2.15.75 4.95 8.95 9.55 1.95 1.1 4.15 2.2 2.65 1.25 6.3 2.55.3.2.7.3 2.05.7 4.2 1.4 6.8 2.05 14.4 3.8 10.25 2.1 22.4 3.55 5.4.8 11.3 1.2.9 0 2.2.3 7.25.4 13.9.4 5.7.1 10.6-.4 15.5-1.4 24.95-6.9 1.7-1 3.45-1.95 6.6-4.25 9.85-8.7 2.85-3.75 3.05-7.8l-.1-8.75q-.3 1.75-1.15 3.25-1 2.35-2.9 4.35-3.45 4.15-9.85 8.05-1.15.8-2.35 1.3-9.55 5.4-25.05 6.8-5 .4-10.5.4-6.65 0-13.9-.5-1.3-.2-2.4-.3-5.7-.3-11.1-1-9.6-1.25-18.25-2.85-9.65-2.05-17.65-4.4-2.25-.7-4.6-1.4-.1-.1-.3-.1-.1-.1-.2-.1-5.95-2.15-10.15-4.35-5.85-3.15-8.2-6.3m62.2-89.75l3.95.55 71.35 12.95 8.35-41.6-85.15-13.7 1.5 41.8z"/><path fill="#624000" d="M164.5 406.15v-8.75q-5.9-.4-11.3-1.2v8.2q3.8 3.75 11.3 1.75m26.9-2.85l-.2-5.6q-4.9.5-10.6.4v4.7q3.9 2.2 10.8.5m28.2-14.45l.6 5.2q7.4-8.4 10.15-8l-.9-5.9q-3.25 4.45-9.85 8.7m-118.55-6.45l-.5 4.05q-.1 2.3 6 3.85 2 .5 4.65.9l.3-4.05q-3.65-1.3-6.3-2.55-2.2-1.1-4.15-2.2z"/><path fill="#936100" d="M191.4 403.3q-6.9 1.7-10.8-.5v107.25q5.9 7.2 11.9.2l-.4-37.75v-5.05l-.7-64.15m38.95-17.25q-2.75-.4-10.15 8l7.4 57.45 3.45-1.65q3.85 1.35 2.15 4.8l-5.1 2.25 2.75 21.3q6.9 6.4 11.9-1.35l-12.4-90.8M254 242q-.3.8-1.9 1.15-1.95.7-4.6.2-2.55-.35-4.35-1.25-1.75-.9-1.75-1.6v-.2l-1.3 6.2-.4 2.1-8.35 41.6L220 347.65l-1.3 6.7q3.45 6.2 9 1.85l.65-3.25L254 242M111.2 391.2q-2.65-.4-4.65-.9-6.1-1.55-6-3.85L89.7 486q5.25 7.6 11.85 1.45l2.65-26.4-4.45-.95q-3.25-4.05 1.3-6.7l3.85 1.05v-.9l6.3-62.35M157 228.6q-1.95.5-4.6.3-2.55-.4-4.35-1.5-1.1-.5-1.45-1.2l5.5 111.3.1 1.55q4.55 2.95 9.15.1l-.1-1.95-1.25-59.95-3.95-.55-1.5-41.8 4.55-1.4-.2-6.1q-.3.7-1.9 1.2z"/><path fill="#BB7C00" d="M254 242l.2-.6q0-1-1.7-2.05-.95-.5-1.95-.8-1.2-.2-2.45-.4-2.6-.5-4.55.2-1.6.6-1.85.9-.2.45-.2.65l-.1.2v.4q0 .7 1.75 1.6 1.8.9 4.35 1.25 2.65.5 4.6-.2 1.6-.35 1.9-1.15m-101.9 95.5q-13.9.75-25.65 3.25-5.6 1.35-10.7 2.85-1 .4-2.2.8-4.9 1.55-8.85 3.55-4.85 2.25-7.9 4.9-2.25 1.9-3.45 3.85-1.15 1.7-1.35 3.55-.1.7 0 1.2v.2q.1 2.35 1.85 4.8 2.35 3.15 8.2 6.3 4.2 2.2 10.15 4.35.1 0 .2.1.2 0 .3.1 2.35.7 4.6 1.4 8 2.35 17.65 4.4 8.65 1.6 18.25 2.85 5.4.7 11.1 1 1.1.1 2.4.3 7.25.5 13.9.5 5.5 0 10.5-.4 15.5-1.4 25.05-6.8 1.2-.5 2.35-1.3 6.4-3.9 9.85-8.05 1.9-2 2.9-4.35.85-1.5 1.15-3.25l-.1-4.35q-.85-3.25-3.95-6.3l-.65 3.25q-5.55 4.35-9-1.85l1.3-6.7q-2.65-1.3-6-2.5-1-.45-2.2-.95-18-6.05-41.55-6.9-3.25-.1-6.35-.1h-2.65l.1 1.95q-4.6 2.85-9.15-.1l-.1-1.55m7-104l-4.55 1.4 85.15 13.7.4-2.1-81-13m-1.6-8.85q-1.05-.4-2.05-.7-1.2-.3-2.45-.4-2.6-.3-4.55.1-1.6.5-1.95 1.3l.1 1.25q.35.7 1.45 1.2 1.8 1.1 4.35 1.5 2.65.2 4.6-.3 1.6-.5 1.9-1.2v-1.1q-.3-.85-1.4-1.65z"/></g><g id="s"><path fill="#984B01" d="M-47.5-21.9q-9.1 5-12.05 15-2.85 10 2.15 19.15l.3-.05q-.65-4.15.65-8.5 2.25-7.8 9.4-11.75Q-39.9-11.95-32-9.7q7.8 2.3 11.75 9.45 1.6 2.9 4 7.9-.7-.05.6 1.3l5.4-9.95.1-.05q0-.05-.1 0-.6-.65.2-1.7l-.3-.3q-.6-4.55-3-8.9-5-9.15-15.05-12.1-9.95-2.9-19.1 2.15m86.3 1.3q-5.35 2.95-7 8.75-1.4 4.85.35 9.35 1.25-3.6 4.65-5.45 3.6-2 7.6-.8 3.95 1.15 5.95 4.8t.9 7.6q-.5 1.55-1.4 2.9.7-.3 1.35-.6.3-.1.6-.25.6-.3 1.15-.6 1.2-.65 2.25-1.4Q58.6.85 60-3.65q1.65-5.8-1.25-11.15-2.95-5.3-8.75-7.05-5.9-1.65-11.2 1.25z"/><path fill="#6D3701" d="M36.8-7.95Q33.4-6.1 32.15-2.5q.3.7.7 1.5-.55.05-1.1.15-36.3 5.1-41.9-.2l-.1.05-5.4 9.95q-1.3-1.35-.6-1.3-2.4-5-4-7.9Q-24.2-7.4-32-9.7q-7.9-2.25-15.05 1.65-7.15 3.95-9.4 11.75-1.3 4.35-.65 8.5.05.45.2.95 5 8.35 14.5 11.1 2.1.65 4.2.85.05.05.15.05 3.55-.05 7.05-.2 10.1-.45 20.05-1.8 30.95-4.1 60.8-16.6.9-1.35 1.4-2.9 1.1-3.95-.9-7.6-2-3.65-5.95-4.8-4-1.2-7.6.8z"/></g><g id="t"><path fill="#984B01" d="M-222.1 465.5q0 7.8 5.65 13.5 4.4 4.25 10.05 5.3 1.65.3 3.45.3h2.45q.9-.2 1.95-.3-1.85-.85-3.25-2.45-3.85-3.95-3.85-9.35 0-5.35 3.85-9.15 3.75-3.85 9.25-3.85 4.95 0 8.6 3.25-.8-6.2-5.5-10.85-5.65-5.6-13.5-5.6-8 0-13.5 5.6-5.65 5.7-5.65 13.6m149.6-42l.3-.1q0-13.7-9.65-23.35-9.55-9.55-23.15-9.55-13.6 0-23.25 9.55-9.6 9.65-9.6 23.35 0 6.25 2.1 12.05l-.1.6q1.65.65 1.25 1.85h.2l12.35 7.9q.6-2.2 0-1.7-.5-7.4-.5-11.6 0-10.75 7.5-18.25 7.65-7.6 18.3-7.6t18.15 7.6q4.05 4.05 6.1 9.25z"/><path fill="#6D3701" d="M-72.5 423.5q-2.05-5.2-6.1-9.25-7.5-7.6-18.15-7.6-10.65 0-18.3 7.6-7.5 7.5-7.5 18.25 0 4.2.5 11.6.6-.5 0 1.7l-12.35-7.9h-.2q-3.05 9.45-47.8 26.5-.75.2-1.35.5 0-1.1-.2-2.15-3.65-3.25-8.6-3.25-5.5 0-9.25 3.85-3.85 3.8-3.85 9.15 0 5.4 3.85 9.35 1.4 1.6 3.25 2.45 42.2-4.6 80.05-19.3 12.3-4.65 23.95-10.55 4.3-1.95 8.35-4.15h.1q2.35-1.75 4.25-3.8 9.15-9.1 9.65-21.8-.2-.7-.3-1.2z"/></g><g id="u"><path fill="#984B01" d="M-27.45 432.5q0 4.2-.3 11.6-.8-.5-.2 1.7l12.4-7.9h.2q-.4-1.2 1.2-1.85l-.1-.6q2.15-5.8 2.15-12.05 0-13.7-9.65-23.35-9.65-9.55-23.25-9.55-13.5 0-23.15 9.55-9.65 9.65-9.65 23.35l.3.1q2.05-5.2 6.1-9.25 7.5-7.6 18.2-7.6 10.65 0 18.25 7.6 7.5 7.5 7.5 18.25m66.9 19.4q-4.65 4.65-5.4 10.85 3.65-3.25 8.65-3.25 5.35 0 9.35 3.85 3.75 3.8 3.75 9.15 0 5.4-3.75 9.35-1.65 1.6-3.45 2.45 1 .1 1.9.3h2.45q1.8 0 3.45-.3 5.7-1.05 10.05-5.3 5.8-5.7 5.8-13.5 0-7.9-5.8-13.6-5.5-5.6-13.5-5.6-7.8 0-13.5 5.6z"/><path fill="#6D3701" d="M33.75 464.9q-.6-.3-1.3-.5-44.75-17.05-47.8-26.5h-.2l-12.4 7.9q-.6-2.2.2-1.7.3-7.4.3-11.6 0-10.75-7.5-18.25-7.6-7.6-18.25-7.6-10.7 0-18.2 7.6-4.05 4.05-6.1 9.25-.1.5-.3 1.2.5 12.7 9.65 21.8 1.95 2.05 4.25 3.8h.1q4.1 2.2 8.35 4.15 11.75 5.9 23.95 10.55 37.95 14.7 80.1 19.3 1.8-.85 3.45-2.45 3.75-3.95 3.75-9.35 0-5.35-3.75-9.15-4-3.85-9.35-3.85-5 0-8.65 3.25-.3 1.05-.3 2.15z"/></g><g id="v"><path fill="#984B01" d="M-96.35 371.3q-3.55 1.15-6.6 2.55-4.05 2.15-6.7 4.55 2.45 5.1 9.15 8.95 10.55 6.2 25.55 6.2 14.85 0 25.4-6.2 7.5-4.35 9.75-9.85-2.45-2-5.6-3.65-4.35-2.25-9.45-3.75-9.25 12.9-21.1 12.9-11.35 0-20.4-11.7z"/><path fill="#630" d="M-109.65 378.4q-5.2 4.8-5.2 10.55 0 8.85 11.9 15.25 11.85 6.2 28.9 6.2 16.75 0 28.65-6.2 11.95-6.4 11.95-15.25 0-6.45-6.35-11.45-2.25 5.5-9.75 9.85-10.55 6.2-25.4 6.2-15 0-25.55-6.2-6.7-3.85-9.15-8.95m61.2-132.95Q-59.8 222-75.95 222t-27.5 23.45q-11.4 23.55-11.4 56.95 0 33.6 11.4 56.95 3.45 6.9 7.1 11.95 9.05 11.7 20.4 11.7 11.85 0 21.1-12.9 3.35-4.55 6.4-10.75Q-37.1 336-37.1 302.4q0-33.4-11.35-56.95z"/></g><g id="w"><path fill="#960" d="M97.6 212.05q.6 2.15.6-.5 0-23.15-50.45-39.55Q-2.7 155.55-73.8 155.55q-71.4 0-121.8 16.45-50.45 16.4-50.45 39.55 0 2.35-.2 1.65 5.95 23.45 50.65 37.95 50.4 16.45 121.8 16.45 71.1 0 121.55-16.45 44.8-14.5 49.85-39.1z"/><path fill="#630" d="M98.2 221.8q0-2.65-.6-9.75-5.05 24.6-49.85 39.1Q-2.7 267.6-73.8 267.6q-71.4 0-121.8-16.45-44.7-14.5-50.65-37.95.2 5.95.2 8.6 0 23.15 50.45 39.6 50.4 16.45 121.8 16.45 71.1 0 121.55-16.45t50.45-39.6z"/></g><path fill="#996" fill-opacity=".988" d="M1326.05 480q82.45-32.8 82.45-79.15 0-46.35-82.45-79.15-82.4-32.8-198.95-32.8-116.55 0-199 32.8-82.4 32.8-82.4 79.15 0 46.35 82.4 79.15 82.45 32.8 199 32.8t198.95-32.8z" id="x"/><path fill-opacity=".247" d="M360.35 28.1q-5.7-1.6-11.1-.5-.5-3.6-2.35-7.05-4.25-8.05-13.15-10.55-8.95-2.45-17.3 2.1-3.55 1.95-6.15 4.7-2.7-4.95-7.25-8.8Q292.3-1.15 277.8.15q-14.4 1.3-24 12.35-8.05 9.05-8.9 20.35-1.7-.1-3.4.05-9.4.85-15.65 8.05-6.2 7.1-5.75 16.35.15 2.8.95 5.4.5 1.6 1.3 3.15-4.3 2.15-7.8 6-6.6 7.6-6.15 17.4.45 8.7 6.25 14.6-12.6 27.35-9.5 44.45 2 11.8 11.4 18.9 10.5 8.1 30.2 10 6.25.75 13.45.75l2.3 8.1q14.5 65.35 2.2 133.45.3.05.65.1-.15.5-.25 1-12.4 59.85-11.8 118.1.05 1.9.05 3.85.15 9.45 2.55 27.05v.05l-.2.05q-.25 2.45-.75 4.75-.05.3-.1.55-.05.15-.05.45l-.05.1q-.1.35-.15.65-.45 1.8-1.05 3.55h-.65q-.3.1-.55.4-.2.25-.2.35 0 .2.2.35.05.05.2.15.1.05.3.2h.2q-.8 2.05-1.8 4-.7.15-.7.55 0 .15.2.35v.05q-1 1.75-2.3 3.45-1.25-.15-1.3.85 0 .3.05.4.05.1.15.2-1.8 2.1-4 4-1.5.05-1.55.7 0 .15.2.35-1.45 1.1-3.05 2.05-1.698-.5-1.7.35.005-.147.65.2-2.1 1.3-4.5 2.3-3.3-1.65-3.4.35 0 .15 1.05.6-3.05 1-6.55 1.85l-13.25 4.2q-3.7 5.25-2.3 9.65l.8.1q-2.65 2.25-.7 5.5 38.25 3.15 68.3-13.45l-1.05-6.4-4.8 1.3q2.25-.85 4.65-1.7.1-.05.15-.05l-5.2-33.2-.4-1.05q.2-.05.4-.2-.5-20.45-.6-27.3v-2.4q-.25-47.25 14.1-97.95l46.15-1.85 5.65 97.05 2.2 28.25q-.2-.1-.35-.2l-.45 1-6.85 33.4q.05 0 .05.05 2.4.85 4.65 1.6l-4.7-1.2-1.45 6.45q29.25 15.75 67.65 11.5 2.05-3.2-.45-5.45.45-.05.85-.1 1.6-4.45-1.7-9.65l-13.2-3.85q-3.4-.6-6.4-1.65 1.05-.5 1.05-.6.05-2-3.3-.25-2.35-1-4.5-2.15.75-.45.8-.25 0-.85-1.75-.3-1.55-.9-2.95-2 .15-.1.15-.3.05-.65-1.45-.7-2.05-1.75-3.8-3.85.1-.05.15-.2.05-.1 0-.4 0-1-1.2-.85-1.15-1.6-2.15-3.4 0-.05.05-.05.2-.2.2-.35 0-.35-.7-.5-.9-1.95-1.55-3.9h.2l.3-.3q.15-.05.2-.1.2-.2.25-.4 0-.1-.2-.3-.25-.3-.6-.4h-.65q-.45-1.7-.75-3.5-.1-.3-.2-.7v-.05q.05-.25-.05-.4-.05-.25-.15-.6-.3-2.25-.4-4.7l-.2-.05q-.2.1-.45.2.15-.1.25-.2l-1.95-143.2.45-8.75-3.75.05q2.05-.55 4.2-1.15 2.9-35.1.95-69.8 19.25-15.9 24.55-30.5l.3-.15q.05-.25-.05-.6 3.8-11.35-.6-22.05-5.05-12.2-20.9-23.45-5.55-4.05-12.45-7.9l-.05-.3-.4.05q-.05-.05-.15-.1v.1l-27.55 2.5q16.9-5.25 29.35-19.45.3-.35.65-.75 1.8.65 3.85.95 7.55 1.05 13.8-3.55 6.35-4.55 7.7-12 .75-4.45-.4-8.45 2.7-.85 5.15-2.7 5.9-4.3 7.2-11.3.15-.8.25-1.55 4.3-4.95 5.7-10.95.65-2.8.6-5.75-.15-10-7.4-16.5-3.6-3.45-8.1-4.9 1.25-2.3 2.2-4.95 3-9.6-1.55-18.15-4.65-8.65-14.1-11.3M344.45 173q4.5 2.75 8.05 5.55 9.9 8.05 13.2 17.5 2.45 3.2-1.5 15.35-1.95 5.9-12.55 15.55-2.2-25.7-7.1-51.1l-.1-2.85m-119.8-41.95q4.4 6 11.9 7.05 4.95.7 9.45-1.05 2.3 3.25 5.15 6.2 2.3 2.5 4.95 4.75 1.6 1.35 3.25 2.6 4.35 3.2 9 5.6 8.85 4.5 18.85 5.75l-30.7 2.75v.1q-7.35.05-13.25-.85-12.75-2.15-20.45-8.5-3.65-1.65-6.15-13.95-1.3-6.7 4.85-22.7-.8 6.75 3.15 12.25M237.6 516.9q-2.25-1.45-1.3-1.25h.1l1.2 1.25m131.3-5.5l1.3-1.35h.1q.9-.2-1.4 1.35z" id="y"/><path d="M338.1 324.5v-8.85l-84.7.9q-.55 3.55-1.15 7.1-9.55 60.4-6.2 119.2.15 1.95.25 3.9.6 9.55 3.85 27.3v.05q3.5 1.6 7.05 1.45 3.85-.25 7.7-2.4.2-.05.4-.2-1.5-20.65-1.9-27.55-.05-1.25-.1-2.45-2.5-47.7 9.4-98.85l46.05-1.9 10.3 98 3.75 30.2q6.1 5.5 14.05-1.35L338.1 324.5z" id="z"/><g id="A"><path fill="#FFF" d="M220.4 508.6l-13.1 4.2q-3.4 5.35-1.8 9.75l.8.1q-2.55 2.3-.45 5.55 38.4 3.2 67.65-13.55l-1.35-6.45-4.75 1.3q-31.55 11.7-34.55 11.05l1.25 1.25q-2.3-1.45-1.35-1.25l-5.35-5.3-7-6.65z"/><path fill="#900" d="M227.8 507q-.55-.2-.95-.3-3 1.05-6.45 1.9l7 6.65q3.95-1.5 7.45-3.4-.35-.3-1.6-1.45-1.2-1.15-1.7-1.55l-.25-.25q-.45-.35-1.1-.65-1-.5-2.4-.95m8.1-2.15q-1.55-.95-2.35-1.4-2.05 1.3-4.4 2.3.75.3 1.65.85.5.35.95.6.9.65 1.75 1.3.45.25.8.6 1.55 1.35 1.55 1.85 0 .2-.05.4 5.8-3.15 10.35-7.05-.75-.4-2.35-1.3-.7-.4-1.4-.7-.85-.4-1.75-.65-1.3-.35-2.6-.45-.35-.25-.55-.4-1.4 1.1-2.95 2.1 1 .3 2.7 1.1.9.5 1.65.9 2.8 1.5 2.8 2.2 0 .8-1 .8-.2 0-2.8-1.65-.65-.45-1.4-1-.35-.2-.6-.4m2.9-5.1h.1q1.55-.1 3.55.4h.05q.75.2 1.45.45 2 .7 2.95 1.65.4.4.6.85 1.6-1.5 3.1-3l-.75-.75q-1-1.2-1.2-1.4-1.3-1.25-1.9-1.45-.35-.05-.8-.1-1.25-.2-2.75-.5-.45-.1-.6-.2-1.7 2.15-3.8 4.05m7.45-9.95q.4-.1.9-.15 1.1-.15 2.4.05.55 0 1.15.15 4.2.6 5 2 1-2.35 1.55-4.65-.25.15-.65.15-.5 0-.8-.3-.4-.55-.65-.7-1-.6-3.85-.65-1.55-.1-3.45.05-.7 2.1-1.6 4.05m.05 1.25q-.35-.25-.5-.3-.95 1.8-2.15 3.5.2 0 .4.05.9.25 2.65 1 .55.25 1.15.5.55.3 1.85 1.4.95.85 1.7.85.35 0 .55.4 1.8-2.6 3.1-5.2-.75 0-1.25-.45-.55-.6-1-.9-1.2-.9-3.85-1-1.15 0-2.65.15m9.2-12.4q.85.6 2.25 1h.1q-.15-2.05-.65-4.1-3.55.15-7.05-1.45l-.2.05q-.15 2.5-.5 4.8-.05.3-.1.55.2-.35.65-.45.65-.1 2.85-.25 1.1-.1 2.65-.15m-.65 1.5q-.9-.05-1.7-.05-.95 0-1.85.3-.55.25-.85.3-.35.15-.45.15-.3 0-.5-.15-.15-.1-.2-.25v-.4q-.1.35-.15.65-.35 1.85-.85 3.6l4.5.05q2.9 1 3.55 1.25.9.5 1.05.85.5-2.55.5-5.15-.2.05-.45.05-.45-.05-1.4-.5-.1-.05-.15-.1-.8-.35-1.05-.6z"/><path fill="#CCC" d="M230.8 506.6q-.9-.55-1.65-.85-3.4-1.65-3.4.35 0 .15 1.1.6.4.1.95.3 1.4.45 2.4.95.65.3 1.1.65l.25.25q.5.4 1.7 1.55 1.25 1.15 1.6 1.45.15.1.2.1.65 0 .75-.6.05-.2.05-.4 0-.5-1.55-1.85-.35-.35-.8-.6-.85-.65-1.75-1.3-.45-.25-.95-.6m2.75-3.15q.8.45 2.35 1.4.25.2.6.4.75.55 1.4 1 2.6 1.65 2.8 1.65 1 0 1-.8 0-.7-2.8-2.2-.75-.4-1.65-.9-1.7-.8-2.7-1.1-1.698-.5-1.7.35.005-.147.7.2m5.35-3.7h-.1q-1.5.05-1.5.7 0 .15.2.35.2.15.55.4 1.3.1 2.6.45.9.25 1.75.65.7.3 1.4.7 1.6.9 2.35 1.3l.55.3q.8 0 .85-.55.05-.1.05-.2 0-.4-.1-.75-.2-.45-.6-.85-.95-.95-2.95-1.65-.7-.25-1.45-.45h-.05q-2-.5-3.55-.4m5.15-5.45q-.2-.05-.4-.05-1.25-.15-1.25.85 0 .3.05.4.05.1.15.2.15.1.6.2 1.5.3 2.75.5.45.05.8.1.6.2 1.9 1.45.2.2 1.2 1.4l.75.75q.55.4 1 .4.75 0 .75-.85-.15-.85-.4-1.2-.2-.4-.55-.4-.75 0-1.7-.85-1.3-1.1-1.85-1.4-.6-.25-1.15-.5-1.75-.75-2.65-1m1.75-3.55q.15.05.5.3 1.5-.15 2.65-.15 2.65.1 3.85 1 .45.3 1 .9.5.45 1.25.45.4 0 .65-.2.15-.25.15-.55 0-.35-.15-.65-.8-1.4-5-2-.6-.15-1.15-.15-1.3-.2-2.4-.05-.5.05-.9.15-.7.15-.7.55 0 .15.25.35v.05m7-6.4l-4.5-.05h-.65q-.3.1-.55.4-.2.25-.2.35 0 .2.25.35.05.05.2.15.1.05.3.2h.2q1.9-.15 3.45-.05 2.85.05 3.85.65.25.15.65.7.3.3.8.3.4 0 .65-.15.2-.2.2-.55 0-.15-.05-.2-.15-.35-1.05-.85-.65-.25-3.55-1.25m.35-4.25q.8 0 1.7.05.25.25 1.05.6.05.05.15.1.95.45 1.4.5.25 0 .45-.05.5-.1.65-.5.05-.15.05-.25 0-.65-.75-.9h-.1q-1.4-.4-2.25-1-1.55.05-2.65.15-2.2.15-2.85.25-.45.1-.65.45-.05.15-.05.45v.5q.05.15.2.25.2.15.5.15.1 0 .45-.15.3-.05.85-.3.9-.3 1.85-.3z"/><path fill="#C00" d="M258.6 480.55q0 .1-.05.25-.15.4-.65.5 0 2.6-.5 5.15.05.05.05.2 0 .35-.2.55-.55 2.3-1.55 4.65.15.3.15.65 0 .3-.15.55-.25.2-.65.2-1.3 2.6-3.1 5.2.25.35.4 1.2 0 .85-.75.85-.45 0-1-.4-1.5 1.5-3.1 3 .1.35.1.75 0 .1-.05.2-.05.55-.85.55l-.55-.3q-4.55 3.9-10.35 7.05-.1.6-.75.6-.05 0-.2-.1-3.5 1.9-7.45 3.4l5.35 5.3h.1q3 .65 34.55-11.05 2.25-.85 4.6-1.7.1-.05.15-.05l-6.8-33.55-.45-1.05q-3.85 2.15-7.7 2.4.5 2.05.65 4.1.75.25.75.9z"/></g><g id="B"><path fill="#900" d="M367.4 502.9q-.05.05-.3.25-.45.45-1.6 1.65-1.15 1.2-1.55 1.55 3.6 1.75 7.65 3.2l6.65-6.95q-3.45-.65-6.5-1.7-.4.15-.9.35-1.4.55-2.35 1.05-.7.35-1.1.6m.4-1.9q.9-.55 1.65-.95-2.4-1-4.6-2.15-.7.4-2.2 1.5-.3.2-.65.45-.7.5-1.35.9-2.45 1.75-2.7 1.75-1 .05-1.05-.75-.05-.65 2.75-2.35.7-.4 1.55-.8 1.65-.9 2.7-1.25-1.6-.95-3.05-2.05v.05q-.2.1-.55.35-1.3.15-2.6.55-.85.3-1.7.75-.65.35-1.35.75-1.65.9-2.3 1.3 4.75 3.8 10.65 6.8-.05-.15-.1-.35 0-.55 1.5-1.95.35-.35.75-.65.8-.7 1.75-1.35.45-.3.9-.55m-19.4-6.7q-.35.4-.65.6 1.5 1.6 3.25 3.05.15-.5.55-.95.9-.95 2.8-1.65.7-.25 1.5-.5 2-.55 3.5-.55h.15q-2.15-1.75-4-3.9-.15.15-.55.25-1.55.3-2.75.5l-.8.2q-.6.2-1.85 1.5-.15.25-1.15 1.45m-4.2-6.45q-.45.45-1.2.45 1.35 2.55 3.25 5.05.25-.35.6-.4.7 0 1.65-.85 1.25-1.15 1.8-1.45.55-.3 1.1-.55 1.75-.8 2.6-1.05.2-.1.4-.1-1.25-1.6-2.3-3.45-.15.1-.45.35-1.5-.1-2.7 0-2.6.1-3.8 1-.4.3-.95 1m-1.65-6.45q-.2.2-.6.75-.25.35-.8.35-.4 0-.65-.2.65 2.3 1.8 4.65.7-1.4 4.85-2.2.65-.15 1.2-.15 1.3-.2 2.35-.15.5.05.9.15-1-1.95-1.75-3.95-1.95-.1-3.45-.05-2.85.2-3.85.8m-2.55-5h-.4q.1 2.6.75 5.1.1-.35 1-.8.65-.3 3.5-1.4l4.45-.15q-.55-1.7-.95-3.55-.1-.3-.2-.7v.45q0 .2-.15.3-.2.1-.55.1-.05 0-.4-.1-.3-.1-.9-.35-.85-.2-1.85-.2-.8 0-1.7.15-.25.2-1 .65h-.15q-1 .5-1.45.5m7.25-7.3l-.2-.05q-3.45 1.65-7 1.6-.4 2.05-.45 4.1h.1q1.4-.4 2.15-1h2.7q2.2.05 2.9.25.45.05.6.45-.05-.25-.15-.6-.4-2.25-.65-4.75z"/><path fill="#CCC" d="M364.85 497.9q.75-.45.8-.25-.05-.9-1.75-.3-1.05.35-2.7 1.25-.85.4-1.55.8-2.8 1.7-2.75 2.35.05.8 1.05.75.25 0 2.7-1.75.65-.4 1.35-.9.35-.25.65-.45 1.5-1.1 2.2-1.5m6.9 3q1.05-.5 1.05-.6-.05-2-3.35-.25-.75.4-1.65.95-.45.25-.9.55-.95.65-1.75 1.35-.4.3-.75.65-1.5 1.4-1.5 1.95.05.2.1.35.15.55.8.55.05 0 .15-.05.4-.35 1.55-1.55 1.15-1.2 1.6-1.65.25-.2.3-.25.4-.25 1.1-.6.95-.5 2.35-1.05.5-.2.9-.35m-12.25-6.6h-.15q-1.5 0-3.5.55-.8.25-1.5.5-1.9.7-2.8 1.65-.4.45-.55.95-.15.35-.15.75.05.1.05.15.15.55.95.5l.5-.3q.65-.4 2.3-1.3.7-.4 1.35-.75.85-.45 1.7-.75 1.3-.4 2.6-.55.35-.25.55-.35v-.05q.15-.1.15-.3 0-.65-1.5-.7m-13.25-.95q-.2.4-.3 1.2.05.9.8.85.45 0 1-.5.3-.2.65-.6 1-1.2 1.15-1.45 1.25-1.3 1.85-1.5l.8-.2q1.2-.2 2.75-.5.4-.1.55-.25.1-.05.15-.2.05-.1 0-.4-.05-1-1.25-.85-.2 0-.4.1-.85.25-2.6 1.05-.55.25-1.1.55-.55.3-1.8 1.45-.95.85-1.65.85-.35.05-.6.4M343 488.3q.75 0 1.2-.45.55-.7.95-1 1.2-.9 3.8-1 1.2-.1 2.7 0 .3-.25.45-.35 0-.05.05-.05.15-.2.15-.35 0-.35-.7-.5-.4-.1-.9-.15-1.05-.05-2.35.15-.55 0-1.2.15-4.15.8-4.85 2.2-.2.3-.15.65 0 .3.2.5.25.25.65.2m-1.05-6.15q.4-.55.6-.75 1-.6 3.85-.8 1.5-.05 3.45.05h.2l.3-.3q.15-.05.2-.1.2-.2.2-.4 0-.1-.2-.3-.25-.3-.6-.4h-.65l-4.45.15q-2.85 1.1-3.5 1.4-.9.45-1 .8-.05.15-.05.2 0 .4.2.6.25.2.65.2.55 0 .8-.35m-2.35-5.75h.4q.45 0 1.45-.5h.15q.75-.45 1-.65.9-.15 1.7-.15 1 0 1.85.2.6.25.9.35.35.1.4.1.35 0 .55-.1.15-.1.15-.3v-.5q0-.25-.1-.4-.15-.4-.6-.45-.7-.2-2.9-.25h-2.7q-.75.6-2.15 1h-.1q-.75.25-.75.9.05.15.05.25.2.45.7.5z"/><path fill="#FFF" d="M392.95 516.3q.45-.05.85-.1 1.35-4.5-2.2-9.75l-13.35-3.85-6.65 6.95-5.15 5.35q.9-.2-1.3 1.35l1.2-1.35q-2.95.8-35-10l-4.75-1.2-1.15 6.5q30 15.9 68.2 11.6 1.9-3.2-.7-5.5z"/><path fill="#C00" d="M332.25 468.5l-.4 1-5.3 33.75q.05 0 .1.05 2.4.85 4.7 1.6 32.05 10.8 35 10h.1l5.15-5.35q-4.05-1.45-7.65-3.2-.1.05-.15.05-.65 0-.8-.55-5.9-3-10.65-6.8l-.5.3q-.8.05-.95-.5 0-.05-.05-.15 0-.4.15-.75-1.75-1.45-3.25-3.05-.55.5-1 .5-.75.05-.8-.85.1-.8.3-1.2-1.9-2.5-3.25-5.05-.4.05-.65-.2-.2-.2-.2-.5-.05-.35.15-.65-1.15-2.35-1.8-4.65-.2-.2-.2-.6 0-.05.05-.2-.65-2.5-.75-5.1-.5-.05-.7-.5 0-.1-.05-.25 0-.65.75-.9.05-2.05.45-4.1-3.85-.05-7.8-2.15z"/></g><g id="C"><path fill="#FFF" d="M685.95 438.8q3-85.25-16.8-168.15L632 255.45q-2.65 14-15.8 16.05-14.25.55-17.75-13.65l-29.4 26.25q21.6 80.75 10.5 165.3 46.9 6.65 106.4-10.6z"/><path d="M669.15 270.65l-2.35-23.55-106.4 10.6 8.65 26.4 29.4-26.25q3.5 14.2 17.75 13.65 13.15-2.05 15.8-16.05l37.15 15.2z"/></g><g id="D"><path fill="#B44F1D" d="M647.4 256.4q-13.5 6.638-25.05-.4v.95q12.5 14.3 25.05 0v-.55z"/><path fill="#743312" d="M647.4 219.35h-25.05V256q11.55 7.038 25.05.4v-37.05z"/></g><path d="M275.65 195.1l-6.95.9.45 3.3-2.8.35 3.9 28.7-3 .4-.4-3.05-9.3 1.2 1.3 9.55 2.65-.35.4 3.15 3.25-.4.85 6.2 2.9-.4.9 6.55 3.3-.4.9 6.75 3.05-.4 1.25 9 32.45-4.15-.4-3h-.05l-.9-6.6 3.2-.4-1.25-9.15 2.9-.4-3.15-23.1-2.9.4-.45-3.45-3.4.4-.4-3-6.35.85-.45-2.95-9.55 1.2-.35-2.9-6.35.85-1.75-12.7-3.05.35-.45-3.3m29.2 25.4l3.3-.4 3.1 22.75-3.3.4 1.2 9.1-2.85.4.95 6.65-26.25 3.35-.9-6.35-2.9.4-.85-6.45-3.15.4-.9-6.6-3.2.4-.85-6.15-2.7.35-.45-3.45-3.3.4-.8-6 6.05-.75.35 2.95 3.25-.45 1.3 9.55 3.05-.35-5.6-41.3 6.7-.9L280 227l3.05-.35-1.75-12.8 6.25-.8 1.75 12.9 3-.4-1.35-10 6.3-.8 1.7 12.5 3.25-.45-1.3-9.5 3.45-.45.5 3.65z" id="E"/><g id="F"><path fill="#913F17" d="M200.55 159.95l1.55-3.05q-3.75-1.65-6.85-14.05-2.15-9.1 8.25-35.05-12.55 28.9-10.2 39.5 2.45 10.7 7.25 12.65z"/><path d="M202.1 156.9l-1.55 3.05-4.15 8.8q10.9 8.2 30.65 10.1 7.3.85 15.75.7l-4-13.25q-8.85.25-15.85-.8-12.85-2.2-20.85-8.6z"/><path fill="#E06224" d="M211 90.4l-8.5-8.9q-23.8 44.2-18.4 68.2 2.55 11.9 12.3 19.05l4.15-8.8q-4.8-1.95-7.25-12.65-2.35-10.6 10.2-39.5 3.2-7.9 7.5-17.4z"/></g><g id="G"><path fill="#913F17" d="M349.8 195.85l-2.9 2.05q2.6 3.25-.75 15.5-2.5 8.95-24.25 26.5 25.1-19.05 28.2-29.45 3.1-10.5-.3-14.6z"/><path fill="#E06224" d="M357.8 190.25l-8 5.6q3.4 4.1.3 14.6-3.1 10.4-28.2 29.45-5.45 4.4-11.95 9.2l1.3 13.25q41.2-26.35 48.1-49.45 3.45-11.65-1.55-22.65z"/><path d="M357.8 190.25q-5.6-12.3-22-23.65-6-4.25-13.45-8.35l-2.9 13.6q7.8 4.05 13.45 8.4 10.25 8.1 14 17.65l2.9-2.05 8-5.6z"/></g><path d="M668.85 218.1q-7.55-1.05-13.65 3.55-6.1 4.6-7.05 12.2-1 7.55 3.6 13.65 4.7 6.1 12.25 7.15 7.6 1.05 13.65-3.55 6.1-4.6 7.1-12.15.95-7.6-3.65-13.7-4.65-6.1-12.25-7.15z" id="H"/><path d="M695.65 216.3q.95-7.1-3.45-12.8-4.35-5.7-11.45-6.7T668 200.1q-5.65 4.35-6.6 11.45-.95 7.05 3.4 12.75 4.35 5.75 11.45 6.75T689 227.7q5.7-4.35 6.65-11.4z" id="I"/><path d="M1196.6-311.95q-19.45 0-33.25 13.75-13.75 13.8-13.75 33.25t13.75 33.2q13.8 13.8 33.25 13.8t33.2-13.8q13.8-13.75 13.8-33.2 0-19.45-13.8-33.25-13.75-13.75-33.2-13.75z" id="J"/><path d="M1250.7-357.05q-12.85-12.85-31.1-12.85t-31.15 12.85q-12.85 12.9-12.85 31.15t12.85 31.1q12.9 12.9 31.15 12.9t31.1-12.9q12.9-12.85 12.9-31.1t-12.9-31.15z" id="K"/><path fill="#E06224" d="M314.5 52.8q-20.1-16.6-45.95-14.25-25.9 2.4-42.35 22.4-16.5 20.05-13.9 45.9.45 4.7 1.5 9.05 3.95 16.55 16.05 28.7 2.4 2.5 5.2 4.8 1.65 1.35 3.35 2.6 4.5 3.25 9.25 5.65 15.3 7.65 33.4 5.95 25.85-2.35 42.3-22.35 16.45-20.05 13.9-45.95-2.6-25.85-22.75-42.5z" id="L"/><path fill="#B40606" fill-opacity=".439" d="M241.9 144.8q-2.25 1.4.2 2.3 2.4-.2 4.75-.2 2.3 0 3.5.8 1.2.8 2.6-.05 1.45-.9 2.2-1.15.8-.15 1.2-.2 2.35-1.6.5-2.85-2.65-.35-3.4-.7-.65-.3-1.65-1.1-1.55-1.45-2.3-2.1-.3-.25-.5-.45-.95-.7-1.35-.65-1.25.1-2 .65-1.35 1.2-1.85 1.45-1.75 1.4.25 2.55l.95-.1q.05.75-.65 1-.8.1-1.25.2-.85.2-1.2.6z" id="M"/><path fill="#B40606" fill-opacity=".439" d="M450.1 140.75q-1.908-.307-4.1-.75-2.192-.443-3.6.3-1.4.798-3.5 2.75-2.103 2-2.3 3.4-.196 1.4 6 1.7 6.2.35 7.8-1.2 1.6-1.55 1.6-3.7.003-2.148-1.9-2.5z" id="N"/><path fill="#B40606" fill-opacity=".439" d="M327.4 109.45q0-.05.75-1.15.7-1.25.65-1.8-.05-.6-.3-.8-.25-.25-.25-.4-.65.05-1.6-.05-1-.1-1.5-.05-6.35 4.5-8.2 5.65.3 2.4 3.65 3.55 2.95.9 6.15.5-.2 3.05-2.6 2.65l.25 2.45q1.2-.4 3.45.9.85-.25 1.85-.45 1.7-.75.55-3.45 1.05-.1 1.95-.4l1.6-.75q-.15-1.55-3.3-4.1-3.1-2.2-3.1-2.3z" id="O"/><path fill="#B40606" fill-opacity=".439" d="M253.8 83.45l-.4-4.05q-.65.05-1.8-.05-1.2-.1-1.7-.05t-1.3.55q-1.25.7-1.15 1.7 0 .15 1 1.45.15.2.25.4-1.1 1-1.2 1.2-.1.2-.05 1.05.05.6.3.85.25.2.25.35l2.05-.2q.75-.25 2.3-1.75.7-.75 1.45-1.45z" id="P"/><path fill="#B40606" fill-opacity=".439" d="M308.55 83.1q-.15.05-.95-.1-.8-.1-1.35-.05-.9.05-2.35 1.2-1.4 1.1-2.05 2l3.25-.3q.3-.15 1.25-.4.05.2.2.5.25.4.25.6.45-.05 1.2-.3.6-.25.8-.3l-.25-2.85z" id="Q"/><path fill="#B40606" fill-opacity=".439" d="M265.65 89.6q.2-.25.05-1.9-.05-.65-.65-1.6-.95-1.5-2.55-1.6l.25 2.5q-1.7.2-1.95.55.05.6.35 1.55.3 1.05.35 1.65 3.55-.5 4.15-1.15z" id="R"/><path fill="#B40606" fill-opacity=".439" d="M300.25 146.05l-3.65.35q-.15.25-.7.4l-.45.1.3 2.85q.4-.05.3-.85.95.7 1.85 1.85.4.35 1.25.3.55-.05 1.05-.3.4-.25.5-.25l-.45-4.45z" id="S"/><g id="T"><path d="M328.25 57.35v.45h.05l-.05-.45m-.4 4.15q.35-2.4.4-3.7-.75.05-2.75.6-2 .6-3.05.65-3.1.3-6.45-1.2-3.15-1.5-5.6-4.25-2.55-2.65-3.5-5.75-1.05-3.35.05-6.25-1.75 3.15-4.8 4.95-3.5 2.1-9.05 2.6-7.65.7-11.1-2.05-1.1-.85-3.05-3.15-2.2-2.7-3.75-4.2-3.4-3.15-5.2-10.7-.65-2.6-1.15-6.05l.7 5.9q.4 4.7-.05 7.5-.55 3.5-2.45 5.85-2.05 2.5-6.15 4.4l-6.25.55q-.65-1-.95-2.8-.2-1.05-.4-3.35l-1.6.15q-2.55 5.65-3.95 7.05-1.95 2.15-6.15 2.55-4.1.35-6.8-2.2-1.75-1.7-2.5-4.05l.05.75q-.75 1.6-2.15 6.55-1.7 5.4-2.8 8.05-4.05 9.95-10.65 10.55-.5.05-1.8-.45-1.6-.6-3.1-1.5-4.2-2.55-4.6-6.25 0-.15-.15-2.55.2-1.9 1.5-.35l-.4-3.9-.8.05q-.1 4-2.35 6.25-2.1 2.05-5.8 2.4-2 .15-3.35-.9.6 1.65 1.45 3.2-4.2 2.15-7.5 6.05-6.25 7.7-5.3 17.6 1 10 8.7 16.35 7.75 6.4 17.65 5.5 9.95-.9 16.25-8.6 6.35-7.65 5.35-17.65-.55-5.9-3.5-10.55 0-.05.05-.05 1.4 2.05 3.5 3.75 5.95 4.9 13.5 4.2 7.65-.7 12.5-6.6 2.9-3.6 3.8-7.8 1.7-.4 3.35-1 1.6 3.35 4.55 5.95 5.5 4.55 12.45 3.9 6.85-.6 11.25-6 1.75 2.75 4.4 5.1 7.05 6.25 16.35 5.7 1.3-.1 2.55-.3-.4 2.6-.2 5.4.65 9.95 8.1 16.6 7.55 6.6 17.5 6.05 9.95-.5 16.55-8 4.5-5.2 5.65-11.55-2.3 1.95-5.2 2.25-4.15.35-8.3-.85-5.7-1.65-6.1-5.75-.1-.85.05-3.4.15-2.5.05-3.7-2.3 1.05-3.35 1.4-1.85.65-3.1.75-4.7.45-8-4.75-2.8-4.5-3.45-10.75-.1-.9.4-4.2z"/><path fill="#300" d="M348.2 39.75q-5.05-8.75-14.65-11.4-5.75-1.6-11.1-.5-.7-3.65-2.7-7.15-4.65-8.1-13.65-10.65-9.05-2.45-17.2 2.15-3.45 1.95-5.9 4.75-2.95-5-7.7-8.9-11.2-9.25-25.6-7.9-14.35 1.3-23.45 12.45-7.6 9.15-7.9 20.55-1.7-.1-3.4.05-9.35.85-15.25 8.1-5.9 7.2-5 16.5.3 2.85 1.2 5.45 1.35 1.05 3.35.9 3.7-.35 5.8-2.4 2.25-2.25 2.35-6.25l.8-.05.4 3.9q-1.3-1.55-1.5.35.15 2.4.15 2.55.4 3.7 4.6 6.25 1.5.9 3.1 1.5 1.3.5 1.8.45 6.6-.6 10.65-10.55 1.1-2.65 2.8-8.05 1.4-4.95 2.15-6.55l-.05-.75q.75 2.35 2.5 4.05 2.7 2.55 6.8 2.2 4.2-.4 6.15-2.55 1.4-1.4 3.95-7.05l1.6-.15q.2 2.3.4 3.35.3 1.8.95 2.8l6.25-.55q4.1-1.9 6.15-4.4 1.9-2.35 2.45-5.85.45-2.8.05-7.5l-.7-5.9q.5 3.45 1.15 6.05 1.8 7.55 5.2 10.7 1.55 1.5 3.75 4.2 1.95 2.3 3.05 3.15 3.45 2.75 11.1 2.05 5.55-.5 9.05-2.6 3.05-1.8 4.8-4.95-1.1 2.9-.05 6.25.95 3.1 3.5 5.75 2.45 2.75 5.6 4.25 3.35 1.5 6.45 1.2 1.05-.05 3.05-.65 2-.55 2.75-.6v-.45l.05.45h-.05q-.05 1.3-.4 3.7-.5 3.3-.4 4.2.65 6.25 3.45 10.75 3.3 5.2 8 4.75 1.25-.1 3.1-.75 1.05-.35 3.35-1.4.1 1.2-.05 3.7-.15 2.55-.05 3.4.4 4.1 6.1 5.75 4.15 1.2 8.3.85 2.9-.3 5.2-2.25.5-2.85.3-5.85Q364.55 74.6 357 68q-3.8-3.45-8.35-4.95 1.15-2.3 1.95-5 2.55-9.65-2.4-18.3z"/></g><path fill-opacity=".369" d="M353.5 85.15q-.45-7.75-6.9-12.95-3.35-2.65-7.3-3.8 1.05-1.85 1.75-4 2.35-7.5-2-14.3-4.2-6.75-12.55-8.8-5.05-1.25-9.75-.35-.6-2.9-2.3-5.6-4-6.35-11.85-8.3-7.9-1.9-14.95 1.75-3.05 1.45-5.15 3.65-2.6-3.8-6.75-6.9-9.65-7.2-22.25-6.15-12.55 1.15-20.65 9.9-6.65 7.15-7.05 16.1-1.45-.05-2.95.05-8.1.75-13.4 6.4-5.25 5.65-4.5 12.95.35 3.7 2.2 6.75-3.7 1.7-6.5 4.75-5.6 6.1-4.8 13.9.75 7.75 7.45 12.65 6.7 5 15.35 4.25 8.65-.75 14.2-6.8 5.65-6.05 4.9-13.8-.45-4.65-3-8.25v-.05q1.25 1.6 3 2.9 5.15 3.9 11.85 3.25 6.6-.55 10.9-5.2 2.6-2.8 3.4-6.1 1.55-.35 2.95-.85 1.35 2.6 3.95 4.6 4.75 3.65 10.8 3.1 6-.55 9.85-4.75 1.5 2.2 3.8 3.95 6.1 4.9 14.2 4.5 1.15-.1 2.25-.3-.35 2.1-.25 4.25.5 7.75 6.95 12.95 6.5 5.15 15.2 4.7 8.7-.5 14.6-6.3 5.8-5.9 5.3-13.75z" id="U"/><g id="V"><path fill="#C00" d="M633.4 222.85q-1.158.45-4.45 4-3.242 3.55-1.4 10 .6-.15 1.3-.25 1.3-.2 2.75-.25 1.4-.1 2.7-.05 3.1.15 5.9 1.05 1.3.45 2.45 1 .25.1.4.2 1.9.85 3 .45.4-.15.7-.4 0-.05.05-.1.8-.85.8-3 0-5.25-4.35-9-4.1-3.5-9.85-3.65z"/><path fill="#580000" d="M624 237.75q1.6-.55 3.55-.9-1.842-6.45 1.4-10 3.292-3.55 4.45-4-.3-.05-.65-.05-.8 0-1.55.05-4.55.4-8.05 2.95l-.9.7q-4.35 3.75-4.35 9 0 1.85.5 2.8.85 1.75 3.3.4.05 0 .15-.05l.6-.3q.75-.35 1.55-.6z"/></g><path fill="#743312" d="M256.45 120.4q-7.05 7.65-18.55 9.9 14.7 3.1 18.55-9.9z" id="W"/><path fill="#743312" d="M291.15 117.05q5.65 12.5 19.8 7.6-11.2-1.95-19.8-7.6z" id="X"/><path d="M259.7 113.45q-9.55 7.9-23.5 8.8 16.95 6.05 23.5-8.8z" id="Y"/><path d="M312.05 115.25q-13.45.25-24.9-4.35 9.5 13.4 24.9 4.35z" id="Z"/><path fill="#E06224" d="M591.5 392q0 1.85 1.3 3.15 1.35 1.35 3.2 1.35h21q1.85 0 3.15-1.35 1.35-1.3 1.35-3.15 0-1.85-1.35-3.2-1.3-1.3-3.15-1.3h-21q-1.85 0-3.2 1.3-1.3 1.35-1.3 3.2z" id="aa"/><path fill="#E06224" d="M591.5 392q0 1.85 1.3 3.15 1.35 1.35 3.2 1.35h21q1.85 0 3.15-1.35 1.35-1.3 1.35-3.15 0-1.85-1.35-3.2-1.3-1.3-3.15-1.3h-21q-1.85 0-3.2 1.3-1.3 1.35-1.3 3.2z" id="ab"/><path fill="#E06224" d="M591.5 392q0 1.85 1.3 3.15 1.35 1.35 3.2 1.35h21q1.85 0 3.15-1.35 1.35-1.3 1.35-3.15 0-1.85-1.35-3.2-1.3-1.3-3.15-1.3h-21q-1.85 0-3.2 1.3-1.3 1.35-1.3 3.2z" id="ac"/><path fill="#E06224" d="M591.5 392q0 1.85 1.3 3.15 1.35 1.35 3.2 1.35h21q1.85 0 3.15-1.35 1.35-1.3 1.35-3.15 0-1.85-1.35-3.2-1.3-1.3-3.15-1.3h-21q-1.85 0-3.2 1.3-1.3 1.35-1.3 3.2z" id="ad"/><path fill="#E06224" d="M478.1 354.7q0 7.75 5.4 13.15 5.45 5.5 13.1 5.5h7.3q7.65 0 13.05-5.5 5.45-5.4 5.45-13.15 0-7.7-5.45-13.2-5.4-5.45-13.05-5.45 3.428 3.613-18.35 1.3 1.525.575-2.05 4.15-5.4 5.5-5.4 13.2z" id="ae"/><path fill="#E06224" d="M468.45 285.5q1.5 1.5 3.55 1.5h19.5q2.05 0 3.5-1.5 1.5-1.45 1.5-3.5t-1.5-3.55q-1.45-1.45-3.5-1.45H472q-2.05 0-3.55 1.45-1.45 1.5-1.45 3.55t1.45 3.5z" id="af"/><path fill="#B40606" fill-opacity=".439" d="M304.5 265.9l1.1-.65q-.35-1.15-3.05-2.5-2.55-1.1-2.6-1.15 0-.05.3-1 .35-1 .2-1.45-.1-.4-.35-.5-.2-.15-.25-.25-.45.15-1.1.2-.75.1-1.1.2-3.95 4.25-5.05 5.45.55 1.7 3.15 1.95 2.3.25 4.6-.6.35 2.25-1.5 2.4l.55 1.7q.85-.45 2.6.1.65-.3 1.35-.65 1.1-.85-.2-2.55.8-.25 1.35-.7z" id="ag"/><path fill="#B40606" fill-opacity=".439" d="M357.85 209.9q-1.7-1.85-1.7-1.9 0-.05.5-.85.5-.85.5-1.3 0-.4-.15-.6-.1-.2-.1-.3-.4 0-.95-.15-.55-.1-.85-.1-4.05 2.85-5.2 3.55.05 1.8 1.95 2.85 1.7.95 3.6.85-.3 2.25-1.7 1.8v1.8q.75-.2 2 .95.5-.1 1.15-.25 1-.45.45-2.5.65 0 1.2-.2l1-.4q0-1.15-1.7-3.25z" id="ah"/><path fill="#B40606" fill-opacity=".439" d="M341.85 230.9q-.65 0-1.8-.25t-1.65-.25q-.5 0-1.4.45-1.25.6-1.25 1.6 0 .15.8 1.55.15.2.2.4-1.15.9-1.3 1.1-.1.15-.1 1.05 0 .55.2.85.2.25.2.35h2.05q.8-.2 2.45-1.55.8-.65 1.6-1.25v-4.05z" id="ai"/><path fill="#B40606" fill-opacity=".439" d="M351.85 221.15q-.8-1.5-2.35-1.75v2.45q-1.7.05-2.05.4 0 .6.25 1.6.2 1.05.2 1.65 3.55-.2 4.2-.8.25-.25.25-1.85 0-.65-.5-1.7z" id="aj"/><path id="k" stroke="#333" stroke-linejoin="round" stroke-linecap="round" fill="none" d="M1061.3 394.55v-495"/></defs><g transform="translate(37.5 23)"><mask id="h"><use xlink:href="#g" transform="translate(-49 -35)"/></mask><g mask="url(#h)"><g filter="url(#i)" transform="translate(-37.5 -23)"><g transform="translate(37.5 23)"><use xlink:href="#j"/><use xlink:href="#k"/></g><use xlink:href="#l" transform="translate(37.5 23)"/><use xlink:href="#m" transform="translate(37.5 23)"/><use xlink:href="#n" transform="translate(879.8 390.25) scale(1.18726)"/><use xlink:href="#o" transform="translate(879.8 390.25) scale(1.18726)"/><use xlink:href="#p" transform="translate(37.5 23)"/><use xlink:href="#q" transform="translate(37.5 23)"/><use filter="url(#r)" xlink:href="#s" transform="matrix(-.9254 0 0 .9254 -80.7 419.3)"/><use filter="url(#r)" xlink:href="#s" transform="matrix(.9254 0 0 .9254 3.1 419.3)"/><use xlink:href="#t" transform="translate(37.5 23)"/><use xlink:href="#u" transform="translate(37.5 23)"/><use xlink:href="#v" transform="translate(37.5 23)"/><g transform="translate(37.5 23)"><use xlink:href="#w"/></g></g><use xlink:href="#x" transform="matrix(1.06927 0 0 .5 -904.3 332.05)"/><use xlink:href="#y"/><use xlink:href="#z"/><use xlink:href="#A"/><use xlink:href="#B"/><use xlink:href="#C" transform="matrix(.81453 .00627 0 .81453 -220.25 -47.15)"/><use xlink:href="#D" transform="matrix(.8105 -.07477 .081 .8111 -254.2 6.05)"/><use xlink:href="#E"/><use xlink:href="#F"/><use xlink:href="#G"/><use xlink:href="#H" transform="translate(-336.15 -113.2)"/><use xlink:href="#I" transform="translate(-336.15 -113.2)"/><use xlink:href="#J" transform="matrix(.38924 .05423 -.05124 .38884 -261.9 159.25)"/><use xlink:href="#K" transform="matrix(.38924 .05423 -.05124 .38884 -261.9 159.25)"/><use xlink:href="#L"/><use xlink:href="#M"/><use xlink:href="#N" transform="matrix(.8105 -.07477 .081 .8111 -141.3 39.1)"/><use xlink:href="#O"/><use xlink:href="#P"/><use xlink:href="#Q"/><use xlink:href="#R"/><use xlink:href="#S"/><use xlink:href="#T"/><use xlink:href="#U"/><use xlink:href="#V" transform="matrix(.8105 -.07477 .081 .8111 -254.2 6.05)"/><use xlink:href="#W"/><use xlink:href="#X"/><use xlink:href="#Y"/><use xlink:href="#Z"/><use xlink:href="#aa" transform="matrix(.59012 -.32762 .3329 .5895 -205.6 227.5)"/><use xlink:href="#ab" transform="matrix(.5607 -.37495 .38017 .56036 -205.4 275.25)"/><use xlink:href="#ac" transform="matrix(.5607 -.37495 .38017 .56036 -200.7 280.75)"/><use xlink:href="#ad" transform="matrix(.7435 -.57608 .3827 .48775 -302.75 431.95)"/><use xlink:href="#ae" transform="matrix(.5607 -.37495 .38017 .56036 -113.05 246.75)"/><use xlink:href="#af" transform="matrix(.82207 .00826 -.0027 .67438 -100.5 52.3)"/><use xlink:href="#ag"/><use xlink:href="#ah"/><use xlink:href="#ai"/><use xlink:href="#aj"/></g></g></svg>