
<svg xmlns="http://www.w3.org/2000/svg" version="1.1" xmlns:xlink="http://www.w3.org/1999/xlink" preserveAspectRatio="none" x="0px" y="0px" width="672px" height="547px" viewBox="0 0 672 547">
<defs>
<filter id="Filter_1" x="-20%" y="-20%" width="140%" height="140%" color-interpolation-filters="sRGB">
<feColorMatrix in="SourceGraphic" type="matrix" values="0 0 0 0 0 0 0 0 0 0.8 0 0 0 0 0.8 0 0 0 1 0" result="result1"/>
</filter>

<g id="Mask_S_mbolo_5_0_1_MASK_0_FILL">
<path fill="#FFFFFF" stroke="none" d="
M 672.75 67.1
Q 672.75 46.75 658.35 32.35 644 18 623.65 18
L 77.1 18
Q 56.75 18 42.35 32.35 28 46.75 28 67.1
L 28 497.7
Q 28 518.05 42.35 532.4 56.75 546.8 77.1 546.8
L 623.65 546.8
Q 644 546.8 658.35 532.4 672.75 518.05 672.75 497.7
L 672.75 67.1 Z"/>
</g>

<g id="S_mbolo_5_0_Layer1_0_FILL">
<path fill="#FFCC66" stroke="none" d="
M 1269.65 421.85
L 497.95 421.85 497.95 1021.65 1269.65 1021.65 1269.65 421.85 Z"/>
</g>

<g id="S_mbolo_5_0_Layer1_1_MEMBER_0_FILL">
<path fill="#00152C" stroke="none" d="
M 557.55 1134.3
Q 558.5 1148.75 559.35 1163.25 575.55 1410.7 641.3 1639.55 643.5 1647.2 645.7 1654.75 656.6 1691.85 685.15 1759.1 685.2 1759.25 685.25 1759.4 700.4 1762.25 714.25 1758.25 729.3 1754 742.45 1741.9 743.2 1741.4 743.85 1740.75 719.65 1660.4 711.95 1633.7 710.55 1629 709.3 1624.15 656.95 1438.15 658.2 1225.1
L 838.05 1175.2 966 1552.5 1007.7 1668.3
Q 1036.7 1684.55 1061.75 1650.2
L 898.45 1087.5 890.6 1052.6 557.55 1134.3 Z"/>
</g>

<g id="S_mbolo_5_0_Layer1_1_MEMBER_0_MEMBER_0_FILL">
<path fill="#FFFFFF" stroke="none" d="
M 664.5 1962.3
Q 654.2 1958.7 658.05 1958.5
L 632.35 1942.7 598.8 1922.7 550.85 1951.45
Q 542.35 1975.75 552.5 1991.65 554.15 1991.45 555.8 1991.25 547.8 2002.85 558.95 2013.55 713 1990.7 813.5 1897.7
L 802.3 1873.55 784.85 1883.05
Q 670.9 1958.35 658.55 1958.4
L 664.5 1962.3 Z"/>

<path fill="#00274F" stroke="none" d="
M 658.65 1922.4
Q 656.95 1921.6 650.95 1918.1 645.3 1914.6 643 1913.4 641.85 1912.85 641.6 1912.7 639.6 1911.8 636.75 1911.3 632.45 1910.2 626.45 1909.75 624.15 1909.4 622.45 1909.3 611.55 1916.45 598.8 1922.7
L 632.35 1942.7
Q 646.4 1932.95 658.65 1922.4
M 661.65 1877.3
Q 660 1876.6 659.25 1876.3 654.6 1881.9 649.45 1887.3 653.7 1887.5 661.15 1889.25 665.1 1890.2 668.4 1891.15 680.8 1894.55 681.45 1897.3 682.15 1900.35 678.1 1901.3 677.3 1901.45 665.7 1897.3 662.75 1896.3 659.25 1894.85 657.75 1894.35 656.5 1893.8 649.5 1891.35 646.1 1890.45 639 1897.3 630.6 1903.55 633.95 1904.15 637.95 1905.45 640.15 1906.1 642.2 1906.85 646.45 1908.45 650.35 1910.2 652.2 1911 653.95 1912 661.3 1915.9 661.75 1918 661.95 1918.8 661.9 1919.45 681.9 1901.8 696.4 1882.1 693.15 1881.15 685.95 1879.2 682.9 1878.4 679.85 1877.7 676.15 1876.85 672.35 1876.7 666.9 1876.45 661.65 1877.3
M 677.2 1851.8
Q 675.55 1851.85 674.75 1851.45 669.95 1861.55 663.25 1870.85 663.6 1870.75 663.75 1870.75 669.8 1869 678.15 1869.15
L 678.3 1869.15
Q 681.5 1869.25 684.5 1869.6 692.9 1870.4 697.45 1873.25 699.4 1874.5 700.65 1876.2 705.75 1868.85 710.15 1861.25 708.6 1860.45 706.65 1859.35 701.5 1855.4 700.55 1854.8 694.45 1850.9 691.85 1850.85 690.35 1850.85 688.55 1851.1 683.55 1851.4 677.2 1851.8
M 716.35 1829.65
Q 713.55 1827.7 711.5 1827 706.05 1824.5 695.55 1826.7 690.9 1827.75 685.2 1829.5 683.55 1829.05 683 1828.85 680.8 1837 677.65 1844.8 678.35 1844.8 679.2 1844.75 682.9 1844.75 690.6 1846.05 692.95 1846.55 695.55 1847 697.9 1847.6 704.05 1850.8 708.6 1853.15 711.5 1852.5 712.8 1852.2 714.15 1853.55 718.85 1841.7 721.55 1830.3 718.65 1830.95 716.35 1829.65
M 724.8 1804.4
Q 724.2 1805.35 722.6 1805.75 720.5 1806.2 719.05 1805.15 717 1803.4 715.9 1803 711.5 1801.45 700 1803.9 694 1805.1 686.6 1807.45 685.75 1816.25 683.95 1824.75 685.3 1823.95 687.35 1823.3 691.4 1821.85 696.7 1821.35 699 1821.05 701.45 1820.8 718.6 1819.45 722.9 1824.25 724.8 1814 724.8 1804.4
M 714.55 1780.5
Q 714.15 1780.4 713.8 1780.35 710.45 1779.55 709.2 1778.85 705.65 1779.3 702.4 1780 698.6 1781.05 695.5 1782.95 693.45 1784.4 692.25 1785.2 691.05 1786 690.75 1786.05 689.45 1786.35 688.55 1786.05 687.8 1785.7 687.5 1785.05 687.25 1783.95 687.15 1783.45 687.1 1785 687.25 1786.35 687.45 1793.9 687.1 1801.25
L 704.75 1797.25
Q 717.1 1798.5 720.05 1799.05 723.8 1799.9 724.8 1801.2 724.55 1790.55 722.1 1780.45 721.5 1780.8 720.55 1781 718.8 1781.4 714.55 1780.5
M 684.45 1759.75
Q 686.25 1769.65 686.85 1779.15 686.9 1780.3 687 1781.3 687.35 1779.9 689 1779 691.6 1777.75 700.15 1775.3 704.4 1773.85 710.5 1772.3 714.2 1774 720.15 1774 720.3 1774 720.45 1773.95 718 1766.05 714.25 1758.25 700.4 1762.25 685.25 1759.4
L 684.45 1759.75 Z"/>

<path fill="#CCCCCC" stroke="none" d="
M 659.4 1922.6
Q 662 1922 661.9 1919.45 661.95 1918.8 661.75 1918 661.3 1915.9 653.95 1912 652.2 1911 650.35 1910.2 646.45 1908.45 642.2 1906.85 640.15 1906.1 637.95 1905.45 633.95 1904.15 630.6 1903.55 615.8 1900.15 617.6 1908 617.7 1908.5 622.45 1909.3 624.15 1909.4 626.45 1909.75 632.45 1910.2 636.75 1911.3 639.6 1911.8 641.6 1912.7 641.85 1912.85 643 1913.4 645.3 1914.6 650.95 1918.1 656.95 1921.6 658.65 1922.4 659.25 1922.6 659.4 1922.6
M 681.45 1897.3
Q 680.8 1894.55 668.4 1891.15 665.1 1890.2 661.15 1889.25 653.7 1887.5 649.45 1887.3 642.2607421875 1886.9005859375 643 1890.3 642.875390625 1889.65625 646.1 1890.45 649.5 1891.35 656.5 1893.8 657.75 1894.35 659.25 1894.85 662.75 1896.3 665.7 1897.3 677.3 1901.45 678.1 1901.3 682.15 1900.35 681.45 1897.3
M 659.25 1876.3
Q 660 1876.6 661.65 1877.3 666.9 1876.45 672.35 1876.7 676.15 1876.85 679.85 1877.7 682.9 1878.4 685.95 1879.2 693.15 1881.15 696.4 1882.1
L 698.75 1882.75
Q 701.95 1882 701.85 1879.85 701.85 1879.35 701.8 1879 701.45 1877.4 700.65 1876.2 699.4 1874.5 697.45 1873.25 692.9 1870.4 684.5 1869.6 681.5 1869.25 678.3 1869.15
L 678.15 1869.15
Q 669.8 1869 663.75 1870.75 663.6 1870.75 663.25 1870.85 657.55 1872.6 658.15 1875.2 658.25 1875.7 659.25 1876.3
M 677.65 1844.8
Q 672.55 1845.4 673.4 1849.25 673.7 1850.55 674 1850.8 674.25 1851.3 674.75 1851.45 675.55 1851.85 677.2 1851.8 683.55 1851.4 688.55 1851.1 690.35 1850.85 691.85 1850.85 694.45 1850.9 700.55 1854.8 701.5 1855.4 706.65 1859.35 708.6 1860.45 710.15 1861.25 712.8 1862.5 714.55 1862.1 717.45 1861.45 716.65 1857.95 715.4 1854.8 714.15 1853.55 712.8 1852.2 711.5 1852.5 708.6 1853.15 704.05 1850.8 697.9 1847.6 695.55 1847 692.95 1846.55 690.6 1846.05 682.9 1844.75 679.2 1844.75 678.35 1844.8 677.65 1844.8
M 701.45 1820.8
Q 699 1821.05 696.7 1821.35 691.4 1821.85 687.35 1823.3 685.3 1823.95 683.95 1824.75 681.2 1826.05 681.55 1827.5 681.7 1828.15 682.8 1828.75
L 683 1828.85
Q 683.55 1829.05 685.2 1829.5 690.9 1827.75 695.55 1826.7 706.05 1824.5 711.5 1827 713.55 1827.7 716.35 1829.65 718.65 1830.95 721.55 1830.3 723.15 1829.95 723.95 1828.9 724.35 1827.8 724.1 1826.65 723.75 1825.2 722.9 1824.25 718.6 1819.45 701.45 1820.8
M 725.1 1801.95
Q 725 1801.45 724.8 1801.2 723.8 1799.9 720.05 1799.05 717.1 1798.5 704.75 1797.25
L 687.1 1801.25 684.5 1801.8
Q 683.3 1802.4 682.6 1803.95 682.2 1805 682.25 1805.35 682.45 1806.15 683.4 1806.65 683.8 1806.7 684.3 1806.9 684.85 1807.15 685.8 1807.6 686.3 1807.5 686.6 1807.45 694 1805.1 700 1803.9 711.5 1801.45 715.9 1803 717 1803.4 719.05 1805.15 720.5 1806.2 722.6 1805.75 724.2 1805.35 724.8 1804.4 725.45 1803.4 725.1 1801.95
M 700.15 1775.3
Q 691.6 1777.75 689 1779 687.35 1779.9 687 1781.3 686.8 1782 687.05 1783.15
L 687.15 1783.45
Q 687.25 1783.95 687.5 1785.05 687.8 1785.7 688.55 1786.05 689.45 1786.35 690.75 1786.05 691.05 1786 692.25 1785.2 693.45 1784.4 695.5 1782.95 698.6 1781.05 702.4 1780 705.65 1779.3 709.2 1778.85 710.45 1779.55 713.8 1780.35 714.15 1780.4 714.55 1780.5 718.8 1781.4 720.55 1781 721.5 1780.8 722.1 1780.45 724.1 1779.55 724.4 1777.95 724.4 1777.25 724.3 1776.75 723.75 1774.2 720.45 1773.95 720.3 1774 720.15 1774 714.2 1774 710.5 1772.3 704.4 1773.85 700.15 1775.3 Z"/>

<path fill="#003366" stroke="none" d="
M 720.45 1773.95
Q 723.75 1774.2 724.3 1776.75 724.4 1777.25 724.4 1777.95 724.1 1779.55 722.1 1780.45 724.55 1790.55 724.8 1801.2 725 1801.45 725.1 1801.95 725.45 1803.4 724.8 1804.4 724.8 1814 722.9 1824.25 723.75 1825.2 724.1 1826.65 724.35 1827.8 723.95 1828.9 723.15 1829.95 721.55 1830.3 718.85 1841.7 714.15 1853.55 715.4 1854.8 716.65 1857.95 717.45 1861.45 714.55 1862.1 712.8 1862.5 710.15 1861.25 705.75 1868.85 700.65 1876.2 701.45 1877.4 701.8 1879 701.85 1879.35 701.85 1879.85 701.95 1882 698.75 1882.75
L 696.4 1882.1
Q 681.9 1901.8 661.9 1919.45 662 1922 659.4 1922.6 659.25 1922.6 658.65 1922.4 646.4 1932.95 632.35 1942.7
L 658.05 1958.5
Q 658.2 1958.5 658.55 1958.4 670.9 1958.35 784.85 1883.05 792.95 1877.7 801.45 1872.05 801.75 1871.85 801.9 1871.8
L 745.3 1745.5 742.45 1741.9
Q 729.3 1754 714.25 1758.25 718 1766.05 720.45 1773.95 Z"/>
</g>

<g id="S_mbolo_5_0_Layer1_1_MEMBER_0_MEMBER_1_FILL">
<path fill="#00274F" stroke="none" d="
M 1114.95 1726.4
Q 1114.45 1727.2 1113.05 1727.8 1107.25 1730.5 1102.65 1732.55 1101.1 1733.2 1099.55 1733.9 1097.5 1735.2 1093.7 1741.5 1093.3 1742.6 1090.5 1748.3 1089.45 1750.25 1088.5 1751.45 1095.85 1756.2 1103.85 1760.3 1104.05 1758.25 1105.25 1756.1 1108 1751.6 1114.9 1747 1117.35 1745.25 1120.2 1743.6
L 1120.35 1743.55
Q 1127.75 1739.55 1133.7 1738.2 1134 1738.1 1134.15 1738.1 1124.1 1733.1 1114.95 1726.4
M 1097.25 1710.25
Q 1096.7 1710.7 1095.65 1712 1089.8 1712.95 1085 1714.4 1074.9 1717.35 1071 1721.9 1069.7 1723.6 1068.2 1726.65 1066.7 1729 1063.8 1729.65 1071.35 1738.4 1081.15 1746.7 1081.8 1745 1083.05 1744.6 1085.95 1743.9 1088.85 1739.55 1092.8 1733.75 1094.6 1732.15 1096.65 1730.55 1098.5 1729.05 1104.7 1724.3 1107.85 1722.6 1108.55 1722.05 1109.35 1721.85 1102.95 1716.6 1097.25 1710.25
M 1051.4 1708.5
Q 1049.8 1708.85 1048.7 1708.4 1053.3 1716.85 1059.85 1724.8 1061.35 1718.7 1077 1711.8 1079.45 1710.7 1081.7 1710.05 1086.5 1708.1 1090.75 1707.35 1092.8 1707.05 1094.35 1707.05 1088.8 1700.35 1083.9 1693 1076.2 1694.6 1070.45 1696.2 1059.2 1699.4 1055.9 1702.7 1055.2 1703.7 1054.15 1706.35 1053.45 1707.8 1051.4 1708.5
M 1072.25 1675
Q 1071.55 1675.65 1070.15 1676.2 1070 1676.2 1068.4 1676.05 1067.2 1675.8 1064.65 1675.55 1061 1675.35 1057.15 1676.25 1053.9 1676.95 1050.55 1678.4 1049.75 1679.4 1047.3 1681.85 1046.95 1681.9 1046.65 1682.15 1043.3 1685.1 1041.5 1685.5 1040.55 1685.7 1039.9 1685.85 1042.5 1695.95 1047.35 1705.3 1047.5 1703.75 1050.45 1701.25 1052.75 1699.35 1063.2 1692.4
L 1080.5 1687.65
Q 1076.75 1681.4 1073.5 1674.6 1072.9 1673.35 1072.25 1672 1072.35 1672.5 1072.6 1673.6 1072.65 1674.4 1072.25 1675
M 1063.55 1649.95
L 1062.7 1649.95
Q 1050.5 1659.5 1036.5 1662.65 1036.75 1671.2 1038.4 1679.3 1038.55 1679.25 1038.7 1679.25 1043.85 1676.35 1046.3 1673.1 1052.55 1671.7 1056.95 1670.85 1065.7 1669.05 1068.55 1669.1 1070.4 1669.05 1071.35 1670.15 1070.95 1669.2 1070.35 1668.2 1066.6 1659.55 1063.55 1649.95
M 1173 1765
Q 1172.9 1765.15 1172.15 1766.2 1170.75 1768.35 1167.3 1774.05 1163.7 1779.9 1162.4 1781.55 1178.25 1785.1 1195.4 1787.1
L 1215.4 1753.7
Q 1201.3 1754.2 1188.35 1752.9 1186.9 1753.9 1185.15 1755.15 1180 1758.45 1176.75 1761.25 1174.3 1763.3 1173 1765
M 1140.35 1740.95
L 1140.4 1741.1
Q 1139.85 1741.7 1138.65 1743 1133.65 1744.6 1128.9 1747.6 1125.75 1749.45 1122.8 1752 1120.45 1753.85 1118.15 1756.05 1112.55 1761.4 1110.3 1763.6 1132.35 1774.15 1158.3 1780.45 1158 1779.85 1157.6 1779.1 1157.15 1777 1161.8 1770.05 1162.8 1768.45 1164.15 1767 1166.75 1763.35 1169.85 1759.9 1171.35 1758.4 1172.85 1756.85 1175.9 1753.8 1178.45 1751.55 1168.1 1750 1158.6 1747.45 1156.05 1749.7 1151.05 1755.25 1150.1 1756.3 1149.05 1757.55 1146.6 1760.3 1144.55 1762.6 1136.35 1771.75 1135.4 1771.95 1131.4 1773 1130.55 1770 1129.75 1767.3 1139.35 1758.2 1141.75 1755.95 1144.7 1753.45 1150.5 1748.4 1154.25 1746.05 1147.1 1743.8 1140.35 1740.95 Z"/>

<path fill="#CCCCCC" stroke="none" d="
M 1107.85 1722.6
Q 1104.7 1724.3 1098.5 1729.05 1096.65 1730.55 1094.6 1732.15 1092.8 1733.75 1088.85 1739.55 1085.95 1743.9 1083.05 1744.6 1081.8 1745 1081.15 1746.7 1080.75 1748.45 1081.1 1751.6 1082.05 1755.1 1084.95 1754.3 1086.7 1753.9 1088.5 1751.45 1089.45 1750.25 1090.5 1748.3 1093.3 1742.6 1093.7 1741.5 1097.5 1735.2 1099.55 1733.9 1101.1 1733.2 1102.65 1732.55 1107.25 1730.5 1113.05 1727.8 1114.45 1727.2 1114.95 1726.4 1115.35 1725.95 1115.4 1725.45 1115.5 1725.05 1115.05 1723.8 1114.05 1720 1109.35 1721.85 1108.55 1722.05 1107.85 1722.6
M 1095.65 1712
Q 1096.7 1710.7 1097.25 1710.25 1097.25 1710.1 1097.4 1710.05 1097.85 1709.1 1097.7 1708.45 1097.4 1707 1094.35 1707.05 1092.8 1707.05 1090.75 1707.35 1086.5 1708.1 1081.7 1710.05 1079.45 1710.7 1077 1711.8 1061.35 1718.7 1059.85 1724.8 1059.3 1726.3 1059.75 1727.5 1060.05 1728.8 1061.05 1729.4 1062.25 1730.15 1063.8 1729.65 1066.7 1729 1068.2 1726.65 1069.7 1723.6 1071 1721.9 1074.9 1717.35 1085 1714.4 1089.8 1712.95 1095.65 1712
M 1050.45 1701.25
Q 1047.5 1703.75 1047.35 1705.3 1047.3 1705.85 1047.35 1706.15 1047.75 1707.8 1048.7 1708.4 1049.8 1708.85 1051.4 1708.5 1053.45 1707.8 1054.15 1706.35 1055.2 1703.7 1055.9 1702.7 1059.2 1699.4 1070.45 1696.2 1076.2 1694.6 1083.9 1693 1084.25 1692.9 1084.7 1692.8 1085.35 1692 1085.75 1691.4 1086.25 1691.1 1086.35 1690.9 1086.95 1689.95 1086.8 1689.15 1086.7 1688.85 1085.85 1688.2 1084.45 1687.15 1083.1 1687.1
L 1080.5 1687.65 1063.2 1692.4
Q 1052.75 1699.35 1050.45 1701.25
M 1071.35 1670.15
Q 1070.4 1669.05 1068.55 1669.1 1065.7 1669.05 1056.95 1670.85 1052.55 1671.7 1046.3 1673.1 1043.85 1676.35 1038.7 1679.25 1038.55 1679.25 1038.4 1679.3 1035.6 1680.95 1036.15 1683.5 1036.45 1684.1 1036.7 1684.55 1037.7 1686.05 1039.9 1685.85 1040.55 1685.7 1041.5 1685.5 1043.3 1685.1 1046.65 1682.15 1046.95 1681.9 1047.3 1681.85 1049.75 1679.4 1050.55 1678.4 1053.9 1676.95 1057.15 1676.25 1061 1675.35 1064.65 1675.55 1067.2 1675.8 1068.4 1676.05 1070 1676.2 1070.15 1676.2 1071.55 1675.65 1072.25 1675 1072.65 1674.4 1072.6 1673.6 1072.35 1672.5 1072.25 1672
L 1072.15 1671.7
Q 1071.95 1670.7 1071.35 1670.15
M 1172.15 1766.2
Q 1172.9 1765.15 1173 1765 1174.3 1763.3 1176.75 1761.25 1180 1758.45 1185.15 1755.15 1186.9 1753.9 1188.35 1752.9 1192.1 1750 1192 1749.5 1189.9 1741.75 1178.45 1751.55 1175.9 1753.8 1172.85 1756.85 1171.35 1758.4 1169.85 1759.9 1166.75 1763.35 1164.15 1767 1162.8 1768.45 1161.8 1770.05 1157.15 1777 1157.6 1779.1 1158 1779.85 1158.3 1780.45 1159.45 1782.55 1162 1782 1162.15 1781.95 1162.4 1781.55 1163.7 1779.9 1167.3 1774.05 1170.75 1768.35 1172.15 1766.2
M 1140.4 1741.1
L 1140.35 1740.95
Q 1140.85 1740.15 1140.7 1739.5 1140.15 1736.9 1134.15 1738.1 1134 1738.1 1133.7 1738.2 1127.75 1739.55 1120.35 1743.55
L 1120.2 1743.6
Q 1117.35 1745.25 1114.9 1747 1108 1751.6 1105.25 1756.1 1104.05 1758.25 1103.85 1760.3 1103.75 1761.9 1104.1 1763.5 1104.3 1763.75 1104.4 1764.1 1105.5 1766.05 1108.5 1765.15
L 1110.3 1763.6
Q 1112.55 1761.4 1118.15 1756.05 1120.45 1753.85 1122.8 1752 1125.75 1749.45 1128.9 1747.6 1133.65 1744.6 1138.65 1743 1139.85 1741.7 1140.4 1741.1
M 1161.45 1745.8
Q 1160.5 1742.3 1154.25 1746.05 1150.5 1748.4 1144.7 1753.45 1141.75 1755.95 1139.35 1758.2 1129.75 1767.3 1130.55 1770 1131.4 1773 1135.4 1771.95 1136.35 1771.75 1144.55 1762.6 1146.6 1760.3 1149.05 1757.55 1150.1 1756.3 1151.05 1755.25 1156.05 1749.7 1158.6 1747.45 1161.1 1745.05 1161.45 1745.8 Z"/>

<path fill="#003366" stroke="none" d="
M 1003.8 1661.45
L 1003.1 1665.8 1012.35 1803.95
Q 1012.5 1803.95 1012.85 1804 1023 1804.9 1032.7 1806 1168.65 1819 1179.5 1813.2 1179.85 1813.1 1180 1813.05
L 1195.4 1787.1
Q 1178.25 1785.1 1162.4 1781.55 1162.15 1781.95 1162 1782 1159.45 1782.55 1158.3 1780.45 1132.35 1774.15 1110.3 1763.6
L 1108.5 1765.15
Q 1105.5 1766.05 1104.4 1764.1 1104.3 1763.75 1104.1 1763.5 1103.75 1761.9 1103.85 1760.3 1095.85 1756.2 1088.5 1751.45 1086.7 1753.9 1084.95 1754.3 1082.05 1755.1 1081.1 1751.6 1080.75 1748.45 1081.15 1746.7 1071.35 1738.4 1063.8 1729.65 1062.25 1730.15 1061.05 1729.4 1060.05 1728.8 1059.75 1727.5 1059.3 1726.3 1059.85 1724.8 1053.3 1716.85 1048.7 1708.4 1047.75 1707.8 1047.35 1706.15 1047.3 1705.85 1047.35 1705.3 1042.5 1695.95 1039.9 1685.85 1037.7 1686.05 1036.7 1684.55 1036.45 1684.1 1036.15 1683.5 1035.6 1680.95 1038.4 1679.3 1036.75 1671.2 1036.5 1662.65 1021.2 1665.95 1003.8 1661.45 Z"/>

<path fill="#FFFFFF" stroke="none" d="
M 1271.5 1756.55
L 1215.4 1753.7 1195.4 1787.1 1180 1813.05
Q 1183.35 1811.45 1176.05 1819.55
L 1179.5 1813.2
Q 1168.65 1819 1032.7 1806
L 1012.9 1805.7 1014.15 1832.3
Q 1146.6 1867.3 1293.35 1815.15 1298.05 1800.75 1285.7 1794.1 1287.3 1793.55 1288.85 1792.9 1290.3 1773.95 1271.5 1756.55 Z"/>
</g>

<g id="S_mbolo_5_0_Layer1_1_MEMBER_1_MEMBER_0_FILL">
<path fill="#FFFFFF" stroke="none" d="
M 966.25 -328.1
L 887.8 -281.05 887.8 63.65
Q 983.2619140625 86.8822265625 1109.7 63.65
L 1109.7 -287.05 1036.25 -326.1
Q 1027.7 -297.65 1000.25 -296.1 970.65 -297.95 966.25 -328.1 Z"/>

<path fill="#000000" stroke="none" d="
M 887.8 -281.05
L 966.25 -328.1
Q 970.65 -297.95 1000.25 -296.1 1027.7 -297.65 1036.25 -326.1
L 1109.7 -287.05 1109.7 -336.2 887.8 -336.2 887.8 -281.05 Z"/>
</g>

<g id="S_mbolo_5_0_Layer1_1_MEMBER_1_MEMBER_1_FILL">
<path fill="#B44F1D" stroke="none" d="
M 851.7 231.9
Q 877.7 261.6068359375 903.7 231.9
L 903.7 188.4
Q 877.7 210.3431640625 851.7 189.8
L 851.7 231.9 Z"/>

<path fill="#743312" stroke="none" d="
M 851.7 153.9
L 851.7 189.8
Q 877.7 210.3431640625 903.7 188.4
L 903.7 153.9 851.7 153.9 Z"/>
</g>

<g id="S_mbolo_5_0_Layer1_1_MEMBER_2_MEMBER_0_MEMBER_0_FILL">
<path fill="#000000" stroke="none" d="
M 1196.6 -311.95
Q 1177.15 -311.95 1163.35 -298.2 1149.6 -284.4 1149.6 -264.95 1149.6 -245.5 1163.35 -231.75 1177.15 -217.95 1196.6 -217.95 1216.05 -217.95 1229.8 -231.75 1243.6 -245.5 1243.6 -264.95 1243.6 -284.4 1229.8 -298.2 1216.05 -311.95 1196.6 -311.95 Z"/>
</g>

<g id="S_mbolo_5_0_Layer1_1_MEMBER_2_MEMBER_0_MEMBER_1_FILL">
<path fill="#000000" stroke="none" d="
M 1250.7 -357.05
Q 1237.85 -369.9 1219.6 -369.9 1201.35 -369.9 1188.45 -357.05 1175.6 -344.15 1175.6 -325.9 1175.6 -307.65 1188.45 -294.8 1201.35 -281.9 1219.6 -281.9 1237.85 -281.9 1250.7 -294.8 1263.6 -307.65 1263.6 -325.9 1263.6 -344.15 1250.7 -357.05 Z"/>
</g>

<g id="S_mbolo_5_0_Layer1_1_MEMBER_2_MEMBER_1_MEMBER_0_FILL">
<path fill="#000000" stroke="none" d="
M 1196.6 -311.95
Q 1177.15 -311.95 1163.35 -298.2 1149.6 -284.4 1149.6 -264.95 1149.6 -245.5 1163.35 -231.75 1177.15 -217.95 1196.6 -217.95 1216.05 -217.95 1229.8 -231.75 1243.6 -245.5 1243.6 -264.95 1243.6 -284.4 1229.8 -298.2 1216.05 -311.95 1196.6 -311.95 Z"/>
</g>

<g id="S_mbolo_5_0_Layer1_1_MEMBER_2_MEMBER_1_MEMBER_1_FILL">
<path fill="#000000" stroke="none" d="
M 1250.7 -357.05
Q 1237.85 -369.9 1219.6 -369.9 1201.35 -369.9 1188.45 -357.05 1175.6 -344.15 1175.6 -325.9 1175.6 -307.65 1188.45 -294.8 1201.35 -281.9 1219.6 -281.9 1237.85 -281.9 1250.7 -294.8 1263.6 -307.65 1263.6 -325.9 1263.6 -344.15 1250.7 -357.05 Z"/>
</g>

<g id="S_mbolo_5_0_Layer1_1_MEMBER_2_MEMBER_2_FILL">
<path fill="#B44F1D" stroke="none" d="
M 310.1 77.05
Q 253.85 166.15 277 268.7 300.2 371.45 389.35 427.7 478.2 483.85 580.95 460.65 683.5 437.5 739.85 348.5 795.9 259.5 772.7 156.75 749.55 54.2 660.6 -2.15 571.55 -58.2 469 -35.05 366.25 -11.85 310.1 77.05 Z"/>
</g>

<g id="S_mbolo_5_0_Layer1_1_MEMBER_2_MEMBER_3_MEMBER_0_FILL">
<path fill="#000000" stroke="none" d="
M 717.8 9.5
Q 717.9072265625 10.096484375 717.95 10.95
L 718.1 10.9 717.8 9.5
M 462.4 -97.6
L 468.1 -74.2
Q 472.1 -55.5 471.7 -43.95 471.3 -29.85 464.75 -19.35 457.8 -8.2 442.25 1.6
L 417.5 7.15
Q 414.45 3.45 412.2 -3.45 410.95 -7.75 408.85 -16.9
L 402.55 -15.45
Q 395.05 8.7 390.4 15 383.55 24.6 366.85 28.4 350.6 32.05 338.45 23.2 330.6 17.35 326.45 8.15
L 327.15 11.2
Q 325 18.1 321.5 38.65 317.55 61.35 314.45 72.55 303.15 114.45 276.95 120.4 274.85 120.85 269.3 119.6 262.55 118.05 256.2 115.25 238.15 107.2 234.8 92.4 234.7 91.9 232.9 82.5 232.5 74.65 238.6 80
L 235.1 64.6 231.9 65.35
Q 233.55 81.5 225.5 91.6 218.15 101 203.35 104.35 195.5 106.15 189.55 102.45 192.75 108.8 196.9 114.65 181.25 125.45 170 142.85 148.55 177.1 157.4 216.5 166.35 256.05 200.45 277.55 234.7 299.25 274.1 290.35 313.5 281.45 335 247.15 356.7 213.05 347.75 173.5 342.45 150.05 328.3 132.95 328.3 132.8 328.45 132.75 335.15 140.2 344.4 146 370.65 162.6 400.7 155.8 430.95 148.95 447.5 122.75 457.55 106.8 459 89.25 465.55 86.7 471.9 83.45 479.85 96 493.1 104.8 517.45 120.45 545.1 114.2 572.25 108.05 587.3 84.05 595.7 94.35 607.5 102.3 638.85 123.6 675.8 116.65 680.95 115.6 685.85 114.2 685.55 124.7 687.65 135.75 695.3 175.45 728.65 198.1 762 220.85 801.75 213.4 841.4 205.95 864.15 172.6 879.85 149.3 881.2 123.15 872.8 132.3 861.2 134.9 844.8 138.6 827.65 135.85 804 132.25 800.35 116 799.55 112.5 798.95 102.3 798.35 92.3 797.25 87.5 788.65 92.65 784.4 94.8 777.45 98.4 772.3 99.55 753.8 103.75 738 84.65 724.45 68.1 718.85 43.35 718.05 39.65 718.2 26.1 718.45 16.2 717.95 10.95 714.9 11.6 707.35 14.85 699.5 18.35 695.5 19.25 683.1 22.05 668.95 17.65 655.45 13.2 644.35 3.75 632.9 -5.85 627.5 -17.75 621.7 -30.65 624.5 -42.95 619 -29.05 607.65 -20.25 594.75 -10.05 572.7 -5.1 542.35 1.8 527.25 -7.5 522.35 -10.4 513.4 -18.7 503.25 -28.45 496.35 -33.45 481.2 -44.6 470 -73.8 466.15 -84.05 462.4 -97.6 Z"/>

<path fill="#330000" stroke="none" d="
M 680 -106.2
Q 675.25 -120.35 665.6 -133.35 642.9 -163.55 605.5 -169 567.95 -174.35 537.65 -151.45 524.8 -141.75 516.4 -129.4 502 -147.6 480.9 -160.9 431.45 -192.15 374.35 -179.25 317.45 -166.4 286.2 -116.95 260.45 -76.15 264.8 -30.15 257.95 -29.6 251.2 -28.1 214.2 -19.75 194.05 12.2 173.9 44.3 182.25 81.3 184.8 92.55 189.55 102.45 195.5 106.15 203.35 104.35 218.15 101 225.5 91.6 233.55 81.5 231.9 65.35
L 235.1 64.6 238.6 80
Q 232.5 74.65 232.9 82.5 234.7 91.9 234.8 92.4 238.15 107.2 256.2 115.25 262.55 118.05 269.3 119.6 274.85 120.85 276.95 120.4 303.15 114.45 314.45 72.55 317.55 61.35 321.5 38.65 325 18.1 327.15 11.2
L 326.45 8.15
Q 330.6 17.35 338.45 23.2 350.6 32.05 366.85 28.4 383.55 24.6 390.4 15 395.05 8.7 402.55 -15.45
L 408.85 -16.9
Q 410.95 -7.75 412.2 -3.45 414.45 3.45 417.5 7.15
L 442.25 1.6
Q 457.8 -8.2 464.75 -19.35 471.3 -29.85 471.7 -43.95 472.1 -55.5 468.1 -74.2
L 462.4 -97.6
Q 466.15 -84.05 470 -73.8 481.2 -44.6 496.35 -33.45 503.25 -28.45 513.4 -18.7 522.35 -10.4 527.25 -7.5 542.35 1.8 572.7 -5.1 594.75 -10.05 607.65 -20.25 619 -29.05 624.5 -42.95 621.7 -30.65 627.5 -17.75 632.9 -5.85 644.35 3.75 655.45 13.2 668.95 17.65 683.1 22.05 695.5 19.25 699.5 18.35 707.35 14.85 714.9 11.6 717.95 10.95 717.9072265625 10.096484375 717.8 9.5
L 718.1 10.9 717.95 10.95
Q 718.45 16.2 718.2 26.1 718.05 39.65 718.85 43.35 724.45 68.1 738 84.65 753.8 103.75 772.3 99.55 777.45 98.4 784.4 94.8 788.65 92.65 797.25 87.5 798.35 92.3 798.95 102.3 799.55 112.5 800.35 116 804 132.25 827.65 135.85 844.8 138.6 861.2 134.9 872.8 132.3 881.2 123.15 881.65 111.55 879.4 99.5 871.9 59.65 838.55 36.9 821.4 25.1 802.5 21.55 806.1 11.5 807.85 0.3 813.3 -39.7 789.15 -71.9 764.75 -104.4 724.8 -110.05 701 -113.45 680 -106.2 Z"/>
</g>

<g id="S_mbolo_5_0_Layer1_1_MEMBER_2_MEMBER_3_MEMBER_1_FILL">
<path fill="#000000" fill-opacity="0.3686274509803922" stroke="none" d="
M 663.65 -50.65
Q 659.8 -61.9 651.6 -71.9 632.5 -95.3 599.85 -98.95 567.25 -102.55 540.65 -84.2 529.4 -76.6 521.95 -66.75 509.5 -80.7 491.45 -91 449.1 -114.7 399.2 -103.8 349.35 -92.65 321 -53.35 297.9 -20.9 300.85 15.1 295.05 15.75 289.05 16.9 256.75 24.2 238.45 49.45 220.2 75.05 226.75 104 230.05 118.6 238.85 129.8 225 138.7 215.15 152.6 195.6 179.8 202.55 210.7 209.55 241.55 238.9 257.75 268.25 274.25 302.55 266.7 337.05 259.2 356.4 231.85 376.1 204.75 369.15 173.9 365 155.55 352.9 142.4 352.85 142.25 353.05 142.25 358.75 148.05 366.5 152.4 388.95 165.05 415.5 159.2 441.8 153.45 456.65 132.5 465.9 119.8 467.4 106.1 473.3 103.85 478.8 101.3 485.6 111.1 496.85 117.7 517.65 129.7 541.8 124.25 565.6 119 579.1 100.1 586.1 108 596.1 114.05 622.95 130.4 655.35 124.45 660.1 123.55 664.4 122.25 663.9 130.65 665.5 139.25 671.15 170.35 699.8 187.75 728.35 205.1 763.05 198.65 797.8 192.15 818.25 165.55 838.8 138.95 832.95 107.8 827.35 76.8 798.65 59.25 784 50.45 767.55 47.9 770.95 39.9 772.7 31.05 778.4 -0.5 757.75 -25.45 737.35 -50.55 702.7 -54.35 682.05 -56.8 663.65 -50.65 Z"/>
</g>

<g id="S_mbolo_5_0_Layer1_1_MEMBER_3_FILL">
<path fill="#CC0000" stroke="none" d="
M 368.55 -268.15
Q 371.4 -268.3 374.15 -268.2 380.6 -267.9 386.4 -266 389.05 -265.1 391.5 -263.95 391.95 -263.7 392.35 -263.55 396.25 -261.8 398.55 -262.65 399.35 -262.9 399.95 -263.45 400 -263.55 400.1 -263.6 401.75 -265.45 401.75 -269.85 401.75 -280.8 392.7 -288.5 384.175390625 -295.7931640625 372.25 -296.2 350.8451171875 -288.490625 352.75 -265.25 357.1955078125 -266.7994140625 362.8 -267.6 365.55 -267.95 368.55 -268.15 Z"/>

<path fill="#580000" stroke="none" d="
M 372.25 -296.2
Q 371.6234375 -296.2 370.95 -296.2 359.5 -296.2 351.05 -290 350.05 -289.3 349.15 -288.5 340.1 -280.8 340.1 -269.85 340.1 -266 341.1 -264.05 342.9 -260.45 348 -263.2 348.15 -263.25 348.3 -263.35 348.95 -263.65 349.6 -264 351.0966796875 -264.6802734375 352.75 -265.25 350.8451171875 -288.490625 372.25 -296.2 Z"/>
</g>

<g id="S_mbolo_5_0_Layer1_1_MEMBER_4_FILL">
<path fill="#FFFFFF" stroke="none" d="
M 499.6 421.55
Q 493.35 422.3 488.8 426.05 496.55 431.9 505.4 436.65 512.35 440.5 519.25 443.35
L 518.15 433.3
Q 517.55 427.65 512.2 424.1 506.7 420.8 499.6 421.55
M 556 436.2
Q 555.4 430.6 550.1 427.2 544.55 423.75 537.45 424.5 536.35 424.75 535.2 425 529.7 426.1 525.8 429.85 521.45 434.35 522 439.95
L 522.55 444.45
Q 538.35 450.15 554.05 450.2 555.95 450.25 557.6 450
L 556 436.2
M 587.25 424.25
Q 581.75 420.9 574.85 421.65 567.75 422.4 563 427.05 558.7 431.55 559.25 437.15
L 560.65 450
Q 570.4 449.15 580.1 446.3 587.65 443.9 594.15 440.6
L 593.2 433.35
Q 592.6 427.75 587.25 424.25
M 619.15 408.4
Q 612.1 409.3 607.55 413.75 603 418.3 603.55 423.9
L 604.7 434
Q 617.8 424.1 625.85 408.75 622.8 408.1 619.15 408.4
M 544.3 280.5
Q 551.4 279.75 555.95 275.2 560.5 270.8 559.75 265
L 558.7 254.3
Q 540.85 247.15 523.4 247.05
L 525.75 268.8
Q 526.4 274.4 531.65 277.75 537.2 281.25 544.3 280.5
M 486.65 254.85
L 488.55 271.65
Q 489.15 277.25 494.5 280.75 500 284.25 507.05 283.35 514 282.6 518.6 278.05 523.3 273.55 522.6 268
L 520.35 247.05
Q 508.65 247.5 497.1 251.1 491.55 252.75 486.65 254.85
M 593.55 275.45
Q 583.65 266.85 571.7 260.45 566.7 257.7 561.8 255.6
L 563.6 271.75
Q 564.2 277.35 569.6 280.9 575.25 284.3 582.15 283.6 587.65 279.5 593.55 275.45
M 471.95 296
L 468.8 267.8
Q 468.75 266.95 468.6 266.3 458.25 275.25 451.55 288.1 448.95 293.1 446.7 298.65 444.75 303.65 443.7 308.65
L 443.7 308.8
Q 448.45 311.8 454.2 311.65 455.35 311.55 456.35 311.55 463.45 310.8 467.85 306.25 472.5 301.65 471.95 296 Z"/>

<path fill="#CC0000" stroke="none" d="
M 593.55 275.45
Q 587.65 279.5 582.15 283.6 490.85 350.7 535.2 425 536.35 424.75 537.45 424.5 544.55 423.75 550.1 427.2 555.4 430.6 556 436.2
L 557.6 450
Q 559.15 450.05 560.65 450
L 559.25 437.15
Q 558.7 431.55 563 427.05 567.75 422.4 574.85 421.65 581.75 420.9 587.25 424.25 592.6 427.75 593.2 433.35
L 594.15 440.6
Q 599.75 437.65 604.7 434
L 603.55 423.9
Q 603 418.3 607.55 413.75 612.1 409.3 619.15 408.4 622.8 408.1 625.85 408.75 628.45 403.8 630.25 398.5 644.2 362.05 626.9 321.5 615.65 294.8 595.2 276.8 594.35 276.1 593.55 275.45 Z"/>

<path fill="#660000" stroke="none" d="
M 468.8 267.8
L 471.95 296
Q 472.5 301.65 467.85 306.25 463.45 310.8 456.35 311.55 455.35 311.55 454.2 311.65 448.45 311.8 443.7 308.8
L 443.7 308.65
Q 435.4 340.75 450.2 375.65 455.95 389 463.9 400.25 474.3 414.95 488.8 426.05 493.35 422.3 499.6 421.55 506.7 420.8 512.2 424.1 517.55 427.65 518.15 433.3
L 519.25 443.35
Q 520.9 443.95 522.55 444.45
L 522 439.95
Q 521.45 434.35 525.8 429.85 529.7 426.1 535.2 425 490.85 350.7 582.15 283.6 575.25 284.3 569.6 280.9 564.2 277.35 563.6 271.75
L 561.8 255.6
Q 560.15 254.95 558.7 254.3
L 559.75 265
Q 560.5 270.8 555.95 275.2 551.4 279.75 544.3 280.5 537.2 281.25 531.65 277.75 526.4 274.4 525.75 268.8
L 523.4 247.05
Q 521.9 247.05 520.35 247.05
L 522.6 268
Q 523.3 273.55 518.6 278.05 514 282.6 507.05 283.35 500 284.25 494.5 280.75 489.15 277.25 488.55 271.65
L 486.65 254.85
Q 476.5 259.5 468.6 266.3 468.75 266.95 468.8 267.8 Z"/>
</g>

<g id="S_mbolo_5_0_Layer1_1_MEMBER_5_MEMBER_0_MEMBER_0_FILL">
<path fill="#000000" stroke="none" d="
M 208.35 543.35
Q 213.95 536.75 213.95 527.45 213.95 518.15 208.35 511.55 202.8 504.95 194.95 504.95 187.1 504.95 181.5 511.55 175.95 518.15 175.95 527.45 175.95 536.75 181.5 543.35 187.1 549.95 194.95 549.95 202.8 549.95 208.35 543.35 Z"/>
</g>

<g id="S_mbolo_5_0_Layer1_1_MEMBER_5_MEMBER_0_MEMBER_1_FILL">
<path fill="#FFFFFF" stroke="none" d="
M 207.15 529.15
Q 209.95 526.4 209.95 522.45 209.95 518.5 207.15 515.7 204.4 512.95 200.45 512.95 196.5 512.95 193.7 515.7 190.95 518.5 190.95 522.45 190.95 526.4 193.7 529.15 196.5 531.95 200.45 531.95 204.4 531.95 207.15 529.15 Z"/>
</g>

<g id="S_mbolo_5_0_Layer1_1_MEMBER_5_MEMBER_1_MEMBER_0_FILL">
<path fill="#000000" stroke="none" d="
M 208.35 543.35
Q 213.95 536.75 213.95 527.45 213.95 518.15 208.35 511.55 202.8 504.95 194.95 504.95 187.1 504.95 181.5 511.55 175.95 518.15 175.95 527.45 175.95 536.75 181.5 543.35 187.1 549.95 194.95 549.95 202.8 549.95 208.35 543.35 Z"/>
</g>

<g id="S_mbolo_5_0_Layer1_1_MEMBER_5_MEMBER_1_MEMBER_1_FILL">
<path fill="#FFFFFF" stroke="none" d="
M 207.15 529.15
Q 209.95 526.4 209.95 522.45 209.95 518.5 207.15 515.7 204.4 512.95 200.45 512.95 196.5 512.95 193.7 515.7 190.95 518.5 190.95 522.45 190.95 526.4 193.7 529.15 196.5 531.95 200.45 531.95 204.4 531.95 207.15 529.15 Z"/>
</g>

<g id="S_mbolo_5_0_Layer1_1_MEMBER_6_FILL">
<path fill="#000000" stroke="none" d="
M 900.85 424.2
L 892.4 412.75
Q 865.6 444.65 816.25 462.55 789.2 472.25 753.95 477.65
L 748.35 533.7
Q 781.95 527.45 810.45 518.95 887.4 496.15 924.4 455.9
L 900.85 424.2 Z"/>

<path fill="#913F17" stroke="none" d="
M 919.95 368.55
Q 921.1 324.5 848.8 219 910.35 314.25 908.55 352 906.2 403.6 892.4 412.75
L 900.85 424.2
Q 918.7 412.6 919.95 368.55 Z"/>

<path fill="#B44F1D" stroke="none" d="
M 834.15 103.35
L 828.15 107.4
Q 822.45 101.1 814.45 90.2 804.15 76.8 798.45 71.15 788.85 62.2 778.25 58.7 738.1 45.4 709.35 49.25 674.15 54.15 664.3 84.6 659.6 98.3 658.75 102.05 658.05 105.6 663.25 112.7 675.6 109.05 696.6 97.4 715.8 88.15 725.7 91.5 733.9 94.2 738.5 100.45 741.75 104.45 745.45 113.1 748.95 121.9 751.45 125.4 756.05 131.6 763.3 134.05 771.75 136.9 785.95 134.65
L 792.15 130.75
Q 793.15 132.9 793.75 134.75 795.4 139.1 796.7 143.4 826.7 184.8 848.8 219 921.1 324.5 919.95 368.55 918.7 412.6 900.85 424.2
L 924.4 455.9
Q 957.25 420.25 958.6 370.9 961.3 270.5 829.3 110.5 831.85 107.4 833.8 104.1 834.05 103.7 834.15 103.35 Z"/>
</g>

<g id="S_mbolo_5_0_Layer1_1_MEMBER_7_FILL">
<path fill="#B44F1D" stroke="none" d="
M 356.65 781.4
Q 335.4 742.75 344.8 723.75
L 308.35 708.45
Q 298.2 755.8 322.25 798.9 370.9 886.8 565.9 957.45 565.35 961.25 565.35 965.25 565.3 965.75 565.35 966.1
L 568.6 959.55
Q 576.75 961.95 589.05 967.2 604.6 973.6 612.45 975.35 625.25 978.45 636.35 976.15 677.6 966.95 700.3 949.05 728.05 927.15 721.25 895.95 718.1 881.65 717.15 878.05 716 874.4 707.75 870.95 699.1 880.45 686.95 901.25 674.95 918.9 664.9 920.95 656.4 922.85 649.1 919.95 644.35 918 636.8 912.45 629.4 906.75 625.3 904.95 618.4 901.95 610.75 903.7 602.05 905.6 591.1 914.65
L 587.75 921.2
Q 585.7 919.65 584.1 918.55 580.6 915.55 577.4 912.4 530.35 892 494.1 873.9 377.9 819.85 356.65 781.4 Z"/>

<path fill="#000000" stroke="none" d="
M 344.8 723.75
L 357.8 729.35
Q 364.8 688.2 398.1 647.55 416.3 625.55 443.95 602.75
L 420.65 551.85
Q 394.4 574.25 374.5 596.05 319.65 654.8 308.35 708.45
L 344.8 723.75 Z"/>

<path fill="#913F17" stroke="none" d="
M 357.8 729.35
L 344.8 723.75
Q 335.4 742.75 356.65 781.4 377.9 819.85 494.1 873.9 392.75 823.2 374.85 789.85 350.65 744.15 357.8 729.35 Z"/>
</g>

<g id="S_mbolo_5_0_Layer1_1_MEMBER_8_FILL">
<path fill="#000000" stroke="none" d="
M 675.45 683.85
L 672.8 671.95 634.7 680.55 632.1 669.1 606.85 674.8 595.4 624.2 583.35 626.9 580.4 613.85 552.55 620.15 555.5 633.2 544.45 635.7 570.3 750 558.4 752.7 555.65 740.45 518.5 748.85 527.1 787 537.7 784.6 540.5 797.1 553.5 794.15 559.1 818.75 570.55 816.15 576.4 842.2 589.55 839.25 595.65 866.1 607.9 863.35 616 899.2 745.25 869.95 742.55 858.05 742.4 858.1 736.45 831.75 749.15 828.9 740.9 792.55 752.5 789.95 731.75 698 720.15 700.6 717.05 686.95 703.55 690 700.85 678.1 675.45 683.85
M 649.2 690.25
L 674.3 684.55 685.5 734.25 698.35 731.35 689.85 693.75 703.7 690.65 707 705.1 720 702.15 740.4 792.65 727.4 795.6 735.6 831.8 724.2 834.35 730.2 860.85 625.65 884.5 619.95 859.3 608.25 861.95 602.45 836.2 589.9 839 583.9 812.65 571.2 815.55 565.7 791.1 554.9 793.5 551.8 779.85 538.65 782.85 533.3 759.05 557.4 753.6 560 765.15 573.05 762.2 581.65 800.3 593.7 797.6 556.6 633.3 583.25 627.25 608.9 740.75 621.15 738 609.6 687.05 634.5 681.4 646.15 732.85 658.2 730.15 649.2 690.25 Z"/>
</g>

<g id="Interpolar_2_0_Layer0_0_FILL">
<path fill="#99CCCC" stroke="none" d="
M -90.8 95.55
Q -91.8958984375 96.0212890625 -92.5 96.9 -94.75 100.15 -89.3 107.35 -83.85 114.5 -73.9 121.35 -63.95 128.35 -55.35 130.9 -49.8125 132.564453125 -46.9 131.85 -45.2595703125 131.4513671875 -44.45 130.3 -43.71015625 129.2314453125 -43.8 127.7 -43.9919921875 124.6826171875 -47.65 119.85 -53.1 112.65 -63.05 105.75 -73 98.85 -81.65 96.25 -87.9248046875 94.4001953125 -90.8 95.55
M 42.4 -45.85
Q 42.3634765625 -45.7298828125 42.35 -45.7
L 42.5 -45.9
Q 42.470703125 -45.870703125 42.4 -45.85
L 42.4 -45.85
M 42.9 -28
Q 42.95 -28.05 42.95 -28.15
L 42.8 -27.85 42.85 -27.9
Q 42.85 -27.95 42.9 -27.95
L 42.9 -28
M 34.15 -34.3
Q 34.1 -34.2 34.1 -34.15
L 34.25 -34.4
Q 34.2 -34.35 34.15 -34.3
M 36.9 -40
Q 36.94609375 -40.0767578125 37 -40.15 37.051171875 -40.1958984375 37.1 -40.25 37.45 -40.75 38.65 -40.4 39 -40.35 39.5 -40.2 41.4 -39.5 43.55 -37.9 45.8 -36.3 47 -34.7 47.2 -34.4 47.4 -34.25 48.102734375 -33.1724609375 47.8 -32.6 49.8517578125 -33.94453125 50.95 -35.95 51.65 -37.15 52.05 -38.6 51.65 -38.1 50.35 -38.4 50.1 -38.55 49.75 -38.65 47.85 -39.3 45.65 -40.9 43.45 -42.5 42.2 -44.1 41.9 -44.5 41.75 -44.8 41.05 -45.85 41.4 -46.35 40.15 -45.55 39.15 -44.55 37.5146484375 -42.6171875 36.85 -39.95 36.873828125 -39.973828125 36.9 -40
M 37.9 -39.5
L 37.85 -39.5
Q 37.85 -39.3865234375 37.85 -39.35
L 37.75 -39.25
Q 37.7689453125 -39.218359375 37.75 -39.2 37.7212890625 -38.63671875 38.55 -37.65 39.55 -36.35 41.35 -35 43.15 -33.75 44.75 -33.15 46.110546875 -32.6640625 46.45 -33.05
L 46.5 -33.05
Q 46.5 -33.1 46.55 -33.1
L 46.6 -33.15 46.75 -33.4
Q 46.825390625 -33.8888671875 46.05 -34.95 45.05 -36.15 43.25 -37.45 41.4 -38.85 39.8 -39.4 38.55 -39.9 38.1 -39.65 38.025 -39.625 37.95 -39.6 37.925 -39.55 37.9 -39.5 Z"/>

<path fill="#81ADAD" stroke="none" d="
M 51.9 -40.55
Q 51.7 -40.7 51.5 -41 50.3 -42.6 48.05 -44.2 45.9 -45.8 44 -46.5 43.5 -46.65 43.15 -46.7 41.95 -47.05 41.6 -46.55 41.5455078125 -46.515234375 41.5 -46.5 41.44296875 -46.417578125 41.4 -46.35 41.05 -45.85 41.75 -44.8 41.9 -44.5 42.2 -44.1 43.45 -42.5 45.65 -40.9 47.85 -39.3 49.75 -38.65 50.1 -38.55 50.35 -38.4 51.65 -38.1 52.05 -38.6 52.1 -38.65 52.15 -38.7
L 52.25 -38.8
Q 52.3529296875 -38.954296875 52.35 -39.15 52.45703125 -39.6958984375 51.9 -40.55
M 51.1 -39.45
L 51.05 -39.4
Q 50.75 -38.95 49.25 -39.5 47.75 -40.05 45.95 -41.35 44.1 -42.7 43.1 -44 42.215234375 -45.08125 42.3 -45.6
L 42.35 -45.65 42.35 -45.7
Q 42.3634765625 -45.7298828125 42.4 -45.85
L 42.4 -45.85
Q 42.470703125 -45.870703125 42.5 -45.9 42.55 -45.925 42.6 -45.95 43.05 -46.2 44.3 -45.7 45.9 -45.15 47.75 -43.75 49.55 -42.45 50.55 -41.25 51.18046875 -40.387109375 51.25 -39.9 51.27890625 -39.8044921875 51.25 -39.75
L 51.1 -39.5 51.1 -39.45
M 36.85 -39.95
L 36.85 -39.9
Q 36.8279296875 -39.8779296875 36.8 -39.85 36.8 -39.8279296875 36.8 -39.8 36.75 -39.75 36.75 -39.7 36.7 -39.35 36.75 -39.25 37 -38.7 37.15 -38.45 37.2 -38.4 37.2 -38.35 37.4 -38 37.65 -37.7 38.95 -36.05 41.15 -34.45 43.35 -32.85 45.2 -32.2 45.5 -32.1 45.75 -32 46.35 -31.9 46.75 -31.9 47.0564453125 -31.9 47.45 -32.35 47.512890625 -32.36015625 47.55 -32.4 47.65 -32.4 47.7 -32.45
L 47.75 -32.5
Q 47.7751953125 -32.5376953125 47.8 -32.6 48.102734375 -33.1724609375 47.4 -34.25 47.2 -34.4 47 -34.7 45.8 -36.3 43.55 -37.9 41.4 -39.5 39.5 -40.2 39 -40.35 38.65 -40.4 37.45 -40.75 37.1 -40.25 37.051171875 -40.1958984375 37 -40.15 36.94609375 -40.0767578125 36.9 -40 36.873828125 -39.973828125 36.85 -39.95
M 37.85 -39.5
L 37.9 -39.5
Q 37.925 -39.55 37.95 -39.6 38.025 -39.625 38.1 -39.65 38.55 -39.9 39.8 -39.4 41.4 -38.85 43.25 -37.45 45.05 -36.15 46.05 -34.95 46.825390625 -33.8888671875 46.75 -33.4
L 46.6 -33.15 46.55 -33.1
Q 46.5 -33.1 46.5 -33.05
L 46.45 -33.05
Q 46.110546875 -32.6640625 44.75 -33.15 43.15 -33.75 41.35 -35 39.55 -36.35 38.55 -37.65 37.7212890625 -38.63671875 37.75 -39.2 37.7689453125 -39.218359375 37.75 -39.25
L 37.85 -39.35
Q 37.85 -39.3865234375 37.85 -39.5 Z"/>

<path fill="#99CCCC" fill-opacity="0.5098039215686274" stroke="none" d="
M 51.05 -39.4
L 51.1 -39.45 51.1 -39.5 51.25 -39.75
Q 51.27890625 -39.8044921875 51.25 -39.9 51.18046875 -40.387109375 50.55 -41.25 49.55 -42.45 47.75 -43.75 45.9 -45.15 44.3 -45.7 43.05 -46.2 42.6 -45.95 42.55 -45.925 42.5 -45.9
L 42.35 -45.7 42.35 -45.65 42.3 -45.6
Q 42.215234375 -45.08125 43.1 -44 44.1 -42.7 45.95 -41.35 47.75 -40.05 49.25 -39.5 50.75 -38.95 51.05 -39.4
M 37.2 -38.35
Q 37.2 -38.4 37.15 -38.45 37 -38.7 36.75 -39.25 36.9 -38.7 36.8 -38.6 24.55 -30.7 19.85 -19.75 16.95 -14.95 13.15 -15.45 12.65 -15.4 1.5 -13.9 -9.9 -12.35 -19.1 -1.15 -19.2 -1.1 -19.25 -0.95 -19.75 -0.35 -20.3 0.35 -20.4 0.4 -20.45 0.5 -20.6 0.65 -20.65 0.9
L -20.7 0.85 -54 46.7
Q -54.07890625 46.728125 -54.15 46.75
L -90.8 95.55
Q -87.9248046875 94.4001953125 -81.65 96.25 -73 98.85 -63.05 105.75 -53.1 112.65 -47.65 119.85 -43.9919921875 124.6826171875 -43.8 127.7
L 17.1 46.8
Q 17.1916015625 46.8259765625 17.25 46.85
L 26.05 34.75 26 34.7
Q 26.15 34.6 26.25 34.4 26.35 34.3 26.4 34.2 26.45 34.1 26.5 33.95 26.5 33.9 26.5 33.85 37.35 25 31.7 -2.8 31.1 -8.5 36.85 -13.65 42.6 -18.85 46.75 -31.9 46.35 -31.9 45.75 -32 45.5 -32.1 45.2 -32.2 43.35 -32.85 41.15 -34.45 38.95 -36.05 37.65 -37.7 37.4 -38 37.2 -38.35
M 34.1 -34.15
Q 34.1 -34.2 34.15 -34.3 34.2 -34.35 34.25 -34.4
L 34.1 -34.15
M 42.95 -28.15
Q 42.95 -28.05 42.9 -28
L 42.9 -27.95
Q 42.85 -27.95 42.85 -27.9
L 42.8 -27.85 42.95 -28.15
M 9.75 45.15
Q 8.92890625 45.05625 8 44.95 6.65 44.8 5.25 44.6 6.75 44.75 8.2 44.95 9.025 45.05 9.75 45.15
M 8.2 51.7
Q 6.75 51.9 5.25 52 6.65 51.85 8 51.7 8.8 51.6 9.6 51.5 8.9 51.6 8.2 51.7 Z"/>
</g>

<g id="S_mbolo_5_0_Layer1_2_MEMBER_1_FILL">
<path fill="#CCFFFF" fill-opacity="0.5686274509803921" stroke="none" d="
M 962.5 379.75
L 147.9 379.75 147.9 1729.75
Q 507.1166015625 1945.307421875 962.5 1729.75
L 962.5 379.75 Z"/>
</g>

<g id="S_mbolo_5_0_Layer1_2_MEMBER_2_FILL">
<path fill="#5FFFFF" fill-opacity="0.7686274509803922" stroke="none" d="
M 1090.8 96.1
Q 1278.3 90.05 1278.3 81.55 1278.3 73 1090.8 66.95 903.3 60.95 638.15 60.95 373 60.95 185.5 66.95 -2 73 -2 81.55 -2 90.05 185.5 96.1 373 102.1 638.15 102.1 903.3 102.1 1090.8 96.1 Z"/>
</g>

<g id="larvas_0_Layer2_0_FILL">
<path fill="#295454" stroke="none" d="
M 425 466.45
L 421.2 468.7 412.25 470.2 412.25 470.45 407.05 470.45
Q 403.5 484.4 411.75 497.4
L 412 497.05
Q 414.2 491.7 415.1 486.35 417.65 492.25 422.35 497.55
L 422.5 497.1
Q 424 488.95 423.5 481.1 428.2 487.25 436 491.3
L 436.05 490.75
Q 434.05 476.85 425 466.45
M 383.75 300.9
Q 378.75 300.95 375.15 305.5 372.05 309.55 371.6 315 366.81875 311.8201171875 363.1 309.35 350.883984375 301.21875 350.5 300.95
L 370.05 316.6
Q 365.140234375 315.8943359375 360.95 315.3 337.5830078125 311.9228515625 336.45 311.7 352.2044921875 315.1904296875 360.4 317
L 369.35 318.95
Q 363.4267578125 321.95234375 358.55 324.4 336.4373046875 335.6314453125 335.7 336 349.77265625 330.1380859375 358.1 326.65 370.15 321.6294921875 370.15 321.6 360.043359375 335.561328125 356.2 340.8 354.12890625 343.7005859375 353.9 344
L 372.2 322.1
Q 372.2 321.7 372.2 321.6 373.05 325 375.15 327.6 378.75 332.2 383.75 332.2
L 409.55 332.2
Q 414.65 332.2 418.15 327.65 420.25 325 421.1 321.8 441.2 335.1 441.85 335.65 422.4 319.95 422.35 319.95 455.15 324.7 456.05 324.85 423.05 317.6 423 317.6
L 456.7 300.6
Q 435.4162109375 309.44765625 427.25 312.85 422.269140625 314.930859375 422.25 314.95 423.2421875 313.583984375 424.15 312.25 430.5685546875 303.499609375 434.75 297.75 436.9 294.7 438.55 292.55 436.65 294.75 434.15 297.8 429.3943359375 303.450390625 422.3 311.95 421.895703125 312.4638671875 421.45 313 421.3439453125 312.35625 421.2 311.7 420.3560546875 308.2576171875 418.15 305.5 414.6 300.9 409.55 300.95 399.9029296875 300.95 393.85 300.95 383.75 300.93125 383.75 300.9
M 372.65 186.35
L 372.2 186.6 380.85 206.6 379.15 207.75
Q 384.9 226.4 380.25 246.3 372.2 247.6 366.05 253.75 359.8 260 358.55 268.35
L 330 245.2 356.9 270.25 312.4 252.35 356.65 273.9
Q 305.35 287.95 304.5 288.15
L 358.1 276.85
Q 331.65 295.8 323.05 302
L 320.35 303.9
Q 321.55 303.2 323.45 302 332.55 296.2 359 279.35 360.8 286.15 366.05 291.5 371.0607421875 296.4787109375 377.35 298.25 380.9212890625 299.3 384.9 299.3 387.252734375 299.3 389.6 299.3 391.805078125 299.3 394 299.3 398.5 299.3 403 299.3 406 299.3 408.7 298.7 416.1 297.2 421.9 291.45 427.25 286.15 428.95 279.25 458.4 290.65 472.8 296.3 477.5 298.1 480.6 299.3 477.9 298.1 473.9 296.25 460.15 290 430.25 276.4
L 495.5 277.2 431.35 272.7 477.9 237.3 430.15 268.45 455.85 233 428.8 265.5
Q 427.05 258.9 421.85 253.75 415.65 247.45 407.25 246.25 402.4 226.95 406.75 206.35
L 406.1 206 414.5 186.65 413.95 186.45 403.85 204.95
Q 399.6 203.05 394.5 203.1
L 393.45 203.1
Q 387.8 203.1 383.05 205.35
L 372.65 186.35
M 388.7 454.4
L 397.85 459.5 383.6 459.8 397.7 460.55 385 469.85 398.25 461.55 393.05 471.95 399.1 461.6 398.5 458.8 388.7 454.4
M 385.65 408.8
L 385.55 405.2 374.35 397.75 384.55 405.95 367 403.4 384.2 407.2 366.65 416.05 384.65 408.55 376.15 420.25 385.65 408.8
M 425.65 457.45
L 439.9 457.15 425.8 456.4 438.5 447.1 425.25 455.35 430.45 445 425 454.35
Q 424.35 451.4 422.05 449.2 419.1 446.35 415.15 446.55
L 407.5 446.95
Q 403.6 447.15 400.9 450.3 398.25 453.45 398.45 457.7 398.7 461.95 401.65 464.85 404.65 467.75 408.55 467.5
L 416.2 467.1
Q 420.15 466.9 422.8 463.75 424.85 461.35 425.2 458.25
L 434.8 462.55 425.65 457.45
M 422.3 431.1
Q 421.75 427.8 419.55 425.35
L 418.8 424.7
Q 415.45 421.65 410.85 421.85
L 402.05 422.3
Q 397.5 422.55 394.4 425.9 392.8 427.7 392.1 429.8 391.7 431.1 391.6 432.55
L 388.45 430.4
Q 385.95 428.7 382.85 426.7 385.4 428.7 387.65 430.5 389.45 431.95 391.05 433.25 384.5 432.3 380.35 431.7
L 376.95 431.25 379.7 431.8
Q 383.7 432.7 390.75 434.25
L 376.65 441.35 391.05 435.35 384.25 444.7 391.85 435.65
Q 392.5 439.1 395.2 441.55 398.6 444.6 403.15 444.35
L 412 443.9
Q 416.55 443.7 419.6 440.3 421.8 437.85 422.3 434.85
L 430.9 440.55 422.7 434 436.8 436 423 433 437.05 425.9 422.65 431.9 428.45 423.95
Q 429.0125 423.10625 429.45 422.55 428.9572265625 423.1484375 428.25 423.95 426.2 426.4 422.3 431.1
M 410.4 394.55
L 394.7 395.45
Q 390.75 395.75 388.15 399.5 385.6 403.25 385.9 408.35 386.2 413.45 389.25 416.85 392.25 420.3 396.2 420
L 411.9 419.1
Q 415.85 418.85 418.4 415.05 420.35 412.3 420.65 408.85
L 429.85 415 420.7 407.65 420.7 406.9 437.25 409.35 420.65 405.7 420.6 405.3 437.6 396.7 420.4 403.9 420.25 403.3 428.1 392.45 419.95 402.25
Q 419.15 399.7 417.35 397.7 414.35 394.3 410.4 394.55
M 418.55 376.2
L 418.7 379.8 429.85 387.25 419.65 379.05 437.2 381.6 420 377.85
Q 436.2208984375 369.5955078125 437.45 369.05
L 419.6 376.45
Q 422.45 372.45 424.9 369.15 426.6 366.75 428.1 364.75 426.35 366.8 424.35 369.2 421.65 372.4 418.55 376.2
M 381.9 374
Q 381.2 376.4 381.25 379.15 381.45 384.8 384.65 388.65 387.9 392.6 392.3 392.45
L 408 391.95
Q 412.4 391.85 415.35 387.7 418.4 383.7 418.2 378 418.1 373.5 416.05 370.15 415.5 369.2 414.8 368.4 411.6 364.5 407.15 364.7
L 391.45 365.15
Q 387.1 365.3 384.1 369.4 382.55 371.5 381.9 374
M 381.1 377.35
L 376.9 374.55
Q 373.7 372.45 369.95 369.95
L 380.15 378.1
Q 369.8 376.6 365 375.9 363.5 375.65 362.55 375.55
L 379.75 379.35 362.2 388.2 380.15 380.7 371.7 392.45 381.25 380.95 381.1 377.35
M 377.2 345.95
L 366.7 338.95 377.05 347.3 377.05 349.5
Q 358.1056640625 346.7591796875 356.8 346.5
L 377.25 351.05 377.6 352.85
Q 357.15 363.2 356.3 363.6 378.15 354.55 378.1 354.5
L 378.75 355.95
Q 369.35 368.9 369.1 369.25 379.3 357 379.3 356.95
L 380.4 358.55
Q 383.75 362.9 388.4 362.85
L 408.95 362.85
Q 413.7 362.85 416.95 358.6 418.2 357.05 418.9 355.35 430.55 363.1 430.9 363.35 419.45 354.1 419.4 354.1
L 419.85 352.7
Q 439.9 355.6 440.8 355.75
L 420.1 351.2 420.25 349.35 441.35 338.65
Q 420.35 347.4 420.3 347.45 420.25 346 420 344.8
L 428.55 333 419.75 343.6
Q 418.95 340.5 416.95 338.05 413.7 333.8 408.95 333.8 388.45 333.8 388.4 333.8 383.75 333.85 380.4 338.05 377.8 341.5 377.2 345.95
M 376.95 209.65
L 376.45 210.15
Q 369.4 217.2 369.4 227.15 369.4 237.1 376.45 244.2
L 377.65 245.4
Q 381.7 226.95 376.95 209.65
M 418.55 227.15
Q 418.6 217.15 411.5 210.15 410.7 209.25 409.8 208.55 406.25 227.45 410.45 245.15
L 411.5 244.15
Q 418.5 237.2 418.55 227.15 Z"/>
</g>

<g id="lsd_4_0_Layer0_0_FILL">
<path fill="#295454" stroke="none" d="
M 8.05 -92.6
L 6.85 -93.65
Q 4.4 -80.35 7.35 -67.9
L 8.05 -68.7
Q 13 -73.55 13 -80.6 13 -87.65 8.05 -92.6
M -16.2 -92.95
L -16.55 -92.55
Q -21.5 -87.65 -21.5 -80.6 -21.5 -73.6 -16.55 -68.7
L -15.7 -67.85
Q -12.85 -80.75 -16.2 -92.95
M 10.15 -109.05
L 9.8 -109.2 2.7 -96.15
Q -0.3 -97.55 -3.85 -97.5
L -4.6 -97.5
Q -8.55 -97.5 -11.9 -95.95
L -19.2 -109.2 -19.55 -109.1 -13.45 -95.1 -14.65 -94.2
Q -10.65 -81.15 -13.85 -67.1 -19.45 -66.25 -23.75 -62 -28.15 -57.55 -29.05 -51.55
L -49.2 -67.9 -30.25 -50.35 -61.55 -62.95 -30.45 -47.75 -67 -37.8 -29.4 -45.7
Q -42.05 -36.7 -48.8 -31.85
L -54.45 -27.85 -55.95 -26.75 -54.2 -27.8
Q -52.1 -29.35 -47.85 -31.9
L -28.7 -44
Q -27.55 -39.2 -23.75 -35.5 -22.45 -34.15 -20.8 -33.05 -16.35 -29.95 -10.5 -30.05
L -4.2 -30 2.1 -30
Q 4.45 -30 6.45 -30.45 10.75 -31.5 14.3 -34.5
L 15.45 -35.45
Q 19.15 -39.2 20.35 -44.05
L 41.9 -35.65 50.4 -32.35 56.45 -30 51.25 -32.4 43.95 -35.75 21.25 -46.05 67 -45.45 22 -48.6 54.7 -73.5 21.15 -51.6 39.2 -76.5 20.3 -53.75
Q 19.05 -58.4 15.45 -62 11.05 -66.35 5.1 -67.2 1.75 -80.75 4.7 -95.2
L 4.25 -95.4 10.15 -109.05
M 26.5 -34.15
L 24.05 -31.2 15.1 -20.4
Q 14.6 -23.45 12.75 -25.6 10.3 -28.9 6.65 -28.85 -5.35 -28.8 -11.45 -28.9 -14.8 -28.75 -17.5 -25.65 -19.6 -22.8 -19.9 -18.9
L -34.8 -28.8 -34.65 -28.65 -21.05 -17.85 -44.7 -21.25
Q -29.3 -17.85 -21.6 -16.2
L -44.95 -4.3
Q -28.95 -10.95 -21.05 -14.35 -30.5291015625 -0.967578125 -32.15 1.05 -23.7505859375 -8.862109375 -19.65 -14
L -19.6 -14.7
Q -18.9 -12 -17.45 -10.1 -14.9 -6.85 -11.45 -6.9 0.65 -6.9 6.7 -6.8 10.25 -6.95 12.8 -10.05 14.3 -11.9 14.8 -14.1
L 29.25 -4.55
Q 20.2 -11.9 15.6 -15.5
L 39 -12.1
Q 23.75 -15.5 16.05 -17.15
L 39.7 -29.05
Q 23.65 -22.35 15.5 -19
L 24.45 -31.2
Q 25.5171875 -32.8994140625 26.5 -34.15
M 11.9 -2.8
Q 9.6 -5.95 6.25 -5.8 -3.3 -5.8 -8.2 -5.9 -11.35 -5.75 -13.8 -2.85 -15.65 -0.35 -16.05 2.75
L -23.5 -2.2 -16.15 3.7 -16.1 5.25 -30.35 3.2
Q -20.7 5.35 -16 6.3
L -15.65 7.6
Q -19.9 9.7 -23.8 11.7 -25.25 12.3 -26.7 13.15 -28.6 14.05 -30.65 15.2
L -25.65 13.05 -21.75 11.5 -15.3 8.8
Q -14.85 9.75 -14.85 9.8
L -15.55 10.75 -16.8 12.4 -21.75 19.2 -16.1 12.35 -14.65 10.6
Q -14.5 10.45 -14.5 10.5 -14.45 10.5 -14.45 10.6
L -13.7 11.6 -13.25 12.15
Q -11.15 14.55 -8.1 14.6 6.3 14.6 6.3 14.55 9.6 14.65 11.95 11.55
L 12.8 10.25 13.25 9.35 14.4 10.15 21.7 14.95 15.5 10.05
Q 14.45 9.1 13.6 8.5
L 13.9 7.5 26.15 9.25
Q 27.65 9.5 28.65 9.6
L 26.8 9.2 16.25 6.9 14.15 6.45 14.25 5.1 28.95 -2.3
Q 19.15 1.7 14.2 3.8
L 14.05 1.95 19.95 -6.35 13.8 1.05
Q 13.3 -1.2 11.9 -2.8
M 10.4 18.5
Q 8.25 15.8 5.1 15.85
L -5.9 16.25
Q -8.95 16.35 -11.15 19.2 -13.25 22.05 -13.1 26 -13 30 -10.7 32.75 -8.45 35.55 -5.35 35.4 5.65 35.05 5.65 35 8.75 35 10.85 32.05 12.95 29.2 12.85 25.15 12.7 21.25 10.4 18.5
M -13.2 27.4
L -13.3 24.85
Q -20.6603515625 20.005078125 -21.15 19.65
L -14 25.4 -26.3 23.6 -14.25 26.25 -26.55 32.5 -13.95 27.2 -19.9 35.45 -13.2 27.4
M 13.75 24.15
Q 19.7 16 19.7 15.95 13 24.05 13 24
L 13.1 26.55
Q 20.9 31.8 20.9 31.75 13.8 26.05 13.8 26 26.1 27.85 26.1 27.8 14 25.2 14 25.15 26.35 18.95 26.35 18.9 13.75 24.2 13.75 24.15
M 14.65 46.25
Q 14.45 46.1 14.4 46
L 14.4 45.6
Q 15.25 45.75 16.55 45.95
L 26.1 47.35 18.55 45.65 16.45 45.15 14.35 44.65
Q 14.3 44.6 14.3 44.5 26.35 38.4 26.35 38.35 14.15 43.55 14.15 43.5 14.15 43.35 14.1 43.2 19.7 35.45 19.7 35.4 13.9 42.45 13.9 42.4 13.3 40.6 12 39.05 9.9 36.75 7.1 36.85
L -3.9 37.55
Q -6.65 37.7 -8.5 40.35 -10.05 42.7 -10.1 45.8
L -10.15 44.4 -18 39.2 -10.85 44.95 -23.2 43.15 -11.1 45.8 -20.2 50.4 -23.45 52.05 -19.15 50.25 -10.8 46.75 -12.65 49.3 -13.65 50.65 -16.8 55 -13.15 50.55 -12 49.2 -10.1 46.95 -10.1 46.55 -9.7 48.9 -9.4 50
Q -8.8 51.45 -7.75 52.6 -5.55 54.95 -2.85 54.75
L 8.15 54.1
Q 10.95 53.9 12.75 51.3 14.1 49.35 14.35 46.9
L 20.95 51.25 14.65 46.25
M 7.6 56.05
L 1.4 56.35
Q -1.8 56.6 -3.9 58.9 -5.75 60.95 -5.9 63.6
L -12.05 59.5 -6.3 64.1 -16.2 62.7 -6.5 64.8 -16.4 69.8 -6.3 65.6 -11.05 72.15 -5.7 65.75
Q -5.25 68.15 -3.35 69.85 -1 72.05 2.2 71.8
L 8.4 71.5
Q 11.65 71.35 13.8 68.95 15.3 67.3 15.65 65.25
L 21.7 69.25 15.95 64.65 25.85 66.05 16.15 63.95 26 58.95 15.9 63.15 20.7 56.6 15.7 62.6
Q 15.35 59.9 13.25 58 10.8 55.9 7.6 56.05
M 10.5 73.4
L 5.15 73.65
Q 2.4 73.8 0.5 76 -1.3 78.25 -1.15 81.2
L -1.05 82.05 -7.95 78.95 -1.55 82.5 -11.55 82.75 -1.65 83.25 -10.55 89.8 -1.25 83.95 -4.9 91.25 -0.65 84 -0.8 83.1
Q -0.25 84.85 1.05 86.2 3.1 88.25 5.9 88.1
L 11.25 87.85
Q 14.05 87.7 15.9 85.45 17.35 83.75 17.6 81.65
L 24.4 84.7 18 81.1 28 80.9 18.1 80.4 27.05 73.85 17.75 79.65 21.4 72.4 17.5 79.05
Q 17.05 76.9 15.35 75.25 13.35 73.25 10.5 73.4
M 17.55 87.45
L 14.9 89.05 8.6 90.05 8.6 90.25 4.95 90.25
Q 2.5 100 8.25 109.2
L 8.45 108.9
Q 10.05 105.15 10.65 101.4 12.4 105.55 15.7 109.25
L 15.8 108.95
Q 16.85 103.2 16.5 97.7 19.75 102.05 25.25 104.85
L 25.3 104.5
Q 23.9 94.75 17.55 87.45 Z"/>
</g>

<g id="lsd_3_0_Layer0_0_FILL">
<path fill="#295454" stroke="none" d="
M 8.05 -92.6
L 6.85 -93.7
Q 4.4 -80.4 7.35 -67.95
L 8.05 -68.65
Q 13 -73.6 13 -80.6 13 -87.65 8.05 -92.6
M -16.2 -92.95
L -16.55 -92.6
Q -21.5 -87.55 -21.5 -80.6 -21.5 -73.6 -16.55 -68.65
L -15.7 -67.85
Q -12.85 -80.65 -16.2 -92.95
M 10.15 -109.05
L 9.8 -109.2 2.7 -96.15
Q -0.3 -97.5 -3.85 -97.5
L -4.6 -97.5
Q -8.55 -97.5 -11.9 -95.95
L -19.2 -109.2 -19.55 -109.15 -13.45 -95.05 -14.65 -94.25
Q -10.65 -81.1 -13.85 -67.1 -19.45 -66.2 -23.75 -61.95 -28.15 -57.5 -29.05 -51.55
L -49.25 -67.95 -30.25 -50.4 -61.55 -62.95 -30.45 -47.75 -67 -37.8 -29.4 -45.75 -46.9 -33.2 -54.45 -27.8 -55.95 -26.75 -54.25 -27.8 -45.75 -33.25 -28.7 -44
Q -27.55 -39.25 -23.8 -35.45
L -21.55 -33.55
Q -16.75 -30 -10.5 -30
L -4.2 -29.95
Q -1.05 -30.1 2.15 -29.95
L 6.4 -30.45
Q 10.3 -31.5 13.7 -34
L 15.45 -35.45
Q 19.15 -39.25 20.35 -44
L 45.1 -34.4 50.45 -32.35 56.45 -30 51.25 -32.35 46.8 -34.45 21.25 -46 67 -45.45 22 -48.65 54.7 -73.5 21.15 -51.65 39.2 -76.5 20.3 -53.75
Q 19.05 -58.4 15.45 -61.95 11.05 -66.45 5.1 -67.2 1.75 -80.7 4.7 -95.25
L 4.25 -95.4 10.15 -109.05
M 26.5 -34.15
L 24.1 -31.2 15.05 -20.45
Q 14.7 -23.45 12.8 -25.55 10.35 -28.85 6.7 -28.8 -5.4 -28.8 -11.45 -28.9 -14.9 -28.8 -17.5 -25.6 -19.5 -22.8 -19.9 -18.9
L -34.7 -28.7 -21.1 -17.8 -44.7 -21.3
Q -29.3 -17.8 -21.55 -16.15
L -44.95 -4.3
Q -28.95 -10.95 -21.05 -14.35
L -29.15 -3.05 -32.35 1.3 -28.6 -3.1
Q -22.6 -10.3 -19.65 -14
L -19.55 -14.65
Q -18.95 -12 -17.45 -10.1 -14.95 -6.85 -11.45 -6.85 0.7 -6.85 6.65 -6.8 10.35 -6.95 12.75 -10.1 14.35 -11.95 14.85 -14.05
L 24.75 -7.55 29.3 -4.5 25.45 -7.6
Q 18.95 -12.9 15.6 -15.5
L 39.05 -12.05
Q 23.75 -15.45 16.1 -17.1
L 39.7 -29.05
Q 23.65 -22.35 15.5 -19
L 24.45 -31.2 26.6 -34.15 27 -34.75 26.5 -34.15
M 11.85 -2.85
Q 9.7 -5.85 6.2 -5.85
L 4.1 -5.85
Q -4.1 -5.9 -8.15 -5.85 -10.4 -5.9 -12.15 -4.45 -13.1 -3.85 -13.85 -2.9 -15.65 -0.35 -16 2.8
L -23.45 -2.15 -16.15 3.7 -16.1 5.25 -30.3 3.2
Q -20.7 5.35 -16 6.3
L -15.7 7.55 -23.85 11.65 -30.7 15.15 -21.75 11.5 -15.3 8.8 -14.85 9.75 -15.5 10.75
Q -17.35 13 -21.8 19.15
L -14.6 10.6 -14.45 10.5
Q -14.4 10.5 -14.45 10.55
L -13.7 11.6
Q -11.45 14.55 -8.15 14.6
L 6.3 14.6
Q 9.6 14.6 11.9 11.6
L 13.3 9.4 21.7 15 13.6 8.5 13.9 7.5 28.65 9.6 16.25 6.9 14.1 6.4 14.3 5.15 28.9 -2.35
Q 19.2 1.75 14.2 3.8
L 14.05 1.95 19.95 -6.35 13.8 1.05
Q 13.3 -1.2 11.85 -2.85
M 10.35 18.5
Q 8.25 15.8 5.1 15.9
L -5.9 16.25
Q -8.95 16.35 -11.2 19.15 -13.3 22 -13.15 26
L -12.95 28
Q -12.5 30.7 -10.7 32.75 -8.5 35.55 -5.35 35.4 5.65 35.05 5.65 35 8.75 35 10.85 32.05 12.95 29.2 12.8 25.15
L 12.8 24.85
Q 12.6 21.05 10.35 18.5
M -14.3 26.25
Q -16.65 27.35 -19.25 28.75 -22.75 30.45 -26.55 32.5 -20.9 30 -17.1 28.5 -15.35 27.7 -13.95 27.2 -14.3 27.55 -14.7 28.2 -16.35 30.4 -19.9 35.45 -15.5 30 -13.85 28.1 -13.5 27.6 -13.2 27.4
L -13.35 24.8 -21.2 19.6
Q -14.05 25.35 -14.05 25.4
L -26.3 23.6
Q -14.3 26.2 -14.3 26.25
M 13.7 24.15
L 19.65 15.95
Q 13 24.05 12.95 24 13 24.35 13 24.8
L 13.1 26.55
Q 20.9 31.8 20.9 31.75
L 13.75 26
Q 26.1 27.85 26.1 27.8 14 25.2 13.95 25.15 14.45 24.95 15.2 24.55
L 26.3 18.9
Q 13.75 24.2 13.7 24.15
M 12 39.05
Q 9.9 36.75 7.1 36.85
L -3.9 37.55
Q -6.65 37.7 -8.5 40.35 -10.05 42.7 -10.1 45.8
L -10.15 44.4
Q -17.5103515625 39.555078125 -18 39.2
L -10.85 44.95 -23.2 43.15 -11.1 45.8 -20.2 50.4 -23.45 52.05 -19.15 50.25 -10.8 46.75 -12.65 49.3 -16.8 54.95 -12 49.2 -10.1 46.95 -10.1 46.55 -9.7 48.9
Q -9.15 50.95 -7.75 52.55 -5.55 54.9 -2.85 54.75 8.15 54.1 8.15 54.05 10.95 53.9 12.75 51.25 14.1 49.4 14.35 46.85 20.95 51.25 20.95 51.2 14.4 46 14.4 45.95
L 14.4 45.55
Q 26.1 47.3 26.1 47.25
L 16.45 45.1 14.35 44.65
Q 14.3 44.6 14.3 44.5 26.35 38.4 26.35 38.35 14.15 43.55 14.15 43.5 14.15 43.35 14.1 43.2 19.7 35.45 19.7 35.4 13.9 42.45 13.9 42.4 13.3 40.6 12 39.05
M 7.6 56
Q 1.4 56.35 1.4 56.3 -1.8 56.6 -3.9 58.9 -5.75 60.95 -5.9 63.6
L -12.05 59.5 -6.3 64.1 -16.2 62.7 -6.5 64.8 -10.4 66.8 -16.4 69.85
Q -11.25 67.7 -8.35 66.45
L -6.3 65.6 -6.75 66.2 -11.05 72.2
Q -7.05 67.4 -6 66.1 -5.8 65.9 -5.7 65.75 -5.7 65.95 -5.65 66.05 -5.2 68.3 -3.35 69.9 -1 72.1 2.2 71.8
L 8.4 71.5
Q 11.65 71.35 13.8 68.95 15.3 67.3 15.65 65.25
L 21.7 69.25 15.95 64.65 25.85 66.05 16.15 64 19.9 62.05
Q 22.7 60.65 26 58.95 20.7 61.15 17.8 62.4 16.65 62.85 15.9 63.2 16.05 62.95 16.3 62.6
L 20.7 56.6
Q 15.7 62.65 15.7 62.6 15.35 59.9 13.25 57.95 10.8 55.95 7.6 56
M 10.5 73.4
L 5.15 73.65
Q 2.4 73.8 0.5 76.05 -1.3 78.3 -1.15 81.25
L -1.05 82.1 -7.95 79 -1.55 82.55 -11.55 82.8 -1.65 83.3 -10.55 89.85 -1.25 84 -4.9 91.3 -0.65 84.05 -0.8 83.15
Q -0.25 84.9 1.05 86.25 3.1 88.2 5.9 88.1
L 11.25 87.85
Q 14.05 87.7 15.9 85.45 17.35 83.75 17.6 81.65
L 24.4 84.7 18 81.1 28 80.9 18.1 80.4 27.05 73.85 17.75 79.65 21.4 72.4 17.5 79.05
Q 17.05 76.9 15.35 75.25 13.35 73.25 10.5 73.4
M 17.55 87.45
L 14.9 89.05 8.6 90.05 8.6 90.25 4.95 90.25
Q 2.5 100 8.25 109.2
L 8.45 108.9
Q 10.05 105.15 10.65 101.4 12.4 105.55 15.7 109.25
L 15.8 108.95
Q 16.85 103.2 16.5 97.7 19.75 102.05 25.25 104.85
L 25.3 104.5
Q 23.9 94.75 17.55 87.45 Z"/>
</g>

<path id="S_mbolo_5_0_Layer1_0_1_STROKES" stroke="#00CCCC" stroke-opacity="0.3176470588235294" stroke-width="1" stroke-linejoin="round" stroke-linecap="round" fill="none" d="
M 497.95 421.85
L 1269.65 421.85 1269.65 1021.65 497.95 1021.65 497.95 421.85 Z"/>

<path id="S_mbolo_5_0_Layer1_1_MEMBER_2_MEMBER_0_MEMBER_0_1_STROKES" stroke="#333333" stroke-width="1" stroke-linejoin="round" stroke-linecap="round" fill="none" d="
M 1275.1810607910154 639.8688964843751
Q 1306.075030517578 640.132440185547 1327.7289306640623 662.1589599609376 1349.461572265625 684.2655761718752 1349.198028564453 715.1595458984376 1348.934484863281 746.053515625 1326.828546142578 767.7067382812501 1304.801348876953 789.440057373047 1273.9073791503904 789.1765136718751 1243.013409423828 788.9129699707032 1221.2807678222655 766.8063537597657 1199.626867675781 744.779833984375 1199.890411376953 713.8858642578126 1200.153955078125 682.9918945312502 1222.1811523437498 661.2585754394532 1244.287091064453 639.6053527832032 1275.1810607910154 639.8688964843751 Z"/>

<path id="S_mbolo_5_0_Layer1_1_MEMBER_2_MEMBER_0_MEMBER_1_1_STROKES" stroke="#333333" stroke-width="1" stroke-linejoin="round" stroke-linecap="round" fill="none" d="
M 1361.723455810547 568.9660522460938
Q 1382.038751220703 589.6309326171876 1381.7914672851562 618.6188476562502 1381.5441833496093 647.6067626953127 1360.87998046875 667.8426391601563 1340.2945190429687 688.1586120605471 1311.3066040039062 687.9113281250002 1282.3186889648437 687.6640441894533 1262.0033935546876 666.9991638183594 1241.7668395996093 646.4143798828127 1242.0141235351562 617.4264648437502 1242.261407470703 588.4385498046876 1262.8468688964845 568.1225769042969 1283.5110717773437 547.8867004394532 1312.4989868164062 548.1339843750001 1341.4869018554687 548.381268310547 1361.723455810547 568.9660522460938 Z"/>

<path id="S_mbolo_5_0_Layer1_1_MEMBER_2_MEMBER_1_MEMBER_0_1_STROKES" stroke="#333333" stroke-width="1" stroke-linejoin="round" stroke-linecap="round" fill="none" d="
M 820.9810607910154 690.518896484375
Q 851.8750305175779 690.7824401855469 873.5289306640623 712.8089599609375 895.2615722656249 734.915576171875 894.9980285644529 765.8095458984375 894.7344848632811 796.7035156249999 872.628546142578 818.3567382812499 850.6013488769529 840.0900573730469 819.7073791503904 839.826513671875 788.813409423828 839.5629699707031 767.0807678222654 817.4563537597655 745.4268676757811 795.4298339843749 745.6904113769529 764.5358642578125 745.9539550781249 733.64189453125 767.9811523437497 711.9085754394531 790.087091064453 690.2553527832031 820.9810607910154 690.518896484375 Z"/>

<path id="S_mbolo_5_0_Layer1_1_MEMBER_2_MEMBER_1_MEMBER_1_1_STROKES" stroke="#333333" stroke-width="1" stroke-linejoin="round" stroke-linecap="round" fill="none" d="
M 907.5234558105469 619.6160522460937
Q 927.838751220703 640.2809326171874 927.5914672851561 669.26884765625 927.3441833496092 698.2567626953125 906.67998046875 718.4926391601562 886.0945190429686 738.8086120605469 857.1066040039061 738.561328125 828.1186889648436 738.3140441894532 807.8033935546875 717.6491638183593 787.5668395996092 697.0643798828125 787.8141235351561 668.07646484375 788.061407470703 639.0885498046874 808.6468688964844 618.7725769042968 829.3110717773436 598.536700439453 858.2989868164061 598.7839843749999 887.2869018554686 599.0312683105468 907.5234558105469 619.6160522460937 Z"/>

<path id="lsd_4_0_Layer0_0_1_STROKES" stroke="#295454" stroke-width="4.05" stroke-linejoin="round" stroke-linecap="round" fill="none" d="
M -11.15 19.2
Q -13.25 22.05 -13.1 26 -13 30 -10.7 32.75 -8.45 35.55 -5.35 35.4 5.65 35.05 5.65 35 8.75 35 10.85 32.05 12.95 29.2 12.85 25.15 12.7 21.25 10.4 18.5 8.25 15.8 5.1 15.85
L -5.9 16.25
Q -8.95 16.35 -11.15 19.2 Z"/>

<path id="lsd_3_0_Layer0_0_1_STROKES" stroke="#295454" stroke-width="4.05" stroke-linejoin="round" stroke-linecap="round" fill="none" d="
M -11.2 19.15
Q -13.3 22 -13.15 26
L -12.95 28
Q -12.5 30.7 -10.7 32.75 -8.5 35.55 -5.35 35.4 5.65 35.05 5.65 35 8.75 35 10.85 32.05 12.95 29.2 12.8 25.15
L 12.8 24.85
Q 12.6 21.05 10.35 18.5 8.25 15.8 5.1 15.9
L -5.9 16.25
Q -8.95 16.35 -11.2 19.15 Z"/>
</defs>

<g transform="matrix( 1, 0, 0, 1, -512.35,-442.15) ">
<mask id="Mask_Mask_1">
<g transform="matrix( 1, 0, 0, 1, 498.35,432.35) ">
<use xlink:href="#Mask_S_mbolo_5_0_1_MASK_0_FILL"/>
</g>
</mask>

<g mask="url(#Mask_Mask_1)">
<g transform="matrix( 1, 0, 0, 1, 0,0) ">
<use xlink:href="#S_mbolo_5_0_Layer1_0_FILL"/>

<use xlink:href="#S_mbolo_5_0_Layer1_0_1_STROKES"/>
</g>

<g transform="matrix( 1, 0, 0, 1, 515.95,439.85) ">
<use xlink:href="#S_mbolo_5_0_Layer1_1_MEMBER_0_FILL"/>
</g>

<g transform="matrix( 1, 0, 0, 1, 515.95,439.85) ">
<use xlink:href="#S_mbolo_5_0_Layer1_1_MEMBER_0_MEMBER_0_FILL"/>
</g>

<g transform="matrix( 1, 0, 0, 1, 515.95,439.85) ">
<use xlink:href="#S_mbolo_5_0_Layer1_1_MEMBER_0_MEMBER_1_FILL"/>
</g>

<g transform="matrix( 1.54949951171875, -0.350006103515625, 0.350006103515625, 1.54949951171875, -325.7,1826.5) ">
<use xlink:href="#S_mbolo_5_0_Layer1_1_MEMBER_1_MEMBER_0_FILL"/>
</g>

<g transform="matrix( 1.54949951171875, -0.350006103515625, 0.350006103515625, 1.54949951171875, -329,921.65) ">
<use xlink:href="#S_mbolo_5_0_Layer1_1_MEMBER_1_MEMBER_1_FILL"/>
</g>

<g transform="matrix( 1.58837890625, 0.0135498046875, -0.0135498046875, 1.58837890625, -629.7,1119.15) ">
<use xlink:href="#S_mbolo_5_0_Layer1_1_MEMBER_2_MEMBER_0_MEMBER_0_FILL"/>

<use xlink:href="#S_mbolo_5_0_Layer1_1_MEMBER_2_MEMBER_0_MEMBER_0_1_STROKES" transform="matrix( 0.6295166015625, -0.0053558349609375, 0.0053558349609375, 0.6295166015625, 390.4,-707.85) "/>
</g>

<g transform="matrix( 1.58837890625, 0.0135498046875, -0.0135498046875, 1.58837890625, -629.7,1119.15) ">
<use xlink:href="#S_mbolo_5_0_Layer1_1_MEMBER_2_MEMBER_0_MEMBER_1_FILL"/>

<use xlink:href="#S_mbolo_5_0_Layer1_1_MEMBER_2_MEMBER_0_MEMBER_1_1_STROKES" transform="matrix( 0.6295166015625, -0.0053558349609375, 0.0053558349609375, 0.6295166015625, 390.4,-707.85) "/>
</g>

<g transform="matrix( 1.58837890625, 0.0135498046875, -0.0135498046875, 1.58837890625, -1083.9,1169.8) ">
<use xlink:href="#S_mbolo_5_0_Layer1_1_MEMBER_2_MEMBER_1_MEMBER_0_FILL"/>

<use xlink:href="#S_mbolo_5_0_Layer1_1_MEMBER_2_MEMBER_1_MEMBER_0_1_STROKES" transform="matrix( 0.6295166015625, -0.0053558349609375, 0.0053558349609375, 0.6295166015625, 676.1,-742.2) "/>
</g>

<g transform="matrix( 1.58837890625, 0.0135498046875, -0.0135498046875, 1.58837890625, -1083.9,1169.8) ">
<use xlink:href="#S_mbolo_5_0_Layer1_1_MEMBER_2_MEMBER_1_MEMBER_1_FILL"/>

<use xlink:href="#S_mbolo_5_0_Layer1_1_MEMBER_2_MEMBER_1_MEMBER_1_1_STROKES" transform="matrix( 0.6295166015625, -0.0053558349609375, 0.0053558349609375, 0.6295166015625, 676.1,-742.2) "/>
</g>

<g transform="matrix( 1, 0, 0, 1, 515.95,439.85) ">
<use xlink:href="#S_mbolo_5_0_Layer1_1_MEMBER_2_MEMBER_2_FILL"/>
</g>

<g transform="matrix( 1, 0, 0, 1, 515.95,439.85) ">
<use xlink:href="#S_mbolo_5_0_Layer1_1_MEMBER_2_MEMBER_3_MEMBER_0_FILL"/>
</g>

<g transform="matrix( 1, 0, 0, 1, 515.95,439.85) ">
<use xlink:href="#S_mbolo_5_0_Layer1_1_MEMBER_2_MEMBER_3_MEMBER_1_FILL"/>
</g>

<g transform="matrix( 1.54949951171875, -0.350006103515625, 0.350006103515625, 1.54949951171875, 585,1358.8) ">
<use xlink:href="#S_mbolo_5_0_Layer1_1_MEMBER_3_FILL"/>
</g>

<g transform="matrix( 1, 0, 0, 1, 515.95,439.85) ">
<use xlink:href="#S_mbolo_5_0_Layer1_1_MEMBER_4_FILL"/>
</g>

<g transform="matrix( 1.54949951171875, -0.350006103515625, 0.350006103515625, 1.54949951171875, 424.15,-66.8) ">
<use xlink:href="#S_mbolo_5_0_Layer1_1_MEMBER_5_MEMBER_0_MEMBER_0_FILL"/>
</g>

<g transform="matrix( 1.54949951171875, -0.350006103515625, 0.350006103515625, 1.54949951171875, 424.15,-66.8) ">
<use xlink:href="#S_mbolo_5_0_Layer1_1_MEMBER_5_MEMBER_0_MEMBER_1_FILL"/>
</g>

<g transform="matrix( 1.54949951171875, -0.350006103515625, 0.350006103515625, 1.54949951171875, 637.2,-114.8) ">
<use xlink:href="#S_mbolo_5_0_Layer1_1_MEMBER_5_MEMBER_1_MEMBER_0_FILL"/>
</g>

<g transform="matrix( 1.54949951171875, -0.350006103515625, 0.350006103515625, 1.54949951171875, 637.2,-114.8) ">
<use xlink:href="#S_mbolo_5_0_Layer1_1_MEMBER_5_MEMBER_1_MEMBER_1_FILL"/>
</g>

<g transform="matrix( 1, 0, 0, 1, 515.95,439.85) ">
<use xlink:href="#S_mbolo_5_0_Layer1_1_MEMBER_6_FILL"/>
</g>

<g transform="matrix( 1, 0, 0, 1, 515.95,439.85) ">
<use xlink:href="#S_mbolo_5_0_Layer1_1_MEMBER_7_FILL"/>
</g>

<g transform="matrix( 1, 0, 0, 1, 515.95,439.85) ">
<use xlink:href="#S_mbolo_5_0_Layer1_1_MEMBER_8_FILL"/>
</g>

<g transform="matrix( 4.8743743896484375, -3.6019287109375, 3.6019287109375, 4.8743743896484375, 622.8,417.1) ">
<g transform="matrix( 1, 0, 0, 1, 0,0) ">
<use xlink:href="#Interpolar_2_0_Layer0_0_FILL"/>
</g>
</g>

<g transform="matrix( 0.4109039306640625, 0, 0, 0.4212646484375, 472.55,485.35) ">
<use xlink:href="#S_mbolo_5_0_Layer1_2_MEMBER_1_FILL"/>
</g>

<g transform="matrix( 0.26104736328125, 0, 0, 0.368377685546875, 532.65,616.7) ">
<use xlink:href="#S_mbolo_5_0_Layer1_2_MEMBER_2_FILL"/>
</g>

<g transform="matrix( 0.2251129150390625, 0, 0, 0.2251129150390625, 482.35,633.3) ">
<g transform="matrix( 1, 0, 0, 1, 0,0) ">
<use xlink:href="#larvas_0_Layer2_0_FILL"/>
</g>

<g transform="matrix( 0.800994873046875, 0, 0, 0.800994873046875, 973.3,173.6) ">
<g transform="matrix( 1, 0, 0, 1, -278.9,-60.3) ">
<g transform="matrix( 1, 0, 0, 1, 67.05,109.2) ">
<g transform="matrix( 1, 0, 0, 1, 0,0) ">
<use filter="url(#Filter_1)" xlink:href="#lsd_4_0_Layer0_0_FILL"/>

<use filter="url(#Filter_1)" xlink:href="#lsd_4_0_Layer0_0_1_STROKES"/>
</g>
</g>
</g>
</g>

<g transform="matrix( 0.9659271240234375, 0.2588043212890625, -0.2588043212890625, 0.9659271240234375, 1017.1,211.1) ">
<g transform="matrix( 1, 0, 0, 1, 67,109.2) ">
<g transform="matrix( 1, 0, 0, 1, 0,0) ">
<use xlink:href="#lsd_3_0_Layer0_0_FILL"/>

<use xlink:href="#lsd_3_0_Layer0_0_1_STROKES"/>
</g>
</g>
</g>
</g>
</g>
</g>
</svg>
