<?xml version="1.0" encoding="utf-8"?>
<!-- Generator: Adobe Illustrator 16.0.0, SVG Export Plug-In . SVG Version: 6.00 Build 0)  -->
<!DOCTYPE svg PUBLIC "-//W3C//DTD SVG 1.1//EN" "http://www.w3.org/Graphics/SVG/1.1/DTD/svg11.dtd">
<svg version="1.1" id="Camada_1" xmlns="http://www.w3.org/2000/svg" xmlns:xlink="http://www.w3.org/1999/xlink" x="0px" y="0px"
	 width="66px" height="66px" viewBox="0 0 66 66" enable-background="new 0 0 66 66" xml:space="preserve">
<g transform="matrix( 0.4546051025390625, 0, 0, 0.4546051025390625, 33,33) ">
	<g transform="matrix( 1, 0, 0, 1, 0,0) ">
		<g>
			<g id="Tween_1_0_Layer0_0_FILL">
				<path fill="#BD0000" d="M34.349-55.7C24.216-62.1,12.766-65.3,0-65.3c-18.034,0-33.433,6.366-46.2,19.099
					C-58.934-33.433-65.3-18.034-65.3,0c0,16.932,5.616,31.535,16.85,43.801c0.733,0.799,1.483,1.581,2.249,2.35
					C-33.433,58.915-18.034,65.3,0,65.3c18.034,0,33.417-6.384,46.151-19.149C58.915,33.417,65.3,18.034,65.3,0
					c0-17.1-5.733-31.816-17.198-44.15c-0.269-0.3-0.535-0.6-0.801-0.9c-0.402-0.4-0.784-0.783-1.149-1.15
					c-0.434-0.433-0.851-0.85-1.25-1.249C41.532-50.65,38.018-53.4,34.349-55.7 M25.05-48.15c0.668,0.366,1.351,0.75,2.052,1.149
					L-41.2,35.101c-0.434-0.501-0.851-1.001-1.25-1.499c-0.033,0-0.05-0.017-0.05-0.052c-7.9-9.632-11.85-20.899-11.85-33.8
					c0-14.933,5.267-27.683,15.801-38.25C-27.983-49.034-15.234-54.3-0.3-54.3C9.001-54.3,17.449-52.25,25.05-48.15 M40.8-35.35
					c8.599,9.9,12.9,21.6,12.9,35.1c0,14.901-5.284,27.618-15.849,38.15C27.316,48.467,14.599,53.751-0.3,53.751
					c-10.034,0-19.067-2.367-27.1-7.102c-0.367-0.232-0.716-0.449-1.05-0.649L39.999-36.25C40.267-35.984,40.534-35.683,40.8-35.35z
					"/>
			</g>
		</g>
	</g>
</g>
</svg>
