<svg xmlns="http://www.w3.org/2000/svg" width="66" height="66" viewBox="0 0 66 66"><path fill="#BD0000" d="M48.615 7.678C44.01 4.768 38.803 3.314 33 3.314c-8.198 0-15.2 2.894-21.003 8.683C6.207 17.8 3.314 24.802 3.314 33c0 7.697 2.553 14.336 7.66 19.912.334.363.675.72 1.023 1.068C17.8 59.783 24.802 62.686 33 62.686s15.192-2.902 20.98-8.706c5.803-5.788 8.706-12.782 8.706-20.98 0-7.774-2.607-14.464-7.82-20.07l-.363-.41-.522-.523-.567-.568a30.484 30.484 0 0 0-4.798-3.752m-4.227 3.433c.304.167.614.342.933.523L14.27 48.957a23.13 23.13 0 0 1-.568-.68c-.015 0-.023-.01-.023-.025-3.592-4.38-5.388-9.5-5.388-15.366 0-6.788 2.395-12.584 7.183-17.388 4.804-4.79 10.6-7.183 17.39-7.183 4.227 0 8.067.932 11.523 2.796m7.16 5.82c3.91 4.5 5.864 9.82 5.864 15.956 0 6.774-2.402 12.556-7.205 17.344-4.79 4.803-10.57 7.205-17.343 7.205-4.562 0-8.668-1.076-12.32-3.228a23.378 23.378 0 0 0-.478-.295l31.118-37.39c.122.12.243.256.364.408z"/></svg>