
<svg xmlns="http://www.w3.org/2000/svg" version="1.1" xmlns:xlink="http://www.w3.org/1999/xlink" preserveAspectRatio="none" x="0px" y="0px" width="50px" height="50px" viewBox="0 0 50 50">
<defs>
<g id="MovieClip_mc_02_0_Layer1_0_MEMBER_0_MEMBER_0_FILL">
<path fill="#DDDCDC" stroke="none" d="
M 15 -16.05
L 15 -16.1 14.95 -16.3 14.55 -16.45 -4.45 -16.45 -3.2 -16.1 -2.8 -15.9 -2.5 -15.65 -2.3 -15.35 -2.25 -15.2 -2.25 -13.8 -2.3 -13.65 -2.5 -13.25 -2.8 -13 -3.2 -12.8 -3.75 -12.6 -4.05 -12.55 -4.15 -12.55 -4.2 -12.5 -4.3 -12.45 -4.9 -12.35 -6.25 -12.35 -7.45 -12.6 -8.35 -13 -8.65 -13.25 -8.85 -13.65 -8.85 -15.1 -8.8 -15.4 -8.65 -15.65 -8.35 -15.9 -7.95 -16.1 -6.65 -16.45 -8.65 -16.45 -9.2 -16.3 -9.45 -16.2 -10.05 -15.7 -13.6 -11.8 -13.85 -11.6 -14 -11.4 -13.85 -11.25 -13.6 -11.1 9.25 -11.05 10.25 -11.2 10.3 -11.2 10.5 -11.35 10.8 -11.45 11 -11.6 14.95 -15.95 15 -16.05
M 3.4 -14.45
L 3.7 -14.25 4.1 -14.05 5.15 -13.7 5.75 -13.6 7.1 -13.6 7.4 -13.65 7.45 -13.7 7.7 -13.7 7.85 -13.75 7.9 -13.8 7.95 -13.8 8.25 -13.85 8.8 -14.05 9 -14.15 9.45 -14.45 9.65 -14.7 9.75 -14.9 9.8 -15.05 9.8 -13.8 9.75 -13.65 9.65 -13.55 9.5 -13.25 9.35 -13.15 9.2 -13 8.8 -12.8 8.5 -12.75 8.4 -12.75 8.35 -12.7 8.25 -12.65 7.95 -12.6 7.9 -12.6 7.85 -12.55 7.7 -12.5 7.4 -12.5 7.1 -12.4 5.75 -12.4 4.1 -12.8 3.8 -12.95 3.65 -13.05 3.5 -13.2 3.35 -13.3 3.2 -13.6 3.15 -13.75 3.15 -15 3.2 -14.7 3.4 -14.45 Z"/>
</g>

<g id="MovieClip_mc_02_0_Layer1_0_MEMBER_0_MEMBER_1_FILL">
<path fill="#999999" stroke="none" d="
M 3.2 -14.7
L 3.15 -15 3.15 -13.75 3.2 -13.6 3.35 -13.3 3.5 -13.2 3.65 -13.05 3.8 -12.95 4.1 -12.8 5.15 -12.5 5.75 -12.4 7.1 -12.4 7.4 -12.5 7.7 -12.5 7.85 -12.55 7.9 -12.6 7.95 -12.6 8.25 -12.65 8.35 -12.7 8.4 -12.75 8.5 -12.75 8.8 -12.8 9.2 -13 9.35 -13.15 9.5 -13.25 9.65 -13.55 9.75 -13.65 9.8 -13.8 9.8 -15.05 9.75 -14.9 9.65 -14.7 9.45 -14.45 9 -14.15 8.8 -14.05 8.25 -13.85 7.95 -13.8 7.9 -13.8 7.85 -13.75 7.7 -13.7 7.45 -13.7 7.4 -13.65 7.1 -13.6 5.75 -13.6 5.15 -13.7 4.1 -14.05 3.7 -14.25 3.4 -14.45 3.2 -14.7 Z"/>
</g>

<g id="MovieClip_mc_02_0_Layer1_0_MEMBER_0_MEMBER_2_FILL">
<path fill="#151515" stroke="none" d="
M 15 -16.05
L 14.95 -15.95 11 -11.6 10.8 -11.45 10.5 -11.35 10.3 -11.2 10.3 -2.7 11.2 -3.3 15 -7.8 15 -16.05 Z"/>
</g>

<g id="MovieClip_mc_02_0_Layer1_0_MEMBER_0_MEMBER_3_FILL">
<path fill="#2F2F2F" stroke="none" d="
M 10.25 -11.2
L 9.25 -11.05 -13.6 -11.1 -13.85 -11.25 -14 -11.4 -13.8 -2.5 9.25 -2.5 10.3 -2.7 10.3 -11.2 10.25 -11.2 Z"/>
</g>

<g id="MovieClip_mc_02_0_Layer1_0_MEMBER_0_MEMBER_4_FILL">
<path fill="#D2A902" stroke="none" d="
M 11.2 -3.3
L 10.3 -2.7 10.3 16.4 11.2 15.8 14.75 11.95 15 11.45 15 -7.8 11.2 -3.3 Z"/>
</g>

<g id="MovieClip_mc_02_0_Layer1_0_MEMBER_0_MEMBER_5_FILL">
<path fill="#999999" stroke="none" d="
M -8.35 -15.9
L -8.65 -15.65 -8.8 -15.4 -8.85 -15.1 -8.85 -13.65 -8.65 -13.25 -8.35 -13 -7.45 -12.6 -6.25 -12.35 -4.9 -12.35 -4.3 -12.45 -4.2 -12.5 -4.15 -12.55 -4.05 -12.55 -3.75 -12.6 -3.2 -12.8 -2.8 -13 -2.5 -13.25 -2.3 -13.65 -2.25 -13.8 -2.25 -15.2 -2.3 -15.35 -2.5 -15.65 -2.8 -15.9 -3.2 -16.1 -4.45 -16.45 -6.65 -16.45 -7.95 -16.1 -8.35 -15.9
M -7.95 -14.05
L -8.6 -14.45 -7.95 -14.85 -7.45 -15.05 -6.85 -15.2 -6.25 -15.25 -4.3 -15.2 -3 -14.8 -2.85 -14.65 -2.55 -14.45 -2.65 -14.45 -2.65 -14.4 -2.7 -14.35 -3 -14.15 -3.2 -14.05 -3.75 -13.85 -4.05 -13.8 -4.15 -13.8 -4.2 -13.75 -4.3 -13.7 -4.9 -13.6 -6.25 -13.6 -7.45 -13.85 -7.95 -14.05 Z"/>
</g>

<g id="MovieClip_mc_02_0_Layer1_0_MEMBER_0_MEMBER_6_FILL">
<path fill="#DDDCDC" stroke="none" d="
M -6.25 -15.25
L -6.85 -15.2 -7.45 -15.05 -7.95 -14.85 -8.6 -14.45 -7.95 -14.05 -7.45 -13.85 -6.25 -13.6 -4.9 -13.6 -4.3 -13.7 -4.2 -13.75 -4.15 -13.8 -4.05 -13.8 -3.75 -13.85 -3.2 -14.05 -3 -14.15 -2.7 -14.35 -2.65 -14.4 -2.65 -14.45 -2.55 -14.45 -2.85 -14.65 -3 -14.8 -4.3 -15.2 -6.25 -15.25 Z"/>
</g>

<g id="MovieClip_mc_02_0_Layer1_0_MEMBER_1_MEMBER_0_FILL">
<path fill="#FFCC00" stroke="none" d="
M 10.2 -2.7
L 9.95 -2.6 9.8 -2.6 9.7 -2.55 9.4 -2.5 -13.75 -2.5 -13.8 16.05 -13 16.4 9.15 16.4 10.2 16.25 10.2 -2.7 Z"/>
</g>

<g id="MovieClip_mc_03_0_Layer1_0_MEMBER_0_MEMBER_0_FILL">
<path fill="#CCCCCC" stroke="none" d="
M 3.8 -12.5
L 0.05 -12.8 -3.05 -12.6 -5 -12.2 -6.65 -11.55 -7.05 -11.3 -7.65 -10.75 -7.8 -10.5 -7.9 -10.2 -7.95 -9.9 -7.95 -9.85 -7.9 -9.6 -7.75 -9.2 -7.65 -9.05 -7.05 -8.55 -6.65 -8.3 -5.6 -7.85 -4.4 -7.5 -1.55 -7.05 0.05 -7 0.25 -7.05 1.6 -7.05 3.8 -7.4 3.9 -7.45 4.1 -7.45 4.45 -7.5 5.7 -7.85 6.4 -8.2 6.65 -8.3 7.35 -8.75 7.8 -9.25 7.95 -9.55 7.95 -9.65 8 -9.8 8 -10.05 7.95 -10.3 7.8 -10.6 7.35 -11.1 6.2 -11.8 3.8 -12.5
M 5.95 -10.55
L 6.1 -10.35 6.2 -10.15 6.25 -9.95 6.2 -9.7 6.15 -9.6 6.1 -9.55 6.1 -9.45 5.95 -9.25 5.75 -9.05 5.45 -8.9 5.15 -8.7 4.95 -8.6 4.8 -8.55 4.4 -8.35 3.6 -8.2 3.4 -8.1 2.3 -7.9 -0.2 -7.7 -2.65 -7.9 -4.75 -8.35 -5.6 -8.7 -6.15 -9.05 -6.4 -9.25 -6.55 -9.45 -6.65 -9.85 -6.55 -10.3 -6.4 -10.55 -5.95 -10.9 -5.6 -11.1 -4.25 -11.55 -1.5 -12 1.7 -11.95 4.4 -11.4 5.45 -10.95 5.75 -10.75 5.95 -10.55 Z"/>
</g>

<g id="MovieClip_mc_03_0_Layer1_0_MEMBER_0_MEMBER_1_FILL">
<path fill="#999999" stroke="none" d="
M 6.2 -9.7
L 6.25 -9.95 6.2 -10.15 6.1 -10.35 5.95 -10.55 5.75 -10.75 5.45 -10.95 4.4 -11.4 1.7 -11.95 -1.5 -12 -4.25 -11.55 -5.6 -11.1 -5.95 -10.9 -6.4 -10.55 -6.55 -10.3 -6.65 -9.85 -6.55 -9.45 -6.4 -9.25 -6.15 -9.05 -5.6 -8.7 -4.75 -8.35 -2.65 -7.9 -0.2 -7.7 2.3 -7.9 3.4 -8.1 3.6 -8.2 4.4 -8.35 4.8 -8.55 4.95 -8.6 5.15 -8.7 5.45 -8.9 5.75 -9.05 5.95 -9.25 6.1 -9.45 6.1 -9.55 6.15 -9.6 6.2 -9.7
M 2.1 -10.65
L 2.4 -10.5 2.6 -10.2 2.5 -10.05 2.45 -10 2.45 -9.95 2.4 -9.85 2.25 -9.8 2.1 -9.7 1.8 -9.55 0.95 -9.35 -0.05 -9.25 -1.1 -9.35 -1.95 -9.55 -2.35 -9.7 -2.45 -9.8 -2.55 -9.85 -2.7 -10 -2.75 -10.15 -2.7 -10.35 -2.55 -10.5 -2.35 -10.65 -1.1 -11 0.95 -11 2.1 -10.65 Z"/>
</g>

<g id="MovieClip_mc_03_0_Layer1_0_MEMBER_0_MEMBER_2_FILL">
<path fill="#CCCCCC" stroke="none" d="
M 2.45 -10
L 2.5 -10.05 2.6 -10.2 2.4 -10.5 2.1 -10.65 0.95 -11 -0.6 -11.05 -1.1 -11 -2.35 -10.65 -2.55 -10.5 -2.7 -10.35 -2.75 -10.15 -2.7 -10 -2.55 -9.85 -2.45 -9.8 -2.35 -9.7 -1.1 -9.35 -0.05 -9.25 0.95 -9.35 1.8 -9.55 2.1 -9.7 2.25 -9.8 2.4 -9.85 2.45 -9.95 2.45 -10 Z"/>
</g>

<g id="MovieClip_mc_03_0_Layer1_0_MEMBER_0_MEMBER_3_FILL">
<path fill="#FFCC00" stroke="none" d="
M 7.8 -9.25
L 7.35 -8.75 6.65 -8.3 5.7 -7.85 4.45 -7.5 4.1 -7.45 3.9 -7.45 3.8 -7.4 1.6 -7.05 0.25 -7.05 0.05 -7 -3.05 -7.25 -5.6 -7.85 -6.65 -8.3 -7.05 -8.55 -7.65 -9.05 -7.75 -9.2 -7.9 -9.6 -7.95 -9.85 -7.95 -4.3 -7.9 -4.05 -7.8 -3.75 -7.35 -3.25 -7.05 -3.05 -5.6 -2.35 -3.05 -1.75 0.05 -1.5 0.25 -1.55 1.6 -1.55 3.8 -1.9 3.9 -1.95 4.1 -1.95 4.45 -2 5.7 -2.35 6.65 -2.8 6.8 -2.95 7 -3.05 7.35 -3.3 7.6 -3.6 7.6 -3.65 7.65 -3.65 7.7 -3.7 7.9 -4 7.95 -4.15 8 -4.4 8 -9.8 7.95 -9.65 7.95 -9.55 7.8 -9.25 Z"/>
</g>

<g id="MovieClip_mc_03_0_Layer1_0_MEMBER_0_MEMBER_4_FILL">
<path fill="#000000" stroke="none" d="
M 0.25 -1.55
L 0.05 -1.5 -3.05 -1.75 -5.6 -2.35 -6.6 -2.8 -7.35 -3.25 -7.8 -3.75 -7.9 -4.05 -7.95 -4.3 -7.95 4.25 -5.6 6.15 0.05 7 5.7 6.15 8 4.25 8 -4.4 7.95 -4.15 7.9 -4 7.7 -3.7 7.65 -3.65 7.6 -3.65 7.6 -3.6 7.35 -3.3 7 -3.05 6.8 -2.95 6.65 -2.8 5.7 -2.35 4.45 -2 4.1 -1.95 3.9 -1.95 3.8 -1.9 1.6 -1.55 0.25 -1.55 Z"/>
</g>

<g id="MovieClip_mc_03_0_Layer1_0_MEMBER_0_MEMBER_5_FILL">
<path fill="#000000" stroke="none" d="
M 0.2 -4.05
L 0.2 -4.85 1 -4.85 1 -5.3 0.2 -5.3 0.2 -6.05 -0.25 -6.05 -0.25 -5.3 -1.05 -5.3 -1.05 -4.85 -0.25 -4.85 -0.25 -4.05 0.2 -4.05 Z"/>
</g>

<g id="MovieClip_mc_03_0_Layer1_0_MEMBER_1_MEMBER_0_FILL">
<path fill="#FFCC00" stroke="none" d="
M 7.9 4.05
L 7.35 4.85 6.65 5.3 6.5 5.3 6.35 5.35 6.15 5.5 4.4 6.05 4.05 6.1 3.85 6.15 3.75 6.2 3.4 6.25 3.2 6.25 3.05 6.35 1.6 6.5 1 6.5 0.8 6.55 -3.05 6.35 -5.05 5.9 -6.2 5.5 -7.35 4.85 -7.8 4.3 -7.95 4.05 -7.95 10.4 -7.8 10.65 -7.35 11.1 -7 11.35 -5.65 12 -3.8 12.5 -1.6 12.8 1.6 12.8 3.05 12.6 3.2 12.55 3.4 12.55 3.75 12.5 3.85 12.4 4.05 12.4 4.4 12.35 5.65 12 6.1 11.75 6.5 11.6 7.2 11.2 7.45 11 7.95 10.3 7.95 3.8 7.9 4.05 Z"/>
</g>

<g id="MovieClip_mc_03_0_Layer1_0_MEMBER_2_MEMBER_0_FILL">
<path fill="#000000" stroke="none" d="
M 0.85 11.1
L 0.85 10.35 -0.85 10.35 -0.85 11.1 0.85 11.1 Z"/>
</g>

<g id="MovieClip_mc_05_0_Layer1_0_MEMBER_0_FILL">
<path fill="#F2F2F2" stroke="none" d="
M 9.55 -12.65
L 6.3 -13.35 1.1 -13.7 -6.4 -13.35 -9.6 -12.65 -10.2 -12.45 -11.05 -12 -11.3 -11.8 -11.45 -11.55 -11.5 -11.3 -11.5 -9.85 -11.45 -9.8 -11.4 -9.65 -11.2 -9.5 -10.95 -9.25 -10.5 -9.05 -10.25 -8.9 -8.15 -8.3 -0.05 -7.6 5.35 -7.9 7.2 -8.2 7.4 -8.25 7.65 -8.25 8.1 -8.3 9.4 -8.65 9.75 -8.8 9.8 -8.85 9.9 -8.85 10.9 -9.25 10.95 -9.4 11.1 -9.45 11.3 -9.65 11.4 -9.85 11.5 -10 11.5 -11.25 11.4 -11.55 11.25 -11.75 10.95 -12 10.1 -12.45 9.55 -12.65
M 10.05 -10.05
L 8.1 -9.5 3.3 -8.9 -3.45 -8.9 -7.35 -9.35 -10.15 -10.05 -11.25 -10.65 -10.5 -11.2 -9.25 -11.6 -6.4 -12.15 -1.25 -12.55 5.35 -12.3 9.6 -11.5 10.05 -11.3 10.4 -11.2 10.95 -10.85 11.15 -10.65 10.7 -10.4 10.5 -10.35 10.45 -10.35 10.45 -10.3 10.4 -10.25 10.05 -10.05 Z"/>
</g>

<g id="MovieClip_mc_05_0_Layer1_0_MEMBER_1_FILL">
<path fill="#FFFFFF" stroke="none" d="
M 9.6 -11.5
L 5.35 -12.3 -4.45 -12.35 -7.35 -12 -10.5 -11.2 -11.25 -10.65 -10.15 -10.05 -8.15 -9.5 -3.45 -8.9 2.25 -8.85 7.2 -9.35 7.4 -9.4 8.1 -9.5 10.05 -10.05 10.4 -10.25 10.45 -10.3 10.45 -10.35 10.5 -10.35 10.7 -10.4 11.15 -10.65 10.95 -10.85 10.4 -11.2 10.05 -11.3 9.6 -11.5 Z"/>
</g>

<g id="MovieClip_mc_05_0_Layer1_0_MEMBER_2_FILL">
<path fill="#FFFFFF" stroke="none" d="
M 9.9 -8.85
L 9.8 -8.85 9.75 -8.8 9.4 -8.65 8.1 -8.3 7.65 -8.25 7.4 -8.25 7.2 -8.2 2.25 -7.65 -4.45 -7.8 -8.15 -8.3 -10.25 -8.9 -10.5 -9.05 -10.95 -9.25 -10.1 -2.85 -8.75 -2.45 -2.35 -1.65 1.1 -1.6 7.2 -2.15 7.4 -2.2 8.1 -2.3 10.05 -2.85 10.9 -9.25 9.9 -8.85 Z"/>
</g>

<g id="MovieClip_mc_05_0_Layer1_0_MEMBER_3_FILL">
<path fill="#F2F2F2" stroke="none" d="
M 8.1 -1.15
L 9.9 -1.6 10.05 -2.85 8.1 -2.3 7.2 -2.15 1.1 -1.6 -1.25 -1.6 -7.35 -2.15 -10.1 -2.85 -9.9 -1.6 -8.15 -1.15 -0.05 -0.45 8.1 -1.15 Z"/>
</g>

<g id="MovieClip_mc_05_0_Layer1_0_MEMBER_4_MEMBER_0_FILL">
<path fill="#FFFFFF" stroke="none" d="
M 7.95 12.3
L 7.95 12.25 8 12.15 9.05 3.7 8 3.95 7.55 4 7.3 4 7.1 4.05 0 4.65 -5.4 4.35 -8.05 3.95 -9 3.7 -7.8 12.3 -7.7 12.4 -7.55 12.5 -7.05 12.75 -5.55 13.2 -5 13.25 -4.45 13.4 3.15 13.6 3.8 13.45 4.45 13.4 5.1 13.25 5.7 13.2 7.2 12.75 7.3 12.7 7.45 12.6 7.65 12.5 7.95 12.3 Z"/>
</g>

<g id="MovieClip_mc_05_0_Layer1_0_MEMBER_5_MEMBER_0_FILL">
<path fill="#FFFFFF" stroke="none" d="
M 10 -2.1
L 8.2 -1.6 7.75 -1.55 7.5 -1.55 7.3 -1.45 2.3 -0.9 -2.3 -0.9 -8.2 -1.6 -9.95 -2.1 -9.75 -0.65 -9.05 -0.45 -5.45 0.2 1.2 0.5 1.3 0.45 2.3 0.45 7.3 -0.1 7.5 -0.15 7.75 -0.15 9.9 -0.7 10 -2.1 Z"/>
</g>

<g id="MovieClip_mc_05_0_Layer1_0_MEMBER_5_MEMBER_1_FILL">
<path fill="#F2F2F2" stroke="none" d="
M 7.5 -0.15
L 7.3 -0.1 2.3 0.45 1.3 0.45 1.2 0.5 -5.45 0.2 -9.05 -0.45 -9.75 -0.65 -9.55 0.8 -8.95 0.9 -8.2 1.15 -6.4 1.45 1.2 1.85 1.3 1.8 2.3 1.8 6.4 1.45 7.3 1.3 7.5 1.2 7.75 1.2 8.2 1.15 9.7 0.7 9.9 -0.7 7.75 -0.15 7.5 -0.15 Z"/>
</g>

<g id="MovieClip_mc_05_0_Layer1_0_MEMBER_5_MEMBER_2_FILL">
<path fill="#F2F2F2" stroke="none" d="
M 9.5 2.3
L 8.2 2.65 1.3 3.3 1.2 3.35 0.05 3.4 -8.2 2.65 -8.8 2.45 -9.35 2.35 -8.9 3.95 -2.3 4.7 5.45 4.4 9 3.9 9.5 2.3 Z"/>
</g>

<g id="MovieClip_mc_05_0_Layer1_0_MEMBER_5_MEMBER_3_FILL">
<path fill="#FFFFFF" stroke="none" d="
M 7.5 1.2
L 7.3 1.3 2.3 1.8 1.3 1.8 1.2 1.85 -6.4 1.45 -8.2 1.15 -8.95 0.9 -9.55 0.8 -9.35 2.35 -8.8 2.45 -8.2 2.65 -4.45 3.2 1.2 3.35 1.3 3.3 7.3 2.8 7.5 2.75 8.2 2.65 9.5 2.3 9.7 0.7 8.2 1.15 7.75 1.2 7.5 1.2 Z"/>
</g>

<g id="MovieClip_mc_07_0_Layer1_0_MEMBER_0_MEMBER_0_FILL">
<path fill="#D2A902" stroke="none" d="
M 1.25 -13.45
L 0.25 -13.35 -0.2 -13.2 -1 -12.8 -1.4 -12.5 -2.2 -11.75 -0.65 -10.3 -0.6 -10.3 -0.55 -10.2 -0.45 -10.1 -0.2 -9.9 0.15 -9.45 0.3 -9.3 0.75 -8.75 0.8 -8.7 0.95 -8.4 1.05 -8.3 1.15 -8.1 1.8 -8.05 2.9 -7.85 3.75 -7.55 4.25 -7.25 4.45 -7.05 5.7 -8.85 6.7 -10 7.05 -10.25 6.9 -10.55 6.35 -11.25 4.1 -12.75 2.2 -13.35 1.25 -13.45 Z"/>
</g>

<g id="MovieClip_mc_07_0_Layer1_0_MEMBER_0_MEMBER_1_FILL">
<path fill="#FEDB4E" stroke="none" d="
M 8.5 -10.85
L 8.15 -10.8 7.5 -10.55 6.7 -10 4.3 -6.85 4.2 -6.75 4.15 -6.6 3.9 -6.1 3.3 -5.55 3.05 -5.45 2.85 -5.3 2.4 -5.15 2.3 -5.05 1.65 -4.85 1.5 -4.85 1.45 -4.8 1.3 -4.75 0.05 -4.5 -0.05 -4.5 -0.2 -4.45 -0.85 -4.3 -1.3 -4.65 -4.5 -7.6 -4.85 -7.85 -5.25 -8.25 -5.35 -8.3 -6.1 -8.85 -7.45 -9.45 -8 -9.5 -8.55 -9.45 -9.45 -9.2 -10.35 -8.6 -11.8 -7.15 -12.1 -6.7 -12.45 -6.3 -12.7 -5.9 -12.95 -5.6 -13.1 -5.35 -13.1 -5.3 -12.85 -4.65 -12.05 -3.2 -11.4 -2.4 -11.3 -2.25 -11.1 -2.05 -10.9 -1.95 -10.65 -1.75 -9.45 -1.35 -8.35 -1.2 -5.95 -1.3 -2.75 0 2.25 1.4 5.15 0.8 6 -1.55 5.95 -1.95 5.85 -2.25 5.35 -2.8 4.25 -3.55 4.05 -3.75 4.5 -4.5 5.5 -5.65 5.95 -6.05 6.15 -6.3 6.85 -6.75 7.25 -6.95 7.65 -7 7.9 -7.1 8.25 -7.15 12.45 -6.95 12.5 -7 13 -7 13.2 -7.05 13.6 -7.05 13.75 -7.25 13.85 -7.45 14.15 -8.25 13.8 -9.15 13.5 -9.65 13.1 -10.05 12.65 -10.4 12.4 -10.55 11.85 -10.8 11.55 -10.85 11.25 -10.95 8.85 -10.95 8.5 -10.85 Z"/>
</g>

<g id="MovieClip_mc_07_0_Layer1_0_MEMBER_0_MEMBER_2_FILL">
<path fill="#006633" stroke="none" d="
M 0.3 -9.3
L 0.15 -9.45 -0.2 -9.9 -0.45 -10.1 -0.55 -10.2 -0.6 -10.3 -0.65 -10.3 -4.9 -13.9 -5 -13.7 -5.15 -13.5 -5.25 -13.25 -5.95 -11.95 -4.65 -11.25 -4 -10.75 -2.55 -9.35 -2.45 -9.2 -2.25 -9 -1.95 -8.6 -1.65 -8.3 -1.4 -7.95 -2.05 -7.8 -2.55 -7.6 -2.95 -7.3 -3.2 -6.95 -3.3 -6.75 -3.35 -6.5 -0.85 -4.3 -0.2 -4.45 -0.05 -4.5 0.05 -4.5 1.3 -4.75 1.45 -4.8 1.5 -4.85 1.65 -4.85 2.3 -5.05 2.4 -5.15 2.85 -5.3 3.05 -5.45 3.3 -5.55 3.9 -6.1 4.15 -6.6 4.2 -6.75 4.3 -6.85 4.45 -7.05 4.25 -7.25 3.75 -7.55 2.9 -7.85 1.8 -8.05 1.15 -8.1 1.05 -8.3 0.95 -8.4 0.8 -8.7 0.75 -8.75 0.3 -9.3 Z"/>
</g>

<g id="MovieClip_mc_07_0_Layer1_0_MEMBER_0_MEMBER_3_FILL">
<path fill="#FFCC00" stroke="none" d="
M 8.25 -7.15
L 7.9 -7.1 7.65 -7 7.25 -6.95 6.85 -6.75 6.15 -6.3 5.95 -6.05 5.5 -5.65 4.5 -4.5 4.05 -3.75 4.25 -3.55 5.35 -2.8 5.85 -2.25 5.95 -1.95 6 -1.55 5.15 0.8 2.25 1.4 -2.75 0 -5.95 -1.3 -8.35 -1.2 -9.45 -1.35 -10.65 -1.75 -10.9 -1.95 -11.1 -2.05 -11.3 -2.25 -11.4 -2.4 -12.05 -3.2 -12.5 -3.95 -13.1 -5.3 -13.35 -4.65 -13.45 -4.2 -13.5 -3.2 -13.35 -2 -12.8 -0.25 -11.6 2.3 -9.75 5.25 -8.65 8 -7.75 11.95 -6.2 13.05 -2.75 13.8 0.4 12.6 4.4 12.75 7.15 10.8 9.05 8.2 11.6 6.25 12.4 5.4 13.3 3.7 14.2 1.4 14.5 -1.65 14.15 -8.25 13.85 -7.45 13.75 -7.25 13.6 -7.05 13.2 -7.05 13 -7 12.5 -7 12.45 -6.95 8.25 -7.15 Z"/>
</g>

<g id="MovieClip_mc_07_0_Layer1_0_MEMBER_0_MEMBER_4_FILL">
<path fill="#D2A902" stroke="none" d="
M -2.55 -9.35
L -3.3 -10.15 -4.45 -7.65 -4.5 -7.6 -3.35 -6.5 -3.3 -6.75 -3.2 -6.95 -2.95 -7.3 -2.55 -7.6 -2.05 -7.8 -1.4 -7.95 -1.65 -8.3 -1.95 -8.6 -2.25 -9 -2.45 -9.2 -2.55 -9.35 Z"/>
</g>

<g id="MovieClip_mc_07_0_Layer1_0_MEMBER_1_MEMBER_0_FILL">
<path fill="#EABC04" stroke="none" d="
M 10.7 7.1
L 11.55 5.45 10.75 6.3 9 7.6 8.75 7.85 8.2 8.3 5.95 11.35 4.85 12.4 4.55 12.6 4.2 12.75 3.6 12.9 -0.4 12.75 -0.7 12.8 -0.9 12.8 -1.05 12.9 -1.5 13.1 -1.95 13.4 -2.85 13.8 -3.55 13.95 -4.6 13.9 -6.3 13.55 -6.95 13.2 -8.5 12.1 -7.75 13.75 -6.35 15.95 -5.45 16.95 -4.6 17.55 -4.3 17.7 -3.75 17.9 -3.1 18 -2.6 17.95 -2 17.8 -0.8 17.3 -0.25 16.95 0.75 16.6 1.65 16.65 2.25 16.8 5.05 18.45 6.05 18.2 6.25 18.05 6.35 17.95 6.5 17.9 6.95 17.5 7 17.5 7.15 17.25 7.4 16.95 7.95 15.95 7.95 15.85 8.05 15.75 8.15 15.6 8.3 15.15 8.5 14.75 9.6 10.4 9.7 10.1 9.8 9.6 9.8 9.5 9.85 9.4 10.7 7.1 Z"/>
</g>

<g id="MovieClip_mc_09_0_Layer1_0_MEMBER_0_MEMBER_0_MEMBER_0_MEMBER_0_FILL">
<path fill="#FFFFCC" stroke="none" d="
M 9.55 -10.25
L 7.25 -10.95 4.95 -11.25 1.95 -11.2 -0.9 -10.7 -4.55 -9.2 -9.05 -6.2 -13.2 -2.3 -15.1 0.15 -14.95 15.7 -13.1 15.7 -4.55 15 -4.55 14.95 -5.75 14.75 2.35 13.35 10.6 10.95
Q 12.4833984375 10.31953125 15.25 6 13.8765625 9.091015625 16.15 5.8
L 16.2 5.8 16.5 5.1 16.5 4.9 16.7 4.35 16.85 3.05 15.6 -6.6 12.4 -8.9 9.55 -10.25 Z"/>
</g>

<g id="MovieClip_mc_09_0_Layer1_0_MEMBER_0_MEMBER_1_FILL">
<path fill="#FEFD9A" stroke="none" d="
M 2.05 -11
L 5.05 -11.05 9.7 -10.05 11.95 -9 14.45 -7.45 15.7 -6.45 13.95 -15.6 -8 -13 -15.6 -13.1 -15.6 -13.3 -16 -13.3 -15.05 0.15 -12.05 -3.35 -5.4 -8.55 -0.8 -10.5 2.05 -11 Z"/>
</g>

<g id="MovieClip_mc_09_0_Layer1_0_MEMBER_0_MEMBER_2_FILL">
<path fill="#FBFBFB" stroke="none" d="
M -15.6 -13.3
L -15.6 -13.1 -15.4 -13.3 -15.6 -13.3 Z"/>
</g>

<g id="MovieClip_mc_09_0_Layer1_0_MEMBER_1_MEMBER_0_FILL">
<path fill="#CCCC99" stroke="none" d="
M 16.2 6.1
L 16.2 6.05 15.35 6.25 15.25 6.25 15.25 6.3 14.6 6.2 13.95 6 12.85 5.45 12.55 5.25 12.3 5 12.1 4.85 11.95 4.7 11.7 4.5 11.6 4.35 11.55 4.3 11.5 4.3 11.45 4.25 11.45 4.2 11.35 4.15 11 3.8 10.95 5.45 10.85 5.85 10.8 6.3 10.6 7.05 10.15 8.1 9.55 9.1 9.45 9.15 9.4 9.25 9.05 9.75 7.8 10.85 6.3 11.85 3.4 13.05 -0.2 13.9 -0.5 13.9 -1.2 14.1 -1.7 14.15 -2 14.15 -4.9 14.85 -4.6 14.9 5 13.15 6.25 12.75 6.3 12.7 6.45 12.7 7.75 12.3 12.45 10 14.05 8.55 16.2 6.1 Z"/>
</g>

<g id="Layer0_5_MEMBER_0_FILL">
<path fill="#FF0000" stroke="none" d="
M -1.35 -11.8
L -2.25 -11.45 -3.1 -10.9 -4.2 -9.75 -4.8 -8.8 -5.3 -7.6 -6.15 -3.9 -6.6 -3.4 -6.2 -3.05 -5.8 -2.6 -5.8 -2.35 -5.85 -2.1 -5.95 -2.1 -5.95 -2.05 -6 -1.9 -6.2 -1.75 -7.3 -2.5 -8.95 -0.35 -10.15 1.75 -10.9 3.65 -11.2 4.85 -11.25 5.4 -11.2 6.5 -10.95 7.5 -9.95 9.25 -8.8 9.25 -7.7 9.05 -6.9 8.7 -6.75 8.65 -5.4 7.8 -5 7.4 -4.85 7.15 -4.25 6.5 -3.3 4.85 -3.25 4.65 -3.2 4.55 -3 4.25 -2.8 3.55 -2.5 2.85 -2.45 2.45 -2.1 1.25 -1.45 -3.45 -1.3 -10.5 -1.35 -10.85 -1.35 -11.8 Z"/>
</g>

<g id="Layer0_5_MEMBER_1_FILL">
<path fill="#8F6401" stroke="none" d="
M -11.95 -5.35
L -11.95 -5.2 -12.15 -4.55 -12.25 -4.4 -12.35 -4.2 -12.5 -4 -12.7 -3.8 -11.95 -3.85 -10.5 -3.7 -9.8 -3.5 -9.15 -3.4 -7.9 -2.85 -6.2 -1.75 -6 -1.9 -5.95 -2.05 -5.95 -2.1 -5.85 -2.1 -5.8 -2.35 -5.8 -2.6 -6.2 -3.05 -7.1 -3.8 -8.25 -4.55 -9.55 -5.1 -11 -5.45 -11.7 -5.55 -12.05 -5.55 -12 -5.5 -11.95 -5.35 Z"/>
</g>

<g id="Layer0_5_MEMBER_2_FILL">
<path fill="#CC9900" stroke="none" d="
M -12.05 -5.55
L -12.1 -5.55 -12.1 -5.6 -12.2 -5.55 -12.35 -5.4 -12.55 -5.15 -12.95 -4.35 -12.95 -3.95 -12.9 -3.8 -12.7 -3.8 -12.5 -4 -12.35 -4.2 -12.25 -4.4 -12.15 -4.55 -11.95 -5.2 -11.95 -5.35 -12 -5.5 -12.05 -5.55 Z"/>
</g>

<g id="Layer0_5_MEMBER_3_FILL">
<path fill="#CC0000" stroke="none" d="
M 8.55 -1.55
L 8.5 -4.2 8.05 -6.25 7.25 -8.25 5 -10.15 3.9 -10.85 1.85 -11.75 0.9 -11.95 -0.05 -12 -1.35 -11.8 -1.35 -10.85 -1.3 -10.5 -1.4 -4.5 -2.1 1.25 -2.5 2.85 -2.8 3.55 -3 4.25 -3.2 4.55 -3.25 4.65 -3.3 4.85 -4.25 6.5 -4.85 7.15 -5 7.4 -5.4 7.8 -6.75 8.65 -6.9 8.7 -7.7 9.05 -8.8 9.25 -9.95 9.25 -2.2 11.95 3.85 7.25 6 4.8 7.5 2.3 7.65 1.8 7.75 1.65 8.35 -0.25 8.55 -1.55 Z"/>
</g>

<g id="Layer0_5_MEMBER_4_FILL">
<path fill="#990000" stroke="none" d="
M 8.25 -5.55
L 8.5 -4.2 8.55 -1.55 8.35 -0.25 7.75 1.65 7.65 1.8 7.5 2.3 6 4.8 3.85 7.25 -2.2 11.95 1.45 11.9 11.65 8.35 12.35 5.25 14 2.3 14 1.9 13.95 1.5 13.85 1.15 13.85 1.1 13.8 0.85 13.8 0.65 13.4 -0.35 13.25 -0.6 13.15 -0.9 12.75 -1.55 12.7 -1.65 12.65 -1.7 12.5 -2 10.65 -4.55 7.25 -8.25 8.25 -5.55 Z"/>
</g>

<g id="Layer0_6_MEMBER_0_MEMBER_0_FILL">
<path fill="#53CA02" stroke="none" d="
M 14.2 -18.05
L 13.2 -17.35 12.65 -17.05 12.2 -17.1 12.15 -17.75 11.95 -17.75 11.3 -17.05 10.4 -16.6 10 -16.65 9.95 -17.25 9.8 -17.25 9.65 -17.2 8.85 -16.45 8.65 -16.2 8.45 -16.05 8.35 -15.85 8.05 -15.45 8.05 -15.25 8 -15.05 7.95 -15 7.9 -15 7.9 -14.9 7.85 -14.9 7.8 -14.8 7.75 -14.8 7.75 -14.75 7.3 -14.55 6.4 -13.9 5.7 -13.2 5.25 -12.6 5.05 -12.25 4.85 -12.1 4.55 -11.65 4.4 -11.5 4.3 -11.35 1.25 -7.85 1.05 -7.5 0.8 -7.2 0.65 -6.95 0.45 -6.75 0.35 -6.5 0.85 -6.45 1.65 -6.25 1.9 -6.9 2.65 -8.1 4.3 -9.9 6.5 -11.6 8.75 -12.9 11.45 -13.8 11.55 -13.8 12.15 -13.65 11.85 -13.45 11.4 -13.3 11.4 -13 13.2 -12.6 12.75 -11.5 13 -11.1 14.15 -9.95 15.25 -9.95 15.35 -10.3 15.1 -10.4 17.85 -10.1 17 -9.9 18.75 -9.95 19.4 -10.6 18.45 -11.95 19.65 -12.35 19.8 -12.75 19.45 -13.65 17.85 -14.3 18.05 -14.5 19.85 -14.75 20.65 -15.15 17.85 -16.1 19 -16.25 20 -17.05 18.15 -17.55 16.6 -17.75 16.8 -17.85 16.8 -19.35 14.2 -18.05 Z"/>
</g>

<g id="Layer0_6_MEMBER_0_MEMBER_1_FILL">
<path fill="#339900" stroke="none" d="
M 13.2 -12.6
L 11.4 -13 11.4 -13.3 11.85 -13.45 12.15 -13.65 11.55 -13.8 11.45 -13.8 8.75 -12.9 6.5 -11.6 4.3 -9.9 2.65 -8.1 1.9 -6.9 1.65 -6.25 1.65 -6.2 2 -6.1 3.1 -7.55 6.45 -9.85 10.55 -11.75 10.8 -9.7 11.95 -9.05 12.2 -9.2 12.35 -9.25 16.25 -8.55 16.3 -8.55 15.5 -8.1 14.95 -7.4 17.75 -7.1 17.45 -6.8 17.3 -6.35 18 -5.7 19.8 -5.05 20.05 -5.05 20.2 -5.3 19.8 -6.9 19.1 -8.05 19.7 -8 20.45 -7.3 21.1 -7.1 21.3 -7.1 21.5 -7.2 21.5 -7.8 21.85 -8.6 22.15 -8.9 22.3 -9.2 19.85 -12 18.45 -11.95 19.4 -10.6 18.75 -9.95 17 -9.9 17.85 -10.1 15.1 -10.4 15.35 -10.3 15.25 -9.95 14.15 -9.95 13 -11.1 12.75 -11.5 13.2 -12.6 Z"/>
</g>

<g id="Layer0_6_MEMBER_0_MEMBER_2_FILL">
<path fill="#183C00" stroke="none" d="
M 7.45 -8.6
L 6.65 -8.3 6.45 -8.2 6.1 -8.1 4.8 -7.5 4.45 -7.3 2.75 -6.05 2.55 -5.75 3.05 -5.3 3.25 -5.5 5.45 -7.15 7.85 -8.25 8.75 -8.4 8.5 -8.15 8.2 -7.7 8.1 -7.35 7.9 -7.3 7.05 -7.5 9.25 -5.05 8.65 -5.25 9.65 -3.1 11.3 -2 11.5 -2.65 13.05 -1.35 13.9 0.65 15.65 -0.85 15.95 -1.5 15.45 -1.55 14.25 -2.3 13.75 -2.85 13.15 -2.95 12.6 -3.15 12.35 -4.1 12.8 -4.9 13.5 -5.5 12.5 -5.6 11.55 -6.25 11.35 -6.15 11.2 -6.05 10.35 -6.05 10.35 -6.1 10.2 -6.05 10 -6.05 9.35 -6.25 9.15 -7.05 9.25 -7.85 10.35 -8.15 9.6 -8.3 9.35 -8.5 8.85 -9.15 7.75 -8.75 7.45 -8.6 Z"/>
</g>

<g id="Layer0_6_MEMBER_0_MEMBER_3_FILL">
<path fill="#2D6D01" stroke="none" d="
M 6.65 -8.3
L 7.45 -8.6 7.75 -8.75 8.85 -9.15 9.35 -8.5 9.6 -8.3 10.35 -8.15 9.25 -7.85 9.15 -7.05 9.35 -6.25 10 -6.05 10.2 -6.05 10.35 -6.1 10.35 -6.05 11.2 -6.05 11.35 -6.15 11.55 -6.25 12.5 -5.6 13.5 -5.5 12.8 -4.9 12.35 -4.1 12.6 -3.15 13.15 -2.95 13.75 -2.85 14.25 -2.3 15.45 -1.55 15.95 -1.5 16.5 -2.95 16.8 -2.75 17.75 -2.75 17.75 -3.8 17.4 -4.35 17.2 -4.85 19.1 -4.4 20.05 -5.05 19.8 -5.05 18 -5.7 17.3 -6.35 17.45 -6.8 17.75 -7.1 14.95 -7.4 15.5 -8.1 16.3 -8.55 16.25 -8.55 12.35 -9.25 12.2 -9.2 11.95 -9.05 10.8 -9.7 10.55 -11.75 6.45 -9.85 3.1 -7.55 2 -6.1 2.55 -5.75 2.75 -6.05 4.45 -7.3 4.8 -7.5 6.1 -8.1 6.45 -8.2 6.65 -8.3 Z"/>
</g>

<g id="Layer0_6_MEMBER_1_MEMBER_0_FILL">
<path fill="#FF9900" stroke="none" d="
M 1.7 -6.2
L 1.35 -6.35 1.15 -6.4 0.95 -6.4 -0.75 -6.6 -1.35 -6.6 -2.3 -6.4 -3.1 -6 -4.3 -4.8 -4.55 -4.5 -4.95 -3.9 -5.1 -3.6 -5.2 -3.3 -5.5 -2.65 -5.25 -2.55 -5 -2.4 -4.95 -2.3 -4.8 -2.15 -4.6 -2 -4.4 -1.7 -4.4 -1.5 -5.05 -1.5 -5.1 -1.7 -5.3 -2 -5.4 -2.1 -5.7 -2.25 -5.9 -1.95 -7.35 -0.3 -10.25 3.7 -10.55 3.95 -10.6 4.05 -10.65 4.1 -10.8 4.3 -11.55 5.1 -12.25 6.2 -11.9 6.7 -10.85 6.75 -8.95 6 -8.75 5.85 -8.55 5.75 -8 5.3 -7.75 5.05 -7.4 4.8 -6.25 3.65 -5.65 3.2 1.65 -1.3 2.9 -2.7 3.3 -3.55 3.6 -4.5 3.4 -4.9 3.15 -5.25 2.65 -5.7 2.1 -6.05 1.9 -6.1 1.8 -6.15 1.7 -6.15 1.7 -6.2
M -6.3 1.15
L -6 1.45 -6 1.75 -6.2 1.75 -6.6 1.45 -6.8 1.25 -6.95 1.05 -7.25 0.75 -7 0.8 -6.3 1.15 Z"/>
</g>

<g id="Layer0_6_MEMBER_1_MEMBER_1_FILL">
<path fill="#FF6600" stroke="none" d="
M 3.75 -3.35
L 3.6 -4.5 3.3 -3.55 2.9 -2.7 1.65 -1.3 -5.65 3.2 -6.25 3.65 -7.4 4.8 -7.75 5.05 -8 5.3 -8.55 5.75 -8.75 5.85 -8.95 6 -10.85 6.75 -11.9 6.7 -12.25 6.2 -13.55 8.8 -14.5 10.05 -15.4 10.95 -15.15 11 -15.25 11.15 -15.25 11.25 -15.15 11.3 -14.5 11.75 -14.5 11.95 -14.95 12.05 -15.15 11.8 -15.7 11.35 -15.75 11.3 -16.45 12.5 -16.4 12.65 -14.45 13.25 -11 12.65 -10.5 12.45 -9.45 10.8 -8.5 10.25 -7.7 9.95 -5.35 8 -6.5 7 -5.95 7.3 -5.35 7.85 -5.35 8 -4.85 7.6 -3.05 6.4 -2.45 5.9 -1.15 4.4 -1 4.25 -0.8 4 -0.75 3.9 -0.65 3.9 2.15 1.35 2.45 1 3.2 -0.35 3.4 -1.25 3.5 -1.55 3.75 -2.9 3.75 -3.35
M 0.5 -0.15
L 0.55 -0.05 0.7 0.1 1.4 1 1.65 1.45 1.65 1.55 1.5 1.4 1.4 1.35 1.35 1.35 1.25 1.25 1.25 1.2 1.05 1.05 0.9 0.9 0.9 0.85 0.55 0.5 0.5 0.35 0.5 -0.15
M -11.55 7.95
L -10.7 8.35 -10.25 8.85 -10.25 9 -11.25 8.25 -11.55 7.95 Z"/>
</g>

<g id="Layer0_6_MEMBER_2_MEMBER_0_FILL">
<path fill="#CA5202" stroke="none" d="
M -11.15 12.5
L -12.25 12.7 -12.6 12.85 -13 12.85 -14.15 13.05 -14.25 13.05 -14.35 13.1 -14.45 13.05 -14.7 13.05 -14.95 12.95 -15.15 12.9 -16.3 12.5 -16.4 12.35 -16.65 12.75 -16.85 13.2 -17.65 14.4 -18.05 14.85 -18.55 15.2 -18.65 15.4 -18.8 15.55 -18.85 15.65 -19.25 15.45 -19.5 15.45 -19.65 15.55 -19.95 15.7 -20.55 16.35 -21.9 18.5 -22.25 19.3 -21.1 18 -21.1 17.9 -20.4 17.15 -20.2 17.05 -19.9 16.75 -19.55 16.55 -19.35 16.4 -19.15 16.4 -18.8 17.1 -18.65 17.2 -18.4 17.3 -17.65 17.15 -16.85 16.7 -16.25 16.25 -16.05 16 -15.8 15.8 -15.5 15.4 -15.25 15.15 -14.7 14.85 -14.25 14.75 -14.05 14.6 -13.1 14.3 -11.35 13.45 -11.25 13.3 -11.1 13.2 -10.8 12.95 -10.3 12.35 -10.85 12.5 -11.15 12.5
M -16.25 14.2
L -16.15 14.2 -16.15 14.15 -15.9 14.25 -15.6 14.45 -15.2 14.95 -15.4 15 -15.7 15 -16.1 14.8 -16.3 14.5 -16.35 14.4 -16.35 14.25 -16.25 14.25 -16.25 14.2 Z"/>
</g>

<g id="Layer0_7_MEMBER_0_MEMBER_0_MEMBER_0_FILL">
<path fill="#99CC00" stroke="none" d="
M -101.55 -18.5
L -102 -18.25 -102.6 -17.8 -103 -17.35 -103.1 -17.15 -103.2 -17 -103.2 -16.55 -103 -16.5 -102.75 -16.4 -102.45 -16.2 -102.3 -16.05 -102.2 -15.7 -102.2 -14.95 -101.7 -14.8 -100.9 -14.4 -100.45 -14 -100.15 -13.4 -100.1 -13 -100.05 -12.9 -100.05 -12.45 -100.9 -11 -100.65 -9.8 -101.4 -8.4 -100.95 -7.55 -98.45 -6.55 -96.85 -6.35 -93.65 -10.75 -92.5 -13.05 -92.85 -10.95 -93.55 -9.95 -94.7 -7.85 -96.35 -6.3 -93.2 -5.65 -93.15 -5.65 -92.25 -6 -91 -6.85 -89.65 -8.95 -88.5 -9 -88.4 -9.15 -89.2 -10.95 -88.35 -12.9 -88.35 -13.25 -88.4 -13.5 -88.5 -13.75 -88.6 -13.9 -88.75 -14.05 -88.9 -14.15 -89.05 -14.3 -89.75 -14.65 -89.95 -14.8 -90.05 -14.85 -90.45 -15.25 -90.65 -15.5 -90.8 -15.8 -90.65 -15.95 -90.4 -16.15 -89.95 -16.75 -90.45 -16.85 -90.85 -17.05 -91.05 -17.2 -91.15 -17.3 -91.45 -17.35 -91.55 -17.35 -91.7 -17.3 -91.9 -17.2 -92.1 -17 -92.35 -16.85 -93.35 -15.85 -93.45 -15.8 -93.5 -15.75 -93.6 -15.6 -93.75 -15.45 -93.8 -15.55 -93.55 -15.8 -93.65 -15.95 -93.75 -16.05 -94.3 -17.05 -94.3 -17.25 -94.25 -17.3 -94.05 -17.4 -94 -17.55 -93.9 -17.65 -93.85 -17.8 -93.85 -18.35 -94.1 -19.2 -94.25 -19.5 -95.3 -20.7 -95.45 -20.95 -95.45 -21.2 -95.5 -21.55 -95.55 -21.75 -95.7 -22.05 -95.75 -22.1 -95.75 -22.15 -95.85 -22.2 -96.1 -22.45 -98.45 -23.95 -98.75 -23.6 -98.95 -23.2 -99.2 -22.9 -99.35 -22.55 -99.45 -22.4 -99.75 -21.65 -99.85 -21.2 -99.9 -19.95 -100 -19.8 -100.15 -19.65 -100.3 -19.45 -101.55 -18.5
M -97.2 -17.65
L -97.2 -17.35 -97.15 -16.95 -97.15 -15.75 -97.2 -15.45 -97.25 -15.3 -97.25 -15.1 -97.4 -14.65 -97.9 -13.7 -98.15 -13.4 -98.3 -13.1 -97.9 -14.75 -97.75 -15.15 -97.4 -17 -97.3 -18.8 -97.2 -17.65
M -92.05 -14.15
L -91.8 -14.8 -91.8 -14.45 -92.05 -14.15 Z"/>
</g>

<g id="Layer0_7_MEMBER_0_MEMBER_0_MEMBER_1_FILL">
<path fill="#C5F402" stroke="none" d="
M -97.15 -15.75
L -97.15 -16.95 -97.2 -17.35 -97.2 -17.65 -97.3 -18.8 -97.4 -17 -97.75 -15.15 -97.9 -14.75 -98.3 -13.1 -98.15 -13.4 -97.9 -13.7 -97.4 -14.65 -97.25 -15.1 -97.25 -15.3 -97.2 -15.45 -97.15 -15.75 Z"/>
</g>

<g id="Layer0_7_MEMBER_0_MEMBER_0_MEMBER_2_FILL">
<path fill="#D6FD35" stroke="none" d="
M -101.35 -22.35
L -101.5 -22.45 -101.9 -22.15 -102.25 -21.95 -102.6 -21.85 -102.9 -21.85 -103.2 -21.9 -103.15 -21.8 -102.75 -21.25 -102.55 -21.05 -102.45 -21 -102.35 -20.9 -102.3 -20.9 -102.2 -20.8 -102.2 -19.5 -102.65 -19.5 -102.95 -19.9 -103.05 -20 -103.15 -20.05 -103.35 -20.1 -103.55 -20.05 -103.65 -19.95 -103.8 -19.95 -103.8 -18.35 -103.55 -18.35 -103.5 -18.3 -103.5 -17.65 -103.55 -17.4 -103.65 -17.15 -103.7 -16.85 -103.5 -16.7 -103.2 -16.55 -103.2 -17 -103.1 -17.15 -103 -17.35 -102.6 -17.8 -102 -18.25 -101.55 -18.5 -100.3 -19.45 -100.15 -19.65 -100 -19.8 -99.9 -19.95 -99.85 -21.2 -99.75 -21.65 -99.45 -22.4 -99.45 -22.65 -100.5 -22.65 -100.95 -22.45 -101.05 -22.35 -101.35 -22.35 Z"/>
</g>

<g id="Layer0_7_MEMBER_0_MEMBER_0_MEMBER_3_FILL">
<path fill="#C5F402" stroke="none" d="
M -111.3 -19.9
L -111.3 -20.2 -111.7 -20.2 -111.9 -20.1 -112.1 -19.9 -112.25 -19.65 -112.45 -19.4 -112.55 -19.1 -112.6 -18.85 -112.6 -18.65 -112.4 -18.5 -112 -18.05 -111.8 -17.65 -110.95 -14.65 -110.95 -14.4 -110.9 -14.35 -110.75 -12.9 -110.9 -11.35 -112.45 -12.35 -111.7 -11.15 -110.65 -10.5 -108.7 -8.7 -107.65 -7.45 -107.6 -7.3 -107 -4.55 -106.95 -4.55 -105.9 -4.1 -105.8 -4.1 -104.45 -4.5 -104.95 -4.8 -104.65 -4.8 -104.2 -4.55 -102.3 -5.25 -105.8 -10.2 -108.2 -15.8 -104.1 -8.8 -101.4 -6.3 -101.35 -6.75 -101.65 -7.65 -101.4 -8.4 -100.65 -9.8 -100.9 -11 -100.05 -12.45 -100.05 -12.9 -100.2 -12.9 -100.35 -12.8 -100.75 -13 -100.95 -13.2 -101 -13.35 -101.1 -13.5 -101.1 -13.85 -101.05 -14 -100.95 -14.15 -100.95 -14.35 -101.05 -14.4 -101.2 -14.45 -101.4 -14.45 -101.95 -14.3 -102.05 -14.25 -102.35 -14.3 -102.6 -14.3 -103.15 -14.55 -103.25 -14.65 -103.3 -14.85 -103.3 -15.05 -103.25 -15.15 -103.05 -15.35 -102.9 -15.6 -102.9 -15.7 -102.85 -15.75 -102.85 -15.85 -102.9 -16 -102.9 -16.05 -103.55 -16.05 -104 -15.7 -104.35 -15.3 -104.4 -15.15 -104.5 -15.05 -104.65 -15 -105.1 -15 -105.3 -15.05 -105.5 -15.15 -105.6 -15.25 -105.75 -15.35 -105.85 -15.75 -105.85 -16.25 -105.75 -16.4 -105.35 -16.9 -105.25 -17 -105.15 -17.2 -105.2 -17.45 -105.25 -17.6 -105.35 -17.65 -105.55 -17.65 -106.1 -17.85 -106.5 -18.25 -106.95 -19.1 -107.05 -19.25 -107.15 -19.3 -107.3 -19.45 -107.55 -19.55 -107.75 -19.55 -108.1 -19.5 -108.3 -19.45 -108.4 -19.35 -108.65 -19.05 -108.8 -18.6 -108.9 -18.4 -109 -18.05 -109.05 -17.95 -109.25 -17.75 -109.4 -17.7 -109.5 -17.65 -109.9 -17.7 -110.2 -17.85 -110.45 -18.05 -110.65 -18.35 -111.3 -19.9 Z"/>
</g>

<g id="Layer0_7_MEMBER_0_MEMBER_0_MEMBER_4_FILL">
<path fill="#E6FE81" stroke="none" d="
M -105.4 -18.6
L -105.55 -18.75 -106.9 -19.75 -107.55 -20 -107.75 -20.1 -107.9 -20.1 -108.1 -20.05 -108.2 -20 -108.5 -19.9 -108.65 -19.75 -108.8 -19.65 -108.95 -19.5 -109.35 -19.25 -109.55 -19.05 -109.75 -18.95 -109.85 -18.95 -110.15 -19 -110.4 -19.1 -110.6 -19.3 -110.75 -19.55 -110.85 -19.85 -110.95 -20 -111.1 -20.15 -111.3 -20.2 -111.3 -19.9 -111.15 -19.6 -110.65 -18.35 -110.45 -18.05 -110.2 -17.85 -109.9 -17.7 -109.5 -17.65 -109.4 -17.7 -109.25 -17.75 -109.05 -17.95 -109 -18.05 -108.9 -18.4 -108.8 -18.6 -108.65 -19.05 -108.4 -19.35 -108.3 -19.45 -108.1 -19.5 -107.75 -19.55 -107.55 -19.55 -107.3 -19.45 -107.15 -19.3 -107.05 -19.25 -106.95 -19.1 -106.5 -18.25 -106.1 -17.85 -105.55 -17.65 -105.35 -17.65 -105.25 -17.6 -105.2 -17.45 -105.15 -17.2 -105.25 -17 -105.35 -16.9 -105.75 -16.4 -105.85 -16.25 -105.85 -15.75 -105.75 -15.35 -105.6 -15.25 -105.5 -15.15 -105.3 -15.05 -105.1 -15 -104.65 -15 -104.5 -15.05 -104.4 -15.15 -104.35 -15.3 -104 -15.7 -103.55 -16.05 -102.9 -16.05 -102.9 -16 -102.85 -15.85 -102.85 -15.75 -102.9 -15.7 -102.9 -15.6 -103.05 -15.35 -103.25 -15.15 -103.3 -15.05 -103.3 -14.85 -103.25 -14.65 -103.15 -14.55 -102.6 -14.3 -102.35 -14.3 -102.05 -14.25 -101.95 -14.3 -101.4 -14.45 -101.2 -14.45 -101.05 -14.4 -100.95 -14.35 -100.95 -14.15 -101.05 -14 -101.1 -13.85 -101.1 -13.5 -101 -13.35 -100.95 -13.2 -100.75 -13 -100.35 -12.8 -100.2 -12.9 -100.05 -12.9 -100.1 -13 -100.15 -13.4 -100.45 -14 -100.9 -14.4 -101.7 -14.8 -102.2 -14.95 -102.2 -15.7 -102.3 -16.05 -102.45 -16.2 -102.75 -16.4 -103 -16.5 -103.2 -16.55 -103.5 -16.7 -104.1 -17.2 -104.3 -17.45 -104.45 -17.7 -105.1 -18.4 -105.4 -18.6 Z"/>
</g>

<g id="Layer0_7_MEMBER_0_MEMBER_0_MEMBER_5_FILL">
<path fill="#99CC00" stroke="none" d="
M -101.05 -24.9
L -101.1 -24.95 -101.15 -24.95 -101.25 -25 -101.4 -25 -101.65 -25.05 -102.15 -25.05 -102.4 -25 -102.6 -24.9 -102.7 -24.75 -102.8 -24.65 -102.8 -24.45 -102.85 -23.95 -102.9 -23.75 -102.9 -23.55 -102.95 -23.4 -103 -23.3 -103 -23.25 -103.25 -23 -103.45 -22.95 -103.95 -22.95 -104 -23 -104.2 -23 -104.3 -23.05 -104.4 -23.05 -104.6 -23.15 -104.8 -23.2 -104.8 -23.95 -104.75 -23.95 -104.25 -24.1 -104.1 -24.2 -104 -24.25 -104.1 -24.35 -104.2 -24.35 -104.2 -24.4 -104.25 -24.45 -104.35 -24.5 -104.45 -24.5 -104.85 -24.6 -104.95 -24.6 -105.2 -24.1 -105.25 -23.5 -106.1 -23.5 -106.2 -23.6 -106.3 -23.65 -106.4 -23.65 -106.5 -23.75 -106.8 -23.95 -106.9 -24 -106.95 -24.05 -107.75 -24.45 -107.85 -24.45 -107.95 -24.4 -108.1 -24.35 -108.25 -24.2 -108.45 -24.1 -108.7 -23.75 -108.7 -23.45 -107.25 -21.35 -107.35 -21.05 -107.4 -20.8 -108.7 -20.8 -109.2 -21.05 -109.65 -21.05 -109.8 -20.9 -110 -20.45 -109.55 -19.05 -109.35 -19.25 -108.95 -19.5 -108.8 -19.65 -108.65 -19.75 -108.5 -19.9 -108.2 -20 -108.1 -20.05 -107.9 -20.1 -107.75 -20.1 -107.55 -20 -106.9 -19.75 -105.55 -18.75 -105.4 -18.6 -105.1 -18.4 -104.45 -17.7 -104.3 -17.45 -104.1 -17.2 -103.7 -16.85 -103.65 -17.15 -103.55 -17.4 -103.5 -17.65 -103.5 -18.3 -103.55 -18.35 -103.8 -18.35 -103.8 -19.95 -103.65 -19.95 -103.55 -20.05 -103.35 -20.1 -103.15 -20.05 -103.05 -20 -102.95 -19.9 -102.65 -19.5 -102.2 -19.5 -102.2 -20.8 -102.3 -20.9 -102.35 -20.9 -102.45 -21 -102.55 -21.05 -102.75 -21.25 -103.15 -21.8 -103.2 -21.9 -102.9 -21.85 -102.6 -21.85 -102.25 -21.95 -101.9 -22.15 -101.5 -22.45 -101.8 -22.65 -102.15 -22.95 -102.35 -23.2 -101.7 -23.4 -101.05 -23.5 -101.05 -24.9 Z"/>
</g>

<g id="Layer0_7_MEMBER_0_MEMBER_0_MEMBER_6_FILL">
<path fill="#88A901" stroke="none" d="
M -111.05 -14.6
L -111.15 -14.65 -111.3 -14.45 -111.5 -14.35 -111.85 -14.1 -112.25 -14.1 -112.55 -14.2 -112.75 -14.4 -112.95 -14.75 -113 -14.9 -112.9 -15.1 -113.6 -15.1 -113.65 -14.55 -113.95 -13.65 -114.05 -13.2 -114.05 -13 -113.45 -11.5 -113.15 -10.95 -112.9 -10.3 -113.05 -9.85 -112.75 -9.45 -109.95 -7.9 -109.35 -6.75 -108.7 -7.1 -108.35 -7.1 -109.35 -6.6 -109.3 -5.95 -107.8 -3.6 -107.45 -3.4 -107.4 -3.6 -106.95 -4.55 -107 -4.55 -107.6 -7.3 -107.65 -7.45 -108.7 -8.7 -110.65 -10.5 -111.7 -11.15 -112.45 -12.35 -110.9 -11.35 -110.75 -12.9 -110.9 -14.35 -110.95 -14.4 -110.95 -14.5 -111.05 -14.6 Z"/>
</g>

<g id="Layer0_7_MEMBER_0_MEMBER_0_MEMBER_7_FILL">
<path fill="#C5F402" stroke="none" d="
M -102.35 -23.2
L -102.15 -22.95 -101.8 -22.65 -101.5 -22.45 -101.35 -22.7 -101.25 -22.8 -101.1 -23.2 -101.05 -23.5 -101.7 -23.4 -102.35 -23.2 Z"/>
</g>

<g id="Layer0_7_MEMBER_0_MEMBER_0_MEMBER_8_FILL">
<path fill="#E6FE81" stroke="none" d="
M -104.1 -8.8
L -108.2 -15.8 -105.8 -10.2 -102.3 -5.25 -101.9 -5.35 -101.7 -5.65 -101.4 -6.3 -104.1 -8.8 Z"/>
</g>

<g id="Layer0_7_MEMBER_0_MEMBER_1_MEMBER_0_FILL">
<path fill="#C5F402" stroke="none" d="
M -92.55 -12.9
L -92.6 -12.9 -92.6 -12.85 -92.65 -12.65 -94.1 -9.95 -94.45 -9.5 -94.7 -9 -96.7 -6.55 -96.5 -6.55 -96.2 -6.5 -95.45 -7.15 -95.3 -7.35 -95.15 -7.45 -94.7 -7.9 -94.65 -8 -94.55 -8.05 -94.35 -8.25 -94.3 -8.35 -94.2 -8.5 -94.1 -8.75 -94.05 -8.95 -94 -9.05 -93.95 -9.4 -93.65 -9.95 -93.4 -10.15 -93 -10.6 -92.8 -11 -92.7 -11.15 -92.55 -11.95 -92.55 -12.15 -92.5 -12.15 -92.45 -12.3 -92.35 -13.25 -92.55 -12.9 Z"/>
</g>

<g id="Layer0_7_MEMBER_0_MEMBER_1_MEMBER_1_FILL">
<path fill="#88A901" stroke="none" d="
M -97.5 -4.1
L -97.55 -3.95 -97.65 -3.75 -98.6 -1.35 -99.05 -0.55 -98.75 -0.55 -97.4 -1.35 -95.85 -1.85 -94.4 -1 -92.8 -1.95 -92.2 -3 -91.8 -4.3 -91 -4.5 -90.9 -4.55 -90.65 -4.55 -90.7 -4.6 -90.7 -4.85 -90.8 -5.05 -90.85 -5.2 -90.9 -5.3 -91.1 -5.9 -91.1 -6 -90.15 -6.25 -89.1 -6.85 -88.4 -7.4 -88.2 -7.6 -88 -7.9 -87.9 -8.1 -87.95 -8.15 -87.95 -8.35 -88.1 -9 -88.15 -9.1 -88.2 -9.15 -88.2 -9.2 -88.25 -9.35 -88.35 -9.2 -88.75 -9.2 -89 -9.15 -89.5 -9.15 -89.6 -8.65 -89.7 -8.4 -89.85 -8.15 -90.05 -7.9 -90.85 -7.05 -92.1 -6.2 -92.4 -6.1 -92.6 -5.95 -93 -5.85 -93.1 -5.8 -93.25 -5.7 -93.4 -5.65 -93.5 -5.55 -93.65 -5.55 -94.3 -5.35 -96.2 -5 -97.05 -4.7 -97.2 -4.55 -97.45 -4.2 -97.5 -4.1 Z"/>
</g>

<g id="Layer0_7_MEMBER_0_MEMBER_1_MEMBER_2_FILL">
<path fill="#A9D103" stroke="none" d="
M -96.5 -6.55
L -96.7 -6.55 -99.75 -0.95 -99.3 -0.5 -99.05 -0.55 -98.6 -1.35 -97.65 -3.75 -97.55 -3.95 -97.5 -4.1 -97.45 -4.2 -97.2 -4.55 -97.05 -4.7 -96.2 -5 -94.1 -5.4 -93.65 -5.55 -93.5 -5.55 -93.4 -5.65 -93.25 -5.7 -93.1 -5.8 -93 -5.85 -96.3 -6 -96.3 -6.45 -96.2 -6.5 -96.5 -6.55 Z"/>
</g>

<g id="Layer0_7_MEMBER_0_MEMBER_1_MEMBER_3_FILL">
<path fill="#88A901" stroke="none" d="
M -101.4 -8.4
L -101.5 -8.05 -101.5 -7.85 -101.45 -7.65 -101.25 -7.15 -101.25 -7.05 -101.2 -6.95 -101.25 -6.7 -101.25 -6.5 -101.3 -6.45 -101.3 -6.35 -101.4 -6.2 -101.55 -5.85 -101.75 -5.55 -101.95 -5.55 -102.15 -5.45 -102.5 -5.4 -104.05 -4.75 -103.75 -4.6 -103.4 -4.35 -102.7 -3.7 -102.45 -3.75 -102.15 -3.6 -101.8 -3.5 -100.45 -2.95 -100.2 -2.9 -100.2 -2.65 -100.5 -1.85 -100.9 -1.25 -100.85 -1.2 -100.75 -1.2 -100.7 -1.1 -100.5 -1.2 -99.75 -0.95 -96.7 -6.55 -98.05 -6.75 -99.1 -6.75 -99.75 -6.95 -100.35 -7.3 -100.8 -7.7 -101.25 -8.6 -101.4 -8.4 Z"/>
</g>

<g id="Layer0_7_MEMBER_0_MEMBER_1_MEMBER_4_FILL">
<path fill="#C5F402" stroke="none" d="
M -101.8 -3.5
L -102.15 -3.6 -102.45 -3.75 -102.7 -3.7 -102.5 -3.5 -100.9 -1.25 -100.5 -1.85 -100.2 -2.65 -100.2 -2.75 -100.45 -2.95 -101.8 -3.5 Z"/>
</g>

<g id="Layer0_7_MEMBER_0_MEMBER_1_MEMBER_5_FILL">
<path fill="#F1FEBC" stroke="none" d="
M -103.2 -3.5
L -101.4 -0.9 -100.8 -1 -100.7 -1.1 -100.75 -1.2 -100.9 -1.2 -101 -1.15 -100.9 -1.25 -102.5 -3.5 -102.7 -3.7 -103.2 -3.5 Z"/>
</g>

<g id="Layer0_7_MEMBER_0_MEMBER_1_MEMBER_6_FILL">
<path fill="#88A901" stroke="none" d="
M -111.15 -14.65
L -111.35 -14.5 -111.55 -14.4 -111.7 -14.3 -112.25 -14.3 -112.4 -14.35 -112.6 -14.55 -112.8 -14.9 -112.85 -15.1 -112.75 -15.25 -113.45 -15.25 -113.5 -14.75 -113.9 -13.35 -113.9 -13.2 -113.75 -12.45 -113.25 -11.55 -113.2 -11.5 -112.9 -10.95 -112.75 -10.5 -112.8 -10.25 -112.9 -10.05 -112.8 -9.85 -112.45 -9.5 -112.15 -9.3 -111.75 -9.1 -110.8 -8.75 -109.8 -8.1 -109.6 -7.85 -109.3 -7.3 -109.2 -6.95 -108.9 -7.15 -108.55 -7.3 -108.2 -7.3 -108.9 -6.95 -109.05 -6.85 -109.2 -6.8 -109.15 -5.85 -109 -5.2 -108.8 -4.85 -108.35 -4.3 -107.65 -3.8 -107.3 -3.6 -107.25 -3.8 -107.05 -4.3 -106.8 -4.75 -106.85 -4.75 -107.05 -5.25 -107.3 -6.9 -107.4 -7.2 -107.45 -7.45 -107.5 -7.6 -107.5 -7.65 -107.7 -8 -107.95 -8.3 -108.55 -8.85 -109.25 -9.35 -110.25 -10.25 -110.5 -10.7 -110.8 -10.8 -111.1 -10.95 -111.35 -11.15 -112 -11.85 -112.3 -12.55 -112.05 -12.4 -111.8 -12.2 -111.55 -12.1 -111.35 -11.9 -111.15 -11.85 -111 -11.7 -110.9 -11.65 -110.75 -11.5 -110.7 -12.45 -110.6 -12.7 -110.6 -13.05 -110.65 -13.45 -110.7 -13.55 -110.75 -14.55 -110.8 -14.6 -110.8 -14.7 -111 -14.8 -111.15 -14.65 Z"/>
</g>

<g id="Layer0_7_MEMBER_0_MEMBER_1_MEMBER_7_FILL">
<path fill="#99CC00" stroke="none" d="
M -113.3 -9.75
L -113.4 -9.55 -113.45 -9.2 -113.45 -9.05 -113.35 -8.8 -112.95 -8.3 -112.85 -8.15 -112.75 -8.05 -112.5 -7.55 -112.45 -7.4 -112.45 -7.15 -112.5 -7.05 -112.55 -6.85 -112.65 -6.65 -112.7 -6.4 -113.3 -4.25 -113.3 -4.05 -113.25 -3.8 -113.1 -3.5 -112.6 -2.9 -111.15 -2.15 -110.8 -2.25 -110.15 -2.3 -109.3 -1.45 -109.85 0.05 -109.55 0.8 -108.25 0.8 -105.1 0.5 -101.9 -0.5 -101.8 -0.9 -101.4 -0.9 -103.2 -3.5 -103.5 -3.3 -104.6 -2.9 -106.95 -3.4 -108.15 -1.85 -108.15 -2.05 -107.55 -2.9 -107.3 -3.6 -107.65 -3.8 -108.35 -4.3 -108.8 -4.85 -109 -5.2 -109.15 -5.85 -109.2 -6.8 -109.75 -6.5 -110.55 -5.9 -110.3 -6.2 -109.6 -6.75 -109.45 -6.85 -109.2 -6.95 -109.3 -7.3 -109.6 -7.85 -109.8 -8.1 -110.8 -8.75 -111.25 -8.9 -112.15 -9.3 -112.45 -9.5 -112.8 -9.85 -112.9 -10.05 -113.1 -9.85 -113.3 -9.75 Z"/>
</g>

<g id="Layer0_7_MEMBER_0_MEMBER_1_MEMBER_8_FILL">
<path fill="#88A901" stroke="none" d="
M -106.65 -3.75
L -106.95 -3.4 -104.6 -2.9 -103.5 -3.3 -103.2 -3.5 -104.3 -4.7 -104.55 -4.6 -105.65 -4.3 -105.75 -4.3 -106.1 -4.2 -106.65 -3.75 Z"/>
</g>

<g id="Layer0_7_MEMBER_0_MEMBER_2_MEMBER_0_FILL">
<path fill="#88A901" stroke="none" d="
M -96.4 -6.35
L -96.4 -5.9 -93.1 -5.75 -96.3 -6.4 -96.4 -6.35 Z"/>
</g>

<g id="Layer0_7_MEMBER_0_MEMBER_2_MEMBER_1_FILL">
<path fill="#A9D103" stroke="none" d="
M -109.1 -6.8
L -108.4 -7.15 -108.75 -7.15 -109.1 -7 -109.4 -6.8 -109.4 -6.7 -109.1 -6.8 Z"/>
</g>

<g id="Layer0_7_MEMBER_0_MEMBER_2_MEMBER_2_FILL">
<path fill="#C5F402" stroke="none" d="
M -109.4 -6.7
L -109.4 -6.8 -109.65 -6.75 -110.55 -6.1 -111.05 -5.5 -110.4 -6.1 -109.4 -6.7 Z"/>
</g>

<g id="Layer0_7_MEMBER_0_MEMBER_2_MEMBER_3_FILL">
<path fill="#C5F402" stroke="none" d="
M -106.9 -3.35
L -107.3 -3.55 -107.55 -2.85 -107.7 -2.65 -107.8 -2.55 -107.85 -2.4 -108 -2.2 -108.05 -2.2 -108.1 -2.15 -108.15 -2.05 -108.15 -1.85 -108.05 -2.05 -107.9 -2.15 -107.8 -2.35 -107.45 -2.8 -106.9 -3.35 Z"/>
</g>

<g id="Layer0_7_MEMBER_0_MEMBER_2_MEMBER_4_FILL">
<path fill="#A9D103" stroke="none" d="
M -106.6 -4.5
L -106.8 -4.7 -107.05 -4.3 -107.25 -3.8 -107.3 -3.6 -106.9 -3.4 -106.65 -3.75 -106.05 -4.2 -105.7 -4.25 -106.35 -4.35 -106.6 -4.5 Z"/>
</g>

<g id="Layer0_7_MEMBER_0_MEMBER_2_MEMBER_5_FILL">
<path fill="#A9D103" stroke="none" d="
M -103.75 -4.6
L -104.05 -4.75 -104.3 -4.7 -103.2 -3.55 -102.7 -3.75 -103.75 -4.6 Z"/>
</g>

<g id="Layer0_7_MEMBER_1_MEMBER_0_FILL">
<path fill="#C5F402" stroke="none" d="
M -101.5 -1.05
L -101.95 -1.05 -101.95 -0.75 -102 -0.7 -102 1.7 -100.8 1.7 -100.65 1.55 -100.4 1.5 -100.5 1 -100.45 0.5 -100.45 0.3 -100.35 0.1 -100.15 -0.2 -100 -0.35 -99.8 -0.5 -99.6 -0.6 -99.3 -0.65 -99.45 -0.9 -99.7 -1.05 -99.75 -1.1 -100.2 -1.3 -100.55 -1.35 -100.65 -1.35 -100.75 -1.25 -100.85 -1.2 -101.05 -1.2 -101.5 -1.05 Z"/>
</g>

<g id="Layer0_8_MEMBER_0_MEMBER_0_FILL">
<path fill="#FFFFFF" stroke="none" d="
M -186.8 -65
L -190.65 -62.1 -218.65 -57.9 -222.95 -59.5 -222.05 -42.95 -204.35 -56 -185.9 -48.45 -186.8 -65 Z"/>
</g>

<g id="Layer0_8_MEMBER_0_MEMBER_1_FILL">
<path fill="#FFFFFF" stroke="none" d="
M -204.35 -56
L -222.05 -42.95 -185.9 -48.45 -204.35 -56 Z"/>
</g>

<g id="Layer0_8_MEMBER_1_MEMBER_0_FILL">
<path fill="#FFFFFF" stroke="none" d="
M -223.05 -59.7
L -204.15 -52.9 -187 -65.05 -223.05 -59.7 Z"/>
</g>

<g id="Layer0_9_MEMBER_0_MEMBER_0_FILL">
<path fill="#CC0000" stroke="none" d="
M -130.55 -67.1
L -130.6 -66.9 -130.75 -66.75 -130.85 -66.7 -131 -66.6 -131.1 -66.55 -131.2 -66.55 -131.2 -66.5 -131.25 -66.45 -132.05 -66.25 -132.95 -66.15 -134.35 -66.3 -134.7 -66.4 -135 -66.55 -135.15 -66.65 -135.25 -66.7 -135.4 -66.85 -135.4 -67.05 -135.95 -65.4 -135.75 -65.4 -135.6 -64.85 -135.45 -64.75 -135.25 -64.65 -134.95 -64.8 -134.9 -64.85 -134.7 -64.95 -134.55 -64.95 -134.35 -64.75 -134.1 -64.4 -134 -64.35 -133.85 -64.3 -133.4 -64.75 -133.15 -64.8 -133.05 -64.75 -132.85 -64.55 -132.65 -64.25 -132.55 -64.2 -132.35 -64.2 -132.25 -64.3 -132.05 -64.6 -132 -64.8 -131.9 -64.9 -131.75 -65 -131.65 -64.95 -131.5 -64.95 -131.4 -64.8 -131.1 -64.65 -131 -64.7 -131 -64.75 -130.95 -64.8 -130.85 -64.95 -130.85 -65.25 -130.8 -65.4 -130.75 -65.45 -130.5 -65.45 -130.15 -65.4 -130.1 -65.45 -130.05 -65.45 -130 -65.5 -130.55 -67.1 Z"/>
</g>

<g id="Layer0_9_MEMBER_0_MEMBER_1_FILL">
<path fill="#FF0000" stroke="none" d="
M -130.55 -67.1
L -130.8 -67.45 -131.7 -67.85 -132.55 -67.95 -133.95 -67.85 -134.7 -67.65 -135.15 -67.45 -135.3 -67.3 -135.4 -67.15 -135.4 -66.85 -135.25 -66.7 -135.15 -66.65 -135 -66.55 -134.7 -66.4 -134.35 -66.3 -132.95 -66.15 -132.05 -66.25 -131.25 -66.45 -131.2 -66.5 -131.2 -66.55 -131.1 -66.55 -131 -66.6 -130.85 -66.7 -130.75 -66.75 -130.6 -66.9 -130.55 -67.1 Z"/>
</g>

<g id="Layer0_9_MEMBER_0_MEMBER_2_FILL">
<path fill="#FFFFFF" stroke="none" d="
M -130.8 -65.4
L -130.85 -65.25 -130.85 -64.95 -130.95 -64.8 -131 -64.75 -131 -64.7 -131.1 -64.65 -131.4 -64.8 -131.5 -64.95 -131.65 -64.95 -131.75 -65 -131.9 -64.9 -132 -64.8 -132.05 -64.6 -132.25 -64.3 -132.35 -64.2 -132.55 -64.2 -132.65 -64.25 -132.85 -64.55 -133.05 -64.75 -133.15 -64.8 -133.4 -64.75 -133.85 -64.3 -134 -64.35 -134.1 -64.4 -134.35 -64.75 -134.55 -64.95 -134.7 -64.95 -134.9 -64.85 -134.95 -64.8 -135.25 -64.65 -135.45 -64.75 -135.6 -64.85 -135.85 -63.7 -135.85 -63.35 -135.9 -63.35 -135.9 -62.9 -135.7 -62.5 -135.4 -62.1 -134.95 -61.7 -135 -61.5 -134.95 -61.5 -132.9 -61.4 -130.6 -61.65 -130.65 -61.85 -130.4 -62.2 -130.05 -62.55 -130 -62.7 -130 -62.9 -129.95 -62.9 -129.95 -63.2 -130 -63.4 -130 -63.85 -130.5 -65.45 -130.75 -65.45 -130.8 -65.4
M -135.25 -63.45
L -135.15 -63.5 -134.8 -63.25 -134.75 -63.05 -134.65 -63.05 -134.45 -63 -134.2 -63 -133.85 -62.95 -133.3 -62.95 -133.05 -62.9 -131.95 -62.9 -131.9 -62.85 -131.85 -62.85 -131.85 -62.75 -131.75 -62.6 -131.75 -62.35 -131.85 -62.25 -134 -62.15 -135.25 -62.75 -135.4 -62.85 -135.4 -63.2 -135.35 -63.3 -135.35 -63.35 -135.25 -63.45 Z"/>
</g>

<g id="Layer0_9_MEMBER_0_MEMBER_3_FILL">
<path fill="#FFFFFF" stroke="none" d="
M -135.15 -63.5
L -135.25 -63.45 -135.35 -63.35 -135.35 -63.3 -135.4 -63.2 -135.4 -62.85 -135.25 -62.75 -134 -62.15 -131.85 -62.25 -131.75 -62.35 -131.75 -62.6 -131.85 -62.75 -131.85 -62.85 -131.9 -62.85 -131.95 -62.9 -133.05 -62.9 -133.3 -62.95 -133.85 -62.95 -134.2 -63 -134.45 -63 -134.65 -63.05 -134.75 -63.05 -134.8 -63.25 -135.15 -63.5 Z"/>
</g>

<g id="Layer0_9_MEMBER_0_MEMBER_4_FILL">
<path fill="#FFFFFF" stroke="none" d="
M -135 -61.5
L -135.35 -60.25 -135.4 -60.2 -135.4 -60.15 -135.55 -59.35 -136.1 -57.65 -137.2 -55.65 -139.2 -50.45 -139.05 -50.3 -139.3 -50.15 -140 -47.1 -138.95 -44.4 -126.7 -44.4 -126 -46.9 -126.8 -50.85 -128.25 -55.15 -128.45 -55.15 -128.4 -55.5 -128.45 -55.5 -128.45 -55.55 -128.7 -56.1 -128.75 -56.3 -128.85 -56.45 -130.15 -59.7 -130.6 -61.65 -132.9 -61.4 -134.95 -61.5 -135 -61.5
M -135 -55.9
L -135 -55.8 -134.95 -55.65 -134.85 -55.15 -137.35 -48.05 -135.15 -47.65 -130.25 -47.5 -129.9 -46.95 -130.25 -46.3 -133.3 -46 -138.1 -46.85 -138.5 -47.7 -138.55 -48.05 -138.3 -49.6 -137 -53 -137.15 -53.3 -136.8 -53.5 -136.6 -53.95 -136.35 -54.35 -136.2 -54.75 -136 -55.05 -135.85 -55.35 -135.7 -55.55 -135.6 -55.75 -135.4 -55.85 -135.35 -55.95 -135.2 -56 -135.15 -56 -135 -55.9
M -128.55 -46.55
L -129.15 -46.85 -129.3 -47.15 -128.65 -47.75 -127.95 -47.25 -128.55 -46.55 Z"/>
</g>

<g id="Layer0_9_MEMBER_1_MEMBER_0_FILL">
<path fill="#FF0000" stroke="none" d="
M -126.8 -44.25
L -126.9 -44.35 -133.6 -44.1 -138.95 -44.35 -139.05 -44.2 -139.25 -43.65 -139.45 -40.9 -139.4 -40.9 -139.5 -40.45 -139.5 -38.4 -138.65 -37.05 -137.8 -36.35 -137.25 -36.05 -135.85 -35.6 -135.05 -35.45 -132.1 -35.25 -131.8 -35.3 -131.75 -35.35 -131.5 -35.35 -130.9 -35.45 -129.8 -35.85 -128.8 -36.6 -128.15 -37.3 -128.05 -37.45 -127.9 -37.55 -127.55 -38.2 -126.45 -39.8 -126.45 -42.85 -126.6 -43.85 -126.8 -44.25
M -129 -43.35
L -128.85 -43.5 -128.8 -43.6 -128.6 -43.6 -128.85 -43.2 -129 -43.35
M -138 -42.8
L -137.95 -41.85 -138.1 -41.85 -138.1 -42.1 -138.05 -42.3 -138 -42.8 Z"/>
</g>

<g id="Layer0_9_MEMBER_1_MEMBER_1_FILL">
<path fill="#CC0000" stroke="none" d="
M -127.9 -37.55
L -128.05 -37.45 -128.15 -37.3 -128.8 -36.6 -129.8 -35.85 -130.9 -35.45 -131.5 -35.35 -131.75 -35.35 -131.8 -35.3 -132.1 -35.25 -135.05 -35.45 -135.85 -35.6 -137.25 -36.05 -137.8 -36.35 -138.65 -37.05 -139.5 -38.4 -139.4 -36.05 -139.2 -35.05 -139 -34.6 -138.95 -34.3 -138.85 -34.05 -138.8 -33.85 -138.7 -33.7 -137.3 -33.5 -132.6 -33.25 -127.1 -33.9 -126.95 -34.05 -126.9 -34.2 -126.9 -34.25 -126.85 -34.25 -126.7 -34.5 -126.65 -34.7 -126.65 -34.75 -126.6 -34.8 -126.45 -35.95 -126.45 -39.8 -127.55 -38.2 -127.9 -37.55 Z"/>
</g>

<g id="Layer0_9_MEMBER_2_MEMBER_0_FILL">
<path fill="#FFFFFF" stroke="none" d="
M -134.65 -32.55
L -134.45 -32.6 -134.1 -32.8 -133.7 -32.95 -132.3 -33.1 -131.25 -32.85 -130.8 -32.55 -130.6 -32.35 -130.4 -32.2 -130.35 -32.15 -130.2 -31.85 -130.4 -31.3 -130.45 -31.3 -130.65 -31.1 -130.95 -30.95 -131.55 -31.1 -131.7 -31.2 -131.8 -31.4 -132.05 -31.7 -132.3 -31.8 -133.05 -31.8 -134 -31.55 -134.7 -31.05 -134.8 -31.05 -134.85 -31 -134.95 -30.95 -135.2 -30.9 -135.7 -30.9 -135.9 -31 -136.05 -31 -136.25 -31.1 -136.35 -31.2 -136.5 -31.4 -136.55 -31.5 -136.65 -31.5 -136.65 -31.6 -136.7 -31.6 -136.75 -31.7 -138.15 -31.7 -138.45 -31.75 -138.95 -31.75 -139.2 -31.8 -139.4 -31.8 -139.55 -30.45 -139.45 -22.8 -139.35 -22.05 -139.35 -21.75 -139.3 -21.5 -139.3 -21.3 -139.25 -21.15 -139.25 -21.1 -139.2 -21 -139.2 -21.05 -139.1 -21.1 -134.2 -20 -128.3 -20.4 -126.7 -21.2 -126.7 -21.3 -126.65 -21.5 -126.65 -21.75 -126.6 -22.1 -126.75 -31.35 -127.05 -32.85 -127.15 -33.2 -127.3 -34 -134.45 -33.35 -138.95 -33.8 -138.95 -33.65 -139 -33.6 -139.2 -32.75 -139.05 -32.85 -137.9 -33.05 -136.35 -33 -135.8 -32.6 -135.55 -32.35 -135.25 -32.25 -135.25 -32.3 -135.2 -32.3 -135 -32.35 -134.8 -32.45 -134.65 -32.55
M -138.7 -25
L -138.45 -25 -138.3 -24.85 -138.15 -24.65 -137.8 -24.05 -137.65 -23.85 -137.45 -23.7 -137.3 -23.65 -137.05 -23.6 -136.95 -23.65 -136.9 -23.7 -136.55 -24.25 -136.35 -24.4 -136.35 -24.35 -136.3 -24.3 -136.15 -24.25 -136.1 -24.25 -136.05 -24.05 -136.1 -23.9 -136.15 -23.65 -136.3 -23.25 -136.65 -23 -136.85 -22.95 -137.05 -22.95 -137.05 -22.9 -137.4 -22.95 -137.7 -23.1 -138.05 -23.35 -138.35 -23.7 -138.55 -24.1 -138.55 -24.2 -138.7 -24.5 -138.75 -24.7 -138.7 -25
M -129.5 -32.65
L -129.2 -32.95 -128.95 -33 -128.7 -33 -128.5 -32.95 -128.35 -32.65 -128.3 -32.45 -128.35 -32.25 -128.5 -31.95 -128.55 -31.95 -128.55 -31.8 -128.9 -31.7 -129.1 -31.75 -129.2 -31.75 -129.4 -31.95 -129.5 -32.1 -129.5 -32.65
M -127.4 -23.55
L -127.3 -23.45 -127.3 -23.35 -127.25 -23.25 -127.25 -23.2 -127.3 -23.15 -127.3 -23.05 -127.35 -22.9 -127.45 -22.8 -127.55 -22.65 -127.9 -22.5 -128.25 -22.4 -128.5 -22.45 -128.7 -22.45 -129.05 -22.55 -129.3 -22.8 -129.5 -23.1 -129.55 -23.35 -129.65 -23.65 -129.65 -24 -129.6 -24.15 -129.55 -24.2 -129.35 -24.25 -129.35 -24.2 -129.3 -24.05 -129.25 -23.8 -129.05 -23.3 -128.85 -23.2 -128.6 -23.15 -128.5 -23.15 -128.3 -23.1 -128.2 -23.15 -128.15 -23.2 -128.05 -23.2 -127.95 -23.3 -127.85 -23.35 -127.7 -23.55 -127.65 -23.6 -127.6 -23.6 -127.5 -23.55 -127.4 -23.55
M -131.6 -23.6
L -131.55 -23.45 -131.55 -23.3 -131.75 -23 -131.8 -22.9 -132.1 -22.8 -132.2 -22.8 -132.2 -22.75 -132.25 -22.7 -132.4 -22.7 -132.55 -22.65 -132.9 -22.7 -133.2 -22.8 -133.7 -23.35 -134.1 -24.05 -134.1 -24.4 -133.95 -24.5 -133.75 -24.45 -133.7 -24.45 -133.6 -24.35 -133.3 -23.75 -133.1 -23.5 -132.85 -23.4 -132.6 -23.35 -132.45 -23.35 -132.35 -23.4 -132.3 -23.4 -132.2 -23.5 -132.2 -23.55 -132.1 -23.6 -132 -23.75 -131.95 -23.8 -131.7 -23.8 -131.6 -23.6 Z"/>
</g>

<path id="MovieClip_mc_05_0_Layer1_0_MEMBER_0_1_STROKES" stroke="#999999" stroke-width="1" stroke-linejoin="round" stroke-linecap="round" fill="none" d="
M 9.55 -12.65
L 6.3 -13.35 1.1 -13.7 -6.4 -13.35 -9.6 -12.65 -10.2 -12.45 -11.05 -12 -11.3 -11.8 -11.45 -11.55 -11.5 -11.3 -11.5 -9.85 -11.45 -9.8 -11.4 -9.65 -11.2 -9.5 -10.95 -9.25 -10.5 -9.05 -10.25 -8.9 -8.15 -8.3 -0.05 -7.6 5.35 -7.9 7.2 -8.2 7.4 -8.25 7.65 -8.25 8.1 -8.3 9.4 -8.65 9.75 -8.8 9.8 -8.85 9.9 -8.85 10.9 -9.25 10.95 -9.4 11.1 -9.45 11.3 -9.65 11.4 -9.85 11.5 -10 11.5 -11.25 11.4 -11.55 11.25 -11.75 10.95 -12 10.1 -12.45 9.55 -12.65 Z
M 10.05 -11.3
L 10.4 -11.2 10.95 -10.85 11.15 -10.65 10.7 -10.4 10.5 -10.35 10.45 -10.35 10.45 -10.3 10.4 -10.25 10.05 -10.05 8.1 -9.5 3.3 -8.9 -3.45 -8.9 -7.35 -9.35 -10.15 -10.05 -11.25 -10.65 -10.5 -11.2 -9.25 -11.6 -6.4 -12.15 -1.25 -12.55 5.35 -12.3 9.6 -11.5 10.05 -11.3 Z"/>

<path id="MovieClip_mc_05_0_Layer1_0_MEMBER_2_1_STROKES" stroke="#999999" stroke-width="1" stroke-linejoin="round" stroke-linecap="round" fill="none" d="
M -10.95 -9.25
L -10.1 -2.85
M 10.05 -2.85
L 10.9 -9.25"/>

<path id="MovieClip_mc_05_0_Layer1_0_MEMBER_3_1_STROKES" stroke="#999999" stroke-width="1" stroke-linejoin="round" stroke-linecap="round" fill="none" d="
M -9.9 -1.6
L -8.15 -1.15 -0.05 -0.45 8.1 -1.15 9.9 -1.6 10.05 -2.85 8.1 -2.3 7.2 -2.15 1.1 -1.6 -1.25 -1.6 -7.35 -2.15 -10.1 -2.85 -9.9 -1.6 Z"/>

<path id="MovieClip_mc_05_0_Layer1_0_MEMBER_4_MEMBER_0_1_STROKES" stroke="#999999" stroke-width="1" stroke-linejoin="round" stroke-linecap="round" fill="none" d="
M -9 3.7
L -7.8 12.3 -7.7 12.4 -7.55 12.5 -7.05 12.75 -5.55 13.2 -5 13.25 -4.45 13.4 3.15 13.6 3.8 13.45 4.45 13.4 5.1 13.25 5.7 13.2 7.2 12.75 7.3 12.7 7.45 12.6 7.65 12.5 7.95 12.3 7.95 12.25 8 12.15 9.05 3.7"/>

<path id="MovieClip_mc_05_0_Layer1_0_MEMBER_5_MEMBER_0_1_STROKES" stroke="#999999" stroke-width="1" stroke-linejoin="round" stroke-linecap="round" fill="none" d="
M -9.95 -2.1
L -9.75 -0.65
M 9.9 -0.7
L 10 -2.1"/>

<path id="MovieClip_mc_05_0_Layer1_0_MEMBER_5_MEMBER_1_1_STROKES" stroke="#999999" stroke-width="1" stroke-linejoin="round" stroke-linecap="round" fill="none" d="
M 7.5 -0.15
L 7.3 -0.1 2.3 0.45 1.3 0.45 1.2 0.5 -5.45 0.2 -9.05 -0.45 -9.75 -0.65 -9.55 0.8 -8.95 0.9 -8.2 1.15 -6.4 1.45 1.2 1.85 1.3 1.8 2.3 1.8 6.4 1.45 7.3 1.3 7.5 1.2 7.75 1.2 8.2 1.15 9.7 0.7 9.9 -0.7 7.75 -0.15 7.5 -0.15 Z"/>

<path id="MovieClip_mc_05_0_Layer1_0_MEMBER_5_MEMBER_2_1_STROKES" stroke="#999999" stroke-width="1" stroke-linejoin="round" stroke-linecap="round" fill="none" d="
M 9.5 2.3
L 8.2 2.65 1.3 3.3 1.2 3.35 0.05 3.4 -8.2 2.65 -8.8 2.45 -9.35 2.35 -8.9 3.95 -2.3 4.7 5.45 4.4 9 3.9 9.5 2.3 Z"/>

<path id="MovieClip_mc_05_0_Layer1_0_MEMBER_5_MEMBER_3_1_STROKES" stroke="#999999" stroke-width="1" stroke-linejoin="round" stroke-linecap="round" fill="none" d="
M -9.55 0.8
L -9.35 2.35
M 9.5 2.3
L 9.7 0.7"/>

<path id="Layer0_8_MEMBER_0_MEMBER_2_1_STROKES" stroke="#CCCCCC" stroke-width="1" stroke-linejoin="round" stroke-linecap="round" fill="none" d="
M -222.05 -42.95
L -204.35 -56 -185.9 -48.45"/>

<path id="Layer0_8_MEMBER_0_MEMBER_3_1_STROKES" stroke="#CCCCCC" stroke-width="1" stroke-linejoin="round" stroke-linecap="round" fill="none" d="
M -222.95 -59.5
L -222.05 -42.95"/>

<path id="Layer0_8_MEMBER_0_MEMBER_4_1_STROKES" stroke="#CCCCCC" stroke-width="1" stroke-linejoin="round" stroke-linecap="round" fill="none" d="
M -222.05 -42.95
L -185.9 -48.45"/>

<path id="Layer0_8_MEMBER_0_MEMBER_5_1_STROKES" stroke="#CCCCCC" stroke-width="1" stroke-linejoin="round" stroke-linecap="round" fill="none" d="
M -185.9 -48.45
L -186.8 -65"/>

<path id="Layer0_8_MEMBER_1_MEMBER_1_1_STROKES" stroke="#CCCCCC" stroke-width="1" stroke-linejoin="round" stroke-linecap="round" fill="none" d="
M -204.15 -52.9
L -223.05 -59.7 -187 -65.05 -204.15 -52.9 Z"/>

<path id="Layer0_9_MEMBER_0_MEMBER_2_1_STROKES" stroke="#999999" stroke-width="1" stroke-linejoin="round" stroke-linecap="round" fill="none" d="
M -130.8 -65.4
L -130.85 -65.25 -130.85 -64.95 -130.95 -64.8 -131 -64.75 -131 -64.7 -131.1 -64.65 -131.4 -64.8 -131.5 -64.95 -131.65 -64.95 -131.75 -65 -131.9 -64.9 -132 -64.8 -132.05 -64.6 -132.25 -64.3 -132.35 -64.2 -132.55 -64.2 -132.65 -64.25 -132.85 -64.55 -133.05 -64.75 -133.15 -64.8 -133.4 -64.75 -133.85 -64.3 -134 -64.35 -134.1 -64.4 -134.35 -64.75 -134.55 -64.95 -134.7 -64.95 -134.9 -64.85 -134.95 -64.8 -135.25 -64.65 -135.45 -64.75 -135.6 -64.85 -135.85 -63.7 -135.85 -63.35 -135.9 -63.35 -135.9 -62.9 -135.7 -62.5 -135.4 -62.1 -134.95 -61.7 -135 -61.5 -134.95 -61.5 -132.9 -61.4 -130.6 -61.65 -130.65 -61.85 -130.4 -62.2 -130.05 -62.55 -130 -62.7 -130 -62.9 -129.95 -62.9 -129.95 -63.2 -130 -63.4 -130 -63.85 -130.5 -65.45 -130.75 -65.45 -130.8 -65.4 Z
M -131.75 -62.6
L -131.75 -62.35 -131.85 -62.25 -134 -62.15 -135.25 -62.75 -135.4 -62.85 -135.4 -63.2 -135.35 -63.3 -135.35 -63.35 -135.25 -63.45 -135.15 -63.5 -134.8 -63.25 -134.75 -63.05 -134.65 -63.05 -134.45 -63 -134.2 -63 -133.85 -62.95 -133.3 -62.95 -133.05 -62.9 -131.95 -62.9 -131.9 -62.85 -131.85 -62.85 -131.85 -62.75 -131.75 -62.6 Z"/>

<path id="Layer0_9_MEMBER_0_MEMBER_4_1_STROKES" stroke="#999999" stroke-width="1" stroke-linejoin="round" stroke-linecap="round" fill="none" d="
M -130.6 -61.65
L -132.9 -61.4 -134.95 -61.5 -135 -61.5 -135.35 -60.25 -135.4 -60.2 -135.4 -60.15 -135.55 -59.35 -136.1 -57.65 -137.2 -55.65 -139.2 -50.45 -139.05 -50.3 -139.3 -50.15 -140 -47.1 -138.95 -44.4 -126.7 -44.4 -126 -46.9 -126.8 -50.85 -128.25 -55.15 -128.45 -55.15 -128.4 -55.5 -128.45 -55.5 -128.45 -55.55 -128.7 -56.1 -128.75 -56.3 -128.85 -56.45 -130.15 -59.7 -130.6 -61.65 Z
M -129.9 -46.95
L -130.25 -46.3 -133.3 -46 -138.1 -46.85 -138.5 -47.7 -138.55 -48.05 -138.3 -49.6 -137 -53 -137.15 -53.3 -136.8 -53.5 -136.6 -53.95 -136.35 -54.35 -136.2 -54.75 -136 -55.05 -135.85 -55.35 -135.7 -55.55 -135.6 -55.75 -135.4 -55.85 -135.35 -55.95 -135.2 -56 -135.15 -56 -135 -55.9 -135 -55.8 -134.95 -55.65 -134.85 -55.15 -137.35 -48.05 -135.15 -47.65 -130.25 -47.5 -129.9 -46.95 Z
M -128.55 -46.55
L -129.15 -46.85 -129.3 -47.15 -128.65 -47.75 -127.95 -47.25 -128.55 -46.55 Z"/>

<path id="Layer0_9_MEMBER_2_MEMBER_0_1_STROKES" stroke="#999999" stroke-width="1" stroke-linejoin="round" stroke-linecap="round" fill="none" d="
M -130.8 -32.55
L -130.6 -32.35 -130.4 -32.2 -130.35 -32.15 -130.2 -31.85 -130.4 -31.3 -130.45 -31.3 -130.65 -31.1 -130.95 -30.95 -131.55 -31.1 -131.7 -31.2 -131.8 -31.4 -132.05 -31.7 -132.3 -31.8 -133.05 -31.8 -134 -31.55 -134.7 -31.05 -134.8 -31.05 -134.85 -31 -134.95 -30.95 -135.2 -30.9 -135.7 -30.9 -135.9 -31 -136.05 -31 -136.25 -31.1 -136.35 -31.2 -136.5 -31.4 -136.55 -31.5 -136.65 -31.5 -136.65 -31.6 -136.7 -31.6 -136.75 -31.7 -138.15 -31.7 -138.45 -31.75 -138.95 -31.75 -139.2 -31.8 -139.4 -31.8 -139.55 -30.45 -139.45 -22.8 -139.35 -22.05 -139.35 -21.75 -139.3 -21.5 -139.3 -21.3 -139.25 -21.15 -139.25 -21.1 -139.2 -21 -139.2 -21.05 -139.1 -21.1 -134.2 -20 -128.3 -20.4 -126.7 -21.2 -126.7 -21.3 -126.65 -21.5 -126.65 -21.75 -126.6 -22.1 -126.75 -31.35 -127.05 -32.85 -127.15 -33.2 -127.3 -34 -134.45 -33.35 -138.95 -33.8 -138.95 -33.65 -139 -33.6 -139.2 -32.75 -139.05 -32.85 -137.9 -33.05 -136.35 -33 -135.8 -32.6 -135.55 -32.35 -135.25 -32.25 -135.25 -32.3 -135.2 -32.3 -135 -32.35 -134.8 -32.45 -134.65 -32.55 -134.45 -32.6 -134.1 -32.8 -133.7 -32.95 -132.3 -33.1 -131.25 -32.85 -130.8 -32.55 Z
M -138.15 -24.65
L -137.8 -24.05 -137.65 -23.85 -137.45 -23.7 -137.3 -23.65 -137.05 -23.6 -136.95 -23.65 -136.9 -23.7 -136.55 -24.25 -136.35 -24.4 -136.35 -24.35 -136.3 -24.3 -136.15 -24.25 -136.1 -24.25 -136.05 -24.05 -136.1 -23.9 -136.15 -23.65 -136.3 -23.25 -136.65 -23 -136.85 -22.95 -137.05 -22.95 -137.05 -22.9 -137.4 -22.95 -137.7 -23.1 -138.05 -23.35 -138.35 -23.7 -138.55 -24.1 -138.55 -24.2 -138.7 -24.5 -138.75 -24.7 -138.7 -25 -138.45 -25 -138.3 -24.85 -138.15 -24.65 Z
M -129.5 -32.1
L -129.5 -32.65 -129.2 -32.95 -128.95 -33 -128.7 -33 -128.5 -32.95 -128.35 -32.65 -128.3 -32.45 -128.35 -32.25 -128.5 -31.95 -128.55 -31.95 -128.55 -31.8 -128.9 -31.7 -129.1 -31.75 -129.2 -31.75 -129.4 -31.95 -129.5 -32.1 Z
M -129.3 -24.05
L -129.25 -23.8 -129.05 -23.3 -128.85 -23.2 -128.6 -23.15 -128.5 -23.15 -128.3 -23.1 -128.2 -23.15 -128.15 -23.2 -128.05 -23.2 -127.95 -23.3 -127.85 -23.35 -127.7 -23.55 -127.65 -23.6 -127.6 -23.6 -127.5 -23.55 -127.4 -23.55 -127.3 -23.45 -127.3 -23.35 -127.25 -23.25 -127.25 -23.2 -127.3 -23.15 -127.3 -23.05 -127.35 -22.9 -127.45 -22.8 -127.55 -22.65 -127.9 -22.5 -128.25 -22.4 -128.5 -22.45 -128.7 -22.45 -129.05 -22.55 -129.3 -22.8 -129.5 -23.1 -129.55 -23.35 -129.65 -23.65 -129.65 -24 -129.6 -24.15 -129.55 -24.2 -129.35 -24.25 -129.35 -24.2 -129.3 -24.05 Z
M -131.95 -23.8
L -131.7 -23.8 -131.6 -23.6 -131.55 -23.45 -131.55 -23.3 -131.75 -23 -131.8 -22.9 -132.1 -22.8 -132.2 -22.8 -132.2 -22.75 -132.25 -22.7 -132.4 -22.7 -132.55 -22.65 -132.9 -22.7 -133.2 -22.8 -133.7 -23.35 -134.1 -24.05 -134.1 -24.4 -133.95 -24.5 -133.75 -24.45 -133.7 -24.45 -133.6 -24.35 -133.3 -23.75 -133.1 -23.5 -132.85 -23.4 -132.6 -23.35 -132.45 -23.35 -132.35 -23.4 -132.3 -23.4 -132.2 -23.5 -132.2 -23.55 -132.1 -23.6 -132 -23.75 -131.95 -23.8 Z"/>
</defs>

<g id="mc_0102" transform="matrix( 1, 0, 0, 1, 195.9,282.7) ">
<g id="botao" transform="matrix( 1.56280517578125, 0, 0, 1.565521240234375, 0,0) "/>

<g transform="matrix( 1, 0, 0, 1, 0,0) ">
<use xlink:href="#MovieClip_mc_02_0_Layer1_0_MEMBER_0_MEMBER_0_FILL"/>
</g>

<g transform="matrix( 1, 0, 0, 1, 0,0) ">
<use xlink:href="#MovieClip_mc_02_0_Layer1_0_MEMBER_0_MEMBER_1_FILL"/>
</g>

<g transform="matrix( 1, 0, 0, 1, 0,0) ">
<use xlink:href="#MovieClip_mc_02_0_Layer1_0_MEMBER_0_MEMBER_2_FILL"/>
</g>

<g transform="matrix( 1, 0, 0, 1, 0,0) ">
<use xlink:href="#MovieClip_mc_02_0_Layer1_0_MEMBER_0_MEMBER_3_FILL"/>
</g>

<g transform="matrix( 1, 0, 0, 1, 0,0) ">
<use xlink:href="#MovieClip_mc_02_0_Layer1_0_MEMBER_0_MEMBER_4_FILL"/>
</g>

<g transform="matrix( 1, 0, 0, 1, 0,0) ">
<use xlink:href="#MovieClip_mc_02_0_Layer1_0_MEMBER_0_MEMBER_5_FILL"/>
</g>

<g transform="matrix( 1, 0, 0, 1, 0,0) ">
<use xlink:href="#MovieClip_mc_02_0_Layer1_0_MEMBER_0_MEMBER_6_FILL"/>
</g>

<g transform="matrix( 1, 0, 0, 1, 0,0) ">
<use xlink:href="#MovieClip_mc_02_0_Layer1_0_MEMBER_1_MEMBER_0_FILL"/>
</g>
</g>

<g id="mc_0101" transform="matrix( 1, 0, 0, 1, 116.3,242.7) ">
<g id="botao_FL" transform="matrix( 1.56280517578125, 0, 0, 1.565521240234375, 0,0) "/>

<g transform="matrix( 1, 0, 0, 1, 0,0) ">
<use xlink:href="#MovieClip_mc_03_0_Layer1_0_MEMBER_0_MEMBER_0_FILL"/>
</g>

<g transform="matrix( 1, 0, 0, 1, 0,0) ">
<use xlink:href="#MovieClip_mc_03_0_Layer1_0_MEMBER_0_MEMBER_1_FILL"/>
</g>

<g transform="matrix( 1, 0, 0, 1, 0,0) ">
<use xlink:href="#MovieClip_mc_03_0_Layer1_0_MEMBER_0_MEMBER_2_FILL"/>
</g>

<g transform="matrix( 1, 0, 0, 1, 0,0) ">
<use xlink:href="#MovieClip_mc_03_0_Layer1_0_MEMBER_0_MEMBER_3_FILL"/>
</g>

<g transform="matrix( 1, 0, 0, 1, 0,0) ">
<use xlink:href="#MovieClip_mc_03_0_Layer1_0_MEMBER_0_MEMBER_4_FILL"/>
</g>

<g transform="matrix( 1, 0, 0, 1, 0,0) ">
<use xlink:href="#MovieClip_mc_03_0_Layer1_0_MEMBER_0_MEMBER_5_FILL"/>
</g>

<g transform="matrix( 1, 0, 0, 1, 0,0) ">
<use xlink:href="#MovieClip_mc_03_0_Layer1_0_MEMBER_1_MEMBER_0_FILL"/>
</g>

<g transform="matrix( 1, 0, 0, 1, 0,0) ">
<use xlink:href="#MovieClip_mc_03_0_Layer1_0_MEMBER_2_MEMBER_0_FILL"/>
</g>
</g>

<g id="mc_0105" transform="matrix( 1, 0, 0, 1, 434.7,242.7) ">
<g id="botao_FL_FL" transform="matrix( 1.56280517578125, 0, 0, 1.565521240234375, 0,0) "/>

<g transform="matrix( 1, 0, 0, 1, 0,0) ">
<use xlink:href="#MovieClip_mc_05_0_Layer1_0_MEMBER_0_FILL"/>

<use xlink:href="#MovieClip_mc_05_0_Layer1_0_MEMBER_0_1_STROKES"/>
</g>

<g transform="matrix( 1, 0, 0, 1, 0,0) ">
<use xlink:href="#MovieClip_mc_05_0_Layer1_0_MEMBER_1_FILL"/>
</g>

<g transform="matrix( 1, 0, 0, 1, 0,0) ">
<use xlink:href="#MovieClip_mc_05_0_Layer1_0_MEMBER_2_FILL"/>

<use xlink:href="#MovieClip_mc_05_0_Layer1_0_MEMBER_2_1_STROKES"/>
</g>

<g transform="matrix( 1, 0, 0, 1, 0,0) ">
<use xlink:href="#MovieClip_mc_05_0_Layer1_0_MEMBER_3_FILL"/>

<use xlink:href="#MovieClip_mc_05_0_Layer1_0_MEMBER_3_1_STROKES"/>
</g>

<g transform="matrix( 1, 0, 0, 1, 0,0) ">
<use xlink:href="#MovieClip_mc_05_0_Layer1_0_MEMBER_4_MEMBER_0_FILL"/>

<use xlink:href="#MovieClip_mc_05_0_Layer1_0_MEMBER_4_MEMBER_0_1_STROKES"/>
</g>

<g transform="matrix( 1, 0, 0, 1, 0,0) ">
<use xlink:href="#MovieClip_mc_05_0_Layer1_0_MEMBER_5_MEMBER_0_FILL"/>

<use xlink:href="#MovieClip_mc_05_0_Layer1_0_MEMBER_5_MEMBER_0_1_STROKES"/>
</g>

<g transform="matrix( 1, 0, 0, 1, 0,0) ">
<use xlink:href="#MovieClip_mc_05_0_Layer1_0_MEMBER_5_MEMBER_1_FILL"/>

<use xlink:href="#MovieClip_mc_05_0_Layer1_0_MEMBER_5_MEMBER_1_1_STROKES"/>
</g>

<g transform="matrix( 1, 0, 0, 1, 0,0) ">
<use xlink:href="#MovieClip_mc_05_0_Layer1_0_MEMBER_5_MEMBER_2_FILL"/>

<use xlink:href="#MovieClip_mc_05_0_Layer1_0_MEMBER_5_MEMBER_2_1_STROKES"/>
</g>

<g transform="matrix( 1, 0, 0, 1, 0,0) ">
<use xlink:href="#MovieClip_mc_05_0_Layer1_0_MEMBER_5_MEMBER_3_FILL"/>

<use xlink:href="#MovieClip_mc_05_0_Layer1_0_MEMBER_5_MEMBER_3_1_STROKES"/>
</g>
</g>

<g id="mc_0204" transform="matrix( 1, 0, 0, 1, 275.5,242.7) ">
<g id="botao_FL_FL_FL" transform="matrix( 1.56280517578125, 0, 0, 1.565521240234375, 0,0) "/>

<g transform="matrix( 1, 0, 0, 1, 0,0) ">
<use xlink:href="#MovieClip_mc_07_0_Layer1_0_MEMBER_0_MEMBER_0_FILL"/>
</g>

<g transform="matrix( 1, 0, 0, 1, 0,0) ">
<use xlink:href="#MovieClip_mc_07_0_Layer1_0_MEMBER_0_MEMBER_1_FILL"/>
</g>

<g transform="matrix( 1, 0, 0, 1, 0,0) ">
<use xlink:href="#MovieClip_mc_07_0_Layer1_0_MEMBER_0_MEMBER_2_FILL"/>
</g>

<g transform="matrix( 1, 0, 0, 1, 0,0) ">
<use xlink:href="#MovieClip_mc_07_0_Layer1_0_MEMBER_0_MEMBER_3_FILL"/>
</g>

<g transform="matrix( 1, 0, 0, 1, 0,0) ">
<use xlink:href="#MovieClip_mc_07_0_Layer1_0_MEMBER_0_MEMBER_4_FILL"/>
</g>

<g transform="matrix( 1, 0, 0, 1, 0,0) ">
<use xlink:href="#MovieClip_mc_07_0_Layer1_0_MEMBER_1_MEMBER_0_FILL"/>
</g>
</g>

<g id="mc_0103" transform="matrix( 1, 0, 0, 1, 355.1,282.7) ">
<g id="botao_FL_FL_FL_FL" transform="matrix( 1.56280517578125, 0, 0, 1.565521240234375, 0,0) "/>

<g transform="matrix( 1, 0, 0, 1, 0,0) ">
<use xlink:href="#MovieClip_mc_09_0_Layer1_0_MEMBER_0_MEMBER_0_MEMBER_0_MEMBER_0_FILL"/>
</g>

<g transform="matrix( 1, 0, 0, 1, 0,0) ">
<use xlink:href="#MovieClip_mc_09_0_Layer1_0_MEMBER_0_MEMBER_1_FILL"/>
</g>

<g transform="matrix( 1, 0, 0, 1, 0,0) ">
<use xlink:href="#MovieClip_mc_09_0_Layer1_0_MEMBER_0_MEMBER_2_FILL"/>
</g>

<g transform="matrix( 1, 0, 0, 1, 0,0) ">
<use xlink:href="#MovieClip_mc_09_0_Layer1_0_MEMBER_1_MEMBER_0_FILL"/>
</g>
</g>

<g transform="matrix( 1, 0, 0, 1, 98.5,-107.95) ">
<use xlink:href="#Layer0_5_MEMBER_0_FILL"/>
</g>

<g transform="matrix( 1, 0, 0, 1, 98.5,-107.95) ">
<use xlink:href="#Layer0_5_MEMBER_1_FILL"/>
</g>

<g transform="matrix( 1, 0, 0, 1, 98.5,-107.95) ">
<use xlink:href="#Layer0_5_MEMBER_2_FILL"/>
</g>

<g transform="matrix( 1, 0, 0, 1, 98.5,-107.95) ">
<use xlink:href="#Layer0_5_MEMBER_3_FILL"/>
</g>

<g transform="matrix( 1, 0, 0, 1, 98.5,-107.95) ">
<use xlink:href="#Layer0_5_MEMBER_4_FILL"/>
</g>

<g transform="matrix( 1, 0, 0, 1, 126,-70.95) ">
<use xlink:href="#Layer0_6_MEMBER_0_MEMBER_0_FILL"/>
</g>

<g transform="matrix( 1, 0, 0, 1, 126,-70.95) ">
<use xlink:href="#Layer0_6_MEMBER_0_MEMBER_1_FILL"/>
</g>

<g transform="matrix( 1, 0, 0, 1, 126,-70.95) ">
<use xlink:href="#Layer0_6_MEMBER_0_MEMBER_2_FILL"/>
</g>

<g transform="matrix( 1, 0, 0, 1, 126,-70.95) ">
<use xlink:href="#Layer0_6_MEMBER_0_MEMBER_3_FILL"/>
</g>

<g transform="matrix( 1, 0, 0, 1, 126,-70.95) ">
<use xlink:href="#Layer0_6_MEMBER_1_MEMBER_0_FILL"/>
</g>

<g transform="matrix( 1, 0, 0, 1, 126,-70.95) ">
<use xlink:href="#Layer0_6_MEMBER_1_MEMBER_1_FILL"/>
</g>

<g transform="matrix( 1, 0, 0, 1, 126,-70.95) ">
<use xlink:href="#Layer0_6_MEMBER_2_MEMBER_0_FILL"/>
</g>

<g transform="matrix( 1, 0, 0, 1, 289,-75.3) ">
<use xlink:href="#Layer0_7_MEMBER_0_MEMBER_0_MEMBER_0_FILL"/>
</g>

<g transform="matrix( 1, 0, 0, 1, 289,-75.3) ">
<use xlink:href="#Layer0_7_MEMBER_0_MEMBER_0_MEMBER_1_FILL"/>
</g>

<g transform="matrix( 1, 0, 0, 1, 289,-75.3) ">
<use xlink:href="#Layer0_7_MEMBER_0_MEMBER_0_MEMBER_2_FILL"/>
</g>

<g transform="matrix( 1, 0, 0, 1, 289,-75.3) ">
<use xlink:href="#Layer0_7_MEMBER_0_MEMBER_0_MEMBER_3_FILL"/>
</g>

<g transform="matrix( 1, 0, 0, 1, 289,-75.3) ">
<use xlink:href="#Layer0_7_MEMBER_0_MEMBER_0_MEMBER_4_FILL"/>
</g>

<g transform="matrix( 1, 0, 0, 1, 289,-75.3) ">
<use xlink:href="#Layer0_7_MEMBER_0_MEMBER_0_MEMBER_5_FILL"/>
</g>

<g transform="matrix( 1, 0, 0, 1, 289,-75.3) ">
<use xlink:href="#Layer0_7_MEMBER_0_MEMBER_0_MEMBER_6_FILL"/>
</g>

<g transform="matrix( 1, 0, 0, 1, 289,-75.3) ">
<use xlink:href="#Layer0_7_MEMBER_0_MEMBER_0_MEMBER_7_FILL"/>
</g>

<g transform="matrix( 1, 0, 0, 1, 289,-75.3) ">
<use xlink:href="#Layer0_7_MEMBER_0_MEMBER_0_MEMBER_8_FILL"/>
</g>

<g transform="matrix( 1, 0, 0, 1, 289,-75.3) ">
<use xlink:href="#Layer0_7_MEMBER_0_MEMBER_1_MEMBER_0_FILL"/>
</g>

<g transform="matrix( 1, 0, 0, 1, 289,-75.3) ">
<use xlink:href="#Layer0_7_MEMBER_0_MEMBER_1_MEMBER_1_FILL"/>
</g>

<g transform="matrix( 1, 0, 0, 1, 289,-75.3) ">
<use xlink:href="#Layer0_7_MEMBER_0_MEMBER_1_MEMBER_2_FILL"/>
</g>

<g transform="matrix( 1, 0, 0, 1, 289,-75.3) ">
<use xlink:href="#Layer0_7_MEMBER_0_MEMBER_1_MEMBER_3_FILL"/>
</g>

<g transform="matrix( 1, 0, 0, 1, 289,-75.3) ">
<use xlink:href="#Layer0_7_MEMBER_0_MEMBER_1_MEMBER_4_FILL"/>
</g>

<g transform="matrix( 1, 0, 0, 1, 289,-75.3) ">
<use xlink:href="#Layer0_7_MEMBER_0_MEMBER_1_MEMBER_5_FILL"/>
</g>

<g transform="matrix( 1, 0, 0, 1, 289,-75.3) ">
<use xlink:href="#Layer0_7_MEMBER_0_MEMBER_1_MEMBER_6_FILL"/>
</g>

<g transform="matrix( 1, 0, 0, 1, 289,-75.3) ">
<use xlink:href="#Layer0_7_MEMBER_0_MEMBER_1_MEMBER_7_FILL"/>
</g>

<g transform="matrix( 1, 0, 0, 1, 289,-75.3) ">
<use xlink:href="#Layer0_7_MEMBER_0_MEMBER_1_MEMBER_8_FILL"/>
</g>

<g transform="matrix( 1, 0, 0, 1, 289,-75.3) ">
<use xlink:href="#Layer0_7_MEMBER_0_MEMBER_2_MEMBER_0_FILL"/>
</g>

<g transform="matrix( 1, 0, 0, 1, 289,-75.3) ">
<use xlink:href="#Layer0_7_MEMBER_0_MEMBER_2_MEMBER_1_FILL"/>
</g>

<g transform="matrix( 1, 0, 0, 1, 289,-75.3) ">
<use xlink:href="#Layer0_7_MEMBER_0_MEMBER_2_MEMBER_2_FILL"/>
</g>

<g transform="matrix( 1, 0, 0, 1, 289,-75.3) ">
<use xlink:href="#Layer0_7_MEMBER_0_MEMBER_2_MEMBER_3_FILL"/>
</g>

<g transform="matrix( 1, 0, 0, 1, 289,-75.3) ">
<use xlink:href="#Layer0_7_MEMBER_0_MEMBER_2_MEMBER_4_FILL"/>
</g>

<g transform="matrix( 1, 0, 0, 1, 289,-75.3) ">
<use xlink:href="#Layer0_7_MEMBER_0_MEMBER_2_MEMBER_5_FILL"/>
</g>

<g transform="matrix( 1, 0, 0, 1, 289,-75.3) ">
<use xlink:href="#Layer0_7_MEMBER_1_MEMBER_0_FILL"/>
</g>

<g transform="matrix( 1, 0, 0, 1, 371.35,20) ">
<use xlink:href="#Layer0_8_MEMBER_0_MEMBER_0_FILL"/>
</g>

<g transform="matrix( 1, 0, 0, 1, 371.35,20) ">
<use xlink:href="#Layer0_8_MEMBER_0_MEMBER_1_FILL"/>
</g>

<g transform="matrix( 1, 0, 0, 1, 371.35,20) ">
<use xlink:href="#Layer0_8_MEMBER_0_MEMBER_2_1_STROKES"/>
</g>

<g transform="matrix( 1, 0, 0, 1, 371.35,20) ">
<use xlink:href="#Layer0_8_MEMBER_0_MEMBER_3_1_STROKES"/>
</g>

<g transform="matrix( 1, 0, 0, 1, 371.35,20) ">
<use xlink:href="#Layer0_8_MEMBER_0_MEMBER_4_1_STROKES"/>
</g>

<g transform="matrix( 1, 0, 0, 1, 371.35,20) ">
<use xlink:href="#Layer0_8_MEMBER_0_MEMBER_5_1_STROKES"/>
</g>

<g transform="matrix( 1, 0, 0, 1, 371.35,20) ">
<use xlink:href="#Layer0_8_MEMBER_1_MEMBER_0_FILL"/>
</g>

<g transform="matrix( 1, 0, 0, 1, 371.35,20) ">
<use xlink:href="#Layer0_8_MEMBER_1_MEMBER_1_1_STROKES"/>
</g>

<g transform="matrix( 1, 0, 0, 1, 158,69) ">
<use xlink:href="#Layer0_9_MEMBER_0_MEMBER_0_FILL"/>
</g>

<g transform="matrix( 1, 0, 0, 1, 158,69) ">
<use xlink:href="#Layer0_9_MEMBER_0_MEMBER_1_FILL"/>
</g>

<g transform="matrix( 1, 0, 0, 1, 158,69) ">
<use xlink:href="#Layer0_9_MEMBER_0_MEMBER_2_FILL"/>

<use xlink:href="#Layer0_9_MEMBER_0_MEMBER_2_1_STROKES"/>
</g>

<g transform="matrix( 1, 0, 0, 1, 158,69) ">
<use xlink:href="#Layer0_9_MEMBER_0_MEMBER_3_FILL"/>
</g>

<g transform="matrix( 1, 0, 0, 1, 158,69) ">
<use xlink:href="#Layer0_9_MEMBER_0_MEMBER_4_FILL"/>

<use xlink:href="#Layer0_9_MEMBER_0_MEMBER_4_1_STROKES"/>
</g>

<g transform="matrix( 1, 0, 0, 1, 158,69) ">
<use xlink:href="#Layer0_9_MEMBER_1_MEMBER_0_FILL"/>
</g>

<g transform="matrix( 1, 0, 0, 1, 158,69) ">
<use xlink:href="#Layer0_9_MEMBER_1_MEMBER_1_FILL"/>
</g>

<g transform="matrix( 1, 0, 0, 1, 158,69) ">
<use xlink:href="#Layer0_9_MEMBER_2_MEMBER_0_FILL"/>

<use xlink:href="#Layer0_9_MEMBER_2_MEMBER_0_1_STROKES"/>
</g>
</svg>
