
<svg xmlns="http://www.w3.org/2000/svg" version="1.1" xmlns:xlink="http://www.w3.org/1999/xlink" preserveAspectRatio="none" x="0px" y="0px" width="50px" height="50px" viewBox="0 0 50 50">
<defs>
<g id="MovieClip_mc_01_0_Layer1_0_MEMBER_0_MEMBER_0_FILL">
<path fill="#53CA02" stroke="none" d="
M 14.2 -18.05
L 13.2 -17.35 12.65 -17.05 12.2 -17.1 12.15 -17.75 11.95 -17.75 11.3 -17.05 10.4 -16.6 10 -16.65 9.95 -17.25 9.8 -17.25 9.65 -17.2 8.85 -16.45 8.65 -16.2 8.45 -16.05 8.35 -15.85 8.05 -15.45 8.05 -15.25 8 -15.05 7.95 -15 7.9 -15 7.9 -14.9 7.85 -14.9 7.8 -14.8 7.75 -14.8 7.75 -14.75 7.3 -14.55 6.4 -13.9 5.7 -13.2 5.25 -12.6 5.05 -12.25 4.85 -12.1 4.55 -11.65 4.4 -11.5 4.3 -11.35 1.25 -7.85 1.05 -7.5 0.8 -7.2 0.65 -6.95 0.45 -6.75 0.35 -6.5 0.85 -6.45 1.65 -6.25 1.9 -6.9 2.65 -8.1 4.3 -9.9 6.5 -11.6 8.75 -12.9 11.45 -13.8 11.55 -13.8 12.15 -13.65 11.85 -13.45 11.4 -13.3 11.4 -13 13.2 -12.6 12.75 -11.5 13 -11.1 14.15 -9.95 15.25 -9.95 15.35 -10.3 15.1 -10.4 17.85 -10.1 17 -9.9 18.75 -9.95 19.4 -10.6 18.45 -11.95 19.65 -12.35 19.8 -12.75 19.45 -13.65 17.85 -14.3 18.05 -14.5 19.85 -14.75 20.65 -15.15 17.85 -16.1 19 -16.25 20 -17.05 18.15 -17.55 16.6 -17.75 16.8 -17.85 16.8 -19.35 14.2 -18.05 Z"/>
</g>

<g id="MovieClip_mc_01_0_Layer1_0_MEMBER_0_MEMBER_1_FILL">
<path fill="#339900" stroke="none" d="
M 13.2 -12.6
L 11.4 -13 11.4 -13.3 11.85 -13.45 12.15 -13.65 11.55 -13.8 11.45 -13.8 8.75 -12.9 6.5 -11.6 4.3 -9.9 2.65 -8.1 1.9 -6.9 1.65 -6.25 1.65 -6.2 2 -6.1 3.1 -7.55 6.45 -9.85 10.55 -11.75 10.8 -9.7 11.95 -9.05 12.2 -9.2 12.35 -9.25 16.25 -8.55 16.3 -8.55 15.5 -8.1 14.95 -7.4 17.75 -7.1 17.45 -6.8 17.3 -6.35 18 -5.7 19.8 -5.05 20.05 -5.05 20.2 -5.3 19.8 -6.9 19.1 -8.05 19.7 -8 20.45 -7.3 21.1 -7.1 21.3 -7.1 21.5 -7.2 21.5 -7.8 21.85 -8.6 22.15 -8.9 22.3 -9.2 19.85 -12 18.45 -11.95 19.4 -10.6 18.75 -9.95 17 -9.9 17.85 -10.1 15.1 -10.4 15.35 -10.3 15.25 -9.95 14.15 -9.95 13 -11.1 12.75 -11.5 13.2 -12.6 Z"/>
</g>

<g id="MovieClip_mc_01_0_Layer1_0_MEMBER_0_MEMBER_2_FILL">
<path fill="#183C00" stroke="none" d="
M 7.45 -8.6
L 6.65 -8.3 6.45 -8.2 6.1 -8.1 4.8 -7.5 4.45 -7.3 2.75 -6.05 2.55 -5.75 3.05 -5.3 3.25 -5.5 5.45 -7.15 7.85 -8.25 8.75 -8.4 8.5 -8.15 8.2 -7.7 8.1 -7.35 7.9 -7.3 7.05 -7.5 9.25 -5.05 8.65 -5.25 9.65 -3.1 11.3 -2 11.5 -2.65 13.05 -1.35 13.9 0.65 15.65 -0.85 15.95 -1.5 15.45 -1.55 14.25 -2.3 13.75 -2.85 13.15 -2.95 12.6 -3.15 12.35 -4.1 12.8 -4.9 13.5 -5.5 12.5 -5.6 11.55 -6.25 11.35 -6.15 11.2 -6.05 10.35 -6.05 10.35 -6.1 10.2 -6.05 10 -6.05 9.35 -6.25 9.15 -7.05 9.25 -7.85 10.35 -8.15 9.6 -8.3 9.35 -8.5 8.85 -9.15 7.75 -8.75 7.45 -8.6 Z"/>
</g>

<g id="MovieClip_mc_01_0_Layer1_0_MEMBER_0_MEMBER_3_FILL">
<path fill="#2D6D01" stroke="none" d="
M 6.1 -8.1
L 6.45 -8.2 6.65 -8.3 7.45 -8.6 7.75 -8.75 8.85 -9.15 9.35 -8.5 9.6 -8.3 10.35 -8.15 9.25 -7.85 9.15 -7.05 9.35 -6.25 10 -6.05 10.2 -6.05 10.35 -6.1 10.35 -6.05 11.2 -6.05 11.35 -6.15 11.55 -6.25 12.5 -5.6 13.5 -5.5 12.8 -4.9 12.35 -4.1 12.6 -3.15 13.15 -2.95 13.75 -2.85 14.25 -2.3 15.45 -1.55 15.95 -1.5 16.5 -2.95 16.8 -2.75 17.75 -2.75 17.75 -3.8 17.4 -4.35 17.2 -4.85 19.1 -4.4 20.05 -5.05 19.8 -5.05 18 -5.7 17.3 -6.35 17.45 -6.8 17.75 -7.1 14.95 -7.4 15.5 -8.1 16.3 -8.55 16.25 -8.55 12.35 -9.25 12.2 -9.2 11.95 -9.05 10.8 -9.7 10.55 -11.75 6.45 -9.85 3.1 -7.55 2 -6.1 2.55 -5.75 2.75 -6.05 4.45 -7.3 4.8 -7.5 6.1 -8.1 Z"/>
</g>

<g id="MovieClip_mc_01_0_Layer1_0_MEMBER_1_MEMBER_0_FILL">
<path fill="#FF9900" stroke="none" d="
M 1.35 -6.35
L 1.15 -6.4 0.95 -6.4 -0.75 -6.6 -1.35 -6.6 -2.3 -6.4 -3.1 -6 -4.3 -4.8 -4.55 -4.5 -4.95 -3.9 -5.1 -3.6 -5.2 -3.3 -5.5 -2.65 -5.25 -2.55 -5 -2.4 -4.95 -2.3 -4.8 -2.15 -4.6 -2 -4.4 -1.7 -4.4 -1.5 -5.05 -1.5 -5.1 -1.7 -5.3 -2 -5.4 -2.1 -5.7 -2.25 -5.9 -1.95 -7.35 -0.3 -10.25 3.7 -10.55 3.95 -10.6 4.05 -10.65 4.1 -10.8 4.3 -11.55 5.1 -12.25 6.2 -11.9 6.7 -10.85 6.75 -8.95 6 -8.75 5.85 -8.55 5.75 -8 5.3 -7.75 5.05 -7.4 4.8 -6.25 3.65 -5.65 3.2 1.65 -1.3 2.9 -2.7 3.3 -3.55 3.6 -4.5 3.4 -4.9 3.15 -5.25 2.65 -5.7 2.1 -6.05 1.9 -6.1 1.8 -6.15 1.7 -6.15 1.7 -6.2 1.35 -6.35
M -6.3 1.15
L -6 1.45 -6 1.75 -6.2 1.75 -6.6 1.45 -6.8 1.25 -6.95 1.05 -7.25 0.75 -7 0.8 -6.3 1.15 Z"/>
</g>

<g id="MovieClip_mc_01_0_Layer1_0_MEMBER_1_MEMBER_1_FILL">
<path fill="#FF6600" stroke="none" d="
M 3.6 -4.5
L 3.3 -3.55 2.9 -2.7 1.65 -1.3 -5.65 3.2 -6.25 3.65 -7.4 4.8 -7.75 5.05 -8 5.3 -8.55 5.75 -8.75 5.85 -8.95 6 -10.85 6.75 -11.9 6.7 -12.25 6.2 -13.55 8.8 -14.5 10.05 -15.4 10.95 -15.15 11 -15.25 11.15 -15.25 11.25 -15.15 11.3 -14.5 11.75 -14.5 11.95 -14.95 12.05 -15.15 11.8 -15.7 11.35 -15.75 11.3 -16.45 12.5 -16.4 12.65 -14.45 13.25 -11 12.65 -10.5 12.45 -9.45 10.8 -8.5 10.25 -7.7 9.95 -5.35 8 -6.5 7 -5.95 7.3 -5.35 7.85 -5.35 8 -4.85 7.6 -3.05 6.4 -2.45 5.9 -1.15 4.4 -1 4.25 -0.8 4 -0.75 3.9 -0.65 3.9 2.15 1.35 2.45 1 3.2 -0.35 3.4 -1.25 3.5 -1.55 3.75 -2.9 3.75 -3.35 3.6 -4.5
M 0.5 -0.15
L 0.55 -0.05 0.7 0.1 1.4 1 1.65 1.45 1.65 1.55 1.5 1.4 1.4 1.35 1.35 1.35 1.25 1.25 1.25 1.2 1.05 1.05 0.9 0.9 0.9 0.85 0.55 0.5 0.5 0.35 0.5 -0.15
M -11.55 7.95
L -10.7 8.35 -10.25 8.85 -10.25 9 -11.25 8.25 -11.55 7.95 Z"/>
</g>

<g id="MovieClip_mc_01_0_Layer1_0_MEMBER_2_MEMBER_0_FILL">
<path fill="#CA5202" stroke="none" d="
M -11.15 12.5
L -12.25 12.7 -12.6 12.85 -13 12.85 -14.15 13.05 -14.25 13.05 -14.35 13.1 -14.45 13.05 -14.7 13.05 -14.95 12.95 -15.15 12.9 -16.3 12.5 -16.4 12.35 -16.65 12.75 -16.85 13.2 -17.65 14.4 -18.05 14.85 -18.55 15.2 -18.65 15.4 -18.8 15.55 -18.85 15.65 -19.25 15.45 -19.5 15.45 -19.65 15.55 -19.95 15.7 -20.55 16.35 -21.9 18.5 -22.25 19.3 -21.1 18 -21.1 17.9 -20.4 17.15 -20.2 17.05 -19.9 16.75 -19.55 16.55 -19.35 16.4 -19.15 16.4 -18.8 17.1 -18.65 17.2 -18.4 17.3 -17.65 17.15 -16.85 16.7 -16.25 16.25 -16.05 16 -15.8 15.8 -15.5 15.4 -15.25 15.15 -14.7 14.85 -14.25 14.75 -14.05 14.6 -13.1 14.3 -11.35 13.45 -11.25 13.3 -11.1 13.2 -10.8 12.95 -10.3 12.35 -10.85 12.5 -11.15 12.5
M -16.3 14.5
L -16.35 14.4 -16.35 14.25 -16.25 14.25 -16.25 14.2 -16.15 14.2 -16.15 14.15 -15.9 14.25 -15.6 14.45 -15.2 14.95 -15.4 15 -15.7 15 -16.1 14.8 -16.3 14.5 Z"/>
</g>

<g id="MovieClip_mc_02_0_Layer1_0_MEMBER_0_MEMBER_0_FILL">
<path fill="#DDDCDC" stroke="none" d="
M 15 -16.05
L 15 -16.1 14.95 -16.3 14.55 -16.45 -4.45 -16.45 -3.2 -16.1 -2.8 -15.9 -2.5 -15.65 -2.3 -15.35 -2.25 -15.2 -2.25 -13.8 -2.3 -13.65 -2.5 -13.25 -2.8 -13 -3.2 -12.8 -3.75 -12.6 -4.05 -12.55 -4.15 -12.55 -4.2 -12.5 -4.3 -12.45 -4.9 -12.35 -6.25 -12.35 -7.45 -12.6 -8.35 -13 -8.65 -13.25 -8.85 -13.65 -8.85 -15.1 -8.8 -15.4 -8.65 -15.65 -8.35 -15.9 -7.95 -16.1 -6.65 -16.45 -8.65 -16.45 -9.2 -16.3 -9.45 -16.2 -10.05 -15.7 -13.6 -11.8 -13.85 -11.6 -14 -11.4 -13.85 -11.25 -13.6 -11.1 9.25 -11.05 10.25 -11.2 10.3 -11.2 10.5 -11.35 10.8 -11.45 11 -11.6 14.95 -15.95 15 -16.05
M 3.4 -14.45
L 3.7 -14.25 4.1 -14.05 5.15 -13.7 5.75 -13.6 7.1 -13.6 7.4 -13.65 7.45 -13.7 7.7 -13.7 7.85 -13.75 7.9 -13.8 7.95 -13.8 8.25 -13.85 8.8 -14.05 9 -14.15 9.45 -14.45 9.65 -14.7 9.75 -14.9 9.8 -15.05 9.8 -13.8 9.75 -13.65 9.65 -13.55 9.5 -13.25 9.35 -13.15 9.2 -13 8.8 -12.8 8.5 -12.75 8.4 -12.75 8.35 -12.7 8.25 -12.65 7.95 -12.6 7.9 -12.6 7.85 -12.55 7.7 -12.5 7.4 -12.5 7.1 -12.4 5.75 -12.4 4.1 -12.8 3.8 -12.95 3.65 -13.05 3.5 -13.2 3.35 -13.3 3.2 -13.6 3.15 -13.75 3.15 -15 3.2 -14.7 3.4 -14.45 Z"/>
</g>

<g id="MovieClip_mc_02_0_Layer1_0_MEMBER_0_MEMBER_1_FILL">
<path fill="#999999" stroke="none" d="
M 3.2 -14.7
L 3.15 -15 3.15 -13.75 3.2 -13.6 3.35 -13.3 3.5 -13.2 3.65 -13.05 3.8 -12.95 4.1 -12.8 5.15 -12.5 5.75 -12.4 7.1 -12.4 7.4 -12.5 7.7 -12.5 7.85 -12.55 7.9 -12.6 7.95 -12.6 8.25 -12.65 8.35 -12.7 8.4 -12.75 8.5 -12.75 8.8 -12.8 9.2 -13 9.35 -13.15 9.5 -13.25 9.65 -13.55 9.75 -13.65 9.8 -13.8 9.8 -15.05 9.75 -14.9 9.65 -14.7 9.45 -14.45 9 -14.15 8.8 -14.05 8.25 -13.85 7.95 -13.8 7.9 -13.8 7.85 -13.75 7.7 -13.7 7.45 -13.7 7.4 -13.65 7.1 -13.6 5.75 -13.6 5.15 -13.7 4.1 -14.05 3.7 -14.25 3.4 -14.45 3.2 -14.7 Z"/>
</g>

<g id="MovieClip_mc_02_0_Layer1_0_MEMBER_0_MEMBER_2_FILL">
<path fill="#151515" stroke="none" d="
M 15 -16.05
L 14.95 -15.95 11 -11.6 10.8 -11.45 10.5 -11.35 10.3 -11.2 10.3 -2.7 11.2 -3.3 15 -7.8 15 -16.05 Z"/>
</g>

<g id="MovieClip_mc_02_0_Layer1_0_MEMBER_0_MEMBER_3_FILL">
<path fill="#2F2F2F" stroke="none" d="
M 10.25 -11.2
L 9.25 -11.05 -13.6 -11.1 -13.85 -11.25 -14 -11.4 -13.8 -2.5 9.25 -2.5 10.3 -2.7 10.3 -11.2 10.25 -11.2 Z"/>
</g>

<g id="MovieClip_mc_02_0_Layer1_0_MEMBER_0_MEMBER_4_FILL">
<path fill="#D2A902" stroke="none" d="
M 11.2 -3.3
L 10.3 -2.7 10.3 16.4 11.2 15.8 14.75 11.95 15 11.45 15 -7.8 11.2 -3.3 Z"/>
</g>

<g id="MovieClip_mc_02_0_Layer1_0_MEMBER_0_MEMBER_5_FILL">
<path fill="#999999" stroke="none" d="
M -8.35 -15.9
L -8.65 -15.65 -8.8 -15.4 -8.85 -15.1 -8.85 -13.65 -8.65 -13.25 -8.35 -13 -7.45 -12.6 -6.25 -12.35 -4.9 -12.35 -4.3 -12.45 -4.2 -12.5 -4.15 -12.55 -4.05 -12.55 -3.75 -12.6 -3.2 -12.8 -2.8 -13 -2.5 -13.25 -2.3 -13.65 -2.25 -13.8 -2.25 -15.2 -2.3 -15.35 -2.5 -15.65 -2.8 -15.9 -3.2 -16.1 -4.45 -16.45 -6.65 -16.45 -7.95 -16.1 -8.35 -15.9
M -7.95 -14.05
L -8.6 -14.45 -7.95 -14.85 -7.45 -15.05 -6.85 -15.2 -6.25 -15.25 -4.3 -15.2 -3 -14.8 -2.85 -14.65 -2.55 -14.45 -2.65 -14.45 -2.65 -14.4 -2.7 -14.35 -3 -14.15 -3.2 -14.05 -3.75 -13.85 -4.05 -13.8 -4.15 -13.8 -4.2 -13.75 -4.3 -13.7 -4.9 -13.6 -6.25 -13.6 -7.45 -13.85 -7.95 -14.05 Z"/>
</g>

<g id="MovieClip_mc_02_0_Layer1_0_MEMBER_0_MEMBER_6_FILL">
<path fill="#DDDCDC" stroke="none" d="
M -6.25 -15.25
L -6.85 -15.2 -7.45 -15.05 -7.95 -14.85 -8.6 -14.45 -7.95 -14.05 -7.45 -13.85 -6.25 -13.6 -4.9 -13.6 -4.3 -13.7 -4.2 -13.75 -4.15 -13.8 -4.05 -13.8 -3.75 -13.85 -3.2 -14.05 -3 -14.15 -2.7 -14.35 -2.65 -14.4 -2.65 -14.45 -2.55 -14.45 -2.85 -14.65 -3 -14.8 -4.3 -15.2 -6.25 -15.25 Z"/>
</g>

<g id="MovieClip_mc_02_0_Layer1_0_MEMBER_1_MEMBER_0_FILL">
<path fill="#FFCC00" stroke="none" d="
M 10.2 -2.7
L 9.95 -2.6 9.8 -2.6 9.7 -2.55 9.4 -2.5 -13.75 -2.5 -13.8 16.05 -13 16.4 9.15 16.4 10.2 16.25 10.2 -2.7 Z"/>
</g>

<g id="MovieClip_mc_03_0_Layer1_0_MEMBER_0_MEMBER_0_FILL">
<path fill="#CCCCCC" stroke="none" d="
M 3.8 -12.5
L 0.05 -12.8 -3.05 -12.6 -5 -12.2 -6.65 -11.55 -7.05 -11.3 -7.65 -10.75 -7.8 -10.5 -7.9 -10.2 -7.95 -9.9 -7.95 -9.85 -7.9 -9.6 -7.75 -9.2 -7.65 -9.05 -7.05 -8.55 -6.65 -8.3 -5.6 -7.85 -4.4 -7.5 -1.55 -7.05 0.05 -7 0.25 -7.05 1.6 -7.05 3.8 -7.4 3.9 -7.45 4.1 -7.45 4.45 -7.5 5.7 -7.85 6.4 -8.2 6.65 -8.3 7.35 -8.75 7.8 -9.25 7.95 -9.55 7.95 -9.65 8 -9.8 8 -10.05 7.95 -10.3 7.8 -10.6 7.35 -11.1 6.2 -11.8 3.8 -12.5
M 5.95 -10.55
L 6.1 -10.35 6.2 -10.15 6.25 -9.95 6.2 -9.7 6.15 -9.6 6.1 -9.55 6.1 -9.45 5.95 -9.25 5.75 -9.05 5.45 -8.9 5.15 -8.7 4.95 -8.6 4.8 -8.55 4.4 -8.35 3.6 -8.2 3.4 -8.1 2.3 -7.9 -0.2 -7.7 -2.65 -7.9 -4.75 -8.35 -5.6 -8.7 -6.15 -9.05 -6.4 -9.25 -6.55 -9.45 -6.65 -9.85 -6.55 -10.3 -6.4 -10.55 -5.95 -10.9 -5.6 -11.1 -4.25 -11.55 -1.5 -12 1.7 -11.95 4.4 -11.4 5.45 -10.95 5.75 -10.75 5.95 -10.55 Z"/>
</g>

<g id="MovieClip_mc_03_0_Layer1_0_MEMBER_0_MEMBER_1_FILL">
<path fill="#999999" stroke="none" d="
M 6.2 -9.7
L 6.25 -9.95 6.2 -10.15 6.1 -10.35 5.95 -10.55 5.75 -10.75 5.45 -10.95 4.4 -11.4 1.7 -11.95 -1.5 -12 -4.25 -11.55 -5.6 -11.1 -5.95 -10.9 -6.4 -10.55 -6.55 -10.3 -6.65 -9.85 -6.55 -9.45 -6.4 -9.25 -6.15 -9.05 -5.6 -8.7 -4.75 -8.35 -2.65 -7.9 -0.2 -7.7 2.3 -7.9 3.4 -8.1 3.6 -8.2 4.4 -8.35 4.8 -8.55 4.95 -8.6 5.15 -8.7 5.45 -8.9 5.75 -9.05 5.95 -9.25 6.1 -9.45 6.1 -9.55 6.15 -9.6 6.2 -9.7
M 2.1 -10.65
L 2.4 -10.5 2.6 -10.2 2.5 -10.05 2.45 -10 2.45 -9.95 2.4 -9.85 2.25 -9.8 2.1 -9.7 1.8 -9.55 0.95 -9.35 -0.05 -9.25 -1.1 -9.35 -1.95 -9.55 -2.35 -9.7 -2.45 -9.8 -2.55 -9.85 -2.7 -10 -2.75 -10.15 -2.7 -10.35 -2.55 -10.5 -2.35 -10.65 -1.1 -11 0.95 -11 2.1 -10.65 Z"/>
</g>

<g id="MovieClip_mc_03_0_Layer1_0_MEMBER_0_MEMBER_2_FILL">
<path fill="#CCCCCC" stroke="none" d="
M 2.45 -10
L 2.5 -10.05 2.6 -10.2 2.4 -10.5 2.1 -10.65 0.95 -11 -0.6 -11.05 -1.1 -11 -2.35 -10.65 -2.55 -10.5 -2.7 -10.35 -2.75 -10.15 -2.7 -10 -2.55 -9.85 -2.45 -9.8 -2.35 -9.7 -1.1 -9.35 -0.05 -9.25 0.95 -9.35 1.8 -9.55 2.1 -9.7 2.25 -9.8 2.4 -9.85 2.45 -9.95 2.45 -10 Z"/>
</g>

<g id="MovieClip_mc_03_0_Layer1_0_MEMBER_0_MEMBER_3_FILL">
<path fill="#FFCC00" stroke="none" d="
M 7.8 -9.25
L 7.35 -8.75 6.65 -8.3 5.7 -7.85 4.45 -7.5 4.1 -7.45 3.9 -7.45 3.8 -7.4 1.6 -7.05 0.25 -7.05 0.05 -7 -3.05 -7.25 -5.6 -7.85 -6.65 -8.3 -7.05 -8.55 -7.65 -9.05 -7.75 -9.2 -7.9 -9.6 -7.95 -9.85 -7.95 -4.3 -7.9 -4.05 -7.8 -3.75 -7.35 -3.25 -7.05 -3.05 -5.6 -2.35 -3.05 -1.75 0.05 -1.5 0.25 -1.55 1.6 -1.55 3.8 -1.9 3.9 -1.95 4.1 -1.95 4.45 -2 5.7 -2.35 6.65 -2.8 6.8 -2.95 7 -3.05 7.35 -3.3 7.6 -3.6 7.6 -3.65 7.65 -3.65 7.7 -3.7 7.9 -4 7.95 -4.15 8 -4.4 8 -9.8 7.95 -9.65 7.95 -9.55 7.8 -9.25 Z"/>
</g>

<g id="MovieClip_mc_03_0_Layer1_0_MEMBER_0_MEMBER_4_FILL">
<path fill="#000000" stroke="none" d="
M 0.25 -1.55
L 0.05 -1.5 -3.05 -1.75 -5.6 -2.35 -6.6 -2.8 -7.35 -3.25 -7.8 -3.75 -7.9 -4.05 -7.95 -4.3 -7.95 4.25 -5.6 6.15 0.05 7 5.7 6.15 8 4.25 8 -4.4 7.95 -4.15 7.9 -4 7.7 -3.7 7.65 -3.65 7.6 -3.65 7.6 -3.6 7.35 -3.3 7 -3.05 6.8 -2.95 6.65 -2.8 5.7 -2.35 4.45 -2 4.1 -1.95 3.9 -1.95 3.8 -1.9 1.6 -1.55 0.25 -1.55 Z"/>
</g>

<g id="MovieClip_mc_03_0_Layer1_0_MEMBER_0_MEMBER_5_FILL">
<path fill="#000000" stroke="none" d="
M 0.2 -4.05
L 0.2 -4.85 1 -4.85 1 -5.3 0.2 -5.3 0.2 -6.05 -0.25 -6.05 -0.25 -5.3 -1.05 -5.3 -1.05 -4.85 -0.25 -4.85 -0.25 -4.05 0.2 -4.05 Z"/>
</g>

<g id="MovieClip_mc_03_0_Layer1_0_MEMBER_1_MEMBER_0_FILL">
<path fill="#FFCC00" stroke="none" d="
M 7.9 4.05
L 7.35 4.85 6.65 5.3 6.5 5.3 6.35 5.35 6.15 5.5 4.4 6.05 4.05 6.1 3.85 6.15 3.75 6.2 3.4 6.25 3.2 6.25 3.05 6.35 1.6 6.5 1 6.5 0.8 6.55 -3.05 6.35 -5.05 5.9 -6.2 5.5 -7.35 4.85 -7.8 4.3 -7.95 4.05 -7.95 10.4 -7.8 10.65 -7.35 11.1 -7 11.35 -5.65 12 -3.8 12.5 -1.6 12.8 1.6 12.8 3.05 12.6 3.2 12.55 3.4 12.55 3.75 12.5 3.85 12.4 4.05 12.4 4.4 12.35 5.65 12 6.1 11.75 6.5 11.6 7.2 11.2 7.45 11 7.95 10.3 7.95 3.8 7.9 4.05 Z"/>
</g>

<g id="MovieClip_mc_03_0_Layer1_0_MEMBER_2_MEMBER_0_FILL">
<path fill="#000000" stroke="none" d="
M 0.85 11.1
L 0.85 10.35 -0.85 10.35 -0.85 11.1 0.85 11.1 Z"/>
</g>

<g id="MovieClip_mc_04_0_Layer1_0_MEMBER_0_MEMBER_0_FILL">
<path fill="#CC0000" stroke="none" d="
M 0.95 -22.25
L 0.05 -22.15 -1.35 -22.3 -1.7 -22.4 -2 -22.55 -2.15 -22.65 -2.25 -22.7 -2.4 -22.85 -2.4 -23.05 -2.95 -21.4 -2.75 -21.4 -2.6 -20.85 -2.45 -20.75 -2.25 -20.65 -1.95 -20.8 -1.9 -20.85 -1.7 -20.95 -1.55 -20.95 -1.35 -20.75 -1.1 -20.4 -1 -20.35 -0.85 -20.3 -0.4 -20.75 -0.15 -20.8 -0.05 -20.75 0.15 -20.55 0.35 -20.25 0.45 -20.2 0.65 -20.2 0.75 -20.3 0.95 -20.6 1 -20.8 1.1 -20.9 1.25 -21 1.35 -20.95 1.5 -20.95 1.6 -20.8 1.9 -20.65 2 -20.7 2 -20.75 2.05 -20.8 2.15 -20.95 2.15 -21.25 2.2 -21.4 2.25 -21.45 2.5 -21.45 2.85 -21.4 2.9 -21.45 2.95 -21.45 3 -21.5 2.45 -23.1 2.4 -22.9 2.25 -22.75 2.15 -22.7 2 -22.6 1.9 -22.55 1.8 -22.55 1.8 -22.5 1.75 -22.45 0.95 -22.25 Z"/>
</g>

<g id="MovieClip_mc_04_0_Layer1_0_MEMBER_0_MEMBER_1_FILL">
<path fill="#FF0000" stroke="none" d="
M 2.2 -23.45
L 1.3 -23.85 0.45 -23.95 -0.95 -23.85 -1.7 -23.65 -2.15 -23.45 -2.3 -23.3 -2.4 -23.15 -2.4 -22.85 -2.25 -22.7 -2.15 -22.65 -2 -22.55 -1.7 -22.4 -1.35 -22.3 0.05 -22.15 0.95 -22.25 1.75 -22.45 1.8 -22.5 1.8 -22.55 1.9 -22.55 2 -22.6 2.15 -22.7 2.25 -22.75 2.4 -22.9 2.45 -23.1 2.2 -23.45 Z"/>
</g>

<g id="MovieClip_mc_04_0_Layer1_0_MEMBER_0_MEMBER_2_FILL">
<path fill="#FFFFFF" stroke="none" d="
M 2.2 -21.4
L 2.15 -21.25 2.15 -20.95 2.05 -20.8 2 -20.75 2 -20.7 1.9 -20.65 1.6 -20.8 1.5 -20.95 1.35 -20.95 1.25 -21 1.1 -20.9 1 -20.8 0.95 -20.6 0.75 -20.3 0.65 -20.2 0.45 -20.2 0.35 -20.25 0.15 -20.55 -0.05 -20.75 -0.15 -20.8 -0.4 -20.75 -0.85 -20.3 -1 -20.35 -1.1 -20.4 -1.35 -20.75 -1.55 -20.95 -1.7 -20.95 -1.9 -20.85 -1.95 -20.8 -2.25 -20.65 -2.45 -20.75 -2.6 -20.85 -2.85 -19.7 -2.85 -19.35 -2.9 -19.35 -2.9 -18.9 -2.7 -18.5 -2.4 -18.1 -1.95 -17.7 -2 -17.5 -1.95 -17.5 0.1 -17.4 2.4 -17.65 2.35 -17.85 2.6 -18.2 2.95 -18.55 3 -18.7 3 -18.9 3.05 -18.9 3.05 -19.2 3 -19.4 3 -19.85 2.5 -21.45 2.25 -21.45 2.2 -21.4
M 1.05 -18.9
L 1.1 -18.85 1.15 -18.85 1.15 -18.75 1.25 -18.6 1.25 -18.35 1.15 -18.25 -1 -18.15 -2.25 -18.75 -2.4 -18.85 -2.4 -19.2 -2.35 -19.3 -2.35 -19.35 -2.25 -19.45 -2.15 -19.5 -1.8 -19.25 -1.75 -19.05 -1.65 -19.05 -1.45 -19 -1.2 -19 -0.85 -18.95 -0.3 -18.95 -0.05 -18.9 1.05 -18.9 Z"/>
</g>

<g id="MovieClip_mc_04_0_Layer1_0_MEMBER_0_MEMBER_3_FILL">
<path fill="#FFFFFF" stroke="none" d="
M 1.15 -18.85
L 1.1 -18.85 1.05 -18.9 -0.05 -18.9 -0.3 -18.95 -0.85 -18.95 -1.2 -19 -1.45 -19 -1.65 -19.05 -1.75 -19.05 -1.8 -19.25 -2.15 -19.5 -2.25 -19.45 -2.35 -19.35 -2.35 -19.3 -2.4 -19.2 -2.4 -18.85 -2.25 -18.75 -1 -18.15 1.15 -18.25 1.25 -18.35 1.25 -18.6 1.15 -18.75 1.15 -18.85 Z"/>
</g>

<g id="MovieClip_mc_04_0_Layer1_0_MEMBER_0_MEMBER_4_FILL">
<path fill="#FFFFFF" stroke="none" d="
M 2.4 -17.65
L 0.1 -17.4 -1.95 -17.5 -2 -17.5 -2.35 -16.25 -2.4 -16.2 -2.4 -16.15 -2.55 -15.35 -3.1 -13.65 -4.2 -11.65 -6.2 -6.45 -6.05 -6.3 -6.3 -6.15 -7 -3.1 -5.95 -0.4 6.3 -0.4 7 -2.9 6.2 -6.85 4.75 -11.15 4.55 -11.15 4.6 -11.5 4.55 -11.5 4.55 -11.55 4.3 -12.1 4.25 -12.3 4.15 -12.45 2.85 -15.7 2.4 -17.65
M 3.1 -2.95
L 2.75 -2.3 -0.3 -2 -5.1 -2.85 -5.5 -3.7 -5.55 -4.05 -5.3 -5.6 -4 -9 -4.15 -9.3 -3.8 -9.5 -3.6 -9.95 -3.35 -10.35 -3.2 -10.75 -3 -11.05 -2.85 -11.35 -2.7 -11.55 -2.6 -11.75 -2.4 -11.85 -2.35 -11.95 -2.2 -12 -2.15 -12 -2 -11.9 -2 -11.8 -1.95 -11.65 -1.85 -11.15 -4.35 -4.05 -2.15 -3.65 2.75 -3.5 3.1 -2.95
M 4.45 -2.55
L 3.85 -2.85 3.7 -3.15 4.35 -3.75 5.05 -3.25 4.45 -2.55 Z"/>
</g>

<g id="MovieClip_mc_04_0_Layer1_0_MEMBER_1_MEMBER_0_FILL">
<path fill="#FF0000" stroke="none" d="
M 6.2 -0.25
L 6.1 -0.35 -0.6 -0.1 -5.95 -0.35 -6.05 -0.2 -6.25 0.35 -6.45 3.1 -6.4 3.1 -6.5 3.55 -6.5 5.6 -5.65 6.95 -4.8 7.65 -4.25 7.95 -2.85 8.4 -2.05 8.55 0.9 8.75 1.2 8.7 1.25 8.65 1.5 8.65 2.1 8.55 3.2 8.15 4.2 7.4 4.85 6.7 4.95 6.55 5.1 6.45 5.45 5.8 6.55 4.2 6.55 1.15 6.4 0.15 6.2 -0.25
M 4.4 0.4
L 4.15 0.8 4 0.65 4.15 0.5 4.2 0.4 4.4 0.4
M -5.05 1.7
L -5 1.2 -4.95 2.15 -5.1 2.15 -5.1 1.9 -5.05 1.7 Z"/>
</g>

<g id="MovieClip_mc_04_0_Layer1_0_MEMBER_1_MEMBER_1_FILL">
<path fill="#CC0000" stroke="none" d="
M 6.55 4.2
L 5.45 5.8 5.1 6.45 4.95 6.55 4.85 6.7 4.2 7.4 3.2 8.15 2.1 8.55 1.5 8.65 1.25 8.65 1.2 8.7 0.9 8.75 -2.05 8.55 -2.85 8.4 -4.25 7.95 -4.8 7.65 -5.65 6.95 -6.5 5.6 -6.4 7.95 -6.2 8.95 -6 9.4 -5.95 9.7 -5.85 9.95 -5.8 10.15 -5.7 10.3 -4.3 10.5 0.4 10.75 5.9 10.1 6.05 9.95 6.1 9.8 6.1 9.75 6.15 9.75 6.3 9.5 6.35 9.3 6.35 9.25 6.4 9.2 6.55 8.05 6.55 4.2 Z"/>
</g>

<g id="MovieClip_mc_04_0_Layer1_0_MEMBER_2_MEMBER_0_FILL">
<path fill="#FFFFFF" stroke="none" d="
M 2.2 11.45
L 2.4 11.65 2.6 11.8 2.65 11.85 2.8 12.15 2.6 12.7 2.55 12.7 2.35 12.9 2.05 13.05 1.45 12.9 1.3 12.8 1.2 12.6 0.95 12.3 0.7 12.2 -0.05 12.2 -1 12.45 -1.7 12.95 -1.8 12.95 -1.85 13 -1.95 13.05 -2.2 13.1 -2.7 13.1 -2.9 13 -3.05 13 -3.25 12.9 -3.35 12.8 -3.5 12.6 -3.55 12.5 -3.65 12.5 -3.65 12.4 -3.7 12.4 -3.75 12.3 -5.15 12.3 -5.45 12.25 -5.95 12.25 -6.2 12.2 -6.4 12.2 -6.55 13.55 -6.45 21.2 -6.35 21.95 -6.35 22.25 -6.3 22.5 -6.3 22.7 -6.25 22.85 -6.25 22.9 -6.2 23 -6.2 22.95 -6.1 22.9 -1.2 24 4.7 23.6 6.3 22.8 6.3 22.7 6.35 22.5 6.35 22.25 6.4 21.9 6.25 12.65 5.95 11.15 5.85 10.8 5.7 10 -1.45 10.65 -5.95 10.2 -5.95 10.35 -6 10.4 -6.2 11.25 -6.05 11.15 -4.9 10.95 -3.35 11 -2.8 11.4 -2.55 11.65 -2.25 11.75 -2.25 11.7 -2.2 11.7 -2 11.65 -1.8 11.55 -1.65 11.45 -1.45 11.4 -1.1 11.2 -0.7 11.05 0.7 10.9 1.75 11.15 2.2 11.45
M 3.6 12.05
L 3.5 11.9 3.5 11.35 3.8 11.05 4.05 11 4.3 11 4.5 11.05 4.65 11.35 4.7 11.55 4.65 11.75 4.5 12.05 4.45 12.05 4.45 12.2 4.1 12.3 3.9 12.25 3.8 12.25 3.6 12.05
M 3.35 20
L 3.4 19.85 3.45 19.8 3.65 19.75 3.65 19.8 3.7 19.95 3.75 20.2 3.95 20.7 4.15 20.8 4.4 20.85 4.5 20.85 4.7 20.9 4.8 20.85 4.85 20.8 4.95 20.8 5.05 20.7 5.15 20.65 5.3 20.45 5.35 20.4 5.4 20.4 5.5 20.45 5.6 20.45 5.7 20.55 5.7 20.65 5.75 20.75 5.75 20.8 5.7 20.85 5.7 20.95 5.65 21.1 5.55 21.2 5.45 21.35 5.1 21.5 4.75 21.6 4.5 21.55 4.3 21.55 3.95 21.45 3.7 21.2 3.5 20.9 3.45 20.65 3.35 20.35 3.35 20
M 0.65 20.6
L 0.7 20.6 0.8 20.5 0.8 20.45 0.9 20.4 1 20.25 1.05 20.2 1.3 20.2 1.4 20.4 1.45 20.55 1.45 20.7 1.25 21 1.2 21.1 0.9 21.2 0.8 21.2 0.8 21.25 0.75 21.3 0.6 21.3 0.45 21.35 0.1 21.3 -0.2 21.2 -0.7 20.65 -1.1 19.95 -1.1 19.6 -0.95 19.5 -0.75 19.55 -0.7 19.55 -0.6 19.65 -0.3 20.25 -0.1 20.5 0.15 20.6 0.4 20.65 0.55 20.65 0.65 20.6
M -5.3 19.15
L -5.15 19.35 -4.8 19.95 -4.65 20.15 -4.45 20.3 -4.3 20.35 -4.05 20.4 -3.95 20.35 -3.9 20.3 -3.55 19.75 -3.35 19.6 -3.35 19.65 -3.3 19.7 -3.15 19.75 -3.1 19.75 -3.05 19.95 -3.1 20.1 -3.15 20.35 -3.3 20.75 -3.65 21 -3.85 21.05 -4.05 21.05 -4.05 21.1 -4.4 21.05 -4.7 20.9 -5.05 20.65 -5.35 20.3 -5.55 19.9 -5.55 19.8 -5.7 19.5 -5.75 19.3 -5.7 19 -5.45 19 -5.3 19.15 Z"/>
</g>

<g id="MovieClip_mc_05_0_Layer1_0_MEMBER_0_FILL">
<path fill="#F2F2F2" stroke="none" d="
M 9.55 -12.65
L 6.3 -13.35 1.1 -13.7 -6.4 -13.35 -9.6 -12.65 -10.2 -12.45 -11.05 -12 -11.3 -11.8 -11.45 -11.55 -11.5 -11.3 -11.5 -9.85 -11.45 -9.8 -11.4 -9.65 -11.2 -9.5 -10.95 -9.25 -10.5 -9.05 -10.25 -8.9 -8.15 -8.3 -0.05 -7.6 5.35 -7.9 7.2 -8.2 7.4 -8.25 7.65 -8.25 8.1 -8.3 9.4 -8.65 9.75 -8.8 9.8 -8.85 9.9 -8.85 10.9 -9.25 10.95 -9.4 11.1 -9.45 11.3 -9.65 11.4 -9.85 11.5 -10 11.5 -11.25 11.4 -11.55 11.25 -11.75 10.95 -12 10.1 -12.45 9.55 -12.65
M 10.05 -10.05
L 8.1 -9.5 3.3 -8.9 -3.45 -8.9 -7.35 -9.35 -10.15 -10.05 -11.25 -10.65 -10.5 -11.2 -9.25 -11.6 -6.4 -12.15 -1.25 -12.55 5.35 -12.3 9.6 -11.5 10.05 -11.3 10.4 -11.2 10.95 -10.85 11.15 -10.65 10.7 -10.4 10.5 -10.35 10.45 -10.35 10.45 -10.3 10.4 -10.25 10.05 -10.05 Z"/>
</g>

<g id="MovieClip_mc_05_0_Layer1_0_MEMBER_1_FILL">
<path fill="#FFFFFF" stroke="none" d="
M 9.6 -11.5
L 5.35 -12.3 -4.45 -12.35 -7.35 -12 -10.5 -11.2 -11.25 -10.65 -10.15 -10.05 -8.15 -9.5 -3.45 -8.9 2.25 -8.85 7.2 -9.35 7.4 -9.4 8.1 -9.5 10.05 -10.05 10.4 -10.25 10.45 -10.3 10.45 -10.35 10.5 -10.35 10.7 -10.4 11.15 -10.65 10.95 -10.85 10.4 -11.2 10.05 -11.3 9.6 -11.5 Z"/>
</g>

<g id="MovieClip_mc_05_0_Layer1_0_MEMBER_2_FILL">
<path fill="#FFFFFF" stroke="none" d="
M 9.9 -8.85
L 9.8 -8.85 9.75 -8.8 9.4 -8.65 8.1 -8.3 7.65 -8.25 7.4 -8.25 7.2 -8.2 2.25 -7.65 -4.45 -7.8 -8.15 -8.3 -10.25 -8.9 -10.5 -9.05 -10.95 -9.25 -10.1 -2.85 -8.75 -2.45 -2.35 -1.65 1.1 -1.6 7.2 -2.15 7.4 -2.2 8.1 -2.3 10.05 -2.85 10.9 -9.25 9.9 -8.85 Z"/>
</g>

<g id="MovieClip_mc_05_0_Layer1_0_MEMBER_3_FILL">
<path fill="#F2F2F2" stroke="none" d="
M 8.1 -1.15
L 9.9 -1.6 10.05 -2.85 8.1 -2.3 7.2 -2.15 1.1 -1.6 -1.25 -1.6 -7.35 -2.15 -10.1 -2.85 -9.9 -1.6 -8.15 -1.15 -0.05 -0.45 8.1 -1.15 Z"/>
</g>

<g id="MovieClip_mc_05_0_Layer1_0_MEMBER_4_MEMBER_0_FILL">
<path fill="#FFFFFF" stroke="none" d="
M 7.95 12.3
L 7.95 12.25 8 12.15 9.05 3.7 8 3.95 7.55 4 7.3 4 7.1 4.05 0 4.65 -5.4 4.35 -8.05 3.95 -9 3.7 -7.8 12.3 -7.7 12.4 -7.55 12.5 -7.05 12.75 -5.55 13.2 -5 13.25 -4.45 13.4 3.15 13.6 3.8 13.45 4.45 13.4 5.1 13.25 5.7 13.2 7.2 12.75 7.3 12.7 7.45 12.6 7.65 12.5 7.95 12.3 Z"/>
</g>

<g id="MovieClip_mc_05_0_Layer1_0_MEMBER_5_MEMBER_0_FILL">
<path fill="#FFFFFF" stroke="none" d="
M 10 -2.1
L 8.2 -1.6 7.75 -1.55 7.5 -1.55 7.3 -1.45 2.3 -0.9 -2.3 -0.9 -8.2 -1.6 -9.95 -2.1 -9.75 -0.65 -9.05 -0.45 -5.45 0.2 1.2 0.5 1.3 0.45 2.3 0.45 7.3 -0.1 7.5 -0.15 7.75 -0.15 9.9 -0.7 10 -2.1 Z"/>
</g>

<g id="MovieClip_mc_05_0_Layer1_0_MEMBER_5_MEMBER_1_FILL">
<path fill="#F2F2F2" stroke="none" d="
M 7.5 -0.15
L 7.3 -0.1 2.3 0.45 1.3 0.45 1.2 0.5 -5.45 0.2 -9.05 -0.45 -9.75 -0.65 -9.55 0.8 -8.95 0.9 -8.2 1.15 -6.4 1.45 1.2 1.85 1.3 1.8 2.3 1.8 6.4 1.45 7.3 1.3 7.5 1.2 7.75 1.2 8.2 1.15 9.7 0.7 9.9 -0.7 7.75 -0.15 7.5 -0.15 Z"/>
</g>

<g id="MovieClip_mc_05_0_Layer1_0_MEMBER_5_MEMBER_2_FILL">
<path fill="#F2F2F2" stroke="none" d="
M 9.5 2.3
L 8.2 2.65 1.3 3.3 1.2 3.35 0.05 3.4 -8.2 2.65 -8.8 2.45 -9.35 2.35 -8.9 3.95 -2.3 4.7 5.45 4.4 9 3.9 9.5 2.3 Z"/>
</g>

<g id="MovieClip_mc_05_0_Layer1_0_MEMBER_5_MEMBER_3_FILL">
<path fill="#FFFFFF" stroke="none" d="
M 7.5 1.2
L 7.3 1.3 2.3 1.8 1.3 1.8 1.2 1.85 -6.4 1.45 -8.2 1.15 -8.95 0.9 -9.55 0.8 -9.35 2.35 -8.8 2.45 -8.2 2.65 -4.45 3.2 1.2 3.35 1.3 3.3 7.3 2.8 7.5 2.75 8.2 2.65 9.5 2.3 9.7 0.7 8.2 1.15 7.75 1.2 7.5 1.2 Z"/>
</g>

<g id="MovieClip_mc_06_0_Layer1_0_MEMBER_0_MEMBER_0_MEMBER_0_FILL">
<path fill="#99CC00" stroke="none" d="
M 5.3 -9.9
L 5.25 -9.95 5.25 -10 5.15 -10.05 4.9 -10.3 2.55 -11.8 2.25 -11.45 2.05 -11.05 1.8 -10.75 1.65 -10.4 1.55 -10.25 1.25 -9.5 1.15 -9.05 1.1 -7.8 1 -7.65 0.85 -7.5 0.7 -7.3 -0.55 -6.35 -1 -6.1 -1.6 -5.65 -2 -5.2 -2.1 -5 -2.2 -4.85 -2.2 -4.4 -2 -4.35 -1.75 -4.25 -1.45 -4.05 -1.3 -3.9 -1.2 -3.55 -1.2 -2.8 -0.7 -2.65 0.1 -2.25 0.55 -1.85 0.85 -1.25 0.9 -0.85 0.95 -0.75 0.95 -0.3 0.1 1.15 0.35 2.35 -0.4 3.75 0.05 4.6 2.55 5.6 4.15 5.8 7.35 1.4 8.5 -0.9 8.15 1.2 7.45 2.2 6.3 4.3 4.65 5.85 7.8 6.5 7.85 6.5 8.75 6.15 10 5.3 11.35 3.2 12.5 3.15 12.6 3 11.8 1.2 12.65 -0.75 12.65 -1.1 12.6 -1.35 12.5 -1.6 12.4 -1.75 12.25 -1.9 12.1 -2 11.95 -2.15 11.25 -2.5 11.05 -2.65 10.95 -2.7 10.55 -3.1 10.35 -3.35 10.2 -3.65 10.35 -3.8 10.6 -4 11.05 -4.6 10.55 -4.7 10.15 -4.9 9.95 -5.05 9.85 -5.15 9.55 -5.2 9.45 -5.2 9.3 -5.15 9.1 -5.05 8.9 -4.85 8.65 -4.7 7.65 -3.7 7.55 -3.65 7.5 -3.6 7.4 -3.45 7.25 -3.3 7.2 -3.4 7.45 -3.65 7.35 -3.8 7.25 -3.9 6.7 -4.9 6.7 -5.1 6.75 -5.15 6.95 -5.25 7 -5.4 7.1 -5.5 7.15 -5.65 7.15 -6.2 6.9 -7.05 6.75 -7.35 5.7 -8.55 5.55 -8.8 5.55 -9.05 5.5 -9.4 5.45 -9.6 5.3 -9.9
M 3.8 -5.5
L 3.8 -5.2 3.85 -4.8 3.85 -3.6 3.8 -3.3 3.75 -3.15 3.75 -2.95 3.6 -2.5 3.1 -1.55 2.85 -1.25 2.7 -0.95 3.1 -2.6 3.25 -3 3.6 -4.85 3.7 -6.65 3.8 -5.5
M 9.2 -2.3
L 8.95 -2 9.2 -2.65 9.2 -2.3 Z"/>
</g>

<g id="MovieClip_mc_06_0_Layer1_0_MEMBER_0_MEMBER_0_MEMBER_1_FILL">
<path fill="#C5F402" stroke="none" d="
M 3.75 -3.15
L 3.8 -3.3 3.85 -3.6 3.85 -4.8 3.8 -5.2 3.8 -5.5 3.7 -6.65 3.6 -4.85 3.25 -3 3.1 -2.6 2.7 -0.95 2.85 -1.25 3.1 -1.55 3.6 -2.5 3.75 -2.95 3.75 -3.15 Z"/>
</g>

<g id="MovieClip_mc_06_0_Layer1_0_MEMBER_0_MEMBER_0_MEMBER_2_FILL">
<path fill="#D6FD35" stroke="none" d="
M 0.5 -10.5
L 0.05 -10.3 -0.05 -10.2 -0.35 -10.2 -0.5 -10.3 -0.9 -10 -1.25 -9.8 -1.6 -9.7 -1.9 -9.7 -2.2 -9.75 -2.15 -9.65 -1.75 -9.1 -1.55 -8.9 -1.45 -8.85 -1.35 -8.75 -1.3 -8.75 -1.2 -8.65 -1.2 -7.35 -1.65 -7.35 -1.95 -7.75 -2.05 -7.85 -2.15 -7.9 -2.35 -7.95 -2.55 -7.9 -2.65 -7.8 -2.8 -7.8 -2.8 -6.2 -2.55 -6.2 -2.5 -6.15 -2.5 -5.5 -2.55 -5.25 -2.65 -5 -2.7 -4.7 -2.5 -4.55 -2.2 -4.4 -2.2 -4.85 -2.1 -5 -2 -5.2 -1.6 -5.65 -1 -6.1 -0.55 -6.35 0.7 -7.3 0.85 -7.5 1 -7.65 1.1 -7.8 1.15 -9.05 1.25 -9.5 1.55 -10.25 1.55 -10.5 0.5 -10.5 Z"/>
</g>

<g id="MovieClip_mc_06_0_Layer1_0_MEMBER_0_MEMBER_0_MEMBER_3_FILL">
<path fill="#C5F402" stroke="none" d="
M 0.25 -0.85
L 0.05 -1.05 0 -1.2 -0.1 -1.35 -0.1 -1.7 -0.05 -1.85 0.05 -2 0.05 -2.2 -0.05 -2.25 -0.2 -2.3 -0.4 -2.3 -0.95 -2.15 -1.05 -2.1 -1.35 -2.15 -1.6 -2.15 -2.15 -2.4 -2.25 -2.5 -2.3 -2.7 -2.3 -2.9 -2.25 -3 -2.05 -3.2 -1.9 -3.45 -1.9 -3.55 -1.85 -3.6 -1.85 -3.7 -1.9 -3.85 -1.9 -3.9 -2.55 -3.9 -3 -3.55 -3.35 -3.15 -3.4 -3 -3.5 -2.9 -3.65 -2.85 -4.1 -2.85 -4.3 -2.9 -4.5 -3 -4.6 -3.1 -4.75 -3.2 -4.85 -3.6 -4.85 -4.1 -4.75 -4.25 -4.35 -4.75 -4.25 -4.85 -4.15 -5.05 -4.2 -5.3 -4.25 -5.45 -4.35 -5.5 -4.55 -5.5 -5.1 -5.7 -5.5 -6.1 -5.95 -6.95 -6.05 -7.1 -6.15 -7.15 -6.3 -7.3 -6.55 -7.4 -6.75 -7.4 -7.1 -7.35 -7.3 -7.3 -7.4 -7.2 -7.65 -6.9 -7.8 -6.45 -7.9 -6.25 -8 -5.9 -8.05 -5.8 -8.25 -5.6 -8.4 -5.55 -8.5 -5.5 -8.9 -5.55 -9.2 -5.7 -9.45 -5.9 -9.65 -6.2 -10.3 -7.75 -10.3 -8.05 -10.7 -8.05 -10.9 -7.95 -11.1 -7.75 -11.25 -7.5 -11.45 -7.25 -11.55 -6.95 -11.6 -6.7 -11.6 -6.5 -11.4 -6.35 -11 -5.9 -10.8 -5.5 -9.95 -2.5 -9.95 -2.25 -9.9 -2.2 -9.75 -0.75 -9.9 0.8 -11.45 -0.2 -10.7 1 -9.65 1.65 -7.7 3.45 -6.65 4.7 -6.6 4.85 -6 7.6 -5.95 7.6 -4.9 8.05 -4.8 8.05 -3.45 7.65 -3.95 7.35 -3.65 7.35 -3.2 7.6 -1.3 6.9 -4.8 1.95 -7.2 -3.65 -3.1 3.35 -0.4 5.85 -0.35 5.4 -0.65 4.5 -0.4 3.75 0.35 2.35 0.1 1.15 0.95 -0.3 0.95 -0.75 0.8 -0.75 0.65 -0.65 0.25 -0.85 Z"/>
</g>

<g id="MovieClip_mc_06_0_Layer1_0_MEMBER_0_MEMBER_0_MEMBER_4_FILL">
<path fill="#E6FE81" stroke="none" d="
M 0.55 -1.85
L 0.1 -2.25 -0.7 -2.65 -1.2 -2.8 -1.2 -3.55 -1.3 -3.9 -1.45 -4.05 -1.75 -4.25 -2 -4.35 -2.2 -4.4 -2.5 -4.55 -3.1 -5.05 -3.3 -5.3 -3.45 -5.55 -4.1 -6.25 -4.4 -6.45 -4.55 -6.6 -5.9 -7.6 -6.55 -7.85 -6.75 -7.95 -6.9 -7.95 -7.1 -7.9 -7.2 -7.85 -7.5 -7.75 -7.65 -7.6 -7.8 -7.5 -7.95 -7.35 -8.35 -7.1 -8.55 -6.9 -8.75 -6.8 -8.85 -6.8 -9.15 -6.85 -9.4 -6.95 -9.6 -7.15 -9.75 -7.4 -9.85 -7.7 -9.95 -7.85 -10.1 -8 -10.3 -8.05 -10.3 -7.75 -10.15 -7.45 -9.65 -6.2 -9.45 -5.9 -9.2 -5.7 -8.9 -5.55 -8.5 -5.5 -8.4 -5.55 -8.25 -5.6 -8.05 -5.8 -8 -5.9 -7.9 -6.25 -7.8 -6.45 -7.65 -6.9 -7.4 -7.2 -7.3 -7.3 -7.1 -7.35 -6.75 -7.4 -6.55 -7.4 -6.3 -7.3 -6.15 -7.15 -6.05 -7.1 -5.95 -6.95 -5.5 -6.1 -5.1 -5.7 -4.55 -5.5 -4.35 -5.5 -4.25 -5.45 -4.2 -5.3 -4.15 -5.05 -4.25 -4.85 -4.35 -4.75 -4.75 -4.25 -4.85 -4.1 -4.85 -3.6 -4.75 -3.2 -4.6 -3.1 -4.5 -3 -4.3 -2.9 -4.1 -2.85 -3.65 -2.85 -3.5 -2.9 -3.4 -3 -3.35 -3.15 -3 -3.55 -2.55 -3.9 -1.9 -3.9 -1.9 -3.85 -1.85 -3.7 -1.85 -3.6 -1.9 -3.55 -1.9 -3.45 -2.05 -3.2 -2.25 -3 -2.3 -2.9 -2.3 -2.7 -2.25 -2.5 -2.15 -2.4 -1.6 -2.15 -1.35 -2.15 -1.05 -2.1 -0.95 -2.15 -0.4 -2.3 -0.2 -2.3 -0.05 -2.25 0.05 -2.2 0.05 -2 -0.05 -1.85 -0.1 -1.7 -0.1 -1.35 0 -1.2 0.05 -1.05 0.25 -0.85 0.65 -0.65 0.8 -0.75 0.95 -0.75 0.9 -0.85 0.85 -1.25 0.55 -1.85 Z"/>
</g>

<g id="MovieClip_mc_06_0_Layer1_0_MEMBER_0_MEMBER_0_MEMBER_5_FILL">
<path fill="#99CC00" stroke="none" d="
M -3.85 -12.45
L -3.95 -12.45 -4.2 -11.95 -4.25 -11.35 -5.1 -11.35 -5.2 -11.45 -5.3 -11.5 -5.4 -11.5 -5.5 -11.6 -5.8 -11.8 -5.9 -11.85 -5.95 -11.9 -6.75 -12.3 -6.85 -12.3 -6.95 -12.25 -7.1 -12.2 -7.25 -12.05 -7.45 -11.95 -7.7 -11.6 -7.7 -11.3 -6.25 -9.2 -6.35 -8.9 -6.4 -8.65 -7.7 -8.65 -8.2 -8.9 -8.65 -8.9 -8.8 -8.75 -9 -8.3 -8.55 -6.9 -8.35 -7.1 -7.95 -7.35 -7.8 -7.5 -7.65 -7.6 -7.5 -7.75 -7.2 -7.85 -7.1 -7.9 -6.9 -7.95 -6.75 -7.95 -6.55 -7.85 -5.9 -7.6 -4.55 -6.6 -4.4 -6.45 -4.1 -6.25 -3.45 -5.55 -3.3 -5.3 -3.1 -5.05 -2.7 -4.7 -2.65 -5 -2.55 -5.25 -2.5 -5.5 -2.5 -6.15 -2.55 -6.2 -2.8 -6.2 -2.8 -7.8 -2.65 -7.8 -2.55 -7.9 -2.35 -7.95 -2.15 -7.9 -2.05 -7.85 -1.95 -7.75 -1.65 -7.35 -1.2 -7.35 -1.2 -8.65 -1.3 -8.75 -1.35 -8.75 -1.45 -8.85 -1.55 -8.9 -1.75 -9.1 -2.15 -9.65 -2.2 -9.75 -1.9 -9.7 -1.6 -9.7 -1.25 -9.8 -0.9 -10 -0.5 -10.3 -0.8 -10.5 -1.15 -10.8 -1.35 -11.05 -0.7 -11.25 -0.05 -11.35 -0.05 -12.75 -0.1 -12.8 -0.15 -12.8 -0.25 -12.85 -0.4 -12.85 -0.65 -12.9 -1.15 -12.9 -1.4 -12.85 -1.6 -12.75 -1.7 -12.6 -1.8 -12.5 -1.8 -12.3 -1.85 -11.8 -1.9 -11.6 -1.9 -11.4 -1.95 -11.25 -2 -11.15 -2 -11.1 -2.25 -10.85 -2.45 -10.8 -2.95 -10.8 -3 -10.85 -3.2 -10.85 -3.3 -10.9 -3.4 -10.9 -3.6 -11 -3.8 -11.05 -3.8 -11.8 -3.75 -11.8 -3.25 -11.95 -3.1 -12.05 -3 -12.1 -3.1 -12.2 -3.2 -12.2 -3.2 -12.25 -3.25 -12.3 -3.35 -12.35 -3.45 -12.35 -3.85 -12.45 Z"/>
</g>

<g id="MovieClip_mc_06_0_Layer1_0_MEMBER_0_MEMBER_0_MEMBER_6_FILL">
<path fill="#88A901" stroke="none" d="
M -12.95 -1.5
L -13.05 -1.05 -13.05 -0.85 -12.45 0.65 -12.15 1.2 -11.9 1.85 -12.05 2.3 -11.75 2.7 -8.95 4.25 -8.35 5.4 -7.7 5.05 -7.35 5.05 -8.35 5.55 -8.3 6.2 -6.8 8.55 -6.45 8.75 -6.4 8.55 -5.95 7.6 -6 7.6 -6.6 4.85 -6.65 4.7 -7.7 3.45 -9.65 1.65 -10.7 1 -11.45 -0.2 -9.9 0.8 -9.75 -0.75 -9.9 -2.2 -9.95 -2.25 -9.95 -2.35 -10.05 -2.45 -10.15 -2.5 -10.3 -2.3 -10.5 -2.2 -10.85 -1.95 -11.25 -1.95 -11.55 -2.05 -11.75 -2.25 -11.95 -2.6 -12 -2.75 -11.9 -2.95 -12.6 -2.95 -12.65 -2.4 -12.95 -1.5 Z"/>
</g>

<g id="MovieClip_mc_06_0_Layer1_0_MEMBER_0_MEMBER_0_MEMBER_7_FILL">
<path fill="#C5F402" stroke="none" d="
M -0.1 -11.05
L -0.05 -11.35 -0.7 -11.25 -1.35 -11.05 -1.15 -10.8 -0.8 -10.5 -0.5 -10.3 -0.35 -10.55 -0.25 -10.65 -0.1 -11.05 Z"/>
</g>

<g id="MovieClip_mc_06_0_Layer1_0_MEMBER_0_MEMBER_0_MEMBER_8_FILL">
<path fill="#E6FE81" stroke="none" d="
M -1.3 6.9
L -0.9 6.8 -0.7 6.5 -0.4 5.85 -3.1 3.35 -7.2 -3.65 -4.8 1.95 -1.3 6.9 Z"/>
</g>

<g id="MovieClip_mc_06_0_Layer1_0_MEMBER_0_MEMBER_1_MEMBER_0_FILL">
<path fill="#C5F402" stroke="none" d="
M 8.55 -0.15
L 8.65 -1.1 8.45 -0.75 8.4 -0.75 8.4 -0.7 8.35 -0.5 6.9 2.2 6.55 2.65 6.3 3.15 4.3 5.6 4.5 5.6 4.8 5.65 5.55 5 5.7 4.8 5.85 4.7 6.3 4.25 6.35 4.15 6.45 4.1 6.65 3.9 6.7 3.8 6.8 3.65 6.9 3.4 6.95 3.2 7 3.1 7.05 2.75 7.35 2.2 7.6 2 8 1.55 8.2 1.15 8.3 1 8.45 0.2 8.45 0 8.5 0 8.55 -0.15 Z"/>
</g>

<g id="MovieClip_mc_06_0_Layer1_0_MEMBER_0_MEMBER_1_MEMBER_1_FILL">
<path fill="#88A901" stroke="none" d="
M 12.8 2.95
L 12.75 2.8 12.65 2.95 12.25 2.95 12 3 11.5 3 11.4 3.5 11.3 3.75 11.15 4 10.95 4.25 10.15 5.1 8.9 5.95 8.6 6.05 8.4 6.2 8 6.3 7.9 6.35 7.75 6.45 7.6 6.5 7.5 6.6 7.35 6.6 6.7 6.8 4.8 7.15 3.95 7.45 3.8 7.6 3.55 7.95 3.5 8.05 3.45 8.2 3.35 8.4 2.4 10.8 1.95 11.6 2.25 11.6 3.6 10.8 5.15 10.3 6.6 11.15 8.2 10.2 8.8 9.15 9.2 7.85 10 7.65 10.1 7.6 10.35 7.6 10.3 7.55 10.3 7.3 10.2 7.1 10.15 6.95 10.1 6.85 9.9 6.25 9.9 6.15 10.85 5.9 11.9 5.3 12.6 4.75 12.8 4.55 13 4.25 13.1 4.05 13.05 4 13.05 3.8 12.9 3.15 12.85 3.05 12.8 3 12.8 2.95 Z"/>
</g>

<g id="MovieClip_mc_06_0_Layer1_0_MEMBER_0_MEMBER_1_MEMBER_2_FILL">
<path fill="#A9D103" stroke="none" d="
M 4.8 5.65
L 4.5 5.6 4.3 5.6 1.25 11.2 1.7 11.65 1.95 11.6 2.4 10.8 3.35 8.4 3.45 8.2 3.5 8.05 3.55 7.95 3.8 7.6 3.95 7.45 4.8 7.15 6.9 6.75 7.35 6.6 7.5 6.6 7.6 6.5 7.75 6.45 7.9 6.35 8 6.3 4.7 6.15 4.7 5.7 4.8 5.65 Z"/>
</g>

<g id="MovieClip_mc_06_0_Layer1_0_MEMBER_0_MEMBER_1_MEMBER_3_FILL">
<path fill="#88A901" stroke="none" d="
M 1.25 5.2
L 0.65 4.85 0.2 4.45 -0.25 3.55 -0.4 3.75 -0.5 4.1 -0.5 4.3 -0.45 4.5 -0.25 5 -0.25 5.1 -0.2 5.2 -0.25 5.45 -0.25 5.65 -0.3 5.7 -0.3 5.8 -0.4 5.95 -0.55 6.3 -0.75 6.6 -0.95 6.6 -1.15 6.7 -1.5 6.75 -3.05 7.4 -2.75 7.55 -2.4 7.8 -1.7 8.45 -1.45 8.4 -1.15 8.55 -0.8 8.65 0.55 9.2 0.8 9.25 0.8 9.5 0.5 10.3 0.1 10.9 0.15 10.95 0.25 10.95 0.3 11.05 0.5 10.95 1.25 11.2 4.3 5.6 2.95 5.4 1.9 5.4 1.25 5.2 Z"/>
</g>

<g id="MovieClip_mc_06_0_Layer1_0_MEMBER_0_MEMBER_1_MEMBER_4_FILL">
<path fill="#C5F402" stroke="none" d="
M 0.1 10.9
L 0.5 10.3 0.8 9.5 0.8 9.4 0.55 9.2 -0.8 8.65 -1.15 8.55 -1.45 8.4 -1.7 8.45 -1.5 8.65 0.1 10.9 Z"/>
</g>

<g id="MovieClip_mc_06_0_Layer1_0_MEMBER_0_MEMBER_1_MEMBER_5_FILL">
<path fill="#F1FEBC" stroke="none" d="
M 0.3 11.05
L 0.25 10.95 0.1 10.95 0 11 0.1 10.9 -1.5 8.65 -1.7 8.45 -2.2 8.65 -0.4 11.25 0.2 11.15 0.3 11.05 Z"/>
</g>

<g id="MovieClip_mc_06_0_Layer1_0_MEMBER_0_MEMBER_1_MEMBER_6_FILL">
<path fill="#88A901" stroke="none" d="
M -11.75 -3.1
L -12.45 -3.1 -12.5 -2.6 -12.9 -1.2 -12.9 -1.05 -12.75 -0.3 -12.25 0.6 -12.2 0.65 -11.9 1.2 -11.75 1.65 -11.8 1.9 -11.9 2.1 -11.8 2.3 -11.45 2.65 -11.15 2.85 -10.75 3.05 -9.8 3.4 -8.8 4.05 -8.6 4.3 -8.3 4.85 -8.2 5.2 -7.9 5 -7.55 4.85 -7.2 4.85 -7.9 5.2 -8.05 5.3 -8.2 5.35 -8.15 6.3 -8 6.95 -7.8 7.3 -7.35 7.85 -6.65 8.35 -6.3 8.55 -6.25 8.35 -6.05 7.85 -5.8 7.4 -5.85 7.4 -6.05 6.9 -6.3 5.25 -6.4 4.95 -6.45 4.7 -6.5 4.55 -6.5 4.5 -6.7 4.15 -6.95 3.85 -7.55 3.3 -8.25 2.8 -9.25 1.9 -9.5 1.45 -9.8 1.35 -10.1 1.2 -10.35 1 -11 0.3 -11.3 -0.4 -11.05 -0.25 -10.8 -0.05 -10.55 0.05 -10.35 0.25 -10.15 0.3 -10 0.45 -9.9 0.5 -9.75 0.65 -9.7 -0.3 -9.6 -0.55 -9.6 -0.9 -9.65 -1.3 -9.7 -1.4 -9.75 -2.4 -9.8 -2.45 -9.8 -2.55 -10 -2.65 -10.15 -2.5 -10.35 -2.35 -10.55 -2.25 -10.7 -2.15 -11.25 -2.15 -11.4 -2.2 -11.6 -2.4 -11.8 -2.75 -11.85 -2.95 -11.75 -3.1 Z"/>
</g>

<g id="MovieClip_mc_06_0_Layer1_0_MEMBER_0_MEMBER_1_MEMBER_7_FILL">
<path fill="#99CC00" stroke="none" d="
M -8.8 4.05
L -9.8 3.4 -10.25 3.25 -11.15 2.85 -11.45 2.65 -11.8 2.3 -11.9 2.1 -12.1 2.3 -12.3 2.4 -12.4 2.6 -12.45 2.95 -12.45 3.1 -12.35 3.35 -11.95 3.85 -11.85 4 -11.75 4.1 -11.5 4.6 -11.45 4.75 -11.45 5 -11.5 5.1 -11.55 5.3 -11.65 5.5 -11.7 5.75 -12.3 7.9 -12.3 8.1 -12.25 8.35 -12.1 8.65 -11.6 9.25 -10.15 10 -9.8 9.9 -9.15 9.85 -8.3 10.7 -8.85 12.2 -8.55 12.95 -7.25 12.95 -4.1 12.65 -0.9 11.65 -0.8 11.25 -0.4 11.25 -2.2 8.65 -2.5 8.85 -3.6 9.25 -5.95 8.75 -7.15 10.3 -7.15 10.1 -6.55 9.25 -6.3 8.55 -6.65 8.35 -7.35 7.85 -7.8 7.3 -8 6.95 -8.15 6.3 -8.2 5.35 -8.75 5.65 -9.55 6.25 -9.3 5.95 -8.6 5.4 -8.45 5.3 -8.2 5.2 -8.3 4.85 -8.6 4.3 -8.8 4.05 Z"/>
</g>

<g id="MovieClip_mc_06_0_Layer1_0_MEMBER_0_MEMBER_1_MEMBER_8_FILL">
<path fill="#88A901" stroke="none" d="
M -5.1 7.95
L -5.65 8.4 -5.95 8.75 -3.6 9.25 -2.5 8.85 -2.2 8.65 -3.3 7.45 -3.55 7.55 -4.65 7.85 -4.75 7.85 -5.1 7.95 Z"/>
</g>

<g id="MovieClip_mc_06_0_Layer1_0_MEMBER_0_MEMBER_2_MEMBER_0_FILL">
<path fill="#88A901" stroke="none" d="
M 4.6 5.8
L 4.6 6.25 7.9 6.4 4.7 5.75 4.6 5.8 Z"/>
</g>

<g id="MovieClip_mc_06_0_Layer1_0_MEMBER_0_MEMBER_2_MEMBER_1_FILL">
<path fill="#A9D103" stroke="none" d="
M -8.1 5.35
L -7.4 5 -7.75 5 -8.1 5.15 -8.4 5.35 -8.4 5.45 -8.1 5.35 Z"/>
</g>

<g id="MovieClip_mc_06_0_Layer1_0_MEMBER_0_MEMBER_2_MEMBER_2_FILL">
<path fill="#C5F402" stroke="none" d="
M -8.4 5.45
L -8.4 5.35 -8.65 5.4 -9.55 6.05 -10.05 6.65 -9.4 6.05 -8.4 5.45 Z"/>
</g>

<g id="MovieClip_mc_06_0_Layer1_0_MEMBER_0_MEMBER_2_MEMBER_3_FILL">
<path fill="#C5F402" stroke="none" d="
M -5.9 8.8
L -6.3 8.6 -6.55 9.3 -6.7 9.5 -6.8 9.6 -6.85 9.75 -7 9.95 -7.05 9.95 -7.1 10 -7.15 10.1 -7.15 10.3 -7.05 10.1 -6.9 10 -6.8 9.8 -6.45 9.35 -5.9 8.8 Z"/>
</g>

<g id="MovieClip_mc_06_0_Layer1_0_MEMBER_0_MEMBER_2_MEMBER_4_FILL">
<path fill="#A9D103" stroke="none" d="
M -5.6 7.65
L -5.8 7.45 -6.05 7.85 -6.25 8.35 -6.3 8.55 -5.9 8.75 -5.65 8.4 -5.05 7.95 -4.7 7.9 -5.35 7.8 -5.6 7.65 Z"/>
</g>

<g id="MovieClip_mc_06_0_Layer1_0_MEMBER_0_MEMBER_2_MEMBER_5_FILL">
<path fill="#A9D103" stroke="none" d="
M -2.75 7.55
L -3.05 7.4 -3.3 7.45 -2.2 8.6 -1.7 8.4 -2.75 7.55 Z"/>
</g>

<g id="MovieClip_mc_06_0_Layer1_0_MEMBER_1_MEMBER_0_FILL">
<path fill="#C5F402" stroke="none" d="
M 0.45 10.8
L 0.35 10.8 0.25 10.9 0.15 10.95 -0.05 10.95 -0.5 11.1 -0.95 11.1 -0.95 11.4 -1 11.45 -1 13.85 0.2 13.85 0.35 13.7 0.6 13.65 0.5 13.15 0.55 12.65 0.55 12.45 0.65 12.25 0.85 11.95 1 11.8 1.2 11.65 1.4 11.55 1.7 11.5 1.55 11.25 1.3 11.1 1.25 11.05 0.8 10.85 0.45 10.8 Z"/>
</g>

<g id="MovieClip_mc_07_0_Layer1_0_MEMBER_0_MEMBER_0_FILL">
<path fill="#D2A902" stroke="none" d="
M 1.25 -13.45
L 0.25 -13.35 -0.2 -13.2 -1 -12.8 -1.4 -12.5 -2.2 -11.75 -0.65 -10.3 -0.6 -10.3 -0.55 -10.2 -0.45 -10.1 -0.2 -9.9 0.15 -9.45 0.3 -9.3 0.75 -8.75 0.8 -8.7 0.95 -8.4 1.05 -8.3 1.15 -8.1 1.8 -8.05 2.9 -7.85 3.75 -7.55 4.25 -7.25 4.45 -7.05 5.7 -8.85 6.7 -10 7.05 -10.25 6.9 -10.55 6.35 -11.25 4.1 -12.75 2.2 -13.35 1.25 -13.45 Z"/>
</g>

<g id="MovieClip_mc_07_0_Layer1_0_MEMBER_0_MEMBER_1_FILL">
<path fill="#FEDB4E" stroke="none" d="
M 8.5 -10.85
L 8.15 -10.8 7.5 -10.55 6.7 -10 4.3 -6.85 4.2 -6.75 4.15 -6.6 3.9 -6.1 3.3 -5.55 3.05 -5.45 2.85 -5.3 2.4 -5.15 2.3 -5.05 1.65 -4.85 1.5 -4.85 1.45 -4.8 1.3 -4.75 0.05 -4.5 -0.05 -4.5 -0.2 -4.45 -0.85 -4.3 -1.3 -4.65 -4.5 -7.6 -4.85 -7.85 -5.25 -8.25 -5.35 -8.3 -6.1 -8.85 -7.45 -9.45 -8 -9.5 -8.55 -9.45 -9.45 -9.2 -10.35 -8.6 -11.8 -7.15 -12.1 -6.7 -12.45 -6.3 -12.7 -5.9 -12.95 -5.6 -13.1 -5.35 -13.1 -5.3 -12.85 -4.65 -12.05 -3.2 -11.4 -2.4 -11.3 -2.25 -11.1 -2.05 -10.9 -1.95 -10.65 -1.75 -9.45 -1.35 -8.35 -1.2 -5.95 -1.3 -2.75 0 2.25 1.4 5.15 0.8 6 -1.55 5.95 -1.95 5.85 -2.25 5.35 -2.8 4.25 -3.55 4.05 -3.75 4.5 -4.5 5.5 -5.65 5.95 -6.05 6.15 -6.3 6.85 -6.75 7.25 -6.95 7.65 -7 7.9 -7.1 8.25 -7.15 12.45 -6.95 12.5 -7 13 -7 13.2 -7.05 13.6 -7.05 13.75 -7.25 13.85 -7.45 14.15 -8.25 13.8 -9.15 13.5 -9.65 13.1 -10.05 12.65 -10.4 12.4 -10.55 11.85 -10.8 11.55 -10.85 11.25 -10.95 8.85 -10.95 8.5 -10.85 Z"/>
</g>

<g id="MovieClip_mc_07_0_Layer1_0_MEMBER_0_MEMBER_2_FILL">
<path fill="#006633" stroke="none" d="
M 0.3 -9.3
L 0.15 -9.45 -0.2 -9.9 -0.45 -10.1 -0.55 -10.2 -0.6 -10.3 -0.65 -10.3 -4.9 -13.9 -5 -13.7 -5.15 -13.5 -5.25 -13.25 -5.95 -11.95 -4.65 -11.25 -4 -10.75 -2.55 -9.35 -2.45 -9.2 -2.25 -9 -1.95 -8.6 -1.65 -8.3 -1.4 -7.95 -2.05 -7.8 -2.55 -7.6 -2.95 -7.3 -3.2 -6.95 -3.3 -6.75 -3.35 -6.5 -0.85 -4.3 -0.2 -4.45 -0.05 -4.5 0.05 -4.5 1.3 -4.75 1.45 -4.8 1.5 -4.85 1.65 -4.85 2.3 -5.05 2.4 -5.15 2.85 -5.3 3.05 -5.45 3.3 -5.55 3.9 -6.1 4.15 -6.6 4.2 -6.75 4.3 -6.85 4.45 -7.05 4.25 -7.25 3.75 -7.55 2.9 -7.85 1.8 -8.05 1.15 -8.1 1.05 -8.3 0.95 -8.4 0.8 -8.7 0.75 -8.75 0.3 -9.3 Z"/>
</g>

<g id="MovieClip_mc_07_0_Layer1_0_MEMBER_0_MEMBER_3_FILL">
<path fill="#FFCC00" stroke="none" d="
M 8.25 -7.15
L 7.9 -7.1 7.65 -7 7.25 -6.95 6.85 -6.75 6.15 -6.3 5.95 -6.05 5.5 -5.65 4.5 -4.5 4.05 -3.75 4.25 -3.55 5.35 -2.8 5.85 -2.25 5.95 -1.95 6 -1.55 5.15 0.8 2.25 1.4 -2.75 0 -5.95 -1.3 -8.35 -1.2 -9.45 -1.35 -10.65 -1.75 -10.9 -1.95 -11.1 -2.05 -11.3 -2.25 -11.4 -2.4 -12.05 -3.2 -12.5 -3.95 -13.1 -5.3 -13.35 -4.65 -13.45 -4.2 -13.5 -3.2 -13.35 -2 -12.8 -0.25 -11.6 2.3 -9.75 5.25 -8.65 8 -7.75 11.95 -6.2 13.05 -2.75 13.8 0.4 12.6 4.4 12.75 7.15 10.8 9.05 8.2 11.6 6.25 12.4 5.4 13.3 3.7 14.2 1.4 14.5 -1.65 14.15 -8.25 13.85 -7.45 13.75 -7.25 13.6 -7.05 13.2 -7.05 13 -7 12.5 -7 12.45 -6.95 8.25 -7.15 Z"/>
</g>

<g id="MovieClip_mc_07_0_Layer1_0_MEMBER_0_MEMBER_4_FILL">
<path fill="#D2A902" stroke="none" d="
M -2.55 -9.35
L -3.3 -10.15 -4.45 -7.65 -4.5 -7.6 -3.35 -6.5 -3.3 -6.75 -3.2 -6.95 -2.95 -7.3 -2.55 -7.6 -2.05 -7.8 -1.4 -7.95 -1.65 -8.3 -1.95 -8.6 -2.25 -9 -2.45 -9.2 -2.55 -9.35 Z"/>
</g>

<g id="MovieClip_mc_07_0_Layer1_0_MEMBER_1_MEMBER_0_FILL">
<path fill="#EABC04" stroke="none" d="
M 10.7 7.1
L 11.55 5.45 10.75 6.3 9 7.6 8.75 7.85 8.2 8.3 5.95 11.35 4.85 12.4 4.55 12.6 4.2 12.75 3.6 12.9 -0.4 12.75 -0.7 12.8 -0.9 12.8 -1.05 12.9 -1.5 13.1 -1.95 13.4 -2.85 13.8 -3.55 13.95 -4.6 13.9 -6.3 13.55 -6.95 13.2 -8.5 12.1 -7.75 13.75 -6.35 15.95 -5.45 16.95 -4.6 17.55 -4.3 17.7 -3.75 17.9 -3.1 18 -2.6 17.95 -2 17.8 -0.8 17.3 -0.25 16.95 0.75 16.6 1.65 16.65 2.25 16.8 5.05 18.45 6.05 18.2 6.25 18.05 6.35 17.95 6.5 17.9 6.95 17.5 7 17.5 7.15 17.25 7.4 16.95 7.95 15.95 7.95 15.85 8.05 15.75 8.15 15.6 8.3 15.15 8.5 14.75 9.6 10.4 9.7 10.1 9.8 9.6 9.8 9.5 9.85 9.4 10.7 7.1 Z"/>
</g>

<g id="MovieClip_mc_09_0_Layer1_0_MEMBER_0_MEMBER_0_MEMBER_0_MEMBER_0_FILL">
<path fill="#FFFFCC" stroke="none" d="
M 9.55 -10.25
L 7.25 -10.95 4.95 -11.25 1.95 -11.2 -0.9 -10.7 -4.55 -9.2 -9.05 -6.2 -13.2 -2.3 -15.1 0.15 -14.95 15.7 -13.1 15.7 -4.55 15 -4.55 14.95 -5.75 14.75 2.35 13.35 10.6 10.95
Q 12.4833984375 10.31953125 15.25 6 13.8765625 9.091015625 16.15 5.8
L 16.2 5.8 16.5 5.1 16.5 4.9 16.7 4.35 16.85 3.05 15.6 -6.6 12.4 -8.9 9.55 -10.25 Z"/>
</g>

<g id="MovieClip_mc_09_0_Layer1_0_MEMBER_0_MEMBER_1_FILL">
<path fill="#FEFD9A" stroke="none" d="
M 2.05 -11
L 5.05 -11.05 9.7 -10.05 11.95 -9 14.45 -7.45 15.7 -6.45 13.95 -15.6 -8 -13 -15.6 -13.1 -15.6 -13.3 -16 -13.3 -15.05 0.15 -12.05 -3.35 -5.4 -8.55 -0.8 -10.5 2.05 -11 Z"/>
</g>

<g id="MovieClip_mc_09_0_Layer1_0_MEMBER_0_MEMBER_2_FILL">
<path fill="#FBFBFB" stroke="none" d="
M -15.6 -13.3
L -15.6 -13.1 -15.4 -13.3 -15.6 -13.3 Z"/>
</g>

<g id="MovieClip_mc_09_0_Layer1_0_MEMBER_1_MEMBER_0_FILL">
<path fill="#CCCC99" stroke="none" d="
M 16.2 6.1
L 16.2 6.05 15.35 6.25 15.25 6.25 15.25 6.3 14.6 6.2 13.95 6 12.85 5.45 12.55 5.25 12.3 5 12.1 4.85 11.95 4.7 11.7 4.5 11.6 4.35 11.55 4.3 11.5 4.3 11.45 4.25 11.45 4.2 11.35 4.15 11 3.8 10.95 5.45 10.85 5.85 10.8 6.3 10.6 7.05 10.15 8.1 9.55 9.1 9.45 9.15 9.4 9.25 9.05 9.75 7.8 10.85 6.3 11.85 3.4 13.05 -0.2 13.9 -0.5 13.9 -1.2 14.1 -1.7 14.15 -2 14.15 -4.9 14.85 -4.6 14.9 5 13.15 6.25 12.75 6.3 12.7 6.45 12.7 7.75 12.3 12.45 10 14.05 8.55 16.2 6.1 Z"/>
</g>

<g id="MovieClip_mc_10_0_Layer1_0_MEMBER_0_MEMBER_0_FILL">
<path fill="#FFFFFF" stroke="none" d="
M 18.2 -11
L 14.35 -8.1 -13.65 -3.9 -17.95 -5.5 -17.05 11.05 0.65 -2 19.1 5.55 18.2 -11 Z"/>
</g>

<g id="MovieClip_mc_10_0_Layer1_0_MEMBER_0_MEMBER_1_FILL">
<path fill="#FFFFFF" stroke="none" d="
M 19.1 5.55
L 0.65 -2 -17.05 11.05 19.1 5.55 Z"/>
</g>

<g id="MovieClip_mc_10_0_Layer1_0_MEMBER_1_MEMBER_0_FILL">
<path fill="#FFFFFF" stroke="none" d="
M 0.85 1.1
L 18 -11.05 -18.05 -5.7 0.85 1.1 Z"/>
</g>

<g id="Layer0_9_MEMBER_0_FILL">
<path fill="#FF0000" stroke="none" d="
M -1.35 -11.8
L -2.25 -11.45 -3.1 -10.9 -4.2 -9.75 -4.8 -8.8 -5.3 -7.6 -6.15 -3.9 -6.6 -3.4 -6.2 -3.05 -5.8 -2.6 -5.8 -2.35 -5.85 -2.1 -5.95 -2.1 -5.95 -2.05 -6 -1.9 -6.2 -1.75 -7.3 -2.5 -8.95 -0.35 -10.15 1.75 -10.9 3.65 -11.2 4.85 -11.25 5.4 -11.2 6.5 -10.95 7.5 -9.95 9.25 -8.8 9.25 -7.7 9.05 -6.9 8.7 -6.75 8.65 -5.4 7.8 -5 7.4 -4.85 7.15 -4.25 6.5 -3.3 4.85 -3.25 4.65 -3.2 4.55 -3 4.25 -2.8 3.55 -2.5 2.85 -2.45 2.45 -2.1 1.25 -1.45 -3.45 -1.3 -10.5 -1.35 -10.85 -1.35 -11.8 Z"/>
</g>

<g id="Layer0_9_MEMBER_1_FILL">
<path fill="#8F6401" stroke="none" d="
M -11.95 -5.35
L -11.95 -5.2 -12.15 -4.55 -12.25 -4.4 -12.35 -4.2 -12.5 -4 -12.7 -3.8 -11.95 -3.85 -10.5 -3.7 -9.8 -3.5 -9.15 -3.4 -7.9 -2.85 -6.2 -1.75 -6 -1.9 -5.95 -2.05 -5.95 -2.1 -5.85 -2.1 -5.8 -2.35 -5.8 -2.6 -6.2 -3.05 -7.1 -3.8 -8.25 -4.55 -9.55 -5.1 -11 -5.45 -11.7 -5.55 -12.05 -5.55 -12 -5.5 -11.95 -5.35 Z"/>
</g>

<g id="Layer0_9_MEMBER_2_FILL">
<path fill="#CC9900" stroke="none" d="
M -12.05 -5.55
L -12.1 -5.55 -12.1 -5.6 -12.2 -5.55 -12.35 -5.4 -12.55 -5.15 -12.95 -4.35 -12.95 -3.95 -12.9 -3.8 -12.7 -3.8 -12.5 -4 -12.35 -4.2 -12.25 -4.4 -12.15 -4.55 -11.95 -5.2 -11.95 -5.35 -12 -5.5 -12.05 -5.55 Z"/>
</g>

<g id="Layer0_9_MEMBER_3_FILL">
<path fill="#CC0000" stroke="none" d="
M 8.55 -1.55
L 8.5 -4.2 8.05 -6.25 7.25 -8.25 5 -10.15 3.9 -10.85 1.85 -11.75 0.9 -11.95 -0.05 -12 -1.35 -11.8 -1.35 -10.85 -1.3 -10.5 -1.4 -4.5 -2.1 1.25 -2.5 2.85 -2.8 3.55 -3 4.25 -3.2 4.55 -3.25 4.65 -3.3 4.85 -4.25 6.5 -4.85 7.15 -5 7.4 -5.4 7.8 -6.75 8.65 -6.9 8.7 -7.7 9.05 -8.8 9.25 -9.95 9.25 -2.2 11.95 3.85 7.25 6 4.8 7.5 2.3 7.65 1.8 7.75 1.65 8.35 -0.25 8.55 -1.55 Z"/>
</g>

<g id="Layer0_9_MEMBER_4_FILL">
<path fill="#990000" stroke="none" d="
M 8.25 -5.55
L 8.5 -4.2 8.55 -1.55 8.35 -0.25 7.75 1.65 7.65 1.8 7.5 2.3 6 4.8 3.85 7.25 -2.2 11.95 1.45 11.9 11.65 8.35 12.35 5.25 14 2.3 14 1.9 13.95 1.5 13.85 1.15 13.85 1.1 13.8 0.85 13.8 0.65 13.4 -0.35 13.25 -0.6 13.15 -0.9 12.75 -1.55 12.7 -1.65 12.65 -1.7 12.5 -2 10.65 -4.55 7.25 -8.25 8.25 -5.55 Z"/>
</g>

<path id="MovieClip_mc_04_0_Layer1_0_MEMBER_0_MEMBER_2_1_STROKES" stroke="#999999" stroke-width="1" stroke-linejoin="round" stroke-linecap="round" fill="none" d="
M 2.2 -21.4
L 2.15 -21.25 2.15 -20.95 2.05 -20.8 2 -20.75 2 -20.7 1.9 -20.65 1.6 -20.8 1.5 -20.95 1.35 -20.95 1.25 -21 1.1 -20.9 1 -20.8 0.95 -20.6 0.75 -20.3 0.65 -20.2 0.45 -20.2 0.35 -20.25 0.15 -20.55 -0.05 -20.75 -0.15 -20.8 -0.4 -20.75 -0.85 -20.3 -1 -20.35 -1.1 -20.4 -1.35 -20.75 -1.55 -20.95 -1.7 -20.95 -1.9 -20.85 -1.95 -20.8 -2.25 -20.65 -2.45 -20.75 -2.6 -20.85 -2.85 -19.7 -2.85 -19.35 -2.9 -19.35 -2.9 -18.9 -2.7 -18.5 -2.4 -18.1 -1.95 -17.7 -2 -17.5 -1.95 -17.5 0.1 -17.4 2.4 -17.65 2.35 -17.85 2.6 -18.2 2.95 -18.55 3 -18.7 3 -18.9 3.05 -18.9 3.05 -19.2 3 -19.4 3 -19.85 2.5 -21.45 2.25 -21.45 2.2 -21.4 Z
M 1.25 -18.6
L 1.25 -18.35 1.15 -18.25 -1 -18.15 -2.25 -18.75 -2.4 -18.85 -2.4 -19.2 -2.35 -19.3 -2.35 -19.35 -2.25 -19.45 -2.15 -19.5 -1.8 -19.25 -1.75 -19.05 -1.65 -19.05 -1.45 -19 -1.2 -19 -0.85 -18.95 -0.3 -18.95 -0.05 -18.9 1.05 -18.9 1.1 -18.85 1.15 -18.85 1.15 -18.75 1.25 -18.6 Z"/>

<path id="MovieClip_mc_04_0_Layer1_0_MEMBER_0_MEMBER_4_1_STROKES" stroke="#999999" stroke-width="1" stroke-linejoin="round" stroke-linecap="round" fill="none" d="
M 2.4 -17.65
L 0.1 -17.4 -1.95 -17.5 -2 -17.5 -2.35 -16.25 -2.4 -16.2 -2.4 -16.15 -2.55 -15.35 -3.1 -13.65 -4.2 -11.65 -6.2 -6.45 -6.05 -6.3 -6.3 -6.15 -7 -3.1 -5.95 -0.4 6.3 -0.4 7 -2.9 6.2 -6.85 4.75 -11.15 4.55 -11.15 4.6 -11.5 4.55 -11.5 4.55 -11.55 4.3 -12.1 4.25 -12.3 4.15 -12.45 2.85 -15.7 2.4 -17.65 Z
M 3.1 -2.95
L 2.75 -2.3 -0.3 -2 -5.1 -2.85 -5.5 -3.7 -5.55 -4.05 -5.3 -5.6 -4 -9 -4.15 -9.3 -3.8 -9.5 -3.6 -9.95 -3.35 -10.35 -3.2 -10.75 -3 -11.05 -2.85 -11.35 -2.7 -11.55 -2.6 -11.75 -2.4 -11.85 -2.35 -11.95 -2.2 -12 -2.15 -12 -2 -11.9 -2 -11.8 -1.95 -11.65 -1.85 -11.15 -4.35 -4.05 -2.15 -3.65 2.75 -3.5 3.1 -2.95 Z
M 4.45 -2.55
L 3.85 -2.85 3.7 -3.15 4.35 -3.75 5.05 -3.25 4.45 -2.55 Z"/>

<path id="MovieClip_mc_04_0_Layer1_0_MEMBER_2_MEMBER_0_1_STROKES" stroke="#999999" stroke-width="1" stroke-linejoin="round" stroke-linecap="round" fill="none" d="
M 2.2 11.45
L 2.4 11.65 2.6 11.8 2.65 11.85 2.8 12.15 2.6 12.7 2.55 12.7 2.35 12.9 2.05 13.05 1.45 12.9 1.3 12.8 1.2 12.6 0.95 12.3 0.7 12.2 -0.05 12.2 -1 12.45 -1.7 12.95 -1.8 12.95 -1.85 13 -1.95 13.05 -2.2 13.1 -2.7 13.1 -2.9 13 -3.05 13 -3.25 12.9 -3.35 12.8 -3.5 12.6 -3.55 12.5 -3.65 12.5 -3.65 12.4 -3.7 12.4 -3.75 12.3 -5.15 12.3 -5.45 12.25 -5.95 12.25 -6.2 12.2 -6.4 12.2 -6.55 13.55 -6.45 21.2 -6.35 21.95 -6.35 22.25 -6.3 22.5 -6.3 22.7 -6.25 22.85 -6.25 22.9 -6.2 23 -6.2 22.95 -6.1 22.9 -1.2 24 4.7 23.6 6.3 22.8 6.3 22.7 6.35 22.5 6.35 22.25 6.4 21.9 6.25 12.65 5.95 11.15 5.85 10.8 5.7 10 -1.45 10.65 -5.95 10.2 -5.95 10.35 -6 10.4 -6.2 11.25 -6.05 11.15 -4.9 10.95 -3.35 11 -2.8 11.4 -2.55 11.65 -2.25 11.75 -2.25 11.7 -2.2 11.7 -2 11.65 -1.8 11.55 -1.65 11.45 -1.45 11.4 -1.1 11.2 -0.7 11.05 0.7 10.9 1.75 11.15 2.2 11.45 Z
M 3.5 11.9
L 3.5 11.35 3.8 11.05 4.05 11 4.3 11 4.5 11.05 4.65 11.35 4.7 11.55 4.65 11.75 4.5 12.05 4.45 12.05 4.45 12.2 4.1 12.3 3.9 12.25 3.8 12.25 3.6 12.05 3.5 11.9 Z
M 3.7 19.95
L 3.75 20.2 3.95 20.7 4.15 20.8 4.4 20.85 4.5 20.85 4.7 20.9 4.8 20.85 4.85 20.8 4.95 20.8 5.05 20.7 5.15 20.65 5.3 20.45 5.35 20.4 5.4 20.4 5.5 20.45 5.6 20.45 5.7 20.55 5.7 20.65 5.75 20.75 5.75 20.8 5.7 20.85 5.7 20.95 5.65 21.1 5.55 21.2 5.45 21.35 5.1 21.5 4.75 21.6 4.5 21.55 4.3 21.55 3.95 21.45 3.7 21.2 3.5 20.9 3.45 20.65 3.35 20.35 3.35 20 3.4 19.85 3.45 19.8 3.65 19.75 3.65 19.8 3.7 19.95 Z
M 1.05 20.2
L 1.3 20.2 1.4 20.4 1.45 20.55 1.45 20.7 1.25 21 1.2 21.1 0.9 21.2 0.8 21.2 0.8 21.25 0.75 21.3 0.6 21.3 0.45 21.35 0.1 21.3 -0.2 21.2 -0.7 20.65 -1.1 19.95 -1.1 19.6 -0.95 19.5 -0.75 19.55 -0.7 19.55 -0.6 19.65 -0.3 20.25 -0.1 20.5 0.15 20.6 0.4 20.65 0.55 20.65 0.65 20.6 0.7 20.6 0.8 20.5 0.8 20.45 0.9 20.4 1 20.25 1.05 20.2 Z
M -5.15 19.35
L -4.8 19.95 -4.65 20.15 -4.45 20.3 -4.3 20.35 -4.05 20.4 -3.95 20.35 -3.9 20.3 -3.55 19.75 -3.35 19.6 -3.35 19.65 -3.3 19.7 -3.15 19.75 -3.1 19.75 -3.05 19.95 -3.1 20.1 -3.15 20.35 -3.3 20.75 -3.65 21 -3.85 21.05 -4.05 21.05 -4.05 21.1 -4.4 21.05 -4.7 20.9 -5.05 20.65 -5.35 20.3 -5.55 19.9 -5.55 19.8 -5.7 19.5 -5.75 19.3 -5.7 19 -5.45 19 -5.3 19.15 -5.15 19.35 Z"/>

<path id="MovieClip_mc_05_0_Layer1_0_MEMBER_0_1_STROKES" stroke="#999999" stroke-width="1" stroke-linejoin="round" stroke-linecap="round" fill="none" d="
M 9.55 -12.65
L 6.3 -13.35 1.1 -13.7 -6.4 -13.35 -9.6 -12.65 -10.2 -12.45 -11.05 -12 -11.3 -11.8 -11.45 -11.55 -11.5 -11.3 -11.5 -9.85 -11.45 -9.8 -11.4 -9.65 -11.2 -9.5 -10.95 -9.25 -10.5 -9.05 -10.25 -8.9 -8.15 -8.3 -0.05 -7.6 5.35 -7.9 7.2 -8.2 7.4 -8.25 7.65 -8.25 8.1 -8.3 9.4 -8.65 9.75 -8.8 9.8 -8.85 9.9 -8.85 10.9 -9.25 10.95 -9.4 11.1 -9.45 11.3 -9.65 11.4 -9.85 11.5 -10 11.5 -11.25 11.4 -11.55 11.25 -11.75 10.95 -12 10.1 -12.45 9.55 -12.65 Z
M 10.05 -11.3
L 10.4 -11.2 10.95 -10.85 11.15 -10.65 10.7 -10.4 10.5 -10.35 10.45 -10.35 10.45 -10.3 10.4 -10.25 10.05 -10.05 8.1 -9.5 3.3 -8.9 -3.45 -8.9 -7.35 -9.35 -10.15 -10.05 -11.25 -10.65 -10.5 -11.2 -9.25 -11.6 -6.4 -12.15 -1.25 -12.55 5.35 -12.3 9.6 -11.5 10.05 -11.3 Z"/>

<path id="MovieClip_mc_05_0_Layer1_0_MEMBER_2_1_STROKES" stroke="#999999" stroke-width="1" stroke-linejoin="round" stroke-linecap="round" fill="none" d="
M -10.95 -9.25
L -10.1 -2.85
M 10.05 -2.85
L 10.9 -9.25"/>

<path id="MovieClip_mc_05_0_Layer1_0_MEMBER_3_1_STROKES" stroke="#999999" stroke-width="1" stroke-linejoin="round" stroke-linecap="round" fill="none" d="
M -9.9 -1.6
L -8.15 -1.15 -0.05 -0.45 8.1 -1.15 9.9 -1.6 10.05 -2.85 8.1 -2.3 7.2 -2.15 1.1 -1.6 -1.25 -1.6 -7.35 -2.15 -10.1 -2.85 -9.9 -1.6 Z"/>

<path id="MovieClip_mc_05_0_Layer1_0_MEMBER_4_MEMBER_0_1_STROKES" stroke="#999999" stroke-width="1" stroke-linejoin="round" stroke-linecap="round" fill="none" d="
M -9 3.7
L -7.8 12.3 -7.7 12.4 -7.55 12.5 -7.05 12.75 -5.55 13.2 -5 13.25 -4.45 13.4 3.15 13.6 3.8 13.45 4.45 13.4 5.1 13.25 5.7 13.2 7.2 12.75 7.3 12.7 7.45 12.6 7.65 12.5 7.95 12.3 7.95 12.25 8 12.15 9.05 3.7"/>

<path id="MovieClip_mc_05_0_Layer1_0_MEMBER_5_MEMBER_0_1_STROKES" stroke="#999999" stroke-width="1" stroke-linejoin="round" stroke-linecap="round" fill="none" d="
M -9.95 -2.1
L -9.75 -0.65
M 9.9 -0.7
L 10 -2.1"/>

<path id="MovieClip_mc_05_0_Layer1_0_MEMBER_5_MEMBER_1_1_STROKES" stroke="#999999" stroke-width="1" stroke-linejoin="round" stroke-linecap="round" fill="none" d="
M 7.5 -0.15
L 7.3 -0.1 2.3 0.45 1.3 0.45 1.2 0.5 -5.45 0.2 -9.05 -0.45 -9.75 -0.65 -9.55 0.8 -8.95 0.9 -8.2 1.15 -6.4 1.45 1.2 1.85 1.3 1.8 2.3 1.8 6.4 1.45 7.3 1.3 7.5 1.2 7.75 1.2 8.2 1.15 9.7 0.7 9.9 -0.7 7.75 -0.15 7.5 -0.15 Z"/>

<path id="MovieClip_mc_05_0_Layer1_0_MEMBER_5_MEMBER_2_1_STROKES" stroke="#999999" stroke-width="1" stroke-linejoin="round" stroke-linecap="round" fill="none" d="
M 9.5 2.3
L 8.2 2.65 1.3 3.3 1.2 3.35 0.05 3.4 -8.2 2.65 -8.8 2.45 -9.35 2.35 -8.9 3.95 -2.3 4.7 5.45 4.4 9 3.9 9.5 2.3 Z"/>

<path id="MovieClip_mc_05_0_Layer1_0_MEMBER_5_MEMBER_3_1_STROKES" stroke="#999999" stroke-width="1" stroke-linejoin="round" stroke-linecap="round" fill="none" d="
M -9.55 0.8
L -9.35 2.35
M 9.5 2.3
L 9.7 0.7"/>

<path id="MovieClip_mc_10_0_Layer1_0_MEMBER_0_MEMBER_2_1_STROKES" stroke="#CCCCCC" stroke-width="1" stroke-linejoin="round" stroke-linecap="round" fill="none" d="
M -17.05 11.05
L 0.65 -2 19.1 5.55"/>

<path id="MovieClip_mc_10_0_Layer1_0_MEMBER_0_MEMBER_3_1_STROKES" stroke="#CCCCCC" stroke-width="1" stroke-linejoin="round" stroke-linecap="round" fill="none" d="
M -17.95 -5.5
L -17.05 11.05"/>

<path id="MovieClip_mc_10_0_Layer1_0_MEMBER_0_MEMBER_4_1_STROKES" stroke="#CCCCCC" stroke-width="1" stroke-linejoin="round" stroke-linecap="round" fill="none" d="
M -17.05 11.05
L 19.1 5.55"/>

<path id="MovieClip_mc_10_0_Layer1_0_MEMBER_0_MEMBER_5_1_STROKES" stroke="#CCCCCC" stroke-width="1" stroke-linejoin="round" stroke-linecap="round" fill="none" d="
M 19.1 5.55
L 18.2 -11"/>

<path id="MovieClip_mc_10_0_Layer1_0_MEMBER_1_MEMBER_1_1_STROKES" stroke="#CCCCCC" stroke-width="1" stroke-linejoin="round" stroke-linecap="round" fill="none" d="
M 0.85 1.1
L -18.05 -5.7 18 -11.05 0.85 1.1 Z"/>
</defs>

<g id="mc_0202" transform="matrix( 1, 0, 0, 1, 195.9,158.2) ">
<g id="botao" transform="matrix( 1.56280517578125, 0, 0, 1.565521240234375, 0,0) "/>

<g transform="matrix( 1, 0, 0, 1, 0,0) ">
<use xlink:href="#MovieClip_mc_01_0_Layer1_0_MEMBER_0_MEMBER_0_FILL"/>
</g>

<g transform="matrix( 1, 0, 0, 1, 0,0) ">
<use xlink:href="#MovieClip_mc_01_0_Layer1_0_MEMBER_0_MEMBER_1_FILL"/>
</g>

<g transform="matrix( 1, 0, 0, 1, 0,0) ">
<use xlink:href="#MovieClip_mc_01_0_Layer1_0_MEMBER_0_MEMBER_2_FILL"/>
</g>

<g transform="matrix( 1, 0, 0, 1, 0,0) ">
<use xlink:href="#MovieClip_mc_01_0_Layer1_0_MEMBER_0_MEMBER_3_FILL"/>
</g>

<g transform="matrix( 1, 0, 0, 1, 0,0) ">
<use xlink:href="#MovieClip_mc_01_0_Layer1_0_MEMBER_1_MEMBER_0_FILL"/>
</g>

<g transform="matrix( 1, 0, 0, 1, 0,0) ">
<use xlink:href="#MovieClip_mc_01_0_Layer1_0_MEMBER_1_MEMBER_1_FILL"/>
</g>

<g transform="matrix( 1, 0, 0, 1, 0,0) ">
<use xlink:href="#MovieClip_mc_01_0_Layer1_0_MEMBER_2_MEMBER_0_FILL"/>
</g>
</g>

<g id="mc_0102" transform="matrix( 1, 0, 0, 1, 195.9,282.7) ">
<g id="botao_FL" transform="matrix( 1.56280517578125, 0, 0, 1.565521240234375, 0,0) "/>

<g transform="matrix( 1, 0, 0, 1, 0,0) ">
<use xlink:href="#MovieClip_mc_02_0_Layer1_0_MEMBER_0_MEMBER_0_FILL"/>
</g>

<g transform="matrix( 1, 0, 0, 1, 0,0) ">
<use xlink:href="#MovieClip_mc_02_0_Layer1_0_MEMBER_0_MEMBER_1_FILL"/>
</g>

<g transform="matrix( 1, 0, 0, 1, 0,0) ">
<use xlink:href="#MovieClip_mc_02_0_Layer1_0_MEMBER_0_MEMBER_2_FILL"/>
</g>

<g transform="matrix( 1, 0, 0, 1, 0,0) ">
<use xlink:href="#MovieClip_mc_02_0_Layer1_0_MEMBER_0_MEMBER_3_FILL"/>
</g>

<g transform="matrix( 1, 0, 0, 1, 0,0) ">
<use xlink:href="#MovieClip_mc_02_0_Layer1_0_MEMBER_0_MEMBER_4_FILL"/>
</g>

<g transform="matrix( 1, 0, 0, 1, 0,0) ">
<use xlink:href="#MovieClip_mc_02_0_Layer1_0_MEMBER_0_MEMBER_5_FILL"/>
</g>

<g transform="matrix( 1, 0, 0, 1, 0,0) ">
<use xlink:href="#MovieClip_mc_02_0_Layer1_0_MEMBER_0_MEMBER_6_FILL"/>
</g>

<g transform="matrix( 1, 0, 0, 1, 0,0) ">
<use xlink:href="#MovieClip_mc_02_0_Layer1_0_MEMBER_1_MEMBER_0_FILL"/>
</g>
</g>

<g id="mc_0101" transform="matrix( 1, 0, 0, 1, 116.3,242.7) ">
<g id="botao_FL_FL" transform="matrix( 1.56280517578125, 0, 0, 1.565521240234375, 0,0) "/>

<g transform="matrix( 1, 0, 0, 1, 0,0) ">
<use xlink:href="#MovieClip_mc_03_0_Layer1_0_MEMBER_0_MEMBER_0_FILL"/>
</g>

<g transform="matrix( 1, 0, 0, 1, 0,0) ">
<use xlink:href="#MovieClip_mc_03_0_Layer1_0_MEMBER_0_MEMBER_1_FILL"/>
</g>

<g transform="matrix( 1, 0, 0, 1, 0,0) ">
<use xlink:href="#MovieClip_mc_03_0_Layer1_0_MEMBER_0_MEMBER_2_FILL"/>
</g>

<g transform="matrix( 1, 0, 0, 1, 0,0) ">
<use xlink:href="#MovieClip_mc_03_0_Layer1_0_MEMBER_0_MEMBER_3_FILL"/>
</g>

<g transform="matrix( 1, 0, 0, 1, 0,0) ">
<use xlink:href="#MovieClip_mc_03_0_Layer1_0_MEMBER_0_MEMBER_4_FILL"/>
</g>

<g transform="matrix( 1, 0, 0, 1, 0,0) ">
<use xlink:href="#MovieClip_mc_03_0_Layer1_0_MEMBER_0_MEMBER_5_FILL"/>
</g>

<g transform="matrix( 1, 0, 0, 1, 0,0) ">
<use xlink:href="#MovieClip_mc_03_0_Layer1_0_MEMBER_1_MEMBER_0_FILL"/>
</g>

<g transform="matrix( 1, 0, 0, 1, 0,0) ">
<use xlink:href="#MovieClip_mc_03_0_Layer1_0_MEMBER_2_MEMBER_0_FILL"/>
</g>
</g>

<g id="mc_0104" transform="matrix( 1, 0, 0, 1, 355.1,158.2) ">
<g id="botao_FL_FL_FL" transform="matrix( 1.56280517578125, 0, 0, 1.565521240234375, 0,0) "/>

<g transform="matrix( 1, 0, 0, 1, 0,0) ">
<use xlink:href="#MovieClip_mc_04_0_Layer1_0_MEMBER_0_MEMBER_0_FILL"/>
</g>

<g transform="matrix( 1, 0, 0, 1, 0,0) ">
<use xlink:href="#MovieClip_mc_04_0_Layer1_0_MEMBER_0_MEMBER_1_FILL"/>
</g>

<g transform="matrix( 1, 0, 0, 1, 0,0) ">
<use xlink:href="#MovieClip_mc_04_0_Layer1_0_MEMBER_0_MEMBER_2_FILL"/>

<use xlink:href="#MovieClip_mc_04_0_Layer1_0_MEMBER_0_MEMBER_2_1_STROKES"/>
</g>

<g transform="matrix( 1, 0, 0, 1, 0,0) ">
<use xlink:href="#MovieClip_mc_04_0_Layer1_0_MEMBER_0_MEMBER_3_FILL"/>
</g>

<g transform="matrix( 1, 0, 0, 1, 0,0) ">
<use xlink:href="#MovieClip_mc_04_0_Layer1_0_MEMBER_0_MEMBER_4_FILL"/>

<use xlink:href="#MovieClip_mc_04_0_Layer1_0_MEMBER_0_MEMBER_4_1_STROKES"/>
</g>

<g transform="matrix( 1, 0, 0, 1, 0,0) ">
<use xlink:href="#MovieClip_mc_04_0_Layer1_0_MEMBER_1_MEMBER_0_FILL"/>
</g>

<g transform="matrix( 1, 0, 0, 1, 0,0) ">
<use xlink:href="#MovieClip_mc_04_0_Layer1_0_MEMBER_1_MEMBER_1_FILL"/>
</g>

<g transform="matrix( 1, 0, 0, 1, 0,0) ">
<use xlink:href="#MovieClip_mc_04_0_Layer1_0_MEMBER_2_MEMBER_0_FILL"/>

<use xlink:href="#MovieClip_mc_04_0_Layer1_0_MEMBER_2_MEMBER_0_1_STROKES"/>
</g>
</g>

<g id="mc_0105" transform="matrix( 1, 0, 0, 1, 434.7,242.7) ">
<g id="botao_FL_FL_FL_FL" transform="matrix( 1.56280517578125, 0, 0, 1.565521240234375, 0,0) "/>

<g transform="matrix( 1, 0, 0, 1, 0,0) ">
<use xlink:href="#MovieClip_mc_05_0_Layer1_0_MEMBER_0_FILL"/>

<use xlink:href="#MovieClip_mc_05_0_Layer1_0_MEMBER_0_1_STROKES"/>
</g>

<g transform="matrix( 1, 0, 0, 1, 0,0) ">
<use xlink:href="#MovieClip_mc_05_0_Layer1_0_MEMBER_1_FILL"/>
</g>

<g transform="matrix( 1, 0, 0, 1, 0,0) ">
<use xlink:href="#MovieClip_mc_05_0_Layer1_0_MEMBER_2_FILL"/>

<use xlink:href="#MovieClip_mc_05_0_Layer1_0_MEMBER_2_1_STROKES"/>
</g>

<g transform="matrix( 1, 0, 0, 1, 0,0) ">
<use xlink:href="#MovieClip_mc_05_0_Layer1_0_MEMBER_3_FILL"/>

<use xlink:href="#MovieClip_mc_05_0_Layer1_0_MEMBER_3_1_STROKES"/>
</g>

<g transform="matrix( 1, 0, 0, 1, 0,0) ">
<use xlink:href="#MovieClip_mc_05_0_Layer1_0_MEMBER_4_MEMBER_0_FILL"/>

<use xlink:href="#MovieClip_mc_05_0_Layer1_0_MEMBER_4_MEMBER_0_1_STROKES"/>
</g>

<g transform="matrix( 1, 0, 0, 1, 0,0) ">
<use xlink:href="#MovieClip_mc_05_0_Layer1_0_MEMBER_5_MEMBER_0_FILL"/>

<use xlink:href="#MovieClip_mc_05_0_Layer1_0_MEMBER_5_MEMBER_0_1_STROKES"/>
</g>

<g transform="matrix( 1, 0, 0, 1, 0,0) ">
<use xlink:href="#MovieClip_mc_05_0_Layer1_0_MEMBER_5_MEMBER_1_FILL"/>

<use xlink:href="#MovieClip_mc_05_0_Layer1_0_MEMBER_5_MEMBER_1_1_STROKES"/>
</g>

<g transform="matrix( 1, 0, 0, 1, 0,0) ">
<use xlink:href="#MovieClip_mc_05_0_Layer1_0_MEMBER_5_MEMBER_2_FILL"/>

<use xlink:href="#MovieClip_mc_05_0_Layer1_0_MEMBER_5_MEMBER_2_1_STROKES"/>
</g>

<g transform="matrix( 1, 0, 0, 1, 0,0) ">
<use xlink:href="#MovieClip_mc_05_0_Layer1_0_MEMBER_5_MEMBER_3_FILL"/>

<use xlink:href="#MovieClip_mc_05_0_Layer1_0_MEMBER_5_MEMBER_3_1_STROKES"/>
</g>
</g>

<g id="mc_0203" transform="matrix( 1, 0, 0, 1, 275.5,118.2) ">
<g id="botao_FL_FL_FL_FL_FL" transform="matrix( 1.56280517578125, 0, 0, 1.565521240234375, 0,0) "/>

<g transform="matrix( 1, 0, 0, 1, 0,0) ">
<use xlink:href="#MovieClip_mc_06_0_Layer1_0_MEMBER_0_MEMBER_0_MEMBER_0_FILL"/>
</g>

<g transform="matrix( 1, 0, 0, 1, 0,0) ">
<use xlink:href="#MovieClip_mc_06_0_Layer1_0_MEMBER_0_MEMBER_0_MEMBER_1_FILL"/>
</g>

<g transform="matrix( 1, 0, 0, 1, 0,0) ">
<use xlink:href="#MovieClip_mc_06_0_Layer1_0_MEMBER_0_MEMBER_0_MEMBER_2_FILL"/>
</g>

<g transform="matrix( 1, 0, 0, 1, 0,0) ">
<use xlink:href="#MovieClip_mc_06_0_Layer1_0_MEMBER_0_MEMBER_0_MEMBER_3_FILL"/>
</g>

<g transform="matrix( 1, 0, 0, 1, 0,0) ">
<use xlink:href="#MovieClip_mc_06_0_Layer1_0_MEMBER_0_MEMBER_0_MEMBER_4_FILL"/>
</g>

<g transform="matrix( 1, 0, 0, 1, 0,0) ">
<use xlink:href="#MovieClip_mc_06_0_Layer1_0_MEMBER_0_MEMBER_0_MEMBER_5_FILL"/>
</g>

<g transform="matrix( 1, 0, 0, 1, 0,0) ">
<use xlink:href="#MovieClip_mc_06_0_Layer1_0_MEMBER_0_MEMBER_0_MEMBER_6_FILL"/>
</g>

<g transform="matrix( 1, 0, 0, 1, 0,0) ">
<use xlink:href="#MovieClip_mc_06_0_Layer1_0_MEMBER_0_MEMBER_0_MEMBER_7_FILL"/>
</g>

<g transform="matrix( 1, 0, 0, 1, 0,0) ">
<use xlink:href="#MovieClip_mc_06_0_Layer1_0_MEMBER_0_MEMBER_0_MEMBER_8_FILL"/>
</g>

<g transform="matrix( 1, 0, 0, 1, 0,0) ">
<use xlink:href="#MovieClip_mc_06_0_Layer1_0_MEMBER_0_MEMBER_1_MEMBER_0_FILL"/>
</g>

<g transform="matrix( 1, 0, 0, 1, 0,0) ">
<use xlink:href="#MovieClip_mc_06_0_Layer1_0_MEMBER_0_MEMBER_1_MEMBER_1_FILL"/>
</g>

<g transform="matrix( 1, 0, 0, 1, 0,0) ">
<use xlink:href="#MovieClip_mc_06_0_Layer1_0_MEMBER_0_MEMBER_1_MEMBER_2_FILL"/>
</g>

<g transform="matrix( 1, 0, 0, 1, 0,0) ">
<use xlink:href="#MovieClip_mc_06_0_Layer1_0_MEMBER_0_MEMBER_1_MEMBER_3_FILL"/>
</g>

<g transform="matrix( 1, 0, 0, 1, 0,0) ">
<use xlink:href="#MovieClip_mc_06_0_Layer1_0_MEMBER_0_MEMBER_1_MEMBER_4_FILL"/>
</g>

<g transform="matrix( 1, 0, 0, 1, 0,0) ">
<use xlink:href="#MovieClip_mc_06_0_Layer1_0_MEMBER_0_MEMBER_1_MEMBER_5_FILL"/>
</g>

<g transform="matrix( 1, 0, 0, 1, 0,0) ">
<use xlink:href="#MovieClip_mc_06_0_Layer1_0_MEMBER_0_MEMBER_1_MEMBER_6_FILL"/>
</g>

<g transform="matrix( 1, 0, 0, 1, 0,0) ">
<use xlink:href="#MovieClip_mc_06_0_Layer1_0_MEMBER_0_MEMBER_1_MEMBER_7_FILL"/>
</g>

<g transform="matrix( 1, 0, 0, 1, 0,0) ">
<use xlink:href="#MovieClip_mc_06_0_Layer1_0_MEMBER_0_MEMBER_1_MEMBER_8_FILL"/>
</g>

<g transform="matrix( 1, 0, 0, 1, 0,0) ">
<use xlink:href="#MovieClip_mc_06_0_Layer1_0_MEMBER_0_MEMBER_2_MEMBER_0_FILL"/>
</g>

<g transform="matrix( 1, 0, 0, 1, 0,0) ">
<use xlink:href="#MovieClip_mc_06_0_Layer1_0_MEMBER_0_MEMBER_2_MEMBER_1_FILL"/>
</g>

<g transform="matrix( 1, 0, 0, 1, 0,0) ">
<use xlink:href="#MovieClip_mc_06_0_Layer1_0_MEMBER_0_MEMBER_2_MEMBER_2_FILL"/>
</g>

<g transform="matrix( 1, 0, 0, 1, 0,0) ">
<use xlink:href="#MovieClip_mc_06_0_Layer1_0_MEMBER_0_MEMBER_2_MEMBER_3_FILL"/>
</g>

<g transform="matrix( 1, 0, 0, 1, 0,0) ">
<use xlink:href="#MovieClip_mc_06_0_Layer1_0_MEMBER_0_MEMBER_2_MEMBER_4_FILL"/>
</g>

<g transform="matrix( 1, 0, 0, 1, 0,0) ">
<use xlink:href="#MovieClip_mc_06_0_Layer1_0_MEMBER_0_MEMBER_2_MEMBER_5_FILL"/>
</g>

<g transform="matrix( 1, 0, 0, 1, 0,0) ">
<use xlink:href="#MovieClip_mc_06_0_Layer1_0_MEMBER_1_MEMBER_0_FILL"/>
</g>
</g>

<g id="mc_0204" transform="matrix( 1, 0, 0, 1, 275.5,242.7) ">
<g id="botao_FL_FL_FL_FL_FL_FL" transform="matrix( 1.56280517578125, 0, 0, 1.565521240234375, 0,0) "/>

<g transform="matrix( 1, 0, 0, 1, 0,0) ">
<use xlink:href="#MovieClip_mc_07_0_Layer1_0_MEMBER_0_MEMBER_0_FILL"/>
</g>

<g transform="matrix( 1, 0, 0, 1, 0,0) ">
<use xlink:href="#MovieClip_mc_07_0_Layer1_0_MEMBER_0_MEMBER_1_FILL"/>
</g>

<g transform="matrix( 1, 0, 0, 1, 0,0) ">
<use xlink:href="#MovieClip_mc_07_0_Layer1_0_MEMBER_0_MEMBER_2_FILL"/>
</g>

<g transform="matrix( 1, 0, 0, 1, 0,0) ">
<use xlink:href="#MovieClip_mc_07_0_Layer1_0_MEMBER_0_MEMBER_3_FILL"/>
</g>

<g transform="matrix( 1, 0, 0, 1, 0,0) ">
<use xlink:href="#MovieClip_mc_07_0_Layer1_0_MEMBER_0_MEMBER_4_FILL"/>
</g>

<g transform="matrix( 1, 0, 0, 1, 0,0) ">
<use xlink:href="#MovieClip_mc_07_0_Layer1_0_MEMBER_1_MEMBER_0_FILL"/>
</g>
</g>

<g id="mc_0103" transform="matrix( 1, 0, 0, 1, 355.1,282.7) ">
<g id="botao_FL_FL_FL_FL_FL_FL_FL" transform="matrix( 1.56280517578125, 0, 0, 1.565521240234375, 0,0) "/>

<g transform="matrix( 1, 0, 0, 1, 0,0) ">
<use xlink:href="#MovieClip_mc_09_0_Layer1_0_MEMBER_0_MEMBER_0_MEMBER_0_MEMBER_0_FILL"/>
</g>

<g transform="matrix( 1, 0, 0, 1, 0,0) ">
<use xlink:href="#MovieClip_mc_09_0_Layer1_0_MEMBER_0_MEMBER_1_FILL"/>
</g>

<g transform="matrix( 1, 0, 0, 1, 0,0) ">
<use xlink:href="#MovieClip_mc_09_0_Layer1_0_MEMBER_0_MEMBER_2_FILL"/>
</g>

<g transform="matrix( 1, 0, 0, 1, 0,0) ">
<use xlink:href="#MovieClip_mc_09_0_Layer1_0_MEMBER_1_MEMBER_0_FILL"/>
</g>
</g>

<g id="mc_0106" transform="matrix( 1, 0, 0, 1, 434.7,118.2) ">
<g id="botao_FL_FL_FL_FL_FL_FL_FL_FL" transform="matrix( 1.56280517578125, 0, 0, 1.565521240234375, 0,0) "/>

<g transform="matrix( 1, 0, 0, 1, 0,0) ">
<use xlink:href="#MovieClip_mc_10_0_Layer1_0_MEMBER_0_MEMBER_0_FILL"/>
</g>

<g transform="matrix( 1, 0, 0, 1, 0,0) ">
<use xlink:href="#MovieClip_mc_10_0_Layer1_0_MEMBER_0_MEMBER_1_FILL"/>
</g>

<g transform="matrix( 1, 0, 0, 1, 0,0) ">
<use xlink:href="#MovieClip_mc_10_0_Layer1_0_MEMBER_0_MEMBER_2_1_STROKES"/>
</g>

<g transform="matrix( 1, 0, 0, 1, 0,0) ">
<use xlink:href="#MovieClip_mc_10_0_Layer1_0_MEMBER_0_MEMBER_3_1_STROKES"/>
</g>

<g transform="matrix( 1, 0, 0, 1, 0,0) ">
<use xlink:href="#MovieClip_mc_10_0_Layer1_0_MEMBER_0_MEMBER_4_1_STROKES"/>
</g>

<g transform="matrix( 1, 0, 0, 1, 0,0) ">
<use xlink:href="#MovieClip_mc_10_0_Layer1_0_MEMBER_0_MEMBER_5_1_STROKES"/>
</g>

<g transform="matrix( 1, 0, 0, 1, 0,0) ">
<use xlink:href="#MovieClip_mc_10_0_Layer1_0_MEMBER_1_MEMBER_0_FILL"/>
</g>

<g transform="matrix( 1, 0, 0, 1, 0,0) ">
<use xlink:href="#MovieClip_mc_10_0_Layer1_0_MEMBER_1_MEMBER_1_1_STROKES"/>
</g>
</g>

<g transform="matrix( 1, 0, 0, 1, 24.5,25.05) ">
<use xlink:href="#Layer0_9_MEMBER_0_FILL"/>
</g>

<g transform="matrix( 1, 0, 0, 1, 24.5,25.05) ">
<use xlink:href="#Layer0_9_MEMBER_1_FILL"/>
</g>

<g transform="matrix( 1, 0, 0, 1, 24.5,25.05) ">
<use xlink:href="#Layer0_9_MEMBER_2_FILL"/>
</g>

<g transform="matrix( 1, 0, 0, 1, 24.5,25.05) ">
<use xlink:href="#Layer0_9_MEMBER_3_FILL"/>
</g>

<g transform="matrix( 1, 0, 0, 1, 24.5,25.05) ">
<use xlink:href="#Layer0_9_MEMBER_4_FILL"/>
</g>
</svg>
