
<svg xmlns="http://www.w3.org/2000/svg" version="1.1" xmlns:xlink="http://www.w3.org/1999/xlink" preserveAspectRatio="none" x="0px" y="0px" width="50px" height="50px" viewBox="0 0 50 50">
<defs>
<g id="Layer0_0_MEMBER_0_FILL">
<path fill="#D2A902" stroke="none" d="
M -222.9 -323.7
L -224.8 -324.3 -225.75 -324.4 -226.75 -324.3 -227.2 -324.15 -228 -323.75 -228.4 -323.45 -229.2 -322.7 -227.65 -321.25 -227.6 -321.25 -227.55 -321.15 -227.45 -321.05 -227.2 -320.85 -226.85 -320.4 -226.7 -320.25 -226.25 -319.7 -226.2 -319.65 -226.05 -319.35 -225.95 -319.25 -225.85 -319.05 -225.2 -319 -224.1 -318.8 -223.25 -318.5 -222.75 -318.2 -222.55 -318 -221.3 -319.8 -220.3 -320.95 -219.95 -321.2 -220.1 -321.5 -220.65 -322.2 -222.9 -323.7 Z"/>
</g>

<g id="Layer0_0_MEMBER_1_FILL">
<path fill="#D2A902" stroke="none" d="
M 23.1 15.05
L 22.85 14.7 22.55 14.4 22.25 14 22.05 13.8 21.95 13.65 21.2 12.85 20.05 15.35 20 15.4 21.15 16.5 21.2 16.25 21.3 16.05 21.55 15.7 21.95 15.4 22.45 15.2 23.1 15.05 Z"/>
</g>

<g id="Layer0_0_MEMBER_2_FILL">
<path fill="#FFCC00" stroke="none" d="
M 30 17.3
L 29 18.45 28.55 19.2 28.55 19.4
Q 28.7169921875 20.274609375 29.85 20.15
L 30.35 20.7 30.45 21 30.5 21.4 29.65 23.75 26.75 24.35 21.75 22.95 18.55 21.65 16.15 21.75 15.05 21.6 13.85 21.2 13.6 21 13.4 20.9 13.2 20.7 13.1 20.55 12.45 19.75 12 19 11.8 17.55 11.15 18.3 11.05 18.75 11 19.75 11.15 20.95 11.7 22.7 12.9 25.25 14.75 28.2 15.85 30.95 16.75 34.9 18.3 36 21.75 36.75 24.9 35.55 28.9 35.7 31.65 33.75 33.55 31.15 36.1 29.2 36.9 28.35 37.8 26.65 38.7 24.35 39 21.3 38.65 14.7 38.35 15.5 38.25 15.7 38.1 15.9 37.7 15.9 37.5 15.95 37 15.95 36.95 16 32.75 15.8 32.4 15.85 32.15 15.95 31.75 16 31.35 16.2 30.65 16.65 30.45 16.9 30 17.3 Z"/>
</g>

<g id="Layer0_0_MEMBER_3_FILL">
<path fill="#006633" stroke="none" d="
M 27.4 15.15
L 26.3 14.95 25.65 14.9 25.55 14.7 25.45 14.6 25.3 14.3 25.25 14.25 24.8 13.7 24.65 13.55 24.3 13.1 24.05 12.9 23.95 12.8 23.9 12.7 23.85 12.7 19.6 9.1 19.5 9.3 19.35 9.5 19.25 9.75 18.55 11.05 19.85 11.75 20.5 12.25 21.95 13.65 22.05 13.8 22.25 14 22.55 14.4 22.85 14.7 23.1 15.05 22.45 15.2 21.95 15.4 21.2 16
Q 21.1259765625 16.073828125 21.05 16.15 20.2419921875 16.8857421875 21.45 17.5 22.8900390625 18.27890625 24.65 18.35 26.4619140625 18.4236328125 27.85 17.5 29.2498046875 16.619921875 28.6 15.65
L 28.25 15.45 27.4 15.15 Z"/>
</g>

<g id="Layer0_0_MEMBER_4_FILL">
<path fill="#FEDB4E" stroke="none" d="
M 35.85 12.3
L 33.45 12.3 33.1 12.4 32.75 12.45 32.1 12.7 31.3 13.25 31.35 13.35
Q 30.85 13.35 29.95 14.25 29.05 15.15 28.9 15.9 28.75 16.65 27.9 17.65 27.8 17.75 26.85 18.05 25.9 18.35 24 18.1 23.15 18 21.85 17.2 21 15.75 19.35 15.05
L 19.25 15 18.5 14.45 17.15 13.8 16.6 13.75 16.05 13.8 15.15 14.05 14.25 14.7 12.8 16.15 11.9 17.45 11.65 17.75 11.5 18 11.5 18.05 12.35 20.25 13.2 21 13.3 21.15 13.5 21.35 13.7 21.45 13.95 21.65 15.15 22.1 16.25 22.25 18.65 22.15
Q 22.2 24.55 26.8 25.15
L 29.75 24.25
Q 31.20625 23.327734375 30.8 21.55 30.948046875 20.978515625 30.3 20.4
L 29.2 19.7 29 19.45 29.1 18.85 30.1 17.7 30.55 17.3 30.75 17.05 31.45 16.55 31.85 16.35 32.25 16.3 32.5 16.2 32.85 16.15 37.05 16.35 37.1 16.3 37.6 16.3 37.8 16.25 38.2 16.25 38.35 16.05 38.45 15.85 38.75 15.05 38.4 14.1 38.1 13.6 37.25 12.85 37 12.7 36.45 12.45 36.15 12.4 35.85 12.3 Z"/>
</g>

<g id="Layer0_0_MEMBER_5_MEMBER_0_FILL">
<path fill="#EABC04" stroke="none" d="
M 104.35 10
Q 103.2353515625 10.3306640625 102.6 11.3
L 102.35 11.55 101.8 12 99.55 15.05 98.45 16.1 98.15 16.3 97.8 16.45 97.2 16.6 93.2 16.45 92.9 16.5 92.7 16.5 92.55 16.6 92.1 16.8 91.65 17.1 90.75 17.5 90.05 17.65 89 17.6 87.3 17.25 86.65 16.9 85.15 15.85
Q 85.3052734375 16.7474609375 85.85 17.45
L 87.25 19.65 88.15 20.65 89 21.25 89.3 21.4 89.85 21.6 90.5 21.7 91 21.65 91.6 21.5 92.8 21 93.35 20.65 94.35 20.3 95.25 20.35 95.85 20.5 98.65 22.15 99.65 21.9 99.85 21.75 99.95 21.65 100.1 21.6 100.55 21.2 100.6 21.2 100.75 20.95 101 20.65 101.55 19.65 101.55 19.55 101.65 19.45 101.75 19.3 101.9 18.85 102.1 18.45 103.2 14.1 103.3 13.8 103.4 13.3 103.4 13.2 103.45 13.1
Q 103.7140625 11.6724609375 104.3 11.05
L 105.55 9.4 104.35 10 Z"/>
</g>
</defs>

<g transform="matrix( 1, 0, 0, 1, 251.6,334.4) ">
<use xlink:href="#Layer0_0_MEMBER_0_FILL"/>
</g>

<g transform="matrix( 1, 0, 0, 1, 0.15,0.3) ">
<use xlink:href="#Layer0_0_MEMBER_1_FILL"/>
</g>

<g transform="matrix( 1, 0, 0, 1, 0,0) ">
<use xlink:href="#Layer0_0_MEMBER_2_FILL"/>
</g>

<g transform="matrix( 1, 0, 0, 1, 0.1,0.25) ">
<use xlink:href="#Layer0_0_MEMBER_3_FILL"/>
</g>

<g transform="matrix( 1, 0, 0, 1, 0,0) ">
<use xlink:href="#Layer0_0_MEMBER_4_FILL"/>
</g>

<g transform="matrix( 1, 0, 0, 1, -68.5,18.55) ">
<use xlink:href="#Layer0_0_MEMBER_5_MEMBER_0_FILL"/>
</g>
</svg>
