<svg id="Layer_1" data-name="Layer 1" xmlns="http://www.w3.org/2000/svg" viewBox="0 0 886.29 496.46"><defs><style>.cls-1,.cls-2{fill:#fff;}.cls-1{fill-rule:evenodd;}</style></defs><title>acre</title><path class="cls-1" d="M281.24,173.23l.05,0s-.06,0-.05,0M215.9,248.47c0,7.62,0,11.66,1.53,19.3a76.5,76.5,0,0,0,5.71,18l3.31,6.58a71.33,71.33,0,0,0,5.59,8.34l3.6,4.2c.37.41.47.63.89,1.05l7.42,6.52a52,52,0,0,0,10,5.91,50.79,50.79,0,0,0,5.75,2.2,48.56,48.56,0,0,0,13.76,2.13,49.19,49.19,0,0,0,27.27-8.55l2.36-1.69c.4-.33.71-.56,1.09-.85l6.26-5.73a70,70,0,0,0,7.86-10.28c.55-.86,1-1.6,1.52-2.53s1-1.77,1.44-2.61a28.08,28.08,0,0,0,1.25-2.64c.45-1,.82-1.76,1.26-2.79a83.14,83.14,0,0,0,6-24,102.49,102.49,0,0,0,0-17.17c-1.06-8.28-1.59-11.41-4.32-19.66A74.29,74.29,0,0,0,316,205.63a67,67,0,0,0-5.33-6.66,8.92,8.92,0,0,1-.92-1,40,40,0,0,0-3.13-3,7.66,7.66,0,0,0-1-.93c-.44-.34-.58-.54-1.05-.9-5.21-4.08-8.74-6.55-15.14-9-1-.4-1.92-.68-3-1-4.16-1.4-6.07-1.4-10-2l-3.83-.21a50,50,0,0,0-13.45,2,51.69,51.69,0,0,0-15.47,7.76c-.75.56-1.44,1.08-2.2,1.69a13,13,0,0,0-1,.89,46.46,46.46,0,0,0-5,4.76c-.55.72-2.49,2.75-3.6,4.19-.54.71-1,1.4-1.61,2.14l-1.58,2.31a79.69,79.69,0,0,0-5.54,10,85.3,85.3,0,0,0-4.14,11.45,83.14,83.14,0,0,0-3,20.37M217.1,251c0-21.76,7.42-38.21,18.18-51.07l6.89-6.59a51.22,51.22,0,0,1,5.7-4.05c8-4.73,15.32-7.09,25.13-7.09,12.14,0,22.14,4.93,31,12.11l6.91,6.88c.22.25.2.28.39.51,10.16,12.58,17.55,29.15,17.55,50.64a79.6,79.6,0,0,1-8.79,37.37l-2.75,4.9a70.72,70.72,0,0,1-5.66,7.83l-2.77,3.08c-.64.63-1.29,1.38-2,1.94-5.51,4.61-6.66,5.84-13.69,9.39-6.26,3.16-13.16,4.45-20.73,4.45-9.24,0-18.3-3.71-24-7.32-19.67-12.41-31.44-36.73-31.44-63m15.15-2c0,6.29-.1,9.09,1.11,15.52,2.39,12.72,8.51,25.88,18.77,34.14,12,9.66,27,11.19,40,2.47,5.57-3.71,9.38-8.21,13-13.7l1.63-2.86a54.89,54.89,0,0,0,3.31-7.18,60.4,60.4,0,0,0,2.73-9.12,58.56,58.56,0,0,0,1.25-7.74c.07-.81.11-1.92.24-2.76l.17-5.74c-.23-1.68-.06-3.76-.3-5.55-1-7.74-1.63-11.86-4.58-19.25-.58-1.44-1.15-2.85-1.82-4.18a54.82,54.82,0,0,0-5.65-9.18l-2.7-3.29a28,28,0,0,0-2.24-2.25l-2.34-2.16c-5.24-4.43-13.17-8.44-21.38-8.44a33.11,33.11,0,0,0-20.34,6.64c-.59.44-1,.79-1.6,1.24a51.89,51.89,0,0,0-4.39,4.15c-.55.54-.83.94-1.35,1.5s-.83,1-1.27,1.58A49.36,49.36,0,0,0,241,218c-.72,1.2-1.43,2.44-2,3.66a65.33,65.33,0,0,0-6.74,27.43M172,135.61l11.58,12.71a10.12,10.12,0,0,1,1.08,1.17,9.5,9.5,0,0,0,1,1.08c.47.47.63.75,1,1.2s.76.7,1.12,1.13l18,19.59a1.39,1.39,0,0,0,.9-.75,31.17,31.17,0,0,0-3-3.41c-1.44-1.43-3.59-4-5.32-5.77l-3.14-3.45c-1.44-1.42-3.76-4.23-5.32-5.77-.46-.45-.58-.68-1-1.12l-15.92-17.36c-.37.25-.7.52-1.05.75m175.91,35.82c.23.35.5.68.75,1a2.78,2.78,0,0,0,1-.78,8.15,8.15,0,0,1,1.05-.91c.36-.31.55-.58.92-.87a10,10,0,0,0,1-.92c.39-.38.59-.44,1-.82l8-7.12a11.65,11.65,0,0,1,1-.93c.44-.34.6-.6,1-.94l17-15.18a1.39,1.39,0,0,0-.75-.9c-.94.5-4.67,4.15-6,5.22l-2,1.79c-.39.39-.6.46-1,.82-3.22,3-6.75,5.93-10,8.92l-2,1.73c-.4.34-.57.6-1,.94a13.41,13.41,0,0,0-1,.92l-7,6.22a12,12,0,0,0-1.05.9,4.91,4.91,0,0,1-1.09.86m-3-5,.72.78c.57-.17,1.87-1.8,2.76-2.69l1.35-1.34c.53-.53.8-1,1.35-1.5,1.88-1.86,3.52-3.68,5.4-5.54.51-.51.74-.9,1.27-1.43l9.48-9.85a3,3,0,0,0-1.05-.9c-.48.72-4.42,4.79-5.28,5.66-2.64,2.64-5.31,5.63-8,8.32l-8,8.51Zm-3.14-4.19c.28.42.43.7,1.05.75l8.95-9.18c.77-.77,8.6-8.47,9-9.11l-.78-.87L342.86,161c-.42.42-.92.71-1.09,1.31m-72.12,232-4.17,2.53,5.29,6,4.66-6L272,394.19Zm-8-4.12-4.89-1.93.34,5,4.55-3.11Zm21.79,2.77.46-5L279,389.67Zm17.4-24.65-1.26.34a2.32,2.32,0,0,0-.69-1,1.72,1.72,0,0,0-1.39-.32,1.88,1.88,0,0,0-1,.54,3.17,3.17,0,0,0-.72,1.48,7,7,0,0,0,.09,2.49,3,3,0,0,1,.94-1.26,3.12,3.12,0,0,1,1.35-.61,3,3,0,0,1,2.36.55,3.43,3.43,0,0,1,1.35,2.28,4.1,4.1,0,0,1-.08,1.91,3.06,3.06,0,0,1-.93,1.51,3.19,3.19,0,0,1-1.6.76,3.35,3.35,0,0,1-2.84-.7,6,6,0,0,1-1.73-3.7,7.14,7.14,0,0,1,.3-4.63,3.31,3.31,0,0,1,2.41-1.69,3.11,3.11,0,0,1,2.16.32,3,3,0,0,1,1.3,1.73m-4.41,5.5A3.07,3.07,0,0,0,297,375a2.11,2.11,0,0,0,1,.78,2.07,2.07,0,0,0,1.12.12,1.81,1.81,0,0,0,1.28-.91,2.65,2.65,0,0,0,.26-1.9,2.45,2.45,0,0,0-.9-1.6,1.94,1.94,0,0,0-1.57-.36,2,2,0,0,0-1.37.9,2.25,2.25,0,0,0-.3,1.75m-9.17,2.35,1.23-.29a2.21,2.21,0,0,0,.77,1.19,1.69,1.69,0,0,0,1.21.24,2,2,0,0,0,1-.42,2.31,2.31,0,0,0,.63-.82,4.4,4.4,0,0,0,.32-1.31,6.68,6.68,0,0,0,0-1.61c0-.06,0-.14-.05-.26a3,3,0,0,1-.93,1.15,2.85,2.85,0,0,1-1.4.58,2.9,2.9,0,0,1-2.34-.64,3.54,3.54,0,0,1-1.26-2.37,3.59,3.59,0,0,1,.59-2.71,3.2,3.2,0,0,1,2.24-1.31,3.38,3.38,0,0,1,2,.29,3.44,3.44,0,0,1,1.51,1.4,7.82,7.82,0,0,1,.86,2.91,9.63,9.63,0,0,1,0,3.28,3.85,3.85,0,0,1-1.05,2,3.34,3.34,0,0,1-1.95.9,2.8,2.8,0,0,1-3.33-2.21m4.66-5.39a2.58,2.58,0,0,0-.84-1.68,1.87,1.87,0,0,0-1.52-.46,2,2,0,0,0-1.41.92,2.67,2.67,0,0,0-.39,1.92,2.33,2.33,0,0,0,.83,1.55,2,2,0,0,0,1.59.42,1.93,1.93,0,0,0,1.39-.83,2.57,2.57,0,0,0,.34-1.83m-7.88,8.18-1.31.12-.75-8.29a7.06,7.06,0,0,1-1.15,1,9.64,9.64,0,0,1-1.31.8l-.11-1.25a7.77,7.77,0,0,0,1.79-1.43,4.65,4.65,0,0,0,1-1.52l.83-.08,1,10.65Zm-14-2.4,0-1.31,4-.1,0,1.31-4,.1Zm-4.93-4.84-1.31.05a2.4,2.4,0,0,0-.44-1.14,1.85,1.85,0,0,0-2.4-.32,3,3,0,0,0-1,1.27,6.87,6.87,0,0,0-.47,2.44,3.06,3.06,0,0,1,2.64-1.3,3,3,0,0,1,2.18,1.06,3.42,3.42,0,0,1,.8,2.51,3.82,3.82,0,0,1-.52,1.84,3.09,3.09,0,0,1-3,1.65,3.36,3.36,0,0,1-2.62-1.32,6.11,6.11,0,0,1-.84-4,7.08,7.08,0,0,1,1.33-4.43,3.3,3.3,0,0,1,2.74-1.1,3.12,3.12,0,0,1,2,.79,3,3,0,0,1,.87,2M259.56,376a3.13,3.13,0,0,0,.23,1.31,2.14,2.14,0,0,0,.76,1,2.12,2.12,0,0,0,1.07.37,1.88,1.88,0,0,0,1.45-.6,2.62,2.62,0,0,0,.67-1.79,2.44,2.44,0,0,0-.51-1.76,1.9,1.9,0,0,0-1.45-.7,2,2,0,0,0-1.53.56,2.3,2.3,0,0,0-.7,1.64m-10.27-.76.16-1.31,4,.49-.16,1.3-4-.48Zm-11.83-1.75,1.37.17a2.48,2.48,0,0,0,.39,1.62,2,2,0,0,0,1.22.77,2.1,2.1,0,0,0,1.71-.37,2.63,2.63,0,0,0,1-1.71,2.45,2.45,0,0,0-.26-1.86,2.15,2.15,0,0,0-1.48-1,2.35,2.35,0,0,0-1.18,0,2.31,2.31,0,0,0-.94.57l-1.17-.4,2.12-5.15,5.19,1.07-.26,1.22-4.16-.86-1.15,2.69a3.56,3.56,0,0,1,2.11-.25,3.18,3.18,0,0,1,2.11,1.42,3.38,3.38,0,0,1,.44,2.63,3.85,3.85,0,0,1-1.33,2.27,3.37,3.37,0,0,1-3,.7,3.48,3.48,0,0,1-2.15-1.27,3.17,3.17,0,0,1-.59-2.33m-4,1.8-1.26-.35,2.27-8a6.61,6.61,0,0,1-1.44.53,9.68,9.68,0,0,1-1.51.28l.35-1.22a7.89,7.89,0,0,0,2.19-.67,4.83,4.83,0,0,0,1.51-1.06l.81.23-2.91,10.28Zm76.71-2.19.28,1.22-6.87,1.57a2.2,2.2,0,0,1-.05-.92,4.46,4.46,0,0,1,.52-1.57,12.74,12.74,0,0,1,1.31-2,14.59,14.59,0,0,0,1.79-2.72,2.73,2.73,0,0,0,.25-1.67,1.77,1.77,0,0,0-.84-1.15,2,2,0,0,0-1.53-.19,2,2,0,0,0-1.35.88,2.19,2.19,0,0,0-.21,1.66l-1.35.17a3.34,3.34,0,0,1,.5-2.46,3.51,3.51,0,0,1,2.18-1.3,3.36,3.36,0,0,1,2.56.28,2.83,2.83,0,0,1,1.34,1.86,3.06,3.06,0,0,1,0,1.28,4.87,4.87,0,0,1-.56,1.46,20.36,20.36,0,0,1-1.54,2.27,17.59,17.59,0,0,0-1.17,1.64,4.25,4.25,0,0,0-.39.81l5.09-1.16Zm62.31-27.42a6.75,6.75,0,0,0,3.18,1.55,1.84,1.84,0,0,0,1.59-.71,1.76,1.76,0,0,0,.18-1.74,6.7,6.7,0,0,0-2.45-2.54,6.81,6.81,0,0,0-3.19-1.56,1.8,1.8,0,0,0-1.6.73,1.69,1.69,0,0,0-.24,1.61,6.74,6.74,0,0,0,2.52,2.66m-3.83,1.85a2.53,2.53,0,0,0-1.76-.66,1.85,1.85,0,0,0-1.41.7,2,2,0,0,0-.41,1.62,2.57,2.57,0,0,0,1,1.67,2.29,2.29,0,0,0,1.65.57,2.07,2.07,0,0,0,1.45-.78,1.91,1.91,0,0,0,.45-1.56,2.53,2.53,0,0,0-1-1.56m-.19,11.37-.89,1-6.16-5.6a6.3,6.3,0,0,1-.17,1.52,9.26,9.26,0,0,1-.42,1.48l-.93-.85a8.31,8.31,0,0,0,.36-2.26,5,5,0,0,0-.27-1.82l.57-.62,7.91,7.19Zm-12.1,7.7-.9-1,2.94-2.74.89,1-2.93,2.75Zm-3.38,7.09-1,.81L346.76,368a6.43,6.43,0,0,1-.42,1.47,8.49,8.49,0,0,1-.67,1.38l-.77-1a7.83,7.83,0,0,0,.73-2.17,4.78,4.78,0,0,0,0-1.84l.67-.52,6.6,8.41Zm-13.3,5.5-.7-1.11,3.38-2.16.7,1.1-3.38,2.17Zm-5.45,6.68-1.14-2.29-4.13,2.07-.54-1.08,1.27-8.34,1-.48,3.08,6.18,1.29-.65.53,1.07-1.27.64,1.13,2.28-1.17.59Zm-1.67-3.35-2.14-4.3-.85,5.79,3-1.49Zm-4.12,4.75.46,1.17L322.3,391a2.3,2.3,0,0,1-.19-.9,4.93,4.93,0,0,1,.29-1.63,12.53,12.53,0,0,1,1-2.12,14.81,14.81,0,0,0,1.38-3,2.69,2.69,0,0,0,0-1.69,1.75,1.75,0,0,0-1-1,2,2,0,0,0-1.54,0,2,2,0,0,0-1.2,1.08,2.11,2.11,0,0,0,0,1.67l-1.3.36a3.32,3.32,0,0,1,.14-2.52,3.56,3.56,0,0,1,2-1.61,3.36,3.36,0,0,1,2.56-.08,2.75,2.75,0,0,1,1.6,1.65,3.27,3.27,0,0,1,.21,1.26,5.2,5.2,0,0,1-.34,1.53,20.54,20.54,0,0,1-1.2,2.47,17.09,17.09,0,0,0-.92,1.8,4.38,4.38,0,0,0-.27.85l4.87-1.89Zm50-45.72.57-1.19a2.83,2.83,0,0,0,1.76.23,1.93,1.93,0,0,0,1.14-.83,2.18,2.18,0,0,0-.65-3,2,2,0,0,0-1.57-.32,2,2,0,0,0-1.31.93,4.07,4.07,0,0,0-.38.85l-.89-.75a.92.92,0,0,0,.12-.16,2.68,2.68,0,0,0,.47-1.5,1.51,1.51,0,0,0-.76-1.3,1.6,1.6,0,0,0-1.27-.24,1.76,1.76,0,0,0-1.08.79,1.83,1.83,0,0,0-.3,1.33,2.45,2.45,0,0,0,.85,1.34l-.92,1a3.3,3.3,0,0,1-1.1-2,3.18,3.18,0,0,1,.55-2.17,3.5,3.5,0,0,1,1.2-1.13,2.71,2.71,0,0,1,1.47-.39,2.63,2.63,0,0,1,1.35.43,2.23,2.23,0,0,1,.85,1,2.5,2.5,0,0,1,.15,1.4,2.49,2.49,0,0,1,1.56-.73,2.76,2.76,0,0,1,1.73.51,3.15,3.15,0,0,1,1.41,2.14,3.56,3.56,0,0,1-.59,2.69,3.42,3.42,0,0,1-2,1.48,3.21,3.21,0,0,1-2.39-.31m-174.91,36a10.05,10.05,0,0,1,1.82-2.47,3.87,3.87,0,0,1,1.88-1,3,3,0,0,1,2,.4,3.22,3.22,0,0,1,1.15,1,3,3,0,0,1,.45,1.39,5.31,5.31,0,0,1-.19,1.71,10.89,10.89,0,0,1-1,2.32,9.65,9.65,0,0,1-1.81,2.45,3.83,3.83,0,0,1-1.87,1,3.22,3.22,0,0,1-3.57-2.54,7.05,7.05,0,0,1,1.18-4.3m1.16.66a6.76,6.76,0,0,0-1.16,3.35,1.75,1.75,0,0,0,2.64,1.47,6.67,6.67,0,0,0,2.24-2.75,6.83,6.83,0,0,0,1.17-3.36,1.82,1.82,0,0,0-.92-1.49,1.66,1.66,0,0,0-1.63,0,6.8,6.8,0,0,0-2.34,2.81m-9.33-2.61,1.12.59a2.17,2.17,0,0,0-.19,1.41,1.64,1.64,0,0,0,.75,1,2,2,0,0,0,1,.35,2.08,2.08,0,0,0,1-.21,4.05,4.05,0,0,0,1.08-.77,6.4,6.4,0,0,0,1-1.23,2.65,2.65,0,0,0,.14-.23,3.08,3.08,0,0,1-1.45.27,2.87,2.87,0,0,1-1.44-.48,3,3,0,0,1-1.35-2,3.5,3.5,0,0,1,.62-2.61,3.55,3.55,0,0,1,2.23-1.66,3.21,3.21,0,0,1,2.54.48,3.44,3.44,0,0,1,1.29,1.51A3.53,3.53,0,0,1,204,374a7.76,7.76,0,0,1-1.27,2.75,9.69,9.69,0,0,1-2.15,2.48,3.73,3.73,0,0,1-2.11.82,3.35,3.35,0,0,1-2.06-.59,3,3,0,0,1-1.32-1.69,3,3,0,0,1,.27-2.16m7-1a2.6,2.6,0,0,0,.48-1.83,1.85,1.85,0,0,0-.85-1.33,2,2,0,0,0-1.66-.23,2.66,2.66,0,0,0-1.55,1.19,2.27,2.27,0,0,0-.39,1.71,2,2,0,0,0,.92,1.37,1.91,1.91,0,0,0,1.6.28,2.54,2.54,0,0,0,1.45-1.15m-11.38.87-1-.79,5-6.64a7.29,7.29,0,0,1-1.53,0,8.5,8.5,0,0,1-1.5-.29l.76-1a7.77,7.77,0,0,0,2.28.16,4.74,4.74,0,0,0,1.79-.44l.67.51L191,375.45Zm-8.74-11.36.87-1,3,2.68-.87,1-3-2.68Zm-5.15-8.78a2.44,2.44,0,0,1-.22-1.46,2.22,2.22,0,0,1,.69-1.19,2.57,2.57,0,0,1,2-.75,3.5,3.5,0,0,1,3.08,3.24,2.65,2.65,0,0,1-.84,2,2.18,2.18,0,0,1-1.2.6,2.42,2.42,0,0,1-1.42-.27,2.81,2.81,0,0,1,.27,1.79,2.77,2.77,0,0,1-.87,1.55,3.09,3.09,0,0,1-2.33.88,3.94,3.94,0,0,1-3.5-3.68,3.11,3.11,0,0,1,1-2.31,2.8,2.8,0,0,1,1.62-.82,2.65,2.65,0,0,1,1.73.42m-2.45,1.38a2.47,2.47,0,0,0-.61.95,1.94,1.94,0,0,0,0,1.12,2.27,2.27,0,0,0,.57,1,2.18,2.18,0,0,0,3.74-1.44,2.23,2.23,0,0,0-.64-1.57,2.06,2.06,0,0,0-1.49-.68,2.08,2.08,0,0,0-1.52.61m3.84-3.09a1.65,1.65,0,0,0-.56,1.2,1.77,1.77,0,0,0,.52,1.24,1.67,1.67,0,0,0,1.2.57,1.54,1.54,0,0,0,1.18-.46,1.63,1.63,0,0,0,.53-1.2,1.71,1.71,0,0,0-.5-1.23,1.73,1.73,0,0,0-1.21-.57,1.52,1.52,0,0,0-1.17.44m-10.41-4.74,1-.83,2.55,3.1-1,.84-2.55-3.11Zm.77-6.88-.82-1a2.34,2.34,0,0,0,.62-1.06,1.7,1.7,0,0,0-.3-1.39,1.81,1.81,0,0,0-.91-.69,2.92,2.92,0,0,0-1.64,0,7,7,0,0,0-2.22,1.12,3,3,0,0,1,1.54.33,3,3,0,0,1,1.1,1,2.94,2.94,0,0,1,.51,2.37,3.49,3.49,0,0,1-1.5,2.19,4,4,0,0,1-1.77.73,3.13,3.13,0,0,1-3.13-1.35,3.37,3.37,0,0,1-.56-2.87,6,6,0,0,1,2.64-3.13,7.09,7.09,0,0,1,4.32-1.66,3.19,3.19,0,0,1,2.54,1.48,2.83,2.83,0,0,1-.43,4m-6.81-1.71a2.92,2.92,0,0,0-.89,1,2.09,2.09,0,0,0-.31,1.19,2.11,2.11,0,0,0,.36,1.08,1.85,1.85,0,0,0,1.37.77,2.7,2.7,0,0,0,1.83-.57,2.46,2.46,0,0,0,1.08-1.48,2,2,0,0,0-.34-1.58,2.05,2.05,0,0,0-1.39-.86,2.3,2.3,0,0,0-1.71.45M215.13,388l-.52,1.14-6.39-3a2.24,2.24,0,0,1,.52-.76,4.56,4.56,0,0,1,1.38-.92,14,14,0,0,1,2.23-.75,14,14,0,0,0,3.08-1.06,2.59,2.59,0,0,0,1.21-1.17,1.68,1.68,0,0,0,.05-1.42,2,2,0,0,0-1.08-1.09,2,2,0,0,0-1.61-.13,2.1,2.1,0,0,0-1.18,1.18l-1.16-.69a3.24,3.24,0,0,1,1.91-1.64,3.52,3.52,0,0,1,2.52.29,3.36,3.36,0,0,1,1.84,1.79,2.8,2.8,0,0,1-.08,2.3,3.31,3.31,0,0,1-.78,1,5,5,0,0,1-1.33.81,19.24,19.24,0,0,1-2.62.85c-1,.26-1.64.45-1.94.57a3.66,3.66,0,0,0-.79.41l4.72,2.21Zm50.29-126.42h-.84L261.67,265a.68.68,0,0,0-.36-.23c-.51-.18-.89-.18-1-.1,0-.35-.14-.8-.18-1.25a2.53,2.53,0,0,1,.12-1.25,6.25,6.25,0,0,1,2-2.11,6.81,6.81,0,0,0,2.16-2.24,23.93,23.93,0,0,0-1.52-1.94,5.32,5.32,0,0,1-1.19-3,6.37,6.37,0,0,0,1.81,3.6,5.74,5.74,0,0,1,1.83,3.26,1.48,1.48,0,0,1,.16,1,3.74,3.74,0,0,0-.13.78m14.56-.46-1.14.35-10.56.07a5.23,5.23,0,0,1,.94-3.28,3.94,3.94,0,0,0,.7-3.44c0-.25.09-.31.27-.09,2.15,1.85,3.93,2.31,5.33,1.49a4.65,4.65,0,0,1,3.94-.69c.17,1,.28,2,.37,3.13,0,.83.09,1.67.15,2.46m6.39-2L282,260.46a8.25,8.25,0,0,1,.53-1.42,3,3,0,0,0,.38-1.63,21.75,21.75,0,0,0,2.47,1.23c.32.16.66.31,1,.45m25.27,8.69q.72-3.4,1.16-7.11a65.86,65.86,0,0,1-1.16,7.11M313,249.29l-14.12,6.93-9.33,2.07a19.4,19.4,0,0,1-2.92-2.75.87.87,0,0,1-.43-.77c0-.07-.14-.58-.33-1.44a3.86,3.86,0,0,1-.19-1.5,11.05,11.05,0,0,1,.81,2.5,3.82,3.82,0,0,0,1.68,2.37,1.8,1.8,0,0,1-.27-.72,5.74,5.74,0,0,1-.13-.6,6.82,6.82,0,0,0,.7.94,7.82,7.82,0,0,0,.29-1.64c0-1,.13-1.64.18-2,.17.17.22.69.2,1.5a3.4,3.4,0,0,1-.42,1.67,14,14,0,0,0,1.19-1.35,2.87,2.87,0,0,0,.79-1.6l1.06.82a12.28,12.28,0,0,0-.23-1.44,12.92,12.92,0,0,1-.19-1.29c0-.23.08-.07.33.53s.61.92,1,1c0-.23-.18-.76-.38-1.65a4.64,4.64,0,0,1-.25-1.71,3.64,3.64,0,0,0,.38.64,3.5,3.5,0,0,1,.45,1,1.28,1.28,0,0,0,.3-.94,2.59,2.59,0,0,0-.08-1.13,5.94,5.94,0,0,0,1.58,1.54,2.39,2.39,0,0,1-.19-.92c0-.35,0-.78-.05-1.2-.35-.19-.08,0,.75.68s1.7.47,2.46-.51a.29.29,0,0,1,.11-.21.48.48,0,0,0,.14-.38,1.85,1.85,0,0,0,.55-1c.29-.1.43-.37.39-.79a14.17,14.17,0,0,0-1.46-1.16,3,3,0,0,1-.38-.57l-.36-.44a5.69,5.69,0,0,0-3.1-1.76,1.79,1.79,0,0,1,1.42.49,1.79,1.79,0,0,0,1.75.19c-.38-.19-.95-.46-1.56-.8a2.81,2.81,0,0,0-1.45-.51,4.08,4.08,0,0,0,1-.32,3.11,3.11,0,0,1,1.07-.26c0-.07-.35-.1-1.14-.06A5.85,5.85,0,0,0,293,241a3.16,3.16,0,0,0-.27-.3,1.46,1.46,0,0,1-.37-.49c-1.66.62-2.46.49-2.4-.29a2.33,2.33,0,0,0-.45,1.63,3.64,3.64,0,0,0-1.8,0c-.32.16-1,.42-1.73.74a18.79,18.79,0,0,0-2.5,1.27,4,4,0,0,1-1.83.6c-.54,0-1.12.49-1.64,1.41a3,3,0,0,0-1.38.45,5.22,5.22,0,0,1-2.17.58l-1.5.15-.61-26.94c2.25,1.19,5.44,1.71,7,0,1.07-3.66-3.29-3.78-3.78-4.91,9,2.29,6.1-4.24.33-5.47l3.64-1.67c-.16-6.81-7.59-.52-7.59-.28,8.73-10-16.71-7.35-6.62,1.74-11.24.7-10.78,11.14.57,4.53-5.85,6.06-.84,9.8,2.58,5.88l.62,27.1-.14,0a19.35,19.35,0,0,0-6.35.52,4,4,0,0,0-3,2c-.8,1.17-1.55,2.19-2.15,3-.4.65-1.47,2.15-3,4.43s-2.73,4.09-3.39,5.29a1.11,1.11,0,0,1-.86.74c-.41.09-.44.26-.18.37,0,.06.18.21.57.4s.6.2.58,0a2.78,2.78,0,0,1,.45-1.24,36.25,36.25,0,0,1,3.23-4.75,31.74,31.74,0,0,1,3.65-4.11,20.31,20.31,0,0,1-.73,3.55,29.47,29.47,0,0,0-.75,3.68c-.06-.06-.1.4-.07,1.37a8.84,8.84,0,0,0,.1,1.88c.08.51.14,1,.19,1.49l-5.72.13-7.73,3.35c-.9.39-7.07.65-9.82,1.12-.22-.83-.44-1.68-.64-2.53a72.3,72.3,0,0,1-1.8-15.74c0-8.64,2-20.1,5.95-27.78a61.85,61.85,0,0,1,3-5.58,49.75,49.75,0,0,1,8.14-10l4-3.2,7.33-3.91a30.71,30.71,0,0,1,22.05,0c18.65,7.52,28,28.39,29.18,48.1m-8.54,16.44-11.89,2.31-3.93,1.5v.33l-.78,0v.12l-.27.07c-.2.05-.44.07-.65.11l-5.16,2L269,272l-6.55,5.13-10.27,3.18L241.17,282l-.1-.71,11-1.6,3.34-1h.19v-.06l6.62-2.06,6.58-5.18h.13l12.79.17,2.21-.85c-.79.05-1.59.09-2.41.09-1.12,0-2.25,0-3.37-.07-1.36,0-2.64-.08-3.81-.05v-.71c1.17,0,2.46,0,3.83.05a37.92,37.92,0,0,0,8.52-.37l.44-.17v-.17l.47,0,4.76-1.82,11.89-2.31,8.63-5.71c0,.3-.06.61-.08.9l-8.35,5.48Zm-47.36,9.52a29.19,29.19,0,0,1-5.15.39c-1.47,0-2.94-.06-4.4-.13-1.77-.08-3.62-.17-5.36-.12l0-.71c1.8,0,3.63,0,5.41.12a42.83,42.83,0,0,0,9.42-.25l5-.5.07.7-4.95.5Zm32.32-9.52,0-.71,12.59-.29,0,.71Zm10.27-4.41,0-.71,8-.18,0,.71Zm11.17-6.15,0,.71-8,.18,0-.71Zm-1,1.69,0,.71-14.31.51,0-.71,14.31-.52Zm-20,3.74-3.65.29-.06-.7,2.32-.18c.16.07.34.13.52.19a6,6,0,0,1,.86.4m19.73-2.26.06.7L293,260.39l-.3-.08c-.67,0-1.09-.19-1.19-.38s-.05-.08-.07-.13l18.09-1.43Zm-21.76,3.33,0,.71-5.73.13,0-.71,5.72-.13ZM272,264.93v.26l-7.81.17v-.7l5.18-.12.63.33a1.29,1.29,0,0,0,.88.12,2.9,2.9,0,0,0,.87-.2.76.76,0,0,0,.17-.54c0-.26-.2-.37-.53-.33.33,0,.51.18.53.33a.59.59,0,0,1-.17.54,1.43,1.43,0,0,0,.26.15m11.64-1.61,20-.79,0,.71-19.48.77,0,0c0-.23-.16-.44-.58-.65m-10.69.43,7.56-.3c0,.09.1.18.15.27a1,1,0,0,0,.32.43l-7.91.31c.1-.12.09-.32-.07-.62l-.05-.09m-.58,0h0s0,.09.06.15a3.31,3.31,0,0,0,.21.46.28.28,0,0,1,0,.09h0a1.47,1.47,0,0,1,0-.17.84.84,0,0,0-.24-.53m-18,4.1,11.37.12a2,2,0,0,1,.43-.67,1.39,1.39,0,0,1,1-.48l20.21-.45,0,.71-20.22.45a.69.69,0,0,0-.46.27,1.07,1.07,0,0,0-.3.53v.37l-12-.12v-.73Zm5.41,1.5v.71l-13.55.11v-.71Zm-20.83,2h0v-.71h0a5.18,5.18,0,0,1,2.2.59l.76.32c4.05,1.44,12,.5,17.24-.14,1.13-.13,2.16-.26,3-.34s1.69-.25,2.52-.39a26.32,26.32,0,0,1,4-.51l0,.71a26.47,26.47,0,0,0-3.87.5c-.85.15-1.73.31-2.57.4s-1.87.21-3,.34a100.7,100.7,0,0,1-11.25.89,19.82,19.82,0,0,1-6.32-.79c-.27-.1-.54-.22-.8-.33a4.62,4.62,0,0,0-1.91-.53m57.15,21.73-7.71-5.35-8.77,6,3.89-9.2-7.05-4.13,8-.18,3.05-8.57,3,8.43,8.51-.19-6.8,4.13,3.85,9ZM350.8,301c2.82-5.55,7.46-12.5,7.55-21.69,1.29,7.77-1.2,11.93-3.3,18.39-.8.07-3.56,3.18-4.25,3.3m16.29-102.8-6.8,4.14,3.85,9L356.43,206l-8.77,6,3.89-9.2-7.05-4.12,8-.18,3-8.57,3,8.43,8.51-.2Zm-25.25-34.66L336,167.13l3.32,7.79-6.66-4.61-7.57,5.2,3.36-7.94L322.33,164l6.95-.15,2.64-7.4,2.57,7.29,7.35-.17Zm-20.51,41.31c-1-4.87-5.77-9.06-9.9-15,5.21,3.57,10.76,7.59,12.31,13l-2.41,2.05Zm4.54-3.86c-1.77-6.78-1.89-4.78-8.64-12.86,6.87,5.84,8.77,5.64,11.55,9.55-.45.5-1.56,1.87-2.29,2.78l-.62.53Zm5.69-5.19c-1.46-2.18-4.45-4.8-9.77-8.9,5.06,1.73,9.08,3.81,11.94,7.18-.37.41-1.87,1.32-2.17,1.72m4.29-3.3c-1.77-2.74-3.78-3.54-8.43-7.65,6,1.47,6.86,2.39,10.64,5.77l-2.21,1.88Zm3.5-3c-1.71-3.14-3.16-3.93-7.6-7.11,4.25,2.07,7.68,1.77,10.14,4.95Zm4-3.38c-1.87-2.88-1.59-2-6-5.1,4.44,1.74,4.8.55,7.53,3.61a2.68,2.68,0,0,1-.4.5Zm3.16-3.27c-1.5-2.34-1.2-1.58-4.53-3.94,3.29,1.29,3.56.4,5.59,2.67-.16.32-.95,1-1.06,1.27m-137.21,5.95-6.44,3.91,3.65,8.54-7.29-5.06-8.29,5.69,3.68-8.7-6.68-3.91,7.6-.17,2.89-8.1,2.83,8,8-.17Zm30.09-4.56.29-.16-.23.27-.06-.1Zm-10.61,9.46c1.29-3.76,5.33-6.46,9.44-8.81l.29.51c-3.46,3.81-7,6.62-7.81,10.06-.3-.34-1.55-1.42-1.92-1.76m-3.89-4.42c2.49-2.88,4-2.62,10-6.79-6,6-6,4.31-7.81,9.65-.38-.51-1.75-2.31-2.23-2.86m-3.95-3c2.54-2.46,6-3.87,10.25-4.95-4.6,2.9-7.22,4.78-8.52,6.38-.23-.32-1.43-1.09-1.73-1.43m-3.64-2.76c3.46-2.53,4.18-3.21,9.3-4.06-4.2,3-5.89,3.5-7.52,5.71-.29-.42-1.41-1.19-1.78-1.64m-2.91-2.8c2.21-2.39,5.06-2,8.71-3.37-3.9,2.29-5.11,2.8-6.73,5.26-.14-.31-1.79-1.56-2-1.89m-2.3-2.3c2.41-2.23,2.66-1.29,6.43-2.41-3.88,2.24-3.48,1.48-5.31,3.8-.11-.31-.95-1-1.12-1.39M210,176c1.78-1.65,2-1,4.77-1.79-2.88,1.67-2.59,1.1-3.95,2.83-.08-.22-.71-.78-.82-1m88.84,161.73,2.83.46.06.25L299,339l-.2-1.34Zm-4.33-.71,3,.49c.11.61.2,1.22.3,1.84l-3,.7c-.09-1-.19-2-.29-3m-4.7-.76,3.28.54.36,3.57-3.13.73c-.08-.69-.19-1.44-.24-2.21l-.28-2.62Zm-4.47-.73,3.13.51.27,2.54c.08.94.17,1.87.26,2.81l-3.4.79V342l-.14-4.95a12.29,12.29,0,0,0-.11-1.54m-3.94-.63,2.7.44c0,.63,0,1.34,0,1.9,0,1,.16,1.34.15,2.39s0,1.94.09,2.86l-2.79.65c0-2.87-.11-5.46-.14-8.23m-4.81-.8,3.55.58a3.59,3.59,0,0,0,.05.46l.14,8.26-3.52.82c-.06-1.17,0-2.44,0-3.71,0-1-.17-1.34-.16-2.39v-2.55c0-.48,0-1,0-1.47m-3.52-.56h0l2.16.35V336c0,1.05.15,1.5.16,2.39l.15,6.09-3,.69c0-.82.15-1.18.15-2s-.07-1.77,0-2.53l.29-4.81c0-.8,0-1.57.06-2.34m-4.89.65,3.61-.48a15.09,15.09,0,0,0-.14,1.86c0,1.83-.15,3.1-.14,4.95,0,1-.17,1.37-.16,2.39a17.16,17.16,0,0,1-.06,2.49v.09l-2.46.57-1.11-.33,0-.15.17-4.92c0-1,.11-1.59.15-2.4s-.06-1.74,0-2.54c.05-.55.1-1,.12-1.54m-3.55.48,2.22-.29-.15,3.91c0,1.93-.24,4.61-.29,7.08l-2.31-.68.35-6.55c0-1.1.14-1.63.15-2.55,0-.31,0-.61,0-.92m-4.44.6,3.1-.41a2.64,2.64,0,0,1,0,.28c-.17,3.14-.24,6.09-.39,9.18l-3.31-1,.63-8.08Zm-5.14.67,3.78-.5-.56,7.52-4-1.19c.28-1.94.55-3.89.8-5.83m-4.53.6,3.16-.42-.73,5.27-3.12-.92c.22-1.29.46-2.62.69-3.93m-3.92.52,2.62-.35-.61,3.4-2.57-.76.56-2.29Zm-5,.67,3.67-.48c-.17.67-.31,1.26-.44,1.74l-3.32-1,.09-.27Zm-11.52-9.82a4,4,0,0,0,2.95-1.2c.6-1.19,1.21-2.37,1.78-3.51a12.25,12.25,0,0,0,.29-3.59c-2.11,3.52-4.48,7.39-4.67,7.71l-.36.6ZM227.28,318a4,4,0,0,1-.31-1.08,14.32,14.32,0,0,0-.84,3l1.16-1.89Zm6.22,1.7a4.08,4.08,0,0,1-2.31.75,4.17,4.17,0,0,1-3.1-1.26c-.17.29-.35.56-.55.89l-1.62,2.66c.09,2.29.87,4.3,2.76,4.94l.56-.95c.16-.26,2.25-3.71,4.25-7m76.44-.53a12.69,12.69,0,0,0,.25,6.58l.22.53a3.66,3.66,0,0,0,3.21,2.29,4.8,4.8,0,0,0,1.28-.09l-4.95-9.3m7.72,1.26a4.22,4.22,0,0,1-3.27,1.7,4.37,4.37,0,0,1-1.54-.25l3.25,6.1c1.73-1.06,2.49-3.4,2.59-5.71l-1-1.83m.7-1.55,0,.06.05.09s0-.1,0-.15M282.94,172.65l2.91.15c-.52,1.54-1.06,3.08-1.66,4.58-.26.67-.43,1.41-.7,2a14.34,14.34,0,0,0-2.4-.45,9.52,9.52,0,0,1,.55-2.16c.25-.76.86-2.56,1.31-4.12m-1.56-.07h.14s0,.05,0,.06-.09.42-.09,0v-.06Zm-2.83,6v-.37a36.53,36.53,0,0,0,1.09-5.69l.48,0a.65.65,0,0,1,0,.19c-.28,1.22-.53,2.35-.81,3.53a7.36,7.36,0,0,1,1.05.15,20.2,20.2,0,0,1-.6,2.25c-.4,0-.79,0-1.17-.08m-2.72-6.25.61,0-.61,0v0Zm-4.78-.24,3.43.17v.15h-.55l.14,5.66h-2.89Zm-5.31-.67a36.86,36.86,0,0,0,4,.6c0,.52,0,1.07,0,1.71V178c-1.22.1-2.56.3-3.9.3,0-2.31-.09-4.63-.2-7m-3.28-2.45a3.5,3.5,0,0,0,1.92,2c.09,2.51.22,5,.22,7.69-.75,0-.67.13-1.35.15,0-2.12-.44-6.24-.79-9.83m23.51,3.1c-.76-3.09-4-4.8-7.58-5.27h-4.12c-3.4.44-6.34,2-7,4.52,2.21-.64,2-1.29,4.2-2.2,7.93-3.33,12.51,2.39,14.46,3m-7.84-14.79a4,4,0,1,1,3.93-4,4,4,0,0,1-3.93,4M213.29,321.72c.35.19.7.37,1.06.54a7.85,7.85,0,0,1,.67-3l-1.72,2.46ZM179.56,172.56c-.2,1.43-.41,2.82-.62,4.16s.9-.89,3.05-2.46l-2.43-1.71Zm.57-4.56c-.12,1.07-.24,2.13-.39,3.18l3.39,2.39a5.86,5.86,0,0,1,2.84-.65Zm2.51-5.74-1.83-7.6c.07,1.77.05,3.69,0,5.68l1.87,1.92m9.06,8.87.57-2.07,13.44,10.55.09-.25-14-11.88-5.83-2c1.14,1,4.18,4.32,5.74,5.7m-11.94,41.15c3.43-12.8,7.73-26.08,11.55-39.73-1-.83-2.42-2.45-3.16-3.19l-2.77-2.62-.82-.83-3.88-3.83c-.09,1.44-.21,2.91-.37,4.37l4.2,3.55c.58.45,1,.83,1.55,1.29l3.18,2.67c-.24.37-.52.7-.75,1.05l-.28-.24a2.93,2.93,0,0,1-.84,1.75l.83.58a4.38,4.38,0,0,1-.75.9,9.4,9.4,0,0,1-1.21-.8,29.94,29.94,0,0,1-5.14,1.37c3,2,5.77,3.71,6.06,3.78-.07.83-.28.55-.45,1.2a59,59,0,0,1-5.9-3.69l-1.29-.84c-.31,1.46-.63,2.9-1,4.33l7.57,4.25c-.21.4-.39.65-.6,1-.29-.06-3.39-1.79-7.28-4-.26,1-.52,2-.8,3l5.69,2.91a2.51,2.51,0,0,1-.45,1.2L177.09,189c-.45,1.52-.93,3-1.46,4.45L181,196c.81.36,1.49.65,2.24,1.05a2.58,2.58,0,0,1-.45,1.2l-7-3.35-.66-.33c-.62,1.59-1.3,3.13-2.05,4.6l.16.08,6.75,3a7.33,7.33,0,0,0,1.29.51,9.56,9.56,0,0,0-.45,1.2,9.19,9.19,0,0,1-1.39-.56c-.48-.21-.89-.36-1.35-.59l-5.62-2.49a35.21,35.21,0,0,1-2.69,4.16l9.26,3.52a4.27,4.27,0,0,1-.45,1.2L169,205.53a.32.32,0,0,0-.06.08c-.08,1.1-.15,2.19-.23,3.27,2.6.78,8.52,2.68,11.12,3.4m-1,3.63c.2-.79.41-1.58.62-2.37-.81-.2-1.79-.55-2.36-.72l-8.53-2.61c-.07,1-.15,2-.22,3l6.28,1.58,2.64.66c.4.1,1,.28,1.57.42m-.86,3.45c.18-.74.37-1.48.55-2.22l-10.27-2.6c-.07,1-.14,2-.22,3l9.93,1.84Zm-1.2,5.18c.29-1.3.58-2.61.89-3.91l-4.94-.9c-1.61-.32-3.2-.61-4.79-.9-.1,1.44-.21,2.83-.3,4.17l9.14,1.55Zm-.91,4.46c.2-1.06.42-2.13.65-3.2l-9-1.5c-.09,1.21-.18,2.37-.25,3.49l5.06.71,3.52.5Zm-.9,5c.2-1.24.42-2.49.65-3.75l-8.42-1.2c-.1,1.46-.19,2.83-.28,4.11.49.06,1,.11,1.51.14,1.07.06,2,.22,3.13.32l3.41.38Zm-.63,4.36c.13-1,.27-2,.43-3l-7.93-.87c0,.23,0,.46-.05.7-.06,1-.1,1.9-.16,2.79l.45,0c.81,0,.88.14,1.64.16l5.61.25Zm-.44,3.89c.08-.87.18-1.74.28-2.63l-6.05-.33-1.56-.07c-.06,1-.11,1.9-.15,2.77l3.8.16,3.68.1m-.32,4.26c.06-1,.12-2,.21-3l-3.55-.15c-1.38,0-2.62-.06-3.87-.09-.06,1.21-.1,2.3-.14,3.3l7.36,0M173.4,251c0-1,0-2.07.08-3.12l-7.33,0c0,1.25-.06,2.33-.06,3.28l6.21-.17c.42,0,.79,0,1.11,0m.15,6.05c-.1-1.59-.15-3.18-.17-4.79-1.72,0-3.41.12-5.29.12-.79,0-1.39,0-2,.09a32.64,32.64,0,0,0,.33,4.89c2.37-.11,4.72-.26,7.15-.31m.6,5.81c-.22-1.52-.39-3-.51-4.58-2.17.09-4.91.3-7,.38.22,1.21.5,2.51.79,4.64.87,0,1.7,0,2.59-.14l4.14-.3Zm.88,4.82c-.26-1.17-.48-2.34-.68-3.52-1.62.1-3.21.05-4.7.27-.5.08-1.33.15-2.06.19,0,.3.07.62.1.95.36.95.74,1.92,1.11,2.89,1.46-.19,2.85-.34,4.36-.53.55-.06,1.24-.17,1.87-.26m1.39,5.25c-.41-1.31-.77-2.62-1.1-3.94l-2.23.25-3.79.52c.51,1.3,1,2.61,1.57,3.92l5.56-.75Zm1.22,3.48c-.28-.73-.54-1.46-.79-2.19l-5.45.71c.34.82.69,1.63,1,2.44,2-.39,3.84-.73,5.2-1m1.71,4.2-.12-.49v.12c-.4-.86-.77-1.72-1.12-2.59l-.68.15-4.45.87c.45,1,.91,2,1.38,3l5-1Zm1.33,5.16c-.34-1.31-.69-2.59-1-3.88a8.29,8.29,0,0,0-.82.15l-3.89.81c.62,1.25,1.25,2.49,1.91,3.7l3.81-.78ZM183,289.2a6.88,6.88,0,0,0-1.86-1.55l-.15-.58-3.46.69c.48.84,1,1.68,1.48,2.5l1.51-.39c.8-.24,1.64-.45,2.48-.66m2.57,2.57c-.4-.34-.95-.9-1.53-1.5-.46.14-1.11.29-1.5.4-.66.19-1.13.29-1.79.45l-1,.26c.42.66.85,1.3,1.3,1.94l4.55-1.55M231,200l-.19.61-.17-.14c-4.5,5.79-5.42,7.16-9.23,14.72L219,220.82c-.4,1-.64,1.88-1,2.87L216.13,230c-.49,2-.92,4-1.29,6.06,0,.16-.05.32-.07.48v0a87.27,87.27,0,0,0-1.28,14.79,88.48,88.48,0,0,0,6.7,33.62l2.94,6.21a74.09,74.09,0,0,0,10.1,14.62c.53.6,1.05,1,1.54,1.61l3.92,3.73A54.52,54.52,0,0,0,246.6,317l4.05,2.24c1.4.7,2.72,1.32,4.22,1.92,18.16,7.25,37.12,3,51.48-9.16l3.23-2.91a80,80,0,0,0,5.74-6.55l2.65-3.65A72.33,72.33,0,0,0,324.53,287l1.78-4.51A81.35,81.35,0,0,0,330.2,268a89.37,89.37,0,0,0-3.26-43.32,83.83,83.83,0,0,0-4.61-11l-3.34-5.8a68.83,68.83,0,0,0-5.14-7.16l-2.15-2.49a6,6,0,0,0-.7-.8c-4.32-4.27-8.18-8-13.7-11-4.42-2.41-7.68-4.12-13-5.44-6-1.5-7.94-1.56-14-1.56-7.93,0-18.2,3.35-24.64,7.58l-4.78,3.31a63.64,63.64,0,0,0-6.4,5.74l-2.94,3.21-.56.73Zm-50.34-47.66,0,.31.47.19Zm-3.92,30.06c.13-1.21.22-2.43.27-3.64L174.24,176a13.37,13.37,0,0,1-5.73,1.65c1.73,1,3.23,1.84,3.76,2.16s1,.58,1.54.86l2.91,1.64Zm-9.31,15.74c-.08,1.88-.2,3.71-.12,5.44l.55.21a32,32,0,0,0,3.14-4.08l-.89-.4-2.68-1.17m-.32-7.31a26.81,26.81,0,0,1,.37,5.91l3.09,1.37c.38.18.75.35,1.11.5a34.62,34.62,0,0,0,2.26-4.57c-2.21-1.06-4.54-2.14-6.83-3.21m-4.63,12.31a9.26,9.26,0,0,0,1.89,1.42,5.7,5.7,0,0,0,0-.71l-1.86-.71Zm2.07,4.55.33-.34c-2-.54-4-.94-5.92-1.37l5.58,1.71Zm1.42,5,.07-1.29c-.4,1.19-1.67-1.36-2.07-.16-.08.29-.16.58-.23.88l2.23.57Zm-.25,4.48.18-3.18-2.46-.62c-.23,1-.44,2.14-.65,3.29l2.92.51m-.3,5.49.24-4.22-3.07-.55c-.24,1.37-.48,2.77-.75,4.16l3.58.6Zm-.27,4.86.2-3.55-3.77-.63c-.25,1.22-.54,2.41-.86,3.54l4.43.64m-1.78,25,.37,0v0Zm-4.81-4.6c0,1.14-.11,2.28-.06,3.41.87,0,1.75,0,2.59,0l2.73-.08.19-3.34h-5.45ZM158.1,243a13.2,13.2,0,0,1,.45,3.64l5.49,0,.19-3.36h-1.54c-.87,0-1.1-.12-1.79-.15-.85-.05-1.81-.07-2.8-.09m-2.35-4.29a11.61,11.61,0,0,1,1.91,3c.55,0,1.1,0,1.6,0l5.05.21.15-2.75-8.72-.48Zm-9-6.4a33,33,0,0,1,7.63,5l3.8.21a14.67,14.67,0,0,1,1.82.12l4.51.2.2-3.62-6.07-.63c-1.27-.12-6.37-.69-11.9-1.31m5.36,15.65c1.19,1,2.36,2.05,3.54,3a26.79,26.79,0,0,0-1.9-3Zm-6.63-5.31c1.77,1.24,3.47,2.62,5.15,4h2.19c-1-1.3-2-2.59-3-3.9-.71,0-1.43,0-2.1,0a16.73,16.73,0,0,0-1.79-.15h-.44Zm17.94,14.82c-.1-.52-.19-1.05-.28-1.59a13.88,13.88,0,0,0-1.83,1.6h.33c.6,0,1.19,0,1.78,0m1.22,6c-.34-1.52-.67-3.1-1-4.73-.68,0-1.29.1-2,.1s-1.08,0-1.47,0a17.94,17.94,0,0,0-2.29,5.09l6.74-.49Zm1.32,5.39c-.36-1.33-.7-2.71-1-4.13-2.07.13-5,.41-7.44.62a26.06,26.06,0,0,1-1.78,4.81c3.44-.42,6.86-.84,10.26-1.3m13.78,30.85a12.12,12.12,0,0,0,2.07.38l-.69-.89-1.37.51Zm-9.49-1.51c0,.07,0,.13,0,.2,1.75.14,5.46-.61,7.14.82,1-.37,1.93-.75,2.94-1.12-.66-.87-1.29-1.74-1.9-2.61l-8.14,2.7m-.24-4.31a10.78,10.78,0,0,1,.39,3l7.27-2.42c-.5-.73-1-1.46-1.45-2.18L170,293.86m-1.91-4.18a14.41,14.41,0,0,1,1.53,3l5.88-1.52c-.55-.89-1.08-1.77-1.6-2.67l-5.82,1.19m-4.43-4.52a16.77,16.77,0,0,1,3.57,3.33l6-1.22c-.66-1.22-1.3-2.44-1.89-3.69l-7.68,1.59ZM158.13,297a34.07,34.07,0,0,1,8.59,1.13l1.18-.39c-.92-.83-1.84-1.71-2.71-2.59L158.13,297m26.17,6.14c-.38-.36-.76-.72-1.14-1.1a9.05,9.05,0,0,0-3.23,4.39Zm4.07,3.82c-1.05-1-2.1-1.94-3.14-2.92l-5.84,4.38a55.51,55.51,0,0,0-.64,6.89l7.91-6.87c.4-.32.51-.43.88-.76l.83-.71Zm25.54,23.59.2.14a1.74,1.74,0,0,0,.15-.69l-.35.55Zm-4.61-3.11c1.14.69,2.33,1.47,3.58,2.36l.15-.24.95-1.47a10.47,10.47,0,0,1-.37-2.18,16.18,16.18,0,0,0-2.11-1.6Zm-6.07-2.89a29.66,29.66,0,0,1,5,2.27l2.24-3.17c-1.35-.84-2.93-1.73-4.5-2.63q-1.33,1.75-2.72,3.53m-7-1a16.6,16.6,0,0,1,5.6.54l2.91-3.78c-1.24-.7-2.45-1.41-3.53-2.08l-5,5.32Zm8,11a59.41,59.41,0,0,0,6.15-1l.2-.32c-1.8-.18-3.45-.4-5-.65l-.37.53c-.31.43-.64.91-1,1.42m-10.83,2.57a30.13,30.13,0,0,1,9.06-2.33c.57-.81,1.16-1.62,1.74-2.44a30.9,30.9,0,0,1-5.81-1.67c-1.68,2.15-3.36,4.3-5,6.44m30.24-1.1-1.41-.42a8.75,8.75,0,0,0-4.45,2.68c-.88,4.5-3.13,7.47-3.37,13.12L223.66,336Zm35.51,12.25,3.25-.75-3.16-.94a4.16,4.16,0,0,0,0,.5c0,.39,0,.79,0,1.19m-6.07,1.41,4.68-1.09c.05-.62.12-1.24.2-1.85l0-.53L253.78,345l-.69,4.72M248,350.88l3.72-.87.76-5.42-3.22-1c-.52,3-1,5.56-1.26,7.24M243,352.05l3.68-.85,1.42-7.92-2.76-.82-2.34,9.6Zm32.67-4.36-.7.16.71.21v-.37Zm4.73-1.1-3.44.8c0,.35,0,.69,0,1l3.51,1q0-1.43,0-2.88m4.07-.95-2.81.65c0,.82.07,1.67.07,2.61l0,1,3,.87c0-.45-.05-.87-.1-1.28l-.15-3.81Zm4.92-1.14-3.58.83.18,5.78,4.2,1.24c-.26-2.64-.5-5.29-.8-7.85m4.42-1-3.13.73.88,8.55,3.29,1Zm36.08,10.29c.3-6.11-2-9.27-2.68-14a9.15,9.15,0,0,0-4.61-3l-1.56.36,8.85,16.61Zm9.37-18.88c-1.56.14-3.25.24-5.06.3a49.6,49.6,0,0,0,6.29,1.44c-.4-.58-.82-1.16-1.23-1.75m4.9-.66c-1.06.21-2.2.38-3.42.52l1.58,2.22c1.47.26,2.94.54,4.37.88l-2.53-3.62Zm4.67-1.31a25.24,25.24,0,0,1-3.3,1l3.09,4.43a18.56,18.56,0,0,1,6.21,3.05l-6-8.5Zm-15.24-6.18a13.58,13.58,0,0,0-1.26.87c-.09,1.33-.85,2.76-.93,3.9l.41.67c1.38-.86,2.7-1.63,4-2.29l-2.12-3.07-.05-.07Zm3.89-2.09c-1,.49-1.95,1-2.78,1.44l2.24,3.19c1-.5,1.94-.93,2.86-1.3l-2.33-3.33Zm4.12-2c-1,.46-2,.93-2.94,1.4L340,326,341,327.5a25.15,25.15,0,0,1,3.29-.94l-2.09-3c-.21-.32-.43-.62-.64-.92m4.72-2.38c-1.07.58-2.28,1.19-3.56,1.8l3,4.2a17.58,17.58,0,0,1,4.91,0l-4.32-6Zm7.4-5.5c-.81.64-1.62,1.28-2.42,1.93l4.86,6c1.09,1.33,2.06,2.57,3.15,3.9l3.1,3.8c1.07,1.37,2.06,2.52,3.14,3.9.55.69,1,1.22,1.55,1.89l1.21,1.5c.94-1.25,1.87-2.54,2.8-3.85l-.07.07a48,48,0,0,1-3.41-3.64L353.7,314.8Zm15.48-.24a14.58,14.58,0,0,0-1.22-6l-.14-.13-2.9-2.56-2.28,1.87.17.17c2.17,2.15,4.25,4.4,6.37,6.62m.21,8.26c-.22-2.2-.17-4.37-.18-6.44-1.59-1.66-3.67-3.75-4.6-4.69a8.44,8.44,0,0,1-.68-.82l-2.24-2.33c-1,.81-2,1.6-3,2.39.32.36.57.66.74.88,1.09,1.42,5.11,5.41,6.14,6.74.88,1.14,2.24,2.24,3.08,3.36a9.3,9.3,0,0,0,.78.9m3.32-17.43-.33-.2c-.93-.29-1.83,1-2.75.67a34,34,0,0,1,4.23,6.18l5.87,5.13-.93.86c-.82-.44-.87-.75-1.56-1.29l-2.17-1.92a11.1,11.1,0,0,1,.49,6.36l.12.12c.44.55,1,1,1.33,1.52a2.74,2.74,0,0,1-.9.75,7.56,7.56,0,0,1-1.07-1,7.55,7.55,0,0,1-3,3.13c.83.89,2.41,2.35,2.57,2.94-.28.41-.43.7-1.05.75-.15-.57-1.89-2.19-2.73-3.09-.23.1-.48.19-.73.28-.15-.53-.28-1.05-.39-1.58-1.64-1.84-4.31-4.52-5.32-5.78l-6.8-7.48L354.71,314l.67.75a7.49,7.49,0,0,1,.83,1L371.71,333q5.64-8.07,10.87-17.36c.1,4.42.58,12,.83,16.32,2.77-2.17,6.71-6.06,10.38-9.55-2.49-2-6.1-4.94-7-5.63-1.59-1.29-3.05-2.46-4.67-3.73l-9.47-7.62Zm12.42,3.68a16.45,16.45,0,0,1-6.9-1c4.75,3.83,9.48,7.68,14,11.35.82.67,1.52,1.21,2.33,1.87l.2.15c1.12-1.05,2.21-2.05,3.21-2.93l-5.93-4.3c-2-1.46-4.58-3.41-6.93-5.15m-1.87-8.34c-.9.74-1.82,1.46-2.74,2.15,1.71-.27,3.3-.54,4.81-.74Zm3.37-3c-.74.71-1.52,1.43-2.34,2.12l3,2.06a21.84,21.84,0,0,1,6.46.25c-.94-.6-1.88-1.19-2.87-1.78l-4.28-2.64ZM368.44,302l-1.5,1.67a23.29,23.29,0,0,0,3.06-.42L368.45,302Zm2.64-3.09c-.57.69-1.16,1.38-1.76,2.08l2.46,2a7.18,7.18,0,0,1,4-.56l-4.74-3.47Zm3.26-4.21c-.79,1.08-1.61,2.16-2.47,3.23l6.41,4.67.82,0a9.06,9.06,0,0,1,.44-4.38l-5.21-3.54Zm2.2-3.17c-.47.71-1,1.41-1.43,2.11l1.56,1.07,3.38,2.29a14.55,14.55,0,0,1,1.42-2.44c-.94-.61-1.9-1.13-2.88-1.77l-2-1.27Zm2.66-4.35c-.63,1.12-1.29,2.21-2,3.29l5,3.1a17.11,17.11,0,0,1,3.17-2.91Zm2.07-3.93q-.7,1.41-1.44,2.79l6.81,3.81a18.74,18.74,0,0,1,3.93-1.75l-9.3-4.86Zm11.27-18.59a12.3,12.3,0,0,0-2.88-3.63l-.66,0c-.28,1.12-.56,2.21-.85,3.27l4.38.39Zm1.42,3.91a22.29,22.29,0,0,0-.81-2.56l-3.93-.34c-.48-.07-.94-.12-1.41-.15-.19.7-.39,1.39-.59,2.06l6.74,1m1.59,5.75a32.22,32.22,0,0,1-1.24-4.33l-7.49-1.1c-.3,1-.59,1.91-.9,2.83l9.62,2.6Zm5.8-23.41a45.82,45.82,0,0,0-3.43,4.11l.74,0c1.87-1.37,3.74-2.78,5.66-4.12h-3m4.72-5.45a52.51,52.51,0,0,1-3.48,4.1h1.09l2.57.06a35.7,35.7,0,0,1,9.17-4.51l-7.55.26c-.72,0-1.26,0-1.8.09m-17.34,10.51v1.24l5.4,0q.09-.56.15-1.11l-5.14-.12a2,2,0,0,1-.4,0m0-5.23v3.92l5.61.2c0-1.34,0-2.71.17-4.08-1.62,0-3.25,0-4.95,0-.3,0-.57,0-.83,0m0-4.6v3.26c2,0,4,.07,6,.09a10.32,10.32,0,0,1,1.51-3.66l-4.11.14c-1.2,0-2,.15-3,.16h-.38Zm0-7.05,0,5.7.37,0c1.85,0,2.18-.14,3.14-.15a24.27,24.27,0,0,0,3.21-.08,10.72,10.72,0,0,1,1.8-.07c1.74-2,4.56-3.95,9.11-6l-8.28.29c-2,0-3.52.16-5.55.15-1.14,0-1.63.16-2.69.15h-1.1m2.9-19.45c-.19-1.33-.4-2.58-.66-3.7s-1.83,1.27-2.17.05v4.25l2.82-.59Zm.86,6.94c-.25-1.91-.46-3.83-.69-5.65l-3,.64,0,5.27.76-.06c.82,0,1.3-.12,1.95-.15l1-.06m.91,5.2c-.29-1.22-.52-2.51-.72-3.84l-1.21.06c-.91,0-1.82.14-2.71.22l0,3.91,4.65-.35Zm4.17-21c-2.35.4-4.82.71-7.31,1.21.26.28.51.56.77.83l.09,0c2.07-.59,4.27-1.32,6.45-2m-6-4.18a8.09,8.09,0,0,0-.63,2.62c2.09-1,3.83-3,5.72-4.74l-5.09,2.12Zm-4.16,1.73.42.49c0-.23.07-.47.1-.71l-.52.22ZM384.43,204a31.77,31.77,0,0,0,2.2,3.23l1.51-.62c.08-1.38.08-2.82.1-4.29l-.63.28c-.61.25-.92.42-1.57.69s-1.08.45-1.56.69l-.05,0Zm-2.19-4.45a31.38,31.38,0,0,0,1.56,3.33l.23-.1c1.43-.62,2.84-1.25,4.25-1.88a28.49,28.49,0,0,1,.43-4.19l-6.47,2.85Zm-1.57-4.91a38.14,38.14,0,0,0,1.1,3.7l7.3-3.23a14.92,14.92,0,0,1,3.52-6.28l-6,2.9c-1.86.93-3.89,1.91-6,2.91m10-12.39a14.2,14.2,0,0,1-7.72-1.75l-3.37,2.1-.17.14c0,1.72,0,3.45.17,5.18l3-1.52c1.28-.64,2.27-1.21,3.55-1.85l4.51-2.29Zm-19.56-20.69,5.75-2.27c.08-1,.19-1.89.33-2.77-2,1.7-4.07,3.4-6.09,5M302,187.82l26.39-47.09.71-5.28-.73,1.31-5.79,10.54c-.5.86-.89,1.74-1.42,2.63l-19,34.54a11.49,11.49,0,0,0-1.35,2.69,5,5,0,0,1,1.16.65m3,2.33,3.13-5.41-3.2,5.34.08.07Zm71.67-20.64c-.07-1.86-.1-3.71-.07-5.5l-1.52,6.65c.54-.38,1.07-.76,1.59-1.15m-1.05,9.55c1.35,1.4,2,2.63,1.86,1.57-.09-.86-.18-1.74-.26-2.63l-1.29.85-.32.21Zm-5.24,1.88c-2.41-1-2.3-1.88-2.55-4.07a6.62,6.62,0,0,1,6.8,1.26l2.47-1.62c-.15-1.79-.27-3.62-.36-5.45a17.64,17.64,0,0,1-1.76,1.13,3.93,3.93,0,0,1-.57-.93l-9.27,3.23L363,176.23q1.31,3.92,2.53,7.93l4.89-3.23Zm7.42,7.85c-.29-1.51-.56-3.05-.82-4.6L374,186.09l-4.44,2.76a8.86,8.86,0,0,1-1.53.87,4.22,4.22,0,0,1-.6-1.2,19.09,19.09,0,0,0,3.11-1.83c1-.65,1.94-1.16,3-1.83l3-1.82.38-.23v0c-2.06-.51-3.61-.92-4.81-1.29-2.66,1.77-5.7,3.75-6.11,3.88.84,2.81,1.65,5.66,2.42,8.52a1.93,1.93,0,0,1,0-.27l9.57-4.84ZM379,194c-.32-1.25-.61-2.53-.88-3.83-4.71,2.41-9.06,4.61-9.4,4.69a5.08,5.08,0,0,1-.35-.7c.39,1.49.78,3,1.16,4.5l5.94-2.9c1.16-.59,2.34-1.18,3.53-1.76m1.46,5c-.41-1.19-.77-2.41-1.12-3.65-3.32,1.6-6.68,3.21-9.48,4.69.27,1.09.52,2.18.77,3.27,1.22-.53,2.47-1,3.69-1.6Zm1.84,4.61c-.51-1.1-1-2.23-1.4-3.39L372,204.06l-1,.47c.27,1.21.53,2.42.79,3.62,1.65-.78,4.34-1.82,5.83-2.54l4.73-2.1Zm2.46,4.47a35.93,35.93,0,0,1-1.9-3.31l-4.84,2.14c-.75.33-4.59,2.18-6,2.61.25,1.19.48,2.37.7,3.55l12.07-5Zm1.77,24.27c0-1.27,0-2.6-.06-4-3.11.17-9,.86-11.16.86v-1.35l11.14-.82c0-1.58-.05-3.23-.07-4.93-5.26,1.11-10.9,2.29-11.36,2.3a8,8,0,0,1-.15-1.05c0-.34,1.15-.43,1.59-.52l9.91-2.07c0-1.66,0-3.36-.07-5.12L374,219.38a4.47,4.47,0,0,1-.3-1.35c.49,0,7.53-2.24,12.61-3.82,0-1.37,0-2.76-.05-4.18-.24-.31-.48-.62-.7-.94l-2,.83c-.73.3-8.54,3.64-10.6,4.37,1.16,6.35,2,12.65,2.54,18.8l11.06-.85Zm0,17.06c0-1,0-2.05,0-3.21-1.29,0-2.56.05-3.9.12l-6.14.3v-1.35l10.05-.36c0-1.56,0-3.27,0-5.16v-.56c-1.58.07-3,.18-4.82.23-.93,0-1.93-.06-2.85,0s-1.48.15-2.55.15c0-1.7-1.27-1.21,4.05-1.49,1,0,2,.05,3,0l3.17-.18c0-1.34,0-2.77,0-4.3-2,.13-5.1.56-7,.58-1.34,0-2.58.2-3.94.27a135.77,135.77,0,0,1,.33,14.87c3.59,0,7.11.05,10.62.09M386,259.52c.13-1,.23-2.18.32-3.74-1.57,0-3.06,0-4.7-.11l-6-.3v-.9c0-.58.32-.33,1-.3l4.66.15a29.56,29.56,0,0,1,3,.16l2.07.07c0-1.14.09-2.45.12-4h-.39l-10.25-.15c-.14,3-.4,5.88-.8,8.69,1.94,0,3.45.12,5.36.14l5.57.26ZM383.29,271c.16-.33.32-.67.47-1,.09-.55.19-1.06.28-1.52l-5.12-.75c-2.1-.36-1.45-.39-3.14-.19a11.62,11.62,0,0,1-1.18,0v-1.35h2.24c.57,0,3.6.4,7.46,1,.15-.7.29-1.3.43-1.84l-.38,0c-3-.32-6.4-.62-9.46-.88a7.1,7.1,0,0,0,.15-1.2c1.73,0,7.69.6,9.73.76l.3,0c.29-1.08.53-2,.74-3.14L375,260.33v-.88a75.45,75.45,0,0,1-1.8,8.86c1.53.28,7.08,1.89,8,2.12l2,.54Zm-46.45,50.59q1.38-.74,2.79-1.56l-.61-.86-3.21-4.58c-.58-.78-1-1.46-1.61-2.29s-1-1.42-1.55-2.18a30.37,30.37,0,0,0-2.89,1.25c.79,1.29,4.34,6.32,7.08,10.22m-10.73,1.3c0-1.11,0-2.33,0-3.66a18.13,18.13,0,0,0,2.29.29c-1.82-2.57-3.7-5.25-4.48-6.49a19.08,19.08,0,0,0-3.51.31L323.2,318c.62,1,1.21,2,1.81,3l1.11,1.84M288,331.55l-2.43.32,2.51.39c0-.24-.05-.47-.08-.72m4.52-.59-3.21.42.12,1.1,3.3.52Zm3.86-.51-2.59.34c.07.55.13,1,.17,1.37s.09.71.13,1.06l2.8.44c-.15-.95-.33-2-.51-3.21m3.43-.45-2.09.28.55,3.6,2.51.4c-.32-1.42-.65-2.85-1-4.27m3.31-.45-2,.27,1.07,4.67,2.59.41-1.65-5.34m3.31-.45-1.95.26,1,3.37c.22.79.45,1.58.68,2.37l2.59.41c-.13-.35-.25-.69-.37-1l-2-5.38Zm5.43,3.91c-2-.62-2.6-1.65-3.68-2.88.7,1.87,1.41,3.74,2.1,5.62L312,336l1-.22L311.83,333m5.26-.43a15.07,15.07,0,0,1-3.27.85l-.42-.06.89,2.12,3.87-.9-1.08-2Zm4.68-4.9a9.29,9.29,0,0,1-1.15,2.57,10.64,10.64,0,0,1-2.35,1.78l1.21,2.26,2.44-.56a12.6,12.6,0,0,0,1.94-2.18l-.36-.66c-.54-1-1.12-2.12-1.73-3.21m-7.65-13.81Zm-3.87,3.1a4.14,4.14,0,0,1,3.86-3.1c-1.59-.33-3.34-.05-4.77-.23,9.41-9.16,17.74-20.85,24.41-38.71-2.93,15.66-9.83,27.42-19.24,38.48.19-.1.36-.21.6-.36l.56,1a4.14,4.14,0,0,1,2.75,3.35c3.34,1.89,4.1,5.35,3.73,8.37l1.7,3.08.76,1.4a14.35,14.35,0,0,0,1.38-5.22l-6.67-11a5.09,5.09,0,0,1-.75-1.49,8.94,8.94,0,0,0,1.05-.6l.33.56c7.62-9.09,14.1-20.13,18.6-36.69-1.34,14.44-6.31,25.3-13.81,36.08.24.37.47.7.75,1.08l2.78,4c.67.9,1.21,1.74,1.86,2.63l.19.27a2.47,2.47,0,0,1,1.14,1.6l1.39,2c.94-.41,1.9-.85,2.86-1.34l-5.48-7.84c-.31-.46-.58-.78-.87-1.23a5.23,5.23,0,0,1-.75-1.2,1.53,1.53,0,0,1,.28-.29h-.18c7-8.44,12.75-18.5,16.75-34-1.07,13.32-4.8,22-11.64,32,.62.68,2.88,4,3.18,4.39l3.78,5.34q1.64-1,3.3-2.1l-6-8.34a2.88,2.88,0,0,1,1.05-.75c.25.37.54.7.83,1.11l5.21,7.25c.91-.62,1.82-1.26,2.74-1.93l-4.54-5.6a2.7,2.7,0,0,1-.65-1c.57-.15.44-.29.9-.6a43.09,43.09,0,0,1,3.21,3.83l2.12,2.61,2.34-1.75-6.13-6.82a3.29,3.29,0,0,0-.36-.34l-.09.17c-1.22-.1-4.46,2.81-5.54,2.81,5.66-7.75,11-16.42,13.47-30.39,0,11.49-2.82,17.6-7.19,26.15l6.87,7.64,2.85-2.26-5.28-5.81c-.4-.38-.5-.33-.56-.94.56-.15.44-.29.9-.6l1.54,1.75c.83,1,2.69,2.95,4.4,4.77,1-.79,1.94-1.6,2.91-2.42l-3-3.09a20,20,0,0,1-2.7-2.93l.87-.78a8.52,8.52,0,0,1,1.46,1.54L360,305l2-1.72c-.21-.17-.42-.35-.66-.58l-4.41-3.83c-.64-.52-.67-.8-1.47-1.22a7.7,7.7,0,0,0,.75-1.05L363,302.4h0l1.17-1c.54-.53,1.08-1.07,1.6-1.64l-4.47-3.59a18.09,18.09,0,0,1-2.23-2c.31-.46.45-.33.6-.9.66.18,3.94,3.08,4.71,3.68l2.27,1.79c.58-.64,1.13-1.29,1.68-2-.7-.52-1.38-1-2.09-1.53l-5.07-3.77c.29-.54.24-.56.75-.9l7.19,5.24q1.21-1.55,2.34-3.18L367.56,290a17.14,17.14,0,0,0-2.81-1.82,1.69,1.69,0,0,1,.75-1.05c.34.09,3.7,2.37,6.68,4.42.45-.66.88-1.32,1.3-2L369.37,287c-.57-.35-1-.63-1.57-1a5.76,5.76,0,0,0-1.55-.85,7.08,7.08,0,0,1,.6-1.2l7.3,4.5c.64-1.05,1.27-2.11,1.88-3.17L370.16,282a9.46,9.46,0,0,0-1.66-.89,7.9,7.9,0,0,1,.6-1.2c1.14.6,2.35,1.3,3.46,1.94l4.12,2.31c.49-.89,1-1.78,1.45-2.67-.51-.27-.87-.5-1.43-.79l-3.55-1.84c-.59-.3-1.21-.59-1.8-.9l.6-1.2,3.65,1.9c1,.58,2.13,1.07,3.14,1.65q.56-1.06,1.08-2.13l-5.45-2.35a23.72,23.72,0,0,0-2.87-1.18c.13-.57.31-.63.45-1.2l8.43,3.6,1.15-2.35-4.09-1.49c-.88-.3-1.57-.54-2.43-.87l-2.31-.84a7.81,7.81,0,0,1,.45-1.2,7.5,7.5,0,0,1,1.22.43l7.72,2.81.69-1.44L373,269.49a55.51,55.51,0,0,1-2.53,7,14.54,14.54,0,0,0-2.84-4.72c.35,5.68-1.47,10.51-2.73,15.85-.79.13-4.26,4.3-4.94,4.47,2.08-5.07,5.89-13.21,6.81-21.31-8.31-9.15-27.32-20.27-34.67-30.57.32,2.15.54,4.27.64,6.28.83,16-1.68,27.89-6.14,39.12a77.94,77.94,0,0,1-10.43,18,56.76,56.76,0,0,1-5.35,6c-.28.28-.46.49-.75.75a12.52,12.52,0,0,0-2.06,2,6.79,6.79,0,0,0,.89,1.81l1.45,2.71Zm-2.7,2.52a7.1,7.1,0,0,1,1.64-1.75l-2.32-4.39c-.51.14-.39.2-.82.53s-.4.25-.68.67a1.48,1.48,0,0,1,.3.45,2.41,2.41,0,0,1,.17.43Zm-1.21,5.74a10.31,10.31,0,0,1,.47-4.23c-.31-.72-.63-1.43-.95-2.14a16.59,16.59,0,0,1-1.4-3.54,2.79,2.79,0,0,0-1.35.89,22.12,22.12,0,0,0,.92,2.67c.29.79.63,1.65.94,2.51.45,1.28.9,2.57,1.37,3.84m-2.78,1.18,1.78-.23-.66-1.79c-.35-.9-.57-1.64-.92-2.53s-.62-1.68-.92-2.52a21.87,21.87,0,0,0-.92-2.38,3.27,3.27,0,0,1-1.05.6,22.53,22.53,0,0,1,.77,2.53l1.92,6.32Zm-3.17.41,1.8-.23c-1.24-4.06-2.32-7.74-2.37-8.28a4.22,4.22,0,0,1-1.2.6,46.14,46.14,0,0,0,1.14,5.16l.63,2.76Zm-3.16.41,1.87-.24c-.56-2.45-1.11-4.9-1.68-7.34a3.38,3.38,0,0,1-1.2.6,19,19,0,0,0,.34,2.66l.66,4.32Zm-3.82.5,2.47-.33c-.46-3-.85-5.78-.85-6.4a10.38,10.38,0,0,0-2.1.9c0,1.13.23,3.55.48,5.83m-4.45.58,3.22-.42-.39-3.8c-.19-1.44.3-1.89-1.13-1.32a14.73,14.73,0,0,1-2.23.78c.12,1.49.36,3.24.53,4.76m-3.85.5,2.56-.33c-.07-.72-.12-1.4-.22-2.14a17,17,0,0,1-.21-2.34c-.82.07-1.38.43-2.25.45,0,1.51.06,2.95.12,4.36m-3.89.5,2.56-.33c0-.57,0-1.14,0-1.69,0-.8-.15-1.37-.15-2.4a5.51,5.51,0,0,0-1.16.19c-.19,0-.93.08-1.1.25s-.23,2.11-.16,4m-4.8.63,3.61-.47-.13-4a35.8,35.8,0,0,1-3.6.3c0,1.35.06,2.74.12,4.14m-3.2,0,1.52.24.34-.05L275,326H273.3c0,1.37,0,2.68-.09,4m-4.81-.76,3.52.55c0-.46,0-1,0-1.52,0-1,.15-1.48.15-2.24-1.41,0-2.32-.15-3.6-.15,0,1.24-.05,2.26-.1,3.37m-3.44-.55,2.1.33a20.77,20.77,0,0,1,.24-3.31c-.64-.05-1.59-.28-2.25-.3,0,1.12,0,2.2-.1,3.28m-4.2-.66,2.87.45c.09-1.16.24-2.35.24-3.37-.47,0-2.67-.63-2.85-.45l-.26,3.37Zm-4.53-.71,3.24.51c.12-1.2.2-2.4.2-3.61l-2.85-.9a39.12,39.12,0,0,0-.6,4m-3.92-.62,2.68.42a24.8,24.8,0,0,0,.5-4.26c-.34-.18-2-1-2.26-.76-.06.06-.41,1.87-.92,4.59m-3-.46,1.81.29.45-2.51a16.74,16.74,0,0,1,.51-2.64,12.54,12.54,0,0,0-1.49-.6,25.86,25.86,0,0,1-.57,2.58l-.7,2.88Zm-3.84-.61,2.6.41c.74-3.09,1.31-5.58,1.32-6a15.89,15.89,0,0,1-1.8-.9c-.39.81-1.48,4.46-2.11,6.5m-3.75-.58,2.48.39a62.88,62.88,0,0,0,2.17-7.06,10.28,10.28,0,0,0-1.8-1.05c-.09.4-.32.9-.47,1.33L241.66,325Zm-2.91-.46,1.61.25,2.19-5.88a26.44,26.44,0,0,0,.92-2.53c-.55-.15-.19-.15-.75-.3-.25,1.06-2.95,6.2-3.59,7.65-.12.28-.25.55-.38.81m-1-4.3a7.75,7.75,0,0,1,.6,2.24l2.22-4.7a13.3,13.3,0,0,0,1.15-2.6c-.35-.24-.68-.5-1.05-.75-.6,1.15-1.14,2.29-1.74,3.5l-1.17,2.31ZM260.43,332l1.95-.25-1.9-.31-.05.56Zm-5,.65,3.56-.46c0-.33.05-.65.08-1l-3.35-.55c-.1.67-.2,1.34-.29,2m-4.34.56,3-.4c.11-.79.23-1.58.34-2.36l-2.79-.45c-.18,1-.37,2.1-.57,3.21m-3.7.48,2.4-.31.64-3.57-2-.33Zm-4.8.63,3.45-.45c.36-1.46.75-3,1.13-4.59l-2.85-.47c-.6,1.84-1.17,3.67-1.74,5.51m-4.66.6,3.27-.42,1.89-5.89-2.63-.43L238,335Zm-4.33.57,2.88-.38,2.67-7.14-1.6-.26a8.93,8.93,0,0,1-1.33,2.37l-.23.19c-.82,1.73-1.6,3.48-2.4,5.21m-3.23-.82,1.92.57,1.74-3.71a10.55,10.55,0,0,1-2.5.85l-1.16,2.29Zm-3.75-1.11,2.48.73.85-1.67-.76.08a12.31,12.31,0,0,1-1.74-.52l-.83,1.37Zm-5.27-3.45a12.52,12.52,0,0,0,2,2.57l.05-.09,2,.59.94-1.56c-1.57-1-2-2.26-3.39-3.83l0-.12c-.5.81-1,1.62-1.52,2.43m-1.55-8.81h0v3.43a13.74,13.74,0,0,0,.86,4l1.27-2.12.55-.92c-.38-3.37.19-7.71,4.4-9.58a4.13,4.13,0,0,1,3.53-3.9c-8.9-10.72-15.42-22.2-18.24-37.3,6.68,17.86,15,29.55,24.41,38.71a19.23,19.23,0,0,1-2.31.06,4.06,4.06,0,0,1,.94,2.51,5.15,5.15,0,0,1,0,.56c1.09-1.82,1.89-3.22,1.94-3.41.83.07.55.27,1.2.45-.06.25-1.05,2-2.31,4.1a6.64,6.64,0,0,1,.87,1c1.53-3,2.59-5.19,2.64-5.38a31.4,31.4,0,0,1-3.11-2.74c-.34-.3-.47-.33-.82-.67l-.75-.75-2.85-3a72.31,72.31,0,0,1-8.51-11.87l-3-5.71a83.78,83.78,0,0,1-7.39-24.68,91.3,91.3,0,0,1-.14-24.83c-7.25,10.27-24.09,24.28-30.88,33.89l0,.34-.3,0a26.69,26.69,0,0,0-1.6,2.65,73.51,73.51,0,0,0,3,9l.13,0,.18.8c.85,2.11,1.69,4,2.36,5.67l.46-.17a4.71,4.71,0,0,1,.3,1.35c-.19,0-2,.6-4.89,1.53.62.85,1.25,1.67,1.92,2.48l6.87-2.51c.06.72.24.48.3,1.2l-6.3,2.35.09.11c.91.94,1.82,1.86,2.73,2.78l1.56-1.17a33.42,33.42,0,0,1,3.58-2.57,3.27,3.27,0,0,1,.6,1.05c-.59.39-1.22.92-1.8,1.35l-3,2.26c1,1,1.91,1.9,2.87,2.82l5.39-4.64a4.08,4.08,0,0,1,.75.9l-5.26,4.58c.85.81,1.71,1.61,2.55,2.39l5.25-4.88a2.74,2.74,0,0,1,.75.9l-5.11,4.8q1.58,1.43,3.12,2.76l5.12-5.15a5.55,5.55,0,0,0-2.44-1.12c-4.79-9.33-8-15.46-7.93-27.58,2.43,14,7.82,22.64,13.48,30.39a5.73,5.73,0,0,1-2.11-1l-5.2,5.28c1.08.91,2.15,1.79,3.21,2.62,1-1.07,2-2.09,2.83-3a20,20,0,0,0,1.89-2,13.33,13.33,0,0,1,1.94-1.9l.78.87-1.9,2.14c-.64.67-1.37,1.26-2,2l-2.56,2.72c1,.77,2,1.5,3,2.19l6-7.74h-.29c-7-10.16-10.83-18.85-11.92-32.35,4,15.46,9.71,25.51,16.75,34-1,0-2.7-1.18-4-1.52a1,1,0,0,0,.55.3c-.06.63-1.08,1.74-1.67,2.53-.33.45-.57.71-.92,1.18s-.56.77-.9,1.2l-2.45,3.19c1.45,1,2.89,1.86,4.3,2.66.45-.65.88-1.29,1.3-1.93.61-.92,1.24-1.72,1.86-2.64l2.79-3.95c.32-.48.64-.89.93-1.32a3.47,3.47,0,0,1,1.05.6c-.13.49-.16.36-.45.75s-.29.44-.48.72l-3.76,5.36c1-1,2.53-.57,4.64-.89,0,.26,0,.51-.07.76.08-.14.17-.27.26-.41.33-.5.59-.94.93-1.47.78-1.21,1.65-2.42,2.37-3.67a7.55,7.55,0,0,0-1.57,0c-7.91-11.13-13.15-22.21-14.54-37.11,4.63,17,11.35,28.24,19.26,37.47a10.41,10.41,0,0,1-1.84-.16,7.39,7.39,0,0,1-.8,1.43c-1.39,2.12-2.82,4.42-4.24,6.68m152.84,27.94a.81.81,0,0,1-.34-.41,13.23,13.23,0,0,0-1.51-1.41,7.94,7.94,0,0,0-2.61-1.54,3.52,3.52,0,0,0-2.06,0,3.41,3.41,0,0,0-1.63,1.12,3.21,3.21,0,0,0-.74,2.48,3.61,3.61,0,0,0,1.42,2.38,3.51,3.51,0,0,0,2.54.88,2.94,2.94,0,0,0,2.14-1.13,3,3,0,0,0,.51-2.85,1,1,0,0,1,.2.16,6.83,6.83,0,0,1,1.13,1.15,4.61,4.61,0,0,1,.66,1.17,2.17,2.17,0,0,1,.1,1,1.93,1.93,0,0,1-.45,1,1.6,1.6,0,0,1-1,.64,2.13,2.13,0,0,1-1.38-.33l-.7,1.05a3,3,0,0,0,2.11.49,3,3,0,0,0,1.83-1.15,3.4,3.4,0,0,0,.8-2,3.72,3.72,0,0,0-.6-2.19,4.82,4.82,0,0,0-.39-.57m.47-1.55a.84.84,0,0,1,.64.31,4.72,4.72,0,0,0,2,.46,3.24,3.24,0,0,0,3-3.24,3.72,3.72,0,0,0-.76-2,9.87,9.87,0,0,0-2.22-2.09,10.83,10.83,0,0,0-2.17-1.29,5,5,0,0,0-1.67-.39,2.86,2.86,0,0,0-1.43.27,3.18,3.18,0,0,0-1.17,1,2.92,2.92,0,0,0-.63,1.93,3.81,3.81,0,0,0,.75,2,10.45,10.45,0,0,0,2.23,2.11,14.78,14.78,0,0,0,1.44.92M235.27,280l-10.07,3.5-.68-2,5.29-6.46-6.71,2.34-.66-1.89L232.5,272l.7,2-5.15,6.34,6.56-2.29.66,1.89ZM232,269.91l-10.46,2L220,264.13l1.76-.33,1.06,5.64,2.32-.43-1-5.26,1.76-.34,1,5.26,2.85-.54-1.1-5.84,1.76-.33,1.5,8ZM226,253.58l.56-2.11a4.71,4.71,0,0,1,2.66,1.48,4.51,4.51,0,0,1,1,2.79,4.59,4.59,0,0,1-1.29,3.55,5.52,5.52,0,0,1-3.9,1.54,5.9,5.9,0,0,1-4.19-1.18,4.7,4.7,0,0,1-1.63-3.54,4.49,4.49,0,0,1,1-3.23,4.37,4.37,0,0,1,1.91-1.18l.6,2.1a2.24,2.24,0,0,0-1.27.85,2.27,2.27,0,0,0-.42,1.48A2.39,2.39,0,0,0,222,258a4.16,4.16,0,0,0,2.78.61,4.45,4.45,0,0,0,2.84-.86,2.33,2.33,0,0,0,.76-1.93,2.06,2.06,0,0,0-.61-1.44,3.15,3.15,0,0,0-1.74-.82m4.24-8.37-10.45-1.51.31-2.12,8.67,1.25.76-5.3,1.77.25-1.07,7.42Zm-8.87-11.8.6-2.06,5.54,1.6a12.3,12.3,0,0,0,1.73.42,1.75,1.75,0,0,0,1.19-.34,2.24,2.24,0,0,0,.77-1.25,2.19,2.19,0,0,0,0-1.43,1.45,1.45,0,0,0-.73-.79,11.35,11.35,0,0,0-1.71-.6l-5.66-1.64.6-2.06,5.37,1.56a14.66,14.66,0,0,1,2.55.92,3,3,0,0,1,1.1,1,3.28,3.28,0,0,1,.48,1.44,5.57,5.57,0,0,1-.26,2.06,5.92,5.92,0,0,1-1,2.12,3.32,3.32,0,0,1-1.22.94,3,3,0,0,1-1.3.25,13.46,13.46,0,0,1-2.66-.55l-5.45-1.58Zm12.76-15.05,1.5-1.6a4.72,4.72,0,0,1,1.64,2.56,5,5,0,0,1-3.27,5.43,5.5,5.5,0,0,1-4.17-.48,5.86,5.86,0,0,1-3.13-3,4.78,4.78,0,0,1,.23-3.9,4.47,4.47,0,0,1,2.41-2.36,4,4,0,0,1,2.24-.13l-.45,2.14a2.24,2.24,0,0,0-1.52.14,2.29,2.29,0,0,0-1.06,1.11,2.42,2.42,0,0,0-.06,2.1,4.23,4.23,0,0,0,2.16,1.86,4.48,4.48,0,0,0,2.91.58,2.36,2.36,0,0,0,1.59-1.34,2.15,2.15,0,0,0,.15-1.57,3.17,3.17,0,0,0-1.16-1.54m5.32-1.61-8.64-6.22,4.61-6.41,1.47,1.06-3.35,4.66,1.92,1.38,3.12-4.34,1.46,1L237,212.23l2.35,1.69,3.47-4.82,1.45,1-4.73,6.58Zm1.86-11.41a6.79,6.79,0,0,1-1.47-2.35,4.86,4.86,0,0,1-.24-1.74,4,4,0,0,1,.39-1.63,5.7,5.7,0,0,1,1.41-1.85,5,5,0,0,1,3.78-1.45,6.55,6.55,0,0,1,5.43,6,5,5,0,0,1-1.8,3.6,5.1,5.1,0,0,1-3.78,1.46,5.48,5.48,0,0,1-3.72-2m1.59-1.54a4,4,0,0,0,2.46,1.47,2.75,2.75,0,0,0,2.21-.72,2.7,2.7,0,0,0,.94-2.1,5.11,5.11,0,0,0-3.68-4.11,3,3,0,0,0-3.16,2.88,4,4,0,0,0,1.23,2.58m14.35-4.26-3.83-9.93,3.22-1.25a14.1,14.1,0,0,1,2.44-.77,2.9,2.9,0,0,1,1.81.43,3.3,3.3,0,0,1,1.32,1.71,3.43,3.43,0,0,1,.26,1.67,3,3,0,0,1-.46,1.31,3.19,3.19,0,0,1-.86.86,11.32,11.32,0,0,1-2,.95l-1.31.5,1.45,3.75-2,.77Zm-1.17-9,1.09,2.83,1.1-.43a5.42,5.42,0,0,0,1.53-.77,1.46,1.46,0,0,0,.44-.73,1.54,1.54,0,0,0-.73-1.64,1.57,1.57,0,0,0-1-.13,11.31,11.31,0,0,0-1.47.48l-1,.37Zm10.26,5.86-1-10.51,2.14-.21.85,8.72,5.32-.52.18,1.78-7.46.73Zm10.51-11.18,2.12.4-1.07,5.67a12.25,12.25,0,0,0-.25,1.76,1.7,1.7,0,0,0,.45,1.16,2.29,2.29,0,0,0,1.32.65,2.19,2.19,0,0,0,1.43-.11,1.45,1.45,0,0,0,.71-.8,10.87,10.87,0,0,0,.43-1.76l1.09-5.79,2.12.39-1,5.5a15.12,15.12,0,0,1-.67,2.63,3.06,3.06,0,0,1-.88,1.19,3.17,3.17,0,0,1-1.39.62,5.25,5.25,0,0,1-2.07-.06,6.07,6.07,0,0,1-2.21-.77,3.29,3.29,0,0,1-1.05-1.13,3.09,3.09,0,0,1-.38-1.27,13.21,13.21,0,0,1,.29-2.69l1.05-5.58ZM285,197.85l4.92-9.44,4,2.09a7.59,7.59,0,0,1,2.07,1.4,2.46,2.46,0,0,1,.63,1.48,2.9,2.9,0,0,1-.37,1.7,2.84,2.84,0,0,1-1.53,1.43,3.41,3.41,0,0,1-2.32-.1,4.52,4.52,0,0,1,.6,1.32,12.76,12.76,0,0,1,.29,2.1l.19,2.45-2.27-1.19-.32-2.77a14.35,14.35,0,0,0-.28-1.92,1.75,1.75,0,0,0-.37-.69,3.26,3.26,0,0,0-.9-.61l-.39-.2-2.05,3.95-1.9-1Zm4.74-4.46,1.41.74a8.93,8.93,0,0,0,1.77.78,1.18,1.18,0,0,0,.74-.12,1.52,1.52,0,0,0,.56-.61,1.28,1.28,0,0,0,.15-.89,1.31,1.31,0,0,0-.52-.75c-.15-.1-.6-.35-1.38-.75L291,191l-1.24,2.39Zm4.3,9.71,6.56-8.39,1.69,1.32-6.55,8.39Zm11.08-4.79,2.89,3.12a11,11,0,0,1,1.2,1.46,2.78,2.78,0,0,1,.44,1.11,2.75,2.75,0,0,1-.1,1.2,2.3,2.3,0,0,1-.7,1.09,2.44,2.44,0,0,1-1.28.64,2.52,2.52,0,0,1-1.43-.17,2.89,2.89,0,0,1,.31,1.76,2.6,2.6,0,0,1-.82,1.47,3.26,3.26,0,0,1-1.27.72,2.85,2.85,0,0,1-2.79-.65c-.27-.23-.87-.85-1.81-1.85l-2.46-2.66,7.81-7.23ZM302.21,204l-2.09,1.93,1.35,1.46a10.11,10.11,0,0,0,1,1,1.4,1.4,0,0,0,.84.29,1.25,1.25,0,0,0,.86-.4,1.42,1.42,0,0,0,.44-.72,1.31,1.31,0,0,0-.09-.82,7.07,7.07,0,0,0-1.19-1.5L302.21,204Zm3.1-2.87-1.81,1.67,1,1c.57.61.93,1,1.09,1.12a1.41,1.41,0,0,0,.87.38,1.17,1.17,0,0,0,.83-.34,1.12,1.12,0,0,0,.4-.74,1.23,1.23,0,0,0-.27-.85c-.12-.17-.53-.63-1.21-1.37l-.85-.91Zm8.1,6.79,1.12,1.84-4.92,3a11,11,0,0,0-1.48,1,1.69,1.69,0,0,0-.55,1.11,2.28,2.28,0,0,0,.4,1.42,2.23,2.23,0,0,0,1,1,1.54,1.54,0,0,0,1.08,0,11.35,11.35,0,0,0,1.59-.86l5-3.06,1.11,1.84-4.77,2.91a14.45,14.45,0,0,1-2.4,1.25,3.08,3.08,0,0,1-1.48.16,3.3,3.3,0,0,1-1.39-.62,5.36,5.36,0,0,1-1.35-1.58,5.81,5.81,0,0,1-.9-2.15,3.52,3.52,0,0,1,.13-1.54,2.91,2.91,0,0,1,.69-1.13,12.92,12.92,0,0,1,2.2-1.59l4.84-3Zm-.73,12.93,1,1.87a2.58,2.58,0,0,0-1.16,1.28,2.35,2.35,0,0,0,.12,1.63,2.44,2.44,0,0,0,1,1.29,1.3,1.3,0,0,0,1.14.11.93.93,0,0,0,.52-.45,1.82,1.82,0,0,0,.14-.89c0-.27-.08-.86-.2-1.77a5.76,5.76,0,0,1,.08-2.64,2.8,2.8,0,0,1,3.21-1.84,3,3,0,0,1,1.49.84,5.28,5.28,0,0,1,1.12,1.81,4.49,4.49,0,0,1,.3,3.13,3.08,3.08,0,0,1-1.79,1.85l-.88-2a1.83,1.83,0,0,0,.87-1,2.09,2.09,0,0,0-.16-1.39,2.49,2.49,0,0,0-.9-1.22.76.76,0,0,0-.74-.07.82.82,0,0,0-.48.53,5.6,5.6,0,0,0,.06,2.11,10.94,10.94,0,0,1,.16,2.43,2.94,2.94,0,0,1-2,2.51,3.14,3.14,0,0,1-3.41-.73,5.88,5.88,0,0,1-1.22-2,4.68,4.68,0,0,1-.29-3.23,4.1,4.1,0,0,1,2.06-2.21M314.15,236l10.42-2.24.45,2.11-10.41,2.23-.46-2.11Zm1,4.07,10.6-1,.31,3.2-7,2.62,7.42,1.2.31,3.21-10.59,1-.2-2,8.34-.81-8.54-1.29-.21-2.06,8.14-2.91-8.34.82-.2-2Zm.95,12.27,10.64.53-.17,3.45a11.68,11.68,0,0,1-.29,2.54,2.83,2.83,0,0,1-1.11,1.48,3.31,3.31,0,0,1-2.11.52,3.41,3.41,0,0,1-1.63-.44,2.89,2.89,0,0,1-1-1,3.08,3.08,0,0,1-.45-1.14,13.54,13.54,0,0,1-.05-2.24l.07-1.4-4-.2.11-2.15Zm8.73,2.59-3-.15-.06,1.17a5.24,5.24,0,0,0,.08,1.71,1.47,1.47,0,0,0,.49.7,1.36,1.36,0,0,0,.81.28,1.34,1.34,0,0,0,1-.29,1.44,1.44,0,0,0,.51-.84,10.66,10.66,0,0,0,.15-1.54l.05-1ZM314,270.56l.41-2.29,2.54-.5.74-4.19-2.23-1.29.4-2.24,9.76,5.93-.39,2.24L314,270.56Zm4.83-3.16,4.14-.76-3.63-2.1-.51,2.86Zm-5.17,4.19L323.7,275l-1.47,4.29a7.47,7.47,0,0,1-1.07,2.25,2.47,2.47,0,0,1-1.36.84,3,3,0,0,1-1.74-.11,2.82,2.82,0,0,1-1.64-1.3,3.43,3.43,0,0,1-.25-2.32,5.11,5.11,0,0,1-1.21.81,12.92,12.92,0,0,1-2,.6l-2.39.57.83-2.44,2.69-.72a15.29,15.29,0,0,0,1.85-.57,1.52,1.52,0,0,0,.62-.47,3.55,3.55,0,0,0,.46-1l.14-.41-4.2-1.44.69-2Zm5.12,4-.51,1.5a7.75,7.75,0,0,0-.5,1.87,1.18,1.18,0,0,0,.22.72,1.42,1.42,0,0,0,.69.47,1.19,1.19,0,0,0,.91,0,1.35,1.35,0,0,0,.67-.63c.08-.16.25-.65.54-1.47l.54-1.59-2.55-.87Zm-162,41.75c-.07,3.58-.13,6.93-.15,8.76a38.06,38.06,0,0,1-5.43-5.56l5.58-3.21Zm.09-5c0,1.14,0,2.33-.06,3.5l-6.46,3.7c-.86-1-1.74-2.11-2.63-3.17l.26-.12,8.89-3.92Zm0-4.17c0,.85,0,1.77,0,2.75l-.21.1-9.78,4.36c-.75-.89-1.49-1.77-2.21-2.59,2.73-1,5.12-1.94,5.31-2,2.24-.88,4.57-1.74,6.93-2.6m2.23,1.7-1-2.16c2.84-1,5.7-2.05,8.5-3.08a22.16,22.16,0,0,0,9.94-3.32,1.62,1.62,0,0,1,1.23.37L170.34,305c-3.53,1.59-7.61,3.29-11.25,4.92m1.75,3.62c-.4-.8-.79-1.61-1.18-2.42l15.72-6.93c.8-.33,1.48-.7,2.26-1l1-.4c-.53.6-1,1.18-1.47,1.76l-.06-.12c-.94.08-8.12,4.47-9.45,5.24l-6.8,3.9Zm9.48,16.74a165.55,165.55,0,0,1-8.9-15.58l4.69-2.69c2.89-1.62,6.57-3.85,9.66-5.58a22,22,0,0,0-2.64,5.13l-7.5,5.65a8.91,8.91,0,0,1-1.86,1.29c.06.75.1.25.6,1.2l8.24-6.18a8.34,8.34,0,0,0,1,6.3c-1.36,1.25-5.61,4.71-6.09,5.43a9.17,9.17,0,0,1,.75.9,10.63,10.63,0,0,0,.87-.77l5.25-4.57a9,9,0,0,0,3.08,2.08,25.17,25.17,0,0,0,1.16-5.76l10.69-9.31,2.67,2.44-1.42,1.32c-.38.35-.59.43-1,.82L184,317.7a10.44,10.44,0,0,0-1,.83l-5.56,5.23c-1.26,1-5.74,5.45-6.53,6.06-.24.19-.42.32-.57.46M174.2,336q-1.63-2.26-3.19-4.62l3.41-3.07c.31-.32.57-.61.91-.9l8.38-7.8c1.82-1.69,4-3.51,5.69-5.25l3.47-3.26C193.93,312,195,313,196,314l-7.2,7.24c-2.61,2.61-5.09,5.13-7.72,7.72l-1.8,1.95c-.94.94-3.74,3.64-5.1,5.07m15.24,17.6A124,124,0,0,1,175,337c1-.91,2.39-2.45,3.11-3.16l18.81-19.07,1.16,1.11a15.46,15.46,0,0,0,2.1,1.63c-.78.84-1.55,1.64-2.29,2.38-1.22,1.23-2.48,2.58-3.75,3.94a20.91,20.91,0,0,0-2.56.72,11.26,11.26,0,0,0,.7,1.28c-1,1.11-2.07,2.2-3.09,3.2a12.31,12.31,0,0,0-.91,1c-.58.7-1.37,1.37-2,2l-7.68,8.21c.35.52.36.47.9.75l12.48-13a12.15,12.15,0,0,0,.9-1l.14-.17a12.6,12.6,0,0,0,4.2,3.27l-7,9.08a13.17,13.17,0,0,0-2.47,3l.24-.06-1.36,1.77c-.35.46-.57.71-.92,1.17a14.87,14.87,0,0,0-1.73,2.47,3.27,3.27,0,0,0,1.05.6l2.65-3.49c.33-.44.57-.78.91-1.19s.59-.75.91-1.18l.3-.4c2.47-.12,4.56.73,6.82,1.3l-6.35,9a7.47,7.47,0,0,0-.85,1.34m16.11,12.79a113.92,113.92,0,0,1-15.43-12.16,1.61,1.61,0,0,0,.33.12l5.54-8c.54-.81,1.21-1.79,2-2.87a11.44,11.44,0,0,0,6.62-.67l-9.77,15.38a7.47,7.47,0,0,1,1.2.6c.17-.64,3.14-5.06,3.57-5.72l7.23-11.35a37.8,37.8,0,0,0,7.85-6.43c-2.29,5-5.4,8.6-5.36,12L207.58,350c-.22.35-6.91,10.94-7.1,11.78.77.18.45.39,1.2.45a4.81,4.81,0,0,1,.8-1.45l7.17-11.62a9.62,9.62,0,0,0,3.7,4.07l-6,10a29.19,29.19,0,0,0-1.79,3.09m16.89-10.27-1-.41c-2.21,4.2-6.15,10.45-8.7,15-2.11-1.17-4.15-2.39-6.15-3.67,1.47-2.71,6.23-10.4,7.84-13.07l0,0v-.09l10.48-17.45,2.7.8c-1.08,2.11-1.86,3.66-2.12,4.19-2.33,4.66-4.72,9.25-7,13.94-.3.6-.61,1.08-.9,1.65-1.5,2.89-2.84,5.91-4.4,8.79a21.18,21.18,0,0,0-1.75,3.5,2.62,2.62,0,0,0,1.2.45l16.3-32.13.29.09.11,1.64,1.15-.15-.82,1.73c-1.6,3.45-3.35,6.76-4.85,10.29-.57,1.32-1.89,3.49-2.34,4.86m5.73,2.11q-2.24-.78-4.48-1.65c1.17-2.27,2.28-5.05,3.44-7.35l3.59-7.64c.42-.83.78-1.72,1.2-2.55l0,0,1.09-.15,1.87.56-3.06,8.22c-.55,1.54-3.23,9-4,10.43l.3.15m16.37,4.55a129.61,129.61,0,0,1-15.63-4.28l.31.05a13,13,0,0,1,.88-2.57l6-16.17,3.09.92-.17.52c-.29.87-.59,1.69-.82,2.49-.71,2.59-4.8,14.2-4.82,15.41a3.84,3.84,0,0,0,1.2.3,24.07,24.07,0,0,1,.77-2.53c.27-.81.49-1.62.78-2.52l3.23-10c.37-1.11.74-2.22,1.1-3.34l3.52,1c-.69,2.83-1.33,5.6-2,8.35-.08.31-.26,1-.5,2l-.93.22.58,1.15c-.7,2.76-1.57,6.29-1.58,7l1.2.18a18.21,18.21,0,0,0,.6-2.42l.74-3,3.91-.91-1.4,7.81c0,.14-.05.26-.07.38m5.21.94c-1.32-.21-2.64-.45-4-.7.29-2.14,1.13-6.34,1.59-8.75l3.85-.9-1.11,7.94c-.12.79-.29,1.67-.37,2.41m12,1.3c-3.54-.21-7.09-.57-10.64-1.1a35.89,35.89,0,0,1,.67-4.89c.26-1.82.46-3.37.71-5.13l.12-.85,4.94-1.14c-.05.8-.09,1.6-.15,2.41-.26,3.41-.74,6.79-.74,10.2a3.44,3.44,0,0,1,1.2.15l.19-2.51c.34-2.51.38-5,.57-7.52.07-1,.18-2,.27-3l3.58-.83c-.32,4.81-.68,9.84-.72,14.26m19-.36a127.44,127.44,0,0,1-17.78.42l.79-14.62,2.45-.57-.52,11.39a25.72,25.72,0,0,0-.06,2.64c-.06,1.36-.47,1.19,1.2,1.19l.68-15.53.94-.21,2.59.77-.32,7.33c0,.79.07,1.77,0,2.53l-.27,4.82h1.35c0-3.88.46-8.09.44-12,0-1,.15-1.34.16-2.29l3.3,1c0,1.66.15,3,.15,4.61v2.55c0,1.39.18,3,.14,5.1,0,1.71.19,1.14,1.36,1l-.14-7.2c0-1-.16-1.43-.16-2.39s0-2.24,0-3.32l3.4,1c.09,3.89.2,7.76.2,11.74h.12Zm4.36-.47c-1.05.13-2.1.25-3.15.35,0-1.83-.15-3.28-.15-5s.06-3.65,0-5.4l0-.84,3,.89v.1c0,.82-.06,1.75,0,2.55l.29,7.33Zm10.61-1.72c-3.11.61-6.2,1.13-9.27,1.54,0-.91-.11-1.45-.15-2.2s.05-1.73,0-2.55-.15-1.37-.15-2.4a21.82,21.82,0,0,0-.11-2.29l4.45,1.32c.08.74.17,1.48.27,2.21a45.16,45.16,0,0,1,.49,4.9c1.93,0,1.27,0,.92-3.76l-.3-3,3.28,1,0,.17c.07.87.23,1.75.29,2.71.05.68.21,1.56.27,2.32m5.37-1.14c-1.4.32-2.79.62-4.17.91,0-1.16-.19-2.84-.35-4.52l2.33.69,1.17-3.08-3.88-1.14c-.07-.62-.14-1.17-.19-1.61-.39-3.13-.68-6.24-1-9.36l3.2-.75c.83,5.53,1.59,11.16,2.5,16.61.09.57.28,1.55.37,2.25m5.54-1.38c-1.45.39-2.89.75-4.33,1.09,0-.74-.19-1.29-.3-2.06-.76-5.69-1.71-11.15-2.56-16.8l2.92-.67c1,4.65,3.84,17.23,4.27,18.44m9.9-2.89c-2.92.93-5.82,1.79-8.69,2.56a37.88,37.88,0,0,0-1.1-4.8c-.41-1.8-.75-3.35-1.17-5.12l-1.95-8.5,2.79-.65c.77,2.6,1.49,5.18,2.36,7.75.54,1.58.94,3.31,1.49,5,.27.77.53,1.67.76,2.54a14.11,14.11,0,0,1,.72,2.58,2.67,2.67,0,0,0,1.35-.3l-.78-2.51c-1.42-5.13-3.09-10.2-4.67-15.28l2.56-.59c1.21,3.24,2.53,6.58,3.62,9.86.28.83.6,1.74.92,2.53s.59,1.64.92,2.53a17.64,17.64,0,0,1,.86,2.46m4.74-1.56-3.52,1.17a9,9,0,0,0-.81-2.44l-4.64-12.6-.63-1.81,2.91.47.11-.4.08.17c.5,1.16,1,2.38,1.52,3.58.94,2.34,2,4.7,3,7.07l2,4.78Zm-53.07,28.2.05,8.42-4,2.43-3-2.54,2.7-2-8.26-3.32.67,9.34,2.57-2.23,11.56,12.75L281.9,393.3l2.83,2.1.87-9.35-9.19,3.38,2.46,2-2.51,2.84L273.23,392l-.19-8.35c18.18-.44,36.48-4.17,54.68-10.53-1.11-3.41-2.19-6.77-3.23-10.11l.77,1.82c.79,1.83,2.18,5.53,3,7.16a4.27,4.27,0,0,0,1.2-.45c-1.4-2.92-3.12-7.52-4.49-10.65-.53-1.19-1-2.39-1.51-3.58l-7.95-18.87,4.16-1Q327.84,352.71,336,368a3.83,3.83,0,0,1,1.05-.45c-.1-1.26-1.94-3.9-2.6-5.19l-3.81-7.16a11.08,11.08,0,0,0,4.22-3.68l3.5,6.35c.37.67,3.34,5.82,3.5,6.4a2.62,2.62,0,0,0,1.2-.45c-.14-.61-3.65-6.78-4.25-7.89-.21-.38-.25-.39-.45-.75l-2.88-5.24c.72-3.54-2.55-7.45-4.76-12.9a44.54,44.54,0,0,0,5.92,5.57l8.63,14.2c.61,1,1.19,2,1.83,3,.67-.16.48-.3,1-.45a13.68,13.68,0,0,0-1.65-3c-2.37-4-4.8-8-7.24-12a12.7,12.7,0,0,0,8.07,1.82c1.65,2.39,3.31,4.85,4.9,7a5.47,5.47,0,0,1,.88,1.37c.59-.16.6-.44,1.2-.6l-5.57-8c1.07-.19,2.11-.45,3.17-.66l2.37,3.41c.58.88,1.19,1.6,1.68,2.52a4.49,4.49,0,0,0,1.2-.6c-.55-.81-1.08-1.6-1.64-2.39L353.25,345a11.29,11.29,0,0,1,4.23.16c.28.39.54.79.82,1.2.7-.16.56-.27,1.05-.6a13.35,13.35,0,0,0-1.47-2.28c-.54-.8-1.05-1.46-1.62-2.27L350,332.44a12.59,12.59,0,0,0,3.36-2.32c3,4.08,9.41,12.93,9.54,13.44.67-.06.22,0,.65-.25a5.77,5.77,0,0,1,.55-.35l-9.31-13-.57-.77a10.54,10.54,0,0,0,1.06-1.57,20.53,20.53,0,0,0-2.85-.92c-.26-.36-.52-.73-.79-1.09-.55-.75-1-1.42-1.57-2.19s-1-1.44-1.56-2.18c-.36-.51-.72-1-1.1-1.5a14.32,14.32,0,0,0,1.64-1.13l1.21-1,7.09,8.73.8,1,6.31,7.78c.54.69,1,1.22,1.55,1.89a14.23,14.23,0,0,0,1.49,1.77c-17.72,23.38-37.92,37.82-57.72,41.09L313,398c31.65-2.5,74.3-45.82,86-78.65l3.48,2.52c.5-.95.54-.46.6-1.2a43.06,43.06,0,0,1-3.66-2.55l.33-1c-.25.2-.53.42-.8.65-1.66-1.22-3.25-2.41-3.54-2.63-.45-.35-.85-.6-1.31-.95s-.8-.62-1.28-1l-5.95-4.35a12.69,12.69,0,0,0,4.87-2.32l3.54,2.41c1,.64,1.88,1.3,2.85,1.95l1.35.9,4.2,2.85a60.55,60.55,0,0,0,5.69,3.75,3.47,3.47,0,0,0,.6-1.05l-17.2-11.67a15.75,15.75,0,0,0,2.28-2.66c.65.4,1.3.81,2,1.21l9.27,5.72c1.09.71,2.07,1.24,3.15,1.95s2,1.21,3.06,1.89,2.1,1.35,3.18,1.92a7.9,7.9,0,0,0,.6-1.2c-.66-.15-8.39-5.06-9.23-5.61l-12.32-7.61c-1.1-.66-2-1.29-3.14-1.94l-4-2.47a30.14,30.14,0,0,0,2.88-3.37l5.23,2.93c.58.35,1,.57,1.63.92,3.68,2.19,8.37,4.56,12,6.73,1.32.78,12.88,7.38,13.7,7.58a8.94,8.94,0,0,1,.6-1.05c-3.16-1.67-7.24-4.17-10.19-5.69-1.15-.59-2.35-1.3-3.46-1.94l-11.92-6.66c-.58-.35-1.16-.7-1.71-1l-5.18-2.9a7.82,7.82,0,0,0,1.22-3.34l3.75,2c1.19.71,2.39,1.25,3.61,1.93.62.34,1.16.58,1.8.9l5.3,2.8c3.95,2,8.55,4.59,12.38,6.49l3.55,1.85c.88.44,4.95,2.7,5.5,2.75.13-.58.32-.63.45-1.2a23.72,23.72,0,0,1-3.6-1.8c-1.23-.61-2.3-1.23-3.55-1.85-2.44-1.22-4.7-2.5-7.1-3.7l-32.62-17.11c.37-.8.74-1.61,1.1-2.44L411.67,292c1,.42,1.84.81,2.82,1.22a17.18,17.18,0,0,0,3,1.18,7.26,7.26,0,0,0,.3-1.2,9.62,9.62,0,0,1-1.39-.56l-15.72-6.76c-2-.81-3.76-1.65-5.76-2.49l-11.47-4.9c.35-.85.7-1.71,1-2.59l17.08,6.25c1.64.64,3.26,1.12,4.84,1.76.74.29,1.68.63,2.42.88a9.4,9.4,0,0,0,2.53.77,7.26,7.26,0,0,0,.3-1.2,42.42,42.42,0,0,1-4.78-1.67l-21.93-8c.2-.57.41-1.14.61-1.73l7.82,2.1c1,.26,1.94.53,2.92.8.05.09.1.19.16.28a1.52,1.52,0,0,0,.3-.17l.75.2c1.46.37,2.78.78,4.13,1.1.77.19,1.24.35,2,.54a16.21,16.21,0,0,0,2.16.54,3.77,3.77,0,0,1,.3-1.2l-8.17-2.2a9.26,9.26,0,0,0,1.91-4.17l8.66,1.27.15-1.35a14.55,14.55,0,0,1-2-.25l-2-.28-4.66-.7a11.78,11.78,0,0,0-.1-2.9c3.9.25,10.58,1.14,13.36,1.14l.18-1.2-13.81-1.24a10.77,10.77,0,0,0-2-3.89l3.48.16c1,0,1.44.16,2.54.16l8.07.32a21.74,21.74,0,0,0,2.57.14c1.06,0,1.56.16,2.69.16V261c-2.63,0-5.87-.33-7.79-.3l-7.9-.34c-.73-.1-2.78-.18-4.92-.25-.21-.19-.44-.38-.67-.56,0-1.37,3.57.53,3.55-.39a16.76,16.76,0,0,0,9.39-2.41l1.75.05c.74,0,.75.15,1.49.17,2.14.06,4,0,6.15.14l6.15.3V256c-2.17,0-4-.08-6.15-.14-.71,0-.69-.12-1.34-.16l-4.79-.15c-.53,0-1,0-1.42-.06a26.35,26.35,0,0,0,4.75-4.49c.76,0,1.51,0,2.21,0l13.78.3V250c-4.75,0-9-.15-13.78-.15l-1.29,0a25.72,25.72,0,0,0,2.85-4.85l6.37-.22a14.9,14.9,0,0,1,1.5-.15,7.24,7.24,0,0,0-.15-1.2c-2.29,0-4,.14-6.3.15-1,0-1.78.16-3,.16l-6.19.26c-1.06.14-2.18,0-3.26,0l-1,0a12.49,12.49,0,0,0,2.05-5.66L419.9,238v-1.35c-1.11,0-1.81.13-2.69.15s-1.93-.05-2.85,0l-5.54.3c-.92.05-1.93,0-2.86,0s-1.69.15-2.84.15-1.82.1-2.7.15-2-.05-3,0l-5.54.3c-.92,0-1.93,0-2.85,0h-.19v-4.32l.63,0,2.52-.17,1.83-.17a17.94,17.94,0,0,0,1.25,3.27c.48-1.25.88-2.4,1.23-3.48l4.27-.34c1.24-.1,2.12,0,3.78-.27l7.43-.51,1.24-.12c.8-.09.43.2.43-1.35l-16.76,1.29a29,29,0,0,0,.87-4c2.21-.19,4.48-.4,6.15-.48,1.3-.06,2.61-.3,4-.3,0-.68-.15-.6-.15-1.35-.63,0-1.1.13-1.95.15-1.92,0-5,.32-7.94.58a12.13,12.13,0,0,0-1.05-6.25l5.7-1.23a7,7,0,0,0-.3-1.2,27.86,27.86,0,0,0-3.36.69l-2.67.56a30.82,30.82,0,0,0-3.94-4.89c1.23-.4,2.56-.79,3.81-1.17l13.2-4c0-1.71-.54-1.29-3.45-.33,2.87-1.63,5.16-4.31,6.49-9a21.94,21.94,0,0,1-6.4,1.47c1.86-.76,3.72-1.52,5.36-2.25l5.64-2.3a7.78,7.78,0,0,1-.44-1.2l-5.55,2.25c-5.32,2.1-11.16,4.75-16.5,6.87l-1.8.75a25.48,25.48,0,0,0,2.12-5.35c3.06-1.34,6.39-2.71,9.09-4l17.54-7.79a12.81,12.81,0,0,1,1.69-.71c0-.79-.15-.57-.3-1.2-.65.06-5.4,2.31-6.42,2.72L413,190c-.55.27-1,.45-1.56.69l-4.89,2.16c-1.07.52-2.11,1-3.21,1.44-2.23,1-4.24,1.9-6.44,2.85l-2.19,1a15.28,15.28,0,0,0-.79-3.64l.4-.18c1-.4,1.83-.84,2.81-1.24l2.82-1.22c1.05-.5,13.38-6.05,14-6.1a7,7,0,0,0-.3-1.2c-.89,0-15.81,6.79-20.1,8.69a13.15,13.15,0,0,1-.75-4.41l11-5.34c-.14-.57-.32-.63-.45-1.2-.34.17-.7.27-1,.45l-1.09.55c-6.77,3.39-13.88,6.72-20.7,10.07-.27-1.32-.48-2.65-.62-4,4.85-2.49,9.65-5,10.48-5.38l4.15-2.07a31.72,31.72,0,0,1,3.42-.31c-.35-.3-.7-.59-1-.89l.75-.38-.6-1.2-1.24.63a15.18,15.18,0,0,0-5.73-3.5,23.41,23.41,0,0,1,2-1.17,3.38,3.38,0,0,0-.6-1.2c-.89.48-2.19,1.25-3.67,2.16-4,.26-6.64,1.5-8,3.37l1.12-3.69,12.06-8c-.15-.57-.29-.38-.45-1-.9.07-6,3.72-6.8,4.29-1.16.77-2.21,1.42-3.36,2.19l-.85.57,2.29-7.51c3.56-2.55,7-5.05,7.67-5.53a3.76,3.76,0,0,1,1.2-.75,4.22,4.22,0,0,0-.6-1.2,18.54,18.54,0,0,0-2.22,1.52l-5.52,3.93a16.62,16.62,0,0,0,0-6.21l1.36-1,2.57-1.93c.89-.66,1.6-1.24,2.46-1.88s1.73-1.36,2.57-1.93c-.23-.35-.5-.68-.75-1.05l-8.56,6.46a20.31,20.31,0,0,0-1.92-4l2.73-2.23,4.12-3.38c.45-.38,5-4.31,5.57-4.46-.08-.94-.37-.35-.6-1.2l-4.08,3.26c-1.79,1.59-4.88,3.92-6.82,5.62l-1.57,1.29c-.42-.71-.84-1.44-1.23-2.21a10.38,10.38,0,0,0-2.48,5.27c-3.41,2.83-7.24,6.08-10.4,8.57l-2,.78-.78,1.46-10.18,8.38c-.51.41-.9.74-1.41,1.14-.94.76-1.83,1.6-2.82,2.27.16.7.27.56.6,1.05.65-.18.91-.59,1.41-1l5.44-4.45c.45-.4.94-.81,1.39-1.17s.86-.68,1.32-1.08l2.69-2.21-1.22,2.29-.42.36c-.08-.21-.15-.42-.22-.63l-3.56,3.86L351,179.77a97.19,97.19,0,0,0-11.06-20.14,3.92,3.92,0,0,0,1-1.06l15-17.51-.78-.87a4.12,4.12,0,0,0-1,1L352.6,143c-.25.28-.22.31-.46.59l-3.06,3.53a6.82,6.82,0,0,0-.46.58c-.19.24-.3.31-.51.54s-.23.32-.46.59l-8.1,9.44c-.16.2-.26.28-.37.4-1.14-1.5-2.36-3-3.65-4.39.27-.32.58-.72.75-.93l5.25-6.3c.23-.29.41-.42.64-.7l5.86-7c.44-.5.77-1,1.21-1.48l4.75-5.74-.86-.94L350.8,134c-.41.48-.79.9-1.17,1.37s-.78,1-1.22,1.48c-.85,1-1.55,1.89-2.39,2.85s-1.54,1.87-2.4,2.84l-4.76,5.73c-.75,1-1.58,1.89-2.37,2.87-.39.48-.77.89-1.17,1.37s-.51.57-.68.78L333.39,152c.26-.48.69-1.12.89-1.42.46-.69.75-1.26,1.2-1.95s.74-1.26,1.2-2,.78-1.24,1.21-1.94l9.61-15.57c.83-1.36,1.58-2.53,2.39-3.9a30.86,30.86,0,0,0,2.31-4,9.84,9.84,0,0,1-1.05-.6c-1.57,3-7.61,12.36-9.53,15.5l-9.14,14.93c-.72-.69-1.47-1.37-2.23-2,1.17-2.08,2.31-4.19,3.48-6.27l7.52-6.18-.77-5.77c1.75-3.18,3.56-6.59,5.12-9.28l4-7.23c.49-.89.93-1.62,1.4-2.5l-1.2-.6a4.88,4.88,0,0,1-.6,1.21c-2.14,4.1-5.14,9-7.39,13.29l-1.63,2.92-.59-4.36-8.17,7.29c1.56-2.77,3.13-5.6,4.39-8.1,1.84-3.63,4-7,5.84-10.65.27-.53.43-.7.7-1.24s.46-.83.75-1.35c.52-.94.94-1.83,1.48-2.72s.91-1.71,1.42-2.63l.75-1.35a2.93,2.93,0,0,0,.65-1.45,3.7,3.7,0,0,1-1.05-.45l-2.89,5.2c-.52.92-.89,1.72-1.4,2.64l-6.54,11.89c-1.89,3.53-3.95,7-5.79,10.54l-19.68,35.78c-.5.9-.91,1.77-1.42,2.63s-.93,1.69-1.43,2.62c-.93,1.74-7.07,12.45-7.29,13.39a3.83,3.83,0,0,1-1-.51c-.39-.25-.59-.34-1-.54a34.52,34.52,0,0,1,2.1-4.79c.19-.39.29-.71.49-1.15l1.65-3.59c.4-.83.65-1.56,1-2.4s.74-1.52,1.09-2.36l5.36-11.88c2.62-5.42,4.86-11.2,7.49-16.64l13.33-29.68a20.11,20.11,0,0,0,1.6-3.65,8.51,8.51,0,0,1-1.2-.45,18.65,18.65,0,0,1-1,2.3l-9.59,21.28c-2,4.35-3.75,8.72-5.84,13l-2.1,4.65c-.24.51-.33.68-.56,1.23l-6.44,14.25c-.2.44-.29.72-.49,1.15-2.48,5.12-4.53,10.36-7,15.49a8.3,8.3,0,0,0-1,2.45c-.94-.22-1.76-1-2.7-1.2a9.72,9.72,0,0,1,.81-2.19l23.27-54.51c.57-1.32,5.52-12.43,5.58-13.3a7.69,7.69,0,0,0-1.19-.45,10.35,10.35,0,0,1-.84,2.16c-3.34,8-6.93,15.93-10.23,23.94-1.22,2.94-2.42,5.81-3.72,8.72-2.59,5.82-4.86,11.61-7.45,17.43L294,180.34c-.32.75-.61,1.52-.94,2.21a14,14,0,0,1-3.14-1.2c.3-.57.51-1.28.77-1.92l1.53-4c.27-.75.48-1.34.78-2.07,2.19-5.4,4.06-10.87,6.21-16.27,1.07-2.7,2-5.37,3.1-8.14s2-5.3,3.09-8c2.14-5.47,4-10.83,6.21-16.27.37-.92,3-7.35,3-8.21a4.27,4.27,0,0,0-1.2-.45,24,24,0,0,1-1.48,4.06l-4.64,12.15c-1,2.76-2,5.36-3.1,8.13l-12.37,32.44c-.74,2-2.29,6.36-3.12,8.12l-3.75-1.2c0-.21.95-3,2.27-6.81L290,173a5.87,5.87,0,0,0,2.69-7.69,17.51,17.51,0,0,0-1.34-4.22c2.24-6.41,4.3-12.28,4.68-13.4.93-2.66,1.83-5.24,2.77-7.87l5.55-16c.5-1.52,2.65-6.87,2.68-8.11a6.2,6.2,0,0,0-1.2-.3c-.08,1-2.32,6.88-2.68,8l-2.1,6c-2.89,8.74-6.11,17.31-9,26l-1.39,4-.12.32c-1.48-2-3.51-3-6.33-5.57,5.4.69,6.25-1,7.63-3.42a23.22,23.22,0,0,0-.47-5.58l.1-.38c1.48-5.41,3.57-11.61,5.16-17.17.87-3,3.5-11,4.13-13.7a9.19,9.19,0,0,0-1.35-.3c0,.62-1.68,5.77-2,6.86-1.23,4.45-2.82,9.1-4.1,13.58L291.19,141c-.22.66-.42,1.31-.62,2a9.8,9.8,0,0,0-1.64-2.58l1.93-8.41c.62-2.46,1-4.75,1.64-7.2l3.24-14.45c-1.7-.14-1-.88-2,3.12-.28,1.13-.56,2.52-.84,3.66l-3.29,14.39c-.53,2.49-1.17,4.9-1.68,7.32l-.12.53a10.43,10.43,0,0,0-1.74-1.13c-.62,0-1.24,0-1.86,0,.14-1,.28-2,.42-2.95.76-5.32,1.34-10.69,2.1-16l1.82-13.92c.05-.37.13-.58.17-1.07.06-.68.23-.61-1.24-.61a16.3,16.3,0,0,1-.24,1.71l-1.65,12.59c-.95,6.75-1.69,13.57-2.64,20.31-.67,0-1.35.07-2,.14,0-.33.05-.63.08-.9.07-.67,0-1.4,0-2.08l1.05-19.94c.1-2,0-3.53.28-6,.08-.67,0-1.4,0-2.08l.3-6c0-.85.16-1,.16-1.94v-2.1h-1.2l-.6,12.89c0,.75-.16,1.15-.15,2.1l-1.24,26.22a22.75,22.75,0,0,0-3.73.89c0-16.48-.12-32.83-.12-49.44h-1.2v49.94a19.39,19.39,0,0,0-4,2.24v0c0-.87-.17-1.13-.16-2.09v-4.51c0-.88-.15-1.23-.14-2.24,0-3.14-.15-5.77-.15-8.85,0-1.63-.16-2.88-.15-4.35s.1-3.29,0-4.64c-.25-3-.44-14.94-.44-17.7-2.12,0-1.19.1-1.2,3.9a41.07,41.07,0,0,0,0,4.45l.56,21.93a41.5,41.5,0,0,0,.1,4.54l.19,8.8c0,.63,0,1.23,0,1.83a22.87,22.87,0,0,0-2.69,2.77,20.58,20.58,0,0,0-1.44,1.7c-.15-4.89-.54-9.8-.54-14.7,0-6-.61-12.29-.6-18.29,0-3-.3-6-.3-9.14h-1.35c0,1,.15,1.23.16,2.09V110c0,1,.15,1.36.16,2.24s0,1.61,0,2.41c0,1,.15,1.22.16,2.09s0,1.61,0,2.41c0,1,.16,1.29.16,2.24,0,.8,0,1.6,0,2.41s.16,1.16.16,2.09,0,1.6,0,2.41.16,1.25.16,2.24c0,.8,0,1.61,0,2.41s.17,1.13.17,2.09c0,.79,0,1.61,0,2.41s.16,1.23.16,2.24l.14,6.9c0,.88.17,1.23.16,2.24l0,.75a20.81,20.81,0,0,0-2.33,6.47c-.22-2.31-.44-4.63-.55-6.91l-.38-4.27c-.63-4.29-.42-8.29-1-12.59-.58-3.92-.52-8.55-1.07-12.72l-.64-8.65c-2,0-1.31-.08-.91,5.1.17,2.28.19,4.23.5,6.54.56,4.28.69,8.89,1.13,13.1l.9,10.8c.07.72.15,1.61.17,2.23,0,.9.12,1.19.15,2.1,0,.61.1,1.5.17,2.22l1.63,19.51c0,.52.11,1.57.19,2.21l.41,4.39a7.36,7.36,0,0,0-1.05.15c-.09-1.12-.4-2.71-.56-3.79l-7.73-55.07c-.08-.57-.19-1.27-.28-2-.07-.52-.26-1.41-.27-2a8.5,8.5,0,0,0-1.2.15c0,1.83,6.09,44.15,6.53,47.13.27,1.86,2.16,14.24,2.16,15.82a8.11,8.11,0,0,1-1.49.45,36.61,36.61,0,0,1-.84-4c-.27-1.38-.52-2.76-.77-4-.55-2.75-1-5.36-1.6-8.14-1.1-5.48-2.12-10.93-3.2-16.28L246,117.05c-.21-1.06-.33-.75-1.44-.5l1.57,7.88c.55,2.75,1,5.37,1.58,8l8.56,43.9a28.49,28.49,0,0,1,.74,4,11.87,11.87,0,0,0-1.8.6,10.31,10.31,0,0,0-.45-2.1l-11.9-48.36c-.2-.79-4-15.89-4.14-16.84l-1.19.17a10,10,0,0,0,.4,2.11c1,4.77,2.44,10,3.64,14.8,1.4,5.57,2.79,11.28,4.17,16.81,1.42,5.69,2.72,11.16,4.14,16.85.71,2.86,1.35,5.56,2.07,8.42a86.47,86.47,0,0,1,2.07,8.58c-.46.1-.44.19-.9.3-.15-.65-.42-1.49-.65-2.19-1.71-5.19-3.08-10.52-4.8-15.74-2-6-3.5-12.08-5.51-18-.22-.65-.45-1.44-.67-2.18l-4.8-15.74c-.24-.85-.45-1.41-.66-2.18l-3.43-11.26a29.49,29.49,0,0,1-1.37-4.63c-.41.09-.79.2-1.19.3a9.8,9.8,0,0,0,.58,2.27l3.44,11.26c.43,1.56.91,3.06,1.4,4.6,2.37,7.42,4.56,15.09,6.86,22.52l2,6.66c1.5,5.28,3.28,10.58,4.83,15.86.45,1.5.93,3,1.39,4.46l1.36,4.63c-.57.14-.63.33-1.19.45-.08-1-2-5.91-2.46-7.29-3.48-10.52-7.47-20.88-11-31.44-1.1-3.28-2.28-6.39-3.37-9.67-2.41-7.23-5.2-14.52-7.61-21.77-.29-.87-.52-1.59-.85-2.44-.62-1.6-1-3.33-1.71-4.88a8.51,8.51,0,0,1-1.2.45c.3.63.55,1.58.81,2.34l7.6,21.77c2.69,8.13,5.79,16.2,8.51,24.32,1.11,3.32,2.28,6.46,3.41,9.78.58,1.69,1.09,3.1,1.65,4.8l3.41,9.78a43.75,43.75,0,0,0,1.74,4.85c-1.05.25-1.66,1.11-2.7,1.2-.07-.89-3.34-9.33-3.72-10.36-1.5-4-3.35-8.81-4.69-12.86-.29-.87-.66-1.69-1-2.62-.6-1.78-1.22-3.42-1.87-5.16l-13.23-36.09c-.54-1.56-5.56-14.77-5.63-15.64-.79,0-.58.15-1.2.3a3,3,0,0,0,.34,1.31c1.23,3,2.14,6.07,3.32,9.13,1.55,4,3.4,8.88,4.75,12.93,1.75,5.28,4,10.43,5.73,15.7,2.06,6.11,4.58,12,6.64,18.1s4.49,12.15,6.67,18.2c.31.87.58,1.72.94,2.65s.65,1.75,1,2.63a17,17,0,0,1,.92,2.68h-.45c-.08-1-5.23-12.38-5.84-13.79l-6.22-14.47-4-10.24-.25.25-11.21-26c-.6-1.36-3.59-7.93-3.9-9.29a2.58,2.58,0,0,0-1.2.45,13.15,13.15,0,0,0,.92,2.37l10.92,25.36c1.18,2.69,2.34,5.4,3.49,8.11l-1.95,2-2.54-5.31c-3.62-7.23-7.23-15.58-10.84-22.74-.35-.69-.69-1.41-1.05-2.1a3.7,3.7,0,0,1-1.05.45c.05.65,4.26,9.28,4.79,10.35.33.65.69,1.29,1,2l2,4.19c1.38,2.74,2.59,5.49,3.95,8.19l2.83,5.95c-.92,1-1.83,1.92-2.73,2.89l-6-10.61c-.35-.58-.7-1.24-1-1.83-.56-1-5.83-10.1-6-10.79a2.47,2.47,0,0,0-1.2.45c.15.65,8.67,15.72,13.26,23.79q-2,2.27-4,4.64l-7.38-12.53c-.29-.47-5.83-9.69-6-10.35a2.62,2.62,0,0,0-1.2.45c.23,1,9.85,16.89,13.72,23.47-.77,1-1.51,2-2.24,3-2.68-3.86-8-11.14-8.58-12L198.28,141c-.85-1.2-1.73-2.39-2.55-3.6-.46.25-.61.48-1,.6a2.4,2.4,0,0,0,.56.95c2.48,3.25,7.18,10,9.64,13.45l6.37,8.91c.29.39,1.54,2.07,2.53,3.47q-1.46,2.07-2.74,4.16c-.29-.35-.61-.7-.86-1-.58-.73-1.07-1.39-1.67-2.07s-1.1-1.38-1.67-2.08L186.7,138.94a11.7,11.7,0,0,1-1.61-2.13c-.67.05-.22,0-.65.25a5.77,5.77,0,0,1-.55.35c.36.68,4.31,5.44,5,6.26.29.35.51.62.8,1l20.63,25.51c-.93,1.6-1.79,3.23-2.54,4.86l-12.87-11.6-3.35-6.55L184.27,154l-3.7-3.74a9.9,9.9,0,0,0-2-4.94c-.34.62-.7,1.21-1.07,1.77l-.94-1c-1.61-1.6-14.18-14.34-14.87-14.8l-.87.78,5.88,6.06c3.1,3.28,6.77,6.84,10.06,10.11a18.62,18.62,0,0,0-2.65,5.44l-.84-.84c-2.52-2.22-4.53-4.43-7.19-6.9a15.21,15.21,0,0,0-1.84-1.76l-.87.78a26.34,26.34,0,0,0,3.53,3.46l5.24,5.24c.58.59,1.08,1,1.64,1.5a19.58,19.58,0,0,0,0,5.39l.08.32-.27-.23-3.18-2.67a8.54,8.54,0,0,1-.71-.64L164,152.54a1.41,1.41,0,0,0-.75.9c.28.43.27.35.68.66s.47.45.79.72c3.15,2.53,6.51,5.6,9.6,8.08l.06.06,1.17,5.1-8.23-5.79a4.62,4.62,0,0,0-1.52-.88,3.27,3.27,0,0,0-.6,1.05c.56.3,5.67,3.86,10.77,7.43l1.26,5.48c-1.09-1.75-3.15-3-6.35-3.64l-6.72-4.33a2.25,2.25,0,0,0-.6,1.19c.36.09,3,1.84,4.64,2.94a12.43,12.43,0,0,0-5.61,2.76,6.81,6.81,0,0,0-1-.46c-.17.65-.38.37-.45,1.2a2.32,2.32,0,0,1,.32.14l-1.73,1.39c2.09.17,4,.71,6.08,1,3.1,1.73,7.26,4.1,11,6.2-.14,1.08-.32,2.17-.54,3.25l-18.9-9.67c-.69-.35-1.14-.63-1.75-.95a3.38,3.38,0,0,0-.6,1.2l21,10.71a40.69,40.69,0,0,1-1.35,4.54l-7.68-3.69a15,15,0,0,0-2.74-5.18,11.82,11.82,0,0,1-.67,3.53c-.95-.45-1.88-.89-2.82-1.36l-4.55-2.2c-1.22-.57-8.63-4.2-9.24-4.25a3.7,3.7,0,0,1-.45,1.05l6.8,3.25c.83.4,1.47.75,2.29,1.15l6.79,3.25.73.37a17.49,17.49,0,0,0-1.32,5v.37L144,186.27c-.9-.4-1.84-.82-2.72-1.18s-1.87-.79-2.67-1.22a2.44,2.44,0,0,0-.45,1.35c.52,0,4.54,1.93,5.38,2.27,5,2,11,4.91,16,7.08q1.2.5,2.37,1c.5,2.14,1.71,4.58,2.29,6.71L161,201.07l-.37-.14a18,18,0,0,0-4.23-4c-3.41-2-7.9-1.54-11.45-3.52.12.59.26,1.14.41,1.68l-8.69-3.3a57.85,57.85,0,0,0-6.3-2.25,6.9,6.9,0,0,0-.3,1.19c.53,0,5.47,2,6.13,2.26,3.15,1.14,6.43,2.44,9.7,3.7a12.49,12.49,0,0,0,6.83,7.24l-14.84-4.53c-1-.31-2-.67-3.08-1a22.36,22.36,0,0,1-3.08-1,4.54,4.54,0,0,0-.3,1.36l32.25,9.81c-.95,1-1.83,1.83-2.61,2.7l-2.31-.58c-4.33-1.08-11.73-2.82-15.89-4l-5.45-1.28-.17,1.19,22.91,5.81a14.15,14.15,0,0,0-2,3.28c-4.3-.81-8.62-1.64-12.86-2.4-1.32-.24-4.75-1-5.76-1a3.41,3.41,0,0,0-.15,1.19c3.49.83,12.68,2.36,16.7,3.09l1.64.3a14,14,0,0,0-.53,4.28l-16.9-2.86a8.63,8.63,0,0,0-.15,1.35l17.12,2.86a29.6,29.6,0,0,0,.58,3.85l-17.69-2.53c-.93-.13-2.11-.37-3-.44,0,.68-.15.6-.15,1.35,1,0,10.5,1.45,11.85,1.64l9.3,1.33c.26,1.11.58,2.29,1,3.56a18.69,18.69,0,0,0,1.4-3.22l4.75.68L165,233l-34.17-3.69c0,.68-.15.6-.15,1.35.93,0,8,.76,14.85,1.52a11.38,11.38,0,0,0,.9,4.7l-19.65-1.11c-.58,0-1.21,0-1.79,0s-.92-.15-1.8-.15c0,.86-.41,1.11.17,1.32l12.68.67c2,.28,6.22.25,8.75.54.63.07,1.28,0,1.92,0l.32,0a27.3,27.3,0,0,0,2,3.29l-4.58-.18h-.83a23.69,23.69,0,0,0-8.25-3.27,22.3,22.3,0,0,0,1.25,3.12l-3.55-.15c-1.4,0-2.2-.15-3.6-.15l-3.75-.15c-2.66-.08-5-.14-7.64-.14v1.2a11.39,11.39,0,0,0,1.65.15l7.65.14c.77,0,.92.16,1.79.16l8.12.21a28.45,28.45,0,0,0,2.92,4.28H113.05V248l28.37-.07a21.61,21.61,0,0,0,4.47,3.63c-4.9.13-9.87.33-14.56.33-2.53,0-4.82.16-7.49.15l-5.71.14c-1.26,0-.73.15-.73.92v.45c2.42,0,4.63-.15,7.19-.15,1.42,0,2.23-.16,3.6-.15h3.75c1.2,0,2.21-.15,3.59-.15,2.27,0,9.52,0,11-.24a13.41,13.41,0,0,1,1.78-.08,14.37,14.37,0,0,0,5.44,1.07c-.08.91,3.48-.8,3.37.56a10.76,10.76,0,0,0-3.13,3.42c-.82,0-1.54.06-2.12.06l-10.23.4c-1.1.15-2.27-.07-3.37.08s-2.24,0-3.49.11l-3.3.15c-.95,0-1.59.16-3.44.15l-6.89.31c0,1.7-.06,1.28,1,1.2l17.4-.6c.81,0,.89-.14,1.64-.16,1.3,0,2.35-.05,3.46-.14s2.35.08,3.51-.1a40.49,40.49,0,0,1,5.17-.17,12.51,12.51,0,0,0-.91,5.25c-1.71.14-3.58.12-5.42.37-1,.14-2.36.16-3.41.19l-6.58.46c-.9.07-2.37.27-3.3.29s-2.37.05-3.41.19c-2.71.36-1.84-.2-1.84,1.46l22.26-1.56c.44-.06,1.14-.13,1.81-.18a8.52,8.52,0,0,0,2,4.69c-5.06.61-10.12,1.22-15.11,1.91l-5.76.69c0,.75.13.67.15,1.35.83-.07,1.84-.24,2.78-.37,9.91-1.37,20-2.48,29.92-3.76.39,1.37.79,2.69,1.22,4-9.21,1.25-18.66,2.36-27.82,3.69-2.86.42-1.9.06-1.9,1.1v.45l30.16-4c.31.91.64,1.8,1,2.68L159.44,280c-.73.15-19.91,4-20.74,4a8.77,8.77,0,0,0,.15,1.35l30.89-6q.63,1.56,1.32,3.06l-2.08.44c-2.2.44-4.43.91-6.64,1.37a17.85,17.85,0,0,0-3.49-1.43,4.15,4.15,0,0,0-.17,2.18c-.42.07-.84.17-1.27.25l-17.26,3.57c-1,.2-2,.41-2.84.6a23.28,23.28,0,0,0-3,.64,6.79,6.79,0,0,0,.3,1.2c.81-.07,2.12-.41,2.89-.57L159,286.21a16,16,0,0,0,2,3.65l-24.85,5.07c-2.31.46-4.62.87-6.86,1.39a7.24,7.24,0,0,1,.15,1.2c.82,0,18.64-3.64,32.43-6.46.78,1,1.66,2,2.6,3-10.44,2.66-21.18,5.59-31.56,8.26l-7.37,1.91a6.79,6.79,0,0,0,.3,1.2l7.28-1.86c2.56-.64,4.87-1.27,7.37-1.92,4.86-1.25,9.78-2.54,14.71-3.83a15.79,15.79,0,0,0,2.55,3.34l-14.36,4.74c-1.05.35-13.79,4.71-14.56,4.78,0,.64.25.71.3,1.35l14.41-4.78,15.29-5.14a11.6,11.6,0,0,0,4.95,2.31c-2,.76-4,1.5-5.9,2.18l-.75-1.7c0,.55,0,1.21,0,2l-.38.13c-2.4.83-4.5,1.73-6.89,2.54-1.09.37-3.44,1.27-5.9,2.21a26.22,26.22,0,0,0-3.43-3.26c.17,1.4.41,2.84.72,4.29-2.36.89-4.43,1.66-5.08,1.81.18.38.27.81.45,1.2.25,0,2.41-.8,4.93-1.73,8.57,35.27,58.92,82.51,88.86,83.58l2.29-18.22q-4.14-1.43-8-3.07a139.26,139.26,0,0,0,43.88,7.36m36.83-69.15-.29.17Z"/><path class="cls-2" d="M769.16,324.63c2.64,0,4.08-1.15,4.08-2.84,0-3.94-6.86-1.75-6.86-4.85,0-1.12.89-1.95,2.91-1.95a5.35,5.35,0,0,1,3.11.93l.45-.8a6.39,6.39,0,0,0-3.55-1c-2.62,0-3.93,1.27-3.93,2.84,0,4.06,6.86,1.85,6.86,4.85,0,1.17-.87,1.95-3.06,1.95a6.09,6.09,0,0,1-3.73-1.25l-.45.79a6.51,6.51,0,0,0,4.14,1.33m-11.22-.81c-1.82,0-2.88-.83-2.88-2.18,0-1.19.75-2.08,2.89-2.08h3.53v1.94a3.55,3.55,0,0,1-3.55,2.32m.57-9.69a6.37,6.37,0,0,0-4.15,1.47l.5.71a5.38,5.38,0,0,1,3.57-1.31c2,0,3.08,1,3.08,2.95v.83h-3.55c-2.88,0-3.87,1.33-3.87,2.89,0,1.77,1.41,3,3.73,3a4,4,0,0,0,3.73-1.92v1.84h1V318c0-2.56-1.43-3.87-4-3.87m-11.71,9.63a4.36,4.36,0,1,1,4.16-4.36,4.11,4.11,0,0,1-4.16,4.36m0,.89a5.26,5.26,0,1,0-5.17-5.25,5,5,0,0,0,5.17,5.25m-10.9,0c2.63,0,4.08-1.15,4.08-2.84,0-3.94-6.86-1.75-6.86-4.85,0-1.12.89-1.95,2.91-1.95a5.35,5.35,0,0,1,3.11.93l.45-.8a6.39,6.39,0,0,0-3.55-1c-2.62,0-3.93,1.27-3.93,2.84,0,4.06,6.86,1.85,6.86,4.85,0,1.17-.87,1.95-3.06,1.95a6.06,6.06,0,0,1-3.73-1.25l-.45.79a6.52,6.52,0,0,0,4.15,1.33m-9.46,0c2.64,0,4.08-1.15,4.08-2.84,0-3.94-6.86-1.75-6.86-4.85,0-1.12.9-1.95,2.92-1.95a5.35,5.35,0,0,1,3.11.93l.46-.8a6.39,6.39,0,0,0-3.55-1c-2.62,0-3.92,1.27-3.92,2.84,0,4.06,6.86,1.85,6.86,4.85,0,1.17-.87,1.95-3.06,1.95a6,6,0,0,1-3.72-1.25l-.46.79a6.52,6.52,0,0,0,4.15,1.33M715.76,315a3.9,3.9,0,0,1,4,3.85h-7.93a3.92,3.92,0,0,1,4-3.85m4.93,4.34a5,5,0,1,0-9.9,0,5.07,5.07,0,0,0,5.33,5.25,5,5,0,0,0,3.91-1.69l-.58-.65a4.42,4.42,0,0,1-7.69-2.68h8.9c0-.1,0-.2,0-.28m-17,4.42a4.36,4.36,0,1,1,4.18-4.36,4.11,4.11,0,0,1-4.18,4.36m.06-9.62a4.63,4.63,0,0,0-4.24,2.52V314.2h-1v14.2h1v-6.21a4.62,4.62,0,0,0,4.2,2.44,5.26,5.26,0,0,0,0-10.51m-17.15,10.51c2.63,0,4.08-1.15,4.08-2.84,0-3.94-6.86-1.75-6.86-4.85,0-1.12.89-1.95,2.91-1.95a5.35,5.35,0,0,1,3.11.93l.45-.8a6.39,6.39,0,0,0-3.55-1c-2.62,0-3.93,1.27-3.93,2.84,0,4.06,6.86,1.85,6.86,4.85,0,1.17-.87,1.95-3.06,1.95a6.06,6.06,0,0,1-3.73-1.25l-.45.79a6.52,6.52,0,0,0,4.15,1.33m-11.22-.81c-1.83,0-2.88-.83-2.88-2.18,0-1.19.75-2.08,2.89-2.08h3.53v1.94a3.54,3.54,0,0,1-3.55,2.32m.56-9.69a6.35,6.35,0,0,0-4.15,1.47l.5.71a5.38,5.38,0,0,1,3.57-1.31c2,0,3.07,1,3.07,2.95v.83h-3.55c-2.88,0-3.87,1.33-3.87,2.89,0,1.77,1.41,3,3.73,3a4,4,0,0,0,3.73-1.92v1.84h1V318c0-2.56-1.43-3.87-4-3.87m-12.83,9.63a4.36,4.36,0,1,1,4.16-4.36,4.11,4.11,0,0,1-4.16,4.36m4.17-13.91v6.76a4.65,4.65,0,0,0-4.23-2.48,5.26,5.26,0,0,0,0,10.51,4.58,4.58,0,0,0,4.24-2.52v2.44h1V309.83h-1Zm-20.17,6.63V314.2h-1v10.35h1v-5.39c0-2.56,1.37-4.09,3.67-4.09l.24,0v-1a3.94,3.94,0,0,0-3.95,2.34m-9.57,7.35c-1.83,0-2.88-.83-2.88-2.18,0-1.19.75-2.08,2.89-2.08H641v1.94a3.55,3.55,0,0,1-3.55,2.32m.56-9.69a6.37,6.37,0,0,0-4.15,1.47l.5.71A5.38,5.38,0,0,1,638,315c2,0,3.07,1,3.07,2.95v.83h-3.55c-2.88,0-3.87,1.33-3.87,2.89,0,1.77,1.41,3,3.73,3a4,4,0,0,0,3.73-1.92v1.84H642V318c0-2.56-1.43-3.87-4-3.87m-12.82,9.63a4.36,4.36,0,1,1,4.16-4.36,4.11,4.11,0,0,1-4.16,4.36m4.16-13.91v6.76a4.65,4.65,0,0,0-4.22-2.48,5.26,5.26,0,0,0,0,10.51,4.58,4.58,0,0,0,4.24-2.52v2.44h1V309.83ZM616,324.55h1V314.2h-1Zm.49-12.87a.82.82,0,0,0,.82-.81.79.79,0,0,0-.82-.79.81.81,0,0,0-.81.81.8.8,0,0,0,.81.79m-5.69,2.52v5.51c0,2.46-1.45,4-3.78,4-2.16,0-3.41-1.23-3.41-3.57v-6h-1v6.05c0,2.89,1.69,4.38,4.32,4.38a4.09,4.09,0,0,0,3.91-2.3v2.22h.95V314.2h-1Zm-15,10.43a4.61,4.61,0,0,0,3.93-1.9l-.73-.54a3.77,3.77,0,0,1-3.19,1.55,4.36,4.36,0,0,1,0-8.72,3.79,3.79,0,0,1,3.19,1.54l.73-.53a4.54,4.54,0,0,0-3.93-1.91,5.26,5.26,0,0,0,0,10.51M578,323.81c-1.83,0-2.88-.83-2.88-2.18,0-1.19.75-2.08,2.9-2.08h3.53v1.94a3.55,3.55,0,0,1-3.55,2.32m.55-9.69a6.37,6.37,0,0,0-4.15,1.47l.5.71a5.38,5.38,0,0,1,3.57-1.31c2,0,3.07,1,3.07,2.95v.83H578c-2.88,0-3.87,1.33-3.87,2.89,0,1.77,1.41,3,3.73,3a4,4,0,0,0,3.73-1.92v1.84h.95V318c0-2.56-1.43-3.87-4-3.87m-10.16,2.35V314.2h-.95v10.35h1v-5.39c0-2.56,1.37-4.09,3.67-4.09l.24,0v-1a3.94,3.94,0,0,0-4,2.34m-9.58,7.35c-1.83,0-2.88-.83-2.88-2.18,0-1.19.75-2.08,2.9-2.08h3.53v1.94a3.54,3.54,0,0,1-3.55,2.32m.56-9.69a6.35,6.35,0,0,0-4.15,1.47l.5.71a5.38,5.38,0,0,1,3.57-1.31c2,0,3.07,1,3.07,2.95v.83h-3.55c-2.88,0-3.87,1.33-3.87,2.89,0,1.77,1.41,3,3.73,3a4,4,0,0,0,3.73-1.92v1.84h1V318c0-2.56-1.43-3.87-4-3.87m-11.7,9.63a4.36,4.36,0,1,1,4.18-4.36,4.11,4.11,0,0,1-4.18,4.36m.06-9.62a4.66,4.66,0,0,0-4.25,2.52V314.2h-1v14.2h1v-6.21a4.63,4.63,0,0,0,4.21,2.44,5.26,5.26,0,0,0,0-10.51m-18.54,9.62a4.36,4.36,0,1,1,4.16-4.36,4.11,4.11,0,0,1-4.16,4.36m0,.89a5.26,5.26,0,1,0-5.18-5.25,5,5,0,0,0,5.18,5.25m-12.36-10.51a4.27,4.27,0,0,0-4.06,2.24v-6.52h-1v14.71h1V319a3.69,3.69,0,0,1,3.93-4c2.1,0,3.35,1.23,3.35,3.57v6h1v-6.05c0-2.89-1.68-4.38-4.2-4.38M506.6,324.55h1V309.84h-1Zm-8.62-.74c-1.83,0-2.88-.83-2.88-2.18,0-1.19.75-2.08,2.89-2.08h3.53v1.94a3.55,3.55,0,0,1-3.55,2.32m.56-9.69a6.32,6.32,0,0,0-4.14,1.47l.5.71a5.38,5.38,0,0,1,3.57-1.31c2,0,3.07,1,3.07,2.95v.83H498c-2.88,0-3.87,1.33-3.87,2.89,0,1.77,1.41,3,3.73,3a4,4,0,0,0,3.73-1.92v1.84h.95V318c0-2.56-1.43-3.87-4-3.87m-11.7,9.63a4.36,4.36,0,1,1,4.19-4.36,4.11,4.11,0,0,1-4.19,4.36m.06-9.62a4.63,4.63,0,0,0-4.2,2.44v-6.72h-1v14.71h.95v-2.44a4.63,4.63,0,0,0,4.25,2.52,5.26,5.26,0,0,0,0-10.51m-13.83,9.69c-1.82,0-2.87-.83-2.87-2.18,0-1.19.75-2.08,2.89-2.08h3.53v1.94a3.54,3.54,0,0,1-3.55,2.32m.56-9.69a6.35,6.35,0,0,0-4.15,1.47l.5.71a5.38,5.38,0,0,1,3.57-1.31c2,0,3.07,1,3.07,2.95v.83h-3.55c-2.87,0-3.87,1.33-3.87,2.89,0,1.77,1.41,3,3.73,3a4,4,0,0,0,3.73-1.92v1.84h.95V318c0-2.56-1.43-3.87-4-3.87m-10.17,2.35V314.2h-.95v10.35h1v-5.39c0-2.56,1.37-4.09,3.67-4.09.08,0,.16,0,.23,0v-1a3.92,3.92,0,0,0-3.94,2.34m-8.87,8.09h1v-13h5v-.91h-11v.91h5Z"/><path class="cls-2" d="M749.8,183.55a20,20,0,0,0-.59-5.08,10.75,10.75,0,0,0-1.71-3.72,7.41,7.41,0,0,0-2.75-2.27,8.37,8.37,0,0,0-3.67-.77,8,8,0,0,0-3.58.77,7.49,7.49,0,0,0-2.75,2.27,11.27,11.27,0,0,0-1.76,3.72,19.41,19.41,0,0,0-.62,5.08v2.08a18.62,18.62,0,0,0,.63,5.1,11.09,11.09,0,0,0,1.78,3.72,7.48,7.48,0,0,0,2.76,2.29,8.08,8.08,0,0,0,3.57.77,8.34,8.34,0,0,0,3.69-.77,7.39,7.39,0,0,0,2.73-2.29,10.91,10.91,0,0,0,1.69-3.72,21,21,0,0,0,.57-5.1v-2.08Zm4.21,2.08a21.38,21.38,0,0,1-.91,6.49,14.42,14.42,0,0,1-2.59,4.87,11.22,11.22,0,0,1-4.06,3.07,12.94,12.94,0,0,1-5.33,1.07,12.32,12.32,0,0,1-5.23-1.07,11.44,11.44,0,0,1-4.1-3.07,14.21,14.21,0,0,1-2.67-4.87,20.65,20.65,0,0,1-1-6.49v-2a20.72,20.72,0,0,1,1-6.48,14.6,14.6,0,0,1,2.64-4.89,11.49,11.49,0,0,1,4.08-3.08,12.72,12.72,0,0,1,5.24-1.07,13,13,0,0,1,5.33,1.07,11.26,11.26,0,0,1,4.08,3.08,14.11,14.11,0,0,1,2.61,4.89,21.41,21.41,0,0,1,.91,6.48v2ZM703.86,172v25.2h4.45a11.48,11.48,0,0,0,4.51-.83,8.78,8.78,0,0,0,3.25-2.35,10,10,0,0,0,1.95-3.66,16.28,16.28,0,0,0,.65-4.79v-2a16.84,16.84,0,0,0-.66-4.92,10.14,10.14,0,0,0-1.94-3.64,8.17,8.17,0,0,0-3.14-2.26,10.88,10.88,0,0,0-4.25-.78h-4.82Zm-4.25,28.67V168.51h9.08a15,15,0,0,1,5.79,1.07,12.85,12.85,0,0,1,4.47,3,13.71,13.71,0,0,1,2.89,4.77,18.14,18.14,0,0,1,1,6.3v1.9a18.28,18.28,0,0,1-1,6.29,13.4,13.4,0,0,1-2.92,4.76,12.69,12.69,0,0,1-4.58,3,16.48,16.48,0,0,1-6,1.05h-8.7Zm-21.77-17.12a19.53,19.53,0,0,0-.59-5.08,10.75,10.75,0,0,0-1.71-3.72,7.37,7.37,0,0,0-2.76-2.27,8.37,8.37,0,0,0-3.67-.77,8,8,0,0,0-3.58.77,7.49,7.49,0,0,0-2.75,2.27,11.07,11.07,0,0,0-1.75,3.72,19,19,0,0,0-.62,5.08v2.08a18.23,18.23,0,0,0,.64,5.1,10.91,10.91,0,0,0,1.78,3.72,7.48,7.48,0,0,0,2.76,2.29,8.08,8.08,0,0,0,3.57.77,8.34,8.34,0,0,0,3.69-.77,7.31,7.31,0,0,0,2.73-2.29,10.73,10.73,0,0,0,1.69-3.72,20.54,20.54,0,0,0,.57-5.1Zm4.21,2.08a21.38,21.38,0,0,1-.91,6.49,14.42,14.42,0,0,1-2.59,4.87,11.22,11.22,0,0,1-4.06,3.07,12.94,12.94,0,0,1-5.33,1.07,12.32,12.32,0,0,1-5.23-1.07,11.57,11.57,0,0,1-4.11-3.07,14.21,14.21,0,0,1-2.67-4.87,20.65,20.65,0,0,1-.95-6.49v-2a20.72,20.72,0,0,1,.95-6.48,14.44,14.44,0,0,1,2.65-4.89,11.35,11.35,0,0,1,4.09-3.08,12.72,12.72,0,0,1,5.24-1.07,13,13,0,0,1,5.33,1.07,11.26,11.26,0,0,1,4.08,3.08,14.11,14.11,0,0,1,2.61,4.89,21.41,21.41,0,0,1,.91,6.48v2Zm-32.26,15h-4.26l-16.19-24.78v24.78h-4.27V168.51h4.27l16.23,24.89V168.51h4.21v32.16Zm-48.32-16.48H608a8.85,8.85,0,0,0,3-.47,6.38,6.38,0,0,0,2.15-1.27,5.1,5.1,0,0,0,1.29-1.9,6.33,6.33,0,0,0,.43-2.35,7.5,7.5,0,0,0-.41-2.53,5.11,5.11,0,0,0-1.27-2,5.88,5.88,0,0,0-2.18-1.26,9.86,9.86,0,0,0-3.16-.45h-6.38v12.19Zm7.56,3.47h-7.56v13H597.2V168.51h10.64c3.63,0,6.41.83,8.36,2.48s2.92,4.06,2.92,7.21a8.65,8.65,0,0,1-1.62,5.23,9.63,9.63,0,0,1-4.52,3.33l7.56,13.65v.27H616l-7-13ZM589.7,185.8H575.77v11.4H592v3.47H571.52V168.51h20.21V172h-16v10.33h13.93v3.47ZM553.39,195l9.19-26.53h4.64L555.3,200.67h-3.76l-11.9-32.16h4.61L553.4,195Zm-20.74-11.49a20,20,0,0,0-.59-5.08,10.76,10.76,0,0,0-1.72-3.72,7.26,7.26,0,0,0-2.75-2.27,8.37,8.37,0,0,0-3.67-.77,8,8,0,0,0-3.58.77,7.49,7.49,0,0,0-2.75,2.27,11.27,11.27,0,0,0-1.76,3.72,19,19,0,0,0-.62,5.08v2.08a18.62,18.62,0,0,0,.63,5.1,10.91,10.91,0,0,0,1.78,3.72,7.48,7.48,0,0,0,2.76,2.29,8.1,8.1,0,0,0,3.58.77,8.4,8.4,0,0,0,3.69-.77,7.39,7.39,0,0,0,2.73-2.29,10.91,10.91,0,0,0,1.69-3.72,20.51,20.51,0,0,0,.58-5.1v-2.08Zm4.22,2.08a21.38,21.38,0,0,1-.91,6.49,14.26,14.26,0,0,1-2.6,4.87,11.22,11.22,0,0,1-4.06,3.07,12.94,12.94,0,0,1-5.33,1.07,12.32,12.32,0,0,1-5.23-1.07,11.57,11.57,0,0,1-4.11-3.07,14.37,14.37,0,0,1-2.67-4.87,20.65,20.65,0,0,1-.95-6.49v-2a20.72,20.72,0,0,1,.95-6.48,14.78,14.78,0,0,1,2.64-4.89,11.44,11.44,0,0,1,4.09-3.08,12.72,12.72,0,0,1,5.24-1.07,13,13,0,0,1,5.33,1.07,11.26,11.26,0,0,1,4.08,3.08,14.11,14.11,0,0,1,2.61,4.89,21.41,21.41,0,0,1,.91,6.48v2Zm-31.8,10.82a11,11,0,0,1-1.28,1.47,9.34,9.34,0,0,1-2.15,1.52,14.61,14.61,0,0,1-3.28,1.19,19.09,19.09,0,0,1-4.66.49,13.87,13.87,0,0,1-5.41-1,12.11,12.11,0,0,1-4.24-3,13.86,13.86,0,0,1-2.77-4.8,19.44,19.44,0,0,1-1-6.44v-2.52a22.48,22.48,0,0,1,.85-6.42,13.53,13.53,0,0,1,2.49-4.79,10.77,10.77,0,0,1,4.06-3,13.83,13.83,0,0,1,5.52-1,14.23,14.23,0,0,1,4.84.74,10.63,10.63,0,0,1,3.54,2.05,9.84,9.84,0,0,1,2.31,3.13,14,14,0,0,1,1.17,3.95h-4.25a10.51,10.51,0,0,0-.76-2.46,6.37,6.37,0,0,0-1.43-2,6.58,6.58,0,0,0-2.23-1.38,8.87,8.87,0,0,0-3.18-.51,8.48,8.48,0,0,0-3.88.82,7.1,7.1,0,0,0-2.7,2.35,10.72,10.72,0,0,0-1.58,3.69,20.75,20.75,0,0,0-.52,4.88v2.56a17.19,17.19,0,0,0,.66,5,11.39,11.39,0,0,0,1.86,3.72,8.16,8.16,0,0,0,2.89,2.32,8.69,8.69,0,0,0,3.75.8,16.27,16.27,0,0,0,2.93-.23,12,12,0,0,0,2-.57,5.51,5.51,0,0,0,1.34-.75,7.2,7.2,0,0,0,.83-.76v-7.22h-7.44v-3.45H505v11.79Z"/><path class="cls-2" d="M748.59,258.69H714v23.53H754.6v14.54H695.91V209.18h58.57v14.66H714v20.82h34.64v14Zm-106.41-8.63h14.55q6.81,0,10.53-3.45c2.48-2.3,3.74-5.48,3.74-9.53s-1.19-7.35-3.53-9.71-5.93-3.55-10.8-3.55H642.18v26.23Zm14.37,14.67H642.18v32h-18V209.18h32.54q15.52,0,23.94,6.92c5.62,4.62,8.41,11.12,8.41,19.56q0,9-3.88,15a26.29,26.29,0,0,1-11.74,9.54l19,35.76v.84H673l-16.43-32Zm-37.4,2.89q-1,14.13-10.43,22.25T583.92,298q-16.84,0-26.5-11.35t-9.65-31.14v-5.36a52.61,52.61,0,0,1,4.45-22.27,33.39,33.39,0,0,1,12.71-14.76A35.66,35.66,0,0,1,584.14,208q15.18,0,24.43,8.11t10.7,22.81h-18q-.65-8.49-4.72-12.32c-2.69-2.54-6.82-3.82-12.36-3.82q-9,0-13.49,6.47t-4.6,20.08v6.61q0,14.19,4.29,20.76t13.57,6.57q8.36,0,12.48-3.8t4.72-11.78h18Zm-120.84-3.51h21.9l-11-32.8-10.9,32.8Zm26.77,14.65H493.45l-6,18H468.26l32.58-87.58h16.73l32.78,87.58H531.16l-6.08-18Z"/></svg>