<svg id="Layer_1" data-name="Layer 1" xmlns="http://www.w3.org/2000/svg" viewBox="0 0 886.29 496.46"><defs><style>.cls-1{fill:#fff;}</style></defs><title>ministerio</title><path class="cls-1" d="M517.69,324.2a5.66,5.66,0,0,1-.84,1.62,4.05,4.05,0,0,1-1.4,1.16,3.94,3.94,0,0,1-1.87.45,4,4,0,0,1-2.35-.73,4.72,4.72,0,0,1-1.56-1.87,5.75,5.75,0,0,1-.54-2.47,5.84,5.84,0,0,1,.31-1.85,5.65,5.65,0,0,1,.86-1.61,4.42,4.42,0,0,1,1.42-1.15,4.22,4.22,0,0,1,3.69,0,4.22,4.22,0,0,1,1.39,1.12,5.26,5.26,0,0,1,.87,1.62,5.54,5.54,0,0,1,.33,1.9,5.38,5.38,0,0,1-.3,1.84m.71-6.66a6.26,6.26,0,0,0-2.1-1.61,6.24,6.24,0,0,0-5.36,0,6.45,6.45,0,0,0-2.13,1.54,7.39,7.39,0,0,0-1.9,4.91,7.21,7.21,0,0,0,.3,2.1,7.55,7.55,0,0,0,.9,1.93,7.15,7.15,0,0,0,1.39,1.57,6.19,6.19,0,0,0,1.84,1.06,6.38,6.38,0,0,0,2.23.39,6.17,6.17,0,0,0,2.65-.58,6.31,6.31,0,0,0,2.13-1.54,7.18,7.18,0,0,0,1.37-2.24,6.76,6.76,0,0,0,.53-2.66,7.08,7.08,0,0,0-.5-2.58,7.56,7.56,0,0,0-1.34-2.26"/><polyline class="cls-1" points="537.34 323.13 543.54 323.13 543.54 321.3 537.34 321.3 537.34 317.35 544.5 317.35 544.5 315.4 535.15 315.4 535.15 329.31 544.67 329.31 544.67 327.37 537.34 327.37"/><path class="cls-1" d="M565.61,322.53h-3.85v-5.18h3.72a2,2,0,0,1,1.54.76,2.64,2.64,0,0,1,.67,1.82,2.9,2.9,0,0,1-.59,1.84,1.83,1.83,0,0,1-1.49.76m3.57,0a4.54,4.54,0,0,0,.75-2.55,4.38,4.38,0,0,0-.33-1.65,4.8,4.8,0,0,0-.87-1.46,4.19,4.19,0,0,0-1.37-1,4,4,0,0,0-1.73-.39h-6v13.9h2.18v-4.83H565l3,4.83h2.48L567.23,324a3.56,3.56,0,0,0,2-1.53"/><path class="cls-1" d="M757.43,324.2a5.71,5.71,0,0,1-.86,1.62,3.93,3.93,0,0,1-1.39,1.16,4,4,0,0,1-1.87.45,3.91,3.91,0,0,1-2.35-.73,4.72,4.72,0,0,1-1.56-1.87,5.74,5.74,0,0,1-.53-2.47,5.56,5.56,0,0,1,.3-1.85,5.65,5.65,0,0,1,.86-1.61,4.2,4.2,0,0,1,3.29-1.59,4.11,4.11,0,0,1,1.81.41,4.06,4.06,0,0,1,1.4,1.12,5.26,5.26,0,0,1,.87,1.62,5.54,5.54,0,0,1,.33,1.9,5.38,5.38,0,0,1-.3,1.84m.71-6.66a6.26,6.26,0,0,0-2.1-1.61,6.24,6.24,0,0,0-5.36,0,6.45,6.45,0,0,0-2.13,1.54,7.3,7.3,0,0,0-1.4,2.25,7.4,7.4,0,0,0-.2,4.76,6.93,6.93,0,0,0,.9,1.93,7.15,7.15,0,0,0,1.39,1.57,6.07,6.07,0,0,0,1.84,1.06,6.38,6.38,0,0,0,2.23.39,6.17,6.17,0,0,0,2.65-.58,6.51,6.51,0,0,0,2.13-1.54,7.37,7.37,0,0,0,1.37-2.24,7.11,7.11,0,0,0,.51-2.66,7.27,7.27,0,0,0-.48-2.58,7.56,7.56,0,0,0-1.34-2.26"/><polyline class="cls-1" points="472.72 325.45 464.84 315.4 463.04 315.4 463.04 329.31 465.23 329.31 465.23 319.48 473 329.31 474.93 329.31 474.93 315.43 472.72 315.43"/><polyline class="cls-1" points="578.61 323.13 584.82 323.13 584.82 321.3 578.61 321.3 578.61 317.35 585.77 317.35 585.77 315.4 576.43 315.4 576.43 329.31 585.96 329.31 585.96 327.37 578.61 327.37"/><path class="cls-1" d="M454,322.46a10,10,0,0,1-.12,1.48,5.72,5.72,0,0,1-.39,1.34,4,4,0,0,1-.68,1.12,3,3,0,0,1-1.09.75,4,4,0,0,1-1.53.28,3.6,3.6,0,0,1-1.49-.28,2.88,2.88,0,0,1-1.07-.74,3.83,3.83,0,0,1-.7-1.11,5.25,5.25,0,0,1-.4-1.35,9,9,0,0,1-.11-1.5V315.4h-2.2v7.05a10.79,10.79,0,0,0,.19,2.1,7.42,7.42,0,0,0,.65,1.89,5.36,5.36,0,0,0,1.12,1.54,4.86,4.86,0,0,0,1.71,1,6.42,6.42,0,0,0,2.3.38,6.35,6.35,0,0,0,2.74-.55,4.5,4.5,0,0,0,1.88-1.52,6.3,6.3,0,0,0,1-2.2,9.94,9.94,0,0,0,.36-2.69v-7.05H454"/><rect class="cls-1" x="481.97" y="315.42" width="2.18" height="13.9"/><path class="cls-1" d="M494.14,313.26a.76.76,0,0,1,.3-.32,1,1,0,0,1,.51-.13,1.51,1.51,0,0,1,.73.21c.27.14.55.28.86.42a2.24,2.24,0,0,0,1,.21,1.86,1.86,0,0,0,.89-.21A1.91,1.91,0,0,0,499,313a3,3,0,0,0,.42-.63,2.33,2.33,0,0,0,.22-.57,1.2,1.2,0,0,0,.06-.36H498.5a.43.43,0,0,1,0,.13.72.72,0,0,1-.08.24,1.78,1.78,0,0,1-.17.27,1.54,1.54,0,0,1-.31.22,1.24,1.24,0,0,1-.48.09,1.64,1.64,0,0,1-.79-.21l-.84-.43a2,2,0,0,0-.92-.21,1.79,1.79,0,0,0-.84.19,1.76,1.76,0,0,0-.61.48,3,3,0,0,0-.39.61,2.06,2.06,0,0,0-.2.57,1.32,1.32,0,0,0-.06.39H494a.65.65,0,0,1,0-.19,2.34,2.34,0,0,1,.11-.3"/><path class="cls-1" d="M494,323.91l2.29-6.09,2.24,6.09m-3.27-8.5-5.45,13.9h2.33l1.45-3.78h5.37l1.45,3.78h2.32l-5.4-13.9Z"/><path class="cls-1" d="M738.14,311.77a1.2,1.2,0,0,1-.19.27.69.69,0,0,1-.31.22,1.19,1.19,0,0,1-.47.09,1.64,1.64,0,0,1-.79-.21c-.27-.14-.55-.29-.84-.42a2,2,0,0,0-.93-.22,1.78,1.78,0,0,0-.83.19,1.67,1.67,0,0,0-.61.48,3,3,0,0,0-.39.61,3.35,3.35,0,0,0-.2.58,1.36,1.36,0,0,0-.06.39h1.2s0-.1,0-.19a1.41,1.41,0,0,1,.11-.3.83.83,0,0,1,.3-.32.92.92,0,0,1,.51-.13,1.51,1.51,0,0,1,.73.21l.84.42a2.52,2.52,0,0,0,1,.21,2.06,2.06,0,0,0,1.54-.7,2.59,2.59,0,0,0,.4-.63,2.05,2.05,0,0,0,.23-.57,1.2,1.2,0,0,0,.06-.36h-1.23a.43.43,0,0,1,0,.13,1.64,1.64,0,0,1-.08.24"/><polyline class="cls-1" points="637.29 325.45 629.41 315.4 627.61 315.4 627.61 329.31 629.8 329.31 629.8 319.48 637.57 329.31 639.5 329.31 639.5 315.43 637.29 315.43"/><path class="cls-1" d="M684.4,322.53h-3.83v-5.18h3.7a2.06,2.06,0,0,1,1.56.76,2.67,2.67,0,0,1,.65,1.82,3,3,0,0,1-.58,1.84,1.86,1.86,0,0,1-1.51.76m3.59,0a4.54,4.54,0,0,0,.75-2.55,4.38,4.38,0,0,0-.33-1.65,5.06,5.06,0,0,0-.89-1.46,4.26,4.26,0,0,0-1.36-1,4.09,4.09,0,0,0-1.74-.39h-6v13.9h2.2v-4.83h3.22l3,4.83h2.46L686,324a3.63,3.63,0,0,0,2-1.53"/><polyline class="cls-1" points="661.14 317.35 665.76 317.35 665.76 329.31 667.99 329.31 667.99 317.35 672.6 317.35 672.6 315.4 661.14 315.4"/><path class="cls-1" d="M655.5,323.14a3.43,3.43,0,0,0-1-.74,7.77,7.77,0,0,0-1.25-.55c-.44-.14-1-.29-1.57-.43l-.92-.24L650,321a4.52,4.52,0,0,1-.64-.25,3.26,3.26,0,0,1-.48-.27,1.32,1.32,0,0,1-.36-.34,1.72,1.72,0,0,1-.19-.41,1.42,1.42,0,0,1-.08-.52,1.66,1.66,0,0,1,.67-1.42,3.42,3.42,0,0,1,2-.5,5.51,5.51,0,0,1,2.21.46,4.3,4.3,0,0,1,1.54.95l1-1.8a7.75,7.75,0,0,0-4.7-1.57,6.93,6.93,0,0,0-2,.28,5.11,5.11,0,0,0-1.6.8,3.8,3.8,0,0,0-1.06,1.34,4,4,0,0,0-.39,1.81,3.67,3.67,0,0,0,.25,1.39,2.65,2.65,0,0,0,.79,1,5.28,5.28,0,0,0,1.28.73,14.48,14.48,0,0,0,1.81.58c.47.12.86.22,1.12.3a9.48,9.48,0,0,1,.92.29,4,4,0,0,1,.78.33,3.28,3.28,0,0,1,.53.39,1.33,1.33,0,0,1,.37.5,2.08,2.08,0,0,1,.09.63,1.48,1.48,0,0,1-.7,1.32,3.74,3.74,0,0,1-2,.46,7.06,7.06,0,0,1-2.8-.58,5.92,5.92,0,0,1-2-1.2l-1,1.88a8.77,8.77,0,0,0,2.66,1.39,9.86,9.86,0,0,0,3.07.48,8.86,8.86,0,0,0,1.6-.13,5.46,5.46,0,0,0,1.4-.45,4.67,4.67,0,0,0,1.11-.77,3.4,3.4,0,0,0,.73-1.12,4.22,4.22,0,0,0,.25-1.5,3.47,3.47,0,0,0-.22-1.33,2.85,2.85,0,0,0-.58-1"/><path class="cls-1" d="M722.38,326.47a4.1,4.1,0,0,1-1.32.75,4.41,4.41,0,0,1-1.4.22,4,4,0,0,1-2.3-.72,4.77,4.77,0,0,1-1.6-1.87,5.78,5.78,0,0,1-.58-2.51,5.45,5.45,0,0,1,.19-1.45,5.22,5.22,0,0,1,.54-1.37,5.29,5.29,0,0,1,.89-1.14,3.91,3.91,0,0,1,1.25-.78,4.24,4.24,0,0,1,1.56-.29,5.71,5.71,0,0,1,1,.1,4.53,4.53,0,0,1,1,.36,3.13,3.13,0,0,1,.92.69,3.88,3.88,0,0,1,.68,1.05l1.73-1.16a5.39,5.39,0,0,0-2.09-2.2,6.12,6.12,0,0,0-3.19-.83,6.86,6.86,0,0,0-2.33.39,5.86,5.86,0,0,0-1.88,1.08,7.31,7.31,0,0,0-1.37,1.56,7,7,0,0,0-.87,1.88,7.33,7.33,0,0,0-.28,2,7.44,7.44,0,0,0,.45,2.49,8.14,8.14,0,0,0,1.24,2.22,6.41,6.41,0,0,0,2,1.65,6,6,0,0,0,2.49.77c.7.46,1,.94,1,1.45a.77.77,0,0,1-.3.68,1.43,1.43,0,0,1-.87.24,2.92,2.92,0,0,1-1.39-.41l-.54,1.16a5,5,0,0,0,2.3.56,2.29,2.29,0,0,0,1.57-.49,1.74,1.74,0,0,0,.58-1.34,2.44,2.44,0,0,0-1-1.88,7.19,7.19,0,0,0,2.86-1.06,4.57,4.57,0,0,0,1.84-2.12l-1.82-1a3.64,3.64,0,0,1-1,1.31"/><path class="cls-1" d="M618.89,324.2a6.26,6.26,0,0,1-.86,1.62,4.14,4.14,0,0,1-3.27,1.61,3.94,3.94,0,0,1-2.34-.73,4.82,4.82,0,0,1-1.57-1.87,6,6,0,0,1-.53-2.47,5.84,5.84,0,0,1,.31-1.85,5.2,5.2,0,0,1,.86-1.61,4.12,4.12,0,0,1,1.42-1.15,4,4,0,0,1,1.85-.44,4.09,4.09,0,0,1,1.82.41,4.26,4.26,0,0,1,1.4,1.12,5.72,5.72,0,0,1,.87,1.62,5.54,5.54,0,0,1,.33,1.9,5.91,5.91,0,0,1-.3,1.84m.72-6.66a6.15,6.15,0,0,0-2.12-1.61,6,6,0,0,0-2.69-.62,6.16,6.16,0,0,0-2.66.59,6.66,6.66,0,0,0-2.13,1.54,7.67,7.67,0,0,0-1.39,2.25,7.15,7.15,0,0,0-.51,2.66,7.57,7.57,0,0,0,.31,2.1,7.2,7.2,0,0,0,.89,1.93,7.71,7.71,0,0,0,1.39,1.57,6.12,6.12,0,0,0,1.85,1.06,6.42,6.42,0,0,0,4.87-.19,6.37,6.37,0,0,0,2.12-1.54,7.62,7.62,0,0,0,1.39-2.24,7.11,7.11,0,0,0,.51-2.66,7.27,7.27,0,0,0-.48-2.58,8.24,8.24,0,0,0-1.34-2.26"/><path class="cls-1" d="M600.41,326.47a4,4,0,0,1-1.32.75,4.41,4.41,0,0,1-1.4.22,3.91,3.91,0,0,1-2.29-.72,4.74,4.74,0,0,1-1.62-1.87,5.64,5.64,0,0,1-.58-2.51,5.45,5.45,0,0,1,.19-1.45,5.59,5.59,0,0,1,.54-1.37,5.29,5.29,0,0,1,.89-1.14,4,4,0,0,1,1.25-.78,4.26,4.26,0,0,1,1.57-.29,6.09,6.09,0,0,1,1,.1,4.29,4.29,0,0,1,1,.36,3.13,3.13,0,0,1,.92.69,3.93,3.93,0,0,1,.7,1.05l1.71-1.16a5.22,5.22,0,0,0-2.07-2.2,6.14,6.14,0,0,0-3.21-.83,6.77,6.77,0,0,0-2.32.39,6.08,6.08,0,0,0-1.9,1.08,7.55,7.55,0,0,0-1.36,1.56,6.69,6.69,0,0,0-.87,1.88,7.31,7.31,0,0,0,.2,4.61,8.34,8.34,0,0,0,1.35,2.3,6.47,6.47,0,0,0,2.12,1.63,6,6,0,0,0,2.68.62,6.74,6.74,0,0,0,2.21-.37,6.14,6.14,0,0,0,2-1.11,4.45,4.45,0,0,0,1.34-1.75l-1.82-1a3.36,3.36,0,0,1-1,1.31"/><path class="cls-1" d="M733.67,323.91l2.3-6.09,2.24,6.09m-3.26-8.5-5.45,13.9h2.33l1.45-3.78h5.36l1.46,3.78h2.32l-5.4-13.9Z"/><path class="cls-1" d="M704.78,322.46a8.81,8.81,0,0,1-.11,1.48,4.9,4.9,0,0,1-.39,1.34,3.57,3.57,0,0,1-.68,1.12,2.9,2.9,0,0,1-1.09.75,4,4,0,0,1-1.51.28,3.83,3.83,0,0,1-1.51-.28,2.88,2.88,0,0,1-1.07-.74,3.83,3.83,0,0,1-.7-1.11,5.25,5.25,0,0,1-.4-1.35,9,9,0,0,1-.11-1.5V315.4H695v7.05a10.79,10.79,0,0,0,.19,2.1,7.42,7.42,0,0,0,.65,1.89A5.36,5.36,0,0,0,697,328a5.05,5.05,0,0,0,1.71,1,6.49,6.49,0,0,0,2.32.38,6.38,6.38,0,0,0,2.74-.55,4.56,4.56,0,0,0,1.88-1.52,6.67,6.67,0,0,0,1-2.2,10,10,0,0,0,.34-2.69v-7.05h-2.23"/><path class="cls-1" d="M590.27,168.3a4.38,4.38,0,0,1,0,8.74,4.37,4.37,0,0,1,0-8.74m0,13.63a9.26,9.26,0,1,0-9.28-9.26,9.21,9.21,0,0,0,9.28,9.26"/><path class="cls-1" d="M453.23,181.93c4.89,0,8.58-3.59,8.58-9.1v-1.38h-9.87v3.78h4.76a3.43,3.43,0,0,1-3.47,2.08,4.38,4.38,0,0,1-4.53-4.58,4.47,4.47,0,0,1,4.44-4.71,4.32,4.32,0,0,1,3.89,2.21l4.05-2.42a9.13,9.13,0,0,0-7.88-4.4,9.27,9.27,0,1,0,0,18.53"/><polyline class="cls-1" points="622.89 175.06 628.09 175.06 628.09 171.06 622.89 171.06 622.89 168.06 630.77 168.06 630.77 163.81 618.09 163.81 618.09 181.51 622.89 181.51"/><polyline class="cls-1" points="503 181.51 509.93 163.81 504.79 163.81 500.63 174.72 496.52 163.81 491.38 163.81 498.23 181.51"/><path class="cls-1" d="M706.22,168.07h3.35a1.66,1.66,0,1,1,0,3.3h-3.35m0,4h2l3.52,6.12H717l-3.92-6.82a5.72,5.72,0,0,0,3.1-5.13,5.84,5.84,0,0,0-6.12-5.75h-8.56v17.7h4.7V175.4Z"/><path class="cls-1" d="M477.65,168.3a4.38,4.38,0,0,1,0,8.74,4.37,4.37,0,0,1,0-8.74m0,13.63a9.26,9.26,0,1,0-9.29-9.26,9.21,9.21,0,0,0,9.29,9.26"/><path class="cls-1" d="M662.77,176.91v-8.48h2.16c2.8,0,4.73,1.67,4.73,4.24s-1.93,4.24-4.73,4.24m9.69-4.24c0-5.08-4.06-8.85-9.45-8.85H658v17.7h7.21c5.39,0,9.45-3.77,9.45-8.85"/><polyline class="cls-1" points="650.6 177.19 642.71 177.19 642.71 174.56 647.92 174.56 647.92 170.76 642.71 170.76 642.71 168.13 650.6 168.13 650.6 163.81 637.93 163.81 637.93 181.51 650.6 181.51"/><path class="cls-1" d="M730.17,174.26l1.77-4.35,1.77,4.35m3,7.26h4.93l-7.46-17.7h-4.53l-7.39,17.7h5l1.23-3.05h7l1.26,3.05Z"/><path class="cls-1" d="M540.89,168.07h3.33a1.66,1.66,0,1,1,0,3.3h-3.33m0,4h2l3.5,6.12h5.29l-3.94-6.82a5.72,5.72,0,0,0,3.1-5.13,5.84,5.84,0,0,0-6.12-5.75h-8.56v17.7h4.72V175.4Z"/><polyline class="cls-1" points="694.16 177.19 686.27 177.19 686.27 174.56 691.48 174.56 691.48 170.76 686.27 170.76 686.27 168.13 694.16 168.13 694.16 163.81 681.49 163.81 681.49 181.51 694.16 181.51"/><polyline class="cls-1" points="562.95 172.19 570.08 181.51 574.11 181.51 574.11 163.81 569.41 163.81 569.41 173.16 562.25 163.81 558.25 163.81 558.25 181.51 562.95 181.51"/><polyline class="cls-1" points="528.81 177.19 520.93 177.19 520.93 174.56 526.13 174.56 526.13 170.76 520.93 170.76 520.93 168.13 528.81 168.13 528.81 163.81 516.14 163.81 516.14 181.51 528.81 181.51"/><polyline class="cls-1" points="752.88 163.81 747.87 163.81 747.87 181.51 760.32 181.51 760.32 176.96 752.88 176.96"/><rect class="cls-1" x="650.97" y="201.53" width="33.21" height="32.24"/><polyline class="cls-1" points="649.32 293.06 649.32 242.94 620.51 242.94 620.51 266.55 636.28 293.06"/><path class="cls-1" d="M649.32,241.29V201.52h-8.94a19.88,19.88,0,0,0,0,39.76"/><polyline class="cls-1" points="620.51 293.06 634.36 293.06 620.51 269.77"/><rect class="cls-1" x="728.94" y="201.53" width="30.57" height="60.24"/><path class="cls-1" d="M603.6,270.23a33.17,33.17,0,0,0-56.39,22.84h66.34a33,33,0,0,0-9.95-22.84"/><path class="cls-1" d="M660.78,235.42H651v57.65h9.81a28.83,28.83,0,1,0,0-57.65"/><path class="cls-1" d="M580.37,259.07a34.87,34.87,0,0,1,34.82,34h3.67V267l-38.48-64.69-46,77.39,8.69,13.37h2.52a34.87,34.87,0,0,1,34.82-34"/><rect class="cls-1" x="761.17" y="263.42" width="30.57" height="29.65"/><rect class="cls-1" x="691.28" y="201.53" width="30.57" height="91.54"/><path class="cls-1" d="M545.9,228.84a27.35,27.35,0,0,0-27.32-27.32h-35L519,256.16a27.43,27.43,0,0,0,26.87-27.32"/><rect class="cls-1" x="728.94" y="263.42" width="30.57" height="29.65"/><polyline class="cls-1" points="533.4 281.29 526.4 293.06 541.06 293.06"/><rect class="cls-1" x="412.11" y="238.92" width="30.57" height="54.15"/><path class="cls-1" d="M444.34,201.52v35.75H451a17.87,17.87,0,0,0,0-35.74"/><polyline class="cls-1" points="482.84 256.15 517.06 256.15 482.84 203.49"/><polyline class="cls-1" points="518.13 257.81 482.84 257.81 482.84 293.06 524.47 293.06 532.41 279.74"/><rect class="cls-1" x="412.11" y="201.52" width="30.57" height="35.75"/><path class="cls-1" d="M454.11,238.92h-9.78v54.15h9.78a27.07,27.07,0,0,0,0-54.14"/><polyline class="cls-1" points="110.35 236.16 110.35 222.75 104.81 232.91 103.07 232.91 97.51 222.75 97.51 236.16 94.55 236.16 94.55 217.35 97.74 217.35 103.95 228.84 110.17 217.35 113.36 217.35 113.36 236.16"/><rect class="cls-1" x="122.89" y="217.36" width="2.96" height="18.8"/><polyline class="cls-1" points="138.35 222.87 138.35 236.16 135.37 236.16 135.37 217.35 137.8 217.35 148.46 230.94 148.46 217.38 151.45 217.38 151.45 236.16 148.85 236.16"/><rect class="cls-1" x="160.98" y="217.36" width="2.96" height="18.8"/><path class="cls-1" d="M184.6,221.78a5.76,5.76,0,0,0-2.07-1.29,7.72,7.72,0,0,0-3-.62,4.64,4.64,0,0,0-2.76.68,2.26,2.26,0,0,0-.92,1.92,2.5,2.5,0,0,0,.11.7,2.15,2.15,0,0,0,.26.55,1.93,1.93,0,0,0,.48.46,4.84,4.84,0,0,0,.65.37,7.21,7.21,0,0,0,.86.33c.36.12.72.21,1,.29s.73.19,1.26.32c.83.2,1.53.4,2.12.59a10.18,10.18,0,0,1,1.7.74,4.85,4.85,0,0,1,1.29,1,4.13,4.13,0,0,1,.79,1.34,5.26,5.26,0,0,1,.3,1.8,5.48,5.48,0,0,1-.36,2,4.48,4.48,0,0,1-1,1.52,5.78,5.78,0,0,1-1.49,1.05,8,8,0,0,1-1.9.61,12.26,12.26,0,0,1-2.17.19,13.26,13.26,0,0,1-4.16-.66,11.82,11.82,0,0,1-3.61-1.88l1.37-2.55a8,8,0,0,0,2.65,1.62,9.72,9.72,0,0,0,3.8.78,5,5,0,0,0,2.71-.62,2,2,0,0,0,.95-1.78,2.42,2.42,0,0,0-.14-.84,1.67,1.67,0,0,0-.48-.68,5.48,5.48,0,0,0-.73-.52,4.83,4.83,0,0,0-1-.45c-.45-.16-.86-.29-1.24-.39s-.87-.24-1.51-.4a18.94,18.94,0,0,1-2.46-.79,7.3,7.3,0,0,1-1.71-1,3.26,3.26,0,0,1-1.07-1.37,4.71,4.71,0,0,1-.34-1.88,5.51,5.51,0,0,1,.53-2.46,5.06,5.06,0,0,1,1.43-1.8,6.79,6.79,0,0,1,2.17-1.08,9.25,9.25,0,0,1,2.69-.38,10.46,10.46,0,0,1,6.35,2.12"/><polyline class="cls-1" points="208.74 219.97 202.5 219.97 202.5 236.16 199.5 236.16 199.5 219.97 193.24 219.97 193.24 217.34 208.74 217.34"/><path class="cls-1" d="M224.19,215.41l-1.92-.58,1.51-2.91h2.79l-2.38,3.49Zm5.26,18.12v2.63H216.56v-18.8h12.66V220h-9.7v5.34h8.39v2.47h-8.39v5.74h9.93Z"/><path class="cls-1" d="M240.77,227H246a2.45,2.45,0,0,0,2-1,3.86,3.86,0,0,0,.81-2.49,3.57,3.57,0,0,0-.9-2.46,2.74,2.74,0,0,0-2.1-1h-5m-3,16.18v-18.8H246a5.48,5.48,0,0,1,2.34.53,5.77,5.77,0,0,1,1.85,1.4,6.83,6.83,0,0,1,1.18,2,5.83,5.83,0,0,1,.44,2.23,6.2,6.2,0,0,1-1,3.46,4.92,4.92,0,0,1-2.68,2.07l4.42,7.15h-3.33l-4.08-6.55h-4.37v6.55Z"/><rect class="cls-1" x="260.6" y="217.36" width="2.96" height="18.8"/><path class="cls-1" d="M280.93,233.61a5.21,5.21,0,0,0,2.52-.6,5.45,5.45,0,0,0,1.88-1.57,7.76,7.76,0,0,0,1.15-2.19,8.22,8.22,0,0,0,.4-2.5,7.59,7.59,0,0,0-.44-2.57,7.26,7.26,0,0,0-1.18-2.18,5.68,5.68,0,0,0-1.88-1.52,5.52,5.52,0,0,0-2.46-.56,5.41,5.41,0,0,0-2.52.59,5.34,5.34,0,0,0-1.91,1.56,7.49,7.49,0,0,0-1.17,2.18,8.22,8.22,0,0,0-.4,2.5,7.72,7.72,0,0,0,.72,3.34,6.26,6.26,0,0,0,2.12,2.53,5.37,5.37,0,0,0,3.18,1m-9-6.84a9.46,9.46,0,0,1,.7-3.6,9.93,9.93,0,0,1,1.87-3,9,9,0,0,1,2.9-2.1,8.44,8.44,0,0,1,3.6-.78,8.24,8.24,0,0,1,3.66.83,8.53,8.53,0,0,1,2.85,2.18,10.59,10.59,0,0,1,1.81,3.07,9.59,9.59,0,0,1,.65,3.49,10,10,0,0,1-.68,3.59,10.28,10.28,0,0,1-1.87,3,8.72,8.72,0,0,1-2.88,2.09,8.44,8.44,0,0,1-3.6.78,8.83,8.83,0,0,1-3-.52,8.27,8.27,0,0,1-2.51-1.44,10,10,0,0,1-1.88-2.12,10.43,10.43,0,0,1-1.2-2.6,9.87,9.87,0,0,1-.42-2.84"/><path class="cls-1" d="M316.8,220h-3.71v13.55h3.71a6.1,6.1,0,0,0,3.35-.9,5.52,5.52,0,0,0,2.1-2.43,8.18,8.18,0,0,0,.7-3.47,7.13,7.13,0,0,0-1.64-4.88A5.68,5.68,0,0,0,316.8,220m-6.66,16.18v-18.8h6.66a10.35,10.35,0,0,1,4,.73,7.68,7.68,0,0,1,2.88,2,9.35,9.35,0,0,1,1.73,3,11.1,11.1,0,0,1,.58,3.66,9.46,9.46,0,0,1-2.49,6.85,8.89,8.89,0,0,1-6.68,2.58h-6.67Z"/><path class="cls-1" d="M343.55,228.85l-3-8.23-3.11,8.23m1.71-11.5H342l7.3,18.8h-3.13l-2-5.11h-7.25l-2,5.11h-3.16l7.36-18.8Z"/><path class="cls-1" d="M253.22,260.67l-.31-.18c-.12-.08-.39-.21-.78-.41s-.79-.38-1.17-.52a10.91,10.91,0,0,0-1.32-.41,5.52,5.52,0,0,0-1.4-.19c-1,0-1.49.31-1.49.93a1.16,1.16,0,0,0,.06.38,1,1,0,0,0,.25.31c.12.09.25.17.36.24a3.06,3.06,0,0,0,.54.23c.23.09.44.16.61.21l.79.24.87.27a18.81,18.81,0,0,1,1.93.69,10.86,10.86,0,0,1,1.54.82,4.67,4.67,0,0,1,1.2,1.07,4.4,4.4,0,0,1,.72,1.4,5.66,5.66,0,0,1,.28,1.85,6.23,6.23,0,0,1-.42,2.35,4.88,4.88,0,0,1-1.09,1.71,5.59,5.59,0,0,1-1.63,1.11,7.77,7.77,0,0,1-1.93.62,11.54,11.54,0,0,1-2.09.18,16.3,16.3,0,0,1-4.25-.6,16.47,16.47,0,0,1-3.92-1.6l2.23-4.52.36.22c.16.09.45.26.93.49s.93.44,1.39.63a12.12,12.12,0,0,0,1.62.5,7.65,7.65,0,0,0,1.74.23c1,0,1.49-.28,1.49-.83a.84.84,0,0,0-.19-.55,1.71,1.71,0,0,0-.65-.44c-.3-.13-.59-.24-.87-.34l-1.18-.36-1.28-.39A8.83,8.83,0,0,1,242.5,264a4.49,4.49,0,0,1-1.12-3.22A6.29,6.29,0,0,1,242,258a5.32,5.32,0,0,1,1.54-2,7,7,0,0,1,2.23-1.19,8.4,8.4,0,0,1,2.68-.41,16.07,16.07,0,0,1,7,2"/><path class="cls-1" d="M271.87,266.21l-1.67-6.62-1.74,6.62m-1.13-11.68h5.78l6,18.8h-5.23l-1.14-3.69h-5l-1.12,3.69h-5.26l6-18.8Z"/><path class="cls-1" d="M295,253.73l-3.18-.85,1.31-3.76h4.48m-4.2,24.37a9.67,9.67,0,0,1-3.19-.49,7.21,7.21,0,0,1-2.4-1.34,7.41,7.41,0,0,1-1.63-2,9.53,9.53,0,0,1-1-2.54,13.27,13.27,0,0,1-.29-2.88v-9.66h5.17v9.66a7.68,7.68,0,0,0,.19,1.79,4.83,4.83,0,0,0,.58,1.5,2.8,2.8,0,0,0,1,1.05,3.27,3.27,0,0,0,3.06,0,2.94,2.94,0,0,0,1.06-1.07,5.6,5.6,0,0,0,.56-1.5,8.18,8.18,0,0,0,.19-1.76v-9.66H302v9.66a12.47,12.47,0,0,1-.51,3.67,8.8,8.8,0,0,1-1.53,2.93,6.77,6.77,0,0,1-2.66,2,9.61,9.61,0,0,1-3.78.71"/><path class="cls-1" d="M317.43,259h-2.07v9.8h2.07a3.81,3.81,0,0,0,3.11-1.37,5.43,5.43,0,0,0,1.14-3.56,5.31,5.31,0,0,0-1.15-3.55,3.85,3.85,0,0,0-3.1-1.33m-7.23,14.31v-18.8h7.22a10.87,10.87,0,0,1,4.11.74,8.13,8.13,0,0,1,3,2,9.35,9.35,0,0,1,1.76,3,10.38,10.38,0,0,1,.62,3.66,9.23,9.23,0,0,1-2.6,6.85,9.32,9.32,0,0,1-6.88,2.58H310.2Z"/><polyline class="cls-1" points="347.86 268.82 347.86 273.33 334.46 273.33 334.46 254.53 347.61 254.53 347.61 259.01 339.61 259.01 339.61 261.68 346.46 261.68 346.46 265.85 339.61 265.85 339.61 268.82"/></svg>